<?xml version="1.0" encoding="UTF-8"?>
<svg width="48px" height="28px" viewBox="0 0 48 28" version="1.1" xmlns="http://www.w3.org/2000/svg" xmlns:xlink="http://www.w3.org/1999/xlink">
    <title>Icons/Format Panel Icons/Structure/balanced-map-clockwise Copy</title>
    <g id="Icons/Format-Panel-Icons/Structure/balanced-map-clockwise-Copy" stroke="none" stroke-width="1" fill="none" fill-rule="evenodd">
        <rect id="Rectangle" x="0" y="0" width="48" height="28"></rect>
        <path d="M9.30007971,6.6 C14.3492531,6.6 17.5752905,7.72597349 18.8711628,10.0996718 L29.0606068,10.0998676 C29.9983661,7.89675416 33.0752579,6.88638647 38.1491889,6.88638647 C38.5634024,6.88638647 38.8991889,7.22217291 38.8991889,7.63638647 C38.8991889,8.05060003 38.5634024,8.38638647 38.1491889,8.38638647 C34.2625018,8.38638647 31.8556516,8.99704708 30.8366595,10.1003127 L31.7366897,10.1001958 C32.5172834,10.1001958 33.1500797,10.7329921 33.1500797,11.5135858 L33.1500797,11.5135858 L33.1500797,17.1868058 C33.1500797,17.9673996 32.5172834,18.6001958 31.7366897,18.6001958 L31.7366897,18.6001958 L31.0155446,18.6012654 C32.1095662,19.4288499 34.4212298,19.9001958 38.0002667,19.9001958 C38.4144803,19.9001958 38.7502667,20.2359823 38.7502667,20.6501958 C38.7502667,21.0644094 38.4144803,21.4001958 38.0002667,21.4001958 C37.7484133,21.4001958 37.5016092,21.3979742 37.2598664,21.3935035 L37.2598664,21.3935035 L36.5498337,21.3733165 L35.8702399,21.3394695 C32.1705153,21.1126351 29.890122,20.2426564 29.0845488,18.6011003 L18.8218881,18.6008266 C17.4986378,20.5183872 14.3142075,21.4001958 9.30007971,21.4001958 C8.88586614,21.4001958 8.55007971,21.0644094 8.55007971,20.6501958 C8.55007971,20.2359823 8.88586614,19.9001958 9.30007971,19.9001958 C12.8260587,19.9001958 15.2688885,19.4427277 16.6434119,18.6003687 L16.2634697,18.6001958 C15.482876,18.6001958 14.8500797,17.9673996 14.8500797,17.1868058 L14.8500797,17.1868058 L14.8500797,11.5135858 C14.8500797,10.7329921 15.482876,10.1001958 16.2634697,10.1001958 L16.2634697,10.1001958 L17.0174627,10.1003889 C15.7476552,8.7924722 13.1977653,8.1 9.30007971,8.1 C8.88586614,8.1 8.55007971,7.76421356 8.55007971,7.35 C8.55007971,6.93578644 8.88586614,6.6 9.30007971,6.6 Z M10.7433198,12.1470866 L10.7500797,12.2501958 L10.7500797,16.4501958 C10.7500797,16.8644094 10.4142933,17.2001958 10.0000797,17.2001958 C9.62038394,17.2001958 9.30658874,16.9180419 9.25692632,16.5519664 L9.25007971,16.4501958 L9.25007971,13.6511958 L8.31610485,14.2742335 C8.00278984,14.4831102 7.58947028,14.4251317 7.3442853,14.1539259 L7.27604198,14.066221 C7.06716531,13.752906 7.12514379,13.3395864 7.39634962,13.0944014 L7.48405456,13.0261581 L9.58405456,11.6261581 C10.053152,11.3134265 10.6721229,11.6115258 10.7433198,12.1470866 Z M38,11.4989348 C38.3796958,11.4989348 38.693491,11.7810886 38.7431534,12.1471642 L38.75,12.2489348 L38.751,15.0469348 L39.6839749,14.424897 C39.9972899,14.2160204 40.4106094,14.2739989 40.6557944,14.5452047 L40.7240377,14.6329096 C40.9329144,14.9462246 40.8749359,15.3595442 40.6037301,15.6047292 L40.5160251,15.6729725 L38.4160251,17.0729725 C37.9469277,17.3857041 37.3279568,17.0876048 37.2567599,16.552044 L37.25,16.4489348 L37.25,12.2489348 C37.25,11.8347212 37.5857864,11.4989348 38,11.4989348 Z M31.6490797,11.6001958 L16.3490797,11.6001958 L16.3490797,17.1001958 L31.6490797,17.1001958 L31.6490797,11.6001958 Z" id="Combined-Shape" fill="#000000" fill-rule="nonzero"></path>
    </g>
</svg>