<svg width="72" height="12" viewBox="0 0 72 12" fill="none" xmlns="http://www.w3.org/2000/svg">
<path d="M0 5.25H2V6.75H0V5.25Z" fill="#27292A"/>
<path d="M3.5 5.25H5.5V6.75H3.5V5.25Z" fill="#27292A"/>
<path d="M9 5.25H7V6.75H9V5.25Z" fill="#27292A"/>
<path d="M10.5 5.25H12.5V6.75H10.5V5.25Z" fill="#27292A"/>
<path d="M16 5.25H14V6.75H16V5.25Z" fill="#27292A"/>
<path d="M17.5 5.25H19.5V6.75H17.5V5.25Z" fill="#27292A"/>
<path d="M23 5.25H21V6.75H23V5.25Z" fill="#27292A"/>
<path d="M24.5 5.25H26.5V6.75H24.5V5.25Z" fill="#27292A"/>
<path d="M30 5.25H28V6.75H30V5.25Z" fill="#27292A"/>
<path d="M31.5 5.25H33.5V6.75H31.5V5.25Z" fill="#27292A"/>
<path d="M37 5.25H35V6.75H37V5.25Z" fill="#27292A"/>
<path d="M38.5 5.25H40.5V6.75H38.5V5.25Z" fill="#27292A"/>
<path d="M44 5.25H42V6.75H44V5.25Z" fill="#27292A"/>
<path d="M45.5 5.25H47.5V6.75H45.5V5.25Z" fill="#27292A"/>
<path d="M51 5.25H49V6.75H51V5.25Z" fill="#27292A"/>
<path d="M52.5 5.25H54.5V6.75H52.5V5.25Z" fill="#27292A"/>
<path d="M58 5.25H56V6.75H58V5.25Z" fill="#27292A"/>
<path d="M59.5 5.25H61.5V6.75H59.5V5.25Z" fill="#27292A"/>
<path d="M65 5.25H63V6.75H65V5.25Z" fill="#27292A"/>
<path d="M66.5 5.25H68.5V6.75H66.5V5.25Z" fill="#27292A"/>
<path d="M72 5.25H70V6.75H72V5.25Z" fill="#27292A"/>
</svg>
