<svg width="73" height="12" viewBox="0 0 73 12" fill="none" xmlns="http://www.w3.org/2000/svg">
<path fill-rule="evenodd" clip-rule="evenodd" d="M56.5808 5.75C56.2057 5.75 55.6914 5.78972 55.0341 5.8583L54.2881 5.93612L54.1325 4.44422L54.8784 4.36639C55.5409 4.29727 56.1218 4.25 56.5808 4.25C57.0599 4.25 57.5296 4.25899 57.989 4.27525L58.7385 4.30178L58.6854 5.80084L57.9359 5.77431C57.4931 5.75863 57.0411 5.75 56.5808 5.75ZM60.4032 4.44422L61.1497 4.51604C62.1497 4.61225 63.0791 4.72991 63.9231 4.84437L64.6663 4.94516L64.4647 6.43155L63.7215 6.33076C62.8868 6.21756 61.9788 6.10273 61.0061 6.00915L60.2595 5.93732L60.4032 4.44422ZM52.5444 6.14679L51.7991 6.23033C50.8041 6.34184 49.7056 6.45475 48.527 6.54668L47.7793 6.60501L47.6626 5.10955L48.4104 5.05122C49.5663 4.96105 50.6469 4.85007 51.632 4.73966L52.3774 4.65613L52.5444 6.14679ZM2.58083 6.25C2.03489 6.25 1.45143 6.26702 0.861822 6.29503L0.112667 6.33061L0.0415039 4.8323L0.790659 4.79672C1.39712 4.76791 2.00516 4.75 2.58083 4.75C2.96074 4.75 3.40434 4.77225 3.89156 4.80972L4.63935 4.86722L4.52433 6.36281L3.77654 6.3053C3.30919 6.26936 2.90751 6.25 2.58083 6.25ZM29.0808 6.25C28.765 6.25 28.3172 6.29481 27.7448 6.37766L27.0026 6.48511L26.7877 5.00058L27.5299 4.89313C28.1168 4.80818 28.6524 4.75 29.0808 4.75C29.6106 4.75 30.235 4.76564 30.9205 4.79121L31.67 4.81917L31.6141 6.31813L30.8646 6.29017C30.1878 6.26492 29.5841 6.25 29.0808 6.25ZM33.8098 4.92764L34.5587 4.96842C34.769 4.97987 34.9803 4.99144 35.1923 5.00304C36.1906 5.05768 37.2027 5.11307 38.1782 5.1603L38.9273 5.19656L38.8548 6.69481L38.1056 6.65854C37.125 6.61107 36.1071 6.55536 35.1087 6.50071C34.8971 6.48913 34.6864 6.4776 34.4771 6.4662L33.7283 6.42542L33.8098 4.92764ZM5.6801 4.98291L6.42467 5.07297C7.21686 5.1688 8.06241 5.27873 8.92664 5.39174L9.67031 5.48899L9.47581 6.97633L8.73214 6.87908C7.86743 6.766 7.0286 6.65696 6.24454 6.56212L5.49997 6.47206L5.6801 4.98291ZM65.9012 5.12507L66.6464 5.21007C67.1659 5.26933 70.3711 5.72323 70.7152 5.72322L70.5538 7.2266C70.1245 7.2266 67.0145 6.76179 66.4764 6.70041L65.7312 6.61541L65.9012 5.12507ZM45.9829 6.70424L45.2332 6.72586C44.7004 6.74123 44.1573 6.7498 43.6055 6.75005C43.0936 6.78313 42.4635 6.79156 41.7605 6.78383L41.0106 6.77558L41.0271 5.27567L41.777 5.28392C42.4758 5.29161 43.0709 5.28241 43.5309 5.25172L43.5558 5.25006H43.5808C44.1258 5.25006 44.6626 5.24169 45.19 5.22648L45.9397 5.20486L45.9829 6.70424ZM25.6473 6.73087L24.9091 6.86353C23.9984 7.02719 23.0172 7.20054 22.0251 7.34979L21.2835 7.46137L21.0603 5.97806L21.802 5.86648C22.7712 5.72067 23.7343 5.55063 24.6438 5.38718L25.382 5.25452L25.6473 6.73087ZM10.6724 5.62016L11.4166 5.7136C12.2636 5.81994 13.1004 5.91986 13.8995 6.00404L14.6454 6.0826L14.4883 7.57435L13.7424 7.49579C12.9295 7.41017 12.0819 7.30891 11.2297 7.20191L10.4856 7.10848L10.6724 5.62016ZM19.8323 7.6379L19.0842 7.69183C18.5718 7.72876 18.0678 7.75 17.5808 7.75C17.1793 7.75 16.7437 7.73555 16.2836 7.70997L15.5348 7.66834L15.6181 6.17065L16.3669 6.21229C16.8071 6.23676 17.2139 6.25 17.5808 6.25C18.025 6.25 18.4924 6.2306 18.9763 6.19571L19.7244 6.14179L19.8323 7.6379Z" fill="#27292A"/>
</svg>
