<svg xmlns="http://www.w3.org/2000/svg" width="23" height="23" viewBox="0 0 23 23">
    <g fill="none" fill-rule="evenodd">
        <circle cx="11.5" cy="11.5" r="11.5" fill="#0EC65D"/>
        <path fill="#FFF" d="M6.166 7.586h1.379c.079 0 .142-.06.143-.132 0 0-.017-1.09-.017-1.392v-.004c0-.248.056-.465.155-.647l.047-.082a.03.03 0 0 0-.016.008L5.18 7.786a.028.028 0 0 0-.01.014l.142-.064c.233-.097.516-.15.855-.15zm10.507-.15c-.107-.559-.447-.834-.755-.942-.332-.117-1.005-.239-1.85-.336-.681-.078-1.48-.072-1.964-.057-.058-.388-.336-.742-.648-.865-.83-.326-2.113-.247-2.443-.157-.262.071-.551.218-.713.443-.108.15-.178.344-.178.613 0 .153.004.512.008.832l.008.609a.525.525 0 0 1-.53.517H6.262c-.288 0-.507.047-.675.122a.935.935 0 0 0-.377.293c-.18.236-.21.526-.21.823 0 0 .003.243.063.712.05.363.453 2.9.836 3.671.148.3.247.425.54.558.65.272 2.135.574 2.832.66.695.087 1.13.27 1.39-.262.002-.002.053-.133.123-.325.226-.667.257-1.26.257-1.688 0-.044.066-.046.066 0 0 .302-.06 1.373.77 1.66.327.114 1.005.215 1.695.294.623.07 1.076.309 1.076 1.87 0 .95-.205 1.08-1.273 1.08-.867 0-1.197.023-1.197-.65 0-.542.55-.485.958-.485.182 0 .05-.132.05-.467 0-.334.214-.526.012-.531-1.41-.038-2.24-.002-2.24 1.72 0 1.562.613 1.852 2.614 1.852 1.569 0 2.122-.05 2.77-2.012.128-.387.438-1.57.625-3.554.12-1.255-.111-5.042-.294-5.998zm-2.668 4.117a3.007 3.007 0 0 0-.554.032c.049-.377.212-.84.79-.82.639.021.729.598.73.988a2.739 2.739 0 0 0-.966-.2z"/>
    </g>
</svg>
