<svg xmlns="http://www.w3.org/2000/svg" width="25" height="24" viewBox="0 0 25 24">
    <g fill="none" fill-rule="evenodd">
        <circle cx="12.6" cy="12" r="12" fill="#00AFFF"/>
        <path fill="#FFF" d="M7.248 10.082a3.567 3.567 0 0 1-.849-.82C6.133 8.914 6 8.591 6 8.292c0-.369.1-.676.301-.923.2-.246.487-.369.86-.369h10.678c.314 0 .587.111.816.334.23.222.345.49.345.802 0 .374-.118.732-.356 1.073-.237.34-.531.632-.885.873a6040.48 6040.48 0 0 0-3.395 2.309l-.308.216c-.157.111-.288.202-.392.27-.104.069-.23.146-.377.23-.147.086-.286.15-.417.192-.13.043-.251.064-.363.064h-.014c-.112 0-.232-.02-.363-.064a2.214 2.214 0 0 1-.417-.191 7.546 7.546 0 0 1-.377-.23 15.059 15.059 0 0 1-.392-.27c-.157-.112-.26-.184-.308-.217a367.06 367.06 0 0 0-1.901-1.296 337.36 337.36 0 0 1-1.487-1.013zm11.026.76a3.98 3.98 0 0 0 .726-.618v5.64c0 .312-.114.58-.34.802a1.13 1.13 0 0 1-.82.334H7.16a1.13 1.13 0 0 1-.82-.334 1.083 1.083 0 0 1-.34-.802v-5.64c.213.232.457.438.733.618 1.75 1.165 2.952 1.982 3.605 2.45.276.2.5.355.671.466.172.111.4.225.686.34.285.117.551.175.798.175h.014c.247 0 .513-.058.798-.174.286-.116.514-.23.686-.341.172-.111.395-.267.67-.465.823-.583 2.027-1.4 3.613-2.45z"/>
    </g>
</svg>
