<svg xmlns="http://www.w3.org/2000/svg" width="25" height="24" viewBox="0 0 25 24">
    <g fill="none" fill-rule="evenodd">
        <circle cx="12.8" cy="12" r="12" fill="#FF654A"/>
        <path fill="#FFF" d="M10.42 9.372c0-1.782 1.065-2.98 2.58-2.98 1.515 0 2.58 1.198 2.58 2.98v1.197h-5.16V9.372zm6.451 1.197V9.372C16.871 6.798 15.251 5 13 5c-2.25 0-3.871 1.798-3.871 4.372v1.197h-.484c-.356 0-.645.315-.645.7v6.035c0 .384.289.696.645.696h8.71c.356 0 .645-.312.645-.696v-6.036c0-.384-.289-.699-.645-.699h-.484z"/>
    </g>
</svg>
