<svg xmlns="http://www.w3.org/2000/svg" width="25" height="24" viewBox="0 0 25 24">
    <g fill="none" fill-rule="evenodd">
        <circle cx="12.2" cy="12" r="12" fill="#9B7AFA"/>
        <path fill="#FFF" d="M10.48 13.632a.824.824 0 0 1 .011-1.141.824.824 0 0 1 1.142-.01l.005-.006c.522.43 1.288.41 1.766-.069L16.17 9.64c.509-.509.5-1.344-.02-1.865-.52-.52-1.356-.53-1.866-.02l-.562.562a.824.824 0 0 1-1.18.002.824.824 0 0 1 .002-1.18l.792-.793c1.02-1.02 2.688-1.002 3.73.04l.472.472c1.041 1.041 1.058 2.713.041 3.73l-3.228 3.228c-1.019 1.02-2.688 1.002-3.73-.04l-.142-.142zm3.04-3.415c.302.326.3.83-.011 1.141a.824.824 0 0 1-1.142.01l-.005.006a1.317 1.317 0 0 0-1.766.069L7.83 14.21c-.509.509-.5 1.344.02 1.865.52.52 1.356.53 1.866.02l.562-.562a.824.824 0 0 1 1.18-.002.824.824 0 0 1-.002 1.18l-.792.794c-1.02 1.018-2.688 1.001-3.73-.041l-.472-.472c-1.041-1.041-1.058-2.713-.041-3.73l3.228-3.228c1.019-1.019 2.688-1.001 3.73.04l.142.142z"/>
    </g>
</svg>
