<svg width="24" height="24" viewBox="0 0 24 24" fill="none" xmlns="http://www.w3.org/2000/svg">
<path d="M24 12C24 18.627 18.627 24 12 24C5.373 24 0 18.627 0 12C0 5.373 5.373 0 12 0C18.627 0 24 5.373 24 12" fill="#20C07D"/>
<path d="M19.1172 15.5655C18.4502 14.5205 15.6132 13.6925 14.2482 13.3005C13.8432 13.1845 13.5502 12.8415 13.4932 12.4235L13.4592 12.1725C13.4242 11.9125 13.5602 11.6655 13.7852 11.5295C15.4352 10.5395 15.7122 9.17846 15.7052 7.53646C15.6912 4.53146 12.9802 4.06346 12.2052 3.99146C12.0672 3.97746 11.9332 3.97746 11.7952 3.99146C11.0192 4.06346 8.30819 4.53146 8.29519 7.53646C8.28719 9.17846 8.56419 10.5395 10.2142 11.5295C10.4402 11.6655 10.5762 11.9125 10.5412 12.1725L10.5072 12.4235C10.4502 12.8415 10.1572 13.1845 9.75219 13.3005C8.38719 13.6925 5.54919 14.5205 4.88319 15.5655C4.64619 15.9375 4.45319 16.8585 4.70819 17.2815C5.82619 19.1375 8.96419 20.6385 12.0002 20.6275C15.0362 20.6385 18.1732 19.1375 19.2912 17.2815C19.5462 16.8585 19.3542 15.9375 19.1172 15.5655" fill="white"/>
</svg>
