<svg width="140" height="140" viewBox="0 0 140 140" fill="none" xmlns="http://www.w3.org/2000/svg">
<path d="M89.1898 13.051C74.3622 8.62488 61.5251 9.35253 50.6019 13.0676C48.4545 11.1609 45.6236 10 42.5237 10C35.8021 10 30.3533 15.4489 30.3533 22.1704C30.3533 22.9376 30.4245 23.6896 30.5611 24.4196C29.0478 25.6613 27.5998 26.9485 26.2161 28.2663C19.0152 35.1243 13.4228 45.5974 10.0857 57.4593C6.74221 69.3439 5.61718 82.778 7.4907 95.6845C8.91569 105.501 13.6674 113.189 20.5815 118.966L20.5654 119.056C20.1773 121.231 21.6257 123.309 23.8004 123.697L29.1762 124.656C45.8406 133.397 69.4045 135.014 91.1119 131.957C109.573 129.357 121.229 122.14 127.918 111.803C134.554 101.548 136.066 88.5729 135.034 74.9059C133.173 50.235 119.936 22.2289 89.1898 13.051Z" stroke="white" stroke-width="4" stroke-linecap="round" stroke-linejoin="round"/>
<path d="M88.9038 14.0093C61.2213 5.74582 40.8267 15.7323 26.9058 28.9904C19.8728 35.6885 14.3533 45.9825 11.0483 57.7302C7.74019 69.4891 6.62823 82.7819 8.48033 95.5408C10.8401 111.797 22.5137 121.948 37.9781 127.363C53.4235 132.773 72.7917 133.527 90.9724 130.967C109.229 128.395 120.587 121.291 127.078 111.26C133.543 101.269 135.062 88.5525 134.037 74.9811C132.194 50.558 119.114 23.0274 88.9038 14.0093Z" fill="#5C7CFA" stroke="black" stroke-width="2" stroke-linecap="round" stroke-linejoin="round"/>
<mask id="path-3-outside-1_3614_4600" maskUnits="userSpaceOnUse" x="16.2649" y="24.5414" width="111" height="92" fill="black">
<rect fill="white" x="16.2649" y="24.5414" width="111" height="92"/>
<path fill-rule="evenodd" clip-rule="evenodd" d="M71.9478 52.1331L70.1707 43.9821L69.7621 44.0619C68.6467 44.28 67.5656 43.5524 67.3476 42.4369L67.3072 42.2301C57.95 45.1106 45.0027 48.9933 42.467 49.3555C36.4452 50.2157 33.1606 44.9762 39.1824 41.6916C43.1656 39.5189 57.1537 39.6916 67.0363 40.2291C67.1612 39.3916 67.7991 38.6846 68.6776 38.5129L73.4239 37.5853C74.266 37.4207 75.0885 37.795 75.5348 38.4683C83.9825 33.817 94.9315 27.8975 97.2325 27.0641C102.952 24.9927 107.237 29.4514 102.012 33.8961C98.6855 36.7265 85.8372 39.322 76.1536 40.8422C76.2976 41.9133 75.583 42.9242 74.5084 43.1343L74.0973 43.2146L75.8745 51.3656L80.928 50.3779C81.8325 50.2011 82.7442 50.6472 83.1597 51.4698L85.6308 56.3617C92.0945 54.7527 102.182 53.4037 109.474 57.6487C115.694 61.2697 117.549 67.1942 117.727 71.6675C119.68 85.8598 111.68 92.2426 104.159 94.2784C104.171 94.3261 104.181 94.3745 104.191 94.4234L105.728 102.289L113.108 100.846C114.352 100.603 115.476 99.9437 116.296 98.9766L120.607 93.8895C121.461 92.8814 122.971 92.7568 123.979 93.6111C124.987 94.4654 125.112 95.9752 124.258 96.9833L119.946 102.07C118.424 103.866 116.336 105.091 114.026 105.543L68.3118 114.478C67.0149 114.731 65.7581 113.885 65.5046 112.588C65.2512 111.291 66.097 110.035 67.3938 109.781L84.458 106.446L82.9208 98.5812L82.9166 98.5593L82.911 98.5285L82.9047 98.4907L82.755 98.5199C74.3121 100.17 60.661 93.2377 58.3194 78.2826C58.1498 77.1995 57.2237 76.3669 56.128 76.4063L32.0211 77.2727C31.6996 77.2843 31.3852 77.3711 31.1033 77.5261L28.6942 78.851C26.9606 79.8044 25.0116 78.0013 25.8277 76.1989L26.9961 73.6182C27.3204 72.9019 27.2082 72.0635 26.7071 71.4576L20.1742 63.5604C18.6774 61.7511 19.0744 59.0443 21.0276 57.7408C22.7009 56.6242 24.9453 56.9392 26.2467 58.4731L32.4945 65.8374C32.9764 66.4053 33.7275 66.6686 34.4586 66.5257L64.3165 60.6899L64.7773 55.0627C64.8525 54.1442 65.5292 53.3877 66.4337 53.2109L71.9478 52.1331ZM87.598 97.5733L99.4785 95.2513C99.4833 95.2813 99.4887 95.3113 99.4946 95.3413L101.032 103.207L89.1543 105.528L87.6171 97.6632C87.6112 97.6331 87.6049 97.6031 87.598 97.5733Z"/>
</mask>
<path d="M70.1707 43.9821L72.1248 43.5561C71.8931 42.4933 70.8545 41.8106 69.787 42.0192L70.1707 43.9821ZM71.9478 52.1331L72.3315 54.096C72.8594 53.9928 73.3235 53.6813 73.619 53.2318C73.9145 52.7823 74.0165 52.2327 73.9019 51.7071L71.9478 52.1331ZM69.7621 44.0619L70.1458 46.0248L70.1458 46.0248L69.7621 44.0619ZM67.3476 42.4369L69.3105 42.0533L69.3105 42.0533L67.3476 42.4369ZM67.3072 42.2301L69.27 41.8465C69.1612 41.2899 68.8213 40.8056 68.3347 40.5143C67.8482 40.2229 67.2608 40.1518 66.7188 40.3186L67.3072 42.2301ZM42.467 49.3555L42.1842 47.3756L42.1842 47.3756L42.467 49.3555ZM39.1824 41.6916L40.1401 43.4473L40.1401 43.4473L39.1824 41.6916ZM67.0363 40.2291L66.9277 42.2262C67.9582 42.2822 68.8622 41.5449 69.0144 40.5241L67.0363 40.2291ZM68.6776 38.5129L68.2939 36.5501L68.2939 36.5501L68.6776 38.5129ZM73.4239 37.5853L73.8075 39.5481L73.8075 39.5481L73.4239 37.5853ZM75.5348 38.4683L73.8679 39.5734C74.443 40.441 75.5876 40.7224 76.4995 40.2203L75.5348 38.4683ZM97.2325 27.0641L96.5514 25.1836L96.5514 25.1836L97.2325 27.0641ZM102.012 33.8961L100.716 32.3728L100.716 32.3728L102.012 33.8961ZM76.1536 40.8422L75.8434 38.8664C74.7693 39.0351 74.0266 40.031 74.1714 41.1087L76.1536 40.8422ZM74.5084 43.1343L74.8921 45.0971L74.8921 45.0971L74.5084 43.1343ZM74.0973 43.2146L73.7137 41.2518C73.1857 41.355 72.7216 41.6665 72.4261 42.116C72.1306 42.5655 72.0286 43.1151 72.1432 43.6407L74.0973 43.2146ZM75.8745 51.3656L73.9204 51.7917C74.1521 52.8544 75.1906 53.5371 76.2581 53.3285L75.8745 51.3656ZM80.928 50.3779L80.5444 48.415L80.5444 48.415L80.928 50.3779ZM83.1597 51.4698L84.9449 50.568L84.9449 50.568L83.1597 51.4698ZM85.6308 56.3617L83.8456 57.2634C84.2665 58.0967 85.208 58.5279 86.1139 58.3024L85.6308 56.3617ZM109.474 57.6487L110.48 55.9202L110.48 55.9202L109.474 57.6487ZM117.727 71.6675L115.729 71.747C115.732 71.8116 115.737 71.876 115.746 71.94L117.727 71.6675ZM104.159 94.2784L103.636 92.3479C102.583 92.6327 101.953 93.7082 102.219 94.7657L104.159 94.2784ZM104.191 94.4234L102.228 94.8069L102.228 94.8071L104.191 94.4234ZM105.728 102.289L103.765 102.672C103.867 103.193 104.171 103.652 104.611 103.948C105.052 104.244 105.591 104.353 106.112 104.251L105.728 102.289ZM113.108 100.846L112.724 98.8834L112.724 98.8834L113.108 100.846ZM116.296 98.9766L114.77 97.6836L114.77 97.6836L116.296 98.9766ZM120.607 93.8895L122.133 95.1826L122.133 95.1825L120.607 93.8895ZM123.979 93.6111L122.686 95.1369L122.686 95.1369L123.979 93.6111ZM124.258 96.9833L125.783 98.2763L125.783 98.2763L124.258 96.9833ZM119.946 102.07L118.42 100.777L118.42 100.777L119.946 102.07ZM114.026 105.543L114.409 107.505L114.409 107.505L114.026 105.543ZM68.3118 114.478L68.6954 116.44L68.6954 116.44L68.3118 114.478ZM67.3938 109.781L67.7775 111.744L67.7775 111.744L67.3938 109.781ZM84.458 106.446L84.8417 108.409C85.3623 108.307 85.8211 108.003 86.1173 107.563C86.4134 107.123 86.5226 106.583 86.4209 106.062L84.458 106.446ZM82.9208 98.5812L80.9565 98.9572L80.958 98.9648L82.9208 98.5812ZM82.9166 98.5593L80.9487 98.9163C80.9499 98.9226 80.9511 98.929 80.9523 98.9354L82.9166 98.5593ZM82.911 98.5285L80.9389 98.8611C80.9403 98.8692 80.9417 98.8774 80.9432 98.8855L82.911 98.5285ZM82.9047 98.4907L84.8768 98.1581C84.7871 97.6262 84.4863 97.1531 84.0428 96.8461C83.5992 96.5391 83.0505 96.4244 82.5211 96.5278L82.9047 98.4907ZM82.755 98.5199L82.3714 96.5571L82.3713 96.5571L82.755 98.5199ZM58.3194 78.2826L60.2953 77.9732L60.2953 77.9732L58.3194 78.2826ZM56.128 76.4063L56.1999 78.405L56.1999 78.405L56.128 76.4063ZM32.0211 77.2727L32.093 79.2714L32.093 79.2714L32.0211 77.2727ZM31.1033 77.5261L32.0671 79.2786L32.0671 79.2786L31.1033 77.5261ZM28.6942 78.851L29.658 80.6035L29.658 80.6035L28.6942 78.851ZM25.8277 76.1989L24.0057 75.374L24.0057 75.374L25.8277 76.1989ZM26.9961 73.6182L28.8181 74.4432L28.8181 74.4431L26.9961 73.6182ZM26.7071 71.4576L25.166 72.7324L25.166 72.7324L26.7071 71.4576ZM20.1742 63.5604L18.6331 64.8353L18.6331 64.8353L20.1742 63.5604ZM21.0276 57.7408L19.9174 56.0772L19.9174 56.0772L21.0276 57.7408ZM26.2467 58.4731L24.7216 59.767L24.7216 59.767L26.2467 58.4731ZM32.4945 65.8374L30.9694 67.1312L32.4945 65.8374ZM34.4586 66.5257L34.0749 64.5629L34.0749 64.5629L34.4586 66.5257ZM64.3165 60.6899L64.7002 62.6527C65.5792 62.4809 66.2368 61.7457 66.3099 60.8531L64.3165 60.6899ZM64.7773 55.0627L62.784 54.8995L62.784 54.8995L64.7773 55.0627ZM66.4337 53.2109L66.8173 55.1737L66.8173 55.1737L66.4337 53.2109ZM99.4785 95.2513L101.453 94.9318C101.366 94.397 101.066 93.9202 100.622 93.6105C100.178 93.3007 99.6265 93.1845 99.0948 93.2884L99.4785 95.2513ZM87.598 97.5733L87.2144 95.6105C86.6827 95.7144 86.2159 96.0296 85.9208 96.4839C85.6257 96.9383 85.5275 97.4929 85.6488 98.0209L87.598 97.5733ZM99.4946 95.3413L101.457 94.9577L101.457 94.9575L99.4946 95.3413ZM101.032 103.207L101.415 105.169C101.936 105.068 102.395 104.763 102.691 104.323C102.987 103.883 103.096 103.343 102.995 102.823L101.032 103.207ZM89.1543 105.528L87.1915 105.912C87.2932 106.432 87.5976 106.891 88.0377 107.187C88.4777 107.483 89.0174 107.593 89.538 107.491L89.1543 105.528ZM87.6171 97.6632L85.6543 98.0468L85.6543 98.0469L87.6171 97.6632ZM68.2166 44.4081L69.9937 52.5592L73.9019 51.7071L72.1248 43.5561L68.2166 44.4081ZM70.1458 46.0248L70.5543 45.945L69.787 42.0192L69.3785 42.0991L70.1458 46.0248ZM65.3847 42.8206C65.8147 45.0201 67.9463 46.4547 70.1458 46.0248L69.3785 42.0991C69.367 42.1013 69.3607 42.1006 69.3562 42.0996C69.3504 42.0984 69.3429 42.0956 69.335 42.0903C69.3271 42.085 69.3217 42.0791 69.3183 42.0741C69.3158 42.0704 69.3127 42.0648 69.3105 42.0533L65.3847 42.8206ZM65.3443 42.6138L65.3847 42.8206L69.3105 42.0533L69.27 41.8465L65.3443 42.6138ZM42.7498 51.3354C44.1961 51.1288 48.244 50.0103 52.8884 48.6573C57.6257 47.2773 63.2125 45.5832 67.8956 44.1416L66.7188 40.3186C62.0447 41.7575 56.4793 43.445 51.7697 44.817C46.9672 46.216 43.2736 47.22 42.1842 47.3756L42.7498 51.3354ZM38.2247 39.9358C36.477 40.8891 35.1806 42.1036 34.5007 43.54C33.7972 45.0263 33.8278 46.6137 34.5261 47.9852C35.8743 50.6336 39.2413 51.8366 42.7498 51.3354L42.1842 47.3756C39.671 47.7346 38.3847 46.748 38.0907 46.1705C37.9678 45.9291 37.93 45.6445 38.1161 45.2514C38.3257 44.8085 38.8769 44.1363 40.1401 43.4473L38.2247 39.9358ZM67.1449 38.2321C62.174 37.9617 56.1443 37.7813 50.8355 37.945C48.1833 38.0267 45.6745 38.1953 43.5505 38.4898C41.4939 38.775 39.5611 39.2068 38.2247 39.9358L40.1401 43.4473C40.7953 43.09 42.1047 42.7286 44.0999 42.4519C46.0279 42.1846 48.3806 42.0225 50.9587 41.9431C56.1104 41.7843 62.016 41.959 66.9277 42.2262L67.1449 38.2321ZM68.2939 36.5501C66.5586 36.8893 65.304 38.2856 65.0582 39.9341L69.0144 40.5241C69.0158 40.5152 69.0209 40.5026 69.0312 40.4916C69.0356 40.4869 69.0399 40.4838 69.0435 40.4818C69.0465 40.4801 69.0516 40.4777 69.0612 40.4758L68.2939 36.5501ZM73.0402 35.6224L68.2939 36.5501L69.0612 40.4758L73.8075 39.5481L73.0402 35.6224ZM77.2018 37.3633C76.324 36.0391 74.7038 35.2972 73.0402 35.6224L73.8075 39.5481C73.8168 39.5463 73.8223 39.5465 73.8257 39.5469C73.8296 39.5474 73.8343 39.5484 73.8398 39.5508C73.8526 39.5563 73.8626 39.5654 73.8679 39.5734L77.2018 37.3633ZM96.5514 25.1836C95.2335 25.661 91.7626 27.4391 87.7512 29.5678C83.6573 31.7402 78.798 34.3885 74.5702 36.7163L76.4995 40.2203C80.7193 37.8969 85.5583 35.2597 89.6261 33.1011C93.7764 30.8989 96.9305 29.3006 97.9136 28.9446L96.5514 25.1836ZM103.308 35.4194C104.825 34.1294 105.846 32.6758 106.218 31.1308C106.604 29.5323 106.249 27.9845 105.286 26.7844C103.425 24.4671 99.8838 23.9767 96.5514 25.1836L97.9136 28.9446C100.301 28.08 101.761 28.7833 102.167 29.2887C102.336 29.4999 102.432 29.7707 102.33 30.1936C102.215 30.6699 101.812 31.4404 100.716 32.3728L103.308 35.4194ZM76.4638 42.818C81.3343 42.0534 87.0295 41.0142 91.9455 39.8024C94.4014 39.197 96.6982 38.5399 98.6155 37.8407C100.474 37.163 102.189 36.3721 103.308 35.4194L100.716 32.3728C100.173 32.8353 99.0343 33.4302 97.245 34.0828C95.5149 34.7138 93.3705 35.3313 90.9881 35.9186C86.2273 37.0922 80.6565 38.1108 75.8434 38.8664L76.4638 42.818ZM74.8921 45.0971C77.0117 44.6828 78.4199 42.6896 78.1358 40.5758L74.1714 41.1087C74.1726 41.1171 74.1719 41.1226 74.1707 41.1276C74.1691 41.1337 74.1659 41.1411 74.1606 41.1485C74.1554 41.1559 74.1497 41.1608 74.1451 41.1639C74.1415 41.1662 74.136 41.1692 74.1248 41.1714L74.8921 45.0971ZM74.4809 45.1775L74.8921 45.0971L74.1248 41.1714L73.7137 41.2518L74.4809 45.1775ZM77.8285 50.9396L76.0514 42.7886L72.1432 43.6407L73.9204 51.7917L77.8285 50.9396ZM80.5444 48.415L75.4908 49.4028L76.2581 53.3285L81.3117 52.3408L80.5444 48.415ZM84.9449 50.568C84.1256 48.946 82.3278 48.0665 80.5444 48.415L81.3117 52.3408C81.3372 52.3358 81.3629 52.3483 81.3746 52.3715L84.9449 50.568ZM87.416 55.4599L84.9449 50.568L81.3746 52.3715L83.8456 57.2634L87.416 55.4599ZM110.48 55.9202C106.418 53.5551 101.68 52.8018 97.2382 52.8099C92.7824 52.8181 88.4751 53.5926 85.1477 54.4209L86.1139 58.3024C89.2501 57.5217 93.2186 56.8173 97.2455 56.8099C101.286 56.8026 105.239 57.4973 108.468 59.3772L110.48 55.9202ZM119.726 71.5879C119.53 66.6666 117.469 59.9888 110.48 55.9202L108.468 59.3772C113.919 62.5505 115.569 67.7218 115.729 71.747L119.726 71.5879ZM104.681 96.2089C108.757 95.1058 113.072 92.7968 116.1 88.7254C119.158 84.6152 120.744 78.9235 119.709 71.3949L115.746 71.94C116.663 78.6038 115.226 83.1997 112.891 86.3379C110.528 89.5149 107.082 91.4153 103.636 92.3479L104.681 96.2089ZM106.154 94.0399C106.137 93.956 106.119 93.873 106.098 93.7911L102.219 94.7657C102.222 94.7793 102.225 94.793 102.228 94.8069L106.154 94.0399ZM107.691 101.905L106.154 94.0398L102.228 94.8071L103.765 102.672L107.691 101.905ZM112.724 98.8834L105.345 100.326L106.112 104.251L113.491 102.809L112.724 98.8834ZM114.77 97.6836C114.244 98.3042 113.522 98.7273 112.724 98.8834L113.491 102.809C115.181 102.479 116.708 101.583 117.821 100.27L114.77 97.6836ZM119.081 92.5964L114.77 97.6836L117.821 100.27L122.133 95.1826L119.081 92.5964ZM125.272 92.0853C123.422 90.5169 120.65 90.7457 119.081 92.5964L122.133 95.1825C122.273 95.0171 122.521 94.9967 122.686 95.1369L125.272 92.0853ZM125.783 98.2763C127.352 96.4256 127.123 93.6538 125.272 92.0853L122.686 95.1369C122.852 95.2771 122.872 95.5248 122.732 95.6902L125.783 98.2763ZM121.472 103.364L125.783 98.2763L122.732 95.6902L118.42 100.777L121.472 103.364ZM114.409 107.505C117.165 106.967 119.656 105.506 121.472 103.364L118.42 100.777C117.192 102.227 115.507 103.215 113.642 103.58L114.409 107.505ZM68.6954 116.44L114.409 107.505L113.642 103.58L67.9281 112.515L68.6954 116.44ZM63.5418 112.972C64.0071 115.353 66.3145 116.906 68.6954 116.44L67.9281 112.515C67.7153 112.556 67.5091 112.417 67.4675 112.205L63.5418 112.972ZM67.0102 107.818C64.6293 108.284 63.0764 110.591 63.5418 112.972L67.4675 112.205C67.4259 111.992 67.5647 111.786 67.7775 111.744L67.0102 107.818ZM84.0744 104.483L67.0102 107.818L67.7775 111.744L84.8417 108.409L84.0744 104.483ZM80.958 98.9648L82.4952 106.83L86.4209 106.062L84.8837 98.1975L80.958 98.9648ZM80.9523 98.9354L80.9565 98.9572L84.8851 98.2051L84.881 98.1832L80.9523 98.9354ZM80.9432 98.8855L80.9487 98.9163L84.8845 98.2023L84.8789 98.1715L80.9432 98.8855ZM80.9325 98.8233L80.9389 98.8611L84.8832 98.1959L84.8768 98.1581L80.9325 98.8233ZM83.1386 100.483L83.2883 100.454L82.5211 96.5278L82.3714 96.5571L83.1386 100.483ZM56.3434 78.592C57.604 86.6426 61.925 92.5735 67.0877 96.2564C72.1936 99.8988 78.2661 101.435 83.1386 100.483L82.3713 96.5571C78.801 97.2549 73.8265 96.1502 69.4107 93.0001C65.0518 89.8906 61.3764 84.8776 60.2953 77.9732L56.3434 78.592ZM56.1999 78.405C56.2067 78.4048 56.2252 78.4037 56.2591 78.4332C56.2977 78.4667 56.3326 78.5226 56.3434 78.592L60.2953 77.9732C59.9834 75.9814 58.2535 74.3286 56.0562 74.4076L56.1999 78.405ZM32.093 79.2714L56.1999 78.405L56.0562 74.4076L31.9493 75.274L32.093 79.2714ZM32.0671 79.2786C32.0751 79.2742 32.0839 79.2717 32.093 79.2714L31.9493 75.274C31.3153 75.2968 30.6954 75.4679 30.1395 75.7736L32.0671 79.2786ZM29.658 80.6035L32.0671 79.2786L30.1395 75.7736L27.7304 77.0986L29.658 80.6035ZM24.0057 75.374C22.3966 78.9279 26.2396 82.4834 29.658 80.6035L27.7304 77.0986C27.7017 77.1144 27.6893 77.1157 27.6921 77.1152C27.6942 77.1148 27.6985 77.1147 27.7019 77.1152C27.7058 77.1158 27.6878 77.1132 27.6631 77.0903C27.6383 77.0675 27.6344 77.0497 27.6353 77.0536C27.636 77.0569 27.6362 77.0612 27.636 77.0633C27.6357 77.0661 27.6361 77.0537 27.6496 77.0239L24.0057 75.374ZM25.1742 72.7933L24.0057 75.374L27.6496 77.0239L28.8181 74.4432L25.1742 72.7933ZM25.166 72.7324C25.1801 72.7495 25.1833 72.7731 25.1742 72.7933L28.8181 74.4431C29.4575 73.0308 29.2364 71.3774 28.2481 70.1828L25.166 72.7324ZM18.6331 64.8353L25.166 72.7324L28.2481 70.1828L21.7152 62.2856L18.6331 64.8353ZM19.9174 56.0772C16.978 58.0388 16.3806 62.1123 18.6331 64.8353L21.7152 62.2856C20.9742 61.3898 21.1707 60.0497 22.1377 59.4044L19.9174 56.0772ZM27.7718 57.1792C25.8133 54.8708 22.4356 54.3969 19.9174 56.0772L22.1377 59.4044C22.9661 58.8516 24.0773 59.0075 24.7216 59.767L27.7718 57.1792ZM34.0196 64.5435L27.7718 57.1792L24.7216 59.767L30.9694 67.1312L34.0196 64.5435ZM34.0749 64.5629C34.0543 64.5669 34.0331 64.5595 34.0196 64.5435L30.9694 67.1312C31.9196 68.2512 33.4007 68.7703 34.8422 68.4886L34.0749 64.5629ZM63.9329 58.727L34.0749 64.5629L34.8422 68.4886L64.7002 62.6527L63.9329 58.727ZM62.784 54.8995L62.3232 60.5267L66.3099 60.8531L66.7707 55.2259L62.784 54.8995ZM66.05 51.248C64.2666 51.5966 62.9323 53.0883 62.784 54.8995L66.7707 55.2259C66.7728 55.2 66.7918 55.1787 66.8173 55.1737L66.05 51.248ZM71.5642 50.1703L66.05 51.248L66.8173 55.1737L72.3315 54.096L71.5642 50.1703ZM99.0948 93.2884L87.2144 95.6105L87.9817 99.5362L99.8621 97.2141L99.0948 93.2884ZM101.457 94.9575C101.456 94.9491 101.454 94.9405 101.453 94.9318L97.5042 95.5708C97.5125 95.622 97.5216 95.6735 97.5317 95.7251L101.457 94.9575ZM102.995 102.823L101.457 94.9577L97.5317 95.725L99.069 103.59L102.995 102.823ZM89.538 107.491L101.415 105.169L100.648 101.244L88.7707 103.565L89.538 107.491ZM85.6543 98.0469L87.1915 105.912L91.1172 105.144L89.58 97.2796L85.6543 98.0469ZM85.6488 98.0209C85.6508 98.0298 85.6526 98.0384 85.6543 98.0468L89.58 97.2797C89.5699 97.2277 89.5589 97.1764 89.5473 97.1258L85.6488 98.0209Z" fill="black" mask="url(#path-3-outside-1_3614_4600)"/>
<circle cx="42.5237" cy="22.1704" r="11.1704" fill="#FFEC99" stroke="black" stroke-width="2"/>
<path fill-rule="evenodd" clip-rule="evenodd" d="M20.9271 45.2927C20.9353 47.1637 21.0391 48.6433 21.1659 48.6433C21.2927 48.6433 21.3965 47.1637 21.4047 45.2927C23.5403 45.2854 25.234 45.1812 25.234 45.0538C25.234 44.9263 23.5403 44.8221 21.4047 44.8149C21.3965 42.9438 21.2927 41.4642 21.1659 41.4642C21.0391 41.4642 20.9353 42.9438 20.9271 44.8149C18.7914 44.8221 17.0977 44.9263 17.0977 45.0538C17.0977 45.1812 18.7914 45.2854 20.9271 45.2927Z" fill="#FFFCB4"/>
<path fill-rule="evenodd" clip-rule="evenodd" d="M73.6157 23.7671C73.6278 26.5357 73.7814 28.7251 73.969 28.7251C74.1566 28.7251 74.3102 26.5357 74.3223 23.7671C77.4824 23.7564 79.9887 23.6022 79.9887 23.4136C79.9887 23.2251 77.4824 23.0709 74.3223 23.0602C74.3102 20.2915 74.1566 18.1022 73.969 18.1022C73.7814 18.1022 73.6278 20.2915 73.6157 23.0602C70.4556 23.0709 67.9495 23.2251 67.9495 23.4136C67.9495 23.6022 70.4556 23.7564 73.6157 23.7671Z" fill="#FFFCB4"/>
<path fill-rule="evenodd" clip-rule="evenodd" d="M127.653 73.2083C127.659 74.6652 127.74 75.8172 127.839 75.8172C127.937 75.8172 128.018 74.6652 128.024 73.2083C129.687 73.2026 131.006 73.1215 131.006 73.0223C131.006 72.9231 129.687 72.8419 128.024 72.8363C128.018 71.3794 127.937 70.2274 127.839 70.2274C127.74 70.2274 127.659 71.3794 127.653 72.8363C125.99 72.8419 124.671 72.9231 124.671 73.0223C124.671 73.1215 125.99 73.2026 127.653 73.2083Z" fill="#FFFCB4"/>
<path d="M71.6045 41.1695L74.3078 53.5683" stroke="#FFF6D9" stroke-width="4" stroke-linecap="round" stroke-linejoin="round"/>
<path fill-rule="evenodd" clip-rule="evenodd" d="M84.7766 95.6029C86.0735 95.3495 87.3452 96.2718 87.6172 97.6631L89.572 107.665C89.844 109.056 89.0131 110.39 87.7163 110.643C86.4194 110.896 85.1477 109.974 84.8757 108.583L82.9208 98.5811C82.6489 97.1898 83.4798 95.8564 84.7766 95.6029Z" fill="#FCC419"/>
<path fill-rule="evenodd" clip-rule="evenodd" d="M101.35 92.3631C102.647 92.1096 103.919 93.032 104.191 94.4233L106.146 104.425C106.418 105.816 105.587 107.15 104.29 107.403C102.993 107.657 101.721 106.734 101.449 105.343L99.4946 95.3412C99.2226 93.9499 100.054 92.6165 101.35 92.3631Z" fill="#FCC419"/>
<path fill-rule="evenodd" clip-rule="evenodd" d="M123.979 93.611C124.988 94.4653 125.112 95.9751 124.258 96.9832L119.947 102.07C118.424 103.866 116.336 105.091 114.026 105.542L68.312 114.477C67.0152 114.731 65.7584 113.885 65.5049 112.588C65.2514 111.291 66.0973 110.035 67.3941 109.781L113.108 100.846C114.352 100.603 115.476 99.9436 116.296 98.9765L120.607 93.8894C121.462 92.8813 122.971 92.7567 123.979 93.611Z" fill="#FCC419"/>
<path fill-rule="evenodd" clip-rule="evenodd" d="M124.723 94.7445C124.631 94.9602 124.506 95.1659 124.346 95.3541L120.035 100.441C118.513 102.237 116.425 103.462 114.114 103.913L68.4005 112.848C67.1831 113.086 66.0011 112.356 65.6511 111.192C65.4696 111.618 65.4093 112.1 65.5047 112.588C65.7582 113.885 67.015 114.731 68.3118 114.477L114.026 105.542C116.336 105.091 118.424 103.866 119.946 102.07L124.258 96.9832C124.802 96.3408 124.949 95.4948 124.723 94.7445Z" fill="#FAB005"/>
<path d="M64.7774 55.0626C64.8526 54.1441 65.5293 53.3876 66.4337 53.2108L80.9281 50.3778C81.8326 50.201 82.7443 50.6471 83.1598 51.4697L85.7711 56.6392L64.3047 60.8348L64.7774 55.0626Z" fill="#D0EBFF"/>
<path fill-rule="evenodd" clip-rule="evenodd" d="M64.4451 59.1212L64.3048 60.8348L85.7711 56.6392L84.9959 55.1044L64.4451 59.1212Z" fill="#A5D8FF"/>
<path d="M32.4946 65.8373L26.2469 58.473C24.9455 56.9391 22.701 56.6242 21.0277 57.7407C19.0745 59.0442 18.6775 61.751 20.1743 63.5604L26.7072 71.4575C27.2084 72.0634 27.3206 72.9019 26.9962 73.6181L25.8278 76.1988C25.0118 78.0012 26.9607 79.8044 28.6943 78.851L31.1035 77.526C31.3854 77.371 31.6997 77.2842 32.0213 77.2726L56.1282 76.4062C57.2238 76.3668 58.1499 77.1994 58.3195 78.2825C60.6612 93.2376 74.3122 100.17 82.7551 98.5199L102.598 94.6414C110.87 93.0247 120.643 86.2843 117.381 69.5939C114.267 53.6616 97.7534 54.2778 91.1974 55.4358L34.4587 66.5257C33.7277 66.6685 32.9765 66.4053 32.4946 65.8373Z" fill="#FCC419"/>
<path fill-rule="evenodd" clip-rule="evenodd" d="M19.619 59.3975C19.7632 59.9156 20.0165 60.4135 20.3837 60.8575L26.9166 68.7547C27.4178 69.3605 27.53 70.199 27.2056 70.9153L26.8629 71.6723C26.8161 71.598 26.7643 71.5263 26.7074 71.4575L20.1745 63.5603C19.1693 62.3452 19.0182 60.7253 19.619 59.3975ZM26.1694 75.4448L25.828 76.1988C25.0119 78.0011 26.9609 79.8043 28.6945 78.8509L31.1036 77.526C31.3855 77.3709 31.6999 77.2841 32.0214 77.2726L56.1284 76.4062C57.224 76.3668 58.1501 77.1994 58.3197 78.2825C60.6613 93.2376 74.3124 100.17 82.7553 98.5198L102.598 94.6414C109.636 93.2659 117.761 88.1813 118.019 76.4151C116.674 86.27 109.281 90.6733 102.808 91.9386L82.9645 95.817C74.5216 97.4672 60.8706 90.5347 58.5289 75.5797C58.3593 74.4965 57.4332 73.664 56.3376 73.7034L32.2307 74.5698C31.9091 74.5813 31.5948 74.6681 31.3128 74.8232L28.9037 76.1481C27.8476 76.7289 26.7115 76.2866 26.1694 75.4448Z" fill="#FAB005"/>
<path d="M21.166 58.7839L29.8248 68.7415C30.7605 69.8175 32.1983 70.3141 33.5986 70.0448L84.2224 60.3094" stroke="#FFF6D9" stroke-width="2" stroke-linecap="round" stroke-linejoin="round"/>
<path d="M109.474 57.6486C101.456 52.9806 90.0562 55.077 83.8128 56.8451C82.7705 57.1403 82.1704 58.2172 82.4346 59.2678C83.9418 65.2622 86.5358 73.7911 95.6578 78.2029C102.481 81.5031 112.309 77.3438 116.568 75.3785C117.189 75.0919 117.627 74.5162 117.684 73.8347C118.06 69.308 116.768 61.8946 109.474 57.6486Z" fill="#D0EBFF"/>
<rect x="69.9839" y="70.515" width="8.13631" height="8.13631" rx="2.05799" transform="rotate(-11.0593 69.9839 70.515)" fill="#FFF6D9"/>
<path d="M39.1825 41.6915C43.9999 39.0638 63.452 39.8667 72.5759 40.5966C63.8169 43.3337 45.5327 48.9175 42.4671 49.3554C36.4453 50.2156 33.1607 44.9761 39.1825 41.6915Z" fill="#D0EBFF"/>
<path d="M102.013 33.896C97.8331 37.4518 78.6267 40.6368 69.5459 41.7849C77.5616 37.3173 94.321 28.1185 97.2326 27.064C102.952 24.9926 107.237 29.4513 102.013 33.896Z" fill="#D0EBFF"/>
<path d="M41.0767 49.0887C45.1299 45.3895 64.2136 41.5374 73.2489 40.0737C65.3937 44.8178 48.9649 54.5948 46.0918 55.7501C40.4481 58.0195 36.0103 53.7128 41.0767 49.0887Z" fill="#A5D8FF" fill-opacity="0.02"/>
<path d="M100.243 26.5566C97.0307 31.0053 79.1352 38.6722 70.589 41.9495C77.3103 35.7017 91.3972 22.7768 93.974 21.0593C99.0356 17.6856 104.259 20.9957 100.243 26.5566Z" fill="#A5D8FF" fill-opacity="0.02"/>
<path d="M40.0619 31.5129C45.4681 30.5726 63.6306 37.5837 72.036 41.2067C62.8621 40.9841 43.7533 40.3962 40.7095 39.8258C34.7307 38.7054 33.304 32.6882 40.0619 31.5129Z" fill="#A5D8FF" fill-opacity="0.1"/>
<path d="M102.065 44.3209C96.9641 46.345 77.7529 43.1893 68.7848 41.3585C77.811 39.7036 96.6375 36.3782 99.7336 36.3152C105.815 36.1915 108.44 41.7907 102.065 44.3209Z" fill="#A5D8FF" fill-opacity="0.1"/>
<rect x="66.658" y="38.9077" width="8.95207" height="5.654" rx="2.05799" transform="rotate(-11.0593 66.658 38.9077)" fill="#D0EBFF"/>
<path d="M67.3735 42.569L76.1594 40.8518L76.325 41.6991C76.4373 42.2736 76.0625 42.8304 75.488 42.9427L68.7828 44.2533C68.2082 44.3656 67.6514 43.9909 67.5391 43.4163L67.3735 42.569Z" fill="#A5D8FF"/>
<g style="mix-blend-mode:soft-light" opacity="0.7">
<path d="M112.899 61.7105C108.809 56.7181 104.831 55.663 103.901 56.5886C102.971 57.5142 107.349 60.1375 109.891 63.4221C112.504 66.7987 113.633 68.2473 114.818 67.8015C116.002 67.3558 116.078 65.1617 112.899 61.7105Z" fill="#F8F9FA"/>
</g>
<path fill-rule="evenodd" clip-rule="evenodd" d="M30.3388 81.3143C28.5663 81.4523 27.041 82.7687 26.7141 84.6003L20.5652 119.056C20.1771 121.231 21.6255 123.309 23.8003 123.697L48.8711 128.171C51.0459 128.559 53.1235 127.11 53.5116 124.936L59.6605 90.4798C60.0486 88.305 58.6002 86.2274 56.4254 85.8393L55.2805 85.635L55.5809 83.952C55.9174 82.0663 54.4245 80.3525 52.5104 80.4273L30.6264 81.2823C30.5285 81.2862 30.4325 81.297 30.3388 81.3143Z" fill="black"/>
<path opacity="0.5" fill-rule="evenodd" clip-rule="evenodd" d="M115.634 111.57C115.734 112.123 115.367 112.652 114.814 112.751L62.5289 122.189C61.9761 122.289 61.4471 121.922 61.3473 121.369C61.2476 120.816 61.6148 120.287 62.1675 120.187L114.452 110.75C115.005 110.65 115.534 111.017 115.634 111.57Z" fill="#D8FAFF"/>
<path opacity="0.5" fill-rule="evenodd" clip-rule="evenodd" d="M121.725 115.614C121.838 116.164 121.484 116.702 120.934 116.815L90.9129 122.985C90.3627 123.098 89.8251 122.744 89.712 122.193C89.5989 121.643 89.9533 121.105 90.5034 120.992L120.524 114.822C121.075 114.709 121.612 115.064 121.725 115.614Z" fill="#D8FAFF"/>
<path d="M53.6122 83.6007L52.9605 87.2525L30.7047 83.2808L52.5887 82.4258C53.2268 82.4008 53.7244 82.9721 53.6122 83.6007Z" fill="#1A8064"/>
<rect x="29.0344" y="82.9828" width="29.4669" height="39.0003" rx="2" transform="rotate(10.1182 29.0344 82.9828)" fill="#21C190"/>
<path d="M47.6279 125.917L49.2226 126.202C50.31 126.396 51.3488 125.672 51.5429 124.584L57.6917 90.1285C57.8858 89.0411 57.1616 88.0023 56.0742 87.8082L54.4795 87.5236C55.5669 87.7177 56.2911 88.7565 56.097 89.8439L49.9482 124.3C49.7541 125.387 48.7153 126.111 47.6279 125.917Z" fill="#39A084"/>
<path d="M30.6678 111.651L45.7956 114.351M29.9868 115.467L39.6134 117.185" stroke="#1A8064" stroke-width="1.6" stroke-linecap="round" stroke-linejoin="round"/>
<path d="M49.2276 101.114C48.4463 105.492 44.2638 108.408 39.8856 107.626C35.5075 106.845 32.5916 102.662 33.3729 98.2842C34.1542 93.906 38.3368 90.9902 42.715 91.7715C47.0931 92.5528 50.0089 96.7354 49.2276 101.114Z" fill="#C3FAE8"/>
<path d="M39.9282 107.634C43.1751 106.509 44.8624 103.548 45.4182 100.434C46.058 96.8486 44.8383 93.8297 42.7576 91.7791M40.0461 107.655C37.3888 105.476 36.8297 102.115 37.3855 99.0002C38.0252 95.415 40.2139 93.0044 42.8755 91.8001M33.6782 98.4295L49.2119 101.202M42.831 92.0487L40.059 107.582M49.2276 101.114C48.4463 105.492 44.2638 108.408 39.8856 107.626C35.5075 106.845 32.5916 102.662 33.3729 98.2842C34.1542 93.906 38.3368 90.9902 42.715 91.7715C47.0931 92.5528 50.0089 96.7354 49.2276 101.114Z" stroke="#1A8064" stroke-width="1.4" stroke-linecap="round" stroke-linejoin="round"/>
<circle cx="113.716" cy="46.5793" r="1.01704" fill="#FFFCB4"/>
<circle cx="53.7111" cy="57.7667" r="1.01704" fill="#FFFCB4"/>
<circle cx="123.378" cy="58.2752" r="0.508519" fill="#FFFCB4"/>
<circle cx="29.8105" cy="40.9856" r="0.508519" fill="#FFFCB4"/>
<circle cx="60.3218" cy="20.6448" r="0.508519" fill="#FFFCB4"/>
<circle cx="87.7817" cy="16.5767" r="0.508519" fill="#FFFCB4"/>
<path opacity="0.5" d="M15.9385 76.0734C14.3617 79.0567 13.8098 85.4709 24.2168 87.2609" stroke="#D8FAFF" stroke-width="2" stroke-linecap="round" stroke-linejoin="round"/>
<path opacity="0.5" d="M35.4043 53.6503C37.3339 54.7257 41.8292 55.7238 47.1354 53.5894" stroke="#D8FAFF" stroke-width="2" stroke-linecap="round" stroke-linejoin="round"/>
<path opacity="0.5" d="M109.043 29.8845C109.254 31.7422 108.29 35.961 105.716 37.1565" stroke="#D8FAFF" stroke-width="2" stroke-linecap="round" stroke-linejoin="round"/>
</svg>
