<svg width="140" height="140" viewBox="0 0 140 140" fill="none" xmlns="http://www.w3.org/2000/svg">
<path fill-rule="evenodd" clip-rule="evenodd" d="M41.9632 18.8126C40.7068 19.2433 39.4518 19.7065 38.2047 20.2043L38.0799 19.7891L5.3719 29.6194L10.2349 45.8C9.18149 48.6095 8.42924 51.6552 8.0363 54.9559C6.72767 65.9486 10.79 72.9857 16.0894 82.1658C16.6103 83.068 17.143 83.9909 17.6839 84.9403V97.6077C17.6839 100.246 19.8224 102.384 22.4604 102.384H26.0953C26.8546 104.388 27.5882 106.511 28.2838 108.772C33.4284 125.492 63.0639 133.588 91.6567 125.29H130.436C131.403 125.29 132.186 124.335 132.186 123.158C132.186 121.981 131.403 121.027 130.436 121.027H124.726V103.216C137.215 83.4026 135.861 53.4744 127.923 39.5038C127.732 39.1664 127.535 38.8324 127.334 38.5018C128.37 37.6731 129.034 36.3981 129.034 34.9682C129.034 34.8348 129.028 34.7027 129.016 34.5721C130.236 34.1911 131.12 33.053 131.12 31.7082V21.7233C131.12 20.0664 129.777 18.7233 128.12 18.7233H101.565C85.3588 12.7422 65.3089 12.2586 47.4658 17.1248C45.6421 17.6222 43.8011 18.1826 41.9632 18.8126ZM38.4857 15.8087C37.9767 15.7566 37.4492 15.8019 36.9286 15.9584L4.22059 25.7886C2.10494 26.4245 0.905323 28.655 1.54117 30.7707L6.02684 45.6957C5.10109 48.4411 4.43519 51.368 4.06435 54.4831C2.59812 66.7996 7.25225 74.8601 12.4476 83.858L12.6252 84.1656C12.9755 84.7723 13.3282 85.3833 13.6839 86.0032V97.6077C13.6839 102.455 17.6132 106.384 22.4604 106.384H23.2933C23.6924 107.531 24.0823 108.718 24.4607 109.948C27.6292 120.246 37.9671 127.054 50.1538 130.279C62.3787 133.515 77.4521 133.47 92.2185 129.29H130.436C134.314 129.29 136.186 125.769 136.186 123.158C136.186 120.547 134.314 117.027 130.436 117.027H128.726V104.347C135.023 93.8436 137.751 81.0798 137.984 69.2476C138.21 57.7534 136.09 46.6166 132.107 38.8357C132.416 38.2296 132.655 37.5813 132.813 36.9018C134.229 35.6224 135.12 33.7717 135.12 31.7082V21.7233C135.12 17.8573 131.986 14.7233 128.12 14.7233H102.269C85.3285 8.66029 64.7279 8.27096 46.4134 13.2657C43.7969 13.9793 41.1356 14.8204 38.4857 15.8087ZM113.004 121.027V115.536C112.654 115.773 112.299 116.005 111.938 116.231C111.509 116.501 111.078 116.767 110.645 117.027C110.101 117.355 109.554 117.675 109.004 117.988C108.563 118.238 108.12 118.484 107.676 118.726V121.027H113.004Z" fill="white"/>
<path d="M127.923 39.5038C114.602 16.0588 77.8372 8.84186 47.4658 17.1248C29.8823 21.9202 10.7004 32.577 8.03626 54.9559C5.75272 74.1379 19.8233 81.2751 28.2838 108.772C34.6777 129.552 78.9028 137.012 111.938 116.231C137.472 100.17 137.94 57.1326 127.923 39.5038Z" fill="#A9D6FF"/>
<path fill-rule="evenodd" clip-rule="evenodd" d="M94.5779 14.4772C109.563 18.2606 122.646 26.168 129.662 38.5158C134.95 47.8219 137.34 63.4659 135.243 78.7276C133.144 94.0107 126.464 109.457 113.003 117.924C96.0702 128.576 76.2912 131.987 59.8885 130.074C51.6843 129.116 44.2409 126.817 38.3866 123.347C32.5351 119.878 28.1578 115.164 26.372 109.36C22.8309 97.8512 18.3113 90.0191 14.3684 83.1864C13.6885 82.0081 13.0257 80.8596 12.3881 79.7271C8.03472 71.995 4.83193 64.9521 6.05008 54.7195C8.86617 31.064 29.1539 20.0458 46.9394 15.1953C62.4413 10.9676 79.5756 10.6895 94.5779 14.4772ZM47.4656 17.1248C77.837 8.84187 114.602 16.0588 127.923 39.5038C137.939 57.1326 137.472 100.17 111.938 116.231C78.9026 137.012 34.6775 129.552 28.2836 108.772C24.6716 97.0329 20.0371 89.0046 16.0892 82.1658C10.7897 72.9857 6.72742 65.9486 8.03606 54.9559C10.7002 32.577 29.8821 21.9202 47.4656 17.1248Z" fill="black"/>
<path fill-rule="evenodd" clip-rule="evenodd" d="M68.4338 113.31V102.385H71.2997V113.31H68.4338Z" fill="black"/>
<path d="M73.8428 114.92C73.8428 117.116 72.0627 118.896 69.8669 118.896C67.6711 118.896 65.8911 117.116 65.8911 114.92C65.8911 112.724 67.6711 110.944 69.8669 110.944C72.0627 110.944 73.8428 112.724 73.8428 114.92Z" fill="black"/>
<path d="M17.6836 36.9128H122.05V97.6077C122.05 100.246 119.912 102.384 117.274 102.384H22.4601C19.8221 102.384 17.6836 100.246 17.6836 97.6077V36.9128Z" fill="white"/>
<path fill-rule="evenodd" clip-rule="evenodd" d="M15.6836 36.9128C15.6836 35.8083 16.579 34.9128 17.6836 34.9128H122.05C123.155 34.9128 124.05 35.8083 124.05 36.9128V97.6077C124.05 101.35 121.016 104.384 117.274 104.384H22.4601C18.7175 104.384 15.6836 101.35 15.6836 97.6077V36.9128ZM17.6836 36.9128V97.6077C17.6836 100.246 19.8221 102.384 22.4601 102.384H117.274C119.912 102.384 122.05 100.246 122.05 97.6077V36.9128H17.6836Z" fill="black"/>
<path d="M17.6836 36.9128H122.05V97.6077C122.05 100.246 119.912 102.384 117.274 102.384H22.4601C19.8221 102.384 17.6836 100.246 17.6836 97.6077V36.9128Z" fill="white"/>
<path fill-rule="evenodd" clip-rule="evenodd" d="M120.05 38.9128H19.6836V97.6077C19.6836 99.1412 20.9267 100.384 22.4601 100.384H117.274C118.807 100.384 120.05 99.1412 120.05 97.6077V38.9128ZM17.6836 36.9128V97.6077C17.6836 100.246 19.8221 102.384 22.4601 102.384H117.274C119.912 102.384 122.05 100.246 122.05 97.6077V36.9128H17.6836Z" fill="#216CF6"/>
<path d="M10.7 34.9682C10.7 32.4705 12.7248 30.4457 15.2225 30.4457H124.511C127.009 30.4457 129.033 32.4705 129.033 34.9682C129.033 37.4659 127.009 39.4907 124.511 39.4907H15.2225C12.7248 39.4907 10.7 37.4659 10.7 34.9682Z" fill="#216CF6"/>
<path fill-rule="evenodd" clip-rule="evenodd" d="M15.2225 28.4457H124.511C128.113 28.4457 131.033 31.3659 131.033 34.9682C131.033 38.5705 128.113 41.4907 124.511 41.4907H15.2225C11.6202 41.4907 8.69995 38.5705 8.69995 34.9682C8.69995 31.3659 11.6202 28.4457 15.2225 28.4457ZM15.2225 30.4457C12.7248 30.4457 10.7 32.4705 10.7 34.9682C10.7 37.4659 12.7248 39.4907 15.2225 39.4907H124.511C127.009 39.4907 129.033 37.4659 129.033 34.9682C129.033 32.4705 127.009 30.4457 124.511 30.4457H15.2225Z" fill="black"/>
<path d="M69.8672 69.3391C69.8672 79.7457 61.431 88.1819 51.0244 88.1819C40.6178 88.1819 32.1816 79.7457 32.1816 69.3391C32.1816 58.9325 40.6178 50.4963 51.0244 50.4963C61.431 50.4963 69.8672 58.9325 69.8672 69.3391Z" fill="#FA5252"/>
<path fill-rule="evenodd" clip-rule="evenodd" d="M69.867 69.3391C69.867 58.9325 61.4308 50.4963 51.0242 50.4963V69.3391H69.867Z" fill="#FFE066"/>
<path fill-rule="evenodd" clip-rule="evenodd" d="M78.2966 53.2081C78.2966 52.2849 79.0451 51.5364 79.9684 51.5364H102.839C103.763 51.5364 104.511 52.2849 104.511 53.2081C104.511 54.1314 103.763 54.8799 102.839 54.8799H79.9684C79.0451 54.8799 78.2966 54.1314 78.2966 53.2081Z" fill="#FF9191"/>
<path fill-rule="evenodd" clip-rule="evenodd" d="M78.2966 58.5366C78.2966 57.6133 79.0451 56.8648 79.9684 56.8648H97.7356C98.6589 56.8648 99.4074 57.6133 99.4074 58.5366C99.4074 59.4599 98.6589 60.2084 97.7356 60.2084H79.9684C79.0451 60.2084 78.2966 59.4599 78.2966 58.5366Z" fill="#FF9191"/>
<path fill-rule="evenodd" clip-rule="evenodd" d="M78.2966 64.5895C78.2966 63.6662 79.0451 62.9177 79.9684 62.9177H93.8898C94.8131 62.9177 95.5616 63.6662 95.5616 64.5895C95.5616 65.5128 94.8131 66.2613 93.8898 66.2613H79.9684C79.0451 66.2613 78.2966 65.5128 78.2966 64.5895Z" fill="#FF9191"/>
<path fill-rule="evenodd" clip-rule="evenodd" d="M78.2966 69.9177C78.2966 68.9944 79.0451 68.246 79.9684 68.246H95.6453C96.5686 68.246 97.3171 68.9944 97.3171 69.9177C97.3171 70.841 96.5686 71.5895 95.6453 71.5895H79.9684C79.0451 71.5895 78.2966 70.841 78.2966 69.9177Z" fill="#FF9191"/>
<path d="M5.37183 29.6193L38.0798 19.7891L44.2772 40.4093L11.5692 50.2396L5.37183 29.6193Z" fill="#FFAF66"/>
<path fill-rule="evenodd" clip-rule="evenodd" d="M3.45651 30.195C3.13859 29.1371 3.7384 28.0219 4.79622 27.7039L37.5042 17.8737C38.5621 17.5558 39.6773 18.1556 39.9953 19.2134L46.1926 39.8337C46.5105 40.8915 45.9107 42.0068 44.8529 42.3247L12.1449 52.1549C11.0871 52.4729 9.97178 51.8731 9.65386 50.8152L3.45651 30.195ZM5.37188 29.6193L11.5692 50.2396L44.2772 40.4093L38.0799 19.789L5.37188 29.6193Z" fill="black"/>
<path d="M5.37183 29.6193L38.0798 19.7891L25.2757 36.5154L5.37183 29.6193Z" fill="#F78A25"/>
<path fill-rule="evenodd" clip-rule="evenodd" d="M3.3722 29.5778C3.39023 28.7105 3.96533 27.9537 4.79611 27.704L37.5041 17.8737C38.3349 17.624 39.2319 17.9384 39.7251 18.652C40.2183 19.3657 40.1952 20.3159 39.6679 21.0048L26.8637 37.7311C26.3396 38.4158 25.4356 38.6875 24.6208 38.4052L4.71701 31.5091C3.89732 31.2251 3.35417 30.4451 3.3722 29.5778ZM5.37177 29.6193L25.2756 36.5154L38.0798 19.7891L5.37177 29.6193Z" fill="black"/>
<path d="M29.5622 35.8804C29.5622 38.5289 27.4151 40.6759 24.7667 40.6759C22.1182 40.6759 19.9712 38.5289 19.9712 35.8804C19.9712 33.232 22.1182 31.085 24.7667 31.085C27.4151 31.085 29.5622 33.232 29.5622 35.8804Z" fill="black"/>
<path d="M23.5675 32.8404C24.1381 32.6689 24.6778 32.6377 25.1866 32.7467C25.6948 32.8534 26.1317 33.0836 26.4974 33.4371C26.8624 33.7883 27.1254 34.2319 27.2865 34.7679C27.4996 35.4771 27.565 36.0381 27.4825 36.4507C27.3999 36.8634 27.1589 37.1298 26.7592 37.25C26.5813 37.3034 26.4104 37.317 26.2463 37.2908C26.0823 37.2645 25.9353 37.2029 25.8054 37.1059C25.6755 37.0089 25.5732 36.8823 25.4985 36.7259C25.4528 36.9008 25.3662 37.0528 25.2388 37.1817C25.1136 37.31 24.9575 37.4023 24.7703 37.4585C24.5463 37.5259 24.326 37.5304 24.1094 37.472C23.8929 37.4137 23.6985 37.2908 23.5263 37.1032C23.3534 36.9134 23.2208 36.6649 23.1284 36.3576C23.0368 36.0527 23.0095 35.7649 23.0465 35.4943C23.0836 35.2238 23.1751 34.996 23.321 34.8111C23.4686 34.6232 23.6544 34.4956 23.8785 34.4282C24.0448 34.3782 24.2076 34.3709 24.3668 34.4061C24.5283 34.4407 24.6761 34.5134 24.8102 34.6243L24.7966 34.5792C24.7564 34.4452 24.7563 34.3319 24.7965 34.2392C24.8366 34.1466 24.911 34.0839 25.0196 34.0513C25.1258 34.0193 25.2155 34.0327 25.2885 34.0913C25.3632 34.147 25.4198 34.2433 25.4585 34.3803L25.981 36.169C26.0319 36.3049 26.1057 36.4124 26.2026 36.4916C26.2994 36.5708 26.4149 36.5903 26.5488 36.55C26.7036 36.5035 26.7798 36.342 26.7773 36.0657C26.7742 35.7871 26.7074 35.4306 26.5768 34.9963C26.456 34.5943 26.2593 34.2668 25.9868 34.0137C25.7143 33.7606 25.3863 33.5997 25.003 33.5311C24.6213 33.4594 24.2098 33.4899 23.7686 33.6225C23.3758 33.7405 23.0557 33.9451 22.8082 34.2361C22.5629 34.5264 22.4075 34.8766 22.3419 35.2868C22.2785 35.6962 22.3163 36.1319 22.4552 36.594C22.5753 36.9936 22.7575 37.3192 23.0018 37.5707C23.2485 37.8215 23.5374 37.9865 23.8685 38.0658C24.1997 38.1452 24.5514 38.1339 24.9238 38.032C24.9707 38.0205 25.0334 38.0029 25.112 37.9793C25.1859 37.9571 25.2395 37.9384 25.2728 37.9234C25.2929 37.9148 25.3225 37.9047 25.3618 37.8929C25.475 37.8588 25.5671 37.8551 25.638 37.8816C25.712 37.9098 25.7702 37.9653 25.8128 38.0482C25.8271 38.0792 25.8367 38.1028 25.8416 38.1189C25.8652 38.1975 25.8659 38.2753 25.8438 38.3525C25.8216 38.4297 25.7805 38.4899 25.7205 38.5331C25.6348 38.5916 25.5568 38.634 25.4866 38.6601C25.4194 38.6879 25.3061 38.7257 25.1467 38.7736C24.6338 38.9277 24.144 38.949 23.6773 38.8374C23.2128 38.7251 22.8087 38.4952 22.4649 38.1476C22.1205 37.7978 21.8678 37.3549 21.7067 36.8189C21.5268 36.2206 21.4844 35.6477 21.5793 35.1003C21.6758 34.5499 21.8964 34.0769 22.2409 33.6811C22.5847 33.2831 23.0269 33.0029 23.5675 32.8404ZM24.7294 36.6434C24.8495 36.6073 24.9489 36.5485 25.0277 36.4669C25.1088 36.3846 25.162 36.2892 25.1873 36.1809C25.2143 36.0695 25.2097 35.9537 25.1736 35.8336L25.1132 35.6326C25.0706 35.4993 25.006 35.389 24.9193 35.3018C24.8343 35.2115 24.7368 35.1513 24.6271 35.1213C24.5166 35.089 24.4036 35.0903 24.2881 35.125C24.1726 35.1597 24.0784 35.2233 24.0054 35.3157C23.9348 35.4075 23.8914 35.5188 23.8753 35.6495C23.8592 35.7803 23.873 35.9185 23.9167 36.064C23.9605 36.2096 24.024 36.3328 24.1072 36.4337C24.1927 36.534 24.2891 36.6032 24.3963 36.6415C24.5052 36.6768 24.6162 36.6775 24.7294 36.6434Z" fill="white"/>
<path fill-rule="evenodd" clip-rule="evenodd" d="M78.7058 18.7233C77.049 18.7233 75.7058 20.0665 75.7058 21.7233V31.7083C75.7058 33.3651 77.049 34.7083 78.7058 34.7083H102.757L101.282 41.1023L111.119 34.7083H128.12C129.777 34.7083 131.12 33.3651 131.12 31.7083V21.7233C131.12 20.0665 129.777 18.7233 128.12 18.7233H78.7058Z" fill="#FA5252"/>
<path fill-rule="evenodd" clip-rule="evenodd" d="M102.757 34.7083H78.7058C77.049 34.7083 75.7058 33.3651 75.7058 31.7083V21.7233C75.7058 20.0665 77.049 18.7233 78.7058 18.7233H128.12C129.777 18.7233 131.12 20.0665 131.12 21.7233V31.7083C131.12 33.3651 129.777 34.7083 128.12 34.7083H111.119L101.282 41.1023L102.757 34.7083ZM111.711 36.7083H128.12C130.882 36.7083 133.12 34.4697 133.12 31.7083V21.7233C133.12 18.9619 130.882 16.7233 128.12 16.7233H78.7058C75.9444 16.7233 73.7058 18.9619 73.7058 21.7233V31.7083C73.7058 34.4697 75.9444 36.7083 78.7058 36.7083H100.243L99.3327 40.6526C99.1494 41.4471 99.4667 42.2734 100.135 42.7409C100.803 43.2084 101.688 43.2236 102.371 42.7792L111.711 36.7083Z" fill="black"/>
<path d="M88.4934 26.7158C88.4934 28.1872 87.3006 29.38 85.8292 29.38C84.3578 29.38 83.165 28.1872 83.165 26.7158C83.165 25.2444 84.3578 24.0516 85.8292 24.0516C87.3006 24.0516 88.4934 25.2444 88.4934 26.7158Z" fill="white"/>
<path d="M106.61 26.7158C106.61 28.1872 105.417 29.38 103.946 29.38C102.474 29.38 101.281 28.1872 101.281 26.7158C101.281 25.2444 102.474 24.0516 103.946 24.0516C105.417 24.0516 106.61 25.2444 106.61 26.7158Z" fill="white"/>
<path d="M124.727 26.7158C124.727 28.1872 123.534 29.38 122.062 29.38C120.591 29.38 119.398 28.1872 119.398 26.7158C119.398 25.2444 120.591 24.0516 122.062 24.0516C123.534 24.0516 124.727 25.2444 124.727 26.7158Z" fill="white"/>
<path d="M95.9534 92.1885C95.9534 91.6362 96.4011 91.1885 96.9534 91.1885H106.676C107.228 91.1885 107.676 91.6362 107.676 92.1885V123.158H95.9534V92.1885Z" fill="#FFAF66"/>
<path fill-rule="evenodd" clip-rule="evenodd" d="M109.676 125.158H93.9534V92.1885C93.9534 90.5316 95.2965 89.1885 96.9534 89.1885H106.676C108.333 89.1885 109.676 90.5316 109.676 92.1885V125.158ZM96.9534 91.1885C96.4011 91.1885 95.9534 91.6362 95.9534 92.1885V123.158H107.676V92.1885C107.676 91.6362 107.228 91.1885 106.676 91.1885H96.9534Z" fill="black"/>
<path d="M78.9026 102.845C78.9026 102.293 79.3503 101.845 79.9026 101.845H89.6249C90.1772 101.845 90.6249 102.293 90.6249 102.845V123.158H78.9026V102.845Z" fill="#FA5252"/>
<path fill-rule="evenodd" clip-rule="evenodd" d="M92.6249 125.158H76.9026V102.845C76.9026 101.188 78.2457 99.8451 79.9026 99.8451H89.6249C91.2817 99.8451 92.6249 101.188 92.6249 102.845V125.158ZM79.9026 101.845C79.3503 101.845 78.9026 102.293 78.9026 102.845V123.158H90.6249V102.845C90.6249 102.293 90.1772 101.845 89.6249 101.845H79.9026Z" fill="black"/>
<path d="M113.004 82.5975C113.004 82.0452 113.451 81.5975 114.004 81.5975H123.726C124.278 81.5975 124.726 82.0452 124.726 82.5975V123.158H113.004V82.5975Z" fill="#FFE066"/>
<path fill-rule="evenodd" clip-rule="evenodd" d="M126.726 125.158H111.004V82.5975C111.004 80.9406 112.347 79.5975 114.004 79.5975H123.726C125.383 79.5975 126.726 80.9406 126.726 82.5975V125.158ZM114.004 81.5975C113.451 81.5975 113.004 82.0452 113.004 82.5975V123.158H124.726V82.5975C124.726 82.0452 124.278 81.5975 123.726 81.5975H114.004Z" fill="black"/>
<path fill-rule="evenodd" clip-rule="evenodd" d="M70.3772 123.158C70.3772 121.981 71.1604 121.027 72.1265 121.027H130.436C131.402 121.027 132.186 121.981 132.186 123.158C132.186 124.335 131.402 125.29 130.436 125.29H72.1265C71.1604 125.29 70.3772 124.335 70.3772 123.158Z" fill="#216CF6"/>
<path fill-rule="evenodd" clip-rule="evenodd" d="M68.3772 123.158C68.3772 121.264 69.7045 119.027 72.1265 119.027H130.436C132.858 119.027 134.186 121.264 134.186 123.158C134.186 125.052 132.858 127.29 130.436 127.29H72.1265C69.7045 127.29 68.3772 125.052 68.3772 123.158ZM72.1265 121.027C71.1604 121.027 70.3772 121.981 70.3772 123.158C70.3772 124.335 71.1604 125.29 72.1265 125.29H130.436C131.402 125.29 132.186 124.335 132.186 123.158C132.186 121.981 131.402 121.027 130.436 121.027H72.1265Z" fill="black"/>
<path d="M61.0842 24.5216C65.6524 22.2264 65.8167 17.2177 65.3278 15.0002L61.647 16.9725C62.0882 18.3891 63.2418 22.9521 61.0683 24.0779C59.516 24.8819 56.9276 21.1543 56.4371 19.7642L53.0289 21.5904C53.8106 23.5238 56.516 26.8168 61.0842 24.5216Z" fill="#1883E6"/>
<path d="M60.2989 24.8631C66.5648 23.0312 65.8164 17.2176 65.3276 15.0001L61.0304 17.3027C61.4715 18.7193 63.7971 23.561 60.2989 24.8631Z" fill="#44ABF6"/>
<path d="M125.436 58.5238C127.944 58.9646 129.498 57.0122 129.962 55.981L127.905 55.675C127.66 56.3721 126.765 58.538 125.562 58.3418C124.703 58.2017 124.777 55.943 124.994 55.2418L123.089 54.9585C122.827 55.9633 122.929 58.083 125.436 58.5238Z" fill="#E7A467"/>
<path d="M125.021 58.4266C128.069 59.5571 129.498 57.0119 129.962 55.9807L127.56 55.6234C127.316 56.3205 126.806 58.9461 125.021 58.4266Z" fill="#FFE066"/>
<path fill-rule="evenodd" clip-rule="evenodd" d="M109.531 65.434C110.347 65.5759 110.894 66.3526 110.752 67.1688C109.805 72.6114 105.327 78.1154 100.001 82.5286C94.6244 86.9827 88.0698 90.5866 82.4931 92.103C81.6937 92.3204 80.8694 91.8486 80.6521 91.0492C80.4347 90.2498 80.9065 89.4255 81.7059 89.2081C86.7858 87.8268 92.9659 84.4609 98.0866 80.2185C103.256 75.9353 107.038 71.0163 107.796 66.6548C107.938 65.8386 108.715 65.292 109.531 65.434Z" fill="#216CF6"/>
<path fill-rule="evenodd" clip-rule="evenodd" d="M109.237 64.5622C109.98 64.2431 110.843 64.5711 111.187 65.3035L114.495 72.3546C114.847 73.1046 114.524 73.9978 113.774 74.3497C113.024 74.7016 112.131 74.3788 111.779 73.6288L109.087 67.8912L102.756 70.6084C101.995 70.9351 101.113 70.5828 100.786 69.8216C100.459 69.0603 100.812 68.1783 101.573 67.8516L109.237 64.5622Z" fill="#216CF6"/>
<path d="M45.8575 110.794C43.1141 107.793 39.2454 108.75 37.6539 109.603L39.9585 111.994C40.9473 111.35 44.1902 109.481 45.5213 110.902C46.472 111.916 44.1784 114.702 43.2205 115.378L44.9684 117.191C46.2792 116.175 48.6009 113.794 45.8575 110.794Z" fill="#1883E6"/>
<path d="M46.288 111.321C43.5325 106.921 39.2448 108.75 37.6534 109.603L40.3439 112.394C41.3327 111.75 44.5358 108.925 46.288 111.321Z" fill="#44ABF6"/>
<path d="M48.2449 121.793C50.1667 119.94 51.1126 115.553 48.7682 114.723C50.512 116.132 48.1026 118.84 46.7012 120.191L48.2449 121.793Z" fill="#1883E6"/>
<path d="M44.1924 117.589C44.1924 117.589 41.8624 115.973 43.6499 115.022C43.6499 115.022 42.679 116.221 45.4153 115.251C48.5822 114.13 50.1548 114.159 50.1042 116.911C50.1259 115.731 49.547 115.131 48.3603 115.502C47.1736 115.874 44.9715 117.996 44.1924 117.589Z" fill="#44ABF6"/>
</svg>
