<svg width="140" height="140" viewBox="0 0 140 140" fill="none" xmlns="http://www.w3.org/2000/svg">
<g clip-path="url(#clip0_3614_1104)">
<path d="M96.5782 7.37291L97.9851 8.7798L96.5782 7.37291L91.3019 12.6493C91.2976 12.6479 91.2934 12.6465 91.2891 12.6452C89.4599 12.0722 87.5126 13.0905 86.9396 14.9196C86.7179 15.6274 86.7343 16.3519 86.9434 17.0078L84.5406 19.4106C83.6132 19.5796 82.6759 19.7761 81.7274 19.9984C75.0977 21.5521 69.6601 26.0963 64.5134 30.3973L64.322 30.5573L64.3208 30.5582L64.32 30.5589L64.3188 30.5599C63.9807 30.8424 63.6434 31.1243 63.3057 31.4055L27.0012 39.5046C26.5098 39.6142 26.0779 39.9051 25.7916 40.3192L23.0611 44.2683C15.1629 47.7565 9.62856 54.6347 6.57864 62.6391C3.46015 70.8235 2.87736 80.3228 5.06067 88.9886C8.06142 100.899 15.3685 112.977 27.3052 120.724C39.2876 128.5 55.7285 131.776 76.6972 126.415C83.0422 124.793 88.0737 123.172 92.1626 121.53L109.183 124.766C111.646 125.234 114.022 123.617 114.49 121.155L118.25 101.375C119.24 100.572 120.332 99.7533 121.559 98.9182C129.887 93.2531 134.683 82.4422 135.367 70.8591C136.055 59.2256 132.631 46.4536 124.064 36.5844C118.042 29.6471 112.392 24.8988 106.611 22.0429L108.929 19.7241C109.84 18.8138 110.223 17.5786 110.082 16.3936L111.151 15.3251C112.372 14.1036 112.372 12.1231 111.151 10.9016L105.272 5.02271C104.05 3.80118 102.07 3.80119 100.848 5.02271L99.6717 6.19917C98.5613 6.13262 97.4282 6.52291 96.5782 7.37291Z" stroke="white" stroke-width="4" stroke-linejoin="round"/>
<path d="M38 44C58.2699 45.9481 67.116 25.4769 82.1838 21.9456C97.2516 18.4143 108.577 21.7941 122.554 37.8954C138.913 56.7415 135.746 86.8482 120.434 97.2646C105.123 107.681 109.668 115.922 76.2019 124.478C35.1884 134.963 12.7948 111.5 7.0001 88.5C1.74601 67.6458 13.2961 41.6257 38 44Z" fill="#74C0FC"/>
<path fill-rule="evenodd" clip-rule="evenodd" d="M70.5939 25.5404C73.9577 23.0828 77.5876 20.9686 81.7274 19.9984C89.5218 18.1717 96.5431 18.0918 103.478 20.6849C110.373 23.2629 116.96 28.4005 124.064 36.5844C132.631 46.4536 136.055 59.2256 135.367 70.8591C134.683 82.4422 129.887 93.2531 121.559 98.9182C117.886 101.417 115.407 103.78 113.22 106.085C112.625 106.712 112.036 107.352 111.443 107.998C109.895 109.682 108.31 111.406 106.458 113.06C101.17 117.785 93.6015 122.094 76.6972 126.415C55.7284 131.776 39.2875 128.5 27.3052 120.724C15.3684 112.977 8.06138 100.899 5.06063 88.9886C2.3119 78.0785 3.94122 65.8072 9.55328 56.5061C15.2167 47.1198 24.9765 40.7391 38.1912 42.0092C47.516 42.9054 54.2614 38.7038 60.7914 33.4673C61.9254 32.5579 63.0772 31.596 64.2393 30.6255C66.338 28.8727 68.4705 27.0917 70.5939 25.5404ZM65.6032 32.093C57.9636 38.4763 49.9755 45.151 37.9999 44C13.296 41.6257 1.74593 67.6458 7.00002 88.5C12.7948 111.5 35.1884 134.963 76.2018 124.478C98.9154 118.671 104.12 113.009 109.906 106.713C112.645 103.733 115.515 100.611 120.434 97.2646C135.746 86.8482 138.913 56.7415 122.554 37.8954C108.577 21.794 97.2515 18.4143 82.1837 21.9456C76.0181 23.3906 70.8942 27.6719 65.6032 32.093Z" fill="black"/>
<path d="M58.1057 88.9528L93.3352 53.5721" stroke="black" stroke-width="2" stroke-linecap="round" stroke-linejoin="round"/>
<path fill-rule="evenodd" clip-rule="evenodd" d="M29.1528 113.449C27.9808 113.715 26.8158 112.979 26.5506 111.807L14.7748 59.7693L27.4367 41.4566L98.294 25.6492C99.4643 25.3881 100.625 26.1231 100.89 27.2925L115.462 91.6877C115.727 92.8596 114.992 94.0247 113.82 94.2899L29.1528 113.449Z" fill="#FFEC99"/>
<path fill-rule="evenodd" clip-rule="evenodd" d="M12.8241 60.2107C12.7005 59.6648 12.8114 59.0922 13.1297 58.6318L25.7916 40.3192C26.0779 39.9051 26.5098 39.6142 27.0012 39.5046L97.8585 23.6972C100.105 23.1961 102.333 24.6066 102.84 26.8511L117.413 91.2462C117.922 93.4955 116.511 95.7316 114.261 96.2406L29.5942 115.4C27.3449 115.909 25.1089 114.498 24.5999 112.249L12.8241 60.2107ZM26.5505 111.807C26.8157 112.979 27.9808 113.715 29.1528 113.449L113.82 94.2899C114.992 94.0247 115.727 92.8596 115.462 91.6876L100.89 27.2925C100.625 26.1231 99.4643 25.3881 98.294 25.6492L27.4366 41.4566L14.7747 59.7693L26.5505 111.807Z" fill="black"/>
<mask id="path-7-outside-1_3614_1104" maskUnits="userSpaceOnUse" x="8.86608" y="38.0854" width="24.8963" height="24.1417" fill="black">
<rect fill="white" x="8.86608" y="38.0854" width="24.8963" height="24.1417"/>
<path fill-rule="evenodd" clip-rule="evenodd" d="M27.4366 41.4567L30.1186 54.2359C30.3554 55.3642 29.6431 56.4737 28.5186 56.7282L14.7895 59.8349"/>
</mask>
<path fill-rule="evenodd" clip-rule="evenodd" d="M27.4366 41.4567L30.1186 54.2359C30.3554 55.3642 29.6431 56.4737 28.5186 56.7282L14.7895 59.8349" fill="#FFF3BF"/>
<path d="M28.2604 42.0235C28.5734 41.5686 28.4584 40.9459 28.0035 40.6329C27.5485 40.3198 26.9259 40.4348 26.6128 40.8898L28.2604 42.0235ZM13.9658 59.2681C13.6527 59.723 13.7677 60.3457 14.2227 60.6587C14.6776 60.9718 15.3003 60.8568 15.6133 60.4018L13.9658 59.2681ZM15.6133 60.4018L28.2604 42.0235L26.6128 40.8898L13.9658 59.2681L15.6133 60.4018ZM29.3939 41.0459C29.167 39.9648 28.1068 39.2724 27.0258 39.4993C25.9448 39.7262 25.2523 40.7864 25.4792 41.8674L29.3939 41.0459ZM14.3481 57.8843C13.2708 58.1281 12.5951 59.199 12.8389 60.2764C13.0827 61.3537 14.1536 62.0294 15.231 61.7856L14.3481 57.8843ZM25.4792 41.8674L28.1612 54.6467L32.0759 53.8251L29.3939 41.0459L25.4792 41.8674ZM28.0772 54.7775L14.3481 57.8843L15.231 61.7856L28.9601 58.6789L28.0772 54.7775ZM28.1612 54.6467C28.1736 54.7059 28.1363 54.7641 28.0772 54.7775L28.9601 58.6789C31.1499 58.1833 32.5371 56.0224 32.0759 53.8251L28.1612 54.6467Z" fill="black" mask="url(#path-7-outside-1_3614_1104)"/>
<path fill-rule="evenodd" clip-rule="evenodd" d="M58.9818 55.9517C59.1707 56.752 58.6751 57.5539 57.8748 57.7428L31.8315 63.8894C31.0312 64.0783 30.2293 63.5826 30.0404 62.7823C29.8515 61.9821 30.3472 61.1802 31.1475 60.9913L57.1908 54.8446C57.9911 54.6558 58.7929 55.1514 58.9818 55.9517Z" fill="#0B7285"/>
<path fill-rule="evenodd" clip-rule="evenodd" d="M94.6016 59.6266C94.7858 60.428 94.2855 61.227 93.4842 61.4113L34.8581 74.8909C34.0567 75.0752 33.2577 74.5749 33.0734 73.7736C32.8892 72.9722 33.3895 72.1732 34.1908 71.9889L92.8169 58.5092C93.6183 58.325 94.4173 58.8252 94.6016 59.6266Z" fill="#0B7285"/>
<path fill-rule="evenodd" clip-rule="evenodd" d="M84.6463 74.8048C84.837 75.6047 84.3431 76.4077 83.5432 76.5984L37.9816 87.4591C37.1817 87.6498 36.3787 87.1559 36.1881 86.356C35.9974 85.5562 36.4913 84.7532 37.2911 84.5625L82.8528 73.7018C83.6526 73.5111 84.4556 74.005 84.6463 74.8048Z" fill="#0B7285"/>
<path fill-rule="evenodd" clip-rule="evenodd" d="M51.9785 109.649L121.419 62.3934C121.697 62.204 122.039 62.1329 122.37 62.1958C123.059 62.3267 123.511 62.9913 123.38 63.68L112.525 120.781C112.263 122.159 110.934 123.063 109.557 122.801L52.4557 111.946C52.1249 111.883 51.8327 111.692 51.6432 111.413C51.2488 110.834 51.3989 110.044 51.9785 109.649ZM86.026 102.327L105.221 89.2914C105.36 89.1969 105.531 89.1615 105.696 89.1929C106.04 89.2584 106.267 89.5906 106.201 89.935L103.258 105.414C103.128 106.103 102.463 106.555 101.774 106.424L86.264 103.476C86.0985 103.444 85.9522 103.348 85.8575 103.209C85.6605 102.919 85.736 102.524 86.026 102.327Z" fill="#63E6BE"/>
<path fill-rule="evenodd" clip-rule="evenodd" d="M50.8533 107.996L120.294 60.74C121.011 60.2522 121.892 60.0691 122.744 60.231C124.518 60.5682 125.682 62.2796 125.345 64.0536L114.49 121.155C114.022 123.617 111.646 125.234 109.183 124.766L52.0821 113.911C51.2303 113.749 50.4776 113.255 49.9898 112.538C48.9739 111.046 49.3605 109.012 50.8533 107.996ZM86.264 103.476C86.0984 103.444 85.9522 103.348 85.8575 103.209C85.6605 102.919 85.736 102.524 86.026 102.327L105.221 89.2914C105.36 89.197 105.531 89.1615 105.696 89.1929C106.04 89.2584 106.267 89.5907 106.201 89.935L103.258 105.414C103.128 106.103 102.463 106.555 101.774 106.424L86.264 103.476ZM89.88 102.127L101.43 104.323L103.622 92.7952L89.88 102.127ZM121.419 62.3934L51.9785 109.649C51.3989 110.044 51.2488 110.834 51.6432 111.413C51.8327 111.692 52.1249 111.883 52.4557 111.946L109.557 122.801C110.934 123.063 112.263 122.159 112.525 120.781L123.38 63.68C123.511 62.9913 123.059 62.3268 122.37 62.1958C122.039 62.1329 121.697 62.204 121.419 62.3934Z" fill="black"/>
<path d="M66.2715 110.475L65.7973 112.969" stroke="black" stroke-width="2" stroke-linecap="round"/>
<path d="M72.239 109.671L71.5278 113.413" stroke="black" stroke-width="2" stroke-linecap="round"/>
<path d="M88.7197 114.742L88.2456 117.237" stroke="black" stroke-width="2" stroke-linecap="round"/>
<path d="M94.6873 113.939L93.976 117.68" stroke="black" stroke-width="2" stroke-linecap="round"/>
<path d="M77.4956 112.609L77.0214 115.103" stroke="black" stroke-width="2" stroke-linecap="round"/>
<path d="M83.4626 111.805L82.7514 115.546" stroke="black" stroke-width="2" stroke-linecap="round"/>
<path d="M99.9438 116.876L99.4697 119.37" stroke="black" stroke-width="2" stroke-linecap="round"/>
<path d="M105.911 116.072L105.2 119.814" stroke="black" stroke-width="2" stroke-linecap="round"/>
<path d="M109.979 114.449L111.982 114.83" stroke="black" stroke-width="2" stroke-linecap="round"/>
<path d="M109.546 108.551L112.55 109.123" stroke="black" stroke-width="2" stroke-linecap="round"/>
<path d="M114.254 92.002L116.257 92.3833" stroke="black" stroke-width="2" stroke-linecap="round"/>
<path d="M113.821 86.1041L116.825 86.6762" stroke="black" stroke-width="2" stroke-linecap="round"/>
<path d="M112.116 103.225L114.119 103.607" stroke="black" stroke-width="2" stroke-linecap="round"/>
<path d="M111.683 97.3276L114.687 97.8997" stroke="black" stroke-width="2" stroke-linecap="round"/>
<path d="M116.392 80.7783L118.394 81.1597" stroke="black" stroke-width="2" stroke-linecap="round"/>
<path d="M115.958 74.8805L118.962 75.4526" stroke="black" stroke-width="2" stroke-linecap="round"/>
<rect x="98.4373" y="8.84778" width="6.53734" height="12.5698" rx="2.12792" transform="rotate(-45 98.4373 8.84778)" fill="#63E6BE" stroke="black" stroke-width="2"/>
<path d="M73.1768 51.8579C73.3641 52.044 73.6175 52.1485 73.8816 52.1485L74.5846 52.1484C74.7629 52.1484 74.9379 52.1008 75.0916 52.0104C75.3123 51.8806 75.5164 51.7229 75.6986 51.5407L108.222 19.0171C109.407 17.8325 109.407 15.912 108.222 14.7275L101.575 8.08005C100.39 6.89551 98.4698 6.89551 97.2852 8.08005L64.7616 40.6037C64.3397 41.0256 64.0731 41.6627 64.0731 42.3978C64.0731 42.6641 64.1794 42.9195 64.3683 43.1072L73.1768 51.8579Z" fill="#0B7285" stroke="black" stroke-width="2" stroke-linejoin="round"/>
<path d="M64.1212 49.6312C63.7306 49.2407 63.0975 49.2407 62.707 49.6312L59.8995 52.4387C59.6724 52.6657 59.5682 52.9881 59.6194 53.3051C59.6706 53.6221 59.8709 53.8953 60.1579 54.0394L62.8062 55.3692C63.1537 55.5437 63.5708 55.5009 63.8756 55.2596L66.2735 53.3611C66.4972 53.184 66.6346 52.9197 66.6511 52.6349C66.6676 52.35 66.5617 52.0717 66.3599 51.87L64.1212 49.6312Z" fill="#0B7285" stroke="black" stroke-width="2" stroke-linejoin="round"/>
<path d="M74.6676 52.1386C75.0562 52.1074 75.3913 51.8531 75.5259 51.4872C75.6605 51.1212 75.5702 50.7104 75.2945 50.4347L65.8519 40.9921C65.5901 40.7303 65.2051 40.6346 64.8512 40.7433C64.4972 40.8521 64.2324 41.1474 64.1627 41.5111L62.6024 49.6539C62.5326 50.0182 62.6702 50.3912 62.9598 50.6229L65.4413 52.6081C65.6402 52.7672 65.8923 52.8444 66.1461 52.824L74.6676 52.1386Z" fill="white" stroke="black" stroke-width="2" stroke-linecap="round" stroke-linejoin="round"/>
<circle cx="57.7682" cy="118.768" r="1.28321" transform="rotate(-32.0043 57.7682 118.768)" fill="white"/>
<circle cx="40.7046" cy="118.705" r="1.23703" transform="rotate(-32.0043 40.7046 118.705)" fill="#FFC078"/>
<circle cx="45.8119" cy="115.812" r="2.0406" transform="rotate(-32.0043 45.8119 115.812)" fill="#FFE066"/>
<circle cx="113.102" cy="55.5605" r="0.999022" transform="rotate(17.394 113.102 55.5605)" fill="white"/>
<circle cx="129.469" cy="67.0821" r="1.81552" transform="rotate(17.394 129.469 67.0821)" fill="#FFE066"/>
<circle cx="9.70461" cy="70.7046" r="1.23703" transform="rotate(-32.0043 9.70461 70.7046)" fill="#E7F5FF"/>
<circle cx="90.2519" cy="15.9572" r="2.47066" transform="rotate(17.394 90.2519 15.9572)" fill="#FFE066" stroke="black" stroke-width="2"/>
<circle cx="122.437" cy="43.9381" r="1.27243" transform="rotate(17.394 122.437 43.9381)" fill="#FFC078"/>
<circle cx="112.823" cy="40.8231" r="0.656812" transform="rotate(17.394 112.823 40.8231)" fill="#E7F5FF"/>
<rect x="9.6404" y="81.8798" width="23.1643" height="33.1239" rx="3.50852" transform="rotate(-29.0257 9.6404 81.8798)" fill="#FFFDEC" stroke="black" stroke-width="2"/>
<rect x="13.2649" y="88.4115" width="23.1643" height="21.9193" transform="rotate(-29.0257 13.2649 88.4115)" fill="#3290FF" stroke="black" stroke-width="2"/>
<rect x="18.979" y="86.3844" width="2.48991" height="19.9193" transform="rotate(-29.0257 18.979 86.3844)" fill="white"/>
<rect x="23.3335" y="83.9681" width="1.24496" height="19.9193" transform="rotate(-29.0257 23.3335 83.9681)" fill="white"/>
</g>
<defs>
<clipPath id="clip0_3614_1104">
<rect width="140" height="140" fill="white"/>
</clipPath>
</defs>
</svg>
