<svg xmlns="http://www.w3.org/2000/svg" viewBox="0 0 24 24" width="24" height="24"><g class="uk-icon-alternate-dark" version="1.1"><g fill-rule="nonzero" stroke="none" stroke-width="1" fill="none"><path fill="none" d="M0 0h24v24H0z"/><path d="M19.852 13.212c-.267.159-.46.253-.593.289-.162.043-.443.06-.887.053l-.2-.003a65.64 65.64 0 0 0-.416-.008c-2.15-3.774-5.033-5.605-8.175-5.492-2.881.103-4.878 2.083-5.153 5.399a2.242 2.242 0 0 0-.928-.2c-.391 0-.759.1-1.08.275.284-4.433 3.076-7.329 7.089-7.473 4.121-.148 7.815 2.332 10.343 7.16ZM3.5 17a1.5 1.5 0 1 1 0-3 1.5 1.5 0 0 1 0 3Zm13.327-2.425c-.141-.53 1.797-.121 2.673-.356.877-.235 2.22-1.534 2.363-1.005.094.353-.449 1.684-1.629 3.991-2.176-1.4-3.312-2.277-3.407-2.63Z" fill="#EEE"/></g></g><g class="uk-icon-alternate-default" version="1.1"><g fill-rule="nonzero" stroke="none" stroke-width="1" fill="none"><path fill="none" d="M0 0h24v24H0z"/><path d="M19.852 13.212c-.267.159-.46.253-.593.289-.162.043-.443.06-.887.053l-.2-.003a65.64 65.64 0 0 0-.416-.008c-2.15-3.774-5.033-5.605-8.175-5.492-2.881.103-4.878 2.083-5.153 5.399a2.242 2.242 0 0 0-.928-.2c-.391 0-.759.1-1.08.275.284-4.433 3.076-7.329 7.089-7.473 4.121-.148 7.815 2.332 10.343 7.16ZM3.5 17a1.5 1.5 0 1 1 0-3 1.5 1.5 0 0 1 0 3Zm13.327-2.425c-.141-.53 1.797-.121 2.673-.356.877-.235 2.22-1.534 2.363-1.005.094.353-.449 1.684-1.629 3.991-2.176-1.4-3.312-2.277-3.407-2.63Z" fill="#343638"/></g></g></svg>