<?xml version="1.0" encoding="UTF-8" standalone="no"?>
<svg width="16px" height="16px" viewBox="0 0 16 16" version="1.1" xmlns="http://www.w3.org/2000/svg" xmlns:xlink="http://www.w3.org/1999/xlink">
    <!-- Generator: Sketch 46.2 (44496) - http://www.bohemiancoding.com/sketch -->
    <title>ic_tension</title>
    <desc>Created with Sketch.</desc>
    <defs></defs>
    <g id="icon" stroke="none" stroke-width="1" fill="none" fill-rule="evenodd">
        <g id="图标" transform="translate(-2741.000000, -1219.000000)">
            <g id="ic-straight-copy-33" transform="translate(2741.000000, 1219.000000)">
                <rect id="ic_rectangle" stroke="#DEDEDE" stroke-width="0.81" opacity="0" x="0.405" y="0.405" width="15.19" height="15.19"></rect>
                <path d="M1.67095859,3.67268972 C1.91854101,4.76645693 2.07280072,5.61914262 2.13379966,6.23569826 C2.17991653,6.70183123 1.98767309,7.27974494 1.57513172,8.00775695 C1.98531399,8.77779789 2.17371511,9.38679091 2.12297161,9.87054782 C2.0606411,10.464768 1.90961864,11.2854853 1.66980401,12.3374174 C2.80790476,12.0878001 3.69226077,11.9205547 4.32617141,11.8354309 C5.21536295,11.7160271 6.42881385,12.0542619 8.00322966,12.8294568 C9.61996019,12.0560731 10.859082,11.7209334 11.7578302,11.8442241 C12.3685135,11.927998 13.2155305,12.0897131 14.301984,12.3296135 C14.016715,11.231841 13.8391104,10.3750933 13.7690809,9.75362541 C13.7169157,9.29069177 13.8956371,8.71351832 14.2867929,7.98553307 C13.9011875,7.17345789 13.7313194,6.53409168 13.7943135,6.03517488 C13.8664279,5.4640244 14.0337956,4.68090631 14.2965945,3.68077425 C13.2164324,3.9311129 12.3744594,4.10015507 11.7674594,4.18817492 C10.8522944,4.32088115 9.61548604,3.92699681 8.01466567,3.03204488 C6.42877942,3.92945903 5.20785584,4.32689854 4.30744373,4.19892845 C3.67739281,4.10938316 2.79971347,3.9340634 1.67095859,3.67268972 Z" id="Rectangle-47" stroke="#434B54"></path>
            </g>
        </g>
    </g>
</svg>