<svg width="18" height="18" viewBox="0 0 18 18" fill="none" xmlns="http://www.w3.org/2000/svg">
<path fill-rule="evenodd" clip-rule="evenodd" d="M3.93477 6.49874C2.65614 7.239 2.05518 8.14996 2.05518 8.99983C2.05518 9.8497 2.65614 10.7607 3.93477 11.5009C5.19398 12.2299 6.98323 12.7048 9.00018 12.7048C11.0171 12.7048 12.8064 12.2299 14.0656 11.5009C15.3442 10.7607 15.9452 9.8497 15.9452 8.99983C15.9452 8.14996 15.3442 7.239 14.0656 6.49874C12.8064 5.76972 11.0171 5.29483 9.00018 5.29483C6.98323 5.29483 5.19398 5.76972 3.93477 6.49874ZM3.18321 5.2006C4.70904 4.31722 6.76729 3.79483 9.00018 3.79483C11.2331 3.79483 13.2913 4.31722 14.8171 5.2006C16.3236 6.07274 17.4452 7.38927 17.4452 8.99983C17.4452 10.6104 16.3236 11.9269 14.8171 12.7991C13.2913 13.6824 11.2331 14.2048 9.00018 14.2048C6.76729 14.2048 4.70904 13.6824 3.18321 12.7991C1.6768 11.9269 0.555176 10.6104 0.555176 8.99983C0.555176 7.38927 1.6768 6.07274 3.18321 5.2006Z" fill="#27292A"/>
</svg>
