<?xml version="1.0" encoding="UTF-8"?>
<svg width="40px" height="40px" viewBox="0 0 40 40" version="1.1" xmlns="http://www.w3.org/2000/svg" xmlns:xlink="http://www.w3.org/1999/xlink">
    <title>Icons/Format Panel Icons/Arrow/arrow-begin-doublearrow</title>
    <g id="Icons/Format-Panel-Icons/Arrow/arrow-begin-doublearrow" stroke="none" stroke-width="1" fill="none" fill-rule="evenodd">
        <g id="Group" transform="translate(4.000000, 13.000000)">
            <line x1="2" y1="7" x2="32" y2="7" id="Path-58" stroke="#000000" stroke-width="2" stroke-linecap="round" stroke-linejoin="round"></line>
            <path d="M0.280619733,6.79733019 L8.60362736,0.786269128 C8.71555881,0.705429752 8.87183043,0.730634853 8.95266981,0.842566296 C8.98343897,0.885169754 9,0.936386142 9,0.988938935 L9,13.0110611 C9,13.1491323 8.88807119,13.2610611 8.75,13.2610611 C8.69744721,13.2610611 8.64623082,13.2445 8.60362736,13.2137309 L0.280619733,7.20266981 C0.168688289,7.12183043 0.143483188,6.96555881 0.224322564,6.85362736 C0.239960507,6.83197483 0.258967197,6.81296814 0.280619733,6.79733019 Z" id="Path-59" fill="#000000"></path>
            <path d="M7.16906797,7.069522 L11.765643,3.6731638 C11.8309383,3.62491785 11.9229816,3.63873905 11.9712275,3.70403432 C11.9899154,3.72932616 12,3.75994434 12,3.79139134 L12,10.2265963 C12,10.3077822 11.9341859,10.3735963 11.853,10.3735963 C11.8241716,10.3735963 11.7959795,10.3651198 11.7719313,10.3492213 L7.1753563,7.31037444 C7.10763244,7.26560144 7.08902708,7.17440472 7.13380008,7.10668085 C7.14329042,7.09232572 7.15522763,7.07974848 7.16906797,7.069522 Z" id="Path-59-Copy" fill="#000000"></path>
        </g>
    </g>
</svg>