<svg width="45" height="22" viewBox="0 0 45 22" fill="none" xmlns="http://www.w3.org/2000/svg">
<path fill-rule="evenodd" clip-rule="evenodd" d="M19.8281 11.5C19.2823 11.5 18.7685 11.5093 18.2817 11.5261L17.4253 11.5556L17.3578 10.0568L18.2142 10.0273C18.7236 10.0097 19.2599 10 19.8281 10C20.4159 10 20.9455 10.0052 21.4299 10.0152L22.2868 10.0329L22.2463 11.5325L21.3894 11.5148C20.9203 11.5051 20.4044 11.5 19.8281 11.5ZM23.8009 10.1116L24.6529 10.1939C25.3236 10.2587 25.964 10.3383 26.6625 10.4251C27.0227 10.4698 27.3983 10.5165 27.8015 10.564L28.6509 10.6642L28.4219 12.1508L27.5725 12.0506C27.1397 11.9995 26.7511 11.9512 26.3864 11.9059C25.7069 11.8214 25.1103 11.7472 24.4647 11.6848L23.6127 11.6025L23.8009 10.1116ZM16.0551 11.6551L15.2044 11.7466C14.3921 11.8339 13.6476 11.9343 12.906 12.0342C12.6384 12.0703 12.3712 12.1063 12.1013 12.1417L11.2537 12.2526L11 10.7692L11.8477 10.6582C12.1031 10.6247 12.3615 10.5899 12.624 10.5545C13.3728 10.4536 14.1548 10.3482 14.9952 10.2578L15.8459 10.1663L16.0551 11.6551ZM30.0526 10.806L30.9057 10.879C31.3843 10.92 31.9034 10.9613 32.4701 11.0026C32.9599 11.0383 33.5043 11.0461 34.0944 11.0314L34.9512 11.01L35 12.5094L34.1432 12.5308C33.5091 12.5466 32.8981 12.539 32.3277 12.4974C31.7532 12.4555 31.2259 12.4136 30.7388 12.3719L29.8858 12.2989L30.0526 10.806Z" fill="#27292A"/>
</svg>
