<svg width="24" height="24" viewBox="0 0 24 24" fill="none" xmlns="http://www.w3.org/2000/svg">
<path fill-rule="evenodd" clip-rule="evenodd" d="M12 23.25C5.797 23.25 0.75 18.203 0.75 12C0.75 5.797 5.797 0.75 12 0.75C18.203 0.75 23.25 5.797 23.25 12C23.25 18.203 18.203 23.25 12 23.25" fill="white"/>
<path fill-rule="evenodd" clip-rule="evenodd" d="M12 0C5.373 0 0 5.373 0 12C0 18.627 5.373 24 12 24C18.627 24 24 18.627 24 12C24 5.373 18.627 0 12 0M12 1.5C17.79 1.5 22.5 6.21 22.5 12C22.5 17.79 17.79 22.5 12 22.5C6.21 22.5 1.5 17.79 1.5 12C1.5 6.21 6.21 1.5 12 1.5" fill="#20C07D"/>
<path fill-rule="evenodd" clip-rule="evenodd" d="M12 12L11.596 1.32C11.73 1.315 11.865 1.312 12 1.312C17.863 1.312 22.688 6.137 22.688 12C22.688 17.863 17.863 22.688 12 22.688C9.167 22.688 6.446 21.561 4.442 19.558L12 12Z" fill="#20C07D"/>
</svg>
