<svg width="140" height="140" viewBox="0 0 140 140" fill="none" xmlns="http://www.w3.org/2000/svg">
<path d="M36.2055 23.6644L35.9738 23.7494C35.8572 23.6886 35.7443 23.6139 35.6373 23.5245L35.9271 23.7665L35.0697 24.081L36.2055 23.6644ZM36.2055 23.6644L36.1519 23.5183L36.2055 23.6644ZM36.2055 23.6644C36.2541 23.6466 36.2906 23.6058 36.303 23.5555L36.2055 23.6644ZM35.5152 21.7873L35.5145 21.7875C35.5147 21.7875 35.5149 21.7874 35.5152 21.7873ZM35.5152 21.7873L35.5167 21.7867L35.5168 21.7867C35.5162 21.7869 35.5157 21.7871 35.5152 21.7873ZM16.4338 62.4461C9.82458 65.9442 6.57908 72.0269 6.09267 79.0119C5.63097 85.6419 7.63466 93.0936 11.4678 100.188C9.39713 102.383 8.0995 104.909 8.0995 107.715C8.0995 112.555 11.9046 116.359 17.146 119.204C22.4484 122.083 29.8607 124.355 38.5808 125.949C41.5625 127.37 44.7045 128.549 47.9857 129.43C66.652 134.445 89.6367 135.068 107.147 125.439C115.136 123.8 121.901 121.558 126.737 118.763C131.546 115.984 134.996 112.319 134.996 107.715C134.996 105.924 134.274 104.113 133.16 102.45C132.26 101.107 131.053 99.782 129.592 98.5303C132.008 91.6422 133.375 83.595 133.46 74.2618C133.577 61.3723 130.101 50.3226 124.41 41.131H127.245C127.953 41.131 128.608 40.7571 128.967 40.1479C129.327 39.5386 129.338 38.7846 128.996 38.165C125.189 31.2622 118.408 26.6034 110.741 25.4405C109.246 24.1795 107.707 22.9843 106.133 21.8545L115.979 11.259C116.461 10.7405 116.633 10.0059 116.431 9.32738C116.229 8.6489 115.684 8.12763 114.997 7.95673C106.8 5.91723 98.1681 8.12805 91.9737 13.7585C82.5719 9.56897 72.8322 7.32406 64.2694 7.03261C55.41 6.73107 47.4465 8.51521 42.57 12.8344C40.0113 15.1007 38.0935 17.4901 36.6385 19.9597C35.7682 20.0358 34.9619 20.6358 34.7262 21.5935L34.5954 22.1247L34.0819 22.313C32.5857 22.8618 32.1818 24.7884 33.3315 25.8919L33.7262 26.2707L33.6325 26.8096C33.6325 26.8096 33.6325 26.8096 33.6325 26.8096C33.6131 26.9212 33.6028 27.0317 33.6007 27.1407C32.5754 30.71 32.1154 34.3183 31.6824 37.7152L31.6732 37.7876C31.6527 37.9484 31.6323 38.1087 31.6118 38.2686C31.5645 38.2232 31.5173 38.1765 31.4702 38.1286C31.0324 37.6825 30.4111 37.4667 29.7911 37.5454C29.171 37.6241 28.6233 37.9882 28.3108 38.5295C27.8846 39.2676 26.8673 40.2226 25.5454 40.7559C24.29 41.2624 22.9514 41.3189 21.6997 40.648L21.1873 40.3335C20.457 39.8854 19.5224 39.9522 18.8633 40.4996C18.2042 41.0471 17.9671 41.9535 18.2736 42.7536C18.6597 43.7617 18.5633 45.3979 17.8182 46.8711C16.9692 48.1726 15.7295 49.0523 14.7442 49.2883C14.7132 49.2915 14.6818 49.2942 14.6503 49.2966C13.9722 49.3471 13.381 49.7355 13.0581 50.3058C12.9346 50.5173 12.8487 50.7538 12.8094 51.0065C12.6744 51.8747 13.1219 52.7295 13.9124 53.1131C15.3995 53.8348 16.1369 55.0569 16.3999 56.3946C16.6789 57.8142 16.3825 59.1899 15.9719 59.9012C15.6611 60.4394 15.6182 61.0916 15.8558 61.6658C15.9831 61.9735 16.1832 62.2401 16.4338 62.4461ZM35.9964 23.0944L36.5921 22.3808L35.9964 23.0944ZM33.8941 25.3039L33.8937 25.3062L33.8941 25.3039Z" fill="#FFFDE8" stroke="white" stroke-width="4" stroke-linejoin="round"/>
<path d="M17.7808 64.0022C42.3601 51.7125 25.9739 30.2057 43.8963 14.3316C61.8187 -1.5425 131.972 17.9161 131.46 74.2436C130.948 130.571 82.8135 136.716 48.5049 127.499C14.1963 118.281 -4.6802 75.2328 17.7808 64.0022Z" fill="#66D9E8"/>
<path fill-rule="evenodd" clip-rule="evenodd" d="M31.6734 37.7716C32.6979 29.6602 33.8471 20.5605 42.5701 12.8344C47.6316 8.35141 56.0227 6.59499 65.3148 7.07759C74.6991 7.56498 85.4019 10.3486 95.49 15.4255C115.67 25.581 133.725 45.1213 133.46 74.2618C133.329 88.6294 130.159 99.9472 124.812 108.669C119.46 117.4 111.998 123.413 103.481 127.272C86.5224 134.957 65.3957 134.107 47.9859 129.43C30.194 124.65 16.4599 111.138 10.041 97.3496C6.82981 90.4517 5.37617 83.3281 6.30255 77.0723C7.24062 70.7376 10.6267 65.3432 16.8863 62.2134C22.7162 59.2984 25.9783 55.917 27.9587 52.3234C29.9694 48.675 30.75 44.6535 31.3532 40.2402C31.464 39.4295 31.5681 38.6058 31.6734 37.7716ZM33.6573 38.0405C32.4092 47.8308 31.2033 57.2909 17.7807 64.0022C-4.6803 75.2328 14.1962 118.281 48.5048 127.499C82.8134 136.716 130.948 130.571 131.46 74.2436C131.972 17.9161 61.8186 -1.5425 43.8962 14.3316C35.7611 21.5369 34.6947 29.9028 33.6573 38.0405Z" fill="black"/>
<mask id="mask0_3614_3217" style="mask-type:alpha" maskUnits="userSpaceOnUse" x="8" y="9" width="124" height="122">
<path d="M17.7806 64.0022C42.3598 51.7125 25.9737 30.2057 43.896 14.3316C61.8184 -1.5425 131.972 17.9161 131.46 74.2436C130.948 130.571 82.8132 136.716 48.5046 127.499C14.196 118.281 -4.68047 75.2328 17.7806 64.0022Z" fill="#C4E1E8"/>
</mask>
<g mask="url(#mask0_3614_3217)">
<path fill-rule="evenodd" clip-rule="evenodd" d="M61.5103 7.1626H77.3656V77.4392L104.283 19.715L118.653 26.4157L91.4137 84.8295L129.1 53.2067L139.292 65.3525L105.443 93.7549L134.414 85.9922L138.518 101.307L76.7038 117.87L73.9964 120.142L73.8089 120.842L73.3188 120.711L73.2648 120.756L73.2 120.679L69.7111 119.744L66.2227 120.679L66.1579 120.756L66.1038 120.71L65.6138 120.842L65.4263 120.142L62.7191 117.87L1.90947 101.576L6.01311 86.2615L33.9796 93.7551L4.09641 68.6801L14.288 56.5342L48.0089 84.8294L19.2297 23.1122L33.5994 16.4115L61.5103 76.2666V7.1626Z" fill="white" fill-opacity="0.2"/>
</g>
<path d="M123.779 100.359C123.779 111.671 100.394 120.842 71.5479 120.842C42.7015 120.842 19.3169 111.671 19.3169 100.359C19.3169 89.0468 42.7015 79.8764 71.5479 79.8764C100.394 79.8764 123.779 89.0468 123.779 100.359Z" fill="#FFD43B"/>
<path fill-rule="evenodd" clip-rule="evenodd" d="M61.2309 118.965C90.0773 118.965 113.462 109.795 113.462 98.4827C113.462 91.0422 103.345 84.5283 88.212 80.941C108.887 83.6685 123.779 91.3318 123.779 100.359C123.779 111.671 100.394 120.842 71.5478 120.842C61.6748 120.842 52.4416 119.768 44.5668 117.901C49.8002 118.591 55.4042 118.965 61.2309 118.965Z" fill="#FAB005"/>
<path fill-rule="evenodd" clip-rule="evenodd" d="M24.1014 93.1196C21.5826 95.4549 20.3169 97.9022 20.3169 100.359C20.3169 102.816 21.5826 105.263 24.1014 107.599C26.6213 109.935 30.3226 112.085 34.9801 113.912C44.289 117.562 57.2173 119.842 71.5479 119.842C85.8784 119.842 98.8067 117.562 108.116 113.912C112.773 112.085 116.474 109.935 118.994 107.599C121.513 105.263 122.779 102.816 122.779 100.359C122.779 97.9022 121.513 95.4549 118.994 93.1196C116.474 90.7832 112.773 88.6331 108.116 86.8066C98.8067 83.1561 85.8784 80.8764 71.5479 80.8764C57.2173 80.8764 44.289 83.1561 34.9801 86.8066C30.3226 88.6331 26.6213 90.7832 24.1014 93.1196ZM34.2499 84.9447C43.8449 81.1819 57.0321 78.8764 71.5479 78.8764C86.0637 78.8764 99.2508 81.1819 108.846 84.9447C113.64 86.8248 117.588 89.0884 120.354 91.653C123.121 94.2188 124.779 97.1599 124.779 100.359C124.779 103.558 123.121 106.499 120.354 109.065C117.588 111.63 113.64 113.893 108.846 115.774C99.2508 119.536 86.0637 121.842 71.5479 121.842C57.0321 121.842 43.8449 119.536 34.2499 115.774C29.4555 113.893 25.5076 111.63 22.7416 109.065C19.9742 106.499 18.3169 103.558 18.3169 100.359C18.3169 97.1599 19.9742 94.2188 22.7416 91.653C25.5076 89.0884 29.4555 86.8248 34.2499 84.9447Z" fill="black"/>
<path fill-rule="evenodd" clip-rule="evenodd" d="M20.2996 96.4093C21.2035 98.1546 22.8134 99.3805 25.4583 100.696C28.9376 102.426 31.1914 102.243 33.7761 102.034C35.6024 101.887 37.594 101.726 40.2998 102.217C43.6435 102.823 45.8117 104.548 47.9802 106.273C50.1466 107.996 52.3134 109.72 55.6531 110.329C60.9656 111.299 64.7908 109.501 68.8403 107.597C71.9134 106.152 75.1156 104.647 79.1948 104.245C84.1595 103.755 88.1427 104.61 92.052 105.449C96.4662 106.397 100.786 107.324 106.319 106.273C115.705 104.489 121.835 97.4073 122.681 96.3564C129.197 99.6742 132.996 104.293 132.996 107.715C132.996 119.027 105.485 126.661 71.5478 126.661C37.6109 126.661 10.0996 119.027 10.0996 107.715C10.0996 103.536 13.8539 99.6493 20.2996 96.4093Z" fill="#74C0FC"/>
<path fill-rule="evenodd" clip-rule="evenodd" d="M25.458 100.696C22.8131 99.3805 21.2032 98.1546 20.2993 96.4093C17.5227 97.805 15.2455 99.3206 13.5527 100.928C14.0802 100.631 14.6296 100.34 15.2 100.053C16.1038 101.798 17.7137 103.024 20.3586 104.339C23.8379 106.069 26.0918 105.887 28.6764 105.678C30.5028 105.53 32.4944 105.369 35.2002 105.86C38.5439 106.467 40.712 108.191 42.8806 109.916C45.0469 111.64 47.2137 113.363 50.5535 113.973C55.8659 114.942 59.6912 113.144 63.7406 111.241C66.8137 109.796 70.0159 108.291 74.0952 107.888C79.0599 107.399 83.043 108.254 86.9523 109.093C91.3666 110.041 95.6867 110.968 101.219 109.917C107.006 108.817 111.555 105.703 114.391 103.231C112.093 104.546 109.379 105.691 106.319 106.273C100.786 107.324 96.466 106.397 92.0517 105.449C88.1424 104.61 84.1592 103.755 79.1946 104.245C75.1153 104.647 71.9131 106.152 68.84 107.597C64.7905 109.501 60.9653 111.299 55.6528 110.329C52.3131 109.72 50.1463 107.996 47.9799 106.273C45.8114 104.548 43.6433 102.823 40.2995 102.217C37.5937 101.726 35.6022 101.887 33.7758 102.034C31.1911 102.243 28.9373 102.426 25.458 100.696ZM118.449 100.458C124.433 103.733 127.896 108.092 127.896 111.358C127.896 113.533 126.88 115.571 124.997 117.446C130.088 114.681 132.996 111.392 132.996 107.715C132.996 104.293 129.197 99.6742 122.68 96.3564C122.296 96.8336 120.823 98.5546 118.449 100.458Z" fill="#228BE6"/>
<path fill-rule="evenodd" clip-rule="evenodd" d="M21.1668 93.7349L22.0755 95.4895C22.6808 96.6582 23.8151 97.645 26.3487 98.9047C29.3304 100.387 31.1354 100.241 33.6147 100.041L33.6431 100.039C35.4886 99.8894 37.6934 99.7112 40.6568 100.249C44.4968 100.945 47.0026 102.939 49.1373 104.638L49.2252 104.708C51.4062 106.442 53.2202 107.852 56.0122 108.362C60.629 109.204 63.9189 107.7 67.9894 105.787L68.0744 105.747C71.1094 104.32 74.5756 102.691 78.9985 102.254C84.2744 101.734 88.5146 102.644 92.3988 103.478L92.4718 103.494C96.8873 104.442 100.85 105.277 105.946 104.308C114.611 102.661 120.358 96.0531 121.123 95.1026L122.141 93.8371L123.588 94.5741C127.029 96.3263 129.822 98.4552 131.781 100.673C133.699 102.844 134.996 105.311 134.996 107.715C134.996 111.441 132.717 114.562 129.359 117.054C125.987 119.555 121.24 121.652 115.571 123.346C104.207 126.742 88.639 128.661 71.5478 128.661C54.4566 128.661 38.8882 126.742 27.5248 123.346C21.8552 121.652 17.1089 119.555 13.737 117.054C10.3783 114.562 8.09961 111.441 8.09961 107.715C8.09961 104.984 9.33496 102.507 11.3095 100.357C13.2737 98.2186 16.0515 96.3062 19.4014 94.6223L21.1668 93.7349ZM18.5349 97.3507C18.8135 97.1927 19.0984 97.036 19.3893 96.8807C19.6864 96.7221 19.9899 96.5649 20.2996 96.4093C21.2035 98.1546 22.8134 99.3805 25.4583 100.696C28.9376 102.426 31.1914 102.243 33.7761 102.034C35.6024 101.887 37.594 101.726 40.2998 102.217C43.6435 102.823 45.8117 104.548 47.9802 106.273C50.1466 107.996 52.3134 109.72 55.6531 110.329C60.9656 111.299 64.7908 109.501 68.8403 107.597C71.9134 106.152 75.1156 104.647 79.1948 104.245C84.1595 103.755 88.1427 104.61 92.052 105.449C96.4662 106.397 100.786 107.324 106.319 106.273C115.705 104.489 121.835 97.4073 122.681 96.3564C129.197 99.6742 132.996 104.293 132.996 107.715C132.996 119.027 105.485 126.661 71.5478 126.661C37.6109 126.661 10.0996 119.027 10.0996 107.715C10.0996 103.933 13.1739 100.391 18.5349 97.3507Z" fill="black"/>
<path fill-rule="evenodd" clip-rule="evenodd" d="M86.4179 35.2398C86.4293 35.2502 86.4364 35.2644 86.4379 35.2797C86.6127 36.5614 86.9067 37.824 87.3159 39.0512C87.326 39.0768 87.3327 39.1036 87.3358 39.131L87.3558 39.0911C89.2339 35.7435 91.8893 32.8965 95.0981 30.79L95.1181 30.77L114.514 9.89756C106.444 7.88971 97.9165 10.3566 92.1648 16.3628C87.4576 21.442 85.3395 28.3993 86.4179 35.2398V35.2398Z" fill="#63E6BE"/>
<path fill-rule="evenodd" clip-rule="evenodd" d="M86.4379 35.2797C86.4364 35.2644 86.4293 35.2502 86.4179 35.2398C85.3395 28.3993 87.4576 21.442 92.1649 16.3628C97.9165 10.3566 106.444 7.88971 114.514 9.89756L111.566 13.0695C104.704 12.5365 97.8754 15.0845 93.0228 20.1519C88.3587 25.1846 86.2365 32.061 87.247 38.8409C86.8736 37.6799 86.6028 36.4883 86.4379 35.2797Z" fill="#12B886"/>
<path fill-rule="evenodd" clip-rule="evenodd" d="M84.4561 35.5491C84.4561 35.5494 84.4561 35.5498 84.4562 35.5501C84.6443 36.9286 84.958 38.287 85.3935 39.6082C85.5802 40.3697 86.2005 40.9614 86.988 41.1005C87.8582 41.2542 88.726 40.8185 89.1228 40.0292C90.8427 36.9787 93.2678 34.3839 96.1957 32.4619C96.3097 32.387 96.4158 32.3007 96.5122 32.2043L96.5322 32.1843C96.5495 32.167 96.5665 32.1494 96.5831 32.1315L115.979 11.259C116.461 10.7405 116.633 10.0059 116.431 9.32738C116.229 8.6489 115.684 8.12763 114.997 7.95673C106.231 5.77573 96.968 8.45531 90.7203 14.9796L90.6979 15.0033C85.574 20.5321 83.2684 28.1052 84.4423 35.5513L84.4561 35.5491ZM84.4561 35.5491C84.4561 35.5494 84.4561 35.5498 84.4562 35.5501C84.5181 35.9994 84.7358 36.4133 85.072 36.7192L86.4179 35.2398L84.4561 35.5491ZM86.4378 35.2797C86.4911 35.6704 86.5555 36.0593 86.6308 36.446C86.8026 37.3278 87.0314 38.1981 87.3158 39.0512C87.3187 39.0583 87.3212 39.0656 87.3235 39.073C87.3238 39.0738 87.324 39.0745 87.3242 39.0753C87.3298 39.0935 87.3336 39.1121 87.3358 39.131L87.3557 39.0911C87.368 39.0692 87.3803 39.0474 87.3926 39.0255C87.3938 39.0235 87.3949 39.0215 87.3961 39.0195C87.8162 38.2767 88.2746 37.5587 88.769 36.8682C90.4819 34.4757 92.6257 32.413 95.0981 30.79L95.1181 30.77L114.514 9.89756C113.747 9.70676 112.976 9.55637 112.204 9.44558C104.848 8.39051 97.3699 10.9273 92.1648 16.3628C87.4576 21.442 85.3395 28.3993 86.4179 35.2398C86.4293 35.2502 86.4364 35.2644 86.4378 35.2797Z" fill="black"/>
<path fill-rule="evenodd" clip-rule="evenodd" d="M51.1583 55.9726L84.2031 40.5877L87.3359 39.131C83.925 36.6836 79.937 35.164 75.7623 34.721H75.7423L75.7024 34.7011C71.7546 34.3095 67.7745 34.9993 64.1887 36.6965C56.7 40.317 51.7267 47.6741 51.1583 55.9726Z" fill="#8CE99A"/>
<path fill-rule="evenodd" clip-rule="evenodd" d="M52.6922 49.1249L81.0891 35.9039C83.3081 36.6671 85.4137 37.7517 87.336 39.131L84.2032 40.5877L51.1584 55.9726C51.3216 53.5904 51.8478 51.2858 52.6922 49.1249Z" fill="#37B24D"/>
<path fill-rule="evenodd" clip-rule="evenodd" d="M50.0262 57.6213C50.6095 58.0219 51.361 58.0844 52.0025 57.7857L88.1792 40.9445C88.8237 40.6448 89.2607 40.0256 89.3272 39.3179C89.3936 38.6102 89.0794 37.9204 88.5019 37.506C84.8571 34.8908 80.6035 33.2543 76.1478 32.7513C76.0662 32.7327 75.9834 32.7191 75.8998 32.7108C71.5909 32.2835 67.2468 33.0363 63.333 34.8888L63.3181 34.8959C55.183 38.829 49.7804 46.8211 49.163 55.836C49.1146 56.5419 49.4429 57.2208 50.0262 57.6213ZM75.7423 34.721H75.7623C79.151 35.0806 82.4168 36.1496 85.3507 37.8484C86.0312 38.2424 86.6938 38.6702 87.3359 39.131L51.1583 55.9726C51.2123 55.1846 51.306 54.405 51.4378 53.6364C52.6939 46.3105 57.4111 39.9732 64.1886 36.6965C67.7745 34.9993 71.7545 34.3095 75.7024 34.7011L75.7423 34.721Z" fill="black"/>
<path fill-rule="evenodd" clip-rule="evenodd" d="M50.0409 24.9034L75.7024 34.7011L75.7423 34.721H75.7623C79.937 35.164 83.925 36.6836 87.3359 39.131C87.3328 39.1036 87.3261 39.0768 87.316 39.0512C86.9068 37.824 86.6129 36.5614 86.438 35.2798C86.4365 35.2644 86.4294 35.2502 86.418 35.2399C84.3779 28.6244 79.4121 23.3128 72.9487 20.8327C65.1354 17.9822 56.3938 19.5356 50.0409 24.9034Z" fill="#63E6BE"/>
<path fill-rule="evenodd" clip-rule="evenodd" d="M77.8132 35.0278C81.2382 35.6911 84.4883 37.0877 87.336 39.131C87.3329 39.1036 87.3262 39.0768 87.3161 39.0512C86.9069 37.824 86.6129 36.5614 86.4381 35.2798C86.4366 35.2644 86.4295 35.2502 86.4181 35.2398C84.378 28.6244 79.4121 23.3128 72.9488 20.8327C70.7657 20.0362 68.5101 19.5836 66.2544 19.4619C71.5649 22.2301 75.5918 27.0215 77.3773 32.8116C77.3887 32.8219 77.3958 32.8362 77.3973 32.8515C77.4973 33.5842 77.6361 34.3107 77.8132 35.0278Z" fill="#12B886"/>
<path fill-rule="evenodd" clip-rule="evenodd" d="M48.0691 25.2386C48.1878 25.9363 48.6663 26.5194 49.3275 26.7718L74.9065 36.538C75.1315 36.6415 75.3735 36.7022 75.6203 36.7173C79.4254 37.1331 83.0593 38.524 86.17 40.756C86.8128 41.2172 87.667 41.2561 88.3491 40.8553C89.0313 40.4545 89.413 39.6893 89.3229 38.9032C89.3029 38.7289 89.2632 38.5573 89.2044 38.3919C88.8403 37.2947 88.5782 36.1663 88.4212 35.021C88.3976 34.8391 88.3501 34.6625 88.2808 34.4954C86.0303 27.3653 80.6512 21.6461 73.6652 18.9654L73.6341 18.9538C65.1467 15.8574 55.6511 17.5448 48.75 23.3757C48.2095 23.8325 47.9505 24.5409 48.0691 25.2386ZM86.418 35.2399C86.4294 35.2502 86.4365 35.2644 86.4379 35.2798C86.4827 35.6078 86.5353 35.9346 86.5955 36.2599C86.7708 37.2054 87.0115 38.1381 87.3159 39.0512C87.326 39.0768 87.3328 39.1036 87.3359 39.131C87.3096 39.1121 87.2832 39.0933 87.2568 39.0745C87.2557 39.0737 87.2545 39.0729 87.2534 39.072C86.4709 38.5156 85.6584 38.0077 84.8206 37.5503C82.0256 36.0243 78.9483 35.0591 75.7623 34.721H75.7423L75.7024 34.7011L50.0408 24.9034C50.6443 24.3935 51.2694 23.918 51.9131 23.4774C58.0462 19.2802 65.8776 18.253 72.9487 20.8327C79.412 23.3128 84.3779 28.6244 86.418 35.2399Z" fill="black"/>
<path fill-rule="evenodd" clip-rule="evenodd" d="M87.3358 39.131H127.245C123.227 31.8457 115.609 27.2754 107.29 27.1582C102.964 27.1238 98.7255 28.3814 95.118 30.77L95.0981 30.79C91.8893 32.8964 89.2339 35.7435 87.3557 39.0911L87.3358 39.131Z" fill="#8CE99A"/>
<path fill-rule="evenodd" clip-rule="evenodd" d="M87.4221 38.9734H115.909C112.853 33.4318 107.714 29.461 101.767 27.8262C103.563 27.3703 105.418 27.1433 107.29 27.1582C115.609 27.2754 123.226 31.8457 127.245 39.131H87.3357L87.3557 39.0911C87.3777 39.0518 87.3998 39.0126 87.4221 38.9734Z" fill="#37B24D"/>
<path fill-rule="evenodd" clip-rule="evenodd" d="M85.6344 40.1824C85.9988 40.772 86.6426 41.131 87.3358 41.131H127.245C127.952 41.131 128.607 40.7571 128.967 40.1479C129.327 39.5386 129.338 38.7846 128.996 38.165C124.631 30.2507 116.356 25.2858 107.318 25.1584L107.306 25.1583C102.582 25.1206 97.9533 26.494 94.0139 29.1024C93.9728 29.1296 93.9328 29.1583 93.8939 29.1884C90.4649 31.4637 87.6257 34.5224 85.6115 38.1125C85.596 38.1401 85.5811 38.1681 85.5669 38.1965L85.547 38.2364C85.2369 38.8564 85.27 39.5927 85.6344 40.1824ZM95.0981 30.79L95.118 30.77C98.7255 28.3814 102.964 27.1238 107.29 27.1582C114.82 27.2643 121.774 31.0181 126.006 37.131C126.449 37.7722 126.863 38.4393 127.245 39.131H87.3358L87.3557 39.0911C87.7341 38.4167 88.1439 37.7627 88.5835 37.131C90.3261 34.6265 92.5356 32.4721 95.0981 30.79Z" fill="black"/>
<path fill-rule="evenodd" clip-rule="evenodd" d="M84.2032 40.5877C85.9991 44.1396 88.254 50.7047 88.653 61.6198C95.8766 62.7372 99.7478 60.223 101.763 57.6289C99.6247 50.9048 96.2625 44.6336 91.8458 39.131H87.336L84.2032 40.5877Z" fill="#FFC078"/>
<path fill-rule="evenodd" clip-rule="evenodd" d="M88.6103 60.6119C90.387 59.8014 91.659 58.6576 92.56 57.4979C90.7882 51.9268 88.1764 46.6666 84.8208 41.8968C84.6113 41.4214 84.4043 40.9856 84.2031 40.5877L87.336 39.131H91.8457C96.2624 44.6336 99.6247 50.9048 101.763 57.6289C99.7477 60.223 95.8765 62.7372 88.653 61.6198C88.6406 61.2796 88.6263 60.9437 88.6103 60.6119Z" fill="#FF922B"/>
<path fill-rule="evenodd" clip-rule="evenodd" d="M82.3135 39.9326C82.136 40.4445 82.1738 41.0066 82.4183 41.4901C84.0672 44.7512 86.2644 51.0269 86.6544 61.6929C86.6894 62.6511 87.3996 63.4497 88.3473 63.5963C96.2498 64.8188 100.858 62.054 103.343 58.8559C103.747 58.3359 103.869 57.6503 103.669 57.0227C101.456 50.0639 97.9764 43.5738 93.4055 37.8791C93.0259 37.4062 92.4522 37.131 91.8458 37.131H87.336C87.0447 37.131 86.7569 37.1946 86.4928 37.3175L83.3599 38.7741C82.8686 39.0026 82.491 39.4206 82.3135 39.9326ZM84.9469 42.1873C84.6945 41.5975 84.4447 41.0653 84.2032 40.5877L87.336 39.131H91.8458C96.2625 44.6336 99.6247 50.9048 101.763 57.6289C99.7478 60.223 95.8766 62.7372 88.653 61.6198C88.3076 52.1725 86.572 45.9839 84.9469 42.1873Z" fill="black"/>
<path fill-rule="evenodd" clip-rule="evenodd" d="M87.0195 87.561C87.0195 87.561 92.7627 89.9011 96.649 90.1523C100.638 90.4102 106.786 88.7331 106.786 88.7331C106.484 85.8764 106.092 81.1728 106.056 80.3175C105.744 72.8454 104.635 64.9082 101.878 57.7392C99.8625 60.3333 95.8664 63.2684 88.6429 62.1509C88.8258 70.6015 88.4897 79.2373 87.0195 87.561Z" fill="#FFC078"/>
<path fill-rule="evenodd" clip-rule="evenodd" d="M95.5885 90.041C95.9529 90.0922 96.3081 90.1303 96.649 90.1523C100.638 90.4102 106.786 88.7331 106.786 88.7331C106.484 85.8764 106.092 81.1728 106.056 80.3175C105.744 72.8454 104.635 64.9082 101.878 57.7392C100.202 59.896 97.1575 62.2884 92.0271 62.3916C93.9409 68.6235 94.773 75.2668 95.0366 81.5783C95.0723 82.4335 95.4642 87.1371 95.7664 89.9939C95.7664 89.9939 95.7043 90.0108 95.5885 90.041Z" fill="#FF922B"/>
<path fill-rule="evenodd" clip-rule="evenodd" d="M86.2649 89.4132L87.0196 87.561C88.3725 79.9016 88.7651 71.978 88.6766 64.1775C88.6689 63.5009 88.6576 62.8253 88.643 62.1509C89.3411 62.2589 90.0091 62.329 90.648 62.3653C95.2435 62.6261 98.3378 61.1341 100.35 59.3647C100.953 58.8346 101.458 58.2795 101.878 57.7392C102.153 58.455 102.412 59.1784 102.655 59.9083C104.849 66.4885 105.775 73.5914 106.056 80.3175C106.092 81.1728 106.484 85.8764 106.786 88.7331L107.312 90.6626C108.259 90.4045 108.878 89.4981 108.775 88.5227C108.473 85.6713 108.087 81.0214 108.054 80.2341C107.737 72.6424 106.609 64.4678 103.745 57.0213C103.486 56.3479 102.884 55.8662 102.17 55.7607C101.457 55.6553 100.741 55.9424 100.299 56.5122C98.6812 58.5941 95.3808 61.1694 88.9488 60.1744C88.3643 60.084 87.7699 60.2569 87.325 60.6466C86.8802 61.0363 86.6307 61.6029 86.6435 62.1942C86.8248 70.5699 86.4895 79.064 85.0501 87.2132C84.8862 88.1411 85.3923 89.0576 86.2649 89.4132ZM89.7661 90.6669C91.7145 91.2919 94.3178 92.0058 96.5201 92.1482C98.7808 92.2943 101.523 91.8966 103.587 91.5042C104.643 91.3035 105.568 91.0947 106.23 90.936C106.561 90.8565 106.828 90.7892 107.013 90.7413C107.106 90.7174 107.179 90.6982 107.229 90.6848L107.288 90.6691L107.305 90.6647L107.311 90.6629C107.312 90.6628 107.312 90.6626 106.786 88.7331C106.786 88.7331 100.638 90.4102 96.6491 90.1523C92.7629 89.9012 87.0196 87.561 87.0196 87.561C86.2649 89.4132 86.2647 89.4131 86.2649 89.4132L86.2674 89.4142L86.2874 89.4223L86.3424 89.4444C86.3897 89.4633 86.4577 89.4903 86.5446 89.5243C86.7185 89.5924 86.9683 89.6888 87.2792 89.8047C87.9001 90.0361 88.7694 90.3472 89.7661 90.6669Z" fill="black"/>
<path d="M88.0916 78.6947L80.3712 80.9005L74.3052 87.518L77.6139 93.0326L89.746 95.2384L98.0179 93.0326L96.3635 84.7607L88.0916 78.6947Z" fill="#DEE2E6"/>
<path fill-rule="evenodd" clip-rule="evenodd" d="M80.3713 80.9005L88.0917 78.6947L96.3636 84.7607L98.018 93.0326L91.0247 94.8975L90.0584 90.066L81.7866 84L76.0198 85.6477L80.3713 80.9005Z" fill="#ADB5BD"/>
<path fill-rule="evenodd" clip-rule="evenodd" d="M78.8969 79.5491C79.1465 79.2768 79.4666 79.0789 79.8218 78.9775L87.5422 76.7716C88.1365 76.6018 88.776 76.7163 89.2744 77.0819L97.5463 83.1479C97.9491 83.4433 98.2267 83.8787 98.3247 84.3685L99.9791 92.6404C100.186 93.6754 99.5531 94.6931 98.5332 94.9651L90.2614 97.1709C89.9765 97.2469 89.6783 97.2589 89.3883 97.2062L77.2562 95.0003C76.6897 94.8973 76.1952 94.5553 75.899 94.0616L72.5902 88.547C72.1347 87.7877 72.2326 86.8193 72.8309 86.1666L78.8969 79.5491ZM80.3712 80.9005L88.0917 78.6947L96.3635 84.7607L98.0179 93.0326L89.746 95.2384L77.614 93.0326L74.3052 87.518L80.3712 80.9005Z" fill="black"/>
<path d="M102.217 84.2092L96.7027 86.0474L94.1575 91.5619L97.5511 95.2383H105.611L110.701 92.481L108.156 85.1283L102.217 84.2092Z" fill="#DEE2E6"/>
<path fill-rule="evenodd" clip-rule="evenodd" d="M96.7025 86.0474L102.217 84.2092L108.156 85.1283L110.701 92.481L105.611 95.2383H103.494L101.999 90.9191L96.0598 90L94.6633 90.4655L96.7025 86.0474Z" fill="#ADB5BD"/>
<path fill-rule="evenodd" clip-rule="evenodd" d="M94.8868 85.2092C95.1182 84.7079 95.5465 84.3246 96.0702 84.15L101.585 82.3118C101.887 82.2111 102.209 82.184 102.523 82.2327L108.462 83.1518C109.194 83.2651 109.804 83.7739 110.046 84.474L112.591 91.8268C112.912 92.7521 112.515 93.7733 111.654 94.2396L106.563 96.9969C106.271 97.1553 105.944 97.2383 105.611 97.2383H97.5511C96.9929 97.2383 96.4601 97.005 96.0815 96.5949L92.6879 92.9185C92.1394 92.3242 92.0027 91.4581 92.3416 90.7238L94.8868 85.2092ZM96.7027 86.0474L102.217 84.2092L108.156 85.1283L110.701 92.481L105.611 95.2383H97.5511L94.1575 91.5619L96.7027 86.0474Z" fill="black"/>
<path d="M30.0429 39.5295C33.7687 43.3256 38.9074 41.563 40.4167 39.8641C39.6999 42.0206 40.7429 47.3522 45.8933 48.6808C44.5495 51.0082 44.3859 55.9474 48.0965 58.1984L48.6708 58.5096L48.6719 58.5101C46.8978 58.7924 45.0496 60.1478 43.9142 61.9362C42.9728 63.7348 42.6831 65.8929 43.2146 67.5082C43.2504 67.5936 43.2887 67.6786 43.3295 67.7633L43.3007 67.7467C43.3059 67.7598 43.3111 67.773 43.3164 67.7861C39.3664 65.1104 34.9089 67.7064 33.5544 70.0525C29.8006 66.3047 24.7422 67.9282 23.2766 69.5516C23.9497 67.4706 22.8264 62.2782 17.7039 60.9012C19.0584 58.5551 19.0779 53.3968 14.7856 51.3138C14.7996 51.3119 14.8136 51.3098 14.8276 51.3077L14.7987 51.2911C14.8927 51.2841 14.9856 51.2747 15.0775 51.263C16.7419 50.9156 18.4657 49.5859 19.5526 47.8717C20.5339 45.994 20.1427 43.1778 19.5 41.5L20.6988 42.3803C24.5034 44.4683 28.6991 41.857 30.0429 39.5295Z" fill="#FFD850"/>
<path fill-rule="evenodd" clip-rule="evenodd" d="M29.7912 37.5454C30.4113 37.4667 31.0325 37.6825 31.4703 38.1286C32.851 39.5353 34.4441 39.8979 35.8777 39.7659C37.4257 39.6234 38.5735 38.9276 38.9215 38.5358C39.552 37.8261 40.5946 37.6573 41.4168 38.132C42.2389 38.6067 42.6141 39.594 42.3147 40.4949C42.1494 40.9922 42.1207 42.334 42.7713 43.7459C43.3739 45.0535 44.4844 46.2518 46.393 46.7442C46.9982 46.9003 47.4957 47.3304 47.7376 47.9068C47.9795 48.4831 47.938 49.1394 47.6255 49.6808C47.1993 50.4189 46.8809 51.7774 47.08 53.1889C47.2691 54.5292 47.8895 55.7167 49.0962 56.4653L49.6106 56.744C50.3551 57.1394 50.7744 57.9624 50.6506 58.8018C50.5232 59.6663 49.8493 60.3479 48.9864 60.4852C47.9202 60.6549 46.5511 61.5566 45.6479 62.9381C44.9451 64.3243 44.8031 65.838 45.0915 66.8094C45.1042 66.8378 45.1174 66.8662 45.1312 66.8947C45.4259 67.506 45.3859 68.2107 45.0551 68.7749C44.9343 68.9875 44.7732 69.1801 44.5748 69.3407C43.8903 69.8947 42.924 69.9358 42.1949 69.4419C40.8264 68.5149 39.3993 68.4874 38.1093 68.9285C36.7404 69.3966 35.6972 70.3412 35.2865 71.0525C34.9758 71.5907 34.4325 71.9539 33.8163 72.0353C33.2002 72.1166 32.5812 71.9069 32.1414 71.4678C30.7302 70.0589 29.1233 69.6786 27.7035 69.7825C26.1677 69.895 25.0689 70.551 24.7612 70.8918C24.1291 71.592 23.0936 71.7553 22.2767 71.2836C21.4598 70.812 21.0834 69.8336 21.3738 68.9361C21.5151 68.4992 21.5338 67.2196 20.8633 65.8333C20.2434 64.5518 19.1106 63.3503 17.1848 62.8326C16.5847 62.6713 16.0936 62.2401 15.856 61.6658C15.6184 61.0916 15.6612 60.4394 15.972 59.9012C16.3827 59.1899 16.679 57.8142 16.4 56.3946C16.137 55.0569 15.3996 53.8348 13.9126 53.1131C13.1203 52.7287 12.6728 51.8713 12.8103 51.0015C12.8499 50.7506 12.9356 50.5158 13.0583 50.3056C13.3812 49.7354 13.9723 49.3471 14.6504 49.2966C14.682 49.2942 14.7133 49.2915 14.7443 49.2883C15.728 49.0527 16.965 48.1757 17.8139 46.8779C18.0564 46.3715 18.1819 45.6214 18.1377 44.7074C18.0926 43.7734 17.8789 42.8587 17.6325 42.2154C17.315 41.3868 17.5816 40.448 18.2872 39.9098C18.9927 39.3716 19.9686 39.3627 20.6839 39.8879L21.7667 40.6831C22.9991 41.3167 24.3125 41.2533 25.5455 40.7559C26.8674 40.2226 27.8848 39.2676 28.3109 38.5295C28.6234 37.9882 29.1711 37.6241 29.7912 37.5454ZM20.1179 44.3306C20.0987 44.0809 20.0704 43.8335 20.0345 43.591C20.022 43.5067 20.0085 43.423 19.9942 43.3399C19.8767 42.6579 19.7006 42.0235 19.5001 41.5L20.6989 42.3803C21.1119 42.6069 21.5295 42.7782 21.9476 42.9005C24.5232 43.6538 27.1162 42.5474 28.7568 41.0716C29.303 40.5802 29.7437 40.0478 30.043 39.5295C30.5478 40.0439 31.0786 40.4562 31.6228 40.7805C33.8898 42.1312 36.3893 41.9535 38.2143 41.2586C39.1844 40.8893 39.9639 40.3738 40.4168 39.8641C40.2017 40.5111 40.1451 41.4439 40.3103 42.4687C40.621 44.3967 41.7169 46.6501 44.0201 47.9381C44.573 48.2472 45.1955 48.5007 45.8934 48.6808C45.5942 49.1991 45.3534 49.8469 45.201 50.5657C44.7717 52.5899 45.0425 55.177 46.6776 57.0201C47.0693 57.4615 47.5392 57.8603 48.0966 58.1984L48.671 58.5096C48.671 58.5096 48.6709 58.5096 48.671 58.5096C48.3847 58.5552 48.0962 58.6295 47.8094 58.7284C47.7949 58.7334 47.7804 58.7384 47.7658 58.7436C47.291 58.9115 46.8204 59.1483 46.369 59.4418C45.4185 60.06 44.5535 60.9295 43.9143 61.9362C43.3572 63.0007 43.0283 64.191 42.9628 65.3203C42.9539 65.474 42.9499 65.6265 42.9508 65.7775C42.9546 66.3915 43.0406 66.979 43.2148 67.5082C43.2454 67.5813 43.2779 67.6542 43.3122 67.7269C43.3143 67.7311 43.3163 67.7354 43.3183 67.7397C43.3221 67.7476 43.3259 67.7555 43.3297 67.7633L43.3008 67.7467L43.3165 67.7861C43.3118 67.7829 43.3071 67.7797 43.3024 67.7765C43.2979 67.7734 43.2933 67.7704 43.2888 67.7674C43.2838 67.764 43.2788 67.7607 43.2738 67.7573C43.1876 67.6998 43.1011 67.6448 43.0145 67.5922C43.008 67.5883 43.0016 67.5844 42.9951 67.5805C42.4956 67.2796 41.9897 67.0595 41.4844 66.9094C41.3279 66.863 41.1715 66.8232 41.0154 66.7898C38.6533 66.2846 36.3552 67.2399 34.8577 68.529C34.2991 69.0099 33.852 69.5372 33.5545 70.0525C33.0458 69.5446 32.5131 69.1354 31.9687 68.8114C29.7094 67.467 27.2473 67.5911 25.4537 68.2284C24.4901 68.5707 23.7195 69.0612 23.2767 69.5516C23.48 68.9229 23.5194 68.0103 23.3341 67.0047C22.9892 65.1326 21.8657 62.9384 19.5717 61.654C19.0189 61.3445 18.3982 61.0878 17.704 60.9012C18.0015 60.3859 18.2346 59.735 18.3718 59.0108C18.7394 57.0695 18.4177 54.6015 16.7991 52.8085C16.6921 52.69 16.5795 52.5745 16.461 52.4622C16.0785 52.0998 15.6351 51.7717 15.1249 51.4896C15.1183 51.486 15.1117 51.4823 15.1051 51.4787C15.0161 51.4299 14.9251 51.3824 14.832 51.3365C14.8266 51.3338 14.8212 51.3311 14.8158 51.3285C14.8109 51.3261 14.806 51.3237 14.8011 51.3213C14.796 51.3188 14.7909 51.3163 14.7858 51.3138L14.8278 51.3077L14.7989 51.2911C14.8076 51.2904 14.8163 51.2897 14.825 51.2891C14.8297 51.2887 14.8345 51.2883 14.8392 51.2879C14.9194 51.2813 14.9989 51.273 15.0776 51.263C15.6229 51.1492 16.1745 50.9299 16.7081 50.6263C16.8393 50.5516 16.9694 50.4718 17.098 50.3873C18.0431 49.766 18.9094 48.8862 19.5527 47.8717C20.0834 46.8563 20.2127 45.5664 20.1179 44.3306Z" fill="black"/>
<circle cx="31.8469" cy="54.9304" r="10.2395" fill="#FFF845"/>
<path d="M59.4442 67.0634C57.7684 65.389 53.5787 65.4936 51.0649 67.5866C53.5787 62.8774 57.4891 62.703 59.0253 63.9239C62.7122 61.2233 67.5442 62.7986 69.4994 64.4471C65.4773 63.1913 61.2598 65.668 59.4442 67.0634Z" fill="white"/>
<path d="M35.7029 75.7797C34.3064 74.4402 31.6064 73.7315 29.5581 74.7557C31.6064 71.6832 33.8874 72.897 35.1676 73.8737C38.24 71.7132 41.2426 72.9248 42.8719 74.2436C39.5202 73.239 37.2159 74.6635 35.7029 75.7797Z" fill="white"/>
<path d="M75.6442 69.4896C75.1321 68.4655 74.8959 66.5764 72.5718 67.9534C75.1321 65.3931 75.6209 66.9293 75.6209 68.1123C76.6683 66.4172 77.1804 66.4172 79.7407 68.1122C76.6079 67.4413 76.6683 67.9534 75.6442 69.4896Z" fill="white"/>
<ellipse rx="3.74541" ry="4.22351" transform="matrix(0.98969 0.143224 -0.20236 0.979311 85.3263 42.6391)" fill="#624816"/>
<path opacity="0.7" d="M89.0331 43.1755C88.8473 44.0744 87.7263 42.1337 86.5802 41.669C85.8604 41.3771 85.0571 42.8388 84.6993 42.2959C84.1789 41.5063 84.8081 40.5215 84.0723 40.415C82.8184 40.2335 81.1474 44.387 81.6195 42.1027C82.0915 39.8183 84.1337 38.2067 86.1809 38.503C88.2281 38.7992 89.5051 40.8912 89.0331 43.1755Z" fill="#E8DCC8"/>
<ellipse cx="90.4263" cy="42.5663" rx="4.38878" ry="4.97132" transform="rotate(-31.9246 90.4263 42.5663)" fill="#5B400C"/>
<path opacity="0.9" d="M94.1512 40.2455C94.8354 41.3436 92.2231 38.3469 90.3421 39.1609C89.7152 39.4322 90.2803 42.3779 89.7152 42.2957C88.6888 42.1464 87.9088 40.6418 87.2073 41.0789C85.9534 41.7059 87.4763 45.8341 85.9533 43.5497C84.6993 41.6687 85.7402 39.6286 87.7974 38.3469C89.8546 37.0651 92.223 37.1507 94.1512 40.2455Z" fill="#F8EDD9"/>
<path d="M117.749 47.0605C117.779 46.9397 117.925 46.8918 118.02 46.9715L118.89 47.6974C118.933 47.7333 118.991 47.7455 119.045 47.7299L120.132 47.4144C120.252 47.3797 120.366 47.4822 120.345 47.6048L120.151 48.7207C120.142 48.7759 120.16 48.8322 120.2 48.8709L121.018 49.6553C121.107 49.7414 121.076 49.8918 120.959 49.9346L119.896 50.3247C119.843 50.3439 119.804 50.3881 119.79 50.4424L119.52 51.5423C119.49 51.6631 119.344 51.711 119.248 51.6312L118.379 50.9053C118.336 50.8695 118.278 50.8573 118.224 50.8729L117.136 51.1884C117.017 51.2231 116.902 51.1206 116.924 50.998L117.117 49.8821C117.127 49.8269 117.109 49.7706 117.068 49.7319L116.251 48.9475C116.161 48.8614 116.193 48.711 116.31 48.6682L117.373 48.2781C117.426 48.2588 117.465 48.2147 117.478 48.1603L117.749 47.0605Z" fill="#FFDFAE"/>
<path d="M17.1419 78.6997C17.1717 78.5789 17.3176 78.5311 17.4131 78.6108L19.4281 80.2929C19.471 80.3288 19.529 80.341 19.5828 80.3254L22.1037 79.5942C22.2232 79.5596 22.3376 79.6621 22.3163 79.7846L21.867 82.3707C21.8574 82.4258 21.8759 82.4821 21.9163 82.5209L23.8099 84.3385C23.8997 84.4246 23.8681 84.575 23.7513 84.6178L21.2871 85.5217C21.2345 85.541 21.195 85.5851 21.1816 85.6395L20.5544 88.1882C20.5246 88.309 20.3787 88.3569 20.2832 88.2772L18.2682 86.595C18.2253 86.5592 18.1673 86.547 18.1135 86.5626L15.5926 87.2937C15.4731 87.3284 15.3587 87.2259 15.38 87.1033L15.8293 84.5173C15.8389 84.4621 15.8204 84.4058 15.78 84.3671L13.8864 82.5495C13.7966 82.4633 13.8282 82.313 13.945 82.2701L16.4092 81.3662C16.4618 81.347 16.5013 81.3028 16.5147 81.2485L17.1419 78.6997Z" fill="#FFDFAE"/>
<path d="M128.858 83.1769C128.976 83.1372 129.094 83.2347 129.078 83.358L128.932 84.4813C128.925 84.5368 128.946 84.5922 128.988 84.6292L129.838 85.3779C129.931 85.4601 129.906 85.6117 129.791 85.6595L128.746 86.0947C128.694 86.1162 128.656 86.162 128.645 86.2168L128.422 87.3273C128.397 87.4492 128.254 87.5033 128.155 87.4277L127.255 86.7397C127.21 86.7057 127.152 86.696 127.099 86.7139L126.026 87.0756C125.908 87.1153 125.789 87.0178 125.805 86.8945L125.951 85.7712C125.958 85.7157 125.937 85.6603 125.895 85.6233L125.045 84.8746C124.952 84.7924 124.977 84.6408 125.092 84.593L126.138 84.1578C126.189 84.1363 126.227 84.0905 126.238 84.0357L126.462 82.9252C126.486 82.8033 126.63 82.7492 126.729 82.8248L127.628 83.5128C127.673 83.5468 127.731 83.5565 127.784 83.5386L128.858 83.1769Z" fill="#FFDFAE"/>
<path d="M120.001 60.7514C120.191 60.6684 120.402 60.8131 120.393 61.0202L120.295 63.3361C120.291 63.4293 120.334 63.5183 120.409 63.5737L122.275 64.949C122.442 65.0721 122.422 65.3274 122.238 65.4233L120.184 66.4963C120.101 66.5395 120.045 66.6209 120.035 66.7136L119.777 69.0171C119.753 69.2232 119.522 69.3338 119.348 69.2226L117.391 67.9797C117.312 67.9297 117.214 67.9221 117.128 67.9594L115.004 68.8876C114.814 68.9706 114.603 68.8259 114.612 68.6187L114.71 66.3029C114.714 66.2097 114.671 66.1206 114.596 66.0653L112.73 64.6899C112.564 64.5669 112.583 64.3116 112.767 64.2156L114.822 63.1427C114.904 63.0995 114.96 63.018 114.971 62.9253L115.229 60.6218C115.252 60.4158 115.483 60.3052 115.658 60.4164L117.614 61.6593C117.693 61.7093 117.791 61.7169 117.877 61.6795L120.001 60.7514Z" fill="#FFFDE8"/>
<path d="M36.6682 22.0715C36.6957 21.9598 36.8307 21.9155 36.919 21.9892L38.0922 22.9687C38.1319 23.0018 38.1855 23.0131 38.2353 22.9987L39.7031 22.5729C39.8136 22.5409 39.9194 22.6357 39.8997 22.749L39.6381 24.2548C39.6292 24.3058 39.6463 24.3578 39.6837 24.3937L40.7862 25.452C40.8692 25.5316 40.8401 25.6707 40.7321 25.7103L39.2972 26.2366C39.2487 26.2544 39.2121 26.2953 39.1997 26.3455L38.8345 27.8296C38.807 27.9413 38.672 27.9855 38.5837 27.9118L37.4105 26.9324C37.3708 26.8992 37.3171 26.8879 37.2674 26.9024L35.7996 27.3281C35.6891 27.3601 35.5833 27.2653 35.603 27.152L35.8646 25.6462C35.8734 25.5953 35.8564 25.5432 35.819 25.5074L34.7164 24.449C34.6334 24.3694 34.6626 24.2303 34.7706 24.1907L36.2054 23.6644C36.254 23.6466 36.2906 23.6058 36.3029 23.5555L36.6682 22.0715Z" fill="#FFFDE8"/>
<path fill-rule="evenodd" clip-rule="evenodd" d="M34.7708 24.1907C34.6628 24.2303 34.6336 24.3694 34.7166 24.449L35.8192 25.5074C35.8565 25.5432 35.8736 25.5953 35.8647 25.6462L35.6031 27.152C35.5834 27.2653 35.6893 27.3601 35.7998 27.3281L37.2676 26.9024C37.3173 26.8879 37.3709 26.8992 37.4106 26.9324L38.5839 27.9118C38.6722 27.9855 38.8072 27.9413 38.8347 27.8296L39.1999 26.3455C39.2123 26.2953 39.2488 26.2544 39.2974 26.2366L40.7322 25.7103C40.8402 25.6707 40.8694 25.5316 40.7864 25.452L39.6838 24.3937C39.6465 24.3578 39.6294 24.3058 39.6383 24.2548L39.8999 22.749C39.9196 22.6357 39.8137 22.5409 39.7032 22.5729L38.2354 22.9987C38.1857 23.0131 38.1321 23.0018 38.0924 22.9687L36.9191 21.9892C36.8308 21.9155 36.6958 21.9598 36.6683 22.0715L36.3031 23.5555C36.2907 23.6058 36.2542 23.6466 36.2056 23.6644L34.7708 24.1907ZM39.3741 21.4334L39.3723 21.4319ZM38.2009 20.4539L38.6208 20.8045L39.1461 20.6521C40.6767 20.2082 42.1432 21.5213 41.8704 23.0914L41.7767 23.6303L42.1714 24.0091C43.3211 25.1127 42.9172 27.0392 41.421 27.588L40.9074 27.7764L40.7767 28.3075C40.3959 29.855 38.5255 30.4684 37.3021 29.4471L36.8822 29.0966L36.3569 29.2489C34.8263 29.6928 33.3598 28.3798 33.6326 26.8096L33.7263 26.2707L33.3316 25.8919C32.1819 24.7884 32.5858 22.8618 34.082 22.313L34.5956 22.1247L34.7263 21.5935C35.1071 20.046 36.9775 19.4326 38.2009 20.4539ZM34.4342 26.9502C34.4337 26.9497 34.4331 26.9492 34.4325 26.9486ZM37.8247 28.8232C37.8239 28.8234 37.8232 28.8236 37.8224 28.8239ZM36.1289 28.4677L36.1307 28.4692ZM41.1419 26.8235C41.1418 26.8242 41.1416 26.825 41.1414 26.8258ZM39.9883 28.1135C39.9876 28.1138 39.9869 28.114 39.9861 28.1143ZM41.0688 22.9508C41.0693 22.9513 41.0699 22.9519 41.0705 22.9524ZM41.6091 24.5948C41.609 24.5956 41.6089 24.5964 41.6087 24.5971Z" fill="black"/>
</svg>
