<svg width="140" height="140" viewBox="0 0 140 140" fill="none" xmlns="http://www.w3.org/2000/svg">
<mask id="path-1-outside-1_3614_1223" maskUnits="userSpaceOnUse" x="4" y="5" width="130" height="133" fill="black">
<rect fill="white" x="4" y="5" width="130" height="133"/>
<path fill-rule="evenodd" clip-rule="evenodd" d="M61.8948 9C48.0888 9.00009 18.6229 16.8165 22.6859 46.8403C25.9993 71.3253 22.87 75.7769 11.0889 91.3582C-0.692186 106.94 21.5814 147.046 71.8351 129.755C81.7904 126.33 90.8649 121.048 98.7066 114.609C100.594 114.804 102.364 113.547 102.767 111.648L102.919 110.93C104.201 109.741 105.444 108.521 106.645 107.273L109.126 109.669L111.409 111.873L119.744 103.242L117.461 101.037L114.401 98.0825C130.389 76.367 134.744 49.8241 119.88 33.4847C100.441 12.1161 74.044 9.00002 61.8948 9ZM123.168 106.549L114.833 115.18L111.409 111.874L119.744 103.242L123.168 106.549Z"/>
</mask>
<path fill-rule="evenodd" clip-rule="evenodd" d="M61.8948 9C48.0888 9.00009 18.6229 16.8165 22.6859 46.8403C25.9993 71.3253 22.87 75.7769 11.0889 91.3582C-0.692186 106.94 21.5814 147.046 71.8351 129.755C81.7904 126.33 90.8649 121.048 98.7066 114.609C100.594 114.804 102.364 113.547 102.767 111.648L102.919 110.93C104.201 109.741 105.444 108.521 106.645 107.273L109.126 109.669L111.409 111.873L119.744 103.242L117.461 101.037L114.401 98.0825C130.389 76.367 134.744 49.8241 119.88 33.4847C100.441 12.1161 74.044 9.00002 61.8948 9ZM123.168 106.549L114.833 115.18L111.409 111.874L119.744 103.242L123.168 106.549Z" fill="#0E0E0E"/>
<path d="M22.6859 46.8403L26.6497 46.3039L26.6497 46.3039L22.6859 46.8403ZM61.8948 9L61.8948 5L61.8947 5L61.8948 9ZM11.0889 91.3582L14.2795 93.7707L14.2795 93.7707L11.0889 91.3582ZM71.8351 129.755L70.5336 125.973L70.5336 125.973L71.8351 129.755ZM98.7066 114.609L99.117 110.63C98.055 110.521 96.9932 110.84 96.1681 111.518L98.7066 114.609ZM102.767 111.648L98.8542 110.817L98.8542 110.817L102.767 111.648ZM102.919 110.93L100.199 107.998C99.5943 108.559 99.178 109.293 99.0067 110.099L102.919 110.93ZM106.645 107.273L109.424 104.396C108.66 103.658 107.634 103.254 106.572 103.274C105.51 103.293 104.5 103.734 103.764 104.499L106.645 107.273ZM109.126 109.669L111.904 106.791L111.904 106.791L109.126 109.669ZM111.409 111.873L108.63 114.751C110.219 116.285 112.751 116.241 114.286 114.652L111.409 111.873ZM119.744 103.242L122.621 106.02C123.358 105.257 123.762 104.233 123.743 103.172C123.725 102.111 123.286 101.101 122.523 100.364L119.744 103.242ZM117.461 101.037L114.682 103.915L114.682 103.915L117.461 101.037ZM114.401 98.0825L111.18 95.7109C109.992 97.3244 110.181 99.5679 111.623 100.96L114.401 98.0825ZM119.88 33.4847L122.839 30.793L122.839 30.793L119.88 33.4847ZM114.833 115.18L112.054 118.058C112.817 118.795 113.842 119.198 114.903 119.18C115.963 119.161 116.973 118.722 117.71 117.959L114.833 115.18ZM123.168 106.549L126.046 109.328C126.783 108.564 127.186 107.54 127.168 106.479C127.149 105.418 126.71 104.409 125.947 103.672L123.168 106.549ZM111.409 111.874L108.531 109.095C107.794 109.858 107.391 110.883 107.409 111.943C107.428 113.004 107.867 114.014 108.63 114.751L111.409 111.874ZM119.744 103.242L122.523 100.365C120.933 98.8302 118.401 98.8744 116.867 100.463L119.744 103.242ZM26.6497 46.3039C25.7274 39.4878 26.7302 34.1771 28.7547 30.0091C30.7904 25.8183 33.9814 22.5337 37.804 19.9923C45.5593 14.8364 55.5427 13 61.8948 13L61.8947 5C54.4409 5.00005 42.7884 7.07191 33.3749 13.3302C28.6132 16.4959 24.3367 20.7948 21.5588 26.5137C18.7697 32.2556 17.6129 39.1808 18.722 47.3767L26.6497 46.3039ZM14.2795 93.7707C20.0607 86.1247 24.2914 80.5298 26.3784 73.5901C28.482 66.5949 28.3177 58.6295 26.6497 46.3039L18.722 47.3767C20.3674 59.536 20.2952 66.039 18.7173 71.2862C17.1227 76.5888 13.8983 81.0104 7.89828 88.9458L14.2795 93.7707ZM70.5336 125.973C46.5737 134.217 30.0696 128.604 20.9472 119.977C16.3075 115.59 13.491 110.364 12.4547 105.525C11.4098 100.646 12.2184 96.4966 14.2795 93.7707L7.89828 88.9458C4.06882 94.0105 3.24379 100.718 4.63212 107.2C6.02916 113.724 9.71296 120.365 15.4507 125.79C27.0832 136.79 46.8428 142.585 73.1365 133.537L70.5336 125.973ZM96.1681 111.518C88.6631 117.68 80.002 122.715 70.5336 125.973L73.1365 133.537C83.5787 129.944 93.0667 124.416 101.245 117.7L96.1681 111.518ZM98.8542 110.817C98.8665 110.759 98.9056 110.704 98.9489 110.673C98.988 110.644 99.0485 110.623 99.117 110.63L98.2961 118.588C102.196 118.99 105.847 116.399 106.68 112.479L98.8542 110.817ZM99.0067 110.099L98.8542 110.817L106.68 112.479L106.832 111.761L99.0067 110.099ZM103.764 104.499C102.614 105.693 101.425 106.86 100.199 107.998L105.64 113.863C106.977 112.622 108.273 111.349 109.526 110.047L103.764 104.499ZM111.904 106.791L109.424 104.396L103.866 110.15L106.347 112.546L111.904 106.791ZM114.187 108.996L111.904 106.791L106.347 112.546L108.63 114.751L114.187 108.996ZM116.867 100.463L108.531 109.095L114.286 114.652L122.621 106.02L116.867 100.463ZM114.682 103.915L116.965 106.119L122.523 100.364L120.24 98.1598L114.682 103.915ZM111.623 100.96L114.682 103.915L120.24 98.1598L117.18 95.2051L111.623 100.96ZM116.921 36.1763C129.838 50.3761 126.749 74.5641 111.18 95.7109L117.623 100.454C134.029 78.1698 139.649 49.2721 122.839 30.793L116.921 36.1763ZM61.8948 13C73.567 13 98.5882 16.0236 116.921 36.1763L122.839 30.793C102.294 8.2085 74.521 5.00002 61.8948 5L61.8948 13ZM117.71 117.959L126.046 109.328L120.291 103.77L111.955 112.402L117.71 117.959ZM108.63 114.751L112.054 118.058L117.611 112.303L114.187 108.996L108.63 114.751ZM116.867 100.463L108.531 109.095L114.286 114.652L122.621 106.021L116.867 100.463ZM125.947 103.672L122.523 100.365L116.965 106.119L120.39 109.426L125.947 103.672Z" fill="white" mask="url(#path-1-outside-1_3614_1223)"/>
<path d="M61.8948 8C54.8541 8.00005 43.8275 9.9836 35.0358 15.8285C30.6263 18.7601 26.7568 22.6786 24.2572 27.8245C21.7549 32.9761 20.6558 39.2959 21.6949 46.9744C23.3488 59.1961 23.3653 66.2474 21.5902 72.1501C19.8109 78.0667 16.2092 82.9283 10.2912 90.7551C7.12493 94.9428 6.30603 100.691 7.5656 106.572C8.82735 112.464 12.1859 118.574 17.5119 123.61C28.2031 133.72 46.7419 139.447 72.1604 130.701C95.0676 122.819 113.349 105.238 122.845 86.2405C132.325 67.2753 133.164 46.6016 120.619 32.8118C100.904 11.1392 74.1632 8.00002 61.8948 8Z" fill="#7B80FD" stroke="black" stroke-width="2" stroke-linecap="round" stroke-linejoin="round"/>
<path d="M30 116.5C18 106.558 40.9154 96.3064 51.05 90.8157C62.354 89.1518 83.3331 87.6208 93 100C105.083 115.474 81.9259 119.852 74 116.5C51.05 106.793 37.7045 122.883 30 116.5Z" fill="white" fill-opacity="0.2"/>
<path d="M69.4999 19C77.4999 23.0062 73.4999 30.0001 63.9999 36.5001C51.9999 43 29.111 53.755 29.1111 38.0486C29.1112 28.0001 37.8688 20.5055 45.9999 17.6871C57 13.8743 63.9999 16.2457 69.4999 19Z" fill="white" fill-opacity="0.2"/>
<path d="M41.0813 34.607C40.541 34.4922 40.0101 34.8372 39.8954 35.3774L27.1097 95.5805C26.5634 98.1526 28.2057 100.681 30.7778 101.227L98.0989 115.524C100.671 116.07 103.199 114.428 103.745 111.856L116.531 51.6529C116.646 51.1127 116.301 50.5817 115.76 50.467L41.0813 34.607Z" fill="#F1F3F5" stroke="black" stroke-width="2" stroke-linejoin="round"/>
<path fill-rule="evenodd" clip-rule="evenodd" d="M47.0308 24.4635C44.9989 24.0319 43.002 25.3293 42.5705 27.3611L40.5491 36.8789L115.292 52.7525L117.314 43.2347C117.745 41.2029 116.448 39.2059 114.416 38.7744L47.0308 24.4635ZM57.5154 35.3755C59.1361 35.7197 60.729 34.6849 61.0732 33.0642C61.4174 31.4435 60.3826 29.8506 58.7619 29.5064C57.1412 29.1622 55.5483 30.197 55.2041 31.8177C54.8599 33.4384 55.8947 35.0313 57.5154 35.3755ZM71.6844 35.3177C71.3402 36.9384 69.7473 37.9732 68.1266 37.629C66.5059 37.2848 65.4711 35.692 65.8153 34.0713C66.1595 32.4505 67.7524 31.4157 69.3731 31.7599C70.9938 32.1041 72.0286 33.697 71.6844 35.3177ZM79.8648 40.1219C81.4855 40.4661 83.0784 39.4313 83.4226 37.8106C83.7668 36.1899 82.732 34.597 81.1113 34.2528C79.4906 33.9086 77.8977 34.9435 77.5535 36.5642C77.2093 38.1849 78.2441 39.7777 79.8648 40.1219ZM95.1608 40.3035C94.8166 41.9242 93.2237 42.959 91.603 42.6148C89.9823 42.2706 88.9475 40.6778 89.2917 39.0571C89.6359 37.4364 91.2288 36.4015 92.8495 36.7457C94.4702 37.0899 95.505 38.6828 95.1608 40.3035ZM102.363 44.9C103.984 45.2442 105.577 44.2094 105.921 42.5887C106.265 40.968 105.23 39.3751 103.61 39.0309C101.989 38.6867 100.396 39.7215 100.052 41.3422C99.7075 42.9629 100.742 44.5558 102.363 44.9Z" fill="#FA5252"/>
<path d="M115.085 53.7307L116.063 53.9384L116.27 52.9602L118.292 43.4425C118.838 40.8704 117.196 38.3425 114.624 37.7962L47.2385 23.4853C44.6664 22.939 42.1385 24.5813 41.5923 27.1534L39.571 36.6711L39.3632 37.6493L40.3414 37.8571L115.085 53.7307Z" stroke="black" stroke-width="2"/>
<rect x="57.968" y="22.8854" width="4" height="11" rx="2" transform="rotate(11.9901 57.968 22.8854)" fill="#212529"/>
<rect x="68.728" y="25.1706" width="4" height="11" rx="2" transform="rotate(11.9901 68.728 25.1706)" fill="#212529"/>
<rect x="80.4661" y="27.6635" width="4" height="11" rx="2" transform="rotate(11.9901 80.4661 27.6635)" fill="#212529"/>
<rect x="92.2043" y="30.1564" width="4" height="11" rx="2" transform="rotate(11.9901 92.2043 30.1564)" fill="#212529"/>
<rect x="102.964" y="32.4416" width="4" height="11" rx="2" transform="rotate(11.9901 102.964 32.4416)" fill="#212529"/>
<path d="M68.6211 52.1936L100.516 58.965" stroke="#8F8F8F" stroke-opacity="0.56" stroke-width="3.11379" stroke-linecap="round" stroke-linejoin="round"/>
<path d="M67.3596 58.1353L88.8497 62.6977" stroke="#8F8F8F" stroke-opacity="0.56" stroke-width="3.11379" stroke-linecap="round" stroke-linejoin="round"/>
<rect x="52.0886" y="47.1711" width="9.99917" height="9.99917" rx="1.88052" transform="rotate(11.9863 52.0886 47.1711)" fill="#51CF66"/>
<rect x="48.4319" y="64.394" width="9.99917" height="9.99917" rx="1.88052" transform="rotate(11.9863 48.4319 64.394)" fill="#51CF66"/>
<path d="M64.8726 69.8499L101.844 77.699" stroke="#8F8F8F" stroke-opacity="0.56" stroke-width="3.11379" stroke-linecap="round" stroke-linejoin="round"/>
<path d="M63.6111 75.7917L88.5216 81.0804" stroke="#8F8F8F" stroke-opacity="0.56" stroke-width="3.11379" stroke-linecap="round" stroke-linejoin="round"/>
<rect x="44.7676" y="81.6544" width="9.99917" height="9.99917" rx="1.88052" transform="rotate(11.9863 44.7676 81.6544)" fill="#51CF66"/>
<path d="M61.2083 87.1099L81.9345 91.5102" stroke="#8F8F8F" stroke-opacity="0.56" stroke-width="3.11379" stroke-linecap="round" stroke-linejoin="round"/>
<path d="M59.9468 93.052L90.3184 99.5001" stroke="#8F8F8F" stroke-opacity="0.56" stroke-width="3.11379" stroke-linecap="round" stroke-linejoin="round"/>
<path d="M52.2515 52.2419L54.1969 55.4869L60.3199 49.941" stroke="#3A3A3A" stroke-width="3.11379" stroke-linecap="round" stroke-linejoin="round"/>
<path d="M44.9226 86.7622L46.8681 90.0072L52.991 84.4613" stroke="#3A3A3A" stroke-width="3.11379" stroke-linecap="round" stroke-linejoin="round"/>
<circle cx="27.1558" cy="101.025" r="14.7879" transform="rotate(-19.1211 27.1558 101.025)" fill="#60ABF5" stroke="white" stroke-width="2.60963"/>
<path d="M25.1135 95.8571L27.3483 102.303L33.0275 104.865" stroke="#F8F9FA" stroke-width="2.77417" stroke-linecap="round"/>
<rect x="117.555" y="101.128" width="11.9996" height="45.2586" transform="rotate(134 117.555 101.128)" fill="#FFBD3E"/>
<rect x="117.555" y="101.128" width="3.42845" height="45.2586" transform="rotate(134 117.555 101.128)" fill="#FFD88C"/>
<rect x="111.602" y="107.294" width="3.42845" height="45.2586" transform="rotate(134 111.602 107.294)" fill="#FFBD3E"/>
<rect width="5.14267" height="45.2586" transform="matrix(0.694658 -0.71934 -0.71934 -0.694658 111.602 107.294)" fill="#FFCA63"/>
<path d="M117.555 101.128L109.22 109.76L111.464 111.927L119.799 103.295L117.555 101.128Z" fill="#F1F1F1"/>
<path d="M123.168 106.549L114.833 115.181L111.465 111.929L119.8 103.297L123.168 106.549Z" fill="#F0A6A6"/>
<path d="M72.2017 65.6713L76.6658 78.3233L85.0017 69.6912L72.2017 65.6713Z" fill="#FFBD3E"/>
<path d="M72.2019 65.6714L76.666 78.3234L76.6237 75.8994L79.0477 75.8571L79.6008 72.8165L82.6202 72.1576L82.5779 69.7336L85.0019 69.6913L72.2019 65.6714Z" fill="#FFF7E9"/>
<path d="M72.2104 65.6795L74.9997 66.5555L73.1832 68.4365L72.2104 65.6795Z" fill="#727272"/>
<path fill-rule="evenodd" clip-rule="evenodd" d="M75.2965 79.781C75.067 79.5654 74.888 79.2953 74.7798 78.9887L70.3157 66.3368C70.0636 65.6224 70.2368 64.8269 70.763 64.282C71.2893 63.7371 72.0782 63.5362 72.801 63.7632L74.401 64.2657L85.601 67.7831C85.9125 67.8809 86.1896 68.0514 86.4136 68.2746L121.191 101.858C121.2 101.868 121.21 101.877 121.219 101.886L124.558 105.11C125.352 105.878 125.374 107.144 124.607 107.938L116.271 116.57C115.504 117.365 114.238 117.387 113.443 116.619L110.075 113.367C110.066 113.358 110.056 113.348 110.047 113.339L75.2965 79.781ZM76.6662 78.3231L78.1046 79.7124L111.465 111.928L114.833 115.181L123.168 106.549L119.801 103.297L86.4404 71.0808L85.0017 69.6915L82.6202 72.1576L76.6662 78.3231ZM76.6662 78.3231L72.2017 65.6713L85.0017 69.6915L82.6202 72.1576L76.6662 78.3231Z" fill="black"/>
<path fill-rule="evenodd" clip-rule="evenodd" d="M21.5545 80.5228L22.1879 82.2632L23.0766 81.9397L24.4447 85.6985L18.8066 87.7506L17.4385 83.9918L18.4292 83.6312L17.7957 81.8908L21.5545 80.5228ZM31.5599 83.9194L26.6359 83.0512L26.115 86.0056L31.039 86.8738L31.5599 83.9194Z" fill="#FFD88C"/>
<path fill-rule="evenodd" clip-rule="evenodd" d="M22.2225 78.7555C22.7182 78.9705 23.1058 79.377 23.297 79.8824L23.3237 79.9528C23.539 79.9794 23.7506 80.0411 23.9497 80.1374C24.4361 80.3728 24.8066 80.7949 24.9768 81.3078L25.1838 81.9317C25.3242 81.7369 25.4998 81.567 25.704 81.4321C26.1513 81.1365 26.6985 81.0329 27.2229 81.1444L31.9511 82.1505C32.9003 82.3525 33.5496 83.1978 33.535 84.1356C38.342 85.9512 42.3437 89.8108 44.1604 95.0507C47.4074 104.416 42.4473 114.641 33.0815 117.888C23.7158 121.135 13.4911 116.175 10.244 106.809C7.63977 99.2976 10.3146 91.2375 16.3044 86.6633L15.6172 84.5926C15.3874 83.9002 15.557 83.1693 16.0033 82.653C15.6836 81.6653 16.1754 80.5881 17.1456 80.1889L20.6655 78.7407C21.1652 78.535 21.7268 78.5404 22.2225 78.7555ZM17.9066 82.0385L18.4992 83.6045L17.5154 83.9626L18.6728 87.4499C12.5492 91.3171 9.65904 99.0164 12.1337 106.154C15.0189 114.476 24.1043 118.884 32.4264 115.999C40.7485 113.113 45.156 104.028 42.2707 95.7059C40.4634 90.4927 36.223 86.8156 31.2613 85.5051L31.5349 84.1067L26.8067 83.1006L26.4358 84.9959C26.4249 84.9964 26.414 84.9969 26.403 84.9975C25.6653 85.0348 24.9239 85.1241 24.1838 85.2678L23.0786 81.9378L22.0746 82.3032L21.4265 80.5902L17.9066 82.0385Z" fill="black"/>
<circle cx="27.2335" cy="101.021" r="14.7009" transform="rotate(-19.1211 27.2335 101.021)" stroke="white" stroke-width="2.60963"/>
</svg>
