<svg width="140" height="140" viewBox="0 0 140 140" fill="none" xmlns="http://www.w3.org/2000/svg">
<path d="M40.3716 29.6273C40.0449 29.5509 39.715 29.4673 39.3818 29.3761C28.8989 26.5072 20.74 28.1399 14.9643 33.076C9.28227 37.932 6.28635 45.6691 5.33916 54.2585C3.44808 71.4075 9.57416 93.2234 21.1991 106.651C21.9094 107.472 22.658 108.272 23.4423 109.052C23.8011 109.714 24.3633 110.249 25.0471 110.573C35.9298 120.419 52.7868 126.703 70.1613 126.99C87.7222 127.279 106.035 121.442 119.381 106.684C121.946 103.847 124.185 100.86 126.113 97.7644H131.07C131.824 97.7644 132.514 97.3408 132.854 96.6686C133.195 95.9965 133.129 95.1899 132.684 94.5821L129.879 90.7552C137.224 74.6942 137.155 56.7781 131.646 42.214C126.016 27.3324 114.575 15.6853 99.2642 13.4225C85.3869 11.3716 75.5438 17.1899 66.7546 22.3852L66.6169 22.4666C59.0953 26.9124 52.501 30.7461 44.4063 30.2309L43.7854 29.3838C43.4133 28.876 42.8239 28.5731 42.1944 28.5662C41.565 28.5592 40.969 28.849 40.5857 29.3483L40.3716 29.6273Z" fill="#9E4E21" stroke="white" stroke-width="4" stroke-linecap="round" stroke-linejoin="round"/>
<path d="M99.118 14.4117C85.5912 12.4127 76.0144 18.0735 67.1957 23.2861L67.0537 23.3701C58.1424 28.6372 50.0715 33.3384 39.1179 30.3407C28.8666 27.5351 21.0756 29.1686 15.6141 33.8362C10.1993 38.4638 7.26538 45.9144 6.33316 54.3682C4.47036 71.2607 10.5254 92.7943 21.9552 105.997C31.6658 117.213 48.9217 124.838 67.141 125.878C85.387 126.92 104.756 121.366 118.64 106.013C133.547 89.5276 137.219 67.9294 132.929 49.8309C128.646 31.7601 116.35 16.9583 99.118 14.4117Z" fill="#295A76" stroke="black" stroke-width="2"/>
<circle cx="91.0566" cy="27.4528" r="8.26415" fill="#FFE24D" stroke="black" stroke-width="2"/>
<path d="M92.6872 41.2619C94.1541 42.7288 100.617 42.8185 102.027 41.2619C106.428 42.7288 109.291 41.7807 110.848 40.743C112.404 39.7053 112.923 38.1487 111.885 37.1109C110.146 35.3713 107.4 35.7065 106.178 36.0732C105.933 35.3398 103.917 33.6935 100.617 32.96C96.516 32.0488 90.8262 33.2019 90.0928 35.0355C84.9041 35.0355 85.3293 39.6428 86.9796 40.743C88.6299 41.8432 90.9757 41.7508 92.6872 41.2619Z" fill="#8EB5CB"/>
<path fill-rule="evenodd" clip-rule="evenodd" d="M92.294 43.4086C90.3856 43.7741 87.878 43.7456 85.8702 42.4071L85.8702 42.4071C84.9844 41.8166 84.4264 40.8912 84.1383 40.0058C83.8418 39.0944 83.7621 38.0244 84.0363 36.9724C84.3181 35.8908 84.9704 34.8562 86.0648 34.116C86.8953 33.5542 87.8988 33.2159 89.0428 33.0908C89.5193 32.6116 90.0849 32.267 90.5726 32.0221C91.4811 31.566 92.5733 31.2316 93.7014 31.007C95.9483 30.5595 98.6814 30.4812 101.05 31.0077C102.921 31.4233 104.463 32.1047 105.607 32.823C106.135 33.1548 106.6 33.508 106.98 33.866C107.59 33.7838 108.282 33.7491 109.003 33.8091C110.363 33.9221 111.993 34.3898 113.3 35.6967C114.37 36.7671 114.648 38.1917 114.255 39.5016C113.891 40.7158 113.004 41.709 111.957 42.4071C110.007 43.7068 106.824 44.6754 102.377 43.4579C101.788 43.7673 101.156 43.9539 100.621 44.0753C99.611 44.3044 98.4675 44.4019 97.3669 44.3957C96.2648 44.3894 95.1262 44.2787 94.1221 44.0495C93.5578 43.9207 92.8998 43.7256 92.294 43.4086ZM102.027 41.2619C100.617 42.8185 94.1541 42.7288 92.6872 41.2619C90.9758 41.7508 88.6299 41.8432 86.9796 40.743C85.3294 39.6428 84.9041 35.0355 90.0928 35.0355C90.8263 33.2019 96.516 32.0488 100.617 32.96C103.917 33.6935 105.933 35.3398 106.178 36.0732C107.4 35.7065 110.146 35.3713 111.885 37.1109C112.923 38.1487 112.404 39.7053 110.848 40.743C109.291 41.7807 106.428 42.7288 102.027 41.2619Z" fill="black"/>
<path d="M111.063 91.3921V107.87" stroke="black" stroke-width="2" stroke-linecap="round" stroke-linejoin="round"/>
<mask id="mask0_3614_3306" style="mask-type:alpha" maskUnits="userSpaceOnUse" x="7" y="15" width="127" height="110">
<path d="M98.9718 15.401C72.5483 11.496 61.6764 37.5511 38.8539 31.3052C-1.22468 20.3367 0.241933 79.3882 22.7112 105.342C41.7027 127.279 90.6221 135.505 117.898 105.342C147.223 72.9127 132.371 20.3369 98.9718 15.401Z" fill="#FDFF97"/>
</mask>
<g mask="url(#mask0_3614_3306)">
<path fill-rule="evenodd" clip-rule="evenodd" d="M66.7519 22.3867C75.5415 17.1909 85.386 11.3715 99.2641 13.4225C117.028 16.0477 129.559 31.2733 133.902 49.6002C138.259 67.9826 134.533 89.9278 119.381 106.684C105.253 122.308 85.5627 127.931 67.0838 126.876C48.6586 125.825 31.1246 118.116 21.199 106.651C9.57405 93.2234 3.44797 71.4075 5.33904 54.2585C6.28623 45.6691 9.28215 37.932 14.9642 33.076C20.7399 28.1399 28.8988 26.5072 39.3817 29.3761C49.8777 32.2486 57.5959 27.7985 66.5447 22.5092L66.7519 22.3867ZM67.6344 24.1883C76.4866 18.9561 85.7957 13.4538 98.9717 15.401C132.37 20.3369 147.223 72.9127 117.898 105.342C90.622 135.505 41.7026 127.279 22.7111 105.342C0.241819 79.3882 -1.2248 20.3367 38.8538 31.3052C50.2959 34.4366 58.7342 29.449 67.6344 24.1883Z" fill="black"/>
<path d="M77.5662 106.422C65.4228 92.2589 29.6914 90.1889 12.1888 99.6583L14.7627 126.038L77.5662 106.422Z" fill="#4CB65D"/>
<path fill-rule="evenodd" clip-rule="evenodd" d="M11.2371 97.8993C10.5294 98.2821 10.1201 99.0518 10.1982 99.8525L12.7721 126.232C12.8306 126.831 13.1558 127.372 13.6576 127.705C14.1594 128.037 14.7843 128.126 15.3589 127.947L78.1624 108.331C78.8045 108.131 79.3028 107.621 79.4884 106.974C79.6741 106.328 79.5223 105.631 79.0845 105.12C72.495 97.4348 59.8655 93.3043 47.0613 92.1856C34.1921 91.0612 20.4507 92.9144 11.2371 97.8993ZM76.027 104.808C62.6413 92.1139 29.0032 90.5612 12.1888 99.6583L14.7627 126.038L77.5661 106.422C77.0887 105.865 76.5748 105.327 76.027 104.808Z" fill="black"/>
<path d="M15 128C51.7456 102.036 99.8728 85.5924 148 128L112.915 128L15 128Z" fill="#69DB7C"/>
<path fill-rule="evenodd" clip-rule="evenodd" d="M149.871 128.707C149.577 129.485 148.832 130 148 130L15.0001 130C14.1288 130 13.3578 129.436 13.094 128.605C12.8302 127.775 13.1344 126.869 13.846 126.367C32.3643 113.282 53.9202 102.469 77.0512 100.369C100.27 98.2609 124.87 104.953 149.322 126.499C149.947 127.049 150.165 127.928 149.871 128.707ZM15.0001 128L148 128C147.226 127.318 146.453 126.651 145.679 126C99.5764 87.1747 53.6419 101.632 17.8818 126C16.9137 126.66 15.9531 127.327 15.0001 128Z" fill="black"/>
</g>
<path d="M99.118 14.4117C85.5911 12.4127 76.0144 18.0735 67.1957 23.2861L67.0537 23.3701C58.1424 28.6372 50.0715 33.3384 39.1179 30.3406C28.8666 27.5351 21.0756 29.1686 15.614 33.8362C10.1993 38.4638 7.26535 45.9144 6.33313 54.3681C4.47034 71.2607 10.5254 92.7943 21.9552 105.997C31.6658 117.213 48.9217 124.838 67.1409 125.878C85.387 126.92 104.756 121.366 118.64 106.013C133.547 89.5276 137.219 67.9294 132.929 49.8309C128.646 31.7601 116.35 16.9583 99.118 14.4117Z" stroke="black" stroke-width="2"/>
<path d="M32.9433 52.8774L32.9433 52.8774C39.1697 54.9528 46.4339 51.8396 47.9905 50.8019C49.5471 49.7642 48.9973 47.6732 46.9527 46.6509C43.8395 45.0943 39.3427 45.0943 37.6131 45.6132C37.2672 44.5755 34.4999 40.4245 29.8301 39.3868C24.0284 38.0975 21.0093 41.4623 19.9716 44.0566C12.1886 43.5377 10.8914 49.2453 13.2263 50.8019C15.5612 52.3585 19.1068 52.5314 21.5282 51.8396C23.6037 53.9151 29.83 53.2233 32.9433 52.8774Z" fill="#CCEDFF" fill-opacity="0.62"/>
<path fill-rule="evenodd" clip-rule="evenodd" d="M32.9434 52.8774L32.9433 52.8774C29.8301 53.2233 23.6037 53.9151 21.5283 51.8396C19.1069 52.5314 15.5613 52.3585 13.2264 50.8019C10.8915 49.2453 12.1886 43.5377 19.9717 44.0566C21.0094 41.4623 24.0284 38.0975 29.8302 39.3868C34.5 40.4245 37.2673 44.5755 37.6132 45.6132C39.3427 45.0943 43.8396 45.0943 46.9528 46.6509C48.9973 47.6732 49.5471 49.7642 47.9905 50.8019C46.4339 51.8396 39.1698 54.9528 32.9434 52.8774ZM38.6746 43.3904C38.6347 43.3305 38.5942 43.2708 38.5531 43.2113C38.1044 42.5621 37.4997 41.8159 36.7456 41.0741C35.247 39.6001 33.0683 38.0576 30.264 37.4344C26.892 36.6851 24.1443 37.2654 22.0557 38.5685C20.5454 39.5109 19.4632 40.7779 18.7418 42.0263C15.0867 42.0908 12.4782 43.4702 11.1247 45.5659C9.71954 47.7417 9.76982 50.9012 12.117 52.466L13.2264 50.8019L12.117 52.466C14.729 54.2074 18.3188 54.5152 21.0698 53.9991C21.7724 54.4276 22.5507 54.6952 23.2833 54.8709C24.4007 55.1388 25.6285 55.243 26.8074 55.2661C28.9591 55.3083 31.1989 55.0816 32.7443 54.9116C36.2106 55.9473 39.811 55.6202 42.6712 54.9551C45.6321 54.2665 48.0748 53.1494 49.0999 52.466L47.9905 50.8019L49.0999 52.466C50.5981 51.4672 51.1637 49.8134 50.7604 48.2276C50.3873 46.7606 49.2629 45.5699 47.8472 44.8621C45.979 43.928 43.7968 43.5006 41.9137 43.3594C40.7781 43.2742 39.6513 43.2861 38.6746 43.3904Z" fill="black"/>
<path fill-rule="evenodd" clip-rule="evenodd" d="M111.415 38.7718L95.8259 59.083H102.923L94.3612 69.5938H103.469L93.2627 81.3509H102.119L91.0566 95.7644H131.07L120.507 81.3509H128.864L119.118 69.5938H127.766L119.59 59.083H126.301L111.415 38.7718Z" fill="#69DB7C"/>
<path fill-rule="evenodd" clip-rule="evenodd" d="M95.8259 59.083L111.415 38.7718L112.853 40.7335L98.7693 59.083H95.8259ZM102.923 59.083L94.3612 69.5938H97.3046L105.866 59.083H102.923ZM103.469 69.5938L93.2627 81.3509H96.206L106.413 69.5938H103.469ZM102.119 81.3509L91.0566 95.7644H94L105.063 81.3509H102.119Z" fill="#4DCC62"/>
<path fill-rule="evenodd" clip-rule="evenodd" d="M94.0321 59.9674C93.6953 59.2844 93.7757 58.4694 94.2393 57.8652L109.829 37.5541C110.212 37.0548 110.808 36.765 111.437 36.772C112.067 36.7789 112.656 37.0818 113.028 37.5896L127.914 57.9007C128.36 58.5085 128.426 59.3151 128.085 59.9872C127.744 60.6594 127.055 61.083 126.301 61.083H123.68L129.344 68.3659C129.813 68.9688 129.898 69.7862 129.562 70.4725C129.227 71.1587 128.53 71.5938 127.766 71.5938H123.374L130.404 80.0745C130.899 80.6712 131.004 81.5 130.674 82.2015C130.345 82.903 129.639 83.3509 128.864 83.3509H124.452L132.684 94.5821C133.129 95.1899 133.195 95.9965 132.854 96.6687C132.514 97.3408 131.824 97.7644 131.07 97.7644H91.0567C90.2951 97.7644 89.5996 97.3319 89.2629 96.6489C88.9261 95.9658 89.0064 95.1508 89.4701 94.5467L98.0631 83.3509H93.2627C92.4793 83.3509 91.7681 82.8936 91.443 82.1809C91.1179 81.4682 91.2389 80.6313 91.7524 80.0398L99.0845 71.5938H94.3612C93.5892 71.5938 92.8862 71.1495 92.5548 70.4522C92.2235 69.7549 92.323 68.9292 92.8105 68.3307L98.7141 61.083H95.8259C95.0644 61.083 94.3689 60.6505 94.0321 59.9674ZM102.923 59.083L94.3612 69.5938H103.469L93.2627 81.3509H102.119L91.0567 95.7644H131.07L120.507 81.3509H128.864L119.118 69.5938H127.766L119.59 59.083H126.301L111.415 38.7718L95.8259 59.083H102.923Z" fill="black"/>
<path d="M67.1364 72.6553C67.1364 81.1568 63.2382 88.0486 58.4295 88.0486C53.6208 88.0486 49.7227 81.1568 49.7227 72.6553C49.7227 64.1537 53.6208 57.2619 58.4295 57.2619C63.2382 57.2619 67.1364 64.1537 67.1364 72.6553Z" fill="#0CA678"/>
<path fill-rule="evenodd" clip-rule="evenodd" d="M66.327 84.5247C64.5864 87.602 61.8717 90.0486 58.4295 90.0486C54.9874 90.0486 52.2726 87.602 50.532 84.5247C48.7572 81.3868 47.7227 77.1862 47.7227 72.6553C47.7227 68.1243 48.7572 63.9237 50.532 60.7859C52.2726 57.7085 54.9874 55.2619 58.4295 55.2619C61.8717 55.2619 64.5864 57.7085 66.327 60.7859C68.1018 63.9237 69.1364 68.1243 69.1364 72.6553C69.1364 77.1862 68.1018 81.3868 66.327 84.5247ZM58.4295 88.0486C63.2382 88.0486 67.1364 81.1568 67.1364 72.6553C67.1364 64.1537 63.2382 57.2619 58.4295 57.2619C53.6208 57.2619 49.7227 64.1537 49.7227 72.6553C49.7227 81.1568 53.6208 88.0486 58.4295 88.0486Z" fill="black"/>
<path fill-rule="evenodd" clip-rule="evenodd" d="M58.9985 87.4002C59.5508 87.4002 59.9985 87.8479 59.9985 88.4002L59.9985 98.5378C59.9985 99.0901 59.5508 99.5378 58.9985 99.5378C58.4463 99.5378 57.9985 99.0901 57.9985 98.5378L57.9985 88.4002C57.9985 87.8479 58.4463 87.4002 58.9985 87.4002Z" fill="black"/>
<path fill-rule="evenodd" clip-rule="evenodd" d="M41.7844 87.6449C42.3367 87.6449 42.7844 88.0926 42.7844 88.6449V106.832C42.7844 107.384 42.3367 107.832 41.7844 107.832C41.2321 107.832 40.7844 107.384 40.7844 106.832V88.6449C40.7844 88.0926 41.2321 87.6449 41.7844 87.6449Z" fill="black"/>
<path fill-rule="evenodd" clip-rule="evenodd" d="M42.1722 30.566L24.9659 52.9842H32.7989L23.3492 64.5853H33.4021L22.1368 77.5621H31.9122L19.7019 93.4709H63.8667L52.2071 77.5621H61.4315L50.6743 64.5853H60.2191L51.1957 52.9842H58.6025L42.1722 30.566Z" fill="#69DB7C"/>
<path fill-rule="evenodd" clip-rule="evenodd" d="M40.2786 33.0333L42.1722 30.566L58.6025 52.9842H54.9006L40.2786 33.0333ZM51.1957 52.9842H47.4938L56.5172 64.5853H60.2191L51.1957 52.9842ZM50.6743 64.5853H46.9724L57.7296 77.5621H61.4315L50.6743 64.5853ZM52.2071 77.5621H48.5052L60.1647 93.4709H63.8666L52.2071 77.5621Z" fill="#52BF64"/>
<path fill-rule="evenodd" clip-rule="evenodd" d="M23.1721 53.8687C22.8353 53.1856 22.9157 52.3706 23.3793 51.7665L40.5857 29.3483C40.969 28.849 41.565 28.5592 42.1944 28.5662C42.8239 28.5731 43.4133 28.876 43.7854 29.3838L60.2157 51.8019C60.6611 52.4097 60.7271 53.2163 60.3864 53.8885C60.0457 54.5606 59.3561 54.9842 58.6025 54.9842H55.2851L61.7978 63.3574C62.2668 63.9604 62.3514 64.7778 62.0158 65.464C61.6802 66.1502 60.983 66.5853 60.2191 66.5853H54.9301L62.9713 76.2857C63.466 76.8824 63.5713 77.7113 63.2416 78.4128C62.912 79.1143 62.2067 79.5621 61.4316 79.5621H56.1525L65.4798 92.2886C65.9253 92.8964 65.9913 93.703 65.6506 94.3752C65.3098 95.0473 64.6202 95.4709 63.8667 95.4709H19.7019C18.9404 95.4709 18.2449 95.0384 17.9081 94.3554C17.5713 93.6723 17.6517 92.8573 18.1154 92.2532L27.856 79.5621H22.1368C21.3534 79.5621 20.6422 79.1048 20.3171 78.3921C19.992 77.6794 20.113 76.8425 20.6265 76.251L29.0174 66.5853H23.3493C22.5773 66.5853 21.8742 66.141 21.5429 65.4438C21.2115 64.7465 21.311 63.9208 21.7986 63.3222L28.5903 54.9842H24.9659C24.2044 54.9842 23.5089 54.5517 23.1721 53.8687ZM32.7989 52.9842L23.3493 64.5853H33.4021L22.1368 77.5621H31.9122L19.7019 93.4709H63.8667L52.2071 77.5621H61.4316L50.6743 64.5853H60.2191L51.1957 52.9842H58.6025L42.1723 30.566L24.9659 52.9842H32.7989Z" fill="black"/>
<path fill-rule="evenodd" clip-rule="evenodd" d="M83.7959 90.2995C84.3482 90.2995 84.7959 90.7472 84.7959 91.2995V103.323C84.7959 103.875 84.3482 104.323 83.7959 104.323C83.2436 104.323 82.7959 103.875 82.7959 103.323V91.2995C82.7959 90.7472 83.2436 90.2995 83.7959 90.2995Z" fill="black"/>
<path fill-rule="evenodd" clip-rule="evenodd" d="M83.1596 55.4016L72.4678 69.332H77.335L71.4632 76.5407H77.71L70.7099 84.6043H76.7842L69.1968 94.4899H96.6403L89.3951 84.6043H95.1273L88.4429 76.5407H94.3737L88.7668 69.332H93.3692L83.1596 55.4016Z" fill="#0C8599"/>
<path fill-rule="evenodd" clip-rule="evenodd" d="M70.674 70.2164C70.3372 69.5334 70.4175 68.7184 70.8812 68.1143L81.5731 54.1838C81.9563 53.6845 82.5523 53.3947 83.1818 53.4017C83.8112 53.4086 84.4007 53.7116 84.7728 54.2193L94.9824 68.1497C95.4279 68.7575 95.4939 69.5641 95.1531 70.2363C94.8124 70.9084 94.1228 71.332 93.3692 71.332H92.8561L95.9524 75.3128C96.4214 75.9157 96.506 76.7332 96.1704 77.4194C95.8348 78.1056 95.1376 78.5407 94.3737 78.5407H92.6986L96.667 83.3279C97.1617 83.9246 97.267 84.7534 96.9374 85.4549C96.6077 86.1564 95.9024 86.6043 95.1273 86.6043H93.3406L98.2535 93.3077C98.6989 93.9155 98.765 94.7221 98.4242 95.3942C98.0835 96.0664 97.3939 96.4899 96.6403 96.4899H69.1968C68.4352 96.4899 67.7398 96.0574 67.403 95.3744C67.0662 94.6914 67.1466 93.8764 67.6102 93.2722L72.728 86.6043H70.7099C69.9265 86.6043 69.2153 86.147 68.8902 85.4343C68.5652 84.7216 68.6861 83.8847 69.1996 83.2932L73.3253 78.5407H71.4632C70.6912 78.5407 69.9881 78.0964 69.6568 77.3991C69.3254 76.7019 69.4249 75.8761 69.9125 75.2776L73.1264 71.332H72.4678C71.7062 71.332 71.0108 70.8995 70.674 70.2164ZM77.335 69.332L71.4632 76.5407H77.71L70.7099 84.6043H76.7842L69.1968 94.4899H96.6403L89.3952 84.6043H95.1273L88.4429 76.5407H94.3737L88.7668 69.332H93.3692L83.1596 55.4016L72.4678 69.332H77.335Z" fill="black"/>
<g style="mix-blend-mode:multiply">
<path d="M84.5777 78.6124C84.0834 69.962 85.7866 63.9761 87.1727 61.4689L93.6719 66.0436L96.1108 92.6732L88.9441 93.7713C87.8501 91.7634 85.0281 86.4937 84.5777 78.6124Z" fill="#DEE2E6"/>
</g>
<path d="M114.318 75.5855C114.318 88.6812 108.314 99.2974 100.906 99.2974C93.4991 99.2974 87.4944 88.6812 87.4944 75.5855C87.4944 62.4899 93.4991 51.8737 100.906 51.8737C108.314 51.8737 114.318 62.4899 114.318 75.5855Z" fill="#40C057"/>
<path fill-rule="evenodd" clip-rule="evenodd" d="M102.659 52.0744C96.0802 53.5926 91 63.5402 91 75.5855C91 87.6309 96.0802 97.5785 102.659 99.0967C102.086 99.2291 101.5 99.2974 100.906 99.2974C93.4991 99.2974 87.4944 88.6812 87.4944 75.5855C87.4944 62.4899 93.4991 51.8737 100.906 51.8737C101.5 51.8737 102.086 51.942 102.659 52.0744Z" fill="#33B64B"/>
<path fill-rule="evenodd" clip-rule="evenodd" d="M112.131 93.337C109.539 97.9197 105.648 101.297 100.906 101.297C96.1649 101.297 92.2739 97.9197 89.6818 93.337C87.0556 88.6938 85.4944 82.4136 85.4944 75.5855C85.4944 68.7575 87.0556 62.4773 89.6818 57.8341C92.2739 53.2514 96.1649 49.8737 100.906 49.8737C105.648 49.8737 109.539 53.2514 112.131 57.8341C114.757 62.4773 116.318 68.7575 116.318 75.5855C116.318 82.4136 114.757 88.6938 112.131 93.337ZM100.906 99.2974C108.314 99.2974 114.318 88.6812 114.318 75.5855C114.318 62.4899 108.314 51.8737 100.906 51.8737C93.4991 51.8737 87.4944 62.4899 87.4944 75.5855C87.4944 88.6812 93.4991 99.2974 100.906 99.2974Z" fill="black"/>
<path fill-rule="evenodd" clip-rule="evenodd" d="M100.881 72.4685C101.433 72.4546 101.892 72.8909 101.906 73.443L102.783 108.217C102.797 108.769 102.36 109.228 101.808 109.242C101.256 109.256 100.797 108.819 100.783 108.267L99.9068 73.4934C99.8929 72.9413 100.329 72.4824 100.881 72.4685Z" fill="black"/>
<g style="mix-blend-mode:multiply">
<path d="M39.7771 80.2281C39.1292 73.1955 34.5884 67.8125 32.3989 66L27 71.5281L32.3989 95H38.9674C39.5073 93.0062 40.4251 87.2606 39.7771 80.2281Z" fill="#DEE2E6"/>
</g>
<path d="M37.1288 86.0608C37.1288 96.3704 32.4016 104.728 26.5703 104.728C20.7389 104.728 16.0117 96.3704 16.0117 86.0608C16.0117 75.7513 20.7389 67.3937 26.5703 67.3937C32.4016 67.3937 37.1288 75.7513 37.1288 86.0608Z" fill="#8CE99A"/>
<path fill-rule="evenodd" clip-rule="evenodd" d="M25.5645 104.644C30.924 103.749 35.1171 95.7706 35.1171 86.0608C35.1171 76.3511 30.924 68.3728 25.5645 67.4773C25.8955 67.422 26.231 67.3937 26.5703 67.3937C32.4016 67.3937 37.1289 75.7513 37.1289 86.0608C37.1289 96.3704 32.4016 104.728 26.5703 104.728C26.231 104.728 25.8955 104.7 25.5645 104.644Z" fill="#6AC878"/>
<path fill-rule="evenodd" clip-rule="evenodd" d="M35.7771 100.245C33.7014 103.915 30.5237 106.728 26.5703 106.728C22.6168 106.728 19.4391 103.915 17.3634 100.245C15.2535 96.5149 14.0117 91.4958 14.0117 86.0608C14.0117 80.6258 15.2535 75.6068 17.3634 71.8765C19.4391 68.2068 22.6168 65.3937 26.5703 65.3937C30.5237 65.3937 33.7014 68.2068 35.7771 71.8765C37.887 75.6068 39.1288 80.6258 39.1288 86.0608C39.1288 91.4958 37.887 96.5149 35.7771 100.245ZM26.5703 104.728C32.4016 104.728 37.1288 96.3704 37.1288 86.0608C37.1288 75.7513 32.4016 67.3937 26.5703 67.3937C20.7389 67.3937 16.0117 75.7513 16.0117 86.0608C16.0117 96.3704 20.7389 104.728 26.5703 104.728Z" fill="black"/>
<path fill-rule="evenodd" clip-rule="evenodd" d="M26.5702 87.1605C27.1225 87.1605 27.5702 87.6082 27.5702 88.1605L27.5702 107.358C27.5702 107.911 27.1225 108.358 26.5702 108.358C26.018 108.358 25.5702 107.911 25.5702 107.358L25.5702 88.1605C25.5702 87.6082 26.0179 87.1605 26.5702 87.1605Z" fill="black"/>
</svg>
