<svg width="140" height="140" viewBox="0 0 140 140" fill="none" xmlns="http://www.w3.org/2000/svg">
<mask id="path-1-outside-1_3614_2369" maskUnits="userSpaceOnUse" x="8" y="10" width="125" height="124" fill="black">
<rect fill="white" x="8" y="10" width="125" height="124"/>
<path fill-rule="evenodd" clip-rule="evenodd" d="M113.386 106.765C108.431 112.907 102.227 117.999 95.1609 121.655C95.387 122.863 94.4662 124 93.2236 124H90.0175C83.514 126.581 76.4227 128 69 128C64.48 128 60.0829 127.474 55.8665 126.48L55.6573 129.766L52.5032 125.576C51.8318 125.374 51.1657 125.159 50.5051 124.932L46.1828 124.657L47.3794 123.757C26.6203 115.24 12 94.8275 12 71C12 57.6182 16.6114 45.3135 24.3317 35.5881L19.9234 31.0445L22.0766 28.9555L25.8511 32.8459L29.6256 28.9555L30.7499 27.7966L31.2165 28.3212C41.2746 19.4101 54.5055 14 69 14C88.1056 14 105.016 23.3999 115.358 37.8273L116.043 37.8013L119.617 33.299L119.835 39.0432L124.337 42.6171L118.593 42.8347L118.578 42.854C123.302 51.1575 126 60.7636 126 71C126 75.0332 125.581 78.9687 124.784 82.7651H124.9C127.109 82.7651 128.9 84.556 128.9 86.7651V102.765C128.9 104.974 127.109 106.765 124.9 106.765H113.386Z"/>
</mask>
<path fill-rule="evenodd" clip-rule="evenodd" d="M113.386 106.765C108.431 112.907 102.227 117.999 95.1609 121.655C95.387 122.863 94.4662 124 93.2236 124H90.0175C83.514 126.581 76.4227 128 69 128C64.48 128 60.0829 127.474 55.8665 126.48L55.6573 129.766L52.5032 125.576C51.8318 125.374 51.1657 125.159 50.5051 124.932L46.1828 124.657L47.3794 123.757C26.6203 115.24 12 94.8275 12 71C12 57.6182 16.6114 45.3135 24.3317 35.5881L19.9234 31.0445L22.0766 28.9555L25.8511 32.8459L29.6256 28.9555L30.7499 27.7966L31.2165 28.3212C41.2746 19.4101 54.5055 14 69 14C88.1056 14 105.016 23.3999 115.358 37.8273L116.043 37.8013L119.617 33.299L119.835 39.0432L124.337 42.6171L118.593 42.8347L118.578 42.854C123.302 51.1575 126 60.7636 126 71C126 75.0332 125.581 78.9687 124.784 82.7651H124.9C127.109 82.7651 128.9 84.556 128.9 86.7651V102.765C128.9 104.974 127.109 106.765 124.9 106.765H113.386Z" fill="#FFF4E6"/>
<path d="M95.1609 121.655L93.3225 118.103C91.7551 118.914 90.9045 120.656 91.2292 122.391L95.1609 121.655ZM113.386 106.765V102.765C112.176 102.765 111.032 103.312 110.272 104.253L113.386 106.765ZM90.0175 124V120C89.5122 120 89.0115 120.096 88.5419 120.282L90.0175 124ZM55.8665 126.48L56.7846 122.586C55.6382 122.316 54.431 122.565 53.4847 123.266C52.5384 123.967 51.9494 125.05 51.8746 126.226L55.8665 126.48ZM55.6573 129.766L52.4616 132.172C53.4682 133.509 55.201 134.078 56.8044 133.598C58.4079 133.118 59.543 131.691 59.6493 130.02L55.6573 129.766ZM52.5032 125.576L55.699 123.171C55.1876 122.491 54.4731 121.993 53.6591 121.747L52.5032 125.576ZM50.5051 124.932L51.8023 121.149C51.4654 121.033 51.1145 120.963 50.7591 120.94L50.5051 124.932ZM46.1828 124.657L43.7771 121.462C42.4399 122.468 41.8708 124.201 42.3508 125.804C42.8308 127.408 44.2584 128.543 45.9288 128.649L46.1828 124.657ZM47.3794 123.757L49.785 126.952C50.934 126.087 51.5302 124.672 51.3467 123.246C51.1631 121.82 50.2281 120.602 48.8976 120.056L47.3794 123.757ZM24.3317 35.5881L27.4646 38.0751C28.7139 36.5013 28.6018 34.245 27.2026 32.8028L24.3317 35.5881ZM19.9234 31.0445L17.1381 28.1736C15.5525 29.7119 15.5143 32.2443 17.0526 33.8298L19.9234 31.0445ZM22.0766 28.9555L24.9474 26.1701C23.4091 24.5846 20.8768 24.5463 19.2912 26.0846L22.0766 28.9555ZM25.8511 32.8459L22.9802 35.6312C23.7335 36.4077 24.7692 36.8459 25.8511 36.8459C26.9329 36.8459 27.9686 36.4077 28.7219 35.6312L25.8511 32.8459ZM29.6256 28.9555L32.4964 31.7408L29.6256 28.9555ZM30.7499 27.7966L33.7389 25.1384C32.9999 24.3075 31.9484 23.8217 30.8367 23.7976C29.7249 23.7734 28.6534 24.2132 27.8791 25.0113L30.7499 27.7966ZM31.2165 28.3212L28.2275 30.9795C29.6937 32.628 32.2177 32.7782 33.869 31.3152L31.2165 28.3212ZM115.358 37.8273L112.107 40.1577C112.89 41.2493 114.167 41.8753 115.51 41.8244L115.358 37.8273ZM116.043 37.8013L116.195 41.7984C117.361 41.7542 118.45 41.2026 119.176 40.2882L116.043 37.8013ZM119.617 33.299L123.614 33.1475C123.551 31.475 122.453 30.0187 120.862 29.4977C119.271 28.9767 117.525 29.5012 116.484 30.8121L119.617 33.299ZM119.835 39.0432L115.838 39.1947C115.882 40.3613 116.433 41.4503 117.348 42.1762L119.835 39.0432ZM124.337 42.6171L124.489 46.6142C126.161 46.5508 127.617 45.4527 128.138 43.8621C128.659 42.2715 128.135 40.5247 126.824 39.4841L124.337 42.6171ZM118.593 42.8347L118.441 38.8376C117.275 38.8818 116.186 39.4335 115.46 40.3479L118.593 42.8347ZM118.578 42.854L115.445 40.3672C114.43 41.6459 114.294 43.4131 115.101 44.8321L118.578 42.854ZM124.784 82.7651L120.87 81.9436C120.622 83.1229 120.92 84.3509 121.679 85.2864C122.439 86.2219 123.579 86.7651 124.784 86.7651V82.7651ZM96.9993 125.208C104.562 121.294 111.199 115.846 116.499 109.277L110.272 104.253C105.663 109.967 99.8921 114.703 93.3225 118.103L96.9993 125.208ZM93.2236 128C97.016 128 99.7709 124.544 99.0926 120.919L91.2292 122.391C91.0031 121.183 91.9164 120 93.2236 120V128ZM90.0175 128H93.2236V120H90.0175V128ZM69 132C76.9362 132 84.5277 130.482 91.4931 127.718L88.5419 120.282C82.5002 122.68 75.9091 124 69 124V132ZM54.9484 130.373C59.4634 131.438 64.1686 132 69 132V124C64.7914 124 60.7023 123.51 56.7846 122.586L54.9484 130.373ZM59.6493 130.02L59.8584 126.734L51.8746 126.226L51.6654 129.512L59.6493 130.02ZM49.3074 127.982L52.4616 132.172L58.8531 127.361L55.699 123.171L49.3074 127.982ZM49.2078 128.716C49.9152 128.959 50.6284 129.189 51.3473 129.406L53.6591 121.747C53.0353 121.559 52.4162 121.359 51.8023 121.149L49.2078 128.716ZM45.9288 128.649L50.251 128.924L50.7591 120.94L46.4368 120.665L45.9288 128.649ZM44.9738 120.561L43.7771 121.462L48.5884 127.853L49.785 126.952L44.9738 120.561ZM8 71C8 96.5058 23.6529 118.346 45.8612 127.457L48.8976 120.056C29.5877 112.134 16 93.1491 16 71H8ZM21.1988 33.1011C12.9372 43.5084 8 56.6831 8 71H16C16 58.5533 20.2856 47.1185 27.4646 38.0751L21.1988 33.1011ZM27.2026 32.8028L22.7943 28.2592L17.0526 33.8298L21.4608 38.3735L27.2026 32.8028ZM22.7088 33.9154L24.8619 31.8264L19.2912 26.0846L17.1381 28.1736L22.7088 33.9154ZM19.2057 31.7408L22.9802 35.6312L28.7219 30.0605L24.9474 26.1701L19.2057 31.7408ZM28.7219 35.6312L32.4964 31.7408L26.7547 26.1701L22.9802 30.0605L28.7219 35.6312ZM32.4964 31.7408L33.6208 30.582L27.8791 25.0113L26.7547 26.1701L32.4964 31.7408ZM27.761 30.4549L28.2275 30.9795L34.2054 25.663L33.7389 25.1384L27.761 30.4549ZM69 10C53.491 10 39.3254 15.793 28.5639 25.3272L33.869 31.3152C43.2238 23.0273 55.52 18 69 18V10ZM118.609 35.4968C107.548 20.0665 89.4495 10 69 10V18C86.7618 18 102.484 26.7333 112.107 40.1577L118.609 35.4968ZM115.892 33.8042L115.207 33.8301L115.51 41.8244L116.195 41.7984L115.892 33.8042ZM116.484 30.8121L112.91 35.3144L119.176 40.2882L122.75 35.7859L116.484 30.8121ZM123.832 38.8917L123.614 33.1475L115.62 33.4505L115.838 39.1947L123.832 38.8917ZM126.824 39.4841L122.322 35.9103L117.348 42.1762L121.85 45.75L126.824 39.4841ZM118.744 46.8319L124.489 46.6142L124.186 38.6199L118.441 38.8376L118.744 46.8319ZM121.711 45.3409L121.726 45.3216L115.46 40.3479L115.445 40.3672L121.711 45.3409ZM130 71C130 60.052 127.112 49.7664 122.054 40.876L115.101 44.8321C119.491 52.5486 122 61.4752 122 71H130ZM128.699 83.5866C129.552 79.5216 130 75.3109 130 71H122C122 74.7556 121.61 78.4157 120.87 81.9436L128.699 83.5866ZM124.9 78.7651H124.784V86.7651H124.9V78.7651ZM132.9 86.7651C132.9 82.3468 129.318 78.7651 124.9 78.7651V86.7651H132.9ZM132.9 102.765V86.7651H124.9V102.765H132.9ZM124.9 110.765C129.318 110.765 132.9 107.183 132.9 102.765H124.9V110.765ZM113.386 110.765H124.9V102.765H113.386V110.765Z" fill="white" mask="url(#path-1-outside-1_3614_2369)"/>
<path d="M49.6823 35.6039C49.2948 35.5711 48.943 35.4556 48.6266 35.2575C48.3198 35.0602 48.0799 34.8019 47.9071 34.4827C47.7437 34.1643 47.6785 33.8114 47.7113 33.4239L49.166 16.2585C49.1988 15.8711 49.3225 15.5342 49.5372 15.2478C49.7612 14.9622 50.0411 14.748 50.3768 14.6051C50.722 14.4631 51.0883 14.4084 51.4757 14.4413C51.8632 14.4741 52.2103 14.5892 52.5172 14.7865C52.8335 14.9846 53.0734 15.2429 53.2367 15.5613C53.4095 15.8805 53.4795 16.2338 53.4467 16.6213L51.992 33.7867C51.9592 34.1741 51.8307 34.5106 51.6067 34.7962C51.392 35.0826 51.1122 35.2968 50.767 35.4389C50.4313 35.5817 50.0697 35.6367 49.6823 35.6039ZM70.8149 15.8518C71.4102 15.9022 71.888 16.1045 72.2482 16.4586C72.6179 16.8135 72.7795 17.265 72.733 17.8131L71.2195 35.6731C71.173 36.2212 70.9381 36.6343 70.5148 36.9125C70.1018 37.1821 69.5976 37.2916 69.0022 37.2412C68.4069 37.1907 67.9236 36.9975 67.5523 36.6615C67.1913 36.3168 67.034 35.8704 67.0805 35.3223L67.1261 34.7837C66.5007 35.4255 65.7455 35.9135 64.8606 36.2478C63.9852 36.5828 62.9946 36.7035 61.889 36.6098C60.5377 36.4953 59.3726 36.092 58.3939 35.3999C57.4246 34.7087 56.6966 33.7523 56.21 32.5309C55.7243 31.3 55.5239 29.8459 55.6089 28.1685C55.6914 26.6336 56.0801 25.2485 56.7749 24.013C57.4791 22.7782 58.4015 21.8333 59.542 21.178C60.6833 20.5134 61.9202 20.2375 63.2526 20.3504C65.5773 20.5474 67.196 21.4936 68.1087 23.1889L68.594 17.4624C68.6405 16.9143 68.871 16.496 69.2857 16.2076C69.7098 15.9199 70.2196 15.8013 70.8149 15.8518ZM67.5096 30.0907C67.5136 30.0435 67.5211 30.0108 67.5322 29.9927L67.6991 28.0224C67.752 27.3987 67.6367 26.7941 67.3532 26.2086C67.0799 25.6144 66.651 25.1164 66.0664 24.7147C65.4826 24.3036 64.7796 24.0632 63.9575 23.9935C63.2771 23.9358 62.626 24.0948 62.0041 24.4704C61.3924 24.8373 60.8809 25.3698 60.4696 26.0678C60.0686 26.7571 59.8316 27.5318 59.7587 28.3917C59.681 29.3083 59.7638 30.1291 60.0069 30.854C60.2595 31.5797 60.6524 32.165 61.1858 32.61C61.7294 33.0462 62.3839 33.2968 63.1493 33.3617C63.9526 33.4298 64.6749 33.3292 65.3164 33.0599C65.9586 32.7812 66.4683 32.3819 66.8455 31.8618C67.233 31.3331 67.4543 30.7427 67.5096 30.0907ZM81.8314 38.3141C80.0927 38.1668 78.6355 37.7292 77.4599 37.0014C76.2843 36.2736 75.4252 35.2919 74.8828 34.0562C74.3505 32.8119 74.1549 31.3582 74.2958 29.695C74.4448 27.9374 74.8698 26.4601 75.5708 25.2632C76.2727 24.0568 77.2182 23.1757 78.4074 22.6197C79.5966 22.0638 80.9941 21.8586 82.5997 22.0042C84.0715 22.1575 85.3298 22.583 86.3747 23.2807C87.4196 23.9783 88.1929 24.9052 88.6946 26.0613C89.2064 27.2087 89.4094 28.5203 89.3033 29.996C89.2116 30.8544 88.9878 31.4731 88.6321 31.8522C88.2764 32.2313 87.6969 32.3868 86.8937 32.3188L78.233 31.5848C78.1592 32.5684 78.4849 33.3288 79.2103 33.8662C79.9365 34.3941 80.9174 34.7247 82.1529 34.8579C83.201 34.9563 84.3945 34.7433 85.7333 34.2191C86.1375 34.0535 86.4263 33.959 86.5996 33.9356C86.6579 33.9215 86.7485 33.9197 86.8713 33.9301C87.117 33.9509 87.337 34.0505 87.5313 34.2287C87.7256 34.407 87.8686 34.6285 87.9604 34.8932C88.0616 35.1588 88.1006 35.4286 88.0774 35.7026C88.0389 36.1562 87.8769 36.5518 87.5913 36.8892C87.3152 37.2275 86.9951 37.4669 86.6311 37.6073C85.9108 37.9079 85.1316 38.1179 84.2935 38.2372C83.4553 38.3566 82.6346 38.3822 81.8314 38.3141ZM85.4642 28.9712C85.5249 28.3672 85.4249 27.8067 85.1641 27.2897C84.9128 26.7735 84.5389 26.3563 84.0424 26.0382C83.5467 25.7107 82.9776 25.5197 82.335 25.4652C81.7207 25.4132 81.1319 25.5108 80.5684 25.7581C80.0058 25.9959 79.543 26.3469 79.1801 26.8111C78.8171 27.2753 78.6061 27.7999 78.547 28.385L85.4642 28.9712ZM105.818 29.5254C105.834 30.1263 105.821 30.7296 105.779 31.3352C105.747 31.9321 105.698 32.6322 105.63 33.4354L105.188 38.6517C105.142 39.1903 104.913 39.5849 104.502 39.8356C104.101 40.0776 103.593 40.1726 102.979 40.1205C102.412 40.0725 101.945 39.9092 101.578 39.6307C101.221 39.3529 101.044 38.9715 101.047 38.4864C100.368 38.8666 99.5962 39.1534 98.7328 39.3467C97.8788 39.5408 97.0124 39.6006 96.1336 39.5262C95.0469 39.4341 94.1187 39.1555 93.3491 38.6906C92.589 38.2264 92.0271 37.6125 91.6635 36.8489C91.3008 36.0757 91.161 35.1978 91.2443 34.215C91.318 33.3457 91.642 32.5546 92.2163 31.8419C92.7915 31.1197 93.5787 30.5344 94.578 30.0861C95.578 29.6284 96.7291 29.3547 98.031 29.2652C98.5383 29.2321 99.1746 29.2479 99.94 29.3128C100.545 29.364 101.129 29.4373 101.692 29.5326C101.739 29.5366 101.772 29.5441 101.79 29.5552C101.763 29.3055 101.699 29.0002 101.596 28.6394C101.441 28.1123 101.089 27.716 100.54 27.4506C99.9918 27.1852 99.3388 27.03 98.5812 26.9848C98.193 26.9614 97.7278 27.0029 97.1858 27.1092C96.6438 27.2156 96.0364 27.364 95.3636 27.5544C95.1296 27.6202 94.9039 27.6439 94.6866 27.6255C94.2235 27.5863 93.8343 27.4058 93.519 27.084C93.2044 26.7528 93.0675 26.3462 93.1084 25.8643C93.1476 25.4012 93.299 25.0191 93.5624 24.7178C93.8362 24.4079 94.1787 24.1847 94.59 24.0482C95.2558 23.8287 96.0361 23.6616 96.9309 23.5471C97.836 23.4239 98.554 23.3753 99.0848 23.4013C101.264 23.5193 102.919 24.0879 104.051 25.107C105.183 26.1261 105.772 27.5989 105.818 29.5254ZM95.3974 34.567C95.3518 35.1056 95.5008 35.537 95.8446 35.8612C96.1891 36.1759 96.6968 36.3617 97.3677 36.4186C98.0953 36.4802 98.8007 36.4115 99.4838 36.2124C100.168 36.0039 100.769 35.7598 101.288 35.4802L101.476 33.2548C101.489 33.1036 101.519 32.9158 101.567 32.6914C101.202 32.6129 100.741 32.55 100.184 32.5028C99.3426 32.4315 98.6007 32.4257 97.958 32.4855C97.2192 32.5561 96.6211 32.7624 96.1638 33.1044C95.7066 33.4463 95.4511 33.9339 95.3974 34.567Z" fill="#EB7100"/>
<path d="M48.6266 35.2575L45.3816 40.3042L45.4116 40.3235L45.4418 40.3424L48.6266 35.2575ZM47.9071 34.4827L42.5688 37.2217L42.5991 37.2808L42.6307 37.3393L47.9071 34.4827ZM49.5372 15.2478L44.8168 11.544L44.7757 11.5963L44.7359 11.6495L49.5372 15.2478ZM50.3768 14.6051L48.0931 9.05674L48.0601 9.07031L48.0273 9.08428L50.3768 14.6051ZM52.5172 14.7865L49.2721 19.8332L49.3021 19.8525L49.3323 19.8715L52.5172 14.7865ZM53.2367 15.5613L47.8984 18.3003L47.9287 18.3594L47.9604 18.4179L53.2367 15.5613ZM51.6067 34.7962L46.8863 31.0924L46.8452 31.1447L46.8054 31.1979L51.6067 34.7962ZM50.767 35.4389L48.4833 29.8905L48.4503 29.9041L48.4175 29.918L50.767 35.4389ZM50.1889 29.6253C50.7116 29.6696 51.2847 29.8426 51.8115 30.1725L45.4418 40.3424C46.6012 41.0686 47.8781 41.4725 49.1756 41.5825L50.1889 29.6253ZM51.8717 30.2107C52.4112 30.5576 52.8721 31.0509 53.1834 31.6261L42.6307 37.3393C43.2878 38.5528 44.2283 39.5627 45.3816 40.3042L51.8717 30.2107ZM53.2454 31.7437C53.6396 32.512 53.7435 33.2981 53.6899 33.9306L41.7327 32.9173C41.6135 34.3246 41.8478 35.8166 42.5688 37.2217L53.2454 31.7437ZM53.6899 33.9306L55.1446 16.7652L43.1874 15.7518L41.7327 32.9173L53.6899 33.9306ZM55.1446 16.7652C55.091 17.3976 54.8563 18.155 54.3385 18.8461L44.7359 11.6495C43.7888 12.9133 43.3067 14.3445 43.1874 15.7518L55.1446 16.7652ZM54.2576 18.9516C53.8538 19.4661 53.3165 19.8748 52.7264 20.126L48.0273 9.08428C46.7657 9.62116 45.6686 10.4583 44.8168 11.544L54.2576 18.9516ZM52.6606 20.1535C52.0858 20.3901 51.4917 20.4641 50.9691 20.4198L51.9824 8.4627C50.6848 8.35274 49.3582 8.53602 48.0931 9.05674L52.6606 20.1535ZM50.9691 20.4198C50.4473 20.3756 49.8423 20.1999 49.2721 19.8332L55.7623 9.73978C54.5783 8.97848 53.279 8.57259 51.9824 8.4627L50.9691 20.4198ZM49.3323 19.8715C48.7738 19.5216 48.2501 18.9859 47.8984 18.3003L58.5751 12.8223C57.8966 11.4999 56.8933 10.4477 55.702 9.70156L49.3323 19.8715ZM47.9604 18.4179C47.5362 17.6343 47.4096 16.8058 47.4681 16.1146L59.4253 17.1279C59.5495 15.6618 59.2829 14.1267 58.5131 12.7047L47.9604 18.4179ZM47.4681 16.1146L46.0134 33.28L57.9706 34.2933L59.4253 17.1279L47.4681 16.1146ZM46.0134 33.28C46.072 32.5888 46.3362 31.7934 46.8863 31.0924L56.3271 38.5C57.3252 37.2278 57.8463 35.7594 57.9706 34.2933L46.0134 33.28ZM46.8054 31.1979C47.2675 30.5813 47.8738 30.1413 48.4833 29.8905L53.0507 40.9873C54.3505 40.4523 55.5166 39.5838 56.408 38.3945L46.8054 31.1979ZM48.4175 29.918C49.0413 29.6526 49.6672 29.5811 50.1889 29.6253L49.1756 41.5825C50.4723 41.6924 51.8213 41.5109 53.1165 40.9597L48.4175 29.918ZM72.2482 16.4586L68.0419 20.7373L68.0671 20.7621L68.0927 20.7866L72.2482 16.4586ZM70.5148 36.9125L73.7939 41.9373L73.802 41.9319L73.8101 41.9266L70.5148 36.9125ZM67.5523 36.6615L63.409 41.0012L63.4668 41.0563L63.5261 41.11L67.5523 36.6615ZM67.1261 34.7837L73.1047 35.2904L74.5191 18.6008L62.8292 30.5961L67.1261 34.7837ZM64.8606 36.2478L62.7404 30.6349L62.7282 30.6395L62.7159 30.6442L64.8606 36.2478ZM58.3939 35.3999L54.9101 40.285L54.92 40.292L54.9299 40.299L58.3939 35.3999ZM56.21 32.5309L50.629 34.7336L50.6325 34.7425L50.6361 34.7514L56.21 32.5309ZM55.6089 28.1685L49.6176 27.8465L49.6171 27.8556L49.6166 27.8647L55.6089 28.1685ZM56.7749 24.013L51.563 21.0403L51.554 21.0561L51.5451 21.072L56.7749 24.013ZM59.542 21.178L62.5309 26.3806L62.5462 26.3718L62.5615 26.3629L59.542 21.178ZM68.1087 23.1889L62.8258 26.0333L72.3846 43.7873L74.0873 23.6956L68.1087 23.1889ZM69.2857 16.2076L65.9178 11.242L65.8885 11.2619L65.8594 11.2821L69.2857 16.2076ZM67.5322 29.9927L72.653 33.1196L73.3911 31.9107L73.5107 30.4994L67.5322 29.9927ZM67.3532 26.2086L61.9019 28.7153L61.9268 28.7694L61.9528 28.8231L67.3532 26.2086ZM66.0664 24.7147L62.6116 29.6203L62.64 29.6402L62.6685 29.6598L66.0664 24.7147ZM62.0041 24.4704L65.0906 29.6156L65.0982 29.611L65.1058 29.6064L62.0041 24.4704ZM60.4696 26.0678L55.3003 23.0217L55.2918 23.0361L55.2834 23.0506L60.4696 26.0678ZM60.0069 30.854L54.3183 32.7619L54.3291 32.7941L54.3403 32.8262L60.0069 30.854ZM61.1858 32.61L57.3422 37.2172L57.3859 37.2537L57.4302 37.2892L61.1858 32.61ZM65.3164 33.0599L67.6385 38.5924L67.6717 38.5784L67.7047 38.5641L65.3164 33.0599ZM66.8455 31.8618L62.0059 28.3153L61.9972 28.3272L61.9885 28.3391L66.8455 31.8618ZM70.3082 21.8303C69.7765 21.7853 68.8545 21.5361 68.0419 20.7373L76.4545 12.18C74.9215 10.6728 73.044 10.0192 71.3215 9.87318L70.3082 21.8303ZM68.0927 20.7866C67.655 20.3664 67.2508 19.7929 66.9976 19.0854C66.749 18.3908 66.7157 17.7636 66.7544 17.3065L78.7116 18.3198C78.8981 16.1193 78.1853 13.8412 76.4037 12.1306L68.0927 20.7866ZM66.7544 17.3065L65.2409 35.1664L77.198 36.1798L78.7116 18.3198L66.7544 17.3065ZM65.2409 35.1664C65.2795 34.7109 65.4183 34.0867 65.7925 33.4286C66.1749 32.756 66.6915 32.2455 67.2195 31.8984L73.8101 41.9266C75.9177 40.5415 77.0115 38.3815 77.198 36.1798L65.2409 35.1664ZM67.2358 31.8878C68.1647 31.2816 69.0615 31.2247 69.5089 31.2626L68.4956 43.2198C70.1336 43.3586 72.0388 43.0826 73.7939 41.9373L67.2358 31.8878ZM69.5089 31.2626C69.9616 31.301 70.798 31.5065 71.5786 32.213L63.5261 41.11C65.0492 42.4885 66.8522 43.0805 68.4956 43.2198L69.5089 31.2626ZM71.6956 32.3218C72.1595 32.7646 72.5704 33.3585 72.8226 34.0742C73.0686 34.7723 73.096 35.3926 73.0591 35.829L61.1019 34.8157C60.9199 36.9634 61.5888 39.2633 63.409 41.0012L71.6956 32.3218ZM73.0591 35.829L73.1047 35.2904L61.1476 34.277L61.1019 34.8157L73.0591 35.829ZM62.8292 30.5961C62.8291 30.5962 62.8305 30.5947 62.8329 30.5928C62.8352 30.5909 62.8361 30.5905 62.8341 30.5917C62.8319 30.5931 62.8054 30.6103 62.7404 30.6349L66.9808 41.8607C68.6402 41.2339 70.1512 40.2764 71.4231 38.9713L62.8292 30.5961ZM62.7159 30.6442C62.7635 30.626 62.7763 30.6286 62.7355 30.6336C62.6916 30.639 62.583 30.6471 62.3957 30.6313L61.3823 42.5884C63.2246 42.7445 65.1442 42.5637 67.0053 41.8514L62.7159 30.6442ZM62.3957 30.6313C62.1673 30.6119 62.032 30.575 61.9644 30.5516C61.9009 30.5296 61.8726 30.5113 61.8579 30.5009L54.9299 40.299C56.8906 41.6854 59.1094 42.3958 61.3823 42.5884L62.3957 30.6313ZM61.8776 30.5149C61.8798 30.5164 61.8852 30.5207 61.8914 30.5266C61.8975 30.5326 61.8988 30.5349 61.8952 30.5302C61.8899 30.5232 61.8447 30.4628 61.784 30.3104L50.6361 34.7514C51.503 36.9275 52.9061 38.8558 54.9101 40.285L61.8776 30.5149ZM61.7911 30.3283C61.6923 30.078 61.5483 29.5169 61.6012 28.4723L49.6166 27.8647C49.4995 30.1749 49.7562 32.5221 50.629 34.7336L61.7911 30.3283ZM61.6003 28.4905C61.6376 27.7964 61.7987 27.3202 62.0046 26.9539L51.5451 21.072C50.3615 23.1767 49.7452 25.4708 49.6176 27.8465L61.6003 28.4905ZM61.9867 26.9856C62.2058 26.6015 62.3909 26.461 62.5309 26.3806L56.5531 15.9755C54.412 17.2055 52.7524 18.955 51.563 21.0403L61.9867 26.9856ZM62.5615 26.3629C62.5948 26.3435 62.6148 26.335 62.6226 26.3319C62.6268 26.3302 62.6293 26.3294 62.6302 26.3292C62.6311 26.3289 62.6316 26.3288 62.6319 26.3287C62.6322 26.3286 62.6334 26.3284 62.6359 26.328C62.6385 26.3277 62.6434 26.327 62.6511 26.3266C62.6657 26.3256 62.6963 26.3247 62.746 26.329L63.7593 14.3718C61.2142 14.1561 58.7438 14.6996 56.5225 15.9932L62.5615 26.3629ZM62.746 26.329C63.2308 26.37 63.3081 26.4613 63.1823 26.3878C63.1188 26.3506 63.0379 26.2907 62.9599 26.2093C62.8826 26.1287 62.8407 26.061 62.8258 26.0333L73.3917 20.3445C71.3058 16.4703 67.6118 14.6983 63.7593 14.3718L62.746 26.329ZM74.0873 23.6956L74.5726 17.969L62.6155 16.9557L62.1302 22.6822L74.0873 23.6956ZM74.5726 17.969C74.5355 18.407 74.4045 19.0025 74.0564 19.634C73.7007 20.2792 73.2172 20.7816 72.712 21.133L65.8594 11.2821C63.8368 12.6891 62.7975 14.8082 62.6155 16.9557L74.5726 17.969ZM72.6536 21.1732C72.2428 21.4518 71.7931 21.6427 71.3458 21.7468C70.9098 21.8482 70.5489 21.8507 70.3082 21.8303L71.3215 9.87318C69.5947 9.72685 67.6624 10.0587 65.9178 11.242L72.6536 21.1732ZM73.4881 30.5974C73.4751 30.7509 73.4451 31.0304 73.3651 31.3778C73.2979 31.6691 73.1204 32.3541 72.653 33.1196L62.4113 26.8658C61.6035 28.1889 61.5394 29.4844 61.531 29.5841L73.4881 30.5974ZM73.5107 30.4994L73.6777 28.5291L61.7206 27.5158L61.5536 29.486L73.5107 30.4994ZM73.6777 28.5291C73.8252 26.7886 73.4871 25.1093 72.7536 23.594L61.9528 28.8231C61.8785 28.6697 61.8048 28.4678 61.7585 28.2253C61.712 27.9814 61.7016 27.7396 61.7206 27.5158L73.6777 28.5291ZM72.8044 23.7019C72.0412 22.042 70.8628 20.7305 69.4643 19.7696L62.6685 29.6598C62.5689 29.5914 62.4284 29.477 62.2805 29.3053C62.1306 29.1313 62.0008 28.9304 61.9019 28.7153L72.8044 23.7019ZM69.5212 19.8091C67.9396 18.6953 66.1796 18.1603 64.4642 18.0149L63.4509 29.9721C63.4263 29.97 63.3204 29.9582 63.1598 29.9032C62.9947 29.8468 62.8036 29.7554 62.6116 29.6203L69.5212 19.8091ZM64.4642 18.0149C62.4391 17.8433 60.5344 18.3487 58.9023 19.3343L65.1058 29.6064C64.9392 29.7071 64.6953 29.8218 64.3818 29.8983C64.0647 29.9757 63.7455 29.997 63.4509 29.9721L64.4642 18.0149ZM58.9175 19.3252C57.3365 20.2736 56.15 21.5798 55.3003 23.0217L65.6389 29.1138C65.6306 29.1279 65.5855 29.2007 65.4887 29.3015C65.3896 29.4047 65.256 29.5164 65.0906 29.6156L58.9175 19.3252ZM55.2834 23.0506C54.3998 24.5694 53.9218 26.2138 53.7802 27.885L65.7373 28.8983C65.7402 28.8645 65.7423 28.8762 65.7287 28.9209C65.7145 28.9671 65.6905 29.0253 65.6558 29.085L55.2834 23.0506ZM53.7802 27.885C53.6471 29.4554 53.7674 31.1194 54.3183 32.7619L65.6955 28.9461C65.7266 29.039 65.7323 29.0936 65.7323 29.093C65.732 29.0903 65.7262 29.0293 65.7373 28.8983L53.7802 27.885ZM54.3403 32.8262C54.9113 34.4669 55.8867 36.003 57.3422 37.2172L65.0293 28.0027C65.2066 28.1505 65.3564 28.3199 65.4725 28.4929C65.5866 28.6627 65.6461 28.8029 65.6735 28.8817L54.3403 32.8262ZM57.4302 37.2892C58.9978 38.5474 60.8156 39.1854 62.6427 39.3403L63.656 27.3831C63.781 27.3937 63.9832 27.4274 64.2296 27.5217C64.4806 27.6178 64.7249 27.7569 64.9414 27.9307L57.4302 37.2892ZM62.6427 39.3403C64.2572 39.4771 65.9717 39.2919 67.6385 38.5924L62.9943 27.5275C63.1745 27.4518 63.3382 27.4124 63.466 27.3946C63.5903 27.3773 63.6589 27.3834 63.656 27.3831L62.6427 39.3403ZM67.7047 38.5641C69.2411 37.8974 70.6387 36.8513 71.7025 35.3845L61.9885 28.3391C62.1303 28.1436 62.2988 27.9703 62.4799 27.8284C62.6585 27.6885 62.818 27.6035 62.928 27.5558L67.7047 38.5641ZM71.6852 35.4083C72.7232 33.9918 73.3396 32.35 73.4881 30.5974L61.531 29.5841C61.548 29.3837 61.5947 29.1544 61.684 28.9161C61.7733 28.6779 61.8884 28.4756 62.0059 28.3153L71.6852 35.4083ZM74.8828 34.0562L69.3662 36.4158L69.3774 36.442L69.3889 36.4681L74.8828 34.0562ZM75.5708 25.2632L80.7481 28.2956L80.7526 28.288L80.757 28.2804L75.5708 25.2632ZM82.5997 22.0042L83.2212 16.0365L83.1814 16.0324L83.1415 16.0287L82.5997 22.0042ZM86.3747 23.2807L83.043 28.2706L86.3747 23.2807ZM88.6946 26.0613L83.1904 28.4496L83.2026 28.4778L83.2151 28.5058L88.6946 26.0613ZM89.3033 29.996L95.2693 30.6339L95.2804 30.5301L95.2879 30.426L89.3033 29.996ZM78.233 31.5848L78.7397 25.6062L72.7033 25.0947L72.2498 31.1357L78.233 31.5848ZM79.2103 33.8662L75.6388 38.6874L75.6605 38.7035L75.6823 38.7194L79.2103 33.8662ZM82.1529 34.8579L81.5095 40.8233L81.5509 40.8278L81.5924 40.8317L82.1529 34.8579ZM85.7333 34.2191L87.9209 39.8061L87.9645 39.789L88.0078 39.7713L85.7333 34.2191ZM86.5996 33.9356L87.4019 39.8817L87.7087 39.8403L88.0095 39.7676L86.5996 33.9356ZM87.5313 34.2287L83.4748 38.6497L87.5313 34.2287ZM87.9604 34.8932L82.2913 36.8584L82.3213 36.9448L82.3539 37.0303L87.9604 34.8932ZM87.5913 36.8892L83.0112 33.0134L82.9769 33.0539L82.9433 33.0951L87.5913 36.8892ZM86.6311 37.6073L84.4713 32.0095L84.3952 32.0389L84.32 32.0703L86.6311 37.6073ZM85.4642 28.9712L84.9575 34.9497L90.8434 35.4485L91.4341 29.5712L85.4642 28.9712ZM85.1641 27.2897L79.7694 29.9159L79.7879 29.9538L79.8069 29.9915L85.1641 27.2897ZM84.0424 26.0382L80.7348 31.0442L80.7701 31.0675L80.8058 31.0904L84.0424 26.0382ZM80.5684 25.7581L82.9046 31.2846L82.9423 31.2687L82.9797 31.2522L80.5684 25.7581ZM78.547 28.385L72.5774 27.782L71.9646 33.8486L78.0403 34.3635L78.547 28.385ZM82.3381 32.3356C81.2996 32.2475 80.8086 32.0178 80.6181 31.8999L74.3017 42.1029C76.4624 43.4406 78.8858 44.086 81.3248 44.2927L82.3381 32.3356ZM80.6181 31.8999C80.5069 31.8311 80.4632 31.7841 80.4493 31.7682C80.4362 31.7533 80.4106 31.7217 80.3766 31.6443L69.3889 36.4681C70.4323 38.8449 72.1202 40.7525 74.3017 42.1029L80.6181 31.8999ZM80.3993 31.6967C80.3334 31.5426 80.1973 31.1111 80.2744 30.2017L68.3173 29.1884C68.1124 31.6053 68.3676 34.0812 69.3662 36.4158L80.3993 31.6967ZM80.2744 30.2017C80.3677 29.1007 80.6046 28.5407 80.7481 28.2956L70.3935 22.2308C69.135 24.3795 68.5219 26.7741 68.3173 29.1884L80.2744 30.2017ZM80.757 28.2804C80.8355 28.1454 80.8876 28.0957 80.8969 28.087C80.9037 28.0807 80.9127 28.0718 80.9483 28.0552L75.8665 17.1843C73.4981 18.2915 71.6603 20.0533 70.3847 22.246L80.757 28.2804ZM80.9483 28.0552C80.9789 28.0409 81.2696 27.9082 82.0579 27.9797L83.1415 16.0287C80.7185 15.809 78.2144 16.0868 75.8665 17.1843L80.9483 28.0552ZM81.9782 27.972C82.6527 28.0422 82.9413 28.2027 83.043 28.2706L89.7065 18.2907C87.7183 16.9632 85.4902 16.2728 83.2212 16.0365L81.9782 27.972ZM83.043 28.2706C83.1073 28.3135 83.1275 28.3383 83.1312 28.3428C83.135 28.3474 83.1575 28.3738 83.1904 28.4496L94.1987 23.6729C93.2395 21.4623 91.7136 19.6308 89.7065 18.2907L83.043 28.2706ZM83.2151 28.5058C83.2587 28.6035 83.3666 28.9004 83.3188 29.5661L95.2879 30.426C95.4521 28.1402 95.1542 25.8139 94.174 23.6168L83.2151 28.5058ZM83.3373 29.3582C83.3277 29.4479 83.3308 29.322 83.4243 29.0633C83.5189 28.8018 83.7491 28.2876 84.2567 27.7466L93.0075 35.9577C94.6762 34.1794 95.1224 32.0082 95.2693 30.6339L83.3373 29.3582ZM84.2567 27.7466C85.7205 26.1866 87.3951 26.3397 87.4003 26.3402L86.387 38.2973C87.9987 38.4339 90.8323 38.276 93.0075 35.9577L84.2567 27.7466ZM87.4003 26.3402L78.7397 25.6062L77.7263 37.5634L86.387 38.2973L87.4003 26.3402ZM72.2498 31.1357C72.0388 33.9463 73.0829 36.794 75.6388 38.6874L82.7818 29.0449C83.1931 29.3496 83.6438 29.8452 83.9372 30.5302C84.2204 31.1912 84.2376 31.7483 84.2162 32.034L72.2498 31.1357ZM75.6823 38.7194C77.5207 40.0557 79.6136 40.6188 81.5095 40.8233L82.7963 28.8925C82.6653 28.8784 82.5689 28.862 82.503 28.8482C82.4704 28.8414 82.4464 28.8355 82.4304 28.8311C82.4143 28.8268 82.4068 28.8243 82.4069 28.8243C82.4069 28.8243 82.4402 28.8355 82.4985 28.8648C82.5574 28.8944 82.6405 28.9419 82.7383 29.013L75.6823 38.7194ZM81.5924 40.8317C83.8516 41.0437 86.0118 40.5536 87.9209 39.8061L83.5457 28.6321C82.7771 28.9331 82.5504 28.8689 82.7134 28.8842L81.5924 40.8317ZM88.0078 39.7713C88.1283 39.7219 88.1578 39.7138 88.1191 39.7265C88.0973 39.7336 88.0314 39.7547 87.9312 39.7803C87.8392 39.8038 87.6532 39.8478 87.4019 39.8817L85.7973 27.9895C84.7745 28.1275 83.8389 28.5112 83.4587 28.667L88.0078 39.7713ZM88.0095 39.7676C87.4612 39.9002 87.0259 39.9185 86.8333 39.9224C86.6094 39.927 86.4434 39.9153 86.3647 39.9087L87.378 27.9515C87.1425 27.9316 86.2396 27.8498 85.1897 28.1036L88.0095 39.7676ZM86.3647 39.9087C85.1926 39.8093 84.1864 39.3026 83.4748 38.6497L91.5878 29.8078C90.4876 28.7983 89.0414 28.0925 87.378 27.9515L86.3647 39.9087ZM83.4748 38.6497C82.8904 38.1134 82.5042 37.4725 82.2913 36.8584L93.6294 32.9281C93.233 31.7845 92.5607 30.7005 91.5878 29.8078L83.4748 38.6497ZM82.3539 37.0303C82.1451 36.4827 82.0433 35.8503 82.0988 35.196L94.0559 36.2093C94.1578 35.0069 93.9781 33.8349 93.5669 32.7561L82.3539 37.0303ZM82.0988 35.196C82.1622 34.4479 82.4671 33.6563 83.0112 33.0134L92.1715 40.7651C93.2867 39.4472 93.9157 37.8645 94.0559 36.2093L82.0988 35.196ZM82.9433 33.0951C83.2459 32.7244 83.7517 32.2872 84.4713 32.0095L88.7909 43.2051C90.2385 42.6465 91.3846 41.7306 92.2394 40.6834L82.9433 33.0951ZM84.32 32.0703C84.107 32.1592 83.8246 32.2435 83.4478 32.2971L85.1391 44.1774C86.4386 43.9923 87.7147 43.6567 88.9422 43.1444L84.32 32.0703ZM83.4478 32.2971C83.0351 32.3559 82.6685 32.3636 82.3381 32.3356L81.3248 44.2927C82.6008 44.4008 83.8755 44.3572 85.1391 44.1774L83.4478 32.2971ZM91.4341 29.5712C91.6032 27.8884 91.322 26.1752 90.5214 24.5878L79.8069 29.9915C79.6797 29.7393 79.582 29.4544 79.528 29.1519C79.4744 28.8514 79.4728 28.5844 79.4943 28.3712L91.4341 29.5712ZM90.5588 24.6634C89.8113 23.1278 88.6778 21.8822 87.279 20.9861L80.8058 31.0904C80.6222 30.9728 80.4202 30.8096 80.2273 30.5944C80.0337 30.3784 79.8812 30.1455 79.7694 29.9159L90.5588 24.6634ZM87.3501 21.0323C85.9463 20.1048 84.3969 19.6185 82.8416 19.4867L81.8283 31.4438C81.5582 31.4209 81.1471 31.3166 80.7348 31.0442L87.3501 21.0323ZM82.8416 19.4867C81.2314 19.3502 79.6393 19.6135 78.1571 20.264L82.9797 31.2522C82.8185 31.323 82.6271 31.3833 82.414 31.4186C82.2009 31.4539 82.0014 31.4585 81.8283 31.4438L82.8416 19.4867ZM78.2323 20.2316C76.7661 20.8514 75.4682 21.8174 74.4534 23.1153L83.9067 30.5069C83.6177 30.8764 83.2455 31.1405 82.9046 31.2846L78.2323 20.2316ZM74.4534 23.1153C73.3938 24.4704 72.7506 26.0669 72.5774 27.782L84.5166 28.988C84.4917 29.2345 84.4296 29.5097 84.3162 29.7917C84.2028 30.0736 84.0576 30.314 83.9067 30.5069L74.4534 23.1153ZM78.0403 34.3635L84.9575 34.9497L85.9708 22.9926L79.0537 22.4064L78.0403 34.3635ZM105.818 29.5254L99.8199 29.669L99.8202 29.6821L105.818 29.5254ZM105.779 31.3352L99.7932 30.922L99.7899 30.9702L99.7874 31.0185L105.779 31.3352ZM104.502 39.8356L107.601 44.9733L107.612 44.9665L107.623 44.9597L104.502 39.8356ZM101.578 39.6307L97.8952 44.3672L97.9218 44.3879L97.9486 44.4083L101.578 39.6307ZM101.047 38.4864L107.047 38.524L107.112 28.2167L98.1169 33.2505L101.047 38.4864ZM98.7328 39.3467L97.4219 33.4917L97.4124 33.4938L97.4029 33.4959L98.7328 39.3467ZM93.3491 38.6906L90.2222 43.8114L90.2343 43.8188L90.2464 43.8261L93.3491 38.6906ZM91.6635 36.8489L86.2318 39.3976L86.2389 39.4128L86.2462 39.428L91.6635 36.8489ZM92.2163 31.8419L96.8882 35.6067L96.899 35.5932L96.9098 35.5797L92.2163 31.8419ZM94.578 30.0861L97.0339 35.5605L97.0546 35.5512L97.0751 35.5418L94.578 30.0861ZM98.031 29.2652L97.6397 23.278L97.6296 23.2787L97.6194 23.2793L98.031 29.2652ZM101.692 29.5326L100.69 35.4484L100.936 35.4901L101.185 35.5112L101.692 29.5326ZM101.79 29.5552L98.6628 34.676L109.036 41.0098L107.756 28.9237L101.79 29.5552ZM101.596 28.6394L107.367 26.9975L107.36 26.971L107.352 26.9447L101.596 28.6394ZM98.5812 26.9848L98.2205 32.9739L98.2241 32.9742L98.5812 26.9848ZM95.3636 27.5544L96.9884 33.3302L96.9976 33.3276L95.3636 27.5544ZM93.519 27.084L89.1683 31.2158L89.2008 31.2501L89.2339 31.2838L93.519 27.084ZM93.5624 24.7178L89.0653 20.7459L89.0556 20.7569L89.0459 20.768L93.5624 24.7178ZM94.59 24.0482L92.7107 18.3501L92.7006 18.3535L94.59 24.0482ZM96.9309 23.5471L97.6926 29.4986L97.7163 29.4955L97.74 29.4923L96.9309 23.5471ZM99.0848 23.4013L99.4093 17.41L99.3935 17.4092L99.3777 17.4084L99.0848 23.4013ZM104.051 25.107L100.036 29.5659L104.051 25.107ZM95.8446 35.8612L91.7278 40.2261L91.7625 40.2588L91.7978 40.291L95.8446 35.8612ZM99.4838 36.2124L101.163 41.9728L101.198 41.9624L101.234 41.9516L99.4838 36.2124ZM101.288 35.4802L104.135 40.7613L106.992 39.2209L107.266 35.9868L101.288 35.4802ZM101.567 32.6914L107.436 33.9357L108.677 28.0846L102.83 26.8258L101.567 32.6914ZM97.958 32.4855L97.4027 26.5112L97.3949 26.512L97.387 26.5127L97.958 32.4855ZM99.8202 29.6821C99.8309 30.0911 99.8221 30.5042 99.7932 30.922L111.765 31.7484C111.82 30.955 111.837 30.1616 111.816 29.3687L99.8202 29.6821ZM99.7874 31.0185C99.7601 31.5346 99.7154 32.1686 99.651 32.9288L111.608 33.9421C111.68 33.0958 111.735 32.3296 111.771 31.6519L99.7874 31.0185ZM99.651 32.9288L99.2089 38.145L111.166 39.1583L111.608 33.9421L99.651 32.9288ZM99.2089 38.145C99.2471 37.6947 99.3861 37.0415 99.7897 36.3447C100.206 35.6251 100.78 35.0774 101.38 34.7115L107.623 44.9597C109.886 43.5814 110.982 41.3355 111.166 39.1583L99.2089 38.145ZM101.403 34.6979C102.381 34.1077 103.234 34.1207 103.485 34.142L102.472 46.0991C103.951 46.2245 105.82 46.0475 107.601 44.9733L101.403 34.6979ZM103.485 34.142C103.785 34.1673 104.476 34.2971 105.208 34.8531L97.9486 44.4083C99.4137 45.5213 101.039 45.9776 102.472 46.0991L103.485 34.142ZM105.261 34.8941C105.778 35.2959 106.276 35.8696 106.62 36.61C106.957 37.337 107.05 38.017 107.047 38.524L95.0472 38.4487C95.0335 40.6428 95.9468 42.8522 97.8952 44.3672L105.261 34.8941ZM98.1169 33.2505C98.0081 33.3114 97.7944 33.4083 97.4219 33.4917L100.044 45.2017C101.398 44.8985 102.727 44.4218 103.977 43.7222L98.1169 33.2505ZM97.4029 33.4959C97.1552 33.5523 96.9083 33.5703 96.6402 33.5476L95.6269 45.5047C97.1164 45.631 98.6024 45.5294 100.063 45.1975L97.4029 33.4959ZM96.6402 33.5476C96.4592 33.5322 96.3683 33.5078 96.347 33.5014C96.3288 33.4959 96.3726 33.5073 96.4518 33.5551L90.2464 43.8261C91.9555 44.8587 93.8144 45.3511 95.6269 45.5047L96.6402 33.5476ZM96.476 33.5698C96.5434 33.611 96.6582 33.6941 96.7837 33.8312C96.9109 33.9702 97.0113 34.1234 97.0809 34.2697L86.2462 39.428C87.1376 41.3004 88.5235 42.7741 90.2222 43.8114L96.476 33.5698ZM97.0953 34.3001C97.1626 34.4435 97.1971 34.5735 97.212 34.6674C97.2263 34.7568 97.2178 34.7815 97.2229 34.7217L85.2657 33.7084C85.1075 35.5754 85.3566 37.5325 86.2318 39.3976L97.0953 34.3001ZM97.2229 34.7217C97.2093 34.8817 97.1687 35.0637 97.0949 35.2439C97.022 35.4218 96.9393 35.5432 96.8882 35.6067L87.5445 28.0771C86.2584 29.673 85.4455 31.5866 85.2657 33.7084L97.2229 34.7217ZM96.9098 35.5797C96.8835 35.6127 96.8599 35.6377 96.8419 35.6549C96.8241 35.672 96.8148 35.6787 96.8179 35.6764C96.8241 35.6717 96.8863 35.6267 97.0339 35.5605L92.122 24.6118C90.4111 25.3794 88.7962 26.5052 87.5229 28.104L96.9098 35.5797ZM97.0751 35.5418C97.3076 35.4354 97.7306 35.3 98.4427 35.2511L97.6194 23.2793C95.7275 23.4094 93.8485 23.8214 92.0808 24.6305L97.0751 35.5418ZM98.4224 35.2524C98.5207 35.246 98.8321 35.2404 99.4334 35.2914L100.447 23.3342C99.5171 23.2554 98.5559 23.2181 97.6397 23.278L98.4224 35.2524ZM99.4334 35.2914C99.8827 35.3294 100.301 35.3826 100.69 35.4484L102.693 23.6168C101.956 23.492 101.207 23.3986 100.447 23.3342L99.4334 35.2914ZM101.185 35.5112C101.032 35.4982 100.752 35.4681 100.405 35.3881C100.113 35.321 99.4283 35.1434 98.6628 34.676L104.917 24.4344C103.594 23.6265 102.298 23.5625 102.198 23.554L101.185 35.5112ZM107.756 28.9237C107.681 28.2095 107.523 27.5441 107.367 26.9975L95.8251 30.2813C95.846 30.3548 95.8525 30.3858 95.8513 30.3801C95.8504 30.3763 95.8467 30.3585 95.8418 30.3281C95.8368 30.298 95.8297 30.2502 95.823 30.1867L107.756 28.9237ZM107.352 26.9447C106.663 24.607 105.04 22.9624 103.153 22.0495L97.9274 32.8517C97.5957 32.6913 97.1512 32.4059 96.7294 31.9309C96.2971 31.4441 96.0028 30.8857 95.8404 30.3341L107.352 26.9447ZM103.153 22.0495C101.748 21.3698 100.293 21.0762 98.9383 20.9954L98.2241 32.9742C98.3843 32.9837 98.2353 33.0007 97.9274 32.8517L103.153 22.0495ZM98.9419 20.9956C97.8832 20.9319 96.881 21.0546 96.0306 21.2215L98.3411 32.997C98.4424 32.9771 98.484 32.9738 98.4742 32.9746C98.4679 32.9752 98.4436 32.9772 98.4028 32.9781C98.3622 32.9789 98.3006 32.9788 98.2205 32.9739L98.9419 20.9956ZM96.0306 21.2215C95.2919 21.3665 94.5211 21.5572 93.7296 21.7812L96.9976 33.3276C97.5518 33.1708 97.9958 33.0647 98.3411 32.997L96.0306 21.2215ZM93.7388 21.7786C94.1185 21.6718 94.6163 21.5981 95.1932 21.647L94.1799 33.6041C95.1915 33.6898 96.1407 33.5687 96.9884 33.3302L93.7388 21.7786ZM95.1932 21.647C95.6022 21.6816 96.0793 21.7892 96.5718 22.0176C97.0669 22.2472 97.4804 22.5541 97.804 22.8842L89.2339 31.2838C90.5891 32.6665 92.3342 33.4477 94.1799 33.6041L95.1932 21.647ZM97.8696 22.9522C98.2739 23.3779 98.6389 23.9392 98.8669 24.6165C99.0919 25.285 99.127 25.8977 99.0869 26.3709L87.1298 25.3576C86.9539 27.4335 87.5972 29.5615 89.1683 31.2158L97.8696 22.9522ZM99.0869 26.3709C99.0362 26.9694 98.7877 27.8572 98.0789 28.6677L89.0459 20.768C87.8102 22.181 87.259 23.8331 87.1298 25.3576L99.0869 26.3709ZM98.0596 28.6897C97.5972 29.2132 97.0239 29.5623 96.4794 29.743L92.7006 18.3535C91.3334 18.8071 90.0751 19.6026 89.0653 20.7459L98.0596 28.6897ZM96.4692 29.7464C96.6854 29.6751 97.0756 29.5775 97.6926 29.4986L96.1693 17.5956C94.9966 17.7457 93.8262 17.9823 92.7107 18.3501L96.4692 29.7464ZM97.74 29.4923C98.0922 29.4444 98.3597 29.4177 98.5535 29.4046C98.7554 29.3909 98.824 29.3957 98.7918 29.3941L99.3777 17.4084C98.309 17.3562 97.1722 17.459 96.1219 17.6019L97.74 29.4923ZM98.7602 29.3925C100.149 29.4677 100.284 29.7885 100.036 29.5659L108.066 20.6481C105.555 18.3873 102.379 17.5709 99.4093 17.41L98.7602 29.3925ZM100.036 29.5659C99.9742 29.5099 99.9132 29.4412 99.8611 29.3659C99.8097 29.2914 99.7821 29.2323 99.7708 29.2039C99.7497 29.1511 99.8104 29.2716 99.8199 29.669L111.816 29.3818C111.742 26.2698 110.731 23.0482 108.066 20.6481L100.036 29.5659ZM89.4189 34.0603C89.2439 36.1251 89.8508 38.4558 91.7278 40.2261L99.9613 31.4963C100.469 31.9747 100.893 32.6026 101.146 33.3354C101.391 34.0434 101.411 34.6602 101.376 35.0736L89.4189 34.0603ZM91.7978 40.291C93.4685 41.8173 95.4368 42.2764 96.8611 42.3971L97.8744 30.44C97.9567 30.447 98.9096 30.5345 99.8913 31.4314L91.7978 40.291ZM96.8611 42.3971C98.3047 42.5195 99.7519 42.3839 101.163 41.9728L97.805 30.4521C97.8203 30.4476 97.8405 30.4435 97.8607 30.4415C97.8807 30.4396 97.8869 30.4411 97.8744 30.44L96.8611 42.3971ZM101.234 41.9516C102.22 41.6507 103.202 41.2645 104.135 40.7613L98.4399 30.199C98.3358 30.2551 98.115 30.3571 97.7338 30.4733L101.234 41.9516ZM107.266 35.9868L107.455 33.7614L95.4976 32.7481L95.309 34.9735L107.266 35.9868ZM107.455 33.7614C107.446 33.8667 107.435 33.9341 107.432 33.9529C107.429 33.9741 107.429 33.97 107.436 33.9357L95.6972 31.4471C95.6213 31.8053 95.5391 32.258 95.4976 32.7481L107.455 33.7614ZM102.83 26.8258C102.126 26.6742 101.39 26.5835 100.69 26.5242L99.677 38.4814C99.8737 38.498 100.025 38.5151 100.137 38.5304C100.192 38.5379 100.234 38.5444 100.263 38.5494C100.292 38.5544 100.305 38.5573 100.304 38.557L102.83 26.8258ZM100.69 26.5242C99.5969 26.4316 98.487 26.4105 97.4027 26.5112L98.5133 38.4597C98.7145 38.441 99.0883 38.4315 99.677 38.4814L100.69 26.5242ZM97.387 26.5127C95.8746 26.6573 94.1364 27.1284 92.5706 28.2993L99.7571 37.9094C99.1058 38.3964 98.5637 38.4549 98.529 38.4583L97.387 26.5127ZM92.5706 28.2993C90.5769 29.7902 89.599 31.9345 89.4189 34.0603L101.376 35.0736C101.346 35.4313 101.24 35.9467 100.944 36.5112C100.64 37.0909 100.218 37.5645 99.7571 37.9094L92.5706 28.2993Z" fill="white"/>
<circle cx="69" cy="71" r="58" fill="#FFAE63" stroke="black" stroke-width="2"/>
<path d="M52.0907 114.581C51.8391 114.247 51.4059 114.105 51.005 114.225C50.6041 114.345 50.3204 114.702 50.2938 115.119L49.9468 120.572L45.5814 123.858C45.2471 124.11 45.1048 124.543 45.2248 124.944C45.3448 125.345 45.7017 125.629 46.1193 125.655L51.5723 126.002L54.8584 130.368C55.1101 130.702 55.5432 130.844 55.9441 130.724C56.345 130.604 56.6287 130.247 56.6553 129.83L57.0023 124.377L61.3677 121.091C61.702 120.839 61.8443 120.406 61.7243 120.005C61.6043 119.604 61.2474 119.32 60.8298 119.294L55.3768 118.947L52.0907 114.581Z" fill="#FFF9DB" stroke="black" stroke-width="2" stroke-linejoin="round"/>
<path d="M119.617 33.299L119.835 39.0432L124.337 42.6171L118.593 42.8347L115.019 47.337L114.801 41.5929L110.299 38.019L116.043 37.8013L119.617 33.299Z" fill="#FFF9DB"/>
<path fill-rule="evenodd" clip-rule="evenodd" d="M120.239 31.3984C121.035 31.6589 121.584 32.387 121.615 33.2233L121.798 38.0485L125.58 41.0506C126.236 41.5709 126.498 42.4443 126.238 43.2396C125.977 44.0349 125.249 44.5839 124.413 44.6156L119.587 44.7985L116.585 48.5805C116.065 49.236 115.192 49.4982 114.396 49.2377C113.601 48.9772 113.052 48.2491 113.02 47.4128L112.837 42.5876L109.055 39.5855C108.4 39.0652 108.138 38.1918 108.398 37.3965C108.659 36.6012 109.387 36.0521 110.223 36.0204L115.048 35.8376L118.05 32.0556C118.571 31.4001 119.444 31.1379 120.239 31.3984ZM116.043 37.8013L110.299 38.019L114.801 41.5928L115.019 47.337L118.593 42.8347L124.337 42.617L119.835 39.0432L119.617 33.299L116.043 37.8013Z" fill="black"/>
<path d="M41.2136 70.5524C41.3811 52.1273 50.8827 38.7415 70.8773 38.7415C91.0515 38.7415 101.191 48.3136 101.835 68.6053C102.073 76.117 98.5995 87.4132 93.0587 94.3105C92.7669 94.6738 92.5992 95.1273 92.6007 95.5933C92.6415 108.023 93.7344 114.809 95.5364 122.572C95.8239 123.81 94.8891 125 93.6177 125H61.2926C60.208 125 59.3288 124.121 59.3288 123.036V107.012H53.9326C44.9299 107.012 40.6554 102.738 41.1272 88.1243C41.1611 87.0718 40.3838 86.1543 39.3357 86.052L36.3881 85.7646C34.9922 85.6285 34.1849 84.1152 34.8492 82.88L40.9771 71.4855C41.1308 71.1996 41.2106 70.877 41.2136 70.5524Z" fill="#5C7CFA"/>
<path d="M79.848 98.0989C79.848 102.931 76.1379 107.012 70.6654 107.012C62.826 107.012 62.8284 107.012 53.9326 107.012C44.9299 107.012 40.6554 102.738 41.1272 88.1243C41.1611 87.0718 40.3838 86.1543 39.3357 86.052L36.3881 85.7646C34.9922 85.6285 34.1849 84.1152 34.8492 82.88L40.9771 71.4855C41.1308 71.1996 41.2106 70.877 41.2136 70.5524C41.3811 52.1273 50.8827 38.7415 70.8773 38.7415C91.0515 38.7415 101.191 48.3136 101.835 68.6053C102.073 76.117 98.5995 87.4132 93.0587 94.3105C92.7669 94.6738 92.5992 95.1273 92.6007 95.5933C92.6415 108.023 93.7344 114.809 95.5364 122.572C95.8239 123.81 94.8891 125 93.6177 125H61.2926C60.208 125 59.3288 124.121 59.3288 123.036V107.012" stroke="black" stroke-width="2" stroke-linecap="round" stroke-linejoin="round"/>
<rect x="66.7606" y="80.2736" width="11.6238" height="5.37252" rx="1.98186" transform="rotate(7.89375 66.7606 80.2736)" fill="white" stroke="black" stroke-width="2"/>
<path fill-rule="evenodd" clip-rule="evenodd" d="M66.8889 80.7402C66.8889 80.7402 67.1005 76.92 66.366 75.8249C65.1399 73.9967 62.4174 71.3202 63.2554 65.2755C65.1384 51.6949 87.6652 55.0472 85.8134 68.4032C84.9753 74.4478 81.6273 76.2826 79.95 77.7083C78.9453 78.5623 78.1095 82.2959 78.1095 82.2959L66.8889 80.7402Z" fill="#FFE066"/>
<path fill-rule="evenodd" clip-rule="evenodd" d="M64.892 80.6303C64.892 80.6302 64.8921 80.6301 64.8921 80.6299L64.8921 80.6296L64.8923 80.6252L64.8936 80.6001C64.8947 80.5767 64.8964 80.5402 64.8983 80.4923C64.9023 80.3964 64.9072 80.2554 64.9111 80.0816C64.9189 79.7318 64.9219 79.2606 64.9043 78.7645C64.8863 78.2604 64.8482 77.7727 64.7837 77.3766C64.7278 77.0338 64.6734 76.9009 64.6754 76.8951C64.5818 76.7585 64.4592 76.5915 64.3166 76.397C63.7451 75.618 62.8512 74.3996 62.2068 72.9384C61.3267 70.9429 60.8049 68.3878 61.2745 65.0008C61.8303 60.9922 63.953 58.127 66.8178 56.4347C69.6247 54.7767 73.0351 54.3008 76.2196 54.7585C79.4043 55.2162 82.5439 56.6334 84.7849 58.9928C87.0701 61.3987 88.3439 64.7151 87.7945 68.6779C87.3249 72.0648 86.1276 74.3815 84.7378 76.0624C83.7201 77.2931 82.5285 78.2223 81.7666 78.8165C81.5764 78.9648 81.413 79.0922 81.2858 79.1982C81.2862 79.2043 81.1976 79.3173 81.0506 79.632C80.8807 79.9956 80.7114 80.4545 80.557 80.9347C80.405 81.4074 80.2797 81.8616 80.192 82.2003C80.1485 82.3686 80.1149 82.5057 80.0926 82.599C80.0814 82.6456 80.0731 82.6812 80.0679 82.704L80.0622 82.7286L80.0613 82.7328L80.0612 82.7331C79.8337 83.7485 78.8656 84.4199 77.8349 84.2769L66.6143 82.7212C65.5838 82.5783 64.8349 81.6692 64.892 80.6304C64.892 80.6304 64.892 80.6303 64.892 80.6303ZM78.1096 82.2959C78.1096 82.2959 78.9453 78.5623 79.9501 77.7083C80.163 77.5273 80.4028 77.3398 80.661 77.1379C82.4369 75.749 85.0817 73.6806 85.8135 68.4032C87.6653 55.0472 65.1385 51.695 63.2555 65.2755C62.5238 70.5529 64.5062 73.2629 65.8372 75.0826C66.0307 75.3471 66.2104 75.5928 66.3661 75.8249C67.1006 76.92 66.889 80.7402 66.889 80.7402L78.1096 82.2959Z" fill="black"/>
<path d="M69.7527 69L73.406 74.3396L78.2143 70.1732" stroke="black" stroke-width="2" stroke-linecap="round" stroke-linejoin="round"/>
<path d="M73.3521 74.3322L72.2568 82.2316" stroke="black" stroke-width="2" stroke-linecap="round" stroke-linejoin="round"/>
<path d="M66.7832 47.2204C66.3346 46.2111 65.1527 45.7565 64.1433 46.2051C63.1339 46.6537 62.6793 47.8356 63.1279 48.845L65.2653 53.654C65.7139 54.6633 66.8958 55.1179 67.9052 54.6693C68.9145 54.2207 69.3691 53.0388 68.9205 52.0294L66.7832 47.2204Z" fill="white" stroke="black" stroke-width="2" stroke-linecap="round"/>
<path d="M78.6876 45.6652C78.8556 44.5735 78.1067 43.5523 77.015 43.3843C75.9233 43.2164 74.9021 43.9652 74.7341 45.057L73.6655 52.0033C73.4975 53.095 74.2464 54.1162 75.3381 54.2841C76.4298 54.4521 77.451 53.7032 77.619 52.6115L78.6876 45.6652Z" fill="white" stroke="black" stroke-width="2" stroke-linecap="round"/>
<path d="M89.0248 52.4012C89.6668 51.5023 89.4586 50.2532 88.5598 49.6112C87.661 48.9692 86.4119 49.1774 85.7699 50.0762L86.5836 50.6575L85.7699 50.0762L83.0982 53.8165C82.4562 54.7154 82.6644 55.9645 83.5632 56.6065C84.462 57.2485 85.7111 57.0403 86.3531 56.1415L89.0248 52.4012Z" fill="white" stroke="black" stroke-width="2" stroke-linecap="round"/>
<path d="M49.6824 35.6039C49.2949 35.5711 48.943 35.4556 48.6267 35.2575C48.3198 35.0602 48.08 34.8019 47.9072 34.4827C47.7438 34.1643 47.6785 33.8114 47.7114 33.4239L49.1661 16.2585C49.1989 15.8711 49.3226 15.5342 49.5372 15.2478C49.7613 14.9622 50.0412 14.748 50.3769 14.6051C50.7221 14.4631 51.0883 14.4084 51.4758 14.4413C51.8632 14.4741 52.2104 14.5892 52.5173 14.7865C52.8336 14.9846 53.0734 15.2429 53.2368 15.5613C53.4096 15.8805 53.4796 16.2338 53.4468 16.6213L51.9921 33.7867C51.9593 34.1741 51.8308 34.5106 51.6067 34.7962C51.3921 35.0826 51.1122 35.2968 50.7671 35.4389C50.4314 35.5817 50.0698 35.6368 49.6824 35.6039Z" fill="#5C7CFA"/>
<path d="M70.815 15.8518C71.4103 15.9022 71.8881 16.1045 72.2483 16.4586C72.6179 16.8136 72.7795 17.2651 72.7331 17.8131L71.2195 35.6731C71.1731 36.2212 70.9382 36.6343 70.5149 36.9125C70.1018 37.1821 69.5976 37.2916 69.0023 37.2412C68.407 37.1907 67.9237 36.9975 67.5524 36.6615C67.1914 36.3168 67.0341 35.8704 67.0806 35.3223L67.1262 34.7837C66.5008 35.4255 65.7456 35.9135 64.8607 36.2478C63.9852 36.5828 62.9947 36.7035 61.8891 36.6098C60.5378 36.4953 59.3727 36.092 58.394 35.4C57.4246 34.7087 56.6967 33.7523 56.2101 32.5309C55.7243 31.3001 55.524 29.8459 55.609 28.1685C55.6915 26.6337 56.0801 25.2485 56.7749 24.013C57.4792 22.7783 58.4016 21.8333 59.5421 21.178C60.6834 20.5134 61.9203 20.2375 63.2527 20.3504C65.5773 20.5474 67.196 21.4936 68.1088 23.1889L68.5941 17.4624C68.6406 16.9143 68.8711 16.496 69.2858 16.2076C69.7099 15.9199 70.2196 15.8013 70.815 15.8518ZM67.5096 30.0907C67.5136 30.0435 67.5212 30.0108 67.5322 29.9927L67.6992 28.0224C67.7521 27.3988 67.6367 26.7941 67.3532 26.2086C67.08 25.6144 66.6511 25.1164 66.0665 24.7147C65.4827 24.3036 64.7797 24.0632 63.9576 23.9935C63.2772 23.9358 62.6261 24.0948 62.0041 24.4704C61.3925 24.8373 60.881 25.3698 60.4697 26.0678C60.0686 26.7571 59.8317 27.5318 59.7588 28.3917C59.6811 29.3083 59.7638 30.1291 60.007 30.854C60.2595 31.5797 60.6525 32.165 61.1859 32.61C61.7295 33.0462 62.384 33.2968 63.1494 33.3617C63.9526 33.4298 64.675 33.3292 65.3164 33.0599C65.9587 32.7813 66.4684 32.3819 66.8456 31.8618C67.233 31.3331 67.4544 30.7428 67.5096 30.0907Z" fill="#5C7CFA"/>
<path d="M81.8315 38.3141C80.0927 38.1668 78.6356 37.7292 77.46 37.0014C76.2843 36.2736 75.4253 35.2919 74.8828 34.0562C74.3506 32.8119 74.155 31.3582 74.2959 29.695C74.4449 27.9374 74.8698 26.4601 75.5709 25.2632C76.2727 24.0568 77.2183 23.1757 78.4075 22.6198C79.5967 22.0638 80.9941 21.8587 82.5998 22.0042C84.0715 22.1575 85.3299 22.583 86.3748 23.2807C87.4197 23.9783 88.193 24.9052 88.6946 26.0613C89.2065 27.2087 89.4094 28.5203 89.3034 29.9961C89.2116 30.8544 88.9879 31.4731 88.6322 31.8522C88.2764 32.2313 87.697 32.3868 86.8937 32.3188L78.2331 31.5848C78.1592 32.5684 78.485 33.3288 79.2104 33.8662C79.9366 34.3941 80.9174 34.7247 82.1529 34.8579C83.2011 34.9563 84.3945 34.7433 85.7333 34.2191C86.1376 34.0535 86.4264 33.959 86.5997 33.9356C86.658 33.9215 86.7486 33.9197 86.8714 33.9301C87.1171 33.9509 87.3371 34.0505 87.5314 34.2287C87.7256 34.407 87.8687 34.6285 87.9604 34.8933C88.0617 35.1588 88.1007 35.4286 88.0774 35.7026C88.039 36.1562 87.877 36.5518 87.5914 36.8892C87.3153 37.2275 86.9952 37.4669 86.6311 37.6073C85.9109 37.908 85.1317 38.1179 84.2935 38.2373C83.4554 38.3566 82.6347 38.3822 81.8315 38.3141ZM85.4643 28.9712C85.525 28.3672 85.4249 27.8067 85.1642 27.2897C84.9129 26.7735 84.539 26.3563 84.0425 26.0382C83.5468 25.7107 82.9776 25.5197 82.335 25.4652C81.7208 25.4132 81.132 25.5108 80.5685 25.7581C80.0058 25.9959 79.5431 26.347 79.1801 26.8111C78.8172 27.2753 78.6062 27.7999 78.5471 28.385L85.4643 28.9712Z" fill="#5C7CFA"/>
<path d="M105.818 29.5254C105.834 30.1263 105.821 30.7296 105.779 31.3352C105.748 31.9321 105.698 32.6322 105.63 33.4354L105.188 38.6517C105.142 39.1903 104.913 39.5849 104.502 39.8356C104.101 40.0776 103.593 40.1726 102.979 40.1205C102.412 40.0725 101.945 39.9092 101.578 39.6307C101.221 39.353 101.044 38.9715 101.047 38.4864C100.368 38.8666 99.5963 39.1534 98.7329 39.3467C97.8789 39.5408 97.0125 39.6006 96.1336 39.5262C95.0469 39.4341 94.1188 39.1556 93.3492 38.6906C92.589 38.2264 92.0272 37.6125 91.6636 36.8489C91.3008 36.0757 91.1611 35.1978 91.2444 34.215C91.318 33.3457 91.6421 32.5546 92.2164 31.8419C92.7916 31.1197 93.5788 30.5344 94.578 30.0861C95.5781 29.6284 96.7291 29.3548 98.0311 29.2652C98.5383 29.2321 99.1747 29.2479 99.9401 29.3128C100.545 29.364 101.129 29.4373 101.692 29.5326C101.739 29.5366 101.772 29.5441 101.79 29.5552C101.763 29.3055 101.699 29.0002 101.596 28.6394C101.441 28.1123 101.089 27.716 100.54 27.4506C99.9919 27.1852 99.3388 27.03 98.5813 26.9848C98.193 26.9614 97.7279 27.0029 97.1859 27.1092C96.6439 27.2156 96.0365 27.364 95.3636 27.5544C95.1296 27.6202 94.904 27.644 94.6866 27.6255C94.2236 27.5863 93.8344 27.4058 93.519 27.084C93.2045 26.7528 93.0676 26.3462 93.1084 25.8643C93.1477 25.4012 93.299 25.0191 93.5625 24.7178C93.8362 24.4079 94.1787 24.1847 94.59 24.0483C95.2559 23.8287 96.0362 23.6616 96.931 23.5471C97.8361 23.4239 98.554 23.3753 99.0848 23.4013C101.264 23.5193 102.919 24.0879 104.051 25.107C105.183 26.1261 105.772 27.5989 105.818 29.5254ZM95.3975 34.567C95.3519 35.1056 95.5009 35.537 95.8446 35.8612C96.1891 36.1759 96.6969 36.3617 97.3678 36.4186C98.0954 36.4802 98.8008 36.4115 99.4839 36.2124C100.168 36.0039 100.769 35.7598 101.288 35.4802L101.476 33.2548C101.489 33.1036 101.519 32.9158 101.567 32.6914C101.202 32.6129 100.741 32.55 100.184 32.5028C99.3427 32.4315 98.6008 32.4257 97.9581 32.4855C97.2192 32.5561 96.6212 32.7624 96.1639 33.1044C95.7066 33.4463 95.4512 33.9339 95.3975 34.567Z" fill="#5C7CFA"/>
<path fill-rule="evenodd" clip-rule="evenodd" d="M46.4832 38.6348L46.4632 38.622C45.5921 38.0619 44.8851 37.3025 44.3895 36.3871L44.3684 36.3481L44.3482 36.3087C43.8131 35.2658 43.6351 34.1535 43.7256 33.0862L45.1803 15.9207C45.2707 14.8534 45.6333 13.7869 46.3363 12.8489L46.3629 12.8135L46.3902 12.7786C47.0328 11.9596 47.8575 11.3301 48.8105 10.9246L48.8324 10.9153L48.8543 10.9062C49.8128 10.5117 50.8193 10.3713 51.8135 10.4556C52.7996 10.5391 53.7742 10.8441 54.6605 11.4092C55.5393 11.9643 56.2729 12.7342 56.7755 13.6964C57.3301 14.7398 57.525 15.8663 57.4324 16.9591L57.3593 17.8214C57.4189 17.7856 57.4789 17.7503 57.5393 17.7155C59.3979 16.6358 61.4535 16.1836 63.5904 16.3647C63.9625 16.3962 64.3305 16.4428 64.6928 16.505C64.9553 15.1191 65.7063 13.8249 67.0015 12.9239L67.0209 12.9104L67.0404 12.8972C68.3449 12.0125 69.803 11.7517 71.1526 11.8661C72.4929 11.9796 73.8967 12.4786 75.0359 13.59C76.3342 14.8468 76.8579 16.5085 76.7187 18.1509L76.6443 19.0288C76.6673 19.0178 76.6904 19.007 76.7135 18.9962C78.6751 18.0791 80.8104 17.8256 82.9609 18.0206L82.9875 18.023L83.0141 18.0258C85.0173 18.2344 86.9221 18.8365 88.5959 19.954C89.4131 20.4997 90.1338 21.1403 90.7514 21.8672C91.4819 21.1093 92.3657 20.5718 93.3304 20.2518L93.3371 20.2495C94.2979 19.9326 95.3328 19.7198 96.4072 19.5815C97.4038 19.4464 98.3953 19.3628 99.28 19.406L99.2906 19.4066L99.3011 19.4071C102.007 19.5537 104.676 20.2875 106.728 22.1344C108.881 24.0736 109.751 26.7113 109.817 29.4273C109.835 30.1432 109.82 30.8602 109.772 31.5779C109.737 32.2211 109.685 32.9547 109.615 33.7732L109.173 38.9894C109.035 40.6205 108.228 42.2492 106.583 43.2517L106.575 43.2562L106.568 43.2607C105.247 44.0575 103.832 44.2072 102.641 44.1063C101.699 44.0265 100.694 43.7696 99.7549 43.2161C99.7076 43.2272 99.6602 43.2381 99.6128 43.2487C98.3568 43.5335 97.0795 43.6207 95.7958 43.5119C94.2252 43.3788 92.6766 42.9576 91.2807 42.1143L91.2726 42.1094L91.2645 42.1045C90.5811 41.6871 89.9644 41.1869 89.429 40.6067C89.0374 40.8866 88.6046 41.1273 88.13 41.316C87.0842 41.7482 85.9879 42.0364 84.8573 42.1973C83.7355 42.357 82.6121 42.3946 81.4936 42.2999C79.2881 42.1129 77.1868 41.5368 75.3544 40.4025C74.8115 40.0663 74.3061 39.6908 73.841 39.2773C73.5217 39.6404 73.1458 39.9699 72.7117 40.2553L72.7009 40.2624C71.3931 41.1158 69.9549 41.3363 68.6645 41.2269C67.6462 41.1406 66.5853 40.838 65.6243 40.2107C64.2948 40.6102 62.9182 40.7114 61.5512 40.5956C59.5855 40.429 57.718 39.821 56.0845 38.666L56.0779 38.6613L56.0714 38.6566C55.5458 38.2818 55.0685 37.8647 54.6381 37.4107C54.002 38.1831 53.2028 38.7579 52.3111 39.1288C51.3425 39.5366 50.3305 39.6732 49.3445 39.5896C48.3503 39.5054 47.3818 39.1976 46.5034 38.6475L46.4832 38.6348ZM50.767 35.4389C51.1121 35.2968 51.392 35.0826 51.6067 34.7962C51.8307 34.5106 51.9592 34.1741 51.992 33.7867L53.4467 16.6213C53.4795 16.2339 53.4095 15.8805 53.2367 15.5613C53.0734 15.2429 52.8335 14.9846 52.5172 14.7865C52.2103 14.5892 51.8631 14.4741 51.4757 14.4413C51.0883 14.4085 50.722 14.4631 50.3768 14.6051C50.0411 14.748 49.7612 14.9622 49.5372 15.2478C49.3225 15.5342 49.1988 15.8711 49.166 16.2585L47.7113 33.4239C47.6785 33.8114 47.7437 34.1643 47.9071 34.4827C48.0799 34.8019 48.3198 35.0602 48.6266 35.2575C48.943 35.4556 49.2948 35.5711 49.6823 35.6039C50.0697 35.6368 50.4313 35.5817 50.767 35.4389ZM62.0041 24.4704C62.0513 24.4419 62.0987 24.4146 62.1463 24.3886C62.4049 24.2471 62.6684 24.1425 62.937 24.0749C63.2695 23.9912 63.6097 23.964 63.9575 23.9935C64.6137 24.0491 65.194 24.2135 65.6984 24.4867C65.8259 24.5557 65.9486 24.6318 66.0664 24.7147C66.651 25.1164 67.0799 25.6144 67.3532 26.2086C67.6367 26.7941 67.752 27.3988 67.6991 28.0224L67.5321 29.9927C67.5211 30.0108 67.5136 30.0435 67.5096 30.0907C67.4998 30.2059 67.4849 30.3192 67.4647 30.4305C67.3709 30.9494 67.1645 31.4265 66.8455 31.8618C66.4739 32.3742 65.9736 32.7695 65.3446 33.0476C65.3352 33.0517 65.3258 33.0558 65.3164 33.0599C64.8467 33.2571 64.3337 33.3638 63.7774 33.3801C63.7726 33.3802 63.7679 33.3804 63.7632 33.3805C63.5641 33.3858 63.3595 33.3795 63.1493 33.3617C62.8041 33.3324 62.4814 33.2654 62.1813 33.1606C61.816 33.033 61.4842 32.8495 61.1858 32.61C61.0181 32.4701 60.8643 32.3164 60.7244 32.1487C60.4192 31.7831 60.1801 31.3516 60.0069 30.854C59.7638 30.1291 59.681 29.3083 59.7587 28.3917C59.8316 27.5318 60.0686 26.7571 60.4696 26.0678C60.8809 25.3698 61.3924 24.8373 62.0041 24.4704ZM74.4581 28.4361C74.387 28.8384 74.3329 29.258 74.2958 29.695C74.256 30.165 74.243 30.6182 74.257 31.0547C74.2574 31.0687 74.2579 31.0826 74.2584 31.0966C74.2607 31.1605 74.2636 31.224 74.267 31.2871C74.2811 31.5449 74.3048 31.7968 74.3382 32.0426C74.4363 32.7657 74.6178 33.4369 74.8827 34.0562C75.0063 34.3377 75.1462 34.6059 75.3026 34.861C75.7559 35.6003 76.3471 36.229 77.0763 36.747C77.085 36.7532 77.0938 36.7594 77.1026 36.7656C77.2183 36.847 77.3374 36.9256 77.4599 37.0014C78.624 37.7221 80.0642 38.1582 81.7806 38.3097C81.7966 38.3112 81.8126 38.3125 81.8286 38.3139L81.8314 38.3141C82.6346 38.3822 83.4553 38.3566 84.2935 38.2373C84.9062 38.15 85.4875 38.0143 86.0373 37.8302C86.2138 37.771 86.3871 37.7069 86.5571 37.6378C86.5818 37.6277 86.6065 37.6176 86.6311 37.6073C86.7558 37.5592 86.8754 37.4995 86.9898 37.4281C87.0052 37.4185 87.0206 37.4087 87.0358 37.3986C87.0453 37.3923 87.0548 37.386 87.0643 37.3795C87.1714 37.3065 87.2738 37.2229 87.3715 37.1287C87.4127 37.089 87.4531 37.0474 87.4926 37.0039C87.5261 36.967 87.559 36.9288 87.5913 36.8892C87.7439 36.709 87.8611 36.5122 87.9431 36.2988C88.0147 36.1127 88.0594 35.914 88.0774 35.7027C88.1006 35.4286 88.0616 35.1588 87.9604 34.8933C87.8686 34.6285 87.7256 34.407 87.5313 34.2287C87.4418 34.1467 87.3469 34.0813 87.2466 34.0326C87.129 33.9755 87.0039 33.9413 86.8713 33.9301C86.8297 33.9266 86.7918 33.9245 86.7576 33.9237C86.6908 33.9223 86.6382 33.9263 86.5996 33.9356C86.4263 33.959 86.1375 34.0535 85.7333 34.2191C85.6128 34.2663 85.4936 34.3109 85.3755 34.3531C85.3455 34.3637 85.3157 34.3742 85.2859 34.3846C85.1259 34.4402 84.968 34.4912 84.8123 34.5375C84.7872 34.5449 84.7622 34.5523 84.7373 34.5595C84.587 34.6029 84.4388 34.6419 84.2927 34.6765C84.1261 34.716 83.9622 34.7498 83.801 34.7778C83.2166 34.8795 82.6672 34.9062 82.1529 34.8579C82.1434 34.8569 82.134 34.8559 82.1246 34.8549C80.9761 34.7278 80.049 34.4291 79.3434 33.9589C79.2982 33.9287 79.2538 33.8978 79.2103 33.8662C78.7542 33.5283 78.456 33.1022 78.3159 32.5878C78.3128 32.5763 78.3097 32.5647 78.3067 32.5531C78.2918 32.495 78.2789 32.4359 78.268 32.3757C78.2517 32.2857 78.2398 32.1933 78.2323 32.0985C78.2194 31.9346 78.2196 31.7634 78.233 31.5848L86.8937 32.3188C86.932 32.322 86.9698 32.3248 87.0072 32.327C87.1987 32.3384 87.3767 32.3365 87.5414 32.3211C88.0169 32.2767 88.3805 32.1204 88.6321 31.8522C88.9059 31.5604 89.1015 31.1266 89.219 30.5508C89.2541 30.3786 89.2822 30.1937 89.3033 29.9961C89.3144 29.8424 89.3221 29.6905 89.3264 29.5403C89.3267 29.5314 89.3269 29.5225 89.3271 29.5137C89.3285 29.4621 89.3295 29.4108 89.33 29.3597C89.3311 29.2588 89.3307 29.1587 89.3287 29.0594C89.3069 27.9593 89.0955 26.96 88.6945 26.0613C88.6355 25.9253 88.5727 25.7924 88.5062 25.6627C88.4982 25.6472 88.4902 25.6317 88.4821 25.6163C87.9844 24.665 87.282 23.8864 86.3747 23.2807C86.257 23.2021 86.1366 23.1269 86.0134 23.0552C85.9989 23.0468 85.9843 23.0383 85.9696 23.03C85.0164 22.4842 83.9025 22.1432 82.628 22.0072C82.6186 22.0062 82.6092 22.0052 82.5997 22.0042C81.3051 21.8869 80.1458 21.9975 79.1219 22.3362C79.1058 22.3415 79.0897 22.3469 79.0737 22.3523C78.8448 22.43 78.6227 22.5191 78.4074 22.6198C77.5394 23.0256 76.8012 23.6046 76.1928 24.3569C76.1733 24.3811 76.1539 24.4054 76.1347 24.4299C75.9319 24.6879 75.7439 24.9656 75.5708 25.2632C75.2196 25.8628 74.9377 26.5328 74.725 27.2732C74.6756 27.4454 74.6299 27.6213 74.5879 27.8011C74.5397 28.0077 74.4964 28.2194 74.4581 28.4361ZM78.547 28.385C78.5743 28.1145 78.6341 27.8569 78.7264 27.6123C78.7774 27.4771 78.8383 27.3458 78.9091 27.2185C78.9109 27.2152 78.9128 27.2119 78.9146 27.2086C78.9916 27.0715 79.08 26.939 79.18 26.8111C79.4153 26.5103 79.6924 26.257 80.0115 26.0512C80.1848 25.9395 80.3704 25.8418 80.5684 25.7581C81.1028 25.5236 81.66 25.4237 82.24 25.4584C82.2554 25.4593 82.2708 25.4603 82.2862 25.4614C82.3025 25.4626 82.3187 25.4639 82.335 25.4652C82.9776 25.5197 83.5467 25.7107 84.0424 26.0382C84.1593 26.1131 84.2693 26.1934 84.3726 26.2793C84.7081 26.5582 84.972 26.895 85.1641 27.2897C85.2063 27.3733 85.2442 27.458 85.278 27.5438C85.2826 27.5556 85.2872 27.5675 85.2917 27.5794C85.3655 27.7744 85.4177 27.9753 85.4485 28.182C85.4812 28.402 85.4895 28.6286 85.4735 28.8618C85.471 28.8981 85.4679 28.9346 85.4642 28.9712L78.547 28.385ZM91.5171 33.0334C91.4443 33.2196 91.3853 33.4102 91.34 33.605C91.3303 33.6468 91.3212 33.6889 91.3128 33.7312C91.281 33.8897 91.2582 34.051 91.2443 34.215C91.242 34.2425 91.2398 34.2699 91.2378 34.2972C91.2227 34.506 91.2178 34.7099 91.223 34.9091C91.2328 35.2832 91.2786 35.6405 91.3603 35.9809C91.4329 36.2836 91.534 36.5729 91.6635 36.8489C91.7216 36.9709 91.7848 37.0891 91.853 37.2034C91.9772 37.4117 92.1182 37.6073 92.2759 37.7901C92.5476 38.1051 92.8691 38.3825 93.2404 38.6223C93.2575 38.6334 93.2748 38.6444 93.2921 38.6553C93.311 38.6671 93.33 38.6789 93.3491 38.6906C94.1187 39.1556 95.0468 39.4341 96.1336 39.5262C96.4581 39.5537 96.7809 39.5629 97.102 39.5537C97.1163 39.5533 97.1305 39.5529 97.1448 39.5524C97.6788 39.5345 98.2082 39.466 98.7328 39.3467C99.2779 39.2247 99.7863 39.0654 100.258 38.8689C100.269 38.8645 100.279 38.86 100.29 38.8556C100.554 38.7443 100.806 38.6212 101.047 38.4864C101.044 38.9715 101.221 39.353 101.578 39.6307C101.606 39.652 101.635 39.6726 101.664 39.6925C101.694 39.7128 101.724 39.7324 101.755 39.7513C102.091 39.9568 102.499 40.0799 102.979 40.1205C103.593 40.1726 104.101 40.0776 104.502 39.8356C104.913 39.585 105.142 39.1903 105.188 38.6517L105.63 33.4354C105.659 33.0851 105.685 32.7545 105.708 32.4434C105.738 32.0412 105.761 31.6718 105.779 31.3352C105.818 30.7673 105.832 30.2014 105.821 29.6376C105.82 29.6002 105.819 29.5628 105.818 29.5254C105.818 29.5219 105.818 29.5184 105.818 29.515C105.77 27.5936 105.181 26.1243 104.051 25.107C104.013 25.0727 103.974 25.0388 103.935 25.0055C103.45 24.5943 102.874 24.261 102.207 24.0057C101.325 23.6677 100.284 23.4662 99.0848 23.4013C98.9944 23.3969 98.8986 23.3946 98.7974 23.3945L98.7952 23.3945C98.3023 23.3942 97.6809 23.4451 96.9309 23.5471C96.7838 23.5659 96.6398 23.5862 96.4988 23.6079C96.1825 23.6565 95.8819 23.7123 95.5968 23.7752C95.3897 23.8209 95.1909 23.8704 95.0003 23.9236C94.859 23.9631 94.7222 24.0046 94.59 24.0483C94.5241 24.0701 94.4599 24.0942 94.3976 24.1205L94.3923 24.1228C94.0677 24.2606 93.7911 24.459 93.5624 24.7178C93.299 25.0191 93.1476 25.4013 93.1084 25.8643C93.0938 26.0362 93.1018 26.1986 93.1325 26.3513C93.1878 26.6267 93.3166 26.871 93.5189 27.084C93.8343 27.4058 94.2235 27.5863 94.6866 27.6255C94.9039 27.644 95.1296 27.6203 95.3636 27.5544C95.4825 27.5208 95.5994 27.4884 95.7143 27.4574C95.7164 27.4568 95.7184 27.4563 95.7205 27.4557C95.9741 27.3872 96.2178 27.3251 96.4515 27.2695C96.459 27.2677 96.4665 27.2659 96.474 27.2641C96.5446 27.2474 96.6142 27.2313 96.6829 27.2157C96.8564 27.1765 97.024 27.141 97.1858 27.1093C97.2524 27.0962 97.3179 27.0841 97.3822 27.073C97.3915 27.0714 97.4008 27.0698 97.4101 27.0682C97.5728 27.0407 97.7279 27.0195 97.8756 27.0046C97.8781 27.0043 97.8807 27.0041 97.8832 27.0038C98.1384 26.9785 98.3711 26.9721 98.5812 26.9848C98.6859 26.991 98.7886 26.9994 98.8893 27.0098C98.8956 27.0105 98.9019 27.0112 98.9083 27.0118C99.348 27.0587 99.7496 27.1459 100.113 27.2735C100.262 27.3257 100.404 27.3848 100.54 27.4506C100.828 27.5899 101.062 27.7652 101.241 27.9765C101.404 28.1673 101.522 28.3875 101.595 28.6371L101.596 28.6394C101.649 28.8246 101.691 28.9951 101.724 29.1511C101.73 29.1807 101.736 29.2097 101.741 29.2383C101.763 29.3524 101.779 29.458 101.79 29.5552C101.772 29.5442 101.739 29.5366 101.692 29.5326C101.288 29.4644 100.875 29.4074 100.45 29.3617C100.282 29.3437 100.112 29.3273 99.94 29.3128C99.8414 29.3044 99.7448 29.2969 99.6505 29.2902C99.5771 29.2849 99.505 29.2802 99.4342 29.2759C99.4132 29.2747 99.3923 29.2734 99.3716 29.2723C99.0327 29.2531 98.7243 29.2455 98.4462 29.2494L98.4448 29.2494C98.2985 29.2515 98.1605 29.2568 98.031 29.2652C97.9065 29.2738 97.7833 29.284 97.6615 29.296C97.6587 29.2962 97.6559 29.2965 97.6532 29.2968C97.6407 29.298 97.6282 29.2993 97.6158 29.3005C97.0254 29.3606 96.4677 29.4605 95.9426 29.6002L95.9393 29.6011C95.4581 29.7293 95.0043 29.891 94.578 30.0862C94.543 30.1018 94.5084 30.1176 94.474 30.1336C94.341 30.1955 94.2119 30.2598 94.0867 30.3267C93.7747 30.4932 93.4867 30.6752 93.2227 30.8728C93.06 30.9946 92.9063 31.1223 92.7618 31.2559C92.5627 31.44 92.3808 31.6353 92.2163 31.8419C92.0895 31.9993 91.9749 32.1605 91.8724 32.3256C91.7306 32.5542 91.6121 32.7901 91.5171 33.0334ZM95.4507 34.2182C95.4255 34.3291 95.4078 34.4454 95.3974 34.567C95.3744 34.8387 95.4009 35.0831 95.477 35.3003C95.5517 35.5136 95.6742 35.7006 95.8445 35.8612C96.0009 36.0041 96.1909 36.1204 96.4146 36.2101C96.6836 36.318 97.0013 36.3875 97.3677 36.4186C97.6047 36.4387 97.8392 36.4449 98.0715 36.4373C98.0748 36.4372 98.078 36.4371 98.0813 36.437C98.1625 36.4342 98.2434 36.4298 98.324 36.4236C98.3275 36.4233 98.3309 36.4231 98.3344 36.4228C98.3517 36.4214 98.3689 36.42 98.3862 36.4185C98.7582 36.386 99.1241 36.3173 99.4838 36.2124C99.5674 36.187 99.6497 36.1609 99.7308 36.1344C99.7811 36.118 99.8308 36.1013 99.8801 36.0845C100.257 35.9557 100.606 35.8151 100.927 35.6625C101.051 35.6035 101.172 35.5427 101.288 35.4802L101.476 33.2548C101.489 33.1036 101.519 32.9158 101.567 32.6914C101.555 32.6888 101.542 32.6862 101.53 32.6836C101.496 32.6766 101.462 32.6696 101.426 32.6629C101.345 32.6472 101.259 32.6323 101.169 32.618C100.884 32.5727 100.555 32.5343 100.184 32.5028C100.121 32.4975 100.06 32.4926 99.9988 32.4881C99.8884 32.4798 99.7797 32.4728 99.6727 32.4669C99.6693 32.4667 99.6659 32.4665 99.6624 32.4663C99.2055 32.4414 98.7811 32.438 98.389 32.4559C98.3723 32.4567 98.3557 32.4575 98.3391 32.4583C98.3095 32.4598 98.2801 32.4615 98.2509 32.4632C98.2473 32.4634 98.2437 32.4636 98.2401 32.4639C98.144 32.4697 98.05 32.4769 97.958 32.4855C97.9354 32.4877 97.913 32.4899 97.8907 32.4923C97.8255 32.4994 97.7614 32.5075 97.6984 32.5167C97.6422 32.525 97.5868 32.5341 97.5324 32.544C96.986 32.6439 96.5298 32.8307 96.1638 33.1044C96.1118 33.1433 96.0623 33.1841 96.0155 33.2268C96.0087 33.233 96.002 33.2392 95.9953 33.2455C95.7211 33.5029 95.5396 33.8271 95.4507 34.2182Z" fill="black"/>
<path d="M49.6824 35.604C49.2949 35.5711 48.943 35.4556 48.6267 35.2575C48.3198 35.0602 48.08 34.8019 47.9072 34.4827C47.7438 34.1643 47.6785 33.8114 47.7114 33.424L49.1661 16.2585C49.1989 15.8711 49.3226 15.5342 49.5372 15.2478C49.7613 14.9623 50.0412 14.748 50.3769 14.6052C50.7221 14.4631 51.0883 14.4085 51.4758 14.4413C51.8632 14.4741 52.2104 14.5892 52.5173 14.7865C52.8336 14.9847 53.0734 15.2429 53.2368 15.5613C53.4096 15.8806 53.4796 16.2339 53.4468 16.6213L51.9921 33.7867C51.9593 34.1742 51.8308 34.5107 51.6067 34.7962C51.3921 35.0826 51.1122 35.2968 50.7671 35.4389C50.4314 35.5818 50.0698 35.6368 49.6824 35.604Z" fill="#5C7CFA"/>
<path d="M70.815 15.8518C71.4103 15.9022 71.8881 16.1045 72.2483 16.4587C72.6179 16.8136 72.7795 17.2651 72.7331 17.8132L71.2195 35.6731C71.1731 36.2212 70.9382 36.6344 70.5149 36.9126C70.1018 37.1821 69.5976 37.2917 69.0023 37.2412C68.407 37.1908 67.9237 36.9975 67.5524 36.6615C67.1914 36.3168 67.0341 35.8705 67.0806 35.3224L67.1262 34.7837C66.5008 35.4255 65.7456 35.9135 64.8607 36.2478C63.9852 36.5829 62.9947 36.7036 61.8891 36.6099C60.5378 36.4953 59.3727 36.0921 58.394 35.4C57.4246 34.7087 56.6967 33.7524 56.2101 32.531C55.7243 31.3001 55.524 29.846 55.609 28.1685C55.6915 26.6337 56.0801 25.2485 56.7749 24.013C57.4792 22.7783 58.4016 21.8333 59.5421 21.1781C60.6834 20.5134 61.9203 20.2375 63.2527 20.3504C65.5773 20.5474 67.196 21.4936 68.1088 23.1889L68.5941 17.4624C68.6406 16.9143 68.8711 16.4961 69.2858 16.2076C69.7099 15.9199 70.2196 15.8013 70.815 15.8518ZM67.5096 30.0908C67.5136 30.0435 67.5212 30.0108 67.5322 29.9927L67.6992 28.0225C67.7521 27.3988 67.6367 26.7942 67.3532 26.2086C67.08 25.6144 66.6511 25.1164 66.0665 24.7147C65.4827 24.3036 64.7797 24.0632 63.9576 23.9935C63.2772 23.9359 62.6261 24.0948 62.0041 24.4704C61.3925 24.8374 60.881 25.3698 60.4697 26.0678C60.0686 26.7572 59.8317 27.5318 59.7588 28.3917C59.6811 29.3084 59.7638 30.1291 60.007 30.854C60.2595 31.5797 60.6525 32.1651 61.1859 32.61C61.7295 33.0463 62.384 33.2969 63.1494 33.3617C63.9526 33.4298 64.675 33.3292 65.3164 33.06C65.9587 32.7813 66.4684 32.3819 66.8456 31.8619C67.233 31.3332 67.4544 30.7428 67.5096 30.0908Z" fill="#5C7CFA"/>
<path d="M81.8315 38.3142C80.0927 38.1668 78.6356 37.7292 77.46 37.0015C76.2843 36.2737 75.4253 35.2919 74.8828 34.0563C74.3506 32.812 74.155 31.3582 74.2959 29.6951C74.4449 27.9374 74.8698 26.4601 75.5709 25.2632C76.2727 24.0569 77.2183 23.1757 78.4075 22.6198C79.5967 22.0639 80.9941 21.8587 82.5998 22.0043C84.0715 22.1576 85.3299 22.583 86.3748 23.2807C87.4197 23.9784 88.193 24.9053 88.6946 26.0613C89.2065 27.2087 89.4094 28.5203 89.3034 29.9961C89.2116 30.8544 88.9879 31.4731 88.6322 31.8522C88.2764 32.2313 87.697 32.3869 86.8937 32.3188L78.2331 31.5848C78.1592 32.5684 78.485 33.3289 79.2104 33.8662C79.9366 34.3941 80.9174 34.7247 82.1529 34.858C83.2011 34.9563 84.3945 34.7434 85.7333 34.2192C86.1376 34.0535 86.4264 33.959 86.5997 33.9357C86.658 33.9216 86.7486 33.9197 86.8714 33.9301C87.1171 33.951 87.3371 34.0505 87.5314 34.2288C87.7256 34.407 87.8687 34.6285 87.9604 34.8933C88.0617 35.1588 88.1007 35.4286 88.0774 35.7027C88.039 36.1563 87.877 36.5518 87.5914 36.8893C87.3153 37.2275 86.9952 37.4669 86.6311 37.6074C85.9109 37.908 85.1317 38.118 84.2935 38.2373C83.4554 38.3566 82.6347 38.3822 81.8315 38.3142ZM85.4643 28.9712C85.525 28.3672 85.4249 27.8067 85.1642 27.2897C84.9129 26.7735 84.539 26.3563 84.0425 26.0383C83.5468 25.7107 82.9776 25.5197 82.335 25.4653C81.7208 25.4132 81.132 25.5108 80.5685 25.7581C80.0058 25.996 79.5431 26.347 79.1801 26.8111C78.8172 27.2753 78.6062 27.7999 78.5471 28.385L85.4643 28.9712Z" fill="#5C7CFA"/>
<path d="M105.818 29.5254C105.834 30.1264 105.821 30.7296 105.779 31.3352C105.748 31.9321 105.698 32.6322 105.63 33.4355L105.188 38.6517C105.142 39.1903 104.913 39.585 104.502 39.8356C104.101 40.0776 103.593 40.1726 102.979 40.1206C102.412 40.0725 101.945 39.9092 101.578 39.6307C101.221 39.353 101.044 38.9715 101.047 38.4864C100.368 38.8666 99.5963 39.1534 98.7329 39.3467C97.8789 39.5409 97.0125 39.6007 96.1336 39.5262C95.0469 39.4341 94.1188 39.1556 93.3492 38.6906C92.589 38.2265 92.0272 37.6126 91.6636 36.8489C91.3008 36.0758 91.1611 35.1978 91.2444 34.2151C91.318 33.3457 91.6421 32.5546 92.2164 31.8419C92.7916 31.1197 93.5788 30.5345 94.578 30.0862C95.5781 29.6284 96.7291 29.3548 98.0311 29.2653C98.5383 29.2321 99.1747 29.248 99.9401 29.3128C100.545 29.3641 101.129 29.4373 101.692 29.5326C101.739 29.5366 101.772 29.5442 101.79 29.5552C101.763 29.3055 101.699 29.0003 101.596 28.6394C101.441 28.1123 101.089 27.7161 100.54 27.4507C99.9919 27.1853 99.3388 27.03 98.5813 26.9848C98.193 26.9614 97.7279 27.0029 97.1859 27.1093C96.6439 27.2156 96.0365 27.364 95.3636 27.5545C95.1296 27.6203 94.904 27.644 94.6866 27.6256C94.2236 27.5863 93.8344 27.4058 93.519 27.0841C93.2045 26.7528 93.0676 26.3463 93.1084 25.8643C93.1477 25.4013 93.299 25.0191 93.5625 24.7179C93.8362 24.4079 94.1787 24.1847 94.59 24.0483C95.2559 23.8287 96.0362 23.6617 96.931 23.5471C97.8361 23.424 98.554 23.3754 99.0848 23.4013C101.264 23.5193 102.919 24.0879 104.051 25.1071C105.183 26.1262 105.772 27.599 105.818 29.5254ZM95.3975 34.567C95.3519 35.1057 95.5009 35.5371 95.8446 35.8612C96.1891 36.176 96.6969 36.3617 97.3678 36.4186C98.0954 36.4803 98.8008 36.4116 99.4839 36.2125C100.168 36.0039 100.769 35.7598 101.288 35.4802L101.476 33.2548C101.489 33.1036 101.519 32.9158 101.567 32.6914C101.202 32.6129 100.741 32.5501 100.184 32.5028C99.3427 32.4315 98.6008 32.4258 97.9581 32.4855C97.2192 32.5562 96.6212 32.7624 96.1639 33.1044C95.7066 33.4464 95.4512 33.9339 95.3975 34.567Z" fill="#5C7CFA"/>
<path fill-rule="evenodd" clip-rule="evenodd" d="M47.555 36.9462L47.545 36.9397C46.956 36.561 46.4826 36.0522 46.1483 35.4349L46.1378 35.4154L46.1277 35.3957C45.7785 34.7151 45.6568 33.9825 45.7185 33.2551L47.1732 16.0896C47.2348 15.3623 47.478 14.6606 47.9368 14.0484L47.9501 14.0307L47.9637 14.0132C48.3971 13.4609 48.9494 13.0391 49.5937 12.7649L49.6046 12.7602L49.6156 12.7557C50.2674 12.4874 50.9538 12.3899 51.6446 12.4484C52.3313 12.5066 52.9923 12.7166 53.5889 13.0979C54.1862 13.4743 54.6731 13.9884 55.0061 14.6289C55.3699 15.3102 55.5023 16.0503 55.4396 16.7902L54.8883 23.2961C54.9348 23.2077 54.9825 23.1199 55.0316 23.0327L55.0376 23.0221C55.9025 21.5056 57.069 20.2935 58.5407 19.4468C60.0406 18.5746 61.6869 18.2106 63.4215 18.3576C64.5184 18.4505 65.5369 18.6905 66.449 19.0902L66.6012 17.2935C66.6928 16.2123 67.193 15.2271 68.1436 14.5658L68.1533 14.559L68.1631 14.5524C69.0274 13.9662 70.0113 13.7765 70.9838 13.8589C71.9513 13.9409 72.8923 14.2914 73.6421 15.0244C74.4761 15.8301 74.8187 16.887 74.7259 17.982L74.2482 23.6191C75.0989 22.3942 76.2053 21.4415 77.5605 20.808C79.1359 20.0715 80.9023 19.8421 82.7804 20.0124L82.7937 20.0136L82.8069 20.015C84.5444 20.196 86.126 20.7098 87.4853 21.6174C88.8482 22.5273 89.8709 23.7525 90.5253 25.2559C91.1558 26.6738 91.3982 28.2283 91.3147 29.8713C91.6951 29.5079 92.1146 29.1843 92.5675 28.8979C92.4001 28.7752 92.2408 28.6371 92.0906 28.484L92.0796 28.4727L92.0688 28.4613C91.3354 27.6891 91.0297 26.7087 91.1155 25.6954C91.1848 24.8786 91.4694 24.0731 92.057 23.4012L92.0634 23.3939C92.5825 22.8062 93.2303 22.3922 93.9602 22.15L93.9636 22.1489C94.7771 21.8806 95.6847 21.6907 96.6691 21.5643C97.6195 21.4353 98.4743 21.3691 99.1824 21.4037L99.193 21.4042C101.636 21.5365 103.798 22.1877 105.389 23.6207C107.032 25.0997 107.762 27.1546 107.818 29.4754C107.835 30.1341 107.821 30.7946 107.775 31.4566C107.742 32.0768 107.691 32.7936 107.622 33.6043L107.18 38.8206C107.088 39.9054 106.571 40.9171 105.542 41.5436L105.535 41.5482C104.674 42.0676 103.712 42.1899 102.81 42.1134C101.954 42.0409 101.101 41.7799 100.368 41.2232L100.359 41.2164L100.351 41.2096C100.279 41.1539 100.21 41.0962 100.145 41.0367C99.8285 41.1366 99.5044 41.2234 99.173 41.2977C98.1179 41.5372 97.046 41.6107 95.9647 41.519C94.6361 41.4064 93.3977 41.0566 92.3149 40.4024L92.3068 40.3976C91.2339 39.7424 90.3973 38.8418 89.8578 37.7086L89.853 37.6985C89.7924 37.5693 89.7364 37.4389 89.6849 37.3072C89.5394 37.6115 89.3543 37.8996 89.1298 38.1673C88.6686 38.7283 88.0861 39.1836 87.3792 39.4623C86.4963 39.8284 85.559 40.0773 84.5754 40.2173C83.5954 40.3568 82.6234 40.3884 81.6626 40.307C79.6904 40.1399 77.9112 39.633 76.4072 38.702C75.0355 37.8528 73.9734 36.711 73.2584 35.2986L73.2124 35.842C73.1192 36.9413 72.598 37.9367 71.6133 38.5839L71.6079 38.5875C70.7475 39.1489 69.7763 39.314 68.8334 39.2341C67.8887 39.154 66.9655 38.8279 66.2103 38.1443L66.1905 38.1265L66.1713 38.1081C66.1137 38.0531 66.0586 37.997 66.0058 37.9398C65.8633 38.0024 65.7186 38.0615 65.5716 38.1172C64.3687 38.5768 63.0699 38.7171 61.7201 38.6027C60.0616 38.4622 58.5453 37.9565 57.2392 37.033L57.2326 37.0283C55.9184 36.0911 54.9654 34.8108 54.3521 33.2711L54.3497 33.2652C54.2589 33.0351 54.1768 32.8008 54.103 32.5625L53.9849 33.9556C53.9222 34.6955 53.6672 35.4028 53.1939 36.0132C52.7579 36.5884 52.1914 37.0133 51.5393 37.2838C50.887 37.5592 50.2001 37.655 49.5134 37.5968C48.8226 37.5383 48.1624 37.3266 47.5651 36.9525L47.555 36.9462ZM50.767 35.4389C51.1122 35.2968 51.3921 35.0826 51.6067 34.7962C51.8308 34.5107 51.9592 34.1741 51.992 33.7867L53.4467 16.6213C53.4796 16.2339 53.4096 15.8805 53.2368 15.5613C53.0734 15.2429 52.8335 14.9847 52.5172 14.7865C52.2103 14.5892 51.8632 14.4741 51.4757 14.4413C51.0883 14.4085 50.722 14.4631 50.3769 14.6051C50.0412 14.748 49.7613 14.9622 49.5372 15.2478C49.3226 15.5342 49.1988 15.8711 49.166 16.2585L47.7113 33.4239C47.6785 33.8114 47.7438 34.1643 47.9071 34.4827C48.0799 34.8019 48.3198 35.0602 48.6267 35.2575C48.943 35.4556 49.2949 35.5711 49.6823 35.6039C50.0698 35.6368 50.4313 35.5818 50.767 35.4389ZM64.8606 36.2478C64.9502 36.214 65.0385 36.1785 65.1254 36.1415C65.6602 35.914 66.1447 35.6267 66.5788 35.2798C66.7712 35.1262 66.9536 34.9608 67.1262 34.7837L67.0805 35.3224C67.0341 35.8704 67.1914 36.3168 67.5524 36.6615C67.6321 36.7337 67.7171 36.7993 67.8072 36.8583C68.1365 37.074 68.5348 37.2016 69.0023 37.2412C69.5976 37.2917 70.1018 37.1821 70.5149 36.9126C70.9382 36.6343 71.1731 36.2212 71.2195 35.6731L72.733 17.8132C72.7795 17.2651 72.6179 16.8136 72.2482 16.4586C71.888 16.1045 71.4102 15.9022 70.8149 15.8518C70.2196 15.8013 69.7099 15.9199 69.2857 16.2076C68.8711 16.496 68.6405 16.9143 68.5941 17.4624L68.1088 23.1889C67.6631 22.3611 67.049 21.7119 66.2667 21.2413C65.4468 20.7482 64.4422 20.4512 63.2527 20.3504C61.9203 20.2375 60.6834 20.5134 59.542 21.1781C58.4015 21.8333 57.4791 22.7783 56.7749 24.013C56.0801 25.2485 55.6914 26.6337 55.609 28.1685C55.5239 29.8459 55.7243 31.3001 56.2101 32.5309C56.6966 33.7524 57.4246 34.7087 58.3939 35.4C59.3727 36.092 60.5377 36.4953 61.889 36.6098C62.9946 36.7035 63.9852 36.5829 64.8606 36.2478ZM66.8456 31.8618C66.4684 32.3819 65.9586 32.7813 65.3164 33.06C64.6749 33.3292 63.9526 33.4298 63.1494 33.3617C62.3839 33.2968 61.7294 33.0463 61.1858 32.61C60.6525 32.165 60.2595 31.5797 60.0069 30.854C59.7638 30.1291 59.6811 29.3083 59.7588 28.3917C59.8316 27.5318 60.0686 26.7572 60.4696 26.0678C60.8809 25.3698 61.3924 24.8373 62.0041 24.4704C62.626 24.0948 63.2772 23.9359 63.9575 23.9935C64.7797 24.0632 65.4826 24.3036 66.0664 24.7147C66.651 25.1164 67.08 25.6144 67.3532 26.2086C67.6367 26.7942 67.752 27.3988 67.6992 28.0225L67.5322 29.9927C67.5211 30.0108 67.5136 30.0435 67.5096 30.0907C67.4543 30.7428 67.233 31.3331 66.8456 31.8618ZM65.5538 29.6526L65.7063 27.8536C65.7276 27.6022 65.6865 27.3558 65.5531 27.0801L65.5444 27.0622L65.5361 27.0442C65.4262 26.8052 65.2471 26.5784 64.9338 26.3631L64.9243 26.3566L64.9148 26.3499C64.6636 26.173 64.313 26.0308 63.7887 25.9864C63.5565 25.9667 63.3232 26.0102 63.038 26.1824L63.033 26.1855C62.7454 26.358 62.46 26.6311 62.1956 27.0783C61.957 27.4901 61.8014 27.9734 61.7516 28.5606C61.6929 29.2534 61.7614 29.7898 61.8996 30.2074C62.0424 30.6127 62.2343 30.8755 62.4522 31.0617C62.6527 31.2183 62.9165 31.3348 63.3182 31.3689C63.8447 31.4135 64.2334 31.3433 64.5317 31.2203C64.8692 31.0718 65.0799 30.8898 65.2266 30.6876L65.2323 30.6797C65.4029 30.4469 65.4926 30.207 65.5167 29.9219C65.517 29.9194 65.5172 29.9164 65.5175 29.9129C65.5204 29.8761 65.5278 29.7814 65.5538 29.6526ZM75.5708 25.2632C74.8698 26.4601 74.4448 27.9374 74.2959 29.6951C74.1549 31.3582 74.3506 32.8119 74.8828 34.0563C75.4253 35.2919 76.2843 36.2737 77.4599 37.0014C78.6355 37.7292 80.0927 38.1668 81.8315 38.3142C82.6347 38.3822 83.4554 38.3566 84.2935 38.2373C85.1316 38.1179 85.9109 37.908 86.6311 37.6073C86.9952 37.4669 87.3153 37.2275 87.5914 36.8892C87.8769 36.5518 88.039 36.1562 88.0774 35.7027C88.1006 35.4286 88.0616 35.1588 87.9604 34.8933C87.8837 34.672 87.7712 34.4809 87.6229 34.3201C87.5937 34.2885 87.5632 34.258 87.5313 34.2287C87.337 34.0505 87.1171 33.9509 86.8714 33.9301C86.8298 33.9266 86.7919 33.9245 86.7577 33.9238C86.6909 33.9224 86.6382 33.9263 86.5996 33.9356C86.4263 33.959 86.1376 34.0535 85.7333 34.2191C85.7274 34.2215 85.7214 34.2238 85.7155 34.2261C84.3839 34.7452 83.1964 34.9559 82.1529 34.858C80.9174 34.7247 79.9365 34.3941 79.2104 33.8662C79.1193 33.7988 79.0345 33.7278 78.956 33.6533C78.4095 33.1344 78.1685 32.4449 78.233 31.5848L86.8937 32.3188C86.932 32.322 86.9699 32.3248 87.0072 32.327C87.4257 32.352 87.7801 32.313 88.0704 32.2098C88.2966 32.1295 88.4838 32.0103 88.6321 31.8522C88.9879 31.4731 89.2116 30.8544 89.3034 29.9961C89.4094 28.5203 89.2065 27.2087 88.6946 26.0613C88.1929 24.9052 87.4197 23.9784 86.3748 23.2807C85.3298 22.583 84.0715 22.1575 82.5998 22.0043C80.9941 21.8587 79.5967 22.0638 78.4074 22.6198C77.2182 23.1757 76.2727 24.0569 75.5708 25.2632ZM80.5685 25.7581C80.1584 25.9314 79.8015 26.1649 79.4975 26.4584C79.3843 26.5676 79.2785 26.6852 79.1801 26.8111C78.8171 27.2753 78.6061 27.7999 78.547 28.385L85.4642 28.9712C85.4679 28.9346 85.471 28.8981 85.4735 28.8618C85.5122 28.2994 85.4091 27.7754 85.1642 27.2897C85.1012 27.1605 85.0307 27.0374 84.9524 26.9206C84.718 26.5708 84.4147 26.2767 84.0424 26.0382C83.5467 25.7107 82.9776 25.5197 82.335 25.4653C81.7208 25.4132 81.1319 25.5108 80.5685 25.7581ZM92.2164 31.8419C91.642 32.5546 91.318 33.3457 91.2443 34.2151C91.161 35.1978 91.3008 36.0758 91.6636 36.8489C92.0271 37.6125 92.589 38.2265 93.3491 38.6906C94.1187 39.1556 95.0469 39.4341 96.1336 39.5262C97.0124 39.6007 97.8788 39.5408 98.7328 39.3467C98.8653 39.3171 98.9955 39.2852 99.1236 39.2512C99.8308 39.0632 100.472 38.8083 101.047 38.4864C101.044 38.9715 101.221 39.353 101.578 39.6307C101.635 39.6736 101.694 39.7138 101.755 39.7513C102.091 39.9568 102.499 40.0799 102.979 40.1206C103.593 40.1726 104.101 40.0776 104.502 39.8356C104.913 39.585 105.142 39.1903 105.188 38.6517L105.63 33.4354C105.698 32.6322 105.747 31.9321 105.779 31.3352C105.821 30.7296 105.834 30.1264 105.818 29.5254C105.772 27.599 105.183 26.1262 104.051 25.107C102.919 24.0879 101.264 23.5193 99.0848 23.4013C98.554 23.3753 97.8361 23.424 96.931 23.5471C96.0361 23.6616 95.2558 23.8287 94.59 24.0483C94.1787 24.1847 93.8362 24.4079 93.5625 24.7178C93.299 25.0191 93.1476 25.4013 93.1084 25.8643C93.0676 26.3462 93.2044 26.7528 93.519 27.084C93.8344 27.4058 94.2236 27.5863 94.6866 27.6256C94.9039 27.644 95.1296 27.6203 95.3636 27.5544C96.0365 27.364 96.6439 27.2156 97.1859 27.1093C97.7279 27.0029 98.193 26.9614 98.5812 26.9848C99.2209 27.0229 99.786 27.1396 100.277 27.3347C100.367 27.3707 100.455 27.4093 100.54 27.4507C101.089 27.716 101.441 28.1123 101.596 28.6394C101.649 28.8246 101.691 28.9952 101.724 29.1511C101.73 29.1807 101.736 29.2098 101.742 29.2383C101.763 29.3524 101.779 29.458 101.79 29.5552C101.772 29.5442 101.739 29.5366 101.692 29.5326C101.129 29.4373 100.545 29.3641 99.9401 29.3128C99.8593 29.306 99.78 29.2997 99.7021 29.2939C99.0418 29.2451 98.4848 29.2356 98.0311 29.2652C96.7291 29.3548 95.5781 29.6284 94.578 30.0862C93.5787 30.5345 92.7915 31.1197 92.2164 31.8419ZM99.4838 36.2125C98.8007 36.4115 98.0954 36.4803 97.3677 36.4186C96.6968 36.3617 96.1891 36.1759 95.8446 35.8612C95.5009 35.537 95.3518 35.1056 95.3975 34.567C95.4511 33.9339 95.7066 33.4463 96.1639 33.1044C96.6211 32.7624 97.2192 32.5561 97.958 32.4855C98.4405 32.4407 98.9787 32.4327 99.5729 32.4617C99.7703 32.4713 99.9739 32.485 100.184 32.5028C100.723 32.5485 101.171 32.6087 101.53 32.6836C101.542 32.6862 101.555 32.6888 101.567 32.6914C101.519 32.9158 101.489 33.1036 101.476 33.2548L101.288 35.4802C100.769 35.7598 100.168 36.0039 99.4838 36.2125Z" fill="#FFF9DB"/>
<path fill-rule="evenodd" clip-rule="evenodd" d="M52.6193 63.5095C54.2218 61.4379 55.1382 59.0369 55.1382 56.477C55.1382 48.6633 46.6006 42.329 36.0691 42.329C25.5375 42.329 17 48.6633 17 56.477C17 64.2907 25.5375 70.625 36.0691 70.625C40.2498 70.625 44.1162 69.6269 47.2591 67.9342L59.5 69.1711L52.6193 63.5095Z" fill="#FFF9DB"/>
<path fill-rule="evenodd" clip-rule="evenodd" d="M47.2591 67.9342C44.1162 69.6269 40.2498 70.625 36.0691 70.625C25.5375 70.625 17 64.2907 17 56.477C17 48.6633 25.5375 42.329 36.0691 42.329C46.6006 42.329 55.1382 48.6633 55.1382 56.477C55.1382 59.0369 54.2218 61.4379 52.6193 63.5095L59.5 69.1711L47.2591 67.9342ZM55.2932 63.1196C56.4658 61.1167 57.1382 58.8687 57.1382 56.477C57.1382 51.7901 54.5732 47.7072 50.7446 44.8666C46.9159 42.026 41.7207 40.329 36.0691 40.329C30.4174 40.329 25.2223 42.026 21.3935 44.8666C17.565 47.7072 15 51.7901 15 56.477C15 61.1639 17.565 65.2468 21.3935 68.0874C25.2223 70.9281 30.4174 72.625 36.0691 72.625C40.3237 72.625 44.3111 71.664 47.6522 69.9841L59.2989 71.161C60.1759 71.2496 61.0075 70.7536 61.3463 69.94C61.6852 69.1263 61.4514 68.1867 60.7708 67.6267L55.2932 63.1196Z" fill="black"/>
<path fill-rule="evenodd" clip-rule="evenodd" d="M84.9002 82.7651C82.691 82.7651 80.9002 84.556 80.9002 86.7651L80.9002 102.765C80.9002 104.974 82.691 106.765 84.9002 106.765L124.9 106.765C127.109 106.765 128.9 104.974 128.9 102.765L128.9 86.7651C128.9 84.556 127.109 82.7651 124.9 82.7651L114.858 82.7651L96.5 74L103.331 82.7651L84.9002 82.7651Z" fill="#FFF4E6"/>
<path fill-rule="evenodd" clip-rule="evenodd" d="M114.858 82.7651L124.9 82.7651C127.109 82.7651 128.9 84.556 128.9 86.7651L128.9 102.765C128.9 104.974 127.109 106.765 124.9 106.765L84.9001 106.765C82.691 106.765 80.9001 104.974 80.9001 102.765L80.9001 86.7651C80.9001 84.556 82.691 82.7651 84.9001 82.7651L103.331 82.7651L96.5 74L114.858 82.7651ZM99.2366 80.7651L84.9002 80.7651C81.5864 80.7651 78.9001 83.4514 78.9001 86.7651L78.9001 102.765C78.9001 106.079 81.5864 108.765 84.9002 108.765L124.9 108.765C128.214 108.765 130.9 106.079 130.9 102.765L130.9 86.7651C130.9 83.4514 128.214 80.7651 124.9 80.7651L115.311 80.7651L97.3617 72.1952C96.5246 71.7955 95.5224 72.0239 94.9412 72.7469C94.36 73.4699 94.3522 74.4977 94.9225 75.2294L99.2366 80.7651Z" fill="black"/>
<path d="M52.4829 111.715C34.2321 113.491 29.8552 101.979 35.0628 99.5065C40.2703 97.0335 42.5629 107.421 34.6678 106.541C28.3517 105.837 24.0118 89.981 23.8799 81.973" stroke="white" stroke-dasharray="2 1"/>
<path d="M26.3583 89.5335L30.9149 87.9286L22.3461 78.1418L17.1933 89.6882L22.5524 90.3617L24.0412 88.0447L26.3583 89.5335Z" fill="white"/>
<path d="M24.0412 88.0447L26.3582 89.5335L22.3461 78.1418L22.5524 90.3617L24.0412 88.0447Z" fill="#EEEEEE"/>
<path d="M106.971 51.5321C106.741 51.3791 106.431 51.4414 106.278 51.6713C106.125 51.9012 106.187 52.2116 106.417 52.3646L106.971 51.5321ZM114.196 64.0342L113.732 63.8478L114.196 64.0342ZM110.313 61.2869L110.542 61.7315L110.313 61.2869ZM113.181 75.6437C112.941 75.7796 112.856 76.0847 112.992 76.325C113.128 76.5654 113.433 76.65 113.673 76.5141L113.181 75.6437ZM106.417 52.3646C106.788 52.6113 107.175 52.8812 107.568 53.1715L108.162 52.3665C107.755 52.0666 107.355 51.7875 106.971 51.5321L106.417 52.3646ZM108.315 53.74C109.029 54.3029 109.749 54.9242 110.426 55.5881L111.126 54.8742C110.42 54.1813 109.672 53.5362 108.933 52.9543L108.315 53.74ZM111.076 56.2548C111.725 56.9508 112.311 57.6807 112.788 58.4283L113.631 57.8902C113.114 57.0805 112.488 56.3028 111.808 55.5729L111.076 56.2548ZM113.245 59.2153C113.687 60.0601 113.967 60.9076 114.039 61.7396L115.036 61.6536C114.95 60.6585 114.618 59.6826 114.132 58.7521L113.245 59.2153ZM114.037 62.6009C113.996 63.0183 113.898 63.4344 113.732 63.8478L114.66 64.2207C114.862 63.7174 114.983 63.2079 115.032 62.6965L114.037 62.6009ZM113.732 63.8478C113.554 64.2897 113.36 64.642 113.161 64.9188L113.972 65.5036C114.227 65.1503 114.457 64.7243 114.66 64.2207L113.732 63.8478ZM112.653 65.4648C112.028 65.9621 111.344 65.9186 110.738 65.5497L110.218 66.4041C111.112 66.9478 112.262 67.0537 113.275 66.2473L112.653 65.4648ZM110.167 65.0738C109.639 64.4939 109.36 63.7164 109.476 63.0492L108.49 62.8785C108.31 63.9199 108.745 64.9971 109.427 65.7471L110.167 65.0738ZM109.725 62.4231C109.892 62.173 110.152 61.9321 110.542 61.7315L110.084 60.8423C109.562 61.1111 109.166 61.4599 108.894 61.8674L109.725 62.4231ZM110.542 61.7315C110.873 61.5607 111.252 61.5195 111.675 61.6089L111.881 60.6304C111.271 60.5015 110.652 60.55 110.084 60.8423L110.542 61.7315ZM112.481 61.9133C113.175 62.2817 113.898 62.9249 114.55 63.7687L115.341 63.1569C114.628 62.235 113.802 61.4829 112.951 61.0302L112.481 61.9133ZM115.099 64.5527C115.595 65.3376 116.011 66.2264 116.296 67.1603L117.253 66.8685C116.941 65.8458 116.486 64.8757 115.944 64.0185L115.099 64.5527ZM116.531 68.0861C116.721 69.0258 116.766 69.9827 116.623 70.9045L117.611 71.0576C117.774 70.002 117.721 68.9251 117.511 67.8881L116.531 68.0861ZM116.416 71.8127C116.156 72.6647 115.711 73.4762 115.035 74.2046L115.768 74.8846C116.55 74.0415 117.07 73.0959 117.372 72.1045L116.416 71.8127ZM114.356 74.8432C114.01 75.1271 113.62 75.3952 113.181 75.6437L113.673 76.5141C114.16 76.2387 114.598 75.9381 114.991 75.6155L114.356 74.8432Z" fill="white"/>
<circle cx="25.5" cy="56.5" r="2.5" fill="#5C7CFA"/>
<circle cx="35.5" cy="56.5" r="2.5" fill="#5C7CFA"/>
<circle cx="45.5" cy="56.5" r="2.5" fill="#5C7CFA"/>
<rect x="87" y="89" width="36" height="4" rx="2" fill="#5C7CFA"/>
<rect x="87" y="97" width="19" height="4" rx="2" fill="#5C7CFA"/>
<path d="M31.4971 27.1321C31.3123 26.9243 31.0494 26.8029 30.7715 26.7969C30.4936 26.7908 30.2257 26.9008 30.0321 27.1003L25.851 31.4098L22.7942 28.2592C22.4096 27.8628 21.7765 27.8532 21.3801 28.2378L19.227 30.3268C18.8306 30.7114 18.821 31.3445 19.2056 31.7409L25.1333 37.8505C25.3216 38.0446 25.5805 38.1542 25.851 38.1542C26.1214 38.1542 26.3804 38.0446 26.5687 37.8505L30.6224 33.6723L34.3538 37.868C34.5386 38.0757 34.8014 38.1971 35.0794 38.2032C35.3573 38.2092 35.6252 38.0993 35.8188 37.8997L41.7942 31.7409C41.9789 31.5505 42.0804 31.2946 42.0764 31.0294C42.0724 30.7642 41.9632 30.5115 41.7728 30.3268L39.6197 28.2378C39.2233 27.8532 38.5902 27.8628 38.2056 28.2592L35.2285 31.3277L31.4971 27.1321Z" fill="#FFF4E6" stroke="black" stroke-width="2" stroke-linejoin="round"/>
</svg>
