<?xml version="1.0" encoding="UTF-8"?>
<svg width="65px" height="65px" viewBox="0 0 65 65" version="1.1" xmlns="http://www.w3.org/2000/svg" xmlns:xlink="http://www.w3.org/1999/xlink">
    <g id="branch-only" stroke="none" stroke-width="1" fill="none" fill-rule="evenodd" opacity="0.3">
        <path d="M32.7304688,56.4609375 C35.9856771,56.4609375 39.0455729,55.8383789 41.9101562,54.5932617 C44.7747396,53.3481445 47.297526,51.6350911 49.4785156,49.4541016 C51.6595052,47.273112 53.3684896,44.7543945 54.6054688,41.8979492 C55.8424479,39.0415039 56.4609375,35.9856771 56.4609375,32.7304688 C56.4609375,29.4752604 55.8424479,26.4194336 54.6054688,23.5629883 C53.3684896,20.706543 51.6554362,18.1837565 49.4663086,15.9946289 C47.277181,13.8055013 44.7503255,12.0924479 41.8857422,10.8554688 C39.0211589,9.61848958 35.961263,9 32.7060547,9 C29.4833984,9 26.4397786,9.61848958 23.5751953,10.8554688 C20.710612,12.0924479 18.1837565,13.8055013 15.9946289,15.9946289 C13.8055013,18.1837565 12.0924479,20.706543 10.8554688,23.5629883 C9.61848958,26.4194336 9,29.4752604 9,32.7304688 C9,35.9856771 9.62255859,39.0415039 10.8676758,41.8979492 C12.112793,44.7543945 13.8258464,47.273112 16.0068359,49.4541016 C18.1878255,51.6350911 20.710612,53.3481445 23.5751953,54.5932617 C26.4397786,55.8383789 29.4915365,56.4609375 32.7304688,56.4609375 Z M47.7409805,45.0072734 L20.4709805,17.7382734 L20.519911,17.6973741 C21.9263419,16.5475622 23.4859484,15.6056315 25.1987305,14.871582 C27.5343424,13.8706055 30.0367839,13.3701172 32.7060547,13.3701172 C35.4078776,13.3701172 37.9265951,13.8706055 40.262207,14.871582 C42.597819,15.8725586 44.6526693,17.2600911 46.4267578,19.0341797 C48.2008464,20.8082682 49.5883789,22.8671875 50.5893555,25.2109375 C51.590332,27.5546875 52.0908203,30.0611979 52.0908203,32.7304688 C52.1070964,35.4160156 51.6106771,37.9306641 50.6015625,40.2744141 C49.8807664,41.9485212 48.9689759,43.4752305 47.866191,44.854542 L47.7409805,45.0072734 Z M32.7304688,52.0908203 C30.0611979,52.0908203 27.5546875,51.590332 25.2109375,50.5893555 C22.8671875,49.5883789 20.8123372,48.2049154 19.0463867,46.4389648 C17.2804362,44.6730143 15.9010417,42.6181641 14.9082031,40.2744141 C13.9153646,37.9306641 13.4189453,35.4160156 13.4189453,32.7304688 C13.4189453,30.0611979 13.9153646,27.5546875 14.9082031,25.2109375 C15.6362847,23.4921875 16.5722475,21.9266131 17.7160916,20.5142144 L17.7329805,20.4932734 L44.9849805,47.7682734 C43.5796289,48.9149453 42.0175781,49.855306 40.2988281,50.5893555 C37.9550781,51.590332 35.4322917,52.0908203 32.7304688,52.0908203 Z" fill="#000000" fill-rule="nonzero"></path>
    </g>
</svg>