<svg width="22" height="18" viewBox="0 0 22 18" fill="none" xmlns="http://www.w3.org/2000/svg">
<path fill-rule="evenodd" clip-rule="evenodd" d="M14 3.25C13.3096 3.25 12.75 3.80964 12.75 4.5V8.25H10.75V6.79927C10.75 6.21978 10.2802 5.75 9.70073 5.75H2.29927C1.71978 5.75 1.25 6.21977 1.25 6.79927V11.2007C1.25 11.7802 1.71978 12.25 2.29927 12.25H9.70073C10.2802 12.25 10.75 11.7802 10.75 11.2007V9.75H12.75V13.5C12.75 14.1904 13.3096 14.75 14 14.75H18C18.4142 14.75 18.75 14.4142 18.75 14C18.75 13.5858 18.4142 13.25 18 13.25H14.25V9.75H17.9995C18.4137 9.75 18.7495 9.41421 18.7495 9C18.7495 8.58579 18.4137 8.25 17.9995 8.25H14.25V4.75H18C18.4142 4.75 18.75 4.41421 18.75 4C18.75 3.58579 18.4142 3.25 18 3.25H14ZM9.25 7.25V8.97268C9.24968 8.98175 9.24951 8.99085 9.24951 9C9.24951 9.00915 9.24968 9.01825 9.25 9.02732V10.75H2.75V7.25H9.25Z" fill="#27292A"/>
</svg>
