<svg width="22" height="18" viewBox="0 0 22 18" fill="none" xmlns="http://www.w3.org/2000/svg">
<path fill-rule="evenodd" clip-rule="evenodd" d="M7.29927 2.25C6.71978 2.25 6.25 2.71978 6.25 3.29927V6.70073C6.25 7.28022 6.71978 7.75 7.29927 7.75H10.25L10.25 11.75H7.5C7.08579 11.75 6.75 12.0858 6.75 12.5C6.75 12.9142 7.08579 13.25 7.5 13.25H10.25V14.5C10.25 15.1904 10.8096 15.75 11.5 15.75H14.5C14.9142 15.75 15.25 15.4142 15.25 15C15.25 14.5858 14.9142 14.25 14.5 14.25H11.75V12.5019L11.75 12.5L11.75 12.4981V11.25H14.5C14.9142 11.25 15.25 10.9142 15.25 10.5C15.25 10.0858 14.9142 9.75 14.5 9.75H11.75V7.75H14.7007C15.2802 7.75 15.75 7.28022 15.75 6.70073V3.29927C15.75 2.71978 15.2802 2.25 14.7007 2.25H7.29927ZM11.0273 6.25H14.25V3.75H7.75V6.25H10.9727C10.9817 6.24968 10.9908 6.24951 11 6.24951C11.0091 6.24951 11.0183 6.24968 11.0273 6.25Z" fill="#27292A"/>
</svg>
