<svg xmlns="http://www.w3.org/2000/svg" width="20" height="20" viewBox="0 0 20 20">
  <g fill="none" fill-rule="evenodd" transform="matrix(1 0 0 -1 0 20)">
    <rect width="20" height="20" fill="#7FACB3" rx="10"/>
    <path fill="#FFF" d="M10.8727039,12.3984375 L9.69760865,12.3984375 C9.42986227,12.3984375 9.20963506,12.1875221 9.1980749,11.9200254 L8.90535348,5.14658789 C8.89343082,4.87070302 9.10741447,4.63738892 9.38329934,4.62546625 C9.39049111,4.62515545 9.39768875,4.625 9.40488723,4.625 L11.1654253,4.625 C11.4415676,4.625 11.6654253,4.84885763 11.6654253,5.125 C11.6654253,5.13219848 11.6652698,5.13939612 11.664959,5.14658789 L11.3722376,11.9200254 C11.3606774,12.1875221 11.1404502,12.3984375 10.8727039,12.3984375 Z M8.8046875,14.8203125 C8.8046875,14.4348939 8.94400902,14.1184908 9.22265625,13.8710938 C9.50130348,13.6236967 9.84895625,13.5 10.265625,13.5 C10.6822937,13.5 11.0299465,13.6236967 11.3085938,13.8710938 C11.587241,14.1184908 11.7265625,14.4348939 11.7265625,14.8203125 C11.7265625,15.2057311 11.587241,15.5221342 11.3085938,15.7695312 C11.0299465,16.0169283 10.6822937,16.140625 10.265625,16.140625 C9.84895625,16.140625 9.50130348,16.0169283 9.22265625,15.7695312 C8.94400902,15.5221342 8.8046875,15.2057311 8.8046875,14.8203125 Z"/>
  </g>
</svg>
