<svg width="66" height="40" viewBox="0 0 66 40" fill="none" xmlns="http://www.w3.org/2000/svg">
<g clip-path="url(#clip0_415_45634)">
<path d="M36.0125 10.074L35.0817 12.5918L32.6045 11.6522L32.4971 11.9069L30.0966 10.6422L25.7135 19.6288L28.9002 11.1958L25.6514 10.0406L18.6167 29.2928L21.8655 30.448L22.5158 28.8038L24.5387 29.8696L28.993 20.806L25.5698 30.0819L28.7913 31.3038L29.246 30.2261L32.2876 31.237L33.998 26.3314L37.7162 16.7338L36.22 22.0574L33.4463 29.6412L36.6951 30.7964L36.9345 30.142L37.4999 30.2797L37.899 28.8597L41.0327 29.9739L41.6829 28.3297L43.7058 29.3955L48.4218 20.806L44.7369 29.6079L47.9003 30.4865L48.4131 29.752L51.4547 30.763L58.287 11.1624L55.0126 10.074L54.0818 12.5918L51.6046 11.6522L51.4972 11.9069L49.0966 10.6422L45.1423 19.6288L47.9003 11.1958L44.6515 10.0406L38.3309 27.323L39.5432 23.0094L43.5631 12.0183L40.3143 10.8631L39.9503 11.8582L39.1418 11.6612L38.8356 12.7507L38.7455 12.7152L39.2869 11.1624L36.0125 10.074Z" fill="#27292A"/>
<path d="M21.3142 10.8631L14.2792 30.1153L17.528 31.2705L24.563 12.0183L21.3142 10.8631Z" fill="#27292A"/>
<path d="M14.0356 28.8582L20.2029 12.8959L17.0001 11.6305L10.8328 27.5928L14.0356 28.8582Z" fill="#27292A"/>
<path d="M58.1419 11.6612L53.3065 28.987L56.6671 29.8056L61.5025 12.4799L58.1419 11.6612Z" fill="#27292A"/>
</g>
<defs>
<clipPath id="clip0_415_45634">
<rect width="36" height="23" fill="white" transform="translate(15 9)"/>
</clipPath>
</defs>
</svg>
