<svg width="140" height="140" viewBox="0 0 140 140" fill="none" xmlns="http://www.w3.org/2000/svg">
<path d="M105.794 38.034C102.605 37.8357 99.4891 37.6359 95.7731 36.2166C96.0086 35.591 96.1359 34.9059 96.1115 34.1756C96.0902 33.5382 95.9581 32.9492 95.7378 32.4151C96.1474 32.4714 96.5687 32.5 97 32.5C99.1216 32.5 101.178 31.5739 102.292 29.6335C103.36 27.7724 103.185 25.6037 102.217 23.9214C101.212 22.1763 99.5469 21.0755 97.544 20.604C98.4196 19.6607 99.6811 18.8347 101.391 18.3848C103.26 17.8928 104.377 15.9786 103.885 14.1093C103.393 12.2399 101.479 11.1233 99.6093 11.6152L100.118 13.5494L99.6093 11.6152C93.8745 13.1244 90.3164 17.3024 89.2703 21.5936C86.1237 22.8696 83.7336 24.855 82.2512 27.1647C73.6748 20.1195 64.7985 16.7183 56.427 15.5773C55.1864 11.9785 51.9151 8.78241 47.1068 7.17962C45.273 6.56835 43.2909 7.5594 42.6796 9.3932C42.0684 11.227 43.0594 13.2091 44.8932 13.8204C45.8866 14.1515 46.7034 14.5587 47.369 14.9996C46.6995 15.0186 46.0492 15.1106 45.429 15.2888C38.6339 15.8331 32.5533 17.6233 27.7239 19.6567L27.6776 19.6762L27.6324 19.6979C25.9622 20.5021 24.3727 21.4267 22.8653 22.4599C21.6818 21.547 20.388 21.0376 19.0972 21.128C17.7345 21.2235 16.6208 21.9825 16.0333 23.0817C15.1949 24.6503 15.5437 26.422 16.7346 27.7008C15.7086 28.7791 14.7383 29.9168 13.8242 31.1074C12.1668 30.3428 10.4253 30.0116 8.81654 29.9801C6.98554 29.9443 5.40513 30.3914 4.28616 31.372C3.13598 32.3799 2.66431 33.8005 2.88287 35.1651C3.31237 37.8468 6.01838 39.4335 9.07102 38.7194C1.0517 54.6355 0.477334 76.1795 8.04179 94.2785L8.36498 97.6397C8.63094 100.406 10.4482 102.644 12.8688 103.584C14.1111 105.55 15.4708 107.448 16.9496 109.263C23.9643 117.872 35.6387 123.432 48.5979 126.179C61.4891 128.911 75.9104 128.918 88.9064 126.201L106.399 128.266C111.243 128.838 115.633 125.375 116.206 120.531L116.671 116.59L119.785 116.958C123.681 117.418 127.212 114.632 127.672 110.736L129.399 96.1091C133.972 85.8161 135.383 74.3259 133.863 64.5729C135.134 64.2108 136.182 63.3004 136.644 61.9966C137.052 60.845 136.913 59.5608 136.217 58.4352C135.539 57.3382 134.404 56.4935 132.954 55.9117C132.432 55.7022 131.887 55.523 131.323 55.3839C129.974 52.1852 128.176 49.348 125.914 47.0858C121.867 43.0384 118.357 40.8231 115.007 39.6015C111.718 38.4021 108.711 38.2152 105.883 38.0395L105.794 38.034ZM90.2798 29.0048C90.2302 29.0026 90.1805 29.0008 90.1307 28.9993C90.1646 28.9769 90.199 28.9545 90.2337 28.9323C90.2489 28.9565 90.2642 28.9807 90.2798 29.0048Z" fill="#7B88FF" stroke="white" stroke-width="4"/>
<path fill-rule="evenodd" clip-rule="evenodd" d="M44.577 10.0257C44.315 10.8116 44.7398 11.6611 45.5257 11.923C49.0996 13.1143 51.004 15.2706 51.682 17.1625C50.814 17.1262 49.9542 17.1136 49.1036 17.1225C47.8331 16.9148 46.7267 16.9628 45.8108 17.2635C45.8086 17.2642 45.8065 17.2649 45.8044 17.2656C39.1712 17.769 33.2212 19.5121 28.5 21.5C26.4401 22.4918 24.5082 23.6786 22.7065 25.0369C22.3963 24.6879 22.0597 24.3719 21.7086 24.0941C17.8991 21.0809 15.7981 25.8827 19.5775 27.2106C19.7033 27.2548 19.8255 27.2995 19.9443 27.3448C17.8888 29.2413 16.0342 31.3809 14.3848 33.719C12.6424 32.5183 10.6294 32.016 8.77743 31.9797C2.74751 31.8618 4.27682 38.1877 9.01118 36.6618C10.4661 36.1929 11.759 35.9754 12.8945 35.9745C3.23215 51.5966 1.90934 74.6729 10.0034 93.7837L10.3558 97.4483C10.5677 99.652 12.1512 101.393 14.1805 101.908C15.4826 104.026 16.9219 106.063 18.5 108C31.7295 124.236 63.199 129.631 88.8148 124.176L106.634 126.28C110.381 126.723 113.777 124.044 114.219 120.297L114.919 114.369L120.019 114.971C122.818 115.302 125.355 113.301 125.686 110.502L127.449 95.571C132.356 84.6875 133.572 72.4016 131.449 62.51C134.543 63.7883 136.928 59.6607 132.21 57.7679C131.466 57.4695 130.682 57.2498 129.873 57.1401C128.565 53.7202 126.767 50.7669 124.5 48.5C116.717 40.717 111.419 40.3876 105.67 40.0301C101.858 39.7932 97.8492 39.5439 92.787 37.1027C93.6099 36.3644 94.1498 35.3535 94.1126 34.2425C94.0651 32.8206 93.0939 31.7246 91.6893 31.2635C90.3545 30.8252 88.615 30.9238 86.5526 31.5683C86.2265 31.6702 85.9127 31.782 85.6111 31.9031C85.9907 29.9973 87.6797 27.6109 91.2044 26.2043C91.3783 26.8406 91.6434 27.4447 92.0084 27.9941C93.0523 29.5654 94.792 30.5 97 30.5C98.5548 30.5 99.8687 29.8374 100.557 28.6379C101.227 27.4717 101.144 26.0665 100.483 24.9195C99.4473 23.1202 97.2382 22.1126 94.2379 22.3797C94.974 19.9843 97.1264 17.4389 100.882 16.4506C101.683 16.2398 102.161 15.4194 101.951 14.6183C101.74 13.8171 100.919 13.3386 100.118 13.5494C94.8059 14.9474 91.7502 18.9093 91.0854 22.6768C91.0618 22.8102 91.0412 22.9439 91.0236 23.0776C86.6307 24.5426 83.89 27.3973 82.919 30.3651C82.7801 30.2449 82.6404 30.1233 82.5 30C73.295 21.9176 63.7257 18.3586 54.8471 17.399C54.2227 14.0769 51.3774 10.7114 46.4744 9.07699C45.6884 8.81501 44.839 9.23975 44.577 10.0257ZM89.6912 35.4035C89.1283 35.0579 88.5527 34.6849 87.9634 34.2822C89.4107 33.8974 90.2991 33.9646 90.7535 34.1138C90.993 34.1924 91.0784 34.2809 91.0983 34.3049C91.1134 34.3232 91.1138 34.3288 91.1143 34.3428C91.1157 34.3848 91.0779 34.6857 90.6002 35.0135C90.3819 35.1633 90.081 35.3067 89.6912 35.4035ZM117.702 109.945C118.977 108.658 120.167 107.298 121.272 105.88L121.049 107.771C120.884 109.171 119.615 110.171 118.216 110.006L117.702 109.945ZM94.5073 26.334C94.3331 26.0719 94.193 25.7593 94.0965 25.4042C96.5708 25.0544 97.6167 25.953 97.8836 26.4165C98.0786 26.7552 98.0292 27.0159 97.9554 27.1444C97.9008 27.2395 97.6952 27.5 97 27.5C95.708 27.5 94.9478 26.9971 94.5073 26.334Z" fill="#7B88FF"/>
<path fill-rule="evenodd" clip-rule="evenodd" d="M45.8107 17.2635C46.7267 16.9628 47.8331 16.9148 49.1036 17.1225C49.2222 17.1213 49.341 17.1205 49.46 17.12C50.1942 17.1175 50.9351 17.1313 51.682 17.1625C51.4442 16.4989 51.0554 15.8027 50.4966 15.1271C49.4625 13.8766 47.8459 12.6964 45.5257 11.923C44.7397 11.6611 44.315 10.8116 44.577 10.0257C44.839 9.23974 45.6884 8.81501 46.4744 9.07698C51.3774 10.7113 54.2227 14.0769 54.8471 17.399C63.3413 18.3171 72.4676 21.6142 81.3023 28.9753C81.7021 29.3085 82.1014 29.65 82.5 30C82.6404 30.1233 82.7801 30.2449 82.919 30.365C83.1098 29.782 83.3689 29.2033 83.6954 28.6387C83.6954 28.6386 83.6953 28.6387 83.6954 28.6387C83.7272 28.5836 83.7598 28.5285 83.7929 28.4737C85.1489 26.2307 87.578 24.2267 91.0236 23.0776C91.0412 22.9438 91.0618 22.8102 91.0854 22.6768C91.7502 18.9093 94.8059 14.9474 100.118 13.5494C100.919 13.3386 101.74 13.8171 101.951 14.6183C102.161 15.4194 101.683 16.2398 100.882 16.4506C98.1947 17.1577 96.3283 18.6621 95.2142 20.3383C94.7713 21.0047 94.4473 21.6983 94.2379 22.3797C94.9956 22.3122 95.7029 22.3261 96.3536 22.4135C98.2792 22.6721 99.709 23.5746 100.483 24.9195C101.144 26.0665 101.227 27.4717 100.557 28.6379C99.8687 29.8373 98.5548 30.5 97 30.5C94.792 30.5 93.0523 29.5654 92.0084 27.9941C91.9128 27.8502 91.8241 27.7026 91.7421 27.5517C91.5109 27.1261 91.3328 26.674 91.2044 26.2043C90.533 26.4723 89.9281 26.7758 89.3862 27.1048C88.2454 27.7974 87.3838 28.6028 86.7674 29.4269C86.5358 29.7365 86.3388 30.0488 86.1746 30.3587C85.8937 30.8887 85.7089 31.4119 85.6111 31.9031C85.9127 31.782 86.2265 31.6702 86.5526 31.5683C87.0538 31.4117 87.5359 31.2873 87.9978 31.195C89.4365 30.9076 90.6788 30.9317 91.6893 31.2635C93.0939 31.7246 94.0651 32.8206 94.1126 34.2425C94.1264 34.6557 94.0605 35.055 93.9298 35.4316C93.7091 36.0677 93.3039 36.639 92.787 37.1027C93.4548 37.4248 94.1044 37.7087 94.7375 37.9594C98.9036 39.6094 102.361 39.8244 105.67 40.0301C111.419 40.3876 116.717 40.717 124.5 48.5C126.767 50.7669 128.565 53.7202 129.873 57.1401C130.682 57.2498 131.466 57.4695 132.21 57.7679C135.768 59.1953 135.286 61.8935 133.508 62.586C132.928 62.8118 132.21 62.8244 131.449 62.51C131.602 63.2243 131.738 63.951 131.856 64.6887C133.377 74.1685 132.002 85.4734 127.449 95.571L125.686 110.502C125.355 113.301 122.818 115.302 120.019 114.971L114.919 114.369L114.219 120.297C113.777 124.044 110.381 126.723 106.634 126.28L88.8148 124.176C63.199 129.631 31.7295 124.236 18.5 108C16.9219 106.063 15.4826 104.026 14.1805 101.908C12.1512 101.393 10.5677 99.652 10.3558 97.4483L10.0034 93.7837C2.26423 75.5109 3.13424 53.6126 11.6717 38.0715C12.0632 37.3588 12.4709 36.6595 12.8945 35.9745C12.1293 35.9751 11.2926 36.0741 10.3831 36.2821C9.94289 36.3827 9.48565 36.5089 9.01118 36.6618C4.27681 38.1877 2.7475 31.8618 8.77742 31.9797C10.6294 32.016 12.6424 32.5183 14.3848 33.719C15.6038 31.9911 16.9348 30.3716 18.3761 28.8785C18.6873 28.5562 19.0035 28.2398 19.3249 27.9294C19.5293 27.7321 19.7358 27.5372 19.9443 27.3448C19.8255 27.2995 19.7033 27.2548 19.5775 27.2106C18.9375 26.9857 18.4661 26.6612 18.143 26.2919C16.5587 24.4805 18.5442 21.5912 21.7085 24.0941C22.0597 24.3719 22.3963 24.6879 22.7065 25.0369C24.5081 23.6786 26.4401 22.4918 28.5 21.4999C33.2212 19.5121 39.1712 17.769 45.8044 17.2656L45.8107 17.2635ZM45.429 15.2888C46.0492 15.1106 46.6994 15.0186 47.369 14.9996C46.7034 14.5587 45.8866 14.1515 44.8932 13.8204C43.0594 13.2091 42.0684 11.227 42.6796 9.39319C43.2909 7.5594 45.273 6.56834 47.1068 7.17962C51.9151 8.7824 55.1864 11.9785 56.427 15.5773C64.7985 16.7183 73.6748 20.1195 82.2512 27.1647C83.7336 24.855 86.1237 22.8696 89.2703 21.5936C90.3164 17.3024 93.8745 13.1244 99.6093 11.6152C101.479 11.1233 103.393 12.2399 103.885 14.1093C104.377 15.9786 103.26 17.8928 101.391 18.3848C99.6811 18.8347 98.4196 19.6606 97.544 20.604C99.5469 21.0755 101.212 22.1763 102.217 23.9214C103.185 25.6037 103.36 27.7724 102.292 29.6335C101.178 31.5739 99.1216 32.5 97 32.5C96.5687 32.5 96.1474 32.4714 95.7378 32.4151C95.9581 32.9492 96.0902 33.5382 96.1115 34.1756C96.1359 34.9059 96.0086 35.591 95.7731 36.2166C99.4891 37.6359 102.605 37.8357 105.794 38.034L105.883 38.0395C108.711 38.2152 111.718 38.4021 115.007 39.6015C118.357 40.8231 121.867 43.0383 125.914 47.0857C128.176 49.348 129.974 52.1852 131.323 55.3839C131.887 55.523 132.432 55.7022 132.954 55.9117C134.404 56.4935 135.539 57.3382 136.217 58.4352C136.913 59.5608 137.052 60.845 136.644 61.9966C136.182 63.3004 135.134 64.2108 133.863 64.5729C135.383 74.3259 133.972 85.8161 129.399 96.1091L127.672 110.736C127.212 114.632 123.681 117.418 119.785 116.958L116.671 116.59L116.206 120.531C115.633 125.375 111.243 128.838 106.399 128.266L88.9064 126.201C75.9104 128.918 61.4891 128.911 48.5979 126.179C35.6387 123.432 23.9643 117.872 16.9496 109.263C15.4708 107.448 14.1111 105.55 12.8688 103.584C10.4482 102.644 8.63093 100.406 8.36497 97.6397L8.04178 94.2785C0.477324 76.1795 1.05169 54.6355 9.07101 38.7194C6.01837 39.4335 3.31237 37.8468 2.88286 35.1651C2.6643 33.8005 3.13597 32.3799 4.28615 31.372C5.40512 30.3914 6.98553 29.9443 8.81653 29.9801C10.4253 30.0116 12.1668 30.3428 13.8241 31.1074C14.7383 29.9168 15.7085 28.7791 16.7346 27.7008C15.5437 26.422 15.1949 24.6503 16.0333 23.0817C16.6208 21.9825 17.7345 21.2235 19.0972 21.128C20.388 21.0376 21.6818 21.547 22.8653 22.4599C24.3727 21.4267 25.9622 20.5021 27.6324 19.6979L27.6776 19.6762L27.7239 19.6567C32.5532 17.6233 38.6339 15.8331 45.429 15.2888ZM89.2923 35.1553C88.857 34.881 88.4142 34.5903 87.9634 34.2822C88.4064 34.1644 88.797 34.089 89.1389 34.0453C89.2107 34.0361 89.2803 34.0283 89.3479 34.0218C89.5516 34.0023 89.736 33.9946 89.902 33.9961C90.1471 33.9982 90.3521 34.0203 90.5201 34.0536C90.6079 34.071 90.6855 34.0915 90.7535 34.1138C90.9929 34.1924 91.0784 34.2809 91.0983 34.3049C91.1134 34.3232 91.1138 34.3288 91.1143 34.3428C91.1157 34.3848 91.0779 34.6857 90.6002 35.0135C90.5459 35.0507 90.4865 35.0876 90.422 35.1234C90.2533 35.217 90.0491 35.3037 89.8077 35.3725C89.8077 35.3725 89.8077 35.3725 89.8077 35.3725C89.7698 35.3833 89.7309 35.3936 89.6912 35.4035C89.5589 35.3223 89.4259 35.2396 89.2923 35.1553ZM90.1307 28.9993C90.1646 28.9769 90.1989 28.9545 90.2337 28.9323C90.2489 28.9565 90.2642 28.9807 90.2797 29.0048C90.2302 29.0026 90.1805 29.0007 90.1307 28.9993ZM121.272 105.88C120.81 106.473 120.333 107.056 119.841 107.628C119.341 108.209 118.826 108.778 118.295 109.335C118.099 109.54 117.902 109.744 117.702 109.945L118.216 110.006C119.615 110.171 120.884 109.17 121.049 107.771L121.272 105.88ZM95.9443 25.3794C95.4436 25.3066 94.8334 25.3 94.0964 25.4042C94.193 25.7593 94.3331 26.0719 94.5073 26.334C94.841 26.8364 95.3583 27.2469 96.1514 27.4163C96.4051 27.4705 96.6869 27.5 97 27.5C97.6952 27.5 97.9008 27.2395 97.9554 27.1444C98.0292 27.0159 98.0786 26.7552 97.8836 26.4165C97.7642 26.2092 97.4891 25.9149 97 25.6842C96.9312 25.6517 96.8582 25.6205 96.7808 25.591C96.5444 25.5009 96.2671 25.4263 95.9443 25.3794Z" fill="black"/>
<path d="M9.01116 36.6618C13.0314 35.3661 15.8145 35.9896 17.4593 37.8014C17.5394 37.8895 17.7101 37.7915 17.6602 37.6834C15.7442 33.5306 12.0148 32.0431 8.7774 31.9797C2.74748 31.8618 4.27679 38.1877 9.01116 36.6618Z" fill="#FFE7AA"/>
<path d="M130.273 61.7669C128.098 59.8868 125.133 58.9133 122.952 59.7465C122.84 59.7889 122.709 59.6098 122.797 59.5293C125.952 56.6361 129.372 56.6294 132.21 57.7679C137.515 59.8963 133.84 64.8502 130.273 61.7669Z" fill="#FFA776"/>
<path d="M19.5775 27.2106C22.6359 28.2851 23.6138 29.6778 23.7441 31.4542C23.7599 31.6707 24.0533 31.738 24.1257 31.5333C25.2142 28.4564 23.6934 25.6641 21.7086 24.0941C17.8991 21.0809 15.7981 25.8827 19.5775 27.2106Z" fill="#FFA776"/>
<path fill-rule="evenodd" clip-rule="evenodd" d="M68.0274 26.0273C68.2599 25.9424 68.5172 26.0621 68.6021 26.2946L69.2264 28.0045L69.9945 26.3531C70.0989 26.1287 70.3654 26.0313 70.5899 26.1357C70.8144 26.2401 70.9117 26.5067 70.8073 26.7312L70.0375 28.3864L71.753 27.7601C71.9856 27.6752 72.2429 27.7948 72.3278 28.0274C72.4127 28.2599 72.293 28.5172 72.0605 28.6021L70.3562 29.2244L71.6205 29.8124C71.8449 29.9168 71.9423 30.1834 71.8379 30.4079C71.7335 30.6323 71.4669 30.7296 71.2425 30.6253L69.9667 30.0319L70.595 31.753C70.6799 31.9855 70.5603 32.2429 70.3277 32.3278C70.0952 32.4127 69.8379 32.293 69.753 32.0605L69.1266 30.3449L68.3622 31.9886C68.2578 32.213 67.9912 32.3104 67.7667 32.206C67.5423 32.1016 67.445 31.835 67.5493 31.6105L68.312 29.9707L66.6021 30.5951C66.3695 30.68 66.1122 30.5603 66.0273 30.3277C65.9424 30.0952 66.0621 29.8379 66.2946 29.753L68.0158 29.1246L66.5483 28.4421C66.3239 28.3377 66.2266 28.0711 66.331 27.8467C66.4353 27.6222 66.7019 27.5249 66.9264 27.6293L68.3823 28.3064L67.7601 26.602C67.6752 26.3695 67.7948 26.1122 68.0274 26.0273Z" fill="white"/>
<path fill-rule="evenodd" clip-rule="evenodd" d="M11.6574 57.612C11.7937 57.6787 11.85 57.8433 11.7833 57.9795L11.2925 58.9814L12.3485 58.6198C12.492 58.5707 12.6482 58.6472 12.6973 58.7907C12.7465 58.9342 12.67 59.0904 12.5265 59.1396L11.4681 59.502L12.4732 59.9943C12.6094 60.061 12.6658 60.2256 12.599 60.3618C12.5323 60.4981 12.3678 60.5544 12.2315 60.4877L11.233 59.9985L11.5098 60.807C11.5589 60.9505 11.4824 61.1067 11.3389 61.1559C11.1954 61.205 11.0392 61.1285 10.99 60.985L10.7107 60.1692L10.2168 61.1776C10.15 61.3138 9.98548 61.3702 9.84924 61.3034C9.713 61.2367 9.65666 61.0722 9.72339 60.9359L10.2157 59.9308L9.16474 60.2907C9.02121 60.3399 8.86502 60.2634 8.81588 60.1198C8.76673 59.9763 8.84324 59.8201 8.98676 59.771L10.0353 59.4119L9.03346 58.9212C8.89722 58.8544 8.84088 58.6899 8.90761 58.5536C8.97435 58.4174 9.13889 58.3611 9.27513 58.4278L10.2835 58.9217L9.96223 57.9834C9.91308 57.8399 9.98959 57.6837 10.1331 57.6346C10.2766 57.5854 10.4328 57.6619 10.482 57.8055L10.8008 58.7364L11.2899 57.7379C11.3567 57.6016 11.5212 57.5453 11.6574 57.612Z" fill="white"/>
<path fill-rule="evenodd" clip-rule="evenodd" d="M61.7983 116.451C61.8938 116.665 61.7973 116.917 61.5827 117.012L60.0051 117.715L61.6182 118.334C61.8374 118.418 61.9469 118.664 61.8628 118.883C61.7786 119.102 61.5326 119.212 61.3134 119.128L59.6965 118.507L60.4012 120.09C60.4968 120.305 60.4003 120.556 60.1857 120.652C59.9712 120.747 59.7198 120.651 59.6243 120.436L58.9241 118.863L58.45 120.099C58.3658 120.318 58.1199 120.427 57.9006 120.343C57.6813 120.259 57.5718 120.013 57.656 119.794L58.1344 118.547L56.5463 119.254C56.3317 119.35 56.0804 119.254 55.9849 119.039C55.8893 118.824 55.9858 118.573 56.2004 118.478L57.7834 117.773L56.1777 117.156C55.9584 117.072 55.8489 116.826 55.9331 116.607C56.0173 116.388 56.2632 116.278 56.4825 116.362L58.0843 116.977L57.3819 115.4C57.2864 115.185 57.3829 114.934 57.5974 114.838C57.812 114.743 58.0633 114.839 58.1589 115.054L58.8659 116.642L59.4162 115.208C59.5003 114.989 59.7463 114.88 59.9656 114.964C60.1848 115.048 60.2944 115.294 60.2102 115.513L59.6642 116.935L61.2368 116.235C61.4514 116.14 61.7027 116.236 61.7983 116.451Z" fill="white"/>
<path fill-rule="evenodd" clip-rule="evenodd" d="M129.657 72.9077C129.794 72.9744 129.85 73.1389 129.783 73.2752L129.293 74.2771L130.348 73.9155C130.492 73.8663 130.648 73.9428 130.697 74.0864C130.746 74.2299 130.67 74.3861 130.526 74.4352L129.468 74.7976L130.473 75.29C130.609 75.3567 130.666 75.5212 130.599 75.6575C130.532 75.7937 130.368 75.8501 130.232 75.7833L129.233 75.2942L129.51 76.1027C129.559 76.2462 129.482 76.4024 129.339 76.4515C129.195 76.5007 129.039 76.4242 128.99 76.2806L128.711 75.4648L128.217 76.4732C128.15 76.6095 127.985 76.6658 127.849 76.5991C127.713 76.5324 127.657 76.3678 127.723 76.2316L128.216 75.2265L127.165 75.5864C127.021 75.6355 126.865 75.559 126.816 75.4155C126.767 75.272 126.843 75.1158 126.987 75.0666L128.035 74.7076L127.033 74.2168C126.897 74.1501 126.841 73.9855 126.908 73.8493C126.974 73.7131 127.139 73.6567 127.275 73.7234L128.284 74.2174L127.962 73.2791C127.913 73.1356 127.99 72.9794 128.133 72.9302C128.277 72.8811 128.433 72.9576 128.482 73.1011L128.801 74.0321L129.29 73.0335C129.357 72.8973 129.521 72.8409 129.657 72.9077Z" fill="white"/>
<path fill-rule="evenodd" clip-rule="evenodd" d="M112.781 45.4373C112.651 45.0895 112.264 44.9128 111.916 45.0427C111.568 45.1726 111.391 45.5599 111.521 45.9078L112.502 48.5357L109.952 47.372C109.614 47.2178 109.215 47.3668 109.061 47.7046C108.907 48.0424 109.056 48.4412 109.393 48.5953L111.936 49.7552L109.616 50.6215C109.268 50.7514 109.092 51.1387 109.222 51.4866C109.351 51.8344 109.739 52.0111 110.087 51.8812L112.425 51.0081L111.253 53.5755C111.099 53.9134 111.248 54.3122 111.586 54.4663C111.924 54.6204 112.323 54.4714 112.477 54.1336L113.64 51.5828L114.615 54.1925C114.745 54.5403 115.132 54.717 115.48 54.5871C115.828 54.4572 116.005 54.0699 115.875 53.722L114.898 51.1064L117.457 52.2738C117.795 52.4279 118.194 52.279 118.348 51.9411C118.502 51.6033 118.353 51.2045 118.015 51.0504L115.448 49.8792L117.484 49.1188C117.831 48.9889 118.008 48.6016 117.878 48.2537C117.748 47.9059 117.361 47.7292 117.013 47.8591L114.995 48.6127L116.155 46.0701C116.309 45.7323 116.16 45.3335 115.823 45.1794C115.485 45.0253 115.086 45.1742 114.932 45.5121L113.764 48.0712L112.781 45.4373Z" fill="white"/>
<path fill-rule="evenodd" clip-rule="evenodd" d="M116.582 72.0054C118.401 72.2202 119.702 73.8693 119.487 75.6887L118.842 81.15L123.942 81.7523C126.741 82.0828 128.742 84.6199 128.412 87.419L125.686 110.502C125.355 113.301 122.818 115.302 120.019 114.971L114.919 114.369L114.219 120.297C113.777 124.044 110.381 126.723 106.634 126.28L76.1456 122.68C72.3986 122.237 69.7198 118.841 70.1623 115.094L75.4302 70.4859C75.6451 68.6665 77.2942 67.3658 79.1136 67.5806L116.582 72.0054ZM115.473 109.682L118.313 85.6337L121.056 85.9576C122.455 86.1229 123.456 87.3914 123.29 88.791L121.049 107.771C120.884 109.17 119.615 110.171 118.216 110.006L115.473 109.682Z" fill="#D4F0FF"/>
<path d="M116.157 75.7013C116.372 73.8819 115.071 72.2328 113.252 72.0179L82.3419 68.3677C80.5225 68.1528 78.8734 69.4535 78.6585 71.273L74.0112 110.626C73.5687 114.373 76.2475 117.769 79.9945 118.212L103.924 121.038C107.671 121.48 111.068 118.801 111.51 115.054L116.157 75.7013Z" fill="#FFD467"/>
<path fill-rule="evenodd" clip-rule="evenodd" d="M112.406 107.47C112.042 110.55 108.709 112.689 104.963 112.246L81.0327 109.42C77.2857 108.978 74.5431 106.122 74.9069 103.041L74.0112 110.626C73.5687 114.373 76.2475 117.769 79.9945 118.212L103.924 121.038C107.671 121.48 111.068 118.801 111.51 115.054L112.406 107.47Z" fill="#FBC745"/>
<path fill-rule="evenodd" clip-rule="evenodd" d="M117.15 75.8186C117.43 73.4507 115.737 71.3044 113.369 71.0248L82.4592 67.3746C80.0913 67.0949 77.945 68.7878 77.6654 71.1557L73.0181 110.509C72.5108 114.804 75.5818 118.698 79.8772 119.205L103.807 122.031C108.102 122.538 111.996 119.467 112.503 115.172L117.15 75.8186ZM113.135 73.011C114.406 73.1611 115.314 74.3131 115.164 75.584L110.517 114.937C110.139 118.136 107.24 120.422 104.042 120.045L80.1118 117.219C76.9133 116.841 74.6266 113.942 75.0043 110.743L79.6516 71.3902C79.8017 70.1193 80.9537 69.2107 82.2246 69.3608L113.135 73.011Z" fill="black"/>
<circle r="2.25736" transform="matrix(-0.993099 -0.117278 -0.117278 0.993099 98.5067 92.1803)" fill="#FFF5D2" fill-opacity="0.2"/>
<circle r="0.820856" transform="matrix(-0.993099 -0.117278 -0.117278 0.993099 91.7123 84.9722)" fill="#FFF5D2" fill-opacity="0.4"/>
<circle r="0.820856" transform="matrix(-0.993099 -0.117278 -0.117278 0.993099 82.3605 104.219)" fill="#FFF5D2" fill-opacity="0.4"/>
<circle r="0.615642" transform="matrix(-0.993099 -0.117278 -0.117278 0.993099 110.058 88.8919)" fill="#FFF5D2" fill-opacity="0.4"/>
<circle r="0.820856" transform="matrix(-0.993099 -0.117278 -0.117278 0.993099 90.9467 80.9556)" fill="#FFF5D2" fill-opacity="0.4"/>
<circle r="0.513035" transform="matrix(-0.993099 -0.117278 -0.117278 0.993099 88.7301 114.728)" fill="#FFF5D2" fill-opacity="0.4"/>
<g opacity="0.6">
<rect x="100.448" y="90.7141" width="9.46361" height="9.46361" rx="2.27722" transform="rotate(-85.3699 100.448 90.7141)" fill="#F9FBFF" fill-opacity="0.5"/>
<rect x="101.062" y="90.1926" width="8.325" height="8.325" rx="1.70791" transform="rotate(-85.3699 101.062 90.1926)" stroke="#E3F0FF" stroke-opacity="0.5" stroke-width="1.13861"/>
</g>
<g opacity="0.6">
<rect x="79.9534" y="94.5079" width="10.5728" height="10.5728" rx="2.27722" transform="rotate(-68.1137 79.9534 94.5079)" fill="#F9FBFF" fill-opacity="0.5"/>
<rect x="80.6939" y="94.1919" width="9.43418" height="9.43418" rx="1.70791" transform="rotate(-68.1137 80.6939 94.1919)" stroke="#E3F0FF" stroke-opacity="0.5" stroke-width="1.13861"/>
</g>
<g opacity="0.8" filter="url(#filter0_i_3614_2659)">
<rect x="83.1238" y="77.8655" width="5.77119" height="35.3976" rx="2.8856" transform="rotate(6.99199 83.1238 77.8655)" fill="white" fill-opacity="0.12"/>
</g>
<g opacity="0.8" filter="url(#filter1_i_3614_2659)">
<rect x="93.8938" y="79.2645" width="5.77119" height="35.3976" rx="2.8856" transform="rotate(6.99199 93.8938 79.2645)" fill="white" fill-opacity="0.12"/>
</g>
<g opacity="0.8" filter="url(#filter2_i_3614_2659)">
<rect x="104.664" y="80.6635" width="5.77119" height="35.3976" rx="2.8856" transform="rotate(6.99199 104.664 80.6635)" fill="white" fill-opacity="0.12"/>
</g>
<path d="M112.293 76.6553C116.056 77.052 119.169 75.8499 120.045 74.7207C121.825 74.9309 123.523 74.1613 124.187 72.5474C125.538 69.2626 123.562 66.8732 121.007 66.5715C121.3 65.5043 120.772 61.2734 117.5 60.5C114.084 59.6925 110.821 60.0436 108.873 62.2006C108.768 61.1172 106.046 58.2972 102.069 57.8276C97.5496 57.2939 94.5033 59.0348 93.0998 60.797C92.9996 59.9589 91.321 56.0872 87.3541 55.0934C81.661 53.6673 78.4657 57.9059 78.2327 59.3167C76.1546 58.9183 73.012 59.7394 72.5522 63.6329C72.0924 67.5264 74.9827 69.1238 77.1313 68.643C76.9817 69.9107 77.994 71.4 79.2025 72.1928C81.4214 73.6483 84.7375 74.5296 88.1515 72.3315C88.3413 74.0983 92.2245 78.5893 95.8936 79.5734C98.8543 80.3676 101.867 79.6009 104.268 78.4207L103.983 80.6549C103.713 82.7747 105.213 84.7118 107.332 84.9817C109.452 85.2517 111.389 83.7521 111.659 81.6324L112.293 76.6553Z" fill="white"/>
<path fill-rule="evenodd" clip-rule="evenodd" d="M121.381 76.7077L121.063 79.3984L124.177 79.7661C128.073 80.2262 130.858 83.7575 130.398 87.6536L127.672 110.736C127.212 114.632 123.681 117.418 119.785 116.958L116.671 116.59L116.205 120.531C115.633 125.375 111.243 128.838 106.399 128.266L75.911 124.666C71.0671 124.094 67.604 119.703 68.1761 114.859L73.4439 70.2514C73.4556 70.1523 73.47 70.0541 73.487 69.9569C72.931 69.6383 72.4145 69.2191 71.97 68.6965C70.8414 67.3697 70.313 65.5413 70.5661 63.3984C70.8641 60.8747 72.0933 59.1187 73.7794 58.137C74.807 57.5386 75.9253 57.2727 76.9705 57.2319C77.0879 57.0401 77.2138 56.8542 77.344 56.677C77.8901 55.9336 78.6485 55.1557 79.6135 54.4928C81.5828 53.1398 84.3887 52.2887 87.8402 53.1534C90.3744 53.7882 92.1387 55.335 93.2576 56.7781C93.4566 57.0347 93.6377 57.2911 93.8014 57.5426C95.8621 56.231 98.7478 55.4214 102.304 55.8414C104.698 56.1241 106.7 57.1098 108.128 58.1878C108.588 58.5351 109.002 58.9025 109.36 59.2747C111.943 57.7964 115.288 57.7375 118.275 58.9422C120.556 59.8619 121.87 61.4577 122.529 63.0429C122.812 63.725 122.98 64.4197 123.052 65.0702C124.148 65.5439 125.109 66.3276 125.765 67.3914C126.791 69.0568 126.92 71.1597 126.037 73.3083C125.182 75.3854 123.327 76.4792 121.381 76.7077ZM122.308 66.9274C121.904 66.7465 121.465 66.6255 121.008 66.5715C121.058 66.3887 121.091 66.1402 121.093 65.8469C121.106 64.428 120.411 61.9601 117.527 60.797C115.067 59.8047 112.494 59.8821 110.543 60.9105C109.913 61.2427 109.348 61.674 108.873 62.2006C108.834 61.799 108.436 61.1588 107.747 60.4882C106.578 59.3495 104.572 58.1231 102.069 57.8275C98.8639 57.4491 96.3997 58.2146 94.737 59.3204C94.0552 59.7739 93.5081 60.2845 93.1 60.797C93.061 60.4709 92.783 59.6854 92.2242 58.789C91.3469 57.3816 89.7775 55.7005 87.3542 55.0934C81.7491 53.6893 78.5652 57.7763 78.2458 59.2493C78.2408 59.2725 78.2365 59.2949 78.2329 59.3167C78.1516 59.3011 78.0687 59.2874 77.9844 59.2757C75.9131 58.9872 72.9941 59.8917 72.5523 63.6329C72.2946 65.8153 73.0894 67.2763 74.2162 68.0542C74.8192 68.4706 75.5174 68.6913 76.2001 68.7223C75.7884 69.2042 75.5101 69.8092 75.4301 70.4859L70.1623 115.094C69.7198 118.841 72.3986 122.237 76.1456 122.68L106.634 126.28C110.381 126.723 113.777 124.044 114.219 120.297L114.919 114.369L120.019 114.971C122.818 115.302 125.355 113.301 125.686 110.502L128.412 87.419C128.742 84.6199 126.741 82.0828 123.942 81.7523L118.842 81.15L119.487 75.6887C119.506 75.5326 119.513 75.3778 119.51 75.2249C119.734 75.0589 119.915 74.889 120.045 74.7207C121.825 74.9309 123.523 74.1613 124.187 72.5474C125.296 69.8506 124.163 67.7574 122.308 66.9274ZM115.473 109.682L118.313 85.6337L121.056 85.9576C122.455 86.1229 123.456 87.3914 123.29 88.791L121.049 107.771C120.884 109.17 119.615 110.171 118.216 110.006L115.473 109.682ZM120.064 87.8545L117.694 107.93L118.45 108.02C118.753 108.055 119.027 107.839 119.063 107.536L121.304 88.5564C121.34 88.2538 121.124 87.9795 120.821 87.9438L120.064 87.8545Z" fill="black"/>
<path d="M31.1824 57.0741C24.9516 59.5197 19.0434 57.5068 17.7356 55.7441C15.6923 55.9405 13.767 55.0171 13.0468 53.1523C11.5808 49.3572 13.9034 46.6701 16.836 46.3881C16.5281 45.1587 17.8805 41.8602 21.5148 40.5875C22.8363 40.1247 28.6636 39.1657 30.841 41.6842C30.9875 40.4461 34.1753 37.2844 38.7408 36.8455C43.9293 36.3466 47.3745 38.4158 48.938 40.4687C49.0736 39.5115 51.274 36.2406 55.8414 35.2012C61.0771 34.0097 65.768 37.5216 65.9998 39.143C68.3894 38.7384 72.9902 39.6249 73.42 44.095C73.8498 48.5651 69.4779 50.4542 67.0293 49.8504C67.1692 51.3057 65.9729 52.9861 64.5693 53.8639C61.9922 55.4756 58.1729 56.4024 54.3179 53.8004C54.0567 55.8189 49.662 58.6545 45.4358 59.6904C39.5414 61.1351 33.4216 59.4467 31.1824 57.0741Z" fill="white"/>
<path fill-rule="evenodd" clip-rule="evenodd" d="M22.0433 50.6042C20.2196 50.7796 18.8834 52.4001 19.0588 54.2238L19.9072 63.0474L12.246 63.784C9.44036 64.0538 7.38464 66.5468 7.6544 69.3525L10.3558 97.4482C10.6256 100.254 13.1187 102.31 15.9243 102.04L23.5855 101.303L24.1594 107.272C24.5205 111.027 27.8578 113.779 31.6135 113.418L67.9861 109.921C71.7418 109.56 74.4937 106.222 74.1326 102.467L69.0319 49.4188C68.8566 47.5951 67.2361 46.2589 65.4124 46.4343L22.0433 50.6042ZM23.0665 95.9051L20.4036 68.2107L15.8352 68.65C14.4324 68.7849 13.4045 70.0314 13.5394 71.4342L15.7138 94.0486C15.8487 95.4514 17.0952 96.4793 18.498 96.3444L23.0665 95.9051Z" fill="#D4F0FF"/>
<path d="M22.5719 53.4769C22.3965 51.6533 23.7328 50.0328 25.5564 49.8574L62.1368 46.3402C63.9605 46.1648 65.581 47.501 65.7563 49.3247L70.4003 97.6228C70.7614 101.378 68.0095 104.716 64.2538 105.077L34.6699 107.921C30.9142 108.283 27.5769 105.531 27.2158 101.775L22.5719 53.4769Z" fill="#FFD467"/>
<path fill-rule="evenodd" clip-rule="evenodd" d="M26.2603 91.836L27.2159 101.775C27.577 105.531 30.9143 108.283 34.67 107.921L64.2539 105.077C68.0096 104.716 70.7615 101.379 70.4004 97.6228L69.4447 87.6838C69.7363 90.7161 66.928 93.467 63.1723 93.8281L33.5884 96.6726C29.8327 97.0337 26.5518 94.8683 26.2603 91.836Z" fill="#FBC745"/>
<path fill-rule="evenodd" clip-rule="evenodd" d="M62.3283 48.331L25.7478 51.8482C25.0237 51.9179 24.4931 52.5613 24.5627 53.2855L29.2066 101.584C29.462 104.24 31.8223 106.186 34.4785 105.931L64.0624 103.086C66.7186 102.831 68.6648 100.47 68.4094 97.8142L63.7655 49.5161C63.6959 48.7919 63.0524 48.2613 62.3283 48.331ZM25.5564 49.8574C23.7328 50.0328 22.3965 51.6533 22.5719 53.4769L27.2158 101.775C27.5769 105.531 30.9142 108.283 34.6699 107.921L64.2538 105.077C68.0095 104.716 70.7614 101.378 70.4003 97.6228L65.7563 49.3247C65.581 47.501 63.9605 46.1648 62.1368 46.3402L25.5564 49.8574Z" fill="black"/>
<circle cx="41.96" cy="76.3235" r="2.59359" transform="rotate(-5.49217 41.96 76.3235)" fill="#FFF5D2" fill-opacity="0.2"/>
<circle cx="49.9441" cy="68.2128" r="0.943122" transform="rotate(-5.49217 49.9441 68.2128)" fill="#FFF5D2" fill-opacity="0.4"/>
<circle cx="64.22" cy="90.703" r="0.943122" transform="rotate(-5.49217 64.22 90.703)" fill="#FFF5D2" fill-opacity="0.4"/>
<circle cx="31.4583" cy="72.7217" r="0.707342" transform="rotate(-5.49217 31.4583 72.7217)" fill="#FFF5D2" fill-opacity="0.4"/>
<circle cx="50.9236" cy="63.6181" r="0.943122" transform="rotate(-5.49217 50.9236 63.6181)" fill="#FFF5D2" fill-opacity="0.4"/>
<circle cx="52.5958" cy="100.797" r="0.589451" transform="rotate(-5.49217 52.5958 100.797)" fill="#FFF5D2" fill-opacity="0.4"/>
<g opacity="0.6">
<rect x="32.4636" y="64.2022" width="13.6633" height="13.6633" rx="2.27722" transform="rotate(15.9196 32.4636 64.2022)" fill="#F9FBFF" fill-opacity="0.5"/>
<rect x="32.8549" y="64.9058" width="12.5247" height="12.5247" rx="1.70791" transform="rotate(15.9196 32.8549 64.9058)" stroke="#E3F0FF" stroke-opacity="0.5" stroke-width="1.13861"/>
</g>
<g opacity="0.6">
<rect x="48.7192" y="73.7714" width="9.46361" height="9.46361" rx="2.27722" transform="rotate(-8.80064 48.7192 73.7714)" fill="#F9FBFF" fill-opacity="0.5"/>
<rect x="49.3689" y="74.2469" width="8.325" height="8.325" rx="1.70791" transform="rotate(-8.80064 49.3689 74.2469)" stroke="#E3F0FF" stroke-opacity="0.5" stroke-width="1.13861"/>
</g>
<g opacity="0.6">
<rect x="54.2468" y="57.2729" width="10.5728" height="10.5728" rx="2.27722" transform="rotate(8.4556 54.2468 57.2729)" fill="#F9FBFF" fill-opacity="0.5"/>
<rect x="54.7262" y="57.9197" width="9.43418" height="9.43418" rx="1.70791" transform="rotate(8.4556 54.7262 57.9197)" stroke="#E3F0FF" stroke-opacity="0.5" stroke-width="1.13861"/>
</g>
<rect x="29.8545" y="61.4389" width="6.68296" height="40.9899" rx="3.34148" transform="rotate(-5.60312 29.8545 61.4389)" fill="white" fill-opacity="0.12"/>
<rect x="42.3792" y="60.3003" width="6.68296" height="40.9899" rx="3.34148" transform="rotate(-5.60312 42.3792 60.3003)" fill="white" fill-opacity="0.12"/>
<rect x="54.9038" y="59.1617" width="6.68296" height="40.9899" rx="3.34148" transform="rotate(-5.60312 54.9038 59.1617)" fill="white" fill-opacity="0.12"/>
<path d="M25.8422 60.5965C21.738 61.6767 19.3162 58.0777 18.1333 56.3198C17.9803 56.0924 17.8479 55.8957 17.7354 55.744C15.6921 55.9405 13.7668 55.017 13.0465 53.1523C11.5806 49.3571 13.9031 46.67 16.8358 46.3881C16.5279 45.1587 17.8803 41.8602 21.5145 40.5875C22.8361 40.1247 28.6634 39.1657 30.8407 41.6842C30.9873 40.446 32.491 35.8235 38.9633 35.2012C44.7592 34.6439 46.9196 37.6626 48.4306 39.7738C48.6069 40.0201 48.7743 40.2542 48.9377 40.4687C49.0734 39.5114 51.2738 36.2406 55.8411 35.2012C61.0769 34.0097 65.7678 37.5215 65.9996 39.1429C68.3892 38.7383 72.9899 39.6249 73.4197 44.0949C73.8495 48.565 69.4777 50.4542 67.0291 49.8503C67.169 51.3057 65.9727 52.986 64.5691 53.8638C61.992 55.4755 58.1727 56.4023 54.3177 53.8003C54.0564 55.8189 49.6618 58.6545 45.4356 59.6903C44.9449 59.8106 44.4527 59.9092 43.9612 59.9874L44.8226 69.6177C45.0129 71.746 43.4419 73.6257 41.3135 73.816C39.1852 74.0064 37.3055 72.4353 37.1152 70.307L36.1603 59.631C35.4905 59.4574 34.8589 59.2505 34.2762 59.0164L36.4764 83.6168C36.6865 85.966 34.9525 88.0407 32.6032 88.2508C30.254 88.4609 28.1793 86.7268 27.9692 84.3776L25.8422 60.5965Z" fill="white"/>
<path fill-rule="evenodd" clip-rule="evenodd" d="M16.9217 57.7633C14.5256 57.6688 12.1616 56.412 11.1808 53.873C10.2506 51.4648 10.453 49.1594 11.6122 47.3668C12.4178 46.1209 13.6108 45.2411 14.9561 44.7683C14.97 44.7126 14.9846 44.6578 14.9996 44.6039C15.2005 43.8851 15.5466 43.1281 16.0298 42.3991C17.0016 40.9329 18.5869 39.4937 20.8535 38.6999C21.767 38.38 23.7891 37.999 25.8748 38.018C27.1574 38.0296 28.7965 38.1926 30.2532 38.8478C30.7232 38.3341 31.3013 37.8209 31.9632 37.3433C33.5899 36.1696 35.8595 35.1133 38.5491 34.8547C42.8467 34.4414 46.2273 35.5949 48.5133 37.2897C48.7645 36.9968 49.0466 36.7003 49.3593 36.407C50.727 35.1242 52.7301 33.8581 55.3973 33.2511C58.5632 32.5306 61.5203 33.2388 63.694 34.3298C64.7829 34.8764 65.7274 35.5442 66.4447 36.2413C66.6827 36.4726 66.9365 36.7464 67.1689 37.0556C68.4719 37.0633 69.9586 37.3316 71.3183 37.992C73.345 38.9763 75.1186 40.8678 75.4105 43.9036C75.774 47.684 73.6037 50.105 71.2144 51.2217L76.1233 102.275C76.5901 107.13 73.0326 111.445 68.1774 111.912L31.8048 115.409C26.9496 115.876 22.6353 112.318 22.1684 107.463L21.786 103.485L16.1156 104.031C12.2105 104.406 8.7404 101.545 8.36492 97.6397L5.66348 69.5439C5.288 65.6388 8.14933 62.1687 12.0544 61.7932L17.7248 61.248L17.4265 58.1455C17.2515 58.0252 17.0824 57.8978 16.9217 57.7633ZM19.9071 63.0474L12.2459 63.784C9.44025 64.0538 7.38454 66.5469 7.6543 69.3525L10.3557 97.4482C10.6255 100.254 13.1186 102.31 15.9242 102.04L23.5854 101.303L24.1593 107.272C24.5204 111.027 27.8577 113.779 31.6134 113.418L67.986 109.921C71.7417 109.56 74.4936 106.222 74.1325 102.467L69.0728 49.8447C71.3292 49.3756 73.7444 47.4716 73.4197 44.095C73.0066 39.7983 68.7396 38.8125 66.2871 39.1019C66.1881 39.1136 66.0922 39.1273 65.9995 39.143C65.9971 39.1262 65.9942 39.1092 65.9909 39.092C65.6705 37.4494 61.0226 34.0221 55.8411 35.2012C53.0079 35.846 51.0855 37.3493 50.0017 38.6265C49.3384 39.4083 48.9892 40.1053 48.9377 40.4688C48.5399 39.9464 48.0202 39.423 47.381 38.9411C45.5081 37.5291 42.6089 36.4735 38.7406 36.8455C35.7086 37.137 33.2843 38.6293 31.9548 39.9616C31.2823 40.6354 30.8899 41.2683 30.8407 41.6842C30.3933 41.1667 29.7917 40.796 29.1068 40.5377C26.4586 39.5389 22.5645 40.2198 21.5145 40.5875C18.2496 41.7309 16.8263 44.5093 16.794 45.9535C16.7903 46.1169 16.8045 46.2632 16.8358 46.3881C16.3107 46.4386 15.8053 46.5662 15.3376 46.7634C13.1929 47.6677 11.843 50.0366 13.0465 53.1524C13.7668 55.0171 15.692 55.9406 17.7353 55.7441C18.0368 56.1504 18.5825 56.5699 19.3203 56.9451L19.9071 63.0474ZM20.4035 68.2108L23.0664 95.9051L18.4979 96.3444C17.0951 96.4793 15.8486 95.4514 15.7137 94.0486L13.5393 71.4342C13.4044 70.0314 14.4323 68.7849 15.8351 68.65L20.4035 68.2108ZM18.6041 70.393L16.0265 70.6408C15.7232 70.67 15.501 70.9395 15.5301 71.2428L17.7045 93.8572C17.7337 94.1605 18.0032 94.3827 18.3065 94.3536L20.8841 94.1057L18.6041 70.393Z" fill="black"/>
<path d="M84.5 48C79.9999 44.5 78.9999 35.5 86.9999 33C94.6358 30.6138 94 37.5 88 37C82 36.5 82.4999 27.5 91.5 24.5C100.156 21.6146 101.5 29 96.9999 29C89.9999 29 90.9999 17.5 100.5 15" stroke="#FFD467" stroke-width="3" stroke-linecap="round" stroke-linejoin="round"/>
<path d="M53 34C57.5001 30.5 58.5001 21.5001 50.5001 19C42.8642 16.6138 43.5 23.5 49.5 23C55.5 22.5 55.0001 13.5 46 10.5" stroke="#FFD467" stroke-width="3" stroke-linecap="round" stroke-linejoin="round"/>
<defs>
<filter id="filter0_i_3614_2659" x="79.1443" y="78.195" width="9.37817" height="35.1778" filterUnits="userSpaceOnUse" color-interpolation-filters="sRGB">
<feFlood flood-opacity="0" result="BackgroundImageFix"/>
<feBlend mode="normal" in="SourceGraphic" in2="BackgroundImageFix" result="shape"/>
<feColorMatrix in="SourceAlpha" type="matrix" values="0 0 0 0 0 0 0 0 0 0 0 0 0 0 0 0 0 0 127 0" result="hardAlpha"/>
<feOffset dy="-0.983265"/>
<feComposite in2="hardAlpha" operator="arithmetic" k2="-1" k3="1"/>
<feColorMatrix type="matrix" values="0 0 0 0 1 0 0 0 0 0.891667 0 0 0 0 0.620833 0 0 0 0.5 0"/>
<feBlend mode="normal" in2="shape" result="effect1_innerShadow_3614_2659"/>
</filter>
<filter id="filter1_i_3614_2659" x="89.9143" y="79.594" width="9.37817" height="35.1778" filterUnits="userSpaceOnUse" color-interpolation-filters="sRGB">
<feFlood flood-opacity="0" result="BackgroundImageFix"/>
<feBlend mode="normal" in="SourceGraphic" in2="BackgroundImageFix" result="shape"/>
<feColorMatrix in="SourceAlpha" type="matrix" values="0 0 0 0 0 0 0 0 0 0 0 0 0 0 0 0 0 0 127 0" result="hardAlpha"/>
<feOffset dy="-0.983265"/>
<feComposite in2="hardAlpha" operator="arithmetic" k2="-1" k3="1"/>
<feColorMatrix type="matrix" values="0 0 0 0 1 0 0 0 0 0.891667 0 0 0 0 0.620833 0 0 0 0.5 0"/>
<feBlend mode="normal" in2="shape" result="effect1_innerShadow_3614_2659"/>
</filter>
<filter id="filter2_i_3614_2659" x="100.684" y="80.993" width="9.37817" height="35.1778" filterUnits="userSpaceOnUse" color-interpolation-filters="sRGB">
<feFlood flood-opacity="0" result="BackgroundImageFix"/>
<feBlend mode="normal" in="SourceGraphic" in2="BackgroundImageFix" result="shape"/>
<feColorMatrix in="SourceAlpha" type="matrix" values="0 0 0 0 0 0 0 0 0 0 0 0 0 0 0 0 0 0 127 0" result="hardAlpha"/>
<feOffset dy="-0.983265"/>
<feComposite in2="hardAlpha" operator="arithmetic" k2="-1" k3="1"/>
<feColorMatrix type="matrix" values="0 0 0 0 1 0 0 0 0 0.891667 0 0 0 0 0.620833 0 0 0 0.5 0"/>
<feBlend mode="normal" in2="shape" result="effect1_innerShadow_3614_2659"/>
</filter>
</defs>
</svg>
