<svg width="140" height="140" viewBox="0 0 140 140" fill="none" xmlns="http://www.w3.org/2000/svg">
<mask id="path-1-outside-1_3614_4511" maskUnits="userSpaceOnUse" x="2.20996" y="11.0001" width="136" height="122" fill="black">
<rect fill="white" x="2.20996" y="11.0001" width="136" height="122"/>
<path fill-rule="evenodd" clip-rule="evenodd" d="M19.6554 23.3022L13.5284 23.3022C13.0682 23.3022 12.6627 22.9889 12.5812 22.5359C12.1204 19.9738 12.3915 16.5692 16.4492 15.3921C21.3766 13.9626 23.6207 16.806 23.6207 18.1052C24.0034 17.328 25.2447 16.4636 27.3446 16.9201C34.8167 13.5106 44.0237 15.3595 52.6525 17.0923C60.1446 18.5968 67.2009 20.0138 72.3073 17.8253C82.3261 13.5316 95.7438 15.3559 107.108 23.0114C108.792 22.7805 110.919 22.9223 113.553 23.6748C121.463 25.9348 122.028 32.1501 120.898 36.6702L120.577 36.6702C121.711 38.3848 122.764 40.2019 123.724 42.1209C135.024 64.7214 141.804 91.2771 112.988 113.878C75.6724 143.145 21.467 123.237 11.8508 109.923C2.3955 96.8307 6.75021 87.0157 11.0547 77.314C13.438 71.9424 15.8059 66.6055 15.8059 60.7663C15.8059 57.2226 15.2277 53.7779 14.652 50.3475C13.1999 41.6954 11.763 33.134 19.6554 23.3022Z"/>
</mask>
<path fill-rule="evenodd" clip-rule="evenodd" d="M19.6554 23.3022L13.5284 23.3022C13.0682 23.3022 12.6627 22.9889 12.5812 22.5359C12.1204 19.9738 12.3915 16.5692 16.4492 15.3921C21.3766 13.9626 23.6207 16.806 23.6207 18.1052C24.0034 17.328 25.2447 16.4636 27.3446 16.9201C34.8167 13.5106 44.0237 15.3595 52.6525 17.0923C60.1446 18.5968 67.2009 20.0138 72.3073 17.8253C82.3261 13.5316 95.7438 15.3559 107.108 23.0114C108.792 22.7805 110.919 22.9223 113.553 23.6748C121.463 25.9348 122.028 32.1501 120.898 36.6702L120.577 36.6702C121.711 38.3848 122.764 40.2019 123.724 42.1209C135.024 64.7214 141.804 91.2771 112.988 113.878C75.6724 143.145 21.467 123.237 11.8508 109.923C2.3955 96.8307 6.75021 87.0157 11.0547 77.314C13.438 71.9424 15.8059 66.6055 15.8059 60.7663C15.8059 57.2226 15.2277 53.7779 14.652 50.3475C13.1999 41.6954 11.763 33.134 19.6554 23.3022Z" fill="white"/>
<path d="M13.5284 23.3022L13.5284 27.3022H13.5284L13.5284 23.3022ZM19.6554 23.3022L22.7747 25.8062L27.9957 19.3022L19.6553 19.3022L19.6554 23.3022ZM12.5812 22.5359L8.64435 23.2439L8.64435 23.2439L12.5812 22.5359ZM16.4492 15.3921L15.3347 11.5504L16.4492 15.3921ZM23.6207 18.1052H19.6207L27.2092 19.8722L23.6207 18.1052ZM27.3446 16.9201L26.4949 20.8288L27.7948 21.1114L29.0051 20.5591L27.3446 16.9201ZM52.6525 17.0923L53.4401 13.1706L52.6525 17.0923ZM72.3073 17.8253L70.7316 14.1487V14.1487L72.3073 17.8253ZM107.108 23.0114L104.873 26.3288L106.138 27.1816L107.651 26.9744L107.108 23.0114ZM113.553 23.6748L112.454 27.5209L113.553 23.6748ZM120.898 36.6702L120.898 40.6702L124.021 40.6702L124.779 37.6403L120.898 36.6702ZM120.577 36.6702L120.577 32.6702L113.137 32.6701L117.241 38.8764L120.577 36.6702ZM123.724 42.1209L120.146 43.9097V43.9097L123.724 42.1209ZM112.988 113.878L115.457 117.025L112.988 113.878ZM11.8508 109.923L15.0935 107.581H15.0935L11.8508 109.923ZM11.0547 77.314L14.711 78.9362L11.0547 77.314ZM14.652 50.3475L18.5968 49.6854L14.652 50.3475ZM13.5284 27.3022L19.6554 27.3022L19.6553 19.3022L13.5283 19.3022L13.5284 27.3022ZM8.64435 23.2439C9.09618 25.7563 11.2929 27.3022 13.5284 27.3022L13.5283 19.3022C14.8434 19.3022 16.2291 20.2214 16.518 21.828L8.64435 23.2439ZM15.3347 11.5504C12.1815 12.4652 10.093 14.4458 9.09718 16.9836C8.1951 19.2825 8.35225 21.6197 8.64435 23.2439L16.518 21.828C16.3494 20.8901 16.4117 20.2439 16.5444 19.9057C16.594 19.7792 16.6496 19.702 16.7295 19.6308C16.8143 19.5552 17.0417 19.3851 17.5637 19.2337L15.3347 11.5504ZM27.6207 18.1052C27.6207 13.1984 21.8359 9.66443 15.3347 11.5504L17.5637 19.2337C19.1453 18.7748 19.7702 19.1233 19.8497 19.1702C19.932 19.2188 19.9248 19.2401 19.8748 19.1657C19.85 19.1289 19.798 19.0437 19.7465 18.8991C19.6998 18.7678 19.6207 18.4957 19.6207 18.1052H27.6207ZM28.1943 13.0114C24.6972 12.2511 21.3939 13.5726 20.0321 16.3382L27.2092 19.8722C26.9261 20.4472 26.5455 20.6728 26.3649 20.7474C26.1364 20.8417 26.1307 20.7496 26.4949 20.8288L28.1943 13.0114ZM53.4401 13.1706C49.1802 12.3151 44.4416 11.3565 39.7986 11.0846C35.1314 10.8113 30.2357 11.2041 25.6841 13.281L29.0051 20.5591C31.9256 19.2265 35.3694 18.839 39.3309 19.071C43.3166 19.3043 47.496 20.1366 51.865 21.014L53.4401 13.1706ZM70.7316 14.1487C69.0477 14.8704 66.7645 15.1036 63.6955 14.8566C60.6372 14.6104 57.2442 13.9345 53.4401 13.1706L51.865 21.014C55.5529 21.7546 59.4341 22.5394 63.0536 22.8308C66.6623 23.1212 70.4605 22.9687 73.8829 21.5019L70.7316 14.1487ZM109.342 19.694C97.1175 11.4583 82.2674 9.20483 70.7316 14.1487L73.8829 21.5019C82.3848 17.8583 94.3702 19.2535 104.873 26.3288L109.342 19.694ZM114.652 19.8287C111.609 18.9595 108.914 18.7264 106.564 19.0485L107.651 26.9744C108.671 26.8346 110.229 26.8851 112.454 27.5209L114.652 19.8287ZM124.779 37.6403C125.464 34.8994 125.743 31.2711 124.314 27.802C122.801 24.1257 119.625 21.2496 114.652 19.8287L112.454 27.5209C115.391 28.36 116.453 29.7215 116.917 30.8479C117.466 32.1815 117.462 33.9209 117.018 35.7L124.779 37.6403ZM120.577 40.6702L120.898 40.6702L120.898 32.6702L120.577 32.6702L120.577 40.6702ZM127.301 40.332C126.27 38.2691 125.136 36.3126 123.914 34.464L117.241 38.8764C118.286 40.4569 119.258 42.1347 120.146 43.9097L127.301 40.332ZM115.457 117.025C130.689 105.078 136.85 91.7394 137.396 78.1601C137.932 64.8444 133.042 51.8142 127.301 40.332L120.146 43.9097C125.705 55.0281 129.856 66.576 129.403 77.8385C128.96 88.8372 124.103 100.077 110.52 110.73L115.457 117.025ZM8.60804 112.265C11.6127 116.425 17.5492 120.521 24.7684 123.897C32.1351 127.342 41.3449 130.274 51.4248 131.822C71.5411 134.912 95.6583 132.553 115.457 117.025L110.52 110.73C93.0023 124.469 71.359 126.79 52.6395 123.915C43.3016 122.48 34.8248 119.768 28.1572 116.65C21.3423 113.463 16.897 110.078 15.0935 107.581L8.60804 112.265ZM7.39843 75.6917C5.29556 80.4313 2.81746 85.9252 2.30682 92.0126C1.77543 98.3475 3.36959 105.011 8.60804 112.265L15.0935 107.581C10.8767 101.742 9.92056 96.9523 10.2788 92.6813C10.6579 88.1628 12.5094 83.8984 14.711 78.9362L7.39843 75.6917ZM11.8059 60.7663C11.8059 65.6151 9.8466 70.1739 7.39843 75.6917L14.711 78.9362C17.0294 73.7109 19.8059 67.5959 19.8059 60.7663H11.8059ZM10.7072 51.0095C11.2916 54.4919 11.8059 57.6102 11.8059 60.7663H19.8059C19.8059 56.8349 19.1638 53.0639 18.5968 49.6854L10.7072 51.0095ZM16.5361 20.7982C12.1101 26.3118 10.1932 31.6398 9.66943 36.8686C9.16165 41.9381 9.99509 46.7667 10.7072 51.0095L18.5968 49.6854C17.8568 45.2761 17.2458 41.498 17.6296 37.6659C17.9975 33.993 19.3083 30.1244 22.7747 25.8062L16.5361 20.7982Z" fill="white" mask="url(#path-1-outside-1_3614_4511)"/>
<path d="M71.9134 16.9061C69.0095 18.1506 65.3252 18.1568 61.0619 17.5862C58.4442 17.2359 55.7235 16.6891 52.9056 16.1227C51.1077 15.7613 49.2702 15.392 47.3946 15.0606C37.9634 13.3946 27.8957 12.7646 20.7212 20.5369C13.7429 28.0966 12.2537 34.9752 12.5468 41.6279C12.6794 44.6378 13.1769 47.6011 13.6643 50.5043C13.7082 50.7656 13.752 51.0264 13.7954 51.2867C14.3254 54.4631 14.8059 57.5813 14.8059 60.7663C14.8059 64.6745 13.6944 68.3844 12.1939 72.127C11.5552 73.72 10.8536 75.3014 10.142 76.9052C10.017 77.1869 9.89178 77.4692 9.76649 77.7524C8.93158 79.6398 8.099 81.5592 7.38064 83.5167C5.9428 87.4348 4.94149 91.5594 5.27399 96.0389C5.60738 100.53 7.27513 105.295 11.0401 110.508C13.5943 114.045 18.9716 117.874 26.0392 121.179C33.1437 124.502 42.0787 127.351 51.8803 128.857C71.4728 131.866 94.6623 129.522 113.605 114.664C128.219 103.202 133.891 90.651 134.399 78.0394C134.903 65.4937 130.291 53.0193 124.618 41.6736C113.129 18.6963 88.314 9.87723 71.9134 16.9061Z" fill="#FFD568" stroke="black" stroke-width="2" stroke-linecap="round" stroke-linejoin="round"/>
<path d="M97.2489 51.9102L121.861 51.9101C121.861 44.7922 111.219 48.9259 111.048 49.4344C111.29 48.7123 110.322 46.649 108.869 46.0301C106.932 45.2049 105.803 46.1333 105.48 46.9586C105.48 45.7207 103.782 43.0116 100.052 44.3735C96.6632 45.6114 96.7647 49.4344 97.2489 51.9102Z" fill="#FF9776" fill-opacity="0.5"/>
<path d="M22.6932 43.3807C22.1937 43.3807 21.7709 43.7492 21.7026 44.244L18.2054 69.5775C18.1992 69.6228 18.196 69.6685 18.196 69.7143V70.3714C18.196 70.9237 18.6438 71.3714 19.196 71.3714H93.6839C93.9984 71.3714 94.2946 71.2234 94.4835 70.972L101.597 61.502H103.948C104.226 61.502 104.492 61.3862 104.681 61.1822C104.87 60.9783 104.966 60.7047 104.945 60.4273L103.736 44.306C103.697 43.7841 103.263 43.3807 102.739 43.3807H22.6932Z" fill="#F8F9FA" stroke="#212529" stroke-width="2" stroke-linejoin="round"/>
<path d="M98.2976 50.5261H86.9973" stroke="#FFC148" stroke-linecap="round" stroke-linejoin="round"/>
<path d="M98.2976 52.291H86.9973" stroke="#FFC148" stroke-linecap="round" stroke-linejoin="round"/>
<g filter="url(#filter0_i_3614_4511)">
<path d="M122.206 60.472L107.903 97.4921H19.7608L15.9414 70.0974H93.3295L100.26 60.472H122.206Z" fill="#228BE6"/>
</g>
<path d="M107.903 98.4921C108.316 98.4921 108.687 98.2379 108.836 97.8524L123.139 60.8324C123.257 60.5249 123.217 60.1785 123.03 59.9065C122.844 59.6346 122.535 59.472 122.206 59.472H100.26C99.9382 59.472 99.6362 59.6267 99.4483 59.8877L92.8173 69.0974H15.9414C15.6521 69.0974 15.377 69.2227 15.1871 69.4409C14.9971 69.6592 14.911 69.9489 14.951 70.2355L18.7704 97.6301C18.8393 98.1243 19.2619 98.4921 19.7608 98.4921H107.903Z" stroke="black" stroke-width="2" stroke-linecap="round" stroke-linejoin="round"/>
<path fill-rule="evenodd" clip-rule="evenodd" d="M87.3286 78.7528H87.8794L87.8785 76.6823H87.2162C86.903 76.6823 86.6538 76.7376 86.4667 76.9303C86.2794 77.123 86.1218 77.3833 86.1218 77.6962C86.1218 78.4497 86.5672 78.7528 87.3286 78.7528V78.7528ZM87.8641 75.8518L87.8622 74.4196H88.8931V79.5779H88.8248H87.0752C86.4918 79.5779 86.0249 79.41 85.6744 79.0739C85.3241 78.7378 85.149 78.2794 85.149 77.6985C85.149 77.3546 85.2303 77.042 85.3931 76.7608C85.5559 76.4794 85.78 76.2586 86.0651 76.0984C86.3505 75.9382 86.6616 75.8518 86.9924 75.8518H87.8641ZM83.0668 75.8579C83.4575 75.8579 83.8273 75.9862 84.0603 76.2427C84.2936 76.4995 84.4102 76.8374 84.4102 77.2568V79.5778H83.3949V77.3544C83.3949 77.1174 83.3271 76.9865 83.2138 76.8484C83.1004 76.7104 82.9573 76.6696 82.7619 76.6696C82.6134 76.6696 82.4741 76.7133 82.3439 76.8006C82.3424 76.8015 82.3412 76.8024 82.3399 76.8031C82.0666 76.9883 81.914 77.3071 81.914 77.6372V79.5778H80.8948V75.8564H81.914V76.3821C82.0911 76.1737 82.2634 76.0609 82.4496 75.9711C82.6359 75.8811 82.8478 75.8579 83.0668 75.8579V75.8579ZM78.8247 74.798H79.8612V73.7616H78.8247V74.798ZM78.824 79.5778H79.8618V75.8345H78.824V79.5778ZM72.4425 74.798H73.5199L75.1152 76.7722L76.7104 74.798H77.7877V79.5779H76.8059V76.1185L75.1219 78.1602H75.0947L73.4243 76.139V79.5779H72.4425V74.798ZM68.5619 77.0347L66.8816 74.798H68.1091L69.2135 76.3038L70.3179 74.798H71.5453L69.8652 77.021L71.77 79.5779H70.5409L69.2135 77.7702L67.8812 79.5779H66.657L68.5619 77.0347Z" fill="white"/>
<rect x="31.7563" y="30.9505" width="9.9102" height="12.1703" fill="#CED4DA" stroke="#212529" stroke-width="2" stroke-linejoin="round"/>
<rect x="28.2361" y="51.1609" width="7.9102" height="7.9102" fill="#DBE4FF"/>
<rect x="37.2764" y="51.1609" width="7.9102" height="7.9102" fill="#DBE4FF"/>
<rect x="46.3167" y="51.1609" width="7.9102" height="7.9102" fill="#DBE4FF"/>
<rect x="57.6167" y="51.1609" width="23.7306" height="7.9102" fill="#DBE4FF"/>
<path d="M58.7468 59.0711L62.1369 51.1609H64.397L61.0069 59.0711H58.7468Z" fill="white" fill-opacity="0.5"/>
<path d="M62.137 59.0711L65.527 51.1609H70.0472L66.6571 59.0711H62.137Z" fill="white" fill-opacity="0.5"/>
<g style="mix-blend-mode:multiply">
<rect x="32.7563" y="31.9505" width="2.26006" height="10.1703" fill="#DEE2E6"/>
</g>
<mask id="mask0_3614_4511" style="mask-type:alpha" maskUnits="userSpaceOnUse" x="6" y="15" width="128" height="114">
<path d="M72.0973 17.8176C59.441 23.2417 34.8064 6.51719 21.246 21.2075C7.6857 35.8977 15.5959 47.6502 15.5959 60.7586C15.5959 77.144 -3.04957 89.5743 11.6408 109.915C21.2571 123.23 75.4624 143.137 112.778 113.87C141.594 91.2693 134.814 64.7137 123.514 42.1131C112.213 19.5126 87.9177 11.0374 72.0973 17.8176Z" fill="#68FFF6"/>
</mask>
<g mask="url(#mask0_3614_4511)">
<path d="M19.5 85.3667C19.5 85.3667 17.5 90.5 12 91.5C6.5 92.5 3.7096 90.7119 3.37573 83.3667L5.63579 133.088L117.509 137.043C127.867 122.729 146.211 94.102 136.719 94.102C127.227 94.102 123.724 87.0617 123.724 87.0617C123.724 87.0617 122.922 94.102 114 94.102C105.078 94.102 104.5 86.0617 104.5 86.0617C104.5 86.0617 101.5 93.5 93 92.9719C85.7817 92.5235 83.5 85.0617 83.5 85.0617C83.5 85.0617 79.8786 92.9719 71.7424 92.9719C63.6062 92.9719 63.5 85.3667 63.5 85.3667C63.5 85.3667 60.4669 92.5 52.5 92.5C44.5331 92.5 42.3617 84.3667 42.3617 84.3667C42.3617 84.3667 37.7709 93.327 31 92.9719C22 92.5 19.5 85.3667 19.5 85.3667Z" fill="#80D1FF" stroke="black" stroke-width="2" stroke-linecap="round" stroke-linejoin="round"/>
<path d="M43.4914 20.0851C33.5471 22.3452 32.1911 28.937 32.7561 31.9504H40.6663C42.173 30.6321 47.5595 27.8823 57.0517 27.4303C66.544 26.9783 71.5538 17.4484 72.8721 12.74L55.3567 8.21985C55.545 11.2333 53.4356 17.8251 43.4914 20.0851Z" fill="white" fill-opacity="0.3"/>
<path d="M15.4607 106.479C21.5 106 25.9607 100.649 25.9607 100.649C25.9607 100.649 28.9769 108.317 36.5381 108.317C44.0993 108.317 48.51 100.649 48.51 100.649C48.51 100.649 51.4827 108.317 59.2217 108.317C66.9607 108.317 70.9334 101.649 70.9334 101.649C70.9334 101.649 73.2248 108.317 80.5 108.317C86.801 108.317 90.7267 102.333 90.7267 102.333C90.7267 102.333 93.656 108.317 100.808 107.755C107.961 107.194 110.89 102.333 110.89 102.333C110.89 102.333 114.292 108.317 125.382 108.317C136.472 108.317 139.244 99.3331 139.244 99.3331C139.244 99.3331 143.151 108.317 153.737 108.317C164.322 108.317 143.865 136.764 132.313 150.988L7.55349 147.058C7.55349 147.058 5.33465 103.56 5.03365 97.6596C5.03346 97.656 5.03327 97.6523 5.03309 97.6487C4.98685 96.7422 4.99097 96.8229 5.03365 97.6596C5.40944 104.95 9.42441 106.958 15.4607 106.479Z" fill="#65C8FF"/>
<path d="M15.4607 106.479C21.5 106 25.9607 100.649 25.9607 100.649C25.9607 100.649 28.9769 108.317 36.5381 108.317C44.0993 108.317 48.51 100.649 48.51 100.649C48.51 100.649 51.4827 108.317 59.2217 108.317C66.9607 108.317 70.9334 101.649 70.9334 101.649C70.9334 101.649 73.2248 108.317 80.5 108.317C86.801 108.317 90.7267 102.333 90.7267 102.333C90.7267 102.333 93.656 108.317 100.808 107.755C107.961 107.194 110.89 102.333 110.89 102.333C110.89 102.333 114.292 108.317 125.382 108.317C136.472 108.317 139.244 99.3331 139.244 99.3331C139.244 99.3331 143.151 108.317 153.737 108.317C164.322 108.317 143.865 136.764 132.313 150.988L7.55349 147.058C7.55349 147.058 4.66076 90.3496 5.03309 97.6487C5.40541 104.948 9.42139 106.958 15.4607 106.479Z" stroke="black" stroke-width="2" stroke-linecap="round" stroke-linejoin="round"/>
</g>
<path d="M72.437 36.6699C72.437 37.2222 72.8847 37.6699 73.437 37.6699L120.898 37.6701C121.357 37.6701 121.757 37.3578 121.868 36.9126C122.463 34.5323 122.639 31.6124 121.54 28.9441C120.42 26.224 118.037 23.9159 113.828 22.7132C109.311 21.4227 106.057 21.8145 103.88 22.993C102.617 23.6769 101.737 24.6217 101.225 25.599C99.6273 24.402 96.966 23.8179 93.4613 24.986C91.5258 25.6311 89.9558 27.0072 88.9463 28.379C88.4392 29.0682 88.0482 29.7901 87.8232 30.4654C87.8136 30.494 87.8042 30.523 87.795 30.5523C87.3886 30.4049 86.9161 30.2574 86.3982 30.1195C84.8852 29.7166 82.9007 29.3743 80.9101 29.3851C78.9382 29.3958 76.8362 29.7537 75.2006 30.8711C73.4999 32.033 72.437 33.925 72.437 36.6699Z" fill="#FF9776" stroke="black" stroke-width="2" stroke-linecap="round" stroke-linejoin="round"/>
<path d="M46.2649 23.3021C46.2649 23.8544 45.8172 24.3021 45.2649 24.3021L12.7447 24.3022C12.2845 24.3022 11.8837 23.9881 11.7737 23.5413C11.4362 22.1704 11.1987 20.3126 11.7197 18.573C12.2643 16.7543 13.6083 15.1749 16.1706 14.4316C20.1234 13.2849 22.8668 14.6546 24.0161 16.3372C25.0581 15.7479 26.5757 15.5594 28.4196 16.1835C29.622 16.5904 30.5786 17.4489 31.1879 18.2898C31.4149 18.603 31.6075 18.9324 31.7505 19.2595C32.1216 19.1333 32.5594 18.9998 33.0443 18.8687C34.4404 18.4911 36.2881 18.1171 38.1446 18.0032C39.9746 17.8908 41.9451 18.0218 43.4975 18.7681C44.2906 19.1494 44.9966 19.7022 45.5 20.4807C46.0049 21.2616 46.2649 22.2061 46.2649 23.3021Z" fill="#FF9776" stroke="black" stroke-width="2" stroke-linecap="round" stroke-linejoin="round"/>
<path d="M61.0072 28.5604C56.5263 29.3072 52.532 29.1254 46.8818 31.9504C55.357 30.2554 57.0521 31.3854 60.4422 30.8204C63.8323 30.2554 66.0923 27.807 66.6573 25.7353C65.7156 26.677 64.3973 27.9953 61.0072 28.5604Z" fill="white" fill-opacity="0.3"/>
<circle cx="103.948" cy="63.5911" r="1.13003" fill="white"/>
<circle cx="108.468" cy="63.5911" r="1.13003" fill="white"/>
<circle cx="112.988" cy="63.5911" r="1.13003" fill="white"/>
<path fill-rule="evenodd" clip-rule="evenodd" d="M30.4458 78.6248C33.1596 78.6248 35.3595 76.4249 35.3595 73.7111C35.3595 70.9973 33.1596 68.7973 30.4458 68.7973C27.732 68.7973 25.532 70.9973 25.532 73.7111C25.532 76.4249 27.732 78.6248 30.4458 78.6248ZM30.4701 76.6596C32.0848 76.6596 33.3938 75.3506 33.3938 73.7359C33.3938 72.1212 32.0848 70.8122 30.4701 70.8122C28.8554 70.8122 27.5464 72.1212 27.5464 73.7359C27.5464 75.3506 28.8554 76.6596 30.4701 76.6596Z" fill="#FFC148"/>
<path fill-rule="evenodd" clip-rule="evenodd" d="M28.0375 69.4264C29.5133 68.596 31.3268 68.5878 32.8092 69.4018L31.2706 70.9404C30.715 70.7775 30.1206 70.7829 29.5675 70.9564L28.0375 69.4264ZM26.1863 71.2583C25.3306 72.742 25.3139 74.5774 26.1361 76.0749L27.6401 74.571C27.4668 73.9801 27.4839 73.3453 27.6912 72.7631L26.1863 71.2583ZM31.4282 76.5001C30.7602 76.738 30.023 76.7254 29.3623 76.4623L27.9056 77.919C29.4335 78.8428 31.3559 78.86 32.8984 77.9703L31.4282 76.5001ZM34.7303 76.1191C35.5939 74.5844 35.5682 72.6844 34.6533 71.1713L33.1619 72.6627C33.4113 73.289 33.4356 73.9841 33.2349 74.6238L34.7303 76.1191ZM26.9709 77.1857L26.9531 77.1678L26.9889 77.2036L26.9709 77.1857Z" fill="white"/>
<path fill-rule="evenodd" clip-rule="evenodd" d="M31.8686 71.1676C31.4532 70.941 30.9767 70.8121 30.4701 70.8121C28.8554 70.8121 27.5464 72.1211 27.5464 73.7358C27.5464 74.223 27.6655 74.6823 27.8763 75.0862C28.3605 76.0145 29.3285 76.6503 30.4458 76.6594C30.4539 76.6595 30.462 76.6595 30.4701 76.6595C32.0848 76.6595 33.3938 75.3505 33.3938 73.7358C33.3938 73.7275 33.3938 73.7193 33.3937 73.711C33.3846 72.6133 32.7705 71.6598 31.8686 71.1676ZM37.3595 73.711C37.3595 77.5294 34.2641 80.6248 30.4458 80.6248C26.6274 80.6248 23.532 77.5294 23.532 73.711C23.532 69.8926 26.6274 66.7972 30.4458 66.7972C34.2641 66.7972 37.3595 69.8926 37.3595 73.711ZM30.4701 74.6595C30.9802 74.6595 31.3938 74.246 31.3938 73.7358C31.3938 73.2257 30.9802 72.8121 30.4701 72.8121C29.96 72.8121 29.5464 73.2257 29.5464 73.7358C29.5464 74.246 29.96 74.6595 30.4701 74.6595ZM26.1072 76.0201C26.9338 77.5699 28.5666 78.6248 30.4458 78.6248C30.4539 78.6248 30.462 78.6248 30.4701 78.6247C33.1644 78.6117 35.3461 76.4301 35.3595 73.7358C35.3595 73.7276 35.3595 73.7193 35.3595 73.711C35.3595 71.8645 34.341 70.2559 32.8352 69.4163C32.1279 69.0219 31.3131 68.7972 30.4458 68.7972C27.732 68.7972 25.532 70.9972 25.532 73.711C25.532 74.5456 25.7401 75.3317 26.1072 76.0201Z" fill="black"/>
<defs>
<filter id="filter0_i_3614_4511" x="13.9414" y="58.472" width="110.264" height="41.02" filterUnits="userSpaceOnUse" color-interpolation-filters="sRGB">
<feFlood flood-opacity="0" result="BackgroundImageFix"/>
<feBlend mode="normal" in="SourceGraphic" in2="BackgroundImageFix" result="shape"/>
<feColorMatrix in="SourceAlpha" type="matrix" values="0 0 0 0 0 0 0 0 0 0 0 0 0 0 0 0 0 0 127 0" result="hardAlpha"/>
<feOffset dx="-2"/>
<feComposite in2="hardAlpha" operator="arithmetic" k2="-1" k3="1"/>
<feColorMatrix type="matrix" values="0 0 0 0 0.12 0 0 0 0 0.484286 0 0 0 0 0.8 0 0 0 1 0"/>
<feBlend mode="normal" in2="shape" result="effect1_innerShadow_3614_4511"/>
</filter>
</defs>
</svg>
