<svg width="140" height="140" viewBox="0 0 140 140" fill="none" xmlns="http://www.w3.org/2000/svg">
<g clip-path="url(#clip0_3614_626)">
<mask id="path-1-outside-1_3614_626" maskUnits="userSpaceOnUse" x="1" y="12.5" width="138" height="111" fill="black">
<rect fill="white" x="1" y="12.5" width="138" height="111"/>
<path fill-rule="evenodd" clip-rule="evenodd" d="M51.9435 33.4728L52.5 16.5L78.52 32.299L102.542 22.6061L116 50L115.548 50.0905L117 51.5L135 55L124.316 73.8434L126 89.5L110.469 82.1517L110.516 82.0898L110 82L116.5 93.5L116.433 93.6775L116.5 93.7141L107.177 119L84.42 101.721L65.8769 119L45.6481 101.721L20.7834 108.464L24.0992 99.6221L29.5 84.5L25.9957 84.387L7.76942 89.0753L16.0777 72.9203L5 52.1497L5.19521 52.2204L5 52L30.5 54.5L32.2604 52.1529L31.5401 52.6885L14.5 37.5L30.6169 34.2257L48 22V27.5L49.5 35L51.9435 33.4728ZM26.3244 40.3064H25.4056L30.8006 44.5339L26.3244 40.3064ZM84 89.5L84.369 89.9652L70.8127 101.673L84 89.5ZM60 31.4375L61.4912 32.295L60 31V31.4375Z"/>
</mask>
<path fill-rule="evenodd" clip-rule="evenodd" d="M51.9435 33.4728L52.5 16.5L78.52 32.299L102.542 22.6061L116 50L115.548 50.0905L117 51.5L135 55L124.316 73.8434L126 89.5L110.469 82.1517L110.516 82.0898L110 82L116.5 93.5L116.433 93.6775L116.5 93.7141L107.177 119L84.42 101.721L65.8769 119L45.6481 101.721L20.7834 108.464L24.0992 99.6221L29.5 84.5L25.9957 84.387L7.76942 89.0753L16.0777 72.9203L5 52.1497L5.19521 52.2204L5 52L30.5 54.5L32.2604 52.1529L31.5401 52.6885L14.5 37.5L30.6169 34.2257L48 22V27.5L49.5 35L51.9435 33.4728ZM26.3244 40.3064H25.4056L30.8006 44.5339L26.3244 40.3064ZM84 89.5L84.369 89.9652L70.8127 101.673L84 89.5ZM60 31.4375L61.4912 32.295L60 31V31.4375Z" fill="#4F7FFA"/>
<path d="M52.5 16.5L54.576 13.0809C53.361 12.3432 51.8458 12.3057 50.5958 12.9823C49.3457 13.659 48.5487 14.9483 48.5021 16.3689L52.5 16.5ZM51.9435 33.4728L54.0635 36.8648C55.1936 36.1585 55.8977 34.9358 55.9414 33.6039L51.9435 33.4728ZM78.52 32.299L76.4439 35.7181C77.5224 36.373 78.8467 36.4806 80.0167 36.0085L78.52 32.299ZM102.542 22.6061L106.132 20.8423C105.208 18.9613 102.988 18.1124 101.045 18.8967L102.542 22.6061ZM116 50L116.784 53.9223C118.002 53.6788 119.038 52.8835 119.587 51.77C120.137 50.6564 120.138 49.3507 119.59 48.2362L116 50ZM115.548 50.0905L114.763 46.1681C113.306 46.4595 112.131 47.5346 111.711 48.9599C111.291 50.3852 111.696 51.9259 112.762 52.9608L115.548 50.0905ZM117 51.5L114.214 54.3703C114.771 54.9112 115.474 55.2782 116.237 55.4265L117 51.5ZM135 55L138.48 56.9729C139.114 55.8532 139.172 54.4964 138.633 53.3272C138.095 52.1579 137.027 51.3192 135.763 51.0735L135 55ZM124.316 73.8434L120.836 71.8705C120.423 72.5989 120.249 73.4386 120.339 74.2712L124.316 73.8434ZM126 89.5L124.289 93.1157C125.598 93.7347 127.138 93.5987 128.318 92.7601C129.497 91.9215 130.132 90.5112 129.977 89.0722L126 89.5ZM110.469 82.1517L107.299 79.7112C106.561 80.6701 106.297 81.9117 106.58 83.0882C106.863 84.2648 107.664 85.2498 108.758 85.7674L110.469 82.1517ZM110.516 82.0898L113.686 84.5303C114.54 83.4204 114.752 81.9443 114.244 80.6389C113.736 79.3335 112.582 78.389 111.202 78.149L110.516 82.0898ZM110 82L110.685 78.0592C109.162 77.7942 107.622 78.431 106.731 79.6945C105.84 80.9581 105.757 82.6221 106.518 83.9682L110 82ZM116.5 93.5L120.239 94.9208C120.662 93.8091 120.567 92.5671 119.982 91.5318L116.5 93.5ZM116.433 93.6775L112.693 92.2567C111.982 94.1295 112.765 96.2399 114.527 97.1944L116.433 93.6775ZM116.5 93.7141L120.253 95.0977C120.941 93.2321 120.154 91.1445 118.406 90.1972L116.5 93.7141ZM107.177 119L104.759 122.186C105.768 122.952 107.082 123.195 108.299 122.84C109.515 122.484 110.492 121.573 110.93 120.384L107.177 119ZM84.42 101.721L86.8388 98.5355C85.2889 97.3587 83.1169 97.4682 81.6931 98.7949L84.42 101.721ZM65.8769 119L63.2789 122.042C64.8251 123.362 67.1161 123.313 68.6038 121.927L65.8769 119ZM45.6481 101.721L48.246 98.6798C47.241 97.8214 45.8768 97.5148 44.6011 97.8607L45.6481 101.721ZM20.7834 108.464L17.0381 107.06C16.5112 108.465 16.8151 110.047 17.8253 111.157C18.8355 112.267 20.3819 112.718 21.8304 112.325L20.7834 108.464ZM24.0992 99.6221L27.8446 101.027C27.8519 101.007 27.8592 100.987 27.8662 100.967L24.0992 99.6221ZM29.5 84.5L33.267 85.8453C33.6968 84.6418 33.5257 83.3052 32.8064 82.2488C32.0871 81.1924 30.9063 80.5433 29.629 80.5021L29.5 84.5ZM25.9957 84.387L26.1246 80.389C25.7455 80.3768 25.3666 80.4186 24.9992 80.5131L25.9957 84.387ZM7.76942 89.0753L4.21227 87.2459C3.49183 88.6468 3.66067 90.34 4.64355 91.5711C5.62643 92.8021 7.2403 93.3416 8.76591 92.9492L7.76942 89.0753ZM16.0777 72.9203L19.6348 74.7497C20.235 73.5828 20.2246 72.1958 19.6071 71.038L16.0777 72.9203ZM5 52.1497L6.3628 48.389C4.80593 47.8248 3.06239 48.2782 1.97766 49.5295C0.892935 50.7807 0.691321 52.5709 1.47059 54.032L5 52.1497ZM5.19521 52.2204L3.83241 55.9811C5.55224 56.6043 7.47572 55.9814 8.50377 54.4684C9.53181 52.9553 9.40244 50.9376 8.18957 49.5683L5.19521 52.2204ZM5 52L5.39029 48.0191C3.75317 47.8586 2.18471 48.7167 1.43705 50.1819C0.689384 51.6472 0.914974 53.4207 2.00564 54.6521L5 52ZM30.5 54.5L30.1097 58.4809C31.5005 58.6173 32.8615 58.0179 33.7 56.9L30.5 54.5ZM32.2604 52.1529L35.4604 54.5529C36.6529 52.9628 36.4971 50.7384 35.0945 49.3302C33.692 47.9219 31.4683 47.7571 29.8734 48.9431L32.2604 52.1529ZM31.5401 52.6885L28.8785 55.6745C30.2952 56.9372 32.4042 57.0307 33.927 55.8982L31.5401 52.6885ZM14.5 37.5L13.7036 33.5801C12.2197 33.8816 11.0332 34.9952 10.6384 36.457C10.2435 37.9189 10.7081 39.4784 11.8385 40.486L14.5 37.5ZM30.6169 34.2257L31.4133 38.1456C31.9542 38.0357 32.4666 37.8151 32.918 37.4975L30.6169 34.2257ZM48 22H52C52 20.5069 51.1684 19.1381 49.8433 18.45C48.5182 17.762 46.9202 17.8692 45.6989 18.7282L48 22ZM48 27.5H44C44 27.7634 44.026 28.0262 44.0777 28.2845L48 27.5ZM49.5 35L45.5777 35.7845C45.8353 37.0726 46.709 38.1521 47.9151 38.6726C49.1212 39.1931 50.506 39.0882 51.62 38.392L49.5 35ZM25.4056 40.3064V36.3064C23.6995 36.3064 22.1811 37.3886 21.6245 39.0014C21.0679 40.6142 21.5955 42.4025 22.9385 43.4549L25.4056 40.3064ZM26.3244 40.3064L29.0709 37.3983C28.3284 36.6971 27.3457 36.3064 26.3244 36.3064V40.3064ZM30.8006 44.5339L28.3334 47.6824C30.0159 49.0008 32.4376 48.7635 33.8321 47.1435C35.2266 45.5236 35.1011 43.0935 33.5471 41.6259L30.8006 44.5339ZM84.369 89.9652L86.9834 92.9925C88.6061 91.5911 88.8353 89.1595 87.503 87.4796L84.369 89.9652ZM84 89.5L87.134 87.0144C86.4425 86.1425 85.4189 85.5981 84.3094 85.512C83.1999 85.4259 82.1046 85.8059 81.2869 86.5608L84 89.5ZM70.8127 101.673L68.0996 98.7337C66.4953 100.215 66.3749 102.708 67.8291 104.337C69.2833 105.966 71.7748 106.127 73.4272 104.7L70.8127 101.673ZM61.4912 32.295L59.4973 35.7626C61.2829 36.7893 63.5562 36.2922 64.7503 34.6141C65.9445 32.9359 65.6691 30.6252 64.1139 29.2748L61.4912 32.295ZM60 31.4375H56C56 32.8691 56.7651 34.1915 58.0061 34.9051L60 31.4375ZM60 31L62.6227 27.9798C61.4397 26.9525 59.7658 26.7105 58.3403 27.3606C56.9147 28.0107 56 29.4332 56 31H60ZM48.5021 16.3689L47.9457 33.3417L55.9414 33.6039L56.4979 16.6311L48.5021 16.3689ZM80.596 28.88L54.576 13.0809L50.424 19.9191L76.4439 35.7181L80.596 28.88ZM101.045 18.8967L77.0232 28.5896L80.0167 36.0085L104.038 26.3155L101.045 18.8967ZM119.59 48.2362L106.132 20.8423L98.9516 24.3699L112.41 51.7638L119.59 48.2362ZM116.332 54.0128L116.784 53.9223L115.216 46.0777L114.763 46.1681L116.332 54.0128ZM119.786 48.6297L118.334 47.2201L112.762 52.9608L114.214 54.3703L119.786 48.6297ZM135.763 51.0735L117.763 47.5735L116.237 55.4265L134.237 58.9265L135.763 51.0735ZM127.795 75.8163L138.48 56.9729L131.52 53.0271L120.836 71.8705L127.795 75.8163ZM129.977 89.0722L128.293 73.4156L120.339 74.2712L122.023 89.9278L129.977 89.0722ZM108.758 85.7674L124.289 93.1157L127.711 85.8843L112.179 78.536L108.758 85.7674ZM107.347 79.6494L107.299 79.7112L113.638 84.5921L113.686 84.5303L107.347 79.6494ZM109.315 85.9408L109.831 86.0306L111.202 78.149L110.685 78.0592L109.315 85.9408ZM119.982 91.5318L113.482 80.0318L106.518 83.9682L113.018 95.4682L119.982 91.5318ZM120.172 95.0984L120.239 94.9208L112.761 92.0792L112.693 92.2567L120.172 95.0984ZM118.406 90.1972L118.338 90.1607L114.527 97.1944L114.594 97.2309L118.406 90.1972ZM110.93 120.384L120.253 95.0977L112.747 92.3304L103.424 117.616L110.93 120.384ZM82.0011 104.907L104.759 122.186L109.596 115.814L86.8388 98.5355L82.0011 104.907ZM68.6038 121.927L87.1469 104.648L81.6931 98.7949L63.15 116.074L68.6038 121.927ZM43.0501 104.763L63.2789 122.042L68.4748 115.959L48.246 98.6798L43.0501 104.763ZM21.8304 112.325L46.695 105.582L44.6011 97.8607L19.7365 104.604L21.8304 112.325ZM20.3539 98.2176L17.0381 107.06L24.5288 109.869L27.8446 101.027L20.3539 98.2176ZM25.733 83.1547L20.3323 98.2768L27.8662 100.967L33.267 85.8453L25.733 83.1547ZM25.8667 88.3849L29.371 88.4979L29.629 80.5021L26.1246 80.389L25.8667 88.3849ZM8.76591 92.9492L26.9922 88.2608L24.9992 80.5131L6.77294 85.2014L8.76591 92.9492ZM12.5205 71.0909L4.21227 87.2459L11.3266 90.9047L19.6348 74.7497L12.5205 71.0909ZM1.47059 54.032L12.5483 74.8027L19.6071 71.038L8.52941 50.2673L1.47059 54.032ZM6.55801 48.4597L6.3628 48.389L3.6372 55.9103L3.83241 55.9811L6.55801 48.4597ZM2.00564 54.6521L2.20085 54.8725L8.18957 49.5683L7.99436 49.3479L2.00564 54.6521ZM30.8903 50.5191L5.39029 48.0191L4.60971 55.9809L30.1097 58.4809L30.8903 50.5191ZM29.0604 49.7528L27.3 52.1L33.7 56.9L35.4604 54.5529L29.0604 49.7528ZM33.927 55.8982L34.6473 55.3626L29.8734 48.9431L29.1531 49.4788L33.927 55.8982ZM11.8385 40.486L28.8785 55.6745L34.2016 49.7025L17.1615 34.514L11.8385 40.486ZM29.8206 30.3058L13.7036 33.5801L15.2964 41.4199L31.4133 38.1456L29.8206 30.3058ZM45.6989 18.7282L28.3158 30.9538L32.918 37.4975L50.3011 25.2718L45.6989 18.7282ZM52 27.5V22H44V27.5H52ZM53.4223 34.2155L51.9223 26.7155L44.0777 28.2845L45.5777 35.7845L53.4223 34.2155ZM49.8235 30.0808L47.38 31.608L51.62 38.392L54.0635 36.8648L49.8235 30.0808ZM25.4056 44.3064H26.3244V36.3064H25.4056V44.3064ZM33.2678 41.3854L27.8728 37.1579L22.9385 43.4549L28.3334 47.6824L33.2678 41.3854ZM23.5779 43.2144L28.0541 47.442L33.5471 41.6259L29.0709 37.3983L23.5779 43.2144ZM87.503 87.4796L87.134 87.0144L80.866 91.9856L81.235 92.4508L87.503 87.4796ZM73.4272 104.7L86.9834 92.9925L81.7545 86.9379L68.1982 98.6456L73.4272 104.7ZM81.2869 86.5608L68.0996 98.7337L73.5258 104.612L86.7131 92.4392L81.2869 86.5608ZM63.4851 28.8273L61.9939 27.9699L58.0061 34.9051L59.4973 35.7626L63.4851 28.8273ZM57.3773 34.0202L58.8686 35.3152L64.1139 29.2748L62.6227 27.9798L57.3773 34.0202ZM64 31.4375V31H56V31.4375H64Z" fill="white" mask="url(#path-1-outside-1_3614_626)"/>
<path d="M25.0449 40.2964L29.0985 53.3578L5.09757 51.0048C4.68829 50.9646 4.29618 51.1792 4.10926 51.5455C3.92235 51.9118 3.97874 52.3552 4.25141 52.663L19.3235 69.6799L13.0875 83.5909C12.9511 83.8951 12.9753 84.2473 13.152 84.53C13.3287 84.8127 13.6346 84.9887 13.9678 84.9995L28.097 85.4553L21.0583 105.164C20.926 105.534 21.0231 105.947 21.3063 106.22C21.5895 106.493 22.0063 106.575 22.3714 106.428L49.3056 95.6548L63.8451 108.256C64.2299 108.589 64.804 108.58 65.1783 108.235L83.8863 90.9659L106.216 119.121C106.44 119.403 106.798 119.543 107.153 119.488C107.509 119.433 107.807 119.191 107.935 118.855L117.435 93.8552C117.54 93.5773 117.517 93.2668 117.371 93.0079L111.91 83.3472L121.329 84.9852C121.619 85.0358 121.918 84.9553 122.144 84.7653C122.37 84.5753 122.5 84.2952 122.5 84V72.8409L135.792 55.6108C136.004 55.3362 136.058 54.9714 135.936 54.6469C135.813 54.3225 135.531 54.0846 135.191 54.0184L117.483 50.5752L100.696 34.2824C100.439 34.0325 100.067 33.9397 99.7225 34.0393L77.6304 40.4214L57.9985 29.1331C57.6784 28.9491 57.2831 28.9563 56.97 29.152L50.1968 33.3852L48.4806 24.8039C48.4063 24.4323 48.1283 24.1346 47.7626 24.0351C47.397 23.9356 47.0065 24.0513 46.7541 24.334L34.5091 38.0484L25.8896 39.0061C25.593 39.0391 25.3267 39.2027 25.1633 39.4523C24.9999 39.7019 24.9565 40.0115 25.0449 40.2964Z" fill="#FFF9DB" stroke="black" stroke-width="2" stroke-linecap="round" stroke-linejoin="round"/>
<path d="M54.6696 62.1313C55.1147 62.1313 55.5172 62.226 55.8771 62.4154C56.2465 62.6048 56.5353 62.8747 56.7437 63.2251C56.9615 63.5661 57.0704 63.9544 57.0704 64.39C57.0515 64.6363 57.0089 64.8588 56.9426 65.0577L52.425 80.8691C52.1883 81.6742 51.7384 82.3229 51.0754 82.8154C50.4125 83.3079 49.5885 83.5541 48.6036 83.5541C47.6376 83.5541 46.8515 83.3173 46.2454 82.8438C45.6487 82.3608 45.2273 81.712 44.981 80.8976L43.7735 76.934L42.0404 80.9686C41.7089 81.7641 41.2353 82.3939 40.6197 82.858C40.0041 83.3221 39.2512 83.5541 38.361 83.5541C37.4423 83.5541 36.6515 83.3173 35.9885 82.8438C35.3351 82.3703 34.8757 81.7452 34.6105 80.9686L29.198 65.1572C29.1033 64.8636 29.0512 64.6031 29.0417 64.3758C29.0417 63.9496 29.1459 63.5661 29.3543 63.2251C29.5721 62.8747 29.8657 62.6048 30.2351 62.4154C30.6044 62.226 31.0117 62.1313 31.4568 62.1313C31.9777 62.1407 32.437 62.2686 32.8348 62.5148C33.2326 62.7611 33.5072 63.1067 33.6587 63.5519L38.4604 77.6728L41.5858 70.9249C41.671 70.7354 41.7515 70.5934 41.8273 70.4987L40.1083 64.8304C40.042 64.5652 40.0089 64.3474 40.0089 64.1769C40.0089 63.7792 40.1083 63.424 40.3072 63.1115C40.5061 62.7989 40.776 62.5574 41.117 62.387C41.4579 62.2165 41.832 62.1313 42.2392 62.1313C42.7507 62.1313 43.191 62.2544 43.5604 62.5006C43.9392 62.7374 44.1949 63.0736 44.3275 63.5093L48.4899 77.7438L52.3682 63.6797C52.5008 63.1872 52.7754 62.8084 53.1922 62.5432C53.6089 62.2686 54.1014 62.1313 54.6696 62.1313Z" fill="#99E9F2"/>
<path d="M68.8047 83.5683C66.6738 83.5683 64.7986 83.1232 63.1791 82.2329C61.5596 81.3332 60.3047 80.0641 59.4144 78.4257C58.5337 76.7872 58.0933 74.8884 58.0933 72.729C58.0933 70.5886 58.5337 68.704 59.4144 67.075C60.3047 65.4366 61.5596 64.1722 63.1791 63.282C64.7986 62.3822 66.6738 61.9324 68.8047 61.9324C70.9261 61.9324 72.7919 62.3822 74.4019 63.282C76.0119 64.1722 77.2573 65.4366 78.1381 67.075C79.0284 68.704 79.4735 70.5886 79.4735 72.729C79.4735 74.8884 79.0284 76.7872 78.1381 78.4257C77.2573 80.0641 76.0119 81.3332 74.4019 82.2329C72.7919 83.1232 70.9261 83.5683 68.8047 83.5683ZM68.8047 79.2354C69.9601 79.2354 70.9735 78.975 71.8448 78.4541C72.7161 77.9237 73.3885 77.1708 73.8621 76.1953C74.3451 75.2104 74.5866 74.0549 74.5866 72.729C74.5866 71.4126 74.3451 70.2714 73.8621 69.3054C73.3885 68.3299 72.7161 67.5817 71.8448 67.0608C70.9735 66.5304 69.9601 66.2652 68.8047 66.2652C67.6398 66.2652 66.6169 66.5304 65.7362 67.0608C64.8649 67.5817 64.1877 68.3299 63.7047 69.3054C63.2217 70.2714 62.9802 71.4126 62.9802 72.729C62.9802 74.0549 63.217 75.2104 63.6905 76.1953C64.1735 77.1708 64.8554 77.9237 65.7362 78.4541C66.6169 78.975 67.6398 79.2354 68.8047 79.2354Z" fill="#99E9F2"/>
<path d="M105.442 62.1313C105.887 62.1313 106.29 62.226 106.65 62.4154C107.019 62.6048 107.308 62.8747 107.516 63.2251C107.734 63.5661 107.843 63.9544 107.843 64.39C107.824 64.6363 107.782 64.8588 107.715 65.0577L103.198 80.8691C102.961 81.6742 102.511 82.3229 101.848 82.8154C101.185 83.3079 100.361 83.5541 99.3763 83.5541C98.4103 83.5541 97.6242 83.3173 97.0181 82.8438C96.4214 82.3608 95.9999 81.712 95.7537 80.8976L94.5462 76.934L92.813 80.9686C92.4816 81.7641 92.008 82.3939 91.3924 82.858C90.7768 83.3221 90.0239 83.5541 89.1337 83.5541C88.215 83.5541 87.4242 83.3173 86.7612 82.8438C86.1077 82.3703 85.6484 81.7452 85.3832 80.9686L79.9707 65.1572C79.876 64.8636 79.8239 64.6031 79.8144 64.3758C79.8144 63.9496 79.9186 63.5661 80.127 63.2251C80.3448 62.8747 80.6384 62.6048 81.0078 62.4154C81.3771 62.226 81.7844 62.1313 82.2295 62.1313C82.7504 62.1407 83.2097 62.2686 83.6075 62.5148C84.0052 62.7611 84.2799 63.1067 84.4314 63.5519L89.2331 77.6728L92.3584 70.9249C92.4437 70.7354 92.5242 70.5934 92.6 70.4987L90.881 64.8304C90.8147 64.5652 90.7816 64.3474 90.7816 64.1769C90.7816 63.7792 90.881 63.424 91.0799 63.1115C91.2788 62.7989 91.5487 62.5574 91.8896 62.387C92.2306 62.2165 92.6047 62.1313 93.0119 62.1313C93.5233 62.1313 93.9637 62.2544 94.3331 62.5006C94.7119 62.7374 94.9676 63.0736 95.1002 63.5093L99.2626 77.7438L103.141 63.6797C103.273 63.1872 103.548 62.8084 103.965 62.5432C104.382 62.2686 104.874 62.1313 105.442 62.1313Z" fill="#99E9F2"/>
<path fill-rule="evenodd" clip-rule="evenodd" d="M44.3276 63.5092L48.49 77.7437L52.3682 63.6796C52.5008 63.1872 52.7755 62.8083 53.1922 62.5432C53.6089 62.2685 54.1014 62.1312 54.6696 62.1312C55.1148 62.1312 55.5173 62.2259 55.8772 62.4153C56.2465 62.6047 56.5354 62.8746 56.7437 63.225C56.9616 63.566 57.0705 63.9543 57.0705 64.39C57.0515 64.6362 57.0089 64.8588 56.9426 65.0576L52.4251 80.8691C52.1883 81.6741 51.7384 82.3228 51.0755 82.8153C50.5764 83.1861 49.986 83.4173 49.3044 83.5089C49.0806 83.539 48.847 83.554 48.6036 83.554C48.303 83.554 48.0199 83.5311 47.7542 83.4852C47.1659 83.3838 46.6629 83.1699 46.2454 82.8437C45.6487 82.3607 45.2273 81.712 44.9811 80.8975L43.7735 76.934L42.0404 80.9685C41.7089 81.764 41.2354 82.3938 40.6198 82.8579C40.0042 83.322 39.2513 83.554 38.361 83.554C38.3375 83.554 38.3142 83.5539 38.2909 83.5536C38.1953 83.5523 38.101 83.5484 38.0082 83.5419C37.2383 83.4883 36.5651 83.2555 35.9886 82.8437C35.3351 82.3702 34.8758 81.7451 34.6106 80.9685L29.1981 65.1571C29.1033 64.8635 29.0513 64.603 29.0418 64.3757C29.0418 63.9496 29.146 63.566 29.3543 63.225C29.5722 62.8746 29.8657 62.6047 30.2351 62.4153C30.6045 62.2259 31.0117 62.1312 31.4568 62.1312C31.9777 62.1406 32.4371 62.2685 32.8348 62.5147C33.2326 62.761 33.5072 63.1067 33.6588 63.5518L38.4605 77.6727L41.5858 70.9248C41.671 70.7354 41.7515 70.5933 41.8273 70.4986L40.1084 64.8303C40.0421 64.5652 40.0089 64.3473 40.0089 64.1769C40.0089 63.7791 40.1084 63.4239 40.3072 63.1114C40.5061 62.7989 40.776 62.5574 41.117 62.3869C41.4579 62.2164 41.832 62.1312 42.2393 62.1312C42.7507 62.1312 43.1911 62.2543 43.5604 62.5005C43.9393 62.7373 44.195 63.0735 44.3276 63.5092ZM44.8178 60.5535C45.6658 61.0928 46.256 61.8854 46.5448 62.8344L46.5485 62.8465L48.4246 69.2623L50.1324 63.0692C50.4096 62.0469 51.0206 61.1834 51.9321 60.5979C52.7742 60.0476 53.7185 59.8135 54.6696 59.8135C55.4507 59.8135 56.2254 59.9819 56.9457 60.3586C57.6797 60.7375 58.2848 61.2954 58.7169 62.0089C58.9863 62.4387 59.1703 62.8966 59.2766 63.369C60.0813 62.5373 61.0101 61.83 62.0582 61.2533C64.0696 60.137 66.3416 59.6146 68.8047 59.6146C71.26 59.6146 73.5245 60.1377 75.5279 61.2561C76.3438 61.7077 77.0865 62.2391 77.7538 62.8473C77.8546 62.5619 77.9859 62.284 78.1494 62.0165L78.154 62.009L78.1587 62.0015C78.5998 61.2918 79.2092 60.733 79.9502 60.353C80.6703 59.9837 81.4439 59.8135 82.2295 59.8135H82.2506L82.2717 59.8139C83.1606 59.8301 84.0362 60.0543 84.8274 60.5441C85.6844 61.0746 86.3018 61.8541 86.6255 62.8049L89.5634 71.4448L90.1083 70.2684L88.6465 65.4481L88.6326 65.3925C88.5444 65.0396 88.4639 64.6153 88.4639 64.1769C88.4639 63.3722 88.6715 62.5791 89.1246 61.8671C89.5558 61.1895 90.148 60.6665 90.8532 60.3139C91.5378 59.9716 92.2701 59.8135 93.012 59.8135C93.899 59.8135 94.7922 60.03 95.5906 60.5535C96.4385 61.0929 97.0287 61.8854 97.3175 62.8344L97.3212 62.8465L99.1973 69.2623L100.903 63.0771C100.904 63.0743 100.904 63.0715 100.905 63.0687C101.182 62.0467 101.793 61.1833 102.705 60.5979C103.547 60.0476 104.491 59.8135 105.442 59.8135C106.223 59.8135 106.998 59.9819 107.719 60.3588C108.452 60.7376 109.057 61.2954 109.489 62.0087C109.95 62.743 110.161 63.5594 110.161 64.39V64.479L110.154 64.5677C110.124 64.9518 110.056 65.3453 109.932 65.7341L105.424 81.5144L105.421 81.523C105.045 82.8025 104.304 83.878 103.23 84.6758C102.109 85.5091 100.792 85.8633 99.4255 85.8715L99.328 86.2251L99.2243 85.8703C97.9284 85.8457 96.658 85.5035 95.5912 84.6701L95.5754 84.6577L95.5598 84.6451C95.032 84.2178 94.5977 83.7189 94.2517 83.1645C93.854 83.7504 93.368 84.2711 92.7876 84.7086C91.7097 85.5212 90.4462 85.8717 89.1337 85.8717C87.7962 85.8717 86.5194 85.5191 85.4142 84.7297L85.4077 84.7251L85.4013 84.7204C84.3533 83.961 83.607 82.9388 83.19 81.7174L81.3715 76.4052C81.1054 77.5024 80.71 78.5459 80.1769 79.528C79.089 81.5496 77.5301 83.1398 75.5326 84.256L75.5235 84.2611C73.5207 85.3685 71.2579 85.8859 68.8047 85.8859C66.3437 85.8859 64.0734 85.3692 62.0626 84.2639L62.0535 84.2589C60.0466 83.1439 58.477 81.5547 57.378 79.5321L57.3731 79.523C56.821 78.496 56.4182 77.4021 56.1552 76.25L54.6511 81.5144L54.6486 81.523C54.2722 82.8025 53.5315 83.878 52.4576 84.6758C51.3359 85.5091 50.0193 85.8633 48.6528 85.8715L48.5553 86.2251L48.4516 85.8703C47.1557 85.8457 45.8853 85.5035 44.8186 84.6701L44.8027 84.6577L44.7871 84.6451C44.2593 84.2178 43.825 83.7189 43.479 83.1645C43.0814 83.7504 42.5953 84.2711 42.0149 84.7086C40.937 85.5212 39.6735 85.8717 38.361 85.8717C37.0235 85.8717 35.7467 85.5191 34.6415 84.7297L34.635 84.7251L34.6286 84.7204C33.5811 83.9614 32.835 82.9398 32.4178 81.7191M32.4173 81.7174L26.9986 65.8882L26.9923 65.8686C26.8545 65.4415 26.7468 64.9678 26.7261 64.4722L26.7241 64.424V64.3757C26.7241 63.5527 26.931 62.7458 27.3767 62.0165L27.3813 62.009L27.386 62.0015C27.8271 61.2918 28.4365 60.733 29.1775 60.353C29.8976 59.9837 30.6712 59.8135 31.4568 59.8135H31.4779L31.499 59.8139C32.3879 59.8301 33.2635 60.0543 34.0547 60.5441C34.9117 61.0746 35.5291 61.8541 35.8528 62.8049L38.7907 71.4448L39.3356 70.2684L37.8738 65.4481L37.8599 65.3925C37.7717 65.0396 37.6913 64.6153 37.6913 64.1769C37.6913 63.3722 37.8988 62.5791 38.3519 61.8671C38.7831 61.1895 39.3753 60.6665 40.0805 60.3139C40.7651 59.9716 41.4974 59.8135 42.2393 59.8135C43.1263 59.8135 44.0195 60.03 44.8178 60.5535M79.2403 70.1796C79.0395 69.1396 78.709 68.1742 78.2489 67.2833C78.2128 67.2133 78.1759 67.1439 78.1382 67.0749C77.2574 65.4365 76.012 64.1721 74.4019 63.2819C72.7919 62.3822 70.9262 61.9323 68.8047 61.9323C66.6738 61.9323 64.7986 62.3822 63.1791 63.2819C61.5596 64.1721 60.3047 65.4365 59.4145 67.0749C58.5337 68.7039 58.0933 70.5886 58.0933 72.7289C58.0933 74.8883 58.5337 76.7872 59.4145 78.4256C60.3047 80.064 61.5596 81.3331 63.1791 82.2328C64.7986 83.1231 66.6738 83.5682 68.8047 83.5682C70.9262 83.5682 72.7919 83.1231 74.4019 82.2328C76.012 81.3331 77.2574 80.064 78.1382 78.4256C79.0284 76.7872 79.4735 74.8883 79.4735 72.7289C79.4735 71.8345 79.3958 70.9847 79.2403 70.1796ZM65.7362 67.0607C64.8649 67.5816 64.1877 68.3298 63.7047 69.3053C63.2217 70.2713 62.9802 71.4125 62.9802 72.7289C62.9802 74.0549 63.217 75.2103 63.6905 76.1952C64.1735 77.1707 64.8554 77.9237 65.7362 78.454C66.617 78.9749 67.6398 79.2354 68.8047 79.2354C69.9602 79.2354 70.9735 78.9749 71.8448 78.454C72.7162 77.9237 73.3886 77.1707 73.8621 76.1952C74.3451 75.2103 74.5866 74.0549 74.5866 72.7289C74.5866 71.4125 74.3451 70.2713 73.8621 69.3053C73.3886 68.3298 72.7162 67.5816 71.8448 67.0607C70.9735 66.5303 69.9602 66.2652 68.8047 66.2652C67.6398 66.2652 66.617 66.5303 65.7362 67.0607ZM85.3833 80.9685C85.6485 81.7451 86.1078 82.3702 86.7613 82.8437C87.3378 83.2555 88.011 83.4883 88.7809 83.5419C88.8737 83.5484 88.9679 83.5523 89.0636 83.5536C89.0868 83.5539 89.1102 83.554 89.1337 83.554C90.0239 83.554 90.7769 83.322 91.3925 82.8579C92.0081 82.3938 92.4816 81.764 92.8131 80.9685L94.5462 76.934L95.7538 80.8975C96 81.712 96.4214 82.3607 97.0181 82.8437C97.4356 83.1699 97.9386 83.3838 98.5269 83.4852C98.7926 83.5311 99.0757 83.554 99.3763 83.554C99.6197 83.554 99.8533 83.539 100.077 83.5089C100.759 83.4173 101.349 83.1861 101.848 82.8153C102.511 82.3228 102.961 81.6741 103.198 80.8691L107.715 65.0576C107.782 64.8588 107.824 64.6362 107.843 64.39C107.843 63.9543 107.734 63.566 107.516 63.225C107.308 62.8746 107.019 62.6047 106.65 62.4153C106.29 62.2259 105.887 62.1312 105.442 62.1312C104.874 62.1312 104.382 62.2685 103.965 62.5432C103.548 62.8083 103.274 63.1872 103.141 63.6796L99.2627 77.7437L95.1003 63.5092C94.9677 63.0735 94.712 62.7373 94.3331 62.5005C93.9638 62.2543 93.5234 62.1312 93.012 62.1312C92.6047 62.1312 92.2306 62.2164 91.8897 62.3869C91.5487 62.5574 91.2788 62.7989 91.0799 63.1114C90.8811 63.4239 90.7816 63.7791 90.7816 64.1769C90.7816 64.3473 90.8148 64.5652 90.8811 64.8303L92.6 70.4986C92.5242 70.5933 92.4437 70.7354 92.3585 70.9248L89.2331 77.6727L84.4315 63.5518C84.2799 63.1067 84.0053 62.761 83.6075 62.5147C83.2097 62.2685 82.7504 62.1406 82.2295 62.1312C81.7844 62.1312 81.3772 62.2259 81.0078 62.4153C80.6384 62.6047 80.3448 62.8746 80.127 63.225C79.9187 63.566 79.8145 63.9496 79.8145 64.3757C79.8239 64.603 79.876 64.8635 79.9707 65.1571L85.3833 80.9685ZM71.7831 70.3296L71.7771 70.3174C71.4866 69.7189 71.1128 69.3233 70.6556 69.05L70.6477 69.0453L70.6398 69.0405C70.1779 68.7593 69.5928 68.5828 68.8047 68.5828C68.0038 68.5828 67.4055 68.7609 66.9318 69.0462L66.9255 69.05C66.4641 69.3258 66.0822 69.727 65.7817 70.3337L65.7777 70.3418C65.487 70.9231 65.2979 71.6948 65.2979 72.7289C65.2979 73.7732 65.4827 74.5685 65.7735 75.1788C66.0697 75.7722 66.4518 76.1775 66.9238 76.4637C67.3989 76.7427 68.0008 76.9177 68.8047 76.9177C69.596 76.9177 70.1847 76.7443 70.6478 76.4694C71.111 76.1855 71.4868 75.7813 71.7771 75.1831L71.7812 75.1748C72.0793 74.5669 72.269 73.7739 72.269 72.7289C72.269 71.6948 72.0798 70.9231 71.7891 70.3418L71.7831 70.3296Z" fill="black"/>
<path d="M53.019 15.6452C52.7153 15.4608 52.3364 15.4514 52.0239 15.6206C51.7114 15.7898 51.5122 16.1121 51.5005 16.4672L50.5005 46.9672C50.4853 47.4323 50.7928 47.8464 51.2424 47.9662C51.692 48.0861 52.1648 47.8801 52.3831 47.4692L60.2934 32.5792L74.9143 45.2757C75.1845 45.5104 75.5596 45.5827 75.8977 45.4654L95.984 38.4967L109.324 50.7368C109.508 50.9061 109.75 51 110 51H116C116.345 51 116.666 50.8218 116.849 50.5287C117.031 50.2356 117.05 49.869 116.898 49.5591L103.439 22.1651C103.208 21.6949 102.653 21.4827 102.168 21.6787L78.6106 31.1842L53.019 15.6452Z" fill="#5C7CFA" stroke="black" stroke-width="2" stroke-linecap="round" stroke-linejoin="round"/>
<path d="M37.5 47L41 53.5" stroke="#FFA26D" stroke-width="2" stroke-linecap="round" stroke-linejoin="round"/>
<path d="M106.573 119.797C106.825 119.988 107.153 120.049 107.458 119.96C107.762 119.871 108.006 119.643 108.116 119.346L117.438 94.06C117.612 93.5899 117.41 93.064 116.967 92.8299C116.524 92.5958 115.976 92.7257 115.686 93.1337L105.634 107.239L85.0802 89.1701C84.7052 88.8404 84.1443 88.8379 83.7664 89.1643L65.8379 104.648L50.4691 92.9191C50.1866 92.7035 49.8108 92.654 49.4822 92.7892L30.414 100.629L29.4982 85.4398C29.4694 84.962 29.1061 84.5717 28.6316 84.5087C28.1571 84.4457 27.7045 84.7278 27.5521 85.1815L19.8355 108.146C19.718 108.495 19.8026 108.882 20.0557 109.15C20.3087 109.419 20.6891 109.526 21.0452 109.429L45.4001 102.825L65.2274 119.76C65.6139 120.091 66.1867 120.078 66.5586 119.732L84.4858 103.027L106.573 119.797Z" fill="#5C7CFA" stroke="black" stroke-width="2" stroke-linecap="round" stroke-linejoin="round"/>
<path d="M48.9981 21.9376C48.9755 21.5762 48.7593 21.2553 48.4329 21.0986C48.1065 20.9418 47.7209 20.9737 47.4247 21.182L30.2128 33.2874L14.3009 36.52C13.9299 36.5954 13.6333 36.8738 13.5346 37.2393C13.4359 37.6047 13.552 37.9946 13.8346 38.2465L30.8747 53.435C31.2322 53.7537 31.7655 53.7741 32.1464 53.4837C32.5272 53.1934 32.6487 52.6737 32.4361 52.2446L27.0171 41.3064H34.3949C34.638 41.3064 34.8727 41.2179 35.0552 41.0574L40.8428 35.9697L48.6958 46.5944C48.9593 46.9508 49.4259 47.0913 49.8424 46.9396C50.2588 46.7878 50.5257 46.38 50.4981 45.9376L48.9981 21.9376Z" fill="#BAC8FF" stroke="black" stroke-width="2" stroke-linecap="round" stroke-linejoin="round"/>
<path d="M27.5 83H16.8469L23.6698 72.5466C23.887 72.2138 23.8866 71.7841 23.6687 71.4518L14.6637 57.7139L29.6789 54.9839C30.1739 54.8939 30.5249 54.4502 30.4986 53.9478C30.4724 53.4454 30.077 53.0407 29.5753 53.0028L5.07531 51.1525C4.71161 51.125 4.36181 51.2978 4.1625 51.6032C3.9632 51.9087 3.94601 52.2984 4.11765 52.6202L14.9489 72.9288L6.88014 88.618C6.70002 88.9682 6.74223 89.3915 6.98795 89.6992C7.23367 90.007 7.63714 90.1419 8.01854 90.0438L27.7491 84.9685C28.237 84.843 28.5553 84.3742 28.4921 83.8744C28.4288 83.3747 28.0037 83 27.5 83Z" fill="#7CA0FF" stroke="black" stroke-width="2" stroke-linecap="round" stroke-linejoin="round"/>
<path d="M135.87 55.4932C136.056 55.1643 136.041 54.7583 135.831 54.444C135.621 54.1297 135.251 53.9609 134.876 54.0077L112.477 56.8042C112.043 56.8585 111.694 57.1892 111.617 57.6204C111.54 58.0516 111.752 58.4827 112.141 58.6843L123.488 64.5659L117.979 71.8558C117.814 72.0748 117.745 72.3523 117.791 72.6231L119.076 80.3339L110.375 81.1561C109.926 81.1985 109.562 81.5352 109.484 81.9787C109.406 82.4222 109.634 82.863 110.041 83.0556L125.572 90.4039C125.899 90.5587 126.285 90.5247 126.579 90.315C126.874 90.1054 127.033 89.7528 126.994 89.393L125.345 74.0565L135.87 55.4932Z" fill="#BAC8FF" stroke="black" stroke-width="2" stroke-linecap="round" stroke-linejoin="round"/>
<path d="M48.5 55.5L47.5 51" stroke="#7BB8FF" stroke-width="2" stroke-linecap="round" stroke-linejoin="round"/>
<path d="M92.5 55.5L95.5 45.5" stroke="#FFA26D" stroke-width="2" stroke-linecap="round" stroke-linejoin="round"/>
<path d="M98.5 57L102 54" stroke="#7BB8FF" stroke-width="2" stroke-linecap="round" stroke-linejoin="round"/>
<path d="M40.5 89L36 93" stroke="#FFA26D" stroke-width="2" stroke-linecap="round" stroke-linejoin="round"/>
<path d="M101 89.5L105.5 96.5" stroke="#7BB8FF" stroke-width="2" stroke-linecap="round" stroke-linejoin="round"/>
<path d="M56.5 87.5L57.5 92" stroke="#FFA26D" stroke-width="2" stroke-linecap="round" stroke-linejoin="round"/>
<path d="M62 87.5L65 95.5" stroke="#7BB8FF" stroke-width="2" stroke-linecap="round" stroke-linejoin="round"/>
<path d="M68 55L70 47.5" stroke="#FFA26D" stroke-width="2" stroke-linecap="round" stroke-linejoin="round"/>
<path d="M84.5 55L85.5 49.5" stroke="#A7AAFF" stroke-width="2" stroke-linecap="round" stroke-linejoin="round"/>
</g>
<defs>
<clipPath id="clip0_3614_626">
<rect width="140" height="140" fill="white"/>
</clipPath>
</defs>
</svg>
