<svg xmlns="http://www.w3.org/2000/svg" width="24" height="24" viewBox="0 0 24 24">
    <g fill="none" fill-rule="evenodd">
        <circle cx="12" cy="12" r="12" fill="#00AFFF"/>
        <path fill="#FFF" d="M20 8.42a6.228 6.228 0 0 1-1.767.478 3.047 3.047 0 0 0 1.353-1.677 6.22 6.22 0 0 1-1.955.736A3.096 3.096 0 0 0 15.385 7c-1.7 0-3.077 1.356-3.077 3.03 0 .237.027.468.08.69a8.783 8.783 0 0 1-6.344-3.166 2.98 2.98 0 0 0-.416 1.523c0 1.051.543 1.979 1.369 2.522a3.102 3.102 0 0 1-1.394-.379v.038c0 1.468 1.06 2.692 2.468 2.97a3.127 3.127 0 0 1-1.39.053 3.075 3.075 0 0 0 2.875 2.103 6.237 6.237 0 0 1-3.822 1.297A6.34 6.34 0 0 1 5 17.64 8.81 8.81 0 0 0 9.717 19c5.66 0 8.756-4.616 8.756-8.62 0-.13-.003-.261-.009-.391A6.197 6.197 0 0 0 20 8.42z"/>
    </g>
</svg>
