<svg width="84" height="112" viewBox="0 0 84 112" fill="none" xmlns="http://www.w3.org/2000/svg">
<g clip-path="url(#clip0_5467_24878)">
<rect width="84" height="112" fill="#F7FFF4"/>
<path d="M63.2232 86.889C63.8356 86.0488 65.1628 86.4239 65.2448 87.4604L65.666 92.7821C65.6918 93.108 65.8587 93.4063 66.1229 93.5988L70.437 96.7432C71.2772 97.3556 70.9021 98.6828 69.8657 98.7648L64.5439 99.186C64.2181 99.2118 63.9197 99.3787 63.7272 99.6429L60.5828 103.957C59.9704 104.797 58.6433 104.422 58.5612 103.386L58.14 98.0639C58.1142 97.7381 57.9473 97.4397 57.6832 97.2472L53.3691 94.1028C52.5288 93.4904 52.9039 92.1633 53.9404 92.0812L59.2621 91.66C59.588 91.6342 59.8863 91.4673 60.0788 91.2032L63.2232 86.889Z" fill="#ACDB87"/>
<path fill-rule="evenodd" clip-rule="evenodd" d="M15.6841 22.3997L5.23144 8.09415L9.13132 5.24462L19.584 19.5501L15.6841 22.3997Z" fill="#FFEB83"/>
<path fill-rule="evenodd" clip-rule="evenodd" d="M28.4769 16.646L9.54741 0.360751L12.6974 -3.30072L31.6269 12.9845L28.4769 16.646Z" fill="#FFEB83"/>
<circle cx="27.905" cy="83.8951" r="2.555" fill="#FFC368"/>
<path fill-rule="evenodd" clip-rule="evenodd" d="M49.4565 -14.4288C52.5968 -15.3468 55.8797 -15.7396 58.6838 -15.7847L58.7615 -10.9553C56.313 -10.9159 53.4688 -10.5696 50.8117 -9.79283C48.1328 -9.00976 45.8155 -7.83981 44.236 -6.27131C42.7254 -4.77124 41.8154 -2.84529 41.9477 -0.210567C42.0854 2.53094 43.3661 6.23529 46.7365 11.1037C50.8164 16.9972 55.0953 19.1977 58.8985 19.5214C62.7851 19.8522 66.686 18.2676 70.0025 15.5976C73.3247 12.9231 75.815 9.34825 76.9013 6.17299C78.0407 2.84223 77.4052 0.954341 76.2689 0.147783C71.6295 -3.14557 66.4208 -4.87379 62.166 -4.94577C57.8731 -5.0184 55.1544 -3.47143 54.1369 -0.925323C53.5557 0.529113 53.687 1.42968 53.9219 1.97659C54.1763 2.56913 54.7141 3.11768 55.5489 3.53974C56.3881 3.964 57.3767 4.17761 58.2303 4.1788C58.9438 4.17981 59.2829 4.04084 59.3759 4.00275C59.4094 3.989 59.4109 3.9884 59.3863 4.01231L62.7513 7.47719C61.503 8.68957 59.6708 9.01083 58.2235 9.0088C56.6588 9.0066 54.9205 8.63419 53.3697 7.8502C51.8147 7.06402 50.2995 5.78209 49.4838 3.88235C48.6484 1.93696 48.6922 -0.316583 49.6518 -2.71767C51.7158 -7.88262 56.9109 -9.86536 62.2477 -9.77508C67.6226 -9.68415 73.7594 -7.55685 79.0648 -3.79078C82.9009 -1.06763 82.83 3.7645 81.4712 7.73639C80.0593 11.8638 76.9884 16.1742 73.0314 19.3599C69.0688 22.5501 63.9726 24.8007 58.4888 24.334C52.9217 23.8601 47.4571 20.6303 42.7652 13.853C39.1182 8.5848 37.3236 4.01093 37.1238 0.031662C36.9186 -4.05439 38.409 -7.29177 40.8326 -9.69852C43.1873 -12.0368 46.3378 -13.5172 49.4565 -14.4288Z" fill="#749AC7"/>
<path d="M19.6135 71.7802L13.15 81.0999L8.33988 70.5393L19.6135 71.7802Z" fill="#749AC7"/>
<circle cx="36.7249" cy="22.0151" r="2.415" fill="#ACDB87"/>
<path fill-rule="evenodd" clip-rule="evenodd" d="M3.78359 92.7646C0.38667 92.1512 -3.45874 92.7221 -5.94639 93.4678L-7.33337 88.8413C-4.37269 87.9537 0.272898 87.2226 4.64189 88.0115C9.10728 88.8178 13.6168 91.3203 15.2172 97.0889C15.8956 99.534 16.7749 100.147 17.3601 100.365C18.1753 100.67 19.4116 100.608 21.4496 100.096C22.1915 99.909 22.9473 99.6899 23.7677 99.452C24.0312 99.3756 24.3013 99.2973 24.5798 99.2175C25.6931 98.8985 26.8992 98.5686 28.1367 98.3236C30.5992 97.836 33.4038 97.6374 36.1862 98.6502C46.8165 102.52 48.9242 111.895 50.3831 118.385C50.5596 119.17 50.7266 119.913 50.898 120.599L46.2122 121.77C46.0114 120.967 45.8225 120.157 45.6335 119.347C44.0895 112.728 42.5445 106.105 34.5341 103.189C32.9415 102.609 31.1479 102.651 29.0747 103.062C28.0443 103.266 26.998 103.549 25.9103 103.861C25.6685 103.93 25.422 104.001 25.1726 104.074C24.3334 104.317 23.4615 104.57 22.6269 104.78C20.5393 105.305 17.9977 105.76 15.6685 104.889C13.1091 103.933 11.4771 101.675 10.563 98.3802C9.61547 94.9648 7.08412 93.3606 3.78359 92.7646Z" fill="#FF9A9A"/>
<path d="M14.3444 51.8972C14.9658 51.8972 15.4992 51.9889 15.9447 52.1724C16.3939 52.3558 16.7365 52.6197 16.9723 52.9641C17.2081 53.3048 17.326 53.7109 17.326 54.1826C17.326 54.7067 17.2063 55.1709 16.9667 55.5752C16.7271 55.9757 16.3771 56.2883 15.9166 56.5129C15.4599 56.7338 14.9152 56.8442 14.2826 56.8442H13.0472L12.9406 60H11.2448L11.3514 56.8555H10.9921L11.0258 55.345H11.402L11.5255 51.8972H14.3444ZM15.6302 54.2893C15.6302 53.6679 15.2128 53.3572 14.3781 53.3572H13.1708V53.3684L13.0978 55.3843H14.3331C14.7636 55.3843 15.0874 55.2832 15.3046 55.0811C15.5217 54.8752 15.6302 54.6112 15.6302 54.2893Z" fill="black"/>
<path d="M18.7045 51.2178H20.3666L20.3104 52.8799H18.6483L18.7045 51.2178ZM20.3553 58.5737C20.4452 58.5775 20.6024 58.57 20.827 58.5513L20.7989 59.9888C20.5818 60.0225 20.3479 60.0487 20.097 60.0674C19.85 60.0861 19.6553 60.0955 19.5131 60.0955C19.1612 60.0955 18.8991 59.9906 18.7269 59.781C18.5585 59.5676 18.4836 59.2719 18.5023 58.8938L18.6539 55.3562L18.2159 55.373L18.2665 53.8232C18.8767 53.7858 19.4045 53.7671 19.85 53.7671C19.9997 53.7671 20.1176 53.8158 20.2037 53.9131C20.2898 54.0104 20.3291 54.1377 20.3216 54.2949L20.1813 58.3435C20.1775 58.4184 20.1888 58.4745 20.215 58.512C20.2449 58.5494 20.2917 58.57 20.3553 58.5737Z" fill="black"/>
<path d="M24.2662 55.3618L24.1708 58.248C24.167 58.3566 24.1876 58.4277 24.2325 58.4614C24.2775 58.4914 24.3692 58.5063 24.5077 58.5063C24.62 58.5063 24.8334 58.4914 25.1478 58.4614L25.3275 58.4446L25.305 60.0056C25.1254 60.0505 24.8989 60.088 24.6256 60.1179C24.3561 60.1516 24.124 60.1685 23.9293 60.1685C23.4726 60.1685 23.1188 60.0468 22.868 59.8035C22.6172 59.5564 22.4993 59.2045 22.5143 58.7478L22.6378 55.3618H21.5541L21.6102 53.8232H22.694L22.7445 52.3745L24.3785 51.9365L24.3168 53.8232H25.6083L25.5521 55.3618H24.2662Z" fill="black"/>
<path d="M29.4574 58.6299C29.8018 58.6299 30.1612 58.5251 30.5355 58.3154C30.9136 58.1021 31.2636 57.7502 31.5855 57.2598L32.0628 58.7983C31.7222 59.2251 31.3441 59.5489 30.9286 59.7698C30.5168 59.9869 30.0451 60.1086 29.5135 60.1348C29.4686 60.1385 29.4012 60.1404 29.3114 60.1404C28.7049 60.1404 28.1659 60.0075 27.6942 59.7417C27.2263 59.4759 26.8631 59.1109 26.6048 58.6467C26.3465 58.1788 26.2174 57.6547 26.2174 57.0745L26.223 56.9004C26.2717 56.2939 26.4401 55.7474 26.7284 55.2607C27.0204 54.7703 27.4041 54.3848 27.8795 54.104C28.3587 53.8232 28.8959 53.6829 29.4911 53.6829C29.5772 53.6829 29.6408 53.6847 29.682 53.6885C30.2435 53.7184 30.7133 53.8195 31.0914 53.9917C31.4695 54.1602 31.8045 54.4409 32.0965 54.834L31.5294 56.2603C31.2599 55.8747 30.9941 55.6051 30.732 55.4517C30.47 55.2944 30.1761 55.2008 29.8504 55.1709C29.8167 55.1672 29.7643 55.1653 29.6932 55.1653C29.4012 55.1653 29.1223 55.2402 28.8565 55.3899C28.5908 55.5359 28.368 55.7437 28.1883 56.0132C28.0124 56.279 27.9038 56.5822 27.8626 56.9229C27.8589 56.9603 27.857 57.0164 27.857 57.0913C27.857 57.4132 27.9244 57.6903 28.0592 57.9224C28.1939 58.1545 28.3811 58.3304 28.6207 58.4502C28.864 58.57 29.1429 58.6299 29.4574 58.6299Z" fill="black"/>
<path d="M38.568 58.6917C38.6541 58.6917 38.787 58.6879 38.9666 58.6804L38.9273 60.0281C38.4369 60.0655 37.9203 60.0842 37.3775 60.0842C37.224 60.0842 37.0968 60.0337 36.9957 59.9326C36.8984 59.8315 36.8516 59.7061 36.8553 59.5564L36.9564 56.5579H36.9508C36.9545 56.5129 36.9564 56.4456 36.9564 56.3557C36.9564 55.5059 36.6719 55.0811 36.1029 55.0811C35.897 55.0811 35.6911 55.1297 35.4852 55.2271C35.2831 55.3244 35.0977 55.4666 34.9293 55.6538C34.7646 55.841 34.6317 56.06 34.5306 56.3108V56.2771L34.4632 60H32.8236L32.9696 51.6895H34.6092L34.5587 54.615C34.787 54.323 35.0753 54.0965 35.4234 53.9355C35.7716 53.7708 36.1646 53.6885 36.6026 53.6885C37.269 53.6885 37.7687 53.885 38.1019 54.2781C38.4351 54.6711 38.6017 55.2944 38.6017 56.1479C38.6017 56.234 38.5979 56.3707 38.5904 56.5579H38.596L38.5118 58.6355C38.5118 58.6729 38.5305 58.6917 38.568 58.6917Z" fill="black"/>
<path d="M45.1375 60H43.3294L43.6102 51.6165H43.9022L47.8328 55.418L52.106 51.6165H52.398L52.1173 60H50.3092L50.4327 55.1709L47.7991 57.5012H47.6868L45.2611 55.1147L45.1375 60Z" fill="black"/>
<path d="M56.6121 60.1348C55.9757 60.1348 55.4105 60.0019 54.9163 59.7361C54.4222 59.4666 54.0366 59.0922 53.7596 58.613C53.4863 58.1339 53.3497 57.5873 53.3497 56.9734C53.3497 56.3407 53.4938 55.7755 53.7821 55.2776C54.0703 54.7797 54.4709 54.3904 54.9837 54.1096C55.4966 53.8289 56.0768 53.6885 56.7244 53.6885C57.3571 53.6885 57.9186 53.8232 58.409 54.0928C58.9031 54.3586 59.2869 54.731 59.5601 55.2102C59.8371 55.6856 59.9757 56.2284 59.9757 56.8386C59.9757 57.475 59.8315 58.044 59.5433 58.5457C59.2588 59.0435 58.8601 59.4329 58.3472 59.7136C57.8381 59.9944 57.2598 60.1348 56.6121 60.1348ZM56.5728 58.7085C56.9097 58.7085 57.213 58.6261 57.4825 58.4614C57.752 58.2967 57.9617 58.0684 58.1114 57.7764C58.2649 57.4844 58.3416 57.1531 58.3416 56.7825C58.3416 56.4568 58.2742 56.1685 58.1395 55.9177C58.0085 55.6632 57.8231 55.4666 57.5836 55.3281C57.344 55.1859 57.0707 55.1147 56.7637 55.1147C56.4268 55.1147 56.1217 55.1971 55.8485 55.3618C55.5789 55.5228 55.3674 55.7493 55.2139 56.0413C55.0605 56.3333 54.9837 56.6627 54.9837 57.0295C54.9837 57.3552 55.0492 57.6453 55.1802 57.8999C55.315 58.1545 55.5022 58.3529 55.7418 58.4951C55.9851 58.6374 56.2621 58.7085 56.5728 58.7085Z" fill="black"/>
<path d="M66.9131 58.6074L67.3904 58.5793L67.368 60.0281C67.2969 60.0318 67.1827 60.0412 67.0255 60.0562C66.9543 60.0599 66.7803 60.0711 66.5032 60.0898C66.2262 60.1123 65.9885 60.1198 65.7901 60.1123C65.6366 60.1198 65.5075 60.073 65.4026 59.9719C65.3016 59.8708 65.2529 59.7417 65.2567 59.5845L65.2679 58.9163C65.0358 59.3206 64.7419 59.6238 64.3863 59.8259C64.0307 60.0281 63.6413 60.1292 63.2183 60.1292C62.7317 60.1292 62.2974 60.0094 61.9156 59.7698C61.5338 59.5264 61.2343 59.1877 61.0172 58.7534C60.8038 58.3192 60.6971 57.8232 60.6971 57.2654C60.6971 57.1568 60.699 57.0745 60.7027 57.0183C60.7364 56.3782 60.8843 55.8054 61.1463 55.3C61.4121 54.7909 61.7602 54.3941 62.1907 54.1096C62.6212 53.8251 63.0929 53.6829 63.6058 53.6829C63.9914 53.6829 64.3339 53.7633 64.6334 53.9243C64.9328 54.0815 65.1706 54.308 65.3465 54.6038L65.4026 51.6895H67.0423L66.9131 58.6074ZM63.617 58.6411C63.8716 58.6411 64.1149 58.5737 64.347 58.439C64.5791 58.3042 64.7775 58.1152 64.9422 57.8718C65.1107 57.6285 65.2304 57.3477 65.3016 57.0295L65.3128 56.5972C65.2903 56.3164 65.2155 56.0712 65.0882 55.8616C64.9609 55.6519 64.7943 55.491 64.5884 55.3787C64.3825 55.2664 64.1542 55.2102 63.9034 55.2102C63.6264 55.2102 63.3755 55.2851 63.1509 55.4348C62.9263 55.5808 62.7429 55.7904 62.6006 56.0637C62.4621 56.3333 62.376 56.6514 62.3423 57.0183C62.3349 57.1231 62.3311 57.198 62.3311 57.2429C62.3311 57.6734 62.4453 58.0141 62.6736 58.2649C62.902 58.5157 63.2165 58.6411 63.617 58.6411Z" fill="black"/>
<path d="M71.4249 60.1909C70.3318 60.1909 69.5063 59.9251 68.9485 59.3936C68.3908 58.862 68.1119 58.0871 68.1119 57.0688C68.1119 56.3838 68.2373 55.7886 68.4881 55.2832C68.7427 54.7741 69.1076 54.3829 69.5831 54.1096C70.0585 53.8326 70.6238 53.6941 71.2789 53.6941C71.904 53.6941 72.4356 53.7989 72.8736 54.0085C73.3153 54.2182 73.6504 54.5251 73.8787 54.9294C74.1108 55.33 74.2269 55.8148 74.2269 56.3838C74.2269 56.5635 74.2063 56.9771 74.1651 57.6248L69.7796 57.6584C69.7759 58.0178 69.935 58.2874 70.2569 58.467C70.5788 58.6467 70.9906 58.7366 71.4922 58.7366C72.327 58.7366 73.1356 58.5494 73.918 58.175L73.9068 59.5901C73.5287 59.811 73.1338 59.9663 72.722 60.0562C72.3102 60.146 71.8778 60.1909 71.4249 60.1909ZM72.576 56.3501C72.5797 56.1068 72.5329 55.8934 72.4356 55.71C72.3383 55.5228 72.1941 55.3787 72.0032 55.2776C71.8123 55.1728 71.5858 55.1204 71.3238 55.1204C70.8596 55.1204 70.5021 55.2345 70.2513 55.4629C70.0042 55.6912 69.8545 55.9963 69.8021 56.3782L72.576 56.3501Z" fill="black"/>
</g>
<defs>
<clipPath id="clip0_5467_24878">
<rect width="84" height="112" fill="white"/>
</clipPath>
</defs>
</svg>
