<svg width="24" height="24" viewBox="0 0 24 24" fill="none" xmlns="http://www.w3.org/2000/svg">
<path d="M24 12C24 18.627 18.627 24 12 24C5.373 24 0 18.627 0 12C0 5.373 5.373 0 12 0C18.627 0 24 5.373 24 12" fill="#FF4747"/>
<path fill-rule="evenodd" clip-rule="evenodd" d="M9.46876 9.54851C9.90891 9.1442 10.3328 8.53441 10.6 8C10.8854 7.4293 11.1707 6.85859 11.3631 6.28789C11.5952 5.59951 12.1889 5 12.9153 5C13.7711 5 14.4024 5.80523 14.2271 6.64281C13.8681 8.35828 13.6 10 13.6 10H18.3192C18.9698 10 19.4472 10.6114 19.2894 11.2425L17.7894 17.2425C17.6781 17.6877 17.2781 18 16.8192 18H9.60001C9.04772 18 8.60001 17.5523 8.60001 17V11C8.60001 10.4477 9.06203 9.92212 9.46876 9.54851ZM5.34914 18H6.85087C7.26475 18 7.60001 17.7001 7.60001 17.3321V10.6689C7.60001 10.2989 7.26475 10 6.85087 10H5.34914C4.93527 10 4.60001 10.2989 4.60001 10.6689V17.3321C4.60001 17.7001 4.93527 18 5.34914 18Z" fill="white"/>
</svg>
