<?xml version="1.0" encoding="UTF-8"?>
<svg width="24px" height="24px" viewBox="0 0 24 24" version="1.1" xmlns="http://www.w3.org/2000/svg" xmlns:xlink="http://www.w3.org/1999/xlink">
    <!-- Generator: Sketch 56 (81588) - https://sketch.com -->
    <title>symbol_lock</title>
    <desc>Created with Sketch.</desc>
    <defs>
        <polygon id="path-1" points="0.0002 0.0002 24 0.0002 24 24 0.0002 24"></polygon>
    </defs>
    <g id="symbol_lock" stroke="none" stroke-width="1" fill="none" fill-rule="evenodd">
        <g id="Group-6">
            <g id="Group-3">
                <mask id="mask-2" fill="white">
                    <use xlink:href="#path-1"></use>
                </mask>
                <g id="Clip-2"></g>
                <path d="M24.0002,12.0002 C24.0002,18.6272 18.6272,24.0002 12.0002,24.0002 C5.3732,24.0002 0.0002,18.6272 0.0002,12.0002 C0.0002,5.3722 5.3732,0.0002 12.0002,0.0002 C18.6272,0.0002 24.0002,5.3722 24.0002,12.0002" id="Fill-1" fill="#F9493E" mask="url(#mask-2)"></path>
            </g>
            <path d="M9.7268,8.0344 C9.7268,6.7234 10.7928,5.6564 12.1048,5.6564 C13.4158,5.6564 14.4828,6.7234 14.4828,8.0344 L14.4868,8.0344 L14.4868,9.8444 L9.7268,9.8444 L9.7268,8.0344 Z M16.5598,9.8444 L16.1008,9.8444 L16.1008,8.0344 C16.1008,5.8314 14.3078,4.0394 12.1048,4.0394 C9.9018,4.0394 8.1088,5.8314 8.1088,8.0344 L8.1088,9.8444 L7.4398,9.8444 C6.9008,9.8444 6.4648,10.2804 6.4648,10.8194 L6.4648,18.1024 C6.4648,18.6404 6.9008,19.0774 7.4398,19.0774 L16.5598,19.0774 C17.0988,19.0774 17.5358,18.6404 17.5358,18.1024 L17.5358,10.8194 C17.5358,10.2804 17.0988,9.8444 16.5598,9.8444 L16.5598,9.8444 Z" id="Fill-4" fill="#FFFFFF"></path>
        </g>
    </g>
</svg>