<svg width="16" height="16" viewBox="0 0 16 16" fill="none" xmlns="http://www.w3.org/2000/svg">
<path fill-rule="evenodd" clip-rule="evenodd" d="M3.75 5.25V4.5C3.75 2.15279 5.65279 0.25 8 0.25C10.3472 0.25 12.25 2.15279 12.25 4.5V5.25H12.5C13.4665 5.25 14.25 6.0335 14.25 7V14C14.25 14.9665 13.4665 15.75 12.5 15.75H3.5C2.5335 15.75 1.75 14.9665 1.75 14V7C1.75 6.0335 2.5335 5.25 3.5 5.25H3.75ZM5.25 4.5C5.25 2.98122 6.48122 1.75 8 1.75C9.51878 1.75 10.75 2.98122 10.75 4.5V5.25H5.25V4.5ZM3.25 7C3.25 6.86193 3.36193 6.75 3.5 6.75H12.5C12.6381 6.75 12.75 6.86193 12.75 7V14C12.75 14.1381 12.6381 14.25 12.5 14.25H3.5C3.36193 14.25 3.25 14.1381 3.25 14V7Z" fill="#27292A"/>
</svg>
