<svg width="60" height="60" viewBox="0 0 60 60" fill="none" xmlns="http://www.w3.org/2000/svg">
<mask id="path-1-outside-1_50_1386" maskUnits="userSpaceOnUse" x="9.10278" y="9.14478" width="42" height="42" fill="black">
<rect fill="white" x="9.10278" y="9.14478" width="42" height="42"/>
<path fill-rule="evenodd" clip-rule="evenodd" d="M29.9581 13.1448C20.6491 13.1448 13.1028 20.6911 13.1028 30C13.1028 39.309 20.6491 46.8553 29.9581 46.8553C39.267 46.8553 46.8133 39.309 46.8133 30C46.8133 20.6911 39.267 13.1448 29.9581 13.1448ZM11.1028 30C11.1028 19.5866 19.5446 11.1448 29.9581 11.1448C40.3715 11.1448 48.8133 19.5866 48.8133 30C48.8133 40.4135 40.3715 48.8553 29.9581 48.8553C19.5446 48.8553 11.1028 40.4135 11.1028 30Z"/>
</mask>
<path fill-rule="evenodd" clip-rule="evenodd" d="M29.9581 13.1448C20.6491 13.1448 13.1028 20.6911 13.1028 30C13.1028 39.309 20.6491 46.8553 29.9581 46.8553C39.267 46.8553 46.8133 39.309 46.8133 30C46.8133 20.6911 39.267 13.1448 29.9581 13.1448ZM11.1028 30C11.1028 19.5866 19.5446 11.1448 29.9581 11.1448C40.3715 11.1448 48.8133 19.5866 48.8133 30C48.8133 40.4135 40.3715 48.8553 29.9581 48.8553C19.5446 48.8553 11.1028 40.4135 11.1028 30Z" fill="#F8F9FA"/>
<path d="M14.6028 30C14.6028 21.5196 21.4776 14.6448 29.9581 14.6448V11.6448C19.8207 11.6448 11.6028 19.8627 11.6028 30H14.6028ZM29.9581 45.3553C21.4776 45.3553 14.6028 38.4805 14.6028 30H11.6028C11.6028 40.1374 19.8207 48.3553 29.9581 48.3553V45.3553ZM45.3133 30C45.3133 38.4805 38.4385 45.3553 29.9581 45.3553V48.3553C40.0954 48.3553 48.3133 40.1374 48.3133 30H45.3133ZM29.9581 14.6448C38.4385 14.6448 45.3133 21.5196 45.3133 30H48.3133C48.3133 19.8627 40.0954 11.6448 29.9581 11.6448V14.6448ZM29.9581 9.64478C18.7161 9.64478 9.60278 18.7581 9.60278 30H12.6028C12.6028 20.415 20.373 12.6448 29.9581 12.6448V9.64478ZM50.3133 30C50.3133 18.7581 41.2 9.64478 29.9581 9.64478V12.6448C39.5431 12.6448 47.3133 20.415 47.3133 30H50.3133ZM29.9581 50.3553C41.2 50.3553 50.3133 41.242 50.3133 30H47.3133C47.3133 39.5851 39.5431 47.3553 29.9581 47.3553V50.3553ZM9.60278 30C9.60278 41.242 18.7161 50.3553 29.9581 50.3553V47.3553C20.373 47.3553 12.6028 39.5851 12.6028 30H9.60278Z" fill="#F8F9FA" mask="url(#path-1-outside-1_50_1386)"/>
<circle cx="30" cy="30" r="17.8553" fill="#748FFC" stroke="#212529" stroke-width="2" stroke-linejoin="round"/>
<circle cx="29.9998" cy="24.5079" r="5.47759" fill="#F8F9FA" stroke="#212529" stroke-width="2" stroke-linejoin="round"/>
<path d="M41.8819 40.3091C39.2427 36.6086 34.9635 34.3943 30 34.3943C25.0357 34.3943 20.6923 36.6111 18.0367 40.3132C17.3207 41.3113 17.4944 42.6686 18.4286 43.4662C20.7074 45.4115 24.7791 47.8711 30 47.8711C35.2168 47.8711 39.2344 45.414 41.492 43.4687C42.4226 42.6668 42.5952 41.3092 41.8819 40.3091Z" fill="#F8F9FA" stroke="#212529" stroke-width="2" stroke-linejoin="round"/>
<g style="mix-blend-mode:multiply">
<path fill-rule="evenodd" clip-rule="evenodd" d="M27.6746 46.294C37.5358 46.294 45.5299 38.2999 45.5299 28.4387C45.5299 22.8927 43.0014 17.9373 39.0342 14.6624C43.7569 17.8752 46.8587 23.2933 46.8587 29.4358C46.8587 39.297 38.8646 47.2911 29.0034 47.2911C24.6882 47.2911 20.7305 45.7603 17.6438 43.2122C20.5029 45.1572 23.956 46.294 27.6746 46.294Z" fill="#DEE2E6"/>
</g>
</svg>
