<svg width="60" height="61" viewBox="0 0 60 61" fill="none" xmlns="http://www.w3.org/2000/svg">
<mask id="path-1-outside-1_50_3292" maskUnits="userSpaceOnUse" x="9.41089" y="8.18677" width="38" height="48" fill="black">
<rect fill="white" x="9.41089" y="8.18677" width="38" height="48"/>
<path fill-rule="evenodd" clip-rule="evenodd" d="M19.3374 10.1868C18.7011 10.1868 18.1853 10.7026 18.1853 11.3389V21.302H14.0692C12.6011 21.302 11.4109 22.4922 11.4109 23.9603C11.4109 25.2082 12.2707 26.2553 13.4302 26.5414V39.5686C13.4302 41.2254 14.7734 42.5686 16.4302 42.5686H20.4274V44.6779C20.4274 44.9541 20.6512 45.1779 20.9274 45.1779H23.2371C23.4285 46.8224 24.2288 48.7117 25.5828 50.3098C27.3935 52.447 30.2509 54.1389 34.1647 54.1389C37.9743 54.1389 40.837 52.9579 42.7473 51.0175C44.6496 49.0852 45.5088 46.5 45.5088 43.8722V11.8203C45.5088 11.268 45.0611 10.8203 44.5088 10.8203C43.9565 10.8203 43.5088 11.268 43.5088 11.8203V43.8722C43.5088 46.072 42.7932 48.1201 41.3221 49.6143C39.8591 51.1004 37.5497 52.1389 34.1647 52.1389C30.8839 52.1389 28.5696 50.7412 27.1087 49.0169C26.0266 47.7397 25.44 46.3202 25.2563 45.1779H26.7943C27.0704 45.1779 27.2943 44.9541 27.2943 44.6779V42.5686H31.5653C33.2222 42.5686 34.5653 41.2254 34.5653 39.5686V26.5414C35.7248 26.2553 36.5847 25.2082 36.5847 23.9603C36.5847 22.4922 35.3945 21.302 33.9263 21.302H29.5986V11.3389C29.5986 10.7026 29.0828 10.1868 28.4465 10.1868C27.8101 10.1868 27.2943 10.7026 27.2943 11.3389V21.302H20.4896V11.3389C20.4896 10.7026 19.9738 10.1868 19.3374 10.1868ZM14.0692 23.302C13.7056 23.302 13.4109 23.5967 13.4109 23.9603C13.4109 24.3239 13.7056 24.6187 14.0692 24.6187C14.8209 24.6187 15.4302 25.228 15.4302 25.9797V39.5686C15.4302 40.1208 15.8779 40.5686 16.4302 40.5686H31.5653C31.6096 40.5686 31.6533 40.5657 31.696 40.5601V26.6715L32.6061 25.6478C32.7543 25.0565 33.2892 24.6187 33.9263 24.6187C34.2899 24.6187 34.5847 24.3239 34.5847 23.9603C34.5847 23.5967 34.2899 23.302 33.9263 23.302H14.0692ZM32.453 40.0295L32.0262 40.4562C32.2086 40.3614 32.3581 40.2119 32.453 40.0295Z"/>
</mask>
<path fill-rule="evenodd" clip-rule="evenodd" d="M19.3374 10.1868C18.7011 10.1868 18.1853 10.7026 18.1853 11.3389V21.302H14.0692C12.6011 21.302 11.4109 22.4922 11.4109 23.9603C11.4109 25.2082 12.2707 26.2553 13.4302 26.5414V39.5686C13.4302 41.2254 14.7734 42.5686 16.4302 42.5686H20.4274V44.6779C20.4274 44.9541 20.6512 45.1779 20.9274 45.1779H23.2371C23.4285 46.8224 24.2288 48.7117 25.5828 50.3098C27.3935 52.447 30.2509 54.1389 34.1647 54.1389C37.9743 54.1389 40.837 52.9579 42.7473 51.0175C44.6496 49.0852 45.5088 46.5 45.5088 43.8722V11.8203C45.5088 11.268 45.0611 10.8203 44.5088 10.8203C43.9565 10.8203 43.5088 11.268 43.5088 11.8203V43.8722C43.5088 46.072 42.7932 48.1201 41.3221 49.6143C39.8591 51.1004 37.5497 52.1389 34.1647 52.1389C30.8839 52.1389 28.5696 50.7412 27.1087 49.0169C26.0266 47.7397 25.44 46.3202 25.2563 45.1779H26.7943C27.0704 45.1779 27.2943 44.9541 27.2943 44.6779V42.5686H31.5653C33.2222 42.5686 34.5653 41.2254 34.5653 39.5686V26.5414C35.7248 26.2553 36.5847 25.2082 36.5847 23.9603C36.5847 22.4922 35.3945 21.302 33.9263 21.302H29.5986V11.3389C29.5986 10.7026 29.0828 10.1868 28.4465 10.1868C27.8101 10.1868 27.2943 10.7026 27.2943 11.3389V21.302H20.4896V11.3389C20.4896 10.7026 19.9738 10.1868 19.3374 10.1868ZM14.0692 23.302C13.7056 23.302 13.4109 23.5967 13.4109 23.9603C13.4109 24.3239 13.7056 24.6187 14.0692 24.6187C14.8209 24.6187 15.4302 25.228 15.4302 25.9797V39.5686C15.4302 40.1208 15.8779 40.5686 16.4302 40.5686H31.5653C31.6096 40.5686 31.6533 40.5657 31.696 40.5601V26.6715L32.6061 25.6478C32.7543 25.0565 33.2892 24.6187 33.9263 24.6187C34.2899 24.6187 34.5847 24.3239 34.5847 23.9603C34.5847 23.5967 34.2899 23.302 33.9263 23.302H14.0692ZM32.453 40.0295L32.0262 40.4562C32.2086 40.3614 32.3581 40.2119 32.453 40.0295Z" fill="#F8F9FA"/>
<path d="M18.1853 21.302V22.802C19.0137 22.802 19.6853 22.1304 19.6853 21.302H18.1853ZM13.4302 26.5414H14.9302C14.9302 25.8513 14.4595 25.2503 13.7896 25.085L13.4302 26.5414ZM20.4274 42.5686H21.9274C21.9274 41.7401 21.2558 41.0686 20.4274 41.0686V42.5686ZM23.2371 45.1779L24.7271 45.0045C24.6391 44.2483 23.9985 43.6779 23.2371 43.6779V45.1779ZM25.5828 50.3098L24.4383 51.2794L24.4383 51.2794L25.5828 50.3098ZM42.7473 51.0175L41.6784 49.9651L41.6784 49.9651L42.7473 51.0175ZM41.3221 49.6143L40.2532 48.562L40.2532 48.562L41.3221 49.6143ZM27.1087 49.0169L28.2532 48.0473L28.2532 48.0473L27.1087 49.0169ZM25.2563 45.1779V43.6779C24.8169 43.6779 24.3995 43.8706 24.1146 44.2051C23.8296 44.5396 23.7056 44.9822 23.7753 45.4161L25.2563 45.1779ZM27.2943 42.5686V41.0686C26.4658 41.0686 25.7943 41.7401 25.7943 42.5686H27.2943ZM34.5653 26.5414L34.206 25.085C33.5361 25.2503 33.0653 25.8513 33.0653 26.5414H34.5653ZM29.5986 21.302H28.0986C28.0986 22.1304 28.7702 22.802 29.5986 22.802V21.302ZM27.2943 21.302V22.802C28.1227 22.802 28.7943 22.1304 28.7943 21.302H27.2943ZM20.4896 21.302H18.9896C18.9896 22.1304 19.6612 22.802 20.4896 22.802V21.302ZM31.696 40.5601L31.8903 42.0475C32.6373 41.9499 33.196 41.3135 33.196 40.5601H31.696ZM31.696 26.6715L30.5749 25.675C30.3309 25.9495 30.196 26.3041 30.196 26.6715H31.696ZM32.6061 25.6478L33.7272 26.6443C33.8878 26.4637 34.0023 26.2469 34.0611 26.0124L32.6061 25.6478ZM32.453 40.0295L33.7836 40.7219C34.1253 40.0652 33.9369 39.2574 33.3398 38.8198C32.7428 38.3821 31.9158 38.4454 31.3923 38.9688L32.453 40.0295ZM32.0262 40.4562L30.9656 39.3956C30.4421 39.919 30.3788 40.746 30.8165 41.3431C31.2541 41.9401 32.0619 42.1286 32.7186 41.7869L32.0262 40.4562ZM19.6853 11.3389C19.6853 11.531 19.5296 11.6868 19.3374 11.6868V8.68677C17.8727 8.68677 16.6853 9.87417 16.6853 11.3389H19.6853ZM19.6853 21.302V11.3389H16.6853V21.302H19.6853ZM14.0692 22.802H18.1853V19.802H14.0692V22.802ZM12.9109 23.9603C12.9109 23.3206 13.4295 22.802 14.0692 22.802V19.802C11.7726 19.802 9.91089 21.6637 9.91089 23.9603H12.9109ZM13.7896 25.085C13.2842 24.9603 12.9109 24.5021 12.9109 23.9603H9.91089C9.91089 25.9143 11.2572 27.5502 13.0709 27.9977L13.7896 25.085ZM14.9302 39.5686V26.5414H11.9302V39.5686H14.9302ZM16.4302 41.0686C15.6018 41.0686 14.9302 40.397 14.9302 39.5686H11.9302C11.9302 42.0539 13.945 44.0686 16.4302 44.0686V41.0686ZM20.4274 41.0686H16.4302V44.0686H20.4274V41.0686ZM21.9274 44.6779V42.5686H18.9274V44.6779H21.9274ZM20.9274 43.6779C21.4797 43.6779 21.9274 44.1256 21.9274 44.6779H18.9274C18.9274 45.7825 19.8228 46.6779 20.9274 46.6779V43.6779ZM23.2371 43.6779H20.9274V46.6779H23.2371V43.6779ZM26.7272 49.3401C25.548 47.9483 24.8815 46.3312 24.7271 45.0045L21.7472 45.3513C21.9755 47.3136 22.9096 49.4751 24.4383 51.2794L26.7272 49.3401ZM34.1647 52.6389C30.7259 52.6389 28.2757 51.1678 26.7272 49.3401L24.4383 51.2794C26.5113 53.7261 29.776 55.6389 34.1647 55.6389V52.6389ZM41.6784 49.9651C40.1038 51.5645 37.6563 52.6389 34.1647 52.6389V55.6389C38.2924 55.6389 41.5701 54.3513 43.8162 52.0698L41.6784 49.9651ZM44.0088 43.8722C44.0088 46.1794 43.257 48.3616 41.6784 49.9651L43.8162 52.0698C46.0422 49.8088 47.0088 46.8205 47.0088 43.8722H44.0088ZM44.0088 11.8203V43.8722H47.0088V11.8203H44.0088ZM44.5088 12.3203C44.2326 12.3203 44.0088 12.0965 44.0088 11.8203H47.0088C47.0088 10.4396 45.8895 9.32031 44.5088 9.32031V12.3203ZM45.0088 11.8203C45.0088 12.0965 44.7849 12.3203 44.5088 12.3203V9.32031C43.1281 9.32031 42.0088 10.4396 42.0088 11.8203H45.0088ZM45.0088 43.8722V11.8203H42.0088V43.8722H45.0088ZM42.391 50.6667C44.1852 48.8443 45.0088 46.3935 45.0088 43.8722H42.0088C42.0088 45.7505 41.4012 47.396 40.2532 48.562L42.391 50.6667ZM34.1647 53.6389C37.8687 53.6389 40.5928 52.4932 42.391 50.6667L40.2532 48.562C39.1254 49.7076 37.2306 50.6389 34.1647 50.6389V53.6389ZM25.9643 49.9865C27.6877 52.0208 30.4094 53.6389 34.1647 53.6389V50.6389C31.3583 50.6389 29.4515 49.4616 28.2532 48.0473L25.9643 49.9865ZM23.7753 45.4161C24.0035 46.8347 24.7096 48.5057 25.9643 49.9865L28.2532 48.0473C27.3436 46.9737 26.8766 45.8058 26.7373 44.9398L23.7753 45.4161ZM26.7943 43.6779H25.2563V46.6779H26.7943V43.6779ZM25.7943 44.6779C25.7943 44.1256 26.242 43.6779 26.7943 43.6779V46.6779C27.8988 46.6779 28.7943 45.7825 28.7943 44.6779H25.7943ZM25.7943 42.5686V44.6779H28.7943V42.5686H25.7943ZM31.5653 41.0686H27.2943V44.0686H31.5653V41.0686ZM33.0653 39.5686C33.0653 40.397 32.3937 41.0686 31.5653 41.0686V44.0686C34.0506 44.0686 36.0653 42.0538 36.0653 39.5686H33.0653ZM33.0653 26.5414V39.5686H36.0653V26.5414H33.0653ZM35.0847 23.9603C35.0847 24.5021 34.7114 24.9603 34.206 25.085L34.9246 27.9977C36.7383 27.5502 38.0847 25.9144 38.0847 23.9603H35.0847ZM33.9263 22.802C34.5661 22.802 35.0847 23.3206 35.0847 23.9603H38.0847C38.0847 21.6637 36.2229 19.802 33.9263 19.802V22.802ZM29.5986 22.802H33.9263V19.802H29.5986V22.802ZM28.0986 11.3389V21.302H31.0986V11.3389H28.0986ZM28.4465 11.6868C28.2543 11.6868 28.0986 11.531 28.0986 11.3389H31.0986C31.0986 9.87417 29.9112 8.68677 28.4465 8.68677V11.6868ZM28.7943 11.3389C28.7943 11.531 28.6386 11.6868 28.4465 11.6868V8.68677C26.9817 8.68677 25.7943 9.87417 25.7943 11.3389H28.7943ZM28.7943 21.302V11.3389H25.7943V21.302H28.7943ZM20.4896 22.802H27.2943V19.802H20.4896V22.802ZM18.9896 11.3389V21.302H21.9896V11.3389H18.9896ZM19.3374 11.6868C19.1453 11.6868 18.9896 11.531 18.9896 11.3389H21.9896C21.9896 9.87417 20.8022 8.68677 19.3374 8.68677V11.6868ZM14.9109 23.9603C14.9109 24.4252 14.5341 24.802 14.0692 24.802V21.802C12.8772 21.802 11.9109 22.7683 11.9109 23.9603H14.9109ZM14.0692 23.1187C14.5341 23.1187 14.9109 23.4955 14.9109 23.9603H11.9109C11.9109 25.1523 12.8772 26.1187 14.0692 26.1187V23.1187ZM16.9302 25.9797C16.9302 24.3996 15.6493 23.1187 14.0692 23.1187V26.1187C13.9925 26.1187 13.9302 26.0564 13.9302 25.9797H16.9302ZM16.9302 39.5686V25.9797H13.9302V39.5686H16.9302ZM16.4302 39.0686C16.7064 39.0686 16.9302 39.2924 16.9302 39.5686H13.9302C13.9302 40.9493 15.0495 42.0686 16.4302 42.0686V39.0686ZM31.5653 39.0686H16.4302V42.0686H31.5653V39.0686ZM31.5018 39.0727C31.5233 39.0699 31.5445 39.0686 31.5653 39.0686V42.0686C31.6747 42.0686 31.7832 42.0614 31.8903 42.0475L31.5018 39.0727ZM33.196 40.5601V26.6715H30.196V40.5601H33.196ZM32.8171 27.6681L33.7272 26.6443L31.485 24.6512L30.5749 25.675L32.8171 27.6681ZM33.9263 23.1187C32.5849 23.1187 31.4625 24.0405 31.1511 25.2831L34.0611 26.0124C34.046 26.0726 33.9934 26.1187 33.9263 26.1187V23.1187ZM33.0847 23.9603C33.0847 23.4955 33.4615 23.1187 33.9263 23.1187V26.1187C35.1184 26.1187 36.0847 25.1523 36.0847 23.9603H33.0847ZM33.9263 24.802C33.4615 24.802 33.0847 24.4252 33.0847 23.9603H36.0847C36.0847 22.7683 35.1184 21.802 33.9263 21.802V24.802ZM14.0692 24.802H33.9263V21.802H14.0692V24.802ZM31.3923 38.9688L30.9656 39.3956L33.0869 41.5169L33.5136 41.0902L31.3923 38.9688ZM31.1223 39.3371C31.1696 39.2463 31.243 39.1729 31.3339 39.1256L32.7186 41.7869C33.1742 41.5498 33.5465 41.1775 33.7836 40.7219L31.1223 39.3371Z" fill="#F8F9FA" mask="url(#path-1-outside-1_50_3292)"/>
<rect x="18.1986" y="10.1868" width="2.30429" height="12.8858" rx="1.15214" fill="#212529"/>
<rect x="27.3076" y="10.1868" width="2.30429" height="12.8858" rx="1.15214" fill="#212529"/>
<rect x="20.4407" y="41.3848" width="6.86689" height="3.79311" rx="0.5" fill="#212529"/>
<path d="M24.2402 43.8722C23.8346 46.9595 26.9833 53.1389 34.1779 53.1389C41.3725 53.1389 44.522 48.6997 44.522 43.8722V11.8203" stroke="#212529" stroke-width="2" stroke-linecap="round"/>
<path fill-rule="evenodd" clip-rule="evenodd" d="M14.0825 22.302C13.1667 22.302 12.4242 23.0445 12.4242 23.9603C12.4242 24.8762 13.1667 25.6187 14.0825 25.6187V25.6187C14.2819 25.6187 14.4435 25.7803 14.4435 25.9797V39.5686C14.4435 40.6731 15.339 41.5686 16.4435 41.5686H31.5786C32.6832 41.5686 33.5786 40.6731 33.5786 39.5686V25.9797C33.5786 25.7803 33.7403 25.6187 33.9397 25.6187V25.6187C34.8555 25.6187 35.598 24.8762 35.598 23.9603C35.598 23.0445 34.8555 22.302 33.9396 22.302H14.0825Z" fill="#CED4DA"/>
<path d="M13.4242 23.9603C13.4242 23.5967 13.7189 23.302 14.0825 23.302V21.302C12.6144 21.302 11.4242 22.4922 11.4242 23.9603H13.4242ZM14.0825 24.6187C13.7189 24.6187 13.4242 24.3239 13.4242 23.9603H11.4242C11.4242 25.4285 12.6144 26.6187 14.0825 26.6187V24.6187ZM15.4435 39.5686V25.9797H13.4435V39.5686H15.4435ZM16.4435 40.5686C15.8912 40.5686 15.4435 40.1209 15.4435 39.5686H13.4435C13.4435 41.2254 14.7867 42.5686 16.4435 42.5686V40.5686ZM31.5786 40.5686H16.4435V42.5686H31.5786V40.5686ZM32.5786 39.5686C32.5786 40.1209 32.1309 40.5686 31.5786 40.5686V42.5686C33.2355 42.5686 34.5786 41.2254 34.5786 39.5686H32.5786ZM32.5786 25.9797V39.5686H34.5786V25.9797H32.5786ZM34.598 23.9603C34.598 24.3239 34.3032 24.6187 33.9397 24.6187V26.6187C35.4078 26.6187 36.598 25.4285 36.598 23.9603H34.598ZM33.9396 23.302C34.3032 23.302 34.598 23.5968 34.598 23.9603H36.598C36.598 22.4922 35.4078 21.302 33.9396 21.302V23.302ZM14.0825 23.302H33.9396V21.302H14.0825V23.302ZM34.5786 25.9797C34.5786 26.3326 34.2925 26.6187 33.9397 26.6187V24.6187C33.188 24.6187 32.5786 25.228 32.5786 25.9797H34.5786ZM14.0825 26.6187C13.7296 26.6187 13.4435 26.3326 13.4435 25.9797H15.4435C15.4435 25.228 14.8342 24.6187 14.0825 24.6187V26.6187Z" fill="#212529"/>
<g style="mix-blend-mode:multiply">
<path d="M31.7094 26.6714L32.8856 25.3481V39.6101L31.7094 40.7863V26.6714Z" fill="#DEE2E6"/>
</g>
<path d="M21.3036 32.5348L23.9482 28.1502C24.0038 28.0581 24.1457 28.1067 24.1332 28.2135L23.8084 30.9912C23.8014 31.0506 23.8478 31.1028 23.9077 31.1028H26.4228C26.5003 31.1028 26.5484 31.1871 26.5089 31.2538L23.2065 36.8295C23.1495 36.9259 23.0014 36.8699 23.0223 36.7599L23.7728 32.8051C23.7845 32.7435 23.7372 32.6865 23.6745 32.6865H21.3893C21.3114 32.6865 21.2634 32.6015 21.3036 32.5348Z" fill="#212529"/>
</svg>
