<svg width="60" height="61" viewBox="0 0 60 61" fill="none" xmlns="http://www.w3.org/2000/svg">
<path d="M13.276 30.3913C13.276 21.0763 20.8273 13.5249 30.1424 13.5249C39.4575 13.5249 47.0088 21.0763 47.0088 30.3913C47.0088 39.7064 39.4575 47.2577 30.1424 47.2577C20.8273 47.2577 13.276 39.7064 13.276 30.3913ZM30.1424 10.0249C18.8944 10.0249 9.776 19.1433 9.776 30.3913C9.776 41.6394 18.8944 50.7577 30.1424 50.7577C41.3905 50.7577 50.5088 41.6394 50.5088 30.3913C50.5088 19.1433 41.3905 10.0249 30.1424 10.0249Z" fill="#F8F9FA" stroke="#F8F9FA" stroke-width="1.5" stroke-linecap="round" stroke-linejoin="round"/>
<circle cx="30.1424" cy="30.3913" r="18.6164" fill="#FA5252" stroke="#212529" stroke-width="2" stroke-linecap="round" stroke-linejoin="round"/>
<g style="mix-blend-mode:multiply">
<path fill-rule="evenodd" clip-rule="evenodd" d="M28.0766 47.344C37.8988 47.344 45.8613 39.3815 45.8613 29.5593C45.8613 22.4787 41.7235 16.3645 35.734 13.5029C42.8168 15.8468 47.927 22.522 47.927 30.3908C47.927 40.213 39.9645 48.1755 30.1423 48.1755C27.4007 48.1755 24.804 47.5552 22.4849 46.4472C24.2432 47.029 26.1231 47.344 28.0766 47.344Z" fill="#FFD43B"/>
</g>
<g style="mix-blend-mode:soft-light" opacity="0.8">
<path d="M21.1143 19.1419C21.8753 18.3678 20.9615 17.6249 20.1057 17.8212C19.3881 17.9858 17.6227 19.6543 16.7332 21.3403C15.8437 23.0262 17.1786 23.7713 17.6957 23.1624C18.2129 22.5536 20.1629 20.1096 21.1143 19.1419Z" fill="#F8F9FA"/>
</g>
<path d="M23.4792 38.5629C23.4792 38.5629 26.2269 36.8252 29.7129 36.8252C33.1988 36.8252 35.9465 38.5629 35.9465 38.5629" stroke="#212529" stroke-width="2" stroke-linecap="round"/>
<path d="M24.3594 30.3911C25.3831 30.3911 26.213 29.2845 26.213 27.9195C26.213 26.5545 25.3831 25.448 24.3594 25.448C23.3356 25.448 22.5057 26.5545 22.5057 27.9195C22.5057 29.2845 23.3356 30.3911 24.3594 30.3911Z" fill="#212529"/>
<path d="M33.0098 30.3911C34.0335 30.3911 34.8634 29.2845 34.8634 27.9195C34.8634 26.5545 34.0335 25.448 33.0098 25.448C31.986 25.448 31.1561 26.5545 31.1561 27.9195C31.1561 29.2845 31.986 30.3911 33.0098 30.3911Z" fill="#212529"/>
<path d="M25.5952 26.6839C24.3048 25.2217 22.3255 23.9112 18.7985 24.2733" stroke="#212529" stroke-width="2" stroke-linecap="round"/>
<path d="M31.774 26.6839C33.1023 25.058 35.0112 24.0264 38.5708 24.2404" stroke="#212529" stroke-width="2" stroke-linecap="round"/>
</svg>
