<svg width="60" height="61" viewBox="0 0 60 61" fill="none" xmlns="http://www.w3.org/2000/svg">
<mask id="path-1-outside-1_50_5567" maskUnits="userSpaceOnUse" x="5.65845" y="6.63281" width="49" height="48" fill="black">
<rect fill="white" x="5.65845" y="6.63281" width="49" height="48"/>
<path fill-rule="evenodd" clip-rule="evenodd" d="M24.6691 13.414C25.2133 11.2417 27.1785 9.63281 29.5195 9.63281C31.637 9.63281 33.4471 10.9491 34.1761 12.8081L30.3797 10.816C30.1658 10.7003 29.8992 10.6801 29.6514 10.8001L29.6514 10.8001C29.6436 10.8039 29.6359 10.8078 29.6283 10.8118L24.6691 13.414ZM23.5525 13.9999C23.8687 10.9837 26.4196 8.63281 29.5195 8.63281C32.4291 8.63281 34.8549 10.7038 35.4034 13.4521L51.3779 21.8344C51.9704 22.1453 52.3416 22.7592 52.3416 23.4283V24.196C52.3416 25.1901 51.5357 25.996 50.5416 25.996H49.267C49.2751 26.0616 49.2793 26.1283 49.2793 26.1961V26.6793C49.2793 27.5237 48.6251 28.2154 47.7959 28.2751V30.5258C47.7959 31.1886 47.2586 31.7258 46.5959 31.7258H45.7782V43.3083H46.5959C47.2586 43.3083 47.7959 43.8455 47.7959 44.5083V46.6551H49.5416C51.0328 46.6551 52.2416 47.8639 52.2416 49.3551V50.6142C52.2416 51.5531 51.4805 52.3142 50.5416 52.3142H9.45854C8.51966 52.3142 7.75854 51.5531 7.75854 50.6142V49.3551C7.75854 47.8639 8.96738 46.6551 10.4585 46.6551H12.2041V44.5083C12.2041 43.8455 12.7414 43.3083 13.4041 43.3083H14.2217L14.2217 31.7258H13.4041C12.7414 31.7258 12.2041 31.1886 12.2041 30.5258V28.2751C11.3749 28.2153 10.7207 27.5237 10.7207 26.6793V26.1961C10.7207 26.1283 10.7249 26.0616 10.7331 25.996H9.45845C8.46433 25.996 7.65845 25.1901 7.65845 24.196V23.4283C7.65845 22.7592 8.02959 22.1453 8.62208 21.8344L23.5525 13.9999ZM35.4828 15.3006L50.6345 23.2512C50.7003 23.2857 50.7416 23.3539 50.7416 23.4283V24.196C50.7416 24.3065 50.652 24.396 50.5416 24.396H30.0057L30 24.396H9.45845C9.34799 24.396 9.25845 24.3065 9.25845 24.196V23.4283C9.25845 23.3539 9.29969 23.2857 9.36552 23.2512L23.6267 15.7679C24.1573 18.5388 26.5939 20.6328 29.5195 20.6328C32.6075 20.6328 35.1506 18.3 35.4828 15.3006ZM34.517 14.7938C34.432 17.4807 32.2271 19.6328 29.5195 19.6328C26.9767 19.6328 24.8771 17.7345 24.5607 15.2778L30 12.4236L34.517 14.7938ZM11.9742 25.996H29.9943L30 25.996H48.0258C48.0598 26.0549 48.0793 26.1232 48.0793 26.1961V26.6793C48.0793 26.9002 47.9002 27.0793 47.6793 27.0793H46.8007C46.7342 27.0678 46.6657 27.0618 46.5959 27.0618H38.8686C38.7987 27.0618 38.7303 27.0678 38.6637 27.0793H21.3363C21.2697 27.0678 21.2012 27.0618 21.1314 27.0618H13.4041C13.3343 27.0618 13.2658 27.0678 13.1992 27.0793H12.3207C12.0998 27.0793 11.9207 26.9002 11.9207 26.6793V26.1961C11.9207 26.1232 11.9402 26.0549 11.9742 25.996ZM22.3314 28.2793V30.5258C22.3314 31.1886 21.7941 31.7258 21.1314 31.7258H20.3137V33.1787H39.6862V31.7258H38.8686C38.2058 31.7258 37.6686 31.1886 37.6686 30.5258V28.2793H22.3314ZM29.6139 12.2209C29.6207 12.2246 29.6276 12.2283 29.6344 12.2318L29.6283 12.2286L29.6139 12.2209ZM29.2 11.5202C29.2 11.7737 29.3202 12.011 29.5213 12.1612C29.3297 12.0185 29.2 11.7907 29.2 11.5202ZM44.3782 43.3083V31.7258H41.0862V33.1787H43.1247C43.456 33.1787 43.7247 33.4473 43.7247 33.7787V43.3083H44.3782ZM43.7247 44.7083H44.3782V44.9403H43.7247V44.7083ZM42.5247 43.3083V34.3787H41.0862V43.3083H42.5247ZM41.0862 44.7083H42.5247V44.9403H41.0862V44.7083ZM39.6862 43.3083V34.3787H30.2571V46.6551H37.6686V44.5083C37.6686 43.8455 38.2058 43.3083 38.8686 43.3083H39.6862ZM29.2571 46.6551V34.3787H20.3137L20.3137 43.3083H21.1314C21.7941 43.3083 22.3314 43.8455 22.3314 44.5083V46.6551H29.2571ZM42.5247 46.5723H39.0686V44.7083H39.6862V45.1403C39.6862 45.8031 40.2235 46.3403 40.8862 46.3403H42.5247V46.5723ZM43.7247 46.5723V46.3403H44.5782C45.2409 46.3403 45.7782 45.8031 45.7782 45.1403V44.7083H46.3959V46.5723H43.7247ZM46.3959 30.3258H45.6107C45.4016 29.9737 45.0175 29.7377 44.5782 29.7377H40.8862C40.4469 29.7377 40.0628 29.9737 39.8537 30.3258H39.0686V28.4618H46.3959V30.3258ZM13.6041 44.7083H14.2217V45.1403C14.2217 45.8031 14.759 46.3403 15.4217 46.3403H16.4037V46.5723H13.6041V44.7083ZM20.9314 44.7083H20.3137V45.1403C20.3137 45.8031 19.7765 46.3403 19.1137 46.3403H17.6037V46.5723H20.9314V44.7083ZM18.9137 34.3787L18.9137 43.3083H17.6037V34.3787H18.9137ZM18.9137 44.7083H17.6037V44.9403H18.9137V44.7083ZM16.4037 44.9403V44.7083H15.6217V44.9403H16.4037ZM15.6217 43.3083H16.4037V33.7787C16.4037 33.4473 16.6723 33.1787 17.0037 33.1787H18.9137V31.7258H15.6217L15.6217 43.3083ZM20.1462 30.3258H20.9314V28.4618H13.6041V30.3258H14.3892C14.5983 29.9737 14.9825 29.7377 15.4217 29.7377H19.1137C19.553 29.7377 19.9371 29.9737 20.1462 30.3258ZM9.15854 49.3551C9.15854 48.6371 9.74057 48.0551 10.4585 48.0551H49.5416C50.2596 48.0551 50.8416 48.6371 50.8416 49.3551V50.6142C50.8416 50.7799 50.7073 50.9142 50.5416 50.9142H9.45854C9.29286 50.9142 9.15854 50.7799 9.15854 50.6142V49.3551Z"/>
</mask>
<path fill-rule="evenodd" clip-rule="evenodd" d="M24.6691 13.414C25.2133 11.2417 27.1785 9.63281 29.5195 9.63281C31.637 9.63281 33.4471 10.9491 34.1761 12.8081L30.3797 10.816C30.1658 10.7003 29.8992 10.6801 29.6514 10.8001L29.6514 10.8001C29.6436 10.8039 29.6359 10.8078 29.6283 10.8118L24.6691 13.414ZM23.5525 13.9999C23.8687 10.9837 26.4196 8.63281 29.5195 8.63281C32.4291 8.63281 34.8549 10.7038 35.4034 13.4521L51.3779 21.8344C51.9704 22.1453 52.3416 22.7592 52.3416 23.4283V24.196C52.3416 25.1901 51.5357 25.996 50.5416 25.996H49.267C49.2751 26.0616 49.2793 26.1283 49.2793 26.1961V26.6793C49.2793 27.5237 48.6251 28.2154 47.7959 28.2751V30.5258C47.7959 31.1886 47.2586 31.7258 46.5959 31.7258H45.7782V43.3083H46.5959C47.2586 43.3083 47.7959 43.8455 47.7959 44.5083V46.6551H49.5416C51.0328 46.6551 52.2416 47.8639 52.2416 49.3551V50.6142C52.2416 51.5531 51.4805 52.3142 50.5416 52.3142H9.45854C8.51966 52.3142 7.75854 51.5531 7.75854 50.6142V49.3551C7.75854 47.8639 8.96738 46.6551 10.4585 46.6551H12.2041V44.5083C12.2041 43.8455 12.7414 43.3083 13.4041 43.3083H14.2217L14.2217 31.7258H13.4041C12.7414 31.7258 12.2041 31.1886 12.2041 30.5258V28.2751C11.3749 28.2153 10.7207 27.5237 10.7207 26.6793V26.1961C10.7207 26.1283 10.7249 26.0616 10.7331 25.996H9.45845C8.46433 25.996 7.65845 25.1901 7.65845 24.196V23.4283C7.65845 22.7592 8.02959 22.1453 8.62208 21.8344L23.5525 13.9999ZM35.4828 15.3006L50.6345 23.2512C50.7003 23.2857 50.7416 23.3539 50.7416 23.4283V24.196C50.7416 24.3065 50.652 24.396 50.5416 24.396H30.0057L30 24.396H9.45845C9.34799 24.396 9.25845 24.3065 9.25845 24.196V23.4283C9.25845 23.3539 9.29969 23.2857 9.36552 23.2512L23.6267 15.7679C24.1573 18.5388 26.5939 20.6328 29.5195 20.6328C32.6075 20.6328 35.1506 18.3 35.4828 15.3006ZM34.517 14.7938C34.432 17.4807 32.2271 19.6328 29.5195 19.6328C26.9767 19.6328 24.8771 17.7345 24.5607 15.2778L30 12.4236L34.517 14.7938ZM11.9742 25.996H29.9943L30 25.996H48.0258C48.0598 26.0549 48.0793 26.1232 48.0793 26.1961V26.6793C48.0793 26.9002 47.9002 27.0793 47.6793 27.0793H46.8007C46.7342 27.0678 46.6657 27.0618 46.5959 27.0618H38.8686C38.7987 27.0618 38.7303 27.0678 38.6637 27.0793H21.3363C21.2697 27.0678 21.2012 27.0618 21.1314 27.0618H13.4041C13.3343 27.0618 13.2658 27.0678 13.1992 27.0793H12.3207C12.0998 27.0793 11.9207 26.9002 11.9207 26.6793V26.1961C11.9207 26.1232 11.9402 26.0549 11.9742 25.996ZM22.3314 28.2793V30.5258C22.3314 31.1886 21.7941 31.7258 21.1314 31.7258H20.3137V33.1787H39.6862V31.7258H38.8686C38.2058 31.7258 37.6686 31.1886 37.6686 30.5258V28.2793H22.3314ZM29.6139 12.2209C29.6207 12.2246 29.6276 12.2283 29.6344 12.2318L29.6283 12.2286L29.6139 12.2209ZM29.2 11.5202C29.2 11.7737 29.3202 12.011 29.5213 12.1612C29.3297 12.0185 29.2 11.7907 29.2 11.5202ZM44.3782 43.3083V31.7258H41.0862V33.1787H43.1247C43.456 33.1787 43.7247 33.4473 43.7247 33.7787V43.3083H44.3782ZM43.7247 44.7083H44.3782V44.9403H43.7247V44.7083ZM42.5247 43.3083V34.3787H41.0862V43.3083H42.5247ZM41.0862 44.7083H42.5247V44.9403H41.0862V44.7083ZM39.6862 43.3083V34.3787H30.2571V46.6551H37.6686V44.5083C37.6686 43.8455 38.2058 43.3083 38.8686 43.3083H39.6862ZM29.2571 46.6551V34.3787H20.3137L20.3137 43.3083H21.1314C21.7941 43.3083 22.3314 43.8455 22.3314 44.5083V46.6551H29.2571ZM42.5247 46.5723H39.0686V44.7083H39.6862V45.1403C39.6862 45.8031 40.2235 46.3403 40.8862 46.3403H42.5247V46.5723ZM43.7247 46.5723V46.3403H44.5782C45.2409 46.3403 45.7782 45.8031 45.7782 45.1403V44.7083H46.3959V46.5723H43.7247ZM46.3959 30.3258H45.6107C45.4016 29.9737 45.0175 29.7377 44.5782 29.7377H40.8862C40.4469 29.7377 40.0628 29.9737 39.8537 30.3258H39.0686V28.4618H46.3959V30.3258ZM13.6041 44.7083H14.2217V45.1403C14.2217 45.8031 14.759 46.3403 15.4217 46.3403H16.4037V46.5723H13.6041V44.7083ZM20.9314 44.7083H20.3137V45.1403C20.3137 45.8031 19.7765 46.3403 19.1137 46.3403H17.6037V46.5723H20.9314V44.7083ZM18.9137 34.3787L18.9137 43.3083H17.6037V34.3787H18.9137ZM18.9137 44.7083H17.6037V44.9403H18.9137V44.7083ZM16.4037 44.9403V44.7083H15.6217V44.9403H16.4037ZM15.6217 43.3083H16.4037V33.7787C16.4037 33.4473 16.6723 33.1787 17.0037 33.1787H18.9137V31.7258H15.6217L15.6217 43.3083ZM20.1462 30.3258H20.9314V28.4618H13.6041V30.3258H14.3892C14.5983 29.9737 14.9825 29.7377 15.4217 29.7377H19.1137C19.553 29.7377 19.9371 29.9737 20.1462 30.3258ZM9.15854 49.3551C9.15854 48.6371 9.74057 48.0551 10.4585 48.0551H49.5416C50.2596 48.0551 50.8416 48.6371 50.8416 49.3551V50.6142C50.8416 50.7799 50.7073 50.9142 50.5416 50.9142H9.45854C9.29286 50.9142 9.15854 50.7799 9.15854 50.6142V49.3551Z" fill="#F8F9FA"/>
<path d="M24.6691 13.414L23.2141 13.0495C23.0704 13.623 23.2771 14.2275 23.7418 14.593C24.2065 14.9585 24.8426 15.017 25.3661 14.7422L24.6691 13.414ZM34.1761 12.8081L33.4791 14.1363C34.0337 14.4273 34.7107 14.3431 35.1771 13.9252C35.6436 13.5072 35.8012 12.8435 35.5726 12.2604L34.1761 12.8081ZM30.3797 10.816L29.6663 12.1355C29.6718 12.1384 29.6772 12.1413 29.6827 12.1442L30.3797 10.816ZM29.6514 10.8001L28.9977 9.45005C28.9856 9.45592 28.9736 9.46195 28.9616 9.46814L29.6514 10.8001ZM29.6514 10.8001L30.305 12.1502C30.3171 12.1444 30.3292 12.1383 30.3412 12.1321L29.6514 10.8001ZM29.6283 10.8118L30.3252 12.14L30.3252 12.14L29.6283 10.8118ZM23.5525 13.9999L24.2495 15.3282C24.6937 15.0951 24.992 14.6553 25.0443 14.1563L23.5525 13.9999ZM35.4034 13.4521L33.9324 13.7456C34.021 14.1897 34.3055 14.5699 34.7064 14.7803L35.4034 13.4521ZM51.3779 21.8344L52.0749 20.5061L52.0749 20.5061L51.3779 21.8344ZM49.267 25.996V24.496C48.8368 24.496 48.4273 24.6807 48.1426 25.0032C47.8578 25.3257 47.7252 25.7548 47.7785 26.1817L49.267 25.996ZM47.7959 28.2751L47.6882 26.7789C46.9036 26.8354 46.2959 27.4884 46.2959 28.2751H47.7959ZM45.7782 31.7258V30.2258C44.9498 30.2258 44.2782 30.8974 44.2782 31.7258H45.7782ZM45.7782 43.3083H44.2782C44.2782 44.1367 44.9498 44.8083 45.7782 44.8083V43.3083ZM47.7959 46.6551H46.2959C46.2959 47.4835 46.9674 48.1551 47.7959 48.1551V46.6551ZM12.2041 46.6551V48.1551C13.0325 48.1551 13.7041 47.4835 13.7041 46.6551H12.2041ZM14.2217 43.3083V44.8083C15.0502 44.8083 15.7217 44.1367 15.7217 43.3083L14.2217 43.3083ZM14.2217 31.7258L15.7217 31.7258C15.7217 31.328 15.5637 30.9465 15.2824 30.6652C15.0011 30.3839 14.6196 30.2258 14.2217 30.2258V31.7258ZM12.2041 28.2751H13.7041C13.7041 27.4884 13.0964 26.8354 12.3119 26.7789L12.2041 28.2751ZM10.7331 25.996L12.2216 26.1817C12.2748 25.7548 12.1422 25.3256 11.8575 25.0032C11.5727 24.6807 11.1633 24.496 10.7331 24.496V25.996ZM8.62208 21.8344L9.31905 23.1626L8.62208 21.8344ZM35.4828 15.3006L36.1798 13.9724C35.7408 13.742 35.2164 13.7434 34.7787 13.9762C34.3409 14.2089 34.0465 14.6428 33.9919 15.1355L35.4828 15.3006ZM50.6345 23.2512L51.3315 21.9229L51.3315 21.9229L50.6345 23.2512ZM30.0057 24.396L30.0004 25.896H30.0057V24.396ZM30 24.396L30.0052 22.896H30V24.396ZM9.36552 23.2512L8.66855 21.9229L8.66854 21.9229L9.36552 23.2512ZM23.6267 15.7679L25.1 15.4858C25.0107 15.0194 24.7058 14.6229 24.2781 14.4167C23.8504 14.2105 23.3502 14.219 22.9298 14.4396L23.6267 15.7679ZM34.517 14.7938L36.0162 14.8413C36.0344 14.2669 35.7228 13.7326 35.214 13.4656L34.517 14.7938ZM24.5607 15.2778L23.8638 13.9495C23.3083 14.241 22.9929 14.8472 23.073 15.4694L24.5607 15.2778ZM30 12.4236L30.697 11.0954C30.2605 10.8664 29.7394 10.8664 29.303 11.0954L30 12.4236ZM29.9943 25.996L29.9993 24.496H29.9943V25.996ZM11.9742 25.996V24.496C11.4389 24.496 10.9441 24.7813 10.676 25.2447L11.9742 25.996ZM30 25.996L29.995 27.496H30V25.996ZM48.0258 25.996L49.3241 25.2448C49.056 24.7814 48.5612 24.496 48.0258 24.496V25.996ZM46.8007 27.0793L46.5464 28.5575C46.6304 28.572 46.7155 28.5793 46.8007 28.5793V27.0793ZM38.6637 27.0793V28.5793C38.7489 28.5793 38.834 28.572 38.918 28.5575L38.6637 27.0793ZM21.3363 27.0793L21.082 28.5575C21.166 28.572 21.251 28.5793 21.3363 28.5793V27.0793ZM13.1992 27.0793V28.5793C13.2844 28.5793 13.3695 28.572 13.4535 28.5575L13.1992 27.0793ZM22.3314 28.2793V26.7793C21.503 26.7793 20.8314 27.4508 20.8314 28.2793H22.3314ZM20.3137 31.7258V30.2258C19.4853 30.2258 18.8137 30.8974 18.8137 31.7258H20.3137ZM20.3137 33.1787H18.8137C18.8137 34.0071 19.4853 34.6787 20.3137 34.6787V33.1787ZM39.6862 33.1787V34.6787C40.5146 34.6787 41.1862 34.0071 41.1862 33.1787H39.6862ZM39.6862 31.7258H41.1862C41.1862 30.8974 40.5146 30.2258 39.6862 30.2258V31.7258ZM37.6686 28.2793H39.1686C39.1686 27.4508 38.497 26.7793 37.6686 26.7793V28.2793ZM29.6344 12.2318L28.9471 13.565C29.6815 13.9437 30.5839 13.6571 30.9652 12.924C31.3465 12.1909 31.0631 11.2875 30.3314 10.9036L29.6344 12.2318ZM29.6139 12.2209L30.3242 10.8997C29.5974 10.509 28.6916 10.7786 28.2968 11.5032C27.902 12.2278 28.1665 13.1351 28.8889 13.534L29.6139 12.2209ZM29.6283 12.2286L28.9181 13.5498C28.9225 13.5522 28.9269 13.5545 28.9314 13.5569L29.6283 12.2286ZM30.7 11.5202C30.7 10.6918 30.0285 10.0202 29.2 10.0202C28.3716 10.0202 27.7 10.6918 27.7 11.5202H30.7ZM29.5213 12.1612L28.6253 13.3642C29.2895 13.8588 30.2288 13.7217 30.7238 13.0578C31.2188 12.394 31.0822 11.4546 30.4186 10.9592L29.5213 12.1612ZM44.3782 31.7258H45.8782C45.8782 30.8974 45.2066 30.2258 44.3782 30.2258V31.7258ZM44.3782 43.3083V44.8083C45.2066 44.8083 45.8782 44.1367 45.8782 43.3083H44.3782ZM41.0862 31.7258V30.2258C40.2578 30.2258 39.5862 30.8974 39.5862 31.7258H41.0862ZM41.0862 33.1787H39.5862C39.5862 34.0071 40.2578 34.6787 41.0862 34.6787V33.1787ZM43.7247 43.3083H42.2247C42.2247 44.1367 42.8962 44.8083 43.7247 44.8083V43.3083ZM44.3782 44.7083H45.8782C45.8782 43.8799 45.2066 43.2083 44.3782 43.2083V44.7083ZM43.7247 44.7083V43.2083C42.8962 43.2083 42.2247 43.8799 42.2247 44.7083H43.7247ZM44.3782 44.9403V46.4403C45.2066 46.4403 45.8782 45.7688 45.8782 44.9403H44.3782ZM43.7247 44.9403H42.2247C42.2247 45.7688 42.8962 46.4403 43.7247 46.4403V44.9403ZM42.5247 34.3787H44.0247C44.0247 33.5503 43.3531 32.8787 42.5247 32.8787V34.3787ZM42.5247 43.3083V44.8083C43.3531 44.8083 44.0247 44.1367 44.0247 43.3083H42.5247ZM41.0862 34.3787V32.8787C40.2578 32.8787 39.5862 33.5503 39.5862 34.3787H41.0862ZM41.0862 43.3083H39.5862C39.5862 44.1367 40.2578 44.8083 41.0862 44.8083V43.3083ZM42.5247 44.7083H44.0247C44.0247 43.8799 43.3531 43.2083 42.5247 43.2083V44.7083ZM41.0862 44.7083V43.2083C40.2578 43.2083 39.5862 43.8799 39.5862 44.7083H41.0862ZM42.5247 44.9403V46.4403C43.3531 46.4403 44.0247 45.7688 44.0247 44.9403H42.5247ZM41.0862 44.9403H39.5862C39.5862 45.7688 40.2578 46.4403 41.0862 46.4403V44.9403ZM39.6862 34.3787H41.1862C41.1862 33.5503 40.5146 32.8787 39.6862 32.8787V34.3787ZM39.6862 43.3083V44.8083C40.5146 44.8083 41.1862 44.1367 41.1862 43.3083H39.6862ZM30.2571 34.3787V32.8787C29.4287 32.8787 28.7571 33.5503 28.7571 34.3787H30.2571ZM30.2571 46.6551H28.7571C28.7571 47.4835 29.4287 48.1551 30.2571 48.1551V46.6551ZM37.6686 46.6551V48.1551C38.497 48.1551 39.1686 47.4835 39.1686 46.6551H37.6686ZM29.2571 34.3787H30.7571C30.7571 33.5503 30.0855 32.8787 29.2571 32.8787V34.3787ZM29.2571 46.6551V48.1551C30.0855 48.1551 30.7571 47.4835 30.7571 46.6551H29.2571ZM20.3137 34.3787V32.8787C19.4853 32.8787 18.8137 33.5503 18.8137 34.3787L20.3137 34.3787ZM20.3137 43.3083L18.8137 43.3083C18.8137 43.7061 18.9718 44.0876 19.2531 44.3689C19.5344 44.6503 19.9159 44.8083 20.3137 44.8083V43.3083ZM22.3314 46.6551H20.8314C20.8314 47.4835 21.503 48.1551 22.3314 48.1551V46.6551ZM39.0686 46.5723H37.5686C37.5686 47.4007 38.2402 48.0723 39.0686 48.0723V46.5723ZM42.5247 46.5723V48.0723C43.3531 48.0723 44.0247 47.4007 44.0247 46.5723H42.5247ZM39.0686 44.7083V43.2083C38.2402 43.2083 37.5686 43.8799 37.5686 44.7083H39.0686ZM39.6862 44.7083H41.1862C41.1862 43.8799 40.5146 43.2083 39.6862 43.2083V44.7083ZM42.5247 46.3403H44.0247C44.0247 45.5119 43.3531 44.8403 42.5247 44.8403V46.3403ZM43.7247 46.3403V44.8403C42.8962 44.8403 42.2247 45.5119 42.2247 46.3403H43.7247ZM43.7247 46.5723H42.2247C42.2247 47.4007 42.8962 48.0723 43.7247 48.0723V46.5723ZM45.7782 44.7083V43.2083C44.9498 43.2083 44.2782 43.8799 44.2782 44.7083H45.7782ZM46.3959 44.7083H47.8959C47.8959 43.8799 47.2243 43.2083 46.3959 43.2083V44.7083ZM46.3959 46.5723V48.0723C47.2243 48.0723 47.8959 47.4007 47.8959 46.5723H46.3959ZM45.6107 30.3258L44.321 31.0917C44.5913 31.5469 45.0814 31.8258 45.6107 31.8258V30.3258ZM46.3959 30.3258V31.8258C47.2243 31.8258 47.8959 31.1543 47.8959 30.3258H46.3959ZM39.8537 30.3258V31.8258C40.383 31.8258 40.8731 31.5469 41.1434 31.0917L39.8537 30.3258ZM39.0686 30.3258H37.5686C37.5686 31.1543 38.2402 31.8258 39.0686 31.8258V30.3258ZM39.0686 28.4618V26.9618C38.2402 26.9618 37.5686 27.6334 37.5686 28.4618H39.0686ZM46.3959 28.4618H47.8959C47.8959 27.6334 47.2243 26.9618 46.3959 26.9618V28.4618ZM14.2217 44.7083H15.7217C15.7217 43.8799 15.0502 43.2083 14.2217 43.2083V44.7083ZM13.6041 44.7083V43.2083C12.7757 43.2083 12.1041 43.8799 12.1041 44.7083H13.6041ZM14.2217 45.1403L15.7217 45.1403V45.1403H14.2217ZM16.4037 46.3403H17.9037C17.9037 45.5119 17.2321 44.8403 16.4037 44.8403V46.3403ZM16.4037 46.5723V48.0723C17.2321 48.0723 17.9037 47.4007 17.9037 46.5723H16.4037ZM13.6041 46.5723H12.1041C12.1041 47.4007 12.7757 48.0723 13.6041 48.0723V46.5723ZM20.3137 44.7083V43.2083C19.4853 43.2083 18.8137 43.8799 18.8137 44.7083H20.3137ZM20.9314 44.7083H22.4314C22.4314 43.8799 21.7598 43.2083 20.9314 43.2083V44.7083ZM17.6037 46.3403V44.8403C16.7753 44.8403 16.1037 45.5119 16.1037 46.3403H17.6037ZM17.6037 46.5723H16.1037C16.1037 47.4007 16.7753 48.0723 17.6037 48.0723V46.5723ZM20.9314 46.5723V48.0723C21.7598 48.0723 22.4314 47.4007 22.4314 46.5723H20.9314ZM18.9137 43.3083V44.8083C19.7421 44.8083 20.4137 44.1367 20.4137 43.3083L18.9137 43.3083ZM18.9137 34.3787L20.4137 34.3787C20.4137 33.9809 20.2557 33.5994 19.9744 33.3181C19.6931 33.0367 19.3115 32.8787 18.9137 32.8787V34.3787ZM17.6037 43.3083H16.1037C16.1037 44.1367 16.7753 44.8083 17.6037 44.8083V43.3083ZM17.6037 34.3787V32.8787C16.7753 32.8787 16.1037 33.5503 16.1037 34.3787H17.6037ZM17.6037 44.7083V43.2083C16.7753 43.2083 16.1037 43.8799 16.1037 44.7083H17.6037ZM18.9137 44.7083H20.4137C20.4137 43.8799 19.7421 43.2083 18.9137 43.2083V44.7083ZM17.6037 44.9403H16.1037C16.1037 45.7688 16.7753 46.4403 17.6037 46.4403V44.9403ZM18.9137 44.9403V46.4403C19.7421 46.4403 20.4137 45.7688 20.4137 44.9403H18.9137ZM16.4037 44.7083H17.9037C17.9037 43.8799 17.2321 43.2083 16.4037 43.2083V44.7083ZM16.4037 44.9403V46.4403C17.2321 46.4403 17.9037 45.7688 17.9037 44.9403H16.4037ZM15.6217 44.7083V43.2083C14.7933 43.2083 14.1217 43.8799 14.1217 44.7083H15.6217ZM15.6217 44.9403H14.1217C14.1217 45.7688 14.7933 46.4403 15.6217 46.4403V44.9403ZM16.4037 43.3083V44.8083C17.2321 44.8083 17.9037 44.1367 17.9037 43.3083H16.4037ZM15.6217 43.3083L14.1217 43.3083C14.1217 43.7061 14.2798 44.0876 14.5611 44.3689C14.8424 44.6503 15.2239 44.8083 15.6217 44.8083V43.3083ZM18.9137 33.1787V34.6787C19.7421 34.6787 20.4137 34.0071 20.4137 33.1787H18.9137ZM18.9137 31.7258H20.4137C20.4137 30.8974 19.7421 30.2258 18.9137 30.2258V31.7258ZM15.6217 31.7258V30.2258C14.7933 30.2258 14.1217 30.8974 14.1217 31.7258L15.6217 31.7258ZM20.9314 30.3258V31.8258C21.7598 31.8258 22.4314 31.1543 22.4314 30.3258H20.9314ZM20.1462 30.3258L18.8565 31.0917C19.1268 31.5469 19.6169 31.8258 20.1462 31.8258V30.3258ZM20.9314 28.4618H22.4314C22.4314 27.6334 21.7598 26.9618 20.9314 26.9618V28.4618ZM13.6041 28.4618V26.9618C12.7757 26.9618 12.1041 27.6334 12.1041 28.4618H13.6041ZM13.6041 30.3258H12.1041C12.1041 31.1543 12.7757 31.8258 13.6041 31.8258V30.3258ZM14.3892 30.3258V31.8258C14.9185 31.8258 15.4087 31.5469 15.6789 31.0917L14.3892 30.3258ZM29.5195 8.13281C26.4742 8.13281 23.9214 10.2257 23.2141 13.0495L26.1242 13.7785C26.5051 12.2576 27.8828 11.1328 29.5195 11.1328V8.13281ZM35.5726 12.2604C34.6258 9.84636 32.2746 8.13281 29.5195 8.13281V11.1328C30.9994 11.1328 32.2683 12.0518 32.7797 13.3557L35.5726 12.2604ZM29.6827 12.1442L33.4791 14.1363L34.8731 11.4798L31.0767 9.48773L29.6827 12.1442ZM30.305 12.1502C30.0911 12.2538 29.8489 12.2342 29.6663 12.1355L31.0931 9.49647C30.4827 9.16647 29.7073 9.10649 28.9977 9.45005L30.305 12.1502ZM30.3412 12.1321L30.3412 12.1321L28.9616 9.46814L28.9616 9.46815L30.3412 12.1321ZM30.3252 12.14C30.3185 12.1436 30.3118 12.147 30.305 12.1502L28.9977 9.45005C28.9754 9.46084 28.9533 9.47201 28.9313 9.48354L30.3252 12.14ZM25.3661 14.7422L30.3252 12.14L28.9313 9.48354L23.9722 12.0857L25.3661 14.7422ZM25.0443 14.1563C25.2813 11.8958 27.1955 10.1328 29.5195 10.1328V7.13281C25.6436 7.13281 22.4561 10.0717 22.0607 13.8435L25.0443 14.1563ZM29.5195 10.1328C31.7 10.1328 33.5212 11.6851 33.9324 13.7456L36.8744 13.1585C36.1887 9.72247 33.1582 7.13281 29.5195 7.13281V10.1328ZM34.7064 14.7803L50.681 23.1626L52.0749 20.5061L36.1004 12.1238L34.7064 14.7803ZM50.681 23.1626C50.7797 23.2144 50.8416 23.3168 50.8416 23.4283H53.8416C53.8416 22.2016 53.1611 21.0761 52.0749 20.5061L50.681 23.1626ZM50.8416 23.4283V24.196H53.8416V23.4283H50.8416ZM50.8416 24.196C50.8416 24.3617 50.7073 24.496 50.5416 24.496V27.496C52.3641 27.496 53.8416 26.0186 53.8416 24.196H50.8416ZM50.5416 24.496H49.267V27.496H50.5416V24.496ZM47.7785 26.1817C47.779 26.1857 47.7793 26.1905 47.7793 26.1961H50.7793C50.7793 26.0662 50.7713 25.9374 50.7554 25.8103L47.7785 26.1817ZM47.7793 26.1961V26.6793H50.7793V26.1961H47.7793ZM47.7793 26.6793C47.7793 26.7314 47.7385 26.7753 47.6882 26.7789L47.9036 29.7712C49.5117 29.6555 50.7793 28.3161 50.7793 26.6793H47.7793ZM46.2959 28.2751V30.5258H49.2959V28.2751H46.2959ZM46.2959 30.5258C46.2959 30.3602 46.4302 30.2258 46.5959 30.2258V33.2258C48.087 33.2258 49.2959 32.017 49.2959 30.5258H46.2959ZM46.5959 30.2258H45.7782V33.2258H46.5959V30.2258ZM44.2782 31.7258V43.3083H47.2782V31.7258H44.2782ZM45.7782 44.8083H46.5959V41.8083H45.7782V44.8083ZM46.5959 44.8083C46.4302 44.8083 46.2959 44.674 46.2959 44.5083H49.2959C49.2959 43.0171 48.087 41.8083 46.5959 41.8083V44.8083ZM46.2959 44.5083V46.6551H49.2959V44.5083H46.2959ZM47.7959 48.1551H49.5416V45.1551H47.7959V48.1551ZM49.5416 48.1551C50.2044 48.1551 50.7416 48.6923 50.7416 49.3551H53.7416C53.7416 47.0355 51.8612 45.1551 49.5416 45.1551V48.1551ZM50.7416 49.3551V50.6142H53.7416V49.3551H50.7416ZM50.7416 50.6142C50.7416 50.7246 50.6521 50.8142 50.5416 50.8142V53.8142C52.3089 53.8142 53.7416 52.3815 53.7416 50.6142H50.7416ZM50.5416 50.8142H9.45854V53.8142H50.5416V50.8142ZM9.45854 50.8142C9.34809 50.8142 9.25854 50.7246 9.25854 50.6142H6.25854C6.25854 52.3815 7.69123 53.8142 9.45854 53.8142V50.8142ZM9.25854 50.6142V49.3551H6.25854V50.6142H9.25854ZM9.25854 49.3551C9.25854 48.6923 9.7958 48.1551 10.4585 48.1551V45.1551C8.13895 45.1551 6.25854 47.0355 6.25854 49.3551H9.25854ZM10.4585 48.1551H12.2041V45.1551H10.4585V48.1551ZM13.7041 46.6551V44.5083H10.7041V46.6551H13.7041ZM13.7041 44.5083C13.7041 44.674 13.5698 44.8083 13.4041 44.8083V41.8083C11.9129 41.8083 10.7041 43.0171 10.7041 44.5083H13.7041ZM13.4041 44.8083H14.2217V41.8083H13.4041V44.8083ZM15.7217 43.3083L15.7217 31.7258L12.7217 31.7258L12.7217 43.3083L15.7217 43.3083ZM14.2217 30.2258H13.4041V33.2258H14.2217V30.2258ZM13.4041 30.2258C13.5698 30.2258 13.7041 30.3602 13.7041 30.5258H10.7041C10.7041 32.017 11.9129 33.2258 13.4041 33.2258V30.2258ZM13.7041 30.5258V28.2751H10.7041V30.5258H13.7041ZM12.3119 26.7789C12.2615 26.7753 12.2207 26.7314 12.2207 26.6793H9.2207C9.2207 28.316 10.4882 29.6554 12.0963 29.7712L12.3119 26.7789ZM12.2207 26.6793V26.1961H9.2207V26.6793H12.2207ZM12.2207 26.1961C12.2207 26.1905 12.221 26.1858 12.2216 26.1817L9.24462 25.8104C9.22879 25.9373 9.2207 26.0661 9.2207 26.1961H12.2207ZM10.7331 24.496H9.45845V27.496H10.7331V24.496ZM9.45845 24.496C9.29276 24.496 9.15845 24.3617 9.15845 24.196H6.15845C6.15845 26.0185 7.6359 27.496 9.45845 27.496V24.496ZM9.15845 24.196V23.4283H6.15845V24.196H9.15845ZM9.15845 23.4283C9.15845 23.3167 9.2203 23.2144 9.31905 23.1626L7.92511 20.5061C6.83888 21.0761 6.15845 22.2016 6.15845 23.4283H9.15845ZM9.31905 23.1626L24.2495 15.3282L22.8555 12.6717L7.92511 20.5061L9.31905 23.1626ZM34.7858 16.6289L49.9375 24.5794L51.3315 21.9229L36.1798 13.9724L34.7858 16.6289ZM49.9375 24.5794C49.5097 24.3549 49.2416 23.9116 49.2416 23.4283H52.2416C52.2416 22.7963 51.891 22.2166 51.3315 21.9229L49.9375 24.5794ZM49.2416 23.4283V24.196H52.2416V23.4283H49.2416ZM49.2416 24.196C49.2416 23.4781 49.8236 22.896 50.5416 22.896V25.896C51.4805 25.896 52.2416 25.1349 52.2416 24.196H49.2416ZM50.5416 22.896H30.0057V25.896H50.5416V22.896ZM30.011 22.896L30.0052 22.896L29.9947 25.896L30.0004 25.896L30.011 22.896ZM30 22.896H9.45845V25.896H30V22.896ZM9.45845 22.896C10.1764 22.896 10.7584 23.478 10.7584 24.196H7.75845C7.75845 25.1349 8.51956 25.896 9.45845 25.896V22.896ZM10.7584 24.196V23.4283H7.75845V24.196H10.7584ZM10.7584 23.4283C10.7584 23.9115 10.4904 24.3549 10.0625 24.5794L8.66854 21.9229C8.10898 22.2165 7.75845 22.7963 7.75845 23.4283H10.7584ZM10.0625 24.5794L24.3237 17.0961L22.9298 14.4396L8.66855 21.9229L10.0625 24.5794ZM29.5195 19.1328C27.327 19.1328 25.4977 17.5632 25.1 15.4858L22.1535 16.0499C22.8169 19.5145 25.8608 22.1328 29.5195 22.1328V19.1328ZM33.9919 15.1355C33.743 17.3835 31.8345 19.1328 29.5195 19.1328V22.1328C33.3805 22.1328 36.5583 19.2166 36.9737 15.4657L33.9919 15.1355ZM29.5195 21.1328C33.0396 21.1328 35.9057 18.3351 36.0162 14.8413L33.0177 14.7464C32.9583 16.6263 31.4145 18.1328 29.5195 18.1328V21.1328ZM23.073 15.4694C23.4845 18.6647 26.2126 21.1328 29.5195 21.1328V18.1328C27.7407 18.1328 26.2697 16.8044 26.0485 15.0862L23.073 15.4694ZM25.2577 16.606L30.697 13.7519L29.303 11.0954L23.8638 13.9495L25.2577 16.606ZM29.303 13.7519L33.82 16.1221L35.214 13.4656L30.697 11.0954L29.303 13.7519ZM29.9943 24.496H11.9742V27.496H29.9943V24.496ZM30.005 24.496L29.9993 24.496L29.9893 27.496L29.995 27.496L30.005 24.496ZM48.0258 24.496H30V27.496H48.0258V24.496ZM49.5793 26.1961C49.5793 25.8524 49.4867 25.5258 49.3241 25.2448L46.7275 26.7472C46.633 26.5839 46.5793 26.394 46.5793 26.1961H49.5793ZM49.5793 26.6793V26.1961H46.5793V26.6793H49.5793ZM47.6793 28.5793C48.7287 28.5793 49.5793 27.7286 49.5793 26.6793H46.5793C46.5793 26.0717 47.0718 25.5793 47.6793 25.5793V28.5793ZM46.8007 28.5793H47.6793V25.5793H46.8007V28.5793ZM46.5959 28.5618C46.5801 28.5618 46.5635 28.5605 46.5464 28.5575L47.055 25.601C46.9048 25.5751 46.7513 25.5618 46.5959 25.5618V28.5618ZM38.8686 28.5618H46.5959V25.5618H38.8686V28.5618ZM38.918 28.5575C38.9009 28.5605 38.8843 28.5618 38.8686 28.5618V25.5618C38.7131 25.5618 38.5596 25.5751 38.4094 25.601L38.918 28.5575ZM21.3363 28.5793H38.6637V25.5793H21.3363V28.5793ZM21.1314 28.5618C21.1156 28.5618 21.099 28.5605 21.082 28.5575L21.5906 25.601C21.4404 25.5751 21.2868 25.5618 21.1314 25.5618V28.5618ZM13.4041 28.5618H21.1314V25.5618H13.4041V28.5618ZM13.4535 28.5575C13.4365 28.5605 13.4198 28.5618 13.4041 28.5618V25.5618C13.2487 25.5618 13.0951 25.5751 12.9449 25.601L13.4535 28.5575ZM12.3207 28.5793H13.1992V25.5793H12.3207V28.5793ZM10.4207 26.6793C10.4207 27.7286 11.2714 28.5793 12.3207 28.5793V25.5793C12.9282 25.5793 13.4207 26.0717 13.4207 26.6793H10.4207ZM10.4207 26.1961V26.6793H13.4207V26.1961H10.4207ZM10.676 25.2447C10.5133 25.5258 10.4207 25.8524 10.4207 26.1961H13.4207C13.4207 26.394 13.3671 26.584 13.2725 26.7473L10.676 25.2447ZM23.8314 30.5258V28.2793H20.8314V30.5258H23.8314ZM21.1314 33.2258C22.6226 33.2258 23.8314 32.017 23.8314 30.5258H20.8314C20.8314 30.3602 20.9657 30.2258 21.1314 30.2258V33.2258ZM20.3137 33.2258H21.1314V30.2258H20.3137V33.2258ZM21.8137 33.1787V31.7258H18.8137V33.1787H21.8137ZM39.6862 31.6787H20.3137V34.6787H39.6862V31.6787ZM38.1862 31.7258V33.1787H41.1862V31.7258H38.1862ZM38.8686 33.2258H39.6862V30.2258H38.8686V33.2258ZM36.1686 30.5258C36.1686 32.017 37.3774 33.2258 38.8686 33.2258V30.2258C39.0343 30.2258 39.1686 30.3602 39.1686 30.5258H36.1686ZM36.1686 28.2793V30.5258H39.1686V28.2793H36.1686ZM22.3314 29.7793H37.6686V26.7793H22.3314V29.7793ZM30.3218 10.8986C30.3276 10.9016 30.3334 10.9046 30.339 10.9078L28.8889 13.534C28.9081 13.5446 28.9275 13.555 28.9471 13.565L30.3218 10.8986ZM28.9314 13.5569L28.9375 13.5601L30.3314 10.9036L30.3253 10.9003L28.9314 13.5569ZM28.9037 13.5421L28.9181 13.5498L30.3386 10.9074L30.3242 10.8997L28.9037 13.5421ZM27.7 11.5202C27.7 12.249 28.0452 12.9311 28.6239 13.3631L30.4186 10.9592C30.5951 11.091 30.7 11.2984 30.7 11.5202H27.7ZM30.4172 10.9581C30.5814 11.0804 30.7 11.2872 30.7 11.5202H27.7C27.7 12.2941 28.078 12.9566 28.6253 13.3642L30.4172 10.9581ZM42.8782 31.7258V43.3083H45.8782V31.7258H42.8782ZM41.0862 33.2258H44.3782V30.2258H41.0862V33.2258ZM42.5862 33.1787V31.7258H39.5862V33.1787H42.5862ZM43.1247 31.6787H41.0862V34.6787H43.1247V31.6787ZM45.2247 33.7787C45.2247 32.6189 44.2845 31.6787 43.1247 31.6787V34.6787C42.6276 34.6787 42.2247 34.2758 42.2247 33.7787H45.2247ZM45.2247 43.3083V33.7787H42.2247V43.3083H45.2247ZM44.3782 41.8083H43.7247V44.8083H44.3782V41.8083ZM44.3782 43.2083H43.7247V46.2083H44.3782V43.2083ZM45.8782 44.9403V44.7083H42.8782V44.9403H45.8782ZM43.7247 46.4403H44.3782V43.4403H43.7247V46.4403ZM42.2247 44.7083V44.9403H45.2247V44.7083H42.2247ZM41.0247 34.3787V43.3083H44.0247V34.3787H41.0247ZM41.0862 35.8787H42.5247V32.8787H41.0862V35.8787ZM42.5862 43.3083V34.3787H39.5862V43.3083H42.5862ZM42.5247 41.8083H41.0862V44.8083H42.5247V41.8083ZM42.5247 43.2083H41.0862V46.2083H42.5247V43.2083ZM44.0247 44.9403V44.7083H41.0247V44.9403H44.0247ZM41.0862 46.4403H42.5247V43.4403H41.0862V46.4403ZM39.5862 44.7083V44.9403H42.5862V44.7083H39.5862ZM38.1862 34.3787V43.3083H41.1862V34.3787H38.1862ZM30.2571 35.8787H39.6862V32.8787H30.2571V35.8787ZM31.7571 46.6551V34.3787H28.7571V46.6551H31.7571ZM37.6686 45.1551H30.2571V48.1551H37.6686V45.1551ZM36.1686 44.5083V46.6551H39.1686V44.5083H36.1686ZM38.8686 41.8083C37.3774 41.8083 36.1686 43.0171 36.1686 44.5083H39.1686C39.1686 44.674 39.0343 44.8083 38.8686 44.8083V41.8083ZM39.6862 41.8083H38.8686V44.8083H39.6862V41.8083ZM27.7571 34.3787V46.6551H30.7571V34.3787H27.7571ZM20.3137 35.8787H29.2571V32.8787H20.3137V35.8787ZM21.8137 43.3083L21.8137 34.3787L18.8137 34.3787L18.8137 43.3083L21.8137 43.3083ZM21.1314 41.8083H20.3137V44.8083H21.1314V41.8083ZM23.8314 44.5083C23.8314 43.0171 22.6226 41.8083 21.1314 41.8083V44.8083C20.9657 44.8083 20.8314 44.674 20.8314 44.5083H23.8314ZM23.8314 46.6551V44.5083H20.8314V46.6551H23.8314ZM29.2571 45.1551H22.3314V48.1551H29.2571V45.1551ZM39.0686 48.0723H42.5247V45.0723H39.0686V48.0723ZM37.5686 44.7083V46.5723H40.5686V44.7083H37.5686ZM39.6862 43.2083H39.0686V46.2083H39.6862V43.2083ZM41.1862 45.1403V44.7083H38.1862V45.1403H41.1862ZM40.8862 44.8403C41.0519 44.8403 41.1862 44.9746 41.1862 45.1403H38.1862C38.1862 46.6315 39.395 47.8403 40.8862 47.8403V44.8403ZM42.5247 44.8403H40.8862V47.8403H42.5247V44.8403ZM44.0247 46.5723V46.3403H41.0247V46.5723H44.0247ZM42.2247 46.3403V46.5723H45.2247V46.3403H42.2247ZM44.5782 44.8403H43.7247V47.8403H44.5782V44.8403ZM44.2782 45.1403C44.2782 44.9746 44.4125 44.8403 44.5782 44.8403V47.8403C46.0694 47.8403 47.2782 46.6315 47.2782 45.1403H44.2782ZM44.2782 44.7083V45.1403H47.2782V44.7083H44.2782ZM46.3959 43.2083H45.7782V46.2083H46.3959V43.2083ZM47.8959 46.5723V44.7083H44.8959V46.5723H47.8959ZM43.7247 48.0723H46.3959V45.0723H43.7247V48.0723ZM45.6107 31.8258H46.3959V28.8258H45.6107V31.8258ZM44.5782 31.2377C44.4666 31.2377 44.3709 31.1758 44.321 31.0917L46.9005 29.5599C46.4323 28.7715 45.5684 28.2377 44.5782 28.2377V31.2377ZM40.8862 31.2377H44.5782V28.2377H40.8862V31.2377ZM41.1434 31.0917C41.0935 31.1758 40.9978 31.2377 40.8862 31.2377V28.2377C39.896 28.2377 39.0321 28.7715 38.5639 29.5599L41.1434 31.0917ZM39.0686 31.8258H39.8537V28.8258H39.0686V31.8258ZM37.5686 28.4618V30.3258H40.5686V28.4618H37.5686ZM46.3959 26.9618H39.0686V29.9618H46.3959V26.9618ZM47.8959 30.3258V28.4618H44.8959V30.3258H47.8959ZM14.2217 43.2083H13.6041V46.2083H14.2217V43.2083ZM15.7217 45.1403V44.7083H12.7217V45.1403H15.7217ZM15.4217 44.8403C15.5874 44.8403 15.7217 44.9746 15.7217 45.1403L12.7217 45.1403C12.7217 46.6315 13.9306 47.8403 15.4217 47.8403V44.8403ZM16.4037 44.8403H15.4217V47.8403H16.4037V44.8403ZM17.9037 46.5723V46.3403H14.9037V46.5723H17.9037ZM13.6041 48.0723H16.4037V45.0723H13.6041V48.0723ZM12.1041 44.7083V46.5723H15.1041V44.7083H12.1041ZM20.3137 46.2083H20.9314V43.2083H20.3137V46.2083ZM21.8137 45.1403V44.7083H18.8137V45.1403H21.8137ZM19.1137 47.8403C20.6049 47.8403 21.8137 46.6315 21.8137 45.1403H18.8137C18.8137 44.9746 18.948 44.8403 19.1137 44.8403V47.8403ZM17.6037 47.8403H19.1137V44.8403H17.6037V47.8403ZM19.1037 46.5723V46.3403H16.1037V46.5723H19.1037ZM20.9314 45.0723H17.6037V48.0723H20.9314V45.0723ZM19.4314 44.7083V46.5723H22.4314V44.7083H19.4314ZM20.4137 43.3083L20.4137 34.3787L17.4137 34.3787L17.4137 43.3083L20.4137 43.3083ZM17.6037 44.8083H18.9137V41.8083H17.6037V44.8083ZM16.1037 34.3787V43.3083H19.1037V34.3787H16.1037ZM18.9137 32.8787H17.6037V35.8787H18.9137V32.8787ZM17.6037 46.2083H18.9137V43.2083H17.6037V46.2083ZM19.1037 44.9403V44.7083H16.1037V44.9403H19.1037ZM18.9137 43.4403H17.6037V46.4403H18.9137V43.4403ZM17.4137 44.7083V44.9403H20.4137V44.7083H17.4137ZM14.9037 44.7083V44.9403H17.9037V44.7083H14.9037ZM15.6217 46.2083H16.4037V43.2083H15.6217V46.2083ZM17.1217 44.9403V44.7083H14.1217V44.9403H17.1217ZM16.4037 43.4403H15.6217V46.4403H16.4037V43.4403ZM16.4037 41.8083H15.6217V44.8083H16.4037V41.8083ZM14.9037 33.7787V43.3083H17.9037V33.7787H14.9037ZM17.0037 31.6787C15.8439 31.6787 14.9037 32.6189 14.9037 33.7787H17.9037C17.9037 34.2758 17.5007 34.6787 17.0037 34.6787V31.6787ZM18.9137 31.6787H17.0037V34.6787H18.9137V31.6787ZM17.4137 31.7258V33.1787H20.4137V31.7258H17.4137ZM15.6217 33.2258H18.9137V30.2258H15.6217V33.2258ZM17.1217 43.3083L17.1217 31.7258L14.1217 31.7258L14.1217 43.3083L17.1217 43.3083ZM20.9314 28.8258H20.1462V31.8258H20.9314V28.8258ZM19.4314 28.4618V30.3258H22.4314V28.4618H19.4314ZM13.6041 29.9618H20.9314V26.9618H13.6041V29.9618ZM15.1041 30.3258V28.4618H12.1041V30.3258H15.1041ZM14.3892 28.8258H13.6041V31.8258H14.3892V28.8258ZM15.4217 28.2377C14.4316 28.2377 13.5677 28.7715 13.0995 29.5599L15.6789 31.0917C15.629 31.1758 15.5334 31.2377 15.4217 31.2377V28.2377ZM19.1137 28.2377H15.4217V31.2377H19.1137V28.2377ZM21.436 29.5599C20.9678 28.7715 20.1039 28.2377 19.1137 28.2377V31.2377C19.0021 31.2377 18.9065 31.1758 18.8565 31.0917L21.436 29.5599ZM10.4585 46.5551C8.91215 46.5551 7.65854 47.8087 7.65854 49.3551H10.6585C10.6585 49.4656 10.569 49.5551 10.4585 49.5551V46.5551ZM49.5416 46.5551H10.4585V49.5551H49.5416V46.5551ZM52.3416 49.3551C52.3416 47.8087 51.088 46.5551 49.5416 46.5551V49.5551C49.4312 49.5551 49.3416 49.4655 49.3416 49.3551H52.3416ZM52.3416 50.6142V49.3551H49.3416V50.6142H52.3416ZM50.5416 52.4142C51.5357 52.4142 52.3416 51.6083 52.3416 50.6142H49.3416C49.3416 49.9514 49.8789 49.4142 50.5416 49.4142V52.4142ZM9.45854 52.4142H50.5416V49.4142H9.45854V52.4142ZM7.65854 50.6142C7.65854 51.6083 8.46444 52.4142 9.45854 52.4142V49.4142C10.1213 49.4142 10.6585 49.9514 10.6585 50.6142H7.65854ZM7.65854 49.3551V50.6142H10.6585V49.3551H7.65854Z" fill="#F8F9FA" mask="url(#path-1-outside-1_50_5567)"/>
<rect x="17.7083" y="27.3008" width="24.9367" height="20.1449" fill="#495057"/>
<rect x="17.0038" y="33.7964" width="26.121" height="13.6496" fill="#339AF0" stroke="#212529" stroke-width="1.2" stroke-linecap="round" stroke-linejoin="round"/>
<path d="M8.4585 49.3726C8.4585 48.268 9.35393 47.3726 10.4585 47.3726H49.5416C50.6462 47.3726 51.5416 48.268 51.5416 49.3726V50.6317C51.5416 51.1839 51.0939 51.6317 50.5416 51.6317H9.4585C8.90621 51.6317 8.4585 51.1839 8.4585 50.6317V49.3726Z" fill="#ADB5BD" stroke="#212529" stroke-width="1.4" stroke-linecap="round" stroke-linejoin="round"/>
<rect x="19.6138" y="30.4551" width="15.2027" height="4.69199" rx="0.5" transform="rotate(90 19.6138 30.4551)" fill="#868E96" stroke="#212529" stroke-width="1.4" stroke-linecap="round" stroke-linejoin="round"/>
<rect x="12.9042" y="27.7793" width="8.72728" height="3.26401" rx="0.5" fill="#DEE2E6" stroke="#212529" stroke-width="1.4" stroke-linecap="round" stroke-linejoin="round"/>
<rect x="12.9042" y="44.0259" width="8.72728" height="3.26401" rx="0.5" fill="#DEE2E6" stroke="#212529" stroke-width="1.4" stroke-linecap="round" stroke-linejoin="round"/>
<rect x="45.0782" y="30.4551" width="15.2027" height="4.69199" rx="0.5" transform="rotate(90 45.0782 30.4551)" fill="#868E96" stroke="#212529" stroke-width="1.4" stroke-linecap="round" stroke-linejoin="round"/>
<rect x="38.3687" y="27.7793" width="8.72728" height="3.26401" rx="0.5" fill="#DEE2E6" stroke="#212529" stroke-width="1.4" stroke-linecap="round" stroke-linejoin="round"/>
<rect x="38.3687" y="44.0259" width="8.72728" height="3.26401" rx="0.5" fill="#DEE2E6" stroke="#212529" stroke-width="1.4" stroke-linecap="round" stroke-linejoin="round"/>
<path fill-rule="evenodd" clip-rule="evenodd" d="M30 11.5376L8.99385 22.5602C8.66469 22.7329 8.4585 23.074 8.4585 23.4457V24.2134C8.4585 24.7657 8.90621 25.2134 9.4585 25.2134H30C30 25.2134 30 25.2135 30 25.2135V25.2135C30 25.2135 30 25.2135 30.0001 25.2135H50.5416C51.0939 25.2135 51.5416 24.7658 51.5416 24.2135V23.4457C51.5416 23.074 51.3354 22.7329 51.0063 22.5602L30.0001 11.5376C30.0001 11.5376 30.0001 11.5376 30.0001 11.5376V11.5376C30.0001 11.5376 30.0001 11.5376 30.0001 11.5376L30 11.5376Z" fill="#DEE2E6"/>
<path d="M30 11.5376L29.6514 10.8176C29.6437 10.8213 29.636 10.8252 29.6283 10.8292L30 11.5376ZM30.0001 11.5376L29.6514 10.8176L30.0001 11.5376ZM30.0001 11.5376L29.6284 12.246L30.0001 11.5376ZM51.0063 22.5602L50.6346 23.2686L51.0063 22.5602ZM8.99385 22.5602L9.36557 23.2686L8.99385 22.5602ZM9.36557 23.2686L30.3718 12.246L29.6283 10.8292L8.62213 21.8518L9.36557 23.2686ZM9.2585 24.2134V23.4457H7.6585V24.2134H9.2585ZM30 24.4134H9.4585V26.0134H30V24.4134ZM30.0001 26.0135H50.5416V24.4135H30.0001V26.0135ZM52.3416 24.2135V23.4457H50.7416V24.2135H52.3416ZM51.378 21.8518L30.3718 10.8292L29.6284 12.246L50.6346 23.2686L51.378 21.8518ZM30.3487 12.2577L30.3487 12.2576L29.6514 10.8176L29.6514 10.8176L30.3487 12.2577ZM30.8001 11.5376C30.8001 10.9473 30.1827 10.5603 29.6514 10.8176L30.3487 12.2576C29.8174 12.5149 29.2001 12.1279 29.2001 11.5376H30.8001ZM30.3718 10.8292C30.6366 10.9682 30.8001 11.2419 30.8001 11.5376H29.2001C29.2001 11.8334 29.3636 12.1071 29.6284 12.246L30.3718 10.8292ZM52.3416 23.4457C52.3416 22.7766 51.9705 22.1627 51.378 21.8518L50.6346 23.2686C50.7004 23.3031 50.7416 23.3714 50.7416 23.4457H52.3416ZM29.2 25.2134C29.2 25.6553 29.5582 26.0135 30.0001 26.0135V24.4135C30.4419 24.4135 30.8 24.7716 30.8 25.2134H29.2ZM30 26.0134C29.5582 26.0134 29.2 25.6553 29.2 25.2134H30.8C30.8 24.7716 30.4419 24.4134 30 24.4134V26.0134ZM7.6585 24.2134C7.6585 25.2075 8.46438 26.0134 9.4585 26.0134V24.4134C9.34804 24.4134 9.2585 24.3239 9.2585 24.2134H7.6585ZM50.5416 26.0135C51.5357 26.0135 52.3416 25.2076 52.3416 24.2135H50.7416C50.7416 24.3239 50.6521 24.4135 50.5416 24.4135V26.0135ZM8.62213 21.8518C8.02964 22.1627 7.6585 22.7766 7.6585 23.4457H9.2585C9.2585 23.3713 9.29973 23.3031 9.36557 23.2686L8.62213 21.8518Z" fill="#212529"/>
<path d="M11.3208 26.2134C11.3208 25.6611 11.7685 25.2134 12.3208 25.2134H47.6794C48.2317 25.2134 48.6794 25.6611 48.6794 26.2134V26.6966C48.6794 27.2488 48.2317 27.6966 47.6794 27.6966H12.3208C11.7685 27.6966 11.3208 27.2488 11.3208 26.6966V26.2134Z" fill="#DEE2E6" stroke="#212529" stroke-width="1.2" stroke-linecap="round" stroke-linejoin="round"/>
<path d="M29.7571 34.2788L29.7571 47.0548" stroke="#212529" stroke-linecap="round" stroke-linejoin="round"/>
<g style="mix-blend-mode:multiply">
<path fill-rule="evenodd" clip-rule="evenodd" d="M29.7864 9.58447C26.5885 9.58447 23.9961 12.1769 23.9961 15.3747C23.9961 18.5726 26.5885 21.165 29.7864 21.165C32.9842 21.165 35.5766 18.5726 35.5766 15.3747C35.5766 12.1769 32.9842 9.58447 29.7864 9.58447Z" fill="#DEE2E6"/>
</g>
<circle cx="29.5195" cy="14.6504" r="5.5" fill="#FFE066" stroke="#212529" stroke-linecap="round" stroke-linejoin="round"/>
<path d="M30.0184 14.2329C30.5835 14.3813 31.008 14.5897 31.2919 14.8579C31.5757 15.1235 31.7177 15.466 31.7177 15.8853C31.7177 16.2004 31.6538 16.4842 31.5262 16.7368C31.3986 16.9868 31.2085 17.1925 30.9559 17.354C30.7059 17.5129 30.4025 17.6144 30.0458 17.6587V17.8501C30.0458 17.9751 30.0067 18.0728 29.9286 18.1431C29.8505 18.2134 29.7489 18.2485 29.6239 18.2485C29.4989 18.2485 29.3973 18.2134 29.3192 18.1431C29.2411 18.0728 29.202 17.9751 29.202 17.8501V17.6548C28.6473 17.5819 28.146 17.3735 27.6981 17.0298C27.6226 16.9699 27.5588 16.897 27.5067 16.811C27.4546 16.7225 27.4286 16.6326 27.4286 16.5415C27.4286 16.4009 27.469 16.2811 27.5497 16.1821C27.633 16.0832 27.7437 16.0194 27.8817 15.9907C27.9025 15.9855 27.9325 15.9829 27.9716 15.9829C28.0601 15.9829 28.1395 16.0076 28.2098 16.0571C28.4364 16.2186 28.6721 16.3462 28.9169 16.4399C29.1617 16.5311 29.3999 16.5767 29.6317 16.5767C29.9286 16.5767 30.1538 16.5246 30.3075 16.4204C30.4611 16.3136 30.538 16.1548 30.538 15.9438C30.538 15.7902 30.4429 15.6548 30.2528 15.5376C30.0653 15.4178 29.7775 15.3058 29.3895 15.2017C28.7749 15.035 28.3088 14.7993 27.9911 14.4946C27.676 14.1873 27.5315 13.8215 27.5575 13.397C27.5757 13.1105 27.6486 12.8553 27.7762 12.6313C27.9065 12.4074 28.0913 12.2251 28.3309 12.0845C28.5705 11.9438 28.8609 11.8566 29.202 11.8228V11.5845C29.202 11.4595 29.2411 11.3618 29.3192 11.2915C29.3973 11.2212 29.4989 11.186 29.6239 11.186C29.7489 11.186 29.8505 11.2212 29.9286 11.2915C30.0067 11.3618 30.0458 11.4595 30.0458 11.5845V11.8423C30.3999 11.8944 30.7398 12.0037 31.0653 12.1704C31.1669 12.2225 31.2515 12.2941 31.3192 12.3853C31.3869 12.4764 31.4208 12.5806 31.4208 12.6978C31.4208 12.8774 31.3739 13.0181 31.2802 13.1196C31.189 13.2212 31.077 13.272 30.9442 13.272C30.8739 13.272 30.8049 13.2563 30.7372 13.2251C30.344 13.0402 30.0119 12.9425 29.7411 12.9321L29.6161 12.9282C29.3322 12.9282 29.1135 12.9725 28.9598 13.061C28.8088 13.147 28.7333 13.2642 28.7333 13.4126C28.7333 13.5715 28.844 13.7212 29.0653 13.8618C29.2893 14.0024 29.607 14.1261 30.0184 14.2329Z" fill="#212529"/>
</svg>
