<svg width="60" height="60" viewBox="0 0 60 60" fill="none" xmlns="http://www.w3.org/2000/svg">
<mask id="path-1-outside-1_50_6091" maskUnits="userSpaceOnUse" x="12.8455" y="6.61377" width="34" height="47" fill="black">
<rect fill="white" x="12.8455" y="6.61377" width="34" height="47"/>
<path fill-rule="evenodd" clip-rule="evenodd" d="M39.1434 10.4626C39.1434 9.26903 38.0288 8.38852 36.8676 8.66478L17.992 13.1556H17.6661C16.1083 13.1556 14.8454 14.4184 14.8454 15.9762V48.5652C14.8454 50.123 16.1083 51.3858 17.6661 51.3858H42.3339C43.8917 51.3858 45.1545 50.123 45.1545 48.5652V15.9762C45.1545 14.4184 43.8917 13.1556 42.3339 13.1556H39.1434V10.4626ZM16.8927 15.2369H38.268C38.5455 15.2369 38.7928 15.1078 38.9532 14.9063H42.3339C42.9248 14.9063 43.4038 15.3854 43.4038 15.9762V48.5652C43.4038 49.1561 42.9248 49.6351 42.3339 49.6351H17.6661C17.0752 49.6351 16.5962 49.1561 16.5962 48.5652V15.9762C16.5962 15.6895 16.709 15.429 16.8927 15.2369ZM37.3926 13.1556V10.4626C37.3926 10.3998 37.334 10.3534 37.2728 10.368L25.556 13.1556H37.3926Z"/>
</mask>
<path fill-rule="evenodd" clip-rule="evenodd" d="M39.1434 10.4626C39.1434 9.26903 38.0288 8.38852 36.8676 8.66478L17.992 13.1556H17.6661C16.1083 13.1556 14.8454 14.4184 14.8454 15.9762V48.5652C14.8454 50.123 16.1083 51.3858 17.6661 51.3858H42.3339C43.8917 51.3858 45.1545 50.123 45.1545 48.5652V15.9762C45.1545 14.4184 43.8917 13.1556 42.3339 13.1556H39.1434V10.4626ZM16.8927 15.2369H38.268C38.5455 15.2369 38.7928 15.1078 38.9532 14.9063H42.3339C42.9248 14.9063 43.4038 15.3854 43.4038 15.9762V48.5652C43.4038 49.1561 42.9248 49.6351 42.3339 49.6351H17.6661C17.0752 49.6351 16.5962 49.1561 16.5962 48.5652V15.9762C16.5962 15.6895 16.709 15.429 16.8927 15.2369ZM37.3926 13.1556V10.4626C37.3926 10.3998 37.334 10.3534 37.2728 10.368L25.556 13.1556H37.3926Z" fill="#F8F9FA"/>
<path d="M36.8676 8.66479L36.5205 7.20552L36.8676 8.66479ZM17.992 13.1556V14.6556C18.109 14.6556 18.2255 14.6419 18.3392 14.6149L17.992 13.1556ZM39.1434 13.1556H37.6434C37.6434 13.984 38.315 14.6556 39.1434 14.6556V13.1556ZM16.8927 15.2369V13.7369C16.4832 13.7369 16.0916 13.9043 15.8086 14.2003L16.8927 15.2369ZM38.9532 14.9064V13.4064C38.4963 13.4064 38.0643 13.6146 37.7797 13.9721L38.9532 14.9064ZM37.3926 13.1556V14.6556C38.2211 14.6556 38.8926 13.984 38.8926 13.1556H37.3926ZM37.2729 10.368L36.9257 8.90872L36.9257 8.90872L37.2729 10.368ZM25.556 13.1556L25.2089 11.6963C24.4687 11.8724 23.9776 12.5748 24.0663 13.3304C24.1549 14.086 24.7952 14.6556 25.556 14.6556V13.1556ZM37.2148 10.1241C37.4335 10.072 37.6434 10.2378 37.6434 10.4626H40.6434C40.6434 8.30023 38.6241 6.70503 36.5205 7.20552L37.2148 10.1241ZM18.3392 14.6149L37.2148 10.1241L36.5205 7.20552L17.6449 11.6963L18.3392 14.6149ZM17.6661 14.6556H17.992V11.6556H17.6661V14.6556ZM16.3455 15.9762C16.3455 15.2469 16.9367 14.6556 17.6661 14.6556V11.6556C15.2799 11.6556 13.3455 13.59 13.3455 15.9762H16.3455ZM16.3455 48.5652V15.9762H13.3455V48.5652H16.3455ZM17.6661 49.8858C16.9367 49.8858 16.3455 49.2945 16.3455 48.5652H13.3455C13.3455 50.9514 15.2799 52.8858 17.6661 52.8858V49.8858ZM42.3339 49.8858H17.6661V52.8858H42.3339V49.8858ZM43.6546 48.5652C43.6546 49.2945 43.0633 49.8858 42.3339 49.8858V52.8858C44.7201 52.8858 46.6546 50.9514 46.6546 48.5652H43.6546ZM43.6546 15.9762V48.5652H46.6546V15.9762H43.6546ZM42.3339 14.6556C43.0633 14.6556 43.6546 15.2469 43.6546 15.9762H46.6546C46.6546 13.59 44.7201 11.6556 42.3339 11.6556V14.6556ZM39.1434 14.6556H42.3339V11.6556H39.1434V14.6556ZM37.6434 10.4626V13.1556H40.6434V10.4626H37.6434ZM38.268 13.7369H16.8927V16.7369H38.268V13.7369ZM37.7797 13.9721C37.8917 13.8315 38.0693 13.7369 38.268 13.7369V16.7369C39.0218 16.7369 39.6941 16.3842 40.1268 15.8406L37.7797 13.9721ZM42.3339 13.4064H38.9532V16.4064H42.3339V13.4064ZM44.9038 15.9762C44.9038 14.5569 43.7532 13.4064 42.3339 13.4064V16.4064C42.0964 16.4064 41.9038 16.2138 41.9038 15.9762H44.9038ZM44.9038 48.5652V15.9762H41.9038V48.5652H44.9038ZM42.3339 51.1351C43.7532 51.1351 44.9038 49.9845 44.9038 48.5652H41.9038C41.9038 48.3276 42.0964 48.1351 42.3339 48.1351V51.1351ZM17.6661 51.1351H42.3339V48.1351H17.6661V51.1351ZM15.0962 48.5652C15.0962 49.9845 16.2468 51.1351 17.6661 51.1351V48.1351C17.9036 48.1351 18.0962 48.3276 18.0962 48.5652H15.0962ZM15.0962 15.9762V48.5652H18.0962V15.9762H15.0962ZM15.8086 14.2003C15.3687 14.6603 15.0962 15.288 15.0962 15.9762H18.0962C18.0962 16.0909 18.0494 16.1978 17.9768 16.2736L15.8086 14.2003ZM38.8926 13.1556V10.4626H35.8926V13.1556H38.8926ZM38.8926 10.4626C38.8926 9.43098 37.9293 8.66994 36.9257 8.90872L37.6201 11.8273C36.7387 12.037 35.8926 11.3686 35.8926 10.4626H38.8926ZM36.9257 8.90872L25.2089 11.6963L25.9032 14.6149L37.6201 11.8273L36.9257 8.90872ZM25.556 14.6556H37.3926V11.6556H25.556V14.6556Z" fill="#F8F9FA" mask="url(#path-1-outside-1_50_6091)"/>
<path d="M38.268 10.4884V14.3616L16.9896 14.1393L37.0433 9.51393C37.6699 9.36941 38.268 9.84531 38.268 10.4884Z" fill="#E64980" stroke="#212529" stroke-width="1.8" stroke-linecap="round" stroke-linejoin="round"/>
<rect x="15.7208" y="14.0312" width="28.5584" height="36.4795" rx="2" fill="#FF6B6B" stroke="#212529" stroke-width="1.8" stroke-linejoin="round"/>
<g style="mix-blend-mode:multiply" opacity="0.6">
<path fill-rule="evenodd" clip-rule="evenodd" d="M15.6512 48.5757C15.9508 49.3024 16.6662 49.814 17.5011 49.814H42.0594C43.164 49.814 44.0594 48.9185 44.0594 47.814V15.7556C44.0594 14.7675 43.343 13.9468 42.4013 13.7847V47.5757C42.4013 48.1279 41.9536 48.5757 41.4013 48.5757H15.6512Z" fill="#CED4DA"/>
</g>
<path d="M35.1248 33.1348C35.1248 32.5825 34.677 32.1348 34.1248 32.1348H25.8752C25.3229 32.1348 24.8752 32.5825 24.8752 33.1348V36.1883H35.1248V33.1348Z" fill="#FFE066" stroke="#212529" stroke-width="1.2" stroke-linejoin="round"/>
<path d="M37.6069 37.1885C37.6069 36.6362 37.1592 36.1885 36.6069 36.1885H23.3932C22.8409 36.1885 22.3932 36.6362 22.3932 37.1885V39.6588C22.3932 40.211 22.8409 40.6588 23.3932 40.6588H36.6069C37.1592 40.6588 37.6069 40.211 37.6069 39.6588V37.1885Z" fill="#FFE066" stroke="#212529" stroke-width="1.2" stroke-linejoin="round"/>
<path d="M30 27.1626V31.6679" stroke="#212529" stroke-width="1.2" stroke-linecap="round" stroke-linejoin="round"/>
<path d="M29.7803 21.9497V24.0833" stroke="#212529" stroke-linecap="round" stroke-linejoin="round"/>
<path d="M25.5374 23.8804L27.2642 25.1139" stroke="#212529" stroke-linecap="round" stroke-linejoin="round"/>
<path d="M34.0287 23.8804L32.3018 25.1139" stroke="#212529" stroke-linecap="round" stroke-linejoin="round"/>
<path d="M26.8349 27.4966L24.24 27.4966" stroke="#212529" stroke-linecap="round" stroke-linejoin="round"/>
<path d="M35.76 27.4966L33.1652 27.4966" stroke="#212529" stroke-linecap="round" stroke-linejoin="round"/>
</svg>
