<svg width="60" height="60" viewBox="0 0 60 60" fill="none" xmlns="http://www.w3.org/2000/svg">
<g clip-path="url(#clip0_50_10049)">
<mask id="path-1-outside-1_50_10049" maskUnits="userSpaceOnUse" x="-0.876704" y="5.88221" width="57.6673" height="48.8827" fill="black">
<rect fill="white" x="-0.876704" y="5.88221" width="57.6673" height="48.8827"/>
<path fill-rule="evenodd" clip-rule="evenodd" d="M47.7417 22.147C43.5283 18.5506 34.0195 15.4908 22.0901 22.753C11.4682 29.2193 10.1045 37.6524 10.6173 42.5947C10.7363 43.7411 11.4763 45.0541 12.6171 45.8807C13.7167 46.6774 15.1457 46.9969 16.7381 46.2853C17.4486 45.9678 26.1569 42.0605 34.2176 37.4067C41.8555 32.9969 46.6472 29.5674 47.7586 28.6601C48.9415 27.6945 49.3451 26.4494 49.2594 25.2492C49.1712 24.0134 48.5624 22.8474 47.7417 22.147ZM21.0501 21.0447C33.6885 13.3508 44.144 16.4467 49.0402 20.6258C50.2805 21.6845 51.1291 23.353 51.2543 25.1067C51.3821 26.8961 50.7552 28.7956 49.0233 30.2094C47.7959 31.2114 42.9026 34.7018 35.2176 39.1387C27.0633 43.8466 18.2769 47.7883 17.5541 48.1113C15.2349 49.1477 13.0526 48.6661 11.4436 47.5002C9.87574 46.3641 8.80981 44.5529 8.62803 42.8011C8.04696 37.2015 9.67873 27.9673 21.0501 21.0447Z"/>
</mask>
<path fill-rule="evenodd" clip-rule="evenodd" d="M47.7417 22.147C43.5283 18.5506 34.0195 15.4908 22.0901 22.753C11.4682 29.2193 10.1045 37.6524 10.6173 42.5947C10.7363 43.7411 11.4763 45.0541 12.6171 45.8807C13.7167 46.6774 15.1457 46.9969 16.7381 46.2853C17.4486 45.9678 26.1569 42.0605 34.2176 37.4067C41.8555 32.9969 46.6472 29.5674 47.7586 28.6601C48.9415 27.6945 49.3451 26.4494 49.2594 25.2492C49.1712 24.0134 48.5624 22.8474 47.7417 22.147ZM21.0501 21.0447C33.6885 13.3508 44.144 16.4467 49.0402 20.6258C50.2805 21.6845 51.1291 23.353 51.2543 25.1067C51.3821 26.8961 50.7552 28.7956 49.0233 30.2094C47.7959 31.2114 42.9026 34.7018 35.2176 39.1387C27.0633 43.8466 18.2769 47.7883 17.5541 48.1113C15.2349 49.1477 13.0526 48.6661 11.4436 47.5002C9.87574 46.3641 8.80981 44.5529 8.62803 42.8011C8.04696 37.2015 9.67873 27.9673 21.0501 21.0447Z" fill="#F8F9FA"/>
<path d="M22.0901 22.753L22.8701 24.0342L22.0901 22.753ZM47.7417 22.147L48.7156 21.0061L48.7156 21.0061L47.7417 22.147ZM10.6173 42.5947L12.1093 42.4399L12.1093 42.4399L10.6173 42.5947ZM12.6171 45.8807L11.737 47.0953L11.737 47.0953L12.6171 45.8807ZM16.7381 46.2853L17.3501 47.6548L17.3501 47.6548L16.7381 46.2853ZM47.7586 28.6601L46.81 27.4981L47.7586 28.6601ZM49.2594 25.2492L50.7556 25.1423L50.7556 25.1423L49.2594 25.2492ZM49.0402 20.6258L48.0663 21.7667L48.0664 21.7667L49.0402 20.6258ZM21.0501 21.0447L20.2702 19.7634L21.0501 21.0447ZM51.2543 25.1067L49.7581 25.2136L49.7581 25.2136L51.2543 25.1067ZM49.0233 30.2094L48.0748 29.0474L48.0748 29.0474L49.0233 30.2094ZM17.5541 48.1113L18.1661 49.4807L18.1661 49.4807L17.5541 48.1113ZM11.4436 47.5002L12.3237 46.2855L12.3237 46.2855L11.4436 47.5002ZM8.62803 42.8011L7.13604 42.9559L8.62803 42.8011ZM22.8701 24.0342C34.2675 17.0958 43.0663 20.1284 46.7679 23.2879L48.7156 21.0061C43.9902 16.9728 33.7714 13.8857 21.3101 21.4717L22.8701 24.0342ZM12.1093 42.4399C11.6477 37.9912 12.8099 30.1586 22.8701 24.0342L21.3101 21.4717C10.1265 28.28 8.56129 37.3137 9.12536 42.7495L12.1093 42.4399ZM13.4972 44.666C12.6771 44.0718 12.1812 43.1327 12.1093 42.4399L9.12536 42.7495C9.29139 44.3495 10.2755 46.0364 11.737 47.0953L13.4972 44.666ZM16.1261 44.9158C15.0773 45.3845 14.2132 45.1848 13.4972 44.666L11.737 47.0953C13.2201 48.17 15.2141 48.6093 17.3501 47.6548L16.1261 44.9158ZM33.4676 36.1077C25.4772 40.7209 16.8274 44.6024 16.1261 44.9158L17.3501 47.6548C18.0698 47.3331 26.8367 43.4001 34.9676 38.7057L33.4676 36.1077ZM46.81 27.4981C45.7857 28.3343 41.0701 31.7183 33.4676 36.1077L34.9676 38.7057C42.6408 34.2756 47.5087 30.8004 48.7072 29.8221L46.81 27.4981ZM47.7632 25.356C47.8173 26.1132 47.582 26.8679 46.81 27.4981L48.7072 29.8221C50.301 28.521 50.8729 26.7855 50.7556 25.1423L47.7632 25.356ZM46.7679 23.2879C47.2739 23.7198 47.7027 24.5089 47.7632 25.356L50.7556 25.1423C50.6396 23.5179 49.8509 21.9751 48.7156 21.0061L46.7679 23.2879ZM50.014 19.4849C44.6056 14.8686 33.4401 11.7459 20.2702 19.7634L21.8301 22.3259C33.9369 14.9557 43.6823 18.0247 48.0663 21.7667L50.014 19.4849ZM52.7505 24.9999C52.5976 22.8578 51.5692 20.8123 50.014 19.4849L48.0664 21.7667C48.9918 22.5566 49.6607 23.8482 49.7581 25.2136L52.7505 24.9999ZM49.9719 31.3714C52.116 29.6211 52.9098 27.2304 52.7505 24.9999L49.7581 25.2136C49.8544 26.5618 49.3944 27.9702 48.0748 29.0474L49.9719 31.3714ZM35.9676 40.4378C43.688 35.9804 48.6574 32.4445 49.9719 31.3714L48.0748 29.0474C46.9344 29.9784 42.1173 33.4232 34.4676 37.8397L35.9676 40.4378ZM18.1661 49.4807C18.8981 49.1536 27.7431 45.1862 35.9676 40.4378L34.4676 37.8397C26.3835 42.507 17.6557 46.4229 16.9421 46.7418L18.1661 49.4807ZM10.5635 48.7148C12.5536 50.1569 15.3007 50.7612 18.1661 49.4807L16.9421 46.7418C15.169 47.5341 13.5516 47.1753 12.3237 46.2855L10.5635 48.7148ZM7.13604 42.9559C7.36497 45.162 8.67558 47.3469 10.5635 48.7148L12.3237 46.2855C11.0759 45.3814 10.2547 43.9438 10.12 42.6463L7.13604 42.9559ZM20.2702 19.7634C8.33624 27.0284 6.50386 36.8638 7.13604 42.9559L10.12 42.6463C9.59006 37.5392 11.0212 28.9061 21.8301 22.3259L20.2702 19.7634Z" fill="#F8F9FA" mask="url(#path-1-outside-1_50_10049)"/>
<path d="M21.6433 21.9459C10.6466 28.6404 9.1489 37.474 9.69586 42.745C9.99661 45.6432 13.3077 48.9934 17.2193 47.2454C17.9359 46.9251 26.6833 43.0006 34.7908 38.3198C42.4522 33.8964 47.2947 30.4365 48.4641 29.4818C51.3789 27.1024 50.5251 23.1926 48.4641 21.4335C43.9093 17.5457 33.9271 14.4678 21.6433 21.9459Z" fill="#FFA94D" stroke="#212529" stroke-width="1.8" stroke-linecap="round" stroke-linejoin="round"/>
<g style="mix-blend-mode:multiply">
<path fill-rule="evenodd" clip-rule="evenodd" d="M10.2696 41.8026C11.4267 44.0413 14.1365 45.8304 17.2193 44.4527C17.936 44.1325 26.6833 40.208 34.7908 35.5272C42.4523 31.1038 47.2948 27.6439 48.4642 26.6892C48.7347 26.4684 48.9727 26.2344 49.1803 25.9902C49.1265 27.2412 48.5999 28.4987 47.4039 29.4793C46.2877 30.3945 41.6626 33.7081 34.3394 37.9362C26.5898 42.4104 18.2224 46.1508 17.5369 46.456C13.7952 48.1219 10.601 44.869 10.2965 42.0692C10.2869 41.9813 10.2779 41.8925 10.2696 41.8026Z" fill="#FFA94D"/>
</g>
<g style="mix-blend-mode:soft-light" opacity="0.7">
<path d="M34.0787 21.1751C36.5769 16.4057 27.7445 19.4718 24.2747 21.1751C16.4014 24.5819 11.5142 32.8161 10.5679 36.5066C12.8706 33.8885 17.968 28.7658 19.9364 29.22C22.3968 29.7878 19.4632 33.7623 19.9364 36.5066C20.4095 39.2509 24.0055 37.0744 24.0055 33.7623C24.0055 31.3588 25.1542 27.7278 28.3558 24.3113C30.7796 22.5608 31.052 26.4641 32.9166 26.061C34.6053 25.6958 33.078 23.0854 34.0787 21.1751Z" fill="#F8F9FA"/>
</g>
<path d="M14.8473 27.741C16.3203 28.6424 18.812 29.6414 20.5914 32.2702C20.8489 32.6506 20.8776 33.1363 20.7064 33.5626V33.5626C20.2645 34.6625 18.734 34.8625 17.8668 34.0543C15.971 32.2875 13.851 31.2198 13.0003 31.0974" stroke="#212529" stroke-width="1.6" stroke-linecap="round" stroke-linejoin="round"/>
<path d="M34.7993 17.6613C35.993 18.7117 37.1185 19.7325 38.098 21.27C38.4295 21.7903 38.3993 22.4465 38.0734 22.9608V22.9608C37.4348 23.9685 35.9906 24.0039 35.2601 23.0388C34.0575 21.4502 32.5712 19.6884 30.5179 18.4082" stroke="#212529" stroke-width="1.6" stroke-linecap="round" stroke-linejoin="round"/>
<path d="M23.614 20.8418C25.105 21.7542 27.277 23.0697 29.9894 26.8627C30.3129 27.3151 30.3734 27.903 30.1661 28.4191V28.4191C29.7135 29.5461 28.2564 29.823 27.4463 28.9181C25.3652 26.5935 23.8007 24.7278 20.7381 23.0639" stroke="#212529" stroke-width="1.6" stroke-linecap="round" stroke-linejoin="round"/>
</g>
<defs>
<clipPath id="clip0_50_10049">
<rect width="60" height="60" fill="white"/>
</clipPath>
</defs>
</svg>
