<svg width="60" height="60" viewBox="0 0 60 60" fill="none" xmlns="http://www.w3.org/2000/svg">
<mask id="path-1-outside-1_50_6500" maskUnits="userSpaceOnUse" x="10.1594" y="6.41846" width="40" height="50" fill="black">
<rect fill="white" x="10.1594" y="6.41846" width="40" height="50"/>
<path fill-rule="evenodd" clip-rule="evenodd" d="M14.8871 8.41846C13.3807 8.41846 12.1594 9.6397 12.1594 11.1462V50.3077C12.1594 51.2928 12.958 52.0914 13.9431 52.0914H14.8719C14.877 52.0914 14.8821 52.0914 14.8872 52.0914H19.1083V53.1834C19.1083 53.7381 19.558 54.1877 20.1126 54.1877H21.4171C21.9718 54.1877 22.4214 53.7381 22.4214 53.1834V52.0914L37.707 52.0914V53.1834C37.707 53.7381 38.1567 54.1877 38.7113 54.1877H40.0158C40.5705 54.1877 41.0201 53.7381 41.0201 53.1834V52.0914L45.1129 52.0914C45.1163 52.0914 45.1198 52.0914 45.1232 52.0914H46.0569C47.042 52.0914 47.8405 51.2928 47.8405 50.3078V49.3821C47.8406 49.376 47.8406 49.3699 47.8406 49.3637V41.8586C47.8406 41.8554 47.8406 41.8521 47.8405 41.8488V11.1462C47.8405 9.63972 46.6193 8.41848 45.1128 8.41848H30.006L30 8.41846H14.8871ZM46.2819 41.0793V11.1462C46.2819 10.5006 45.7585 9.97718 45.1128 9.97718H30.7793V41.0793H46.2819ZM29.2206 41.0793V9.97715H14.8871C14.2415 9.97715 13.7181 10.5005 13.7181 11.1462V41.0933C13.7918 41.0841 13.8669 41.0793 13.9431 41.0793H29.2206ZM14.8776 50.5327C14.2364 50.5276 13.7182 50.0061 13.7182 49.3637L13.7182 42.8629C13.7182 42.7387 13.8189 42.638 13.9431 42.638H29.2206V50.3078L29.2206 50.3114C29.2187 50.4339 29.1187 50.5327 28.9957 50.5327H22.3951C22.2915 50.0884 21.8929 49.7575 21.4171 49.7575H20.1126C19.6368 49.7575 19.2383 50.0884 19.1346 50.5327H14.8776ZM45.1196 50.5327H40.9938C40.8902 50.0885 40.4916 49.7575 40.0158 49.7575H38.7113C38.2355 49.7575 37.837 50.0885 37.7333 50.5327H31.0043C30.8812 50.5327 30.7813 50.434 30.7793 50.3114L30.7793 50.3077V42.638H46.2819V49.3754C46.2756 50.0134 45.7583 50.5291 45.1196 50.5327Z"/>
</mask>
<path fill-rule="evenodd" clip-rule="evenodd" d="M14.8871 8.41846C13.3807 8.41846 12.1594 9.6397 12.1594 11.1462V50.3077C12.1594 51.2928 12.958 52.0914 13.9431 52.0914H14.8719C14.877 52.0914 14.8821 52.0914 14.8872 52.0914H19.1083V53.1834C19.1083 53.7381 19.558 54.1877 20.1126 54.1877H21.4171C21.9718 54.1877 22.4214 53.7381 22.4214 53.1834V52.0914L37.707 52.0914V53.1834C37.707 53.7381 38.1567 54.1877 38.7113 54.1877H40.0158C40.5705 54.1877 41.0201 53.7381 41.0201 53.1834V52.0914L45.1129 52.0914C45.1163 52.0914 45.1198 52.0914 45.1232 52.0914H46.0569C47.042 52.0914 47.8405 51.2928 47.8405 50.3078V49.3821C47.8406 49.376 47.8406 49.3699 47.8406 49.3637V41.8586C47.8406 41.8554 47.8406 41.8521 47.8405 41.8488V11.1462C47.8405 9.63972 46.6193 8.41848 45.1128 8.41848H30.006L30 8.41846H14.8871ZM46.2819 41.0793V11.1462C46.2819 10.5006 45.7585 9.97718 45.1128 9.97718H30.7793V41.0793H46.2819ZM29.2206 41.0793V9.97715H14.8871C14.2415 9.97715 13.7181 10.5005 13.7181 11.1462V41.0933C13.7918 41.0841 13.8669 41.0793 13.9431 41.0793H29.2206ZM14.8776 50.5327C14.2364 50.5276 13.7182 50.0061 13.7182 49.3637L13.7182 42.8629C13.7182 42.7387 13.8189 42.638 13.9431 42.638H29.2206V50.3078L29.2206 50.3114C29.2187 50.4339 29.1187 50.5327 28.9957 50.5327H22.3951C22.2915 50.0884 21.8929 49.7575 21.4171 49.7575H20.1126C19.6368 49.7575 19.2383 50.0884 19.1346 50.5327H14.8776ZM45.1196 50.5327H40.9938C40.8902 50.0885 40.4916 49.7575 40.0158 49.7575H38.7113C38.2355 49.7575 37.837 50.0885 37.7333 50.5327H31.0043C30.8812 50.5327 30.7813 50.434 30.7793 50.3114L30.7793 50.3077V42.638H46.2819V49.3754C46.2756 50.0134 45.7583 50.5291 45.1196 50.5327Z" fill="#F8F9FA"/>
<path d="M14.8719 52.0914L14.8798 50.5914H14.8719V52.0914ZM19.1083 52.0914H20.6083C20.6083 51.263 19.9368 50.5914 19.1083 50.5914V52.0914ZM22.4214 52.0914L22.4214 50.5914C21.593 50.5914 20.9214 51.263 20.9214 52.0914H22.4214ZM37.707 52.0914H39.207C39.207 51.6936 39.049 51.312 38.7677 51.0307C38.4864 50.7494 38.1049 50.5914 37.707 50.5914L37.707 52.0914ZM41.0201 52.0914L41.0201 50.5914C40.6223 50.5914 40.2407 50.7494 39.9594 51.0307C39.6781 51.312 39.5201 51.6936 39.5201 52.0914H41.0201ZM45.1129 52.0914L45.1129 53.5914H45.1129V52.0914ZM45.1232 52.0914V50.5914L45.1182 50.5914L45.1232 52.0914ZM47.8405 49.3821L46.3405 49.3719V49.3821H47.8405ZM47.8405 41.8488H46.3405C46.3405 41.8552 46.3406 41.8616 46.3407 41.868L47.8405 41.8488ZM30.006 8.41848L30.0004 9.91848H30.006V8.41848ZM30 8.41846L30.0057 6.91846H30V8.41846ZM46.2819 41.0793V42.5793C47.1103 42.5793 47.7819 41.9077 47.7819 41.0793H46.2819ZM30.7793 9.97718V8.47718C29.9509 8.47718 29.2793 9.14875 29.2793 9.97718H30.7793ZM30.7793 41.0793H29.2793C29.2793 41.9077 29.9509 42.5793 30.7793 42.5793V41.0793ZM29.2206 9.97715H30.7206C30.7206 9.14873 30.049 8.47715 29.2206 8.47715V9.97715ZM29.2206 41.0793V42.5793C30.049 42.5793 30.7206 41.9077 30.7206 41.0793H29.2206ZM13.7181 41.0933H12.2181C12.2181 41.5238 12.4031 41.9335 12.7259 42.2183C13.0487 42.503 13.4783 42.6354 13.9054 42.5816L13.7181 41.0933ZM13.7182 49.3637L12.2182 49.3637V49.3637H13.7182ZM14.8776 50.5327L14.8656 52.0327H14.8776V50.5327ZM13.7182 42.8629L15.2182 42.8629V42.8629H13.7182ZM29.2206 42.638H30.7206C30.7206 41.8096 30.049 41.138 29.2206 41.138V42.638ZM29.2206 50.3078L27.7206 50.3078L27.7206 50.3093L29.2206 50.3078ZM29.2206 50.3114L30.7204 50.3352C30.7206 50.3267 30.7206 50.3183 30.7206 50.3098L29.2206 50.3114ZM22.3951 50.5327L20.9344 50.8736C21.0928 51.5524 21.698 52.0327 22.3951 52.0327V50.5327ZM19.1346 50.5327V52.0327C19.8317 52.0327 20.4369 51.5524 20.5953 50.8736L19.1346 50.5327ZM40.9938 50.5327L39.5331 50.8736C39.6915 51.5524 40.2967 52.0327 40.9938 52.0327V50.5327ZM45.1196 50.5327V52.0327L45.1281 52.0327L45.1196 50.5327ZM37.7333 50.5327V52.0327C38.4304 52.0327 39.0356 51.5524 39.194 50.8736L37.7333 50.5327ZM30.7793 50.3114L29.2793 50.3098C29.2793 50.3183 29.2794 50.3267 29.2795 50.3352L30.7793 50.3114ZM30.7793 50.3077L32.2793 50.3093V50.3077H30.7793ZM30.7793 42.638V41.138C29.9509 41.138 29.2793 41.8096 29.2793 42.638H30.7793ZM46.2819 42.638H47.7819C47.7819 41.8096 47.1103 41.138 46.2819 41.138V42.638ZM46.2819 49.3754L47.7818 49.3901C47.7818 49.3852 47.7819 49.3803 47.7819 49.3754L46.2819 49.3754ZM13.6594 11.1462C13.6594 10.4681 14.2091 9.91846 14.8871 9.91846V6.91846C12.5522 6.91846 10.6594 8.81127 10.6594 11.1462H13.6594ZM13.6594 50.3077V11.1462H10.6594V50.3077H13.6594ZM13.9431 50.5914C13.7864 50.5914 13.6594 50.4644 13.6594 50.3077H10.6594C10.6594 52.1212 12.1296 53.5914 13.9431 53.5914V50.5914ZM14.8719 50.5914H13.9431V53.5914H14.8719V50.5914ZM14.8872 50.5914C14.8851 50.5914 14.8826 50.5914 14.8798 50.5914L14.864 53.5914C14.8714 53.5914 14.8791 53.5914 14.8872 53.5914V50.5914ZM19.1083 50.5914H14.8872V53.5914H19.1083V50.5914ZM20.6083 53.1834V52.0914H17.6083V53.1834H20.6083ZM20.1126 52.6877C20.3864 52.6877 20.6083 52.9096 20.6083 53.1834H17.6083C17.6083 54.5665 18.7295 55.6877 20.1126 55.6877V52.6877ZM21.4171 52.6877H20.1126V55.6877H21.4171V52.6877ZM20.9214 53.1834C20.9214 52.9096 21.1433 52.6877 21.4171 52.6877V55.6877C22.8002 55.6877 23.9214 54.5665 23.9214 53.1834H20.9214ZM20.9214 52.0914V53.1834H23.9214V52.0914H20.9214ZM37.707 50.5914L22.4214 50.5914L22.4214 53.5914L37.707 53.5914L37.707 50.5914ZM39.207 53.1834V52.0914H36.207V53.1834H39.207ZM38.7113 52.6877C38.9851 52.6877 39.207 52.9096 39.207 53.1834H36.207C36.207 54.5665 37.3282 55.6877 38.7113 55.6877V52.6877ZM40.0158 52.6877H38.7113V55.6877H40.0158V52.6877ZM39.5201 53.1834C39.5201 52.9096 39.742 52.6877 40.0158 52.6877V55.6877C41.3989 55.6877 42.5201 54.5665 42.5201 53.1834H39.5201ZM39.5201 52.0914V53.1834H42.5201V52.0914H39.5201ZM45.1129 50.5914L41.0201 50.5914L41.0201 53.5914L45.1129 53.5914L45.1129 50.5914ZM45.1182 50.5914C45.1158 50.5914 45.1142 50.5914 45.1129 50.5914V53.5914C45.1185 53.5914 45.1237 53.5914 45.1282 53.5914L45.1182 50.5914ZM46.0569 50.5914H45.1232V53.5914H46.0569V50.5914ZM46.3405 50.3078C46.3405 50.4644 46.2136 50.5914 46.0569 50.5914V53.5914C47.8704 53.5914 49.3405 52.1213 49.3405 50.3078H46.3405ZM46.3405 49.3821V50.3078H49.3405V49.3821H46.3405ZM46.3406 49.3637C46.3406 49.3668 46.3406 49.3695 46.3406 49.3719L49.3405 49.3924C49.3406 49.3825 49.3406 49.373 49.3406 49.3637H46.3406ZM46.3406 41.8586V49.3637H49.3406V41.8586H46.3406ZM46.3407 41.868C46.3406 41.8643 46.3406 41.8611 46.3406 41.8586H49.3406C49.3406 41.8496 49.3406 41.8399 49.3404 41.8296L46.3407 41.868ZM46.3405 11.1462V41.8488H49.3405V11.1462H46.3405ZM45.1128 9.91848C45.7909 9.91848 46.3405 10.4681 46.3405 11.1462H49.3405C49.3405 8.8113 47.4477 6.91848 45.1128 6.91848V9.91848ZM30.006 9.91848H45.1128V6.91848H30.006V9.91848ZM29.9943 9.91845L30.0004 9.91847L30.0117 6.91849L30.0057 6.91847L29.9943 9.91845ZM14.8871 9.91846H30V6.91846H14.8871V9.91846ZM47.7819 41.0793V11.1462H44.7819V41.0793H47.7819ZM47.7819 11.1462C47.7819 9.67214 46.5869 8.47718 45.1128 8.47718V11.4772C44.93 11.4772 44.7819 11.329 44.7819 11.1462H47.7819ZM45.1128 8.47718H30.7793V11.4772H45.1128V8.47718ZM29.2793 9.97718V41.0793H32.2793V9.97718H29.2793ZM30.7793 42.5793H46.2819V39.5793H30.7793V42.5793ZM27.7206 9.97715V41.0793H30.7206V9.97715H27.7206ZM14.8871 11.4772H29.2206V8.47715H14.8871V11.4772ZM15.2181 11.1462C15.2181 11.329 15.0699 11.4772 14.8871 11.4772V8.47715C13.4131 8.47715 12.2181 9.67211 12.2181 11.1462H15.2181ZM15.2181 41.0933V11.1462H12.2181V41.0933H15.2181ZM13.9054 42.5816C13.9171 42.5801 13.9297 42.5793 13.9431 42.5793V39.5793C13.8041 39.5793 13.6665 39.588 13.5308 39.6051L13.9054 42.5816ZM13.9431 42.5793H29.2206V39.5793H13.9431V42.5793ZM12.2182 49.3637C12.2182 50.8306 13.4014 52.0209 14.8656 52.0326L14.8896 49.0327C15.0714 49.0342 15.2182 49.1817 15.2182 49.3637H12.2182ZM12.2182 42.8629L12.2182 49.3637L15.2182 49.3637L15.2182 42.8629L12.2182 42.8629ZM13.9431 41.138C12.9904 41.138 12.2182 41.9103 12.2182 42.8629H15.2182C15.2182 43.5671 14.6473 44.138 13.9431 44.138V41.138ZM29.2206 41.138H13.9431V44.138H29.2206V41.138ZM27.7206 42.638V50.3078H30.7206V42.638H27.7206ZM27.7206 50.3093L27.7206 50.313L30.7206 50.3098L30.7206 50.3062L27.7206 50.3093ZM27.7208 50.2876C27.7318 49.5924 28.2982 49.0327 28.9957 49.0327V52.0327C29.9392 52.0327 30.7055 51.2754 30.7204 50.3352L27.7208 50.2876ZM28.9957 49.0327H22.3951V52.0327H28.9957V49.0327ZM23.8559 50.1918C23.5974 49.0839 22.6056 48.2575 21.4171 48.2575V51.2575C21.1803 51.2575 20.9856 51.093 20.9344 50.8736L23.8559 50.1918ZM21.4171 48.2575H20.1126V51.2575H21.4171V48.2575ZM20.1126 48.2575C18.9242 48.2575 17.9324 49.0839 17.6738 50.1918L20.5953 50.8736C20.5441 51.093 20.3494 51.2575 20.1126 51.2575V48.2575ZM19.1346 49.0327H14.8776V52.0327H19.1346V49.0327ZM40.9938 52.0327H45.1196V49.0327H40.9938V52.0327ZM40.0158 51.2575C39.779 51.2575 39.5843 51.093 39.5331 50.8736L42.4546 50.1918C42.1961 49.084 41.2043 48.2575 40.0158 48.2575V51.2575ZM38.7113 51.2575H40.0158V48.2575H38.7113V51.2575ZM39.194 50.8736C39.1429 51.093 38.9481 51.2575 38.7113 51.2575V48.2575C37.5229 48.2575 36.5311 49.084 36.2725 50.1918L39.194 50.8736ZM31.0043 52.0327H37.7333V49.0327H31.0043V52.0327ZM29.2795 50.3352C29.2944 51.2755 30.0608 52.0327 31.0043 52.0327V49.0327C31.7017 49.0327 32.2681 49.5924 32.2792 50.2876L29.2795 50.3352ZM29.2793 50.3062L29.2793 50.3098L32.2793 50.313L32.2793 50.3093L29.2793 50.3062ZM29.2793 42.638V50.3077H32.2793V42.638H29.2793ZM46.2819 41.138H30.7793V44.138H46.2819V41.138ZM47.7819 49.3754V42.638H44.7819V49.3754H47.7819ZM45.1281 52.0327C46.5865 52.0244 47.7675 50.8471 47.7818 49.3901L44.7819 49.3607C44.7837 49.1797 44.9301 49.0338 45.1112 49.0327L45.1281 52.0327Z" fill="#F8F9FA" mask="url(#path-1-outside-1_50_6500)"/>
<rect x="19.1083" y="49.7573" width="3.31306" height="4.43015" rx="1.0309" fill="#212529"/>
<rect x="37.7069" y="49.7573" width="3.31306" height="4.43015" rx="1.0309" fill="#212529"/>
<path d="M12.9387 11.1978C12.9387 10.0932 13.8342 9.19775 14.9387 9.19775H30V42.9319C30 43.5012 29.5384 43.9628 28.9691 43.9628H13.9696C13.4003 43.9628 12.9387 43.5012 12.9387 42.9319V11.1978Z" fill="#FFE066" stroke="#212529" stroke-width="1.6" stroke-linejoin="round"/>
<path d="M30 9.19775H45.0612C46.1658 9.19775 47.0612 10.0932 47.0612 11.1978V42.9319C47.0612 43.5012 46.5997 43.9628 46.0303 43.9628H31.0309C30.4616 43.9628 30 43.5012 30 42.9319V9.19775Z" fill="#FFE066" stroke="#212529" stroke-width="1.6" stroke-linejoin="round"/>
<path d="M47.0613 41.8584L47.0613 49.3118C47.0613 50.4164 46.1658 51.3118 45.0613 51.3118L14.9388 51.3118C13.8343 51.3118 12.9388 50.4164 12.9388 49.3118L12.9388 42.8893C12.9388 42.3199 13.4004 41.8584 13.9697 41.8584L47.0613 41.8584Z" fill="#FFD43B" stroke="#212529" stroke-width="1.6" stroke-linejoin="round"/>
<g style="mix-blend-mode:multiply">
<rect x="45.246" y="9.19775" width="1.17353" height="41.3761" fill="#DEE2E6"/>
</g>
<path d="M25.8029 25.0811L25.8029 22.4327" stroke="#212529" stroke-width="2" stroke-linecap="round" stroke-linejoin="round"/>
<path d="M34.1414 25.0811L34.1414 22.4327" stroke="#212529" stroke-width="2" stroke-linecap="round" stroke-linejoin="round"/>
</svg>
