<svg width="60" height="60" viewBox="0 0 60 60" fill="none" xmlns="http://www.w3.org/2000/svg">
<g clip-path="url(#clip0_50_9808)">
<mask id="path-1-outside-1_50_9808" maskUnits="userSpaceOnUse" x="5.8479" y="5.9375" width="48" height="47" fill="black">
<rect fill="white" x="5.8479" y="5.9375" width="48" height="47"/>
<path fill-rule="evenodd" clip-rule="evenodd" d="M40.5196 8.93319C45.5833 11.1408 48.0921 16.3662 48.2531 21.7433C48.4258 27.5113 45.9589 31.9694 41.5494 35.373C38.7081 37.5661 35.4391 37.5681 33.0468 36.4472C30.7234 35.3587 28.9576 33.0179 29.7737 30.4775C30.4627 28.3326 31.7338 26.8858 32.7934 25.7047C33.9035 24.4673 34.649 23.6349 34.8272 22.5793C35.0061 21.52 34.6622 20.4973 33.9675 19.1612C33.7701 18.7817 33.541 18.3723 33.2959 17.9341L33.2957 17.9338C32.7165 16.8986 32.0476 15.7031 31.4952 14.3625C30.5903 12.1661 31.1738 9.98815 33.0006 8.80359C34.7647 7.65971 37.4504 7.59512 40.5196 8.93319ZM46.5362 21.7947C46.3884 16.8585 44.1065 12.3707 39.8332 10.5077C37.0667 9.30164 35.0401 9.52829 33.9351 10.2448C32.8929 10.9206 32.4506 12.1722 33.0834 13.7082C33.596 14.9524 34.1767 15.9889 34.7349 16.9851C34.995 17.4494 35.2503 17.905 35.4914 18.3688C36.2187 19.7675 36.7983 21.222 36.5209 22.8653C36.2577 24.4243 35.1973 25.6018 34.234 26.6716C34.1796 26.732 34.1256 26.792 34.072 26.8517C33.0183 28.0262 31.9762 29.2371 31.409 31.0028C30.9688 32.3731 31.852 33.9906 33.7755 34.8918C35.6301 35.7607 38.2059 35.7839 40.4999 34.0133C44.5309 30.9019 46.6904 26.9442 46.5362 21.7947ZM21.7888 50.8613C16.265 50.9065 11.8461 47.1551 9.50995 42.3093C7.00393 37.1113 7.44207 32.0351 10.084 27.1311C11.7863 23.9712 14.7713 22.6385 17.4127 22.6883C19.978 22.7367 22.5438 24.1558 22.8327 26.8084C23.0766 29.048 22.5046 30.887 22.0176 32.3971C21.5075 33.9793 21.1654 35.0431 21.4324 36.0798C21.7003 37.1201 22.4308 37.9143 23.6093 38.8518C23.9441 39.1181 24.3201 39.3989 24.7225 39.6994L24.7226 39.6994L24.7226 39.6995C25.673 40.4091 26.7708 41.2288 27.821 42.2283C29.5417 43.866 29.8955 46.0928 28.7092 47.9185C27.5636 49.6815 25.1368 50.8339 21.7888 50.8613ZM11.0572 41.5634C13.2018 46.0118 17.1131 49.1818 21.7747 49.1437C24.7925 49.119 26.5513 48.0869 27.2689 46.9826C27.9457 45.941 27.8401 44.6178 26.6368 43.4725C25.6621 42.5448 24.7096 41.8345 23.7943 41.1518L23.7941 41.1517C23.3675 40.8335 22.949 40.5214 22.5399 40.196C21.3062 39.2146 20.1846 38.122 19.769 36.5081C19.3747 34.977 19.8638 33.4698 20.3082 32.1005L20.3086 32.0992C20.3336 32.0224 20.3584 31.946 20.3828 31.87C20.8671 30.3683 21.3259 28.8381 21.1251 26.9943C20.9693 25.5636 19.5041 24.4457 17.3803 24.4057C15.3327 24.3671 12.9705 25.3946 11.5962 27.9457C9.18105 32.4287 8.81988 36.9227 11.0572 41.5634ZM47.0816 49.4773C50.0149 48.0106 52.3024 45.2623 52.225 41.836C52.1787 39.7872 51.4501 38.2498 50.2899 37.5194C49.0733 36.7536 47.6145 37.0223 46.58 38.1411C45.9811 38.7888 45.4843 39.4744 45.0653 40.0526C44.8922 40.2916 44.7323 40.5122 44.584 40.7042C44.0401 41.4085 43.6144 41.7943 43.0782 41.9407C42.5452 42.0862 41.9836 41.9229 41.0114 41.6248C40.1034 41.3464 38.9543 41.0046 37.5604 41.1767C35.8 41.3942 34.9324 43.1007 34.9253 44.6985C34.9179 46.364 35.7858 48.2265 37.7783 49.2631C40.7936 50.8319 43.916 51.06 47.0816 49.4773ZM50.6986 41.8705C50.7587 44.5306 48.9814 46.8204 46.3988 48.1117C43.7252 49.4484 41.1212 49.2813 38.483 47.9087C37.0358 47.1557 36.4471 45.8429 36.4521 44.7053C36.4575 43.5 37.0714 42.7755 37.7475 42.692C38.7901 42.5633 39.6634 42.8085 40.5639 43.0845L40.7161 43.1315C41.5237 43.3815 42.4955 43.6824 43.4802 43.4136C44.5243 43.1286 45.2102 42.3913 45.7924 41.6374C45.9923 41.3786 46.1795 41.1198 46.3681 40.859C46.7636 40.3123 47.165 39.7574 47.701 39.1777C48.3045 38.525 48.9634 38.4885 49.4765 38.8115C50.0458 39.1699 50.6589 40.1152 50.6986 41.8705Z"/>
</mask>
<path fill-rule="evenodd" clip-rule="evenodd" d="M40.5196 8.93319C45.5833 11.1408 48.0921 16.3662 48.2531 21.7433C48.4258 27.5113 45.9589 31.9694 41.5494 35.373C38.7081 37.5661 35.4391 37.5681 33.0468 36.4472C30.7234 35.3587 28.9576 33.0179 29.7737 30.4775C30.4627 28.3326 31.7338 26.8858 32.7934 25.7047C33.9035 24.4673 34.649 23.6349 34.8272 22.5793C35.0061 21.52 34.6622 20.4973 33.9675 19.1612C33.7701 18.7817 33.541 18.3723 33.2959 17.9341L33.2957 17.9338C32.7165 16.8986 32.0476 15.7031 31.4952 14.3625C30.5903 12.1661 31.1738 9.98815 33.0006 8.80359C34.7647 7.65971 37.4504 7.59512 40.5196 8.93319ZM46.5362 21.7947C46.3884 16.8585 44.1065 12.3707 39.8332 10.5077C37.0667 9.30164 35.0401 9.52829 33.9351 10.2448C32.8929 10.9206 32.4506 12.1722 33.0834 13.7082C33.596 14.9524 34.1767 15.9889 34.7349 16.9851C34.995 17.4494 35.2503 17.905 35.4914 18.3688C36.2187 19.7675 36.7983 21.222 36.5209 22.8653C36.2577 24.4243 35.1973 25.6018 34.234 26.6716C34.1796 26.732 34.1256 26.792 34.072 26.8517C33.0183 28.0262 31.9762 29.2371 31.409 31.0028C30.9688 32.3731 31.852 33.9906 33.7755 34.8918C35.6301 35.7607 38.2059 35.7839 40.4999 34.0133C44.5309 30.9019 46.6904 26.9442 46.5362 21.7947ZM21.7888 50.8613C16.265 50.9065 11.8461 47.1551 9.50995 42.3093C7.00393 37.1113 7.44207 32.0351 10.084 27.1311C11.7863 23.9712 14.7713 22.6385 17.4127 22.6883C19.978 22.7367 22.5438 24.1558 22.8327 26.8084C23.0766 29.048 22.5046 30.887 22.0176 32.3971C21.5075 33.9793 21.1654 35.0431 21.4324 36.0798C21.7003 37.1201 22.4308 37.9143 23.6093 38.8518C23.9441 39.1181 24.3201 39.3989 24.7225 39.6994L24.7226 39.6994L24.7226 39.6995C25.673 40.4091 26.7708 41.2288 27.821 42.2283C29.5417 43.866 29.8955 46.0928 28.7092 47.9185C27.5636 49.6815 25.1368 50.8339 21.7888 50.8613ZM11.0572 41.5634C13.2018 46.0118 17.1131 49.1818 21.7747 49.1437C24.7925 49.119 26.5513 48.0869 27.2689 46.9826C27.9457 45.941 27.8401 44.6178 26.6368 43.4725C25.6621 42.5448 24.7096 41.8345 23.7943 41.1518L23.7941 41.1517C23.3675 40.8335 22.949 40.5214 22.5399 40.196C21.3062 39.2146 20.1846 38.122 19.769 36.5081C19.3747 34.977 19.8638 33.4698 20.3082 32.1005L20.3086 32.0992C20.3336 32.0224 20.3584 31.946 20.3828 31.87C20.8671 30.3683 21.3259 28.8381 21.1251 26.9943C20.9693 25.5636 19.5041 24.4457 17.3803 24.4057C15.3327 24.3671 12.9705 25.3946 11.5962 27.9457C9.18105 32.4287 8.81988 36.9227 11.0572 41.5634ZM47.0816 49.4773C50.0149 48.0106 52.3024 45.2623 52.225 41.836C52.1787 39.7872 51.4501 38.2498 50.2899 37.5194C49.0733 36.7536 47.6145 37.0223 46.58 38.1411C45.9811 38.7888 45.4843 39.4744 45.0653 40.0526C44.8922 40.2916 44.7323 40.5122 44.584 40.7042C44.0401 41.4085 43.6144 41.7943 43.0782 41.9407C42.5452 42.0862 41.9836 41.9229 41.0114 41.6248C40.1034 41.3464 38.9543 41.0046 37.5604 41.1767C35.8 41.3942 34.9324 43.1007 34.9253 44.6985C34.9179 46.364 35.7858 48.2265 37.7783 49.2631C40.7936 50.8319 43.916 51.06 47.0816 49.4773ZM50.6986 41.8705C50.7587 44.5306 48.9814 46.8204 46.3988 48.1117C43.7252 49.4484 41.1212 49.2813 38.483 47.9087C37.0358 47.1557 36.4471 45.8429 36.4521 44.7053C36.4575 43.5 37.0714 42.7755 37.7475 42.692C38.7901 42.5633 39.6634 42.8085 40.5639 43.0845L40.7161 43.1315C41.5237 43.3815 42.4955 43.6824 43.4802 43.4136C44.5243 43.1286 45.2102 42.3913 45.7924 41.6374C45.9923 41.3786 46.1795 41.1198 46.3681 40.859C46.7636 40.3123 47.165 39.7574 47.701 39.1777C48.3045 38.525 48.9634 38.4885 49.4765 38.8115C50.0458 39.1699 50.6589 40.1152 50.6986 41.8705Z" fill="#F8F9FA"/>
<path d="M48.2531 21.7433L49.7524 21.6984L49.7524 21.6984L48.2531 21.7433ZM40.5196 8.93319L41.119 7.55818L41.119 7.55818L40.5196 8.93319ZM41.5494 35.373L40.6328 34.1856L40.6328 34.1856L41.5494 35.373ZM33.0468 36.4473L32.4104 37.8056L32.4104 37.8056L33.0468 36.4473ZM29.7737 30.4775L28.3455 30.0187L28.3455 30.0187L29.7737 30.4775ZM32.7934 25.7047L33.91 26.7064L33.91 26.7064L32.7934 25.7047ZM34.8272 22.5793L33.3481 22.3296L33.3481 22.3296L34.8272 22.5793ZM33.9674 19.1612L32.6366 19.8532L32.6366 19.8532L33.9674 19.1612ZM33.2958 17.9341L31.9821 18.658L31.9868 18.6665L33.2958 17.9341ZM33.2957 17.9338L34.6095 17.2099L34.6047 17.2014L33.2957 17.9338ZM31.4952 14.3625L30.1083 14.9339L30.1083 14.9339L31.4952 14.3625ZM33.0006 8.80359L33.8167 10.0622L33.8167 10.0622L33.0006 8.80359ZM39.8331 10.5077L40.4326 9.13271L40.4326 9.1327L39.8331 10.5077ZM46.5362 21.7947L45.0368 21.8396L45.0368 21.8396L46.5362 21.7947ZM33.9351 10.2448L34.7512 11.5034L34.7512 11.5034L33.9351 10.2448ZM33.0834 13.7082L31.6965 14.2796L31.6965 14.2796L33.0834 13.7082ZM34.7348 16.9851L36.0434 16.2519L36.0434 16.2519L34.7348 16.9851ZM35.4914 18.3688L36.8222 17.6768L36.8222 17.6768L35.4914 18.3688ZM36.5209 22.8653L35.0418 22.6156L35.0418 22.6156L36.5209 22.8653ZM34.2339 26.6716L35.3486 27.6754L35.3486 27.6754L34.2339 26.6716ZM34.072 26.8517L35.1885 27.8534L35.1885 27.8534L34.072 26.8517ZM31.409 31.0028L29.9809 30.5441L29.9809 30.5441L31.409 31.0028ZM33.7755 34.8918L33.1391 36.2502L33.1391 36.2502L33.7755 34.8918ZM40.4998 34.0133L39.5833 32.8259L39.5833 32.8259L40.4998 34.0133ZM9.50993 42.3093L8.15876 42.9607L9.50993 42.3093ZM21.7887 50.8613L21.801 52.3612L21.801 52.3612L21.7887 50.8613ZM10.084 27.1311L11.4045 27.8425L11.4045 27.8425L10.084 27.1311ZM17.4127 22.6883L17.3844 24.1881L17.3844 24.1881L17.4127 22.6883ZM22.8327 26.8084L21.3415 26.9708L21.3415 26.9708L22.8327 26.8084ZM22.0176 32.3971L23.4452 32.8575L23.4452 32.8575L22.0176 32.3971ZM21.4324 36.0798L19.9798 36.4539L19.9798 36.4539L21.4324 36.0798ZM23.6093 38.8518L24.5431 37.6779L24.5431 37.6779L23.6093 38.8518ZM24.7225 39.6994L25.6828 38.5471C25.6623 38.53 25.6413 38.5134 25.62 38.4975L24.7225 39.6994ZM24.7226 39.6994L23.7623 40.8518C23.7946 40.8786 23.8279 40.9042 23.8624 40.9283L24.7226 39.6994ZM24.7226 39.6995L25.6201 38.4975C25.6078 38.4884 25.5954 38.4794 25.5828 38.4706L24.7226 39.6995ZM27.821 42.2283L26.7868 43.3149L26.7868 43.3149L27.821 42.2283ZM28.7092 47.9185L27.4514 47.1012L27.4514 47.1012L28.7092 47.9185ZM21.7747 49.1437L21.7624 47.6438L21.7624 47.6438L21.7747 49.1437ZM11.0572 41.5634L12.4083 40.912L12.4083 40.912L11.0572 41.5634ZM27.2689 46.9826L28.5267 47.7999L28.5267 47.7999L27.2689 46.9826ZM26.6368 43.4725L27.6709 42.386L27.6709 42.386L26.6368 43.4725ZM23.7943 41.1518L22.8777 42.3392C22.8843 42.3443 22.8909 42.3493 22.8975 42.3543L23.7943 41.1518ZM23.7941 41.1517L24.7107 39.9643C24.7041 39.9593 24.6975 39.9542 24.6909 39.9493L23.7941 41.1517ZM22.5399 40.196L23.4738 39.0221L23.4738 39.0221L22.5399 40.196ZM19.769 36.5081L21.2216 36.134L21.2216 36.134L19.769 36.5081ZM20.3082 32.1005L18.8817 31.6367L18.8815 31.6374L20.3082 32.1005ZM20.3086 32.0992L21.7351 32.563L21.7354 32.5622L20.3086 32.0992ZM20.3828 31.87L21.8104 32.3304L21.8105 32.3304L20.3828 31.87ZM21.1251 26.9943L22.6163 26.832L22.6163 26.832L21.1251 26.9943ZM17.3803 24.4057L17.4086 22.9059L17.4086 22.9059L17.3803 24.4057ZM11.5961 27.9457L10.2756 27.2343L10.2756 27.2343L11.5961 27.9457ZM52.225 41.836L50.7253 41.8699L50.7253 41.8699L52.225 41.836ZM47.0816 49.4773L47.7524 50.8189L47.7524 50.8189L47.0816 49.4773ZM50.2898 37.5194L51.0889 36.25L51.0889 36.25L50.2898 37.5194ZM46.58 38.1411L47.6813 39.1595L47.6813 39.1595L46.58 38.1411ZM45.0653 40.0526L46.2799 40.9328L46.2799 40.9328L45.0653 40.0526ZM44.584 40.7042L45.7712 41.621L45.7712 41.621L44.584 40.7042ZM43.0781 41.9407L42.6832 40.4936L42.6832 40.4936L43.0781 41.9407ZM41.0114 41.6248L41.4511 40.1907L41.4511 40.1907L41.0114 41.6248ZM37.5603 41.1767L37.3765 39.6881L37.3765 39.6881L37.5603 41.1767ZM34.9253 44.6985L33.4253 44.6919L33.4253 44.6919L34.9253 44.6985ZM37.7783 49.2631L38.4706 47.9324L38.4706 47.9324L37.7783 49.2631ZM46.3988 48.1117L47.0696 49.4533L47.0696 49.4533L46.3988 48.1117ZM50.6985 41.8705L49.1989 41.9043L49.1989 41.9044L50.6985 41.8705ZM38.4829 47.9087L39.1753 46.578L39.1753 46.578L38.4829 47.9087ZM36.4521 44.7053L34.9521 44.6986L34.9521 44.6986L36.4521 44.7053ZM37.7475 42.692L37.9314 44.1807L37.9314 44.1807L37.7475 42.692ZM40.5638 43.0845L41.0061 41.6512L41.0035 41.6504L40.5638 43.0845ZM40.7161 43.1315L41.1597 41.6986L41.1584 41.6982L40.7161 43.1315ZM43.4802 43.4136L43.0852 41.9665L43.0852 41.9665L43.4802 43.4136ZM45.7924 41.6374L44.6052 40.7206L44.6052 40.7206L45.7924 41.6374ZM46.3681 40.859L45.1527 39.9799L45.1527 39.9799L46.3681 40.859ZM47.701 39.1777L48.8023 40.196L48.8023 40.196L47.701 39.1777ZM49.4765 38.8115L48.6774 40.081L48.6774 40.081L49.4765 38.8115ZM49.7524 21.6984C49.5799 15.9378 46.8741 10.0672 41.119 7.55818L39.9201 10.3082C44.2925 12.2144 46.6042 16.7946 46.7537 21.7882L49.7524 21.6984ZM42.4659 36.5604C47.2058 32.9019 49.9413 28.0068 49.7524 21.6984L46.7537 21.7882C46.9102 27.0158 44.7121 31.037 40.6328 34.1856L42.4659 36.5604ZM32.4104 37.8056C35.2718 39.1462 39.1461 39.1228 42.4659 36.5604L40.6328 34.1856C38.27 36.0094 35.6064 35.99 33.6832 35.0889L32.4104 37.8056ZM28.3455 30.0187C27.1979 33.5912 29.7508 36.5595 32.4104 37.8056L33.6832 35.0889C31.696 34.1579 30.7172 32.4447 31.2018 30.9363L28.3455 30.0187ZM31.6769 24.703C30.6114 25.8906 29.1408 27.5431 28.3455 30.0187L31.2018 30.9363C31.7846 29.1221 32.8562 27.881 33.91 26.7064L31.6769 24.703ZM33.3481 22.3296C33.2576 22.866 32.8866 23.3545 31.6769 24.703L33.91 26.7064C34.9203 25.5801 36.0404 24.4037 36.3063 22.829L33.3481 22.3296ZM32.6366 19.8532C33.3033 21.1354 33.4408 21.7808 33.3481 22.3296L36.3063 22.829C36.5713 21.2593 36.021 19.8591 35.2983 18.4692L32.6366 19.8532ZM31.9868 18.6665C32.2348 19.1097 32.4519 19.498 32.6366 19.8532L35.2983 18.4692C35.0883 18.0654 34.8472 17.6348 34.6049 17.2016L31.9868 18.6665ZM31.9819 18.6577L31.9821 18.658L34.6096 17.2102L34.6095 17.2099L31.9819 18.6577ZM30.1083 14.9339C30.6995 16.3689 31.4114 17.6382 31.9867 18.6662L34.6047 17.2014C34.0216 16.1591 33.3956 15.0373 32.8821 13.7911L30.1083 14.9339ZM32.1845 7.54502C29.6692 9.17598 28.9674 12.1647 30.1083 14.9339L32.8821 13.7911C32.2132 12.1674 32.6783 10.8003 33.8167 10.0622L32.1845 7.54502ZM41.119 7.55818C37.7873 6.10566 34.5254 6.02711 32.1845 7.54502L33.8167 10.0622C35.0039 9.29232 37.1134 9.08458 39.9201 10.3082L41.119 7.55818ZM39.2337 11.8827C42.818 13.4454 44.9006 17.2903 45.0368 21.8396L48.0355 21.7498C47.8761 16.4268 45.3948 11.2961 40.4326 9.13271L39.2337 11.8827ZM34.7512 11.5034C35.2821 11.159 36.7341 10.793 39.2337 11.8827L40.4326 9.1327C37.3993 7.8103 34.7979 7.89753 33.119 8.98621L34.7512 11.5034ZM34.4703 13.1368C34.256 12.6167 34.2694 12.263 34.3276 12.0509C34.3841 11.845 34.5129 11.6579 34.7512 11.5034L33.119 8.98621C32.315 9.50751 31.7015 10.2841 31.4346 11.2569C31.1693 12.2236 31.2779 13.2636 31.6965 14.2796L34.4703 13.1368ZM36.0434 16.2519C35.4825 15.2507 34.9442 14.287 34.4703 13.1368L31.6965 14.2796C32.2478 15.6178 32.8709 16.7271 33.4262 17.7182L36.0434 16.2519ZM36.8222 17.6768C36.5685 17.1888 36.3017 16.7128 36.0434 16.2519L33.4262 17.7182C33.6883 18.1861 33.932 18.6213 34.1606 19.0608L36.8222 17.6768ZM37.9999 23.115C38.3634 20.9621 37.5783 19.1307 36.8222 17.6768L34.1606 19.0608C34.8591 20.4042 35.2332 21.4819 35.0418 22.6156L37.9999 23.115ZM35.3486 27.6754C36.2586 26.6649 37.6524 25.1737 37.9999 23.115L35.0418 22.6156C34.8629 23.675 34.136 24.5388 33.1193 25.6678L35.3486 27.6754ZM35.1885 27.8534C35.241 27.7949 35.2941 27.7359 35.3486 27.6754L33.1193 25.6678C33.0651 25.728 33.0101 25.7891 32.9554 25.85L35.1885 27.8534ZM32.8371 31.4616C33.2978 30.0275 34.1393 29.0229 35.1885 27.8534L32.9554 25.85C31.8973 27.0295 30.6546 28.4467 29.9809 30.5441L32.8371 31.4616ZM34.4119 33.5335C32.8573 32.8052 32.7202 31.8254 32.8371 31.4616L29.9809 30.5441C29.2174 32.9207 30.8467 35.1761 33.1391 36.2502L34.4119 33.5335ZM39.5833 32.8259C37.7668 34.2279 35.7961 34.1821 34.4119 33.5335L33.1391 36.2502C35.464 37.3394 38.645 37.3398 41.4164 35.2007L39.5833 32.8259ZM45.0368 21.8396C45.1749 26.4493 43.2835 29.9698 39.5833 32.8259L41.4164 35.2007C45.7782 31.8339 48.2058 27.4392 48.0355 21.7498L45.0368 21.8396ZM8.15876 42.9607C10.6615 48.1521 15.523 52.4126 21.801 52.3612L21.7765 49.3613C17.0068 49.4003 13.0307 46.1581 10.8611 41.6579L8.15876 42.9607ZM8.76342 26.4197C5.92357 31.691 5.41794 37.2757 8.15876 42.9607L10.8611 41.6579C8.58987 36.9469 8.96053 32.3791 11.4045 27.8425L8.76342 26.4197ZM17.4409 21.1886C14.2816 21.129 10.7524 22.7277 8.76342 26.4197L11.4045 27.8425C12.8202 25.2147 15.2609 24.148 17.3844 24.1881L17.4409 21.1886ZM24.3238 26.646C23.9176 22.9158 20.3774 21.2439 17.4409 21.1886L17.3844 24.1881C19.5785 24.2294 21.17 25.3957 21.3415 26.9708L24.3238 26.646ZM23.4452 32.8575C23.9348 31.339 24.6053 29.231 24.3238 26.646L21.3415 26.9708C21.5478 28.8651 21.0742 30.4349 20.59 31.9368L23.4452 32.8575ZM22.885 35.7057C22.7493 35.1789 22.8893 34.5817 23.4452 32.8575L20.59 31.9368C20.1257 33.3769 19.5815 34.9073 19.9798 36.4539L22.885 35.7057ZM24.5431 37.6779C23.4121 36.7782 23.0238 36.2447 22.885 35.7057L19.9798 36.4539C20.3768 37.9955 21.4495 39.0504 22.6754 40.0257L24.5431 37.6779ZM25.62 38.4975C25.2129 38.1935 24.8564 37.9272 24.5431 37.6779L22.6754 40.0257C23.0317 40.3091 23.4273 40.6043 23.8251 40.9013L25.62 38.4975ZM25.6828 38.5471L25.6828 38.5471L23.7622 40.8517L23.7623 40.8518L25.6828 38.5471ZM25.5828 38.4706L25.5827 38.4706L23.8624 40.9283L23.8624 40.9283L25.5828 38.4706ZM28.8551 41.1418C27.7309 40.0718 26.564 39.2023 25.6201 38.4975L23.8252 40.9014C24.7821 41.6159 25.8106 42.3857 26.7868 43.3149L28.8551 41.1418ZM29.967 48.7358C31.6003 46.2221 31.0245 43.2066 28.8551 41.1418L26.7868 43.3149C28.0588 44.5255 28.1906 45.9636 27.4514 47.1012L29.967 48.7358ZM21.801 52.3612C25.4354 52.3315 28.4468 51.0753 29.967 48.7358L27.4514 47.1012C26.6804 48.2877 24.8382 49.3363 21.7765 49.3613L21.801 52.3612ZM21.7624 47.6438C17.8524 47.6757 14.3848 45.0118 12.4083 40.912L9.70599 42.2148C12.0187 47.0118 16.3738 50.6879 21.787 50.6437L21.7624 47.6438ZM26.0111 46.1653C25.6663 46.696 24.4891 47.6215 21.7624 47.6438L21.787 50.6437C25.0958 50.6166 27.4364 49.4778 28.5267 47.7999L26.0111 46.1653ZM25.6026 44.5591C26.0101 44.9468 26.1419 45.2754 26.1751 45.4928C26.2073 45.7039 26.1658 45.9272 26.0111 46.1653L28.5267 47.7999C29.0487 46.9965 29.2929 46.0374 29.1407 45.0402C28.9895 44.0492 28.4668 43.1435 27.6709 42.386L25.6026 44.5591ZM22.8975 42.3543C23.8174 43.0403 24.7015 43.7014 25.6026 44.5591L27.6709 42.386C26.6225 41.3882 25.6018 40.6286 24.6911 39.9494L22.8975 42.3543ZM22.8775 42.3391L22.8777 42.3392L24.7109 39.9644L24.7107 39.9643L22.8775 42.3391ZM21.6061 41.3699C22.0365 41.7122 22.4739 42.0383 22.8974 42.3541L24.6909 39.9493C24.2611 39.6287 23.8614 39.3305 23.4738 39.0221L21.6061 41.3699ZM18.3164 36.8822C18.8609 38.9966 20.3236 40.3496 21.6061 41.3699L23.4738 39.0221C22.2888 38.0795 21.5083 37.2474 21.2216 36.134L18.3164 36.8822ZM18.8815 31.6374C18.4617 32.9309 17.7957 34.8603 18.3164 36.8822L21.2216 36.134C20.9537 35.0936 21.2659 34.0087 21.735 32.5635L18.8815 31.6374ZM18.8821 31.6354L18.8817 31.6367L21.7347 32.5642L21.7351 32.563L18.8821 31.6354ZM18.9552 31.4097C18.9312 31.4841 18.9069 31.5591 18.8819 31.6362L21.7354 32.5622C21.7602 32.4856 21.7855 32.4079 21.8104 32.3304L18.9552 31.4097ZM19.6339 27.1567C19.797 28.6542 19.4374 29.9143 18.9552 31.4097L21.8105 32.3304C22.2967 30.8223 22.8548 29.0219 22.6163 26.832L19.6339 27.1567ZM17.352 25.9054C19.0685 25.9378 19.5925 26.7768 19.6339 27.1567L22.6163 26.832C22.346 24.3504 19.9396 22.9536 17.4086 22.9059L17.352 25.9054ZM12.9167 28.6572C14.005 26.637 15.8237 25.8766 17.352 25.9054L17.4086 22.9059C14.8417 22.8576 11.936 24.1522 10.2756 27.2343L12.9167 28.6572ZM12.4083 40.912C10.4056 36.7578 10.6998 32.7722 12.9167 28.6572L10.2756 27.2343C7.66224 32.0852 7.23415 37.0877 9.70599 42.2148L12.4083 40.912ZM50.7253 41.8699C50.7857 44.5417 49.0015 46.8402 46.4108 48.1356L47.7524 50.8189C51.0282 49.181 53.819 45.983 53.7246 41.8021L50.7253 41.8699ZM49.4907 38.7889C50.0687 39.1527 50.6855 40.1065 50.7253 41.8699L53.7246 41.8021C53.6718 39.4679 52.8315 37.3469 51.0889 36.25L49.4907 38.7889ZM47.6813 39.1595C48.2963 38.4944 48.9698 38.4609 49.4908 38.7889L51.0889 36.25C49.1768 35.0464 46.9327 35.5502 45.4786 37.1228L47.6813 39.1595ZM46.2799 40.9328C46.704 40.3476 47.1518 39.7322 47.6813 39.1595L45.4786 37.1228C44.8103 37.8455 44.2646 38.6013 43.8506 39.1725L46.2799 40.9328ZM45.7712 41.621C45.9363 41.4073 46.1104 41.1667 46.2799 40.9328L43.8506 39.1725C43.6738 39.4165 43.5283 39.6171 43.3968 39.7874L45.7712 41.621ZM43.4731 43.3877C44.5091 43.105 45.1906 42.3729 45.7712 41.621L43.3968 39.7874C42.8896 40.4441 42.7197 40.4836 42.6832 40.4936L43.4731 43.3877ZM40.5717 43.0589C41.0352 43.201 41.5082 43.346 41.9405 43.4248C42.4028 43.509 42.9187 43.5391 43.4731 43.3877L42.6832 40.4936C42.7046 40.4878 42.6732 40.5089 42.4785 40.4734C42.2536 40.4324 41.9598 40.3467 41.4511 40.1907L40.5717 43.0589ZM37.7442 42.6654C38.7936 42.5358 39.6725 42.7832 40.5717 43.0589L41.4511 40.1907C40.5344 39.9096 39.115 39.4733 37.3765 39.6881L37.7442 42.6654ZM36.4253 44.7052C36.4277 44.1547 36.582 43.6272 36.8315 43.2549C37.0626 42.91 37.356 42.7134 37.7442 42.6654L37.3765 39.6881C34.5364 40.0388 33.434 42.7282 33.4253 44.6919L36.4253 44.7052ZM38.4706 47.9324C37.0145 47.1749 36.4202 45.8529 36.4253 44.7052L33.4253 44.6919C33.4156 46.8752 34.5571 49.2781 37.0859 50.5938L38.4706 47.9324ZM46.4108 48.1356C43.7289 49.4766 41.1158 49.3087 38.4706 47.9324L37.0859 50.5938C40.4713 52.3551 44.1031 52.6435 47.7524 50.8189L46.4108 48.1356ZM47.0696 49.4533C49.9992 47.9885 52.2752 45.2473 52.1982 41.8366L49.1989 41.9044C49.2421 43.8139 47.9635 45.6522 45.728 46.77L47.0696 49.4533ZM37.7906 49.2393C40.7998 50.8049 43.9131 51.0315 47.0696 49.4533L45.728 46.77C43.5373 47.8653 41.4426 47.7576 39.1753 46.578L37.7906 49.2393ZM34.9521 44.6986C34.9448 46.356 35.8087 48.2082 37.7906 49.2393L39.1753 46.578C38.2628 46.1032 37.9493 45.3298 37.9521 44.7119L34.9521 44.6986ZM37.5636 41.2033C35.8499 41.415 34.9593 43.0708 34.9521 44.6986L37.9521 44.7119C37.9536 44.3575 38.0438 44.1859 38.0786 44.1361C38.1132 44.0865 38.0797 44.1624 37.9314 44.1807L37.5636 41.2033ZM41.0035 41.6504C40.0973 41.3726 38.9522 41.0319 37.5636 41.2033L37.9314 44.1807C38.628 44.0947 39.2295 44.2444 40.1241 44.5187L41.0035 41.6504ZM41.1584 41.6982L41.0061 41.6512L40.1216 44.5179L40.2738 44.5648L41.1584 41.6982ZM43.0852 41.9665C42.5864 42.1027 42.0332 41.969 41.1597 41.6986L40.2725 44.5644C41.0142 44.794 42.4046 45.2621 43.8752 44.8607L43.0852 41.9665ZM44.6052 40.7206C44.0613 41.425 43.6309 41.8176 43.0852 41.9665L43.8752 44.8607C45.4178 44.4396 46.3592 43.3577 46.9796 42.5542L44.6052 40.7206ZM45.1527 39.9799C44.962 40.2435 44.7883 40.4834 44.6052 40.7206L46.9796 42.5542C47.1962 42.2738 47.397 41.996 47.5835 41.7382L45.1527 39.9799ZM46.5996 38.1593C45.9947 38.8136 45.5452 39.4373 45.1527 39.9799L47.5835 41.7382C47.9819 41.1873 48.3353 40.7012 48.8023 40.196L46.5996 38.1593ZM50.2756 37.5421C49.7445 37.2078 49.084 37.0321 48.3779 37.1488C47.6781 37.2646 47.0772 37.6429 46.5996 38.1593L48.8023 40.196C48.866 40.1272 48.9064 40.1014 48.9163 40.0956C48.9245 40.0908 48.9076 40.102 48.8674 40.1086C48.8266 40.1154 48.7826 40.114 48.7426 40.1051C48.7043 40.0966 48.6826 40.0842 48.6774 40.081L50.2756 37.5421ZM52.1982 41.8366C52.1519 39.7887 51.4229 38.2643 50.2756 37.5421L48.6774 40.081C48.6688 40.0755 49.1659 40.4417 49.1989 41.9043L52.1982 41.8366Z" fill="#F8F9FA" mask="url(#path-1-outside-1_50_9808)"/>
<path d="M40.2651 9.85063C44.9336 11.8859 47.329 16.7425 47.4834 21.8992C47.6468 27.358 45.3337 31.5658 41.1134 34.8233C35.9781 38.787 29.4238 34.781 30.6801 30.8703C31.9364 26.9597 35.3065 25.5551 35.7628 22.8525C36.2191 20.1499 33.9158 17.8979 32.3781 14.1655C30.8403 10.4331 34.4295 7.30649 40.2651 9.85063Z" fill="#FFD8A8" stroke="#212529" stroke-width="1.8" stroke-linejoin="round"/>
<path d="M36.3384 15.0836C39.5095 19.373 40.4638 24.2808 34.5401 29.9985" stroke="#212529" stroke-width="1.2" stroke-linecap="round" stroke-linejoin="round"/>
<g style="mix-blend-mode:multiply">
<path fill-rule="evenodd" clip-rule="evenodd" d="M41.2551 35.0466C37.2662 38.1255 32.3644 36.0779 31.4664 33.1998C33.4234 34.8032 36.8836 35.3393 39.8418 33.056C43.8004 30.0005 45.9701 26.0535 45.8168 20.9331C45.745 18.5338 45.1559 16.2036 44.0459 14.2314C46.074 16.5134 47.1323 19.6543 47.2302 22.9238C47.3835 28.0441 45.2137 31.9911 41.2551 35.0466Z" fill="#FFD8A8"/>
</g>
<path d="M21.8706 50.1323C16.7779 50.174 12.6128 46.7133 10.3724 42.0662C8.00072 37.1468 8.40038 32.3617 10.9289 27.6683C14.0056 21.9573 21.6231 22.9478 22.0677 27.0312C22.5124 31.1146 20.006 33.7696 20.6895 36.4238C21.3731 39.078 24.3937 40.1972 27.3177 42.9803C30.2418 45.7633 28.2364 50.0803 21.8706 50.1323Z" fill="#FFD8A8" stroke="#212529" stroke-width="1.8" stroke-linejoin="round"/>
<g style="mix-blend-mode:multiply">
<path fill-rule="evenodd" clip-rule="evenodd" d="M10.4492 42.5122C12.6896 47.1592 16.8547 50.6199 21.9474 50.5783C28.2153 50.527 30.2559 46.3411 27.526 43.5557C27.8155 45.9129 25.4925 48.2818 20.7868 48.3203C16.2613 48.3573 12.4682 45.6286 10.1074 41.7594C10.2142 42.01 10.3281 42.2609 10.4492 42.5122ZM20.9945 25.3212C21.1958 27.3856 20.6472 29.0837 20.1563 30.6032C19.6899 32.0469 19.2756 33.3294 19.6058 34.6117C19.8007 35.3688 20.1858 36.0009 20.7045 36.5824C20.4983 35.395 20.8853 34.1971 21.3168 32.8613C21.8158 31.3167 22.3744 29.5878 22.1445 27.4772C22.0497 26.6061 21.6284 25.8758 20.9945 25.3212Z" fill="#FFD8A8"/>
</g>
<path d="M23.3267 43.755C18.6841 41.1282 15.8143 37.0341 18.8971 29.4" stroke="#212529" stroke-width="1.2" stroke-linecap="round" stroke-linejoin="round"/>
<g style="mix-blend-mode:soft-light" opacity="0.7">
<path d="M10.9466 37.1949C11.6553 40.1956 13.1417 41.4827 13.7352 41.2804C14.6185 40.8635 13.0719 39.3042 12.5126 37.5207C12.099 35.5233 12.6633 33.1584 12.0614 33.1014C11.4594 33.0444 10.3056 35.0466 10.9466 37.1949Z" fill="#F8F9FA"/>
</g>
<g style="mix-blend-mode:soft-light" opacity="0.7">
<path d="M41.6329 21.9381C41.7032 19.62 40.8743 18.3952 40.4038 18.4264C39.6808 18.557 40.5003 19.9914 40.5588 21.3961C40.4697 22.9278 39.5986 24.5358 40.0248 24.6946C40.451 24.8534 41.6797 23.6238 41.6329 21.9381Z" fill="#F8F9FA"/>
</g>
<path d="M51.5505 41.9837C51.6193 45.027 49.5869 47.546 46.8289 48.925C43.9093 50.3847 41.0461 50.1871 38.2193 48.7164C34.7797 46.9268 35.3061 42.3658 37.7427 42.0649C40.1792 41.764 41.7875 43.239 43.3679 42.8076C44.9483 42.3763 45.5912 40.5614 47.2292 38.7899C48.8673 37.0184 51.4646 38.1797 51.5505 41.9837Z" fill="#FFD8A8" stroke="#212529" stroke-width="1.6" stroke-linejoin="round"/>
<g style="mix-blend-mode:multiply">
<path fill-rule="evenodd" clip-rule="evenodd" d="M45.1995 47.8864C47.9574 46.5074 49.9898 43.9884 49.9211 40.9451C49.8964 39.8546 49.6654 38.9813 49.3098 38.332C50.4141 38.6559 51.3623 39.9854 51.4137 42.2586C51.4824 45.3018 49.4501 47.8209 46.6921 49.1998C43.7725 50.6596 40.9093 50.462 38.0825 48.9913C37.3775 48.6244 36.8391 48.1412 36.4496 47.602C36.4956 47.6278 36.5424 47.6531 36.5899 47.6778C39.4167 49.1485 42.2799 49.3461 45.1995 47.8864Z" fill="#FFD8A8"/>
</g>
</g>
<defs>
<clipPath id="clip0_50_9808">
<rect width="60" height="60" fill="white"/>
</clipPath>
</defs>
</svg>
