<svg width="60" height="60" viewBox="0 0 60 60" fill="none" xmlns="http://www.w3.org/2000/svg">
<mask id="path-1-outside-1_50_5994" maskUnits="userSpaceOnUse" x="7.72998" y="9.45947" width="45" height="41" fill="black">
<rect fill="white" x="7.72998" y="9.45947" width="45" height="41"/>
<path fill-rule="evenodd" clip-rule="evenodd" d="M45.4043 15.8366C44.4031 14.4049 42.6556 13.1633 40.6095 12.3828C37.9111 11.3535 34.4937 11.039 31.0132 12.1992C25.292 14.1062 21.0662 18.5133 18.1156 23.3462C15.1625 28.1832 13.426 33.5424 12.7213 37.5393C12.6657 37.8551 12.6634 38.1616 12.7067 38.4524C10.9437 39.3173 9.72998 41.13 9.72998 43.2263C9.72998 46.1613 12.1093 48.5406 15.0443 48.5406H43.8554C46.7904 48.5406 49.1697 46.1613 49.1697 43.2263C49.1697 41.2263 48.0649 39.4844 46.4323 38.5775C46.451 38.4683 46.4633 38.3561 46.4687 38.241C46.7824 31.6737 42.6154 27.0903 40.4016 25.4036C39.9772 25.0803 39.5481 24.7848 39.1689 24.5237C39.025 24.4245 38.8882 24.3304 38.7617 24.2415C38.2738 23.899 37.9247 23.6273 37.6833 23.3607C37.4581 23.1121 37.3625 22.9067 37.3348 22.6934C37.3051 22.4653 37.3382 22.109 37.5882 21.5409C37.7556 21.1604 38.2405 20.8157 39.2638 20.66C40.0201 20.5448 40.9033 20.5632 41.7569 20.6546C42.0409 22.7409 43.8296 24.3486 45.9938 24.3486C48.3554 24.3486 50.2699 22.4341 50.2699 20.0724C50.2699 17.7108 48.3554 15.7963 45.9938 15.7963C45.7938 15.7963 45.597 15.81 45.4043 15.8366Z"/>
</mask>
<path fill-rule="evenodd" clip-rule="evenodd" d="M45.4043 15.8366C44.4031 14.4049 42.6556 13.1633 40.6095 12.3828C37.9111 11.3535 34.4937 11.039 31.0132 12.1992C25.292 14.1062 21.0662 18.5133 18.1156 23.3462C15.1625 28.1832 13.426 33.5424 12.7213 37.5393C12.6657 37.8551 12.6634 38.1616 12.7067 38.4524C10.9437 39.3173 9.72998 41.13 9.72998 43.2263C9.72998 46.1613 12.1093 48.5406 15.0443 48.5406H43.8554C46.7904 48.5406 49.1697 46.1613 49.1697 43.2263C49.1697 41.2263 48.0649 39.4844 46.4323 38.5775C46.451 38.4683 46.4633 38.3561 46.4687 38.241C46.7824 31.6737 42.6154 27.0903 40.4016 25.4036C39.9772 25.0803 39.5481 24.7848 39.1689 24.5237C39.025 24.4245 38.8882 24.3304 38.7617 24.2415C38.2738 23.899 37.9247 23.6273 37.6833 23.3607C37.4581 23.1121 37.3625 22.9067 37.3348 22.6934C37.3051 22.4653 37.3382 22.109 37.5882 21.5409C37.7556 21.1604 38.2405 20.8157 39.2638 20.66C40.0201 20.5448 40.9033 20.5632 41.7569 20.6546C42.0409 22.7409 43.8296 24.3486 45.9938 24.3486C48.3554 24.3486 50.2699 22.4341 50.2699 20.0724C50.2699 17.7108 48.3554 15.7963 45.9938 15.7963C45.7938 15.7963 45.597 15.81 45.4043 15.8366Z" fill="#F8F9FA"/>
<path d="M40.6095 12.3828L41.1441 10.9813L41.1441 10.9813L40.6095 12.3828ZM45.4043 15.8366L44.1752 16.6963C44.4978 17.1576 45.0515 17.3994 45.6092 17.3225L45.4043 15.8366ZM31.0132 12.1992L31.4875 13.6222L31.4875 13.6222L31.0132 12.1992ZM18.1156 23.3462L16.8353 22.5646L16.8353 22.5646L18.1156 23.3462ZM12.7213 37.5393L14.1986 37.7997L14.1986 37.7997L12.7213 37.5393ZM12.7067 38.4524L13.3674 39.799C13.9538 39.5114 14.2867 38.8773 14.1904 38.2312L12.7067 38.4524ZM46.4323 38.5775L44.9537 38.3251C44.8466 38.9527 45.1473 39.5796 45.7039 39.8887L46.4323 38.5775ZM46.4687 38.241L47.967 38.3126L47.967 38.3126L46.4687 38.241ZM40.4016 25.4036L41.3106 24.2104L41.3106 24.2104L40.4016 25.4036ZM39.1689 24.5237L38.3182 25.7591L38.3182 25.7591L39.1689 24.5237ZM38.7617 24.2415L39.6236 23.0139L39.6236 23.0139L38.7617 24.2415ZM37.6833 23.3607L38.7951 22.3538L38.7951 22.3538L37.6833 23.3607ZM37.3348 22.6934L35.8473 22.8867L35.8473 22.8867L37.3348 22.6934ZM37.5882 21.5409L38.9611 22.145L38.9611 22.145L37.5882 21.5409ZM39.2638 20.66L39.0381 19.177L39.0381 19.177L39.2638 20.66ZM41.7569 20.6546L43.2432 20.4523C43.1501 19.7687 42.6027 19.2367 41.9166 19.1632L41.7569 20.6546ZM40.0749 13.7843C41.9236 14.4895 43.3907 15.5747 44.1752 16.6963L46.6335 14.9769C45.4154 13.2352 43.3876 11.8371 41.1441 10.9813L40.0749 13.7843ZM31.4875 13.6222C34.6061 12.5827 37.6659 12.8654 40.0749 13.7843L41.1441 10.9813C38.1564 9.84163 34.3814 9.49535 30.5388 10.7762L31.4875 13.6222ZM19.3958 24.1278C22.2407 19.4681 26.2222 15.3773 31.4875 13.6222L30.5388 10.7762C24.3619 12.8351 19.8917 17.5584 16.8353 22.5646L19.3958 24.1278ZM14.1986 37.7997C14.8749 33.9634 16.5523 28.7854 19.3958 24.1278L16.8353 22.5646C13.7727 27.581 11.9771 33.1214 11.2441 37.2789L14.1986 37.7997ZM14.1904 38.2312C14.171 38.1014 14.1707 37.9576 14.1986 37.7997L11.2441 37.2789C11.1606 37.7527 11.1558 38.2218 11.2231 38.6735L14.1904 38.2312ZM11.23 43.2263C11.23 41.7239 12.0984 40.4216 13.3674 39.799L12.0461 37.1057C9.78902 38.2129 8.22998 40.5361 8.22998 43.2263H11.23ZM15.0443 47.0406C12.9377 47.0406 11.23 45.3329 11.23 43.2263H8.22998C8.22998 46.9898 11.2809 50.0406 15.0443 50.0406V47.0406ZM43.8554 47.0406H15.0443V50.0406H43.8554V47.0406ZM47.6697 43.2263C47.6697 45.3329 45.962 47.0406 43.8554 47.0406V50.0406C47.6188 50.0406 50.6697 46.9898 50.6697 43.2263H47.6697ZM45.7039 39.8887C46.8796 40.5418 47.6697 41.7928 47.6697 43.2263H50.6697C50.6697 40.6598 49.2502 38.427 47.1607 37.2662L45.7039 39.8887ZM44.9705 38.1695C44.9678 38.2243 44.9621 38.2761 44.9537 38.3251L47.9109 38.8298C47.9398 38.6605 47.9587 38.4879 47.967 38.3126L44.9705 38.1695ZM39.4925 26.5967C41.5001 28.1263 45.2512 32.29 44.9705 38.1695L47.967 38.3126C48.3135 31.0575 43.7307 26.0543 41.3106 24.2104L39.4925 26.5967ZM38.3182 25.7591C38.7009 26.0226 39.1011 26.2986 39.4925 26.5967L41.3106 24.2104C40.8533 23.862 40.3953 23.5469 40.0196 23.2882L38.3182 25.7591ZM37.8998 25.4692C38.0329 25.5627 38.1755 25.6609 38.3182 25.7591L40.0196 23.2883C39.8744 23.1882 39.7435 23.0981 39.6236 23.0139L37.8998 25.4692ZM36.5715 24.3676C36.9357 24.7698 37.408 25.1239 37.8998 25.4692L39.6236 23.0139C39.1397 22.6742 38.9137 22.4848 38.7951 22.3538L36.5715 24.3676ZM35.8473 22.8867C35.9241 23.4776 36.1981 23.9554 36.5715 24.3676L38.7951 22.3538C38.7481 22.302 38.7531 22.2966 38.7718 22.3335C38.7815 22.3526 38.7928 22.3787 38.8026 22.4107C38.8125 22.4428 38.8188 22.4734 38.8222 22.5001L35.8473 22.8867ZM36.2152 20.9368C35.8957 21.6628 35.7713 22.3022 35.8473 22.8867L38.8222 22.5001C38.8389 22.6285 38.7807 22.5551 38.9611 22.145L36.2152 20.9368ZM39.0381 19.177C37.8556 19.357 36.6997 19.8355 36.2152 20.9368L38.9611 22.145C38.889 22.3089 38.7946 22.3495 38.8451 22.3209C38.9075 22.2855 39.0939 22.2031 39.4895 22.1429L39.0381 19.177ZM41.9166 19.1632C40.9922 19.0642 39.9687 19.0354 39.0381 19.177L39.4895 22.1429C40.0715 22.0543 40.8144 22.0623 41.5971 22.1461L41.9166 19.1632ZM45.9938 22.8486C44.59 22.8486 43.4274 21.8053 43.2432 20.4523L40.2706 20.857C40.6544 23.6765 43.0692 25.8486 45.9938 25.8486V22.8486ZM48.7699 20.0724C48.7699 21.6057 47.527 22.8486 45.9938 22.8486V25.8486C49.1838 25.8486 51.7699 23.2625 51.7699 20.0724H48.7699ZM45.9938 17.2963C47.527 17.2963 48.7699 18.5392 48.7699 20.0724H51.7699C51.7699 16.8823 49.1838 14.2963 45.9938 14.2963V17.2963ZM45.6092 17.3225C45.7342 17.3053 45.8625 17.2963 45.9938 17.2963V14.2963C45.725 14.2963 45.4598 14.3147 45.1995 14.3506L45.6092 17.3225Z" fill="#F8F9FA" mask="url(#path-1-outside-1_50_5994)"/>
<path d="M31.2793 13.1484C20.4446 16.7598 15.0277 29.9336 13.6561 37.7134C13.4523 38.8691 14.3739 39.8746 15.5474 39.8746H43.5471C44.5229 39.8746 45.3733 39.1685 45.4198 38.1938C45.7116 32.0845 41.8212 27.781 39.7455 26.1995C37.4842 24.4766 35.4383 23.8306 36.6228 21.1386C37.3843 19.4078 40.376 19.4158 42.602 19.7651C43.4716 19.9015 44.3663 19.5485 44.8253 18.7974L44.8817 18.7051C45.1121 18.3281 45.2297 17.8786 45.0848 17.4612C43.9955 14.3216 37.7579 10.9889 31.2793 13.1484Z" fill="#FA5252" stroke="#212529" stroke-width="2" stroke-linejoin="round"/>
<g style="mix-blend-mode:multiply">
<path fill-rule="evenodd" clip-rule="evenodd" d="M39.9177 39.8746H42.6803C43.6561 39.8746 44.5065 39.1685 44.5531 38.1938C44.8448 32.0845 40.9544 27.781 38.8787 26.1995C38.4749 25.8918 38.0779 25.6184 37.7049 25.3616C35.9897 24.1806 34.7831 23.3498 35.756 21.1386C36.1408 20.2641 37.0949 19.8335 38.2318 19.6665C36.1281 19.4339 33.6687 19.5927 32.9886 21.1386C32.0156 23.3498 33.2222 24.1806 34.9374 25.3616C35.3104 25.6184 35.7074 25.8918 36.1112 26.1995C38.1869 27.781 42.0773 32.0845 41.7856 38.1938C41.7391 39.1669 40.8914 39.8723 39.9177 39.8746ZM40.2589 19.6031C40.7663 19.6334 41.2677 19.6917 41.7353 19.7651C42.6049 19.9015 43.4996 19.5485 43.9586 18.7974L44.015 18.7051C44.2454 18.3281 44.3629 17.8786 44.218 17.4612C43.2899 14.7863 38.6247 11.9711 33.2573 12.532C37.3917 12.9634 40.6867 15.2598 41.4506 17.4612C41.5954 17.8786 41.4779 18.3281 41.2475 18.7051L41.1911 18.7974C40.9666 19.1647 40.6379 19.4369 40.2589 19.6031Z" fill="#E9ECEF"/>
</g>
<circle cx="45.9438" cy="20.0729" r="3.37616" fill="white" stroke="#212529" stroke-width="1.8" stroke-linejoin="round"/>
<g style="mix-blend-mode:multiply">
<path fill-rule="evenodd" clip-rule="evenodd" d="M45.1867 21.8135C46.6446 21.8135 47.8263 20.6317 47.8263 19.1739C47.8263 18.7591 47.7307 18.3668 47.5603 18.0176C48.2852 18.4881 48.7648 19.3047 48.7648 20.2333C48.7648 21.6912 47.583 22.873 46.1251 22.873C45.082 22.873 44.1802 22.2679 43.7516 21.3896C44.1647 21.6578 44.6575 21.8135 45.1867 21.8135Z" fill="#E9ECEF"/>
</g>
<path d="M30.7771 23.6002C32.6622 23.4288 37.1961 23.8058 40.2513 26.6848" stroke="#212529" stroke-width="2" stroke-linecap="round" stroke-linejoin="round"/>
<rect x="10.6799" y="38.9126" width="37.4397" height="8.62865" rx="4.31433" fill="#F8F9FA" stroke="#212529" stroke-width="2" stroke-linejoin="round"/>
<g style="mix-blend-mode:multiply">
<path fill-rule="evenodd" clip-rule="evenodd" d="M39.1719 47.2873H43.0469C45.4297 47.2873 47.3613 45.3558 47.3613 42.973C47.3613 40.5903 45.4297 38.6587 43.0469 38.6587H39.1719C41.5546 38.6587 43.4862 40.5903 43.4862 42.973C43.4862 45.3558 41.5546 47.2873 39.1719 47.2873Z" fill="#E9ECEF"/>
</g>
<g style="mix-blend-mode:soft-light" opacity="0.8">
<path d="M20.1676 29.0548C19.2552 29.0548 18.157 30.9405 17.5881 32.4193C17.0063 33.9317 16.4013 36.3159 17.3366 36.5301C18.2719 36.7443 19.1093 33.6917 19.2391 32.8989C19.6268 31.4066 21.0801 29.0548 20.1676 29.0548Z" fill="#F8F9FA"/>
</g>
</svg>
