<svg width="60" height="60" viewBox="0 0 60 60" fill="none" xmlns="http://www.w3.org/2000/svg">
<mask id="path-1-outside-1_50_6025" maskUnits="userSpaceOnUse" x="7.01379" y="5.9043" width="46" height="48" fill="black">
<rect fill="white" x="7.01379" y="5.9043" width="46" height="48"/>
<path fill-rule="evenodd" clip-rule="evenodd" d="M29.7844 7.9043C29.9718 7.9043 30.1402 8.01913 30.2085 8.19366L31.0487 10.3384L33.3481 10.4747C33.5352 10.4858 33.6964 10.6104 33.7544 10.7886C33.8123 10.9669 33.7551 11.1625 33.6102 11.2814L31.8301 12.7432L32.411 14.9722C32.4583 15.1536 32.3896 15.3454 32.238 15.4556C32.0863 15.5658 31.8827 15.5718 31.7248 15.4708L29.7844 14.2295L27.844 15.4708C27.6861 15.5718 27.4825 15.5658 27.3308 15.4556C27.1792 15.3454 27.1105 15.1536 27.1578 14.9722L27.7387 12.7432L25.9586 11.2814C25.8137 11.1625 25.7565 10.9669 25.8144 10.7886C25.8724 10.6104 26.0336 10.4858 26.2207 10.4747L28.5201 10.3384L29.3603 8.19366C29.4286 8.01913 29.597 7.9043 29.7844 7.9043ZM29.7844 9.60863L29.2621 10.942C29.1973 11.1074 29.0422 11.2201 28.8649 11.2306L27.4354 11.3153L28.5421 12.2241C28.6794 12.3369 28.7386 12.5191 28.6938 12.691L28.3326 14.0768L29.5389 13.3051C29.6886 13.2093 29.8802 13.2093 30.0299 13.3051L31.2362 14.0768L30.875 12.691C30.8302 12.5191 30.8894 12.3369 31.0267 12.2241L32.1334 11.3153L30.7039 11.2306C30.5266 11.2201 30.3715 11.1074 30.3067 10.942L29.7844 9.60863ZM29.247 15.7869C29.5629 15.468 30.0764 15.4624 30.3991 15.7743L40.4492 25.4843C40.6895 25.7165 40.7649 26.0714 40.6397 26.3812C40.5144 26.6911 40.2137 26.8939 39.8795 26.8939H35.1063L43.0404 34.5596C43.2807 34.7918 43.3561 35.1466 43.2309 35.4565C43.1056 35.7663 42.8049 35.9692 42.4707 35.9692H38.5751L47.1598 44.2634C47.4002 44.4956 47.4755 44.8505 47.3503 45.1603C47.225 45.4701 46.9243 45.673 46.5901 45.673H33.2652L33.7393 50.5686H50.1639C50.6671 50.5686 51.075 50.9764 51.075 51.4796C51.075 51.9827 50.6671 52.3906 50.1639 52.3906H9.92478C9.42164 52.3906 9.01376 51.9827 9.01376 51.4796C9.01376 50.9764 9.42164 50.5686 9.92478 50.5686H14.0763V47.7796C14.0763 47.5281 14.2802 47.3241 14.5318 47.3241H18.3839C18.4123 47.0285 18.6866 46.7966 19.0208 46.7966H24.4283C24.7814 46.7966 25.0676 47.0555 25.0676 47.3749V50.5686H26.3494L26.8235 45.673H13.4987C13.1677 45.673 12.8693 45.474 12.7419 45.1686C12.6146 44.8631 12.6833 44.5111 12.9162 44.276L21.1461 35.9692H17.6181C17.2872 35.9692 16.9887 35.7702 16.8613 35.4648C16.734 35.1593 16.8028 34.8073 17.0357 34.5722L24.6428 26.8939H20.2093C19.8784 26.8939 19.5799 26.695 19.4526 26.3895C19.3252 26.0841 19.394 25.732 19.6269 25.4969L29.247 15.7869ZM17.9288 50.5686V48.2351H14.9873V50.5686H17.9288ZM44.5615 44.0331H33.1064L32.9464 42.3813C32.9057 41.9611 32.5525 41.6404 32.1303 41.6404H27.9584C27.5362 41.6404 27.183 41.9611 27.1423 42.3813L26.9823 44.0331H15.4652L21.4933 37.9486C21.6393 38.8077 22.3872 39.4618 23.2879 39.4618C24.2933 39.4618 25.1083 38.6468 25.1083 37.6414C25.1083 36.7349 24.4457 35.9832 23.5784 35.8441L23.6951 35.7263C23.928 35.4912 23.9967 35.1392 23.8694 34.8337C23.742 34.5283 23.4436 34.3293 23.1126 34.3293H19.5846L27.1918 26.651C27.4247 26.416 27.4934 26.0639 27.3661 25.7585C27.2387 25.453 26.9403 25.2541 26.6093 25.2541H22.1758L29.842 17.5162L37.8509 25.2541H33.0776C32.7435 25.2541 32.4427 25.4569 32.3175 25.7667C32.1922 26.0766 32.2676 26.4314 32.5079 26.6636L40.4421 34.3293H36.5465C36.2123 34.3293 35.9115 34.5322 35.7863 34.842C35.6611 35.1518 35.7364 35.5067 35.9768 35.7389L38.8492 38.5141C37.8729 38.5358 37.0881 39.334 37.0881 40.3155C37.0881 41.3107 37.8949 42.1174 38.89 42.1174C39.8851 42.1174 40.6918 41.3107 40.6918 40.3155C40.6918 40.3084 40.6918 40.3014 40.6917 40.2943L44.5615 44.0331ZM28.7028 43.2803L28.6298 44.0331H31.4589L31.3859 43.2803H28.7028ZM31.6177 45.673H28.471L28.0167 50.3635H32.072L31.6177 45.673ZM19.6602 47.9532V50.4824H23.7889V47.9532H19.6602ZM24.1973 37.6414C24.1973 38.1437 23.7902 38.5508 23.2879 38.5508C22.7857 38.5508 22.3785 38.1437 22.3785 37.6414C22.3785 37.1392 22.7857 36.732 23.2879 36.732C23.7902 36.732 24.1973 37.1392 24.1973 37.6414ZM32.1734 29.6381C32.4047 29.6381 32.5921 29.4506 32.5921 29.2193C32.5921 28.9881 32.4047 28.8006 32.1734 28.8006C31.9422 28.8006 31.7547 28.9881 31.7547 29.2193C31.7547 29.4506 31.9422 29.6381 32.1734 29.6381ZM32.1734 30.5491C32.9078 30.5491 33.5031 29.9537 33.5031 29.2193C33.5031 28.485 32.9078 27.8896 32.1734 27.8896C31.439 27.8896 30.8437 28.485 30.8437 29.2193C30.8437 29.9537 31.439 30.5491 32.1734 30.5491ZM39.7808 40.3155C39.7808 40.8075 39.382 41.2064 38.89 41.2064C38.398 41.2064 37.9991 40.8075 37.9991 40.3155C37.9991 39.8235 38.398 39.4247 38.89 39.4247C39.382 39.4247 39.7808 39.8235 39.7808 40.3155Z"/>
</mask>
<path fill-rule="evenodd" clip-rule="evenodd" d="M29.7844 7.9043C29.9718 7.9043 30.1402 8.01913 30.2085 8.19366L31.0487 10.3384L33.3481 10.4747C33.5352 10.4858 33.6964 10.6104 33.7544 10.7886C33.8123 10.9669 33.7551 11.1625 33.6102 11.2814L31.8301 12.7432L32.411 14.9722C32.4583 15.1536 32.3896 15.3454 32.238 15.4556C32.0863 15.5658 31.8827 15.5718 31.7248 15.4708L29.7844 14.2295L27.844 15.4708C27.6861 15.5718 27.4825 15.5658 27.3308 15.4556C27.1792 15.3454 27.1105 15.1536 27.1578 14.9722L27.7387 12.7432L25.9586 11.2814C25.8137 11.1625 25.7565 10.9669 25.8144 10.7886C25.8724 10.6104 26.0336 10.4858 26.2207 10.4747L28.5201 10.3384L29.3603 8.19366C29.4286 8.01913 29.597 7.9043 29.7844 7.9043ZM29.7844 9.60863L29.2621 10.942C29.1973 11.1074 29.0422 11.2201 28.8649 11.2306L27.4354 11.3153L28.5421 12.2241C28.6794 12.3369 28.7386 12.5191 28.6938 12.691L28.3326 14.0768L29.5389 13.3051C29.6886 13.2093 29.8802 13.2093 30.0299 13.3051L31.2362 14.0768L30.875 12.691C30.8302 12.5191 30.8894 12.3369 31.0267 12.2241L32.1334 11.3153L30.7039 11.2306C30.5266 11.2201 30.3715 11.1074 30.3067 10.942L29.7844 9.60863ZM29.247 15.7869C29.5629 15.468 30.0764 15.4624 30.3991 15.7743L40.4492 25.4843C40.6895 25.7165 40.7649 26.0714 40.6397 26.3812C40.5144 26.6911 40.2137 26.8939 39.8795 26.8939H35.1063L43.0404 34.5596C43.2807 34.7918 43.3561 35.1466 43.2309 35.4565C43.1056 35.7663 42.8049 35.9692 42.4707 35.9692H38.5751L47.1598 44.2634C47.4002 44.4956 47.4755 44.8505 47.3503 45.1603C47.225 45.4701 46.9243 45.673 46.5901 45.673H33.2652L33.7393 50.5686H50.1639C50.6671 50.5686 51.075 50.9764 51.075 51.4796C51.075 51.9827 50.6671 52.3906 50.1639 52.3906H9.92478C9.42164 52.3906 9.01376 51.9827 9.01376 51.4796C9.01376 50.9764 9.42164 50.5686 9.92478 50.5686H14.0763V47.7796C14.0763 47.5281 14.2802 47.3241 14.5318 47.3241H18.3839C18.4123 47.0285 18.6866 46.7966 19.0208 46.7966H24.4283C24.7814 46.7966 25.0676 47.0555 25.0676 47.3749V50.5686H26.3494L26.8235 45.673H13.4987C13.1677 45.673 12.8693 45.474 12.7419 45.1686C12.6146 44.8631 12.6833 44.5111 12.9162 44.276L21.1461 35.9692H17.6181C17.2872 35.9692 16.9887 35.7702 16.8613 35.4648C16.734 35.1593 16.8028 34.8073 17.0357 34.5722L24.6428 26.8939H20.2093C19.8784 26.8939 19.5799 26.695 19.4526 26.3895C19.3252 26.0841 19.394 25.732 19.6269 25.4969L29.247 15.7869ZM17.9288 50.5686V48.2351H14.9873V50.5686H17.9288ZM44.5615 44.0331H33.1064L32.9464 42.3813C32.9057 41.9611 32.5525 41.6404 32.1303 41.6404H27.9584C27.5362 41.6404 27.183 41.9611 27.1423 42.3813L26.9823 44.0331H15.4652L21.4933 37.9486C21.6393 38.8077 22.3872 39.4618 23.2879 39.4618C24.2933 39.4618 25.1083 38.6468 25.1083 37.6414C25.1083 36.7349 24.4457 35.9832 23.5784 35.8441L23.6951 35.7263C23.928 35.4912 23.9967 35.1392 23.8694 34.8337C23.742 34.5283 23.4436 34.3293 23.1126 34.3293H19.5846L27.1918 26.651C27.4247 26.416 27.4934 26.0639 27.3661 25.7585C27.2387 25.453 26.9403 25.2541 26.6093 25.2541H22.1758L29.842 17.5162L37.8509 25.2541H33.0776C32.7435 25.2541 32.4427 25.4569 32.3175 25.7667C32.1922 26.0766 32.2676 26.4314 32.5079 26.6636L40.4421 34.3293H36.5465C36.2123 34.3293 35.9115 34.5322 35.7863 34.842C35.6611 35.1518 35.7364 35.5067 35.9768 35.7389L38.8492 38.5141C37.8729 38.5358 37.0881 39.334 37.0881 40.3155C37.0881 41.3107 37.8949 42.1174 38.89 42.1174C39.8851 42.1174 40.6918 41.3107 40.6918 40.3155C40.6918 40.3084 40.6918 40.3014 40.6917 40.2943L44.5615 44.0331ZM28.7028 43.2803L28.6298 44.0331H31.4589L31.3859 43.2803H28.7028ZM31.6177 45.673H28.471L28.0167 50.3635H32.072L31.6177 45.673ZM19.6602 47.9532V50.4824H23.7889V47.9532H19.6602ZM24.1973 37.6414C24.1973 38.1437 23.7902 38.5508 23.2879 38.5508C22.7857 38.5508 22.3785 38.1437 22.3785 37.6414C22.3785 37.1392 22.7857 36.732 23.2879 36.732C23.7902 36.732 24.1973 37.1392 24.1973 37.6414ZM32.1734 29.6381C32.4047 29.6381 32.5921 29.4506 32.5921 29.2193C32.5921 28.9881 32.4047 28.8006 32.1734 28.8006C31.9422 28.8006 31.7547 28.9881 31.7547 29.2193C31.7547 29.4506 31.9422 29.6381 32.1734 29.6381ZM32.1734 30.5491C32.9078 30.5491 33.5031 29.9537 33.5031 29.2193C33.5031 28.485 32.9078 27.8896 32.1734 27.8896C31.439 27.8896 30.8437 28.485 30.8437 29.2193C30.8437 29.9537 31.439 30.5491 32.1734 30.5491ZM39.7808 40.3155C39.7808 40.8075 39.382 41.2064 38.89 41.2064C38.398 41.2064 37.9991 40.8075 37.9991 40.3155C37.9991 39.8235 38.398 39.4247 38.89 39.4247C39.382 39.4247 39.7808 39.8235 39.7808 40.3155Z" fill="#F8F9FA"/>
<path d="M30.2086 8.19366L28.8119 8.74078L28.8119 8.74078L30.2086 8.19366ZM31.0487 10.3384L29.6521 10.8855C29.8654 11.4302 30.376 11.8012 30.96 11.8358L31.0487 10.3384ZM33.3481 10.4747L33.4369 8.97732L33.4369 8.97732L33.3481 10.4747ZM33.7544 10.7886L32.3278 11.2522L32.3278 11.2522L33.7544 10.7886ZM33.6103 11.2814L34.5622 12.4407L34.5622 12.4407L33.6103 11.2814ZM31.8301 12.7432L30.8782 11.584C30.4261 11.9553 30.2311 12.5555 30.3786 13.1215L31.8301 12.7432ZM32.411 14.9722L33.8626 14.5939L33.8626 14.5939L32.411 14.9722ZM32.238 15.4556L31.3563 14.2421L31.3563 14.2421L32.238 15.4556ZM31.7248 15.4708L32.5331 14.2072L32.5331 14.2072L31.7248 15.4708ZM29.7844 14.2295L30.5928 12.9659C30.1 12.6507 29.4689 12.6507 28.9761 12.9659L29.7844 14.2295ZM27.8441 15.4708L27.0357 14.2072L27.0357 14.2072L27.8441 15.4708ZM27.3309 15.4556L28.2125 14.2421L28.2125 14.2421L27.3309 15.4556ZM27.1578 14.9722L25.7063 14.5939L25.7063 14.5939L27.1578 14.9722ZM27.7387 12.7432L29.1903 13.1215C29.3378 12.5555 29.1428 11.9553 28.6907 11.584L27.7387 12.7432ZM25.9586 11.2814L25.0067 12.4407L25.0067 12.4407L25.9586 11.2814ZM25.8145 10.7886L27.2411 11.2522L27.2411 11.2522L25.8145 10.7886ZM26.2207 10.4747L26.132 8.97732L26.132 8.97732L26.2207 10.4747ZM28.5201 10.3384L28.6089 11.8358C29.1928 11.8012 29.7034 11.4302 29.9168 10.8855L28.5201 10.3384ZM29.3603 8.19366L30.757 8.74078L30.757 8.74078L29.3603 8.19366ZM29.2621 10.942L27.8654 10.3949L27.8654 10.3949L29.2621 10.942ZM29.7844 9.60862L31.1811 9.0615C30.9559 8.48676 30.4017 8.10862 29.7844 8.10862C29.1672 8.10862 28.6129 8.48676 28.3878 9.06149L29.7844 9.60862ZM28.8649 11.2306L28.7762 9.7332L28.7762 9.7332L28.8649 11.2306ZM27.4354 11.3153L27.3466 9.81793C26.7304 9.85446 26.1995 10.2647 26.0088 10.8518C25.818 11.4388 26.0064 12.0828 26.4834 12.4745L27.4354 11.3153ZM28.5421 12.2241L27.5902 13.3833L27.5902 13.3834L28.5421 12.2241ZM28.6938 12.691L30.1453 13.0693L30.1453 13.0693L28.6938 12.691ZM28.3326 14.0768L26.8811 13.6985C26.7254 14.2958 26.9516 14.9275 27.451 15.2903C27.9503 15.6531 28.621 15.673 29.141 15.3403L28.3326 14.0768ZM29.539 13.3051L30.3473 14.5686L30.3473 14.5686L29.539 13.3051ZM30.0299 13.3051L29.2216 14.5686L29.2216 14.5686L30.0299 13.3051ZM31.2362 14.0768L30.4279 15.3403C30.9479 15.673 31.6185 15.6531 32.1179 15.2903C32.6173 14.9275 32.8434 14.2958 32.6877 13.6985L31.2362 14.0768ZM30.8751 12.691L29.4235 13.0693L29.4235 13.0693L30.8751 12.691ZM31.0268 12.2241L31.9787 13.3834L31.9787 13.3833L31.0268 12.2241ZM32.1335 11.3153L33.0854 12.4745C33.5625 12.0828 33.7508 11.4388 33.5601 10.8518C33.3693 10.2647 32.8384 9.85446 32.2222 9.81793L32.1335 11.3153ZM30.7039 11.2306L30.7927 9.7332L30.7927 9.7332L30.7039 11.2306ZM30.3068 10.942L31.7034 10.3949L31.7034 10.3949L30.3068 10.942ZM30.3992 15.7743L29.3569 16.853L29.3569 16.853L30.3992 15.7743ZM29.247 15.7869L28.1814 14.7312L28.1814 14.7312L29.247 15.7869ZM40.4492 25.4843L41.4915 24.4056L41.4915 24.4056L40.4492 25.4843ZM40.6397 26.3812L39.249 25.8191L39.249 25.8191L40.6397 26.3812ZM35.1063 26.8939V25.3939C34.4949 25.3939 33.9447 25.765 33.7156 26.3318C33.4865 26.8986 33.6244 27.5478 34.064 27.9726L35.1063 26.8939ZM43.0404 34.5596L41.9982 35.6383L41.9982 35.6383L43.0404 34.5596ZM43.2309 35.4565L44.6216 36.0186L44.6216 36.0186L43.2309 35.4565ZM38.5751 35.9691V34.4691C37.9638 34.4691 37.4135 34.8402 37.1844 35.4071C36.9553 35.9739 37.0932 36.6231 37.5329 37.0479L38.5751 35.9691ZM47.1598 44.2634L46.1176 45.3421L46.1176 45.3422L47.1598 44.2634ZM47.3503 45.1603L45.9596 44.5982L45.9596 44.5982L47.3503 45.1603ZM33.2652 45.673V44.173C32.8422 44.173 32.4389 44.3516 32.1546 44.6647C31.8703 44.9779 31.7314 45.3966 31.7722 45.8176L33.2652 45.673ZM33.7394 50.5685L32.2464 50.7131C32.3208 51.482 32.967 52.0685 33.7394 52.0685V50.5685ZM14.0763 50.5685V52.0685C14.9047 52.0685 15.5763 51.397 15.5763 50.5685H14.0763ZM18.3839 47.3241V48.8241C19.1567 48.8241 19.8031 48.237 19.877 47.4677L18.3839 47.3241ZM25.0677 50.5685H23.5677C23.5677 51.397 24.2392 52.0685 25.0677 52.0685V50.5685ZM26.3494 50.5685V52.0685C27.1218 52.0685 27.7679 51.482 27.8424 50.7131L26.3494 50.5685ZM26.8235 45.673L28.3166 45.8176C28.3573 45.3966 28.2185 44.9779 27.9342 44.6647C27.6498 44.3516 27.2465 44.173 26.8235 44.173V45.673ZM12.7419 45.1686L14.1264 44.5913L14.1264 44.5913L12.7419 45.1686ZM12.9163 44.276L13.9818 45.3317L13.9818 45.3317L12.9163 44.276ZM21.1462 35.9691L22.2117 37.0249C22.6378 36.5948 22.7636 35.9507 22.5306 35.3919C22.2977 34.8331 21.7516 34.4691 21.1462 34.4691V35.9691ZM16.8614 35.4648L18.2459 34.8875L18.2459 34.8875L16.8614 35.4648ZM17.0357 34.5722L18.1013 35.6279L18.1013 35.6279L17.0357 34.5722ZM24.6429 26.8939L25.7084 27.9496C26.1346 27.5195 26.2603 26.8754 26.0273 26.3166C25.7944 25.7578 25.2483 25.3939 24.6429 25.3939V26.8939ZM19.4526 26.3895L20.8371 25.8123L20.8371 25.8122L19.4526 26.3895ZM19.6269 25.4969L20.6925 26.5526L20.6925 26.5526L19.6269 25.4969ZM17.9288 48.2351H19.4288C19.4288 47.4067 18.7572 46.7351 17.9288 46.7351V48.2351ZM17.9288 50.5685V52.0685C18.7572 52.0685 19.4288 51.397 19.4288 50.5685H17.9288ZM14.9873 48.2351V46.7351C14.1589 46.7351 13.4873 47.4067 13.4873 48.2351H14.9873ZM14.9873 50.5685H13.4873C13.4873 51.397 14.1589 52.0685 14.9873 52.0685V50.5685ZM33.1064 44.0331L31.6134 44.1777C31.6878 44.9466 32.334 45.5331 33.1064 45.5331V44.0331ZM44.5615 44.0331V45.5331C45.1729 45.5331 45.7231 45.1621 45.9522 44.5952C46.1813 44.0284 46.0435 43.3792 45.6038 42.9544L44.5615 44.0331ZM32.9464 42.3813L34.4394 42.2367L34.4394 42.2367L32.9464 42.3813ZM27.1424 42.3813L25.6493 42.2367L25.6493 42.2367L27.1424 42.3813ZM26.9824 44.0331V45.5331C27.7548 45.5331 28.4009 44.9466 28.4754 44.1777L26.9824 44.0331ZM15.4652 44.0331L14.3996 42.9774C13.9735 43.4075 13.8477 44.0516 14.0807 44.6104C14.3137 45.1692 14.8598 45.5331 15.4652 45.5331V44.0331ZM21.4934 37.9486L22.9722 37.6973C22.8779 37.143 22.4816 36.6879 21.9455 36.5184C21.4094 36.3489 20.8235 36.4935 20.4278 36.8929L21.4934 37.9486ZM23.5784 35.8441L22.5128 34.7884C22.1171 35.1878 21.978 35.775 22.1525 36.3095C22.327 36.8441 22.7857 37.2361 23.3409 37.3252L23.5784 35.8441ZM23.6951 35.7263L22.6295 34.6706L22.6295 34.6706L23.6951 35.7263ZM23.8694 34.8337L25.2539 34.2565L25.2539 34.2565L23.8694 34.8337ZM19.5846 34.3293L18.5191 33.2736C18.093 33.7037 17.9672 34.3478 18.2002 34.9066C18.4331 35.4654 18.9792 35.8293 19.5846 35.8293V34.3293ZM27.1918 26.651L26.1262 25.5953L26.1262 25.5953L27.1918 26.651ZM27.3661 25.7584L28.7506 25.1812L28.7506 25.1812L27.3661 25.7584ZM22.1758 25.2541L21.1103 24.1983C20.6842 24.6284 20.5584 25.2725 20.7914 25.8313C21.0243 26.3901 21.5704 26.7541 22.1758 26.7541V25.2541ZM29.8421 17.5162L30.8843 16.4374C30.2938 15.8669 29.3544 15.8772 28.7765 16.4605L29.8421 17.5162ZM37.8509 25.2541V26.7541C38.4623 26.7541 39.0125 26.383 39.2416 25.8161C39.4707 25.2493 39.3328 24.6001 38.8932 24.1753L37.8509 25.2541ZM32.3175 25.7667L33.7082 26.3288L33.7082 26.3288L32.3175 25.7667ZM32.508 26.6636L33.5502 25.5849L33.5502 25.5849L32.508 26.6636ZM40.4421 34.3293V35.8293C41.0535 35.8293 41.6037 35.4583 41.8328 34.8914C42.0619 34.3246 41.924 33.6754 41.4844 33.2506L40.4421 34.3293ZM35.7863 34.842L37.1771 35.4041L37.1771 35.4041L35.7863 34.842ZM35.9768 35.7389L37.0191 34.6601L37.0191 34.6601L35.9768 35.7389ZM38.8492 38.5141L38.8825 40.0138C39.4877 40.0003 40.0255 39.6244 40.2461 39.0607C40.4667 38.497 40.3268 37.856 39.8915 37.4354L38.8492 38.5141ZM40.6917 40.2943L41.734 39.2155C41.2988 38.7951 40.6535 38.6773 40.0978 38.9169C39.5421 39.1565 39.1848 39.7066 39.1918 40.3117L40.6917 40.2943ZM28.6299 44.0331L27.1369 43.8885C27.0961 44.3095 27.2349 44.7282 27.5193 45.0414C27.8036 45.3546 28.2069 45.5331 28.6299 45.5331V44.0331ZM28.7028 43.2803V41.7803C27.9304 41.7803 27.2842 42.3668 27.2098 43.1357L28.7028 43.2803ZM31.4589 44.0331V45.5331C31.8819 45.5331 32.2852 45.3546 32.5695 45.0414C32.8538 44.7282 32.9927 44.3095 32.9519 43.8885L31.4589 44.0331ZM31.386 43.2803L32.879 43.1357C32.8045 42.3668 32.1584 41.7803 31.386 41.7803V43.2803ZM28.471 45.673V44.173C27.6986 44.173 27.0525 44.7595 26.978 45.5284L28.471 45.673ZM31.6177 45.673L33.1107 45.5284C33.0363 44.7595 32.3901 44.173 31.6177 44.173V45.673ZM28.0167 50.3635L26.5237 50.2189C26.483 50.6399 26.6218 51.0585 26.9061 51.3717C27.1904 51.6849 27.5938 51.8635 28.0167 51.8635V50.3635ZM32.072 50.3635V51.8635C32.495 51.8635 32.8983 51.6849 33.1826 51.3717C33.4669 51.0585 33.6058 50.6399 33.565 50.2189L32.072 50.3635ZM19.6602 50.4824H18.1602C18.1602 51.3108 18.8318 51.9824 19.6602 51.9824V50.4824ZM19.6602 47.9532V46.4532C18.8318 46.4532 18.1602 47.1247 18.1602 47.9532H19.6602ZM23.7889 50.4824V51.9824C24.6174 51.9824 25.2889 51.3108 25.2889 50.4824H23.7889ZM23.7889 47.9532H25.2889C25.2889 47.1247 24.6174 46.4532 23.7889 46.4532V47.9532ZM31.6052 7.64653C31.3117 6.89726 30.5891 6.4043 29.7844 6.4043V9.4043C29.3546 9.4043 28.9687 9.14099 28.8119 8.74078L31.6052 7.64653ZM32.4454 9.79127L31.6052 7.64653L28.8119 8.74078L29.6521 10.8855L32.4454 9.79127ZM33.4369 8.97732L31.1375 8.84102L30.96 11.8358L33.2594 11.9721L33.4369 8.97732ZM35.181 10.3251C34.9323 9.55979 34.2402 9.02494 33.4369 8.97732L33.2594 11.9721C32.8303 11.9466 32.4606 11.6609 32.3278 11.2522L35.181 10.3251ZM34.5622 12.4407C35.1841 11.93 35.4296 11.0904 35.181 10.3251L32.3278 11.2522C32.195 10.8434 32.3261 10.395 32.6583 10.1222L34.5622 12.4407ZM32.7821 13.9025L34.5622 12.4407L32.6583 10.1222L30.8782 11.584L32.7821 13.9025ZM33.8626 14.5939L33.2816 12.3649L30.3786 13.1215L30.9595 15.3505L33.8626 14.5939ZM33.1197 16.6691C33.7707 16.1961 34.0655 15.3726 33.8626 14.5939L30.9595 15.3505C30.8511 14.9346 31.0086 14.4947 31.3563 14.2421L33.1197 16.6691ZM30.9165 16.7344C31.5943 17.168 32.4687 17.1421 33.1197 16.6691L31.3563 14.2421C31.7041 13.9894 32.1711 13.9756 32.5331 14.2072L30.9165 16.7344ZM28.9761 15.4931L30.9165 16.7344L32.5331 14.2072L30.5928 12.9659L28.9761 15.4931ZM28.6524 16.7344L30.5928 15.4931L28.9761 12.9659L27.0357 14.2072L28.6524 16.7344ZM26.4492 16.6691C27.1002 17.1421 27.9745 17.168 28.6524 16.7344L27.0357 14.2072C27.3978 13.9756 27.8648 13.9894 28.2125 14.2421L26.4492 16.6691ZM25.7063 14.5939C25.5034 15.3726 25.7982 16.1961 26.4492 16.6691L28.2125 14.2421C28.5603 14.4947 28.7177 14.9346 28.6093 15.3505L25.7063 14.5939ZM26.2872 12.3649L25.7063 14.5939L28.6093 15.3505L29.1903 13.1215L26.2872 12.3649ZM25.0067 12.4407L26.7868 13.9025L28.6907 11.584L26.9105 10.1222L25.0067 12.4407ZM24.3879 10.3251C24.1392 11.0904 24.3848 11.93 25.0067 12.4407L26.9105 10.1222C27.2427 10.395 27.3739 10.8434 27.2411 11.2522L24.3879 10.3251ZM26.132 8.97732C25.3287 9.02494 24.6366 9.55979 24.3879 10.3251L27.2411 11.2522C27.1082 11.6609 26.7386 11.9466 26.3095 11.9721L26.132 8.97732ZM28.4314 8.84102L26.132 8.97732L26.3095 11.9721L28.6089 11.8358L28.4314 8.84102ZM27.9636 7.64653L27.1235 9.79127L29.9168 10.8855L30.757 8.74078L27.9636 7.64653ZM29.7844 6.4043C28.9797 6.4043 28.2572 6.89726 27.9636 7.64653L30.757 8.74078C30.6002 9.14099 30.2142 9.4043 29.7844 9.4043V6.4043ZM30.6587 11.4891L31.1811 10.1557L28.3878 9.06149L27.8654 10.3949L30.6587 11.4891ZM28.9537 12.7279C29.715 12.6828 30.3806 12.1992 30.6588 11.4891L27.8654 10.3949C28.014 10.0156 28.3695 9.7573 28.7762 9.7332L28.9537 12.7279ZM27.5241 12.8127L28.9537 12.7279L28.7762 9.7332L27.3466 9.81793L27.5241 12.8127ZM29.494 11.0649L28.3873 10.1561L26.4834 12.4745L27.5902 13.3833L29.494 11.0649ZM30.1453 13.0693C30.3376 12.3313 30.0834 11.5489 29.494 11.0649L27.5902 13.3834C27.2754 13.1248 27.1396 12.7069 27.2423 12.3127L30.1453 13.0693ZM29.7841 14.4551L30.1453 13.0693L27.2423 12.3127L26.8811 13.6985L29.7841 14.4551ZM28.7306 12.0415L27.5243 12.8132L29.141 15.3403L30.3473 14.5686L28.7306 12.0415ZM30.8382 12.0415C30.1958 11.6305 29.3731 11.6305 28.7306 12.0415L30.3473 14.5686C30.0042 14.7882 29.5647 14.7882 29.2216 14.5686L30.8382 12.0415ZM32.0445 12.8132L30.8382 12.0415L29.2216 14.5686L30.4279 15.3403L32.0445 12.8132ZM29.4235 13.0693L29.7847 14.4551L32.6877 13.6985L32.3266 12.3127L29.4235 13.0693ZM30.0748 11.0649C29.4854 11.5489 29.2312 12.3313 29.4235 13.0693L32.3266 12.3127C32.4293 12.7069 32.2935 13.1248 31.9787 13.3834L30.0748 11.0649ZM31.1815 10.1561L30.0748 11.0649L31.9787 13.3833L33.0854 12.4745L31.1815 10.1561ZM30.6152 12.7279L32.0447 12.8127L32.2222 9.81793L30.7927 9.7332L30.6152 12.7279ZM28.9101 11.4891C29.1883 12.1992 29.8539 12.6828 30.6152 12.7279L30.7927 9.7332C31.1993 9.7573 31.5549 10.0156 31.7034 10.3949L28.9101 11.4891ZM28.3878 10.1557L28.9101 11.4891L31.7034 10.3949L31.1811 9.0615L28.3878 10.1557ZM31.4414 14.6955C30.5282 13.8132 29.0752 13.829 28.1814 14.7312L30.3126 16.8426C30.0506 17.107 29.6246 17.1117 29.3569 16.853L31.4414 14.6955ZM41.4915 24.4056L31.4414 14.6955L29.3569 16.853L39.407 26.5631L41.4915 24.4056ZM42.0304 26.9433C42.3847 26.0666 42.1715 25.0626 41.4915 24.4056L39.407 26.5631C39.2076 26.3705 39.1451 26.0761 39.249 25.8191L42.0304 26.9433ZM39.8795 28.3939C40.8251 28.3939 41.6761 27.82 42.0304 26.9433L39.249 25.8191C39.3529 25.5621 39.6023 25.3939 39.8795 25.3939V28.3939ZM35.1063 28.3939H39.8795V25.3939H35.1063V28.3939ZM44.0827 33.4808L36.1486 25.8151L34.064 27.9726L41.9982 35.6383L44.0827 33.4808ZM44.6216 36.0186C44.9759 35.1419 44.7627 34.1379 44.0827 33.4808L41.9982 35.6383C41.7988 35.4457 41.7363 35.1514 41.8402 34.8944L44.6216 36.0186ZM42.4707 37.4691C43.4163 37.4691 44.2673 36.8952 44.6216 36.0186L41.8402 34.8944C41.9441 34.6374 42.1935 34.4691 42.4707 34.4691V37.4691ZM38.5751 37.4691H42.4707V34.4691H38.5751V37.4691ZM48.2021 43.1846L39.6174 34.8904L37.5329 37.0479L46.1176 45.3421L48.2021 43.1846ZM48.741 45.7224C49.0954 44.8457 48.8821 43.8417 48.2021 43.1846L46.1176 45.3422C45.9182 45.1496 45.8557 44.8552 45.9596 44.5982L48.741 45.7224ZM46.5901 47.173C47.5357 47.173 48.3867 46.5991 48.741 45.7224L45.9596 44.5982C46.0635 44.3412 46.3129 44.173 46.5901 44.173V47.173ZM33.2652 47.173H46.5901V44.173H33.2652V47.173ZM35.2324 50.4239L34.7582 45.5284L31.7722 45.8176L32.2464 50.7131L35.2324 50.4239ZM50.164 49.0685H33.7394V52.0685H50.164V49.0685ZM52.575 51.4796C52.575 50.148 51.4955 49.0685 50.164 49.0685V52.0685C49.8387 52.0685 49.575 51.8048 49.575 51.4796H52.575ZM50.164 53.8906C51.4955 53.8906 52.575 52.8111 52.575 51.4796H49.575C49.575 51.1543 49.8387 50.8906 50.164 50.8906V53.8906ZM9.92481 53.8906H50.164V50.8906H9.92481V53.8906ZM7.51379 51.4796C7.51379 52.8111 8.59324 53.8906 9.92481 53.8906V50.8906C10.2501 50.8906 10.5138 51.1543 10.5138 51.4796H7.51379ZM9.92481 49.0685C8.59324 49.0685 7.51379 50.148 7.51379 51.4796H10.5138C10.5138 51.8048 10.2501 52.0685 9.92481 52.0685V49.0685ZM14.0763 49.0685H9.92481V52.0685H14.0763V49.0685ZM12.5763 47.7796V50.5685H15.5763V47.7796H12.5763ZM14.5318 45.8241C13.4518 45.8241 12.5763 46.6996 12.5763 47.7796H15.5763C15.5763 48.3565 15.1087 48.8241 14.5318 48.8241V45.8241ZM18.3839 45.8241H14.5318V48.8241H18.3839V45.8241ZM19.0209 45.2966C18.0319 45.2966 17.004 46.0036 16.8908 47.1805L19.877 47.4677C19.8207 48.0535 19.3414 48.2966 19.0209 48.2966V45.2966ZM24.4283 45.2966H19.0209V48.2966H24.4283V45.2966ZM26.5677 47.3749C26.5677 46.0889 25.4645 45.2966 24.4283 45.2966V48.2966C24.0983 48.2966 23.5677 48.0221 23.5677 47.3749H26.5677ZM26.5677 50.5685V47.3749H23.5677V50.5685H26.5677ZM26.3494 49.0685H25.0677V52.0685H26.3494V49.0685ZM25.3305 45.5284L24.8564 50.4239L27.8424 50.7131L28.3166 45.8176L25.3305 45.5284ZM13.4987 47.173H26.8235V44.173H13.4987V47.173ZM11.3575 45.7458C11.7178 46.6101 12.5624 47.173 13.4987 47.173V44.173C13.7732 44.173 14.0208 44.338 14.1264 44.5913L11.3575 45.7458ZM11.8507 43.2203C11.1917 43.8855 10.9971 44.8816 11.3575 45.7458L14.1264 44.5913C14.2321 44.8447 14.175 45.1367 13.9818 45.3317L11.8507 43.2203ZM20.0806 34.9134L11.8507 43.2203L13.9818 45.3317L22.2117 37.0249L20.0806 34.9134ZM17.6181 37.4691H21.1462V34.4691H17.6181V37.4691ZM15.4769 36.042C15.8372 36.9062 16.6818 37.4691 17.6181 37.4691V34.4691C17.8926 34.4691 18.1402 34.6342 18.2459 34.8875L15.4769 36.042ZM15.9701 33.5165C15.3111 34.1816 15.1166 35.1778 15.4769 36.042L18.2459 34.8875C18.3515 35.1409 18.2945 35.4329 18.1013 35.6279L15.9701 33.5165ZM23.5773 25.8382L15.9701 33.5165L18.1013 35.6279L25.7084 27.9496L23.5773 25.8382ZM20.2094 28.3939H24.6429V25.3939H20.2094V28.3939ZM18.0681 26.9667C18.4284 27.831 19.273 28.3939 20.2094 28.3939V25.3939C20.4838 25.3939 20.7314 25.5589 20.8371 25.8123L18.0681 26.9667ZM18.5613 24.4412C17.9023 25.1064 17.7078 26.1025 18.0681 26.9668L20.8371 25.8122C20.9427 26.0656 20.8857 26.3576 20.6925 26.5526L18.5613 24.4412ZM28.1814 14.7312L18.5613 24.4412L20.6925 26.5526L30.3126 16.8426L28.1814 14.7312ZM16.4288 48.2351V50.5685H19.4288V48.2351H16.4288ZM14.9873 49.7351H17.9288V46.7351H14.9873V49.7351ZM16.4873 50.5685V48.2351H13.4873V50.5685H16.4873ZM17.9288 49.0685H14.9873V52.0685H17.9288V49.0685ZM33.1064 45.5331H44.5615V42.5331H33.1064V45.5331ZM31.4534 42.5259L31.6134 44.1777L34.5994 43.8885L34.4394 42.2367L31.4534 42.5259ZM32.1303 43.1404C31.7801 43.1404 31.4871 42.8745 31.4534 42.5259L34.4394 42.2367C34.3242 41.0476 33.3249 40.1404 32.1303 40.1404V43.1404ZM27.9585 43.1404H32.1303V40.1404H27.9585V43.1404ZM28.6354 42.5259C28.6016 42.8745 28.3087 43.1404 27.9585 43.1404V40.1404C26.7638 40.1404 25.7645 41.0476 25.6493 42.2367L28.6354 42.5259ZM28.4754 44.1777L28.6354 42.5259L25.6493 42.2367L25.4894 43.8885L28.4754 44.1777ZM15.4652 45.5331H26.9824V42.5331H15.4652V45.5331ZM20.4278 36.8929L14.3996 42.9774L16.5308 45.0889L22.5589 39.0043L20.4278 36.8929ZM23.2879 37.9618C23.1309 37.9618 22.9977 37.8474 22.9722 37.6973L20.0146 38.2C20.2811 39.768 21.6436 40.9618 23.2879 40.9618V37.9618ZM23.6083 37.6414C23.6083 37.8184 23.4649 37.9618 23.2879 37.9618V40.9618C25.1218 40.9618 26.6083 39.4752 26.6083 37.6414H23.6083ZM23.3409 37.3252C23.4923 37.3494 23.6083 37.4833 23.6083 37.6414H26.6083C26.6083 35.9865 25.3991 34.6169 23.8159 34.363L23.3409 37.3252ZM22.6295 34.6706L22.5128 34.7884L24.644 36.8998L24.7607 36.782L22.6295 34.6706ZM22.4849 35.411C22.3793 35.1576 22.4363 34.8656 22.6295 34.6706L24.7607 36.782C25.4197 36.1168 25.6142 35.1207 25.2539 34.2565L22.4849 35.411ZM23.1127 35.8293C22.8382 35.8293 22.5906 35.6643 22.4849 35.411L25.2539 34.2565C24.8936 33.3922 24.049 32.8293 23.1127 32.8293V35.8293ZM19.5846 35.8293H23.1127V32.8293H19.5846V35.8293ZM26.1262 25.5953L18.5191 33.2736L20.6502 35.385L28.2574 27.7067L26.1262 25.5953ZM25.9816 26.3357C25.876 26.0823 25.933 25.7903 26.1262 25.5953L28.2574 27.7068C28.9164 27.0416 29.1109 26.0454 28.7506 25.1812L25.9816 26.3357ZM26.6094 26.7541C26.3349 26.7541 26.0873 26.589 25.9816 26.3357L28.7506 25.1812C28.3903 24.317 27.5457 23.7541 26.6094 23.7541V26.7541ZM22.1758 26.7541H26.6094V23.7541H22.1758V26.7541ZM28.7765 16.4605L21.1103 24.1983L23.2414 26.3098L30.9076 18.5719L28.7765 16.4605ZM38.8932 24.1753L30.8843 16.4374L28.7998 18.5949L36.8086 26.3328L38.8932 24.1753ZM33.0777 26.7541H37.8509V23.7541H33.0777V26.7541ZM33.7082 26.3288C33.6043 26.5858 33.3549 26.7541 33.0777 26.7541V23.7541C32.1321 23.7541 31.2811 24.328 30.9268 25.2047L33.7082 26.3288ZM33.5502 25.5849C33.7496 25.7775 33.8121 26.0718 33.7082 26.3288L30.9268 25.2047C30.5725 26.0813 30.7857 27.0854 31.4657 27.7424L33.5502 25.5849ZM41.4844 33.2506L33.5502 25.5849L31.4657 27.7424L39.3998 35.4081L41.4844 33.2506ZM36.5465 35.8293H40.4421V32.8293H36.5465V35.8293ZM37.1771 35.4041C37.0732 35.6611 36.8237 35.8293 36.5465 35.8293V32.8293C35.6009 32.8293 34.75 33.4032 34.3956 34.2799L37.1771 35.4041ZM37.0191 34.6601C37.2184 34.8527 37.2809 35.1471 37.1771 35.4041L34.3956 34.2799C34.0413 35.1566 34.2545 36.1606 34.9346 36.8176L37.0191 34.6601ZM39.8915 37.4354L37.0191 34.6601L34.9346 36.8176L37.807 39.5929L39.8915 37.4354ZM38.8159 37.0145C37.0262 37.0542 35.5882 38.5167 35.5882 40.3155H38.5882C38.5882 40.1513 38.7197 40.0174 38.8825 40.0138L38.8159 37.0145ZM35.5882 40.3155C35.5882 42.1391 37.0665 43.6174 38.89 43.6174V40.6174C38.7233 40.6174 38.5882 40.4822 38.5882 40.3155H35.5882ZM38.89 43.6174C40.7136 43.6174 42.1919 42.1391 42.1919 40.3155H39.1919C39.1919 40.4822 39.0567 40.6174 38.89 40.6174V43.6174ZM42.1919 40.3155C42.1919 40.3028 42.1918 40.2899 42.1916 40.2769L39.1918 40.3117C39.1919 40.3128 39.1919 40.3141 39.1919 40.3155H42.1919ZM45.6038 42.9544L41.734 39.2155L39.6495 41.373L43.5193 45.1119L45.6038 42.9544ZM30.1229 44.1777L30.1958 43.4249L27.2098 43.1357L27.1369 43.8885L30.1229 44.1777ZM31.4589 42.5331H28.6299V45.5331H31.4589V42.5331ZM29.893 43.4249L29.9659 44.1777L32.9519 43.8885L32.879 43.1357L29.893 43.4249ZM28.7028 44.7803H31.386V41.7803H28.7028V44.7803ZM28.471 47.173H31.6177V44.173H28.471V47.173ZM29.5098 50.5081L29.9641 45.8176L26.978 45.5284L26.5237 50.2189L29.5098 50.5081ZM32.072 48.8635H28.0167V51.8635H32.072V48.8635ZM30.1247 45.8176L30.579 50.5081L33.565 50.2189L33.1107 45.5284L30.1247 45.8176ZM21.1602 50.4824V47.9532H18.1602V50.4824H21.1602ZM23.7889 48.9824H19.6602V51.9824H23.7889V48.9824ZM22.2889 47.9532V50.4824H25.2889V47.9532H22.2889ZM19.6602 49.4532H23.7889V46.4532H19.6602V49.4532ZM23.2879 40.0508C24.6186 40.0508 25.6973 38.9721 25.6973 37.6414H22.6973C22.6973 37.3152 22.9618 37.0508 23.2879 37.0508V40.0508ZM20.8786 37.6414C20.8786 38.9721 21.9573 40.0508 23.2879 40.0508V37.0508C23.6141 37.0508 23.8786 37.3152 23.8786 37.6414H20.8786ZM23.2879 35.232C21.9573 35.232 20.8786 36.3108 20.8786 37.6414H23.8786C23.8786 37.9676 23.6141 38.232 23.2879 38.232V35.232ZM25.6973 37.6414C25.6973 36.3108 24.6186 35.232 23.2879 35.232V38.232C22.9618 38.232 22.6973 37.9676 22.6973 37.6414H25.6973ZM31.0922 29.2193C31.0922 28.6222 31.5763 28.138 32.1735 28.138V31.138C33.2331 31.138 34.0922 30.279 34.0922 29.2193H31.0922ZM32.1735 30.3006C31.5763 30.3006 31.0922 29.8165 31.0922 29.2193H34.0922C34.0922 28.1597 33.2331 27.3006 32.1735 27.3006V30.3006ZM33.2547 29.2193C33.2547 29.8165 32.7706 30.3006 32.1735 30.3006V27.3006C31.1138 27.3006 30.2547 28.1597 30.2547 29.2193H33.2547ZM32.1735 28.138C32.7706 28.138 33.2547 28.6222 33.2547 29.2193H30.2547C30.2547 30.279 31.1138 31.138 32.1735 31.138V28.138ZM32.0032 29.2193C32.0032 29.1253 32.0794 29.0491 32.1735 29.0491V32.0491C33.7363 32.0491 35.0032 30.7822 35.0032 29.2193H32.0032ZM32.1735 29.3896C32.0794 29.3896 32.0032 29.3134 32.0032 29.2193H35.0032C35.0032 27.6565 33.7363 26.3896 32.1735 26.3896V29.3896ZM32.3437 29.2193C32.3437 29.3134 32.2675 29.3896 32.1735 29.3896V26.3896C30.6106 26.3896 29.3437 27.6565 29.3437 29.2193H32.3437ZM32.1735 29.0491C32.2675 29.0491 32.3437 29.1253 32.3437 29.2193H29.3437C29.3437 30.7822 30.6106 32.0491 32.1735 32.0491V29.0491ZM38.89 42.7064C40.2104 42.7064 41.2809 41.6359 41.2809 40.3155H38.2809C38.2809 39.9791 38.5536 39.7064 38.89 39.7064V42.7064ZM36.4992 40.3155C36.4992 41.636 37.5696 42.7064 38.89 42.7064V39.7064C39.2264 39.7064 39.4992 39.9791 39.4992 40.3155H36.4992ZM38.89 37.9247C37.5696 37.9247 36.4992 38.9951 36.4992 40.3155H39.4992C39.4992 40.652 39.2264 40.9247 38.89 40.9247V37.9247ZM41.2809 40.3155C41.2809 38.9951 40.2104 37.9247 38.89 37.9247V40.9247C38.5536 40.9247 38.2809 40.652 38.2809 40.3155H41.2809Z" fill="#F8F9FA" mask="url(#path-1-outside-1_50_6025)"/>
<rect x="19.3606" y="47.9014" width="4.32106" height="3.25645" fill="#FF8787" stroke="#212529" stroke-width="1.2" stroke-linejoin="round"/>
<rect x="14.5317" y="47.3403" width="4.32106" height="3.81772" fill="#FA5252" stroke="#212529" stroke-width="1.2" stroke-linejoin="round"/>
<path d="M27.9585 42.4346H32.1304L32.9752 51.1576H27.1136L27.9585 42.4346Z" fill="#2B8A3E" stroke="#212529" stroke-width="1.8" stroke-linejoin="round"/>
<path fill-rule="evenodd" clip-rule="evenodd" d="M20.2093 26.0484L29.8294 16.3384L39.8795 26.0484H33.0776L42.4707 35.1237H36.5464L46.5901 44.8276H13.4987L23.1127 35.1237H17.6181L26.6094 26.0484H20.2093Z" fill="#40C057"/>
<path d="M29.8294 16.3384L30.3853 15.763C30.0704 15.4588 29.5693 15.4642 29.2611 15.7753L29.8294 16.3384ZM20.2093 26.0484L19.641 25.4854C19.4138 25.7148 19.3467 26.0583 19.4709 26.3563C19.5952 26.6543 19.8864 26.8484 20.2093 26.8484V26.0484ZM39.8795 26.0484V26.8484C40.2056 26.8484 40.499 26.6505 40.6212 26.3482C40.7434 26.0459 40.6699 25.6997 40.4354 25.4731L39.8795 26.0484ZM33.0776 26.0484V25.2484C32.7515 25.2484 32.4581 25.4463 32.3359 25.7486C32.2137 26.051 32.2873 26.3972 32.5218 26.6238L33.0776 26.0484ZM42.4707 35.1237V35.9237C42.7968 35.9237 43.0902 35.7258 43.2124 35.4235C43.3346 35.1212 43.2611 34.7749 43.0266 34.5484L42.4707 35.1237ZM36.5464 35.1237V34.3237C36.2203 34.3237 35.9269 34.5216 35.8047 34.8239C35.6825 35.1263 35.756 35.4725 35.9905 35.699L36.5464 35.1237ZM46.5901 44.8276V45.6276C46.9162 45.6276 47.2096 45.4297 47.3318 45.1274C47.454 44.825 47.3805 44.4788 47.146 44.2523L46.5901 44.8276ZM13.4987 44.8276L12.9303 44.2645C12.7031 44.4939 12.636 44.8374 12.7603 45.1354C12.8845 45.4335 13.1758 45.6276 13.4987 45.6276V44.8276ZM23.1127 35.1237L23.681 35.6868C23.9082 35.4574 23.9753 35.1139 23.851 34.8158C23.7268 34.5178 23.4355 34.3237 23.1127 34.3237V35.1237ZM17.6181 35.1237L17.0498 34.5607C16.8226 34.79 16.7555 35.1336 16.8797 35.4316C17.004 35.7296 17.2952 35.9237 17.6181 35.9237V35.1237ZM26.6094 26.0484L27.1777 26.6115C27.4049 26.3821 27.472 26.0386 27.3478 25.7406C27.2235 25.4425 26.9323 25.2484 26.6094 25.2484V26.0484ZM29.2611 15.7753L19.641 25.4854L20.7776 26.6115L30.3977 16.9014L29.2611 15.7753ZM40.4354 25.4731L30.3853 15.763L29.2736 16.9137L39.3236 26.6238L40.4354 25.4731ZM33.0776 26.8484H39.8795V25.2484H33.0776V26.8484ZM43.0266 34.5484L33.6335 25.4731L32.5218 26.6238L41.9148 35.699L43.0266 34.5484ZM36.5464 35.9237H42.4707V34.3237H36.5464V35.9237ZM35.9905 35.699L46.0342 45.4029L47.146 44.2523L37.1023 34.5484L35.9905 35.699ZM46.5901 44.0276H13.4987V45.6276H46.5901V44.0276ZM14.067 45.3906L23.681 35.6868L22.5443 34.5607L12.9303 44.2645L14.067 45.3906ZM17.6181 35.9237H23.1127V34.3237H17.6181V35.9237ZM26.0411 25.4854L17.0498 34.5607L18.1864 35.6868L27.1777 26.6115L26.0411 25.4854ZM20.2093 26.8484H26.6094V25.2484H20.2093V26.8484Z" fill="#212529"/>
<g style="mix-blend-mode:multiply" opacity="0.5">
<path d="M44.586 44.0892L36.7976 36.4912L41.8747 44.0892H44.586Z" fill="#40C057"/>
</g>
<path d="M9.9248 51.4541H50.164" stroke="#212529" stroke-width="2" stroke-linecap="round" stroke-linejoin="round"/>
<path d="M29.7844 8.33447L30.7309 10.7505L33.3212 10.9041L31.3158 12.5508L31.9703 15.0618L29.7844 13.6634L27.5986 15.0618L28.253 12.5508L26.2477 10.9041L28.838 10.7505L29.7844 8.33447Z" fill="#FFE066" stroke="#212529" stroke-linecap="round" stroke-linejoin="round"/>
<circle cx="12.3976" cy="31.4139" r="1.05896" fill="#F8F9FA" stroke="#212529"/>
<circle cx="45.7473" cy="18.4584" r="1.05896" fill="#F8F9FA" stroke="#212529"/>
<circle cx="23.2879" cy="37.6162" r="0.570257" fill="#F8F9FA"/>
<circle cx="32.1734" cy="29.1939" r="0.801823" fill="#F8F9FA"/>
<circle cx="37.813" cy="41.367" r="0.724914" fill="#F8F9FA"/>
<circle cx="17.9211" cy="16.3059" r="1.65262" fill="#F8F9FA" stroke="#212529"/>
<g style="mix-blend-mode:multiply" opacity="0.5">
<path d="M37.6808 25.1624L29.8925 17.5645L34.9696 25.1624H37.6808Z" fill="#40C057"/>
</g>
<g style="mix-blend-mode:multiply" opacity="0.5">
<path d="M40.4088 34.3226L32.6205 26.7246L37.6976 34.3226H40.4088Z" fill="#40C057"/>
</g>
<g style="mix-blend-mode:multiply" opacity="0.4">
<path d="M30.6722 45.6934H31.6288L31.9889 50.2613H31.2825L31.073 46.343H28.3439L28.5198 45.6934H30.6722Z" fill="#2B8A3E"/>
</g>
</svg>
