<svg width="60" height="61" viewBox="0 0 60 61" fill="none" xmlns="http://www.w3.org/2000/svg">
<mask id="path-1-outside-1_50_796" maskUnits="userSpaceOnUse" x="6.93652" y="7.70837" width="46" height="46" fill="black">
<rect fill="white" x="6.93652" y="7.70837" width="46" height="46"/>
<path fill-rule="evenodd" clip-rule="evenodd" d="M50.9365 24.3169C50.9365 16.1081 44.2579 11.8825 39.9979 10.5975C37.8313 9.94398 32.4644 9.09274 26.7554 10.3702C21.0038 11.6572 14.8771 15.1178 11.3935 23.0925C8.35167 30.0562 8.81253 36.0262 9.84671 40.5C11.4907 47.6121 18.268 51.6032 23.7363 51.2727C25.9387 51.1396 27.6479 50.5929 29.0289 49.7194C30.4061 48.8485 31.4 47.6884 32.2243 46.4182C32.8884 45.3948 33.465 44.2611 34.0366 43.1373L34.0366 43.1372C34.1648 42.8854 34.2926 42.634 34.4211 42.3845C35.1347 40.9991 35.8898 39.6259 36.8852 38.3391C37.8377 37.1076 39.1252 36.1316 40.5841 35.2338C41.312 34.7858 42.0699 34.3648 42.8414 33.941L43.1119 33.7925C43.7907 33.4202 44.479 33.0426 45.1417 32.651C48.1376 30.8805 50.9365 28.6352 50.9365 24.3169Z"/>
</mask>
<path fill-rule="evenodd" clip-rule="evenodd" d="M50.9365 24.3169C50.9365 16.1081 44.2579 11.8825 39.9979 10.5975C37.8313 9.94398 32.4644 9.09274 26.7554 10.3702C21.0038 11.6572 14.8771 15.1178 11.3935 23.0925C8.35167 30.0562 8.81253 36.0262 9.84671 40.5C11.4907 47.6121 18.268 51.6032 23.7363 51.2727C25.9387 51.1396 27.6479 50.5929 29.0289 49.7194C30.4061 48.8485 31.4 47.6884 32.2243 46.4182C32.8884 45.3948 33.465 44.2611 34.0366 43.1373L34.0366 43.1372C34.1648 42.8854 34.2926 42.634 34.4211 42.3845C35.1347 40.9991 35.8898 39.6259 36.8852 38.3391C37.8377 37.1076 39.1252 36.1316 40.5841 35.2338C41.312 34.7858 42.0699 34.3648 42.8414 33.941L43.1119 33.7925C43.7907 33.4202 44.479 33.0426 45.1417 32.651C48.1376 30.8805 50.9365 28.6352 50.9365 24.3169Z" fill="#F8F9FA"/>
<path d="M39.9979 10.5975L39.5647 12.0336L39.5647 12.0336L39.9979 10.5975ZM26.7554 10.3702L27.083 11.834L27.083 11.834L26.7554 10.3702ZM11.3935 23.0925L10.019 22.4921L10.019 22.4921L11.3935 23.0925ZM9.84671 40.5L11.3082 40.1622L11.3082 40.1622L9.84671 40.5ZM23.7363 51.2727L23.8268 52.77L23.8268 52.77L23.7363 51.2727ZM29.0289 49.7194L29.8307 50.9872L29.8307 50.9872L29.0289 49.7194ZM32.2243 46.4182L33.4825 47.2348L33.4825 47.2348L32.2243 46.4182ZM34.0366 43.1373L35.3736 43.8174L35.3782 43.8081L34.0366 43.1373ZM34.0366 43.1372L32.6996 42.4572L32.695 42.4664L34.0366 43.1372ZM34.4211 42.3845L33.0876 41.6976L33.0876 41.6976L34.4211 42.3845ZM36.8852 38.3391L38.0716 39.2568L38.0716 39.2568L36.8852 38.3391ZM40.5841 35.2338L39.7979 33.9563L39.7979 33.9563L40.5841 35.2338ZM42.8414 33.941L42.1197 32.626L42.1192 32.6263L42.8414 33.941ZM43.1119 33.7925L42.3905 32.4774L42.3903 32.4775L43.1119 33.7925ZM45.1417 32.651L45.9048 33.9424L45.9048 33.9424L45.1417 32.651ZM39.5647 12.0336C43.548 13.2351 49.4365 17.079 49.4365 24.3169H52.4365C52.4365 15.1371 44.9679 10.5299 40.4311 9.16144L39.5647 12.0336ZM27.083 11.834C32.4986 10.6222 37.6008 11.4412 39.5647 12.0336L40.4311 9.16144C38.0618 8.44674 32.4302 7.5633 26.4279 8.90637L27.083 11.834ZM12.7681 23.693C16.0224 16.2431 21.6974 13.039 27.083 11.834L26.4279 8.90637C20.3101 10.2753 13.7317 13.9925 10.019 22.4921L12.7681 23.693ZM11.3082 40.1622C10.3233 35.9016 9.89126 30.2789 12.7681 23.693L10.019 22.4921C6.81208 29.8336 7.30178 36.1508 8.38525 40.8379L11.3082 40.1622ZM23.6458 49.7754C18.852 50.0652 12.7748 46.507 11.3082 40.1622L8.38525 40.8379C10.2066 48.7171 17.6839 53.1412 23.8268 52.77L23.6458 49.7754ZM28.2272 48.4517C27.0948 49.1678 25.6401 49.6549 23.6458 49.7754L23.8268 52.77C26.2373 52.6243 28.2009 52.0179 29.8307 50.9872L28.2272 48.4517ZM30.966 45.6017C30.2145 46.7598 29.3623 47.7337 28.2271 48.4517L29.8307 50.9872C31.4498 49.9632 32.5855 48.6171 33.4825 47.2348L30.966 45.6017ZM32.6996 42.4573C32.121 43.5949 31.5796 44.6561 30.966 45.6017L33.4825 47.2348C34.1972 46.1335 34.8091 44.9273 35.3736 43.8174L32.6996 42.4573ZM32.695 42.4664L32.695 42.4665L35.3782 43.8081L35.3783 43.8081L32.695 42.4664ZM33.0876 41.6976C32.9571 41.9511 32.8275 42.2059 32.6996 42.4572L35.3736 43.8173C35.502 43.5648 35.6282 43.3169 35.7546 43.0713L33.0876 41.6976ZM35.6987 37.4213C34.6158 38.8213 33.8098 40.2956 33.0876 41.6976L35.7546 43.0713C36.4596 41.7027 37.1639 40.4304 38.0716 39.2568L35.6987 37.4213ZM39.7979 33.9563C38.275 34.8935 36.812 35.982 35.6987 37.4213L38.0716 39.2568C38.8634 38.2332 39.9754 37.3697 41.3703 36.5113L39.7979 33.9563ZM42.1192 32.6263C41.3474 33.0502 40.5606 33.487 39.7979 33.9563L41.3703 36.5113C42.0635 36.0847 42.7923 35.6793 43.5635 35.2557L42.1192 32.6263ZM42.3903 32.4775L42.1197 32.626L43.563 35.256L43.8336 35.1075L42.3903 32.4775ZM44.3785 31.3597C43.7401 31.737 43.0731 32.103 42.3905 32.4774L43.8333 35.1077C44.5084 34.7374 45.218 34.3483 45.9048 33.9424L44.3785 31.3597ZM49.4365 24.3169C49.4365 27.7834 47.2872 29.6407 44.3785 31.3597L45.9048 33.9424C48.988 32.1204 52.4365 29.4869 52.4365 24.3169H49.4365Z" fill="#F8F9FA" mask="url(#path-1-outside-1_50_796)"/>
<path fill-rule="evenodd" clip-rule="evenodd" d="M50.0605 24.3222C50.0605 31.9654 40.3779 32.3971 36.1923 37.8085C32.0066 43.2199 32.0066 49.9007 23.6834 50.4037C18.6095 50.7104 12.2407 46.9726 10.7001 40.3081C9.69477 35.9589 9.25071 30.1917 12.1962 23.4486C18.8957 8.11174 35.6485 10.2059 39.7449 11.4415C43.8413 12.6772 50.0605 16.679 50.0605 24.3222Z" fill="#FFF3BF" stroke="#212529" stroke-width="2" stroke-linejoin="round"/>
<g style="mix-blend-mode:multiply" opacity="0.5">
<path fill-rule="evenodd" clip-rule="evenodd" d="M42.3455 33.0654C45.9862 31.0683 49.4763 29.1539 49.4763 24.64C49.4763 22.1678 48.8038 20.0892 47.7604 18.3728C48.1792 19.5791 48.421 20.9202 48.421 22.4029C48.421 26.9168 44.931 28.8313 41.2902 30.8284C38.9658 32.1034 36.5801 33.4121 35.0019 35.4524C33.8013 37.0047 32.9566 38.6649 32.1525 40.2452C30.2441 43.996 28.5644 47.2973 22.8982 47.6397C18.9925 47.8758 14.2938 45.6351 11.7851 41.4623C13.7661 47.0594 19.3989 50.1521 23.9535 49.8768C29.6197 49.5343 31.2994 46.233 33.2078 42.4823C34.0119 40.9019 34.8566 39.2418 36.0572 37.6895C37.6353 35.6492 40.0211 34.3405 42.3455 33.0654Z" fill="#DEE2E6"/>
</g>
<circle cx="39.9402" cy="19.6411" r="2.94859" transform="rotate(90 39.9402 19.6411)" fill="#FA5252" stroke="#212529" stroke-width="1.4" stroke-linejoin="round"/>
<circle cx="29.123" cy="19.0347" r="3.18317" transform="rotate(90 29.123 19.0347)" fill="#91A7FF" stroke="#212529" stroke-width="1.4" stroke-linejoin="round"/>
<circle cx="20.7189" cy="26.9721" r="3.53337" transform="rotate(90 20.7189 26.9721)" fill="#FFD43B" stroke="#212529" stroke-width="1.4" stroke-linejoin="round"/>
<circle cx="22.4701" cy="40.2669" r="4.4485" transform="rotate(90 22.4701 40.2669)" fill="#FF922B" stroke="#212529" stroke-width="1.4" stroke-linejoin="round"/>
</svg>
