<svg width="60" height="60" viewBox="0 0 60 60" fill="none" xmlns="http://www.w3.org/2000/svg">
<g clip-path="url(#clip0_50_5836)">
<mask id="path-1-outside-1_50_5836" maskUnits="userSpaceOnUse" x="-3.08593" y="2.93811" width="65.9809" height="58.7166" fill="black">
<rect fill="white" x="-3.08593" y="2.93811" width="65.9809" height="58.7166"/>
<path fill-rule="evenodd" clip-rule="evenodd" d="M17.3137 42.1703C10.6072 40.6302 5.60526 34.6246 5.60526 27.4507C5.60526 20.2767 10.6074 14.271 17.3142 12.7311C18.9916 12.118 20.8032 11.7834 22.693 11.7834C29.5587 11.7834 35.3929 16.1996 37.51 22.3463C38.6088 22.3945 39.7107 22.5635 40.7962 22.8593C42.5042 23.1296 44.1961 23.6894 45.8034 24.5591C53.4135 28.6772 56.2444 38.1847 52.1263 45.7948C48.0083 53.4049 38.5007 56.2358 30.8906 52.1177C28.8749 51.027 27.1945 49.5581 25.8898 47.8466C24.5713 46.4605 23.546 44.851 22.8434 43.1175C22.7933 43.1179 22.7432 43.1182 22.693 43.1182C20.8031 43.1182 18.9913 42.7835 17.3137 42.1703Z"/>
</mask>
<path fill-rule="evenodd" clip-rule="evenodd" d="M17.3137 42.1703C10.6072 40.6302 5.60526 34.6246 5.60526 27.4507C5.60526 20.2767 10.6074 14.271 17.3142 12.7311C18.9916 12.118 20.8032 11.7834 22.693 11.7834C29.5587 11.7834 35.3929 16.1996 37.51 22.3463C38.6088 22.3945 39.7107 22.5635 40.7962 22.8593C42.5042 23.1296 44.1961 23.6894 45.8034 24.5591C53.4135 28.6772 56.2444 38.1847 52.1263 45.7948C48.0083 53.4049 38.5007 56.2358 30.8906 52.1177C28.8749 51.027 27.1945 49.5581 25.8898 47.8466C24.5713 46.4605 23.546 44.851 22.8434 43.1175C22.7933 43.1179 22.7432 43.1182 22.693 43.1182C20.8031 43.1182 18.9913 42.7835 17.3137 42.1703Z" fill="#F8F9FA"/>
<path d="M5.60526 27.4507L4.10526 27.4507L4.10526 27.4507L5.60526 27.4507ZM17.3137 42.1703L17.8287 40.7615C17.7701 40.74 17.7102 40.7223 17.6494 40.7083L17.3137 42.1703ZM17.3142 12.7311L17.6498 14.1931C17.7106 14.1791 17.7705 14.1614 17.8291 14.1399L17.3142 12.7311ZM22.693 11.7834L22.693 10.2834L22.693 10.2834L22.693 11.7834ZM37.51 22.3463L36.0918 22.8348C36.2924 23.4173 36.8288 23.8179 37.4443 23.8448L37.51 22.3463ZM40.7962 22.8593L40.4018 24.3066C40.4545 24.3209 40.5079 24.3324 40.5618 24.3409L40.7962 22.8593ZM25.8898 47.8466L27.0827 46.9372C27.0496 46.8938 27.0142 46.8523 26.9766 46.8128L25.8898 47.8466ZM22.8434 43.1175L24.2336 42.5541C24.0022 41.9831 23.4453 41.6117 22.8293 41.6175L22.8434 43.1175ZM22.693 43.1182L22.693 41.6182L22.693 41.6182L22.693 43.1182ZM4.10526 27.4507C4.10526 35.339 9.60517 41.9392 16.978 43.6322L17.6494 40.7083C11.6092 39.3213 7.10526 33.9102 7.10526 27.4507L4.10526 27.4507ZM16.9785 11.2691C9.60542 12.962 4.10526 19.5623 4.10526 27.4507L7.10526 27.4507C7.10526 20.9912 11.6094 15.58 17.6498 14.1931L16.9785 11.2691ZM22.693 10.2834C20.625 10.2834 18.6393 10.6497 16.7992 11.3223L17.8291 14.1399C19.344 13.5862 20.9815 13.2834 22.693 13.2834L22.693 10.2834ZM38.9283 21.8578C36.6091 15.1245 30.2183 10.2834 22.693 10.2834L22.693 13.2834C28.899 13.2834 34.1767 17.2747 36.0918 22.8348L38.9283 21.8578ZM37.4443 23.8448C38.4334 23.8882 39.425 24.0404 40.4018 24.3066L41.1906 21.4121C39.9964 21.0867 38.7842 20.9007 37.5758 20.8477L37.4443 23.8448ZM46.5173 23.2399C44.7585 22.2881 42.9041 21.6742 41.0306 21.3778L40.5618 24.3409C42.1042 24.5849 43.6338 25.0906 45.0895 25.8784L46.5173 23.2399ZM53.4455 46.5087C57.9579 38.17 54.856 27.7522 46.5173 23.2399L45.0895 25.8784C51.971 29.6021 54.5309 38.1994 50.8071 45.0809L53.4455 46.5087ZM30.1767 53.437C38.5154 57.9493 48.9332 54.8474 53.4455 46.5087L50.8071 45.0809C47.0833 51.9625 38.486 54.5223 31.6045 50.7985L30.1767 53.437ZM24.6969 48.756C26.1279 50.6332 27.9705 52.2431 30.1767 53.437L31.6045 50.7985C29.7794 49.8109 28.2611 48.4831 27.0827 46.9372L24.6969 48.756ZM26.9766 46.8128C25.7903 45.5656 24.8668 44.1165 24.2336 42.5541L21.4533 43.6808C22.2252 45.5856 23.3523 47.3554 24.8029 48.8804L26.9766 46.8128ZM22.693 44.6182C22.7479 44.6182 22.8028 44.6179 22.8576 44.6174L22.8293 41.6175C22.7839 41.6179 22.7385 41.6182 22.693 41.6182L22.693 44.6182ZM16.7987 43.5791C18.6389 44.2518 20.6248 44.6182 22.693 44.6182L22.693 41.6182C20.9813 41.6182 19.3437 41.3153 17.8287 40.7615L16.7987 43.5791Z" fill="#F8F9FA" mask="url(#path-1-outside-1_50_5836)"/>
<circle cx="22.7813" cy="27.2774" r="15.0674" fill="#D0BFFF" stroke="#212529" stroke-width="1.2" stroke-linecap="round" stroke-linejoin="round"/>
<circle cx="20.796" cy="27.2774" r="14.4024" fill="#91A7FF" stroke="#212529" stroke-width="1.4" stroke-linecap="round" stroke-linejoin="round"/>
<path d="M20.796 27.2774H34.1984C34.7507 27.2774 35.2021 26.829 35.1643 26.278C34.919 22.6991 33.3662 19.4795 30.9801 17.0934M20.796 27.2774V13.875C20.796 13.3227 21.2445 12.8714 21.7955 12.9091C25.3744 13.1544 28.5939 14.7072 30.9801 17.0934M20.796 27.2774L30.9801 17.0934" stroke="#212529" stroke-width="1.4" stroke-linecap="round" stroke-linejoin="round"/>
<path d="M20.796 27.2773L7.39361 27.2773C6.84132 27.2773 6.38998 27.7257 6.42774 28.2767C6.67305 31.8556 8.22581 35.0752 10.612 37.4613M20.796 27.2773L20.796 40.6797C20.796 41.232 20.3476 41.6833 19.7966 41.6456C16.2177 41.4002 12.9981 39.8475 10.612 37.4613M20.796 27.2773L10.612 37.4613" stroke="#212529" stroke-width="1.4" stroke-linecap="round" stroke-linejoin="round"/>
<path d="M34.1984 27.2773H20.796V40.6797C20.796 41.232 21.2445 41.6833 21.7955 41.6456C25.3744 41.4002 28.5939 39.8475 30.9801 37.4613C33.3662 35.0752 34.919 31.8556 35.1643 28.2767C35.2021 27.7257 34.7507 27.2773 34.1984 27.2773Z" fill="#91A7FF"/>
<path d="M20.796 27.2773H34.1984C34.7507 27.2773 35.2021 27.7257 35.1643 28.2767C34.919 31.8556 33.3662 35.0752 30.9801 37.4613M20.796 27.2773V40.6797C20.796 41.232 21.2445 41.6833 21.7955 41.6456C25.3744 41.4002 28.5939 39.8475 30.9801 37.4613M20.796 27.2773L30.9801 37.4613" stroke="#212529" stroke-width="1.4" stroke-linecap="round" stroke-linejoin="round"/>
<path d="M7.3936 27.2774L20.796 27.2774L20.796 13.875C20.796 13.3227 20.3476 12.8714 19.7966 12.9091C16.2177 13.1544 12.9981 14.7072 10.612 17.0934C8.22581 19.4795 6.67305 22.6991 6.42774 26.278C6.38997 26.829 6.84132 27.2774 7.3936 27.2774Z" fill="#91A7FF"/>
<path d="M20.796 27.2774L7.3936 27.2774C6.84132 27.2774 6.38997 26.829 6.42774 26.278C6.67305 22.6991 8.22581 19.4795 10.612 17.0934M20.796 27.2774L20.796 13.875C20.796 13.3227 20.3476 12.8714 19.7966 12.9091C16.2177 13.1544 12.9981 14.7072 10.612 17.0934M20.796 27.2774L10.612 17.0934" stroke="#212529" stroke-width="1.4" stroke-linecap="round" stroke-linejoin="round"/>
<circle cx="20.796" cy="27.2774" r="8.51324" fill="#F8F9FA" stroke="#212529" stroke-width="1.4" stroke-linecap="round" stroke-linejoin="round"/>
<path d="M18.1047 27.2519L20.6934 23.7889C20.7744 23.6805 20.9375 23.6822 21.0162 23.7922L23.4937 27.2554C23.5445 27.3265 23.5433 27.4224 23.4907 27.4921L21.0133 30.7776C20.9344 30.8823 20.7777 30.884 20.6966 30.781L18.1078 27.4954C18.0518 27.4243 18.0505 27.3244 18.1047 27.2519Z" fill="#212529"/>
<g style="mix-blend-mode:multiply">
<path d="M33.5744 21.6777L34.4814 24.3292C32.2719 25.6549 27.4622 28.9063 25.8992 31.3065C24.3363 33.7067 24.8759 39.4235 25.3411 41.9819L21.4337 42.6099C20.6895 40.2841 19.9824 34.3347 23.1083 29.1435C26.2342 23.9524 31.3881 22.0034 33.5744 21.6777Z" fill="#DEE2E6"/>
</g>
<circle cx="38.4354" cy="38.1651" r="15.0674" transform="rotate(28.4192 38.4354 38.1651)" fill="#F59F00" stroke="#212529" stroke-width="1.2" stroke-linecap="round" stroke-linejoin="round"/>
<circle cx="36.9257" cy="37.2638" r="14.4024" transform="rotate(28.4192 36.9257 37.2638)" fill="#FCC419" stroke="#212529" stroke-width="1.4" stroke-linecap="round" stroke-linejoin="round"/>
<path d="M36.9257 37.2639L48.7129 43.6424C49.1987 43.9052 49.809 43.7256 50.0381 43.2231C51.5256 39.9587 51.6922 36.3882 50.7292 33.154M36.9257 37.2639L43.3041 25.4767C43.567 24.9909 44.1762 24.8074 44.6428 25.1028C47.6736 27.0218 49.7662 29.9197 50.7292 33.154M36.9257 37.2639L50.7292 33.154" stroke="#212529" stroke-width="1.4" stroke-linecap="round" stroke-linejoin="round"/>
<path d="M36.9257 37.2639L25.1384 30.8854C24.6527 30.6226 24.0423 30.8022 23.8133 31.3048C22.3258 34.5691 22.1591 38.1397 23.1221 41.3739M36.9257 37.2639L30.5472 49.0512C30.2844 49.5369 29.6752 49.7204 29.2085 49.425C26.1777 47.506 24.0851 44.6081 23.1221 41.3739M36.9257 37.2639L23.1221 41.3739" stroke="#212529" stroke-width="1.4" stroke-linecap="round" stroke-linejoin="round"/>
<path d="M36.9257 37.2639L48.7129 43.6424C49.1987 43.9052 49.3822 44.5144 49.0868 44.981C47.1678 48.0119 44.2699 50.1044 41.0357 51.0674M36.9257 37.2639L30.5472 49.0512C30.2844 49.5369 30.464 50.1473 30.9665 50.3763C34.2309 51.8638 37.8014 52.0304 41.0357 51.0674M36.9257 37.2639L41.0357 51.0674" stroke="#212529" stroke-width="1.4" stroke-linecap="round" stroke-linejoin="round"/>
<path d="M36.9257 37.2639L25.1384 30.8855C24.6526 30.6226 24.4691 30.0134 24.7646 29.5468C26.6836 26.516 29.5814 24.4234 32.8157 23.4604M36.9257 37.2639L43.3041 25.4767C43.567 24.9909 43.3873 24.3805 42.8848 24.1515C39.6204 22.664 36.0499 22.4974 32.8157 23.4604M36.9257 37.2639L32.8157 23.4604" stroke="#212529" stroke-width="1.4" stroke-linecap="round" stroke-linejoin="round"/>
<circle cx="36.9257" cy="37.264" r="8.51324" transform="rotate(28.4192 36.9257 37.264)" fill="#F8F9FA" stroke="#212529" stroke-linecap="round" stroke-linejoin="round"/>
<path fill-rule="evenodd" clip-rule="evenodd" d="M39.7924 36.6055C39.737 36.7079 39.6746 36.8042 39.6062 36.8941C40.5482 37.5187 40.874 38.7705 40.3257 39.7837C39.7454 40.8561 38.4056 41.2551 37.3331 40.6748C36.6926 40.3281 36.2923 39.7105 36.1975 39.0408C36.0892 39.9317 36.303 40.6244 36.877 41.4868C36.9975 41.6677 36.7894 41.9107 36.5982 41.8072L33.2206 39.9795C33.0334 39.8782 33.1141 39.5811 33.327 39.576C34.265 39.5533 34.9264 39.3772 35.5807 38.9247C35.0196 39.1144 34.3843 39.0792 33.8223 38.7751C32.7499 38.1948 32.351 36.855 32.9313 35.7826C33.4841 34.7609 34.7262 34.3505 35.7698 34.8156C35.8075 34.7099 35.8537 34.6057 35.9088 34.5039C36.4891 33.4315 37.829 33.0326 38.9014 33.6129C39.9738 34.1932 40.3727 35.5331 39.7924 36.6055Z" fill="#212529"/>
<g style="mix-blend-mode:multiply">
<path fill-rule="evenodd" clip-rule="evenodd" d="M28.8336 48.8885C35.8292 52.674 44.5691 50.0717 48.3547 43.0761C51.5288 37.2104 50.212 30.1186 45.5801 25.749C51.1966 29.9595 53.0333 37.7593 49.5924 44.118C45.8068 51.1136 37.0669 53.7159 30.0713 49.9304C28.9412 49.3189 27.9258 48.5781 27.0334 47.7363C27.5961 48.158 28.1966 48.5438 28.8336 48.8885Z" fill="#DEE2E6"/>
</g>
</g>
<defs>
<clipPath id="clip0_50_5836">
<rect width="60" height="60" fill="white"/>
</clipPath>
</defs>
</svg>
