<svg width="60" height="60" viewBox="0 0 60 60" fill="none" xmlns="http://www.w3.org/2000/svg">
<mask id="path-1-outside-1_50_10446" maskUnits="userSpaceOnUse" x="5.03015" y="13.8252" width="50" height="32" fill="black">
<rect fill="white" x="5.03015" y="13.8252" width="50" height="32"/>
<path fill-rule="evenodd" clip-rule="evenodd" d="M24.7863 17.538C23.4163 17.5705 22.2811 18.5185 21.9556 19.7848C21.8506 20.1931 21.4468 20.4499 21.0325 20.3718C20.8663 20.3404 20.6936 20.3258 20.5161 20.33C19.1601 20.3621 18.0868 21.4875 18.1189 22.8435C18.1269 23.1786 18.2011 23.4946 18.328 23.7806C18.4412 24.0358 18.4133 24.3315 18.2542 24.5609C18.0952 24.7903 17.8281 24.9202 17.5494 24.9037C17.4895 24.9001 17.4288 24.899 17.3675 24.9005C16.1774 24.9287 15.2355 25.9163 15.2637 27.1063C15.2826 27.904 15.733 28.5911 16.3867 28.9483C17.1665 28.3381 18.149 27.9736 19.2168 27.9736C20.0812 27.9736 20.8911 28.2128 21.5822 28.6284C22.2734 28.2128 23.0832 27.9736 23.9476 27.9736C24.4673 27.9736 24.9667 28.0599 25.4323 28.2188C25.9788 27.9891 26.5744 27.8632 27.1907 27.8615C27.1283 28.0634 27.0791 28.272 27.0442 28.4865C27.0379 28.5254 27.032 28.5643 27.0267 28.6032L27.8181 28.7114L27.6885 29.5008L27.6897 29.501C27.5711 29.4817 27.4529 29.4697 27.3358 29.4646C27.4543 29.5939 27.5656 29.73 27.6689 29.8723C28.1687 29.6861 28.7093 29.5845 29.2726 29.5845C30.0794 29.5845 30.8376 29.7924 31.4967 30.1575C35.0026 29.7363 37.9209 29.077 39.2329 28.7147C39.2981 28.6779 39.3695 28.6498 39.446 28.6321C40.5552 28.3756 41.3927 27.4264 41.4934 26.275C41.2573 26.168 41.0034 26.0901 40.7354 26.0465C40.0379 25.933 39.3596 26.0696 38.7885 26.3907C38.4631 26.5737 38.0543 26.5072 37.8036 26.2305C37.3637 25.7449 36.7636 25.4003 36.066 25.2868L33.5963 26.0033C34.2396 25.4329 35.1195 25.1439 36.0312 25.2814L32.6058 24.7445C33.5959 23.9024 34.9372 23.4822 36.3229 23.7076C37.1761 23.8464 37.9371 24.2126 38.5526 24.7338C39.3005 24.435 40.137 24.3288 40.9889 24.4667C40.4918 23.7899 39.6831 23.3587 38.7799 23.3801C38.7599 23.3806 38.74 23.3813 38.7201 23.3822C38.477 23.3933 38.242 23.2931 38.0816 23.1099C37.9213 22.9267 37.8531 22.6805 37.8963 22.441C37.9317 22.2452 37.948 22.0423 37.9431 21.8341C37.9039 20.1802 36.5313 18.8712 34.8774 18.9104C34.3252 18.9235 33.8137 19.0844 33.3772 19.3539C33.188 19.4708 32.9585 19.5035 32.7441 19.4444C32.5297 19.3852 32.3495 19.2394 32.247 19.042C31.7354 18.0572 30.6965 17.3981 29.5157 17.4261C28.8092 17.4428 28.1676 17.7018 27.6653 18.1224C27.379 18.3621 26.965 18.3719 26.6677 18.146C26.146 17.7496 25.4928 17.5213 24.7863 17.538ZM32.4133 26.3465L33.5963 26.0033C33.5303 26.0618 33.4668 26.1233 33.406 26.1876C33.19 26.4159 32.8604 26.4967 32.5634 26.394C32.514 26.3769 32.464 26.3611 32.4133 26.3465ZM29.3363 27.2391C29.995 26.496 31.0085 26.0963 32.061 26.2675C32.1817 26.2872 32.2992 26.3136 32.4133 26.3465L29.3363 27.2391ZM29.3363 27.2391L27.1907 27.8615C27.4399 27.8608 27.6925 27.8805 27.9466 27.9218L27.9478 27.922L27.949 27.9222L27.8193 28.7116L27.8181 28.7114L27.6897 29.501C27.9027 29.536 28.1209 29.4834 28.2945 29.3552C28.4682 29.2269 28.5827 29.0339 28.612 28.82C28.6154 28.7945 28.6193 28.7689 28.6234 28.7433C28.7178 28.1629 28.9731 27.6488 29.3363 27.2391ZM26.0913 30.4766C25.9132 30.2943 25.7122 30.1346 25.4929 30.0023C25.3137 30.1276 25.1482 30.2723 24.9998 30.434C25.3606 30.4536 25.725 30.4681 26.0913 30.4766ZM23.6154 29.5918C23.068 29.652 22.566 29.8594 22.1482 30.174C22.4767 30.2154 22.8131 30.254 23.1558 30.289C23.2883 30.0412 23.4425 29.8081 23.6154 29.5918ZM20.7017 29.9667C20.2642 29.7164 19.7578 29.5736 19.2168 29.5736C19.0613 29.5736 18.9086 29.5854 18.7595 29.6082C18.8831 29.6342 19.0103 29.6604 19.1411 29.6865L19.2168 29.5736L19.4247 29.742C19.8234 29.8186 20.2509 29.8944 20.7017 29.9667ZM18.1787 31.1201C17.6433 31.0035 17.1805 30.8901 16.8075 30.7888C16.783 30.8219 16.7591 30.8555 16.7359 30.8896C16.5595 31.1497 16.247 31.2823 15.9374 31.2286C15.7702 31.1997 15.5978 31.1845 15.4213 31.1845C13.7669 31.1845 12.4257 32.5256 12.4257 34.18C12.4257 34.206 12.426 34.2318 12.4267 34.2576C12.4321 34.4734 12.3501 34.6823 12.1993 34.8367C12.0485 34.9912 11.8416 35.0781 11.6257 35.0778L11.6257 34.2778L11.6245 35.0778L11.6257 35.0778C9.9713 35.0778 8.63015 36.419 8.63015 38.0734C8.63015 39.5582 9.71129 40.7921 11.1293 41.0281C11.1695 41.0348 11.2089 41.0445 11.2472 41.0571L11.2332 41.0528L10.998 41.8172L10.8689 42.5929L10.8109 42.5968C8.66139 42.2117 7.03015 40.3338 7.03015 38.0734C7.03015 35.7927 8.69148 33.9001 10.87 33.5396C11.1484 31.5425 12.7103 29.9564 14.6955 29.6415C14.076 28.9897 13.6871 28.1146 13.6642 27.1442C13.6213 25.3336 14.8672 23.792 16.5644 23.3975C16.5387 23.2286 16.5235 23.0564 16.5194 22.8814C16.4663 20.642 18.2388 18.7835 20.4782 18.7305C20.5287 18.7293 20.5791 18.729 20.6292 18.7297C21.3147 17.1249 22.8887 15.9825 24.7484 15.9385C25.6125 15.918 26.4279 16.138 27.1287 16.5371C27.8098 16.1053 28.6137 15.847 29.4778 15.8265C31.0088 15.7902 32.3815 16.507 33.243 17.6365C33.7383 17.4386 34.2764 17.3242 34.8395 17.3108C37.3768 17.2507 39.4825 19.2589 39.5426 21.7962L39.5434 21.8365C41.333 22.1327 42.756 23.5478 43.0484 25.3534C43.6215 25.793 44.0824 26.3616 44.3946 27.0079C44.8971 26.8619 45.4393 26.8224 45.9896 26.9119C47.9696 27.2339 49.3136 29.1 48.9915 31.08C48.9774 31.167 48.9602 31.2528 48.9402 31.3374C48.9972 31.3445 49.0542 31.3526 49.1113 31.3619C51.6164 31.7694 53.3169 34.1305 52.9095 36.6356C52.5585 38.7935 50.7589 40.3531 48.666 40.485C48.6272 40.4947 48.5872 40.5017 48.5463 40.5056C46.9024 40.6627 42.4458 40.8324 37.5349 40.2837C37.3978 40.2684 37.2608 40.252 37.1238 40.2345C36.5052 41.3915 35.4059 42.2527 34.0927 42.5519C34.0561 42.5676 34.018 42.5808 33.9784 42.5912C32.381 43.0102 28.0095 43.8932 23.0742 44.14C18.1148 44.388 12.8807 43.2267 10.8109 42.5968C10.8294 42.6001 10.848 42.6033 10.8666 42.6064L10.8689 42.5929L16.6903 42.203C18.6462 42.4777 20.8538 42.649 22.9943 42.542C27.6571 42.3088 31.801 41.4913 33.4215 41.0824C33.4845 41.0517 33.5527 41.0288 33.625 41.0152C34.3341 40.8821 34.955 40.4988 35.3929 39.9605C33.649 39.6334 31.9565 39.1689 30.4557 38.6795L33.4215 41.0824L16.6903 42.203C14.4675 41.8908 12.5697 41.4449 11.4646 41.1221L18.1787 31.1201ZM26.6392 35.5873C26.5668 35.486 26.4717 35.4029 26.3615 35.3447C27.966 36.1364 31.901 37.7259 36.0397 38.4519C36.0556 38.3272 36.0637 38.2001 36.0637 38.0711C36.0637 36.4168 34.7227 35.0757 33.0684 35.0756L33.067 35.0756C32.8514 35.0756 32.6449 34.9886 32.4944 34.8342C32.3438 34.6799 32.2619 34.4714 32.2672 34.2558C32.2679 34.2307 32.2682 34.2054 32.2682 34.18C32.2682 33.2175 31.8142 32.3609 31.1086 31.8129C30.4186 31.8892 29.7093 31.9559 28.9876 32.0091C27.4018 32.1261 25.7845 32.0993 24.25 31.9898C24.1396 32.6879 24.2801 33.3687 24.6052 33.9393L26.3081 35.319C26.3263 35.327 26.3441 35.3355 26.3615 35.3447L26.3431 35.3356L26.3389 35.344L26.6392 35.5873ZM22.6146 32.3265C22.6193 32.167 22.6325 32.0062 22.6543 31.8448C22.4028 31.8172 22.155 31.7877 21.9114 31.7568L22.6146 32.3265ZM37.6233 38.6835C37.65 38.4832 37.6637 38.2788 37.6637 38.0711C37.6637 35.7904 36.0022 33.8977 33.8236 33.5374C33.7222 32.8127 33.4518 32.1422 33.0534 31.5669C36.194 31.1208 38.7226 30.5275 39.8521 30.2025C39.9075 30.1866 39.9599 30.1651 40.0089 30.1389C41.3284 29.7644 42.3822 28.7723 42.8465 27.5011C42.9854 27.7405 43.0918 27.9997 43.1604 28.272C43.2226 28.5183 43.3979 28.7204 43.633 28.8166C43.868 28.9129 44.1348 28.8918 44.3518 28.7599C44.7515 28.5168 45.2347 28.4101 45.7327 28.4911C46.8405 28.6713 47.5925 29.7154 47.4123 30.8231C47.3592 31.1495 47.2321 31.4429 47.0515 31.6911C46.8592 31.9554 46.847 32.3101 47.0207 32.5869C47.1943 32.8638 47.519 33.0072 47.8406 32.9491C48.1658 32.8903 48.5071 32.8847 48.8544 32.9412C50.4874 33.2068 51.5958 34.7458 51.3302 36.3788C51.0953 37.8234 49.8626 38.8589 48.4504 38.8931C48.3767 38.8949 48.3056 38.9066 48.2382 38.927C46.5728 39.0704 42.3518 39.2119 37.7125 38.6936C37.6828 38.6903 37.653 38.6869 37.6233 38.6835ZM48.2382 38.927C48.293 38.9222 48.3449 38.9175 48.3941 38.9128L48.4702 39.7092L47.6703 39.7254L47.67 39.711C47.6617 39.3435 47.9026 39.0282 48.2382 38.927ZM11.4439 41.153C11.5265 41.2085 11.5988 41.2794 11.6565 41.363C11.7796 41.5414 11.825 41.7621 11.7823 41.9747L10.998 41.8172L11.4439 41.153ZM11.4439 41.153C11.3832 41.1123 11.3171 41.08 11.2472 41.0571C11.3158 41.0781 11.3883 41.0998 11.4646 41.1221L11.4439 41.153Z"/>
</mask>
<path fill-rule="evenodd" clip-rule="evenodd" d="M24.7863 17.538C23.4163 17.5705 22.2811 18.5185 21.9556 19.7848C21.8506 20.1931 21.4468 20.4499 21.0325 20.3718C20.8663 20.3404 20.6936 20.3258 20.5161 20.33C19.1601 20.3621 18.0868 21.4875 18.1189 22.8435C18.1269 23.1786 18.2011 23.4946 18.328 23.7806C18.4412 24.0358 18.4133 24.3315 18.2542 24.5609C18.0952 24.7903 17.8281 24.9202 17.5494 24.9037C17.4895 24.9001 17.4288 24.899 17.3675 24.9005C16.1774 24.9287 15.2355 25.9163 15.2637 27.1063C15.2826 27.904 15.733 28.5911 16.3867 28.9483C17.1665 28.3381 18.149 27.9736 19.2168 27.9736C20.0812 27.9736 20.8911 28.2128 21.5822 28.6284C22.2734 28.2128 23.0832 27.9736 23.9476 27.9736C24.4673 27.9736 24.9667 28.0599 25.4323 28.2188C25.9788 27.9891 26.5744 27.8632 27.1907 27.8615C27.1283 28.0634 27.0791 28.272 27.0442 28.4865C27.0379 28.5254 27.032 28.5643 27.0267 28.6032L27.8181 28.7114L27.6885 29.5008L27.6897 29.501C27.5711 29.4817 27.4529 29.4697 27.3358 29.4646C27.4543 29.5939 27.5656 29.73 27.6689 29.8723C28.1687 29.6861 28.7093 29.5845 29.2726 29.5845C30.0794 29.5845 30.8376 29.7924 31.4967 30.1575C35.0026 29.7363 37.9209 29.077 39.2329 28.7147C39.2981 28.6779 39.3695 28.6498 39.446 28.6321C40.5552 28.3756 41.3927 27.4264 41.4934 26.275C41.2573 26.168 41.0034 26.0901 40.7354 26.0465C40.0379 25.933 39.3596 26.0696 38.7885 26.3907C38.4631 26.5737 38.0543 26.5072 37.8036 26.2305C37.3637 25.7449 36.7636 25.4003 36.066 25.2868L33.5963 26.0033C34.2396 25.4329 35.1195 25.1439 36.0312 25.2814L32.6058 24.7445C33.5959 23.9024 34.9372 23.4822 36.3229 23.7076C37.1761 23.8464 37.9371 24.2126 38.5526 24.7338C39.3005 24.435 40.137 24.3288 40.9889 24.4667C40.4918 23.7899 39.6831 23.3587 38.7799 23.3801C38.7599 23.3806 38.74 23.3813 38.7201 23.3822C38.477 23.3933 38.242 23.2931 38.0816 23.1099C37.9213 22.9267 37.8531 22.6805 37.8963 22.441C37.9317 22.2452 37.948 22.0423 37.9431 21.8341C37.9039 20.1802 36.5313 18.8712 34.8774 18.9104C34.3252 18.9235 33.8137 19.0844 33.3772 19.3539C33.188 19.4708 32.9585 19.5035 32.7441 19.4444C32.5297 19.3852 32.3495 19.2394 32.247 19.042C31.7354 18.0572 30.6965 17.3981 29.5157 17.4261C28.8092 17.4428 28.1676 17.7018 27.6653 18.1224C27.379 18.3621 26.965 18.3719 26.6677 18.146C26.146 17.7496 25.4928 17.5213 24.7863 17.538ZM32.4133 26.3465L33.5963 26.0033C33.5303 26.0618 33.4668 26.1233 33.406 26.1876C33.19 26.4159 32.8604 26.4967 32.5634 26.394C32.514 26.3769 32.464 26.3611 32.4133 26.3465ZM29.3363 27.2391C29.995 26.496 31.0085 26.0963 32.061 26.2675C32.1817 26.2872 32.2992 26.3136 32.4133 26.3465L29.3363 27.2391ZM29.3363 27.2391L27.1907 27.8615C27.4399 27.8608 27.6925 27.8805 27.9466 27.9218L27.9478 27.922L27.949 27.9222L27.8193 28.7116L27.8181 28.7114L27.6897 29.501C27.9027 29.536 28.1209 29.4834 28.2945 29.3552C28.4682 29.2269 28.5827 29.0339 28.612 28.82C28.6154 28.7945 28.6193 28.7689 28.6234 28.7433C28.7178 28.1629 28.9731 27.6488 29.3363 27.2391ZM26.0913 30.4766C25.9132 30.2943 25.7122 30.1346 25.4929 30.0023C25.3137 30.1276 25.1482 30.2723 24.9998 30.434C25.3606 30.4536 25.725 30.4681 26.0913 30.4766ZM23.6154 29.5918C23.068 29.652 22.566 29.8594 22.1482 30.174C22.4767 30.2154 22.8131 30.254 23.1558 30.289C23.2883 30.0412 23.4425 29.8081 23.6154 29.5918ZM20.7017 29.9667C20.2642 29.7164 19.7578 29.5736 19.2168 29.5736C19.0613 29.5736 18.9086 29.5854 18.7595 29.6082C18.8831 29.6342 19.0103 29.6604 19.1411 29.6865L19.2168 29.5736L19.4247 29.742C19.8234 29.8186 20.2509 29.8944 20.7017 29.9667ZM18.1787 31.1201C17.6433 31.0035 17.1805 30.8901 16.8075 30.7888C16.783 30.8219 16.7591 30.8555 16.7359 30.8896C16.5595 31.1497 16.247 31.2823 15.9374 31.2286C15.7702 31.1997 15.5978 31.1845 15.4213 31.1845C13.7669 31.1845 12.4257 32.5256 12.4257 34.18C12.4257 34.206 12.426 34.2318 12.4267 34.2576C12.4321 34.4734 12.3501 34.6823 12.1993 34.8367C12.0485 34.9912 11.8416 35.0781 11.6257 35.0778L11.6257 34.2778L11.6245 35.0778L11.6257 35.0778C9.9713 35.0778 8.63015 36.419 8.63015 38.0734C8.63015 39.5582 9.71129 40.7921 11.1293 41.0281C11.1695 41.0348 11.2089 41.0445 11.2472 41.0571L11.2332 41.0528L10.998 41.8172L10.8689 42.5929L10.8109 42.5968C8.66139 42.2117 7.03015 40.3338 7.03015 38.0734C7.03015 35.7927 8.69148 33.9001 10.87 33.5396C11.1484 31.5425 12.7103 29.9564 14.6955 29.6415C14.076 28.9897 13.6871 28.1146 13.6642 27.1442C13.6213 25.3336 14.8672 23.792 16.5644 23.3975C16.5387 23.2286 16.5235 23.0564 16.5194 22.8814C16.4663 20.642 18.2388 18.7835 20.4782 18.7305C20.5287 18.7293 20.5791 18.729 20.6292 18.7297C21.3147 17.1249 22.8887 15.9825 24.7484 15.9385C25.6125 15.918 26.4279 16.138 27.1287 16.5371C27.8098 16.1053 28.6137 15.847 29.4778 15.8265C31.0088 15.7902 32.3815 16.507 33.243 17.6365C33.7383 17.4386 34.2764 17.3242 34.8395 17.3108C37.3768 17.2507 39.4825 19.2589 39.5426 21.7962L39.5434 21.8365C41.333 22.1327 42.756 23.5478 43.0484 25.3534C43.6215 25.793 44.0824 26.3616 44.3946 27.0079C44.8971 26.8619 45.4393 26.8224 45.9896 26.9119C47.9696 27.2339 49.3136 29.1 48.9915 31.08C48.9774 31.167 48.9602 31.2528 48.9402 31.3374C48.9972 31.3445 49.0542 31.3526 49.1113 31.3619C51.6164 31.7694 53.3169 34.1305 52.9095 36.6356C52.5585 38.7935 50.7589 40.3531 48.666 40.485C48.6272 40.4947 48.5872 40.5017 48.5463 40.5056C46.9024 40.6627 42.4458 40.8324 37.5349 40.2837C37.3978 40.2684 37.2608 40.252 37.1238 40.2345C36.5052 41.3915 35.4059 42.2527 34.0927 42.5519C34.0561 42.5676 34.018 42.5808 33.9784 42.5912C32.381 43.0102 28.0095 43.8932 23.0742 44.14C18.1148 44.388 12.8807 43.2267 10.8109 42.5968C10.8294 42.6001 10.848 42.6033 10.8666 42.6064L10.8689 42.5929L16.6903 42.203C18.6462 42.4777 20.8538 42.649 22.9943 42.542C27.6571 42.3088 31.801 41.4913 33.4215 41.0824C33.4845 41.0517 33.5527 41.0288 33.625 41.0152C34.3341 40.8821 34.955 40.4988 35.3929 39.9605C33.649 39.6334 31.9565 39.1689 30.4557 38.6795L33.4215 41.0824L16.6903 42.203C14.4675 41.8908 12.5697 41.4449 11.4646 41.1221L18.1787 31.1201ZM26.6392 35.5873C26.5668 35.486 26.4717 35.4029 26.3615 35.3447C27.966 36.1364 31.901 37.7259 36.0397 38.4519C36.0556 38.3272 36.0637 38.2001 36.0637 38.0711C36.0637 36.4168 34.7227 35.0757 33.0684 35.0756L33.067 35.0756C32.8514 35.0756 32.6449 34.9886 32.4944 34.8342C32.3438 34.6799 32.2619 34.4714 32.2672 34.2558C32.2679 34.2307 32.2682 34.2054 32.2682 34.18C32.2682 33.2175 31.8142 32.3609 31.1086 31.8129C30.4186 31.8892 29.7093 31.9559 28.9876 32.0091C27.4018 32.1261 25.7845 32.0993 24.25 31.9898C24.1396 32.6879 24.2801 33.3687 24.6052 33.9393L26.3081 35.319C26.3263 35.327 26.3441 35.3355 26.3615 35.3447L26.3431 35.3356L26.3389 35.344L26.6392 35.5873ZM22.6146 32.3265C22.6193 32.167 22.6325 32.0062 22.6543 31.8448C22.4028 31.8172 22.155 31.7877 21.9114 31.7568L22.6146 32.3265ZM37.6233 38.6835C37.65 38.4832 37.6637 38.2788 37.6637 38.0711C37.6637 35.7904 36.0022 33.8977 33.8236 33.5374C33.7222 32.8127 33.4518 32.1422 33.0534 31.5669C36.194 31.1208 38.7226 30.5275 39.8521 30.2025C39.9075 30.1866 39.9599 30.1651 40.0089 30.1389C41.3284 29.7644 42.3822 28.7723 42.8465 27.5011C42.9854 27.7405 43.0918 27.9997 43.1604 28.272C43.2226 28.5183 43.3979 28.7204 43.633 28.8166C43.868 28.9129 44.1348 28.8918 44.3518 28.7599C44.7515 28.5168 45.2347 28.4101 45.7327 28.4911C46.8405 28.6713 47.5925 29.7154 47.4123 30.8231C47.3592 31.1495 47.2321 31.4429 47.0515 31.6911C46.8592 31.9554 46.847 32.3101 47.0207 32.5869C47.1943 32.8638 47.519 33.0072 47.8406 32.9491C48.1658 32.8903 48.5071 32.8847 48.8544 32.9412C50.4874 33.2068 51.5958 34.7458 51.3302 36.3788C51.0953 37.8234 49.8626 38.8589 48.4504 38.8931C48.3767 38.8949 48.3056 38.9066 48.2382 38.927C46.5728 39.0704 42.3518 39.2119 37.7125 38.6936C37.6828 38.6903 37.653 38.6869 37.6233 38.6835ZM48.2382 38.927C48.293 38.9222 48.3449 38.9175 48.3941 38.9128L48.4702 39.7092L47.6703 39.7254L47.67 39.711C47.6617 39.3435 47.9026 39.0282 48.2382 38.927ZM11.4439 41.153C11.5265 41.2085 11.5988 41.2794 11.6565 41.363C11.7796 41.5414 11.825 41.7621 11.7823 41.9747L10.998 41.8172L11.4439 41.153ZM11.4439 41.153C11.3832 41.1123 11.3171 41.08 11.2472 41.0571C11.3158 41.0781 11.3883 41.0998 11.4646 41.1221L11.4439 41.153Z" fill="#F8F9FA"/>
<path d="M33.3873 25.283C32.9895 25.3984 32.7606 25.8144 32.876 26.2122C32.9914 26.6101 33.4074 26.839 33.8052 26.7236L33.3873 25.283ZM36.275 26.0071C36.6728 25.8917 36.9017 25.4757 36.7863 25.0779C36.6709 24.6801 36.2549 24.4511 35.8571 24.5665L36.275 26.0071ZM35.9151 26.0223C36.3243 26.0865 36.708 25.8067 36.7721 25.3975C36.8363 24.9883 36.5566 24.6046 36.1473 24.5404L35.9151 26.0223ZM32.722 24.0035C32.3128 23.9394 31.929 24.2191 31.8649 24.6283C31.8007 25.0375 32.0805 25.4213 32.4897 25.4854L32.722 24.0035ZM10.8211 40.735C10.5903 41.0789 10.6819 41.5449 11.0258 41.7757C11.3698 42.0066 11.8357 41.9149 12.0666 41.571L10.8211 40.735ZM12.0873 41.5401C12.3182 41.1962 12.2265 40.7302 11.8826 40.4994C11.5387 40.2685 11.0728 40.3602 10.8419 40.7041L12.0873 41.5401ZM18.5184 29.2684C18.2875 29.6124 18.3792 30.0783 18.7231 30.3092C19.067 30.54 19.5329 30.4484 19.7638 30.1045L18.5184 29.2684ZM19.2168 29.5736L19.689 28.9909C19.5254 28.8583 19.3135 28.8006 19.1053 28.8319C18.897 28.8633 18.7115 28.9807 18.5941 29.1556L19.2168 29.5736ZM18.9525 30.3247C19.2744 30.5855 19.7467 30.536 20.0074 30.2141C20.2682 29.8923 20.2187 29.42 19.8968 29.1592L18.9525 30.3247ZM22.3836 31.174C22.0617 30.9133 21.5894 30.9628 21.3287 31.2846C21.0679 31.6065 21.1174 32.0787 21.4393 32.3395L22.3836 31.174ZM22.1424 32.9092C22.4643 33.17 22.9366 33.1205 23.1973 32.7986C23.4581 32.4768 23.4086 32.0045 23.0867 31.7438L22.1424 32.9092ZM26.8111 34.7613C26.4892 34.5005 26.0169 34.55 25.7562 34.8719C25.4954 35.1937 25.5449 35.666 25.8668 35.9267L26.8111 34.7613ZM26.167 36.17C26.4889 36.4308 26.9612 36.3813 27.2219 36.0594C27.4827 35.7376 27.4332 35.2653 27.1113 35.0045L26.167 36.17ZM30.9278 38.0967C30.606 37.836 30.1337 37.8855 29.873 38.2073C29.6122 38.5292 29.6617 39.0015 29.9836 39.2622L30.9278 38.0967ZM33.4215 41.0824L33.4716 41.8307C33.7794 41.8101 34.0432 41.6031 34.1364 41.3091C34.2296 41.015 34.1333 40.6939 33.8936 40.4997L33.4215 41.0824ZM16.6402 41.4547C16.2269 41.4823 15.9143 41.8398 15.942 42.2531C15.9696 42.6664 16.3271 42.979 16.7404 42.9513L16.6402 41.4547ZM33.8052 26.7236L36.275 26.0071L35.8571 24.5665L33.3873 25.283L33.8052 26.7236ZM36.1473 24.5404L32.722 24.0035L32.4897 25.4854L35.9151 26.0223L36.1473 24.5404ZM12.0666 41.571L12.0873 41.5401L10.8419 40.7041L10.8211 40.735L12.0666 41.571ZM19.7638 30.1045L19.8396 29.9916L18.5941 29.1556L18.5184 29.2684L19.7638 30.1045ZM18.7447 30.1563L18.9525 30.3247L19.8968 29.1592L19.689 28.9909L18.7447 30.1563ZM21.4393 32.3395L22.1424 32.9092L23.0867 31.7438L22.3836 31.174L21.4393 32.3395ZM25.8668 35.9267L26.167 36.17L27.1113 35.0045L26.8111 34.7613L25.8668 35.9267ZM29.9836 39.2622L32.9493 41.6651L33.8936 40.4997L30.9278 38.0967L29.9836 39.2622ZM16.7404 42.9513L33.4716 41.8307L33.3713 40.3341L16.6402 41.4547L16.7404 42.9513ZM21.9556 19.7848L23.4083 20.1583L23.4083 20.1582L21.9556 19.7848ZM24.7863 17.538L24.7508 16.0384L24.7508 16.0384L24.7863 17.538ZM21.0325 20.3718L21.3104 18.8977L21.3104 18.8977L21.0325 20.3718ZM20.5161 20.33L20.5516 21.8296L20.5516 21.8296L20.5161 20.33ZM18.1189 22.8435L16.6194 22.8791L16.6194 22.8791L18.1189 22.8435ZM18.328 23.7806L16.9569 24.389L16.9569 24.389L18.328 23.7806ZM17.5494 24.9037L17.4606 26.4011L17.4606 26.4011L17.5494 24.9037ZM17.3675 24.9005L17.403 26.4001L17.403 26.4001L17.3675 24.9005ZM15.2637 27.1063L13.7641 27.1419L13.7641 27.1419L15.2637 27.1063ZM16.3867 28.9483L15.6674 30.2646C16.1931 30.5519 16.8394 30.4988 17.3112 30.1296L16.3867 28.9483ZM21.5822 28.6284L20.8093 29.9139C21.2849 30.1999 21.8795 30.1999 22.3552 29.9139L21.5822 28.6284ZM25.4323 28.2188L24.9479 29.6384C25.2956 29.757 25.6747 29.744 26.0134 29.6016L25.4323 28.2188ZM27.0442 28.4865L25.5636 28.2457L25.5636 28.2457L27.0442 28.4865ZM27.0267 28.6032L25.5406 28.3998C25.4866 28.794 25.5915 29.1934 25.8321 29.5103C26.0727 29.8271 26.4293 30.0354 26.8234 30.0893L27.0267 28.6032ZM27.8181 28.7114L28.0215 27.2253L28.0215 27.2253L27.8181 28.7114ZM27.6885 29.5008L26.2083 29.2577C26.1438 29.6504 26.238 30.0526 26.4701 30.3758C26.7023 30.6991 27.0534 30.9168 27.4461 30.9811L27.6885 29.5008ZM27.3358 29.4646L27.4012 27.966C26.795 27.9395 26.2326 28.2809 25.9762 28.8308C25.7199 29.3807 25.8201 30.031 26.2301 30.4782L27.3358 29.4646ZM27.6689 29.8723L26.455 30.7535C26.8507 31.2986 27.5612 31.5131 28.1924 31.278L27.6689 29.8723ZM31.4967 30.1575L30.7697 31.4696C31.0455 31.6224 31.3625 31.6844 31.6756 31.6468L31.4967 30.1575ZM39.2329 28.7147L39.6322 30.1605C39.7499 30.128 39.8632 30.0813 39.9696 30.0213L39.2329 28.7147ZM39.446 28.6321L39.7838 30.0936L39.7839 30.0936L39.446 28.6321ZM41.4934 26.275L42.9877 26.4057C43.0432 25.7717 42.6925 25.1716 42.1128 24.9088L41.4934 26.275ZM40.7354 26.0465L40.9762 24.5659L40.9762 24.5659L40.7354 26.0465ZM38.7885 26.3907L39.5236 27.6982L39.5236 27.6982L38.7885 26.3907ZM37.8036 26.2305L38.9152 25.2234L38.9152 25.2234L37.8036 26.2305ZM36.066 25.2868L36.3068 23.8063C36.087 23.7705 35.862 23.7842 35.6481 23.8462L36.066 25.2868ZM36.0312 25.2814L35.8074 26.7646C36.6249 26.8879 37.3881 26.3265 37.5138 25.5094C37.6394 24.6923 37.0803 23.9275 36.2635 23.7995L36.0312 25.2814ZM32.6058 24.7445L31.634 23.6019C31.1874 23.9817 31.0031 24.587 31.1621 25.1513C31.3211 25.7156 31.7943 26.1356 32.3736 26.2264L32.6058 24.7445ZM36.3229 23.7076L36.0821 25.1881L36.0821 25.1881L36.3229 23.7076ZM38.5526 24.7338L37.5832 25.8785C38.0068 26.2372 38.5937 26.3326 39.1091 26.1267L38.5526 24.7338ZM40.9889 24.4667L40.7492 25.9474C41.3504 26.0447 41.9508 25.7689 42.2685 25.2493C42.5863 24.7297 42.5584 24.0696 42.1978 23.5787L40.9889 24.4667ZM38.7799 23.3801L38.8155 24.8797L38.8155 24.8797L38.7799 23.3801ZM38.7201 23.3822L38.6517 21.8837L38.6517 21.8837L38.7201 23.3822ZM37.8963 22.441L39.3725 22.7073L39.3725 22.7073L37.8963 22.441ZM37.9431 21.8341L39.4426 21.7986L39.4426 21.7986L37.9431 21.8341ZM34.8774 18.9104L34.9129 20.41L34.9129 20.41L34.8774 18.9104ZM33.3772 19.3539L34.1653 20.6302L34.1653 20.6302L33.3772 19.3539ZM32.7441 19.4444L33.1431 17.9984L33.1431 17.9984L32.7441 19.4444ZM32.247 19.042L33.5781 18.3505L33.5781 18.3505L32.247 19.042ZM29.5157 17.4261L29.4802 15.9265L29.4802 15.9265L29.5157 17.4261ZM27.6653 18.1224L28.6283 19.2725L28.6283 19.2725L27.6653 18.1224ZM26.6677 18.146L25.7602 19.3404L25.7602 19.3404L26.6677 18.146ZM33.406 26.1876L32.3161 25.1569L32.3161 25.1569L33.406 26.1876ZM32.5634 26.394L32.0732 27.8116L32.0732 27.8116L32.5634 26.394ZM32.061 26.2675L32.3019 24.787L32.3019 24.787L32.061 26.2675ZM27.9466 27.9218L28.1884 26.4414L28.1874 26.4412L27.9466 27.9218ZM27.9478 27.922L28.1914 26.4419L28.1896 26.4416L27.9478 27.922ZM27.949 27.9222L29.4292 28.1653C29.5634 27.348 29.0098 26.5766 28.1926 26.4421L27.949 27.9222ZM27.8193 28.7116L27.6159 30.1977C28.4212 30.308 29.1678 29.7568 29.2995 28.9547L27.8193 28.7116ZM28.2945 29.3552L29.1855 30.5619L29.1855 30.5619L28.2945 29.3552ZM28.612 28.82L27.1258 28.6167L27.1258 28.6167L28.612 28.82ZM28.6234 28.7433L30.104 28.9842L30.104 28.9841L28.6234 28.7433ZM26.0913 30.4766L26.0565 31.9762C26.6661 31.9903 27.2236 31.6341 27.4668 31.0749C27.71 30.5158 27.5905 29.865 27.1646 29.4287L26.0913 30.4766ZM25.4929 30.0023L26.2677 28.7179C25.76 28.4117 25.1195 28.4332 24.6336 28.7729L25.4929 30.0023ZM24.9998 30.434L23.8947 29.4197C23.5023 29.8472 23.3917 30.4626 23.6107 31C23.8296 31.5373 24.3389 31.9002 24.9183 31.9318L24.9998 30.434ZM23.6154 29.5918L24.7872 30.5281C25.1657 30.0545 25.2218 29.3996 24.9295 28.8685C24.6372 28.3374 24.0539 28.0344 23.4513 28.1008L23.6154 29.5918ZM22.1482 30.174L21.246 28.9756C20.7582 29.3429 20.5416 29.9693 20.6986 30.5594C20.8555 31.1496 21.3545 31.5857 21.9604 31.6622L22.1482 30.174ZM23.1558 30.289L23.0036 31.7812C23.6088 31.8429 24.1914 31.533 24.4784 30.9966L23.1558 30.289ZM20.7017 29.9667L20.4641 31.4478C21.1796 31.5626 21.8749 31.1494 22.1161 30.466C22.3573 29.7827 22.0756 29.0246 21.4466 28.6647L20.7017 29.9667ZM18.7595 29.6082L18.5325 28.1255C17.8158 28.2352 17.2802 28.8418 17.2601 29.5666C17.2399 30.2914 17.7411 30.9268 18.4507 31.0761L18.7595 29.6082ZM19.1411 29.6865L18.8474 31.1574C19.4416 31.276 20.0488 31.0255 20.3865 30.5225L19.1411 29.6865ZM19.4247 29.742L18.4804 30.9075C18.6722 31.0628 18.8994 31.1685 19.1418 31.2151L19.4247 29.742ZM18.1787 31.1201L19.4242 31.9561C19.701 31.5436 19.7557 31.0208 19.5703 30.56C19.3848 30.0991 18.9832 29.76 18.4978 29.6544L18.1787 31.1201ZM16.8075 30.7888L17.2004 29.3412C16.6041 29.1793 15.9695 29.3996 15.6019 29.8963L16.8075 30.7888ZM16.7359 30.8896L15.4948 30.0473L15.4948 30.0473L16.7359 30.8896ZM15.9374 31.2286L16.1935 29.7507L16.1935 29.7507L15.9374 31.2286ZM12.4267 34.2576L13.9262 34.2197L13.9262 34.2196L12.4267 34.2576ZM12.1993 34.8367L13.2725 35.8847L13.2725 35.8847L12.1993 34.8367ZM11.6257 34.2778L13.1257 34.2779C13.1257 33.4499 12.4549 32.7785 11.6269 32.7778C10.7989 32.7772 10.127 33.4475 10.1257 34.2755L11.6257 34.2778ZM11.6245 35.0778L10.1245 35.0755C10.1232 35.9039 10.7937 36.5765 11.6221 36.5778L11.6245 35.0778ZM11.1293 41.0281L11.3756 39.5485L11.3756 39.5485L11.1293 41.0281ZM11.2332 41.0528L11.6736 39.6189C10.882 39.3757 10.0431 39.8201 9.79956 40.6116L11.2332 41.0528ZM10.998 41.8172L9.56432 41.3761C9.54466 41.44 9.5293 41.5051 9.51833 41.571L10.998 41.8172ZM10.87 33.5396L11.1148 35.0195C11.7623 34.9124 12.265 34.3968 12.3556 33.7468L10.87 33.5396ZM14.6955 29.6415L14.9306 31.1229C15.4808 31.0356 15.9374 30.6505 16.1162 30.1228C16.295 29.5951 16.1666 29.0118 15.7827 28.608L14.6955 29.6415ZM13.6642 27.1442L12.1646 27.1798L12.1646 27.1798L13.6642 27.1442ZM16.5644 23.3975L16.904 24.8586C17.6668 24.6813 18.1648 23.947 18.0474 23.1727L16.5644 23.3975ZM16.5194 22.8814L15.0198 22.917L15.0198 22.917L16.5194 22.8814ZM20.4782 18.7305L20.5137 20.23L20.5137 20.23L20.4782 18.7305ZM20.6292 18.7297L20.6097 20.2295C21.2174 20.2374 21.7699 19.8778 22.0086 19.3189L20.6292 18.7297ZM24.7484 15.9385L24.7839 17.4381L24.7484 15.9385ZM27.1287 16.5371L26.3864 17.8406C26.8686 18.1152 27.4631 18.1012 27.9318 17.804L27.1287 16.5371ZM29.4778 15.8265L29.4423 14.3269L29.4423 14.3269L29.4778 15.8265ZM33.243 17.6365L32.0504 18.5463C32.4589 19.0818 33.1742 19.2794 33.7997 19.0294L33.243 17.6365ZM34.8395 17.3108L34.804 15.8112L34.8395 17.3108ZM39.5426 21.7962L41.0423 21.7674L41.0422 21.7607L39.5426 21.7962ZM39.5434 21.8365L38.0437 21.8654C38.0576 22.5882 38.5852 23.1983 39.2985 23.3164L39.5434 21.8365ZM43.0484 25.3534L41.5677 25.5932C41.6289 25.9709 41.832 26.3108 42.1355 26.5436L43.0484 25.3534ZM44.3946 27.0079L43.0439 27.6603C43.3623 28.3196 44.1102 28.6527 44.8132 28.4483L44.3946 27.0079ZM45.9896 26.9119L45.7488 28.3924L45.7488 28.3924L45.9896 26.9119ZM48.9915 31.08L47.511 30.8392L47.511 30.8392L48.9915 31.08ZM48.9402 31.3374L47.4806 30.9915C47.3824 31.4061 47.4651 31.843 47.7081 32.1929C47.9512 32.5429 48.3316 32.773 48.7544 32.8258L48.9402 31.3374ZM49.1113 31.3619L48.8704 32.8425L48.8705 32.8425L49.1113 31.3619ZM52.9095 36.6356L51.4289 36.3948L51.4289 36.3948L52.9095 36.6356ZM48.666 40.485L48.5716 38.9879C48.4801 38.9937 48.3893 39.0079 48.3003 39.0302L48.666 40.485ZM48.5463 40.5056L48.689 41.9988L48.689 41.9988L48.5463 40.5056ZM37.5349 40.2837L37.3683 41.7744L37.3683 41.7744L37.5349 40.2837ZM37.1238 40.2345L37.3135 38.7466C36.6961 38.6679 36.0943 38.9785 35.8009 39.5273L37.1238 40.2345ZM34.0927 42.5519L33.7594 41.0894C33.6703 41.1097 33.5833 41.1381 33.4994 41.1742L34.0927 42.5519ZM33.9784 42.5912L34.359 44.0421L34.359 44.0421L33.9784 42.5912ZM23.0742 44.14L23.1491 45.6381L23.1491 45.6381L23.0742 44.14ZM10.8666 42.6064L10.6203 44.086C11.0127 44.1514 11.415 44.0581 11.7387 43.8268C12.0624 43.5955 12.281 43.2451 12.3463 42.8527L10.8666 42.6064ZM22.9943 42.542L22.9194 41.0438L22.9194 41.0438L22.9943 42.542ZM33.4215 41.0824L33.7885 42.5368C33.8886 42.5115 33.9859 42.476 34.0788 42.4307L33.4215 41.0824ZM33.625 41.0152L33.9016 42.4895L33.9016 42.4895L33.625 41.0152ZM35.3929 39.9605L36.5565 40.9071C36.8903 40.4968 36.9833 39.941 36.8013 39.4444C36.6193 38.9478 36.1893 38.5837 35.6694 38.4862L35.3929 39.9605ZM30.4557 38.6795L30.9208 37.2534C30.2332 37.0292 29.4835 37.3275 29.138 37.9629C28.7924 38.5982 28.9495 39.3897 29.5114 39.845L30.4557 38.6795ZM26.6392 35.5873L25.6949 36.7528C26.278 37.2252 27.1206 37.194 27.6672 36.6796C28.2137 36.1652 28.296 35.3261 27.8597 34.7154L26.6392 35.5873ZM36.0397 38.4519L35.7806 39.9293C36.1846 40.0002 36.6 39.9026 36.9301 39.6591C37.2601 39.4157 37.4762 39.0477 37.5278 38.6408L36.0397 38.4519ZM33.0684 35.0756L33.0686 33.5756L33.0665 33.5756L33.0684 35.0756ZM33.067 35.0756L33.067 36.5756L33.069 36.5756L33.067 35.0756ZM32.4944 34.8342L31.4207 35.8817L31.4207 35.8817L32.4944 34.8342ZM32.2672 34.2558L30.7677 34.2188L30.7677 34.2188L32.2672 34.2558ZM31.1086 31.8129L32.0288 30.6283C31.7207 30.389 31.3314 30.2791 30.9437 30.322L31.1086 31.8129ZM28.9876 32.0091L29.098 33.505L29.098 33.505L28.9876 32.0091ZM24.25 31.9898L24.3568 30.4936C23.5801 30.4381 22.8902 30.9862 22.7685 31.7553L24.25 31.9898ZM24.6052 33.9393L23.3018 34.6818C23.3941 34.8439 23.5159 34.9873 23.6609 35.1048L24.6052 33.9393ZM26.3081 35.319L25.3638 36.4845C25.4687 36.5695 25.5846 36.64 25.7084 36.6939L26.3081 35.319ZM26.3431 35.3356L27.0077 33.9909C26.2654 33.624 25.3662 33.928 24.9988 34.6701L26.3431 35.3356ZM26.3389 35.344L24.9947 34.6785C24.6834 35.3072 24.8495 36.0678 25.3946 36.5095L26.3389 35.344ZM22.6146 32.3265L21.6703 33.492C22.1133 33.8509 22.7216 33.9276 23.2399 33.6899C23.7582 33.4522 24.0969 32.9412 24.1139 32.3713L22.6146 32.3265ZM22.6543 31.8448L24.1408 32.0456C24.1949 31.645 24.085 31.2394 23.836 30.9209C23.587 30.6024 23.22 30.3979 22.8181 30.3538L22.6543 31.8448ZM21.9114 31.7568L22.1004 30.2687C21.4355 30.1843 20.7952 30.5512 20.532 31.1676C20.2687 31.784 20.4463 32.5003 20.9671 32.9222L21.9114 31.7568ZM37.6233 38.6835L36.1364 38.4856C36.0833 38.8844 36.1927 39.2878 36.4399 39.6052C36.6872 39.9227 37.0516 40.1274 37.4513 40.1736L37.6233 38.6835ZM33.8236 33.5374L32.3381 33.7452C32.429 34.395 32.9316 34.9102 33.5789 35.0173L33.8236 33.5374ZM33.0534 31.5669L32.8425 30.0818C32.3275 30.155 31.8873 30.4897 31.679 30.9662C31.4707 31.4428 31.5242 31.9933 31.8202 32.4209L33.0534 31.5669ZM39.8521 30.2025L39.4373 28.761L39.4372 28.761L39.8521 30.2025ZM40.0089 30.1389L39.5993 28.6959C39.4959 28.7253 39.3959 28.7656 39.3011 28.8164L40.0089 30.1389ZM42.8465 27.5011L44.1439 26.7482C43.8517 26.2448 43.2947 25.9558 42.7149 26.0069C42.1352 26.0579 41.6372 26.4398 41.4376 26.9865L42.8465 27.5011ZM43.1604 28.272L41.706 28.6389L41.706 28.6389L43.1604 28.272ZM43.633 28.8166L44.2014 27.4285L44.2014 27.4285L43.633 28.8166ZM44.3518 28.7599L43.5725 27.4782L43.5724 27.4782L44.3518 28.7599ZM45.7327 28.4911L45.4919 29.9717L45.4919 29.9717L45.7327 28.4911ZM47.4123 30.8231L45.9317 30.5823L45.9317 30.5823L47.4123 30.8231ZM47.0515 31.6911L45.8386 30.8085L45.8386 30.8085L47.0515 31.6911ZM47.8406 32.9491L47.5739 31.473L47.5739 31.473L47.8406 32.9491ZM48.8544 32.9412L49.0952 31.4606L49.0952 31.4606L48.8544 32.9412ZM51.3302 36.3788L52.8108 36.6196L52.8108 36.6196L51.3302 36.3788ZM48.4504 38.8931L48.4868 40.3927L48.4868 40.3927L48.4504 38.8931ZM37.7125 38.6936L37.5459 40.1843L37.546 40.1843L37.7125 38.6936ZM48.3941 38.9128L49.8873 38.7701C49.8494 38.3741 49.6558 38.0093 49.349 37.7561C49.0422 37.5028 48.6474 37.3818 48.2514 37.4196L48.3941 38.9128ZM48.4702 39.7092L48.5006 41.2089C48.9179 41.2004 49.3127 41.0185 49.5903 40.7068C49.8679 40.3952 50.0031 39.982 49.9634 39.5665L48.4702 39.7092ZM47.6703 39.7254L46.1707 39.7576C46.1885 40.5852 46.8732 41.2419 47.7008 41.2251L47.6703 39.7254ZM47.67 39.711L49.1697 39.6788L49.1697 39.6771L47.67 39.711ZM11.6565 41.363L12.8912 40.5112L12.8912 40.5112L11.6565 41.363ZM11.7823 41.9747L11.4872 43.4453C12.2994 43.6084 13.09 43.0821 13.253 42.2698L11.7823 41.9747ZM23.4083 20.1582C23.5709 19.5259 24.1397 19.0538 24.8218 19.0376L24.7508 16.0384C22.6929 16.0872 20.9913 17.5111 20.5028 19.4113L23.4083 20.1582ZM20.7547 21.8458C21.9457 22.0703 23.1066 21.3321 23.4083 20.1583L20.5028 19.4113C20.5946 19.0541 20.9479 18.8294 21.3104 18.8977L20.7547 21.8458ZM20.5516 21.8296C20.6234 21.8279 20.6911 21.8338 20.7547 21.8458L21.3104 18.8977C21.0415 18.847 20.7638 18.8237 20.4806 18.8304L20.5516 21.8296ZM19.6185 22.808C19.606 22.2801 20.0238 21.8421 20.5516 21.8296L20.4806 18.8304C18.2963 18.8822 16.5676 20.6948 16.6194 22.8791L19.6185 22.808ZM19.6991 23.1723C19.6509 23.0636 19.6217 22.9421 19.6185 22.808L16.6194 22.8791C16.6321 23.4152 16.7513 23.9255 16.9569 24.389L19.6991 23.1723ZM19.487 25.4155C19.9442 24.756 20.0246 23.9058 19.6991 23.1722L16.9569 24.389C16.8579 24.1657 16.8823 23.907 17.0215 23.7063L19.487 25.4155ZM17.4606 26.4011C18.2618 26.4486 19.0297 26.0751 19.487 25.4155L17.0215 23.7063C17.1607 23.5055 17.3944 23.3919 17.6382 23.4063L17.4606 26.4011ZM17.403 26.4001C17.4228 26.3996 17.442 26.4 17.4606 26.4011L17.6382 23.4063C17.537 23.4003 17.4349 23.3985 17.3319 23.4009L17.403 26.4001ZM16.7633 27.0708C16.7547 26.7089 17.0411 26.4086 17.403 26.4001L17.3319 23.4009C15.3137 23.4487 13.7163 25.1236 13.7641 27.1419L16.7633 27.0708ZM17.106 27.6321C16.9034 27.5213 16.769 27.3114 16.7633 27.0708L13.7641 27.1419C13.7962 28.4965 14.5626 29.6609 15.6674 30.2646L17.106 27.6321ZM19.2168 26.4736C17.8018 26.4736 16.4962 26.9579 15.4623 27.7671L17.3112 30.1296C17.8367 29.7183 18.4963 29.4736 19.2168 29.4736V26.4736ZM22.3552 27.3429C21.4374 26.7911 20.3614 26.4736 19.2168 26.4736V29.4736C19.801 29.4736 20.3447 29.6346 20.8093 29.9139L22.3552 27.3429ZM23.9476 26.4736C22.8031 26.4736 21.727 26.7911 20.8093 27.3429L22.3552 29.9139C22.8197 29.6346 23.3634 29.4736 23.9476 29.4736V26.4736ZM25.9168 26.7991C25.2972 26.5877 24.6343 26.4736 23.9476 26.4736V29.4736C24.3003 29.4736 24.6361 29.532 24.9479 29.6384L25.9168 26.7991ZM27.1866 26.3615C26.3677 26.3637 25.5763 26.5312 24.8512 26.8359L26.0134 29.6016C26.3813 29.447 26.7812 29.3626 27.1948 29.3615L27.1866 26.3615ZM28.5247 28.7273C28.5485 28.5814 28.5818 28.4403 28.6238 28.3044L25.7576 27.4185C25.6748 27.6864 25.6097 27.9626 25.5636 28.2457L28.5247 28.7273ZM28.5129 28.8065C28.5165 28.7801 28.5204 28.7537 28.5247 28.7273L25.5636 28.2457C25.5553 28.2971 25.5476 28.3485 25.5406 28.3998L28.5129 28.8065ZM28.0215 27.2253L27.23 27.117L26.8234 30.0893L27.6148 30.1976L28.0215 27.2253ZM29.1686 29.7439L29.2983 28.9546L26.338 28.4683L26.2083 29.2577L29.1686 29.7439ZM27.9321 28.0207L27.9309 28.0205L27.4461 30.9811L27.4473 30.9813L27.9321 28.0207ZM27.2703 30.9631C27.3289 30.9657 27.3884 30.9717 27.4489 30.9816L27.9305 28.0205C27.7537 27.9917 27.577 27.9737 27.4012 27.966L27.2703 30.9631ZM28.8827 28.9911C28.7459 28.8025 28.5985 28.6222 28.4414 28.4509L26.2301 30.4782C26.3102 30.5656 26.3853 30.6575 26.455 30.7535L28.8827 28.9911ZM29.2726 28.0845C28.5277 28.0845 27.8099 28.2191 27.1454 28.4666L28.1924 31.278C28.5274 31.1532 28.8909 31.0845 29.2726 31.0845V28.0845ZM32.2237 28.8455C31.3478 28.3602 30.3402 28.0845 29.2726 28.0845V31.0845C29.8186 31.0845 30.3274 31.2245 30.7697 31.4696L32.2237 28.8455ZM38.8336 27.2688C37.5933 27.6113 34.7487 28.256 31.3177 28.6682L31.6756 31.6468C35.2566 31.2165 38.2485 30.5427 39.6322 30.1605L38.8336 27.2688ZM39.1081 27.1707C38.8905 27.221 38.6849 27.3017 38.4963 27.408L39.9696 30.0213C39.9112 30.0542 39.8485 30.0786 39.7838 30.0936L39.1081 27.1707ZM39.9991 26.1443C39.9555 26.6436 39.5892 27.0594 39.108 27.1707L39.7839 30.0936C41.5212 29.6919 42.8299 28.2093 42.9877 26.4057L39.9991 26.1443ZM40.4946 27.527C40.6307 27.5492 40.7575 27.5883 40.8741 27.6412L42.1128 24.9088C41.7572 24.7476 41.3761 24.631 40.9762 24.5659L40.4946 27.527ZM39.5236 27.6982C39.809 27.5378 40.1444 27.4701 40.4946 27.527L40.9762 24.5659C39.9314 24.396 38.9102 24.6015 38.0534 25.0832L39.5236 27.6982ZM36.6919 27.2375C37.4127 28.0331 38.5879 28.2243 39.5236 27.6982L38.0534 25.0832C38.3382 24.9231 38.6959 24.9812 38.9152 25.2234L36.6919 27.2375ZM35.8252 26.7674C36.1755 26.8244 36.4721 26.9949 36.6919 27.2375L38.9152 25.2234C38.2552 24.4948 37.3517 23.9763 36.3068 23.8063L35.8252 26.7674ZM34.0142 27.4439L36.4839 26.7275L35.6481 23.8462L33.1784 24.5627L34.0142 27.4439ZM36.2549 23.7982C34.8859 23.5916 33.5635 24.0276 32.6011 24.881L34.5914 27.1256C34.9156 26.8382 35.3532 26.6961 35.8074 26.7646L36.2549 23.7982ZM32.3736 26.2264L35.7989 26.7633L36.2635 23.7995L32.8381 23.2626L32.3736 26.2264ZM36.5637 22.2271C34.7252 21.928 32.9445 22.4872 31.634 23.6019L33.5777 25.8871C34.2473 25.3175 35.1493 25.0364 36.0821 25.1881L36.5637 22.2271ZM39.5219 23.5891C38.7046 22.897 37.6934 22.4108 36.5637 22.2271L36.0821 25.1881C36.6587 25.2819 37.1695 25.5282 37.5832 25.8785L39.5219 23.5891ZM41.2286 22.986C40.1005 22.8033 38.9892 22.9441 37.9961 23.3408L39.1091 26.1267C39.6118 25.9259 40.1734 25.8542 40.7492 25.9474L41.2286 22.986ZM38.8155 24.8797C39.2082 24.8704 39.5605 25.0558 39.7799 25.3547L42.1978 23.5787C41.4231 22.524 40.158 21.847 38.7444 21.8805L38.8155 24.8797ZM38.7885 24.8806C38.7975 24.8802 38.8065 24.8799 38.8155 24.8797L38.7444 21.8805C38.7134 21.8812 38.6825 21.8823 38.6517 21.8837L38.7885 24.8806ZM36.9529 24.0978C37.4138 24.6244 38.0894 24.9125 38.7885 24.8806L38.6517 21.8837C38.8645 21.874 39.0701 21.9617 39.2104 22.122L36.9529 24.0978ZM36.4202 22.1746C36.2959 22.8634 36.492 23.5712 36.9529 24.0978L39.2104 22.122C39.3507 22.2822 39.4103 22.4977 39.3725 22.7073L36.4202 22.1746ZM36.4435 21.8697C36.446 21.9761 36.4376 22.0778 36.4202 22.1746L39.3725 22.7073C39.4257 22.4125 39.45 22.1085 39.4426 21.7986L36.4435 21.8697ZM34.9129 20.41C35.7387 20.3904 36.4239 21.0439 36.4435 21.8697L39.4426 21.7986C39.3838 19.3165 37.324 17.352 34.8419 17.4108L34.9129 20.41ZM34.1653 20.6302C34.3813 20.4968 34.6341 20.4166 34.9129 20.41L34.8419 17.4108C34.0164 17.4304 33.2461 17.6719 32.5892 18.0776L34.1653 20.6302ZM32.3451 20.8903C32.9616 21.0605 33.6211 20.9662 34.1653 20.6302L32.5892 18.0776C32.7548 17.9753 32.9555 17.9466 33.1431 17.9984L32.3451 20.8903ZM30.9159 19.7334C31.2107 20.301 31.7286 20.7202 32.3451 20.8903L33.1431 17.9984C33.3308 18.0502 33.4884 18.1778 33.5781 18.3505L30.9159 19.7334ZM29.5512 18.9256C30.1387 18.9117 30.6585 19.238 30.9159 19.7335L33.5781 18.3505C32.8123 16.8763 31.2543 15.8844 29.4802 15.9265L29.5512 18.9256ZM28.6283 19.2725C28.8793 19.0623 29.1965 18.934 29.5512 18.9256L29.4802 15.9265C28.4219 15.9516 27.4559 16.3413 26.7023 16.9723L28.6283 19.2725ZM25.7602 19.3404C26.6149 19.9898 27.8052 19.9616 28.6283 19.2725L26.7023 16.9723C26.9528 16.7626 27.3151 16.754 27.5752 16.9517L25.7602 19.3404ZM24.8218 19.0376C25.1766 19.0292 25.4995 19.1423 25.7602 19.3404L27.5752 16.9517C26.7925 16.357 25.8091 16.0134 24.7508 16.0384L24.8218 19.0376ZM33.1784 24.5627L31.9954 24.9059L32.8312 27.7871L34.0142 27.4439L33.1784 24.5627ZM34.4959 27.2182C34.5264 27.1859 34.5583 27.155 34.5914 27.1256L32.6011 24.881C32.5023 24.9686 32.4072 25.0606 32.3161 25.1569L34.4959 27.2182ZM32.0732 27.8116C32.9272 28.1069 33.875 27.8747 34.4959 27.2182L32.3161 25.1569C32.5051 24.9571 32.7935 24.8864 33.0535 24.9763L32.0732 27.8116ZM31.9984 27.788C32.0238 27.7953 32.0487 27.8032 32.0732 27.8116L33.0535 24.9763C32.9793 24.9507 32.9042 24.9269 32.8281 24.905L31.9984 27.788ZM32.3019 24.787C30.7207 24.5298 29.1992 25.1324 28.2138 26.2441L30.4588 28.2341C30.7907 27.8597 31.2964 27.6629 31.8202 27.7481L32.3019 24.787ZM32.8281 24.905C32.657 24.8557 32.4814 24.8162 32.3019 24.787L31.8202 27.7481C31.882 27.7581 31.9414 27.7716 31.9984 27.788L32.8281 24.905ZM29.7542 28.6797L32.8312 27.7871L31.9954 24.9059L28.9184 25.7985L29.7542 28.6797ZM28.9184 25.7985L26.7728 26.4209L27.6086 29.3021L29.7542 28.6797L28.9184 25.7985ZM27.1948 29.3615C27.3623 29.361 27.533 29.3742 27.7058 29.4023L28.1874 26.4412C27.852 26.3867 27.5175 26.3606 27.1866 26.3615L27.1948 29.3615ZM27.7048 29.4022L27.706 29.4024L28.1896 26.4416L28.1884 26.4414L27.7048 29.4022ZM27.7043 29.4021L27.7055 29.4023L28.1926 26.4421L28.1914 26.4419L27.7043 29.4021ZM26.4688 27.679L26.3392 28.4685L29.2995 28.9547L29.4292 28.1653L26.4688 27.679ZM28.0227 27.2255L28.0215 27.2253L27.6147 30.1976L27.6159 30.1977L28.0227 27.2255ZM26.3376 28.4706L26.2091 29.2601L29.1702 29.7419L29.2987 28.9523L26.3376 28.4706ZM27.4465 30.9812C28.059 31.0818 28.6862 30.9306 29.1855 30.5619L27.4036 28.1485C27.5555 28.0363 27.7464 27.9902 27.9328 28.0209L27.4465 30.9812ZM29.1855 30.5619C29.6849 30.1932 30.014 29.6383 30.0981 29.0233L27.1258 28.6167C27.1514 28.4295 27.2516 28.2607 27.4035 28.1485L29.1855 30.5619ZM30.0981 29.0234C30.0999 29.0103 30.1019 28.9972 30.104 28.9842L27.1429 28.5025C27.1367 28.5406 27.131 28.5787 27.1258 28.6167L30.0981 29.0234ZM30.104 28.9841C30.1515 28.6921 30.2784 28.4376 30.4588 28.2341L28.2138 26.2441C27.6679 26.86 27.2842 27.6338 27.1429 28.5025L30.104 28.9841ZM27.1646 29.4287C26.898 29.1557 26.5968 28.9164 26.2677 28.7179L24.7181 31.2867C24.8276 31.3528 24.9285 31.4328 25.018 31.5245L27.1646 29.4287ZM26.1049 31.4483C26.1791 31.3674 26.2622 31.2947 26.3522 31.2318L24.6336 28.7729C24.3653 28.9604 24.1173 29.1772 23.8947 29.4197L26.1049 31.4483ZM26.1261 28.977C25.7762 28.9689 25.4274 28.955 25.0813 28.9362L24.9183 31.9318C25.2938 31.9522 25.6738 31.9673 26.0565 31.9762L26.1261 28.977ZM23.4513 28.1008C22.6281 28.1913 21.8726 28.5039 21.246 28.9756L23.0504 31.3724C23.2595 31.2149 23.508 31.1126 23.7794 31.0827L23.4513 28.1008ZM23.3079 28.7967C22.9776 28.763 22.6531 28.7258 22.336 28.6858L21.9604 31.6622C22.3003 31.7051 22.6485 31.745 23.0036 31.7812L23.3079 28.7967ZM22.4435 28.6554C22.2141 28.9425 22.0093 29.2521 21.8331 29.5814L24.4784 30.9966C24.5673 30.8304 24.6709 30.6737 24.7872 30.5281L22.4435 28.6554ZM21.4466 28.6647C20.7879 28.2879 20.0255 28.0736 19.2168 28.0736V31.0736C19.4902 31.0736 19.7405 31.145 19.9568 31.2687L21.4466 28.6647ZM19.2168 28.0736C18.9851 28.0736 18.7565 28.0912 18.5325 28.1255L18.9864 31.091C19.0607 31.0796 19.1376 31.0736 19.2168 31.0736V28.0736ZM19.4347 28.2155C19.309 28.1904 19.1868 28.1653 19.0683 28.1404L18.4507 31.0761C18.5793 31.1032 18.7117 31.1303 18.8474 31.1574L19.4347 28.2155ZM20.3865 30.5225L20.4623 30.4096L17.9714 28.7376L17.8957 28.8504L20.3865 30.5225ZM18.2726 30.7391L18.4804 30.9075L20.369 28.5765L20.1611 28.4081L18.2726 30.7391ZM20.9392 28.4856C20.5039 28.4158 20.0915 28.3426 19.7076 28.2689L19.1418 31.2151C19.5553 31.2945 19.9978 31.373 20.4641 31.4478L20.9392 28.4856ZM18.4978 29.6544C17.9835 29.5424 17.5457 29.4349 17.2004 29.3412L16.4145 32.2364C16.8154 32.3452 17.3031 32.4646 17.8597 32.5857L18.4978 29.6544ZM15.6019 29.8963C15.5652 29.9458 15.5295 29.9962 15.4948 30.0473L17.9771 31.732C17.9887 31.7148 18.0007 31.6979 18.013 31.6813L15.6019 29.8963ZM15.4948 30.0473C15.6492 29.8197 15.9226 29.7037 16.1935 29.7507L15.6812 32.7066C16.5715 32.8609 17.4697 32.4796 17.9771 31.732L15.4948 30.0473ZM16.1935 29.7507C15.9422 29.7071 15.6841 29.6845 15.4213 29.6845V32.6845C15.5116 32.6845 15.5983 32.6922 15.6812 32.7066L16.1935 29.7507ZM15.4213 29.6845C12.9384 29.6845 10.9257 31.6972 10.9257 34.18H13.9257C13.9257 33.3541 14.5953 32.6845 15.4213 32.6845V29.6845ZM10.9257 34.18C10.9257 34.2186 10.9262 34.2571 10.9272 34.2955L13.9262 34.2196C13.9259 34.2065 13.9257 34.1933 13.9257 34.18H10.9257ZM10.9272 34.2955C10.9224 34.1066 10.9941 33.9239 11.1261 33.7887L13.2725 35.8847C13.7061 35.4407 13.9419 34.8402 13.9262 34.2197L10.9272 34.2955ZM11.1261 33.7887C11.2581 33.6536 11.4391 33.5775 11.628 33.5778L11.6234 36.5778C12.2441 36.5788 12.8388 36.3288 13.2725 35.8847L11.1261 33.7887ZM10.1257 34.2778L10.1257 35.0778L13.1257 35.0778L13.1257 34.2779L10.1257 34.2778ZM13.1245 35.0801L13.1257 34.2802L10.1257 34.2755L10.1245 35.0755L13.1245 35.0801ZM11.628 33.5778L11.6268 33.5778L11.6221 36.5778L11.6234 36.5778L11.628 33.5778ZM11.6257 33.5778C9.14287 33.5778 7.13015 35.5905 7.13015 38.0734H10.1302C10.1302 37.2474 10.7997 36.5778 11.6257 36.5778L11.6257 33.5778ZM7.13015 38.0734C7.13015 40.3029 8.75277 42.1532 10.8831 42.5078L11.3756 39.5485C10.6698 39.431 10.1302 38.8135 10.1302 38.0734H7.13015ZM10.883 42.5077C10.8479 42.5019 10.8135 42.4934 10.7799 42.4824L11.7145 39.6317C11.6044 39.5956 11.4912 39.5677 11.3756 39.5485L10.883 42.5077ZM11.6876 39.6232L11.6736 39.6189L10.7928 42.4867L10.8068 42.4909L11.6876 39.6232ZM9.79956 40.6116L9.56432 41.3761L12.4316 42.2584L12.6669 41.4939L9.79956 40.6116ZM9.51833 41.571L9.38924 42.3466L12.3485 42.8391L12.4776 42.0635L9.51833 41.571ZM10.9111 44.0934L10.9691 44.0895L10.7687 41.0962L10.7107 41.1001L10.9111 44.0934ZM5.53015 38.0734C5.53015 41.0734 7.69495 43.5625 10.5464 44.0733L11.0754 41.1203C9.62783 40.861 8.53015 39.5942 8.53015 38.0734H5.53015ZM10.6251 32.0598C7.7344 32.538 5.53015 35.0468 5.53015 38.0734H8.53015C8.53015 36.5386 9.64856 35.2621 11.1148 35.0195L10.6251 32.0598ZM14.4605 28.16C11.8247 28.5781 9.75408 30.6805 9.38434 33.3325L12.3556 33.7468C12.5427 32.4045 13.596 31.3347 14.9306 31.1229L14.4605 28.16ZM15.7827 28.608C15.4097 28.2156 15.1776 27.6925 15.1637 27.1087L12.1646 27.1798C12.1967 28.5366 12.7422 29.7637 13.6084 30.6749L15.7827 28.608ZM15.1637 27.1087C15.138 26.0231 15.8852 25.0954 16.904 24.8586L16.2247 21.9365C13.8491 22.4887 12.1045 24.6442 12.1646 27.1798L15.1637 27.1087ZM18.0474 23.1727C18.0313 23.0662 18.0216 22.9572 18.019 22.8459L15.0198 22.917C15.0255 23.1555 15.0462 23.391 15.0813 23.6224L18.0474 23.1727ZM18.019 22.8459C17.9855 21.4346 19.1025 20.2635 20.5137 20.23L20.4427 17.2309C17.375 17.3036 14.9471 19.8493 15.0198 22.917L18.019 22.8459ZM20.5137 20.23C20.5459 20.2293 20.5779 20.2291 20.6097 20.2295L20.6487 17.2298C20.5802 17.2289 20.5115 17.2293 20.4427 17.2309L20.5137 20.23ZM22.0086 19.3189C22.4719 18.2343 23.5336 17.4677 24.7839 17.4381L24.7129 14.4389C22.2438 14.4974 20.1576 16.0154 19.2498 18.1404L22.0086 19.3189ZM24.7839 17.4381C25.3679 17.4242 25.9153 17.5723 26.3864 17.8406L27.871 15.2337C26.9404 14.7037 25.8571 14.4118 24.7129 14.4389L24.7839 17.4381ZM27.9318 17.804C28.3897 17.5138 28.9293 17.3399 29.5133 17.3261L29.4423 14.3269C28.2981 14.354 27.2299 14.6969 26.3255 15.2703L27.9318 17.804ZM29.5133 17.3261C30.5433 17.3017 31.4673 17.7819 32.0504 18.5463L34.4357 16.7268C33.2956 15.2322 31.4742 14.2788 29.4423 14.3269L29.5133 17.3261ZM33.7997 19.0294C34.1317 18.8968 34.4934 18.8194 34.875 18.8104L34.804 15.8112C34.0593 15.8289 33.3449 15.9805 32.6864 16.2437L33.7997 19.0294ZM34.875 18.8104C36.5842 18.7699 38.0025 20.1226 38.043 21.8318L41.0422 21.7607C40.9624 18.3952 38.1695 15.7315 34.804 15.8112L34.875 18.8104ZM38.0429 21.8251L38.0437 21.8654L41.0431 21.8077L41.0423 21.7674L38.0429 21.8251ZM39.2985 23.3164C40.4559 23.5079 41.3788 24.4266 41.5677 25.5932L44.5292 25.1136C44.1332 22.669 42.2102 20.7574 39.7883 20.3566L39.2985 23.3164ZM42.1355 26.5436C42.5215 26.8397 42.833 27.2237 43.0439 27.6603L45.7453 26.3556C45.3318 25.4995 44.7215 24.7462 43.9613 24.1632L42.1355 26.5436ZM44.8132 28.4483C45.1066 28.363 45.4236 28.3395 45.7488 28.3924L46.2304 25.4313C45.455 25.3052 44.6876 25.3607 43.9759 25.5675L44.8132 28.4483ZM45.7488 28.3924C46.9111 28.5815 47.7 29.6769 47.511 30.8392L50.4721 31.3208C50.9271 28.5232 49.0281 25.8864 46.2304 25.4313L45.7488 28.3924ZM47.511 30.8392C47.5026 30.8909 47.4924 30.9416 47.4806 30.9915L50.3998 31.6832C50.428 31.564 50.4522 31.4431 50.4721 31.3208L47.511 30.8392ZM48.7544 32.8258C48.793 32.8306 48.8317 32.8362 48.8704 32.8425L49.3521 29.8814C49.2766 29.8691 49.2013 29.8583 49.126 29.8489L48.7544 32.8258ZM48.8705 32.8425C50.5579 33.1169 51.7034 34.7074 51.4289 36.3948L54.39 36.8765C54.9305 33.5536 52.6749 30.4218 49.3521 29.8814L48.8705 32.8425ZM51.4289 36.3948C51.1928 37.8463 49.9818 38.8991 48.5716 38.9879L48.7603 41.982C51.536 41.8071 53.9241 39.7407 54.39 36.8765L51.4289 36.3948ZM48.3003 39.0302C48.3345 39.0216 48.369 39.0157 48.4035 39.0124L48.689 41.9988C48.8054 41.9876 48.9199 41.9678 49.0316 41.9397L48.3003 39.0302ZM48.4036 39.0124C46.8531 39.1605 42.5006 39.3292 37.7014 38.793L37.3683 41.7744C42.391 42.3356 46.9516 42.1648 48.689 41.9988L48.4036 39.0124ZM37.7014 38.793C37.5723 38.7786 37.4429 38.7631 37.3135 38.7466L36.9341 41.7225C37.0786 41.7409 37.2234 41.7582 37.3683 41.7744L37.7014 38.793ZM34.4259 44.0144C36.1713 43.6167 37.6273 42.4743 38.4466 40.9417L35.8009 39.5273C35.3831 40.3088 34.6405 40.8886 33.7594 41.0894L34.4259 44.0144ZM34.359 44.0421C34.4715 44.0126 34.5807 43.9749 34.6859 43.9296L33.4994 41.1742C33.5315 41.1604 33.5644 41.1491 33.5978 41.1403L34.359 44.0421ZM23.1491 45.6381C28.1968 45.3857 32.6708 44.4849 34.359 44.0421L33.5979 41.1403C32.0913 41.5354 27.8223 42.4006 22.9993 42.6418L23.1491 45.6381ZM10.3741 44.0318C12.5449 44.6925 17.9602 45.8976 23.1491 45.6381L22.9993 42.6418C18.2694 42.8784 13.2165 41.761 11.2477 41.1618L10.3741 44.0318ZM11.113 41.1268C11.1003 41.1246 11.0878 41.1225 11.0755 41.1203L10.5463 44.0732C10.5711 44.0777 10.5958 44.0819 10.6203 44.086L11.113 41.1268ZM9.38924 42.3466L9.38699 42.3601L12.3463 42.8527L12.3485 42.8392L9.38924 42.3466ZM10.9691 44.0895L16.7905 43.6996L16.59 40.7063L10.7686 41.0962L10.9691 44.0895ZM22.9194 41.0438C20.9014 41.1448 18.7933 40.9837 16.8989 40.7176L16.4816 43.6884C18.4991 43.9718 20.8061 44.1533 23.0692 44.0401L22.9194 41.0438ZM33.0544 39.628C31.5167 40.016 27.4711 40.8162 22.9194 41.0438L23.0692 44.0401C27.8431 43.8014 32.0853 42.9666 33.7885 42.5368L33.0544 39.628ZM34.0788 42.4307C34.0223 42.4582 33.9625 42.478 33.9016 42.4895L33.3483 39.5409C33.1429 39.5795 32.9468 39.6451 32.7642 39.7341L34.0788 42.4307ZM33.9016 42.4895C34.9702 42.2889 35.9017 41.712 36.5565 40.9071L34.2293 39.014C34.0083 39.2855 33.6979 39.4753 33.3483 39.5409L33.9016 42.4895ZM35.6694 38.4862C34.0026 38.1736 32.3741 37.7274 30.9208 37.2534L29.9906 40.1056C31.5388 40.6105 33.2954 41.0932 35.1163 41.4348L35.6694 38.4862ZM29.5114 39.845L32.4772 42.2479L34.3657 39.9169L31.4 37.514L29.5114 39.845ZM16.7905 43.6996L33.5217 42.579L33.3212 39.5857L16.59 40.7063L16.7905 43.6996ZM16.8989 40.7176C14.7463 40.4152 12.9194 39.9844 11.8852 39.6823L11.044 42.5619C12.22 42.9054 14.1887 43.3663 16.4816 43.6884L16.8989 40.7176ZM12.71 41.9581L19.4242 31.9561L16.9333 30.284L10.2192 40.2861L12.71 41.9581ZM27.8597 34.7154C27.6517 34.4242 27.3784 34.1853 27.0616 34.0181L25.6615 36.6714C25.5651 36.6205 25.4819 36.5478 25.4186 36.4592L27.8597 34.7154ZM25.6978 36.6899C27.3991 37.5294 31.4709 39.1733 35.7806 39.9293L36.2989 36.9745C32.331 36.2784 28.5329 34.7435 27.0253 33.9996L25.6978 36.6899ZM37.5278 38.6408C37.5516 38.4536 37.5637 38.2634 37.5637 38.0711H34.5637C34.5637 38.1368 34.5596 38.2008 34.5517 38.263L37.5278 38.6408ZM37.5637 38.0711C37.5637 35.5885 35.5512 33.5758 33.0686 33.5756L33.0683 36.5756C33.8942 36.5757 34.5637 37.2452 34.5637 38.0711H37.5637ZM33.0665 33.5756L33.065 33.5756L33.069 36.5756L33.0704 36.5756L33.0665 33.5756ZM33.067 33.5756C33.2556 33.5756 33.4363 33.6517 33.568 33.7868L31.4207 35.8817C31.8536 36.3254 32.4472 36.5756 33.067 36.5756V33.5756ZM33.568 33.7868C33.6998 33.9218 33.7714 34.1043 33.7668 34.2929L30.7677 34.2188C30.7524 34.8385 30.9878 35.4381 31.4207 35.8817L33.568 33.7868ZM33.7668 34.2929C33.7677 34.2553 33.7682 34.2177 33.7682 34.18H30.7682C30.7682 34.193 30.768 34.206 30.7677 34.2188L33.7668 34.2929ZM33.7682 34.18C33.7682 32.7347 33.0844 31.4482 32.0288 30.6283L30.1885 32.9975C30.5439 33.2736 30.7682 33.7003 30.7682 34.18H33.7682ZM30.9437 30.322C30.2704 30.3965 29.5794 30.4614 28.8772 30.5132L29.098 33.505C29.8392 33.4503 30.5667 33.382 31.2736 33.3038L30.9437 30.322ZM28.8772 30.5132C27.3797 30.6237 25.8369 30.5993 24.3568 30.4936L24.1432 33.486C25.7321 33.5994 27.424 33.6286 29.098 33.505L28.8772 30.5132ZM22.7685 31.7553C22.6028 32.802 22.8143 33.826 23.3018 34.6818L25.9085 33.1968C25.7459 32.9113 25.6763 32.5738 25.7316 32.2242L22.7685 31.7553ZM23.6609 35.1048L25.3638 36.4845L27.2524 34.1536L25.5494 32.7738L23.6609 35.1048ZM25.7084 36.6939C25.6924 36.687 25.6768 36.6795 25.6616 36.6714L27.0615 34.0181C27.0114 33.9916 26.9601 33.967 26.9078 33.9441L25.7084 36.6939ZM27.0262 34L27.0077 33.9909L25.6784 36.6803L25.6969 36.6895L27.0262 34ZM24.9988 34.6701L24.9947 34.6785L27.6832 36.0096L27.6873 36.0012L24.9988 34.6701ZM25.3946 36.5095L25.6949 36.7528L27.5835 34.4218L27.2832 34.1785L25.3946 36.5095ZM24.1139 32.3713C24.1171 32.2638 24.126 32.1552 24.1408 32.0456L21.1678 31.6439C21.139 31.8573 21.1216 32.0701 21.1153 32.2817L24.1139 32.3713ZM22.8181 30.3538C22.5753 30.3271 22.3358 30.2986 22.1004 30.2687L21.7224 33.2448C21.9741 33.2768 22.2304 33.3072 22.4905 33.3358L22.8181 30.3538ZM20.9671 32.9222L21.6703 33.492L23.5589 31.161L22.8557 30.5913L20.9671 32.9222ZM39.1102 38.8814C39.1456 38.6156 39.1637 38.3451 39.1637 38.0711H36.1637C36.1637 38.2124 36.1544 38.3507 36.1364 38.4856L39.1102 38.8814ZM39.1637 38.0711C39.1637 35.0445 36.9593 32.5356 34.0683 32.0575L33.5789 35.0173C35.0452 35.2598 36.1637 36.5363 36.1637 38.0711H39.1637ZM35.3091 33.3295C35.1744 32.3666 34.8149 31.4758 34.2867 30.713L31.8202 32.4209C32.0887 32.8085 32.27 33.2587 32.3381 33.7452L35.3091 33.3295ZM39.4372 28.761C38.3817 29.0647 35.9219 29.6444 32.8425 30.0818L33.2644 33.052C36.4662 32.5972 39.0635 31.9903 40.2669 31.644L39.4372 28.761ZM39.3011 28.8164C39.3446 28.7931 39.3904 28.7745 39.4373 28.761L40.2669 31.644C40.4245 31.5986 40.5751 31.5372 40.7166 31.4614L39.3011 28.8164ZM41.4376 26.9865C41.1367 27.8102 40.4517 28.454 39.5993 28.6959L40.4184 31.5819C42.205 31.0748 43.6277 29.7344 44.2555 28.0157L41.4376 26.9865ZM44.6149 27.9051C44.5116 27.4958 44.352 27.1068 44.1439 26.7482L41.5492 28.254C41.6189 28.3742 41.6719 28.5037 41.706 28.6389L44.6149 27.9051ZM44.2014 27.4285C44.4071 27.5127 44.5605 27.6896 44.6149 27.9051L41.706 28.6389C41.8846 29.3469 42.3888 29.9281 43.0646 30.2048L44.2014 27.4285ZM43.5724 27.4782C43.7623 27.3627 43.9958 27.3443 44.2014 27.4285L43.0646 30.2048C43.7403 30.4815 44.5073 30.4209 45.1312 30.0415L43.5724 27.4782ZM45.9736 27.0106C45.1098 26.8701 44.2663 27.0563 43.5725 27.4782L45.1311 30.0415C45.2367 29.9773 45.3597 29.9502 45.4919 29.9717L45.9736 27.0106ZM48.8928 31.0639C49.206 29.1385 47.899 27.3238 45.9736 27.0106L45.4919 29.9717C45.782 30.0189 45.9789 30.2923 45.9317 30.5823L48.8928 31.0639ZM48.2644 32.5737C48.5801 32.1398 48.8012 31.6274 48.8928 31.0639L45.9317 30.5823C45.9172 30.6715 45.8841 30.746 45.8386 30.8085L48.2644 32.5737ZM48.2913 31.7898C48.4433 32.0321 48.4326 32.3424 48.2644 32.5737L45.8386 30.8085C45.2857 31.5683 45.2506 32.5881 45.75 33.3841L48.2913 31.7898ZM47.5739 31.473C47.8553 31.4221 48.1394 31.5476 48.2913 31.7898L45.75 33.3841C46.2493 34.1801 47.1827 34.5923 48.1074 34.4251L47.5739 31.473ZM49.0952 31.4606C48.5774 31.3764 48.0644 31.3843 47.5739 31.473L48.1074 34.4251C48.2672 34.3963 48.4369 34.393 48.6136 34.4217L49.0952 31.4606ZM52.8108 36.6196C53.2094 34.169 51.5458 31.8592 49.0952 31.4606L48.6136 34.4217C49.4289 34.5543 49.9823 35.3227 49.8497 36.138L52.8108 36.6196ZM48.4868 40.3927C50.608 40.3413 52.4579 38.7889 52.8108 36.6196L49.8497 36.138C49.7326 36.8579 49.1172 37.3765 48.4141 37.3936L48.4868 40.3927ZM48.6716 40.363C48.6112 40.3812 48.5489 40.3912 48.4868 40.3927L48.4141 37.3936C48.2045 37.3987 47.9999 37.4321 47.8049 37.4909L48.6716 40.363ZM37.546 40.1843C42.2958 40.715 46.6165 40.5722 48.367 40.4214L48.1095 37.4325C46.5291 37.5686 42.4078 37.7089 37.8791 37.2029L37.546 40.1843ZM37.4513 40.1736C37.4829 40.1772 37.5144 40.1808 37.5459 40.1843L37.8791 37.2029C37.8512 37.1998 37.8232 37.1966 37.7953 37.1934L37.4513 40.1736ZM48.2514 37.4196C48.2073 37.4238 48.1599 37.4281 48.1095 37.4325L48.367 40.4214C48.426 40.4163 48.4826 40.4112 48.5368 40.406L48.2514 37.4196ZM49.9634 39.5665L49.8873 38.7701L46.9009 39.0555L46.977 39.8519L49.9634 39.5665ZM47.7008 41.2251L48.5006 41.2089L48.4398 38.2095L47.6399 38.2257L47.7008 41.2251ZM46.1704 39.7432L46.1707 39.7576L49.17 39.6932L49.1697 39.6788L46.1704 39.7432ZM47.8049 37.4909C46.8405 37.7819 46.1464 38.6864 46.1704 39.745L49.1697 39.6771C49.177 40.0007 48.9646 40.2746 48.6716 40.363L47.8049 37.4909ZM10.6079 42.3985C10.5356 42.35 10.4722 42.2878 10.4218 42.2148L12.8912 40.5112C12.7255 40.271 12.5173 40.067 12.2799 39.9076L10.6079 42.3985ZM10.4218 42.2147C10.3141 42.0586 10.2743 41.8655 10.3117 41.6795L13.253 42.2698C13.3756 41.6588 13.2451 41.0242 12.8912 40.5112L10.4218 42.2147ZM12.0775 40.504L11.2931 40.3466L10.7028 43.2879L11.4872 43.4453L12.0775 40.504ZM12.2434 42.6533L12.6893 41.989L10.1984 40.317L9.75255 40.9812L12.2434 42.6533ZM10.7799 42.4824C10.7187 42.4623 10.6608 42.434 10.6078 42.3985L12.2799 39.9076C12.1057 39.7907 11.9155 39.6976 11.7145 39.6317L10.7799 42.4824ZM11.8852 39.6823C11.8149 39.6617 11.7487 39.6419 11.6869 39.623L10.8075 42.4912C10.8829 42.5143 10.9618 42.5379 11.044 42.5619L11.8852 39.6823ZM12.6893 41.989L12.71 41.9581L10.2192 40.2861L10.1984 40.317L12.6893 41.989Z" fill="#F8F9FA" mask="url(#path-1-outside-1_50_10446)"/>
<path fill-rule="evenodd" clip-rule="evenodd" d="M38.3131 25.6472C37.7559 25.0321 36.994 24.5946 36.1111 24.451C34.8207 24.2412 33.5767 24.7084 32.7414 25.5917C32.538 25.5214 32.3258 25.4675 32.1061 25.4317C30.0371 25.0952 28.087 26.4997 27.7504 28.5687C27.7452 28.601 27.7404 28.6332 27.736 28.6654L27.7348 28.6652C25.6657 28.3287 23.7156 29.7332 23.3791 31.8022C23.0769 33.6602 24.1786 35.4223 25.9048 36.0061L25.9047 36.0064C27.7619 36.9259 32.689 38.9004 37.5403 39.4425C42.3917 39.9845 46.7927 39.8153 48.3868 39.663C48.3867 39.6576 48.3866 39.6522 48.3865 39.6467C50.1764 39.6033 51.7386 38.2925 52.0365 36.461C52.373 34.392 50.9685 32.4419 48.8995 32.1054C48.4612 32.0341 48.0283 32.0409 47.615 32.1156C47.8677 31.7684 48.0449 31.3582 48.1185 30.9054C48.3696 29.3615 47.3217 27.9064 45.7778 27.6553C45.0846 27.5426 44.4092 27.6917 43.8528 28.0301C43.4937 26.6069 42.3214 25.4613 40.7805 25.2107C39.8977 25.0671 39.0365 25.2405 38.3131 25.6472Z" fill="#FFF3BF"/>
<path d="M38.3131 25.6472L37.7202 26.1843C37.9709 26.461 38.3797 26.5275 38.7052 26.3445L38.3131 25.6472ZM32.7414 25.5917L32.48 26.3478C32.777 26.4505 33.1067 26.3697 33.3226 26.1414L32.7414 25.5917ZM27.736 28.6654L27.6063 29.4548C27.8193 29.4898 28.0375 29.4372 28.2112 29.309C28.3848 29.1807 28.4993 28.9877 28.5286 28.7738L27.736 28.6654ZM27.7348 28.6652L27.8644 27.8758L27.8632 27.8756L27.7348 28.6652ZM25.9048 36.0061L26.6539 36.287C26.73 36.0841 26.7205 35.859 26.6276 35.6632C26.5348 35.4675 26.3664 35.3177 26.1611 35.2483L25.9048 36.0061ZM25.9047 36.0064L25.1557 35.7255C25.0115 36.1099 25.1818 36.5411 25.5498 36.7233L25.9047 36.0064ZM37.5403 39.4425L37.4515 40.2375L37.4515 40.2375L37.5403 39.4425ZM48.3868 39.663L48.4629 40.4594C48.8796 40.4196 49.1951 40.0653 49.1866 39.6468L48.3868 39.663ZM48.3865 39.6467L48.3671 38.847C47.9259 38.8577 47.5767 39.2236 47.5867 39.6648L48.3865 39.6467ZM47.615 32.1156L46.9681 31.6449C46.7758 31.9092 46.7636 32.2639 46.9373 32.5408C47.111 32.8176 47.4356 32.961 47.7572 32.9029L47.615 32.1156ZM43.8528 28.0301L43.0771 28.2258C43.1392 28.4721 43.3146 28.6742 43.5496 28.7705C43.7846 28.8667 44.0514 28.8456 44.2684 28.7137L43.8528 28.0301ZM35.9826 25.2407C36.6802 25.3541 37.2803 25.6987 37.7202 26.1843L38.906 25.11C38.2314 24.3654 37.3077 23.8352 36.2395 23.6614L35.9826 25.2407ZM33.3226 26.1414C33.9835 25.4425 34.965 25.0751 35.9826 25.2407L36.2395 23.6614C34.6765 23.4072 33.1698 23.9743 32.1601 25.042L33.3226 26.1414ZM31.9777 26.2214C32.152 26.2497 32.3197 26.2924 32.48 26.3478L33.0028 24.8356C32.7563 24.7504 32.4996 24.6852 32.2345 24.6421L31.9777 26.2214ZM28.5401 28.6972C28.8057 27.0642 30.3447 25.9558 31.9777 26.2214L32.2345 24.6421C29.7294 24.2346 27.3683 25.9352 26.9608 28.4403L28.5401 28.6972ZM28.5286 28.7738C28.5321 28.7483 28.5359 28.7228 28.5401 28.6972L26.9608 28.4403C26.9545 28.4792 26.9487 28.5181 26.9433 28.557L28.5286 28.7738ZM27.6051 29.4546L27.6063 29.4548L27.8656 27.876L27.8644 27.8758L27.6051 29.4546ZM24.1687 31.9306C24.4343 30.2977 25.9734 29.1892 27.6063 29.4548L27.8632 27.8756C25.3581 27.4681 22.9969 29.1686 22.5895 31.6738L24.1687 31.9306ZM26.1611 35.2483C24.7994 34.7877 23.9304 33.3962 24.1687 31.9306L22.5895 31.6738C22.2235 33.9242 23.5579 36.0568 25.6485 36.7639L26.1611 35.2483ZM26.6538 36.2873L26.6539 36.287L25.1558 35.7252L25.1557 35.7255L26.6538 36.2873ZM37.6291 38.6474C32.9001 38.1191 28.0652 36.1834 26.2597 35.2894L25.5498 36.7233C27.4585 37.6684 32.4778 39.6818 37.4515 40.2375L37.6291 38.6474ZM48.3107 38.8666C46.7664 39.0142 42.4209 39.1828 37.6291 38.6474L37.4515 40.2375C42.3624 40.7862 46.819 40.6165 48.4629 40.4594L48.3107 38.8666ZM47.5867 39.6648C47.5868 39.6698 47.5869 39.6746 47.587 39.6792L49.1866 39.6468C49.1865 39.6406 49.1864 39.6346 49.1863 39.6286L47.5867 39.6648ZM51.2468 36.3326C51.0119 37.7772 49.7792 38.8127 48.3671 38.847L48.4059 40.4465C50.5735 40.3939 52.4653 38.8079 52.8261 36.5895L51.2468 36.3326ZM48.771 32.895C50.404 33.1606 51.5124 34.6997 51.2468 36.3326L52.8261 36.5895C53.2335 34.0843 51.533 31.7232 49.0279 31.3157L48.771 32.895ZM47.7572 32.9029C48.0824 32.8441 48.4238 32.8385 48.771 32.895L49.0279 31.3157C48.4987 31.2297 47.9743 31.2377 47.4727 31.3284L47.7572 32.9029ZM47.3289 30.777C47.2758 31.1033 47.1487 31.3967 46.9681 31.6449L48.2618 32.5863C48.5866 32.1401 48.8139 31.6131 48.9082 31.0338L47.3289 30.777ZM45.6494 28.4449C46.7571 28.6251 47.5091 29.6692 47.3289 30.777L48.9082 31.0338C49.2302 29.0539 47.8862 27.1877 45.9062 26.8657L45.6494 28.4449ZM44.2684 28.7137C44.6681 28.4706 45.1513 28.3639 45.6494 28.4449L45.9062 26.8657C45.0178 26.7212 44.1504 26.9129 43.4371 27.3466L44.2684 28.7137ZM40.652 26.0003C41.8669 26.1979 42.7933 27.1008 43.0771 28.2258L44.6285 27.8344C44.1942 26.113 42.7758 24.7247 40.9089 24.421L40.652 26.0003ZM38.7052 26.3445C39.2762 26.0234 39.9545 25.8868 40.652 26.0003L40.9089 24.421C39.8408 24.2473 38.7968 24.4575 37.921 24.9498L38.7052 26.3445Z" fill="#212529"/>
<path d="M34.8471 28.912C37.8127 28.9971 44.4789 30.419 47.4187 35.4259" stroke="#212529" stroke-width="1.4" stroke-linecap="round"/>
<g style="mix-blend-mode:multiply">
<path fill-rule="evenodd" clip-rule="evenodd" d="M34.4955 26.8552C35.3897 26.8341 36.219 27.1239 36.8798 27.626C37.5161 27.0932 38.3307 26.7645 39.2249 26.7433C40.7225 26.7078 42.0381 27.5448 42.685 28.7902C43.2391 28.4481 43.8886 28.2441 44.5865 28.2276C46.6822 28.1779 48.4213 29.8365 48.4709 31.9322C48.4772 32.1946 48.4566 32.4514 48.4117 32.7C48.4375 32.6988 48.4632 32.6979 48.4891 32.6973C50.3998 32.652 51.9855 34.1643 52.0308 36.075C52.0703 37.7449 50.9203 39.1665 49.3543 39.5286L49.3589 39.5507L49.3244 39.5606C49.7634 38.9649 50.0156 38.2244 49.9967 37.4274C49.9514 35.5166 48.3658 34.0044 46.455 34.0496C46.4292 34.0502 46.4034 34.0511 46.3777 34.0523C46.4225 33.8037 46.4431 33.5469 46.4369 33.2845C46.3872 31.1889 44.6481 29.5303 42.5525 29.5799C41.8545 29.5965 41.205 29.8004 40.651 30.1425C40.004 28.8971 38.6884 28.0601 37.1908 28.0956C36.2966 28.1168 35.482 28.4456 34.8457 28.9784C34.1849 28.4762 33.3556 28.1864 32.4614 28.2076C32.1568 28.2148 31.8615 28.2577 31.5793 28.3322C32.2547 27.4573 33.3045 26.8835 34.4955 26.8552ZM25.0426 35.57C24.9056 35.5733 24.771 35.5858 24.6394 35.607C24.7708 35.397 24.9278 35.2046 25.1063 35.0342C25.1522 35.2212 25.2142 35.4018 25.2908 35.5744C25.2089 35.5696 25.1261 35.5681 25.0426 35.57ZM28.1912 30.9996C27.9939 31.0042 27.8012 31.0264 27.6144 31.0644C28.0544 30.4221 28.7192 29.9441 29.4985 29.7464C29.2122 30.1333 28.9978 30.5762 28.8748 31.0549C28.6538 31.0133 28.4251 30.994 28.1912 30.9996Z" fill="#FFF3BF"/>
</g>
<path fill-rule="evenodd" clip-rule="evenodd" d="M27.0683 17.4634C26.4075 16.9612 25.5782 16.6714 24.684 16.6926C22.9466 16.7337 21.5097 17.936 21.0974 19.5399C20.8764 19.4983 20.6477 19.479 20.4138 19.4846C18.616 19.5272 17.1932 21.0191 17.2358 22.8168C17.2463 23.2591 17.3445 23.6787 17.5134 24.0594C17.4315 24.0546 17.3487 24.0531 17.2651 24.055C15.6334 24.0937 14.3419 25.4478 14.3806 27.0796C14.4141 28.4971 15.4404 29.6577 16.7789 29.9128L16.7763 29.9275C18.7709 30.4899 23.977 31.5248 28.8453 31.1656C33.7136 30.8064 38.0085 29.8309 39.5474 29.388C39.5459 29.3807 39.5444 29.3733 39.5428 29.3659C41.1088 29.0038 42.2588 27.5822 42.2193 25.9124C42.174 24.0016 40.5883 22.4894 38.6776 22.5346C38.6517 22.5352 38.626 22.5361 38.6003 22.5373C38.6451 22.2887 38.6657 22.0319 38.6595 21.7695C38.6098 19.6739 36.8707 18.0153 34.7751 18.0649C34.0771 18.0815 33.4276 18.2854 32.8736 18.6275C32.2266 17.3821 30.911 16.5451 29.4134 16.5806C28.5192 16.6018 27.7046 16.9306 27.0683 17.4634Z" fill="#FFF3BF"/>
<path d="M27.0683 17.4634L26.5843 18.1003C26.8816 18.3262 27.2956 18.3164 27.5819 18.0767L27.0683 17.4634ZM21.0974 19.5399L20.9492 20.3261C21.3634 20.4042 21.7672 20.1474 21.8722 19.7391L21.0974 19.5399ZM17.5134 24.0594L17.466 24.858C17.7447 24.8745 18.0118 24.7446 18.1709 24.5152C18.3299 24.2858 18.3579 23.9901 18.2446 23.735L17.5134 24.0594ZM16.7789 29.9128L17.5668 30.0518C17.6428 29.6209 17.3585 29.2089 16.9287 29.127L16.7789 29.9128ZM16.7763 29.9275L15.9885 29.7886C15.9171 30.1931 16.1638 30.586 16.5592 30.6975L16.7763 29.9275ZM28.8453 31.1656L28.7865 30.3678L28.8453 31.1656ZM39.5474 29.388L39.7687 30.1568C40.1709 30.0411 40.4159 29.6349 40.3307 29.2251L39.5474 29.388ZM39.5428 29.3659L39.3626 28.5865C38.9378 28.6847 38.6698 29.105 38.7601 29.5316L39.5428 29.3659ZM38.6003 22.5373L37.813 22.3953C37.7698 22.6348 37.838 22.881 37.9983 23.0642C38.1586 23.2474 38.3936 23.3476 38.6368 23.3365L38.6003 22.5373ZM32.8736 18.6275L32.1636 18.9963C32.2662 19.1937 32.4463 19.3395 32.6607 19.3987C32.8752 19.4579 33.1046 19.4251 33.2939 19.3082L32.8736 18.6275ZM24.7029 17.4924C25.4094 17.4756 26.0626 17.7039 26.5843 18.1003L27.5523 16.8264C26.7523 16.2185 25.7469 15.8672 24.665 15.8928L24.7029 17.4924ZM21.8722 19.7391C22.1977 18.4728 23.3329 17.5248 24.7029 17.4924L24.665 15.8928C22.5604 15.9427 20.8217 17.3992 20.3226 19.3408L21.8722 19.7391ZM20.4327 20.2843C20.6102 20.2801 20.7829 20.2948 20.9492 20.3261L21.2456 18.7538C20.9698 18.7018 20.6851 18.6779 20.3948 18.6848L20.4327 20.2843ZM18.0356 22.7979C18.0034 21.4418 19.0767 20.3165 20.4327 20.2843L20.3948 18.6848C18.1554 18.7378 16.383 20.5963 16.436 22.8357L18.0356 22.7979ZM18.2446 23.735C18.1177 23.4489 18.0435 23.133 18.0356 22.7979L16.436 22.8357C16.449 23.3853 16.5712 23.9086 16.7822 24.3839L18.2446 23.735ZM17.2841 24.8548C17.3455 24.8534 17.4061 24.8545 17.466 24.858L17.5608 23.2608C17.4568 23.2547 17.3519 23.2528 17.2462 23.2553L17.2841 24.8548ZM15.1803 27.0607C15.1521 25.8706 16.094 24.883 17.2841 24.8548L17.2462 23.2553C15.1727 23.3044 13.5317 25.0251 13.5808 27.0986L15.1803 27.0607ZM16.9287 29.127C15.9527 28.941 15.2048 28.0935 15.1803 27.0607L13.5808 27.0986C13.6235 28.9007 14.928 30.3745 16.6292 30.6987L16.9287 29.127ZM17.5642 30.0665L17.5668 30.0518L15.9911 29.7738L15.9885 29.7886L17.5642 30.0665ZM28.7865 30.3678C24.0409 30.7179 18.9325 29.7043 16.9934 29.1576L16.5592 30.6975C18.6092 31.2755 23.9131 32.3317 28.9042 31.9634L28.7865 30.3678ZM39.3262 28.6192C37.8354 29.0482 33.5949 30.013 28.7865 30.3678L28.9042 31.9634C33.8323 31.5998 38.1817 30.6135 39.7687 30.1568L39.3262 28.6192ZM38.7601 29.5316C38.7615 29.5382 38.7629 29.5446 38.7642 29.551L40.3307 29.2251C40.3289 29.2167 40.3272 29.2084 40.3255 29.2002L38.7601 29.5316ZM41.4195 25.9313C41.4499 27.2142 40.5663 28.3081 39.3626 28.5865L39.723 30.1453C41.6513 29.6995 43.0678 27.9502 43.019 25.8934L41.4195 25.9313ZM38.6966 23.3344C40.1656 23.2996 41.3847 24.4623 41.4195 25.9313L43.019 25.8934C42.9633 23.541 41.0111 21.6791 38.6587 21.7349L38.6966 23.3344ZM38.6368 23.3365C38.6566 23.3356 38.6766 23.3349 38.6966 23.3344L38.6587 21.7349C38.6269 21.7356 38.5953 21.7367 38.5638 21.7381L38.6368 23.3365ZM37.8597 21.7885C37.8646 21.9966 37.8483 22.1995 37.813 22.3953L39.3876 22.6794C39.4419 22.378 39.4667 22.0672 39.4592 21.7506L37.8597 21.7885ZM34.794 18.8647C36.4479 18.8255 37.8205 20.1345 37.8597 21.7885L39.4592 21.7506C39.3991 19.2132 37.2935 17.205 34.7561 17.2651L34.794 18.8647ZM33.2939 19.3082C33.7304 19.0387 34.2418 18.8778 34.794 18.8647L34.7561 17.2651C33.9123 17.2851 33.1248 17.5321 32.4532 17.9468L33.2939 19.3082ZM29.4323 17.3804C30.6131 17.3524 31.652 18.0115 32.1636 18.9963L33.5835 18.2587C32.8011 16.7527 31.2089 15.7378 29.3944 15.7808L29.4323 17.3804ZM27.5819 18.0767C28.0842 17.6561 28.7258 17.3971 29.4323 17.3804L29.3944 15.7808C28.3126 15.8065 27.325 16.205 26.5547 16.85L27.5819 18.0767Z" fill="#212529"/>
<path d="M24.2618 21.31C27.1925 20.8484 31.4079 21.3101 34.7961 23.5458" stroke="#212529" stroke-width="1.4" stroke-linecap="round"/>
<g style="mix-blend-mode:multiply">
<path fill-rule="evenodd" clip-rule="evenodd" d="M24.2906 16.7068C25.1083 16.6874 25.8718 16.9282 26.5018 17.3535C25.9846 17.5014 25.5135 17.7559 25.1129 18.0913C24.4521 17.5892 23.6228 17.2993 22.7286 17.3205C22.5647 17.3244 22.4035 17.3386 22.2456 17.3625C22.8296 16.9645 23.5314 16.7248 24.2906 16.7068ZM27.458 17.2085C27.2941 17.2124 27.1329 17.2266 26.975 17.2505C27.559 16.8525 28.2608 16.6128 29.02 16.5948C30.5176 16.5594 31.8332 17.3963 32.4801 18.6417C33.0342 18.2996 33.6837 18.0957 34.3816 18.0791C36.4773 18.0295 38.2164 19.6881 38.266 21.7837C38.2723 22.0461 38.2517 22.3029 38.2068 22.5515C38.2326 22.5504 38.2583 22.5495 38.2842 22.5489C40.1949 22.5036 41.7806 24.0158 41.8258 25.9266C41.8654 27.5965 40.7154 29.018 39.1494 29.3801L39.154 29.4023C39.0165 29.4418 38.857 29.4856 38.6771 29.5329C39.6563 28.9015 40.2935 27.7905 40.2639 26.5403C40.2186 24.6295 38.633 23.1173 36.7222 23.1626C36.6964 23.1632 36.6706 23.1641 36.6449 23.1652C36.6897 22.9166 36.7103 22.6598 36.7041 22.3974C36.6544 20.3018 34.9153 18.6432 32.8197 18.6928C32.1217 18.7094 31.4722 18.9133 30.9182 19.2554C30.2712 18.01 28.9556 17.1731 27.458 17.2085ZM15.3098 24.683C15.2474 24.6844 15.1856 24.6878 15.1243 24.6931C15.2329 24.6082 15.3477 24.5308 15.4678 24.4615C15.4952 24.5382 15.5253 24.6135 15.558 24.6874C15.4761 24.6825 15.3933 24.681 15.3098 24.683ZM18.4584 20.1125C18.3597 20.1148 18.2621 20.1215 18.1658 20.1324C18.5119 19.877 18.9107 19.6882 19.3437 19.5856C19.2613 19.7724 19.1936 19.967 19.142 20.1679C18.921 20.1262 18.6923 20.107 18.4584 20.1125Z" fill="#FFF3BF"/>
</g>
<path fill-rule="evenodd" clip-rule="evenodd" d="M21.4989 29.5546C20.8502 29.037 20.028 28.7276 19.1335 28.7276C17.8262 28.7276 16.6733 29.3885 15.9907 30.3944C15.7786 30.3576 15.5605 30.3385 15.3379 30.3385C13.2417 30.3385 11.5424 32.0378 11.5424 34.134C11.5424 34.1667 11.5428 34.1993 11.5436 34.2318L11.5424 34.2318C9.44616 34.2318 7.74683 35.9311 7.74683 38.0274C7.74683 39.9097 9.11714 41.4721 10.9147 41.7712L10.9146 41.7714C12.8953 42.3808 18.0755 43.5388 22.9509 43.295C27.8264 43.0512 32.1432 42.1777 33.6921 41.7714C33.6912 41.7661 33.6902 41.7608 33.6892 41.7555C35.4489 41.4253 36.7804 39.8807 36.7804 38.0251C36.7804 35.9289 35.0811 34.2296 32.9848 34.2296C32.9845 34.2296 32.9841 34.2296 32.9837 34.2296C32.9845 34.1978 32.9849 34.166 32.9849 34.134C32.9849 32.0378 31.2855 30.3385 29.1893 30.3385C28.4911 30.3385 27.837 30.527 27.275 30.8559C26.6577 29.5955 25.3623 28.7276 23.8643 28.7276C22.9698 28.7276 22.1476 29.037 21.4989 29.5546Z" fill="#FFF3BF"/>
<path d="M21.4989 29.5545L21 30.1799C21.2918 30.4128 21.706 30.4128 21.9978 30.1799L21.4989 29.5545ZM15.9907 30.3943L15.854 31.1826C16.1637 31.2363 16.4761 31.1036 16.6526 30.8436L15.9907 30.3943ZM11.5436 34.2317L11.5424 35.0317C11.7583 35.0321 11.9651 34.9451 12.116 34.7907C12.2668 34.6362 12.3488 34.4274 12.3434 34.2115L11.5436 34.2317ZM11.5424 34.2317L11.5436 33.4317H11.5424V34.2317ZM10.9146 41.7712L11.699 41.9286C11.7417 41.7161 11.6962 41.4953 11.5731 41.3169C11.4501 41.1385 11.2598 41.0176 11.046 40.9821L10.9146 41.7712ZM10.9146 41.7713L10.1303 41.6139C10.0494 42.0166 10.2867 42.4152 10.6793 42.536L10.9146 41.7713ZM22.9509 43.2949L22.9909 44.0939L22.9909 44.0939L22.9509 43.2949ZM33.6921 41.7713L33.8951 42.5452C34.2999 42.439 34.5545 42.0387 34.479 41.627L33.6921 41.7713ZM33.6892 41.7554L33.5416 40.9691C33.1078 41.0506 32.8219 41.468 32.9027 41.9019L33.6892 41.7554ZM32.9837 34.2295L32.1839 34.2098C32.1786 34.4253 32.2605 34.6339 32.411 34.7882C32.5616 34.9425 32.7681 35.0295 32.9837 35.0295V34.2295ZM27.275 30.8558L26.5565 31.2077C26.6544 31.4075 26.831 31.5575 27.044 31.6217C27.2569 31.686 27.487 31.6586 27.679 31.5463L27.275 30.8558ZM19.1335 29.5275C19.8402 29.5275 20.4878 29.7713 21 30.1799L21.9978 28.9292C21.2125 28.3026 20.2157 27.9275 19.1335 27.9275V29.5275ZM16.6526 30.8436C17.1928 30.0477 18.1025 29.5275 19.1335 29.5275V27.9275C17.55 27.9275 16.1539 28.7292 15.3287 29.9451L16.6526 30.8436ZM15.3379 31.1384C15.5145 31.1384 15.6869 31.1536 15.854 31.1826L16.1273 29.6061C15.8703 29.5615 15.6065 29.5384 15.3379 29.5384V31.1384ZM12.3424 34.134C12.3424 32.4796 13.6835 31.1384 15.3379 31.1384V29.5384C12.7999 29.5384 10.7424 31.5959 10.7424 34.134H12.3424ZM12.3434 34.2115C12.3427 34.1858 12.3424 34.1599 12.3424 34.134H10.7424C10.7424 34.1734 10.7429 34.2127 10.7439 34.252L12.3434 34.2115ZM11.5411 35.0317L11.5424 35.0317L11.5449 33.4317L11.5436 33.4317L11.5411 35.0317ZM8.54683 38.0273C8.54683 36.3729 9.88798 35.0317 11.5424 35.0317V33.4317C9.00433 33.4317 6.94683 35.4892 6.94683 38.0273H8.54683ZM11.046 40.9821C9.62796 40.746 8.54683 39.5122 8.54683 38.0273H6.94683C6.94683 40.3072 8.60632 42.198 10.7833 42.5603L11.046 40.9821ZM11.699 41.9288L11.699 41.9286L10.1303 41.6138L10.1303 41.6139L11.699 41.9288ZM22.911 42.4959C18.1585 42.7336 13.0755 41.5992 11.1499 41.0067L10.6793 42.536C12.7151 43.1623 17.9925 44.3439 22.9909 44.0939L22.911 42.4959ZM33.4892 40.9975C31.9886 41.3911 27.7265 42.2551 22.911 42.4959L22.9909 44.0939C27.9262 43.8471 32.2977 42.9641 33.8951 42.5452L33.4892 40.9975ZM32.9027 41.9019C32.9036 41.9065 32.9044 41.9111 32.9053 41.9157L34.479 41.627C34.4779 41.621 34.4768 41.6149 34.4757 41.6089L32.9027 41.9019ZM35.9804 38.0251C35.9804 39.4887 34.93 40.7086 33.5416 40.9691L33.8367 42.5417C35.9678 42.1418 37.5804 40.2726 37.5804 38.0251H35.9804ZM32.9848 35.0295C34.6392 35.0295 35.9804 36.3707 35.9804 38.0251H37.5804C37.5804 35.487 35.5229 33.4295 32.9848 33.4295V35.0295ZM32.9837 35.0295C32.985 35.0295 32.9862 35.0295 32.9862 35.0295C32.9866 35.0295 32.9858 35.0295 32.9848 35.0295V33.4295C32.9835 33.4295 32.9823 33.4295 32.9823 33.4295C32.9819 33.4295 32.9827 33.4295 32.9837 33.4295V35.0295ZM32.1849 34.134C32.1849 34.1593 32.1845 34.1846 32.1839 34.2098L33.7834 34.2493C33.7844 34.211 33.7849 34.1725 33.7849 34.134H32.1849ZM29.1893 31.1384C30.8437 31.1384 32.1849 32.4796 32.1849 34.134H33.7849C33.7849 31.5959 31.7273 29.5384 29.1893 29.5384V31.1384ZM27.679 31.5463C28.1218 31.2872 28.637 31.1384 29.1893 31.1384V29.5384C28.3453 29.5384 27.5521 29.7667 26.8709 30.1654L27.679 31.5463ZM23.8643 29.5275C25.0454 29.5275 26.0684 30.211 26.5565 31.2077L27.9934 30.504C27.247 28.9798 25.6793 27.9275 23.8643 27.9275V29.5275ZM21.9978 30.1799C22.51 29.7713 23.1576 29.5275 23.8643 29.5275V27.9275C22.7821 27.9275 21.7853 28.3026 21 28.9292L21.9978 30.1799Z" fill="#212529"/>
<path d="M18.6021 33.3335C21.5429 32.9414 28.3509 33.2747 32.0563 37.7447" stroke="#212529" stroke-width="1.4" stroke-linecap="round"/>
<g style="mix-blend-mode:multiply">
<path fill-rule="evenodd" clip-rule="evenodd" d="M19.2161 29.0302L19.1938 29.0133L19.2301 29.0186L19.2161 29.0302ZM10.6673 42.1978C10.1971 42.1082 9.76557 41.907 9.40198 41.6221C11.6643 42.1981 16.4743 43.0659 20.9932 42.7324C25.8615 42.3732 30.1564 41.3977 31.6953 40.9549L31.6906 40.9327C33.2566 40.5706 34.4067 39.1491 34.3671 37.4792C34.3417 36.4056 33.8299 35.4578 33.0474 34.8414C34.7362 35.0355 36.0662 36.4497 36.1076 38.1974C36.1472 39.8672 34.9971 41.2888 33.4311 41.6509L33.4358 41.673C31.8969 42.1159 27.602 43.0914 22.7337 43.4506C17.8654 43.8098 12.6592 42.7749 10.6647 42.2125L10.6673 42.1978ZM32.5478 34.0545C32.5514 34.2067 32.546 34.357 32.5321 34.5049C32.0242 34.2343 31.4417 34.0869 30.8254 34.1015C30.7996 34.1021 30.7738 34.103 30.7481 34.1041C30.7929 33.8555 30.8135 33.5987 30.8073 33.3363C30.7786 32.1249 30.1853 31.0595 29.2849 30.3857C31.0925 30.6391 32.5031 32.1701 32.5478 34.0545ZM23.9232 28.9014C24.6679 29.0058 25.3451 29.327 25.8873 29.8004C25.5799 29.8956 25.2894 30.0288 25.0214 30.1943C24.7564 29.6842 24.3792 29.2426 23.9232 28.9014Z" fill="#FFF3BF"/>
</g>
<g style="mix-blend-mode:soft-light" opacity="0.8">
<path d="M21.6125 35.9977C21.9863 35.2126 23.5302 35.2241 24.6512 35.638C25.9828 36.1298 27.2929 37.1935 27.4883 37.4632C27.7326 37.8003 26.6015 38.1121 24.1654 37.0153C23.1868 36.5747 21.2387 36.7827 21.6125 35.9977Z" fill="#F8F9FA"/>
</g>
<g style="mix-blend-mode:soft-light" opacity="0.8">
<path d="M27.4922 23.7608C27.9769 23.243 29.1756 23.1552 29.9457 23.3471C30.8606 23.575 31.6175 24.1646 31.703 24.3226C31.8099 24.52 30.8527 24.7861 29.2276 24.2449C28.5748 24.0275 27.0074 24.2785 27.4922 23.7608Z" fill="#F8F9FA"/>
</g>
</svg>
