<svg width="61" height="60" viewBox="0 0 61 60" fill="none" xmlns="http://www.w3.org/2000/svg">
<mask id="path-1-outside-1_50_8311" maskUnits="userSpaceOnUse" x="9.02759" y="6.13672" width="43" height="47" fill="black">
<rect fill="white" x="9.02759" y="6.13672" width="43" height="47"/>
<path fill-rule="evenodd" clip-rule="evenodd" d="M28.4799 8.13672C25.7189 8.13672 22.8779 9.02463 20.6701 10.9982C18.5796 12.867 17.128 15.6458 16.8078 19.3747C16.7171 19.4054 16.6197 19.4397 16.5166 19.4779C15.9283 19.6959 15.1367 20.0473 14.3378 20.5815C12.733 21.6546 11.0276 23.5264 11.0276 26.5332C11.0276 27.7605 11.2444 29.5669 12.3567 31.0868C13.5117 32.665 15.4973 33.7548 18.6488 33.7548H40.9878C42.7426 33.7548 44.9649 33.2309 46.7735 31.8493C48.6236 30.4361 49.9726 28.1734 49.9726 24.8826C49.9726 21.5358 48.3837 19.1656 46.2205 17.6686C44.3047 16.3429 41.9505 15.7029 39.8352 15.5896C38.8607 13.289 37.4428 11.4695 35.6136 10.2013C33.6205 8.8193 31.2039 8.13672 28.4799 8.13672ZM13.6542 39.7172C14.3723 39.5445 15.0377 39.3568 15.6845 39.1743C17.8348 38.5678 19.7796 38.0192 22.7675 38.2727C23.2628 38.3147 23.6984 37.9473 23.7404 37.452C23.7824 36.9567 23.415 36.5211 22.9197 36.4791C19.5771 36.1956 17.2622 36.8516 15.06 37.4757L15.0599 37.4757L15.0595 37.4758C14.4486 37.649 13.8464 37.8196 13.2333 37.9671C12.75 38.0833 12.4525 38.5693 12.5687 39.0526C12.685 39.5359 13.171 39.8334 13.6542 39.7172ZM26.1344 36.9833C25.649 36.8759 25.1686 37.1824 25.0613 37.6677C24.9539 38.153 25.2604 38.6335 25.7457 38.7408C26.7788 38.9693 27.9185 39.2817 29.1881 39.6975C38.1647 42.6366 44.2677 41.0078 47.9688 39.0987C48.4105 38.8709 48.5839 38.328 48.3561 37.8863C48.1282 37.4445 47.5854 37.2712 47.1436 37.499C43.849 39.1985 38.244 40.7685 29.7482 37.9868C28.4297 37.5551 27.2325 37.2261 26.1344 36.9833ZM15.7028 43.8558L15.7027 43.8558L15.7026 43.8559L15.7025 43.8559L15.7024 43.8559C15.0576 44.0386 14.3896 44.2278 13.6542 44.4046C13.171 44.5209 12.685 44.2233 12.5687 43.74C12.4525 43.2568 12.75 42.7708 13.2333 42.6545C13.8299 42.5111 14.4279 42.3422 15.0389 42.1698C16.4707 41.7656 17.9739 41.3413 19.697 41.1754C22.2287 40.9318 25.2928 41.2154 29.7482 42.6743C32.4453 43.5574 34.8463 44.0002 36.9693 44.1419C37.4652 44.175 37.8404 44.6039 37.8073 45.0998C37.7742 45.5958 37.3453 45.971 36.8494 45.9379C34.5661 45.7855 32.0174 45.3113 29.1881 44.3849C24.9074 42.9833 22.097 42.7528 19.8694 42.9672C18.3105 43.1172 17.058 43.472 15.7029 43.8558L15.7028 43.8558ZM48.3561 42.5737C48.5839 43.0155 48.4105 43.5583 47.9688 43.7862C46.0348 44.7838 43.4232 45.7168 40.0625 45.9423C39.5666 45.9756 39.1375 45.6006 39.1042 45.1046C39.071 44.6087 39.446 44.1796 39.9419 44.1464C43.0237 43.9395 45.397 43.0874 47.1436 42.1865C47.5854 41.9586 48.1282 42.132 48.3561 42.5737ZM15.7028 48.5433L15.7027 48.5433L15.7026 48.5434L15.7025 48.5434L15.7024 48.5434C15.0576 48.7261 14.3896 48.9153 13.6542 49.0921C13.171 49.2084 12.685 48.9108 12.5687 48.4275C12.4525 47.9443 12.75 47.4583 13.2333 47.342C13.8298 47.1986 14.4278 47.0298 15.0388 46.8573L15.0389 46.8573C16.4707 46.4531 17.9739 46.0288 19.697 45.8629C22.2287 45.6193 25.2928 45.9029 29.7482 47.3618C38.244 50.1435 43.849 48.5734 47.1436 46.874C47.5854 46.6461 48.1282 46.8195 48.3561 47.2612C48.5839 47.703 48.4105 48.2458 47.9688 48.4737C44.2677 50.3828 38.1647 52.0116 29.1881 49.0724C24.9074 47.6708 22.097 47.4403 19.8694 47.6547C18.3105 47.8047 17.058 48.1595 15.7029 48.5433L15.7028 48.5433Z"/>
</mask>
<path fill-rule="evenodd" clip-rule="evenodd" d="M28.4799 8.13672C25.7189 8.13672 22.8779 9.02463 20.6701 10.9982C18.5796 12.867 17.128 15.6458 16.8078 19.3747C16.7171 19.4054 16.6197 19.4397 16.5166 19.4779C15.9283 19.6959 15.1367 20.0473 14.3378 20.5815C12.733 21.6546 11.0276 23.5264 11.0276 26.5332C11.0276 27.7605 11.2444 29.5669 12.3567 31.0868C13.5117 32.665 15.4973 33.7548 18.6488 33.7548H40.9878C42.7426 33.7548 44.9649 33.2309 46.7735 31.8493C48.6236 30.4361 49.9726 28.1734 49.9726 24.8826C49.9726 21.5358 48.3837 19.1656 46.2205 17.6686C44.3047 16.3429 41.9505 15.7029 39.8352 15.5896C38.8607 13.289 37.4428 11.4695 35.6136 10.2013C33.6205 8.8193 31.2039 8.13672 28.4799 8.13672ZM13.6542 39.7172C14.3723 39.5445 15.0377 39.3568 15.6845 39.1743C17.8348 38.5678 19.7796 38.0192 22.7675 38.2727C23.2628 38.3147 23.6984 37.9473 23.7404 37.452C23.7824 36.9567 23.415 36.5211 22.9197 36.4791C19.5771 36.1956 17.2622 36.8516 15.06 37.4757L15.0599 37.4757L15.0595 37.4758C14.4486 37.649 13.8464 37.8196 13.2333 37.9671C12.75 38.0833 12.4525 38.5693 12.5687 39.0526C12.685 39.5359 13.171 39.8334 13.6542 39.7172ZM26.1344 36.9833C25.649 36.8759 25.1686 37.1824 25.0613 37.6677C24.9539 38.153 25.2604 38.6335 25.7457 38.7408C26.7788 38.9693 27.9185 39.2817 29.1881 39.6975C38.1647 42.6366 44.2677 41.0078 47.9688 39.0987C48.4105 38.8709 48.5839 38.328 48.3561 37.8863C48.1282 37.4445 47.5854 37.2712 47.1436 37.499C43.849 39.1985 38.244 40.7685 29.7482 37.9868C28.4297 37.5551 27.2325 37.2261 26.1344 36.9833ZM15.7028 43.8558L15.7027 43.8558L15.7026 43.8559L15.7025 43.8559L15.7024 43.8559C15.0576 44.0386 14.3896 44.2278 13.6542 44.4046C13.171 44.5209 12.685 44.2233 12.5687 43.74C12.4525 43.2568 12.75 42.7708 13.2333 42.6545C13.8299 42.5111 14.4279 42.3422 15.0389 42.1698C16.4707 41.7656 17.9739 41.3413 19.697 41.1754C22.2287 40.9318 25.2928 41.2154 29.7482 42.6743C32.4453 43.5574 34.8463 44.0002 36.9693 44.1419C37.4652 44.175 37.8404 44.6039 37.8073 45.0998C37.7742 45.5958 37.3453 45.971 36.8494 45.9379C34.5661 45.7855 32.0174 45.3113 29.1881 44.3849C24.9074 42.9833 22.097 42.7528 19.8694 42.9672C18.3105 43.1172 17.058 43.472 15.7029 43.8558L15.7028 43.8558ZM48.3561 42.5737C48.5839 43.0155 48.4105 43.5583 47.9688 43.7862C46.0348 44.7838 43.4232 45.7168 40.0625 45.9423C39.5666 45.9756 39.1375 45.6006 39.1042 45.1046C39.071 44.6087 39.446 44.1796 39.9419 44.1464C43.0237 43.9395 45.397 43.0874 47.1436 42.1865C47.5854 41.9586 48.1282 42.132 48.3561 42.5737ZM15.7028 48.5433L15.7027 48.5433L15.7026 48.5434L15.7025 48.5434L15.7024 48.5434C15.0576 48.7261 14.3896 48.9153 13.6542 49.0921C13.171 49.2084 12.685 48.9108 12.5687 48.4275C12.4525 47.9443 12.75 47.4583 13.2333 47.342C13.8298 47.1986 14.4278 47.0298 15.0388 46.8573L15.0389 46.8573C16.4707 46.4531 17.9739 46.0288 19.697 45.8629C22.2287 45.6193 25.2928 45.9029 29.7482 47.3618C38.244 50.1435 43.849 48.5734 47.1436 46.874C47.5854 46.6461 48.1282 46.8195 48.3561 47.2612C48.5839 47.703 48.4105 48.2458 47.9688 48.4737C44.2677 50.3828 38.1647 52.0116 29.1881 49.0724C24.9074 47.6708 22.097 47.4403 19.8694 47.6547C18.3105 47.8047 17.058 48.1595 15.7029 48.5433L15.7028 48.5433Z" fill="#F8F9FA"/>
<path d="M20.6701 10.9982L21.6698 12.1165L21.6698 12.1165L20.6701 10.9982ZM16.8078 19.3747L17.2879 20.7958C17.853 20.6049 18.2512 20.0974 18.3023 19.5031L16.8078 19.3747ZM16.5166 19.4779L15.9954 18.0714L15.9954 18.0714L16.5166 19.4779ZM14.3378 20.5815L13.504 19.3346L13.504 19.3346L14.3378 20.5815ZM12.3567 31.0868L11.1463 31.9727L11.1463 31.9727L12.3567 31.0868ZM46.7735 31.8493L45.863 30.6573L45.863 30.6573L46.7735 31.8493ZM46.2205 17.6686L47.074 16.4351L47.074 16.4351L46.2205 17.6686ZM39.8352 15.5896L38.454 16.1746C38.6776 16.7025 39.1825 17.0568 39.755 17.0874L39.8352 15.5896ZM35.6136 10.2013L34.7589 11.4339L34.7589 11.4339L35.6136 10.2013ZM15.6845 39.1743L16.0917 40.618L16.0917 40.618L15.6845 39.1743ZM13.6542 39.7172L14.005 41.1756L14.005 41.1756L13.6542 39.7172ZM22.7675 38.2727L22.8943 36.778L22.8943 36.778L22.7675 38.2727ZM22.9197 36.4791L22.7929 37.9737L22.7929 37.9738L22.9197 36.4791ZM15.06 37.4757L14.651 36.0325C14.6428 36.0349 14.6347 36.0372 14.6265 36.0397L15.06 37.4757ZM15.0599 37.4757L15.4595 38.9215C15.4708 38.9184 15.4821 38.9151 15.4934 38.9117L15.0599 37.4757ZM15.0595 37.4758L14.6599 36.03L14.6505 36.0327L15.0595 37.4758ZM13.2333 37.9671L13.5841 39.4255L13.5841 39.4255L13.2333 37.9671ZM12.5687 39.0526L14.0271 38.7018L14.0271 38.7018L12.5687 39.0526ZM25.0613 37.6677L23.5966 37.3438L23.5966 37.3438L25.0613 37.6677ZM26.1344 36.9833L25.8105 38.4479L25.8105 38.4479L26.1344 36.9833ZM25.7457 38.7408L25.4218 40.2054L25.4218 40.2054L25.7457 38.7408ZM29.1881 39.6975L29.6549 38.2719L29.6549 38.2719L29.1881 39.6975ZM47.9688 39.0987L47.2811 37.7656L47.2811 37.7656L47.9688 39.0987ZM47.1436 37.499L47.8313 38.8321L47.8313 38.8321L47.1436 37.499ZM29.7482 37.9868L30.215 36.5613L30.215 36.5613L29.7482 37.9868ZM15.7028 43.8558L16.0975 45.3029C16.1373 45.2921 16.1767 45.2796 16.2155 45.2655L15.7028 43.8558ZM15.7026 43.8559L15.3079 42.4087L15.2994 42.4111L15.7026 43.8559ZM15.7025 43.8559L16.1014 45.3019L16.1057 45.3007L15.7025 43.8559ZM15.7024 43.8559L15.3034 42.4099L15.2936 42.4127L15.7024 43.8559ZM13.6542 44.4046L13.3035 42.9462L13.3035 42.9462L13.6542 44.4046ZM12.5687 43.74L11.1103 44.0908L11.1103 44.0908L12.5687 43.74ZM13.2333 42.6545L12.8825 41.1961L12.8825 41.1961L13.2333 42.6545ZM15.0389 42.1698L14.6314 40.7262L14.6314 40.7262L15.0389 42.1698ZM19.697 41.1754L19.5533 39.6823L19.5533 39.6823L19.697 41.1754ZM29.7482 42.6743L29.2815 44.0998L29.2815 44.0998L29.7482 42.6743ZM36.9693 44.1419L36.8694 45.6386L36.8694 45.6386L36.9693 44.1419ZM36.8494 45.9379L36.7495 47.4346L36.7495 47.4346L36.8494 45.9379ZM29.1881 44.3849L28.7214 45.8104L28.7214 45.8104L29.1881 44.3849ZM19.8694 42.9672L19.7257 41.4741L19.7257 41.4741L19.8694 42.9672ZM15.7029 43.8558L15.2941 42.4126C15.2591 42.4225 15.2245 42.4337 15.1903 42.4461L15.7029 43.8558ZM47.9688 43.7862L48.6564 45.1193L48.6564 45.1193L47.9688 43.7862ZM40.0625 45.9423L39.962 44.4457L39.962 44.4457L40.0625 45.9423ZM39.9419 44.1464L39.8415 42.6497L39.8415 42.6497L39.9419 44.1464ZM47.1436 42.1865L46.456 40.8534L46.456 40.8534L47.1436 42.1865ZM15.7028 48.5433L16.0975 49.9904C16.1373 49.9796 16.1767 49.9671 16.2155 49.953L15.7028 48.5433ZM15.7026 48.5434L15.3079 47.0962L15.2994 47.0986L15.7026 48.5434ZM15.7025 48.5434L16.1014 49.9894L16.1057 49.9882L15.7025 48.5434ZM15.7024 48.5434L15.3034 47.0974L15.2936 47.1002L15.7024 48.5434ZM13.6542 49.0921L13.3035 47.6337L13.3035 47.6337L13.6542 49.0921ZM12.5687 48.4275L11.1103 48.7783L11.1103 48.7783L12.5687 48.4275ZM13.2333 47.342L12.8825 45.8836L12.8825 45.8836L13.2333 47.342ZM15.0388 46.8573L15.4463 48.3009C15.4648 48.2957 15.4833 48.2901 15.5016 48.2841L15.0388 46.8573ZM15.0389 46.8573L14.6314 45.4137C14.6129 45.4189 14.5945 45.4245 14.5762 45.4304L15.0389 46.8573ZM19.697 45.8629L19.5533 44.3698L19.5533 44.3698L19.697 45.8629ZM29.7482 47.3618L30.215 45.9362L30.215 45.9362L29.7482 47.3618ZM47.1436 46.874L46.456 45.5409L46.456 45.5409L47.1436 46.874ZM47.9688 48.4737L48.6564 49.8068L48.6564 49.8068L47.9688 48.4737ZM29.1881 49.0724L28.7214 50.4979L28.7214 50.4979L29.1881 49.0724ZM19.8694 47.6547L19.7257 46.1616L19.7257 46.1616L19.8694 47.6547ZM15.7029 48.5433L15.2941 47.1001C15.2591 47.11 15.2245 47.1212 15.1903 47.1336L15.7029 48.5433ZM21.6698 12.1165C23.5622 10.4249 26.0297 9.63672 28.4799 9.63672V6.63672C25.4082 6.63672 22.1936 7.62437 19.6704 9.87988L21.6698 12.1165ZM18.3023 19.5031C18.5933 16.1135 19.8941 13.7039 21.6698 12.1165L19.6704 9.87988C17.2651 12.03 15.6626 15.1781 15.3133 19.2464L18.3023 19.5031ZM17.0379 20.8844C17.1267 20.8515 17.2104 20.822 17.2879 20.7958L16.3277 17.9537C16.2239 17.9887 16.1128 18.0279 15.9954 18.0714L17.0379 20.8844ZM15.1716 21.8284C15.847 21.3768 16.526 21.0741 17.0379 20.8844L15.9954 18.0714C15.3307 18.3177 14.4264 18.7178 13.504 19.3346L15.1716 21.8284ZM12.5276 26.5332C12.5276 24.1937 13.8225 22.7306 15.1716 21.8284L13.504 19.3346C11.6435 20.5787 9.52759 22.8591 9.52759 26.5332H12.5276ZM13.5672 30.2009C12.7277 29.0539 12.5276 27.6241 12.5276 26.5332H9.52759C9.52759 27.8969 9.76101 30.0799 11.1463 31.9727L13.5672 30.2009ZM18.6488 32.2548C15.8743 32.2548 14.3848 31.318 13.5672 30.2009L11.1463 31.9727C12.6387 34.0119 15.1203 35.2548 18.6488 35.2548V32.2548ZM40.9878 32.2548H18.6488V35.2548H40.9878V32.2548ZM45.863 30.6573C44.3664 31.8005 42.4833 32.2548 40.9878 32.2548V35.2548C43.0018 35.2548 45.5633 34.6613 47.6841 33.0413L45.863 30.6573ZM48.4726 24.8826C48.4726 27.709 47.3391 29.5298 45.863 30.6573L47.6841 33.0413C49.9081 31.3425 51.4726 28.6378 51.4726 24.8826H48.4726ZM45.3669 18.902C47.1742 20.1527 48.4726 22.0847 48.4726 24.8826H51.4726C51.4726 20.9868 49.5933 18.1785 47.074 16.4351L45.3669 18.902ZM39.755 17.0874C41.6535 17.1892 43.7247 17.7656 45.3669 18.902L47.074 16.4351C44.8848 14.9201 42.2475 14.2167 39.9155 14.0917L39.755 17.0874ZM34.7589 11.4339C36.3239 12.5191 37.5746 14.0984 38.454 16.1746L41.2164 15.0045C40.1469 12.4796 38.5617 10.42 36.4683 8.96858L34.7589 11.4339ZM28.4799 9.63672C30.9485 9.63672 33.055 10.2525 34.7589 11.4339L36.4683 8.96858C34.1859 7.38607 31.4593 6.63672 28.4799 6.63672V9.63672ZM15.2773 37.7307C14.6274 37.914 13.9889 38.0939 13.3035 38.2588L14.005 41.1756C14.7556 40.9951 15.448 40.7996 16.0917 40.618L15.2773 37.7307ZM22.8943 36.778C19.6199 36.5003 17.4536 37.1168 15.2773 37.7307L16.0917 40.618C18.216 40.0188 19.9393 39.5381 22.6407 39.7673L22.8943 36.778ZM22.2458 37.3252C22.2738 36.995 22.5641 36.75 22.8943 36.778L22.6407 39.7673C23.9615 39.8794 25.123 38.8995 25.235 37.5788L22.2458 37.3252ZM22.7929 37.9738C22.4627 37.9457 22.2178 37.6554 22.2458 37.3252L25.235 37.5788C25.3471 36.258 24.3672 35.0965 23.0465 34.9845L22.7929 37.9738ZM15.469 38.9189C17.6475 38.3015 19.739 37.7147 22.7929 37.9737L23.0465 34.9845C19.4152 34.6764 16.8768 35.4017 14.651 36.0325L15.469 38.9189ZM15.4934 38.9117L15.4935 38.9117L14.6265 36.0397L14.6264 36.0398L15.4934 38.9117ZM15.4592 38.9216L15.4595 38.9215L14.6602 36.03L14.6599 36.0301L15.4592 38.9216ZM13.5841 39.4255C14.2313 39.2698 14.8624 39.0908 15.4685 38.919L14.6505 36.0327C14.0349 36.2072 13.4615 36.3694 12.8825 36.5087L13.5841 39.4255ZM14.0271 38.7018C14.1046 39.024 13.9063 39.348 13.5841 39.4255L12.8825 36.5087C11.5938 36.8186 10.8004 38.1146 11.1103 39.4034L14.0271 38.7018ZM13.3035 38.2588C13.6257 38.1813 13.9497 38.3796 14.0271 38.7018L11.1103 39.4034C11.4203 40.6921 12.7163 41.4856 14.005 41.1756L13.3035 38.2588ZM26.5259 37.9916C26.4543 38.3151 26.134 38.5194 25.8105 38.4479L26.4582 35.5186C25.164 35.2324 23.8828 36.0496 23.5966 37.3438L26.5259 37.9916ZM26.0696 37.2762C26.3931 37.3477 26.5974 37.668 26.5259 37.9916L23.5966 37.3438C23.3104 38.638 24.1276 39.9192 25.4218 40.2054L26.0696 37.2762ZM29.6549 38.2719C28.3445 37.8429 27.1569 37.5166 26.0696 37.2762L25.4218 40.2054C26.4006 40.4219 27.4925 40.7206 28.7214 41.123L29.6549 38.2719ZM47.2811 37.7656C43.9187 39.5001 38.2307 41.0799 29.6549 38.2719L28.7214 41.123C38.0987 44.1934 44.6167 42.5156 48.6564 40.4318L47.2811 37.7656ZM47.023 38.5739C46.8711 38.2794 46.9866 37.9176 47.2811 37.7656L48.6564 40.4318C49.8344 39.8242 50.2968 38.3766 49.6892 37.1987L47.023 38.5739ZM47.8313 38.8321C47.5368 38.984 47.1749 38.8684 47.023 38.5739L49.6892 37.1987C49.0815 36.0207 47.634 35.5583 46.456 36.1659L47.8313 38.8321ZM29.2815 39.4123C38.1779 42.3253 44.1979 40.7063 47.8313 38.8321L46.456 36.1659C43.5001 37.6907 38.3101 39.2118 30.215 36.5613L29.2815 39.4123ZM25.8105 38.4479C26.8544 38.6787 28.0037 38.994 29.2815 39.4123L30.215 36.5613C28.8558 36.1162 27.6106 35.7735 26.4582 35.5186L25.8105 38.4479ZM16.0974 45.303L16.0975 45.3029L15.3082 42.4086L15.308 42.4087L16.0974 45.303ZM16.0973 45.303L16.0974 45.303L15.308 42.4087L15.3079 42.4087L16.0973 45.303ZM16.1057 45.3007L16.1058 45.3007L15.2994 42.4111L15.2993 42.4111L16.1057 45.3007ZM16.1012 45.3019L16.1014 45.3019L15.3036 42.4099L15.3035 42.4099L16.1012 45.3019ZM14.005 45.863C14.7736 45.6782 15.469 45.481 16.1111 45.2992L15.2936 42.4127C14.6461 42.5961 14.0055 42.7774 13.3035 42.9462L14.005 45.863ZM11.1103 44.0908C11.4203 45.3795 12.7163 46.173 14.005 45.863L13.3035 42.9462C13.6257 42.8687 13.9497 43.0671 14.0271 43.3893L11.1103 44.0908ZM12.8825 41.1961C11.5938 41.5061 10.8004 42.8021 11.1103 44.0908L14.0271 43.3893C14.1046 43.7115 13.9063 44.0355 13.5841 44.1129L12.8825 41.1961ZM14.6314 40.7262C14.0153 40.9001 13.4457 41.0607 12.8825 41.1961L13.5841 44.1129C14.2141 43.9614 14.8405 43.7844 15.4464 43.6133L14.6314 40.7262ZM19.5533 39.6823C17.6779 39.8628 16.0528 40.3249 14.6314 40.7262L15.4464 43.6133C16.8886 43.2063 18.2698 42.8197 19.8407 42.6685L19.5533 39.6823ZM30.215 41.2487C25.614 39.7423 22.3385 39.4143 19.5533 39.6823L19.8407 42.6685C22.1189 42.4493 24.9716 42.6886 29.2815 44.0998L30.215 41.2487ZM37.0692 42.6452C35.0798 42.5125 32.802 42.0958 30.215 41.2487L29.2815 44.0998C32.0887 45.0189 34.6128 45.488 36.8694 45.6386L37.0692 42.6452ZM39.304 45.1997C39.3923 43.8772 38.3917 42.7335 37.0691 42.6452L36.8694 45.6386C36.5387 45.6165 36.2886 45.3306 36.3107 45L39.304 45.1997ZM36.7495 47.4346C38.072 47.5229 39.2157 46.5223 39.304 45.1997L36.3107 45C36.3327 44.6693 36.6186 44.4192 36.9493 44.4412L36.7495 47.4346ZM28.7214 45.8104C31.6607 46.7729 34.3326 47.2733 36.7495 47.4346L36.9493 44.4412C34.7996 44.2978 32.374 43.8497 29.6549 42.9594L28.7214 45.8104ZM20.0131 44.4603C21.9872 44.2703 24.5862 44.4565 28.7214 45.8104L29.6549 42.9594C25.2286 41.5101 22.2067 41.2353 19.7257 41.4741L20.0131 44.4603ZM16.1117 45.299C17.4732 44.9133 18.6056 44.5957 20.0131 44.4603L19.7257 41.4741C18.0153 41.6387 16.6427 42.0306 15.2941 42.4126L16.1117 45.299ZM16.2155 45.2655L16.2155 45.2655L15.1903 42.4461L15.1902 42.4461L16.2155 45.2655ZM48.6564 45.1193C49.8344 44.5116 50.2968 43.0641 49.6892 41.8861L47.023 43.2614C46.8711 42.9669 46.9866 42.605 47.2811 42.4531L48.6564 45.1193ZM40.1629 47.439C43.7562 47.1978 46.5664 46.1974 48.6564 45.1193L47.2811 42.4531C45.5033 43.3701 43.0903 44.2357 39.962 44.4457L40.1629 47.439ZM37.6076 45.2051C37.6964 46.5276 38.8404 47.5277 40.1629 47.439L39.962 44.4457C40.2927 44.4235 40.5787 44.6735 40.6009 45.0042L37.6076 45.2051ZM39.8415 42.6497C38.519 42.7385 37.5188 43.8826 37.6076 45.2051L40.6009 45.0042C40.6231 45.3348 40.373 45.6208 40.0424 45.643L39.8415 42.6497ZM46.456 40.8534C44.8655 41.6738 42.6907 42.4585 39.8415 42.6497L40.0424 45.643C43.3566 45.4206 45.9285 44.501 47.8313 43.5196L46.456 40.8534ZM49.6892 41.8861C49.0815 40.7081 47.634 40.2457 46.456 40.8534L47.8313 43.5196C47.5368 43.6715 47.1749 43.5559 47.023 43.2614L49.6892 41.8861ZM16.0974 49.9905L16.0975 49.9904L15.3082 47.0961L15.308 47.0962L16.0974 49.9905ZM16.0973 49.9905L16.0974 49.9905L15.308 47.0962L15.3079 47.0962L16.0973 49.9905ZM16.1057 49.9882L16.1058 49.9882L15.2994 47.0986L15.2993 47.0986L16.1057 49.9882ZM16.1012 49.9894L16.1014 49.9894L15.3036 47.0974L15.3035 47.0974L16.1012 49.9894ZM14.005 50.5505C14.7736 50.3657 15.469 50.1685 16.1111 49.9867L15.2936 47.1002C14.6461 47.2836 14.0055 47.4649 13.3035 47.6337L14.005 50.5505ZM11.1103 48.7783C11.4203 50.067 12.7163 50.8605 14.005 50.5505L13.3035 47.6337C13.6257 47.5562 13.9497 47.7546 14.0271 48.0768L11.1103 48.7783ZM12.8825 45.8836C11.5938 46.1936 10.8004 47.4896 11.1103 48.7783L14.0271 48.0768C14.1046 48.399 13.9063 48.723 13.5841 48.8004L12.8825 45.8836ZM14.6313 45.4137C14.0152 45.5876 13.4457 45.7482 12.8825 45.8836L13.5841 48.8004C14.214 48.6489 14.8404 48.4719 15.4463 48.3009L14.6313 45.4137ZM14.5762 45.4304L14.5761 45.4305L15.5016 48.2841L15.5017 48.2841L14.5762 45.4304ZM19.5533 44.3698C17.6779 44.5503 16.0528 45.0124 14.6314 45.4137L15.4464 48.3008C16.8886 47.8938 18.2698 47.5072 19.8407 47.356L19.5533 44.3698ZM30.215 45.9362C25.614 44.4298 22.3385 44.1018 19.5533 44.3698L19.8407 47.356C22.1189 47.1368 24.9716 47.3761 29.2815 48.7873L30.215 45.9362ZM46.456 45.5409C43.5001 47.0656 38.3101 48.5868 30.215 45.9362L29.2815 48.7873C38.1779 51.7002 44.1979 50.0812 47.8313 48.2071L46.456 45.5409ZM49.6892 46.5736C49.0815 45.3956 47.634 44.9332 46.456 45.5409L47.8313 48.2071C47.5368 48.359 47.1749 48.2434 47.023 47.9489L49.6892 46.5736ZM48.6564 49.8068C49.8344 49.1991 50.2968 47.7516 49.6892 46.5736L47.023 47.9489C46.871 47.6544 46.9867 47.2925 47.2811 47.1406L48.6564 49.8068ZM28.7214 50.4979C38.0987 53.5683 44.6167 51.8905 48.6564 49.8068L47.2811 47.1406C43.9187 48.875 38.2307 50.4548 29.6549 47.6469L28.7214 50.4979ZM20.0131 49.1478C21.9872 48.9578 24.5862 49.144 28.7214 50.4979L29.6549 47.6469C25.2286 46.1976 22.2067 45.9228 19.7257 46.1616L20.0131 49.1478ZM16.1117 49.9865C17.4732 49.6008 18.6056 49.2832 20.0131 49.1478L19.7257 46.1616C18.0153 46.3262 16.6427 46.7181 15.2941 47.1001L16.1117 49.9865ZM16.2155 49.953L16.2155 49.953L15.1903 47.1336L15.1902 47.1336L16.2155 49.953Z" fill="#F8F9FA" mask="url(#path-1-outside-1_50_8311)"/>
<path d="M13.4438 48.1901C17.7192 47.1618 20.7321 45.3297 29.4683 48.1901C38.2044 51.0506 44.0584 49.4511 47.5563 47.6469" stroke="#212529" stroke-width="1.8" stroke-linecap="round"/>
<path d="M13.4438 43.5026C17.7192 42.4743 20.7321 40.6422 29.4683 43.5026C32.2314 44.4074 34.7062 44.8659 36.9094 45.013M40.0023 45.0174C43.2235 44.8012 45.716 43.9086 47.5563 42.9594" stroke="#212529" stroke-width="1.8" stroke-linecap="round"/>
<path d="M13.4438 38.8151C16.4079 38.1022 18.7652 37.0029 22.8437 37.3489M25.9401 37.835C27.0057 38.0707 28.1742 38.3914 29.4683 38.8151C38.2044 41.6756 44.0584 40.0761 47.5563 38.2719" stroke="#212529" stroke-width="1.8" stroke-linecap="round"/>
<path fill-rule="evenodd" clip-rule="evenodd" d="M28.4799 9.10938C23.3726 9.10938 18.1117 12.3947 17.7598 20.1097C17.7598 20.1097 12.0276 21.3796 12.0276 26.5059C12.0276 28.7783 12.8501 32.7275 18.6488 32.7275C24.4476 32.7275 37.8243 32.7275 40.9878 32.7275C44.1513 32.7275 48.9726 30.8177 48.9726 24.8552C48.9726 18.8927 43.3901 16.5437 39.1503 16.5437C37.3197 11.6615 33.5871 9.10938 28.4799 9.10938Z" fill="#F8F0FC" stroke="#212529" stroke-width="2" stroke-linecap="round" stroke-linejoin="round"/>
<g style="mix-blend-mode:multiply" opacity="0.3">
<path fill-rule="evenodd" clip-rule="evenodd" d="M21.8037 31.7509H38.4771C41.2355 31.7509 45.4396 29.9833 45.4396 24.4645C45.4396 18.9458 40.5718 16.7717 36.8749 16.7717C35.4629 12.7743 32.7531 10.4646 29.0639 9.9847C29.5117 9.92162 29.9627 9.89062 30.4123 9.89062C34.8657 9.89062 38.1204 12.2528 39.7166 16.7717C43.4136 16.7717 48.2814 18.9458 48.2814 24.4646C48.2814 29.9833 44.0773 31.751 41.3188 31.751H21.84C21.8279 31.751 21.8158 31.7509 21.8037 31.7509Z" fill="#F8F0FC"/>
</g>
<g style="mix-blend-mode:soft-light" opacity="0.4">
<path d="M22.1661 14.6659C22.312 10.3363 26.0782 7.14581 27.943 6.0918C22.2512 7.16205 20.7067 13.0646 20.6459 15.8821L22.1661 14.6659Z" fill="#F8F9FA"/>
</g>
</svg>
