<svg width="60" height="60" viewBox="0 0 60 60" fill="none" xmlns="http://www.w3.org/2000/svg">
<mask id="path-1-outside-1_50_6986" maskUnits="userSpaceOnUse" x="7.15662" y="6.97314" width="46" height="46" fill="black">
<rect fill="white" x="7.15662" y="6.97314" width="46" height="46"/>
<path fill-rule="evenodd" clip-rule="evenodd" d="M34.1896 11.6504C35.8402 10.9801 37.4222 10.5036 39.1729 10.5815C40.9129 10.6589 42.9052 11.2891 45.3494 12.988C47.9404 14.7889 48.983 17.3117 49.1994 19.7977C49.4181 22.3092 48.7855 24.7435 48.0667 26.2225C47.4873 27.4148 45.5269 30.4405 42.9546 33.7815C40.3881 37.1149 37.2782 40.6757 34.4287 42.9678C33.7697 43.4979 32.7525 44.02 31.7553 44.2376C30.732 44.4609 29.9599 44.3232 29.5164 43.8797C29.5131 43.8764 29.5097 43.8731 29.5063 43.8698C29.504 43.8675 29.5016 43.8652 29.4992 43.8629L14.4525 29.6956C13.9801 28.232 13.5383 26.0157 13.6706 23.9263C13.8089 21.7447 14.5498 19.9086 16.28 19.019C17.1919 18.5501 17.857 18.4773 18.3384 18.5729C18.8134 18.6673 19.225 18.9485 19.5903 19.4199C20.3539 20.4054 20.7767 22.0472 20.9637 23.6153C21.057 24.3974 22.139 24.7646 22.6235 23.9898C23.804 22.1022 25.86 19.3404 28.0666 16.8717C29.1688 15.6387 30.2981 14.4906 31.3647 13.5661C32.4427 12.6317 33.4101 11.967 34.1896 11.6504ZM46.2626 11.6742C43.6278 9.84285 41.3491 9.07671 39.244 8.98305C37.1497 8.88985 35.3125 9.46751 33.5876 10.168C32.5641 10.5837 31.4389 11.3844 30.3167 12.3571C29.1832 13.3396 28.0048 14.5401 26.8737 15.8054C25.1325 17.7534 23.4787 19.883 22.2467 21.6608C21.9749 20.4987 21.541 19.3253 20.855 18.4399C20.3167 17.7452 19.5937 17.191 18.6502 17.0036C17.713 16.8174 16.6757 17.0165 15.5484 17.5961C13.084 18.8632 12.2272 21.4049 12.0738 23.8252C11.9197 26.2577 12.4527 28.7773 12.9909 30.3721C13.0402 30.5183 13.1238 30.6422 13.2264 30.7388L13.2264 30.7388L13.4778 30.9755C12.9519 31.0991 12.456 31.3758 12.0621 31.8029L9.89822 34.1496C8.84991 35.2864 8.92166 37.0578 10.0585 38.1061L23.2661 50.2854C24.4029 51.3337 26.1743 51.2619 27.2226 50.1251L29.3865 47.7785C29.8825 47.2406 30.1278 46.5607 30.1281 45.8825C30.7861 45.9938 31.4726 45.937 32.0964 45.8009C33.3482 45.5277 34.5897 44.8917 35.4316 44.2145C38.4296 41.8029 41.631 38.1233 44.2223 34.7576C46.8078 31.3996 48.8518 28.2676 49.5058 26.9218C50.3372 25.2111 51.0398 22.4887 50.7934 19.659C50.5448 16.8038 49.3222 13.8009 46.2626 11.6742ZM13.2384 32.8876C13.6876 32.4004 14.4468 32.3696 14.934 32.8189L28.1416 44.9982C28.6288 45.4474 28.6596 46.2066 28.2103 46.6938L26.0464 49.0405C25.5971 49.5277 24.8379 49.5584 24.3507 49.1091L11.1431 36.9299C10.6559 36.4806 10.6252 35.7214 11.0745 35.2342L13.2384 32.8876Z"/>
</mask>
<path fill-rule="evenodd" clip-rule="evenodd" d="M34.1896 11.6504C35.8402 10.9801 37.4222 10.5036 39.1729 10.5815C40.9129 10.6589 42.9052 11.2891 45.3494 12.988C47.9404 14.7889 48.983 17.3117 49.1994 19.7977C49.4181 22.3092 48.7855 24.7435 48.0667 26.2225C47.4873 27.4148 45.5269 30.4405 42.9546 33.7815C40.3881 37.1149 37.2782 40.6757 34.4287 42.9678C33.7697 43.4979 32.7525 44.02 31.7553 44.2376C30.732 44.4609 29.9599 44.3232 29.5164 43.8797C29.5131 43.8764 29.5097 43.8731 29.5063 43.8698C29.504 43.8675 29.5016 43.8652 29.4992 43.8629L14.4525 29.6956C13.9801 28.232 13.5383 26.0157 13.6706 23.9263C13.8089 21.7447 14.5498 19.9086 16.28 19.019C17.1919 18.5501 17.857 18.4773 18.3384 18.5729C18.8134 18.6673 19.225 18.9485 19.5903 19.4199C20.3539 20.4054 20.7767 22.0472 20.9637 23.6153C21.057 24.3974 22.139 24.7646 22.6235 23.9898C23.804 22.1022 25.86 19.3404 28.0666 16.8717C29.1688 15.6387 30.2981 14.4906 31.3647 13.5661C32.4427 12.6317 33.4101 11.967 34.1896 11.6504ZM46.2626 11.6742C43.6278 9.84285 41.3491 9.07671 39.244 8.98305C37.1497 8.88985 35.3125 9.46751 33.5876 10.168C32.5641 10.5837 31.4389 11.3844 30.3167 12.3571C29.1832 13.3396 28.0048 14.5401 26.8737 15.8054C25.1325 17.7534 23.4787 19.883 22.2467 21.6608C21.9749 20.4987 21.541 19.3253 20.855 18.4399C20.3167 17.7452 19.5937 17.191 18.6502 17.0036C17.713 16.8174 16.6757 17.0165 15.5484 17.5961C13.084 18.8632 12.2272 21.4049 12.0738 23.8252C11.9197 26.2577 12.4527 28.7773 12.9909 30.3721C13.0402 30.5183 13.1238 30.6422 13.2264 30.7388L13.2264 30.7388L13.4778 30.9755C12.9519 31.0991 12.456 31.3758 12.0621 31.8029L9.89822 34.1496C8.84991 35.2864 8.92166 37.0578 10.0585 38.1061L23.2661 50.2854C24.4029 51.3337 26.1743 51.2619 27.2226 50.1251L29.3865 47.7785C29.8825 47.2406 30.1278 46.5607 30.1281 45.8825C30.7861 45.9938 31.4726 45.937 32.0964 45.8009C33.3482 45.5277 34.5897 44.8917 35.4316 44.2145C38.4296 41.8029 41.631 38.1233 44.2223 34.7576C46.8078 31.3996 48.8518 28.2676 49.5058 26.9218C50.3372 25.2111 51.0398 22.4887 50.7934 19.659C50.5448 16.8038 49.3222 13.8009 46.2626 11.6742ZM13.2384 32.8876C13.6876 32.4004 14.4468 32.3696 14.934 32.8189L28.1416 44.9982C28.6288 45.4474 28.6596 46.2066 28.2103 46.6938L26.0464 49.0405C25.5971 49.5277 24.8379 49.5584 24.3507 49.1091L11.1431 36.9299C10.6559 36.4806 10.6252 35.7214 11.0745 35.2342L13.2384 32.8876Z" fill="#F8F9FA"/>
<path d="M39.1729 10.5815L39.1062 12.08L39.1062 12.08L39.1729 10.5815ZM34.1896 11.6504L34.754 13.0402L34.754 13.0402L34.1896 11.6504ZM45.3494 12.988L44.4933 14.2197L44.4933 14.2197L45.3494 12.988ZM49.1994 19.7977L47.7051 19.9278L47.7051 19.9278L49.1994 19.7977ZM48.0667 26.2225L46.7176 25.5668L46.7176 25.5668L48.0667 26.2225ZM42.9546 33.7815L41.766 32.8664L41.766 32.8664L42.9546 33.7815ZM34.4287 42.9678L35.3689 44.1366L35.3689 44.1366L34.4287 42.9678ZM31.7553 44.2376L32.0751 45.7032L32.0751 45.7032L31.7553 44.2376ZM29.5164 43.8797L30.5771 42.819L30.5768 42.8187L29.5164 43.8797ZM29.5063 43.8698L28.464 44.9484L28.4643 44.9488L29.5063 43.8698ZM29.4992 43.8629L28.4709 44.955L28.4714 44.9555L29.4992 43.8629ZM14.4525 29.6956L13.025 30.1564C13.1027 30.3971 13.24 30.6143 13.4242 30.7877L14.4525 29.6956ZM13.6706 23.9263L15.1676 24.0212L13.6706 23.9263ZM16.28 19.019L16.9659 20.353L16.9659 20.353L16.28 19.019ZM18.3384 18.5729L18.6307 17.1017L18.6307 17.1017L18.3384 18.5729ZM19.5903 19.4199L20.776 18.5012L20.776 18.5012L19.5903 19.4199ZM20.9637 23.6153L19.4743 23.793L19.4743 23.793L20.9637 23.6153ZM22.6235 23.9898L21.3517 23.1945L21.3517 23.1945L22.6235 23.9898ZM28.0666 16.8717L29.185 17.8714L29.185 17.8714L28.0666 16.8717ZM31.3647 13.5661L30.3822 12.4326L30.3822 12.4326L31.3647 13.5661ZM39.244 8.98305L39.1774 10.4816L39.1774 10.4816L39.244 8.98305ZM46.2626 11.6742L47.1187 10.4425L47.1187 10.4425L46.2626 11.6742ZM33.5876 10.168L34.152 11.5578L33.5876 10.168ZM30.3167 12.3571L31.2992 13.4905L31.2992 13.4905L30.3167 12.3571ZM26.8737 15.8054L27.9921 16.8051L27.9921 16.8051L26.8737 15.8054ZM22.2467 21.6608L20.7861 22.0024C20.9212 22.5798 21.3837 23.0234 21.9662 23.1343C22.5487 23.2452 23.1418 23.0025 23.4796 22.5151L22.2467 21.6608ZM20.855 18.4399L19.6693 19.3587L19.6693 19.3587L20.855 18.4399ZM18.6502 17.0036L18.9424 15.5323L18.9424 15.5323L18.6502 17.0036ZM15.5484 17.5961L14.8625 16.2621L14.8625 16.2621L15.5484 17.5961ZM12.0738 23.8252L13.5708 23.92L13.5708 23.92L12.0738 23.8252ZM12.9909 30.3721L14.4122 29.8926L14.4122 29.8925L12.9909 30.3721ZM13.2264 30.7388L14.2769 29.6681C14.2695 29.6609 14.2621 29.6538 14.2547 29.6467L13.2264 30.7388ZM13.2264 30.7388L12.1759 31.8095C12.1832 31.8167 12.1906 31.8238 12.1981 31.8309L13.2264 30.7388ZM13.4778 30.9755L13.8208 32.4358C14.3585 32.3095 14.7833 31.898 14.9265 31.3645C15.0698 30.8311 14.9082 30.2621 14.5061 29.8835L13.4778 30.9755ZM12.0621 31.8029L13.1649 32.8198L13.1649 32.8198L12.0621 31.8029ZM9.89822 34.1496L11.0009 35.1664L11.0009 35.1664L9.89822 34.1496ZM10.0585 38.1061L9.04162 39.2088L9.04162 39.2088L10.0585 38.1061ZM23.2661 50.2854L24.2829 49.1826L24.2829 49.1826L23.2661 50.2854ZM27.2226 50.1251L26.1199 49.1082L26.1199 49.1082L27.2226 50.1251ZM29.3865 47.7785L30.4893 48.7953L30.4893 48.7953L29.3865 47.7785ZM30.1281 45.8825L30.3784 44.4035C29.9432 44.3298 29.4976 44.4516 29.1603 44.7365C28.823 45.0213 28.6284 45.4403 28.6281 45.8817L30.1281 45.8825ZM32.0964 45.8009L32.4162 47.2664L32.4162 47.2664L32.0964 45.8009ZM35.4316 44.2145L34.4914 43.0457L34.4914 43.0457L35.4316 44.2145ZM44.2223 34.7576L45.4109 35.6727L45.4109 35.6727L44.2223 34.7576ZM49.5058 26.9218L50.8549 27.5775L50.8549 27.5775L49.5058 26.9218ZM50.7934 19.659L49.2991 19.7891L49.2991 19.7891L50.7934 19.659ZM14.934 32.8189L15.9509 31.7162L15.9509 31.7162L14.934 32.8189ZM13.2384 32.8876L12.1357 31.8707L12.1357 31.8707L13.2384 32.8876ZM28.1416 44.9982L27.1248 46.1009L27.1248 46.1009L28.1416 44.9982ZM28.2103 46.6938L29.313 47.7107L29.313 47.7107L28.2103 46.6938ZM26.0464 49.0405L27.1491 50.0573L27.1491 50.0573L26.0464 49.0405ZM24.3507 49.1091L23.3339 50.2119L23.3339 50.2119L24.3507 49.1091ZM11.1431 36.9299L12.16 35.8272L12.16 35.8272L11.1431 36.9299ZM11.0745 35.2342L12.1772 36.2511L12.1772 36.2511L11.0745 35.2342ZM39.2396 9.08295C37.1666 8.9907 35.3452 9.56214 33.6252 10.2607L34.754 13.0402C36.3352 12.398 37.6779 12.0164 39.1062 12.08L39.2396 9.08295ZM46.2055 11.7563C43.5825 9.93318 41.3218 9.1756 39.2396 9.08295L39.1062 12.08C40.504 12.1422 42.2278 12.6451 44.4933 14.2197L46.2055 11.7563ZM50.6938 19.6676C50.4472 16.8349 49.2354 13.8623 46.2055 11.7563L44.4933 14.2197C46.6454 15.7156 47.5188 17.7884 47.7051 19.9278L50.6938 19.6676ZM49.4159 26.8781C50.2402 25.1819 50.9384 22.4774 50.6938 19.6676L47.7051 19.9278C47.8978 22.1411 47.3307 24.3052 46.7176 25.5668L49.4159 26.8781ZM44.1431 34.6966C46.7277 31.3397 48.7665 28.2144 49.4159 26.8781L46.7176 25.5668C46.2081 26.6152 44.3261 29.5414 41.766 32.8664L44.1431 34.6966ZM35.3689 44.1366C38.3576 41.7325 41.5533 38.0602 44.1431 34.6966L41.766 32.8664C39.2228 36.1696 36.1987 39.619 33.4886 41.799L35.3689 44.1366ZM32.0751 45.7032C33.311 45.4335 34.5384 44.8046 35.3689 44.1366L33.4886 41.799C33.0011 42.1912 32.1941 42.6066 31.4355 42.7721L32.0751 45.7032ZM28.4558 44.9403C29.4348 45.9194 30.8543 45.9696 32.0751 45.7032L31.4355 42.7721C31.0541 42.8554 30.803 42.8518 30.6621 42.8286C30.5306 42.807 30.5348 42.7768 30.5771 42.819L28.4558 44.9403ZM28.4643 44.9488C28.4618 44.9463 28.459 44.9436 28.4561 44.9407L30.5768 42.8187C30.5672 42.8091 30.5577 42.7998 30.5483 42.7908L28.4643 44.9488ZM28.4714 44.9555C28.4691 44.9533 28.4666 44.951 28.464 44.9484L30.5487 42.7911C30.5413 42.784 30.534 42.7771 30.5269 42.7703L28.4714 44.9555ZM13.4242 30.7877L28.4709 44.955L30.5274 42.7708L15.4807 28.6035L13.4242 30.7877ZM12.1736 23.8315C12.0261 26.1607 12.5133 28.5709 13.025 30.1564L15.88 29.2349C15.4469 27.8932 15.0505 25.8706 15.1676 24.0212L12.1736 23.8315ZM15.5941 17.685C13.1778 18.9274 12.3263 21.4224 12.1736 23.8315L15.1676 24.0212C15.2914 22.067 15.9218 20.8898 16.9659 20.353L15.5941 17.685ZM18.6307 17.1017C17.7227 16.9213 16.7088 17.1119 15.5941 17.685L16.9659 20.353C17.6751 19.9884 17.9913 20.0333 18.0462 20.0442L18.6307 17.1017ZM20.776 18.5012C20.2475 17.8191 19.5436 17.283 18.6307 17.1017L18.0462 20.0442C18.0832 20.0515 18.2026 20.078 18.4046 20.3387L20.776 18.5012ZM22.4532 23.4377C22.2597 21.816 21.8022 19.8256 20.776 18.5012L18.4046 20.3387C18.9056 20.9853 19.2936 22.2783 19.4743 23.793L22.4532 23.4377ZM21.3517 23.1945C21.3996 23.118 21.502 23.0161 21.6595 22.9587C21.8053 22.9056 21.9398 22.9117 22.0386 22.9384C22.2084 22.9844 22.4182 23.1443 22.4532 23.4377L19.4743 23.793C19.6025 24.8684 20.3999 25.603 21.2552 25.8343C22.1757 26.0834 23.271 25.7836 23.8953 24.7852L21.3517 23.1945ZM26.9483 15.8721C24.6918 18.3965 22.5827 21.2261 21.3517 23.1945L23.8953 24.7852C25.0252 22.9784 27.0281 20.2843 29.185 17.8714L26.9483 15.8721ZM30.3822 12.4326C29.2529 13.4116 28.0775 14.6088 26.9483 15.8721L29.185 17.8714C30.2601 16.6686 31.3434 15.5696 32.3472 14.6996L30.3822 12.4326ZM33.6252 10.2607C32.6168 10.6702 31.5014 11.4626 30.3822 12.4326L32.3472 14.6996C33.384 13.8009 34.2034 13.2638 34.754 13.0402L33.6252 10.2607ZM39.1774 10.4816C40.9401 10.56 42.9502 11.1987 45.4065 12.9059L47.1187 10.4425C44.3053 8.48704 41.7582 7.59343 39.3107 7.48453L39.1774 10.4816ZM34.152 11.5578C35.807 10.8856 37.4051 10.4027 39.1774 10.4816L39.3107 7.48453C36.8943 7.37701 34.8179 8.04938 33.0232 8.77823L34.152 11.5578ZM31.2992 13.4905C32.3798 12.5539 33.3571 11.8806 34.152 11.5578L33.0232 8.77823C31.7711 9.28673 30.498 10.2149 29.3343 11.2236L31.2992 13.4905ZM27.9921 16.8051C29.0961 15.57 30.2284 14.4187 31.2992 13.4905L29.3343 11.2236C28.1379 12.2606 26.9135 13.5101 25.7554 14.8058L27.9921 16.8051ZM23.4796 22.5151C24.6778 20.7861 26.2936 18.7052 27.9921 16.8051L25.7554 14.8058C23.9715 16.8015 22.2796 18.9799 21.0138 20.8064L23.4796 22.5151ZM19.6693 19.3587C20.1671 20.0011 20.537 20.9373 20.7861 22.0024L23.7073 21.3191C23.4127 20.0601 22.915 18.6495 22.0407 17.5212L19.6693 19.3587ZM18.3579 18.4748C18.8615 18.5749 19.2927 18.8726 19.6693 19.3587L22.0407 17.5212C21.3407 16.6177 20.3259 15.8071 18.9424 15.5323L18.3579 18.4748ZM16.2343 18.9301C17.1603 18.454 17.8485 18.3736 18.3579 18.4748L18.9424 15.5323C17.5775 15.2612 16.1911 15.579 14.8625 16.2621L16.2343 18.9301ZM13.5708 23.92C13.7102 21.7206 14.4599 19.8424 16.2343 18.9301L14.8625 16.2621C11.7082 17.884 10.7442 21.0893 10.5768 23.7303L13.5708 23.92ZM14.4122 29.8925C13.9172 28.4256 13.4323 26.1059 13.5708 23.92L10.5768 23.7303C10.4071 26.4094 10.9883 29.129 11.5696 30.8517L14.4122 29.8925ZM14.2547 29.6467C14.3219 29.71 14.3787 29.7934 14.4122 29.8926L11.5696 30.8517C11.7017 31.2432 11.9257 31.5743 12.198 31.8308L14.2547 29.6467ZM14.2769 29.6681L14.2769 29.6681L12.1758 31.8095L12.1759 31.8095L14.2769 29.6681ZM14.5061 29.8835L14.2547 29.6467L12.1981 31.8309L12.4496 32.0676L14.5061 29.8835ZM13.1649 32.8198C13.3491 32.62 13.5775 32.493 13.8208 32.4358L13.1349 29.5153C12.3263 29.7052 11.5628 30.1317 10.9594 30.7861L13.1649 32.8198ZM11.0009 35.1664L13.1649 32.8198L10.9594 30.7861L8.7955 33.1327L11.0009 35.1664ZM11.0753 37.0034C10.5475 36.5167 10.5142 35.6942 11.0009 35.1664L8.7955 33.1327C7.18559 34.8785 7.29578 37.5989 9.04162 39.2088L11.0753 37.0034ZM24.2829 49.1826L11.0753 37.0034L9.04162 39.2088L22.2492 51.3881L24.2829 49.1826ZM26.1199 49.1082C25.6332 49.6361 24.8108 49.6694 24.2829 49.1826L22.2492 51.3881C23.9951 52.998 26.7154 52.8878 28.3253 51.142L26.1199 49.1082ZM28.2838 46.7616L26.1199 49.1082L28.3253 51.142L30.4893 48.7953L28.2838 46.7616ZM28.6281 45.8817C28.628 46.1982 28.5147 46.5113 28.2838 46.7616L30.4893 48.7953C31.2504 47.9699 31.6276 46.9231 31.6281 45.8832L28.6281 45.8817ZM31.7766 44.3353C31.2793 44.4439 30.7943 44.4739 30.3784 44.4035L29.8779 47.3614C30.778 47.5138 31.6658 47.4301 32.4162 47.2664L31.7766 44.3353ZM34.4914 43.0457C33.821 43.585 32.7897 44.1143 31.7766 44.3354L32.4162 47.2664C33.9067 46.9411 35.3584 46.1984 36.3717 45.3833L34.4914 43.0457ZM43.0338 33.8425C40.4658 37.1779 37.3502 40.7462 34.4914 43.0457L36.3717 45.3833C39.509 42.8597 42.7962 39.0687 45.4109 35.6727L43.0338 33.8425ZM48.1567 26.2662C47.5725 27.4681 45.6069 30.5006 43.0338 33.8425L45.4109 35.6727C48.0087 32.2986 50.131 29.0671 50.8549 27.5775L48.1567 26.2662ZM49.2991 19.7891C49.5194 22.3204 48.8825 24.7727 48.1567 26.2662L50.8549 27.5775C51.7919 25.6495 52.5601 22.657 52.2878 19.5289L49.2991 19.7891ZM45.4065 12.9059C48.0264 14.7269 49.0806 17.2794 49.2991 19.7891L52.2878 19.5289C52.0091 16.3283 50.6181 12.8748 47.1187 10.4425L45.4065 12.9059ZM15.9509 31.7162C14.8547 30.7053 13.1465 30.7745 12.1357 31.8707L14.3411 33.9044C14.2288 34.0263 14.039 34.0339 13.9172 33.9216L15.9509 31.7162ZM29.1585 43.8954L15.9509 31.7162L13.9172 33.9216L27.1248 46.1009L29.1585 43.8954ZM29.313 47.7107C30.3239 46.6145 30.2547 44.9063 29.1585 43.8954L27.1248 46.1009C27.003 45.9886 26.9953 45.7988 27.1076 45.677L29.313 47.7107ZM27.1491 50.0573L29.313 47.7107L27.1076 45.677L24.9437 48.0236L27.1491 50.0573ZM23.3339 50.2119C24.4301 51.2227 26.1382 51.1535 27.1491 50.0573L24.9437 48.0236C25.056 47.9018 25.2458 47.8941 25.3676 48.0064L23.3339 50.2119ZM10.1263 38.0326L23.3339 50.2119L25.3676 48.0064L12.16 35.8272L10.1263 38.0326ZM9.97174 34.2173C8.96086 35.3136 9.03005 37.0217 10.1263 38.0326L12.16 35.8272C12.2818 35.9395 12.2895 36.1293 12.1772 36.2511L9.97174 34.2173ZM12.1357 31.8707L9.97174 34.2173L12.1772 36.2511L14.3411 33.9044L12.1357 31.8707Z" fill="#F8F9FA" mask="url(#path-1-outside-1_50_6986)"/>
<path d="M15.9562 18.2815C11.7615 20.4383 12.7606 27.0371 13.7908 30.0903C13.796 30.1058 13.8048 30.1191 13.8167 30.1303L28.9927 44.4193C30.4547 45.8813 33.4712 44.7724 34.9721 43.5651C40.8196 38.8615 47.5947 29.0842 48.8282 26.5461C50.3783 23.3565 51.4986 16.2326 45.8479 12.3051C40.7689 8.77482 37.306 9.51235 33.9305 10.8832C30.3245 12.3476 24.4019 19.6782 21.9872 23.5396C21.9364 23.6209 21.8113 23.5897 21.8 23.4945C21.419 20.3005 20.0344 16.1845 15.9562 18.2815Z" fill="#FF6B6B" stroke="#212529" stroke-width="1.6" stroke-linecap="round" stroke-linejoin="round"/>
<g style="mix-blend-mode:multiply">
<path fill-rule="evenodd" clip-rule="evenodd" d="M13.7063 28.0375C13.8191 28.4869 13.9411 28.8996 14.0635 29.2623C14.0687 29.2778 14.0775 29.2911 14.0894 29.3023L29.2653 43.5913C30.7273 45.0533 33.7439 43.9444 35.2447 42.7371C41.0922 38.0334 47.8673 28.2562 49.1008 25.7181C50.299 23.2526 51.2404 18.4366 48.9965 14.563C50.2472 18.0857 49.402 21.9848 48.3641 24.1203C47.1306 26.6585 40.3555 36.4357 34.508 41.1394C33.0072 42.3466 29.9906 43.4556 28.5286 41.9936L13.7063 28.0375ZM21.7325 20.784C21.6601 20.8965 21.5902 21.0065 21.5231 21.1139C21.4723 21.1951 21.3473 21.1639 21.336 21.0688C21.2325 20.2013 21.055 19.2659 20.7697 18.4055C21.2038 19.08 21.5143 19.9167 21.7325 20.784Z" fill="#DEE2E6"/>
</g>
<rect x="14.048" y="30.8486" width="21.9659" height="7.19204" rx="2" transform="rotate(42.6804 14.048 30.8486)" fill="#FF6B6B" stroke="#212529" stroke-width="1.6" stroke-linejoin="round"/>
<g opacity="0.1">
<path d="M14.8185 34.4009L12.9633 36.3443" stroke="#212529" stroke-linecap="round"/>
<path d="M16.4832 35.9893L14.6279 37.9327" stroke="#212529" stroke-linecap="round"/>
<path d="M18.1473 37.5781L16.2921 39.5216" stroke="#212529" stroke-linecap="round"/>
<path d="M19.8119 39.167L17.9567 41.1104" stroke="#212529" stroke-linecap="round"/>
<path d="M21.4762 40.7559L19.621 42.6993" stroke="#212529" stroke-linecap="round"/>
<path d="M23.1407 42.3447L21.2855 44.2882" stroke="#212529" stroke-linecap="round"/>
<path d="M24.8051 43.9336L22.9498 45.877" stroke="#212529" stroke-linecap="round"/>
<path d="M26.4054 45.5317L24.5502 47.4752" stroke="#212529" stroke-linecap="round"/>
</g>
<path opacity="0.3" d="M32.8338 16.5015H28.3406L26.5172 18.6757L30.7726 18.945C31.036 18.9617 31.241 19.1801 31.241 19.444V22.5177C31.241 22.8012 31.4765 23.028 31.7598 23.0173L35.3862 22.8808C35.6696 22.8702 35.905 23.097 35.905 23.3805V26.2916C35.905 26.5677 36.1289 26.7916 36.405 26.7916H39.8443C40.1007 26.7916 40.3156 26.9856 40.3417 27.2407L40.638 30.1408C40.6634 30.3891 40.868 30.5807 41.1174 30.5897L45.2653 30.7396L46.4888 28.9006H43.2288C42.9622 28.9006 42.7426 28.6916 42.7294 28.4254L42.5659 25.1304C42.5527 24.8642 42.333 24.6552 42.0665 24.6552H38.4979C38.2217 24.6552 37.9979 24.4313 37.9979 24.1552V21.0891C37.9979 20.813 37.774 20.5891 37.4979 20.5891H33.8338C33.5577 20.5891 33.3338 20.3653 33.3338 20.0891V17.0015C33.3338 16.7253 33.11 16.5015 32.8338 16.5015Z" fill="#F1F3F5"/>
<path opacity="0.3" d="M29.2472 20.5552L25.0543 20.4282L23.6918 22.37H27.487C27.7564 22.37 27.9774 22.5835 27.9867 22.8528L28.1022 26.2134C28.1114 26.4827 28.3324 26.6963 28.6019 26.6963H32.1958C32.4719 26.6963 32.6958 26.9201 32.6958 27.1963V30.1965C32.6958 30.4727 32.9197 30.6965 33.1958 30.6965H36.7132C36.9697 30.6965 37.1846 30.8906 37.2106 31.1457L37.5139 34.1131C37.5393 34.3614 37.7438 34.553 37.9932 34.562L42.2228 34.7149L43.5462 32.9951H39.7597C39.4919 32.9951 39.2716 32.784 39.2602 32.5164L39.125 29.3475C39.1136 29.0799 38.8933 28.8688 38.6255 28.8688H34.9792C34.7031 28.8688 34.4792 28.6449 34.4792 28.3688V25.2303C34.4792 24.9541 34.2554 24.7303 33.9792 24.7303H30.2321C29.956 24.7303 29.7321 24.5064 29.7321 24.2303V21.0549C29.7321 20.7847 29.5174 20.5633 29.2472 20.5552Z" fill="#F1F3F5"/>
</svg>
