<svg width="60" height="60" viewBox="0 0 60 60" fill="none" xmlns="http://www.w3.org/2000/svg">
<mask id="path-1-outside-1_50_10547" maskUnits="userSpaceOnUse" x="6.49268" y="7.36816" width="47" height="44" fill="black">
<rect fill="white" x="6.49268" y="7.36816" width="47" height="44"/>
<path fill-rule="evenodd" clip-rule="evenodd" d="M30.2847 9.36816C23.1904 9.36816 17.8791 10.996 14.3169 13.6307C10.7363 16.2791 8.97021 19.9158 8.97021 23.7617V23.8889C8.97021 25.3708 10.0818 26.5931 11.5166 26.7675C11.3605 27.1091 11.2735 27.4888 11.2735 27.8888C11.2735 28.2188 11.3327 28.5349 11.441 28.8272C10.8756 29.4741 10.533 30.3207 10.533 31.2473C10.533 31.4159 10.5444 31.5818 10.5663 31.7443C9.34867 32.3306 8.49268 33.5271 8.49268 34.9486C8.49268 36.1196 9.07653 37.1404 9.96261 37.791C9.80695 38.1467 9.72057 38.5396 9.72057 38.9527L9.72057 39.4846C9.72057 40.8416 9.86065 42.1981 10.4024 43.4498C10.9538 44.7239 11.8934 45.8262 13.3812 46.7151C16.2857 48.4504 21.3122 49.3874 29.8387 49.3875C38.3352 49.3875 43.5505 48.7584 46.6453 47.2037C48.2386 46.4034 49.3028 45.3437 49.9475 43.9945C50.5789 42.6728 50.7702 41.1499 50.7702 39.4846V38.9527C50.7702 38.425 50.6293 37.9303 50.3831 37.5041C51.0724 36.8587 51.5073 35.96 51.5073 34.9486C51.5073 33.5267 50.6516 32.3306 49.4337 31.7444C49.4556 31.5818 49.467 31.4159 49.467 31.2473C49.467 30.5853 49.2921 29.9641 48.986 29.4274C49.2893 28.9909 49.467 28.4606 49.467 27.8888C49.467 27.3887 49.331 26.9204 49.094 26.5188C50.0841 26.0573 50.7702 25.0532 50.7702 23.8889V23.7617C50.7702 17.4929 44.5691 9.36816 30.2847 9.36816ZM47.1392 30.5634C47.4009 30.5273 47.6506 30.4537 47.8828 30.3482C48.0013 30.6241 48.067 30.928 48.067 31.2473C48.067 31.2889 48.0659 31.3302 48.0637 31.3712C48.0434 31.3695 48.0232 31.3679 48.0028 31.3665C47.7425 31.0682 47.4531 30.7985 47.1392 30.5634ZM12.2995 30.0074C12.4926 30.1602 12.7071 30.2872 12.9378 30.3831C12.5714 30.6257 12.2343 30.9137 11.933 31.2389C11.9347 30.7848 12.0691 30.3621 12.2995 30.0074ZM10.7702 23.7617C10.7702 20.5127 12.2442 17.4027 15.3873 15.0779C18.5487 12.7396 23.4447 11.1682 30.2847 11.1682C43.8689 11.1682 48.9702 18.7574 48.9702 23.7617V23.8889C48.9702 24.4964 48.4777 24.9889 47.8702 24.9889H11.8702C11.2627 24.9889 10.7702 24.4964 10.7702 23.8889V23.7617ZM12.7083 32.4874C12.6392 32.5768 12.5505 32.6469 12.4505 32.6935C12.8685 33.2021 13.5025 33.5265 14.2122 33.5265H32.7788C33.7176 33.5265 34.4788 34.2876 34.4788 35.2265V35.6414C34.4788 35.7871 34.5077 35.926 34.5601 36.0527H36.5501C36.6025 35.926 36.6315 35.7871 36.6315 35.6414V35.2265C36.6315 34.2876 37.3926 33.5265 38.3315 33.5265H39.3895C39.9225 33.5265 40.3547 33.9587 40.3547 34.4918C40.3547 35.0862 40.8366 35.5681 41.4311 35.5681C42.0255 35.5681 42.5074 35.0862 42.5074 34.4918C42.5074 33.9587 42.9396 33.5265 43.4726 33.5265H45.7878C46.4756 33.5265 47.0922 33.2219 47.5101 32.7401C47.3536 32.7046 47.2121 32.6157 47.1117 32.4861C46.362 31.518 45.2741 30.9305 44.0831 30.9305C43.9617 30.9305 43.8417 30.9366 43.7234 30.9484C43.6416 30.9566 43.5599 30.9503 43.4819 30.9305H17.5139C17.491 30.9527 17.4666 30.9734 17.4406 30.9925C17.2609 31.1243 17.0291 31.1628 16.8165 31.0959C16.4736 30.9881 16.1121 30.9305 15.738 30.9305C14.5465 30.9305 13.4581 31.5186 12.7083 32.4874ZM9.89268 34.9486C9.89268 34.1799 10.3343 33.4754 11.0226 33.0824C11.6581 34.1846 12.8485 34.9265 14.2122 34.9265H32.7788C32.9444 34.9265 33.0788 35.0608 33.0788 35.2265V35.6414C33.0788 35.7815 33.0904 35.9189 33.1127 36.0527L12.6206 36.0527C11.9385 36.0527 11.3114 36.2881 10.8162 36.6823C10.2458 36.2748 9.89268 35.639 9.89268 34.9486ZM19.87 37.8527L34.4391 37.8527C34.7745 38.0222 35.1536 38.1178 35.5551 38.1178C35.9566 38.1178 36.3357 38.0222 36.6711 37.8527H39.1255C38.4045 39.1836 37.1171 40.0305 35.6915 40.0305C34.8628 40.0305 34.0886 39.7472 33.4411 39.2519C33.1901 39.0598 32.8415 39.0598 32.5904 39.2519C31.943 39.7472 31.1688 40.0305 30.34 40.0305C29.2137 40.0305 28.181 39.5056 27.4377 38.6306C27.3047 38.4741 27.1097 38.3838 26.9042 38.3838C26.6988 38.3838 26.5038 38.4741 26.3708 38.6306C25.6275 39.5056 24.5947 40.0305 23.4684 40.0305C22.1414 40.0305 20.9386 39.2994 20.1945 38.1252C20.1159 38.0011 20.0017 37.907 19.87 37.8527ZM39.5085 36.0527H37.9975C38.0198 35.9189 38.0315 35.7815 38.0315 35.6414V35.2265C38.0315 35.0608 38.1658 34.9265 38.3315 34.9265H38.9927C39.0675 35.3485 39.249 35.7335 39.5085 36.0527ZM43.8694 34.9265C43.7946 35.3485 43.6131 35.7335 43.3536 36.0527H47.8702C48.4369 36.0527 48.9656 36.2152 49.4123 36.4962C49.8467 36.0938 50.1073 35.5409 50.1073 34.9486C50.1073 34.1803 49.6655 33.4754 48.9774 33.0823C48.3419 34.1846 47.1515 34.9265 45.7878 34.9265H43.8694ZM11.5206 39.2229C12.5044 40.5551 14.0141 41.4305 15.738 41.4305C17.2658 41.4305 18.6289 40.7407 19.6032 39.6559C20.5775 40.7407 21.9407 41.4305 23.4684 41.4305C24.7817 41.4305 25.9761 40.9196 26.9042 40.0859C27.8324 40.9196 29.0267 41.4305 30.34 41.4305C31.3163 41.4305 32.2295 41.1475 33.0158 40.658C33.802 41.1475 34.7152 41.4305 35.6915 41.4305C37.4024 41.4305 38.9032 40.5676 39.8873 39.2522C40.8714 40.5676 42.3722 41.4305 44.0831 41.4305C46.1447 41.4305 47.9003 40.1784 48.8159 38.3904C48.9139 38.5549 48.9702 38.7472 48.9702 38.9527V39.4846C48.9702 41.0373 48.7866 42.2487 48.3233 43.2185C47.8732 44.1606 47.123 44.9494 45.8373 45.5953C43.1742 46.9331 38.3738 47.5875 29.8387 47.5874C21.3336 47.5874 16.7511 46.6317 14.3044 45.1699C13.1166 44.4603 12.4451 43.638 12.0543 42.7349C11.6538 41.8095 11.5206 40.7363 11.5206 39.4846V39.2229ZM12.3258 37.8926C12.4196 37.8666 12.5185 37.8527 12.6206 37.8527H19.3365C19.2047 37.907 19.0906 38.0011 19.0119 38.1252C18.2679 39.2994 17.0651 40.0305 15.738 40.0305C14.327 40.0305 13.0502 39.2001 12.3258 37.8926ZM40.6491 37.8527H47.5171C46.7966 39.1833 45.5085 40.0305 44.0831 40.0305C42.6575 40.0305 41.3701 39.1836 40.6491 37.8527Z"/>
</mask>
<path fill-rule="evenodd" clip-rule="evenodd" d="M30.2847 9.36816C23.1904 9.36816 17.8791 10.996 14.3169 13.6307C10.7363 16.2791 8.97021 19.9158 8.97021 23.7617V23.8889C8.97021 25.3708 10.0818 26.5931 11.5166 26.7675C11.3605 27.1091 11.2735 27.4888 11.2735 27.8888C11.2735 28.2188 11.3327 28.5349 11.441 28.8272C10.8756 29.4741 10.533 30.3207 10.533 31.2473C10.533 31.4159 10.5444 31.5818 10.5663 31.7443C9.34867 32.3306 8.49268 33.5271 8.49268 34.9486C8.49268 36.1196 9.07653 37.1404 9.96261 37.791C9.80695 38.1467 9.72057 38.5396 9.72057 38.9527L9.72057 39.4846C9.72057 40.8416 9.86065 42.1981 10.4024 43.4498C10.9538 44.7239 11.8934 45.8262 13.3812 46.7151C16.2857 48.4504 21.3122 49.3874 29.8387 49.3875C38.3352 49.3875 43.5505 48.7584 46.6453 47.2037C48.2386 46.4034 49.3028 45.3437 49.9475 43.9945C50.5789 42.6728 50.7702 41.1499 50.7702 39.4846V38.9527C50.7702 38.425 50.6293 37.9303 50.3831 37.5041C51.0724 36.8587 51.5073 35.96 51.5073 34.9486C51.5073 33.5267 50.6516 32.3306 49.4337 31.7444C49.4556 31.5818 49.467 31.4159 49.467 31.2473C49.467 30.5853 49.2921 29.9641 48.986 29.4274C49.2893 28.9909 49.467 28.4606 49.467 27.8888C49.467 27.3887 49.331 26.9204 49.094 26.5188C50.0841 26.0573 50.7702 25.0532 50.7702 23.8889V23.7617C50.7702 17.4929 44.5691 9.36816 30.2847 9.36816ZM47.1392 30.5634C47.4009 30.5273 47.6506 30.4537 47.8828 30.3482C48.0013 30.6241 48.067 30.928 48.067 31.2473C48.067 31.2889 48.0659 31.3302 48.0637 31.3712C48.0434 31.3695 48.0232 31.3679 48.0028 31.3665C47.7425 31.0682 47.4531 30.7985 47.1392 30.5634ZM12.2995 30.0074C12.4926 30.1602 12.7071 30.2872 12.9378 30.3831C12.5714 30.6257 12.2343 30.9137 11.933 31.2389C11.9347 30.7848 12.0691 30.3621 12.2995 30.0074ZM10.7702 23.7617C10.7702 20.5127 12.2442 17.4027 15.3873 15.0779C18.5487 12.7396 23.4447 11.1682 30.2847 11.1682C43.8689 11.1682 48.9702 18.7574 48.9702 23.7617V23.8889C48.9702 24.4964 48.4777 24.9889 47.8702 24.9889H11.8702C11.2627 24.9889 10.7702 24.4964 10.7702 23.8889V23.7617ZM12.7083 32.4874C12.6392 32.5768 12.5505 32.6469 12.4505 32.6935C12.8685 33.2021 13.5025 33.5265 14.2122 33.5265H32.7788C33.7176 33.5265 34.4788 34.2876 34.4788 35.2265V35.6414C34.4788 35.7871 34.5077 35.926 34.5601 36.0527H36.5501C36.6025 35.926 36.6315 35.7871 36.6315 35.6414V35.2265C36.6315 34.2876 37.3926 33.5265 38.3315 33.5265H39.3895C39.9225 33.5265 40.3547 33.9587 40.3547 34.4918C40.3547 35.0862 40.8366 35.5681 41.4311 35.5681C42.0255 35.5681 42.5074 35.0862 42.5074 34.4918C42.5074 33.9587 42.9396 33.5265 43.4726 33.5265H45.7878C46.4756 33.5265 47.0922 33.2219 47.5101 32.7401C47.3536 32.7046 47.2121 32.6157 47.1117 32.4861C46.362 31.518 45.2741 30.9305 44.0831 30.9305C43.9617 30.9305 43.8417 30.9366 43.7234 30.9484C43.6416 30.9566 43.5599 30.9503 43.4819 30.9305H17.5139C17.491 30.9527 17.4666 30.9734 17.4406 30.9925C17.2609 31.1243 17.0291 31.1628 16.8165 31.0959C16.4736 30.9881 16.1121 30.9305 15.738 30.9305C14.5465 30.9305 13.4581 31.5186 12.7083 32.4874ZM9.89268 34.9486C9.89268 34.1799 10.3343 33.4754 11.0226 33.0824C11.6581 34.1846 12.8485 34.9265 14.2122 34.9265H32.7788C32.9444 34.9265 33.0788 35.0608 33.0788 35.2265V35.6414C33.0788 35.7815 33.0904 35.9189 33.1127 36.0527L12.6206 36.0527C11.9385 36.0527 11.3114 36.2881 10.8162 36.6823C10.2458 36.2748 9.89268 35.639 9.89268 34.9486ZM19.87 37.8527L34.4391 37.8527C34.7745 38.0222 35.1536 38.1178 35.5551 38.1178C35.9566 38.1178 36.3357 38.0222 36.6711 37.8527H39.1255C38.4045 39.1836 37.1171 40.0305 35.6915 40.0305C34.8628 40.0305 34.0886 39.7472 33.4411 39.2519C33.1901 39.0598 32.8415 39.0598 32.5904 39.2519C31.943 39.7472 31.1688 40.0305 30.34 40.0305C29.2137 40.0305 28.181 39.5056 27.4377 38.6306C27.3047 38.4741 27.1097 38.3838 26.9042 38.3838C26.6988 38.3838 26.5038 38.4741 26.3708 38.6306C25.6275 39.5056 24.5947 40.0305 23.4684 40.0305C22.1414 40.0305 20.9386 39.2994 20.1945 38.1252C20.1159 38.0011 20.0017 37.907 19.87 37.8527ZM39.5085 36.0527H37.9975C38.0198 35.9189 38.0315 35.7815 38.0315 35.6414V35.2265C38.0315 35.0608 38.1658 34.9265 38.3315 34.9265H38.9927C39.0675 35.3485 39.249 35.7335 39.5085 36.0527ZM43.8694 34.9265C43.7946 35.3485 43.6131 35.7335 43.3536 36.0527H47.8702C48.4369 36.0527 48.9656 36.2152 49.4123 36.4962C49.8467 36.0938 50.1073 35.5409 50.1073 34.9486C50.1073 34.1803 49.6655 33.4754 48.9774 33.0823C48.3419 34.1846 47.1515 34.9265 45.7878 34.9265H43.8694ZM11.5206 39.2229C12.5044 40.5551 14.0141 41.4305 15.738 41.4305C17.2658 41.4305 18.6289 40.7407 19.6032 39.6559C20.5775 40.7407 21.9407 41.4305 23.4684 41.4305C24.7817 41.4305 25.9761 40.9196 26.9042 40.0859C27.8324 40.9196 29.0267 41.4305 30.34 41.4305C31.3163 41.4305 32.2295 41.1475 33.0158 40.658C33.802 41.1475 34.7152 41.4305 35.6915 41.4305C37.4024 41.4305 38.9032 40.5676 39.8873 39.2522C40.8714 40.5676 42.3722 41.4305 44.0831 41.4305C46.1447 41.4305 47.9003 40.1784 48.8159 38.3904C48.9139 38.5549 48.9702 38.7472 48.9702 38.9527V39.4846C48.9702 41.0373 48.7866 42.2487 48.3233 43.2185C47.8732 44.1606 47.123 44.9494 45.8373 45.5953C43.1742 46.9331 38.3738 47.5875 29.8387 47.5874C21.3336 47.5874 16.7511 46.6317 14.3044 45.1699C13.1166 44.4603 12.4451 43.638 12.0543 42.7349C11.6538 41.8095 11.5206 40.7363 11.5206 39.4846V39.2229ZM12.3258 37.8926C12.4196 37.8666 12.5185 37.8527 12.6206 37.8527H19.3365C19.2047 37.907 19.0906 38.0011 19.0119 38.1252C18.2679 39.2994 17.0651 40.0305 15.738 40.0305C14.327 40.0305 13.0502 39.2001 12.3258 37.8926ZM40.6491 37.8527H47.5171C46.7966 39.1833 45.5085 40.0305 44.0831 40.0305C42.6575 40.0305 41.3701 39.1836 40.6491 37.8527Z" fill="#F8F9FA"/>
<path d="M14.3169 13.6307L13.4249 12.4248L14.3169 13.6307ZM11.5166 26.7675L12.8808 27.3912C13.0797 26.956 13.0591 26.4521 12.8253 26.0346C12.5915 25.6171 12.1726 25.3363 11.6976 25.2785L11.5166 26.7675ZM11.441 28.8272L12.5704 29.8143C12.9323 29.4003 13.0386 28.8214 12.8475 28.3058L11.441 28.8272ZM10.5663 31.7443L11.2171 33.0958C11.8024 32.814 12.1397 32.1874 12.0528 31.5436L10.5663 31.7443ZM9.96261 37.791L11.3368 38.3924C11.6182 37.7494 11.4161 36.9972 10.8503 36.5819L9.96261 37.791ZM9.72057 38.9527L11.2206 38.9527V38.9527H9.72057ZM9.72057 39.4846L8.22057 39.4846L8.22057 39.4846L9.72057 39.4846ZM10.4024 43.4498L11.779 42.8541L11.779 42.854L10.4024 43.4498ZM13.3812 46.7151L14.1505 45.4274L14.1505 45.4274L13.3812 46.7151ZM29.8387 49.3875L29.8387 50.8875H29.8387V49.3875ZM46.6453 47.2037L47.3186 48.5441L47.3186 48.5441L46.6453 47.2037ZM49.9475 43.9945L48.594 43.3478L48.594 43.3478L49.9475 43.9945ZM50.7702 39.4846L49.2702 39.4846L49.2702 39.4846L50.7702 39.4846ZM50.3831 37.5041L49.3579 36.409C48.8488 36.8857 48.7353 37.6505 49.0842 38.2544L50.3831 37.5041ZM49.4337 31.7444L47.9472 31.5436C47.8602 32.1875 48.1977 32.8142 48.7831 33.096L49.4337 31.7444ZM48.986 29.4274L47.7541 28.5716C47.4243 29.0463 47.3967 29.6683 47.683 30.1704L48.986 29.4274ZM49.094 26.5188L48.4603 25.1592C48.0768 25.338 47.7867 25.6703 47.6614 26.0744C47.536 26.4784 47.5872 26.9167 47.8022 27.281L49.094 26.5188ZM47.8828 30.3482L49.2609 29.756C49.1017 29.3856 48.8001 29.0948 48.4241 28.9493C48.0481 28.8038 47.6293 28.8158 47.2622 28.9826L47.8828 30.3482ZM47.1392 30.5634L46.9343 29.0775C46.3318 29.1605 45.8391 29.5992 45.6869 30.1881C45.5347 30.7769 45.7532 31.3994 46.24 31.764L47.1392 30.5634ZM48.0637 31.3712L47.9369 32.8658C48.3413 32.9001 48.7424 32.7691 49.0486 32.5025C49.3547 32.236 49.5398 31.8568 49.5615 31.4514L48.0637 31.3712ZM48.0028 31.3665L46.8726 32.3527C47.1337 32.6519 47.5028 32.8354 47.899 32.8629L48.0028 31.3665ZM12.9378 30.3831L13.7659 31.6338C14.228 31.3278 14.4838 30.7919 14.431 30.2401C14.3781 29.6884 14.0254 29.2107 13.5136 28.998L12.9378 30.3831ZM12.2995 30.0074L13.2302 28.8311C12.8992 28.5692 12.4731 28.4588 12.0565 28.5272C11.64 28.5956 11.2715 28.8363 11.0416 29.1903L12.2995 30.0074ZM11.933 31.2389L10.433 31.2334C10.4308 31.8515 10.8079 32.4077 11.3829 32.6344C11.958 32.861 12.6132 32.7118 13.0333 32.2584L11.933 31.2389ZM15.3873 15.0779L16.2793 16.2839L16.2793 16.2839L15.3873 15.0779ZM12.4505 32.6935L11.8167 31.334C11.3965 31.5299 11.0904 31.9091 10.9877 32.3613C10.8851 32.8134 10.9972 33.2877 11.2916 33.6459L12.4505 32.6935ZM12.7083 32.4874L13.8946 33.4055L13.8946 33.4055L12.7083 32.4874ZM34.5601 36.0527L33.1741 36.6262C33.4061 37.187 33.9532 37.5527 34.5601 37.5527V36.0527ZM36.5501 36.0527V37.5527C37.157 37.5527 37.7041 37.187 37.9362 36.6262L36.5501 36.0527ZM47.5101 32.7401L48.6432 33.723C48.9887 33.3248 49.0997 32.7744 48.9356 32.2734C48.7716 31.7723 48.3565 31.3942 47.8424 31.2774L47.5101 32.7401ZM47.1117 32.4861L45.9258 33.4046L45.9258 33.4046L47.1117 32.4861ZM43.7234 30.9484L43.5739 29.4559L43.5739 29.4559L43.7234 30.9484ZM43.4819 30.9305L43.85 29.4764C43.7296 29.4459 43.606 29.4305 43.4819 29.4305V30.9305ZM17.5139 30.9305V29.4305C17.1239 29.4305 16.7493 29.5824 16.4694 29.8539L17.5139 30.9305ZM17.4406 30.9925L18.3281 32.2017L18.3281 32.2017L17.4406 30.9925ZM16.8165 31.0959L17.2663 29.6649L17.2663 29.6649L16.8165 31.0959ZM11.0226 33.0824L12.3221 32.3331C11.9095 31.6176 10.9962 31.3702 10.2789 31.7797L11.0226 33.0824ZM33.1127 36.0527L33.1127 37.5527C33.5538 37.5527 33.9725 37.3586 34.2575 37.022C34.5425 36.6854 34.6649 36.2404 34.5922 35.8054L33.1127 36.0527ZM12.6206 36.0527L12.6206 34.5527H12.6206V36.0527ZM10.8162 36.6823L9.94427 37.9028C10.4892 38.2921 11.2262 38.273 11.7502 37.856L10.8162 36.6823ZM34.4391 37.8527L35.116 36.5141C34.9062 36.408 34.6743 36.3527 34.4391 36.3527L34.4391 37.8527ZM19.87 37.8527L19.87 36.3527C19.1539 36.3527 18.5377 36.8588 18.3986 37.5612C18.2594 38.2637 18.6362 38.9665 19.2982 39.2394L19.87 37.8527ZM36.6711 37.8527V36.3527C36.4359 36.3527 36.204 36.408 35.9942 36.5141L36.6711 37.8527ZM39.1255 37.8527L40.4444 38.5671C40.6962 38.1023 40.6847 37.5393 40.4142 37.0851C40.1437 36.6309 39.6541 36.3527 39.1255 36.3527V37.8527ZM33.4411 39.2519L32.5296 40.4432L32.5296 40.4432L33.4411 39.2519ZM32.5904 39.2519L33.5019 40.4432L33.5019 40.4432L32.5904 39.2519ZM27.4377 38.6306L26.2945 39.6018L26.2945 39.6018L27.4377 38.6306ZM26.3708 38.6306L27.5139 39.6018L27.5139 39.6018L26.3708 38.6306ZM20.1945 38.1252L21.4615 37.3223L21.4615 37.3223L20.1945 38.1252ZM37.9975 36.0527L36.518 35.8054C36.4453 36.2404 36.5677 36.6854 36.8527 37.022C37.1377 37.3586 37.5564 37.5527 37.9975 37.5527V36.0527ZM39.5085 36.0527V37.5527C40.0872 37.5527 40.6143 37.2197 40.8629 36.6972C41.1116 36.1746 41.0375 35.5556 40.6724 35.1065L39.5085 36.0527ZM38.9927 34.9265L40.4697 34.6649C40.3429 33.9486 39.7202 33.4265 38.9927 33.4265V34.9265ZM43.3536 36.0527L42.1897 35.1065C41.8246 35.5556 41.7505 36.1746 41.9992 36.6972C42.2478 37.2197 42.7749 37.5527 43.3536 37.5527V36.0527ZM43.8694 34.9265V33.4265C43.1419 33.4265 42.5192 33.9486 42.3924 34.665L43.8694 34.9265ZM49.4123 36.4962L48.6136 37.7659C49.1881 38.1273 49.9338 38.0579 50.4317 37.5966L49.4123 36.4962ZM48.9774 33.0823L49.7215 31.7799C49.0042 31.3701 48.0905 31.6174 47.6779 32.3331L48.9774 33.0823ZM11.5206 39.2229L12.7272 38.3319C12.3425 37.8108 11.6667 37.5956 11.0515 37.7982C10.4363 38.0007 10.0206 38.5752 10.0206 39.2229H11.5206ZM19.6032 39.6559L20.7192 38.6536C20.4347 38.3368 20.029 38.1559 19.6032 38.1559C19.1775 38.1559 18.7717 38.3368 18.4872 38.6536L19.6032 39.6559ZM26.9042 40.0859L27.9066 38.97C27.3365 38.4579 26.472 38.4579 25.9019 38.97L26.9042 40.0859ZM33.0158 40.658L33.8085 39.3846C33.3232 39.0825 32.7083 39.0825 32.223 39.3846L33.0158 40.658ZM39.8873 39.2522L41.0884 38.3537C40.8052 37.9751 40.3601 37.7522 39.8873 37.7522C39.4145 37.7522 38.9694 37.9751 38.6862 38.3537L39.8873 39.2522ZM48.8159 38.3904L50.1045 37.6226C49.8251 37.1538 49.3132 36.8737 48.7678 36.8912C48.2224 36.9087 47.7295 37.221 47.4807 37.7067L48.8159 38.3904ZM48.9702 39.4846L47.4702 39.4846L47.4702 39.4846L48.9702 39.4846ZM48.3233 43.2185L49.6768 43.8651L49.6768 43.8651L48.3233 43.2185ZM45.8373 45.5953L45.164 44.2549L45.164 44.2549L45.8373 45.5953ZM29.8387 47.5874L29.8387 46.0874H29.8387V47.5874ZM14.3044 45.1699L13.5351 46.4576L13.5351 46.4576L14.3044 45.1699ZM12.0543 42.7349L13.4309 42.1391L13.4309 42.1391L12.0543 42.7349ZM11.5206 39.4846L13.0206 39.4846V39.4846H11.5206ZM12.3258 37.8926L11.9248 36.4472C11.4822 36.57 11.1202 36.8889 10.9425 37.3125C10.7649 37.7361 10.7911 38.2178 11.0138 38.6196L12.3258 37.8926ZM19.3365 37.8527L19.9082 39.2394C20.5702 38.9665 20.947 38.2637 20.8079 37.5612C20.6688 36.8588 20.0526 36.3527 19.3365 36.3527V37.8527ZM19.0119 38.1252L17.7449 37.3223L17.7449 37.3223L19.0119 38.1252ZM47.5171 37.8527L48.8361 38.5669C49.0879 38.1021 49.0763 37.5391 48.8058 37.085C48.5353 36.6309 48.0457 36.3527 47.5171 36.3527V37.8527ZM40.6491 37.8527V36.3527C40.1205 36.3527 39.6309 36.6309 39.3604 37.0851C39.0899 37.5393 39.0784 38.1023 39.3302 38.5671L40.6491 37.8527ZM15.2089 14.8367C18.4371 12.4491 23.4022 10.8682 30.2847 10.8682V7.86816C22.9785 7.86816 17.3212 9.54299 13.4249 12.4248L15.2089 14.8367ZM10.4702 23.7617C10.4702 20.4134 11.9928 17.2155 15.2089 14.8367L13.4249 12.4248C9.4799 15.3426 7.47021 19.4182 7.47021 23.7617H10.4702ZM10.4702 23.8889V23.7617H7.47021V23.8889H10.4702ZM11.6976 25.2785C11.0065 25.1945 10.4702 24.6032 10.4702 23.8889H7.47021C7.47021 26.1384 9.15703 27.9917 11.3356 28.2566L11.6976 25.2785ZM12.7735 27.8888C12.7735 27.7083 12.8124 27.5409 12.8808 27.3912L10.1524 26.1439C9.90858 26.6772 9.77347 27.2693 9.77347 27.8888H12.7735ZM12.8475 28.3058C12.8001 28.1779 12.7735 28.0382 12.7735 27.8888H9.77347C9.77347 28.3994 9.86524 28.8919 10.0345 29.3485L12.8475 28.3058ZM12.033 31.2473C12.033 30.6974 12.2348 30.1983 12.5704 29.8143L10.3116 27.84C9.5164 28.7498 9.03302 29.944 9.03302 31.2473H12.033ZM12.0528 31.5436C12.0398 31.4474 12.033 31.3485 12.033 31.2473H9.03302C9.03302 31.4832 9.04889 31.7162 9.07979 31.945L12.0528 31.5436ZM9.99268 34.9486C9.99268 34.1642 10.4614 33.4596 11.2171 33.0958L9.91554 30.3928C8.23592 31.2016 6.99268 32.89 6.99268 34.9486H9.99268ZM10.8503 36.5819C10.3125 36.187 9.99268 35.5984 9.99268 34.9486H6.99268C6.99268 36.6408 7.84052 38.0938 9.0749 39.0001L10.8503 36.5819ZM11.2206 38.9527C11.2206 38.7505 11.2625 38.562 11.3368 38.3924L8.58847 37.1896C8.35137 37.7313 8.22057 38.3287 8.22057 38.9527H11.2206ZM11.2206 39.4846L11.2206 38.9527L8.22057 38.9527L8.22057 39.4846L11.2206 39.4846ZM11.779 42.854C11.3549 41.8742 11.2206 40.7536 11.2206 39.4846L8.22057 39.4846C8.22057 40.9297 8.36639 42.522 9.02576 44.0456L11.779 42.854ZM14.1505 45.4274C12.9127 44.6879 12.1965 43.8189 11.779 42.8541L9.02576 44.0456C9.71098 45.6289 10.8741 46.9646 12.6119 48.0028L14.1505 45.4274ZM29.8387 47.8875C21.3305 47.8874 16.6737 46.9349 14.1505 45.4274L12.6119 48.0028C15.8976 49.9659 21.294 50.8874 29.8387 50.8875L29.8387 47.8875ZM45.972 45.8634C43.2367 47.2374 38.3666 47.8875 29.8387 47.8875V50.8875C38.3037 50.8875 43.8643 50.2794 47.3186 48.5441L45.972 45.8634ZM48.594 43.3478C48.1116 44.3576 47.3091 45.1917 45.972 45.8634L47.3186 48.5441C49.168 47.6151 50.4941 46.3298 51.3009 44.6411L48.594 43.3478ZM49.2702 39.4846C49.2702 41.0559 49.0854 42.3193 48.594 43.3478L51.3009 44.6411C52.0724 43.0264 52.2702 41.244 52.2702 39.4846L49.2702 39.4846ZM49.2702 38.9527V39.4846H52.2702V38.9527H49.2702ZM49.0842 38.2544C49.2022 38.4587 49.2702 38.6955 49.2702 38.9527H52.2702C52.2702 38.1546 52.0564 37.4019 51.6819 36.7537L49.0842 38.2544ZM50.0073 34.9486C50.0073 35.5133 49.7683 36.0249 49.3579 36.409L51.4082 38.5991C52.3766 37.6926 53.0073 36.4067 53.0073 34.9486H50.0073ZM48.7831 33.096C49.5388 33.4597 50.0073 34.1637 50.0073 34.9486H53.0073C53.0073 32.8898 51.7645 31.2016 50.0842 30.3928L48.7831 33.096ZM47.967 31.2473C47.967 31.3486 47.9602 31.4474 47.9472 31.5436L50.9202 31.9452C50.9511 31.7162 50.967 31.4832 50.967 31.2473H47.967ZM47.683 30.1704C47.8634 30.4867 47.967 30.8527 47.967 31.2473H50.967C50.967 30.3179 50.7208 29.4414 50.2891 28.6843L47.683 30.1704ZM47.967 27.8888C47.967 28.145 47.8884 28.3782 47.7541 28.5716L50.218 30.2831C50.6901 29.6035 50.967 28.7762 50.967 27.8888H47.967ZM47.8022 27.281C47.9066 27.4581 47.967 27.6641 47.967 27.8888H50.967C50.967 27.1134 50.7554 26.3827 50.3859 25.7565L47.8022 27.281ZM49.2702 23.8889C49.2702 24.4487 48.9416 24.9348 48.4603 25.1592L49.7278 27.8783C51.2265 27.1797 52.2702 25.6577 52.2702 23.8889H49.2702ZM49.2702 23.7617V23.8889H52.2702V23.7617H49.2702ZM30.2847 10.8682C43.9895 10.8682 49.2702 18.55 49.2702 23.7617H52.2702C52.2702 16.4359 45.1487 7.86816 30.2847 7.86816V10.8682ZM47.2622 28.9826C47.16 29.0291 47.0501 29.0615 46.9343 29.0775L47.3441 32.0493C47.7517 31.9931 48.1413 31.8784 48.5033 31.7138L47.2622 28.9826ZM49.567 31.2473C49.567 30.7207 49.4584 30.2155 49.2609 29.756L46.5046 30.9404C46.5443 31.0327 46.567 31.1354 46.567 31.2473H49.567ZM49.5615 31.4514C49.5651 31.3837 49.567 31.3156 49.567 31.2473H46.567C46.567 31.2622 46.5666 31.2767 46.5658 31.2909L49.5615 31.4514ZM47.899 32.8629C47.9115 32.8638 47.9241 32.8647 47.9369 32.8658L48.1905 29.8766C48.1628 29.8742 48.1349 29.8721 48.1067 29.8701L47.899 32.8629ZM46.24 31.764C46.4676 31.9345 46.6799 32.1318 46.8726 32.3527L49.133 30.3803C48.8051 30.0045 48.4386 29.6626 48.0383 29.3628L46.24 31.764ZM13.5136 28.998C13.4119 28.9557 13.3166 28.8994 13.2302 28.8311L11.3687 31.1837C11.6686 31.421 12.0023 31.6186 12.362 31.7682L13.5136 28.998ZM13.0333 32.2584C13.2558 32.0182 13.502 31.8085 13.7659 31.6338L12.1097 29.1324C11.6408 29.4429 11.2129 29.8092 10.8328 30.2193L13.0333 32.2584ZM11.0416 29.1903C10.6589 29.7793 10.4358 30.4826 10.433 31.2334L13.433 31.2443C13.4336 31.087 13.4793 30.9448 13.5574 30.8245L11.0416 29.1903ZM14.4953 13.8719C10.9875 16.4664 9.27021 20.0154 9.27021 23.7617H12.2702C12.2702 21.01 13.5009 18.3389 16.2793 16.2839L14.4953 13.8719ZM30.2847 9.66816C23.2327 9.66816 17.9907 11.2867 14.4953 13.8719L16.2793 16.2839C19.1068 14.1925 23.6568 12.6682 30.2847 12.6682V9.66816ZM50.4702 23.7617C50.4702 17.7074 44.4568 9.66816 30.2847 9.66816V12.6682C43.281 12.6682 47.4702 19.8075 47.4702 23.7617H50.4702ZM50.4702 23.8889V23.7617H47.4702V23.8889H50.4702ZM47.8702 26.4889C49.3062 26.4889 50.4702 25.3248 50.4702 23.8889H47.4702C47.4702 23.668 47.6493 23.4889 47.8702 23.4889V26.4889ZM11.8702 26.4889H47.8702V23.4889H11.8702V26.4889ZM9.27021 23.8889C9.27021 25.3248 10.4343 26.4889 11.8702 26.4889V23.4889C12.0911 23.4889 12.2702 23.668 12.2702 23.8889H9.27021ZM9.27021 23.7617V23.8889H12.2702V23.7617H9.27021ZM13.0843 34.053C13.3983 33.9066 13.6773 33.6862 13.8946 33.4055L11.5221 31.5694C11.6011 31.4673 11.7027 31.3871 11.8167 31.334L13.0843 34.053ZM14.2122 32.0265C13.9701 32.0265 13.7547 31.9179 13.6094 31.7411L11.2916 33.6459C11.9824 34.4863 13.0348 35.0265 14.2122 35.0265V32.0265ZM32.7788 32.0265H14.2122V35.0265H32.7788V32.0265ZM35.9788 35.2265C35.9788 33.4592 34.5461 32.0265 32.7788 32.0265V35.0265C32.8892 35.0265 32.9788 35.1161 32.9788 35.2265H35.9788ZM35.9788 35.6414V35.2265H32.9788V35.6414H35.9788ZM35.9462 35.4792C35.9676 35.5311 35.9788 35.5869 35.9788 35.6414H32.9788C32.9788 35.9873 33.0477 36.3208 33.1741 36.6262L35.9462 35.4792ZM36.5501 34.5527H34.5601V37.5527H36.5501V34.5527ZM35.1315 35.6414C35.1315 35.5869 35.1426 35.5311 35.1641 35.4792L37.9362 36.6262C38.0625 36.3208 38.1315 35.9873 38.1315 35.6414H35.1315ZM35.1315 35.2265V35.6414H38.1315V35.2265H35.1315ZM38.3315 32.0265C36.5642 32.0265 35.1315 33.4592 35.1315 35.2265H38.1315C38.1315 35.1161 38.221 35.0265 38.3315 35.0265V32.0265ZM39.3895 32.0265H38.3315V35.0265H39.3895V32.0265ZM41.8547 34.4918C41.8547 33.1302 40.751 32.0265 39.3895 32.0265V35.0265C39.0941 35.0265 38.8547 34.7871 38.8547 34.4918H41.8547ZM41.4311 34.0681C41.665 34.0681 41.8547 34.2578 41.8547 34.4918H38.8547C38.8547 35.9146 40.0082 37.0681 41.4311 37.0681V34.0681ZM41.0074 34.4918C41.0074 34.2578 41.1971 34.0681 41.4311 34.0681V37.0681C42.8539 37.0681 44.0074 35.9146 44.0074 34.4918H41.0074ZM43.4726 32.0265C42.1111 32.0265 41.0074 33.1302 41.0074 34.4918H44.0074C44.0074 34.7871 43.768 35.0265 43.4726 35.0265V32.0265ZM45.7878 32.0265H43.4726V35.0265H45.7878V32.0265ZM46.377 31.7572C46.2319 31.9245 46.0226 32.0265 45.7878 32.0265V35.0265C46.9285 35.0265 47.9525 34.5192 48.6432 33.723L46.377 31.7572ZM45.9258 33.4046C46.2414 33.8121 46.686 34.0911 47.1778 34.2028L47.8424 31.2774C48.0211 31.318 48.1828 31.4194 48.2976 31.5676L45.9258 33.4046ZM44.0831 32.4305C44.7577 32.4305 45.4265 32.7599 45.9258 33.4046L48.2976 31.5676C47.2975 30.2762 45.7904 29.4305 44.0831 29.4305V32.4305ZM43.8728 32.441C43.9416 32.4341 44.0117 32.4305 44.0831 32.4305V29.4305C43.9116 29.4305 43.7418 29.4391 43.5739 29.4559L43.8728 32.441ZM43.1137 32.3846C43.359 32.4467 43.6158 32.4667 43.8729 32.441L43.5739 29.4559C43.6674 29.4465 43.7608 29.4538 43.85 29.4764L43.1137 32.3846ZM17.5139 32.4305H43.4819V29.4305H17.5139V32.4305ZM18.3281 32.2017C18.4097 32.1419 18.4865 32.0768 18.5584 32.0071L16.4694 29.8539C16.4955 29.8286 16.5235 29.8049 16.553 29.7832L18.3281 32.2017ZM16.3667 32.5269C17.035 32.737 17.7634 32.6162 18.3281 32.2017L16.5531 29.7832C16.7584 29.6325 17.0233 29.5886 17.2663 29.6649L16.3667 32.5269ZM15.738 32.4305C15.9568 32.4305 16.1666 32.464 16.3667 32.5269L17.2663 29.6649C16.7805 29.5123 16.2675 29.4305 15.738 29.4305V32.4305ZM13.8946 33.4055C14.394 32.7602 15.0631 32.4305 15.738 32.4305V29.4305C14.0299 29.4305 12.5222 30.277 11.5221 31.5694L13.8946 33.4055ZM10.2789 31.7797C9.1693 32.4132 8.39268 33.5901 8.39268 34.9486H11.3927C11.3927 34.7698 11.4992 34.5375 11.7663 34.385L10.2789 31.7797ZM14.2122 33.4265C13.4064 33.4265 12.7008 32.9899 12.3221 32.3331L9.72313 33.8316C10.6155 35.3793 12.2907 36.4265 14.2122 36.4265V33.4265ZM32.7788 33.4265H14.2122V36.4265H32.7788V33.4265ZM34.5788 35.2265C34.5788 34.2324 33.7729 33.4265 32.7788 33.4265V36.4265C32.116 36.4265 31.5788 35.8893 31.5788 35.2265H34.5788ZM34.5788 35.6414V35.2265H31.5788V35.6414H34.5788ZM34.5922 35.8054C34.5835 35.753 34.5788 35.6983 34.5788 35.6414H31.5788C31.5788 35.8647 31.5973 36.0848 31.6333 36.2999L34.5922 35.8054ZM12.6206 37.5527L33.1127 37.5527L33.1127 34.5527L12.6206 34.5527L12.6206 37.5527ZM11.7502 37.856C11.9895 37.6655 12.2898 37.5527 12.6206 37.5527V34.5527C11.5872 34.5527 10.6333 34.9108 9.8821 35.5086L11.7502 37.856ZM8.39268 34.9486C8.39268 36.1651 9.01493 37.239 9.94427 37.9028L11.688 35.4617C11.4766 35.3107 11.3927 35.1128 11.3927 34.9486H8.39268ZM34.4391 36.3527L19.87 36.3527L19.87 39.3527L34.4391 39.3527L34.4391 36.3527ZM35.5551 36.6178C35.3941 36.6178 35.2463 36.58 35.116 36.5141L33.7623 39.1913C34.3027 39.4645 34.9132 39.6178 35.5551 39.6178V36.6178ZM35.9942 36.5141C35.8639 36.58 35.7161 36.6178 35.5551 36.6178V39.6178C36.1971 39.6178 36.8076 39.4645 37.348 39.1912L35.9942 36.5141ZM39.1255 36.3527H36.6711V39.3527H39.1255V36.3527ZM35.6915 41.5305C37.7414 41.5305 39.4984 40.3135 40.4444 38.5671L37.8065 37.1382C37.3106 38.0537 36.4928 38.5305 35.6915 38.5305V41.5305ZM32.5296 40.4432C33.4199 41.1243 34.5102 41.5305 35.6915 41.5305V38.5305C35.2153 38.5305 34.7573 38.3702 34.3526 38.0606L32.5296 40.4432ZM33.5019 40.4432C33.215 40.6627 32.8166 40.6627 32.5296 40.4432L34.3526 38.0606C33.5636 37.4569 32.4679 37.4569 31.6789 38.0606L33.5019 40.4432ZM30.34 41.5305C31.5213 41.5305 32.6117 41.1243 33.5019 40.4432L31.6789 38.0606C31.2743 38.3702 30.8162 38.5305 30.34 38.5305V41.5305ZM26.2945 39.6018C27.2912 40.775 28.727 41.5305 30.34 41.5305V38.5305C29.7005 38.5305 29.0708 38.2361 28.5809 37.6595L26.2945 39.6018ZM26.9042 39.8838C26.6695 39.8838 26.4465 39.7807 26.2945 39.6018L28.5809 37.6595C28.1629 37.1674 27.5499 36.8838 26.9042 36.8838V39.8838ZM27.5139 39.6018C27.3619 39.7807 27.139 39.8838 26.9042 39.8838V36.8838C26.2586 36.8838 25.6456 37.1674 25.2276 37.6595L27.5139 39.6018ZM23.4684 41.5305C25.0815 41.5305 26.5173 40.775 27.5139 39.6018L25.2276 37.6595C24.7377 38.2361 24.108 38.5305 23.4684 38.5305V41.5305ZM18.9275 38.9281C19.9099 40.4784 21.5625 41.5305 23.4684 41.5305V38.5305C22.7202 38.5305 21.9672 38.1203 21.4615 37.3223L18.9275 38.9281ZM19.2982 39.2394C19.1481 39.1775 19.0174 39.0699 18.9275 38.9281L21.4615 37.3223C21.2144 36.9323 20.8554 36.6364 20.4417 36.4659L19.2982 39.2394ZM37.9975 37.5527H39.5085V34.5527H37.9975V37.5527ZM36.5315 35.6414C36.5315 35.6983 36.5268 35.753 36.518 35.8054L39.477 36.2999C39.5129 36.0848 39.5315 35.8647 39.5315 35.6414H36.5315ZM36.5315 35.2265V35.6414H39.5315V35.2265H36.5315ZM38.3315 33.4265C37.3374 33.4265 36.5315 34.2324 36.5315 35.2265H39.5315C39.5315 35.8893 38.9942 36.4265 38.3315 36.4265V33.4265ZM38.9927 33.4265H38.3315V36.4265H38.9927V33.4265ZM40.6724 35.1065C40.5694 34.9797 40.4988 34.8289 40.4697 34.6649L37.5157 35.1881C37.6361 35.868 37.9287 36.4873 38.3445 36.9988L40.6724 35.1065ZM44.5176 36.9988C44.9334 36.4873 45.226 35.868 45.3464 35.1881L42.3924 34.665C42.3633 34.8289 42.2928 34.9797 42.1897 35.1065L44.5176 36.9988ZM47.8702 34.5527H43.3536V37.5527H47.8702V34.5527ZM50.2111 35.2266C49.5322 34.7995 48.7277 34.5527 47.8702 34.5527V37.5527C48.1461 37.5527 48.3991 37.6309 48.6136 37.7659L50.2111 35.2266ZM48.6073 34.9486C48.6073 35.0907 48.5456 35.2544 48.3929 35.3958L50.4317 37.5966C51.1478 36.9332 51.6073 35.9912 51.6073 34.9486H48.6073ZM48.2333 34.3848C48.5007 34.5375 48.6073 34.7704 48.6073 34.9486H51.6073C51.6073 33.5902 50.8303 32.4134 49.7215 31.7799L48.2333 34.3848ZM45.7878 36.4265C47.7094 36.4265 49.3846 35.3793 50.2769 33.8316L47.6779 32.3331C47.2993 32.9899 46.5936 33.4265 45.7878 33.4265V36.4265ZM43.8694 36.4265H45.7878V33.4265H43.8694V36.4265ZM15.738 39.9305C14.5479 39.9305 13.4643 39.33 12.7272 38.3319L10.3139 40.114C11.5444 41.7802 13.4804 42.9305 15.738 42.9305V39.9305ZM18.4872 38.6536C17.766 39.4566 16.7952 39.9305 15.738 39.9305V42.9305C17.7364 42.9305 19.4918 42.0248 20.7192 40.6582L18.4872 38.6536ZM23.4684 39.9305C22.4113 39.9305 21.4404 39.4566 20.7192 38.6536L18.4872 40.6582C19.7147 42.0248 21.4701 42.9305 23.4684 42.9305V39.9305ZM25.9019 38.97C25.2243 39.5786 24.3797 39.9305 23.4684 39.9305V42.9305C25.1838 42.9305 26.7279 42.2606 27.9066 41.2018L25.9019 38.97ZM30.34 39.9305C29.4288 39.9305 28.5842 39.5786 27.9066 38.97L25.9019 41.2018C27.0806 42.2606 28.6247 42.9305 30.34 42.9305V39.9305ZM32.223 39.3846C31.661 39.7345 31.0204 39.9305 30.34 39.9305V42.9305C31.6121 42.9305 32.798 42.5605 33.8085 41.9314L32.223 39.3846ZM35.6915 39.9305C35.0111 39.9305 34.3705 39.7345 33.8085 39.3846L32.223 41.9314C33.2335 42.5605 34.4194 42.9305 35.6915 42.9305V39.9305ZM38.6862 38.3537C37.9495 39.3385 36.8728 39.9305 35.6915 39.9305V42.9305C37.9321 42.9305 39.857 41.7968 41.0884 40.1507L38.6862 38.3537ZM44.0831 39.9305C42.9018 39.9305 41.8251 39.3385 41.0884 38.3537L38.6862 40.1507C39.9176 41.7968 41.8425 42.9305 44.0831 42.9305V39.9305ZM47.4807 37.7067C46.7826 39.0701 45.5005 39.9305 44.0831 39.9305V42.9305C46.7888 42.9305 49.0181 41.2866 50.151 39.0741L47.4807 37.7067ZM50.4702 38.9527C50.4702 38.4695 50.337 38.0129 50.1045 37.6226L47.5273 39.1582C47.4908 39.097 47.4702 39.025 47.4702 38.9527H50.4702ZM50.4702 39.4846V38.9527H47.4702V39.4846H50.4702ZM49.6768 43.8651C50.2802 42.602 50.4702 41.131 50.4702 39.4846L47.4702 39.4846C47.4702 40.9436 47.293 41.8954 46.9698 42.5719L49.6768 43.8651ZM46.5106 46.9357C48.0529 46.1609 49.0647 45.1463 49.6768 43.8651L46.9698 42.5719C46.6817 43.175 46.193 43.738 45.164 44.2549L46.5106 46.9357ZM29.8387 49.0874C34.1366 49.0875 37.5408 48.9231 40.2293 48.581C42.9047 48.2406 44.9615 47.7139 46.5106 46.9357L45.164 44.2549C44.05 44.8145 42.375 45.2838 39.8506 45.605C37.3394 45.9246 34.0758 46.0875 29.8387 46.0874L29.8387 49.0874ZM13.5351 46.4576C16.3634 48.1474 21.3162 49.0874 29.8387 49.0874V46.0874C21.351 46.0874 17.1388 45.116 15.0737 43.8822L13.5351 46.4576ZM10.6777 43.3307C11.2023 44.5428 12.0971 45.5985 13.5351 46.4576L15.0737 43.8822C14.1362 43.3221 13.688 42.7332 13.4309 42.1391L10.6777 43.3307ZM10.0206 39.4846C10.0206 40.8238 10.1595 42.1332 10.6777 43.3307L13.4309 42.1391C13.1482 41.4858 13.0206 40.6487 13.0206 39.4846L10.0206 39.4846ZM10.0206 39.2229V39.4846H13.0206V39.2229H10.0206ZM12.6206 36.3527C12.3817 36.3527 12.148 36.3853 11.9248 36.4472L12.7269 39.338C12.6913 39.3479 12.6553 39.3527 12.6206 39.3527V36.3527ZM19.3365 36.3527H12.6206V39.3527H19.3365V36.3527ZM20.279 38.9281C20.1891 39.0699 20.0584 39.1775 19.9082 39.2394L18.7647 36.4659C18.3511 36.6364 17.9921 36.9323 17.7449 37.3223L20.279 38.9281ZM15.738 41.5305C17.6439 41.5305 19.2966 40.4784 20.279 38.9281L17.7449 37.3223C17.2392 38.1203 16.4862 38.5305 15.738 38.5305V41.5305ZM11.0138 38.6196C11.9656 40.3374 13.7094 41.5305 15.738 41.5305V38.5305C14.9445 38.5305 14.1349 38.0627 13.6379 37.1656L11.0138 38.6196ZM47.5171 36.3527H40.6491V39.3527H47.5171V36.3527ZM44.0831 41.5305C46.1327 41.5305 47.8905 40.3133 48.8361 38.5669L46.1981 37.1384C45.7027 38.0532 44.8844 38.5305 44.0831 38.5305V41.5305ZM39.3302 38.5671C40.2762 40.3135 42.0332 41.5305 44.0831 41.5305V38.5305C43.2817 38.5305 42.4639 38.0537 41.9681 37.1382L39.3302 38.5671Z" fill="#F8F9FA" mask="url(#path-1-outside-1_50_10547)"/>
<path d="M49.8701 39.4933C49.8701 45.9292 46.8701 48.4961 29.8386 48.4961C12.807 48.4961 10.6205 44.7105 10.6205 39.4933L10.6205 38.9613C10.6205 37.8567 11.5159 36.9613 12.6205 36.9613L29.8386 36.9613L47.8701 36.9613C48.9747 36.9613 49.8701 37.8567 49.8701 38.9613L49.8701 39.4933Z" fill="#FFA94D" stroke="#212529" stroke-width="1.8" stroke-linejoin="round"/>
<path fill-rule="evenodd" clip-rule="evenodd" d="M19.6032 38.5096C18.7482 39.8588 17.3357 40.7402 15.738 40.7402C13.8574 40.7402 12.2335 39.5191 11.4732 37.7515C10.1597 37.4209 9.19263 36.2956 9.19263 34.9583C9.19263 33.3986 10.5083 32.1273 12.1547 32.0688C13.0211 30.9492 14.305 30.2402 15.738 30.2402C16.1846 30.2402 16.6168 30.3091 17.0264 30.4379V30.2402H23.4684H30.34H35.6914H43.6536V30.2616C43.795 30.2475 43.9383 30.2402 44.0831 30.2402C45.5153 30.2402 46.7987 30.9486 47.6651 32.0672C47.6856 32.0668 47.706 32.0667 47.7266 32.0667C49.428 32.0667 50.8073 33.3613 50.8073 34.9583C50.8073 36.3618 49.742 37.5318 48.329 37.7947C47.5609 39.539 45.9482 40.7402 44.0831 40.7402C42.2575 40.7402 40.6738 39.5895 39.8872 37.9052C39.1007 39.5895 37.517 40.7402 35.6914 40.7402C34.6981 40.7402 33.7764 40.3995 33.0157 39.8175C32.255 40.3995 31.3333 40.7402 30.34 40.7402C28.9863 40.7402 27.7655 40.1075 26.9042 39.0936C26.0429 40.1075 24.8221 40.7402 23.4684 40.7402C21.8706 40.7402 20.4581 39.8588 19.6032 38.5096Z" fill="#69DB7C"/>
<path d="M19.6032 38.5096L20.1945 38.1349C20.0661 37.9323 19.843 37.8096 19.6032 37.8096C19.3634 37.8096 19.1403 37.9323 19.0119 38.1349L19.6032 38.5096ZM11.4732 37.7515L12.1163 37.4749C12.0301 37.2746 11.8556 37.1259 11.6441 37.0727L11.4732 37.7515ZM12.1547 32.0688L12.1796 32.7683C12.3873 32.7609 12.5811 32.6616 12.7083 32.4972L12.1547 32.0688ZM17.0264 30.4379L16.8165 31.1056C17.0291 31.1725 17.2608 31.1341 17.4405 31.0022C17.6202 30.8703 17.7264 30.6607 17.7264 30.4379H17.0264ZM17.0264 30.2402V29.5402C16.6398 29.5402 16.3264 29.8536 16.3264 30.2402H17.0264ZM43.6536 30.2402H44.3536C44.3536 29.8536 44.0402 29.5402 43.6536 29.5402V30.2402ZM43.6536 30.2616H42.9536C42.9536 30.4594 43.0373 30.648 43.1839 30.7807C43.3306 30.9134 43.5265 30.9779 43.7233 30.9582L43.6536 30.2616ZM47.6651 32.0672L47.1117 32.4958C47.247 32.6706 47.457 32.7712 47.678 32.7671L47.6651 32.0672ZM48.329 37.7947L48.2009 37.1065C47.9734 37.1489 47.7816 37.3009 47.6883 37.5127L48.329 37.7947ZM39.8872 37.9052L40.5215 37.609C40.4064 37.3627 40.1591 37.2052 39.8872 37.2052C39.6154 37.2052 39.3681 37.3627 39.253 37.609L39.8872 37.9052ZM33.0157 39.8175L33.4411 39.2616C33.19 39.0695 32.8414 39.0695 32.5904 39.2616L33.0157 39.8175ZM26.9042 39.0936L27.4377 38.6404C27.3047 38.4838 27.1096 38.3936 26.9042 38.3936C26.6988 38.3936 26.5037 38.4838 26.3707 38.6404L26.9042 39.0936ZM15.738 41.4402C17.6064 41.4402 19.2286 40.4085 20.1945 38.8842L19.0119 38.1349C18.2678 39.3091 17.065 40.0402 15.738 40.0402V41.4402ZM10.8302 38.0281C11.6835 40.0121 13.5361 41.4402 15.738 41.4402V40.0402C14.1787 40.0402 12.7835 39.0261 12.1163 37.4749L10.8302 38.0281ZM8.49263 34.9583C8.49263 36.6512 9.71281 38.0302 11.3023 38.4303L11.6441 37.0727C10.6066 36.8115 9.89263 35.94 9.89263 34.9583H8.49263ZM12.1298 31.3692C10.1483 31.4396 8.49263 32.9813 8.49263 34.9583H9.89263C9.89263 33.8158 10.8682 32.8149 12.1796 32.7683L12.1298 31.3692ZM15.738 29.5402C14.0636 29.5402 12.5841 30.3701 11.6011 31.6403L12.7083 32.4972C13.4581 31.5283 14.5464 30.9402 15.738 30.9402V29.5402ZM17.2363 29.7701C16.76 29.6204 16.2571 29.5402 15.738 29.5402V30.9402C16.1121 30.9402 16.4735 30.9979 16.8165 31.1056L17.2363 29.7701ZM17.7264 30.4379V30.2402H16.3264V30.4379H17.7264ZM17.0264 30.9402H23.4684V29.5402H17.0264V30.9402ZM23.4684 30.9402H30.34V29.5402H23.4684V30.9402ZM30.34 30.9402H35.6914V29.5402H30.34V30.9402ZM35.6914 30.9402H43.6536V29.5402H35.6914V30.9402ZM42.9536 30.2402V30.2616H44.3536V30.2402H42.9536ZM44.0831 29.5402C43.9149 29.5402 43.7484 29.5486 43.5838 29.5651L43.7233 30.9582C43.8417 30.9463 43.9616 30.9402 44.0831 30.9402V29.5402ZM48.2185 31.6386C47.2356 30.3694 45.7566 29.5402 44.0831 29.5402V30.9402C45.274 30.9402 46.3619 31.5278 47.1117 32.4958L48.2185 31.6386ZM47.7266 31.3667C47.7018 31.3667 47.677 31.3669 47.6522 31.3673L47.678 32.7671C47.6941 32.7668 47.7103 32.7667 47.7266 32.7667V31.3667ZM51.5073 34.9583C51.5073 32.9336 49.7722 31.3667 47.7266 31.3667V32.7667C49.0838 32.7667 50.1073 33.789 50.1073 34.9583H51.5073ZM48.457 38.4829C50.1642 38.1653 51.5073 36.7357 51.5073 34.9583H50.1073C50.1073 35.988 49.3198 36.8984 48.2009 37.1065L48.457 38.4829ZM44.0831 41.4402C46.2668 41.4402 48.1073 40.0353 48.9696 38.0768L47.6883 37.5127C47.0146 39.0427 45.6297 40.0402 44.0831 40.0402V41.4402ZM39.253 38.2014C40.1369 40.0942 41.9461 41.4402 44.0831 41.4402V40.0402C42.5689 40.0402 41.2107 39.0849 40.5215 37.609L39.253 38.2014ZM35.6914 41.4402C37.8284 41.4402 39.6376 40.0942 40.5215 38.2014L39.253 37.609C38.5638 39.0849 37.2056 40.0402 35.6914 40.0402V41.4402ZM32.5904 40.3735C33.4642 41.0421 34.5335 41.4402 35.6914 41.4402V40.0402C34.8627 40.0402 34.0885 39.757 33.4411 39.2616L32.5904 40.3735ZM30.34 41.4402C31.4979 41.4402 32.5672 41.0421 33.4411 40.3735L32.5904 39.2616C31.9429 39.757 31.1687 40.0402 30.34 40.0402V41.4402ZM26.3707 39.5468C27.3501 40.6996 28.7588 41.4402 30.34 41.4402V40.0402C29.2137 40.0402 28.181 39.5153 27.4377 38.6404L26.3707 39.5468ZM23.4684 41.4402C25.0496 41.4402 26.4583 40.6996 27.4377 39.5468L26.3707 38.6404C25.6274 39.5153 24.5947 40.0402 23.4684 40.0402V41.4402ZM19.0119 38.8842C19.9778 40.4085 21.6 41.4402 23.4684 41.4402V40.0402C22.1413 40.0402 20.9385 39.3091 20.1945 38.1349L19.0119 38.8842Z" fill="#212529"/>
<path fill-rule="evenodd" clip-rule="evenodd" d="M11.2329 31.2565C11.2329 29.6112 12.5667 28.2773 14.2121 28.2773H45.7877C47.433 28.2773 48.7669 29.6112 48.7669 31.2565C48.7669 32.9019 47.433 34.2358 45.7877 34.2358H43.4725C43.326 34.2358 43.2073 34.3545 43.2073 34.501V34.501C43.2073 35.482 42.412 36.2773 41.4309 36.2773C40.4499 36.2773 39.6546 35.482 39.6546 34.501V34.501C39.6546 34.3545 39.5358 34.2358 39.3893 34.2358H38.3314C37.7791 34.2358 37.3314 34.6835 37.3314 35.2358V35.6506C37.3314 36.6317 36.5361 37.427 35.555 37.427C34.5739 37.427 33.7786 36.6317 33.7786 35.6506V35.2358C33.7786 34.6835 33.3309 34.2358 32.7786 34.2358H14.2121C12.5667 34.2358 11.2329 32.9019 11.2329 31.2565Z" fill="#FFD43B"/>
<path d="M14.2121 27.5773C12.1801 27.5773 10.5329 29.2246 10.5329 31.2565H11.9329C11.9329 29.9978 12.9533 28.9773 14.2121 28.9773V27.5773ZM45.7877 27.5773H14.2121V28.9773H45.7877V27.5773ZM49.4669 31.2565C49.4669 29.2246 47.8196 27.5773 45.7877 27.5773V28.9773C47.0464 28.9773 48.0669 29.9978 48.0669 31.2565H49.4669ZM45.7877 34.9358C47.8196 34.9358 49.4669 33.2885 49.4669 31.2565H48.0669C48.0669 32.5153 47.0464 33.5358 45.7877 33.5358V34.9358ZM43.4725 34.9358H45.7877V33.5358H43.4725V34.9358ZM42.5073 34.501C42.5073 35.0954 42.0254 35.5773 41.4309 35.5773V36.9773C42.7986 36.9773 43.9073 35.8686 43.9073 34.501H42.5073ZM41.4309 35.5773C40.8365 35.5773 40.3546 35.0954 40.3546 34.501H38.9546C38.9546 35.8686 40.0633 36.9773 41.4309 36.9773V35.5773ZM38.3314 34.9358H39.3893V33.5358H38.3314V34.9358ZM38.0314 35.6506V35.2358H36.6314V35.6506H38.0314ZM35.555 38.127C36.9227 38.127 38.0314 37.0183 38.0314 35.6506H36.6314C36.6314 36.2451 36.1495 36.727 35.555 36.727V38.127ZM33.0786 35.6506C33.0786 37.0183 34.1874 38.127 35.555 38.127V36.727C34.9605 36.727 34.4786 36.2451 34.4786 35.6506H33.0786ZM33.0786 35.2358V35.6506H34.4786V35.2358H33.0786ZM14.2121 34.9358H32.7786V33.5358H14.2121V34.9358ZM10.5329 31.2565C10.5329 33.2885 12.1801 34.9358 14.2121 34.9358V33.5358C12.9533 33.5358 11.9329 32.5153 11.9329 31.2565H10.5329ZM34.4786 35.2358C34.4786 34.2969 33.7175 33.5358 32.7786 33.5358V34.9358C32.9443 34.9358 33.0786 35.0701 33.0786 35.2358H34.4786ZM40.3546 34.501C40.3546 33.9679 39.9224 33.5358 39.3893 33.5358V34.9358C39.1492 34.9358 38.9546 34.7411 38.9546 34.501H40.3546ZM38.3314 33.5358C37.3925 33.5358 36.6314 34.2969 36.6314 35.2358H38.0314C38.0314 35.0701 38.1657 34.9358 38.3314 34.9358V33.5358ZM43.4725 33.5358C42.9394 33.5358 42.5073 33.9679 42.5073 34.501H43.9073C43.9073 34.7411 43.7126 34.9358 43.4725 34.9358V33.5358Z" fill="#212529"/>
<path d="M9.87012 23.7709C9.87012 16.6759 16.3503 10.2773 30.2846 10.2773C44.2189 10.2773 49.8701 18.1344 49.8701 23.7709V23.8981C49.8701 25.0026 48.9747 25.8981 47.8701 25.8981L30.2846 25.8981L11.8701 25.8981C10.7655 25.8981 9.87012 25.0026 9.87012 23.8981V23.7709Z" fill="#FFA94D" stroke="#212529" stroke-width="1.8" stroke-linejoin="round"/>
<g style="mix-blend-mode:multiply">
<path d="M46.2348 16.4647C43.8981 13.6323 39.4269 12.0527 36.5427 11.8457C39.8539 13.049 43.2063 15.3014 44.7995 17.4965C46.3927 19.6916 47.2545 22.1575 47.2545 25.3438H49.1999C49.1999 22.4066 48.5715 19.297 46.2348 16.4647Z" fill="#DEE2E6"/>
</g>
<g style="mix-blend-mode:multiply">
<path d="M46.1321 45.7002C43.1068 47.7811 38.0603 48.0704 35.2303 47.4766C38.7447 47.2299 43.0287 46.4132 45.1639 44.7406C47.2992 43.0681 47.8092 41.4549 47.3876 37.3108L48.9907 37.89C48.9907 40.8262 49.1574 43.6194 46.1321 45.7002Z" fill="#DEE2E6"/>
</g>
<rect x="11.9734" y="25.8984" width="36.7935" height="4" rx="2" fill="#E14D4D" stroke="#212529" stroke-width="1.4" stroke-linejoin="round"/>
<path d="M25.9319 14.2041L24.8571 15.2344" stroke="#212529" stroke-width="1.2" stroke-linecap="round" stroke-linejoin="round"/>
<path d="M33.8084 14.2041L34.8833 15.2344" stroke="#212529" stroke-width="1.2" stroke-linecap="round" stroke-linejoin="round"/>
<path d="M29.8665 14.4297V15.722" stroke="#212529" stroke-width="1.2" stroke-linecap="round" stroke-linejoin="round"/>
</svg>
