<svg width="61" height="60" viewBox="0 0 61 60" fill="none" xmlns="http://www.w3.org/2000/svg">
<mask id="path-1-outside-1_50_8525" maskUnits="userSpaceOnUse" x="6.19458" y="10.2334" width="49" height="39" fill="black">
<rect fill="white" x="6.19458" y="10.2334" width="49" height="39"/>
<path fill-rule="evenodd" clip-rule="evenodd" d="M10.0433 29.7693C10.0433 21.1055 17.0667 14.0821 25.7305 14.0821C34.2026 14.0821 41.1061 20.7981 41.4074 29.1967C41.0372 29.6892 40.65 30.2188 40.2625 30.7711C39.3318 32.0976 38.3879 33.5709 37.6734 34.9838C36.973 36.369 36.4349 37.8062 36.4349 39.0274C36.4349 39.71 36.5185 40.3731 36.6759 41.0069C33.8495 43.7603 29.988 45.4565 25.7305 45.4565C17.0667 45.4565 10.0433 38.4331 10.0433 29.7693ZM37.3899 42.8678C34.2912 45.628 30.2067 47.3051 25.7305 47.3051C16.0457 47.3051 8.19458 39.4541 8.19458 29.7693C8.19458 20.0845 16.0457 12.2334 25.7305 12.2334C34.5021 12.2334 41.7695 18.6737 43.062 27.0837C43.3057 26.7846 43.5119 26.5369 43.6677 26.3517C43.7699 26.2302 43.8505 26.1356 43.9058 26.071L43.9695 25.9969L43.9863 25.9774L43.9927 25.9701C44.1507 25.7886 44.3795 25.6843 44.6202 25.6843C44.8609 25.6843 45.0898 25.7886 45.2478 25.9701L45.2541 25.9774L45.271 25.9969L45.3346 26.071C45.39 26.1356 45.4706 26.2302 45.5728 26.3517C45.7771 26.5946 46.0682 26.9451 46.417 27.3781C47.114 28.2432 48.0451 29.4416 48.9779 30.7711C49.9086 32.0976 50.8525 33.5709 51.567 34.9838C52.2675 36.369 52.8055 37.8062 52.8055 39.0274C52.8055 43.548 49.1408 47.2128 44.6202 47.2128C41.4875 47.2128 38.7658 45.4528 37.3899 42.8678ZM43.2644 29.5051C43.5732 29.1054 43.8621 28.7408 44.1191 28.4219C44.3046 28.1917 44.4732 27.9855 44.6202 27.8075C44.7673 27.9855 44.9358 28.1917 45.1214 28.4219C45.8031 29.2681 46.7104 30.4361 47.6159 31.7267C48.5235 33.0203 49.418 34.421 50.0823 35.7347C50.7606 37.0761 51.1417 38.2181 51.1417 39.0274C51.1417 42.6292 48.2219 45.5489 44.6202 45.5489C41.946 45.5489 39.6477 43.9393 38.6414 41.636C41.513 38.5133 43.2663 34.346 43.2663 29.7693C43.2663 29.681 43.2657 29.593 43.2644 29.5051ZM41.2103 32.3264C40.7775 34.9662 39.6858 37.3842 38.1096 39.4061C38.1024 39.2808 38.0987 39.1545 38.0987 39.0274C38.0987 38.2181 38.4799 37.0761 39.1582 35.7347C39.721 34.6217 40.449 33.4462 41.2103 32.3264Z"/>
</mask>
<path fill-rule="evenodd" clip-rule="evenodd" d="M10.0433 29.7693C10.0433 21.1055 17.0667 14.0821 25.7305 14.0821C34.2026 14.0821 41.1061 20.7981 41.4074 29.1967C41.0372 29.6892 40.65 30.2188 40.2625 30.7711C39.3318 32.0976 38.3879 33.5709 37.6734 34.9838C36.973 36.369 36.4349 37.8062 36.4349 39.0274C36.4349 39.71 36.5185 40.3731 36.6759 41.0069C33.8495 43.7603 29.988 45.4565 25.7305 45.4565C17.0667 45.4565 10.0433 38.4331 10.0433 29.7693ZM37.3899 42.8678C34.2912 45.628 30.2067 47.3051 25.7305 47.3051C16.0457 47.3051 8.19458 39.4541 8.19458 29.7693C8.19458 20.0845 16.0457 12.2334 25.7305 12.2334C34.5021 12.2334 41.7695 18.6737 43.062 27.0837C43.3057 26.7846 43.5119 26.5369 43.6677 26.3517C43.7699 26.2302 43.8505 26.1356 43.9058 26.071L43.9695 25.9969L43.9863 25.9774L43.9927 25.9701C44.1507 25.7886 44.3795 25.6843 44.6202 25.6843C44.8609 25.6843 45.0898 25.7886 45.2478 25.9701L45.2541 25.9774L45.271 25.9969L45.3346 26.071C45.39 26.1356 45.4706 26.2302 45.5728 26.3517C45.7771 26.5946 46.0682 26.9451 46.417 27.3781C47.114 28.2432 48.0451 29.4416 48.9779 30.7711C49.9086 32.0976 50.8525 33.5709 51.567 34.9838C52.2675 36.369 52.8055 37.8062 52.8055 39.0274C52.8055 43.548 49.1408 47.2128 44.6202 47.2128C41.4875 47.2128 38.7658 45.4528 37.3899 42.8678ZM43.2644 29.5051C43.5732 29.1054 43.8621 28.7408 44.1191 28.4219C44.3046 28.1917 44.4732 27.9855 44.6202 27.8075C44.7673 27.9855 44.9358 28.1917 45.1214 28.4219C45.8031 29.2681 46.7104 30.4361 47.6159 31.7267C48.5235 33.0203 49.418 34.421 50.0823 35.7347C50.7606 37.0761 51.1417 38.2181 51.1417 39.0274C51.1417 42.6292 48.2219 45.5489 44.6202 45.5489C41.946 45.5489 39.6477 43.9393 38.6414 41.636C41.513 38.5133 43.2663 34.346 43.2663 29.7693C43.2663 29.681 43.2657 29.593 43.2644 29.5051ZM41.2103 32.3264C40.7775 34.9662 39.6858 37.3842 38.1096 39.4061C38.1024 39.2808 38.0987 39.1545 38.0987 39.0274C38.0987 38.2181 38.4799 37.0761 39.1582 35.7347C39.721 34.6217 40.449 33.4462 41.2103 32.3264Z" fill="#F8F9FA"/>
<path d="M41.4074 29.1967L42.6064 30.098C42.8128 29.8234 42.9187 29.4862 42.9064 29.1429L41.4074 29.1967ZM40.2625 30.7711L39.0346 29.9096L39.0346 29.9096L40.2625 30.7711ZM37.6734 34.9838L39.012 35.6607L39.012 35.6607L37.6734 34.9838ZM36.6759 41.0069L37.7226 42.0814C38.1044 41.7094 38.2602 41.1627 38.1317 40.6454L36.6759 41.0069ZM37.3899 42.8678L38.714 42.163C38.4978 41.7567 38.107 41.4722 37.654 41.3912C37.201 41.3102 36.7358 41.4416 36.3922 41.7477L37.3899 42.8678ZM43.062 27.0837L41.5794 27.3116C41.6694 27.8975 42.0962 28.3755 42.6682 28.5311C43.2402 28.6867 43.8503 28.4908 44.2248 28.0313L43.062 27.0837ZM43.6677 26.3517L44.8155 27.3174L44.8155 27.3174L43.6677 26.3517ZM43.9058 26.071L42.7684 25.0931L42.7666 25.0952L43.9058 26.071ZM43.9695 25.9969L42.8349 25.0157L42.8321 25.019L43.9695 25.9969ZM43.9863 25.9774L42.8536 24.994L42.8518 24.9962L43.9863 25.9774ZM43.9927 25.9701L42.8611 24.9854L42.86 24.9867L43.9927 25.9701ZM45.2478 25.9701L46.3807 24.9871L46.3793 24.9854L45.2478 25.9701ZM45.2541 25.9774L46.3886 24.9961L46.3871 24.9944L45.2541 25.9774ZM45.271 25.9969L46.4084 25.019L46.4054 25.0155L45.271 25.9969ZM45.3346 26.071L46.4739 25.0952L46.4721 25.0931L45.3346 26.071ZM45.5728 26.3517L46.7206 25.386L46.7206 25.386L45.5728 26.3517ZM46.417 27.3781L45.2489 28.3192L45.2489 28.3192L46.417 27.3781ZM48.9779 30.7711L47.75 31.6326L47.75 31.6326L48.9779 30.7711ZM51.567 34.9838L50.2285 35.6607L50.2285 35.6607L51.567 34.9838ZM44.1191 28.4219L42.951 27.4809L42.951 27.4809L44.1191 28.4219ZM43.2644 29.5051L42.0775 28.5879C41.8699 28.8565 41.7595 29.1877 41.7645 29.5272L43.2644 29.5051ZM44.6202 27.8075L45.7767 26.8522C45.4917 26.5073 45.0677 26.3075 44.6202 26.3075C44.1728 26.3075 43.7487 26.5073 43.4638 26.8522L44.6202 27.8075ZM45.1214 28.4219L46.2894 27.4809L46.2894 27.4809L45.1214 28.4219ZM47.6159 31.7267L48.8438 30.8652L48.8438 30.8652L47.6159 31.7267ZM50.0823 35.7347L48.7437 36.4115L48.7437 36.4116L50.0823 35.7347ZM38.6414 41.636L37.5373 40.6206C37.1349 41.0581 37.0289 41.6919 37.2668 42.2365L38.6414 41.636ZM38.1096 39.4061L36.612 39.4918C36.6477 40.1156 37.0663 40.6519 37.6627 40.838C38.2591 41.0241 38.9084 40.8211 39.2925 40.3283L38.1096 39.4061ZM41.2103 32.3264L42.6905 32.569C42.8044 31.8745 42.42 31.1941 41.7663 30.9332C41.1126 30.6723 40.3654 30.901 39.9698 31.4831L41.2103 32.3264ZM39.1582 35.7347L40.4968 36.4116L40.4968 36.4115L39.1582 35.7347ZM25.7305 12.5821C16.2382 12.5821 8.54326 20.2771 8.54326 29.7693H11.5433C11.5433 21.9339 17.8951 15.5821 25.7305 15.5821V12.5821ZM42.9064 29.1429C42.5763 19.9403 35.013 12.5821 25.7305 12.5821V15.5821C33.3922 15.5821 39.6359 21.656 39.9084 29.2505L42.9064 29.1429ZM40.2084 28.2954C39.8298 28.7991 39.4328 29.342 39.0346 29.9096L41.4904 31.6326C41.8672 31.0956 42.2446 30.5794 42.6064 30.098L40.2084 28.2954ZM39.0346 29.9096C38.0831 31.2658 37.0946 32.8045 36.3348 34.307L39.012 35.6607C39.6812 34.3373 40.5805 32.9295 41.4904 31.6326L39.0346 29.9096ZM36.3348 34.307C35.6141 35.7323 34.9349 37.4351 34.9349 39.0274H37.9349C37.9349 38.1772 38.3319 37.0058 39.012 35.6607L36.3348 34.307ZM34.9349 39.0274C34.9349 39.8328 35.0336 40.6173 35.2201 41.3685L38.1317 40.6454C38.0034 40.1288 37.9349 39.5872 37.9349 39.0274H34.9349ZM25.7305 46.9565C30.3946 46.9565 34.6274 45.0966 37.7226 42.0814L35.6292 39.9325C33.0715 42.4241 29.5815 43.9565 25.7305 43.9565V46.9565ZM8.54326 29.7693C8.54326 39.2615 16.2382 46.9565 25.7305 46.9565V43.9565C17.8951 43.9565 11.5433 37.6046 11.5433 29.7693H8.54326ZM36.3922 41.7477C33.5576 44.2727 29.8248 45.8051 25.7305 45.8051V48.8051C30.5886 48.8051 35.0249 46.9833 38.3876 43.9878L36.3922 41.7477ZM25.7305 45.8051C16.8741 45.8051 9.69458 38.6256 9.69458 29.7693H6.69458C6.69458 40.2825 15.2172 48.8051 25.7305 48.8051V45.8051ZM9.69458 29.7693C9.69458 20.9129 16.8741 13.7334 25.7305 13.7334V10.7334C15.2172 10.7334 6.69458 19.256 6.69458 29.7693H9.69458ZM25.7305 13.7334C33.7504 13.7334 40.3976 19.6223 41.5794 27.3116L44.5446 26.8558C43.1413 17.7252 35.2538 10.7334 25.7305 10.7334V13.7334ZM42.5199 25.386C42.3595 25.5766 42.1483 25.8304 41.8992 26.1361L44.2248 28.0313C44.4631 27.7388 44.6642 27.4971 44.8155 27.3174L42.5199 25.386ZM42.7666 25.0952C42.7085 25.163 42.6251 25.261 42.5199 25.386L44.8155 27.3174C44.9147 27.1995 44.9924 27.1082 45.0451 27.0467L42.7666 25.0952ZM42.8321 25.019L42.7684 25.0931L45.0432 27.0488L45.1069 26.9748L42.8321 25.019ZM42.8518 24.9962L42.8349 25.0157L45.104 26.9781L45.1209 26.9587L42.8518 24.9962ZM42.86 24.9867L42.8537 24.994L45.119 26.9609L45.1253 26.9535L42.86 24.9867ZM45.1242 26.9548C44.9973 27.1006 44.8135 27.1843 44.6202 27.1843V24.1843C43.9456 24.1843 43.304 24.4765 42.8611 24.9854L45.1242 26.9548ZM44.6202 27.1843C44.4269 27.1843 44.2431 27.1006 44.1162 26.9548L46.3793 24.9854C45.9364 24.4765 45.2949 24.1843 44.6202 24.1843V27.1843ZM46.3871 24.9944L46.3807 24.9871L44.1148 26.9532L44.1212 26.9605L46.3871 24.9944ZM46.4054 25.0155L46.3886 24.9961L44.1197 26.9588L44.1365 26.9782L46.4054 25.0155ZM46.4721 25.0931L46.4084 25.019L44.1335 26.9747L44.1972 27.0488L46.4721 25.0931ZM46.7206 25.386C46.6154 25.261 46.5319 25.163 46.4739 25.0952L44.1954 27.0468C44.248 27.1082 44.3258 27.1995 44.425 27.3174L46.7206 25.386ZM47.5851 26.437C47.2287 25.9947 46.9309 25.6359 46.7206 25.386L44.425 27.3174C44.6234 27.5532 44.9076 27.8955 45.2489 28.3192L47.5851 26.437ZM50.2058 29.9096C49.2484 28.545 48.2958 27.3192 47.5851 26.437L45.2489 28.3192C45.9322 29.1672 46.8418 30.3382 47.75 31.6326L50.2058 29.9096ZM52.9056 34.307C52.1459 32.8045 51.1574 31.2658 50.2058 29.9096L47.75 31.6326C48.6599 32.9295 49.5592 34.3373 50.2285 35.6607L52.9056 34.307ZM54.3055 39.0274C54.3055 37.4351 53.6264 35.7323 52.9056 34.307L50.2285 35.6607C50.9086 37.0058 51.3055 38.1772 51.3055 39.0274H54.3055ZM44.6202 48.7128C49.9693 48.7128 54.3055 44.3765 54.3055 39.0274H51.3055C51.3055 42.7196 48.3124 45.7128 44.6202 45.7128V48.7128ZM36.0658 43.5725C37.6918 46.6275 40.9113 48.7128 44.6202 48.7128V45.7128C42.0637 45.7128 39.8398 44.2782 38.714 42.163L36.0658 43.5725ZM42.951 27.4809C42.6884 27.8068 42.3931 28.1794 42.0775 28.5879L44.4513 30.4222C44.7533 30.0315 45.0359 29.6749 45.2871 29.363L42.951 27.4809ZM43.4638 26.8522C43.3131 27.0346 43.1407 27.2455 42.951 27.4809L45.2871 29.363C45.4686 29.1378 45.6333 28.9364 45.7767 28.7629L43.4638 26.8522ZM46.2894 27.4809C46.0998 27.2455 45.9273 27.0346 45.7767 26.8522L43.4638 28.7628C43.6072 28.9364 43.7719 29.1378 43.9533 29.363L46.2894 27.4809ZM48.8438 30.8652C47.9137 29.5395 46.9849 28.3441 46.2894 27.4809L43.9533 29.363C44.6213 30.1921 45.5071 31.3327 46.388 32.5882L48.8438 30.8652ZM51.4208 35.0578C50.7113 33.6546 49.7723 32.1884 48.8438 30.8652L46.388 32.5882C47.2748 33.8522 48.1247 35.1875 48.7437 36.4115L51.4208 35.0578ZM52.6417 39.0274C52.6417 37.8462 52.1187 36.4378 51.4208 35.0578L48.7437 36.4116C49.4024 37.7143 49.6417 38.59 49.6417 39.0274H52.6417ZM44.6202 47.0489C49.0504 47.0489 52.6417 43.4576 52.6417 39.0274H49.6417C49.6417 41.8007 47.3935 44.0489 44.6202 44.0489V47.0489ZM37.2668 42.2365C38.5033 45.0665 41.3286 47.0489 44.6202 47.0489V44.0489C42.5634 44.0489 40.7921 42.8121 40.0159 41.0354L37.2668 42.2365ZM41.7663 29.7693C41.7663 33.9554 40.1643 37.7639 37.5373 40.6206L39.7455 42.6513C42.8617 39.2627 44.7663 34.7367 44.7663 29.7693H41.7663ZM41.7645 29.5272C41.7657 29.6077 41.7663 29.6884 41.7663 29.7693H44.7663C44.7663 29.6737 44.7656 29.5782 44.7642 29.4829L41.7645 29.5272ZM39.2925 40.3283C41.0189 38.1139 42.216 35.4635 42.6905 32.569L39.73 32.0837C39.339 34.4689 38.3527 36.6546 36.9266 38.4838L39.2925 40.3283ZM36.5987 39.0274C36.5987 39.1832 36.6032 39.338 36.612 39.4918L39.6071 39.3204C39.6016 39.2236 39.5987 39.1259 39.5987 39.0274H36.5987ZM37.8196 35.0578C37.1218 36.4378 36.5987 37.8462 36.5987 39.0274H39.5987C39.5987 38.59 39.838 37.7143 40.4968 36.4116L37.8196 35.0578ZM39.9698 31.4831C39.1878 32.6334 38.4218 33.867 37.8196 35.0578L40.4968 36.4115C41.0202 35.3764 41.7102 34.2591 42.4508 33.1696L39.9698 31.4831Z" fill="#F8F9FA" mask="url(#path-1-outside-1_50_8525)"/>
<circle cx="25.8065" cy="29.7688" r="16.6115" fill="#DBE4FF" stroke="#212529" stroke-width="2" stroke-linejoin="round"/>
<path d="M41.8156 34.5742L10.1578 34.8184C11.2969 38.7537 16.2484 46.3801 25.9652 46.3801C35.6819 46.3801 40.5807 38.5095 41.8156 34.5742Z" fill="#F3F0FF" stroke="#212529" stroke-width="1.4" stroke-linecap="round"/>
<circle cx="25.8064" cy="17.3437" r="1.02147" fill="#862E9C"/>
<circle r="1.02147" transform="matrix(-1 0 0 1 32.1585 19.0117)" fill="#862E9C"/>
<circle r="1.02147" transform="matrix(-1 0 0 1 36.7162 23.5898)" fill="#862E9C"/>
<circle r="1.02147" transform="matrix(-1 0 0 1 38.3643 29.3769)" fill="#862E9C"/>
<circle r="1.02147" transform="matrix(-1 0 0 1 25.8064 17.3437)" fill="#862E9C"/>
<circle cx="19.4543" cy="19.0117" r="1.02147" fill="#862E9C"/>
<circle cx="14.8966" cy="23.5898" r="1.02147" fill="#862E9C"/>
<circle cx="13.2485" cy="29.3769" r="1.02147" fill="#862E9C"/>
<rect x="30.6915" y="22.2676" width="1.33076" height="12.4668" rx="0.665381" transform="rotate(23.3438 30.6915 22.2676)" fill="#212529"/>
<rect opacity="0.2" x="21.0941" y="40" width="4.4285" height="1.42005" rx="0.710024" fill="#212529"/>
<rect opacity="0.2" x="26.4247" y="40" width="4.4285" height="1.42005" rx="0.710024" fill="#212529"/>
<circle cx="25.9736" cy="34.8787" r="2.31646" transform="rotate(23.3438 25.9736 34.8787)" fill="#91A7FF" stroke="#212529" stroke-width="1.4" stroke-linecap="round"/>
<path d="M52.0497 39.0268C52.0497 43.088 48.7575 46.3802 44.6963 46.3802C40.6351 46.3802 37.3429 43.088 37.3429 39.0268C37.3429 34.9657 44.6963 26.5156 44.6963 26.5156C44.6963 26.5156 52.0497 34.9657 52.0497 39.0268Z" fill="#4DABF7" stroke="#212529" stroke-width="1.8" stroke-linecap="round" stroke-linejoin="round"/>
<g style="mix-blend-mode:soft-light" opacity="0.8">
<path d="M41.6688 33.9331C41.266 33.8963 40.584 35.0299 40.079 36.7454C39.5625 38.4998 39.7233 39.722 40.205 39.8921C40.8071 40.1047 41.5551 38.0665 41.6289 37.1628C41.9288 35.4486 42.1723 33.979 41.6688 33.9331Z" fill="#F8F9FA"/>
</g>
</svg>
