<svg width="60" height="60" viewBox="0 0 60 60" fill="none" xmlns="http://www.w3.org/2000/svg">
<path d="M13.65 29.7236C13.65 20.6938 20.9701 13.3736 30 13.3736C39.0298 13.3736 46.35 20.6938 46.35 29.7236C46.35 33.6242 44.9868 37.2006 42.7089 40.0108C42.1488 40.7018 42.0208 41.6594 42.4025 42.4815L43.3535 44.5298L40.9749 43.4148C40.2423 43.0714 39.393 43.1317 38.7209 43.5564C36.1982 45.1506 33.2102 46.0736 30 46.0736C20.9701 46.0736 13.65 38.7535 13.65 29.7236ZM30 9.07361C18.5953 9.07361 9.34998 18.3189 9.34998 29.7236C9.34998 41.1283 18.5953 50.3736 30 50.3736C33.6593 50.3736 37.1014 49.42 40.0856 47.7469L46.3821 50.6984C48.369 51.6297 50.4351 49.5713 49.511 47.5809L46.7977 41.7369C49.222 38.3524 50.65 34.2022 50.65 29.7236C50.65 18.3189 41.4047 9.07361 30 9.07361Z" fill="#F8F9FA" stroke="#F8F9FA" stroke-width="1.5" stroke-linecap="round" stroke-linejoin="round"/>
<path fill-rule="evenodd" clip-rule="evenodd" d="M44.3526 41.5787C44.3202 41.5089 44.3307 41.4269 44.3791 41.3672C46.9561 38.188 48.5 34.1374 48.5 29.7262C48.5 19.5089 40.2173 11.2262 30 11.2262C19.7827 11.2262 11.5 19.5089 11.5 29.7262C11.5 39.9435 19.7827 48.2262 30 48.2262C33.6286 48.2262 37.0132 47.1815 39.8695 45.3765C39.9275 45.3398 40.0002 45.335 40.0624 45.3641L47.2947 48.7542C47.4638 48.8335 47.6396 48.6583 47.5609 48.4889L44.3526 41.5787Z" fill="#69DB7C"/>
<path d="M39.8695 45.3765L40.5105 46.3909L39.8695 45.3765ZM40.0624 45.3641L39.5531 46.4507L40.0624 45.3641ZM47.2947 48.7542L46.7853 49.8408L47.2947 48.7542ZM47.5609 48.4889L48.6494 47.9836L47.5609 48.4889ZM44.3791 41.3672L45.3114 42.1228L44.3791 41.3672ZM44.3526 41.5787L43.2642 42.084L44.3526 41.5787ZM47.3 29.7262C47.3 33.8524 45.857 37.6383 43.4469 40.6116L45.3114 42.1228C48.0552 38.7377 49.7 34.4224 49.7 29.7262H47.3ZM30 12.4262C39.5545 12.4262 47.3 20.1717 47.3 29.7262H49.7C49.7 18.8462 40.88 10.0262 30 10.0262V12.4262ZM12.7 29.7262C12.7 20.1717 20.4455 12.4262 30 12.4262V10.0262C19.12 10.0262 10.3 18.8462 10.3 29.7262H12.7ZM30 47.0262C20.4455 47.0262 12.7 39.2807 12.7 29.7262H10.3C10.3 40.6062 19.12 49.4262 30 49.4262V47.0262ZM39.2284 44.3621C36.5583 46.0494 33.3951 47.0262 30 47.0262V49.4262C33.8621 49.4262 37.4681 48.3136 40.5105 46.3909L39.2284 44.3621ZM39.5531 46.4507L46.7853 49.8408L47.804 47.6677L40.5717 44.2776L39.5531 46.4507ZM48.6494 47.9836L45.441 41.0733L43.2642 42.084L46.4725 48.9943L48.6494 47.9836ZM40.5105 46.3909C40.2257 46.5709 39.865 46.5969 39.5531 46.4507L40.5717 44.2776C40.1355 44.0731 39.6293 44.1087 39.2284 44.3621L40.5105 46.3909ZM46.7853 49.8408C47.969 50.3956 49.1999 49.1693 48.6494 47.9836L46.4725 48.9943C46.0793 48.1473 46.9585 47.2714 47.804 47.6677L46.7853 49.8408ZM43.4469 40.6116C43.1128 41.0238 43.0369 41.5945 43.2642 42.084L45.441 41.0733C45.6035 41.4233 45.5487 41.83 45.3114 42.1228L43.4469 40.6116Z" fill="#212529"/>
<g style="mix-blend-mode:soft-light" opacity="0.7">
<path d="M21.9607 16.9167C20.3538 16.8108 18.7893 18.7462 17.8359 20.175C15.0559 24.2311 16.7444 25.0569 17.1298 25.0618C17.5152 25.0668 18.5776 23.3332 19.9398 21.1565C21.302 18.9798 23.9692 17.0492 21.9607 16.9167Z" fill="#F8F9FA"/>
</g>
<g style="mix-blend-mode:multiply" opacity="0.6">
<path fill-rule="evenodd" clip-rule="evenodd" d="M41.8409 41.209C41.7989 41.268 41.7915 41.3449 41.822 41.4105L44.2489 46.6376L46.0398 47.4771C46.2089 47.5564 46.3847 47.3812 46.3061 47.2118L43.3337 40.8096C43.3013 40.7399 43.3118 40.6579 43.3602 40.5981C45.7598 37.6348 47.1972 33.8604 47.1972 29.7503C47.1972 20.7132 40.248 13.2992 31.4017 12.5605C39.3111 14.2118 45.2734 21.5487 45.2734 30.3497C45.2734 34.4225 43.9966 38.1817 41.8409 41.209Z" fill="#69DB7C"/>
</g>
<path d="M30.1842 22.6547C29.856 22.6547 29.5513 22.575 29.2701 22.4156C28.9982 22.2469 28.7826 22.0266 28.6232 21.7547C28.4638 21.4734 28.3842 21.1734 28.3842 20.8547V20.4188C28.3842 20.1 28.4638 19.8047 28.6232 19.5328C28.7826 19.2516 28.9982 19.0313 29.2701 18.8719C29.5513 18.7031 29.856 18.6188 30.1842 18.6188C30.5123 18.6188 30.8123 18.7031 31.0842 18.8719C31.3654 19.0313 31.5857 19.2516 31.7451 19.5328C31.9045 19.8047 31.9842 20.1 31.9842 20.4188V20.8547C31.9842 21.1734 31.9045 21.4734 31.7451 21.7547C31.5857 22.0266 31.3654 22.2469 31.0842 22.4156C30.8123 22.575 30.5123 22.6547 30.1842 22.6547ZM30.1842 40.7953C29.6873 40.7953 29.2701 40.6547 28.9326 40.3734C28.5951 40.0828 28.4263 39.6938 28.4263 39.2063V26.4234C28.4263 25.9453 28.5904 25.5703 28.9185 25.2984C29.256 25.0172 29.6779 24.8766 30.1842 24.8766C30.6904 24.8766 31.1123 25.0172 31.4498 25.2984C31.7873 25.5703 31.956 25.9453 31.956 26.4234V39.2063C31.956 39.6938 31.7873 40.0828 31.4498 40.3734C31.1123 40.6547 30.6904 40.7953 30.1842 40.7953Z" fill="#212529"/>
</svg>
