<svg width="60" height="61" viewBox="0 0 60 61" fill="none" xmlns="http://www.w3.org/2000/svg">
<mask id="path-1-outside-1_50_2514" maskUnits="userSpaceOnUse" x="7.349" y="8.3877" width="46" height="47" fill="black">
<rect fill="white" x="7.349" y="8.3877" width="46" height="47"/>
<path fill-rule="evenodd" clip-rule="evenodd" d="M9.349 29.8842C9.349 19.1166 18.0779 10.3877 28.8455 10.3877C39.6132 10.3877 48.3421 19.1166 48.3421 29.8842C48.3421 32.7216 47.7359 35.4174 46.6461 37.8493L51.1724 39.3725C51.4854 39.4778 51.7066 39.758 51.7363 40.0869C51.766 40.4157 51.5986 40.7311 51.3096 40.8908L45.6755 44.0042L50.7588 49.8077C50.9073 49.9772 50.9807 50.1997 50.9623 50.4244C50.944 50.649 50.8353 50.8566 50.6612 50.9998L47.5019 53.5974C47.3299 53.7388 47.1086 53.8054 46.8872 53.7825C46.6658 53.7596 46.4627 53.649 46.3234 53.4754L41.5407 47.5166L37.5031 52.6579C37.2947 52.9231 36.947 53.0366 36.6223 52.9451C36.2976 52.8537 36.0602 52.5754 36.0209 52.2404L35.5471 48.1985C33.4573 48.9633 31.2002 49.3808 28.8455 49.3808C18.0779 49.3808 9.349 40.6519 9.349 29.8842Z"/>
</mask>
<path fill-rule="evenodd" clip-rule="evenodd" d="M9.349 29.8842C9.349 19.1166 18.0779 10.3877 28.8455 10.3877C39.6132 10.3877 48.3421 19.1166 48.3421 29.8842C48.3421 32.7216 47.7359 35.4174 46.6461 37.8493L51.1724 39.3725C51.4854 39.4778 51.7066 39.758 51.7363 40.0869C51.766 40.4157 51.5986 40.7311 51.3096 40.8908L45.6755 44.0042L50.7588 49.8077C50.9073 49.9772 50.9807 50.1997 50.9623 50.4244C50.944 50.649 50.8353 50.8566 50.6612 50.9998L47.5019 53.5974C47.3299 53.7388 47.1086 53.8054 46.8872 53.7825C46.6658 53.7596 46.4627 53.649 46.3234 53.4754L41.5407 47.5166L37.5031 52.6579C37.2947 52.9231 36.947 53.0366 36.6223 52.9451C36.2976 52.8537 36.0602 52.5754 36.0209 52.2404L35.5471 48.1985C33.4573 48.9633 31.2002 49.3808 28.8455 49.3808C18.0779 49.3808 9.349 40.6519 9.349 29.8842Z" fill="#F8F9FA"/>
<path d="M46.6461 37.8493L45.2773 37.2358C45.1043 37.6219 45.1023 38.063 45.2719 38.4505C45.4415 38.8381 45.7668 39.136 46.1677 39.2709L46.6461 37.8493ZM51.1724 39.3725L50.694 40.7941L50.694 40.7941L51.1724 39.3725ZM51.3096 40.8908L50.5841 39.5779L50.5841 39.5779L51.3096 40.8908ZM45.6755 44.0042L44.95 42.6914C44.5527 42.9109 44.2762 43.2985 44.1979 43.7456C44.1197 44.1927 44.2481 44.6512 44.5471 44.9926L45.6755 44.0042ZM50.7588 49.8077L49.6304 50.796L49.6304 50.796L50.7588 49.8077ZM50.9623 50.4244L49.4673 50.302L49.4673 50.302L50.9623 50.4244ZM50.6612 50.9998L51.6139 52.1584L51.6139 52.1584L50.6612 50.9998ZM47.5019 53.5974L48.4545 54.756L48.4545 54.756L47.5019 53.5974ZM46.8872 53.7825L47.0416 52.2905L47.0416 52.2905L46.8872 53.7825ZM46.3234 53.4754L45.1536 54.4143L45.1536 54.4143L46.3234 53.4754ZM41.5407 47.5166L42.7105 46.5777C42.4241 46.2208 41.9904 46.0142 41.5327 46.0166C41.0751 46.019 40.6437 46.2302 40.361 46.5901L41.5407 47.5166ZM37.5031 52.6579L38.6828 53.5843L38.6828 53.5843L37.5031 52.6579ZM36.0209 52.2404L34.5311 52.4151L34.5311 52.4151L36.0209 52.2404ZM35.5471 48.1985L37.0368 48.0238C36.9834 47.5679 36.7241 47.1615 36.3331 46.9209C35.9422 46.6804 35.4626 46.6321 35.0315 46.7899L35.5471 48.1985ZM28.8455 8.8877C17.2495 8.8877 7.849 18.2882 7.849 29.8842H10.849C10.849 19.945 18.9063 11.8877 28.8455 11.8877V8.8877ZM49.8421 29.8842C49.8421 18.2882 40.4416 8.8877 28.8455 8.8877V11.8877C38.7847 11.8877 46.8421 19.945 46.8421 29.8842H49.8421ZM48.015 38.4627C49.1896 35.8417 49.8421 32.9371 49.8421 29.8842H46.8421C46.8421 32.5061 46.2823 34.9932 45.2773 37.2358L48.015 38.4627ZM46.1677 39.2709L50.694 40.7941L51.6509 37.9508L47.1246 36.4276L46.1677 39.2709ZM50.694 40.7941C50.4433 40.7098 50.2662 40.4853 50.2424 40.2218L53.2302 39.9519C53.147 39.0308 52.5274 38.2458 51.6509 37.9508L50.694 40.7941ZM50.2424 40.2218C50.2186 39.9584 50.3526 39.7058 50.5841 39.5779L52.0351 42.2036C52.8446 41.7563 53.3134 40.873 53.2302 39.9519L50.2424 40.2218ZM50.5841 39.5779L44.95 42.6914L46.401 45.3171L52.0351 42.2036L50.5841 39.5779ZM44.5471 44.9926L49.6304 50.796L51.8871 48.8194L46.8038 43.0159L44.5471 44.9926ZM49.6304 50.796C49.5115 50.6602 49.4526 50.482 49.4673 50.302L52.4573 50.5467C52.5089 49.9175 52.3031 49.2943 51.8871 48.8194L49.6304 50.796ZM49.4673 50.302C49.4821 50.1221 49.5691 49.9558 49.7086 49.8411L51.6139 52.1584C52.1015 51.7575 52.4059 51.176 52.4574 50.5467L49.4673 50.302ZM49.7086 49.8411L46.5492 52.4387L48.4545 54.756L51.6139 52.1584L49.7086 49.8411ZM46.5492 52.4387C46.6869 52.3255 46.8643 52.2721 47.0416 52.2905L46.7327 55.2745C47.3528 55.3387 47.9729 55.152 48.4545 54.756L46.5492 52.4387ZM47.0416 52.2905C47.219 52.3088 47.3816 52.3974 47.4932 52.5365L45.1536 54.4143C45.5439 54.9005 46.1125 55.2103 46.7327 55.2745L47.0416 52.2905ZM47.4932 52.5365L42.7105 46.5777L40.3709 48.4555L45.1536 54.4143L47.4932 52.5365ZM40.361 46.5901L36.3234 51.7314L38.6828 53.5843L42.7204 48.443L40.361 46.5901ZM36.3234 51.7314C36.4903 51.5189 36.7688 51.428 37.0289 51.5013L36.2157 54.389C37.1251 54.6451 38.0992 54.3274 38.6828 53.5843L36.3234 51.7314ZM37.0289 51.5013C37.289 51.5745 37.4792 51.7974 37.5107 52.0658L34.5311 52.4151C34.6411 53.3535 35.3062 54.1328 36.2157 54.389L37.0289 51.5013ZM37.5107 52.0658L37.0368 48.0238L34.0573 48.3731L34.5311 52.4151L37.5107 52.0658ZM28.8455 50.8808C31.3786 50.8808 33.8102 50.4315 36.0626 49.6071L35.0315 46.7899C33.1045 47.4952 31.0217 47.8808 28.8455 47.8808V50.8808ZM7.849 29.8842C7.849 41.4803 17.2495 50.8808 28.8455 50.8808V47.8808C18.9063 47.8808 10.849 39.8234 10.849 29.8842H7.849Z" fill="#F8F9FA" mask="url(#path-1-outside-1_50_2514)"/>
<circle cx="28.8375" cy="29.8817" r="18.6637" fill="#D0BFFF" stroke="#212529" stroke-width="1.8" stroke-linecap="round" stroke-linejoin="round"/>
<g style="mix-blend-mode:multiply">
<path fill-rule="evenodd" clip-rule="evenodd" d="M27.7899 48.5011C37.6103 47.9578 45.406 39.8224 45.406 29.8663C45.406 19.9102 37.6103 11.7749 27.7899 11.2315C28.1367 11.2124 28.4859 11.2026 28.8375 11.2026C39.1452 11.2026 47.5012 19.5587 47.5012 29.8663C47.5012 40.174 39.1452 48.53 28.8375 48.53C28.4859 48.53 28.1367 48.5203 27.7899 48.5011Z" fill="#DEE2E6"/>
</g>
<path d="M28.8375 48.7495C35.9731 44.8601 38.6881 37.4184 38.6881 30.0858C38.6881 21.6452 34.5689 15.2537 28.8375 11.4221" stroke="#212529" stroke-width="1.2" stroke-linecap="round" stroke-linejoin="round"/>
<path d="M29.1222 48.7495C21.9866 44.8601 19.2716 37.4184 19.2716 30.0858C19.2716 21.6452 23.3909 15.2537 29.1222 11.4221" stroke="#212529" stroke-width="1.2" stroke-linecap="round" stroke-linejoin="round"/>
<path d="M10.3488 29.9761H47.1965" stroke="#212529" stroke-width="1.2" stroke-linecap="round" stroke-linejoin="round"/>
<path d="M29.1222 11.2026L29.1222 48.7495" stroke="#212529" stroke-width="1.2" stroke-linecap="round" stroke-linejoin="round"/>
<path d="M14.4132 17.5125C17.2877 18.9831 20.7025 21.9244 28.6518 21.9244C35.9431 21.9244 39.6147 18.9831 42.2886 17.5125" stroke="#212529" stroke-width="1.2" stroke-linecap="round" stroke-linejoin="round"/>
<path d="M15.3865 41.3254C18.1606 39.9061 21.4562 37.0676 29.1279 37.0676C36.1647 37.0676 39.708 39.9061 42.2886 41.3254" stroke="#212529" stroke-width="1.2" stroke-linecap="round" stroke-linejoin="round"/>
<g style="mix-blend-mode:multiply">
<circle cx="37.1051" cy="21.0009" r="2.60731" fill="#DEE2E6"/>
</g>
<circle cx="36.5929" cy="20.214" r="2.09515" fill="#94D82D" stroke="#212529" stroke-width="1.2"/>
<g style="mix-blend-mode:multiply">
<circle cx="19.7838" cy="30.4882" r="2.60731" fill="#DEE2E6"/>
</g>
<circle cx="19.2717" cy="29.976" r="2.09515" fill="#FCC419" stroke="#212529" stroke-width="1.2"/>
<circle cx="37.1832" cy="38.4389" r="2.09515" fill="#212529"/>
<path fill-rule="evenodd" clip-rule="evenodd" d="M41.5255 46.1734L46.9649 52.9502L50.1242 50.3526L44.3597 43.7715L50.8987 40.158L34.8003 34.7405L36.84 52.1396L41.5255 46.1734Z" fill="#F1F3F5" stroke="#212529" stroke-width="1.6" stroke-linecap="round" stroke-linejoin="round"/>
<g style="mix-blend-mode:multiply">
<path fill-rule="evenodd" clip-rule="evenodd" d="M47.9151 51.8159L42.4758 45.0391L41.3081 45.3891L39.0254 49.3568L41.5255 46.1734L46.9648 52.9502L50.1242 50.3526L49.9993 50.21L47.9151 51.8159ZM45.9643 42.8848L50.8987 40.158L50.3121 39.9606L45.6565 42.5333L45.9643 42.8848ZM36.3014 35.2457L38.0946 50.542L36.84 52.1396L34.8003 34.7405L36.3014 35.2457Z" fill="#DEE2E6"/>
</g>
</svg>
