<svg width="60" height="61" viewBox="0 0 60 61" fill="none" xmlns="http://www.w3.org/2000/svg">
<mask id="path-1-outside-1_50_2602" maskUnits="userSpaceOnUse" x="3.26697" y="12.7935" width="53" height="36" fill="black">
<rect fill="white" x="3.26697" y="12.7935" width="53" height="36"/>
<path fill-rule="evenodd" clip-rule="evenodd" d="M10.0607 14.7935C8.54681 14.7935 7.31955 16.0207 7.31955 17.5346V43.7465H6.21221C5.69017 43.7465 5.26698 44.1697 5.26698 44.6918V45.986C5.26698 46.508 5.69018 46.9312 6.21221 46.9312H53.7878C54.3098 46.9312 54.733 46.508 54.733 45.986V44.6918C54.733 44.1697 54.3098 43.7465 53.7878 43.7465H52.6806V17.5346C52.6806 16.0207 51.4533 14.7935 49.9394 14.7935H10.0607ZM9.02095 17.5346C9.02095 16.9604 9.48647 16.4949 10.0607 16.4949H49.9394C50.5137 16.4949 50.9792 16.9604 50.9792 17.5346V43.112H9.02095V17.5346ZM6.40125 45.7969V44.8808H53.5988V45.7969H6.40125Z"/>
</mask>
<path fill-rule="evenodd" clip-rule="evenodd" d="M10.0607 14.7935C8.54681 14.7935 7.31955 16.0207 7.31955 17.5346V43.7465H6.21221C5.69017 43.7465 5.26698 44.1697 5.26698 44.6918V45.986C5.26698 46.508 5.69018 46.9312 6.21221 46.9312H53.7878C54.3098 46.9312 54.733 46.508 54.733 45.986V44.6918C54.733 44.1697 54.3098 43.7465 53.7878 43.7465H52.6806V17.5346C52.6806 16.0207 51.4533 14.7935 49.9394 14.7935H10.0607ZM9.02095 17.5346C9.02095 16.9604 9.48647 16.4949 10.0607 16.4949H49.9394C50.5137 16.4949 50.9792 16.9604 50.9792 17.5346V43.112H9.02095V17.5346ZM6.40125 45.7969V44.8808H53.5988V45.7969H6.40125Z" fill="#F8F9FA"/>
<path d="M7.31953 43.7465V45.2465C8.14796 45.2465 8.81953 44.575 8.81953 43.7465H7.31953ZM52.6806 43.7465H51.1806C51.1806 44.575 51.8521 45.2465 52.6806 45.2465V43.7465ZM50.9791 43.112V44.612C51.8076 44.612 52.4791 43.9404 52.4791 43.112H50.9791ZM9.02094 43.112H7.52094C7.52094 43.9404 8.19251 44.612 9.02094 44.612V43.112ZM6.40124 44.8808V43.3808C5.57281 43.3808 4.90124 44.0524 4.90124 44.8808H6.40124ZM6.40124 45.7969H4.90124C4.90124 46.6253 5.57281 47.2969 6.40124 47.2969V45.7969ZM53.5987 44.8808H55.0987C55.0987 44.0524 54.4272 43.3808 53.5987 43.3808V44.8808ZM53.5987 45.7969V47.2969C54.4272 47.2969 55.0987 46.6253 55.0987 45.7969H53.5987ZM8.81953 17.5346C8.81953 16.8491 9.37522 16.2935 10.0607 16.2935V13.2935C7.71836 13.2935 5.81953 15.1923 5.81953 17.5346H8.81953ZM8.81953 43.7465V17.5346H5.81953V43.7465H8.81953ZM7.31953 42.2465H6.21219V45.2465H7.31953V42.2465ZM6.21219 42.2465C4.86173 42.2465 3.76697 43.3413 3.76697 44.6918H6.76697C6.76697 44.9981 6.51859 45.2465 6.21219 45.2465V42.2465ZM3.76697 44.6918V45.986H6.76697V44.6918H3.76697ZM3.76697 45.986C3.76697 47.3364 4.86174 48.4312 6.21219 48.4312V45.4312C6.51858 45.4312 6.76697 45.6796 6.76697 45.986H3.76697ZM6.21219 48.4312H53.7878V45.4312H6.21219V48.4312ZM53.7878 48.4312C55.1382 48.4312 56.233 47.3364 56.233 45.986H53.233C53.233 45.6796 53.4814 45.4312 53.7878 45.4312V48.4312ZM56.233 45.986V44.6918H53.233V45.986H56.233ZM56.233 44.6918C56.233 43.3413 55.1382 42.2465 53.7878 42.2465V45.2465C53.4814 45.2465 53.233 44.9982 53.233 44.6918H56.233ZM53.7878 42.2465H52.6806V45.2465H53.7878V42.2465ZM51.1806 17.5346V43.7465H54.1806V17.5346H51.1806ZM49.9394 16.2935C50.6249 16.2935 51.1806 16.8491 51.1806 17.5346H54.1806C54.1806 15.1923 52.2817 13.2935 49.9394 13.2935V16.2935ZM10.0607 16.2935H49.9394V13.2935H10.0607V16.2935ZM10.0607 14.9949C8.65802 14.9949 7.52094 16.1319 7.52094 17.5346H10.5209C10.5209 17.7888 10.3149 17.9949 10.0607 17.9949V14.9949ZM49.9394 14.9949H10.0607V17.9949H49.9394V14.9949ZM52.4791 17.5346C52.4791 16.132 51.3421 14.9949 49.9394 14.9949V17.9949C49.6852 17.9949 49.4791 17.7888 49.4791 17.5346H52.4791ZM52.4791 43.112V17.5346H49.4791V43.112H52.4791ZM9.02094 44.612H50.9791V41.612H9.02094V44.612ZM7.52094 17.5346V43.112H10.5209V17.5346H7.52094ZM4.90124 44.8808V45.7969H7.90124V44.8808H4.90124ZM53.5987 43.3808H6.40124V46.3808H53.5987V43.3808ZM55.0987 45.7969V44.8808H52.0987V45.7969H55.0987ZM6.40124 47.2969H53.5987V44.2969H6.40124V47.2969Z" fill="#F8F9FA" mask="url(#path-1-outside-1_50_2602)"/>
<path d="M8.17017 17.644C8.17017 16.5395 9.0656 15.644 10.1702 15.644H49.8298C50.9344 15.644 51.8298 16.5395 51.8298 17.644V43.9626H8.17017V17.644Z" fill="#E9ECEF" stroke="#212529" stroke-width="1.8" stroke-linejoin="round"/>
<mask id="path-4-inside-2_50_2602" fill="white">
<rect x="5.26697" y="43.7466" width="49.466" height="3.18465" rx="1"/>
</mask>
<rect x="5.26697" y="43.7466" width="49.466" height="3.18465" rx="1" fill="#DEE2E6" stroke="#212529" stroke-width="2.4" mask="url(#path-4-inside-2_50_2602)"/>
<g style="mix-blend-mode:multiply">
<rect x="21.4045" y="22.4805" width="16.2896" height="11.5863" rx="1" fill="#E9ECEF"/>
</g>
<g style="mix-blend-mode:multiply">
<rect x="15.5034" y="38.0093" width="3.36415" height="3.36415" rx="1" fill="#E9ECEF"/>
</g>
<g style="mix-blend-mode:multiply">
<rect x="19.7225" y="38.0093" width="3.36415" height="3.36415" rx="1" fill="#E9ECEF"/>
</g>
<g style="mix-blend-mode:multiply">
<rect x="23.9417" y="38.0093" width="3.36415" height="3.36415" rx="1" fill="#E9ECEF"/>
</g>
<g style="mix-blend-mode:multiply">
<rect x="28.1608" y="38.0093" width="3.36415" height="3.36415" rx="1" fill="#E9ECEF"/>
</g>
<g style="mix-blend-mode:multiply">
<rect x="32.3799" y="38.0093" width="3.36415" height="3.36415" rx="1" fill="#E9ECEF"/>
</g>
<g style="mix-blend-mode:multiply">
<rect x="36.599" y="38.0093" width="3.36415" height="3.36415" rx="1" fill="#E9ECEF"/>
</g>
<g style="mix-blend-mode:multiply">
<rect x="40.8181" y="38.0093" width="3.36415" height="3.36415" rx="1" fill="#E9ECEF"/>
</g>
</svg>
