<svg width="60" height="61" viewBox="0 0 60 61" fill="none" xmlns="http://www.w3.org/2000/svg">
<mask id="path-1-outside-1_50_708" maskUnits="userSpaceOnUse" x="5.50037" y="9.86072" width="49" height="44" fill="black">
<rect fill="white" x="5.50037" y="9.86072" width="49" height="44"/>
<path fill-rule="evenodd" clip-rule="evenodd" d="M8.98037 12.5996C9.1247 12.0665 9.67385 11.7514 10.2069 11.8957L26.8449 16.4001C27.5166 15.6458 28.4951 15.1707 29.5847 15.1707C31.3628 15.1707 32.8453 16.4361 33.1809 18.1155L49.9608 22.6584C50.4939 22.8027 50.8091 23.3519 50.6647 23.8849C50.5204 24.418 49.9712 24.7332 49.4382 24.5889L45.8566 23.6192L50.7438 34.319H51.5996C52.0967 34.319 52.4996 34.7219 52.4996 35.219V35.3038C52.4996 39.1145 49.4104 42.2038 45.5996 42.2038H43.9614C40.1506 42.2038 37.0614 39.1145 37.0614 35.3038V35.219C37.0614 34.7219 37.4643 34.319 37.9614 34.319H38.801L43.6205 23.0138L33.0134 20.1422C32.5964 21.2381 31.669 22.0824 30.5216 22.3847V43.6868H33.2164C34.5468 43.6868 35.6252 44.7652 35.6252 46.0956C35.6252 46.2701 35.6066 46.4404 35.5714 46.6044H36.54C38.075 46.6044 39.3194 47.8488 39.3194 49.3838C39.3194 50.9188 38.075 52.1632 36.54 52.1632H22.6293C21.0943 52.1632 19.8499 50.9188 19.8499 49.3838C19.8499 47.8488 21.0943 46.6044 22.6293 46.6044H23.598C23.5627 46.4404 23.5441 46.2701 23.5441 46.0956C23.5441 44.7652 24.6226 43.6868 25.9529 43.6868H28.5216V22.349C27.0146 21.8933 25.9173 20.4938 25.9173 18.8381C25.9173 18.6325 25.9342 18.4308 25.9667 18.2344L16.4473 15.6572L21.1827 26.0246H22.0386C22.5357 26.0246 22.9386 26.4276 22.9386 26.9246V27.0094C22.9386 30.8202 19.8494 33.9094 16.0386 33.9094H14.4004C10.5896 33.9094 7.50037 30.8202 7.50037 27.0094V26.9246C7.50037 26.4276 7.90331 26.0246 8.40037 26.0246H9.23994L13.9481 14.9806L9.6843 13.8262C9.15121 13.6819 8.83605 13.1327 8.98037 12.5996ZM40.7578 34.319H48.7649L44.6233 25.2516L40.7578 34.319ZM15.0622 16.9572L19.2038 26.0246H11.1967L15.0622 16.9572Z"/>
</mask>
<path fill-rule="evenodd" clip-rule="evenodd" d="M8.98037 12.5996C9.1247 12.0665 9.67385 11.7514 10.2069 11.8957L26.8449 16.4001C27.5166 15.6458 28.4951 15.1707 29.5847 15.1707C31.3628 15.1707 32.8453 16.4361 33.1809 18.1155L49.9608 22.6584C50.4939 22.8027 50.8091 23.3519 50.6647 23.8849C50.5204 24.418 49.9712 24.7332 49.4382 24.5889L45.8566 23.6192L50.7438 34.319H51.5996C52.0967 34.319 52.4996 34.7219 52.4996 35.219V35.3038C52.4996 39.1145 49.4104 42.2038 45.5996 42.2038H43.9614C40.1506 42.2038 37.0614 39.1145 37.0614 35.3038V35.219C37.0614 34.7219 37.4643 34.319 37.9614 34.319H38.801L43.6205 23.0138L33.0134 20.1422C32.5964 21.2381 31.669 22.0824 30.5216 22.3847V43.6868H33.2164C34.5468 43.6868 35.6252 44.7652 35.6252 46.0956C35.6252 46.2701 35.6066 46.4404 35.5714 46.6044H36.54C38.075 46.6044 39.3194 47.8488 39.3194 49.3838C39.3194 50.9188 38.075 52.1632 36.54 52.1632H22.6293C21.0943 52.1632 19.8499 50.9188 19.8499 49.3838C19.8499 47.8488 21.0943 46.6044 22.6293 46.6044H23.598C23.5627 46.4404 23.5441 46.2701 23.5441 46.0956C23.5441 44.7652 24.6226 43.6868 25.9529 43.6868H28.5216V22.349C27.0146 21.8933 25.9173 20.4938 25.9173 18.8381C25.9173 18.6325 25.9342 18.4308 25.9667 18.2344L16.4473 15.6572L21.1827 26.0246H22.0386C22.5357 26.0246 22.9386 26.4276 22.9386 26.9246V27.0094C22.9386 30.8202 19.8494 33.9094 16.0386 33.9094H14.4004C10.5896 33.9094 7.50037 30.8202 7.50037 27.0094V26.9246C7.50037 26.4276 7.90331 26.0246 8.40037 26.0246H9.23994L13.9481 14.9806L9.6843 13.8262C9.15121 13.6819 8.83605 13.1327 8.98037 12.5996ZM40.7578 34.319H48.7649L44.6233 25.2516L40.7578 34.319ZM15.0622 16.9572L19.2038 26.0246H11.1967L15.0622 16.9572Z" fill="#F8F9FA"/>
<path d="M10.2069 11.8957L9.81496 13.3436L9.81496 13.3436L10.2069 11.8957ZM8.98037 12.5996L10.4282 12.9916L10.4282 12.9916L8.98037 12.5996ZM26.8449 16.4001L26.4529 17.848C27.0016 17.9966 27.5871 17.8222 27.9651 17.3977L26.8449 16.4001ZM33.1809 18.1155L31.71 18.4094C31.8215 18.9676 32.2394 19.4146 32.7889 19.5634L33.1809 18.1155ZM49.9608 22.6584L49.5688 24.1062L49.5688 24.1062L49.9608 22.6584ZM50.6647 23.8849L49.2169 23.4929L49.2168 23.493L50.6647 23.8849ZM49.4382 24.5889L49.0462 26.0367L49.0462 26.0367L49.4382 24.5889ZM45.8566 23.6192L46.2486 22.1713C45.6873 22.0194 45.0887 22.2055 44.7126 22.649C44.3365 23.0925 44.2506 23.7135 44.4922 24.2424L45.8566 23.6192ZM50.7438 34.319L49.3794 34.9422C49.6233 35.4763 50.1566 35.819 50.7438 35.819V34.319ZM38.801 34.319V35.819C39.4021 35.819 39.9452 35.4602 40.1809 34.9072L38.801 34.319ZM43.6205 23.0138L45.0003 23.6021C45.1705 23.2029 45.1595 22.7495 44.9701 22.3591C44.7806 21.9686 44.4314 21.6794 44.0125 21.566L43.6205 23.0138ZM33.0134 20.1422L33.4054 18.6943C32.6613 18.4928 31.8857 18.8882 31.6115 19.6087L33.0134 20.1422ZM30.5216 22.3847L30.1394 20.9342C29.4807 21.1077 29.0216 21.7034 29.0216 22.3847H30.5216ZM30.5216 43.6868H29.0216C29.0216 44.5152 29.6932 45.1868 30.5216 45.1868V43.6868ZM35.5714 46.6044L34.1049 46.289C34.0096 46.7321 34.1198 47.1945 34.4045 47.547C34.6893 47.8995 35.1182 48.1044 35.5714 48.1044V46.6044ZM23.598 46.6044V48.1044C24.0511 48.1044 24.48 47.8995 24.7648 47.547C25.0496 47.1945 25.1597 46.7321 25.0644 46.289L23.598 46.6044ZM28.5216 43.6868V45.1868C29.35 45.1868 30.0216 44.5152 30.0216 43.6868H28.5216ZM28.5216 22.349H30.0216C30.0216 21.6878 29.5887 21.1046 28.9558 20.9132L28.5216 22.349ZM25.9667 18.2344L27.4466 18.4795C27.5724 17.7195 27.1022 16.9878 26.3587 16.7865L25.9667 18.2344ZM16.4473 15.6572L16.8393 14.2093C16.2779 14.0573 15.6794 14.2435 15.3033 14.687C14.9271 15.1305 14.8413 15.7514 15.0829 16.2804L16.4473 15.6572ZM21.1827 26.0246L19.8183 26.6478C20.0623 27.182 20.5955 27.5246 21.1827 27.5246V26.0246ZM9.23994 26.0246V27.5246C9.84103 27.5246 10.3841 27.1658 10.6198 26.6129L9.23994 26.0246ZM13.9481 14.9806L15.328 15.5688C15.4981 15.1696 15.4871 14.7163 15.2977 14.3258C15.1082 13.9354 14.759 13.6461 14.3401 13.5327L13.9481 14.9806ZM9.6843 13.8262L10.0763 12.3783L10.0763 12.3783L9.6843 13.8262ZM48.7649 34.319V35.819C49.2754 35.819 49.7508 35.5594 50.0268 35.1299C50.3028 34.7005 50.3414 34.1601 50.1293 33.6958L48.7649 34.319ZM40.7578 34.319L39.3779 33.7308C39.1804 34.1941 39.2286 34.7257 39.5063 35.1459C39.784 35.5662 40.2541 35.819 40.7578 35.819V34.319ZM44.6233 25.2516L45.9877 24.6284C45.7408 24.0879 45.1983 23.7441 44.6042 23.7517C44.0101 23.7593 43.4764 24.1168 43.2434 24.6633L44.6233 25.2516ZM19.2038 26.0246V27.5246C19.7143 27.5246 20.1897 27.265 20.4657 26.8356C20.7417 26.4061 20.7803 25.8658 20.5682 25.4014L19.2038 26.0246ZM15.0622 16.9572L16.4266 16.334C16.1798 15.7936 15.6372 15.4498 15.0431 15.4573C14.449 15.4649 13.9153 15.8224 13.6823 16.369L15.0622 16.9572ZM11.1967 26.0246L9.81683 25.4364C9.6193 25.8998 9.66752 26.4313 9.94521 26.8516C10.2229 27.2718 10.693 27.5246 11.1967 27.5246V26.0246ZM10.5989 10.4478C9.2662 10.087 7.89331 10.8749 7.5325 12.2077L10.4282 12.9916C10.3561 13.2582 10.0815 13.4158 9.81496 13.3436L10.5989 10.4478ZM27.2369 14.9523L10.5989 10.4478L9.81496 13.3436L26.4529 17.848L27.2369 14.9523ZM29.5847 13.6707C28.0494 13.6707 26.6689 14.3422 25.7246 15.4026L27.9651 17.3977C28.3643 16.9494 28.9409 16.6707 29.5847 16.6707V13.6707ZM34.6518 17.8216C34.1789 15.4546 32.0918 13.6707 29.5847 13.6707V16.6707C30.6338 16.6707 31.5118 17.4176 31.71 18.4094L34.6518 17.8216ZM50.3528 21.2105L33.5729 16.6676L32.7889 19.5634L49.5688 24.1062L50.3528 21.2105ZM52.1126 24.2769C52.4734 22.9442 51.6855 21.5713 50.3528 21.2105L49.5688 24.1062C49.3023 24.0341 49.1447 23.7595 49.2169 23.4929L52.1126 24.2769ZM49.0462 26.0367C50.3789 26.3976 51.7518 25.6097 52.1126 24.2769L49.2168 23.493C49.289 23.2264 49.5636 23.0688 49.8301 23.141L49.0462 26.0367ZM45.4646 25.0671L49.0462 26.0367L49.8301 23.141L46.2486 22.1713L45.4646 25.0671ZM52.1082 33.6958L47.221 22.996L44.4922 24.2424L49.3794 34.9422L52.1082 33.6958ZM51.5996 32.819H50.7438V35.819H51.5996V32.819ZM53.9996 35.219C53.9996 33.8935 52.9251 32.819 51.5996 32.819V35.819C51.2682 35.819 50.9996 35.5504 50.9996 35.219H53.9996ZM53.9996 35.3038V35.219H50.9996V35.3038H53.9996ZM45.5996 43.7038C50.2388 43.7038 53.9996 39.9429 53.9996 35.3038H50.9996C50.9996 38.2861 48.5819 40.7038 45.5996 40.7038V43.7038ZM43.9614 43.7038H45.5996V40.7038H43.9614V43.7038ZM35.5614 35.3038C35.5614 39.9429 39.3222 43.7038 43.9614 43.7038V40.7038C40.979 40.7038 38.5614 38.2861 38.5614 35.3038H35.5614ZM35.5614 35.219V35.3038H38.5614V35.219H35.5614ZM37.9614 32.819C36.6359 32.819 35.5614 33.8935 35.5614 35.219H38.5614C38.5614 35.5504 38.2927 35.819 37.9614 35.819V32.819ZM38.801 32.819H37.9614V35.819H38.801V32.819ZM42.2407 22.4256L37.4212 33.7308L40.1809 34.9072L45.0003 23.6021L42.2407 22.4256ZM32.6214 21.59L43.2285 24.4617L44.0125 21.566L33.4054 18.6943L32.6214 21.59ZM30.9038 23.8352C32.5233 23.4085 33.8277 22.2197 34.4153 20.6757L31.6115 19.6087C31.365 20.2565 30.8146 20.7563 30.1394 20.9342L30.9038 23.8352ZM32.0216 43.6868V22.3847H29.0216V43.6868H32.0216ZM33.2164 42.1868H30.5216V45.1868H33.2164V42.1868ZM37.1252 46.0956C37.1252 43.9368 35.3752 42.1868 33.2164 42.1868V45.1868C33.7183 45.1868 34.1252 45.5937 34.1252 46.0956H37.1252ZM37.0379 46.9197C37.0953 46.6527 37.1252 46.3768 37.1252 46.0956H34.1252C34.1252 46.1635 34.118 46.228 34.1049 46.289L37.0379 46.9197ZM36.54 45.1044H35.5714V48.1044H36.54V45.1044ZM40.8194 49.3838C40.8194 47.0203 38.9034 45.1044 36.54 45.1044V48.1044C37.2466 48.1044 37.8194 48.6772 37.8194 49.3838H40.8194ZM36.54 53.6632C38.9034 53.6632 40.8194 51.7472 40.8194 49.3838H37.8194C37.8194 50.0904 37.2466 50.6632 36.54 50.6632V53.6632ZM22.6293 53.6632H36.54V50.6632H22.6293V53.6632ZM18.3499 49.3838C18.3499 51.7472 20.2659 53.6632 22.6293 53.6632V50.6632C21.9227 50.6632 21.3499 50.0904 21.3499 49.3838H18.3499ZM22.6293 45.1044C20.2659 45.1044 18.3499 47.0203 18.3499 49.3838H21.3499C21.3499 48.6772 21.9227 48.1044 22.6293 48.1044V45.1044ZM23.598 45.1044H22.6293V48.1044H23.598V45.1044ZM22.0441 46.0956C22.0441 46.3768 22.0741 46.6527 22.1315 46.9197L25.0644 46.289C25.0513 46.228 25.0441 46.1635 25.0441 46.0956H22.0441ZM25.9529 42.1868C23.7941 42.1868 22.0441 43.9368 22.0441 46.0956H25.0441C25.0441 45.5937 25.451 45.1868 25.9529 45.1868V42.1868ZM28.5216 42.1868H25.9529V45.1868H28.5216V42.1868ZM27.0216 22.349V43.6868H30.0216V22.349H27.0216ZM24.4173 18.8381C24.4173 21.1733 25.9652 23.143 28.0874 23.7848L28.9558 20.9132C28.064 20.6435 27.4173 19.8144 27.4173 18.8381H24.4173ZM24.4869 17.9893C24.441 18.2664 24.4173 18.55 24.4173 18.8381H27.4173C27.4173 18.7149 27.4274 18.5952 27.4466 18.4795L24.4869 17.9893ZM16.0553 17.105L25.5748 19.6823L26.3587 16.7865L16.8393 14.2093L16.0553 17.105ZM22.5471 25.4014L17.8117 15.034L15.0829 16.2804L19.8183 26.6478L22.5471 25.4014ZM22.0386 24.5246H21.1827V27.5246H22.0386V24.5246ZM24.4386 26.9246C24.4386 25.5992 23.3641 24.5246 22.0386 24.5246V27.5246C21.7072 27.5246 21.4386 27.256 21.4386 26.9246H24.4386ZM24.4386 27.0094V26.9246H21.4386V27.0094H24.4386ZM16.0386 35.4094C20.6778 35.4094 24.4386 31.6486 24.4386 27.0094H21.4386C21.4386 29.9917 19.0209 32.4094 16.0386 32.4094V35.4094ZM14.4004 35.4094H16.0386V32.4094H14.4004V35.4094ZM6.00037 27.0094C6.00037 31.6486 9.76117 35.4094 14.4004 35.4094V32.4094C11.418 32.4094 9.00037 29.9917 9.00037 27.0094H6.00037ZM6.00037 26.9246V27.0094H9.00037V26.9246H6.00037ZM8.40037 24.5246C7.07488 24.5246 6.00037 25.5992 6.00037 26.9246H9.00037C9.00037 27.256 8.73174 27.5246 8.40037 27.5246V24.5246ZM9.23994 24.5246H8.40037V27.5246H9.23994V24.5246ZM12.5683 14.3923L7.8601 25.4364L10.6198 26.6129L15.328 15.5688L12.5683 14.3923ZM9.29231 15.2741L13.5561 16.4284L14.3401 13.5327L10.0763 12.3783L9.29231 15.2741ZM7.5325 12.2077C7.17168 13.5404 7.95958 14.9133 9.29231 15.2741L10.0763 12.3783C10.3428 12.4505 10.5004 12.7251 10.4282 12.9916L7.5325 12.2077ZM48.7649 32.819H40.7578V35.819H48.7649V32.819ZM43.2589 25.8748L47.4005 34.9422L50.1293 33.6958L45.9877 24.6284L43.2589 25.8748ZM42.1376 34.9072L46.0031 25.8398L43.2434 24.6633L39.3779 33.7308L42.1376 34.9072ZM20.5682 25.4014L16.4266 16.334L13.6978 17.5804L17.8394 26.6479L20.5682 25.4014ZM11.1967 27.5246H19.2038V24.5246H11.1967V27.5246ZM13.6823 16.369L9.81683 25.4364L12.5765 26.6129L16.442 17.5454L13.6823 16.369Z" fill="#F8F9FA" mask="url(#path-1-outside-1_50_708)"/>
<path d="M49.6994 23.6198L9.94556 12.8572" stroke="#212529" stroke-width="2" stroke-linecap="round" stroke-linejoin="round"/>
<path d="M8.40039 26.9209H22.0386V27.0057C22.0386 30.3194 19.3523 33.0057 16.0386 33.0057H14.4004C11.0867 33.0057 8.40039 30.3194 8.40039 27.0057V26.9209Z" fill="#91A7FF" stroke="#212529" stroke-width="1.8" stroke-linecap="round" stroke-linejoin="round"/>
<path d="M15.0338 14.7251L9.83459 26.9209H20.6043L15.0338 14.7251Z" stroke="#212529" stroke-width="1.8" stroke-linecap="round" stroke-linejoin="round"/>
<path d="M37.9614 35.2152H51.5997V35.3C51.5997 38.6137 48.9134 41.3 45.5997 41.3H43.9614C40.6477 41.3 37.9614 38.6137 37.9614 35.3V35.2152Z" fill="#91A7FF" stroke="#212529" stroke-width="1.8" stroke-linecap="round" stroke-linejoin="round"/>
<g style="mix-blend-mode:multiply">
<path fill-rule="evenodd" clip-rule="evenodd" d="M43.927 40.8235C43.9384 40.8236 43.9499 40.8236 43.9613 40.8236H45.5996C48.9133 40.8236 51.5996 38.1374 51.5996 34.8236V34.7389H49.8927V34.8236C49.8927 38.1259 47.2249 40.8051 43.927 40.8235Z" fill="#DEE2E6"/>
</g>
<g style="mix-blend-mode:multiply">
<path fill-rule="evenodd" clip-rule="evenodd" d="M14.3661 32.59C14.3775 32.5901 14.389 32.5901 14.4004 32.5901H16.0387C19.3524 32.5901 22.0387 29.9038 22.0387 26.5901V26.5054H20.3318V26.5901C20.3318 29.8924 17.664 32.5715 14.3661 32.59Z" fill="#DEE2E6"/>
</g>
<path d="M44.5949 23.0194L39.3958 35.2152H50.1655L44.5949 23.0194Z" stroke="#212529" stroke-width="1.8" stroke-linecap="round" stroke-linejoin="round"/>
<path d="M29.5217 19.1885V43.9415" stroke="#212529" stroke-width="2" stroke-linecap="round" stroke-linejoin="round"/>
<rect x="24.4442" y="44.583" width="10.2811" height="3.01757" rx="1.50879" fill="#ADB5BD" stroke="#212529" stroke-width="1.8" stroke-linecap="round" stroke-linejoin="round"/>
<rect x="20.85" y="47.6006" width="17.4695" height="3.55883" rx="1.77942" fill="#ADB5BD" stroke="#212529" stroke-width="2" stroke-linecap="round" stroke-linejoin="round"/>
<circle cx="29.5848" cy="18.8343" r="2.86738" fill="#FFD43B" stroke="#212529" stroke-width="1.6" stroke-linejoin="round"/>
<g style="mix-blend-mode:multiply">
<path fill-rule="evenodd" clip-rule="evenodd" d="M28.9421 20.4633C30.1708 20.4633 31.1669 19.4673 31.1669 18.2385C31.1669 17.7721 31.0233 17.3391 30.778 16.9814C31.4945 17.351 31.9844 18.0983 31.9844 18.96C31.9844 20.1887 30.9884 21.1848 29.7597 21.1848C28.9974 21.1848 28.3247 20.8015 27.9238 20.2171C28.2289 20.3745 28.5752 20.4633 28.9421 20.4633Z" fill="#DEE2E6"/>
</g>
</svg>
