<svg width="60" height="60" viewBox="0 0 60 60" fill="none" xmlns="http://www.w3.org/2000/svg">
<mask id="path-1-outside-1_50_7640" maskUnits="userSpaceOnUse" x="0.558594" y="6.87256" width="59" height="48" fill="black">
<rect fill="white" x="0.558594" y="6.87256" width="59" height="48"/>
<path fill-rule="evenodd" clip-rule="evenodd" d="M7.52359 12.9974C8.39093 11.0244 10.9546 8.5067 15.6422 8.91694C16.2812 8.97287 17.0796 8.98048 17.9432 8.98871C18.4675 8.99371 19.0159 8.99894 19.5672 9.01534C20.2767 9.03645 20.9794 9.07679 21.5919 9.16474C22.1863 9.25008 22.7729 9.38973 23.1977 9.65414C23.3139 9.72648 23.4271 9.84004 23.4914 10.0021C23.5539 10.1594 23.5489 10.3087 23.5266 10.42C23.4869 10.6184 23.3759 10.778 23.3058 10.8698C23.1561 11.0659 22.9292 11.2798 22.7492 11.4495L22.738 11.4601C22.6173 11.5739 22.5125 11.6729 22.4274 11.759C23.6403 12.9399 24.3445 14.2974 24.7139 15.4726C24.7711 15.6548 24.7382 15.8534 24.6252 16.0075C24.5121 16.1615 24.3325 16.2524 24.1415 16.2524H23.8264C24.2737 16.7139 24.7455 17.2633 25.1805 17.8755C25.3695 18.1414 25.5535 18.422 25.7265 18.715L26.7965 18.9098C26.8719 18.9235 26.944 18.9516 27.0089 18.9925C28.0153 19.6267 31.6325 20.9347 37.4004 20.4323C41.1414 20.1064 43.7688 20.6697 45.5832 21.6898C46.8685 22.4124 47.7203 23.3501 48.2617 24.3143C48.4376 24.2518 48.6328 24.2017 48.8291 24.1628C49.1769 24.0939 49.5805 24.0502 49.9929 24.0479C50.7728 24.0437 51.7636 24.1869 52.3873 24.7845C53.7187 26.0602 54.3239 28.1441 54.0775 34.2821C54.0545 34.8535 54.0531 35.3729 54.0689 35.8443C54.5068 35.8634 54.944 36.0088 55.3282 36.3032C55.7716 36.6431 56.0442 37.121 56.2285 37.6126C56.4123 38.103 56.5233 38.6491 56.6164 39.1614C56.6368 39.2734 56.6562 39.3834 56.6753 39.4914C56.7463 39.8933 56.8124 40.2673 56.9017 40.6115C57.0154 41.0497 57.1503 41.3679 57.3239 41.5742C57.4475 41.721 57.4761 41.9256 57.3976 42.1007C57.3191 42.2758 57.1473 42.3905 56.9555 42.3959C56.363 42.4128 55.2423 42.2778 54.1818 41.8832C53.139 41.4953 52.0038 40.7984 51.6289 39.5922C51.1924 38.188 51.63 37.0186 52.4609 36.3692C52.5914 36.2673 52.7314 36.1788 52.8782 36.1049C52.8525 35.54 52.851 34.918 52.8784 34.234C53.127 28.0431 52.4528 26.5092 51.5571 25.651C51.2898 25.3949 50.7162 25.244 49.9995 25.2479C49.6636 25.2498 49.336 25.2857 49.0623 25.3399C48.939 25.3643 48.8354 25.3907 48.7516 25.4162C48.764 25.453 48.776 25.4897 48.7877 25.5263C49.6108 28.1175 49.5575 32.3701 48.278 36.3755C47.9746 37.3254 48.1838 38.0933 48.639 39.0141C48.7661 39.2712 48.9194 39.5498 49.0841 39.8492L49.0842 39.8494L49.0845 39.8499L49.0845 39.85C49.4888 40.585 49.9623 41.4457 50.2888 42.4235C50.7472 43.796 50.8771 45.7331 50.6775 47.5804C50.4792 49.4153 49.9416 51.2955 48.9494 52.4844C48.6484 52.8452 48.2126 52.9933 47.8141 52.9933H41.3361C41.03 52.9933 40.773 52.7629 40.7397 52.4586C40.6925 52.028 40.7185 51.3672 40.9485 50.727C41.1824 50.0763 41.6485 49.3982 42.5052 49.0698C42.7989 48.9573 43.1664 48.9124 43.4979 48.8883C43.795 48.8667 44.1183 48.859 44.4161 48.8519H44.4162H44.4162L44.5533 48.8485C44.9007 48.8398 45.1937 48.829 45.4128 48.8004C45.4766 48.792 45.5249 48.7832 45.5602 48.7752C45.7296 48.4771 45.7988 48.137 45.8113 47.7135C45.8209 47.3911 45.7994 47.0749 45.7749 46.7145L45.7749 46.7143L45.7749 46.7142C45.7608 46.5066 45.7457 46.2844 45.735 46.0379C45.6973 45.1704 45.0928 44.6828 43.9479 44.1003C43.7719 44.0108 43.5797 43.9174 43.3792 43.8199L43.379 43.8198L43.3789 43.8198C43.0163 43.6436 42.6267 43.4542 42.2572 43.2509C41.8792 44.417 41.4251 45.7565 41.0085 46.8202C39.8803 49.7009 37.2691 52.0813 36.4419 52.7885C36.1545 53.0342 35.797 53.1526 35.4401 53.1526H30.6082C30.2091 53.1526 29.8134 53.0032 29.5232 52.7403C29.2248 52.4699 29.0153 52.051 29.0995 51.5605C29.1724 51.1357 29.3658 50.6726 29.7744 50.2095C30.0538 49.8929 30.4439 49.691 30.8197 49.5539C31.2038 49.4137 31.6307 49.3209 32.039 49.2554C32.5716 49.1699 33.1671 49.1207 33.5989 49.0849H33.5989L33.7823 49.0696C33.8366 48.9598 33.9054 48.8029 33.9861 48.5928C34.1265 48.2272 34.2766 47.7732 34.4269 47.291C34.552 46.8897 34.6794 46.4606 34.7995 46.0559L34.7997 46.0556L34.7998 46.0549L34.8 46.0545C34.9047 45.7016 35.004 45.3674 35.0914 45.0862C33.5862 43.798 32.7291 42.4623 32.2863 41.2573C32.0049 41.3033 31.7148 41.3463 31.4159 41.386C29.4535 41.6467 27.5484 41.8062 25.9055 41.8999C25.7953 42.5014 25.6685 43.1337 25.5249 43.7756C25.0936 45.7038 24.5015 47.7604 23.7323 49.328L24.183 50.9699C24.4626 51.9883 23.6962 52.9934 22.6401 52.9934H19.1661L19.1558 52.9933H12.9193C12.3984 52.9933 11.9224 52.7435 11.6628 52.331C11.388 51.8943 11.3943 51.3268 11.765 50.8652C12.5047 49.9438 13.7895 48.9765 15.7933 48.5598V40.4233C15.6231 40.4846 15.4313 40.4666 15.2733 40.3685C14.4782 39.8745 13.2814 38.9811 12.2408 37.8838C11.4767 37.0779 10.7489 36.1123 10.362 35.0753L9.52206 35.8787C9.36878 36.0253 9.14948 36.0801 8.94526 36.0228C8.74104 35.9655 8.58224 35.8046 8.52759 35.5997C8.36146 34.9767 8.35694 34.1376 8.44508 33.2375C8.53473 32.3221 8.7265 31.2859 8.99186 30.2391C9.42295 28.5388 10.0617 26.7586 10.8096 25.3963C9.55482 25.3994 8.20136 25.2823 7.0098 25.0797C6.31309 24.9612 5.66063 24.8117 5.10891 24.6353C4.57155 24.4634 4.07558 24.2495 3.73499 23.9775C2.4525 22.9534 2.535 21.6455 2.57784 20.9665C2.5842 20.8656 2.58969 20.7786 2.58969 20.7084C2.58969 20.2352 2.68017 19.8365 2.89235 19.4995C3.10143 19.1674 3.39054 18.9575 3.6627 18.7961C3.82508 18.6998 3.98326 18.617 4.14128 18.5343C4.5402 18.3254 4.93809 18.1171 5.39973 17.6939C5.90403 17.2317 6.12951 16.8622 6.26778 16.5209C6.34037 16.3418 6.39365 16.1587 6.44869 15.9478C6.46203 15.8967 6.47578 15.8426 6.4901 15.7863L6.49016 15.7861L6.49017 15.7861C6.53236 15.6202 6.57953 15.4348 6.63584 15.2474C6.75698 14.8442 6.98403 14.4546 7.30427 14.1247C7.30629 13.7664 7.35823 13.3736 7.52359 12.9974ZM45.6301 48.7543C45.6302 48.7545 45.6276 48.7557 45.6218 48.7579C45.627 48.7552 45.6301 48.7541 45.6301 48.7543Z"/>
</mask>
<path fill-rule="evenodd" clip-rule="evenodd" d="M7.52359 12.9974C8.39093 11.0244 10.9546 8.5067 15.6422 8.91694C16.2812 8.97287 17.0796 8.98048 17.9432 8.98871C18.4675 8.99371 19.0159 8.99894 19.5672 9.01534C20.2767 9.03645 20.9794 9.07679 21.5919 9.16474C22.1863 9.25008 22.7729 9.38973 23.1977 9.65414C23.3139 9.72648 23.4271 9.84004 23.4914 10.0021C23.5539 10.1594 23.5489 10.3087 23.5266 10.42C23.4869 10.6184 23.3759 10.778 23.3058 10.8698C23.1561 11.0659 22.9292 11.2798 22.7492 11.4495L22.738 11.4601C22.6173 11.5739 22.5125 11.6729 22.4274 11.759C23.6403 12.9399 24.3445 14.2974 24.7139 15.4726C24.7711 15.6548 24.7382 15.8534 24.6252 16.0075C24.5121 16.1615 24.3325 16.2524 24.1415 16.2524H23.8264C24.2737 16.7139 24.7455 17.2633 25.1805 17.8755C25.3695 18.1414 25.5535 18.422 25.7265 18.715L26.7965 18.9098C26.8719 18.9235 26.944 18.9516 27.0089 18.9925C28.0153 19.6267 31.6325 20.9347 37.4004 20.4323C41.1414 20.1064 43.7688 20.6697 45.5832 21.6898C46.8685 22.4124 47.7203 23.3501 48.2617 24.3143C48.4376 24.2518 48.6328 24.2017 48.8291 24.1628C49.1769 24.0939 49.5805 24.0502 49.9929 24.0479C50.7728 24.0437 51.7636 24.1869 52.3873 24.7845C53.7187 26.0602 54.3239 28.1441 54.0775 34.2821C54.0545 34.8535 54.0531 35.3729 54.0689 35.8443C54.5068 35.8634 54.944 36.0088 55.3282 36.3032C55.7716 36.6431 56.0442 37.121 56.2285 37.6126C56.4123 38.103 56.5233 38.6491 56.6164 39.1614C56.6368 39.2734 56.6562 39.3834 56.6753 39.4914C56.7463 39.8933 56.8124 40.2673 56.9017 40.6115C57.0154 41.0497 57.1503 41.3679 57.3239 41.5742C57.4475 41.721 57.4761 41.9256 57.3976 42.1007C57.3191 42.2758 57.1473 42.3905 56.9555 42.3959C56.363 42.4128 55.2423 42.2778 54.1818 41.8832C53.139 41.4953 52.0038 40.7984 51.6289 39.5922C51.1924 38.188 51.63 37.0186 52.4609 36.3692C52.5914 36.2673 52.7314 36.1788 52.8782 36.1049C52.8525 35.54 52.851 34.918 52.8784 34.234C53.127 28.0431 52.4528 26.5092 51.5571 25.651C51.2898 25.3949 50.7162 25.244 49.9995 25.2479C49.6636 25.2498 49.336 25.2857 49.0623 25.3399C48.939 25.3643 48.8354 25.3907 48.7516 25.4162C48.764 25.453 48.776 25.4897 48.7877 25.5263C49.6108 28.1175 49.5575 32.3701 48.278 36.3755C47.9746 37.3254 48.1838 38.0933 48.639 39.0141C48.7661 39.2712 48.9194 39.5498 49.0841 39.8492L49.0842 39.8494L49.0845 39.8499L49.0845 39.85C49.4888 40.585 49.9623 41.4457 50.2888 42.4235C50.7472 43.796 50.8771 45.7331 50.6775 47.5804C50.4792 49.4153 49.9416 51.2955 48.9494 52.4844C48.6484 52.8452 48.2126 52.9933 47.8141 52.9933H41.3361C41.03 52.9933 40.773 52.7629 40.7397 52.4586C40.6925 52.028 40.7185 51.3672 40.9485 50.727C41.1824 50.0763 41.6485 49.3982 42.5052 49.0698C42.7989 48.9573 43.1664 48.9124 43.4979 48.8883C43.795 48.8667 44.1183 48.859 44.4161 48.8519H44.4162H44.4162L44.5533 48.8485C44.9007 48.8398 45.1937 48.829 45.4128 48.8004C45.4766 48.792 45.5249 48.7832 45.5602 48.7752C45.7296 48.4771 45.7988 48.137 45.8113 47.7135C45.8209 47.3911 45.7994 47.0749 45.7749 46.7145L45.7749 46.7143L45.7749 46.7142C45.7608 46.5066 45.7457 46.2844 45.735 46.0379C45.6973 45.1704 45.0928 44.6828 43.9479 44.1003C43.7719 44.0108 43.5797 43.9174 43.3792 43.8199L43.379 43.8198L43.3789 43.8198C43.0163 43.6436 42.6267 43.4542 42.2572 43.2509C41.8792 44.417 41.4251 45.7565 41.0085 46.8202C39.8803 49.7009 37.2691 52.0813 36.4419 52.7885C36.1545 53.0342 35.797 53.1526 35.4401 53.1526H30.6082C30.2091 53.1526 29.8134 53.0032 29.5232 52.7403C29.2248 52.4699 29.0153 52.051 29.0995 51.5605C29.1724 51.1357 29.3658 50.6726 29.7744 50.2095C30.0538 49.8929 30.4439 49.691 30.8197 49.5539C31.2038 49.4137 31.6307 49.3209 32.039 49.2554C32.5716 49.1699 33.1671 49.1207 33.5989 49.0849H33.5989L33.7823 49.0696C33.8366 48.9598 33.9054 48.8029 33.9861 48.5928C34.1265 48.2272 34.2766 47.7732 34.4269 47.291C34.552 46.8897 34.6794 46.4606 34.7995 46.0559L34.7997 46.0556L34.7998 46.0549L34.8 46.0545C34.9047 45.7016 35.004 45.3674 35.0914 45.0862C33.5862 43.798 32.7291 42.4623 32.2863 41.2573C32.0049 41.3033 31.7148 41.3463 31.4159 41.386C29.4535 41.6467 27.5484 41.8062 25.9055 41.8999C25.7953 42.5014 25.6685 43.1337 25.5249 43.7756C25.0936 45.7038 24.5015 47.7604 23.7323 49.328L24.183 50.9699C24.4626 51.9883 23.6962 52.9934 22.6401 52.9934H19.1661L19.1558 52.9933H12.9193C12.3984 52.9933 11.9224 52.7435 11.6628 52.331C11.388 51.8943 11.3943 51.3268 11.765 50.8652C12.5047 49.9438 13.7895 48.9765 15.7933 48.5598V40.4233C15.6231 40.4846 15.4313 40.4666 15.2733 40.3685C14.4782 39.8745 13.2814 38.9811 12.2408 37.8838C11.4767 37.0779 10.7489 36.1123 10.362 35.0753L9.52206 35.8787C9.36878 36.0253 9.14948 36.0801 8.94526 36.0228C8.74104 35.9655 8.58224 35.8046 8.52759 35.5997C8.36146 34.9767 8.35694 34.1376 8.44508 33.2375C8.53473 32.3221 8.7265 31.2859 8.99186 30.2391C9.42295 28.5388 10.0617 26.7586 10.8096 25.3963C9.55482 25.3994 8.20136 25.2823 7.0098 25.0797C6.31309 24.9612 5.66063 24.8117 5.10891 24.6353C4.57155 24.4634 4.07558 24.2495 3.73499 23.9775C2.4525 22.9534 2.535 21.6455 2.57784 20.9665C2.5842 20.8656 2.58969 20.7786 2.58969 20.7084C2.58969 20.2352 2.68017 19.8365 2.89235 19.4995C3.10143 19.1674 3.39054 18.9575 3.6627 18.7961C3.82508 18.6998 3.98326 18.617 4.14128 18.5343C4.5402 18.3254 4.93809 18.1171 5.39973 17.6939C5.90403 17.2317 6.12951 16.8622 6.26778 16.5209C6.34037 16.3418 6.39365 16.1587 6.44869 15.9478C6.46203 15.8967 6.47578 15.8426 6.4901 15.7863L6.49016 15.7861L6.49017 15.7861C6.53236 15.6202 6.57953 15.4348 6.63584 15.2474C6.75698 14.8442 6.98403 14.4546 7.30427 14.1247C7.30629 13.7664 7.35823 13.3736 7.52359 12.9974ZM45.6301 48.7543C45.6302 48.7545 45.6276 48.7557 45.6218 48.7579C45.627 48.7552 45.6301 48.7541 45.6301 48.7543Z" fill="#F8F9FA"/>
<path d="M15.6422 8.91694L15.5115 10.4112L15.5115 10.4112L15.6422 8.91694ZM7.52359 12.9974L6.15041 12.3938L6.15041 12.3938L7.52359 12.9974ZM17.9432 8.98871L17.9575 7.48878L17.9432 8.98871ZM19.5672 9.01534L19.6118 7.51601L19.6118 7.51601L19.5672 9.01534ZM21.5919 9.16474L21.3787 10.6495L21.3787 10.6495L21.5919 9.16474ZM23.1977 9.65414L22.4051 10.9276L22.4051 10.9276L23.1977 9.65414ZM23.4914 10.0021L22.0972 10.5554L22.0972 10.5554L23.4914 10.0021ZM23.5266 10.42L22.0558 10.1255L22.0558 10.1255L23.5266 10.42ZM23.3058 10.8698L22.1135 9.95961L22.1135 9.95962L23.3058 10.8698ZM22.7492 11.4495L21.7202 10.3581L21.7202 10.3581L22.7492 11.4495ZM22.738 11.4601L21.709 10.3687L21.7089 10.3687L22.738 11.4601ZM22.4274 11.759L21.3609 10.7042C21.0797 10.9885 20.9237 11.3733 20.9274 11.7731C20.9312 12.173 21.0945 12.5548 21.381 12.8337L22.4274 11.759ZM24.7139 15.4726L23.2829 15.9223L23.2829 15.9223L24.7139 15.4726ZM24.6252 16.0075L25.8344 16.895L25.8344 16.895L24.6252 16.0075ZM23.8264 16.2524V14.7524C23.2239 14.7524 22.6799 15.1129 22.445 15.6676C22.2102 16.2224 22.33 16.8639 22.7493 17.2965L23.8264 16.2524ZM25.1805 17.8755L26.4033 17.0067L26.4033 17.0067L25.1805 17.8755ZM25.7265 18.715L24.4348 19.4776C24.6562 19.8525 25.0295 20.1128 25.4578 20.1908L25.7265 18.715ZM26.7965 18.9098L27.0652 17.4341L27.0652 17.4341L26.7965 18.9098ZM27.0089 18.9925L27.8087 17.7235L27.8087 17.7235L27.0089 18.9925ZM37.4004 20.4323L37.2702 18.938L37.2702 18.938L37.4004 20.4323ZM45.5832 21.6898L44.8481 22.9973L44.8481 22.9973L45.5832 21.6898ZM48.2617 24.3143L46.9537 25.0487C47.3113 25.6855 48.0756 25.9723 48.7639 25.7277L48.2617 24.3143ZM48.8291 24.1628L48.5377 22.6914L48.5377 22.6914L48.8291 24.1628ZM49.9929 24.0479L49.9848 22.548L49.9847 22.548L49.9929 24.0479ZM52.3873 24.7845L53.4251 23.7014L53.425 23.7014L52.3873 24.7845ZM54.0775 34.2821L52.5787 34.2219L52.5787 34.2219L54.0775 34.2821ZM54.0689 35.8443L52.5697 35.8946C52.596 36.6777 53.2206 37.3087 54.0034 37.3429L54.0689 35.8443ZM55.3282 36.3032L54.4157 37.4937L54.4157 37.4937L55.3282 36.3032ZM56.2285 37.6126L57.6331 37.0861L57.633 37.0861L56.2285 37.6126ZM56.6164 39.1614L55.1406 39.4295L55.1406 39.4295L56.6164 39.1614ZM56.6753 39.4914L55.1982 39.7525L55.1982 39.7525L56.6753 39.4914ZM56.9017 40.6115L55.4498 40.9881L55.4498 40.9881L56.9017 40.6115ZM57.3239 41.5742L58.4717 40.6084L58.4717 40.6084L57.3239 41.5742ZM56.9555 42.3959L56.9981 43.8953L56.9982 43.8953L56.9555 42.3959ZM54.1818 41.8832L53.6587 43.2891L53.6587 43.2891L54.1818 41.8832ZM51.6289 39.5922L50.1965 40.0375L50.1965 40.0375L51.6289 39.5922ZM52.4609 36.3692L51.5373 35.1873L51.5373 35.1873L52.4609 36.3692ZM52.8782 36.1049L53.5524 37.4449C54.0808 37.179 54.4036 36.6275 54.3767 36.0366L52.8782 36.1049ZM52.8784 34.234L51.3797 34.1738L51.3797 34.1738L52.8784 34.234ZM51.5571 25.651L50.5193 26.734L50.5193 26.734L51.5571 25.651ZM49.9995 25.2479L50.0077 26.7479L50.0077 26.7479L49.9995 25.2479ZM49.0623 25.3399L49.3537 26.8113L49.3537 26.8113L49.0623 25.3399ZM48.7516 25.4162L48.3161 23.9808C47.9278 24.0986 47.6037 24.3687 47.418 24.7296C47.2322 25.0904 47.2006 25.5111 47.3303 25.8956L48.7516 25.4162ZM48.7877 25.5263L47.358 25.9804L47.3581 25.9804L48.7877 25.5263ZM48.278 36.3755L49.7069 36.8319L49.7069 36.8319L48.278 36.3755ZM48.639 39.0141L47.2944 39.6789L47.2944 39.6789L48.639 39.0141ZM49.0841 39.8492L50.4058 39.14C50.4033 39.1354 50.4009 39.1308 50.3983 39.1263L49.0841 39.8492ZM49.0842 39.8494L47.7624 40.5586C47.7652 40.5638 47.768 40.5689 47.7708 40.574L49.0842 39.8494ZM49.0845 39.8499L47.7711 40.5745C47.7798 40.5904 47.7889 40.6061 47.7982 40.6217L49.0845 39.8499ZM49.0845 39.85L50.3988 39.1271C50.3898 39.1106 50.3804 39.0944 50.3708 39.0783L49.0845 39.85ZM50.2888 42.4235L51.7116 41.9484L51.7116 41.9483L50.2888 42.4235ZM50.6775 47.5804L49.1862 47.4192L49.1862 47.4192L50.6775 47.5804ZM48.9494 52.4844L47.7977 51.5234L47.7977 51.5234L48.9494 52.4844ZM40.7397 52.4586L39.2486 52.6219L39.2486 52.6219L40.7397 52.4586ZM40.9485 50.727L39.5369 50.2197L39.5369 50.2197L40.9485 50.727ZM42.5052 49.0698L41.9684 47.6692L41.9684 47.6692L42.5052 49.0698ZM43.4979 48.8883L43.3891 47.3922L43.3891 47.3922L43.4979 48.8883ZM44.4161 48.8519V47.3519C44.4041 47.3519 44.3922 47.352 44.3803 47.3523L44.4161 48.8519ZM44.4162 48.8519V50.3519C44.4284 50.3519 44.4405 50.3517 44.4526 50.3514L44.4162 48.8519ZM44.5533 48.8485L44.5897 50.3481L44.5909 50.3481L44.5533 48.8485ZM45.4128 48.8004L45.2182 47.313L45.2182 47.3131L45.4128 48.8004ZM45.5602 48.7752L45.8918 50.2381C46.303 50.1449 46.6559 49.883 46.8642 49.5165L45.5602 48.7752ZM45.8113 47.7135L47.3107 47.7579L47.3107 47.7579L45.8113 47.7135ZM45.7749 46.7145L47.2716 46.6129L47.2705 46.5994L45.7749 46.7145ZM45.7749 46.7143L47.2705 46.5993C47.2687 46.5756 47.2663 46.5519 47.2633 46.5283L45.7749 46.7143ZM45.7749 46.7142L44.2784 46.8158C44.2803 46.844 44.283 46.8722 44.2865 46.9003L45.7749 46.7142ZM45.735 46.0379L44.2364 46.1031L44.2364 46.1031L45.735 46.0379ZM43.9479 44.1003L44.6281 42.7634L44.6281 42.7634L43.9479 44.1003ZM43.3792 43.8199L44.0348 42.4708C44.0195 42.4633 44.004 42.4561 43.9884 42.4492L43.3792 43.8199ZM43.379 43.8198L42.7082 45.1615C42.7285 45.1716 42.7491 45.1813 42.7698 45.1906L43.379 43.8198ZM43.3789 43.8198L44.0497 42.4781C44.0447 42.4756 44.0396 42.4731 44.0346 42.4707L43.3789 43.8198ZM42.2572 43.2509L42.9802 41.9366C42.5883 41.721 42.1206 41.6916 41.7047 41.8564C41.2889 42.0211 40.9682 42.3629 40.8303 42.7884L42.2572 43.2509ZM41.0085 46.8202L39.6118 46.2732L39.6118 46.2732L41.0085 46.8202ZM36.4419 52.7885L37.4167 53.9287L37.4167 53.9286L36.4419 52.7885ZM29.5232 52.7403L30.5304 51.6287L30.5304 51.6287L29.5232 52.7403ZM29.0995 51.5605L27.6211 51.3067L27.6211 51.3067L29.0995 51.5605ZM29.7744 50.2095L28.6497 49.217L28.6497 49.217L29.7744 50.2095ZM30.8197 49.5539L30.3056 48.1447L30.3056 48.1447L30.8197 49.5539ZM32.039 49.2554L31.8012 47.7744L31.8012 47.7744L32.039 49.2554ZM33.5989 49.0849V47.5849C33.5576 47.5849 33.5163 47.5866 33.4752 47.59L33.5989 49.0849ZM33.5989 49.0849V50.5849C33.6405 50.5849 33.6822 50.5832 33.7237 50.5797L33.5989 49.0849ZM33.7823 49.0696L33.9071 50.5644C34.4311 50.5207 34.894 50.2057 35.127 49.7343L33.7823 49.0696ZM33.9861 48.5928L35.3864 49.1307L35.3864 49.1307L33.9861 48.5928ZM34.4269 47.291L35.859 47.7373L35.859 47.7373L34.4269 47.291ZM34.7995 46.0559L33.364 45.6209L33.3616 45.629L34.7995 46.0559ZM34.7997 46.0556L36.2352 46.4906L36.2371 46.4843L34.7997 46.0556ZM34.7998 46.0549L36.2373 46.4836L36.2377 46.4824L34.7998 46.0549ZM34.8 46.0545L36.2378 46.4819L36.2379 46.4814L34.8 46.0545ZM35.0914 45.0862L36.5238 45.5315C36.7016 44.9593 36.5219 44.3362 36.0667 43.9466L35.0914 45.0862ZM32.2863 41.2573L33.6942 40.7399C33.4462 40.065 32.754 39.661 32.0444 39.777L32.2863 41.2573ZM31.4159 41.386L31.6134 42.873L31.6134 42.873L31.4159 41.386ZM25.9055 41.8999L25.8201 40.4023C25.1291 40.4417 24.5548 40.9488 24.43 41.6296L25.9055 41.8999ZM25.5249 43.7756L26.9888 44.1031L26.9888 44.1031L25.5249 43.7756ZM23.7323 49.328L22.3857 48.6673C22.2245 48.9959 22.189 49.3721 22.2858 49.7251L23.7323 49.328ZM24.183 50.9699L22.7366 51.367L22.7366 51.367L24.183 50.9699ZM19.1661 52.9934L19.1534 54.4934H19.1661V52.9934ZM19.1558 52.9933L19.1686 51.4933H19.1558V52.9933ZM11.6628 52.331L10.3933 53.1299L10.3933 53.1299L11.6628 52.331ZM11.765 50.8652L10.5953 49.9261L10.5953 49.9261L11.765 50.8652ZM15.7933 48.5598L16.0987 50.0283C16.7945 49.8836 17.2933 49.2705 17.2933 48.5598H15.7933ZM15.7933 40.4233H17.2933C17.2933 39.9348 17.0554 39.4769 16.6557 39.196C16.256 38.9151 15.7445 38.8465 15.2849 39.0121L15.7933 40.4233ZM15.2733 40.3685L14.4818 41.6426L14.4818 41.6426L15.2733 40.3685ZM12.2408 37.8838L11.1524 38.9159L11.1524 38.9159L12.2408 37.8838ZM10.362 35.0753L11.7673 34.5509C11.5909 34.0782 11.1887 33.7258 10.697 33.6132C10.2052 33.5005 9.68972 33.6426 9.32514 33.9913L10.362 35.0753ZM9.52206 35.8787L8.48523 34.7947L8.48522 34.7947L9.52206 35.8787ZM8.94526 36.0228L8.54009 37.467L8.54009 37.467L8.94526 36.0228ZM8.52759 35.5997L7.07823 35.9862L7.07823 35.9862L8.52759 35.5997ZM8.44508 33.2375L9.93794 33.3837L9.93794 33.3837L8.44508 33.2375ZM8.99186 30.2391L7.53786 29.8705L7.53786 29.8705L8.99186 30.2391ZM10.8096 25.3963L12.1245 26.1181C12.3799 25.6528 12.3704 25.0872 12.0995 24.6307C11.8286 24.1742 11.3366 23.8949 10.8058 23.8963L10.8096 25.3963ZM7.0098 25.0797L7.26122 23.6009L7.26122 23.6009L7.0098 25.0797ZM5.10891 24.6353L5.5658 23.2066L5.5658 23.2066L5.10891 24.6353ZM3.73499 23.9775L4.671 22.8054L4.671 22.8054L3.73499 23.9775ZM2.57784 20.9665L4.07486 21.061L4.07486 21.061L2.57784 20.9665ZM2.89235 19.4995L4.16173 20.2986L4.16173 20.2986L2.89235 19.4995ZM3.6627 18.7961L2.89761 17.5059L2.89761 17.5059L3.6627 18.7961ZM4.14128 18.5343L4.837 19.8632L4.837 19.8632L4.14128 18.5343ZM5.39973 17.6939L4.38614 16.5882L4.38614 16.5882L5.39973 17.6939ZM6.26778 16.5209L4.87755 15.9577L4.87755 15.9577L6.26778 16.5209ZM6.44869 15.9478L7.90006 16.3266L7.90007 16.3266L6.44869 15.9478ZM6.4901 15.7863L5.03665 15.4156L5.03641 15.4165L6.4901 15.7863ZM6.49016 15.7861L7.94362 16.1569L7.94537 16.1499L6.49016 15.7861ZM6.49017 15.7861L5.03646 15.4163L5.03495 15.4223L6.49017 15.7861ZM6.63584 15.2474L8.07242 15.6789L8.07242 15.6789L6.63584 15.2474ZM7.30427 14.1247L8.38057 15.1695C8.65027 14.8916 8.80208 14.5203 8.80425 14.1331L7.30427 14.1247ZM45.6301 48.7543L44.2138 49.2484L44.2143 49.2498L45.6301 48.7543ZM45.6218 48.7579L44.9428 47.4204C44.2326 47.7809 43.928 48.6336 44.249 49.3625C44.57 50.0914 45.4047 50.4424 46.1502 50.1618L45.6218 48.7579ZM15.773 7.42266C10.3999 6.95242 7.25773 9.87481 6.15041 12.3938L8.89677 13.6011C9.52412 12.1739 11.5093 10.061 15.5115 10.4112L15.773 7.42266ZM17.9575 7.48878C17.0738 7.48035 16.3411 7.47238 15.773 7.42266L15.5115 10.4112C16.2213 10.4734 17.0854 10.4806 17.9289 10.4886L17.9575 7.48878ZM19.6118 7.51601C19.0429 7.49908 18.4795 7.49376 17.9575 7.48878L17.9289 10.4886C18.4555 10.4937 18.9888 10.4988 19.5226 10.5147L19.6118 7.51601ZM21.8051 7.67996C21.1084 7.57994 20.3393 7.53765 19.6118 7.51601L19.5226 10.5147C20.214 10.5353 20.8503 10.5736 21.3787 10.6495L21.8051 7.67996ZM23.9904 8.38068C23.2877 7.94331 22.4394 7.77103 21.8051 7.67996L21.3787 10.6495C21.9332 10.7291 22.2581 10.8361 22.4051 10.9276L23.9904 8.38068ZM24.8856 9.4487C24.6831 8.93835 24.3293 8.59163 23.9904 8.38067L22.4051 10.9276C22.2986 10.8613 22.1712 10.7417 22.0972 10.5554L24.8856 9.4487ZM24.9974 10.7145C25.0605 10.3993 25.0816 9.94245 24.8856 9.4487L22.0972 10.5554C22.0262 10.3764 22.0373 10.218 22.0558 10.1255L24.9974 10.7145ZM24.498 11.7801C24.6002 11.6463 24.8879 11.2613 24.9974 10.7145L22.0558 10.1255C22.073 10.0396 22.1003 9.98577 22.1102 9.96755C22.1206 9.94847 22.1263 9.94285 22.1135 9.95961L24.498 11.7801ZM23.7782 12.5409C23.9324 12.3956 24.259 12.0932 24.498 11.7801L22.1135 9.95962C22.0532 10.0386 21.9259 10.1641 21.7202 10.3581L23.7782 12.5409ZM23.767 12.5515L23.7782 12.5409L21.7202 10.3581L21.709 10.3687L23.767 12.5515ZM23.4938 12.8138C23.557 12.7499 23.6414 12.6699 23.767 12.5514L21.7089 10.3687C21.5932 10.4778 21.4681 10.5958 21.3609 10.7042L23.4938 12.8138ZM26.1449 15.0228C25.7131 13.649 24.8914 12.0645 23.4738 10.6842L21.381 12.8337C22.3892 13.8154 22.976 14.9458 23.2829 15.9223L26.1449 15.0228ZM25.8344 16.895C26.23 16.3559 26.3453 15.6607 26.1449 15.0228L23.2829 15.9223C23.197 15.6489 23.2464 15.351 23.4159 15.1199L25.8344 16.895ZM24.1415 17.7524C24.8101 17.7524 25.4388 17.434 25.8344 16.895L23.4159 15.1199C23.5855 14.8889 23.8549 14.7524 24.1415 14.7524V17.7524ZM23.8264 17.7524H24.1415V14.7524H23.8264V17.7524ZM26.4033 17.0067C25.9184 16.3243 25.3962 15.7169 24.9034 15.2084L22.7493 17.2965C23.1512 17.711 23.5726 18.2023 23.9578 18.7444L26.4033 17.0067ZM27.0182 17.9524C26.8217 17.6196 26.6143 17.3036 26.4033 17.0067L23.9578 18.7444C24.1247 18.9792 24.2853 19.2244 24.4348 19.4776L27.0182 17.9524ZM27.0652 17.4341L25.9952 17.2393L25.4578 20.1908L26.5278 20.3855L27.0652 17.4341ZM27.8087 17.7235C27.5816 17.5804 27.3292 17.4821 27.0652 17.4341L26.5278 20.3855C26.4147 20.3649 26.3065 20.3228 26.2092 20.2615L27.8087 17.7235ZM37.2702 18.938C31.73 19.4205 28.4645 18.1368 27.8087 17.7235L26.2092 20.2615C27.5661 21.1166 31.535 22.4489 37.5305 21.9266L37.2702 18.938ZM46.3183 20.3823C44.1635 19.1708 41.2094 18.5948 37.2702 18.938L37.5305 21.9266C41.0734 21.618 43.374 22.1686 44.8481 22.9973L46.3183 20.3823ZM49.5696 23.58C48.8978 22.3834 47.8511 21.244 46.3183 20.3823L44.8481 22.9973C45.8859 23.5808 46.5428 24.3167 46.9537 25.0487L49.5696 23.58ZM48.5377 22.6914C48.2908 22.7403 48.0218 22.8077 47.7594 22.9009L48.7639 25.7277C48.8535 25.6959 48.9748 25.6631 49.1206 25.6342L48.5377 22.6914ZM49.9847 22.548C49.4766 22.5507 48.9782 22.6041 48.5377 22.6914L49.1206 25.6342C49.3757 25.5837 49.6844 25.5496 50.0011 25.5479L49.9847 22.548ZM53.425 23.7014C52.3559 22.677 50.8435 22.5433 49.9848 22.548L50.0011 25.5479C50.3053 25.5463 50.6107 25.5746 50.8714 25.6423C51.1357 25.711 51.2795 25.8005 51.3495 25.8676L53.425 23.7014ZM55.5763 34.3423C55.8201 28.269 55.3006 25.4986 53.4251 23.7014L51.3495 25.8676C52.1367 26.6218 52.8277 28.0191 52.5787 34.2219L55.5763 34.3423ZM55.568 35.794C55.5535 35.3625 55.5547 34.8801 55.5763 34.3422L52.5787 34.2219C52.5544 34.827 52.5526 35.3833 52.5697 35.8946L55.568 35.794ZM56.2406 35.1126C55.6015 34.6228 54.8654 34.3777 54.1343 34.3457L54.0034 37.3429C54.1482 37.3492 54.2866 37.3948 54.4157 37.4937L56.2406 35.1126ZM57.633 37.0861C57.3959 36.4535 56.9918 35.6883 56.2406 35.1126L54.4157 37.4937C54.5514 37.5978 54.6925 37.7884 54.8239 38.1391L57.633 37.0861ZM58.0923 38.8933C57.9984 38.3765 57.8683 37.7137 57.6331 37.0861L54.8239 38.1391C54.9563 38.4923 55.0483 38.9216 55.1406 39.4295L58.0923 38.8933ZM58.1524 39.2304C58.1334 39.1228 58.1133 39.0093 58.0923 38.8933L55.1406 39.4295C55.1602 39.5374 55.179 39.644 55.1982 39.7525L58.1524 39.2304ZM58.3537 40.235C58.282 39.9588 58.2258 39.6459 58.1524 39.2303L55.1982 39.7525C55.2668 40.1407 55.3428 40.5759 55.4498 40.9881L58.3537 40.235ZM58.4717 40.6084C58.5034 40.6462 58.4958 40.6504 58.4658 40.5815C58.4365 40.514 58.3975 40.404 58.3537 40.2349L55.4498 40.9881C55.5805 41.4921 55.7838 42.0737 56.1762 42.54L58.4717 40.6084ZM58.7663 42.7143C59.0803 42.0139 58.9658 41.1957 58.4717 40.6084L56.1762 42.54C55.9291 42.2463 55.8719 41.8372 56.0288 41.4871L58.7663 42.7143ZM56.9982 43.8953C57.7653 43.8735 58.4524 43.4146 58.7663 42.7143L56.0288 41.4871C56.1858 41.1369 56.5294 40.9074 56.9129 40.8965L56.9982 43.8953ZM53.6587 43.2891C54.8983 43.7503 56.211 43.9177 56.9981 43.8953L56.9129 40.8965C56.5151 40.9078 55.5863 40.8053 54.7048 40.4774L53.6587 43.2891ZM50.1965 40.0375C50.7847 41.9297 52.4921 42.855 53.6587 43.2891L54.7048 40.4774C53.786 40.1355 53.223 39.6672 53.0613 39.147L50.1965 40.0375ZM51.5373 35.1873C50.1742 36.2525 49.5908 38.0889 50.1965 40.0375L53.0613 39.147C52.794 38.2871 53.0857 37.7847 53.3845 37.5512L51.5373 35.1873ZM52.2041 34.7649C51.9698 34.8828 51.7461 35.0242 51.5373 35.1873L53.3845 37.5512C53.4367 37.5104 53.4931 37.4747 53.5524 37.4449L52.2041 34.7649ZM51.3797 34.1738C51.3507 34.8961 51.3519 35.5612 51.3798 36.1732L54.3767 36.0366C54.3531 35.5188 54.3513 34.9398 54.3772 34.2941L51.3797 34.1738ZM50.5193 26.734C50.87 27.0701 51.6309 27.9154 51.3797 34.1738L54.3772 34.2941C54.623 28.1708 54.0356 25.9484 52.5948 24.5679L50.5193 26.734ZM50.0077 26.7479C50.2657 26.7465 50.4548 26.7739 50.5695 26.8037C50.6254 26.8183 50.6474 26.8292 50.6434 26.8272C50.6417 26.8264 50.5896 26.8014 50.5193 26.734L52.5948 24.5679C52.203 24.1925 51.7174 24.0024 51.3241 23.9002C50.906 23.7915 50.4499 23.7454 49.9913 23.7479L50.0077 26.7479ZM49.3537 26.8113C49.5347 26.7755 49.7676 26.7492 50.0077 26.7479L49.9913 23.7479C49.5597 23.7503 49.1372 23.7959 48.7708 23.8685L49.3537 26.8113ZM49.187 26.8516C49.2194 26.8417 49.2747 26.827 49.3537 26.8113L48.7708 23.8685C48.6033 23.9017 48.4513 23.9398 48.3161 23.9808L49.187 26.8516ZM50.2173 25.0722C50.2029 25.027 50.1881 24.9819 50.1729 24.9367L47.3303 25.8956C47.3399 25.924 47.3491 25.9523 47.358 25.9804L50.2173 25.0722ZM49.7069 36.8319C51.0564 32.6075 51.1563 28.0284 50.2173 25.0722L47.3581 25.9804C48.0652 28.2067 48.0587 32.1328 46.8492 35.919L49.7069 36.8319ZM49.9837 38.3494C49.6043 37.5819 49.5747 37.2458 49.7069 36.8319L46.8492 35.919C46.3745 37.4051 46.7633 38.6047 47.2944 39.6789L49.9837 38.3494ZM50.3983 39.1263C50.2295 38.8194 50.0934 38.5713 49.9837 38.3494L47.2944 39.6789C47.4389 39.9712 47.6092 40.2802 47.7698 40.5721L50.3983 39.1263ZM50.4059 39.1402L50.4058 39.14L47.7623 40.5584L47.7624 40.5586L50.4059 39.1402ZM50.3978 39.1253L50.3975 39.1248L47.7708 40.574L47.7711 40.5745L50.3978 39.1253ZM50.3708 39.0783L50.3707 39.0782L47.7982 40.6217L47.7983 40.6218L50.3708 39.0783ZM51.7116 41.9483C51.3359 40.8236 50.7968 39.8507 50.3988 39.1271L47.7702 40.573C48.1808 41.3194 48.5886 42.0678 48.8661 42.8987L51.7116 41.9483ZM52.1688 47.7415C52.3834 45.7552 52.2589 43.5871 51.7116 41.9484L48.8661 42.8987C49.2356 44.005 49.3707 45.711 49.1862 47.4192L52.1688 47.7415ZM50.1011 53.4455C51.375 51.9189 51.9588 49.6849 52.1688 47.7415L49.1862 47.4192C48.9996 49.1458 48.5081 50.672 47.7977 51.5234L50.1011 53.4455ZM47.8141 54.4933C48.5615 54.4933 49.4589 54.2151 50.1011 53.4455L47.7977 51.5234C47.8048 51.515 47.8135 51.5069 47.8224 51.5004C47.8311 51.4942 47.8374 51.4912 47.8396 51.4903C47.8415 51.4895 47.8398 51.4904 47.8342 51.4915C47.8284 51.4926 47.8213 51.4933 47.8141 51.4933V54.4933ZM41.3361 54.4933H47.8141V51.4933H41.3361V54.4933ZM39.2486 52.6219C39.3652 53.6869 40.2648 54.4933 41.3361 54.4933V51.4933C41.7953 51.4933 42.1808 51.839 42.2308 52.2954L39.2486 52.6219ZM39.5369 50.2197C39.2163 51.1117 39.1813 52.0075 39.2486 52.6219L42.2308 52.2954C42.2037 52.0484 42.2206 51.6227 42.3601 51.2343L39.5369 50.2197ZM41.9684 47.6692C40.5869 48.1986 39.87 49.2929 39.5369 50.2197L42.3601 51.2343C42.4948 50.8597 42.7101 50.5977 43.042 50.4705L41.9684 47.6692ZM43.3891 47.3922C43.0407 47.4176 42.483 47.4719 41.9684 47.6692L43.042 50.4705C43.1148 50.4426 43.2922 50.4072 43.6066 50.3843L43.3891 47.3922ZM44.3803 47.3523C44.0901 47.3592 43.7292 47.3675 43.3891 47.3922L43.6066 50.3843C43.8607 50.3659 44.1465 50.3587 44.4519 50.3514L44.3803 47.3523ZM44.4162 47.3519H44.4161V50.3519H44.4162V47.3519ZM44.4162 47.3519H44.4162V50.3519H44.4162V47.3519ZM44.5169 47.349L44.3798 47.3523L44.4526 50.3514L44.5897 50.3481L44.5169 47.349ZM45.2182 47.3131C45.0906 47.3297 44.8769 47.3399 44.5157 47.349L44.5909 50.3481C44.9244 50.3397 45.2969 50.3283 45.6074 50.2877L45.2182 47.3131ZM45.2285 47.3124C45.2389 47.31 45.2434 47.3093 45.241 47.3097C45.2388 47.3101 45.2314 47.3113 45.2182 47.313L45.6073 50.2877C45.707 50.2747 45.8022 50.2584 45.8918 50.2381L45.2285 47.3124ZM44.312 47.669C44.3034 47.9577 44.2599 48.0273 44.2561 48.034L46.8642 49.5165C47.1993 48.9269 47.2941 48.3162 47.3107 47.7579L44.312 47.669ZM44.2784 46.8161C44.3038 47.1902 44.319 47.4325 44.312 47.669L47.3107 47.7579C47.3228 47.3498 47.295 46.9595 47.2715 46.6129L44.2784 46.8161ZM44.2793 46.8294L44.2794 46.8295L47.2705 46.5994L47.2705 46.5993L44.2793 46.8294ZM44.2865 46.9003L44.2865 46.9004L47.2633 46.5283L47.2633 46.5282L44.2865 46.9003ZM44.2364 46.1031C44.2481 46.3702 44.2644 46.6095 44.2784 46.8158L47.2715 46.6126C47.2573 46.4038 47.2434 46.1986 47.2336 45.9727L44.2364 46.1031ZM43.2677 45.4372C43.8183 45.7174 44.07 45.8952 44.1886 46.0155C44.2343 46.0618 44.2384 46.0786 44.2339 46.0686C44.2283 46.0563 44.2346 46.0598 44.2364 46.1031L47.2336 45.9728C47.1974 45.1396 46.8642 44.4561 46.3247 43.909C45.8454 43.423 45.2224 43.0658 44.6281 42.7634L43.2677 45.4372ZM42.7235 45.169C42.9269 45.2679 43.1062 45.3551 43.2677 45.4372L44.6281 42.7634C44.4376 42.6665 44.2325 42.5668 44.0348 42.4708L42.7235 45.169ZM42.7698 45.1906L42.7699 45.1906L43.9884 42.4492L43.9883 42.4491L42.7698 45.1906ZM42.7081 45.1614L42.7082 45.1615L44.0499 42.4782L44.0497 42.4781L42.7081 45.1614ZM41.5342 44.5652C41.9425 44.7898 42.3664 44.9954 42.7232 45.1689L44.0346 42.4707C43.6663 42.2917 43.3109 42.1186 42.9802 41.9366L41.5342 44.5652ZM42.4052 47.3672C42.8385 46.2608 43.3037 44.8872 43.6841 43.7134L40.8303 42.7884C40.4548 43.9469 40.0117 45.2522 39.6118 46.2732L42.4052 47.3672ZM37.4167 53.9286C38.2611 53.2066 41.131 50.6209 42.4052 47.3672L39.6118 46.2732C38.6297 48.7809 36.2771 50.9559 35.4671 51.6484L37.4167 53.9286ZM35.4401 54.6526C36.1271 54.6526 36.8375 54.4238 37.4167 53.9287L35.4671 51.6484C35.467 51.6485 35.4672 51.6484 35.4674 51.6482C35.4676 51.6482 35.467 51.6485 35.4654 51.6491C35.4618 51.6504 35.4533 51.6526 35.4401 51.6526V54.6526ZM30.6082 54.6526H35.4401V51.6526H30.6082V54.6526ZM28.516 53.8518C29.0908 54.3727 29.8488 54.6526 30.6082 54.6526V51.6526C30.5943 51.6526 30.5757 51.6497 30.5569 51.6426C30.538 51.6354 30.5297 51.6281 30.5304 51.6287L28.516 53.8518ZM27.6211 51.3067C27.4335 52.3997 27.9163 53.3084 28.516 53.8518L30.5304 51.6287C30.5338 51.6319 30.5487 51.6457 30.5624 51.6805C30.5698 51.6992 30.5762 51.7223 30.5791 51.7485C30.582 51.7753 30.5806 51.7982 30.5778 51.8144L27.6211 51.3067ZM28.6497 49.217C28.0568 49.8889 27.7411 50.6078 27.6211 51.3067L30.5778 51.8144C30.6037 51.6636 30.6748 51.4562 30.8992 51.2019L28.6497 49.217ZM30.3056 48.1447C29.8253 48.3199 29.1672 48.6306 28.6497 49.217L30.8992 51.2019C30.915 51.184 30.9529 51.1482 31.0302 51.1021C31.1078 51.0557 31.2086 51.0087 31.3338 50.963L30.3056 48.1447ZM31.8012 47.7744C31.3453 47.8476 30.8148 47.959 30.3056 48.1447L31.3338 50.963C31.5928 50.8685 31.9161 50.7943 32.2767 50.7365L31.8012 47.7744ZM33.4752 47.59C33.0534 47.6249 32.4002 47.6782 31.8012 47.7744L32.2767 50.7365C32.743 50.6616 33.2809 50.6164 33.7225 50.5798L33.4752 47.59ZM33.5989 47.5849H33.5989V50.5849H33.5989V47.5849ZM33.6575 47.5748L33.4741 47.5901L33.7237 50.5797L33.9071 50.5644L33.6575 47.5748ZM32.5859 48.055C32.5167 48.235 32.466 48.3474 32.4376 48.405L35.127 49.7343C35.2071 49.5722 35.2941 49.3708 35.3864 49.1307L32.5859 48.055ZM32.9948 46.8447C32.8475 47.3175 32.7088 47.735 32.5858 48.055L35.3864 49.1307C35.5443 48.7194 35.7058 48.2289 35.859 47.7373L32.9948 46.8447ZM33.3616 45.629C33.2409 46.0356 33.1164 46.4547 32.9948 46.8447L35.859 47.7373C35.9876 47.3246 36.1179 46.8856 36.2375 46.4829L33.3616 45.629ZM33.3641 45.6206L33.364 45.6209L36.2351 46.491L36.2352 46.4906L33.3641 45.6206ZM33.3624 45.6262L33.3622 45.6269L36.2371 46.4843L36.2373 46.4836L33.3624 45.6262ZM33.3622 45.627L33.362 45.6275L36.2377 46.4824L36.2378 46.4819L33.3622 45.627ZM33.659 44.641C33.5682 44.9332 33.466 45.2775 33.362 45.6275L36.2379 46.4814C36.3435 46.1258 36.4398 45.8016 36.5238 45.5315L33.659 44.641ZM30.8783 41.7747C31.4162 43.2383 32.4305 44.7833 34.116 46.2258L36.0667 43.9466C34.7418 42.8126 34.0419 41.6862 33.6942 40.7399L30.8783 41.7747ZM31.6134 42.873C31.927 42.8313 32.2319 42.7861 32.5282 42.7377L32.0444 39.777C31.7779 39.8205 31.5027 39.8614 31.2184 39.8991L31.6134 42.873ZM25.9909 43.3975C27.663 43.3021 29.6063 43.1395 31.6134 42.873L31.2184 39.8991C29.3006 40.1538 27.4338 40.3103 25.8201 40.4023L25.9909 43.3975ZM26.9888 44.1031C27.137 43.4402 27.2676 42.7887 27.3809 42.1702L24.43 41.6296C24.323 42.2141 24.2 42.8272 24.0611 43.4481L26.9888 44.1031ZM25.079 49.9888C25.9263 48.2619 26.5489 46.0692 26.9888 44.1031L24.0611 43.4481C23.6382 45.3385 23.0768 47.2589 22.3857 48.6673L25.079 49.9888ZM25.6295 50.5728L25.1788 48.931L22.2858 49.7251L22.7366 51.367L25.6295 50.5728ZM22.6401 54.4934C24.6863 54.4934 26.1712 52.546 25.6295 50.5728L22.7366 51.367C22.7425 51.3887 22.7415 51.4024 22.7394 51.4123C22.7369 51.4247 22.7307 51.4395 22.7196 51.4541C22.7085 51.4686 22.6958 51.4785 22.6846 51.4842C22.6756 51.4888 22.6627 51.4934 22.6401 51.4934V54.4934ZM19.1661 54.4934H22.6401V51.4934H19.1661V54.4934ZM19.1431 54.4933L19.1534 54.4934L19.1789 51.4935L19.1686 51.4934L19.1431 54.4933ZM12.9193 54.4933H19.1558V51.4933H12.9193V54.4933ZM10.3933 53.1299C10.9512 54.0166 11.9293 54.4933 12.9193 54.4933V51.4933C12.8981 51.4933 12.8892 51.4882 12.8919 51.4896C12.895 51.4912 12.9136 51.5023 12.9324 51.5322L10.3933 53.1299ZM10.5953 49.9261C9.81792 50.8944 9.78322 52.1605 10.3933 53.1299L12.9324 51.5322C12.9548 51.5678 12.9732 51.6223 12.9697 51.6873C12.9681 51.7188 12.9614 51.7469 12.9527 51.7695C12.9484 51.7805 12.9441 51.789 12.9406 51.7951C12.9389 51.7981 12.9374 51.8004 12.9363 51.8019C12.9358 51.8027 12.9354 51.8032 12.9351 51.8036C12.9348 51.804 12.9347 51.8042 12.9347 51.8042L10.5953 49.9261ZM15.4878 47.0912C13.1383 47.5799 11.5497 48.7372 10.5953 49.9261L12.9347 51.8042C13.4596 51.1503 14.4406 50.3732 16.0987 50.0283L15.4878 47.0912ZM14.2933 40.4233V48.5598H17.2933V40.4233H14.2933ZM14.4818 41.6426C15.0351 41.9864 15.7065 42.0489 16.3016 41.8345L15.2849 39.0121C15.5398 38.9203 15.8275 38.9468 16.0648 39.0943L14.4818 41.6426ZM11.1524 38.9159C12.2944 40.1203 13.5955 41.092 14.4818 41.6426L16.0648 39.0943C15.361 38.657 14.2684 37.842 13.3293 36.8516L11.1524 38.9159ZM8.95663 35.5997C9.44339 36.9041 10.3222 38.0403 11.1524 38.9159L13.3293 36.8516C12.6312 36.1154 12.0545 35.3204 11.7673 34.5509L8.95663 35.5997ZM10.5589 36.9626L11.3988 36.1593L9.32514 33.9913L8.48523 34.7947L10.5589 36.9626ZM8.54009 37.467C9.25488 37.6676 10.0224 37.4758 10.5589 36.9626L8.48522 34.7947C8.71514 34.5748 9.04409 34.4926 9.35043 34.5786L8.54009 37.467ZM7.07823 35.9862C7.26952 36.7035 7.82531 37.2665 8.54009 37.467L9.35043 34.5786C9.65676 34.6645 9.89496 34.9058 9.97694 35.2132L7.07823 35.9862ZM6.95222 33.0913C6.85894 34.0439 6.84167 35.0991 7.07823 35.9862L9.97694 35.2132C9.88125 34.8544 9.85493 34.2314 9.93794 33.3837L6.95222 33.0913ZM7.53786 29.8705C7.25818 30.9737 7.05071 32.0856 6.95222 33.0913L9.93794 33.3837C10.0187 32.5586 10.1948 31.598 10.4459 30.6078L7.53786 29.8705ZM9.49468 24.6744C8.66775 26.1807 7.98948 28.0892 7.53786 29.8705L10.4459 30.6078C10.8564 28.9884 11.4556 27.3365 12.1245 26.1181L9.49468 24.6744ZM6.75839 26.5585C8.03222 26.7751 9.47105 26.8996 10.8133 26.8963L10.8058 23.8963C9.6386 23.8992 8.3705 23.7895 7.26122 23.6009L6.75839 26.5585ZM4.65202 26.064C5.28939 26.2678 6.01419 26.432 6.75839 26.5585L7.26122 23.6009C6.61199 23.4905 6.03187 23.3556 5.5658 23.2066L4.65202 26.064ZM2.79898 25.1496C3.35714 25.5954 4.06419 25.876 4.65202 26.064L5.5658 23.2066C5.07892 23.0509 4.79403 22.9036 4.671 22.8054L2.79898 25.1496ZM1.08081 20.8721C1.03569 21.5873 0.881188 23.6182 2.79898 25.1496L4.671 22.8054C4.31182 22.5186 4.17777 22.2325 4.11503 21.9804C4.0425 21.6889 4.05336 21.4018 4.07486 21.061L1.08081 20.8721ZM1.08969 20.7084C1.08969 20.7075 1.08965 20.7186 1.08804 20.7506C1.08645 20.7824 1.08414 20.8192 1.08081 20.8721L4.07486 21.061C4.08015 20.9771 4.08969 20.8364 4.08969 20.7084H1.08969ZM1.62296 18.7003C1.21778 19.3439 1.08969 20.0441 1.08969 20.7084H4.08969C4.08969 20.4264 4.14256 20.3291 4.16173 20.2986L1.62296 18.7003ZM2.89761 17.5059C2.54161 17.717 2.01694 18.0745 1.62296 18.7003L4.16173 20.2986C4.18592 20.2602 4.23947 20.198 4.4278 20.0863L2.89761 17.5059ZM3.44557 17.2054C3.29194 17.2858 3.09936 17.3863 2.89761 17.5059L4.4278 20.0863C4.55079 20.0134 4.67459 19.9482 4.837 19.8632L3.44557 17.2054ZM4.38614 16.5882C4.07829 16.8704 3.83011 17.0041 3.44557 17.2054L4.837 19.8632C5.25029 19.6468 5.79788 19.3638 6.41332 18.7997L4.38614 16.5882ZM4.87755 15.9577C4.84718 16.0326 4.80992 16.1063 4.74733 16.1945C4.6817 16.2871 4.57338 16.4166 4.38614 16.5882L6.41332 18.7997C7.06676 18.2007 7.42867 17.6503 7.65801 17.0842L4.87755 15.9577ZM4.99732 15.5689C4.94708 15.7614 4.91315 15.8698 4.87755 15.9577L7.65801 17.0842C7.76758 16.8137 7.84022 16.5559 7.90006 16.3266L4.99732 15.5689ZM5.03641 15.4165C5.02184 15.4738 5.00927 15.5232 4.99732 15.569L7.90007 16.3266C7.91479 16.2702 7.92972 16.2115 7.9438 16.1562L5.03641 15.4165ZM5.0367 15.4154L5.03665 15.4156L7.94355 16.1571L7.94361 16.1569L5.0367 15.4154ZM5.03495 15.4223L5.03494 15.4223L7.94537 16.1499L7.94538 16.1499L5.03495 15.4223ZM5.19927 14.8158C5.13234 15.0386 5.0777 15.2542 5.03647 15.4163L7.94386 16.1559C7.98703 15.9862 8.02673 15.831 8.07242 15.6789L5.19927 14.8158ZM6.22797 13.0799C5.74518 13.5772 5.39162 14.1755 5.19927 14.8158L8.07242 15.6789C8.12233 15.5128 8.22288 15.3319 8.38057 15.1695L6.22797 13.0799ZM6.15041 12.3938C5.87739 13.0148 5.80705 13.6264 5.8043 14.1163L8.80425 14.1331C8.80552 13.9063 8.83906 13.7323 8.89677 13.6011L6.15041 12.3938ZM44.2143 49.2498C44.0214 48.6986 44.2059 48.2467 44.2918 48.0769C44.3863 47.8903 44.4979 47.768 44.5455 47.7181C44.6482 47.6107 44.7437 47.5438 44.7702 47.5253C44.8416 47.4754 44.9015 47.4431 44.9175 47.4345C44.9634 47.4097 45.0003 47.393 45.0141 47.3868C45.0492 47.3711 45.0773 47.3601 45.0934 47.3541L46.1502 50.1618C46.172 50.1536 46.2044 50.1409 46.2422 50.1239C46.2574 50.1171 46.2953 50.0999 46.3418 50.0748C46.3581 50.066 46.4183 50.0336 46.4898 49.9835C46.5164 49.9649 46.612 49.898 46.7147 49.7906C46.7623 49.7407 46.874 49.6184 46.9684 49.4317C47.0544 49.262 47.2389 48.8101 47.0459 48.2588L44.2143 49.2498ZM46.3007 50.0955C46.2775 50.1073 46.245 50.1229 46.2047 50.1397C46.1883 50.1465 46.1495 50.1624 46.0985 50.1792C46.081 50.185 46.0149 50.2068 45.9275 50.2245C45.897 50.2307 45.7754 50.2556 45.6174 50.2542C45.5464 50.2536 45.3597 50.2485 45.1369 50.1709C44.9164 50.0941 44.4256 49.8554 44.2138 49.2484L47.0464 48.2602C46.8346 47.6532 46.3439 47.4145 46.1233 47.3377C45.9005 47.2601 45.7138 47.2549 45.6428 47.2543C45.4847 47.253 45.363 47.2779 45.3324 47.2841C45.2449 47.3018 45.1784 47.3237 45.1606 47.3296C45.1088 47.3467 45.0689 47.363 45.0511 47.3704C45.008 47.3883 44.9713 47.4059 44.9428 47.4204L46.3007 50.0955Z" fill="#F8F9FA" mask="url(#path-1-outside-1_50_7640)"/>
<path d="M35.8613 44.8709C32.3765 42.0732 32.3233 39.0832 32.7323 37.9379L39.2357 34.8091L42.6101 40.3308C42.6101 40.3308 41.4635 44.1901 40.5241 46.5887C39.4544 49.3201 36.9468 51.6183 36.1263 52.3198C35.9555 52.4658 35.7391 52.5399 35.5144 52.5399H30.6825C30.1729 52.5399 29.6789 52.1516 29.7651 51.6494C29.8192 51.3342 29.9637 50.9734 30.2986 50.5938C31.0349 49.7594 33.3511 49.7279 34.2101 49.6256C34.7009 49.0366 35.4727 46.0161 35.8613 44.8709Z" fill="#FFE066" stroke="#212529" stroke-width="1.4" stroke-linecap="round" stroke-linejoin="round"/>
<g style="mix-blend-mode:multiply">
<path d="M38.6029 40.4479C37.2175 41.2533 34.7768 41.6429 33.7296 41.7371L31.9172 39.6024L39.1667 37.2261L42.9929 39.9245L41.3416 43.4284C39.8595 42.6229 38.8983 41.1058 38.6029 40.4479Z" fill="#FFE066"/>
</g>
<path d="M25.8665 38.5767H21.2037L19.2405 39.9876L18.1361 49.2519L19.2405 52.3808H22.7144C23.3745 52.3808 23.8535 51.7526 23.6788 51.1161L23.167 49.2519C24.7376 46.2088 25.6211 40.8671 25.8665 38.5767Z" fill="#FFE066" stroke="#212529" stroke-width="1.4" stroke-linecap="round" stroke-linejoin="round"/>
<path d="M37.5267 21.0174C31.6678 21.5277 27.9099 20.2101 26.7633 19.4875L24.1821 19.0176L16.8991 28.425L16.4675 37.2121V49.0489C14.3185 49.3748 13.0139 50.3477 12.3071 51.2282C11.8909 51.7466 12.3287 52.3807 12.9936 52.3807H20.0261C20.5228 52.3807 20.9355 52.0109 20.8676 51.5188C20.7466 50.6429 20.4001 49.5891 20.1899 49.0489C21.3121 47.1054 21.5207 43.1391 21.4847 41.3989C22.9773 41.4334 27.0521 41.3576 31.4111 40.7787C35.7701 40.1997 38.1582 38.9049 39.2012 38.164C39.5028 39.3921 39.9499 40.3075 40.898 41.3989C42.7149 43.4903 46.3008 43.5182 46.4087 45.9992C46.4619 47.2228 46.672 48.2954 46.0721 49.1953C45.8103 49.5879 43.6145 49.3031 42.7942 49.6175C41.4994 50.1137 41.3322 51.6664 41.4104 52.3807H47.8883C48.1461 52.3807 48.3978 52.2853 48.563 52.0874C50.3219 49.9796 50.6397 45.1331 49.794 42.601C48.9063 39.9431 47.0366 38.5096 47.7807 36.1803C49.0322 32.2626 49.0668 28.1406 48.2901 25.6953C47.5133 23.2501 44.8502 20.3795 37.5267 21.0174Z" fill="#FFE066" stroke="#212529" stroke-width="1.4" stroke-linecap="round" stroke-linejoin="round"/>
<path d="M39.5634 34.0582C39.3045 34.8527 38.9165 36.9761 39.4351 39.1137" stroke="#212529" stroke-width="1.4" stroke-linecap="round"/>
<g style="mix-blend-mode:multiply">
<path d="M20.82 36.5518C24.2052 34.5838 25.2483 30.2538 25.3467 28.3349L23.5754 26.1206L18.6059 31.1885L15.4077 38.0277L16.8838 40.7831C18.104 39.6415 19.2291 37.4866 19.6392 36.5518H20.82Z" fill="#FFE066"/>
</g>
<path d="M15.6642 9.50202C11.2504 9.11575 8.91833 11.4718 8.14709 13.2262C7.76778 14.0891 8.14709 15.1802 8.14709 15.6398C7.33236 18.8106 4.64374 19.6811 4.42305 20.95C4.1472 22.5362 4.98805 23.2285 6.16044 23.9181C7.09835 24.4698 11.2954 24.766 11.8931 24.881C10.0725 27.5292 8.62984 33.3635 9.18155 35.4325L10.7677 33.9152C11.0436 36.398 14.1469 38.9036 15.6642 39.8461C17.4848 38.6324 18.5377 35.8003 18.8365 34.5359L20.5606 35.4325C23.2088 33.0049 24.1008 28.72 24.2157 26.8809L26.3536 28.2602C26.4225 27.4326 26.5191 25.0603 26.3536 22.1914C26.1881 19.3225 23.618 16.6283 22.3537 15.6398H24.2157C23.8421 14.4511 23.1005 13.0616 21.785 11.8998C21.4419 11.5968 23.3798 10.4153 22.9549 10.1509C21.7011 9.37049 17.7554 9.68504 15.6642 9.50202Z" fill="#FFA94D" stroke="#212529" stroke-width="1.4" stroke-linecap="round" stroke-linejoin="round"/>
<path d="M48.2987 24.9725C48.9173 24.6168 51.1556 24.3515 52.0465 25.2051C53.16 26.2721 53.7997 28.081 53.5523 34.2454C53.3543 39.177 54.7071 40.5679 55.4082 40.647" stroke="#212529" stroke-width="1.6" stroke-linecap="round" stroke-linejoin="round"/>
<path d="M10.4012 13.8396C8.66243 13.5105 7.5698 14.4586 7.28474 15.4075C6.99968 16.3564 7.00731 17.0899 5.87944 18.1238C4.4696 19.4161 3.26396 19.1099 3.26396 20.6959C3.26396 21.3819 2.99046 22.5433 4.18366 23.4962C5.19743 24.3057 8.7382 24.8733 11.4866 24.7722C14.4346 24.6637 12.8685 20.9476 14.1608 19.1265C15.4532 17.3055 12.5748 14.2509 10.4012 13.8396Z" fill="#FFF3BF" stroke="#212529" stroke-width="1.4" stroke-linecap="round" stroke-linejoin="round"/>
<path d="M52.1806 39.4312C52.7885 41.387 55.9604 41.9135 57.0156 41.8836C56.03 40.7123 56.462 37.7326 55.0983 36.6875C53.7344 35.6422 51.4207 36.9866 52.1806 39.4312Z" fill="#FFE066" stroke="#212529" stroke-width="1.4" stroke-linecap="round" stroke-linejoin="round"/>
<g style="mix-blend-mode:multiply">
<circle cx="9.42163" cy="17.2499" r="0.592651" fill="#212529"/>
</g>
<path d="M15.9624 14.8943C16.4378 14.7041 17.2662 14.8105 17.5517 15.3093C17.9646 16.0308 17.5517 16.6998 16.7367 17.0617" stroke="#212529" stroke-linecap="round"/>
<path d="M19.5676 41.0352C19.9108 41.1434 21.0683 41.3447 22.9533 41.2834" stroke="#212529" stroke-linecap="round"/>
<g style="mix-blend-mode:multiply">
<path d="M22.8384 42.7961L24.8934 42.4635L25.3467 41.4966H21.3878V47.4501C22.234 46.3621 22.7075 43.8941 22.8384 42.7961Z" fill="#FFE066"/>
</g>
</svg>
