<svg width="60" height="59" viewBox="0 0 60 59" fill="none" xmlns="http://www.w3.org/2000/svg">
<mask id="path-1-outside-1_50_9620" maskUnits="userSpaceOnUse" x="7.93176" y="5.97168" width="46" height="47" fill="black">
<rect fill="white" x="7.93176" y="5.97168" width="46" height="47"/>
<path fill-rule="evenodd" clip-rule="evenodd" d="M47.2352 8.21409C47.9851 8.68154 48.2141 9.66838 47.7467 10.4183C47.426 10.9327 46.993 11.6056 46.5108 12.3229C47.381 12.6769 48.318 13.1669 49.1676 13.7908C50.3839 14.6839 51.4792 15.8956 51.8755 17.4312C51.9903 17.8764 52.0137 18.3184 51.8558 18.7003C51.6834 19.1173 51.3389 19.3591 50.9491 19.452C50.5853 19.5387 50.1834 19.4991 49.7974 19.4013C49.4033 19.3015 48.9797 19.1293 48.5495 18.9027C47.1861 18.1842 45.6039 16.8358 44.5083 15.1095C44.3278 15.3387 44.1496 15.5572 43.9765 15.7595C43.6912 16.0929 43.3551 16.4608 43.0022 16.7568C44.5547 18.5708 45.7763 20.8357 46.4194 23.3803C47.7043 28.4634 46.6786 34.6217 41.5329 40.5738C36.4223 46.4855 30.0401 49.491 24.533 50.662C21.7809 51.2472 19.2269 51.3789 17.1359 51.1762C15.0982 50.9788 13.3259 50.4467 12.3093 49.5391C10.6188 48.0301 9.87345 46.5851 9.93531 44.8438C9.96423 44.0296 10.1684 43.2058 10.4483 42.3575C10.6879 41.6313 11.0008 40.837 11.3387 39.9793L11.3393 39.9778C11.3943 39.8383 11.4499 39.6972 11.5059 39.5544C11.8527 38.671 12.0127 37.4861 12.1221 35.9728C12.1582 35.4736 12.189 34.9351 12.2212 34.3694C12.2829 33.2877 12.3503 32.1063 12.472 30.9085C12.8491 27.1962 13.7716 22.9414 16.8378 18.9867C23.9501 9.81362 33.6264 10.96 37.7718 12.9054C38.7637 13.2983 39.7324 13.849 40.646 14.5354C40.7223 14.4645 40.8068 14.4 40.8989 14.3434C40.8983 14.3438 40.8978 14.3441 40.8977 14.3442C40.8973 14.3444 40.898 14.3438 40.8999 14.3424C40.9122 14.3332 40.9719 14.2882 41.0835 14.1796C41.21 14.0566 41.3648 13.8897 41.5453 13.6788C41.9064 13.2569 42.3227 12.7149 42.7556 12.1174C43.6195 10.9248 44.4934 9.58809 45.031 8.72551C45.4985 7.97562 46.4853 7.74665 47.2352 8.21409ZM45.2877 14.0764C46.2542 15.7893 47.8073 17.1552 49.1089 17.841C49.4782 18.0356 49.8121 18.1672 50.092 18.2381C50.3801 18.311 50.5688 18.309 50.671 18.2847C50.7393 18.2684 50.7438 18.2523 50.746 18.2443L50.7468 18.2418C50.7642 18.1998 50.7968 18.0538 50.7135 17.731C50.4131 16.5666 49.5553 15.5643 48.4573 14.758C47.6168 14.1408 46.6695 13.6641 45.8145 13.3382C45.6599 13.5588 45.5035 13.7787 45.3471 13.9947C45.3273 14.0219 45.3075 14.0492 45.2877 14.0764ZM36.947 14.7277C33.4227 13.0593 24.8226 11.9523 18.4184 20.2122C15.6789 23.7455 14.8211 27.5734 14.4618 31.1107C14.3439 32.2712 14.282 33.3609 14.2225 34.4109C14.1896 34.99 14.1574 35.557 14.1169 36.1171C14.0072 37.6334 13.8363 39.0913 13.3676 40.2852C13.3099 40.4323 13.2534 40.5756 13.1983 40.7156L13.1968 40.7194C12.8569 41.5826 12.568 42.3162 12.3476 42.9842C12.0923 43.7578 11.9532 44.375 11.934 44.9148C11.8997 45.8812 12.239 46.7955 13.6412 48.0471C14.1708 48.5199 15.41 48.9996 17.3289 49.1856C19.1945 49.3664 21.5422 49.2532 24.117 48.7057C29.2637 47.6114 35.2358 44.7998 40.0199 39.2658C44.7691 33.7724 45.5942 28.2768 44.4804 23.8704C43.3528 19.4092 40.2341 16.0205 37.0094 14.7547C36.9883 14.7464 36.9675 14.7374 36.947 14.7277Z"/>
</mask>
<path fill-rule="evenodd" clip-rule="evenodd" d="M47.2352 8.21409C47.9851 8.68154 48.2141 9.66838 47.7467 10.4183C47.426 10.9327 46.993 11.6056 46.5108 12.3229C47.381 12.6769 48.318 13.1669 49.1676 13.7908C50.3839 14.6839 51.4792 15.8956 51.8755 17.4312C51.9903 17.8764 52.0137 18.3184 51.8558 18.7003C51.6834 19.1173 51.3389 19.3591 50.9491 19.452C50.5853 19.5387 50.1834 19.4991 49.7974 19.4013C49.4033 19.3015 48.9797 19.1293 48.5495 18.9027C47.1861 18.1842 45.6039 16.8358 44.5083 15.1095C44.3278 15.3387 44.1496 15.5572 43.9765 15.7595C43.6912 16.0929 43.3551 16.4608 43.0022 16.7568C44.5547 18.5708 45.7763 20.8357 46.4194 23.3803C47.7043 28.4634 46.6786 34.6217 41.5329 40.5738C36.4223 46.4855 30.0401 49.491 24.533 50.662C21.7809 51.2472 19.2269 51.3789 17.1359 51.1762C15.0982 50.9788 13.3259 50.4467 12.3093 49.5391C10.6188 48.0301 9.87345 46.5851 9.93531 44.8438C9.96423 44.0296 10.1684 43.2058 10.4483 42.3575C10.6879 41.6313 11.0008 40.837 11.3387 39.9793L11.3393 39.9778C11.3943 39.8383 11.4499 39.6972 11.5059 39.5544C11.8527 38.671 12.0127 37.4861 12.1221 35.9728C12.1582 35.4736 12.189 34.9351 12.2212 34.3694C12.2829 33.2877 12.3503 32.1063 12.472 30.9085C12.8491 27.1962 13.7716 22.9414 16.8378 18.9867C23.9501 9.81362 33.6264 10.96 37.7718 12.9054C38.7637 13.2983 39.7324 13.849 40.646 14.5354C40.7223 14.4645 40.8068 14.4 40.8989 14.3434C40.8983 14.3438 40.8978 14.3441 40.8977 14.3442C40.8973 14.3444 40.898 14.3438 40.8999 14.3424C40.9122 14.3332 40.9719 14.2882 41.0835 14.1796C41.21 14.0566 41.3648 13.8897 41.5453 13.6788C41.9064 13.2569 42.3227 12.7149 42.7556 12.1174C43.6195 10.9248 44.4934 9.58809 45.031 8.72551C45.4985 7.97562 46.4853 7.74665 47.2352 8.21409ZM45.2877 14.0764C46.2542 15.7893 47.8073 17.1552 49.1089 17.841C49.4782 18.0356 49.8121 18.1672 50.092 18.2381C50.3801 18.311 50.5688 18.309 50.671 18.2847C50.7393 18.2684 50.7438 18.2523 50.746 18.2443L50.7468 18.2418C50.7642 18.1998 50.7968 18.0538 50.7135 17.731C50.4131 16.5666 49.5553 15.5643 48.4573 14.758C47.6168 14.1408 46.6695 13.6641 45.8145 13.3382C45.6599 13.5588 45.5035 13.7787 45.3471 13.9947C45.3273 14.0219 45.3075 14.0492 45.2877 14.0764ZM36.947 14.7277C33.4227 13.0593 24.8226 11.9523 18.4184 20.2122C15.6789 23.7455 14.8211 27.5734 14.4618 31.1107C14.3439 32.2712 14.282 33.3609 14.2225 34.4109C14.1896 34.99 14.1574 35.557 14.1169 36.1171C14.0072 37.6334 13.8363 39.0913 13.3676 40.2852C13.3099 40.4323 13.2534 40.5756 13.1983 40.7156L13.1968 40.7194C12.8569 41.5826 12.568 42.3162 12.3476 42.9842C12.0923 43.7578 11.9532 44.375 11.934 44.9148C11.8997 45.8812 12.239 46.7955 13.6412 48.0471C14.1708 48.5199 15.41 48.9996 17.3289 49.1856C19.1945 49.3664 21.5422 49.2532 24.117 48.7057C29.2637 47.6114 35.2358 44.7998 40.0199 39.2658C44.7691 33.7724 45.5942 28.2768 44.4804 23.8704C43.3528 19.4092 40.2341 16.0205 37.0094 14.7547C36.9883 14.7464 36.9675 14.7374 36.947 14.7277Z" fill="#F8F9FA"/>
<path d="M47.7467 10.4183L46.4737 9.62479L46.4737 9.62479L47.7467 10.4183ZM47.2352 8.21409L48.0287 6.94115L48.0287 6.94115L47.2352 8.21409ZM46.5108 12.3229L45.2659 11.4861C45.014 11.8608 44.9443 12.329 45.0762 12.7609C45.208 13.1927 45.5274 13.5422 45.9456 13.7123L46.5108 12.3229ZM49.1676 13.7908L50.0554 12.5818L50.0554 12.5818L49.1676 13.7908ZM51.8755 17.4312L53.3279 17.0565L53.3279 17.0565L51.8755 17.4312ZM51.8558 18.7003L50.4696 18.1272L50.4696 18.1272L51.8558 18.7003ZM50.9491 19.452L50.6015 17.9929L50.6014 17.9929L50.9491 19.452ZM49.7974 19.4013L50.1656 17.9472L50.1656 17.9472L49.7974 19.4013ZM48.5495 18.9027L47.8503 20.2297L47.8503 20.2297L48.5495 18.9027ZM44.5083 15.1095L45.7747 14.3057C45.514 13.8949 45.0702 13.6361 44.5843 13.6114C44.0983 13.5868 43.6306 13.7993 43.3297 14.1817L44.5083 15.1095ZM43.9765 15.7595L42.8369 14.7841L42.8369 14.7842L43.9765 15.7595ZM43.0022 16.7568L42.0383 15.6075C41.7315 15.8649 41.5403 16.2342 41.5073 16.6332C41.4743 17.0322 41.6023 17.4279 41.8626 17.7321L43.0022 16.7568ZM46.4194 23.3803L44.9652 23.7479L44.9652 23.7479L46.4194 23.3803ZM41.5329 40.5738L40.3982 39.5928L40.3982 39.5928L41.5329 40.5738ZM24.533 50.662L24.845 52.1292L24.845 52.1292L24.533 50.662ZM17.1359 51.1762L17.2806 49.6832L17.2806 49.6832L17.1359 51.1762ZM12.3093 49.5391L13.3082 48.4201L13.3082 48.4201L12.3093 49.5391ZM9.93531 44.8438L11.4344 44.897L11.4344 44.897L9.93531 44.8438ZM10.4483 42.3575L9.02386 41.8875L9.02386 41.8875L10.4483 42.3575ZM11.3387 39.9793L12.7344 40.5291L12.7348 40.528L11.3387 39.9793ZM11.3393 39.9778L9.94374 39.428L9.94333 39.429L11.3393 39.9778ZM11.5059 39.5544L12.9022 40.1025L12.9022 40.1025L11.5059 39.5544ZM12.1221 35.9728L13.6182 36.081L13.6182 36.081L12.1221 35.9728ZM12.2212 34.3694L13.7188 34.4548L13.7188 34.4548L12.2212 34.3694ZM12.472 30.9085L10.9797 30.7569L10.9797 30.7569L12.472 30.9085ZM16.8378 18.9867L18.0233 19.9058L16.8378 18.9867ZM37.7718 12.9054L37.1346 14.2633C37.1625 14.2764 37.1908 14.2887 37.2194 14.3L37.7718 12.9054ZM40.646 14.5354L39.745 15.7346C40.3253 16.1707 41.1347 16.1285 41.6666 15.6346L40.646 14.5354ZM40.8989 14.3434L41.6841 15.6215C42.3899 15.188 42.6107 14.2643 42.1771 13.5584C41.7436 12.8525 40.82 12.6317 40.1141 13.0651L40.8989 14.3434ZM40.8977 14.3442L41.574 15.683L41.5772 15.6814L40.8977 14.3442ZM40.8999 14.3424L41.8017 15.5411L41.8021 15.5408L40.8999 14.3424ZM41.0835 14.1796L40.0377 13.1043L40.0377 13.1043L41.0835 14.1796ZM41.5453 13.6788L42.685 14.6541L42.685 14.6541L41.5453 13.6788ZM42.7556 12.1174L43.9703 12.9974L43.9703 12.9974L42.7556 12.1174ZM45.031 8.72551L46.304 9.519L46.304 9.519L45.031 8.72551ZM45.2877 14.0764L44.0749 13.1938C43.7292 13.6688 43.6927 14.3019 43.9814 14.8135L45.2877 14.0764ZM49.1089 17.841L49.8082 16.514L49.8082 16.514L49.1089 17.841ZM50.092 18.2381L50.4602 16.784L50.4602 16.784L50.092 18.2381ZM50.671 18.2847L50.3233 16.8255L50.3233 16.8255L50.671 18.2847ZM50.746 18.2443L49.3164 17.7902C49.3109 17.8076 49.3057 17.8251 49.3008 17.8427L50.746 18.2443ZM50.7468 18.2418L49.3606 17.6688C49.3445 17.7078 49.33 17.7475 49.3172 17.7877L50.7468 18.2418ZM50.7135 17.731L49.2611 18.1057L49.2611 18.1057L50.7135 17.731ZM48.4573 14.758L49.3452 13.549L48.4573 14.758ZM45.8145 13.3382L46.3487 11.9366C45.7066 11.6919 44.9803 11.9147 44.586 12.4775L45.8145 13.3382ZM45.3471 13.9947L44.1323 13.1147L44.1323 13.1147L45.3471 13.9947ZM18.4184 20.2122L19.6038 21.1313L19.6038 21.1313L18.4184 20.2122ZM36.947 14.7277L36.3051 16.0834L36.3052 16.0834L36.947 14.7277ZM14.4618 31.1107L12.9694 30.959L14.4618 31.1107ZM14.2225 34.4109L12.7249 34.3259L12.7249 34.3259L14.2225 34.4109ZM14.1169 36.1171L12.6208 36.0089L12.6208 36.0089L14.1169 36.1171ZM13.3676 40.2852L14.7639 40.8333L14.7639 40.8333L13.3676 40.2852ZM13.1983 40.7156L14.594 41.2652L14.594 41.2652L13.1983 40.7156ZM13.1968 40.7194L11.8012 40.1697L11.8012 40.1697L13.1968 40.7194ZM12.3476 42.9842L13.7721 43.4542L13.7721 43.4542L12.3476 42.9842ZM11.934 44.9148L13.4331 44.968L13.4331 44.968L11.934 44.9148ZM13.6412 48.0471L14.6401 46.9281L14.6401 46.9281L13.6412 48.0471ZM17.3289 49.1856L17.4736 47.6926L17.4736 47.6926L17.3289 49.1856ZM24.117 48.7057L24.429 50.1729L24.429 50.1729L24.117 48.7057ZM40.0199 39.2658L38.8852 38.2848L38.8852 38.2848L40.0199 39.2658ZM44.4804 23.8704L45.9347 23.5028L45.9347 23.5028L44.4804 23.8704ZM37.0094 14.7547L37.5575 13.3584L37.5575 13.3584L37.0094 14.7547ZM49.0196 11.2118C49.9253 9.75884 49.4816 7.84682 48.0287 6.94115L46.4418 9.48703C46.4886 9.51625 46.5029 9.57793 46.4737 9.62479L49.0196 11.2118ZM47.7557 13.1597C48.2475 12.4281 48.6899 11.7408 49.0196 11.2118L46.4737 9.62479C46.1621 10.1247 45.7385 10.7832 45.2659 11.4861L47.7557 13.1597ZM45.9456 13.7123C46.7227 14.0285 47.547 14.4617 48.2798 14.9998L50.0554 12.5818C49.089 11.872 48.0392 11.3253 47.0761 10.9335L45.9456 13.7123ZM48.2798 14.9998C49.3485 15.7846 50.1466 16.7346 50.423 17.806L53.3279 17.0565C52.8119 15.0565 51.4193 13.5833 50.0554 12.5818L48.2798 14.9998ZM50.423 17.806C50.4577 17.9404 50.4678 18.0343 50.4679 18.0927C50.468 18.148 50.4593 18.152 50.4696 18.1272L53.242 19.2734C53.5757 18.4661 53.482 17.6538 53.3279 17.0565L50.423 17.806ZM50.4696 18.1272C50.4747 18.1148 50.4843 18.0963 50.5 18.0755C50.5156 18.0549 50.5334 18.0371 50.5511 18.023C50.5866 17.9949 50.6091 17.991 50.6015 17.9929L51.2968 20.9112C52.0754 20.7256 52.8565 20.2058 53.242 19.2734L50.4696 18.1272ZM50.6014 17.9929C50.5647 18.0016 50.4292 18.014 50.1656 17.9472L49.4292 20.8554C49.9376 20.9842 50.606 21.0758 51.2968 20.9111L50.6014 17.9929ZM50.1656 17.9472C49.9143 17.8836 49.6028 17.7622 49.2488 17.5756L47.8503 20.2297C48.3566 20.4965 48.8923 20.7195 49.4292 20.8554L50.1656 17.9472ZM49.2488 17.5756C48.1086 16.9748 46.7253 15.8034 45.7747 14.3057L43.2418 15.9133C44.4825 17.8682 46.2635 19.3936 47.8503 20.2297L49.2488 17.5756ZM45.1162 16.7348C45.3051 16.514 45.4965 16.2792 45.6869 16.0373L43.3297 14.1817C43.1592 14.3982 42.9941 14.6005 42.8369 14.7841L45.1162 16.7348ZM43.9662 17.906C44.4155 17.5292 44.8155 17.0861 45.1162 16.7348L42.8369 14.7842C42.5669 15.0996 42.2948 15.3923 42.0383 15.6075L43.9662 17.906ZM47.8737 23.0127C47.1722 20.2375 45.8402 17.7659 44.1419 15.7815L41.8626 17.7321C43.2692 19.3756 44.3803 21.4339 44.9652 23.7479L47.8737 23.0127ZM42.6677 41.5548C48.1106 35.2588 49.2869 28.6036 47.8737 23.0127L44.9652 23.7479C46.1217 28.3233 45.2465 33.9845 40.3982 39.5928L42.6677 41.5548ZM24.845 52.1292C30.6224 50.9007 37.3122 47.7497 42.6677 41.5548L40.3982 39.5928C35.5324 45.2212 29.4578 48.0812 24.221 49.1948L24.845 52.1292ZM16.9912 52.6692C19.2513 52.8883 21.9599 52.7427 24.845 52.1292L24.221 49.1948C21.6019 49.7517 19.2026 49.8695 17.2806 49.6832L16.9912 52.6692ZM11.3104 50.6581C12.6922 51.8917 14.8641 52.4631 16.9912 52.6692L17.2806 49.6832C15.3323 49.4944 13.9597 49.0017 13.3082 48.4201L11.3104 50.6581ZM8.43626 44.7905C8.35371 47.1143 9.405 48.9572 11.3104 50.6581L13.3082 48.4201C11.8326 47.1029 11.3932 46.0558 11.4344 44.897L8.43626 44.7905ZM9.02386 41.8875C8.72538 42.7921 8.47248 43.7707 8.43626 44.7905L11.4344 44.897C11.456 44.2885 11.6114 43.6195 11.8728 42.8275L9.02386 41.8875ZM9.94314 39.4295C9.60939 40.2767 9.27942 41.113 9.02386 41.8875L11.8728 42.8275C12.0965 42.1496 12.3923 41.3974 12.7344 40.5291L9.94314 39.4295ZM9.94333 39.429L9.94273 39.4305L12.7348 40.528L12.7354 40.5265L9.94333 39.429ZM10.1096 39.0063C10.054 39.1481 9.99872 39.2884 9.94374 39.428L12.735 40.5276C12.7898 40.3882 12.8458 40.2463 12.9022 40.1025L10.1096 39.0063ZM10.626 35.8646C10.5167 37.3768 10.3648 38.3562 10.1096 39.0063L12.9022 40.1025C13.3406 38.9858 13.5087 37.5955 13.6182 36.081L10.626 35.8646ZM10.7237 34.284C10.6912 34.8524 10.6612 35.3789 10.626 35.8646L13.6182 36.081C13.6553 35.5682 13.6867 35.0179 13.7188 34.4548L10.7237 34.284ZM10.9797 30.7569C10.8541 31.9928 10.7851 33.2066 10.7237 34.284L13.7188 34.4548C13.7807 33.3687 13.8465 32.2197 13.9643 31.0601L10.9797 30.7569ZM15.6524 18.0676C12.3412 22.3382 11.3702 26.9133 10.9797 30.7569L13.9643 31.0601C14.3281 27.4791 15.202 23.5445 18.0233 19.9058L15.6524 18.0676ZM38.4091 11.5475C33.8138 9.39096 23.3088 8.19266 15.6524 18.0676L18.0233 19.9058C24.5914 11.4346 33.4391 12.5291 37.1346 14.2633L38.4091 11.5475ZM41.547 13.3361C40.5354 12.5761 39.4505 11.957 38.3242 11.5109L37.2194 14.3C38.077 14.6397 38.9295 15.122 39.745 15.7346L41.547 13.3361ZM40.1141 13.0651C39.9371 13.1738 39.7737 13.2983 39.6253 13.4362L41.6666 15.6346C41.6709 15.6306 41.6764 15.6262 41.6838 15.6217L40.1141 13.0651ZM41.5772 15.6814C41.6119 15.6638 41.6383 15.6486 41.6452 15.6446C41.656 15.6384 41.6645 15.6334 41.6686 15.6309C41.6767 15.6261 41.6832 15.622 41.6841 15.6215L40.1138 13.0653C40.114 13.0652 40.1199 13.0615 40.1276 13.0569C40.1315 13.0546 40.1398 13.0497 40.1504 13.0435C40.1559 13.0404 40.164 13.0358 40.1738 13.0304C40.183 13.0254 40.1985 13.0169 40.2181 13.0069L41.5772 15.6814ZM39.9982 13.1437C39.9982 13.1437 39.9959 13.1454 39.9934 13.1473C39.9922 13.1482 39.9836 13.1547 39.973 13.163C39.968 13.1669 39.956 13.1764 39.9409 13.1889C39.9384 13.191 39.8862 13.2333 39.8276 13.293C39.8098 13.3111 39.7792 13.343 39.744 13.3854C39.7174 13.4174 39.6437 13.5076 39.574 13.6384C39.5387 13.7046 39.4797 13.8265 39.44 13.9901C39.4018 14.147 39.3568 14.4438 39.4662 14.7929C39.7531 15.708 40.6081 15.831 40.8184 15.8421C41.0642 15.8551 41.2521 15.8024 41.2961 15.7903C41.3697 15.77 41.4263 15.7483 41.4549 15.7368C41.5137 15.7133 41.558 15.6911 41.574 15.683L40.2213 13.0053C40.2373 12.9973 40.2815 12.9751 40.3403 12.9516C40.3689 12.9401 40.4255 12.9184 40.4991 12.8981C40.5431 12.886 40.7309 12.8333 40.9768 12.8463C41.1871 12.8574 42.042 12.9804 42.3289 13.8955C42.4383 14.2446 42.3933 14.5414 42.3552 14.6983C42.3154 14.8619 42.2565 14.9838 42.2211 15.05C42.1514 15.1808 42.0778 15.271 42.0511 15.303C42.0159 15.3453 41.9854 15.3773 41.9676 15.3954C41.909 15.455 41.8569 15.4973 41.8545 15.4993C41.8396 15.5116 41.8277 15.521 41.8229 15.5248C41.8086 15.5359 41.7941 15.5468 41.8017 15.5411L39.9982 13.1437ZM40.0377 13.1043C40.0036 13.1375 39.9847 13.1539 39.9806 13.1574C39.9787 13.159 39.98 13.1578 39.9846 13.1542C39.9869 13.1523 39.9896 13.1502 39.9927 13.1479C39.9958 13.1455 39.9985 13.1435 39.9978 13.144L41.8021 15.5408C41.8618 15.4958 41.9699 15.41 42.1294 15.2549L40.0377 13.1043ZM40.4057 12.7035C40.2436 12.8929 40.1209 13.0234 40.0377 13.1043L42.1294 15.2549C42.2991 15.0898 42.4861 14.8865 42.685 14.6541L40.4057 12.7035ZM41.5408 11.2375C41.1198 11.8186 40.7299 12.3247 40.4057 12.7035L42.685 14.6541C43.0828 14.1892 43.5256 13.6113 43.9703 12.9974L41.5408 11.2375ZM43.7581 7.93202C43.2336 8.77344 42.3793 10.0799 41.5408 11.2375L43.9703 12.9974C44.8597 11.7697 45.7531 10.4027 46.304 9.519L43.7581 7.93202ZM48.0287 6.94115C46.5758 6.03547 44.6638 6.47911 43.7581 7.93203L46.304 9.519C46.3332 9.47213 46.3949 9.45782 46.4418 9.48703L48.0287 6.94115ZM43.9814 14.8135C45.0983 16.793 46.8697 18.3567 48.4097 19.1681L49.8082 16.514C48.7449 15.9537 47.4102 14.7855 46.5941 13.3393L43.9814 14.8135ZM48.4097 19.1681C48.8551 19.4028 49.3011 19.5851 49.7238 19.6922L50.4602 16.784C50.3231 16.7492 50.1014 16.6685 49.8082 16.514L48.4097 19.1681ZM49.7238 19.6922C50.1342 19.7961 50.5894 19.8461 51.0187 19.7438L50.3233 16.8255C50.392 16.8092 50.4451 16.8035 50.4768 16.8013C50.5099 16.7991 50.531 16.8 50.5383 16.8004C50.5519 16.8012 50.5276 16.801 50.4602 16.784L49.7238 19.6922ZM51.0186 19.7438C51.1176 19.7203 51.3576 19.6578 51.6018 19.4844C51.7429 19.3841 51.8939 19.2412 52.0165 19.0442C52.1396 18.8464 52.1859 18.6653 52.1913 18.6458L49.3008 17.8427C49.2997 17.8467 49.3154 17.7872 49.3419 17.7172C49.3709 17.6406 49.4116 17.5521 49.4694 17.4592C49.5884 17.268 49.7336 17.1316 49.8648 17.0384C50.0891 16.8791 50.2927 16.8328 50.3233 16.8255L51.0186 19.7438ZM52.1757 18.6984L52.1764 18.6959L49.3172 17.7877L49.3164 17.7902L52.1757 18.6984ZM52.133 18.8149C52.3255 18.3492 52.2892 17.8339 52.1659 17.3563L49.2611 18.1057C49.2779 18.1711 49.268 18.1613 49.2679 18.0933C49.2679 18.0587 49.2704 18.0056 49.2819 17.9379C49.2928 17.8743 49.3145 17.7803 49.3606 17.6688L52.133 18.8149ZM52.1659 17.3563C51.7459 15.7281 50.5914 14.4641 49.3452 13.549L47.5695 15.967C48.5192 16.6645 49.0803 17.4051 49.2611 18.1057L52.1659 17.3563ZM49.3452 13.549C48.3761 12.8374 47.3045 12.3009 46.3487 11.9366L45.2803 14.7399C46.0346 15.0274 46.8575 15.4441 47.5695 15.967L49.3452 13.549ZM46.5619 14.8746C46.7234 14.6516 46.8843 14.4253 47.043 14.1989L44.586 12.4775C44.4354 12.6924 44.2837 12.9058 44.1323 13.1147L46.5619 14.8746ZM46.5006 14.959C46.521 14.931 46.5414 14.9028 46.5619 14.8746L44.1323 13.1147C44.1132 13.141 44.0941 13.1674 44.0749 13.1938L46.5006 14.959ZM19.6038 21.1313C25.4652 13.5716 33.2361 14.6306 36.3051 16.0834L37.5888 13.3719C33.6092 11.488 24.1801 10.3329 17.233 19.2931L19.6038 21.1313ZM15.9541 31.2623C16.3001 27.8564 17.1093 24.3486 19.6038 21.1313L17.233 19.2931C14.2484 23.1424 13.3421 27.2905 12.9694 30.959L15.9541 31.2623ZM15.72 34.4958C15.7798 33.4423 15.84 32.3847 15.9541 31.2623L12.9694 30.959C12.8477 32.1577 12.7842 33.2795 12.7249 34.3259L15.72 34.4958ZM15.613 36.2253C15.6545 35.6516 15.6873 35.0728 15.72 34.4958L12.7249 34.3259C12.6919 34.9071 12.6604 35.4624 12.6208 36.0089L15.613 36.2253ZM14.7639 40.8333C15.3238 39.4068 15.5031 37.7447 15.613 36.2253L12.6208 36.0089C12.5114 37.522 12.3487 38.7757 11.9713 39.7371L14.7639 40.8333ZM14.594 41.2652C14.6491 41.1254 14.7058 40.9812 14.7639 40.8333L11.9713 39.7371C11.914 39.8833 11.8578 40.0259 11.8026 40.166L14.594 41.2652ZM14.5925 41.269L14.594 41.2652L11.8026 40.166L11.8012 40.1697L14.5925 41.269ZM13.7721 43.4542C13.9765 42.8347 14.248 42.1438 14.5925 41.269L11.8012 40.1697C11.4657 41.0215 11.1595 41.7978 10.9231 42.5142L13.7721 43.4542ZM13.4331 44.968C13.445 44.6343 13.5352 44.1721 13.7721 43.4542L10.9231 42.5142C10.6495 43.3435 10.4615 44.1158 10.435 44.8615L13.4331 44.968ZM14.6401 46.9281C14.0211 46.3756 13.7297 45.9782 13.5875 45.6971C13.4607 45.4463 13.4237 45.233 13.4331 44.968L10.435 44.8615C10.4101 45.563 10.5256 46.29 10.9104 47.0509C11.2798 47.7815 11.8591 48.467 12.6423 49.1661L14.6401 46.9281ZM17.4736 47.6926C16.6022 47.6081 15.924 47.4604 15.4321 47.2988C14.916 47.1293 14.6899 46.9726 14.6401 46.9281L12.6423 49.1661C13.1221 49.5944 13.7804 49.914 14.496 50.149C15.2358 50.392 16.1366 50.5771 17.1842 50.6786L17.4736 47.6926ZM23.805 47.2385C21.3633 47.7578 19.1701 47.857 17.4736 47.6926L17.1842 50.6786C19.2188 50.8758 21.7212 50.7487 24.429 50.1729L23.805 47.2385ZM38.8852 38.2848C34.3458 43.5357 28.6813 46.2017 23.805 47.2385L24.429 50.1729C29.8461 49.021 36.1257 46.064 41.1547 40.2468L38.8852 38.2848ZM43.0262 24.238C44.0117 28.1369 43.3368 33.1355 38.8852 38.2848L41.1547 40.2468C46.2013 34.4092 47.1767 28.4166 45.9347 23.5028L43.0262 24.238ZM36.4613 16.151C39.1958 17.2243 42.0061 20.2025 43.0262 24.238L45.9347 23.5028C44.6994 18.616 41.2724 14.8166 37.5575 13.3584L36.4613 16.151ZM36.3052 16.0834C36.3564 16.1077 36.4085 16.1302 36.4614 16.151L37.5575 13.3584C37.5681 13.3625 37.5785 13.367 37.5887 13.3719L36.3052 16.0834Z" fill="#F8F9FA" mask="url(#path-1-outside-1_50_9620)"/>
<path d="M17.5768 19.6044C24.3439 10.8765 33.4973 12.0175 37.3235 13.8288C44.4269 16.6172 50.6199 28.4792 40.7251 39.9248C30.8303 51.3705 16.0165 51.5589 12.9239 48.7981C9.83132 46.0374 10.7545 44.0796 12.3855 39.9248C14.0164 35.77 11.771 27.0924 17.5768 19.6044Z" fill="#FFD43B" stroke="#212529" stroke-width="2" stroke-linecap="round" stroke-linejoin="round"/>
<g style="mix-blend-mode:multiply">
<path fill-rule="evenodd" clip-rule="evenodd" d="M11.2498 47.4519C11.5045 47.7531 11.8074 48.0604 12.1635 48.3784C15.2561 51.1391 30.07 50.9507 39.9647 39.5051C48.6671 29.4387 44.9255 19.0503 39.065 14.7958C43.8882 19.6615 46.1644 29.0043 38.314 38.0851C29.0551 48.7953 15.4889 49.6485 11.2498 47.4519Z" fill="#DEE2E6"/>
</g>
<g style="mix-blend-mode:soft-light" opacity="0.8">
<path fill-rule="evenodd" clip-rule="evenodd" d="M37.7113 14.6363C33.9495 12.9069 24.95 11.8175 18.2967 20.1507C14.5144 24.8881 14.2076 30.1242 13.9646 34.2722C13.8409 36.384 13.7337 38.2139 13.1927 39.5522C13.1364 39.6914 13.081 39.8281 13.0265 39.9624C11.5303 43.6513 10.7883 45.4809 13.7221 48.0242C14.1604 48.4042 14.8382 48.7256 15.7064 48.9648C15.2753 48.7682 14.9237 48.5465 14.6627 48.3056C11.8123 45.6744 12.6129 43.8682 14.2272 40.2266C14.2859 40.0941 14.3457 39.9591 14.4065 39.8216C14.9903 38.5004 15.1564 36.6747 15.348 34.5676C15.7245 30.4291 16.1998 25.2049 20.1329 20.5847C27.0513 12.4576 36.0113 13.8199 39.7156 15.6626C39.7282 15.6679 39.7409 15.6732 39.7535 15.6785C39.0914 15.2514 38.4058 14.901 37.7113 14.6363Z" fill="#F8F9FA"/>
</g>
<path d="M46.3375 9.57715C45.234 11.3475 42.7586 15.0529 41.6848 15.7122" stroke="#212529" stroke-width="3.2" stroke-linecap="round" stroke-linejoin="round"/>
<path d="M51.2432 17.5857C50.5465 14.8857 47.3368 13.1578 45.196 12.5157C44.5516 12.3225 44.0294 12.9081 44.2935 13.5268C46.1932 17.9758 52.0356 20.6572 51.2432 17.5857Z" fill="#40C057" stroke="#212529" stroke-width="1.2" stroke-linecap="round"/>
<g style="mix-blend-mode:soft-light" opacity="0.4">
<path d="M29.9316 17.2525C28.4135 15.4105 24.8445 17.4801 23.7304 19.7316C23.226 20.7508 23.9636 22.8543 25.5581 21.0492C27.5512 18.7927 31.3251 18.9432 29.9316 17.2525Z" fill="#F8F9FA"/>
</g>
</svg>
