<svg width="60" height="60" viewBox="0 0 60 60" fill="none" xmlns="http://www.w3.org/2000/svg">
<g filter="url(#filter0_d_694_6690)">
<mask id="path-1-outside-1_694_6690" maskUnits="userSpaceOnUse" x="9.99213" y="8.2334" width="41" height="41" fill="black">
<rect fill="white" x="9.99213" y="8.2334" width="41" height="41"/>
<path fill-rule="evenodd" clip-rule="evenodd" d="M21.2084 10.6013C22.6076 9.60816 24.3176 10.7748 24.2113 12.3245C24.0309 14.9523 23.8158 18.3874 24.2535 21.8294C24.6913 25.2733 25.7705 28.6166 28.093 31.1298C30.4177 33.6455 33.7674 35.2023 37.2384 36.1597C40.6982 37.1141 44.1837 37.4473 46.6845 37.5822C47.4502 37.6235 48.0789 38.0763 48.3712 38.7013C48.6718 39.3441 48.6014 40.1493 48.0343 40.7527C44.8257 44.1668 39.3313 46.5045 33.6052 46.9317C27.8594 47.3603 21.7027 45.8772 17.2383 41.4128C12.7044 36.879 11.3344 30.8276 12.2702 25.1147C13.2036 19.4167 16.4369 13.9881 21.2084 10.6013L21.7826 11.4104L21.2084 10.6013ZM22.205 12.3479C17.9799 15.4169 15.0849 20.3037 14.2439 25.438C13.3946 30.6225 14.6456 35.9918 18.6525 39.9986C22.6 43.9461 28.1244 45.335 33.4564 44.9372C38.6952 44.5464 43.5779 42.4421 46.3979 39.5694C43.8443 39.4248 40.2807 39.0736 36.7066 38.0877C33.0594 37.0817 29.3056 35.389 26.6241 32.4872C23.9078 29.5478 22.7344 25.7389 22.2694 22.0817C21.8136 18.4967 22.027 14.9542 22.205 12.3479Z"/>
</mask>
<path fill-rule="evenodd" clip-rule="evenodd" d="M21.2084 10.6013C22.6076 9.60816 24.3176 10.7748 24.2113 12.3245C24.0309 14.9523 23.8158 18.3874 24.2535 21.8294C24.6913 25.2733 25.7705 28.6166 28.093 31.1298C30.4177 33.6455 33.7674 35.2023 37.2384 36.1597C40.6982 37.1141 44.1837 37.4473 46.6845 37.5822C47.4502 37.6235 48.0789 38.0763 48.3712 38.7013C48.6718 39.3441 48.6014 40.1493 48.0343 40.7527C44.8257 44.1668 39.3313 46.5045 33.6052 46.9317C27.8594 47.3603 21.7027 45.8772 17.2383 41.4128C12.7044 36.879 11.3344 30.8276 12.2702 25.1147C13.2036 19.4167 16.4369 13.9881 21.2084 10.6013L21.7826 11.4104L21.2084 10.6013ZM22.205 12.3479C17.9799 15.4169 15.0849 20.3037 14.2439 25.438C13.3946 30.6225 14.6456 35.9918 18.6525 39.9986C22.6 43.9461 28.1244 45.335 33.4564 44.9372C38.6952 44.5464 43.5779 42.4421 46.3979 39.5694C43.8443 39.4248 40.2807 39.0736 36.7066 38.0877C33.0594 37.0817 29.3056 35.389 26.6241 32.4872C23.9078 29.5478 22.7344 25.7389 22.2694 22.0817C21.8136 18.4967 22.027 14.9542 22.205 12.3479Z" fill="#F8F9FA"/>
<path d="M24.2113 12.3245L25.7077 12.4272V12.4272L24.2113 12.3245ZM21.2084 10.6013L20.3402 9.37814C19.6646 9.85764 19.5057 10.794 19.9852 11.4695L21.2084 10.6013ZM24.2535 21.8294L22.7654 22.0186L24.2535 21.8294ZM28.093 31.1298L29.1946 30.1118L28.093 31.1298ZM37.2384 36.1597L36.8396 37.6057L37.2384 36.1597ZM46.6845 37.5822L46.7653 36.0844H46.7653L46.6845 37.5822ZM48.3712 38.7013L47.0124 39.3368H47.0124L48.3712 38.7013ZM48.0343 40.7527L46.9412 39.7254L46.9412 39.7254L48.0343 40.7527ZM33.6052 46.9317L33.7168 48.4275L33.6052 46.9317ZM17.2383 41.4128L16.1776 42.4735L17.2383 41.4128ZM12.2702 25.1147L10.7899 24.8723L12.2702 25.1147ZM21.2084 10.6013L22.4316 9.73312C21.9521 9.05757 21.0157 8.89864 20.3402 9.37814L21.2084 10.6013ZM20.5594 12.2786C21.0389 12.9541 21.9753 13.1131 22.6509 12.6336C23.3264 12.1541 23.4853 11.2177 23.0058 10.5422L20.5594 12.2786ZM14.2439 25.438L15.7241 25.6805L14.2439 25.438ZM22.205 12.3479L23.7015 12.4501C23.7412 11.869 23.4408 11.3174 22.9312 11.0354C22.4215 10.7534 21.7947 10.792 21.3234 11.1343L22.205 12.3479ZM18.6525 39.9986L17.5918 41.0593L18.6525 39.9986ZM33.4564 44.9372L33.568 46.4331L33.4564 44.9372ZM46.3979 39.5694L47.4683 40.6202C47.8807 40.2 48.0092 39.5774 47.7969 39.0283C47.5845 38.4792 47.0705 38.1051 46.4827 38.0718L46.3979 39.5694ZM36.7066 38.0877L36.3077 39.5337H36.3077L36.7066 38.0877ZM26.6241 32.4872L25.5225 33.5052L25.5225 33.5052L26.6241 32.4872ZM22.2694 22.0817L20.7814 22.2709L22.2694 22.0817ZM25.7077 12.4272C25.8017 11.0579 25.0911 9.86372 24.0585 9.23058C22.9914 8.57624 21.5616 8.51119 20.3402 9.37814L22.0766 11.8245C22.1874 11.7459 22.2646 11.7342 22.3085 11.7334C22.36 11.7326 22.4229 11.7468 22.4903 11.7881C22.636 11.8774 22.7272 12.0414 22.7148 12.2218L25.7077 12.4272ZM25.7415 21.6402C25.3246 18.3611 25.527 15.0608 25.7077 12.4272L22.7148 12.2217C22.5348 14.8437 22.3071 18.4137 22.7654 22.0186L25.7415 21.6402ZM29.1946 30.1118C27.1675 27.9182 26.159 24.9239 25.7415 21.6402L22.7654 22.0186C23.2237 25.6226 24.3735 29.315 26.9913 32.1478L29.1946 30.1118ZM37.6373 34.7137C34.2985 33.7928 31.2518 32.3379 29.1946 30.1118L26.9913 32.1478C29.5836 34.9531 33.2364 36.6119 36.8396 37.6057L37.6373 34.7137ZM46.7653 36.0844C44.3122 35.9521 40.948 35.627 37.6373 34.7137L36.8396 37.6057C40.4484 38.6012 44.0553 38.9426 46.6038 39.08L46.7653 36.0844ZM49.7299 38.0659C49.2061 36.9457 48.09 36.1558 46.7653 36.0844L46.6038 39.08C46.8104 39.0912 46.9517 39.2069 47.0124 39.3368L49.7299 38.0659ZM49.1273 41.78C50.1425 40.6998 50.2733 39.2277 49.7299 38.0659L47.0124 39.3368C47.0426 39.4013 47.0518 39.4695 47.0431 39.53C47.0355 39.5838 47.0117 39.6505 46.9412 39.7254L49.1273 41.78ZM33.7168 48.4275C39.7237 47.9794 45.604 45.5289 49.1273 41.78L46.9412 39.7254C44.0473 42.8047 38.939 45.0296 33.4936 45.4358L33.7168 48.4275ZM16.1776 42.4735C21.0299 47.3258 27.6611 48.8793 33.7168 48.4275L33.4936 45.4358C28.0577 45.8414 22.3754 44.4287 18.2989 40.3522L16.1776 42.4735ZM10.7899 24.8723C9.78923 30.9811 11.2483 37.5442 16.1776 42.4735L18.2989 40.3522C14.1606 36.2138 12.8795 30.6742 13.7505 25.3572L10.7899 24.8723ZM20.3402 9.37814C15.2245 13.0092 11.7846 18.8002 10.7899 24.8723L13.7505 25.3572C14.6226 20.0332 17.6494 14.9669 22.0766 11.8245L20.3402 9.37814ZM23.0058 10.5422L22.4316 9.73312L19.9852 11.4695L20.5594 12.2786L23.0058 10.5422ZM19.9852 11.4695L20.5594 12.2786L23.0058 10.5422L22.4316 9.73312L19.9852 11.4695ZM15.7241 25.6805C16.5046 20.9163 19.197 16.3867 23.0865 13.5615L21.3234 11.1343C16.7627 14.4471 13.6653 19.6912 12.7636 25.1956L15.7241 25.6805ZM19.7132 38.938C16.1012 35.3261 14.9399 30.4682 15.7241 25.6805L12.7636 25.1956C11.8493 30.7768 13.19 36.6575 17.5918 41.0593L19.7132 38.938ZM33.3448 43.4414C28.3236 43.816 23.2732 42.4981 19.7132 38.938L17.5918 41.0593C21.9267 45.3942 27.9252 46.854 33.568 46.4331L33.3448 43.4414ZM45.3274 38.5186C42.8159 41.077 38.3047 43.0713 33.3448 43.4414L33.568 46.4331C39.0857 46.0214 44.3398 43.8071 47.4683 40.6202L45.3274 38.5186ZM36.3077 39.5337C40.0279 40.5599 43.7105 40.9196 46.313 41.067L46.4827 38.0718C43.9781 37.93 40.5336 37.5873 37.1055 36.6417L36.3077 39.5337ZM25.5225 33.5052C28.4716 36.6966 32.5284 38.4913 36.3077 39.5337L37.1055 36.6417C33.5904 35.6722 30.1397 34.0814 27.7257 31.4692L25.5225 33.5052ZM20.7814 22.2709C21.2667 26.088 22.5107 30.2461 25.5225 33.5052L27.7257 31.4692C25.3049 28.8495 24.2021 25.3898 23.7574 21.8925L20.7814 22.2709ZM20.7084 12.2457C20.5305 14.8516 20.3052 18.5255 20.7814 22.2709L23.7575 21.8925C23.3221 18.4679 23.5235 15.0569 23.7015 12.4501L20.7084 12.2457Z" fill="#F8F9FA" mask="url(#path-1-outside-1_694_6690)"/>
</g>
<path d="M27.4315 31.8428C22.3927 26.3902 22.9263 17.5384 23.2865 12.2903C23.3407 11.5007 22.5055 10.993 21.8601 11.4511C12.7762 17.8989 9.47761 32.1994 18.0183 40.7401C26.4302 49.152 41.3807 46.484 47.3785 40.1022C47.9179 39.5282 47.4901 38.6575 46.7036 38.6151C41.6384 38.3419 32.4378 37.2603 27.4315 31.8428Z" fill="#FFE066" stroke="#212529" stroke-width="2" stroke-linecap="round" stroke-linejoin="round"/>
<g style="mix-blend-mode:soft-light" opacity="0.8">
<path d="M16.9654 21.4792C16.5296 21.4394 15.7919 22.6658 15.2455 24.5217C14.6867 26.4197 14.8607 27.742 15.3818 27.9259C16.0332 28.1559 16.8425 25.9509 16.9223 24.9733C17.2468 23.1187 17.5102 21.5289 16.9654 21.4792Z" fill="#F8F9FA"/>
</g>
<g style="mix-blend-mode:multiply" opacity="0.7">
<path fill-rule="evenodd" clip-rule="evenodd" d="M21.3245 12.0058C21.0129 17.3192 20.9954 25.0692 25.5691 30.0186C26.2926 30.8015 27.1037 31.4939 27.9773 32.1064C27.8796 32.0069 27.7834 31.906 27.6887 31.8035C22.6499 26.3508 23.1835 17.4991 23.5438 12.2509C23.598 11.4614 22.7628 10.9537 22.1174 11.4118C21.8479 11.603 21.5836 11.8011 21.3245 12.0058ZM45.335 38.4667C39.7226 44.2005 26.8389 46.8048 18.3213 40.7463C26.7415 49.1029 41.6488 46.4331 47.6357 40.0628C48.1752 39.4889 47.7474 38.6181 46.9609 38.5757C46.4571 38.5485 45.9124 38.5134 45.335 38.4667Z" fill="#DEE2E6"/>
</g>
<defs>
<filter id="filter0_d_694_6690" x="10.2726" y="8.7134" width="39.9932" height="40.2086" filterUnits="userSpaceOnUse" color-interpolation-filters="sRGB">
<feFlood flood-opacity="0" result="BackgroundImageFix"/>
<feColorMatrix in="SourceAlpha" type="matrix" values="0 0 0 0 0 0 0 0 0 0 0 0 0 0 0 0 0 0 127 0" result="hardAlpha"/>
<feOffset dy="0.2"/>
<feGaussianBlur stdDeviation="0.11"/>
<feComposite in2="hardAlpha" operator="out"/>
<feColorMatrix type="matrix" values="0 0 0 0 0 0 0 0 0 0 0 0 0 0 0 0 0 0 0.2 0"/>
<feBlend mode="normal" in2="BackgroundImageFix" result="effect1_dropShadow_694_6690"/>
<feBlend mode="normal" in="SourceGraphic" in2="effect1_dropShadow_694_6690" result="shape"/>
</filter>
</defs>
</svg>
