<svg width="60" height="60" viewBox="0 0 60 60" fill="none" xmlns="http://www.w3.org/2000/svg">
<mask id="path-1-outside-1_50_8894" maskUnits="userSpaceOnUse" x="7.88306" y="7.23242" width="44" height="47" fill="black">
<rect fill="white" x="7.88306" y="7.23242" width="44" height="47"/>
<path fill-rule="evenodd" clip-rule="evenodd" d="M22.9387 10.1471C22.5503 9.50668 21.8218 9.15424 21.0785 9.24714L16.7581 9.78719C16.3348 9.84011 15.9415 10.034 15.6418 10.3376L10.431 15.6152C10.0722 15.9786 9.8748 16.4712 9.88332 16.9818L10.2767 40.5551C10.29 41.354 10.8018 42.0592 11.5571 42.3197L12.8874 42.7783C12.8969 42.7816 12.9078 42.7867 12.9221 42.797C15.8518 44.9141 20.1554 46.29 24.894 46.8434C29.3893 47.3683 34.3533 47.1625 39.0537 46.0936C39.4153 47.073 40.0301 48.3738 41.1235 49.5643C42.5766 51.1466 44.8207 52.4753 48.2598 52.6834C49.3055 52.7467 50.1169 51.8947 50.1169 50.9121V23.4033C50.1169 22.4165 49.3098 21.5842 48.2853 21.6194C41.7913 21.8425 36.4661 24.2122 32.1777 29.965C30.9073 29.0679 29.1658 28.3898 26.843 28.3898C25.2032 28.3898 23.7951 28.7052 22.6432 29.2063C22.3444 27.8646 21.8068 25.5854 21.1808 23.5427C20.7079 21.9994 20.29 20.6114 19.9904 19.6092C19.8749 19.2228 19.777 18.8939 19.7002 18.6355C19.717 18.6309 19.7348 18.6307 19.7519 18.6352L20.9528 18.9472C21.7036 19.1423 22.4975 18.8614 22.9586 18.2377L24.8855 15.6308C25.3438 15.0107 25.382 14.1752 24.9822 13.516L22.9387 10.1471Z"/>
</mask>
<path fill-rule="evenodd" clip-rule="evenodd" d="M22.9387 10.1471C22.5503 9.50668 21.8218 9.15424 21.0785 9.24714L16.7581 9.78719C16.3348 9.84011 15.9415 10.034 15.6418 10.3376L10.431 15.6152C10.0722 15.9786 9.8748 16.4712 9.88332 16.9818L10.2767 40.5551C10.29 41.354 10.8018 42.0592 11.5571 42.3197L12.8874 42.7783C12.8969 42.7816 12.9078 42.7867 12.9221 42.797C15.8518 44.9141 20.1554 46.29 24.894 46.8434C29.3893 47.3683 34.3533 47.1625 39.0537 46.0936C39.4153 47.073 40.0301 48.3738 41.1235 49.5643C42.5766 51.1466 44.8207 52.4753 48.2598 52.6834C49.3055 52.7467 50.1169 51.8947 50.1169 50.9121V23.4033C50.1169 22.4165 49.3098 21.5842 48.2853 21.6194C41.7913 21.8425 36.4661 24.2122 32.1777 29.965C30.9073 29.0679 29.1658 28.3898 26.843 28.3898C25.2032 28.3898 23.7951 28.7052 22.6432 29.2063C22.3444 27.8646 21.8068 25.5854 21.1808 23.5427C20.7079 21.9994 20.29 20.6114 19.9904 19.6092C19.8749 19.2228 19.777 18.8939 19.7002 18.6355C19.717 18.6309 19.7348 18.6307 19.7519 18.6352L20.9528 18.9472C21.7036 19.1423 22.4975 18.8614 22.9586 18.2377L24.8855 15.6308C25.3438 15.0107 25.382 14.1752 24.9822 13.516L22.9387 10.1471Z" fill="#F8F9FA"/>
<path d="M21.0785 9.24714L21.2646 10.7356L21.0785 9.24714ZM22.9387 10.1471L24.2212 9.36919L24.2212 9.36918L22.9387 10.1471ZM16.7581 9.78719L16.9442 11.2756L16.7581 9.78719ZM15.6418 10.3376L16.7092 11.3915L16.7092 11.3915L15.6418 10.3376ZM10.431 15.6152L11.4984 16.6691L11.4984 16.6691L10.431 15.6152ZM9.88332 16.9818L11.3831 16.9568L11.3831 16.9568L9.88332 16.9818ZM10.2767 40.5551L11.7765 40.5301L11.7765 40.5301L10.2767 40.5551ZM11.5571 42.3197L12.046 40.9016L12.046 40.9016L11.5571 42.3197ZM12.8874 42.7783L12.3985 44.1964L12.3986 44.1964L12.8874 42.7783ZM12.9221 42.797L12.0434 44.0127L12.0435 44.0128L12.9221 42.797ZM24.894 46.8434L25.068 45.3535L25.068 45.3535L24.894 46.8434ZM39.0537 46.0936L40.4609 45.5741C40.2 44.8675 39.4556 44.4639 38.7211 44.6309L39.0537 46.0936ZM41.1235 49.5643L40.0187 50.5789L40.0187 50.579L41.1235 49.5643ZM48.2598 52.6834L48.1692 54.1807L48.1692 54.1807L48.2598 52.6834ZM48.2853 21.6194L48.2338 20.1203L48.2338 20.1203L48.2853 21.6194ZM32.1777 29.965L31.3125 31.1903C31.9769 31.6594 32.8942 31.5136 33.3803 30.8615L32.1777 29.965ZM22.6432 29.2063L21.1791 29.5325C21.2765 29.9695 21.564 30.3402 21.963 30.5432C22.3621 30.7463 22.831 30.7604 23.2416 30.5818L22.6432 29.2063ZM21.1808 23.5427L22.615 23.1032L22.615 23.1032L21.1808 23.5427ZM19.9904 19.6092L21.4275 19.1795L21.4275 19.1795L19.9904 19.6092ZM19.7002 18.6355L19.3026 17.1892C18.9139 17.2961 18.5846 17.5549 18.3889 17.9073C18.1932 18.2597 18.1476 18.676 18.2623 19.0625L19.7002 18.6355ZM19.7519 18.6352L19.3747 20.0869L19.3747 20.0869L19.7519 18.6352ZM20.9528 18.9472L20.5756 20.399L20.5756 20.399L20.9528 18.9472ZM22.9586 18.2377L21.7523 17.346L21.7523 17.346L22.9586 18.2377ZM24.8855 15.6308L26.0918 16.5224L26.0918 16.5224L24.8855 15.6308ZM24.9822 13.516L23.6996 14.2939L23.6996 14.2939L24.9822 13.516ZM21.2646 10.7356C21.4211 10.716 21.5744 10.7902 21.6562 10.925L24.2212 9.36918C23.5261 8.22315 22.2225 7.59247 20.8925 7.75872L21.2646 10.7356ZM16.9442 11.2756L21.2646 10.7356L20.8925 7.75872L16.5721 8.29877L16.9442 11.2756ZM16.7092 11.3915C16.7723 11.3276 16.8551 11.2867 16.9442 11.2756L16.5721 8.29877C15.8145 8.39347 15.1108 8.74042 14.5744 9.28373L16.7092 11.3915ZM11.4984 16.6691L16.7092 11.3915L14.5744 9.28373L9.36362 14.5613L11.4984 16.6691ZM11.3831 16.9568C11.3813 16.8493 11.4229 16.7456 11.4984 16.6691L9.36362 14.5613C8.72153 15.2116 8.36828 16.0931 8.38353 17.0068L11.3831 16.9568ZM11.7765 40.5301L11.3831 16.9568L8.38353 17.0068L8.77689 40.5802L11.7765 40.5301ZM12.046 40.9016C11.887 40.8468 11.7793 40.6983 11.7765 40.5301L8.77689 40.5802C8.80074 42.0098 9.71649 43.2717 11.0682 43.7378L12.046 40.9016ZM13.3763 41.3602L12.046 40.9016L11.0682 43.7378L12.3985 44.1964L13.3763 41.3602ZM13.8008 41.5813C13.6719 41.4882 13.5303 41.4133 13.3763 41.3602L12.3986 44.1964C12.3391 44.1759 12.2746 44.1492 12.208 44.1143C12.1432 44.0804 12.0883 44.0452 12.0434 44.0127L13.8008 41.5813ZM25.068 45.3535C20.4727 44.8169 16.4478 43.4941 13.8006 41.5812L12.0435 44.0128C15.2557 46.334 19.838 47.7631 24.72 48.3332L25.068 45.3535ZM38.7211 44.6309C34.1941 45.6604 29.4018 45.8596 25.068 45.3535L24.72 48.3332C29.3769 48.877 34.5125 48.6646 39.3863 47.5563L38.7211 44.6309ZM42.2283 48.5497C41.3118 47.5518 40.7824 46.445 40.4609 45.5741L37.6465 46.6131C38.0482 47.7011 38.7484 49.1957 40.0187 50.5789L42.2283 48.5497ZM48.3505 51.1862C45.296 51.0013 43.4165 49.8436 42.2283 48.5497L40.0187 50.579C41.7367 52.4496 44.3453 53.9492 48.1692 54.1807L48.3505 51.1862ZM48.6169 50.9121C48.6169 50.9892 48.5842 51.0659 48.5289 51.1203C48.4809 51.1674 48.4254 51.1907 48.3504 51.1862L48.1692 54.1807C50.1399 54.3 51.6169 52.6947 51.6169 50.9121H48.6169ZM48.6169 23.4033V50.9121H51.6169V23.4033H48.6169ZM48.3368 23.1185C48.4764 23.1137 48.6169 23.2278 48.6169 23.4033H51.6169C51.6169 21.6052 50.1433 20.0547 48.2338 20.1203L48.3368 23.1185ZM33.3803 30.8615C37.3722 25.5065 42.2559 23.3275 48.3368 23.1185L48.2338 20.1203C41.3267 20.3576 35.5601 22.9178 30.9751 29.0685L33.3803 30.8615ZM26.843 29.8898C28.8541 29.8898 30.2938 30.4709 31.3125 31.1903L33.0429 28.7396C31.5209 27.6649 29.4774 26.8898 26.843 26.8898V29.8898ZM23.2416 30.5818C24.1936 30.1677 25.3966 29.8898 26.843 29.8898V26.8898C25.0097 26.8898 23.3966 27.2428 22.0449 27.8308L23.2416 30.5818ZM19.7466 23.9822C20.3554 25.9686 20.883 28.2029 21.1791 29.5325L24.1074 28.8802C23.8058 27.5264 23.2582 25.2022 22.615 23.1032L19.7466 23.9822ZM18.5532 20.0388C18.8536 21.0434 19.2724 22.4349 19.7466 23.9822L22.615 23.1032C22.1433 21.564 21.7264 20.1794 21.4275 19.1795L18.5532 20.0388ZM18.2623 19.0625C18.3392 19.3216 18.4374 19.6515 18.5532 20.0388L21.4275 19.1795C21.3123 18.7941 21.2147 18.4661 21.1382 18.2086L18.2623 19.0625ZM20.1291 17.1834C19.8549 17.1121 19.5699 17.1157 19.3026 17.1892L20.0979 20.0818C19.8641 20.1461 19.6146 20.1493 19.3747 20.0869L20.1291 17.1834ZM21.3301 17.4954L20.1291 17.1834L19.3747 20.0869L20.5756 20.399L21.3301 17.4954ZM21.7523 17.346C21.6553 17.4773 21.4881 17.5365 21.3301 17.4954L20.5756 20.399C21.919 20.748 23.3397 20.2455 24.1648 19.1293L21.7523 17.346ZM23.6793 14.7391L21.7523 17.346L24.1648 19.1293L26.0918 16.5224L23.6793 14.7391ZM23.6996 14.2939C23.7838 14.4327 23.7758 14.6086 23.6793 14.7391L26.0918 16.5224C26.9119 15.4129 26.9802 13.9178 26.2647 12.7381L23.6996 14.2939ZM21.6562 10.925L23.6996 14.2939L26.2647 12.7381L24.2212 9.36919L21.6562 10.925Z" fill="#F8F9FA" mask="url(#path-1-outside-1_50_8894)"/>
<path d="M19.1803 17.9336L18.6499 18.2829C18.6499 18.2829 19.3764 20.7519 20.3238 23.8433C21.2619 26.9045 22.0021 30.5204 22.0164 30.5907C23.1698 29.8595 24.7907 29.3267 26.8465 29.3267C29.4537 29.3267 31.2123 30.2508 32.3584 31.2971C36.5685 25.2241 41.8039 22.7796 48.3196 22.5557C48.8163 22.5387 49.2204 22.9433 49.2204 23.4402V50.9489C49.2204 51.4458 48.8137 51.852 48.3177 51.8219C41.901 51.4335 40.2165 46.9176 39.6485 45.064C29.9982 47.4804 18.9731 46.0936 13.4527 42.1044C13.37 42.0446 13.2807 41.9976 13.1843 41.9643L11.854 41.5057C11.4564 41.3686 11.187 40.9975 11.18 40.577L10.7867 17.0037C10.7822 16.7349 10.8861 16.4757 11.0749 16.2844L16.2857 11.0068C16.4435 10.847 16.6504 10.745 16.8732 10.7171L21.1937 10.1771C21.5848 10.1282 21.9683 10.3136 22.1727 10.6507L24.2161 14.0196C24.4266 14.3666 24.4065 14.8063 24.1653 15.1326L22.2383 17.7395C21.9956 18.0678 21.5778 18.2156 21.1827 18.113L19.9817 17.8009C19.7078 17.7298 19.4166 17.778 19.1803 17.9336Z" fill="#FFD8A8"/>
<path d="M16.5293 19.6794L19.1803 17.9336C19.4166 17.778 19.7078 17.7298 19.9817 17.8009L21.1827 18.113C21.5778 18.2156 21.9956 18.0678 22.2383 17.7395L24.1653 15.1326C24.4065 14.8063 24.4266 14.3666 24.2161 14.0196L22.1727 10.6507C21.9683 10.3136 21.5848 10.1282 21.1937 10.1771L16.8732 10.7171C16.6504 10.745 16.4435 10.847 16.2857 11.0068L11.0749 16.2844C10.8861 16.4757 10.7822 16.7349 10.7867 17.0037L11.18 40.577C11.187 40.9975 11.4564 41.3686 11.854 41.5057L13.1843 41.9643C13.2807 41.9976 13.37 42.0446 13.4527 42.1044C19.2628 46.3028 31.1702 47.6188 41.1551 44.6521C41.73 44.4812 42.3268 44.8375 42.5599 45.3902C42.897 46.1892 43.458 46.9513 44.3704 47.4835M33.9244 33.3559C33.2182 31.9434 31.2337 29.3267 26.8465 29.3267C22.4594 29.3267 20.0528 31.7533 19.9442 33.3559M22.0167 30.5918C22.0167 30.5918 21.2712 26.9346 20.3238 23.8433C19.3764 20.7519 18.6499 18.2829 18.6499 18.2829M39.6485 45.064C40.2165 46.9176 41.901 51.4335 48.3177 51.8219C48.8137 51.852 49.2204 51.4458 49.2204 50.9489V23.4402C49.2204 22.9433 48.8163 22.5387 48.3196 22.5557C41.8039 22.7796 36.5685 25.2241 32.3584 31.2971" stroke="#212529" stroke-width="1.8" stroke-linecap="round" stroke-linejoin="round"/>
<g style="mix-blend-mode:multiply">
<path d="M42.2359 44.8916L40.3285 45.5519C40.573 46.4934 41.4656 48.7139 43.0796 50.0638C44.6936 51.4137 47.7138 51.8 49.0221 51.8245V49.0733C44.6789 48.6038 42.6883 46.0899 42.2359 44.8916Z" fill="#E9ECEF"/>
</g>
<g style="mix-blend-mode:multiply">
<path d="M41.1124 24.793C37.795 27.0278 35.4525 31.2823 34.6959 33.1301L33.2118 31.2095C33.3573 30.8167 34.1284 29.6032 36.049 27.8922C37.9696 26.1811 40.2248 25.1131 41.1124 24.793Z" fill="#E9ECEF"/>
</g>
<g style="mix-blend-mode:multiply">
<path d="M19.1839 33.1302L17.2676 19.8865L18.5026 18.7793L21.6964 30.1067L19.1839 33.1302Z" fill="#E9ECEF"/>
</g>
<g style="mix-blend-mode:soft-light">
<path d="M25.385 31.2876C26.3567 31.2952 26.1631 30.2995 25.5221 30.2409C23.9308 30.0954 22.2919 30.947 21.4166 31.7464C20.5413 32.5457 21.4346 32.9875 21.9558 32.4857C22.8444 31.6303 24.0212 31.2769 25.385 31.2876Z" fill="#F8F9FA"/>
</g>
</svg>
