<svg width="60" height="61" viewBox="0 0 60 61" fill="none" xmlns="http://www.w3.org/2000/svg">
<mask id="path-1-outside-1_50_3594" maskUnits="userSpaceOnUse" x="7.94019" y="9.42725" width="44" height="42" fill="black">
<rect fill="white" x="7.94019" y="9.42725" width="44" height="42"/>
<path fill-rule="evenodd" clip-rule="evenodd" d="M43.8572 11.4272C42.9361 11.4272 42.0231 11.5509 41.1495 11.9232C40.2609 12.302 39.5252 12.8903 38.8937 13.6584C37.7052 15.104 36.8046 17.3047 35.8228 20.2426C34.7974 23.3109 34.3832 26.0872 34.9261 28.2846C35.2077 29.4244 35.759 30.4513 36.6482 31.2319C37.5356 32.0109 38.6353 32.4357 39.8318 32.5836C42.0913 32.8629 44.4367 32.339 46.3252 30.5211C48.161 28.7541 49.3465 25.9731 49.8272 22.1728C50.2876 18.5327 50.0936 15.8184 48.9834 13.9768C47.7337 11.9037 45.6722 11.4272 43.8572 11.4272ZM39.3162 21.4101C40.3125 18.429 41.0373 16.8509 41.7389 15.9976C42.0524 15.6162 42.3279 15.4249 42.5939 15.3116C42.8749 15.1917 43.2598 15.1106 43.8572 15.1106C45.0791 15.1106 45.5407 15.4002 45.8289 15.8784C46.2567 16.588 46.6157 18.2102 46.173 21.7105C45.7505 25.0507 44.7753 26.9006 43.7708 27.8674C42.8192 28.7835 41.645 29.0964 40.2836 28.9281C39.6697 28.8522 39.3059 28.6638 39.0782 28.4639C38.8523 28.2656 38.637 27.9479 38.5019 27.4012C38.2114 26.2254 38.3635 24.2608 39.3162 21.4101ZM46.245 40.1224C38.9097 39.1582 31.101 39.3435 16.4413 45.165C15.496 45.5404 14.4253 45.0784 14.05 44.1331C13.6746 43.1878 14.1366 42.1172 15.0819 41.7418C30.2552 35.7163 38.6964 35.4152 46.725 36.4705C47.7334 36.603 48.4435 37.528 48.3109 38.5364C48.1784 39.5449 47.2534 40.2549 46.245 40.1224ZM42.8495 46.2435C37.4642 45.9919 31.5196 47.0305 26.4009 49.2074C25.465 49.6055 24.3835 49.1694 23.9854 48.2334C23.5873 47.2975 24.0234 46.216 24.9594 45.8179C30.5912 43.4227 37.0877 42.287 43.0213 42.5642C44.0374 42.6116 44.8225 43.4737 44.7751 44.4897C44.7276 45.5057 43.8655 46.2909 42.8495 46.2435ZM23.094 15.8637C24.4965 14.3795 26.2078 13.4402 28.0682 13.4402C28.8569 13.4402 29.7384 13.5642 30.5773 13.9896C31.4448 14.4295 32.1478 15.1319 32.6398 16.0863C33.5648 17.8809 33.7166 20.5097 33.2195 24.1018C32.7104 27.7812 31.6686 30.5936 30.0201 32.4421C28.2832 34.3899 26.027 35.0928 23.6407 34.7902C22.312 34.6216 21.1847 34.045 20.3346 33.1244C19.5072 32.2284 19.0272 31.101 18.7845 29.9336C18.3054 27.6293 18.676 24.8381 19.5887 22.1477C20.4971 19.4698 21.6914 17.3479 23.094 15.8637ZM25.7711 18.3935C24.8358 19.3833 23.8708 20.9901 23.0767 23.331C22.2869 25.6594 22.092 27.7472 22.3907 29.1838C22.5369 29.8868 22.7817 30.3452 23.0406 30.6256C23.2769 30.8814 23.5975 31.0719 24.1041 31.1361C25.3885 31.299 26.4074 30.9592 27.2711 29.9907C28.2233 28.9229 29.1076 26.9457 29.571 23.5969C30.0464 20.1609 29.7432 18.506 29.3658 17.7739C29.2065 17.4649 29.0465 17.3432 28.9116 17.2748C28.7482 17.1919 28.4879 17.1235 28.0682 17.1235C27.5116 17.1235 26.7065 17.4036 25.7711 18.3935ZM10.0002 34.449L14.3049 17.9424L13.7938 18.1572C12.856 18.5512 11.7765 18.1104 11.3825 17.1726C10.9885 16.2349 11.4293 15.1554 12.367 14.7614L14.7035 13.7798C16.0807 13.2011 17.6663 13.8485 18.245 15.2258C18.475 15.7734 18.5185 16.3814 18.3686 16.9561L13.5644 35.3785C13.3077 36.3627 12.3018 36.9525 11.3176 36.6958C10.3334 36.4392 9.74357 35.4332 10.0002 34.449Z"/>
</mask>
<path fill-rule="evenodd" clip-rule="evenodd" d="M43.8572 11.4272C42.9361 11.4272 42.0231 11.5509 41.1495 11.9232C40.2609 12.302 39.5252 12.8903 38.8937 13.6584C37.7052 15.104 36.8046 17.3047 35.8228 20.2426C34.7974 23.3109 34.3832 26.0872 34.9261 28.2846C35.2077 29.4244 35.759 30.4513 36.6482 31.2319C37.5356 32.0109 38.6353 32.4357 39.8318 32.5836C42.0913 32.8629 44.4367 32.339 46.3252 30.5211C48.161 28.7541 49.3465 25.9731 49.8272 22.1728C50.2876 18.5327 50.0936 15.8184 48.9834 13.9768C47.7337 11.9037 45.6722 11.4272 43.8572 11.4272ZM39.3162 21.4101C40.3125 18.429 41.0373 16.8509 41.7389 15.9976C42.0524 15.6162 42.3279 15.4249 42.5939 15.3116C42.8749 15.1917 43.2598 15.1106 43.8572 15.1106C45.0791 15.1106 45.5407 15.4002 45.8289 15.8784C46.2567 16.588 46.6157 18.2102 46.173 21.7105C45.7505 25.0507 44.7753 26.9006 43.7708 27.8674C42.8192 28.7835 41.645 29.0964 40.2836 28.9281C39.6697 28.8522 39.3059 28.6638 39.0782 28.4639C38.8523 28.2656 38.637 27.9479 38.5019 27.4012C38.2114 26.2254 38.3635 24.2608 39.3162 21.4101ZM46.245 40.1224C38.9097 39.1582 31.101 39.3435 16.4413 45.165C15.496 45.5404 14.4253 45.0784 14.05 44.1331C13.6746 43.1878 14.1366 42.1172 15.0819 41.7418C30.2552 35.7163 38.6964 35.4152 46.725 36.4705C47.7334 36.603 48.4435 37.528 48.3109 38.5364C48.1784 39.5449 47.2534 40.2549 46.245 40.1224ZM42.8495 46.2435C37.4642 45.9919 31.5196 47.0305 26.4009 49.2074C25.465 49.6055 24.3835 49.1694 23.9854 48.2334C23.5873 47.2975 24.0234 46.216 24.9594 45.8179C30.5912 43.4227 37.0877 42.287 43.0213 42.5642C44.0374 42.6116 44.8225 43.4737 44.7751 44.4897C44.7276 45.5057 43.8655 46.2909 42.8495 46.2435ZM23.094 15.8637C24.4965 14.3795 26.2078 13.4402 28.0682 13.4402C28.8569 13.4402 29.7384 13.5642 30.5773 13.9896C31.4448 14.4295 32.1478 15.1319 32.6398 16.0863C33.5648 17.8809 33.7166 20.5097 33.2195 24.1018C32.7104 27.7812 31.6686 30.5936 30.0201 32.4421C28.2832 34.3899 26.027 35.0928 23.6407 34.7902C22.312 34.6216 21.1847 34.045 20.3346 33.1244C19.5072 32.2284 19.0272 31.101 18.7845 29.9336C18.3054 27.6293 18.676 24.8381 19.5887 22.1477C20.4971 19.4698 21.6914 17.3479 23.094 15.8637ZM25.7711 18.3935C24.8358 19.3833 23.8708 20.9901 23.0767 23.331C22.2869 25.6594 22.092 27.7472 22.3907 29.1838C22.5369 29.8868 22.7817 30.3452 23.0406 30.6256C23.2769 30.8814 23.5975 31.0719 24.1041 31.1361C25.3885 31.299 26.4074 30.9592 27.2711 29.9907C28.2233 28.9229 29.1076 26.9457 29.571 23.5969C30.0464 20.1609 29.7432 18.506 29.3658 17.7739C29.2065 17.4649 29.0465 17.3432 28.9116 17.2748C28.7482 17.1919 28.4879 17.1235 28.0682 17.1235C27.5116 17.1235 26.7065 17.4036 25.7711 18.3935ZM10.0002 34.449L14.3049 17.9424L13.7938 18.1572C12.856 18.5512 11.7765 18.1104 11.3825 17.1726C10.9885 16.2349 11.4293 15.1554 12.367 14.7614L14.7035 13.7798C16.0807 13.2011 17.6663 13.8485 18.245 15.2258C18.475 15.7734 18.5185 16.3814 18.3686 16.9561L13.5644 35.3785C13.3077 36.3627 12.3018 36.9525 11.3176 36.6958C10.3334 36.4392 9.74357 35.4332 10.0002 34.449Z" fill="#F8F9FA"/>
<path d="M41.1495 11.9232L41.7377 13.3031L41.7377 13.3031L41.1495 11.9232ZM38.8937 13.6584L40.0524 14.611L40.0524 14.611L38.8937 13.6584ZM35.8228 20.2426L34.4001 19.7672L34.4001 19.7672L35.8228 20.2426ZM34.9261 28.2846L33.4699 28.6444L33.4699 28.6444L34.9261 28.2846ZM36.6482 31.2319L37.6378 30.1047L37.6378 30.1047L36.6482 31.2319ZM39.8318 32.5836L40.0158 31.0949L40.0158 31.0949L39.8318 32.5836ZM46.3252 30.5211L47.3655 31.6018L47.3655 31.6018L46.3252 30.5211ZM49.8272 22.1728L51.3153 22.361L51.3153 22.361L49.8272 22.1728ZM48.9834 13.9768L50.268 13.2024L50.268 13.2023L48.9834 13.9768ZM41.7389 15.9976L40.5802 15.045L40.5802 15.045L41.7389 15.9976ZM39.3162 21.4101L40.7389 21.8855L40.7389 21.8855L39.3162 21.4101ZM42.5939 15.3116L43.1821 16.6914L43.1821 16.6914L42.5939 15.3116ZM45.8289 15.8784L44.5443 16.6528L44.5443 16.6528L45.8289 15.8784ZM46.173 21.7105L44.6848 21.5223L44.6848 21.5223L46.173 21.7105ZM43.7708 27.8674L44.8111 28.9481L44.8111 28.9481L43.7708 27.8674ZM40.2836 28.9281L40.0996 30.4168L40.0996 30.4168L40.2836 28.9281ZM39.0782 28.4639L40.0678 27.3367L40.0678 27.3367L39.0782 28.4639ZM38.5019 27.4012L39.9581 27.0414L39.9581 27.0414L38.5019 27.4012ZM16.4413 45.165L16.9949 46.5591L16.9949 46.5591L16.4413 45.165ZM46.245 40.1224L46.0495 41.6096L46.0495 41.6096L46.245 40.1224ZM14.05 44.1331L15.4441 43.5795L15.4441 43.5795L14.05 44.1331ZM15.0819 41.7418L15.6355 43.1359L15.6355 43.1359L15.0819 41.7418ZM46.725 36.4705L46.9204 34.9832L46.9204 34.9832L46.725 36.4705ZM48.3109 38.5364L49.7981 38.7319L49.7981 38.7319L48.3109 38.5364ZM26.4009 49.2074L25.8139 47.8271L25.8139 47.8271L26.4009 49.2074ZM42.8495 46.2435L42.9195 44.7451L42.9195 44.7451L42.8495 46.2435ZM23.9854 48.2334L25.3658 47.6464L25.3658 47.6464L23.9854 48.2334ZM24.9594 45.8179L25.5464 47.1983L25.5465 47.1983L24.9594 45.8179ZM43.0213 42.5642L43.0913 41.0658L43.0913 41.0658L43.0213 42.5642ZM44.7751 44.4897L43.2767 44.4197L43.2767 44.4197L44.7751 44.4897ZM23.094 15.8637L24.1842 16.8939L24.1842 16.8939L23.094 15.8637ZM30.5773 13.9896L29.899 15.3275L29.899 15.3275L30.5773 13.9896ZM32.6398 16.0863L31.3065 16.7735L31.3065 16.7735L32.6398 16.0863ZM33.2195 24.1018L34.7054 24.3074L34.7054 24.3074L33.2195 24.1018ZM30.0201 32.4421L28.9006 31.4438L28.9006 31.4438L30.0201 32.4421ZM23.6407 34.7902L23.8294 33.3021L23.8294 33.3021L23.6407 34.7902ZM20.3346 33.1244L21.4366 32.1068L21.4366 32.1068L20.3346 33.1244ZM18.7845 29.9336L17.3159 30.2389L17.3159 30.2389L18.7845 29.9336ZM19.5887 22.1477L21.0092 22.6296L21.0092 22.6296L19.5887 22.1477ZM23.0767 23.331L24.4972 23.8129L24.4972 23.8129L23.0767 23.331ZM25.7711 18.3935L26.8613 19.4237L26.8613 19.4237L25.7711 18.3935ZM22.3907 29.1838L20.9221 29.4891L20.9221 29.4891L22.3907 29.1838ZM23.0406 30.6256L21.9386 31.6432L21.9386 31.6432L23.0406 30.6256ZM24.1041 31.1361L23.9154 32.6242L23.9154 32.6242L24.1041 31.1361ZM27.2711 29.9907L28.3906 30.989L28.3906 30.989L27.2711 29.9907ZM29.571 23.5969L31.0568 23.8025L31.0568 23.8025L29.571 23.5969ZM29.3658 17.7739L28.0325 18.4611L28.0325 18.4611L29.3658 17.7739ZM28.9116 17.2748L29.59 15.9369L29.5899 15.9369L28.9116 17.2748ZM14.3049 17.9424L15.7563 18.321C15.9003 17.7687 15.7185 17.1826 15.2873 16.8089C14.856 16.4351 14.25 16.3385 13.7239 16.5595L14.3049 17.9424ZM10.0002 34.449L11.4517 34.8275L11.4517 34.8275L10.0002 34.449ZM13.7938 18.1572L13.2127 16.7743L13.2127 16.7743L13.7938 18.1572ZM11.3825 17.1726L12.7654 16.5916L12.7654 16.5916L11.3825 17.1726ZM12.367 14.7614L11.786 13.3785L11.786 13.3785L12.367 14.7614ZM14.7035 13.7798L14.1224 12.3969L14.1224 12.3969L14.7035 13.7798ZM18.245 15.2258L19.6279 14.6448L19.6279 14.6448L18.245 15.2258ZM18.3686 16.9561L16.9171 16.5776L16.9171 16.5776L18.3686 16.9561ZM13.5644 35.3785L12.1129 35L12.1129 35L13.5644 35.3785ZM11.3176 36.6958L10.939 38.1473L10.939 38.1473L11.3176 36.6958ZM41.7377 13.3031C42.3699 13.0336 43.0679 12.9272 43.8572 12.9272V9.92725C42.8044 9.92725 41.6762 10.0681 40.5613 10.5434L41.7377 13.3031ZM40.0524 14.611C40.5545 14.0002 41.1029 13.5737 41.7377 13.3031L40.5613 10.5434C39.419 11.0303 38.4958 11.7804 37.735 12.7058L40.0524 14.611ZM37.2455 20.718C38.2325 17.7644 39.0617 15.816 40.0524 14.611L37.735 12.7058C36.3487 14.392 35.3767 16.8449 34.4001 19.7672L37.2455 20.718ZM36.3823 27.9248C35.9421 26.1433 36.2498 23.6974 37.2455 20.718L34.4001 19.7672C33.3451 22.9243 32.8242 26.0311 33.4699 28.6444L36.3823 27.9248ZM37.6378 30.1047C37.0191 29.5616 36.6044 28.8237 36.3823 27.9248L33.4699 28.6444C33.811 30.0251 34.4989 31.3411 35.6586 32.3592L37.6378 30.1047ZM40.0158 31.0949C39.0559 30.9763 38.2561 30.6475 37.6378 30.1047L35.6586 32.3592C36.815 33.3744 38.2147 33.8951 39.6478 34.0723L40.0158 31.0949ZM45.285 29.4404C43.779 30.8901 41.9111 31.3292 40.0158 31.0949L39.6478 34.0723C42.2715 34.3966 45.0945 33.7878 47.3655 31.6018L45.285 29.4404ZM48.339 21.9845C47.8819 25.598 46.7819 27.9995 45.285 29.4404L47.3655 31.6018C49.54 29.5086 50.811 26.3483 51.3153 22.361L48.339 21.9845ZM47.6988 14.7512C48.5313 16.1322 48.7921 18.4022 48.339 21.9845L51.3153 22.361C51.783 18.6631 51.656 15.5047 50.268 13.2024L47.6988 14.7512ZM43.8572 12.9272C45.4387 12.9272 46.8433 13.3322 47.6988 14.7512L50.268 13.2023C48.624 10.4752 45.9057 9.92725 43.8572 9.92725V12.9272ZM40.5802 15.045C39.6797 16.1403 38.8831 17.9735 37.8935 20.9346L40.7389 21.8855C41.7418 18.8845 42.3949 17.5616 42.8976 16.9502L40.5802 15.045ZM42.0057 13.9317C41.4866 14.153 41.0236 14.5056 40.5802 15.045L42.8976 16.9502C42.9956 16.831 43.0644 16.7697 43.1038 16.7391C43.1398 16.7112 43.163 16.6995 43.1821 16.6914L42.0057 13.9317ZM43.8572 13.6106C43.1279 13.6106 42.5279 13.7091 42.0057 13.9317L43.1821 16.6914C43.2219 16.6744 43.3917 16.6106 43.8572 16.6106V13.6106ZM47.1136 15.104C46.8346 14.6412 46.4241 14.2146 45.7911 13.9395C45.2179 13.6904 44.563 13.6106 43.8572 13.6106V16.6106C44.3733 16.6106 44.5602 16.6756 44.5953 16.6909C44.602 16.6938 44.5827 16.6856 44.5571 16.662C44.5336 16.6405 44.53 16.6291 44.5443 16.6528L47.1136 15.104ZM47.6611 21.8988C48.1109 18.3428 47.8196 16.2752 47.1136 15.104L44.5443 16.6528C44.6938 16.9008 45.1205 18.0775 44.6848 21.5223L47.6611 21.8988ZM44.8111 28.9481C46.1537 27.6558 47.2148 25.4271 47.6611 21.8988L44.6848 21.5223C44.2861 24.6742 43.3968 26.1454 42.7306 26.7868L44.8111 28.9481ZM40.0996 30.4168C41.8297 30.6306 43.4797 30.2297 44.8111 28.9481L42.7306 26.7868C42.1587 27.3373 41.4603 27.5621 40.4676 27.4394L40.0996 30.4168ZM38.0886 29.5912C38.5839 30.026 39.2468 30.3114 40.0996 30.4168L40.4676 27.4394C40.2745 27.4156 40.1647 27.3794 40.1121 27.3575C40.0629 27.337 40.0555 27.3259 40.0678 27.3367L38.0886 29.5912ZM37.0457 27.7609C37.2409 28.5509 37.5937 29.1567 38.0886 29.5912L40.0678 27.3367C40.0802 27.3475 40.0748 27.3476 40.0572 27.317C40.0377 27.2829 39.9974 27.2004 39.9581 27.0414L37.0457 27.7609ZM37.8935 20.9346C36.9114 23.8735 36.6523 26.1689 37.0457 27.7609L39.9581 27.0414C39.7705 26.2819 39.8156 24.6481 40.7389 21.8855L37.8935 20.9346ZM16.9949 46.5591C31.4455 40.8207 38.9966 40.6825 46.0495 41.6096L46.4404 38.6352C38.8229 37.6339 30.7566 37.8663 15.8877 43.7709L16.9949 46.5591ZM12.6559 44.6867C13.337 46.402 15.2797 47.2403 16.9949 46.5591L15.8877 43.7709C15.7123 43.8406 15.5137 43.7549 15.4441 43.5795L12.6559 44.6867ZM14.5283 40.3477C12.813 41.0288 11.9747 42.9715 12.6559 44.6867L15.4441 43.5795C15.3744 43.4041 15.4601 43.2055 15.6355 43.1359L14.5283 40.3477ZM46.9204 34.9832C38.6095 33.8909 29.9107 34.2391 14.5283 40.3477L15.6355 43.1359C30.5997 37.1934 38.7833 36.9395 46.5295 37.9577L46.9204 34.9832ZM49.7981 38.7319C50.0386 36.9021 48.7503 35.2238 46.9204 34.9832L46.5295 37.9577C46.7166 37.9823 46.8483 38.1538 46.8237 38.3409L49.7981 38.7319ZM46.0495 41.6096C47.8793 41.8501 49.5576 40.5617 49.7981 38.7319L46.8237 38.3409C46.7991 38.528 46.6275 38.6597 46.4404 38.6352L46.0495 41.6096ZM26.988 50.5878C31.8976 48.4997 37.6176 47.5007 42.7795 47.7418L42.9195 44.7451C37.3109 44.4831 31.1415 45.5613 25.8139 47.8271L26.988 50.5878ZM22.6051 48.8205C23.3274 50.5188 25.2897 51.3101 26.988 50.5878L25.8139 47.8271C25.6402 47.9009 25.4396 47.82 25.3658 47.6464L22.6051 48.8205ZM24.3723 44.4376C22.674 45.1599 21.8828 47.1222 22.6051 48.8205L25.3658 47.6464C25.2919 47.4727 25.3728 47.2721 25.5464 47.1983L24.3723 44.4376ZM43.0913 41.0658C36.9343 40.7782 30.2131 41.9535 24.3723 44.4376L25.5465 47.1983C30.9693 44.8919 37.241 43.7958 42.9514 44.0625L43.0913 41.0658ZM46.2734 44.5597C46.3596 42.7162 44.9349 41.1519 43.0913 41.0658L42.9514 44.0625C43.1399 44.0713 43.2855 44.2313 43.2767 44.4197L46.2734 44.5597ZM42.7795 47.7418C44.6231 47.8279 46.1873 46.4032 46.2734 44.5597L43.2767 44.4197C43.2679 44.6082 43.108 44.7539 42.9195 44.7451L42.7795 47.7418ZM28.0682 11.9402C25.6753 11.9402 23.595 13.1495 22.0037 14.8335L24.1842 16.8939C25.3979 15.6095 26.7404 14.9402 28.0682 14.9402V11.9402ZM31.2557 12.6518C30.1415 12.0868 29.007 11.9402 28.0682 11.9402V14.9402C28.7069 14.9402 29.3353 15.0417 29.899 15.3275L31.2557 12.6518ZM33.9731 15.399C33.3458 14.1821 32.4218 13.2431 31.2557 12.6518L29.899 15.3275C30.4679 15.6159 30.9499 16.0817 31.3065 16.7735L33.9731 15.399ZM34.7054 24.3074C35.2113 20.651 35.1209 17.6259 33.9731 15.399L31.3065 16.7735C32.0087 18.1358 32.2218 20.3685 31.7337 23.8962L34.7054 24.3074ZM31.1396 33.4405C33.0717 31.274 34.1776 28.1213 34.7054 24.3074L31.7337 23.8962C31.2432 27.441 30.2655 29.9133 28.9006 31.4438L31.1396 33.4405ZM23.4519 36.2782C26.286 36.6377 29.0464 35.7878 31.1396 33.4405L28.9006 31.4438C27.52 32.992 25.768 33.548 23.8294 33.3021L23.4519 36.2782ZM19.2325 34.142C20.3328 35.3336 21.7888 36.0673 23.4519 36.2782L23.8294 33.3021C22.8352 33.176 22.0365 32.7565 21.4366 32.1068L19.2325 34.142ZM17.3159 30.2389C17.5979 31.595 18.1734 32.9951 19.2325 34.142L21.4366 32.1068C20.8409 31.4617 20.4566 30.6069 20.2531 29.6282L17.3159 30.2389ZM18.1682 21.6659C17.2056 24.5034 16.7633 27.5812 17.3159 30.2389L20.2531 29.6282C19.8475 27.6774 20.1465 25.1727 21.0092 22.6296L18.1682 21.6659ZM22.0037 14.8335C20.4109 16.5191 19.1231 18.8507 18.1682 21.6659L21.0092 22.6296C21.871 20.0889 22.9719 18.1768 24.1842 16.8939L22.0037 14.8335ZM24.4972 23.8129C25.2447 21.6093 26.1162 20.2122 26.8613 19.4237L24.6809 17.3632C23.5553 18.5544 22.4969 20.3709 21.6563 22.8491L24.4972 23.8129ZM23.8593 28.8784C23.634 27.7951 23.7574 25.9937 24.4972 23.8129L21.6563 22.8491C20.8163 25.3251 20.55 27.6993 20.9221 29.4891L23.8593 28.8784ZM24.1426 29.608C24.1147 29.5777 23.9659 29.3913 23.8593 28.8784L20.9221 29.4891C21.1078 30.3822 21.4487 31.1127 21.9386 31.6432L24.1426 29.608ZM24.2929 29.648C24.2384 29.6411 24.2024 29.6325 24.1807 29.6262C24.1596 29.62 24.1501 29.6153 24.1486 29.6145C24.1474 29.6139 24.1487 29.6145 24.1505 29.6159C24.152 29.617 24.1495 29.6154 24.1426 29.608L21.9386 31.6432C22.4243 32.1692 23.0731 32.5174 23.9154 32.6242L24.2929 29.648ZM26.1516 28.9923C25.8623 29.3167 25.5961 29.4845 25.3438 29.574C25.0866 29.6653 24.7547 29.7066 24.2929 29.648L23.9154 32.6242C24.7379 32.7285 25.5577 32.6814 26.347 32.4013C27.1412 32.1195 27.8163 31.6331 28.3906 30.989L26.1516 28.9923ZM28.0851 23.3913C27.6404 26.6053 26.8203 28.2425 26.1516 28.9923L28.3906 30.989C29.6263 29.6034 30.5748 27.2861 31.0568 23.8025L28.0851 23.3913ZM28.0325 18.4611C28.1866 18.76 28.552 20.0176 28.0851 23.3913L31.0568 23.8025C31.5409 20.3041 31.2998 18.252 30.6991 17.0866L28.0325 18.4611ZM28.2332 18.6126C28.2123 18.602 28.1826 18.5853 28.1494 18.5617C28.1161 18.5381 28.0871 18.5132 28.0633 18.4891C28.0152 18.4405 28.0101 18.4177 28.0325 18.4611L30.6991 17.0866C30.4037 16.5136 30.0221 16.156 29.59 15.9369L28.2332 18.6126ZM28.0682 18.6235C28.1983 18.6235 28.2683 18.6343 28.2932 18.6392C28.3171 18.644 28.2902 18.6415 28.2332 18.6126L29.5899 15.9369C29.1519 15.7148 28.6389 15.6235 28.0682 15.6235V18.6235ZM26.8613 19.4237C27.6034 18.6384 28.0391 18.6235 28.0682 18.6235V15.6235C26.9841 15.6235 25.8095 16.1688 24.6809 17.3632L26.8613 19.4237ZM12.8534 17.5639L8.54878 34.0705L11.4517 34.8275L15.7563 18.321L12.8534 17.5639ZM14.3748 19.5401L14.8859 19.3253L13.7239 16.5595L13.2127 16.7743L14.3748 19.5401ZM9.99961 17.7537C10.7145 19.4551 12.6733 20.2549 14.3748 19.5401L13.2127 16.7743C13.0388 16.8474 12.8385 16.7656 12.7654 16.5916L9.99961 17.7537ZM11.786 13.3785C10.0846 14.0934 9.28475 16.0522 9.99961 17.7537L12.7654 16.5916C12.6923 16.4177 12.7741 16.2174 12.9481 16.1443L11.786 13.3785ZM14.1224 12.3969L11.786 13.3785L12.9481 16.1443L15.2845 15.1627L14.1224 12.3969ZM19.6279 14.6448C18.7283 12.5038 16.2635 11.4973 14.1224 12.3969L15.2845 15.1627C15.898 14.9049 16.6043 15.1933 16.8621 15.8068L19.6279 14.6448ZM19.8201 17.3346C20.053 16.4412 19.9855 15.496 19.6279 14.6448L16.8621 15.8068C16.9646 16.0507 16.9839 16.3216 16.9171 16.5776L19.8201 17.3346ZM15.0158 35.757L19.8201 17.3346L16.9171 16.5776L12.1129 35L15.0158 35.757ZM10.939 38.1473C12.7249 38.613 14.5501 37.5428 15.0158 35.757L12.1129 35C12.0653 35.1826 11.8787 35.292 11.6961 35.2444L10.939 38.1473ZM8.54878 34.0705C8.08307 35.8563 9.15323 37.6816 10.939 38.1473L11.6961 35.2444C11.5135 35.1967 11.4041 35.0101 11.4517 34.8275L8.54878 34.0705Z" fill="#F8F9FA" mask="url(#path-1-outside-1_50_3594)"/>
<path d="M15.7155 43.3154C30.632 37.3919 38.7569 37.1487 46.4388 38.1584" stroke="#F03E3E" stroke-width="4" stroke-linecap="round"/>
<path d="M25.634 47.3748C31.0092 45.0888 37.2298 44.0016 42.8893 44.266" stroke="#F03E3E" stroke-width="4" stroke-linecap="round"/>
<path fill-rule="evenodd" clip-rule="evenodd" d="M43.8111 13.1309C40.7741 13.1309 39.5014 14.7693 37.5234 20.6883C35.5453 26.6073 36.3907 30.1703 40.0116 30.6178C43.6325 31.0654 47.0507 28.9441 47.9539 21.8036C48.8571 14.6631 46.848 13.1309 43.8111 13.1309Z" stroke="#F03E3E" stroke-width="4"/>
<path fill-rule="evenodd" clip-rule="evenodd" d="M28.0221 15.144C25.6051 15.144 22.9891 17.5828 21.2866 22.6015C19.5841 27.6203 20.1556 32.3597 23.8263 32.8253C27.4969 33.2909 30.3766 30.7397 31.3491 23.7115C32.3216 16.6834 30.439 15.144 28.0221 15.144Z" stroke="#F03E3E" stroke-width="4"/>
<path d="M13.0343 16.3212L15.3707 15.3396C15.8103 15.1549 16.3163 15.3615 16.501 15.8011C16.5744 15.9758 16.5883 16.1699 16.5405 16.3533L11.7362 34.7757" stroke="#F03E3E" stroke-width="4" stroke-linecap="round"/>
</svg>
