<svg width="60" height="59" viewBox="0 0 60 59" fill="none" xmlns="http://www.w3.org/2000/svg">
<path d="M12.2869 32.2614C12.2869 27.1095 13.6962 22.6308 16.515 19.4622C19.3036 16.3275 23.657 14.2656 30 14.2656C36.3429 14.2656 40.6963 16.3275 43.4849 19.4622C46.3037 22.6308 47.7131 27.1095 47.7131 32.2614C47.7131 37.366 46.2028 41.3083 43.3906 43.9852C40.5672 46.6726 36.1895 48.315 30 48.315C23.8104 48.315 19.4327 46.6726 16.6094 43.9852C13.7972 41.3083 12.2869 37.366 12.2869 32.2614ZM30 10.7656C22.8475 10.7656 17.4692 13.1238 13.9 17.1359C10.3611 21.114 8.78687 26.5083 8.78687 32.2614C8.78687 38.0618 10.5205 43.0215 14.1963 46.5203C17.8609 50.0085 23.215 51.815 30 51.815C36.785 51.815 42.139 50.0085 45.8036 46.5203C49.4795 43.0215 51.2131 38.0618 51.2131 32.2614C51.2131 26.5083 49.6389 21.114 46.0999 17.1359C42.5307 13.1238 37.1525 10.7656 30 10.7656Z" fill="#F8F9FA" stroke="#F8F9FA" stroke-width="1.5" stroke-linecap="round" stroke-linejoin="round"/>
<path d="M49.4631 32.2614C49.4631 43.1668 42.9749 50.065 30 50.065C17.0251 50.065 10.5369 43.1668 10.5369 32.2614C10.5369 21.3561 16.5042 12.5156 30 12.5156C43.4957 12.5156 49.4631 21.3561 49.4631 32.2614Z" fill="#FFA94D" stroke="#212529" stroke-width="2" stroke-linejoin="round"/>
<g style="mix-blend-mode:multiply">
<path fill-rule="evenodd" clip-rule="evenodd" d="M28.2792 49.0685C40.4661 49.5962 46.9551 45.0326 48.4323 34.3872C48.9719 24.213 44.8544 15.1284 32.8496 13.4086C31.6065 13.2305 30.4143 13.1559 29.2743 13.1767C29.592 13.2065 29.9136 13.2423 30.2392 13.2843C42.854 14.9107 47.3558 23.9756 46.0285 34.2705C44.7011 44.5654 37.7968 50.2956 25.6688 48.7319C24.8677 48.6286 24.0968 48.5003 23.3558 48.3478C24.8462 48.7445 26.4867 48.9909 28.2792 49.0685Z" fill="#FAB005"/>
</g>
<g style="mix-blend-mode:soft-light" opacity="0.6">
<path fill-rule="evenodd" clip-rule="evenodd" d="M22.723 48.2856C16.2248 46.5513 12.5722 42.0414 11.5102 34.3878C10.9705 24.2136 15.0881 15.129 27.0929 13.4092C29.1831 13.1097 31.1296 13.1029 32.926 13.3502C20.0447 12.9072 13.9607 21.2605 13.4855 31.8605C13.1378 39.6179 16.2009 45.4543 22.723 48.2856Z" fill="#F8F9FA"/>
</g>
<g style="mix-blend-mode:multiply">
<ellipse cx="30" cy="17.9033" rx="3.81606" ry="1.331" fill="#FAB005"/>
</g>
<path d="M26.5425 19.2344C27.9002 19.5817 31.1841 20.068 33.4575 19.2344" stroke="#212529" stroke-width="2.4" stroke-linecap="round"/>
<circle cx="42.627" cy="28.7348" r="0.831456" fill="#212529"/>
<circle cx="43.4584" cy="34.3822" r="0.831456" fill="#212529"/>
<circle cx="39.0306" cy="32.7192" r="0.831456" fill="#212529"/>
<circle cx="40.6935" cy="39.1977" r="0.831456" fill="#212529"/>
<circle cx="35.7578" cy="42.4701" r="0.831456" fill="#212529"/>
<circle cx="35.7578" cy="37.5346" r="0.831456" fill="#212529"/>
</svg>
