<svg width="60" height="61" viewBox="0 0 60 61" fill="none" xmlns="http://www.w3.org/2000/svg">
<mask id="path-1-outside-1_50_3113" maskUnits="userSpaceOnUse" x="5.10376" y="9.86475" width="50" height="42" fill="black">
<rect fill="white" x="5.10376" y="9.86475" width="50" height="42"/>
<path fill-rule="evenodd" clip-rule="evenodd" d="M14.8138 12.8647H43.7223L45.0449 13.5493L43.7223 14.234H14.8138C14.4357 14.234 14.1292 13.9274 14.1292 13.5493C14.1292 13.1713 14.4357 12.8647 14.8138 12.8647ZM14.8138 11.8647H43.9657L46.3624 13.1053C46.7226 13.2918 46.7226 13.8069 46.3624 13.9934L43.9657 15.234H14.8138C13.8834 15.234 13.1292 14.4797 13.1292 13.5493C13.1292 12.619 13.8834 11.8647 14.8138 11.8647ZM7.24567 21.1799C7.24567 18.5842 9.34993 16.4799 11.9457 16.4799H48.4038C50.9995 16.4799 53.1038 18.5842 53.1038 21.1799V45.18C53.1038 47.7757 50.9995 49.88 48.4038 49.88H11.9457C9.34994 49.88 7.24567 47.7757 7.24567 45.18V21.1799ZM11.9457 17.88C10.1231 17.88 8.64568 19.3574 8.64568 21.1799V45.18C8.64568 47.0025 10.1231 48.4799 11.9457 48.4799H48.4038C50.2263 48.4799 51.7038 47.0025 51.7038 45.18V21.1799C51.7038 19.3574 50.2263 17.88 48.4038 17.88H11.9457Z"/>
</mask>
<path fill-rule="evenodd" clip-rule="evenodd" d="M14.8138 12.8647H43.7223L45.0449 13.5493L43.7223 14.234H14.8138C14.4357 14.234 14.1292 13.9274 14.1292 13.5493C14.1292 13.1713 14.4357 12.8647 14.8138 12.8647ZM14.8138 11.8647H43.9657L46.3624 13.1053C46.7226 13.2918 46.7226 13.8069 46.3624 13.9934L43.9657 15.234H14.8138C13.8834 15.234 13.1292 14.4797 13.1292 13.5493C13.1292 12.619 13.8834 11.8647 14.8138 11.8647ZM7.24567 21.1799C7.24567 18.5842 9.34993 16.4799 11.9457 16.4799H48.4038C50.9995 16.4799 53.1038 18.5842 53.1038 21.1799V45.18C53.1038 47.7757 50.9995 49.88 48.4038 49.88H11.9457C9.34994 49.88 7.24567 47.7757 7.24567 45.18V21.1799ZM11.9457 17.88C10.1231 17.88 8.64568 19.3574 8.64568 21.1799V45.18C8.64568 47.0025 10.1231 48.4799 11.9457 48.4799H48.4038C50.2263 48.4799 51.7038 47.0025 51.7038 45.18V21.1799C51.7038 19.3574 50.2263 17.88 48.4038 17.88H11.9457Z" fill="#F8F9FA"/>
<path d="M43.7223 12.8647V11.3647C43.9622 11.3647 44.1987 11.4223 44.4118 11.5326L43.7223 12.8647ZM45.0449 13.5493L45.7344 12.2172C46.2323 12.4749 46.5449 12.9887 46.5449 13.5493C46.5449 14.11 46.2323 14.6238 45.7344 14.8815L45.0449 13.5493ZM43.7223 14.234L44.4118 15.5661C44.1987 15.6764 43.9622 15.734 43.7223 15.734V14.234ZM43.9657 11.8647V10.3647C44.2057 10.3647 44.4422 10.4223 44.6553 10.5326L43.9657 11.8647ZM46.3624 13.1053L45.6729 14.4374L45.6729 14.4374L46.3624 13.1053ZM46.3624 13.9934L45.6729 12.6613L45.6729 12.6613L46.3624 13.9934ZM43.9657 15.234L44.6553 16.5661C44.4422 16.6764 44.2057 16.734 43.9657 16.734V15.234ZM43.7223 14.3647H14.8138V11.3647H43.7223V14.3647ZM44.3553 14.8815L43.0327 14.1969L44.4118 11.5326L45.7344 12.2172L44.3553 14.8815ZM43.0327 12.9018L44.3553 12.2172L45.7344 14.8815L44.4118 15.5661L43.0327 12.9018ZM14.8138 12.734H43.7223V15.734H14.8138V12.734ZM15.6292 13.5493C15.6292 13.099 15.2642 12.734 14.8138 12.734V15.734C13.6073 15.734 12.6292 14.7559 12.6292 13.5493H15.6292ZM14.8138 14.3647C15.2642 14.3647 15.6292 13.9997 15.6292 13.5493H12.6292C12.6292 12.3428 13.6073 11.3647 14.8138 11.3647V14.3647ZM43.9657 13.3647H14.8138V10.3647H43.9657V13.3647ZM45.6729 14.4374L43.2762 13.1969L44.6553 10.5326L47.052 11.7732L45.6729 14.4374ZM45.6729 12.6613C44.9525 13.0342 44.9525 14.0645 45.6729 14.4374L47.052 11.7732C48.4928 12.519 48.4928 14.5797 47.052 15.3255L45.6729 12.6613ZM43.2762 13.9018L45.6729 12.6613L47.052 15.3255L44.6553 16.5661L43.2762 13.9018ZM14.8138 13.734H43.9657V16.734H14.8138V13.734ZM14.6292 13.5493C14.6292 13.6513 14.7119 13.734 14.8138 13.734V16.734C13.055 16.734 11.6292 15.3082 11.6292 13.5493H14.6292ZM14.8138 13.3647C14.7119 13.3647 14.6292 13.4474 14.6292 13.5493H11.6292C11.6292 11.7905 13.055 10.3647 14.8138 10.3647V13.3647ZM11.9457 17.9799C10.1784 17.9799 8.74567 19.4126 8.74567 21.1799H5.74567C5.74567 17.7558 8.52151 14.9799 11.9457 14.9799V17.9799ZM48.4038 17.9799H11.9457V14.9799H48.4038V17.9799ZM51.6038 21.1799C51.6038 19.4126 50.1711 17.9799 48.4038 17.9799V14.9799C51.8279 14.9799 54.6038 17.7558 54.6038 21.1799H51.6038ZM51.6038 45.18V21.1799H54.6038V45.18H51.6038ZM48.4038 48.38C50.1711 48.38 51.6038 46.9473 51.6038 45.18H54.6038C54.6038 48.6041 51.8279 51.38 48.4038 51.38V48.38ZM11.9457 48.38H48.4038V51.38H11.9457V48.38ZM8.74567 45.18C8.74567 46.9473 10.1784 48.38 11.9457 48.38V51.38C8.52151 51.38 5.74567 48.6041 5.74567 45.18H8.74567ZM8.74567 21.1799V45.18H5.74567V21.1799H8.74567ZM7.14568 21.1799C7.14568 18.529 9.2947 16.38 11.9457 16.38V19.38C10.9516 19.38 10.1457 20.1858 10.1457 21.1799H7.14568ZM7.14568 45.18V21.1799H10.1457V45.18H7.14568ZM11.9457 49.9799C9.29471 49.9799 7.14568 47.8309 7.14568 45.18H10.1457C10.1457 46.1741 10.9516 46.9799 11.9457 46.9799V49.9799ZM48.4038 49.9799H11.9457V46.9799H48.4038V49.9799ZM53.2038 45.18C53.2038 47.8309 51.0547 49.9799 48.4038 49.9799V46.9799C49.3979 46.9799 50.2038 46.1741 50.2038 45.18H53.2038ZM53.2038 21.1799V45.18H50.2038V21.1799H53.2038ZM48.4038 16.38C51.0547 16.38 53.2038 18.529 53.2038 21.1799H50.2038C50.2038 20.1858 49.3979 19.38 48.4038 19.38V16.38ZM11.9457 16.38H48.4038V19.38H11.9457V16.38Z" fill="#F8F9FA" mask="url(#path-1-outside-1_50_3113)"/>
<rect width="32" height="44.4581" rx="4" transform="matrix(0 1 1 0 7.99988 17.2405)" fill="#E9ECEF" stroke="#212529" stroke-width="1.8" stroke-linejoin="round"/>
<path d="M34.0355 46.9333H26.5803" stroke="#212529" stroke-linecap="round" stroke-linejoin="round"/>
<g style="mix-blend-mode:multiply">
<rect x="18.4387" y="22.825" width="3.87096" height="3.87096" rx="1" fill="#E9ECEF"/>
<rect x="18.4387" y="28.9268" width="3.87096" height="3.87096" rx="1" fill="#E9ECEF"/>
<rect x="18.4387" y="35.0288" width="3.87096" height="3.87096" rx="1" fill="#E9ECEF"/>
<rect x="24.9855" y="28.9268" width="3.87096" height="3.87096" rx="1" fill="#E9ECEF"/>
<rect x="24.9855" y="22.825" width="3.87096" height="3.87096" rx="1" fill="#E9ECEF"/>
<rect x="31.5322" y="28.9268" width="3.87096" height="3.87096" rx="1" fill="#E9ECEF"/>
<rect x="24.9855" y="35.0288" width="3.87096" height="3.87096" rx="1" fill="#E9ECEF"/>
<rect x="38.079" y="28.9268" width="3.87096" height="3.87096" rx="1" fill="#E9ECEF"/>
<rect x="44.626" y="28.9268" width="3.87096" height="3.87096" rx="1" fill="#E9ECEF"/>
<rect x="31.5322" y="22.825" width="3.87096" height="3.87096" rx="1" fill="#E9ECEF"/>
<rect x="38.079" y="22.825" width="3.87096" height="3.87096" rx="1" fill="#E9ECEF"/>
<rect x="31.5322" y="35.0288" width="3.87096" height="3.87096" rx="1" fill="#E9ECEF"/>
<rect x="44.626" y="22.825" width="3.87096" height="3.87096" rx="1" fill="#E9ECEF"/>
</g>
<path d="M14.8681 12.4255H43.8983L46.1868 13.6101L43.8983 14.7947H14.8681C14.2138 14.7947 13.6835 14.2644 13.6835 13.6101C13.6835 12.9559 14.2138 12.4255 14.8681 12.4255Z" fill="#F1F3F5" stroke="#212529" stroke-linejoin="round"/>
</svg>
