<svg width="60" height="60" viewBox="0 0 60 60" fill="none" xmlns="http://www.w3.org/2000/svg">
<mask id="path-1-outside-1_50_6690" maskUnits="userSpaceOnUse" x="7.06042" y="7.22998" width="47" height="47" fill="black">
<rect fill="white" x="7.06042" y="7.22998" width="47" height="47"/>
<path fill-rule="evenodd" clip-rule="evenodd" d="M16.4378 27.6553C16.4378 18.2525 24.0603 10.63 33.4632 10.63C42.866 10.63 50.4885 18.2525 50.4885 27.6553C50.4885 37.0582 42.866 44.6807 33.4632 44.6807C24.0603 44.6807 16.4378 37.0582 16.4378 27.6553ZM33.4632 9.22998C23.2871 9.22998 15.0378 17.4793 15.0378 27.6553C15.0378 31.6625 16.317 35.3708 18.4892 38.3944L10.4663 45.1789C8.6719 46.6964 8.58196 49.4321 10.2728 51.0641C11.9411 52.6743 14.6286 52.5173 16.0981 50.7238L22.7279 42.632C25.7508 44.8026 29.4577 46.0807 33.4632 46.0807C43.6392 46.0807 51.8885 37.8314 51.8885 27.6553C51.8885 17.4793 43.6392 9.22998 33.4632 9.22998ZM11.3703 46.248L19.1262 39.6892L21.4364 41.9994L15.0151 49.8366C14.0641 50.9973 12.3248 51.0989 11.2451 50.0568C10.1508 49.0005 10.209 47.23 11.3703 46.248Z"/>
</mask>
<path fill-rule="evenodd" clip-rule="evenodd" d="M16.4378 27.6553C16.4378 18.2525 24.0603 10.63 33.4632 10.63C42.866 10.63 50.4885 18.2525 50.4885 27.6553C50.4885 37.0582 42.866 44.6807 33.4632 44.6807C24.0603 44.6807 16.4378 37.0582 16.4378 27.6553ZM33.4632 9.22998C23.2871 9.22998 15.0378 17.4793 15.0378 27.6553C15.0378 31.6625 16.317 35.3708 18.4892 38.3944L10.4663 45.1789C8.6719 46.6964 8.58196 49.4321 10.2728 51.0641C11.9411 52.6743 14.6286 52.5173 16.0981 50.7238L22.7279 42.632C25.7508 44.8026 29.4577 46.0807 33.4632 46.0807C43.6392 46.0807 51.8885 37.8314 51.8885 27.6553C51.8885 17.4793 43.6392 9.22998 33.4632 9.22998ZM11.3703 46.248L19.1262 39.6892L21.4364 41.9994L15.0151 49.8366C14.0641 50.9973 12.3248 51.0989 11.2451 50.0568C10.1508 49.0005 10.209 47.23 11.3703 46.248Z" fill="#F8F9FA"/>
<path d="M18.4892 38.3944L19.4578 39.5397C20.0553 39.0344 20.164 38.1547 19.7074 37.5192L18.4892 38.3944ZM10.4663 45.1789L11.4349 46.3243L11.4349 46.3243L10.4663 45.1789ZM10.2728 51.0641L11.3145 49.9848L11.3145 49.9848L10.2728 51.0641ZM16.0981 50.7238L17.2583 51.6745L17.2583 51.6745L16.0981 50.7238ZM22.7279 42.632L23.6028 41.4136C22.96 40.952 22.0692 41.0692 21.5676 41.6813L22.7279 42.632ZM19.1262 39.6892L20.1868 38.6285C19.6353 38.077 18.7532 38.0402 18.1576 38.5438L19.1262 39.6892ZM11.3703 46.248L10.4017 45.1026L10.4017 45.1026L11.3703 46.248ZM21.4364 41.9994L22.5966 42.95C23.0853 42.3536 23.0422 41.4839 22.497 40.9387L21.4364 41.9994ZM15.0151 49.8366L16.1754 50.7872L16.1754 50.7872L15.0151 49.8366ZM11.2451 50.0568L12.2868 48.9775L12.2868 48.9775L11.2451 50.0568ZM33.4632 9.12998C23.2319 9.12998 14.9378 17.4241 14.9378 27.6553H17.9378C17.9378 19.0809 24.8888 12.13 33.4632 12.13V9.12998ZM51.9885 27.6553C51.9885 17.4241 43.6945 9.12998 33.4632 9.12998V12.13C42.0376 12.13 48.9885 19.0809 48.9885 27.6553H51.9885ZM33.4632 46.1807C43.6945 46.1807 51.9885 37.8866 51.9885 27.6553H48.9885C48.9885 36.2298 42.0376 43.1807 33.4632 43.1807V46.1807ZM14.9378 27.6553C14.9378 37.8866 23.2319 46.1807 33.4632 46.1807V43.1807C24.8888 43.1807 17.9378 36.2298 17.9378 27.6553H14.9378ZM16.5378 27.6553C16.5378 18.3077 24.1156 10.73 33.4632 10.73V7.72998C22.4587 7.72998 13.5378 16.6509 13.5378 27.6553H16.5378ZM19.7074 37.5192C17.7123 34.7422 16.5378 31.3381 16.5378 27.6553H13.5378C13.5378 31.9868 14.9216 35.9995 17.271 39.2696L19.7074 37.5192ZM11.4349 46.3243L19.4578 39.5397L17.5207 37.249L9.49772 44.0336L11.4349 46.3243ZM11.3145 49.9848C10.2628 48.9697 10.3188 47.2681 11.4349 46.3243L9.49772 44.0336C7.02503 46.1246 6.90109 49.8944 9.23109 52.1434L11.3145 49.9848ZM14.9378 49.7732C14.0238 50.8887 12.3522 50.9863 11.3145 49.9848L9.23109 52.1434C11.53 54.3622 15.2334 54.1459 17.2583 51.6745L14.9378 49.7732ZM21.5676 41.6813L14.9378 49.7732L17.2583 51.6745L23.8882 43.5827L21.5676 41.6813ZM33.4632 44.5807C29.7819 44.5807 26.3792 43.4072 23.6028 41.4136L21.853 43.8504C25.1224 46.198 29.1335 47.5807 33.4632 47.5807V44.5807ZM50.3885 27.6553C50.3885 37.003 42.8108 44.5807 33.4632 44.5807V47.5807C44.4677 47.5807 53.3885 38.6598 53.3885 27.6553H50.3885ZM33.4632 10.73C42.8108 10.73 50.3885 18.3077 50.3885 27.6553H53.3885C53.3885 16.6509 44.4677 7.72998 33.4632 7.72998V10.73ZM18.1576 38.5438L10.4017 45.1026L12.3389 47.3933L20.0948 40.8346L18.1576 38.5438ZM22.497 40.9387L20.1868 38.6285L18.0655 40.7499L20.3757 43.06L22.497 40.9387ZM16.1754 50.7872L22.5966 42.95L20.2761 41.0487L13.8548 48.8859L16.1754 50.7872ZM10.2034 51.136C11.9137 52.7868 14.6689 52.6259 16.1754 50.7872L13.8548 48.8859C13.4593 49.3687 12.7359 49.4109 12.2868 48.9775L10.2034 51.136ZM10.4017 45.1026C8.56211 46.6582 8.4699 49.4629 10.2034 51.136L12.2868 48.9775C11.8316 48.5382 11.8559 47.8018 12.3389 47.3933L10.4017 45.1026Z" fill="#F8F9FA" mask="url(#path-1-outside-1_50_6690)"/>
<circle cx="33.4179" cy="27.6287" r="17.7254" fill="#ADB5BD" stroke="#212529" stroke-width="1.8" stroke-linejoin="round"/>
<g style="mix-blend-mode:multiply">
<path fill-rule="evenodd" clip-rule="evenodd" d="M31.5928 44.1154C41.3822 44.1154 49.3181 36.1795 49.3181 26.39C49.3181 21.794 47.5689 17.6065 44.6999 14.457C48.4235 17.7064 50.7763 22.4872 50.7763 27.8174C50.7763 37.6069 42.8404 45.5428 33.0509 45.5428C27.8575 45.5428 23.1858 43.3093 19.9438 39.7504C23.059 42.4688 27.1336 44.1154 31.5928 44.1154Z" fill="#DEE2E6"/>
</g>
<circle cx="33.4179" cy="27.6288" r="10.1732" fill="#E9ECEF" stroke="#212529" stroke-linejoin="round"/>
<g style="mix-blend-mode:multiply">
<path fill-rule="evenodd" clip-rule="evenodd" d="M28.6707 36.5808C26.02 34.7445 24.2839 31.6812 24.2839 28.2124C24.2839 22.5939 28.8386 18.0392 34.4571 18.0392C36.2079 18.0392 37.8555 18.4815 39.294 19.2604C37.6513 18.1224 35.6573 17.4556 33.5076 17.4556C27.8891 17.4556 23.3344 22.0103 23.3344 27.6288C23.3344 31.4965 25.4927 34.8601 28.6707 36.5808Z" fill="#DEE2E6"/>
</g>
<path d="M19.1205 38.7124L22.3343 41.9262L15.5113 50.2537C14.301 51.7308 12.0876 51.8601 10.7136 50.5339V50.5339C9.32104 49.1898 9.39511 46.9367 10.873 45.687L19.1205 38.7124Z" fill="#FF6B6B" stroke="#212529" stroke-width="1.4" stroke-linejoin="round"/>
<g style="mix-blend-mode:multiply">
<path fill-rule="evenodd" clip-rule="evenodd" d="M10.0322 50.2919C10.1564 50.4741 10.3012 50.6466 10.4666 50.8064C11.8406 52.1325 14.0541 52.0032 15.2643 50.5261L22.0873 42.1986L18.8736 38.9849L18.8443 39.0096L21.0698 41.2352L14.2468 49.5628C13.1962 50.8451 11.3894 51.1116 10.0322 50.2919Z" fill="#DEE2E6"/>
</g>
<path d="M16.8123 41.4199L19.9438 44.4767" stroke="#212529" stroke-linecap="round" stroke-linejoin="round"/>
<circle cx="13.1975" cy="47.8794" r="0.697715" fill="#212529"/>
</svg>
