<svg width="60" height="60" viewBox="0 0 60 60" fill="none" xmlns="http://www.w3.org/2000/svg">
<g filter="url(#filter0_d_694_3009)">
<mask id="path-1-outside-1_694_3009" maskUnits="userSpaceOnUse" x="9.6908" y="9.89844" width="41" height="41" fill="black">
<rect fill="white" x="9.6908" y="9.89844" width="41" height="41"/>
<path fill-rule="evenodd" clip-rule="evenodd" d="M11.6908 17.3391C11.6908 14.3343 14.1267 11.8984 17.1315 11.8984H42.8686C45.8734 11.8984 48.3092 14.3343 48.3092 17.3391V43.0762C48.3092 46.081 45.8734 48.5169 42.8686 48.5169H17.1315C14.1267 48.5169 11.6908 46.081 11.6908 43.0762V17.3391ZM17.1315 13.8984C15.2312 13.8984 13.6908 15.4389 13.6908 17.3391V43.0762C13.6908 44.9764 15.2312 46.5169 17.1315 46.5169H42.8686C44.7688 46.5169 46.3092 44.9764 46.3092 43.0762V17.3391C46.3092 15.4389 44.7688 13.8984 42.8686 13.8984H17.1315Z"/>
</mask>
<path fill-rule="evenodd" clip-rule="evenodd" d="M11.6908 17.3391C11.6908 14.3343 14.1267 11.8984 17.1315 11.8984H42.8686C45.8734 11.8984 48.3092 14.3343 48.3092 17.3391V43.0762C48.3092 46.081 45.8734 48.5169 42.8686 48.5169H17.1315C14.1267 48.5169 11.6908 46.081 11.6908 43.0762V17.3391ZM17.1315 13.8984C15.2312 13.8984 13.6908 15.4389 13.6908 17.3391V43.0762C13.6908 44.9764 15.2312 46.5169 17.1315 46.5169H42.8686C44.7688 46.5169 46.3092 44.9764 46.3092 43.0762V17.3391C46.3092 15.4389 44.7688 13.8984 42.8686 13.8984H17.1315Z" fill="#F8F9FA"/>
<path d="M17.1315 10.3984C13.2982 10.3984 10.1908 13.5059 10.1908 17.3391H13.1908C13.1908 15.1627 14.9551 13.3984 17.1315 13.3984V10.3984ZM42.8686 10.3984H17.1315V13.3984H42.8686V10.3984ZM49.8092 17.3391C49.8092 13.5059 46.7018 10.3984 42.8686 10.3984V13.3984C45.0449 13.3984 46.8092 15.1627 46.8092 17.3391H49.8092ZM49.8092 43.0762V17.3391H46.8092V43.0762H49.8092ZM42.8686 50.0169C46.7018 50.0169 49.8092 46.9094 49.8092 43.0762H46.8092C46.8092 45.2526 45.0449 47.0169 42.8686 47.0169V50.0169ZM17.1315 50.0169H42.8686V47.0169H17.1315V50.0169ZM10.1908 43.0762C10.1908 46.9094 13.2982 50.0169 17.1315 50.0169V47.0169C14.9551 47.0169 13.1908 45.2526 13.1908 43.0762H10.1908ZM10.1908 17.3391V43.0762H13.1908V17.3391H10.1908ZM15.1908 17.3391C15.1908 16.2673 16.0597 15.3984 17.1315 15.3984V12.3984C14.4028 12.3984 12.1908 14.6104 12.1908 17.3391H15.1908ZM15.1908 43.0762V17.3391H12.1908V43.0762H15.1908ZM17.1315 45.0169C16.0597 45.0169 15.1908 44.148 15.1908 43.0762H12.1908C12.1908 45.8049 14.4028 48.0169 17.1315 48.0169V45.0169ZM42.8686 45.0169H17.1315V48.0169H42.8686V45.0169ZM44.8092 43.0762C44.8092 44.148 43.9404 45.0169 42.8686 45.0169V48.0169C45.5972 48.0169 47.8092 45.8049 47.8092 43.0762H44.8092ZM44.8092 17.3391V43.0762H47.8092V17.3391H44.8092ZM42.8686 15.3984C43.9404 15.3984 44.8092 16.2673 44.8092 17.3391H47.8092C47.8092 14.6104 45.5972 12.3984 42.8686 12.3984V15.3984ZM17.1315 15.3984H42.8686V12.3984H17.1315V15.3984Z" fill="#F8F9FA" mask="url(#path-1-outside-1_694_3009)"/>
</g>
<rect x="12.6908" y="13.0977" width="34.6184" height="34.6184" rx="4.44065" fill="#FFE066" stroke="#212529" stroke-width="2" stroke-linejoin="round"/>
<path d="M25.6051 40.2124C25.055 40.2124 24.5979 40.0643 24.234 39.7681C23.8701 39.4634 23.6881 39.0571 23.6881 38.5493V23.4927C23.6881 22.9256 23.8785 22.4644 24.2594 22.1089C24.6487 21.7534 25.1481 21.5757 25.7574 21.5757H30.3658C31.7369 21.5757 32.9472 21.8254 33.9967 22.3247C35.0462 22.8241 35.8587 23.5308 36.4342 24.4448C37.0182 25.3504 37.3102 26.3999 37.3102 27.5933C37.3102 28.8459 37.0224 29.9461 36.4469 30.894C35.8714 31.842 35.0589 32.5783 34.0094 33.103C32.9599 33.6278 31.7496 33.8901 30.3785 33.8901H27.5221V38.5493C27.5221 39.0571 27.3401 39.4634 26.9762 39.7681C26.6123 40.0643 26.1552 40.2124 25.6051 40.2124ZM30.1881 30.4878C30.8313 30.4878 31.3942 30.3778 31.8766 30.1577C32.3675 29.9377 32.7441 29.6245 33.0065 29.2183C33.2773 28.812 33.4127 28.3423 33.4127 27.8091C33.4127 26.9289 33.1123 26.2391 32.5114 25.7397C31.9104 25.2319 31.1106 24.978 30.1119 24.978H27.5221V30.4878H30.1881Z" fill="#212529"/>
<g style="mix-blend-mode:multiply">
<path fill-rule="evenodd" clip-rule="evenodd" d="M14.0663 45.5199C14.8632 46.2797 15.9422 46.7462 17.1302 46.7462H41.9822C44.4347 46.7462 46.4228 44.7581 46.4228 42.3056V17.979C46.4228 16.6543 45.8427 15.465 44.9227 14.6514V42.5199C44.9227 44.1768 43.5795 45.5199 41.9227 45.5199H14.0663Z" fill="#FFE066"/>
</g>
<g style="mix-blend-mode:soft-light" opacity="0.6">
<path fill-rule="evenodd" clip-rule="evenodd" d="M45.7148 15.1435C44.916 14.3722 43.8287 13.8978 42.6307 13.8978L17.7787 13.8978C15.3262 13.8978 13.3381 15.8859 13.3381 18.3384L13.3381 43.1904C13.3381 44.5152 13.9182 45.7044 14.8382 46.5181L14.8382 18.1435C14.8382 16.4866 16.1814 15.1435 17.8382 15.1435L45.7148 15.1435Z" fill="#F8F9FA"/>
</g>
<defs>
<filter id="filter0_d_694_3009" x="9.9708" y="10.3784" width="40.0584" height="40.0587" filterUnits="userSpaceOnUse" color-interpolation-filters="sRGB">
<feFlood flood-opacity="0" result="BackgroundImageFix"/>
<feColorMatrix in="SourceAlpha" type="matrix" values="0 0 0 0 0 0 0 0 0 0 0 0 0 0 0 0 0 0 127 0" result="hardAlpha"/>
<feOffset dy="0.2"/>
<feGaussianBlur stdDeviation="0.11"/>
<feComposite in2="hardAlpha" operator="out"/>
<feColorMatrix type="matrix" values="0 0 0 0 0 0 0 0 0 0 0 0 0 0 0 0 0 0 0.2 0"/>
<feBlend mode="normal" in2="BackgroundImageFix" result="effect1_dropShadow_694_3009"/>
<feBlend mode="normal" in="SourceGraphic" in2="effect1_dropShadow_694_3009" result="shape"/>
</filter>
</defs>
</svg>
