<svg width="60" height="61" viewBox="0 0 60 61" fill="none" xmlns="http://www.w3.org/2000/svg">
<mask id="path-1-outside-1_50_4916" maskUnits="userSpaceOnUse" x="3.79944" y="11.2104" width="51" height="43" fill="black">
<rect fill="white" x="3.79944" y="11.2104" width="51" height="43"/>
<path fill-rule="evenodd" clip-rule="evenodd" d="M9.93537 13.2104C8.52981 13.2104 7.39038 14.3499 7.39038 15.7554V24.5983C7.39038 26.0039 8.52981 27.1433 9.93538 27.1433H13.4232L13.4232 47.0741H11.3297C10.2199 47.0741 9.32019 47.9738 9.32019 49.0836C9.32019 49.5466 9.47679 49.9731 9.73991 50.3129H6.59944C6.15761 50.3129 5.79944 50.671 5.79944 51.1129C5.79944 51.5547 6.15761 51.9129 6.59944 51.9129H51.823C52.2649 51.9129 52.623 51.5547 52.623 51.1129C52.623 50.671 52.2649 50.3129 51.823 50.3129H47.693C47.8271 50.0062 47.9016 49.6673 47.9016 49.3111V48.6028H48.7594C50.3058 48.6028 51.5594 47.3492 51.5594 45.8028V40.2227C51.5594 38.6763 50.3058 37.4227 48.7594 37.4227H48.0948C48.1191 37.181 48.1109 36.9311 48.066 36.6779L47.2407 32.0218C47.0121 30.7325 45.8915 29.793 44.5821 29.793H28.7451C27.4357 29.793 26.315 30.7325 26.0865 32.0218L25.2612 36.6779C25.2163 36.931 25.2081 37.181 25.2324 37.4227H24.5677C23.0213 37.4227 21.7677 38.6763 21.7677 40.2227V45.8028C21.7677 47.3492 23.0213 48.6028 24.5677 48.6028H25.8279V49.3111C25.8279 49.6673 25.9023 50.0062 26.0365 50.3129H18.663C18.9262 49.9731 19.0828 49.5466 19.0828 49.0836C19.0828 47.9738 18.1831 47.0741 17.0732 47.0741H15.2904L15.2904 27.1433H18.7782C20.1838 27.1433 21.3232 26.0039 21.3232 24.5983V15.7554C21.3232 14.3499 20.1838 13.2104 18.7782 13.2104H9.93537ZM27.2279 48.6028V49.3111C27.2279 49.7557 27.4912 50.1387 27.8703 50.3129H28.789C29.1681 50.1387 29.4314 49.7557 29.4314 49.3111V48.6028H27.2279ZM29.4314 47.0028H27.2279V46.2943C27.2279 45.6858 27.7212 45.1925 28.3296 45.1925C28.9381 45.1925 29.4314 45.6858 29.4314 46.2943V47.0028ZM30.8314 47.0028V46.2943C30.8314 44.9126 29.7113 43.7925 28.3296 43.7925C26.948 43.7925 25.8279 44.9126 25.8279 46.2943V47.0028H24.5677C23.905 47.0028 23.3677 46.4655 23.3677 45.8028V40.2227C23.3677 39.56 23.905 39.0227 24.5677 39.0227H25.9755C26.4628 39.5291 27.1483 39.8492 27.9197 39.8492H45.4074C46.1789 39.8492 46.8644 39.5291 47.3517 39.0227H48.7594C49.4222 39.0227 49.9594 39.56 49.9594 40.2227V45.8028C49.9594 46.4655 49.4222 47.0028 48.7594 47.0028H47.9016V46.2943C47.9016 44.9126 46.7815 43.7925 45.3998 43.7925C44.0181 43.7925 42.8981 44.9126 42.8981 46.2943V47.0028H30.8314ZM30.8314 48.6028V49.3111C30.8314 49.6673 30.7569 50.0062 30.6228 50.3129H43.1067C42.9725 50.0062 42.8981 49.6673 42.8981 49.3111V48.6028H30.8314ZM44.2981 48.6028V49.3111C44.2981 49.7557 44.5613 50.1387 44.9405 50.3129H45.8592C46.2383 50.1387 46.5016 49.7557 46.5016 49.3111V48.6028H44.2981ZM46.5016 47.0028V46.2943C46.5016 45.6858 46.0083 45.1925 45.3998 45.1925C44.7913 45.1925 44.2981 45.6858 44.2981 46.2943V47.0028H46.5016ZM46.679 37.4227H26.6482C26.6139 37.2635 26.6092 37.0944 26.6397 36.9223L27.465 32.2661C27.5751 31.6454 28.1146 31.193 28.7451 31.193H44.5821C45.2126 31.193 45.7521 31.6454 45.8622 32.2661L46.6875 36.9223C46.718 37.0944 46.7133 37.2635 46.679 37.4227ZM14.0016 48.2741C14.1111 48.3246 14.2311 48.3525 14.3568 48.3525C14.4825 48.3525 14.6025 48.3246 14.712 48.2741H17.0732C17.5203 48.2741 17.8828 48.6365 17.8828 49.0836C17.8828 49.5307 17.5203 49.8931 17.0732 49.8931H11.3297C10.8826 49.8931 10.5202 49.5307 10.5202 49.0836C10.5202 48.6365 10.8826 48.2741 11.3297 48.2741H14.0016ZM8.99038 15.7554C8.99038 15.2335 9.41347 14.8104 9.93537 14.8104H18.7782C19.3002 14.8104 19.7232 15.2335 19.7232 15.7554V24.5983C19.7232 25.1202 19.3002 25.5433 18.7782 25.5433H9.93538C9.41347 25.5433 8.99038 25.1202 8.99038 24.5983V15.7554Z"/>
</mask>
<path fill-rule="evenodd" clip-rule="evenodd" d="M9.93537 13.2104C8.52981 13.2104 7.39038 14.3499 7.39038 15.7554V24.5983C7.39038 26.0039 8.52981 27.1433 9.93538 27.1433H13.4232L13.4232 47.0741H11.3297C10.2199 47.0741 9.32019 47.9738 9.32019 49.0836C9.32019 49.5466 9.47679 49.9731 9.73991 50.3129H6.59944C6.15761 50.3129 5.79944 50.671 5.79944 51.1129C5.79944 51.5547 6.15761 51.9129 6.59944 51.9129H51.823C52.2649 51.9129 52.623 51.5547 52.623 51.1129C52.623 50.671 52.2649 50.3129 51.823 50.3129H47.693C47.8271 50.0062 47.9016 49.6673 47.9016 49.3111V48.6028H48.7594C50.3058 48.6028 51.5594 47.3492 51.5594 45.8028V40.2227C51.5594 38.6763 50.3058 37.4227 48.7594 37.4227H48.0948C48.1191 37.181 48.1109 36.9311 48.066 36.6779L47.2407 32.0218C47.0121 30.7325 45.8915 29.793 44.5821 29.793H28.7451C27.4357 29.793 26.315 30.7325 26.0865 32.0218L25.2612 36.6779C25.2163 36.931 25.2081 37.181 25.2324 37.4227H24.5677C23.0213 37.4227 21.7677 38.6763 21.7677 40.2227V45.8028C21.7677 47.3492 23.0213 48.6028 24.5677 48.6028H25.8279V49.3111C25.8279 49.6673 25.9023 50.0062 26.0365 50.3129H18.663C18.9262 49.9731 19.0828 49.5466 19.0828 49.0836C19.0828 47.9738 18.1831 47.0741 17.0732 47.0741H15.2904L15.2904 27.1433H18.7782C20.1838 27.1433 21.3232 26.0039 21.3232 24.5983V15.7554C21.3232 14.3499 20.1838 13.2104 18.7782 13.2104H9.93537ZM27.2279 48.6028V49.3111C27.2279 49.7557 27.4912 50.1387 27.8703 50.3129H28.789C29.1681 50.1387 29.4314 49.7557 29.4314 49.3111V48.6028H27.2279ZM29.4314 47.0028H27.2279V46.2943C27.2279 45.6858 27.7212 45.1925 28.3296 45.1925C28.9381 45.1925 29.4314 45.6858 29.4314 46.2943V47.0028ZM30.8314 47.0028V46.2943C30.8314 44.9126 29.7113 43.7925 28.3296 43.7925C26.948 43.7925 25.8279 44.9126 25.8279 46.2943V47.0028H24.5677C23.905 47.0028 23.3677 46.4655 23.3677 45.8028V40.2227C23.3677 39.56 23.905 39.0227 24.5677 39.0227H25.9755C26.4628 39.5291 27.1483 39.8492 27.9197 39.8492H45.4074C46.1789 39.8492 46.8644 39.5291 47.3517 39.0227H48.7594C49.4222 39.0227 49.9594 39.56 49.9594 40.2227V45.8028C49.9594 46.4655 49.4222 47.0028 48.7594 47.0028H47.9016V46.2943C47.9016 44.9126 46.7815 43.7925 45.3998 43.7925C44.0181 43.7925 42.8981 44.9126 42.8981 46.2943V47.0028H30.8314ZM30.8314 48.6028V49.3111C30.8314 49.6673 30.7569 50.0062 30.6228 50.3129H43.1067C42.9725 50.0062 42.8981 49.6673 42.8981 49.3111V48.6028H30.8314ZM44.2981 48.6028V49.3111C44.2981 49.7557 44.5613 50.1387 44.9405 50.3129H45.8592C46.2383 50.1387 46.5016 49.7557 46.5016 49.3111V48.6028H44.2981ZM46.5016 47.0028V46.2943C46.5016 45.6858 46.0083 45.1925 45.3998 45.1925C44.7913 45.1925 44.2981 45.6858 44.2981 46.2943V47.0028H46.5016ZM46.679 37.4227H26.6482C26.6139 37.2635 26.6092 37.0944 26.6397 36.9223L27.465 32.2661C27.5751 31.6454 28.1146 31.193 28.7451 31.193H44.5821C45.2126 31.193 45.7521 31.6454 45.8622 32.2661L46.6875 36.9223C46.718 37.0944 46.7133 37.2635 46.679 37.4227ZM14.0016 48.2741C14.1111 48.3246 14.2311 48.3525 14.3568 48.3525C14.4825 48.3525 14.6025 48.3246 14.712 48.2741H17.0732C17.5203 48.2741 17.8828 48.6365 17.8828 49.0836C17.8828 49.5307 17.5203 49.8931 17.0732 49.8931H11.3297C10.8826 49.8931 10.5202 49.5307 10.5202 49.0836C10.5202 48.6365 10.8826 48.2741 11.3297 48.2741H14.0016ZM8.99038 15.7554C8.99038 15.2335 9.41347 14.8104 9.93537 14.8104H18.7782C19.3002 14.8104 19.7232 15.2335 19.7232 15.7554V24.5983C19.7232 25.1202 19.3002 25.5433 18.7782 25.5433H9.93538C9.41347 25.5433 8.99038 25.1202 8.99038 24.5983V15.7554Z" fill="#F8F9FA"/>
<path d="M13.4232 27.1433L14.9232 27.1433C14.9232 26.3149 14.2516 25.6433 13.4232 25.6433V27.1433ZM13.4232 47.0741V48.5741C13.821 48.5741 14.2026 48.4161 14.4839 48.1348C14.7652 47.8535 14.9232 47.4719 14.9232 47.0741L13.4232 47.0741ZM9.73991 50.3129V51.8129C10.3122 51.8129 10.8347 51.4872 11.0867 50.9733C11.3387 50.4595 11.2763 49.847 10.9259 49.3945L9.73991 50.3129ZM47.693 50.3129L46.3187 49.7117C46.1158 50.1755 46.1605 50.7103 46.4376 51.1339C46.7147 51.5576 47.1868 51.8129 47.693 51.8129V50.3129ZM47.9016 48.6028V47.1028C47.0731 47.1028 46.4016 47.7744 46.4016 48.6028H47.9016ZM48.0948 37.4227L46.6023 37.2727C46.5599 37.6945 46.698 38.1146 46.9823 38.4289C47.2667 38.7433 47.6708 38.9227 48.0948 38.9227V37.4227ZM48.066 36.6779L49.543 36.4161L49.543 36.4161L48.066 36.6779ZM47.2407 32.0218L45.7637 32.2836L45.7637 32.2836L47.2407 32.0218ZM26.0865 32.0218L27.5635 32.2836L27.5635 32.2836L26.0865 32.0218ZM25.2612 36.6779L26.7382 36.9397L26.7382 36.9397L25.2612 36.6779ZM25.2324 37.4227V38.9227C25.6563 38.9227 26.0605 38.7433 26.3448 38.429C26.6292 38.1146 26.7673 37.6945 26.7249 37.2727L25.2324 37.4227ZM25.8279 48.6028H27.3279C27.3279 47.7744 26.6563 47.1028 25.8279 47.1028V48.6028ZM26.0365 50.3129V51.8129C26.5427 51.8129 27.0148 51.5576 27.2918 51.1339C27.5689 50.7103 27.6136 50.1755 27.4108 49.7117L26.0365 50.3129ZM18.663 50.3129L17.477 49.3945C17.1266 49.847 17.0643 50.4595 17.3163 50.9733C17.5683 51.4872 18.0907 51.8129 18.663 51.8129V50.3129ZM15.2904 47.0741L13.7904 47.0741C13.7904 47.9025 14.462 48.5741 15.2904 48.5741V47.0741ZM15.2904 27.1433V25.6433C14.8926 25.6433 14.511 25.8013 14.2297 26.0826C13.9484 26.364 13.7904 26.7455 13.7904 27.1433L15.2904 27.1433ZM27.2279 48.6028V47.1028C26.3995 47.1028 25.7279 47.7744 25.7279 48.6028H27.2279ZM27.8703 50.3129L27.2442 51.676C27.4406 51.7662 27.6542 51.8129 27.8703 51.8129V50.3129ZM28.789 50.3129V51.8129C29.0051 51.8129 29.2187 51.7662 29.4151 51.676L28.789 50.3129ZM29.4314 48.6028H30.9314C30.9314 47.7744 30.2598 47.1028 29.4314 47.1028V48.6028ZM27.2279 47.0028H25.7279C25.7279 47.8312 26.3995 48.5028 27.2279 48.5028V47.0028ZM29.4314 47.0028V48.5028C30.2598 48.5028 30.9314 47.8312 30.9314 47.0028H29.4314ZM30.8314 47.0028H29.3314C29.3314 47.8312 30.003 48.5028 30.8314 48.5028V47.0028ZM25.8279 47.0028V48.5028C26.6563 48.5028 27.3279 47.8312 27.3279 47.0028H25.8279ZM25.9755 39.0227L27.0563 37.9826C26.7735 37.6888 26.3833 37.5227 25.9755 37.5227V39.0227ZM47.3517 39.0227V37.5227C46.9439 37.5227 46.5537 37.6888 46.2709 37.9826L47.3517 39.0227ZM47.9016 47.0028H46.4016C46.4016 47.8312 47.0731 48.5028 47.9016 48.5028V47.0028ZM42.8981 47.0028V48.5028C43.7265 48.5028 44.3981 47.8312 44.3981 47.0028H42.8981ZM30.8314 48.6028V47.1028C30.003 47.1028 29.3314 47.7744 29.3314 48.6028H30.8314ZM30.6228 50.3129L29.2485 49.7117C29.0456 50.1755 29.0904 50.7103 29.3674 51.1339C29.6445 51.5576 30.1166 51.8129 30.6228 51.8129V50.3129ZM43.1067 50.3129V51.8129C43.6129 51.8129 44.0849 51.5576 44.362 51.1339C44.6391 50.7103 44.6838 50.1755 44.4809 49.7117L43.1067 50.3129ZM42.8981 48.6028H44.3981C44.3981 47.7744 43.7265 47.1028 42.8981 47.1028V48.6028ZM44.2981 48.6028V47.1028C43.4696 47.1028 42.7981 47.7744 42.7981 48.6028H44.2981ZM44.9405 50.3129L44.3144 51.676C44.5108 51.7662 44.7243 51.8129 44.9405 51.8129V50.3129ZM45.8592 50.3129V51.8129C46.0753 51.8129 46.2889 51.7662 46.4853 51.676L45.8592 50.3129ZM46.5016 48.6028H48.0016C48.0016 47.7744 47.33 47.1028 46.5016 47.1028V48.6028ZM46.5016 47.0028V48.5028C47.33 48.5028 48.0016 47.8312 48.0016 47.0028H46.5016ZM44.2981 47.0028H42.7981C42.7981 47.8312 43.4696 48.5028 44.2981 48.5028V47.0028ZM26.6482 37.4227L25.1817 37.7383C25.3305 38.4293 25.9414 38.9227 26.6482 38.9227V37.4227ZM46.679 37.4227V38.9227C47.3858 38.9227 47.9967 38.4293 48.1454 37.7383L46.679 37.4227ZM26.6397 36.9223L25.1627 36.6605L25.1627 36.6605L26.6397 36.9223ZM27.465 32.2661L28.942 32.5279L28.942 32.5279L27.465 32.2661ZM45.8622 32.2661L47.3391 32.0043L47.3391 32.0043L45.8622 32.2661ZM46.6875 36.9223L45.2105 37.1841L45.2105 37.1841L46.6875 36.9223ZM14.0016 48.2741L14.6304 46.9122C14.4333 46.8212 14.2188 46.7741 14.0016 46.7741V48.2741ZM14.712 48.2741V46.7741C14.4949 46.7741 14.2803 46.8212 14.0832 46.9122L14.712 48.2741ZM8.89038 15.7554C8.89038 15.1783 9.35824 14.7104 9.93537 14.7104V11.7104C7.70138 11.7104 5.89038 13.5215 5.89038 15.7554H8.89038ZM8.89038 24.5983V15.7554H5.89038V24.5983H8.89038ZM9.93538 25.6433C9.35824 25.6433 8.89038 25.1754 8.89038 24.5983H5.89038C5.89038 26.8323 7.70139 28.6433 9.93538 28.6433V25.6433ZM13.4232 25.6433H9.93538V28.6433H13.4232V25.6433ZM14.9232 47.0741L14.9232 27.1433L11.9232 27.1433L11.9232 47.0741L14.9232 47.0741ZM11.3297 48.5741H13.4232V45.5741H11.3297V48.5741ZM10.8202 49.0836C10.8202 48.8022 11.0483 48.5741 11.3297 48.5741V45.5741C9.39145 45.5741 7.82019 47.1454 7.82019 49.0836H10.8202ZM10.9259 49.3945C10.8591 49.3083 10.8202 49.2026 10.8202 49.0836H7.82019C7.82019 49.8906 8.09443 50.6379 8.55391 51.2312L10.9259 49.3945ZM6.59944 51.8129H9.73991V48.8129H6.59944V51.8129ZM7.29944 51.1129C7.29944 51.4995 6.98604 51.8129 6.59944 51.8129V48.8129C5.32918 48.8129 4.29944 49.8426 4.29944 51.1129H7.29944ZM6.59944 50.4129C6.98603 50.4129 7.29944 50.7263 7.29944 51.1129H4.29944C4.29944 52.3831 5.32919 53.4129 6.59944 53.4129V50.4129ZM51.823 50.4129H6.59944V53.4129H51.823V50.4129ZM51.123 51.1129C51.123 50.7263 51.4364 50.4129 51.823 50.4129V53.4129C53.0933 53.4129 54.123 52.3831 54.123 51.1129H51.123ZM51.823 51.8129C51.4364 51.8129 51.123 51.4995 51.123 51.1129H54.123C54.123 49.8426 53.0933 48.8129 51.823 48.8129V51.8129ZM47.693 51.8129H51.823V48.8129H47.693V51.8129ZM46.4016 49.3111C46.4016 49.4565 46.3715 49.591 46.3187 49.7117L49.0672 50.914C49.2828 50.4213 49.4016 49.8781 49.4016 49.3111H46.4016ZM46.4016 48.6028V49.3111H49.4016V48.6028H46.4016ZM48.7594 47.1028H47.9016V50.1028H48.7594V47.1028ZM50.0594 45.8028C50.0594 46.5208 49.4774 47.1028 48.7594 47.1028V50.1028C51.1342 50.1028 53.0594 48.1776 53.0594 45.8028H50.0594ZM50.0594 40.2227V45.8028H53.0594V40.2227H50.0594ZM48.7594 38.9227C49.4774 38.9227 50.0594 39.5048 50.0594 40.2227H53.0594C53.0594 37.8479 51.1342 35.9227 48.7594 35.9227V38.9227ZM48.0948 38.9227H48.7594V35.9227H48.0948V38.9227ZM49.5873 37.5728C49.6253 37.1946 49.6121 36.8061 49.543 36.4161L46.589 36.9397C46.6096 37.056 46.6129 37.1673 46.6023 37.2727L49.5873 37.5728ZM49.543 36.4161L48.7177 31.76L45.7637 32.2836L46.589 36.9397L49.543 36.4161ZM48.7177 31.76C48.3622 29.7544 46.6189 28.293 44.5821 28.293V31.293C45.1641 31.293 45.6621 31.7106 45.7637 32.2836L48.7177 31.76ZM44.5821 28.293H28.7451V31.293H44.5821V28.293ZM28.7451 28.293C26.7083 28.293 24.965 29.7544 24.6095 31.76L27.5635 32.2836C27.6651 31.7106 28.1631 31.293 28.7451 31.293V28.293ZM24.6095 31.76L23.7842 36.4161L26.7382 36.9397L27.5635 32.2836L24.6095 31.76ZM23.7842 36.4161C23.7151 36.8061 23.7019 37.1946 23.7399 37.5727L26.7249 37.2727C26.7143 37.1673 26.7175 37.056 26.7382 36.9397L23.7842 36.4161ZM24.5677 38.9227H25.2324V35.9227H24.5677V38.9227ZM23.2677 40.2227C23.2677 39.5048 23.8497 38.9227 24.5677 38.9227V35.9227C22.1929 35.9227 20.2677 37.8479 20.2677 40.2227H23.2677ZM23.2677 45.8028V40.2227H20.2677V45.8028H23.2677ZM24.5677 47.1028C23.8497 47.1028 23.2677 46.5208 23.2677 45.8028H20.2677C20.2677 48.1776 22.1929 50.1028 24.5677 50.1028V47.1028ZM25.8279 47.1028H24.5677V50.1028H25.8279V47.1028ZM27.3279 49.3111V48.6028H24.3279V49.3111H27.3279ZM27.4108 49.7117C27.3579 49.591 27.3279 49.4565 27.3279 49.3111H24.3279C24.3279 49.8781 24.4467 50.4213 24.6622 50.914L27.4108 49.7117ZM18.663 51.8129H26.0365V48.8129H18.663V51.8129ZM17.5828 49.0836C17.5828 49.2026 17.5438 49.3083 17.477 49.3945L19.849 51.2312C20.3085 50.6379 20.5828 49.8906 20.5828 49.0836H17.5828ZM17.0732 48.5741C17.3546 48.5741 17.5828 48.8022 17.5828 49.0836H20.5828C20.5828 47.1454 19.0115 45.5741 17.0732 45.5741V48.5741ZM15.2904 48.5741H17.0732V45.5741H15.2904V48.5741ZM13.7904 27.1433L13.7904 47.0741L16.7904 47.0741L16.7904 27.1433L13.7904 27.1433ZM18.7782 25.6433H15.2904V28.6433H18.7782V25.6433ZM19.8232 24.5983C19.8232 25.1754 19.3554 25.6433 18.7782 25.6433V28.6433C21.0122 28.6433 22.8232 26.8323 22.8232 24.5983H19.8232ZM19.8232 15.7554V24.5983H22.8232V15.7554H19.8232ZM18.7782 14.7104C19.3554 14.7104 19.8232 15.1783 19.8232 15.7554H22.8232C22.8232 13.5215 21.0122 11.7104 18.7782 11.7104V14.7104ZM9.93537 14.7104H18.7782V11.7104H9.93537V14.7104ZM25.7279 48.6028V49.3111H28.7279V48.6028H25.7279ZM25.7279 49.3111C25.7279 50.3632 26.3522 51.2663 27.2442 51.676L28.4964 48.9498C28.6301 49.0112 28.7279 49.1482 28.7279 49.3111H25.7279ZM27.8703 51.8129H28.789V48.8129H27.8703V51.8129ZM29.4151 51.676C30.307 51.2663 30.9314 50.3632 30.9314 49.3111H27.9314C27.9314 49.1482 28.0292 49.0112 28.1629 48.9498L29.4151 51.676ZM30.9314 49.3111V48.6028H27.9314V49.3111H30.9314ZM29.4314 47.1028H27.2279V50.1028H29.4314V47.1028ZM27.2279 48.5028H29.4314V45.5028H27.2279V48.5028ZM25.7279 46.2943V47.0028H28.7279V46.2943H25.7279ZM28.3296 43.6925C26.8927 43.6925 25.7279 44.8574 25.7279 46.2943H28.7279C28.7279 46.5142 28.5496 46.6925 28.3296 46.6925V43.6925ZM30.9314 46.2943C30.9314 44.8574 29.7665 43.6925 28.3296 43.6925V46.6925C28.1097 46.6925 27.9314 46.5142 27.9314 46.2943H30.9314ZM30.9314 47.0028V46.2943H27.9314V47.0028H30.9314ZM29.3314 46.2943V47.0028H32.3314V46.2943H29.3314ZM28.3296 45.2925C28.8829 45.2925 29.3314 45.741 29.3314 46.2943H32.3314C32.3314 44.0842 30.5397 42.2925 28.3296 42.2925V45.2925ZM27.3279 46.2943C27.3279 45.741 27.7764 45.2925 28.3296 45.2925V42.2925C26.1195 42.2925 24.3279 44.0842 24.3279 46.2943H27.3279ZM27.3279 47.0028V46.2943H24.3279V47.0028H27.3279ZM24.5677 48.5028H25.8279V45.5028H24.5677V48.5028ZM21.8677 45.8028C21.8677 47.294 23.0765 48.5028 24.5677 48.5028V45.5028C24.7334 45.5028 24.8677 45.6371 24.8677 45.8028H21.8677ZM21.8677 40.2227V45.8028H24.8677V40.2227H21.8677ZM24.5677 37.5227C23.0765 37.5227 21.8677 38.7316 21.8677 40.2227H24.8677C24.8677 40.3884 24.7334 40.5227 24.5677 40.5227V37.5227ZM25.9755 37.5227H24.5677V40.5227H25.9755V37.5227ZM24.8947 40.0629C25.6513 40.8491 26.7214 41.3492 27.9197 41.3492V38.3492C27.5751 38.3492 27.2743 38.2092 27.0563 37.9826L24.8947 40.0629ZM27.9197 41.3492H45.4074V38.3492H27.9197V41.3492ZM45.4074 41.3492C46.6058 41.3492 47.6759 40.8491 48.4325 40.0629L46.2709 37.9826C46.0529 38.2092 45.7521 38.3492 45.4074 38.3492V41.3492ZM48.7594 37.5227H47.3517V40.5227H48.7594V37.5227ZM51.4594 40.2227C51.4594 38.7316 50.2506 37.5227 48.7594 37.5227V40.5227C48.5937 40.5227 48.4594 40.3884 48.4594 40.2227H51.4594ZM51.4594 45.8028V40.2227H48.4594V45.8028H51.4594ZM48.7594 48.5028C50.2506 48.5028 51.4594 47.2939 51.4594 45.8028H48.4594C48.4594 45.6371 48.5937 45.5028 48.7594 45.5028V48.5028ZM47.9016 48.5028H48.7594V45.5028H47.9016V48.5028ZM46.4016 46.2943V47.0028H49.4016V46.2943H46.4016ZM45.3998 45.2925C45.9531 45.2925 46.4016 45.741 46.4016 46.2943H49.4016C49.4016 44.0842 47.6099 42.2925 45.3998 42.2925V45.2925ZM44.3981 46.2943C44.3981 45.741 44.8466 45.2925 45.3998 45.2925V42.2925C43.1897 42.2925 41.3981 44.0842 41.3981 46.2943H44.3981ZM44.3981 47.0028V46.2943H41.3981V47.0028H44.3981ZM30.8314 48.5028H42.8981V45.5028H30.8314V48.5028ZM29.3314 48.6028V49.3111H32.3314V48.6028H29.3314ZM29.3314 49.3111C29.3314 49.4565 29.3013 49.591 29.2485 49.7117L31.997 50.914C32.2126 50.4213 32.3314 49.8781 32.3314 49.3111H29.3314ZM30.6228 51.8129H43.1067V48.8129H30.6228V51.8129ZM44.4809 49.7117C44.4281 49.591 44.3981 49.4565 44.3981 49.3111H41.3981C41.3981 49.8781 41.5169 50.4213 41.7324 50.914L44.4809 49.7117ZM44.3981 49.3111V48.6028H41.3981V49.3111H44.3981ZM42.8981 47.1028H30.8314V50.1028H42.8981V47.1028ZM42.7981 48.6028V49.3111H45.7981V48.6028H42.7981ZM42.7981 49.3111C42.7981 50.3632 43.4224 51.2663 44.3144 51.676L45.5666 48.9498C45.7002 49.0112 45.7981 49.1482 45.7981 49.3111H42.7981ZM44.9405 51.8129H45.8592V48.8129H44.9405V51.8129ZM46.4853 51.676C47.3772 51.2663 48.0016 50.3632 48.0016 49.3111H45.0016C45.0016 49.1482 45.0994 49.0112 45.2331 48.9498L46.4853 51.676ZM48.0016 49.3111V48.6028H45.0016V49.3111H48.0016ZM46.5016 47.1028H44.2981V50.1028H46.5016V47.1028ZM48.0016 47.0028V46.2943H45.0016V47.0028H48.0016ZM48.0016 46.2943C48.0016 44.8574 46.8367 43.6925 45.3998 43.6925V46.6925C45.1799 46.6925 45.0016 46.5142 45.0016 46.2943H48.0016ZM45.3998 43.6925C43.9629 43.6925 42.7981 44.8574 42.7981 46.2943H45.7981C45.7981 46.5142 45.6198 46.6925 45.3998 46.6925V43.6925ZM42.7981 46.2943V47.0028H45.7981V46.2943H42.7981ZM44.2981 48.5028H46.5016V45.5028H44.2981V48.5028ZM26.6482 38.9227H46.679V35.9227H26.6482V38.9227ZM28.1146 37.1071C28.1206 37.1351 28.1206 37.1621 28.1167 37.1841L25.1627 36.6605C25.0978 37.0267 25.1072 37.3919 25.1817 37.7383L28.1146 37.1071ZM28.1167 37.1841L28.942 32.5279L25.988 32.0043L25.1627 36.6605L28.1167 37.1841ZM28.942 32.5279C28.9251 32.6234 28.8421 32.693 28.7451 32.693V29.693C27.3872 29.693 26.225 30.6673 25.988 32.0043L28.942 32.5279ZM28.7451 32.693H44.5821V29.693H28.7451V32.693ZM44.5821 32.693C44.4851 32.693 44.4021 32.6234 44.3852 32.5279L47.3391 32.0043C47.1021 30.6673 45.94 29.693 44.5821 29.693V32.693ZM44.3852 32.5279L45.2105 37.1841L48.1645 36.6605L47.3391 32.0043L44.3852 32.5279ZM45.2105 37.1841C45.2066 37.1621 45.2066 37.1351 45.2126 37.1071L48.1454 37.7383C48.22 37.3919 48.2294 37.0267 48.1645 36.6605L45.2105 37.1841ZM14.3568 46.8525C14.456 46.8525 14.55 46.8751 14.6304 46.9122L13.3729 49.636C13.6723 49.7742 14.0061 49.8525 14.3568 49.8525V46.8525ZM14.0832 46.9122C14.1636 46.8751 14.2576 46.8525 14.3568 46.8525V49.8525C14.7075 49.8525 15.0413 49.7742 15.3407 49.636L14.0832 46.9122ZM17.0732 46.7741H14.712V49.7741H17.0732V46.7741ZM19.3828 49.0836C19.3828 47.8081 18.3487 46.7741 17.0732 46.7741V49.7741C16.6919 49.7741 16.3828 49.465 16.3828 49.0836H19.3828ZM17.0732 51.3931C18.3487 51.3931 19.3828 50.3591 19.3828 49.0836H16.3828C16.3828 48.7023 16.6919 48.3931 17.0732 48.3931V51.3931ZM11.3297 51.3931H17.0732V48.3931H11.3297V51.3931ZM9.02019 49.0836C9.02019 50.3591 10.0542 51.3931 11.3297 51.3931V48.3931C11.711 48.3931 12.0202 48.7023 12.0202 49.0836H9.02019ZM11.3297 46.7741C10.0542 46.7741 9.02019 47.8081 9.02019 49.0836H12.0202C12.0202 49.465 11.711 49.7741 11.3297 49.7741V46.7741ZM14.0016 46.7741H11.3297V49.7741H14.0016V46.7741ZM9.93537 13.3104C8.58504 13.3104 7.49038 14.4051 7.49038 15.7554H10.4904C10.4904 16.062 10.2419 16.3104 9.93537 16.3104V13.3104ZM18.7782 13.3104H9.93537V16.3104H18.7782V13.3104ZM21.2232 15.7554C21.2232 14.4051 20.1286 13.3104 18.7782 13.3104V16.3104C18.4717 16.3104 18.2232 16.062 18.2232 15.7554H21.2232ZM21.2232 24.5983V15.7554H18.2232V24.5983H21.2232ZM18.7782 27.0433C20.1286 27.0433 21.2232 25.9486 21.2232 24.5983H18.2232C18.2232 24.2918 18.4717 24.0433 18.7782 24.0433V27.0433ZM9.93538 27.0433H18.7782V24.0433H9.93538V27.0433ZM7.49038 24.5983C7.49038 25.9486 8.58504 27.0433 9.93538 27.0433V24.0433C10.2419 24.0433 10.4904 24.2918 10.4904 24.5983H7.49038ZM7.49038 15.7554V24.5983H10.4904V15.7554H7.49038Z" fill="#F8F9FA" mask="url(#path-1-outside-1_50_4916)"/>
<path d="M6.59949 51.126H51.8231" stroke="#212529" stroke-width="1.6" stroke-linecap="round" stroke-linejoin="round"/>
<rect x="8.19043" y="14.0239" width="12.3329" height="12.3329" rx="1.74499" fill="#748FFC" stroke="#212529" stroke-width="1.6" stroke-linejoin="round"/>
<path d="M12.8087 23.856C12.5971 23.856 12.4213 23.799 12.2814 23.6851C12.1414 23.5679 12.0714 23.4116 12.0714 23.2163V17.4253C12.0714 17.2072 12.1447 17.0298 12.2911 16.8931C12.4409 16.7563 12.6329 16.688 12.8673 16.688H14.6398C15.1671 16.688 15.6326 16.784 16.0363 16.9761C16.4399 17.1681 16.7524 17.4399 16.9738 17.7915C17.1984 18.1398 17.3107 18.5435 17.3107 19.0024C17.3107 19.4842 17.2 19.9074 16.9786 20.272C16.7573 20.6366 16.4448 20.9198 16.0411 21.1216C15.6375 21.3234 15.172 21.4243 14.6447 21.4243H13.546V23.2163C13.546 23.4116 13.476 23.5679 13.3361 23.6851C13.1961 23.799 13.0203 23.856 12.8087 23.856ZM14.5714 20.1157C14.8188 20.1157 15.0353 20.0734 15.2208 19.9888C15.4096 19.9041 15.5545 19.7837 15.6554 19.6274C15.7596 19.4712 15.8116 19.2905 15.8116 19.0854C15.8116 18.7469 15.6961 18.4816 15.465 18.2896C15.2338 18.0942 14.9262 17.9966 14.5421 17.9966H13.546V20.1157H14.5714Z" fill="#212529"/>
<path d="M14.3569 26.687L14.3569 47.319" stroke="#212529" stroke-width="1.8" stroke-linecap="round" stroke-linejoin="round"/>
<rect x="9.92029" y="47.6875" width="8.56257" height="2.81903" rx="1.40951" fill="#748FFC" stroke="#212529" stroke-width="1.2" stroke-linejoin="round"/>
<rect x="26.5281" y="44.5059" width="3.6035" height="6.62036" rx="1.80175" fill="#ADB5BD" stroke="#212529" stroke-width="1.4" stroke-linecap="round" stroke-linejoin="round"/>
<rect x="43.5983" y="44.5059" width="3.6035" height="6.62036" rx="1.80175" fill="#ADB5BD" stroke="#212529" stroke-width="1.4" stroke-linecap="round" stroke-linejoin="round"/>
<path d="M26.7759 32.1573C26.9452 31.2023 27.7753 30.5063 28.7452 30.5063H44.5822C45.5522 30.5063 46.3823 31.2023 46.5515 32.1573L47.3769 36.8134C47.594 38.0386 46.6518 39.1625 45.4076 39.1625H27.9199C26.6756 39.1625 25.7334 38.0386 25.9506 36.8134L26.7759 32.1573Z" fill="#BAC8FF" stroke="#212529" stroke-width="1.4" stroke-linejoin="round"/>
<g style="mix-blend-mode:multiply">
<path fill-rule="evenodd" clip-rule="evenodd" d="M43.9234 39.0473H45.7014C46.9456 39.0473 47.8879 37.9233 47.6707 36.6982L46.8454 32.042C46.6761 31.087 45.846 30.3911 44.8761 30.3911H43.098C44.0679 30.3911 44.898 31.087 45.0673 32.042L45.8927 36.6982C46.1098 37.9233 45.1676 39.0473 43.9234 39.0473Z" fill="#DEE2E6"/>
</g>
<rect x="22.5679" y="38.2358" width="28.1917" height="9.58005" rx="2" fill="#FFE066" stroke="#212529" stroke-width="1.6" stroke-linejoin="round"/>
<g style="mix-blend-mode:multiply">
<path fill-rule="evenodd" clip-rule="evenodd" d="M22.4431 46.3683C22.7954 46.9385 23.4262 47.3185 24.1458 47.3185H48.3375C49.4421 47.3185 50.3375 46.4231 50.3375 45.3185V39.7385C50.3375 38.9165 49.8417 38.2104 49.1328 37.9028C49.1568 37.9886 49.1696 38.0791 49.1696 38.1725V45.3683C49.1696 45.9205 48.7219 46.3683 48.1696 46.3683H22.4431Z" fill="#DEE2E6"/>
</g>
<path d="M35.0738 33.897L32.025 37.9085" stroke="#212529" stroke-linecap="round" stroke-linejoin="round"/>
<path d="M40.7286 33.897L37.6798 37.9085" stroke="#212529" stroke-linecap="round" stroke-linejoin="round"/>
<circle cx="28.0403" cy="43.0219" r="1.57654" fill="#F1F3F5" stroke="#212529" stroke-linejoin="round"/>
<circle cx="45.6252" cy="43.0219" r="1.57654" fill="#F1F3F5" stroke="#212529" stroke-linejoin="round"/>
<path d="M32.5768 42.9897H40.2985" stroke="#212529" stroke-width="1.8" stroke-linecap="round" stroke-linejoin="round"/>
</svg>
