<svg width="60" height="60" viewBox="0 0 60 60" fill="none" xmlns="http://www.w3.org/2000/svg">
<mask id="path-1-outside-1_50_9836" maskUnits="userSpaceOnUse" x="0.858558" y="-0.0373424" width="57.5909" height="59.7866" fill="black">
<rect fill="white" x="0.858558" y="-0.0373424" width="57.5909" height="59.7866"/>
<path fill-rule="evenodd" clip-rule="evenodd" d="M42.8176 9.41017C42.7524 9.39412 42.6856 9.38541 42.6184 9.38422C42.1232 9.3754 41.714 9.48514 41.3598 9.70117C41.0761 9.87417 40.8551 10.1053 40.7146 10.2523L40.6723 10.2964C40.5159 10.4582 40.4014 10.5664 40.2485 10.6576C40.1011 10.7455 39.8781 10.8399 39.5047 10.8937C37.517 11.1802 35.7519 11.6906 34.3842 13.1237C33.0365 14.5359 32.2031 16.7092 31.7043 20.0034C31.1749 23.4994 32.1747 25.9214 33.2809 27.6106C33.702 28.2537 34.1488 28.8032 34.4953 29.2293C34.5893 29.3449 34.6759 29.4514 34.7526 29.5483C34.9295 29.7715 35.041 29.9267 35.1067 30.0409C35.0825 30.0765 35.0487 30.1233 35.0021 30.1825C34.8457 30.3814 34.6187 30.6307 34.3204 30.9446C34.189 31.0828 34.0458 31.2315 33.8931 31.3898L33.893 31.3899C33.3717 31.9309 32.7415 32.5848 32.1077 33.3183C31.5322 33.9843 30.9356 34.7357 30.3861 35.5664C29.9753 35.0664 29.5482 34.63 29.1296 34.2383C28.7677 33.8996 28.4112 33.5935 28.0912 33.3186L27.9936 33.2347C27.6412 32.9318 27.346 32.6741 27.1011 32.4259C26.6073 31.9254 26.4532 31.5959 26.4532 31.2735C26.4533 30.7762 26.6007 30.2677 26.8806 29.6537C27.0671 29.2444 27.283 28.8459 27.5277 28.394C27.6685 28.1342 27.8188 27.8567 27.9786 27.5494C28.8266 25.9184 29.7069 23.8561 29.7069 20.8945C29.7069 17.973 28.8729 15.1148 27.0532 12.9711C25.2152 10.8057 22.4411 9.45338 18.7532 9.45336C18.6879 9.45336 18.6228 9.46046 18.5591 9.47453C18.0705 9.58241 17.694 9.78307 17.3954 10.0751C17.1551 10.3102 16.9911 10.5872 16.8866 10.7638L16.8866 10.7638L16.8551 10.8168C16.7389 11.0106 16.6509 11.1435 16.5195 11.2696C16.3919 11.3918 16.1889 11.5391 15.8239 11.6825C14.4138 12.2366 12.8296 13.1502 11.6966 14.8661C10.5608 16.5863 9.95422 18.9969 10.2744 22.3988C10.605 25.9112 11.9769 27.6774 13.2773 28.8918C13.5239 29.1221 13.7702 29.3347 13.9897 29.5242L13.9897 29.5242C14.0443 29.5713 14.0971 29.617 14.1479 29.6611C14.4134 29.8917 14.6257 30.0835 14.7979 30.271C15.1206 30.6223 15.253 30.902 15.253 31.2735C15.253 31.7421 15.0749 32.3312 14.7227 33.1311C14.5509 33.5212 14.3504 33.9348 14.1295 34.3884L14.1027 34.4435C13.8918 34.8768 13.665 35.3425 13.4427 35.832C12.5126 37.8801 11.6175 40.4324 11.9815 43.5438C12.2775 46.0733 13.2279 48.0657 14.9467 49.4505C16.6425 50.8168 18.9727 51.4991 21.8513 51.6619C24.8334 51.8306 27.7329 50.9324 29.8336 49.2411C30.1281 49.004 30.4071 48.7509 30.6683 48.4828C31.9151 49.6233 33.5926 50.4792 35.6444 51.113C38.4283 51.973 41.3881 51.7721 43.7791 50.6144C46.1765 49.4536 48.006 47.3216 48.4376 44.3812C49.4828 39.7657 48.5105 36.5332 47.2519 34.2984C46.6475 33.2252 45.9846 32.396 45.5027 31.7933L45.4633 31.7441C45.2306 31.4529 45.0663 31.2445 44.9562 31.0797C45.0328 31.0138 45.139 30.9318 45.2856 30.826C45.3732 30.7628 45.4724 30.6933 45.5806 30.6174C45.9813 30.3365 46.5068 29.9682 47.0353 29.5059C48.4299 28.286 49.9186 26.3658 50.4495 22.9932C50.9339 19.9167 50.8419 16.9654 49.6864 14.5379C48.5081 12.0624 46.2882 10.2647 42.8176 9.41017ZM31.7889 47.0664C32.7801 48.0087 34.2152 48.7876 36.1756 49.3932C38.5559 50.1285 41.0427 49.9395 42.9946 48.9944C44.9298 48.0573 46.3339 46.3867 46.661 44.0898C46.6645 44.0651 46.6691 44.0406 46.6746 44.0163C47.6247 39.8559 46.7456 37.0675 45.6835 35.1816C45.1514 34.2367 44.5652 33.5034 44.0811 32.8977L44.0572 32.8679C43.823 32.5748 43.5848 32.2766 43.4138 32.0098C43.2701 31.7856 43.0245 31.3688 43.0766 30.8831C43.1227 30.4521 43.359 30.1357 43.5555 29.9294C43.754 29.7209 44.0025 29.5322 44.2322 29.3664C44.3489 29.2823 44.468 29.1987 44.5897 29.1133L44.5899 29.1131L44.59 29.113C44.9828 28.8373 45.4022 28.5429 45.8502 28.151C46.9717 27.1701 48.2147 25.6144 48.6714 22.7133C49.1294 19.8046 48.9943 17.272 48.0611 15.3115C47.1619 13.4224 45.4626 11.9413 42.4974 11.1856C42.3739 11.1931 42.3241 11.2214 42.297 11.2379C42.224 11.2824 42.1626 11.3446 41.9664 11.5475C41.7904 11.7296 41.539 11.9838 41.1704 12.2036C40.7964 12.4266 40.3425 12.5916 39.7615 12.6753C37.8945 12.9444 36.6296 13.3781 35.6863 14.3665C34.723 15.3759 33.9643 17.1015 33.484 20.2729C33.0344 23.2425 33.8694 25.2236 34.7867 26.6244C35.1516 27.1817 35.5199 27.6351 35.8605 28.0544C35.9644 28.1823 36.0657 28.3071 36.1636 28.4307C36.36 28.6786 36.5635 28.9486 36.7082 29.2175C36.8471 29.4756 37.0081 29.869 36.9246 30.3212C36.8524 30.712 36.6019 31.0601 36.417 31.2952C36.2037 31.5665 35.9252 31.8689 35.6251 32.1847C35.48 32.3373 35.3274 32.4957 35.1684 32.6606C34.6512 33.1975 34.0681 33.8026 33.4697 34.4952C32.7686 35.3065 32.0762 36.2058 31.495 37.1849C32.1966 38.4373 32.7451 40.0036 32.954 42.0262C33.15 43.9235 32.6915 45.6342 31.7889 47.0664ZM30.4958 39.2901C30.8101 40.1156 31.0463 41.0763 31.1636 42.2111C31.2874 43.41 31.0777 44.5159 30.6057 45.495C30.0202 44.3402 29.8163 42.9239 30.0437 41.1612C30.127 40.5156 30.2835 39.8914 30.4958 39.2901ZM29.4103 37.251C28.8539 38.3717 28.4299 39.602 28.2585 40.9309C27.9477 43.34 28.3162 45.4158 29.4806 47.1212C29.2426 47.3752 28.9833 47.6148 28.7047 47.8391C26.9799 49.2278 24.5283 50.0104 21.9529 49.8648C19.274 49.7132 17.3665 49.0886 16.076 48.0489C14.8087 47.0278 14.0245 45.5153 13.7693 43.3346C13.4612 40.7014 14.2049 38.5069 15.0816 36.5763C15.2937 36.1093 15.511 35.663 15.7241 35.2253L15.7242 35.2251L15.748 35.1763C15.9664 34.7276 16.1821 34.2834 16.3701 33.8565C16.7374 33.0224 17.053 32.1409 17.053 31.2735C17.053 30.309 16.6393 29.6148 16.1235 29.0533C15.8765 28.7844 15.5964 28.5351 15.3283 28.3022C15.2697 28.2513 15.2116 28.201 15.1537 28.1511L15.1537 28.151C14.9369 27.9638 14.7242 27.7802 14.5059 27.5762C13.4682 26.6072 12.3488 25.2299 12.0665 22.2301C11.7738 19.1199 12.3462 17.149 13.1987 15.8579C14.054 14.5626 15.2676 13.8351 16.4822 13.3579C17.0377 13.1396 17.4478 12.8731 17.7652 12.5688C18.0787 12.2683 18.2674 11.9617 18.399 11.7423C18.5449 11.4988 18.5911 11.4234 18.654 11.3619C18.6796 11.3369 18.7281 11.2933 18.8624 11.2538C22.0152 11.2798 24.2335 12.4307 25.681 14.136C27.1635 15.8825 27.9069 18.2949 27.9069 20.8945C27.9069 23.4541 27.1604 25.221 26.3816 26.719C26.2555 26.9614 26.1215 27.2092 25.9872 27.4578L25.987 27.4581C25.7207 27.9507 25.4529 28.4461 25.2427 28.9071C24.9125 29.6315 24.6533 30.4104 24.6533 31.2735C24.6533 32.3114 25.2153 33.0774 25.8198 33.6901C26.1241 33.9985 26.4737 34.3018 26.82 34.5996L26.9163 34.6823C27.2395 34.96 27.5673 35.2416 27.8997 35.5526C28.4135 36.0334 28.9358 36.5816 29.4103 37.251ZM35.1555 30.1403C35.1558 30.1412 35.156 30.1417 35.156 30.1417C35.1561 30.1418 35.1557 30.1402 35.1546 30.137C35.1549 30.1385 35.1553 30.1396 35.1555 30.1403Z"/>
</mask>
<path fill-rule="evenodd" clip-rule="evenodd" d="M42.8176 9.41017C42.7524 9.39412 42.6856 9.38541 42.6184 9.38422C42.1232 9.3754 41.714 9.48514 41.3598 9.70117C41.0761 9.87417 40.8551 10.1053 40.7146 10.2523L40.6723 10.2964C40.5159 10.4582 40.4014 10.5664 40.2485 10.6576C40.1011 10.7455 39.8781 10.8399 39.5047 10.8937C37.517 11.1802 35.7519 11.6906 34.3842 13.1237C33.0365 14.5359 32.2031 16.7092 31.7043 20.0034C31.1749 23.4994 32.1747 25.9214 33.2809 27.6106C33.702 28.2537 34.1488 28.8032 34.4953 29.2293C34.5893 29.3449 34.6759 29.4514 34.7526 29.5483C34.9295 29.7715 35.041 29.9267 35.1067 30.0409C35.0825 30.0765 35.0487 30.1233 35.0021 30.1825C34.8457 30.3814 34.6187 30.6307 34.3204 30.9446C34.189 31.0828 34.0458 31.2315 33.8931 31.3898L33.893 31.3899C33.3717 31.9309 32.7415 32.5848 32.1077 33.3183C31.5322 33.9843 30.9356 34.7357 30.3861 35.5664C29.9753 35.0664 29.5482 34.63 29.1296 34.2383C28.7677 33.8996 28.4112 33.5935 28.0912 33.3186L27.9936 33.2347C27.6412 32.9318 27.346 32.6741 27.1011 32.4259C26.6073 31.9254 26.4532 31.5959 26.4532 31.2735C26.4533 30.7762 26.6007 30.2677 26.8806 29.6537C27.0671 29.2444 27.283 28.8459 27.5277 28.394C27.6685 28.1342 27.8188 27.8567 27.9786 27.5494C28.8266 25.9184 29.7069 23.8561 29.7069 20.8945C29.7069 17.973 28.8729 15.1148 27.0532 12.9711C25.2152 10.8057 22.4411 9.45338 18.7532 9.45336C18.6879 9.45336 18.6228 9.46046 18.5591 9.47453C18.0705 9.58241 17.694 9.78307 17.3954 10.0751C17.1551 10.3102 16.9911 10.5872 16.8866 10.7638L16.8866 10.7638L16.8551 10.8168C16.7389 11.0106 16.6509 11.1435 16.5195 11.2696C16.3919 11.3918 16.1889 11.5391 15.8239 11.6825C14.4138 12.2366 12.8296 13.1502 11.6966 14.8661C10.5608 16.5863 9.95422 18.9969 10.2744 22.3988C10.605 25.9112 11.9769 27.6774 13.2773 28.8918C13.5239 29.1221 13.7702 29.3347 13.9897 29.5242L13.9897 29.5242C14.0443 29.5713 14.0971 29.617 14.1479 29.6611C14.4134 29.8917 14.6257 30.0835 14.7979 30.271C15.1206 30.6223 15.253 30.902 15.253 31.2735C15.253 31.7421 15.0749 32.3312 14.7227 33.1311C14.5509 33.5212 14.3504 33.9348 14.1295 34.3884L14.1027 34.4435C13.8918 34.8768 13.665 35.3425 13.4427 35.832C12.5126 37.8801 11.6175 40.4324 11.9815 43.5438C12.2775 46.0733 13.2279 48.0657 14.9467 49.4505C16.6425 50.8168 18.9727 51.4991 21.8513 51.6619C24.8334 51.8306 27.7329 50.9324 29.8336 49.2411C30.1281 49.004 30.4071 48.7509 30.6683 48.4828C31.9151 49.6233 33.5926 50.4792 35.6444 51.113C38.4283 51.973 41.3881 51.7721 43.7791 50.6144C46.1765 49.4536 48.006 47.3216 48.4376 44.3812C49.4828 39.7657 48.5105 36.5332 47.2519 34.2984C46.6475 33.2252 45.9846 32.396 45.5027 31.7933L45.4633 31.7441C45.2306 31.4529 45.0663 31.2445 44.9562 31.0797C45.0328 31.0138 45.139 30.9318 45.2856 30.826C45.3732 30.7628 45.4724 30.6933 45.5806 30.6174C45.9813 30.3365 46.5068 29.9682 47.0353 29.5059C48.4299 28.286 49.9186 26.3658 50.4495 22.9932C50.9339 19.9167 50.8419 16.9654 49.6864 14.5379C48.5081 12.0624 46.2882 10.2647 42.8176 9.41017ZM31.7889 47.0664C32.7801 48.0087 34.2152 48.7876 36.1756 49.3932C38.5559 50.1285 41.0427 49.9395 42.9946 48.9944C44.9298 48.0573 46.3339 46.3867 46.661 44.0898C46.6645 44.0651 46.6691 44.0406 46.6746 44.0163C47.6247 39.8559 46.7456 37.0675 45.6835 35.1816C45.1514 34.2367 44.5652 33.5034 44.0811 32.8977L44.0572 32.8679C43.823 32.5748 43.5848 32.2766 43.4138 32.0098C43.2701 31.7856 43.0245 31.3688 43.0766 30.8831C43.1227 30.4521 43.359 30.1357 43.5555 29.9294C43.754 29.7209 44.0025 29.5322 44.2322 29.3664C44.3489 29.2823 44.468 29.1987 44.5897 29.1133L44.5899 29.1131L44.59 29.113C44.9828 28.8373 45.4022 28.5429 45.8502 28.151C46.9717 27.1701 48.2147 25.6144 48.6714 22.7133C49.1294 19.8046 48.9943 17.272 48.0611 15.3115C47.1619 13.4224 45.4626 11.9413 42.4974 11.1856C42.3739 11.1931 42.3241 11.2214 42.297 11.2379C42.224 11.2824 42.1626 11.3446 41.9664 11.5475C41.7904 11.7296 41.539 11.9838 41.1704 12.2036C40.7964 12.4266 40.3425 12.5916 39.7615 12.6753C37.8945 12.9444 36.6296 13.3781 35.6863 14.3665C34.723 15.3759 33.9643 17.1015 33.484 20.2729C33.0344 23.2425 33.8694 25.2236 34.7867 26.6244C35.1516 27.1817 35.5199 27.6351 35.8605 28.0544C35.9644 28.1823 36.0657 28.3071 36.1636 28.4307C36.36 28.6786 36.5635 28.9486 36.7082 29.2175C36.8471 29.4756 37.0081 29.869 36.9246 30.3212C36.8524 30.712 36.6019 31.0601 36.417 31.2952C36.2037 31.5665 35.9252 31.8689 35.6251 32.1847C35.48 32.3373 35.3274 32.4957 35.1684 32.6606C34.6512 33.1975 34.0681 33.8026 33.4697 34.4952C32.7686 35.3065 32.0762 36.2058 31.495 37.1849C32.1966 38.4373 32.7451 40.0036 32.954 42.0262C33.15 43.9235 32.6915 45.6342 31.7889 47.0664ZM30.4958 39.2901C30.8101 40.1156 31.0463 41.0763 31.1636 42.2111C31.2874 43.41 31.0777 44.5159 30.6057 45.495C30.0202 44.3402 29.8163 42.9239 30.0437 41.1612C30.127 40.5156 30.2835 39.8914 30.4958 39.2901ZM29.4103 37.251C28.8539 38.3717 28.4299 39.602 28.2585 40.9309C27.9477 43.34 28.3162 45.4158 29.4806 47.1212C29.2426 47.3752 28.9833 47.6148 28.7047 47.8391C26.9799 49.2278 24.5283 50.0104 21.9529 49.8648C19.274 49.7132 17.3665 49.0886 16.076 48.0489C14.8087 47.0278 14.0245 45.5153 13.7693 43.3346C13.4612 40.7014 14.2049 38.5069 15.0816 36.5763C15.2937 36.1093 15.511 35.663 15.7241 35.2253L15.7242 35.2251L15.748 35.1763C15.9664 34.7276 16.1821 34.2834 16.3701 33.8565C16.7374 33.0224 17.053 32.1409 17.053 31.2735C17.053 30.309 16.6393 29.6148 16.1235 29.0533C15.8765 28.7844 15.5964 28.5351 15.3283 28.3022C15.2697 28.2513 15.2116 28.201 15.1537 28.1511L15.1537 28.151C14.9369 27.9638 14.7242 27.7802 14.5059 27.5762C13.4682 26.6072 12.3488 25.2299 12.0665 22.2301C11.7738 19.1199 12.3462 17.149 13.1987 15.8579C14.054 14.5626 15.2676 13.8351 16.4822 13.3579C17.0377 13.1396 17.4478 12.8731 17.7652 12.5688C18.0787 12.2683 18.2674 11.9617 18.399 11.7423C18.5449 11.4988 18.5911 11.4234 18.654 11.3619C18.6796 11.3369 18.7281 11.2933 18.8624 11.2538C22.0152 11.2798 24.2335 12.4307 25.681 14.136C27.1635 15.8825 27.9069 18.2949 27.9069 20.8945C27.9069 23.4541 27.1604 25.221 26.3816 26.719C26.2555 26.9614 26.1215 27.2092 25.9872 27.4578L25.987 27.4581C25.7207 27.9507 25.4529 28.4461 25.2427 28.9071C24.9125 29.6315 24.6533 30.4104 24.6533 31.2735C24.6533 32.3114 25.2153 33.0774 25.8198 33.6901C26.1241 33.9985 26.4737 34.3018 26.82 34.5996L26.9163 34.6823C27.2395 34.96 27.5673 35.2416 27.8997 35.5526C28.4135 36.0334 28.9358 36.5816 29.4103 37.251ZM35.1555 30.1403C35.1558 30.1412 35.156 30.1417 35.156 30.1417C35.1561 30.1418 35.1557 30.1402 35.1546 30.137C35.1549 30.1385 35.1553 30.1396 35.1555 30.1403Z" fill="#F8F9FA"/>
<path d="M42.6184 9.38422L42.6451 7.88445L42.6451 7.88445L42.6184 9.38422ZM42.8176 9.41017L43.1762 7.95367L43.1762 7.95367L42.8176 9.41017ZM41.3598 9.70117L40.5787 8.42055L40.5787 8.42055L41.3598 9.70117ZM40.7146 10.2523L41.7971 11.2907L41.7989 11.2888L40.7146 10.2523ZM40.6723 10.2964L41.7507 11.339L41.7547 11.3349L40.6723 10.2964ZM40.2485 10.6576L39.4803 9.36927L39.4803 9.36927L40.2485 10.6576ZM39.5047 10.8937L39.2907 9.40908L39.2907 9.40908L39.5047 10.8937ZM34.3842 13.1237L35.4693 14.1594L35.4693 14.1594L34.3842 13.1237ZM31.7043 20.0034L33.1874 20.228L33.1874 20.228L31.7043 20.0034ZM33.2809 27.6106L34.5357 26.7888L34.5357 26.7888L33.2809 27.6106ZM34.4953 29.2293L33.3314 30.1756L33.3314 30.1756L34.4953 29.2293ZM34.7526 29.5483L35.9285 28.6169L35.9284 28.6169L34.7526 29.5483ZM35.1067 30.0409L36.3461 30.8858C36.6701 30.4105 36.6938 29.7917 36.407 29.293L35.1067 30.0409ZM35.0021 30.1825L33.8231 29.2552L33.8231 29.2552L35.0021 30.1825ZM34.3204 30.9446L35.4076 31.978L35.4076 31.978L34.3204 30.9446ZM33.8931 31.3898L34.9633 32.4409C34.9666 32.4375 34.9699 32.4341 34.9732 32.4307L33.8931 31.3898ZM33.893 31.3899L32.8228 30.3389L32.813 30.349L33.893 31.3899ZM32.1077 33.3183L33.2427 34.299L33.2427 34.299L32.1077 33.3183ZM30.3861 35.5664L29.2272 36.5187C29.5294 36.8865 29.9883 37.089 30.4637 37.0644C30.9391 37.0397 31.3746 36.7909 31.6372 36.3939L30.3861 35.5664ZM29.1296 34.2383L28.1047 35.3336L28.1047 35.3336L29.1296 34.2383ZM28.0912 33.3186L27.1137 34.4563L27.1139 34.4565L28.0912 33.3186ZM27.9936 33.2347L27.0156 34.3721L27.016 34.3724L27.9936 33.2347ZM27.1011 32.4259L26.0334 33.4794L26.0334 33.4794L27.1011 32.4259ZM26.4532 31.2735L24.9532 31.2735L24.9532 31.2735L26.4532 31.2735ZM26.8806 29.6537L25.5157 29.0316L25.5157 29.0316L26.8806 29.6537ZM27.5277 28.394L28.8467 29.1085L28.8467 29.1085L27.5277 28.394ZM27.9786 27.5494L29.3095 28.2413L29.3095 28.2413L27.9786 27.5494ZM29.7069 20.8945L28.2069 20.8945L28.2069 20.8945L29.7069 20.8945ZM27.0532 12.9711L28.1968 12.0004L28.1968 12.0004L27.0532 12.9711ZM18.7532 9.45336L18.7532 7.95336L18.7532 7.95336L18.7532 9.45336ZM18.5591 9.47453L18.8825 10.9393L18.8825 10.9393L18.5591 9.47453ZM17.3954 10.0751L18.4443 11.1474L18.4443 11.1474L17.3954 10.0751ZM16.8866 10.7638L18.155 11.5646C18.1626 11.5524 18.1701 11.5402 18.1774 11.5278L16.8866 10.7638ZM16.8866 10.7638L15.6182 9.96298C15.611 9.9744 15.604 9.98592 15.5971 9.99753L16.8866 10.7638ZM16.8551 10.8168L18.1417 11.588L18.1446 11.5831L16.8551 10.8168ZM16.5195 11.2696L17.5576 12.3523L17.5576 12.3523L16.5195 11.2696ZM15.8239 11.6825L15.2753 10.2865L15.2753 10.2865L15.8239 11.6825ZM11.6966 14.8661L10.4449 14.0396L11.6966 14.8661ZM10.2744 22.3988L8.78102 22.5393L8.78102 22.5393L10.2744 22.3988ZM13.2773 28.8918L14.3011 27.7955L14.3011 27.7955L13.2773 28.8918ZM13.9897 29.5242L13.0094 30.6596C13.0253 30.6733 13.0415 30.6867 13.058 30.6998L13.9897 29.5242ZM13.9897 29.5242L14.97 28.3889C14.9541 28.3751 14.9379 28.3617 14.9214 28.3487L13.9897 29.5242ZM14.1479 29.6611L15.1316 28.5287L15.1316 28.5286L14.1479 29.6611ZM14.7979 30.271L13.6932 31.2857L13.6932 31.2857L14.7979 30.271ZM15.253 31.2735L13.753 31.2735L13.753 31.2735L15.253 31.2735ZM14.7227 33.1311L13.3499 32.5265L13.3499 32.5265L14.7227 33.1311ZM14.1295 34.3884L15.4782 35.045L15.4782 35.045L14.1295 34.3884ZM14.1027 34.4435L15.4514 35.1001L15.4514 35.1001L14.1027 34.4435ZM13.4427 35.832L12.0769 35.2118L12.0769 35.2118L13.4427 35.832ZM11.9815 43.5438L13.4714 43.3694L13.4714 43.3694L11.9815 43.5438ZM14.9467 49.4505L14.0056 50.6186L14.0056 50.6186L14.9467 49.4505ZM21.8513 51.6619L21.7665 53.1595L21.7665 53.1595L21.8513 51.6619ZM29.8336 49.2411L30.7743 50.4095L30.7743 50.4095L29.8336 49.2411ZM30.6683 48.4828L31.6807 47.376C31.0831 46.8294 30.1594 46.8559 29.5941 47.4359L30.6683 48.4828ZM35.6444 51.113L35.2016 52.5462L35.2016 52.5462L35.6444 51.113ZM43.7791 50.6144L44.4328 51.9645L44.4328 51.9645L43.7791 50.6144ZM48.4376 44.3812L46.9746 44.0499C46.9662 44.0874 46.9591 44.1252 46.9535 44.1633L48.4376 44.3812ZM47.2519 34.2984L45.9449 35.0344L45.9449 35.0344L47.2519 34.2984ZM45.5027 31.7933L44.3311 32.7299L44.3311 32.73L45.5027 31.7933ZM45.4633 31.7441L44.2916 32.6806L44.2917 32.6807L45.4633 31.7441ZM44.9562 31.0797L43.9782 29.9424C43.4032 30.4369 43.2877 31.2827 43.7091 31.9132L44.9562 31.0797ZM45.2856 30.826L44.4078 29.6097L44.4078 29.6097L45.2856 30.826ZM45.5806 30.6174L46.4416 31.8457L46.4416 31.8457L45.5806 30.6174ZM47.0353 29.5059L48.0229 30.6349L48.0229 30.6349L47.0353 29.5059ZM50.4495 22.9932L51.9313 23.2265L51.9313 23.2265L50.4495 22.9932ZM49.6864 14.5379L51.0408 13.8932L51.0408 13.8932L49.6864 14.5379ZM31.7889 47.0664L30.5199 46.2665C30.1387 46.8713 30.2373 47.661 30.7553 48.1535L31.7889 47.0664ZM36.1756 49.3932L36.6184 47.96L36.6183 47.96L36.1756 49.3932ZM42.9946 48.9944L43.6483 50.3444L43.6483 50.3444L42.9946 48.9944ZM46.661 44.0898L48.146 44.3013L48.1461 44.3012L46.661 44.0898ZM46.6746 44.0163L45.2123 43.6824L45.2122 43.6825L46.6746 44.0163ZM45.6835 35.1816L46.9905 34.4456L46.9905 34.4456L45.6835 35.1816ZM44.0811 32.8977L42.9093 33.8342L42.9094 33.8343L44.0811 32.8977ZM44.0572 32.8679L45.229 31.9314L45.229 31.9314L44.0572 32.8679ZM43.4138 32.0098L42.1509 32.8192L42.1509 32.8192L43.4138 32.0098ZM43.0766 30.8831L41.5851 30.7233L41.5851 30.7233L43.0766 30.8831ZM43.5555 29.9294L42.4693 28.8949L42.4693 28.8949L43.5555 29.9294ZM44.2322 29.3664L45.11 30.5828L45.11 30.5828L44.2322 29.3664ZM44.5897 29.1133L45.4514 30.341C45.4585 30.336 45.4657 30.3309 45.4727 30.3257L44.5897 29.1133ZM44.5899 29.1131L43.7629 27.8617C43.7439 27.8742 43.7252 27.8872 43.7068 27.9006L44.5899 29.1131ZM44.59 29.113L45.417 30.3645C45.4287 30.3567 45.4403 30.3488 45.4517 30.3408L44.59 29.113ZM45.8502 28.151L44.8626 27.022L44.8626 27.022L45.8502 28.151ZM48.6714 22.7133L47.1897 22.48L47.1897 22.48L48.6714 22.7133ZM48.0611 15.3115L49.4155 14.6669L49.4155 14.6669L48.0611 15.3115ZM42.4974 11.1856L42.8679 9.73204C42.7173 9.69367 42.5617 9.67892 42.4066 9.68833L42.4974 11.1856ZM42.297 11.2379L43.078 12.5185L43.0781 12.5185L42.297 11.2379ZM41.9664 11.5475L43.0448 12.5901L43.0448 12.5901L41.9664 11.5475ZM41.1704 12.2036L41.9387 13.4919L41.9387 13.4919L41.1704 12.2036ZM39.7615 12.6753L39.5475 11.1907L39.5475 11.1907L39.7615 12.6753ZM35.6863 14.3665L36.7715 15.4021L36.7715 15.4021L35.6863 14.3665ZM33.484 20.2729L32.0009 20.0483L32.0009 20.0483L33.484 20.2729ZM34.7867 26.6244L33.5318 27.4462L33.5318 27.4462L34.7867 26.6244ZM35.8605 28.0544L34.6962 29.0001L34.6962 29.0001L35.8605 28.0544ZM36.1636 28.4307L37.3395 27.4993L37.3395 27.4993L36.1636 28.4307ZM36.7082 29.2175L35.3874 29.9284L35.3874 29.9284L36.7082 29.2175ZM36.9246 30.3212L38.3996 30.5937L38.3996 30.5937L36.9246 30.3212ZM36.417 31.2952L37.596 32.2225L37.596 32.2225L36.417 31.2952ZM35.6251 32.1847L34.5378 31.1513L34.5378 31.1513L35.6251 32.1847ZM35.1684 32.6606L34.0883 31.6198L34.0883 31.6198L35.1684 32.6606ZM33.4697 34.4952L32.3347 33.5145L32.3347 33.5145L33.4697 34.4952ZM31.495 37.1849L30.2051 36.4191C29.9318 36.8796 29.9246 37.4508 30.1863 37.918L31.495 37.1849ZM32.954 42.0262L34.4461 41.872L34.4461 41.872L32.954 42.0262ZM31.1636 42.2111L29.6715 42.3652L29.6715 42.3652L31.1636 42.2111ZM30.4958 39.2901L31.8976 38.7564C31.6737 38.1683 31.1066 37.7825 30.4774 37.7902C29.8483 37.7979 29.2908 38.1975 29.0813 38.7908L30.4958 39.2901ZM30.6057 45.495L29.2678 46.1734C29.5258 46.6822 30.0502 47.0007 30.6207 46.995C31.1912 46.9893 31.7091 46.6604 31.9569 46.1464L30.6057 45.495ZM30.0437 41.1612L31.5314 41.3531L31.5314 41.3531L30.0437 41.1612ZM28.2585 40.9309L29.7462 41.1228L29.7462 41.1228L28.2585 40.9309ZM29.4103 37.251L30.7538 37.9179C30.9993 37.4234 30.9533 36.834 30.634 36.3835L29.4103 37.251ZM29.4806 47.1212L30.5751 48.1469C31.0558 47.6339 31.1158 46.856 30.7194 46.2754L29.4806 47.1212ZM28.7047 47.8391L29.6454 49.0074L29.6454 49.0074L28.7047 47.8391ZM21.9529 49.8648L22.0376 48.3671L22.0376 48.3671L21.9529 49.8648ZM16.076 48.0489L17.0171 46.8808L17.0171 46.8808L16.076 48.0489ZM13.7693 43.3346L12.2795 43.5089L12.2795 43.5089L13.7693 43.3346ZM15.0816 36.5763L16.4474 37.1965L16.4474 37.1965L15.0816 36.5763ZM15.7241 35.2253L17.0728 35.8819L17.0749 35.8775L15.7241 35.2253ZM15.7242 35.2251L14.3755 34.5685L14.3734 34.5728L15.7242 35.2251ZM15.748 35.1763L17.0966 35.8329L17.0966 35.8328L15.748 35.1763ZM16.3701 33.8565L17.7428 34.4611L17.7428 34.4611L16.3701 33.8565ZM17.053 31.2735L15.553 31.2735L15.553 31.2735L17.053 31.2735ZM16.1235 29.0533L15.0188 30.068L15.0188 30.068L16.1235 29.0533ZM15.3283 28.3022L14.3447 29.4346L14.3447 29.4346L15.3283 28.3022ZM15.1537 28.1511L14.172 29.2852L14.1733 29.2864L15.1537 28.1511ZM15.1537 28.1511L16.1354 27.017L16.1341 27.0158L15.1537 28.1511ZM14.5059 27.5762L13.4821 28.6725L13.4821 28.6725L14.5059 27.5762ZM12.0665 22.2301L10.5731 22.3707L12.0665 22.2301ZM13.1987 15.8579L11.9469 15.0314L11.9469 15.0314L13.1987 15.8579ZM16.4822 13.3579L15.9336 11.9618L15.9336 11.9618L16.4822 13.3579ZM17.7652 12.5688L18.8033 13.6516L18.8033 13.6516L17.7652 12.5688ZM18.399 11.7423L19.6855 12.5135L19.6855 12.5135L18.399 11.7423ZM18.654 11.3619L17.6052 10.2896L17.6052 10.2896L18.654 11.3619ZM18.8624 11.2538L18.8748 9.75386C18.7272 9.75265 18.5804 9.7732 18.4388 9.81485L18.8624 11.2538ZM25.681 14.136L24.5374 15.1066L24.5374 15.1066L25.681 14.136ZM27.9069 20.8945L29.4069 20.8945L29.4069 20.8945L27.9069 20.8945ZM26.3816 26.719L27.7124 27.411L27.7124 27.411L26.3816 26.719ZM25.9872 27.4578L24.6677 26.7444L24.6669 26.7459L25.9872 27.4578ZM25.987 27.4581L27.3065 28.1715L27.3073 28.17L25.987 27.4581ZM25.2427 28.9071L26.6076 29.5293L26.6076 29.5293L25.2427 28.9071ZM24.6533 31.2735L26.1533 31.2735L26.1533 31.2735L24.6533 31.2735ZM25.8198 33.6901L24.7521 34.7436L24.7521 34.7436L25.8198 33.6901ZM26.82 34.5996L25.842 35.7369L25.8424 35.7372L26.82 34.5996ZM26.9163 34.6823L25.9387 35.82L25.9389 35.8201L26.9163 34.6823ZM27.8997 35.5526L28.9246 34.4573L28.9246 34.4573L27.8997 35.5526ZM35.156 30.1417L34.5718 31.5233C34.5851 31.5289 34.5985 31.5344 34.612 31.5396L35.156 30.1417ZM35.1555 30.1403L33.7257 30.5937L33.7257 30.5937L35.1555 30.1403ZM35.1546 30.137L36.5674 29.6332C36.2974 28.876 35.4784 28.4662 34.7104 28.7043C33.9425 28.9423 33.4988 29.7435 33.7045 30.5207L35.1546 30.137ZM42.5917 10.884C42.547 10.8832 42.5024 10.8774 42.459 10.8667L43.1762 7.95367C43.0023 7.91086 42.8242 7.88764 42.6451 7.88445L42.5917 10.884ZM42.1408 10.9818C42.2269 10.9293 42.3502 10.8797 42.5917 10.884L42.6451 7.88445C41.8962 7.87113 41.2011 8.04101 40.5787 8.42055L42.1408 10.9818ZM41.7989 11.2888C41.87 11.2144 41.9261 11.1564 41.9889 11.0997C42.0509 11.0436 42.1017 11.0057 42.1408 10.9818L40.5787 8.42055C40.1073 8.70807 39.7646 9.07533 39.6304 9.21569L41.7989 11.2888ZM41.7547 11.3349L41.7971 11.2907L39.6322 9.21382L39.5898 9.258L41.7547 11.3349ZM41.0168 11.9459C41.3506 11.7468 41.5801 11.5155 41.7507 11.339L39.5938 9.25387C39.5222 9.32799 39.4905 9.35787 39.4732 9.37299C39.4633 9.38161 39.4687 9.37617 39.4803 9.36927L41.0168 11.9459ZM39.7187 12.3784C40.2652 12.2996 40.6806 12.1464 41.0168 11.9459L39.4803 9.36927C39.4937 9.36124 39.4958 9.36239 39.4761 9.36912C39.4536 9.37682 39.3964 9.39385 39.2907 9.40908L39.7187 12.3784ZM35.4693 14.1594C36.4833 13.0968 37.8316 12.6504 39.7187 12.3784L39.2907 9.40908C37.2023 9.71008 35.0205 10.2843 33.299 12.0881L35.4693 14.1594ZM33.1874 20.228C33.6707 17.0363 34.4419 15.2359 35.4693 14.1594L33.299 12.0881C31.6311 13.8359 30.7356 16.3822 30.2212 19.7788L33.1874 20.228ZM34.5357 26.7888C33.5867 25.3396 32.7245 23.285 33.1874 20.228L30.2212 19.7788C29.6254 23.7137 30.7627 26.5032 32.026 28.4323L34.5357 26.7888ZM35.6591 28.283C35.3104 27.8542 34.9094 27.3594 34.5357 26.7888L32.026 28.4323C32.4946 29.148 32.9872 29.7523 33.3314 30.1756L35.6591 28.283ZM35.9284 28.6169C35.8446 28.5111 35.7515 28.3966 35.6591 28.283L33.3314 30.1756C33.427 30.2932 33.5072 30.3918 33.5768 30.4797L35.9284 28.6169ZM36.407 29.293C36.2821 29.0759 36.1109 28.8473 35.9285 28.6169L33.5768 30.4796C33.6567 30.5805 33.7134 30.6554 33.7534 30.711C33.7947 30.7685 33.8078 30.7911 33.8064 30.7888L36.407 29.293ZM36.1812 31.1098C36.2475 31.0254 36.3016 30.9511 36.3461 30.8858L33.8673 29.196C33.8633 29.2018 33.8498 29.2212 33.8231 29.2552L36.1812 31.1098ZM35.4076 31.978C35.7072 31.6628 35.9772 31.3691 36.1812 31.1098L33.8231 29.2552C33.7141 29.3938 33.5302 29.5986 33.2331 29.9112L35.4076 31.978ZM34.9732 32.4307C35.1249 32.2733 35.272 32.1207 35.4076 31.978L33.2331 29.9112C33.1061 30.0449 32.9666 30.1897 32.8131 30.3489L34.9732 32.4307ZM34.9632 32.441L34.9633 32.4409L32.823 30.3388L32.8228 30.3389L34.9632 32.441ZM33.2427 34.299C33.8463 33.6004 34.4497 32.9739 34.9731 32.4309L32.813 30.349C32.2936 30.8879 31.6367 31.5691 30.9727 32.3376L33.2427 34.299ZM31.6372 36.3939C32.1415 35.6314 32.6958 34.932 33.2427 34.299L30.9727 32.3376C30.3687 33.0367 29.7296 33.84 29.135 34.7389L31.6372 36.3939ZM28.1047 35.3336C28.4892 35.6933 28.8682 36.0819 29.2272 36.5187L31.545 34.614C31.0823 34.051 30.6072 33.5667 30.1544 33.143L28.1047 35.3336ZM27.1139 34.4565C27.4363 34.7334 27.7695 35.0199 28.1047 35.3336L30.1545 33.143C29.7659 32.7794 29.3861 32.4535 29.0686 32.1807L27.1139 34.4565ZM27.016 34.3724L27.1137 34.4563L29.0688 32.1809L28.9711 32.097L27.016 34.3724ZM26.0334 33.4794C26.3279 33.7778 26.6686 34.0737 27.0156 34.3721L28.9715 32.0974C28.6138 31.7898 28.3642 31.5703 28.1688 31.3723L26.0334 33.4794ZM24.9532 31.2735C24.9533 32.1905 25.4453 32.8834 26.0334 33.4794L28.1689 31.3723C28.0747 31.2769 28.0112 31.2041 27.9691 31.1508C27.9271 31.0976 27.9125 31.0713 27.9112 31.069C27.9111 31.0687 27.9238 31.0924 27.9355 31.1368C27.9476 31.183 27.9532 31.2307 27.9532 31.2735L24.9532 31.2735ZM25.5157 29.0316C25.194 29.7373 24.9533 30.4712 24.9532 31.2735L27.9532 31.2735C27.9532 31.0813 28.0074 30.7982 28.2455 30.2758L25.5157 29.0316ZM26.2088 27.6796C25.9691 28.1221 25.7274 28.567 25.5157 29.0316L28.2455 30.2758C28.4068 29.9219 28.5969 29.5696 28.8467 29.1085L26.2088 27.6796ZM26.6477 26.8574C26.4946 27.1519 26.3501 27.4189 26.2088 27.6796L28.8467 29.1085C28.987 28.8495 29.143 28.5614 29.3095 28.2413L26.6477 26.8574ZM28.2069 20.8945C28.2069 23.5211 27.4381 25.3372 26.6477 26.8574L29.3095 28.2413C30.215 26.4996 31.2069 24.1911 31.2069 20.8945L28.2069 20.8945ZM25.9097 13.9418C27.4482 15.7544 28.2069 18.241 28.2069 20.8945L31.2069 20.8945C31.2069 17.705 30.2975 14.4753 28.1968 12.0004L25.9097 13.9418ZM18.7532 10.9534C22.0438 10.9534 24.3834 12.1437 25.9097 13.9418L28.1968 12.0004C26.047 9.46769 22.8384 7.95338 18.7532 7.95336L18.7532 10.9534ZM18.8825 10.9393C18.84 10.9486 18.7967 10.9534 18.7532 10.9534L18.7532 7.95336C18.5791 7.95336 18.4056 7.97229 18.2357 8.00982L18.8825 10.9393ZM18.4443 11.1474C18.5191 11.0742 18.634 10.9941 18.8825 10.9393L18.2357 8.00982C17.5071 8.17069 16.8689 8.4919 16.3466 9.00274L18.4443 11.1474ZM18.1774 11.5278C18.2304 11.4384 18.2721 11.3687 18.3208 11.2988C18.3689 11.2299 18.4104 11.1806 18.4443 11.1474L16.3466 9.00274C15.9481 9.39251 15.6959 9.83049 15.5958 9.99974L18.1774 11.5278ZM18.155 11.5646L18.155 11.5646L15.6183 9.96297L15.6182 9.96298L18.155 11.5646ZM18.1446 11.5831L18.1761 11.53L15.5971 9.99753L15.5656 10.0506L18.1446 11.5831ZM17.5576 12.3523C17.8418 12.0798 18.0142 11.8007 18.1416 11.588L15.5685 10.0456C15.5153 10.1344 15.4912 10.1707 15.4776 10.1895C15.4699 10.2002 15.4732 10.1946 15.4814 10.1868L17.5576 12.3523ZM16.3725 13.0786C16.8964 12.8728 17.2719 12.6262 17.5576 12.3523L15.4814 10.1868C15.491 10.1776 15.4901 10.181 15.4671 10.1953C15.4417 10.2111 15.3832 10.2441 15.2753 10.2865L16.3725 13.0786ZM12.9483 15.6926C13.8498 14.3273 15.125 13.5688 16.3725 13.0786L15.2753 10.2865C13.7026 10.9044 11.8094 11.973 10.4449 14.0396L12.9483 15.6926ZM11.7678 22.2582C11.4705 19.0991 12.0487 17.055 12.9483 15.6926L10.4449 14.0396C9.0728 16.1175 8.43797 18.8947 8.78102 22.5393L11.7678 22.2582ZM14.3011 27.7955C13.2194 26.7853 12.0582 25.3431 11.7678 22.2582L8.78102 22.5393C9.15185 26.4792 10.7344 28.5694 12.2535 29.9881L14.3011 27.7955ZM14.9699 28.3888C14.748 28.1972 14.5232 28.0029 14.3011 27.7955L12.2535 29.988C12.5246 30.2413 12.7924 30.4722 13.0094 30.6596L14.9699 28.3888ZM14.9214 28.3487L14.9214 28.3487L13.058 30.6998L13.058 30.6998L14.9214 28.3487ZM15.1316 28.5286C15.0788 28.4828 15.0242 28.4356 14.97 28.3889L13.0095 30.6596C13.0643 30.707 13.1155 30.7512 13.1643 30.7936L15.1316 28.5286ZM15.9026 29.2563C15.6679 29.0007 15.3989 28.7608 15.1316 28.5287L13.1643 30.7935C13.428 31.0226 13.5834 31.1662 13.6932 31.2857L15.9026 29.2563ZM16.753 31.2735C16.753 30.4106 16.3887 29.7855 15.9026 29.2563L13.6932 31.2857C13.7424 31.3393 13.7689 31.3734 13.7819 31.3918C13.7941 31.409 13.791 31.4074 13.7828 31.3896C13.7788 31.3807 13.7742 31.3693 13.7697 31.3557C13.7652 31.3421 13.7615 31.3283 13.7587 31.3149C13.7529 31.287 13.753 31.2709 13.753 31.2735L16.753 31.2735ZM16.0955 33.7356C16.4595 32.9089 16.753 32.0753 16.753 31.2735L13.753 31.2735C13.753 31.4089 13.6903 31.7536 13.3499 32.5265L16.0955 33.7356ZM15.4782 35.045C15.697 34.5956 15.9102 34.1564 16.0955 33.7356L13.3499 32.5265C13.1916 32.8861 13.0037 33.274 12.7809 33.7318L15.4782 35.045ZM15.4514 35.1001L15.4782 35.045L12.7809 33.7318L12.7541 33.7869L15.4514 35.1001ZM14.8085 36.4522C15.0212 35.9838 15.2394 35.5356 15.4514 35.1001L12.7541 33.7868C12.5442 34.2179 12.3088 34.7012 12.0769 35.2118L14.8085 36.4522ZM13.4714 43.3694C13.1539 40.6566 13.9229 38.4024 14.8085 36.4522L12.0769 35.2118C11.1024 37.3579 10.081 40.2083 10.4917 43.7181L13.4714 43.3694ZM15.8878 48.2825C14.5456 47.201 13.7334 45.6089 13.4714 43.3694L10.4917 43.7181C10.8216 46.5377 11.9103 48.9304 14.0056 50.6186L15.8878 48.2825ZM21.936 50.1643C19.2236 50.0108 17.2457 49.3765 15.8878 48.2825L14.0056 50.6186C16.0392 52.257 18.7219 52.9873 21.7665 53.1595L21.936 50.1643ZM28.8928 48.0728C27.1055 49.5119 24.5792 50.3138 21.936 50.1643L21.7665 53.1595C25.0875 53.3473 28.3604 52.353 30.7743 50.4095L28.8928 48.0728ZM29.5941 47.4359C29.3761 47.6596 29.1418 47.8723 28.8928 48.0728L30.7743 50.4095C31.1144 50.1356 31.4381 49.8421 31.7425 49.5298L29.5941 47.4359ZM36.0871 49.6798C34.1672 49.0868 32.712 48.3193 31.6807 47.376L29.6559 49.5897C31.1183 50.9273 33.0181 51.8717 35.2016 52.5462L36.0871 49.6798ZM43.1254 49.2644C41.1004 50.2449 38.5347 50.4359 36.0871 49.6798L35.2016 52.5462C38.3219 53.5101 41.6759 53.2994 44.4328 51.9645L43.1254 49.2644ZM46.9535 44.1633C46.6026 46.5534 45.1316 48.2929 43.1253 49.2644L44.4328 51.9645C47.2213 50.6143 49.4093 48.0897 49.9217 44.599L46.9535 44.1633ZM45.9449 35.0344C47.0376 36.9748 47.9304 39.8291 46.9746 44.0499L49.9006 44.7125C51.0351 39.7022 49.9833 36.0916 48.5589 33.5623L45.9449 35.0344ZM44.3311 32.73C44.8116 33.331 45.4059 34.0772 45.9449 35.0344L48.5589 33.5623C47.8892 32.3732 47.1575 31.461 46.6742 30.8566L44.3311 32.73ZM44.2917 32.6807L44.3311 32.7299L46.6743 30.8566L46.6349 30.8074L44.2917 32.6807ZM43.7091 31.9132C43.862 32.142 44.0706 32.4041 44.2916 32.6806L46.6351 30.8076C46.3905 30.5016 46.2706 30.3469 46.2033 30.2462L43.7091 31.9132ZM44.4078 29.6097C44.247 29.7257 44.1017 29.8362 43.9782 29.9424L45.9343 32.217C45.964 32.1914 46.031 32.1379 46.1633 32.0424L44.4078 29.6097ZM44.7196 29.3891C44.6136 29.4634 44.5054 29.5392 44.4078 29.6097L46.1633 32.0424C46.241 31.9864 46.3311 31.9232 46.4416 31.8457L44.7196 29.3891ZM46.0477 28.3768C45.587 28.7798 45.1227 29.1066 44.7196 29.3891L46.4416 31.8457C46.84 31.5664 47.4266 31.1565 48.0229 30.6349L46.0477 28.3768ZM48.9678 22.76C48.4987 25.7395 47.2149 27.3559 46.0477 28.3768L48.0229 30.6349C49.645 29.216 51.3384 26.9922 51.9313 23.2265L48.9678 22.76ZM48.332 15.1826C49.3022 17.2208 49.4301 19.8232 48.9678 22.76L51.9313 23.2265C52.4376 20.0103 52.3816 16.71 51.0408 13.8932L48.332 15.1826ZM42.459 10.8667C45.5657 11.6316 47.3772 13.1767 48.332 15.1826L51.0408 13.8932C49.639 10.9481 47.0106 8.89779 43.1762 7.95367L42.459 10.8667ZM30.7553 48.1535C31.9684 49.3067 33.6363 50.1787 35.7329 50.8264L36.6183 47.96C34.7942 47.3965 33.5917 46.7107 32.8224 45.9792L30.7553 48.1535ZM35.7329 50.8264C38.4497 51.6656 41.3307 51.4666 43.6483 50.3444L42.3409 47.6443C40.7547 48.4123 38.662 48.5913 36.6184 47.96L35.7329 50.8264ZM43.6483 50.3444C45.978 49.2164 47.7404 47.1499 48.146 44.3013L45.176 43.8783C44.9274 45.6236 43.8816 46.8983 42.3409 47.6443L43.6483 50.3444ZM48.1461 44.3012C48.1437 44.3178 48.1407 44.3341 48.137 44.3501L45.2122 43.6825C45.1975 43.7471 45.1854 43.8125 45.176 43.8784L48.1461 44.3012ZM48.137 44.3503C49.1773 39.7948 48.2191 36.6272 46.9905 34.4456L44.3765 35.9177C45.2721 37.5079 46.0721 39.9169 45.2123 43.6824L48.137 44.3503ZM46.9905 34.4456C46.3923 33.3834 45.7359 32.5656 45.2528 31.9611L42.9094 33.8343C43.3945 34.4412 43.9104 35.09 44.3765 35.9177L46.9905 34.4456ZM45.2528 31.9612L45.229 31.9314L42.8855 33.8043L42.9093 33.8342L45.2528 31.9612ZM45.229 31.9314C44.9803 31.6203 44.7967 31.3878 44.6767 31.2005L42.1509 32.8192C42.3729 33.1655 42.6658 33.5294 42.8855 33.8043L45.229 31.9314ZM44.6767 31.2005C44.6219 31.1149 44.592 31.0594 44.5751 31.0146C44.5593 30.9729 44.5738 30.9887 44.568 31.0429L41.5851 30.7233C41.4729 31.7707 41.9977 32.5802 42.1509 32.8192L44.6767 31.2005ZM44.568 31.0429C44.5658 31.0635 44.5593 31.0711 44.5667 31.0579C44.5765 31.0405 44.5982 31.0095 44.6417 30.9638L42.4693 28.8949C42.1733 29.2056 41.6821 29.8178 41.5851 30.7233L44.568 31.0429ZM44.6417 30.9639C44.737 30.8638 44.887 30.7437 45.11 30.5828L43.3545 28.1501C43.1181 28.3206 42.771 28.578 42.4693 28.8949L44.6417 30.9639ZM45.11 30.5828C45.2173 30.5054 45.3283 30.4274 45.4514 30.341L43.7279 27.8855C43.6077 27.9699 43.4804 28.0592 43.3544 28.1501L45.11 30.5828ZM45.4727 30.3257L45.473 30.3256L43.7068 27.9006L43.7066 27.9008L45.4727 30.3257ZM45.4169 30.3645L45.417 30.3645L43.763 27.8616L43.7629 27.8617L45.4169 30.3645ZM45.4517 30.3408C45.8421 30.0667 46.3224 29.7309 46.8378 29.2801L44.8626 27.022C44.4821 27.3549 44.1235 27.6078 43.7282 27.8853L45.4517 30.3408ZM46.8378 29.2801C48.1871 28.0998 49.6346 26.2404 50.1532 22.9466L47.1897 22.48C46.7948 24.9885 45.7563 26.2403 44.8626 27.022L46.8378 29.2801ZM50.1532 22.9466C50.6331 19.898 50.5339 17.0165 49.4155 14.6669L46.7067 15.9562C47.4547 17.5275 47.6256 19.7112 47.1897 22.48L50.1532 22.9466ZM49.4155 14.6669C48.2967 12.3162 46.1972 10.5806 42.8679 9.73204L42.127 12.6391C44.7279 13.302 46.0272 14.5285 46.7067 15.9562L49.4155 14.6669ZM42.4066 9.68833C42.0232 9.71159 41.7383 9.82169 41.516 9.9573L43.0781 12.5185C43.0702 12.5233 43.0328 12.5461 42.9819 12.571C42.9304 12.5963 42.8765 12.6182 42.8212 12.636C42.7119 12.6713 42.628 12.6804 42.5883 12.6828L42.4066 9.68833ZM41.516 9.95728C41.2372 10.1273 41.0169 10.3715 40.8879 10.505L43.0448 12.5901C43.0943 12.5389 43.1306 12.5015 43.1599 12.4717C43.1896 12.4415 43.204 12.4275 43.21 12.4218C43.2155 12.4165 43.2032 12.4287 43.1787 12.4482C43.1658 12.4585 43.1502 12.4704 43.1321 12.4831C43.1139 12.4959 43.0957 12.5078 43.078 12.5185L41.516 9.95728ZM40.8879 10.505C40.7294 10.669 40.5916 10.8023 40.4022 10.9153L41.9387 13.4919C42.4864 13.1653 42.8514 12.7902 43.0448 12.5901L40.8879 10.505ZM40.4022 10.9153C40.217 11.0257 39.9556 11.1319 39.5475 11.1907L39.9755 14.16C40.7293 14.0513 41.3758 13.8276 41.9387 13.4919L40.4022 10.9153ZM39.5475 11.1907C37.58 11.4742 35.8982 11.9718 34.6012 13.3309L36.7715 15.4021C37.3609 14.7844 38.2089 14.4146 39.9755 14.16L39.5475 11.1907ZM34.6012 13.3309C33.3175 14.6759 32.4966 16.7747 32.0009 20.0483L34.9671 20.4975C35.4319 17.4284 36.1285 16.0758 36.7715 15.4021L34.6012 13.3309ZM32.0009 20.0483C31.4849 23.4562 32.4569 25.8048 33.5318 27.4462L36.0416 25.8027C35.2818 24.6424 34.5838 23.0288 34.9671 20.4975L32.0009 20.0483ZM33.5318 27.4462C33.9441 28.0757 34.3579 28.5837 34.6962 29.0001L37.0248 27.1087C36.6819 26.6865 36.3592 26.2877 36.0416 25.8027L33.5318 27.4462ZM34.6962 29.0001C34.8012 29.1294 34.8966 29.2469 34.9878 29.362L37.3395 27.4993C37.2349 27.3673 37.1276 27.2353 37.0248 27.1087L34.6962 29.0001ZM34.9878 29.362C35.1803 29.6051 35.3107 29.7859 35.3874 29.9284L38.0291 28.5066C37.8164 28.1114 37.5396 27.752 37.3395 27.4993L34.9878 29.362ZM35.3874 29.9284C35.4226 29.9937 35.4387 30.037 35.4453 30.0632C35.4506 30.0841 35.4449 30.0742 35.4496 30.0488L38.3996 30.5937C38.5758 29.6403 38.2262 28.8729 38.0291 28.5066L35.3874 29.9284ZM35.4496 30.0488C35.454 30.0245 35.4542 30.0466 35.4118 30.1204C35.3709 30.1918 35.3143 30.2709 35.238 30.3679L37.596 32.2225C37.7852 31.982 38.2544 31.38 38.3996 30.5937L35.4496 30.0488ZM35.238 30.3679C35.0719 30.579 34.8363 30.8373 34.5378 31.1513L36.7123 33.2181C37.0141 32.9005 37.3354 32.5539 37.596 32.2225L35.238 30.3679ZM34.5378 31.1513C34.397 31.2995 34.2479 31.4542 34.0883 31.6198L36.2486 33.7015C36.4068 33.5373 36.5631 33.375 36.7123 33.2181L34.5378 31.1513ZM34.0883 31.6198C33.5731 32.1545 32.9632 32.787 32.3347 33.5145L34.6047 35.4759C35.1729 34.8182 35.7293 34.2404 36.2486 33.7015L34.0883 31.6198ZM32.3347 33.5145C31.597 34.3682 30.8455 35.3404 30.2051 36.4191L32.7848 37.9506C33.3068 37.0713 33.9402 36.2449 34.6047 35.4759L32.3347 33.5145ZM30.1863 37.918C30.7848 38.9864 31.2734 40.3547 31.462 42.1803L34.4461 41.872C34.2168 39.6525 33.6083 37.8882 32.8036 36.4517L30.1863 37.918ZM31.462 42.1803C31.6221 43.7305 31.2507 45.1071 30.5199 46.2665L33.0578 47.8662C34.1324 46.1613 34.6779 44.1165 34.4461 41.872L31.462 42.1803ZM32.6556 42.057C32.5259 40.8016 32.2616 39.7124 31.8976 38.7564L29.094 39.8239C29.3586 40.5189 29.5667 41.3511 29.6715 42.3652L32.6556 42.057ZM31.9569 46.1464C32.5496 44.9169 32.808 43.5321 32.6556 42.057L29.6715 42.3652C29.7668 43.2879 29.6059 44.1149 29.2545 44.8436L31.9569 46.1464ZM28.556 40.9693C28.301 42.9466 28.5124 44.6834 29.2678 46.1734L31.9436 44.8167C31.5279 43.997 31.3317 42.9011 31.5314 41.3531L28.556 40.9693ZM29.0813 38.7908C28.8376 39.4812 28.6542 40.2084 28.556 40.9693L31.5314 41.3531C31.5998 40.8228 31.7294 40.3017 31.9103 39.7894L29.0813 38.7908ZM29.7462 41.1228C29.8923 39.9898 30.2565 38.9198 30.7538 37.9179L28.0667 36.584C27.4514 37.8235 26.9675 39.2141 26.7708 40.739L29.7462 41.1228ZM30.7194 46.2754C29.8137 44.9489 29.4693 43.269 29.7462 41.1228L26.7708 40.739C26.4261 43.411 26.8187 45.8826 28.2418 47.967L30.7194 46.2754ZM29.6454 49.0074C29.9762 48.7411 30.2873 48.454 30.5751 48.1469L28.3861 46.0955C28.1979 46.2963 27.9903 46.4885 27.764 46.6707L29.6454 49.0074ZM21.8682 51.3624C24.7827 51.5272 27.6075 50.6483 29.6454 49.0074L27.764 46.6707C26.3522 47.8074 24.2739 48.4936 22.0376 48.3671L21.8682 51.3624ZM15.1349 49.2169C16.763 50.5286 19.0227 51.2014 21.8682 51.3624L22.0376 48.3671C19.5252 48.225 17.97 47.6485 17.0171 46.8808L15.1349 49.2169ZM12.2795 43.5089C12.5687 45.981 13.4918 47.8931 15.1349 49.2169L17.0171 46.8808C16.1255 46.1624 15.4802 45.0496 15.2592 43.1603L12.2795 43.5089ZM13.7159 35.9561C12.7947 37.9845 11.9248 40.4772 12.2795 43.5089L15.2592 43.1603C14.9977 40.9257 15.6151 39.0293 16.4474 37.1965L13.7159 35.9561ZM14.3755 34.5686C14.1635 35.0039 13.9375 35.4679 13.7159 35.9561L16.4474 37.1965C16.6498 36.7507 16.8584 36.3221 17.0728 35.8819L14.3755 34.5686ZM14.3734 34.5728L14.3734 34.573L17.0749 35.8775L17.0749 35.8774L14.3734 34.5728ZM14.3993 34.5197L14.3755 34.5685L17.0728 35.8817L17.0966 35.8329L14.3993 34.5197ZM14.9973 33.252C14.8227 33.6483 14.6197 34.067 14.3993 34.5197L17.0966 35.8328C17.3131 35.3883 17.5414 34.9184 17.7428 34.4611L14.9973 33.252ZM15.553 31.2735C15.553 31.8092 15.3515 32.4477 14.9973 33.252L17.7428 34.4611C18.1233 33.597 18.553 32.4725 18.553 31.2735L15.553 31.2735ZM15.0188 30.068C15.3748 30.4556 15.553 30.8043 15.553 31.2735L18.553 31.2735C18.553 29.8136 17.9037 28.774 17.2282 28.0386L15.0188 30.068ZM14.3447 29.4346C14.6103 29.6653 14.834 29.8668 15.0188 30.068L17.2282 28.0386C16.919 27.702 16.5826 27.4048 16.312 27.1697L14.3447 29.4346ZM14.1733 29.2864C14.2314 29.3365 14.2879 29.3853 14.3447 29.4346L16.312 27.1697C16.2515 27.1172 16.1918 27.0656 16.1341 27.0158L14.1733 29.2864ZM14.1719 29.2851L14.172 29.2852L16.1355 27.017L16.1354 27.017L14.1719 29.2851ZM13.4821 28.6725C13.725 28.8994 13.9592 29.1015 14.1732 29.2863L16.1341 27.0158C15.9146 26.8262 15.7235 26.661 15.5297 26.48L13.4821 28.6725ZM10.5731 22.3707C10.7301 24.0385 11.1277 25.3283 11.6772 26.3664C12.2276 27.4063 12.8935 28.1229 13.4821 28.6725L15.5297 26.48C15.0806 26.0606 14.668 25.604 14.3287 24.963C13.9885 24.3202 13.6853 23.4215 13.5599 22.0895L10.5731 22.3707ZM11.9469 15.0314C10.8585 16.6798 10.2574 19.017 10.5731 22.3707L13.5599 22.0895C13.2901 19.2227 13.8338 17.6182 14.4504 16.6845L11.9469 15.0314ZM15.9336 11.9618C14.5558 12.5032 13.0336 13.3858 11.9469 15.0314L14.4504 16.6845C15.0744 15.7394 15.9793 15.1671 17.0308 14.7539L15.9336 11.9618ZM16.7271 11.4861C16.568 11.6387 16.3305 11.8058 15.9336 11.9618L17.0308 14.7539C17.7449 14.4733 18.3277 14.1076 18.8033 13.6516L16.7271 11.4861ZM17.1124 10.9711C16.9944 11.1679 16.8894 11.3305 16.7271 11.4861L18.8033 13.6516C19.268 13.2061 19.5404 12.7555 19.6855 12.5135L17.1124 10.9711ZM17.6052 10.2896C17.3689 10.5206 17.209 10.8099 17.1124 10.9711L19.6855 12.5135C19.7224 12.452 19.7494 12.407 19.7713 12.3712C19.7936 12.3348 19.8044 12.318 19.8089 12.3112C19.8129 12.305 19.8036 12.3197 19.784 12.3444C19.7738 12.3573 19.7613 12.3722 19.7468 12.3885C19.7321 12.4048 19.7173 12.4202 19.7029 12.4343L17.6052 10.2896ZM18.4388 9.81485C18.0634 9.92537 17.8016 10.0974 17.6052 10.2896L19.7029 12.4343C19.6927 12.4442 19.6613 12.4747 19.6173 12.5099C19.5733 12.5452 19.5272 12.5771 19.4801 12.605C19.3869 12.66 19.3146 12.6843 19.2859 12.6928L18.4388 9.81485ZM26.8245 13.1653C25.07 11.0982 22.4236 9.78311 18.8748 9.75386L18.85 12.7538C21.6068 12.7765 23.3971 13.7632 24.5374 15.1066L26.8245 13.1653ZM29.4069 20.8945C29.4069 18.0263 28.5878 15.2426 26.8245 13.1653L24.5374 15.1066C25.7392 16.5225 26.4069 18.5636 26.4069 20.8945L29.4069 20.8945ZM27.7124 27.411C28.5489 25.8022 29.4069 23.7891 29.4069 20.8945L26.4069 20.8945C26.4069 23.1191 25.772 24.6398 25.0507 26.0271L27.7124 27.411ZM27.3067 28.1712C27.4399 27.9247 27.5798 27.666 27.7124 27.411L25.0507 26.0271C24.9312 26.2568 24.8031 26.4938 24.6677 26.7444L27.3067 28.1712ZM27.3073 28.17L27.3075 28.1697L24.6669 26.7459L24.6667 26.7462L27.3073 28.17ZM26.6076 29.5293C26.7926 29.1235 27.0343 28.675 27.3065 28.1715L24.6675 26.7447C24.4071 27.2264 24.1131 27.7687 23.8778 28.285L26.6076 29.5293ZM26.1533 31.2735C26.1533 30.7151 26.3194 30.1615 26.6076 29.5293L23.8778 28.285C23.5056 29.1016 23.1533 30.1057 23.1533 31.2735L26.1533 31.2735ZM26.8876 32.6366C26.3744 32.1164 26.1533 31.7144 26.1533 31.2735L23.1533 31.2735C23.1533 32.9084 24.0562 34.0383 24.7521 34.7436L26.8876 32.6366ZM27.798 33.4622C27.4469 33.1603 27.1425 32.8949 26.8876 32.6366L24.7521 34.7436C25.1058 35.1021 25.5005 35.4433 25.842 35.7369L27.798 33.4622ZM27.8939 33.5447L27.7976 33.4619L25.8424 35.7372L25.9387 35.82L27.8939 33.5447ZM28.9246 34.4573C28.5654 34.1212 28.214 33.8196 27.8938 33.5445L25.9389 35.8201C26.2651 36.1003 26.5693 36.362 26.8749 36.6479L28.9246 34.4573ZM30.634 36.3835C30.0822 35.605 29.4837 34.9804 28.9246 34.4573L26.8749 36.6479C27.3434 37.0863 27.7895 37.5583 28.1865 38.1184L30.634 36.3835ZM35.7402 28.7602C35.9392 28.8443 36.0753 28.9527 36.1455 29.0143C36.2221 29.0816 36.2773 29.1439 36.311 29.1846C36.3769 29.2641 36.4201 29.3333 36.4397 29.3657C36.4812 29.4344 36.5078 29.4913 36.5172 29.5115C36.5397 29.56 36.5545 29.5991 36.5595 29.6125C36.5724 29.6466 36.5812 29.6739 36.5854 29.687L33.7257 30.5937C33.7301 30.6077 33.7391 30.6356 33.7522 30.6702C33.7573 30.6838 33.7722 30.7231 33.7947 30.7717C33.8041 30.792 33.8308 30.8489 33.8723 30.9177C33.8919 30.9501 33.9351 31.0193 34.0011 31.0988C34.0308 31.1347 34.2224 31.3755 34.5718 31.5233L35.7402 28.7602ZM33.7417 30.6408C33.7366 30.6264 33.7282 30.6023 33.719 30.5716C33.7156 30.5602 33.7056 30.5267 33.6954 30.4831C33.6927 30.4717 33.677 30.4059 33.6667 30.3206C33.665 30.306 33.6432 30.1498 33.6677 29.9546C33.6747 29.8994 33.7121 29.5503 33.9782 29.2129C34.1403 29.0074 34.4083 28.7822 34.7932 28.6863C35.1684 28.5927 35.4916 28.6627 35.7 28.7438L34.612 31.5396C34.8205 31.6207 35.1436 31.6907 35.5189 31.5972C35.9038 31.5012 36.1718 31.2761 36.3339 31.0705C36.5999 30.7331 36.6374 30.384 36.6443 30.3288C36.6689 30.1336 36.6471 29.9774 36.6453 29.9627C36.6351 29.8773 36.6193 29.8114 36.6166 29.7998C36.6063 29.7558 36.5962 29.7218 36.5925 29.7096C36.5828 29.6773 36.5737 29.6508 36.5674 29.6332L33.7417 30.6408ZM36.5854 29.687C36.5935 29.7128 36.5999 29.7353 36.6047 29.7534L33.7045 30.5207C33.71 30.5417 33.717 30.5663 33.7257 30.5937L36.5854 29.687Z" fill="#F8F9FA" mask="url(#path-1-outside-1_50_9836)"/>
<path d="M28.8323 20.8273C28.8323 15.3062 25.6775 10.2862 18.7786 10.2861C17.4013 10.5903 18.0196 11.7295 16.1785 12.453C13.5538 13.4843 10.583 15.7351 11.1959 22.2472C11.8088 28.7593 16.1785 28.5342 16.1785 31.2062C16.1785 33.8782 12.2287 37.6275 12.9009 43.3719C13.452 48.0822 16.3701 50.3817 21.9275 50.6961C27.485 51.0104 32.6299 47.3347 32.0842 42.0514C31.3073 34.5292 25.5787 33.9269 25.5787 31.2062C25.5787 28.4856 28.8323 26.3484 28.8323 20.8273Z" fill="#FFC078" stroke="#212529" stroke-width="1.8" stroke-linecap="round" stroke-linejoin="round"/>
<g style="mix-blend-mode:multiply">
<path fill-rule="evenodd" clip-rule="evenodd" d="M18.6126 9.95898C25.5115 9.95901 28.6664 14.979 28.6664 20.5002C28.6664 23.7441 27.5432 25.8199 26.6166 27.5322C25.9662 28.7341 25.4127 29.757 25.4127 30.8791C25.4127 31.9306 26.2685 32.6657 27.3634 33.6062C29.1013 35.099 31.4416 37.1094 31.9183 41.7242C32.3648 46.047 29.0017 49.2936 24.72 50.1591C28.0321 48.8283 30.3687 45.9466 29.9919 42.2984C29.5152 37.6835 27.1749 35.6732 25.437 34.1803C24.3421 33.2399 23.4863 32.5048 23.4863 31.4533C23.4863 30.3311 24.0398 29.3083 24.6902 28.1063C25.6168 26.394 26.74 24.3183 26.74 21.0743C26.74 15.8262 23.8894 11.0309 17.6824 10.5694C17.8705 10.2947 18.1072 10.0706 18.6126 9.95898Z" fill="#FFD8A8"/>
</g>
<path d="M16.4291 42.6074C16.3755 43.2568 16.4451 44.7736 17.1513 45.6463" stroke="#212529" stroke-width="1.6" stroke-linecap="round" stroke-linejoin="round"/>
<path d="M14.9828 18.9785C14.7275 19.7739 14.3736 21.6852 15.0011 22.9673" stroke="#212529" stroke-width="1.6" stroke-linecap="round" stroke-linejoin="round"/>
<path d="M27.116 39.0693C27.7076 39.9027 28.8279 41.9965 28.5758 43.7036" stroke="#212529" stroke-width="1.6" stroke-linecap="round" stroke-linejoin="round"/>
<path d="M22.7392 14.4737C23.1534 14.8176 24.0092 15.7293 24.1181 16.6247" stroke="#212529" stroke-width="1.6" stroke-linecap="round" stroke-linejoin="round"/>
<path d="M19.9598 34.874C19.9278 35.7729 20.0364 37.8683 20.726 39.0586" stroke="#212529" stroke-width="1.6" stroke-linecap="round" stroke-linejoin="round"/>
<path d="M19.5743 24.1309C19.5423 25.0298 19.6509 27.1252 20.3405 28.3155" stroke="#212529" stroke-width="1.6" stroke-linecap="round" stroke-linejoin="round"/>
<path d="M49.586 22.7865C50.5283 16.8013 49.1319 11.8187 42.6279 10.2173C41.2567 10.1929 41.5673 11.4427 39.6586 11.7178C35.8038 12.2734 33.5987 13.6059 32.6197 20.0714C31.6406 26.537 36.2893 28.8775 36.0651 30.091C35.8409 31.3045 29.9163 35.2454 29.1766 40.9793C28.5701 45.6809 30.7714 48.5911 35.9355 50.1864C41.0997 51.7816 46.8289 49.4067 47.5776 44.15C49.586 35.3548 43.8711 32.0865 43.997 30.9123C44.1228 29.738 48.5983 29.0603 49.586 22.7865Z" fill="#FFC078" stroke="#212529" stroke-width="1.8" stroke-linecap="round" stroke-linejoin="round"/>
<path d="M46.1356 20.5825C46.4714 16.7926 44.3125 14.5377 41.4821 14.5857C38.6516 14.6337 36.6846 16.7446 36.3968 20.9183C36.1089 25.092 38.8218 27.7775 40.4475 28.1648C42.0732 28.552 45.8031 24.3346 46.1356 20.5825Z" fill="#FFE8CC" stroke="#212529" stroke-width="1.4" stroke-linecap="round" stroke-linejoin="round"/>
<g style="mix-blend-mode:multiply" opacity="0.7">
<path fill-rule="evenodd" clip-rule="evenodd" d="M40.7078 14.6539C43.0713 15.0575 44.7442 17.2134 44.4456 20.5825C44.1748 23.6393 41.649 27.0049 39.8431 27.9379C40.055 28.0437 40.2586 28.1197 40.4475 28.1648C42.0732 28.552 45.8031 24.3346 46.1356 20.5825C46.4714 16.7926 44.3126 14.5377 41.4821 14.5857C41.2161 14.5902 40.9578 14.6129 40.7078 14.6539Z" fill="#FFD8A8"/>
</g>
<path d="M33.4514 40.4494C33.0643 44.3938 35.5468 46.7406 38.8095 46.6906C42.0723 46.6407 44.1231 44.7933 44.4549 40.4494C44.7867 36.1055 41.7688 32.7501 39.7743 32.7501C37.7798 32.7501 33.8346 36.5444 33.4514 40.4494Z" fill="#FFE8CC" stroke="#212529" stroke-width="1.4" stroke-linecap="round" stroke-linejoin="round"/>
<g style="mix-blend-mode:multiply" opacity="0.7">
<path fill-rule="evenodd" clip-rule="evenodd" d="M37.9044 46.6408C40.71 46.3177 42.4606 44.4337 42.7649 40.4493C43.0522 36.6885 40.8287 33.6687 38.9323 32.9257C39.2368 32.8111 39.5212 32.75 39.7743 32.75C41.7687 32.75 44.7867 36.1054 44.4549 40.4493C44.123 44.7932 42.0722 46.6406 38.8095 46.6905C38.5002 46.6953 38.1979 46.6785 37.9044 46.6408Z" fill="#FFD8A8"/>
</g>
</svg>
