<svg width="60" height="60" viewBox="0 0 60 60" fill="none" xmlns="http://www.w3.org/2000/svg">
<mask id="path-1-outside-1_50_11742" maskUnits="userSpaceOnUse" x="9.46765" y="11.6904" width="44" height="39" fill="black">
<rect fill="white" x="9.46765" y="11.6904" width="44" height="39"/>
<path fill-rule="evenodd" clip-rule="evenodd" d="M27.5054 16.541C31.3062 12.7402 37.4685 12.7402 41.2693 16.541C44.4861 19.7579 44.9804 24.6663 42.752 28.403C47.6231 29.2654 51.3227 33.52 51.3227 38.6387C51.3227 44.3799 46.6685 49.034 40.9274 49.034C35.9323 49.034 31.7601 45.511 30.76 40.8142L28.0822 43.492C24.2814 47.2928 18.1191 47.2928 14.3183 43.492C10.5175 39.6912 10.5175 33.5289 14.3183 29.7281L27.5054 16.541Z"/>
</mask>
<path fill-rule="evenodd" clip-rule="evenodd" d="M27.5054 16.541C31.3062 12.7402 37.4685 12.7402 41.2693 16.541C44.4861 19.7579 44.9804 24.6663 42.752 28.403C47.6231 29.2654 51.3227 33.52 51.3227 38.6387C51.3227 44.3799 46.6685 49.034 40.9274 49.034C35.9323 49.034 31.7601 45.511 30.76 40.8142L28.0822 43.492C24.2814 47.2928 18.1191 47.2928 14.3183 43.492C10.5175 39.6912 10.5175 33.5289 14.3183 29.7281L27.5054 16.541Z" fill="#F8F9FA"/>
<path d="M41.2693 16.541L42.3299 15.4804L42.3299 15.4804L41.2693 16.541ZM27.5053 16.541L26.4447 15.4804L26.4447 15.4804L27.5053 16.541ZM42.752 28.403L41.4637 27.6347C41.2112 28.0581 41.1828 28.5785 41.3878 29.0268C41.5928 29.4751 42.005 29.7941 42.4904 29.88L42.752 28.403ZM30.76 40.8142L32.2271 40.5018C32.1126 39.964 31.713 39.532 31.1858 39.3759C30.6585 39.2198 30.0882 39.3647 29.6994 39.7536L30.76 40.8142ZM28.0822 43.492L29.1428 44.5527L29.1428 44.5527L28.0822 43.492ZM14.3183 43.492L13.2576 44.5527L13.2576 44.5527L14.3183 43.492ZM14.3183 29.7281L13.2576 28.6674L13.2576 28.6674L14.3183 29.7281ZM42.3299 15.4804C37.9433 11.0938 30.8313 11.0938 26.4447 15.4804L28.566 17.6017C31.781 14.3867 36.9936 14.3867 40.2086 17.6017L42.3299 15.4804ZM44.0403 29.1713C46.612 24.859 46.044 19.1945 42.3299 15.4804L40.2086 17.6017C42.9282 20.3213 43.3487 24.4738 41.4637 27.6347L44.0403 29.1713ZM52.8226 38.6387C52.8226 32.7799 48.5885 27.9131 43.0135 26.926L42.4904 29.88C46.6577 30.6179 49.8226 34.2602 49.8226 38.6387H52.8226ZM40.9273 50.534C47.4969 50.534 52.8226 45.2083 52.8226 38.6387H49.8226C49.8226 43.5515 45.8401 47.534 40.9273 47.534V50.534ZM29.2929 41.1266C30.4374 46.5016 35.2097 50.534 40.9273 50.534V47.534C36.6549 47.534 33.0828 44.5204 32.2271 40.5018L29.2929 41.1266ZM29.1428 44.5527L31.8207 41.8749L29.6994 39.7536L27.0215 42.4314L29.1428 44.5527ZM13.2576 44.5527C17.6442 48.9393 24.7562 48.9393 29.1428 44.5527L27.0215 42.4314C23.8065 45.6464 18.5939 45.6464 15.3789 42.4314L13.2576 44.5527ZM13.2576 28.6674C8.871 33.054 8.871 40.1661 13.2576 44.5527L15.3789 42.4314C12.1639 39.2164 12.1639 34.0038 15.3789 30.7888L13.2576 28.6674ZM26.4447 15.4804L13.2576 28.6674L15.3789 30.7888L28.566 17.6017L26.4447 15.4804Z" fill="#F8F9FA" mask="url(#path-1-outside-1_50_11742)"/>
<rect x="34.3384" y="10.9326" width="17.6409" height="36.2902" rx="8.82045" transform="rotate(45 34.3384 10.9326)" fill="#F8F9FA" stroke="#212529" stroke-width="2" stroke-linejoin="round"/>
<path d="M21.6846 24.7832L15.5205 30.9473C12.4104 34.0574 12.4104 39.0998 15.5205 42.2098C18.6306 45.3199 23.673 45.3199 26.783 42.2098L32.9471 36.0458L21.6846 24.7832Z" fill="#FF6B6B"/>
<g style="mix-blend-mode:soft-light" opacity="0.5">
<path fill-rule="evenodd" clip-rule="evenodd" d="M15.5053 31.0201L21.8252 24.7002L32.7761 35.6511L32.4946 35.9326L22.6477 26.0857L15.9275 32.8059C14.1906 34.5429 13.4513 36.8998 13.7097 39.1644C12.7046 36.4207 13.3032 33.2222 15.5053 31.0201Z" fill="white"/>
</g>
<g style="mix-blend-mode:multiply">
<path fill-rule="evenodd" clip-rule="evenodd" d="M31.6821 34.6154L25.2896 41.008C22.4676 43.8299 18.0094 44.0185 14.9688 41.5735C15.1706 41.8351 15.3914 42.0867 15.6312 42.3265C18.6552 45.3505 23.558 45.3505 26.582 42.3265L32.9877 35.9209L31.6821 34.6154Z" fill="#FF6B6B" fill-opacity="0.6"/>
</g>
<path d="M21.4028 24.0244L33.6757 36.2972" stroke="#212529" stroke-width="2"/>
<circle cx="40.8783" cy="38.6219" r="9.4832" fill="#FFE066" stroke="#212529" stroke-width="2" stroke-linejoin="round"/>
<g style="mix-blend-mode:multiply">
<path fill-rule="evenodd" clip-rule="evenodd" d="M40.0994 45.8374C44.6667 45.8374 48.3693 42.1348 48.3693 37.5675C48.3693 36.228 48.0508 34.9629 47.4855 33.8438C48.6313 35.263 49.3173 37.0688 49.3173 39.0349C49.3173 43.6022 45.6148 47.3047 41.0475 47.3047C37.8196 47.3047 35.0237 45.4555 33.6614 42.7586C35.1774 44.6363 37.4981 45.8374 40.0994 45.8374Z" fill="#FFE066"/>
</g>
<g style="mix-blend-mode:soft-light" opacity="0.5">
<path fill-rule="evenodd" clip-rule="evenodd" d="M39.9944 31.7082C35.5827 32.8903 32.9646 37.425 34.1467 41.8367C34.4934 43.1306 35.1284 44.2702 35.9642 45.2049C34.4901 44.1305 33.36 42.5638 32.8511 40.6647C31.669 36.253 34.2871 31.7183 38.6988 30.5362C41.8166 29.7008 44.9959 30.7634 47.0098 33.0157C45.0594 31.5944 42.507 31.035 39.9944 31.7082Z" fill="white"/>
</g>
<path opacity="0.1" d="M44.671 35.0039L37.3309 42.2445" stroke="#212529" stroke-width="2" stroke-linecap="round" stroke-linejoin="round"/>
</svg>
