<svg width="60" height="60" viewBox="0 0 60 60" fill="none" xmlns="http://www.w3.org/2000/svg">
<mask id="path-1-outside-1_50_11125" maskUnits="userSpaceOnUse" x="14.7657" y="4.64551" width="31" height="50" fill="black">
<rect fill="white" x="14.7657" y="4.64551" width="31" height="50"/>
<path fill-rule="evenodd" clip-rule="evenodd" d="M19.9563 8.43229C22.9924 5.79308 27.5931 6.11479 30.2323 9.15086C31.1808 10.2419 31.7479 11.5377 31.9425 12.8714C32.0888 13.8735 32.025 14.8969 31.7559 15.8724C31.6195 16.3668 31.1081 16.6571 30.6137 16.5207C30.1192 16.3843 29.829 15.8729 29.9654 15.3785C30.1661 14.6508 30.2138 13.887 30.1047 13.1397C29.9598 12.1474 29.5388 11.1841 28.8306 10.3694C26.8643 8.10748 23.4368 7.8678 21.1749 9.83404C20.1812 10.6979 19.5786 11.8414 19.3807 13.0462C19.2582 13.791 19.2908 14.5582 19.4815 15.2947C19.61 15.7912 19.3117 16.2979 18.8152 16.4264C18.3187 16.555 17.812 16.2567 17.6834 15.7601C17.4273 14.7708 17.384 13.7425 17.5479 12.745C17.8135 11.1288 18.624 9.59051 19.9563 8.43229ZM24.5734 45.2181C24.7111 45.1339 24.8715 45.0906 25.0354 45.0957L38.7221 45.5215C39.5838 44.9633 40.2308 44.1567 40.5807 42.9769C41.98 38.2583 42.0922 32.6676 42.0635 30.2272C42.0566 30.1838 42.053 30.1393 42.053 30.0939V29.7275L39.153 29.5026V29.6616L39.153 29.6697V29.7419C39.153 30.2035 38.7788 30.5777 38.3172 30.5777C37.8556 30.5777 37.4814 30.2035 37.4814 29.7419V29.373L33.8435 29.0909V29.5865C33.8435 29.5885 33.8435 29.5905 33.8435 29.5925V29.7419C33.8435 30.2035 33.4693 30.5777 33.0077 30.5777C32.5461 30.5777 32.1719 30.2035 32.1719 29.7419V28.9612L28.5341 28.6791V29.5865C28.5341 29.6275 28.5311 29.6677 28.5254 29.7071L28.5339 30.2569C28.5411 30.7185 28.1728 31.0984 27.7112 31.1056C27.2497 31.1127 26.8697 30.7444 26.8625 30.2828L26.8356 28.5474L22.8389 28.2374L22.7889 33.5603C22.7845 34.0218 22.4068 34.3925 21.9452 34.3882C21.4837 34.3838 21.113 34.0061 21.1173 33.5445L21.1652 28.4527C20.3753 29.0846 19.7435 29.9146 19.311 30.5621C18.4307 31.8801 18.2944 33.4292 18.5552 35.0156C18.817 36.6078 19.4668 38.157 20.0581 39.3842C21.1222 41.5924 22.7318 43.659 24.5734 45.2181ZM28.408 22.1384L28.2813 13.9697C28.2517 12.0634 26.6979 10.5335 24.7914 10.5335C22.8765 10.5335 21.3192 12.0763 21.3012 13.9911L21.1837 26.4852C21.0894 26.5089 20.9976 26.5462 20.9113 26.5975C19.5062 27.4331 18.4917 28.7791 17.9209 29.6337C16.725 31.4242 16.6039 33.4504 16.9058 35.2868C17.2067 37.1175 17.9396 38.8385 18.5522 40.1098C19.8109 42.722 21.7571 45.1435 23.9862 46.8962C24.0475 46.9444 24.11 46.9911 24.1737 47.0363V49.2401C24.1737 50.3974 24.9288 51.4761 26.1375 51.7352C27.3424 51.9936 29.2848 52.3084 31.7645 52.3617C34.451 52.4195 36.629 51.9603 37.9077 51.5988C39.0308 51.2812 39.6887 50.2464 39.6887 49.1693V46.8854C40.811 46.1421 41.7101 45.0476 42.1833 43.4521C43.7794 38.0698 43.7751 31.694 43.7246 29.6139V27.609C43.7246 25.885 42.327 24.4874 40.603 24.4874C39.9937 24.4874 39.4253 24.6619 38.9448 24.9637C38.4582 23.6219 37.1723 22.6633 35.6624 22.6633C34.8275 22.6633 34.061 22.9564 33.4603 23.4455C32.8816 22.3181 31.7074 21.5467 30.353 21.5467C29.6329 21.5467 28.9638 21.7647 28.408 22.1384ZM28.5341 27.0025L32.1719 27.2846V26.1538C32.1719 26.1495 32.1719 26.1453 32.1719 26.141V25.0372C32.1719 24.0327 31.3576 23.2183 30.353 23.2183C29.3484 23.2183 28.5341 24.0327 28.5341 25.0372V27.0025ZM33.8435 27.4142V26.145C33.8483 25.1445 34.6608 24.3349 35.6624 24.3349C36.667 24.3349 37.4814 25.1492 37.4814 26.1538V27.6964L33.8435 27.4142ZM26.6099 13.9957L26.8096 26.8687L22.8547 26.562L22.9728 14.0068C22.9821 13.009 23.7936 12.2052 24.7914 12.2052C25.7848 12.2052 26.5945 13.0023 26.6099 13.9957ZM42.053 28.0509V27.609C42.053 26.8082 41.4038 26.159 40.603 26.159C39.8022 26.159 39.153 26.8082 39.153 27.609V27.826L42.053 28.0509ZM25.8453 47.8431V49.2401C25.8453 49.6894 26.1257 50.0231 26.488 50.1008C27.6061 50.3406 29.4424 50.6398 31.8004 50.6905C34.2815 50.7439 36.2904 50.3189 37.4529 49.9902C37.7714 49.9001 38.0171 49.5903 38.0171 49.1693V47.7033C37.9415 47.7299 37.8655 47.7555 37.789 47.7802C35.8673 48.4004 33.6299 48.4449 31.6937 48.4449C29.9225 48.4449 28.4133 48.3749 27.1558 48.1559C26.6926 48.0753 26.2552 47.9731 25.8453 47.8431Z"/>
</mask>
<path fill-rule="evenodd" clip-rule="evenodd" d="M19.9563 8.43229C22.9924 5.79308 27.5931 6.11479 30.2323 9.15086C31.1808 10.2419 31.7479 11.5377 31.9425 12.8714C32.0888 13.8735 32.025 14.8969 31.7559 15.8724C31.6195 16.3668 31.1081 16.6571 30.6137 16.5207C30.1192 16.3843 29.829 15.8729 29.9654 15.3785C30.1661 14.6508 30.2138 13.887 30.1047 13.1397C29.9598 12.1474 29.5388 11.1841 28.8306 10.3694C26.8643 8.10748 23.4368 7.8678 21.1749 9.83404C20.1812 10.6979 19.5786 11.8414 19.3807 13.0462C19.2582 13.791 19.2908 14.5582 19.4815 15.2947C19.61 15.7912 19.3117 16.2979 18.8152 16.4264C18.3187 16.555 17.812 16.2567 17.6834 15.7601C17.4273 14.7708 17.384 13.7425 17.5479 12.745C17.8135 11.1288 18.624 9.59051 19.9563 8.43229ZM24.5734 45.2181C24.7111 45.1339 24.8715 45.0906 25.0354 45.0957L38.7221 45.5215C39.5838 44.9633 40.2308 44.1567 40.5807 42.9769C41.98 38.2583 42.0922 32.6676 42.0635 30.2272C42.0566 30.1838 42.053 30.1393 42.053 30.0939V29.7275L39.153 29.5026V29.6616L39.153 29.6697V29.7419C39.153 30.2035 38.7788 30.5777 38.3172 30.5777C37.8556 30.5777 37.4814 30.2035 37.4814 29.7419V29.373L33.8435 29.0909V29.5865C33.8435 29.5885 33.8435 29.5905 33.8435 29.5925V29.7419C33.8435 30.2035 33.4693 30.5777 33.0077 30.5777C32.5461 30.5777 32.1719 30.2035 32.1719 29.7419V28.9612L28.5341 28.6791V29.5865C28.5341 29.6275 28.5311 29.6677 28.5254 29.7071L28.5339 30.2569C28.5411 30.7185 28.1728 31.0984 27.7112 31.1056C27.2497 31.1127 26.8697 30.7444 26.8625 30.2828L26.8356 28.5474L22.8389 28.2374L22.7889 33.5603C22.7845 34.0218 22.4068 34.3925 21.9452 34.3882C21.4837 34.3838 21.113 34.0061 21.1173 33.5445L21.1652 28.4527C20.3753 29.0846 19.7435 29.9146 19.311 30.5621C18.4307 31.8801 18.2944 33.4292 18.5552 35.0156C18.817 36.6078 19.4668 38.157 20.0581 39.3842C21.1222 41.5924 22.7318 43.659 24.5734 45.2181ZM28.408 22.1384L28.2813 13.9697C28.2517 12.0634 26.6979 10.5335 24.7914 10.5335C22.8765 10.5335 21.3192 12.0763 21.3012 13.9911L21.1837 26.4852C21.0894 26.5089 20.9976 26.5462 20.9113 26.5975C19.5062 27.4331 18.4917 28.7791 17.9209 29.6337C16.725 31.4242 16.6039 33.4504 16.9058 35.2868C17.2067 37.1175 17.9396 38.8385 18.5522 40.1098C19.8109 42.722 21.7571 45.1435 23.9862 46.8962C24.0475 46.9444 24.11 46.9911 24.1737 47.0363V49.2401C24.1737 50.3974 24.9288 51.4761 26.1375 51.7352C27.3424 51.9936 29.2848 52.3084 31.7645 52.3617C34.451 52.4195 36.629 51.9603 37.9077 51.5988C39.0308 51.2812 39.6887 50.2464 39.6887 49.1693V46.8854C40.811 46.1421 41.7101 45.0476 42.1833 43.4521C43.7794 38.0698 43.7751 31.694 43.7246 29.6139V27.609C43.7246 25.885 42.327 24.4874 40.603 24.4874C39.9937 24.4874 39.4253 24.6619 38.9448 24.9637C38.4582 23.6219 37.1723 22.6633 35.6624 22.6633C34.8275 22.6633 34.061 22.9564 33.4603 23.4455C32.8816 22.3181 31.7074 21.5467 30.353 21.5467C29.6329 21.5467 28.9638 21.7647 28.408 22.1384ZM28.5341 27.0025L32.1719 27.2846V26.1538C32.1719 26.1495 32.1719 26.1453 32.1719 26.141V25.0372C32.1719 24.0327 31.3576 23.2183 30.353 23.2183C29.3484 23.2183 28.5341 24.0327 28.5341 25.0372V27.0025ZM33.8435 27.4142V26.145C33.8483 25.1445 34.6608 24.3349 35.6624 24.3349C36.667 24.3349 37.4814 25.1492 37.4814 26.1538V27.6964L33.8435 27.4142ZM26.6099 13.9957L26.8096 26.8687L22.8547 26.562L22.9728 14.0068C22.9821 13.009 23.7936 12.2052 24.7914 12.2052C25.7848 12.2052 26.5945 13.0023 26.6099 13.9957ZM42.053 28.0509V27.609C42.053 26.8082 41.4038 26.159 40.603 26.159C39.8022 26.159 39.153 26.8082 39.153 27.609V27.826L42.053 28.0509ZM25.8453 47.8431V49.2401C25.8453 49.6894 26.1257 50.0231 26.488 50.1008C27.6061 50.3406 29.4424 50.6398 31.8004 50.6905C34.2815 50.7439 36.2904 50.3189 37.4529 49.9902C37.7714 49.9001 38.0171 49.5903 38.0171 49.1693V47.7033C37.9415 47.7299 37.8655 47.7555 37.789 47.7802C35.8673 48.4004 33.6299 48.4449 31.6937 48.4449C29.9225 48.4449 28.4133 48.3749 27.1558 48.1559C26.6926 48.0753 26.2552 47.9731 25.8453 47.8431Z" fill="#F8F9FA"/>
<path d="M30.2323 9.15087L29.1003 10.135L29.1003 10.135L30.2323 9.15087ZM19.9563 8.4323L20.9404 9.56437L20.9404 9.56437L19.9563 8.4323ZM31.9425 12.8714L30.4583 13.0881L30.4583 13.0881L31.9425 12.8714ZM31.7558 15.8724L33.2018 16.2713L33.2018 16.2713L31.7558 15.8724ZM30.6137 16.5207L30.2148 17.9667L30.2148 17.9667L30.6137 16.5207ZM29.9654 15.3785L28.5194 14.9796L28.5194 14.9796L29.9654 15.3785ZM30.1047 13.1397L31.589 12.9231L31.589 12.9231L30.1047 13.1397ZM28.8306 10.3694L29.9626 9.38531L29.9626 9.38531L28.8306 10.3694ZM21.1749 9.83406L22.159 10.9661L22.159 10.9661L21.1749 9.83406ZM19.3806 13.0462L17.9005 12.8029L17.9005 12.8029L19.3806 13.0462ZM19.4815 15.2947L18.0294 15.6706L18.0294 15.6706L19.4815 15.2947ZM18.8152 16.4265L18.4393 14.9743L18.4393 14.9743L18.8152 16.4265ZM17.6834 15.7602L16.2313 16.1361L16.2313 16.1361L17.6834 15.7602ZM17.5479 12.745L16.0677 12.5018L16.0677 12.5018L17.5479 12.745ZM25.0354 45.0957L25.0821 43.5965L25.0821 43.5965L25.0354 45.0957ZM24.5734 45.2181L23.6042 46.3629C24.0979 46.7809 24.804 46.8353 25.356 46.4978L24.5734 45.2181ZM38.7221 45.5215L38.6755 47.0208C38.9806 47.0303 39.2815 46.9464 39.5377 46.7804L38.7221 45.5215ZM40.5807 42.9769L39.1426 42.5504L39.1426 42.5504L40.5807 42.9769ZM42.0635 30.2272L43.5634 30.2096C43.5626 30.136 43.5563 30.0625 43.5446 29.9898L42.0635 30.2272ZM42.053 29.7276H43.553C43.553 28.9441 42.95 28.2926 42.1689 28.232L42.053 29.7276ZM39.153 29.5026L39.269 28.0071C38.8523 27.9748 38.4409 28.1178 38.1342 28.4017C37.8274 28.6856 37.653 29.0847 37.653 29.5026H39.153ZM39.153 29.6617L40.653 29.6687V29.6617H39.153ZM39.153 29.6697L37.653 29.6626V29.6697H39.153ZM37.4814 29.373H38.9814C38.9814 28.5896 38.3784 27.9381 37.5973 27.8775L37.4814 29.373ZM33.8435 29.0909L33.9595 27.5954C33.5428 27.563 33.1315 27.7061 32.8247 27.99C32.5179 28.2739 32.3435 28.6729 32.3435 29.0909H33.8435ZM33.8435 29.5925L32.3435 29.5825V29.5925H33.8435ZM32.1719 28.9612H33.6719C33.6719 28.1778 33.069 27.5263 32.2879 27.4657L32.1719 28.9612ZM28.5341 28.6791L28.65 27.1836C28.2333 27.1513 27.822 27.2943 27.5152 27.5782C27.2085 27.8621 27.0341 28.2611 27.0341 28.6791H28.5341ZM28.5254 29.7071L27.0408 29.4926C27.0295 29.5714 27.0244 29.6509 27.0256 29.7304L28.5254 29.7071ZM28.5339 30.2569L27.0341 30.2802L27.0341 30.2802L28.5339 30.2569ZM27.7112 31.1056L27.6879 29.6058L27.6879 29.6058L27.7112 31.1056ZM26.8625 30.2829L28.3624 30.2596L28.3624 30.2596L26.8625 30.2829ZM26.8356 28.5474L28.3354 28.5241C28.3234 27.7497 27.7238 27.1118 26.9516 27.0519L26.8356 28.5474ZM22.8389 28.2374L22.9549 26.7419C22.5406 26.7098 22.1316 26.8509 21.8253 27.1317C21.519 27.4125 21.3429 27.8078 21.339 28.2233L22.8389 28.2374ZM22.7889 33.5603L21.2889 33.5462L21.2889 33.5462L22.7889 33.5603ZM21.1173 33.5446L19.6174 33.5304L19.6174 33.5304L21.1173 33.5446ZM21.1652 28.4527L22.6652 28.4668C22.6706 27.8877 22.3422 27.3572 21.8214 27.1038C21.3006 26.8505 20.6804 26.9196 20.2282 27.2814L21.1652 28.4527ZM19.311 30.5622L18.0636 29.729L18.0636 29.729L19.311 30.5622ZM18.5552 35.0156L20.0354 34.7723L20.0354 34.7723L18.5552 35.0156ZM20.0581 39.3842L21.4094 38.7331L21.4094 38.7331L20.0581 39.3842ZM28.408 22.1384L26.9082 22.1616C26.9167 22.7116 27.2256 23.2128 27.7131 23.4677C28.2005 23.7225 28.7884 23.6901 29.2449 23.3832L28.408 22.1384ZM28.2813 13.9698L26.7815 13.993L26.7815 13.993L28.2813 13.9698ZM21.3012 13.9911L22.8011 14.0052L22.8011 14.0052L21.3012 13.9911ZM21.1837 26.4853L21.548 27.9403C22.2104 27.7745 22.6772 27.1822 22.6837 26.4994L21.1837 26.4853ZM20.9113 26.5975L21.678 27.8868L21.678 27.8868L20.9113 26.5975ZM17.9209 29.6337L19.1683 30.4669L19.1683 30.4668L17.9209 29.6337ZM16.9058 35.2868L15.4256 35.5301L15.4256 35.5301L16.9058 35.2868ZM18.5522 40.1098L17.2009 40.761L17.2009 40.761L18.5522 40.1098ZM23.9862 46.8962L23.059 48.0753L23.059 48.0753L23.9862 46.8962ZM24.1736 47.0363H25.6736C25.6736 46.5505 25.4384 46.0948 25.0423 45.8134L24.1736 47.0363ZM26.1375 51.7353L26.452 50.2686L26.452 50.2686L26.1375 51.7353ZM31.7645 52.3617L31.7322 53.8614L31.7322 53.8614L31.7645 52.3617ZM37.9077 51.5988L37.4996 50.1554L37.4996 50.1554L37.9077 51.5988ZM39.6887 46.8854L38.8604 45.6349C38.4409 45.9127 38.1887 46.3823 38.1887 46.8854H39.6887ZM42.1833 43.4521L43.6214 43.8786L43.6214 43.8786L42.1833 43.4521ZM43.7246 29.6139H42.2246C42.2246 29.626 42.2247 29.6382 42.225 29.6503L43.7246 29.6139ZM38.9448 24.9637L37.5347 25.4751C37.6893 25.9014 38.0285 26.2349 38.4573 26.3823C38.8862 26.5297 39.3587 26.4751 39.7427 26.2339L38.9448 24.9637ZM33.4603 23.4455L32.1258 24.1305C32.3324 24.533 32.7097 24.8207 33.1525 24.9136C33.5953 25.0064 34.0564 24.8944 34.4073 24.6087L33.4603 23.4455ZM32.1719 27.2846L32.0559 28.7801C32.4726 28.8124 32.8839 28.6694 33.1907 28.3855C33.4975 28.1016 33.6719 27.7026 33.6719 27.2846H32.1719ZM28.5341 27.0025H27.0341C27.0341 27.7859 27.637 28.4374 28.4181 28.498L28.5341 27.0025ZM32.1719 26.141L33.6719 26.1464V26.141H32.1719ZM33.8435 26.145L32.3435 26.1379V26.145H33.8435ZM33.8435 27.4142H32.3435C32.3435 28.1977 32.9464 28.8492 33.7275 28.9098L33.8435 27.4142ZM37.4814 27.6964L37.3654 29.1919C37.7821 29.2242 38.1934 29.0812 38.5002 28.7973C38.807 28.5134 38.9814 28.1144 38.9814 27.6964H37.4814ZM26.8096 26.8687L26.6936 28.3642C27.1144 28.3969 27.5294 28.2507 27.8369 27.9617C28.1444 27.6727 28.3159 27.2674 28.3094 26.8455L26.8096 26.8687ZM26.6099 13.9957L25.1101 14.0189L25.1101 14.0189L26.6099 13.9957ZM22.8547 26.562L21.3547 26.5479C21.3473 27.3367 21.9522 27.9965 22.7387 28.0575L22.8547 26.562ZM22.9727 14.0068L21.4728 13.9927L21.4728 13.9927L22.9727 14.0068ZM42.053 28.0509L41.937 29.5464C42.3537 29.5788 42.765 29.4357 43.0718 29.1518C43.3786 28.8679 43.553 28.4689 43.553 28.0509H42.053ZM39.153 27.826H37.653C37.653 28.6095 38.2559 29.261 39.037 29.3215L39.153 27.826ZM25.8453 47.8431L26.2986 46.4133C25.8427 46.2687 25.3452 46.3502 24.9593 46.6327C24.5733 46.9152 24.3453 47.3648 24.3453 47.8431H25.8453ZM26.488 50.1008L26.1734 51.5675L26.1734 51.5675L26.488 50.1008ZM31.8004 50.6905L31.8327 49.1909L31.8327 49.1909L31.8004 50.6905ZM37.4529 49.9902L37.861 51.4336L37.861 51.4336L37.4529 49.9902ZM38.0171 47.7033H39.5171C39.5171 47.2168 39.2811 46.7604 38.884 46.4792C38.487 46.198 37.9782 46.1269 37.5192 46.2883L38.0171 47.7033ZM37.789 47.7802L37.3283 46.3527L37.3283 46.3527L37.789 47.7802ZM27.1558 48.1559L26.8984 49.6337L26.8984 49.6337L27.1558 48.1559ZM31.3644 8.16678C28.1817 4.5055 22.6335 4.11753 18.9723 7.30024L20.9404 9.56437C23.3513 7.46866 27.0046 7.72412 29.1003 10.135L31.3644 8.16678ZM33.4268 12.6548C33.1919 11.0454 32.5069 9.48111 31.3644 8.16678L29.1003 10.135C29.8547 11.0028 30.3038 12.0301 30.4583 13.0881L33.4268 12.6548ZM33.2018 16.2713C33.5262 15.0956 33.6031 13.8626 33.4268 12.6548L30.4583 13.0881C30.5745 13.8844 30.5237 14.6982 30.3099 15.4735L33.2018 16.2713ZM30.2148 17.9667C31.5078 18.3234 32.8451 17.5643 33.2018 16.2713L30.3099 15.4735C30.3938 15.1694 30.7084 14.9908 31.0125 15.0747L30.2148 17.9667ZM28.5194 14.9796C28.1627 16.2726 28.9217 17.61 30.2148 17.9667L31.0126 15.0747C31.3167 15.1586 31.4953 15.4732 31.4114 15.7774L28.5194 14.9796ZM28.6204 13.3564C28.6995 13.8979 28.6649 14.4521 28.5194 14.9796L31.4114 15.7774C31.6673 14.8496 31.7281 13.8761 31.589 12.9231L28.6204 13.3564ZM27.6985 11.3535C28.2127 11.945 28.5158 12.6399 28.6204 13.3564L31.589 12.9231C31.4038 11.655 30.8649 10.4232 29.9626 9.38531L27.6985 11.3535ZM22.159 10.9661C23.7956 9.54338 26.2758 9.71681 27.6985 11.3535L29.9626 9.38531C27.4529 6.49819 23.0779 6.19226 20.1908 8.70199L22.159 10.9661ZM20.8608 13.2894C21.0042 12.417 21.4387 11.5922 22.159 10.9661L20.1908 8.70199C18.9236 9.80351 18.1531 11.2658 17.9005 12.8029L20.8608 13.2894ZM20.9336 14.9188C20.7958 14.3864 20.7719 13.8302 20.8608 13.2894L17.9005 12.8029C17.7446 13.7519 17.7858 14.73 18.0294 15.6706L20.9336 14.9188ZM19.1911 17.8786C20.4896 17.5424 21.2698 16.2173 20.9336 14.9188L18.0294 15.6706C17.9503 15.3651 18.1338 15.0534 18.4393 14.9743L19.1911 17.8786ZM16.2313 16.1361C16.5675 17.4346 17.8926 18.2147 19.1911 17.8786L18.4393 14.9743C18.7447 14.8952 19.0565 15.0788 19.1356 15.3842L16.2313 16.1361ZM16.0677 12.5018C15.8703 13.7033 15.9223 14.9426 16.2313 16.1361L19.1356 15.3842C18.9323 14.5991 18.8976 13.7817 19.028 12.9882L16.0677 12.5018ZM18.9723 7.30024C17.3663 8.69628 16.3879 10.5534 16.0677 12.5018L19.028 12.9882C19.239 11.7042 19.8816 10.4848 20.9404 9.56437L18.9723 7.30024ZM25.0821 43.5965C24.6238 43.5822 24.1755 43.7031 23.7908 43.9384L25.356 46.4978C25.2466 46.5646 25.1192 46.5991 24.9888 46.595L25.0821 43.5965ZM38.7688 44.0223L25.0821 43.5965L24.9888 46.595L38.6755 47.0208L38.7688 44.0223ZM39.1426 42.5504C38.8943 43.3877 38.4679 43.8989 37.9065 44.2626L39.5377 46.7804C40.6997 46.0276 41.5673 44.9258 42.0188 43.4033L39.1426 42.5504ZM40.5636 30.2448C40.5919 32.6569 40.4746 38.0588 39.1426 42.5504L42.0188 43.4033C43.4854 38.4579 43.5924 32.6784 43.5634 30.2096L40.5636 30.2448ZM40.553 30.0939C40.553 30.2191 40.563 30.343 40.5825 30.4647L43.5446 29.9898C43.5502 30.0246 43.553 30.0595 43.553 30.0939H40.553ZM40.553 29.7276V30.0939H43.553V29.7276H40.553ZM39.037 30.9982L41.937 31.2231L42.1689 28.232L39.269 28.0071L39.037 30.9982ZM40.653 29.6617V29.5026H37.653V29.6617H40.653ZM40.6529 29.6768L40.653 29.6687L37.653 29.6546L37.653 29.6626L40.6529 29.6768ZM40.653 29.7419V29.6697H37.653V29.7419H40.653ZM38.3172 32.0777C39.6072 32.0777 40.653 31.0319 40.653 29.7419H37.653C37.653 29.3751 37.9503 29.0777 38.3172 29.0777V32.0777ZM35.9814 29.7419C35.9814 31.0319 37.0271 32.0777 38.3172 32.0777V29.0777C38.684 29.0777 38.9814 29.3751 38.9814 29.7419H35.9814ZM35.9814 29.373V29.7419H38.9814V29.373H35.9814ZM33.7275 30.5864L37.3654 30.8685L37.5973 27.8775L33.9595 27.5954L33.7275 30.5864ZM32.3435 29.0909V29.5865H35.3435V29.0909H32.3435ZM32.3435 29.5865C32.3435 29.5847 32.3435 29.5834 32.3435 29.5825L35.3435 29.6026C35.3435 29.5977 35.3435 29.5923 35.3435 29.5865H32.3435ZM35.3435 29.7419V29.5925H32.3435V29.7419H35.3435ZM33.0077 32.0777C34.2977 32.0777 35.3435 31.0319 35.3435 29.7419H32.3435C32.3435 29.3751 32.6409 29.0777 33.0077 29.0777V32.0777ZM30.6719 29.7419C30.6719 31.0319 31.7177 32.0777 33.0077 32.0777V29.0777C33.3745 29.0777 33.6719 29.3751 33.6719 29.7419H30.6719ZM30.6719 28.9612V29.7419H33.6719V28.9612H30.6719ZM28.4181 30.1746L32.0559 30.4567L32.2879 27.4657L28.65 27.1836L28.4181 30.1746ZM27.0341 28.6791V29.5865H30.0341V28.6791H27.0341ZM27.0341 29.5865C27.0341 29.5555 27.0363 29.524 27.0408 29.4926L30.01 29.9217C30.0259 29.8115 30.0341 29.6995 30.0341 29.5865H27.0341ZM30.0338 30.2337L30.0252 29.6839L27.0256 29.7304L27.0341 30.2802L30.0338 30.2337ZM27.7345 32.6054C29.0243 32.5854 30.0538 31.5235 30.0338 30.2337L27.0341 30.2802C27.0284 29.9134 27.3212 29.6115 27.6879 29.6058L27.7345 32.6054ZM25.3627 30.3061C25.3827 31.596 26.4446 32.6254 27.7345 32.6054L27.6879 29.6058C28.0547 29.6001 28.3567 29.8928 28.3624 30.2596L25.3627 30.3061ZM25.3358 28.5706L25.3627 30.3061L28.3624 30.2596L28.3354 28.5241L25.3358 28.5706ZM22.7229 29.7329L26.7196 30.0429L26.9516 27.0519L22.9549 26.7419L22.7229 29.7329ZM24.2888 33.5744L24.3389 28.2515L21.339 28.2233L21.2889 33.5462L24.2888 33.5744ZM21.9311 35.8881C23.2211 35.9002 24.2767 34.8643 24.2888 33.5744L21.2889 33.5462C21.2924 33.1794 21.5925 32.8848 21.9593 32.8882L21.9311 35.8881ZM19.6174 33.5304C19.6053 34.8204 20.6412 35.876 21.9311 35.8881L21.9593 32.8882C22.3262 32.8917 22.6207 33.1918 22.6173 33.5587L19.6174 33.5304ZM19.6653 28.4386L19.6174 33.5304L22.6173 33.5587L22.6652 28.4668L19.6653 28.4386ZM20.5583 31.3953C20.9567 30.7988 21.4881 30.1154 22.1022 29.624L20.2282 27.2814C19.2626 28.0539 18.5302 29.0304 18.0636 29.729L20.5583 31.3953ZM20.0354 34.7723C19.8116 33.4109 19.961 32.2897 20.5583 31.3953L18.0636 29.729C16.9004 31.4705 16.7773 33.4474 17.0751 35.259L20.0354 34.7723ZM21.4094 38.7331C20.8371 37.5453 20.2619 36.1503 20.0354 34.7723L17.0751 35.259C17.372 37.0653 18.0965 38.7688 18.7068 40.0353L21.4094 38.7331ZM25.5426 44.0733C23.8603 42.6491 22.3814 40.7503 21.4094 38.7331L18.7068 40.0353C19.8629 42.4346 21.6033 44.669 23.6042 46.3629L25.5426 44.0733ZM29.9078 22.1151L29.7811 13.9465L26.7815 13.993L26.9082 22.1616L29.9078 22.1151ZM29.7811 13.9465C29.7388 11.2209 27.5173 9.03356 24.7914 9.03356V12.0336C25.8786 12.0336 26.7646 12.906 26.7815 13.993L29.7811 13.9465ZM24.7914 9.03356C22.0536 9.03356 19.827 11.2393 19.8013 13.977L22.8011 14.0052C22.8114 12.9133 23.6995 12.0336 24.7914 12.0336V9.03356ZM19.8013 13.977L19.6838 26.4712L22.6837 26.4994L22.8011 14.0052L19.8013 13.977ZM20.8194 25.0302C20.586 25.0886 20.3583 25.1812 20.1446 25.3082L21.678 27.8868C21.6368 27.9113 21.5928 27.9291 21.548 27.9403L20.8194 25.0302ZM20.1446 25.3082C18.4417 26.3209 17.2749 27.9003 16.6735 28.8006L19.1683 30.4668C19.7086 29.6579 20.5707 28.5452 21.678 27.8868L20.1446 25.3082ZM16.6735 28.8006C15.1941 31.0156 15.087 33.4702 15.4256 35.5301L18.3859 35.0435C18.1208 33.4307 18.2559 31.8329 19.1683 30.4669L16.6735 28.8006ZM15.4256 35.5301C15.7617 37.5747 16.5691 39.4499 17.2009 40.761L19.9035 39.4587C19.3101 38.2272 18.6517 36.6602 18.3859 35.0435L15.4256 35.5301ZM17.2009 40.761C18.5579 43.5771 20.6484 46.1799 23.059 48.0753L24.9133 45.717C22.8658 44.1071 21.0639 41.8668 19.9035 39.4587L17.2009 40.761ZM23.059 48.0753C23.1397 48.1388 23.2217 48.2 23.305 48.2592L25.0423 45.8134C24.9982 45.7821 24.9552 45.75 24.9133 45.717L23.059 48.0753ZM22.6736 47.0363V49.2401H25.6736V47.0363H22.6736ZM22.6736 49.2401C22.6736 51.0277 23.8503 52.7789 25.8229 53.2019L26.452 50.2686C26.0074 50.1733 25.6736 49.7671 25.6736 49.2401H22.6736ZM25.8229 53.2019C27.1058 53.477 29.1435 53.8057 31.7322 53.8614L31.7967 50.8621C29.4262 50.8111 27.5791 50.5103 26.452 50.2686L25.8229 53.2019ZM31.7322 53.8614C34.6031 53.9231 36.9328 53.4332 38.3158 53.0422L37.4996 50.1554C36.3252 50.4874 34.2989 50.9159 31.7967 50.8621L31.7322 53.8614ZM38.3158 53.0422C40.1656 52.5192 41.1887 50.8299 41.1887 49.1693H38.1887C38.1887 49.6629 37.8961 50.0432 37.4996 50.1554L38.3158 53.0422ZM41.1887 49.1693V46.8854H38.1887V49.1693H41.1887ZM40.517 48.136C41.922 47.2054 43.0444 45.8244 43.6214 43.8786L40.7452 43.0257C40.3759 44.2709 39.7 45.0787 38.8604 45.6349L40.517 48.136ZM43.6214 43.8786C45.2886 38.2567 45.2752 31.6804 45.2241 29.5774L42.225 29.6503C42.275 31.7076 42.2703 37.883 40.7452 43.0257L43.6214 43.8786ZM45.2246 29.6139V27.609H42.2246V29.6139H45.2246ZM45.2246 27.609C45.2246 25.0566 43.1554 22.9874 40.603 22.9874V25.9874C41.4986 25.9874 42.2246 26.7134 42.2246 27.609H45.2246ZM40.603 22.9874C39.7033 22.9874 38.8594 23.246 38.1469 23.6935L39.7427 26.2339C39.9911 26.0779 40.2842 25.9874 40.603 25.9874V22.9874ZM40.355 24.4524C39.6601 22.5361 37.8235 21.1633 35.6624 21.1633V24.1633C36.5211 24.1633 37.2564 24.7077 37.5347 25.4751L40.355 24.4524ZM35.6624 21.1633C34.47 21.1633 33.3717 21.5834 32.5133 22.2822L34.4073 24.6087C34.7502 24.3296 35.1849 24.1633 35.6624 24.1633V21.1633ZM30.353 23.0467C31.1232 23.0467 31.7939 23.4838 32.1258 24.1305L34.7947 22.7605C33.9693 21.1524 32.2915 20.0467 30.353 20.0467V23.0467ZM29.2449 23.3832C29.561 23.1707 29.9402 23.0467 30.353 23.0467V20.0467C29.3256 20.0467 28.3666 20.3588 27.5711 20.8935L29.2449 23.3832ZM32.2879 25.7891L28.65 25.507L28.4181 28.498L32.0559 28.7801L32.2879 25.7891ZM30.6719 26.1538V27.2846H33.6719V26.1538H30.6719ZM30.6719 26.1357C30.6719 26.1417 30.6719 26.1478 30.6719 26.1538H33.6719C33.6719 26.1513 33.6719 26.1489 33.6719 26.1464L30.6719 26.1357ZM33.6719 26.141V25.0373H30.6719V26.141H33.6719ZM33.6719 25.0373C33.6719 23.2043 32.186 21.7183 30.353 21.7183V24.7183C30.5291 24.7183 30.6719 24.8611 30.6719 25.0373H33.6719ZM30.353 21.7183C28.52 21.7183 27.0341 23.2043 27.0341 25.0372H30.0341C30.0341 24.8611 30.1768 24.7183 30.353 24.7183V21.7183ZM27.0341 25.0372V27.0025H30.0341V25.0372H27.0341ZM32.3435 26.145V27.4142H35.3435V26.145H32.3435ZM35.6624 22.8349C33.8348 22.8349 32.3522 24.3121 32.3435 26.1379L35.3435 26.1521C35.3443 25.9768 35.4868 25.8349 35.6624 25.8349V22.8349ZM38.9814 26.1538C38.9814 24.3208 37.4954 22.8349 35.6624 22.8349V25.8349C35.8386 25.8349 35.9814 25.9777 35.9814 26.1538H38.9814ZM38.9814 27.6964V26.1538H35.9814V27.6964H38.9814ZM33.7275 28.9098L37.3654 29.1919L37.5973 26.2009L33.9595 25.9187L33.7275 28.9098ZM28.3094 26.8455L28.1097 13.9724L25.1101 14.0189L25.3098 26.892L28.3094 26.8455ZM22.7387 28.0575L26.6936 28.3642L26.9256 25.3732L22.9707 25.0665L22.7387 28.0575ZM21.4728 13.9927L21.3547 26.5479L24.3546 26.5761L24.4727 14.0209L21.4728 13.9927ZM24.7914 10.7052C22.9707 10.7052 21.4899 12.1721 21.4728 13.9927L24.4727 14.0209C24.4743 13.846 24.6165 13.7052 24.7914 13.7052V10.7052ZM28.1097 13.9724C28.0816 12.1598 26.6042 10.7052 24.7914 10.7052V13.7052C24.9655 13.7052 25.1074 13.8449 25.1101 14.0189L28.1097 13.9724ZM40.553 27.609V28.0509H43.553V27.609H40.553ZM40.603 27.659C40.5754 27.659 40.553 27.6366 40.553 27.609H43.553C43.553 25.9798 42.2322 24.659 40.603 24.659V27.659ZM40.653 27.609C40.653 27.6366 40.6306 27.659 40.603 27.659V24.659C38.9738 24.659 37.653 25.9798 37.653 27.609H40.653ZM40.653 27.826V27.609H37.653V27.826H40.653ZM42.1689 26.5554L39.269 26.3305L39.037 29.3215L41.937 29.5464L42.1689 26.5554ZM27.3453 49.2401V47.8431H24.3453V49.2401H27.3453ZM26.8025 48.6342C27.1858 48.7164 27.3453 49.039 27.3453 49.2401H24.3453C24.3453 50.3398 25.0655 51.3299 26.1734 51.5675L26.8025 48.6342ZM31.8327 49.1909C29.5837 49.1425 27.8428 48.8572 26.8025 48.6342L26.1734 51.5675C27.3695 51.8239 29.301 52.1371 31.7682 52.1902L31.8327 49.1909ZM37.0448 48.5468C35.9866 48.846 34.1293 49.2402 31.8327 49.1909L31.7682 52.1902C34.4336 52.2475 36.5942 51.7918 37.861 51.4336L37.0448 48.5468ZM36.5171 49.1693C36.5171 48.9857 36.6554 48.6569 37.0448 48.5468L37.861 51.4336C38.8874 51.1434 39.5171 50.195 39.5171 49.1693H36.5171ZM36.5171 47.7033V49.1693H39.5171V47.7033H36.5171ZM38.2497 49.2077C38.3383 49.1791 38.4267 49.1493 38.5149 49.1183L37.5192 46.2883C37.4563 46.3105 37.3927 46.3319 37.3283 46.3527L38.2497 49.2077ZM31.6937 49.9449C33.6098 49.9449 36.0731 49.9101 38.2497 49.2077L37.3283 46.3527C35.6614 46.8906 33.6501 46.9449 31.6937 46.9449V49.9449ZM26.8984 49.6337C28.2858 49.8753 29.8986 49.9449 31.6937 49.9449V46.9449C29.9463 46.9449 28.5407 46.8745 27.4131 46.6782L26.8984 49.6337ZM25.3919 49.2729C25.878 49.4271 26.3826 49.5439 26.8984 49.6337L27.4131 46.6782C27.0026 46.6067 26.6324 46.5191 26.2986 46.4133L25.3919 49.2729Z" fill="#F8F9FA" mask="url(#path-1-outside-1_50_11125)"/>
<path d="M30.8516 15.5455C31.0866 14.6939 31.1423 13.8003 31.0146 12.9256C30.8449 11.7626 30.3508 10.6331 29.5225 9.68019C27.2198 7.03121 23.2056 6.75051 20.5566 9.05324C19.3936 10.0643 18.6871 11.4052 18.4553 12.8156C18.3121 13.6869 18.3501 14.5846 18.5735 15.4475" stroke="#212529" stroke-width="2" stroke-linecap="round" stroke-linejoin="round"/>
<path d="M37.5802 50.7394C36.348 51.0804 34.2941 51.4998 31.7735 51.4456C29.4247 51.3951 27.5752 51.1041 26.4065 50.8593C25.5598 50.6819 25.0005 49.9211 25.0005 49.0561V45.8506L38.8439 46.2813V48.9937C38.8439 49.8004 38.3576 50.5243 37.5802 50.7394Z" fill="#F8F9FA" stroke="#212529" stroke-width="1.8" stroke-linecap="round" stroke-linejoin="round"/>
<path fill-rule="evenodd" clip-rule="evenodd" d="M21.3794 27.2061C20.1154 27.9396 19.1684 29.1769 18.607 30.0174C16.5308 33.1258 18.0923 37.168 19.2962 39.6665C20.5001 42.1649 22.3659 44.4855 24.4938 46.1586C25.8789 47.2477 28.1688 47.5285 31.6847 47.5285C35.5807 47.5285 40.1291 47.3285 41.373 43.134C43.2663 36.7495 42.8798 29.4969 42.8798 29.4969" fill="#FFD8A8"/>
<path d="M21.3794 27.2061C20.1154 27.9396 19.1684 29.1769 18.607 30.0174C16.5308 33.1258 18.0923 37.168 19.2962 39.6665C20.5001 42.1649 22.3659 44.4855 24.4938 46.1586C25.8789 47.2477 28.1688 47.5285 31.6847 47.5285C35.5807 47.5285 40.1291 47.3285 41.373 43.134C43.2663 36.7495 42.8798 29.4969 42.8798 29.4969" stroke="#212529" stroke-width="1.8" stroke-linecap="round" stroke-linejoin="round"/>
<g style="mix-blend-mode:soft-light" opacity="0.6">
<path d="M22.0816 39.0774C21.7487 39.596 22.42 40.9082 23.053 41.7711C23.7004 42.6535 24.8349 43.8672 25.2979 43.4137C25.7609 42.9602 24.3312 41.3706 23.928 41.0076C23.2211 40.2428 22.4145 38.5587 22.0816 39.0774Z" fill="#F8F9FA"/>
</g>
<path fill-rule="evenodd" clip-rule="evenodd" d="M32.9988 29.6618V26.0737C32.9988 24.6075 34.1873 23.4189 35.6535 23.4189V23.4189C37.1197 23.4189 38.3082 24.6075 38.3082 26.0737V29.6618" fill="#FFD8A8"/>
<path d="M32.9988 29.6618V26.0737C32.9988 24.6075 34.1873 23.4189 35.6535 23.4189V23.4189C37.1197 23.4189 38.3082 24.6075 38.3082 26.0737V29.6618" stroke="#212529" stroke-width="1.8" stroke-linecap="round" stroke-linejoin="round"/>
<path fill-rule="evenodd" clip-rule="evenodd" d="M38.3082 29.5816L38.3082 27.5289C38.3082 26.2665 39.3316 25.2432 40.594 25.2432V25.2432C41.8564 25.2432 42.8798 26.2665 42.8798 27.5289V30.0139" fill="#FFD8A8"/>
<path d="M38.3082 29.5816L38.3082 27.5289C38.3082 26.2665 39.3316 25.2432 40.594 25.2432V25.2432C41.8564 25.2432 42.8798 26.2665 42.8798 27.5289V30.0139" stroke="#212529" stroke-width="1.8" stroke-linecap="round" stroke-linejoin="round"/>
<path fill-rule="evenodd" clip-rule="evenodd" d="M21.9441 33.4721L22.128 13.9186C22.1417 12.4624 23.3261 11.2891 24.7824 11.2891V11.2891C26.2324 11.2891 27.4141 12.4526 27.4366 13.9024L27.6893 30.1896" fill="#FFD8A8"/>
<path d="M21.9441 33.4721L22.128 13.9186C22.1417 12.4624 23.3261 11.2891 24.7824 11.2891V11.2891C26.2324 11.2891 27.4141 12.4526 27.4366 13.9024L27.6893 30.1896" stroke="#212529" stroke-width="1.8" stroke-linecap="round" stroke-linejoin="round"/>
<path fill-rule="evenodd" clip-rule="evenodd" d="M27.6893 29.5068V24.9575C27.6893 23.4913 28.8779 22.3027 30.3441 22.3027V22.3027C31.8102 22.3027 32.9988 23.4913 32.9988 24.9575V29.5068" fill="#FFD8A8"/>
<path d="M27.6893 29.5068V24.9575C27.6893 23.4913 28.8779 22.3027 30.3441 22.3027V22.3027C31.8102 22.3027 32.9988 23.4913 32.9988 24.9575V29.5068" stroke="#212529" stroke-width="1.8" stroke-linecap="round" stroke-linejoin="round"/>
<g style="mix-blend-mode:multiply">
<path d="M40.3801 39.9347C41.1558 36.5226 41.3723 30.295 41.3723 25.9541C41.6962 26.0929 41.8281 26.6225 42.3278 28.2325C42.8274 29.8426 42.2297 36.9505 41.8133 39.9347C41.4894 41.3227 40.8274 44.0095 39.9391 44.9534C39.0508 45.8972 36.9803 46.7821 36.0087 46.944C39.201 45.0009 39.8001 42.4857 40.3801 39.9347Z" fill="#DEE2E6"/>
</g>
<g style="mix-blend-mode:multiply">
<path d="M37.1393 47.5868L38.1499 47.499V49.794L37.1393 50.0705V47.5868Z" fill="#DEE2E6"/>
</g>
<g style="mix-blend-mode:multiply">
<path d="M37.73 24.7608L37.0511 24.5664V29.6472L37.73 30.2593V24.7608Z" fill="#DEE2E6"/>
</g>
<g style="mix-blend-mode:multiply">
<path d="M32.4956 23.9487L31.8167 23.7256V29.5569L32.4956 30.2595V23.9487Z" fill="#DEE2E6"/>
</g>
<g style="mix-blend-mode:multiply">
<path d="M27.0902 12.6924L26.1157 11.9512L26.4113 29.6899L27.0902 30.4729V12.6924Z" fill="#DEE2E6"/>
</g>
</svg>
