<svg width="60" height="61" viewBox="0 0 60 61" fill="none" xmlns="http://www.w3.org/2000/svg">
<mask id="path-1-outside-1_50_3702" maskUnits="userSpaceOnUse" x="6.89209" y="10.0679" width="46" height="41" fill="black">
<rect fill="white" x="6.89209" y="10.0679" width="46" height="41"/>
<path fill-rule="evenodd" clip-rule="evenodd" d="M12.399 15.8258C14.5824 13.5095 17.614 12.0679 20.9703 12.0679C24.5707 12.0679 27.7937 13.7264 30.0004 16.3418C32.2071 13.7261 35.4297 12.0679 39.0296 12.0679C42.3859 12.0679 45.4175 13.5095 47.601 15.8258C49.7704 18.1272 51.1078 21.2978 51.1078 24.7901C51.1078 27.9414 49.9268 30.7208 48.279 32.9706C46.8902 34.8669 44.3865 37.1843 41.7291 39.4193C39.0528 41.6701 36.1474 43.897 33.9057 45.6121L33.9002 45.6163L33.8998 45.6166C32.6456 46.5762 31.6153 47.3645 30.9451 47.9118C30.8316 48.0045 30.7083 48.1067 30.5757 48.2179L29.9831 48.7146L29.3995 48.2073C29.27 48.0948 29.1496 47.9917 29.0387 47.8985C28.2922 47.2712 27.0776 46.3386 25.5963 45.2012L25.5962 45.2011L25.5877 45.1946C23.3438 43.4716 20.5396 41.3146 17.9777 39.1528C15.4336 37.0059 13.0589 34.7974 11.721 32.9707C10.073 30.7208 8.89209 27.9414 8.89209 24.7901C8.89209 21.2978 10.2295 18.1272 12.399 15.8258Z"/>
</mask>
<path fill-rule="evenodd" clip-rule="evenodd" d="M12.399 15.8258C14.5824 13.5095 17.614 12.0679 20.9703 12.0679C24.5707 12.0679 27.7937 13.7264 30.0004 16.3418C32.2071 13.7261 35.4297 12.0679 39.0296 12.0679C42.3859 12.0679 45.4175 13.5095 47.601 15.8258C49.7704 18.1272 51.1078 21.2978 51.1078 24.7901C51.1078 27.9414 49.9268 30.7208 48.279 32.9706C46.8902 34.8669 44.3865 37.1843 41.7291 39.4193C39.0528 41.6701 36.1474 43.897 33.9057 45.6121L33.9002 45.6163L33.8998 45.6166C32.6456 46.5762 31.6153 47.3645 30.9451 47.9118C30.8316 48.0045 30.7083 48.1067 30.5757 48.2179L29.9831 48.7146L29.3995 48.2073C29.27 48.0948 29.1496 47.9917 29.0387 47.8985C28.2922 47.2712 27.0776 46.3386 25.5963 45.2012L25.5962 45.2011L25.5877 45.1946C23.3438 43.4716 20.5396 41.3146 17.9777 39.1528C15.4336 37.0059 13.0589 34.7974 11.721 32.9707C10.073 30.7208 8.89209 27.9414 8.89209 24.7901C8.89209 21.2978 10.2295 18.1272 12.399 15.8258Z" fill="#F8F9FA"/>
<path d="M12.399 15.8258L11.3075 14.7969L11.3075 14.7969L12.399 15.8258ZM30.0004 16.3418L28.854 17.3091C29.139 17.6469 29.5585 17.8418 30.0005 17.8418C30.4424 17.8418 30.8619 17.6469 31.1469 17.309L30.0004 16.3418ZM47.601 15.8258L46.5095 16.8547L46.5095 16.8547L47.601 15.8258ZM48.279 32.9706L47.0688 32.0843L47.0688 32.0843L48.279 32.9706ZM41.7291 39.4193L42.6945 40.5673L42.6945 40.5673L41.7291 39.4193ZM33.9057 45.6121L34.817 46.8036L34.8172 46.8034L33.9057 45.6121ZM33.9002 45.6163L34.8054 46.8124L34.8115 46.8077L33.9002 45.6163ZM33.8998 45.6166L32.9946 44.4205L32.9883 44.4253L33.8998 45.6166ZM30.9451 47.9118L29.9964 46.75L29.9964 46.75L30.9451 47.9118ZM30.5757 48.2179L29.6122 47.0683L29.6122 47.0683L30.5757 48.2179ZM29.9831 48.7146L28.9991 49.8467C29.5557 50.3305 30.3814 50.3379 30.9466 49.8642L29.9831 48.7146ZM29.3995 48.2073L28.4155 49.3394L28.4155 49.3394L29.3995 48.2073ZM29.0387 47.8985L28.0738 49.0469L28.0738 49.0469L29.0387 47.8985ZM25.5963 45.2012L24.6465 46.3622C24.6584 46.372 24.6706 46.3816 24.6828 46.391L25.5963 45.2012ZM25.5962 45.2011L26.5461 44.0402C26.5341 44.0304 26.5219 44.0207 26.5096 44.0113L25.5962 45.2011ZM25.5877 45.1946L24.6742 46.3843L24.6744 46.3845L25.5877 45.1946ZM17.9777 39.1528L17.0103 40.2992L17.0103 40.2992L17.9777 39.1528ZM11.721 32.9707L12.9311 32.0843L12.9311 32.0843L11.721 32.9707ZM20.9703 10.5679C17.1712 10.5679 13.7534 12.2022 11.3075 14.7969L13.4905 16.8547C15.4115 14.8168 18.0569 13.5679 20.9703 13.5679V10.5679ZM31.1468 15.3745C28.6781 12.4487 25.0472 10.5679 20.9703 10.5679V13.5679C24.0942 13.5679 26.9092 15.0042 28.854 17.3091L31.1468 15.3745ZM39.0296 10.5679C34.9532 10.5679 31.3226 12.4484 28.8539 15.3746L31.1469 17.309C33.0916 15.0039 35.9062 13.5679 39.0296 13.5679V10.5679ZM48.6925 14.7969C46.2466 12.2022 42.8287 10.5679 39.0296 10.5679V13.5679C41.9431 13.5679 44.5884 14.8167 46.5095 16.8547L48.6925 14.7969ZM52.6078 24.7901C52.6078 20.9113 51.1215 17.3737 48.6925 14.7969L46.5095 16.8547C48.4193 18.8807 49.6078 21.6843 49.6078 24.7901H52.6078ZM49.4891 33.8569C51.2798 31.4119 52.6078 28.3292 52.6078 24.7901H49.6078C49.6078 27.5536 48.5737 30.0296 47.0688 32.0843L49.4891 33.8569ZM42.6945 40.5673C45.3513 38.3329 47.9826 35.9139 49.4891 33.8569L47.0688 32.0843C45.7978 33.8198 43.4217 36.0358 40.7636 38.2713L42.6945 40.5673ZM34.8172 46.8034C37.056 45.0904 39.9879 42.8436 42.6945 40.5673L40.7636 38.2713C38.1176 40.4966 35.2387 42.7035 32.9942 44.4208L34.8172 46.8034ZM34.8115 46.8077L34.817 46.8036L32.9944 44.4207L32.9889 44.4248L34.8115 46.8077ZM34.805 46.8127L34.8054 46.8124L32.9951 44.4202L32.9946 44.4205L34.805 46.8127ZM31.8939 49.0736C32.5409 48.5452 33.5477 47.7747 34.8113 46.8079L32.9883 44.4253C31.7435 45.3777 30.6896 46.1839 29.9964 46.75L31.8939 49.0736ZM31.5393 49.3675C31.6682 49.2594 31.7864 49.1614 31.8939 49.0736L29.9964 46.75C29.8767 46.8477 29.7484 46.9541 29.6122 47.0683L31.5393 49.3675ZM30.9466 49.8642L31.5393 49.3675L29.6122 47.0683L29.0195 47.565L30.9466 49.8642ZM28.4155 49.3394L28.9991 49.8467L30.9671 47.5824L30.3835 47.0752L28.4155 49.3394ZM28.0738 49.0469C28.177 49.1336 28.2909 49.2311 28.4155 49.3394L30.3835 47.0752C30.2492 46.9584 30.1223 46.8497 30.0036 46.75L28.0738 49.0469ZM24.6828 46.391C26.1778 47.5389 27.3591 48.4464 28.0738 49.0469L30.0036 46.75C29.2253 46.096 27.9774 45.1384 26.5099 44.0115L24.6828 46.391ZM24.6464 46.3621L24.6465 46.3622L26.5462 44.0403L26.5461 44.0402L24.6464 46.3621ZM24.6744 46.3845L24.6829 46.391L26.5096 44.0113L26.5011 44.0047L24.6744 46.3845ZM17.0103 40.2992C19.6026 42.4866 22.4335 44.6638 24.6742 46.3843L26.5012 44.0049C24.2542 42.2795 21.4766 40.1426 18.9451 38.0064L17.0103 40.2992ZM10.5108 33.857C11.9651 35.8425 14.4652 38.1514 17.0103 40.2992L18.9451 38.0064C16.4021 35.8605 14.1527 33.7522 12.9311 32.0843L10.5108 33.857ZM7.39209 24.7901C7.39209 28.3292 8.71994 31.4119 10.5109 33.857L12.9311 32.0843C11.4261 30.0296 10.3921 27.5536 10.3921 24.7901H7.39209ZM11.3075 14.7969C8.87845 17.3737 7.39209 20.9113 7.39209 24.7901H10.3921C10.3921 21.6844 11.5806 18.8808 13.4905 16.8547L11.3075 14.7969Z" fill="#F8F9FA" mask="url(#path-1-outside-1_50_3702)"/>
<path d="M39.0296 12.9937C35.3232 12.9937 32.0347 14.9033 30.0004 17.8524C27.9662 14.9038 24.6773 12.9937 20.9703 12.9937C17.8814 12.9937 15.0831 14.3189 13.0582 16.467C11.0455 18.6022 9.79797 21.5511 9.79797 24.81C9.79797 27.7272 10.8903 30.3233 12.4518 32.4552C14.987 35.9167 21.6477 41.0471 26.1394 44.496C27.6163 45.63 28.8542 46.5801 29.6214 47.2247C29.737 47.3219 29.8613 47.4283 29.9938 47.5434C30.1286 47.4305 30.2549 47.3257 30.3721 47.23C31.0572 46.6705 32.104 45.8698 33.3552 44.9125C37.842 41.4796 44.9128 36.0535 47.5481 32.4552C49.1095 30.3233 50.2019 27.7272 50.2019 24.81C50.2019 21.5511 48.9544 18.6022 46.9417 16.467C44.9168 14.3189 42.1185 12.9937 39.0296 12.9937Z" fill="#CC5DE8" stroke="#212529" stroke-width="2" stroke-linejoin="round"/>
<g style="mix-blend-mode:multiply" opacity="0.3">
<path fill-rule="evenodd" clip-rule="evenodd" d="M28.2274 15.8739C27.2727 14.919 26.1594 14.1407 24.934 13.5876C26.0374 14.3642 27.0032 15.3431 27.7841 16.475C27.9259 16.2695 28.0737 16.069 28.2274 15.8739ZM28.0463 45.9424C28.0836 45.9117 28.1201 45.8817 28.1558 45.8526C28.8371 45.2962 29.8761 44.5013 31.1181 43.551L31.1388 43.5351C35.6256 40.1022 42.6964 34.6761 45.3318 31.0778C46.8932 28.9459 47.9856 26.3498 47.9856 23.4326C47.9856 20.1737 46.7381 17.2248 44.7254 15.0897C44.1981 14.5303 43.6184 14.0267 42.9948 13.5879C44.3229 14.1872 45.5193 15.0511 46.525 16.118C48.5376 18.2531 49.7851 21.2021 49.7851 24.4609C49.7851 27.3781 48.6927 29.9743 47.1313 32.1061C44.496 35.7044 37.4252 41.1305 32.9384 44.5635L32.9178 44.5792C31.6757 45.5295 30.6367 46.3245 29.9553 46.8809C29.8381 46.9767 29.7118 47.0814 29.577 47.1944C29.4445 47.0793 29.3203 46.9728 29.2046 46.8757C28.8916 46.6127 28.5003 46.2989 28.0463 45.9424Z" fill="#CC5DE8"/>
</g>
<g style="mix-blend-mode:soft-light" opacity="0.8">
<path d="M17.4734 17.8035C18.1346 17.1804 17.394 16.53 16.6722 16.6669C16.0668 16.7816 14.5373 18.1206 13.7397 19.5021C12.9421 20.8836 14.0346 21.5492 14.4865 21.0566C14.9384 20.5639 16.647 18.5823 17.4734 17.8035Z" fill="#F8F9FA"/>
</g>
</svg>
