<svg width="60" height="61" viewBox="0 0 60 61" fill="none" xmlns="http://www.w3.org/2000/svg">
<path d="M10.6146 43.1482L42.67 11.0927L49.7208 18.1434L17.6653 50.1989L10.6146 43.1482ZM44.5028 7.97574C43.4906 6.96352 41.8495 6.96352 40.8373 7.97574L7.4976 41.3154C6.48538 42.3276 6.48538 43.9688 7.4976 44.981L15.8325 53.3159C16.8447 54.3281 18.4859 54.3281 19.4981 53.3159L52.8377 19.9762C53.85 18.964 53.85 17.3229 52.8377 16.3107L44.5028 7.97574Z" fill="#F8F9FA" stroke="#F8F9FA" stroke-width="1.5" stroke-linecap="round" stroke-linejoin="round"/>
<path d="M51.6192 17.5888L43.2843 9.25392C42.9555 8.92512 42.4224 8.92512 42.0936 9.25392L8.75396 42.5936C8.42516 42.9224 8.42515 43.4555 8.75396 43.7843L17.0889 52.1192C17.4177 52.448 17.9508 52.448 18.2796 52.1192L51.6192 18.7795C51.948 18.4507 51.948 17.9176 51.6192 17.5888Z" fill="#FFE066" stroke="#212529" stroke-width="2"/>
<g style="mix-blend-mode:multiply">
<path fill-rule="evenodd" clip-rule="evenodd" d="M9.73147 42.1832L17.0245 49.4762C17.3533 49.805 17.8864 49.8051 18.2152 49.4762L50.7958 16.8956L51.8377 17.9375C52.1665 18.2663 52.1665 18.7994 51.8377 19.1282L18.498 52.4679C18.1692 52.7967 17.6361 52.7967 17.3073 52.4679L8.97243 44.133C8.64363 43.8042 8.64363 43.2711 8.97243 42.9423L9.73147 42.1832Z" fill="#E9ECEF"/>
</g>
<path d="M21.4747 45.7191L22.3678 46.6121" stroke="#212529" stroke-width="1.4" stroke-linecap="round"/>
<path d="M23.2609 42.1471L25.0469 43.9331" stroke="#212529" stroke-width="1.4" stroke-linecap="round"/>
<path d="M26.8329 40.361L27.7259 41.254" stroke="#212529" stroke-width="1.4" stroke-linecap="round"/>
<path d="M28.619 36.7889L30.4051 38.575" stroke="#212529" stroke-width="1.4" stroke-linecap="round"/>
<path d="M32.191 35.0028L33.0841 35.8958" stroke="#212529" stroke-width="1.4" stroke-linecap="round"/>
<path d="M33.9772 31.4308L35.7632 33.2168" stroke="#212529" stroke-width="1.4" stroke-linecap="round"/>
<path d="M37.5493 29.6447L38.4423 30.5377" stroke="#212529" stroke-width="1.4" stroke-linecap="round"/>
<path d="M39.3353 26.0726L41.1214 27.8587" stroke="#212529" stroke-width="1.4" stroke-linecap="round"/>
<path d="M42.9075 24.2865L43.8005 25.1795" stroke="#212529" stroke-width="1.4" stroke-linecap="round"/>
<path d="M44.6935 20.7144L46.4795 22.5004" stroke="#212529" stroke-width="1.4" stroke-linecap="round"/>
<g style="mix-blend-mode:soft-light" opacity="0.6">
<path d="M38.5188 15.9743C39.0704 16.2743 40.3544 15.4953 41.1846 14.7884C42.0336 14.0654 43.1834 12.8229 42.6884 12.3858C42.1934 11.9487 40.6833 13.5189 40.3441 13.9555C39.6191 14.7303 37.9671 15.6742 38.5188 15.9743Z" fill="#F8F9FA"/>
</g>
</svg>
