<svg width="60" height="61" viewBox="0 0 60 61" fill="none" xmlns="http://www.w3.org/2000/svg">
<mask id="path-1-outside-1_50_2227" maskUnits="userSpaceOnUse" x="11.3995" y="8.28442" width="37" height="45" fill="black">
<rect fill="white" x="11.3995" y="8.28442" width="37" height="45"/>
<path fill-rule="evenodd" clip-rule="evenodd" d="M19.4152 11.9958C19.0626 11.9958 18.7337 12.1735 18.5405 12.4684L15.2819 17.4416C15.1703 17.6119 15.1109 17.8111 15.1109 18.0147V49.0149C15.1109 49.5924 15.5791 50.0607 16.1567 50.0607H43.7769C44.3545 50.0607 44.8228 49.5924 44.8228 49.0149V28.2754C44.8228 28.034 44.6271 27.8384 44.3857 27.8384C43.1992 27.8384 42.2373 26.8765 42.2373 25.69V25.0933C42.2373 23.9068 43.1992 22.9449 44.3857 22.9449C44.6271 22.9449 44.8228 22.7493 44.8228 22.5079V13.0416C44.8228 12.464 44.3545 11.9958 43.7769 11.9958H19.4152ZM17.109 11.5305C17.6185 10.7529 18.4856 10.2844 19.4152 10.2844H43.7769C45.2997 10.2844 46.5341 11.5188 46.5341 13.0416V22.5079C46.5341 23.6944 45.5722 24.6563 44.3857 24.6563C44.1443 24.6563 43.9486 24.8519 43.9486 25.0933V25.69C43.9486 25.9314 44.1443 26.127 44.3857 26.127C45.5722 26.127 46.5341 27.0889 46.5341 28.2754V49.0149C46.5341 50.5376 45.2997 51.772 43.7769 51.772H16.1567C14.634 51.772 13.3995 50.5376 13.3995 49.0149V18.0147C13.3995 17.4779 13.5563 16.9527 13.8505 16.5037L14.5662 16.9726L13.8505 16.5037L17.109 11.5305L17.8247 11.9995L17.109 11.5305Z"/>
</mask>
<path fill-rule="evenodd" clip-rule="evenodd" d="M19.4152 11.9958C19.0626 11.9958 18.7337 12.1735 18.5405 12.4684L15.2819 17.4416C15.1703 17.6119 15.1109 17.8111 15.1109 18.0147V49.0149C15.1109 49.5924 15.5791 50.0607 16.1567 50.0607H43.7769C44.3545 50.0607 44.8228 49.5924 44.8228 49.0149V28.2754C44.8228 28.034 44.6271 27.8384 44.3857 27.8384C43.1992 27.8384 42.2373 26.8765 42.2373 25.69V25.0933C42.2373 23.9068 43.1992 22.9449 44.3857 22.9449C44.6271 22.9449 44.8228 22.7493 44.8228 22.5079V13.0416C44.8228 12.464 44.3545 11.9958 43.7769 11.9958H19.4152ZM17.109 11.5305C17.6185 10.7529 18.4856 10.2844 19.4152 10.2844H43.7769C45.2997 10.2844 46.5341 11.5188 46.5341 13.0416V22.5079C46.5341 23.6944 45.5722 24.6563 44.3857 24.6563C44.1443 24.6563 43.9486 24.8519 43.9486 25.0933V25.69C43.9486 25.9314 44.1443 26.127 44.3857 26.127C45.5722 26.127 46.5341 27.0889 46.5341 28.2754V49.0149C46.5341 50.5376 45.2997 51.772 43.7769 51.772H16.1567C14.634 51.772 13.3995 50.5376 13.3995 49.0149V18.0147C13.3995 17.4779 13.5563 16.9527 13.8505 16.5037L14.5662 16.9726L13.8505 16.5037L17.109 11.5305L17.8247 11.9995L17.109 11.5305Z" fill="#F8F9FA"/>
<path d="M18.5405 12.4684L17.2858 11.6463L17.2858 11.6463L18.5405 12.4684ZM15.2819 17.4416L16.5366 18.2637L16.5366 18.2637L15.2819 17.4416ZM17.109 11.5305L15.8544 10.7084C15.6363 11.0412 15.5594 11.4469 15.6406 11.8364C15.7217 12.2258 15.9542 12.5671 16.2869 12.7852L17.109 11.5305ZM13.8505 16.5037L14.6726 15.249C14.3398 15.031 13.9341 14.9541 13.5446 15.0352C13.1551 15.1163 12.8139 15.3488 12.5958 15.6816L13.8505 16.5037ZM13.7441 18.2273C14.4371 18.6813 15.3668 18.4876 15.8209 17.7947C16.2749 17.1018 16.0812 16.172 15.3883 15.718L13.7441 18.2273ZM13.8505 16.5037L12.5958 15.6816C12.1418 16.3745 12.3355 17.3043 13.0284 17.7583L13.8505 16.5037ZM17.109 11.5305L17.9311 10.2758C17.2382 9.82181 16.3084 10.0155 15.8544 10.7084L17.109 11.5305ZM17.0027 13.2541C17.6956 13.7081 18.6254 13.5145 19.0794 12.8215C19.5334 12.1286 19.3398 11.1988 18.6468 10.7448L17.0027 13.2541ZM19.7951 13.2905C19.7112 13.4186 19.5684 13.4958 19.4152 13.4958V10.4958C18.5568 10.4958 17.7562 10.9283 17.2858 11.6463L19.7951 13.2905ZM16.5366 18.2637L19.7951 13.2905L17.2858 11.6463L14.0273 16.6195L16.5366 18.2637ZM16.6109 18.0147C16.6109 18.1032 16.5851 18.1897 16.5366 18.2637L14.0273 16.6195C13.7556 17.0341 13.6109 17.519 13.6109 18.0147H16.6109ZM16.6109 49.0149V18.0147H13.6109V49.0149H16.6109ZM16.1567 48.5607C16.4075 48.5607 16.6109 48.764 16.6109 49.0149H13.6109C13.6109 50.4209 14.7507 51.5607 16.1567 51.5607V48.5607ZM43.7769 48.5607H16.1567V51.5607H43.7769V48.5607ZM43.3228 49.0149C43.3228 48.764 43.5261 48.5607 43.7769 48.5607V51.5607C45.183 51.5607 46.3228 50.4209 46.3228 49.0149H43.3228ZM43.3228 28.2754V49.0149H46.3228V28.2754H43.3228ZM44.3857 29.3384C43.7987 29.3384 43.3228 28.8625 43.3228 28.2754H46.3228C46.3228 27.2056 45.4555 26.3384 44.3857 26.3384V29.3384ZM40.7373 25.69C40.7373 27.7049 42.3708 29.3384 44.3857 29.3384V26.3384C44.0276 26.3384 43.7373 26.0481 43.7373 25.69H40.7373ZM40.7373 25.0933V25.69H43.7373V25.0933H40.7373ZM44.3857 21.4449C42.3708 21.4449 40.7373 23.0784 40.7373 25.0933H43.7373C43.7373 24.7352 44.0276 24.4449 44.3857 24.4449V21.4449ZM43.3228 22.5079C43.3228 21.9208 43.7987 21.4449 44.3857 21.4449V24.4449C45.4555 24.4449 46.3228 23.5777 46.3228 22.5079H43.3228ZM43.3228 13.0416V22.5079H46.3228V13.0416H43.3228ZM43.7769 13.4958C43.5261 13.4958 43.3228 13.2924 43.3228 13.0416H46.3228C46.3228 11.6356 45.183 10.4958 43.7769 10.4958V13.4958ZM19.4152 13.4958H43.7769V10.4958H19.4152V13.4958ZM19.4152 8.78442C17.9798 8.78442 16.6411 9.50778 15.8544 10.7084L18.3637 12.3526C18.596 11.998 18.9913 11.7844 19.4152 11.7844V8.78442ZM43.7769 8.78442H19.4152V11.7844H43.7769V8.78442ZM48.0341 13.0416C48.0341 10.6904 46.1281 8.78442 43.7769 8.78442V11.7844C44.4713 11.7844 45.0341 12.3473 45.0341 13.0416H48.0341ZM48.0341 22.5079V13.0416H45.0341V22.5079H48.0341ZM44.3857 26.1563C46.4007 26.1563 48.0341 24.5228 48.0341 22.5079H45.0341C45.0341 22.866 44.7438 23.1563 44.3857 23.1563V26.1563ZM45.4486 25.0933C45.4486 25.6804 44.9728 26.1563 44.3857 26.1563V23.1563C43.3159 23.1563 42.4486 24.0235 42.4486 25.0933H45.4486ZM45.4486 25.69V25.0933H42.4486V25.69H45.4486ZM44.3857 24.627C44.9728 24.627 45.4486 25.1029 45.4486 25.69H42.4486C42.4486 26.7598 43.3159 27.627 44.3857 27.627V24.627ZM48.0341 28.2754C48.0341 26.2605 46.4007 24.627 44.3857 24.627V27.627C44.7438 27.627 45.0341 27.9173 45.0341 28.2754H48.0341ZM48.0341 49.0149V28.2754H45.0341V49.0149H48.0341ZM43.7769 53.272C46.1281 53.272 48.0341 51.366 48.0341 49.0149H45.0341C45.0341 49.7092 44.4713 50.272 43.7769 50.272V53.272ZM16.1567 53.272H43.7769V50.272H16.1567V53.272ZM11.8995 49.0149C11.8995 51.366 13.8055 53.272 16.1567 53.272V50.272C15.4624 50.272 14.8995 49.7092 14.8995 49.0149H11.8995ZM11.8995 18.0147V49.0149H14.8995V18.0147H11.8995ZM12.5958 15.6816C12.1415 16.3749 11.8995 17.1858 11.8995 18.0147H14.8995C14.8995 17.77 14.971 17.5305 15.1052 17.3258L12.5958 15.6816ZM15.3883 15.718L14.6726 15.249L13.0284 17.7583L13.7441 18.2273L15.3883 15.718ZM13.0284 17.7583L13.7441 18.2273L15.3883 15.718L14.6726 15.249L13.0284 17.7583ZM15.8544 10.7084L12.5958 15.6816L15.1052 17.3258L18.3637 12.3526L15.8544 10.7084ZM18.6468 10.7448L17.9311 10.2758L16.2869 12.7852L17.0027 13.2541L18.6468 10.7448ZM16.2869 12.7852L17.0027 13.2541L18.6468 10.7448L17.9311 10.2758L16.2869 12.7852Z" fill="#F8F9FA" mask="url(#path-1-outside-1_50_2227)"/>
<path d="M14.6139 16.9481L17.8271 12.044C18.1967 11.48 18.8256 11.1401 19.5 11.1401H43.71C44.8145 11.1401 45.71 12.0356 45.71 13.1401V22.5079C45.71 23.2219 45.1312 23.8006 44.4172 23.8006C43.7033 23.8006 43.1245 24.3794 43.1245 25.0934V25.69C43.1245 26.404 43.7033 26.9827 44.4172 26.9827C45.1312 26.9827 45.71 27.5615 45.71 28.2755V48.9164C45.71 50.021 44.8145 50.9164 43.71 50.9164H16.2867C15.1822 50.9164 14.2867 50.0209 14.2867 48.9164V18.0442C14.2867 17.6548 14.4004 17.2738 14.6139 16.9481Z" fill="#099268" stroke="#212529" stroke-width="1.8" stroke-linejoin="round"/>
<path d="M18.6477 33.4346C18.6477 33.3242 18.7373 33.2346 18.8477 33.2346H41.0859C41.1964 33.2346 41.2859 33.3242 41.2859 33.4346V46.6559C41.2859 46.7664 41.1964 46.8559 41.0859 46.8559H18.8477C18.7373 46.8559 18.6477 46.7664 18.6477 46.6559V33.4346Z" fill="#E9ECEF" stroke="#212529" stroke-width="1.2" stroke-linejoin="round"/>
<rect x="29.4017" y="14.5212" width="1.85313" height="4.97205" rx="0.926565" fill="#212529"/>
<rect x="32.7454" y="14.5212" width="1.85313" height="4.97205" rx="0.926565" fill="#212529"/>
<rect x="36.0891" y="14.5212" width="1.85313" height="4.97205" rx="0.926565" fill="#212529"/>
<rect x="39.4327" y="14.5212" width="1.85313" height="4.97205" rx="0.926565" fill="#212529"/>
<g style="mix-blend-mode:multiply">
<path d="M29.0225 35.852C27.9528 35.1526 25.5599 38.0975 24.4972 39.6574C23.8629 40.3259 22.7076 41.9921 23.1601 43.3085C23.7258 44.9541 26.1942 44.6456 29.0225 42.3315C31.8508 40.0173 37.199 41.303 37.559 38.8346C37.919 36.3662 35.8106 38.0632 33.085 38.0118C30.3595 37.9604 30.3595 36.7262 29.0225 35.852Z" fill="#E9ECEF"/>
</g>
</svg>
