<svg width="60" height="60" viewBox="0 0 60 60" fill="none" xmlns="http://www.w3.org/2000/svg">
<mask id="path-1-outside-1_50_8236" maskUnits="userSpaceOnUse" x="4.74084" y="6.01074" width="49" height="50" fill="black">
<rect fill="white" x="4.74084" y="6.01074" width="49" height="50"/>
<path fill-rule="evenodd" clip-rule="evenodd" d="M44.4358 9.61231C41.3618 9.48645 37.824 9.85138 35.2001 10.5927C32.5618 11.3381 30.1501 12.1593 27.9387 13.1181C27.9169 13.1686 27.8896 13.2171 27.857 13.2628C26.3552 15.367 24.9679 16.7573 23.3149 17.7531C21.8159 18.6561 20.1438 19.2065 18.0717 19.7061C17.77 20.014 17.4739 20.3307 17.1832 20.6567L17.0272 20.8314C13.7885 24.4597 9.73643 28.9991 10.5692 37.2277C10.8561 40.0623 12.5279 42.9903 14.7102 45.3599C15.8537 46.6016 17.103 47.6528 18.3117 48.4386C18.2832 48.3428 18.2577 48.2459 18.2353 48.1481C18.1127 47.6123 18.0832 47.0581 18.125 46.5024C18.1296 45.2114 18.5728 43.9362 19.2234 42.7606C20.7289 40.0404 23.4977 37.5768 25.5615 36.1376C25.5655 36.1348 25.5695 36.1321 25.5735 36.1294C25.577 36.1271 25.5805 36.1247 25.5841 36.1224L25.5935 36.1164C26.9305 35.2775 28.4923 34.3412 30.1445 33.3506L30.1446 33.3506L30.1452 33.3503L30.8083 32.9526C31.5501 32.2957 32.524 31.5022 33.3837 30.9542C33.8704 30.644 34.404 30.3568 34.869 30.2692C34.9808 30.2481 35.1172 30.233 35.2632 30.2441C37.5796 28.8039 39.813 27.3437 41.6224 25.9732C41.6295 25.9678 41.6366 25.9626 41.6438 25.9575C42.7464 25.1792 44.075 23.7422 45.3146 22.2044C46.5414 20.6824 47.6312 19.1251 48.2553 18.1625C49.184 16.7302 49.882 15.1506 50.2531 13.8073C50.4388 13.1348 50.536 12.5453 50.5486 12.0778C50.5619 11.586 50.4784 11.3368 50.4184 11.2458L50.4158 11.2418C50.1803 10.8798 49.5589 10.4803 48.437 10.1639C47.3576 9.85941 45.9717 9.67519 44.4358 9.61231ZM23.5556 39.8313C24.526 38.8936 25.547 38.0717 26.4481 37.4421C27.4322 36.8249 28.5595 36.1428 29.7674 35.4171C29.6099 36.1022 29.4776 36.7995 29.4177 37.3871C29.3882 37.677 29.3741 37.9595 29.3878 38.2113C29.4006 38.4436 29.4401 38.7349 29.5794 38.9827C29.6549 39.117 29.7746 39.265 29.9592 39.3666C30.1504 39.4719 30.3551 39.4965 30.5413 39.4709C30.8709 39.4257 31.1515 39.2243 31.3648 39.0356C32.3608 38.1546 33.597 36.7275 34.5677 35.3089C35.0542 34.5978 35.4865 33.8708 35.7903 33.1995C36.0476 32.631 36.2474 32.029 36.2565 31.4827C38.5504 30.0524 40.7671 28.5987 42.5644 27.2382C43.8553 26.3237 45.2941 24.7429 46.5425 23.1942C47.8072 21.6253 48.9284 20.0233 49.5786 19.0206C50.5903 17.4603 51.3571 15.7338 51.7733 14.2272C51.9811 13.4748 52.1081 12.7534 52.1252 12.1203C52.1415 11.5124 52.0603 10.8722 51.7365 10.3797C51.1711 9.51237 50.0607 8.98316 48.8652 8.64596C47.6263 8.29653 46.108 8.10231 44.5003 8.03649C41.287 7.90493 37.5797 8.28152 34.7713 9.07498C31.8515 9.89991 29.1744 10.8242 26.7178 11.9338C24.3342 11.5905 20.8693 11.2003 17.5129 11.0459C15.6839 10.9617 13.8735 10.9468 12.2809 11.0505C10.7069 11.1529 9.27351 11.3748 8.24099 11.8024C7.9239 11.9338 7.64385 12.0785 7.41575 12.2447C7.19207 12.4076 6.96967 12.6264 6.84378 12.9216C6.5375 13.64 6.98071 14.2183 7.3123 14.5166C7.66328 14.8323 8.16527 15.1099 8.68922 15.3587C9.22807 15.6145 9.86072 15.8719 10.5173 16.1301C10.7583 16.2249 11.0026 16.3198 11.2482 16.4153L11.2483 16.4153L11.2484 16.4153C12.3639 16.8489 13.5055 17.2926 14.4783 17.7736C15.0689 18.0655 15.5639 18.3556 15.9328 18.6434C16.1746 18.8319 16.334 18.9979 16.4339 19.1376C16.2902 19.2919 16.1476 19.4483 16.0062 19.6068L15.8157 19.8202C12.5582 23.4682 8.09706 28.4638 9.00007 37.3865C9.33373 40.6834 11.2373 43.917 13.5501 46.4284C15.8558 48.9319 18.6937 50.8529 21.055 51.4068C21.0894 51.4148 21.1239 51.4205 21.1583 51.4239C23.1045 52.2962 25.5888 52.5756 27.858 52.5604C30.1659 52.5449 32.3664 52.223 33.7327 51.8236C35.2618 52.9252 37.6988 53.5737 39.9999 53.8372C41.2508 53.9805 42.5034 54.0148 43.6148 53.9349C44.7123 53.856 45.7279 53.662 46.4703 53.3127C46.6472 53.2294 46.8332 53.1266 46.9788 52.9926C47.1174 52.8651 47.3604 52.5696 47.2634 52.1547C47.1829 51.8104 46.9126 51.6328 46.7994 51.5653C46.6542 51.4787 46.4848 51.4123 46.3269 51.3586C46.0096 51.2506 45.584 51.1442 45.1308 51.0308L45.1306 51.0308L45.1047 51.0243C44.6397 50.908 44.1198 50.7779 43.5715 50.6175C42.4564 50.2911 41.2692 49.8511 40.2822 49.1946C39.3029 48.5431 38.5549 47.7024 38.241 46.5724C37.6467 44.4329 38.0773 42.1929 38.4063 40.4814C38.4585 40.2099 38.5082 39.9517 38.5508 39.7092C38.6243 39.2907 38.6844 38.872 38.6688 38.5278C38.6553 38.2302 38.5656 37.642 37.9804 37.4249C37.7299 37.3319 37.4809 37.3516 37.2825 37.3962C37.0805 37.4417 36.8724 37.5264 36.6638 37.631C36.2466 37.8402 35.727 38.1811 35.0884 38.6507C32.9464 40.2257 31.972 41.9628 31.5724 43.4934C31.2394 44.7691 31.3165 45.866 31.394 46.5244C31.3011 46.5978 31.1613 46.6901 30.9622 46.789C30.6084 46.9648 30.1324 47.1285 29.5685 47.2292C28.4424 47.4304 27.011 47.3729 25.5574 46.7122C23.9465 45.9799 23.2192 44.6612 22.9958 43.3167C22.7655 41.9302 23.0882 40.6092 23.4725 40.0137C23.5097 39.956 23.5373 39.8946 23.5556 39.8313ZM21.9214 50.2505C21.8683 50.1565 21.7952 50.0724 21.7038 50.0049C20.3862 49.031 19.8398 47.9858 19.7257 46.9557C19.6082 45.8945 19.9365 44.7291 20.6033 43.5242C20.8729 43.0371 21.1915 42.5549 21.5446 42.0842C21.5262 42.5593 21.553 43.0522 21.6345 43.5429C21.9169 45.2425 22.8735 47.0081 24.9864 47.9685C26.7282 48.7602 28.4485 48.8312 29.8112 48.5877C30.4918 48.4661 31.0945 48.2642 31.5762 48.0249C32.0345 47.7972 32.4625 47.4965 32.6984 47.1319C32.7873 46.9945 32.8245 46.83 32.8033 46.6678L32.7987 46.6326C32.7244 46.0646 32.5919 45.0516 32.9077 43.8419C33.2259 42.6229 34.0145 41.1532 35.9059 39.7625C36.5254 39.307 36.9688 39.0223 37.2792 38.8662C37.2641 39.0239 37.2351 39.223 37.1916 39.4705C37.1546 39.6808 37.1088 39.9157 37.0588 40.1716L37.0587 40.1725C36.7293 41.8598 36.2218 44.4594 36.9113 46.9417C37.3389 48.4808 38.3517 49.5678 39.5178 50.3435C40.6763 51.1142 42.0192 51.601 43.1839 51.9419C43.7585 52.1101 44.3008 52.2457 44.7617 52.361L44.7619 52.361L44.7866 52.3672L44.8507 52.3833C44.4617 52.463 44.0133 52.5227 43.5159 52.5585C42.5004 52.6315 41.3342 52.601 40.1569 52.4662C37.7617 52.1919 35.4849 51.5055 34.3108 50.5272C34.1258 50.373 33.8738 50.3264 33.6459 50.4043C32.5121 50.792 30.2754 51.1642 27.8488 51.1804C25.7302 51.1946 23.5705 50.936 21.9214 50.2505ZM16.9029 17.3998C17.1336 17.5798 17.356 17.7808 17.5478 18.0049C19.5373 16.0897 21.7389 14.5196 24.1792 13.1922C22.1531 12.9515 19.7675 12.7284 17.4404 12.6213C15.6444 12.5387 13.8969 12.5258 12.3833 12.6243C10.8512 12.724 9.63006 12.9342 8.84446 13.2595C8.68856 13.3241 8.56884 13.3829 8.47849 13.4343C8.66544 13.5729 8.95756 13.7402 9.36572 13.934C9.85193 14.1649 10.4412 14.4055 11.0945 14.6624C11.321 14.7514 11.5552 14.8424 11.7943 14.9353C12.9112 15.3692 14.1352 15.8446 15.1773 16.3598C15.8128 16.674 16.4142 17.0187 16.9029 17.3998ZM24.5427 14.7932C23.2512 15.5183 22.037 16.3144 20.8932 17.1982C21.4704 16.9644 21.9999 16.7041 22.5011 16.4022C23.2097 15.9752 23.8753 15.4567 24.5427 14.7932ZM30.7906 37.527C30.881 36.6396 31.1692 35.4095 31.4485 34.4087C32.4708 33.7955 33.5271 33.1602 34.5845 32.5141C34.5681 32.5521 34.551 32.5909 34.5331 32.6305C34.2734 33.2044 33.8876 33.8591 33.4288 34.5296C32.6165 35.7168 31.6144 36.8975 30.775 37.7024C30.7792 37.6468 30.7843 37.5883 30.7906 37.527Z"/>
</mask>
<path fill-rule="evenodd" clip-rule="evenodd" d="M44.4358 9.61231C41.3618 9.48645 37.824 9.85138 35.2001 10.5927C32.5618 11.3381 30.1501 12.1593 27.9387 13.1181C27.9169 13.1686 27.8896 13.2171 27.857 13.2628C26.3552 15.367 24.9679 16.7573 23.3149 17.7531C21.8159 18.6561 20.1438 19.2065 18.0717 19.7061C17.77 20.014 17.4739 20.3307 17.1832 20.6567L17.0272 20.8314C13.7885 24.4597 9.73643 28.9991 10.5692 37.2277C10.8561 40.0623 12.5279 42.9903 14.7102 45.3599C15.8537 46.6016 17.103 47.6528 18.3117 48.4386C18.2832 48.3428 18.2577 48.2459 18.2353 48.1481C18.1127 47.6123 18.0832 47.0581 18.125 46.5024C18.1296 45.2114 18.5728 43.9362 19.2234 42.7606C20.7289 40.0404 23.4977 37.5768 25.5615 36.1376C25.5655 36.1348 25.5695 36.1321 25.5735 36.1294C25.577 36.1271 25.5805 36.1247 25.5841 36.1224L25.5935 36.1164C26.9305 35.2775 28.4923 34.3412 30.1445 33.3506L30.1446 33.3506L30.1452 33.3503L30.8083 32.9526C31.5501 32.2957 32.524 31.5022 33.3837 30.9542C33.8704 30.644 34.404 30.3568 34.869 30.2692C34.9808 30.2481 35.1172 30.233 35.2632 30.2441C37.5796 28.8039 39.813 27.3437 41.6224 25.9732C41.6295 25.9678 41.6366 25.9626 41.6438 25.9575C42.7464 25.1792 44.075 23.7422 45.3146 22.2044C46.5414 20.6824 47.6312 19.1251 48.2553 18.1625C49.184 16.7302 49.882 15.1506 50.2531 13.8073C50.4388 13.1348 50.536 12.5453 50.5486 12.0778C50.5619 11.586 50.4784 11.3368 50.4184 11.2458L50.4158 11.2418C50.1803 10.8798 49.5589 10.4803 48.437 10.1639C47.3576 9.85941 45.9717 9.67519 44.4358 9.61231ZM23.5556 39.8313C24.526 38.8936 25.547 38.0717 26.4481 37.4421C27.4322 36.8249 28.5595 36.1428 29.7674 35.4171C29.6099 36.1022 29.4776 36.7995 29.4177 37.3871C29.3882 37.677 29.3741 37.9595 29.3878 38.2113C29.4006 38.4436 29.4401 38.7349 29.5794 38.9827C29.6549 39.117 29.7746 39.265 29.9592 39.3666C30.1504 39.4719 30.3551 39.4965 30.5413 39.4709C30.8709 39.4257 31.1515 39.2243 31.3648 39.0356C32.3608 38.1546 33.597 36.7275 34.5677 35.3089C35.0542 34.5978 35.4865 33.8708 35.7903 33.1995C36.0476 32.631 36.2474 32.029 36.2565 31.4827C38.5504 30.0524 40.7671 28.5987 42.5644 27.2382C43.8553 26.3237 45.2941 24.7429 46.5425 23.1942C47.8072 21.6253 48.9284 20.0233 49.5786 19.0206C50.5903 17.4603 51.3571 15.7338 51.7733 14.2272C51.9811 13.4748 52.1081 12.7534 52.1252 12.1203C52.1415 11.5124 52.0603 10.8722 51.7365 10.3797C51.1711 9.51237 50.0607 8.98316 48.8652 8.64596C47.6263 8.29653 46.108 8.10231 44.5003 8.03649C41.287 7.90493 37.5797 8.28152 34.7713 9.07498C31.8515 9.89991 29.1744 10.8242 26.7178 11.9338C24.3342 11.5905 20.8693 11.2003 17.5129 11.0459C15.6839 10.9617 13.8735 10.9468 12.2809 11.0505C10.7069 11.1529 9.27351 11.3748 8.24099 11.8024C7.9239 11.9338 7.64385 12.0785 7.41575 12.2447C7.19207 12.4076 6.96967 12.6264 6.84378 12.9216C6.5375 13.64 6.98071 14.2183 7.3123 14.5166C7.66328 14.8323 8.16527 15.1099 8.68922 15.3587C9.22807 15.6145 9.86072 15.8719 10.5173 16.1301C10.7583 16.2249 11.0026 16.3198 11.2482 16.4153L11.2483 16.4153L11.2484 16.4153C12.3639 16.8489 13.5055 17.2926 14.4783 17.7736C15.0689 18.0655 15.5639 18.3556 15.9328 18.6434C16.1746 18.8319 16.334 18.9979 16.4339 19.1376C16.2902 19.2919 16.1476 19.4483 16.0062 19.6068L15.8157 19.8202C12.5582 23.4682 8.09706 28.4638 9.00007 37.3865C9.33373 40.6834 11.2373 43.917 13.5501 46.4284C15.8558 48.9319 18.6937 50.8529 21.055 51.4068C21.0894 51.4148 21.1239 51.4205 21.1583 51.4239C23.1045 52.2962 25.5888 52.5756 27.858 52.5604C30.1659 52.5449 32.3664 52.223 33.7327 51.8236C35.2618 52.9252 37.6988 53.5737 39.9999 53.8372C41.2508 53.9805 42.5034 54.0148 43.6148 53.9349C44.7123 53.856 45.7279 53.662 46.4703 53.3127C46.6472 53.2294 46.8332 53.1266 46.9788 52.9926C47.1174 52.8651 47.3604 52.5696 47.2634 52.1547C47.1829 51.8104 46.9126 51.6328 46.7994 51.5653C46.6542 51.4787 46.4848 51.4123 46.3269 51.3586C46.0096 51.2506 45.584 51.1442 45.1308 51.0308L45.1306 51.0308L45.1047 51.0243C44.6397 50.908 44.1198 50.7779 43.5715 50.6175C42.4564 50.2911 41.2692 49.8511 40.2822 49.1946C39.3029 48.5431 38.5549 47.7024 38.241 46.5724C37.6467 44.4329 38.0773 42.1929 38.4063 40.4814C38.4585 40.2099 38.5082 39.9517 38.5508 39.7092C38.6243 39.2907 38.6844 38.872 38.6688 38.5278C38.6553 38.2302 38.5656 37.642 37.9804 37.4249C37.7299 37.3319 37.4809 37.3516 37.2825 37.3962C37.0805 37.4417 36.8724 37.5264 36.6638 37.631C36.2466 37.8402 35.727 38.1811 35.0884 38.6507C32.9464 40.2257 31.972 41.9628 31.5724 43.4934C31.2394 44.7691 31.3165 45.866 31.394 46.5244C31.3011 46.5978 31.1613 46.6901 30.9622 46.789C30.6084 46.9648 30.1324 47.1285 29.5685 47.2292C28.4424 47.4304 27.011 47.3729 25.5574 46.7122C23.9465 45.9799 23.2192 44.6612 22.9958 43.3167C22.7655 41.9302 23.0882 40.6092 23.4725 40.0137C23.5097 39.956 23.5373 39.8946 23.5556 39.8313ZM21.9214 50.2505C21.8683 50.1565 21.7952 50.0724 21.7038 50.0049C20.3862 49.031 19.8398 47.9858 19.7257 46.9557C19.6082 45.8945 19.9365 44.7291 20.6033 43.5242C20.8729 43.0371 21.1915 42.5549 21.5446 42.0842C21.5262 42.5593 21.553 43.0522 21.6345 43.5429C21.9169 45.2425 22.8735 47.0081 24.9864 47.9685C26.7282 48.7602 28.4485 48.8312 29.8112 48.5877C30.4918 48.4661 31.0945 48.2642 31.5762 48.0249C32.0345 47.7972 32.4625 47.4965 32.6984 47.1319C32.7873 46.9945 32.8245 46.83 32.8033 46.6678L32.7987 46.6326C32.7244 46.0646 32.5919 45.0516 32.9077 43.8419C33.2259 42.6229 34.0145 41.1532 35.9059 39.7625C36.5254 39.307 36.9688 39.0223 37.2792 38.8662C37.2641 39.0239 37.2351 39.223 37.1916 39.4705C37.1546 39.6808 37.1088 39.9157 37.0588 40.1716L37.0587 40.1725C36.7293 41.8598 36.2218 44.4594 36.9113 46.9417C37.3389 48.4808 38.3517 49.5678 39.5178 50.3435C40.6763 51.1142 42.0192 51.601 43.1839 51.9419C43.7585 52.1101 44.3008 52.2457 44.7617 52.361L44.7619 52.361L44.7866 52.3672L44.8507 52.3833C44.4617 52.463 44.0133 52.5227 43.5159 52.5585C42.5004 52.6315 41.3342 52.601 40.1569 52.4662C37.7617 52.1919 35.4849 51.5055 34.3108 50.5272C34.1258 50.373 33.8738 50.3264 33.6459 50.4043C32.5121 50.792 30.2754 51.1642 27.8488 51.1804C25.7302 51.1946 23.5705 50.936 21.9214 50.2505ZM16.9029 17.3998C17.1336 17.5798 17.356 17.7808 17.5478 18.0049C19.5373 16.0897 21.7389 14.5196 24.1792 13.1922C22.1531 12.9515 19.7675 12.7284 17.4404 12.6213C15.6444 12.5387 13.8969 12.5258 12.3833 12.6243C10.8512 12.724 9.63006 12.9342 8.84446 13.2595C8.68856 13.3241 8.56884 13.3829 8.47849 13.4343C8.66544 13.5729 8.95756 13.7402 9.36572 13.934C9.85193 14.1649 10.4412 14.4055 11.0945 14.6624C11.321 14.7514 11.5552 14.8424 11.7943 14.9353C12.9112 15.3692 14.1352 15.8446 15.1773 16.3598C15.8128 16.674 16.4142 17.0187 16.9029 17.3998ZM24.5427 14.7932C23.2512 15.5183 22.037 16.3144 20.8932 17.1982C21.4704 16.9644 21.9999 16.7041 22.5011 16.4022C23.2097 15.9752 23.8753 15.4567 24.5427 14.7932ZM30.7906 37.527C30.881 36.6396 31.1692 35.4095 31.4485 34.4087C32.4708 33.7955 33.5271 33.1602 34.5845 32.5141C34.5681 32.5521 34.551 32.5909 34.5331 32.6305C34.2734 33.2044 33.8876 33.8591 33.4288 34.5296C32.6165 35.7168 31.6144 36.8975 30.775 37.7024C30.7792 37.6468 30.7843 37.5883 30.7906 37.527Z" fill="#F8F9FA"/>
<path d="M35.2001 10.5927L35.6079 12.0362L35.608 12.0362L35.2001 10.5927ZM44.4358 9.6123L44.3744 11.111L44.3744 11.111L44.4358 9.6123ZM27.9387 13.1181L27.342 11.7419C26.9925 11.8935 26.7137 12.1724 26.5623 12.522L27.9387 13.1181ZM27.857 13.2628L29.0779 14.1342L29.0779 14.1342L27.857 13.2628ZM23.3149 17.7531L24.089 19.0379L24.089 19.0379L23.3149 17.7531ZM18.0717 19.7061L17.7201 18.2479C17.4466 18.3138 17.1971 18.4554 17.0002 18.6564L18.0717 19.7061ZM17.1832 20.6567L18.3023 21.6554L18.3025 21.6552L17.1832 20.6567ZM17.0272 20.8314L18.1462 21.8303L18.1463 21.8302L17.0272 20.8314ZM10.5692 37.2277L12.0616 37.0767L12.0616 37.0767L10.5692 37.2277ZM14.7102 45.3599L15.8136 44.3438L15.8136 44.3438L14.7102 45.3599ZM18.3117 48.4386L17.4941 49.6962C18.0213 50.0389 18.7062 50.0164 19.2098 49.64C19.7134 49.2635 19.9288 48.6129 19.7492 48.0103L18.3117 48.4386ZM18.2353 48.1481L16.7731 48.4828L16.7731 48.4828L18.2353 48.1481ZM18.125 46.5024L19.6208 46.6149C19.6235 46.5792 19.6249 46.5434 19.625 46.5077L18.125 46.5024ZM19.2234 42.7606L20.5358 43.4869L20.5358 43.4869L19.2234 42.7606ZM25.5615 36.1376L24.7038 34.907L24.7035 34.9072L25.5615 36.1376ZM25.5735 36.1294L24.7384 34.8833L24.738 34.8836L25.5735 36.1294ZM25.5841 36.1224L24.7779 34.8574L24.7689 34.8632L25.5841 36.1224ZM25.5935 36.1164L24.7962 34.8458L24.7874 34.8514L25.5935 36.1164ZM30.1445 33.3506L29.384 32.0577L29.3732 32.0641L30.1445 33.3506ZM30.1446 33.3506L30.9052 34.6435L30.9144 34.638L30.1446 33.3506ZM30.1452 33.3503L30.915 34.6377L30.9166 34.6367L30.1452 33.3503ZM30.8083 32.9526L31.5797 34.2391C31.6589 34.1916 31.7336 34.1368 31.8027 34.0756L30.8083 32.9526ZM33.3837 30.9542L32.5774 29.6893L32.5774 29.6893L33.3837 30.9542ZM34.869 30.2692L34.5912 28.7952L34.5912 28.7952L34.869 30.2692ZM35.2632 30.2441L35.1499 31.7398C35.4675 31.7639 35.7846 31.6862 36.0551 31.518L35.2632 30.2441ZM41.6224 25.9732L40.7167 24.7775L40.7167 24.7775L41.6224 25.9732ZM41.6438 25.9575L40.7788 24.7321L40.7786 24.7322L41.6438 25.9575ZM45.3146 22.2044L46.4824 23.1458L46.4824 23.1458L45.3146 22.2044ZM48.2553 18.1625L46.9967 17.3464L46.9967 17.3464L48.2553 18.1625ZM50.2531 13.8073L51.6989 14.2067L51.6989 14.2067L50.2531 13.8073ZM50.5486 12.0778L49.0492 12.0375L49.0492 12.0375L50.5486 12.0778ZM50.4184 11.2458L49.1635 12.0675L49.1661 12.0715L50.4184 11.2458ZM50.4157 11.2417L49.1584 12.0597L49.1608 12.0635L50.4157 11.2417ZM48.437 10.1639L48.8442 8.7202L48.8442 8.7202L48.437 10.1639ZM26.4481 37.4421L25.6511 36.1713C25.63 36.1845 25.6093 36.1983 25.5889 36.2125L26.4481 37.4421ZM23.5556 39.8313L22.5132 38.7526C22.3248 38.9347 22.1874 39.1629 22.1146 39.4146L23.5556 39.8313ZM29.7674 35.4171L31.2292 35.7533C31.3641 35.1669 31.1355 34.5567 30.6486 34.2033C30.1617 33.8498 29.5107 33.8215 28.9949 34.1313L29.7674 35.4171ZM29.4177 37.3871L27.9254 37.2351L27.9254 37.2351L29.4177 37.3871ZM29.3878 38.2113L27.8901 38.2932L27.8901 38.2933L29.3878 38.2113ZM29.5794 38.9827L28.2718 39.7176L28.2718 39.7176L29.5794 38.9827ZM29.9592 39.3666L30.6827 38.0527L30.6827 38.0527L29.9592 39.3666ZM30.5413 39.4709L30.3375 37.9848L30.3375 37.9848L30.5413 39.4709ZM31.3648 39.0356L32.3587 40.1591L32.3587 40.1591L31.3648 39.0356ZM34.5677 35.3089L35.8056 36.1559L35.8056 36.1559L34.5677 35.3089ZM35.7903 33.1995L37.1569 33.8179L37.1569 33.8179L35.7903 33.1995ZM36.2565 31.4827L35.4629 30.2099C35.0311 30.4791 34.7652 30.9489 34.7567 31.4576L36.2565 31.4827ZM42.5644 27.2382L41.6973 26.0142C41.6844 26.0233 41.6716 26.0327 41.659 26.0422L42.5644 27.2382ZM46.5425 23.1942L47.7103 24.1355L47.7103 24.1355L46.5425 23.1942ZM49.5786 19.0206L48.32 18.2045L48.32 18.2045L49.5786 19.0206ZM51.7733 14.2272L53.2191 14.6266L53.2191 14.6266L51.7733 14.2272ZM52.1252 12.1203L50.6257 12.0799L50.6257 12.0799L52.1252 12.1203ZM51.7365 10.3797L50.4799 11.1989L50.4831 11.2038L51.7365 10.3797ZM48.8652 8.64596L49.2723 7.20228L49.2723 7.20228L48.8652 8.64596ZM44.5003 8.03649L44.5616 6.53775L44.5616 6.53775L44.5003 8.03649ZM34.7713 9.07498L35.1791 10.5185L35.1791 10.5185L34.7713 9.07498ZM26.7178 11.9338L26.504 13.4185C26.7866 13.4592 27.0751 13.4184 27.3353 13.3008L26.7178 11.9338ZM17.5129 11.0459L17.5818 9.54745L17.5818 9.54745L17.5129 11.0459ZM12.2809 11.0505L12.1835 9.55363L12.1835 9.55363L12.2809 11.0505ZM8.24099 11.8024L8.81494 13.1883L8.81494 13.1883L8.24099 11.8024ZM7.41575 12.2447L8.29887 13.4572L8.29887 13.4572L7.41575 12.2447ZM6.84378 12.9216L5.46397 12.3333L5.46397 12.3333L6.84378 12.9216ZM7.31229 14.5166L8.31542 13.4013L8.31542 13.4013L7.31229 14.5166ZM8.68921 15.3587L8.04579 16.7136L8.0458 16.7136L8.68921 15.3587ZM10.5173 16.1301L9.96841 17.5261L9.96842 17.5261L10.5173 16.1301ZM11.2482 16.4153L11.8007 15.0207L11.7916 15.0172L11.2482 16.4153ZM11.2483 16.4153L11.8054 15.0226L11.8009 15.0208L11.2483 16.4153ZM11.2484 16.4153L10.6913 17.8081C10.6958 17.8099 10.7004 17.8117 10.705 17.8135L11.2484 16.4153ZM14.4783 17.7736L15.1431 16.4289L15.1431 16.4289L14.4783 17.7736ZM15.9328 18.6434L15.0102 19.8261L15.0102 19.8261L15.9328 18.6434ZM16.4339 19.1376L17.5316 20.1598C18.018 19.6376 18.0691 18.8451 17.6538 18.2647L16.4339 19.1376ZM16.0062 19.6068L17.1252 20.6057L17.1256 20.6053L16.0062 19.6068ZM15.8157 19.8202L16.9345 20.8193L16.9347 20.8192L15.8157 19.8202ZM9.00007 37.3865L10.4924 37.2355L9.00007 37.3865ZM13.5501 46.4284L12.4468 47.4445L12.4468 47.4445L13.5501 46.4284ZM21.055 51.4068L21.3977 49.9464L21.3976 49.9464L21.055 51.4068ZM21.1583 51.4239L21.7718 50.0551C21.6241 49.9889 21.4665 49.947 21.3054 49.9311L21.1583 51.4239ZM27.858 52.5604L27.8681 54.0603L27.8681 54.0603L27.858 52.5604ZM33.7327 51.8236L34.6095 50.6065C34.2344 50.3363 33.7556 50.2541 33.3119 50.3839L33.7327 51.8236ZM39.9999 53.8372L40.1706 52.347L40.1706 52.347L39.9999 53.8372ZM43.6148 53.9349L43.5073 52.4388L43.5073 52.4388L43.6148 53.9349ZM46.4703 53.3127L47.109 54.6699L47.109 54.6699L46.4703 53.3127ZM46.9788 52.9926L45.9632 51.8888L45.9632 51.8888L46.9788 52.9926ZM47.2634 52.1547L45.8028 52.4963L45.8028 52.4963L47.2634 52.1547ZM46.7994 51.5653L47.5677 50.277L47.5677 50.277L46.7994 51.5653ZM46.3268 51.3585L45.8439 52.7787L45.8439 52.7787L46.3268 51.3585ZM45.1307 51.0308L44.6997 52.4676C44.7219 52.4742 44.7443 52.4804 44.7668 52.486L45.1307 51.0308ZM45.1306 51.0308L45.5617 49.594C45.5395 49.5874 45.5171 49.5812 45.4946 49.5756L45.1306 51.0308ZM45.1047 51.0243L45.4687 49.5691L45.4687 49.5691L45.1047 51.0243ZM43.5715 50.6175L43.1502 52.0571L43.1502 52.0571L43.5715 50.6175ZM40.2822 49.1946L41.113 47.9456L41.113 47.9456L40.2822 49.1946ZM38.241 46.5724L39.6863 46.1709L39.6863 46.1709L38.241 46.5724ZM38.4063 40.4814L36.9333 40.1982L36.9333 40.1982L38.4063 40.4814ZM38.5508 39.7092L40.0281 39.9688L40.0281 39.9688L38.5508 39.7092ZM38.6688 38.5278L40.1673 38.4599L40.1673 38.4599L38.6688 38.5278ZM37.9804 37.4249L38.5023 36.0186L38.5023 36.0186L37.9804 37.4249ZM37.2825 37.3962L37.6119 38.8596L37.6119 38.8596L37.2825 37.3962ZM36.6638 37.631L35.9913 36.2902L35.9912 36.2902L36.6638 37.631ZM35.0884 38.6507L35.977 39.8592L35.977 39.8592L35.0884 38.6507ZM31.5724 43.4934L33.0238 43.8723L33.0238 43.8723L31.5724 43.4934ZM31.394 46.5244L32.3231 47.7021C32.7324 47.3792 32.9447 46.8669 32.8838 46.3491L31.394 46.5244ZM30.9622 46.789L30.2949 45.4456L30.2949 45.4456L30.9622 46.789ZM29.5685 47.2292L29.8323 48.7058L29.8323 48.7058L29.5685 47.2292ZM25.5574 46.7122L24.9367 48.0777L24.9367 48.0777L25.5574 46.7122ZM22.9958 43.3167L24.4755 43.0708L24.4755 43.0708L22.9958 43.3167ZM23.4725 40.0137L22.212 39.2004L22.212 39.2005L23.4725 40.0137ZM21.7038 50.0049L22.5954 48.7986L22.5954 48.7986L21.7038 50.0049ZM21.9214 50.2505L20.6158 50.989C20.7803 51.2798 21.0371 51.5073 21.3456 51.6356L21.9214 50.2505ZM19.7257 46.9557L18.2348 47.1208L18.2348 47.1208L19.7257 46.9557ZM20.6033 43.5242L19.2909 42.7979L19.2909 42.7979L20.6033 43.5242ZM21.5446 42.0842L23.0435 42.1422C23.0688 41.4864 22.6649 40.8902 22.0464 40.6707C21.4279 40.4511 20.7384 40.6591 20.3446 41.1842L21.5446 42.0842ZM21.6345 43.5429L23.1142 43.297L23.1142 43.297L21.6345 43.5429ZM24.9863 47.9685L24.3656 49.334L24.3656 49.334L24.9863 47.9685ZM29.8112 48.5877L30.0751 50.0643L30.0751 50.0643L29.8112 48.5877ZM31.5762 48.0249L32.2435 49.3682L32.2435 49.3682L31.5762 48.0249ZM32.6984 47.1319L33.9578 47.9468L33.9578 47.9467L32.6984 47.1319ZM32.8033 46.6678L34.2907 46.4738L34.2907 46.4734L32.8033 46.6678ZM32.7987 46.6326L34.2861 46.4382L34.286 46.438L32.7987 46.6326ZM32.9077 43.8419L34.359 44.2208L34.359 44.2208L32.9077 43.8419ZM35.9059 39.7625L35.0173 38.554L35.0173 38.554L35.9059 39.7625ZM37.2792 38.8662L38.7724 39.0088C38.8243 38.4652 38.5767 37.9364 38.1261 37.6281C37.6755 37.3199 37.0929 37.2808 36.6051 37.5262L37.2792 38.8662ZM37.1916 39.4705L38.669 39.73L38.669 39.73L37.1916 39.4705ZM37.0588 40.1716L35.5866 39.8842L35.5858 39.8884L37.0588 40.1716ZM37.0587 40.1725L38.5309 40.4599L38.5317 40.4558L37.0587 40.1725ZM36.9113 46.9417L35.4661 47.3432L35.4661 47.3432L36.9113 46.9417ZM39.5178 50.3435L40.3487 49.0946L40.3487 49.0946L39.5178 50.3435ZM43.1839 51.9419L43.6052 50.5023L43.6052 50.5023L43.1839 51.9419ZM44.7617 52.361L44.3977 53.8162C44.4066 53.8184 44.4155 53.8205 44.4244 53.8226L44.7617 52.361ZM44.7619 52.361L45.1258 50.9059C45.117 50.9037 45.1081 50.9015 45.0992 50.8995L44.7619 52.361ZM44.7866 52.3672L45.1508 50.9121L45.1506 50.9121L44.7866 52.3672ZM44.8507 52.3833L45.1518 53.8528C45.8378 53.7122 46.3353 53.1158 46.3504 52.4157C46.3655 51.7156 45.8942 51.0982 45.2149 50.9282L44.8507 52.3833ZM43.5159 52.5585L43.6234 54.0546L43.6234 54.0546L43.5159 52.5585ZM40.1569 52.4662L39.9863 53.9565L39.9863 53.9565L40.1569 52.4662ZM34.3108 50.5272L33.3505 51.6795L33.3505 51.6795L34.3108 50.5272ZM33.6459 50.4043L34.1312 51.8237L34.1312 51.8237L33.6459 50.4043ZM27.8488 51.1804L27.8588 52.6804L27.8588 52.6804L27.8488 51.1804ZM17.5478 18.0049L16.4082 18.9803C16.6768 19.2941 17.0629 19.4832 17.4755 19.5032C17.888 19.5231 18.2906 19.372 18.5881 19.0855L17.5478 18.0049ZM16.9028 17.3998L15.9803 18.5825L15.9803 18.5825L16.9028 17.3998ZM24.1792 13.1922L24.896 14.5098C25.4697 14.1978 25.7756 13.5503 25.6522 12.9089C25.5289 12.2675 25.0047 11.7797 24.3562 11.7026L24.1792 13.1922ZM17.4404 12.6213L17.3714 14.1197L17.3714 14.1197L17.4404 12.6213ZM12.3833 12.6243L12.2859 11.1274L12.2859 11.1274L12.3833 12.6243ZM8.84446 13.2595L9.41841 14.6454L9.41841 14.6454L8.84446 13.2595ZM8.47848 13.4343L7.73756 12.13C7.2966 12.3805 7.01208 12.8369 6.98126 13.3431C6.95044 13.8493 7.17749 14.3368 7.5848 14.639L8.47848 13.4343ZM9.36572 13.934L10.0091 12.579L10.0091 12.579L9.36572 13.934ZM11.0945 14.6624L11.6434 13.2664L11.6434 13.2664L11.0945 14.6624ZM11.7943 14.9353L12.3375 13.5371L12.3375 13.5371L11.7943 14.9353ZM15.1773 16.3598L15.842 15.0151L15.842 15.0151L15.1773 16.3598ZM20.8932 17.1982L19.976 16.0113C19.3829 16.4696 19.2192 17.2954 19.5925 17.9454C19.9659 18.5953 20.7617 18.8699 21.4564 18.5885L20.8932 17.1982ZM24.5427 14.7932L25.6002 15.857C26.1322 15.3281 26.1918 14.4876 25.7396 13.889C25.2874 13.2905 24.4626 13.118 23.8084 13.4852L24.5427 14.7932ZM22.5011 16.4022L21.727 15.1173L22.5011 16.4022ZM31.4485 34.4087L30.6769 33.1224C30.3478 33.3198 30.1069 33.6358 30.0037 34.0055L31.4485 34.4087ZM30.7906 37.527L29.2983 37.375L29.2983 37.375L30.7906 37.527ZM34.5845 32.5141L35.9623 33.1071C36.2206 32.507 36.0608 31.8088 35.5672 31.3808C35.0737 30.9528 34.3599 30.8935 33.8024 31.2341L34.5845 32.5141ZM34.5331 32.6305L35.8997 33.249L35.8997 33.2489L34.5331 32.6305ZM33.4288 34.5296L32.1908 33.6826L32.1908 33.6826L33.4288 34.5296ZM30.775 37.7024L29.2792 37.5913C29.2332 38.2109 29.5738 38.7947 30.1359 39.0594C30.6979 39.3241 31.3649 39.215 31.8133 38.785L30.775 37.7024ZM35.608 12.0362C38.0563 11.3445 41.433 10.9906 44.3744 11.111L44.4971 8.11356C41.2906 7.98228 37.5916 8.3583 34.7923 9.1492L35.608 12.0362ZM28.5355 14.4943C30.6697 13.5689 33.0151 12.7687 35.6079 12.0362L34.7923 9.1492C32.1085 9.90746 29.6305 10.7496 27.342 11.7419L28.5355 14.4943ZM29.0779 14.1342C29.1725 14.0017 29.2517 13.8608 29.3152 13.7143L26.5623 12.522C26.5821 12.4763 26.6067 12.4325 26.636 12.3914L29.0779 14.1342ZM24.089 19.0379C25.9732 17.9028 27.5016 16.3428 29.0779 14.1342L26.636 12.3914C25.2088 14.3912 23.9625 15.6118 22.5409 16.4682L24.089 19.0379ZM18.4233 21.1643C20.5501 20.6515 22.3959 20.0579 24.089 19.0379L22.5409 16.4682C21.236 17.2543 19.7374 17.7614 17.7201 18.2479L18.4233 21.1643ZM18.3025 21.6552C18.5778 21.3466 18.858 21.047 19.1432 20.7558L17.0002 18.6564C16.6821 18.9811 16.37 19.3149 16.0638 19.6582L18.3025 21.6552ZM18.1463 21.8302L18.3023 21.6554L16.064 19.6579L15.9081 19.8327L18.1463 21.8302ZM12.0616 37.0767C11.2986 29.5381 14.9307 25.4327 18.1462 21.8303L15.9082 19.8325C12.6464 23.4867 8.17421 28.4601 9.07681 37.3787L12.0616 37.0767ZM15.8136 44.3438C13.7555 42.1091 12.3039 39.4717 12.0616 37.0767L9.07681 37.3787C9.40816 40.6529 11.3003 43.8716 13.6069 46.3761L15.8136 44.3438ZM19.1293 47.181C18.0319 46.4675 16.8776 45.4991 15.8136 44.3438L13.6069 46.3761C14.8299 47.7041 16.174 48.838 17.4941 49.6962L19.1293 47.181ZM19.7492 48.0103C19.7301 47.9459 19.7128 47.8803 19.6975 47.8133L16.7731 48.4828C16.8026 48.6115 16.8362 48.7396 16.8741 48.8669L19.7492 48.0103ZM19.6975 47.8133C19.6134 47.446 19.5884 47.0449 19.6208 46.6149L16.6292 46.3898C16.578 47.0713 16.6119 47.7786 16.7731 48.4828L19.6975 47.8133ZM17.911 42.0342C17.1855 43.3452 16.6308 44.8715 16.625 46.4971L19.625 46.5077C19.6284 45.5514 19.9601 44.5273 20.5358 43.4869L17.911 42.0342ZM24.7035 34.9072C22.5508 36.4084 19.574 39.0294 17.911 42.0342L20.5358 43.4869C21.8837 41.0513 24.4445 38.7452 26.4195 37.3679L24.7035 34.9072ZM24.738 34.8836C24.7264 34.8914 24.715 34.8992 24.7038 34.907L26.4192 37.3682C26.4159 37.3705 26.4125 37.3728 26.4089 37.3752L24.738 34.8836ZM24.7689 34.8632C24.7586 34.8699 24.7484 34.8766 24.7384 34.8833L26.4085 37.3755C26.4055 37.3775 26.4025 37.3795 26.3992 37.3816L24.7689 34.8632ZM24.7874 34.8514L24.778 34.8574L26.3902 37.3874L26.3996 37.3814L24.7874 34.8514ZM29.3732 32.0641C27.7247 33.0524 26.1488 33.9972 24.7962 34.8458L26.3907 37.387C27.7122 36.5579 29.2598 35.6299 30.9158 34.6372L29.3732 32.0641ZM29.3841 32.0577L29.384 32.0577L30.9051 34.6435L30.9052 34.6435L29.3841 32.0577ZM29.3754 32.0628L29.3748 32.0632L30.9144 34.638L30.915 34.6377L29.3754 32.0628ZM30.0369 31.6662L29.3738 32.0638L30.9166 34.6367L31.5797 34.2391L30.0369 31.6662ZM32.5774 29.6893C31.6214 30.2988 30.58 31.1512 29.8138 31.8297L31.8027 34.0756C32.5202 33.4403 33.4266 32.7057 34.19 32.2191L32.5774 29.6893ZM34.5912 28.7952C33.8213 28.9402 33.0789 29.3697 32.5774 29.6893L34.19 32.2191C34.6618 31.9184 34.9866 31.7734 35.1467 31.7433L34.5912 28.7952ZM35.3765 28.7484C35.0619 28.7245 34.7884 28.758 34.5912 28.7952L35.1467 31.7433C35.1582 31.7411 35.1648 31.7405 35.1667 31.7403C35.1688 31.7401 35.1628 31.7408 35.1499 31.7398L35.3765 28.7484ZM40.7167 24.7775C38.963 26.1059 36.776 27.5373 34.4712 28.9702L36.0551 31.518C38.3832 30.0706 40.663 28.5816 42.5281 27.1689L40.7167 24.7775ZM40.7786 24.7322C40.7578 24.7469 40.7371 24.762 40.7167 24.7775L42.5281 27.1689C42.5218 27.1737 42.5154 27.1783 42.509 27.1829L40.7786 24.7322ZM44.1468 21.263C42.9187 22.7865 41.6994 24.0822 40.7788 24.7321L42.5088 27.183C43.7934 26.2762 45.2313 24.6979 46.4824 23.1458L44.1468 21.263ZM46.9967 17.3464C46.3974 18.2708 45.3376 19.7857 44.1468 21.263L46.4824 23.1458C47.7452 21.5791 48.865 19.9793 49.5139 18.9786L46.9967 17.3464ZM48.8072 13.4079C48.479 14.5959 47.8465 16.0359 46.9967 17.3464L49.5139 18.9786C50.5215 17.4246 51.2849 15.7053 51.6989 14.2067L48.8072 13.4079ZM49.0492 12.0375C49.0408 12.3472 48.972 12.8114 48.8072 13.4079L51.6989 14.2067C51.9057 13.4582 52.0313 12.7433 52.0481 12.1182L49.0492 12.0375ZM49.1661 12.0715C49.132 12.0198 49.1082 11.9751 49.0922 11.9423C49.0759 11.9087 49.0647 11.8809 49.0574 11.8608C49.0429 11.8212 49.0389 11.7997 49.0394 11.8023C49.0406 11.8082 49.0534 11.8799 49.0492 12.0375L52.0481 12.1182C52.0643 11.5156 51.9828 10.8935 51.6707 10.4201L49.1661 12.0715ZM49.1608 12.0635L49.1635 12.0675L51.6733 10.4241L51.6707 10.42L49.1608 12.0635ZM48.0299 11.6075C48.5082 11.7425 48.8247 11.8802 49.0178 11.9899C49.2265 12.1085 49.2191 12.153 49.1584 12.0597L51.6731 10.4238C51.377 9.96863 50.9412 9.63236 50.4999 9.38159C50.0429 9.12191 49.4878 8.90171 48.8442 8.7202L48.0299 11.6075ZM44.3744 11.111C45.8421 11.1711 47.102 11.3459 48.0299 11.6075L48.8442 8.7202C47.6131 8.37296 46.1013 8.17924 44.4971 8.11356L44.3744 11.111ZM25.5889 36.2125C24.6261 36.8853 23.5434 37.7571 22.5132 38.7526L24.5979 40.91C25.5086 40.03 26.4678 39.2582 27.3072 38.6717L25.5889 36.2125ZM28.9949 34.1313C27.7864 34.8573 26.6484 35.5458 25.6511 36.1713L27.2451 38.7128C28.216 38.1039 29.3326 37.4282 30.5398 36.703L28.9949 34.1313ZM30.91 37.5392C30.9609 37.0397 31.0781 36.4105 31.2292 35.7533L28.3055 35.081C28.1416 35.794 27.9943 36.5592 27.9254 37.2351L30.91 37.5392ZM30.8856 38.1294C30.8777 37.9847 30.8847 37.7871 30.91 37.5392L27.9254 37.2351C27.8916 37.5669 27.8704 37.9342 27.8901 38.2932L30.8856 38.1294ZM30.8871 38.2478C30.9091 38.2869 30.9083 38.3017 30.9019 38.2723C30.8957 38.2438 30.8894 38.1982 30.8856 38.1294L27.8901 38.2933C27.9064 38.5922 27.9608 39.1643 28.2718 39.7176L30.8871 38.2478ZM30.6827 38.0527C30.8041 38.1195 30.8644 38.2074 30.8871 38.2478L28.2718 39.7176C28.4455 40.0266 28.7451 40.4105 29.2356 40.6806L30.6827 38.0527ZM30.3375 37.9848C30.4251 37.9728 30.5534 37.9815 30.6827 38.0527L29.2356 40.6806C29.7473 40.9623 30.285 41.0201 30.7452 40.957L30.3375 37.9848ZM30.371 37.9121C30.3402 37.9393 30.3142 37.9606 30.2921 37.9772C30.2698 37.9939 30.255 38.0032 30.2473 38.0077C30.2294 38.018 30.262 37.9952 30.3375 37.9848L30.7452 40.957C31.5306 40.8493 32.0909 40.396 32.3587 40.1591L30.371 37.9121ZM33.3297 34.4619C32.4141 35.8001 31.2569 37.1284 30.371 37.9121L32.3587 40.1591C33.4647 39.1807 34.7799 37.655 35.8056 36.1559L33.3297 34.4619ZM34.4238 32.581C34.1679 33.1465 33.7861 33.7948 33.3297 34.4619L35.8056 36.1559C36.3223 35.4008 36.8052 34.5952 37.1569 33.8179L34.4238 32.581ZM34.7567 31.4576C34.7528 31.6961 34.6531 32.0742 34.4238 32.581L37.1569 33.8179C37.4421 33.1879 37.742 32.3619 37.7563 31.5078L34.7567 31.4576ZM41.659 26.0422C39.9162 27.3615 37.7447 28.7871 35.4629 30.2099L37.0502 32.7555C39.356 31.3178 41.6181 29.8358 43.4697 28.4342L41.659 26.0422ZM45.3746 22.2528C44.1385 23.7864 42.808 25.2274 41.6973 26.0142L43.4314 28.4622C44.9026 27.4201 46.4497 25.6994 47.7103 24.1355L45.3746 22.2528ZM48.32 18.2045C47.6946 19.169 46.6033 20.7285 45.3746 22.2528L47.7103 24.1355C49.011 22.522 50.1622 20.8776 50.8372 19.8366L48.32 18.2045ZM50.3274 13.8278C49.9541 15.1791 49.2528 16.766 48.32 18.2045L50.8372 19.8367C51.9278 18.1547 52.76 16.2885 53.2191 14.6266L50.3274 13.8278ZM50.6257 12.0799C50.6129 12.5555 50.5143 13.1515 50.3274 13.8278L53.2191 14.6266C53.448 13.7981 53.6034 12.9514 53.6246 12.1606L50.6257 12.0799ZM50.4831 11.2038C50.5561 11.3148 50.6391 11.5834 50.6257 12.0799L53.6246 12.1606C53.644 11.4414 53.5644 10.4297 52.9898 9.55571L50.4831 11.2038ZM48.458 10.0896C49.5821 10.4067 50.2278 10.8121 50.4799 11.1989L52.993 9.56059C52.1143 8.2126 50.5393 7.55963 49.2723 7.20228L48.458 10.0896ZM44.4389 9.53523C45.9783 9.59826 47.3707 9.78297 48.458 10.0896L49.2723 7.20228C47.8819 6.8101 46.2376 6.60636 44.5616 6.53775L44.4389 9.53523ZM35.1791 10.5185C37.812 9.7746 41.3581 9.4091 44.4389 9.53523L44.5616 6.53775C41.2158 6.40076 37.3474 6.78843 34.3635 7.63148L35.1791 10.5185ZM27.3353 13.3008C29.7056 12.2301 32.3085 11.3295 35.1791 10.5185L34.3635 7.63148C31.3945 8.47031 28.6432 9.41817 26.1003 10.5668L27.3353 13.3008ZM17.4439 12.5443C20.7406 12.696 24.1557 13.0803 26.504 13.4185L26.9317 10.4492C24.5126 10.1007 20.998 9.70468 17.5818 9.54745L17.4439 12.5443ZM12.3783 12.5473C13.8958 12.4485 15.6463 12.4615 17.4439 12.5443L17.5818 9.54745C15.7215 9.46183 13.8512 9.44508 12.1835 9.55363L12.3783 12.5473ZM8.81494 13.1883C9.6128 12.8578 10.8445 12.6471 12.3783 12.5473L12.1835 9.55363C10.5692 9.65869 8.93421 9.89178 7.66703 10.4166L8.81494 13.1883ZM8.29887 13.4572C8.3975 13.3853 8.56078 13.2935 8.81494 13.1883L7.66703 10.4166C7.28701 10.574 6.8902 10.7718 6.53262 11.0322L8.29887 13.4572ZM8.22359 13.5099C8.2133 13.5341 8.2052 13.5402 8.21533 13.5288C8.22678 13.5159 8.25209 13.4912 8.29887 13.4572L6.53262 11.0322C6.18815 11.2831 5.73524 11.6971 5.46397 12.3333L8.22359 13.5099ZM8.31542 13.4013C8.28631 13.3751 8.26025 13.3475 8.24085 13.3225C8.22107 13.2971 8.21827 13.2873 8.22205 13.2963C8.22698 13.3081 8.23952 13.344 8.24075 13.3976C8.24135 13.4236 8.23908 13.4484 8.23483 13.4703C8.2306 13.4921 8.22543 13.5056 8.22359 13.5099L5.46397 12.3333C4.75558 13.9947 5.86838 15.2353 6.30917 15.6318L8.31542 13.4013ZM9.33264 14.0037C8.83137 13.7656 8.496 13.5638 8.31542 13.4013L6.30917 15.6318C6.83056 16.1008 7.49917 16.4541 8.04579 16.7136L9.33264 14.0037ZM11.0663 14.7342C10.4129 14.4772 9.82144 14.2358 9.33263 14.0037L8.0458 16.7136C8.63468 16.9933 9.30854 17.2666 9.96841 17.5261L11.0663 14.7342ZM11.7916 15.0172C11.5455 14.9215 11.304 14.8276 11.0663 14.7342L9.96842 17.5261C10.2126 17.6221 10.4597 17.7181 10.7048 17.8134L11.7916 15.0172ZM11.8009 15.0208L11.8007 15.0207L10.6956 17.8098L10.6958 17.8098L11.8009 15.0208ZM11.8055 15.0226L11.8054 15.0226L10.6912 17.808L10.6913 17.8081L11.8055 15.0226ZM15.1431 16.4289C14.0992 15.9129 12.8917 15.4447 11.7918 15.0172L10.705 17.8135C11.836 18.2531 12.9117 18.6723 13.8136 19.1182L15.1431 16.4289ZM16.8554 17.4606C16.3726 17.084 15.7763 16.742 15.1431 16.4289L13.8136 19.1182C14.3615 19.3891 14.7552 19.6272 15.0102 19.8261L16.8554 17.4606ZM17.6538 18.2647C17.4473 17.976 17.1747 17.7097 16.8554 17.4606L15.0102 19.8261C15.1744 19.9542 15.2207 20.0198 15.214 20.0104L17.6538 18.2647ZM17.1256 20.6053C17.2599 20.4548 17.3952 20.3063 17.5316 20.1598L15.3362 18.1153C15.1852 18.2775 15.0354 18.4418 14.8869 18.6083L17.1256 20.6053ZM16.9347 20.8192L17.1252 20.6057L14.8872 18.6079L14.6967 18.8213L16.9347 20.8192ZM10.4924 37.2355C9.65902 29.0003 13.7038 24.4373 16.9345 20.8193L14.6969 18.8211C11.4125 22.499 6.5351 27.9273 7.50769 37.5375L10.4924 37.2355ZM14.6535 45.4122C12.4647 43.0355 10.7816 40.0926 10.4924 37.2355L7.50769 37.5375C7.88585 41.2742 10.0099 44.7985 12.4468 47.4445L14.6535 45.4122ZM21.3976 49.9464C19.4386 49.4869 16.8487 47.7958 14.6535 45.4122L12.4468 47.4445C14.8629 50.068 17.9489 52.2189 20.7125 52.8671L21.3976 49.9464ZM21.3054 49.9311C21.3364 49.9342 21.3673 49.9393 21.3977 49.9464L20.7124 52.8671C20.8116 52.8904 20.9114 52.9068 21.0113 52.9167L21.3054 49.9311ZM27.848 51.0604C25.6685 51.075 23.4331 50.7997 21.7718 50.0551L20.5448 52.7927C22.7758 53.7926 25.5092 54.0761 27.8681 54.0603L27.848 51.0604ZM33.3119 50.3839C32.1068 50.7361 30.0491 51.0457 27.848 51.0604L27.8681 54.0603C30.2826 54.0442 32.6259 53.7099 34.1536 53.2633L33.3119 50.3839ZM40.1706 52.347C37.9553 52.0933 35.8261 51.483 34.6095 50.6065L32.8559 53.0407C34.6976 54.3674 37.4423 55.0542 39.8293 55.3275L40.1706 52.347ZM43.5073 52.4388C42.5002 52.5112 41.3414 52.481 40.1706 52.347L39.8293 55.3275C41.1601 55.4799 42.5066 55.5185 43.7224 55.4311L43.5073 52.4388ZM45.8316 51.9554C45.3331 52.19 44.5306 52.3652 43.5073 52.4388L43.7224 55.4311C44.8941 55.3468 46.1226 55.134 47.109 54.6699L45.8316 51.9554ZM45.9632 51.8888C45.9814 51.872 45.9836 51.8738 45.9563 51.8904C45.9299 51.9065 45.8902 51.9279 45.8316 51.9554L47.109 54.6699C47.3292 54.5663 47.6796 54.3862 47.9945 54.0965L45.9632 51.8888ZM45.8028 52.4963C45.7634 52.3277 45.7967 52.1621 45.8496 52.0485C45.892 51.9573 45.9405 51.9097 45.9632 51.8888L47.9945 54.0965C48.2711 53.842 49.0078 53.0266 48.724 51.8131L45.8028 52.4963ZM46.0311 52.8536C46.0392 52.8584 46.0037 52.839 45.9601 52.7935C45.9113 52.7425 45.837 52.6425 45.8028 52.4963L48.724 51.8131C48.4957 50.8369 47.7462 50.3835 47.5677 50.277L46.0311 52.8536ZM45.8439 52.7787C45.9005 52.7979 45.9452 52.8148 45.9805 52.8298C46.0167 52.8452 46.0315 52.8539 46.0311 52.8536L47.5677 50.277C47.2874 50.1098 47.001 50.0034 46.8098 49.9384L45.8439 52.7787ZM44.7668 52.486C45.2426 52.605 45.5987 52.6953 45.8439 52.7787L46.8098 49.9384C46.4204 49.806 45.9253 49.6833 45.4947 49.5756L44.7668 52.486ZM44.6996 52.4675L44.6997 52.4676L45.5618 49.5941L45.5617 49.594L44.6996 52.4675ZM44.7407 52.4794L44.7666 52.4859L45.4946 49.5756L45.4687 49.5691L44.7407 52.4794ZM43.1502 52.0571C43.731 52.227 44.2783 52.3638 44.7407 52.4794L45.4687 49.5691C45.0011 49.4522 44.5086 49.3288 43.9928 49.1778L43.1502 52.0571ZM39.4514 50.4435C40.6248 51.2241 41.9813 51.715 43.1502 52.0571L43.9929 49.1778C42.9315 48.8672 41.9135 48.4782 41.113 47.9456L39.4514 50.4435ZM36.7957 46.9738C37.233 48.548 38.2683 49.6565 39.4514 50.4435L41.113 47.9456C40.3375 47.4298 39.8767 46.8567 39.6863 46.1709L36.7957 46.9738ZM36.9333 40.1982C36.6143 41.8579 36.0927 44.4431 36.7957 46.9738L39.6863 46.1709C39.2007 44.4228 39.5404 42.5279 39.8794 40.7646L36.9333 40.1982ZM37.0734 39.4497C37.0333 39.6781 36.986 39.924 36.9333 40.1982L39.8794 40.7646C39.9311 40.4957 39.9831 40.2252 40.0281 39.9688L37.0734 39.4497ZM37.1703 38.5957C37.1776 38.7566 37.1476 39.0275 37.0734 39.4497L40.0281 39.9688C40.101 39.5539 40.1912 38.9875 40.1673 38.4599L37.1703 38.5957ZM37.4586 38.8312C37.4025 38.8104 37.3356 38.7706 37.2757 38.711C37.2193 38.655 37.1897 38.6022 37.1763 38.5731C37.1639 38.5462 37.1631 38.5348 37.1652 38.5458C37.1672 38.5558 37.1693 38.5726 37.1703 38.5957L40.1673 38.4599C40.1512 38.1062 40.0301 36.5855 38.5023 36.0186L37.4586 38.8312ZM37.6119 38.8596C37.6283 38.8559 37.6221 38.8591 37.5977 38.8589C37.5707 38.8586 37.5202 38.854 37.4586 38.8312L38.5023 36.0186C37.8781 35.7869 37.3065 35.8533 36.9531 35.9328L37.6119 38.8596ZM37.3363 38.9718C37.4866 38.8964 37.5737 38.8682 37.6119 38.8596L36.9531 35.9328C36.5873 36.0152 36.2581 36.1563 35.9913 36.2902L37.3363 38.9718ZM35.977 39.8592C36.5971 39.4032 37.0349 39.1229 37.3363 38.9718L35.9912 36.2902C35.4584 36.5575 34.857 36.959 34.1998 37.4422L35.977 39.8592ZM33.0238 43.8723C33.3349 42.6803 34.1074 41.2339 35.977 39.8592L34.1998 37.4422C31.7855 39.2175 30.609 41.2453 30.121 43.1145L33.0238 43.8723ZM32.8838 46.3491C32.8162 45.7755 32.7581 44.8899 33.0238 43.8723L30.121 43.1145C29.7206 44.6484 29.8168 45.9565 29.9043 46.6998L32.8838 46.3491ZM31.6296 48.1324C31.9095 47.9933 32.1391 47.8472 32.3231 47.7021L30.465 45.3468C30.465 45.3467 30.4618 45.3493 30.4548 45.3542C30.4479 45.359 30.4376 45.366 30.4235 45.3747C30.3954 45.3923 30.3533 45.4166 30.2949 45.4456L31.6296 48.1324ZM29.8323 48.7058C30.5231 48.5824 31.1368 48.3772 31.6296 48.1324L30.2949 45.4456C30.08 45.5523 29.7416 45.6745 29.3047 45.7526L29.8323 48.7058ZM24.9367 48.0777C26.7035 48.8808 28.4489 48.953 29.8323 48.7058L29.3047 45.7526C28.4359 45.9078 27.3185 45.865 26.1781 45.3466L24.9367 48.0777ZM21.5161 43.5626C21.8039 45.2947 22.7814 47.098 24.9367 48.0777L26.1781 45.3466C25.1116 44.8618 24.6345 44.0278 24.4755 43.0708L21.5161 43.5626ZM22.212 39.2005C21.5889 40.1664 21.2367 41.8808 21.5161 43.5626L24.4755 43.0708C24.3907 42.5603 24.4075 42.0537 24.4817 41.6241C24.56 41.1715 24.6842 40.9024 24.7329 40.8269L22.212 39.2005ZM22.1146 39.4146C22.1364 39.3394 22.1691 39.2671 22.212 39.2004L24.7329 40.8269C24.8502 40.645 24.9382 40.4497 24.9965 40.248L22.1146 39.4146ZM20.8122 51.2111C20.7309 51.151 20.6642 51.0746 20.6158 50.989L23.227 49.512C23.0723 49.2384 22.8593 48.9937 22.5954 48.7986L20.8122 51.2111ZM18.2348 47.1208C18.4019 48.6296 19.2135 50.0294 20.8123 51.2111L22.5954 48.7986C21.559 48.0326 21.2777 47.342 21.2166 46.7906L18.2348 47.1208ZM19.2909 42.7979C18.5393 44.156 18.0708 45.6396 18.2348 47.1208L21.2166 46.7906C21.1456 46.1494 21.3338 45.3021 21.9157 44.2506L19.2909 42.7979ZM20.3446 41.1842C19.9572 41.7006 19.5992 42.2408 19.2909 42.7979L21.9157 44.2506C22.1466 43.8334 22.4258 43.4092 22.7445 42.9843L20.3446 41.1842ZM23.1142 43.297C23.0504 42.9131 23.0287 42.5223 23.0435 42.1422L20.0457 42.0262C20.0236 42.5963 20.0555 43.1913 20.1548 43.7887L23.1142 43.297ZM25.6071 46.6029C24.0408 45.891 23.3327 44.6119 23.1142 43.297L20.1548 43.7887C20.5011 45.8731 21.7062 48.1252 24.3656 49.334L25.6071 46.6029ZM29.5474 47.1111C28.4417 47.3086 27.0355 47.2522 25.6071 46.6029L24.3656 49.334C26.4209 50.2682 28.4553 50.3537 30.0751 50.0643L29.5474 47.1111ZM30.9088 46.6815C30.5661 46.8518 30.1011 47.0122 29.5474 47.1111L30.0751 50.0643C30.8826 49.92 31.6228 49.6766 32.2435 49.3682L30.9088 46.6815ZM31.439 46.317C31.4396 46.3162 31.4078 46.3625 31.3056 46.4412C31.2068 46.5173 31.0731 46.5999 30.9088 46.6815L32.2435 49.3682C32.7905 49.0965 33.5047 48.6471 33.9578 47.9468L31.439 46.317ZM31.3159 46.8618C31.2911 46.6714 31.3347 46.4783 31.439 46.317L33.9578 47.9467C34.2399 47.5108 34.3579 46.9887 34.2907 46.4738L31.3159 46.8618ZM31.3114 46.827L31.316 46.8622L34.2907 46.4734L34.2861 46.4382L31.3114 46.827ZM31.4563 43.4631C31.0625 44.9715 31.2334 46.2309 31.3114 46.8271L34.286 46.438C34.2154 45.8982 34.1212 45.1318 34.359 44.2208L31.4563 43.4631ZM35.0173 38.554C32.8535 40.145 31.8629 41.9055 31.4563 43.4631L34.359 44.2208C34.5889 43.3403 35.1755 42.1614 36.7945 40.971L35.0173 38.554ZM36.6051 37.5262C36.1798 37.7401 35.6552 38.085 35.0173 38.554L36.7945 40.971C37.3957 40.5289 37.7578 40.3045 37.9532 40.2062L36.6051 37.5262ZM38.669 39.73C38.7155 39.4651 38.752 39.2225 38.7724 39.0088L35.786 38.7236C35.7763 38.8253 35.7546 38.9809 35.7142 39.2109L38.669 39.73ZM38.531 40.459C38.5803 40.2069 38.6291 39.9571 38.669 39.73L35.7142 39.2109C35.6802 39.4045 35.6373 39.6246 35.5866 39.8842L38.531 40.459ZM38.5317 40.4558L38.5318 40.4549L35.5858 39.8884L35.5856 39.8893L38.5317 40.4558ZM38.3566 46.5403C37.7754 44.4478 38.1935 42.1883 38.5309 40.4599L35.5864 39.8851C35.2651 41.5314 34.6682 44.471 35.4661 47.3432L38.3566 46.5403ZM40.3487 49.0946C39.3852 48.4537 38.6605 47.6343 38.3566 46.5403L35.4661 47.3432C36.0172 49.3274 37.3181 50.6818 38.687 51.5924L40.3487 49.0946ZM43.6052 50.5023C42.4946 50.1772 41.3208 49.7413 40.3487 49.0946L38.687 51.5924C40.0318 52.487 41.5438 53.0248 42.7625 53.3815L43.6052 50.5023ZM45.1257 50.9059C44.6626 50.79 44.1475 50.661 43.6052 50.5023L42.7625 53.3815C43.3695 53.5591 43.939 53.7014 44.3977 53.8162L45.1257 50.9059ZM45.0992 50.8995L45.099 50.8994L44.4244 53.8226L44.4246 53.8226L45.0992 50.8995ZM45.1506 50.9121L45.1258 50.9059L44.3979 53.8162L44.4227 53.8224L45.1506 50.9121ZM45.2149 50.9282L45.1508 50.9121L44.4224 53.8224L44.4866 53.8384L45.2149 50.9282ZM43.6234 54.0546C44.1735 54.0151 44.6878 53.9478 45.1518 53.8528L44.5497 50.9138C44.2356 50.9781 43.8531 51.0304 43.4083 51.0624L43.6234 54.0546ZM39.9863 53.9565C41.2435 54.1004 42.5036 54.1351 43.6234 54.0546L43.4083 51.0624C42.4972 51.1279 41.4248 51.1016 40.3275 50.9759L39.9863 53.9565ZM33.3505 51.6795C34.1451 52.3416 35.2105 52.8312 36.3146 53.188C37.4399 53.5517 38.7073 53.81 39.9863 53.9565L40.3275 50.9759C39.2113 50.8481 38.1428 50.6261 37.2373 50.3334C36.3106 50.0339 35.6506 49.6911 35.2711 49.3748L33.3505 51.6795ZM34.1312 51.8237C33.8636 51.9151 33.5677 51.8605 33.3505 51.6795L35.2711 49.3748C34.6838 48.8854 33.8839 48.7377 33.1606 48.985L34.1312 51.8237ZM27.8588 52.6804C30.3901 52.6634 32.7984 52.2794 34.1312 51.8237L33.1606 48.985C32.2259 49.3046 30.1608 49.6649 27.8387 49.6804L27.8588 52.6804ZM21.3456 51.6356C23.2596 52.4312 25.6479 52.6952 27.8588 52.6804L27.8387 49.6804C25.8124 49.694 23.8813 49.4408 22.4972 48.8654L21.3456 51.6356ZM18.6874 17.0296C18.4135 16.7095 18.1118 16.4405 17.8254 16.2171L15.9803 18.5825C16.1555 18.7192 16.2985 18.8521 16.4082 18.9803L18.6874 17.0296ZM23.4625 11.8745C20.9161 13.2596 18.603 14.9069 16.5075 16.9243L18.5881 19.0855C20.4715 17.2724 22.5617 15.7795 24.896 14.5098L23.4625 11.8745ZM17.3714 14.1197C19.6537 14.2248 22.0022 14.4441 24.0023 14.6817L24.3562 11.7026C22.3041 11.4589 19.8813 11.2321 17.5093 11.1229L17.3714 14.1197ZM12.4807 14.1211C13.9192 14.0275 15.6067 14.0385 17.3714 14.1197L17.5093 11.1229C15.682 11.0388 13.8746 11.024 12.2859 11.1274L12.4807 14.1211ZM9.41841 14.6454C9.96897 14.4174 10.988 14.2182 12.4807 14.1211L12.2859 11.1274C10.7143 11.2297 9.29114 11.451 8.2705 11.8737L9.41841 14.6454ZM9.21941 14.7385C9.24516 14.7239 9.30719 14.6915 9.41841 14.6454L8.2705 11.8737C8.06991 11.9568 7.89251 12.042 7.73756 12.13L9.21941 14.7385ZM10.0091 12.579C9.63536 12.4015 9.44427 12.283 9.37216 12.2295L7.5848 14.639C7.8866 14.8628 8.27975 15.0788 8.7223 15.289L10.0091 12.579ZM11.6434 13.2664C10.9932 13.0108 10.4452 12.7861 10.0091 12.579L8.7223 15.289C9.2586 15.5436 9.88917 15.8002 10.5456 16.0583L11.6434 13.2664ZM12.3375 13.5371C12.0978 13.444 11.8665 13.3541 11.6434 13.2664L10.5456 16.0583C10.7755 16.1487 11.0126 16.2409 11.2512 16.3335L12.3375 13.5371ZM15.842 15.0151C14.7291 14.4649 13.4397 13.9652 12.3375 13.5371L11.2512 16.3335C12.3827 16.7731 13.5413 17.2243 14.5125 17.7044L15.842 15.0151ZM17.8254 16.2171C17.223 15.7472 16.5205 15.3505 15.842 15.0151L14.5125 17.7044C15.1052 17.9974 15.6054 18.2901 15.9803 18.5825L17.8254 16.2171ZM21.8103 18.3852C22.8922 17.5493 24.0446 16.793 25.277 16.1012L23.8084 13.4852C22.4577 14.2435 21.1818 15.0796 19.976 16.0113L21.8103 18.3852ZM21.727 15.1173C21.3009 15.374 20.8429 15.6002 20.33 15.808L21.4564 18.5885C22.0979 18.3286 22.699 18.0341 23.2751 17.687L21.727 15.1173ZM23.4852 13.7294C22.8976 14.3135 22.3263 14.7563 21.727 15.1173L23.2751 17.687C24.0932 17.1942 24.8529 16.5999 25.6002 15.857L23.4852 13.7294ZM30.0037 34.0055C29.7186 35.0271 29.4021 36.3567 29.2983 37.375L32.2829 37.6791C32.36 36.9225 32.6198 35.7919 32.8933 34.8119L30.0037 34.0055ZM33.8024 31.2341C32.7505 31.8768 31.6986 32.5095 30.6769 33.1224L32.2201 35.695C33.243 35.0814 34.3036 34.4435 35.3666 33.7941L33.8024 31.2341ZM35.8997 33.2489C35.9213 33.2011 35.9422 33.1538 35.9623 33.1071L33.2067 31.9211C33.1941 31.9504 33.1807 31.9807 33.1665 32.012L35.8997 33.2489ZM34.6667 35.3767C35.1556 34.6621 35.592 33.9288 35.8997 33.249L33.1665 32.012C32.9547 32.4801 32.6195 33.056 32.1908 33.6826L34.6667 35.3767ZM31.8133 38.785C32.7337 37.9023 33.8015 36.6411 34.6667 35.3767L32.1908 33.6826C31.4314 34.7925 30.495 35.8926 29.7368 36.6198L31.8133 38.785ZM29.2983 37.375C29.2908 37.4489 29.2844 37.521 29.2792 37.5913L32.2709 37.8134C32.274 37.7725 32.2779 37.7277 32.2829 37.6791L29.2983 37.375Z" fill="#F8F9FA" mask="url(#path-1-outside-1_50_8236)"/>
<path d="M30.8258 38.5822C29.3132 39.9201 30.1955 35.9885 30.8258 33.8555C32.3286 32.4738 35.3634 30.0451 35.4797 31.3831C35.6252 33.0556 32.7164 36.9097 30.8258 38.5822Z" fill="#F3D9FA" stroke="#212529" stroke-width="1.4" stroke-linecap="round" stroke-linejoin="round"/>
<path d="M8.46086 12.5944C12.0971 11.0884 22.4242 12.1494 27.1333 12.8681C24.208 16.9667 21.8806 18.0725 17.2098 19.1427C16.125 16.1699 3.91557 14.4769 8.46086 12.5944Z" fill="#1971C2" stroke="#212529" stroke-width="1.6" stroke-linecap="round" stroke-linejoin="round"/>
<g style="mix-blend-mode:soft-light" opacity="0.3">
<path fill-rule="evenodd" clip-rule="evenodd" d="M24.2235 13.1452C20.3836 12.5591 11.9625 11.6939 8.99739 12.9219C8.30894 13.2071 8.09187 13.4869 8.20047 13.769C8.29768 13.5888 8.55904 13.4196 9.027 13.2623C11.8487 12.3137 19.2307 13.4823 23.3107 14.3325C23.6103 13.9746 23.9128 13.5806 24.2235 13.1452Z" fill="#F8F9FA"/>
</g>
<path d="M34.9038 9.89733C27.1004 12.102 21.1532 14.9932 16.5128 20.1952C13.246 23.8573 8.81921 28.641 9.70267 37.3706C10.3232 43.5021 16.8535 49.6939 21.1532 50.7025C15.2928 46.371 21.8963 39.6613 25.9306 36.8479C30.3715 34.0615 37.5122 30.0772 42.0166 26.6653C44.413 24.9737 47.5607 20.6203 48.835 18.655C50.7754 15.6626 51.7646 12.0427 50.9948 10.8753C49.394 8.4143 40.336 8.36255 34.9038 9.89733Z" fill="#1971C2" stroke="#212529" stroke-width="1.6" stroke-linecap="round" stroke-linejoin="round"/>
<path d="M26.2101 24.8263C31.5624 21.3855 44.1735 16.6995 49.7488 15.457C48.6372 18.5696 45.6581 21.8825 44.0829 23.8706C42.3823 26.0171 36.15 30.4654 26.2101 36.0089C18.2581 40.4437 17.7992 46.4587 18.5638 48.9118C14.7407 46.7135 14.3585 42.4125 14.7408 40.3099C14.9757 39.0179 16.6277 35.7258 19.4945 31.8927C19.9727 31.2533 14.7014 33.8228 14.2857 33.1426C14.0775 32.5155 17.7935 26.4929 23.2781 26.4929C24.3544 25.4356 24.9632 25.6279 26.2101 24.8263Z" fill="#F8F0FC"/>
<g style="mix-blend-mode:multiply">
<path d="M19.1702 43.386C19.8321 41.8026 23.3876 38.5795 25.0502 37.145C22.2139 38.3053 19.6501 40.2945 18.2549 42.3069C16.8322 44.3591 16.6846 46.3635 16.4244 47.6507C16.8113 48.224 17.7322 48.8603 18.4642 49.3466C17.5586 46.7716 18.5083 44.9694 19.1702 43.386Z" fill="#DEE2E6"/>
</g>
<path d="M33.2753 13.8262C33.1253 15.2523 33.9172 15.9034 34.576 16.0711" stroke="#212529" stroke-width="0.8" stroke-linecap="round" stroke-linejoin="round"/>
<path d="M31.5361 14.8013C31.3861 16.2274 32.1781 16.8785 32.8369 17.0462" stroke="#212529" stroke-width="0.8" stroke-linecap="round" stroke-linejoin="round"/>
<path d="M29.7968 15.7764C29.6468 17.2025 30.4387 17.8536 31.0975 18.0213" stroke="#212529" stroke-width="0.8" stroke-linecap="round" stroke-linejoin="round"/>
<path d="M25.19 47.4037C21.4662 45.7111 21.8223 41.2352 22.8108 39.703C20.1748 41.3601 16.2538 48.0763 20.8011 50.5806C24.5247 52.6312 31.3367 51.9586 33.7873 51.1207C36.4563 53.3449 43.5739 53.938 46.0947 52.7518C48.6155 51.5655 38.9771 52.1587 37.4943 46.8205C36.0115 41.4823 40.4569 35.5629 35.4153 39.27C31.382 42.2357 31.889 45.6837 32.0373 46.8205C31.4936 47.6608 28.3854 48.8562 25.19 47.4037Z" fill="#1864AB" stroke="#212529" stroke-width="1.4" stroke-linecap="round" stroke-linejoin="round"/>
<g style="mix-blend-mode:multiply">
<path d="M36.8024 46.7529C36.8023 49.4375 38.0159 51.0361 39.9948 52.4635C41.2883 52.854 43.433 52.663 45.1387 52.4635L45.0826 52.4504C43.3551 52.0466 41.724 51.6653 40.6225 51.0361C38.2159 50.0096 37.2007 48.0559 36.8024 46.7529Z" fill="#DEE2E6"/>
</g>
<path d="M32.9641 21.3018C27.5706 23.1855 23.7474 25.3433 23.2875 25.8951C22.7126 26.5849 17.6538 26.355 14.4345 31.5288C11.5006 36.244 17.328 32.5874 19.4154 31.9433M16.6874 48.5457C14.4583 45.9228 14.0493 42.6145 14.4344 40.0037C14.8195 37.3928 18.4026 32.3262 20.0787 31.7093C19.958 31.7045 19.6184 31.8806 19.4154 31.9433M23.2875 29.3283C23.3375 29.5062 23.3752 29.9536 23.1257 30.3206C22.8762 30.6875 20.5482 31.5553 19.4154 31.9433" stroke="#212529" stroke-width="1.2" stroke-linecap="round" stroke-linejoin="round"/>
<circle cx="40.3978" cy="12.3272" r="0.835456" fill="#212529"/>
<path d="M42.8861 17.753C43.9298 17.1397 47.3342 15.3816 50.4225 14.8524" stroke="#212529" stroke-width="1.2" stroke-linecap="round" stroke-linejoin="round"/>
</svg>
