<svg width="60" height="60" viewBox="0 0 60 60" fill="none" xmlns="http://www.w3.org/2000/svg">
<mask id="path-1-outside-1_50_6530" maskUnits="userSpaceOnUse" x="7.76599" y="5.94482" width="44" height="48" fill="black">
<rect fill="white" x="7.76599" y="5.94482" width="44" height="48"/>
<path fill-rule="evenodd" clip-rule="evenodd" d="M15.334 7.94484C14.9714 7.94484 14.6776 8.23873 14.6776 8.60127V10.9651H11.2664C10.4377 10.9651 9.76599 11.6368 9.76599 12.4655V13.2583C9.76599 14.0869 10.4377 14.7587 11.2664 14.7587H11.8358V27.6668H11.2664C10.4377 27.6668 9.76599 28.3385 9.76599 29.1672V29.96C9.76599 30.7886 10.4377 31.4604 11.2664 31.4604H11.8358V44.3685H11.2664C10.4377 44.3685 9.76599 45.0402 9.76599 45.8689V46.6616C9.76599 47.4903 10.4377 48.1621 11.2664 48.1621H11.8358V51.1907C11.8358 51.6682 12.2229 52.0553 12.7004 52.0553C13.1779 52.0553 13.5649 51.6682 13.5649 51.1907V48.1621H46.4349V51.1907C46.4349 51.6682 46.822 52.0553 47.2995 52.0553C47.777 52.0553 48.1641 51.6682 48.1641 51.1907V48.1621H48.7336C49.5623 48.1621 50.234 47.4903 50.234 46.6616V45.8689C50.234 45.0402 49.5623 44.3685 48.7336 44.3685H48.1641V31.4604H48.7336C49.5623 31.4604 50.234 30.7886 50.234 29.96V29.1672C50.234 28.3385 49.5623 27.6668 48.7336 27.6668H48.1641V14.7587H48.7336C49.5623 14.7587 50.234 14.0869 50.234 13.2583V12.4655C50.234 11.6368 49.5623 10.9651 48.7336 10.9651H23.6164V8.60127C23.6164 8.23873 23.3225 7.94484 22.9599 7.94484H15.334ZM15.9904 10.3944V9.2577H22.3035V10.3944H15.9904ZM46.4349 44.3685V31.4604H13.5649V44.3685H15.334V34.3426C15.334 34.0836 15.6101 33.8737 15.9506 33.8737H19.1342C19.1723 33.8737 19.2096 33.8763 19.2458 33.8814C19.2727 33.8766 19.3005 33.8741 19.3288 33.8741H21.7495C22.0084 33.8741 22.2184 34.084 22.2184 34.3429V44.3685H24.6391H26.4745L24.2026 34.9512C24.1419 34.6995 24.295 34.4396 24.5447 34.3707L26.3744 33.866C26.624 33.7972 26.8756 33.9454 26.9364 34.1972L29.2982 43.9874C29.3308 44.1223 29.3019 44.2595 29.2297 44.3685H33.704V34.3429C33.704 34.084 33.9139 33.8741 34.1728 33.8741H35.5039L35.5171 33.8742L35.5273 33.8746L35.537 33.8743L35.5507 33.8741H37.9714C38.2304 33.8741 38.4403 34.084 38.4403 34.3429V44.3685H39.3969V34.3429C39.3969 34.084 39.6068 33.8741 39.8657 33.8741H41.713C41.9719 33.8741 42.1818 34.084 42.1818 34.3429V44.3685H46.4349ZM33.8334 14.7587H46.4349V27.6668H44.5382L45.8206 23.1414C45.8598 23.003 45.8137 22.8587 45.6952 22.7488C45.5767 22.6388 45.3985 22.5749 45.2102 22.5749H37.9176C37.7293 22.5749 37.5511 22.6388 37.4326 22.7488C37.3141 22.8587 37.268 23.003 37.3072 23.1414L38.5896 27.6668H33.8334V14.7587ZM32.333 14.7587H13.5649V27.6668H16.0519V16.9485H19.3288V17.1726H19.3288H21.7495H21.7495H24.17H24.1702H25.9871C26.246 17.1726 26.456 17.3825 26.456 17.6415V27.6668H32.333V14.7587ZM23.7012 27.2833V18.1104H22.2184V27.2833H23.7012ZM25.5182 27.2833H24.6391V18.1104H25.5182V27.2833ZM19.7977 18.1104V27.2833H21.2806V18.1104H19.7977ZM16.5673 43.9845V34.8115H18.5175V43.9845H16.5673ZM19.7977 34.8118V43.9848H21.2806V34.8118H19.7977ZM22.2184 43.9848V34.8118H23.7013V43.9848H22.2184ZM25.2166 35.1577L27.3585 44.0363L28.2843 43.781L26.1423 34.9023L25.2166 35.1577ZM34.6417 43.9848V34.8118H35.035V43.9848H34.6417ZM36.0196 34.8118V43.9848H37.5025V34.8118H36.0196ZM38.4403 43.9848V34.8118H39.3498V43.9848H38.4403ZM40.3346 34.8118V43.9848H41.2441V34.8118H40.3346ZM38.6886 23.5127L39.7571 27.2833H43.3707L44.4392 23.5127H38.6886Z"/>
</mask>
<path fill-rule="evenodd" clip-rule="evenodd" d="M15.334 7.94484C14.9714 7.94484 14.6776 8.23873 14.6776 8.60127V10.9651H11.2664C10.4377 10.9651 9.76599 11.6368 9.76599 12.4655V13.2583C9.76599 14.0869 10.4377 14.7587 11.2664 14.7587H11.8358V27.6668H11.2664C10.4377 27.6668 9.76599 28.3385 9.76599 29.1672V29.96C9.76599 30.7886 10.4377 31.4604 11.2664 31.4604H11.8358V44.3685H11.2664C10.4377 44.3685 9.76599 45.0402 9.76599 45.8689V46.6616C9.76599 47.4903 10.4377 48.1621 11.2664 48.1621H11.8358V51.1907C11.8358 51.6682 12.2229 52.0553 12.7004 52.0553C13.1779 52.0553 13.5649 51.6682 13.5649 51.1907V48.1621H46.4349V51.1907C46.4349 51.6682 46.822 52.0553 47.2995 52.0553C47.777 52.0553 48.1641 51.6682 48.1641 51.1907V48.1621H48.7336C49.5623 48.1621 50.234 47.4903 50.234 46.6616V45.8689C50.234 45.0402 49.5623 44.3685 48.7336 44.3685H48.1641V31.4604H48.7336C49.5623 31.4604 50.234 30.7886 50.234 29.96V29.1672C50.234 28.3385 49.5623 27.6668 48.7336 27.6668H48.1641V14.7587H48.7336C49.5623 14.7587 50.234 14.0869 50.234 13.2583V12.4655C50.234 11.6368 49.5623 10.9651 48.7336 10.9651H23.6164V8.60127C23.6164 8.23873 23.3225 7.94484 22.9599 7.94484H15.334ZM15.9904 10.3944V9.2577H22.3035V10.3944H15.9904ZM46.4349 44.3685V31.4604H13.5649V44.3685H15.334V34.3426C15.334 34.0836 15.6101 33.8737 15.9506 33.8737H19.1342C19.1723 33.8737 19.2096 33.8763 19.2458 33.8814C19.2727 33.8766 19.3005 33.8741 19.3288 33.8741H21.7495C22.0084 33.8741 22.2184 34.084 22.2184 34.3429V44.3685H24.6391H26.4745L24.2026 34.9512C24.1419 34.6995 24.295 34.4396 24.5447 34.3707L26.3744 33.866C26.624 33.7972 26.8756 33.9454 26.9364 34.1972L29.2982 43.9874C29.3308 44.1223 29.3019 44.2595 29.2297 44.3685H33.704V34.3429C33.704 34.084 33.9139 33.8741 34.1728 33.8741H35.5039L35.5171 33.8742L35.5273 33.8746L35.537 33.8743L35.5507 33.8741H37.9714C38.2304 33.8741 38.4403 34.084 38.4403 34.3429V44.3685H39.3969V34.3429C39.3969 34.084 39.6068 33.8741 39.8657 33.8741H41.713C41.9719 33.8741 42.1818 34.084 42.1818 34.3429V44.3685H46.4349ZM33.8334 14.7587H46.4349V27.6668H44.5382L45.8206 23.1414C45.8598 23.003 45.8137 22.8587 45.6952 22.7488C45.5767 22.6388 45.3985 22.5749 45.2102 22.5749H37.9176C37.7293 22.5749 37.5511 22.6388 37.4326 22.7488C37.3141 22.8587 37.268 23.003 37.3072 23.1414L38.5896 27.6668H33.8334V14.7587ZM32.333 14.7587H13.5649V27.6668H16.0519V16.9485H19.3288V17.1726H19.3288H21.7495H21.7495H24.17H24.1702H25.9871C26.246 17.1726 26.456 17.3825 26.456 17.6415V27.6668H32.333V14.7587ZM23.7012 27.2833V18.1104H22.2184V27.2833H23.7012ZM25.5182 27.2833H24.6391V18.1104H25.5182V27.2833ZM19.7977 18.1104V27.2833H21.2806V18.1104H19.7977ZM16.5673 43.9845V34.8115H18.5175V43.9845H16.5673ZM19.7977 34.8118V43.9848H21.2806V34.8118H19.7977ZM22.2184 43.9848V34.8118H23.7013V43.9848H22.2184ZM25.2166 35.1577L27.3585 44.0363L28.2843 43.781L26.1423 34.9023L25.2166 35.1577ZM34.6417 43.9848V34.8118H35.035V43.9848H34.6417ZM36.0196 34.8118V43.9848H37.5025V34.8118H36.0196ZM38.4403 43.9848V34.8118H39.3498V43.9848H38.4403ZM40.3346 34.8118V43.9848H41.2441V34.8118H40.3346ZM38.6886 23.5127L39.7571 27.2833H43.3707L44.4392 23.5127H38.6886Z" fill="#F8F9FA"/>
<path d="M42.1818 43.6184C41.7676 43.6184 41.4318 43.9542 41.4318 44.3684C41.4318 44.7827 41.7676 45.1184 42.1818 45.1184V43.6184ZM46.4349 45.1184C46.8491 45.1184 47.1849 44.7827 47.1849 44.3684C47.1849 43.9542 46.8491 43.6184 46.4349 43.6184V45.1184ZM24.6391 43.6184C24.2249 43.6184 23.8891 43.9542 23.8891 44.3684C23.8891 44.7827 24.2249 45.1184 24.6391 45.1184V43.6184ZM26.4745 45.1184C26.8887 45.1184 27.2245 44.7827 27.2245 44.3684C27.2245 43.9542 26.8887 43.6184 26.4745 43.6184V45.1184ZM29.2297 43.6184C28.8155 43.6184 28.4797 43.9542 28.4797 44.3684C28.4797 44.7827 28.8155 45.1184 29.2297 45.1184V43.6184ZM33.704 45.1184C34.1182 45.1184 34.454 44.7827 34.454 44.3684C34.454 43.9542 34.1182 43.6184 33.704 43.6184V45.1184ZM38.4403 43.6184C38.0261 43.6184 37.6903 43.9542 37.6903 44.3684C37.6903 44.7827 38.0261 45.1184 38.4403 45.1184V43.6184ZM39.3969 45.1184C39.8111 45.1184 40.1469 44.7827 40.1469 44.3684C40.1469 43.9542 39.8111 43.6184 39.3969 43.6184V45.1184ZM42.1818 45.1184H46.4349V43.6184H42.1818V45.1184ZM24.6391 45.1184H26.4745V43.6184H24.6391V45.1184ZM29.2297 45.1184H33.704V43.6184H29.2297V45.1184ZM38.4403 45.1184H39.3969V43.6184H38.4403V45.1184ZM14.6776 10.9651V12.4651C15.506 12.4651 16.1776 11.7935 16.1776 10.9651H14.6776ZM11.8358 14.7587H13.3358C13.3358 13.9302 12.6642 13.2587 11.8358 13.2587V14.7587ZM11.8358 27.6668V29.1668C12.6642 29.1668 13.3358 28.4952 13.3358 27.6668H11.8358ZM11.8358 31.4604H13.3358C13.3358 30.6319 12.6642 29.9604 11.8358 29.9604V31.4604ZM11.8358 44.3684V45.8684C12.6642 45.8684 13.3358 45.1969 13.3358 44.3684H11.8358ZM11.8358 48.162H13.3358C13.3358 47.3336 12.6642 46.662 11.8358 46.662V48.162ZM13.565 48.162V46.662C12.7365 46.662 12.065 47.3336 12.065 48.162H13.565ZM46.4349 48.162H47.9349C47.9349 47.3336 47.2634 46.662 46.4349 46.662V48.162ZM48.1641 48.162V46.662C47.3357 46.662 46.6641 47.3336 46.6641 48.162H48.1641ZM48.1641 44.3684H46.6641C46.6641 45.1969 47.3357 45.8684 48.1641 45.8684V44.3684ZM48.1641 31.4604V29.9604C47.3357 29.9604 46.6641 30.6319 46.6641 31.4604H48.1641ZM48.1641 27.6668H46.6641C46.6641 28.4952 47.3357 29.1668 48.1641 29.1668V27.6668ZM48.1641 14.7587V13.2587C47.3357 13.2587 46.6641 13.9302 46.6641 14.7587H48.1641ZM23.6164 10.9651H22.1164C22.1164 11.7935 22.7879 12.4651 23.6164 12.4651V10.9651ZM15.9904 9.25769V7.75769C15.162 7.75769 14.4904 8.42926 14.4904 9.25769H15.9904ZM15.9904 10.3944H14.4904C14.4904 11.2228 15.162 11.8944 15.9904 11.8944V10.3944ZM22.3035 9.25769H23.8035C23.8035 8.42926 23.1319 7.75769 22.3035 7.75769V9.25769ZM22.3035 10.3944V11.8944C23.1319 11.8944 23.8035 11.2228 23.8035 10.3944H22.3035ZM46.4349 31.4604H47.9349C47.9349 30.6319 47.2634 29.9604 46.4349 29.9604V31.4604ZM46.4349 44.3684V45.8684C47.2634 45.8684 47.9349 45.1969 47.9349 44.3684H46.4349ZM13.565 31.4604V29.9604C12.7365 29.9604 12.065 30.6319 12.065 31.4604H13.565ZM13.565 44.3684H12.065C12.065 45.1969 12.7365 45.8684 13.565 45.8684V44.3684ZM15.334 44.3684V45.8684C16.1624 45.8684 16.834 45.1969 16.834 44.3684H15.334ZM19.2458 33.8814L19.0392 35.3671C19.1955 35.3888 19.3542 35.3857 19.5096 35.358L19.2458 33.8814ZM22.2184 44.3684H20.7184C20.7184 45.1969 21.3899 45.8684 22.2184 45.8684V44.3684ZM26.4745 44.3684V45.8684C26.9342 45.8684 27.3686 45.6576 27.653 45.2964C27.9374 44.9352 28.0405 44.4636 27.9327 44.0167L26.4745 44.3684ZM24.2026 34.9512L25.6608 34.5994L25.6608 34.5994L24.2026 34.9512ZM24.5447 34.3707L24.1458 32.9247L24.1458 32.9247L24.5447 34.3707ZM26.3744 33.866L26.7732 35.312L26.7733 35.312L26.3744 33.866ZM26.9364 34.1972L25.4782 34.5489L25.4782 34.5489L26.9364 34.1972ZM29.2982 43.9874L27.8401 44.3392L27.8401 44.3392L29.2982 43.9874ZM29.2297 44.3684L27.9795 43.5396C27.6742 44.0001 27.6468 44.5912 27.9081 45.0779C28.1694 45.5647 28.6772 45.8684 29.2297 45.8684V44.3684ZM33.704 44.3684V45.8684C34.5324 45.8684 35.204 45.1969 35.204 44.3684H33.704ZM35.5039 33.874L35.5246 32.3742C35.5177 32.3741 35.5108 32.374 35.5039 32.374V33.874ZM35.5171 33.8742L35.5744 32.3753C35.5622 32.3749 35.55 32.3745 35.5377 32.3744L35.5171 33.8742ZM35.5273 33.8746L35.47 35.3735C35.5085 35.375 35.5471 35.375 35.5856 35.3735L35.5273 33.8746ZM35.537 33.8742L35.5155 32.3744C35.5033 32.3746 35.491 32.3749 35.4787 32.3754L35.537 33.8742ZM35.5507 33.874V32.374C35.5436 32.374 35.5364 32.3741 35.5292 32.3742L35.5507 33.874ZM38.4403 44.3684H36.9403C36.9403 45.1969 37.6119 45.8684 38.4403 45.8684V44.3684ZM39.3969 44.3684V45.8684C40.2253 45.8684 40.8969 45.1969 40.8969 44.3684H39.3969ZM42.1818 44.3684H40.6818C40.6818 45.1969 41.3534 45.8684 42.1818 45.8684V44.3684ZM46.4349 14.7587H47.9349C47.9349 13.9302 47.2634 13.2587 46.4349 13.2587V14.7587ZM33.8334 14.7587V13.2587C33.005 13.2587 32.3334 13.9302 32.3334 14.7587H33.8334ZM46.4349 27.6668V29.1668C47.2634 29.1668 47.9349 28.4952 47.9349 27.6668H46.4349ZM44.5382 27.6668L43.0951 27.2578C42.9669 27.7101 43.0582 28.1963 43.3417 28.5713C43.6252 28.9464 44.0681 29.1668 44.5382 29.1668V27.6668ZM45.8206 23.1414L47.2638 23.5504L47.2638 23.5504L45.8206 23.1414ZM45.6952 22.7488L44.6749 23.8482L44.6749 23.8482L45.6952 22.7488ZM37.4326 22.7488L38.4529 23.8482L38.4529 23.8482L37.4326 22.7488ZM37.3072 23.1414L35.864 23.5504L35.864 23.5504L37.3072 23.1414ZM38.5896 27.6668V29.1668C39.0597 29.1668 39.5026 28.9464 39.7861 28.5713C40.0696 28.1963 40.1609 27.7101 40.0328 27.2578L38.5896 27.6668ZM33.8334 27.6668H32.3334C32.3334 28.4952 33.005 29.1668 33.8334 29.1668V27.6668ZM13.565 14.7587V13.2587C12.7365 13.2587 12.065 13.9302 12.065 14.7587H13.565ZM32.333 14.7587H33.833C33.833 13.9302 33.1615 13.2587 32.333 13.2587V14.7587ZM13.565 27.6668H12.065C12.065 28.4952 12.7365 29.1668 13.565 29.1668V27.6668ZM16.0519 27.6668V29.1668C16.8803 29.1668 17.5519 28.4952 17.5519 27.6668H16.0519ZM16.0519 16.9484V15.4484C15.2235 15.4484 14.5519 16.12 14.5519 16.9484H16.0519ZM19.3288 16.9484H20.8288C20.8288 16.12 20.1572 15.4484 19.3288 15.4484V16.9484ZM19.3288 17.1726H17.8288C17.8288 18.001 18.5004 18.6726 19.3288 18.6726V17.1726ZM26.456 27.6668H24.956C24.956 28.4952 25.6275 29.1668 26.456 29.1668V27.6668ZM32.333 27.6668V29.1668C33.1615 29.1668 33.833 28.4952 33.833 27.6668H32.333ZM23.7012 18.1103H25.2012C25.2012 17.2819 24.5296 16.6103 23.7012 16.6103V18.1103ZM23.7012 27.2833V28.7833C24.5296 28.7833 25.2012 28.1118 25.2012 27.2833H23.7012ZM22.2184 18.1103V16.6103C21.39 16.6103 20.7184 17.2819 20.7184 18.1103H22.2184ZM22.2184 27.2833H20.7184C20.7184 28.1118 21.39 28.7833 22.2184 28.7833V27.2833ZM24.6391 27.2833H23.1391C23.1391 28.1118 23.8106 28.7833 24.6391 28.7833V27.2833ZM25.5182 27.2833V28.7833C26.3466 28.7833 27.0182 28.1118 27.0182 27.2833H25.5182ZM24.6391 18.1103V16.6103C23.8106 16.6103 23.1391 17.2819 23.1391 18.1103H24.6391ZM25.5182 18.1103H27.0182C27.0182 17.2819 26.3466 16.6103 25.5182 16.6103V18.1103ZM19.7977 27.2833H18.2977C18.2977 28.1118 18.9693 28.7833 19.7977 28.7833V27.2833ZM19.7977 18.1103V16.6103C18.9693 16.6103 18.2977 17.2819 18.2977 18.1103H19.7977ZM21.2806 27.2833V28.7833C22.109 28.7833 22.7806 28.1118 22.7806 27.2833H21.2806ZM21.2806 18.1103H22.7806C22.7806 17.2819 22.109 16.6103 21.2806 16.6103V18.1103ZM16.5673 34.8115V33.3115C15.7389 33.3115 15.0673 33.983 15.0673 34.8115H16.5673ZM16.5673 43.9844H15.0673C15.0673 44.8129 15.7389 45.4844 16.5673 45.4844V43.9844ZM18.5175 34.8115H20.0175C20.0175 33.983 19.3459 33.3115 18.5175 33.3115V34.8115ZM18.5175 43.9844V45.4844C19.3459 45.4844 20.0175 44.8129 20.0175 43.9844H18.5175ZM19.7977 43.9848H18.2977C18.2977 44.8132 18.9693 45.4848 19.7977 45.4848V43.9848ZM19.7977 34.8118V33.3118C18.9693 33.3118 18.2977 33.9834 18.2977 34.8118H19.7977ZM21.2806 43.9848V45.4848C22.109 45.4848 22.7806 44.8132 22.7806 43.9848H21.2806ZM21.2806 34.8118H22.7806C22.7806 33.9834 22.109 33.3118 21.2806 33.3118V34.8118ZM22.2184 34.8118V33.3118C21.39 33.3118 20.7184 33.9834 20.7184 34.8118H22.2184ZM22.2184 43.9848H20.7184C20.7184 44.8132 21.39 45.4848 22.2184 45.4848V43.9848ZM23.7013 34.8118H25.2013C25.2013 33.9834 24.5297 33.3118 23.7013 33.3118V34.8118ZM23.7013 43.9848V45.4848C24.5297 45.4848 25.2013 44.8132 25.2013 43.9848H23.7013ZM27.3585 44.0363L25.9004 44.3881C25.9956 44.783 26.247 45.1224 26.597 45.3286C26.9471 45.5349 27.3658 45.5903 27.7574 45.4823L27.3585 44.0363ZM25.2166 35.1577L24.8177 33.7117C24.0374 33.9269 23.5686 34.7225 23.7584 35.5094L25.2166 35.1577ZM28.2843 43.7809L28.6831 45.2269C29.4635 45.0117 29.9323 44.2161 29.7424 43.4292L28.2843 43.7809ZM26.1423 34.9023L27.6005 34.5505C27.5052 34.1556 27.2538 33.8162 26.9038 33.61C26.5538 33.4037 26.1351 33.3483 25.7435 33.4563L26.1423 34.9023ZM34.6417 34.8118V33.3118C33.8133 33.3118 33.1417 33.9834 33.1417 34.8118H34.6417ZM34.6417 43.9848H33.1417C33.1417 44.8132 33.8133 45.4848 34.6417 45.4848V43.9848ZM35.035 34.8118H36.535C36.535 33.9834 35.8635 33.3118 35.035 33.3118V34.8118ZM35.035 43.9848V45.4848C35.8635 45.4848 36.535 44.8132 36.535 43.9848H35.035ZM36.0196 43.9848H34.5196C34.5196 44.8132 35.1912 45.4848 36.0196 45.4848V43.9848ZM36.0196 34.8118V33.3118C35.1912 33.3118 34.5196 33.9834 34.5196 34.8118H36.0196ZM37.5025 43.9848V45.4848C38.331 45.4848 39.0025 44.8132 39.0025 43.9848H37.5025ZM37.5025 34.8118H39.0025C39.0025 33.9834 38.331 33.3118 37.5025 33.3118V34.8118ZM38.4403 34.8118V33.3118C37.6119 33.3118 36.9403 33.9834 36.9403 34.8118H38.4403ZM38.4403 43.9848H36.9403C36.9403 44.8132 37.6119 45.4848 38.4403 45.4848V43.9848ZM39.3498 34.8118H40.8498C40.8498 33.9834 40.1782 33.3118 39.3498 33.3118V34.8118ZM39.3498 43.9848V45.4848C40.1782 45.4848 40.8498 44.8132 40.8498 43.9848H39.3498ZM40.3346 43.9848H38.8346C38.8346 44.8132 39.5062 45.4848 40.3346 45.4848V43.9848ZM40.3346 34.8118V33.3118C39.5062 33.3118 38.8346 33.9834 38.8346 34.8118H40.3346ZM41.2441 43.9848V45.4848C42.0725 45.4848 42.7441 44.8132 42.7441 43.9848H41.2441ZM41.2441 34.8118H42.7441C42.7441 33.9834 42.0725 33.3118 41.2441 33.3118V34.8118ZM39.7571 27.2833L38.3139 27.6923C38.4969 28.3378 39.0862 28.7833 39.7571 28.7833V27.2833ZM38.6886 23.5127V22.0127C38.2185 22.0127 37.7756 22.2331 37.4921 22.6081C37.2086 22.9831 37.1173 23.4693 37.2454 23.9216L38.6886 23.5127ZM43.3707 27.2833V28.7833C44.0416 28.7833 44.6309 28.3378 44.8139 27.6923L43.3707 27.2833ZM44.4392 23.5127L45.8824 23.9216C46.0105 23.4693 45.9192 22.9831 45.6357 22.6081C45.3522 22.2331 44.9093 22.0127 44.4392 22.0127V23.5127ZM16.1776 8.60126C16.1776 9.06715 15.7999 9.44482 15.334 9.44482V6.44482C14.143 6.44482 13.1776 7.41029 13.1776 8.60126H16.1776ZM16.1776 10.9651V8.60126H13.1776V10.9651H16.1776ZM11.2664 12.4651H14.6776V9.46507H11.2664V12.4651ZM11.266 12.4655L11.2664 12.4651V9.46507C9.60933 9.46507 8.26599 10.8084 8.26599 12.4655H11.266ZM11.266 13.2583V12.4655H8.26599V13.2583H11.266ZM11.2664 13.2587L11.266 13.2583H8.26599C8.26599 14.9153 9.60933 16.2587 11.2664 16.2587V13.2587ZM11.8358 13.2587H11.2664V16.2587H11.8358V13.2587ZM13.3358 27.6668V14.7587H10.3358V27.6668H13.3358ZM11.2664 29.1668H11.8358V26.1668H11.2664V29.1668ZM11.266 29.1672L11.2664 29.1668V26.1668C9.60933 26.1668 8.26599 27.5101 8.26599 29.1672H11.266ZM11.266 29.9599V29.1672H8.26599V29.9599H11.266ZM11.2664 29.9604L11.266 29.9599H8.26599C8.26599 31.617 9.60933 32.9604 11.2664 32.9604V29.9604ZM11.8358 29.9604H11.2664V32.9604H11.8358V29.9604ZM13.3358 44.3684V31.4604H10.3358V44.3684H13.3358ZM11.2664 45.8684H11.8358V42.8684H11.2664V45.8684ZM11.266 45.8689L11.2664 45.8684V42.8684C9.60933 42.8684 8.26599 44.2118 8.26599 45.8689H11.266ZM11.266 46.6616V45.8689H8.26599V46.6616H11.266ZM11.2664 46.662L11.266 46.6616H8.26599C8.26599 48.3187 9.60933 49.662 11.2664 49.662V46.662ZM11.8358 46.662H11.2664V49.662H11.8358V46.662ZM13.3358 51.1907V48.162H10.3358V51.1907H13.3358ZM12.7004 50.5552C13.0513 50.5552 13.3358 50.8397 13.3358 51.1907H10.3358C10.3358 52.4966 11.3944 53.5552 12.7004 53.5552V50.5552ZM12.065 51.1907C12.065 50.8397 12.3494 50.5552 12.7004 50.5552V53.5552C14.0063 53.5552 15.065 52.4966 15.065 51.1907H12.065ZM12.065 48.162V51.1907H15.065V48.162H12.065ZM46.4349 46.662H13.565V49.662H46.4349V46.662ZM47.9349 51.1907V48.162H44.9349V51.1907H47.9349ZM47.2995 50.5552C47.6504 50.5552 47.9349 50.8397 47.9349 51.1907H44.9349C44.9349 52.4966 45.9936 53.5552 47.2995 53.5552V50.5552ZM46.6641 51.1907C46.6641 50.8397 46.9486 50.5552 47.2995 50.5552V53.5552C48.6055 53.5552 49.6641 52.4966 49.6641 51.1907H46.6641ZM46.6641 48.162V51.1907H49.6641V48.162H46.6641ZM48.7336 46.662H48.1641V49.662H48.7336V46.662ZM48.734 46.6616L48.7336 46.662V49.662C50.3907 49.662 51.734 48.3187 51.734 46.6616H48.734ZM48.734 45.8689V46.6616H51.734V45.8689H48.734ZM48.7336 45.8684L48.734 45.8689H51.734C51.734 44.2118 50.3907 42.8684 48.7336 42.8684V45.8684ZM48.1641 45.8684H48.7336V42.8684H48.1641V45.8684ZM46.6641 31.4604V44.3684H49.6641V31.4604H46.6641ZM48.7336 29.9604H48.1641V32.9604H48.7336V29.9604ZM48.734 29.9599L48.7336 29.9604V32.9604C50.3907 32.9604 51.734 31.617 51.734 29.9599H48.734ZM48.734 29.1672V29.9599H51.734V29.1672H48.734ZM48.7336 29.1668L48.734 29.1672H51.734C51.734 27.5101 50.3907 26.1668 48.7336 26.1668V29.1668ZM48.1641 29.1668H48.7336V26.1668H48.1641V29.1668ZM46.6641 14.7587V27.6668H49.6641V14.7587H46.6641ZM48.7336 13.2587H48.1641V16.2587H48.7336V13.2587ZM48.734 13.2583L48.7336 13.2587V16.2587C50.3907 16.2587 51.734 14.9153 51.734 13.2583H48.734ZM48.734 12.4655V13.2583H51.734V12.4655H48.734ZM48.7336 12.4651L48.734 12.4655H51.734C51.734 10.8084 50.3907 9.46507 48.7336 9.46507V12.4651ZM23.6164 12.4651H48.7336V9.46507H23.6164V12.4651ZM22.1164 8.60126V10.9651H25.1164V8.60126H22.1164ZM22.9599 9.44482C22.494 9.44482 22.1164 9.06714 22.1164 8.60126H25.1164C25.1164 7.41029 24.1509 6.44482 22.9599 6.44482V9.44482ZM15.334 9.44482H22.9599V6.44482H15.334V9.44482ZM14.4904 9.25769V10.3944H17.4904V9.25769H14.4904ZM22.3035 7.75769H15.9904V10.7577H22.3035V7.75769ZM23.8035 10.3944V9.25769H20.8035V10.3944H23.8035ZM15.9904 11.8944H22.3035V8.89438H15.9904V11.8944ZM44.9349 31.4604V44.3684H47.9349V31.4604H44.9349ZM13.565 32.9604H46.4349V29.9604H13.565V32.9604ZM15.065 44.3684V31.4604H12.065V44.3684H15.065ZM15.334 42.8684H13.565V45.8684H15.334V42.8684ZM13.834 34.3426V44.3684H16.834V34.3426H13.834ZM15.9506 32.3737C15.4823 32.3737 15.0022 32.5163 14.6067 32.817C14.2101 33.1186 13.834 33.644 13.834 34.3426H16.834C16.834 34.7822 16.596 35.0732 16.4225 35.2051C16.2502 35.3361 16.0784 35.3737 15.9506 35.3737V32.3737ZM19.1342 32.3737H15.9506V35.3737H19.1342V32.3737ZM19.4524 32.3957C19.3476 32.3811 19.2413 32.3737 19.1342 32.3737V35.3737C19.1033 35.3737 19.0716 35.3716 19.0392 35.3671L19.4524 32.3957ZM19.3288 32.374C19.2116 32.374 19.0956 32.3844 18.982 32.4047L19.5096 35.358C19.4499 35.3687 19.3894 35.374 19.3288 35.374V32.374ZM21.7495 32.374H19.3288V35.374H21.7495V32.374ZM23.7184 34.3429C23.7184 33.2555 22.8369 32.374 21.7495 32.374V35.374C21.18 35.374 20.7184 34.9124 20.7184 34.3429H23.7184ZM23.7184 44.3684V34.3429H20.7184V44.3684H23.7184ZM24.6391 42.8684H22.2184V45.8684H24.6391V42.8684ZM26.4745 42.8684H24.6391V45.8684H26.4745V42.8684ZM22.7444 35.303L25.0163 44.7202L27.9327 44.0167L25.6608 34.5994L22.7444 35.303ZM24.1458 32.9247C23.1158 33.2088 22.4939 34.2643 22.7444 35.303L25.6608 34.5994C25.7899 35.1346 25.4742 35.6703 24.9435 35.8167L24.1458 32.9247ZM25.9755 32.42L24.1458 32.9247L24.9435 35.8167L26.7732 35.312L25.9755 32.42ZM28.3945 33.8454C28.135 32.7698 27.0422 32.1258 25.9755 32.42L26.7733 35.312C26.2059 35.4685 25.6162 35.121 25.4782 34.5489L28.3945 33.8454ZM30.7564 43.6356L28.3945 33.8454L25.4782 34.5489L27.8401 44.3392L30.7564 43.6356ZM30.4799 45.1973C30.7686 44.7618 30.8925 44.1997 30.7564 43.6356L27.8401 44.3392C27.7691 44.0449 27.8352 43.7572 27.9795 43.5396L30.4799 45.1973ZM33.704 42.8684H29.2297V45.8684H33.704V42.8684ZM32.204 34.3429V44.3684H35.204V34.3429H32.204ZM34.1728 32.374C33.0855 32.374 32.204 33.2555 32.204 34.3429H35.204C35.204 34.9124 34.7423 35.374 34.1728 35.374V32.374ZM35.5039 32.374H34.1728V35.374H35.5039V32.374ZM35.5377 32.3744L35.5246 32.3742L35.4832 35.3739L35.4964 35.3741L35.5377 32.3744ZM35.5847 32.3757L35.5744 32.3753L35.4597 35.3731L35.47 35.3735L35.5847 32.3757ZM35.4787 32.3754L35.469 32.3757L35.5856 35.3735L35.5953 35.3731L35.4787 32.3754ZM35.5292 32.3742L35.5155 32.3744L35.5585 35.3741L35.5722 35.3739L35.5292 32.3742ZM37.9714 32.374H35.5507V35.374H37.9714V32.374ZM39.9403 34.3429C39.9403 33.2555 39.0588 32.374 37.9714 32.374V35.374C37.402 35.374 36.9403 34.9124 36.9403 34.3429H39.9403ZM39.9403 44.3684V34.3429H36.9403V44.3684H39.9403ZM39.3969 42.8684H38.4403V45.8684H39.3969V42.8684ZM37.8969 34.3429V44.3684H40.8969V34.3429H37.8969ZM39.8657 32.374C38.7784 32.374 37.8969 33.2555 37.8969 34.3429H40.8969C40.8969 34.9124 40.4352 35.374 39.8657 35.374V32.374ZM41.713 32.374H39.8657V35.374H41.713V32.374ZM43.6818 34.3429C43.6818 33.2555 42.8003 32.374 41.713 32.374V35.374C41.1435 35.374 40.6818 34.9124 40.6818 34.3429H43.6818ZM43.6818 44.3684V34.3429H40.6818V44.3684H43.6818ZM46.4349 42.8684H42.1818V45.8684H46.4349V42.8684ZM46.4349 13.2587H33.8334V16.2587H46.4349V13.2587ZM47.9349 27.6668V14.7587H44.9349V27.6668H47.9349ZM44.5382 29.1668H46.4349V26.1668H44.5382V29.1668ZM44.3774 22.7325L43.0951 27.2578L45.9814 28.0757L47.2638 23.5504L44.3774 22.7325ZM44.6749 23.8482C44.4434 23.6334 44.2408 23.2146 44.3774 22.7325L47.2638 23.5504C47.4788 22.7915 47.1841 22.0841 46.7156 21.6493L44.6749 23.8482ZM45.2102 24.0749C45.1371 24.0749 45.0572 24.0629 44.9728 24.0326C44.8898 24.0029 44.7824 23.948 44.6749 23.8482L46.7156 21.6493C46.2744 21.2398 45.7103 21.0749 45.2102 21.0749V24.0749ZM37.9176 24.0749H45.2102V21.0749H37.9176V24.0749ZM38.4529 23.8482C38.3454 23.948 38.238 24.0029 38.155 24.0326C38.0706 24.0629 37.9907 24.0749 37.9176 24.0749V21.0749C37.4175 21.0749 36.8534 21.2398 36.4122 21.6493L38.4529 23.8482ZM38.7504 22.7325C38.887 23.2146 38.6844 23.6334 38.4529 23.8482L36.4122 21.6493C35.9437 22.0841 35.649 22.7914 35.864 23.5504L38.7504 22.7325ZM40.0328 27.2578L38.7504 22.7325L35.864 23.5504L37.1464 28.0757L40.0328 27.2578ZM33.8334 29.1668H38.5896V26.1668H33.8334V29.1668ZM32.3334 14.7587V27.6668H35.3334V14.7587H32.3334ZM13.565 16.2587H32.333V13.2587H13.565V16.2587ZM15.065 27.6668V14.7587H12.065V27.6668H15.065ZM16.0519 26.1668H13.565V29.1668H16.0519V26.1668ZM14.5519 16.9484V27.6668H17.5519V16.9484H14.5519ZM19.3288 15.4484H16.0519V18.4484H19.3288V15.4484ZM20.8288 17.1726V16.9484H17.8288V17.1726H20.8288ZM19.3288 15.6726H19.3288V18.6726H19.3288V15.6726ZM21.7495 15.6726H19.3288V18.6726H21.7495V15.6726ZM21.7495 15.6726H21.7495V18.6726H21.7495V15.6726ZM24.17 15.6726H21.7495V18.6726H24.17V15.6726ZM24.1702 15.6726H24.17V18.6726H24.1702V15.6726ZM25.9871 15.6726H24.1702V18.6726H25.9871V15.6726ZM27.956 17.6415C27.956 16.5541 27.0745 15.6726 25.9871 15.6726V18.6726C25.4176 18.6726 24.956 18.2109 24.956 17.6415H27.956ZM27.956 27.6668V17.6415H24.956V27.6668H27.956ZM32.333 26.1668H26.456V29.1668H32.333V26.1668ZM30.833 14.7587V27.6668H33.833V14.7587H30.833ZM22.2012 18.1103V27.2833H25.2012V18.1103H22.2012ZM22.2184 19.6103H23.7012V16.6103H22.2184V19.6103ZM23.7184 27.2833V18.1103H20.7184V27.2833H23.7184ZM23.7012 25.7833H22.2184V28.7833H23.7012V25.7833ZM24.6391 28.7833H25.5182V25.7833H24.6391V28.7833ZM23.1391 18.1103V27.2833H26.1391V18.1103H23.1391ZM25.5182 16.6103H24.6391V19.6103H25.5182V16.6103ZM27.0182 27.2833V18.1103H24.0182V27.2833H27.0182ZM21.2977 27.2833V18.1103H18.2977V27.2833H21.2977ZM21.2806 25.7833H19.7977V28.7833H21.2806V25.7833ZM19.7806 18.1103V27.2833H22.7806V18.1103H19.7806ZM19.7977 19.6103H21.2806V16.6103H19.7977V19.6103ZM15.0673 34.8115V43.9844H18.0673V34.8115H15.0673ZM18.5175 33.3115H16.5673V36.3115H18.5175V33.3115ZM20.0175 43.9844V34.8115H17.0175V43.9844H20.0175ZM16.5673 45.4844H18.5175V42.4844H16.5673V45.4844ZM21.2977 43.9848V34.8118H18.2977V43.9848H21.2977ZM21.2806 42.4848H19.7977V45.4848H21.2806V42.4848ZM19.7806 34.8118V43.9848H22.7806V34.8118H19.7806ZM19.7977 36.3118H21.2806V33.3118H19.7977V36.3118ZM20.7184 34.8118V43.9848H23.7184V34.8118H20.7184ZM23.7013 33.3118H22.2184V36.3118H23.7013V33.3118ZM25.2013 43.9848V34.8118H22.2013V43.9848H25.2013ZM22.2184 45.4848H23.7013V42.4848H22.2184V45.4848ZM28.8167 43.6845L26.6747 34.8059L23.7584 35.5094L25.9004 44.3881L28.8167 43.6845ZM27.8854 42.3349L26.9597 42.5903L27.7574 45.4823L28.6831 45.2269L27.8854 42.3349ZM24.6842 35.2541L26.8261 44.1327L29.7424 43.4292L27.6005 34.5505L24.6842 35.2541ZM25.6154 36.6037L26.5412 36.3483L25.7435 33.4563L24.8177 33.7117L25.6154 36.6037ZM33.1417 34.8118V43.9848H36.1417V34.8118H33.1417ZM35.035 33.3118H34.6417V36.3118H35.035V33.3118ZM36.535 43.9848V34.8118H33.535V43.9848H36.535ZM34.6417 45.4848H35.035V42.4848H34.6417V45.4848ZM37.5196 43.9848V34.8118H34.5196V43.9848H37.5196ZM37.5025 42.4848H36.0196V45.4848H37.5025V42.4848ZM36.0025 34.8118V43.9848H39.0025V34.8118H36.0025ZM36.0196 36.3118H37.5025V33.3118H36.0196V36.3118ZM36.9403 34.8118V43.9848H39.9403V34.8118H36.9403ZM39.3498 33.3118H38.4403V36.3118H39.3498V33.3118ZM40.8498 43.9848V34.8118H37.8498V43.9848H40.8498ZM38.4403 45.4848H39.3498V42.4848H38.4403V45.4848ZM41.8346 43.9848V34.8118H38.8346V43.9848H41.8346ZM41.2441 42.4848H40.3346V45.4848H41.2441V42.4848ZM39.7441 34.8118V43.9848H42.7441V34.8118H39.7441ZM40.3346 36.3118H41.2441V33.3118H40.3346V36.3118ZM41.2003 26.8744L40.1318 23.1037L37.2454 23.9216L38.3139 27.6923L41.2003 26.8744ZM43.3707 25.7833H39.7571V28.7833H43.3707V25.7833ZM42.996 23.1037L41.9275 26.8744L44.8139 27.6923L45.8824 23.9216L42.996 23.1037ZM38.6886 25.0127H44.4392V22.0127H38.6886V25.0127Z" fill="#F8F9FA" mask="url(#path-1-outside-1_50_6530)"/>
<rect x="11.8358" y="11.5278" width="1.72918" height="40.5275" rx="0.86459" fill="#212529"/>
<rect x="46.4349" y="11.5278" width="1.72918" height="40.5275" rx="0.86459" fill="#212529"/>
<rect x="10.3286" y="28.229" width="39.3427" height="2.66828" rx="1" fill="#FFE066" stroke="#212529" stroke-width="1.2" stroke-linejoin="round"/>
<rect x="10.3286" y="11.5278" width="39.3427" height="2.66828" rx="1" fill="#FFE066" stroke="#212529" stroke-width="1.2" stroke-linejoin="round"/>
<rect x="10.3286" y="44.9307" width="39.3427" height="2.66828" rx="1" fill="#FFE066" stroke="#212529" stroke-width="1.2" stroke-linejoin="round"/>
<rect x="16.9081" y="17.6411" width="2.42068" height="10.1107" fill="#868E96" stroke="#212529" stroke-linejoin="round"/>
<rect x="19.3289" y="17.6411" width="2.42068" height="10.1107" fill="#868E96" stroke="#212529" stroke-linejoin="round"/>
<rect x="21.7495" y="17.6411" width="2.42068" height="10.1107" fill="#FFE066" stroke="#212529" stroke-linejoin="round"/>
<rect x="24.17" y="17.6411" width="1.81704" height="10.1107" fill="#868E96" stroke="#212529" stroke-linejoin="round"/>
<rect x="16.8612" y="34.3428" width="2.42068" height="10.1107" fill="#E9ECEF" stroke="#212529" stroke-linejoin="round"/>
<rect x="19.3287" y="34.3428" width="2.42068" height="10.1107" fill="#E599F7" stroke="#212529" stroke-linejoin="round"/>
<rect x="21.7495" y="34.3428" width="2.42068" height="10.1107" fill="#E9ECEF" stroke="#212529" stroke-linejoin="round"/>
<rect width="1.89807" height="10.0711" transform="matrix(0.964001 -0.265899 0.23452 0.972111 24.6545 34.8267)" fill="#E9ECEF" stroke="#212529" stroke-linejoin="round"/>
<rect x="34.1729" y="34.3428" width="1.33107" height="10.1107" fill="#DEE2E6" stroke="#212529" stroke-linejoin="round"/>
<rect x="35.5508" y="34.3428" width="2.42068" height="10.1107" fill="#DEE2E6" stroke="#212529" stroke-linejoin="round"/>
<rect x="37.9714" y="34.3428" width="1.84722" height="10.1107" fill="#DEE2E6" stroke="#212529" stroke-linejoin="round"/>
<rect x="39.8657" y="34.3428" width="1.84722" height="10.1107" fill="#3BC9DB" stroke="#212529" stroke-linejoin="round"/>
<path d="M33.0833 14.624L33.0833 27.9517" stroke="#212529" stroke-width="1.6" stroke-linecap="round" stroke-linejoin="round"/>
<path d="M37.7625 23.0435H43.2412L42.2388 27.7519H38.7648L37.7625 23.0435Z" fill="#FF8787" stroke="#212529" stroke-linejoin="round"/>
<rect x="15.334" y="8.60107" width="7.62593" height="2.44956" fill="#E599F7" stroke="#212529" stroke-linejoin="round"/>
</svg>
