<svg width="60" height="60" viewBox="0 0 60 60" fill="none" xmlns="http://www.w3.org/2000/svg">
<mask id="path-1-outside-1_50_7137" maskUnits="userSpaceOnUse" x="-0.434993" y="3.36344" width="58.7058" height="57.0819" fill="black">
<rect fill="white" x="-0.434993" y="3.36344" width="58.7058" height="57.0819"/>
<path fill-rule="evenodd" clip-rule="evenodd" d="M34.4804 47.4819C35.4288 49.211 37.2348 50.5618 40.7222 50.9414C44.1921 51.3191 46.0144 50.3157 47.0792 48.9965C48.2083 47.5977 48.6189 45.6949 48.9173 43.9954L48.9641 43.7293C49.355 41.5061 50.064 37.474 50.5239 33.1499C50.5444 32.9571 50.5644 32.7639 50.5838 32.5705C48.4711 32.2135 45.3893 31.8125 42.3421 31.6722C40.6185 31.5928 38.9211 31.5976 37.4244 31.7369C36.0885 31.8612 34.9608 32.0887 34.1258 32.4292C34.0215 33.8303 33.9313 35.1879 33.8455 36.4783L33.8455 36.4784L33.8455 36.4785C33.7452 37.9885 33.6509 39.4064 33.5474 40.6946C33.3379 43.3029 33.4928 45.6813 34.4804 47.4819ZM33.2157 24.0363C32.9738 25.5317 32.835 26.78 32.7645 28.092C32.482 31.0315 32.2929 33.8792 32.1235 36.4309L32.1234 36.4315L32.1234 36.432C32.0245 37.9214 31.9323 39.3098 31.8321 40.5568C31.6161 43.2456 31.7324 46.0501 32.9716 48.3094C34.25 50.6403 36.6263 52.2265 40.536 52.6521C44.4631 53.0796 46.9126 51.9427 48.4183 50.0774C49.8598 48.2916 50.3185 45.9655 50.6122 44.2931L50.66 44.0215C51.0511 41.7972 51.7689 37.7157 52.2351 33.3318C52.3492 32.2596 52.4489 31.1632 52.525 30.0667C52.7131 28.3576 52.7517 26.9222 52.6748 25.0876C52.6431 23.3233 52.5023 21.6648 52.207 20.2288C51.7728 18.1175 51.255 16.0387 50.0242 14.48C48.7402 12.854 46.7855 11.9089 43.7709 11.7997C40.7685 11.6909 38.6088 12.4396 37.0203 13.941C35.4699 15.4064 34.5691 17.4949 33.8579 19.8312C33.8477 19.8646 33.8396 19.8986 33.8335 19.933C33.5958 21.2871 33.3922 22.6616 33.2157 24.0363ZM35.2303 22.0537C35.3205 21.4607 35.4167 20.8698 35.5194 20.2824C36.2069 18.0369 36.9995 16.3286 38.2024 15.1916C39.3762 14.0822 41.0448 13.423 43.7086 13.5195C46.3603 13.6155 47.7806 14.4157 48.6736 15.5465C49.6198 16.7448 50.0812 18.4347 50.5214 20.5755C50.6516 21.2082 50.7496 21.8937 50.8197 22.6204C48.3331 22.0944 45.2325 21.8951 42.3489 21.856C39.605 21.8188 37.0069 21.9265 35.2303 22.0537ZM35.0079 23.6041C36.7347 23.4701 39.4483 23.3465 42.3282 23.3855C45.3772 23.4269 48.5493 23.6504 50.9275 24.2117C51.0164 26.3232 50.9212 28.6774 50.7243 31.043C48.5655 30.6825 45.4772 30.2852 42.4124 30.1441C40.6468 30.0628 38.8737 30.0658 37.2826 30.2138C36.1911 30.3154 35.1554 30.4877 34.2555 30.7629C34.4454 28.4337 34.6825 26.0136 35.0079 23.6041ZM19.0743 50.9161C15.5738 51.1453 13.5614 50.1273 12.3282 48.5882C11.0441 46.9855 10.4802 44.6698 10.2355 42.0646C10.1147 40.7779 9.96224 39.365 9.79994 37.8604L9.79993 37.8604C9.66101 36.5726 9.51485 35.2176 9.37502 33.8171C10.13 33.34 11.1875 32.9229 12.4649 32.5708C13.9009 32.175 15.5557 31.8768 17.251 31.6569C20.3262 31.258 23.484 31.1232 25.6101 31.1156C25.6244 31.3098 25.6381 31.5038 25.6513 31.6975C25.9462 36.036 25.9452 40.1299 25.9447 42.3872L25.9446 42.6575C25.9446 44.3829 25.8693 46.3281 24.9992 47.9011C24.1785 49.3846 22.5573 50.688 19.0743 50.9161ZM25.4205 28.916C25.4315 29.1334 25.4411 29.3565 25.4495 29.5868C23.2748 29.6004 20.1298 29.741 17.0542 30.14C15.3169 30.3653 13.5864 30.6749 12.0584 31.0962C11.0178 31.383 10.0424 31.7291 9.21446 32.152C8.99898 29.8269 8.8142 27.4045 8.71815 24.9772C10.3802 24.5468 13.0042 23.9565 15.8179 23.4975C18.8654 23.0003 22.0696 22.6684 24.5052 22.834C24.9139 24.7 25.2089 26.7869 25.4205 28.916ZM24.1232 21.2814C21.5769 21.1738 18.4492 21.5183 15.5716 21.9878C12.8932 22.4248 10.3811 22.9787 8.66905 23.4109C8.65542 22.8122 8.64797 22.2144 8.64755 21.6189C8.93635 19.2884 9.42153 17.4687 10.4097 16.1408C11.3739 14.8451 12.9033 13.9072 15.5437 13.5416C18.172 13.1776 19.7094 13.72 20.7845 14.6794C21.9237 15.696 22.6703 17.2806 23.4742 19.313C23.7125 19.9154 23.9281 20.5756 24.1232 21.2814ZM7.02757 25.7109C6.96382 24.3276 6.92666 22.9399 6.92666 21.5663C6.92666 21.5314 6.92879 21.4965 6.93303 21.4619C7.22945 19.0378 7.75554 16.825 9.02915 15.1135C10.334 13.36 12.3317 12.2491 15.3077 11.837C18.2958 11.4232 20.3844 12.0159 21.9303 13.3954C23.4121 14.7178 24.2816 16.6756 25.0745 18.6801C26.4211 22.0846 27.0585 27.0234 27.3682 31.5808C27.6672 35.9792 27.6661 40.1234 27.6655 42.3818L27.6655 42.6575C27.6655 44.3556 27.6159 46.7259 26.505 48.7341C25.3446 50.8317 23.1286 52.3751 19.1868 52.6333C15.2624 52.8903 12.6475 51.7389 10.9853 49.6643C9.37404 47.6533 8.77447 44.9111 8.52219 42.2255C8.40516 40.9797 8.25581 39.5958 8.0956 38.1114C7.82299 35.5855 7.51897 32.7686 7.28932 29.8452C7.12853 28.5187 7.04803 27.2497 7.02757 25.7109Z"/>
</mask>
<path fill-rule="evenodd" clip-rule="evenodd" d="M34.4804 47.4819C35.4288 49.211 37.2348 50.5618 40.7222 50.9414C44.1921 51.3191 46.0144 50.3157 47.0792 48.9965C48.2083 47.5977 48.6189 45.6949 48.9173 43.9954L48.9641 43.7293C49.355 41.5061 50.064 37.474 50.5239 33.1499C50.5444 32.9571 50.5644 32.7639 50.5838 32.5705C48.4711 32.2135 45.3893 31.8125 42.3421 31.6722C40.6185 31.5928 38.9211 31.5976 37.4244 31.7369C36.0885 31.8612 34.9608 32.0887 34.1258 32.4292C34.0215 33.8303 33.9313 35.1879 33.8455 36.4783L33.8455 36.4784L33.8455 36.4785C33.7452 37.9885 33.6509 39.4064 33.5474 40.6946C33.3379 43.3029 33.4928 45.6813 34.4804 47.4819ZM33.2157 24.0363C32.9738 25.5317 32.835 26.78 32.7645 28.092C32.482 31.0315 32.2929 33.8792 32.1235 36.4309L32.1234 36.4315L32.1234 36.432C32.0245 37.9214 31.9323 39.3098 31.8321 40.5568C31.6161 43.2456 31.7324 46.0501 32.9716 48.3094C34.25 50.6403 36.6263 52.2265 40.536 52.6521C44.4631 53.0796 46.9126 51.9427 48.4183 50.0774C49.8598 48.2916 50.3185 45.9655 50.6122 44.2931L50.66 44.0215C51.0511 41.7972 51.7689 37.7157 52.2351 33.3318C52.3492 32.2596 52.4489 31.1632 52.525 30.0667C52.7131 28.3576 52.7517 26.9222 52.6748 25.0876C52.6431 23.3233 52.5023 21.6648 52.207 20.2288C51.7728 18.1175 51.255 16.0387 50.0242 14.48C48.7402 12.854 46.7855 11.9089 43.7709 11.7997C40.7685 11.6909 38.6088 12.4396 37.0203 13.941C35.4699 15.4064 34.5691 17.4949 33.8579 19.8312C33.8477 19.8646 33.8396 19.8986 33.8335 19.933C33.5958 21.2871 33.3922 22.6616 33.2157 24.0363ZM35.2303 22.0537C35.3205 21.4607 35.4167 20.8698 35.5194 20.2824C36.2069 18.0369 36.9995 16.3286 38.2024 15.1916C39.3762 14.0822 41.0448 13.423 43.7086 13.5195C46.3603 13.6155 47.7806 14.4157 48.6736 15.5465C49.6198 16.7448 50.0812 18.4347 50.5214 20.5755C50.6516 21.2082 50.7496 21.8937 50.8197 22.6204C48.3331 22.0944 45.2325 21.8951 42.3489 21.856C39.605 21.8188 37.0069 21.9265 35.2303 22.0537ZM35.0079 23.6041C36.7347 23.4701 39.4483 23.3465 42.3282 23.3855C45.3772 23.4269 48.5493 23.6504 50.9275 24.2117C51.0164 26.3232 50.9212 28.6774 50.7243 31.043C48.5655 30.6825 45.4772 30.2852 42.4124 30.1441C40.6468 30.0628 38.8737 30.0658 37.2826 30.2138C36.1911 30.3154 35.1554 30.4877 34.2555 30.7629C34.4454 28.4337 34.6825 26.0136 35.0079 23.6041ZM19.0743 50.9161C15.5738 51.1453 13.5614 50.1273 12.3282 48.5882C11.0441 46.9855 10.4802 44.6698 10.2355 42.0646C10.1147 40.7779 9.96224 39.365 9.79994 37.8604L9.79993 37.8604C9.66101 36.5726 9.51485 35.2176 9.37502 33.8171C10.13 33.34 11.1875 32.9229 12.4649 32.5708C13.9009 32.175 15.5557 31.8768 17.251 31.6569C20.3262 31.258 23.484 31.1232 25.6101 31.1156C25.6244 31.3098 25.6381 31.5038 25.6513 31.6975C25.9462 36.036 25.9452 40.1299 25.9447 42.3872L25.9446 42.6575C25.9446 44.3829 25.8693 46.3281 24.9992 47.9011C24.1785 49.3846 22.5573 50.688 19.0743 50.9161ZM25.4205 28.916C25.4315 29.1334 25.4411 29.3565 25.4495 29.5868C23.2748 29.6004 20.1298 29.741 17.0542 30.14C15.3169 30.3653 13.5864 30.6749 12.0584 31.0962C11.0178 31.383 10.0424 31.7291 9.21446 32.152C8.99898 29.8269 8.8142 27.4045 8.71815 24.9772C10.3802 24.5468 13.0042 23.9565 15.8179 23.4975C18.8654 23.0003 22.0696 22.6684 24.5052 22.834C24.9139 24.7 25.2089 26.7869 25.4205 28.916ZM24.1232 21.2814C21.5769 21.1738 18.4492 21.5183 15.5716 21.9878C12.8932 22.4248 10.3811 22.9787 8.66905 23.4109C8.65542 22.8122 8.64797 22.2144 8.64755 21.6189C8.93635 19.2884 9.42153 17.4687 10.4097 16.1408C11.3739 14.8451 12.9033 13.9072 15.5437 13.5416C18.172 13.1776 19.7094 13.72 20.7845 14.6794C21.9237 15.696 22.6703 17.2806 23.4742 19.313C23.7125 19.9154 23.9281 20.5756 24.1232 21.2814ZM7.02757 25.7109C6.96382 24.3276 6.92666 22.9399 6.92666 21.5663C6.92666 21.5314 6.92879 21.4965 6.93303 21.4619C7.22945 19.0378 7.75554 16.825 9.02915 15.1135C10.334 13.36 12.3317 12.2491 15.3077 11.837C18.2958 11.4232 20.3844 12.0159 21.9303 13.3954C23.4121 14.7178 24.2816 16.6756 25.0745 18.6801C26.4211 22.0846 27.0585 27.0234 27.3682 31.5808C27.6672 35.9792 27.6661 40.1234 27.6655 42.3818L27.6655 42.6575C27.6655 44.3556 27.6159 46.7259 26.505 48.7341C25.3446 50.8317 23.1286 52.3751 19.1868 52.6333C15.2624 52.8903 12.6475 51.7389 10.9853 49.6643C9.37404 47.6533 8.77447 44.9111 8.52219 42.2255C8.40516 40.9797 8.25581 39.5958 8.0956 38.1114C7.82299 35.5855 7.51897 32.7686 7.28932 29.8452C7.12853 28.5187 7.04803 27.2497 7.02757 25.7109Z" fill="#F8F9FA"/>
<path d="M40.7222 50.9414L40.5598 52.4326L40.5598 52.4326L40.7222 50.9414ZM34.4804 47.4819L33.1652 48.2033L33.1652 48.2033L34.4804 47.4819ZM47.0792 48.9965L48.2464 49.9387L48.2464 49.9387L47.0792 48.9965ZM48.9172 43.9955L47.4399 43.7358L47.4398 43.7361L48.9172 43.9955ZM48.964 43.7293L47.4867 43.4695L47.4867 43.4696L48.964 43.7293ZM50.5238 33.1499L49.0323 32.9912L49.0323 32.9913L50.5238 33.1499ZM50.5838 32.5705L52.0762 32.7204C52.1551 31.9351 51.6119 31.223 50.8337 31.0915L50.5838 32.5705ZM42.342 31.6722L42.411 30.1738L42.342 31.6722ZM37.4243 31.7369L37.2853 30.2434L37.2853 30.2434L37.4243 31.7369ZM34.1258 32.4292L33.5594 31.0402C33.0322 31.2552 32.6721 31.7501 32.6299 32.3179L34.1258 32.4292ZM33.8455 36.4784L35.3403 36.603C35.341 36.5946 35.3416 36.5862 35.3422 36.5778L33.8455 36.4784ZM33.8455 36.4784L32.3507 36.3538C32.3496 36.367 32.3486 36.3802 32.3479 36.3934L33.8455 36.4784ZM33.8455 36.4785L35.3422 36.578C35.3425 36.5732 35.3428 36.5684 35.3431 36.5636L33.8455 36.4785ZM33.5474 40.6946L35.0426 40.8148L35.0426 40.8148L33.5474 40.6946ZM32.7644 28.0921L34.2576 28.2356C34.2596 28.2146 34.2611 28.1936 34.2623 28.1726L32.7644 28.0921ZM33.2156 24.0363L34.6964 24.2758C34.699 24.2597 34.7013 24.2436 34.7034 24.2274L33.2156 24.0363ZM32.1234 36.4309L30.6267 36.3316L30.6263 36.3379L32.1234 36.4309ZM32.1234 36.4315L33.62 36.5332L33.6205 36.5245L32.1234 36.4315ZM32.1233 36.432L30.6268 36.3304L30.6266 36.3327L32.1233 36.432ZM31.8321 40.5569L33.3272 40.677L33.3272 40.677L31.8321 40.5569ZM32.9715 48.3095L34.2867 47.5882L34.2867 47.5881L32.9715 48.3095ZM40.5359 52.6522L40.6983 51.161L40.6983 51.161L40.5359 52.6522ZM48.4183 50.0774L47.2511 49.1353L47.2511 49.1353L48.4183 50.0774ZM50.6122 44.2931L49.1348 44.0334L49.1348 44.0337L50.6122 44.2931ZM50.6599 44.0215L49.1826 43.7617L49.1826 43.7618L50.6599 44.0215ZM52.2351 33.3319L53.7267 33.4905L53.7267 33.4905L52.2351 33.3319ZM52.525 30.0667L51.034 29.9026C51.0318 29.9226 51.03 29.9427 51.0286 29.9628L52.525 30.0667ZM52.6747 25.0876L51.175 25.1145C51.1752 25.1265 51.1755 25.1385 51.176 25.1504L52.6747 25.0876ZM52.207 20.2289L50.7377 20.531L50.7377 20.531L52.207 20.2289ZM50.0242 14.4801L51.2014 13.5505L51.2014 13.5505L50.0242 14.4801ZM43.7709 11.7998L43.7166 13.2988L43.7166 13.2988L43.7709 11.7998ZM37.0203 13.941L35.9899 12.8509L35.9899 12.8509L37.0203 13.941ZM33.8578 19.8312L35.2928 20.2681L35.2928 20.2681L33.8578 19.8312ZM35.2302 22.0537L33.7473 21.828C33.6787 22.2788 33.8189 22.7363 34.1282 23.0713C34.4376 23.4063 34.8825 23.5824 35.3373 23.5499L35.2302 22.0537ZM35.5194 20.2824L34.0851 19.8433C34.0669 19.9026 34.0525 19.963 34.0418 20.0241L35.5194 20.2824ZM38.2024 15.1917L39.2327 16.2818L39.2327 16.2818L38.2024 15.1917ZM43.7086 13.5195L43.7629 12.0205L43.7629 12.0205L43.7086 13.5195ZM48.6736 15.5466L49.8508 14.617L49.8508 14.617L48.6736 15.5466ZM50.5214 20.5755L49.0522 20.8777L49.0522 20.8777L50.5214 20.5755ZM50.8196 22.6205L50.5092 24.088C50.9765 24.1868 51.4629 24.0572 51.8191 23.739C52.1753 23.4207 52.3586 22.9519 52.3127 22.4765L50.8196 22.6205ZM42.3489 21.856L42.3692 20.3562L42.3692 20.3562L42.3489 21.856ZM42.3281 23.3855L42.3485 21.8857L42.3485 21.8857L42.3281 23.3855ZM35.0078 23.6042L34.8918 22.1086C34.187 22.1633 33.616 22.7028 33.5213 23.4034L35.0078 23.6042ZM50.9275 24.2117L52.4262 24.1486C52.3979 23.477 51.9263 22.9062 51.2721 22.7518L50.9275 24.2117ZM50.7243 31.0431L50.4772 32.5226C50.8908 32.5916 51.3144 32.4845 51.6453 32.227C51.9763 31.9696 52.1843 31.5853 52.2191 31.1675L50.7243 31.0431ZM42.4124 30.1442L42.4814 28.6457L42.4814 28.6457L42.4124 30.1442ZM37.2826 30.2139L37.1436 28.7203L37.1436 28.7203L37.2826 30.2139ZM34.2554 30.7629L32.7604 30.641C32.72 31.1365 32.9277 31.6197 33.3149 31.9314C33.7021 32.2431 34.2187 32.3427 34.694 32.1974L34.2554 30.7629ZM12.3282 48.5883L13.4988 47.6504L13.4988 47.6504L12.3282 48.5883ZM19.0743 50.9161L18.9763 49.4193L18.9763 49.4193L19.0743 50.9161ZM10.2355 42.0646L8.74206 42.2049L8.74206 42.2049L10.2355 42.0646ZM9.7999 37.8605L11.2913 37.6996C11.2901 37.6889 11.2888 37.6781 11.2874 37.6674L9.7999 37.8605ZM9.7999 37.8604L8.30855 38.0213C8.30971 38.032 8.31098 38.0428 8.31237 38.0535L9.7999 37.8604ZM9.37498 33.8171L8.57372 32.549C8.09358 32.8524 7.82597 33.401 7.8824 33.9661L9.37498 33.8171ZM12.4648 32.5709L12.8635 34.0169L12.8635 34.0169L12.4648 32.5709ZM17.2509 31.657L17.4439 33.1445L17.4439 33.1445L17.2509 31.657ZM25.61 31.1157L27.1059 31.0051C27.0479 30.2197 26.3923 29.6129 25.6047 29.6157L25.61 31.1157ZM25.6513 31.6975L27.1478 31.5958L27.1478 31.5958L25.6513 31.6975ZM25.9446 42.3873L24.4446 42.3869L24.4446 42.387L25.9446 42.3873ZM25.9446 42.6575L24.4446 42.6573L24.4446 42.6575L25.9446 42.6575ZM24.9991 47.9011L26.3117 48.6272L26.3117 48.6272L24.9991 47.9011ZM25.4494 29.5868L25.4588 31.0868C25.8645 31.0842 26.2518 30.9175 26.5324 30.6246C26.8131 30.3317 26.9632 29.9376 26.9484 29.5322L25.4494 29.5868ZM25.4204 28.916L26.9185 28.8402C26.9173 28.816 26.9155 28.7918 26.9131 28.7677L25.4204 28.916ZM17.0542 30.14L17.2471 31.6275L17.2471 31.6275L17.0542 30.14ZM12.0583 31.0962L12.4569 32.5423L12.457 32.5423L12.0583 31.0962ZM9.21442 32.152L7.72082 32.2904C7.76673 32.7858 8.05531 33.2263 8.49119 33.4661C8.92708 33.706 9.45355 33.7142 9.89665 33.4879L9.21442 32.152ZM8.71811 24.9772L8.34208 23.5251C7.65885 23.7021 7.19138 24.3313 7.21928 25.0366L8.71811 24.9772ZM15.8178 23.4975L16.0594 24.9779L16.0594 24.9779L15.8178 23.4975ZM24.5052 22.8341L25.9705 22.5132C25.8278 21.8618 25.2722 21.3828 24.6069 21.3375L24.5052 22.8341ZM15.5715 21.9878L15.8131 23.4682L15.8131 23.4682L15.5715 21.9878ZM24.1232 21.2814L24.0599 22.7801C24.539 22.8003 24.999 22.5903 25.2974 22.2148C25.5958 21.8394 25.6968 21.344 25.569 20.8817L24.1232 21.2814ZM8.66901 23.411L7.1694 23.4451C7.17979 23.9015 7.39746 24.3283 7.76078 24.6047C8.1241 24.8812 8.59352 24.9771 9.03616 24.8653L8.66901 23.411ZM8.64751 21.6189L7.1589 21.4345C7.15127 21.496 7.14747 21.558 7.14751 21.62L8.64751 21.6189ZM10.4097 16.1409L11.613 17.0364L11.613 17.0364L10.4097 16.1409ZM15.5437 13.5416L15.3379 12.0558L15.3379 12.0558L15.5437 13.5416ZM20.7845 14.6795L19.7858 15.7986L19.7858 15.7986L20.7845 14.6795ZM23.4742 19.3131L24.869 18.7614L24.869 18.7614L23.4742 19.3131ZM6.92663 21.5663L5.42663 21.5663L5.42663 21.5663L6.92663 21.5663ZM7.02753 25.711L8.5274 25.691C8.52718 25.6746 8.5267 25.6583 8.52594 25.6419L7.02753 25.711ZM6.93299 21.4619L8.42189 21.644L8.4219 21.644L6.93299 21.4619ZM9.02911 15.1135L7.82575 14.218L7.82575 14.218L9.02911 15.1135ZM15.3076 11.837L15.5134 13.3228L15.5134 13.3228L15.3076 11.837ZM21.9302 13.3955L22.9289 12.2763L22.9289 12.2763L21.9302 13.3955ZM25.0744 18.6801L26.4693 18.1284L26.4693 18.1284L25.0744 18.6801ZM27.3682 31.5808L25.8716 31.6826L25.8716 31.6826L27.3682 31.5808ZM27.6655 42.3818L26.1655 42.3814L26.1655 42.3815L27.6655 42.3818ZM27.6654 42.6575L26.1654 42.6573L26.1654 42.6575L27.6654 42.6575ZM26.505 48.7341L25.1924 48.008L25.1924 48.008L26.505 48.7341ZM19.1867 52.6333L19.0887 51.1365L19.0887 51.1365L19.1867 52.6333ZM10.9852 49.6643L9.81464 50.6022L9.81464 50.6022L10.9852 49.6643ZM8.52216 42.2256L10.0156 42.0853L10.0156 42.0853L8.52216 42.2256ZM8.09556 38.1114L9.5869 37.9505L9.5869 37.9505L8.09556 38.1114ZM7.28928 29.8453L8.78467 29.7278C8.78302 29.7067 8.78092 29.6857 8.77838 29.6648L7.28928 29.8453ZM40.8845 49.4502C37.7665 49.1108 36.4567 47.9661 35.7955 46.7606L33.1652 48.2033C34.4007 50.456 36.7031 52.0128 40.5598 52.4326L40.8845 49.4502ZM45.912 48.0544C45.2305 48.8986 43.9544 49.7844 40.8845 49.4502L40.5598 52.4326C44.4297 52.8539 46.7981 51.7329 48.2464 49.9387L45.912 48.0544ZM47.4398 43.7361C47.137 45.4609 46.7683 46.9935 45.912 48.0544L48.2464 49.9387C49.6483 48.202 50.1007 45.9289 50.3946 44.2549L47.4398 43.7361ZM47.4867 43.4696L47.4399 43.7358L50.3946 44.2551L50.4414 43.9889L47.4867 43.4696ZM49.0323 32.9913C48.5783 37.2594 47.8776 41.2465 47.4867 43.4695L50.4414 43.9891C50.8323 41.7657 51.5496 37.6887 52.0154 33.3085L49.0323 32.9913ZM49.0913 32.4207C49.0721 32.6111 49.0525 32.8013 49.0323 32.9912L52.0154 33.3085C52.0362 33.1129 52.0565 32.9168 52.0762 32.7204L49.0913 32.4207ZM50.8337 31.0915C48.6769 30.7271 45.5331 30.3175 42.411 30.1738L42.2731 33.1706C45.2455 33.3075 48.2651 33.7 50.3338 34.0496L50.8337 31.0915ZM42.411 30.1738C40.6462 30.0925 38.8746 30.0955 37.2853 30.2434L37.5633 33.2305C38.9676 33.0998 40.5906 33.0931 42.2731 33.1706L42.411 30.1738ZM37.2853 30.2434C35.8816 30.374 34.5889 30.6205 33.5594 31.0402L34.6921 33.8182C35.3326 33.557 36.2952 33.3485 37.5633 33.2305L37.2853 30.2434ZM35.3422 36.5778C35.428 35.2867 35.5178 33.9349 35.6216 32.5405L32.6299 32.3179C32.5251 33.7259 32.4345 35.0893 32.3488 36.3789L35.3422 36.5778ZM35.3403 36.603L35.3403 36.603L32.3507 36.3538L32.3507 36.3538L35.3403 36.603ZM35.3431 36.5636L35.3431 36.5635L32.3479 36.3934L32.3479 36.3935L35.3431 36.5636ZM35.0426 40.8148C35.1471 39.5143 35.242 38.0854 35.3422 36.578L32.3488 36.3791C32.2483 37.8916 32.1547 39.2987 32.0522 40.5745L35.0426 40.8148ZM35.7955 46.7606C35.0273 45.3599 34.8387 43.3533 35.0426 40.8148L32.0522 40.5745C31.8371 43.2526 31.9582 46.0027 33.1652 48.2033L35.7955 46.7606ZM34.2623 28.1726C34.3296 26.9211 34.4618 25.7263 34.6964 24.2758L31.7349 23.7968C31.4857 25.3372 31.3404 26.639 31.2666 28.0116L34.2623 28.1726ZM31.2713 27.9486C30.9864 30.9134 30.796 33.7824 30.6267 36.3316L33.6201 36.5303C33.7897 33.9762 33.9775 31.1498 34.2576 28.2356L31.2713 27.9486ZM30.6263 36.3379L30.6263 36.3385L33.6205 36.5245L33.6205 36.524L30.6263 36.3379ZM30.6268 36.3298L30.6268 36.3304L33.6199 36.5337L33.6199 36.5332L30.6268 36.3298ZM30.6266 36.3327C30.5276 37.8247 30.4361 39.2021 30.3369 40.4367L33.3272 40.677C33.4284 39.4176 33.5213 38.0181 33.62 36.5314L30.6266 36.3327ZM30.3369 40.4367C30.1152 43.196 30.198 46.3719 31.6564 49.0308L34.2867 47.5881C33.2667 45.7285 33.1169 43.2952 33.3272 40.677L30.3369 40.4367ZM31.6564 49.0308C33.2229 51.887 36.0969 53.6778 40.3736 54.1434L40.6983 51.161C37.1557 50.7754 35.277 49.3937 34.2867 47.5882L31.6564 49.0308ZM40.3736 54.1434C44.6981 54.6141 47.695 53.3616 49.5855 51.0195L47.2511 49.1353C46.1302 50.5238 44.228 51.5452 40.6983 51.161L40.3736 54.1434ZM49.5855 51.0195C51.2988 48.897 51.7997 46.2032 52.0896 44.5525L49.1348 44.0337C48.8373 45.728 48.4207 47.6863 47.2511 49.1353L49.5855 51.0195ZM52.0895 44.5528L52.1373 44.2812L49.1826 43.7618L49.1348 44.0334L52.0895 44.5528ZM52.1372 44.2813C52.5285 42.0567 53.2545 37.9304 53.7267 33.4905L50.7435 33.1732C50.2832 37.5011 49.5737 41.5378 49.1826 43.7617L52.1372 44.2813ZM53.7267 33.4905C53.8423 32.403 53.9438 31.2882 54.0214 30.1706L51.0286 29.9628C50.9539 31.0383 50.8559 32.1162 50.7435 33.1732L53.7267 33.4905ZM51.176 25.1504C51.2502 26.9186 51.2128 28.2776 51.034 29.9026L54.016 30.2308C54.2133 28.4377 54.2531 26.9258 54.1734 25.0248L51.176 25.1504ZM54.1745 25.0607C54.1419 23.2419 53.9965 21.4841 53.6762 19.9267L50.7377 20.531C51.0081 21.8455 51.1443 23.4048 51.175 25.1145L54.1745 25.0607ZM53.6762 19.9267C53.247 17.8394 52.6799 15.4228 51.2014 13.5505L48.8469 15.4097C49.8301 16.6547 50.2986 18.3956 50.7377 20.531L53.6762 19.9267ZM51.2014 13.5505C49.576 11.4922 47.1553 10.4214 43.8252 10.3007L43.7166 13.2988C46.4158 13.3966 47.9042 14.2159 48.8469 15.4097L51.2014 13.5505ZM43.8252 10.3007C40.5282 10.1813 37.9403 11.0075 35.9899 12.8509L38.0507 15.0312C39.2773 13.8718 41.0087 13.2007 43.7166 13.2988L43.8252 10.3007ZM35.9899 12.8509C34.1446 14.5951 33.1517 17 32.4228 19.3944L35.2928 20.2681C35.9863 17.9899 36.7952 16.2178 38.0507 15.0312L35.9899 12.8509ZM32.4229 19.3944C32.395 19.486 32.3727 19.5793 32.3561 19.6736L35.3109 20.1924C35.3064 20.218 35.3004 20.2432 35.2928 20.2681L32.4229 19.3944ZM32.3561 19.6736C32.1137 21.0541 31.9068 22.4516 31.7278 23.8452L34.7034 24.2274C34.8775 22.8715 35.0777 21.5202 35.3109 20.1924L32.3561 19.6736ZM36.7132 22.2794C36.8018 21.6966 36.8962 21.1166 36.9969 20.5408L34.0418 20.0241C33.937 20.6231 33.8391 21.225 33.7473 21.828L36.7132 22.2794ZM36.9536 20.7216C37.6231 18.5352 38.3233 17.1413 39.2327 16.2818L37.172 14.1016C35.6755 15.516 34.7907 17.5388 34.0851 19.8433L36.9536 20.7216ZM39.2327 16.2818C40.0454 15.5137 41.2863 14.9327 43.6543 15.0185L43.7629 12.0205C40.8032 11.9133 38.7068 12.6509 37.172 14.1016L39.2327 16.2818ZM43.6543 15.0185C45.9883 15.1031 46.9436 15.7762 47.4964 16.4762L49.8508 14.617C48.6176 13.0552 46.7322 12.128 43.7629 12.0205L43.6543 15.0185ZM47.4964 16.4762C48.194 17.3597 48.6062 18.7093 49.0522 20.8777L51.9907 20.2734C51.556 18.1601 51.0456 16.13 49.8508 14.617L47.4964 16.4762ZM49.0522 20.8777C49.1695 21.4481 49.2605 22.0796 49.3266 22.7644L52.3127 22.4765C52.2386 21.7079 52.1336 20.9683 51.9907 20.2734L49.0522 20.8777ZM42.3285 23.3559C45.1787 23.3945 48.1651 23.5921 50.5092 24.088L51.1301 21.1529C48.5011 20.5968 45.2862 20.3957 42.3692 20.3562L42.3285 23.3559ZM35.3373 23.5499C37.0766 23.4254 39.6319 23.3193 42.3285 23.3559L42.3692 20.3562C39.578 20.3183 36.9371 20.4277 35.1231 20.5575L35.3373 23.5499ZM42.3485 21.8857C39.4189 21.846 36.6596 21.9715 34.8918 22.1086L35.1239 25.0997C36.8098 24.9688 39.4776 24.847 42.3078 24.8854L42.3485 21.8857ZM51.2721 22.7518C48.7317 22.1523 45.4285 21.9275 42.3485 21.8857L42.3078 24.8854C45.326 24.9263 48.3669 25.1486 50.583 25.6716L51.2721 22.7518ZM49.4288 24.2748C49.5142 26.3021 49.4234 28.5892 49.2295 30.9186L52.2191 31.1675C52.419 28.7657 52.5186 26.3444 52.4262 24.1486L49.4288 24.2748ZM42.3434 31.6426C45.3345 31.7803 48.3616 32.1693 50.4772 32.5226L50.9714 29.5636C48.7693 29.1958 45.6199 28.7903 42.4814 28.6457L42.3434 31.6426ZM37.4216 31.7074C38.9202 31.5679 40.619 31.5632 42.3434 31.6426L42.4814 28.6457C40.6746 28.5625 38.8271 28.5637 37.1436 28.7203L37.4216 31.7074ZM34.694 32.1974C35.4631 31.9622 36.39 31.8034 37.4216 31.7074L37.1436 28.7203C35.9922 28.8275 34.8475 29.0133 33.8168 29.3285L34.694 32.1974ZM35.7505 30.8848C35.9391 28.5714 36.1736 26.1794 36.4943 23.8049L33.5213 23.4034C33.1912 25.8479 32.9516 28.2961 32.7604 30.641L35.7505 30.8848ZM11.1576 49.5262C12.7641 51.5313 15.3011 52.6664 19.1723 52.4129L18.9763 49.4193C15.8465 49.6243 14.3585 48.7233 13.4988 47.6504L11.1576 49.5262ZM8.74206 42.2049C8.99333 44.8798 9.58822 47.5675 11.1576 49.5262L13.4988 47.6504C12.4999 46.4037 11.9671 44.4598 11.7289 41.9243L8.74206 42.2049ZM8.30855 38.0214C8.47114 39.5285 8.62235 40.9305 8.74206 42.2049L11.7289 41.9243C11.6069 40.6254 11.4533 39.2016 11.2913 37.6996L8.30855 38.0214ZM8.31237 38.0535L8.31238 38.0535L11.2874 37.6674L11.2874 37.6674L8.31237 38.0535ZM7.8824 33.9661C8.02291 35.3735 8.16971 36.7342 8.30855 38.0213L11.2912 37.6996C11.1522 36.411 11.0067 35.0617 10.8676 33.6681L7.8824 33.9661ZM12.0662 31.1248C10.7224 31.4952 9.50594 31.96 8.57372 32.549L10.1762 35.0852C10.7539 34.7201 11.6524 34.3508 12.8635 34.0169L12.0662 31.1248ZM17.058 30.1694C15.3215 30.3946 13.5925 30.7041 12.0662 31.1248L12.8635 34.0169C14.2092 33.646 15.7899 33.359 17.4439 33.1445L17.058 30.1694ZM25.6047 29.6157C23.4321 29.6234 20.2097 29.7606 17.058 30.1694L17.4439 33.1445C20.4427 32.7555 23.5358 32.6231 25.6154 32.6157L25.6047 29.6157ZM27.1478 31.5958C27.1345 31.3992 27.1205 31.2023 27.1059 31.0051L24.1141 31.2262C24.1282 31.4174 24.1418 31.6084 24.1547 31.7993L27.1478 31.5958ZM27.4446 42.3876C27.4452 40.1302 27.4465 35.9906 27.1478 31.5958L24.1547 31.7992C24.4458 36.0815 24.4452 40.1298 24.4446 42.3869L27.4446 42.3876ZM27.4446 42.6578L27.4446 42.3875L24.4446 42.387L24.4446 42.6573L27.4446 42.6578ZM26.3117 48.6272C27.3921 46.6742 27.4446 44.3572 27.4446 42.6575L24.4446 42.6575C24.4446 44.4088 24.3465 45.982 23.6866 47.175L26.3117 48.6272ZM19.1723 52.4129C23.0567 52.1585 25.1955 50.6449 26.3117 48.6272L23.6866 47.175C23.1614 48.1244 22.0577 49.2175 18.9763 49.4193L19.1723 52.4129ZM26.9484 29.5322C26.9398 29.2955 26.9299 29.0653 26.9185 28.8402L23.9223 28.9919C23.9329 29.2015 23.9423 29.4175 23.9504 29.6414L26.9484 29.5322ZM17.2471 31.6275C20.2477 31.2384 23.3294 31.1001 25.4588 31.0868L25.44 28.0868C23.2201 28.1007 20.0118 28.2438 16.8612 28.6525L17.2471 31.6275ZM12.457 32.5423C13.8948 32.1459 15.5511 31.8475 17.2471 31.6275L16.8612 28.6525C15.0826 28.8831 13.278 29.204 11.6597 29.6501L12.457 32.5423ZM9.89665 33.4879C10.6035 33.1269 11.4747 32.813 12.4569 32.5423L11.6597 29.6501C10.5608 29.953 9.48124 30.3315 8.53219 30.8161L9.89665 33.4879ZM7.21928 25.0366C7.31673 27.4991 7.50389 29.9497 7.72082 32.2904L10.708 32.0136C10.494 29.7043 10.3116 27.31 10.2169 24.9179L7.21928 25.0366ZM15.5763 22.0171C12.7131 22.4842 10.0442 23.0844 8.34208 23.5251L9.09414 26.4293C10.7162 26.0093 13.2951 25.4289 16.0594 24.9779L15.5763 22.0171ZM24.6069 21.3375C21.9949 21.1599 18.6531 21.5151 15.5763 22.0171L16.0594 24.9779C19.0777 24.4855 22.1443 24.177 24.4034 24.3306L24.6069 21.3375ZM26.9131 28.7677C26.6979 26.6028 26.3956 24.4544 25.9705 22.5132L23.0399 23.155C23.4321 24.9458 23.7197 26.9711 23.9278 29.0644L26.9131 28.7677ZM15.8131 23.4682C18.6582 23.0041 21.6669 22.679 24.0599 22.7801L24.1865 19.7828C21.4868 19.6687 18.2402 20.0326 15.33 20.5074L15.8131 23.4682ZM9.03616 24.8653C10.7118 24.4424 13.1817 23.8975 15.8131 23.4682L15.33 20.5074C12.6046 20.952 10.0504 21.5152 8.30187 21.9566L9.03616 24.8653ZM7.14751 21.62C7.14794 22.2273 7.15554 22.8361 7.1694 23.4451L10.1686 23.3768C10.1552 22.7883 10.1479 22.2016 10.1475 21.6179L7.14751 21.62ZM9.2063 15.2454C7.977 16.8973 7.4553 19.0426 7.1589 21.4345L10.1361 21.8034C10.4173 19.5342 10.866 18.0402 11.613 17.0364L9.2063 15.2454ZM15.3379 12.0558C12.4043 12.4621 10.4671 13.5511 9.2063 15.2454L11.613 17.0364C12.2806 16.1393 13.4023 15.3525 15.7495 15.0274L15.3379 12.0558ZM21.7832 13.5603C20.2984 12.2353 18.2811 11.6482 15.3379 12.0558L15.7495 15.0274C18.0629 14.7071 19.1203 15.2048 19.7858 15.7986L21.7832 13.5603ZM24.869 18.7614C24.0755 16.7551 23.2216 14.8438 21.7832 13.5603L19.7858 15.7986C20.6257 16.5482 21.2651 17.8062 22.0793 19.8648L24.869 18.7614ZM25.569 20.8817C25.3626 20.1353 25.1307 19.4229 24.869 18.7614L22.0793 19.8648C22.2941 20.4078 22.4935 21.0159 22.6774 21.6811L25.569 20.8817ZM5.42663 21.5663C5.42663 22.9667 5.46449 24.3777 5.52912 25.78L8.52594 25.6419C8.46306 24.2776 8.42663 22.9133 8.42663 21.5663L5.42663 21.5663ZM5.44408 21.2798C5.43245 21.3749 5.42663 21.4706 5.42663 21.5663L8.42663 21.5663C8.42663 21.5923 8.42505 21.6182 8.42189 21.644L5.44408 21.2798ZM7.82575 14.218C6.30985 16.2551 5.74788 18.7955 5.44408 21.2798L8.4219 21.644C8.71095 19.2802 9.20116 17.3949 10.2325 16.009L7.82575 14.218ZM15.1019 10.3512C11.834 10.8037 9.4279 12.0651 7.82575 14.218L10.2325 16.009C11.2401 14.655 12.8293 13.6945 15.5134 13.3228L15.1019 10.3512ZM22.9289 12.2763C20.9721 10.5301 18.4026 9.89409 15.1019 10.3512L15.5134 13.3228C18.1888 12.9523 19.7966 13.5019 20.9315 14.5147L22.9289 12.2763ZM26.4693 18.1284C25.6855 16.1468 24.709 13.8647 22.9289 12.2763L20.9315 14.5147C22.1152 15.5709 22.8777 17.2045 23.6796 19.2318L26.4693 18.1284ZM28.8647 31.4791C28.5542 26.9101 27.9085 21.7672 26.4693 18.1284L23.6796 19.2318C24.9335 22.4021 25.5627 27.1367 25.8716 31.6826L28.8647 31.4791ZM29.1655 42.3822C29.1661 40.1235 29.1675 35.9337 28.8647 31.4791L25.8716 31.6826C26.1668 36.0248 26.1661 40.1234 26.1655 42.3814L29.1655 42.3822ZM29.1654 42.6578L29.1655 42.3821L26.1655 42.3815L26.1654 42.6573L29.1654 42.6578ZM27.8175 49.4602C29.1379 47.0733 29.1654 44.3335 29.1654 42.6576L26.1654 42.6575C26.1654 44.3778 26.0938 46.3786 25.1924 48.008L27.8175 49.4602ZM19.2847 54.1301C23.6255 53.8459 26.3606 52.0939 27.8175 49.4602L25.1924 48.008C24.3286 49.5695 22.6317 50.9045 19.0887 51.1365L19.2847 54.1301ZM9.81464 50.6022C11.8515 53.1444 14.9919 54.4112 19.2847 54.1301L19.0887 51.1365C15.5328 51.3694 13.4435 50.3335 12.1558 48.7264L9.81464 50.6022ZM7.02873 42.3658C7.28762 45.1218 7.91838 48.2355 9.81464 50.6022L12.1558 48.7264C10.8296 47.0711 10.2612 44.7005 10.0156 42.0853L7.02873 42.3658ZM6.60422 38.2724C6.76472 39.7595 6.91286 41.1324 7.02873 42.3658L10.0156 42.0853C9.89739 40.8271 9.74682 39.4322 9.5869 37.9505L6.60422 38.2724ZM5.79389 29.9627C6.0255 32.9111 6.33188 35.749 6.60422 38.2724L9.5869 37.9505C9.31403 35.4221 9.01236 32.6261 8.78467 29.7278L5.79389 29.9627ZM5.52766 25.7309C5.54874 27.3157 5.63207 28.6389 5.80018 30.0258L8.77838 29.6648C8.62491 28.3987 8.54725 27.1838 8.5274 25.691L5.52766 25.7309Z" fill="#F8F9FA" mask="url(#path-1-outside-1_50_7137)"/>
<path d="M9.33885 41.8707C9.83586 47.1615 11.6657 51.9865 19.0905 51.5003C26.5154 51.0141 26.765 45.8067 26.765 42.3831C26.7651 38.0087 26.8212 25.2623 24.2343 18.7222C22.6376 14.6853 21.0021 11.6371 15.3857 12.4149C9.76931 13.1927 8.33154 16.5125 7.74709 21.2919C7.74709 28.6929 8.83247 36.4801 9.33885 41.8707Z" fill="#FF6B6B" stroke="#212529" stroke-width="1.8" stroke-linejoin="round"/>
<g style="mix-blend-mode:multiply">
<path d="M25.7105 30.7636C23.2534 32.0195 13.4932 33.1069 8.92029 33.4937C9.53457 32.4471 11.8961 30.2039 16.4281 29.6032C20.9601 29.0026 24.5047 30.1266 25.7105 30.7636Z" fill="#E9ECEF"/>
</g>
<path d="M25.096 21.8465C19.901 21.2971 10.8968 23.2827 7.74836 24.1603C7.72797 27.7011 7.94505 29.6618 8.59453 33.1218C12.0893 30.5577 21.947 30.0399 26.1974 30.078C26.1211 26.874 25.8703 25.0714 25.096 21.8465Z" fill="#FFA8A8" stroke="#212529" stroke-width="1.4" stroke-linejoin="round"/>
<path d="M32.6498 40.3516C32.2243 45.6487 33.1921 50.7174 40.5891 51.5227C47.9861 52.3279 49.1327 47.2421 49.7248 43.8701C50.4813 39.5616 52.741 27.017 51.3242 20.1281C50.4497 15.8759 49.366 12.5908 43.6998 12.3855C38.0335 12.1802 36.0433 15.2013 34.641 19.8077C33.3611 27.0971 33.0833 34.9547 32.6498 40.3516Z" fill="#FF6B6B" stroke="#212529" stroke-width="1.8" stroke-linejoin="round"/>
<g style="mix-blend-mode:multiply">
<path d="M51.1381 32.567C48.3444 33.3035 37.9917 32.3993 33.1645 31.8551C34.0027 30.9519 36.8854 29.2269 41.7108 29.5528C46.5362 29.8787 50.0062 31.6981 51.1381 32.567Z" fill="#E9ECEF"/>
</g>
<path d="M51.7914 23.3822C46.7222 21.9343 37.4278 22.3182 34.1462 22.633C33.5135 26.1169 33.3902 28.086 33.4375 31.6072C37.3551 29.6918 47.244 30.9024 51.4627 31.6819C51.941 28.5129 52.0034 26.6937 51.7914 23.3822Z" fill="#FFA8A8" stroke="#212529" stroke-width="1.4" stroke-linejoin="round"/>
</svg>
