<svg width="60" height="61" viewBox="0 0 60 61" fill="none" xmlns="http://www.w3.org/2000/svg">
<mask id="path-1-outside-1_50_2110" maskUnits="userSpaceOnUse" x="11.1538" y="7.67651" width="38" height="46" fill="black">
<rect fill="white" x="11.1538" y="7.67651" width="38" height="46"/>
<path fill-rule="evenodd" clip-rule="evenodd" d="M13.1538 12.5765C13.1538 10.9749 14.4522 9.67651 16.0538 9.67651H43.946C45.5477 9.67651 46.8461 10.9749 46.8461 12.5765V48.9357C46.8461 50.5374 45.5477 51.8358 43.946 51.8358H16.0538C14.4522 51.8358 13.1538 50.5374 13.1538 48.9357V12.5765ZM16.0538 11.4765C15.4463 11.4765 14.9538 11.969 14.9538 12.5765V48.9357C14.9538 49.5433 15.4463 50.0357 16.0538 50.0357H43.946C44.5536 50.0357 45.046 49.5433 45.046 48.9357V12.5765C45.046 11.969 44.5536 11.4765 43.946 11.4765H16.0538Z"/>
</mask>
<path fill-rule="evenodd" clip-rule="evenodd" d="M13.1538 12.5765C13.1538 10.9749 14.4522 9.67651 16.0538 9.67651H43.946C45.5477 9.67651 46.8461 10.9749 46.8461 12.5765V48.9357C46.8461 50.5374 45.5477 51.8358 43.946 51.8358H16.0538C14.4522 51.8358 13.1538 50.5374 13.1538 48.9357V12.5765ZM16.0538 11.4765C15.4463 11.4765 14.9538 11.969 14.9538 12.5765V48.9357C14.9538 49.5433 15.4463 50.0357 16.0538 50.0357H43.946C44.5536 50.0357 45.046 49.5433 45.046 48.9357V12.5765C45.046 11.969 44.5536 11.4765 43.946 11.4765H16.0538Z" fill="#F8F9FA"/>
<path d="M16.0538 8.17651C13.6238 8.17651 11.6538 10.1465 11.6538 12.5765H14.6538C14.6538 11.8033 15.2806 11.1765 16.0538 11.1765V8.17651ZM43.946 8.17651H16.0538V11.1765H43.946V8.17651ZM48.3461 12.5765C48.3461 10.1465 46.3761 8.17651 43.946 8.17651V11.1765C44.7192 11.1765 45.3461 11.8033 45.3461 12.5765H48.3461ZM48.3461 48.9357V12.5765H45.3461V48.9357H48.3461ZM43.946 53.3358C46.3761 53.3358 48.3461 51.3658 48.3461 48.9357H45.3461C45.3461 49.7089 44.7192 50.3358 43.946 50.3358V53.3358ZM16.0538 53.3358H43.946V50.3358H16.0538V53.3358ZM11.6538 48.9357C11.6538 51.3658 13.6238 53.3358 16.0538 53.3358V50.3358C15.2806 50.3358 14.6538 49.7089 14.6538 48.9357H11.6538ZM11.6538 12.5765V48.9357H14.6538V12.5765H11.6538ZM16.4538 12.5765C16.4538 12.7974 16.2747 12.9765 16.0538 12.9765V9.97651C14.6179 9.97651 13.4538 11.1406 13.4538 12.5765H16.4538ZM16.4538 48.9357V12.5765H13.4538V48.9357H16.4538ZM16.0538 48.5357C16.2747 48.5357 16.4538 48.7148 16.4538 48.9357H13.4538C13.4538 50.3717 14.6179 51.5357 16.0538 51.5357V48.5357ZM43.946 48.5357H16.0538V51.5357H43.946V48.5357ZM43.546 48.9357C43.546 48.7148 43.7251 48.5357 43.946 48.5357V51.5357C45.382 51.5357 46.546 50.3717 46.546 48.9357H43.546ZM43.546 12.5765V48.9357H46.546V12.5765H43.546ZM43.946 12.9765C43.7251 12.9765 43.546 12.7974 43.546 12.5765H46.546C46.546 11.1406 45.382 9.97651 43.946 9.97651V12.9765ZM16.0538 12.9765H43.946V9.97651H16.0538V12.9765Z" fill="#F8F9FA" mask="url(#path-1-outside-1_50_2110)"/>
<rect x="14.0538" y="10.5229" width="31.8922" height="40.3592" rx="2" fill="#FFA94D" stroke="#212529" stroke-width="1.8" stroke-linejoin="round"/>
<g style="mix-blend-mode:multiply">
<path fill-rule="evenodd" clip-rule="evenodd" d="M41.6731 50.1581H43.3598C44.4644 50.1581 45.3598 49.2626 45.3598 48.1581V13.1338C45.3598 12.0292 44.4644 11.1338 43.3598 11.1338H41.6731C42.7777 11.1338 43.6731 12.0292 43.6731 13.1338V48.1581C43.6731 49.2626 42.7777 50.1581 41.6731 50.1581Z" fill="#E9ECEF"/>
</g>
<circle cx="41.9856" cy="47.0855" r="1.00542" fill="#212529"/>
<rect x="17.939" y="45.644" width="20.4227" height="4.82428" rx="1" fill="#F8F9FA" stroke="#212529" stroke-width="1.4" stroke-linejoin="round"/>
<path d="M20.7429 48.0911V51.2017" stroke="#212529" stroke-linecap="round" stroke-linejoin="round"/>
<path d="M23.2289 48.0911V51.2017" stroke="#212529" stroke-linecap="round" stroke-linejoin="round"/>
<path d="M25.715 48.0911V51.2017" stroke="#212529" stroke-linecap="round" stroke-linejoin="round"/>
<path d="M28.201 48.0911V51.2017" stroke="#212529" stroke-linecap="round" stroke-linejoin="round"/>
<path d="M30.6871 48.0911V51.2017" stroke="#212529" stroke-linecap="round" stroke-linejoin="round"/>
<path d="M33.1732 48.0911V51.2017" stroke="#212529" stroke-linecap="round" stroke-linejoin="round"/>
<path d="M35.6592 48.0911V51.2017" stroke="#212529" stroke-linecap="round" stroke-linejoin="round"/>
<path d="M21.9956 33.9453C21.4908 33.9453 21.0115 33.8672 20.5576 33.711C20.1037 33.5549 19.6843 33.3298 19.2994 33.0356C19.1941 32.9521 19.1051 32.8504 19.0325 32.7306C18.9599 32.6071 18.9236 32.4819 18.9236 32.3548C18.9236 32.1587 18.9798 31.9917 19.0924 31.8537C19.2086 31.7157 19.3629 31.6267 19.5554 31.5868C19.5844 31.5795 19.6262 31.5759 19.6807 31.5759C19.8041 31.5759 19.9149 31.6104 20.0129 31.6794C20.3288 31.9045 20.6575 32.0824 20.9988 32.2132C21.3401 32.3403 21.6724 32.4038 21.9956 32.4038C22.4095 32.4038 22.7236 32.3312 22.9379 32.1859C23.1521 32.037 23.2592 31.8155 23.2592 31.5214C23.2592 31.3072 23.1267 31.1184 22.8616 30.9549C22.6002 30.7879 22.1989 30.6318 21.6579 30.4865C20.8009 30.2541 20.1509 29.9255 19.7079 29.5006C19.2685 29.0722 19.067 28.562 19.1033 27.9701C19.1324 27.5271 19.254 27.1404 19.4682 26.8099C19.6861 26.4758 19.9966 26.2162 20.3997 26.031C20.8027 25.8422 21.2911 25.7478 21.8648 25.7478L22.0446 25.7532C22.375 25.7641 22.7055 25.8131 23.0359 25.9003C23.37 25.9838 23.6895 26.1036 23.9946 26.2598C24.1362 26.3324 24.2542 26.4323 24.3486 26.5594C24.443 26.6865 24.4902 26.8317 24.4902 26.9951C24.4902 27.2457 24.4249 27.4417 24.2941 27.5834C24.167 27.725 24.0109 27.7958 23.8257 27.7958C23.7277 27.7958 23.6314 27.774 23.537 27.7304C22.9887 27.4726 22.5257 27.3364 22.1481 27.3219L21.9738 27.3165C21.578 27.3165 21.273 27.3782 21.0587 27.5017C20.8481 27.6215 20.7428 27.7849 20.7428 27.9919C20.7428 28.2134 20.8971 28.4222 21.2058 28.6183C21.5181 28.8143 21.9611 28.9868 22.5348 29.1357C23.3228 29.3427 23.9147 29.6332 24.3105 30.0072C24.7063 30.3776 24.9042 30.8551 24.9042 31.4397C24.9042 31.9299 24.7916 32.3639 24.5665 32.7415C24.345 33.1192 24.0163 33.4151 23.5806 33.6293C23.1449 33.8399 22.6165 33.9453 21.9956 33.9453ZM29.5317 33.9453C29.0269 33.9453 28.5476 33.8672 28.0937 33.711C27.6398 33.5549 27.2204 33.3298 26.8355 33.0356C26.7302 32.9521 26.6412 32.8504 26.5686 32.7306C26.496 32.6071 26.4597 32.4819 26.4597 32.3548C26.4597 32.1587 26.5159 31.9917 26.6285 31.8537C26.7447 31.7157 26.899 31.6267 27.0915 31.5868C27.1205 31.5795 27.1623 31.5759 27.2168 31.5759C27.3402 31.5759 27.451 31.6104 27.549 31.6794C27.8649 31.9045 28.1936 32.0824 28.5349 32.2132C28.8762 32.3403 29.2085 32.4038 29.5317 32.4038C29.9456 32.4038 30.2597 32.3312 30.474 32.1859C30.6882 32.037 30.7953 31.8155 30.7953 31.5214C30.7953 31.3072 30.6628 31.1184 30.3977 30.9549C30.1363 30.7879 29.735 30.6318 29.194 30.4865C28.337 30.2541 27.687 29.9255 27.244 29.5006C26.8046 29.0722 26.6031 28.562 26.6394 27.9701C26.6684 27.5271 26.7901 27.1404 27.0043 26.8099C27.2222 26.4758 27.5327 26.2162 27.9357 26.031C28.3388 25.8422 28.8272 25.7478 29.4009 25.7478L29.5807 25.7532C29.9111 25.7641 30.2416 25.8131 30.572 25.9003C30.9061 25.9838 31.2256 26.1036 31.5306 26.2598C31.6723 26.3324 31.7903 26.4323 31.8847 26.5594C31.9791 26.6865 32.0263 26.8317 32.0263 26.9951C32.0263 27.2457 31.9609 27.4417 31.8302 27.5834C31.7031 27.725 31.547 27.7958 31.3618 27.7958C31.2638 27.7958 31.1675 27.774 31.0731 27.7304C30.5248 27.4726 30.0618 27.3364 29.6842 27.3219L29.5099 27.3165C29.1141 27.3165 28.8091 27.3782 28.5948 27.5017C28.3842 27.6215 28.2789 27.7849 28.2789 27.9919C28.2789 28.2134 28.4332 28.4222 28.7419 28.6183C29.0542 28.8143 29.4972 28.9868 30.0709 29.1357C30.8589 29.3427 31.4508 29.6332 31.8466 30.0072C32.2424 30.3776 32.4403 30.8551 32.4403 31.4397C32.4403 31.9299 32.3277 32.3639 32.1026 32.7415C31.8811 33.1192 31.5524 33.4151 31.1167 33.6293C30.6809 33.8399 30.1526 33.9453 29.5317 33.9453ZM40.8914 29.8166C40.9132 31.1311 40.6046 32.126 39.9655 32.8014C39.33 33.4732 38.3714 33.8091 37.0895 33.8091H35.1232H35.096C34.9471 33.8091 34.8091 33.7728 34.682 33.7001C34.5586 33.6239 34.4605 33.524 34.3879 33.4006C34.3153 33.2735 34.279 33.1373 34.279 32.9921L34.2681 26.7718C34.2681 26.6229 34.3044 26.4867 34.377 26.3633C34.4533 26.2362 34.5531 26.1363 34.6766 26.0637C34.8037 25.9874 34.9417 25.9493 35.0906 25.9493H35.1123H37.0351C39.606 25.9493 40.8914 27.2384 40.8914 29.8166ZM37.0895 32.3493C37.8267 32.3493 38.3695 32.1424 38.7181 31.7284C39.0704 31.3108 39.2465 30.6735 39.2465 29.8166C39.2465 29.0032 39.0667 28.3986 38.7072 28.0028C38.3514 27.607 37.794 27.4091 37.0351 27.4091H35.913V32.3493H37.0895Z" fill="#212529"/>
<g style="mix-blend-mode:multiply">
<rect x="22.0389" y="10.5229" width="15.922" height="3.31924" rx="1" fill="#E9ECEF"/>
</g>
</svg>
