<svg width="60" height="60" viewBox="0 0 60 60" fill="none" xmlns="http://www.w3.org/2000/svg">
<mask id="path-1-outside-1_50_1070" maskUnits="userSpaceOnUse" x="1.75519" y="-1.15881" width="60.1041" height="60.1041" fill="black">
<rect fill="white" x="1.75519" y="-1.15881" width="60.1041" height="60.1041"/>
<path fill-rule="evenodd" clip-rule="evenodd" d="M33.6587 15.476C36.8915 12.2433 42.1328 12.2433 45.3655 15.476C48.5983 18.7087 48.5983 23.95 45.3655 27.1828C43.3859 29.1624 40.6534 29.9307 38.0864 29.4844C37.3288 29.3527 36.4456 29.4534 35.7225 29.9991C34.6329 30.8212 33.5453 31.7705 32.587 32.7694L28.1717 28.3541C29.1411 27.424 30.0643 26.3716 30.8702 25.3132C31.4338 24.5731 31.5291 23.6633 31.3813 22.8883C30.8846 20.283 31.6448 17.4899 33.6587 15.476ZM36.8822 31.536C35.8446 32.3189 34.8274 33.2118 33.9487 34.1311L35.5022 35.6846C36.6301 36.8125 36.6301 38.6411 35.5022 39.769L34.2816 40.9896L36.1081 42.816C37.9878 44.6958 37.9878 47.7435 36.1081 49.6233L35.3223 50.409C34.1945 51.5369 32.3658 51.5369 31.238 50.409L29.684 48.855L28.1858 50.3532C27.0579 51.4811 25.2293 51.4811 24.1015 50.3533L10.4882 36.74C9.3603 35.6121 9.3603 33.7835 10.4882 32.6556L11.9864 31.1574L10.4325 29.6035C9.30465 28.4757 9.30465 26.6471 10.4325 25.5192L11.2183 24.7335C13.098 22.8537 16.1457 22.8537 18.0255 24.7335L19.8519 26.5599L21.0725 25.3393C22.2004 24.2114 24.029 24.2114 25.1569 25.3393L26.8099 26.9923C27.7038 26.138 28.5721 25.1532 29.3384 24.1468C29.49 23.9477 29.5634 23.6335 29.49 23.2489C28.879 20.0441 29.8136 16.5983 32.2973 14.1146C36.2819 10.1299 42.7423 10.1299 46.727 14.1146C50.7116 18.0992 50.7116 24.5596 46.727 28.5442C44.2856 30.9856 40.9144 31.9303 37.7566 31.3814C37.3815 31.3161 37.0769 31.3891 36.8822 31.536ZM23.916 30.624L21.2134 27.9213L22.434 26.7007C22.8099 26.3248 23.4195 26.3248 23.7954 26.7007L25.3466 28.2519C24.6365 28.8404 24.1454 29.7296 23.916 30.624ZM28.4762 35.1842L25.9801 32.6881C25.7524 32.4523 25.6095 31.9669 25.7404 31.2834C25.8703 30.6054 26.2271 30.0015 26.6154 29.7022C26.6495 29.676 26.6835 29.6495 26.7176 29.6228L31.3182 34.2235C31.2208 34.3478 31.1261 34.4722 31.0345 34.5967C30.7835 34.9378 30.2639 35.259 29.6711 35.378C29.0737 35.4978 28.667 35.3685 28.4762 35.1842ZM32.9202 39.6281L30.4562 37.1642C31.2758 36.9189 32.075 36.4313 32.5852 35.738C32.6199 35.6908 32.6552 35.6436 32.691 35.5963L34.1408 37.0461C34.5167 37.422 34.5167 38.0316 34.1408 38.4075L32.9202 39.6281ZM18.6545 28.0853L16.664 26.0949C15.5362 24.967 13.7076 24.967 12.5797 26.0949L11.794 26.8806C11.418 27.2566 11.418 27.8661 11.794 28.2421L13.3513 29.7995C14.4855 28.7902 16.2242 28.8292 17.3115 29.9166L30.9248 43.5299C32.0122 44.6172 32.0512 46.3559 31.0419 47.4901L32.5994 49.0476C32.9754 49.4235 33.5849 49.4235 33.9609 49.0476L34.7466 48.2618C35.8745 47.134 35.8745 45.3053 34.7466 44.1775L32.7562 42.187C31.7156 42.6037 30.4817 42.3906 29.639 41.5479L19.2936 31.2025C18.4509 30.3598 18.2379 29.1259 18.6545 28.0853ZM29.6734 46.1215C29.9348 45.7461 29.8982 45.2261 29.5634 44.8913L15.9501 31.278C15.6153 30.9432 15.0953 30.9066 14.7199 31.1681L29.6734 46.1215ZM13.3478 32.5188L11.8496 34.0171C11.4737 34.393 11.4736 35.0026 11.8496 35.3785L25.4629 48.9918C25.8388 49.3678 26.4484 49.3678 26.8243 48.9918L28.3226 47.4936L13.3478 32.5188Z"/>
</mask>
<path fill-rule="evenodd" clip-rule="evenodd" d="M33.6587 15.476C36.8915 12.2433 42.1328 12.2433 45.3655 15.476C48.5983 18.7087 48.5983 23.95 45.3655 27.1828C43.3859 29.1624 40.6534 29.9307 38.0864 29.4844C37.3288 29.3527 36.4456 29.4534 35.7225 29.9991C34.6329 30.8212 33.5453 31.7705 32.587 32.7694L28.1717 28.3541C29.1411 27.424 30.0643 26.3716 30.8702 25.3132C31.4338 24.5731 31.5291 23.6633 31.3813 22.8883C30.8846 20.283 31.6448 17.4899 33.6587 15.476ZM36.8822 31.536C35.8446 32.3189 34.8274 33.2118 33.9487 34.1311L35.5022 35.6846C36.6301 36.8125 36.6301 38.6411 35.5022 39.769L34.2816 40.9896L36.1081 42.816C37.9878 44.6958 37.9878 47.7435 36.1081 49.6233L35.3223 50.409C34.1945 51.5369 32.3658 51.5369 31.238 50.409L29.684 48.855L28.1858 50.3532C27.0579 51.4811 25.2293 51.4811 24.1015 50.3533L10.4882 36.74C9.3603 35.6121 9.3603 33.7835 10.4882 32.6556L11.9864 31.1574L10.4325 29.6035C9.30465 28.4757 9.30465 26.6471 10.4325 25.5192L11.2183 24.7335C13.098 22.8537 16.1457 22.8537 18.0255 24.7335L19.8519 26.5599L21.0725 25.3393C22.2004 24.2114 24.029 24.2114 25.1569 25.3393L26.8099 26.9923C27.7038 26.138 28.5721 25.1532 29.3384 24.1468C29.49 23.9477 29.5634 23.6335 29.49 23.2489C28.879 20.0441 29.8136 16.5983 32.2973 14.1146C36.2819 10.1299 42.7423 10.1299 46.727 14.1146C50.7116 18.0992 50.7116 24.5596 46.727 28.5442C44.2856 30.9856 40.9144 31.9303 37.7566 31.3814C37.3815 31.3161 37.0769 31.3891 36.8822 31.536ZM23.916 30.624L21.2134 27.9213L22.434 26.7007C22.8099 26.3248 23.4195 26.3248 23.7954 26.7007L25.3466 28.2519C24.6365 28.8404 24.1454 29.7296 23.916 30.624ZM28.4762 35.1842L25.9801 32.6881C25.7524 32.4523 25.6095 31.9669 25.7404 31.2834C25.8703 30.6054 26.2271 30.0015 26.6154 29.7022C26.6495 29.676 26.6835 29.6495 26.7176 29.6228L31.3182 34.2235C31.2208 34.3478 31.1261 34.4722 31.0345 34.5967C30.7835 34.9378 30.2639 35.259 29.6711 35.378C29.0737 35.4978 28.667 35.3685 28.4762 35.1842ZM32.9202 39.6281L30.4562 37.1642C31.2758 36.9189 32.075 36.4313 32.5852 35.738C32.6199 35.6908 32.6552 35.6436 32.691 35.5963L34.1408 37.0461C34.5167 37.422 34.5167 38.0316 34.1408 38.4075L32.9202 39.6281ZM18.6545 28.0853L16.664 26.0949C15.5362 24.967 13.7076 24.967 12.5797 26.0949L11.794 26.8806C11.418 27.2566 11.418 27.8661 11.794 28.2421L13.3513 29.7995C14.4855 28.7902 16.2242 28.8292 17.3115 29.9166L30.9248 43.5299C32.0122 44.6172 32.0512 46.3559 31.0419 47.4901L32.5994 49.0476C32.9754 49.4235 33.5849 49.4235 33.9609 49.0476L34.7466 48.2618C35.8745 47.134 35.8745 45.3053 34.7466 44.1775L32.7562 42.187C31.7156 42.6037 30.4817 42.3906 29.639 41.5479L19.2936 31.2025C18.4509 30.3598 18.2379 29.1259 18.6545 28.0853ZM29.6734 46.1215C29.9348 45.7461 29.8982 45.2261 29.5634 44.8913L15.9501 31.278C15.6153 30.9432 15.0953 30.9066 14.7199 31.1681L29.6734 46.1215ZM13.3478 32.5188L11.8496 34.0171C11.4737 34.393 11.4736 35.0026 11.8496 35.3785L25.4629 48.9918C25.8388 49.3678 26.4484 49.3678 26.8243 48.9918L28.3226 47.4936L13.3478 32.5188Z" fill="#F8F9FA"/>
<path d="M38.0864 29.4844L38.3433 28.0066L38.3433 28.0066L38.0864 29.4844ZM35.7225 29.999L36.626 31.1964L36.626 31.1964L35.7225 29.999ZM32.587 32.7693L31.5263 33.83C31.8115 34.1151 32.1993 34.2734 32.6025 34.2692C33.0057 34.2651 33.3903 34.0988 33.6694 33.8078L32.587 32.7693ZM28.1717 28.354L27.1332 27.2716C26.8423 27.5508 26.676 27.9353 26.6718 28.3385C26.6676 28.7417 26.8259 29.1296 27.1111 29.4147L28.1717 28.354ZM30.8703 25.3131L32.0637 26.2218L32.0637 26.2218L30.8703 25.3131ZM31.3814 22.8882L32.8548 22.6073L32.8548 22.6073L31.3814 22.8882ZM33.9488 34.1311L32.8644 33.0947C32.3011 33.684 32.3117 34.6153 32.8881 35.1917L33.9488 34.1311ZM36.8822 31.5359L37.7857 32.7333L37.7857 32.7333L36.8822 31.5359ZM34.2816 40.9895L33.221 39.9289C32.6352 40.5147 32.6352 41.4644 33.221 42.0502L34.2816 40.9895ZM29.684 48.855L30.7447 47.7943C30.1589 47.2085 29.2092 47.2085 28.6234 47.7943L29.684 48.855ZM24.1015 50.3532L25.1622 49.2926L24.1015 50.3532ZM10.4882 36.7399L9.42754 37.8006L10.4882 36.7399ZM11.9864 31.1574L13.0471 32.218C13.6329 31.6322 13.6329 30.6825 13.0471 30.0967L11.9864 31.1574ZM10.4326 29.6035L11.4932 28.5428L10.4326 29.6035ZM18.0255 24.7334L16.9649 25.7941L18.0255 24.7334ZM19.852 26.5599L18.7913 27.6205C19.3771 28.2063 20.3268 28.2063 20.9126 27.6205L19.852 26.5599ZM26.81 26.9923L25.7493 28.0529C26.3257 28.6294 27.257 28.6399 27.8463 28.0767L26.81 26.9923ZM29.3384 24.1468L30.5318 25.0555L30.5318 25.0554L29.3384 24.1468ZM29.4901 23.2489L30.9635 22.9679L30.9635 22.9679L29.4901 23.2489ZM37.7567 31.3813L38.0136 29.9035L38.0136 29.9035L37.7567 31.3813ZM21.2134 27.9213L20.1528 26.8606C19.567 27.4464 19.567 28.3962 20.1528 28.982L21.2134 27.9213ZM23.9161 30.624L22.8554 31.6846C23.2364 32.0656 23.7924 32.213 24.3121 32.0707C24.8317 31.9285 25.2352 31.5185 25.369 30.9966L23.9161 30.624ZM25.3467 28.2519L26.3038 29.4068C26.6289 29.1375 26.8253 28.7436 26.845 28.3219C26.8648 27.9002 26.7059 27.4897 26.4073 27.1912L25.3467 28.2519ZM25.9801 32.688L24.9012 33.7301C24.9073 33.7364 24.9133 33.7426 24.9195 33.7487L25.9801 32.688ZM28.4762 35.1841L27.4156 36.2448C27.4217 36.2509 27.4278 36.2569 27.434 36.2629L28.4762 35.1841ZM25.7405 31.2833L24.2673 31.0011L24.2673 31.0011L25.7405 31.2833ZM26.6155 29.7022L27.5312 30.8902L27.5313 30.8902L26.6155 29.7022ZM26.7176 29.6228L27.7783 28.5621C27.2418 28.0257 26.3894 27.9742 25.7923 28.4422L26.7176 29.6228ZM31.3182 34.2234L32.4988 35.1488C32.9668 34.5517 32.9153 33.6992 32.3789 33.1628L31.3182 34.2234ZM31.0346 34.5967L29.8265 33.7076L29.8265 33.7076L31.0346 34.5967ZM29.6711 35.3779L29.9662 36.8486L29.9662 36.8486L29.6711 35.3779ZM30.4563 37.1642L30.0262 35.7271C29.5202 35.8786 29.1312 36.2849 29.0019 36.797C28.8726 37.3091 29.0222 37.8514 29.3956 38.2248L30.4563 37.1642ZM32.9202 39.6281L31.8595 40.6888C32.4453 41.2745 33.3951 41.2745 33.9809 40.6888L32.9202 39.6281ZM32.5853 35.7379L33.7934 36.627L33.7934 36.627L32.5853 35.7379ZM32.691 35.5962L33.7517 34.5356C33.445 34.2289 33.0207 34.07 32.588 34.0998C32.1553 34.1296 31.7567 34.3452 31.495 34.691L32.691 35.5962ZM18.6545 28.0853L20.047 28.6429C20.2701 28.0856 20.1396 27.4491 19.7152 27.0246L18.6545 28.0853ZM13.3514 29.7994L12.2907 30.8601C12.8525 31.4219 13.755 31.4482 14.3486 30.92L13.3514 29.7994ZM31.042 47.49L29.9215 46.4929C29.3932 47.0864 29.4195 47.9889 29.9813 48.5507L31.042 47.49ZM32.7562 42.187L33.8169 41.1263C33.3924 40.7019 32.7559 40.5714 32.1987 40.7945L32.7562 42.187ZM29.6734 46.1215L28.6127 47.1821C28.9267 47.4961 29.3636 47.6548 29.8059 47.6156C30.2482 47.5764 30.6504 47.3432 30.9042 46.9789L29.6734 46.1215ZM14.72 31.168L13.8625 29.9372C13.4982 30.191 13.2651 30.5932 13.2258 31.0355C13.1866 31.4778 13.3453 31.9147 13.6593 32.2287L14.72 31.168ZM13.3479 32.5188L14.4085 31.4582C13.8227 30.8724 12.873 30.8724 12.2872 31.4582L13.3479 32.5188ZM11.8496 35.3785L10.789 36.4391L11.8496 35.3785ZM25.4629 48.9918L26.5236 47.9311L25.4629 48.9918ZM28.3226 47.4935L29.3833 48.5542C29.969 47.9684 29.969 47.0187 29.3833 46.4329L28.3226 47.4935ZM46.4262 14.4153C42.6077 10.5968 36.4166 10.5968 32.5981 14.4153L34.7194 16.5366C37.3664 13.8897 41.6579 13.8897 44.3049 16.5366L46.4262 14.4153ZM46.4262 28.2434C50.2447 24.4249 50.2447 18.2338 46.4262 14.4153L44.3049 16.5366C46.9518 19.1836 46.9519 23.4751 44.3049 26.1221L46.4262 28.2434ZM37.8295 30.9622C40.857 31.4885 44.087 30.5826 46.4262 28.2434L44.3049 26.1221C42.6848 27.7422 40.4499 28.3727 38.3433 28.0066L37.8295 30.9622ZM36.626 31.1964C36.936 30.9625 37.3677 30.8819 37.8295 30.9622L38.3433 28.0066C37.29 27.8235 35.9552 27.9443 34.8191 28.8016L36.626 31.1964ZM33.6694 33.8078C34.5668 32.8725 35.5934 31.9756 36.626 31.1964L34.8191 28.8016C33.6726 29.6667 32.5239 30.6684 31.5046 31.7309L33.6694 33.8078ZM27.1111 29.4147L31.5263 33.83L33.6477 31.7087L29.2324 27.2934L27.1111 29.4147ZM29.6768 24.4045C28.9129 25.4077 28.0409 26.4008 27.1332 27.2716L29.2102 29.4364C30.2414 28.447 31.2158 27.3354 32.0637 26.2218L29.6768 24.4045ZM29.9079 23.1692C29.9982 23.6424 29.9183 24.0873 29.6768 24.4045L32.0637 26.2218C32.9493 25.0587 33.0601 23.684 32.8548 22.6073L29.9079 23.1692ZM32.5981 14.4153C30.2184 16.795 29.3221 20.0966 29.9079 23.1692L32.8548 22.6073C32.4472 20.4694 33.0714 18.1847 34.7194 16.5366L32.5981 14.4153ZM35.0332 35.1675C35.8506 34.3122 36.8062 33.4724 37.7857 32.7333L35.9788 30.3386C34.8831 31.1653 33.8042 32.1113 32.8644 33.0947L35.0332 35.1675ZM36.5629 34.6239L35.0094 33.0704L32.8881 35.1917L34.4416 36.7452L36.5629 34.6239ZM36.5629 40.8296C38.2766 39.1159 38.2766 36.3376 36.5629 34.6239L34.4416 36.7452C34.9837 37.2873 34.9837 38.1662 34.4416 38.7083L36.5629 40.8296ZM35.3423 42.0502L36.5629 40.8296L34.4416 38.7083L33.221 39.9289L35.3423 42.0502ZM33.221 42.0502L35.0474 43.8767L37.1688 41.7553L35.3423 39.9289L33.221 42.0502ZM35.0474 43.8767C36.3414 45.1706 36.3414 47.2686 35.0474 48.5626L37.1688 50.6839C39.6343 48.2183 39.6343 44.2209 37.1688 41.7553L35.0474 43.8767ZM35.0474 48.5626L34.2617 49.3483L36.383 51.4696L37.1688 50.6839L35.0474 48.5626ZM34.2617 49.3483C33.7196 49.8904 32.8408 49.8904 32.2987 49.3483L30.1774 51.4696C31.891 53.1833 34.6694 53.1833 36.383 51.4696L34.2617 49.3483ZM32.2987 49.3483L30.7447 47.7943L28.6234 49.9157L30.1774 51.4696L32.2987 49.3483ZM28.6234 47.7943L27.1252 49.2925L29.2465 51.4139L30.7447 49.9157L28.6234 47.7943ZM27.1252 49.2925C26.5831 49.8346 25.7042 49.8346 25.1622 49.2926L23.0408 51.4139C24.7545 53.1275 27.5328 53.1275 29.2465 51.4139L27.1252 49.2925ZM25.1622 49.2926L11.5489 35.6793L9.42754 37.8006L23.0408 51.4139L25.1622 49.2926ZM11.5489 35.6793C11.0068 35.1372 11.0068 34.2583 11.5489 33.7162L9.42754 31.5949C7.71389 33.3086 7.7139 36.0869 9.42754 37.8006L11.5489 35.6793ZM11.5489 33.7162L13.0471 32.218L10.9258 30.0967L9.42754 31.5949L11.5489 33.7162ZM13.0471 30.0967L11.4932 28.5428L9.37189 30.6642L10.9258 32.218L13.0471 30.0967ZM11.4932 28.5428C10.9511 28.0008 10.9511 27.1219 11.4932 26.5798L9.3719 24.4585C7.65825 26.1721 7.65825 28.9505 9.37189 30.6642L11.4932 28.5428ZM11.4932 26.5798L12.279 25.7941L10.1576 23.6728L9.3719 24.4585L11.4932 26.5798ZM12.279 25.7941C13.5729 24.5001 15.6709 24.5001 16.9649 25.7941L19.0862 23.6728C16.6206 21.2072 12.6232 21.2072 10.1576 23.6728L12.279 25.7941ZM16.9649 25.7941L18.7913 27.6205L20.9126 25.4992L19.0862 23.6728L16.9649 25.7941ZM20.0119 24.2786L18.7913 25.4992L20.9126 27.6205L22.1332 26.3999L20.0119 24.2786ZM26.2176 24.2786C24.5039 22.5649 21.7256 22.5649 20.0119 24.2786L22.1332 26.3999C22.6753 25.8578 23.5542 25.8578 24.0963 26.3999L26.2176 24.2786ZM27.8706 25.9316L26.2176 24.2786L24.0963 26.3999L25.7493 28.0529L27.8706 25.9316ZM28.145 23.2381C27.4215 24.1882 26.605 25.1132 25.7736 25.9079L27.8463 28.0767C28.8026 27.1627 29.7228 26.118 30.5318 25.0555L28.145 23.2381ZM28.0166 23.5298C28.0308 23.6039 27.9789 23.4562 28.145 23.2381L30.5318 25.0554C31.0011 24.4391 31.0961 23.6632 30.9635 22.9679L28.0166 23.5298ZM31.2367 13.0539C28.3868 15.9037 27.3165 19.8581 28.0166 23.5298L30.9635 22.9679C30.4415 20.23 31.2404 17.2927 33.358 15.1752L31.2367 13.0539ZM47.7877 13.0539C43.2172 8.48342 35.8071 8.48342 31.2367 13.0539L33.358 15.1752C36.7568 11.7763 42.2675 11.7763 45.6663 15.1752L47.7877 13.0539ZM47.7877 29.6049C52.3581 25.0344 52.3581 17.6243 47.7877 13.0539L45.6663 15.1752C49.0652 18.574 49.0652 24.0847 45.6663 27.4835L47.7877 29.6049ZM37.4998 32.8591C41.1177 33.4881 44.9865 32.406 47.7877 29.6049L45.6663 27.4835C43.5848 29.5651 40.7113 30.3724 38.0136 29.9035L37.4998 32.8591ZM37.7857 32.7333C37.5726 32.8942 37.4285 32.8468 37.4998 32.8592L38.0136 29.9035C37.3345 29.7854 36.5812 29.884 35.9788 30.3386L37.7857 32.7333ZM20.1528 28.982L22.8554 31.6846L24.9767 29.5633L22.2741 26.8606L20.1528 28.982ZM21.3734 25.64L20.1528 26.8606L22.2741 28.982L23.4947 27.7613L21.3734 25.64ZM24.8561 25.64C23.8944 24.6783 22.3351 24.6783 21.3734 25.64L23.4947 27.7613C23.2849 27.9712 22.9447 27.9712 22.7348 27.7613L24.8561 25.64ZM26.4073 27.1912L24.8561 25.64L22.7348 27.7613L24.286 29.3126L26.4073 27.1912ZM25.369 30.9966C25.5376 30.3394 25.8873 29.752 26.3038 29.4068L24.3896 27.0969C23.3859 27.9287 22.7533 29.1197 22.4631 30.2513L25.369 30.9966ZM24.9195 33.7487L27.4156 36.2448L29.5369 34.1235L27.0408 31.6274L24.9195 33.7487ZM24.2673 31.0011C24.0858 31.9487 24.2064 33.0108 24.9012 33.7301L27.0591 31.646C27.1254 31.7147 27.1607 31.7753 27.1776 31.8101C27.1949 31.8457 27.1975 31.8633 27.196 31.856C27.1928 31.8403 27.1789 31.7475 27.2137 31.5656L24.2673 31.0011ZM25.6997 28.5142C24.9595 29.0847 24.4499 30.0479 24.2673 31.0011L27.2137 31.5656C27.2473 31.3902 27.3114 31.2228 27.3877 31.0874C27.4689 30.9435 27.5334 30.8886 27.5312 30.8902L25.6997 28.5142ZM25.7923 28.4422C25.7614 28.4664 25.7306 28.4904 25.6997 28.5142L27.5313 30.8902C27.5685 30.8615 27.6057 30.8325 27.6429 30.8034L25.7923 28.4422ZM32.3789 33.1628L27.7783 28.5621L25.6569 30.6835L30.2576 35.2841L32.3789 33.1628ZM32.2427 35.4858C32.3249 35.374 32.4104 35.2616 32.4988 35.1488L30.1376 33.2981C30.0313 33.4339 29.9274 33.5704 29.8265 33.7076L32.2427 35.4858ZM29.9662 36.8486C30.8424 36.6728 31.725 36.1892 32.2427 35.4858L29.8265 33.7076C29.8498 33.6759 29.8282 33.7147 29.7232 33.7761C29.6269 33.8325 29.5046 33.8814 29.3761 33.9072L29.9662 36.8486ZM27.434 36.2629C28.1073 36.9133 29.0915 37.0241 29.9662 36.8486L29.3761 33.9072C29.2408 33.9344 29.1933 33.9198 29.2178 33.9247C29.2304 33.9273 29.2655 33.9358 29.3161 33.9604C29.3656 33.9845 29.439 34.0286 29.5185 34.1054L27.434 36.2629ZM29.3956 38.2248L31.8595 40.6888L33.9809 38.5674L31.5169 36.1035L29.3956 38.2248ZM30.8864 38.6012C31.9442 38.2846 33.049 37.6385 33.7934 36.627L31.3772 34.8488C31.101 35.2241 30.6075 35.5531 30.0262 35.7271L30.8864 38.6012ZM33.7934 36.627C33.824 36.5854 33.8552 36.5436 33.887 36.5015L31.495 34.691C31.4553 34.7435 31.416 34.7961 31.3771 34.8489L33.7934 36.627ZM31.6304 36.6569L33.0802 38.1067L35.2015 35.9854L33.7517 34.5356L31.6304 36.6569ZM33.0802 38.1067C32.8703 37.8969 32.8703 37.5567 33.0802 37.3468L35.2015 39.4681C36.1632 38.5064 36.1632 36.9471 35.2015 35.9854L33.0802 38.1067ZM33.0802 37.3468L31.8595 38.5674L33.9809 40.6888L35.2015 39.4681L33.0802 37.3468ZM19.7152 27.0246L17.7247 25.0342L15.6034 27.1555L17.5939 29.146L19.7152 27.0246ZM17.7247 25.0342C16.0111 23.3206 13.2327 23.3206 11.5191 25.0342L13.6404 27.1555C14.1825 26.6135 15.0613 26.6135 15.6034 27.1555L17.7247 25.0342ZM11.5191 25.0342L10.7333 25.82L12.8547 27.9413L13.6404 27.1555L11.5191 25.0342ZM10.7333 25.82C9.7716 26.7817 9.7716 28.341 10.7333 29.3027L12.8547 27.1814C13.0645 27.3912 13.0645 27.7314 12.8547 27.9413L10.7333 25.82ZM10.7333 29.3027L12.2907 30.8601L14.412 28.7388L12.8547 27.1814L10.7333 29.3027ZM14.3486 30.92C14.8926 30.4358 15.7287 30.4549 16.2509 30.9772L18.3723 28.8559C16.7198 27.2034 14.0784 27.1445 12.3542 28.6789L14.3486 30.92ZM16.2509 30.9772L29.8642 44.5905L31.9855 42.4692L18.3723 28.8559L16.2509 30.9772ZM29.8642 44.5905C30.3865 45.1127 30.4056 45.9488 29.9215 46.4929L32.1625 48.4872C33.6969 46.763 33.638 44.1217 31.9855 42.4692L29.8642 44.5905ZM29.9813 48.5507L31.5388 50.1082L33.6601 47.9869L32.1026 46.4294L29.9813 48.5507ZM31.5388 50.1082C32.5005 51.0699 34.0598 51.0699 35.0216 50.1082L32.9003 47.9869C33.1101 47.777 33.4503 47.777 33.6601 47.9869L31.5388 50.1082ZM35.0216 50.1082L35.8073 49.3224L33.686 47.2011L32.9003 47.9869L35.0216 50.1082ZM35.8073 49.3224C37.521 47.6088 37.521 44.8304 35.8073 43.1168L33.686 45.2381C34.2281 45.7802 34.2281 46.659 33.686 47.2011L35.8073 49.3224ZM35.8073 43.1168L33.8169 41.1263L31.6955 43.2477L33.686 45.2381L35.8073 43.1168ZM28.5784 42.6085C29.8604 43.8906 31.7359 44.2113 33.3138 43.5795L32.1987 40.7945C31.6955 40.9959 31.103 40.8906 30.6997 40.4872L28.5784 42.6085ZM18.233 32.2632L28.5784 42.6085L30.6997 40.4872L20.3543 30.1418L18.233 32.2632ZM17.262 27.5277C16.6302 29.1056 16.9509 30.9811 18.233 32.2632L20.3543 30.1418C19.951 29.7385 19.8456 29.146 20.047 28.6429L17.262 27.5277ZM30.9042 46.9789C31.5737 46.0178 31.4817 44.6882 30.6241 43.8306L28.5028 45.9519C28.3148 45.764 28.2961 45.4744 28.4426 45.264L30.9042 46.9789ZM30.6241 43.8306L17.0108 30.2173L14.8895 32.3386L28.5028 45.9519L30.6241 43.8306ZM17.0108 30.2173C16.1532 29.3597 14.8236 29.2677 13.8625 29.9372L15.5774 32.3988C15.3671 32.5453 15.0775 32.5266 14.8895 32.3386L17.0108 30.2173ZM13.6593 32.2287L28.6127 47.1821L30.7341 45.0608L15.7806 30.1074L13.6593 32.2287ZM12.2872 31.4582L10.789 32.9564L12.9103 35.0777L14.4085 33.5795L12.2872 31.4582ZM10.789 32.9564C9.82725 33.9181 9.82725 35.4774 10.789 36.4391L12.9103 34.3178C13.1201 34.5276 13.1201 34.8679 12.9103 35.0777L10.789 32.9564ZM10.789 36.4391L24.4023 50.0524L26.5236 47.9311L12.9103 34.3178L10.789 36.4391ZM24.4023 50.0524C25.364 51.0142 26.9233 51.0142 27.885 50.0524L25.7637 47.9311C25.9736 47.7213 26.3138 47.7213 26.5236 47.9311L24.4023 50.0524ZM27.885 50.0524L29.3833 48.5542L27.2619 46.4329L25.7637 47.9311L27.885 50.0524ZM29.3833 46.4329L14.4085 31.4582L12.2872 33.5795L27.2619 48.5542L29.3833 46.4329Z" fill="#F8F9FA" mask="url(#path-1-outside-1_50_1070)"/>
<path fill-rule="evenodd" clip-rule="evenodd" d="M36.2616 30.7847C36.7377 30.4244 37.3548 30.3348 37.9435 30.4348C40.7958 30.9194 43.8318 30.061 46.0334 27.8594C49.6421 24.2507 49.6421 18.3999 46.0334 14.7912C42.4247 11.1825 36.5738 11.1825 32.9651 14.7912C30.7255 17.0308 29.8759 20.134 30.4161 23.0289C30.5286 23.6317 30.4416 24.2675 30.0695 24.7548C28.8816 26.3105 27.4459 27.8327 26.0149 28.9357C24.7854 29.8835 24.1971 32.2754 25.2949 33.3732L26.5879 34.6662C26.5879 34.6662 26.5879 34.6662 26.5879 34.6662V34.6662C26.5879 34.6661 26.5879 34.6661 26.588 34.6662L27.776 35.8542C28.7846 36.8628 30.9517 36.3121 31.7972 35.1633C32.9323 33.6209 34.5818 32.0557 36.2616 30.7847Z" fill="#FFE066"/>
<path d="M31.7972 35.1633L30.9918 34.5705L31.7972 35.1633ZM30.4161 23.0289L29.4331 23.2124L30.4161 23.0289ZM30.0695 24.7548L29.2747 24.1479L30.0695 24.7548ZM37.9435 30.4348L37.7759 31.4207L37.9435 30.4348ZM36.2616 30.7847L35.6582 29.9872L36.2616 30.7847ZM45.3263 27.1523C43.3635 29.1151 40.6575 29.8816 38.111 29.4489L37.7759 31.4207C40.934 31.9573 44.3001 31.0069 46.7405 28.5665L45.3263 27.1523ZM45.3263 15.4983C48.5444 18.7165 48.5444 23.9342 45.3263 27.1523L46.7405 28.5665C50.7397 24.5673 50.7397 18.0833 46.7405 14.0841L45.3263 15.4983ZM33.6723 15.4983C36.8904 12.2801 42.1081 12.2801 45.3263 15.4983L46.7405 14.0841C42.7413 10.0849 36.2573 10.0849 32.258 14.0841L33.6723 15.4983ZM31.3992 22.8455C30.9168 20.2609 31.6756 17.4949 33.6723 15.4983L32.258 14.0841C29.7754 16.5667 28.8349 20.0072 29.4331 23.2124L31.3992 22.8455ZM26.6254 29.7277C28.1423 28.5584 29.6378 26.9679 30.8643 25.3617L29.2747 24.1479C28.1253 25.6531 26.7494 27.1069 25.4044 28.1437L26.6254 29.7277ZM27.295 33.9591L26.002 32.6661L24.5877 34.0803L25.8807 35.3733L27.295 33.9591ZM28.4831 35.1471L27.2951 33.9591L25.8809 35.3733L27.0689 36.5613L28.4831 35.1471ZM35.6582 29.9872C33.9255 31.2983 32.1994 32.9297 30.9918 34.5705L32.6026 35.756C33.6652 34.3122 35.2382 32.8131 36.8649 31.5821L35.6582 29.9872ZM27.0689 36.5613C27.9019 37.3943 29.0954 37.4886 30.0445 37.2982C31.0057 37.1054 32.0014 36.5728 32.6026 35.756L30.9918 34.5705C30.7474 34.9025 30.2368 35.2198 29.651 35.3373C29.053 35.4573 28.6587 35.3227 28.4831 35.1471L27.0689 36.5613ZM27.295 35.3733C26.9065 35.7617 26.2734 35.7658 25.8809 35.3733L27.2951 33.9591C26.9025 33.5665 26.2693 33.5706 25.8808 33.9591L27.295 35.3733ZM25.4044 28.1437C24.5544 28.7989 23.9985 29.8739 23.8 30.91C23.6043 31.9319 23.7102 33.2028 24.5877 34.0803L26.002 32.6661C25.7817 32.4458 25.633 31.9719 25.7643 31.2863C25.8929 30.6152 26.2459 30.0203 26.6254 29.7277L25.4044 28.1437ZM29.4331 23.2124C29.5085 23.6161 29.4315 23.9425 29.2747 24.1479L30.8643 25.3617C31.4516 24.5925 31.5488 23.6472 31.3992 22.8455L29.4331 23.2124ZM25.8807 35.3733C26.2713 35.7638 26.9045 35.7638 27.295 35.3733L25.8808 33.9591C26.2713 33.5685 26.9044 33.5685 27.295 33.9591L25.8807 35.3733ZM38.111 29.4489C37.3273 29.3158 36.4097 29.4186 35.6582 29.9872L36.8649 31.5821C37.0658 31.4302 37.3822 31.3538 37.7759 31.4207L38.111 29.4489Z" fill="#212529"/>
<g style="mix-blend-mode:soft-light" opacity="0.7">
<path d="M38.5277 14.1787C37.6012 13.7903 36.2856 14.6148 35.4333 15.2644C32.9706 17.0935 33.7992 17.9232 34.0256 18.0043C34.252 18.0854 35.2303 17.2781 36.4755 16.2702C37.7207 15.2623 39.6858 14.6643 38.5277 14.1787Z" fill="#F8F9FA"/>
</g>
<g style="mix-blend-mode:multiply">
<path fill-rule="evenodd" clip-rule="evenodd" d="M37.8252 27.9779C37.2354 27.8849 36.6179 27.9728 36.1432 28.3351C34.9683 29.2319 33.8146 30.2866 32.8893 31.3637C31.7829 32.6517 29.076 33.262 27.8754 32.0613L27.5634 31.7493L27.4158 31.6017L26.9561 31.142C26.697 30.8829 26.5222 30.5536 26.4204 30.1853C26.2161 31.0074 26.3057 31.8789 26.8377 32.4109L27.995 33.5683H27.9951H27.9951L29.0585 34.6316C29.9613 35.5344 31.901 35.0415 32.6578 34.0132C33.656 32.6568 35.0987 31.2807 36.5749 30.154C37.0495 29.7917 37.6671 29.7038 38.2569 29.7968C40.7815 30.1949 43.4551 29.4212 45.4006 27.4757C47.7432 25.1331 48.3869 21.735 47.3317 18.8124C47.6253 21.2474 46.8377 23.788 44.9689 25.6567C43.0234 27.6023 40.3498 28.376 37.8252 27.9779Z" fill="#FFE066"/>
</g>
<rect x="15.2565" y="29.2318" width="23.1029" height="7.72435" rx="2" transform="rotate(45 15.2565 29.2318)" fill="#FA5252" stroke="#212529" stroke-width="2" stroke-linecap="round" stroke-linejoin="round"/>
<rect x="23.1018" y="24.6545" width="18.4813" height="6.36652" rx="2" transform="rotate(45 23.1018 24.6545)" fill="#FF8787" stroke="#212529" stroke-width="2" stroke-linecap="round" stroke-linejoin="round"/>
<path d="M11.7806 25.5157C13.3427 23.9536 15.8753 23.9536 17.4374 25.5157L35.3089 43.3872C36.871 44.9493 36.871 47.4819 35.3089 49.044L34.6815 49.6715C33.9005 50.4525 32.6341 50.4525 31.8531 49.6715L11.1531 28.9715C10.3721 28.1905 10.3721 26.9242 11.1531 26.1431L11.7806 25.5157Z" fill="#FF6B6B" stroke="#212529" stroke-width="2" stroke-linecap="round" stroke-linejoin="round"/>
<g style="mix-blend-mode:multiply">
<rect x="12.667" y="33.1962" width="0.917684" height="21.2156" transform="rotate(-45 12.667 33.1962)" fill="#DEE2E6"/>
</g>
</svg>
