<svg width="61" height="60" viewBox="0 0 61 60" fill="none" xmlns="http://www.w3.org/2000/svg">
<mask id="path-1-outside-1_50_8446" maskUnits="userSpaceOnUse" x="5.26868" y="9.9248" width="50" height="37" fill="black">
<rect fill="white" x="5.26868" y="9.9248" width="50" height="37"/>
<path fill-rule="evenodd" clip-rule="evenodd" d="M37.1063 11.9248C37.7691 11.9248 38.3063 12.4621 38.3063 13.1248V16.7069C38.3063 17.3696 37.7691 17.9069 37.1063 17.9069C36.4436 17.9069 35.9063 17.3696 35.9063 16.7069V13.1248C35.9063 12.4621 36.4436 11.9248 37.1063 11.9248ZM29.1486 27.8604C29.1267 28.102 29.1154 28.3468 29.1154 28.5941C29.1154 33.0074 32.6931 36.5851 37.1064 36.5851C37.826 36.5851 38.5234 36.4899 39.1866 36.3116C39.2679 36.7052 39.3111 37.1268 39.3111 37.5782C39.3111 39.8182 38.4136 41.2094 37.275 42.0686C36.0943 42.9596 34.5873 43.3237 33.3859 43.3237H14.0113C11.7442 43.3237 10.6382 42.5768 10.0575 41.7931C9.43524 40.953 9.26868 39.8733 9.26868 38.9926C9.26868 37.2457 10.2328 36.1483 11.3057 35.4395C11.8449 35.0832 12.3916 34.8419 12.8072 34.6897C13.0134 34.6142 13.1832 34.5622 13.298 34.5298C13.3553 34.5137 13.3985 34.5025 13.4254 34.4958L13.453 34.4892L13.4549 34.4887L13.4568 34.4883C13.8976 34.3905 14.2183 34.0094 14.2392 33.5581C14.3808 30.4906 15.4979 28.4001 17.0043 27.0697C18.5264 25.7255 20.5271 25.0863 22.5378 25.0863C24.5846 25.0863 26.2964 25.5897 27.6656 26.5276C28.2047 26.8969 28.7007 27.3404 29.1486 27.8604ZM29.7024 25.5825C29.4144 25.3294 29.1121 25.0943 28.7958 24.8776C27.0421 23.6763 24.9204 23.0863 22.5378 23.0863C20.1189 23.0863 17.6234 23.8547 15.6804 25.5706C13.8559 27.1819 12.5883 29.5676 12.291 32.7507C12.2362 32.7696 12.179 32.7899 12.1196 32.8116C11.6031 33.0007 10.9069 33.3059 10.2032 33.7708C8.79033 34.7042 7.26868 36.347 7.26868 38.9926C7.26868 40.0591 7.45879 41.6449 8.45048 42.9836C9.48386 44.3785 11.2492 45.3237 14.0113 45.3237H33.3859C34.9281 45.3237 36.8838 44.8695 38.4798 43.665C40.1179 42.4288 41.3111 40.4472 41.3111 37.5782C41.3111 36.8457 41.2228 36.1667 41.0605 35.5398C43.4718 34.1641 45.0973 31.5689 45.0973 28.5941C45.0973 24.1808 41.5197 20.6031 37.1064 20.6031C33.7585 20.6031 30.8915 22.6619 29.7024 25.5825ZM31.2539 27.3075C31.7211 27.9622 32.1279 28.6868 32.4727 29.477C34.3046 29.5866 36.3345 30.1407 37.995 31.276C38.9041 31.8975 39.7 32.6938 40.2841 33.6738C41.9738 32.6145 43.0973 30.7355 43.0973 28.5941C43.0973 25.2854 40.4151 22.6031 37.1064 22.6031C34.2393 22.6031 31.8427 24.6171 31.2539 27.3075ZM38.405 34.4439C37.9955 33.8394 37.468 33.3384 36.8662 32.927C35.4099 31.9313 33.5114 31.4657 31.8422 31.4566C32.8578 33.3204 34.8344 34.5851 37.1064 34.5851C37.5523 34.5851 37.9868 34.5363 38.405 34.4439ZM48.8339 18.4249C49.3025 17.9563 49.3025 17.1965 48.8339 16.7279C48.3652 16.2592 47.6054 16.2592 47.1368 16.7279L44.6039 19.2608C44.1353 19.7294 44.1353 20.4892 44.6039 20.9578C45.0725 21.4264 45.8323 21.4264 46.3009 20.9578L48.8339 18.4249ZM25.8602 16.3851C25.3915 16.8538 25.3915 17.6136 25.8602 18.0822L28.3931 20.6151C28.8617 21.0837 29.6215 21.0837 30.0901 20.6151C30.5587 20.1465 30.5587 19.3867 30.0901 18.9181L27.5572 16.3851C27.0886 15.9165 26.3288 15.9165 25.8602 16.3851ZM52.5314 29.794C53.1942 29.794 53.7314 29.2568 53.7314 28.594C53.7314 27.9313 53.1942 27.394 52.5314 27.394H49.0359C48.3732 27.394 47.8359 27.9313 47.8359 28.594C47.8359 29.2568 48.3732 29.794 49.0359 29.794H52.5314ZM49.8844 39.5814C49.4158 40.0501 48.656 40.0501 48.1874 39.5814L45.6545 37.0485C45.1859 36.5799 45.1859 35.8201 45.6545 35.3515C46.1231 34.8829 46.8829 34.8829 47.3515 35.3515L49.8844 37.8844C50.3531 38.353 50.3531 39.1128 49.8844 39.5814Z"/>
</mask>
<path fill-rule="evenodd" clip-rule="evenodd" d="M37.1063 11.9248C37.7691 11.9248 38.3063 12.4621 38.3063 13.1248V16.7069C38.3063 17.3696 37.7691 17.9069 37.1063 17.9069C36.4436 17.9069 35.9063 17.3696 35.9063 16.7069V13.1248C35.9063 12.4621 36.4436 11.9248 37.1063 11.9248ZM29.1486 27.8604C29.1267 28.102 29.1154 28.3468 29.1154 28.5941C29.1154 33.0074 32.6931 36.5851 37.1064 36.5851C37.826 36.5851 38.5234 36.4899 39.1866 36.3116C39.2679 36.7052 39.3111 37.1268 39.3111 37.5782C39.3111 39.8182 38.4136 41.2094 37.275 42.0686C36.0943 42.9596 34.5873 43.3237 33.3859 43.3237H14.0113C11.7442 43.3237 10.6382 42.5768 10.0575 41.7931C9.43524 40.953 9.26868 39.8733 9.26868 38.9926C9.26868 37.2457 10.2328 36.1483 11.3057 35.4395C11.8449 35.0832 12.3916 34.8419 12.8072 34.6897C13.0134 34.6142 13.1832 34.5622 13.298 34.5298C13.3553 34.5137 13.3985 34.5025 13.4254 34.4958L13.453 34.4892L13.4549 34.4887L13.4568 34.4883C13.8976 34.3905 14.2183 34.0094 14.2392 33.5581C14.3808 30.4906 15.4979 28.4001 17.0043 27.0697C18.5264 25.7255 20.5271 25.0863 22.5378 25.0863C24.5846 25.0863 26.2964 25.5897 27.6656 26.5276C28.2047 26.8969 28.7007 27.3404 29.1486 27.8604ZM29.7024 25.5825C29.4144 25.3294 29.1121 25.0943 28.7958 24.8776C27.0421 23.6763 24.9204 23.0863 22.5378 23.0863C20.1189 23.0863 17.6234 23.8547 15.6804 25.5706C13.8559 27.1819 12.5883 29.5676 12.291 32.7507C12.2362 32.7696 12.179 32.7899 12.1196 32.8116C11.6031 33.0007 10.9069 33.3059 10.2032 33.7708C8.79033 34.7042 7.26868 36.347 7.26868 38.9926C7.26868 40.0591 7.45879 41.6449 8.45048 42.9836C9.48386 44.3785 11.2492 45.3237 14.0113 45.3237H33.3859C34.9281 45.3237 36.8838 44.8695 38.4798 43.665C40.1179 42.4288 41.3111 40.4472 41.3111 37.5782C41.3111 36.8457 41.2228 36.1667 41.0605 35.5398C43.4718 34.1641 45.0973 31.5689 45.0973 28.5941C45.0973 24.1808 41.5197 20.6031 37.1064 20.6031C33.7585 20.6031 30.8915 22.6619 29.7024 25.5825ZM31.2539 27.3075C31.7211 27.9622 32.1279 28.6868 32.4727 29.477C34.3046 29.5866 36.3345 30.1407 37.995 31.276C38.9041 31.8975 39.7 32.6938 40.2841 33.6738C41.9738 32.6145 43.0973 30.7355 43.0973 28.5941C43.0973 25.2854 40.4151 22.6031 37.1064 22.6031C34.2393 22.6031 31.8427 24.6171 31.2539 27.3075ZM38.405 34.4439C37.9955 33.8394 37.468 33.3384 36.8662 32.927C35.4099 31.9313 33.5114 31.4657 31.8422 31.4566C32.8578 33.3204 34.8344 34.5851 37.1064 34.5851C37.5523 34.5851 37.9868 34.5363 38.405 34.4439ZM48.8339 18.4249C49.3025 17.9563 49.3025 17.1965 48.8339 16.7279C48.3652 16.2592 47.6054 16.2592 47.1368 16.7279L44.6039 19.2608C44.1353 19.7294 44.1353 20.4892 44.6039 20.9578C45.0725 21.4264 45.8323 21.4264 46.3009 20.9578L48.8339 18.4249ZM25.8602 16.3851C25.3915 16.8538 25.3915 17.6136 25.8602 18.0822L28.3931 20.6151C28.8617 21.0837 29.6215 21.0837 30.0901 20.6151C30.5587 20.1465 30.5587 19.3867 30.0901 18.9181L27.5572 16.3851C27.0886 15.9165 26.3288 15.9165 25.8602 16.3851ZM52.5314 29.794C53.1942 29.794 53.7314 29.2568 53.7314 28.594C53.7314 27.9313 53.1942 27.394 52.5314 27.394H49.0359C48.3732 27.394 47.8359 27.9313 47.8359 28.594C47.8359 29.2568 48.3732 29.794 49.0359 29.794H52.5314ZM49.8844 39.5814C49.4158 40.0501 48.656 40.0501 48.1874 39.5814L45.6545 37.0485C45.1859 36.5799 45.1859 35.8201 45.6545 35.3515C46.1231 34.8829 46.8829 34.8829 47.3515 35.3515L49.8844 37.8844C50.3531 38.353 50.3531 39.1128 49.8844 39.5814Z" fill="#F8F9FA"/>
<path d="M29.1486 27.8604L30.6425 27.9964C30.6793 27.5917 30.5503 27.1893 30.2851 26.8814L29.1486 27.8604ZM39.1866 36.3116L40.6556 36.0083C40.5721 35.6036 40.3253 35.2514 39.9735 35.0346C39.6218 34.8178 39.1962 34.7558 38.7971 34.8631L39.1866 36.3116ZM37.275 42.0686L38.1786 43.2659L38.1786 43.2659L37.275 42.0686ZM10.0575 41.7931L11.2629 40.9002L11.2629 40.9002L10.0575 41.7931ZM11.3057 35.4395L12.1325 36.691L12.1325 36.691L11.3057 35.4395ZM12.8072 34.6897L12.2915 33.2811L12.2915 33.2811L12.8072 34.6897ZM13.298 34.5298L12.8909 33.0861L12.8909 33.0861L13.298 34.5298ZM13.4254 34.4958L13.0728 33.0378L13.0639 33.04L13.4254 34.4958ZM13.453 34.4892L13.1026 33.0307L13.1004 33.0312L13.453 34.4892ZM13.4549 34.4887L13.1319 33.0239C13.1227 33.0259 13.1136 33.028 13.1044 33.0302L13.4549 34.4887ZM13.4568 34.4883L13.7797 35.9531L13.7816 35.9527L13.4568 34.4883ZM14.2392 33.5581L12.7407 33.4889L12.7407 33.4889L14.2392 33.5581ZM17.0043 27.0697L17.9973 28.194L17.9973 28.194L17.0043 27.0697ZM27.6656 26.5276L26.8179 27.7651L26.8179 27.7651L27.6656 26.5276ZM28.7958 24.8776L27.9481 26.1151L27.9481 26.1151L28.7958 24.8776ZM29.7024 25.5825L28.7122 26.7092C29.0768 27.0297 29.5741 27.1539 30.0466 27.0425C30.5192 26.931 30.9085 26.5978 31.0916 26.1482L29.7024 25.5825ZM15.6804 25.5706L14.6875 24.4463L14.6875 24.4463L15.6804 25.5706ZM12.291 32.7507L12.7796 34.1689C13.3366 33.977 13.7297 33.4768 13.7845 32.8902L12.291 32.7507ZM12.1196 32.8116L11.6039 31.403L11.6039 31.4031L12.1196 32.8116ZM10.2032 33.7708L11.03 35.0223L11.0301 35.0223L10.2032 33.7708ZM8.45048 42.9836L7.24517 43.8765L7.24517 43.8765L8.45048 42.9836ZM38.4798 43.665L39.3833 44.8623L39.3833 44.8623L38.4798 43.665ZM41.0605 35.5398L40.3171 34.2369C39.729 34.5725 39.4386 35.2604 39.6084 35.9159L41.0605 35.5398ZM31.2539 27.3075L29.7886 26.9868C29.698 27.4008 29.7867 27.8337 30.0329 28.1787L31.2539 27.3075ZM32.4727 29.477L31.0979 30.0769C31.3235 30.5939 31.8201 30.9406 32.3831 30.9743L32.4727 29.477ZM37.995 31.276L38.8416 30.0377L38.8416 30.0377L37.995 31.276ZM40.2841 33.6738L38.9955 34.4417C39.2022 34.7885 39.5399 35.0373 39.9323 35.132C40.3247 35.2266 40.7388 35.1591 41.0808 34.9447L40.2841 33.6738ZM36.8662 32.927L37.7128 31.6887L37.7128 31.6887L36.8662 32.927ZM38.405 34.4439L38.7286 35.9086C39.214 35.8013 39.6147 35.4606 39.7985 34.9989C39.9824 34.5371 39.9256 34.0142 39.6469 33.6027L38.405 34.4439ZM31.8422 31.4566L31.8504 29.9566C31.3197 29.9537 30.8269 30.2315 30.5546 30.6871C30.2824 31.1427 30.2711 31.7083 30.5251 32.1744L31.8422 31.4566ZM48.8339 16.7279L49.8945 15.6672L49.8945 15.6672L48.8339 16.7279ZM48.8339 18.4249L49.8945 19.4856L49.8945 19.4856L48.8339 18.4249ZM47.1368 16.7279L46.0761 15.6672L46.0761 15.6672L47.1368 16.7279ZM44.6039 19.2608L45.6646 20.3214L45.6646 20.3214L44.6039 19.2608ZM44.6039 20.9578L45.6646 19.8972L45.6646 19.8972L44.6039 20.9578ZM46.3009 20.9578L47.3616 22.0185L47.3616 22.0185L46.3009 20.9578ZM25.8602 18.0822L26.9208 17.0215L26.9208 17.0215L25.8602 18.0822ZM25.8602 16.3851L26.9208 17.4458L26.9208 17.4458L25.8602 16.3851ZM28.3931 20.6151L27.3324 21.6758L27.3324 21.6758L28.3931 20.6151ZM30.0901 20.6151L31.1508 21.6758L31.1508 21.6758L30.0901 20.6151ZM30.0901 18.9181L31.1508 17.8574L31.1508 17.8574L30.0901 18.9181ZM27.5572 16.3851L28.6179 15.3245L28.6179 15.3245L27.5572 16.3851ZM48.1874 39.5814L47.1267 40.6421L47.1267 40.6421L48.1874 39.5814ZM49.8844 39.5814L48.8238 38.5208L48.8238 38.5208L49.8844 39.5814ZM45.6545 37.0485L44.5938 38.1092L44.5938 38.1092L45.6545 37.0485ZM45.6545 35.3515L44.5938 34.2908L44.5938 34.2908L45.6545 35.3515ZM49.8844 37.8844L48.8238 38.945L48.8238 38.945L49.8844 37.8844ZM39.8063 13.1248C39.8063 11.6336 38.5975 10.4248 37.1063 10.4248V13.4248C36.9407 13.4248 36.8063 13.2905 36.8063 13.1248H39.8063ZM39.8063 16.7069V13.1248H36.8063V16.7069H39.8063ZM37.1063 19.4069C38.5975 19.4069 39.8063 18.198 39.8063 16.7069H36.8063C36.8063 16.5412 36.9407 16.4069 37.1063 16.4069V19.4069ZM34.4063 16.7069C34.4063 18.198 35.6152 19.4069 37.1063 19.4069V16.4069C37.272 16.4069 37.4063 16.5412 37.4063 16.7069H34.4063ZM34.4063 13.1248V16.7069H37.4063V13.1248H34.4063ZM37.1063 10.4248C35.6152 10.4248 34.4063 11.6336 34.4063 13.1248H37.4063C37.4063 13.2905 37.272 13.4248 37.1063 13.4248V10.4248ZM27.6548 27.7244C27.6287 28.0112 27.6154 28.3013 27.6154 28.5941H30.6154C30.6154 28.3922 30.6246 28.1929 30.6425 27.9964L27.6548 27.7244ZM27.6154 28.5941C27.6154 33.8358 31.8647 38.0851 37.1064 38.0851V35.0851C33.5215 35.0851 30.6154 32.179 30.6154 28.5941H27.6154ZM37.1064 38.0851C37.9587 38.0851 38.787 37.9723 39.5761 37.7601L38.7971 34.8631C38.2597 35.0076 37.6933 35.0851 37.1064 35.0851V38.0851ZM37.7176 36.6149C37.7772 36.9033 37.8111 37.2231 37.8111 37.5782H40.8111C40.8111 37.0306 40.7586 36.507 40.6556 36.0083L37.7176 36.6149ZM37.8111 37.5782C37.8111 39.3465 37.1354 40.2948 36.3715 40.8713L38.1786 43.2659C39.6918 42.1239 40.8111 40.29 40.8111 37.5782H37.8111ZM36.3715 40.8713C35.5019 41.5275 34.3314 41.8237 33.3859 41.8237V44.8237C34.8433 44.8237 36.6867 44.3918 38.1786 43.2659L36.3715 40.8713ZM33.3859 41.8237H14.0113V44.8237H33.3859V41.8237ZM14.0113 41.8237C12.1174 41.8237 11.5049 41.2269 11.2629 40.9002L8.85224 42.6859C9.77143 43.9268 11.3709 44.8237 14.0113 44.8237V41.8237ZM11.2629 40.9002C10.9175 40.4339 10.7687 39.7336 10.7687 38.9926H7.76868C7.76868 40.013 7.95303 41.4721 8.85225 42.6859L11.2629 40.9002ZM10.7687 38.9926C10.7687 37.9167 11.3181 37.229 12.1325 36.691L10.4788 34.1879C9.14745 35.0675 7.76868 36.5748 7.76868 38.9926H10.7687ZM12.1325 36.691C12.5484 36.4162 12.9829 36.2227 13.3229 36.0983L12.2915 33.2811C11.8002 33.461 11.1414 33.7502 10.4788 34.1879L12.1325 36.691ZM13.3229 36.0983C13.4889 36.0375 13.622 35.9969 13.7051 35.9735L12.8909 33.0861C12.7444 33.1274 12.538 33.1909 12.2915 33.2811L13.3229 36.0983ZM13.7051 35.9735C13.7463 35.9619 13.7743 35.9547 13.7868 35.9516L13.0639 33.04C13.0227 33.0503 12.9642 33.0654 12.8909 33.0861L13.7051 35.9735ZM13.778 35.9538L13.8056 35.9471L13.1004 33.0312L13.0728 33.0379L13.778 35.9538ZM13.8034 35.9476L13.8053 35.9472L13.1044 33.0302L13.1026 33.0307L13.8034 35.9476ZM13.7778 35.9535L13.7797 35.9531L13.1338 33.0235L13.1319 33.0239L13.7778 35.9535ZM13.7816 35.9527C14.8836 35.7082 15.6855 34.7554 15.7376 33.6273L12.7407 33.4889C12.7512 33.2633 12.9115 33.0728 13.132 33.0239L13.7816 35.9527ZM15.7376 33.6273C15.8627 30.917 16.8298 29.2251 17.9973 28.194L16.0114 25.9454C14.166 27.5751 12.8989 30.0643 12.7407 33.4889L15.7376 33.6273ZM17.9973 28.194C19.2039 27.1284 20.8336 26.5863 22.5378 26.5863V23.5863C20.2206 23.5863 17.8489 24.3226 16.0114 25.9454L17.9973 28.194ZM22.5378 26.5863C24.3326 26.5863 25.737 27.0247 26.8179 27.7651L28.5133 25.2901C26.8558 24.1547 24.8367 23.5863 22.5378 23.5863V26.5863ZM26.8179 27.7651C27.2478 28.0596 27.6472 28.4157 28.0122 28.8395L30.2851 26.8814C29.7542 26.2652 29.1616 25.7342 28.5133 25.2901L26.8179 27.7651ZM27.9481 26.1151C28.2145 26.2976 28.4691 26.4957 28.7122 26.7092L30.6925 24.4558C30.3596 24.1632 30.0098 23.891 29.6435 23.6401L27.9481 26.1151ZM22.5378 24.5863C24.6687 24.5863 26.4829 25.1114 27.9481 26.1151L29.6435 23.6401C27.6012 22.2411 25.1721 21.5863 22.5378 21.5863V24.5863ZM16.6733 26.6949C18.3005 25.2579 20.4248 24.5863 22.5378 24.5863V21.5863C19.813 21.5863 16.9464 22.4514 14.6875 24.4463L16.6733 26.6949ZM13.7845 32.8902C14.0498 30.0495 15.162 28.0296 16.6734 26.6949L14.6875 24.4463C12.5498 26.3342 11.1268 29.0857 10.7975 32.6112L13.7845 32.8902ZM12.6353 34.2202C12.6854 34.2019 12.7335 34.1848 12.7796 34.1689L11.8024 31.3325C11.7388 31.3544 11.6726 31.3779 11.6039 31.403L12.6353 34.2202ZM11.0301 35.0223C11.6104 34.6389 12.1945 34.3816 12.6353 34.2202L11.6039 31.4031C11.0117 31.6199 10.2033 31.9729 9.37642 32.5192L11.0301 35.0223ZM8.76868 38.9926C8.76868 37.0231 9.8698 35.7888 11.03 35.0223L9.37642 32.5192C7.71086 33.6195 5.76868 35.6709 5.76868 38.9926H8.76868ZM9.65578 42.0907C8.94122 41.1261 8.76868 39.92 8.76868 38.9926H5.76868C5.76868 40.1982 5.97636 42.1637 7.24517 43.8765L9.65578 42.0907ZM14.0113 43.8237C11.619 43.8237 10.3489 43.0263 9.65578 42.0907L7.24517 43.8765C8.61882 45.7307 10.8793 46.8237 14.0113 46.8237V43.8237ZM33.3859 43.8237H14.0113V46.8237H33.3859V43.8237ZM37.5762 42.4677C36.2919 43.4369 34.6728 43.8237 33.3859 43.8237V46.8237C35.1834 46.8237 37.4757 46.302 39.3833 44.8623L37.5762 42.4677ZM39.8111 37.5782C39.8111 39.9755 38.8397 41.5142 37.5762 42.4677L39.3833 44.8623C41.3961 43.3434 42.8111 40.919 42.8111 37.5782H39.8111ZM39.6084 35.9159C39.7376 36.4149 39.8111 36.9673 39.8111 37.5782H42.8111C42.8111 36.7241 42.708 35.9185 42.5125 35.1637L39.6084 35.9159ZM41.8038 36.8427C44.6638 35.211 46.5973 32.1293 46.5973 28.5941H43.5973C43.5973 31.0086 42.2797 33.1172 40.3171 34.2369L41.8038 36.8427ZM46.5973 28.5941C46.5973 23.3524 42.3481 19.1031 37.1064 19.1031V22.1031C40.6912 22.1031 43.5973 25.0092 43.5973 28.5941H46.5973ZM37.1064 19.1031C33.1277 19.1031 29.7243 21.5508 28.3131 25.0169L31.0916 26.1482C32.0587 23.773 34.3893 22.1031 37.1064 22.1031V19.1031ZM30.0329 28.1787C30.4352 28.7425 30.7917 29.3751 31.0979 30.0769L33.8476 28.8772C33.4642 27.9985 33.007 27.1819 32.4749 26.4362L30.0329 28.1787ZM32.3831 30.9743C34.0041 31.0713 35.7572 31.5631 37.1484 32.5142L38.8416 30.0377C36.9118 28.7183 34.6051 28.1019 32.5623 27.9797L32.3831 30.9743ZM37.1484 32.5142C37.9018 33.0293 38.5369 33.6721 38.9955 34.4417L41.5726 32.9059C40.8632 31.7154 39.9065 30.7657 38.8416 30.0377L37.1484 32.5142ZM41.5973 28.5941C41.5973 30.1977 40.7579 31.6064 39.4873 32.4029L41.0808 34.9447C43.1897 33.6227 44.5973 31.2733 44.5973 28.5941H41.5973ZM37.1064 24.1031C39.5867 24.1031 41.5973 26.1138 41.5973 28.5941H44.5973C44.5973 24.457 41.2435 21.1031 37.1064 21.1031V24.1031ZM32.7192 27.6281C33.1605 25.6117 34.959 24.1031 37.1064 24.1031V21.1031C33.5197 21.1031 30.5249 23.6224 29.7886 26.9868L32.7192 27.6281ZM36.0197 34.1652C36.4902 34.4869 36.8746 34.8593 37.1631 35.2852L39.6469 33.6027C39.1163 32.8195 38.4458 32.1898 37.7128 31.6887L36.0197 34.1652ZM31.834 32.9566C33.2694 32.9644 34.8595 33.3721 36.0197 34.1652L37.7128 31.6887C35.9603 30.4906 33.7534 29.967 31.8504 29.9566L31.834 32.9566ZM37.1064 33.0851C35.4053 33.0851 33.9228 32.1399 33.1594 30.7389L30.5251 32.1744C31.7929 34.5009 34.2635 36.0851 37.1064 36.0851V33.0851ZM38.0813 32.9793C37.7687 33.0483 37.4427 33.0851 37.1064 33.0851V36.0851C37.6619 36.0851 38.2049 36.0243 38.7286 35.9086L38.0813 32.9793ZM47.7732 17.7885C47.656 17.6714 47.656 17.4814 47.7732 17.3643L49.8945 19.4856C50.9489 18.4312 50.9489 16.7216 49.8945 15.6672L47.7732 17.7885ZM48.1974 17.7885C48.0803 17.9057 47.8903 17.9057 47.7732 17.7885L49.8945 15.6672C48.8401 14.6128 47.1306 14.6128 46.0761 15.6672L48.1974 17.7885ZM45.6646 20.3214L48.1975 17.7885L46.0761 15.6672L43.5432 18.2001L45.6646 20.3214ZM45.6646 19.8972C45.7817 20.0143 45.7817 20.2043 45.6646 20.3214L43.5432 18.2001C42.4888 19.2545 42.4888 20.9641 43.5432 22.0185L45.6646 19.8972ZM45.2403 19.8972C45.3574 19.78 45.5474 19.78 45.6646 19.8972L43.5432 22.0185C44.5976 23.0729 46.3072 23.0729 47.3616 22.0185L45.2403 19.8972ZM47.7732 17.3643L45.2403 19.8972L47.3616 22.0185L49.8945 19.4856L47.7732 17.3643ZM26.9208 17.0215C27.038 17.1387 27.038 17.3287 26.9208 17.4458L24.7995 15.3245C23.7451 16.3789 23.7451 18.0885 24.7995 19.1429L26.9208 17.0215ZM29.4537 19.5544L26.9208 17.0215L24.7995 19.1429L27.3324 21.6758L29.4537 19.5544ZM29.0294 19.5544C29.1466 19.4373 29.3366 19.4373 29.4537 19.5544L27.3324 21.6758C28.3868 22.7302 30.0964 22.7302 31.1508 21.6758L29.0294 19.5544ZM29.0294 19.9787C28.9123 19.8616 28.9123 19.6716 29.0294 19.5544L31.1508 21.6758C32.2052 20.6214 32.2052 18.9118 31.1508 17.8574L29.0294 19.9787ZM26.4965 17.4458L29.0294 19.9787L31.1508 17.8574L28.6179 15.3245L26.4965 17.4458ZM26.9208 17.4458C26.8037 17.563 26.6137 17.563 26.4965 17.4458L28.6179 15.3245C27.5635 14.2701 25.8539 14.2701 24.7995 15.3245L26.9208 17.4458ZM52.2314 28.594C52.2314 28.4284 52.3657 28.294 52.5314 28.294V31.294C54.0226 31.294 55.2314 30.0852 55.2314 28.594H52.2314ZM52.5314 28.894C52.3657 28.894 52.2314 28.7597 52.2314 28.594H55.2314C55.2314 27.1029 54.0226 25.894 52.5314 25.894V28.894ZM49.0359 28.894H52.5314V25.894H49.0359V28.894ZM49.3359 28.594C49.3359 28.7597 49.2016 28.894 49.0359 28.894V25.894C47.5448 25.894 46.3359 27.1029 46.3359 28.594H49.3359ZM49.0359 28.294C49.2016 28.294 49.3359 28.4284 49.3359 28.594H46.3359C46.3359 30.0852 47.5448 31.294 49.0359 31.294V28.294ZM52.5314 28.294H49.0359V31.294H52.5314V28.294ZM47.1267 40.6421C48.1811 41.6965 49.8907 41.6965 50.9451 40.6421L48.8238 38.5208C48.9409 38.4036 49.1309 38.4036 49.248 38.5208L47.1267 40.6421ZM44.5938 38.1092L47.1267 40.6421L49.248 38.5208L46.7151 35.9879L44.5938 38.1092ZM44.5938 34.2908C43.5394 35.3452 43.5394 37.0548 44.5938 38.1092L46.7151 35.9879C46.8323 36.105 46.8323 36.295 46.7151 36.4121L44.5938 34.2908ZM48.4122 34.2908C47.3578 33.2364 45.6482 33.2364 44.5938 34.2908L46.7151 36.4121C46.598 36.5293 46.408 36.5293 46.2909 36.4121L48.4122 34.2908ZM50.9451 36.8237L48.4122 34.2908L46.2909 36.4121L48.8238 38.945L50.9451 36.8237ZM50.9451 40.6421C51.9995 39.5877 51.9995 37.8781 50.9451 36.8237L48.8238 38.945C48.7066 38.8279 48.7066 38.6379 48.8238 38.5208L50.9451 40.6421Z" fill="#F8F9FA" mask="url(#path-1-outside-1_50_8446)"/>
<circle cx="37.0539" cy="28.6247" r="6.99096" fill="#FFD43B" stroke="#212529" stroke-width="2" stroke-linecap="round" stroke-linejoin="round"/>
<g style="mix-blend-mode:multiply">
<path fill-rule="evenodd" clip-rule="evenodd" d="M39.7898 33.9527C40.9249 32.7098 41.6172 31.0557 41.6172 29.2398C41.6172 26.1534 39.6171 23.5342 36.8424 22.6074C40.309 22.741 43.0755 25.4064 43.0755 28.6749C43.0755 30.9352 41.7525 32.9071 39.7898 33.9527Z" fill="#FFD43B"/>
</g>
<path d="M37.054 13.1553L37.054 16.7373" stroke="#212529" stroke-width="2.4" stroke-linecap="round" stroke-linejoin="round"/>
<path d="M47.933 17.6064L45.4001 20.1393" stroke="#212529" stroke-width="2.4" stroke-linecap="round" stroke-linejoin="round"/>
<path d="M26.6562 17.2637L29.1892 19.7966" stroke="#212529" stroke-width="2.4" stroke-linecap="round" stroke-linejoin="round"/>
<path d="M52.479 28.625L48.9835 28.625" stroke="#212529" stroke-width="2.4" stroke-linecap="round" stroke-linejoin="round"/>
<path d="M48.9835 38.7637L46.4506 36.2308" stroke="#212529" stroke-width="2.4" stroke-linecap="round" stroke-linejoin="round"/>
<path fill-rule="evenodd" clip-rule="evenodd" d="M22.4854 24.1172C18.0559 24.1172 13.4931 26.9322 13.1878 33.5429C13.1878 33.5429 8.21631 34.631 8.21631 39.0235C8.21631 40.9707 8.92967 44.3545 13.9589 44.3545C18.9882 44.3545 30.5898 44.3545 33.3335 44.3545C36.0772 44.3545 40.2588 42.7181 40.2588 37.6091C40.2588 32.5001 35.4171 30.4874 31.7399 30.4874C30.1522 26.304 26.9149 24.1172 22.4854 24.1172Z" fill="#4DABF7" stroke="#212529" stroke-width="2" stroke-linecap="round" stroke-linejoin="round"/>
<g style="mix-blend-mode:multiply" opacity="0.3">
<path fill-rule="evenodd" clip-rule="evenodd" d="M17.6116 43.6276C17.6192 43.6276 17.6268 43.6276 17.6344 43.6276H33.5404C35.7929 43.6276 39.2258 42.1842 39.2258 37.6777C39.2258 33.2804 35.4412 31.4835 32.4531 31.399C34.7775 32.1717 36.9052 34.0688 36.9052 37.4771C36.9052 42.1355 33.4723 43.6276 31.2198 43.6276H17.6116ZM32.2053 31.3211C31.4314 31.0913 30.6433 30.9834 29.9115 30.9834C29.0392 28.4307 27.5603 26.6933 25.5875 25.8232C28.7126 26.1342 31.0109 28.0081 32.2053 31.3211Z" fill="#4DABF7"/>
</g>
<g style="mix-blend-mode:soft-light" opacity="0.4">
<path d="M15.3755 32.7787C15.4947 29.2433 18.57 26.638 20.0928 25.7773C15.445 26.6513 14.1838 31.4712 14.1342 33.7719L15.3755 32.7787Z" fill="#F8F9FA"/>
</g>
</svg>
