<svg width="60" height="60" viewBox="0 0 60 60" fill="none" xmlns="http://www.w3.org/2000/svg">
<mask id="path-1-outside-1_50_11008" maskUnits="userSpaceOnUse" x="7" y="8" width="45" height="47" fill="black">
<rect fill="white" x="7" y="8" width="45" height="47"/>
<path fill-rule="evenodd" clip-rule="evenodd" d="M15.78 10.3449C15.4734 9.95366 14.9077 9.88505 14.5165 10.1917L9.34485 14.2447C9.12478 14.4171 8.99737 14.6821 9.00004 14.9617C9.00272 15.2412 9.13518 15.5037 9.3585 15.6719L14.5302 19.5675C14.9272 19.8666 15.4915 19.7872 15.7905 19.3901C16.0896 18.9931 16.0102 18.4288 15.6132 18.1298L12.3462 15.6689H23.7874C24.2845 15.6689 24.6874 15.266 24.6874 14.7689C24.6874 14.2718 24.2845 13.8689 23.7874 13.8689H12.7424L15.6268 11.6084C16.0181 11.3018 16.0867 10.7361 15.78 10.3449ZM33.0799 12.1749C32.1262 12.045 31.2458 12.7077 31.107 13.6602L29.242 26.4521L32.9772 27.4736L34.5851 14.1231C34.6997 13.1716 34.0295 12.3042 33.0799 12.1749ZM29.3258 13.4005L27.5315 25.7078C27.4667 25.7188 27.4021 25.7371 27.3388 25.7631C25.7896 26.4008 24.5717 27.6295 23.8807 28.4106C22.4397 30.0397 22.0443 32.0492 22.0959 33.9192C22.1473 35.7831 22.6435 37.5942 23.0795 38.9384C23.9771 41.7057 25.5838 44.3763 27.5628 46.4208C27.6101 46.4697 27.6584 46.5175 27.7077 46.5644L27.4287 48.6128C27.2605 49.8482 27.912 51.1115 29.1685 51.5586C30.3376 51.9747 32.1851 52.528 34.5685 52.9049C37.1654 53.3157 39.3479 53.172 40.6787 52.9918C41.9286 52.8226 42.781 51.8106 42.9375 50.6622L43.2282 48.5274C44.439 47.9352 45.4774 46.9658 46.1629 45.4459C47.5722 42.3207 48.422 38.9172 48.9197 36.314C49.1694 35.0084 49.3322 33.8952 49.4328 33.1066C49.483 32.7122 49.5178 32.3986 49.5401 32.1822C49.5513 32.074 49.5594 31.99 49.5647 31.9325L49.5706 31.8669L49.5706 31.8661L49.8333 29.9379C50.0708 28.1946 48.85 26.5888 47.1066 26.3514C46.5183 26.2712 45.9457 26.3572 45.436 26.5732C45.1047 25.1879 43.9535 24.081 42.4574 23.8772C41.6427 23.7662 40.8549 23.9407 40.1949 24.3238C39.749 23.1425 38.6863 22.2367 37.3472 22.0543C36.6622 21.961 35.9962 22.0695 35.4092 22.3342L36.3721 14.3384C36.6043 12.4107 35.2467 10.6534 33.3228 10.3913C31.3906 10.1281 29.6071 11.4709 29.3258 13.4005ZM34.4896 29.9696C34.5007 29.9301 34.5091 29.8893 34.5149 29.8474L34.764 28.018L38.1747 28.9811L37.9922 30.321L37.9712 30.475C37.9041 30.9675 38.249 31.4211 38.7415 31.4882C39.234 31.5553 39.6877 31.2104 39.7548 30.7179L39.7748 30.5706L39.7757 30.5639L39.924 29.4752L43.3347 30.4383L43.243 31.1119L43.2321 31.1915C43.165 31.684 43.5099 32.1376 44.0024 32.2047C44.4949 32.2718 44.9486 31.9269 45.0157 31.4344L45.0252 31.3641L45.0265 31.3549L45.084 30.9323L47.7776 31.693L47.7144 32.1572C47.705 32.2266 47.7037 32.2952 47.7099 32.3621C47.6927 32.5121 47.6719 32.6851 47.6472 32.879C47.5505 33.6373 47.3933 34.7131 47.1518 35.9759C46.6673 38.5096 45.8503 41.7605 44.522 44.7059C44.0267 45.8043 43.2952 46.5042 42.3863 46.9362L28.9022 44.6706C28.7437 44.6439 28.5825 44.6604 28.4349 44.7163C26.8403 42.935 25.5405 40.6917 24.7916 38.383C24.3719 37.089 23.9394 35.4732 23.8952 33.8696C23.8512 32.2722 24.1933 30.7739 25.229 29.6032C25.721 29.047 26.4112 28.3557 27.2196 27.8472L26.5047 32.7503C26.433 33.2422 26.7736 33.699 27.2655 33.7707C27.7573 33.8424 28.2142 33.5018 28.2859 33.01L29.2411 26.4583L32.9725 27.5121L32.6373 30.2954C32.5779 30.7889 32.9298 31.2371 33.4233 31.2966C33.9168 31.356 34.365 31.0041 34.4244 30.5106L34.4896 29.9696ZM39.9374 29.3771L43.3521 30.311L43.52 29.0781L43.7164 27.6362C43.8471 26.676 43.1747 25.7915 42.2145 25.6607C41.2573 25.5304 40.3755 26.198 40.2403 27.1533L40.239 27.1626L39.9374 29.3771ZM38.186 28.8981L34.7713 27.9643L35.1288 25.3397C35.2596 24.3795 36.1441 23.7071 37.1043 23.8379C38.0646 23.9686 38.737 24.8531 38.6062 25.8133L38.4573 26.9065L38.4555 26.9197L38.186 28.8981ZM45.3036 29.321L45.1034 30.7899L47.8002 31.5275L48.0498 29.695C48.1531 28.9367 47.622 28.2382 46.8637 28.1349C46.1053 28.0316 45.4068 28.5626 45.3036 29.321ZM29.3751 47.6604L29.2123 48.8558C29.147 49.3347 29.3986 49.7299 29.772 49.8628C30.8528 50.2475 32.592 50.7699 34.8497 51.127C37.2331 51.504 39.2341 51.371 40.4372 51.2081C40.786 51.1609 41.0926 50.8695 41.1539 50.4193L41.3268 49.1502C41.2771 49.1599 41.2274 49.1692 41.1775 49.1781C39.1783 49.5353 36.9459 49.2757 35.0282 49.0145C33.2722 48.7753 31.7819 48.5017 30.5601 48.1134C30.1402 47.9799 29.7444 47.8306 29.3751 47.6604Z"/>
</mask>
<path fill-rule="evenodd" clip-rule="evenodd" d="M15.78 10.3449C15.4734 9.95366 14.9077 9.88505 14.5165 10.1917L9.34485 14.2447C9.12478 14.4171 8.99737 14.6821 9.00004 14.9617C9.00272 15.2412 9.13518 15.5037 9.3585 15.6719L14.5302 19.5675C14.9272 19.8666 15.4915 19.7872 15.7905 19.3901C16.0896 18.9931 16.0102 18.4288 15.6132 18.1298L12.3462 15.6689H23.7874C24.2845 15.6689 24.6874 15.266 24.6874 14.7689C24.6874 14.2718 24.2845 13.8689 23.7874 13.8689H12.7424L15.6268 11.6084C16.0181 11.3018 16.0867 10.7361 15.78 10.3449ZM33.0799 12.1749C32.1262 12.045 31.2458 12.7077 31.107 13.6602L29.242 26.4521L32.9772 27.4736L34.5851 14.1231C34.6997 13.1716 34.0295 12.3042 33.0799 12.1749ZM29.3258 13.4005L27.5315 25.7078C27.4667 25.7188 27.4021 25.7371 27.3388 25.7631C25.7896 26.4008 24.5717 27.6295 23.8807 28.4106C22.4397 30.0397 22.0443 32.0492 22.0959 33.9192C22.1473 35.7831 22.6435 37.5942 23.0795 38.9384C23.9771 41.7057 25.5838 44.3763 27.5628 46.4208C27.6101 46.4697 27.6584 46.5175 27.7077 46.5644L27.4287 48.6128C27.2605 49.8482 27.912 51.1115 29.1685 51.5586C30.3376 51.9747 32.1851 52.528 34.5685 52.9049C37.1654 53.3157 39.3479 53.172 40.6787 52.9918C41.9286 52.8226 42.781 51.8106 42.9375 50.6622L43.2282 48.5274C44.439 47.9352 45.4774 46.9658 46.1629 45.4459C47.5722 42.3207 48.422 38.9172 48.9197 36.314C49.1694 35.0084 49.3322 33.8952 49.4328 33.1066C49.483 32.7122 49.5178 32.3986 49.5401 32.1822C49.5513 32.074 49.5594 31.99 49.5647 31.9325L49.5706 31.8669L49.5706 31.8661L49.8333 29.9379C50.0708 28.1946 48.85 26.5888 47.1066 26.3514C46.5183 26.2712 45.9457 26.3572 45.436 26.5732C45.1047 25.1879 43.9535 24.081 42.4574 23.8772C41.6427 23.7662 40.8549 23.9407 40.1949 24.3238C39.749 23.1425 38.6863 22.2367 37.3472 22.0543C36.6622 21.961 35.9962 22.0695 35.4092 22.3342L36.3721 14.3384C36.6043 12.4107 35.2467 10.6534 33.3228 10.3913C31.3906 10.1281 29.6071 11.4709 29.3258 13.4005ZM34.4896 29.9696C34.5007 29.9301 34.5091 29.8893 34.5149 29.8474L34.764 28.018L38.1747 28.9811L37.9922 30.321L37.9712 30.475C37.9041 30.9675 38.249 31.4211 38.7415 31.4882C39.234 31.5553 39.6877 31.2104 39.7548 30.7179L39.7748 30.5706L39.7757 30.5639L39.924 29.4752L43.3347 30.4383L43.243 31.1119L43.2321 31.1915C43.165 31.684 43.5099 32.1376 44.0024 32.2047C44.4949 32.2718 44.9486 31.9269 45.0157 31.4344L45.0252 31.3641L45.0265 31.3549L45.084 30.9323L47.7776 31.693L47.7144 32.1572C47.705 32.2266 47.7037 32.2952 47.7099 32.3621C47.6927 32.5121 47.6719 32.6851 47.6472 32.879C47.5505 33.6373 47.3933 34.7131 47.1518 35.9759C46.6673 38.5096 45.8503 41.7605 44.522 44.7059C44.0267 45.8043 43.2952 46.5042 42.3863 46.9362L28.9022 44.6706C28.7437 44.6439 28.5825 44.6604 28.4349 44.7163C26.8403 42.935 25.5405 40.6917 24.7916 38.383C24.3719 37.089 23.9394 35.4732 23.8952 33.8696C23.8512 32.2722 24.1933 30.7739 25.229 29.6032C25.721 29.047 26.4112 28.3557 27.2196 27.8472L26.5047 32.7503C26.433 33.2422 26.7736 33.699 27.2655 33.7707C27.7573 33.8424 28.2142 33.5018 28.2859 33.01L29.2411 26.4583L32.9725 27.5121L32.6373 30.2954C32.5779 30.7889 32.9298 31.2371 33.4233 31.2966C33.9168 31.356 34.365 31.0041 34.4244 30.5106L34.4896 29.9696ZM39.9374 29.3771L43.3521 30.311L43.52 29.0781L43.7164 27.6362C43.8471 26.676 43.1747 25.7915 42.2145 25.6607C41.2573 25.5304 40.3755 26.198 40.2403 27.1533L40.239 27.1626L39.9374 29.3771ZM38.186 28.8981L34.7713 27.9643L35.1288 25.3397C35.2596 24.3795 36.1441 23.7071 37.1043 23.8379C38.0646 23.9686 38.737 24.8531 38.6062 25.8133L38.4573 26.9065L38.4555 26.9197L38.186 28.8981ZM45.3036 29.321L45.1034 30.7899L47.8002 31.5275L48.0498 29.695C48.1531 28.9367 47.622 28.2382 46.8637 28.1349C46.1053 28.0316 45.4068 28.5626 45.3036 29.321ZM29.3751 47.6604L29.2123 48.8558C29.147 49.3347 29.3986 49.7299 29.772 49.8628C30.8528 50.2475 32.592 50.7699 34.8497 51.127C37.2331 51.504 39.2341 51.371 40.4372 51.2081C40.786 51.1609 41.0926 50.8695 41.1539 50.4193L41.3268 49.1502C41.2771 49.1599 41.2274 49.1692 41.1775 49.1781C39.1783 49.5353 36.9459 49.2757 35.0282 49.0145C33.2722 48.7753 31.7819 48.5017 30.5601 48.1134C30.1402 47.9799 29.7444 47.8306 29.3751 47.6604Z" fill="#F8F9FA"/>
<path d="M43.1309 31.1601C43.5295 31.2727 43.9439 31.0408 44.0565 30.6422C44.169 30.2435 43.9372 29.8291 43.5385 29.7166L43.1309 31.1601ZM40.1278 28.7534C39.7292 28.6408 39.3148 28.8727 39.2022 29.2713C39.0897 29.67 39.3216 30.0844 39.7202 30.1969L40.1278 28.7534ZM43.5385 29.7166L40.1278 28.7534L39.7202 30.1969L43.1309 31.1601L43.5385 29.7166ZM14.5165 10.1917L13.5913 9.01102L13.5913 9.01102L14.5165 10.1917ZM15.78 10.3449L16.9607 9.41963L16.9607 9.41963L15.78 10.3449ZM9.34485 14.2447L8.41959 13.064L8.41959 13.064L9.34485 14.2447ZM9.00004 14.9617L10.5 14.9473L10.5 14.9473L9.00004 14.9617ZM9.3585 15.6719L10.261 14.4738L10.261 14.4738L9.3585 15.6719ZM14.5302 19.5675L15.4327 18.3694L15.4327 18.3694L14.5302 19.5675ZM15.7905 19.3901L14.5924 18.4876L14.5924 18.4876L15.7905 19.3901ZM15.6132 18.1298L14.7107 19.3279L14.7107 19.3279L15.6132 18.1298ZM12.3462 15.6689V14.1689C11.7011 14.1689 11.1283 14.5813 10.9237 15.1931C10.719 15.8048 10.9284 16.4789 11.4437 16.867L12.3462 15.6689ZM12.7424 13.8689L11.8172 12.6883C11.3136 13.0829 11.1158 13.7535 11.3245 14.3583C11.5333 14.9631 12.1026 15.3689 12.7424 15.3689V13.8689ZM15.6268 11.6084L14.7016 10.4278L14.7016 10.4278L15.6268 11.6084ZM31.107 13.6602L29.6226 13.4438L29.6226 13.4438L31.107 13.6602ZM33.0799 12.1749L33.2823 10.6886L33.2823 10.6886L33.0799 12.1749ZM29.242 26.4521L27.7577 26.2357C27.6484 26.9855 28.1154 27.699 28.8463 27.8989L29.242 26.4521ZM32.9772 27.4736L32.5815 28.9205C33.0022 29.0355 33.4522 28.9617 33.8142 28.7183C34.1762 28.4749 34.4143 28.086 34.4664 27.6529L32.9772 27.4736ZM34.5851 14.1231L33.0958 13.9438L33.0958 13.9438L34.5851 14.1231ZM27.5315 25.7078L27.7825 27.1866C28.4239 27.0777 28.9219 26.5679 29.0158 25.9242L27.5315 25.7078ZM29.3258 13.4005L30.8101 13.6169L30.8101 13.6169L29.3258 13.4005ZM27.3388 25.7631L27.9097 27.1502L27.9097 27.1502L27.3388 25.7631ZM23.8807 28.4106L25.0043 29.4044L25.0043 29.4044L23.8807 28.4106ZM22.0959 33.9192L23.5953 33.8779L23.5953 33.8779L22.0959 33.9192ZM23.0795 38.9384L21.6527 39.4012L21.6527 39.4012L23.0795 38.9384ZM27.5628 46.4208L26.485 47.4641L26.485 47.4641L27.5628 46.4208ZM27.7077 46.5644L29.194 46.7668C29.2591 46.289 29.0905 45.809 28.7409 45.4769L27.7077 46.5644ZM27.4287 48.6128L25.9425 48.4104L25.9425 48.4104L27.4287 48.6128ZM29.1685 51.5586L28.6656 52.9718L28.6656 52.9718L29.1685 51.5586ZM34.5685 52.9049L34.3341 54.3865L34.3341 54.3865L34.5685 52.9049ZM40.6787 52.9918L40.88 54.4783L40.88 54.4783L40.6787 52.9918ZM42.9375 50.6622L41.4512 50.4598L41.4512 50.4598L42.9375 50.6622ZM43.2282 48.5274L42.5692 47.1799C42.1198 47.3997 41.8095 47.8291 41.742 48.3249L43.2282 48.5274ZM46.1629 45.4459L44.7955 44.8292L44.7955 44.8292L46.1629 45.4459ZM48.9197 36.314L47.4464 36.0323L47.4464 36.0323L48.9197 36.314ZM49.4328 33.1066L50.9207 33.2964L50.9207 33.2964L49.4328 33.1066ZM49.5401 32.1822L48.0481 32.0283L48.0481 32.0283L49.5401 32.1822ZM49.5647 31.9325L51.0583 32.0704L51.0586 32.0668L49.5647 31.9325ZM49.5706 31.8669L48.0769 31.7293L48.0766 31.7326L49.5706 31.8669ZM49.5706 31.8661L48.0844 31.6636C48.0814 31.6852 48.079 31.7068 48.077 31.7284L49.5706 31.8661ZM49.8333 29.9379L51.3196 30.1404L51.3196 30.1404L49.8333 29.9379ZM47.1066 26.3514L47.309 24.8651L47.309 24.8651L47.1066 26.3514ZM45.436 26.5732L43.9772 26.9221C44.0798 27.3512 44.3661 27.7133 44.7599 27.9122C45.1538 28.111 45.6152 28.1264 46.0214 27.9542L45.436 26.5732ZM42.4574 23.8772L42.6598 22.3909L42.6598 22.3909L42.4574 23.8772ZM40.1949 24.3238L38.7916 24.8536C38.9473 25.2661 39.2766 25.5892 39.692 25.737C40.1074 25.8849 40.5668 25.8424 40.9481 25.6211L40.1949 24.3238ZM37.3472 22.0543L37.1448 23.5406L37.1448 23.5406L37.3472 22.0543ZM35.4092 22.3342L33.9199 22.1548C33.8552 22.6922 34.085 23.2227 34.5212 23.5431C34.9574 23.8635 35.5324 23.9241 36.0258 23.7016L35.4092 22.3342ZM36.3721 14.3384L37.8614 14.5177L37.8614 14.5177L36.3721 14.3384ZM33.3228 10.3913L33.5253 8.90505L33.5253 8.90505L33.3228 10.3913ZM34.5149 29.8474L36.0011 30.0498L36.0011 30.0498L34.5149 29.8474ZM34.4896 29.9696L33.0451 29.5653C33.0245 29.6391 33.0095 29.7143 33.0003 29.7903L34.4896 29.9696ZM34.764 28.018L35.1717 26.5744C34.7537 26.4564 34.3051 26.5253 33.9419 26.7634C33.5786 27.0014 33.3364 27.3852 33.2777 27.8155L34.764 28.018ZM38.1747 28.9811L39.661 29.1836C39.7618 28.4428 39.3018 27.7408 38.5823 27.5376L38.1747 28.9811ZM37.9922 30.321L39.4785 30.5237L39.4785 30.5234L37.9922 30.321ZM37.9712 30.475L36.485 30.2723L36.4849 30.2725L37.9712 30.475ZM38.7415 31.4882L38.5391 32.9745L38.5391 32.9745L38.7415 31.4882ZM39.7548 30.7179L38.2685 30.5154L38.2685 30.5154L39.7548 30.7179ZM39.7748 30.5706L38.2893 30.3629L38.2885 30.3681L39.7748 30.5706ZM39.7757 30.5639L41.2613 30.7716L41.262 30.7663L39.7757 30.5639ZM39.924 29.4752L40.3317 28.0316C39.9137 27.9136 39.4651 27.9825 39.1018 28.2206C38.7386 28.4586 38.4963 28.8424 38.4377 29.2728L39.924 29.4752ZM43.3347 30.4383L44.821 30.6407C44.9218 29.8999 44.4618 29.198 43.7424 28.9948L43.3347 30.4383ZM43.243 31.1119L44.7292 31.3153L44.7293 31.3143L43.243 31.1119ZM43.2321 31.1915L41.746 30.9882L41.7458 30.9891L43.2321 31.1915ZM44.0024 32.2047L44.2049 30.7184L44.2049 30.7184L44.0024 32.2047ZM45.0157 31.4344L46.5019 31.6369L46.5019 31.6368L45.0157 31.4344ZM45.0252 31.3641L43.54 31.1539L43.5389 31.1617L45.0252 31.3641ZM45.0265 31.3549L46.5117 31.5651L46.5128 31.5571L45.0265 31.3549ZM45.084 30.9323L45.4917 29.4888C45.0737 29.3708 44.6251 29.4397 44.2618 29.6778C43.8985 29.9159 43.6563 30.2997 43.5977 30.7301L45.084 30.9323ZM47.7776 31.693L49.2639 31.8955C49.3648 31.1547 48.9048 30.4527 48.1853 30.2495L47.7776 31.693ZM47.7144 32.1572L46.2281 31.9548L46.2281 31.9548L47.7144 32.1572ZM47.7099 32.3621L49.2001 32.5328C49.2118 32.4304 49.213 32.3271 49.2035 32.2244L47.7099 32.3621ZM47.6472 32.879L49.1352 33.0687L49.1352 33.0687L47.6472 32.879ZM47.1518 35.9759L48.6251 36.2577L48.6251 36.2577L47.1518 35.9759ZM44.522 44.7059L43.1546 44.0892L43.1546 44.0892L44.522 44.7059ZM42.3863 46.9362L42.1378 48.4155C42.441 48.4664 42.7526 48.423 43.0303 48.291L42.3863 46.9362ZM28.9022 44.6706L28.6537 46.1498L28.6537 46.1498L28.9022 44.6706ZM28.4349 44.7163L27.3172 45.7167C27.7306 46.1785 28.3855 46.3385 28.9652 46.1194L28.4349 44.7163ZM24.7916 38.383L23.3648 38.8458L23.3648 38.8458L24.7916 38.383ZM23.8952 33.8696L25.3946 33.8283L25.3946 33.8283L23.8952 33.8696ZM25.229 29.6032L26.3525 30.597L26.3525 30.597L25.229 29.6032ZM27.2196 27.8472L28.7039 28.0636C28.7883 27.4845 28.5283 26.9092 28.0378 26.59C27.5474 26.2708 26.9161 26.2659 26.4208 26.5775L27.2196 27.8472ZM26.5047 32.7503L25.0204 32.5339L25.0204 32.5339L26.5047 32.7503ZM27.2655 33.7707L27.0491 35.255L27.0491 35.255L27.2655 33.7707ZM28.2859 33.01L26.8016 32.7936L26.8016 32.7936L28.2859 33.01ZM29.2411 26.4583L29.6487 25.0148C29.2331 24.8974 28.7871 24.9648 28.4248 25.1998C28.0625 25.4348 27.8191 25.8146 27.7568 26.2419L29.2411 26.4583ZM32.9725 27.5121L34.4618 27.6914C34.5501 26.9579 34.0912 26.2693 33.3802 26.0685L32.9725 27.5121ZM32.6373 30.2954L31.1481 30.116L31.1481 30.116L32.6373 30.2954ZM33.4233 31.2966L33.2439 32.7858L33.2439 32.7858L33.4233 31.2966ZM34.4244 30.5106L35.9137 30.69L35.9137 30.69L34.4244 30.5106ZM43.3521 30.311L42.9564 31.7578C43.3732 31.8718 43.8189 31.8005 44.1794 31.5622C44.5398 31.3238 44.78 30.9416 44.8383 30.5135L43.3521 30.311ZM39.9374 29.3771L38.4511 29.1747C38.3496 29.9201 38.816 30.6255 39.5417 30.824L39.9374 29.3771ZM43.52 29.0781L45.0063 29.2805L45.0063 29.2804L43.52 29.0781ZM43.7164 27.6362L42.2301 27.4338L42.2301 27.4338L43.7164 27.6362ZM42.2145 25.6607L42.0121 27.147L42.0121 27.147L42.2145 25.6607ZM40.2403 27.1533L38.7551 26.9432L38.7545 26.9472L40.2403 27.1533ZM40.239 27.1626L38.7532 26.9564L38.7527 26.9602L40.239 27.1626ZM34.7713 27.9643L33.2851 27.7618C33.1835 28.5073 33.6499 29.2127 34.3756 29.4111L34.7713 27.9643ZM38.186 28.8981L37.7903 30.345C38.2071 30.459 38.6529 30.3877 39.0133 30.1493C39.3738 29.911 39.614 29.5287 39.6723 29.1006L38.186 28.8981ZM35.1288 25.3397L36.6151 25.5422L36.6151 25.5422L35.1288 25.3397ZM37.1043 23.8379L36.9019 25.3241L36.9019 25.3241L37.1043 23.8379ZM38.6062 25.8133L40.0924 26.0158L40.0925 26.0158L38.6062 25.8133ZM38.4573 26.9065L39.9432 27.1116L39.9436 27.1089L38.4573 26.9065ZM38.4555 26.9197L36.9696 26.7145L36.9692 26.7172L38.4555 26.9197ZM45.1034 30.7899L43.6172 30.5875C43.5156 31.3329 43.982 32.0383 44.7077 32.2368L45.1034 30.7899ZM45.3036 29.321L46.7898 29.5235L46.7898 29.5234L45.3036 29.321ZM47.8002 31.5275L47.4045 32.9743C47.8213 33.0883 48.2671 33.017 48.6275 32.7787C48.988 32.5403 49.2281 32.1581 49.2865 31.7299L47.8002 31.5275ZM48.0498 29.695L46.5635 29.4926L46.5635 29.4926L48.0498 29.695ZM46.8637 28.1349L47.0661 26.6486L47.0661 26.6486L46.8637 28.1349ZM29.2123 48.8558L30.6985 49.0582L30.6985 49.0582L29.2123 48.8558ZM29.3751 47.6604L30.0027 46.298C29.5709 46.0991 29.0703 46.1167 28.6535 46.3454C28.2367 46.5741 27.953 46.9869 27.8888 47.458L29.3751 47.6604ZM29.772 49.8628L30.275 48.4496L30.275 48.4496L29.772 49.8628ZM34.8497 51.127L35.084 49.6454L35.084 49.6454L34.8497 51.127ZM40.4372 51.2081L40.2359 49.7217L40.2359 49.7217L40.4372 51.2081ZM41.1539 50.4193L39.6676 50.2169L39.6676 50.2169L41.1539 50.4193ZM41.3268 49.1502L42.8131 49.3526C42.8784 48.8731 42.7083 48.3915 42.3564 48.0594C42.0045 47.7272 41.5139 47.5852 41.039 47.678L41.3268 49.1502ZM41.1775 49.1781L41.4413 50.6547L41.4414 50.6547L41.1775 49.1781ZM35.0282 49.0145L35.2307 47.5282L35.2307 47.5282L35.0282 49.0145ZM30.5601 48.1134L30.1057 49.5429L30.1057 49.5429L30.5601 48.1134ZM15.4418 11.3723C15.181 11.5767 14.8038 11.531 14.5994 11.2701L16.9607 9.41963C16.1431 8.37635 14.6345 8.19341 13.5913 9.01102L15.4418 11.3723ZM10.2701 15.4253L15.4418 11.3723L13.5913 9.01102L8.41959 13.064L10.2701 15.4253ZM10.5 14.9473C10.5018 15.1337 10.4168 15.3103 10.2701 15.4253L8.41959 13.064C7.83275 13.5239 7.49298 14.2305 7.50011 14.976L10.5 14.9473ZM10.261 14.4738C10.4099 14.5859 10.4982 14.7609 10.5 14.9473L7.50011 14.976C7.50724 15.7216 7.86047 16.4215 8.45601 16.87L10.261 14.4738ZM15.4327 18.3694L10.261 14.4738L8.45601 16.87L13.6277 20.7656L15.4327 18.3694ZM14.5924 18.4876C14.7918 18.223 15.168 18.17 15.4327 18.3694L13.6277 20.7656C14.6864 21.5631 16.1912 21.3514 16.9887 20.2926L14.5924 18.4876ZM14.7107 19.3279C14.446 19.1285 14.393 18.7523 14.5924 18.4876L16.9887 20.2926C17.7862 19.2339 17.5744 17.7291 16.5157 16.9316L14.7107 19.3279ZM11.4437 16.867L14.7107 19.3279L16.5157 16.9316L13.2487 14.4708L11.4437 16.867ZM12.3462 17.1689H23.7874V14.1689H12.3462V17.1689ZM23.7874 17.1689C25.1129 17.1689 26.1874 16.0944 26.1874 14.7689H23.1874C23.1874 14.4375 23.4561 14.1689 23.7874 14.1689V17.1689ZM26.1874 14.7689C26.1874 13.4434 25.1129 12.3689 23.7874 12.3689V15.3689C23.4561 15.3689 23.1874 15.1003 23.1874 14.7689H26.1874ZM23.7874 12.3689H12.7424V15.3689H23.7874V12.3689ZM14.7016 10.4278L11.8172 12.6883L13.6677 15.0495L16.5521 12.7891L14.7016 10.4278ZM14.5994 11.2701C14.395 11.0093 14.4407 10.6322 14.7016 10.4278L16.5521 12.7891C17.5954 11.9714 17.7783 10.4629 16.9607 9.41963L14.5994 11.2701ZM32.5913 13.8766C32.6114 13.7384 32.7391 13.6423 32.8775 13.6611L33.2823 10.6886C31.5132 10.4476 29.8802 11.677 29.6226 13.4438L32.5913 13.8766ZM30.7263 26.6685L32.5913 13.8766L29.6226 13.4438L27.7577 26.2357L30.7263 26.6685ZM33.3729 26.0267L29.6377 25.0052L28.8463 27.8989L32.5815 28.9205L33.3729 26.0267ZM33.0958 13.9438L31.4879 27.2942L34.4664 27.6529L36.0743 14.3025L33.0958 13.9438ZM32.8775 13.6611C33.0152 13.6799 33.1124 13.8057 33.0958 13.9438L36.0743 14.3025C36.2869 12.5375 35.0438 10.9285 33.2823 10.6886L32.8775 13.6611ZM29.0158 25.9242L30.8101 13.6169L27.8415 13.1841L26.0472 25.4914L29.0158 25.9242ZM27.9097 27.1502C27.8694 27.1668 27.8267 27.1791 27.7825 27.1866L27.2804 24.2289C27.1067 24.2584 26.9347 24.3073 26.7678 24.3761L27.9097 27.1502ZM25.0043 29.4044C25.6594 28.6638 26.6898 27.6523 27.9097 27.1502L26.7678 24.376C24.8894 25.1492 23.4839 26.5952 22.7572 27.4167L25.0043 29.4044ZM23.5953 33.8779C23.55 32.2343 23.9014 30.6511 25.0043 29.4044L22.7572 27.4167C20.9779 29.4282 20.5387 31.8642 20.5965 33.9606L23.5953 33.8779ZM24.5063 38.4756C24.0839 37.1734 23.6407 35.525 23.5953 33.8779L20.5965 33.9606C20.6538 36.0411 21.203 38.0151 21.6527 39.4012L24.5063 38.4756ZM28.6406 45.3776C26.8222 43.499 25.3341 41.0275 24.5063 38.4756L21.6527 39.4012C22.6202 42.3839 24.3454 45.2536 26.485 47.4641L28.6406 45.3776ZM28.7409 45.4769C28.7065 45.4443 28.6731 45.4112 28.6406 45.3776L26.485 47.4641C26.5471 47.5282 26.6103 47.5908 26.6746 47.6519L28.7409 45.4769ZM28.915 48.8153L29.194 46.7668L26.2215 46.362L25.9425 48.4104L28.915 48.8153ZM29.6714 50.1454C29.1554 49.9618 28.8319 49.4255 28.915 48.8153L25.9425 48.4104C25.6891 50.2709 26.6686 52.2611 28.6656 52.9718L29.6714 50.1454ZM34.8028 51.4233C32.5242 51.0629 30.767 50.5353 29.6714 50.1454L28.6656 52.9718C29.9083 53.4141 31.8461 53.993 34.3341 54.3865L34.8028 51.4233ZM40.4774 51.5054C39.2531 51.6712 37.2218 51.806 34.8028 51.4233L34.3341 54.3865C37.109 54.8254 39.4428 54.6728 40.88 54.4783L40.4774 51.5054ZM41.4512 50.4598C41.3733 51.0319 40.9713 51.4385 40.4774 51.5054L40.88 54.4783C42.8858 54.2067 44.1888 52.5892 44.4237 50.8647L41.4512 50.4598ZM41.742 48.3249L41.4512 50.4598L44.4237 50.8647L44.7145 48.7298L41.742 48.3249ZM44.7955 44.8292C44.2589 46.0191 43.4773 46.7358 42.5692 47.1799L43.8872 49.8748C45.4007 49.1346 46.696 47.9126 47.5303 46.0625L44.7955 44.8292ZM47.4464 36.0323C46.9597 38.5775 46.1373 41.8539 44.7955 44.8292L47.5303 46.0625C49.0072 42.7876 49.8842 39.2568 50.393 36.5957L47.4464 36.0323ZM47.9448 32.9169C47.8475 33.6803 47.6893 34.7623 47.4464 36.0323L50.393 36.5957C50.6495 35.2545 50.8169 34.1101 50.9207 33.2964L47.9448 32.9169ZM48.0481 32.0283C48.0269 32.2337 47.9935 32.5353 47.9448 32.9169L50.9207 33.2964C50.9726 32.8891 51.0088 32.5635 51.0322 32.336L48.0481 32.0283ZM48.071 31.7945C48.0662 31.847 48.0587 31.9256 48.0481 32.0283L51.0322 32.3361C51.044 32.2224 51.0525 32.1331 51.0583 32.0704L48.071 31.7945ZM48.0766 31.7326L48.0707 31.7981L51.0586 32.0668L51.0645 32.0013L48.0766 31.7326ZM48.077 31.7284L48.0769 31.7293L51.0642 32.0046L51.0643 32.0038L48.077 31.7284ZM48.347 29.7355L48.0844 31.6636L51.0569 32.0686L51.3196 30.1404L48.347 29.7355ZM46.9042 27.8376C47.8267 27.9633 48.4727 28.813 48.347 29.7355L51.3196 30.1404C51.6688 27.5762 49.8732 25.2143 47.309 24.8651L46.9042 27.8376ZM46.0214 27.9542C46.2896 27.8406 46.5905 27.7949 46.9042 27.8376L47.309 24.8651C46.4462 24.7476 45.6018 24.8737 44.8507 25.1921L46.0214 27.9542ZM42.255 25.3635C43.1174 25.4809 43.785 26.1187 43.9772 26.9221L46.8949 26.2243C46.4244 24.2571 44.7896 22.681 42.6598 22.3909L42.255 25.3635ZM40.9481 25.6211C41.3296 25.3995 41.7825 25.2991 42.255 25.3635L42.6598 22.3909C41.5029 22.2333 40.3801 22.4818 39.4418 23.0266L40.9481 25.6211ZM37.1448 23.5406C37.9168 23.6457 38.5323 24.1666 38.7916 24.8536L41.5983 23.7941C40.9657 22.1184 39.4557 20.8277 37.5497 20.568L37.1448 23.5406ZM36.0258 23.7016C36.3638 23.5492 36.7465 23.4863 37.1448 23.5406L37.5497 20.568C36.5778 20.4357 35.6285 20.5898 34.7926 20.9668L36.0258 23.7016ZM34.8829 14.159L33.9199 22.1548L36.8984 22.5135L37.8614 14.5177L34.8829 14.159ZM33.1204 11.8776C34.2324 12.0291 35.0171 13.0448 34.8829 14.159L37.8614 14.5177C38.1915 11.7765 36.261 9.27766 33.5253 8.90505L33.1204 11.8776ZM30.8101 13.6169C30.9727 12.5016 32.0036 11.7255 33.1204 11.8776L33.5253 8.90505C30.7776 8.53081 28.2415 10.4401 27.8415 13.1841L30.8101 13.6169ZM33.0286 29.6449C33.0322 29.6185 33.0377 29.5918 33.0451 29.5653L35.9341 30.3739C35.9636 30.2683 35.9861 30.16 36.0011 30.0498L33.0286 29.6449ZM33.2777 27.8155L33.0286 29.645L36.0011 30.0498L36.2503 28.2204L33.2777 27.8155ZM38.5823 27.5376L35.1717 26.5744L34.3564 29.4615L37.767 30.4247L38.5823 27.5376ZM39.4785 30.5234L39.661 29.1836L36.6884 28.7787L36.5059 30.1186L39.4785 30.5234ZM39.4575 30.6776L39.4785 30.5237L36.506 30.1184L36.485 30.2723L39.4575 30.6776ZM38.944 30.0019C39.2723 30.0466 39.5022 30.349 39.4575 30.6774L36.4849 30.2725C36.3061 31.5859 37.2257 32.7956 38.5391 32.9745L38.944 30.0019ZM38.2685 30.5154C38.3132 30.1871 38.6156 29.9572 38.944 30.0019L38.5391 32.9745C39.8525 33.1533 41.0622 32.2337 41.241 30.9203L38.2685 30.5154ZM38.2885 30.3681L38.2685 30.5154L41.241 30.9203L41.2611 30.773L38.2885 30.3681ZM38.2902 30.3563L38.2893 30.3629L41.2604 30.7782L41.2613 30.7716L38.2902 30.3563ZM38.4377 29.2728L38.2895 30.3615L41.262 30.7663L41.4103 29.6776L38.4377 29.2728ZM43.7424 28.9948L40.3317 28.0316L39.5164 30.9187L42.927 31.8819L43.7424 28.9948ZM44.7293 31.3143L44.821 30.6407L41.8484 30.236L41.7567 30.9096L44.7293 31.3143ZM44.7183 31.3948L44.7292 31.3153L41.7568 30.9086L41.746 30.9882L44.7183 31.3948ZM44.2049 30.7184C44.5332 30.7632 44.7631 31.0656 44.7184 31.3939L41.7458 30.9891C41.567 32.3024 42.4866 33.5121 43.8 33.691L44.2049 30.7184ZM43.5294 31.232C43.5741 30.9037 43.8765 30.6737 44.2049 30.7184L43.8 33.691C45.1134 33.8699 46.323 32.9502 46.5019 31.6369L43.5294 31.232ZM43.5389 31.1617L43.5294 31.232L46.5019 31.6368L46.5115 31.5665L43.5389 31.1617ZM43.5413 31.1446L43.54 31.1539L46.5104 31.5744L46.5117 31.5651L43.5413 31.1446ZM43.5977 30.7301L43.5402 31.1526L46.5128 31.5571L46.5703 31.1346L43.5977 30.7301ZM48.1853 30.2495L45.4917 29.4888L44.6764 32.3759L47.37 33.1366L48.1853 30.2495ZM49.2007 32.3596L49.2639 31.8955L46.2914 31.4906L46.2281 31.9548L49.2007 32.3596ZM49.2035 32.2244C49.2077 32.27 49.2067 32.3155 49.2007 32.3596L46.2281 31.9548C46.2032 32.1378 46.1997 32.3205 46.2162 32.4999L49.2035 32.2244ZM49.1352 33.0687C49.1607 32.8682 49.1822 32.6889 49.2001 32.5328L46.2196 32.1914C46.2031 32.3353 46.1831 32.5019 46.1593 32.6892L49.1352 33.0687ZM48.6251 36.2577C48.8734 34.9592 49.0352 33.8522 49.1352 33.0687L46.1593 32.6892C46.0658 33.4224 45.9131 34.467 45.6785 35.6942L48.6251 36.2577ZM45.8894 45.3225C47.2853 42.2273 48.1295 38.8492 48.6251 36.2577L45.6785 35.6942C45.205 38.17 44.4153 41.2937 43.1546 44.0892L45.8894 45.3225ZM43.0303 48.291C44.2618 47.7056 45.2487 46.7432 45.8894 45.3225L43.1546 44.0892C42.8046 44.8653 42.3286 45.3028 41.7424 45.5815L43.0303 48.291ZM28.6537 46.1498L42.1378 48.4155L42.6349 45.457L29.1508 43.1913L28.6537 46.1498ZM28.9652 46.1194C28.8669 46.1565 28.7594 46.1676 28.6537 46.1498L29.1508 43.1913C28.728 43.1202 28.2981 43.1644 27.9045 43.3131L28.9652 46.1194ZM23.3648 38.8458C24.1788 41.3551 25.5846 43.7812 27.3172 45.7167L29.5525 43.7158C28.0961 42.0888 26.9022 40.0282 26.2185 37.9202L23.3648 38.8458ZM22.3958 33.911C22.446 35.7315 22.9316 37.5103 23.3648 38.8458L26.2185 37.9202C25.8122 36.6678 25.4329 35.2149 25.3946 33.8283L22.3958 33.911ZM24.1054 28.6093C22.7324 30.1615 22.3454 32.0854 22.3958 33.911L25.3946 33.8283C25.3569 32.459 25.6543 31.3863 26.3525 30.597L24.1054 28.6093ZM26.4208 26.5775C25.4381 27.1958 24.6381 28.0071 24.1054 28.6093L26.3525 30.597C26.8038 30.0868 27.3844 29.5156 28.0183 29.1168L26.4208 26.5775ZM27.989 32.9667L28.7039 28.0636L25.7353 27.6308L25.0204 32.5339L27.989 32.9667ZM27.4819 32.2864C27.8098 32.3342 28.0368 32.6388 27.989 32.9667L25.0204 32.5339C24.8292 33.8455 25.7374 35.0638 27.0491 35.255L27.4819 32.2864ZM26.8016 32.7936C26.8494 32.4657 27.154 32.2386 27.4819 32.2864L27.0491 35.255C28.3607 35.4463 29.579 34.538 29.7702 33.2264L26.8016 32.7936ZM27.7568 26.2419L26.8016 32.7936L29.7702 33.2264L30.7254 26.6747L27.7568 26.2419ZM33.3802 26.0685L29.6487 25.0148L28.8334 27.9018L32.5649 28.9556L33.3802 26.0685ZM34.1266 30.4748L34.4618 27.6914L31.4833 27.3327L31.1481 30.116L34.1266 30.4748ZM33.6026 29.8073C33.9316 29.8469 34.1662 30.1458 34.1266 30.4748L31.1481 30.116C30.9896 31.432 31.9279 32.6273 33.2439 32.7858L33.6026 29.8073ZM32.9352 30.3313C32.9748 30.0023 33.2736 29.7677 33.6026 29.8073L33.2439 32.7858C34.5599 32.9443 35.7552 32.006 35.9137 30.69L32.9352 30.3313ZM33.0003 29.7903L32.9352 30.3313L35.9137 30.69L35.9788 30.149L33.0003 29.7903ZM43.7477 28.8641L40.3331 27.9302L39.5417 30.824L42.9564 31.7578L43.7477 28.8641ZM42.0338 28.8756L41.8658 30.1085L44.8383 30.5135L45.0063 29.2805L42.0338 28.8756ZM42.2301 27.4338L42.0337 28.8757L45.0063 29.2804L45.2026 27.8386L42.2301 27.4338ZM42.0121 27.147C42.1515 27.166 42.2491 27.2944 42.2301 27.4338L45.2026 27.8387C45.4452 26.0576 44.198 24.417 42.4169 24.1745L42.0121 27.147ZM41.7255 27.3635C41.7451 27.225 41.8731 27.1281 42.0121 27.147L42.4169 24.1745C40.6415 23.9326 39.0059 25.171 38.7551 26.9432L41.7255 27.3635ZM41.7248 27.3688L41.726 27.3595L38.7545 26.9472L38.7532 26.9564L41.7248 27.3688ZM41.4237 29.5795L41.7253 27.365L38.7527 26.9602L38.4511 29.1747L41.4237 29.5795ZM34.3756 29.4111L37.7903 30.345L38.5817 27.4513L35.167 26.5174L34.3756 29.4111ZM33.6425 25.1373L33.2851 27.7618L36.2576 28.1667L36.6151 25.5422L33.6425 25.1373ZM37.3067 22.3516C35.5256 22.109 33.8851 23.3562 33.6425 25.1373L36.6151 25.5422C36.6341 25.4028 36.7625 25.3051 36.9019 25.3241L37.3067 22.3516ZM40.0925 26.0158C40.335 24.2347 39.0878 22.5942 37.3067 22.3516L36.9019 25.3241C37.0413 25.3431 37.1389 25.4715 37.1199 25.6109L40.0925 26.0158ZM39.9436 27.1089L40.0924 26.0158L37.1199 25.6109L36.971 26.7041L39.9436 27.1089ZM39.9414 27.1248L39.9432 27.1116L36.9714 26.7014L36.9696 26.7145L39.9414 27.1248ZM39.6723 29.1006L39.9417 27.1221L36.9692 26.7172L36.6997 28.6957L39.6723 29.1006ZM46.5897 30.9924L46.7898 29.5235L43.8173 29.1185L43.6172 30.5875L46.5897 30.9924ZM48.1959 30.0806L45.4991 29.3431L44.7077 32.2368L47.4045 32.9743L48.1959 30.0806ZM46.5635 29.4926L46.3139 31.325L49.2865 31.7299L49.536 29.8975L46.5635 29.4926ZM46.6613 29.6212C46.5988 29.6127 46.555 29.5551 46.5635 29.4926L49.536 29.8975C49.7511 28.3183 48.6453 26.8637 47.0661 26.6486L46.6613 29.6212ZM46.7898 29.5234C46.7813 29.5859 46.7237 29.6297 46.6613 29.6212L47.0661 26.6486C45.4869 26.4335 44.0324 27.5393 43.8173 29.1185L46.7898 29.5234ZM30.6985 49.0582L30.8614 47.8629L27.8888 47.458L27.726 48.6533L30.6985 49.0582ZM30.275 48.4496C30.6235 48.5737 30.7213 48.8913 30.6985 49.0582L27.726 48.6533C27.5728 49.7781 28.1736 50.8861 29.2691 51.276L30.275 48.4496ZM35.084 49.6454C32.931 49.3049 31.2822 48.8081 30.275 48.4496L29.2691 51.276C30.4235 51.6868 32.2529 52.2349 34.6153 52.6086L35.084 49.6454ZM40.2359 49.7217C39.1393 49.8701 37.2896 49.9943 35.084 49.6454L34.6153 52.6086C37.1767 53.0137 39.329 52.8718 40.6384 52.6945L40.2359 49.7217ZM39.6676 50.2169C39.6879 50.0683 39.8495 49.774 40.2359 49.7217L40.6384 52.6945C41.7225 52.5478 42.4973 51.6707 42.6402 50.6217L39.6676 50.2169ZM39.8405 48.9477L39.6676 50.2169L42.6402 50.6217L42.8131 49.3526L39.8405 48.9477ZM41.4414 50.6547C41.4991 50.6444 41.5568 50.6336 41.6146 50.6223L41.039 47.678C40.9975 47.6861 40.9557 47.694 40.9136 47.7015L41.4414 50.6547ZM34.8258 50.5008C36.7236 50.7593 39.1785 51.059 41.4413 50.6547L40.9137 47.7015C39.1781 48.0116 37.1683 47.7921 35.2307 47.5282L34.8258 50.5008ZM30.1057 49.5429C31.4531 49.9712 33.0462 50.2584 34.8258 50.5008L35.2307 47.5282C33.4983 47.2923 32.1106 47.0323 31.0145 46.6838L30.1057 49.5429ZM28.7475 49.0228C29.1831 49.2235 29.6382 49.3943 30.1057 49.5429L31.0145 46.6838C30.6423 46.5655 30.3058 46.4377 30.0027 46.298L28.7475 49.0228Z" fill="#F8F9FA" mask="url(#path-1-outside-1_50_11008)"/>
<path d="M40.4663 52.1161C39.1994 52.2876 37.1077 52.426 34.6174 52.0321C32.2969 51.665 30.5036 51.1272 29.3787 50.7268C28.5637 50.4368 28.1122 49.6075 28.2289 48.7504L28.6615 45.5742L42.3201 47.8692L41.9541 50.5569C41.8452 51.3561 41.2657 52.0078 40.4663 52.1161Z" fill="#F8F9FA" stroke="#212529" stroke-width="1.8" stroke-linecap="round" stroke-linejoin="round"/>
<path fill-rule="evenodd" clip-rule="evenodd" d="M27.5897 26.6117C26.2384 27.1679 25.133 28.2661 24.4633 29.0231C21.9866 31.8229 22.9883 36.0388 23.844 38.6769C24.6997 41.315 26.2353 43.8662 28.1179 45.8111C29.3433 47.0772 31.5743 47.6645 35.0581 48.139C38.9184 48.6648 43.4523 49.0805 45.2509 45.0921C47.9885 39.0216 48.5843 31.7832 48.5843 31.7832" fill="#FFD8A8"/>
<path d="M27.5897 26.6117C26.2384 27.1679 25.133 28.2661 24.4633 29.0231C21.9866 31.8229 22.9883 36.0388 23.844 38.6769C24.6997 41.315 26.2353 43.8662 28.1179 45.8111C29.3433 47.0772 31.5743 47.6645 35.0581 48.139C38.9184 48.6648 43.4523 49.0805 45.2509 45.0921C47.9885 39.0216 48.5843 31.7832 48.5843 31.7832" stroke="#212529" stroke-width="1.8" stroke-linecap="round" stroke-linejoin="round"/>
<g style="mix-blend-mode:soft-light" opacity="0.6">
<path d="M26.6833 38.469C26.2834 38.938 26.7714 40.3288 27.2822 41.2692C27.8046 42.2309 28.7649 43.5866 29.2849 43.1998C29.8048 42.8129 28.6028 41.0449 28.2522 40.6307C27.655 39.7775 27.0831 38.0001 26.6833 38.469Z" fill="#F8F9FA"/>
</g>
<path fill-rule="evenodd" clip-rule="evenodd" d="M38.7714 30.6125L39.2556 27.0572C39.4535 25.6044 40.7916 24.5872 42.2443 24.785V24.785C43.6971 24.9829 44.7144 26.321 44.5165 27.7738L44.0323 31.329" fill="#FFD8A8"/>
<path d="M38.7714 30.6125L39.2556 27.0572C39.4535 25.6044 40.7916 24.5872 42.2443 24.785V24.785C43.6971 24.9829 44.7144 26.321 44.5165 27.7738L44.0323 31.329" stroke="#212529" stroke-width="1.8" stroke-linecap="round" stroke-linejoin="round"/>
<path fill-rule="evenodd" clip-rule="evenodd" d="M44.0432 31.2499L44.3202 29.216C44.4906 27.9652 45.6427 27.0893 46.8935 27.2597V27.2597C48.1444 27.43 49.0203 28.5822 48.8499 29.833L48.5146 32.2952" fill="#FFD8A8"/>
<path d="M44.0432 31.2499L44.3202 29.216C44.4906 27.9652 45.6427 27.0893 46.8935 27.2597V27.2597C48.1444 27.43 49.0203 28.5822 48.8499 29.833L48.5146 32.2952" stroke="#212529" stroke-width="1.8" stroke-linecap="round" stroke-linejoin="round"/>
<path fill-rule="evenodd" clip-rule="evenodd" d="M27.3036 32.8961L30.1247 13.5463C30.3348 12.1053 31.6667 11.1025 33.1097 11.2991V11.2991C34.5464 11.4948 35.5603 12.8071 35.3869 14.2467L33.4392 30.419" fill="#FFD8A8"/>
<path d="M27.3036 32.8961L30.1247 13.5463C30.3348 12.1053 31.6667 11.1025 33.1097 11.2991V11.2991C34.5464 11.4948 35.5603 12.8071 35.3869 14.2467L33.4392 30.419" stroke="#212529" stroke-width="1.8" stroke-linecap="round" stroke-linejoin="round"/>
<path fill-rule="evenodd" clip-rule="evenodd" d="M33.5314 29.7426L34.1454 25.2349C34.3433 23.7822 35.6814 22.7649 37.1341 22.9628V22.9628C38.5869 23.1606 39.6042 24.4987 39.4063 25.9515L38.7923 30.4592" fill="#FFD8A8"/>
<path d="M33.5314 29.7426L34.1454 25.2349C34.3433 23.7822 35.6814 22.7649 37.1341 22.9628V22.9628C38.5869 23.1606 39.6042 24.4987 39.4063 25.9515L38.7923 30.4592" stroke="#212529" stroke-width="1.8" stroke-linecap="round" stroke-linejoin="round"/>
<g style="mix-blend-mode:multiply">
<path d="M44.6988 41.7874C45.9279 38.5112 46.9829 32.3698 47.5687 28.0686C47.8709 28.2498 47.9301 28.7924 48.208 30.4551C48.4858 32.1179 46.9342 39.0801 46.1189 41.9808C45.6107 43.3124 44.5921 45.8853 43.5845 46.7006C42.577 47.5159 40.406 48.1133 39.4214 48.1426C42.8468 46.6481 43.7799 44.2368 44.6988 41.7874Z" fill="#DEE2E6"/>
</g>
<g style="mix-blend-mode:multiply">
<path d="M40.4549 48.9327L41.4682 48.9821L41.1585 51.2561L40.1198 51.3936L40.4549 48.9327Z" fill="#DEE2E6"/>
</g>
<g style="mix-blend-mode:multiply">
<path d="M44.1207 26.3948L43.4743 26.1105L42.7886 31.1448L43.3787 31.8429L44.1207 26.3948Z" fill="#DEE2E6"/>
</g>
<g style="mix-blend-mode:multiply">
<path d="M39.0439 24.8842L38.4013 24.5715L37.6143 30.3495L38.1922 31.1372L39.0439 24.8842Z" fill="#DEE2E6"/>
</g>
<g style="mix-blend-mode:multiply">
<path d="M35.2071 13.001L34.3416 12.1351L32.2405 29.7514L32.8075 30.6189L35.2071 13.001Z" fill="#DEE2E6"/>
</g>
<path d="M15.0007 10.916L9.82906 14.969L15.0007 18.8646" stroke="#212529" stroke-width="1.8" stroke-linecap="round" stroke-linejoin="round"/>
<path d="M23.7166 14.7852H11.6506" stroke="#212529" stroke-width="1.8" stroke-linecap="round" stroke-linejoin="round"/>
</svg>
