<svg width="60" height="61" viewBox="0 0 60 61" fill="none" xmlns="http://www.w3.org/2000/svg">
<mask id="path-1-outside-1_50_4788" maskUnits="userSpaceOnUse" x="3.95154" y="10.8076" width="52" height="38" fill="black">
<rect fill="white" x="3.95154" y="10.8076" width="52" height="38"/>
<path fill-rule="evenodd" clip-rule="evenodd" d="M39.2959 12.8076C37.9571 12.8076 36.8718 13.8929 36.8718 15.2316C36.8718 15.5588 36.9366 15.8709 37.0541 16.1556H28.5001C26.9537 16.1556 25.7001 17.4092 25.7001 18.9556V19.0099H13.1534C12.9117 18.4329 12.3417 18.0276 11.677 18.0276L7.55151 18.0276C6.66785 18.0276 5.95151 18.7439 5.95151 19.6276L5.95151 21.2163C5.95151 22.0999 6.66785 22.8163 7.55151 22.8163H11.677C12.3417 22.8163 12.9117 22.4109 13.1534 21.8339H25.7481C25.9916 23.1322 27.1311 24.1147 28.5001 24.1147H32.7425V26.3389C32.7425 26.4065 32.7462 26.4733 32.7535 26.5389H16.8972C16.0956 26.5389 15.3906 27.069 15.168 27.8391L14.7839 29.1677C14.7034 29.4462 14.693 29.7246 14.7404 29.9867C10.6424 30.6726 7.51941 34.236 7.51941 38.5289C7.51941 43.3124 11.3973 47.1903 16.1808 47.1903H45.3991C50.1827 47.1903 54.0606 43.3124 54.0606 38.5289C54.0606 34.351 51.1025 30.8639 47.1665 30.0479C47.2273 29.7682 47.222 29.4681 47.1351 29.1677L46.7511 27.8391C46.5285 27.069 45.8235 26.5389 45.0219 26.5389H43.7974C43.8046 26.4733 43.8084 26.4065 43.8084 26.3389V24.1147H44.4667C46.0131 24.1147 47.2667 22.8611 47.2667 21.3147V18.9556C47.2667 17.5912 46.2908 16.4547 44.9989 16.2061C45.13 15.9079 45.2027 15.5783 45.2027 15.2316C45.2027 13.8929 44.1174 12.8076 42.7787 12.8076H39.2959Z"/>
</mask>
<path fill-rule="evenodd" clip-rule="evenodd" d="M39.2959 12.8076C37.9571 12.8076 36.8718 13.8929 36.8718 15.2316C36.8718 15.5588 36.9366 15.8709 37.0541 16.1556H28.5001C26.9537 16.1556 25.7001 17.4092 25.7001 18.9556V19.0099H13.1534C12.9117 18.4329 12.3417 18.0276 11.677 18.0276L7.55151 18.0276C6.66785 18.0276 5.95151 18.7439 5.95151 19.6276L5.95151 21.2163C5.95151 22.0999 6.66785 22.8163 7.55151 22.8163H11.677C12.3417 22.8163 12.9117 22.4109 13.1534 21.8339H25.7481C25.9916 23.1322 27.1311 24.1147 28.5001 24.1147H32.7425V26.3389C32.7425 26.4065 32.7462 26.4733 32.7535 26.5389H16.8972C16.0956 26.5389 15.3906 27.069 15.168 27.8391L14.7839 29.1677C14.7034 29.4462 14.693 29.7246 14.7404 29.9867C10.6424 30.6726 7.51941 34.236 7.51941 38.5289C7.51941 43.3124 11.3973 47.1903 16.1808 47.1903H45.3991C50.1827 47.1903 54.0606 43.3124 54.0606 38.5289C54.0606 34.351 51.1025 30.8639 47.1665 30.0479C47.2273 29.7682 47.222 29.4681 47.1351 29.1677L46.7511 27.8391C46.5285 27.069 45.8235 26.5389 45.0219 26.5389H43.7974C43.8046 26.4733 43.8084 26.4065 43.8084 26.3389V24.1147H44.4667C46.0131 24.1147 47.2667 22.8611 47.2667 21.3147V18.9556C47.2667 17.5912 46.2908 16.4547 44.9989 16.2061C45.13 15.9079 45.2027 15.5783 45.2027 15.2316C45.2027 13.8929 44.1174 12.8076 42.7787 12.8076H39.2959Z" fill="#F8F9FA"/>
<path d="M37.0542 16.1556V17.6556C37.5548 17.6556 38.0224 17.4059 38.3008 16.9898C38.5792 16.5738 38.6317 16.0463 38.4408 15.5835L37.0542 16.1556ZM25.7001 19.0099V20.5099C26.5285 20.5099 27.2001 19.8383 27.2001 19.0099H25.7001ZM13.1534 19.0099L11.7699 19.5894C12.0034 20.147 12.5489 20.5099 13.1534 20.5099V19.0099ZM11.677 18.0276L11.677 19.5276H11.677V18.0276ZM7.55154 18.0276L7.55154 16.5276H7.55154V18.0276ZM5.95154 19.6276L4.45154 19.6276L5.95154 19.6276ZM5.95154 21.2163L7.45154 21.2163L5.95154 21.2163ZM13.1534 21.8339V20.3339C12.5489 20.3339 12.0034 20.6968 11.7699 21.2544L13.1534 21.8339ZM25.7481 21.8339L27.2225 21.5575C27.0894 20.848 26.47 20.3339 25.7481 20.3339V21.8339ZM32.7425 24.1147H34.2425C34.2425 23.2863 33.5709 22.6147 32.7425 22.6147V24.1147ZM32.7535 26.5389V28.0389C33.18 28.0389 33.5864 27.8574 33.8709 27.5396C34.1555 27.2219 34.2913 26.798 34.2444 26.3741L32.7535 26.5389ZM15.168 27.8391L13.727 27.4226L13.727 27.4226L15.168 27.8391ZM14.784 29.1677L16.225 29.5842L14.784 29.1677ZM14.7404 29.9867L14.988 31.4661C15.3838 31.3998 15.7364 31.1778 15.9673 30.8497C16.1981 30.5215 16.2879 30.1145 16.2164 29.7197L14.7404 29.9867ZM47.1666 30.0479L45.7008 29.7293C45.6158 30.1205 45.6906 30.5294 45.9087 30.8651C46.1268 31.2008 46.4701 31.4354 46.8621 31.5167L47.1666 30.0479ZM47.1352 29.1677L45.6942 29.5842L45.6942 29.5843L47.1352 29.1677ZM46.7511 27.8391L48.1921 27.4226L48.1921 27.4226L46.7511 27.8391ZM43.7974 26.5389L42.3065 26.3741C42.2596 26.7981 42.3955 27.2219 42.68 27.5396C42.9645 27.8574 43.3709 28.0389 43.7974 28.0389V26.5389ZM43.8084 24.1147V22.6147C42.98 22.6147 42.3084 23.2863 42.3084 24.1147H43.8084ZM44.9989 16.2061L43.6257 15.6026C43.4421 16.0204 43.4586 16.4991 43.6707 16.9032C43.8828 17.3073 44.2673 17.5929 44.7155 17.6791L44.9989 16.2061ZM38.3719 15.2316C38.3719 14.7213 38.7856 14.3076 39.2959 14.3076V11.3076C37.1287 11.3076 35.3719 13.0645 35.3719 15.2316H38.3719ZM38.4408 15.5835C38.3968 15.477 38.3719 15.3591 38.3719 15.2316H35.3719C35.3719 15.7585 35.4765 16.2647 35.6676 16.7278L38.4408 15.5835ZM37.0542 14.6556H28.5001V17.6556H37.0542V14.6556ZM28.5001 14.6556C26.1253 14.6556 24.2001 16.5808 24.2001 18.9556H27.2001C27.2001 18.2377 27.7821 17.6556 28.5001 17.6556V14.6556ZM24.2001 18.9556V19.0099H27.2001V18.9556H24.2001ZM25.7001 17.5099H13.1534V20.5099H25.7001V17.5099ZM14.5369 18.4304C14.0699 17.3154 12.9672 16.5276 11.677 16.5276V19.5276C11.6999 19.5276 11.7168 19.5336 11.732 19.5439C11.7496 19.5558 11.7628 19.5726 11.7699 19.5894L14.5369 18.4304ZM11.677 16.5276L7.55154 16.5276L7.55154 19.5276L11.677 19.5276L11.677 16.5276ZM7.55154 16.5276C5.83945 16.5276 4.45154 17.9155 4.45154 19.6276L7.45154 19.6276C7.45154 19.5724 7.49631 19.5276 7.55154 19.5276V16.5276ZM4.45154 19.6276L4.45154 21.2163L7.45154 21.2163L7.45154 19.6276L4.45154 19.6276ZM4.45154 21.2163C4.45154 22.9283 5.83945 24.3163 7.55154 24.3163V21.3163C7.49631 21.3163 7.45154 21.2715 7.45154 21.2163L4.45154 21.2163ZM7.55154 24.3163H11.677V21.3163H7.55154V24.3163ZM11.677 24.3163C12.9673 24.3163 14.07 23.5284 14.537 22.4134L11.7699 21.2544C11.7628 21.2712 11.7496 21.288 11.732 21.3C11.7168 21.3103 11.6999 21.3163 11.677 21.3163V24.3163ZM13.1534 23.3339H25.7481V20.3339H13.1534V23.3339ZM24.2738 22.1103C24.6479 24.1051 26.3961 25.6147 28.5001 25.6147V22.6147C27.8661 22.6147 27.3353 22.1594 27.2225 21.5575L24.2738 22.1103ZM28.5001 25.6147H32.7425V22.6147H28.5001V25.6147ZM31.2425 24.1147V26.3389H34.2425V24.1147H31.2425ZM31.2425 26.3389C31.2425 26.4617 31.2493 26.5835 31.2626 26.7038L34.2444 26.3741C34.2432 26.3631 34.2425 26.3514 34.2425 26.3389H31.2425ZM32.7535 25.0389H16.8972V28.0389H32.7535V25.0389ZM16.8972 25.0389C15.4276 25.0389 14.1351 26.0108 13.727 27.4226L16.609 28.2556C16.6461 28.1273 16.7636 28.0389 16.8972 28.0389V25.0389ZM13.727 27.4226L13.343 28.7512L16.225 29.5842L16.609 28.2556L13.727 27.4226ZM13.343 28.7512C13.1971 29.2558 13.1766 29.7682 13.2643 30.2536L16.2164 29.7197C16.2095 29.6811 16.2098 29.6367 16.225 29.5842L13.343 28.7512ZM14.4927 28.5073C9.68395 29.3122 6.01944 33.4911 6.01944 38.5289H9.01944C9.01944 34.981 11.6009 32.0331 14.988 31.4661L14.4927 28.5073ZM6.01944 38.5289C6.01944 44.1409 10.5689 48.6903 16.1809 48.6903V45.6903C12.2257 45.6903 9.01944 42.484 9.01944 38.5289H6.01944ZM16.1809 48.6903H45.3992V45.6903H16.1809V48.6903ZM45.3992 48.6903C51.0112 48.6903 55.5606 44.1409 55.5606 38.5289H52.5606C52.5606 42.484 49.3543 45.6903 45.3992 45.6903V48.6903ZM55.5606 38.5289C55.5606 33.6256 52.0893 29.5366 47.4711 28.5791L46.8621 31.5167C50.1158 32.1913 52.5606 35.0763 52.5606 38.5289H55.5606ZM48.6323 30.3665C48.7449 29.8487 48.7336 29.2958 48.5762 28.7512L45.6942 29.5843C45.7104 29.6403 45.7098 29.6878 45.7008 29.7293L48.6323 30.3665ZM48.5762 28.7512L48.1921 27.4226L45.3101 28.2556L45.6942 29.5842L48.5762 28.7512ZM48.1921 27.4226C47.784 26.0107 46.4915 25.0389 45.0219 25.0389V28.0389C45.1555 28.0389 45.273 28.1273 45.3101 28.2556L48.1921 27.4226ZM45.0219 25.0389H43.7974V28.0389H45.0219V25.0389ZM45.2883 26.7037C45.3016 26.5835 45.3084 26.4617 45.3084 26.3389H42.3084C42.3084 26.3513 42.3077 26.363 42.3065 26.3741L45.2883 26.7037ZM45.3084 26.3389V24.1147H42.3084V26.3389H45.3084ZM43.8084 25.6147H44.4668V22.6147H43.8084V25.6147ZM44.4668 25.6147C46.8416 25.6147 48.7668 23.6895 48.7668 21.3147H45.7668C45.7668 22.0327 45.1847 22.6147 44.4668 22.6147V25.6147ZM48.7668 21.3147V18.9556H45.7668V21.3147H48.7668ZM48.7668 18.9556C48.7668 16.8586 47.2671 15.115 45.2823 14.7332L44.7155 17.6791C45.3145 17.7944 45.7668 18.3238 45.7668 18.9556H48.7668ZM43.7028 15.2316C43.7028 15.3665 43.6748 15.491 43.6257 15.6026L46.3721 16.8097C46.5852 16.3249 46.7028 15.79 46.7028 15.2316H43.7028ZM42.7787 14.3076C43.2891 14.3076 43.7028 14.7213 43.7028 15.2316H46.7028C46.7028 13.0645 44.9459 11.3076 42.7787 11.3076V14.3076ZM39.2959 14.3076H42.7787V11.3076H39.2959V14.3076Z" fill="#F8F9FA" mask="url(#path-1-outside-1_50_4788)"/>
<path d="M33.525 26.3607V22.5752C33.525 22.0229 33.9727 21.5752 34.525 21.5752H41.9909C42.5432 21.5752 42.9909 22.0229 42.9909 22.5752V26.3607C42.9909 26.913 42.5432 27.3607 41.9909 27.3607H34.525C33.9727 27.3607 33.525 26.913 33.525 26.3607Z" fill="#087F5B" stroke="#212529" stroke-width="1.6" stroke-linecap="round" stroke-linejoin="round"/>
<rect x="9.59692" y="19.5317" width="20.6037" height="1.82401" rx="0.912006" fill="#0CA678" stroke="#212529" stroke-linejoin="round"/>
<g style="mix-blend-mode:multiply">
<rect x="13.1267" y="19.8066" width="0.721157" height="1.10578" fill="#DEE2E6"/>
</g>
<rect x="12.6597" y="18.6494" width="3.58866" height="6.12547" rx="1" transform="rotate(90 12.6597 18.6494)" fill="#0CA678" stroke="#212529" stroke-width="1.2" stroke-linejoin="round"/>
<rect x="8.302" y="30.689" width="44.9412" height="15.7229" rx="7.86143" fill="#0CA678" stroke="#212529" stroke-width="1.6" stroke-linejoin="round"/>
<rect x="12.6025" y="33.9775" width="36.3402" height="9.14641" rx="4.57321" fill="#087F5B" stroke="#212529" stroke-width="1.2" stroke-linejoin="round"/>
<circle cx="17.0598" cy="38.6668" r="4.4573" fill="#63E6BE" stroke="#212529" stroke-width="1.4" stroke-linejoin="round"/>
<circle cx="30.7726" cy="38.6668" r="4.4573" fill="#63E6BE" stroke="#212529" stroke-width="1.4" stroke-linejoin="round"/>
<circle cx="44.4854" cy="38.6668" r="4.4573" fill="#63E6BE" stroke="#212529" stroke-width="1.4" stroke-linejoin="round"/>
<g style="mix-blend-mode:multiply">
<circle cx="44.4854" cy="38.6663" r="1.09011" fill="#63E6BE"/>
</g>
<g style="mix-blend-mode:multiply">
<circle cx="30.7726" cy="38.6663" r="1.09011" fill="#63E6BE"/>
</g>
<g style="mix-blend-mode:multiply">
<circle cx="17.0602" cy="38.6663" r="1.09011" fill="#63E6BE"/>
</g>
<path d="M26.4827 21.3366V18.9775C26.4827 17.873 27.3781 16.9775 28.4827 16.9775H44.4493C45.5539 16.9775 46.4493 17.873 46.4493 18.9775V21.3366C46.4493 22.4412 45.5539 23.3366 44.4493 23.3366H28.4827C27.3781 23.3366 26.4827 22.4412 26.4827 21.3366Z" fill="#0CA678" stroke="#212529" stroke-width="1.6" stroke-linecap="round" stroke-linejoin="round"/>
<g style="mix-blend-mode:multiply">
<path fill-rule="evenodd" clip-rule="evenodd" d="M26.3602 18.7681V20.95C26.3602 21.5022 26.8079 21.95 27.3602 21.95H43.9974C44.5496 21.95 44.9974 21.5022 44.9974 20.95V17.0962C45.7665 17.3748 46.316 18.1118 46.316 18.9771V21.3362C46.316 22.4408 45.4206 23.3362 44.316 23.3362H28.3494C27.2448 23.3362 26.3494 22.4408 26.3494 21.3362V18.9771C26.3494 18.9065 26.353 18.8368 26.3602 18.7681Z" fill="#DEE2E6"/>
</g>
<path d="M15.5351 29.4113L15.9192 28.0827C16.0428 27.6548 16.4345 27.3604 16.8798 27.3604H45.0045C45.4498 27.3604 45.8415 27.6548 45.9652 28.0827L46.3492 29.4113C46.5341 30.0508 46.0542 30.689 45.3886 30.689H16.4958C15.8301 30.689 15.3503 30.0508 15.5351 29.4113Z" fill="#0CA678" stroke="#212529" stroke-width="1.6" stroke-linecap="round" stroke-linejoin="round"/>
<rect x="37.5544" y="13.5293" width="6.9309" height="3.44806" rx="1.72403" fill="#087F5B" stroke="#212529" stroke-width="1.4" stroke-linejoin="round"/>
<g style="mix-blend-mode:multiply">
<path fill-rule="evenodd" clip-rule="evenodd" d="M8.24084 41.2502C9.34216 44.262 12.2332 46.4118 15.6264 46.4118H44.8447C49.1864 46.4118 52.7061 42.8921 52.7061 38.5503C52.7061 37.0891 52.3075 35.721 51.613 34.5488C51.9208 35.3908 52.0888 36.3002 52.0888 37.2487C52.0888 41.5905 48.5692 45.1102 44.2274 45.1102H15.0091C12.1286 45.1102 9.60991 43.5609 8.24084 41.2502Z" fill="#DEE2E6"/>
</g>
<g style="mix-blend-mode:multiply">
<rect x="41.3174" y="23.7612" width="1.33716" height="3.17391" fill="#DEE2E6"/>
</g>
<g style="mix-blend-mode:multiply">
<path d="M44.4854 28.0205H45.3314L45.7544 30.0288H44.9084L44.4854 28.0205Z" fill="#DEE2E6"/>
</g>
<g style="mix-blend-mode:multiply">
<rect x="43.8318" y="15.6401" width="1.33716" height="5.98588" transform="rotate(90 43.8318 15.6401)" fill="#DEE2E6"/>
</g>
</svg>
