<svg width="60" height="60" viewBox="0 0 60 60" fill="none" xmlns="http://www.w3.org/2000/svg">
<g clip-path="url(#clip0_50_34)">
<mask id="path-1-outside-1_50_34" maskUnits="userSpaceOnUse" x="-2.82843" y="-5.54828" width="69.2965" height="69.2965" fill="black">
<rect fill="white" x="-2.82843" y="-5.54828" width="69.2965" height="69.2965"/>
<path fill-rule="evenodd" clip-rule="evenodd" d="M27.6574 15.5183C17.8133 15.5183 9.83311 23.4985 9.83311 33.3426C9.83311 43.1867 17.8133 51.1669 27.6574 51.1669C37.5015 51.1669 45.4817 43.1867 45.4817 33.3426C45.4817 23.4985 37.5015 15.5183 27.6574 15.5183ZM8.1007 33.3426C8.1007 22.5417 16.8565 13.7859 27.6574 13.7859C38.4583 13.7859 47.2142 22.5417 47.2142 33.3426C47.2142 44.1435 38.4583 52.8993 27.6574 52.8993C16.8565 52.8993 8.1007 44.1435 8.1007 33.3426ZM41.203 14.4093C41.1585 14.1882 41.2276 13.9596 41.3871 13.8001L46.2488 8.93847C46.4252 8.76199 46.6848 8.69753 46.9234 8.77096C47.1619 8.84438 47.3403 9.04365 47.387 9.28882L48.05 12.7706L51.4923 13.3983C51.7388 13.4432 51.9399 13.6212 52.0146 13.8603C52.0892 14.0995 52.025 14.3603 51.8479 14.5374L46.9039 19.4814C46.7457 19.6396 46.5194 19.7089 46.2998 19.6665L42.4052 18.915C42.1604 18.8678 41.9617 18.6893 41.8887 18.4509C41.8396 18.291 41.8526 18.1217 41.9196 17.9743L41.203 14.4093ZM42.5951 14.4977L43.0539 16.7796L46.7399 13.0935L46.3015 10.7913L42.5951 14.4977ZM43.9066 17.8325L46.204 18.2758L49.9864 14.4933L47.6684 14.0707L43.9066 17.8325Z"/>
</mask>
<path fill-rule="evenodd" clip-rule="evenodd" d="M27.6574 15.5183C17.8133 15.5183 9.83311 23.4985 9.83311 33.3426C9.83311 43.1867 17.8133 51.1669 27.6574 51.1669C37.5015 51.1669 45.4817 43.1867 45.4817 33.3426C45.4817 23.4985 37.5015 15.5183 27.6574 15.5183ZM8.1007 33.3426C8.1007 22.5417 16.8565 13.7859 27.6574 13.7859C38.4583 13.7859 47.2142 22.5417 47.2142 33.3426C47.2142 44.1435 38.4583 52.8993 27.6574 52.8993C16.8565 52.8993 8.1007 44.1435 8.1007 33.3426ZM41.203 14.4093C41.1585 14.1882 41.2276 13.9596 41.3871 13.8001L46.2488 8.93847C46.4252 8.76199 46.6848 8.69753 46.9234 8.77096C47.1619 8.84438 47.3403 9.04365 47.387 9.28882L48.05 12.7706L51.4923 13.3983C51.7388 13.4432 51.9399 13.6212 52.0146 13.8603C52.0892 14.0995 52.025 14.3603 51.8479 14.5374L46.9039 19.4814C46.7457 19.6396 46.5194 19.7089 46.2998 19.6665L42.4052 18.915C42.1604 18.8678 41.9617 18.6893 41.8887 18.4509C41.8396 18.291 41.8526 18.1217 41.9196 17.9743L41.203 14.4093ZM42.5951 14.4977L43.0539 16.7796L46.7399 13.0935L46.3015 10.7913L42.5951 14.4977ZM43.9066 17.8325L46.204 18.2758L49.9864 14.4933L47.6684 14.0707L43.9066 17.8325Z" fill="#F8F9FA"/>
<path d="M9.83307 33.3426L8.33307 33.3426L9.83307 33.3426ZM27.6574 15.5183L27.6574 17.0183L27.6574 17.0183L27.6574 15.5183ZM27.6574 51.1669L27.6574 52.6669L27.6574 52.6669L27.6574 51.1669ZM45.4817 33.3426L46.9817 33.3426L46.9817 33.3426L45.4817 33.3426ZM27.6574 13.7859L27.6574 12.2859L27.6574 12.2859L27.6574 13.7859ZM8.10066 33.3426L6.60066 33.3426L6.60066 33.3426L8.10066 33.3426ZM47.2141 33.3426L45.7141 33.3426L45.7141 33.3426L47.2141 33.3426ZM27.6574 52.8993L27.6574 51.3993L27.6574 51.3993L27.6574 52.8993ZM41.2029 14.4093L39.7324 14.7049L39.7324 14.7049L41.2029 14.4093ZM47.3869 9.28883L48.8605 9.00822L48.8605 9.00822L47.3869 9.28883ZM48.05 12.7706L46.5765 13.0512C46.6924 13.6602 47.1711 14.1351 47.7809 14.2463L48.05 12.7706ZM51.4923 13.3983L51.7613 11.9226L51.7613 11.9226L51.4923 13.3983ZM52.0146 13.8603L50.5827 14.3072L50.5827 14.3072L52.0146 13.8603ZM51.8478 14.5374L50.7872 13.4768L51.8478 14.5374ZM46.9038 19.4814L47.9645 20.5421L46.9038 19.4814ZM46.2998 19.6666L46.584 18.1937L46.584 18.1937L46.2998 19.6666ZM42.4051 18.915L42.1209 20.3879L42.1209 20.3879L42.4051 18.915ZM41.8886 18.4509L40.4545 18.8905L40.4545 18.8905L41.8886 18.4509ZM41.9196 17.9743L43.2848 18.5957C43.4155 18.3087 43.4523 17.9879 43.3902 17.6787L41.9196 17.9743ZM43.0538 16.7796L41.5832 17.0752C41.6922 17.6173 42.0906 18.0555 42.6198 18.2154C43.1491 18.3754 43.7235 18.2312 44.1145 17.8402L43.0538 16.7796ZM42.5951 14.4977L41.5344 13.437C41.1794 13.792 41.0256 14.3011 41.1245 14.7933L42.5951 14.4977ZM46.7398 13.0936L47.8005 14.1542C48.1517 13.803 48.3063 13.3008 48.2134 12.8129L46.7398 13.0936ZM46.3014 10.7913L47.7749 10.5107C47.671 9.96486 47.2738 9.52119 46.7427 9.35771C46.2116 9.19424 45.6337 9.33775 45.2408 9.73067L46.3014 10.7913ZM46.2039 18.2758L45.9197 19.7486C46.4086 19.8429 46.9125 19.6885 47.2646 19.3364L46.2039 18.2758ZM43.9066 17.8325L42.8459 16.7718C42.4535 17.1643 42.3098 17.7414 42.4724 18.272C42.6351 18.8027 43.0774 19.2001 43.6224 19.3053L43.9066 17.8325ZM49.9864 14.4933L51.047 15.554C51.4414 15.1596 51.5844 14.5789 51.4183 14.0464C51.2521 13.514 50.8042 13.1177 50.2554 13.0177L49.9864 14.4933ZM47.6684 14.0707L47.9374 12.595C47.4529 12.5067 46.956 12.6618 46.6077 13.01L47.6684 14.0707ZM11.3331 33.3426C11.3331 24.3269 18.6417 17.0183 27.6574 17.0183L27.6574 14.0183C16.9849 14.0183 8.33307 22.6701 8.33307 33.3426L11.3331 33.3426ZM27.6574 49.6669C18.6417 49.6669 11.3331 42.3583 11.3331 33.3426L8.33307 33.3426C8.33307 44.0151 16.9849 52.6669 27.6574 52.6669L27.6574 49.6669ZM43.9817 33.3426C43.9817 42.3583 36.6731 49.6669 27.6574 49.6669L27.6574 52.6669C38.3299 52.6669 46.9817 44.0151 46.9817 33.3426L43.9817 33.3426ZM27.6574 17.0183C36.6731 17.0183 43.9817 24.3269 43.9817 33.3426L46.9817 33.3426C46.9817 22.6701 38.3299 14.0183 27.6574 14.0183L27.6574 17.0183ZM27.6574 12.2859C16.0281 12.2859 6.60066 21.7133 6.60066 33.3426L9.60066 33.3426C9.60066 23.3701 17.6849 15.2859 27.6574 15.2859L27.6574 12.2859ZM48.7141 33.3426C48.7141 21.7133 39.2867 12.2859 27.6574 12.2859L27.6574 15.2859C37.6298 15.2859 45.7141 23.3701 45.7141 33.3426L48.7141 33.3426ZM27.6574 54.3993C39.2867 54.3993 48.7141 44.9719 48.7141 33.3426L45.7141 33.3426C45.7141 43.315 37.6298 51.3993 27.6574 51.3993L27.6574 54.3993ZM6.60066 33.3426C6.60066 44.9719 16.0281 54.3993 27.6574 54.3993L27.6574 51.3993C17.6849 51.3993 9.60066 43.315 9.60066 33.3426L6.60066 33.3426ZM40.3264 12.7395C39.8119 13.254 39.589 13.9917 39.7324 14.7049L42.6735 14.1137C42.728 14.3848 42.6433 14.6653 42.4477 14.8608L40.3264 12.7395ZM45.1881 7.87782L40.3264 12.7395L42.4477 14.8608L47.3094 9.99914L45.1881 7.87782ZM47.3646 7.33735C46.595 7.10044 45.7575 7.30842 45.1881 7.87782L47.3094 9.99914C47.093 10.2156 46.7746 10.2946 46.482 10.2046L47.3646 7.33735ZM48.8605 9.00822C48.7098 8.21718 48.1342 7.57424 47.3646 7.33735L46.482 10.2046C46.1895 10.1145 45.9707 9.87014 45.9134 9.56944L48.8605 9.00822ZM49.5235 12.49L48.8605 9.00822L45.9134 9.56944L46.5765 13.0512L49.5235 12.49ZM51.7613 11.9226L48.3191 11.295L47.7809 14.2463L51.2232 14.8739L51.7613 11.9226ZM53.4464 13.4134C53.2056 12.6418 52.5565 12.0676 51.7613 11.9226L51.2232 14.8739C50.9209 14.8188 50.6742 14.6005 50.5827 14.3072L53.4464 13.4134ZM52.9085 15.5981C53.48 15.0265 53.6873 14.185 53.4464 13.4134L50.5827 14.3072C50.4911 14.0139 50.5699 13.694 50.7872 13.4768L52.9085 15.5981ZM47.9645 20.5421L52.9085 15.5981L50.7872 13.4768L45.8432 18.4208L47.9645 20.5421ZM46.0156 21.1394C46.7241 21.2761 47.4543 21.0523 47.9645 20.5421L45.8432 18.4208C46.0371 18.2268 46.3147 18.1418 46.584 18.1937L46.0156 21.1394ZM42.1209 20.3879L46.0156 21.1394L46.584 18.1937L42.6893 17.4422L42.1209 20.3879ZM40.4545 18.8905C40.6901 19.6595 41.3312 20.2355 42.1209 20.3879L42.6893 17.4422C42.9895 17.5001 43.2332 17.7191 43.3228 18.0114L40.4545 18.8905ZM40.5544 17.3529C40.3382 17.8278 40.2962 18.3742 40.4545 18.8905L43.3228 18.0114C43.383 18.2078 43.3668 18.4156 43.2848 18.5957L40.5544 17.3529ZM39.7324 14.7049L40.449 18.27L43.3902 17.6787L42.6735 14.1137L39.7324 14.7049ZM44.5244 16.484L44.0657 14.202L41.1245 14.7933L41.5832 17.0752L44.5244 16.484ZM45.6792 12.0329L41.9932 15.7189L44.1145 17.8402L47.8005 14.1542L45.6792 12.0329ZM44.8279 11.0719L45.2663 13.3742L48.2134 12.8129L47.7749 10.5107L44.8279 11.0719ZM43.6557 15.5583L47.3621 11.852L45.2408 9.73067L41.5344 13.437L43.6557 15.5583ZM46.4881 16.8029L44.1908 16.3596L43.6224 19.3053L45.9197 19.7486L46.4881 16.8029ZM48.9257 13.4327L45.1433 17.2151L47.2646 19.3364L51.047 15.554L48.9257 13.4327ZM47.3993 15.5464L49.7173 15.969L50.2554 13.0177L47.9374 12.595L47.3993 15.5464ZM44.9672 18.8931L48.729 15.1313L46.6077 13.01L42.8459 16.7718L44.9672 18.8931Z" fill="#F8F9FA" mask="url(#path-1-outside-1_50_34)"/>
<circle cx="27.6577" cy="33.3426" r="18.6905" fill="#91A7FF" stroke="#212529" stroke-width="1.8" stroke-linejoin="round"/>
<circle cx="27.6577" cy="33.3426" r="12.7418" fill="white" stroke="#212529" stroke-width="1.6" stroke-linejoin="round"/>
<circle cx="27.6577" cy="33.3425" r="7.53242" fill="#FF6B6B" stroke="#212529" stroke-width="1.4" stroke-linejoin="round"/>
<circle cx="27.6574" cy="33.3426" r="2.95047" fill="#FFE066" stroke="#212529" stroke-width="1.2" stroke-linejoin="round"/>
<path d="M28.0692 33.1319L47.0786 13.7752" stroke="#212529" stroke-width="1.8" stroke-linecap="round" stroke-linejoin="round"/>
<path d="M41.8637 14.2765L42.6413 18.145L47.4686 13.3178L46.7253 9.41483L41.8637 14.2765Z" fill="#FF6B6B" stroke="#212529" stroke-width="1.4" stroke-linecap="round" stroke-linejoin="round"/>
<path d="M46.4277 19.005L42.533 18.2535L47.442 13.3445L51.3716 14.061L46.4277 19.005Z" fill="#FF6B6B" stroke="#212529" stroke-width="1.4" stroke-linecap="round" stroke-linejoin="round"/>
<g style="mix-blend-mode:multiply">
<path d="M28.063 33.1314L44.6342 39.8692" stroke="#CED4DA" stroke-width="1.8" stroke-linecap="round"/>
</g>
</g>
<defs>
<clipPath id="clip0_50_34">
<rect width="60" height="60" fill="white"/>
</clipPath>
</defs>
</svg>
