<svg width="60" height="60" viewBox="0 0 60 60" fill="none" xmlns="http://www.w3.org/2000/svg">
<mask id="path-1-outside-1_50_10607" maskUnits="userSpaceOnUse" x="5.00525" y="11.6016" width="49" height="37" fill="black">
<rect fill="white" x="5.00525" y="11.6016" width="49" height="37"/>
<path fill-rule="evenodd" clip-rule="evenodd" d="M39.1267 23.8354V18.0793H15.6881C15.6336 18.0793 15.5894 18.1234 15.5894 18.1779L15.5893 18.2169C15.5802 23.6725 15.5855 29.6645 17.6943 34.3066C18.734 36.5953 20.2781 38.5328 22.5854 39.9077C23.2149 40.2828 23.9059 40.6189 24.6652 40.9095H39.85C40.6492 40.5954 41.3699 40.2286 42.0205 39.8175C44.2742 38.3935 45.757 36.3941 46.7355 34.0551C48.6308 29.5244 48.5969 23.8441 48.5673 18.8778V18.8778C48.5659 18.644 48.5645 18.4118 48.5634 18.1813C48.5631 18.1233 48.5162 18.0793 48.4628 18.0793H40.6898L40.6898 23.8354H39.1267ZM43.5496 40.9095C45.8324 39.293 47.352 37.1381 48.3578 34.7337C50.3969 29.8593 50.3581 23.8448 50.3266 18.975C50.3249 18.7038 50.3232 18.4361 50.3218 18.1724C50.3166 17.1513 49.4885 16.3208 48.4628 16.3208H40.6668C40.6234 15.9202 40.5315 15.4889 40.3636 15.0906C40.2039 14.7116 39.9571 14.3198 39.5749 14.0292C39.1785 13.7276 38.6859 13.5735 38.121 13.6058C36.9653 13.6718 36.2964 14.4147 35.9614 15.1725C35.795 15.5488 35.6985 15.9487 35.6487 16.3208H15.6881C14.6636 16.3208 13.8326 17.1504 13.8309 18.175L13.8308 18.214L13.8306 18.3195V18.3196V18.3196C13.8288 19.4051 13.8269 20.5332 13.8443 21.6839C12.7586 21.7413 11.1855 22.1074 9.81271 23.049C8.36558 24.0416 7.15874 25.6698 7.02384 28.1141C6.86893 30.9206 7.68152 33.1945 9.48723 34.6265C11.2544 36.0279 13.7316 36.4272 16.505 36.0568C16.5345 36.0529 16.5636 36.0479 16.5923 36.0418C17.6078 37.9273 18.9977 39.5982 20.8932 40.9095H12.2061C11.127 40.9095 10.2522 41.7842 10.2522 42.8633V43.4669C10.2522 45.0855 11.5644 46.3977 13.1831 46.3977H48.9032C50.5218 46.3977 51.834 45.0855 51.834 43.4669V42.8633C51.834 41.7842 50.9592 40.9095 49.8801 40.9095H43.5496ZM24.9233 42.8633C27.014 43.5348 29.4727 43.8978 32.3582 43.8978C35.1751 43.8978 37.5743 43.5337 39.6128 42.8633H49.8801V43.4669C49.8801 44.0064 49.4427 44.4438 48.9032 44.4438H13.1831C12.6435 44.4438 12.2061 44.0064 12.2061 43.4669V42.8633H24.9233ZM37.391 15.8045C37.3198 15.9657 37.2681 16.1429 37.2325 16.3208H39.0907C39.057 16.1027 39.0029 15.8865 38.9233 15.6979C38.8332 15.4841 38.729 15.3497 38.6286 15.2733C38.5426 15.2079 38.4212 15.1543 38.2102 15.1663C37.8142 15.189 37.5687 15.4026 37.391 15.8045ZM15.587 33.8C14.4694 30.7741 14.0596 27.3639 13.9114 24.0286C13.169 24.0779 12.0659 24.3468 11.1389 24.9826C10.2167 25.6151 9.45499 26.6115 9.36493 28.2433C9.23861 30.5318 9.90244 31.9633 10.9441 32.7894C11.932 33.5728 13.4727 33.9837 15.587 33.8Z"/>
</mask>
<path fill-rule="evenodd" clip-rule="evenodd" d="M39.1267 23.8354V18.0793H15.6881C15.6336 18.0793 15.5894 18.1234 15.5894 18.1779L15.5893 18.2169C15.5802 23.6725 15.5855 29.6645 17.6943 34.3066C18.734 36.5953 20.2781 38.5328 22.5854 39.9077C23.2149 40.2828 23.9059 40.6189 24.6652 40.9095H39.85C40.6492 40.5954 41.3699 40.2286 42.0205 39.8175C44.2742 38.3935 45.757 36.3941 46.7355 34.0551C48.6308 29.5244 48.5969 23.8441 48.5673 18.8778V18.8778C48.5659 18.644 48.5645 18.4118 48.5634 18.1813C48.5631 18.1233 48.5162 18.0793 48.4628 18.0793H40.6898L40.6898 23.8354H39.1267ZM43.5496 40.9095C45.8324 39.293 47.352 37.1381 48.3578 34.7337C50.3969 29.8593 50.3581 23.8448 50.3266 18.975C50.3249 18.7038 50.3232 18.4361 50.3218 18.1724C50.3166 17.1513 49.4885 16.3208 48.4628 16.3208H40.6668C40.6234 15.9202 40.5315 15.4889 40.3636 15.0906C40.2039 14.7116 39.9571 14.3198 39.5749 14.0292C39.1785 13.7276 38.6859 13.5735 38.121 13.6058C36.9653 13.6718 36.2964 14.4147 35.9614 15.1725C35.795 15.5488 35.6985 15.9487 35.6487 16.3208H15.6881C14.6636 16.3208 13.8326 17.1504 13.8309 18.175L13.8308 18.214L13.8306 18.3195V18.3196V18.3196C13.8288 19.4051 13.8269 20.5332 13.8443 21.6839C12.7586 21.7413 11.1855 22.1074 9.81271 23.049C8.36558 24.0416 7.15874 25.6698 7.02384 28.1141C6.86893 30.9206 7.68152 33.1945 9.48723 34.6265C11.2544 36.0279 13.7316 36.4272 16.505 36.0568C16.5345 36.0529 16.5636 36.0479 16.5923 36.0418C17.6078 37.9273 18.9977 39.5982 20.8932 40.9095H12.2061C11.127 40.9095 10.2522 41.7842 10.2522 42.8633V43.4669C10.2522 45.0855 11.5644 46.3977 13.1831 46.3977H48.9032C50.5218 46.3977 51.834 45.0855 51.834 43.4669V42.8633C51.834 41.7842 50.9592 40.9095 49.8801 40.9095H43.5496ZM24.9233 42.8633C27.014 43.5348 29.4727 43.8978 32.3582 43.8978C35.1751 43.8978 37.5743 43.5337 39.6128 42.8633H49.8801V43.4669C49.8801 44.0064 49.4427 44.4438 48.9032 44.4438H13.1831C12.6435 44.4438 12.2061 44.0064 12.2061 43.4669V42.8633H24.9233ZM37.391 15.8045C37.3198 15.9657 37.2681 16.1429 37.2325 16.3208H39.0907C39.057 16.1027 39.0029 15.8865 38.9233 15.6979C38.8332 15.4841 38.729 15.3497 38.6286 15.2733C38.5426 15.2079 38.4212 15.1543 38.2102 15.1663C37.8142 15.189 37.5687 15.4026 37.391 15.8045ZM15.587 33.8C14.4694 30.7741 14.0596 27.3639 13.9114 24.0286C13.169 24.0779 12.0659 24.3468 11.1389 24.9826C10.2167 25.6151 9.45499 26.6115 9.36493 28.2433C9.23861 30.5318 9.90244 31.9633 10.9441 32.7894C11.932 33.5728 13.4727 33.9837 15.587 33.8Z" fill="#F8F9FA"/>
<path d="M39.1267 18.0793H40.6267C40.6267 17.2509 39.9551 16.5793 39.1267 16.5793V18.0793ZM39.1267 23.8354H37.6267C37.6267 24.6638 38.2983 25.3354 39.1267 25.3354V23.8354ZM15.5894 18.1779L17.0894 18.1804L17.0894 18.1804L15.5894 18.1779ZM15.5893 18.2169L17.0893 18.2194L17.0893 18.2194L15.5893 18.2169ZM17.6943 34.3066L16.3286 34.927L16.3286 34.927L17.6943 34.3066ZM22.5854 39.9077L23.3533 38.6192L23.3533 38.6192L22.5854 39.9077ZM24.6652 40.9094L24.129 42.3104C24.3002 42.3759 24.4819 42.4094 24.6652 42.4094V40.9094ZM39.85 40.9094V42.4094C40.0377 42.4094 40.2238 42.3742 40.3986 42.3055L39.85 40.9094ZM42.0205 39.8175L41.2193 38.5494L41.2193 38.5494L42.0205 39.8175ZM46.7355 34.055L48.1193 34.6339L48.1193 34.6339L46.7355 34.055ZM48.5673 18.8778L47.0673 18.8778L47.0673 18.8868L48.5673 18.8778ZM48.5673 18.8778L50.0673 18.8778L50.0673 18.8688L48.5673 18.8778ZM48.5634 18.1813L47.0634 18.1889L47.0634 18.189L48.5634 18.1813ZM40.6898 18.0793V16.5793C40.292 16.5793 39.9104 16.7373 39.6291 17.0186C39.3478 17.3 39.1898 17.6815 39.1898 18.0793L40.6898 18.0793ZM40.6898 23.8354V25.3354C41.0876 25.3354 41.4692 25.1774 41.7505 24.896C42.0318 24.6147 42.1898 24.2332 42.1898 23.8354L40.6898 23.8354ZM48.3578 34.7337L46.974 34.1548L46.974 34.1548L48.3578 34.7337ZM43.5496 40.9094L42.6828 39.6853C42.1497 40.0628 41.9222 40.7418 42.1203 41.3643C42.3183 41.9867 42.8964 42.4094 43.5496 42.4094V40.9094ZM50.3266 18.975L51.8266 18.9653L51.8266 18.9653L50.3266 18.975ZM50.3218 18.1724L51.8218 18.1647L51.8218 18.1647L50.3218 18.1724ZM40.6668 16.3208L39.1755 16.4823C39.258 17.2437 39.9009 17.8208 40.6668 17.8208V16.3208ZM40.3636 15.0906L38.9815 15.6733L38.9815 15.6733L40.3636 15.0906ZM39.5749 14.0292L40.483 12.8353L40.483 12.8353L39.5749 14.0292ZM38.121 13.6058L38.2066 15.1033L38.2066 15.1033L38.121 13.6058ZM35.9614 15.1724L34.5895 14.5659L34.5895 14.5659L35.9614 15.1724ZM35.6487 16.3208V17.8208C36.4001 17.8208 37.0356 17.2648 37.1354 16.5199L35.6487 16.3208ZM13.8309 18.175L12.3309 18.1725L12.3309 18.1725L13.8309 18.175ZM13.8308 18.214L15.3308 18.2165L15.3308 18.2165L13.8308 18.214ZM13.8306 18.3195L12.3306 18.317V18.3195H13.8306ZM13.8306 18.3196L15.3306 18.3222V18.3196H13.8306ZM13.8443 21.6839L13.9236 23.1818C14.7288 23.1391 15.3563 22.4675 15.3441 21.6612L13.8443 21.6839ZM9.81271 23.049L8.96429 21.812L8.96429 21.812L9.81271 23.049ZM7.02384 28.1141L8.52156 28.1967L8.52156 28.1967L7.02384 28.1141ZM9.48723 34.6265L10.4193 33.4512L10.4193 33.4512L9.48723 34.6265ZM16.505 36.0568L16.7035 37.5436L16.7036 37.5436L16.505 36.0568ZM16.5923 36.0418L17.913 35.3305C17.5976 34.745 16.9344 34.4371 16.2835 34.574L16.5923 36.0418ZM20.8932 40.9094V42.4094C21.5494 42.4094 22.1295 41.9829 22.325 41.3564C22.5206 40.73 22.2862 40.0492 21.7466 39.6758L20.8932 40.9094ZM24.9233 42.8633L25.3819 41.4352C25.2337 41.3876 25.079 41.3633 24.9233 41.3633V42.8633ZM39.6128 42.8633V41.3633C39.4536 41.3633 39.2954 41.3887 39.1442 41.4384L39.6128 42.8633ZM49.8801 42.8633H51.3801C51.3801 42.0349 50.7086 41.3633 49.8801 41.3633V42.8633ZM12.2061 42.8633V41.3633C11.3777 41.3633 10.7061 42.0349 10.7061 42.8633H12.2061ZM37.2325 16.3208L35.7616 16.0264C35.6734 16.4671 35.7875 16.9241 36.0724 17.2717C36.3573 17.6193 36.783 17.8208 37.2325 17.8208V16.3208ZM37.391 15.8045L36.0191 15.198L36.0191 15.198L37.391 15.8045ZM39.0907 16.3208V17.8208C39.5286 17.8208 39.9446 17.6295 40.2296 17.2971C40.5145 16.9646 40.64 16.5243 40.5731 16.0916L39.0907 16.3208ZM38.9233 15.6979L40.3055 15.1151L40.3055 15.1151L38.9233 15.6979ZM38.6286 15.2733L39.5367 14.0794L39.5367 14.0794L38.6286 15.2733ZM38.2102 15.1663L38.1246 13.6688L38.1246 13.6688L38.2102 15.1663ZM13.9114 24.0286L15.4099 23.962C15.392 23.5589 15.2124 23.18 14.9117 22.9109C14.611 22.6418 14.2146 22.5052 13.8119 22.5319L13.9114 24.0286ZM15.587 33.8L15.7168 35.2944C16.1828 35.2539 16.6032 34.9984 16.8538 34.6034C17.1043 34.2084 17.1562 33.7191 16.9941 33.2803L15.587 33.8ZM11.1389 24.9826L11.9873 26.2196L11.9873 26.2196L11.1389 24.9826ZM9.36493 28.2433L10.8626 28.3259L10.8626 28.3259L9.36493 28.2433ZM10.9441 32.7894L11.8761 31.6141L11.8761 31.6141L10.9441 32.7894ZM37.6267 18.0793V23.8354H40.6267V18.0793H37.6267ZM15.6881 19.5793H39.1267V16.5793H15.6881V19.5793ZM17.0894 18.1804C17.0881 18.9533 16.4611 19.5793 15.6881 19.5793V16.5793C14.8061 16.5793 14.0908 17.2935 14.0894 18.1754L17.0894 18.1804ZM17.0893 18.2194L17.0894 18.1804L14.0894 18.1754L14.0893 18.2144L17.0893 18.2194ZM19.06 33.6862C17.1123 29.3987 17.08 23.7637 17.0893 18.2194L14.0893 18.2144C14.0803 23.5813 14.0588 29.9303 16.3286 34.927L19.06 33.6862ZM23.3533 38.6192C21.349 37.4248 19.9941 35.7425 19.06 33.6862L16.3286 34.927C17.4739 37.448 19.2071 39.6407 21.8176 41.1963L23.3533 38.6192ZM25.2013 39.5085C24.5193 39.2475 23.906 38.9486 23.3533 38.6192L21.8176 41.1963C22.5237 41.6171 23.2926 41.9903 24.129 42.3104L25.2013 39.5085ZM24.6652 42.4094H39.85V39.4094H24.6652V42.4094ZM41.2193 38.5494C40.6515 38.9082 40.0157 39.2327 39.3014 39.5134L40.3986 42.3055C41.2826 41.9582 42.0883 41.549 42.8218 41.0856L41.2193 38.5494ZM45.3517 33.4762C44.4685 35.5875 43.1653 37.3198 41.2193 38.5494L42.8218 41.0856C45.3831 39.4672 47.0456 37.2007 48.1193 34.6339L45.3517 33.4762ZM47.0673 18.8868C47.0974 23.9332 47.1063 29.2818 45.3517 33.4762L48.1193 34.6339C50.1553 29.767 50.0964 23.7551 50.0673 18.8689L47.0673 18.8868ZM47.0673 18.8778V18.8778H50.0673V18.8778H47.0673ZM47.0634 18.189C47.0646 18.4202 47.0659 18.653 47.0673 18.8867L50.0673 18.8688C50.0659 18.6349 50.0645 18.4033 50.0633 18.1737L47.0634 18.189ZM48.4628 19.5793C47.697 19.5793 47.0673 18.9626 47.0634 18.1889L50.0633 18.1737C50.0588 17.284 49.3354 16.5793 48.4628 16.5793V19.5793ZM40.6898 19.5793H48.4628V16.5793H40.6898V19.5793ZM42.1898 23.8354L42.1898 18.0793L39.1898 18.0793L39.1898 23.8354L42.1898 23.8354ZM39.1267 25.3354H40.6898V22.3354H39.1267V25.3354ZM46.974 34.1548C46.055 36.3518 44.6943 38.2609 42.6828 39.6853L44.4165 42.1336C46.9705 40.3251 48.649 37.9245 49.7416 35.3126L46.974 34.1548ZM48.8267 18.9847C48.8586 23.926 48.8732 29.6147 46.974 34.1548L49.7416 35.3126C51.9205 30.104 51.8576 23.7636 51.8266 18.9653L48.8267 18.9847ZM48.8219 18.18C48.8232 18.4449 48.8249 18.7136 48.8267 18.9847L51.8266 18.9653C51.8249 18.6939 51.8231 18.4273 51.8218 18.1647L48.8219 18.18ZM48.4628 17.8208C48.6586 17.8208 48.8208 17.9799 48.8219 18.18L51.8218 18.1647C51.8124 16.3227 50.3184 14.8208 48.4628 14.8208V17.8208ZM40.6668 17.8208H48.4628V14.8208H40.6668V17.8208ZM38.9815 15.6733C39.0781 15.9025 39.1432 16.1837 39.1755 16.4823L42.1581 16.1594C42.1037 15.6566 41.985 15.0752 41.7458 14.5079L38.9815 15.6733ZM38.6668 15.2231C38.7784 15.3079 38.8884 15.4526 38.9815 15.6733L41.7458 14.5079C41.5193 13.9706 41.1357 13.3318 40.483 12.8353L38.6668 15.2231ZM38.2066 15.1033C38.4322 15.0904 38.5685 15.1483 38.6669 15.2231L40.483 12.8353C39.7884 12.307 38.9396 12.0566 38.0355 12.1082L38.2066 15.1033ZM37.3333 15.7789C37.4283 15.5641 37.5507 15.3989 37.6821 15.2916C37.7976 15.1973 37.9536 15.1178 38.2066 15.1033L38.0355 12.1082C36.1451 12.2162 35.0725 13.4733 34.5895 14.5659L37.3333 15.7789ZM37.1354 16.5199C37.171 16.2538 37.2368 15.9972 37.3333 15.7789L34.5895 14.5659C34.3532 15.1003 34.226 15.6435 34.1619 16.1217L37.1354 16.5199ZM15.6881 17.8208H35.6487V14.8208H15.6881V17.8208ZM15.3309 18.1775C15.3312 17.9804 15.491 17.8208 15.6881 17.8208V14.8208C13.8361 14.8208 12.334 16.3204 12.3309 18.1725L15.3309 18.1775ZM15.3308 18.2165L15.3309 18.1775L12.3309 18.1725L12.3308 18.2115L15.3308 18.2165ZM15.3306 18.322L15.3308 18.2165L12.3308 18.2115L12.3306 18.317L15.3306 18.322ZM15.3306 18.3196V18.3195H12.3306V18.3196H15.3306ZM15.3306 18.3196V18.3196H12.3306V18.3196H15.3306ZM15.3441 21.6612C15.3269 20.5251 15.3288 19.4094 15.3306 18.3222L12.3306 18.3171C12.3288 19.4008 12.3268 20.5412 12.3445 21.7065L15.3441 21.6612ZM10.6611 24.286C11.7618 23.5311 13.0537 23.2278 13.9236 23.1818L13.765 20.186C12.4635 20.2548 10.6093 20.6837 8.96429 21.812L10.6611 24.286ZM8.52156 28.1967C8.62773 26.2731 9.5491 25.0487 10.6611 24.286L8.96429 21.812C7.18206 23.0344 5.68976 25.0666 5.52612 28.0314L8.52156 28.1967ZM10.4193 33.4512C9.10367 32.4079 8.38483 30.674 8.52156 28.1967L5.52612 28.0314C5.35304 31.1672 6.25937 33.9811 8.5552 35.8018L10.4193 33.4512ZM16.3064 34.57C13.7521 34.9111 11.7463 34.5036 10.4193 33.4512L8.5552 35.8018C10.7625 37.5522 13.7112 37.9432 16.7035 37.5436L16.3064 34.57ZM16.2835 34.574C16.2912 34.5723 16.2988 34.571 16.3064 34.57L16.7036 37.5436C16.7702 37.5347 16.8361 37.5234 16.9011 37.5097L16.2835 34.574ZM21.7466 39.6758C20.0683 38.5149 18.8298 37.0328 17.913 35.3305L15.2717 36.7531C16.3858 38.8217 17.927 40.6815 20.0398 42.143L21.7466 39.6758ZM12.2061 42.4094H20.8932V39.4094H12.2061V42.4094ZM11.7522 42.8633C11.7522 42.6127 11.9554 42.4094 12.2061 42.4094V39.4094C10.2986 39.4094 8.75224 40.9558 8.75224 42.8633H11.7522ZM11.7522 43.4669V42.8633H8.75224V43.4669H11.7522ZM13.1831 44.8977C12.3928 44.8977 11.7522 44.2571 11.7522 43.4669H8.75224C8.75224 45.9139 10.736 47.8977 13.1831 47.8977V44.8977ZM48.9032 44.8977H13.1831V47.8977H48.9032V44.8977ZM50.334 43.4669C50.334 44.2571 49.6934 44.8977 48.9032 44.8977V47.8977C51.3503 47.8977 53.334 45.914 53.334 43.4669H50.334ZM50.334 42.8633V43.4669H53.334V42.8633H50.334ZM49.8801 42.4094C50.1308 42.4094 50.334 42.6127 50.334 42.8633H53.334C53.334 40.9558 51.7877 39.4094 49.8801 39.4094V42.4094ZM43.5496 42.4094H49.8801V39.4094H43.5496V42.4094ZM32.3582 42.3978C29.5965 42.3978 27.2968 42.0501 25.3819 41.4352L24.4646 44.2915C26.7312 45.0194 29.349 45.3978 32.3582 45.3978V42.3978ZM39.1442 41.4384C37.2844 42.05 35.0477 42.3978 32.3582 42.3978V45.3978C35.3026 45.3978 37.8642 45.0173 40.0813 44.2883L39.1442 41.4384ZM49.8801 41.3633H39.6128V44.3633H49.8801V41.3633ZM51.3801 43.4669V42.8633H48.3801V43.4669H51.3801ZM48.9032 45.9438C50.2712 45.9438 51.3801 44.8349 51.3801 43.4669H48.3801C48.3801 43.178 48.6143 42.9438 48.9032 42.9438V45.9438ZM13.1831 45.9438H48.9032V42.9438H13.1831V45.9438ZM10.7061 43.4669C10.7061 44.8349 11.8151 45.9438 13.1831 45.9438V42.9438C13.4719 42.9438 13.7061 43.178 13.7061 43.4669H10.7061ZM10.7061 42.8633V43.4669H13.7061V42.8633H10.7061ZM24.9233 41.3633H12.2061V44.3633H24.9233V41.3633ZM38.7033 16.6152C38.7227 16.5183 38.7456 16.4502 38.7629 16.411L36.0191 15.198C35.8939 15.4811 35.8135 15.7674 35.7616 16.0264L38.7033 16.6152ZM39.0907 14.8208H37.2325V17.8208H39.0907V14.8208ZM37.5411 16.2806C37.5598 16.3249 37.5874 16.4148 37.6084 16.5501L40.5731 16.0916C40.5266 15.7906 40.4459 15.4482 40.3055 15.1151L37.5411 16.2806ZM37.7205 16.4672C37.633 16.4006 37.5824 16.3384 37.5588 16.3053C37.5349 16.2718 37.5321 16.2592 37.5411 16.2806L40.3055 15.1151C40.1481 14.7418 39.9069 14.3609 39.5367 14.0794L37.7205 16.4672ZM38.2958 16.6639C38.257 16.6661 38.1632 16.6656 38.0387 16.6285C37.9079 16.5896 37.7996 16.5273 37.7206 16.4672L39.5367 14.0794C39.1537 13.788 38.6763 13.6373 38.1246 13.6688L38.2958 16.6639ZM38.7629 16.411C38.7925 16.344 38.773 16.4207 38.6558 16.5145C38.5951 16.563 38.5245 16.6028 38.4506 16.6296C38.3787 16.6556 38.323 16.6623 38.2958 16.6639L38.1246 13.6688C37.6561 13.6956 37.1876 13.8472 36.7817 14.1719C36.3983 14.4786 36.1672 14.863 36.0191 15.198L38.7629 16.411ZM12.4129 24.0952C12.5636 27.4885 12.983 31.0791 14.1799 34.3197L16.9941 33.2803C15.9558 30.4691 15.5555 27.2393 15.4099 23.962L12.4129 24.0952ZM11.9873 26.2196C12.6468 25.7672 13.4757 25.5609 14.0108 25.5253L13.8119 22.5319C12.8624 22.595 11.4849 22.9263 10.2905 23.7456L11.9873 26.2196ZM10.8626 28.3259C10.9241 27.2127 11.4021 26.6209 11.9873 26.2196L10.2905 23.7456C9.03127 24.6092 7.98589 26.0103 7.86721 28.1606L10.8626 28.3259ZM11.8761 31.6141C11.3214 31.1741 10.7548 30.2799 10.8626 28.3259L7.86721 28.1606C7.72243 30.7836 8.48352 32.7525 10.0121 33.9646L11.8761 31.6141ZM15.4572 32.3057C13.5716 32.4695 12.4619 32.0786 11.8761 31.6141L10.0121 33.9646C11.4021 35.0669 13.3738 35.4979 15.7168 35.2944L15.4572 32.3057Z" fill="#F8F9FA" mask="url(#path-1-outside-1_50_10607)"/>
<path d="M48.4235 17.248H15.6949C15.1426 17.248 14.6947 17.6954 14.6938 18.2477L14.6938 18.2634C14.6758 29.0719 14.6524 43.0666 32.342 43.0666C50.0005 43.0666 49.4787 28.3713 49.4265 18.2476C49.4236 17.6953 48.9758 17.248 48.4235 17.248Z" fill="#F1F3F5" stroke="#212529" stroke-width="1.8" stroke-linejoin="round"/>
<path d="M13.9432 22.9004C12.1152 22.9776 8.40308 24.151 8.17811 28.227C7.89689 33.322 11.1309 35.638 16.3335 34.9432" stroke="#212529" stroke-width="2.4" stroke-linecap="round" stroke-linejoin="round"/>
<path d="M39.8919 23.8839L39.8919 17.2487C39.9576 16.2737 39.7011 14.3459 38.1493 14.4346C36.5975 14.5233 36.3204 16.3476 36.3758 17.2487" stroke="#212529" stroke-width="1.6" stroke-linejoin="round"/>
<path d="M36.9122 25.3198C36.9122 24.9714 37.0936 24.6481 37.3909 24.4664L39.3693 23.2576C39.6883 23.0628 40.0892 23.062 40.4089 23.2557L42.4083 24.467C42.7074 24.6482 42.8901 24.9725 42.8901 25.3222V29.7368C42.8901 30.2891 42.4424 30.7368 41.8901 30.7368H37.9122C37.3599 30.7368 36.9122 30.2891 36.9122 29.7368V25.3198Z" fill="#FFD43B" stroke="#212529" stroke-width="1.6" stroke-linejoin="round"/>
<path d="M11.2129 42.9346C11.2129 42.3823 11.6606 41.9346 12.2129 41.9346H49.8408C50.3931 41.9346 50.8408 42.3823 50.8408 42.9346V43.4689C50.8408 44.5735 49.9453 45.4689 48.8408 45.4689H13.2129C12.1083 45.4689 11.2129 44.5735 11.2129 43.4689V42.9346Z" fill="#F1F3F5" stroke="#212529" stroke-width="2" stroke-linecap="round" stroke-linejoin="round"/>
<g style="mix-blend-mode:multiply">
<path d="M48.9141 17.7168H46.7493C46.9191 19.2873 47.1568 23.2837 46.7493 28.9885C46.3418 34.6932 43.8321 38.2787 39.9548 41.0043C46.5127 39.0306 47.577 33.5704 48.4684 29.5592C49.1815 26.3503 49.0626 20.3272 48.9141 17.7168Z" fill="#DEE2E6"/>
</g>
</svg>
