<svg width="60" height="60" viewBox="0 0 60 60" fill="none" xmlns="http://www.w3.org/2000/svg">
<mask id="path-1-outside-1_50_10945" maskUnits="userSpaceOnUse" x="14.4402" y="6.08789" width="31" height="47" fill="black">
<rect fill="white" x="14.4402" y="6.08789" width="31" height="47"/>
<path fill-rule="evenodd" clip-rule="evenodd" d="M28.3369 11.9352C28.3369 10.8863 29.1225 10.036 30.0916 10.036C31.0607 10.036 31.8463 10.8863 31.8463 11.9352V14.8501C31.8463 14.8543 31.8463 14.8585 31.8463 14.8627V26.7005L28.3369 26.236V11.9352ZM27.0061 10.0235C26.3656 9.40162 25.4919 9.01926 24.53 9.01926C22.5799 9.01926 20.994 10.5904 20.9756 12.5404L20.8587 24.9772C20.796 24.9969 20.7345 25.0237 20.6752 25.0581C19.2263 25.8989 18.1853 27.2808 17.6061 28.148C16.3981 29.9566 16.2776 32.0012 16.581 33.8471C16.8835 35.6869 17.6196 37.4146 18.233 38.6876C19.4959 41.3085 21.4483 43.7378 23.6851 45.4965C23.7385 45.5386 23.7929 45.5795 23.8481 45.6192V47.6865C23.8481 48.9333 24.6642 50.0971 25.9695 50.3706C27.1841 50.6251 29.0893 50.9239 31.5017 50.9758C34.1304 51.0323 36.2735 50.5954 37.5678 50.2373C38.7834 49.9009 39.4915 48.7831 39.4915 47.6242V45.4697C40.6113 44.7195 41.5094 43.6189 41.9835 42.0203C42.9582 38.7335 43.3408 35.2464 43.4827 32.5999C43.5539 31.2726 43.5649 30.1476 43.5581 29.3527C43.5548 28.9551 43.5469 28.6396 43.5398 28.4222C43.5363 28.3134 43.5329 28.2292 43.5304 28.1714L43.5274 28.1054V26.1589C43.5274 24.3994 42.1011 22.9731 40.3416 22.9731C39.8449 22.9731 39.3748 23.0868 38.9558 23.2895V14.8627C38.9558 12.8995 37.3643 11.308 35.401 11.308C34.7616 11.308 34.1616 11.4768 33.6432 11.7724C33.5644 9.72308 32.0044 8.08789 30.0916 8.08789C28.7713 8.08789 27.6191 8.86696 27.0061 10.0235ZM33.6463 26.9387V14.8537C33.6512 13.8887 34.435 13.108 35.401 13.108C36.3702 13.108 37.1558 13.8936 37.1558 14.8627V27.4032L33.6463 26.9387ZM33.6463 27.1704V27.0377L37.1558 27.5317V27.5444L33.6463 27.1704ZM28.3369 26.6047V26.2902L31.8463 26.7843V26.9787L28.3369 26.6047ZM24.53 10.8193C23.5675 10.8193 22.7846 11.5948 22.7756 12.5573L22.654 25.4838L26.4929 25.9919L26.2843 12.5466C26.2695 11.5883 25.4884 10.8193 24.53 10.8193ZM22.6539 25.4901L22.6492 25.9987L26.4994 26.4089L26.4935 26.0307L22.6539 25.4901ZM41.7274 28.0083V26.1589C41.7274 25.3935 41.1069 24.7731 40.3416 24.7731C39.5763 24.7731 38.9558 25.3935 38.9558 26.1589V27.6414L41.7274 28.0083ZM25.6481 46.4802C26.037 46.599 26.4494 46.6935 26.8834 46.7691C28.1464 46.989 29.6601 47.059 31.4323 47.059C33.3677 47.059 35.6147 47.0149 37.5474 46.3912C37.5956 46.3756 37.6436 46.3597 37.6915 46.3434V47.6242C37.6915 48.0785 37.427 48.4086 37.0878 48.5025C35.9177 48.8262 33.953 49.2281 31.5404 49.1762C29.2552 49.1271 27.4614 48.8441 26.3386 48.6088C25.9507 48.5275 25.6481 48.1699 25.6481 47.6865V46.4802Z"/>
</mask>
<path fill-rule="evenodd" clip-rule="evenodd" d="M28.3369 11.9352C28.3369 10.8863 29.1225 10.036 30.0916 10.036C31.0607 10.036 31.8463 10.8863 31.8463 11.9352V14.8501C31.8463 14.8543 31.8463 14.8585 31.8463 14.8627V26.7005L28.3369 26.236V11.9352ZM27.0061 10.0235C26.3656 9.40162 25.4919 9.01926 24.53 9.01926C22.5799 9.01926 20.994 10.5904 20.9756 12.5404L20.8587 24.9772C20.796 24.9969 20.7345 25.0237 20.6752 25.0581C19.2263 25.8989 18.1853 27.2808 17.6061 28.148C16.3981 29.9566 16.2776 32.0012 16.581 33.8471C16.8835 35.6869 17.6196 37.4146 18.233 38.6876C19.4959 41.3085 21.4483 43.7378 23.6851 45.4965C23.7385 45.5386 23.7929 45.5795 23.8481 45.6192V47.6865C23.8481 48.9333 24.6642 50.0971 25.9695 50.3706C27.1841 50.6251 29.0893 50.9239 31.5017 50.9758C34.1304 51.0323 36.2735 50.5954 37.5678 50.2373C38.7834 49.9009 39.4915 48.7831 39.4915 47.6242V45.4697C40.6113 44.7195 41.5094 43.6189 41.9835 42.0203C42.9582 38.7335 43.3408 35.2464 43.4827 32.5999C43.5539 31.2726 43.5649 30.1476 43.5581 29.3527C43.5548 28.9551 43.5469 28.6396 43.5398 28.4222C43.5363 28.3134 43.5329 28.2292 43.5304 28.1714L43.5274 28.1054V26.1589C43.5274 24.3994 42.1011 22.9731 40.3416 22.9731C39.8449 22.9731 39.3748 23.0868 38.9558 23.2895V14.8627C38.9558 12.8995 37.3643 11.308 35.401 11.308C34.7616 11.308 34.1616 11.4768 33.6432 11.7724C33.5644 9.72308 32.0044 8.08789 30.0916 8.08789C28.7713 8.08789 27.6191 8.86696 27.0061 10.0235ZM33.6463 26.9387V14.8537C33.6512 13.8887 34.435 13.108 35.401 13.108C36.3702 13.108 37.1558 13.8936 37.1558 14.8627V27.4032L33.6463 26.9387ZM33.6463 27.1704V27.0377L37.1558 27.5317V27.5444L33.6463 27.1704ZM28.3369 26.6047V26.2902L31.8463 26.7843V26.9787L28.3369 26.6047ZM24.53 10.8193C23.5675 10.8193 22.7846 11.5948 22.7756 12.5573L22.654 25.4838L26.4929 25.9919L26.2843 12.5466C26.2695 11.5883 25.4884 10.8193 24.53 10.8193ZM22.6539 25.4901L22.6492 25.9987L26.4994 26.4089L26.4935 26.0307L22.6539 25.4901ZM41.7274 28.0083V26.1589C41.7274 25.3935 41.1069 24.7731 40.3416 24.7731C39.5763 24.7731 38.9558 25.3935 38.9558 26.1589V27.6414L41.7274 28.0083ZM25.6481 46.4802C26.037 46.599 26.4494 46.6935 26.8834 46.7691C28.1464 46.989 29.6601 47.059 31.4323 47.059C33.3677 47.059 35.6147 47.0149 37.5474 46.3912C37.5956 46.3756 37.6436 46.3597 37.6915 46.3434V47.6242C37.6915 48.0785 37.427 48.4086 37.0878 48.5025C35.9177 48.8262 33.953 49.2281 31.5404 49.1762C29.2552 49.1271 27.4614 48.8441 26.3386 48.6088C25.9507 48.5275 25.6481 48.1699 25.6481 47.6865V46.4802Z" fill="#F8F9FA"/>
<path d="M31.8463 14.8501L33.3463 14.8552V14.8501H31.8463ZM31.8463 26.7005L31.6495 28.1875C32.0779 28.2442 32.5099 28.1134 32.8349 27.8286C33.1599 27.5438 33.3463 27.1326 33.3463 26.7005H31.8463ZM28.3369 26.236H26.8369C26.8369 26.9883 27.3942 27.6243 28.1401 27.723L28.3369 26.236ZM27.0061 10.0235L25.9611 11.0997C26.2998 11.4285 26.7734 11.5787 27.2396 11.5052C27.7059 11.4317 28.1103 11.1431 28.3314 10.726L27.0061 10.0235ZM20.9756 12.5404L22.4756 12.5545L22.4756 12.5545L20.9756 12.5404ZM20.8587 24.9772L21.307 26.4086C21.9278 26.2142 22.3525 25.6418 22.3586 24.9913L20.8587 24.9772ZM20.6752 25.0581L19.9223 23.7607L19.9223 23.7607L20.6752 25.0581ZM17.6061 28.148L18.8535 28.9811L18.8535 28.9811L17.6061 28.148ZM16.581 33.8471L18.0612 33.6038L18.0612 33.6038L16.581 33.8471ZM18.233 38.6876L19.5843 38.0365L19.5843 38.0365L18.233 38.6876ZM23.6851 45.4965L24.6123 44.3174L24.6122 44.3174L23.6851 45.4965ZM23.8481 45.6192H25.3481C25.3481 45.137 25.1162 44.6842 24.725 44.4022L23.8481 45.6192ZM25.9695 50.3706L26.2771 48.9025L26.2771 48.9025L25.9695 50.3706ZM31.5017 50.9758L31.534 49.4762L31.534 49.4762L31.5017 50.9758ZM37.5678 50.2373L37.9678 51.683L37.9678 51.683L37.5678 50.2373ZM39.4915 45.4697L38.6567 44.2234C38.241 44.5019 37.9915 44.9693 37.9915 45.4697H39.4915ZM41.9835 42.0203L40.5454 41.5938L40.5454 41.5938L41.9835 42.0203ZM43.4827 32.5999L41.9848 32.5196L41.9848 32.5196L43.4827 32.5999ZM43.5581 29.3527L42.0582 29.3655L42.0582 29.3655L43.5581 29.3527ZM43.5398 28.4222L42.0406 28.471L42.0406 28.471L43.5398 28.4222ZM43.5304 28.1714L45.029 28.1065L45.0288 28.103L43.5304 28.1714ZM43.5274 28.1054H42.0274C42.0274 28.1282 42.0279 28.151 42.0289 28.1738L43.5274 28.1054ZM38.9558 23.2895H37.4558C37.4558 23.8059 37.7214 24.286 38.1589 24.5603C38.5964 24.8347 39.1443 24.8647 39.6091 24.6398L38.9558 23.2895ZM33.6432 11.7724L32.1443 11.83C32.1645 12.3538 32.4565 12.829 32.9147 13.0836C33.3729 13.3381 33.9307 13.3351 34.386 13.0755L33.6432 11.7724ZM33.6463 14.8537L32.1463 14.8461V14.8537H33.6463ZM33.6463 26.9387H32.1463C32.1463 27.6911 32.7037 28.327 33.4495 28.4257L33.6463 26.9387ZM37.1558 27.4032L36.959 28.8902C37.3874 28.9469 37.8194 28.8161 38.1444 28.5313C38.4694 28.2465 38.6558 27.8353 38.6558 27.4032H37.1558ZM33.6463 27.0377L33.8554 25.5523C33.4254 25.4918 32.9902 25.6206 32.6624 25.9055C32.3346 26.1904 32.1463 26.6034 32.1463 27.0377H33.6463ZM33.6463 27.1704H32.1463C32.1463 27.9374 32.7248 28.5807 33.4874 28.662L33.6463 27.1704ZM37.1558 27.5317H38.6558C38.6558 26.7841 38.1052 26.1506 37.3649 26.0464L37.1558 27.5317ZM37.1558 27.5444L36.9969 29.0359C37.4199 29.081 37.8423 28.9443 38.1587 28.6598C38.4751 28.3753 38.6558 27.9699 38.6558 27.5444H37.1558ZM28.3369 26.2902L28.546 24.8048C28.1159 24.7443 27.6807 24.8731 27.3529 25.158C27.0251 25.4429 26.8369 25.8559 26.8369 26.2902H28.3369ZM28.3369 26.6047H26.8369C26.8369 27.3716 27.4153 28.015 28.1779 28.0963L28.3369 26.6047ZM31.8463 26.7843H33.3463C33.3463 26.0366 32.7958 25.4031 32.0554 25.2989L31.8463 26.7843ZM31.8463 26.9787L31.6874 28.4702C32.1105 28.5153 32.5328 28.3786 32.8492 28.0941C33.1656 27.8096 33.3463 27.4041 33.3463 26.9787H31.8463ZM22.7756 12.5573L21.2756 12.5432L21.2756 12.5432L22.7756 12.5573ZM22.654 25.4838L21.1541 25.4697C21.1469 26.2274 21.706 26.8715 22.4572 26.9709L22.654 25.4838ZM26.4929 25.9919L26.2961 27.479C26.7285 27.5362 27.1644 27.4024 27.4902 27.1123C27.8161 26.8223 27.9995 26.4048 27.9927 25.9687L26.4929 25.9919ZM26.2843 12.5466L27.7841 12.5233L27.7841 12.5233L26.2843 12.5466ZM22.6492 25.9987L21.1492 25.9846C21.142 26.7569 21.7223 27.4084 22.4902 27.4903L22.6492 25.9987ZM22.6539 25.4901L22.8631 24.0048C22.4354 23.9446 22.0026 24.0716 21.6753 24.3534C21.348 24.6351 21.1581 25.0442 21.154 25.476L22.6539 25.4901ZM26.4994 26.4089L26.3404 27.9005C26.7676 27.946 27.1937 27.8062 27.5109 27.5166C27.8281 27.2269 28.0058 26.8152 27.9992 26.3857L26.4994 26.4089ZM26.4935 26.0307L27.9933 26.0074C27.9819 25.2687 27.4342 24.6483 26.7026 24.5453L26.4935 26.0307ZM41.7274 28.0083L41.5306 29.4953C41.959 29.552 42.391 29.4212 42.716 29.1364C43.041 28.8515 43.2274 28.4404 43.2274 28.0083H41.7274ZM38.9558 27.6414H37.4558C37.4558 28.3938 38.0132 29.0298 38.759 29.1285L38.9558 27.6414ZM26.8834 46.7691L27.1407 45.2913L27.1407 45.2913L26.8834 46.7691ZM25.6481 46.4802L26.0861 45.0456C25.6314 44.9068 25.1377 44.9917 24.7556 45.2746C24.3735 45.5575 24.1481 46.0048 24.1481 46.4802H25.6481ZM37.5474 46.3912L38.0081 47.8187L38.0081 47.8187L37.5474 46.3912ZM37.6915 46.3434H39.1915C39.1915 45.8594 38.958 45.4053 38.5645 45.1236C38.171 44.842 37.6658 44.7675 37.2077 44.9235L37.6915 46.3434ZM37.0878 48.5025L36.6877 47.0568L36.6877 47.0568L37.0878 48.5025ZM31.5404 49.1762L31.5727 47.6766L31.5727 47.6766L31.5404 49.1762ZM26.3386 48.6088L26.031 50.0769L26.031 50.0769L26.3386 48.6088ZM30.0916 8.53605C28.1846 8.53605 26.8369 10.1718 26.8369 11.9352H29.8369C29.8369 11.7873 29.8916 11.6762 29.9525 11.6102C30.0116 11.5463 30.0615 11.536 30.0916 11.536V8.53605ZM33.3463 11.9352C33.3463 10.1718 31.9986 8.53605 30.0916 8.53605V11.536C30.1217 11.536 30.1716 11.5463 30.2307 11.6102C30.2916 11.6762 30.3463 11.7873 30.3463 11.9352H33.3463ZM33.3463 14.8501V11.9352H30.3463V14.8501H33.3463ZM33.3463 14.8627C33.3463 14.8603 33.3463 14.8578 33.3463 14.8552L30.3463 14.845C30.3463 14.8508 30.3463 14.8567 30.3463 14.8627H33.3463ZM33.3463 26.7005V14.8627H30.3463V26.7005H33.3463ZM28.1401 27.723L31.6495 28.1875L32.0431 25.2134L28.5337 24.749L28.1401 27.723ZM26.8369 11.9352V26.236H29.8369V11.9352H26.8369ZM24.53 10.5193C25.0864 10.5193 25.5894 10.7388 25.9611 11.0997L28.051 8.94736C27.1417 8.06448 25.8973 7.51926 24.53 7.51926V10.5193ZM22.4756 12.5545C22.4862 11.4274 23.4029 10.5193 24.53 10.5193V7.51926C21.757 7.51926 19.5018 9.75339 19.4757 12.5263L22.4756 12.5545ZM22.3586 24.9913L22.4756 12.5545L19.4757 12.5263L19.3588 24.9631L22.3586 24.9913ZM21.4281 26.3554C21.3905 26.3773 21.3498 26.3953 21.307 26.4086L20.4104 23.5458C20.2422 23.5985 20.0784 23.6701 19.9223 23.7607L21.4281 26.3554ZM18.8535 28.9811C19.4027 28.1589 20.2872 27.0176 21.4281 26.3554L19.9223 23.7607C18.1654 24.7803 16.968 26.4028 16.3588 27.3148L18.8535 28.9811ZM18.0612 33.6038C17.7945 31.9813 17.929 30.3652 18.8535 28.9811L16.3588 27.3148C14.8672 29.548 14.7607 32.021 15.1009 34.0904L18.0612 33.6038ZM19.5843 38.0365C18.99 36.8032 18.3285 35.2297 18.0612 33.6038L15.1009 34.0904C15.4385 36.1442 16.2491 38.026 16.8817 39.3387L19.5843 38.0365ZM24.6122 44.3174C22.557 42.7014 20.7489 40.4533 19.5843 38.0365L16.8817 39.3387C18.2429 42.1636 20.3396 44.7742 22.758 46.6757L24.6122 44.3174ZM24.725 44.4022C24.6866 44.3746 24.649 44.3463 24.6123 44.3174L22.7579 46.6757C22.8281 46.7309 22.8992 46.7843 22.9712 46.8362L24.725 44.4022ZM25.3481 47.6865V45.6192H22.3481V47.6865H25.3481ZM26.2771 48.9025C25.741 48.7901 25.3481 48.3024 25.3481 47.6865H22.3481C22.3481 49.5642 23.5873 51.404 25.6619 51.8387L26.2771 48.9025ZM31.534 49.4762C29.2276 49.4266 27.4152 49.1409 26.2771 48.9025L25.6619 51.8387C26.9529 52.1092 28.9511 52.4213 31.4695 52.4755L31.534 49.4762ZM37.1678 48.7916C35.977 49.1211 33.9825 49.5288 31.534 49.4762L31.4695 52.4755C34.2782 52.5359 36.5701 52.0697 37.9678 51.683L37.1678 48.7916ZM37.9915 47.6242C37.9915 48.2016 37.6481 48.6587 37.1678 48.7916L37.9678 51.683C39.9187 51.1431 40.9915 49.3647 40.9915 47.6242H37.9915ZM37.9915 45.4697V47.6242H40.9915V45.4697H37.9915ZM40.5454 41.5938C40.1742 42.8453 39.4965 43.6608 38.6567 44.2234L40.3263 46.7159C41.7261 45.7782 42.8445 44.3925 43.4216 42.4468L40.5454 41.5938ZM41.9848 32.5196C41.8461 35.1072 41.4733 38.4646 40.5454 41.5938L43.4216 42.4468C44.443 39.0025 44.8355 35.3857 44.9805 32.6802L41.9848 32.5196ZM42.0582 29.3655C42.0648 30.135 42.0541 31.2285 41.9848 32.5196L44.9805 32.6802C45.0537 31.3167 45.0651 30.1601 45.0581 29.3399L42.0582 29.3655ZM42.0406 28.471C42.0473 28.6774 42.0549 28.9808 42.0582 29.3655L45.0581 29.3399C45.0546 28.9293 45.0465 28.6018 45.039 28.3733L42.0406 28.471ZM42.0318 28.2364C42.0341 28.289 42.0372 28.3679 42.0406 28.471L45.039 28.3733C45.0353 28.259 45.0317 28.1694 45.029 28.1065L42.0318 28.2364ZM42.0289 28.1738L42.032 28.2398L45.0288 28.103L45.0258 28.037L42.0289 28.1738ZM42.0274 26.1589V28.1054H45.0274V26.1589H42.0274ZM40.3416 24.4731C41.2726 24.4731 42.0274 25.2279 42.0274 26.1589H45.0274C45.0274 23.571 42.9295 21.4731 40.3416 21.4731V24.4731ZM39.6091 24.6398C39.8288 24.5334 40.076 24.4731 40.3416 24.4731V21.4731C39.6138 21.4731 38.9207 21.6401 38.3025 21.9393L39.6091 24.6398ZM37.4558 14.8627V23.2895H40.4558V14.8627H37.4558ZM35.401 12.808C36.5358 12.808 37.4558 13.7279 37.4558 14.8627H40.4558C40.4558 12.0711 38.1927 9.80801 35.401 9.80801V12.808ZM34.386 13.0755C34.6841 12.9056 35.0289 12.808 35.401 12.808V9.80801C34.4943 9.80801 33.6391 10.0481 32.9004 10.4692L34.386 13.0755ZM30.0916 9.58789C31.0919 9.58789 32.0922 10.4753 32.1443 11.83L35.1421 11.7147C35.0365 8.97085 32.9169 6.58789 30.0916 6.58789V9.58789ZM28.3314 10.726C28.7157 10.001 29.3906 9.58789 30.0916 9.58789V6.58789C28.152 6.58789 26.5225 7.73296 25.6807 9.32103L28.3314 10.726ZM32.1463 14.8537V26.9387H35.1463V14.8537H32.1463ZM35.1463 14.8613C35.147 14.7214 35.2608 14.608 35.401 14.608V11.608C33.6091 11.608 32.1554 13.0561 32.1464 14.8461L35.1463 14.8613ZM35.401 14.608C35.5417 14.608 35.6558 14.7221 35.6558 14.8627H38.6558C38.6558 13.0652 37.1986 11.608 35.401 11.608V14.608ZM35.6558 14.8627V27.4032H38.6558V14.8627H35.6558ZM37.3526 25.9162L33.8431 25.4517L33.4495 28.4257L36.959 28.8902L37.3526 25.9162ZM32.1463 27.0377V27.1704H35.1463V27.0377H32.1463ZM33.4372 28.523L36.9467 29.0171L37.3649 26.0464L33.8554 25.5523L33.4372 28.523ZM35.6558 27.5317V27.5444H38.6558V27.5317H35.6558ZM37.3147 26.0528L33.8053 25.6789L33.4874 28.662L36.9969 29.0359L37.3147 26.0528ZM26.8369 26.2902V26.6047H29.8369V26.2902H26.8369ZM32.0554 25.2989L28.546 24.8048L28.1278 27.7756L31.6372 28.2696L32.0554 25.2989ZM33.3463 26.9787V26.7843H30.3463V26.9787H33.3463ZM28.1779 28.0963L31.6874 28.4702L32.0052 25.4871L28.4958 25.1132L28.1779 28.0963ZM24.2755 12.5714C24.2768 12.4318 24.3904 12.3193 24.53 12.3193V9.31926C22.7445 9.31926 21.2924 10.7578 21.2756 12.5432L24.2755 12.5714ZM24.1539 25.4979L24.2755 12.5714L21.2756 12.5432L21.1541 25.4697L24.1539 25.4979ZM26.6897 24.5049L22.8508 23.9968L22.4572 26.9709L26.2961 27.479L26.6897 24.5049ZM24.7845 12.5698L24.9931 26.0152L27.9927 25.9687L27.7841 12.5233L24.7845 12.5698ZM24.53 12.3193C24.669 12.3193 24.7824 12.4308 24.7845 12.5698L27.7841 12.5233C27.7566 10.7458 26.3078 9.31926 24.53 9.31926V12.3193ZM24.1491 26.0128L24.1539 25.5043L21.154 25.476L21.1492 25.9846L24.1491 26.0128ZM26.6583 24.9174L22.8081 24.5071L22.4902 27.4903L26.3404 27.9005L26.6583 24.9174ZM24.9937 26.054L24.9995 26.4322L27.9992 26.3857L27.9933 26.0074L24.9937 26.054ZM22.4448 26.9755L26.2844 27.516L26.7026 24.5453L22.8631 24.0048L22.4448 26.9755ZM40.2274 26.1589V28.0083H43.2274V26.1589H40.2274ZM40.3416 26.2731C40.2785 26.2731 40.2274 26.222 40.2274 26.1589H43.2274C43.2274 24.5651 41.9354 23.2731 40.3416 23.2731V26.2731ZM40.4558 26.1589C40.4558 26.222 40.4047 26.2731 40.3416 26.2731V23.2731C38.7478 23.2731 37.4558 24.5651 37.4558 26.1589H40.4558ZM40.4558 27.6414V26.1589H37.4558V27.6414H40.4558ZM41.9242 26.5212L39.1526 26.1544L38.759 29.1285L41.5306 29.4953L41.9242 26.5212ZM27.1407 45.2913C26.7559 45.2243 26.4053 45.1431 26.0861 45.0456L25.2101 47.9148C25.6688 48.0549 26.1428 48.1627 26.6261 48.2468L27.1407 45.2913ZM31.4323 45.559C29.6839 45.559 28.2739 45.4886 27.1407 45.2913L26.6261 48.2468C28.019 48.4894 29.6362 48.559 31.4323 48.559V45.559ZM37.0867 44.9637C35.4088 45.5052 33.3878 45.559 31.4323 45.559V48.559C33.3476 48.559 35.8205 48.5247 38.0081 47.8187L37.0867 44.9637ZM37.2077 44.9235C37.1676 44.9372 37.1273 44.9506 37.0867 44.9637L38.0081 47.8187C38.0639 47.8007 38.1196 47.7822 38.1753 47.7632L37.2077 44.9235ZM39.1915 47.6242V46.3434H36.1915V47.6242H39.1915ZM37.4878 49.9482C38.5421 49.6564 39.1915 48.6828 39.1915 47.6242H36.1915C36.1915 47.4742 36.3119 47.1608 36.6877 47.0568L37.4878 49.9482ZM31.5082 50.6759C34.1008 50.7316 36.2142 50.3006 37.4878 49.9482L36.6877 47.0568C35.6212 47.3519 33.8051 47.7246 31.5727 47.6766L31.5082 50.6759ZM26.031 50.0769C27.2303 50.3282 29.117 50.6245 31.5082 50.6759L31.5727 47.6766C29.3934 47.6297 27.6926 47.36 26.6462 47.1407L26.031 50.0769ZM24.1481 47.6865C24.1481 48.8217 24.893 49.8385 26.031 50.0769L26.6463 47.1407C27.0084 47.2166 27.1481 47.5181 27.1481 47.6865H24.1481ZM24.1481 46.4802V47.6865H27.1481V46.4802H24.1481Z" fill="#F8F9FA" mask="url(#path-1-outside-1_50_10945)"/>
<path d="M37.3331 49.3176C36.1009 49.6585 34.047 50.0779 31.5264 50.0237C29.1776 49.9732 27.3281 49.6823 26.1594 49.4374C25.3128 49.26 24.7534 48.4993 24.7534 47.6342V44.4287L38.5968 44.8594V47.5719C38.5968 48.3785 38.1105 49.1025 37.3331 49.3176Z" fill="#F8F9FA" stroke="#212529" stroke-width="1.8" stroke-linecap="round" stroke-linejoin="round"/>
<path fill-rule="evenodd" clip-rule="evenodd" d="M21.1323 25.7842C19.8684 26.5177 18.9213 27.755 18.3599 28.5955C16.2837 31.704 17.8452 35.7461 19.0491 38.2446C20.253 40.7431 22.1189 43.0636 24.2467 44.7367C25.6318 45.8258 27.9217 46.1067 31.4376 46.1067C35.3336 46.1067 39.882 45.9067 41.126 41.7121C43.0193 35.3276 42.6327 28.0751 42.6327 28.0751" fill="#FFD8A8"/>
<path d="M21.1323 25.7842C19.8684 26.5177 18.9213 27.755 18.3599 28.5955C16.2837 31.704 17.8452 35.7461 19.0491 38.2446C20.253 40.7431 22.1189 43.0636 24.2467 44.7367C25.6318 45.8258 27.9217 46.1067 31.4376 46.1067C35.3336 46.1067 39.882 45.9067 41.126 41.7121C43.0193 35.3276 42.6327 28.0751 42.6327 28.0751" stroke="#212529" stroke-width="1.8" stroke-linecap="round" stroke-linejoin="round"/>
<g style="mix-blend-mode:soft-light" opacity="0.6">
<path d="M21.8346 37.6565C21.5017 38.1751 22.1729 39.4873 22.8059 40.3502C23.4533 41.2326 24.5878 42.4463 25.0508 41.9928C25.5138 41.5393 24.0841 39.9497 23.6809 39.5867C22.974 38.8219 22.1674 37.1378 21.8346 37.6565Z" fill="#F8F9FA"/>
</g>
<path fill-rule="evenodd" clip-rule="evenodd" d="M32.7517 28.2401V14.811C32.7517 13.3448 33.9403 12.1562 35.4064 12.1562V12.1562C36.8726 12.1562 38.0612 13.3448 38.0612 14.811V28.2401" fill="#FFD8A8"/>
<path d="M32.7517 28.2401V14.811C32.7517 13.3448 33.9403 12.1562 35.4064 12.1562V12.1562C36.8726 12.1562 38.0612 13.3448 38.0612 14.811V28.2401" stroke="#212529" stroke-width="1.8" stroke-linecap="round" stroke-linejoin="round"/>
<path fill-rule="evenodd" clip-rule="evenodd" d="M38.0612 28.1597L38.0612 26.1071C38.0612 24.8447 39.0845 23.8213 40.3469 23.8213V23.8213C41.6093 23.8213 42.6327 24.8447 42.6327 26.1071V28.592" fill="#FFD8A8"/>
<path d="M38.0612 28.1597L38.0612 26.1071C38.0612 24.8447 39.0845 23.8213 40.3469 23.8213V23.8213C41.6093 23.8213 42.6327 24.8447 42.6327 26.1071V28.592" stroke="#212529" stroke-width="1.8" stroke-linecap="round" stroke-linejoin="round"/>
<path fill-rule="evenodd" clip-rule="evenodd" d="M21.697 32.0502L21.8809 12.4968C21.8946 11.0405 23.079 9.86719 24.5353 9.86719V9.86719C25.9853 9.86719 27.167 11.0307 27.1895 12.4805L27.4422 28.7677" fill="#FFD8A8"/>
<path d="M21.697 32.0502L21.8809 12.4968C21.8946 11.0405 23.079 9.86719 24.5353 9.86719V9.86719C25.9853 9.86719 27.167 11.0307 27.1895 12.4805L27.4422 28.7677" stroke="#212529" stroke-width="1.8" stroke-linecap="round" stroke-linejoin="round"/>
<path fill-rule="evenodd" clip-rule="evenodd" d="M27.4423 28.0846V11.6743C27.4423 10.2081 28.6308 9.01953 30.097 9.01953V9.01953C31.5632 9.01953 32.7517 10.2081 32.7517 11.6743V28.0846" fill="#FFD8A8"/>
<path d="M27.4423 28.0846V11.6743C27.4423 10.2081 28.6308 9.01953 30.097 9.01953V9.01953C31.5632 9.01953 32.7517 10.2081 32.7517 11.6743V28.0846" stroke="#212529" stroke-width="1.8" stroke-linecap="round" stroke-linejoin="round"/>
<g style="mix-blend-mode:multiply">
<path d="M40.133 38.5128C40.9087 35.1007 41.1252 28.8731 41.1252 24.5322C41.4491 24.671 41.581 25.2006 42.0807 26.8107C42.5804 28.4207 41.9826 35.5287 41.5662 38.5128C41.2424 39.9008 40.5803 42.5877 39.692 43.5315C38.8037 44.4753 36.7332 45.3602 35.7616 45.5222C38.954 43.579 39.5531 41.0638 40.133 38.5128Z" fill="#DEE2E6"/>
</g>
<g style="mix-blend-mode:multiply">
<path d="M36.8922 46.165L37.9028 46.0771V48.3721L36.8922 48.6486V46.165Z" fill="#DEE2E6"/>
</g>
<g style="mix-blend-mode:multiply">
<path d="M37.4829 14.2124L36.804 13.6953V27.2093L37.4829 28.8374V14.2124Z" fill="#DEE2E6"/>
</g>
<g style="mix-blend-mode:multiply">
<path d="M32.2485 11.1545L31.5697 10.5293V26.8689L32.2485 28.8375V11.1545Z" fill="#DEE2E6"/>
</g>
<g style="mix-blend-mode:multiply">
<path d="M26.8431 11.2705L25.8687 10.5293L26.1643 28.268L26.8431 29.051V11.2705Z" fill="#DEE2E6"/>
</g>
</svg>
