<svg width="60" height="60" viewBox="0 0 60 60" fill="none" xmlns="http://www.w3.org/2000/svg">
<mask id="path-1-outside-1_50_9928" maskUnits="userSpaceOnUse" x="8.76489" y="9.62695" width="43" height="42" fill="black">
<rect fill="white" x="8.76489" y="9.62695" width="43" height="42"/>
<path fill-rule="evenodd" clip-rule="evenodd" d="M17.5693 11.627C13.8113 11.627 10.7649 14.6734 10.7649 18.4313C10.7649 20.5384 11.7233 22.4217 13.2251 23.6687V46.5845C13.2251 48.0712 14.4303 49.2763 15.9169 49.2763H19.8183C19.8242 49.2764 19.8301 49.2764 19.836 49.2764H45.1744C46.6611 49.2764 47.8662 48.0712 47.8662 46.5846V23.5441C49.2838 22.2981 50.1805 20.4693 50.1805 18.4314C50.1805 14.6735 47.134 11.627 43.3761 11.627L43.3392 11.6271L43.318 11.627H39.4851C39.4757 11.627 39.4663 11.627 39.457 11.627L39.4356 11.627H39.4112L39.3989 11.627H17.7733C17.743 11.627 17.7127 11.6273 17.6825 11.6279C17.6448 11.6273 17.6071 11.627 17.5693 11.627ZM16.9847 13.3306C14.4248 13.6208 12.4357 15.7938 12.4357 18.4313C12.4357 20.1381 13.2678 21.6505 14.5521 22.5852C14.7681 22.7424 14.8959 22.9935 14.8959 23.2607V46.5845C14.8959 47.1484 15.353 47.6056 15.9169 47.6056H17.3446C17.2154 47.2907 17.1442 46.946 17.1442 46.5846V23.6687C15.6424 22.4217 14.684 20.5385 14.684 18.4314C14.684 16.4005 15.5737 14.5774 16.9847 13.3306ZM43.7467 47.6056H45.1744C45.7383 47.6056 46.1955 47.1485 46.1955 46.5846V23.1511C46.1955 22.8928 46.3149 22.6491 46.5189 22.4909C47.7316 21.5504 48.5097 20.082 48.5097 18.4314C48.5097 15.7939 46.5207 13.621 43.9608 13.3308C45.3717 14.5775 46.2614 16.4005 46.2614 18.4314C46.2614 20.4692 45.3647 22.298 43.9471 23.544V46.5845C43.9471 46.946 43.8759 47.2907 43.7467 47.6056ZM39.4814 13.2978C42.3054 13.311 44.5906 15.6043 44.5906 18.4314C44.5906 20.0819 43.8125 21.5504 42.5998 22.4909C42.3958 22.6491 42.2764 22.8928 42.2764 23.151V46.5845C42.2764 47.1484 41.8192 47.6056 41.2553 47.6056H19.8251C19.2662 47.5997 18.815 47.1448 18.815 46.5846V23.2607C18.815 22.9936 18.6872 22.7425 18.4712 22.5853C17.1869 21.6506 16.3548 20.1382 16.3548 18.4314C16.3548 15.5962 18.6532 13.2978 21.4884 13.2978C21.5215 13.2978 21.5545 13.2981 21.5875 13.2987C21.5993 13.2989 21.6111 13.2989 21.6229 13.2986C21.646 13.2981 21.6692 13.2978 21.6924 13.2978H39.4078L39.4189 13.2979L39.429 13.2978L39.4355 13.2978H39.4814Z"/>
</mask>
<path fill-rule="evenodd" clip-rule="evenodd" d="M17.5693 11.627C13.8113 11.627 10.7649 14.6734 10.7649 18.4313C10.7649 20.5384 11.7233 22.4217 13.2251 23.6687V46.5845C13.2251 48.0712 14.4303 49.2763 15.9169 49.2763H19.8183C19.8242 49.2764 19.8301 49.2764 19.836 49.2764H45.1744C46.6611 49.2764 47.8662 48.0712 47.8662 46.5846V23.5441C49.2838 22.2981 50.1805 20.4693 50.1805 18.4314C50.1805 14.6735 47.134 11.627 43.3761 11.627L43.3392 11.6271L43.318 11.627H39.4851C39.4757 11.627 39.4663 11.627 39.457 11.627L39.4356 11.627H39.4112L39.3989 11.627H17.7733C17.743 11.627 17.7127 11.6273 17.6825 11.6279C17.6448 11.6273 17.6071 11.627 17.5693 11.627ZM16.9847 13.3306C14.4248 13.6208 12.4357 15.7938 12.4357 18.4313C12.4357 20.1381 13.2678 21.6505 14.5521 22.5852C14.7681 22.7424 14.8959 22.9935 14.8959 23.2607V46.5845C14.8959 47.1484 15.353 47.6056 15.9169 47.6056H17.3446C17.2154 47.2907 17.1442 46.946 17.1442 46.5846V23.6687C15.6424 22.4217 14.684 20.5385 14.684 18.4314C14.684 16.4005 15.5737 14.5774 16.9847 13.3306ZM43.7467 47.6056H45.1744C45.7383 47.6056 46.1955 47.1485 46.1955 46.5846V23.1511C46.1955 22.8928 46.3149 22.6491 46.5189 22.4909C47.7316 21.5504 48.5097 20.082 48.5097 18.4314C48.5097 15.7939 46.5207 13.621 43.9608 13.3308C45.3717 14.5775 46.2614 16.4005 46.2614 18.4314C46.2614 20.4692 45.3647 22.298 43.9471 23.544V46.5845C43.9471 46.946 43.8759 47.2907 43.7467 47.6056ZM39.4814 13.2978C42.3054 13.311 44.5906 15.6043 44.5906 18.4314C44.5906 20.0819 43.8125 21.5504 42.5998 22.4909C42.3958 22.6491 42.2764 22.8928 42.2764 23.151V46.5845C42.2764 47.1484 41.8192 47.6056 41.2553 47.6056H19.8251C19.2662 47.5997 18.815 47.1448 18.815 46.5846V23.2607C18.815 22.9936 18.6872 22.7425 18.4712 22.5853C17.1869 21.6506 16.3548 20.1382 16.3548 18.4314C16.3548 15.5962 18.6532 13.2978 21.4884 13.2978C21.5215 13.2978 21.5545 13.2981 21.5875 13.2987C21.5993 13.2989 21.6111 13.2989 21.6229 13.2986C21.646 13.2981 21.6692 13.2978 21.6924 13.2978H39.4078L39.4189 13.2979L39.429 13.2978L39.4355 13.2978H39.4814Z" fill="#F8F9FA"/>
<path d="M13.2251 23.6687H14.7251C14.7251 23.2226 14.5266 22.7997 14.1834 22.5147L13.2251 23.6687ZM19.8183 49.2763L19.828 47.7763H19.8183V49.2763ZM47.8662 23.5441L46.876 22.4174C46.552 22.7022 46.3662 23.1127 46.3662 23.5441H47.8662ZM43.3761 11.627L43.3761 10.127L43.3721 10.127L43.3761 11.627ZM43.3392 11.6271L43.3322 13.1272L43.3432 13.1271L43.3392 11.6271ZM43.318 11.627L43.325 10.127H43.318V11.627ZM39.4851 11.627L39.479 13.127H39.4851V11.627ZM39.457 11.627L39.457 10.127L39.453 10.127L39.457 11.627ZM39.4356 11.627L39.4356 13.127L39.4396 13.127L39.4356 11.627ZM39.4112 11.627L39.4042 13.127H39.4112V11.627ZM39.3989 11.627L39.4059 10.127H39.3989V11.627ZM17.6825 11.6279L17.6579 13.1277C17.6759 13.128 17.6939 13.1279 17.712 13.1276L17.6825 11.6279ZM16.9847 13.3306L17.9779 14.4547C18.4685 14.0212 18.6213 13.3196 18.3554 12.7214C18.0895 12.1231 17.4663 11.7665 16.8158 11.8402L16.9847 13.3306ZM14.5521 22.5852L15.4348 21.3724L15.4348 21.3724L14.5521 22.5852ZM17.3446 47.6056V49.1056C17.8447 49.1056 18.3118 48.8564 18.5904 48.441C18.8689 48.0257 18.9221 47.4989 18.7324 47.0363L17.3446 47.6056ZM17.1442 23.6687H18.6442C18.6442 23.2227 18.4457 22.7997 18.1025 22.5147L17.1442 23.6687ZM43.7467 47.6056L42.359 47.0363C42.1692 47.4989 42.2224 48.0257 42.5009 48.4411C42.7794 48.8564 43.2466 49.1056 43.7467 49.1056V47.6056ZM46.5189 22.4909L45.5997 21.3056L45.5997 21.3056L46.5189 22.4909ZM43.9608 13.3308L44.1298 11.8403C43.4793 11.7665 42.8561 12.1232 42.5901 12.7214C42.3242 13.3197 42.477 14.0213 42.9675 14.4548L43.9608 13.3308ZM43.9471 23.544L42.9569 22.4173C42.6329 22.7021 42.4471 23.1126 42.4471 23.544H43.9471ZM39.4814 13.2978L39.4884 11.7978H39.4814V13.2978ZM42.5998 22.4909L41.6806 21.3055L41.6806 21.3055L42.5998 22.4909ZM19.8251 47.6056L19.8094 49.1055C19.8146 49.1055 19.8199 49.1056 19.8251 49.1056L19.8251 47.6056ZM18.4712 22.5853L19.3539 21.3725L19.3539 21.3725L18.4712 22.5853ZM21.5875 13.2987L21.5592 14.7985L21.5592 14.7985L21.5875 13.2987ZM21.6229 13.2986L21.5875 11.7991L21.5875 11.7991L21.6229 13.2986ZM39.4078 13.2978L39.4174 11.7978H39.4078V13.2978ZM39.4189 13.2979L39.4092 14.7979C39.4151 14.7979 39.421 14.7979 39.4268 14.7979L39.4189 13.2979ZM39.429 13.2978L39.425 11.7978L39.421 11.7979L39.429 13.2978ZM39.4355 13.2978L39.4355 11.7978L39.4316 11.7978L39.4355 13.2978ZM12.2649 18.4313C12.2649 15.5018 14.6397 13.127 17.5693 13.127V10.127C12.9829 10.127 9.26489 13.845 9.26489 18.4313H12.2649ZM14.1834 22.5147C13.0099 21.5402 12.2649 20.0733 12.2649 18.4313H9.26489C9.26489 21.0035 10.4368 23.3031 12.2669 24.8227L14.1834 22.5147ZM14.7251 46.5845V23.6687H11.7251V46.5845H14.7251ZM15.9169 47.7763C15.2587 47.7763 14.7251 47.2428 14.7251 46.5845H11.7251C11.7251 48.8996 13.6019 50.7763 15.9169 50.7763V47.7763ZM19.8183 47.7763H15.9169V50.7763H19.8183V47.7763ZM19.836 47.7764C19.8333 47.7764 19.8306 47.7764 19.828 47.7764L19.8086 50.7763C19.8177 50.7764 19.8269 50.7764 19.836 50.7764V47.7764ZM45.1744 47.7764H19.836V50.7764H45.1744V47.7764ZM46.3662 46.5846C46.3662 47.2428 45.8327 47.7764 45.1744 47.7764V50.7764C47.4895 50.7764 49.3662 48.8997 49.3662 46.5846H46.3662ZM46.3662 23.5441V46.5846H49.3662V23.5441H46.3662ZM48.6805 18.4314C48.6805 20.0197 47.9835 21.4439 46.876 22.4174L48.8565 24.6707C50.5841 23.1522 51.6805 20.9189 51.6805 18.4314H48.6805ZM43.3761 13.127C46.3056 13.127 48.6805 15.5019 48.6805 18.4314H51.6805C51.6805 13.845 47.9625 10.127 43.3761 10.127V13.127ZM43.3432 13.1271L43.3801 13.127L43.3721 10.127L43.3352 10.1271L43.3432 13.1271ZM43.3111 13.127L43.3322 13.1271L43.3461 10.1272L43.325 10.1271L43.3111 13.127ZM39.4851 13.127H43.318V10.127H39.4851V13.127ZM39.457 13.127C39.4643 13.127 39.4717 13.127 39.479 13.127L39.4912 10.1271C39.4798 10.127 39.4684 10.127 39.457 10.127V13.127ZM39.4396 13.127L39.461 13.127L39.453 10.127L39.4316 10.127L39.4396 13.127ZM39.4112 13.127H39.4356V10.127H39.4112V13.127ZM39.3919 13.127L39.4042 13.127L39.4181 10.1271L39.4059 10.127L39.3919 13.127ZM17.7733 13.127H39.3989V10.127H17.7733V13.127ZM17.712 13.1276C17.7324 13.1272 17.7528 13.127 17.7733 13.127V10.127C17.7331 10.127 17.693 10.1274 17.653 10.1282L17.712 13.1276ZM17.5693 13.127C17.5989 13.127 17.6284 13.1272 17.6579 13.1277L17.707 10.1281C17.6611 10.1273 17.6152 10.127 17.5693 10.127V13.127ZM16.8158 11.8402C13.5062 12.2153 10.9357 15.0221 10.9357 18.4313H13.9357C13.9357 16.5655 15.3433 15.0263 17.1536 14.8211L16.8158 11.8402ZM10.9357 18.4313C10.9357 20.6378 12.0137 22.593 13.6694 23.798L15.4348 21.3724C14.5219 20.708 13.9357 19.6384 13.9357 18.4313H10.9357ZM13.6694 23.798C13.4976 23.6729 13.3959 23.4732 13.3959 23.2607H16.3959C16.3959 22.5138 16.0387 21.8119 15.4348 21.3724L13.6694 23.798ZM13.3959 23.2607V46.5845H16.3959V23.2607H13.3959ZM13.3959 46.5845C13.3959 47.9769 14.5246 49.1056 15.9169 49.1056V46.1056C16.1814 46.1056 16.3959 46.32 16.3959 46.5845H13.3959ZM15.9169 49.1056H17.3446V46.1056H15.9169V49.1056ZM18.7324 47.0363C18.676 46.8989 18.6442 46.7474 18.6442 46.5846H15.6442C15.6442 47.1446 15.7548 47.6825 15.9568 48.1749L18.7324 47.0363ZM18.6442 46.5846V23.6687H15.6442V46.5846H18.6442ZM18.1025 22.5147C16.929 21.5403 16.184 20.0733 16.184 18.4314H13.184C13.184 21.0036 14.3559 23.3032 16.186 24.8228L18.1025 22.5147ZM16.184 18.4314C16.184 16.8484 16.8755 15.4288 17.9779 14.4547L15.9915 12.2066C14.272 13.726 13.184 15.9526 13.184 18.4314H16.184ZM43.7467 49.1056H45.1744V46.1056H43.7467V49.1056ZM45.1744 49.1056C46.5668 49.1056 47.6955 47.9769 47.6955 46.5846H44.6955C44.6955 46.3201 44.9099 46.1056 45.1744 46.1056V49.1056ZM47.6955 46.5846V23.1511H44.6955V46.5846H47.6955ZM47.6955 23.1511C47.6955 23.3565 47.6005 23.5504 47.4381 23.6762L45.5997 21.3056C45.0293 21.7479 44.6955 22.4292 44.6955 23.1511H47.6955ZM47.4381 23.6762C49.0017 22.4637 50.0097 20.565 50.0097 18.4314H47.0097C47.0097 19.599 46.4616 20.6371 45.5997 21.3056L47.4381 23.6762ZM50.0097 18.4314C50.0097 15.0222 47.4392 12.2155 44.1298 11.8403L43.7918 14.8212C45.6021 15.0265 47.0097 16.5656 47.0097 18.4314H50.0097ZM42.9675 14.4548C44.0699 15.4289 44.7614 16.8484 44.7614 18.4314H47.7614C47.7614 15.9526 46.6735 13.7261 44.9541 12.2067L42.9675 14.4548ZM44.7614 18.4314C44.7614 20.0196 44.0644 21.4439 42.9569 22.4173L44.9374 24.6706C46.665 23.1522 47.7614 20.9189 47.7614 18.4314H44.7614ZM42.4471 23.544V46.5845H45.4471V23.544H42.4471ZM42.4471 46.5845C42.4471 46.7473 42.4153 46.8989 42.359 47.0363L45.1345 48.175C45.3365 47.6826 45.4471 47.1446 45.4471 46.5845H42.4471ZM46.0906 18.4314C46.0906 14.7782 43.1377 11.8148 39.4884 11.7978L39.4744 14.7978C41.4731 14.8071 43.0906 16.4304 43.0906 18.4314H46.0906ZM43.519 23.6762C45.0826 22.4636 46.0906 20.5649 46.0906 18.4314H43.0906C43.0906 19.599 42.5425 20.6371 41.6806 21.3055L43.519 23.6762ZM43.7764 23.151C43.7764 23.3564 43.6814 23.5503 43.519 23.6762L41.6806 21.3055C41.1102 21.7479 40.7764 22.4292 40.7764 23.151H43.7764ZM43.7764 46.5845V23.151H40.7764V46.5845H43.7764ZM41.2553 49.1056C42.6477 49.1056 43.7764 47.9769 43.7764 46.5845H40.7764C40.7764 46.32 40.9908 46.1056 41.2553 46.1056V49.1056ZM19.8251 49.1056H41.2553V46.1056H19.8251V49.1056ZM17.315 46.5846C17.315 47.968 18.4291 49.091 19.8094 49.1055L19.8408 46.1056C20.1033 46.1084 20.315 46.3217 20.315 46.5846H17.315ZM17.315 23.2607V46.5846H20.315V23.2607H17.315ZM17.5885 23.7981C17.4167 23.673 17.315 23.4733 17.315 23.2607H20.315C20.315 22.5138 19.9578 21.812 19.3539 21.3725L17.5885 23.7981ZM14.8548 18.4314C14.8548 20.6379 15.9328 22.593 17.5885 23.7981L19.3539 21.3725C18.441 20.7081 17.8548 19.6385 17.8548 18.4314H14.8548ZM21.4884 11.7978C17.8247 11.7978 14.8548 14.7678 14.8548 18.4314H17.8548C17.8548 16.4246 19.4816 14.7978 21.4884 14.7978V11.7978ZM21.6157 11.799C21.5734 11.7982 21.5309 11.7978 21.4884 11.7978V14.7978C21.5121 14.7978 21.5357 14.798 21.5592 14.7985L21.6157 11.799ZM21.5875 11.7991C21.597 11.7988 21.6064 11.7988 21.6157 11.799L21.5592 14.7985C21.5922 14.7991 21.6252 14.799 21.6583 14.7982L21.5875 11.7991ZM21.6924 11.7978C21.6574 11.7978 21.6224 11.7982 21.5875 11.7991L21.6583 14.7982C21.6696 14.798 21.681 14.7978 21.6924 14.7978V11.7978ZM39.4078 11.7978H21.6924V14.7978H39.4078V11.7978ZM39.4285 11.7979L39.4174 11.7978L39.3982 14.7978L39.4092 14.7979L39.4285 11.7979ZM39.421 11.7979L39.4109 11.7979L39.4268 14.7979L39.4369 14.7978L39.421 11.7979ZM39.4316 11.7978L39.425 11.7978L39.4329 14.7978L39.4395 14.7978L39.4316 11.7978ZM39.4814 11.7978H39.4355V14.7978H39.4814V11.7978Z" fill="#F8F9FA" mask="url(#path-1-outside-1_50_9928)"/>
<mask id="path-3-outside-2_50_9928" maskUnits="userSpaceOnUse" x="8.76489" y="9.62695" width="43" height="42" fill="black">
<rect fill="white" x="8.76489" y="9.62695" width="43" height="42"/>
<path fill-rule="evenodd" clip-rule="evenodd" d="M17.5693 11.627C13.8113 11.627 10.7649 14.6734 10.7649 18.4313C10.7649 20.5384 11.7233 22.4217 13.2251 23.6687V46.5845C13.2251 48.0712 14.4303 49.2763 15.9169 49.2763H19.8183C19.8242 49.2764 19.8301 49.2764 19.836 49.2764H45.1744C46.6611 49.2764 47.8662 48.0712 47.8662 46.5846V23.5441C49.2838 22.2981 50.1805 20.4693 50.1805 18.4314C50.1805 14.6735 47.134 11.627 43.3761 11.627L43.3392 11.6271L43.318 11.627H39.4851C39.4757 11.627 39.4663 11.627 39.457 11.627L39.4356 11.627H39.4112L39.3989 11.627H17.7733C17.743 11.627 17.7127 11.6273 17.6825 11.6279C17.6448 11.6273 17.6071 11.627 17.5693 11.627Z"/>
</mask>
<path fill-rule="evenodd" clip-rule="evenodd" d="M17.5693 11.627C13.8113 11.627 10.7649 14.6734 10.7649 18.4313C10.7649 20.5384 11.7233 22.4217 13.2251 23.6687V46.5845C13.2251 48.0712 14.4303 49.2763 15.9169 49.2763H19.8183C19.8242 49.2764 19.8301 49.2764 19.836 49.2764H45.1744C46.6611 49.2764 47.8662 48.0712 47.8662 46.5846V23.5441C49.2838 22.2981 50.1805 20.4693 50.1805 18.4314C50.1805 14.6735 47.134 11.627 43.3761 11.627L43.3392 11.6271L43.318 11.627H39.4851C39.4757 11.627 39.4663 11.627 39.457 11.627L39.4356 11.627H39.4112L39.3989 11.627H17.7733C17.743 11.627 17.7127 11.6273 17.6825 11.6279C17.6448 11.6273 17.6071 11.627 17.5693 11.627Z" fill="#F8F9FA"/>
<path d="M13.2251 23.6687H14.7251C14.7251 23.2226 14.5266 22.7997 14.1834 22.5147L13.2251 23.6687ZM19.8183 49.2763L19.828 47.7763H19.8183V49.2763ZM47.8662 23.5441L46.876 22.4174C46.552 22.7022 46.3662 23.1127 46.3662 23.5441H47.8662ZM43.3761 11.627L43.3761 10.127L43.3721 10.127L43.3761 11.627ZM43.3392 11.6271L43.3322 13.1272L43.3432 13.1271L43.3392 11.6271ZM43.318 11.627L43.325 10.127H43.318V11.627ZM39.4851 11.627L39.479 13.127H39.4851V11.627ZM39.457 11.627L39.457 10.127L39.453 10.127L39.457 11.627ZM39.4356 11.627L39.4356 13.127L39.4396 13.127L39.4356 11.627ZM39.4112 11.627L39.4042 13.127H39.4112V11.627ZM39.3989 11.627L39.4059 10.127H39.3989V11.627ZM17.6825 11.6279L17.6579 13.1277C17.6759 13.128 17.6939 13.1279 17.712 13.1276L17.6825 11.6279ZM12.2649 18.4313C12.2649 15.5018 14.6397 13.127 17.5693 13.127V10.127C12.9829 10.127 9.26489 13.845 9.26489 18.4313H12.2649ZM14.1834 22.5147C13.0099 21.5402 12.2649 20.0733 12.2649 18.4313H9.26489C9.26489 21.0035 10.4368 23.3031 12.2669 24.8227L14.1834 22.5147ZM14.7251 46.5845V23.6687H11.7251V46.5845H14.7251ZM15.9169 47.7763C15.2587 47.7763 14.7251 47.2428 14.7251 46.5845H11.7251C11.7251 48.8996 13.6019 50.7763 15.9169 50.7763V47.7763ZM19.8183 47.7763H15.9169V50.7763H19.8183V47.7763ZM19.836 47.7764C19.8333 47.7764 19.8306 47.7764 19.828 47.7764L19.8086 50.7763C19.8177 50.7764 19.8269 50.7764 19.836 50.7764V47.7764ZM45.1744 47.7764H19.836V50.7764H45.1744V47.7764ZM46.3662 46.5846C46.3662 47.2428 45.8327 47.7764 45.1744 47.7764V50.7764C47.4895 50.7764 49.3662 48.8997 49.3662 46.5846H46.3662ZM46.3662 23.5441V46.5846H49.3662V23.5441H46.3662ZM48.6805 18.4314C48.6805 20.0197 47.9835 21.4439 46.876 22.4174L48.8565 24.6707C50.5841 23.1522 51.6805 20.9189 51.6805 18.4314H48.6805ZM43.3761 13.127C46.3056 13.127 48.6805 15.5019 48.6805 18.4314H51.6805C51.6805 13.845 47.9625 10.127 43.3761 10.127V13.127ZM43.3432 13.1271L43.3801 13.127L43.3721 10.127L43.3352 10.1271L43.3432 13.1271ZM43.3111 13.127L43.3322 13.1271L43.3461 10.1272L43.325 10.1271L43.3111 13.127ZM39.4851 13.127H43.318V10.127H39.4851V13.127ZM39.457 13.127C39.4643 13.127 39.4717 13.127 39.479 13.127L39.4912 10.1271C39.4798 10.127 39.4684 10.127 39.457 10.127V13.127ZM39.4396 13.127L39.461 13.127L39.453 10.127L39.4316 10.127L39.4396 13.127ZM39.4112 13.127H39.4356V10.127H39.4112V13.127ZM39.3919 13.127L39.4042 13.127L39.4181 10.1271L39.4059 10.127L39.3919 13.127ZM17.7733 13.127H39.3989V10.127H17.7733V13.127ZM17.712 13.1276C17.7324 13.1272 17.7528 13.127 17.7733 13.127V10.127C17.7331 10.127 17.693 10.1274 17.653 10.1282L17.712 13.1276ZM17.5693 13.127C17.5989 13.127 17.6284 13.1272 17.6579 13.1277L17.707 10.1281C17.6611 10.1273 17.6152 10.127 17.5693 10.127V13.127Z" fill="#F8F9FA" mask="url(#path-3-outside-2_50_9928)"/>
<path fill-rule="evenodd" clip-rule="evenodd" d="M21.7589 12.4689C21.6692 12.4649 21.579 12.4629 21.4884 12.4629C18.1918 12.4629 15.5194 15.1353 15.5194 18.4319C15.5194 20.4171 16.4886 22.176 17.9796 23.2612V46.4415C17.9796 47.5461 18.8751 48.4415 19.9796 48.4415H45.0309C46.1355 48.4415 47.0309 47.5461 47.0309 46.4415V23.1516C48.4389 22.0597 49.3451 20.3516 49.3451 18.4319C49.3451 15.1353 46.6727 12.4629 43.3761 12.4629C43.3126 12.4629 43.2493 12.4639 43.1863 12.4659C43.1347 12.4639 43.0829 12.4629 43.0309 12.4629H21.9796C21.9056 12.4629 21.832 12.4649 21.7589 12.4689Z" fill="#FFA94D"/>
<path d="M21.7589 12.4689L21.7188 13.368C21.7484 13.3693 21.7781 13.3692 21.8078 13.3676L21.7589 12.4689ZM17.9796 23.2612H18.8796C18.8796 22.9734 18.742 22.7029 18.5092 22.5335L17.9796 23.2612ZM47.0309 23.1516L46.4793 22.4404C46.2595 22.6108 46.1309 22.8734 46.1309 23.1516H47.0309ZM43.1863 12.4659L43.1519 13.3652C43.1727 13.366 43.1936 13.3661 43.2144 13.3654L43.1863 12.4659ZM21.799 11.5698C21.696 11.5652 21.5924 11.5629 21.4884 11.5629V13.3629C21.5657 13.3629 21.6425 13.3646 21.7188 13.368L21.799 11.5698ZM21.4884 11.5629C17.6948 11.5629 14.6194 14.6382 14.6194 18.4319H16.4194C16.4194 15.6324 18.6889 13.3629 21.4884 13.3629V11.5629ZM14.6194 18.4319C14.6194 20.7171 15.7363 22.7416 17.45 23.9889L18.5092 22.5335C17.2409 21.6104 16.4194 20.1172 16.4194 18.4319H14.6194ZM18.8796 46.4415V23.2612H17.0796V46.4415H18.8796ZM19.9796 47.5415C19.3721 47.5415 18.8796 47.049 18.8796 46.4415H17.0796C17.0796 48.0431 18.378 49.3415 19.9796 49.3415V47.5415ZM45.0309 47.5415H19.9796V49.3415H45.0309V47.5415ZM46.1309 46.4415C46.1309 47.049 45.6384 47.5415 45.0309 47.5415V49.3415C46.6325 49.3415 47.9309 48.0431 47.9309 46.4415H46.1309ZM46.1309 23.1516V46.4415H47.9309V23.1516H46.1309ZM47.5824 23.8628C49.2008 22.6077 50.2451 20.6416 50.2451 18.4319H48.4451C48.4451 20.0617 47.677 21.5116 46.4793 22.4404L47.5824 23.8628ZM50.2451 18.4319C50.2451 14.6383 47.1698 11.5629 43.3761 11.5629V13.3629C46.1757 13.3629 48.4451 15.6324 48.4451 18.4319H50.2451ZM43.3761 11.5629C43.3032 11.5629 43.2306 11.5641 43.1582 11.5663L43.2144 13.3654C43.2681 13.3638 43.322 13.3629 43.3761 13.3629V11.5629ZM43.0309 13.3629C43.0715 13.3629 43.1118 13.3637 43.1519 13.3652L43.2206 11.5665C43.1576 11.5641 43.0944 11.5629 43.0309 11.5629V13.3629ZM21.9796 13.3629H43.0309V11.5629H21.9796V13.3629ZM21.8078 13.3676C21.8646 13.3645 21.9219 13.3629 21.9796 13.3629V11.5629C21.8892 11.5629 21.7993 11.5654 21.71 11.5702L21.8078 13.3676Z" fill="#212529"/>
<path fill-rule="evenodd" clip-rule="evenodd" d="M17.8398 12.4689C17.7501 12.4649 17.66 12.4629 17.5693 12.4629C14.2728 12.4629 11.6003 15.1353 11.6003 18.4319C11.6003 20.4171 12.5695 22.176 14.0605 23.2612V46.4415C14.0605 47.5461 14.956 48.4415 16.0605 48.4415H41.1118C42.2163 48.4415 43.1118 47.5461 43.1118 46.4415V23.1516C44.5198 22.0597 45.426 20.3516 45.426 18.4319C45.426 15.1353 42.7536 12.4629 39.457 12.4629C39.3935 12.4629 39.3302 12.4639 39.2672 12.4659C39.2156 12.4639 39.1638 12.4629 39.1118 12.4629H18.0605C17.9865 12.4629 17.9129 12.4649 17.8398 12.4689Z" fill="#FFC078"/>
<path d="M17.8398 12.4689L17.7997 13.368C17.8293 13.3693 17.859 13.3692 17.8887 13.3676L17.8398 12.4689ZM14.0605 23.2612H14.9605C14.9605 22.9734 14.8229 22.7029 14.5901 22.5335L14.0605 23.2612ZM43.1118 23.1516L42.5602 22.4404C42.3404 22.6108 42.2118 22.8734 42.2118 23.1516H43.1118ZM39.2672 12.4659L39.2328 13.3652C39.2536 13.366 39.2745 13.3661 39.2953 13.3654L39.2672 12.4659ZM17.8799 11.5698C17.7769 11.5652 17.6733 11.5629 17.5693 11.5629V13.3629C17.6466 13.3629 17.7234 13.3646 17.7997 13.368L17.8799 11.5698ZM17.5693 11.5629C13.7757 11.5629 10.7003 14.6382 10.7003 18.4319H12.5003C12.5003 15.6324 14.7698 13.3629 17.5693 13.3629V11.5629ZM10.7003 18.4319C10.7003 20.7171 11.8172 22.7416 13.5309 23.9889L14.5901 22.5335C13.3218 21.6104 12.5003 20.1171 12.5003 18.4319H10.7003ZM14.9605 46.4415V23.2612H13.1605V46.4415H14.9605ZM16.0605 47.5415C15.453 47.5415 14.9605 47.049 14.9605 46.4415H13.1605C13.1605 48.0431 14.4589 49.3415 16.0605 49.3415V47.5415ZM41.1118 47.5415H16.0605V49.3415H41.1118V47.5415ZM42.2118 46.4415C42.2118 47.049 41.7193 47.5415 41.1118 47.5415V49.3415C42.7134 49.3415 44.0118 48.0431 44.0118 46.4415H42.2118ZM42.2118 23.1516V46.4415H44.0118V23.1516H42.2118ZM43.6633 23.8628C45.2817 22.6077 46.326 20.6416 46.326 18.4319H44.526C44.526 20.0617 43.7579 21.5116 42.5602 22.4404L43.6633 23.8628ZM46.326 18.4319C46.326 14.6383 43.2507 11.5629 39.457 11.5629V13.3629C42.2566 13.3629 44.526 15.6324 44.526 18.4319H46.326ZM39.457 11.5629C39.3841 11.5629 39.3115 11.5641 39.2391 11.5663L39.2953 13.3654C39.3489 13.3638 39.4029 13.3629 39.457 13.3629V11.5629ZM39.1118 13.3629C39.1524 13.3629 39.1927 13.3637 39.2328 13.3652L39.3015 11.5665C39.2385 11.5641 39.1753 11.5629 39.1118 11.5629V13.3629ZM18.0605 13.3629H39.1118V11.5629H18.0605V13.3629ZM17.8887 13.3676C17.9455 13.3645 18.0028 13.3629 18.0605 13.3629V11.5629C17.9702 11.5629 17.8803 11.5654 17.7909 11.5702L17.8887 13.3676Z" fill="#212529"/>
<path opacity="0.7" d="M21.3307 29.7253C24.4206 26.3728 26.4157 25.6167 27.6269 25.9627C29.141 26.3953 19.4186 37.1077 22.8685 38.7239C24.4029 39.4427 33.2041 24.126 36.1705 25.3138C37.7914 25.9628 33.3728 33.7997 31.6146 36.8482" stroke="#FFF4E6" stroke-width="2.4" stroke-linecap="round" stroke-linejoin="round"/>
</svg>
