<svg width="60" height="61" viewBox="0 0 60 61" fill="none" xmlns="http://www.w3.org/2000/svg">
<g clip-path="url(#clip0_50_5107)">
<mask id="path-1-outside-1_50_5107" maskUnits="userSpaceOnUse" x="1.15527" y="1.33173" width="58.6899" height="58.6899" fill="black">
<rect fill="white" x="1.15527" y="1.33173" width="58.6899" height="58.6899"/>
<path fill-rule="evenodd" clip-rule="evenodd" d="M47.9864 13.2967C48.3167 12.9664 48.3782 12.4922 48.1236 12.2377C47.8691 11.9831 47.3949 12.0446 47.0646 12.3749L44.3455 15.0939C44.0152 15.4243 43.9537 15.8984 44.2083 16.153C44.4629 16.4075 44.937 16.3461 45.2673 16.0158L47.9864 13.2967ZM47.8747 26.2302L44.2335 22.589C44.6149 21.9272 44.8331 21.1594 44.8331 20.3407C44.8331 17.8502 42.8142 15.8313 40.3237 15.8313C39.505 15.8313 38.7372 16.0495 38.0754 16.4309L34.6353 12.9908C33.6909 12.0465 32.1599 12.0465 31.2156 12.9908C30.5507 13.6557 30.3539 14.6114 30.6253 15.4485L24.8912 21.1826C24.418 21.6558 24.1373 22.2879 24.1037 22.9563L23.8885 27.2299C23.8757 27.4834 23.7692 27.7232 23.5898 27.9027L9.35714 42.1353C8.30256 43.1899 8.30256 44.8997 9.35714 45.9543L12.2705 48.8676L12.2864 48.8831L14.9112 51.5079C15.9658 52.5625 17.6756 52.5625 18.7302 51.5079L32.9628 37.2753C33.1423 37.0958 33.382 36.9894 33.6356 36.9766L37.9092 36.7614C38.5776 36.7277 39.2097 36.4471 39.6829 35.9739L45.4167 30.2401C46.2538 30.5116 47.2097 30.3149 47.8747 29.6499C48.819 28.7056 48.819 27.1745 47.8747 26.2302ZM50.4913 17.784C50.5011 18.1438 50.2174 18.4436 49.8576 18.4534L47.0539 18.5304C46.694 18.5403 46.3943 18.2566 46.3844 17.8967C46.3745 17.5369 46.6582 17.2371 47.0181 17.2272L49.8218 17.1503C50.1817 17.1404 50.4814 17.4241 50.4913 17.784ZM41.9077 10.5036C41.9176 10.1438 42.2173 9.86005 42.5772 9.86992C42.9371 9.8798 43.2208 10.1795 43.2109 10.5394L43.1339 13.3431C43.1241 13.703 42.8243 13.9867 42.4645 13.9768C42.1046 13.9669 41.8209 13.6672 41.8308 13.3073L41.9077 10.5036Z"/>
</mask>
<path fill-rule="evenodd" clip-rule="evenodd" d="M47.9864 13.2967C48.3167 12.9664 48.3782 12.4922 48.1236 12.2377C47.8691 11.9831 47.3949 12.0446 47.0646 12.3749L44.3455 15.0939C44.0152 15.4243 43.9537 15.8984 44.2083 16.153C44.4629 16.4075 44.937 16.3461 45.2673 16.0158L47.9864 13.2967ZM47.8747 26.2302L44.2335 22.589C44.6149 21.9272 44.8331 21.1594 44.8331 20.3407C44.8331 17.8502 42.8142 15.8313 40.3237 15.8313C39.505 15.8313 38.7372 16.0495 38.0754 16.4309L34.6353 12.9908C33.6909 12.0465 32.1599 12.0465 31.2156 12.9908C30.5507 13.6557 30.3539 14.6114 30.6253 15.4485L24.8912 21.1826C24.418 21.6558 24.1373 22.2879 24.1037 22.9563L23.8885 27.2299C23.8757 27.4834 23.7692 27.7232 23.5898 27.9027L9.35714 42.1353C8.30256 43.1899 8.30256 44.8997 9.35714 45.9543L12.2705 48.8676L12.2864 48.8831L14.9112 51.5079C15.9658 52.5625 17.6756 52.5625 18.7302 51.5079L32.9628 37.2753C33.1423 37.0958 33.382 36.9894 33.6356 36.9766L37.9092 36.7614C38.5776 36.7277 39.2097 36.4471 39.6829 35.9739L45.4167 30.2401C46.2538 30.5116 47.2097 30.3149 47.8747 29.6499C48.819 28.7056 48.819 27.1745 47.8747 26.2302ZM50.4913 17.784C50.5011 18.1438 50.2174 18.4436 49.8576 18.4534L47.0539 18.5304C46.694 18.5403 46.3943 18.2566 46.3844 17.8967C46.3745 17.5369 46.6582 17.2371 47.0181 17.2272L49.8218 17.1503C50.1817 17.1404 50.4814 17.4241 50.4913 17.784ZM41.9077 10.5036C41.9176 10.1438 42.2173 9.86005 42.5772 9.86992C42.9371 9.8798 43.2208 10.1795 43.2109 10.5394L43.1339 13.3431C43.1241 13.703 42.8243 13.9867 42.4645 13.9768C42.1046 13.9669 41.8209 13.6672 41.8308 13.3073L41.9077 10.5036Z" fill="#F8F9FA"/>
<path d="M47.9864 13.2967L49.047 14.3573L47.9864 13.2967ZM45.2673 16.0157L44.2067 14.9551L45.2673 16.0157ZM44.2335 22.5889L42.9338 21.84C42.5951 22.4278 42.6931 23.1698 43.1728 23.6496L44.2335 22.5889ZM44.8331 20.3406L43.3331 20.3406V20.3406H44.8331ZM40.3237 15.8313L40.3237 14.3313L40.3237 14.3313L40.3237 15.8313ZM38.0754 16.4309L37.0148 17.4916C37.4945 17.9713 38.2366 18.0693 38.8244 17.7305L38.0754 16.4309ZM34.6353 12.9907L33.5746 14.0514L34.6353 12.9907ZM30.6253 15.4484L31.686 16.5091C32.0846 16.1105 32.2261 15.522 32.0522 14.9858L30.6253 15.4484ZM24.1037 22.9562L25.6018 23.0316L25.6018 23.0316L24.1037 22.9562ZM23.8885 27.2299L25.3866 27.3053L23.8885 27.2299ZM12.2705 48.8676L11.2098 49.9282C11.2144 49.9328 11.219 49.9373 11.2236 49.9418L12.2705 48.8676ZM12.2864 48.883L13.347 47.8224C13.3425 47.8178 13.3379 47.8133 13.3333 47.8088L12.2864 48.883ZM33.6356 36.9766L33.5601 35.4785L33.5601 35.4785L33.6356 36.9766ZM37.9092 36.7613L37.9847 38.2594L37.9847 38.2594L37.9092 36.7613ZM45.4167 30.24L45.8795 28.8132C45.3432 28.6392 44.7547 28.7807 44.356 29.1794L45.4167 30.24ZM49.8576 18.4534L49.8164 16.954L49.8164 16.954L49.8576 18.4534ZM47.0539 18.5303L47.0127 17.0309L47.0127 17.0309L47.0539 18.5303ZM46.3844 17.8967L47.8838 17.8555L47.8838 17.8555L46.3844 17.8967ZM47.0181 17.2272L47.0592 18.7266L47.0592 18.7266L47.0181 17.2272ZM49.8218 17.1502L49.863 18.6497L49.863 18.6497L49.8218 17.1502ZM42.5772 9.86987L42.536 11.3693L42.536 11.3693L42.5772 9.86987ZM41.9077 10.5036L40.4083 10.4624L40.4083 10.4624L41.9077 10.5036ZM43.2109 10.5393L44.7103 10.5805L44.7103 10.5805L43.2109 10.5393ZM43.1339 13.343L41.6345 13.3019L41.6345 13.3019L43.1339 13.343ZM42.4645 13.9767L42.5056 12.4773L42.5056 12.4773L42.4645 13.9767ZM41.8308 13.3073L40.3313 13.2661L40.3313 13.2661L41.8308 13.3073ZM47.0629 13.2983C46.7938 13.0291 46.7652 12.7121 46.7868 12.546C46.808 12.382 46.8768 12.285 46.9257 12.236L49.047 14.3573C49.6896 13.7148 50.265 12.2577 49.1843 11.177L47.0629 13.2983ZM48.1252 13.4355C48.0763 13.4845 47.9792 13.5532 47.8152 13.5745C47.6491 13.596 47.3321 13.5674 47.0629 13.2983L49.1843 11.177C48.1035 10.0962 46.6465 10.6716 46.0039 11.3142L48.1252 13.4355ZM45.4062 16.1546L48.1252 13.4355L46.0039 11.3142L43.2849 14.0332L45.4062 16.1546ZM45.269 15.0923C45.5381 15.3614 45.5667 15.6785 45.5451 15.8446C45.5239 16.0086 45.4551 16.1056 45.4062 16.1546L43.2849 14.0332C42.6423 14.6758 42.0669 16.1328 43.1476 17.2136L45.269 15.0923ZM44.2067 14.9551C44.2556 14.9061 44.3527 14.8373 44.5167 14.8161C44.6828 14.7946 44.9998 14.8231 45.269 15.0923L43.1476 17.2136C44.2284 18.2943 45.6854 17.7189 46.328 17.0764L44.2067 14.9551ZM46.9257 12.236L44.2067 14.9551L46.328 17.0764L49.047 14.3573L46.9257 12.236ZM43.1728 23.6496L46.814 27.2908L48.9354 25.1695L45.2941 21.5283L43.1728 23.6496ZM43.3331 20.3406C43.3331 20.8895 43.1875 21.3998 42.9338 21.84L45.5331 23.3379C46.0423 22.4544 46.3331 21.4292 46.3331 20.3406L43.3331 20.3406ZM40.3237 17.3313C41.9858 17.3313 43.3331 18.6786 43.3331 20.3406L46.3331 20.3406C46.3331 17.0218 43.6426 14.3313 40.3237 14.3313L40.3237 17.3313ZM38.8244 17.7305C39.2645 17.4769 39.7749 17.3313 40.3237 17.3313L40.3237 14.3313C39.2352 14.3313 38.21 14.6221 37.3264 15.1313L38.8244 17.7305ZM33.5746 14.0514L37.0148 17.4916L39.1361 15.3702L35.6959 11.9301L33.5746 14.0514ZM32.2762 14.0514C32.6348 13.6929 33.2161 13.6929 33.5746 14.0514L35.6959 11.9301C34.1658 10.4 31.685 10.4 30.1549 11.9301L32.2762 14.0514ZM32.0522 14.9858C31.9479 14.664 32.0253 14.3023 32.2762 14.0514L30.1549 11.9301C29.076 13.0089 28.76 14.5588 29.1984 15.9111L32.0522 14.9858ZM25.9519 22.2432L31.686 16.5091L29.5647 14.3878L23.8305 20.1219L25.9519 22.2432ZM25.6018 23.0316C25.6168 22.7345 25.7415 22.4536 25.9519 22.2432L23.8305 20.1219C23.0945 20.8579 22.6579 21.8411 22.6056 22.8808L25.6018 23.0316ZM25.3866 27.3053L25.6018 23.0316L22.6056 22.8808L22.3904 27.1544L25.3866 27.3053ZM24.6504 28.9633C25.0928 28.5209 25.3551 27.9301 25.3866 27.3053L22.3904 27.1544C22.3963 27.0367 22.4457 26.9253 22.5291 26.842L24.6504 28.9633ZM10.4178 43.1959L24.6504 28.9633L22.5291 26.842L8.29648 41.0746L10.4178 43.1959ZM10.4178 44.8935C9.94901 44.4247 9.94901 43.6647 10.4178 43.1959L8.29648 41.0746C6.65612 42.7149 6.65612 45.3745 8.29648 47.0149L10.4178 44.8935ZM13.3312 47.8069L10.4178 44.8935L8.29648 47.0149L11.2098 49.9282L13.3312 47.8069ZM13.3333 47.8088L13.3174 47.7933L11.2236 49.9418L11.2395 49.9573L13.3333 47.8088ZM15.9719 50.4472L13.347 47.8224L11.2257 49.9437L13.8506 52.5685L15.9719 50.4472ZM17.6695 50.4472C17.2007 50.916 16.4407 50.916 15.9719 50.4472L13.8506 52.5685C15.4909 54.2089 18.1505 54.2089 19.7908 52.5685L17.6695 50.4472ZM31.9021 36.2146L17.6695 50.4472L19.7908 52.5685L34.0235 38.3359L31.9021 36.2146ZM33.5601 35.4785C32.9353 35.5099 32.3445 35.7723 31.9021 36.2146L34.0235 38.3359C33.9401 38.4193 33.8288 38.4687 33.711 38.4747L33.5601 35.4785ZM37.8338 35.2632L33.5601 35.4785L33.711 38.4747L37.9847 38.2594L37.8338 35.2632ZM38.6222 34.9132C38.4119 35.1235 38.1309 35.2483 37.8338 35.2632L37.9847 38.2594C39.0243 38.2071 40.0075 37.7705 40.7436 37.0345L38.6222 34.9132ZM44.356 29.1794L38.6222 34.9132L40.7436 37.0345L46.4774 31.3007L44.356 29.1794ZM46.814 28.5892C46.5631 28.8402 46.2013 28.9176 45.8795 28.8132L44.9539 31.6668C46.3063 32.1055 47.8564 31.7895 48.9354 30.7105L46.814 28.5892ZM46.814 27.2908C47.1726 27.6494 47.1726 28.2307 46.814 28.5892L48.9354 30.7105C50.4655 29.1804 50.4655 26.6996 48.9354 25.1695L46.814 27.2908ZM49.8987 19.9528C51.0867 19.9202 52.0233 18.9307 51.9907 17.7428L48.9918 17.8251C48.979 17.3568 49.3482 16.9668 49.8164 16.954L49.8987 19.9528ZM47.095 20.0298L49.8987 19.9528L49.8164 16.954L47.0127 17.0309L47.095 20.0298ZM44.885 17.9378C44.9176 19.1258 45.907 20.0624 47.095 20.0298L47.0127 17.0309C47.481 17.0181 47.871 17.3872 47.8838 17.8555L44.885 17.9378ZM46.9769 15.7278C45.789 15.7604 44.8524 16.7498 44.885 17.9378L47.8838 17.8555C47.8967 18.3238 47.5275 18.7138 47.0592 18.7266L46.9769 15.7278ZM49.7806 15.6508L46.9769 15.7278L47.0592 18.7266L49.863 18.6497L49.7806 15.6508ZM51.9907 17.7428C51.9581 16.5548 50.9686 15.6182 49.7806 15.6508L49.863 18.6497C49.3947 18.6625 49.0047 18.2933 48.9918 17.8251L51.9907 17.7428ZM42.6184 8.37044C41.4304 8.33783 40.4409 9.27443 40.4083 10.4624L43.4072 10.5447C43.3943 11.013 43.0043 11.3822 42.536 11.3693L42.6184 8.37044ZM44.7103 10.5805C44.7429 9.39252 43.8063 8.40304 42.6184 8.37044L42.536 11.3693C42.0678 11.3565 41.6986 10.9664 41.7115 10.4982L44.7103 10.5805ZM44.6334 13.3842L44.7103 10.5805L41.7115 10.4982L41.6345 13.3019L44.6334 13.3842ZM42.4233 15.4762C43.6113 15.5088 44.6008 14.5722 44.6334 13.3842L41.6345 13.3019C41.6473 12.8336 42.0374 12.4644 42.5056 12.4773L42.4233 15.4762ZM40.3313 13.2661C40.2987 14.4541 41.2353 15.4436 42.4233 15.4762L42.5056 12.4773C42.9739 12.4902 43.3431 12.8802 43.3302 13.3484L40.3313 13.2661ZM40.4083 10.4624L40.3313 13.2661L43.3302 13.3484L43.4072 10.5447L40.4083 10.4624Z" fill="#F8F9FA" mask="url(#path-1-outside-1_50_5107)"/>
<circle cx="40.34" cy="20.3365" r="3.85751" fill="#FFD43B" stroke="#212529" stroke-width="1.4" stroke-linejoin="round"/>
<path fill-rule="evenodd" clip-rule="evenodd" d="M40.0498 20.5545C40.0499 20.5544 40.05 20.5544 40.0501 20.5545L45.5754 26.0798C46.3565 26.8609 46.3565 28.1272 45.5754 28.9082L39.1441 35.3395C38.7936 35.69 38.3255 35.8979 37.8305 35.9228L33.6627 36.1327C33.1677 36.1576 32.6995 36.3655 32.3491 36.7159L18.2513 50.8137C17.4702 51.5948 16.2039 51.5948 15.4228 50.8137L12.8799 48.2708C12.8798 48.2707 12.8797 48.2707 12.8796 48.2708V48.2708C12.8795 48.2709 12.8793 48.2709 12.8793 48.2708L10.0633 45.4548C9.28223 44.6737 9.28223 43.4074 10.0633 42.6264L24.1611 28.5286C24.5116 28.1781 24.7194 27.7099 24.7443 27.2149L24.9542 23.0471C24.9792 22.5521 25.187 22.084 25.5375 21.7335L31.9688 15.3022C32.7498 14.5212 34.0162 14.5212 34.7972 15.3022L40.0495 20.5545C40.0496 20.5546 40.0497 20.5546 40.0498 20.5545V20.5545Z" fill="#C4C4C4"/>
<path d="M24.9542 23.0471L25.8531 23.0924L24.9542 23.0471ZM24.7443 27.2149L23.8455 27.1697L24.7443 27.2149ZM10.0633 45.4548L9.42688 46.0912L10.0633 45.4548ZM12.8793 48.2708L12.2429 48.9072L12.8793 48.2708ZM33.6627 36.1327L33.6174 35.2338L33.6627 36.1327ZM39.1441 35.3395L39.7805 35.9759L39.1441 35.3395ZM37.8305 35.9228L37.7852 35.0239L37.8305 35.9228ZM40.0501 20.5545L39.4137 21.1909L40.0501 20.5545ZM45.5754 26.0798L44.939 26.7162L45.5754 26.0798ZM45.5754 28.9082L44.939 28.2718L45.5754 28.9082ZM46.2118 25.4434L40.6865 19.9181L39.4137 21.1909L44.939 26.7162L46.2118 25.4434ZM39.7805 35.9759L46.2118 29.5446L44.939 28.2718L38.5077 34.7031L39.7805 35.9759ZM33.708 37.0315L37.8758 36.8216L37.7852 35.0239L33.6174 35.2338L33.708 37.0315ZM18.8877 51.4501L32.9855 37.3523L31.7127 36.0795L17.6149 50.1773L18.8877 51.4501ZM12.2435 48.9072L14.7864 51.4501L16.0592 50.1773L13.5163 47.6344L12.2435 48.9072ZM13.5157 47.6344L10.6997 44.8184L9.42688 46.0912L12.2429 48.9072L13.5157 47.6344ZM10.6997 43.2628L24.7975 29.1649L23.5247 27.8922L9.42689 41.99L10.6997 43.2628ZM25.6432 27.2602L25.8531 23.0924L24.0554 23.0019L23.8455 27.1697L25.6432 27.2602ZM26.1739 22.3699L32.6052 15.9386L31.3324 14.6658L24.9011 21.0971L26.1739 22.3699ZM34.1608 15.9386L39.4131 21.1909L40.6859 19.9181L35.4336 14.6658L34.1608 15.9386ZM39.4131 21.1909C39.7637 21.5414 40.3336 21.5435 40.6862 21.1909L39.4134 19.9181C39.7658 19.5657 40.3355 19.5677 40.6859 19.9181L39.4131 21.1909ZM32.6052 15.9386C33.0348 15.509 33.7312 15.509 34.1608 15.9386L35.4336 14.6658C34.3011 13.5333 32.4649 13.5333 31.3324 14.6658L32.6052 15.9386ZM25.8531 23.0924C25.8668 22.8201 25.9811 22.5627 26.1739 22.3699L24.9011 21.0971C24.3929 21.6053 24.0915 22.2841 24.0554 23.0019L25.8531 23.0924ZM24.7975 29.1649C25.3057 28.6568 25.6071 27.978 25.6432 27.2602L23.8455 27.1697C23.8318 27.4419 23.7175 27.6994 23.5247 27.8922L24.7975 29.1649ZM10.6997 44.8184C10.2701 44.3888 10.2701 43.6923 10.6997 43.2628L9.42689 41.99C8.29437 43.1225 8.29436 44.9587 9.42688 46.0912L10.6997 44.8184ZM12.2432 47.6344C12.5946 47.283 13.1643 47.283 13.5157 47.6344L12.2429 48.9072C12.5944 49.2587 13.1644 49.2587 13.516 48.9072L12.2432 47.6344ZM13.5163 47.6344C13.1647 47.2828 12.5947 47.2828 12.2432 47.6344L13.516 48.9072C13.1646 49.2585 12.5949 49.2585 12.2435 48.9072L13.5163 47.6344ZM17.6149 50.1773C17.1853 50.6069 16.4888 50.6069 16.0592 50.1773L14.7864 51.4501C15.919 52.5826 17.7551 52.5826 18.8877 51.4501L17.6149 50.1773ZM33.6174 35.2338C32.8996 35.27 32.2209 35.5713 31.7127 36.0795L32.9855 37.3523C33.1782 37.1596 33.4357 37.0452 33.708 37.0315L33.6174 35.2338ZM38.5077 34.7031C38.315 34.8959 38.0575 35.0102 37.7852 35.0239L37.8758 36.8216C38.5935 36.7855 39.2723 36.4841 39.7805 35.9759L38.5077 34.7031ZM40.6865 19.9181C40.3339 19.5655 39.764 19.5676 39.4134 19.9181L40.6862 21.1909C40.3358 21.5413 39.7661 21.5433 39.4137 21.1909L40.6865 19.9181ZM44.939 26.7162C45.3686 27.1458 45.3686 27.8423 44.939 28.2718L46.2118 29.5446C47.3443 28.4121 47.3443 26.5759 46.2118 25.4434L44.939 26.7162Z" fill="#212529"/>
<rect x="28.2787" y="30.2612" width="3.30539" height="6.8889" rx="1.6527" transform="rotate(45 28.2787 30.2612)" fill="#FF6B6B" stroke="#212529" stroke-linejoin="round"/>
<path d="M25.9125 32.7661L28.111 34.9647" stroke="#212529" stroke-linejoin="round"/>
<path d="M13.7814 38.2002L22.6774 47.0962" stroke="#212529" stroke-width="1.2" stroke-linejoin="round"/>
<path d="M11.5673 40.4141L20.4633 49.3101" stroke="#212529" stroke-width="1.2" stroke-linejoin="round"/>
<g style="mix-blend-mode:multiply">
<path fill-rule="evenodd" clip-rule="evenodd" d="M40.062 19.9808L45.9387 25.8575L37.5487 34.2476L31.8427 34.5349L15.8368 50.5408L16.8997 51.6038L32.9563 35.5473L38.6623 35.2599L47.0523 26.8699L40.1126 19.9302L40.062 19.9808Z" fill="#DEE2E6"/>
</g>
<path d="M47.679 12.6938L45.5837 14.7891" stroke="#212529" stroke-width="1.4" stroke-linecap="round" stroke-linejoin="round"/>
<path d="M49.856 17.7969L47.0522 17.8738" stroke="#212529" stroke-width="1.4" stroke-linecap="round" stroke-linejoin="round"/>
<path d="M42.5756 10.5166L42.4986 13.3203" stroke="#212529" stroke-width="1.4" stroke-linecap="round" stroke-linejoin="round"/>
<rect x="32.9418" y="12.4619" width="21.8835" height="3.16009" rx="1.58004" transform="rotate(45 32.9418 12.4619)" fill="#DEE2E6" stroke="#212529" stroke-width="1.6" stroke-linejoin="round"/>
</g>
<defs>
<clipPath id="clip0_50_5107">
<rect width="60" height="60" fill="white" transform="translate(0 0.391113)"/>
</clipPath>
</defs>
</svg>
