<svg width="61" height="60" viewBox="0 0 61 60" fill="none" xmlns="http://www.w3.org/2000/svg">
<mask id="path-1-outside-1_50_8414" maskUnits="userSpaceOnUse" x="5.77844" y="8.125" width="49" height="47" fill="black">
<rect fill="white" x="5.77844" y="8.125" width="49" height="47"/>
<path fill-rule="evenodd" clip-rule="evenodd" d="M14.3135 14.8475C14.4411 14.7238 14.6355 14.5727 14.9311 14.3995C15.6704 13.9662 16.8021 13.5441 18.282 13.1773C21.2273 12.4472 25.3452 11.9859 29.928 11.9859C34.5108 11.9859 38.6287 12.4472 41.574 13.1773C43.0539 13.5441 44.1856 13.9662 44.9249 14.3995C45.2205 14.5727 45.4149 14.7238 45.5425 14.8475H14.3135ZM12.2387 15.5519C12.2206 15.4435 12.211 15.3317 12.211 15.2164C12.211 14.1059 13.0952 13.3185 13.9902 12.794C14.9498 12.2316 16.2764 11.7572 17.8343 11.371C20.9645 10.5951 25.2398 10.125 29.928 10.125C34.6162 10.125 38.8915 10.5951 42.0217 11.371C43.5796 11.7572 44.9062 12.2316 45.8658 12.794C46.7608 13.3185 47.645 14.1059 47.645 15.2164C47.645 15.3317 47.6354 15.4435 47.6173 15.5519C47.6354 15.6243 47.645 15.7 47.645 15.7779C47.645 16.6722 47.5563 17.5471 47.3959 18.3973C47.7482 18.4052 48.0886 18.4354 48.3994 18.5144C48.9281 18.6487 49.3889 18.9281 49.7176 19.4435C50.0752 20.0044 50.0198 20.6049 49.7421 21.0918C49.4897 21.5346 49.0618 21.8841 48.6212 22.1442C48.0016 22.51 46.962 22.8478 45.717 23.1449C45.3527 23.8481 44.9533 24.519 44.5338 25.1532C42.8068 27.7638 40.6977 29.8153 39.14 31.0135C38.9177 31.1845 38.6976 31.3606 38.4804 31.541C38.8561 31.6999 39.1834 31.9556 39.434 32.3486C40.0328 33.2876 39.7349 34.539 38.904 35.1767C37.9107 35.9389 36.5656 36.4245 35.0717 36.7063C34.6864 36.779 34.2877 36.8388 33.878 36.8863C33.169 38.1774 32.8409 39.3436 32.9284 40.2623C32.9938 40.9492 33.2327 41.5152 33.5784 42.0738C33.821 42.0337 34.0697 42.0129 34.3228 42.0129C35.9274 42.0129 37.3364 42.8453 38.1435 44.0995C38.389 44.0585 38.641 44.0371 38.8974 44.0371C41.405 44.0371 43.4378 46.0699 43.4378 48.5774C43.4378 49.6642 43.0561 50.6615 42.4195 51.443H52.2912C52.8051 51.443 53.2216 51.8595 53.2216 52.3734C53.2216 52.8873 52.8051 53.3038 52.2912 53.3038H8.70888C8.19502 53.3038 7.77844 52.8873 7.77844 52.3734C7.77844 51.8595 8.19502 51.443 8.70888 51.443H17.0003C16.632 50.8725 16.4182 50.1929 16.4182 49.4633C16.4182 47.445 18.0544 45.8089 20.0727 45.8089C20.1269 45.8089 20.1808 45.81 20.2345 45.8124C20.7869 44.394 22.0698 43.341 23.6217 43.1166C23.0671 42.1877 22.7091 41.1803 22.5374 39.9778C22.2814 38.1859 22.9184 36.6029 23.5192 35.4045C23.6712 35.1014 23.8257 34.814 23.9662 34.553L23.9771 34.5328L23.9773 34.5325C24.1159 34.2751 24.238 34.0485 24.3427 33.8383C24.578 33.3659 24.6345 33.1442 24.6345 33.0588C24.6345 32.1096 24.4358 31.46 24.1249 30.9659C23.549 30.9451 22.9705 30.9149 22.4027 30.8745C21.1188 30.7832 19.8708 30.6385 18.8206 30.4278C17.8065 30.2244 16.8554 29.9377 16.2662 29.4956C15.4119 28.8547 15.1069 27.5764 15.6457 26.6012C15.8431 26.2441 16.1008 25.9836 16.4044 25.7982C15.8911 25.3113 15.3909 24.7533 14.9182 24.1057C13.6895 22.4221 13.02 20.4377 12.6549 18.8638C12.2901 17.291 12.211 16.0467 12.211 15.7779C12.211 15.7 12.2206 15.6243 12.2387 15.5519ZM45.6157 17.7789C45.373 19.2358 44.8823 20.6353 44.2388 21.9442C43.0927 22.1738 41.7707 22.3821 40.3564 22.5488C36.76 22.9725 32.6282 23.1194 29.327 22.6851C28.9194 22.6315 28.5456 22.9185 28.4919 23.326C28.4383 23.7336 28.7253 24.1075 29.1329 24.1611C32.6015 24.6174 36.8674 24.4588 40.5306 24.0272C41.5001 23.913 42.4317 23.7792 43.2995 23.6314C43.1956 23.7984 43.0896 23.9635 42.9818 24.1265C41.3805 26.547 39.4188 28.4513 38.0054 29.5385C36.0807 31.0191 34.2948 32.858 33.0181 34.7367C32.8458 34.9902 32.681 35.2471 32.5252 35.5066C31.7675 35.5476 30.9724 35.5501 30.1549 35.5158C29.7442 35.4986 29.3973 35.8177 29.3801 36.2284C29.3629 36.6391 29.6819 36.986 30.0926 37.0032C30.6487 37.0265 31.1989 37.0338 31.7387 37.0241C31.2387 38.1801 30.9719 39.3461 31.0759 40.4387C31.086 40.5445 31.0989 40.6484 31.1145 40.7504C30.58 40.5842 30.011 40.4947 29.4213 40.4947C27.7885 40.4947 26.315 41.1809 25.2898 42.2794C24.7978 41.4936 24.5182 40.6855 24.3795 39.7146C24.207 38.5068 24.6232 37.3547 25.1828 36.2385C25.3209 35.963 25.4632 35.698 25.6046 35.4354L25.6221 35.4029C25.7553 35.1557 25.8901 34.9055 26.0084 34.6679C26.235 34.213 26.4954 33.632 26.4954 33.0588C26.4954 32.2805 26.3892 31.6007 26.1864 31.0012C27.4531 30.9989 28.6199 30.9514 29.5235 30.8678C29.9329 30.8299 30.234 30.4673 30.1961 30.058C30.1583 29.6486 29.7957 29.3475 29.3864 29.3854C28.3435 29.4819 26.905 29.5287 25.3651 29.5076C25.3387 29.4751 25.3119 29.4428 25.2846 29.4108C24.5366 28.5338 23.5224 27.9583 22.5273 27.4514C22.2924 27.3319 22.0551 27.2141 21.816 27.0955L21.8154 27.0952L21.8148 27.0949L21.8141 27.0946L21.8132 27.0941L21.8126 27.0938C20.8985 26.6404 19.9604 26.1751 19.0499 25.5505C19.0063 25.5118 18.9582 25.4782 18.9064 25.4505C18.035 24.8342 17.1914 24.0638 16.4214 23.0087C15.3986 21.6073 14.8039 19.8925 14.4677 18.4433C14.4185 18.2311 14.3751 18.026 14.3369 17.8299C15.2591 18.3094 16.4562 18.7201 17.8343 19.0617C20.9645 19.8376 25.2398 20.3077 29.928 20.3077C34.6162 20.3077 38.8915 19.8376 42.0217 19.0617C43.4485 18.708 44.6812 18.2803 45.6157 17.7789ZM43.4192 16.7083C42.8835 16.8998 42.2669 17.0837 41.574 17.2554C38.6287 17.9855 34.5108 18.4468 29.928 18.4468C25.3452 18.4468 21.2273 17.9855 18.282 17.2554C17.5891 17.0837 16.9725 16.8998 16.4368 16.7083H43.4192ZM41.9491 48.5774C41.9491 49.8928 41.1164 51.0144 39.9497 51.443H34.3185C34.5918 51.2579 34.9121 51.0313 35.1977 50.7286C35.8829 50.0026 36.2176 49.0157 36.2176 47.4166C36.2176 45.7023 35.3702 44.4963 34.6235 43.5162C35.7187 43.6233 36.6453 44.3094 37.0912 45.2671C37.2485 45.6051 37.6317 45.7745 37.9876 45.6636C38.274 45.5742 38.5794 45.5258 38.8974 45.5258C40.5828 45.5258 41.9491 46.8921 41.9491 48.5774ZM31.8777 51.3988C31.8777 51.4136 31.8781 51.4283 31.8788 51.443H19.1928C18.4353 51.1057 17.9069 50.3461 17.9069 49.4633C17.9069 48.2672 18.8766 47.2976 20.0727 47.2976C20.2509 47.2976 20.4231 47.3189 20.5873 47.3589C20.7831 47.4066 20.9898 47.3728 21.1602 47.2655C21.3306 47.1581 21.4503 46.9862 21.4918 46.7891C21.7599 45.5161 22.8906 44.5608 24.2427 44.5608C24.406 44.5608 24.5656 44.5747 24.7204 44.6011C25.7128 45.7254 27.0374 46.826 28.7162 48.1477C29.1328 48.4757 29.5555 48.7636 29.9318 49.0198L29.932 49.0199L30.0317 49.0878C30.4452 49.3698 30.7888 49.6094 31.0762 49.8582C31.6159 50.3255 31.8777 50.7517 31.8777 51.3988ZM31.8024 42.7227C32.1436 43.3429 32.5514 43.8732 32.9155 44.3468L33.0133 44.4741C33.8093 45.5125 34.3567 46.2997 34.3567 47.4166C34.3567 48.7517 34.083 49.1985 33.8444 49.4514C33.7269 49.5758 33.5866 49.686 33.3913 49.8222C33.1259 49.2734 32.7322 48.8306 32.2943 48.4514C31.9143 48.1224 31.4847 47.8263 31.0801 47.5504L30.9869 47.4869C30.6025 47.225 30.2311 46.972 29.8673 46.6856C28.2396 45.4041 27.0597 44.409 26.2155 43.4803C26.9672 42.5697 28.1215 41.9834 29.4213 41.9834C30.3104 41.9834 31.1315 42.2576 31.8024 42.7227ZM46.5192 21.3902C46.7136 20.9 46.8878 20.3978 47.0379 19.8847C47.4907 19.8796 47.8016 19.8985 48.0327 19.9572C48.2559 20.0139 48.3691 20.0978 48.4624 20.244C48.4747 20.2634 48.4783 20.2743 48.4791 20.2769L48.4795 20.2783L48.4791 20.2816C48.4787 20.2841 48.4779 20.2883 48.4761 20.2943C48.4724 20.3065 48.4647 20.3266 48.4489 20.3544C48.3767 20.481 48.1939 20.6677 47.8645 20.8622C47.5931 21.0223 47.1385 21.2032 46.5192 21.3902ZM34.9644 35.2105C36.259 34.9491 37.2915 34.5376 37.9976 33.9957C38.2676 33.7885 38.3285 33.3837 38.1788 33.149C38.0855 33.0028 37.9723 32.9189 37.7491 32.8622C37.5808 32.8195 37.3702 32.7978 37.0934 32.7912C36.3025 33.5644 35.5794 34.3835 34.9644 35.2105ZM21.0003 28.7696C20.0107 28.2817 18.8753 27.7218 17.7418 26.9038C17.6001 26.9229 17.4811 26.948 17.3789 26.9809C17.1657 27.0493 17.0471 27.1432 16.9487 27.3212C16.7774 27.6313 16.8854 28.099 17.1596 28.3048C17.4571 28.528 18.111 28.7671 19.1134 28.9682C19.9912 29.1443 21.0455 29.2749 22.1675 29.3639C22.0137 29.2804 21.8522 29.196 21.6827 29.1096C21.4649 28.9987 21.2368 28.8862 21.0003 28.7696ZM50.9339 27.9324C50.8716 27.7024 50.6886 27.5247 50.4568 27.4693C50.2249 27.4138 49.9814 27.4894 49.8217 27.6663L47.5433 30.191C47.4103 30.3384 47.3518 30.5385 47.3844 30.7344L47.9386 34.0596C47.98 34.3081 48.1611 34.5105 48.4035 34.5791C48.6459 34.6478 48.9062 34.5705 49.0719 34.3806L51.5965 31.4865C51.7395 31.3226 51.7912 31.0981 51.7344 30.8881L50.9339 27.9324ZM48.9968 32.4851L48.721 30.8303L49.9887 29.4256L50.386 30.8926L48.9968 32.4851ZM12.8539 36.3152C12.981 36.1136 13.2081 35.9976 13.446 36.0126L16.502 36.2064C16.7191 36.2202 16.915 36.3414 17.0242 36.5296L18.9513 39.8516C19.0778 40.0696 19.0672 40.3409 18.9241 40.5483C18.781 40.7557 18.5311 40.862 18.2825 40.8212L14.956 40.2752C14.76 40.2431 14.5894 40.1233 14.4926 39.9498L12.836 36.9799C12.7199 36.7718 12.7268 36.5168 12.8539 36.3152ZM15.4771 39.0407L17.1326 39.3124L16.0722 37.4844L14.5553 37.3882L15.4771 39.0407Z"/>
</mask>
<path fill-rule="evenodd" clip-rule="evenodd" d="M14.3135 14.8475C14.4411 14.7238 14.6355 14.5727 14.9311 14.3995C15.6704 13.9662 16.8021 13.5441 18.282 13.1773C21.2273 12.4472 25.3452 11.9859 29.928 11.9859C34.5108 11.9859 38.6287 12.4472 41.574 13.1773C43.0539 13.5441 44.1856 13.9662 44.9249 14.3995C45.2205 14.5727 45.4149 14.7238 45.5425 14.8475H14.3135ZM12.2387 15.5519C12.2206 15.4435 12.211 15.3317 12.211 15.2164C12.211 14.1059 13.0952 13.3185 13.9902 12.794C14.9498 12.2316 16.2764 11.7572 17.8343 11.371C20.9645 10.5951 25.2398 10.125 29.928 10.125C34.6162 10.125 38.8915 10.5951 42.0217 11.371C43.5796 11.7572 44.9062 12.2316 45.8658 12.794C46.7608 13.3185 47.645 14.1059 47.645 15.2164C47.645 15.3317 47.6354 15.4435 47.6173 15.5519C47.6354 15.6243 47.645 15.7 47.645 15.7779C47.645 16.6722 47.5563 17.5471 47.3959 18.3973C47.7482 18.4052 48.0886 18.4354 48.3994 18.5144C48.9281 18.6487 49.3889 18.9281 49.7176 19.4435C50.0752 20.0044 50.0198 20.6049 49.7421 21.0918C49.4897 21.5346 49.0618 21.8841 48.6212 22.1442C48.0016 22.51 46.962 22.8478 45.717 23.1449C45.3527 23.8481 44.9533 24.519 44.5338 25.1532C42.8068 27.7638 40.6977 29.8153 39.14 31.0135C38.9177 31.1845 38.6976 31.3606 38.4804 31.541C38.8561 31.6999 39.1834 31.9556 39.434 32.3486C40.0328 33.2876 39.7349 34.539 38.904 35.1767C37.9107 35.9389 36.5656 36.4245 35.0717 36.7063C34.6864 36.779 34.2877 36.8388 33.878 36.8863C33.169 38.1774 32.8409 39.3436 32.9284 40.2623C32.9938 40.9492 33.2327 41.5152 33.5784 42.0738C33.821 42.0337 34.0697 42.0129 34.3228 42.0129C35.9274 42.0129 37.3364 42.8453 38.1435 44.0995C38.389 44.0585 38.641 44.0371 38.8974 44.0371C41.405 44.0371 43.4378 46.0699 43.4378 48.5774C43.4378 49.6642 43.0561 50.6615 42.4195 51.443H52.2912C52.8051 51.443 53.2216 51.8595 53.2216 52.3734C53.2216 52.8873 52.8051 53.3038 52.2912 53.3038H8.70888C8.19502 53.3038 7.77844 52.8873 7.77844 52.3734C7.77844 51.8595 8.19502 51.443 8.70888 51.443H17.0003C16.632 50.8725 16.4182 50.1929 16.4182 49.4633C16.4182 47.445 18.0544 45.8089 20.0727 45.8089C20.1269 45.8089 20.1808 45.81 20.2345 45.8124C20.7869 44.394 22.0698 43.341 23.6217 43.1166C23.0671 42.1877 22.7091 41.1803 22.5374 39.9778C22.2814 38.1859 22.9184 36.6029 23.5192 35.4045C23.6712 35.1014 23.8257 34.814 23.9662 34.553L23.9771 34.5328L23.9773 34.5325C24.1159 34.2751 24.238 34.0485 24.3427 33.8383C24.578 33.3659 24.6345 33.1442 24.6345 33.0588C24.6345 32.1096 24.4358 31.46 24.1249 30.9659C23.549 30.9451 22.9705 30.9149 22.4027 30.8745C21.1188 30.7832 19.8708 30.6385 18.8206 30.4278C17.8065 30.2244 16.8554 29.9377 16.2662 29.4956C15.4119 28.8547 15.1069 27.5764 15.6457 26.6012C15.8431 26.2441 16.1008 25.9836 16.4044 25.7982C15.8911 25.3113 15.3909 24.7533 14.9182 24.1057C13.6895 22.4221 13.02 20.4377 12.6549 18.8638C12.2901 17.291 12.211 16.0467 12.211 15.7779C12.211 15.7 12.2206 15.6243 12.2387 15.5519ZM45.6157 17.7789C45.373 19.2358 44.8823 20.6353 44.2388 21.9442C43.0927 22.1738 41.7707 22.3821 40.3564 22.5488C36.76 22.9725 32.6282 23.1194 29.327 22.6851C28.9194 22.6315 28.5456 22.9185 28.4919 23.326C28.4383 23.7336 28.7253 24.1075 29.1329 24.1611C32.6015 24.6174 36.8674 24.4588 40.5306 24.0272C41.5001 23.913 42.4317 23.7792 43.2995 23.6314C43.1956 23.7984 43.0896 23.9635 42.9818 24.1265C41.3805 26.547 39.4188 28.4513 38.0054 29.5385C36.0807 31.0191 34.2948 32.858 33.0181 34.7367C32.8458 34.9902 32.681 35.2471 32.5252 35.5066C31.7675 35.5476 30.9724 35.5501 30.1549 35.5158C29.7442 35.4986 29.3973 35.8177 29.3801 36.2284C29.3629 36.6391 29.6819 36.986 30.0926 37.0032C30.6487 37.0265 31.1989 37.0338 31.7387 37.0241C31.2387 38.1801 30.9719 39.3461 31.0759 40.4387C31.086 40.5445 31.0989 40.6484 31.1145 40.7504C30.58 40.5842 30.011 40.4947 29.4213 40.4947C27.7885 40.4947 26.315 41.1809 25.2898 42.2794C24.7978 41.4936 24.5182 40.6855 24.3795 39.7146C24.207 38.5068 24.6232 37.3547 25.1828 36.2385C25.3209 35.963 25.4632 35.698 25.6046 35.4354L25.6221 35.4029C25.7553 35.1557 25.8901 34.9055 26.0084 34.6679C26.235 34.213 26.4954 33.632 26.4954 33.0588C26.4954 32.2805 26.3892 31.6007 26.1864 31.0012C27.4531 30.9989 28.6199 30.9514 29.5235 30.8678C29.9329 30.8299 30.234 30.4673 30.1961 30.058C30.1583 29.6486 29.7957 29.3475 29.3864 29.3854C28.3435 29.4819 26.905 29.5287 25.3651 29.5076C25.3387 29.4751 25.3119 29.4428 25.2846 29.4108C24.5366 28.5338 23.5224 27.9583 22.5273 27.4514C22.2924 27.3319 22.0551 27.2141 21.816 27.0955L21.8154 27.0952L21.8148 27.0949L21.8141 27.0946L21.8132 27.0941L21.8126 27.0938C20.8985 26.6404 19.9604 26.1751 19.0499 25.5505C19.0063 25.5118 18.9582 25.4782 18.9064 25.4505C18.035 24.8342 17.1914 24.0638 16.4214 23.0087C15.3986 21.6073 14.8039 19.8925 14.4677 18.4433C14.4185 18.2311 14.3751 18.026 14.3369 17.8299C15.2591 18.3094 16.4562 18.7201 17.8343 19.0617C20.9645 19.8376 25.2398 20.3077 29.928 20.3077C34.6162 20.3077 38.8915 19.8376 42.0217 19.0617C43.4485 18.708 44.6812 18.2803 45.6157 17.7789ZM43.4192 16.7083C42.8835 16.8998 42.2669 17.0837 41.574 17.2554C38.6287 17.9855 34.5108 18.4468 29.928 18.4468C25.3452 18.4468 21.2273 17.9855 18.282 17.2554C17.5891 17.0837 16.9725 16.8998 16.4368 16.7083H43.4192ZM41.9491 48.5774C41.9491 49.8928 41.1164 51.0144 39.9497 51.443H34.3185C34.5918 51.2579 34.9121 51.0313 35.1977 50.7286C35.8829 50.0026 36.2176 49.0157 36.2176 47.4166C36.2176 45.7023 35.3702 44.4963 34.6235 43.5162C35.7187 43.6233 36.6453 44.3094 37.0912 45.2671C37.2485 45.6051 37.6317 45.7745 37.9876 45.6636C38.274 45.5742 38.5794 45.5258 38.8974 45.5258C40.5828 45.5258 41.9491 46.8921 41.9491 48.5774ZM31.8777 51.3988C31.8777 51.4136 31.8781 51.4283 31.8788 51.443H19.1928C18.4353 51.1057 17.9069 50.3461 17.9069 49.4633C17.9069 48.2672 18.8766 47.2976 20.0727 47.2976C20.2509 47.2976 20.4231 47.3189 20.5873 47.3589C20.7831 47.4066 20.9898 47.3728 21.1602 47.2655C21.3306 47.1581 21.4503 46.9862 21.4918 46.7891C21.7599 45.5161 22.8906 44.5608 24.2427 44.5608C24.406 44.5608 24.5656 44.5747 24.7204 44.6011C25.7128 45.7254 27.0374 46.826 28.7162 48.1477C29.1328 48.4757 29.5555 48.7636 29.9318 49.0198L29.932 49.0199L30.0317 49.0878C30.4452 49.3698 30.7888 49.6094 31.0762 49.8582C31.6159 50.3255 31.8777 50.7517 31.8777 51.3988ZM31.8024 42.7227C32.1436 43.3429 32.5514 43.8732 32.9155 44.3468L33.0133 44.4741C33.8093 45.5125 34.3567 46.2997 34.3567 47.4166C34.3567 48.7517 34.083 49.1985 33.8444 49.4514C33.7269 49.5758 33.5866 49.686 33.3913 49.8222C33.1259 49.2734 32.7322 48.8306 32.2943 48.4514C31.9143 48.1224 31.4847 47.8263 31.0801 47.5504L30.9869 47.4869C30.6025 47.225 30.2311 46.972 29.8673 46.6856C28.2396 45.4041 27.0597 44.409 26.2155 43.4803C26.9672 42.5697 28.1215 41.9834 29.4213 41.9834C30.3104 41.9834 31.1315 42.2576 31.8024 42.7227ZM46.5192 21.3902C46.7136 20.9 46.8878 20.3978 47.0379 19.8847C47.4907 19.8796 47.8016 19.8985 48.0327 19.9572C48.2559 20.0139 48.3691 20.0978 48.4624 20.244C48.4747 20.2634 48.4783 20.2743 48.4791 20.2769L48.4795 20.2783L48.4791 20.2816C48.4787 20.2841 48.4779 20.2883 48.4761 20.2943C48.4724 20.3065 48.4647 20.3266 48.4489 20.3544C48.3767 20.481 48.1939 20.6677 47.8645 20.8622C47.5931 21.0223 47.1385 21.2032 46.5192 21.3902ZM34.9644 35.2105C36.259 34.9491 37.2915 34.5376 37.9976 33.9957C38.2676 33.7885 38.3285 33.3837 38.1788 33.149C38.0855 33.0028 37.9723 32.9189 37.7491 32.8622C37.5808 32.8195 37.3702 32.7978 37.0934 32.7912C36.3025 33.5644 35.5794 34.3835 34.9644 35.2105ZM21.0003 28.7696C20.0107 28.2817 18.8753 27.7218 17.7418 26.9038C17.6001 26.9229 17.4811 26.948 17.3789 26.9809C17.1657 27.0493 17.0471 27.1432 16.9487 27.3212C16.7774 27.6313 16.8854 28.099 17.1596 28.3048C17.4571 28.528 18.111 28.7671 19.1134 28.9682C19.9912 29.1443 21.0455 29.2749 22.1675 29.3639C22.0137 29.2804 21.8522 29.196 21.6827 29.1096C21.4649 28.9987 21.2368 28.8862 21.0003 28.7696ZM50.9339 27.9324C50.8716 27.7024 50.6886 27.5247 50.4568 27.4693C50.2249 27.4138 49.9814 27.4894 49.8217 27.6663L47.5433 30.191C47.4103 30.3384 47.3518 30.5385 47.3844 30.7344L47.9386 34.0596C47.98 34.3081 48.1611 34.5105 48.4035 34.5791C48.6459 34.6478 48.9062 34.5705 49.0719 34.3806L51.5965 31.4865C51.7395 31.3226 51.7912 31.0981 51.7344 30.8881L50.9339 27.9324ZM48.9968 32.4851L48.721 30.8303L49.9887 29.4256L50.386 30.8926L48.9968 32.4851ZM12.8539 36.3152C12.981 36.1136 13.2081 35.9976 13.446 36.0126L16.502 36.2064C16.7191 36.2202 16.915 36.3414 17.0242 36.5296L18.9513 39.8516C19.0778 40.0696 19.0672 40.3409 18.9241 40.5483C18.781 40.7557 18.5311 40.862 18.2825 40.8212L14.956 40.2752C14.76 40.2431 14.5894 40.1233 14.4926 39.9498L12.836 36.9799C12.7199 36.7718 12.7268 36.5168 12.8539 36.3152ZM15.4771 39.0407L17.1326 39.3124L16.0722 37.4844L14.5553 37.3882L15.4771 39.0407Z" fill="#F8F9FA"/>
<path d="M14.9311 14.3995L15.6895 15.6936L15.6895 15.6936L14.9311 14.3995ZM14.3135 14.8475L13.2696 13.7703C12.8308 14.1955 12.6939 14.8444 12.9232 15.4106C13.1526 15.9769 13.7025 16.3475 14.3135 16.3475V14.8475ZM18.282 13.1773L17.9211 11.7213L17.9211 11.7213L18.282 13.1773ZM41.574 13.1773L41.2131 14.6332L41.2131 14.6332L41.574 13.1773ZM44.9249 14.3995L44.1665 15.6936L44.1665 15.6936L44.9249 14.3995ZM45.5425 14.8475V16.3475C46.1535 16.3475 46.7034 15.9769 46.9328 15.4106C47.1621 14.8444 47.0251 14.1955 46.5864 13.7703L45.5425 14.8475ZM12.2387 15.5519L13.694 15.915C13.7438 15.7155 13.752 15.5079 13.7182 15.305L12.2387 15.5519ZM13.9902 12.794L14.7486 14.0881L14.7486 14.0881L13.9902 12.794ZM17.8343 11.371L18.1952 12.827L18.1952 12.827L17.8343 11.371ZM42.0217 11.371L42.3826 9.91509L42.3826 9.91509L42.0217 11.371ZM45.8658 12.794L45.1074 14.0881L45.1074 14.0881L45.8658 12.794ZM47.6173 15.5519L46.1378 15.305C46.1039 15.5079 46.1122 15.7155 46.1619 15.915L47.6173 15.5519ZM47.3959 18.3973L45.9219 18.1192C45.8403 18.5522 45.9531 18.9991 46.2304 19.3415C46.5077 19.6838 46.9216 19.8869 47.362 19.8969L47.3959 18.3973ZM48.3994 18.5143L48.0299 19.9681L48.0299 19.9681L48.3994 18.5143ZM49.7176 19.4435L50.9823 18.637L50.9823 18.637L49.7176 19.4435ZM49.7421 21.0918L51.0452 21.8348L51.0452 21.8348L49.7421 21.0918ZM48.6212 22.1442L47.8587 20.8524L47.8587 20.8524L48.6212 22.1442ZM45.717 23.1449L45.3688 21.6859C44.9447 21.7871 44.5857 22.0678 44.3851 22.4549L45.717 23.1449ZM44.5338 25.1532L43.2827 24.3256L43.2827 24.3256L44.5338 25.1532ZM39.14 31.0135L40.0546 32.2024L40.0546 32.2024L39.14 31.0135ZM38.4804 31.541L37.522 30.3871C37.1192 30.7216 36.92 31.242 36.9964 31.7599C37.0729 32.2779 37.4138 32.7185 37.896 32.9225L38.4804 31.541ZM39.434 32.3485L38.1693 33.1551L38.1693 33.1551L39.434 32.3485ZM38.904 35.1767L39.8172 36.3666L39.8172 36.3666L38.904 35.1767ZM35.0717 36.7063L34.7936 35.2323L34.7936 35.2323L35.0717 36.7063ZM33.878 36.8863L33.7053 35.3962C33.2227 35.4522 32.797 35.7384 32.5632 36.1643L33.878 36.8863ZM32.9284 40.2623L31.4352 40.4045L31.4352 40.4045L32.9284 40.2623ZM33.5784 42.0738L32.303 42.8632C32.6229 43.3801 33.2231 43.6528 33.8229 43.5537L33.5784 42.0738ZM38.1435 44.0995L36.8821 44.9113C37.2065 45.4153 37.7999 45.6779 38.3911 45.579L38.1435 44.0995ZM42.4195 51.4429L41.2566 50.4955C40.8908 50.9444 40.8161 51.5637 41.0646 52.0867C41.3131 52.6097 41.8405 52.9429 42.4195 52.9429V51.4429ZM17.0003 51.4429V52.9429C17.5496 52.9429 18.0549 52.6428 18.3176 52.1604C18.5803 51.6781 18.5584 51.0907 18.2604 50.6293L17.0003 51.4429ZM20.2345 45.8124L20.169 47.3109C20.8107 47.339 21.3992 46.9553 21.6323 46.3567L20.2345 45.8124ZM23.6217 43.1166L23.8364 44.6012C24.3327 44.5294 24.7604 44.2143 24.976 43.7616C25.1916 43.3088 25.1667 42.7782 24.9096 42.3476L23.6217 43.1166ZM22.5374 39.9778L24.0223 39.7656L24.0223 39.7656L22.5374 39.9778ZM23.5192 35.4045L24.8601 36.0768L24.8602 36.0767L23.5192 35.4045ZM23.9662 34.553L22.6456 33.8417L22.6456 33.8417L23.9662 34.553ZM23.9771 34.5328L25.2978 35.2441L25.3021 35.2359L23.9771 34.5328ZM23.9773 34.5325L22.6566 33.8212L22.6523 33.8295L23.9773 34.5325ZM24.3427 33.8383L23 33.1695L23 33.1695L24.3427 33.8383ZM24.1249 30.9659L25.3945 30.167C25.1301 29.7469 24.675 29.4848 24.179 29.4669L24.1249 30.9659ZM22.4027 30.8745L22.2962 32.3707L22.2962 32.3707L22.4027 30.8745ZM18.8206 30.4278L19.1156 28.9571L19.1156 28.9571L18.8206 30.4278ZM16.2662 29.4956L15.3661 30.6955L15.3661 30.6955L16.2662 29.4956ZM15.6457 26.6012L16.9586 27.3266L16.9586 27.3266L15.6457 26.6012ZM16.4044 25.7982L17.1862 27.0783C17.5845 26.835 17.8469 26.4202 17.896 25.956C17.9452 25.4918 17.7754 25.0312 17.4367 24.7099L16.4044 25.7982ZM14.9182 24.1057L13.7066 24.99L13.7066 24.99L14.9182 24.1057ZM12.6549 18.8638L11.1937 19.2027L11.1937 19.2027L12.6549 18.8638ZM44.2388 21.9442L44.5334 23.415C44.9906 23.3234 45.3792 23.0244 45.585 22.606L44.2388 21.9442ZM45.6157 17.7789L47.0953 18.0254C47.1893 17.4612 46.9543 16.8926 46.4893 16.5595C46.0244 16.2264 45.4105 16.1867 44.9065 16.4571L45.6157 17.7789ZM40.3564 22.5488L40.5319 24.0385L40.5319 24.0385L40.3564 22.5488ZM29.327 22.6851L29.5227 21.1979L29.5226 21.1979L29.327 22.6851ZM28.4919 23.326L29.9791 23.5217L29.9791 23.5217L28.4919 23.326ZM29.1329 24.1611L29.3285 22.6739L29.3285 22.6739L29.1329 24.1611ZM40.5306 24.0272L40.355 22.5375L40.355 22.5375L40.5306 24.0272ZM43.2995 23.6314L44.5731 24.4239C44.885 23.9227 44.8739 23.2852 44.5448 22.7951C44.2157 22.3051 43.6298 22.0536 43.0478 22.1527L43.2995 23.6314ZM42.9818 24.1265L41.7307 23.2989L41.7307 23.2989L42.9818 24.1265ZM38.0054 29.5385L37.0909 28.3496L37.0909 28.3496L38.0054 29.5385ZM33.0181 34.7367L34.2587 35.5798L34.2587 35.5798L33.0181 34.7367ZM32.5252 35.5066L32.6062 37.0044C33.1034 36.9775 33.5548 36.7056 33.8112 36.2788L32.5252 35.5066ZM30.1549 35.5158L30.2176 34.0171L30.2176 34.0171L30.1549 35.5158ZM29.3801 36.2284L27.8814 36.1657L27.8814 36.1657L29.3801 36.2284ZM30.0926 37.0032L30.0299 38.5019L30.0299 38.5019L30.0926 37.0032ZM31.7387 37.0241L33.1154 37.6196C33.3179 37.1516 33.2687 36.6128 32.9849 36.1892C32.7011 35.7656 32.2215 35.5151 31.7116 35.5243L31.7387 37.0241ZM31.0759 40.4387L29.5827 40.5809L29.5827 40.5809L31.0759 40.4387ZM31.1145 40.7504L30.6693 42.1828C31.163 42.3362 31.701 42.2246 32.0929 41.8874C32.4848 41.5502 32.6754 41.0349 32.5973 40.5238L31.1145 40.7504ZM25.2898 42.2794L24.0184 43.0754C24.2657 43.4703 24.6825 43.7279 25.1464 43.7725C25.6102 43.817 26.0685 43.6435 26.3864 43.3028L25.2898 42.2794ZM24.3795 39.7146L22.8946 39.9267L22.8946 39.9267L24.3795 39.7146ZM25.1828 36.2385L23.8418 35.5662L23.8418 35.5662L25.1828 36.2385ZM25.6046 35.4354L24.284 34.7241L24.284 34.7241L25.6046 35.4354ZM25.6221 35.4029L24.3015 34.6915L24.3015 34.6915L25.6221 35.4029ZM26.0084 34.6679L27.351 35.3367L27.351 35.3367L26.0084 34.6679ZM26.1864 31.0012L26.1836 29.5012C25.7007 29.5021 25.2478 29.7354 24.9667 30.1281C24.6856 30.5207 24.6107 31.0247 24.7655 31.4821L26.1864 31.0012ZM29.5235 30.8678L29.3853 29.3741L29.3853 29.3741L29.5235 30.8678ZM30.1961 30.058L28.7025 30.1962L28.7025 30.1962L30.1961 30.058ZM29.3864 29.3854L29.2481 27.8918L29.2481 27.8918L29.3864 29.3854ZM25.3651 29.5076L24.1997 30.452C24.48 30.7979 24.8994 31.0014 25.3446 31.0075L25.3651 29.5076ZM25.2846 29.4108L26.426 28.4375L26.4259 28.4375L25.2846 29.4108ZM22.5273 27.4514L23.208 26.1148L23.208 26.1148L22.5273 27.4514ZM21.816 27.0955L21.1452 28.4372L21.1495 28.4393L21.816 27.0955ZM21.8154 27.0952L22.4863 25.7536L22.4812 25.7511L21.8154 27.0952ZM21.8148 27.0949L21.1482 28.4387L21.149 28.4391L21.8148 27.0949ZM21.8141 27.0946L22.4807 25.7508L22.4784 25.7497L21.8141 27.0946ZM21.8132 27.0941L21.1482 28.4387L21.1488 28.439L21.8132 27.0941ZM21.8126 27.0938L21.1461 28.4376L21.1477 28.4384L21.8126 27.0938ZM19.0499 25.5505L18.0545 26.6726C18.101 26.7139 18.1501 26.7522 18.2014 26.7874L19.0499 25.5505ZM18.9064 25.4505L18.0403 26.6752C18.0912 26.7112 18.1444 26.744 18.1994 26.7734L18.9064 25.4505ZM16.4214 23.0087L15.2097 23.893L15.2097 23.893L16.4214 23.0087ZM14.4677 18.4433L15.9289 18.1043L15.9289 18.1043L14.4677 18.4433ZM14.3369 17.8299L15.0289 16.4991C14.518 16.2334 13.9002 16.2837 13.439 16.6284C12.9777 16.9731 12.7545 17.5514 12.8646 18.1166L14.3369 17.8299ZM17.8343 19.0617L18.1952 17.6057L18.1952 17.6057L17.8343 19.0617ZM42.0217 19.0617L41.6608 17.6057L41.6608 17.6057L42.0217 19.0617ZM41.574 17.2554L41.2131 15.7995L41.2131 15.7995L41.574 17.2554ZM43.4192 16.7083L43.924 18.1208C44.611 17.8753 45.0217 17.171 44.8971 16.4522C44.7725 15.7333 44.1488 15.2083 43.4192 15.2083V16.7083ZM18.282 17.2554L18.6429 15.7995L18.6429 15.7995L18.282 17.2554ZM16.4368 16.7083V15.2083C15.7072 15.2083 15.0835 15.7333 14.9589 16.4522C14.8342 17.171 15.245 17.8753 15.932 18.1208L16.4368 16.7083ZM39.9497 51.4429V52.9429C40.1262 52.9429 40.3013 52.9118 40.467 52.851L39.9497 51.4429ZM34.3185 51.4429L33.4774 50.2009C32.9318 50.5705 32.6912 51.2528 32.8845 51.8828C33.0777 52.5128 33.6595 52.9429 34.3185 52.9429V51.4429ZM35.1977 50.7286L34.1069 49.6991L34.1068 49.6991L35.1977 50.7286ZM34.6235 43.5162L34.7695 42.0234C34.1756 41.9653 33.6039 42.2647 33.3133 42.7858C33.0228 43.307 33.0687 43.9507 33.4303 44.4253L34.6235 43.5162ZM37.0912 45.2671L38.451 44.634L38.451 44.634L37.0912 45.2671ZM37.9876 45.6636L38.4341 47.0955L38.4341 47.0955L37.9876 45.6636ZM31.8788 51.4429V52.9429C32.2889 52.9429 32.6811 52.775 32.9642 52.4782C33.2473 52.1814 33.3965 51.7817 33.3771 51.372L31.8788 51.4429ZM19.1928 51.4429L18.5827 52.8133C18.7748 52.8988 18.9826 52.9429 19.1928 52.9429V51.4429ZM20.5873 47.3589L20.9422 45.9015L20.9421 45.9015L20.5873 47.3589ZM21.1602 47.2655L20.3606 45.9963L20.3606 45.9963L21.1602 47.2655ZM21.4918 46.7891L22.9596 47.0982L22.9596 47.0982L21.4918 46.7891ZM24.7204 44.6011L25.845 43.6085C25.6183 43.3517 25.3107 43.1803 24.9731 43.1226L24.7204 44.6011ZM28.7162 48.1477L27.7883 49.3262L27.7883 49.3262L28.7162 48.1477ZM29.9318 49.0198L29.0875 50.2596C29.1004 50.2684 29.1134 50.277 29.1265 50.2853L29.9318 49.0198ZM29.932 49.0199L30.7766 47.7803C30.7636 47.7714 30.7505 47.7628 30.7373 47.7544L29.932 49.0199ZM30.0317 49.0878L30.8768 47.8485L30.8762 47.8482L30.0317 49.0878ZM31.0762 49.8582L30.0943 50.9922L30.0943 50.9922L31.0762 49.8582ZM32.9155 44.3468L34.1051 43.433L34.1046 43.4324L32.9155 44.3468ZM31.8024 42.7227L33.1166 41.9996C33.0048 41.7965 32.8475 41.6221 32.657 41.49L31.8024 42.7227ZM33.0133 44.4741L34.2038 43.5616L34.2029 43.5604L33.0133 44.4741ZM33.8444 49.4514L32.7535 48.4218L32.7535 48.4218L33.8444 49.4514ZM33.3913 49.8222L32.0408 50.4751C32.232 50.8706 32.5869 51.1623 33.0119 51.2734C33.4369 51.3845 33.8891 51.3038 34.2494 51.0525L33.3913 49.8222ZM32.2943 48.4514L33.2761 47.3174L33.2761 47.3174L32.2943 48.4514ZM31.0801 47.5504L31.9252 46.3111L31.9249 46.3109L31.0801 47.5504ZM30.9869 47.4869L31.8317 46.2474L31.8315 46.2473L30.9869 47.4869ZM29.8673 46.6856L28.9394 47.8641L28.9394 47.8641L29.8673 46.6856ZM26.2155 43.4803L25.0587 42.5254C24.5838 43.1006 24.6038 43.9373 25.1055 44.4893L26.2155 43.4803ZM47.0379 19.8847L47.021 18.3848C46.3611 18.3922 45.7835 18.8301 45.5982 19.4636L47.0379 19.8847ZM46.5192 21.3902L45.1248 20.8373C44.9127 21.3723 45.0254 21.9815 45.4148 22.4052C45.8042 22.8289 46.4018 22.9925 46.9527 22.8262L46.5192 21.3902ZM48.0327 19.9572L48.4022 18.5034L48.4022 18.5034L48.0327 19.9572ZM48.4624 20.244L47.1977 21.0505L47.1977 21.0506L48.4624 20.244ZM48.4791 20.2769L49.9283 19.8899C49.9247 19.8764 49.9209 19.8629 49.9169 19.8494L48.4791 20.2769ZM48.4795 20.2783L49.9697 20.4496C49.9911 20.2626 49.9773 20.0732 49.9287 19.8914L48.4795 20.2783ZM48.4791 20.2816L49.9609 20.5147C49.9641 20.4941 49.9669 20.4736 49.9693 20.4529L48.4791 20.2816ZM48.4761 20.2943L49.9136 20.7226L49.9137 20.7225L48.4761 20.2943ZM48.4489 20.3544L49.7519 21.0974L49.752 21.0973L48.4489 20.3544ZM47.8645 20.8622L47.102 19.5704L47.102 19.5704L47.8645 20.8622ZM37.9976 33.9956L37.0844 32.8057L37.0844 32.8057L37.9976 33.9956ZM34.9644 35.2105L33.7608 34.3154C33.39 34.8139 33.365 35.4894 33.6978 36.014C34.0306 36.5386 34.6523 36.8038 35.2613 36.6808L34.9644 35.2105ZM38.1788 33.149L39.4435 32.3425L39.4435 32.3425L38.1788 33.149ZM37.7491 32.8622L37.3797 34.316L37.3797 34.316L37.7491 32.8622ZM37.0934 32.7912L37.1293 31.2916C36.7251 31.2819 36.334 31.4359 36.0448 31.7186L37.0934 32.7912ZM17.7418 26.9038L18.6196 25.6875C18.308 25.4626 17.922 25.3659 17.5412 25.4173L17.7418 26.9038ZM21.0003 28.7696L20.3369 30.115L20.3369 30.115L21.0003 28.7696ZM17.3789 26.9808L16.9204 25.5526L16.9204 25.5526L17.3789 26.9808ZM16.9487 27.3212L18.2617 28.0466L18.2617 28.0466L16.9487 27.3212ZM17.1596 28.3048L16.2595 29.5047L16.2595 29.5047L17.1596 28.3048ZM19.1134 28.9682L19.4085 27.4975L19.4085 27.4975L19.1134 28.9682ZM22.1675 29.3639L22.0488 30.8592C22.755 30.9152 23.4041 30.4696 23.6056 29.7905C23.807 29.1114 23.5059 28.3839 22.8834 28.0458L22.1675 29.3639ZM21.6827 29.1096L22.3635 27.773L22.3635 27.773L21.6827 29.1096ZM50.4568 27.4693L50.8058 26.0104L50.8058 26.0104L50.4568 27.4693ZM50.9339 27.9324L49.486 28.3245L49.486 28.3245L50.9339 27.9324ZM49.8217 27.6663L48.7081 26.6614L48.7081 26.6614L49.8217 27.6663ZM47.5433 30.191L48.6569 31.1959L48.6569 31.1959L47.5433 30.191ZM47.3844 30.7344L48.864 30.4878L48.864 30.4878L47.3844 30.7344ZM47.9386 34.0596L46.459 34.3062L46.459 34.3062L47.9386 34.0596ZM48.4035 34.5791L47.9946 36.0223L47.9946 36.0223L48.4035 34.5791ZM49.0719 34.3806L50.2022 35.3667L50.2022 35.3667L49.0719 34.3806ZM51.5965 31.4865L52.7269 32.4726L52.7269 32.4726L51.5965 31.4865ZM51.7344 30.8881L50.2865 31.2802L50.2865 31.2802L51.7344 30.8881ZM48.721 30.8303L47.6074 29.8254C47.301 30.1649 47.1662 30.6257 47.2414 31.0769L48.721 30.8303ZM48.9968 32.4851L47.5172 32.7317C47.6126 33.3041 48.0296 33.7701 48.5879 33.9283C49.1462 34.0865 49.7457 33.9085 50.1271 33.4712L48.9968 32.4851ZM49.9887 29.4255L51.4365 29.0334C51.293 28.5036 50.8716 28.0944 50.3377 27.9667C49.8039 27.839 49.2429 28.0131 48.8751 28.4206L49.9887 29.4255ZM50.386 30.8926L51.5164 31.8786C51.8457 31.5011 51.9648 30.984 51.8339 30.5005L50.386 30.8926ZM13.446 36.0126L13.5409 34.5156L13.5409 34.5156L13.446 36.0126ZM16.502 36.2064L16.4071 37.7034L16.4071 37.7034L16.502 36.2064ZM17.0242 36.5296L18.3217 35.7769L18.3217 35.7769L17.0242 36.5296ZM18.9513 39.8516L17.6539 40.6043L17.6539 40.6043L18.9513 39.8516ZM18.2825 40.8212L18.0396 42.3014L18.0396 42.3014L18.2825 40.8212ZM14.956 40.2752L14.713 41.7554L14.713 41.7554L14.956 40.2752ZM14.4926 39.9498L13.1827 40.6805L13.1827 40.6805L14.4926 39.9498ZM12.836 36.9799L14.146 36.2492L14.146 36.2492L12.836 36.9799ZM17.1326 39.3124L16.8897 40.7926C17.4623 40.8866 18.0378 40.6418 18.3673 40.1642C18.6968 39.6865 18.7213 39.0617 18.4301 38.5597L17.1326 39.3124ZM15.4771 39.0407L14.1671 39.7714C14.3899 40.1709 14.7828 40.4468 15.2342 40.5209L15.4771 39.0407ZM16.0722 37.4844L17.3696 36.7317C17.1182 36.2983 16.6671 36.0191 16.1671 35.9874L16.0722 37.4844ZM14.5553 37.3882L14.6502 35.8912C14.1024 35.8565 13.5794 36.1238 13.2865 36.5881C12.9937 37.0524 12.9779 37.6395 13.2453 38.1189L14.5553 37.3882ZM14.1727 13.1053C13.7999 13.3238 13.5028 13.5443 13.2696 13.7703L15.3574 15.9246C15.3795 15.9032 15.4711 15.8216 15.6895 15.6936L14.1727 13.1053ZM17.9211 11.7213C16.3785 12.1037 15.0896 12.568 14.1727 13.1053L15.6895 15.6936C16.2512 15.3644 17.2258 14.9844 18.6429 14.6332L17.9211 11.7213ZM29.928 10.4859C25.2603 10.4859 21.0155 10.9543 17.9211 11.7213L18.6429 14.6332C21.4391 13.9401 25.4301 13.4859 29.928 13.4859V10.4859ZM41.9349 11.7213C38.8405 10.9543 34.5957 10.4859 29.928 10.4859V13.4859C34.4258 13.4859 38.4168 13.9401 41.2131 14.6332L41.9349 11.7213ZM45.6833 13.1053C44.7664 12.568 43.4775 12.1037 41.9349 11.7213L41.2131 14.6332C42.6302 14.9844 43.6048 15.3644 44.1665 15.6936L45.6833 13.1053ZM46.5864 13.7703C46.3532 13.5443 46.0561 13.3238 45.6833 13.1053L44.1665 15.6936C44.3849 15.8216 44.4765 15.9032 44.4985 15.9246L46.5864 13.7703ZM45.5425 13.3475H14.3135V16.3475H45.5425V13.3475ZM13.7182 15.305C13.7137 15.2778 13.711 15.2486 13.711 15.2163H10.711C10.711 15.4148 10.7275 15.6092 10.7591 15.7988L13.7182 15.305ZM13.711 15.2163C13.711 15.0912 13.7525 14.9443 13.9193 14.7433C14.0995 14.5262 14.3832 14.3022 14.7486 14.0881L13.2318 11.4998C12.2697 12.0636 10.711 13.2379 10.711 15.2163H13.711ZM14.7486 14.0881C15.5307 13.6298 16.7003 13.1975 18.1952 12.827L17.4734 9.91509C15.8524 10.3169 14.3688 10.8335 13.2318 11.4998L14.7486 14.0881ZM18.1952 12.827C21.1763 12.088 25.3248 11.625 29.928 11.625V8.625C25.1549 8.625 20.7526 9.10226 17.4734 9.91509L18.1952 12.827ZM29.928 11.625C34.5312 11.625 38.6797 12.088 41.6608 12.827L42.3826 9.91509C39.1033 9.10226 34.7011 8.625 29.928 8.625V11.625ZM41.6608 12.827C43.1557 13.1975 44.3253 13.6298 45.1074 14.0881L46.6242 11.4998C45.4872 10.8335 44.0036 10.3169 42.3826 9.91509L41.6608 12.827ZM45.1074 14.0881C45.4727 14.3022 45.7565 14.5262 45.9366 14.7433C46.1035 14.9443 46.145 15.0912 46.145 15.2163H49.145C49.145 13.2379 47.5863 12.0636 46.6242 11.4998L45.1074 14.0881ZM46.145 15.2163C46.145 15.2485 46.1423 15.2778 46.1378 15.305L49.0969 15.7988C49.1285 15.6092 49.145 15.4148 49.145 15.2163H46.145ZM49.145 15.7779C49.145 15.5766 49.1202 15.379 49.0727 15.1889L46.1619 15.915C46.1506 15.8696 46.145 15.8234 46.145 15.7779H49.145ZM48.87 18.6753C49.0464 17.7397 49.145 16.7717 49.145 15.7779H46.145C46.145 16.5728 46.0662 17.3544 45.9219 18.1192L48.87 18.6753ZM48.7688 17.0606C48.3025 16.942 47.8355 16.9068 47.4299 16.8976L47.362 19.8969C47.6608 19.9036 47.8747 19.9287 48.0299 19.9681L48.7688 17.0606ZM50.9823 18.637C50.4158 17.7488 49.6043 17.2729 48.7688 17.0606L48.0299 19.9681C48.154 19.9997 48.2351 20.0391 48.2906 20.0768C48.3425 20.1121 48.397 20.1624 48.4529 20.2501L50.9823 18.637ZM51.0452 21.8348C51.5526 20.9448 51.6861 19.7406 50.9823 18.637L48.4529 20.2501C48.4601 20.2615 48.4642 20.2695 48.4663 20.2741C48.4683 20.2787 48.469 20.2809 48.469 20.281C48.469 20.281 48.4687 20.28 48.4685 20.2783C48.4683 20.2766 48.4682 20.2753 48.4682 20.2748C48.4683 20.2707 48.4689 20.2964 48.4391 20.3488L51.0452 21.8348ZM49.3837 23.4359C49.9362 23.1098 50.611 22.5962 51.0452 21.8348L48.4391 20.3488C48.3683 20.473 48.1873 20.6585 47.8587 20.8524L49.3837 23.4359ZM46.0653 24.6039C47.3237 24.3035 48.5551 23.925 49.3837 23.4359L47.8587 20.8524C47.448 21.0949 46.6002 21.392 45.3688 21.6859L46.0653 24.6039ZM45.7848 25.9808C46.2311 25.3062 46.658 24.5894 47.0489 23.8349L44.3851 22.4549C44.0474 23.1067 43.6755 23.7318 43.2827 24.3256L45.7848 25.9808ZM40.0546 32.2024C41.7286 30.9148 43.9565 28.7446 45.7848 25.9808L43.2827 24.3256C41.6572 26.783 39.6668 28.7158 38.2255 29.8246L40.0546 32.2024ZM39.4388 32.6948C39.6418 32.5263 39.8473 32.3619 40.0546 32.2024L38.2255 29.8246C37.9881 30.0072 37.7533 30.1949 37.522 30.3871L39.4388 32.6948ZM40.6987 31.542C40.275 30.8777 39.703 30.4294 39.0647 30.1595L37.896 32.9225C38.0091 32.9703 38.0918 33.0336 38.1693 33.1551L40.6987 31.542ZM39.8172 36.3666C41.2087 35.2988 41.7532 33.1956 40.6987 31.542L38.1693 33.1551C38.2389 33.2643 38.2693 33.4088 38.2351 33.5773C38.1994 33.7533 38.1028 33.9007 37.9908 33.9867L39.8172 36.3666ZM35.3497 38.1803C36.9649 37.8757 38.5653 37.3273 39.8172 36.3666L37.9908 33.9867C37.2561 34.5505 36.1664 34.9734 34.7936 35.2323L35.3497 38.1803ZM34.0507 38.3763C34.4927 38.3251 34.9267 38.2601 35.3497 38.1803L34.7936 35.2323C34.4462 35.2979 34.0828 35.3525 33.7053 35.3962L34.0507 38.3763ZM34.4217 40.1201C34.3751 39.6309 34.5494 38.7799 35.1928 37.6083L32.5632 36.1643C31.7886 37.5749 31.3068 39.0563 31.4352 40.4045L34.4217 40.1201ZM34.8539 41.2843C34.5911 40.8598 34.4592 40.5143 34.4217 40.1201L31.4352 40.4045C31.5285 41.3841 31.8743 42.1706 32.303 42.8632L34.8539 41.2843ZM34.3228 40.5129C33.9874 40.5129 33.6569 40.5405 33.334 40.5938L33.8229 43.5537C33.985 43.5269 34.1519 43.5129 34.3228 43.5129V40.5129ZM39.4049 43.2878C38.3336 41.6231 36.4592 40.5129 34.3228 40.5129V43.5129C35.3956 43.5129 36.3391 44.0675 36.8821 44.9113L39.4049 43.2878ZM38.8974 42.5371C38.5576 42.5371 38.2229 42.5654 37.8959 42.6201L38.3911 45.579C38.5552 45.5515 38.7243 45.5371 38.8974 45.5371V42.5371ZM44.9378 48.5774C44.9378 45.2415 42.2334 42.5371 38.8974 42.5371V45.5371C40.5766 45.5371 41.9378 46.8983 41.9378 48.5774H44.9378ZM43.5824 52.3904C44.4291 51.3511 44.9378 50.0217 44.9378 48.5774H41.9378C41.9378 49.3066 41.6831 49.972 41.2566 50.4955L43.5824 52.3904ZM52.2912 49.9429H42.4195V52.9429H52.2912V49.9429ZM54.7216 52.3734C54.7216 51.0311 53.6335 49.9429 52.2912 49.9429V52.9429C51.9766 52.9429 51.7216 52.6879 51.7216 52.3734H54.7216ZM52.2912 54.8038C53.6335 54.8038 54.7216 53.7157 54.7216 52.3734H51.7216C51.7216 52.0588 51.9766 51.8038 52.2912 51.8038V54.8038ZM8.70888 54.8038H52.2912V51.8038H8.70888V54.8038ZM6.27844 52.3734C6.27844 53.7157 7.36658 54.8038 8.70888 54.8038V51.8038C9.02345 51.8038 9.27844 52.0588 9.27844 52.3734H6.27844ZM8.70888 49.9429C7.36659 49.9429 6.27844 51.0311 6.27844 52.3734H9.27844C9.27844 52.6879 9.02344 52.9429 8.70888 52.9429V49.9429ZM17.0003 49.9429H8.70888V52.9429H17.0003V49.9429ZM14.9182 49.4633C14.9182 50.4901 15.22 51.451 15.7402 52.2566L18.2604 50.6293C18.044 50.2941 17.9182 49.8957 17.9182 49.4633H14.9182ZM20.0727 44.3088C17.2259 44.3088 14.9182 46.6166 14.9182 49.4633H17.9182C17.9182 48.2734 18.8828 47.3088 20.0727 47.3088V44.3088ZM20.3001 44.3138C20.2246 44.3105 20.1488 44.3088 20.0727 44.3088V47.3088C20.105 47.3088 20.1371 47.3096 20.169 47.3109L20.3001 44.3138ZM23.4071 41.6321C21.3091 41.9354 19.5812 43.3566 18.8368 45.268L21.6323 46.3567C21.9926 45.4314 22.8306 44.7466 23.8364 44.6012L23.4071 41.6321ZM21.0524 40.1899C21.2508 41.5784 21.6718 42.7768 22.3338 43.8856L24.9096 42.3476C24.4624 41.5987 24.1675 40.7822 24.0223 39.7656L21.0524 40.1899ZM22.1783 34.7322C21.5441 35.9973 20.7292 37.9275 21.0524 40.1899L24.0223 39.7656C23.8335 38.4443 24.2928 37.2084 24.8601 36.0768L22.1783 34.7322ZM22.6456 33.8417C22.5057 34.1016 22.3414 34.4069 22.1783 34.7322L24.8602 36.0767C25.001 35.7958 25.1457 35.5265 25.2869 35.2643L22.6456 33.8417ZM22.6565 33.8215L22.6456 33.8417L25.2869 35.2643L25.2978 35.2441L22.6565 33.8215ZM22.6523 33.8295L22.6521 33.8297L25.3021 35.2359L25.3023 35.2356L22.6523 33.8295ZM23 33.1695C22.9081 33.354 22.7983 33.5582 22.6566 33.8212L25.2979 35.2438C25.4335 34.992 25.5679 34.7429 25.6853 34.507L23 33.1695ZM23.1345 33.0588C23.1345 32.9897 23.14 32.9352 23.1446 32.9007C23.1493 32.8649 23.1547 32.8384 23.1581 32.8231C23.1646 32.7939 23.168 32.7877 23.1601 32.8105C23.1439 32.8572 23.0995 32.9697 23 33.1695L25.6853 34.507C25.8211 34.2344 25.9227 33.9999 25.9935 33.7963C26.0519 33.6286 26.1345 33.3591 26.1345 33.0588H23.1345ZM22.8553 31.7647C22.986 31.9725 23.1345 32.331 23.1345 33.0588H26.1345C26.1345 31.8881 25.8855 30.9474 25.3945 30.167L22.8553 31.7647ZM22.2962 32.3707C22.8829 32.4124 23.479 32.4435 24.0708 32.4649L24.179 29.4669C23.6191 29.4467 23.0581 29.4173 22.5091 29.3783L22.2962 32.3707ZM18.5255 31.8985C19.6605 32.1262 20.9769 32.2768 22.2962 32.3707L22.5091 29.3783C21.2607 29.2894 20.0812 29.1508 19.1156 28.9571L18.5255 31.8985ZM15.3661 30.6955C16.2486 31.3576 17.4981 31.6924 18.5255 31.8985L19.1156 28.9571C18.115 28.7564 17.4623 28.5177 17.1664 28.2958L15.3661 30.6955ZM14.3328 25.8758C13.4231 27.5223 13.9283 29.6168 15.3661 30.6955L17.1664 28.2958C16.8955 28.0925 16.7907 27.6306 16.9586 27.3266L14.3328 25.8758ZM15.6226 24.518C15.0952 24.8401 14.6551 25.2924 14.3328 25.8758L16.9586 27.3266C17.031 27.1957 17.1064 27.127 17.1862 27.0783L15.6226 24.518ZM13.7066 24.99C14.2351 25.7141 14.796 26.34 15.372 26.8864L17.4367 24.7099C16.9863 24.2826 16.5466 23.7925 16.1299 23.2214L13.7066 24.99ZM11.1937 19.2027C11.5822 20.8773 12.3119 23.079 13.7066 24.99L16.1299 23.2214C15.0671 21.7653 14.4579 19.9982 14.1161 18.5248L11.1937 19.2027ZM10.711 15.7779C10.711 16.173 10.806 17.5314 11.1937 19.2027L14.1161 18.5248C13.9477 17.7985 13.8453 17.1481 13.7853 16.652C13.7554 16.4043 13.7364 16.1978 13.7251 16.0427C13.7194 15.9651 13.7157 15.9021 13.7136 15.8546C13.7125 15.8309 13.7118 15.8122 13.7114 15.7983C13.711 15.7838 13.711 15.7775 13.711 15.7779H10.711ZM10.7833 15.1888C10.7358 15.379 10.711 15.5766 10.711 15.7779H13.711C13.711 15.8233 13.7054 15.8696 13.694 15.915L10.7833 15.1888ZM45.585 22.606C46.281 21.1901 46.8245 19.6509 47.0953 18.0254L44.1361 17.5324C43.9215 18.8207 43.4836 20.0805 42.8927 21.2824L45.585 22.606ZM40.5319 24.0385C41.9809 23.8677 43.3431 23.6534 44.5334 23.415L43.9442 20.4734C42.8424 20.6941 41.5604 20.8965 40.1808 21.0591L40.5319 24.0385ZM29.1314 24.1723C32.6014 24.6288 36.8682 24.4701 40.5319 24.0385L40.1808 21.0591C36.6517 21.4749 32.6551 21.61 29.5227 21.1979L29.1314 24.1723ZM29.9791 23.5217C29.9247 23.9354 29.5452 24.2267 29.1314 24.1723L29.5226 21.1979C28.2937 21.0363 27.1664 21.9015 27.0048 23.1304L29.9791 23.5217ZM29.3285 22.6739C29.7423 22.7283 30.0336 23.1079 29.9791 23.5217L27.0048 23.1304C26.8431 24.3593 27.7083 25.4866 28.9372 25.6483L29.3285 22.6739ZM40.355 22.5375C36.7592 22.9612 32.6284 23.108 29.3285 22.6739L28.9372 25.6483C32.5747 26.1268 36.9756 25.9565 40.7061 25.5169L40.355 22.5375ZM43.0478 22.1527C42.2068 22.2959 41.3007 22.4261 40.355 22.5375L40.7061 25.5169C41.6995 25.3999 42.6566 25.2624 43.5513 25.1101L43.0478 22.1527ZM44.2328 24.9541C44.3481 24.7798 44.4616 24.603 44.5731 24.4239L42.026 22.8389C41.9296 22.9938 41.8311 23.1472 41.7307 23.2989L44.2328 24.9541ZM38.92 30.7274C40.4497 29.5508 42.5302 27.5278 44.2328 24.9541L41.7307 23.2989C40.2308 25.5662 38.3879 27.3518 37.0909 28.3496L38.92 30.7274ZM34.2587 35.5798C35.4345 33.8497 37.1046 32.1239 38.92 30.7274L37.0909 28.3496C35.0568 29.9142 33.1552 31.8663 31.7775 33.8936L34.2587 35.5798ZM33.8112 36.2788C33.9516 36.0449 34.1012 35.8116 34.2587 35.5798L31.7775 33.8936C31.5904 34.1688 31.4103 34.4494 31.2392 34.7344L33.8112 36.2788ZM30.0922 37.0145C30.9527 37.0505 31.796 37.0482 32.6062 37.0044L32.4442 34.0088C31.739 34.0469 30.9922 34.0496 30.2176 34.0171L30.0922 37.0145ZM30.8787 36.2911C30.8613 36.7081 30.5091 37.032 30.0922 37.0145L30.2176 34.0171C28.9792 33.9653 27.9332 34.9272 27.8814 36.1657L30.8787 36.2911ZM30.1554 35.5046C30.5723 35.522 30.8962 35.8742 30.8787 36.2911L27.8814 36.1657C27.8295 37.4041 28.7914 38.4501 30.0299 38.5019L30.1554 35.5046ZM31.7116 35.5243C31.2036 35.5335 30.6834 35.5267 30.1554 35.5046L30.0299 38.5019C30.614 38.5264 31.1942 38.5342 31.7658 38.5238L31.7116 35.5243ZM32.5692 40.2965C32.4969 39.5377 32.6771 38.633 33.1154 37.6196L30.362 36.4286C29.8003 37.7272 29.4468 39.1546 29.5827 40.5809L32.5692 40.2965ZM32.5973 40.5238C32.586 40.4497 32.5765 40.3739 32.5692 40.2965L29.5827 40.5809C29.5954 40.7151 29.6119 40.8471 29.6317 40.9769L32.5973 40.5238ZM29.4213 41.9947C29.8585 41.9947 30.2774 42.061 30.6693 42.1828L31.5597 39.318C30.8825 39.1075 30.1635 38.9947 29.4213 38.9947V41.9947ZM26.3864 43.3028C27.1358 42.4999 28.2157 41.9947 29.4213 41.9947V38.9947C27.3613 38.9947 25.4942 39.8619 24.1932 41.2559L26.3864 43.3028ZM22.8946 39.9267C23.0595 41.0811 23.4032 42.0926 24.0184 43.0754L26.5612 41.4834C26.1925 40.8946 25.9769 40.2898 25.8645 39.5025L22.8946 39.9267ZM23.8418 35.5662C23.2494 36.748 22.6548 38.2478 22.8946 39.9267L25.8645 39.5025C25.7592 38.7659 25.997 37.9613 26.5237 36.9107L23.8418 35.5662ZM24.284 34.7241C24.1433 34.9854 23.9911 35.2685 23.8418 35.5662L26.5237 36.9107C26.6507 36.6574 26.7831 36.4105 26.9253 36.1467L24.284 34.7241ZM24.3015 34.6915L24.284 34.7241L26.9252 36.1467L26.9428 36.1142L24.3015 34.6915ZM24.6657 33.9992C24.56 34.2113 24.4371 34.4398 24.3015 34.6915L26.9427 36.1142C27.0735 35.8716 27.2201 35.5996 27.351 35.3367L24.6657 33.9992ZM24.9954 33.0588C24.9954 33.1258 24.9786 33.2434 24.9172 33.4233C24.8566 33.6011 24.7704 33.789 24.6657 33.9992L27.351 35.3367C27.5731 34.8909 27.9954 34.0229 27.9954 33.0588H24.9954ZM24.7655 31.4821C24.9081 31.9033 24.9954 32.4174 24.9954 33.0588H27.9954C27.9954 32.1436 27.8704 31.2982 27.6072 30.5204L24.7655 31.4821ZM29.3853 29.3741C28.5393 29.4524 27.42 29.499 26.1836 29.5012L26.1891 32.5012C27.4863 32.4989 28.7004 32.4503 29.6618 32.3614L29.3853 29.3741ZM28.7025 30.1962C28.6641 29.7806 28.9698 29.4126 29.3853 29.3741L29.6618 32.3614C30.896 32.2472 31.804 31.154 31.6898 29.9198L28.7025 30.1962ZM29.5246 30.879C29.109 30.9175 28.741 30.6118 28.7025 30.1962L31.6898 29.9198C31.5755 28.6855 30.4824 27.7776 29.2481 27.8918L29.5246 30.879ZM25.3446 31.0075C26.9195 31.0291 28.4137 30.9818 29.5246 30.879L29.2481 27.8918C28.2734 27.982 26.8905 28.0284 25.3857 28.0078L25.3446 31.0075ZM24.1433 30.3841C24.1625 30.4067 24.1813 30.4293 24.1997 30.452L26.5305 28.5633C26.4961 28.5208 26.4613 28.4789 26.426 28.4375L24.1433 30.3841ZM21.8465 28.7881C22.8303 29.2892 23.6049 29.7528 24.1433 30.3842L26.4259 28.4375C25.4684 27.3147 24.2145 26.6275 23.208 26.1148L21.8465 28.7881ZM21.1495 28.4393C21.3897 28.5584 21.6199 28.6727 21.8465 28.7881L23.208 26.1148C22.9649 25.991 22.7204 25.8697 22.4826 25.7518L21.1495 28.4393ZM21.1446 28.4369L21.1452 28.4372L22.4869 25.7539L22.4863 25.7536L21.1446 28.4369ZM21.149 28.4391L21.1497 28.4394L22.4812 25.7511L22.4806 25.7508L21.149 28.4391ZM21.1475 28.4383L21.1482 28.4387L22.4814 25.7512L22.4807 25.7508L21.1475 28.4383ZM21.1488 28.439L21.1498 28.4394L22.4784 25.7497L22.4775 25.7492L21.1488 28.439ZM21.1477 28.4384L21.1482 28.4387L22.4781 25.7495L22.4775 25.7493L21.1477 28.4384ZM18.2014 26.7874C19.2123 27.4809 20.2436 27.9899 21.1461 28.4376L22.4792 25.7501C21.5535 25.2909 20.7086 24.8693 19.8985 24.3136L18.2014 26.7874ZM18.1994 26.7734C18.1467 26.7453 18.0982 26.7113 18.0545 26.6726L20.0453 24.4284C19.9145 24.3123 19.7697 24.2111 19.6134 24.1276L18.1994 26.7734ZM15.2097 23.893C16.0877 25.0959 17.0536 25.9773 18.0403 26.6752L19.7726 24.2258C19.0163 23.691 18.2951 23.0316 17.633 22.1244L15.2097 23.893ZM13.0065 18.7822C13.366 20.3319 14.0209 22.2641 15.2097 23.893L17.633 22.1244C16.7762 20.9504 16.2417 19.453 15.9289 18.1043L13.0065 18.7822ZM12.8646 18.1166C12.906 18.3292 12.953 18.5518 13.0065 18.7822L15.9289 18.1043C15.8839 17.9105 15.8442 17.7228 15.8093 17.5433L12.8646 18.1166ZM18.1952 17.6057C16.8787 17.2794 15.8065 16.9034 15.0289 16.4991L13.645 19.1608C14.7117 19.7154 16.0336 20.1607 17.4734 20.5176L18.1952 17.6057ZM29.928 18.8077C25.3248 18.8077 21.1763 18.3447 18.1952 17.6057L17.4734 20.5176C20.7526 21.3304 25.1549 21.8077 29.928 21.8077V18.8077ZM41.6608 17.6057C38.6797 18.3447 34.5312 18.8077 29.928 18.8077V21.8077C34.7011 21.8077 39.1033 21.3304 42.3826 20.5176L41.6608 17.6057ZM44.9065 16.4571C44.1251 16.8764 43.0252 17.2675 41.6608 17.6057L42.3826 20.5176C43.8717 20.1485 45.2374 19.6842 46.3249 19.1006L44.9065 16.4571ZM41.9349 18.7114C42.6674 18.5298 43.333 18.3321 43.924 18.1208L42.9143 15.2959C42.4339 15.4676 41.8664 15.6376 41.2131 15.7995L41.9349 18.7114ZM29.928 19.9468C34.5957 19.9468 38.8405 19.4784 41.9349 18.7114L41.2131 15.7995C38.4168 16.4926 34.4258 16.9468 29.928 16.9468V19.9468ZM17.9211 18.7114C21.0155 19.4784 25.2603 19.9468 29.928 19.9468V16.9468C25.4301 16.9468 21.4391 16.4926 18.6429 15.7995L17.9211 18.7114ZM15.932 18.1208C16.523 18.3321 17.1886 18.5298 17.9211 18.7114L18.6429 15.7995C17.9896 15.6376 17.4221 15.4676 16.9417 15.2959L15.932 18.1208ZM43.4192 15.2083H16.4368V18.2083H43.4192V15.2083ZM40.467 52.851C42.2051 52.2125 43.4491 50.5416 43.4491 48.5774H40.4491C40.4491 49.2439 40.0277 49.8163 39.4325 50.0349L40.467 52.851ZM34.3185 52.9429H39.9497V49.9429H34.3185V52.9429ZM34.1068 49.6991C33.9413 49.8745 33.7377 50.0247 33.4774 50.2009L35.1596 52.685C35.4458 52.4911 35.8829 52.1881 36.2886 51.7582L34.1068 49.6991ZM34.7176 47.4166C34.7176 48.8043 34.4314 49.3552 34.1069 49.6991L36.2886 51.7582C37.3344 50.6501 37.7176 49.227 37.7176 47.4166H34.7176ZM33.4303 44.4253C34.1592 45.3819 34.7176 46.2391 34.7176 47.4166H37.7176C37.7176 45.1655 36.5812 43.6107 35.8166 42.6072L33.4303 44.4253ZM38.451 44.634C37.7874 43.2086 36.4075 42.1835 34.7695 42.0234L34.4775 45.0091C35.0299 45.0631 35.5032 45.4103 35.7313 45.9002L38.451 44.634ZM37.541 44.2316C37.9024 44.1189 38.2913 44.2909 38.451 44.634L35.7313 45.9002C36.2058 46.9193 37.361 47.4302 38.4341 47.0955L37.541 44.2316ZM38.8974 44.0258C38.4262 44.0258 37.9704 44.0977 37.541 44.2316L38.4341 47.0955C38.5777 47.0508 38.7325 47.0258 38.8974 47.0258V44.0258ZM43.4491 48.5774C43.4491 46.0636 41.4112 44.0258 38.8974 44.0258V47.0258C39.7544 47.0258 40.4491 47.7205 40.4491 48.5774H43.4491ZM33.3771 51.372C33.3775 51.3809 33.3777 51.3898 33.3777 51.3988H30.3777C30.3777 51.4373 30.3786 51.4757 30.3804 51.5139L33.3771 51.372ZM19.1928 52.9429H31.8788V49.9429H19.1928V52.9429ZM16.4069 49.4633C16.4069 50.9598 17.3038 52.2439 18.5827 52.8133L19.8029 50.0726C19.5668 49.9675 19.4069 49.7323 19.4069 49.4633H16.4069ZM20.0727 45.7976C18.0481 45.7976 16.4069 47.4388 16.4069 49.4633H19.4069C19.4069 49.0956 19.705 48.7976 20.0727 48.7976V45.7976ZM20.9421 45.9015C20.6627 45.8334 20.3713 45.7976 20.0727 45.7976V48.7976C20.1304 48.7976 20.1836 48.8044 20.2326 48.8163L20.9421 45.9015ZM20.3606 45.9963C20.5336 45.8873 20.7434 45.8531 20.9422 45.9015L20.2325 48.8163C20.8227 48.96 21.4459 48.8583 21.9598 48.5346L20.3606 45.9963ZM20.024 46.4799C20.0661 46.2798 20.1876 46.1054 20.3606 45.9963L21.9598 48.5346C22.4737 48.2108 22.8344 47.6926 22.9596 47.0982L20.024 46.4799ZM24.2427 43.0608C22.1677 43.0608 20.4354 44.5263 20.024 46.4799L22.9596 47.0982C23.0843 46.5059 23.6135 46.0608 24.2427 46.0608V43.0608ZM24.9731 43.1226C24.7351 43.0819 24.491 43.0608 24.2427 43.0608V46.0608C24.321 46.0608 24.3961 46.0675 24.4678 46.0797L24.9731 43.1226ZM29.6441 46.9691C27.9608 45.6439 26.7367 44.6186 25.845 43.6085L23.5959 45.5938C24.689 46.8321 26.114 48.008 27.7883 49.3262L29.6441 46.9691ZM30.7762 47.78C30.3951 47.5205 30.014 47.2603 29.6441 46.9691L27.7883 49.3262C28.2517 49.6911 28.716 50.0066 29.0875 50.2596L30.7762 47.78ZM30.7373 47.7544L30.7372 47.7543L29.1265 50.2853L29.1267 50.2854L30.7373 47.7544ZM30.8762 47.8482L30.7766 47.7803L29.0874 50.2595L29.1871 50.3274L30.8762 47.8482ZM32.058 48.7242C31.6958 48.4106 31.2825 48.1253 30.8768 47.8485L29.1865 50.3271C29.6078 50.6144 29.8819 50.8083 30.0943 50.9922L32.058 48.7242ZM33.3777 51.3988C33.3777 50.855 33.2633 50.3367 32.9988 49.8476C32.7466 49.3812 32.4001 49.0204 32.058 48.7242L30.0943 50.9922C30.2919 51.1633 30.3462 51.2492 30.3599 51.2745C30.3651 51.2842 30.3672 51.2901 30.3693 51.2988C30.3718 51.3093 30.3777 51.3391 30.3777 51.3988H33.3777ZM34.1046 43.4324C33.7336 42.9499 33.3947 42.5051 33.1166 41.9996L30.4882 43.4458C30.8925 44.1807 31.3692 44.7966 31.7264 45.2611L34.1046 43.4324ZM34.2029 43.5604L34.1051 43.433L31.7259 45.2605L31.8237 45.3879L34.2029 43.5604ZM35.8567 47.4166C35.8567 45.7333 34.9801 44.5744 34.2038 43.5616L31.8228 45.3867C32.6384 46.4506 32.8567 46.8661 32.8567 47.4166H35.8567ZM34.9353 50.4809C35.5327 49.8479 35.8567 48.9669 35.8567 47.4166H32.8567C32.8567 47.9928 32.7962 48.2727 32.76 48.3869C32.7438 48.4383 32.7341 48.4507 32.7402 48.4406C32.7474 48.4286 32.7559 48.4193 32.7535 48.4218L34.9353 50.4809ZM34.2494 51.0525C34.471 50.8979 34.7113 50.7182 34.9353 50.4809L32.7535 48.4218C32.7425 48.4335 32.7022 48.474 32.5331 48.5919L34.2494 51.0525ZM31.3124 49.5854C31.6532 49.8805 31.8922 50.1678 32.0408 50.4751L34.7417 49.1692C34.3596 48.379 33.8112 47.7807 33.2761 47.3174L31.3124 49.5854ZM30.235 48.7897C30.6463 49.0701 31.0069 49.3209 31.3124 49.5854L33.2761 47.3174C32.8216 46.9239 32.3232 46.5825 31.9252 46.3111L30.235 48.7897ZM30.1422 48.7264L30.2353 48.7899L31.9249 46.3109L31.8317 46.2474L30.1422 48.7264ZM28.9394 47.8641C29.3504 48.1877 29.7645 48.4691 30.1424 48.7265L31.8315 46.2473C31.4406 45.9809 31.1118 45.7563 30.7952 45.507L28.9394 47.8641ZM25.1055 44.4893C26.0425 45.52 27.3119 46.5827 28.9394 47.8641L30.7952 45.507C29.1674 44.2254 28.0769 43.2981 27.3254 42.4713L25.1055 44.4893ZM29.4213 40.4834C27.6621 40.4834 26.0877 41.2788 25.0587 42.5254L27.3722 44.4352C27.8466 43.8606 28.5809 43.4834 29.4213 43.4834V40.4834ZM32.657 41.49C31.7411 40.855 30.623 40.4834 29.4213 40.4834V43.4834C29.9977 43.4834 30.5219 43.6602 30.9478 43.9555L32.657 41.49ZM45.5982 19.4636C45.4619 19.9295 45.303 20.3878 45.1248 20.8373L47.9136 21.9431C48.1241 21.4122 48.3137 20.866 48.4776 20.3058L45.5982 19.4636ZM48.4022 18.5034C47.9671 18.3928 47.487 18.3795 47.021 18.3848L47.0548 21.3846C47.2603 21.3823 47.4067 21.3858 47.5137 21.3933C47.5657 21.397 47.603 21.4012 47.6285 21.4049C47.6539 21.4086 47.6643 21.4112 47.6633 21.411L48.4022 18.5034ZM49.7271 19.4375C49.5961 19.2321 49.4114 19.0121 49.142 18.8282C48.8847 18.6525 48.6224 18.5594 48.4022 18.5034L47.6632 21.411C47.6632 21.411 47.6577 21.4096 47.6478 21.4064C47.6379 21.4031 47.6227 21.3978 47.6036 21.3898C47.5642 21.3734 47.5105 21.3468 47.4505 21.3059C47.3168 21.2146 47.2354 21.1097 47.1977 21.0505L49.7271 19.4375ZM49.9169 19.8494C49.8736 19.7038 49.8091 19.5661 49.727 19.4374L47.1977 21.0506C47.1403 20.9606 47.083 20.8448 47.0413 20.7044L49.9169 19.8494ZM49.9287 19.8914L49.9283 19.8899L47.0299 20.6639L47.0302 20.6653L49.9287 19.8914ZM49.9693 20.4529L49.9697 20.4496L46.9893 20.107L46.9889 20.1103L49.9693 20.4529ZM49.9137 20.7225C49.9337 20.6551 49.9497 20.5857 49.9609 20.5147L46.9973 20.0486C47.0077 19.9824 47.022 19.9215 47.0385 19.8661L49.9137 20.7225ZM49.752 21.0973C49.8176 20.9822 49.8736 20.8571 49.9136 20.7226L47.0385 19.866C47.0713 19.756 47.1119 19.671 47.1458 19.6115L49.752 21.0973ZM48.627 22.1539C49.0684 21.8933 49.4981 21.5426 49.7519 21.0974L47.1458 19.6114C47.1646 19.5784 47.1818 19.5525 47.1952 19.5337C47.2088 19.5148 47.2201 19.5006 47.2282 19.4911C47.2439 19.4725 47.2515 19.4663 47.2465 19.4708C47.242 19.4749 47.2286 19.4865 47.2042 19.5042C47.1799 19.5217 47.1463 19.5443 47.102 19.5704L48.627 22.1539ZM46.9527 22.8262C47.6022 22.6301 48.1966 22.4079 48.627 22.1539L47.102 19.5704C46.9897 19.6367 46.6748 19.7763 46.0857 19.9542L46.9527 22.8262ZM37.0844 32.8057C36.6276 33.1563 35.8406 33.5033 34.6675 33.7402L35.2613 36.6808C36.6773 36.3949 37.9553 35.9189 38.9108 35.1856L37.0844 32.8057ZM36.9141 33.9555C36.739 33.6809 36.7472 33.4307 36.7729 33.2978C36.8018 33.1484 36.8876 32.9567 37.0844 32.8057L38.9108 35.1856C39.3776 34.8274 39.6289 34.3298 39.7183 33.8675C39.8045 33.4218 39.7683 32.8518 39.4435 32.3425L36.9141 33.9555ZM37.3797 34.316C37.3797 34.316 37.3742 34.3146 37.3642 34.3114C37.3543 34.3082 37.3391 34.3028 37.32 34.2949C37.2806 34.2784 37.2269 34.2518 37.1669 34.2109C37.0333 34.1196 36.9518 34.0147 36.9141 33.9555L39.4435 32.3425C39.3125 32.1371 39.1278 31.9171 38.8584 31.7332C38.6011 31.5575 38.3388 31.4644 38.1186 31.4084L37.3797 34.316ZM37.0574 34.2907C37.1677 34.2934 37.2465 34.2987 37.3024 34.3046C37.3583 34.3106 37.3803 34.3162 37.3797 34.316L38.1186 31.4084C37.7907 31.3251 37.4508 31.2993 37.1293 31.2916L37.0574 34.2907ZM36.1681 36.1056C36.7315 35.348 37.4015 34.5876 38.142 33.8638L36.0448 31.7186C35.2034 32.5411 34.4273 33.4191 33.7608 34.3154L36.1681 36.1056ZM16.864 28.1202C18.1123 29.021 19.3542 29.6304 20.3369 30.115L21.6637 27.4243C20.6672 26.9329 19.6383 26.4226 18.6196 25.6875L16.864 28.1202ZM17.8374 28.4091C17.8316 28.4109 17.8591 28.4016 17.9424 28.3903L17.5412 25.4173C17.341 25.4443 17.1306 25.4851 16.9204 25.5526L17.8374 28.4091ZM18.2617 28.0466C18.2376 28.0902 18.1724 28.1906 18.0516 28.2862C17.9374 28.3766 17.8428 28.4073 17.8374 28.4091L16.9204 25.5526C16.7018 25.6228 16.4413 25.7347 16.19 25.9337C15.932 26.1378 15.7582 26.3742 15.6358 26.5957L18.2617 28.0466ZM18.0598 27.1049C18.2694 27.2622 18.3325 27.4409 18.3521 27.5302C18.3723 27.622 18.3894 27.8155 18.2617 28.0466L15.6358 26.5957C15.3368 27.137 15.3221 27.7195 15.422 28.174C15.5214 28.6262 15.7756 29.1416 16.2595 29.5047L18.0598 27.1049ZM19.4085 27.4975C18.9536 27.4062 18.6081 27.3122 18.3628 27.2273C18.0941 27.1343 18.0259 27.0795 18.0598 27.1049L16.2595 29.5047C16.5908 29.7533 16.9984 29.9296 17.3816 30.0623C17.7881 30.203 18.2708 30.329 18.8183 30.4389L19.4085 27.4975ZM22.2861 27.8686C21.1989 27.7823 20.2081 27.6579 19.4085 27.4975L18.8183 30.4389C19.7743 30.6307 20.892 30.7674 22.0488 30.8592L22.2861 27.8686ZM21.0019 30.4463C21.1628 30.5282 21.3122 30.6063 21.4516 30.682L22.8834 28.0458C22.7152 27.9544 22.5416 27.8637 22.3635 27.773L21.0019 30.4463ZM20.3369 30.115C20.5752 30.2324 20.7944 30.3405 21.0019 30.4463L22.3635 27.773C22.1354 27.6569 21.8983 27.54 21.6637 27.4243L20.3369 30.115ZM50.1077 28.9281C49.8057 28.8558 49.5672 28.6243 49.486 28.3245L52.3817 27.5403C52.1759 26.7804 51.5714 26.1936 50.8058 26.0104L50.1077 28.9281ZM50.9353 28.6713C50.7272 28.9018 50.4098 29.0003 50.1077 28.9281L50.8058 26.0104C50.0401 25.8272 49.2355 26.0769 48.7081 26.6614L50.9353 28.6713ZM48.6569 31.1959L50.9353 28.6713L48.7081 26.6614L46.4297 29.186L48.6569 31.1959ZM48.864 30.4878C48.9065 30.7431 48.8303 31.0038 48.6569 31.1959L46.4297 29.186C45.9903 29.673 45.797 30.3339 45.9048 30.981L48.864 30.4878ZM49.4182 33.813L48.864 30.4878L45.9048 30.981L46.459 34.3062L49.4182 33.813ZM48.8124 33.1359C49.1283 33.2254 49.3642 33.4891 49.4182 33.813L46.459 34.3062C46.5958 35.1271 47.1939 35.7955 47.9946 36.0223L48.8124 33.1359ZM47.9415 33.3946C48.1573 33.1472 48.4965 33.0464 48.8124 33.1359L47.9946 36.0223C48.7953 36.2492 49.6551 35.9939 50.2022 35.3667L47.9415 33.3946ZM50.4662 30.5005L47.9415 33.3946L50.2022 35.3667L52.7269 32.4726L50.4662 30.5005ZM50.2865 31.2802C50.2124 31.0066 50.2798 30.7141 50.4661 30.5005L52.7269 32.4726C53.1992 31.9311 53.3701 31.1895 53.1822 30.496L50.2865 31.2802ZM49.486 28.3245L50.2865 31.2802L53.1822 30.496L52.3817 27.5403L49.486 28.3245ZM47.2414 31.0769L47.5172 32.7317L50.4764 32.2385L50.2006 30.5837L47.2414 31.0769ZM48.8751 28.4206L47.6074 29.8254L49.8346 31.8353L51.1023 30.4305L48.8751 28.4206ZM51.8339 30.5005L51.4365 29.0334L48.5409 29.8177L48.9382 31.2847L51.8339 30.5005ZM50.1271 33.4712L51.5164 31.8786L49.2557 29.9065L47.8664 31.4991L50.1271 33.4712ZM13.5409 34.5156C12.7552 34.4658 12.0051 34.8492 11.5851 35.5151L14.1227 37.1154C13.957 37.3781 13.6611 37.5293 13.3511 37.5096L13.5409 34.5156ZM16.597 34.7094L13.5409 34.5156L13.3511 37.5096L16.4071 37.7034L16.597 34.7094ZM18.3217 35.7769C17.9611 35.1554 17.3141 34.7549 16.597 34.7094L16.4071 37.7034C16.1242 37.6855 15.869 37.5275 15.7267 37.2823L18.3217 35.7769ZM20.2488 39.099L18.3217 35.7769L15.7267 37.2823L17.6539 40.6043L20.2488 39.099ZM20.1588 41.4001C20.6314 40.715 20.6664 39.8189 20.2488 39.099L17.6539 40.6043C17.4891 40.3203 17.5029 39.9668 17.6894 39.6965L20.1588 41.4001ZM18.0396 42.3014C18.8608 42.4361 19.6862 42.0851 20.1588 41.4001L17.6894 39.6965C17.8758 39.4263 18.2014 39.2878 18.5254 39.341L18.0396 42.3014ZM14.713 41.7554L18.0396 42.3014L18.5254 39.341L15.1989 38.795L14.713 41.7554ZM13.1827 40.6805C13.5022 41.2534 14.0657 41.6492 14.713 41.7554L15.1989 38.795C15.4543 38.8369 15.6765 38.9931 15.8026 39.2191L13.1827 40.6805ZM11.526 37.7106L13.1827 40.6805L15.8026 39.2191L14.146 36.2492L11.526 37.7106ZM11.5851 35.5151C11.1652 36.181 11.1425 37.0231 11.526 37.7106L14.146 36.2492C14.2973 36.5204 14.2883 36.8527 14.1227 37.1154L11.5851 35.5151ZM17.3755 37.8322L15.72 37.5605L15.2342 40.5209L16.8897 40.7926L17.3755 37.8322ZM14.7747 38.2371L15.8351 40.0651L18.4301 38.5597L17.3696 36.7317L14.7747 38.2371ZM14.4604 38.8852L15.9772 38.9814L16.1671 35.9874L14.6502 35.8912L14.4604 38.8852ZM16.7871 38.31L15.8653 36.6575L13.2453 38.1189L14.1671 39.7714L16.7871 38.31Z" fill="#F8F9FA" mask="url(#path-1-outside-1_50_8414)"/>
<path d="M46.7145 15.75H13.1415C13.1415 16.1309 13.4183 20.4443 15.6698 23.5293C19.6368 28.9647 25.5649 27.5223 25.5649 33.0309C25.5649 34.3478 23.0299 36.8187 23.4585 39.8183C23.887 42.8179 25.5649 44.4545 29.2918 47.3887C30.9858 48.7224 32.8082 49.3628 32.8082 51.3709C34.0706 50.2562 35.2871 50.3229 35.2871 47.3887C35.2871 44.4545 32.2878 43.3222 32.0022 40.3226C31.7165 37.323 34.8589 33.1049 38.5727 30.2481C41.5438 27.9627 46.7145 22.3365 46.7145 15.75Z" fill="#CED4DA" stroke="#212529" stroke-width="1.8" stroke-linejoin="round"/>
<g style="mix-blend-mode:soft-light" opacity="0.8">
<path d="M16.3956 20.1268C16.1747 20.3923 16.6415 21.4209 17.6031 22.607C18.5866 23.8199 19.5239 24.2989 19.8768 24.0426C20.3179 23.7221 19.2471 22.2089 18.6474 21.7193C17.5873 20.678 16.6719 19.795 16.3956 20.1268Z" fill="#F8F9FA"/>
</g>
<g style="mix-blend-mode:multiply" opacity="0.7">
<path fill-rule="evenodd" clip-rule="evenodd" d="M32.3057 49.7868C32.6189 50.2188 32.8081 50.7238 32.8081 51.3709C33.1004 51.1128 33.3903 50.918 33.6631 50.7347C34.5687 50.1262 35.2871 49.6435 35.2871 47.3887C35.2871 45.8811 34.4953 44.8492 33.6866 43.7953C32.9213 42.798 32.141 41.781 32.0021 40.3226C31.7164 37.323 34.8589 33.1049 38.5727 30.2481C41.5437 27.9627 46.7145 22.3365 46.7145 15.75H44.2756C44.2756 22.3365 39.1048 27.9627 36.1338 30.2481C32.42 33.1049 29.2776 37.323 29.5632 40.3226C29.7021 41.781 30.4825 42.798 31.2477 43.7953C32.0564 44.8492 32.8482 45.8811 32.8482 47.3887C32.8482 48.6035 32.6397 49.3039 32.3057 49.7868Z" fill="#DEE2E6"/>
</g>
<path d="M18.5561 26.0789C17.4217 26.1043 16.6976 26.2081 16.2972 26.9327C15.9421 27.5754 16.1486 28.4483 16.7129 28.8717C18.4863 30.2022 26.0057 30.4172 29.455 30.0981" stroke="#212529" stroke-width="1.4" stroke-linecap="round" stroke-linejoin="round"/>
<path d="M36.5248 32.0208C37.6583 31.9937 38.3844 32.0586 38.8063 32.7202C39.1806 33.3071 39.0012 34.1352 38.4507 34.5576C36.7209 35.8851 33.5773 36.3755 30.1237 36.231" stroke="#212529" stroke-width="1.4" stroke-linecap="round" stroke-linejoin="round"/>
<path d="M46.8084 19.1159C47.9419 19.0887 48.668 19.1537 49.09 19.8153C49.4642 20.4022 49.0128 21.0202 48.2428 21.4747C46.0251 22.7838 35.9998 24.2852 29.2299 23.3946" stroke="#212529" stroke-width="1.4" stroke-linecap="round" stroke-linejoin="round"/>
<path d="M48.0269 30.5989L50.3052 28.0742L51.1057 31.0299L48.581 33.924L48.0269 30.5989Z" fill="#FA5252" stroke="#212529" stroke-linecap="round" stroke-linejoin="round"/>
<path d="M15.0615 39.6049L13.4048 36.635L16.4609 36.8287L18.388 40.1508L15.0615 39.6049Z" fill="#BAC8FF" stroke="#212529" stroke-linecap="round" stroke-linejoin="round"/>
<path fill-rule="evenodd" clip-rule="evenodd" d="M38.8826 52.3453H19.9011V52.3403C18.3738 52.2515 17.1626 50.9848 17.1626 49.4352C17.1626 47.828 18.4655 46.5251 20.0727 46.5251C20.3107 46.5251 20.542 46.5537 20.7634 46.6076C21.1026 44.9972 22.5315 43.7884 24.2427 43.7884C24.5219 43.7884 24.7936 43.8206 25.0542 43.8814C25.8418 42.3004 27.5014 41.2109 29.4213 41.2109C30.9183 41.2109 32.2571 41.8733 33.1476 42.9146C33.5176 42.7942 33.9126 42.7292 34.3229 42.7292C35.8476 42.7292 37.1623 43.6281 37.766 44.9248C38.1234 44.8134 38.5034 44.7534 38.8975 44.7534C40.9939 44.7534 42.6934 46.4529 42.6934 48.5493C42.6934 50.4907 41.2361 52.0916 39.3558 52.3179V52.3453H38.9124C38.9074 52.3453 38.9024 52.3453 38.8975 52.3453C38.8925 52.3453 38.8875 52.3453 38.8826 52.3453Z" fill="#E9ECEF"/>
<path d="M38.8826 52.3453L38.8856 51.5453H38.8826V52.3453ZM19.9011 52.3453H19.1011C19.1011 52.7871 19.4593 53.1453 19.9011 53.1453V52.3453ZM19.9011 52.3403H20.7011C20.7011 51.9165 20.3706 51.5663 19.9476 51.5417L19.9011 52.3403ZM20.7634 46.6076L20.5742 47.3849C20.7846 47.4361 21.0067 47.3999 21.1899 47.2844C21.3731 47.169 21.5016 46.9843 21.5463 46.7725L20.7634 46.6076ZM25.0542 43.8814L24.8723 44.6605C25.2333 44.7448 25.605 44.57 25.7703 44.2381L25.0542 43.8814ZM33.1476 42.9146L32.5396 43.4346C32.7498 43.6804 33.0874 43.7754 33.395 43.6754L33.1476 42.9146ZM37.766 44.9249L37.0408 45.2625C37.2099 45.6258 37.6217 45.8079 38.0042 45.6886L37.766 44.9249ZM39.3558 52.3179L39.2602 51.5237C38.8583 51.572 38.5558 51.9131 38.5558 52.3179H39.3558ZM39.3558 52.3453V53.1453C39.7976 53.1453 40.1558 52.7871 40.1558 52.3453H39.3558ZM38.9124 52.3453L38.9124 51.5453L38.9093 51.5453L38.9124 52.3453ZM38.8826 51.5453H19.9011V53.1453H38.8826V51.5453ZM20.7011 52.3453V52.3403H19.1011V52.3453H20.7011ZM19.9476 51.5417C18.8408 51.4773 17.9626 50.5585 17.9626 49.4352H16.3626C16.3626 51.4111 17.9068 53.0257 19.8547 53.139L19.9476 51.5417ZM17.9626 49.4352C17.9626 48.2698 18.9073 47.3251 20.0727 47.3251V45.7251C18.0237 45.7251 16.3626 47.3862 16.3626 49.4352H17.9626ZM20.0727 47.3251C20.2464 47.3251 20.4143 47.3459 20.5742 47.3849L20.9527 45.8303C20.6698 45.7614 20.3749 45.7251 20.0727 45.7251V47.3251ZM21.5463 46.7725C21.8091 45.5247 22.9175 44.5884 24.2427 44.5884V42.9884C22.1455 42.9884 20.3961 44.4698 19.9806 46.4427L21.5463 46.7725ZM24.2427 44.5884C24.4602 44.5884 24.6709 44.6135 24.8723 44.6605L25.2361 43.1024C24.9162 43.0277 24.5835 42.9884 24.2427 42.9884V44.5884ZM25.7703 44.2381C26.4245 42.9248 27.8092 42.011 29.4213 42.011V40.411C27.1936 40.411 25.2591 41.676 24.3381 43.5247L25.7703 44.2381ZM29.4213 42.011C30.6782 42.011 31.7969 42.5662 32.5396 43.4346L33.7556 42.3947C32.7172 41.1805 31.1584 40.411 29.4213 40.411V42.011ZM33.395 43.6754C33.6862 43.5807 33.9977 43.5292 34.3228 43.5292V41.9292C33.8276 41.9292 33.3491 42.0078 32.9001 42.1539L33.395 43.6754ZM34.3228 43.5292C35.525 43.5292 36.5634 44.2372 37.0408 45.2625L38.4913 44.5872C37.7612 43.019 36.1701 41.9292 34.3228 41.9292V43.5292ZM38.0042 45.6886C38.2853 45.6009 38.5851 45.5534 38.8975 45.5534V43.9534C38.4217 43.9534 37.9614 44.0259 37.5279 44.1611L38.0042 45.6886ZM38.8975 45.5534C40.5521 45.5534 41.8934 46.8947 41.8934 48.5494H43.4934C43.4934 46.0111 41.4357 43.9534 38.8975 43.9534V45.5534ZM41.8934 48.5494C41.8934 50.081 40.7434 51.3451 39.2602 51.5237L39.4514 53.1122C41.7288 52.8381 43.4934 50.9004 43.4934 48.5494H41.8934ZM38.5558 52.3179V52.3453H40.1558V52.3179H38.5558ZM39.3558 51.5453H38.9124V53.1453H39.3558V51.5453ZM38.9093 51.5453C38.9053 51.5453 38.9014 51.5453 38.8975 51.5453V53.1453C38.9035 53.1453 38.9094 53.1453 38.9154 53.1453L38.9093 51.5453ZM38.8975 51.5453C38.8935 51.5453 38.8896 51.5453 38.8856 51.5453L38.8795 53.1453C38.8855 53.1453 38.8915 53.1453 38.8975 53.1453V51.5453Z" fill="#212529"/>
<g style="mix-blend-mode:multiply" opacity="0.7">
<path d="M36.8957 46.4469C36.7383 45.3847 35.048 44.0211 33.2566 43.3979C33.7811 43.1684 35.0663 42.8471 36.0105 43.3979C36.9547 43.9486 37.8792 44.8732 38.2235 45.2666C42.4035 45.4141 42.4035 46.7419 42.6494 48.0697C42.8461 49.1319 41.715 51.1351 41.1249 52.0039L38.5677 51.758C39.748 50.5777 40.9373 49.5571 40.4947 47.7867C40.1406 46.3704 37.9448 46.201 36.8957 46.4469Z" fill="#DEE2E6"/>
</g>
<path d="M8.70886 52.3457H52.2912" stroke="#212529" stroke-width="2" stroke-linecap="round" stroke-linejoin="round"/>
<ellipse cx="29.928" cy="15.1882" rx="16.7865" ry="4.1609" fill="#ADB5BD" stroke="#212529" stroke-width="1.8" stroke-linejoin="round"/>
</svg>
