<svg width="60" height="61" viewBox="0 0 60 61" fill="none" xmlns="http://www.w3.org/2000/svg">
<mask id="path-1-outside-1_50_1232" maskUnits="userSpaceOnUse" x="6.1947" y="8.02758" width="47" height="46" fill="black">
<rect fill="white" x="6.1947" y="8.02758" width="47" height="46"/>
<path fill-rule="evenodd" clip-rule="evenodd" d="M16.1463 41.8062C17.5796 47.1218 22.3224 50.4234 28.0862 49.9896C28.6369 49.9481 29.117 50.361 29.1584 50.9117C29.1999 51.4624 28.787 51.9425 28.2363 51.9839C21.6061 52.483 16.0075 48.6668 14.2627 42.4992L13.048 44.7818C12.7886 45.2693 12.183 45.4542 11.6955 45.1948C11.2079 44.9353 11.023 44.3298 11.2825 43.8422L13.656 39.3819C13.9131 38.8988 14.5108 38.7121 14.9972 38.963L19.5735 41.3236C20.0643 41.5768 20.2569 42.1799 20.0038 42.6708C19.7506 43.1616 19.1474 43.3542 18.6566 43.1011L16.1463 41.8062ZM30.6354 25.5043C28.6763 26.1457 27.2613 27.9886 27.2613 30.162L27.2613 34.5372L13.402 34.5372C11.6899 34.5372 10.302 33.1493 10.302 31.4372L10.302 18.9194C10.302 17.2073 11.6899 15.8194 13.402 15.8194L27.5354 15.8194C29.2475 15.8194 30.6354 17.2073 30.6354 18.9194L30.6354 25.5043ZM32.4354 25.262L46.2947 25.262C49.0009 25.262 51.1947 27.4559 51.1947 30.162L51.1947 42.6799C51.1947 45.3861 49.0009 47.5799 46.2947 47.5799L32.1613 47.5799C29.4551 47.5799 27.2613 45.3861 27.2613 42.6799L27.2613 36.3372L13.402 36.3372C10.6958 36.3372 8.502 34.1434 8.502 31.4372L8.50201 18.9194C8.50201 16.2132 10.6958 14.0194 13.402 14.0194L27.5354 14.0194C30.2416 14.0194 32.4354 16.2132 32.4354 18.9194L32.4354 25.262ZM30.6354 27.4629C29.6955 27.9954 29.0613 29.0047 29.0613 30.162L29.0613 34.1363C30.0012 33.6039 30.6354 32.5946 30.6354 31.4372L30.6354 27.4629ZM29.0613 36.095C31.0204 35.4536 32.4354 33.6107 32.4354 31.4372L32.4354 27.062L46.2947 27.062C48.0068 27.062 49.3947 28.45 49.3947 30.162L49.3947 42.6799C49.3947 44.392 48.0068 45.7799 46.2947 45.7799L32.1613 45.7799C30.4492 45.7799 29.0613 44.392 29.0613 42.6799L29.0613 36.095ZM43.2449 20.2551C41.8116 14.9395 37.0689 11.6379 31.305 12.0717C30.7543 12.1132 30.2742 11.7003 30.2328 11.1496C30.1913 10.5989 30.6042 10.1188 31.1549 10.0774C37.7851 9.57832 43.3837 13.3945 45.1285 19.5621L46.3432 17.2795C46.6026 16.792 47.2082 16.607 47.6957 16.8665C48.1833 17.1259 48.3682 17.7315 48.1088 18.2191L45.7352 22.6793C45.4781 23.1625 44.8804 23.3492 44.394 23.0983L39.8177 20.7377C39.3269 20.4845 39.1343 19.8813 39.3875 19.3905C39.6407 18.8997 40.2438 18.707 40.7346 18.9602L43.2449 20.2551Z"/>
</mask>
<path fill-rule="evenodd" clip-rule="evenodd" d="M16.1463 41.8062C17.5796 47.1218 22.3224 50.4234 28.0862 49.9896C28.6369 49.9481 29.117 50.361 29.1584 50.9117C29.1999 51.4624 28.787 51.9425 28.2363 51.9839C21.6061 52.483 16.0075 48.6668 14.2627 42.4992L13.048 44.7818C12.7886 45.2693 12.183 45.4542 11.6955 45.1948C11.2079 44.9353 11.023 44.3298 11.2825 43.8422L13.656 39.3819C13.9131 38.8988 14.5108 38.7121 14.9972 38.963L19.5735 41.3236C20.0643 41.5768 20.2569 42.1799 20.0038 42.6708C19.7506 43.1616 19.1474 43.3542 18.6566 43.1011L16.1463 41.8062ZM30.6354 25.5043C28.6763 26.1457 27.2613 27.9886 27.2613 30.162L27.2613 34.5372L13.402 34.5372C11.6899 34.5372 10.302 33.1493 10.302 31.4372L10.302 18.9194C10.302 17.2073 11.6899 15.8194 13.402 15.8194L27.5354 15.8194C29.2475 15.8194 30.6354 17.2073 30.6354 18.9194L30.6354 25.5043ZM32.4354 25.262L46.2947 25.262C49.0009 25.262 51.1947 27.4559 51.1947 30.162L51.1947 42.6799C51.1947 45.3861 49.0009 47.5799 46.2947 47.5799L32.1613 47.5799C29.4551 47.5799 27.2613 45.3861 27.2613 42.6799L27.2613 36.3372L13.402 36.3372C10.6958 36.3372 8.502 34.1434 8.502 31.4372L8.50201 18.9194C8.50201 16.2132 10.6958 14.0194 13.402 14.0194L27.5354 14.0194C30.2416 14.0194 32.4354 16.2132 32.4354 18.9194L32.4354 25.262ZM30.6354 27.4629C29.6955 27.9954 29.0613 29.0047 29.0613 30.162L29.0613 34.1363C30.0012 33.6039 30.6354 32.5946 30.6354 31.4372L30.6354 27.4629ZM29.0613 36.095C31.0204 35.4536 32.4354 33.6107 32.4354 31.4372L32.4354 27.062L46.2947 27.062C48.0068 27.062 49.3947 28.45 49.3947 30.162L49.3947 42.6799C49.3947 44.392 48.0068 45.7799 46.2947 45.7799L32.1613 45.7799C30.4492 45.7799 29.0613 44.392 29.0613 42.6799L29.0613 36.095ZM43.2449 20.2551C41.8116 14.9395 37.0689 11.6379 31.305 12.0717C30.7543 12.1132 30.2742 11.7003 30.2328 11.1496C30.1913 10.5989 30.6042 10.1188 31.1549 10.0774C37.7851 9.57832 43.3837 13.3945 45.1285 19.5621L46.3432 17.2795C46.6026 16.792 47.2082 16.607 47.6957 16.8665C48.1833 17.1259 48.3682 17.7315 48.1088 18.2191L45.7352 22.6793C45.4781 23.1625 44.8804 23.3492 44.394 23.0983L39.8177 20.7377C39.3269 20.4845 39.1343 19.8813 39.3875 19.3905C39.6407 18.8997 40.2438 18.707 40.7346 18.9602L43.2449 20.2551Z" fill="#F8F9FA"/>
<path d="M28.0862 49.9896L28.1988 51.4853L28.1988 51.4853L28.0862 49.9896ZM16.1463 41.8062L16.834 40.4731C16.3059 40.2007 15.6668 40.2657 15.2043 40.6388C14.7419 41.012 14.5433 41.6229 14.698 42.1967L16.1463 41.8062ZM29.1584 50.9117L27.6627 51.0243L27.6627 51.0243L29.1584 50.9117ZM28.2363 51.9839L28.3489 53.4797L28.3489 53.4797L28.2363 51.9839ZM14.2627 42.4992L15.7061 42.0909C15.5394 41.5016 15.0313 41.0729 14.4224 41.0077C13.8135 40.9425 13.2262 41.254 12.9385 41.7945L14.2627 42.4992ZM13.048 44.7818L14.3722 45.4864L14.3722 45.4864L13.048 44.7818ZM11.6955 45.1948L10.9908 46.519L10.9908 46.519L11.6955 45.1948ZM11.2825 43.8422L12.6066 44.5469L12.6066 44.5469L11.2825 43.8422ZM13.656 39.3819L12.3318 38.6773L12.3318 38.6773L13.656 39.3819ZM14.9972 38.963L15.6849 37.6299L15.6849 37.6299L14.9972 38.963ZM19.5735 41.3236L20.2611 39.9905L20.2611 39.9905L19.5735 41.3236ZM20.0038 42.6708L21.3368 43.3584L21.3368 43.3584L20.0038 42.6708ZM18.6566 43.1011L19.3442 41.768L19.3442 41.768L18.6566 43.1011ZM27.2613 30.162L25.7613 30.162L27.2613 30.162ZM30.6354 25.5043L31.1021 26.9298C31.7185 26.728 32.1354 26.1529 32.1354 25.5043L30.6354 25.5043ZM27.2613 34.5372L27.2613 36.0372C28.0897 36.0372 28.7613 35.3657 28.7613 34.5372L27.2613 34.5372ZM13.402 34.5372L13.402 36.0372L13.402 36.0372L13.402 34.5372ZM10.302 31.4372L11.802 31.4372L11.802 31.4372L10.302 31.4372ZM10.302 18.9194L8.802 18.9194L8.802 18.9194L10.302 18.9194ZM13.402 15.8194L13.402 17.3194L13.402 15.8194ZM27.5354 15.8194L27.5354 14.3194L27.5354 15.8194ZM30.6354 18.9194L29.1354 18.9194L29.1354 18.9194L30.6354 18.9194ZM46.2947 25.262L46.2947 23.762L46.2947 23.762L46.2947 25.262ZM32.4354 25.262L30.9354 25.262C30.9354 26.0905 31.607 26.762 32.4354 26.762L32.4354 25.262ZM46.2947 47.5799L46.2947 49.0799L46.2947 49.0799L46.2947 47.5799ZM32.1613 47.5799L32.1613 46.0799L32.1613 46.0799L32.1613 47.5799ZM27.2613 42.6799L28.7613 42.6799L28.7613 42.6799L27.2613 42.6799ZM27.2613 36.3372L28.7613 36.3372C28.7613 35.5088 28.0897 34.8372 27.2613 34.8372L27.2613 36.3372ZM13.402 36.3372L13.402 37.8372L13.402 37.8372L13.402 36.3372ZM8.502 31.4372L10.002 31.4372L8.502 31.4372ZM8.50201 18.9194L7.00201 18.9194L8.50201 18.9194ZM13.402 14.0194L13.402 15.5194L13.402 14.0194ZM27.5354 14.0194L27.5354 12.5194L27.5354 14.0194ZM32.4354 18.9194L30.9354 18.9194L30.9354 18.9194L32.4354 18.9194ZM30.6354 27.4629L32.1354 27.4629C32.1354 26.9292 31.8518 26.4357 31.3907 26.167C30.9296 25.8982 30.3604 25.8948 29.896 26.1578L30.6354 27.4629ZM29.0613 34.1363L27.5613 34.1363C27.5613 34.6701 27.8449 35.1636 28.306 35.4323C28.7671 35.701 29.3363 35.7045 29.8007 35.4414L29.0613 34.1363ZM29.0613 36.095L28.5946 34.6695C27.9782 34.8713 27.5613 35.4464 27.5613 36.095L29.0613 36.095ZM32.4354 27.062L32.4354 25.562C31.607 25.562 30.9354 26.2336 30.9354 27.062L32.4354 27.062ZM46.2947 27.062L46.2947 28.562L46.2947 28.562L46.2947 27.062ZM49.3947 30.162L50.8947 30.162V30.162L49.3947 30.162ZM49.3947 42.6799L50.8947 42.6799V42.6799L49.3947 42.6799ZM46.2947 45.7799L46.2947 47.2799L46.2947 47.2799L46.2947 45.7799ZM32.1613 45.7799L32.1613 47.2799H32.1613L32.1613 45.7799ZM29.0613 42.6799L27.5613 42.6799L29.0613 42.6799ZM31.305 12.0717L31.4176 13.5675L31.4176 13.5675L31.305 12.0717ZM43.2449 20.2551L42.5572 21.5882C43.0853 21.8606 43.7245 21.7956 44.1869 21.4225C44.6493 21.0493 44.8479 20.4383 44.6932 19.8646L43.2449 20.2551ZM30.2328 11.1496L28.737 11.2622L28.737 11.2622L30.2328 11.1496ZM31.1549 10.0774L31.2675 11.5731L31.2675 11.5731L31.1549 10.0774ZM45.1285 19.5621L43.6852 19.9704C43.8518 20.5596 44.36 20.9884 44.9688 21.0536C45.5777 21.1188 46.165 20.8073 46.4527 20.2668L45.1285 19.5621ZM46.3432 17.2795L47.6674 17.9842L47.6674 17.9842L46.3432 17.2795ZM48.1088 18.2191L49.4329 18.9237L49.4329 18.9237L48.1088 18.2191ZM45.7352 22.6793L44.4111 21.9747L44.4111 21.9747L45.7352 22.6793ZM44.394 23.0983L43.7064 24.4314L43.7064 24.4314L44.394 23.0983ZM39.8177 20.7377L40.5054 19.4046L40.5054 19.4046L39.8177 20.7377ZM39.3875 19.3905L38.0544 18.7028L38.0544 18.7029L39.3875 19.3905ZM40.7346 18.9602L41.4223 17.6271L41.4223 17.6271L40.7346 18.9602ZM27.9736 48.4938C22.8934 48.8762 18.8316 46.0031 17.5946 41.4156L14.698 42.1967C16.3277 48.2406 21.7513 51.9706 28.1988 51.4853L27.9736 48.4938ZM30.6542 50.7991C30.5506 49.4223 29.3504 48.3902 27.9736 48.4938L28.1988 51.4853C27.9234 51.506 27.6834 51.2996 27.6627 51.0243L30.6542 50.7991ZM28.3489 53.4797C29.7257 53.3761 30.7578 52.1759 30.6542 50.7991L27.6627 51.0243C27.6419 50.7489 27.8484 50.5089 28.1237 50.4881L28.3489 53.4797ZM12.8193 42.9075C14.7674 49.7937 21.0414 54.0297 28.3489 53.4797L28.1237 50.4881C22.1707 50.9362 17.2476 47.5399 15.7061 42.0909L12.8193 42.9075ZM12.9385 41.7945L11.7239 44.0771L14.3722 45.4864L15.5869 43.2038L12.9385 41.7945ZM11.7239 44.0771C11.8536 43.8333 12.1564 43.7409 12.4001 43.8706L10.9908 46.519C12.2097 47.1676 13.7236 46.7053 14.3722 45.4864L11.7239 44.0771ZM12.4001 43.8706C12.6439 44.0003 12.7364 44.3031 12.6066 44.5469L9.95828 43.1376C9.30965 44.3565 9.77195 45.8704 10.9908 46.519L12.4001 43.8706ZM12.6066 44.5469L14.9802 40.0866L12.3318 38.6773L9.95828 43.1376L12.6066 44.5469ZM14.9802 40.0866C14.8516 40.3282 14.5527 40.4215 14.3095 40.2961L15.6849 37.6299C14.4689 37.0026 12.9745 37.4694 12.3318 38.6773L14.9802 40.0866ZM14.3095 40.2961L18.8858 42.6567L20.2611 39.9905L15.6849 37.6299L14.3095 40.2961ZM18.8858 42.6567C18.6404 42.5301 18.5441 42.2285 18.6707 41.9831L21.3368 43.3584C21.9698 42.1314 21.4882 40.6235 20.2611 39.9905L18.8858 42.6567ZM18.6707 41.9831C18.7973 41.7377 19.0988 41.6414 19.3442 41.768L17.9689 44.4341C19.196 45.0671 20.7039 44.5855 21.3368 43.3584L18.6707 41.9831ZM19.3442 41.768L16.834 40.4731L15.4586 43.1392L17.9689 44.4341L19.3442 41.768ZM28.7613 30.162C28.7613 28.6562 29.7412 27.3754 31.1021 26.9298L30.1687 24.0787C27.6115 24.9159 25.7613 27.321 25.7613 30.162L28.7613 30.162ZM28.7613 34.5372L28.7613 30.162L25.7613 30.162L25.7613 34.5372L28.7613 34.5372ZM13.402 36.0372L27.2613 36.0372L27.2613 33.0372L13.402 33.0372L13.402 36.0372ZM8.80201 31.4372C8.80201 33.9777 10.8615 36.0372 13.402 36.0372L13.402 33.0372C12.5184 33.0372 11.802 32.3209 11.802 31.4372L8.80201 31.4372ZM8.802 18.9194L8.80201 31.4372L11.802 31.4372L11.802 18.9194L8.802 18.9194ZM13.402 14.3194C10.8615 14.3194 8.80201 16.3789 8.802 18.9194L11.802 18.9194C11.802 18.0357 12.5183 17.3194 13.402 17.3194L13.402 14.3194ZM27.5354 14.3194L13.402 14.3194L13.402 17.3194L27.5354 17.3194L27.5354 14.3194ZM32.1354 18.9194C32.1354 16.3789 30.0759 14.3194 27.5354 14.3194L27.5354 17.3194C28.4191 17.3194 29.1354 18.0357 29.1354 18.9194L32.1354 18.9194ZM32.1354 25.5043L32.1354 18.9194L29.1354 18.9194L29.1354 25.5043L32.1354 25.5043ZM46.2947 23.762L32.4354 23.762L32.4354 26.762L46.2947 26.762L46.2947 23.762ZM52.6947 30.162C52.6947 26.6274 49.8293 23.762 46.2947 23.762L46.2947 26.762C48.1725 26.762 49.6947 28.2843 49.6947 30.162L52.6947 30.162ZM52.6947 42.6799L52.6947 30.162L49.6947 30.162L49.6947 42.6799L52.6947 42.6799ZM46.2947 49.0799C49.8293 49.0799 52.6947 46.2145 52.6947 42.6799L49.6947 42.6799C49.6947 44.5577 48.1725 46.0799 46.2947 46.0799L46.2947 49.0799ZM32.1613 49.0799L46.2947 49.0799L46.2947 46.0799L32.1613 46.0799L32.1613 49.0799ZM25.7613 42.6799C25.7613 46.2145 28.6267 49.0799 32.1613 49.0799L32.1613 46.0799C30.2835 46.0799 28.7613 44.5577 28.7613 42.6799L25.7613 42.6799ZM25.7613 36.3372L25.7613 42.6799L28.7613 42.6799L28.7613 36.3372L25.7613 36.3372ZM13.402 37.8372L27.2613 37.8372L27.2613 34.8372L13.402 34.8372L13.402 37.8372ZM7.002 31.4372C7.002 34.9719 9.86738 37.8372 13.402 37.8372L13.402 34.8372C11.5242 34.8372 10.002 33.315 10.002 31.4372L7.002 31.4372ZM7.00201 18.9194L7.002 31.4372L10.002 31.4372L10.002 18.9194L7.00201 18.9194ZM13.402 12.5194C9.86739 12.5194 7.00201 15.3848 7.00201 18.9194L10.002 18.9194C10.002 17.0416 11.5242 15.5194 13.402 15.5194L13.402 12.5194ZM27.5354 12.5194L13.402 12.5194L13.402 15.5194L27.5354 15.5194L27.5354 12.5194ZM33.9354 18.9194C33.9354 15.3848 31.07 12.5194 27.5354 12.5194L27.5354 15.5194C29.4132 15.5194 30.9354 17.0416 30.9354 18.9194L33.9354 18.9194ZM33.9354 25.262L33.9354 18.9194L30.9354 18.9194L30.9354 25.262L33.9354 25.262ZM30.5613 30.162C30.5613 29.5666 30.8858 29.0451 31.3748 28.7681L29.896 26.1578C28.5053 26.9458 27.5613 28.4427 27.5613 30.162L30.5613 30.162ZM30.5613 34.1363L30.5613 30.162L27.5613 30.162L27.5613 34.1363L30.5613 34.1363ZM29.1354 31.4372C29.1354 32.0327 28.8109 32.5542 28.3219 32.8312L29.8007 35.4414C31.1915 34.6535 32.1354 33.1566 32.1354 31.4372L29.1354 31.4372ZM29.1354 27.4629L29.1354 31.4372L32.1354 31.4372L32.1354 27.4629L29.1354 27.4629ZM30.9354 31.4372C30.9354 32.943 29.9555 34.2239 28.5946 34.6695L29.528 37.5205C32.0852 36.6833 33.9354 34.2783 33.9354 31.4372L30.9354 31.4372ZM30.9354 27.062L30.9354 31.4372L33.9354 31.4372L33.9354 27.062L30.9354 27.062ZM46.2947 25.562L32.4354 25.562L32.4354 28.562L46.2947 28.562L46.2947 25.562ZM50.8947 30.162C50.8947 27.6215 48.8352 25.562 46.2947 25.562L46.2947 28.562C47.1784 28.562 47.8947 29.2784 47.8947 30.162L50.8947 30.162ZM50.8947 42.6799L50.8947 30.162L47.8947 30.162L47.8947 42.6799L50.8947 42.6799ZM46.2947 47.2799C48.8352 47.2799 50.8947 45.2204 50.8947 42.6799L47.8947 42.6799C47.8947 43.5636 47.1784 44.2799 46.2947 44.2799L46.2947 47.2799ZM32.1613 47.2799L46.2947 47.2799L46.2947 44.2799L32.1613 44.2799L32.1613 47.2799ZM27.5613 42.6799C27.5613 45.2204 29.6208 47.2799 32.1613 47.2799L32.1613 44.2799C31.2776 44.2799 30.5613 43.5636 30.5613 42.6799L27.5613 42.6799ZM27.5613 36.095L27.5613 42.6799L30.5613 42.6799L30.5613 36.095L27.5613 36.095ZM31.4176 13.5675C36.4978 13.1851 40.5597 16.0582 41.7966 20.6456L44.6932 19.8646C43.0635 13.8207 37.6399 10.0907 31.1924 10.576L31.4176 13.5675ZM28.737 11.2622C28.8406 12.639 30.0408 13.6711 31.4176 13.5675L31.1924 10.576C31.4678 10.5552 31.7078 10.7617 31.7285 11.037L28.737 11.2622ZM31.0423 8.58161C29.6655 8.68523 28.6334 9.88538 28.737 11.2622L31.7285 11.037C31.7493 11.3124 31.5428 11.5524 31.2675 11.5731L31.0423 8.58161ZM46.5719 19.1538C44.6238 12.2676 38.3498 8.03158 31.0423 8.58161L31.2675 11.5731C37.2205 11.1251 42.1437 14.5214 43.6852 19.9704L46.5719 19.1538ZM45.019 16.5749L43.8043 18.8574L46.4527 20.2668L47.6674 17.9842L45.019 16.5749ZM48.4004 15.5423C47.1815 14.8937 45.6676 15.356 45.019 16.5749L47.6674 17.9842C47.5376 18.2279 47.2349 18.3204 46.9911 18.1907L48.4004 15.5423ZM49.4329 18.9237C50.0816 17.7048 49.6193 16.1909 48.4004 15.5423L46.9911 18.1907C46.7473 18.061 46.6549 17.7582 46.7846 17.5144L49.4329 18.9237ZM47.0594 23.384L49.4329 18.9237L46.7846 17.5144L44.4111 21.9747L47.0594 23.384ZM43.7064 24.4314C44.9223 25.0586 46.4167 24.5919 47.0594 23.384L44.4111 21.9747C44.5396 21.7331 44.8385 21.6398 45.0817 21.7652L43.7064 24.4314ZM39.1301 22.0708L43.7064 24.4314L45.0817 21.7652L40.5054 19.4046L39.1301 22.0708ZM38.0544 18.7029C37.4214 19.9299 37.903 21.4378 39.1301 22.0708L40.5054 19.4046C40.7508 19.5312 40.8471 19.8328 40.7206 20.0782L38.0544 18.7029ZM41.4223 17.6271C40.1952 16.9942 38.6874 17.4758 38.0544 18.7028L40.7206 20.0782C40.594 20.3236 40.2924 20.4199 40.047 20.2933L41.4223 17.6271ZM43.9326 18.922L41.4223 17.6271L40.047 20.2933L42.5572 21.5882L43.9326 18.922Z" fill="#F8F9FA" mask="url(#path-1-outside-1_50_1232)"/>
<rect x="9.38599" y="14.9116" width="22.1334" height="20.5179" rx="4" fill="#339AF0" stroke="#212529" stroke-width="1.8" stroke-linecap="round" stroke-linejoin="round"/>
<path d="M25.6353 29.7709C25.6353 30.0596 25.5276 30.2774 25.3124 30.4244C25.1025 30.5714 24.8295 30.6448 24.4936 30.6448C24.2521 30.6448 24.0316 30.5766 23.8322 30.4401C23.6379 30.3036 23.4936 30.1278 23.3991 29.9126L22.6354 28.1174H17.982L17.2655 29.9126C17.1815 30.1278 17.045 30.3036 16.856 30.4401C16.667 30.5766 16.4518 30.6448 16.2104 30.6448C15.8692 30.6448 15.591 30.5687 15.3757 30.4165C15.1605 30.259 15.0503 30.0254 15.0451 29.7157C15.0555 29.532 15.0844 29.3798 15.1317 29.2591L19.1866 19.4799C19.2654 19.3014 19.3966 19.1597 19.5803 19.0547C19.7693 18.9444 19.9714 18.8893 20.1866 18.8893C20.4018 18.8893 20.6039 18.9444 20.7929 19.0547C20.9819 19.1597 21.1183 19.3014 21.2023 19.4799L25.5408 29.2591C25.6038 29.406 25.6353 29.5766 25.6353 29.7709ZM20.2339 22.4798L18.7457 26.1962H21.8165L20.2339 22.4798Z" fill="#212529"/>
<rect x="28.1453" y="26.1543" width="22.1334" height="20.5179" rx="4" fill="#FFE066" stroke="#212529" stroke-width="1.8" stroke-linecap="round" stroke-linejoin="round"/>
<path d="M41.9703 33.716C41.3683 35.298 40.5703 36.614 39.5623 37.706C38.4843 36.572 37.6583 35.228 37.0563 33.716H41.9703ZM45.1343 33.716C45.5828 33.716 45.9463 33.3525 45.9463 32.904V32.904C45.9463 32.4556 45.5828 32.092 45.1343 32.092H40.3883V30.727C40.3883 30.2592 40.0091 29.88 39.5413 29.88V29.88C39.0735 29.88 38.6943 30.2592 38.6943 30.727V32.092H34.0183C33.5699 32.092 33.2063 32.4556 33.2063 32.904V32.904C33.2063 33.3525 33.5699 33.716 34.0183 33.716H35.2083C35.9643 35.76 36.9303 37.51 38.1903 38.952C37.0769 39.8009 35.5428 40.4719 33.9292 40.9854C33.3193 41.1796 33.1649 41.9401 33.5866 42.4215V42.4215C33.8792 42.7555 34.3241 42.8993 34.7425 42.7507C36.5536 42.1075 38.118 41.2726 39.4643 40.198C40.787 41.3192 42.3931 42.1909 44.3438 42.7726C44.7314 42.8881 45.1113 42.7617 45.3954 42.4739V42.4739C45.8806 41.9822 45.7462 41.1498 45.0873 40.9423C43.4848 40.4377 41.9588 39.7215 40.8643 38.882C42.1523 37.482 43.1743 35.788 43.9303 33.716H45.1343Z" fill="#212529"/>
<path d="M31.214 11.0668C37.7826 10.5724 43.1987 14.6006 44.4177 20.9573" stroke="#212529" stroke-width="2" stroke-linecap="round" stroke-linejoin="round"/>
<path d="M40.2602 19.8411L44.8365 22.2018L47.21 17.7415" stroke="#212529" stroke-width="2" stroke-linecap="round" stroke-linejoin="round"/>
<path d="M28.1453 50.979C21.5766 51.4734 16.1606 47.4452 14.9415 41.0885" stroke="#212529" stroke-width="2" stroke-linecap="round" stroke-linejoin="round"/>
<path d="M19.099 42.2046L14.5228 39.844L12.1493 44.3043" stroke="#212529" stroke-width="2" stroke-linecap="round" stroke-linejoin="round"/>
</svg>
