<svg width="60" height="61" viewBox="0 0 60 61" fill="none" xmlns="http://www.w3.org/2000/svg">
<mask id="path-1-outside-1_50_4489" maskUnits="userSpaceOnUse" x="10.641" y="8.80713" width="39" height="45" fill="black">
<rect fill="white" x="10.641" y="8.80713" width="39" height="45"/>
<path fill-rule="evenodd" clip-rule="evenodd" d="M14.4454 28.1661C14.4454 19.5756 21.4095 12.6116 30 12.6116C38.5905 12.6116 45.5546 19.5756 45.5546 28.1661C45.5546 36.7567 38.5905 43.7207 30 43.7207C21.4095 43.7207 14.4454 36.7567 14.4454 28.1661ZM30 10.8071C20.4129 10.8071 12.641 18.579 12.641 28.1661C12.641 37.298 19.6923 44.7829 28.6471 45.4732C28.6468 45.4853 28.6467 45.4974 28.6467 45.5096V50.2074C28.6467 50.9549 29.2526 51.5608 30 51.5608C30.7474 51.5608 31.3533 50.9549 31.3533 50.2074V45.5096C31.3533 45.4974 31.3532 45.4853 31.3529 45.4732C40.3077 44.7829 47.359 37.298 47.359 28.1661C47.359 18.579 39.5871 10.8071 30 10.8071Z"/>
</mask>
<path fill-rule="evenodd" clip-rule="evenodd" d="M14.4454 28.1661C14.4454 19.5756 21.4095 12.6116 30 12.6116C38.5905 12.6116 45.5546 19.5756 45.5546 28.1661C45.5546 36.7567 38.5905 43.7207 30 43.7207C21.4095 43.7207 14.4454 36.7567 14.4454 28.1661ZM30 10.8071C20.4129 10.8071 12.641 18.579 12.641 28.1661C12.641 37.298 19.6923 44.7829 28.6471 45.4732C28.6468 45.4853 28.6467 45.4974 28.6467 45.5096V50.2074C28.6467 50.9549 29.2526 51.5608 30 51.5608C30.7474 51.5608 31.3533 50.9549 31.3533 50.2074V45.5096C31.3533 45.4974 31.3532 45.4853 31.3529 45.4732C40.3077 44.7829 47.359 37.298 47.359 28.1661C47.359 18.579 39.5871 10.8071 30 10.8071Z" fill="#F8F9FA"/>
<path d="M28.6471 45.4732L30.1466 45.5128C30.1677 44.7141 29.559 44.0391 28.7624 43.9777L28.6471 45.4732ZM31.3529 45.4732L31.2376 43.9777C30.441 44.0391 29.8323 44.7141 29.8534 45.5128L31.3529 45.4732ZM30 11.1116C20.581 11.1116 12.9454 18.7472 12.9454 28.1661H15.9454C15.9454 20.404 22.2379 14.1116 30 14.1116V11.1116ZM47.0546 28.1661C47.0546 18.7472 39.419 11.1116 30 11.1116V14.1116C37.7621 14.1116 44.0546 20.404 44.0546 28.1661H47.0546ZM30 45.2207C39.419 45.2207 47.0546 37.5851 47.0546 28.1661H44.0546C44.0546 35.9283 37.7621 42.2207 30 42.2207V45.2207ZM12.9454 28.1661C12.9454 37.5851 20.581 45.2207 30 45.2207V42.2207C22.2379 42.2207 15.9454 35.9283 15.9454 28.1661H12.9454ZM14.141 28.1661C14.141 19.4075 21.2413 12.3071 30 12.3071V9.30713C19.5845 9.30713 11.141 17.7506 11.141 28.1661H14.141ZM28.7624 43.9777C20.5829 43.3471 14.141 36.5082 14.141 28.1661H11.141C11.141 38.0878 18.8017 46.2187 28.5319 46.9688L28.7624 43.9777ZM30.1467 45.5096C30.1467 45.5109 30.1466 45.512 30.1466 45.5128L27.1477 45.4337C27.147 45.4586 27.1467 45.4839 27.1467 45.5096H30.1467ZM30.1467 50.2074V45.5096H27.1467V50.2074H30.1467ZM30 50.0608C30.081 50.0608 30.1467 50.1264 30.1467 50.2074H27.1467C27.1467 51.7833 28.4241 53.0608 30 53.0608V50.0608ZM29.8533 50.2074C29.8533 50.1264 29.919 50.0608 30 50.0608V53.0608C31.5759 53.0608 32.8533 51.7833 32.8533 50.2074H29.8533ZM29.8533 45.5096V50.2074H32.8533V45.5096H29.8533ZM29.8534 45.5128C29.8534 45.512 29.8533 45.5109 29.8533 45.5096H32.8533C32.8533 45.4839 32.853 45.4586 32.8523 45.4337L29.8534 45.5128ZM45.859 28.1661C45.859 36.5082 39.4171 43.3471 31.2376 43.9777L31.4681 46.9688C41.1983 46.2187 48.859 38.0878 48.859 28.1661H45.859ZM30 12.3071C38.7587 12.3071 45.859 19.4075 45.859 28.1661H48.859C48.859 17.7506 40.4155 9.30713 30 9.30713V12.3071Z" fill="#F8F9FA" mask="url(#path-1-outside-1_50_4489)"/>
<circle cx="30" cy="28.1599" r="16.4568" fill="#69DB7C" stroke="#212529" stroke-width="2" stroke-linejoin="round"/>
<g style="mix-blend-mode:multiply" opacity="0.6">
<path fill-rule="evenodd" clip-rule="evenodd" d="M28.4735 43.7222C37.0694 43.2044 43.8726 36.4199 43.8726 28.1265C43.8726 19.8331 37.0694 13.0486 28.4735 12.5308C28.8232 12.5097 29.1759 12.499 29.5312 12.499C38.6201 12.499 45.988 19.4957 45.988 28.1265C45.988 36.7573 38.6201 43.7539 29.5312 43.7539C29.1759 43.7539 28.8232 43.7432 28.4735 43.7222Z" fill="#69DB7C"/>
</g>
<g style="mix-blend-mode:soft-light" opacity="0.5">
<path fill-rule="evenodd" clip-rule="evenodd" d="M31.4905 12.5113C22.7076 12.8403 15.6937 19.7056 15.6937 28.1265C15.6937 36.5473 22.7076 43.4126 31.4905 43.7416C31.2715 43.7498 31.0515 43.7539 30.8305 43.7539C21.7416 43.7539 14.3737 36.7573 14.3737 28.1265C14.3737 19.4957 21.7416 12.499 30.8305 12.499C31.0515 12.499 31.2715 12.5031 31.4905 12.5113Z" fill="#F8F9FA"/>
</g>
<path d="M30 50.2013L30 45.5034" stroke="#212529" stroke-width="3" stroke-linecap="round" stroke-linejoin="round"/>
<path fill-rule="evenodd" clip-rule="evenodd" d="M32.1759 20.7952L39.0176 25.9264C39.2012 26.0642 39.2035 26.3389 39.0222 26.4797L32.1805 31.7909C31.9519 31.9684 31.6191 31.8055 31.6191 31.516V27.8052H26.5575C26.3654 27.8052 26.2096 27.961 26.2096 28.1532V32.72C26.2096 33.4887 25.5864 34.1119 24.8176 34.1119C24.0489 34.1119 23.4257 33.4887 23.4257 32.72V28.1532C23.4257 26.4235 24.8279 25.0213 26.5575 25.0213H31.6191V21.0736C31.6191 20.7869 31.9465 20.6232 32.1759 20.7952Z" fill="#212529"/>
</svg>
