<svg width="60" height="61" viewBox="0 0 60 61" fill="none" xmlns="http://www.w3.org/2000/svg">
<mask id="path-1-outside-1_50_2663" maskUnits="userSpaceOnUse" x="5.50037" y="10.5205" width="49" height="43" fill="black">
<rect fill="white" x="5.50037" y="10.5205" width="49" height="43"/>
<path fill-rule="evenodd" clip-rule="evenodd" d="M40.4951 12.5205C38.8935 12.5205 37.5951 13.8189 37.5951 15.4205V48.8622C37.5951 50.4638 38.8935 51.7622 40.4951 51.7622H49.5997C51.2013 51.7622 52.4997 50.4638 52.4997 48.8622V15.4205C52.4997 13.8189 51.2013 12.5205 49.5997 12.5205H40.4951ZM39.3951 15.4205C39.3951 14.813 39.8876 14.3205 40.4951 14.3205H49.5997C50.2072 14.3205 50.6997 14.813 50.6997 15.4205V48.8622C50.6997 49.4697 50.2072 49.9622 49.5997 49.9622H40.4951C39.8876 49.9622 39.3951 49.4697 39.3951 48.8622V15.4205ZM12.4004 17.5926C9.69417 17.5926 7.50037 19.7864 7.50037 22.4926V39.0169C7.50037 41.7231 9.69418 43.9169 12.4004 43.9169H28.9247C31.6309 43.9169 33.8247 41.7231 33.8247 39.0169V22.4926C33.8247 19.7864 31.6309 17.5926 28.9247 17.5926H12.4004ZM9.30037 22.4926C9.30037 20.7805 10.6883 19.3926 12.4004 19.3926H28.9247C30.6368 19.3926 32.0247 20.7805 32.0247 22.4926V39.0169C32.0247 40.729 30.6368 42.1169 28.9247 42.1169H12.4004C10.6883 42.1169 9.30037 40.729 9.30037 39.0169V22.4926Z"/>
</mask>
<path fill-rule="evenodd" clip-rule="evenodd" d="M40.4951 12.5205C38.8935 12.5205 37.5951 13.8189 37.5951 15.4205V48.8622C37.5951 50.4638 38.8935 51.7622 40.4951 51.7622H49.5997C51.2013 51.7622 52.4997 50.4638 52.4997 48.8622V15.4205C52.4997 13.8189 51.2013 12.5205 49.5997 12.5205H40.4951ZM39.3951 15.4205C39.3951 14.813 39.8876 14.3205 40.4951 14.3205H49.5997C50.2072 14.3205 50.6997 14.813 50.6997 15.4205V48.8622C50.6997 49.4697 50.2072 49.9622 49.5997 49.9622H40.4951C39.8876 49.9622 39.3951 49.4697 39.3951 48.8622V15.4205ZM12.4004 17.5926C9.69417 17.5926 7.50037 19.7864 7.50037 22.4926V39.0169C7.50037 41.7231 9.69418 43.9169 12.4004 43.9169H28.9247C31.6309 43.9169 33.8247 41.7231 33.8247 39.0169V22.4926C33.8247 19.7864 31.6309 17.5926 28.9247 17.5926H12.4004ZM9.30037 22.4926C9.30037 20.7805 10.6883 19.3926 12.4004 19.3926H28.9247C30.6368 19.3926 32.0247 20.7805 32.0247 22.4926V39.0169C32.0247 40.729 30.6368 42.1169 28.9247 42.1169H12.4004C10.6883 42.1169 9.30037 40.729 9.30037 39.0169V22.4926Z" fill="#F8F9FA"/>
<path d="M39.0951 15.4205C39.0951 14.6473 39.7219 14.0205 40.4951 14.0205V11.0205C38.065 11.0205 36.0951 12.9905 36.0951 15.4205H39.0951ZM39.0951 48.8622V15.4205H36.0951V48.8622H39.0951ZM40.4951 50.2622C39.7219 50.2622 39.0951 49.6354 39.0951 48.8622H36.0951C36.0951 51.2923 38.065 53.2622 40.4951 53.2622V50.2622ZM49.5997 50.2622H40.4951V53.2622H49.5997V50.2622ZM50.9997 48.8622C50.9997 49.6354 50.3729 50.2622 49.5997 50.2622V53.2622C52.0297 53.2622 53.9997 51.2923 53.9997 48.8622H50.9997ZM50.9997 15.4205V48.8622H53.9997V15.4205H50.9997ZM49.5997 14.0205C50.3729 14.0205 50.9997 14.6473 50.9997 15.4205H53.9997C53.9997 12.9905 52.0297 11.0205 49.5997 11.0205V14.0205ZM40.4951 14.0205H49.5997V11.0205H40.4951V14.0205ZM40.4951 12.8205C39.0592 12.8205 37.8951 13.9846 37.8951 15.4205H40.8951C40.8951 15.6414 40.716 15.8205 40.4951 15.8205V12.8205ZM49.5997 12.8205H40.4951V15.8205H49.5997V12.8205ZM52.1997 15.4205C52.1997 13.9846 51.0356 12.8205 49.5997 12.8205V15.8205C49.3788 15.8205 49.1997 15.6414 49.1997 15.4205H52.1997ZM52.1997 48.8622V15.4205H49.1997V48.8622H52.1997ZM49.5997 51.4622C51.0356 51.4622 52.1997 50.2982 52.1997 48.8622H49.1997C49.1997 48.6413 49.3788 48.4622 49.5997 48.4622V51.4622ZM40.4951 51.4622H49.5997V48.4622H40.4951V51.4622ZM37.8951 48.8622C37.8951 50.2982 39.0592 51.4622 40.4951 51.4622V48.4622C40.716 48.4622 40.8951 48.6413 40.8951 48.8622H37.8951ZM37.8951 15.4205V48.8622H40.8951V15.4205H37.8951ZM9.00037 22.4926C9.00037 20.6149 10.5226 19.0926 12.4004 19.0926V16.0926C8.86574 16.0926 6.00037 18.958 6.00037 22.4926H9.00037ZM9.00037 39.0169V22.4926H6.00037V39.0169H9.00037ZM12.4004 42.4169C10.5226 42.4169 9.00037 40.8947 9.00037 39.0169H6.00037C6.00037 42.5516 8.86575 45.4169 12.4004 45.4169V42.4169ZM28.9247 42.4169H12.4004V45.4169H28.9247V42.4169ZM32.3247 39.0169C32.3247 40.8947 30.8025 42.4169 28.9247 42.4169V45.4169C32.4593 45.4169 35.3247 42.5516 35.3247 39.0169H32.3247ZM32.3247 22.4926V39.0169H35.3247V22.4926H32.3247ZM28.9247 19.0926C30.8025 19.0926 32.3247 20.6149 32.3247 22.4926H35.3247C35.3247 18.958 32.4593 16.0926 28.9247 16.0926V19.0926ZM12.4004 19.0926H28.9247V16.0926H12.4004V19.0926ZM12.4004 17.8926C9.85986 17.8926 7.80037 19.9521 7.80037 22.4926H10.8004C10.8004 21.609 11.5167 20.8926 12.4004 20.8926V17.8926ZM28.9247 17.8926H12.4004V20.8926H28.9247V17.8926ZM33.5247 22.4926C33.5247 19.9521 31.4652 17.8926 28.9247 17.8926V20.8926C29.8083 20.8926 30.5247 21.609 30.5247 22.4926H33.5247ZM33.5247 39.0169V22.4926H30.5247V39.0169H33.5247ZM28.9247 43.6169C31.4652 43.6169 33.5247 41.5574 33.5247 39.0169H30.5247C30.5247 39.9006 29.8083 40.6169 28.9247 40.6169V43.6169ZM12.4004 43.6169H28.9247V40.6169H12.4004V43.6169ZM7.80037 39.0169C7.80037 41.5575 9.85986 43.6169 12.4004 43.6169V40.6169C11.5167 40.6169 10.8004 39.9006 10.8004 39.0169H7.80037ZM7.80037 22.4926V39.0169H10.8004V22.4926H7.80037Z" fill="#F8F9FA" mask="url(#path-1-outside-1_50_2663)"/>
<rect x="8.50842" y="18.4927" width="24.5243" height="24.5243" rx="4" fill="#868E96" stroke="#212529" stroke-width="1.8" stroke-linejoin="round"/>
<g style="mix-blend-mode:multiply" opacity="0.4">
<path fill-rule="evenodd" clip-rule="evenodd" d="M9.4928 41.0708C10.2262 41.9735 11.3452 42.5503 12.5989 42.5503H28.5459C30.755 42.5503 32.5459 40.7594 32.5459 38.5503V22.6033C32.5459 21.2699 31.8934 20.0889 30.8903 19.3621V39.0708C30.8903 40.1754 29.9949 41.0708 28.8903 41.0708H9.4928Z" fill="#868E96"/>
</g>
<path d="M18.4473 27.5807C18.5567 27.5807 18.6567 27.6104 18.7473 27.6698C18.8411 27.726 18.9145 27.8026 18.9676 27.8995C19.0239 27.9932 19.052 28.0948 19.052 28.2042C19.052 28.3135 19.0239 28.4167 18.9676 28.5135C18.9145 28.6104 18.8411 28.6885 18.7473 28.7479C18.6567 28.8073 18.5567 28.837 18.4473 28.837H17.0083L17.0036 33.8432C17.0036 33.9713 16.9723 34.0854 16.9098 34.1854C16.8473 34.2854 16.7614 34.3635 16.652 34.4198C16.5458 34.476 16.4286 34.5042 16.3004 34.5042C16.1692 34.5042 16.0489 34.4745 15.9395 34.4151C15.8333 34.3588 15.7473 34.2807 15.6817 34.1807C15.6192 34.0807 15.5879 33.9667 15.5879 33.8385L15.5973 28.837H14.1489C14.0395 28.837 13.9379 28.8073 13.8442 28.7479C13.7536 28.6885 13.6801 28.6104 13.6239 28.5135C13.5708 28.4167 13.5442 28.3135 13.5442 28.2042C13.5442 28.0948 13.5708 27.9932 13.6239 27.8995C13.6801 27.8026 13.7536 27.726 13.8442 27.6698C13.9379 27.6104 14.0395 27.5807 14.1489 27.5807H18.4473ZM24.6364 33.9088C24.5645 34.0776 24.4583 34.212 24.3176 34.312C24.177 34.4088 24.0051 34.4573 23.802 34.4573C23.5989 34.4573 23.4254 34.4073 23.2817 34.3073C23.1411 34.2073 23.0348 34.0729 22.9629 33.9042L20.6801 28.4057C20.6395 28.3026 20.6192 28.2026 20.6192 28.1057C20.6192 27.8995 20.6801 27.7401 20.802 27.6276C20.927 27.5151 21.0958 27.4588 21.3083 27.4588C21.4739 27.4588 21.6176 27.4948 21.7395 27.5667C21.8645 27.6354 21.9551 27.737 22.0114 27.8713L23.8067 32.2448L25.6208 27.8713C25.677 27.737 25.7661 27.6354 25.8879 27.5667C26.0129 27.4948 26.1583 27.4588 26.3239 27.4588C26.5364 27.4588 26.7036 27.5151 26.8254 27.6276C26.9473 27.7401 27.0083 27.8995 27.0083 28.1057C27.0083 28.2088 26.9879 28.3088 26.9473 28.4057L24.6364 33.9088Z" fill="#212529"/>
<rect x="38.6031" y="13.4207" width="13.1046" height="37.4417" rx="2" fill="#868E96" stroke="#212529" stroke-width="1.6" stroke-linejoin="round"/>
<circle cx="45.1554" cy="20.4409" r="1.40406" fill="#212529"/>
<circle cx="45.1554" cy="25.9573" r="1.40406" fill="#212529"/>
<circle cx="45.1554" cy="40.4485" r="1.40406" fill="#212529"/>
<circle cx="45.1555" cy="33.5455" r="2.79066" fill="#F1F3F5" stroke="#212529" stroke-linejoin="round"/>
<g style="mix-blend-mode:multiply" opacity="0.4">
<path fill-rule="evenodd" clip-rule="evenodd" d="M38.6031 49.4631C38.8583 50.2739 39.6161 50.862 40.5113 50.862H49.6158C50.7204 50.862 51.6158 49.9666 51.6158 48.862V15.4203C51.6158 14.5624 51.0757 13.8307 50.317 13.5466V48.4631C50.317 49.0154 49.8692 49.4631 49.317 49.4631H38.6031Z" fill="#868E96"/>
</g>
<g style="mix-blend-mode:soft-light" opacity="0.7">
<path d="M11.6114 21.186C11.16 21.3034 10.8592 22.3777 10.768 23.1825C10.6748 24.0056 10.6822 25.2631 11.1725 25.2487C11.6628 25.2344 11.6844 23.6163 11.6466 23.2074C11.6464 22.4191 12.0629 21.0686 11.6114 21.186Z" fill="#F8F9FA"/>
</g>
</svg>
