<svg width="60" height="60" viewBox="0 0 60 60" fill="none" xmlns="http://www.w3.org/2000/svg">
<mask id="path-1-outside-1_50_11364" maskUnits="userSpaceOnUse" x="4.44278" y="7.45524" width="51.4462" height="45.3335" fill="black">
<rect fill="white" x="4.44278" y="7.45524" width="51.4462" height="45.3335"/>
<path fill-rule="evenodd" clip-rule="evenodd" d="M18.3385 13.437C18.7543 13.2876 19.2125 13.5036 19.3618 13.9194C19.5823 14.533 19.9956 15.4602 20.5035 16.2277C20.7578 16.6119 21.0167 16.9267 21.2637 17.1415C21.4253 17.2821 21.5551 17.3569 21.653 17.3942C23.5754 16.2698 25.7983 15.4623 28.1665 15.0695C30.7561 14.64 33.3277 14.8863 35.6315 15.657C35.7015 15.595 35.7817 15.5067 35.8696 15.3822C36.0586 15.1148 36.2353 14.7476 36.3911 14.314C36.7022 13.4478 36.8836 12.4491 36.952 11.8007C36.9984 11.3613 37.3921 11.0427 37.8315 11.089C38.2709 11.1354 38.5895 11.5292 38.5432 11.9686C38.4653 12.7061 38.2626 13.8368 37.8968 14.855C37.7179 15.3531 37.4888 15.856 37.1949 16.2791C40.1692 17.662 42.5285 19.9675 43.6257 22.8031C43.783 22.8433 43.9384 22.8847 44.0919 22.9273C46.0892 23.4811 47.7962 24.2419 49.0575 25.2043C50.3215 26.1689 51.1901 27.3801 51.3635 28.8197C51.5369 30.2593 50.9808 31.6422 49.9819 32.8793C48.9965 34.0997 47.5409 35.2322 45.76 36.2361C45.5199 38.6719 44.5108 40.9498 42.7756 42.8356C40.4396 45.3746 36.8342 47.1558 32.1352 47.7218C27.4361 48.2878 23.511 47.4136 20.6388 45.502C18.5054 44.0821 16.9843 42.109 16.1726 39.7998C14.2044 39.2476 12.5217 38.4931 11.2747 37.5416C10.0106 36.577 9.14208 35.3658 8.96868 33.9262C8.79528 32.4866 9.35138 31.1038 10.3502 29.8666C11.3469 28.6323 12.8244 27.4879 14.633 26.4756C14.7753 26.396 14.9198 26.3171 15.0666 26.2388C15.4042 23.8333 16.646 21.6314 18.4582 19.8306C18.9922 19.3 19.5772 18.8023 20.206 18.3421C19.8132 17.9987 19.4656 17.5584 19.1693 17.1107C18.5722 16.2086 18.1068 15.1583 17.8561 14.4603C17.7067 14.0445 17.9227 13.5864 18.3385 13.437ZM35.1741 17.183C35.3048 17.2833 35.4652 17.3423 35.6329 17.3484C38.2937 18.3629 40.4587 20.1687 41.6607 22.3791C38.0446 21.7316 33.6791 21.626 29.0591 22.1825C24.449 22.7378 20.2417 23.8732 16.8864 25.3561C17.3404 23.7621 18.2746 22.2687 19.586 20.9656C21.7406 18.8246 24.8832 17.2359 28.4283 16.6479C30.8101 16.2529 33.1256 16.4865 35.1741 17.183ZM42.3879 24.1541C42.5019 24.5568 42.5851 24.9682 42.6355 25.3864C42.7947 26.7082 42.2329 27.8387 40.9283 28.8115C40.7396 28.7595 40.5474 28.7116 40.3521 28.6674C37.5191 28.0274 33.7978 28.141 29.8342 28.6184C25.8638 29.0967 22.2276 29.9078 19.6309 31.221C19.453 31.311 19.279 31.4039 19.1093 31.4999C18.5825 31.2775 18.1402 31.0129 17.7829 30.7071C17.1448 30.1609 16.7447 29.4564 16.6318 28.5186C16.581 28.0967 16.5643 27.6775 16.5803 27.2624C19.887 25.6461 24.3009 24.3672 29.2504 23.771C34.2002 23.1748 38.7919 23.3691 42.3879 24.1541ZM44.1348 24.6054C44.1703 24.8002 44.2001 24.9967 44.224 25.1951C44.4329 26.9289 43.7909 28.3319 42.6376 29.4508C43.1312 29.6958 43.5817 29.9851 43.9789 30.3251C44.9476 31.1543 45.5619 32.2545 45.7278 33.6319C45.7569 33.8737 45.7788 34.1148 45.7935 34.355C47.0672 33.5545 48.0591 32.7138 48.737 31.8741C49.5611 30.8535 49.8808 29.89 49.7749 29.0111C49.6691 28.1321 49.1297 27.2721 48.0869 26.4763C47.1301 25.7462 45.7938 25.1077 44.1348 24.6054ZM38.7651 30.009C36.3661 29.6854 33.3481 29.8067 30.0255 30.207C26.7054 30.6069 23.7456 31.232 21.4929 32.1361C23.8546 32.5031 26.8855 32.3936 30.2404 31.9895C33.5908 31.586 36.5591 30.9452 38.7651 30.009ZM19.2838 33.2671C19.5981 33.3672 19.9237 33.4545 20.2588 33.5302C23.001 34.1497 26.6008 34.0395 30.4317 33.5781C34.2693 33.1158 37.7869 32.3316 40.3004 31.0604C40.6063 30.9057 40.9006 30.7417 41.1811 30.5682C41.8971 30.8266 42.4836 31.1512 42.9385 31.5406C43.6041 32.1104 44.0215 32.8457 44.1393 33.8232C44.1972 34.3039 44.2222 34.7806 44.2148 35.2513C40.8627 36.977 36.266 38.3505 31.0817 38.9749C25.8974 39.5994 21.1059 39.3567 17.4398 38.4763C17.3209 38.0208 17.232 37.5518 17.1741 37.0712C16.9948 35.5821 17.693 34.3289 19.2838 33.2671ZM17.6043 32.5334C17.295 32.3517 17.0067 32.1487 16.7425 31.9226C15.8013 31.117 15.2044 30.0477 15.0433 28.7099C15.0193 28.511 15.0017 28.3129 14.9902 28.1158C13.4978 28.9976 12.3512 29.9353 11.5951 30.8718C10.771 31.8924 10.4513 32.8559 10.5572 33.7349C10.6631 34.6138 11.2024 35.4738 12.2453 36.2696C13.1032 36.9242 14.2662 37.5053 15.6935 37.9805C15.6507 37.7437 15.6147 37.5043 15.5856 37.2625C15.3486 35.295 16.1761 33.7401 17.6043 32.5334ZM41.5982 41.7523C42.8388 40.404 43.6477 38.8306 44.0051 37.1357C40.5636 38.7428 36.1431 39.9768 31.2731 40.5634C26.4029 41.15 21.8157 41.001 18.091 40.257C18.8407 41.8186 20.0001 43.1549 21.5253 44.1701C24.0161 45.8278 27.5389 46.6638 31.9438 46.1333C36.3488 45.6027 39.5724 43.9541 41.5982 41.7523Z"/>
</mask>
<path fill-rule="evenodd" clip-rule="evenodd" d="M18.3385 13.437C18.7543 13.2876 19.2125 13.5036 19.3618 13.9194C19.5823 14.533 19.9956 15.4602 20.5035 16.2277C20.7578 16.6119 21.0167 16.9267 21.2637 17.1415C21.4253 17.2821 21.5551 17.3569 21.653 17.3942C23.5754 16.2698 25.7983 15.4623 28.1665 15.0695C30.7561 14.64 33.3277 14.8863 35.6315 15.657C35.7015 15.595 35.7817 15.5067 35.8696 15.3822C36.0586 15.1148 36.2353 14.7476 36.3911 14.314C36.7022 13.4478 36.8836 12.4491 36.952 11.8007C36.9984 11.3613 37.3921 11.0427 37.8315 11.089C38.2709 11.1354 38.5895 11.5292 38.5432 11.9686C38.4653 12.7061 38.2626 13.8368 37.8968 14.855C37.7179 15.3531 37.4888 15.856 37.1949 16.2791C40.1692 17.662 42.5285 19.9675 43.6257 22.8031C43.783 22.8433 43.9384 22.8847 44.0919 22.9273C46.0892 23.4811 47.7962 24.2419 49.0575 25.2043C50.3215 26.1689 51.1901 27.3801 51.3635 28.8197C51.5369 30.2593 50.9808 31.6422 49.9819 32.8793C48.9965 34.0997 47.5409 35.2322 45.76 36.2361C45.5199 38.6719 44.5108 40.9498 42.7756 42.8356C40.4396 45.3746 36.8342 47.1558 32.1352 47.7218C27.4361 48.2878 23.511 47.4136 20.6388 45.502C18.5054 44.0821 16.9843 42.109 16.1726 39.7998C14.2044 39.2476 12.5217 38.4931 11.2747 37.5416C10.0106 36.577 9.14208 35.3658 8.96868 33.9262C8.79528 32.4866 9.35138 31.1038 10.3502 29.8666C11.3469 28.6323 12.8244 27.4879 14.633 26.4756C14.7753 26.396 14.9198 26.3171 15.0666 26.2388C15.4042 23.8333 16.646 21.6314 18.4582 19.8306C18.9922 19.3 19.5772 18.8023 20.206 18.3421C19.8132 17.9987 19.4656 17.5584 19.1693 17.1107C18.5722 16.2086 18.1068 15.1583 17.8561 14.4603C17.7067 14.0445 17.9227 13.5864 18.3385 13.437ZM35.1741 17.183C35.3048 17.2833 35.4652 17.3423 35.6329 17.3484C38.2937 18.3629 40.4587 20.1687 41.6607 22.3791C38.0446 21.7316 33.6791 21.626 29.0591 22.1825C24.449 22.7378 20.2417 23.8732 16.8864 25.3561C17.3404 23.7621 18.2746 22.2687 19.586 20.9656C21.7406 18.8246 24.8832 17.2359 28.4283 16.6479C30.8101 16.2529 33.1256 16.4865 35.1741 17.183ZM42.3879 24.1541C42.5019 24.5568 42.5851 24.9682 42.6355 25.3864C42.7947 26.7082 42.2329 27.8387 40.9283 28.8115C40.7396 28.7595 40.5474 28.7116 40.3521 28.6674C37.5191 28.0274 33.7978 28.141 29.8342 28.6184C25.8638 29.0967 22.2276 29.9078 19.6309 31.221C19.453 31.311 19.279 31.4039 19.1093 31.4999C18.5825 31.2775 18.1402 31.0129 17.7829 30.7071C17.1448 30.1609 16.7447 29.4564 16.6318 28.5186C16.581 28.0967 16.5643 27.6775 16.5803 27.2624C19.887 25.6461 24.3009 24.3672 29.2504 23.771C34.2002 23.1748 38.7919 23.3691 42.3879 24.1541ZM44.1348 24.6054C44.1703 24.8002 44.2001 24.9967 44.224 25.1951C44.4329 26.9289 43.7909 28.3319 42.6376 29.4508C43.1312 29.6958 43.5817 29.9851 43.9789 30.3251C44.9476 31.1543 45.5619 32.2545 45.7278 33.6319C45.7569 33.8737 45.7788 34.1148 45.7935 34.355C47.0672 33.5545 48.0591 32.7138 48.737 31.8741C49.5611 30.8535 49.8808 29.89 49.7749 29.0111C49.6691 28.1321 49.1297 27.2721 48.0869 26.4763C47.1301 25.7462 45.7938 25.1077 44.1348 24.6054ZM38.7651 30.009C36.3661 29.6854 33.3481 29.8067 30.0255 30.207C26.7054 30.6069 23.7456 31.232 21.4929 32.1361C23.8546 32.5031 26.8855 32.3936 30.2404 31.9895C33.5908 31.586 36.5591 30.9452 38.7651 30.009ZM19.2838 33.2671C19.5981 33.3672 19.9237 33.4545 20.2588 33.5302C23.001 34.1497 26.6008 34.0395 30.4317 33.5781C34.2693 33.1158 37.7869 32.3316 40.3004 31.0604C40.6063 30.9057 40.9006 30.7417 41.1811 30.5682C41.8971 30.8266 42.4836 31.1512 42.9385 31.5406C43.6041 32.1104 44.0215 32.8457 44.1393 33.8232C44.1972 34.3039 44.2222 34.7806 44.2148 35.2513C40.8627 36.977 36.266 38.3505 31.0817 38.9749C25.8974 39.5994 21.1059 39.3567 17.4398 38.4763C17.3209 38.0208 17.232 37.5518 17.1741 37.0712C16.9948 35.5821 17.693 34.3289 19.2838 33.2671ZM17.6043 32.5334C17.295 32.3517 17.0067 32.1487 16.7425 31.9226C15.8013 31.117 15.2044 30.0477 15.0433 28.7099C15.0193 28.511 15.0017 28.3129 14.9902 28.1158C13.4978 28.9976 12.3512 29.9353 11.5951 30.8718C10.771 31.8924 10.4513 32.8559 10.5572 33.7349C10.6631 34.6138 11.2024 35.4738 12.2453 36.2696C13.1032 36.9242 14.2662 37.5053 15.6935 37.9805C15.6507 37.7437 15.6147 37.5043 15.5856 37.2625C15.3486 35.295 16.1761 33.7401 17.6043 32.5334ZM41.5982 41.7523C42.8388 40.404 43.6477 38.8306 44.0051 37.1357C40.5636 38.7428 36.1431 39.9768 31.2731 40.5634C26.4029 41.15 21.8157 41.001 18.091 40.257C18.8407 41.8186 20.0001 43.1549 21.5253 44.1701C24.0161 45.8278 27.5389 46.6638 31.9438 46.1333C36.3488 45.6027 39.5724 43.9541 41.5982 41.7523Z" fill="#F8F9FA"/>
<path d="M19.3618 13.9194L17.9502 14.4265L17.9502 14.4265L19.3618 13.9194ZM18.3385 13.437L18.8456 14.8487L18.8456 14.8487L18.3385 13.437ZM20.5035 16.2277L21.7544 15.3998L21.7544 15.3998L20.5035 16.2277ZM21.2637 17.1415L22.2481 16.0097L22.2481 16.0097L21.2637 17.1415ZM21.653 17.3942L21.1193 18.7961C21.5437 18.9576 22.0184 18.9183 22.4104 18.689L21.653 17.3942ZM28.1665 15.0695L27.921 13.5897L27.921 13.5897L28.1665 15.0695ZM35.6315 15.657L35.1556 17.0795C35.6641 17.2496 36.2247 17.1354 36.626 16.7799L35.6315 15.657ZM35.8696 15.3822L34.6446 14.5166L34.6446 14.5166L35.8696 15.3822ZM36.3911 14.314L37.8027 14.8211L37.8027 14.8211L36.3911 14.314ZM36.952 11.8007L38.4437 11.9581L38.4437 11.9581L36.952 11.8007ZM38.5432 11.9686L40.0349 12.126L40.0349 12.126L38.5432 11.9686ZM37.8968 14.855L36.4852 14.3478L36.4852 14.3478L37.8968 14.855ZM37.1949 16.2791L35.9629 15.4234C35.7104 15.787 35.6313 16.2436 35.7469 16.6709C35.8626 17.0982 36.1611 17.4527 36.5625 17.6393L37.1949 16.2791ZM43.6257 22.8031L42.2267 23.3443C42.4017 23.7965 42.7843 24.1362 43.254 24.2563L43.6257 22.8031ZM44.0919 22.9273L44.4928 21.4818L44.4928 21.4818L44.0919 22.9273ZM49.0575 25.2043L49.9674 24.0119L49.9674 24.0118L49.0575 25.2043ZM49.9819 32.8793L51.149 33.8216L51.149 33.8216L49.9819 32.8793ZM45.76 36.2361L45.0235 34.9294C44.5974 35.1695 44.3152 35.6023 44.2673 36.089L45.76 36.2361ZM42.7756 42.8356L43.8795 43.8513L43.8795 43.8513L42.7756 42.8356ZM20.6388 45.502L19.8077 46.7507L19.8077 46.7507L20.6388 45.502ZM16.1726 39.7998L17.5878 39.3024C17.4256 38.841 17.0487 38.4877 16.5779 38.3556L16.1726 39.7998ZM11.2747 37.5416L12.1846 36.3491L12.1846 36.3491L11.2747 37.5416ZM10.3502 29.8666L9.18315 28.9243L9.18315 28.9243L10.3502 29.8666ZM14.633 26.4756L15.3656 27.7845L15.3657 27.7845L14.633 26.4756ZM15.0666 26.2388L15.7721 27.5626C16.1954 27.3369 16.4853 26.9224 16.552 26.4473L15.0666 26.2388ZM18.4582 19.8306L19.5155 20.8946L19.5155 20.8946L18.4582 19.8306ZM20.206 18.3421L21.0919 19.5525C21.4595 19.2835 21.6849 18.8621 21.7046 18.407C21.7243 17.952 21.5362 17.5126 21.1933 17.2128L20.206 18.3421ZM19.1693 17.1107L17.9184 17.9386L17.9184 17.9386L19.1693 17.1107ZM17.8561 14.4603L16.4444 14.9675L16.4444 14.9675L17.8561 14.4603ZM35.1741 17.183L36.0873 15.993C35.9573 15.8933 35.812 15.8155 35.6569 15.7628L35.1741 17.183ZM35.6329 17.3484L36.1674 15.9468C36.0136 15.8882 35.8512 15.8552 35.6868 15.8493L35.6329 17.3484ZM41.6607 22.3791L41.3963 23.8556C41.964 23.9572 42.5397 23.7244 42.8772 23.2567C43.2146 22.7889 43.254 22.1691 42.9784 21.6625L41.6607 22.3791ZM16.8864 25.3561L15.4437 24.9452C15.2844 25.5047 15.4629 26.1059 15.9017 26.4877C16.3406 26.8696 16.9606 26.9633 17.4927 26.7281L16.8864 25.3561ZM19.586 20.9656L20.6433 22.0296L20.6433 22.0296L19.586 20.9656ZM28.4283 16.6479L28.6737 18.1277L28.6737 18.1277L28.4283 16.6479ZM42.3879 24.1541L43.8312 23.7457C43.6805 23.213 43.2486 22.8067 42.7078 22.6886L42.3879 24.1541ZM40.9283 28.8115L40.5299 30.2576C40.9761 30.3806 41.454 30.2907 41.825 30.014L40.9283 28.8115ZM40.3521 28.6674L40.6826 27.2043L40.6826 27.2043L40.3521 28.6674ZM19.6309 31.221L18.9539 29.8825L18.9539 29.8825L19.6309 31.221ZM19.1093 31.4999L18.5258 32.8818C18.9544 33.0627 19.4426 33.0346 19.8476 32.8056L19.1093 31.4999ZM17.7829 30.7071L16.8075 31.8466L16.8075 31.8466L17.7829 30.7071ZM16.5803 27.2624L15.9216 25.9148C15.4254 26.1573 15.1026 26.6529 15.0814 27.2048L16.5803 27.2624ZM44.1348 24.6054L44.5694 23.1698C44.0691 23.0183 43.526 23.1382 43.136 23.4863C42.746 23.8344 42.5653 24.3604 42.6592 24.8747L44.1348 24.6054ZM42.6376 29.4508L41.5931 28.3742C41.2436 28.7132 41.0804 29.2009 41.1555 29.682C41.2306 30.1631 41.5345 30.5779 41.9707 30.7944L42.6376 29.4508ZM43.9789 30.3251L44.9543 29.1855L44.9543 29.1855L43.9789 30.3251ZM45.7935 34.355L44.2963 34.4466C44.3287 34.9752 44.6373 35.4476 45.1085 35.6895C45.5796 35.9313 46.1434 35.9068 46.5917 35.625L45.7935 34.355ZM48.737 31.8741L47.57 30.9318L47.57 30.9318L48.737 31.8741ZM48.0869 26.4763L48.9968 25.2838L48.9968 25.2838L48.0869 26.4763ZM38.7651 30.009L39.3511 31.3897C39.973 31.1258 40.3417 30.4787 40.2517 29.8091C40.1617 29.1395 39.6351 28.6127 38.9656 28.5224L38.7651 30.009ZM21.4929 32.1361L20.9342 30.7441C20.3073 30.9957 19.9259 31.6353 20.0026 32.3064C20.0793 32.9775 20.5951 33.5146 21.2626 33.6184L21.4929 32.1361ZM20.2588 33.5302L20.5893 32.0671L20.5893 32.0671L20.2588 33.5302ZM19.2838 33.2671L19.7394 31.8379C19.3047 31.6993 18.8306 31.7661 18.4511 32.0194L19.2838 33.2671ZM40.3004 31.0604L39.6234 29.7218L39.6234 29.7218L40.3004 31.0604ZM41.1811 30.5682L41.6903 29.1573C41.2595 29.0018 40.7814 29.0517 40.392 29.2926L41.1811 30.5682ZM42.9385 31.5406L43.9139 30.401L43.9139 30.401L42.9385 31.5406ZM44.2148 35.2513L44.9014 36.5849C45.3934 36.3317 45.706 35.8281 45.7147 35.2748L44.2148 35.2513ZM17.4398 38.4763L15.9885 38.8553C16.1283 39.3907 16.5515 39.8056 17.0895 39.9348L17.4398 38.4763ZM16.7425 31.9226L15.7671 33.0621L15.7671 33.0621L16.7425 31.9226ZM17.6043 32.5334L18.5723 33.6792C18.9439 33.3653 19.1402 32.8907 19.0988 32.406C19.0575 31.9213 18.7837 31.4868 18.3643 31.2403L17.6043 32.5334ZM14.9902 28.1158L16.4877 28.0287C16.4573 27.5065 16.1571 27.0378 15.6955 26.7919C15.2338 26.546 14.6774 26.5583 14.2271 26.8244L14.9902 28.1158ZM11.5951 30.8718L10.428 29.9295L10.428 29.9295L11.5951 30.8718ZM12.2453 36.2696L13.1552 35.0771L13.1552 35.0771L12.2453 36.2696ZM15.6935 37.9805L15.2196 39.4037C15.7221 39.571 16.2755 39.4609 16.6758 39.1141C17.076 38.7673 17.2637 38.2351 17.1696 37.714L15.6935 37.9805ZM44.0051 37.1357L45.4728 37.4452C45.5901 36.8889 45.3829 36.3142 44.9376 35.9607C44.4923 35.6073 43.8855 35.536 43.3704 35.7766L44.0051 37.1357ZM41.5982 41.7523L42.702 42.7679L42.702 42.7679L41.5982 41.7523ZM18.091 40.257L18.3848 38.786C17.8273 38.6747 17.2548 38.888 16.9062 39.3371C16.5575 39.7861 16.4927 40.3936 16.7387 40.9061L18.091 40.257ZM21.5253 44.1701L20.6942 45.4188L20.6942 45.4188L21.5253 44.1701ZM20.7735 13.4123C20.3441 12.2168 19.0268 11.5959 17.8314 12.0253L18.8456 14.8487C18.4818 14.9794 18.0809 14.7904 17.9502 14.4265L20.7735 13.4123ZM21.7544 15.3998C21.33 14.7585 20.9656 13.9469 20.7735 13.4123L17.9502 14.4265C18.199 15.1192 18.6612 16.1618 19.2527 17.0555L21.7544 15.3998ZM22.2481 16.0097C22.1407 15.9163 21.9676 15.7219 21.7544 15.3998L19.2527 17.0555C19.5481 17.5018 19.8926 17.937 20.2793 18.2733L22.2481 16.0097ZM22.1867 15.9924C22.2429 16.0138 22.275 16.0332 22.2827 16.0381C22.2907 16.0431 22.279 16.0366 22.2481 16.0097L20.2793 18.2733C20.5363 18.4969 20.8154 18.6804 21.1193 18.7961L22.1867 15.9924ZM27.921 13.5897C25.3776 14.0116 22.9805 14.88 20.8957 16.0995L22.4104 18.689C24.1704 17.6595 26.2191 16.913 28.4119 16.5493L27.921 13.5897ZM36.1074 14.2345C33.5786 13.3885 30.7595 13.1189 27.921 13.5897L28.4119 16.5493C30.7526 16.161 33.0768 16.3841 35.1556 17.0795L36.1074 14.2345ZM34.6446 14.5166C34.628 14.5401 34.6182 14.5517 34.616 14.5541C34.6138 14.5567 34.6204 14.5488 34.6369 14.5341L36.626 16.7799C36.798 16.6276 36.9531 16.4482 37.0946 16.2479L34.6446 14.5166ZM34.9794 13.8068C34.8488 14.1703 34.7268 14.4003 34.6446 14.5166L37.0946 16.2479C37.3904 15.8294 37.6218 15.3249 37.8027 14.8211L34.9794 13.8068ZM35.4603 11.6433C35.4007 12.2082 35.2394 13.0832 34.9794 13.8068L37.8027 14.8211C38.1651 13.8125 38.3665 12.69 38.4437 11.9581L35.4603 11.6433ZM37.9889 9.59732C36.7257 9.46403 35.5936 10.38 35.4603 11.6433L38.4437 11.9581C38.4032 12.3425 38.0586 12.6213 37.6741 12.5808L37.9889 9.59732ZM40.0349 12.126C40.1682 10.8627 39.2522 9.73061 37.9889 9.59732L37.6741 12.5808C37.2897 12.5402 37.0109 12.1956 37.0514 11.8112L40.0349 12.126ZM39.3085 15.3621C39.7255 14.2015 39.9483 12.947 40.0349 12.126L37.0514 11.8112C36.9824 12.4651 36.7998 13.4721 36.4852 14.3478L39.3085 15.3621ZM38.4268 17.1348C38.8225 16.5652 39.1046 15.9298 39.3085 15.3621L36.4852 14.3478C36.3312 14.7764 36.155 15.1468 35.9629 15.4234L38.4268 17.1348ZM45.0246 22.2618C43.7644 19.0048 41.0909 16.4363 37.8273 14.9189L36.5625 17.6393C39.2475 18.8876 41.2926 20.9301 42.2267 23.3443L45.0246 22.2618ZM44.4928 21.4818C44.3294 21.4365 44.1642 21.3925 43.9973 21.3498L43.254 24.2563C43.4018 24.2941 43.5475 24.3329 43.6911 24.3727L44.4928 21.4818ZM49.9674 24.0118C48.504 22.8952 46.6019 22.0667 44.4928 21.4818L43.6911 24.3727C45.5765 24.8956 47.0884 25.5886 48.1475 26.3968L49.9674 24.0118ZM52.8527 28.6403C52.6159 26.6743 51.4379 25.1339 49.9674 24.0119L48.1475 26.3968C49.2051 27.2038 49.7642 28.0859 49.8742 28.9991L52.8527 28.6403ZM51.149 33.8216C52.311 32.3824 53.0895 30.6064 52.8527 28.6403L49.8742 28.9991C49.9842 29.9123 49.6505 30.9019 48.8148 31.937L51.149 33.8216ZM46.4966 37.5428C48.3784 36.4821 50.0054 35.2379 51.149 33.8216L48.8148 31.937C47.9875 32.9616 46.7034 33.9824 45.0235 34.9294L46.4966 37.5428ZM43.8795 43.8513C45.8327 41.7285 46.9804 39.1467 47.2528 36.3832L44.2673 36.089C44.0595 38.1972 43.1889 40.1711 41.6718 41.82L43.8795 43.8513ZM32.3146 49.211C37.2892 48.6118 41.2525 46.7064 43.8795 43.8513L41.6718 41.82C39.6267 44.0427 36.3793 45.6997 31.9558 46.2325L32.3146 49.211ZM19.8077 46.7507C23.0376 48.9004 27.34 49.8102 32.3146 49.211L31.9558 46.2325C27.5323 46.7654 23.9844 45.9269 21.4699 44.2533L19.8077 46.7507ZM14.7575 40.2972C15.6783 42.917 17.4063 45.1524 19.8077 46.7507L21.4699 44.2533C19.6046 43.0118 18.2902 41.301 17.5878 39.3024L14.7575 40.2972ZM10.3647 38.7341C11.8118 39.8383 13.6877 40.6605 15.7674 41.244L16.5779 38.3556C14.7212 37.8346 13.2315 37.1479 12.1846 36.3491L10.3647 38.7341ZM7.47945 34.1056C7.71626 36.0716 8.89424 37.612 10.3647 38.7341L12.1846 36.3491C11.127 35.5421 10.5679 34.66 10.4579 33.7468L7.47945 34.1056ZM9.18315 28.9243C8.02116 30.3635 7.24264 32.1395 7.47945 34.1056L10.4579 33.7468C10.3479 32.8337 10.6816 31.844 11.5173 30.809L9.18315 28.9243ZM13.9004 25.1667C11.9905 26.2357 10.3395 27.4921 9.18315 28.9243L11.5173 30.809C12.3542 29.7724 13.6583 28.7401 15.3656 27.7845L13.9004 25.1667ZM14.3611 24.9151C14.2054 24.9981 14.0519 25.0819 13.9004 25.1667L15.3657 27.7845C15.4987 27.71 15.6342 27.636 15.7721 27.5626L14.3611 24.9151ZM17.4009 18.7666C15.4028 20.7521 13.9726 23.2412 13.5811 26.0303L16.552 26.4473C16.8358 24.4253 17.8891 22.5107 19.5155 20.8946L17.4009 18.7666ZM19.3201 17.1317C18.6333 17.6343 17.9907 18.1806 17.4009 18.7666L19.5155 20.8946C19.9937 20.4194 20.5211 19.9704 21.0919 19.5525L19.3201 17.1317ZM17.9184 17.9386C18.2558 18.4484 18.6883 19.0076 19.2187 19.4713L21.1933 17.2128C20.9382 16.9898 20.6753 16.6684 20.4201 16.2828L17.9184 17.9386ZM16.4444 14.9675C16.7235 15.7445 17.2378 16.9102 17.9184 17.9386L20.4201 16.2828C19.9066 15.5069 19.4901 14.5721 19.2677 13.9532L16.4444 14.9675ZM17.8314 12.0253C16.6359 12.4548 16.0149 13.772 16.4444 14.9675L19.2677 13.9532C19.3984 14.3171 19.2094 14.718 18.8456 14.8487L17.8314 12.0253ZM34.2608 18.3729C34.6347 18.6599 35.0944 18.83 35.5791 18.8474L35.6868 15.8493C35.8359 15.8547 35.9749 15.9067 36.0873 15.993L34.2608 18.3729ZM42.9784 21.6625C41.5826 19.0957 39.1151 17.0708 36.1674 15.9468L35.0985 18.7499C37.4722 19.655 39.3347 21.2417 40.3429 23.0957L42.9784 21.6625ZM29.2385 23.6717C33.7334 23.1303 37.9475 23.238 41.3963 23.8556L41.9251 20.9026C38.1417 20.2251 33.6249 20.1217 28.8797 20.6932L29.2385 23.6717ZM17.4927 26.7281C20.6931 25.3137 24.7533 24.212 29.2385 23.6717L28.8797 20.6932C24.1447 21.2636 19.7902 22.4328 16.28 23.9842L17.4927 26.7281ZM18.5287 19.9016C17.0658 21.3552 15.9792 23.0655 15.4437 24.9452L18.329 25.7671C18.7016 24.4588 19.4833 23.1822 20.6433 22.0296L18.5287 19.9016ZM28.1829 15.1682C24.3633 15.8017 20.9266 17.5188 18.5287 19.9016L20.6433 22.0296C22.5546 20.1304 25.4032 18.6702 28.6737 18.1277L28.1829 15.1682ZM35.6569 15.7628C33.3801 14.9887 30.8146 14.7316 28.1829 15.1682L28.6737 18.1277C30.8056 17.7741 32.8711 17.9843 34.6912 18.6031L35.6569 15.7628ZM44.1247 25.207C44.0648 24.7097 43.966 24.2218 43.8312 23.7457L40.9446 24.5625C41.0378 24.8918 41.1054 25.2267 41.1463 25.5658L44.1247 25.207ZM41.825 30.014C43.4497 28.8026 44.3632 27.1866 44.1247 25.207L41.1463 25.5658C41.2263 26.2298 41.0162 26.8749 40.0317 27.609L41.825 30.014ZM40.0215 30.1306C40.1954 30.1699 40.365 30.2122 40.5299 30.2576L41.3268 27.3654C41.1143 27.3069 40.8994 27.2533 40.6826 27.2043L40.0215 30.1306ZM30.0136 30.1077C33.9372 29.6351 37.4483 29.5492 40.0215 30.1306L40.6826 27.2043C37.59 26.5057 33.6584 26.647 29.6548 27.1292L30.0136 30.1077ZM20.3079 32.5596C22.6682 31.3659 26.0957 30.5796 30.0136 30.1077L29.6548 27.1292C25.6319 27.6138 21.787 28.4497 18.9539 29.8825L20.3079 32.5596ZM19.8476 32.8056C19.9962 32.7216 20.1497 32.6396 20.3079 32.5596L18.9539 29.8825C18.7564 29.9824 18.5619 30.0862 18.3709 30.1942L19.8476 32.8056ZM16.8075 31.8466C17.3039 32.2715 17.8858 32.6115 18.5258 32.8818L19.6927 30.118C19.2793 29.9435 18.9764 29.7542 18.7584 29.5676L16.8075 31.8466ZM15.1425 28.6979C15.3007 30.0107 15.8852 31.0572 16.8075 31.8466L18.7584 29.5676C18.4044 29.2646 18.1888 28.9022 18.121 28.3392L15.1425 28.6979ZM15.0814 27.2048C15.0624 27.6988 15.0822 28.1972 15.1425 28.6979L18.121 28.3392C18.0797 27.9961 18.0663 27.6561 18.0792 27.32L15.0814 27.2048ZM29.071 22.2818C23.9865 22.8942 19.405 24.212 15.9216 25.9148L17.239 28.61C20.3689 27.0801 24.6154 25.8401 29.4298 25.2602L29.071 22.2818ZM42.7078 22.6886C38.9195 21.8616 34.1559 21.6693 29.071 22.2818L29.4298 25.2602C34.2445 24.6803 38.6643 24.8765 42.068 25.6196L42.7078 22.6886ZM45.7133 25.0157C45.6857 24.7871 45.6514 24.5606 45.6104 24.3362L42.6592 24.8747C42.6893 25.0397 42.7145 25.2063 42.7348 25.3744L45.7133 25.0157ZM43.6821 30.5274C45.1139 29.1383 45.9871 27.2891 45.7133 25.0157L42.7348 25.3744C42.8786 26.5687 42.4679 27.5255 41.5931 28.3742L43.6821 30.5274ZM44.9543 29.1855C44.4507 28.7544 43.8933 28.3995 43.3045 28.1072L41.9707 30.7944C42.3691 30.9921 42.7127 31.2157 43.0035 31.4646L44.9543 29.1855ZM47.217 33.4525C47.006 31.7002 46.2072 30.2579 44.9543 29.1855L43.0035 31.4646C43.6881 32.0506 44.1178 32.8088 44.2386 33.8113L47.217 33.4525ZM47.2907 34.2634C47.2742 33.9936 47.2496 33.7233 47.217 33.4525L44.2386 33.8113C44.2642 34.0241 44.2834 34.236 44.2963 34.4466L47.2907 34.2634ZM47.57 30.9318C47.0258 31.6058 46.1756 32.3432 44.9953 33.085L46.5917 35.625C47.9588 34.7658 49.0923 33.8219 49.9041 32.8164L47.57 30.9318ZM48.2857 29.1904C48.3284 29.545 48.2292 30.1154 47.57 30.9318L49.9041 32.8164C50.893 31.5916 51.4332 30.235 51.2642 28.8317L48.2857 29.1904ZM47.1769 27.6688C48.0112 28.3054 48.243 28.8359 48.2857 29.1904L51.2642 28.8317C51.0951 27.4283 50.2483 26.2388 48.9968 25.2838L47.1769 27.6688ZM43.7002 26.0411C45.2503 26.5104 46.407 27.0813 47.1769 27.6688L48.9968 25.2838C47.8532 24.4112 46.3373 23.705 44.5694 23.1698L43.7002 26.0411ZM30.2049 31.6962C33.479 31.3018 36.3509 31.1969 38.5646 31.4955L38.9656 28.5224C36.3814 28.1739 33.2172 28.3117 29.8461 28.7177L30.2049 31.6962ZM22.0516 33.5282C24.13 32.6941 26.9429 32.0891 30.2049 31.6962L29.8461 28.7177C26.4679 29.1246 23.3613 29.77 20.9342 30.7441L22.0516 33.5282ZM30.061 30.5003C26.7535 30.8987 23.8827 30.9895 21.7232 30.6539L21.2626 33.6184C23.8265 34.0167 27.0176 33.8886 30.4197 33.4788L30.061 30.5003ZM38.1791 28.6282C36.1618 29.4843 33.3537 30.1037 30.061 30.5003L30.4197 33.4788C33.8279 33.0683 36.9564 32.406 39.3511 31.3897L38.1791 28.6282ZM20.5893 32.0671C20.2921 32 20.0085 31.9237 19.7394 31.8379L18.8283 34.6962C19.1877 34.8108 19.5554 34.9091 19.9283 34.9934L20.5893 32.0671ZM30.2523 32.0888C26.4614 32.5454 23.0719 32.6279 20.5893 32.0671L19.9283 34.9934C22.9301 35.6715 26.7402 35.5335 30.6111 35.0673L30.2523 32.0888ZM39.6234 29.7218C37.3463 30.8735 34.0374 31.6329 30.2523 32.0888L30.6111 35.0673C34.5012 34.5987 38.2275 33.7897 40.9773 32.3989L39.6234 29.7218ZM40.392 29.2926C40.1511 29.4416 39.8944 29.5848 39.6234 29.7218L40.9773 32.3989C41.3181 32.2266 41.6502 32.0419 41.9702 31.8439L40.392 29.2926ZM43.9139 30.401C43.2898 29.8668 42.5329 29.4613 41.6903 29.1573L40.672 31.9792C41.2614 32.1919 41.6775 32.4357 41.963 32.6801L43.9139 30.401ZM45.6285 33.6438C45.4656 32.2914 44.8637 31.2141 43.9139 30.401L41.963 32.6801C42.3445 33.0067 42.5775 33.4 42.65 34.0026L45.6285 33.6438ZM45.7147 35.2748C45.7231 34.7349 45.6944 34.1905 45.6285 33.6438L42.65 34.0026C42.7 34.4173 42.7213 34.8262 42.715 35.2277L45.7147 35.2748ZM31.2611 40.4641C36.5848 39.8229 41.3604 38.4079 44.9014 36.5849L43.5283 33.9176C40.365 35.5461 35.9471 36.878 30.9024 37.4857L31.2611 40.4641ZM17.0895 39.9348C20.9622 40.8648 25.9373 41.1054 31.2611 40.4641L30.9024 37.4857C25.8575 38.0933 21.2496 37.8485 17.7901 37.0177L17.0895 39.9348ZM15.6849 37.2506C15.7507 37.7971 15.852 38.3329 15.9885 38.8553L18.8911 38.0972C18.7897 37.7087 18.7133 37.3065 18.6634 36.8918L15.6849 37.2506ZM18.4511 32.0194C16.5466 33.2906 15.418 35.0348 15.6849 37.2506L18.6634 36.8918C18.5715 36.1294 18.8394 35.3672 20.1166 34.5147L18.4511 32.0194ZM15.7671 33.0621C16.1041 33.3507 16.4656 33.6041 16.8442 33.8266L18.3643 31.2403C18.1244 31.0992 17.9092 30.9468 17.7179 30.7831L15.7671 33.0621ZM13.554 28.8893C13.7603 30.602 14.5417 32.0133 15.7671 33.0621L17.7179 30.7831C17.0608 30.2206 16.6485 29.4934 16.5325 28.5305L13.554 28.8893ZM13.4927 28.2029C13.506 28.4308 13.5264 28.6597 13.554 28.8893L16.5325 28.5305C16.5122 28.3622 16.4973 28.1949 16.4877 28.0287L13.4927 28.2029ZM12.7622 31.8141C13.3707 31.0605 14.3588 30.2312 15.7533 29.4072L14.2271 26.8244C12.6367 27.7641 11.3318 28.8101 10.428 29.9295L12.7622 31.8141ZM12.0464 33.5555C12.0037 33.2009 12.103 32.6305 12.7622 31.8141L10.428 29.9295C9.43909 31.1543 8.89893 32.5109 9.06796 33.9142L12.0464 33.5555ZM13.1552 35.0771C12.321 34.4405 12.0891 33.91 12.0464 33.5555L9.06796 33.9142C9.237 35.3176 10.0838 36.5071 11.3353 37.4621L13.1552 35.0771ZM16.1673 36.5573C14.8448 36.1169 13.8438 35.6025 13.1552 35.0771L11.3353 37.4621C12.3626 38.246 13.6877 38.8936 15.2196 39.4037L16.1673 36.5573ZM14.0964 37.4419C14.129 37.7126 14.1693 37.9811 14.2173 38.247L17.1696 37.714C17.1321 37.5063 17.1005 37.296 17.0748 37.0832L14.0964 37.4419ZM16.6362 31.3876C14.9142 32.8425 13.7859 34.8644 14.0964 37.4419L17.0748 37.0832C16.9113 35.7256 17.438 34.6376 18.5723 33.6792L16.6362 31.3876ZM42.5374 36.8262C42.237 38.2506 41.5571 39.5817 40.4944 40.7366L42.702 42.7679C44.1205 41.2264 45.0584 39.4107 45.4728 37.4452L42.5374 36.8262ZM31.4524 42.0527C36.4529 41.4504 41.0315 40.1798 44.6398 38.4948L43.3704 35.7766C40.0958 37.3058 35.8332 38.5033 31.0937 39.0742L31.4524 42.0527ZM17.7972 41.7279C21.7024 42.508 26.4518 42.655 31.4524 42.0527L31.0937 39.0742C26.354 39.6451 21.929 39.494 18.3848 38.786L17.7972 41.7279ZM22.3564 42.9214C21.0498 42.0518 20.0733 40.9202 19.4432 39.6078L16.7387 40.9061C17.6081 42.717 18.9503 44.2581 20.6942 45.4188L22.3564 42.9214ZM31.7645 44.644C27.6354 45.1414 24.4897 44.3412 22.3564 42.9214L20.6942 45.4188C23.5424 47.3144 27.4424 48.1863 32.1232 47.6225L31.7645 44.644ZM40.4944 40.7366C38.7592 42.6224 35.8935 44.1467 31.7645 44.644L32.1232 47.6225C36.8041 47.0587 40.3855 45.2857 42.702 42.7679L40.4944 40.7366Z" fill="#F8F9FA" mask="url(#path-1-outside-1_50_11364)"/>
<path d="M16.3802 37.1719C15.8306 32.6092 22.0453 30.3675 29.9301 29.4177C37.815 28.468 44.3665 29.0227 44.9338 33.7326C45.6975 40.073 41.1438 45.836 32.0398 46.9325C22.9358 48.0291 17.1439 43.5123 16.3802 37.1719Z" fill="#5C7CFA" stroke="#212529" stroke-width="1.6" stroke-linejoin="round"/>
<g style="mix-blend-mode:multiply" opacity="0.4">
<path fill-rule="evenodd" clip-rule="evenodd" d="M28.3576 46.555C29.4858 46.6082 30.682 46.5639 31.9416 46.4122C41.0456 45.3156 45.5993 39.5526 44.8356 33.2122C44.3884 29.4991 40.2218 28.3685 34.6148 28.5217C39.2585 28.6622 42.5686 29.9255 42.9645 33.2122C43.7282 39.5526 39.1745 45.3156 30.0705 46.4122C29.4857 46.4826 28.9146 46.5299 28.3576 46.555Z" fill="#91A7FF"/>
</g>
<ellipse cx="30.1664" cy="31.3771" rx="20.5506" ry="8.4569" transform="rotate(-6.86822 30.1664 31.3771)" fill="#3B5BDB" stroke="#212529" stroke-width="1.4" stroke-linejoin="round"/>
<path d="M43.4301 25.2947C43.9612 29.7037 37.9558 31.87 30.3364 32.7878C22.717 33.7055 16.3861 33.1695 15.8379 28.6182C15.0999 22.4913 20.9148 17.0873 28.2978 15.8627C35.6807 14.6381 42.6922 19.1678 43.4301 25.2947Z" fill="#91A7FF" stroke="#212529" stroke-width="1.4" stroke-linejoin="round"/>
<g style="mix-blend-mode:soft-light" opacity="0.8">
<path d="M21.7968 22.2075C22.3409 21.5022 21.5235 20.9866 20.8455 21.2305C20.277 21.435 19.0025 22.9676 18.4432 24.4285C17.884 25.8894 19.0446 26.3654 19.4062 25.8186C19.7678 25.2718 21.1167 23.0893 21.7968 22.2075Z" fill="#F8F9FA"/>
</g>
<g style="mix-blend-mode:multiply" opacity="0.4">
<path fill-rule="evenodd" clip-rule="evenodd" d="M29.4754 32.8863C36.7014 31.9135 42.2627 29.7474 41.7508 25.4975C41.0629 19.7867 34.9248 15.4635 28.1157 15.8943C28.1763 15.8837 28.2369 15.8733 28.2977 15.8632C35.6806 14.6386 42.6921 19.1683 43.4301 25.2952C43.9611 29.7043 37.9557 31.8705 30.3363 32.7883C30.0474 32.8231 29.7604 32.8558 29.4754 32.8863Z" fill="#91A7FF"/>
</g>
<path d="M18.6093 14.1943C19.0804 15.5059 20.2097 17.655 21.4234 18.2766" stroke="#212529" stroke-width="1.6" stroke-linecap="round" stroke-linejoin="round"/>
<path d="M37.7478 11.8887C37.6016 13.2746 37.2014 15.1679 35.8575 16.4995" stroke="#212529" stroke-width="1.6" stroke-linecap="round" stroke-linejoin="round"/>
<path d="M29.4876 23.2661C28.4396 23.34 26.2345 24.2002 25.7972 27.0493C25.5135 28.898 26.9239 30.8317 28.4417 32.1764C28.9841 32.657 29.4958 32.6935 29.963 32.7423C30.3822 32.7861 30.8615 32.7064 31.2448 32.5313C31.5354 32.3986 31.8461 32.2273 32.1139 31.7341C33.0302 30.0465 33.83 27.7967 33.4892 26.1228C32.9734 23.5893 30.6065 23.1627 29.4876 23.2661Z" fill="#51CF66" stroke="#212529"/>
<g style="mix-blend-mode:multiply">
<path fill-rule="evenodd" clip-rule="evenodd" d="M29.4865 32.7318C29.7499 32.7011 30.0122 32.6307 30.2405 32.5264C30.531 32.3937 30.8418 32.2224 31.1096 31.7292C32.0259 30.0416 32.8257 27.7918 32.4849 26.1179C32.051 23.9866 30.3071 23.3463 29.0982 23.2583C30.2299 23.1662 32.5562 23.6089 33.0671 26.1179C33.4079 27.7918 32.6081 30.0416 31.6917 31.7292C31.4239 32.2224 31.1132 32.3937 30.8226 32.5264C30.4393 32.7015 29.96 32.7812 29.5408 32.7374C29.5236 32.7356 29.5063 32.7338 29.4889 32.732C29.4881 32.7319 29.4873 32.7319 29.4865 32.7318Z" fill="#DEE2E6"/>
</g>
<circle cx="27.6252" cy="26.6881" r="0.379755" transform="rotate(-6.86822 27.6252 26.6881)" fill="#212529"/>
<circle cx="31.0888" cy="26.2711" r="0.379755" transform="rotate(-6.86822 31.0888 26.2711)" fill="#212529"/>
<path d="M25.8035 29.5739C25.1545 30.1472 24.0038 31.5686 24.5931 32.668" stroke="#212529" stroke-linecap="round"/>
<path d="M33.2977 29.3356C34.4706 29.2272 36.8203 28.4665 36.8349 26.2904" stroke="#212529" stroke-linecap="round"/>
</svg>
