<svg width="84" height="112" viewBox="0 0 84 112" fill="none" xmlns="http://www.w3.org/2000/svg">
<rect width="84" height="112" fill="#0C1548"/>
<path d="M55.8003 32.578L69.6078 56.4933L55.8003 80.4086L28.1853 80.4086L14.3778 56.4933L28.1853 32.578L55.8003 32.578Z" fill="url(#paint0_radial_5467_24822)"/>
<path d="M41.9927 36.9277L58.9365 46.7102V66.2752L41.9927 76.0577L25.0489 66.2752V46.7102L41.9927 36.9277Z" fill="url(#paint1_radial_5467_24822)"/>
<path d="M48.4503 45.3088L54.9078 56.4935L48.4503 67.6783L35.5353 67.6783L29.0778 56.4935L35.5353 45.3088L48.4503 45.3088Z" fill="#112385"/>
<path d="M14.3965 56.1133C14.3965 56.4609 14.3535 56.7715 14.2676 57.0449C14.1816 57.3184 14.0645 57.5605 13.916 57.7715C13.7715 57.9785 13.6035 58.1562 13.4121 58.3047C13.2207 58.4531 13.0195 58.5742 12.8086 58.668C12.6016 58.7617 12.3906 58.8301 12.1758 58.873C11.9648 58.916 11.7656 58.9375 11.5781 58.9375H8.13281V57.4141H11.5781C11.7734 57.3984 11.9492 57.3594 12.1055 57.2969C12.2656 57.2305 12.4023 57.1426 12.5156 57.0332C12.6289 56.9238 12.7168 56.793 12.7793 56.6406C12.8418 56.4844 12.873 56.3086 12.873 56.1133V55.4219C12.8535 55.2305 12.8125 55.0547 12.75 54.8945C12.6875 54.7344 12.6016 54.5977 12.4922 54.4844C12.3867 54.3711 12.2578 54.2832 12.1055 54.2207C11.9531 54.1543 11.7773 54.1211 11.5781 54.1211H8.14453C7.94141 54.1211 7.78711 54.1738 7.68164 54.2793C7.57617 54.3848 7.52344 54.5371 7.52344 54.7363V61H6V54.7363C6 54.3457 6.07031 54.0137 6.21094 53.7402C6.35547 53.4668 6.5332 53.2461 6.74414 53.0781C6.95898 52.9102 7.19141 52.7891 7.44141 52.7148C7.69141 52.6367 7.92188 52.5977 8.13281 52.5977H11.5781C11.9219 52.5977 12.2305 52.6426 12.5039 52.7324C12.7773 52.8184 13.0176 52.9355 13.2246 53.084C13.4355 53.2285 13.6133 53.3965 13.7578 53.5879C13.9062 53.7793 14.0273 53.9805 14.1211 54.1914C14.2188 54.3984 14.2891 54.6094 14.332 54.8242C14.375 55.0352 14.3965 55.2344 14.3965 55.4219V56.1133Z" fill="white"/>
<path d="M16.9001 53.3652H15.3766V51.9883H16.9001V53.3652ZM16.9001 61H15.3766V54.666H16.9001V61Z" fill="white"/>
<path d="M23.9447 56.1895H21.2845V61H19.7435V56.1895H17.763V54.666H19.7435V52.5977H21.2845V54.666H23.9447V56.1895Z" fill="white"/>
<path d="M30.878 61H26.7471C26.5362 61 26.3057 60.9629 26.0557 60.8887C25.8057 60.8145 25.5733 60.6934 25.3584 60.5254C25.1475 60.3535 24.9698 60.1328 24.8252 59.8633C24.6846 59.5898 24.6143 59.2559 24.6143 58.8613V56.7988C24.6143 56.6543 24.6299 56.502 24.6612 56.3418C24.6963 56.1816 24.7491 56.0234 24.8194 55.8672C24.8897 55.707 24.9795 55.5547 25.0889 55.4102C25.2022 55.2656 25.337 55.1387 25.4932 55.0293C25.6534 54.9199 25.837 54.832 26.044 54.7656C26.251 54.6992 26.4854 54.666 26.7471 54.666H30.878V56.1895H26.7471C26.5479 56.1895 26.3955 56.2402 26.2901 56.3418C26.1885 56.4434 26.1377 56.5996 26.1377 56.8105V58.8613C26.1377 59.0605 26.1905 59.2129 26.2959 59.3184C26.4014 59.4238 26.5557 59.4766 26.7588 59.4766H30.878V61Z" fill="white"/>
<path d="M39.0007 61H37.4773V56.7988C37.4773 56.5996 37.4265 56.4492 37.3249 56.3477C37.2234 56.2422 37.071 56.1895 36.8679 56.1895H34.1198V54.666H36.8679C37.0124 54.666 37.1648 54.6836 37.3249 54.7188C37.4851 54.75 37.6433 54.8008 37.7995 54.8711C37.9597 54.9414 38.112 55.0332 38.2566 55.1465C38.4011 55.2559 38.528 55.3906 38.6374 55.5508C38.7468 55.707 38.8347 55.8887 38.9011 56.0957C38.9675 56.3027 39.0007 56.5371 39.0007 56.7988V61ZM33.5046 61H31.9812V51.9883H33.5046V61Z" fill="white"/>
<path d="M53.8868 61H52.3516V55.9961L49.6505 60.748C49.5841 60.8691 49.4903 60.9609 49.3692 61.0234C49.252 61.0859 49.1251 61.1172 48.9884 61.1172C48.8555 61.1172 48.7305 61.0859 48.6134 61.0234C48.5001 60.9609 48.4102 60.8691 48.3438 60.748L45.6309 55.9961V61H44.1075V53.248C44.1075 53.0723 44.1583 52.916 44.2598 52.7793C44.3653 52.6426 44.502 52.5508 44.67 52.5039C44.752 52.4844 44.8341 52.4785 44.9161 52.4863C44.9981 52.4902 45.0762 52.5078 45.1505 52.5391C45.2286 52.5664 45.2989 52.6074 45.3614 52.6621C45.4239 52.7129 45.4766 52.7754 45.5196 52.8496L48.9884 58.8789L52.4571 52.8496C52.547 52.7012 52.67 52.5957 52.8262 52.5332C52.9864 52.4707 53.1524 52.4609 53.3243 52.5039C53.4884 52.5508 53.6231 52.6426 53.7286 52.7793C53.8341 52.916 53.8868 53.0723 53.8868 53.248V61Z" fill="white"/>
<path d="M62.156 58.8613C62.156 59.123 62.1228 59.3594 62.0564 59.5703C61.99 59.7773 61.9021 59.9609 61.7927 60.1211C61.6834 60.2773 61.5564 60.4121 61.4119 60.5254C61.2673 60.6348 61.115 60.7246 60.9548 60.7949C60.7986 60.8652 60.6384 60.918 60.4744 60.9531C60.3142 60.9844 60.1619 61 60.0173 61H57.2693C57.0584 61 56.8279 60.9629 56.5779 60.8887C56.3279 60.8145 56.0955 60.6934 55.8806 60.5254C55.6697 60.3535 55.492 60.1328 55.3474 59.8633C55.2068 59.5898 55.1365 59.2559 55.1365 58.8613V56.7988C55.1365 56.4082 55.2068 56.0781 55.3474 55.8086C55.492 55.5352 55.6697 55.3145 55.8806 55.1465C56.0955 54.9746 56.3279 54.8516 56.5779 54.7773C56.8279 54.7031 57.0584 54.666 57.2693 54.666H60.0173C60.408 54.666 60.74 54.7363 61.0134 54.877C61.2869 55.0176 61.5076 55.1953 61.6755 55.4102C61.8435 55.6211 61.9646 55.8516 62.0388 56.1016C62.117 56.3516 62.156 56.584 62.156 56.7988V58.8613ZM60.6326 56.8105C60.6326 56.5996 60.5798 56.4434 60.4744 56.3418C60.3689 56.2402 60.2166 56.1895 60.0173 56.1895H57.281C57.0779 56.1895 56.9236 56.2422 56.8181 56.3477C56.7127 56.4492 56.6599 56.5996 56.6599 56.7988V58.8613C56.6599 59.0605 56.7127 59.2129 56.8181 59.3184C56.9236 59.4238 57.0779 59.4766 57.281 59.4766H60.0173C60.2244 59.4766 60.3787 59.4238 60.4802 59.3184C60.5818 59.2129 60.6326 59.0605 60.6326 58.8613V56.8105Z" fill="white"/>
<path d="M70.226 58.8613C70.226 59.123 70.1928 59.3594 70.1264 59.5703C70.06 59.7773 69.9721 59.9609 69.8627 60.1211C69.7534 60.2773 69.6264 60.4121 69.4819 60.5254C69.3373 60.6348 69.185 60.7246 69.0248 60.7949C68.8686 60.8652 68.7084 60.918 68.5444 60.9531C68.3842 60.9844 68.2319 61 68.0873 61H65.3393C65.0776 61 64.8432 60.9668 64.6362 60.9004C64.4291 60.834 64.2455 60.7461 64.0854 60.6367C63.9291 60.5234 63.7944 60.3945 63.6811 60.25C63.5717 60.1055 63.4819 59.9551 63.4116 59.7988C63.3413 59.6387 63.2885 59.4785 63.2534 59.3184C63.2221 59.1543 63.2065 59.002 63.2065 58.8613V56.7988C63.2065 56.4082 63.2768 56.0781 63.4174 55.8086C63.562 55.5352 63.7397 55.3145 63.9506 55.1465C64.1655 54.9746 64.3979 54.8516 64.6479 54.7773C64.8979 54.7031 65.1284 54.666 65.3393 54.666H68.0873V56.1895H65.351C65.1479 56.1895 64.9936 56.2422 64.8881 56.3477C64.7827 56.4492 64.7299 56.5996 64.7299 56.7988V58.8496C64.7299 59.0566 64.7807 59.2129 64.8823 59.3184C64.9877 59.4238 65.1401 59.4766 65.3393 59.4766H68.0873C68.2944 59.4766 68.4487 59.4238 68.5502 59.3184C68.6518 59.2129 68.7026 59.0605 68.7026 58.8613V51.9883H70.226V58.8613Z" fill="white"/>
<path d="M78.3136 56.7637C78.3136 56.9746 78.2765 57.2031 78.2023 57.4492C78.1281 57.6914 78.007 57.918 77.839 58.1289C77.6749 58.3359 77.4581 58.5098 77.1886 58.6504C76.923 58.791 76.5988 58.8613 76.2159 58.8613H73.4679V57.4141H76.2159C76.423 57.4141 76.5831 57.3516 76.6964 57.2266C76.8097 57.0977 76.8663 56.9395 76.8663 56.752C76.8663 56.5527 76.8019 56.3965 76.673 56.2832C76.548 56.1699 76.3956 56.1133 76.2159 56.1133H73.4679C73.2609 56.1133 73.1007 56.1777 72.9874 56.3066C72.8741 56.4316 72.8175 56.5879 72.8175 56.7754V58.9023C72.8175 59.1055 72.88 59.2637 73.005 59.377C73.1339 59.4902 73.2921 59.5469 73.4796 59.5469H76.2159V61H73.4679C73.257 61 73.0284 60.9629 72.7823 60.8887C72.5402 60.8145 72.3136 60.6953 72.1027 60.5312C71.8956 60.3633 71.7218 60.1465 71.5812 59.8809C71.4406 59.6113 71.3702 59.2852 71.3702 58.9023V56.7637C71.3702 56.5527 71.4073 56.3262 71.4816 56.084C71.5558 55.8379 71.6749 55.6113 71.839 55.4043C72.007 55.1934 72.2238 55.0176 72.4894 54.877C72.7589 54.7363 73.0851 54.666 73.4679 54.666H76.2159C76.4269 54.666 76.6534 54.7031 76.8956 54.7773C77.1417 54.8516 77.3683 54.9727 77.5753 55.1406C77.7863 55.3047 77.962 55.5215 78.1027 55.791C78.2433 56.0566 78.3136 56.3809 78.3136 56.7637Z" fill="white"/>
<defs>
<radialGradient id="paint0_radial_5467_24822" cx="0" cy="0" r="1" gradientUnits="userSpaceOnUse" gradientTransform="translate(41.9928 56.4933) rotate(120) scale(27.615)">
<stop offset="0.445656"/>
<stop offset="1" stop-color="#2C47D8"/>
</radialGradient>
<radialGradient id="paint1_radial_5467_24822" cx="0" cy="0" r="1" gradientUnits="userSpaceOnUse" gradientTransform="translate(41.9927 56.4927) rotate(90) scale(19.565)">
<stop offset="0.445656"/>
<stop offset="1" stop-color="#2C47D8"/>
</radialGradient>
</defs>
</svg>
