<svg width="22" height="18" viewBox="0 0 22 18" fill="none" xmlns="http://www.w3.org/2000/svg">
<path fill-rule="evenodd" clip-rule="evenodd" d="M14.416 5.37597C14.7607 5.60573 14.8538 6.07138 14.624 6.41603L13.4014 8.25H15.5754L16.8569 6.11413C17.07 5.75895 17.5307 5.64378 17.8859 5.85689C18.241 6.07 18.3562 6.53069 18.1431 6.88588L17.3246 8.25H21C21.4142 8.25 21.75 8.58579 21.75 9C21.75 9.41421 21.4142 9.75 21 9.75H18.3246L19.1431 11.1141C19.3562 11.4693 19.241 11.93 18.8859 12.1431C18.5307 12.3562 18.07 12.2411 17.8569 11.8859L16.5754 9.75H16.0127C16.0038 9.75016 15.9948 9.75016 15.9859 9.75H14.4014L15.624 11.584C15.8538 11.9286 15.7607 12.3943 15.416 12.624C15.0714 12.8538 14.6057 12.7607 14.3759 12.416L12.5986 9.75H12.0105C12.003 9.75011 11.9956 9.75011 11.9881 9.75H10.25V10.6708C10.25 11.2668 9.76682 11.75 9.1708 11.75H2.8292C2.23317 11.75 1.75 11.2668 1.75 10.6708V7.3292C1.75 6.73317 2.23318 6.25 2.8292 6.25H9.1708C9.76682 6.25 10.25 6.73317 10.25 7.3292V8.25H11.5986L13.3759 5.58398C13.6057 5.23933 14.0714 5.1462 14.416 5.37597ZM3.25 10.25V7.75H8.75V10.25H3.25Z" fill="#27292A"/>
</svg>
