<svg width="22" height="18" viewBox="0 0 22 18" fill="none" xmlns="http://www.w3.org/2000/svg">
<path fill-rule="evenodd" clip-rule="evenodd" d="M12 5.75C12.4142 5.75 12.75 6.08579 12.75 6.5V8.25H17.25V6.5C17.25 6.08579 17.5858 5.75 18 5.75C18.4142 5.75 18.75 6.08579 18.75 6.5V8.25H20.5C20.9142 8.25 21.25 8.58579 21.25 9C21.25 9.41421 20.9142 9.75 20.5 9.75H15.75V11.5C15.75 11.9142 15.4142 12.25 15 12.25C14.5858 12.25 14.25 11.9142 14.25 11.5V9.75H9.25V10.6708C9.25 11.2668 8.76682 11.75 8.1708 11.75H1.8292C1.23317 11.75 0.75 11.2668 0.75 10.6708V7.3292C0.75 6.73317 1.23318 6.25 1.8292 6.25H8.1708C8.76682 6.25 9.25 6.73317 9.25 7.3292V8.25H11.25V6.5C11.25 6.08579 11.5858 5.75 12 5.75ZM2.25 10.25V7.75H7.75V10.25H2.25Z" fill="#27292A"/>
</svg>
