<?xml version="1.0" encoding="UTF-8"?>
<svg width="120px" height="68px" viewBox="0 0 120 68" version="1.1" xmlns="http://www.w3.org/2000/svg" xmlns:xlink="http://www.w3.org/1999/xlink">
    <!-- Generator: Sketch 56 (81588) - https://sketch.com -->
    <title>space</title>
    <desc>Created with Sketch.</desc>
    <defs>
        <polyline id="path-1" points="61.21962 46.3317246 63.91854 51.5170026 66.103254 50.6464686 62.995968 45.5502726"></polyline>
        <polyline id="path-3" points="61.21962 46.3317246 63.91854 51.5170026 66.103254 50.6464686 62.995968 45.5502726"></polyline>
    </defs>
    <g id="space" stroke="none" stroke-width="1" fill="none" fill-rule="evenodd">
        <g id="Group" transform="translate(0.000000, 7.000000)">
            <rect id="Rectangle" fill="#50A7FD" x="0" y="30.3408" width="120" height="24.696" rx="2.8224"></rect>
            <g id="Group-2" transform="translate(1.500000, 0.000000)" fill="#E4E4E4" fill-opacity="0.8">
                <rect id="Rectangle-Copy" x="-4.61852778e-14" y="-4.61852778e-14" width="24.696" height="24.696" rx="2.1168"></rect>
                <rect id="Rectangle-Copy" x="61.6224" y="-4.61852778e-14" width="24.696" height="24.696" rx="2.1168"></rect>
                <rect id="Rectangle-Copy" x="30.8112" y="-4.61852778e-14" width="24.696" height="24.696" rx="2.1168"></rect>
                <rect id="Rectangle-Copy" x="92.4336" y="-4.61852778e-14" width="24.696" height="24.696" rx="2.1168"></rect>
            </g>
            <polygon id="Fill-1" fill="#FAFAFB" points="57.539916 44.1261954 57.7269 46.5860934 60.899454 52.9426674 60.276762 52.9312014 57.567258 51.9971634 56.613816 52.3605474 56.738178 53.6711994 61.29018 57.2432994 63.428148 58.1411754 65.185092 60.3347094 70.605864 58.3643214 69.950538 57.0492594 69.696522 55.2614454 69.696522 50.7641274 67.839912 47.1858534 66.173814 46.6460694 65.021922 46.7104554 64.12581 46.6989894 63.267624 47.3454954 62.634348 47.3454954 61.61652 47.9170314 59.161032 44.0335854 58.159962 43.6587354"></polygon>
            <path d="M63.0098154,50.8692618 C63.0098154,50.8692618 61.0350174,46.5783318 59.4756414,44.4456558 C58.8961674,43.6536198 58.2152634,43.5671838 57.8686374,43.7215338 C57.5237754,43.8750018 57.1586274,44.3680398 57.4690914,45.3232458 C58.3405074,47.9974698 60.9785694,53.2436058 60.9785694,53.2436058 C60.9785694,53.2436058 57.1815594,51.5783898 56.5421094,52.3598418 C55.9026594,53.1412938 56.8658034,54.0118278 57.9665394,54.8647218 C59.0672754,55.7176158 61.5509874,57.7056438 62.9833554,58.1413518 C64.1819934,58.5056178 64.5374394,59.3346978 65.1142674,60.3340038" id="Fill-2" fill="#FAFAFB"></path>
            <path d="M65.114973,60.7753566 C64.962387,60.7753566 64.814211,60.6968586 64.732185,60.5548566 L64.559313,60.2505666 C64.079505,59.4003186 63.762867,58.8384846 62.855289,58.5633006 C61.452027,58.1364126 59.183523,56.3706486 57.965481,55.4224986 L57.696471,55.2134646 C56.840049,54.5502006 55.995975,53.8348986 55.905129,53.0340426 C55.866321,52.6944726 55.968633,52.3646046 56.201481,52.0806006 C56.785365,51.3661806 58.582881,51.8336406 60.067287,52.3954746 C59.250555,50.7179106 57.692061,47.4324606 57.049965,45.4594266 C56.660121,44.2616706 57.151395,43.5578346 57.690297,43.3188126 C58.235373,43.0744986 59.141187,43.2420786 59.831793,44.1849366 C61.399107,46.3290786 63.328923,50.5079946 63.410067,50.6852766 C63.512379,50.9066586 63.415359,51.1677306 63.193977,51.2700426 C62.972595,51.3723546 62.710641,51.2744526 62.609211,51.0539526 C62.589807,51.0107346 60.634413,46.7780166 59.120019,44.7061986 C58.642857,44.0544006 58.174515,44.0693946 58.048389,44.1240786 C57.844647,44.2149246 57.680595,44.5474386 57.888747,45.1868886 C58.738995,47.7984906 61.346187,52.9934706 61.372647,53.0455086 C61.456437,53.2122066 61.426449,53.4124206 61.298559,53.5473666 C61.169787,53.6823126 60.971337,53.7220026 60.801111,53.6479146 C59.052105,52.8805746 57.181383,52.4016486 56.878857,52.6441986 C56.777427,52.7685606 56.773017,52.8646986 56.780955,52.9343766 C56.837403,53.4327066 57.782907,54.1638846 58.237137,54.5158026 L58.507029,54.7266006 C59.680971,55.6394706 61.863921,57.3399666 63.111951,57.7192266 C64.357335,58.0976046 64.828323,58.9328586 65.327535,59.8175046 L65.496879,60.1138566 C65.618595,60.3246546 65.546271,60.5945466 65.335473,60.7162626 C65.265795,60.7568346 65.189943,60.7753566 65.114973,60.7753566" id="Fill-4" fill="#000000"></path>
            <path d="M65.6076582,46.8872964 C65.6076582,46.8872964 66.1421502,46.4577624 66.8362842,46.6235784 C67.6600722,46.8202644 68.4291762,47.8222164 68.9504382,48.8717964 C70.2557982,51.4992744 69.8985882,54.1637964 69.5096262,55.7972604 C69.3764442,56.3564484 70.2152262,57.6750384 70.5353922,58.1010444" id="Fill-7" fill="#FAFAFB"></path>
            <path d="M70.535745,58.5423972 C70.401681,58.5423972 70.269381,58.4815392 70.182945,58.3659972 C70.129143,58.2945552 68.865237,56.5975872 69.080445,55.6944192 C69.674913,53.1965952 69.498513,50.9668992 68.554773,49.0679532 C68.006169,47.9619252 67.308507,47.1901752 66.733443,47.0525832 C66.269511,46.9388052 65.895543,47.2219272 65.880549,47.2342752 C65.689155,47.3824512 65.412207,47.3489352 65.262267,47.1584232 C65.113209,46.9679112 65.143197,46.6944912 65.331945,46.5436692 C65.360169,46.5207372 66.044601,45.9800712 66.938067,46.1943972 C68.097897,46.4713452 68.943735,47.8675512 69.345045,48.6754632 C70.383159,50.7640392 70.582491,53.1948312 69.938631,55.8990432 C69.879537,56.1468852 70.367283,57.1435452 70.887663,57.8367972 C71.034075,58.0317192 70.995267,58.3077852 70.800345,58.4541972 C70.720083,58.5132912 70.627473,58.5423972 70.535745,58.5423972" id="Fill-9" fill="#000000"></path>
            <path d="M63.6093108,47.4794712 C63.6093108,47.4794712 63.8650908,46.5877692 64.9508328,46.7094852 C65.8575288,46.8126792 66.9432708,49.3951752 66.9432708,49.3951752" id="Fill-12" fill="#FAFAFB"></path>
            <path d="M66.9430944,49.836528 C66.7711044,49.836528 66.6079344,49.735098 66.5364924,49.566636 C66.0108204,48.316842 65.2470084,47.187 64.9021464,47.148192 C64.2362364,47.073222 64.0598364,47.51775 64.0316124,47.607714 C63.9575244,47.836152 63.7105644,47.969334 63.4821264,47.897892 C63.2519244,47.828214 63.1196244,47.590074 63.1857744,47.358108 C63.3092544,46.925928 63.8455104,46.144476 65.0009304,46.271484 C66.0804984,46.394082 67.0718664,48.56292 67.3496964,49.22442 C67.4440704,49.44933 67.3382304,49.707756 67.1142024,49.80213 C67.0577544,49.825062 67.0004244,49.836528 66.9430944,49.836528" id="Fill-14" fill="#000000"></path>
            <mask id="mask-2" fill="white">
                <use xlink:href="#path-1"></use>
            </mask>
            <g id="Clip-18"></g>
            <path d="M61.6382172,48.0087594 C61.6382172,48.0087594 61.8428412,47.2290714 62.9294652,47.3516694 C63.8361612,47.4539814 64.8839772,50.1149754 64.8839772,50.1149754" id="Fill-17" fill="#FAFAFB" mask="url(#mask-2)"></path>
            <mask id="mask-4" fill="white">
                <use xlink:href="#path-3"></use>
            </mask>
            <g id="Clip-21"></g>
            <path d="M64.8837126,50.5557108 C64.7081946,50.5557108 64.5414966,50.4498708 64.4735826,50.2761168 C63.9752526,49.0130928 63.2149686,47.8276848 62.8798086,47.7897588 C62.2288926,47.7147888 62.0842446,48.0614148 62.0621946,48.1310928 C61.9881066,48.3586488 61.7455566,48.4918308 61.5171186,48.4256808 C61.2869166,48.3586488 61.1510886,48.1284468 61.2119466,47.8964808 C61.3160226,47.4995808 61.8134706,46.7860428 62.9785926,46.9130508 C64.0643346,47.0365308 65.0257146,49.2706368 65.2938426,49.9533048 C65.3829246,50.1799788 65.2717926,50.4357588 65.0451186,50.5248408 C64.9921986,50.5460088 64.9375146,50.5557108 64.8837126,50.5557108" id="Fill-20" fill="#000000" mask="url(#mask-4)"></path>
        </g>
    </g>
</svg>