<?xml version="1.0" encoding="UTF-8"?>
<svg width="24px" height="24px" viewBox="0 0 24 24" version="1.1" xmlns="http://www.w3.org/2000/svg" xmlns:xlink="http://www.w3.org/1999/xlink">
    <!-- Generator: Sketch 56 (81588) - https://sketch.com -->
    <title>symbol_about@16</title>
    <desc>Created with Sketch.</desc>
    <defs>
        <polygon id="path-1" points="0 0 24 0 24 23.9999 0 23.9999"></polygon>
    </defs>
    <g id="symbol_about" stroke="none" stroke-width="1" fill="none" fill-rule="evenodd">
        <g id="Group-6">
            <g id="Group-3">
                <mask id="mask-2" fill="white">
                    <use xlink:href="#path-1"></use>
                </mask>
                <g id="Clip-2"></g>
                <path d="M24,11.9999 C24,18.6279 18.627,23.9999 12,23.9999 C5.373,23.9999 0,18.6279 0,11.9999 C0,5.3729 5.373,-0.0001 12,-0.0001 C18.627,-0.0001 24,5.3729 24,11.9999" id="Fill-1" fill="#FF8533" mask="url(#mask-2)"></path>
            </g>
        </g>
        <g id="Group" transform="translate(5.000000, 7.000000)" fill="#FFFFFF">
            <path d="M0,6.5 C0.666666667,5.83333333 2,5.5 4,5.5 C7,5.5 8.5,7.5 10.5,7.5 C11.8333333,7.5 13,7.16666667 14,6.5 L14,9.5 C13,10.1666667 11.6666667,10.5 10,10.5 C7.5,10.5 6.5,8.68181818 4,8.68181818 C2.33333333,8.68181818 1,8.95454545 0,9.5 L0,6.5 Z" id="Path-7-Copy"></path>
            <path d="M0,1 C0.666666667,0.333333333 2,0 4,0 C7,0 8.5,2 10.5,2 C11.8333333,2 13,1.66666667 14,1 L14,4 C13,4.66666667 11.6666667,5 10,5 C7.5,5 6.5,3.18181818 4,3.18181818 C2.33333333,3.18181818 1,3.45454545 0,4 L0,1 Z" id="Path-7-Copy-2"></path>
        </g>
    </g>
</svg>