<svg width="73" height="12" viewBox="0 0 73 12" fill="none" xmlns="http://www.w3.org/2000/svg">
<path d="M1.44433 6.72706C1.44172 6.7272 1.43911 6.72734 1.43652 6.72748L1.04199 6.74887L0.999998 6.00004C0.958377 5.2512 0.958423 5.25119 0.958503 5.25119L1.35645 5.22962C1.61288 5.21591 1.98462 5.19634 2.44627 5.17285C3.3695 5.12589 4.65264 5.06327 6.09241 5.00065C8.96801 4.87559 12.4823 4.74988 15 4.74995C16.9024 4.74999 18.5108 4.71797 19.8922 4.69047C20.32 4.68196 20.726 4.67387 21.1123 4.66731C22.7313 4.6398 24.0277 4.63807 25.0823 4.75447C25.9592 4.85127 32.0205 5.25045 37.5 5.25026C42.9766 5.25007 48.4345 4.95292 51.4501 4.7517C55.3459 4.49175 58.5377 4.59753 61.1032 4.68255C62.1765 4.71812 63.1402 4.75006 64 4.75006C65.5364 4.75006 67.3141 4.87757 68.9351 5.00238L69.4195 5.03985C70.8637 5.15185 72.1328 5.25027 73 5.25026L73 6.75026C73 6.75026 73 6.75026 73 6.75026C72.3882 6.75026 71.6149 6.73306 70.7524 6.7135C68.6997 6.66696 66.1414 6.60895 64.0499 6.74857C63.618 6.77741 61.953 6.76227 60.1935 6.74628L59.634 6.74123C57.6286 6.72342 55.6407 6.70995 55.0498 6.74938C52.8625 6.89532 47.0957 6.83284 42.7287 6.78552C40.9943 6.76672 39.4807 6.75032 38.4999 6.75032C37.4852 6.75032 36.1876 6.79672 34.7177 6.84929C33.6638 6.88698 32.5212 6.92784 31.3308 6.95703C28.5136 7.02612 25.471 7.02756 22.9176 6.7457C17.9673 6.19923 15.0318 6.25325 11.6059 6.74247C9.78588 7.00238 7.2287 6.99961 5.1647 6.93709C4.12466 6.90558 3.19545 6.85835 2.5262 6.81899C2.19144 6.79931 1.92137 6.78158 1.7346 6.76873C1.6412 6.76231 1.56861 6.75711 1.51914 6.7535L1.46257 6.74932L1.44288 6.74783C1.44285 6.74783 1.4428 6.74782 1.44433 6.72706Z" fill="black"/>
</svg>
