<?xml version="1.0" encoding="UTF-8"?>
<svg width="24px" height="24px" viewBox="0 0 24 24" version="1.1" xmlns="http://www.w3.org/2000/svg" xmlns:xlink="http://www.w3.org/1999/xlink">
    <!-- Generator: Sketch 56 (81588) - https://sketch.com -->
    <title>celebration_cheers</title>
    <desc>Created with Sketch.</desc>
    <defs>
        <polygon id="path-1" points="0 0 24 0 24 23.9999 0 23.9999"></polygon>
    </defs>
    <g id="celebration_cheers" stroke="none" stroke-width="1" fill="none" fill-rule="evenodd">
        <g id="Group-18">
            <g id="Group-3">
                <mask id="mask-2" fill="white">
                    <use xlink:href="#path-1"></use>
                </mask>
                <g id="Clip-2"></g>
                <path d="M24,11.9999 C24,18.6279 18.627,23.9999 12,23.9999 C5.373,23.9999 0,18.6279 0,11.9999 C0,5.3729 5.373,-0.0001 12,-0.0001 C18.627,-0.0001 24,5.3729 24,11.9999" id="Fill-1" fill="#0FB0E8" mask="url(#mask-2)"></path>
            </g>
            <path d="M7.0674,18.3866 C4.7834,17.9516 4.0544,16.7996 4.1164,16.5206 L5.7614,9.0916 C5.8234,8.8126 6.1144,8.6386 6.4124,8.7046 L12.0074,9.9436 C12.3054,10.0096 12.4964,10.2896 12.4344,10.5696 L10.7904,17.9976 C10.7274,18.2776 9.5434,18.8576 7.0674,18.3866" id="Fill-4" fill="#FFFFFF"></path>
            <path d="M6.0996,10.411 C5.4116,10.259 4.5716,10.115 4.0476,10.509 C3.6206,10.83 3.4556,11.615 3.3316,12.177 C3.0556,13.426 3.8466,14.572 5.0966,14.848 C6.3456,15.125 7.5866,14.429 7.8636,13.18 C8.1406,11.93 7.3496,10.688 6.0996,10.411 M4.9416,15.752 C3.2456,15.377 2.0216,13.692 2.3966,11.997 C2.5976,11.087 3.0226,10.039 3.7786,9.615 C4.4296,9.25 5.3676,9.43 6.1516,9.603 C7.8466,9.978 8.9196,11.663 8.5446,13.358 C8.1686,15.054 6.6356,16.127 4.9416,15.752" id="Fill-6" fill="#FFFFFF"></path>
            <path d="M18.1885,16.789 C20.0705,16.432 20.6695,15.482 20.6195,15.252 L19.2645,9.135 C19.2135,8.904 18.9735,8.762 18.7285,8.815 L14.1205,9.836 C13.8755,9.891 13.7175,10.121 13.7685,10.352 L15.1235,16.47 C15.1735,16.699 16.1505,17.178 18.1885,16.789" id="Fill-8" fill="#FFFFFF"></path>
            <path d="M17.5332,12.5009 C17.7612,13.5299 18.7832,14.1039 19.8122,13.8759 C20.8422,13.6469 21.4932,12.7039 21.2652,11.6749 C21.1632,11.2119 21.0272,10.5649 20.6762,10.3009 C20.2452,9.9769 19.5532,10.0959 18.9852,10.2209 C17.9572,10.4489 17.3042,11.4719 17.5332,12.5009 M16.9722,12.6479 C16.6632,11.2519 17.5482,9.8639 18.9432,9.5559 C19.5902,9.4119 20.3612,9.2649 20.8972,9.5649 C21.5202,9.9149 21.8702,10.7769 22.0362,11.5269 C22.3452,12.9229 21.3362,14.3109 19.9402,14.6199 C18.5442,14.9289 17.2812,14.0449 16.9722,12.6479" id="Fill-10" fill="#FFFFFF"></path>
            <path d="M12.0049,4.244 L12.0049,6.166" id="Stroke-12" stroke="#FFFFFF" stroke-linecap="round"></path>
            <path d="M7.8076,4.9853 L8.5976,6.3653" id="Stroke-14" stroke="#FFFFFF" stroke-linecap="round"></path>
            <path d="M16.1924,4.9853 L15.4024,6.3653" id="Stroke-16" stroke="#FFFFFF" stroke-linecap="round"></path>
        </g>
    </g>
</svg>