<?xml version="1.0" encoding="UTF-8"?>
<svg width="24px" height="24px" viewBox="0 0 24 24" version="1.1" xmlns="http://www.w3.org/2000/svg" xmlns:xlink="http://www.w3.org/1999/xlink">
    <!-- Generator: Sketch 56 (81588) - https://sketch.com -->
    <title>celebration_clap</title>
    <desc>Created with Sketch.</desc>
    <defs>
        <polygon id="path-1" points="0 0 23.9998 0 23.9998 23.9995 0 23.9995"></polygon>
    </defs>
    <g id="celebration_clap" stroke="none" stroke-width="1" fill="none" fill-rule="evenodd">
        <g id="Group-12">
            <g id="Group-3">
                <mask id="mask-2" fill="white">
                    <use xlink:href="#path-1"></use>
                </mask>
                <g id="Clip-2"></g>
                <path d="M23.9998,11.9995 C23.9998,18.6275 18.6268,23.9995 11.9998,23.9995 C5.3728,23.9995 -0.0002,18.6275 -0.0002,11.9995 C-0.0002,5.3725 5.3728,-0.0005 11.9998,-0.0005 C18.6268,-0.0005 23.9998,5.3725 23.9998,11.9995" id="Fill-1" fill="#FF8533" mask="url(#mask-2)"></path>
            </g>
            <path d="M17.8713,13.5679 C17.5313,12.6869 16.5723,12.0499 16.3223,10.7809 C16.2033,10.1749 16.3403,8.9919 15.5753,8.8729 C14.9483,8.7749 14.4463,9.4459 14.5343,10.6859 C14.5653,11.1299 14.7423,11.9429 14.8403,12.6719 C14.9133,13.2169 14.7553,13.2189 14.2003,12.7449 L10.3953,9.3279 C9.1833,8.2379 8.2493,8.1159 7.8103,8.6049 C7.3713,9.0929 8.6363,10.8199 9.1283,11.2619 L7.4963,9.9589 C6.9833,9.5479 5.8503,8.9559 5.3063,9.6369 C4.7053,10.3889 5.5343,11.2479 6.0483,11.6579 L8.0343,13.3899 L8.0353,13.3899 L6.7163,12.4389 C6.2363,12.0859 5.2453,11.7809 4.8583,12.3049 C4.4443,12.8679 4.7693,13.5579 5.2493,13.9119 L6.6303,15.0659 L6.3543,14.8879 C5.9703,14.6199 5.2113,14.5519 4.9123,14.9819 C4.5413,15.5109 5.3003,16.1999 6.2923,16.8929 L10.2973,19.6899 C11.9453,21.0069 14.8693,21.0469 16.3313,19.2149 C16.8673,18.5459 16.5613,18.8859 17.0943,18.2189 C18.4883,16.5199 18.3373,14.7779 17.8713,13.5679" id="Fill-4" fill="#FFFFFF"></path>
            <path d="M17.8713,13.5679 C17.5313,12.6869 16.5723,12.0499 16.3223,10.7809 C16.2033,10.1749 16.3403,8.9919 15.5753,8.8729 C14.9483,8.7749 14.4463,9.4459 14.5343,10.6859 C14.5653,11.1299 14.7423,11.9429 14.8403,12.6719 C14.9133,13.2169 14.7553,13.2189 14.2003,12.7449 L10.3953,9.3279 C9.1833,8.2379 8.2493,8.1159 7.8103,8.6049 C7.3713,9.0929 8.6363,10.8199 9.1283,11.2619 L7.4963,9.9589 C6.9833,9.5479 5.8503,8.9559 5.3063,9.6369 C4.7053,10.3889 5.5343,11.2479 6.0483,11.6579 L8.0343,13.3899 L8.0353,13.3899 L6.7163,12.4389 C6.2363,12.0859 5.2453,11.7809 4.8583,12.3049 C4.4443,12.8679 4.7693,13.5579 5.2493,13.9119 L6.6303,15.0659 L6.3543,14.8879 C5.9703,14.6199 5.2113,14.5519 4.9123,14.9819 C4.5413,15.5109 5.3003,16.1999 6.2923,16.8929 L10.2973,19.6899 C11.9453,21.0069 14.8693,21.0469 16.3313,19.2149 C16.8673,18.5459 16.5613,18.8859 17.0943,18.2189 C18.4883,16.5199 18.3373,14.7779 17.8713,13.5679" id="Fill-4" fill="#FFFFFF"></path>
            <path d="M12.0061,5.564 C11.6461,5.564 11.3551,5.273 11.3551,4.914 L11.3551,2.413 C11.3551,2.053 11.6461,1.762 12.0061,1.762 C12.3661,1.762 12.6571,2.053 12.6571,2.413 L12.6571,4.914 C12.6571,5.273 12.3661,5.564 12.0061,5.564" id="Fill-6" fill="#FFFFFF"></path>
            <path d="M8.4509,6.8648 C8.2249,6.8648 8.0049,6.7478 7.8849,6.5368 L6.8579,4.7408 C6.6789,4.4288 6.7869,4.0318 7.0989,3.8528 C7.4139,3.6748 7.8089,3.7818 7.9879,4.0948 L9.0149,5.8908 C9.1939,6.2028 9.0849,6.5998 8.7739,6.7778 C8.6719,6.8368 8.5599,6.8648 8.4509,6.8648" id="Fill-8" fill="#FFFFFF"></path>
            <path d="M15.5491,6.8648 C15.4401,6.8648 15.3281,6.8368 15.2261,6.7778 C14.9151,6.5998 14.8061,6.2028 14.9851,5.8908 L16.0121,4.0948 C16.1911,3.7818 16.5881,3.6748 16.9011,3.8528 C17.2131,4.0318 17.3211,4.4288 17.1421,4.7408 L16.1151,6.5368 C15.9951,6.7478 15.7751,6.8648 15.5491,6.8648" id="Fill-10" fill="#FFFFFF"></path>
        </g>
    </g>
</svg>