<svg xmlns="http://www.w3.org/2000/svg" width="20" height="20" viewBox="0 0 20 20">
  <g fill="none" fill-rule="evenodd">
    <circle cx="10" cy="10" r="10" fill="#FC9850"/>
    <path fill="#FFF" d="M8.78011444,8.16171657 C8.78011444,8.16171657 8.01035121,8.04955986 8.01035121,7.34840223 C8.01035121,6.75147841 8.01400653,6.59296242 8.01509332,5.89097084 C8.01528309,5.76839029 8.01539455,5.62923833 8.01539455,5.46828704 C8.01539455,5.02780911 7.55192966,5.39019832 7.55192966,5.39019832 C7.55192966,5.39019832 1.75,9.74476839 1.75,10.0798047 C1.75,10.4148409 7.61050462,14.8000608 7.61050462,14.8000608 C7.61050462,14.8000608 7.98456752,14.9878118 8.00217156,14.6258495 C8.01539455,14.3539673 8.02312502,13.6616908 8.01539455,13.1764329 C8.01093888,12.896741 8.01539455,12.7675198 8.01539455,12.6818133 C8.01539455,11.8860153 8.78011444,11.8642383 8.78011444,11.8642383 L10.5426254,11.8186368 L11.3051364,11.8642383 C11.3051364,11.8642383 12.0698563,11.8860153 12.0698563,12.6818133 C12.0698563,12.7675198 12.0743119,12.896741 12.0698563,13.1764329 C12.0621258,13.6616908 12.0698563,14.3539673 12.0830793,14.6258495 C12.1006833,14.9878118 12.4747462,14.8000608 12.4747462,14.8000608 C12.4747462,14.8000608 18.3352508,10.4148409 18.3352508,10.0798047 C18.3352508,9.74476839 12.5333212,5.39019832 12.5333212,5.39019832 C12.5333212,5.39019832 12.0698563,5.02780911 12.0698563,5.46828704 C12.0698563,5.62923833 12.0699677,5.76839029 12.0701575,5.89097084 C12.0712443,6.59296242 12.0748996,6.75147841 12.0748996,7.34840223 C12.0748996,8.04955986 11.3051364,8.16171657 11.3051364,8.16171657 L10.6217827,8.16171657 C10.6163154,8.16149356 10.5677603,8.16149356 10.4761173,8.16171657 C10.4761173,8.16171657 9.91078303,8.16171657 8.78011444,8.16171657 Z"/>
  </g>
</svg>
