<svg width="110" height="62" viewBox="0 0 110 62" fill="none" xmlns="http://www.w3.org/2000/svg">
<rect width="110" height="62" rx="6" fill="white"/>
<path d="M11.2764 8.06787C11.6455 8.06787 11.9714 8.13509 12.2539 8.26953C12.5365 8.40397 12.7552 8.59424 12.9102 8.84033C13.0674 9.08415 13.146 9.3667 13.146 9.68799C13.146 10.0252 13.0685 10.3215 12.9136 10.5767C12.7586 10.8319 12.5399 11.0301 12.2573 11.1714C11.9748 11.3127 11.6489 11.3833 11.2798 11.3833H10.5107V13H9.47852V8.06787H11.2764ZM11.2456 10.5015C11.4165 10.5015 11.568 10.4696 11.7002 10.4058C11.8324 10.3397 11.9338 10.2497 12.0044 10.1357C12.0773 10.0218 12.1138 9.89193 12.1138 9.74609C12.1138 9.58887 12.0762 9.44987 12.001 9.3291C11.9281 9.20833 11.8244 9.11491 11.6899 9.04883C11.5555 8.98275 11.4006 8.94971 11.2251 8.94971H10.5278V10.5015H11.2456ZM13.7759 7.6543H14.7876V8.66602H13.7759V7.6543ZM13.7827 9.24023H14.7808V13H13.7827V9.24023ZM16.959 10.1084V11.6465C16.959 11.7832 16.9738 11.8892 17.0034 11.9644C17.033 12.0373 17.0786 12.0885 17.1401 12.1182C17.2039 12.1478 17.2883 12.1626 17.3931 12.1626H17.7109V13H17.1572V12.9863L17.1538 13C16.7664 13 16.4702 12.8952 16.2651 12.6855C16.0623 12.4759 15.9609 12.1706 15.9609 11.7695V10.1084H15.3457V9.24023H15.9609V8.40283L16.959 8.06104V9.24023H17.7451V10.1084H16.959ZM20.1353 12.2617C20.3221 12.2617 20.4919 12.2264 20.6445 12.1558C20.7972 12.0851 20.9339 11.9701 21.0547 11.8105L21.6392 12.2686C21.3179 12.8109 20.8166 13.082 20.1353 13.082C19.7616 13.082 19.4266 12.9989 19.1304 12.8325C18.8342 12.6662 18.6006 12.4349 18.4297 12.1387C18.2611 11.8424 18.1733 11.5052 18.1665 11.127V11.1201V11.1133C18.1733 10.735 18.2611 10.3978 18.4297 10.1016C18.6006 9.80534 18.8342 9.57406 19.1304 9.40771C19.4266 9.24137 19.7616 9.1582 20.1353 9.1582C20.8166 9.1582 21.3179 9.42936 21.6392 9.97168L21.0547 10.4297C20.9339 10.2702 20.7972 10.1551 20.6445 10.0845C20.4919 10.0138 20.3221 9.97852 20.1353 9.97852C19.9461 9.97852 19.7764 10.0275 19.626 10.1255C19.4756 10.2212 19.356 10.3556 19.2671 10.5288C19.1805 10.702 19.1349 10.8991 19.1304 11.1201C19.1349 11.3411 19.1805 11.5382 19.2671 11.7114C19.356 11.8846 19.4756 12.0202 19.626 12.1182C19.7764 12.2139 19.9461 12.2617 20.1353 12.2617ZM24.2139 9.1582C24.6764 9.1582 25.0285 9.28923 25.27 9.55127C25.5116 9.81331 25.6323 10.195 25.6323 10.6963V13H24.6343V10.9048C24.6343 10.6108 24.5716 10.3875 24.4463 10.2349C24.321 10.0822 24.1387 10.0059 23.8994 10.0059C23.6966 10.0036 23.5291 10.0742 23.397 10.2178C23.2648 10.3613 23.1862 10.5562 23.1611 10.8022V13H22.1631V7.94141H23.1611V9.77344H23.1953C23.2796 9.57747 23.4118 9.42594 23.5918 9.31885C23.7741 9.21175 23.9815 9.1582 24.2139 9.1582Z" fill="black"/>
<path d="M57 26.5H83" stroke="#BEBFC0" stroke-width="1.5" stroke-linecap="round"/>
<path d="M57 32.5H90" stroke="#BEBFC0" stroke-width="1.5" stroke-linecap="round"/>
<path d="M57 38.5H73" stroke="#BEBFC0" stroke-width="1.5" stroke-linecap="round"/>
<rect x="29.5" y="24.8008" width="22" height="15.1724" rx="1.5" stroke="#A2A4A6" stroke-width="1.5" stroke-linecap="round"/>
<path d="M42.4138 35.8358L38.8228 30.8636C38.3837 30.2557 37.4784 30.2557 37.0393 30.8636L33.4483 35.8358" stroke="#A2A4A6" stroke-width="1.5" stroke-linecap="round"/>
<path d="M46.5518 35.8352L44.3883 32.8991C43.9487 32.3025 43.0568 32.3025 42.6172 32.8991L41.7242 34.1111" stroke="#A2A4A6" stroke-width="1.5" stroke-linecap="round"/>
<path d="M46.9327 29.1983C46.9327 29.4182 46.7544 29.5966 46.5345 29.5966C46.3145 29.5966 46.1362 29.4182 46.1362 29.1983C46.1362 28.9783 46.3145 28.8 46.5345 28.8C46.7544 28.8 46.9327 28.9783 46.9327 29.1983Z" fill="#A2A4A6" stroke="#A2A4A6" stroke-width="1.1"/>
</svg>
