<?xml version="1.0" encoding="UTF-8" standalone="no"?>
<svg width="25px" height="24px" viewBox="0 0 25 24" version="1.1" xmlns="http://www.w3.org/2000/svg" xmlns:xlink="http://www.w3.org/1999/xlink">
    <!-- Generator: Sketch 45.1 (43504) - http://www.bohemiancoding.com/sketch -->
    <title>ic_hyperlink</title>
    <desc>Created with Sketch.</desc>
    <defs>
        <linearGradient x1="50%" y1="0%" x2="50%" y2="100%" id="linearGradient-1">
            <stop stop-color="#FFFFFF" offset="0%"></stop>
            <stop stop-color="#F5F2F6" offset="100%"></stop>
        </linearGradient>
        <rect id="path-2" x="3" y="2" width="19" height="19" rx="3"></rect>
        <linearGradient x1="50%" y1="0%" x2="50%" y2="100%" id="linearGradient-3">
            <stop stop-color="#3099FF" offset="0%"></stop>
            <stop stop-color="#0062E5" offset="100%"></stop>
        </linearGradient>
        <path d="M1.32,1.3 L1.32,4.60909091 L4.68,4.60909091 L4.68,1.3 L1.32,1.3 Z M1.2,-1.13686838e-13 L4.8,-1.13686838e-13 C5.4627417,-1.13806737e-13 6,0.529118023 6,1.18181818 L6,4.72727273 C6,5.37997289 5.4627417,5.90909091 4.8,5.90909091 L1.2,5.90909091 C0.5372583,5.90909091 8.11624501e-17,5.37997289 0,4.72727273 L0,1.18181818 C-8.11624501e-17,0.529118023 0.5372583,-1.13566939e-13 1.2,-1.13686838e-13 Z" id="path-4"></path>
        <path d="M1.32,8.39090909 L1.32,11.7 L4.68,11.7 L4.68,8.39090909 L1.32,8.39090909 Z M1.2,7.09090909 L4.8,7.09090909 C5.4627417,7.09090909 6,7.62002711 6,8.27272727 L6,11.8181818 C6,12.470882 5.4627417,13 4.8,13 L1.2,13 C0.5372583,13 -1.13605675e-13,12.470882 -1.13686838e-13,11.8181818 L-1.13686838e-13,8.27272727 C-1.13768e-13,7.62002711 0.5372583,7.09090909 1.2,7.09090909 Z" id="path-5"></path>
        <rect id="path-6" x="2.04001465" y="3.54545455" width="1.8" height="5.90909091" rx="0.9"></rect>
    </defs>
    <g id="修改" stroke="none" stroke-width="1" fill="none" fill-rule="evenodd">
        <g id="最新界面-copy-3" transform="translate(-488.000000, -24.000000)">
            <g id="Group-31" transform="translate(488.000000, 24.000000)">
                <g id="Rectangle-20">
                    <use fill="url(#linearGradient-1)" fill-rule="evenodd" xlink:href="#path-2"></use>
                    <rect stroke="#919191" stroke-width="0.5" x="3.25" y="2.25" width="18.5" height="18.5" rx="3"></rect>
                </g>
                <g id="Group-29" transform="translate(12.717514, 11.517514) rotate(-315.000000) translate(-12.717514, -11.517514) translate(9.717514, 5.017514)">
                    <g id="Rectangle-42" fill-rule="nonzero">
                        <use fill="url(#linearGradient-3)" fill-rule="evenodd" xlink:href="#path-4"></use>
                        <path stroke="#036EB5" stroke-width="0.5" d="M1.07,4.85909091 L1.07,1.05 L4.93,1.05 L4.93,4.85909091 L1.07,4.85909091 Z M1.2,0.25 C0.674482337,0.25 0.25,0.668050786 0.25,1.18181818 L0.25,4.72727273 C0.25,5.24104012 0.674482337,5.65909091 1.2,5.65909091 L4.8,5.65909091 C5.32551766,5.65909091 5.75,5.24104012 5.75,4.72727273 L5.75,1.18181818 C5.75,0.668050786 5.32551766,0.25 4.8,0.25 L1.2,0.25 Z"></path>
                    </g>
                    <g id="Rectangle-42-Copy" fill-rule="nonzero">
                        <use fill="url(#linearGradient-3)" fill-rule="evenodd" xlink:href="#path-5"></use>
                        <path stroke="#036EB5" stroke-width="0.5" d="M1.07,11.95 L1.07,8.14090909 L4.93,8.14090909 L4.93,11.95 L1.07,11.95 Z M1.2,7.34090909 C0.674482337,7.34090909 0.25,7.75895988 0.25,8.27272727 L0.25,11.8181818 C0.25,12.3319492 0.674482337,12.75 1.2,12.75 L4.8,12.75 C5.32551766,12.75 5.75,12.3319492 5.75,11.8181818 L5.75,8.27272727 C5.75,7.75895988 5.32551766,7.34090909 4.8,7.34090909 L1.2,7.34090909 Z"></path>
                    </g>
                    <rect id="Rectangle-25" fill="#F9F8FA" x="1.32000732" y="3.54545455" width="3.35999994" height="5.90909091"></rect>
                    <g id="Rectangle-38">
                        <use fill="url(#linearGradient-3)" fill-rule="evenodd" xlink:href="#path-6"></use>
                        <rect stroke="#036EB5" stroke-width="0.5" x="2.29001465" y="3.79545455" width="1.3" height="5.40909091" rx="0.65"></rect>
                    </g>
                </g>
            </g>
        </g>
    </g>
</svg>