<?xml version="1.0" encoding="UTF-8"?>
<svg width="24px" height="24px" viewBox="0 0 24 24" version="1.1" xmlns="http://www.w3.org/2000/svg" xmlns:xlink="http://www.w3.org/1999/xlink">
    <!-- Generator: Sketch 46.2 (44496) - http://www.bohemiancoding.com/sketch -->
    <title>Notes</title>
    <desc>Created with Sketch.</desc>
    <defs>
        <linearGradient x1="50%" y1="0%" x2="50%" y2="100%" id="linearGradient-1">
            <stop stop-color="#FFFFFF" offset="0%"></stop>
            <stop stop-color="#F5F2F6" offset="100%"></stop>
        </linearGradient>
        <path d="M6.00067489,3.00033753 L12.75281,3.00261657 L12.75281,3.00261657 C12.9903762,3.00269675 13.2201544,3.08735077 13.4009898,3.24141662 L18.6491923,7.7127129 L18.6491923,7.7127129 C18.872201,7.90270899 19.0006749,8.18094285 19.0006749,8.4739128 L19.0006749,20 L19.0006749,20 C19.0006749,20.5522847 18.5529597,21 18.0006749,21 L6.00067494,21 L6.00067494,21 C5.44839019,21 5.00067494,20.5522847 5.00067494,20 L5.00067494,4 L5.00033747,4 C5.00033747,3.44771525 5.44805272,3 6.00033747,3 C6.00044998,3 6.00056249,3.00000002 6.000675,3.00000006 Z" id="path-2"></path>
        <path d="M8.5,10 L15.5,10 C15.7761424,10 16,10.2238576 16,10.5 C16,10.7761424 15.7761424,11 15.5,11 L8.5,11 C8.22385763,11 8,10.7761424 8,10.5 C8,10.2238576 8.22385763,10 8.5,10 L8.5,10 Z M8.5,7 L10.5,7 C10.7761424,7 11,7.22385763 11,7.5 L11,7.5 C11,7.77614237 10.7761424,8 10.5,8 L8.5,8 C8.22385763,8 8,7.77614237 8,7.5 L8,7.5 L8,7.5 C8,7.22385763 8.22385763,7 8.5,7 L8.5,7 Z M8.5,13 L15.5,13 C15.7761424,13 16,13.2238576 16,13.5 C16,13.7761424 15.7761424,14 15.5,14 L8.5,14 C8.22385763,14 8,13.7761424 8,13.5 C8,13.2238576 8.22385763,13 8.5,13 L8.5,13 Z M8.5,16 L15.5,16 C15.7761424,16 16,16.2238576 16,16.5 C16,16.7761424 15.7761424,17 15.5,17 L8.5,17 C8.22385763,17 8,16.7761424 8,16.5 C8,16.2238576 8.22385763,16 8.5,16 L8.5,16 Z" id="path-3"></path>
        <polygon id="path-4" points="13.0044735 3.02783364 13.0044735 8.0181807 18.97614 8.0181807"></polygon>
    </defs>
    <g id="edit-page" stroke="none" stroke-width="1" fill="none" fill-rule="evenodd">
        <g id="Notes">
            <g id="Group-Copy-5">
                <rect id="Rectangle" x="0" y="0" width="24" height="24"></rect>
                <g id="Rectangle-3">
                    <use fill="url(#linearGradient-1)" fill-rule="evenodd" xlink:href="#path-2"></use>
                    <path stroke="#919191" stroke-width="0.5" d="M5.97787822,3.25032985 C5.58159934,3.26198443 5.2624628,3.5810376 5.25067494,3.97728302 L5.25067494,20 C5.25067494,20.4142136 5.58646138,20.75 6.00067494,20.75 L18.0006749,20.75 C18.4148885,20.75 18.7506749,20.4142136 18.7506749,20 L18.7506749,8.4739128 C18.7506749,8.25418534 18.6543195,8.04550994 18.4870629,7.90301288 L13.2388604,3.43171659 C13.1032339,3.31616721 12.9309003,3.25267669 12.7527256,3.25261655 L5.97787822,3.25032985 Z"></path>
                </g>
                <g id="Combined-Shape">
                    <use fill="#0092F3" fill-rule="evenodd" xlink:href="#path-3"></use>
                    <path stroke="#0181D6" stroke-width="0.5" d="M8.5,10.25 C8.36192881,10.25 8.25,10.3619288 8.25,10.5 C8.25,10.6380712 8.36192881,10.75 8.5,10.75 L15.5,10.75 C15.6380712,10.75 15.75,10.6380712 15.75,10.5 C15.75,10.3619288 15.6380712,10.25 15.5,10.25 L8.5,10.25 Z M8.5,7.25 C8.36192881,7.25 8.25,7.36192881 8.25,7.5 C8.25,7.63807119 8.36192881,7.75 8.5,7.75 L10.5,7.75 C10.6380712,7.75 10.75,7.63807119 10.75,7.5 C10.75,7.36192881 10.6380712,7.25 10.5,7.25 L8.5,7.25 Z M8.5,13.25 C8.36192881,13.25 8.25,13.3619288 8.25,13.5 C8.25,13.6380712 8.36192881,13.75 8.5,13.75 L15.5,13.75 C15.6380712,13.75 15.75,13.6380712 15.75,13.5 C15.75,13.3619288 15.6380712,13.25 15.5,13.25 L8.5,13.25 Z M8.5,16.25 C8.36192881,16.25 8.25,16.3619288 8.25,16.5 C8.25,16.6380712 8.36192881,16.75 8.5,16.75 L15.5,16.75 C15.6380712,16.75 15.75,16.6380712 15.75,16.5 C15.75,16.3619288 15.6380712,16.25 15.5,16.25 L8.5,16.25 Z"></path>
                </g>
                <g id="Path-3">
                    <use fill="url(#linearGradient-1)" fill-rule="evenodd" xlink:href="#path-4"></use>
                    <path stroke="#919191" stroke-width="0.5" d="M13.2544735,3.5625528 L13.2544735,7.7681807 L18.2871109,7.7681807 L13.2544735,3.5625528 Z"></path>
                </g>
            </g>
        </g>
    </g>
</svg>