<svg width="74" height="19" viewBox="4.6796875 -6 74 19" version="1.1" xmlns="http://www.w3.org/2000/svg"><path d="M14.4 12L12.0 5.1L8.1 5.1L6.9 12L4.7 12L7.6-5.1L12.8-5.1Q15.5-5.0 16.9-3.7Q18.3-2.3 18.1-0.0L18.1-0.0Q17.9 1.6 16.9 2.8Q15.8 4.0 14.1 4.6L14.1 4.6L16.8 11.8L16.8 12L14.4 12ZM9.5-3.2L8.4 3.3L11.6 3.3Q13.3 3.3 14.5 2.4Q15.6 1.5 15.8-0.0L15.8-0.0Q16.0-1.5 15.3-2.3Q14.5-3.2 12.9-3.2L12.9-3.2L9.5-3.2ZM25.9-0.9L25.9-0.9Q27.4-0.9 28.6-0.0Q29.7 0.8 30.3 2.3Q30.8 3.8 30.6 5.5L30.6 5.5L30.6 5.8Q30.4 7.6 29.5 9.1Q28.6 10.6 27.2 11.4Q25.8 12.3 24.2 12.2L24.2 12.2Q22.6 12.2 21.5 11.4Q20.3 10.5 19.8 9.1Q19.3 7.6 19.4 5.9L19.4 5.9Q19.6 3.9 20.5 2.3Q21.4 0.8 22.8-0.1Q24.2-1.0 25.9-0.9ZM21.6 5.6L21.5 5.9Q21.5 6.6 21.5 7.4L21.5 7.4Q21.7 8.8 22.4 9.6Q23.1 10.4 24.3 10.5L24.3 10.5Q25.3 10.5 26.2 10.0Q27.1 9.4 27.7 8.3Q28.3 7.1 28.5 5.8L28.5 5.8Q28.6 4.7 28.5 4.0L28.5 4.0Q28.4 2.5 27.7 1.7Q27.0 0.9 25.8 0.9L25.8 0.9Q24.1 0.8 23.0 2.1Q21.8 3.5 21.6 5.6L21.6 5.6ZM43.7 5.5L43.7 5.7Q43.5 7.7 42.6 9.2Q41.8 10.8 40.6 11.5Q39.4 12.3 38.0 12.2L38.0 12.2Q35.7 12.2 34.6 10.5L34.6 10.5L34.2 12L32.2 12L35.3-6L37.5-6L36.2 0.7Q37.7-1.0 39.9-0.9L39.9-0.9Q41.7-0.9 42.7 0.4Q43.8 1.7 43.8 4.0L43.8 4.0Q43.8 4.8 43.7 5.5L43.7 5.5ZM41.7 4.5L41.7 4.5Q41.7 2.8 41.1 1.9Q40.5 1.0 39.3 0.9L39.3 0.9Q37.3 0.9 35.9 2.9L35.9 2.9L35.0 8.4Q35.7 10.4 37.6 10.4L37.6 10.4Q38.8 10.5 39.8 9.7Q40.7 8.9 41.2 7.5Q41.7 6.1 41.7 4.5ZM52.4-0.9L52.4-0.9Q54.0-0.9 55.2-0.0Q56.3 0.8 56.8 2.3Q57.4 3.8 57.2 5.5L57.2 5.5L57.2 5.8Q57.0 7.6 56.1 9.1Q55.2 10.6 53.8 11.4Q52.4 12.3 50.8 12.2L50.8 12.2Q49.2 12.2 48.0 11.4Q46.9 10.5 46.4 9.1Q45.8 7.6 46.0 5.9L46.0 5.9Q46.2 3.9 47.1 2.3Q47.9 0.8 49.3-0.1Q50.7-1.0 52.4-0.9ZM48.1 5.6L48.1 5.9Q48.0 6.6 48.1 7.4L48.1 7.4Q48.2 8.8 48.9 9.6Q49.7 10.4 50.8 10.5L50.8 10.5Q51.9 10.5 52.8 10.0Q53.7 9.4 54.3 8.3Q54.9 7.1 55.1 5.8L55.1 5.8Q55.2 4.7 55.1 4.0L55.1 4.0Q55.0 2.5 54.3 1.7Q53.5 0.9 52.4 0.9L52.4 0.9Q50.7 0.8 49.6 2.1Q48.4 3.5 48.1 5.6L48.1 5.6ZM62.3-3.8L64.4-3.8L63.8-0.7L66.2-0.7L65.9 1.0L63.6 1.0L62.2 8.9Q62.2 9.2 62.2 9.4L62.2 9.4Q62.3 10.4 63.2 10.4L63.2 10.4Q63.6 10.4 64.3 10.2L64.3 10.2L64.1 12.0Q63.3 12.2 62.5 12.2L62.5 12.2Q61.3 12.2 60.6 11.3Q60.0 10.4 60.2 8.8L60.2 8.8L61.4 1.0L59.2 1.0L59.5-0.7L61.7-0.7L62.3-3.8ZM73.3-0.9L73.3-0.9Q74.9-0.9 76.0-0.0Q77.2 0.8 77.7 2.3Q78.3 3.8 78.1 5.5L78.1 5.5L78.1 5.8Q77.9 7.6 77.0 9.1Q76.1 10.6 74.7 11.4Q73.3 12.3 71.6 12.2L71.6 12.2Q70.1 12.2 68.9 11.4Q67.8 10.5 67.2 9.1Q66.7 7.6 66.9 5.9L66.9 5.9Q67.0 3.9 67.9 2.3Q68.8 0.8 70.2-0.1Q71.6-1.0 73.3-0.9ZM69.0 5.6L69.0 5.9Q68.9 6.6 69.0 7.4L69.0 7.4Q69.1 8.8 69.8 9.6Q70.5 10.4 71.7 10.5L71.7 10.5Q72.8 10.5 73.7 10.0Q74.6 9.4 75.2 8.3Q75.8 7.1 76.0 5.8L76.0 5.8Q76.0 4.7 76.0 4.0L76.0 4.0Q75.8 2.5 75.1 1.7Q74.4 0.9 73.2 0.9L73.2 0.9Q71.6 0.8 70.4 2.1Q69.3 3.5 69.0 5.6L69.0 5.6Z" fill="foregroundcolor"/></svg>