<svg width="77" height="19" viewBox="5.233234375 -5.832000000000001 77 19" version="1.1" xmlns="http://www.w3.org/2000/svg"><path d="M19.4-5.0Q20.3-5.0 20.9-4.4Q21.4-3.8 21.3-2.9L21.3-2.9L20.3 10.0Q20.2 10.9 19.6 11.5Q19 12.1 18.1 12.1L18.1 12.1Q16.9 12.1 16.5 11.4L16.5 11.4L10.0 2.5L9.4 9.9Q9.3 10.9 8.7 11.5Q8.1 12.1 7.1 12.1L7.1 12.1Q6.2 12.1 5.7 11.5Q5.2 10.9 5.2 10.0L5.2 10.0L6.3-2.9Q6.4-3.8 7.0-4.4Q7.6-5.0 8.5-5.0L8.5-5.0Q9.6-5.0 10.1-4.3L10.1-4.3L16.6 4.6L17.2-2.9Q17.3-3.8 17.9-4.4Q18.5-5.0 19.4-5.0L19.4-5.0ZM33.7-0.0Q34.7-0.0 35.2 0.5Q35.7 1.0 35.6 1.9L35.6 1.9L35.0 10.2Q34.9 11.1 34.3 11.6Q33.7 12.1 32.7 12.1L32.7 12.1Q31.9 12.1 31.4 11.7Q30.9 11.3 30.8 10.6L30.8 10.6Q30.2 11.4 29.2 11.8Q28.3 12.2 27.1 12.2L27.1 12.2Q25.2 12.2 24.2 11.1Q23.2 10.0 23.2 7.9L23.2 7.9Q23.2 7.7 23.2 7.1L23.2 7.1L23.7 1.9Q23.7 1.0 24.4 0.5Q25.0-0.0 26.0-0.0L26.0-0.0Q27.0-0.0 27.5 0.5Q28 1.0 27.9 1.9L27.9 1.9L27.5 6.8L27.5 7.2Q27.5 8.0 27.9 8.5Q28.3 8.9 29.0 8.9L29.0 8.9Q29.9 8.9 30.4 8.3Q30.9 7.7 31.0 6.7L31.0 6.7L31.4 1.9Q31.5 1.0 32.1 0.5Q32.7-0.0 33.7-0.0L33.7-0.0ZM46.1-0.1Q48.0-0.1 49.0 1.0Q50.1 2.1 50.1 4.3L50.1 4.3Q50.1 4.8 50.0 5.1L50.0 5.1L49.6 10.2Q49.5 11.1 48.9 11.6Q48.3 12.1 47.3 12.1L47.3 12.1Q46.4 12.1 45.8 11.6Q45.3 11.1 45.4 10.2L45.4 10.2L45.8 5.3Q45.8 4.2 45.4 3.7Q45.0 3.2 44.2 3.2L44.2 3.2Q43.3 3.2 42.7 3.8Q42.2 4.4 42.2 5.4L42.2 5.4L41.8 10.2Q41.7 11.1 41.1 11.6Q40.5 12.1 39.5 12.1L39.5 12.1Q38.5 12.1 38.0 11.6Q37.4 11.1 37.5 10.2L37.5 10.2L38.2 1.9Q38.2 1.0 38.8 0.5Q39.5-0.0 40.5-0.0L40.5-0.0Q41.3-0.0 41.8 0.4Q42.3 0.8 42.3 1.5L42.3 1.5Q42.9 0.7 43.9 0.3Q44.9-0.1 46.1-0.1L46.1-0.1ZM54.0 12.1Q53.1 12.1 52.5 11.6Q51.9 11.1 52.0 10.2L52.0 10.2L52.7 1.9Q52.8 1.0 53.4 0.5Q54.1-0.0 55.0-0.0L55.0-0.0Q55.9-0.0 56.5 0.5Q57.0 1.0 56.9 1.9L56.9 1.9L56.3 10.2Q56.2 11.1 55.6 11.6Q54.9 12.1 54.0 12.1L54.0 12.1ZM55.3-1.7Q54.2-1.7 53.5-2.3Q52.9-2.9 52.9-3.8L52.9-3.8Q52.9-4.7 53.5-5.3Q54.2-5.8 55.3-5.8L55.3-5.8Q56.3-5.8 57.0-5.3Q57.6-4.7 57.6-3.8L57.6-3.8Q57.6-2.9 57.0-2.3Q56.3-1.7 55.3-1.7L55.3-1.7ZM66.6 9.0Q67.0 9.0 67.3 9.4Q67.6 9.8 67.6 10.3L67.6 10.3Q67.6 11.4 66.9 11.8Q66.2 12.2 64.6 12.2L64.6 12.2Q62.4 12.2 61.2 11.1Q60.0 10.0 60.0 7.9L60.0 7.9Q60.0 7.4 60.0 7.2L60.0 7.2L60.4 3.3L59.7 3.3Q58.8 3.3 58.3 3.0Q57.8 2.6 57.8 1.8L57.8 1.8Q57.8 0.2 59.9 0.2L59.9 0.2L60.6 0.2L60.7-1.4Q60.8-2.3 61.4-2.8Q62.1-3.4 63.0-3.4L63.0-3.4Q64.0-3.4 64.6-2.8Q65.1-2.3 65.0-1.4L65.0-1.4L64.9 0.2L66.2 0.2Q67.0 0.2 67.5 0.6Q68.0 1.0 68.0 1.7L68.0 1.7Q68.0 2.5 67.5 2.9Q67.0 3.3 65.9 3.3L65.9 3.3L64.6 3.3L64.3 7.2Q64.3 7.4 64.3 7.6L64.3 7.6Q64.3 9.1 65.6 9.1L65.6 9.1L66.1 9.1Q66.5 9.0 66.6 9.0L66.6 9.0ZM74.7 12.2Q72.8 12.2 71.3 11.5Q69.8 10.8 69.0 9.4Q68.2 8.1 68.2 6.3L68.2 6.3Q68.2 4.3 69.1 2.9Q69.9 1.4 71.4 0.7Q72.8-0.1 74.8-0.1L74.8-0.1Q76.8-0.1 78.2 0.6Q79.7 1.3 80.5 2.7Q81.3 4.0 81.3 5.7L81.3 5.7Q81.3 7.8 80.5 9.2Q79.6 10.7 78.2 11.4Q76.7 12.2 74.7 12.2L74.7 12.2ZM74.7 9.0Q75.9 9.0 76.5 8.1Q77.1 7.1 77.1 5.6L77.1 5.6Q77.1 4.3 76.5 3.7Q76.0 3.0 74.9 3.0L74.9 3.0Q73.6 3.0 73.0 4.0Q72.5 4.9 72.5 6.4L72.5 6.4Q72.5 7.8 73.0 8.4Q73.6 9.0 74.7 9.0L74.7 9.0Z" fill="foregroundcolor"/></svg>