<svg width="76" height="19" viewBox="5.536 -5.832000000000001 76 19" version="1.1" xmlns="http://www.w3.org/2000/svg"><path d="M18.5-5.0Q19.5-5.0 20.0-4.4Q20.6-3.8 20.6-2.9L20.6-2.9L20.6 10.0Q20.6 10.9 20.1 11.5Q19.5 12.1 18.6 12.1L18.6 12.1Q17.5 12.1 16.9 11.4L16.9 11.4L9.6 2.3L9.6 10.0Q9.6 10.9 9.1 11.5Q8.5 12.1 7.6 12.1L7.6 12.1Q6.7 12.1 6.1 11.5Q5.5 10.9 5.5 10.0L5.5 10.0L5.5-2.9Q5.5-3.8 6.1-4.4Q6.7-5.0 7.6-5.0L7.6-5.0Q8.6-5.0 9.2-4.3L9.2-4.3L16.5 4.8L16.5-2.9Q16.5-3.9 17.1-4.5Q17.6-5.0 18.5-5.0L18.5-5.0ZM33.2-0.0Q34.2-0.0 34.7 0.5Q35.3 1.0 35.3 1.9L35.3 1.9L35.3 10.2Q35.3 11.1 34.7 11.6Q34.1 12.1 33.2 12.1L33.2 12.1Q32.3 12.1 31.7 11.7Q31.2 11.2 31.2 10.4L31.2 10.4Q30.6 11.3 29.8 11.7Q28.9 12.2 27.8 12.2L27.8 12.2Q25.5 12.2 24.4 10.9Q23.3 9.7 23.3 7.1L23.3 7.1L23.3 1.9Q23.3 1.0 23.9 0.5Q24.5-0.0 25.5-0.0L25.5-0.0Q26.4-0.0 27.0 0.5Q27.6 1.0 27.6 1.9L27.6 1.9L27.6 7.2Q27.6 8.9 29.1 8.9L29.1 8.9Q29.9 8.9 30.5 8.3Q31.0 7.7 31.0 6.7L31.0 6.7L31.0 1.9Q31.0 1.0 31.6 0.5Q32.2-0.0 33.2-0.0L33.2-0.0ZM45.8-0.1Q47.9-0.1 48.9 1.2Q49.9 2.4 49.9 5.0L49.9 5.0L49.9 10.2Q49.9 11.1 49.4 11.6Q48.8 12.1 47.8 12.1L47.8 12.1Q46.8 12.1 46.2 11.6Q45.7 11.1 45.7 10.2L45.7 10.2L45.7 5.2Q45.7 4.1 45.3 3.6Q44.9 3.2 44.2 3.2L44.2 3.2Q43.2 3.2 42.7 3.8Q42.1 4.4 42.1 5.4L42.1 5.4L42.1 10.2Q42.1 11.1 41.5 11.6Q40.9 12.1 40.0 12.1L40.0 12.1Q39.0 12.1 38.4 11.6Q37.8 11.1 37.8 10.2L37.8 10.2L37.8 1.9Q37.8 1.0 38.4 0.5Q39.0-0.0 40.0-0.0L40.0-0.0Q40.9-0.0 41.4 0.5Q42.0 1.0 42.0 1.8L42.0 1.8Q42.6 0.9 43.6 0.4Q44.6-0.1 45.8-0.1L45.8-0.1ZM54.5 12.1Q53.6 12.1 52.9 11.7Q52.3 11.2 52.3 10.2L52.3 10.2L52.3 1.9Q52.3 0.9 52.9 0.4Q53.6-0.0 54.5-0.0L54.5-0.0Q55.4-0.0 56.0 0.4Q56.6 0.9 56.6 1.9L56.6 1.9L56.6 10.2Q56.6 11.2 56.0 11.7Q55.4 12.1 54.5 12.1L54.5 12.1ZM54.5-1.7Q53.4-1.7 52.8-2.3Q52.1-2.9 52.1-3.8L52.1-3.8Q52.1-4.7 52.8-5.3Q53.4-5.8 54.5-5.8L54.5-5.8Q55.5-5.8 56.2-5.3Q56.8-4.7 56.8-3.8L56.8-3.8Q56.8-2.9 56.2-2.3Q55.6-1.7 54.5-1.7L54.5-1.7ZM66.1 9.1Q67.7 9.2 67.7 10.5L67.7 10.5Q67.7 11.4 67.0 11.8Q66.4 12.2 65.2 12.1L65.2 12.1L64.5 12.1Q62.3 11.9 61.2 10.8Q60.1 9.6 60.1 7.6L60.1 7.6L60.1 3.3L59.4 3.3Q57.5 3.3 57.5 1.8L57.5 1.8Q57.5 0.2 59.4 0.2L59.4 0.2L60.1 0.2L60.1-1.4Q60.1-2.3 60.7-2.8Q61.3-3.4 62.2-3.4L62.2-3.4Q63.2-3.4 63.8-2.8Q64.4-2.3 64.4-1.4L64.4-1.4L64.4 0.2L65.7 0.2Q67.6 0.2 67.6 1.8L67.6 1.8Q67.6 3.3 65.7 3.3L65.7 3.3L64.4 3.3L64.4 7.9Q64.4 8.4 64.7 8.7Q64.9 9.0 65.4 9.0L65.4 9.0L66.1 9.1ZM74.8 12.2Q72.8 12.2 71.3 11.4Q69.9 10.7 69.1 9.3Q68.2 7.9 68.2 6.0L68.2 6.0Q68.2 4.2 69.1 2.8Q69.9 1.4 71.3 0.6Q72.8-0.1 74.8-0.1L74.8-0.1Q76.7-0.1 78.2 0.6Q79.6 1.4 80.5 2.8Q81.3 4.2 81.3 6.0L81.3 6.0Q81.3 7.9 80.5 9.3Q79.6 10.7 78.2 11.4Q76.7 12.2 74.8 12.2L74.8 12.2ZM74.8 9Q77.0 9 77.0 6.0L77.0 6.0Q77.0 3.0 74.8 3.0L74.8 3.0Q72.5 3.0 72.5 6.0L72.5 6.0Q72.5 9 74.8 9L74.8 9Z" fill="foregroundcolor"/></svg>