<svg width="114" height="18" viewBox="5.72265625 -5.54296875 114 18" version="1.1" xmlns="http://www.w3.org/2000/svg"><path d="M17.4 9.3L17.4-4.9L19.0-4.9L19.0 12L17.4 12L7.4-2.3L7.3-2.3L7.3 12L5.7 12L5.7-4.9L7.3-4.9L17.3 9.3L17.4 9.3ZM28.0 12.2Q26.0 12.2 24.7 11.4Q23.3 10.7 22.5 9.2Q21.8 7.7 21.8 5.7L21.8 5.7Q21.8 3.9 22.5 2.4Q23.2 1.0 24.5 0.2Q25.7-0.6 27.4-0.6L27.4-0.6Q29.0-0.6 30.2 0.2Q31.4 0.9 32.1 2.3Q32.7 3.7 32.7 5.4L32.7 5.4Q32.7 5.9 32.7 6.2L32.7 6.2L23.3 6.2Q23.3 7.6 23.9 8.7Q24.5 9.7 25.5 10.3Q26.5 10.9 28.0 10.9L28.0 10.9Q28.9 10.9 29.9 10.6Q30.8 10.4 31.7 9.8L31.7 9.8L32.0 11.0Q31.0 11.6 30.0 11.9Q29.0 12.2 28.0 12.2L28.0 12.2ZM31.2 5.1Q31.2 3.8 30.7 2.8Q30.3 1.8 29.4 1.3Q28.5 0.7 27.4 0.7L27.4 0.7Q26.2 0.7 25.3 1.3Q24.4 1.9 23.9 2.8Q23.3 3.8 23.3 5.1L23.3 5.1L31.2 5.1ZM40.4 9.5L45.0-0.4L46.7-0.4L40.7 12.1L39.9 12.1L33.9-0.4L35.7-0.4L40.3 9.5L40.4 9.5ZM54.0 12.2Q52.1 12.2 50.7 11.4Q49.3 10.7 48.6 9.2Q47.8 7.7 47.8 5.7L47.8 5.7Q47.8 3.9 48.5 2.4Q49.2 1.0 50.5 0.2Q51.8-0.6 53.4-0.6L53.4-0.6Q55-0.6 56.2 0.2Q57.4 0.9 58.1 2.3Q58.8 3.7 58.8 5.4L58.8 5.4Q58.8 5.9 58.7 6.2L58.7 6.2L49.4 6.2Q49.4 7.6 49.9 8.7Q50.5 9.7 51.5 10.3Q52.6 10.9 54.0 10.9L54.0 10.9Q54.9 10.9 55.9 10.6Q56.9 10.4 57.7 9.8L57.7 9.8L58.0 11.0Q57.1 11.6 56.0 11.9Q55.0 12.2 54.0 12.2L54.0 12.2ZM57.3 5.1Q57.3 3.8 56.8 2.8Q56.3 1.8 55.4 1.3Q54.5 0.7 53.4 0.7L53.4 0.7Q52.2 0.7 51.3 1.3Q50.4 1.9 49.9 2.8Q49.4 3.8 49.4 5.1L49.4 5.1L57.3 5.1ZM63.2 1.9Q63.8 0.7 64.8 0.0Q65.9-0.6 67.5-0.6L67.5-0.6L67.5 0.8Q65.9 0.8 64.9 1.4Q64.0 1.9 63.5 3.1Q63.1 4.2 63.1 5.9L63.1 5.9L63.1 12L61.6 12L61.6-0.4L63.1-0.4L63.1 1.9L63.2 1.9ZM86.6-4.9L86.6 12L85.0 12L85.0-2.6L84.9-2.6L78.3 5.2L78.1 5.2L71.4-2.6L71.3-2.6L71.3 12L69.8 12L69.8-4.9L71.3-4.9L78.2 3.1L85.0-4.9L86.6-4.9ZM90.1-3.3L90.1-5.0L91.8-5.0L91.8-3.3L90.1-3.3ZM90.2 12L90.2-0.4L91.7-0.4L91.7 12L90.2 12ZM105.3 4.1L105.3 12L103.7 12L103.7 4.5Q103.7 2.5 102.9 1.6Q102.0 0.7 100.2 0.7L100.2 0.7Q99.3 0.7 98.6 1.2Q97.8 1.6 97.3 2.4Q96.9 3.2 96.8 4.2L96.8 4.2L96.8 12L95.3 12L95.3-0.4L96.8-0.4L96.8 1.7L96.9 1.7Q97.4 0.6 98.4-0.0Q99.4-0.6 100.7-0.6L100.7-0.6Q102.9-0.6 104.1 0.6Q105.3 1.8 105.3 4.1L105.3 4.1ZM117.7-5.5L119.3-5.5L119.3 12.0L117.7 12.0L117.7 9.6L117.6 9.6Q117.1 10.8 115.9 11.5Q114.8 12.2 113.3 12.2L113.3 12.2Q111.8 12.2 110.6 11.4Q109.4 10.6 108.7 9.2Q108.0 7.8 108.0 6.0L108.0 6.0Q108.0 4.1 108.7 2.6Q109.4 1.1 110.6 0.2Q111.8-0.6 113.4-0.6L113.4-0.6Q114.8-0.6 115.9 0.1Q117.1 0.9 117.7 2.1L117.7 2.1L117.7 2.1L117.7-5.5ZM113.6 11.0Q114.8 11.0 115.8 10.4Q116.7 9.8 117.2 8.8Q117.7 7.8 117.7 6.5L117.7 6.5L117.7 5.6Q117.7 4.1 117.2 3.0Q116.6 1.9 115.7 1.3Q114.8 0.6 113.6 0.6L113.6 0.6Q112.5 0.6 111.5 1.3Q110.6 2.0 110.0 3.2Q109.5 4.5 109.5 6.0L109.5 6.0Q109.5 7.5 110.0 8.6Q110.6 9.7 111.5 10.4Q112.4 11.0 113.6 11.0L113.6 11.0Z" fill="foregroundcolor"/></svg>