<svg width="209" height="18" viewBox="4.140625 -5.390625 209 18" version="1.1" xmlns="http://www.w3.org/2000/svg"><path d="M15.6 10.9L19.2-4.9L19.8-4.9L15.9 12L15.3 12L8.5-3.9L8.4-3.9L4.7 12L4.1 12L8.1-4.9L8.6-4.9L15.5 10.9L15.6 10.9ZM24.1 12.2Q22.0 12.2 20.9 11.1Q19.7 10.0 19.7 7.9L19.7 7.9Q19.7 7.0 20.0 5.8L20.0 5.8Q20.4 3.9 21.4 2.6Q22.3 1.2 23.7 0.4Q25.0-0.4 26.5-0.4L26.5-0.4Q27.6-0.4 28.4 0.1Q29.3 0.6 29.7 1.5Q30.1 2.4 30.1 3.6L30.1 3.6Q30.1 4.3 30.0 5.2L30.0 5.2Q29.9 5.5 29.8 5.7Q29.8 5.9 29.8 6L29.8 6L20.5 6Q20.3 7.0 20.3 7.9L20.3 7.9Q20.3 9.7 21.3 10.6Q22.2 11.6 24.1 11.6L24.1 11.6Q24.9 11.7 25.9 11.4Q26.9 11.1 27.8 10.5L27.8 10.5L27.9 11.0Q27.0 11.6 26.0 11.9Q25.0 12.2 24.1 12.2L24.1 12.2ZM29.3 5.5Q29.6 4.4 29.6 3.6L29.6 3.6Q29.6 2.0 28.8 1.1Q28.0 0.2 26.5 0.2L26.5 0.2Q25.2 0.2 24.0 0.8Q22.8 1.5 21.9 2.7Q21.1 3.9 20.7 5.5L20.7 5.5L29.3 5.5ZM35.7 11.1L43.3-0.2L44.0-0.2L35.7 12.1L35.2 12.1L32.5-0.2L33.1-0.2L35.6 11.1L35.7 11.1ZM48.0 12.2Q45.9 12.2 44.8 11.1Q43.7 10.0 43.7 7.9L43.7 7.9Q43.7 7.0 43.9 5.8L43.9 5.8Q44.4 3.9 45.3 2.6Q46.3 1.2 47.6 0.4Q48.9-0.4 50.4-0.4L50.4-0.4Q51.6-0.4 52.4 0.1Q53.2 0.6 53.6 1.5Q54.1 2.4 54.1 3.6L54.1 3.6Q54.1 4.3 53.9 5.2L53.9 5.2Q53.8 5.5 53.8 5.7Q53.7 5.9 53.7 6L53.7 6L44.5 6Q44.2 7.0 44.2 7.9L44.2 7.9Q44.2 9.7 45.2 10.6Q46.2 11.6 48.0 11.6L48.0 11.6Q48.9 11.7 49.9 11.4Q50.9 11.1 51.8 10.5L51.8 10.5L51.8 11.0Q50.9 11.6 49.9 11.9Q48.9 12.2 48.0 12.2L48.0 12.2ZM53.3 5.5Q53.5 4.4 53.5 3.6L53.5 3.6Q53.5 2.0 52.7 1.1Q51.9 0.2 50.4 0.2L50.4 0.2Q49.1 0.2 47.9 0.8Q46.8 1.5 45.9 2.7Q45.0 3.9 44.6 5.5L44.6 5.5L53.3 5.5ZM58.0 2.1Q59.6-0.4 62.8-0.4L62.8-0.4L62.7 0.3Q61.2 0.3 60.1 0.8Q59.1 1.3 58.4 2.4Q57.6 3.5 57.2 5.3L57.2 5.3L57.2 5.3L55.7 12L55.1 12L57.9-0.2L58.5-0.2L57.9 2.1L58.0 2.1ZM71.5 3.6L80.5-4.9L81.1-4.9L77.2 12L76.6 12L80.3-4.0L80.2-4.0L71.5 4.3L71.3 4.3L66.3-4.0L66.3-4.0L62.6 12L62.0 12L65.9-4.9L66.4-4.9L71.5 3.6ZM84.0-3.6L84.2-4.5L85.1-4.5L84.9-3.6L84.0-3.6ZM80.6 12L83.4-0.2L83.9-0.2L81.1 12L80.6 12ZM91.8-0.4Q93.5-0.4 94.3 0.4Q95.2 1.1 95.2 2.6L95.2 2.6Q95.2 3.3 95.0 4.1L95.0 4.1L93.2 12L92.6 12L94.4 4.2Q94.6 3.3 94.6 2.6L94.6 2.6Q94.6 1.4 93.9 0.8Q93.1 0.2 91.6 0.2L91.6 0.2Q90.6 0.2 89.7 0.7Q88.8 1.1 88.1 2.0Q87.4 2.8 87.1 3.8L87.1 3.8L85.2 12L84.6 12L87.4-0.2L88.0-0.2L87.5 1.9L87.6 1.9Q88.4 0.8 89.5 0.2Q90.6-0.4 91.8-0.4L91.8-0.4ZM109.1-5.4L109.7-5.4L105.7 12.0L105.1 12.0L105.7 9.3L105.6 9.3Q104.8 10.7 103.5 11.4Q102.2 12.2 100.7 12.2L100.7 12.2Q99.5 12.2 98.7 11.7Q97.8 11.2 97.4 10.2Q96.9 9.3 96.9 8.0L96.9 8.0Q96.9 7.2 97.2 6.1L97.2 6.1Q97.6 4.2 98.6 2.7Q99.6 1.3 100.9 0.5Q102.2-0.4 103.6-0.4L103.6-0.4Q105.1-0.4 106.0 0.5Q106.9 1.3 107.1 2.8L107.1 2.8L107.2 2.8L109.1-5.4ZM100.7 11.6Q101.9 11.6 103.1 11.0Q104.2 10.5 105.0 9.4Q105.9 8.3 106.3 6.9L106.3 6.9L106.6 5.7Q106.7 4.8 106.7 4.0L106.7 4.0Q106.7 2.2 105.9 1.2Q105.1 0.2 103.6 0.2L103.6 0.2Q102.3 0.2 101.1 0.9Q100.0 1.7 99.0 3.0Q98.1 4.4 97.7 6.1L97.7 6.1Q97.5 7.1 97.5 7.9L97.5 7.9Q97.5 9.1 97.9 9.9Q98.3 10.7 99.0 11.2Q99.7 11.6 100.7 11.6L100.7 11.6ZM126.7-5.1Q127.9-5.1 129.0-4.7Q130.0-4.3 130.8-3.4Q131.5-2.5 131.8-1.3L131.8-1.3L131.3-1.0Q131.0-2.2 130.3-3.0Q129.7-3.8 128.7-4.2Q127.8-4.6 126.7-4.6L126.7-4.6Q124.7-4.6 122.9-3.6Q121.1-2.5 119.8-0.7Q118.4 1.2 117.8 3.5L117.8 3.5Q117.6 4.8 117.6 6.0L117.6 6.0Q117.6 7.7 118.2 9.0Q118.8 10.3 120.0 11.0Q121.1 11.7 122.7 11.7L122.7 11.7Q123.8 11.7 125.0 11.3Q126.2 10.9 127.2 10.0Q128.3 9.2 129.2 8.1L129.2 8.1L129.5 8.3Q128.7 9.6 127.5 10.5Q126.4 11.4 125.2 11.8Q123.9 12.2 122.7 12.2L122.7 12.2Q120.9 12.2 119.6 11.5Q118.4 10.7 117.7 9.3Q117.0 7.9 117.0 6L117.0 6Q117.0 4.8 117.2 3.5L117.2 3.5Q117.9 1.0 119.3-1.0Q120.7-2.9 122.6-4.0Q124.6-5.1 126.7-5.1L126.7-5.1ZM136.1 12.2Q134.8 12.2 133.9 11.6Q132.9 11.1 132.4 10.1Q131.9 9.2 131.9 7.8L131.9 7.8Q131.9 6.9 132.2 5.9L132.2 5.9Q132.6 4.0 133.6 2.6Q134.6 1.2 136.0 0.4Q137.4-0.4 139.0-0.4L139.0-0.4Q140.4-0.4 141.3 0.2Q142.3 0.7 142.8 1.7Q143.3 2.6 143.3 4.0L143.3 4.0Q143.3 4.9 143.0 5.9L143.0 5.9Q142.6 7.8 141.6 9.2Q140.6 10.6 139.2 11.4Q137.7 12.2 136.1 12.2L136.1 12.2ZM136.1 11.7Q137.6 11.7 138.9 10.9Q140.2 10.2 141.1 8.9Q142.1 7.6 142.5 5.9L142.5 5.9Q142.7 4.9 142.7 4.1L142.7 4.1Q142.7 2.2 141.7 1.2Q140.8 0.2 139.0 0.2L139.0 0.2Q137.6 0.2 136.3 0.9Q135.0 1.6 134.1 2.9Q133.1 4.2 132.7 5.9L132.7 5.9Q132.5 6.9 132.5 7.8L132.5 7.8Q132.5 9.6 133.5 10.6Q134.4 11.7 136.1 11.7L136.1 11.7ZM151.6-0.4Q153.3-0.4 154.1 0.4Q155.0 1.1 155.0 2.6L155.0 2.6Q155.0 3.3 154.8 4.1L154.8 4.1L152.9 12L152.4 12L154.2 4.2Q154.4 3.3 154.4 2.6L154.4 2.6Q154.4 1.4 153.6 0.8Q152.9 0.2 151.4 0.2L151.4 0.2Q150.4 0.2 149.5 0.7Q148.6 1.1 147.9 2.0Q147.2 2.8 146.8 3.8L146.8 3.8L145.0 12L144.4 12L147.2-0.2L147.8-0.2L147.3 1.9L147.4 1.9Q148.1 0.8 149.3 0.2Q150.4-0.4 151.6-0.4L151.6-0.4ZM168.9-5.4L169.5-5.4L165.4 12.0L164.9 12.0L165.5 9.3L165.4 9.3Q164.6 10.7 163.3 11.4Q162.0 12.2 160.4 12.2L160.4 12.2Q159.3 12.2 158.5 11.7Q157.6 11.2 157.2 10.2Q156.7 9.3 156.7 8.0L156.7 8.0Q156.7 7.2 156.9 6.1L156.9 6.1Q157.4 4.2 158.4 2.7Q159.3 1.3 160.6 0.5Q162.0-0.4 163.4-0.4L163.4-0.4Q164.8-0.4 165.8 0.5Q166.7 1.3 166.9 2.8L166.9 2.8L167.0 2.8L168.9-5.4ZM160.5 11.6Q161.7 11.6 162.8 11.0Q164.0 10.5 164.8 9.4Q165.6 8.3 166.0 6.9L166.0 6.9L166.3 5.7Q166.5 4.8 166.5 4.0L166.5 4.0Q166.5 2.2 165.7 1.2Q164.9 0.2 163.4 0.2L163.4 0.2Q162.1 0.2 160.9 0.9Q159.7 1.7 158.8 3.0Q157.9 4.4 157.5 6.1L157.5 6.1Q157.3 7.1 157.3 7.9L157.3 7.9Q157.3 9.1 157.7 9.9Q158.0 10.7 158.8 11.2Q159.5 11.6 160.5 11.6L160.5 11.6ZM173.7 12.2Q171.6 12.2 170.5 11.1Q169.4 10.0 169.4 7.9L169.4 7.9Q169.4 7.0 169.6 5.8L169.6 5.8Q170.1 3.9 171.0 2.6Q172.0 1.2 173.3 0.4Q174.6-0.4 176.1-0.4L176.1-0.4Q177.2-0.4 178.1 0.1Q178.9 0.6 179.3 1.5Q179.8 2.4 179.8 3.6L179.8 3.6Q179.8 4.3 179.6 5.2L179.6 5.2Q179.5 5.5 179.5 5.7Q179.4 5.9 179.4 6L179.4 6L170.2 6Q169.9 7.0 169.9 7.9L169.9 7.9Q169.9 9.7 170.9 10.6Q171.8 11.6 173.7 11.6L173.7 11.6Q174.5 11.7 175.6 11.4Q176.6 11.1 177.4 10.5L177.4 10.5L177.5 11.0Q176.6 11.6 175.6 11.9Q174.6 12.2 173.7 12.2L173.7 12.2ZM179.0 5.5Q179.2 4.4 179.2 3.6L179.2 3.6Q179.2 2.0 178.4 1.1Q177.6 0.2 176.1 0.2L176.1 0.2Q174.8 0.2 173.6 0.8Q172.4 1.5 171.6 2.7Q170.7 3.9 170.3 5.5L170.3 5.5L179.0 5.5ZM188.0-0.4Q189.6-0.4 190.5 0.4Q191.4 1.1 191.4 2.6L191.4 2.6Q191.4 3.3 191.2 4.1L191.2 4.1L189.3 12L188.8 12L190.6 4.2Q190.8 3.3 190.8 2.6L190.8 2.6Q190.8 1.4 190.0 0.8Q189.3 0.2 187.8 0.2L187.8 0.2Q186.8 0.2 185.9 0.7Q184.9 1.1 184.3 2.0Q183.6 2.8 183.2 3.8L183.2 3.8L181.4 12L180.8 12L183.6-0.2L184.2-0.2L183.7 1.9L183.8 1.9Q184.5 0.8 185.7 0.2Q186.8-0.4 188.0-0.4L188.0-0.4ZM195.6 12.2Q193.6 12.2 191.9 10.7L191.9 10.7L192.2 10.2Q193.1 11.0 193.9 11.3Q194.8 11.6 195.6 11.6L195.6 11.6Q196.6 11.6 197.5 11.3Q198.3 11.0 198.9 10.4Q199.4 9.8 199.6 8.9L199.6 8.9Q199.7 8.6 199.7 8.3L199.7 8.3Q199.7 7.4 199.1 6.8Q198.4 6.2 197.1 5.7L197.1 5.7Q195.6 5.2 195.0 4.6Q194.3 3.9 194.3 3.0L194.3 3.0Q194.3 2.7 194.4 2.4L194.4 2.4Q194.5 1.6 195.1 0.9Q195.7 0.3 196.5-0.0Q197.4-0.4 198.4-0.4L198.4-0.4Q199.2-0.4 200.0-0.1Q200.7 0.1 201.4 0.6L201.4 0.6L201.3 1.1Q200.6 0.6 199.9 0.4Q199.2 0.2 198.4 0.2L198.4 0.2Q197.6 0.2 196.8 0.4Q196.1 0.7 195.6 1.2Q195.1 1.7 195.0 2.3L195.0 2.3Q194.9 2.6 194.9 2.9L194.9 2.9Q194.9 3.7 195.5 4.2Q196.1 4.8 197.5 5.3L197.5 5.3Q198.9 5.8 199.6 6.5Q200.3 7.2 200.3 8.2L200.3 8.2Q200.3 8.5 200.2 8.9L200.2 8.9Q200.0 9.9 199.3 10.6Q198.7 11.4 197.7 11.8Q196.8 12.2 195.6 12.2L195.6 12.2ZM206.9 12.2Q204.8 12.2 203.6 11.1Q202.5 10.0 202.5 7.9L202.5 7.9Q202.5 7.0 202.8 5.8L202.8 5.8Q203.2 3.9 204.2 2.6Q205.1 1.2 206.4 0.4Q207.8-0.4 209.3-0.4L209.3-0.4Q210.4-0.4 211.2 0.1Q212.0 0.6 212.5 1.5Q212.9 2.4 212.9 3.6L212.9 3.6Q212.9 4.3 212.7 5.2L212.7 5.2Q212.7 5.5 212.6 5.7Q212.5 5.9 212.5 6L212.5 6L203.3 6Q203.1 7.0 203.1 7.9L203.1 7.9Q203.1 9.7 204.0 10.6Q205.0 11.6 206.9 11.6L206.9 11.6Q207.7 11.7 208.7 11.4Q209.7 11.1 210.6 10.5L210.6 10.5L210.6 11.0Q209.7 11.6 208.7 11.9Q207.7 12.2 206.9 12.2L206.9 12.2ZM212.1 5.5Q212.3 4.4 212.3 3.6L212.3 3.6Q212.3 2.0 211.5 1.1Q210.7 0.2 209.3 0.2L209.3 0.2Q208.0 0.2 206.8 0.8Q205.6 1.5 204.7 2.7Q203.8 3.9 203.4 5.5L203.4 5.5L212.1 5.5Z" fill="foregroundcolor"/></svg>