<svg width="133" height="17" viewBox="5.224 -4.800000000000001 133 17" version="1.1" xmlns="http://www.w3.org/2000/svg"><path d="M15.0 7.2L23.5-4.8L26.2-4.8L22.9 12L20.8 12L23.5-1.6L15.1 10.2L13.7 10.2L10.0-1.7L7.3 12L5.2 12L8.5-4.8L11.1-4.8L15.0 7.2ZM34.7-0.8Q36.5-0.8 37.8-0.0Q39.2 0.7 39.9 2.0Q40.6 3.3 40.6 5.0L40.6 5.0Q40.6 7.1 39.7 8.7Q38.8 10.3 37.1 11.2Q35.5 12.1 33.4 12.1L33.4 12.1Q31.6 12.1 30.3 11.3Q29.0 10.6 28.3 9.3Q27.5 8.0 27.5 6.3L27.5 6.3Q27.5 4.2 28.5 2.6Q29.4 1.0 31.0 0.1Q32.7-0.8 34.7-0.8L34.7-0.8ZM34.5 1.2Q33.2 1.2 32.1 1.8Q31.0 2.4 30.4 3.6Q29.8 4.7 29.8 6.2L29.8 6.2Q29.8 8.0 30.8 9.1Q31.9 10.2 33.6 10.2L33.6 10.2Q35.0 10.2 36.0 9.5Q37.1 8.9 37.7 7.8Q38.3 6.6 38.3 5.2L38.3 5.2Q38.3 3.4 37.3 2.3Q36.3 1.2 34.5 1.2L34.5 1.2ZM51.5-0.8Q53.6-0.8 54.8 0.2Q56.1 1.3 56.1 3.2L56.1 3.2Q56.1 3.8 55.9 4.5L55.9 4.5L54.4 12L52.1 12L53.6 4.8Q53.7 4.4 53.7 3.9L53.7 3.9Q53.7 2.6 52.9 1.9Q52.1 1.2 50.7 1.2L50.7 1.2Q49.0 1.2 47.8 2.3Q46.6 3.4 46.2 5.2L46.2 5.2L44.8 12L42.5 12L45.0-0.7L47.3-0.7L46.9 1.4Q48.5-0.8 51.5-0.8L51.5-0.8ZM63.2 1.4L61.8 8.2Q61.7 8.6 61.7 9.0L61.7 9.0Q61.7 9.6 62.0 9.8Q62.3 10.0 62.9 10.0L62.9 10.0Q63.8 10.0 65.0 9.4L65.0 9.4L65.4 11.2Q63.9 12.1 62.3 12.1L62.3 12.1Q61.0 12.1 60.3 11.4Q59.5 10.7 59.5 9.4L59.5 9.4Q59.5 8.9 59.6 8.4L59.6 8.4L61.0 1.4L59.2 1.4L59.5-0.3L61.3-0.3L62.0-3.7L64.2-3.7L63.5-0.3L67.4-0.3L67.1 1.4L63.2 1.4ZM72.3 12.1Q70.7 12.1 69.1 11.5Q67.6 10.8 66.8 9.8L66.8 9.8L67.8 8.3Q68.6 9.1 69.8 9.7Q71.1 10.3 72.3 10.3L72.3 10.3Q73.3 10.3 74.0 9.8Q74.7 9.3 74.7 8.5L74.7 8.5Q74.7 7.8 74.1 7.3Q73.5 6.9 72.3 6.4L72.3 6.4Q71.2 6.0 70.5 5.6Q69.8 5.2 69.3 4.5Q68.8 3.9 68.8 2.9L68.8 2.9Q68.8 1.2 70.1 0.2Q71.3-0.8 73.4-0.8L73.4-0.8Q74.7-0.8 76.0-0.3Q77.3 0.1 78.2 0.9L78.2 0.9L77.1 2.4Q76.3 1.8 75.2 1.4Q74.2 1.0 73.3 1.0L73.3 1.0Q72.3 1.0 71.7 1.5Q71.1 1.9 71.1 2.7L71.1 2.7Q71.1 3.4 71.7 3.8Q72.3 4.2 73.5 4.7L73.5 4.7Q74.6 5.1 75.3 5.5Q76 5.9 76.5 6.6Q77.0 7.3 77.0 8.3L77.0 8.3Q77.0 9.4 76.4 10.3Q75.8 11.2 74.7 11.7Q73.7 12.1 72.3 12.1L72.3 12.1ZM86.5-0.8Q89.1-0.8 90.5 0.7Q92.0 2.2 92.0 4.7L92.0 4.7Q92.0 5.5 91.8 6.5L91.8 6.5L81.6 6.5Q81.6 8.3 82.7 9.3Q83.8 10.3 85.6 10.3L85.6 10.3Q86.6 10.3 87.6 9.9Q88.6 9.6 89.3 9.0L89.3 9.0L90.3 10.4Q88.4 12.1 85.5 12.1L85.5 12.1Q83.7 12.1 82.3 11.4Q80.9 10.7 80.1 9.4Q79.4 8.0 79.4 6.3L79.4 6.3Q79.4 4.3 80.3 2.7Q81.2 1.1 82.9 0.2Q84.5-0.8 86.5-0.8L86.5-0.8ZM90.0 4.8Q90.0 3.0 89.1 2.1Q88.2 1.1 86.5 1.1L86.5 1.1Q84.8 1.1 83.5 2.1Q82.2 3.1 81.8 4.8L81.8 4.8L90.0 4.8ZM98.0 1.9Q99.8-0.7 103.0-0.8L103.0-0.8L102.7 1.4Q100.8 1.3 99.3 2.4Q97.9 3.6 97.3 5.4L97.3 5.4L96.0 12L93.8 12L96.3-0.7L98.5-0.7L98.0 1.9ZM107.2 1.9Q109.0-0.7 112.2-0.8L112.2-0.8L111.9 1.4Q110.0 1.3 108.5 2.4Q107.1 3.6 106.5 5.4L106.5 5.4L105.2 12L103.0 12L105.5-0.7L107.8-0.7L107.2 1.9ZM117.6 12.1Q116.0 12.1 114.8 11.4Q113.6 10.7 112.9 9.4Q112.2 8.1 112.2 6.4L112.2 6.4Q112.2 4.4 113.1 2.8Q114.0 1.1 115.6 0.2Q117.2-0.8 119.1-0.8L119.1-0.8Q120.9-0.8 122.1 0.0Q123.3 0.8 123.8 2.3L123.8 2.3L124.4-0.7L126.6-0.7L124.1 12L121.9 12L122.3 9.9Q121.4 11.0 120.2 11.5Q119.0 12.1 117.6 12.1L117.6 12.1ZM118.3 10.2Q119.6 10.2 120.7 9.6Q121.8 8.9 122.5 7.7Q123.1 6.5 123.1 5.1L123.1 5.1Q123.1 3.3 122.1 2.3Q121.0 1.2 119.4 1.2L119.4 1.2Q118.0 1.2 116.9 1.9Q115.8 2.6 115.1 3.7Q114.5 4.9 114.5 6.3L114.5 6.3Q114.5 8.1 115.5 9.2Q116.6 10.2 118.3 10.2L118.3 10.2ZM133.3 1.4L131.9 8.2Q131.8 8.6 131.8 9.0L131.8 9.0Q131.8 9.6 132.1 9.8Q132.4 10.0 133.0 10.0L133.0 10.0Q133.9 10.0 135.1 9.4L135.1 9.4L135.5 11.2Q133.9 12.1 132.4 12.1L132.4 12.1Q131.1 12.1 130.3 11.4Q129.6 10.7 129.6 9.4L129.6 9.4Q129.6 8.9 129.7 8.4L129.7 8.4L131.1 1.4L129.3 1.4L129.6-0.3L131.4-0.3L132.1-3.7L134.3-3.7L133.6-0.3L137.5-0.3L137.2 1.4L133.3 1.4Z" fill="foregroundcolor"/></svg>