<svg width="89" height="23" viewBox="6.304 -5.52 89 23" version="1.1" xmlns="http://www.w3.org/2000/svg"><path d="M7.1 12L6.3 12L6.3-5.0L13.3-5.0Q14.4-5.0 15.3-4.6Q16.2-4.1 16.8-3.4Q17.5-2.7 17.8-1.7Q18.2-0.8 18.2 0.2L18.2 0.2Q18.2 1.2 17.9 2.0Q17.6 2.9 17.0 3.6Q16.5 4.3 15.7 4.8Q14.9 5.2 14.0 5.3L14.0 5.3L18.3 12L17.3 12L13.1 5.4L7.1 5.4L7.1 12ZM7.1-4.3L7.1 4.7L13.5 4.7Q14.3 4.7 15.1 4.3Q15.8 3.9 16.3 3.3Q16.8 2.6 17.1 1.8Q17.4 1.0 17.4 0.2L17.4 0.2Q17.4-0.7 17.0-1.5Q16.7-2.3 16.2-2.9Q15.6-3.5 14.9-3.9Q14.1-4.3 13.3-4.3L13.3-4.3L7.1-4.3ZM24.3 12.2L24.3 12.2Q23.4 12.2 22.7 11.9Q21.9 11.6 21.4 11.1Q20.8 10.6 20.5 9.9Q20.2 9.2 20.2 8.4L20.2 8.4Q20.2 7.6 20.6 6.9Q21.0 6.3 21.7 5.8Q22.3 5.3 23.3 5.1Q24.2 4.8 25.4 4.8L25.4 4.8Q26.4 4.8 27.5 5.0Q28.6 5.1 29.4 5.5L29.4 5.5L29.4 4.1Q29.4 2.3 28.3 1.1Q27.3 0.0 25.5 0.0L25.5 0.0Q24.6 0.0 23.5 0.4Q22.5 0.8 21.5 1.6L21.5 1.6L21.1 1.0Q23.5-0.7 25.5-0.7L25.5-0.7Q27.7-0.7 29.0 0.6Q30.2 1.9 30.2 4.2L30.2 4.2L30.2 10.7Q30.2 11.2 30.7 11.2L30.7 11.2L30.7 12Q30.6 12.0 30.5 12.0Q30.5 12.0 30.4 12.0L30.4 12.0Q30.0 12.0 29.7 11.7Q29.5 11.4 29.5 11.0L29.5 11.0L29.5 9.9Q28.6 11.0 27.2 11.6Q25.9 12.2 24.3 12.2ZM24.4 11.5L24.4 11.5Q25.3 11.5 26.2 11.3Q27.1 11.1 27.8 10.6Q28.5 10.2 29.0 9.7Q29.4 9.1 29.4 8.5L29.4 8.5L29.4 6.1Q27.5 5.4 25.4 5.4L25.4 5.4Q24.4 5.4 23.6 5.6Q22.8 5.9 22.2 6.2Q21.6 6.6 21.3 7.2Q21.0 7.7 21.0 8.4L21.0 8.4Q21.0 9.0 21.3 9.6Q21.5 10.2 22.0 10.6Q22.4 11.1 23.0 11.3Q23.7 11.5 24.4 11.5ZM34.1 10.0L34.1-5.5L34.9-5.5L34.9 9.9Q34.9 10.6 35.3 11.0Q35.8 11.4 36.5 11.4L36.5 11.4Q36.7 11.4 37.1 11.3Q37.5 11.3 37.8 11.1L37.8 11.1L38.0 11.8Q37.6 11.9 37.1 12.0Q36.5 12.1 36.2 12.1L36.2 12.1Q35.2 12.1 34.7 11.6Q34.1 11.0 34.1 10.0L34.1 10.0ZM45.1 12.2L45.1 12.2Q43.8 12.2 42.7 11.7Q41.6 11.2 40.8 10.3Q40.0 9.4 39.5 8.2Q39.0 7.0 39.0 5.7L39.0 5.7Q39.0 4.4 39.5 3.2Q40.0 2.1 40.8 1.2Q41.6 0.3 42.7-0.2Q43.7-0.7 45.0-0.7L45.0-0.7Q46.3-0.7 47.4-0.2Q48.5 0.3 49.3 1.2Q50.2 2.1 50.6 3.3Q51.1 4.4 51.1 5.8L51.1 5.8Q51.1 5.8 51.1 6.0Q51.1 6.1 51.1 6.1L51.1 6.1L39.9 6.1Q40.0 7.3 40.4 8.3Q40.9 9.3 41.6 10.0Q42.3 10.7 43.2 11.1Q44.1 11.5 45.2 11.5L45.2 11.5Q45.8 11.5 46.5 11.4Q47.2 11.2 47.7 10.8Q48.3 10.5 48.7 10.0Q49.2 9.6 49.4 9.0L49.4 9.0L50.2 9.2Q49.9 9.9 49.4 10.4Q48.9 11.0 48.2 11.4Q47.5 11.8 46.7 12.0Q46.0 12.2 45.1 12.2ZM39.9 5.4L50.3 5.4Q50.2 4.2 49.8 3.3Q49.3 2.3 48.6 1.6Q47.9 0.8 47.0 0.4Q46.1 0.0 45.0 0.0L45.0 0.0Q44.0 0.0 43.1 0.5Q42.2 0.9 41.5 1.6Q40.8 2.3 40.4 3.3Q40.0 4.3 39.9 5.4L39.9 5.4ZM64.4 11.0L69.4-0.5L70.2-0.5L64.8 12L64.1 12L61.1 5.2L58.2 12L57.5 12L52.1-0.5L52.9-0.5L57.9 11.0L60.7 4.5L58.6-0.5L59.3-0.5L61.1 3.7L62.9-0.5L63.7-0.5L61.6 4.5L64.4 11.0ZM75.4 12.2L75.4 12.2Q74.5 12.2 73.8 11.9Q73.0 11.6 72.5 11.1Q71.9 10.6 71.6 9.9Q71.3 9.2 71.3 8.4L71.3 8.4Q71.3 7.6 71.7 6.9Q72.1 6.3 72.8 5.8Q73.5 5.3 74.4 5.1Q75.4 4.8 76.5 4.8L76.5 4.8Q77.5 4.8 78.6 5.0Q79.7 5.1 80.5 5.5L80.5 5.5L80.5 4.1Q80.5 2.3 79.5 1.1Q78.4 0.0 76.6 0.0L76.6 0.0Q75.7 0.0 74.7 0.4Q73.6 0.8 72.6 1.6L72.6 1.6L72.2 1.0Q74.6-0.7 76.6-0.7L76.6-0.7Q78.8-0.7 80.1 0.6Q81.4 1.9 81.4 4.2L81.4 4.2L81.4 10.7Q81.4 11.2 81.8 11.2L81.8 11.2L81.8 12Q81.7 12.0 81.7 12.0Q81.6 12.0 81.5 12.0L81.5 12.0Q81.1 12.0 80.9 11.7Q80.6 11.4 80.6 11.0L80.6 11.0L80.6 9.9Q79.7 11.0 78.4 11.6Q77.0 12.2 75.4 12.2ZM75.5 11.5L75.5 11.5Q76.4 11.5 77.3 11.3Q78.2 11.1 78.9 10.6Q79.6 10.2 80.1 9.7Q80.5 9.1 80.5 8.5L80.5 8.5L80.5 6.1Q78.7 5.4 76.6 5.4L76.6 5.4Q75.6 5.4 74.8 5.6Q73.9 5.9 73.3 6.2Q72.8 6.6 72.4 7.2Q72.1 7.7 72.1 8.4L72.1 8.4Q72.1 9.0 72.4 9.6Q72.6 10.2 73.1 10.6Q73.6 11.1 74.2 11.3Q74.8 11.5 75.5 11.5ZM85.7 17.3L85.7 16.6Q86.6 16.6 86.9 16.4L86.9 16.4Q87.0 16.3 87.1 16.1Q87.3 16.0 87.5 15.5Q87.7 15.0 88.0 14.2Q88.4 13.4 89.0 12L89.0 12L83.3-0.5L84.2-0.5L89.4 11.1L94.4-0.5L95.2-0.5L88.0 16.2Q87.7 17.0 86.7 17.3L86.7 17.3Q86.5 17.3 86.2 17.3Q86.0 17.3 85.7 17.3L85.7 17.3Z" fill="foregroundcolor"/></svg>