<svg width="117" height="18" viewBox="4.3515625 -5.484375 117 18" version="1.1" xmlns="http://www.w3.org/2000/svg"><path d="M6.3 11.1L6.3 11.1Q6.1 10.2 6.0 9.3Q5.9 8.3 5.8 7.4Q5.7 6.4 5.6 5.5L5.6 5.5Q5.5 4.5 5.4 3.7L5.4 3.7Q5.3 3.3 5.1 2.7Q4.9 2.1 4.8 1.5Q4.6 0.8 4.5 0.1Q4.4-0.6 4.4-1.1L4.4-1.1Q4.6-1.5 4.9-1.3Q5.2-1.0 5.5-0.4Q5.8 0.3 6.0 1.3Q6.3 2.3 6.5 3.4Q6.7 4.5 6.9 5.7Q7.1 6.9 7.3 7.9Q7.4 9 7.5 9.8Q7.6 10.6 7.6 11.1L7.6 11.1Q7.6 11.2 7.6 11.3Q7.6 11.5 7.6 11.6Q7.6 11.7 7.5 11.8Q7.4 12.0 7.1 12L7.1 12Q7 12.0 6.9 11.9Q6.7 11.8 6.6 11.6Q6.4 11.5 6.4 11.3Q6.3 11.2 6.3 11.1ZM8.7 2.9L8.7 2.9Q8.7 2.6 8.9 2.6Q9.0 2.5 9.2 2.5L9.2 2.5Q9.3 2.5 9.4 2.6Q9.5 2.7 9.5 2.8Q9.5 2.9 9.6 2.9Q9.6 3.0 9.7 3.0L9.7 3.0Q10.0 3.0 10.5 2.8Q11.0 2.5 11.5 2.2Q12.1 1.9 12.7 1.6Q13.3 1.4 13.9 1.4L13.9 1.4Q14.7 1.4 15.4 1.8Q16.1 2.2 16.6 2.9Q17.1 3.6 17.5 4.4Q17.9 5.3 18.1 6.1Q18.4 7.0 18.5 7.8Q18.6 8.7 18.6 9.3L18.6 9.3Q18.6 9.5 18.6 9.9Q18.6 10.3 18.5 10.8Q18.4 11.2 18.2 11.5Q18.0 11.8 17.7 11.8L17.7 11.8Q17.7 11.8 17.6 11.8Q17.5 11.8 17.3 11.8Q17.2 11.7 17.1 11.7Q17.1 11.6 17.1 11.5L17.1 11.5Q17.3 9.7 17.1 8.1Q16.8 6.6 16.4 5.4Q15.9 4.2 15.2 3.5Q14.5 2.8 13.8 2.8L13.8 2.8Q13.0 2.8 12.4 3Q11.8 3.2 11.3 3.7Q10.8 4.1 10.6 4.8Q10.3 5.4 10.3 6.1Q10.3 6.9 10.4 7.6Q10.6 8.4 10.8 9.1Q10.9 9.8 11.1 10.6Q11.2 11.3 11.2 12.1L11.2 12.1Q10.6 12.1 10.1 11.6Q9.7 11.0 9.4 10.2Q9.1 9.3 9.0 8.3Q8.8 7.2 8.8 6.2Q8.7 5.2 8.7 4.3Q8.7 3.4 8.7 2.9ZM19.5 6.7L19.5 6.7Q19.5 5.8 19.7 4.9Q20.0 3.9 20.4 3.1Q20.9 2.3 21.7 1.7Q22.4 1.2 23.5 1.2L23.5 1.2Q24.0 1.2 24.6 1.4Q25.2 1.5 25.8 1.8Q26.4 2.1 27.0 2.5Q27.6 3.0 28.4 3.4L28.4 3.4Q28.5 2.5 28.3 1.5Q28.1 0.5 27.9-0.4Q27.6-1.4 27.4-2.3Q27.1-3.1 27.0-3.8Q26.9-4.5 26.9-4.9Q27.0-5.4 27.5-5.5L27.5-5.5Q28.1-5.0 28.6-4.2Q29.1-3.3 29.4-2.2Q29.7-1.1 29.9 0.2Q30.1 1.5 30.3 2.8Q30.4 4.1 30.5 5.4Q30.6 6.6 30.7 7.7Q30.8 8.7 30.8 9.4Q30.9 10.2 31.1 10.5L31.1 10.5Q31.1 10.9 30.8 10.9Q30.6 11.0 30.3 11.0L30.3 11.0Q30.0 11.0 29.9 10.9Q29.7 10.7 29.6 10.5Q29.5 10.2 29.4 9.9Q29.4 9.6 29.3 9.4Q29.2 9.1 29.1 9.0Q28.9 8.8 28.8 8.8L28.8 8.8Q28.7 8.8 28.6 8.8Q28.5 8.8 28.5 8.9L28.5 8.9Q28.1 9.5 27.5 10.0Q26.9 10.6 26.2 11.1Q25.5 11.5 24.7 11.7Q23.9 12 23.1 12L23.1 12Q22.2 12 21.5 11.4Q20.9 10.8 20.4 10.0Q20.0 9.2 19.7 8.3Q19.5 7.4 19.5 6.7ZM21.0 7.1L21.0 7.1Q21.2 7.9 21.4 8.6Q21.6 9.2 21.8 9.6Q22.1 10.0 22.5 10.2Q22.9 10.4 23.5 10.4L23.5 10.4Q24.2 10.4 25.1 10.0Q25.9 9.5 26.6 8.9Q27.4 8.2 27.8 7.4Q28.3 6.6 28.3 5.8L28.3 5.8Q28.3 5.7 28.3 5.5Q28.3 5.3 28.3 5.3L28.3 5.3Q27.1 4.0 26.0 3.5Q25.0 3.0 24.2 3.0Q23.3 3.0 22.7 3.3Q22.1 3.7 21.7 4.3Q21.3 4.9 21.1 5.7Q20.9 6.4 21.0 7.1ZM33.1 3.9L33.1 3.9Q33.1 3.8 33.1 3.5Q33.1 3.3 33.1 3Q33.2 2.7 33.2 2.5Q33.2 2.2 33.2 2.1L33.2 2.1Q33.1 1.4 33.6 1.4L33.6 1.4Q33.8 1.4 34.0 1.5Q34.1 1.6 34.3 1.9L34.3 1.9Q34.2 3.1 34.4 4.2Q34.6 5.3 34.8 6.5Q35.0 7.6 35.2 8.7Q35.4 9.8 35.4 11.0L35.4 11.0Q35.4 11.4 35.2 11.7Q35.0 12.0 34.6 12.0L34.6 12.0Q34.3 12.0 34.1 11.5Q33.9 11.0 33.7 10.2Q33.5 9.4 33.4 8.4Q33.3 7.4 33.2 6.5Q33.2 5.6 33.2 4.9Q33.1 4.1 33.1 3.9ZM31.9-2.0L31.9-2.0Q31.9-2.3 32.1-2.4Q32.3-2.4 32.5-2.4L32.5-2.4Q32.7-2.5 33.0-2.2Q33.2-2.0 33.4-1.7Q33.6-1.5 33.6-1.2L33.6-1.2Q33.6-0.9 33.3-0.9L33.3-0.9L33.1-0.9Q32.8-0.9 32.5-0.9Q32.3-1.0 32.2-1.1Q32.1-1.2 32.0-1.4Q31.9-1.6 31.9-2.0ZM36.3 5.7L36.3 5.7Q36.3 4.5 36.7 3.4Q37.0 2.3 37.7 1.4Q38.4 0.6 39.4 0.1Q40.4-0.4 41.7-0.4L41.7-0.4Q42.5-0.3 43.1 0Q43.6 0.3 44.0 0.8Q44.4 1.3 44.5 1.9L44.5 1.9Q44.7 2.5 44.7 3.2L44.7 3.2Q44.7 4.1 44.2 4.8Q43.7 5.4 42.9 5.9Q42.2 6.4 41.3 6.6Q40.4 6.8 39.7 6.8L39.7 6.8Q39.4 6.8 39.1 6.8Q38.8 6.8 38.6 6.8Q38.4 6.7 38.2 6.5Q38.1 6.3 38.1 5.9L38.1 5.9Q38.1 5.8 38.1 5.7Q38.1 5.6 38.3 5.6Q38.5 5.6 38.8 5.6L38.8 5.6Q39.1 5.6 39.7 5.7L39.7 5.7Q40.0 5.7 40.6 5.5Q41.3 5.3 41.9 4.9Q42.6 4.6 43.0 4.1Q43.5 3.7 43.5 3.2L43.5 3.2Q43.5 2.7 43.3 2.3Q43.2 1.8 42.9 1.5Q42.6 1.1 42.2 0.9Q41.8 0.7 41.2 0.8L41.2 0.8Q40.4 0.8 39.8 1.2Q39.1 1.6 38.6 2.2Q38.1 2.8 37.9 3.5Q37.6 4.2 37.6 5.0L37.6 5.0Q37.6 5.6 37.7 6.2Q37.7 6.8 37.8 7.4Q38.0 8.0 38.3 8.6Q38.7 9.1 39.3 9.5Q40.0 9.9 40.9 10.2Q41.9 10.5 43.4 10.5L43.4 10.5L47.6 10.2Q47.2 10.8 46.6 11.1Q46.0 11.4 45.4 11.6Q44.8 11.8 44.1 11.9Q43.5 12 42.9 12L42.9 12Q41.6 12 40.4 11.6Q39.2 11.1 38.3 10.3Q37.4 9.5 36.8 8.3Q36.3 7.2 36.3 5.7ZM61.8 11.6L61.8 11.6Q61.6 10.9 61.6 10.5Q61.5 10.1 61.5 9.7Q61.4 9.4 61.4 9.1Q61.4 8.8 61.4 8.5Q61.4 8.2 61.4 7.7Q61.3 7.3 61.2 6.7L61.2 6.7Q61.1 6.2 60.9 6.0Q60.6 5.9 60.3 5.8Q59.9 5.8 59.6 5.9Q59.2 6.0 58.9 6.0Q58.6 6.0 58.4 5.8L58.4 5.8Q58.2 5.6 58.2 5.2L58.2 5.2Q58.2 5.2 58.3 5.1Q58.4 5.0 58.4 5.0L58.4 5.0Q58.9 4.9 59.3 4.9Q59.7 4.9 60.0 4.8Q60.3 4.7 60.5 4.4L60.5 4.4Q60.7 4.1 60.7 3.5L60.7 3.5Q60.5 2.4 60.5 1.5Q60.6 0.7 60.5 0.2Q60.4-0.4 60.1-0.6L60.1-0.6Q59.7-0.8 58.9-0.7L58.9-0.7Q58.8-0.7 58.6-0.7Q58.3-0.7 58.1-0.6Q57.8-0.6 57.6-0.6Q57.4-0.6 57.3-0.6L57.3-0.6Q57.3-0.6 57.1-0.5Q56.9-0.4 56.9-0.4L56.9-0.4Q56.8-0.4 56.8-0.4L56.8-0.4Q56.7-0.4 56.7-0.4L56.7-0.4L56.7-0.4L56.6-0.4Q56.6-0.5 56.5-0.6Q56.4-0.8 56.4-0.9L56.4-0.9L56.4-1.0Q56.7-1.3 57.6-1.6Q58.4-1.8 59.5-2.0Q60.6-2.2 62.0-2.3Q63.3-2.4 64.6-2.4Q66.0-2.4 67.3-2.2Q68.6-2.0 69.6-1.7Q70.6-1.4 71.2-0.9L71.2-0.9Q71.9-0.3 72.0 0.4L72.0 0.4Q71.2 0.4 70.5 0.2Q69.8 0 69.1-0.2Q68.3-0.5 67.6-0.7Q66.9-0.8 66.1-0.8L66.1-0.8Q65.9-0.8 65.5-0.9Q65.1-0.9 64.7-0.9Q64.2-0.9 63.7-0.9Q63.2-0.8 62.8-0.7Q62.4-0.6 62.1-0.4Q61.9-0.2 61.9 0.1L61.9 0.1Q61.9 0.5 61.8 1.1Q61.8 1.7 61.8 2.3Q61.8 3.0 62.0 3.5Q62.1 4.1 62.5 4.4L62.5 4.4Q62.5 4.4 62.6 4.4Q62.8 4.4 62.9 4.4Q63.0 4.4 63.2 4.4Q63.3 4.4 63.4 4.4L63.4 4.4Q65.1 4.2 66.2 4.3Q67.3 4.4 67.8 4.6Q68.2 4.8 68.1 5.1Q68.0 5.3 67.3 5.6Q66.6 5.8 65.5 5.9Q64.3 6.1 62.6 6.0L62.6 6.0Q62.6 7.1 62.7 7.7Q62.7 8.3 62.8 8.6Q62.9 9.0 62.9 9.2Q62.9 9.4 63.0 9.6Q63.1 9.9 63.1 10.4Q63.2 10.8 63.2 11.7L63.2 11.7Q62.9 11.7 62.6 11.7Q62.3 11.6 62.1 11.6Q61.9 11.6 61.8 11.6Q61.7 11.6 61.8 11.6ZM70.5 11.8L70.5 11.8Q70.3 10.1 70.2 8.5Q70.2 6.8 70.2 5.2Q70.2 3.5 70.2 1.9Q70.3 0.2 70.3-1.4L70.3-1.4Q70.3-1.6 70.4-1.7Q70.5-1.7 70.7-1.7L70.7-1.7Q70.9-1.7 71.1-1.6Q71.3-1.4 71.4-1.2Q71.5-1.0 71.6-0.8Q71.6-0.5 71.6-0.4L71.6-0.4Q71.8 3.0 71.8 5.2Q71.9 7.4 71.8 8.8Q71.8 10.2 71.7 10.8Q71.5 11.5 71.4 11.7Q71.2 12.0 71.0 11.9Q70.8 11.9 70.5 11.8ZM72.9 7.2L72.9 7.2Q72.9 5.9 73.5 5.0Q74.0 4.0 74.9 3.4Q75.9 2.7 77.0 2.4Q78.1 2.1 79.3 2.1L79.3 2.1Q79.9 2.1 80.4 2.3Q80.9 2.5 81.4 2.9Q81.9 3.3 82.3 3.8Q82.7 4.3 82.9 4.8Q83.2 5.4 83.3 5.9Q83.5 6.5 83.5 7.0L83.5 7.0Q83.5 8.2 83.0 9.1Q82.5 10.1 81.7 10.7Q80.9 11.3 79.9 11.7Q78.9 12.0 77.9 12.0L77.9 12.0Q76.8 12.0 75.9 11.7Q75.0 11.3 74.3 10.7Q73.7 10.1 73.3 9.2Q72.9 8.3 72.9 7.2ZM74.1 7.0L74.1 7.0Q74.1 7.8 74.3 8.4Q74.6 9.1 75.1 9.6Q75.6 10.1 76.2 10.4Q76.9 10.7 77.6 10.7L77.6 10.7Q78.0 10.7 78.6 10.5Q79.2 10.4 79.7 10.0Q80.3 9.7 80.8 9.2Q81.4 8.7 81.7 8.1Q82.1 7.6 82.2 6.9Q82.2 6.3 81.9 5.7Q81.6 5.1 80.9 4.5Q80.1 3.9 78.7 3.4L78.7 3.4Q78.0 3.4 77.1 3.7Q76.3 3.9 75.6 4.3Q74.9 4.8 74.5 5.5Q74.1 6.1 74.1 7.0ZM92.3 9.8L92.3 9.8Q91.3 11.0 90.4 11.5Q89.4 12.0 88.6 12.0Q87.7 11.9 87.0 11.3Q86.2 10.8 85.6 9.9Q85.1 9.1 84.8 8.0Q84.4 7.0 84.4 5.9Q84.4 4.8 84.7 3.7Q85 2.7 85.8 1.9L85.8 1.9Q86.1 2.0 86.2 2.2L86.2 2.2Q86.2 2.5 86.2 2.8L86.2 2.8Q86.2 3.2 86.1 3.5Q86.1 3.9 86.0 4.3Q85.9 4.6 85.8 5.0Q85.7 5.4 85.7 5.9L85.7 5.9Q85.7 6.2 85.8 6.6Q85.8 7.1 86.0 7.6Q86.1 8.1 86.3 8.6Q86.5 9.1 86.8 9.5Q87.1 9.9 87.5 10.2Q87.8 10.5 88.3 10.5L88.3 10.5Q88.7 10.5 89.2 10.2Q89.8 10.0 90.3 9.6Q90.8 9.2 91.1 8.8Q91.4 8.3 91.4 7.8L91.4 7.8L91.6 4.8Q91.6 4.7 91.7 4.6Q91.8 4.6 91.9 4.5Q92.0 4.5 92.1 4.4Q92.2 4.4 92.3 4.4L92.3 4.4Q92.6 4.4 92.7 4.8Q92.8 5.2 92.9 5.9Q93.0 6.5 93.1 7.3Q93.2 8.0 93.4 8.7Q93.6 9.4 94.1 9.8L94.1 9.8Q94.6 10.2 95.5 10.2L95.5 10.2Q96.4 10.2 96.9 9.9Q97.4 9.5 97.6 9.0Q97.9 8.4 97.9 7.7Q97.8 7.0 97.7 6.3Q97.5 5.6 97.2 5.0Q96.9 4.4 96.6 3.9L96.6 3.9Q96.5 3.7 96.6 3.6Q96.6 3.5 96.7 3.5Q96.8 3.5 96.9 3.5Q97 3.4 97.1 3.4L97.1 3.4Q97.4 3.5 97.9 4.1Q98.3 4.6 98.6 5.3Q99.0 6.0 99.1 6.9Q99.3 7.8 99.2 8.7Q99.2 9.6 98.7 10.3Q98.3 11.1 97.4 11.5L97.4 11.5Q96.4 11.6 95.8 11.6Q95.1 11.6 94.7 11.6Q94.2 11.5 94.0 11.4Q93.7 11.2 93.5 11.0Q93.3 10.8 93.0 10.5Q92.7 10.2 92.3 9.8ZM100.4 5.7L100.4 5.7Q100.4 4.5 100.7 3.4Q101.1 2.3 101.8 1.4Q102.5 0.6 103.5 0.1Q104.5-0.4 105.8-0.4L105.8-0.4Q106.5-0.3 107.1 0Q107.7 0.3 108.1 0.8Q108.4 1.3 108.6 1.9L108.6 1.9Q108.7 2.5 108.7 3.2L108.7 3.2Q108.7 4.1 108.2 4.8Q107.7 5.4 107.0 5.9Q106.2 6.4 105.4 6.6Q104.5 6.8 103.8 6.8L103.8 6.8Q103.5 6.8 103.2 6.8Q102.9 6.8 102.6 6.8Q102.4 6.7 102.3 6.5Q102.1 6.3 102.1 5.9L102.1 5.9Q102.1 5.8 102.2 5.7Q102.2 5.6 102.4 5.6Q102.5 5.6 102.9 5.6L102.9 5.6Q103.2 5.6 103.8 5.7L103.8 5.7Q104.1 5.7 104.7 5.5Q105.3 5.3 106.0 4.9Q106.6 4.6 107.1 4.1Q107.5 3.7 107.5 3.2L107.5 3.2Q107.5 2.7 107.4 2.3Q107.2 1.8 106.9 1.5Q106.6 1.1 106.2 0.9Q105.8 0.7 105.3 0.8L105.3 0.8Q104.5 0.8 103.8 1.2Q103.1 1.6 102.7 2.2Q102.2 2.8 101.9 3.5Q101.7 4.2 101.7 5.0L101.7 5.0Q101.7 5.6 101.7 6.2Q101.7 6.8 101.9 7.4Q102.0 8.0 102.4 8.6Q102.7 9.1 103.4 9.5Q104.0 9.9 105.0 10.2Q106.0 10.5 107.4 10.5L107.4 10.5L111.6 10.2Q111.3 10.8 110.7 11.1Q110.1 11.4 109.5 11.6Q108.8 11.8 108.2 11.9Q107.5 12 107.0 12L107.0 12Q105.6 12 104.4 11.6Q103.2 11.1 102.3 10.3Q101.4 9.5 100.9 8.3Q100.4 7.2 100.4 5.7ZM114.9 12L114.9 12Q114.3 11.1 114.0 10.0Q113.6 8.9 113.3 7.7Q113.1 6.6 112.9 5.5Q112.8 4.5 112.7 3.6L112.7 3.6Q112.7 3.4 112.7 3.2Q112.7 3.0 112.7 2.8Q112.7 2.6 112.8 2.4Q112.8 2.3 113.0 2.1L113.0 2.1L113.0 2.1Q113.0 2.1 113.0 2.1Q113.0 2.1 113.1 2.1L113.1 2.1Q113.1 2.1 113.1 2.1Q113.1 2.1 113.1 2.1L113.1 2.1L113.2 2.1Q113.2 2.1 113.4 2.2Q113.6 2.3 113.6 2.3L113.6 2.3Q114.1 2.2 114.5 2.0Q115.0 1.8 115.4 1.6Q115.9 1.4 116.3 1.3Q116.8 1.2 117.3 1.2L117.3 1.2Q117.6 1.2 117.8 1.2Q118.1 1.2 118.3 1.3Q118.6 1.4 118.8 1.4Q119.1 1.5 119.5 1.6L119.5 1.6Q119.7 1.8 119.8 1.9Q120.0 2.0 120.1 2.2Q120.3 2.4 120.3 2.6Q120.4 2.8 120.4 3.2L120.4 3.2Q120.0 3.3 119.5 3.2Q119.0 3.0 118.5 2.9Q117.9 2.7 117.3 2.6Q116.7 2.5 116.2 2.5Q115.7 2.5 115.2 2.8L115.2 2.8Q114.7 3.0 114.3 3.7L114.3 3.7Q114.2 4.3 114.2 5.0Q114.2 5.6 114.3 6.3Q114.5 6.9 114.7 7.5Q114.9 8.1 115.1 8.8Q115.3 9.4 115.5 10.0Q115.7 10.6 115.7 11.2L115.7 11.2Q115.7 11.5 115.4 11.7Q115.2 12 114.9 12Z" fill="foregroundcolor"/></svg>