<svg width="130" height="19" viewBox="4.15234375 -6.328125 130 19" version="1.1" xmlns="http://www.w3.org/2000/svg"><path d="M16.9 6.1L19.5-4.9L23.1-4.9L19.2 12L15.5 12L10.5 1.0L10.3 1.0L7.8 12L4.2 12L8.1-4.9L11.6-4.9L16.7 6.1L16.9 6.1ZM28.4 12.3Q25.8 12.3 24.4 11.1Q23.0 9.8 23.0 7.6L23.0 7.6Q23.0 6.6 23.2 5.6L23.2 5.6Q23.7 3.6 24.8 2.0Q25.9 0.5 27.4-0.3Q28.9-1.2 30.7-1.2L30.7-1.2Q33.1-1.1 34.3 0.1Q35.5 1.2 35.5 3.3L35.5 3.3Q35.5 4.1 35.4 4.9L35.4 4.9Q35.2 5.7 34.9 6.7L34.9 6.7L26.4 6.7Q26.3 7.1 26.3 7.4L26.3 7.4Q26.3 8.4 26.9 8.9Q27.6 9.4 28.8 9.4L28.8 9.4Q29.9 9.4 31.1 9.1Q32.4 8.9 33.4 8.4L33.4 8.4L33.4 11.0Q32.0 11.7 30.8 12Q29.7 12.3 28.4 12.3L28.4 12.3ZM32.2 4.4Q32.3 4.0 32.3 3.6L32.3 3.6Q32.3 2.7 31.8 2.3Q31.3 1.8 30.4 1.8L30.4 1.8Q29.6 1.8 28.8 2.1Q28.1 2.5 27.6 3.1Q27.1 3.6 26.9 4.4L26.9 4.4L32.2 4.4ZM43.0 6.7L47.8-0.9L51.8-0.9L42.9 12.2L40.8 12.2L37.5-0.9L41.2-0.9L42.8 6.7L43.0 6.7ZM56.0 12.3Q53.4 12.3 52.1 11.1Q50.7 9.8 50.7 7.6L50.7 7.6Q50.7 6.6 50.9 5.6L50.9 5.6Q51.4 3.6 52.5 2.0Q53.5 0.5 55.1-0.3Q56.6-1.2 58.4-1.2L58.4-1.2Q60.7-1.1 62.0 0.1Q63.2 1.2 63.2 3.3L63.2 3.3Q63.2 4.1 63.0 4.9L63.0 4.9Q62.9 5.7 62.6 6.7L62.6 6.7L54.1 6.7Q54.0 7.1 54.0 7.4L54.0 7.4Q54.0 8.4 54.6 8.9Q55.2 9.4 56.5 9.4L56.5 9.4Q57.5 9.4 58.8 9.1Q60.1 8.9 61.1 8.4L61.1 8.4L61.0 11.0Q59.7 11.7 58.5 12Q57.3 12.3 56.0 12.3L56.0 12.3ZM59.8 4.4Q59.9 4.0 59.9 3.6L59.9 3.6Q59.9 2.7 59.4 2.3Q59.0 1.8 58.0 1.8L58.0 1.8Q57.2 1.8 56.5 2.1Q55.8 2.5 55.3 3.1Q54.7 3.6 54.6 4.4L54.6 4.4L59.8 4.4ZM70.1 1.1Q70.9 0.0 72.0-0.6Q73.1-1.1 74.4-1.2L74.4-1.2L73.7 1.8Q71.9 1.8 70.9 2.5Q69.9 3.1 69.4 4.2Q69.0 5.2 68.6 7.0L68.6 7.0L67.4 12L64.0 12L67.0-0.9L70.4-0.9L69.9 1.1L70.1 1.1ZM84.9 2.0L92.2-4.9L96.1-4.9L92.2 12L88.5 12L91.3 0.2L91.1 0.2L84.3 6.7L84.1 6.7L80.3 0.2L80.2 0.2L77.5 12L73.8 12L77.7-4.9L80.9-4.9L84.9 2.0ZM98.9-2.9L99.7-6.3L103.2-6.3L102.4-2.9L98.9-2.9ZM95.5 12L98.5-0.9L101.9-0.9L98.9 12L95.5 12ZM112.3-1.2Q114.2-1.2 115.3-0.2Q116.4 0.7 116.4 2.5L116.4 2.5Q116.4 3.3 116.2 4.1L116.2 4.1L114.3 12L110.8 12L112.5 4.7Q112.7 3.9 112.7 3.4L112.7 3.4Q112.7 2.6 112.2 2.2Q111.7 1.7 110.7 1.7L110.7 1.7Q109.6 1.7 108.7 2.5Q107.9 3.2 107.5 4.5L107.5 4.5L105.8 12L102.2 12L105.2-0.9L108.7-0.9L108.3 0.9L108.4 0.9Q109.1-0.1 110.1-0.6Q111.1-1.2 112.3-1.2L112.3-1.2ZM107.4 5.0L107.4 4.9L107.4 5.0ZM130.5-5.9L133.9-5.9L129.8 12L126.4 12L126.8 10.4L126.6 10.4Q125.8 11.3 124.8 11.8Q123.7 12.3 122.4 12.3L122.4 12.3Q121.1 12.3 120.1 11.7Q119.1 11.2 118.5 10.1Q118.0 9.1 118.0 7.7L118.0 7.7Q118.0 6.8 118.2 5.8L118.2 5.8Q118.7 3.7 119.8 2.1Q120.9 0.6 122.4-0.3Q123.9-1.2 125.6-1.2L125.6-1.2Q126.8-1.2 127.6-0.7Q128.5-0.2 128.9 0.6L128.9 0.6L129.0 0.6L130.5-5.9ZM121.7 5.8Q121.5 6.4 121.5 7.0L121.5 7.0Q121.5 7.8 121.8 8.5Q122.1 9.1 122.6 9.4Q123.1 9.8 123.7 9.8L123.7 9.8Q124.8 9.8 125.6 9.3Q126.5 8.8 127.0 8.0Q127.5 7.3 127.6 6.6L127.6 6.6L127.6 6.6L128.1 4.7Q128.2 4.3 128.2 3.9L128.2 3.9Q128.2 3.2 127.9 2.7Q127.6 2.1 127 1.8Q126.4 1.5 125.7 1.5L125.7 1.5Q124.9 1.5 124.1 2.1Q123.2 2.6 122.6 3.6Q121.9 4.5 121.7 5.8L121.7 5.8Z" fill="foregroundcolor"/></svg>