<svg width="72" height="18" viewBox="5.824 -5.304000000000002 72 18" version="1.1" xmlns="http://www.w3.org/2000/svg"><path d="M18.6-5.0Q19.3-5.0 19.7-4.6Q20.1-4.2 20.1-3.5L20.1-3.5L20.1 10.6Q20.1 11.3 19.7 11.7Q19.3 12.1 18.6 12.1L18.6 12.1Q17.9 12.1 17.5 11.6L17.5 11.6L8.7 0.2L8.7 10.6Q8.7 11.3 8.3 11.7Q7.9 12.1 7.3 12.1L7.3 12.1Q6.6 12.1 6.2 11.7Q5.8 11.3 5.8 10.6L5.8 10.6L5.8-3.5Q5.8-4.2 6.2-4.6Q6.6-5.0 7.3-5.0L7.3-5.0Q8.1-5.0 8.5-4.5L8.5-4.5L17.2 6.9L17.2-3.5Q17.2-4.2 17.6-4.6Q18.0-5.0 18.6-5.0L18.6-5.0ZM32.8 0.0Q33.4 0.0 33.9 0.4Q34.3 0.8 34.3 1.4L34.3 1.4L34.3 10.8Q34.3 11.4 33.8 11.8Q33.4 12.1 32.8 12.1L32.8 12.1Q32.1 12.1 31.7 11.8Q31.3 11.4 31.3 10.8L31.3 10.8L31.3 10.2Q30.8 11.2 29.8 11.7Q28.9 12.2 27.7 12.2L27.7 12.2Q23.4 12.2 23.4 7.3L23.4 7.3L23.4 1.4Q23.4 0.8 23.8 0.4Q24.2 0.0 24.9 0.0L24.9 0.0Q25.6 0.0 26.0 0.4Q26.4 0.8 26.4 1.4L26.4 1.4L26.4 7.4Q26.4 8.6 26.9 9.2Q27.4 9.8 28.5 9.8L28.5 9.8Q29.8 9.8 30.5 9.0Q31.3 8.2 31.3 6.8L31.3 6.8L31.3 1.4Q31.3 0.8 31.7 0.4Q32.1 0.0 32.8 0.0L32.8 0.0ZM44.2-0.0Q46.3-0.0 47.3 1.2Q48.4 2.4 48.4 4.8L48.4 4.8L48.4 10.7Q48.4 11.4 48.0 11.8Q47.6 12.1 46.9 12.1L46.9 12.1Q46.2 12.1 45.8 11.8Q45.4 11.4 45.4 10.7L45.4 10.7L45.4 5.0Q45.4 3.6 44.9 3.0Q44.3 2.4 43.2 2.4L43.2 2.4Q41.9 2.4 41.2 3.2Q40.4 4.0 40.4 5.4L40.4 5.4L40.4 10.7Q40.4 11.4 40.0 11.8Q39.6 12.1 38.9 12.1L38.9 12.1Q38.2 12.1 37.8 11.8Q37.4 11.4 37.4 10.7L37.4 10.7L37.4 1.4Q37.4 0.8 37.8 0.4Q38.2 0.0 38.9 0.0L38.9 0.0Q39.5 0.0 39.9 0.4Q40.3 0.8 40.3 1.4L40.3 1.4L40.3 2.0Q40.9 1.0 41.9 0.5Q42.9-0.0 44.2-0.0L44.2-0.0ZM52.9 12.1Q52.3 12.1 51.8 11.8Q51.4 11.4 51.4 10.7L51.4 10.7L51.4 1.4Q51.4 0.7 51.8 0.4Q52.3 0.0 52.9 0.0L52.9 0.0Q53.6 0.0 54.0 0.4Q54.4 0.7 54.4 1.4L54.4 1.4L54.4 10.7Q54.4 11.4 54.0 11.8Q53.6 12.1 52.9 12.1L52.9 12.1ZM52.9-2.1Q52.1-2.1 51.6-2.6Q51.1-3 51.1-3.7L51.1-3.7Q51.1-4.4 51.6-4.9Q52.1-5.3 52.9-5.3L52.9-5.3Q53.7-5.3 54.2-4.9Q54.7-4.4 54.7-3.7L54.7-3.7Q54.7-3 54.2-2.6Q53.7-2.1 52.9-2.1L52.9-2.1ZM63.6 9.9Q64.8 10.0 64.8 11.0L64.8 11.0Q64.8 11.6 64.3 11.9Q63.9 12.2 63.0 12.1L63.0 12.1L62.4 12.1Q58.3 11.8 58.3 7.8L58.3 7.8L58.3 2.5L57.1 2.5Q56.5 2.5 56.1 2.2Q55.8 1.9 55.8 1.4L55.8 1.4Q55.8 0.8 56.1 0.6Q56.5 0.3 57.1 0.3L57.1 0.3L58.3 0.3L58.3-1.9Q58.3-2.6 58.7-3.0Q59.2-3.4 59.8-3.4L59.8-3.4Q60.5-3.4 60.9-3.0Q61.3-2.6 61.3-1.9L61.3-1.9L61.3 0.3L63.4 0.3Q64.0 0.3 64.4 0.6Q64.7 0.8 64.7 1.4L64.7 1.4Q64.7 1.9 64.4 2.2Q64.0 2.5 63.4 2.5L63.4 2.5L61.3 2.5L61.3 8.0Q61.3 9.7 63.0 9.9L63.0 9.9L63.6 9.9ZM71.7 12.2Q69.9 12.2 68.6 11.4Q67.2 10.7 66.5 9.3Q65.7 7.9 65.7 6.1L65.7 6.1Q65.7 4.2 66.5 2.8Q67.2 1.5 68.6 0.7Q69.9-0.0 71.7-0.0L71.7-0.0Q73.5-0.0 74.9 0.7Q76.2 1.5 77.0 2.8Q77.7 4.2 77.7 6.1L77.7 6.1Q77.7 7.9 77.0 9.3Q76.2 10.7 74.9 11.4Q73.5 12.2 71.7 12.2L71.7 12.2ZM71.7 9.9Q73.2 9.9 73.9 8.9Q74.7 7.9 74.7 6.1L74.7 6.1Q74.7 4.2 73.9 3.3Q73.2 2.3 71.7 2.3L71.7 2.3Q70.3 2.3 69.5 3.3Q68.7 4.2 68.7 6.1L68.7 6.1Q68.7 7.9 69.5 8.9Q70.3 9.9 71.7 9.9L71.7 9.9Z" fill="foregroundcolor"/></svg>