<svg width="114" height="24" viewBox="5.58203125 -5.40234375 114 24" version="1.1" xmlns="http://www.w3.org/2000/svg"><path d="M20.7 1.2L20.7 1.2Q20.7 4.5 19.5 7.0Q18.4 9.6 16.5 10.9Q14.5 12.2 11.9 12.2L11.9 12.2Q8.9 12.2 7.2 10.5Q5.6 8.7 5.6 5.6L5.6 5.6Q5.6 2.5 6.7-0.1Q7.9-2.7 9.9-4.0Q11.9-5.4 14.4-5.4L14.4-5.4Q17.4-5.4 19.0-3.7Q20.7-1.9 20.7 1.2ZM14.2-3L14.2-3Q12.6-3 11.3-1.9Q10.0-0.8 9.2 1.2Q8.5 3.2 8.5 5.6L8.5 5.6Q8.5 7.6 9.4 8.7Q10.4 9.8 12.1 9.8L12.1 9.8Q13.7 9.8 15.0 8.7Q16.3 7.6 17.0 5.6Q17.8 3.6 17.8 1.2L17.8 1.2Q17.8-0.8 16.8-1.9Q15.9-3 14.2-3ZM28.2 12.2L28.2 12.2Q26.1 12.2 25.0 10.2L25.0 10.2L24.9 10.2Q24.8 11.3 24.6 12.3L24.6 12.3L23.5 17.8L20.8 17.8L24.7-1.0L26.9-1.0L26.6 1.2L26.7 1.2Q28.6-1.2 30.8-1.2L30.8-1.2Q32.4-1.2 33.4 0.0Q34.3 1.2 34.3 3.4L34.3 3.4Q34.3 5.8 33.5 7.8Q32.7 9.9 31.3 11.1Q29.9 12.2 28.2 12.2ZM29.7 1.1L29.7 1.1Q28.8 1.1 27.8 2.0Q26.9 2.9 26.3 4.5Q25.7 6.0 25.7 7.6L25.7 7.6Q25.7 8.8 26.3 9.4Q26.8 10.0 27.8 10.0L27.8 10.0Q28.8 10.0 29.7 9.1Q30.5 8.2 31.0 6.6Q31.6 5.1 31.6 3.4L31.6 3.4Q31.6 1.1 29.7 1.1ZM43.2 0.9L43.2 0.9Q42.1 0.9 41.1 1.9Q40.1 2.9 39.7 4.6L39.7 4.6L40.0 4.6Q42.3 4.6 43.5 4.0Q44.7 3.3 44.7 2.2L44.7 2.2Q44.7 1.6 44.4 1.2Q44.0 0.9 43.2 0.9ZM41.5 12.2L41.5 12.2Q39.2 12.2 37.9 10.9Q36.6 9.6 36.6 7.3L36.6 7.3Q36.6 5.0 37.5 3.0Q38.4 1.0 39.9-0.1Q41.5-1.2 43.4-1.2L43.4-1.2Q45.3-1.2 46.3-0.3Q47.4 0.5 47.4 2.1L47.4 2.1Q47.4 4.2 45.4 5.4Q43.5 6.6 39.9 6.6L39.9 6.6L39.4 6.6L39.4 7.0L39.4 7.3Q39.4 8.6 40.0 9.3Q40.7 10.1 42.0 10.1L42.0 10.1Q42.8 10.1 43.7 9.9Q44.5 9.6 45.6 9.1L45.6 9.1L45.6 11.3Q44.5 11.8 43.6 12.0Q42.6 12.2 41.5 12.2ZM59.1 12L56.3 12L58.0 4.1Q58.2 3.1 58.2 2.6L58.2 2.6Q58.2 1.1 56.7 1.1L56.7 1.1Q55.8 1.1 55.0 1.7Q54.2 2.4 53.5 3.7Q52.9 4.9 52.5 6.5L52.5 6.5L51.4 12L48.6 12L51.4-1.0L53.5-1.0L53.3 1.4L53.4 1.4Q54.4 0.1 55.4-0.6Q56.4-1.2 57.6-1.2L57.6-1.2Q59.2-1.2 60.1-0.3Q60.9 0.6 60.9 2.2L60.9 2.2Q60.9 3.0 60.7 4.3L60.7 4.3L59.1 12ZM79.4 7.0L79.4 7.0Q79.4 9.4 77.7 10.8Q76.0 12.2 73.0 12.2L73.0 12.2Q70.5 12.2 68.9 11.4L68.9 11.4L68.9 8.7Q70.9 9.9 73.0 9.9L73.0 9.9Q74.6 9.9 75.5 9.2Q76.5 8.5 76.5 7.3L76.5 7.3Q76.5 6.5 76.0 5.8Q75.5 5.2 74.0 4.2L74.0 4.2Q72.7 3.5 72.2 2.8Q71.6 2.2 71.3 1.4Q70.9 0.6 70.9-0.3L70.9-0.3Q70.9-1.8 71.7-3.0Q72.4-4.1 73.7-4.7Q75.0-5.4 76.7-5.4L76.7-5.4Q79.1-5.4 81.1-4.3L81.1-4.3L80.1-2.1Q78.3-3.0 76.7-3.0L76.7-3.0Q75.4-3.0 74.6-2.3Q73.9-1.6 73.9-0.5L73.9-0.5Q73.9 0.0 74.0 0.5Q74.2 0.9 74.6 1.2Q74.9 1.6 76.2 2.4L76.2 2.4Q78.0 3.5 78.7 4.6Q79.4 5.6 79.4 7.0ZM85.5 12.2L85.5 12.2Q83.9 12.2 82.9 11.0Q81.9 9.9 81.9 7.7L81.9 7.7Q81.9 5.3 82.8 3.3Q83.6 1.2 85 0.0Q86.4-1.2 88.1-1.2L88.1-1.2Q89.3-1.2 90.1-0.7Q90.9-0.1 91.4 0.9L91.4 0.9L91.5 0.9L92.2-1.0L94.3-1.0L91.6 12L89.4 12L89.7 9.9L89.6 9.9Q87.8 12.2 85.5 12.2ZM86.5 10.0L86.5 10.0Q87.5 10.0 88.4 9.1Q89.3 8.2 89.9 6.7Q90.5 5.1 90.5 3.3L90.5 3.3Q90.5 2.3 90.0 1.7Q89.4 1.1 88.5 1.1L88.5 1.1Q87.5 1.1 86.7 2.0Q85.8 2.9 85.3 4.4Q84.7 6.0 84.7 7.6L84.7 7.6Q84.7 8.8 85.2 9.4Q85.7 10.0 86.5 10.0ZM105.7 12L103.0 12L104.6 4.1Q104.8 3.1 104.8 2.6L104.8 2.6Q104.8 1.1 103.3 1.1L103.3 1.1Q102.5 1.1 101.7 1.7Q100.8 2.4 100.2 3.7Q99.5 4.9 99.2 6.5L99.2 6.5L98.1 12L95.3 12L98.1-1.0L100.2-1.0L100.0 1.4L100.1 1.4Q101.0 0.1 102.1-0.6Q103.1-1.2 104.3-1.2L104.3-1.2Q105.9-1.2 106.7-0.3Q107.6 0.6 107.6 2.2L107.6 2.2Q107.6 3.0 107.3 4.3L107.3 4.3L105.7 12ZM118.1 8.0L118.1 8.0Q118.1 10.0 116.7 11.1Q115.3 12.2 112.8 12.2L112.8 12.2Q110.6 12.2 109.1 11.4L109.1 11.4L109.1 9.1Q110.9 10.1 112.7 10.1L112.7 10.1Q113.9 10.1 114.6 9.7Q115.3 9.2 115.3 8.4L115.3 8.4Q115.3 7.8 114.9 7.4Q114.4 6.9 113.2 6.2L113.2 6.2Q111.7 5.4 111.1 4.6Q110.5 3.8 110.5 2.7L110.5 2.7Q110.5 0.9 111.8-0.2Q113.0-1.2 115.2-1.2L115.2-1.2Q117.5-1.2 119.2-0.2L119.2-0.2L118.3 1.9Q116.7 1.0 115.2 1.0L115.2 1.0Q114.4 1.0 113.8 1.3Q113.3 1.7 113.3 2.4L113.3 2.4Q113.3 3.0 113.7 3.4Q114.1 3.8 115.3 4.4L115.3 4.4Q116.5 5.1 117.0 5.6Q117.5 6.1 117.8 6.7Q118.1 7.3 118.1 8.0Z" fill="foregroundcolor"/></svg>