<svg width="66" height="40" viewBox="0 0 66 40" fill="none" xmlns="http://www.w3.org/2000/svg">
<path fill-rule="evenodd" clip-rule="evenodd" d="M33.975 10.0251H31.815V8.02515H33.975V10.0251Z" fill="#27292A"/>
<path fill-rule="evenodd" clip-rule="evenodd" d="M38.295 10.0251H36.135V8.02515H38.295V10.0251Z" fill="#27292A"/>
<path fill-rule="evenodd" clip-rule="evenodd" d="M29.655 10.0251H23.175V8.02515H29.655V10.0251Z" fill="#27292A"/>
<path fill-rule="evenodd" clip-rule="evenodd" d="M49.3207 12.4979C49.019 11.9793 48.6248 11.5203 48.1575 11.1438L49.4125 9.58657C50.07 10.1164 50.6248 10.7623 51.0495 11.4923L49.3207 12.4979Z" fill="#27292A"/>
<path fill-rule="evenodd" clip-rule="evenodd" d="M50.0159 16.1232C50.0437 15.4611 50.016 14.7979 49.9329 14.1405L51.9172 13.8898C52.0142 14.6582 52.0466 15.4334 52.0141 16.2071L50.0159 16.1232Z" fill="#27292A"/>
<path fill-rule="evenodd" clip-rule="evenodd" d="M46.6433 10.3002C45.7071 10.0463 44.7348 9.95242 43.7673 10.0225C43.7433 10.0242 43.7192 10.0251 43.6951 10.0251H40.455V8.02512H43.6598C44.8398 7.94378 46.0251 8.06032 47.1668 8.36999L46.6433 10.3002Z" fill="#27292A"/>
<path fill-rule="evenodd" clip-rule="evenodd" d="M48.3029 27.7857C48.7567 27.3848 49.1372 26.9078 49.4272 26.3763L51.1829 27.3341C50.7816 28.0698 50.255 28.7298 49.6271 29.2846L48.3029 27.7857Z" fill="#27292A"/>
<path fill-rule="evenodd" clip-rule="evenodd" d="M45.0099 29.0252C45.6121 29.0221 46.2088 28.9118 46.7723 28.6994L47.4777 30.5709C46.692 30.867 45.8598 31.0209 45.0201 31.0251L45.0099 29.0252Z" fill="#27292A"/>
<path fill-rule="evenodd" clip-rule="evenodd" d="M50.0226 19.9768C50.0188 19.4307 50.015 18.8805 50.015 18.3251H52.015C52.015 18.8492 52.0187 19.3795 52.0224 19.914C52.0337 21.5446 52.0453 23.2137 51.9534 24.8609L49.9565 24.7494C50.0446 23.1707 50.0337 21.5911 50.0226 19.9768Z" fill="#27292A"/>
<path fill-rule="evenodd" clip-rule="evenodd" d="M32.055 29.0251H34.215V31.0251H32.055V29.0251Z" fill="#27292A"/>
<path fill-rule="evenodd" clip-rule="evenodd" d="M27.735 29.0251H29.895V31.0251H27.735V29.0251Z" fill="#27292A"/>
<path fill-rule="evenodd" clip-rule="evenodd" d="M36.375 29.0251H42.855V31.0251H36.375V29.0251Z" fill="#27292A"/>
<path fill-rule="evenodd" clip-rule="evenodd" d="M16.7094 26.5524C17.011 27.071 17.4053 27.5299 17.8725 27.9065L16.6175 29.4637C15.96 28.9338 15.4052 28.288 14.9806 27.558L16.7094 26.5524Z" fill="#27292A"/>
<path fill-rule="evenodd" clip-rule="evenodd" d="M16.0141 22.9271C15.9863 23.5892 16.014 24.2524 16.0971 24.9098L14.1128 25.1605C14.0158 24.3921 13.9834 23.6169 14.0159 22.8432L16.0141 22.9271Z" fill="#27292A"/>
<path fill-rule="evenodd" clip-rule="evenodd" d="M19.3868 28.75C20.3229 29.0039 21.2953 29.0978 22.2627 29.0278C22.2868 29.026 22.3109 29.0251 22.335 29.0251H25.5751V31.0251H22.3702C21.1903 31.1065 20.0049 30.9899 18.8632 30.6803L19.3868 28.75Z" fill="#27292A"/>
<path fill-rule="evenodd" clip-rule="evenodd" d="M17.7272 11.2646C17.2733 11.6655 16.8928 12.1425 16.6029 12.674L14.8471 11.7162C15.2484 10.9805 15.775 10.3205 16.403 9.76572L17.7272 11.2646Z" fill="#27292A"/>
<path fill-rule="evenodd" clip-rule="evenodd" d="M21.0201 10.0251C20.418 10.0282 19.8212 10.1385 19.2577 10.3509L18.5523 8.47942C19.338 8.18327 20.1702 8.02943 21.0099 8.02516L21.0201 10.0251Z" fill="#27292A"/>
<path fill-rule="evenodd" clip-rule="evenodd" d="M16.0074 19.0735C16.0112 19.6196 16.015 20.1698 16.015 20.7252H14.015C14.015 20.2011 14.0113 19.6707 14.0076 19.1363C13.9962 17.5057 13.9846 15.8366 14.0766 14.1894L16.0735 14.3008C15.9854 15.8796 15.9963 17.4592 16.0074 19.0735Z" fill="#27292A"/>
</svg>
