<svg width="66" height="40" viewBox="0 0 66 40" fill="none" xmlns="http://www.w3.org/2000/svg">
<path d="M22.9229 10H28.6829V8H22.9229V10Z" fill="#27292A"/>
<path d="M30.6028 10H32.5228V8H30.6028V10Z" fill="#27292A"/>
<path d="M44.0428 10H42.1228V8H44.0428V10Z" fill="#27292A"/>
<path d="M34.4429 10H40.2029V8H34.4429V10Z" fill="#27292A"/>
<path d="M50.0034 16.1088C50.022 15.5098 50.0033 14.9102 49.9473 14.3135L51.9385 14.1265C52.0023 14.806 52.0237 15.489 52.0024 16.1712L50.0034 16.1088Z" fill="#27292A"/>
<path d="M45.8425 10.0671C46.6355 10.1958 47.3858 10.5137 48.0298 10.9938C48.6739 11.4739 49.1927 12.1022 49.5425 12.8254L51.343 11.9546C50.8533 10.9422 50.1269 10.0626 49.2252 9.39035C48.3235 8.71813 47.2731 8.27314 46.163 8.09294L45.8425 10.0671Z" fill="#27292A"/>
<path d="M49.092 26.8685C49.4001 26.4262 49.638 25.939 49.7975 25.4241L51.7079 26.0158C51.4876 26.7272 51.1589 27.4003 50.7333 28.0115L49.092 26.8685Z" fill="#27292A"/>
<path d="M50.0029 18.06V23.82H52.0029V18.06H50.0029Z" fill="#27292A"/>
<path d="M39.2429 29H41.1629V31H39.2429V29Z" fill="#27292A"/>
<path d="M47.9815 28.011C47.3515 28.485 46.6162 28.7993 45.8385 28.9271C44.9339 29.0075 44.0251 29.0321 43.1174 29.0006L43.0481 30.9994C44.0504 31.0342 45.054 31.0063 46.0528 30.9159C46.0748 30.9139 46.0967 30.9112 46.1185 30.9078C47.2312 30.7324 48.2839 30.2864 49.184 29.609L47.9815 28.011Z" fill="#27292A"/>
<path d="M27.7229 29H29.6429V31H27.7229V29Z" fill="#27292A"/>
<path d="M37.3227 29H31.5627V31H37.3227V29Z" fill="#27292A"/>
<path d="M17.4235 27.4767C17.7945 27.8623 18.2249 28.1859 18.6984 28.435L17.7671 30.205C17.1042 29.8561 16.5015 29.4031 15.9822 28.8633L17.4235 27.4767Z" fill="#27292A"/>
<path d="M22.8878 29.0006C21.9689 29.0327 21.0488 29.0071 20.133 28.9241L19.9524 30.9159C20.9455 31.006 21.9433 31.0341 22.94 31H25.8027V29H22.9227L22.9055 29.0002L22.8878 29.0006Z" fill="#27292A"/>
<path d="M16.0029 17.1V19.02H14.0029V17.1H16.0029Z" fill="#27292A"/>
<path d="M16.0029 23.82V20.94H14.0029V23.8089C13.9789 24.9264 14.218 26.0339 14.701 27.042L16.5047 26.1779C16.156 25.45 15.9839 24.6501 16.0026 23.8431L16.0029 23.82Z" fill="#27292A"/>
<path d="M21.015 9.99993C20.4735 10.0065 19.936 10.0947 19.4208 10.2614L18.8049 8.35859C19.5114 8.12995 20.2483 8.00909 20.9907 8.00008L21.015 9.99993Z" fill="#27292A"/>
<path d="M16.4994 12.8187C16.8505 12.0932 17.3719 11.4634 18.019 10.9828L16.8266 9.37715C15.9207 10.0499 15.1908 10.9317 14.6992 11.9474C14.2076 12.9631 13.9688 14.0826 14.0033 15.2105L16.0023 15.1495C15.9777 14.3438 16.1483 13.5442 16.4994 12.8187Z" fill="#27292A"/>
</svg>
