<svg xmlns="http://www.w3.org/2000/svg" width="25" height="24" viewBox="0 0 25 24">
    <g fill="none" fill-rule="evenodd">
        <circle cx="12.8" cy="12" r="12" fill="#DC4E41"/>
        <path fill="#FFF" d="M10.42 9.372c0-1.782 1.065-2.98 2.58-2.98 1.515 0 2.58 1.198 2.58 2.98v1.197h-5.16V9.372zm2.024 5.255v1.34a.556.556 0 1 0 1.112 0v-1.34c.49-.228.833-.748.833-1.354 0-.816-.622-1.478-1.389-1.478s-1.389.662-1.389 1.478c0 .606.343 1.126.833 1.354zm4.427-4.058h.484c.356 0 .645.315.645.7v6.035c0 .384-.289.696-.645.696h-8.71C8.29 18 8 17.688 8 17.304v-6.036c0-.384.289-.699.645-.699h.484V9.372c0-2.574 1.62-4.372 3.87-4.372 2.252 0 3.872 1.798 3.872 4.372v1.197zm-3.877 3.295c-.303 0-.55-.265-.55-.591 0-.327.247-.591.55-.591.304 0 .55.264.55.59 0 .327-.246.592-.55.592z"/>
    </g>
</svg>
