<svg width="112" height="84" viewBox="0 0 112 84" fill="none" xmlns="http://www.w3.org/2000/svg">
<g clip-path="url(#clip0_5467_24768)">
<rect width="112" height="84" fill="#F7FFF4"/>
<path fill-rule="evenodd" clip-rule="evenodd" d="M-5.57651 58.6745C-8.97343 58.0611 -12.8188 58.632 -15.3065 59.3778L-16.6935 54.7512C-13.7328 53.8636 -9.08721 53.1325 -4.71821 53.9214C-0.252816 54.7277 4.25666 57.2302 5.85712 62.9988C6.53549 65.444 7.4148 66.0565 7.99997 66.2753C8.81523 66.5802 10.0515 66.5176 12.0895 66.0054C12.8315 65.819 13.5872 65.5998 14.4076 65.3619C14.6711 65.2856 14.9412 65.2072 15.2197 65.1274C16.333 64.8084 17.5391 64.4785 18.7766 64.2335C21.2391 63.746 24.0437 63.5473 26.8261 64.5601C37.4564 68.4296 39.5641 77.8052 41.023 84.295C41.1995 85.0801 41.3665 85.823 41.5379 86.5088L36.8521 87.6802C36.6513 86.8771 36.4624 86.067 36.2734 85.257C34.7294 78.6379 33.1844 72.0146 25.174 69.0988C23.5814 68.5191 21.7878 68.5611 19.7146 68.9715C18.6842 69.1755 17.6379 69.4589 16.5502 69.7706C16.3084 69.8399 16.0619 69.9113 15.8126 69.9837C14.9733 70.2271 14.1014 70.48 13.2668 70.6898C11.1792 71.2144 8.63762 71.6703 6.30835 70.7994C3.74899 69.8424 2.11705 67.585 1.20292 64.2901C0.255369 60.8748 -2.27598 59.2705 -5.57651 58.6745Z" fill="#FF9A9A"/>
<circle cx="91.555" cy="6.555" r="2.555" fill="#FFC368"/>
<circle cx="33.415" cy="20.415" r="2.415" fill="#ACDB87"/>
<path d="M84.4031 63.549C85.0155 62.7087 86.3427 63.0838 86.4247 64.1203L86.846 69.442C86.8718 69.7679 87.0386 70.0662 87.3028 70.2588L91.6169 73.4031C92.4571 74.0155 92.0821 75.3427 91.0456 75.4247L85.7239 75.846C85.398 75.8718 85.0997 76.0386 84.9071 76.3028L81.7628 80.6169C81.1504 81.4571 79.8232 81.0821 79.7412 80.0456L79.3199 74.7238C79.2941 74.398 79.1273 74.0996 78.8631 73.9071L74.549 70.7628C73.7088 70.1504 74.0838 68.8232 75.1203 68.7411L80.4421 68.3199C80.7679 68.2941 81.0662 68.1272 81.2588 67.8631L84.4031 63.549Z" fill="#749AC7"/>
<path fill-rule="evenodd" clip-rule="evenodd" d="M47.4867 10.3815L55.6475 -5.34446L59.9346 -3.11971L51.7738 12.6063L47.4867 10.3815Z" fill="#ACDB87"/>
<path fill-rule="evenodd" clip-rule="evenodd" d="M58.3313 19.2784L64.4934 -4.92004L69.1741 -3.72811L63.0119 20.4703L58.3313 19.2784Z" fill="#ACDB87"/>
<path d="M17.8258 7.28146L7.28029 11.4561L9.1301 -3.12622e-05L17.8258 7.28146Z" fill="#FFC368"/>
<path fill-rule="evenodd" clip-rule="evenodd" d="M107.952 28.5628C111.084 27.6771 114.359 27.2981 117.156 27.2546L117.231 32.0841C114.778 32.1222 111.928 32.4578 109.266 33.2106C106.58 33.9702 104.261 35.1041 102.686 36.6173C101.184 38.0601 100.298 39.8903 100.427 42.3837C100.563 44.9933 101.826 48.551 105.192 53.2538C109.256 58.9317 113.532 61.0726 117.362 61.388C121.275 61.7102 125.187 60.1663 128.498 57.5883C131.817 55.0031 134.294 51.5572 135.37 48.5139C136.496 45.3305 135.862 43.5809 134.761 42.8252C130.124 39.6414 124.908 37.9639 120.636 37.894C116.301 37.8231 113.597 39.3435 112.6 41.7565C112.031 43.135 112.168 43.9606 112.384 44.4477C112.625 44.9909 113.148 45.5187 113.993 45.9317C114.837 46.3446 115.835 46.554 116.701 46.5552C117.426 46.5562 117.775 46.419 117.872 46.3807C117.907 46.3668 117.91 46.3659 117.885 46.3892L121.192 49.9095C119.944 51.082 118.125 51.3872 116.695 51.3852C115.143 51.3831 113.416 51.026 111.871 50.2707C110.327 49.5156 108.798 48.2738 107.97 46.4075C107.116 44.485 107.166 42.2612 108.136 39.9122C110.219 34.8702 115.426 32.9781 120.715 33.0647C126.068 33.1523 132.192 35.2023 137.495 38.8435C141.365 41.5003 141.295 46.2475 139.924 50.1244C138.503 54.1412 135.421 58.3187 131.465 61.3992C127.5 64.4868 122.419 66.6507 116.966 66.2018C111.431 65.7461 105.968 62.637 101.264 56.0649C97.6163 50.9677 95.8058 46.5221 95.604 42.6341C95.3961 38.6298 96.9097 35.4682 99.3399 33.1339C101.697 30.8701 104.844 29.4417 107.952 28.5628Z" fill="#FFEB83"/>
<path d="M28.3444 37.8972C28.9658 37.8972 29.4992 37.9889 29.9447 38.1724C30.3939 38.3558 30.7365 38.6197 30.9723 38.9641C31.2081 39.3048 31.326 39.7109 31.326 40.1826C31.326 40.7067 31.2063 41.1709 30.9667 41.5752C30.7271 41.9757 30.3771 42.2883 29.9166 42.5129C29.4599 42.7338 28.9152 42.8442 28.2826 42.8442H27.0472L26.9406 46H25.2448L25.3514 42.8555H24.9921L25.0258 41.345H25.402L25.5255 37.8972H28.3444ZM29.6302 40.2893C29.6302 39.6679 29.2128 39.3572 28.3781 39.3572H27.1708V39.3684L27.0978 41.3843H28.3331C28.7636 41.3843 29.0874 41.2832 29.3046 41.0811C29.5217 40.8752 29.6302 40.6112 29.6302 40.2893Z" fill="black"/>
<path d="M32.7045 37.2178H34.3666L34.3104 38.8799H32.6483L32.7045 37.2178ZM34.3553 44.5737C34.4452 44.5775 34.6024 44.57 34.827 44.5513L34.7989 45.9888C34.5818 46.0225 34.3479 46.0487 34.097 46.0674C33.85 46.0861 33.6553 46.0955 33.5131 46.0955C33.1612 46.0955 32.8991 45.9906 32.7269 45.781C32.5585 45.5676 32.4836 45.2719 32.5023 44.8938L32.6539 41.3562L32.2159 41.373L32.2665 39.8232C32.8767 39.7858 33.4045 39.7671 33.85 39.7671C33.9997 39.7671 34.1176 39.8158 34.2037 39.9131C34.2898 40.0104 34.3291 40.1377 34.3216 40.2949L34.1813 44.3435C34.1775 44.4184 34.1888 44.4745 34.215 44.512C34.2449 44.5494 34.2917 44.57 34.3553 44.5737Z" fill="black"/>
<path d="M38.2662 41.3618L38.1708 44.248C38.167 44.3566 38.1876 44.4277 38.2325 44.4614C38.2775 44.4914 38.3692 44.5063 38.5077 44.5063C38.62 44.5063 38.8334 44.4914 39.1478 44.4614L39.3275 44.4446L39.305 46.0056C39.1254 46.0505 38.8989 46.088 38.6256 46.1179C38.3561 46.1516 38.124 46.1685 37.9293 46.1685C37.4726 46.1685 37.1188 46.0468 36.868 45.8035C36.6172 45.5564 36.4993 45.2045 36.5143 44.7478L36.6378 41.3618H35.5541L35.6102 39.8232H36.694L36.7445 38.3745L38.3785 37.9365L38.3168 39.8232H39.6083L39.5521 41.3618H38.2662Z" fill="black"/>
<path d="M43.4574 44.6299C43.8018 44.6299 44.1612 44.5251 44.5355 44.3154C44.9136 44.1021 45.2636 43.7502 45.5855 43.2598L46.0628 44.7983C45.7222 45.2251 45.3441 45.5489 44.9286 45.7698C44.5168 45.9869 44.0451 46.1086 43.5135 46.1348C43.4686 46.1385 43.4012 46.1404 43.3114 46.1404C42.7049 46.1404 42.1659 46.0075 41.6942 45.7417C41.2263 45.4759 40.8631 45.1109 40.6048 44.6467C40.3465 44.1788 40.2174 43.6547 40.2174 43.0745L40.223 42.9004C40.2717 42.2939 40.4401 41.7474 40.7284 41.2607C41.0204 40.7703 41.4041 40.3848 41.8795 40.104C42.3587 39.8232 42.8959 39.6829 43.4911 39.6829C43.5772 39.6829 43.6408 39.6847 43.682 39.6885C44.2435 39.7184 44.7133 39.8195 45.0914 39.9917C45.4695 40.1602 45.8045 40.4409 46.0965 40.834L45.5294 42.2603C45.2599 41.8747 44.9941 41.6051 44.732 41.4517C44.47 41.2944 44.1761 41.2008 43.8504 41.1709C43.8167 41.1672 43.7643 41.1653 43.6932 41.1653C43.4012 41.1653 43.1223 41.2402 42.8565 41.3899C42.5908 41.5359 42.368 41.7437 42.1883 42.0132C42.0124 42.279 41.9038 42.5822 41.8626 42.9229C41.8589 42.9603 41.857 43.0164 41.857 43.0913C41.857 43.4132 41.9244 43.6903 42.0592 43.9224C42.1939 44.1545 42.3811 44.3304 42.6207 44.4502C42.864 44.57 43.1429 44.6299 43.4574 44.6299Z" fill="black"/>
<path d="M52.568 44.6917C52.6541 44.6917 52.787 44.6879 52.9666 44.6804L52.9273 46.0281C52.4369 46.0655 51.9203 46.0842 51.3775 46.0842C51.224 46.0842 51.0968 46.0337 50.9957 45.9326C50.8984 45.8315 50.8516 45.7061 50.8553 45.5564L50.9564 42.5579H50.9508C50.9545 42.5129 50.9564 42.4456 50.9564 42.3557C50.9564 41.5059 50.6719 41.0811 50.1029 41.0811C49.897 41.0811 49.6911 41.1297 49.4852 41.2271C49.2831 41.3244 49.0977 41.4666 48.9293 41.6538C48.7646 41.841 48.6317 42.06 48.5306 42.3108V42.2771L48.4632 46H46.8236L46.9696 37.6895H48.6092L48.5587 40.615C48.787 40.323 49.0753 40.0965 49.4234 39.9355C49.7716 39.7708 50.1646 39.6885 50.6026 39.6885C51.269 39.6885 51.7687 39.885 52.1019 40.2781C52.4351 40.6711 52.6017 41.2944 52.6017 42.1479C52.6017 42.234 52.5979 42.3707 52.5904 42.5579H52.596L52.5118 44.6355C52.5118 44.6729 52.5305 44.6917 52.568 44.6917Z" fill="black"/>
<path d="M59.1375 46H57.3294L57.6102 37.6165H57.9022L61.8328 41.418L66.106 37.6165H66.398L66.1173 46H64.3092L64.4327 41.1709L61.7991 43.5012H61.6868L59.2611 41.1147L59.1375 46Z" fill="black"/>
<path d="M70.6121 46.1348C69.9757 46.1348 69.4105 46.0019 68.9163 45.7361C68.4222 45.4666 68.0366 45.0922 67.7596 44.613C67.4863 44.1339 67.3497 43.5873 67.3497 42.9734C67.3497 42.3407 67.4938 41.7755 67.7821 41.2776C68.0703 40.7797 68.4709 40.3904 68.9837 40.1096C69.4966 39.8289 70.0768 39.6885 70.7244 39.6885C71.3571 39.6885 71.9186 39.8232 72.409 40.0928C72.9031 40.3586 73.2869 40.731 73.5601 41.2102C73.8371 41.6856 73.9757 42.2284 73.9757 42.8386C73.9757 43.475 73.8315 44.044 73.5433 44.5457C73.2588 45.0435 72.8601 45.4329 72.3472 45.7136C71.8381 45.9944 71.2598 46.1348 70.6121 46.1348ZM70.5728 44.7085C70.9097 44.7085 71.213 44.6261 71.4825 44.4614C71.752 44.2967 71.9617 44.0684 72.1114 43.7764C72.2649 43.4844 72.3416 43.1531 72.3416 42.7825C72.3416 42.4568 72.2742 42.1685 72.1395 41.9177C72.0085 41.6632 71.8231 41.4666 71.5836 41.3281C71.344 41.1859 71.0707 41.1147 70.7637 41.1147C70.4268 41.1147 70.1217 41.1971 69.8485 41.3618C69.5789 41.5228 69.3674 41.7493 69.2139 42.0413C69.0605 42.3333 68.9837 42.6627 68.9837 43.0295C68.9837 43.3552 69.0492 43.6453 69.1802 43.8999C69.315 44.1545 69.5022 44.3529 69.7418 44.4951C69.9851 44.6374 70.2621 44.7085 70.5728 44.7085Z" fill="black"/>
<path d="M80.9131 44.6074L81.3904 44.5793L81.368 46.0281C81.2969 46.0318 81.1827 46.0412 81.0255 46.0562C80.9543 46.0599 80.7803 46.0711 80.5032 46.0898C80.2262 46.1123 79.9885 46.1198 79.7901 46.1123C79.6366 46.1198 79.5075 46.073 79.4026 45.9719C79.3016 45.8708 79.2529 45.7417 79.2567 45.5845L79.2679 44.9163C79.0358 45.3206 78.7419 45.6238 78.3863 45.8259C78.0307 46.0281 77.6413 46.1292 77.2183 46.1292C76.7317 46.1292 76.2974 46.0094 75.9156 45.7698C75.5338 45.5264 75.2343 45.1877 75.0172 44.7534C74.8038 44.3192 74.6971 43.8232 74.6971 43.2654C74.6971 43.1568 74.699 43.0745 74.7027 43.0183C74.7364 42.3782 74.8843 41.8054 75.1463 41.3C75.4121 40.7909 75.7602 40.3941 76.1907 40.1096C76.6212 39.8251 77.0929 39.6829 77.6058 39.6829C77.9914 39.6829 78.3339 39.7633 78.6334 39.9243C78.9328 40.0815 79.1706 40.308 79.3465 40.6038L79.4026 37.6895H81.0423L80.9131 44.6074ZM77.617 44.6411C77.8716 44.6411 78.1149 44.5737 78.347 44.439C78.5791 44.3042 78.7775 44.1152 78.9422 43.8718C79.1107 43.6285 79.2304 43.3477 79.3016 43.0295L79.3128 42.5972C79.2903 42.3164 79.2155 42.0712 79.0882 41.8616C78.9609 41.6519 78.7943 41.491 78.5884 41.3787C78.3825 41.2664 78.1542 41.2102 77.9034 41.2102C77.6264 41.2102 77.3755 41.2851 77.1509 41.4348C76.9263 41.5808 76.7429 41.7904 76.6006 42.0637C76.4621 42.3333 76.376 42.6514 76.3423 43.0183C76.3349 43.1231 76.3311 43.198 76.3311 43.2429C76.3311 43.6734 76.4453 44.0141 76.6736 44.2649C76.902 44.5157 77.2165 44.6411 77.617 44.6411Z" fill="black"/>
<path d="M85.4249 46.1909C84.3318 46.1909 83.5063 45.9251 82.9485 45.3936C82.3908 44.862 82.1119 44.0871 82.1119 43.0688C82.1119 42.3838 82.2373 41.7886 82.4881 41.2832C82.7427 40.7741 83.1076 40.3829 83.5831 40.1096C84.0585 39.8326 84.6238 39.6941 85.2789 39.6941C85.904 39.6941 86.4356 39.7989 86.8736 40.0085C87.3153 40.2182 87.6504 40.5251 87.8787 40.9294C88.1108 41.33 88.2269 41.8148 88.2269 42.3838C88.2269 42.5635 88.2063 42.9771 88.1651 43.6248L83.7796 43.6584C83.7759 44.0178 83.935 44.2874 84.2569 44.467C84.5788 44.6467 84.9906 44.7366 85.4922 44.7366C86.327 44.7366 87.1356 44.5494 87.918 44.175L87.9068 45.5901C87.5287 45.811 87.1338 45.9663 86.722 46.0562C86.3102 46.146 85.8778 46.1909 85.4249 46.1909ZM86.576 42.3501C86.5797 42.1068 86.5329 41.8934 86.4356 41.71C86.3383 41.5228 86.1941 41.3787 86.0032 41.2776C85.8123 41.1728 85.5858 41.1204 85.3238 41.1204C84.8596 41.1204 84.5021 41.2345 84.2513 41.4629C84.0042 41.6912 83.8545 41.9963 83.8021 42.3782L86.576 42.3501Z" fill="black"/>
</g>
<defs>
<clipPath id="clip0_5467_24768">
<rect width="112" height="84" fill="white"/>
</clipPath>
</defs>
</svg>
