<svg width="112" height="84" viewBox="0 0 112 84" fill="none" xmlns="http://www.w3.org/2000/svg">
<rect width="112" height="84" fill="#0C1548"/>
<path d="M69.8003 18.578L83.6078 42.4933L69.8003 66.4086L42.1853 66.4086L28.3778 42.4933L42.1853 18.578L69.8003 18.578Z" fill="url(#paint0_radial_5467_24786)"/>
<path d="M55.9927 22.9277L72.9365 32.7102V52.2752L55.9927 62.0577L39.0489 52.2752V32.7102L55.9927 22.9277Z" fill="url(#paint1_radial_5467_24786)"/>
<path d="M62.4503 31.3088L68.9078 42.4935L62.4503 53.6783L49.5353 53.6783L43.0778 42.4935L49.5353 31.3088L62.4503 31.3088Z" fill="#112385"/>
<path d="M28.5151 42.1133C28.5151 42.4609 28.4722 42.7715 28.3862 43.0449C28.3003 43.3184 28.1831 43.5605 28.0347 43.7715C27.8901 43.9785 27.7222 44.1562 27.5308 44.3047C27.3394 44.4531 27.1382 44.5742 26.9272 44.668C26.7202 44.7617 26.5093 44.8301 26.2944 44.873C26.0835 44.916 25.8843 44.9375 25.6968 44.9375H22.2515V43.4141H25.6968C25.8921 43.3984 26.0679 43.3594 26.2241 43.2969C26.3843 43.2305 26.521 43.1426 26.6343 43.0332C26.7476 42.9238 26.8354 42.793 26.8979 42.6406C26.9604 42.4844 26.9917 42.3086 26.9917 42.1133V41.4219C26.9722 41.2305 26.9312 41.0547 26.8687 40.8945C26.8062 40.7344 26.7202 40.5977 26.6108 40.4844C26.5054 40.3711 26.3765 40.2832 26.2241 40.2207C26.0718 40.1543 25.896 40.1211 25.6968 40.1211H22.2632C22.0601 40.1211 21.9058 40.1738 21.8003 40.2793C21.6948 40.3848 21.6421 40.5371 21.6421 40.7363V47H20.1187V40.7363C20.1187 40.3457 20.189 40.0137 20.3296 39.7402C20.4741 39.4668 20.6519 39.2461 20.8628 39.0781C21.0776 38.9102 21.3101 38.7891 21.5601 38.7148C21.8101 38.6367 22.0405 38.5977 22.2515 38.5977H25.6968C26.0405 38.5977 26.3491 38.6426 26.6226 38.7324C26.896 38.8184 27.1362 38.9355 27.3433 39.084C27.5542 39.2285 27.7319 39.3965 27.8765 39.5879C28.0249 39.7793 28.146 39.9805 28.2397 40.1914C28.3374 40.3984 28.4077 40.6094 28.4507 40.8242C28.4937 41.0352 28.5151 41.2344 28.5151 41.4219V42.1133Z" fill="white"/>
<path d="M31.0187 39.3652H29.4953V37.9883H31.0187V39.3652ZM31.0187 47H29.4953V40.666H31.0187V47Z" fill="white"/>
<path d="M38.0633 42.1895H35.4032V47H33.8622V42.1895H31.8817V40.666H33.8622V38.5977H35.4032V40.666H38.0633V42.1895Z" fill="white"/>
<path d="M44.9966 47H40.8658C40.6548 47 40.4244 46.9629 40.1744 46.8887C39.9244 46.8145 39.6919 46.6934 39.4771 46.5254C39.2662 46.3535 39.0884 46.1328 38.9439 45.8633C38.8033 45.5898 38.7329 45.2559 38.7329 44.8613V42.7988C38.7329 42.6543 38.7486 42.502 38.7798 42.3418C38.815 42.1816 38.8677 42.0234 38.938 41.8672C39.0083 41.707 39.0982 41.5547 39.2076 41.4102C39.3208 41.2656 39.4556 41.1387 39.6119 41.0293C39.772 40.9199 39.9556 40.832 40.1626 40.7656C40.3697 40.6992 40.604 40.666 40.8658 40.666H44.9966V42.1895H40.8658C40.6665 42.1895 40.5142 42.2402 40.4087 42.3418C40.3072 42.4434 40.2564 42.5996 40.2564 42.8105V44.8613C40.2564 45.0605 40.3091 45.2129 40.4146 45.3184C40.5201 45.4238 40.6744 45.4766 40.8775 45.4766H44.9966V47Z" fill="white"/>
<path d="M53.1194 47H51.5959V42.7988C51.5959 42.5996 51.5451 42.4492 51.4436 42.3477C51.342 42.2422 51.1897 42.1895 50.9865 42.1895H48.2385V40.666H50.9865C51.1311 40.666 51.2834 40.6836 51.4436 40.7188C51.6037 40.75 51.7619 40.8008 51.9182 40.8711C52.0783 40.9414 52.2307 41.0332 52.3752 41.1465C52.5197 41.2559 52.6467 41.3906 52.7561 41.5508C52.8655 41.707 52.9533 41.8887 53.0197 42.0957C53.0862 42.3027 53.1194 42.5371 53.1194 42.7988V47ZM47.6233 47H46.0998V37.9883H47.6233V47Z" fill="white"/>
<path d="M68.0054 47H66.4703V41.9961L63.7691 46.748C63.7027 46.8691 63.609 46.9609 63.4879 47.0234C63.3707 47.0859 63.2437 47.1172 63.107 47.1172C62.9742 47.1172 62.8492 47.0859 62.732 47.0234C62.6187 46.9609 62.5289 46.8691 62.4625 46.748L59.7496 41.9961V47H58.2262V39.248C58.2262 39.0723 58.2769 38.916 58.3785 38.7793C58.484 38.6426 58.6207 38.5508 58.7887 38.5039C58.8707 38.4844 58.9527 38.4785 59.0347 38.4863C59.1168 38.4902 59.1949 38.5078 59.2691 38.5391C59.3472 38.5664 59.4176 38.6074 59.4801 38.6621C59.5426 38.7129 59.5953 38.7754 59.6383 38.8496L63.107 44.8789L66.5758 38.8496C66.6656 38.7012 66.7887 38.5957 66.9449 38.5332C67.1051 38.4707 67.2711 38.4609 67.4429 38.5039C67.607 38.5508 67.7418 38.6426 67.8472 38.7793C67.9527 38.916 68.0054 39.0723 68.0054 39.248V47Z" fill="white"/>
<path d="M76.2747 44.8613C76.2747 45.123 76.2415 45.3594 76.1751 45.5703C76.1087 45.7773 76.0208 45.9609 75.9114 46.1211C75.802 46.2773 75.6751 46.4121 75.5305 46.5254C75.386 46.6348 75.2337 46.7246 75.0735 46.7949C74.9172 46.8652 74.7571 46.918 74.593 46.9531C74.4329 46.9844 74.2805 47 74.136 47H71.388C71.177 47 70.9465 46.9629 70.6965 46.8887C70.4465 46.8145 70.2141 46.6934 69.9993 46.5254C69.7883 46.3535 69.6106 46.1328 69.4661 45.8633C69.3255 45.5898 69.2551 45.2559 69.2551 44.8613V42.7988C69.2551 42.4082 69.3255 42.0781 69.4661 41.8086C69.6106 41.5352 69.7883 41.3145 69.9993 41.1465C70.2141 40.9746 70.4465 40.8516 70.6965 40.7773C70.9465 40.7031 71.177 40.666 71.388 40.666H74.136C74.5266 40.666 74.8587 40.7363 75.1321 40.877C75.4055 41.0176 75.6262 41.1953 75.7942 41.4102C75.9622 41.6211 76.0833 41.8516 76.1575 42.1016C76.2356 42.3516 76.2747 42.584 76.2747 42.7988V44.8613ZM74.7512 42.8105C74.7512 42.5996 74.6985 42.4434 74.593 42.3418C74.4876 42.2402 74.3352 42.1895 74.136 42.1895H71.3997C71.1965 42.1895 71.0422 42.2422 70.9368 42.3477C70.8313 42.4492 70.7786 42.5996 70.7786 42.7988V44.8613C70.7786 45.0605 70.8313 45.2129 70.9368 45.3184C71.0422 45.4238 71.1965 45.4766 71.3997 45.4766H74.136C74.343 45.4766 74.4973 45.4238 74.5989 45.3184C74.7005 45.2129 74.7512 45.0605 74.7512 44.8613V42.8105Z" fill="white"/>
<path d="M84.3447 44.8613C84.3447 45.123 84.3115 45.3594 84.2451 45.5703C84.1786 45.7773 84.0908 45.9609 83.9814 46.1211C83.872 46.2773 83.7451 46.4121 83.6005 46.5254C83.456 46.6348 83.3037 46.7246 83.1435 46.7949C82.9872 46.8652 82.8271 46.918 82.663 46.9531C82.5029 46.9844 82.3505 47 82.206 47H79.458C79.1962 47 78.9619 46.9668 78.7548 46.9004C78.5478 46.834 78.3642 46.7461 78.204 46.6367C78.0478 46.5234 77.913 46.3945 77.7997 46.25C77.6904 46.1055 77.6005 45.9551 77.5302 45.7988C77.4599 45.6387 77.4072 45.4785 77.372 45.3184C77.3408 45.1543 77.3251 45.002 77.3251 44.8613V42.7988C77.3251 42.4082 77.3955 42.0781 77.5361 41.8086C77.6806 41.5352 77.8583 41.3145 78.0693 41.1465C78.2841 40.9746 78.5165 40.8516 78.7665 40.7773C79.0165 40.7031 79.247 40.666 79.458 40.666H82.206V42.1895H79.4697C79.2665 42.1895 79.1122 42.2422 79.0068 42.3477C78.9013 42.4492 78.8486 42.5996 78.8486 42.7988V44.8496C78.8486 45.0566 78.8994 45.2129 79.0009 45.3184C79.1064 45.4238 79.2587 45.4766 79.458 45.4766H82.206C82.413 45.4766 82.5673 45.4238 82.6689 45.3184C82.7705 45.2129 82.8212 45.0605 82.8212 44.8613V37.9883H84.3447V44.8613Z" fill="white"/>
<path d="M92.4323 42.7637C92.4323 42.9746 92.3951 43.2031 92.3209 43.4492C92.2467 43.6914 92.1256 43.918 91.9576 44.1289C91.7936 44.3359 91.5768 44.5098 91.3073 44.6504C91.0416 44.791 90.7174 44.8613 90.3346 44.8613H87.5865V43.4141H90.3346C90.5416 43.4141 90.7018 43.3516 90.8151 43.2266C90.9283 43.0977 90.985 42.9395 90.985 42.752C90.985 42.5527 90.9205 42.3965 90.7916 42.2832C90.6666 42.1699 90.5143 42.1133 90.3346 42.1133H87.5865C87.3795 42.1133 87.2194 42.1777 87.1061 42.3066C86.9928 42.4316 86.9362 42.5879 86.9362 42.7754V44.9023C86.9362 45.1055 86.9987 45.2637 87.1237 45.377C87.2526 45.4902 87.4108 45.5469 87.5983 45.5469H90.3346V47H87.5865C87.3756 47 87.1471 46.9629 86.901 46.8887C86.6588 46.8145 86.4323 46.6953 86.2213 46.5312C86.0143 46.3633 85.8405 46.1465 85.6998 45.8809C85.5592 45.6113 85.4889 45.2852 85.4889 44.9023V42.7637C85.4889 42.5527 85.526 42.3262 85.6002 42.084C85.6744 41.8379 85.7936 41.6113 85.9576 41.4043C86.1256 41.1934 86.3424 41.0176 86.608 40.877C86.8776 40.7363 87.2037 40.666 87.5865 40.666H90.3346C90.5455 40.666 90.7721 40.7031 91.0143 40.7773C91.2604 40.8516 91.4869 40.9727 91.694 41.1406C91.9049 41.3047 92.0807 41.5215 92.2213 41.791C92.3619 42.0566 92.4323 42.3809 92.4323 42.7637Z" fill="white"/>
<defs>
<radialGradient id="paint0_radial_5467_24786" cx="0" cy="0" r="1" gradientUnits="userSpaceOnUse" gradientTransform="translate(55.9928 42.4933) rotate(120) scale(27.615)">
<stop offset="0.445656"/>
<stop offset="1" stop-color="#2C47D8"/>
</radialGradient>
<radialGradient id="paint1_radial_5467_24786" cx="0" cy="0" r="1" gradientUnits="userSpaceOnUse" gradientTransform="translate(55.9927 42.4927) rotate(90) scale(19.565)">
<stop offset="0.445656"/>
<stop offset="1" stop-color="#2C47D8"/>
</radialGradient>
</defs>
</svg>
