<?xml version="1.0" encoding="UTF-8"?>
<svg width="24px" height="24px" viewBox="0 0 24 24" version="1.1" xmlns="http://www.w3.org/2000/svg" xmlns:xlink="http://www.w3.org/1999/xlink">
    <!-- Generator: Sketch 56 (81588) - https://sketch.com -->
    <title>emotion_laugh@16</title>
    <desc>Created with Sketch.</desc>
    <defs>
        <polygon id="path-1" points="2.25082953e-05 0.000122508295 23.9999363 0.000122508295 23.9999363 24 2.25082953e-05 24"></polygon>
    </defs>
    <g id="emotion_laugh" stroke="none" stroke-width="1" fill="none" fill-rule="evenodd">
        <g id="Group-16">
            <g id="Group-3">
                <mask id="mask-2" fill="white">
                    <use xlink:href="#path-1"></use>
                </mask>
                <g id="Clip-2"></g>
                <path d="M1.8291,18.3652 C-1.6859,12.7482 0.0171,5.3442 5.6351,1.8292 C11.2521,-1.6858 18.6551,0.0172 22.1711,5.6352 C25.6861,11.2522 23.9821,18.6552 18.3651,22.1712 C12.7481,25.6862 5.3451,23.9822 1.8291,18.3652" id="Fill-1" fill="#F7C839" mask="url(#mask-2)"></path>
            </g>
            <path d="M9,7.5 C9,8.328 8.329,9 7.5,9 C6.671,9 6,8.328 6,7.5 C6,6.671 6.671,6 7.5,6 C8.329,6 9,6.671 9,7.5" id="Fill-4" fill="#4C4023"></path>
            <path d="M18,7.5 C18,8.328 17.329,9 16.5,9 C15.671,9 15,8.328 15,7.5 C15,6.671 15.671,6 16.5,6 C17.329,6 18,6.671 18,7.5" id="Fill-6" fill="#4C4023"></path>
            <path d="M12,11 L12,18.531 C7.90613757,18.5308472 4.58129934,15.4039054 4.55428808,11.531 C4.5523,11.238 4.8023,11 5.1123,11 L12,11 Z M12.0003,11 L18.888,11 C19.198,11 19.448,11.238 19.4460119,11.531 C19.4190007,15.4039054 16.0941624,18.5308472 12.0003,18.531 L12.0003,11 Z" id="Combined-Shape" fill="#4C4023"></path>
            <path d="M7.2271,16.8906 C7.2271,16.8906 8.4041,14.4556 12.0001,14.4906 L12.0001,18.5316 C12.0001,18.5316 8.8591,18.5226 7.2271,16.8906" id="Fill-12" fill="#E74643"></path>
            <path d="M16.7729,16.8906 C16.7729,16.8906 15.5959,14.4556 11.9999,14.4906 L11.9999,18.5316 C11.9999,18.5316 15.1409,18.5226 16.7729,16.8906" id="Fill-14" fill="#E74643"></path>
        </g>
    </g>
</svg>