<?xml version="1.0" encoding="UTF-8"?>
<svg width="24px" height="24px" viewBox="0 0 24 24" version="1.1" xmlns="http://www.w3.org/2000/svg" xmlns:xlink="http://www.w3.org/1999/xlink">
    <!-- Generator: Sketch 56 (81588) - https://sketch.com -->
    <title>emotion_angry@16</title>
    <desc>Created with Sketch.</desc>
    <defs>
        <polygon id="path-1" points="0 0.997 24.003 0.997 24.003 24.9997926 0 24.9997926"></polygon>
    </defs>
    <g id="emotion_angry" stroke="none" stroke-width="1" fill="none" fill-rule="evenodd">
        <g id="Group-14" transform="translate(0.000000, -1.000000)">
            <g id="Group-3" transform="translate(0.000000, 0.003200)">
                <mask id="mask-2" fill="white">
                    <use xlink:href="#path-1"></use>
                </mask>
                <g id="Clip-2"></g>
                <path d="M1.8297,19.364 C-1.6873,13.747 0.0177,6.342 5.6357,2.826 C11.2537,-0.69 18.6577,1.014 22.1737,6.633 C25.6897,12.251 23.9857,19.655 18.3677,23.171 C12.7497,26.686 5.3457,24.982 1.8297,19.364" id="Fill-1" fill="#F9493E" mask="url(#mask-2)"></path>
            </g>
            <path d="M8.8639,12.4121 C8.8639,13.2411 8.2529,13.9121 7.4989,13.9121 C6.7449,13.9121 6.1339,13.2411 6.1339,12.4121 C6.1339,11.5841 6.7449,10.9121 7.4989,10.9121 C8.2529,10.9121 8.8639,11.5841 8.8639,12.4121" id="Fill-4" fill="#4C4023"></path>
            <path d="M16.0241,12.4121 C16.0241,13.2411 15.4131,13.9121 14.6591,13.9121 C13.9041,13.9121 13.2931,13.2411 13.2931,12.4121 C13.2931,11.5841 13.9041,10.9121 14.6591,10.9121 C15.4131,10.9121 16.0241,11.5841 16.0241,12.4121" id="Fill-6" fill="#4C4023"></path>
            <path d="M8.8073,10.0215 L4.3083,6.7255 C3.9783,6.4745 3.9143,6.0035 4.1653,5.6745 C4.4153,5.3455 4.8863,5.2815 5.2163,5.5315 L9.6443,9.0845 C9.9743,9.3345 10.0003,9.8225 9.7863,10.0685 C9.4873,10.4115 8.9433,10.1255 8.8073,10.0215" id="Fill-8" fill="#4C4023"></path>
            <path d="M13.9899,10.1465 L18.4899,6.8505 C18.8199,6.5995 18.8839,6.1285 18.6329,5.7985 C18.3829,5.4695 17.9119,5.4055 17.5819,5.6555 L13.1999,9.1395 C12.8699,9.3905 12.7969,9.9115 13.0109,10.1565 C13.3099,10.5005 13.8539,10.2495 13.9899,10.1465" id="Fill-10" fill="#4C4023"></path>
            <path d="M6.776,18.3135 L15.888,18.3135" id="Stroke-12" stroke="#4C4023" stroke-width="1.5" stroke-linecap="round"></path>
        </g>
    </g>
</svg>