<svg xmlns="http://www.w3.org/2000/svg" viewBox="0 0 84 67" width="84" height="67"><g class="uk-icon-alternate-dark" version="1.1"><g fill="#000" stroke="none" stroke-width="1" fill-rule="evenodd" fill-opacity=".05"><path d="M68.648 13.286c8.016.667 12.074 5.109 14.197 11.786 2.124 6.676-4.764 23.041-8.825 28.752-4.06 5.71-17.882 16.775-33.03 10.518-15.147-6.257-13.18-20.541-7.74-26.403 5.438-5.861 11.404-4.348 17.178-13.208 5.775-8.86 10.204-12.111 18.22-11.445ZM44 58a4 4 0 1 0 0-8 4 4 0 0 0 0 8Zm13.5-1a3.5 3.5 0 1 0 0-7 3.5 3.5 0 0 0 0 7Zm10-7a2.5 2.5 0 1 0 0-5 2.5 2.5 0 0 0 0 5ZM8 0l20 23.5 1.5 8.5-9-1L0 7.5z"/></g></g><g class="uk-icon-alternate-default" version="1.1"><g fill="#000" stroke="none" stroke-width="1" fill-rule="evenodd" fill-opacity=".05"><path d="M68.648 13.286c8.016.667 12.074 5.109 14.197 11.786 2.124 6.676-4.764 23.041-8.825 28.752-4.06 5.71-17.882 16.775-33.03 10.518-15.147-6.257-13.18-20.541-7.74-26.403 5.438-5.861 11.404-4.348 17.178-13.208 5.775-8.86 10.204-12.111 18.22-11.445ZM44 58a4 4 0 1 0 0-8 4 4 0 0 0 0 8Zm13.5-1a3.5 3.5 0 1 0 0-7 3.5 3.5 0 0 0 0 7Zm10-7a2.5 2.5 0 1 0 0-5 2.5 2.5 0 0 0 0 5ZM8 0l20 23.5 1.5 8.5-9-1L0 7.5z"/></g></g></svg>