<svg width="20" height="20" viewBox="0 0 20 20" fill="none" xmlns="http://www.w3.org/2000/svg">
<path fill-rule="evenodd" clip-rule="evenodd" d="M14.5 7H5.5C4.94772 7 4.5 7.44772 4.5 8V12C4.5 12.5523 4.94772 13 5.5 13H14.5C15.0523 13 15.5 12.5523 15.5 12V8C15.5 7.44772 15.0523 7 14.5 7ZM5.5 5.5C4.11929 5.5 3 6.61929 3 8V12C3 13.3807 4.11929 14.5 5.5 14.5H14.5C15.8807 14.5 17 13.3807 17 12V8C17 6.61929 15.8807 5.5 14.5 5.5H5.5Z" fill="#27292A"/>
<path d="M3.5 10H1" stroke="#27292A" stroke-width="1.5" stroke-linecap="round"/>
<path d="M19 10H16.5" stroke="#27292A" stroke-width="1.5" stroke-linecap="round"/>
</svg>
