<svg width="20" height="20" viewBox="0 0 20 20" fill="none" xmlns="http://www.w3.org/2000/svg">
<path d="M16.6114 10.0921L17.9394 9.63534C18.5033 9.44141 19.0474 9.97279 18.8668 10.5411L17.6875 14.2525C17.5349 14.7327 16.9512 14.915 16.5525 14.6068L13.5921 12.3192C13.1352 11.9662 13.2537 11.2468 13.7997 11.0591L14.9882 10.6503C13.749 8.37874 11.6633 6.53288 8.77982 6.84235C6.54633 7.22169 5.65633 8.41631 4.51181 9.99454C4.70818 10.2874 4.82273 10.6397 4.82273 11.0188C4.82273 12.0359 3.99822 12.8604 2.98113 12.8604C1.96404 12.8604 1.13953 12.0359 1.13953 11.0188C1.13953 10.0018 1.96404 9.17725 2.98113 9.17725C2.9889 9.17725 2.99667 9.1773 3.00442 9.17739C3.04824 9.11696 3.09212 9.05626 3.13614 8.99536C4.29442 7.39295 5.549 5.6573 8.52333 5.16161L8.54617 5.15781L8.56919 5.15525C12.5628 4.71148 15.1962 7.36861 16.6114 10.0921Z" fill="#27292A"/>
</svg>
