<svg width="16" height="16" viewBox="0 0 16 16" fill="none" xmlns="http://www.w3.org/2000/svg">
<path d="M11.0303 3.46967C10.7374 3.17678 10.2626 3.17678 9.96967 3.46967C9.67678 3.76256 9.67678 4.23744 9.96967 4.53033L11.1893 5.75H3C2.58579 5.75 2.25 6.08579 2.25 6.5C2.25 6.91421 2.58579 7.25 3 7.25H12.7586C13.5158 7.25 13.8951 6.33443 13.3596 5.79896L11.0303 3.46967Z" fill="white"/>
<path d="M4.96967 12.5303C5.26256 12.8232 5.73744 12.8232 6.03033 12.5303C6.32322 12.2374 6.32322 11.7626 6.03033 11.4697L4.81066 10.25H13C13.4142 10.25 13.75 9.91421 13.75 9.5C13.75 9.08579 13.4142 8.75 13 8.75H3.24142C2.48415 8.75 2.10491 9.66557 2.64038 10.201L4.96967 12.5303Z" fill="white"/>
</svg>
