<svg width="16" height="16" viewBox="0 0 16 16" fill="none" xmlns="http://www.w3.org/2000/svg">
<path fill-rule="evenodd" clip-rule="evenodd" d="M1.30386 14C1.5985 14 1.85807 13.8974 2.18077 13.7127L10.4659 9.03991C11.0692 8.69783 11.3217 8.43102 11.3217 8C11.3217 7.56899 11.0692 7.30901 10.4659 6.96009L2.18077 2.28734C1.85807 2.10262 1.5985 2 1.30386 2C0.728605 2 0.321716 2.43101 0.321716 3.10832V12.8917C0.321716 13.5758 0.728604 14 1.30386 14ZM9.05268 8L1.92172 12.0218L1.92172 3.97817L9.05268 8Z" fill="#27292A"/>
<path d="M7.74571 2.3216C7.37104 2.08743 6.87748 2.20133 6.64332 2.576C6.40915 2.95067 6.52305 3.44423 6.89772 3.6784L13.8123 8L6.89771 12.3216C6.52305 12.5558 6.40915 13.0493 6.64331 13.424C6.87748 13.7987 7.37104 13.9126 7.74571 13.6784L15.0673 9.10239C15.882 8.59323 15.882 7.40677 15.0673 6.8976L7.74571 2.3216Z" fill="#27292A"/>
</svg>
