<?xml version="1.0" encoding="UTF-8" standalone="no"?>
<svg width="16px" height="16px" viewBox="0 0 16 16" version="1.1" xmlns="http://www.w3.org/2000/svg" xmlns:xlink="http://www.w3.org/1999/xlink" xmlns:sketch="http://www.bohemiancoding.com/sketch/ns">
    <!-- Generator: Sketch 3.3.3 (12072) - http://www.bohemiancoding.com/sketch -->
    <title>Triangle 29</title>
    <desc>Created with Sketch.</desc>
    <defs></defs>
    <g id="Page-1" stroke="none" stroke-width="1" fill="none" fill-rule="evenodd" sketch:type="MSPage">
        <path d="M7.98923533,1.90088346 C8.31577632,1.90088346 15.3437577,12.9181501 14.9778427,13.4869894 C14.7995582,13.7641444 7.98923525,13.7751463 7.98923525,13.7751463 C7.98923525,13.7751463 1.15070553,13.7611234 1.000628,13.4869894 C0.707948567,12.9523766 7.66269433,1.90088346 7.98923533,1.90088346 Z" id="Triangle-29" stroke="#EB7F3C" stroke-width="1.5" sketch:type="MSShapeGroup"></path>
        <path d="M8.39,10.4 L7.54,10.4 L7.54,4.9 L8.39,4.9 L8.39,10.4 Z M7.97,11.19 C8.1633343,11.19 8.32499935,11.2549994 8.455,11.385 C8.58500065,11.5150007 8.65,11.6733324 8.65,11.86 C8.65,12.0466676 8.583334,12.206666 8.45,12.34 C8.316666,12.473334 8.15833425,12.54 7.975,12.54 C7.79166575,12.54 7.633334,12.473334 7.5,12.34 C7.366666,12.206666 7.3,12.0466676 7.3,11.86 C7.3,11.6733324 7.366666,11.5150007 7.5,11.385 C7.633334,11.2549994 7.7899991,11.19 7.97,11.19 L7.97,11.19 Z" id="!-copy-2" fill="#EB7F3C" sketch:type="MSShapeGroup"></path>
    </g>
</svg>