<svg xmlns="http://www.w3.org/2000/svg" width="150" height="97" viewBox="0 0 150 97">
    <g fill="none" fill-rule="evenodd">
        <path fill="#FACCCF" d="M119.938 72.767c-6.238-9.493-9.643-14.814-10.214-15.961-.57-1.148-.43-5.063.42-11.747l-1.78-3.251-21.326.73 6.395 13.599L104.3 82.072l12.95-1.921 2.687-7.384z"/>
        <path fill="#FACCCF" d="M109.575 44.231c-2.86-6.124-4.015-15.913-3.295-20.406.72-4.493-6.442-3.426-7.748-.934-1.305 2.49 0 12.76 1.238 15.904-2.84-4.78-4.583-10.736-4.25-14.97.333-4.234-6.867-2.512-7.548 1.526-.68 4.038 2.602 13.444 4.346 16.176-2.078-2.448-3.634-8.475-4.346-10.322-.712-1.848-4.033-.483-4.633 2.81-.6 3.294 4.278 10.351 5.345 11.165"/>
        <path fill="#FACCCF" d="M116.445 68.166c-1.81-2.844-4.312-8.749-3.635-10.711.752-2.183 2.323-5.036 2.643-7.81.295-2.561 3.002-6.921 4.286-8.659 3.396-4.593-1.084-6.79-3.294-5.353-2.21 1.437-6.656 5.177-7.238 7.589-4.127 0-6.628 6.587-8.586 10.43M85.563 37.943c-1.47.306-2.685 2.07-2.19 5.488.496 3.418 1.589 5.49 2.19 7.252.601 1.763 4.563 14.205 11.271 14.259.983 2.123 3.222 6.054 6.719 11.793-10.28-20.729-15.458-32.497-15.532-35.304-.04-1.486-2.28-3.525-2.458-3.488z"/>
        <path fill="#FFBE27" d="M100.241 73.472c-.143.782 1.64 4.744 5.348 11.888l17.752-6.74c-4.474-8.652-7.027-12.957-7.658-12.916-.948.061-15.227 6.595-15.442 7.768z"/>
        <path fill="#FFBE27" d="M120.202 71.877c1.376.052 5.777 9.22 10.036 13.586-2.032 8.784-11.203 7.014-18.427 11.187-2.541-2.56-9.207-14.53-8.97-16.003.1-.612 2.12 0 4.136-.997 1.22-.603 1.718-2.348 3.838-3.235 2.121-.887 3.511-.28 4.631-1.04a8.796 8.796 0 0 0 1.877-1.677c1.002-1.248 1.962-1.855 2.88-1.82z"/>
        <path fill="#EF8B89" d="M83.378 36.238l1.644 3.494 3.914 6.976 1.07.739-3.059-5.605z"/>
        <path fill="#F1A03C" d="M108.632 68.811c-2.146 1.025-2.378 1.77-.697 2.235 2.52.697 5.921.248 7.714-.327 1.794-.576 4.397 2.618 4.397 6.172s6.715 10.94 7.838 11.946c.748.67 1.547-.391 2.396-3.186l-9.427-13.742c-2.465-4.028-4.2-6.042-5.204-6.042-1.004 0-3.343.981-7.017 2.944z"/>
        <path fill="#FACCCF" d="M34.714 63.671c4.47-3.43 6.991-5.718 7.562-6.865.57-1.148.43-5.063-.42-11.747l1.78-3.251 20.785-.282-5.854 14.61L47.943 74.51l-13.141-8.552-.088-2.286z"/>
        <path fill="#FACCCF" d="M42.425 44.231c2.86-6.124 1.372-11.412.652-15.905-.72-4.493 4.385-6.215 5.691-3.724 1.306 2.491 2.802 11.872 2.531 13.98-.27 2.11 2.024-11.04 1.017-15.09-1.008-4.05 5.806-4.378 6.486-.34.68 4.038.54 11.37-.537 14.416 1.662-2.727 2.235-7.322 2.235-10.027 0-2.704 5.082-3.293 5.682 0 .6 3.293-1.407 14.297-2.474 15.11"/>
        <path fill="#FACCCF" d="M34.253 64.092c2.29-1.705 5.614-4.675 4.937-6.637-.752-2.183-2.56-4.016-2.88-6.79-.295-2.56-1.613-4.688-2.898-6.426-3.396-4.593.28-7.589 2.49-6.151 2.21 1.437 5.444 4.432 6.025 6.844 4.128 0 8.67.66 10.627 4.503M67.727 30.964c1.47.306.495 4.843 0 8.26-.495 3.418.059 5.574-.542 7.337-.602 1.762-3.166 11.246-11.971 16.3-.983 2.124-3.372 5.945-7.166 11.466C59.79 49.007 65.7 34.944 65.775 32.137c.04-1.486 1.774-1.21 1.952-1.173z"/>
        <path fill="#525D69" d="M33.771 62.807c-11.217 10.96-18.246 17.895-21.085 20.806 2.032 8.783 12.687 8.343 19.91 12.516 2.542-2.559 16.59-18.849 17.096-22.255.506-3.407-7.401-5.31-9.637-7.743-1.49-1.623-3.584-2.73-6.284-3.324z"/>
        <path fill="#36414C" d="M36.1 64.907c-.634.576 1.445 3.162 2.9 3.982 4.23 2.384 4.667 5.356 3.416 7.71-3.445 6.486-17.043 15.357-9.82 19.53 2.542-2.559 16.59-18.849 17.096-22.255.506-3.407-6.082-4.649-8.483-6.912-2.401-2.264-4.477-2.631-5.11-2.055z"/>
        <path fill="#4A9AE8" d="M149.38 50.362l-4.501-4.613-1.78 8.182z"/>
        <path fill="#F59369" d="M12 24.101l6.445.033-4.65 6.965z"/>
        <circle cx="70.5" cy="80.5" r="3.5" fill="#DFCF0E"/>
        <path stroke="#F17F5F" d="M133 28.166l3.562.79 1.624-3.432 3.023 1.065 1.93-3.589"/>
        <path stroke="#4A9AE8" d="M80.823 11.72l3.043-2.014-1.341-3.553L85.39 4.72 84.15.837M.807 63.07l3.346 1.455 2.25-3.06 2.763 1.623 2.58-3.155"/>
        <circle cx="114.5" cy="9.5" r="2.5" fill="#DFCF0E"/>
        <path fill="#F59369" d="M136 69v5.269h4.589V69z"/>
        <path stroke="#DFCF0E" d="M48.845 11.94L41 5"/>
    </g>
</svg>
