<svg xmlns="http://www.w3.org/2000/svg" width="22" height="22" viewBox="0 0 22 22">
    <g fill="none" fill-rule="evenodd">
        <circle cx="11" cy="11" r="11" fill="#50CBAE"/>
        <path fill="#FFF" fill-rule="nonzero" d="M6.2 9.632H4.684c-.25 0-.454.278-.454.62v4.364c0 .341.204.62.454.62H6.2c.25 0 .455-.279.455-.62v-4.364c0-.342-.204-.62-.455-.62zm11.73 1.481c-.101-.385-.445-.53-.574-.645-.011-.027-.05-.023.001-.043.176-.205.393-.488.393-.825 0-.41-.188-.745-.53-.944-.229-.133-.416-.143-.678-.143h-3.228c-.244 0-.375-.03-.44-.052-.008-.087.028-.27.043-.343.249-1.26.44-2.874-.042-3.46a.68.68 0 0 0-.541-.258c-.86 0-1.144.565-1.374 1.319-.14.459-.325 1.045-.802 1.777-.866 1.329-2.052 1.905-2.612 2.162-.268.124-.426.418-.414.757v4.17c.011.323.85.636 1.117.76 1.497.703 2.363 1.23 4.65 1.23l.777-.002c.64 0 2.332-.536 2.643-.859.26-.271.39-.648.372-1.087a.263.263 0 0 1 .146-.233c.42-.225.599-.654.648-1.142.025-.24-.07-.48-.181-.751.005-.021.025-.036.059-.054.541-.29.668-.95.567-1.334z"/>
    </g>
</svg>
