<svg width="84" height="112" viewBox="0 0 84 112" fill="none" xmlns="http://www.w3.org/2000/svg">
<g clip-path="url(#clip0_5467_24814)">
<rect width="84" height="112" fill="#FAE4E8"/>
<path d="M21.4165 -8.92649C25.0645 -11.8372 30.4485 -10.8119 32.7714 -6.76411L37.6401 1.72009C38.8473 3.82373 40.9843 5.22655 43.3946 5.49749L53.1153 6.59021C57.753 7.11155 60.8351 11.6437 59.6154 16.1484L57.0589 25.5903C56.425 27.9314 56.9442 30.4345 58.4569 32.3304L64.5578 39.9766C67.4685 43.6246 66.4432 49.0087 62.3954 51.3315L53.9112 56.2003C51.8076 57.4075 50.4048 59.5445 50.1338 61.9547L49.0411 71.6754C48.5198 76.3131 43.9876 79.3953 39.4829 78.1755L30.041 75.619C27.6999 74.9851 25.1968 75.5043 23.3009 77.017L15.6547 83.1179C12.0067 86.0286 6.62262 85.0033 4.29977 80.9556L-0.568964 72.4714C-1.77616 70.3677 -3.9132 68.9649 -6.32343 68.694L-16.0441 67.6012C-20.6818 67.0799 -23.7639 62.5478 -22.5442 58.0431L-19.9877 48.6011C-19.3538 46.26 -19.873 43.7569 -21.3857 41.8611L-27.4866 34.2148C-30.3973 30.5668 -29.372 25.1828 -25.3243 22.8599L-16.8401 17.9912C-14.7364 16.784 -13.3336 14.647 -13.0627 12.2367L-11.9699 2.516C-11.4486 -2.1217 -6.91648 -5.2038 -2.41178 -3.9841L7.03018 -1.42758C9.37129 -0.793693 11.8743 -1.31287 13.7702 -2.82558L21.4165 -8.92649Z" fill="#F4B7B8"/>
<path d="M11.5456 56.4961C11.7536 56.5521 11.9776 56.6001 12.2176 56.6401C12.4576 56.6721 12.7216 56.6881 13.0096 56.6881C13.4976 56.6881 13.9296 56.6201 14.3056 56.4841C14.6816 56.3481 14.9936 56.1641 15.2416 55.9321C15.4976 55.6921 15.6896 55.4201 15.8176 55.1161C15.9456 54.8041 16.0096 54.4721 16.0096 54.1201C16.0096 53.7841 15.9536 53.4641 15.8416 53.1601C15.7296 52.8481 15.5576 52.5801 15.3256 52.3561C15.1016 52.1241 14.8176 51.9401 14.4736 51.8041C14.1296 51.6681 13.7256 51.6001 13.2616 51.6001H10.4536V60.0001H11.5456V56.4961ZM11.5456 52.1281H12.8056C13.1416 52.1281 13.4376 52.1881 13.6936 52.3081C13.9496 52.4281 14.1616 52.5881 14.3296 52.7881C14.4976 52.9801 14.6216 53.2001 14.7016 53.4481C14.7896 53.6881 14.8336 53.9281 14.8336 54.1681C14.8336 54.4001 14.7936 54.6361 14.7136 54.8761C14.6416 55.1081 14.5216 55.3201 14.3536 55.5121C14.1856 55.7041 13.9736 55.8601 13.7176 55.9801C13.4616 56.1001 13.1536 56.1601 12.7936 56.1601C12.5456 56.1601 12.3176 56.1521 12.1096 56.1361C11.9016 56.1121 11.7136 56.0681 11.5456 56.0041V52.1281Z" fill="black"/>
<path d="M17.717 54.0001V60.0001H18.737V54.0001H17.717ZM17.573 52.1041C17.573 52.2801 17.637 52.4321 17.765 52.5601C17.893 52.6881 18.045 52.7521 18.221 52.7521C18.397 52.7521 18.549 52.6881 18.677 52.5601C18.805 52.4321 18.869 52.2801 18.869 52.1041C18.869 51.9281 18.805 51.7761 18.677 51.6481C18.549 51.5201 18.397 51.4561 18.221 51.4561C18.045 51.4561 17.893 51.5201 17.765 51.6481C17.637 51.7761 17.573 51.9281 17.573 52.1041Z" fill="black"/>
<path d="M20.4244 54.4801V54.0001H21.4684V52.1521H22.4884V54.0001H23.9404V54.4801H22.4884V58.4641C22.4884 58.5601 22.4924 58.6721 22.5004 58.8001C22.5084 58.9201 22.5324 59.0361 22.5724 59.1481C22.6124 59.2521 22.6724 59.3401 22.7524 59.4121C22.8404 59.4841 22.9604 59.5201 23.1124 59.5201C23.3044 59.5201 23.4644 59.4481 23.5924 59.3041C23.7204 59.1601 23.8244 59.0041 23.9044 58.8361L24.4684 59.4121C24.0764 59.8041 23.6324 60.0001 23.1364 60.0001C22.9284 60.0001 22.7244 59.9641 22.5244 59.8921C22.3244 59.8201 22.1444 59.7121 21.9844 59.5681C21.8324 59.4161 21.7084 59.2241 21.6124 58.9921C21.5164 58.7601 21.4684 58.4881 21.4684 58.1761V54.4801H20.4244Z" fill="black"/>
<path d="M28.5364 59.5201C28.2484 59.5201 27.9684 59.4761 27.6964 59.3881C27.4324 59.3001 27.1964 59.1601 26.9884 58.9681C26.7804 58.7681 26.6124 58.5081 26.4844 58.1881C26.3644 57.8601 26.3044 57.4601 26.3044 56.9881C26.3044 56.5001 26.3724 56.0881 26.5084 55.7521C26.6444 55.4081 26.8124 55.1361 27.0124 54.9361C27.2204 54.7281 27.4484 54.5801 27.6964 54.4921C27.9444 54.3961 28.1804 54.3481 28.4044 54.3481C28.7724 54.3481 29.0924 54.4441 29.3644 54.6361C29.6364 54.8281 29.8164 55.0641 29.9044 55.3441H30.7324C30.6524 55.0561 30.5244 54.8201 30.3484 54.6361C30.1724 54.4441 29.9684 54.2921 29.7364 54.1801C29.5124 54.0601 29.2684 53.9801 29.0044 53.9401C28.7484 53.8921 28.5004 53.8681 28.2604 53.8681C27.7564 53.8681 27.3124 53.9521 26.9284 54.1201C26.5444 54.2801 26.2204 54.5001 25.9564 54.7801C25.6924 55.0601 25.4924 55.3881 25.3564 55.7641C25.2284 56.1401 25.1644 56.5401 25.1644 56.9641C25.1644 57.4121 25.2364 57.8321 25.3804 58.2241C25.5244 58.6081 25.7284 58.9441 25.9924 59.2321C26.2644 59.5121 26.5884 59.7361 26.9644 59.9041C27.3404 60.0641 27.7644 60.1441 28.2364 60.1441C28.7644 60.1441 29.2244 60.0561 29.6164 59.8801C30.0164 59.7041 30.3524 59.5121 30.6244 59.3041L30.2764 58.8481C29.9964 59.0801 29.7164 59.2521 29.4364 59.3641C29.1644 59.4681 28.8644 59.5201 28.5364 59.5201Z" fill="black"/>
<path d="M32.0517 51.6001V60.0001H33.0717V56.5321C33.0717 56.3721 33.0837 56.1761 33.1077 55.9441C33.1317 55.7121 33.1957 55.4881 33.2997 55.2721C33.4117 55.0561 33.5757 54.8721 33.7917 54.7201C34.0077 54.5601 34.3077 54.4801 34.6917 54.4801C34.9637 54.4801 35.1797 54.5321 35.3397 54.6361C35.5077 54.7321 35.6357 54.8641 35.7237 55.0321C35.8117 55.2001 35.8677 55.3961 35.8917 55.6201C35.9237 55.8441 35.9397 56.0761 35.9397 56.3161V60.0001H36.9597V56.0401C36.9597 55.5921 36.8957 55.2281 36.7677 54.9481C36.6397 54.6601 36.4797 54.4361 36.2877 54.2761C36.0957 54.1161 35.8837 54.0081 35.6517 53.9521C35.4277 53.8961 35.2117 53.8681 35.0037 53.8681C34.7237 53.8681 34.4277 53.9241 34.1157 54.0361C33.8117 54.1401 33.5237 54.3441 33.2517 54.6481L33.1197 54.8161H33.0717V51.6001H32.0517Z" fill="black"/>
<path d="M44.3751 51.6001H43.5591V60.0001H44.0871V53.1481H44.1351L47.8431 60.1441H48.0591L51.8511 53.1961H51.8991V60.0001H52.9911V51.6001H52.1631L48.2751 58.8121H48.2271L44.3751 51.6001Z" fill="black"/>
<path d="M61.2515 57.0121C61.2515 57.4281 61.1795 57.8281 61.0355 58.2121C60.8915 58.5881 60.6835 58.9201 60.4115 59.2081C60.1475 59.4961 59.8235 59.7241 59.4395 59.8921C59.0635 60.0601 58.6395 60.1441 58.1675 60.1441C57.6875 60.1441 57.2515 60.0601 56.8595 59.8921C56.4755 59.7161 56.1475 59.4841 55.8755 59.1961C55.6115 58.9081 55.4035 58.5761 55.2515 58.2001C55.1075 57.8161 55.0355 57.4201 55.0355 57.0121C55.0355 56.5961 55.1075 56.2001 55.2515 55.8241C55.4035 55.4401 55.6115 55.1041 55.8755 54.8161C56.1475 54.5281 56.4755 54.3001 56.8595 54.1321C57.2515 53.9561 57.6875 53.8681 58.1675 53.8681C58.6395 53.8681 59.0635 53.9561 59.4395 54.1321C59.8235 54.3001 60.1475 54.5281 60.4115 54.8161C60.6835 55.1041 60.8915 55.4401 61.0355 55.8241C61.1795 56.2001 61.2515 56.5961 61.2515 57.0121ZM60.1115 57.0121C60.1115 56.4521 60.0515 56.0001 59.9315 55.6561C59.8115 55.3041 59.6555 55.0321 59.4635 54.8401C59.2715 54.6481 59.0595 54.5201 58.8275 54.4561C58.5955 54.3841 58.3715 54.3481 58.1555 54.3481C57.9395 54.3481 57.7155 54.3841 57.4835 54.4561C57.2515 54.5201 57.0355 54.6481 56.8355 54.8401C56.6435 55.0321 56.4835 55.3041 56.3555 55.6561C56.2355 56.0001 56.1755 56.4521 56.1755 57.0121C56.1755 57.5641 56.2355 58.0161 56.3555 58.3681C56.4835 58.7121 56.6435 58.9801 56.8355 59.1721C57.0355 59.3641 57.2515 59.4961 57.4835 59.5681C57.7155 59.6321 57.9395 59.6641 58.1555 59.6641C58.3715 59.6641 58.5955 59.6321 58.8275 59.5681C59.0595 59.4961 59.2715 59.3641 59.4635 59.1721C59.6555 58.9801 59.8115 58.7121 59.9315 58.3681C60.0515 58.0161 60.1115 57.5641 60.1115 57.0121Z" fill="black"/>
<path d="M68.1415 51.6001H67.1215V54.9841H67.0735C66.9935 54.7761 66.8855 54.6041 66.7495 54.4681C66.6215 54.3241 66.4735 54.2081 66.3055 54.1201C66.1375 54.0321 65.9575 53.9681 65.7655 53.9281C65.5815 53.8881 65.3935 53.8681 65.2015 53.8681C64.8015 53.8681 64.4335 53.9441 64.0975 54.0961C63.7615 54.2401 63.4695 54.4481 63.2215 54.7201C62.9815 54.9921 62.7935 55.3201 62.6575 55.7041C62.5215 56.0881 62.4535 56.5161 62.4535 56.9881C62.4535 57.4681 62.5215 57.9041 62.6575 58.2961C62.7935 58.6801 62.9815 59.0121 63.2215 59.2921C63.4695 59.5641 63.7615 59.7761 64.0975 59.9281C64.4335 60.0721 64.8015 60.1441 65.2015 60.1441C66.1455 60.1441 66.7695 59.7721 67.0735 59.0281H67.1215V60.0001H68.1415V51.6001ZM67.1215 57.6001C67.1215 57.8641 67.0775 58.1161 66.9895 58.3561C66.9015 58.5881 66.7815 58.7921 66.6295 58.9681C66.4855 59.1361 66.3095 59.2721 66.1015 59.3761C65.9015 59.4721 65.6855 59.5201 65.4535 59.5201C65.1975 59.5201 64.9575 59.4761 64.7335 59.3881C64.5095 59.2921 64.3135 59.1441 64.1455 58.9441C63.9775 58.7441 63.8415 58.4841 63.7375 58.1641C63.6415 57.8441 63.5935 57.4601 63.5935 57.0121C63.5935 56.5561 63.6415 56.1681 63.7375 55.8481C63.8415 55.5281 63.9775 55.2681 64.1455 55.0681C64.3215 54.8601 64.5215 54.7121 64.7455 54.6241C64.9695 54.5281 65.2055 54.4801 65.4535 54.4801C65.6775 54.4801 65.8895 54.5281 66.0895 54.6241C66.2895 54.7121 66.4655 54.8481 66.6175 55.0321C66.7695 55.2081 66.8895 55.4241 66.9775 55.6801C67.0735 55.9361 67.1215 56.2281 67.1215 56.5561V57.6001Z" fill="black"/>
<path d="M75.3836 57.2641V57.0121C75.3836 56.4761 75.3076 56.0121 75.1556 55.6201C75.0036 55.2281 74.7956 54.9041 74.5316 54.6481C74.2756 54.3921 73.9756 54.2001 73.6316 54.0721C73.2876 53.9441 72.9236 53.8801 72.5396 53.8801C72.1316 53.8801 71.7556 53.9521 71.4116 54.0961C71.0676 54.2321 70.7676 54.4361 70.5116 54.7081C70.2556 54.9721 70.0556 55.2961 69.9116 55.6801C69.7676 56.0561 69.6956 56.4841 69.6956 56.9641C69.6956 57.3641 69.7556 57.7561 69.8756 58.1401C70.0036 58.5161 70.1916 58.8561 70.4396 59.1601C70.6956 59.4561 71.0156 59.6961 71.3996 59.8801C71.7916 60.0561 72.2516 60.1441 72.7796 60.1441C73.2916 60.1441 73.7636 60.0561 74.1956 59.8801C74.6276 59.6961 75.0036 59.4361 75.3236 59.1001L74.9396 58.7161C74.7716 58.8601 74.6116 58.9921 74.4596 59.1121C74.3156 59.2321 74.1676 59.3321 74.0156 59.4121C73.8636 59.4921 73.7036 59.5561 73.5356 59.6041C73.3756 59.6441 73.1956 59.6641 72.9956 59.6641C72.7716 59.6641 72.5316 59.6321 72.2756 59.5681C72.0276 59.4961 71.7956 59.3721 71.5796 59.1961C71.3636 59.0201 71.1836 58.7761 71.0396 58.4641C70.8956 58.1521 70.8236 57.7521 70.8236 57.2641H75.3836ZM70.8236 56.7841C70.8236 56.4641 70.8556 56.1561 70.9196 55.8601C70.9916 55.5561 71.0956 55.2881 71.2316 55.0561C71.3756 54.8241 71.5556 54.6401 71.7716 54.5041C71.9876 54.3601 72.2436 54.2881 72.5396 54.2881C73.1076 54.2881 73.5476 54.5121 73.8596 54.9601C74.1796 55.4001 74.3396 56.0081 74.3396 56.7841H70.8236Z" fill="black"/>
</g>
<defs>
<clipPath id="clip0_5467_24814">
<rect width="84" height="112" fill="white"/>
</clipPath>
</defs>
</svg>
