<?xml version="1.0" encoding="UTF-8"?>
<svg width="24px" height="24px" viewBox="0 0 24 24" version="1.1" xmlns="http://www.w3.org/2000/svg" xmlns:xlink="http://www.w3.org/1999/xlink">
    <!-- Generator: Sketch 56 (81588) - https://sketch.com -->
    <title>emotion_cry_laugh@16</title>
    <desc>Created with Sketch.</desc>
    <defs>
        <polygon id="path-1" points="2.25082953e-05 0.000122508295 23.9999363 0.000122508295 23.9999363 24 2.25082953e-05 24"></polygon>
        <polygon id="path-3" points="0.760563808 0.546523721 9 0.546523721 9 4.86956492 0.760563808 4.86956492"></polygon>
    </defs>
    <g id="emotion_cry_laugh" stroke="none" stroke-width="1" fill="none" fill-rule="evenodd">
        <g id="Group-17">
            <g id="Group-3">
                <mask id="mask-2" fill="white">
                    <use xlink:href="#path-1"></use>
                </mask>
                <g id="Clip-2"></g>
                <path d="M1.8291,18.3652 C-1.6859,12.7482 0.0171,5.3442 5.6351,1.8292 C11.2521,-1.6858 18.6551,0.0172 22.1711,5.6352 C25.6861,11.2522 23.9821,18.6552 18.3651,22.1712 C12.7481,25.6862 5.3451,23.9822 1.8291,18.3652" id="Fill-1" fill="#F7C839" mask="url(#mask-2)"></path>
            </g>
            <path d="M6.0536,15.6259 C5.7906,15.5269 5.6816,15.0799 5.7846,14.7549 C6.2776,13.2039 6.6186,11.4089 6.8286,10.5299 C5.9906,10.6919 4.2506,11.0839 2.8466,11.5999 C2.5266,11.7169 2.1586,11.6369 2.0456,11.3159 C1.9466,11.0369 2.1626,10.8039 2.4816,10.6849 C7.0696,8.9999 7.6136,9.2459 7.8406,9.3999 C8.0366,9.5309 8.1526,9.7409 8.1596,9.9739 C8.1796,10.6209 7.2266,13.7539 6.7926,15.0639 C6.6246,15.5679 6.2176,15.6869 6.0536,15.6259 L6.0536,15.6259 Z" id="Fill-4" fill="#4C4023"></path>
            <path d="M15.7976,7.7067 C14.4286,7.8717 11.1676,8.1797 10.5376,8.0307 C10.3106,7.9767 10.1296,7.8217 10.0396,7.6037 C9.9336,7.3507 9.8006,6.7677 12.3686,2.6097 C12.5476,2.3207 12.8196,2.1557 13.0736,2.3067 C13.3666,2.4827 13.3706,2.8587 13.1916,3.1487 C12.4056,4.4227 11.6746,6.0487 11.3486,6.8367 C12.2526,6.8067 14.0786,6.8307 15.6976,6.6577 C16.0356,6.6207 16.4526,6.8177 16.4966,7.0947 C16.5246,7.2677 16.3266,7.6427 15.7976,7.7067 L15.7976,7.7067 Z" id="Fill-6" fill="#4C4023"></path>
            <path d="M7.3579,17.6885 L12.7129,13.0635 L17.4129,18.5055 C14.2309,21.2535 9.6939,21.2275 7.2559,18.4465 C7.0719,18.2365 7.1179,17.8965 7.3579,17.6885 Z M18.0684,8.4385 C18.3084,8.2305 18.6514,8.2355 18.8334,8.4485 C21.2294,11.2655 20.5954,15.7575 17.4134,18.5055 L12.7134,13.0635 L18.0684,8.4385 Z" id="Combined-Shape" fill="#4C4023"></path>
            <g id="Group-14" transform="translate(15.000000, 4.000000)">
                <mask id="mask-4" fill="white">
                    <use xlink:href="#path-3"></use>
                </mask>
                <g id="Clip-13"></g>
                <path d="M0.8633,1.8022 C0.7363,1.7672 0.7233,1.5952 0.8453,1.5442 C1.7163,1.1762 4.0163,0.3342 6.3183,0.5962 C8.2753,0.8202 9.7543,2.6392 8.5873,4.1562 C7.3763,5.7322 5.4713,4.3192 4.4423,3.5242 C3.1293,2.5102 1.5693,1.9972 0.8633,1.8022" id="Fill-12" fill="#3DE2DE" mask="url(#mask-4)"></path>
            </g>
            <path d="M4.9893,14.9946 C4.9883,14.8626 4.8243,14.8076 4.7433,14.9116 C4.1673,15.6606 2.7703,17.6726 2.4413,19.9656 C2.1613,21.9166 3.5463,23.8066 5.3103,23.0626 C7.1413,22.2896 6.2573,20.0906 5.7483,18.8926 C5.0993,17.3656 4.9993,15.7266 4.9893,14.9946" id="Fill-15" fill="#3DE2DE"></path>
        </g>
    </g>
</svg>