<svg width="15" height="12" viewBox="0 0 15 12" fill="none" xmlns="http://www.w3.org/2000/svg">
<path fill-rule="evenodd" clip-rule="evenodd" d="M0.25 2C0.25 1.0335 1.0335 0.25 2 0.25H13C13.9665 0.25 14.75 1.0335 14.75 2V10C14.75 10.9665 13.9665 11.75 13 11.75H7.5C7.08579 11.75 6.75 11.4142 6.75 11C6.75 10.5858 7.08579 10.25 7.5 10.25H13C13.1381 10.25 13.25 10.1381 13.25 10V2C13.25 1.86193 13.1381 1.75 13 1.75H2C1.86193 1.75 1.75 1.86193 1.75 2L1.75 4.5C1.75 4.91421 1.41421 5.25 1 5.25C0.585788 5.25 0.250001 4.91421 0.250001 4.5L0.25 2ZM5.22463 6.45041C5.52817 6.73226 5.54574 7.20681 5.26389 7.51034L2.71992 10.25H3.78572C4.19993 10.25 4.53572 10.5858 4.53572 11C4.53572 11.4142 4.19993 11.75 3.78572 11.75H1C0.585787 11.75 0.250001 11.4142 0.250001 11V8C0.250001 7.58579 0.585787 7.25 1 7.25C1.41421 7.25 1.75 7.58579 1.75 8V9.09011L4.1647 6.48966C4.44655 6.18613 4.9211 6.16855 5.22463 6.45041Z" fill="#FAFAFA"/>
</svg>
