<svg width="60" height="61" viewBox="0 0 60 61" fill="none" xmlns="http://www.w3.org/2000/svg">
<mask id="path-1-outside-1_50_2069" maskUnits="userSpaceOnUse" x="14.2535" y="7.10498" width="31" height="48" fill="black">
<rect fill="white" x="14.2535" y="7.10498" width="31" height="48"/>
<path fill-rule="evenodd" clip-rule="evenodd" d="M26.1719 9.10498C25.6748 9.10498 25.2719 9.50792 25.2719 10.005V12.6255H19.6465C18.0449 12.6255 16.7465 13.9239 16.7465 15.5255V49.8055C16.7465 51.4071 18.0449 52.7055 19.6465 52.7055H40.3536C41.9552 52.7055 43.2536 51.4071 43.2536 49.8055V15.5255C43.2536 13.9239 41.9552 12.6255 40.3536 12.6255H35.3786V10.005C35.3786 9.50792 34.9756 9.10498 34.4786 9.10498H26.1719ZM33.5786 12.6255H27.0718V10.905H33.5786V12.6255ZM34.4799 14.4255H40.3536C40.9611 14.4255 41.4536 14.918 41.4536 15.5255V49.8055C41.4536 50.413 40.9611 50.9055 40.3536 50.9055H19.6465C19.039 50.9055 18.5465 50.413 18.5465 49.8055V15.5255C18.5465 14.918 19.039 14.4255 19.6465 14.4255H26.1705C26.171 14.4255 26.1714 14.4255 26.1719 14.4255H34.4786C34.479 14.4255 34.4795 14.4255 34.4799 14.4255Z"/>
</mask>
<path fill-rule="evenodd" clip-rule="evenodd" d="M26.1719 9.10498C25.6748 9.10498 25.2719 9.50792 25.2719 10.005V12.6255H19.6465C18.0449 12.6255 16.7465 13.9239 16.7465 15.5255V49.8055C16.7465 51.4071 18.0449 52.7055 19.6465 52.7055H40.3536C41.9552 52.7055 43.2536 51.4071 43.2536 49.8055V15.5255C43.2536 13.9239 41.9552 12.6255 40.3536 12.6255H35.3786V10.005C35.3786 9.50792 34.9756 9.10498 34.4786 9.10498H26.1719ZM33.5786 12.6255H27.0718V10.905H33.5786V12.6255ZM34.4799 14.4255H40.3536C40.9611 14.4255 41.4536 14.918 41.4536 15.5255V49.8055C41.4536 50.413 40.9611 50.9055 40.3536 50.9055H19.6465C19.039 50.9055 18.5465 50.413 18.5465 49.8055V15.5255C18.5465 14.918 19.039 14.4255 19.6465 14.4255H26.1705C26.171 14.4255 26.1714 14.4255 26.1719 14.4255H34.4786C34.479 14.4255 34.4795 14.4255 34.4799 14.4255Z" fill="#F8F9FA"/>
<path d="M25.2718 12.6255H26.7718C26.7718 13.454 26.1003 14.1255 25.2718 14.1255V12.6255ZM35.3786 12.6255V14.1255C34.5501 14.1255 33.8786 13.454 33.8786 12.6255H35.3786ZM33.5786 12.6255H35.0786C35.0786 13.454 34.407 14.1255 33.5786 14.1255V12.6255ZM27.0718 12.6255V14.1255C26.2434 14.1255 25.5718 13.454 25.5718 12.6255H27.0718ZM27.0718 10.905H25.5718C25.5718 10.0766 26.2434 9.40498 27.0718 9.40498V10.905ZM33.5786 10.905V9.40498C34.407 9.40498 35.0786 10.0766 35.0786 10.905H33.5786ZM23.7718 10.005C23.7718 8.6795 24.8463 7.60498 26.1718 7.60498V10.605C26.5032 10.605 26.7718 10.3364 26.7718 10.005H23.7718ZM23.7718 12.6255V10.005H26.7718V12.6255H23.7718ZM25.2718 14.1255H19.6465V11.1255H25.2718V14.1255ZM19.6465 14.1255C18.8733 14.1255 18.2465 14.7523 18.2465 15.5255H15.2465C15.2465 13.0955 17.2164 11.1255 19.6465 11.1255V14.1255ZM18.2465 15.5255V49.8055H15.2465V15.5255H18.2465ZM18.2465 49.8055C18.2465 50.5787 18.8733 51.2055 19.6465 51.2055V54.2055C17.2164 54.2055 15.2465 52.2355 15.2465 49.8055H18.2465ZM19.6465 51.2055H40.3535V54.2055H19.6465V51.2055ZM40.3535 51.2055C41.1267 51.2055 41.7535 50.5787 41.7535 49.8055H44.7535C44.7535 52.2355 42.7836 54.2055 40.3535 54.2055V51.2055ZM41.7535 49.8055V15.5255H44.7535V49.8055H41.7535ZM41.7535 15.5255C41.7535 14.7523 41.1267 14.1255 40.3535 14.1255V11.1255C42.7836 11.1255 44.7535 13.0955 44.7535 15.5255H41.7535ZM40.3535 14.1255H35.3786V11.1255H40.3535V14.1255ZM36.8786 10.005V12.6255H33.8786V10.005H36.8786ZM34.4786 7.60498C35.804 7.60498 36.8786 8.6795 36.8786 10.005H33.8786C33.8786 10.3364 34.1472 10.605 34.4786 10.605V7.60498ZM26.1718 7.60498H34.4786V10.605H26.1718V7.60498ZM33.5786 14.1255H27.0718V11.1255H33.5786V14.1255ZM28.5718 10.905V12.6255H25.5718V10.905H28.5718ZM33.5786 12.405H27.0718V9.40498H33.5786V12.405ZM32.0786 12.6255V10.905H35.0786V12.6255H32.0786ZM34.4799 12.9255H40.3535V15.9255H34.4799V12.9255ZM40.3535 12.9255C41.7895 12.9255 42.9535 14.0896 42.9535 15.5255H39.9535C39.9535 15.7464 40.1326 15.9255 40.3535 15.9255V12.9255ZM42.9535 15.5255V49.8055H39.9535V15.5255H42.9535ZM42.9535 49.8055C42.9535 51.2414 41.7895 52.4055 40.3535 52.4055V49.4055C40.1326 49.4055 39.9535 49.5846 39.9535 49.8055H42.9535ZM40.3535 52.4055H19.6465V49.4055H40.3535V52.4055ZM19.6465 52.4055C18.2106 52.4055 17.0465 51.2414 17.0465 49.8055H20.0465C20.0465 49.5846 19.8674 49.4055 19.6465 49.4055V52.4055ZM17.0465 49.8055V15.5255H20.0465V49.8055H17.0465ZM17.0465 15.5255C17.0465 14.0896 18.2106 12.9255 19.6465 12.9255V15.9255C19.8674 15.9255 20.0465 15.7464 20.0465 15.5255H17.0465ZM19.6465 12.9255H26.1705V15.9255H19.6465V12.9255ZM26.1718 15.9255C26.1707 15.9255 26.1696 15.9255 26.1695 15.9255C26.1692 15.9255 26.1698 15.9255 26.1705 15.9255V12.9255C26.1717 12.9255 26.1727 12.9255 26.1728 12.9255C26.1731 12.9255 26.1726 12.9255 26.1718 12.9255V15.9255ZM34.4786 15.9255H26.1718V12.9255H34.4786V15.9255ZM34.4799 15.9255C34.4806 15.9255 34.4812 15.9255 34.4808 15.9255C34.4808 15.9255 34.4797 15.9255 34.4786 15.9255V12.9255C34.4778 12.9255 34.4773 12.9255 34.4776 12.9255C34.4777 12.9255 34.4787 12.9255 34.4799 12.9255V15.9255Z" fill="#F8F9FA" mask="url(#path-1-outside-1_50_2069)"/>
<rect width="38.28" height="24.707" rx="2" transform="matrix(0 1 1 0 17.6465 13.4827)" fill="#F1F3F5" stroke="#212529" stroke-width="1.8" stroke-linejoin="round"/>
<rect x="26.1719" y="9.96216" width="8.30673" height="3.52055" fill="#FFD43B" stroke="#212529" stroke-width="1.8" stroke-linecap="round" stroke-linejoin="round"/>
<g style="mix-blend-mode:multiply">
<path fill-rule="evenodd" clip-rule="evenodd" d="M17.7185 50.0454H39.7056C40.2579 50.0454 40.7056 49.5977 40.7056 49.0454V13.2627C41.6423 13.429 42.3536 14.2474 42.3536 15.2318V49.5118C42.3536 50.6163 41.4581 51.5118 40.3536 51.5118H19.6465C18.7268 51.5118 17.952 50.8909 17.7185 50.0454Z" fill="#DEE2E6"/>
</g>
<path d="M21.0977 44.3406H38.9022V47.2252C38.9022 47.7775 38.4545 48.2252 37.9022 48.2252H22.0977C21.5454 48.2252 21.0977 47.7775 21.0977 47.2252V44.3406Z" fill="#69DB7C" stroke="#212529" stroke-width="1.2" stroke-linecap="round" stroke-linejoin="round"/>
<rect x="21.0977" y="40.4561" width="17.8045" height="3.88461" fill="#69DB7C" stroke="#212529" stroke-width="1.2" stroke-linecap="round" stroke-linejoin="round"/>
<rect x="21.0977" y="36.5713" width="17.8045" height="3.88461" fill="#69DB7C" stroke="#212529" stroke-width="1.2" stroke-linecap="round" stroke-linejoin="round"/>
<rect x="21.0977" y="32.6868" width="17.8045" height="3.88461" fill="#69DB7C" stroke="#212529" stroke-width="1.2" stroke-linecap="round" stroke-linejoin="round"/>
<path d="M21.0977 29.8022C21.0977 29.25 21.5454 28.8022 22.0977 28.8022H37.9022C38.4545 28.8022 38.9022 29.25 38.9022 29.8022V32.6869H21.0977V29.8022Z" fill="#69DB7C" stroke="#212529" stroke-width="1.2" stroke-linecap="round" stroke-linejoin="round"/>
</svg>
