<svg width="60" height="61" viewBox="0 0 60 61" fill="none" xmlns="http://www.w3.org/2000/svg">
<mask id="path-1-outside-1_50_777" maskUnits="userSpaceOnUse" x="5.13293" y="13.4851" width="50" height="41" fill="black">
<rect fill="white" x="5.13293" y="13.4851" width="50" height="41"/>
<path fill-rule="evenodd" clip-rule="evenodd" d="M9.63751 18.3851C9.63751 16.7835 10.9359 15.4851 12.5375 15.4851H47.4625C49.0641 15.4851 50.3625 16.7835 50.3625 18.3851V39.1104H50.5222C51.8173 39.1104 52.8671 40.1602 52.8671 41.4552C52.8671 42.7502 51.8173 43.8001 50.5222 43.8001H32.3637L39.4023 50.7552C39.7951 51.1434 39.7989 51.7765 39.4107 52.1694C39.0225 52.5622 38.3894 52.566 37.9965 52.1778L30 44.2761L22.0035 52.1778C21.6107 52.566 20.9775 52.5622 20.5893 52.1694C20.2012 51.7765 20.2049 51.1434 20.5978 50.7552L27.6363 43.8001H9.47779C8.18276 43.8001 7.13293 42.7502 7.13293 41.4552C7.13293 40.1602 8.18276 39.1104 9.47779 39.1104H9.63751V18.3851ZM9.76839 40.7104H9.47779C9.06642 40.7104 8.73293 41.0439 8.73293 41.4552C8.73293 41.8666 9.06642 42.2001 9.47779 42.2001H10.843C10.3395 41.837 9.95725 41.3163 9.76839 40.7104ZM49.157 42.2001H50.5222C50.9336 42.2001 51.2671 41.8666 51.2671 41.4552C51.2671 41.0439 50.9336 40.7104 50.5222 40.7104H50.2316C50.0427 41.3163 49.6605 41.837 49.157 42.2001ZM48.1434 40.7104C47.9561 40.8582 47.7196 40.9464 47.4625 40.9464H12.5375C12.2804 40.9464 12.0439 40.8582 11.8566 40.7104H48.1434ZM48.5625 39.1104H11.4375V18.3851C11.4375 17.7776 11.93 17.2851 12.5375 17.2851H47.4625C48.07 17.2851 48.5625 17.7776 48.5625 18.3851V39.1104Z"/>
</mask>
<path fill-rule="evenodd" clip-rule="evenodd" d="M9.63751 18.3851C9.63751 16.7835 10.9359 15.4851 12.5375 15.4851H47.4625C49.0641 15.4851 50.3625 16.7835 50.3625 18.3851V39.1104H50.5222C51.8173 39.1104 52.8671 40.1602 52.8671 41.4552C52.8671 42.7502 51.8173 43.8001 50.5222 43.8001H32.3637L39.4023 50.7552C39.7951 51.1434 39.7989 51.7765 39.4107 52.1694C39.0225 52.5622 38.3894 52.566 37.9965 52.1778L30 44.2761L22.0035 52.1778C21.6107 52.566 20.9775 52.5622 20.5893 52.1694C20.2012 51.7765 20.2049 51.1434 20.5978 50.7552L27.6363 43.8001H9.47779C8.18276 43.8001 7.13293 42.7502 7.13293 41.4552C7.13293 40.1602 8.18276 39.1104 9.47779 39.1104H9.63751V18.3851ZM9.76839 40.7104H9.47779C9.06642 40.7104 8.73293 41.0439 8.73293 41.4552C8.73293 41.8666 9.06642 42.2001 9.47779 42.2001H10.843C10.3395 41.837 9.95725 41.3163 9.76839 40.7104ZM49.157 42.2001H50.5222C50.9336 42.2001 51.2671 41.8666 51.2671 41.4552C51.2671 41.0439 50.9336 40.7104 50.5222 40.7104H50.2316C50.0427 41.3163 49.6605 41.837 49.157 42.2001ZM48.1434 40.7104C47.9561 40.8582 47.7196 40.9464 47.4625 40.9464H12.5375C12.2804 40.9464 12.0439 40.8582 11.8566 40.7104H48.1434ZM48.5625 39.1104H11.4375V18.3851C11.4375 17.7776 11.93 17.2851 12.5375 17.2851H47.4625C48.07 17.2851 48.5625 17.7776 48.5625 18.3851V39.1104Z" fill="#F8F9FA"/>
<path d="M50.3625 39.1104H48.8625C48.8625 39.9388 49.534 40.6104 50.3625 40.6104V39.1104ZM32.3637 43.8001V42.3001C31.7554 42.3001 31.2073 42.6675 30.9762 43.2302C30.7451 43.7929 30.8767 44.4395 31.3094 44.867L32.3637 43.8001ZM39.4023 50.7552L40.4566 49.6882L40.4566 49.6882L39.4023 50.7552ZM39.4107 52.1694L38.3437 51.115L38.3437 51.115L39.4107 52.1694ZM37.9965 52.1778L39.0508 51.1108L39.0508 51.1108L37.9965 52.1778ZM30 44.2761L31.0543 43.2091C30.47 42.6318 29.53 42.6318 28.9457 43.2091L30 44.2761ZM22.0035 52.1778L20.9492 51.1108L20.9492 51.1108L22.0035 52.1778ZM20.5893 52.1694L21.6563 51.115L21.6563 51.115L20.5893 52.1694ZM20.5978 50.7552L19.5435 49.6882L19.5435 49.6882L20.5978 50.7552ZM27.6363 43.8001L28.6906 44.867C29.1233 44.4395 29.255 43.7929 29.0238 43.2302C28.7927 42.6675 28.2446 42.3001 27.6363 42.3001V43.8001ZM9.63751 39.1104V40.6104C10.4659 40.6104 11.1375 39.9388 11.1375 39.1104H9.63751ZM9.76839 40.7104L11.2004 40.264C11.0051 39.6373 10.4249 39.2104 9.76839 39.2104V40.7104ZM10.843 42.2001V43.7001C11.4938 43.7001 12.0704 43.2804 12.2704 42.6611C12.4704 42.0418 12.2483 41.3642 11.7204 40.9835L10.843 42.2001ZM49.157 42.2001L48.2796 40.9835C47.7517 41.3642 47.5296 42.0418 47.7296 42.6611C47.9296 43.2804 48.5062 43.7001 49.157 43.7001V42.2001ZM50.2316 40.7104V39.2104C49.5751 39.2104 48.9949 39.6373 48.7995 40.264L50.2316 40.7104ZM48.1434 40.7104L49.0727 41.8878C49.5742 41.4921 49.7699 40.8221 49.5605 40.2185C49.351 39.615 48.7822 39.2104 48.1434 39.2104V40.7104ZM11.8566 40.7104V39.2104C11.2177 39.2104 10.649 39.615 10.4395 40.2185C10.23 40.8221 10.4258 41.4921 10.9273 41.8878L11.8566 40.7104ZM11.4375 39.1104H9.93751C9.93751 39.9388 10.6091 40.6104 11.4375 40.6104V39.1104ZM48.5625 39.1104V40.6104C49.3909 40.6104 50.0625 39.9388 50.0625 39.1104H48.5625ZM12.5375 13.9851C10.1075 13.9851 8.13751 15.9551 8.13751 18.3851H11.1375C11.1375 17.6119 11.7643 16.9851 12.5375 16.9851V13.9851ZM47.4625 13.9851H12.5375V16.9851H47.4625V13.9851ZM51.8625 18.3851C51.8625 15.9551 49.8925 13.9851 47.4625 13.9851V16.9851C48.2357 16.9851 48.8625 17.6119 48.8625 18.3851H51.8625ZM51.8625 39.1104V18.3851H48.8625V39.1104H51.8625ZM50.3625 40.6104H50.5222V37.6104H50.3625V40.6104ZM50.5222 40.6104C50.9888 40.6104 51.3671 40.9886 51.3671 41.4552H54.3671C54.3671 39.3318 52.6457 37.6104 50.5222 37.6104V40.6104ZM51.3671 41.4552C51.3671 41.9218 50.9888 42.3001 50.5222 42.3001V45.3001C52.6457 45.3001 54.3671 43.5787 54.3671 41.4552H51.3671ZM50.5222 42.3001H32.3637V45.3001H50.5222V42.3001ZM40.4566 49.6882L33.4181 42.7331L31.3094 44.867L38.348 51.8221L40.4566 49.6882ZM40.4777 53.2237C41.4482 52.2416 41.4387 50.6587 40.4566 49.6882L38.348 51.8221C38.1515 51.628 38.1496 51.3115 38.3437 51.115L40.4777 53.2237ZM36.9422 53.2447C37.9243 54.2152 39.5072 54.2058 40.4777 53.2237L38.3437 51.115C38.5378 50.9186 38.8544 50.9167 39.0508 51.1108L36.9422 53.2447ZM28.9457 45.3431L36.9422 53.2448L39.0508 51.1108L31.0543 43.2091L28.9457 45.3431ZM23.0579 53.2448L31.0543 45.3431L28.9457 43.2091L20.9492 51.1108L23.0579 53.2448ZM19.5224 53.2237C20.4928 54.2058 22.0757 54.2152 23.0579 53.2448L20.9492 51.1108C21.1456 50.9167 21.4622 50.9186 21.6563 51.115L19.5224 53.2237ZM19.5435 49.6882C18.5614 50.6587 18.5519 52.2416 19.5224 53.2237L21.6563 51.115C21.8504 51.3115 21.8485 51.628 21.6521 51.8221L19.5435 49.6882ZM26.582 42.7331L19.5435 49.6882L21.6521 51.8221L28.6906 44.867L26.582 42.7331ZM27.6363 42.3001H9.47779V45.3001H27.6363V42.3001ZM9.47779 42.3001C9.01119 42.3001 8.63293 41.9218 8.63293 41.4552H5.63293C5.63293 43.5787 7.35433 45.3001 9.47779 45.3001V42.3001ZM8.63293 41.4552C8.63293 40.9886 9.01119 40.6104 9.47779 40.6104V37.6104C7.35433 37.6104 5.63293 39.3318 5.63293 41.4552H8.63293ZM9.47779 40.6104H9.63751V37.6104H9.47779V40.6104ZM8.13751 18.3851V39.1104H11.1375V18.3851H8.13751ZM9.76839 39.2104H9.47779V42.2104H9.76839V39.2104ZM9.47779 39.2104C8.23799 39.2104 7.23293 40.2154 7.23293 41.4552H10.2329C10.2329 41.8723 9.89484 42.2104 9.47779 42.2104V39.2104ZM7.23293 41.4552C7.23293 42.695 8.23799 43.7001 9.47779 43.7001V40.7001C9.89485 40.7001 10.2329 41.0382 10.2329 41.4552H7.23293ZM9.47779 43.7001H10.843V40.7001H9.47779V43.7001ZM8.33633 41.1567C8.62372 42.0788 9.20396 42.8674 9.96556 43.4167L11.7204 40.9835C11.4751 40.8066 11.2908 40.5539 11.2004 40.264L8.33633 41.1567ZM49.157 43.7001H50.5222V40.7001H49.157V43.7001ZM50.5222 43.7001C51.762 43.7001 52.7671 42.695 52.7671 41.4552H49.7671C49.7671 41.0382 50.1052 40.7001 50.5222 40.7001V43.7001ZM52.7671 41.4552C52.7671 40.2154 51.762 39.2104 50.5222 39.2104V42.2104C50.1052 42.2104 49.7671 41.8723 49.7671 41.4552H52.7671ZM50.5222 39.2104H50.2316V42.2104H50.5222V39.2104ZM50.0344 43.4167C50.796 42.8674 51.3763 42.0788 51.6637 41.1567L48.7995 40.264C48.7092 40.5539 48.5249 40.8066 48.2796 40.9835L50.0344 43.4167ZM47.2141 39.5329C47.282 39.4793 47.3705 39.4464 47.4625 39.4464V42.4464C48.0687 42.4464 48.6302 42.2371 49.0727 41.8878L47.2141 39.5329ZM47.4625 39.4464H12.5375V42.4464H47.4625V39.4464ZM12.5375 39.4464C12.6295 39.4464 12.7179 39.4793 12.7859 39.5329L10.9273 41.8878C11.3698 42.2371 11.9313 42.4464 12.5375 42.4464V39.4464ZM48.1434 39.2104H11.8566V42.2104H48.1434V39.2104ZM11.4375 40.6104H48.5625V37.6104H11.4375V40.6104ZM12.9375 39.1104V18.3851H9.93751V39.1104H12.9375ZM12.9375 18.3851C12.9375 18.606 12.7584 18.7851 12.5375 18.7851V15.7851C11.1016 15.7851 9.93751 16.9492 9.93751 18.3851H12.9375ZM12.5375 18.7851H47.4625V15.7851H12.5375V18.7851ZM47.4625 18.7851C47.2416 18.7851 47.0625 18.606 47.0625 18.3851H50.0625C50.0625 16.9492 48.8984 15.7851 47.4625 15.7851V18.7851ZM47.0625 18.3851V39.1104H50.0625V18.3851H47.0625Z" fill="#F8F9FA" mask="url(#path-1-outside-1_50_777)"/>
<path d="M21.3005 51.4618L29.8685 42.9954" stroke="#212529" stroke-width="2" stroke-linecap="round" stroke-linejoin="round"/>
<path d="M38.6992 51.4618L30.1312 42.9954" stroke="#212529" stroke-width="2" stroke-linecap="round" stroke-linejoin="round"/>
<rect x="10.5375" y="16.3804" width="38.925" height="25.4613" rx="2" fill="#69DB7C" stroke="#212529" stroke-width="1.8" stroke-linejoin="round"/>
<path d="M35.7257 23.2067H43.5312" stroke="#212529" stroke-width="1.6" stroke-linecap="round" stroke-linejoin="round"/>
<path d="M35.7257 26.6448H41.6921" stroke="#212529" stroke-width="1.6" stroke-linecap="round" stroke-linejoin="round"/>
<rect x="7.93286" y="39.9056" width="44.1341" height="3.08971" rx="1.54485" fill="#748FFC" stroke="#212529" stroke-width="1.6" stroke-linejoin="round"/>
<path d="M15.7017 26.6112C18.5899 24.5134 25.6811 22.2924 28.6337 22.5386C32.3243 22.8463 20.253 28.2693 21.2919 29.7193C21.8013 30.4303 31.7151 26.2834 31.0159 28.2338C30.4565 29.794 18.8963 34.824 28.7079 33.9653" stroke="#F8F9FA" stroke-width="1.6" stroke-linecap="round"/>
<rect x="35.9926" y="37.0665" width="6.73098" height="2.8391" rx="1" fill="#F8F9FA" stroke="#212529" stroke-width="1.6" stroke-linecap="round"/>
</svg>
