<svg width="60" height="61" viewBox="0 0 60 61" fill="none" xmlns="http://www.w3.org/2000/svg">
<mask id="path-1-outside-1_50_3401" maskUnits="userSpaceOnUse" x="9.45435" y="3.42334" width="41" height="51" fill="black">
<rect fill="white" x="9.45435" y="3.42334" width="41" height="51"/>
<path fill-rule="evenodd" clip-rule="evenodd" d="M26.1076 5.57748C26.4643 5.3168 26.9648 5.39465 27.2255 5.75138C27.6646 6.35224 28.3078 7.37605 28.8447 8.53788C29.3744 9.6843 29.8418 11.0522 29.8418 12.314C29.8418 12.7558 29.4836 13.114 29.0417 13.114C28.5999 13.114 28.2418 12.7558 28.2418 12.314C28.2418 11.3987 27.8884 10.2828 27.3922 9.20901C26.9032 8.15059 26.3153 7.21764 25.9337 6.69541C25.673 6.33868 25.7509 5.83817 26.1076 5.57748ZM37.9528 15.9692C38.3143 15.0252 39.0658 13.5908 40.1169 12.4078C41.1772 11.2145 42.4351 10.3925 43.8147 10.3925C44.2566 10.3925 44.6147 10.0343 44.6147 9.59249C44.6147 9.15066 44.2566 8.79249 43.8148 8.79248C41.7733 8.79246 40.1154 10.0007 38.9209 11.3451C37.7172 12.6998 36.8747 14.3107 36.4587 15.3969C36.3006 15.8095 36.507 16.2721 36.9196 16.4301C37.3322 16.5882 37.7948 16.3818 37.9528 15.9692ZM19.7723 14.1326C18.5164 13.7942 17.1571 13.7869 16.305 13.8861C15.8661 13.9371 15.469 13.6227 15.4179 13.1839C15.3669 12.745 15.6812 12.3478 16.1201 12.2968C17.1255 12.1798 18.6949 12.1853 20.1885 12.5877C21.6717 12.9873 23.2388 13.8265 23.9471 15.5009C24.1193 15.9078 23.929 16.3772 23.522 16.5494C23.1151 16.7215 22.6457 16.5312 22.4736 16.1243C22.0416 15.1031 21.0385 14.4737 19.7723 14.1326ZM19.3324 19.4148C19.1123 19.4148 18.8984 19.4874 18.7238 19.6213C14.3059 23.0093 11.4543 28.3449 11.4543 34.3462C11.4543 44.5886 19.7575 52.8918 30 52.8918C40.2424 52.8918 48.5456 44.5886 48.5456 34.3462C48.5456 28.3449 45.694 23.0093 41.2761 19.6213C41.1015 19.4874 40.8876 19.4148 40.6676 19.4148H19.3324ZM13.4543 34.3462C13.4543 29.1134 15.8824 24.4482 19.6772 21.4148H40.3227C44.1175 24.4482 46.5456 29.1134 46.5456 34.3462C46.5456 43.484 39.1379 50.8918 30 50.8918C20.8621 50.8918 13.4543 43.484 13.4543 34.3462ZM34.2575 41.3929L34.2576 41.3919C34.3437 40.85 34.8511 40.478 35.3947 40.5602C35.9407 40.6427 36.3165 41.1523 36.234 41.6984L35.2452 41.549C36.234 41.6984 36.2339 41.699 36.2338 41.6996L36.2336 41.7009L36.2332 41.7038L36.2321 41.7107L36.2291 41.7288C36.2267 41.7428 36.2235 41.7605 36.2194 41.7818C36.2112 41.8242 36.1994 41.8809 36.1829 41.9497C36.15 42.0871 36.0981 42.2745 36.019 42.4953C35.8617 42.935 35.5916 43.521 35.1374 44.1098C34.1998 45.3251 32.5527 46.449 29.8167 46.449C27.0865 46.449 25.3599 45.3322 24.3307 44.1582C23.8273 43.5839 23.5025 43.0107 23.3024 42.5785C23.202 42.3616 23.1316 42.1775 23.0851 42.0426C23.0618 41.975 23.0444 41.9195 23.032 41.878C23.0258 41.8573 23.0209 41.84 23.0172 41.8264L23.0124 41.8089L23.0107 41.8023L23.01 41.7996L23.0097 41.7983C23.0095 41.7978 23.0094 41.7972 23.9781 41.549L23.0094 41.7972C22.8723 41.2622 23.1948 40.7174 23.7298 40.5803C24.2626 40.4437 24.8052 40.7631 24.945 41.2941L24.9489 41.3075C24.9536 41.3231 24.9623 41.3514 24.9758 41.3905C25.0028 41.4688 25.0484 41.5894 25.1173 41.7381C25.2557 42.0372 25.4833 42.439 25.8346 42.8397C26.5149 43.6157 27.7077 44.449 29.8167 44.449C31.9198 44.449 32.987 43.6229 33.5539 42.8881C33.8519 42.5019 34.0316 42.113 34.136 41.8213C34.1878 41.6766 34.2198 41.5593 34.238 41.4834C34.2471 41.4456 34.2526 41.4184 34.2554 41.4037L34.2575 41.3929ZM45.4524 16.6257C46.0931 16.6257 46.6125 16.1063 46.6125 15.4656C46.6125 14.8248 46.0931 14.3054 45.4524 14.3054C44.8116 14.3054 44.2922 14.8248 44.2922 15.4656C44.2922 16.1063 44.8116 16.6257 45.4524 16.6257ZM20.7555 9.0545C20.7555 9.51904 20.3789 9.89562 19.9144 9.89562C19.4499 9.89562 19.0733 9.51904 19.0733 9.0545C19.0733 8.58996 19.4499 8.21338 19.9144 8.21338C20.3789 8.21338 20.7555 8.58996 20.7555 9.0545ZM32.2795 13.9962C32.744 13.9962 33.1206 13.6196 33.1206 13.1551C33.1206 12.6905 32.744 12.314 32.2795 12.314C31.8149 12.314 31.4384 12.6905 31.4384 13.1551C31.4384 13.6196 31.8149 13.9962 32.2795 13.9962Z"/>
</mask>
<path fill-rule="evenodd" clip-rule="evenodd" d="M26.1076 5.57748C26.4643 5.3168 26.9648 5.39465 27.2255 5.75138C27.6646 6.35224 28.3078 7.37605 28.8447 8.53788C29.3744 9.6843 29.8418 11.0522 29.8418 12.314C29.8418 12.7558 29.4836 13.114 29.0417 13.114C28.5999 13.114 28.2418 12.7558 28.2418 12.314C28.2418 11.3987 27.8884 10.2828 27.3922 9.20901C26.9032 8.15059 26.3153 7.21764 25.9337 6.69541C25.673 6.33868 25.7509 5.83817 26.1076 5.57748ZM37.9528 15.9692C38.3143 15.0252 39.0658 13.5908 40.1169 12.4078C41.1772 11.2145 42.4351 10.3925 43.8147 10.3925C44.2566 10.3925 44.6147 10.0343 44.6147 9.59249C44.6147 9.15066 44.2566 8.79249 43.8148 8.79248C41.7733 8.79246 40.1154 10.0007 38.9209 11.3451C37.7172 12.6998 36.8747 14.3107 36.4587 15.3969C36.3006 15.8095 36.507 16.2721 36.9196 16.4301C37.3322 16.5882 37.7948 16.3818 37.9528 15.9692ZM19.7723 14.1326C18.5164 13.7942 17.1571 13.7869 16.305 13.8861C15.8661 13.9371 15.469 13.6227 15.4179 13.1839C15.3669 12.745 15.6812 12.3478 16.1201 12.2968C17.1255 12.1798 18.6949 12.1853 20.1885 12.5877C21.6717 12.9873 23.2388 13.8265 23.9471 15.5009C24.1193 15.9078 23.929 16.3772 23.522 16.5494C23.1151 16.7215 22.6457 16.5312 22.4736 16.1243C22.0416 15.1031 21.0385 14.4737 19.7723 14.1326ZM19.3324 19.4148C19.1123 19.4148 18.8984 19.4874 18.7238 19.6213C14.3059 23.0093 11.4543 28.3449 11.4543 34.3462C11.4543 44.5886 19.7575 52.8918 30 52.8918C40.2424 52.8918 48.5456 44.5886 48.5456 34.3462C48.5456 28.3449 45.694 23.0093 41.2761 19.6213C41.1015 19.4874 40.8876 19.4148 40.6676 19.4148H19.3324ZM13.4543 34.3462C13.4543 29.1134 15.8824 24.4482 19.6772 21.4148H40.3227C44.1175 24.4482 46.5456 29.1134 46.5456 34.3462C46.5456 43.484 39.1379 50.8918 30 50.8918C20.8621 50.8918 13.4543 43.484 13.4543 34.3462ZM34.2575 41.3929L34.2576 41.3919C34.3437 40.85 34.8511 40.478 35.3947 40.5602C35.9407 40.6427 36.3165 41.1523 36.234 41.6984L35.2452 41.549C36.234 41.6984 36.2339 41.699 36.2338 41.6996L36.2336 41.7009L36.2332 41.7038L36.2321 41.7107L36.2291 41.7288C36.2267 41.7428 36.2235 41.7605 36.2194 41.7818C36.2112 41.8242 36.1994 41.8809 36.1829 41.9497C36.15 42.0871 36.0981 42.2745 36.019 42.4953C35.8617 42.935 35.5916 43.521 35.1374 44.1098C34.1998 45.3251 32.5527 46.449 29.8167 46.449C27.0865 46.449 25.3599 45.3322 24.3307 44.1582C23.8273 43.5839 23.5025 43.0107 23.3024 42.5785C23.202 42.3616 23.1316 42.1775 23.0851 42.0426C23.0618 41.975 23.0444 41.9195 23.032 41.878C23.0258 41.8573 23.0209 41.84 23.0172 41.8264L23.0124 41.8089L23.0107 41.8023L23.01 41.7996L23.0097 41.7983C23.0095 41.7978 23.0094 41.7972 23.9781 41.549L23.0094 41.7972C22.8723 41.2622 23.1948 40.7174 23.7298 40.5803C24.2626 40.4437 24.8052 40.7631 24.945 41.2941L24.9489 41.3075C24.9536 41.3231 24.9623 41.3514 24.9758 41.3905C25.0028 41.4688 25.0484 41.5894 25.1173 41.7381C25.2557 42.0372 25.4833 42.439 25.8346 42.8397C26.5149 43.6157 27.7077 44.449 29.8167 44.449C31.9198 44.449 32.987 43.6229 33.5539 42.8881C33.8519 42.5019 34.0316 42.113 34.136 41.8213C34.1878 41.6766 34.2198 41.5593 34.238 41.4834C34.2471 41.4456 34.2526 41.4184 34.2554 41.4037L34.2575 41.3929ZM45.4524 16.6257C46.0931 16.6257 46.6125 16.1063 46.6125 15.4656C46.6125 14.8248 46.0931 14.3054 45.4524 14.3054C44.8116 14.3054 44.2922 14.8248 44.2922 15.4656C44.2922 16.1063 44.8116 16.6257 45.4524 16.6257ZM20.7555 9.0545C20.7555 9.51904 20.3789 9.89562 19.9144 9.89562C19.4499 9.89562 19.0733 9.51904 19.0733 9.0545C19.0733 8.58996 19.4499 8.21338 19.9144 8.21338C20.3789 8.21338 20.7555 8.58996 20.7555 9.0545ZM32.2795 13.9962C32.744 13.9962 33.1206 13.6196 33.1206 13.1551C33.1206 12.6905 32.744 12.314 32.2795 12.314C31.8149 12.314 31.4384 12.6905 31.4384 13.1551C31.4384 13.6196 31.8149 13.9962 32.2795 13.9962Z" fill="#F8F9FA"/>
<path d="M27.2255 5.75138L28.4366 4.86635L28.4366 4.86635L27.2255 5.75138ZM26.1076 5.57748L25.2226 4.3664L25.2226 4.3664L26.1076 5.57748ZM28.8447 8.53788L30.2063 7.90871L30.2063 7.90871L28.8447 8.53788ZM29.8418 12.314L31.3418 12.314L31.3418 12.314L29.8418 12.314ZM29.0417 13.114L29.0417 14.614L29.0417 14.614L29.0417 13.114ZM28.2418 12.314L29.7418 12.314L29.7418 12.314L28.2418 12.314ZM27.3922 9.20901L28.7539 8.57983L28.7539 8.57983L27.3922 9.20901ZM25.9337 6.69541L24.7226 7.58044L24.7226 7.58044L25.9337 6.69541ZM40.1169 12.4078L41.2383 13.4041L41.2383 13.4041L40.1169 12.4078ZM37.9528 15.9692L36.552 15.4327L36.552 15.4327L37.9528 15.9692ZM43.8147 10.3925L43.8148 8.89248L43.8148 8.89248L43.8147 10.3925ZM44.6147 9.59249L43.1147 9.59248L44.6147 9.59249ZM43.8148 8.79248L43.8148 7.29248L43.8148 7.29248L43.8148 8.79248ZM38.9209 11.3451L40.0422 12.3414L40.0422 12.3414L38.9209 11.3451ZM36.4587 15.3969L37.8594 15.9334L37.8594 15.9334L36.4587 15.3969ZM36.9196 16.4301L37.4561 15.0294L37.4561 15.0294L36.9196 16.4301ZM16.305 13.8861L16.1317 12.3961L16.1317 12.3961L16.305 13.8861ZM19.7723 14.1326L20.1625 12.6842L20.1625 12.6842L19.7723 14.1326ZM15.4179 13.1839L16.9079 13.0105L16.9079 13.0105L15.4179 13.1839ZM16.1201 12.2968L15.9468 10.8068L15.9468 10.8068L16.1201 12.2968ZM20.1885 12.5877L19.7983 14.036L19.7983 14.036L20.1885 12.5877ZM23.9471 15.5009L25.3286 14.9165L25.3286 14.9165L23.9471 15.5009ZM23.522 16.5494L24.1065 17.9309L24.1065 17.9309L23.522 16.5494ZM22.4736 16.1243L21.0921 16.7087L21.0921 16.7087L22.4736 16.1243ZM18.7238 19.6213L19.6366 20.8116L19.6366 20.8116L18.7238 19.6213ZM41.2761 19.6213L42.1889 18.431L42.1889 18.431L41.2761 19.6213ZM19.6772 21.4148V19.9148C19.3368 19.9148 19.0065 20.0306 18.7406 20.2431L19.6772 21.4148ZM40.3227 21.4148L41.2593 20.2431C40.9934 20.0306 40.6631 19.9148 40.3227 19.9148V21.4148ZM34.2576 41.3919L32.7762 41.1566L32.7746 41.1668L34.2576 41.3919ZM34.2575 41.3929L35.7318 41.6691C35.735 41.6521 35.7379 41.6351 35.7405 41.618L34.2575 41.3929ZM35.3947 40.5602L35.1705 42.0433L35.1705 42.0433L35.3947 40.5602ZM36.234 41.6984L36.0099 43.1815C36.4032 43.241 36.8041 43.1417 37.1243 42.9056C37.4444 42.6695 37.6577 42.3159 37.7172 41.9225L36.234 41.6984ZM35.4694 40.0658C34.6502 39.942 33.8859 40.5057 33.7621 41.3248C33.6383 42.1439 34.202 42.9083 35.0211 43.0321L35.4694 40.0658ZM36.2338 41.6996L37.7166 41.9259L37.7169 41.9239L36.2338 41.6996ZM36.2336 41.7009L37.7158 41.9313L37.7164 41.9272L36.2336 41.7009ZM36.2332 41.7038L37.7147 41.9384L37.7154 41.9342L36.2332 41.7038ZM36.2321 41.7107L37.7118 41.9568L37.7136 41.9453L36.2321 41.7107ZM36.2291 41.7288L37.7076 41.9818L37.7087 41.9749L36.2291 41.7288ZM36.2194 41.7818L34.7464 41.4982L34.7464 41.4983L36.2194 41.7818ZM36.1829 41.9497L37.6415 42.2994L37.6415 42.2994L36.1829 41.9497ZM36.019 42.4953L37.4313 43.0008L37.4313 43.0008L36.019 42.4953ZM35.1374 44.1098L36.325 45.0261L36.325 45.0261L35.1374 44.1098ZM24.3307 44.1582L23.2028 45.147L23.2028 45.147L24.3307 44.1582ZM23.3024 42.5785L24.6635 41.9482L24.6635 41.9482L23.3024 42.5785ZM23.0851 42.0426L21.6671 42.5316L21.6671 42.5317L23.0851 42.0426ZM23.032 41.878L24.4697 41.4502L24.4697 41.4501L23.032 41.878ZM23.0172 41.8264L21.5695 42.2194L21.5713 42.2259L23.0172 41.8264ZM23.0124 41.8089L21.562 42.1915L21.5648 42.2019L23.0124 41.8089ZM23.0107 41.8023L21.559 42.1799L21.5603 42.1848L23.0107 41.8023ZM23.01 41.7996L21.5577 42.1749L21.5583 42.1771L23.01 41.7996ZM23.0097 41.7983L21.5567 42.1711L21.5574 42.1737L23.0097 41.7983ZM24.3504 43.002C25.1529 42.7963 25.6368 41.9791 25.4311 41.1766C25.2254 40.3741 24.4082 39.8902 23.6057 40.0959L24.3504 43.002ZM23.0094 41.7972L21.5563 42.1696C21.6551 42.5549 21.9029 42.8853 22.2452 43.088C22.5875 43.2906 22.9964 43.349 23.3817 43.2502L23.0094 41.7972ZM23.7298 40.5803L23.3574 39.1272L23.3574 39.1272L23.7298 40.5803ZM24.945 41.2941L23.4945 41.6762C23.4976 41.6878 23.5008 41.6995 23.5041 41.7111L24.945 41.2941ZM24.9489 41.3075L23.508 41.7245L23.5112 41.7354L24.9489 41.3075ZM24.9758 41.3905L23.5578 41.8795L23.5578 41.8796L24.9758 41.3905ZM25.1173 41.7381L26.4784 41.1078L26.4784 41.1078L25.1173 41.7381ZM25.8346 42.8397L26.9626 41.8509L26.9626 41.8509L25.8346 42.8397ZM33.5539 42.8881L34.7415 43.8044L34.7415 43.8044L33.5539 42.8881ZM34.136 41.8213L32.7237 41.3159L34.136 41.8213ZM34.238 41.4834L35.6967 41.8331L35.6967 41.8331L34.238 41.4834ZM34.2554 41.4037L35.7284 41.6872L35.7298 41.68L34.2554 41.4037ZM28.4366 4.86635C27.6871 3.84076 26.2481 3.61692 25.2226 4.3664L26.9926 6.78857C26.6805 7.01667 26.2425 6.94854 26.0144 6.63641L28.4366 4.86635ZM30.2063 7.90871C29.6247 6.64993 28.9296 5.54094 28.4366 4.86635L26.0144 6.63641C26.3996 7.16355 26.991 8.10218 27.483 9.16706L30.2063 7.90871ZM31.3418 12.314C31.3418 10.7275 30.7676 9.12346 30.2063 7.90871L27.483 9.16706C27.9811 10.2451 28.3418 11.3769 28.3418 12.314L31.3418 12.314ZM29.0417 14.614C30.312 14.614 31.3417 13.5842 31.3418 12.314L28.3418 12.314C28.3418 11.9274 28.6552 11.614 29.0418 11.614L29.0417 14.614ZM26.7418 12.314C26.7417 13.5842 27.7715 14.614 29.0417 14.614L29.0418 11.614C29.4284 11.614 29.7418 11.9274 29.7418 12.314L26.7418 12.314ZM26.0306 9.83819C26.4955 10.8443 26.7418 11.7238 26.7418 12.314L29.7418 12.314C29.7418 11.0736 29.2814 9.72136 28.7539 8.57983L26.0306 9.83819ZM24.7226 7.58044C25.0504 8.02894 25.5863 8.87671 26.0306 9.83819L28.7539 8.57983C28.22 7.42446 27.5803 6.40633 27.1448 5.81038L24.7226 7.58044ZM25.2226 4.3664C24.197 5.11587 23.9731 6.55485 24.7226 7.58044L27.1448 5.81038C27.3729 6.12252 27.3047 6.56047 26.9926 6.78857L25.2226 4.3664ZM38.9956 11.4115C37.8015 12.7554 36.9647 14.3553 36.552 15.4327L39.3536 16.5057C39.664 15.6951 40.3301 14.4262 41.2383 13.4041L38.9956 11.4115ZM43.8148 8.89248C41.8157 8.89246 40.1829 10.0753 38.9956 11.4115L41.2383 13.4041C42.1716 12.3537 43.0544 11.8925 43.8147 11.8925L43.8148 8.89248ZM43.1147 9.59248C43.1147 9.20587 43.4282 8.89248 43.8148 8.89248L43.8147 11.8925C45.085 11.8925 46.1147 10.8628 46.1147 9.5925L43.1147 9.59248ZM43.8147 10.2925C43.4281 10.2925 43.1147 9.97907 43.1147 9.59248L46.1147 9.5925C46.1148 8.32225 45.085 7.29249 43.8148 7.29248L43.8147 10.2925ZM40.0422 12.3414C41.1117 11.1377 42.3945 10.2925 43.8147 10.2925L43.8148 7.29248C41.1521 7.29245 39.1191 8.86365 37.7995 10.3487L40.0422 12.3414ZM37.8594 15.9334C38.2244 14.9805 38.9815 13.5351 40.0422 12.3414L37.7995 10.3487C36.4528 11.8644 35.525 13.6409 35.0579 14.8605L37.8594 15.9334ZM37.4561 15.0294C37.8171 15.1676 37.9977 15.5724 37.8594 15.9334L35.0579 14.8605C34.6036 16.0467 35.1969 17.3766 36.3831 17.8309L37.4561 15.0294ZM36.552 15.4327C36.6903 15.0717 37.0951 14.8911 37.4561 15.0294L36.3831 17.8309C37.5694 18.2852 38.8993 17.6919 39.3536 16.5057L36.552 15.4327ZM16.4783 15.376C17.1867 15.2936 18.3489 15.3026 19.3821 15.581L20.1625 12.6842C18.6838 12.2859 17.1275 12.2803 16.1317 12.3961L16.4783 15.376ZM13.928 13.3572C14.0747 14.6189 15.2166 15.5228 16.4783 15.376L16.1317 12.3961C16.5157 12.3514 16.8632 12.6265 16.9079 13.0105L13.928 13.3572ZM15.9468 10.8068C14.685 10.9536 13.7812 12.0954 13.928 13.3572L16.9079 13.0105C16.9525 13.3945 16.6774 13.742 16.2934 13.7867L15.9468 10.8068ZM20.5787 11.1393C18.8623 10.6769 17.0958 10.6731 15.9468 10.8068L16.2934 13.7867C17.1551 13.6865 18.5275 13.6937 19.7983 14.036L20.5787 11.1393ZM25.3286 14.9165C24.3606 12.6284 22.2632 11.5932 20.5787 11.1393L19.7983 14.036C21.0802 14.3814 22.117 15.0247 22.5657 16.0853L25.3286 14.9165ZM24.1065 17.9309C25.2763 17.436 25.8235 16.0864 25.3286 14.9165L22.5657 16.0853C22.415 15.7293 22.5816 15.3185 22.9376 15.1679L24.1065 17.9309ZM21.0921 16.7087C21.587 17.8786 22.9366 18.4258 24.1065 17.9309L22.9376 15.1679C23.2937 15.0173 23.7044 15.1838 23.855 15.5399L21.0921 16.7087ZM19.3821 15.581C20.4418 15.8665 20.9184 16.2981 21.0921 16.7087L23.855 15.5399C23.1648 13.9082 21.6352 13.081 20.1625 12.6842L19.3821 15.581ZM19.6366 20.8116C19.5493 20.8785 19.4424 20.9148 19.3324 20.9148V17.9148C18.7823 17.9148 18.2475 18.0962 17.811 18.431L19.6366 20.8116ZM12.9543 34.3462C12.9543 28.8312 15.5728 23.928 19.6366 20.8116L17.811 18.431C13.0389 22.0906 9.95435 27.8586 9.95435 34.3462H12.9543ZM30 51.3918C20.5859 51.3918 12.9543 43.7602 12.9543 34.3462H9.95435C9.95435 45.417 18.9291 54.3918 30 54.3918V51.3918ZM47.0456 34.3462C47.0456 43.7602 39.414 51.3918 30 51.3918V54.3918C41.0709 54.3918 50.0456 45.417 50.0456 34.3462H47.0456ZM40.3633 20.8116C44.4271 23.928 47.0456 28.8312 47.0456 34.3462H50.0456C50.0456 27.8586 46.961 22.0906 42.1889 18.431L40.3633 20.8116ZM40.6676 20.9148C40.5575 20.9148 40.4506 20.8785 40.3633 20.8116L42.1889 18.431C41.7524 18.0962 41.2177 17.9148 40.6676 17.9148V20.9148ZM19.3324 20.9148H40.6676V17.9148H19.3324V20.9148ZM18.7406 20.2431C14.605 23.549 11.9543 28.6384 11.9543 34.3462H14.9543C14.9543 29.5885 17.1599 25.3474 20.6138 22.5865L18.7406 20.2431ZM40.3227 19.9148H19.6772V22.9148H40.3227V19.9148ZM48.0456 34.3462C48.0456 28.6384 45.395 23.549 41.2593 20.2431L39.3861 22.5865C42.8401 25.3474 45.0456 29.5885 45.0456 34.3462H48.0456ZM30 52.3918C39.9663 52.3918 48.0456 44.3125 48.0456 34.3462H45.0456C45.0456 42.6556 38.3094 49.3918 30 49.3918V52.3918ZM11.9543 34.3462C11.9543 44.3125 20.0336 52.3918 30 52.3918V49.3918C21.6905 49.3918 14.9543 42.6556 14.9543 34.3462H11.9543ZM32.7746 41.1668L32.7745 41.1677L35.7405 41.618L35.7406 41.6171L32.7746 41.1668ZM35.6188 39.077C34.2599 38.8716 32.9915 39.8014 32.7762 41.1566L35.7391 41.6272C35.696 41.8985 35.4423 42.0844 35.1705 42.0433L35.6188 39.077ZM37.7172 41.9225C37.9235 40.5573 36.984 39.2833 35.6188 39.077L35.1705 42.0433C34.8975 42.0021 34.7096 41.7473 34.7508 41.4742L37.7172 41.9225ZM35.0211 43.0321L36.0099 43.1815L36.4581 40.2152L35.4694 40.0658L35.0211 43.0321ZM37.7169 41.9239C37.7115 41.9602 37.7686 41.6854 37.6968 41.3683C37.6116 40.992 37.4029 40.7291 37.2207 40.5699C37.0641 40.4331 36.9157 40.3617 36.8534 40.3335C36.7799 40.3001 36.7191 40.2798 36.6876 40.2698C36.625 40.2499 36.5748 40.2387 36.5604 40.2355C36.5393 40.2307 36.5224 40.2274 36.5138 40.2258C36.4866 40.2206 36.4611 40.2166 36.4563 40.2158C36.4345 40.2123 36.3983 40.2067 36.3372 40.1973C36.2121 40.1782 35.9636 40.1405 35.4694 40.0658L35.0211 43.0321C35.5157 43.1069 35.7615 43.1442 35.8835 43.1628C35.946 43.1724 35.9715 43.1764 35.9806 43.1778C35.9912 43.1795 35.9734 43.1768 35.95 43.1723C35.9424 43.1709 35.9262 43.1677 35.9057 43.1632C35.8918 43.1601 35.842 43.1489 35.7796 43.1291C35.7482 43.1191 35.6875 43.0988 35.6141 43.0655C35.5518 43.0373 35.4035 42.966 35.2469 42.8291C35.0647 42.67 34.8561 42.4071 34.7708 42.0308C34.6991 41.7137 34.7562 41.439 34.7507 41.4753L37.7169 41.9239ZM37.7164 41.9272L37.7166 41.9259L34.751 41.4733L34.7508 41.4746L37.7164 41.9272ZM37.7154 41.9342L37.7158 41.9313L34.7514 41.4705L34.751 41.4734L37.7154 41.9342ZM37.7136 41.9453L37.7147 41.9384L34.7516 41.4692L34.7505 41.4761L37.7136 41.9453ZM37.7087 41.9749L37.7117 41.9568L34.7524 41.4646L34.7494 41.4827L37.7087 41.9749ZM37.6923 42.0654C37.6984 42.0337 37.7035 42.0057 37.7076 41.9818L34.7505 41.4759C34.7499 41.4799 34.7485 41.4874 34.7464 41.4982L37.6923 42.0654ZM37.6415 42.2994C37.6636 42.2074 37.6802 42.1286 37.6924 42.0652L34.7464 41.4983C34.7423 41.5199 34.7352 41.5544 34.7242 41.6L37.6415 42.2994ZM37.4313 43.0008C37.5308 42.7229 37.5976 42.4829 37.6415 42.2994L34.7242 41.6C34.7023 41.6912 34.6654 41.8261 34.6068 41.9898L37.4313 43.0008ZM36.325 45.0261C36.8965 44.2854 37.2342 43.5515 37.4313 43.0008L34.6068 41.9898C34.4891 42.3185 34.2868 42.7567 33.9498 43.1935L36.325 45.0261ZM29.8167 47.949C33.0274 47.949 35.1094 46.6016 36.325 45.0261L33.9498 43.1935C33.2901 44.0485 32.0779 44.949 29.8167 44.949V47.949ZM23.2028 45.147C24.4935 46.6193 26.6202 47.949 29.8167 47.949V44.949C27.5527 44.949 26.2264 44.0451 25.4587 43.1694L23.2028 45.147ZM21.9413 43.2088C22.1876 43.7409 22.5852 44.4425 23.2028 45.147L25.4587 43.1694C25.0693 42.7252 24.8174 42.2806 24.6635 41.9482L21.9413 43.2088ZM21.6671 42.5317C21.7282 42.709 21.8171 42.9408 21.9413 43.2088L24.6635 41.9482C24.5868 41.7825 24.535 41.646 24.5031 41.5535L21.6671 42.5317ZM21.5943 42.3059C21.6125 42.3668 21.6364 42.4428 21.6671 42.5316L24.5031 41.5535C24.4872 41.5073 24.4763 41.4722 24.4697 41.4502L21.5943 42.3059ZM21.5713 42.2259C21.5776 42.2487 21.5853 42.2755 21.5943 42.3059L24.4697 41.4501C24.4664 41.439 24.4642 41.4313 24.463 41.427L21.5713 42.2259ZM21.5648 42.2019L21.5696 42.2194L24.4648 41.4335L24.4601 41.416L21.5648 42.2019ZM21.5603 42.1848L21.562 42.1914L24.4628 41.4264L24.4611 41.4198L21.5603 42.1848ZM21.5583 42.1771L21.559 42.1798L24.4624 41.4248L24.4617 41.4221L21.5583 42.1771ZM21.5574 42.1737L21.5577 42.1749L24.4622 41.4242L24.4619 41.423L21.5574 42.1737ZM23.6057 40.0959C23.1215 40.22 22.8781 40.2825 22.7556 40.3141C22.6958 40.3296 22.6604 40.3388 22.6394 40.3444C22.6345 40.3457 22.6105 40.352 22.5849 40.3596C22.5768 40.362 22.561 40.3667 22.5413 40.3732C22.5279 40.3776 22.481 40.3931 22.423 40.4178C22.3938 40.4302 22.3373 40.4551 22.2698 40.4934C22.2132 40.5256 22.0752 40.6075 21.9337 40.7531C21.7706 40.9211 21.5775 41.2018 21.5236 41.5943C21.4992 41.7717 21.5111 41.9205 21.5264 42.0218C21.5338 42.0708 21.5422 42.1101 21.5477 42.134C21.5499 42.1433 21.5532 42.1572 21.5544 42.1619C21.5555 42.1665 21.5567 42.1711 21.5567 42.1711L24.4626 41.4256C24.4533 41.3895 24.5417 41.6676 24.4957 42.0023C24.4418 42.3948 24.2487 42.6755 24.0856 42.8435C23.9442 42.989 23.8062 43.071 23.7497 43.103C23.6822 43.1413 23.6258 43.1662 23.5968 43.1786C23.539 43.2032 23.4924 43.2185 23.4795 43.2227C23.4603 43.2291 23.4452 43.2336 23.4381 43.2357C23.4162 43.2422 23.3997 43.2464 23.41 43.2437C23.4191 43.2413 23.4443 43.2347 23.5055 43.2189C23.625 43.188 23.8659 43.1262 24.3504 43.002L23.6057 40.0959ZM23.3817 43.2502L24.3504 43.002L23.6057 40.0959L22.637 40.3442L23.3817 43.2502ZM23.3574 39.1272C22.0199 39.47 21.2136 40.8321 21.5563 42.1696L24.4624 41.4248C24.531 41.6923 24.3697 41.9647 24.1022 42.0333L23.3574 39.1272ZM26.3956 40.912C26.0458 39.5842 24.6895 38.7859 23.3574 39.1272L24.1022 42.0333C23.8357 42.1016 23.5645 41.9419 23.4945 41.6762L26.3956 40.912ZM26.3898 40.8905L26.3859 40.8771L23.5041 41.7111L23.508 41.7244L26.3898 40.8905ZM26.3938 40.9014C26.3877 40.8836 26.3855 40.8758 26.3866 40.8796L23.5112 41.7354C23.5217 41.7704 23.5369 41.8191 23.5578 41.8795L26.3938 40.9014ZM26.4784 41.1078C26.4332 41.0103 26.4062 40.9374 26.3938 40.9014L23.5578 41.8796C23.5994 42.0003 23.6636 42.1686 23.7561 42.3684L26.4784 41.1078ZM26.9626 41.8509C26.7254 41.5804 26.5706 41.307 26.4784 41.1078L23.7561 42.3684C23.9409 42.7674 24.2413 43.2977 24.7067 43.8286L26.9626 41.8509ZM29.8167 42.949C28.1732 42.949 27.3808 42.328 26.9626 41.8509L24.7067 43.8286C25.649 44.9035 27.2423 45.949 29.8167 45.949V42.949ZM32.3663 41.9718C32.0775 42.3461 31.4454 42.949 29.8167 42.949V45.949C32.3943 45.949 33.8965 44.8997 34.7415 43.8044L32.3663 41.9718ZM32.7237 41.3159C32.6591 41.4964 32.5471 41.7375 32.3663 41.9718L34.7415 43.8044C35.1567 43.2663 35.4042 42.7295 35.5483 42.3268L32.7237 41.3159ZM32.7793 41.1337C32.7722 41.1635 32.7551 41.2282 32.7237 41.3159L35.5483 42.3268C35.6205 42.125 35.6674 41.9551 35.6967 41.8331L32.7793 41.1337ZM32.7825 41.1203C32.7837 41.114 32.7829 41.119 32.7793 41.1337L35.6967 41.8331C35.7113 41.7721 35.7216 41.7228 35.7284 41.6871L32.7825 41.1203ZM32.7831 41.1166L32.7811 41.1275L35.7298 41.68L35.7318 41.6691L32.7831 41.1166ZM45.1125 15.4656C45.1125 15.2779 45.2647 15.1257 45.4524 15.1257V18.1257C46.9215 18.1257 48.1125 16.9347 48.1125 15.4656H45.1125ZM45.4524 15.8054C45.2647 15.8054 45.1125 15.6533 45.1125 15.4656H48.1125C48.1125 13.9964 46.9215 12.8054 45.4524 12.8054V15.8054ZM45.7922 15.4656C45.7922 15.6533 45.6401 15.8054 45.4524 15.8054V12.8054C43.9832 12.8054 42.7922 13.9964 42.7922 15.4656H45.7922ZM45.4524 15.1257C45.6401 15.1257 45.7922 15.2779 45.7922 15.4656H42.7922C42.7922 16.9347 43.9832 18.1257 45.4524 18.1257V15.1257ZM19.9144 11.3956C21.2074 11.3956 22.2555 10.3475 22.2555 9.0545H19.2555C19.2555 8.69061 19.5505 8.39562 19.9144 8.39562V11.3956ZM17.5733 9.0545C17.5733 10.3475 18.6214 11.3956 19.9144 11.3956V8.39562C20.2783 8.39562 20.5733 8.69061 20.5733 9.0545H17.5733ZM19.9144 6.71338C18.6214 6.71338 17.5733 7.76153 17.5733 9.0545H20.5733C20.5733 9.41839 20.2783 9.71338 19.9144 9.71338V6.71338ZM22.2555 9.0545C22.2555 7.76154 21.2074 6.71338 19.9144 6.71338V9.71338C19.5505 9.71338 19.2555 9.41839 19.2555 9.0545H22.2555ZM31.6206 13.1551C31.6206 12.7912 31.9156 12.4962 32.2795 12.4962V15.4962C33.5724 15.4962 34.6206 14.4481 34.6206 13.1551H31.6206ZM32.2795 13.814C31.9156 13.814 31.6206 13.519 31.6206 13.1551H34.6206C34.6206 11.8621 33.5724 10.814 32.2795 10.814V13.814ZM32.9384 13.1551C32.9384 13.519 32.6434 13.814 32.2795 13.814V10.814C30.9865 10.814 29.9384 11.8621 29.9384 13.1551H32.9384ZM32.2795 12.4962C32.6434 12.4962 32.9384 12.7912 32.9384 13.1551H29.9384C29.9384 14.4481 30.9865 15.4962 32.2795 15.4962V12.4962Z" fill="#F8F9FA" mask="url(#path-1-outside-1_50_3401)"/>
<path d="M30 51.8796C39.6901 51.8796 47.5456 44.0241 47.5456 34.3339C47.5456 28.6569 44.8493 23.6095 40.6676 20.4026H19.3324C15.1506 23.6095 12.4543 28.6569 12.4543 34.3339C12.4543 44.0241 20.3098 51.8796 30 51.8796Z" fill="#FFD43B" stroke="#212529" stroke-width="2" stroke-linecap="round" stroke-linejoin="round"/>
<g style="mix-blend-mode:multiply">
<path fill-rule="evenodd" clip-rule="evenodd" d="M44.5084 33.6914C44.5084 43.3815 36.6529 51.237 26.9628 51.237C25.7197 51.237 24.5068 51.1077 23.3368 50.8619C25.1814 51.5207 27.1686 51.8796 29.2397 51.8796C38.9299 51.8796 46.7853 44.0241 46.7853 34.3339C46.7853 28.6569 44.0891 23.6095 39.9073 20.4026H38.42C42.1484 23.6201 44.5084 28.3801 44.5084 33.6914Z" fill="#FFD43B"/>
</g>
<path d="M35.2454 41.5367C35.2454 41.5367 34.656 45.4368 29.8168 45.4368C24.9777 45.4368 23.9782 41.5367 23.9782 41.5367" stroke="#212529" stroke-width="2" stroke-linecap="round"/>
<circle cx="23.3367" cy="28.618" r="1.39729" fill="#212529"/>
<circle cx="34.5179" cy="28.618" r="1.39729" fill="#212529"/>
<path d="M16.2125 13.079C18.07 12.8629 22.07 13.1046 23.2103 15.8002" stroke="#212529" stroke-width="1.6" stroke-linecap="round"/>
<path d="M37.2058 15.6707C37.9834 13.6404 40.3937 9.58004 43.8148 9.58008" stroke="#212529" stroke-width="1.6" stroke-linecap="round"/>
<path d="M26.5796 6.21094C27.4003 7.33402 29.0418 10.1245 29.0417 12.3015" stroke="#212529" stroke-width="1.6" stroke-linecap="round"/>
<circle cx="45.4524" cy="15.4531" r="1.16014" fill="#212529"/>
<circle cx="19.8466" cy="9.0545" r="0.841121" fill="#212529"/>
<circle cx="32.2795" cy="13.1426" r="0.841121" fill="#212529"/>
<g style="mix-blend-mode:soft-light" opacity="0.8">
<path d="M20.5749 24.9691C21.336 24.195 20.4221 23.452 19.5664 23.6483C18.8488 23.8129 17.0834 25.4815 16.1939 27.1674C15.3044 28.8534 16.6393 29.5984 17.1564 28.9896C17.6736 28.3807 19.6236 25.9367 20.5749 24.9691Z" fill="#F8F9FA"/>
</g>
</svg>
