<svg width="60" height="58" viewBox="0 0 60 58" fill="none" xmlns="http://www.w3.org/2000/svg">
<mask id="path-1-outside-1_50_9567" maskUnits="userSpaceOnUse" x="7.98059" y="6.88379" width="46" height="48" fill="black">
<rect fill="white" x="7.98059" y="6.88379" width="46" height="48"/>
<path fill-rule="evenodd" clip-rule="evenodd" d="M28.6555 9.69809C28.0471 9.9837 27.4872 10.3323 26.9803 10.7326C24.3455 9.56672 21.2357 9.50479 18.4203 10.8266L18.8411 11.7228L18.4203 10.8266C18.0821 10.9854 17.7562 11.1604 17.4433 11.3503C16.4448 11.3877 15.4378 11.6222 14.479 12.0723C10.6516 13.8694 9.00553 18.4289 10.8025 22.2564C11.5354 23.8173 12.7295 25.0168 14.145 25.7664C14.7831 26.7548 15.571 27.604 16.4635 28.2983C16.6557 31.589 16.5112 34.465 15.765 37.1465C14.9345 40.131 13.3424 42.9313 10.5342 45.8087C9.78969 46.5715 9.78015 47.8317 10.6027 48.5794L14.6291 52.2398C15.4222 52.9608 16.6148 52.8694 17.3249 52.1428C18.5967 50.8418 20.4369 49.2806 22.3546 47.9173C24.2863 46.5439 26.2219 45.4251 27.6897 44.9478C30.795 43.9382 33.8366 43.9478 37.0445 44.3906C39.4593 47.4266 43.7236 48.5264 47.3883 46.8058C51.3487 44.9464 53.2217 40.4449 51.8924 36.3902C52.5449 34.3911 52.4674 32.1462 51.5027 30.0914C51.3888 29.8489 51.2649 29.614 51.1316 29.387C51.3934 28.2214 51.2845 26.9613 50.7375 25.7962C50.3272 24.9223 49.7178 24.2031 48.989 23.669C48.9358 22.5839 48.6743 21.4915 48.1851 20.4496C46.7598 17.4137 43.7826 15.6059 40.6463 15.5241C40.5118 14.9447 40.3149 14.3712 40.0525 13.8125C38.0415 9.52912 32.9388 7.68704 28.6555 9.69809ZM40.8586 44.9492C42.5847 45.793 44.6638 45.8755 46.5383 44.9954C49.6616 43.529 51.0921 39.9174 49.8969 36.7433C49.8115 36.5165 49.8114 36.2666 49.8964 36.0397C50.4969 34.4388 50.4756 32.6099 49.6923 30.9414C49.553 30.6447 49.3946 30.3638 49.2196 30.0993C49.0529 29.8474 49.0089 29.5337 49.1 29.2457C49.3622 28.4171 49.3253 27.4944 48.9271 26.6462C48.6062 25.9628 48.0991 25.4301 47.4943 25.0774C47.1818 24.8951 46.9921 24.5583 46.9982 24.1966C47.0146 23.2275 46.8159 22.2392 46.3747 21.2996C45.1773 18.7493 42.5488 17.3259 39.8936 17.5427C39.3582 17.5865 38.884 17.1994 38.8195 16.6661C38.7377 15.9904 38.5485 15.315 38.2421 14.6625C36.7005 11.379 32.789 9.96687 29.5054 11.5085C28.8682 11.8077 28.303 12.195 27.8164 12.6485C27.5058 12.9379 27.0462 12.9997 26.6702 12.8025C24.4431 11.6346 21.719 11.4873 19.2703 12.637C18.9236 12.7998 18.5938 12.9832 18.2816 13.1849C18.1194 13.2897 17.9304 13.3453 17.7373 13.3449C16.9308 13.3437 16.1106 13.5158 15.329 13.8827C12.5014 15.2103 11.2854 18.5788 12.6129 21.4064C13.1887 22.6327 14.146 23.5542 15.2781 24.0985C15.4529 24.1825 15.5994 24.3155 15.6999 24.4813C16.0273 25.0214 16.4092 25.5129 16.8352 25.952C16.8738 25.8964 16.9146 25.8416 16.9575 25.788C17.1931 25.4934 17.5383 25.18 18.0073 25.0291C19.0932 24.6796 20.0863 25.3541 20.8909 26.5244C21.2622 27.0644 21.5527 27.7139 21.7804 28.4126C21.922 28.4303 22.0643 28.4444 22.2071 28.4548C22.7034 28.491 23.0976 28.8867 23.1319 29.3831C23.1963 30.3132 23.4306 31.2483 23.8521 32.1459C23.9265 32.3045 24.0056 32.4593 24.0892 32.6104L30.5484 27.1893C30.9058 26.8893 31.4333 26.9123 31.7633 27.2423L34.8033 30.2823C35.137 30.616 35.1563 31.1508 34.8475 31.5076L30.4393 36.6015C31.6885 36.6742 32.9731 36.4455 34.1854 35.8763C34.7742 35.5999 35.3109 35.2598 35.792 34.8686C36.0557 34.6541 36.4104 34.5883 36.7335 34.6938C37.0566 34.7994 37.304 35.0619 37.3903 35.3907C37.4473 35.6083 37.5161 35.8249 37.597 36.0396C37.6823 36.2663 37.6825 36.5163 37.5974 36.7431C37.4023 37.2634 37.2728 37.8078 37.2138 38.3628C39.0447 38.7866 40.374 39.4312 41.1247 39.9942C41.3513 40.1641 41.4847 40.4309 41.4847 40.7142V44.0919C41.4847 44.3616 41.3637 44.6171 41.1552 44.788C41.0663 44.8608 40.9655 44.9151 40.8586 44.9492ZM37.2851 40.2363C38.349 40.5228 39.1561 40.8802 39.6847 41.1954V43.0007C39.2317 42.9161 38.7796 42.8364 38.328 42.7631C38.1311 42.4751 37.9547 42.1675 37.8016 41.8415C37.5559 41.3182 37.3852 40.7791 37.2851 40.2363ZM35.2129 39.8357C35.2935 40.7125 35.5115 41.5905 35.8777 42.4395C32.9898 42.1575 30.1004 42.2712 27.1331 43.236C25.4016 43.799 23.2875 45.0455 21.3116 46.4502C19.3216 47.865 17.3964 49.4946 16.0377 50.8846C16.0058 50.9173 15.9647 50.9342 15.925 50.9361C15.8872 50.9378 15.8601 50.9263 15.84 50.908L11.8135 47.2476C11.7939 47.2297 11.7811 47.2051 11.7806 47.1698C11.7799 47.1327 11.7936 47.0954 11.8223 47.0659C14.816 43.9986 16.578 40.9391 17.4991 37.6291C18.216 35.0528 18.4135 32.3596 18.3182 29.4485C18.9795 29.7674 19.6733 30.0153 20.3868 30.1878C20.4796 30.6341 20.5556 31.1045 20.6157 31.5872C20.8165 33.1988 20.8243 34.7994 20.7706 35.7665C20.7507 36.1248 20.9455 36.4607 21.2664 36.6213C21.5873 36.7819 21.973 36.7365 22.2478 36.5058L23.6071 35.365C24.5624 36.4319 25.7293 37.2594 27.011 37.8123L25.8864 39.1119C25.6272 39.4114 25.5943 39.8451 25.8053 40.1803C26.0163 40.5155 26.4217 40.6733 26.8038 40.5691C30.1886 39.646 33.0224 39.5624 35.2129 39.8357ZM35.2394 38.0263C35.2586 37.8675 35.2822 37.7095 35.3102 37.5525C35.2196 37.5985 35.128 37.6432 35.0354 37.6867C34.8317 37.7823 34.6264 37.8703 34.4198 37.9508C34.7002 37.9707 34.9734 37.996 35.2394 38.0263ZM28.4016 36.2055L32.9384 30.9629L31.0738 29.0983L25.1404 34.0781C26.0393 35.0651 27.1678 35.7892 28.4016 36.2055ZM19.5826 27.8255C19.5264 27.726 19.4681 27.6321 19.4076 27.5441C19.0793 27.0665 18.831 26.8631 18.6877 26.7843C18.6213 26.7479 18.585 26.7421 18.5755 26.741C18.5676 26.7401 18.5645 26.7407 18.5587 26.7425C18.538 26.7492 18.4651 26.7848 18.363 26.9125C18.3165 26.9707 18.2727 27.0372 18.2335 27.1074C18.6612 27.3882 19.113 27.6283 19.5826 27.8255Z"/>
</mask>
<path fill-rule="evenodd" clip-rule="evenodd" d="M28.6555 9.69809C28.0471 9.9837 27.4872 10.3323 26.9803 10.7326C24.3455 9.56672 21.2357 9.50479 18.4203 10.8266L18.8411 11.7228L18.4203 10.8266C18.0821 10.9854 17.7562 11.1604 17.4433 11.3503C16.4448 11.3877 15.4378 11.6222 14.479 12.0723C10.6516 13.8694 9.00553 18.4289 10.8025 22.2564C11.5354 23.8173 12.7295 25.0168 14.145 25.7664C14.7831 26.7548 15.571 27.604 16.4635 28.2983C16.6557 31.589 16.5112 34.465 15.765 37.1465C14.9345 40.131 13.3424 42.9313 10.5342 45.8087C9.78969 46.5715 9.78015 47.8317 10.6027 48.5794L14.6291 52.2398C15.4222 52.9608 16.6148 52.8694 17.3249 52.1428C18.5967 50.8418 20.4369 49.2806 22.3546 47.9173C24.2863 46.5439 26.2219 45.4251 27.6897 44.9478C30.795 43.9382 33.8366 43.9478 37.0445 44.3906C39.4593 47.4266 43.7236 48.5264 47.3883 46.8058C51.3487 44.9464 53.2217 40.4449 51.8924 36.3902C52.5449 34.3911 52.4674 32.1462 51.5027 30.0914C51.3888 29.8489 51.2649 29.614 51.1316 29.387C51.3934 28.2214 51.2845 26.9613 50.7375 25.7962C50.3272 24.9223 49.7178 24.2031 48.989 23.669C48.9358 22.5839 48.6743 21.4915 48.1851 20.4496C46.7598 17.4137 43.7826 15.6059 40.6463 15.5241C40.5118 14.9447 40.3149 14.3712 40.0525 13.8125C38.0415 9.52912 32.9388 7.68704 28.6555 9.69809ZM40.8586 44.9492C42.5847 45.793 44.6638 45.8755 46.5383 44.9954C49.6616 43.529 51.0921 39.9174 49.8969 36.7433C49.8115 36.5165 49.8114 36.2666 49.8964 36.0397C50.4969 34.4388 50.4756 32.6099 49.6923 30.9414C49.553 30.6447 49.3946 30.3638 49.2196 30.0993C49.0529 29.8474 49.0089 29.5337 49.1 29.2457C49.3622 28.4171 49.3253 27.4944 48.9271 26.6462C48.6062 25.9628 48.0991 25.4301 47.4943 25.0774C47.1818 24.8951 46.9921 24.5583 46.9982 24.1966C47.0146 23.2275 46.8159 22.2392 46.3747 21.2996C45.1773 18.7493 42.5488 17.3259 39.8936 17.5427C39.3582 17.5865 38.884 17.1994 38.8195 16.6661C38.7377 15.9904 38.5485 15.315 38.2421 14.6625C36.7005 11.379 32.789 9.96687 29.5054 11.5085C28.8682 11.8077 28.303 12.195 27.8164 12.6485C27.5058 12.9379 27.0462 12.9997 26.6702 12.8025C24.4431 11.6346 21.719 11.4873 19.2703 12.637C18.9236 12.7998 18.5938 12.9832 18.2816 13.1849C18.1194 13.2897 17.9304 13.3453 17.7373 13.3449C16.9308 13.3437 16.1106 13.5158 15.329 13.8827C12.5014 15.2103 11.2854 18.5788 12.6129 21.4064C13.1887 22.6327 14.146 23.5542 15.2781 24.0985C15.4529 24.1825 15.5994 24.3155 15.6999 24.4813C16.0273 25.0214 16.4092 25.5129 16.8352 25.952C16.8738 25.8964 16.9146 25.8416 16.9575 25.788C17.1931 25.4934 17.5383 25.18 18.0073 25.0291C19.0932 24.6796 20.0863 25.3541 20.8909 26.5244C21.2622 27.0644 21.5527 27.7139 21.7804 28.4126C21.922 28.4303 22.0643 28.4444 22.2071 28.4548C22.7034 28.491 23.0976 28.8867 23.1319 29.3831C23.1963 30.3132 23.4306 31.2483 23.8521 32.1459C23.9265 32.3045 24.0056 32.4593 24.0892 32.6104L30.5484 27.1893C30.9058 26.8893 31.4333 26.9123 31.7633 27.2423L34.8033 30.2823C35.137 30.616 35.1563 31.1508 34.8475 31.5076L30.4393 36.6015C31.6885 36.6742 32.9731 36.4455 34.1854 35.8763C34.7742 35.5999 35.3109 35.2598 35.792 34.8686C36.0557 34.6541 36.4104 34.5883 36.7335 34.6938C37.0566 34.7994 37.304 35.0619 37.3903 35.3907C37.4473 35.6083 37.5161 35.8249 37.597 36.0396C37.6823 36.2663 37.6825 36.5163 37.5974 36.7431C37.4023 37.2634 37.2728 37.8078 37.2138 38.3628C39.0447 38.7866 40.374 39.4312 41.1247 39.9942C41.3513 40.1641 41.4847 40.4309 41.4847 40.7142V44.0919C41.4847 44.3616 41.3637 44.6171 41.1552 44.788C41.0663 44.8608 40.9655 44.9151 40.8586 44.9492ZM37.2851 40.2363C38.349 40.5228 39.1561 40.8802 39.6847 41.1954V43.0007C39.2317 42.9161 38.7796 42.8364 38.328 42.7631C38.1311 42.4751 37.9547 42.1675 37.8016 41.8415C37.5559 41.3182 37.3852 40.7791 37.2851 40.2363ZM35.2129 39.8357C35.2935 40.7125 35.5115 41.5905 35.8777 42.4395C32.9898 42.1575 30.1004 42.2712 27.1331 43.236C25.4016 43.799 23.2875 45.0455 21.3116 46.4502C19.3216 47.865 17.3964 49.4946 16.0377 50.8846C16.0058 50.9173 15.9647 50.9342 15.925 50.9361C15.8872 50.9378 15.8601 50.9263 15.84 50.908L11.8135 47.2476C11.7939 47.2297 11.7811 47.2051 11.7806 47.1698C11.7799 47.1327 11.7936 47.0954 11.8223 47.0659C14.816 43.9986 16.578 40.9391 17.4991 37.6291C18.216 35.0528 18.4135 32.3596 18.3182 29.4485C18.9795 29.7674 19.6733 30.0153 20.3868 30.1878C20.4796 30.6341 20.5556 31.1045 20.6157 31.5872C20.8165 33.1988 20.8243 34.7994 20.7706 35.7665C20.7507 36.1248 20.9455 36.4607 21.2664 36.6213C21.5873 36.7819 21.973 36.7365 22.2478 36.5058L23.6071 35.365C24.5624 36.4319 25.7293 37.2594 27.011 37.8123L25.8864 39.1119C25.6272 39.4114 25.5943 39.8451 25.8053 40.1803C26.0163 40.5155 26.4217 40.6733 26.8038 40.5691C30.1886 39.646 33.0224 39.5624 35.2129 39.8357ZM35.2394 38.0263C35.2586 37.8675 35.2822 37.7095 35.3102 37.5525C35.2196 37.5985 35.128 37.6432 35.0354 37.6867C34.8317 37.7823 34.6264 37.8703 34.4198 37.9508C34.7002 37.9707 34.9734 37.996 35.2394 38.0263ZM28.4016 36.2055L32.9384 30.9629L31.0738 29.0983L25.1404 34.0781C26.0393 35.0651 27.1678 35.7892 28.4016 36.2055ZM19.5826 27.8255C19.5264 27.726 19.4681 27.6321 19.4076 27.5441C19.0793 27.0665 18.831 26.8631 18.6877 26.7843C18.6213 26.7479 18.585 26.7421 18.5755 26.741C18.5676 26.7401 18.5645 26.7407 18.5587 26.7425C18.538 26.7492 18.4651 26.7848 18.363 26.9125C18.3165 26.9707 18.2727 27.0372 18.2335 27.1074C18.6612 27.3882 19.113 27.6283 19.5826 27.8255Z" fill="#F8F9FA"/>
<path d="M26.9803 10.7326L26.3734 12.1043C26.882 12.3294 27.4735 12.2545 27.91 11.9098L26.9803 10.7326ZM28.6555 9.69809L29.293 11.0559L29.293 11.0559L28.6555 9.69809ZM18.4203 10.8266L17.7829 9.46879C17.033 9.82087 16.7105 10.7142 17.0625 11.4641L18.4203 10.8266ZM17.4833 12.3602C17.8354 13.1101 18.7287 13.4326 19.4786 13.0806C20.2285 12.7285 20.551 11.8352 20.1989 11.0853L17.4833 12.3602ZM18.4203 10.8266L19.7781 10.1891C19.4261 9.43921 18.5327 9.11672 17.7829 9.46879L18.4203 10.8266ZM17.4433 11.3503L17.4994 12.8492C17.7546 12.8397 18.0031 12.7651 18.2214 12.6327L17.4433 11.3503ZM14.479 12.0723L13.8416 10.7145L13.8416 10.7145L14.479 12.0723ZM10.8025 22.2564L9.44475 22.8939L9.44475 22.8939L10.8025 22.2564ZM14.145 25.7664L15.4052 24.9528C15.266 24.7372 15.0738 24.561 14.8471 24.4409L14.145 25.7664ZM16.4635 28.2983L17.9609 28.2109C17.9357 27.7794 17.7256 27.3798 17.3845 27.1144L16.4635 28.2983ZM15.765 37.1465L17.2101 37.5486L17.2101 37.5486L15.765 37.1465ZM10.5342 45.8087L11.6076 46.8564L11.6076 46.8564L10.5342 45.8087ZM10.6027 48.5794L11.6117 47.4695L11.6117 47.4695L10.6027 48.5794ZM14.6291 52.2398L13.6201 53.3498L13.6201 53.3498L14.6291 52.2398ZM17.3249 52.1428L16.2523 51.0943L16.2522 51.0943L17.3249 52.1428ZM22.3546 47.9173L23.2237 49.1398L23.2237 49.1398L22.3546 47.9173ZM27.6897 44.9478L27.2259 43.5213L27.2259 43.5213L27.6897 44.9478ZM37.0445 44.3906L38.2184 43.4568C37.9784 43.1551 37.6315 42.9574 37.2496 42.9047L37.0445 44.3906ZM47.3883 46.8058L48.0257 48.1636L48.0257 48.1636L47.3883 46.8058ZM51.8924 36.3902L50.4665 35.9248C50.3675 36.2278 50.3677 36.5545 50.4671 36.8575L51.8924 36.3902ZM51.5027 30.0914L52.8605 29.4539L52.8605 29.4539L51.5027 30.0914ZM51.1316 29.387L49.6681 29.0583C49.5847 29.4294 49.6455 29.8184 49.8381 30.1464L51.1316 29.387ZM50.7375 25.7962L52.0953 25.1587L52.0953 25.1587L50.7375 25.7962ZM48.989 23.669L47.4908 23.7424C47.5129 24.194 47.7376 24.6116 48.1023 24.8789L48.989 23.669ZM48.1851 20.4496L46.8273 21.0871L46.8273 21.0871L48.1851 20.4496ZM40.6463 15.5241L39.1851 15.8631C39.3395 16.5286 39.9242 17.0057 40.6071 17.0235L40.6463 15.5241ZM40.0525 13.8125L41.4103 13.175L41.4103 13.175L40.0525 13.8125ZM40.8586 44.9492L40.402 43.5204C39.8186 43.7068 39.4071 44.2293 39.3626 44.8403C39.3181 45.4512 39.6496 46.0278 40.1999 46.2968L40.8586 44.9492ZM46.5383 44.9954L47.1758 46.3532L47.1758 46.3532L46.5383 44.9954ZM49.8969 36.7433L51.3007 36.2147L51.3007 36.2147L49.8969 36.7433ZM49.8964 36.0397L48.492 35.513L48.492 35.513L49.8964 36.0397ZM49.6923 30.9414L51.0501 30.3039L51.0501 30.3039L49.6923 30.9414ZM49.2196 30.0993L50.4704 29.2714L50.4704 29.2714L49.2196 30.0993ZM49.1 29.2457L50.5302 29.6982L50.5302 29.6982L49.1 29.2457ZM48.9271 26.6462L47.5693 27.2837L47.5693 27.2837L48.9271 26.6462ZM47.4943 25.0774L48.25 23.7817L48.25 23.7817L47.4943 25.0774ZM46.9982 24.1966L45.4984 24.1712L45.4984 24.1712L46.9982 24.1966ZM46.3747 21.2996L45.0169 21.9371L45.0169 21.9371L46.3747 21.2996ZM39.8936 17.5427L40.0157 19.0378L40.0157 19.0378L39.8936 17.5427ZM38.8195 16.6661L40.3086 16.486L40.3086 16.486L38.8195 16.6661ZM38.2421 14.6625L36.8843 15.3L36.8843 15.3L38.2421 14.6625ZM29.5054 11.5085L30.1429 12.8663L30.1429 12.8663L29.5054 11.5085ZM27.8164 12.6485L28.839 13.7459L28.839 13.7459L27.8164 12.6485ZM26.6702 12.8025L27.3668 11.4741L27.3668 11.4741L26.6702 12.8025ZM19.2703 12.637L18.6328 11.2792L18.6328 11.2792L19.2703 12.637ZM18.2816 13.1849L17.4675 11.925L17.4675 11.925L18.2816 13.1849ZM17.7373 13.3449L17.7349 14.8449L17.7349 14.8449L17.7373 13.3449ZM15.329 13.8827L15.9665 15.2405L15.9665 15.2405L15.329 13.8827ZM12.6129 21.4064L13.9707 20.7689L13.9707 20.7689L12.6129 21.4064ZM15.2781 24.0985L14.6281 25.4504L14.6281 25.4504L15.2781 24.0985ZM15.6999 24.4813L16.9826 23.7037L16.9826 23.7037L15.6999 24.4813ZM16.8352 25.952L15.7586 26.9964C16.0707 27.3181 16.5103 27.4834 16.9571 27.447C17.4038 27.4106 17.8109 27.1763 18.0668 26.8083L16.8352 25.952ZM16.9575 25.788L18.1288 26.7251L18.1288 26.7251L16.9575 25.788ZM18.0073 25.0291L17.5478 23.6012L17.5478 23.6012L18.0073 25.0291ZM20.8909 26.5244L19.6548 27.3742L19.6548 27.3742L20.8909 26.5244ZM21.7804 28.4126L20.3542 28.8773C20.5342 29.43 21.0175 29.8289 21.5943 29.901L21.7804 28.4126ZM22.2071 28.4548L22.3161 26.9588L22.3161 26.9588L22.2071 28.4548ZM23.1319 29.3831L24.6284 29.2795L24.6284 29.2795L23.1319 29.3831ZM23.8521 32.1459L25.2099 31.5084L25.2099 31.5084L23.8521 32.1459ZM24.0892 32.6104L22.7765 33.3363C22.9934 33.7286 23.3744 34.0033 23.8151 34.0852C24.2559 34.1671 24.7101 34.0476 25.0535 33.7594L24.0892 32.6104ZM30.5484 27.1893L29.5841 26.0404L29.5841 26.0404L30.5484 27.1893ZM31.7633 27.2423L32.824 26.1816L32.824 26.1816L31.7633 27.2423ZM34.8033 30.2823L33.7427 31.3429L33.7427 31.3429L34.8033 30.2823ZM34.8475 31.5076L33.7132 30.526L33.7132 30.5261L34.8475 31.5076ZM30.4393 36.6015L29.305 35.62C28.9312 36.052 28.8352 36.6589 29.0575 37.1852C29.2798 37.7115 29.7818 38.0658 30.3521 38.099L30.4393 36.6015ZM34.1854 35.8763L34.8229 37.2341L34.8229 37.2341L34.1854 35.8763ZM35.792 34.8686L36.7384 36.0323L36.7384 36.0323L35.792 34.8686ZM36.7335 34.6938L37.1993 33.268L37.1993 33.268L36.7335 34.6938ZM37.3903 35.3907L38.8412 35.0103L38.8412 35.0103L37.3903 35.3907ZM37.597 36.0396L39.0007 35.5111L39.0007 35.511L37.597 36.0396ZM37.5974 36.7431L39.0019 37.2699L39.0019 37.2699L37.5974 36.7431ZM37.2138 38.3628L35.7222 38.2043C35.6421 38.9582 36.137 39.6533 36.8756 39.8242L37.2138 38.3628ZM41.1247 39.9942L40.2247 41.1942L40.2247 41.1942L41.1247 39.9942ZM41.1552 44.788L40.2044 43.6279L40.2043 43.6279L41.1552 44.788ZM39.6847 41.1954H41.1847C41.1847 40.6671 40.9067 40.1777 40.4529 39.9071L39.6847 41.1954ZM37.2851 40.2363L37.6751 38.7879C37.1779 38.654 36.6466 38.7845 36.2681 39.1337C35.8895 39.4829 35.7166 40.0018 35.81 40.5083L37.2851 40.2363ZM39.6847 43.0007L39.4094 44.4752C39.8479 44.557 40.3 44.4395 40.6431 44.1545C40.9862 43.8696 41.1847 43.4467 41.1847 43.0007H39.6847ZM38.328 42.7631L37.0895 43.6095C37.3214 43.9487 37.6822 44.178 38.0878 44.2438L38.328 42.7631ZM37.8016 41.8415L39.1594 41.204L39.1594 41.204L37.8016 41.8415ZM35.8777 42.4395L35.732 43.9324C36.2603 43.984 36.7765 43.7525 37.0894 43.3237C37.4023 42.895 37.4653 42.3327 37.2551 41.8454L35.8777 42.4395ZM35.2129 39.8357L36.7066 39.6983C36.6421 38.9966 36.0978 38.4344 35.3986 38.3472L35.2129 39.8357ZM27.1331 43.236L27.5969 44.6625L27.5969 44.6625L27.1331 43.236ZM21.3116 46.4502L22.1807 47.6728L22.1807 47.6728L21.3116 46.4502ZM16.0377 50.8846L17.1104 51.9331L17.1104 51.9331L16.0377 50.8846ZM15.925 50.9361L15.9942 52.4345L15.9942 52.4345L15.925 50.9361ZM15.84 50.908L16.849 49.7981L16.849 49.798L15.84 50.908ZM11.8135 47.2476L10.8045 48.3574L10.8045 48.3575L11.8135 47.2476ZM11.7806 47.1698L13.2803 47.1448L13.2803 47.1448L11.7806 47.1698ZM11.8223 47.0659L10.7489 46.0182L10.7488 46.0183L11.8223 47.0659ZM17.4991 37.6291L16.054 37.2269L16.054 37.2269L17.4991 37.6291ZM18.3182 29.4485L18.9697 28.0974C18.497 27.8694 17.9396 27.9051 17.4998 28.1914C17.06 28.4777 16.8018 28.9731 16.819 29.4976L18.3182 29.4485ZM20.3868 30.1878L21.8554 29.8824C21.7374 29.3147 21.3027 28.8659 20.7391 28.7297L20.3868 30.1878ZM20.6157 31.5872L22.1042 31.4018L22.1042 31.4018L20.6157 31.5872ZM20.7706 35.7665L22.2683 35.8497L22.2683 35.8497L20.7706 35.7665ZM21.2664 36.6213L20.5951 37.9626L20.5951 37.9626L21.2664 36.6213ZM22.2478 36.5058L21.2835 35.3568L21.2835 35.3568L22.2478 36.5058ZM23.6071 35.365L24.7246 34.3644C24.1844 33.7612 23.263 33.6955 22.6428 34.216L23.6071 35.365ZM27.011 37.8123L28.1453 38.7939C28.4581 38.4324 28.5799 37.9435 28.4732 37.4776C28.3665 37.0116 28.0442 36.6244 27.6052 36.435L27.011 37.8123ZM25.8864 39.1119L27.0207 40.0935L27.0207 40.0935L25.8864 39.1119ZM25.8053 40.1803L24.5359 40.9794L24.5359 40.9794L25.8053 40.1803ZM26.8038 40.5691L26.4091 39.122L26.4091 39.122L26.8038 40.5691ZM35.2394 38.0263L35.0698 39.5167C35.8887 39.6098 36.6293 39.0249 36.7285 38.2068L35.2394 38.0263ZM35.3102 37.5525L36.787 37.8157C36.8868 37.2557 36.6612 36.6873 36.2045 36.3482C35.7478 36.009 35.1385 35.9574 34.6312 36.215L35.3102 37.5525ZM35.0354 37.6867L35.6729 39.0445L35.6729 39.0445L35.0354 37.6867ZM34.4198 37.9508L33.8755 36.553C33.2216 36.8077 32.8317 37.4816 32.9367 38.1753C33.0418 38.8691 33.6137 39.3973 34.3136 39.447L34.4198 37.9508ZM28.4016 36.2055L27.9221 37.6268C28.4994 37.8216 29.1371 37.6478 29.5358 37.1871L28.4016 36.2055ZM32.9384 30.9629L34.0727 31.9445C34.5873 31.3498 34.5552 30.4585 33.9991 29.9023L32.9384 30.9629ZM31.0738 29.0983L32.1344 28.0376C31.5844 27.4876 30.7052 27.4493 30.1095 27.9493L31.0738 29.0983ZM25.1404 34.0781L24.1761 32.9291C23.8633 33.1916 23.6711 33.5703 23.6438 33.9777C23.6165 34.3852 23.7564 34.7861 24.0314 35.088L25.1404 34.0781ZM19.5826 27.8255L19.0019 29.2085C19.5933 29.4568 20.277 29.3017 20.7033 28.8225C21.1296 28.3433 21.2041 27.6461 20.8886 27.0877L19.5826 27.8255ZM19.4076 27.5441L20.6437 26.6943L20.6437 26.6943L19.4076 27.5441ZM18.6877 26.7843L19.4101 25.4698L19.4101 25.4697L18.6877 26.7843ZM18.5755 26.741L18.7442 25.2506L18.7442 25.2506L18.5755 26.741ZM18.5587 26.7425L19.0183 28.1704L19.0185 28.1703L18.5587 26.7425ZM18.363 26.9125L17.1917 25.9754L17.1917 25.9754L18.363 26.9125ZM18.2335 27.1074L16.9242 26.3753C16.5401 27.0623 16.7523 27.9294 17.4103 28.3613L18.2335 27.1074ZM27.91 11.9098C28.3274 11.5801 28.7894 11.2923 29.293 11.0559L28.018 8.34029C27.3049 8.67509 26.6471 9.08442 26.0507 9.55543L27.91 11.9098ZM19.0578 12.1844C21.4633 11.055 24.1187 11.1066 26.3734 12.1043L27.5873 9.36088C24.5723 8.0268 21.008 7.95456 17.7829 9.46879L19.0578 12.1844ZM20.1989 11.0853L19.7781 10.1891L17.0625 11.4641L17.4833 12.3602L20.1989 11.0853ZM17.0625 11.4641L17.4833 12.3602L20.1989 11.0853L19.7781 10.1891L17.0625 11.4641ZM18.2214 12.6327C18.4889 12.4703 18.7679 12.3205 19.0578 12.1844L17.7829 9.46879C17.3963 9.65027 17.0235 9.85044 16.6652 10.0679L18.2214 12.6327ZM15.1165 13.4301C15.8896 13.0672 16.6985 12.8792 17.4994 12.8492L17.3872 9.85133C16.1911 9.89612 14.986 10.1772 13.8416 10.7145L15.1165 13.4301ZM12.1603 21.6189C10.7154 18.5413 12.0389 14.8751 15.1165 13.4301L13.8416 10.7145C9.26418 12.8636 7.29566 18.3165 9.44475 22.8939L12.1603 21.6189ZM14.8471 24.4409C13.7089 23.8381 12.7502 22.8753 12.1603 21.6189L9.44475 22.8939C10.3205 24.7593 11.7501 26.1955 13.443 27.092L14.8471 24.4409ZM17.3845 27.1144C16.6225 26.5217 15.9502 25.7969 15.4052 24.9528L12.8849 26.5801C13.6161 27.7126 14.5194 28.6864 15.5424 29.4823L17.3845 27.1144ZM17.2101 37.5486C18.0175 34.6471 18.1582 31.5888 17.9609 28.2109L14.966 28.3858C15.1532 31.5892 15.0049 34.2828 14.3199 36.7444L17.2101 37.5486ZM11.6076 46.8564C14.5704 43.8207 16.3041 40.8044 17.2101 37.5486L14.3199 36.7444C13.5649 39.4577 12.1144 42.042 9.46068 44.761L11.6076 46.8564ZM11.6117 47.4695C11.4498 47.3223 11.4255 47.043 11.6076 46.8564L9.46068 44.761C8.1539 46.1 8.11053 48.341 9.59371 49.6894L11.6117 47.4695ZM15.6382 51.1299L11.6117 47.4695L9.59371 49.6894L13.6201 53.3498L15.6382 51.1299ZM16.2522 51.0943C16.0693 51.2815 15.7953 51.2728 15.6382 51.1299L13.6201 53.3498C15.049 54.6488 17.1603 54.4572 18.3976 53.1913L16.2522 51.0943ZM21.4854 46.6947C19.5075 48.1009 17.5965 49.7191 16.2523 51.0943L18.3976 53.1913C19.5969 51.9644 21.3664 50.4602 23.2237 49.1398L21.4854 46.6947ZM27.2259 43.5213C25.5382 44.0701 23.4538 45.2953 21.4854 46.6947L23.2237 49.1398C25.1187 47.7926 26.9057 46.78 28.1535 46.3743L27.2259 43.5213ZM37.2496 42.9047C33.9162 42.4446 30.6251 42.4161 27.2259 43.5213L28.1535 46.3743C30.9649 45.4602 33.757 45.451 36.8393 45.8765L37.2496 42.9047ZM46.7508 45.448C43.7295 46.8665 40.2105 45.9613 38.2184 43.4568L35.8705 45.3244C38.7082 48.8919 43.7178 50.1862 48.0257 48.1636L46.7508 45.448ZM50.4671 36.8575C51.5632 40.2011 50.0168 43.9146 46.7508 45.448L48.0257 48.1636C52.6806 45.9781 54.8801 40.6886 53.3178 35.9229L50.4671 36.8575ZM50.1449 30.7289C50.9409 32.4244 51.0053 34.274 50.4665 35.9248L53.3184 36.8556C54.0845 34.5083 53.9938 31.8679 52.8605 29.4539L50.1449 30.7289ZM49.8381 30.1464C49.9481 30.3338 50.0506 30.5281 50.1449 30.7289L52.8605 29.4539C52.727 29.1697 52.5816 28.8941 52.4251 28.6275L49.8381 30.1464ZM49.3797 26.4337C49.7801 27.2867 49.8595 28.2057 49.6681 29.0583L52.5951 29.7157C52.9273 28.237 52.7889 26.636 52.0953 25.1587L49.3797 26.4337ZM48.1023 24.8789C48.6339 25.2685 49.0788 25.7929 49.3797 26.4337L52.0953 25.1587C51.5755 24.0518 50.8016 23.1378 49.8756 22.4591L48.1023 24.8789ZM46.8273 21.0871C47.2319 21.9488 47.447 22.8492 47.4908 23.7424L50.4872 23.5957C50.4246 22.3186 50.1167 21.0342 49.5429 19.8121L46.8273 21.0871ZM40.6071 17.0235C43.1986 17.0911 45.6525 18.5848 46.8273 21.0871L49.5429 19.8121C47.8671 16.2427 44.3666 14.1206 40.6854 14.0246L40.6071 17.0235ZM38.6947 14.45C38.9119 14.9125 39.0744 15.3859 39.1851 15.8631L42.1074 15.185C41.9493 14.5035 41.7178 13.8299 41.4103 13.175L38.6947 14.45ZM29.293 11.0559C32.8264 9.39691 37.0358 10.9165 38.6947 14.45L41.4103 13.175C39.0472 8.14174 33.0512 5.97717 28.018 8.34029L29.293 11.0559ZM40.1999 46.2968C42.3166 47.3316 44.8726 47.4346 47.1758 46.3532L45.9008 43.6376C44.455 44.3164 42.8528 44.2544 41.5174 43.6016L40.1999 46.2968ZM47.1758 46.3532C51.0129 44.5517 52.7695 40.1157 51.3007 36.2147L48.4931 37.2718C49.4146 39.7192 48.3103 42.5064 45.9008 43.6376L47.1758 46.3532ZM51.3007 36.2147C51.3434 36.3281 51.3435 36.4531 51.3009 36.5664L48.492 35.513C48.2793 36.08 48.2797 36.705 48.4931 37.2719L51.3007 36.2147ZM51.3009 36.5665C52.0375 34.6025 52.0121 32.3531 51.0501 30.3039L48.3345 31.5789C48.9392 32.8668 48.9562 34.2751 48.492 35.513L51.3009 36.5665ZM51.0501 30.3039C50.8797 29.941 50.6856 29.5965 50.4704 29.2714L47.9687 30.9272C48.1037 31.1311 48.2263 31.3484 48.3345 31.5789L51.0501 30.3039ZM50.4704 29.2714C50.5538 29.3973 50.5757 29.5542 50.5302 29.6982L47.6699 28.7933C47.4421 29.5132 47.552 30.2975 47.9687 30.9272L50.4704 29.2714ZM50.5302 29.6982C50.9016 28.524 50.8494 27.2112 50.2849 26.0087L47.5693 27.2837C47.8011 27.7775 47.8227 28.3102 47.6699 28.7933L50.5302 29.6982ZM50.2849 26.0087C49.8306 25.0413 49.1092 24.2828 48.25 23.7817L46.7385 26.3731C47.0889 26.5774 47.3817 26.8843 47.5693 27.2837L50.2849 26.0087ZM48.25 23.7817C48.4062 23.8728 48.5011 24.0412 48.498 24.222L45.4984 24.1712C45.4831 25.0754 45.9573 25.9175 46.7385 26.3731L48.25 23.7817ZM48.498 24.222C48.5182 23.029 48.2731 21.8134 47.7325 20.6621L45.0169 21.9371C45.3586 22.6649 45.5111 23.426 45.4984 24.1712L48.498 24.222ZM47.7325 20.6621C46.2607 17.5273 43.0308 15.7816 39.7715 16.0477L40.0157 19.0378C42.0669 18.8703 44.0939 19.9712 45.0169 21.9371L47.7325 20.6621ZM39.7715 16.0477C40.0392 16.0259 40.2764 16.2194 40.3086 16.486L37.3303 16.8463C37.4916 18.1794 38.6773 19.1471 40.0157 19.0378L39.7715 16.0477ZM40.3086 16.486C40.2079 15.6538 39.975 14.8238 39.5999 14.025L36.8843 15.3C37.122 15.8062 37.2675 16.3271 37.3303 16.8463L40.3086 16.486ZM39.5999 14.025C37.7062 9.99158 32.9014 8.257 28.868 10.1507L30.1429 12.8663C32.6766 11.6767 35.6948 12.7663 36.8843 15.3L39.5999 14.025ZM28.868 10.1507C28.0879 10.5169 27.3931 10.9926 26.7937 11.5511L28.839 13.7459C29.213 13.3974 29.6485 13.0984 30.1429 12.8663L28.868 10.1507ZM26.7937 11.5511C26.949 11.4064 27.1788 11.3755 27.3668 11.4741L25.9736 14.1309C26.9136 14.6239 28.0625 14.4695 28.839 13.7459L26.7937 11.5511ZM27.3668 11.4741C24.7418 10.0975 21.5241 9.92174 18.6328 11.2792L19.9078 13.9948C21.9139 13.0529 24.1443 13.1717 25.9736 14.131L27.3668 11.4741ZM18.6328 11.2792C18.225 11.4707 17.8362 11.6868 17.4675 11.925L19.0956 14.4448C19.3514 14.2795 19.6222 14.1289 19.9078 13.9948L18.6328 11.2792ZM17.4675 11.925C17.5486 11.8726 17.6431 11.8448 17.7397 11.845L17.7349 14.8449C18.2176 14.8457 18.6902 14.7067 19.0956 14.4448L17.4675 11.925ZM17.7397 11.845C16.7166 11.8433 15.6774 12.0621 14.6915 12.5249L15.9665 15.2405C16.5437 14.9695 17.145 14.844 17.7349 14.8449L17.7397 11.845ZM14.6915 12.5249C11.114 14.2046 9.57549 18.4664 11.2551 22.0439L13.9707 20.7689C12.9952 18.6912 13.8888 16.216 15.9665 15.2405L14.6915 12.5249ZM11.2551 22.0439C11.9828 23.5938 13.1962 24.7619 14.6281 25.4504L15.9281 22.7467C15.0958 22.3465 14.3945 21.6715 13.9707 20.7689L11.2551 22.0439ZM14.6281 25.4504C14.5407 25.4084 14.4675 25.3419 14.4172 25.259L16.9826 23.7037C16.7313 23.2892 16.365 22.9567 15.9281 22.7467L14.6281 25.4504ZM14.4172 25.259C14.8037 25.8965 15.255 26.4773 15.7586 26.9964L17.9118 24.9075C17.5635 24.5484 17.2509 24.1463 16.9826 23.7037L14.4172 25.259ZM18.0668 26.8083C18.0871 26.779 18.1078 26.7512 18.1288 26.7251L15.7862 24.851C15.7213 24.9321 15.6605 25.0139 15.6037 25.0956L18.0668 26.8083ZM18.1288 26.7251C18.2537 26.5689 18.3719 26.4875 18.4668 26.457L17.5478 23.6012C16.7046 23.8726 16.1326 24.4179 15.7862 24.851L18.1288 26.7251ZM18.4668 26.457C18.5623 26.4262 18.6516 26.4204 18.822 26.5158C19.0343 26.6346 19.3269 26.8971 19.6548 27.3742L22.1269 25.6746C21.2334 24.3749 19.6408 22.9276 17.5478 23.6012L18.4668 26.457ZM19.6548 27.3742C19.92 27.7599 20.1553 28.2669 20.3542 28.8773L23.2066 27.948C22.9502 27.1608 22.6043 26.3689 22.1269 25.6746L19.6548 27.3742ZM21.5943 29.901C21.7615 29.9219 21.9294 29.9386 22.098 29.9508L22.3161 26.9588C22.1992 26.9503 22.0826 26.9387 21.9664 26.9242L21.5943 29.901ZM22.098 29.9508C21.8498 29.9328 21.6527 29.7349 21.6355 29.4867L24.6284 29.2795C24.5424 28.0384 23.557 27.0493 22.3161 26.9588L22.098 29.9508ZM21.6355 29.4867C21.7125 30.5988 21.9928 31.7152 22.4943 32.7834L25.2099 31.5084C24.8685 30.7813 24.6801 30.0275 24.6284 29.2795L21.6355 29.4867ZM22.4943 32.7834C22.5828 32.9719 22.6769 33.1563 22.7765 33.3363L25.4018 31.8846C25.3343 31.7624 25.2702 31.637 25.2099 31.5084L22.4943 32.7834ZM25.0535 33.7594L31.5127 28.3383L29.5841 26.0404L23.1249 31.4615L25.0535 33.7594ZM31.5127 28.3383C31.2744 28.5383 30.9227 28.523 30.7027 28.303L32.824 26.1816C31.944 25.3016 30.5373 25.2403 29.5841 26.0404L31.5127 28.3383ZM30.7027 28.303L33.7427 31.3429L35.864 29.2216L32.824 26.1816L30.7027 28.303ZM33.7427 31.3429C33.5202 31.1205 33.5073 30.764 33.7132 30.526L35.9817 32.4892C36.8052 31.5376 36.7538 30.1115 35.864 29.2216L33.7427 31.3429ZM33.7132 30.5261L29.305 35.62L31.5735 37.5831L35.9817 32.4892L33.7132 30.5261ZM30.3521 38.099C31.8445 38.1859 33.3789 37.9121 34.8229 37.2341L33.5479 34.5185C32.5674 34.9789 31.5324 35.1626 30.5265 35.1041L30.3521 38.099ZM34.8229 37.2341C35.523 36.9054 36.1634 36.4999 36.7384 36.0323L34.8455 33.7049C34.4584 34.0197 34.0253 34.2944 33.5479 34.5185L34.8229 37.2341ZM36.7384 36.0323C36.6066 36.1395 36.4293 36.1724 36.2677 36.1197L37.1993 33.268C36.3915 33.0041 35.5049 33.1686 34.8455 33.7049L36.7384 36.0323ZM36.2677 36.1197C36.1061 36.0669 35.9824 35.9356 35.9393 35.7712L38.8412 35.0103C38.6256 34.1882 38.0072 33.5319 37.1993 33.268L36.2677 36.1197ZM35.9393 35.7712C36.0095 36.0387 36.094 36.3047 36.1932 36.5682L39.0007 35.511C38.9382 35.345 38.8851 35.1779 38.8412 35.0103L35.9393 35.7712ZM36.1932 36.5682C36.1505 36.4548 36.1504 36.3298 36.1929 36.2164L39.0019 37.2699C39.2146 36.7028 39.2141 36.0778 39.0007 35.5111L36.1932 36.5682ZM36.1929 36.2164C35.9537 36.8544 35.7947 37.5224 35.7222 38.2043L38.7054 38.5214C38.7509 38.0931 38.8509 37.6724 39.0019 37.2699L36.1929 36.2164ZM36.8756 39.8242C38.5574 40.2134 39.6806 40.7861 40.2247 41.1942L42.0247 38.7942C41.0675 38.0763 39.532 37.3597 37.552 36.9015L36.8756 39.8242ZM40.2247 41.1942C40.0736 41.0809 39.9847 40.903 39.9847 40.7142H42.9847C42.9847 39.9588 42.629 39.2474 42.0247 38.7942L40.2247 41.1942ZM39.9847 40.7142V44.0919H42.9847V40.7142H39.9847ZM39.9847 44.0919C39.9847 43.9121 40.0653 43.7418 40.2044 43.6279L42.106 45.9482C42.6622 45.4923 42.9847 44.8111 42.9847 44.0919H39.9847ZM40.2043 43.6279C40.2636 43.5793 40.3309 43.5431 40.402 43.5204L41.3152 46.378C41.6001 46.287 41.869 46.1424 42.106 45.9482L40.2043 43.6279ZM40.4529 39.9071C39.7882 39.5107 38.85 39.1043 37.6751 38.7879L36.8951 41.6847C37.848 41.9413 38.5239 42.2497 38.9164 42.4838L40.4529 39.9071ZM41.1847 43.0007V41.1954H38.1847V43.0007H41.1847ZM38.0878 44.2438C38.5259 44.3148 38.9661 44.3925 39.4094 44.4752L39.9599 41.5261C39.4973 41.4398 39.0334 41.3579 38.5681 41.2825L38.0878 44.2438ZM36.4438 42.4789C36.6311 42.8779 36.8475 43.2553 37.0895 43.6095L39.5664 41.9168C39.4147 41.6948 39.2782 41.457 39.1594 41.204L36.4438 42.4789ZM35.81 40.5083C35.9332 41.1765 36.1431 41.8385 36.4438 42.4789L39.1594 41.204C38.9687 40.7979 38.8372 40.3818 38.7602 39.9643L35.81 40.5083ZM37.2551 41.8454C36.9524 41.1437 36.773 40.4201 36.7066 39.6983L33.7192 39.973C33.8141 41.005 34.0707 42.0373 34.5004 43.0336L37.2551 41.8454ZM27.5969 44.6625C30.313 43.7794 32.9833 43.664 35.732 43.9324L36.0235 40.9466C32.9964 40.651 29.8879 40.763 26.6693 41.8095L27.5969 44.6625ZM22.1807 47.6728C24.1196 46.2943 26.0851 45.1541 27.5969 44.6625L26.6693 41.8095C24.7181 42.444 22.4553 43.7966 20.4424 45.2277L22.1807 47.6728ZM17.1104 51.9331C18.3966 50.6172 20.251 49.0446 22.1807 47.6728L20.4424 45.2277C18.3921 46.6853 16.3962 48.372 14.965 49.8361L17.1104 51.9331ZM15.9942 52.4345C16.406 52.4154 16.8079 52.2426 17.1104 51.9331L14.965 49.8361C15.2037 49.592 15.5234 49.453 15.8557 49.4377L15.9942 52.4345ZM14.8309 52.0178C15.1542 52.3118 15.5726 52.4539 15.9942 52.4345L15.8557 49.4377C16.009 49.4306 16.1883 49.449 16.376 49.5154C16.5651 49.5822 16.7235 49.684 16.849 49.7981L14.8309 52.0178ZM10.8045 48.3575L14.8309 52.0179L16.849 49.798L12.8225 46.1376L10.8045 48.3575ZM10.2808 47.1947C10.2881 47.6333 10.4708 48.0541 10.8045 48.3574L12.8226 46.1377C12.9509 46.2543 13.0728 46.4093 13.1595 46.6036C13.2457 46.7966 13.2777 46.9846 13.2803 47.1448L10.2808 47.1947ZM10.7488 46.0183C10.4346 46.3403 10.2736 46.7663 10.2808 47.1947L13.2803 47.1448C13.2862 47.4991 13.1527 47.8504 12.8959 48.1136L10.7488 46.0183ZM16.054 37.2269C15.2084 40.2657 13.588 43.1092 10.7489 46.0182L12.8958 48.1136C16.044 44.888 17.9476 41.6125 18.9442 38.0312L16.054 37.2269ZM16.819 29.4976C16.9112 32.3138 16.7171 34.8441 16.054 37.2269L18.9442 38.0312C19.7149 35.2616 19.9158 32.4055 19.8174 29.3994L16.819 29.4976ZM20.7391 28.7297C20.1289 28.5822 19.5354 28.3702 18.9697 28.0974L17.6666 30.7996C18.4236 31.1646 19.2177 31.4484 20.0345 31.6458L20.7391 28.7297ZM22.1042 31.4018C22.0398 30.8847 21.9576 30.3738 21.8554 29.8824L18.9182 30.4931C19.0016 30.8944 19.0713 31.3243 19.1272 31.7727L22.1042 31.4018ZM22.2683 35.8497C22.3263 34.8055 22.3175 33.1141 22.1042 31.4018L19.1272 31.7727C19.3154 33.2835 19.3224 34.7933 19.2729 35.6833L22.2683 35.8497ZM21.9378 35.2799C22.1517 35.3869 22.2816 35.6109 22.2683 35.8497L19.2729 35.6833C19.2198 36.6387 19.7394 37.5344 20.5951 37.9626L21.9378 35.2799ZM21.2835 35.3568C21.4667 35.2031 21.7238 35.1728 21.9378 35.2799L20.5951 37.9626C21.4508 38.3909 22.4792 38.2699 23.2121 37.6548L21.2835 35.3568ZM22.6428 34.216L21.2835 35.3568L23.2121 37.6548L24.5714 36.514L22.6428 34.216ZM27.6052 36.435C26.519 35.9664 25.5318 35.2659 24.7246 34.3644L22.4896 36.3656C23.593 37.598 24.9397 38.5524 26.4169 39.1896L27.6052 36.435ZM27.0207 40.0935L28.1453 38.7939L25.8768 36.8308L24.7522 38.1303L27.0207 40.0935ZM27.0747 39.3812C27.2154 39.6047 27.1935 39.8938 27.0207 40.0935L24.7522 38.1303C24.061 38.929 23.9732 40.0856 24.5359 40.9794L27.0747 39.3812ZM26.4091 39.122C26.6639 39.0525 26.9341 39.1577 27.0747 39.3812L24.5359 40.9794C25.0986 41.8733 26.1795 42.2942 27.1985 42.0163L26.4091 39.122ZM35.3986 38.3472C33.0108 38.0494 29.9799 38.1481 26.4091 39.122L27.1985 42.0163C30.3972 41.1439 33.034 41.0755 35.0273 41.3241L35.3986 38.3472ZM36.7285 38.2068C36.7443 38.0758 36.7639 37.9454 36.787 37.8157L33.8335 37.2892C33.8006 37.4737 33.7729 37.6593 33.7502 37.8458L36.7285 38.2068ZM34.6312 36.215C34.5544 36.254 34.4766 36.292 34.3979 36.3289L35.6729 39.0445C35.7794 38.9945 35.8849 38.943 35.9893 38.89L34.6312 36.215ZM34.3979 36.3289C34.2249 36.4102 34.0506 36.4848 33.8755 36.553L34.9642 39.3485C35.2022 39.2558 35.4386 39.1545 35.6729 39.0445L34.3979 36.3289ZM34.3136 39.447C34.5728 39.4654 34.825 39.4888 35.0698 39.5167L35.4089 36.5359C35.1218 36.5032 34.8275 36.4759 34.526 36.4545L34.3136 39.447ZM29.5358 37.1871L34.0727 31.9445L31.8042 29.9814L27.2673 35.2239L29.5358 37.1871ZM33.9991 29.9023L32.1344 28.0376L30.0131 30.159L31.8777 32.0236L33.9991 29.9023ZM30.1095 27.9493L24.1761 32.9291L26.1047 35.227L32.0381 30.2473L30.1095 27.9493ZM24.0314 35.088C25.1054 36.2675 26.4522 37.1309 27.9221 37.6268L28.8811 34.7842C27.8834 34.4476 26.9731 33.8628 26.2495 33.0681L24.0314 35.088ZM20.8886 27.0877C20.8129 26.9536 20.7314 26.822 20.6437 26.6943L18.1715 28.3939C18.2048 28.4422 18.24 28.4985 18.2766 28.5633L20.8886 27.0877ZM20.6437 26.6943C20.2433 26.112 19.8353 25.7034 19.4101 25.4698L17.9653 28.0989C17.8866 28.0557 17.8741 28.032 17.9203 28.078C17.9639 28.1214 18.0498 28.2169 18.1715 28.3939L20.6437 26.6943ZM19.4101 25.4697C19.1931 25.3505 18.9702 25.2761 18.7442 25.2506L18.4068 28.2315C18.1998 28.2081 18.0495 28.1452 17.9653 28.0989L19.4101 25.4697ZM18.7442 25.2506C18.6932 25.2448 18.5699 25.2326 18.4142 25.2485C18.2527 25.2649 18.1311 25.3044 18.099 25.3147L19.0185 28.1703C18.9922 28.1788 18.875 28.2171 18.7185 28.233C18.5677 28.2484 18.4498 28.2364 18.4069 28.2315L18.7442 25.2506ZM18.0992 25.3147C17.7078 25.4406 17.4078 25.7053 17.1917 25.9754L19.5343 27.8495C19.5197 27.8678 19.4783 27.9158 19.4031 27.9733C19.3656 28.002 19.318 28.0344 19.2597 28.0666C19.2069 28.0958 19.1255 28.1359 19.0183 28.1704L18.0992 25.3147ZM17.1917 25.9754C17.0852 26.1086 16.9966 26.2459 16.9242 26.3753L19.5427 27.8394C19.5452 27.835 19.5464 27.8332 19.5458 27.8341C19.5453 27.8348 19.5417 27.8403 19.5343 27.8495L17.1917 25.9754ZM17.4103 28.3613C17.9151 28.6927 18.4482 28.976 19.0019 29.2085L20.1633 26.4424C19.7779 26.2806 19.4073 26.0836 19.0567 25.8535L17.4103 28.3613Z" fill="#F8F9FA" mask="url(#path-1-outside-1_50_9567)"/>
<path d="M11.1794 46.3262C16.9812 40.3815 17.8877 34.6066 17.2792 26.9231C17.617 26.0224 18.6641 24.7614 20.1504 26.9231C21.6366 29.0848 21.7829 33.6786 21.6703 35.7053L31.1281 27.7676L34.168 30.8075L26.5681 39.5897C33.9992 37.5631 39.0095 39.4208 40.5858 40.603V43.9808C36.0646 43.0752 31.8148 42.5494 27.4125 43.9808C24.2133 45.021 19.3129 48.7115 16.6824 51.4026C16.2912 51.8029 15.6498 51.8393 15.2357 51.4628L11.2092 47.8024C10.7805 47.4126 10.7747 46.7408 11.1794 46.3262Z" fill="#51CF66" stroke="#212529" stroke-width="1.8" stroke-linecap="round" stroke-linejoin="round"/>
<path fill-rule="evenodd" clip-rule="evenodd" d="M39.1485 14.1257C39.5006 14.8758 39.719 15.6543 39.8134 16.4343C42.8709 16.1846 45.9006 17.8226 47.281 20.7628C47.7885 21.8436 48.0182 22.9834 47.9992 24.1018C48.7736 24.5535 49.4236 25.2366 49.8334 26.1095C50.3426 27.194 50.3896 28.3768 50.0546 29.4356C50.2564 29.7405 50.4386 30.0638 50.5986 30.4047C51.5012 32.327 51.5251 34.4362 50.8339 36.2791C52.2115 39.9377 50.5637 44.099 46.9644 45.7889C43.181 47.5652 38.6739 45.9381 36.8975 42.1547C35.995 40.2323 35.9711 38.1231 36.6622 36.2802C36.5692 36.033 36.4899 35.7835 36.4241 35.5326C35.8804 35.9748 35.2746 36.3585 34.6116 36.6698C30.228 38.7278 25.0061 36.8427 22.948 32.4592C22.4732 31.4478 22.2083 30.3919 22.1355 29.3404C19.2004 29.1264 16.4443 27.5245 14.8459 24.888C13.514 24.2476 12.3859 23.1617 11.7089 21.7197C10.1466 18.3921 11.5776 14.4281 14.9052 12.8658C15.823 12.4349 16.7892 12.2317 17.74 12.2332C18.0899 12.0072 18.459 11.802 18.8465 11.62C21.5903 10.3318 24.6435 10.4982 27.1358 11.8052C27.6975 11.2816 28.3492 10.8354 29.0816 10.4915C32.865 8.7152 37.3721 10.3423 39.1485 14.1257Z" fill="#2B8A3E"/>
<path d="M39.8134 16.4344L38.9199 16.5424C38.9779 17.0224 39.4048 17.3707 39.8866 17.3314L39.8134 16.4344ZM39.1485 14.1258L38.3338 14.5083L38.3338 14.5083L39.1485 14.1258ZM47.281 20.7629L46.4664 21.1454L46.4664 21.1454L47.281 20.7629ZM47.9992 24.1019L47.0994 24.0866C47.0938 24.4121 47.2646 24.7153 47.5458 24.8793L47.9992 24.1019ZM49.8334 26.1095L50.6481 25.727L50.6481 25.727L49.8334 26.1095ZM50.0546 29.4357L49.1965 29.1642C49.1145 29.4234 49.1541 29.7057 49.3041 29.9324L50.0546 29.4357ZM50.5986 30.4047L49.7839 30.7872L49.7839 30.7872L50.5986 30.4047ZM50.8339 36.2792L49.9912 35.9631C49.9147 36.1673 49.9148 36.3923 49.9916 36.5963L50.8339 36.2792ZM46.9644 45.7889L46.5819 44.9743L46.5819 44.9743L46.9644 45.7889ZM36.8975 42.1547L37.7122 41.7722L37.7122 41.7722L36.8975 42.1547ZM36.6622 36.2803L37.5049 36.5963C37.5815 36.3922 37.5813 36.1672 37.5045 35.9631L36.6622 36.2803ZM36.4241 35.5327L37.2947 35.3044C37.2171 35.0084 36.9944 34.7722 36.7036 34.6772C36.4128 34.5822 36.0936 34.6414 35.8562 34.8344L36.4241 35.5327ZM34.6116 36.6698L34.994 37.4845L34.994 37.4845L34.6116 36.6698ZM22.948 32.4592L22.1333 32.8417L22.1333 32.8417L22.948 32.4592ZM22.1355 29.3405L23.0333 29.2783C23.0024 28.8315 22.6476 28.4754 22.2009 28.4428L22.1355 29.3405ZM14.8459 24.888L15.6155 24.4215C15.5251 24.2723 15.3932 24.1526 15.2359 24.0769L14.8459 24.888ZM11.7089 21.7197L12.5236 21.3372L11.7089 21.7197ZM14.9052 12.8658L15.2877 13.6805L15.2877 13.6805L14.9052 12.8658ZM17.74 12.2332L17.7386 13.1332C17.9124 13.1335 18.0825 13.0835 18.2284 12.9892L17.74 12.2332ZM18.8465 11.6201L18.464 10.8054L18.464 10.8054L18.8465 11.6201ZM27.1358 11.8052L26.7178 12.6023C27.0562 12.7797 27.4698 12.7241 27.7493 12.4636L27.1358 11.8052ZM29.0816 10.4916L29.4641 11.3063L29.4641 11.3063L29.0816 10.4916ZM40.7069 16.3263C40.6012 15.4524 40.3565 14.5811 39.9632 13.7433L38.3338 14.5083C38.6447 15.1705 38.8369 15.8563 38.9199 16.5424L40.7069 16.3263ZM48.0957 20.3804C46.5505 17.0892 43.1598 15.2581 39.7401 15.5373L39.8866 17.3314C42.5821 17.1113 45.2507 18.5561 46.4664 21.1454L48.0957 20.3804ZM48.8991 24.1171C48.9203 22.8644 48.6628 21.5882 48.0957 20.3804L46.4664 21.1454C46.9141 22.0991 47.116 23.1026 47.0994 24.0866L48.8991 24.1171ZM50.6481 25.727C50.1583 24.6837 49.3796 23.8651 48.4527 23.3244L47.5458 24.8793C48.1675 25.2419 48.689 25.7896 49.0187 26.492L50.6481 25.727ZM50.9127 29.7071C51.3132 28.4411 51.2572 27.0243 50.6481 25.727L49.0187 26.492C49.4281 27.3638 49.466 28.3126 49.1965 29.1642L50.9127 29.7071ZM51.4133 30.0222C51.2346 29.6417 51.031 29.2802 50.8051 28.9389L49.3041 29.9324C49.4819 30.201 49.6426 30.4861 49.7839 30.7872L51.4133 30.0222ZM51.6766 36.5952C52.4494 34.5346 52.4231 32.1731 51.4133 30.0222L49.7839 30.7872C50.5792 32.4811 50.6007 34.338 49.9912 35.9631L51.6766 36.5952ZM49.9916 36.5963C51.205 39.8189 49.7528 43.4855 46.5819 44.9743L47.3469 46.6036C51.3747 44.7126 53.2179 40.0565 51.6762 35.962L49.9916 36.5963ZM46.5819 44.9743C43.2484 46.5393 39.2773 45.1058 37.7122 41.7722L36.0829 42.5372C38.0704 46.7706 43.1135 48.5912 47.3469 46.6036L46.5819 44.9743ZM37.7122 41.7722C36.9169 40.0783 36.8954 38.2215 37.5049 36.5963L35.8196 35.9642C35.0467 38.0249 35.073 40.3864 36.0829 42.5372L37.7122 41.7722ZM35.5535 35.761C35.6272 36.0418 35.7159 36.321 35.82 36.5974L37.5045 35.9631C37.4224 35.7451 37.3526 35.5253 37.2947 35.3044L35.5535 35.761ZM34.994 37.4845C35.7239 37.1418 36.3919 36.7189 36.992 36.2309L35.8562 34.8344C35.3689 35.2308 34.8252 35.5752 34.2291 35.8551L34.994 37.4845ZM22.1333 32.8417C24.4027 37.6752 30.1606 39.7538 34.994 37.4845L34.2291 35.8551C30.2955 37.702 25.6095 36.0103 23.7627 32.0767L22.1333 32.8417ZM21.2376 29.4026C21.318 30.5633 21.6105 31.728 22.1333 32.8417L23.7627 32.0767C23.3359 31.1677 23.0986 30.2205 23.0333 29.2783L21.2376 29.4026ZM14.0763 25.3546C15.8305 28.2482 18.8536 30.0035 22.07 30.2381L22.2009 28.4428C19.5471 28.2493 17.058 26.8008 15.6155 24.4215L14.0763 25.3546ZM10.8942 22.1022C11.6624 23.7385 12.9442 24.9723 14.4559 25.6992L15.2359 24.0769C14.0839 23.523 13.1094 22.585 12.5236 21.3372L10.8942 22.1022ZM14.5227 12.0512C10.7452 13.8247 9.12067 18.3247 10.8942 22.1022L12.5236 21.3372C11.1725 18.4596 12.41 15.0316 15.2877 13.6805L14.5227 12.0512ZM17.7415 11.3332C16.6607 11.3315 15.5631 11.5627 14.5227 12.0512L15.2877 13.6805C16.0829 13.3072 16.9177 13.1319 17.7386 13.1332L17.7415 11.3332ZM18.464 10.8054C18.0398 11.0046 17.6353 11.2294 17.2516 11.4773L18.2284 12.9892C18.5444 12.785 18.8782 12.5995 19.229 12.4348L18.464 10.8054ZM27.5537 11.0081C24.8228 9.57606 21.4735 9.39243 18.464 10.8054L19.229 12.4348C21.7071 11.2712 24.4641 11.4204 26.7178 12.6023L27.5537 11.0081ZM28.6991 9.6769C27.881 10.061 27.1516 10.5603 26.5222 11.1468L27.7493 12.4636C28.2435 12.0031 28.8173 11.6099 29.4641 11.3063L28.6991 9.6769ZM39.9632 13.7433C37.9756 9.5099 32.9325 7.68932 28.6991 9.6769L29.4641 11.3063C32.7976 9.74117 36.7687 11.1748 38.3338 14.5083L39.9632 13.7433Z" fill="#212529"/>
<path d="M47.7499 22.0879C48.1501 23.8487 47.91 27.7705 43.748 29.3712" stroke="#212529" stroke-width="2" stroke-linecap="round" stroke-linejoin="round"/>
<path d="M26.7278 30.9193C25.6986 29.8189 24.2214 26.8921 26.5466 23.9874" stroke="#212529" stroke-width="1.6" stroke-linecap="round" stroke-linejoin="round"/>
<path d="M14.3148 50.3214C15.3661 49.0746 17.8648 46.3461 19.4491 45.4072" stroke="#212529" stroke-width="1.6" stroke-linecap="round" stroke-linejoin="round"/>
<g style="mix-blend-mode:multiply" opacity="0.4">
<path d="M27.3247 41.476C22.4095 42.8803 17.664 46.8052 14.6523 49.7969L15.935 51.008C18.0492 48.9537 23.3649 44.5269 27.4815 43.1388C31.598 41.7506 34.71 42.5207 36.1348 42.5207L35.4885 40.7187C33.7135 40.6389 31.2052 40.3673 27.3247 41.476Z" fill="#51CF66"/>
</g>
<g style="mix-blend-mode:multiply" opacity="0.3">
<path fill-rule="evenodd" clip-rule="evenodd" d="M39.8144 15.7763C39.72 14.9963 39.5016 14.2178 39.1495 13.4677C37.3731 9.68427 32.866 8.05718 29.0826 9.83352C28.6074 10.0566 28.1663 10.3228 27.7616 10.6252C31.2888 9.57695 35.1478 11.2346 36.7593 14.6669C37.1114 15.417 37.3298 16.1955 37.4242 16.9755C40.4817 16.7259 43.5114 18.3638 44.8919 21.304C45.3993 22.3848 45.629 23.5247 45.61 24.643C46.3844 25.0947 47.0344 25.7778 47.4442 26.6507C47.9534 27.7352 48.0004 28.918 47.6654 29.9768C47.8672 30.2817 48.0494 30.6051 48.2094 30.9459C49.112 32.8683 49.1359 34.9775 48.4447 36.8203C49.6404 39.9959 48.5569 43.5503 45.8962 45.5385C46.257 45.4312 46.6143 45.2957 46.9654 45.1309C50.5647 43.441 52.2125 39.2797 50.8349 35.6211C51.5261 33.7782 51.5021 31.669 50.5996 29.7467C50.4396 29.4058 50.2574 29.0825 50.0556 28.7776C50.3906 27.7188 50.3436 26.536 49.8344 25.4515C49.4246 24.5786 48.7746 23.8954 48.0002 23.4438C48.0192 22.3254 47.7895 21.1856 47.282 20.1048C45.9016 17.1646 42.8719 15.5266 39.8144 15.7763ZM34.0807 36.2407C34.0648 36.1851 34.0495 36.1295 34.0349 36.0738C33.8876 36.1936 33.7357 36.3092 33.5794 36.4201C33.7473 36.3657 33.9145 36.3059 34.0807 36.2407ZM26.8045 10.9812C24.3763 9.82836 21.4705 9.73048 18.8475 10.962C18.46 11.1439 18.0909 11.3492 17.741 11.5752C16.7901 11.5737 15.8239 11.7769 14.9062 12.2078C14.4368 12.4281 14.0052 12.6963 13.6144 13.0037C14.1893 12.8482 14.7729 12.7735 15.3508 12.7744C15.7007 12.5484 16.0698 12.3432 16.4573 12.1612C19.2011 10.873 22.2543 11.0394 24.7466 12.3464C25.3083 11.8229 25.96 11.3766 26.6924 11.0327C26.7297 11.0152 26.7671 10.9981 26.8045 10.9812Z" fill="#2B8A3E"/>
</g>
<g style="mix-blend-mode:soft-light" opacity="0.3">
<path d="M16.0314 17.0312C16.6609 15.7974 16.3307 15.5442 15.7284 15.3506C15.1262 15.1571 14.2345 15.8121 13.5281 18.0434C12.8218 20.2747 14.4411 21.7462 15.1349 21.0635C15.8288 20.3808 15.2446 18.5735 16.0314 17.0312Z" fill="#F8F9FA"/>
</g>
</svg>
