<svg width="60" height="60" viewBox="0 0 60 60" fill="none" xmlns="http://www.w3.org/2000/svg">
<mask id="path-1-outside-1_50_7746" maskUnits="userSpaceOnUse" x="4.10339" y="8.48389" width="51" height="43" fill="black">
<rect fill="white" x="4.10339" y="8.48389" width="51" height="43"/>
<path fill-rule="evenodd" clip-rule="evenodd" d="M27.3697 38.205C27.2416 37.9453 27.1567 37.6591 27.1252 37.355C26.7365 33.609 26.6192 30.9267 26.746 27.2407C26.7691 26.571 27.0235 25.9665 27.4292 25.4977C25.6323 22.971 22.8763 19.7183 19.8484 17.0406C18.175 15.5608 16.4387 14.2747 14.7536 13.3822C13.0604 12.4854 11.4799 12.0185 10.0973 12.0913C9.1655 12.1403 8.58987 12.3075 8.24666 12.5071C7.93715 12.6872 7.79938 12.9008 7.7395 13.1674C7.67066 13.4739 7.6955 13.9054 7.85383 14.4952C8.01001 15.0769 8.27684 15.7445 8.62068 16.4943C8.91941 17.1457 9.26447 17.8342 9.62923 18.562L9.62928 18.5621L9.79369 18.8903C10.2157 19.7337 10.6545 20.6217 11.0503 21.5234C11.8353 23.3118 12.4905 25.2381 12.4905 27.0894C12.4905 28.0692 12.8083 29.2104 13.2636 30.2252C13.7273 31.2586 14.2714 32.0242 14.6228 32.318C14.8714 32.5259 15.0438 32.8501 15.0216 33.2184C14.9981 33.6099 14.7588 33.9407 14.4076 34.1013C13.3652 34.5782 12.4845 35.242 11.8637 36.127C11.2473 37.0058 10.8552 38.1477 10.8552 39.641C10.8552 41.7739 11.4723 44.0362 12.5671 45.7121C13.6581 47.3821 15.147 48.3752 16.9196 48.2767C17.5358 48.2425 18.3804 47.8623 19.409 47.108C20.4131 46.3716 21.4932 45.3536 22.5645 44.2048C24.3883 42.2491 26.1347 39.9709 27.3697 38.205ZM28.52 39.3509C27.2634 41.1293 25.5417 43.3583 23.7347 45.296C22.628 46.4827 21.4713 47.5797 20.3552 48.3982C19.2635 49.1988 18.1043 49.8134 17.0083 49.8743C14.4817 50.0146 12.5161 48.5595 11.2276 46.5871C9.94288 44.6205 9.25523 42.0461 9.25523 39.641C9.25523 37.8502 9.73134 36.3807 10.5539 35.2081C11.2196 34.259 12.0911 33.5342 13.0613 32.9913C12.608 32.4361 12.1637 31.6823 11.8038 30.8802C11.2939 29.7437 10.8905 28.372 10.8905 27.0894C10.8905 25.5807 10.3482 23.9047 9.58522 22.1665C9.20703 21.305 8.78419 20.4485 8.36279 19.6063L8.19993 19.2811C7.83648 18.556 7.47757 17.8399 7.16633 17.1612C6.80919 16.3825 6.49919 15.6201 6.30855 14.91C6.12007 14.208 6.02812 13.4859 6.17839 12.8168C6.33762 12.1078 6.75487 11.5239 7.44216 11.1241C8.09575 10.7439 8.9587 10.549 10.0132 10.4935C11.7988 10.3995 13.6774 11.0016 15.5025 11.9683C17.3357 12.9392 19.1768 14.3109 20.9083 15.8421C23.84 18.4347 26.515 21.536 28.3714 24.0696C28.1381 22.4629 27.4069 20.9315 26.5136 19.6135C25.4676 18.0701 24.2328 16.869 23.4324 16.2465C23.1709 16.043 23.1237 15.6661 23.3272 15.4045C23.5306 15.1429 23.9076 15.0958 24.1692 15.2992C25.0633 15.9947 26.3864 17.287 27.507 18.9403C28.4904 20.3913 29.3437 22.1588 29.5828 24.0737C29.822 22.1588 30.6753 20.3913 31.6587 18.9403C32.7792 17.287 34.1024 15.9947 34.9965 15.2992C35.2581 15.0958 35.6351 15.1429 35.8385 15.4045C36.0419 15.6661 35.9948 16.043 35.7333 16.2465C34.9329 16.869 33.6981 18.0701 32.652 19.6135C31.6449 21.0995 30.8438 22.8566 30.7301 24.6872C32.5892 22.0535 35.4628 18.6495 38.6375 15.8421C40.369 14.3109 42.2101 12.9392 44.0433 11.9683C45.8684 11.0016 47.747 10.3995 49.5326 10.4935C50.5871 10.549 51.4501 10.7439 52.1036 11.1241C52.7909 11.5239 53.2082 12.1078 53.3674 12.8168C53.5177 13.4859 53.4257 14.208 53.2373 14.91C53.0466 15.6201 52.7366 16.3825 52.3795 17.1612C52.0682 17.8399 51.7093 18.556 51.3459 19.2811L51.183 19.6063C50.7616 20.4485 50.3388 21.305 49.9606 22.1665C49.1976 23.9047 48.6553 25.5807 48.6553 27.0894C48.6553 28.372 48.2519 29.7437 47.742 30.8802C47.3821 31.6823 46.9379 32.4361 46.4845 32.9913C47.4547 33.5342 48.3262 34.259 48.9919 35.2081C49.8145 36.3807 50.2906 37.8502 50.2906 39.641C50.2906 42.0461 49.6029 44.6205 48.3182 46.5871C47.0297 48.5595 45.0642 50.0146 42.5375 49.8743C41.4415 49.8134 40.2823 49.1988 39.1906 48.3982C38.0745 47.5797 36.9178 46.4827 35.8112 45.296C33.9662 43.3176 32.2102 41.0357 30.9473 39.2395C30.5626 39.4743 30.1113 39.6085 29.6323 39.6085C29.2354 39.6085 28.8571 39.5163 28.52 39.3509ZM29.4133 37.9825C29.4835 37.9995 29.5569 38.0085 29.6323 38.0085C29.8048 38.0085 29.9665 37.9615 30.1047 37.8794C30.0898 37.8099 30.0826 37.7395 30.0826 37.6696V26.2132C29.9308 26.1482 29.7634 26.1122 29.5875 26.1122C29.5455 26.1122 29.5041 26.1142 29.4632 26.1182V37.6696C29.4632 37.7743 29.447 37.8801 29.4133 37.9825ZM32.0017 37.9542C33.2435 39.7513 35.0699 42.1552 36.9813 44.2048C38.0526 45.3536 39.1327 46.3716 40.1368 47.108C41.1654 47.8623 42.01 48.2425 42.6262 48.2767C44.3989 48.3752 45.8877 47.3821 46.9787 45.7121C48.0735 44.0362 48.6906 41.7739 48.6906 39.641C48.6906 38.1477 48.2985 37.0058 47.6821 36.127C47.0613 35.242 46.1806 34.5782 45.1382 34.1013C44.787 33.9407 44.5477 33.6099 44.5242 33.2184C44.502 32.8501 44.6744 32.5259 44.923 32.318C45.2744 32.0242 45.8185 31.2586 46.2822 30.2252C46.7375 29.2104 47.0553 28.0692 47.0553 27.0894C47.0553 25.2381 47.7105 23.3118 48.4955 21.5234C48.8914 20.6217 49.3302 19.7337 49.7521 18.8903L49.9165 18.5621L49.9166 18.5619C50.2814 17.8341 50.6264 17.1456 50.9251 16.4943C51.269 15.7445 51.5358 15.0769 51.692 14.4952C51.8503 13.9054 51.8752 13.4739 51.8063 13.1674C51.7464 12.9008 51.6087 12.6872 51.2991 12.5071C50.9559 12.3075 50.3803 12.1403 49.4485 12.0913C48.0659 12.0185 46.4854 12.4854 44.7922 13.3822C43.1071 14.2747 41.3708 15.5608 39.6975 17.0406C36.5686 19.8075 33.73 23.1885 31.9401 25.748C32.2429 26.1876 32.4251 26.7173 32.4376 27.2915C32.5175 30.9526 32.4534 33.6074 32.1435 37.3065C32.1245 37.533 32.0759 37.7501 32.0017 37.9542Z"/>
</mask>
<path fill-rule="evenodd" clip-rule="evenodd" d="M27.3697 38.205C27.2416 37.9453 27.1567 37.6591 27.1252 37.355C26.7365 33.609 26.6192 30.9267 26.746 27.2407C26.7691 26.571 27.0235 25.9665 27.4292 25.4977C25.6323 22.971 22.8763 19.7183 19.8484 17.0406C18.175 15.5608 16.4387 14.2747 14.7536 13.3822C13.0604 12.4854 11.4799 12.0185 10.0973 12.0913C9.1655 12.1403 8.58987 12.3075 8.24666 12.5071C7.93715 12.6872 7.79938 12.9008 7.7395 13.1674C7.67066 13.4739 7.6955 13.9054 7.85383 14.4952C8.01001 15.0769 8.27684 15.7445 8.62068 16.4943C8.91941 17.1457 9.26447 17.8342 9.62923 18.562L9.62928 18.5621L9.79369 18.8903C10.2157 19.7337 10.6545 20.6217 11.0503 21.5234C11.8353 23.3118 12.4905 25.2381 12.4905 27.0894C12.4905 28.0692 12.8083 29.2104 13.2636 30.2252C13.7273 31.2586 14.2714 32.0242 14.6228 32.318C14.8714 32.5259 15.0438 32.8501 15.0216 33.2184C14.9981 33.6099 14.7588 33.9407 14.4076 34.1013C13.3652 34.5782 12.4845 35.242 11.8637 36.127C11.2473 37.0058 10.8552 38.1477 10.8552 39.641C10.8552 41.7739 11.4723 44.0362 12.5671 45.7121C13.6581 47.3821 15.147 48.3752 16.9196 48.2767C17.5358 48.2425 18.3804 47.8623 19.409 47.108C20.4131 46.3716 21.4932 45.3536 22.5645 44.2048C24.3883 42.2491 26.1347 39.9709 27.3697 38.205ZM28.52 39.3509C27.2634 41.1293 25.5417 43.3583 23.7347 45.296C22.628 46.4827 21.4713 47.5797 20.3552 48.3982C19.2635 49.1988 18.1043 49.8134 17.0083 49.8743C14.4817 50.0146 12.5161 48.5595 11.2276 46.5871C9.94288 44.6205 9.25523 42.0461 9.25523 39.641C9.25523 37.8502 9.73134 36.3807 10.5539 35.2081C11.2196 34.259 12.0911 33.5342 13.0613 32.9913C12.608 32.4361 12.1637 31.6823 11.8038 30.8802C11.2939 29.7437 10.8905 28.372 10.8905 27.0894C10.8905 25.5807 10.3482 23.9047 9.58522 22.1665C9.20703 21.305 8.78419 20.4485 8.36279 19.6063L8.19993 19.2811C7.83648 18.556 7.47757 17.8399 7.16633 17.1612C6.80919 16.3825 6.49919 15.6201 6.30855 14.91C6.12007 14.208 6.02812 13.4859 6.17839 12.8168C6.33762 12.1078 6.75487 11.5239 7.44216 11.1241C8.09575 10.7439 8.9587 10.549 10.0132 10.4935C11.7988 10.3995 13.6774 11.0016 15.5025 11.9683C17.3357 12.9392 19.1768 14.3109 20.9083 15.8421C23.84 18.4347 26.515 21.536 28.3714 24.0696C28.1381 22.4629 27.4069 20.9315 26.5136 19.6135C25.4676 18.0701 24.2328 16.869 23.4324 16.2465C23.1709 16.043 23.1237 15.6661 23.3272 15.4045C23.5306 15.1429 23.9076 15.0958 24.1692 15.2992C25.0633 15.9947 26.3864 17.287 27.507 18.9403C28.4904 20.3913 29.3437 22.1588 29.5828 24.0737C29.822 22.1588 30.6753 20.3913 31.6587 18.9403C32.7792 17.287 34.1024 15.9947 34.9965 15.2992C35.2581 15.0958 35.6351 15.1429 35.8385 15.4045C36.0419 15.6661 35.9948 16.043 35.7333 16.2465C34.9329 16.869 33.6981 18.0701 32.652 19.6135C31.6449 21.0995 30.8438 22.8566 30.7301 24.6872C32.5892 22.0535 35.4628 18.6495 38.6375 15.8421C40.369 14.3109 42.2101 12.9392 44.0433 11.9683C45.8684 11.0016 47.747 10.3995 49.5326 10.4935C50.5871 10.549 51.4501 10.7439 52.1036 11.1241C52.7909 11.5239 53.2082 12.1078 53.3674 12.8168C53.5177 13.4859 53.4257 14.208 53.2373 14.91C53.0466 15.6201 52.7366 16.3825 52.3795 17.1612C52.0682 17.8399 51.7093 18.556 51.3459 19.2811L51.183 19.6063C50.7616 20.4485 50.3388 21.305 49.9606 22.1665C49.1976 23.9047 48.6553 25.5807 48.6553 27.0894C48.6553 28.372 48.2519 29.7437 47.742 30.8802C47.3821 31.6823 46.9379 32.4361 46.4845 32.9913C47.4547 33.5342 48.3262 34.259 48.9919 35.2081C49.8145 36.3807 50.2906 37.8502 50.2906 39.641C50.2906 42.0461 49.6029 44.6205 48.3182 46.5871C47.0297 48.5595 45.0642 50.0146 42.5375 49.8743C41.4415 49.8134 40.2823 49.1988 39.1906 48.3982C38.0745 47.5797 36.9178 46.4827 35.8112 45.296C33.9662 43.3176 32.2102 41.0357 30.9473 39.2395C30.5626 39.4743 30.1113 39.6085 29.6323 39.6085C29.2354 39.6085 28.8571 39.5163 28.52 39.3509ZM29.4133 37.9825C29.4835 37.9995 29.5569 38.0085 29.6323 38.0085C29.8048 38.0085 29.9665 37.9615 30.1047 37.8794C30.0898 37.8099 30.0826 37.7395 30.0826 37.6696V26.2132C29.9308 26.1482 29.7634 26.1122 29.5875 26.1122C29.5455 26.1122 29.5041 26.1142 29.4632 26.1182V37.6696C29.4632 37.7743 29.447 37.8801 29.4133 37.9825ZM32.0017 37.9542C33.2435 39.7513 35.0699 42.1552 36.9813 44.2048C38.0526 45.3536 39.1327 46.3716 40.1368 47.108C41.1654 47.8623 42.01 48.2425 42.6262 48.2767C44.3989 48.3752 45.8877 47.3821 46.9787 45.7121C48.0735 44.0362 48.6906 41.7739 48.6906 39.641C48.6906 38.1477 48.2985 37.0058 47.6821 36.127C47.0613 35.242 46.1806 34.5782 45.1382 34.1013C44.787 33.9407 44.5477 33.6099 44.5242 33.2184C44.502 32.8501 44.6744 32.5259 44.923 32.318C45.2744 32.0242 45.8185 31.2586 46.2822 30.2252C46.7375 29.2104 47.0553 28.0692 47.0553 27.0894C47.0553 25.2381 47.7105 23.3118 48.4955 21.5234C48.8914 20.6217 49.3302 19.7337 49.7521 18.8903L49.9165 18.5621L49.9166 18.5619C50.2814 17.8341 50.6264 17.1456 50.9251 16.4943C51.269 15.7445 51.5358 15.0769 51.692 14.4952C51.8503 13.9054 51.8752 13.4739 51.8063 13.1674C51.7464 12.9008 51.6087 12.6872 51.2991 12.5071C50.9559 12.3075 50.3803 12.1403 49.4485 12.0913C48.0659 12.0185 46.4854 12.4854 44.7922 13.3822C43.1071 14.2747 41.3708 15.5608 39.6975 17.0406C36.5686 19.8075 33.73 23.1885 31.9401 25.748C32.2429 26.1876 32.4251 26.7173 32.4376 27.2915C32.5175 30.9526 32.4534 33.6074 32.1435 37.3065C32.1245 37.533 32.0759 37.7501 32.0017 37.9542Z" fill="#F8F9FA"/>
<path d="M27.1252 37.3551L28.6172 37.2003L28.6172 37.2003L27.1252 37.3551ZM27.3698 38.2051L28.5989 39.0648C28.9127 38.6162 28.9571 38.0323 28.7149 37.5414L27.3698 38.2051ZM26.7461 27.2407L25.247 27.1892L25.247 27.1892L26.7461 27.2407ZM27.4292 25.4977L28.5635 26.4792C29.0159 25.9563 29.0523 25.1919 28.6516 24.6284L27.4292 25.4977ZM19.8484 17.0407L20.8421 15.917L20.8421 15.917L19.8484 17.0407ZM14.7536 13.3822L14.0516 14.7078L14.0516 14.7078L14.7536 13.3822ZM10.0973 12.0913L10.1762 13.5892L10.1762 13.5892L10.0973 12.0913ZM8.24668 12.5071L9.0009 13.8037L9.0009 13.8037L8.24668 12.5071ZM7.73953 13.1674L9.20307 13.4961L9.20307 13.4961L7.73953 13.1674ZM7.85386 14.4952L9.30256 14.1062L9.30256 14.1062L7.85386 14.4952ZM8.62071 16.4943L9.98416 15.869L9.98416 15.869L8.62071 16.4943ZM9.62926 18.562L10.9709 17.8912L10.9703 17.89L9.62926 18.562ZM9.6293 18.5621L8.28766 19.233L8.28813 19.2339L9.6293 18.5621ZM9.79371 18.8904L11.1352 18.2192L11.1349 18.2186L9.79371 18.8904ZM11.0503 21.5234L12.4238 20.9205L12.4238 20.9205L11.0503 21.5234ZM13.2636 30.2252L14.6322 29.6111L14.6322 29.6111L13.2636 30.2252ZM14.6228 32.318L15.585 31.1673L15.585 31.1673L14.6228 32.318ZM15.0217 33.2184L16.5189 33.3084L16.5189 33.3084L15.0217 33.2184ZM14.4077 34.1014L15.0316 35.4654L15.0317 35.4654L14.4077 34.1014ZM11.8638 36.127L13.0918 36.9884L13.0918 36.9884L11.8638 36.127ZM12.5671 45.7121L13.8229 44.8917L13.8229 44.8917L12.5671 45.7121ZM16.9196 48.2767L17.0028 49.7744L17.0028 49.7744L16.9196 48.2767ZM19.409 47.108L18.5219 45.8984L18.5219 45.8984L19.409 47.108ZM22.5645 44.2048L23.6615 45.2278L23.6615 45.2278L22.5645 44.2048ZM23.7347 45.296L24.8317 46.319L24.8317 46.319L23.7347 45.296ZM28.52 39.3509L29.1808 38.0043C28.5194 37.6797 27.7201 37.8836 27.295 38.4853L28.52 39.3509ZM20.3552 48.3982L19.4681 47.1886L19.4681 47.1886L20.3552 48.3982ZM17.0083 49.8743L16.9251 48.3766L16.9251 48.3766L17.0083 49.8743ZM11.2276 46.5871L12.4834 45.7668L12.4834 45.7668L11.2276 46.5871ZM10.5539 35.2082L11.7819 36.0696L11.7819 36.0696L10.5539 35.2082ZM13.0613 32.9913L13.7939 34.3002C14.1808 34.0837 14.4521 33.7071 14.5349 33.2715C14.6177 32.8359 14.5036 32.386 14.2231 32.0426L13.0613 32.9913ZM11.8039 30.8802L13.1724 30.2661L13.1724 30.2661L11.8039 30.8802ZM9.58524 22.1665L10.9587 21.5636L10.9587 21.5636L9.58524 22.1665ZM8.36281 19.6063L9.70428 18.9351L9.70396 18.9345L8.36281 19.6063ZM8.19995 19.2812L9.5411 18.6094L9.54094 18.609L8.19995 19.2812ZM7.16635 17.1613L5.80289 17.7865L5.80289 17.7866L7.16635 17.1613ZM6.30858 14.91L4.85988 15.299L4.85988 15.299L6.30858 14.91ZM6.17841 12.8168L4.71487 12.4881L4.71487 12.4881L6.17841 12.8168ZM7.44219 11.1241L6.68797 9.82752L6.68797 9.82752L7.44219 11.1241ZM10.0132 10.4935L9.93436 8.99558L9.93436 8.99558L10.0132 10.4935ZM15.5025 11.9683L14.8004 13.2938L14.8004 13.2938L15.5025 11.9683ZM20.9083 15.8421L21.902 14.7184L21.902 14.7184L20.9083 15.8421ZM28.3714 24.0696L27.1615 24.9562C27.5686 25.5118 28.3018 25.7187 28.9393 25.458C29.5768 25.1972 29.9548 24.5357 29.8559 23.8541L28.3714 24.0696ZM26.5137 19.6136L25.272 20.4551L25.272 20.4551L26.5137 19.6136ZM23.4324 16.2465L24.3534 15.0625L24.3534 15.0625L23.4324 16.2465ZM23.3272 15.4045L24.5112 16.3254L24.5112 16.3254L23.3272 15.4045ZM24.1692 15.2993L25.0901 14.1152L25.0901 14.1152L24.1692 15.2993ZM27.507 18.9403L26.2653 19.7819L26.2653 19.7819L27.507 18.9403ZM29.5829 24.0737L28.0944 24.2596C28.1882 25.0103 28.8263 25.5737 29.5829 25.5737C30.3394 25.5737 30.9775 25.0103 31.0713 24.2596L29.5829 24.0737ZM31.6587 18.9403L32.9004 19.7819L32.9004 19.7819L31.6587 18.9403ZM34.9966 15.2993L34.0756 14.1152L34.0756 14.1152L34.9966 15.2993ZM35.8385 15.4045L34.6545 16.3254L34.6545 16.3254L35.8385 15.4045ZM35.7333 16.2465L34.8124 15.0625L34.8124 15.0625L35.7333 16.2465ZM32.6521 19.6136L33.8938 20.4551L33.8938 20.4551L32.6521 19.6136ZM30.7301 24.6872L29.233 24.5941C29.1914 25.2637 29.5994 25.8794 30.2321 26.1021C30.8649 26.3248 31.5686 26.1003 31.9555 25.5522L30.7301 24.6872ZM38.6376 15.8421L39.6312 16.9657L39.6312 16.9657L38.6376 15.8421ZM44.0434 11.9683L44.7454 13.2938L44.7454 13.2938L44.0434 11.9683ZM49.5327 10.4935L49.4538 11.9914L49.4538 11.9914L49.5327 10.4935ZM52.1037 11.1241L51.3495 12.4207L51.3495 12.4207L52.1037 11.1241ZM53.3674 12.8168L51.9039 13.1455L51.9039 13.1455L53.3674 12.8168ZM53.2373 14.91L54.686 15.299L54.686 15.299L53.2373 14.91ZM52.3795 17.1613L53.743 17.7866L53.743 17.7865L52.3795 17.1613ZM51.3459 19.2812L50.0049 18.609L50.0048 18.6094L51.3459 19.2812ZM51.183 19.6063L49.8419 18.9345L49.8416 18.9351L51.183 19.6063ZM49.9606 22.1665L51.3341 22.7694L51.3341 22.7694L49.9606 22.1665ZM47.742 30.8802L49.1105 31.4943L49.1105 31.4943L47.742 30.8802ZM46.4846 32.9913L45.3227 32.0426C45.0423 32.386 44.9281 32.8359 45.011 33.2715C45.0938 33.7071 45.3651 34.0837 45.752 34.3002L46.4846 32.9913ZM48.992 35.2082L47.764 36.0696L47.764 36.0696L48.992 35.2082ZM48.3182 46.5871L47.0624 45.7668L47.0624 45.7668L48.3182 46.5871ZM42.5375 49.8743L42.6207 48.3766L42.6207 48.3766L42.5375 49.8743ZM39.1907 48.3982L40.0777 47.1886L40.0777 47.1886L39.1907 48.3982ZM35.8112 45.296L34.7142 46.319L34.7142 46.319L35.8112 45.296ZM30.9474 39.2396L32.1744 38.3768C31.7197 37.73 30.8409 37.5473 30.166 37.9591L30.9474 39.2396ZM29.4133 37.9826L27.9884 37.5138C27.8576 37.9116 27.8989 38.346 28.1026 38.712C28.3062 39.0779 28.6536 39.342 29.0606 39.4405L29.4133 37.9826ZM30.1047 37.8794L30.8705 39.1692C31.4238 38.8407 31.706 38.1958 31.5717 37.5664L30.1047 37.8794ZM30.0826 26.2132H31.5826C31.5826 25.613 31.2248 25.0705 30.673 24.8343L30.0826 26.2132ZM29.4632 26.1182L29.3177 24.6253C28.5493 24.7002 27.9632 25.3462 27.9632 26.1182H29.4632ZM36.9813 44.2048L35.8843 45.2278L35.8843 45.2278L36.9813 44.2048ZM32.0017 37.9542L30.5919 37.4419C30.426 37.8985 30.4915 38.4073 30.7677 38.807L32.0017 37.9542ZM40.1369 47.108L41.0239 45.8984L41.0239 45.8984L40.1369 47.108ZM42.6263 48.2767L42.5431 49.7744L42.5431 49.7744L42.6263 48.2767ZM46.9787 45.7121L45.723 44.8917L45.723 44.8917L46.9787 45.7121ZM47.6821 36.127L48.9101 35.2656L48.9101 35.2656L47.6821 36.127ZM45.1382 34.1014L44.5142 35.4654L44.5142 35.4654L45.1382 34.1014ZM44.5242 33.2184L43.0269 33.3084L43.0269 33.3085L44.5242 33.2184ZM44.923 32.318L43.9608 31.1673L43.9608 31.1673L44.923 32.318ZM46.2822 30.2252L44.9137 29.6111L44.9137 29.6111L46.2822 30.2252ZM48.4956 21.5234L47.1221 20.9205L47.1221 20.9205L48.4956 21.5234ZM49.7521 18.8904L48.411 18.2186L48.4107 18.2192L49.7521 18.8904ZM49.9166 18.5621L51.2577 19.2339C51.2601 19.2292 51.2624 19.2245 51.2647 19.2198L49.9166 18.5621ZM49.9167 18.5619L48.5757 17.8898C48.5733 17.8946 48.5709 17.8994 48.5685 17.9043L49.9167 18.5619ZM50.9252 16.4943L49.5617 15.869L49.5617 15.869L50.9252 16.4943ZM51.692 14.4952L53.1407 14.8841L53.1407 14.8841L51.692 14.4952ZM51.8063 13.1674L50.3428 13.4961L50.3428 13.4961L51.8063 13.1674ZM51.2992 12.5071L50.5449 13.8037L50.545 13.8037L51.2992 12.5071ZM49.4486 12.0913L49.5274 10.5934L49.4486 12.0913ZM44.7922 13.3822L45.4943 14.7078L45.4943 14.7078L44.7922 13.3822ZM39.6975 17.0407L40.6912 18.1643L40.6912 18.1643L39.6975 17.0407ZM31.9402 25.748L30.7109 24.8884C30.3522 25.4014 30.3497 26.0832 30.7048 26.5988L31.9402 25.748ZM32.4376 27.2915L30.938 27.3243L30.938 27.3243L32.4376 27.2915ZM32.1435 37.3065L33.6383 37.4318L33.6383 37.4318L32.1435 37.3065ZM25.6332 37.5099C25.6834 37.9936 25.8189 38.4519 26.0246 38.8688L28.7149 37.5414C28.6643 37.4387 28.6301 37.3246 28.6172 37.2003L25.6332 37.5099ZM25.247 27.1892C25.1175 30.9523 25.2383 33.7041 25.6332 37.5099L28.6172 37.2003C28.2347 33.514 28.121 30.9011 28.2452 27.2923L25.247 27.1892ZM26.2948 24.5163C25.6736 25.2343 25.2822 26.164 25.247 27.1892L28.2452 27.2923C28.256 26.9781 28.3736 26.6987 28.5635 26.4792L26.2948 24.5163ZM18.8547 18.1643C21.7836 20.7543 24.465 23.9178 26.2067 26.367L28.6516 24.6284C26.7997 22.0242 23.969 18.6822 20.8421 15.917L18.8547 18.1643ZM14.0516 14.7078C15.5978 15.5267 17.2358 16.7327 18.8547 18.1643L20.8421 15.917C19.1142 14.3891 17.2796 13.0227 15.4557 12.0567L14.0516 14.7078ZM10.1762 13.5892C11.181 13.5363 12.482 13.8764 14.0516 14.7078L15.4557 12.0567C13.6388 11.0944 11.7788 10.5007 10.0185 10.5934L10.1762 13.5892ZM9.0009 13.8037C9.05304 13.7734 9.35925 13.6322 10.1762 13.5892L10.0185 10.5934C8.9718 10.6485 8.12674 10.8416 7.49246 11.2106L9.0009 13.8037ZM9.20307 13.4961C9.19631 13.5262 9.17148 13.6074 9.10643 13.6955C9.04347 13.7808 8.98813 13.8112 9.0009 13.8037L7.49246 11.2106C6.82842 11.5968 6.42892 12.1578 6.27598 12.8387L9.20307 13.4961ZM9.30256 14.1062C9.24119 13.8777 9.21537 13.7148 9.20683 13.6068C9.19815 13.4972 9.20924 13.4686 9.20307 13.4961L6.27599 12.8387C6.13076 13.4853 6.21865 14.1894 6.40516 14.8841L9.30256 14.1062ZM9.98416 15.869C9.65272 15.1463 9.4264 14.5675 9.30256 14.1062L6.40516 14.8841C6.59366 15.5863 6.901 16.3428 7.25725 17.1196L9.98416 15.869ZM10.9703 17.89C10.6028 17.1567 10.27 16.4924 9.98416 15.869L7.25725 17.1196C7.56883 17.799 7.9262 18.5117 8.28824 19.2341L10.9703 17.89ZM10.9709 17.8913L10.9709 17.8912L8.28762 19.2329L8.28766 19.233L10.9709 17.8913ZM11.1349 18.2186L10.9705 17.8904L8.28813 19.2339L8.45254 19.5621L11.1349 18.2186ZM12.4238 20.9205C12.0114 19.9811 11.5577 19.0637 11.1352 18.2192L8.45224 19.5615C8.87367 20.4038 9.29752 21.2623 9.67681 22.1263L12.4238 20.9205ZM13.9906 27.0894C13.9906 24.9171 13.2297 22.7564 12.4238 20.9205L9.67681 22.1263C10.441 23.8673 10.9906 25.5591 10.9906 27.0894H13.9906ZM14.6322 29.6111C14.228 28.7104 13.9906 27.7854 13.9906 27.0894H10.9906C10.9906 28.3531 11.3886 29.7104 11.8951 30.8393L14.6322 29.6111ZM15.585 31.1673C15.5882 31.1699 15.5518 31.1386 15.4799 31.0523C15.412 30.9709 15.3283 30.8595 15.2339 30.7176C15.0447 30.4335 14.8322 30.0569 14.6322 29.6111L11.8951 30.8393C12.3942 31.9516 13.052 32.9599 13.6606 33.4688L15.585 31.1673ZM16.5189 33.3084C16.5735 32.4014 16.1469 31.6372 15.585 31.1673L13.6606 33.4688C13.5959 33.4147 13.5141 33.2987 13.5244 33.1284L16.5189 33.3084ZM15.0317 35.4654C15.8617 35.0857 16.4605 34.2806 16.5189 33.3084L13.5244 33.1284C13.5357 32.9392 13.656 32.7957 13.7837 32.7373L15.0317 35.4654ZM13.0918 36.9884C13.5275 36.3672 14.1755 35.857 15.0316 35.4654L13.7837 32.7373C12.555 33.2993 11.4416 34.1168 10.6358 35.2656L13.0918 36.9884ZM12.3553 39.641C12.3553 38.4267 12.6684 37.5919 13.0918 36.9884L10.6358 35.2656C9.82619 36.4197 9.35525 37.8687 9.35525 39.641H12.3553ZM13.8229 44.8917C12.9061 43.4883 12.3553 41.5186 12.3553 39.641H9.35525C9.35525 42.0292 10.0385 44.5841 11.3114 46.5324L13.8229 44.8917ZM16.8364 46.779C15.7681 46.8384 14.7268 46.2754 13.8229 44.8917L11.3113 46.5324C12.5894 48.4888 14.5258 49.912 17.0028 49.7744L16.8364 46.779ZM18.5219 45.8984C18.0643 46.234 17.6818 46.4607 17.3776 46.602C17.0641 46.7477 16.8907 46.776 16.8364 46.779L17.0028 49.7744C18.0692 49.7152 19.209 49.1148 20.2961 48.3176L18.5219 45.8984ZM21.4675 43.1818C20.4293 44.2951 19.421 45.2391 18.5219 45.8984L20.2961 48.3176C21.4052 47.5042 22.5571 46.4121 23.6615 45.2278L21.4675 43.1818ZM26.1406 37.3454C24.9322 39.0731 23.2297 41.2921 21.4675 43.1818L23.6615 45.2278C25.5469 43.2061 27.3372 40.8688 28.5989 39.0648L26.1406 37.3454ZM24.8317 46.319C26.6981 44.3176 28.4625 42.0317 29.7451 40.2165L27.295 38.4853C26.0644 40.2269 24.3853 42.399 22.6377 44.273L24.8317 46.319ZM21.2423 49.6078C22.4634 48.7123 23.6919 47.5413 24.8317 46.319L22.6377 44.273C21.5641 45.4241 20.4793 46.4471 19.4681 47.1886L21.2423 49.6078ZM17.0915 51.372C18.6369 51.2861 20.0909 50.4521 21.2423 49.6078L19.4681 47.1886C18.4361 47.9455 17.5717 48.3407 16.9251 48.3766L17.0915 51.372ZM9.97185 47.4075C11.4442 49.6613 13.856 51.5517 17.0916 51.372L16.9251 48.3766C15.1073 48.4776 13.5882 47.4578 12.4834 45.7668L9.97185 47.4075ZM7.75525 39.641C7.75525 42.3013 8.50904 45.1683 9.97185 47.4075L12.4834 45.7668C11.3768 44.0728 10.7553 41.791 10.7553 39.641H7.75525ZM9.32588 34.3468C8.31013 35.7948 7.75525 37.5714 7.75525 39.641H10.7553C10.7553 38.129 11.1526 36.9667 11.7819 36.0696L9.32588 34.3468ZM12.3287 31.6824C11.1961 32.3163 10.1418 33.1836 9.32588 34.3468L11.7819 36.0696C12.2975 35.3345 12.9863 34.7522 13.7939 34.3002L12.3287 31.6824ZM10.4353 31.4943C10.8339 32.3826 11.3422 33.2576 11.8995 33.94L14.2231 32.0426C13.8738 31.6147 13.4936 30.982 13.1724 30.2661L10.4353 31.4943ZM9.39056 27.0894C9.39056 28.6559 9.87416 30.2437 10.4353 31.4943L13.1724 30.2661C12.7136 29.2437 12.3906 28.0882 12.3906 27.0894H9.39056ZM8.21174 22.7694C8.95419 24.4608 9.39056 25.9021 9.39056 27.0894H12.3906C12.3906 25.2593 11.7422 23.3485 10.9587 21.5636L8.21174 22.7694ZM7.02135 20.2775C7.44224 21.1187 7.8501 21.9456 8.21174 22.7694L10.9587 21.5636C10.564 20.6644 10.1262 19.7784 9.70428 18.9351L7.02135 20.2775ZM6.85881 19.953L7.02167 20.2781L9.70396 18.9345L9.5411 18.6094L6.85881 19.953ZM5.80289 17.7866C6.12696 18.4932 6.4981 19.2333 6.85896 19.9533L9.54094 18.609C9.17491 17.8787 8.82822 17.1867 8.52981 16.536L5.80289 17.7866ZM4.85988 15.299C5.08281 16.1293 5.43324 16.9805 5.80289 17.7865L8.52981 16.536C8.18519 15.7845 7.91562 15.1109 7.75727 14.5211L4.85988 15.299ZM4.71487 12.4881C4.4883 13.4969 4.64308 14.4915 4.85988 15.299L7.75727 14.5211C7.59711 13.9245 7.56799 13.4748 7.64196 13.1455L4.71487 12.4881ZM6.68797 9.82752C5.64664 10.4333 4.96728 11.3643 4.71487 12.4881L7.64196 13.1455C7.70801 12.8514 7.86315 12.6146 8.1964 12.4207L6.68797 9.82752ZM9.93436 8.99558C8.76475 9.05715 7.63249 9.2781 6.68797 9.82752L8.1964 12.4207C8.55907 12.2097 9.1527 12.0409 10.092 11.9914L9.93436 8.99558ZM16.2046 10.6427C14.256 9.61066 12.0978 8.88171 9.93436 8.99558L10.092 11.9914C11.4998 11.9173 13.0989 12.3926 14.8004 13.2938L16.2046 10.6427ZM21.902 14.7184C20.116 13.1391 18.1766 11.6872 16.2046 10.6427L14.8004 13.2938C16.4948 14.1912 18.2376 15.4828 19.9146 16.9657L21.902 14.7184ZM29.5814 23.183C27.6734 20.5791 24.9279 17.3943 21.902 14.7184L19.9146 16.9657C22.7523 19.4751 25.3566 22.4929 27.1615 24.9562L29.5814 23.183ZM25.272 20.4551C26.0857 21.6558 26.6966 22.9739 26.887 24.2851L29.8559 23.8541C29.5797 21.9519 28.7282 20.2074 27.7554 18.772L25.272 20.4551ZM22.5115 17.4305C23.1947 17.9619 24.3191 19.0492 25.272 20.4551L27.7554 18.772C26.6162 17.0912 25.271 15.7762 24.3534 15.0625L22.5115 17.4305ZM22.1432 14.4836C21.4311 15.3991 21.596 16.7185 22.5115 17.4305L24.3534 15.0625C24.7457 15.3676 24.8164 15.9331 24.5112 16.3254L22.1432 14.4836ZM25.0901 14.1152C24.1746 13.4032 22.8552 13.5681 22.1432 14.4836L24.5112 16.3254C24.2061 16.7178 23.6406 16.7885 23.2483 16.4833L25.0901 14.1152ZM28.7487 18.0988C27.535 16.308 26.1015 14.9019 25.0901 14.1152L23.2483 16.4833C24.0252 17.0876 25.2379 18.266 26.2653 19.7819L28.7487 18.0988ZM31.0713 23.8878C30.7931 21.6607 29.813 19.6691 28.7487 18.0988L26.2653 19.7819C27.1678 21.1135 27.8942 22.657 28.0944 24.2596L31.0713 23.8878ZM30.417 18.0988C29.3527 19.6691 28.3726 21.6607 28.0944 23.8878L31.0713 24.2596C31.2715 22.657 31.9979 21.1135 32.9004 19.7819L30.417 18.0988ZM34.0756 14.1152C33.0643 14.9019 31.6307 16.308 30.417 18.0988L32.9004 19.7819C33.9278 18.266 35.1405 17.0876 35.9175 16.4833L34.0756 14.1152ZM37.0226 14.4836C36.3105 13.5681 34.9911 13.4032 34.0756 14.1152L35.9175 16.4833C35.5251 16.7885 34.9597 16.7178 34.6545 16.3254L37.0226 14.4836ZM36.6542 17.4305C37.5697 16.7185 37.7346 15.3991 37.0225 14.4836L34.6545 16.3254C34.3493 15.9331 34.42 15.3676 34.8124 15.0625L36.6542 17.4305ZM33.8938 20.4551C34.8466 19.0492 35.971 17.9619 36.6542 17.4305L34.8124 15.0625C33.8948 15.7762 32.5495 17.0912 31.4104 18.772L33.8938 20.4551ZM32.2272 24.7802C32.3184 23.3124 32.9731 21.8135 33.8938 20.4551L31.4104 18.772C30.3168 20.3855 29.3693 22.401 29.233 24.5941L32.2272 24.7802ZM37.6439 14.7184C34.3692 17.6143 31.42 21.1089 29.5046 23.8221L31.9555 25.5522C33.7585 22.9981 36.5565 19.6848 39.6312 16.9657L37.6439 14.7184ZM43.3413 10.6427C41.3692 11.6872 39.4298 13.1391 37.6439 14.7184L39.6312 16.9657C41.3082 15.4828 43.0511 14.1912 44.7454 13.2938L43.3413 10.6427ZM49.6115 8.99558C47.4481 8.88171 45.2899 9.61066 43.3413 10.6427L44.7454 13.2938C46.4469 12.3926 48.046 11.9173 49.4538 11.9914L49.6115 8.99558ZM52.8579 9.82752C51.9134 9.2781 50.7811 9.05715 49.6115 8.99558L49.4538 11.9914C50.3932 12.0409 50.9868 12.2097 51.3495 12.4207L52.8579 9.82752ZM54.831 12.4881C54.5786 11.3643 53.8992 10.4333 52.8579 9.82752L51.3495 12.4207C51.6827 12.6146 51.8378 12.8514 51.9039 13.1455L54.831 12.4881ZM54.686 15.299C54.9028 14.4915 55.0576 13.4969 54.831 12.4881L51.9039 13.1455C51.9779 13.4748 51.9487 13.9245 51.7886 14.5211L54.686 15.299ZM53.743 17.7865C54.1126 16.9805 54.4631 16.1293 54.686 15.299L51.7886 14.5211C51.6302 15.1109 51.3607 15.7845 51.0161 16.536L53.743 17.7865ZM52.6869 19.9533C53.0478 19.2333 53.4189 18.4932 53.743 17.7866L51.0161 16.536C50.7176 17.1867 50.371 17.8787 50.0049 18.609L52.6869 19.9533ZM52.5242 20.2781L52.6871 19.953L50.0048 18.6094L49.8419 18.9345L52.5242 20.2781ZM51.3341 22.7694C51.6958 21.9456 52.1036 21.1187 52.5245 20.2775L49.8416 18.9351C49.4197 19.7784 48.9818 20.6644 48.5871 21.5636L51.3341 22.7694ZM50.1553 27.0894C50.1553 25.9021 50.5917 24.4608 51.3341 22.7694L48.5871 21.5636C47.8036 23.3485 47.1553 25.2593 47.1553 27.0894H50.1553ZM49.1105 31.4943C49.6717 30.2437 50.1553 28.6559 50.1553 27.0894H47.1553C47.1553 28.0882 46.8322 29.2437 46.3735 30.2661L49.1105 31.4943ZM47.6464 33.94C48.2037 33.2576 48.712 32.3826 49.1105 31.4943L46.3735 30.2661C46.0522 30.982 45.6721 31.6147 45.3227 32.0426L47.6464 33.94ZM50.22 34.3468C49.4041 33.1836 48.3498 32.3163 47.2171 31.6824L45.752 34.3002C46.5596 34.7522 47.2484 35.3345 47.764 36.0696L50.22 34.3468ZM51.7906 39.641C51.7906 37.5714 51.2357 35.7948 50.22 34.3468L47.764 36.0696C48.3932 36.9667 48.7906 38.129 48.7906 39.641H51.7906ZM49.574 47.4075C51.0368 45.1683 51.7906 42.3013 51.7906 39.641H48.7906C48.7906 41.791 48.1691 44.0728 47.0624 45.7668L49.574 47.4075ZM42.4543 51.372C45.6898 51.5517 48.1017 49.6613 49.574 47.4075L47.0624 45.7668C45.9577 47.4578 44.4385 48.4776 42.6207 48.3766L42.4543 51.372ZM38.3036 49.6078C39.4549 50.4521 40.9089 51.2861 42.4543 51.372L42.6207 48.3766C41.9742 48.3407 41.1098 47.9455 40.0777 47.1886L38.3036 49.6078ZM34.7142 46.319C35.854 47.5413 37.0824 48.7123 38.3036 49.6078L40.0777 47.1886C39.0666 46.4471 37.9817 45.4241 36.9082 44.273L34.7142 46.319ZM29.7203 40.1023C31.0095 41.936 32.8088 44.2759 34.7142 46.319L36.9082 44.273C35.1237 42.3594 33.4109 40.1354 32.1744 38.3768L29.7203 40.1023ZM29.6323 41.1086C30.3945 41.1086 31.1151 40.8944 31.7287 40.52L30.166 37.9591C30.0102 38.0542 29.8282 38.1086 29.6323 38.1086V41.1086ZM27.8592 40.6975C28.3974 40.9616 29.0012 41.1086 29.6323 41.1086V38.1086C29.4695 38.1086 29.3169 38.071 29.1808 38.0043L27.8592 40.6975ZM29.6323 36.5086C29.6766 36.5086 29.7216 36.5139 29.766 36.5246L29.0606 39.4405C29.2455 39.4852 29.4372 39.5086 29.6323 39.5086V36.5086ZM29.3389 36.5897C29.4268 36.5375 29.5289 36.5086 29.6323 36.5086V39.5086C30.0809 39.5086 30.5062 39.3855 30.8705 39.1692L29.3389 36.5897ZM28.5826 37.6697C28.5826 37.843 28.6006 38.0183 28.6377 38.1924L31.5717 37.5664C31.5792 37.6015 31.5826 37.6361 31.5826 37.6697H28.5826ZM28.5826 26.2132V37.6697H31.5826V26.2132H28.5826ZM29.5875 27.6122C29.5571 27.6122 29.5239 27.6057 29.4922 27.5921L30.673 24.8343C30.3378 24.6908 29.9698 24.6122 29.5875 24.6122V27.6122ZM29.6088 27.6112C29.6013 27.6119 29.5942 27.6122 29.5875 27.6122V24.6122C29.4969 24.6122 29.4069 24.6166 29.3177 24.6253L29.6088 27.6112ZM30.9632 37.6697V26.1182H27.9632V37.6697H30.9632ZM30.8382 38.4513C30.923 38.1935 30.9632 37.9292 30.9632 37.6697H27.9632C27.9632 37.6195 27.971 37.5667 27.9884 37.5138L30.8382 38.4513ZM38.0783 43.1818C36.2308 41.2007 34.4499 38.8585 33.2357 37.1015L30.7677 38.807C32.0373 40.6442 33.909 43.1097 35.8843 45.2278L38.0783 43.1818ZM41.0239 45.8984C40.1249 45.2391 39.1166 44.2951 38.0783 43.1818L35.8843 45.2278C36.9887 46.4121 38.1406 47.5042 39.2498 48.3176L41.0239 45.8984ZM42.7095 46.779C42.6551 46.776 42.4818 46.7477 42.1682 46.602C41.8641 46.4607 41.4816 46.234 41.0239 45.8984L39.2498 48.3176C40.3369 49.1148 41.4767 49.7152 42.5431 49.7744L42.7095 46.779ZM45.723 44.8917C44.819 46.2754 43.7777 46.8384 42.7095 46.779L42.5431 49.7744C45.02 49.912 46.9565 48.4888 48.2345 46.5324L45.723 44.8917ZM47.1906 39.641C47.1906 41.5186 46.6397 43.4883 45.723 44.8917L48.2345 46.5324C49.5073 44.5841 50.1906 42.0292 50.1906 39.641H47.1906ZM46.4541 36.9884C46.8775 37.5919 47.1906 38.4267 47.1906 39.641H50.1906C50.1906 37.8687 49.7197 36.4197 48.9101 35.2656L46.4541 36.9884ZM44.5142 35.4654C45.3704 35.857 46.0184 36.3672 46.4541 36.9884L48.9101 35.2656C48.1043 34.1168 46.9908 33.2993 45.7622 32.7373L44.5142 35.4654ZM43.0269 33.3085C43.0854 34.2806 43.6842 35.0857 44.5142 35.4654L45.7622 32.7373C45.8898 32.7957 46.0101 32.9392 46.0215 33.1284L43.0269 33.3085ZM43.9608 31.1673C43.399 31.6372 42.9724 32.4015 43.0269 33.3084L46.0215 33.1284C46.0317 33.2987 45.9499 33.4147 45.8853 33.4688L43.9608 31.1673ZM44.9137 29.6111C44.7136 30.0569 44.5012 30.4335 44.312 30.7176C44.2175 30.8595 44.1338 30.9709 44.066 31.0523C43.9941 31.1386 43.9577 31.1699 43.9608 31.1673L45.8853 33.4688C46.4938 32.9599 47.1517 31.9516 47.6508 30.8393L44.9137 29.6111ZM45.5553 27.0894C45.5553 27.7854 45.3178 28.7104 44.9137 29.6111L47.6508 30.8393C48.1573 29.7104 48.5553 28.3531 48.5553 27.0894H45.5553ZM47.1221 20.9205C46.3162 22.7564 45.5553 24.9171 45.5553 27.0894H48.5553C48.5553 25.5591 49.1048 23.8673 49.8691 22.1263L47.1221 20.9205ZM48.4107 18.2192C47.9882 19.0637 47.5344 19.9811 47.1221 20.9205L49.8691 22.1263C50.2483 21.2623 50.6722 20.4038 51.0936 19.5615L48.4107 18.2192ZM48.5754 17.8904L48.411 18.2186L51.0933 19.5621L51.2577 19.2339L48.5754 17.8904ZM48.5685 17.9043L48.5684 17.9045L51.2647 19.2198L51.2648 19.2195L48.5685 17.9043ZM49.5617 15.869C49.2758 16.4923 48.9431 17.1566 48.5757 17.8898L51.2577 19.234C51.6197 18.5116 51.977 17.7989 52.2886 17.1196L49.5617 15.869ZM50.2433 14.1062C50.1195 14.5675 49.8931 15.1463 49.5617 15.869L52.2886 17.1196C52.6449 16.3428 52.9522 15.5863 53.1407 14.8841L50.2433 14.1062ZM50.3428 13.4961C50.3366 13.4686 50.3477 13.4972 50.339 13.6068C50.3305 13.7148 50.3047 13.8777 50.2433 14.1062L53.1407 14.8841C53.3272 14.1894 53.4151 13.4853 53.2699 12.8387L50.3428 13.4961ZM50.545 13.8037C50.5577 13.8112 50.5024 13.7808 50.4394 13.6955C50.3744 13.6074 50.3495 13.5262 50.3428 13.4961L53.2699 12.8387C53.1169 12.1578 52.7174 11.5968 52.0534 11.2105L50.545 13.8037ZM49.3697 13.5892C50.1866 13.6322 50.4928 13.7734 50.5449 13.8037L52.0534 11.2106C51.4191 10.8416 50.5741 10.6485 49.5274 10.5934L49.3697 13.5892ZM45.4943 14.7078C47.0639 13.8764 48.3649 13.5363 49.3697 13.5892L49.5274 10.5934C47.767 10.5007 45.907 11.0944 44.0902 12.0567L45.4943 14.7078ZM40.6912 18.1643C42.3101 16.7327 43.9481 15.5267 45.4943 14.7078L44.0902 12.0567C42.2662 13.0227 40.4316 14.3891 38.7038 15.917L40.6912 18.1643ZM33.1694 26.6076C34.9019 24.1301 37.6637 20.8415 40.6912 18.1643L38.7038 15.917C35.4735 18.7736 32.5581 22.247 30.7109 24.8884L33.1694 26.6076ZM33.9373 27.2588C33.9182 26.383 33.6391 25.5704 33.1756 24.8973L30.7048 26.5988C30.8467 26.8048 30.932 27.0517 30.938 27.3243L33.9373 27.2588ZM33.6383 37.4318C33.9531 33.675 34.0182 30.9672 33.9373 27.2588L30.938 27.3243C31.0168 30.938 30.9539 33.5398 30.6487 37.1813L33.6383 37.4318ZM33.4115 38.4666C33.5306 38.1389 33.6081 37.7917 33.6383 37.4318L30.6487 37.1813C30.6409 37.2743 30.6212 37.3613 30.5919 37.4419L33.4115 38.4666Z" fill="#F8F9FA" mask="url(#path-1-outside-1_50_7746)"/>
<path d="M49.4954 11.2922C43.159 10.9587 34.4953 20.5113 30.9204 25.8271C30.8983 25.86 30.8875 25.8974 30.8875 25.937V37.6695C30.8875 37.7089 30.8982 37.7461 30.9201 37.7789C33.4049 41.4974 39.1624 48.8851 42.5867 49.0753C46.886 49.3142 49.4954 44.1789 49.4954 39.6408C49.4954 36.3567 47.7591 34.4181 45.4758 33.3737C45.2866 33.2871 45.2814 33.0651 45.4411 32.9316C46.418 32.1147 47.8601 29.3517 47.8601 27.0892C47.8601 20.3693 57.4404 11.7104 49.4954 11.2922Z" fill="#845EF7" stroke="#212529" stroke-width="1.6" stroke-linecap="round" stroke-linejoin="round"/>
<g style="mix-blend-mode:soft-light" opacity="0.7">
<path d="M40.3286 16.4121C38.7663 17.5861 34.3086 22.2153 31.5463 26.0731C32.3393 26.9476 32.1374 27.225 32.1229 28.6797L31.6934 37.6274C33.6034 40.6232 37.8141 45.5261 40.3753 47.4007C41.3311 47.4007 43.2688 47.1241 44.8953 44.9971C46.9285 42.3383 47.0511 40.3621 46.6696 37.5724C46.3214 35.0258 45.0517 33.7713 44.3219 33.2152C44.513 33.2673 43.9392 32.644 44.6482 32.5188C45.5344 32.3624 47.2282 28.9813 47.2282 25.8428C47.2282 23.9661 48.3882 22.2674 47.6062 20.3907C46.9806 18.8893 45.5383 18.5834 44.8953 18.6182L42.8622 19.2438C42.8448 18.9136 42.6745 18.0343 42.1323 17.1585C41.5901 16.2826 40.8151 16.4469 40.3286 16.4121Z" fill="#F8F9FA"/>
</g>
<path d="M35.3065 33.1465C37.3749 33.4912 42.2073 33.9739 44.9903 33.1465" stroke="#212529" stroke-width="1.6" stroke-linecap="round" stroke-linejoin="round"/>
<path d="M34.5543 26.1892C37.3748 23.4314 43.4483 18.0849 45.1783 18.7618C47.3407 19.608 48.312 22.0235 47.9663 25.0702" stroke="#212529" stroke-width="1.4" stroke-linecap="round" stroke-linejoin="round"/>
<path d="M39.6843 15.9595C40.6851 16.1236 42.4841 16.8947 42.6022 19.4149" stroke="#212529" stroke-width="1.2" stroke-linecap="round" stroke-linejoin="round"/>
<path opacity="0.9" d="M48.8107 39.0835C48.8107 36.4055 46.3724 34.4356 45.1908 33.98C45.5196 35.5801 46.9186 38.5623 45.9626 42.4177C45.1485 45.7007 42.9365 46.7591 40.4504 47.39C40.9629 47.931 42.5084 49.1315 44.8904 47.8538C47.9303 46.2231 48.8107 42.8419 48.8107 39.0835Z" fill="#FF6B6B"/>
<path d="M44.2266 33.6401C47.0342 36.4474 46.8833 41.873 44.6204 44.9119" stroke="#212529" stroke-width="1.2" stroke-linecap="round" stroke-linejoin="round"/>
<path d="M37.0404 38.8081C38.7632 40.3176 41.4247 43.3791 41.1258 44.8132C40.8796 45.9945 39.6491 46.5359 37.7294 45.9945" stroke="#212529" stroke-width="1.2" stroke-linecap="round" stroke-linejoin="round"/>
<path d="M10.0601 11.2922C16.3965 10.9587 25.0602 20.5113 28.6351 25.8271C28.6572 25.86 28.6681 25.8974 28.6681 25.937V37.6695C28.6681 37.7089 28.6574 37.7461 28.6354 37.7789C26.1507 41.4974 20.3932 48.8851 16.9688 49.0753C12.6695 49.3142 10.0601 44.1789 10.0601 39.6408C10.0601 36.3567 11.7964 34.4181 14.0797 33.3737C14.269 33.2871 14.2741 33.0651 14.1145 32.9316C13.1376 32.1147 11.6954 29.3517 11.6954 27.0892C11.6954 20.3693 2.1151 11.7104 10.0601 11.2922Z" fill="#845EF7" stroke="#212529" stroke-width="1.6" stroke-linecap="round" stroke-linejoin="round"/>
<g style="mix-blend-mode:soft-light" opacity="0.7">
<path d="M19.1683 16.4121C20.7306 17.5861 25.1883 22.2153 27.9507 26.0731C27.1577 26.9476 27.3596 27.225 27.374 28.6797L27.8035 37.6274C25.8936 40.6232 21.6829 45.5261 19.1216 47.4007C18.1659 47.4007 16.2281 47.1241 14.6016 44.9971C12.5685 42.3383 12.4459 40.3621 12.8273 37.5724C13.1756 35.0258 14.4452 33.7713 15.1751 33.2152C14.9839 33.2673 15.5578 32.644 14.8488 32.5188C13.9625 32.3624 12.2688 28.9813 12.2688 25.8428C12.2688 23.9661 11.1088 22.2674 11.8907 20.3907C12.5163 18.8893 13.9587 18.5834 14.6016 18.6182L16.6348 19.2438C16.6521 18.9136 16.8224 18.0343 17.3646 17.1585C17.9068 16.2826 18.6818 16.4469 19.1683 16.4121Z" fill="#F8F9FA"/>
</g>
<path opacity="0.9" d="M10.7504 39.0893C10.7504 36.4113 13.1886 34.4414 14.3702 33.9858C14.0415 35.586 12.6425 38.5681 13.5985 42.4235C14.4125 45.7065 16.6245 46.7649 19.1106 47.3959C18.5981 47.9369 17.0526 49.1374 14.6706 47.8596C11.6307 46.229 10.7504 42.8478 10.7504 39.0893Z" fill="#FF6B6B"/>
<path d="M24.249 33.1465C22.1807 33.4912 17.3482 33.9739 14.5652 33.1465" stroke="#212529" stroke-width="1.6" stroke-linecap="round" stroke-linejoin="round"/>
<path d="M25.001 26.1892C22.1805 23.4314 16.107 18.0849 14.377 18.7618C12.2146 19.608 11.2433 22.0235 11.589 25.0702" stroke="#212529" stroke-width="1.4" stroke-linecap="round" stroke-linejoin="round"/>
<path d="M19.7853 15.8252C18.7844 15.9893 17.071 16.8948 16.9529 19.4149" stroke="#212529" stroke-width="1.2" stroke-linecap="round" stroke-linejoin="round"/>
<path d="M15.3289 33.6401C12.5212 36.4474 12.6721 41.873 14.935 44.9119" stroke="#212529" stroke-width="1.4" stroke-linecap="round" stroke-linejoin="round"/>
<path d="M22.5153 38.8081C20.7925 40.3176 18.1309 43.3791 18.4298 44.8132C18.6761 45.9945 19.9066 46.5359 21.8263 45.9945" stroke="#212529" stroke-width="1.2" stroke-linecap="round" stroke-linejoin="round"/>
<g style="mix-blend-mode:multiply">
<path d="M28.8499 27.2681C28.8876 26.172 29.7951 25.312 30.8918 25.312V25.312C32.0044 25.312 32.9179 26.1965 32.9421 27.3088C33.0214 30.9446 32.958 33.5711 32.6506 37.2395C32.5761 38.1286 31.8288 38.8084 30.9366 38.8084V38.8084C30.0571 38.8084 29.316 38.1472 29.2252 37.2723C28.8399 33.5581 28.7245 30.9128 28.8499 27.2681Z" fill="#CED4DA"/>
</g>
<path d="M27.5505 27.2681C27.5882 26.172 28.4957 25.312 29.5924 25.312V25.312C30.7049 25.312 31.6184 26.1965 31.6427 27.3088C31.722 30.9446 31.6585 33.5711 31.3512 37.2395C31.2767 38.1286 30.5293 38.8084 29.6372 38.8084V38.8084C28.7576 38.8084 28.0166 38.1472 27.9258 37.2723C27.5404 33.5581 27.4251 30.9128 27.5505 27.2681Z" fill="#FF6B6B" stroke="#212529" stroke-width="1.6" stroke-linecap="round" stroke-linejoin="round"/>
<path d="M23.8058 15.7725C25.5003 17.0905 28.9217 20.7593 29.0507 24.8906" stroke="#212529" stroke-width="1.2" stroke-linecap="round" stroke-linejoin="round"/>
<path d="M35.3698 15.7725C33.6752 17.0905 30.2539 20.7593 30.1248 24.8906" stroke="#212529" stroke-width="1.2" stroke-linecap="round" stroke-linejoin="round"/>
<g style="mix-blend-mode:multiply">
<path d="M50.634 15.0961C51.246 13.6223 50.889 12.4352 50.634 12.0259L51.3236 12.3944C51.3236 12.3944 51.8919 12.8116 51.8919 13.7037C51.8919 15.2527 50.6412 17.2181 50.6412 17.2181L48.3999 21.7696L46.8454 28.8235C46.3735 30.5979 45.9097 31.3438 44.9329 32.4868L43.8857 32.7445C46.7961 29.0539 46.1966 26.1488 46.4261 23.9229C46.6557 21.697 49.8691 16.9382 50.634 15.0961Z" fill="#CED4DA"/>
</g>
<g style="mix-blend-mode:soft-light" opacity="0.3">
<path d="M15.9325 13.9762C19.5903 16.1708 25.108 22.0342 27.4637 25.4706L26.9125 26.3633C25.7455 23.7698 17.6374 16.1205 15.0996 14.5674C13.7719 13.7549 11.5423 12.3302 8.48633 12.3302C9.69601 12.0571 11.5011 11.3175 15.9325 13.9762Z" fill="#F8F9FA"/>
</g>
</svg>
