<svg width="60" height="61" viewBox="0 0 60 61" fill="none" xmlns="http://www.w3.org/2000/svg">
<path d="M11.8552 30.8623C11.8552 20.8412 19.9789 12.7175 30 12.7175C40.0211 12.7175 48.1448 20.8412 48.1448 30.8623C48.1448 40.8834 40.0211 49.0071 30 49.0071C19.9789 49.0071 11.8552 40.8834 11.8552 30.8623ZM30 9.31592C18.1003 9.31592 8.45361 18.9626 8.45361 30.8623C8.45361 42.762 18.1003 52.4087 30 52.4087C41.8997 52.4087 51.5464 42.762 51.5464 30.8623C51.5464 18.9626 41.8997 9.31592 30 9.31592Z" fill="#F8F9FA" stroke="#F8F9FA" stroke-width="1.5" stroke-linecap="round" stroke-linejoin="round"/>
<path d="M49.8456 30.8622C49.8456 41.8226 40.9604 50.7078 30 50.7078C19.0396 50.7078 10.1544 41.8226 10.1544 30.8622C10.1544 19.9018 19.0396 11.0166 30 11.0166C40.9604 11.0166 49.8456 19.9018 49.8456 30.8622Z" fill="#BAC8FF"/>
<path d="M20.9001 48.0627L26.2374 37.2358H27.2286L22.8063 49.1302L20.9001 48.0627Z" fill="#E3FAFC"/>
<path d="M35.2822 12.4711L31.4604 23.921L30.4783 24.0553L33.2491 11.6716L35.2822 12.4711Z" fill="#E3FAFC"/>
<path d="M36.9428 12.7371L32.196 23.6417C34.0144 23.9405 35.7753 25.9601 36.3005 27.033L46.4548 21.0895C44.9153 15.8553 39.3375 13.3785 36.9428 12.7371Z" fill="#E3FAFC"/>
<path d="M19.6006 47.6341L25.6339 36.9826C24.7478 36.6329 23.343 35.4918 22.9419 34.3729L12.6424 39.394C13.6083 44.7523 17.345 46.7618 19.6006 47.6341Z" fill="#E3FAFC"/>
<circle cx="30" cy="30.8623" r="7.66409" fill="#EDF2FF" stroke="#212529" stroke-linejoin="round"/>
<circle cx="30" cy="30.8622" r="2.53257" fill="white" stroke="#212529" stroke-linejoin="round"/>
<path fill-rule="evenodd" clip-rule="evenodd" d="M30 11.9675C19.5647 11.9675 11.1052 20.427 11.1052 30.8623C11.1052 41.2976 19.5647 49.7571 30 49.7571C40.4353 49.7571 48.8948 41.2976 48.8948 30.8623C48.8948 20.427 40.4353 11.9675 30 11.9675ZM9.20361 30.8623C9.20361 19.3768 18.5145 10.0659 30 10.0659C41.4855 10.0659 50.7964 19.3768 50.7964 30.8623C50.7964 42.3478 41.4855 51.6587 30 51.6587C18.5145 51.6587 9.20361 42.3478 9.20361 30.8623Z" fill="#212529"/>
</svg>
