<svg width="60" height="60" viewBox="0 0 60 60" fill="none" xmlns="http://www.w3.org/2000/svg">
<mask id="path-1-outside-1_50_2" maskUnits="userSpaceOnUse" x="8.18066" y="7.41666" width="43" height="45" fill="black">
<rect fill="white" x="8.18066" y="7.41666" width="43" height="45"/>
<path fill-rule="evenodd" clip-rule="evenodd" d="M14.932 9.41666C13.3856 9.41666 12.132 10.6703 12.132 12.2167V16.3266H11.4831C10.7638 16.3266 10.1807 16.9097 10.1807 17.629C10.1807 18.3483 10.7638 18.9314 11.4831 18.9314H12.132V22.0572H11.4831C10.7638 22.0572 10.1807 22.6403 10.1807 23.3596C10.1807 24.0789 10.7638 24.662 11.4831 24.662H12.132V27.7878H11.4831C10.7638 27.7878 10.1807 28.3709 10.1807 29.0902C10.1807 29.8095 10.7638 30.3926 11.4831 30.3926H12.132V33.5184H11.4831C10.7638 33.5184 10.1807 34.1015 10.1807 34.8208C10.1807 35.5401 10.7638 36.1232 11.4831 36.1232H12.132V39.249H11.4831C10.7638 39.249 10.1807 39.8321 10.1807 40.5514C10.1807 41.2707 10.7638 41.8538 11.4831 41.8538H12.132V45.7258C12.132 47.1748 13.2325 48.3667 14.6433 48.5111C14.8872 49.694 15.9346 50.5834 17.1897 50.5834H42.4474C44.9879 50.5834 47.0474 48.5239 47.0474 45.9834V30.5611C48.5005 30.4587 49.6475 29.2474 49.6475 27.7682V25.8449C49.6475 25.0614 49.3257 24.3531 48.8071 23.8449C49.3257 23.3367 49.6475 22.6284 49.6475 21.8449V19.9217C49.6475 19.0818 49.2777 18.3283 48.6921 17.8151C49.2777 17.3019 49.6475 16.5484 49.6475 15.7085V13.7852C49.6475 12.2388 48.3939 10.9852 46.8475 10.9852H44.705C44.2493 10.0562 43.2941 9.41666 42.1896 9.41666H14.932ZM13.732 41.8538V45.7258C13.732 46.2697 14.0937 46.729 14.5897 46.8763V41.8372C14.5218 41.8481 14.4522 41.8538 14.3812 41.8538H13.732ZM14.5897 39.2656V36.1066C14.5218 36.1175 14.4522 36.1232 14.3812 36.1232H13.732V39.249H14.3812C14.4522 39.249 14.5218 39.2546 14.5897 39.2656ZM14.3812 33.5184C14.4522 33.5184 14.5218 33.524 14.5897 33.535V30.376C14.5218 30.3869 14.4522 30.3926 14.3812 30.3926H13.732V33.5184H14.3812ZM14.5897 27.8044V24.6454C14.5218 24.6563 14.4522 24.662 14.3812 24.662H13.732V27.7878H14.3812C14.4522 27.7878 14.5218 27.7935 14.5897 27.8044ZM14.3812 22.0572C14.4522 22.0572 14.5218 22.0629 14.5897 22.0738V18.9148C14.5218 18.9258 14.4522 18.9314 14.3812 18.9314H13.732V22.0572H14.3812ZM14.5897 16.3432V14.4742C14.5897 13.0383 15.7538 11.8742 17.1897 11.8742H42.1471C42.3731 11.6323 42.6415 11.4304 42.9405 11.2806C42.7349 11.1155 42.4738 11.0167 42.1896 11.0167H14.932C14.2692 11.0167 13.732 11.5539 13.732 12.2167V16.3266H14.3812C14.4522 16.3266 14.5218 16.3323 14.5897 16.3432ZM15.8987 48.5258C16.1106 49.0296 16.6089 49.3834 17.1897 49.3834H42.4474C44.3251 49.3834 45.8474 47.8611 45.8474 45.9834V30.5682H44.9896V45.7258C44.9896 47.2722 43.736 48.5258 42.1896 48.5258H15.8987ZM43.3896 30.451V45.7258C43.3896 46.3886 42.8523 46.9258 42.1896 46.9258H15.7897V14.4742C15.7897 13.701 16.4165 13.0742 17.1897 13.0742H41.4846C41.4252 13.3012 41.3936 13.5395 41.3936 13.7852V15.7085C41.3936 16.5484 41.7633 17.3019 42.349 17.8151C41.7633 18.3283 41.3936 19.0818 41.3936 19.9217V21.8449C41.3936 22.6284 41.7153 23.3367 42.2339 23.8449C41.7153 24.3531 41.3936 25.0614 41.3936 25.8449V27.7682C41.3936 29.0351 42.235 30.1055 43.3896 30.451ZM44.9896 28.9682H45.8474V24.6449H44.9896V28.9682ZM43.3896 24.954V28.659C43.1464 28.4394 42.9936 28.1217 42.9936 27.7682V25.8449C42.9936 25.4914 43.1464 25.1736 43.3896 24.954ZM44.9896 23.0449H45.8474V18.7217H44.9896V23.0449ZM43.3896 19.0308V22.7358C43.1464 22.5162 42.9936 22.1984 42.9936 21.8449V19.9217C42.9936 19.5682 43.1464 19.2504 43.3896 19.0308ZM43.3896 16.5994C43.1464 16.3797 42.9936 16.062 42.9936 15.7085V13.7852C42.9936 13.5191 43.0802 13.2732 43.2268 13.0742H43.3896V16.5994ZM44.9896 16.9085V13.1831C45.4935 13.395 45.8474 13.8933 45.8474 14.4742V16.9085H44.9896ZM48.0475 25.8449C48.0475 25.2503 47.615 24.7566 47.0474 24.6615V28.9516C47.615 28.8564 48.0475 28.3628 48.0475 27.7682V25.8449ZM47.0474 23.0284V18.7383C47.615 18.8334 48.0475 19.327 48.0475 19.9217V21.8449C48.0475 22.4396 47.615 22.9332 47.0474 23.0284ZM47.0474 14.4742V16.8919C47.615 16.7967 48.0475 16.3031 48.0475 15.7085V13.7852C48.0475 13.1225 47.5102 12.5852 46.8475 12.5852H46.2339C46.7348 13.0591 47.0474 13.7302 47.0474 14.4742ZM29.514 29.8171C27.1785 29.8171 25.1515 31.1426 24.1461 33.0855L22.9027 32.4421C24.1391 30.0527 26.635 28.4171 29.514 28.4171C32.3931 28.4171 34.889 30.0527 36.1253 32.4421L34.8819 33.0855C33.8766 31.1426 31.8495 29.8171 29.514 29.8171Z"/>
</mask>
<path fill-rule="evenodd" clip-rule="evenodd" d="M14.932 9.41666C13.3856 9.41666 12.132 10.6703 12.132 12.2167V16.3266H11.4831C10.7638 16.3266 10.1807 16.9097 10.1807 17.629C10.1807 18.3483 10.7638 18.9314 11.4831 18.9314H12.132V22.0572H11.4831C10.7638 22.0572 10.1807 22.6403 10.1807 23.3596C10.1807 24.0789 10.7638 24.662 11.4831 24.662H12.132V27.7878H11.4831C10.7638 27.7878 10.1807 28.3709 10.1807 29.0902C10.1807 29.8095 10.7638 30.3926 11.4831 30.3926H12.132V33.5184H11.4831C10.7638 33.5184 10.1807 34.1015 10.1807 34.8208C10.1807 35.5401 10.7638 36.1232 11.4831 36.1232H12.132V39.249H11.4831C10.7638 39.249 10.1807 39.8321 10.1807 40.5514C10.1807 41.2707 10.7638 41.8538 11.4831 41.8538H12.132V45.7258C12.132 47.1748 13.2325 48.3667 14.6433 48.5111C14.8872 49.694 15.9346 50.5834 17.1897 50.5834H42.4474C44.9879 50.5834 47.0474 48.5239 47.0474 45.9834V30.5611C48.5005 30.4587 49.6475 29.2474 49.6475 27.7682V25.8449C49.6475 25.0614 49.3257 24.3531 48.8071 23.8449C49.3257 23.3367 49.6475 22.6284 49.6475 21.8449V19.9217C49.6475 19.0818 49.2777 18.3283 48.6921 17.8151C49.2777 17.3019 49.6475 16.5484 49.6475 15.7085V13.7852C49.6475 12.2388 48.3939 10.9852 46.8475 10.9852H44.705C44.2493 10.0562 43.2941 9.41666 42.1896 9.41666H14.932ZM13.732 41.8538V45.7258C13.732 46.2697 14.0937 46.729 14.5897 46.8763V41.8372C14.5218 41.8481 14.4522 41.8538 14.3812 41.8538H13.732ZM14.5897 39.2656V36.1066C14.5218 36.1175 14.4522 36.1232 14.3812 36.1232H13.732V39.249H14.3812C14.4522 39.249 14.5218 39.2546 14.5897 39.2656ZM14.3812 33.5184C14.4522 33.5184 14.5218 33.524 14.5897 33.535V30.376C14.5218 30.3869 14.4522 30.3926 14.3812 30.3926H13.732V33.5184H14.3812ZM14.5897 27.8044V24.6454C14.5218 24.6563 14.4522 24.662 14.3812 24.662H13.732V27.7878H14.3812C14.4522 27.7878 14.5218 27.7935 14.5897 27.8044ZM14.3812 22.0572C14.4522 22.0572 14.5218 22.0629 14.5897 22.0738V18.9148C14.5218 18.9258 14.4522 18.9314 14.3812 18.9314H13.732V22.0572H14.3812ZM14.5897 16.3432V14.4742C14.5897 13.0383 15.7538 11.8742 17.1897 11.8742H42.1471C42.3731 11.6323 42.6415 11.4304 42.9405 11.2806C42.7349 11.1155 42.4738 11.0167 42.1896 11.0167H14.932C14.2692 11.0167 13.732 11.5539 13.732 12.2167V16.3266H14.3812C14.4522 16.3266 14.5218 16.3323 14.5897 16.3432ZM15.8987 48.5258C16.1106 49.0296 16.6089 49.3834 17.1897 49.3834H42.4474C44.3251 49.3834 45.8474 47.8611 45.8474 45.9834V30.5682H44.9896V45.7258C44.9896 47.2722 43.736 48.5258 42.1896 48.5258H15.8987ZM43.3896 30.451V45.7258C43.3896 46.3886 42.8523 46.9258 42.1896 46.9258H15.7897V14.4742C15.7897 13.701 16.4165 13.0742 17.1897 13.0742H41.4846C41.4252 13.3012 41.3936 13.5395 41.3936 13.7852V15.7085C41.3936 16.5484 41.7633 17.3019 42.349 17.8151C41.7633 18.3283 41.3936 19.0818 41.3936 19.9217V21.8449C41.3936 22.6284 41.7153 23.3367 42.2339 23.8449C41.7153 24.3531 41.3936 25.0614 41.3936 25.8449V27.7682C41.3936 29.0351 42.235 30.1055 43.3896 30.451ZM44.9896 28.9682H45.8474V24.6449H44.9896V28.9682ZM43.3896 24.954V28.659C43.1464 28.4394 42.9936 28.1217 42.9936 27.7682V25.8449C42.9936 25.4914 43.1464 25.1736 43.3896 24.954ZM44.9896 23.0449H45.8474V18.7217H44.9896V23.0449ZM43.3896 19.0308V22.7358C43.1464 22.5162 42.9936 22.1984 42.9936 21.8449V19.9217C42.9936 19.5682 43.1464 19.2504 43.3896 19.0308ZM43.3896 16.5994C43.1464 16.3797 42.9936 16.062 42.9936 15.7085V13.7852C42.9936 13.5191 43.0802 13.2732 43.2268 13.0742H43.3896V16.5994ZM44.9896 16.9085V13.1831C45.4935 13.395 45.8474 13.8933 45.8474 14.4742V16.9085H44.9896ZM48.0475 25.8449C48.0475 25.2503 47.615 24.7566 47.0474 24.6615V28.9516C47.615 28.8564 48.0475 28.3628 48.0475 27.7682V25.8449ZM47.0474 23.0284V18.7383C47.615 18.8334 48.0475 19.327 48.0475 19.9217V21.8449C48.0475 22.4396 47.615 22.9332 47.0474 23.0284ZM47.0474 14.4742V16.8919C47.615 16.7967 48.0475 16.3031 48.0475 15.7085V13.7852C48.0475 13.1225 47.5102 12.5852 46.8475 12.5852H46.2339C46.7348 13.0591 47.0474 13.7302 47.0474 14.4742ZM29.514 29.8171C27.1785 29.8171 25.1515 31.1426 24.1461 33.0855L22.9027 32.4421C24.1391 30.0527 26.635 28.4171 29.514 28.4171C32.3931 28.4171 34.889 30.0527 36.1253 32.4421L34.8819 33.0855C33.8766 31.1426 31.8495 29.8171 29.514 29.8171Z" fill="#F8F9FA"/>
<path d="M12.132 16.3266V17.8266C12.9604 17.8266 13.632 17.1551 13.632 16.3266H12.132ZM12.132 18.9314H13.632C13.632 18.103 12.9604 17.4314 12.132 17.4314V18.9314ZM12.132 22.0572V23.5572C12.9604 23.5572 13.632 22.8856 13.632 22.0572H12.132ZM12.132 24.662H13.632C13.632 23.8336 12.9604 23.162 12.132 23.162V24.662ZM12.132 27.7878V29.2878C12.9604 29.2878 13.632 28.6162 13.632 27.7878H12.132ZM12.132 30.3926H13.632C13.632 29.5642 12.9604 28.8926 12.132 28.8926V30.3926ZM12.132 33.5184V35.0184C12.9604 35.0184 13.632 34.3468 13.632 33.5184H12.132ZM12.132 36.1232H13.632C13.632 35.2947 12.9604 34.6232 12.132 34.6232V36.1232ZM12.132 39.249V40.749C12.9604 40.749 13.632 40.0774 13.632 39.249H12.132ZM12.132 41.8538H13.632C13.632 41.0253 12.9604 40.3538 12.132 40.3538V41.8538ZM14.6433 48.5111L16.1124 48.2082C15.9802 47.567 15.4474 47.0856 14.7961 47.0189L14.6433 48.5111ZM47.0474 30.5611L46.9418 29.0649C46.1563 29.1203 45.5474 29.7737 45.5474 30.5611H47.0474ZM48.8071 23.8449L47.7572 22.7736C47.4693 23.0557 47.3071 23.4418 47.3071 23.8449C47.3071 24.248 47.4693 24.6342 47.7572 24.9163L48.8071 23.8449ZM48.6921 17.8151L47.7035 16.6869C47.3784 16.9718 47.1921 17.3829 47.1921 17.8151C47.1921 18.2472 47.3784 18.6584 47.7035 18.9432L48.6921 17.8151ZM44.705 10.9852L43.3582 11.6458C43.6103 12.1596 44.1327 12.4852 44.705 12.4852V10.9852ZM13.732 41.8538V40.3538C12.9035 40.3538 12.232 41.0253 12.232 41.8538H13.732ZM14.5897 46.8763L14.1626 48.3142C14.6165 48.449 15.1073 48.3617 15.4868 48.0785C15.8662 47.7954 16.0897 47.3497 16.0897 46.8763H14.5897ZM14.5897 41.8372H16.0897C16.0897 41.3977 15.897 40.9803 15.5625 40.6954C15.228 40.4104 14.7853 40.2864 14.3514 40.3562L14.5897 41.8372ZM14.5897 39.2656L14.3514 40.7465C14.7853 40.8163 15.2279 40.6924 15.5625 40.4074C15.897 40.1224 16.0897 39.705 16.0897 39.2656H14.5897ZM14.5897 36.1066H16.0897C16.0897 35.6671 15.897 35.2497 15.5625 34.9648C15.2279 34.6798 14.7853 34.5558 14.3514 34.6256L14.5897 36.1066ZM13.732 36.1232V34.6232C12.9035 34.6232 12.232 35.2947 12.232 36.1232H13.732ZM13.732 39.249H12.232C12.232 40.0774 12.9035 40.749 13.732 40.749V39.249ZM14.5897 33.535L14.3514 35.0159C14.7853 35.0857 15.2279 34.9618 15.5625 34.6768C15.897 34.3918 16.0897 33.9744 16.0897 33.535H14.5897ZM14.5897 30.376H16.0897C16.0897 29.9365 15.897 29.5192 15.5625 29.2342C15.2279 28.9492 14.7853 28.8252 14.3514 28.895L14.5897 30.376ZM13.732 30.3926V28.8926C12.9035 28.8926 12.232 29.5642 12.232 30.3926H13.732ZM13.732 33.5184H12.232C12.232 34.3468 12.9035 35.0184 13.732 35.0184V33.5184ZM14.5897 24.6454H16.0897C16.0897 24.2059 15.897 23.7886 15.5625 23.5036C15.228 23.2186 14.7853 23.0946 14.3514 23.1644L14.5897 24.6454ZM14.5897 27.8044L14.3514 29.2853C14.7853 29.3552 15.2279 29.2312 15.5625 28.9462C15.897 28.6612 16.0897 28.2439 16.0897 27.8044H14.5897ZM13.732 24.662V23.162C12.9035 23.162 12.232 23.8336 12.232 24.662H13.732ZM13.732 27.7878H12.232C12.232 28.6162 12.9035 29.2878 13.732 29.2878V27.7878ZM14.5897 22.0738L14.3514 23.5547C14.7853 23.6246 15.228 23.5006 15.5625 23.2156C15.897 22.9306 16.0897 22.5133 16.0897 22.0738H14.5897ZM14.5897 18.9148H16.0897C16.0897 18.4754 15.897 18.058 15.5625 17.773C15.228 17.488 14.7853 17.3641 14.3514 17.4339L14.5897 18.9148ZM13.732 18.9314V17.4314C12.9035 17.4314 12.232 18.103 12.232 18.9314H13.732ZM13.732 22.0572H12.232C12.232 22.8856 12.9035 23.5572 13.732 23.5572V22.0572ZM14.5897 16.3432L14.3514 17.8242C14.7853 17.894 15.228 17.77 15.5625 17.485C15.897 17.2001 16.0897 16.7827 16.0897 16.3432H14.5897ZM42.1471 11.8742V13.3742C42.5626 13.3742 42.9595 13.2018 43.2432 12.8982L42.1471 11.8742ZM42.9405 11.2806L43.6127 12.6215C44.0693 12.3926 44.378 11.9472 44.4321 11.4393C44.4861 10.9314 44.278 10.4309 43.8798 10.1111L42.9405 11.2806ZM13.732 16.3266H12.232C12.232 17.1551 12.9035 17.8266 13.732 17.8266V16.3266ZM15.8987 48.5258V47.0258C15.3963 47.0258 14.9272 47.2774 14.6492 47.6959C14.3712 48.1144 14.3212 48.6444 14.5161 49.1075L15.8987 48.5258ZM45.8474 30.5682H47.3474C47.3474 29.7397 46.6758 29.0682 45.8474 29.0682V30.5682ZM44.9896 30.5682V29.0682C44.1612 29.0682 43.4896 29.7397 43.4896 30.5682H44.9896ZM43.3896 30.451H44.8896C44.8896 29.7882 44.4546 29.204 43.8196 29.014L43.3896 30.451ZM15.7897 46.9258H14.2897C14.2897 47.7543 14.9613 48.4258 15.7897 48.4258V46.9258ZM41.4846 13.0742L42.9357 13.454C43.0534 13.0044 42.956 12.5255 42.672 12.1576C42.388 11.7897 41.9494 11.5742 41.4846 11.5742V13.0742ZM42.349 17.8151L43.3376 18.9432C43.6626 18.6584 43.849 18.2472 43.849 17.8151C43.849 17.3829 43.6626 16.9718 43.3376 16.687L42.349 17.8151ZM42.2339 23.8449L43.2838 24.9163C43.5717 24.6342 43.7339 24.248 43.7339 23.8449C43.7339 23.4418 43.5717 23.0557 43.2838 22.7736L42.2339 23.8449ZM45.8474 28.9682V30.4682C46.6758 30.4682 47.3474 29.7966 47.3474 28.9682H45.8474ZM44.9896 28.9682H43.4896C43.4896 29.7966 44.1612 30.4682 44.9896 30.4682V28.9682ZM45.8474 24.6449H47.3474C47.3474 23.8165 46.6758 23.1449 45.8474 23.1449V24.6449ZM44.9896 24.6449V23.1449C44.1612 23.1449 43.4896 23.8165 43.4896 24.6449H44.9896ZM43.3896 28.659L42.3843 29.7723C42.8243 30.1696 43.457 30.2705 43.9987 30.0298C44.5405 29.7891 44.8896 29.2519 44.8896 28.659H43.3896ZM43.3896 24.954H44.8896C44.8896 24.3612 44.5405 23.824 43.9987 23.5833C43.457 23.3425 42.8243 23.4434 42.3843 23.8407L43.3896 24.954ZM45.8474 23.0449V24.5449C46.6758 24.5449 47.3474 23.8733 47.3474 23.0449H45.8474ZM44.9896 23.0449H43.4896C43.4896 23.8733 44.1612 24.5449 44.9896 24.5449V23.0449ZM45.8474 18.7217H47.3474C47.3474 17.8933 46.6758 17.2217 45.8474 17.2217V18.7217ZM44.9896 18.7217V17.2217C44.1612 17.2217 43.4896 17.8933 43.4896 18.7217H44.9896ZM43.3896 22.7358L42.3843 23.8491C42.8243 24.2464 43.457 24.3473 43.9987 24.1066C44.5405 23.8659 44.8896 23.3286 44.8896 22.7358H43.3896ZM43.3896 19.0308H44.8896C44.8896 18.438 44.5405 17.9008 43.9987 17.6601C43.457 17.4193 42.8243 17.5202 42.3843 17.9175L43.3896 19.0308ZM43.3896 16.5994L42.3843 17.7126C42.8243 18.1099 43.457 18.2108 43.9987 17.9701C44.5405 17.7294 44.8896 17.1922 44.8896 16.5994H43.3896ZM43.2268 13.0742V11.5742C42.7501 11.5742 42.3018 11.8007 42.0191 12.1845L43.2268 13.0742ZM43.3896 13.0742H44.8896C44.8896 12.2458 44.218 11.5742 43.3896 11.5742V13.0742ZM44.9896 13.1831L45.571 11.8003C45.1079 11.6056 44.578 11.6556 44.1596 11.9336C43.7411 12.2116 43.4896 12.6807 43.4896 13.1831H44.9896ZM44.9896 16.9085H43.4896C43.4896 17.7369 44.1612 18.4085 44.9896 18.4085V16.9085ZM45.8474 16.9085V18.4085C46.6758 18.4085 47.3474 17.7369 47.3474 16.9085H45.8474ZM47.0474 24.6615L47.2954 23.1821C46.8603 23.1092 46.4151 23.2315 46.0783 23.5165C45.7416 23.8015 45.5474 24.2203 45.5474 24.6615H47.0474ZM47.0474 28.9516H45.5474C45.5474 29.3928 45.7416 29.8116 46.0783 30.0966C46.4151 30.3816 46.8603 30.5039 47.2954 30.4309L47.0474 28.9516ZM47.0474 18.7383L47.2954 17.2589C46.8603 17.186 46.4151 17.3083 46.0783 17.5933C45.7416 17.8783 45.5474 18.2971 45.5474 18.7383H47.0474ZM47.0474 23.0284H45.5474C45.5474 23.4696 45.7416 23.8884 46.0783 24.1734C46.4151 24.4584 46.8603 24.5807 47.2954 24.5077L47.0474 23.0284ZM47.0474 16.8919H45.5474C45.5474 17.3331 45.7416 17.7519 46.0783 18.0369C46.4151 18.3219 46.8603 18.4442 47.2954 18.3713L47.0474 16.8919ZM46.2339 12.5852V11.0852C45.6197 11.0852 45.0675 11.4597 44.8403 12.0304C44.6131 12.6011 44.7568 13.2527 45.203 13.6748L46.2339 12.5852ZM24.1461 33.0855L23.4568 34.4177C24.1926 34.7985 25.0976 34.5106 25.4783 33.7749L24.1461 33.0855ZM22.9027 32.4421L21.5705 31.7528C21.3877 32.1061 21.3527 32.5176 21.4733 32.8967C21.5938 33.2759 21.86 33.5915 22.2134 33.7744L22.9027 32.4421ZM36.1253 32.4421L36.8147 33.7744C37.168 33.5915 37.4342 33.2759 37.5548 32.8967C37.6754 32.5176 37.6404 32.1061 37.4576 31.7528L36.1253 32.4421ZM34.8819 33.0855L33.5497 33.7749C33.9304 34.5106 34.8355 34.7985 35.5713 34.4177L34.8819 33.0855ZM13.632 12.2167C13.632 11.4987 14.214 10.9167 14.932 10.9167V7.91666C12.5571 7.91666 10.632 9.84183 10.632 12.2167H13.632ZM13.632 16.3266V12.2167H10.632V16.3266H13.632ZM11.4831 17.8266H12.132V14.8266H11.4831V17.8266ZM11.6807 17.629C11.6807 17.7382 11.5922 17.8266 11.4831 17.8266V14.8266C9.93534 14.8266 8.68066 16.0813 8.68066 17.629H11.6807ZM11.4831 17.4314C11.5922 17.4314 11.6807 17.5199 11.6807 17.629H8.68066C8.68066 19.1768 9.93534 20.4314 11.4831 20.4314V17.4314ZM12.132 17.4314H11.4831V20.4314H12.132V17.4314ZM13.632 22.0572V18.9314H10.632V22.0572H13.632ZM11.4831 23.5572H12.132V20.5572H11.4831V23.5572ZM11.6807 23.3596C11.6807 23.4687 11.5922 23.5572 11.4831 23.5572V20.5572C9.93534 20.5572 8.68066 21.8119 8.68066 23.3596H11.6807ZM11.4831 23.162C11.5922 23.162 11.6807 23.2505 11.6807 23.3596H8.68066C8.68066 24.9073 9.93534 26.162 11.4831 26.162V23.162ZM12.132 23.162H11.4831V26.162H12.132V23.162ZM13.632 27.7878V24.662H10.632V27.7878H13.632ZM11.4831 29.2878H12.132V26.2878H11.4831V29.2878ZM11.6807 29.0902C11.6807 29.1993 11.5922 29.2878 11.4831 29.2878V26.2878C9.93534 26.2878 8.68066 27.5425 8.68066 29.0902H11.6807ZM11.4831 28.8926C11.5922 28.8926 11.6807 28.981 11.6807 29.0902H8.68066C8.68066 30.6379 9.93534 31.8926 11.4831 31.8926V28.8926ZM12.132 28.8926H11.4831V31.8926H12.132V28.8926ZM13.632 33.5184V30.3926H10.632V33.5184H13.632ZM11.4831 35.0184H12.132V32.0184H11.4831V35.0184ZM11.6807 34.8208C11.6807 34.9299 11.5922 35.0184 11.4831 35.0184V32.0184C9.93534 32.0184 8.68066 33.273 8.68066 34.8208H11.6807ZM11.4831 34.6232C11.5922 34.6232 11.6807 34.7116 11.6807 34.8208H8.68066C8.68066 36.3685 9.93534 37.6232 11.4831 37.6232V34.6232ZM12.132 34.6232H11.4831V37.6232H12.132V34.6232ZM13.632 39.249V36.1232H10.632V39.249H13.632ZM11.4831 40.749H12.132V37.749H11.4831V40.749ZM11.6807 40.5514C11.6807 40.6605 11.5922 40.749 11.4831 40.749V37.749C9.93534 37.749 8.68066 39.0036 8.68066 40.5514H11.6807ZM11.4831 40.3538C11.5922 40.3538 11.6807 40.4422 11.6807 40.5514H8.68066C8.68066 42.0991 9.93534 43.3538 11.4831 43.3538V40.3538ZM12.132 40.3538H11.4831V43.3538H12.132V40.3538ZM13.632 45.7258V41.8538H10.632V45.7258H13.632ZM14.7961 47.0189C14.1427 46.952 13.632 46.3976 13.632 45.7258H10.632C10.632 47.9519 12.3223 49.7813 14.4905 50.0033L14.7961 47.0189ZM17.1897 49.0834C16.6605 49.0834 16.2155 48.7081 16.1124 48.2082L13.1742 48.814C13.5589 50.6799 15.2087 52.0834 17.1897 52.0834V49.0834ZM42.4474 49.0834H17.1897V52.0834H42.4474V49.0834ZM45.5474 45.9834C45.5474 47.6954 44.1594 49.0834 42.4474 49.0834V52.0834C45.8163 52.0834 48.5474 49.3523 48.5474 45.9834H45.5474ZM45.5474 30.5611V45.9834H48.5474V30.5611H45.5474ZM48.1475 27.7682C48.1475 28.4543 47.615 29.0174 46.9418 29.0649L47.1529 32.0574C49.3859 31.8999 51.1475 30.0404 51.1475 27.7682H48.1475ZM48.1475 25.8449V27.7682H51.1475V25.8449H48.1475ZM47.7572 24.9163C47.9998 25.154 48.1475 25.4808 48.1475 25.8449H51.1475C51.1475 24.642 50.6516 23.5523 49.857 22.7736L47.7572 24.9163ZM48.1475 21.8449C48.1475 22.209 47.9998 22.5359 47.7572 22.7736L49.857 24.9163C50.6516 24.1376 51.1475 23.0478 51.1475 21.8449H48.1475ZM48.1475 19.9217V21.8449H51.1475V19.9217H48.1475ZM47.7035 18.9432C47.9779 19.1837 48.1475 19.532 48.1475 19.9217H51.1475C51.1475 18.6316 50.5775 17.4729 49.6807 16.687L47.7035 18.9432ZM48.1475 15.7085C48.1475 16.0982 47.9779 16.4465 47.7035 16.6869L49.6807 18.9432C50.5775 18.1573 51.1475 16.9985 51.1475 15.7085H48.1475ZM48.1475 13.7852V15.7085H51.1475V13.7852H48.1475ZM46.8475 12.4852C47.5655 12.4852 48.1475 13.0672 48.1475 13.7852H51.1475C51.1475 11.4104 49.2223 9.48521 46.8475 9.48521V12.4852ZM44.705 12.4852H46.8475V9.48521H44.705V12.4852ZM42.1896 10.9167C42.7002 10.9167 43.1449 11.2109 43.3582 11.6458L46.0517 10.3247C45.3537 8.90158 43.8881 7.91666 42.1896 7.91666V10.9167ZM14.932 10.9167H42.1896V7.91666H14.932V10.9167ZM12.232 41.8538V45.7258H15.232V41.8538H12.232ZM12.232 45.7258C12.232 46.9517 13.0477 47.9831 14.1626 48.3142L15.0168 45.4384C15.1398 45.4749 15.232 45.5876 15.232 45.7258H12.232ZM16.0897 46.8763V41.8372H13.0897V46.8763H16.0897ZM14.3514 40.3562C14.362 40.3545 14.372 40.3538 14.3812 40.3538V43.3538C14.5323 43.3538 14.6817 43.3417 14.828 43.3181L14.3514 40.3562ZM14.3812 40.3538H13.732V43.3538H14.3812V40.3538ZM16.0897 39.2656V36.1066H13.0897V39.2656H16.0897ZM14.3514 34.6256C14.362 34.6239 14.3721 34.6232 14.3812 34.6232V37.6232C14.5323 37.6232 14.6816 37.6111 14.8281 37.5875L14.3514 34.6256ZM14.3812 34.6232H13.732V37.6232H14.3812V34.6232ZM12.232 36.1232V39.249H15.232V36.1232H12.232ZM13.732 40.749H14.3812V37.749H13.732V40.749ZM14.3812 40.749C14.3721 40.749 14.362 40.7482 14.3514 40.7465L14.8281 37.7846C14.6816 37.7611 14.5323 37.749 14.3812 37.749V40.749ZM14.8281 32.054C14.6816 32.0305 14.5323 32.0184 14.3812 32.0184V35.0184C14.3721 35.0184 14.362 35.0176 14.3514 35.0159L14.8281 32.054ZM13.0897 30.376V33.535H16.0897V30.376H13.0897ZM14.3812 31.8926C14.5323 31.8926 14.6816 31.8805 14.8281 31.8569L14.3514 28.895C14.362 28.8933 14.3721 28.8926 14.3812 28.8926V31.8926ZM13.732 31.8926H14.3812V28.8926H13.732V31.8926ZM15.232 33.5184V30.3926H12.232V33.5184H15.232ZM14.3812 32.0184H13.732V35.0184H14.3812V32.0184ZM13.0897 24.6454V27.8044H16.0897V24.6454H13.0897ZM14.3812 26.162C14.5323 26.162 14.6816 26.1499 14.828 26.1263L14.3514 23.1644C14.362 23.1627 14.372 23.162 14.3812 23.162V26.162ZM13.732 26.162H14.3812V23.162H13.732V26.162ZM15.232 27.7878V24.662H12.232V27.7878H15.232ZM14.3812 26.2878H13.732V29.2878H14.3812V26.2878ZM14.8281 26.3234C14.6816 26.2999 14.5323 26.2878 14.3812 26.2878V29.2878C14.3721 29.2878 14.362 29.287 14.3514 29.2853L14.8281 26.3234ZM14.828 20.5928C14.6816 20.5693 14.5323 20.5572 14.3812 20.5572V23.5572C14.372 23.5572 14.362 23.5564 14.3514 23.5547L14.828 20.5928ZM13.0897 18.9148V22.0738H16.0897V18.9148H13.0897ZM14.3812 20.4314C14.5323 20.4314 14.6816 20.4193 14.828 20.3958L14.3514 17.4339C14.362 17.4322 14.372 17.4314 14.3812 17.4314V20.4314ZM13.732 20.4314H14.3812V17.4314H13.732V20.4314ZM15.232 22.0572V18.9314H12.232V22.0572H15.232ZM14.3812 20.5572H13.732V23.5572H14.3812V20.5572ZM13.0897 14.4742V16.3432H16.0897V14.4742H13.0897ZM17.1897 10.3742C14.9254 10.3742 13.0897 12.2098 13.0897 14.4742H16.0897C16.0897 13.8667 16.5822 13.3742 17.1897 13.3742V10.3742ZM42.1471 10.3742H17.1897V13.3742H42.1471V10.3742ZM42.2683 9.93961C41.8087 10.17 41.3971 10.4797 41.051 10.8502L43.2432 12.8982C43.3491 12.7848 43.4743 12.6909 43.6127 12.6215L42.2683 9.93961ZM42.1896 12.5167C42.12 12.5167 42.0523 12.4911 42.0012 12.45L43.8798 10.1111C43.4176 9.73981 42.8276 9.51666 42.1896 9.51666V12.5167ZM14.932 12.5167H42.1896V9.51666H14.932V12.5167ZM15.232 12.2167C15.232 12.3823 15.0976 12.5167 14.932 12.5167V9.51666C13.4408 9.51666 12.232 10.7255 12.232 12.2167H15.232ZM15.232 16.3266V12.2167H12.232V16.3266H15.232ZM14.3812 14.8266H13.732V17.8266H14.3812V14.8266ZM14.828 14.8623C14.6816 14.8387 14.5323 14.8266 14.3812 14.8266V17.8266C14.372 17.8266 14.362 17.8259 14.3514 17.8242L14.828 14.8623ZM17.1897 47.8834C17.2084 47.8834 17.23 47.89 17.2468 47.9014C17.2611 47.9111 17.2733 47.925 17.2813 47.9442L14.5161 49.1075C14.9538 50.1481 15.9842 50.8834 17.1897 50.8834V47.8834ZM42.4474 47.8834H17.1897V50.8834H42.4474V47.8834ZM44.3474 45.9834C44.3474 47.0327 43.4967 47.8834 42.4474 47.8834V50.8834C45.1536 50.8834 47.3474 48.6895 47.3474 45.9834H44.3474ZM44.3474 30.5682V45.9834H47.3474V30.5682H44.3474ZM44.9896 32.0682H45.8474V29.0682H44.9896V32.0682ZM46.4896 45.7258V30.5682H43.4896V45.7258H46.4896ZM42.1896 50.0258C44.5644 50.0258 46.4896 48.1006 46.4896 45.7258H43.4896C43.4896 46.4438 42.9076 47.0258 42.1896 47.0258V50.0258ZM15.8987 50.0258H42.1896V47.0258H15.8987V50.0258ZM44.8896 45.7258V30.451H41.8896V45.7258H44.8896ZM42.1896 48.4258C43.6808 48.4258 44.8896 47.217 44.8896 45.7258H41.8896C41.8896 45.5601 42.0239 45.4258 42.1896 45.4258V48.4258ZM15.7897 48.4258H42.1896V45.4258H15.7897V48.4258ZM14.2897 14.4742V46.9258H17.2897V14.4742H14.2897ZM17.1897 11.5742C15.5881 11.5742 14.2897 12.8726 14.2897 14.4742H17.2897C17.2897 14.5294 17.2449 14.5742 17.1897 14.5742V11.5742ZM41.4846 11.5742H17.1897V14.5742H41.4846V11.5742ZM42.8936 13.7852C42.8936 13.6688 42.9085 13.5581 42.9357 13.454L40.0335 12.6944C39.9419 13.0443 39.8936 13.4102 39.8936 13.7852H42.8936ZM42.8936 15.7085V13.7852H39.8936V15.7085H42.8936ZM43.3376 16.687C43.0631 16.4465 42.8936 16.0982 42.8936 15.7085H39.8936C39.8936 16.9985 40.4635 18.1573 41.3604 18.9432L43.3376 16.687ZM42.8936 19.9217C42.8936 19.532 43.0631 19.1837 43.3376 18.9432L41.3604 16.6869C40.4635 17.4729 39.8936 18.6316 39.8936 19.9217H42.8936ZM42.8936 21.8449V19.9217H39.8936V21.8449H42.8936ZM43.2838 22.7736C43.0412 22.5359 42.8936 22.209 42.8936 21.8449H39.8936C39.8936 23.0478 40.3894 24.1376 41.1841 24.9163L43.2838 22.7736ZM42.8936 25.8449C42.8936 25.4808 43.0412 25.154 43.2838 24.9163L41.1841 22.7736C40.3894 23.5523 39.8936 24.642 39.8936 25.8449H42.8936ZM42.8936 27.7682V25.8449H39.8936V27.7682H42.8936ZM43.8196 29.014C43.2825 28.8533 42.8936 28.3542 42.8936 27.7682H39.8936C39.8936 29.7161 41.1876 31.3578 42.9596 31.8881L43.8196 29.014ZM45.8474 27.4682H44.9896V30.4682H45.8474V27.4682ZM44.3474 24.6449V28.9682H47.3474V24.6449H44.3474ZM44.9896 26.1449H45.8474V23.1449H44.9896V26.1449ZM46.4896 28.9682V24.6449H43.4896V28.9682H46.4896ZM44.8896 28.659V24.954H41.8896V28.659H44.8896ZM41.4936 27.7682C41.4936 28.5636 41.8394 29.2803 42.3843 29.7723L44.3949 27.5458C44.4533 27.5986 44.4936 27.6797 44.4936 27.7682H41.4936ZM41.4936 25.8449V27.7682H44.4936V25.8449H41.4936ZM42.3843 23.8407C41.8394 24.3328 41.4936 25.0495 41.4936 25.8449H44.4936C44.4936 25.9334 44.4533 26.0145 44.3949 26.0673L42.3843 23.8407ZM45.8474 21.5449H44.9896V24.5449H45.8474V21.5449ZM44.3474 18.7217V23.0449H47.3474V18.7217H44.3474ZM44.9896 20.2217H45.8474V17.2217H44.9896V20.2217ZM46.4896 23.0449V18.7217H43.4896V23.0449H46.4896ZM44.8896 22.7358V19.0308H41.8896V22.7358H44.8896ZM41.4936 21.8449C41.4936 22.6404 41.8394 23.3571 42.3843 23.8491L44.3949 21.6225C44.4533 21.6753 44.4936 21.7565 44.4936 21.8449H41.4936ZM41.4936 19.9217V21.8449H44.4936V19.9217H41.4936ZM42.3843 17.9175C41.8394 18.4095 41.4936 19.1262 41.4936 19.9217H44.4936C44.4936 20.0102 44.4533 20.0913 44.3949 20.1441L42.3843 17.9175ZM41.4936 15.7085C41.4936 16.5039 41.8394 17.2206 42.3843 17.7126L44.3949 15.4861C44.4533 15.5389 44.4936 15.62 44.4936 15.7085H41.4936ZM41.4936 13.7852V15.7085H44.4936V13.7852H41.4936ZM42.0191 12.1845C41.6891 12.6325 41.4936 13.1882 41.4936 13.7852H44.4936C44.4936 13.8499 44.4713 13.9139 44.4345 13.9639L42.0191 12.1845ZM43.3896 11.5742H43.2268V14.5742H43.3896V11.5742ZM44.8896 16.5994V13.0742H41.8896V16.5994H44.8896ZM43.4896 13.1831V16.9085H46.4896V13.1831H43.4896ZM47.3474 14.4742C47.3474 13.2685 46.6119 12.238 45.571 11.8003L44.4082 14.5658C44.389 14.5577 44.3751 14.5456 44.3654 14.5312C44.354 14.5145 44.3474 14.4928 44.3474 14.4742H47.3474ZM47.3474 16.9085V14.4742H44.3474V16.9085H47.3474ZM44.9896 18.4085H45.8474V15.4085H44.9896V18.4085ZM46.7993 26.1408C46.6563 26.1168 46.5475 25.9951 46.5475 25.8449H49.5475C49.5475 24.5055 48.5736 23.3964 47.2954 23.1821L46.7993 26.1408ZM48.5474 28.9516V24.6615H45.5474V28.9516H48.5474ZM46.5475 27.7682C46.5475 27.618 46.6563 27.4962 46.7993 27.4722L47.2954 30.4309C48.5736 30.2166 49.5475 29.1076 49.5475 27.7682H46.5475ZM46.5475 25.8449V27.7682H49.5475V25.8449H46.5475ZM45.5474 18.7383V23.0284H48.5474V18.7383H45.5474ZM49.5475 19.9217C49.5475 18.5822 48.5736 17.4732 47.2954 17.2589L46.7993 20.2176C46.6563 20.1936 46.5475 20.0718 46.5475 19.9217H49.5475ZM49.5475 21.8449V19.9217H46.5475V21.8449H49.5475ZM47.2954 24.5077C48.5736 24.2934 49.5475 23.1844 49.5475 21.8449H46.5475C46.5475 21.6948 46.6563 21.573 46.7993 21.549L47.2954 24.5077ZM48.5474 16.8919V14.4742H45.5474V16.8919H48.5474ZM46.5475 15.7085C46.5475 15.5583 46.6563 15.4365 46.7993 15.4125L47.2954 18.3713C48.5736 18.157 49.5475 17.0479 49.5475 15.7085H46.5475ZM46.5475 13.7852V15.7085H49.5475V13.7852H46.5475ZM46.8475 14.0852C46.6818 14.0852 46.5475 13.9509 46.5475 13.7852H49.5475C49.5475 12.294 48.3387 11.0852 46.8475 11.0852V14.0852ZM46.2339 14.0852H46.8475V11.0852H46.2339V14.0852ZM48.5474 14.4742C48.5474 13.3011 48.0527 12.241 47.2648 11.4956L45.203 13.6748C45.417 13.8773 45.5474 14.1593 45.5474 14.4742H48.5474ZM25.4783 33.7749C26.236 32.3106 27.7606 31.3171 29.514 31.3171V28.3171C26.5964 28.3171 24.0669 29.9746 22.8139 32.3962L25.4783 33.7749ZM22.2134 33.7744L23.4568 34.4177L24.8355 31.7533L23.592 31.1099L22.2134 33.7744ZM29.514 26.9171C26.0523 26.9171 23.0543 28.8852 21.5705 31.7528L24.2349 33.1315C25.2239 31.2202 27.2176 29.9171 29.514 29.9171V26.9171ZM37.4576 31.7528C35.9738 28.8852 32.9758 26.9171 29.514 26.9171V29.9171C31.8104 29.9171 33.8041 31.2202 34.7931 33.1315L37.4576 31.7528ZM35.5713 34.4177L36.8147 33.7744L35.436 31.1099L34.1926 31.7533L35.5713 34.4177ZM29.514 31.3171C31.2674 31.3171 32.792 32.3106 33.5497 33.7749L36.2141 32.3962C34.9611 29.9746 32.4316 28.3171 29.514 28.3171V31.3171Z" fill="#F8F9FA" mask="url(#path-1-outside-1_50_2)"/>
<path d="M15.1897 14.525C15.1897 13.4204 16.0851 12.525 17.1897 12.525H44.4473C45.5519 12.525 46.4473 13.4204 46.4473 14.525V46.0341C46.4473 48.2433 44.6565 50.0341 42.4473 50.0341H17.1897C16.0851 50.0341 15.1897 49.1387 15.1897 48.0341V14.525Z" fill="#A23A3A" stroke="#212529" stroke-width="1.2" stroke-linejoin="round"/>
<rect x="42.1936" y="11.836" width="6.65394" height="5.92326" rx="2" fill="#FF8787" stroke="#212529" stroke-width="1.6" stroke-linejoin="round"/>
<rect x="42.1936" y="17.9725" width="6.65394" height="5.92326" rx="2" fill="#FFE066" stroke="#212529" stroke-width="1.6" stroke-linejoin="round"/>
<rect x="42.1936" y="23.8957" width="6.65394" height="5.92326" rx="2" fill="#D0BFFF" stroke="#212529" stroke-width="1.6" stroke-linejoin="round"/>
<rect x="12.932" y="10.2674" width="31.2576" height="37.5092" rx="2" fill="#AC5454" stroke="#212529" stroke-width="1.6" stroke-linejoin="round"/>
<circle cx="29.5139" cy="26.8521" r="8.17186" fill="#F8F9FA" stroke="#212529" stroke-width="1.4" stroke-linejoin="round"/>
<circle cx="29.514" cy="24.3385" r="2.50694" fill="#FFE066" stroke="#212529" stroke-width="1.2" stroke-linejoin="round"/>
<path d="M35.3393 32.5057C34.2185 30.3395 32.1212 29.1679 29.5139 29.1679C26.9067 29.1679 24.8823 30.3395 23.7615 32.5057C24.6995 33.9419 27.0891 34.9779 29.5139 34.9779C31.9388 34.9779 34.1376 33.9126 35.3393 32.5057Z" fill="#FFE066" stroke="#212529" stroke-width="1.2" stroke-linejoin="round"/>
<rect x="10.1807" y="16.3774" width="5.50293" height="2.6048" rx="1.3024" fill="#212529"/>
<rect x="10.1807" y="22.108" width="5.50293" height="2.6048" rx="1.3024" fill="#212529"/>
<rect x="10.1807" y="27.8386" width="5.50293" height="2.6048" rx="1.3024" fill="#212529"/>
<rect x="10.1807" y="33.5692" width="5.50293" height="2.6048" rx="1.3024" fill="#212529"/>
<rect x="10.1807" y="39.2997" width="5.50293" height="2.6048" rx="1.3024" fill="#212529"/>
<g style="mix-blend-mode:multiply">
<rect x="44.8707" y="11.8709" width="0.877699" height="17.1511" fill="#DEE2E6"/>
</g>
</svg>
