<svg width="60" height="61" viewBox="0 0 60 61" fill="none" xmlns="http://www.w3.org/2000/svg">
<mask id="path-1-outside-1_50_4648" maskUnits="userSpaceOnUse" x="5.01892" y="10.6426" width="50" height="39" fill="black">
<rect fill="white" x="5.01892" y="10.6426" width="50" height="39"/>
<path fill-rule="evenodd" clip-rule="evenodd" d="M16.2168 12.7473C14.8392 12.3453 13.3964 13.1361 12.9944 14.5137L11.1781 20.7368H10.9702C9.53514 20.7368 8.37177 21.9001 8.37177 23.3352V30.352L7.12367 34.6283C6.7752 35.8223 7.32276 37.0652 8.37177 37.6371V44.2891C8.37177 45.7242 9.53514 46.8875 10.9702 46.8875H39.8526L43.7833 48.0348C44.9384 48.3719 46.1392 47.8704 46.7341 46.8875H47.3193C48.7544 46.8875 49.9178 45.7242 49.9178 44.2891V36.2909L52.8764 26.1538C53.2785 24.7761 52.4877 23.3334 51.1101 22.9313L49.7964 22.5479C49.4629 21.4977 48.48 20.7368 47.3193 20.7368H43.5908L16.2168 12.7473ZM38.7818 20.7368L15.8393 14.0407C15.176 13.8471 14.4813 14.2279 14.2878 14.8912L12.5817 20.7368H38.7818ZM10.7807 22.0984C10.1797 22.1897 9.71912 22.7087 9.71912 23.3352V25.7356L10.7807 22.0984ZM9.71912 30.5446L12.1884 22.0841H43.3982L48.5704 23.5937V36.0983L45.8147 45.5402H40.0452L9.71912 36.6892V30.5446ZM8.37177 35.244C8.36483 35.32 8.36498 35.3955 8.37177 35.4699V35.244ZM9.71912 38.0927V44.2891C9.71912 44.9801 10.2793 45.5402 10.9702 45.5402H35.2362L9.71912 38.0927ZM47.2183 45.5402H47.3193C48.0103 45.5402 48.5704 44.9801 48.5704 44.2891V40.9073L47.2183 45.5402ZM49.9178 31.4819L51.5831 25.7763C51.7766 25.113 51.3959 24.4183 50.7326 24.2247L49.9178 23.9869V31.4819Z"/>
</mask>
<path fill-rule="evenodd" clip-rule="evenodd" d="M16.2168 12.7473C14.8392 12.3453 13.3964 13.1361 12.9944 14.5137L11.1781 20.7368H10.9702C9.53514 20.7368 8.37177 21.9001 8.37177 23.3352V30.352L7.12367 34.6283C6.7752 35.8223 7.32276 37.0652 8.37177 37.6371V44.2891C8.37177 45.7242 9.53514 46.8875 10.9702 46.8875H39.8526L43.7833 48.0348C44.9384 48.3719 46.1392 47.8704 46.7341 46.8875H47.3193C48.7544 46.8875 49.9178 45.7242 49.9178 44.2891V36.2909L52.8764 26.1538C53.2785 24.7761 52.4877 23.3334 51.1101 22.9313L49.7964 22.5479C49.4629 21.4977 48.48 20.7368 47.3193 20.7368H43.5908L16.2168 12.7473ZM38.7818 20.7368L15.8393 14.0407C15.176 13.8471 14.4813 14.2279 14.2878 14.8912L12.5817 20.7368H38.7818ZM10.7807 22.0984C10.1797 22.1897 9.71912 22.7087 9.71912 23.3352V25.7356L10.7807 22.0984ZM9.71912 30.5446L12.1884 22.0841H43.3982L48.5704 23.5937V36.0983L45.8147 45.5402H40.0452L9.71912 36.6892V30.5446ZM8.37177 35.244C8.36483 35.32 8.36498 35.3955 8.37177 35.4699V35.244ZM9.71912 38.0927V44.2891C9.71912 44.9801 10.2793 45.5402 10.9702 45.5402H35.2362L9.71912 38.0927ZM47.2183 45.5402H47.3193C48.0103 45.5402 48.5704 44.9801 48.5704 44.2891V40.9073L47.2183 45.5402ZM49.9178 31.4819L51.5831 25.7763C51.7766 25.113 51.3959 24.4183 50.7326 24.2247L49.9178 23.9869V31.4819Z" fill="#F8F9FA"/>
<path d="M12.9944 14.5137L11.5544 14.0934L11.5544 14.0934L12.9944 14.5137ZM16.2168 12.7473L15.7965 14.1872L15.7965 14.1872L16.2168 12.7473ZM11.1781 20.7368V22.2368C11.8447 22.2368 12.4313 21.7969 12.618 21.157L11.1781 20.7368ZM8.37177 30.352L9.81169 30.7723C9.85154 30.6357 9.87177 30.4942 9.87177 30.352H8.37177ZM7.12367 34.6283L8.56359 35.0486L8.56359 35.0486L7.12367 34.6283ZM8.37177 37.6371H9.87177C9.87177 37.088 9.57182 36.5829 9.08979 36.3201L8.37177 37.6371ZM39.8526 46.8875L40.2729 45.4476C40.1363 45.4078 39.9948 45.3875 39.8526 45.3875V46.8875ZM43.7833 48.0348L44.2036 46.5949L44.2036 46.5949L43.7833 48.0348ZM46.7341 46.8875V45.3875C46.2092 45.3875 45.7225 45.6619 45.4508 46.1109L46.7341 46.8875ZM49.9178 36.2909L48.4779 35.8707C48.438 36.0072 48.4178 36.1487 48.4178 36.2909H49.9178ZM52.8764 26.1538L54.3164 26.574L54.3164 26.574L52.8764 26.1538ZM51.1101 22.9313L51.5303 21.4914L51.5303 21.4914L51.1101 22.9313ZM49.7964 22.5479L48.3667 23.0019C48.518 23.4782 48.8964 23.8478 49.3761 23.9878L49.7964 22.5479ZM43.5908 20.7368L43.1706 22.1767C43.3071 22.2165 43.4486 22.2368 43.5908 22.2368V20.7368ZM38.7818 20.7368V22.2368C39.5283 22.2368 40.1611 21.6879 40.2667 20.949C40.3724 20.2101 39.9186 19.506 39.2021 19.2968L38.7818 20.7368ZM15.8393 14.0407L15.419 15.4806L15.419 15.4806L15.8393 14.0407ZM14.2878 14.8912L12.8478 14.4709L12.8478 14.4709L14.2878 14.8912ZM12.5817 20.7368L11.1417 20.3165C11.0094 20.7698 11.0983 21.2589 11.3816 21.6367C11.6648 22.0144 12.1095 22.2368 12.5817 22.2368V20.7368ZM10.7807 22.0984L12.2206 22.5186C12.3641 22.027 12.2468 21.4961 11.9096 21.1106C11.5723 20.7252 11.0617 20.5385 10.5553 20.6154L10.7807 22.0984ZM9.71912 25.7356H8.21912C8.21912 26.482 8.76794 27.1149 9.50686 27.2205C10.2458 27.3261 10.9499 26.8724 11.159 26.1559L9.71912 25.7356ZM12.1884 22.0841V20.5841C11.5218 20.5841 10.9352 21.024 10.7485 21.6639L12.1884 22.0841ZM9.71912 30.5446L8.2792 30.1243C8.23935 30.2609 8.21912 30.4024 8.21912 30.5446H9.71912ZM43.3982 22.0841L43.8185 20.6442C43.682 20.6043 43.5405 20.5841 43.3982 20.5841V22.0841ZM48.5704 23.5937H50.0704C50.0704 22.9271 49.6306 22.3405 48.9907 22.1538L48.5704 23.5937ZM48.5704 36.0983L50.0104 36.5186C50.0502 36.3821 50.0704 36.2406 50.0704 36.0983H48.5704ZM45.8147 45.5402V47.0402C46.4813 47.0402 47.0679 46.6003 47.2546 45.9605L45.8147 45.5402ZM40.0452 45.5402L39.6249 46.9801C39.7615 47.02 39.903 47.0402 40.0452 47.0402V45.5402ZM9.71912 36.6892H8.21912C8.21912 37.3557 8.65899 37.9423 9.29886 38.1291L9.71912 36.6892ZM8.37177 35.244H9.87177C9.87177 34.4421 9.24108 33.782 8.44003 33.7455C7.63897 33.709 6.95088 34.309 6.87798 35.1076L8.37177 35.244ZM8.37177 35.4699L6.87799 35.6063C6.95093 36.4049 7.63903 37.0048 8.44007 36.9683C9.24111 36.9318 9.87177 36.2717 9.87177 35.4699H8.37177ZM9.71912 38.0927L10.1394 36.6528C9.68611 36.5205 9.197 36.6094 8.81923 36.8927C8.44146 37.1759 8.21912 37.6206 8.21912 38.0927H9.71912ZM35.2362 45.5402V47.0402C35.9826 47.0402 36.6155 46.4914 36.7211 45.7525C36.8267 45.0135 36.373 44.3094 35.6565 44.1003L35.2362 45.5402ZM47.2183 45.5402L45.7784 45.1199C45.6461 45.5732 45.7349 46.0623 46.0182 46.4401C46.3015 46.8179 46.7461 47.0402 47.2183 47.0402V45.5402ZM48.5704 40.9073H50.0704C50.0704 40.1609 49.5216 39.5281 48.7827 39.4224C48.0438 39.3168 47.3396 39.7706 47.1305 40.4871L48.5704 40.9073ZM49.9178 31.4819H48.4178C48.4178 32.2284 48.9666 32.8612 49.7055 32.9669C50.4444 33.0725 51.1486 32.6187 51.3577 31.9022L49.9178 31.4819ZM51.5831 25.7763L53.023 26.1965L53.023 26.1965L51.5831 25.7763ZM50.7326 24.2247L50.3123 25.6647L50.3123 25.6647L50.7326 24.2247ZM49.9178 23.9869L50.338 22.547C49.8848 22.4147 49.3957 22.5036 49.0179 22.7868C48.6401 23.0701 48.4178 23.5147 48.4178 23.9869H49.9178ZM14.4343 14.934C14.6043 14.3516 15.2141 14.0173 15.7965 14.1872L16.637 11.3074C14.4642 10.6732 12.1886 11.9206 11.5544 14.0934L14.4343 14.934ZM12.618 21.157L14.4343 14.934L11.5544 14.0934L9.73816 20.3165L12.618 21.157ZM10.9702 22.2368H11.1781V19.2368H10.9702V22.2368ZM9.87177 23.3352C9.87177 22.7286 10.3636 22.2368 10.9702 22.2368V19.2368C8.70671 19.2368 6.87177 21.0717 6.87177 23.3352H9.87177ZM9.87177 30.352V23.3352H6.87177V30.352H9.87177ZM8.56359 35.0486L9.81169 30.7723L6.93185 29.9317L5.68374 34.2081L8.56359 35.0486ZM9.08979 36.3201C8.64667 36.0785 8.4168 35.5516 8.56359 35.0486L5.68374 34.2081C5.1336 36.093 5.99884 38.0518 7.65375 38.9541L9.08979 36.3201ZM9.87177 44.2891V37.6371H6.87177V44.2891H9.87177ZM10.9702 45.3875C10.3636 45.3875 9.87177 44.8958 9.87177 44.2891H6.87177C6.87177 46.5526 8.70671 48.3875 10.9702 48.3875V45.3875ZM39.8526 45.3875H10.9702V48.3875H39.8526V45.3875ZM44.2036 46.5949L40.2729 45.4476L39.4323 48.3275L43.3631 49.4747L44.2036 46.5949ZM45.4508 46.1109C45.1991 46.5268 44.6899 46.7368 44.2036 46.5949L43.3631 49.4747C45.1869 50.007 47.0794 49.214 48.0174 47.6642L45.4508 46.1109ZM47.3193 45.3875H46.7341V48.3875H47.3193V45.3875ZM48.4178 44.2891C48.4178 44.8957 47.926 45.3875 47.3193 45.3875V48.3875C49.5828 48.3875 51.4178 46.5526 51.4178 44.2891H48.4178ZM48.4178 36.2909V44.2891H51.4178V36.2909H48.4178ZM51.4365 25.7335L48.4779 35.8707L51.3577 36.7112L54.3164 26.574L51.4365 25.7335ZM50.6898 24.3713C51.2722 24.5412 51.6065 25.1511 51.4365 25.7335L54.3164 26.574C54.9505 24.4012 53.7032 22.1256 51.5303 21.4914L50.6898 24.3713ZM49.3761 23.9878L50.6898 24.3713L51.5303 21.4914L50.2166 21.108L49.3761 23.9878ZM47.3193 22.2368C47.8077 22.2368 48.2253 22.5565 48.3667 23.0019L51.226 22.0939C50.7005 20.4389 49.1522 19.2368 47.3193 19.2368V22.2368ZM43.5908 22.2368H47.3193V19.2368H43.5908V22.2368ZM15.7965 14.1872L43.1706 22.1767L44.0111 19.2968L16.637 11.3074L15.7965 14.1872ZM39.2021 19.2968L16.2595 12.6008L15.419 15.4806L38.3616 22.1767L39.2021 19.2968ZM16.2595 12.6008C14.801 12.1751 13.2735 13.0124 12.8478 14.4709L15.7277 15.3114C15.6892 15.4434 15.551 15.5191 15.419 15.4806L16.2595 12.6008ZM12.8478 14.4709L11.1417 20.3165L14.0216 21.157L15.7277 15.3114L12.8478 14.4709ZM12.5817 22.2368H38.7818V19.2368H12.5817V22.2368ZM10.5553 20.6154C9.23237 20.8165 8.21912 21.9562 8.21912 23.3352H11.2191C11.2191 23.4612 11.1269 23.563 11.0061 23.5814L10.5553 20.6154ZM8.21912 23.3352V25.7356H11.2191V23.3352H8.21912ZM11.159 26.1559L12.2206 22.5186L9.34076 21.6781L8.2792 25.3153L11.159 26.1559ZM10.7485 21.6639L8.2792 30.1243L11.159 30.9649L13.6283 22.5044L10.7485 21.6639ZM43.3982 20.5841H12.1884V23.5841H43.3982V20.5841ZM48.9907 22.1538L43.8185 20.6442L42.978 23.524L48.1502 25.0336L48.9907 22.1538ZM50.0704 36.0983V23.5937H47.0704V36.0983H50.0704ZM47.2546 45.9605L50.0104 36.5186L47.1305 35.6781L44.3748 45.1199L47.2546 45.9605ZM40.0452 47.0402H45.8147V44.0402H40.0452V47.0402ZM9.29886 38.1291L39.6249 46.9801L40.4655 44.1003L10.1394 35.2492L9.29886 38.1291ZM8.21912 30.5446V36.6892H11.2191V30.5446H8.21912ZM6.87798 35.1076C6.86268 35.2752 6.86299 35.4421 6.87799 35.6063L9.86555 35.3334C9.86697 35.3489 9.86699 35.3647 9.86556 35.3803L6.87798 35.1076ZM9.87177 35.4699V35.244H6.87177V35.4699H9.87177ZM8.21912 38.0927V44.2891H11.2191V38.0927H8.21912ZM8.21912 44.2891C8.21912 45.8085 9.45083 47.0402 10.9702 47.0402V44.0402C11.1077 44.0402 11.2191 44.1516 11.2191 44.2891H8.21912ZM10.9702 47.0402H35.2362V44.0402H10.9702V47.0402ZM35.6565 44.1003L10.1394 36.6528L9.29886 39.5327L34.8159 46.9801L35.6565 44.1003ZM47.2183 47.0402H47.3193V44.0402H47.2183V47.0402ZM47.3193 47.0402C48.8387 47.0402 50.0704 45.8085 50.0704 44.2891H47.0704C47.0704 44.1516 47.1819 44.0402 47.3193 44.0402V47.0402ZM50.0704 44.2891V40.9073H47.0704V44.2891H50.0704ZM47.1305 40.4871L45.7784 45.1199L48.6582 45.9605L50.0104 41.3276L47.1305 40.4871ZM51.3577 31.9022L53.023 26.1965L50.1431 25.356L48.4779 31.0617L51.3577 31.9022ZM53.023 26.1965C53.4487 24.738 52.6114 23.2105 51.1528 22.7848L50.3123 25.6647C50.1804 25.6261 50.1046 25.4879 50.1431 25.356L53.023 26.1965ZM51.1528 22.7848L50.338 22.547L49.4975 25.4268L50.3123 25.6647L51.1528 22.7848ZM48.4178 23.9869V31.4819H51.4178V23.9869H48.4178Z" fill="#F8F9FA" mask="url(#path-1-outside-1_50_4648)"/>
<rect x="14.1963" y="12.855" width="40.1987" height="24.8034" rx="2" transform="rotate(16.2705 14.1963 12.855)" fill="#868E96" stroke="#212529" stroke-width="1.4" stroke-linejoin="round"/>
<rect x="9.0614" y="21.4106" width="40.1987" height="24.8034" rx="2" fill="#868E96" stroke="#212529" stroke-width="1.4" stroke-linejoin="round"/>
<rect x="9.0614" y="27.3979" width="40.1987" height="5.98703" fill="#FFE066" stroke="#212529" stroke-linecap="round" stroke-linejoin="round"/>
<rect x="41.6881" y="38.5244" width="5.13174" height="5.13174" fill="#CED4DA" stroke="#212529" stroke-linecap="round" stroke-linejoin="round"/>
<path d="M14.1932 37.6611H21.4632" stroke="#212529" stroke-width="1.2" stroke-linecap="round" stroke-linejoin="round"/>
<path d="M14.1932 41.082H18.4697" stroke="#212529" stroke-width="1.2" stroke-linecap="round" stroke-linejoin="round"/>
<g opacity="0.4">
<g style="mix-blend-mode:soft-light">
<path d="M17.4497 27.8579H20.4567L17.2002 32.9245H14.1932L17.4497 27.8579Z" fill="#F8F9FA"/>
</g>
<g style="mix-blend-mode:soft-light">
<path d="M21.7262 27.8579H23.3288L20.0723 32.9245H18.4697L21.7262 27.8579Z" fill="#F8F9FA"/>
</g>
</g>
<g style="mix-blend-mode:multiply">
<path d="M38.4489 20.021H12.5809L11.965 21.0065H40.1734L38.4489 20.021Z" fill="#DEE2E6"/>
</g>
<g style="mix-blend-mode:multiply">
<path d="M50.4792 23.7803L49.3387 23.1064L49.8053 32.5934L50.4792 30.0532V23.7803Z" fill="#DEE2E6"/>
</g>
</svg>
