<svg width="60" height="60" viewBox="0 0 60 60" fill="none" xmlns="http://www.w3.org/2000/svg">
<mask id="path-1-outside-1_50_7619" maskUnits="userSpaceOnUse" x="4.8645" y="3.77588" width="50" height="52" fill="black">
<rect fill="white" x="4.8645" y="3.77588" width="50" height="52"/>
<path fill-rule="evenodd" clip-rule="evenodd" d="M38.2829 7.02427C38.3211 6.99111 38.3523 6.98076 38.3751 6.97732C38.4002 6.97355 38.4322 6.97587 38.4693 6.99075C38.5462 7.02155 38.6312 7.102 38.6638 7.23235L39.7655 11.6393C39.8293 11.8946 40.052 12.0785 40.3146 12.0929C40.6264 12.1101 41.135 12.1765 41.615 12.3163C42.1276 12.4656 42.4638 12.658 42.5936 12.8353C42.9612 13.3377 43.8097 14.1631 44.8291 14.9506C45.854 15.7424 47.1191 16.5487 48.3421 16.9691C49.5037 17.3684 50.0364 17.5771 50.3418 17.7847C50.574 17.9426 50.6707 18.0918 50.8545 18.5644C51.0277 19.01 50.9641 19.6853 50.6666 20.2882C50.3631 20.9035 49.934 21.2219 49.5754 21.2408C49.2166 21.2597 48.5971 21.254 47.8496 21.2473H47.8496L47.8494 21.2472C47.218 21.2415 46.4951 21.2349 45.7608 21.2416C44.98 21.2487 44.1998 21.2714 43.5552 21.3299C43.2334 21.3591 42.933 21.3983 42.6771 21.4523C42.4389 21.5026 42.1713 21.5787 41.9651 21.7162C41.1991 22.2269 39.9585 23.0675 39.7715 24.6409L15.5038 40.9902C16.185 39.0862 17.1329 37.3763 18.2849 36.0861C20.9297 33.1241 23.2195 31.5622 25.1365 30.2884L25.3788 30.1275C27.1816 28.9317 28.7407 27.8975 29.8377 26.0692C31.5571 23.2034 34.6352 16.8895 35.9529 14.106C35.9908 14.0257 36.0105 13.938 36.0105 13.8492V11.2511C36.2362 9.92308 36.97 8.16347 38.2829 7.02427ZM39.7715 24.641L39.7715 24.6409L42.4785 22.8173L42.4674 22.8249L39.7715 24.641ZM42.4785 22.8173L42.6172 22.7238C42.5708 22.7548 42.5245 22.7859 42.4785 22.8173ZM52.1492 19.0554C52.1632 19.6656 52.0024 20.2929 51.7428 20.8192C51.3536 21.6081 50.6269 22.3871 49.6384 22.4391C49.2562 22.4593 48.5643 22.4534 47.7667 22.4467H47.7666H47.7665H47.7664C47.1342 22.4414 46.4355 22.4355 45.7717 22.4416C45.0001 22.4486 44.2588 22.471 43.6637 22.525C43.3656 22.5521 43.1166 22.586 42.9249 22.6264C42.8294 22.6466 42.7558 22.6668 42.7017 22.6855C42.6551 22.7017 42.6344 22.7128 42.6307 22.7148L42.6303 22.715L42.6301 22.7151L42.6172 22.7238L42.4674 22.8249C41.6604 23.3755 40.9476 23.9861 40.9476 25.0515C40.9476 25.7314 41.1565 27.0353 41.4175 28.5286C41.4618 28.7818 41.5073 29.0394 41.5531 29.2984C41.7709 30.5304 41.9944 31.7947 42.1136 32.7783C42.2556 33.9495 42.3707 35.057 42.2334 36.2765C42.0955 37.5018 41.7073 38.8093 40.8867 40.4168C39.841 42.6563 40.0337 44.7452 41.9477 50.0041C42.4433 50.0598 43.0348 50.2001 43.6051 50.4675C44.3512 50.8175 45.1001 51.4053 45.5081 52.3447C45.7245 52.8429 45.6004 53.3424 45.3075 53.6901C45.0261 54.0242 44.5911 54.2242 44.1308 54.2242H38.8057C38.248 54.2242 37.5231 53.8936 37.4167 53.1132C37.3778 52.8284 37.3798 52.5251 37.3814 52.2807V52.2806V52.2805V52.2804V52.2803C37.3818 52.2104 37.3822 52.1454 37.3816 52.0869C37.3789 51.8028 37.3571 51.6053 37.2927 51.4437C35.9243 48.976 35.0008 46.8826 34.1853 44.1243C33.9362 45.2985 33.5001 46.5086 32.7921 47.5171C32.167 48.4074 31.3274 48.9901 30.5072 49.3778C30.5911 49.3998 30.6738 49.4228 30.7549 49.4468C30.8823 49.481 31.0083 49.5162 31.1322 49.552C31.7445 49.7288 32.3334 49.9284 32.8196 50.1221C33.2828 50.3067 33.7183 50.511 33.9713 50.7109C34.5652 51.1803 34.9283 51.7156 35.081 52.516C35.2723 53.5181 34.4012 54.2242 33.5698 54.2242H17.8374C16.4888 54.2242 15.345 53.7609 14.5192 52.8497C13.7043 51.9508 13.2531 50.6764 13.1499 49.1447C13.1223 48.7362 13.1082 48.3233 13.107 47.9077C10.1546 46.3692 7.45984 43.2108 7.01572 39.2139C6.72586 36.6052 6.88843 34.6405 7.20221 33.158C7.49645 31.7677 7.92121 30.8175 8.1974 30.1997L8.25098 30.0796L8.25591 30.0685C8.25587 30.0686 8.25589 30.0686 8.32362 30.1003L8.79331 30.3204L8.25591 30.0685L8.25679 30.0669L8.25779 30.0648L8.26048 30.0592L8.26858 30.0426C8.27518 30.0293 8.28421 30.0115 8.2956 29.9899C8.3183 29.9468 8.35076 29.8881 8.3924 29.8198C8.47413 29.6857 8.59849 29.5028 8.76228 29.3285C9.0669 29.0044 9.68997 28.5392 10.4714 28.8858C11.2385 29.226 11.3322 29.9652 11.3007 30.4103C11.2842 30.643 11.2341 30.8516 11.191 30.9973C11.169 31.0715 11.1477 31.133 11.1314 31.1774C11.1232 31.1997 11.1161 31.2179 11.1107 31.2314L11.1039 31.2483L11.1015 31.2541L11.1005 31.2563L11.1002 31.2572L10.5478 31.0229C11.0998 31.258 11.1001 31.2574 11.1002 31.2572L11.0958 31.2674L11.0915 31.2767C10.7359 32.0385 10.5449 33.1645 10.5493 34.4808C10.5536 35.786 10.7499 37.228 11.1262 38.5917C11.5833 40.2485 12.8198 41.3993 13.9051 42.0673C14.6306 39.448 15.8261 37.0381 17.3898 35.2869C20.1363 32.211 22.5259 30.5823 24.4723 29.2889L24.6291 29.1848C26.5052 27.9388 27.8539 27.043 28.8087 25.4518C30.4684 22.6856 33.4588 16.5645 34.8105 13.7143V11.2016C34.8105 11.1695 34.8131 11.1373 34.8183 11.1056C35.0659 9.57892 35.8995 7.50355 37.4964 6.11791C37.9234 5.7474 38.4643 5.69606 38.9155 5.8768C39.3551 6.05285 39.7034 6.44272 39.828 6.94131L40.8266 10.9359C41.1628 10.978 41.5607 11.0506 41.9506 11.1641C42.5011 11.3245 43.1813 11.6064 43.562 12.1267C43.8325 12.4963 44.5793 13.2412 45.5628 14.001C46.5408 14.7566 47.6863 15.4747 48.7322 15.8342C49.8393 16.2148 50.5489 16.4744 51.0165 16.7923C51.0273 16.7997 51.038 16.807 51.0485 16.8144C51.4979 16.6433 52.1479 16.52 52.4976 17.164C52.8247 17.7666 52.9004 18.6076 52.1492 19.0554ZM39.7715 24.641L15.5038 40.9902C15.3152 41.5174 15.1471 42.0595 15.0007 42.6117C15.0406 42.6264 15.0793 42.6402 15.1169 42.6529L15.5826 42.8101L14.8337 48.6456L14.3163 48.4444C14.323 48.6518 14.3333 48.8584 14.3471 49.064C14.4385 50.419 14.8288 51.4045 15.4083 52.0438C15.9767 52.671 16.7801 53.0242 17.8374 53.0242H33.5698C33.6844 53.0242 33.7842 52.9762 33.8444 52.9137C33.899 52.8569 33.9136 52.8002 33.9023 52.7409C33.8087 52.2506 33.6171 51.9605 33.2271 51.6523C33.1267 51.5729 32.8422 51.4229 32.3754 51.2369C31.9315 51.06 31.3804 50.8727 30.7993 50.7049L30.6979 50.6759C30.6598 50.6712 30.6216 50.6627 30.5838 50.6503C30.5336 50.6338 30.4824 50.6177 30.4303 50.6022C30.2035 50.5414 29.9781 50.4853 29.7582 50.4352C29.1424 50.3085 28.4494 50.2275 27.7457 50.1806L27.7378 50.1812C27.6785 50.1857 27.6204 50.1814 27.5649 50.1693C27.4224 50.161 27.2797 50.154 27.1373 50.1483C25.9024 50.0988 24.7423 50.1454 24.0598 50.2027C23.7296 50.2304 23.4394 49.9852 23.4117 49.655C23.3839 49.3248 23.6292 49.0346 23.9594 49.0069C24.6881 48.9457 25.8978 48.8976 27.1854 48.9493C27.3478 48.9558 27.5122 48.9639 27.6778 48.9739L27.7852 48.9528L27.786 48.9526C28.7652 48.7613 30.7206 48.3792 31.8099 46.8275C32.4859 45.8647 32.8941 44.6297 33.1008 43.4057C33.3072 42.1836 33.3046 41.0207 33.1956 40.2357C33.1513 39.9171 33.3662 39.6203 33.6827 39.5628C33.9992 39.5054 34.3047 39.7077 34.3753 40.0216C35.465 44.8689 36.476 47.5009 38.358 50.8903C38.3639 50.901 38.3694 50.9118 38.3747 50.9227C38.3779 50.9294 38.3809 50.9361 38.3839 50.9429C38.5565 51.3409 38.5784 51.7471 38.5816 52.0751C38.5826 52.1758 38.5821 52.2675 38.5816 52.3531C38.5804 52.5763 38.5794 52.7584 38.6056 52.951C38.6063 52.9562 38.6072 52.9573 38.6075 52.9578L38.6076 52.958C38.6086 52.9595 38.6138 52.9669 38.6286 52.9772C38.6612 53 38.7239 53.0242 38.8057 53.0242H44.1308C44.2509 53.0242 44.345 52.9701 44.3898 52.917C44.4102 52.8928 44.4153 52.8752 44.4166 52.8678C44.4174 52.8634 44.4196 52.8506 44.4075 52.8227C44.148 52.2254 43.6606 51.819 43.0955 51.554C42.5259 51.2868 41.9172 51.1838 41.5058 51.1754C41.259 51.1703 41.0404 51.0147 40.955 50.7831C38.9163 45.2528 38.4998 42.6838 39.8043 39.8987C39.8072 39.8924 39.8102 39.8862 39.8134 39.8801C40.5841 38.3723 40.9217 37.2011 41.041 36.1422C41.1611 35.0753 41.064 34.0912 40.9224 32.9227C40.8075 31.9749 40.5914 30.7525 40.3737 29.5204L40.3726 29.5144L40.3722 29.5123C40.3264 29.2528 40.2805 28.993 40.2354 28.7352C39.9821 27.2862 39.7476 25.8605 39.7476 25.0515C39.7476 24.9094 39.7559 24.7726 39.7715 24.641ZM13.6059 43.2806C13.3719 44.3594 13.2171 45.4612 13.1481 46.5564C10.7117 45.0948 8.57675 42.3966 8.20839 39.0814C7.93166 36.5909 8.09072 34.7553 8.3762 33.4065C8.64365 32.1428 9.0245 31.2903 9.29509 30.6846L9.34355 30.5759C9.34601 30.571 9.3506 30.5619 9.35701 30.5497C9.3699 30.5253 9.39016 30.4885 9.41703 30.4444C9.4723 30.3537 9.54806 30.2447 9.63676 30.1503C9.83713 29.9371 9.92851 29.9577 9.98492 29.9828C10.0557 30.0142 10.1218 30.0693 10.1037 30.3256C10.0953 30.4436 10.0682 30.5625 10.0403 30.6566C10.0268 30.7023 10.0141 30.7388 10.0054 30.7624L9.99745 30.7834C9.54172 31.7686 9.34468 33.0874 9.34931 34.4847C9.35399 35.8998 9.5657 37.4478 9.96939 38.9109C10.5764 41.1109 12.2557 42.5313 13.6059 43.2806Z"/>
</mask>
<path fill-rule="evenodd" clip-rule="evenodd" d="M38.2829 7.02427C38.3211 6.99111 38.3523 6.98076 38.3751 6.97732C38.4002 6.97355 38.4322 6.97587 38.4693 6.99075C38.5462 7.02155 38.6312 7.102 38.6638 7.23235L39.7655 11.6393C39.8293 11.8946 40.052 12.0785 40.3146 12.0929C40.6264 12.1101 41.135 12.1765 41.615 12.3163C42.1276 12.4656 42.4638 12.658 42.5936 12.8353C42.9612 13.3377 43.8097 14.1631 44.8291 14.9506C45.854 15.7424 47.1191 16.5487 48.3421 16.9691C49.5037 17.3684 50.0364 17.5771 50.3418 17.7847C50.574 17.9426 50.6707 18.0918 50.8545 18.5644C51.0277 19.01 50.9641 19.6853 50.6666 20.2882C50.3631 20.9035 49.934 21.2219 49.5754 21.2408C49.2166 21.2597 48.5971 21.254 47.8496 21.2473H47.8496L47.8494 21.2472C47.218 21.2415 46.4951 21.2349 45.7608 21.2416C44.98 21.2487 44.1998 21.2714 43.5552 21.3299C43.2334 21.3591 42.933 21.3983 42.6771 21.4523C42.4389 21.5026 42.1713 21.5787 41.9651 21.7162C41.1991 22.2269 39.9585 23.0675 39.7715 24.6409L15.5038 40.9902C16.185 39.0862 17.1329 37.3763 18.2849 36.0861C20.9297 33.1241 23.2195 31.5622 25.1365 30.2884L25.3788 30.1275C27.1816 28.9317 28.7407 27.8975 29.8377 26.0692C31.5571 23.2034 34.6352 16.8895 35.9529 14.106C35.9908 14.0257 36.0105 13.938 36.0105 13.8492V11.2511C36.2362 9.92308 36.97 8.16347 38.2829 7.02427ZM39.7715 24.641L39.7715 24.6409L42.4785 22.8173L42.4674 22.8249L39.7715 24.641ZM42.4785 22.8173L42.6172 22.7238C42.5708 22.7548 42.5245 22.7859 42.4785 22.8173ZM52.1492 19.0554C52.1632 19.6656 52.0024 20.2929 51.7428 20.8192C51.3536 21.6081 50.6269 22.3871 49.6384 22.4391C49.2562 22.4593 48.5643 22.4534 47.7667 22.4467H47.7666H47.7665H47.7664C47.1342 22.4414 46.4355 22.4355 45.7717 22.4416C45.0001 22.4486 44.2588 22.471 43.6637 22.525C43.3656 22.5521 43.1166 22.586 42.9249 22.6264C42.8294 22.6466 42.7558 22.6668 42.7017 22.6855C42.6551 22.7017 42.6344 22.7128 42.6307 22.7148L42.6303 22.715L42.6301 22.7151L42.6172 22.7238L42.4674 22.8249C41.6604 23.3755 40.9476 23.9861 40.9476 25.0515C40.9476 25.7314 41.1565 27.0353 41.4175 28.5286C41.4618 28.7818 41.5073 29.0394 41.5531 29.2984C41.7709 30.5304 41.9944 31.7947 42.1136 32.7783C42.2556 33.9495 42.3707 35.057 42.2334 36.2765C42.0955 37.5018 41.7073 38.8093 40.8867 40.4168C39.841 42.6563 40.0337 44.7452 41.9477 50.0041C42.4433 50.0598 43.0348 50.2001 43.6051 50.4675C44.3512 50.8175 45.1001 51.4053 45.5081 52.3447C45.7245 52.8429 45.6004 53.3424 45.3075 53.6901C45.0261 54.0242 44.5911 54.2242 44.1308 54.2242H38.8057C38.248 54.2242 37.5231 53.8936 37.4167 53.1132C37.3778 52.8284 37.3798 52.5251 37.3814 52.2807V52.2806V52.2805V52.2804V52.2803C37.3818 52.2104 37.3822 52.1454 37.3816 52.0869C37.3789 51.8028 37.3571 51.6053 37.2927 51.4437C35.9243 48.976 35.0008 46.8826 34.1853 44.1243C33.9362 45.2985 33.5001 46.5086 32.7921 47.5171C32.167 48.4074 31.3274 48.9901 30.5072 49.3778C30.5911 49.3998 30.6738 49.4228 30.7549 49.4468C30.8823 49.481 31.0083 49.5162 31.1322 49.552C31.7445 49.7288 32.3334 49.9284 32.8196 50.1221C33.2828 50.3067 33.7183 50.511 33.9713 50.7109C34.5652 51.1803 34.9283 51.7156 35.081 52.516C35.2723 53.5181 34.4012 54.2242 33.5698 54.2242H17.8374C16.4888 54.2242 15.345 53.7609 14.5192 52.8497C13.7043 51.9508 13.2531 50.6764 13.1499 49.1447C13.1223 48.7362 13.1082 48.3233 13.107 47.9077C10.1546 46.3692 7.45984 43.2108 7.01572 39.2139C6.72586 36.6052 6.88843 34.6405 7.20221 33.158C7.49645 31.7677 7.92121 30.8175 8.1974 30.1997L8.25098 30.0796L8.25591 30.0685C8.25587 30.0686 8.25589 30.0686 8.32362 30.1003L8.79331 30.3204L8.25591 30.0685L8.25679 30.0669L8.25779 30.0648L8.26048 30.0592L8.26858 30.0426C8.27518 30.0293 8.28421 30.0115 8.2956 29.9899C8.3183 29.9468 8.35076 29.8881 8.3924 29.8198C8.47413 29.6857 8.59849 29.5028 8.76228 29.3285C9.0669 29.0044 9.68997 28.5392 10.4714 28.8858C11.2385 29.226 11.3322 29.9652 11.3007 30.4103C11.2842 30.643 11.2341 30.8516 11.191 30.9973C11.169 31.0715 11.1477 31.133 11.1314 31.1774C11.1232 31.1997 11.1161 31.2179 11.1107 31.2314L11.1039 31.2483L11.1015 31.2541L11.1005 31.2563L11.1002 31.2572L10.5478 31.0229C11.0998 31.258 11.1001 31.2574 11.1002 31.2572L11.0958 31.2674L11.0915 31.2767C10.7359 32.0385 10.5449 33.1645 10.5493 34.4808C10.5536 35.786 10.7499 37.228 11.1262 38.5917C11.5833 40.2485 12.8198 41.3993 13.9051 42.0673C14.6306 39.448 15.8261 37.0381 17.3898 35.2869C20.1363 32.211 22.5259 30.5823 24.4723 29.2889L24.6291 29.1848C26.5052 27.9388 27.8539 27.043 28.8087 25.4518C30.4684 22.6856 33.4588 16.5645 34.8105 13.7143V11.2016C34.8105 11.1695 34.8131 11.1373 34.8183 11.1056C35.0659 9.57892 35.8995 7.50355 37.4964 6.11791C37.9234 5.7474 38.4643 5.69606 38.9155 5.8768C39.3551 6.05285 39.7034 6.44272 39.828 6.94131L40.8266 10.9359C41.1628 10.978 41.5607 11.0506 41.9506 11.1641C42.5011 11.3245 43.1813 11.6064 43.562 12.1267C43.8325 12.4963 44.5793 13.2412 45.5628 14.001C46.5408 14.7566 47.6863 15.4747 48.7322 15.8342C49.8393 16.2148 50.5489 16.4744 51.0165 16.7923C51.0273 16.7997 51.038 16.807 51.0485 16.8144C51.4979 16.6433 52.1479 16.52 52.4976 17.164C52.8247 17.7666 52.9004 18.6076 52.1492 19.0554ZM39.7715 24.641L15.5038 40.9902C15.3152 41.5174 15.1471 42.0595 15.0007 42.6117C15.0406 42.6264 15.0793 42.6402 15.1169 42.6529L15.5826 42.8101L14.8337 48.6456L14.3163 48.4444C14.323 48.6518 14.3333 48.8584 14.3471 49.064C14.4385 50.419 14.8288 51.4045 15.4083 52.0438C15.9767 52.671 16.7801 53.0242 17.8374 53.0242H33.5698C33.6844 53.0242 33.7842 52.9762 33.8444 52.9137C33.899 52.8569 33.9136 52.8002 33.9023 52.7409C33.8087 52.2506 33.6171 51.9605 33.2271 51.6523C33.1267 51.5729 32.8422 51.4229 32.3754 51.2369C31.9315 51.06 31.3804 50.8727 30.7993 50.7049L30.6979 50.6759C30.6598 50.6712 30.6216 50.6627 30.5838 50.6503C30.5336 50.6338 30.4824 50.6177 30.4303 50.6022C30.2035 50.5414 29.9781 50.4853 29.7582 50.4352C29.1424 50.3085 28.4494 50.2275 27.7457 50.1806L27.7378 50.1812C27.6785 50.1857 27.6204 50.1814 27.5649 50.1693C27.4224 50.161 27.2797 50.154 27.1373 50.1483C25.9024 50.0988 24.7423 50.1454 24.0598 50.2027C23.7296 50.2304 23.4394 49.9852 23.4117 49.655C23.3839 49.3248 23.6292 49.0346 23.9594 49.0069C24.6881 48.9457 25.8978 48.8976 27.1854 48.9493C27.3478 48.9558 27.5122 48.9639 27.6778 48.9739L27.7852 48.9528L27.786 48.9526C28.7652 48.7613 30.7206 48.3792 31.8099 46.8275C32.4859 45.8647 32.8941 44.6297 33.1008 43.4057C33.3072 42.1836 33.3046 41.0207 33.1956 40.2357C33.1513 39.9171 33.3662 39.6203 33.6827 39.5628C33.9992 39.5054 34.3047 39.7077 34.3753 40.0216C35.465 44.8689 36.476 47.5009 38.358 50.8903C38.3639 50.901 38.3694 50.9118 38.3747 50.9227C38.3779 50.9294 38.3809 50.9361 38.3839 50.9429C38.5565 51.3409 38.5784 51.7471 38.5816 52.0751C38.5826 52.1758 38.5821 52.2675 38.5816 52.3531C38.5804 52.5763 38.5794 52.7584 38.6056 52.951C38.6063 52.9562 38.6072 52.9573 38.6075 52.9578L38.6076 52.958C38.6086 52.9595 38.6138 52.9669 38.6286 52.9772C38.6612 53 38.7239 53.0242 38.8057 53.0242H44.1308C44.2509 53.0242 44.345 52.9701 44.3898 52.917C44.4102 52.8928 44.4153 52.8752 44.4166 52.8678C44.4174 52.8634 44.4196 52.8506 44.4075 52.8227C44.148 52.2254 43.6606 51.819 43.0955 51.554C42.5259 51.2868 41.9172 51.1838 41.5058 51.1754C41.259 51.1703 41.0404 51.0147 40.955 50.7831C38.9163 45.2528 38.4998 42.6838 39.8043 39.8987C39.8072 39.8924 39.8102 39.8862 39.8134 39.8801C40.5841 38.3723 40.9217 37.2011 41.041 36.1422C41.1611 35.0753 41.064 34.0912 40.9224 32.9227C40.8075 31.9749 40.5914 30.7525 40.3737 29.5204L40.3726 29.5144L40.3722 29.5123C40.3264 29.2528 40.2805 28.993 40.2354 28.7352C39.9821 27.2862 39.7476 25.8605 39.7476 25.0515C39.7476 24.9094 39.7559 24.7726 39.7715 24.641ZM13.6059 43.2806C13.3719 44.3594 13.2171 45.4612 13.1481 46.5564C10.7117 45.0948 8.57675 42.3966 8.20839 39.0814C7.93166 36.5909 8.09072 34.7553 8.3762 33.4065C8.64365 32.1428 9.0245 31.2903 9.29509 30.6846L9.34355 30.5759C9.34601 30.571 9.3506 30.5619 9.35701 30.5497C9.3699 30.5253 9.39016 30.4885 9.41703 30.4444C9.4723 30.3537 9.54806 30.2447 9.63676 30.1503C9.83713 29.9371 9.92851 29.9577 9.98492 29.9828C10.0557 30.0142 10.1218 30.0693 10.1037 30.3256C10.0953 30.4436 10.0682 30.5625 10.0403 30.6566C10.0268 30.7023 10.0141 30.7388 10.0054 30.7624L9.99745 30.7834C9.54172 31.7686 9.34468 33.0874 9.34931 34.4847C9.35399 35.8998 9.5657 37.4478 9.96939 38.9109C10.5764 41.1109 12.2557 42.5313 13.6059 43.2806Z" fill="#F8F9FA"/>
<path d="M43.0363 23.3458C43.3798 23.1144 43.4707 22.6483 43.2392 22.3047C43.0078 21.9612 42.5417 21.8703 42.1982 22.1018L43.0363 23.3458ZM42.0594 22.1952C41.7159 22.4267 41.625 22.8928 41.8565 23.2363C42.0879 23.5798 42.554 23.6707 42.8975 23.4393L42.0594 22.1952ZM43.0498 23.3368C43.3933 23.1054 43.4842 22.6393 43.2527 22.2957C43.0213 21.9522 42.5552 21.8614 42.2117 22.0928L43.0498 23.3368ZM15.0848 40.3682C14.7413 40.5996 14.6504 41.0657 14.8818 41.4092C15.1133 41.7527 15.5794 41.8436 15.9229 41.6122L15.0848 40.3682ZM42.1982 22.1018L42.0594 22.1952L42.8975 23.4393L43.0363 23.3458L42.1982 22.1018ZM42.2117 22.0928L15.0848 40.3682L15.9229 41.6122L43.0498 23.3368L42.2117 22.0928ZM38.3751 6.97732L38.598 8.46068L38.598 8.46068L38.3751 6.97732ZM38.2829 7.02427L39.2659 8.15722L39.2659 8.15721L38.2829 7.02427ZM38.4693 6.99075L37.9115 8.38319L37.9116 8.3832L38.4693 6.99075ZM38.6638 7.23235L40.119 6.86856L40.119 6.86856L38.6638 7.23235ZM39.7655 11.6393L41.2208 11.2756L41.2208 11.2755L39.7655 11.6393ZM40.3146 12.0929L40.2322 13.5906L40.2322 13.5906L40.3146 12.0929ZM41.615 12.3163L41.1957 13.7565L41.1957 13.7565L41.615 12.3163ZM42.5936 12.8353L41.3831 13.7212L41.3831 13.7212L42.5936 12.8353ZM44.8291 14.9506L43.9121 16.1377L43.9121 16.1377L44.8291 14.9506ZM48.3421 16.9691L47.8544 18.3876L47.8544 18.3876L48.3421 16.9691ZM50.3418 17.7847L51.1851 16.5442L51.1851 16.5442L50.3418 17.7847ZM50.8545 18.5644L49.4564 19.1079L49.4564 19.1079L50.8545 18.5644ZM50.6666 20.2882L52.0118 20.9519L52.0118 20.9519L50.6666 20.2882ZM49.5754 21.2408L49.4965 19.7429L49.4965 19.7429L49.5754 21.2408ZM47.8496 21.2473L47.8633 19.7473H47.8496V21.2473ZM47.8496 21.2473L47.8228 22.747C47.8317 22.7472 47.8407 22.7473 47.8496 22.7473V21.2473ZM47.8494 21.2472L47.8762 19.7474L47.8631 19.7473L47.8494 21.2472ZM45.7608 21.2416L45.7745 22.7416L45.7745 22.7416L45.7608 21.2416ZM43.5552 21.3299L43.4196 19.8361L43.4196 19.8361L43.5552 21.3299ZM42.6771 21.4523L42.3673 19.9847L42.3673 19.9847L42.6771 21.4523ZM41.9651 21.7162L41.133 20.4682L41.133 20.4682L41.9651 21.7162ZM18.2849 36.0861L19.4038 37.0852L19.4038 37.0852L18.2849 36.0861ZM25.1365 30.2884L24.307 29.0386L24.3063 29.0391L25.1365 30.2884ZM25.3788 30.1275L24.5497 28.8775L24.5493 28.8777L25.3788 30.1275ZM29.8377 26.0692L31.1239 26.8409L31.1239 26.8409L29.8377 26.0692ZM35.9529 14.106L34.5971 13.4642L34.5971 13.4642L35.9529 14.106ZM36.0105 11.2511L34.5317 10.9998C34.5176 11.0828 34.5105 11.1669 34.5105 11.2511H36.0105ZM52.1492 19.0554L51.3811 17.767C50.9166 18.0439 50.6371 18.5494 50.6496 19.09L52.1492 19.0554ZM51.7428 20.8192L50.3976 20.1555L50.3976 20.1555L51.7428 20.8192ZM49.6384 22.4391L49.5596 20.9412L49.5596 20.9412L49.6384 22.4391ZM47.7667 22.4467L47.7793 20.9467H47.7667V22.4467ZM47.7664 22.4467L47.7538 23.9467H47.7664V22.4467ZM45.7717 22.4416L45.7581 20.9416L45.7581 20.9416L45.7717 22.4416ZM43.6637 22.525L43.7992 24.0189L43.7992 24.0189L43.6637 22.525ZM42.9249 22.6264L43.2347 24.0941L43.2347 24.0941L42.9249 22.6264ZM42.7017 22.6855L43.1923 24.103L43.1924 24.103L42.7017 22.6855ZM42.6307 22.7148L41.9194 21.3942L41.9174 21.3952L42.6307 22.7148ZM42.6303 22.715L43.2769 24.0685C43.2994 24.0577 43.3216 24.0464 43.3436 24.0346L42.6303 22.715ZM42.6301 22.7151L41.9835 21.3617C41.917 21.3934 41.853 21.43 41.792 21.4711L42.6301 22.7151ZM41.4175 28.5286L39.9399 28.7869L39.9399 28.7869L41.4175 28.5286ZM41.5531 29.2984L43.0302 29.0372L43.0302 29.0372L41.5531 29.2984ZM42.1136 32.7783L43.6027 32.5978L43.6027 32.5978L42.1136 32.7783ZM42.2334 36.2765L43.724 36.4443L43.724 36.4443L42.2334 36.2765ZM40.8867 40.4168L39.5507 39.7348C39.5428 39.7504 39.535 39.7662 39.5276 39.7821L40.8867 40.4168ZM41.9477 50.0041L40.5381 50.5171C40.7329 51.0524 41.2141 51.4311 41.7802 51.4947L41.9477 50.0041ZM43.6051 50.4675L44.2421 49.1095L44.2421 49.1095L43.6051 50.4675ZM45.5081 52.3447L46.8839 51.747L46.8839 51.747L45.5081 52.3447ZM45.3075 53.6901L46.4547 54.6566L46.4547 54.6566L45.3075 53.6901ZM37.4167 53.1132L38.9029 52.9105L38.9029 52.9105L37.4167 53.1132ZM37.3814 52.2807L38.8814 52.2903V52.2807H37.3814ZM37.3814 52.2803L35.8814 52.2705V52.2803H37.3814ZM37.3816 52.0869L35.8817 52.1017L35.8817 52.1017L37.3816 52.0869ZM37.2927 51.4437L38.6861 50.8884C38.6625 50.8294 38.6353 50.7719 38.6045 50.7163L37.2927 51.4437ZM34.1853 44.1243L35.6238 43.699C35.4291 43.0407 34.8125 42.5986 34.1265 42.6255C33.4406 42.6524 32.8605 43.1415 32.718 43.813L34.1853 44.1243ZM32.7921 47.5171L31.5644 46.6552L31.5644 46.6552L32.7921 47.5171ZM30.5072 49.3778L29.8661 48.0217C29.2959 48.2913 28.9552 48.8888 29.0137 49.5169C29.0721 50.1449 29.5172 50.6693 30.1274 50.829L30.5072 49.3778ZM30.7549 49.4468L30.3293 50.8851C30.3413 50.8887 30.3532 50.892 30.3653 50.8953L30.7549 49.4468ZM31.1322 49.552L31.5484 48.1109L31.5484 48.1109L31.1322 49.552ZM32.8196 50.1221L32.2643 51.5156L32.2643 51.5156L32.8196 50.1221ZM33.9713 50.7109L33.0411 51.8877L33.0411 51.8877L33.9713 50.7109ZM35.081 52.516L36.5544 52.2348L36.5544 52.2348L35.081 52.516ZM14.5192 52.8497L13.4078 53.8571L13.4078 53.8571L14.5192 52.8497ZM13.1499 49.1447L14.6465 49.0438L14.6465 49.0438L13.1499 49.1447ZM13.107 47.9077L14.607 47.9035C14.6055 47.3459 14.2947 46.8351 13.8002 46.5774L13.107 47.9077ZM7.01572 39.2139L8.50655 39.0482L8.50655 39.0482L7.01572 39.2139ZM7.20221 33.158L5.73471 32.8474L5.73471 32.8474L7.20221 33.158ZM8.1974 30.1997L9.56681 30.8118L9.56723 30.8109L8.1974 30.1997ZM8.25098 30.0796L9.62081 30.6908L9.62168 30.6888L8.25098 30.0796ZM8.25591 30.0685L6.94477 29.3398C6.92881 29.3686 6.9138 29.3978 6.89976 29.4275L8.25591 30.0685ZM8.32362 30.1003L8.96019 28.7421L8.95995 28.742L8.32362 30.1003ZM8.79331 30.3204L8.15673 31.6787C8.90682 32.0302 9.79988 31.7072 10.1515 30.9571C10.5031 30.2071 10.1801 29.314 9.43009 28.9623L8.79331 30.3204ZM8.25679 30.0669L9.56793 30.7955C9.58365 30.7672 9.59846 30.7384 9.61232 30.7092L8.25679 30.0669ZM8.25779 30.0648L6.90484 29.4171L6.90226 29.4225L8.25779 30.0648ZM8.26048 30.0592L6.91306 29.3999L6.90753 29.4115L8.26048 30.0592ZM8.26858 30.0426L6.92471 29.3762L6.92121 29.3834L8.26858 30.0426ZM8.2956 29.9899L6.96885 29.2901L6.96884 29.2901L8.2956 29.9899ZM8.3924 29.8198L7.11161 29.039L7.11161 29.039L8.3924 29.8198ZM8.76228 29.3285L9.85538 30.3557L9.85538 30.3557L8.76228 29.3285ZM10.4714 28.8858L9.86329 30.257L9.86329 30.257L10.4714 28.8858ZM11.3007 30.4103L12.7969 30.5163L12.7969 30.5163L11.3007 30.4103ZM11.191 30.9973L12.6293 31.423L12.6293 31.423L11.191 30.9973ZM11.1314 31.1774L12.5388 31.6962L12.5388 31.6962L11.1314 31.1774ZM11.1107 31.2314L12.5009 31.7949L12.504 31.7871L11.1107 31.2314ZM11.1039 31.2483L12.4889 31.8244L12.494 31.8118L11.1039 31.2483ZM11.1015 31.2541L12.4842 31.8355L12.4865 31.8301L11.1015 31.2541ZM11.1005 31.2563L12.4813 31.8423L12.4833 31.8377L11.1005 31.2563ZM11.1002 31.2572L12.4808 31.8436L12.4809 31.8432L11.1002 31.2572ZM10.5478 31.0229L11.1334 29.642C10.3712 29.3187 9.49111 29.6742 9.16727 30.4363C8.84342 31.1983 9.1983 32.0786 9.9601 32.403L10.5478 31.0229ZM11.0958 31.2674L12.455 31.9018C12.4623 31.8863 12.4693 31.8707 12.476 31.8549L11.0958 31.2674ZM11.0915 31.2767L9.73225 30.6423L9.73222 30.6423L11.0915 31.2767ZM10.5493 34.4808L9.04931 34.4857L9.04931 34.4857L10.5493 34.4808ZM11.1262 38.5917L9.6802 38.9907L9.6802 38.9907L11.1262 38.5917ZM13.9051 42.0673L13.1188 43.3447C13.5204 43.5918 14.0148 43.6358 14.4537 43.4633C14.8925 43.2909 15.2248 42.9221 15.3506 42.4677L13.9051 42.0673ZM17.3898 35.2869L16.2709 34.2878L16.2709 34.2878L17.3898 35.2869ZM24.4723 29.2889L23.6423 28.0395L23.6421 28.0396L24.4723 29.2889ZM24.6291 29.1848L23.7992 27.9352L23.7991 27.9353L24.6291 29.1848ZM28.8087 25.4518L27.5225 24.68L27.5225 24.68L28.8087 25.4518ZM34.8105 13.7143L36.1658 14.3571C36.2611 14.1562 36.3105 13.9366 36.3105 13.7143H34.8105ZM34.8183 11.1056L36.2989 11.3457L36.2989 11.3457L34.8183 11.1056ZM37.4964 6.11791L36.5133 4.98495L36.5133 4.98495L37.4964 6.11791ZM38.9155 5.8768L38.3578 7.26924L38.3578 7.26924L38.9155 5.8768ZM39.828 6.94131L41.2832 6.57752L41.2832 6.57752L39.828 6.94131ZM40.8266 10.9359L39.3714 11.2997C39.5216 11.9007 40.0258 12.3475 40.6405 12.4243L40.8266 10.9359ZM41.9506 11.1641L41.5312 12.6043L41.5312 12.6043L41.9506 11.1641ZM43.562 12.1267L42.3515 13.0125L42.3515 13.0125L43.562 12.1267ZM45.5628 14.001L44.6457 15.1881L44.6457 15.1881L45.5628 14.001ZM48.7322 15.8342L49.2198 14.4157L49.2198 14.4157L48.7322 15.8342ZM51.0165 16.7923L51.8598 15.5519L51.8598 15.5518L51.0165 16.7923ZM51.0485 16.8144L50.1868 18.0422C50.5943 18.3282 51.1171 18.3934 51.5823 18.2163L51.0485 16.8144ZM52.4976 17.164L51.1793 17.8797L51.1793 17.8797L52.4976 17.164ZM15.0007 42.6117L13.5508 42.2273C13.3528 42.9742 13.7546 43.7493 14.4791 44.018L15.0007 42.6117ZM15.1169 42.6529L14.637 44.074L14.6371 44.0741L15.1169 42.6529ZM15.5826 42.8101L17.0704 43.0011C17.1614 42.2921 16.7396 41.6175 16.0624 41.3889L15.5826 42.8101ZM14.8337 48.6456L14.29 50.0436C14.7201 50.2108 15.2032 50.1708 15.5999 49.9351C15.9966 49.6994 16.2627 49.2942 16.3215 48.8365L14.8337 48.6456ZM14.3163 48.4444L14.86 47.0464C14.3905 46.8638 13.8607 46.9291 13.4496 47.2202C13.0384 47.5113 12.8009 47.9893 12.8171 48.4928L14.3163 48.4444ZM14.3471 49.064L15.8437 48.9631L15.8437 48.9631L14.3471 49.064ZM15.4083 52.0438L14.2969 53.0512L14.2969 53.0512L15.4083 52.0438ZM33.8444 52.9137L34.925 53.954L34.925 53.954L33.8444 52.9137ZM33.9023 52.7409L32.4289 53.0221L32.4289 53.0221L33.9023 52.7409ZM33.2271 51.6523L32.297 52.8291L32.297 52.8291L33.2271 51.6523ZM32.3754 51.2369L31.8201 52.6304L31.8201 52.6304L32.3754 51.2369ZM30.7993 50.7049L31.2154 49.2638L31.2117 49.2627L30.7993 50.7049ZM30.6979 50.6759L31.1103 49.2337C31.0357 49.2124 30.9596 49.1969 30.8826 49.1873L30.6979 50.6759ZM30.5838 50.6503L31.0523 49.2253L31.0522 49.2253L30.5838 50.6503ZM30.4303 50.6022L30.86 49.165C30.8463 49.1609 30.8326 49.157 30.8187 49.1533L30.4303 50.6022ZM29.7582 50.4352L30.0914 48.9727C30.0811 48.9703 30.0708 48.9681 30.0604 48.966L29.7582 50.4352ZM27.7457 50.1806L27.8455 48.6839C27.7756 48.6793 27.7054 48.6795 27.6355 48.6847L27.7457 50.1806ZM27.7378 50.1812L27.6276 48.6852L27.6246 48.6855L27.7378 50.1812ZM27.5649 50.1693L27.8835 48.7035C27.8074 48.687 27.7301 48.6764 27.6524 48.6719L27.5649 50.1693ZM27.1373 50.1483L27.0772 51.6471L27.0772 51.6471L27.1373 50.1483ZM24.0598 50.2027L24.1853 51.6974L24.1853 51.6974L24.0598 50.2027ZM23.4117 49.655L24.9064 49.5295L24.9064 49.5295L23.4117 49.655ZM23.9594 49.0069L24.0849 50.5016L24.0849 50.5016L23.9594 49.0069ZM27.1854 48.9493L27.1253 50.4481L27.1253 50.4481L27.1854 48.9493ZM27.6778 48.9739L27.5877 50.4712C27.7145 50.4788 27.8418 50.4703 27.9664 50.4458L27.6778 48.9739ZM27.7852 48.9528L28.0739 50.4248L28.0794 50.4237L27.7852 48.9528ZM27.786 48.9526L27.4983 47.4805L27.4918 47.4818L27.786 48.9526ZM31.8099 46.8275L33.0376 47.6895L33.0376 47.6895L31.8099 46.8275ZM33.1008 43.4057L34.5798 43.6555L34.5798 43.6555L33.1008 43.4057ZM33.1956 40.2357L31.7099 40.4421L31.7099 40.4421L33.1956 40.2357ZM34.3753 40.0216L32.9118 40.3506L32.9118 40.3506L34.3753 40.0216ZM38.358 50.8903L37.0465 51.6185L37.0467 51.6187L38.358 50.8903ZM38.3747 50.9227L37.0214 51.5697L37.0215 51.5699L38.3747 50.9227ZM38.3839 50.9429L37.0077 51.5396L37.0077 51.5397L38.3839 50.9429ZM38.5816 52.0751L40.0815 52.0604L40.0815 52.0604L38.5816 52.0751ZM38.5816 52.3531L37.0816 52.3449L37.0816 52.3449L38.5816 52.3531ZM38.6056 52.951L37.1194 53.1537L37.1194 53.1539L38.6056 52.951ZM38.6075 52.9578L39.8396 52.1022C39.8369 52.0983 39.8341 52.0944 39.8314 52.0906L38.6075 52.9578ZM38.6076 52.958L39.8674 52.1437C39.8584 52.1298 39.8491 52.116 39.8397 52.1024L38.6076 52.958ZM38.6286 52.9772L37.7702 54.2074L37.7704 54.2075L38.6286 52.9772ZM44.3898 52.917L43.2427 51.9504L43.2426 51.9505L44.3898 52.917ZM44.4166 52.8678L45.8943 53.1255L45.8946 53.1243L44.4166 52.8678ZM44.4075 52.8227L45.7833 52.2252L45.7833 52.2251L44.4075 52.8227ZM43.0955 51.554L42.4586 52.912L42.4586 52.912L43.0955 51.554ZM41.5058 51.1754L41.4751 52.6751L41.4752 52.6751L41.5058 51.1754ZM40.955 50.7831L39.5476 51.3019L39.5476 51.3019L40.955 50.7831ZM39.8043 39.8987L41.1627 40.5349L41.1627 40.5348L39.8043 39.8987ZM39.8134 39.8801L41.1488 40.5631L41.149 40.5628L39.8134 39.8801ZM41.041 36.1422L39.5504 35.9744L39.5504 35.9744L41.041 36.1422ZM40.9224 32.9227L42.4115 32.7422L42.4115 32.7422L40.9224 32.9227ZM40.3737 29.5204L41.8508 29.2594L41.8507 29.259L40.3737 29.5204ZM40.3726 29.5144L41.8497 29.253L41.8492 29.2503L40.3726 29.5144ZM40.3722 29.5123L38.8951 29.7733L38.8957 29.7764L40.3722 29.5123ZM40.2354 28.7352L38.7578 28.9935L38.7578 28.9935L40.2354 28.7352ZM13.1481 46.5564L12.3765 47.8427C12.8254 48.1121 13.3823 48.1278 13.8458 47.8843C14.3093 47.6408 14.6122 47.1733 14.6452 46.6508L13.1481 46.5564ZM13.6059 43.2806L15.0718 43.5984C15.212 42.9519 14.9121 42.2899 14.3337 41.969L13.6059 43.2806ZM8.20839 39.0814L9.69921 38.9157L8.20839 39.0814ZM8.3762 33.4065L9.84369 33.717L9.84369 33.717L8.3762 33.4065ZM9.29509 30.6846L10.6646 31.2964L10.665 31.2957L9.29509 30.6846ZM9.34355 30.5759L7.99972 29.9095C7.99066 29.9278 7.98198 29.9462 7.97367 29.9648L9.34355 30.5759ZM9.35701 30.5497L10.6838 31.2495L10.6838 31.2495L9.35701 30.5497ZM9.41703 30.4444L10.6978 31.2252L10.6978 31.2252L9.41703 30.4444ZM9.63676 30.1503L10.7299 31.1775L10.7299 31.1775L9.63676 30.1503ZM9.98492 29.9828L10.5931 28.6116L10.5931 28.6116L9.98492 29.9828ZM10.1037 30.3256L8.60742 30.2196L8.60742 30.2196L10.1037 30.3256ZM10.0403 30.6566L11.4786 31.0824L11.4786 31.0824L10.0403 30.6566ZM10.0054 30.7624L11.4078 31.2946C11.4095 31.2901 11.4112 31.2857 11.4129 31.2812L10.0054 30.7624ZM9.99745 30.7834L11.3588 31.4132C11.3737 31.3812 11.3873 31.3487 11.3999 31.3157L9.99745 30.7834ZM9.34931 34.4847L10.8493 34.4798L10.8493 34.4798L9.34931 34.4847ZM9.96939 38.9109L11.4154 38.5119L11.4154 38.5119L9.96939 38.9109ZM38.1523 5.49396C37.8427 5.54047 37.549 5.67509 37.2998 5.89132L39.2659 8.15721C39.1895 8.22354 39.09 8.29283 38.9661 8.3503C38.8393 8.40916 38.7134 8.44334 38.598 8.46068L38.1523 5.49396ZM39.0271 5.59831C38.7585 5.49071 38.4577 5.4481 38.1523 5.49396L38.598 8.46068C38.3428 8.49901 38.1058 8.46102 37.9115 8.38319L39.0271 5.59831ZM40.119 6.86856C39.9711 6.27682 39.5562 5.81026 39.0271 5.5983L37.9116 8.3832C37.5362 8.23284 37.2914 7.92717 37.2086 7.59614L40.119 6.86856ZM41.2208 11.2755L40.119 6.86856L37.2086 7.59614L38.3103 12.0031L41.2208 11.2755ZM40.3971 10.5952C40.7911 10.6169 41.1251 10.8927 41.2208 11.2756L38.3103 12.0031C38.5336 12.8964 39.3128 13.54 40.2322 13.5906L40.3971 10.5952ZM42.0344 10.8761C41.4256 10.6988 40.8012 10.6174 40.3971 10.5952L40.2322 13.5906C40.4515 13.6027 40.8445 13.6542 41.1957 13.7565L42.0344 10.8761ZM43.8041 11.9495C43.5517 11.6046 43.2161 11.3837 42.9618 11.246C42.6824 11.0949 42.3666 10.9728 42.0344 10.8761L41.1957 13.7565C41.3761 13.809 41.4846 13.8578 41.534 13.8845C41.5578 13.8974 41.5541 13.8978 41.5324 13.8808C41.5138 13.8662 41.4524 13.8159 41.3831 13.7212L43.8041 11.9495ZM45.7462 13.7636C44.7718 13.0109 44.0504 12.286 43.8041 11.9495L41.3831 13.7212C41.8721 14.3893 42.8476 15.3153 43.9121 16.1377L45.7462 13.7636ZM48.8297 15.5505C47.8281 15.2062 46.7124 14.5101 45.7462 13.7636L43.9121 16.1377C44.9957 16.9748 46.4101 17.8911 47.8544 18.3876L48.8297 15.5505ZM51.1851 16.5442C50.6763 16.1983 49.9201 15.9254 48.8297 15.5505L47.8544 18.3876C48.4334 18.5866 48.8241 18.7275 49.1006 18.8393C49.3841 18.954 49.4777 19.011 49.4986 19.0252L51.1851 16.5442ZM52.2525 18.0209C52.158 17.7776 52.0405 17.4928 51.8706 17.2338C51.6652 16.9207 51.4293 16.7102 51.1851 16.5442L49.4985 19.0252C49.5055 19.0299 49.481 19.014 49.4457 18.9795C49.4283 18.9625 49.4116 18.9442 49.3962 18.9254C49.3809 18.9067 49.3696 18.8907 49.3621 18.8793C49.3483 18.8582 49.3506 18.8574 49.3692 18.8975C49.3782 18.9168 49.3898 18.9431 49.4047 18.9788C49.4195 19.0143 49.4365 19.0567 49.4564 19.1079L52.2525 18.0209ZM52.0118 20.9519C52.4327 20.0988 52.6229 18.9735 52.2525 18.0209L49.4564 19.1079C49.4342 19.0509 49.4591 19.0787 49.4452 19.211C49.4326 19.3312 49.3931 19.4793 49.3214 19.6246L52.0118 20.9519ZM49.6542 22.7387C50.792 22.6788 51.5959 21.795 52.0118 20.9519L49.3214 19.6245C49.2846 19.6991 49.2502 19.7521 49.2235 19.7874C49.2102 19.8048 49.1993 19.8173 49.1915 19.8256C49.1837 19.8339 49.1795 19.8374 49.1796 19.8373C49.1796 19.8373 49.1848 19.833 49.1956 19.8261C49.2064 19.8193 49.224 19.8092 49.2487 19.7983C49.2971 19.7769 49.381 19.7489 49.4965 19.7429L49.6542 22.7387ZM47.836 22.7472C48.5567 22.7537 49.2367 22.7607 49.6542 22.7387L49.4965 19.7429C49.1965 19.7587 48.6376 19.7543 47.8632 19.7473L47.836 22.7472ZM47.8496 22.7473H47.8496V19.7473H47.8496V22.7473ZM47.8226 22.747L47.8228 22.747L47.8764 19.7475L47.8762 19.7475L47.8226 22.747ZM45.7745 22.7416C46.4931 22.735 47.2027 22.7414 47.8358 22.7472L47.8631 19.7473C47.2333 19.7416 46.4972 19.7349 45.7472 19.7417L45.7745 22.7416ZM43.6908 22.8238C44.2735 22.7709 45.0051 22.7486 45.7745 22.7416L45.7472 19.7417C44.9548 19.7489 44.126 19.772 43.4196 19.8361L43.6908 22.8238ZM42.9869 22.92C43.1626 22.8829 43.3987 22.8503 43.6908 22.8238L43.4196 19.8361C43.0682 19.868 42.7034 19.9137 42.3673 19.9847L42.9869 22.92ZM42.7971 22.9643C42.7629 22.9871 42.7566 22.984 42.801 22.9686C42.8428 22.9541 42.9029 22.9377 42.9869 22.92L42.3673 19.9847C42.0911 20.043 41.5881 20.1648 41.133 20.4682L42.7971 22.9643ZM41.2611 24.8179C41.3574 24.0069 41.9817 23.5079 42.7971 22.9643L41.133 20.4682C40.4164 20.9459 38.5596 22.1281 38.282 24.4639L41.2611 24.8179ZM38.9334 23.3969L14.6657 39.7461L16.3419 42.2342L40.6096 25.885L38.9334 23.3969ZM17.166 35.087C15.8561 36.5541 14.8212 38.4453 14.0915 40.4849L16.9162 41.4954C17.5488 39.727 18.4097 38.1985 19.4038 37.0852L17.166 35.087ZM24.3063 29.0391C22.3526 30.3373 19.938 31.9827 17.166 35.087L19.4038 37.0852C21.9215 34.2655 24.0865 32.7871 25.9667 31.5377L24.3063 29.0391ZM24.5493 28.8777L24.307 29.0386L25.966 31.5381L26.2083 31.3773L24.5493 28.8777ZM28.5514 25.2974C27.6546 26.7922 26.3889 27.6575 24.5497 28.8775L26.208 31.3775C27.9743 30.2059 29.8268 29.0028 31.1239 26.8409L28.5514 25.2974ZM34.5971 13.4642C33.2733 16.2607 30.2263 22.506 28.5514 25.2974L31.1239 26.8409C32.888 23.9008 35.9971 17.5184 37.3086 14.7477L34.5971 13.4642ZM34.5105 13.8492C34.5105 13.7161 34.5401 13.5845 34.5971 13.4642L37.3086 14.7478C37.4416 14.4669 37.5105 14.16 37.5105 13.8492H34.5105ZM34.5105 11.2511V13.8492H37.5105V11.2511H34.5105ZM37.2998 5.89132C35.6544 7.31907 34.7978 9.43385 34.5317 10.9998L37.4894 11.5023C37.6745 10.4123 38.2856 9.00787 39.2659 8.15722L37.2998 5.89132ZM41.2589 24.835L41.2589 24.835L38.2841 24.4469L38.2841 24.447L41.2589 24.835ZM41.6404 21.5732L38.9334 23.3969L40.6096 25.885L43.3166 24.0613L41.6404 21.5732ZM43.3124 24.0642L43.3235 24.0566L41.6335 21.5779L41.6223 21.5855L43.3124 24.0642ZM40.6096 25.8851L43.3054 24.0689L41.6293 21.5808L38.9334 23.397L40.6096 25.8851ZM43.3166 24.0613L43.4553 23.9678L41.7791 21.4798L41.6404 21.5732L43.3166 24.0613ZM41.7845 21.4762C41.7351 21.5091 41.6848 21.5429 41.6341 21.5775L43.3229 24.057C43.3641 24.0289 43.4064 24.0005 43.45 23.9714L41.7845 21.4762ZM50.6496 19.09C50.6574 19.4279 50.5646 19.817 50.3976 20.1555L53.088 21.4828C53.4403 20.7687 53.6691 19.9032 53.6488 19.0209L50.6496 19.09ZM50.3976 20.1555C50.2744 20.4052 50.1123 20.6199 49.9456 20.7611C49.7876 20.895 49.6614 20.9358 49.5596 20.9412L49.7173 23.9371C51.4972 23.8434 52.5946 22.4829 53.088 21.4828L50.3976 20.1555ZM49.5596 20.9412C49.2355 20.9583 48.6043 20.9537 47.7793 20.9468L47.7541 23.9467C48.5244 23.9532 49.2768 23.9602 49.7173 23.9371L49.5596 20.9412ZM47.7667 20.9467H47.7666V23.9467H47.7667V20.9467ZM47.7666 20.9467H47.7665V23.9467H47.7666V20.9467ZM47.7665 20.9467H47.7664V23.9467H47.7665V20.9467ZM47.779 20.9468C47.1492 20.9415 46.4372 20.9355 45.7581 20.9416L45.7854 23.9415C46.4337 23.9356 47.1192 23.9413 47.7538 23.9467L47.779 20.9468ZM45.7581 20.9416C44.975 20.9488 44.1851 20.9715 43.5281 21.0312L43.7992 24.0189C44.3325 23.9705 45.0251 23.9484 45.7854 23.9415L45.7581 20.9416ZM43.5281 21.0312C43.2005 21.0609 42.8871 21.1014 42.6151 21.1588L43.2347 24.0941C43.3461 24.0706 43.5307 24.0432 43.7992 24.0189L43.5281 21.0312ZM42.6151 21.1588C42.4787 21.1876 42.3411 21.223 42.211 21.2681L43.1924 24.103C43.1794 24.1075 43.176 24.1081 43.1849 24.1057C43.1932 24.1035 43.2094 24.0994 43.2347 24.0941L42.6151 21.1588ZM42.211 21.2681C42.0853 21.3116 41.991 21.3556 41.9194 21.3942L43.342 24.0354C43.3422 24.0353 43.3398 24.0366 43.3369 24.0382C43.3338 24.0398 43.3303 24.0417 43.3264 24.0437C43.3185 24.0478 43.3104 24.0519 43.302 24.0561C43.2852 24.0644 43.2696 24.0717 43.2552 24.078C43.2267 24.0906 43.2051 24.0986 43.1923 24.103L42.211 21.2681ZM41.9174 21.3952L41.917 21.3955L43.3436 24.0346L43.344 24.0344L41.9174 21.3952ZM41.9836 21.3616L41.9835 21.3617L43.2768 24.0686L43.2769 24.0685L41.9836 21.3616ZM41.792 21.4711L41.7791 21.4798L43.4553 23.9678L43.4682 23.9591L41.792 21.4711ZM41.7786 21.4801L41.6287 21.5812L43.306 24.0685L43.4558 23.9675L41.7786 21.4801ZM41.6218 21.5859C40.7988 22.1475 39.4476 23.1535 39.4476 25.0515H42.4476C42.4476 24.8955 42.4864 24.7964 42.5837 24.6727C42.7132 24.5082 42.9315 24.3241 43.3129 24.0638L41.6218 21.5859ZM39.4476 25.0515C39.4476 25.8929 39.6887 27.3499 39.9399 28.7869L42.8951 28.2703C42.6242 26.7207 42.4476 25.5698 42.4476 25.0515H39.4476ZM39.9399 28.7869C39.9845 29.0418 40.0302 29.3008 40.076 29.5595L43.0302 29.0372C42.9843 28.778 42.9391 28.5219 42.8951 28.2703L39.9399 28.7869ZM40.076 29.5595C40.2963 30.8055 40.5113 32.0246 40.6245 32.9588L43.6027 32.5978C43.4775 31.5648 43.2455 30.2553 43.0302 29.0372L40.076 29.5595ZM40.6245 32.9588C40.7661 34.1262 40.8587 35.0797 40.7428 36.1087L43.724 36.4443C43.8827 35.0343 43.7452 33.7727 43.6027 32.5978L40.6245 32.9588ZM40.7428 36.1087C40.6286 37.1233 40.305 38.2573 39.5507 39.7348L42.2227 41.0988C43.1097 39.3613 43.5623 37.8802 43.724 36.4443L40.7428 36.1087ZM39.5276 39.7821C38.2009 42.6234 38.6195 45.2456 40.5381 50.5171L43.3572 49.4911C41.4478 44.2447 41.4811 42.6892 42.2458 41.0514L39.5276 39.7821ZM41.7802 51.4947C42.1403 51.5352 42.5689 51.6383 42.9682 51.8256L44.2421 49.1095C43.5007 48.7618 42.7463 48.5844 42.1152 48.5135L41.7802 51.4947ZM42.9682 51.8256C43.4887 52.0697 43.9102 52.431 44.1323 52.9423L46.8839 51.747C46.29 50.3797 45.2137 49.5652 44.2421 49.1095L42.9682 51.8256ZM44.1323 52.9423C44.1285 52.9335 44.1223 52.9153 44.1193 52.8894C44.1163 52.8639 44.1173 52.838 44.1215 52.8139C44.1298 52.767 44.1479 52.7385 44.1603 52.7237L46.4547 54.6566C47.0696 53.9267 47.3539 52.829 46.8839 51.747L44.1323 52.9423ZM44.1603 52.7237C44.1696 52.7127 44.1729 52.7135 44.1645 52.7174C44.1563 52.7211 44.1443 52.7242 44.1308 52.7242V55.7242C45.0157 55.7242 45.877 55.3423 46.4547 54.6566L44.1603 52.7237ZM44.1308 52.7242H38.8057V55.7242H44.1308V52.7242ZM38.8057 52.7242C38.8105 52.7242 38.802 52.7243 38.7884 52.7204C38.7755 52.7166 38.7756 52.7143 38.7871 52.7221C38.8003 52.7311 38.8291 52.7545 38.8572 52.7975C38.8874 52.8439 38.8998 52.8875 38.9029 52.9105L35.9304 53.3158C36.1779 55.1308 37.835 55.7242 38.8057 55.7242V52.7242ZM38.9029 52.9105C38.8808 52.7487 38.8796 52.5518 38.8813 52.2903L35.8814 52.271C35.8799 52.4985 35.8748 52.9081 35.9304 53.3159L38.9029 52.9105ZM38.8814 52.2807V52.2806H35.8814V52.2807H38.8814ZM38.8814 52.2806V52.2805H35.8814V52.2806H38.8814ZM38.8814 52.2805V52.2804H35.8814V52.2805H38.8814ZM38.8814 52.2804V52.2803H35.8814V52.2804H38.8814ZM38.8813 52.29C38.8818 52.2234 38.8823 52.1452 38.8816 52.0721L35.8817 52.1017C35.8822 52.1455 35.8819 52.1975 35.8814 52.2705L38.8813 52.29ZM38.8816 52.0722C38.8784 51.7539 38.8587 51.3216 38.6861 50.8884L35.8992 51.999C35.8744 51.9366 35.8711 51.8998 35.8731 51.9153C35.8742 51.9234 35.8762 51.9417 35.878 51.9738C35.8798 52.0058 35.8812 52.0474 35.8817 52.1017L38.8816 52.0722ZM38.6045 50.7163C37.2815 48.3303 36.404 46.3379 35.6238 43.699L32.7469 44.5496C33.5977 47.4273 34.5672 49.6217 35.9808 52.1711L38.6045 50.7163ZM32.718 43.813C32.496 44.859 32.1213 45.8619 31.5644 46.6552L34.0197 48.379C34.8788 47.1554 35.3763 45.7381 35.6527 44.4357L32.718 43.813ZM31.5644 46.6552C31.1291 47.2753 30.5241 47.7106 29.8661 48.0217L31.1483 50.7339C32.1307 50.2695 33.2049 49.5395 34.0197 48.379L31.5644 46.6552ZM30.1274 50.829C30.1969 50.8471 30.2642 50.8659 30.3293 50.8851L31.1805 48.0084C31.0833 47.9797 30.9854 47.9525 30.887 47.9267L30.1274 50.829ZM30.3653 50.8953C30.4835 50.9271 30.6007 50.9598 30.7161 50.9931L31.5484 48.1109C31.4159 48.0726 31.281 48.035 31.1445 47.9983L30.3653 50.8953ZM30.7161 50.9931C31.2894 51.1587 31.831 51.3429 32.2643 51.5156L33.3748 48.7287C32.8358 48.5139 32.1996 48.299 31.5484 48.1109L30.7161 50.9931ZM32.2643 51.5156C32.4727 51.5986 32.6558 51.6786 32.8039 51.7526C32.8771 51.7892 32.9349 51.8209 32.9784 51.847C33.0235 51.874 33.0417 51.8881 33.0411 51.8877L34.9014 49.5341C34.4585 49.184 33.8352 48.9121 33.3748 48.7287L32.2643 51.5156ZM33.0411 51.8877C33.3804 52.1558 33.5289 52.3847 33.6076 52.7972L36.5544 52.2348C36.3277 51.0466 35.75 50.2048 34.9014 49.5341L33.0411 51.8877ZM33.6076 52.7972C33.6087 52.8027 33.6071 52.7977 33.608 52.7844C33.6088 52.7711 33.6116 52.7553 33.6168 52.7393C33.6277 52.7062 33.6419 52.6917 33.6412 52.6924C33.639 52.6946 33.6267 52.7052 33.6045 52.7145C33.582 52.7239 33.568 52.7242 33.5698 52.7242V55.7242C34.3875 55.7242 35.1975 55.3864 35.7766 54.7995C36.3867 54.1811 36.7513 53.2663 36.5544 52.2348L33.6076 52.7972ZM33.5698 52.7242H17.8374V55.7242H33.5698V52.7242ZM17.8374 52.7242C16.8524 52.7242 16.1343 52.3981 15.6305 51.8424L13.4078 53.8571C14.5558 55.1236 16.1251 55.7242 17.8374 55.7242V52.7242ZM15.6306 51.8424C15.1101 51.2681 14.7349 50.355 14.6465 49.0438L11.6533 49.2456C11.7714 50.9978 12.2986 52.6335 13.4078 53.8571L15.6306 51.8424ZM14.6465 49.0438C14.6212 48.6685 14.6081 48.2879 14.607 47.9035L11.607 47.9118C11.6083 48.3587 11.6235 48.8039 11.6533 49.2456L14.6465 49.0438ZM13.8002 46.5774C11.2134 45.2295 8.88643 42.4671 8.50655 39.0482L5.5249 39.3795C6.03324 43.9546 9.09583 47.5089 12.4138 49.2379L13.8002 46.5774ZM8.50655 39.0482C8.23311 36.5873 8.39129 34.784 8.6697 33.4686L5.73471 32.8474C5.38556 34.4971 5.21862 36.623 5.5249 39.3795L8.50655 39.0482ZM8.6697 33.4686C8.9301 32.2382 9.30151 31.4053 9.56681 30.8118L6.82799 29.5875C6.54091 30.2297 6.0628 31.2972 5.73471 32.8474L8.6697 33.4686ZM9.56723 30.8109L9.62081 30.6908L6.88116 29.4684L6.82757 29.5885L9.56723 30.8109ZM9.62168 30.6888L9.62661 30.6777L6.88521 29.4592L6.88028 29.4703L9.62168 30.6888ZM6.89976 29.4275C6.89957 29.4279 6.89829 29.4306 6.8972 29.4329C6.89611 29.4353 6.89305 29.4419 6.89109 29.4462C6.88606 29.4572 6.87817 29.4748 6.86912 29.4968C6.85124 29.5402 6.82456 29.6105 6.80187 29.7C6.75159 29.8984 6.73348 30.1425 6.79441 30.4062C6.90198 30.8717 7.1949 31.1318 7.25466 31.1854C7.34795 31.269 7.4309 31.3216 7.4552 31.3369C7.4899 31.3588 7.51816 31.3746 7.53155 31.382C7.55873 31.397 7.58051 31.4079 7.58575 31.4105C7.59421 31.4147 7.60097 31.418 7.60411 31.4195C7.61394 31.4243 7.62398 31.429 7.62617 31.43C7.63584 31.4345 7.65413 31.4431 7.68728 31.4586L8.95995 28.742C8.92538 28.7258 8.9098 28.7185 8.90253 28.7151C8.89626 28.7121 8.90206 28.7148 8.90978 28.7185C8.91239 28.7198 8.91877 28.7229 8.92693 28.727C8.93187 28.7294 8.95346 28.7402 8.98051 28.7551C8.99383 28.7625 9.02205 28.7783 9.05671 28.8001C9.08098 28.8155 9.1639 28.868 9.25718 28.9516C9.31692 29.0052 9.60984 29.2653 9.7174 29.7308C9.77833 29.9945 9.76022 30.2386 9.70995 30.4369C9.68726 30.5265 9.66058 30.5968 9.6427 30.6402C9.63364 30.6621 9.62576 30.6798 9.62073 30.6908C9.61877 30.6951 9.61571 30.7017 9.61462 30.704C9.61353 30.7063 9.61225 30.7091 9.61206 30.7095L6.89976 29.4275ZM7.68704 31.4585L8.15673 31.6787L9.42989 28.9622L8.96019 28.7421L7.68704 31.4585ZM9.43009 28.9623L8.89269 28.7104L7.61913 31.4266L8.15653 31.6786L9.43009 28.9623ZM9.56705 30.7971L9.56793 30.7955L6.94565 29.3383L6.94477 29.3398L9.56705 30.7971ZM9.61232 30.7092L9.61332 30.7071L6.90226 29.4225L6.90126 29.4246L9.61232 30.7092ZM9.61073 30.7125L9.61342 30.7069L6.90753 29.4115L6.90485 29.4171L9.61073 30.7125ZM9.60784 30.7184L9.61595 30.7019L6.92121 29.3834L6.91311 29.3999L9.60784 30.7184ZM9.61243 30.709C9.61384 30.7061 9.61719 30.6995 9.62236 30.6897L6.96884 29.2901C6.95124 29.3235 6.93652 29.3525 6.92473 29.3762L9.61243 30.709ZM9.62235 30.6897C9.6328 30.6699 9.65001 30.6386 9.67319 30.6005L7.11161 29.039C7.05152 29.1376 7.00381 29.2238 6.96885 29.2901L9.62235 30.6897ZM9.67318 30.6005C9.72179 30.5208 9.7854 30.4302 9.85538 30.3557L7.66919 28.3013C7.41158 28.5755 7.22646 28.8506 7.11161 29.039L9.67318 30.6005ZM9.85538 30.3557C9.88114 30.3283 9.91042 30.3016 9.93896 30.2806C9.96783 30.2592 9.98318 30.2531 9.98218 30.2535C9.97836 30.255 9.95443 30.2632 9.91697 30.2632C9.89912 30.2632 9.8835 30.2612 9.87164 30.2587C9.85987 30.2562 9.85683 30.2541 9.86329 30.257L11.0796 27.5146C9.37899 26.7604 8.08848 27.8551 7.66919 28.3013L9.85538 30.3557ZM9.86329 30.257C9.8718 30.2608 9.87054 30.2611 9.86296 30.2558C9.85529 30.2503 9.84495 30.2418 9.83394 30.23C9.81057 30.205 9.79957 30.1825 9.79653 30.175C9.79461 30.1703 9.79934 30.1805 9.80279 30.2095C9.80623 30.2384 9.80671 30.272 9.80442 30.3044L12.7969 30.5163C12.8436 29.8564 12.7295 28.2464 11.0796 27.5146L9.86329 30.257ZM9.80442 30.3044C9.79808 30.3939 9.77672 30.4903 9.75268 30.5715L12.6293 31.423C12.6915 31.213 12.7703 30.8921 12.7969 30.5163L9.80442 30.3044ZM9.75268 30.5715C9.74129 30.61 9.73074 30.6402 9.72395 30.6586L12.5388 31.6962C12.5647 31.6259 12.5967 31.5331 12.6293 31.423L9.75268 30.5715ZM9.72395 30.6586C9.7206 30.6677 9.7183 30.6736 9.71743 30.6758L12.504 31.7871C12.5139 31.7622 12.5257 31.7317 12.5388 31.6962L9.72395 30.6586ZM9.72056 30.668L9.71372 30.6848L12.494 31.8118L12.5009 31.7949L9.72056 30.668ZM9.71889 30.6723L9.71649 30.678L12.4865 31.8301L12.4888 31.8244L9.71889 30.6723ZM9.71875 30.6726L9.71782 30.6748L12.4833 31.8377L12.4842 31.8355L9.71875 30.6726ZM9.71977 30.6702L9.71938 30.6711L12.4809 31.8432L12.4813 31.8423L9.71977 30.6702ZM11.6858 29.8762L11.1334 29.642L9.96212 32.4039L10.5145 32.6381L11.6858 29.8762ZM9.9601 32.403C10.2362 32.5206 10.3758 32.5798 10.4468 32.6099C10.4813 32.6245 10.5031 32.6336 10.5174 32.6395C10.5208 32.641 10.5378 32.648 10.5571 32.6555C10.563 32.6578 10.5741 32.6621 10.5881 32.6671C10.5981 32.6708 10.6299 32.6823 10.6713 32.6946C10.692 32.7008 10.732 32.7123 10.7832 32.7234C10.8228 32.7319 10.9348 32.7552 11.0806 32.7571C11.2074 32.7587 11.5718 32.75 11.9425 32.4984C12.3473 32.2236 12.4875 31.8277 12.4808 31.8436L9.71954 30.6708C9.71278 30.6867 9.85299 30.2908 10.2578 30.016C10.6285 29.7645 10.9928 29.7557 11.1196 29.7573C11.2654 29.7592 11.3774 29.7825 11.4169 29.791C11.4681 29.8021 11.5081 29.8136 11.5287 29.8197C11.57 29.832 11.6016 29.8435 11.6112 29.847C11.6249 29.852 11.6356 29.8561 11.641 29.8582C11.6581 29.8648 11.6707 29.8701 11.6655 29.8679C11.6624 29.8667 11.6497 29.8613 11.6151 29.8467C11.5479 29.8183 11.4114 29.7603 11.1355 29.6428L9.9601 32.403ZM9.72001 30.6697L9.71566 30.6799L12.476 31.8549L12.4803 31.8447L9.72001 30.6697ZM9.73657 30.633L9.73225 30.6423L12.4507 31.9111L12.455 31.9018L9.73657 30.633ZM9.73222 30.6423C9.24553 31.6852 9.04459 33.0598 9.04931 34.4857L12.0493 34.4758C12.0453 33.2692 12.2264 32.3918 12.4508 31.911L9.73222 30.6423ZM9.04931 34.4857C9.05408 35.9283 9.26965 37.5027 9.6802 38.9907L12.5721 38.1927C12.2302 36.9533 12.0532 35.6437 12.0493 34.4758L9.04931 34.4857ZM9.6802 38.9907C10.275 41.1463 11.8513 42.5646 13.1188 43.3447L14.6913 40.7898C13.7883 40.234 12.8916 39.3506 12.5721 38.1927L9.6802 38.9907ZM15.3506 42.4677C16.0312 40.0105 17.135 37.8243 18.5087 36.2859L16.2709 34.2878C14.5172 36.2519 13.2299 38.8854 12.4595 41.6669L15.3506 42.4677ZM18.5087 36.2859C21.1281 33.3523 23.393 31.8072 25.3025 30.5382L23.6421 28.0396C21.6589 29.3575 19.1445 31.0696 16.2709 34.2878L18.5087 36.2859ZM25.3023 30.5384L25.4591 30.4342L23.7991 27.9353L23.6423 28.0395L25.3023 30.5384ZM25.459 30.4343C27.2844 29.2219 28.9372 28.153 30.0949 26.2235L27.5225 24.68C26.7707 25.933 25.726 26.6556 23.7992 27.9352L25.459 30.4343ZM30.0949 26.2235C31.799 23.3834 34.8203 17.194 36.1658 14.3571L33.4553 13.0715C32.0972 15.9349 29.1378 21.9877 27.5225 24.68L30.0949 26.2235ZM36.3105 13.7143V11.2016H33.3105V13.7143H36.3105ZM36.3105 11.2016C36.3105 11.2499 36.3067 11.2981 36.2989 11.3457L33.3376 10.8655C33.3196 10.9766 33.3105 11.089 33.3105 11.2016H36.3105ZM36.2989 11.3457C36.5073 10.0606 37.2185 8.34503 38.4795 7.25086L36.5133 4.98495C34.5805 6.66207 33.6244 9.09725 33.3376 10.8655L36.2989 11.3457ZM38.4795 7.25086C38.48 7.25043 38.4738 7.25568 38.4607 7.26169C38.4479 7.26757 38.4333 7.27197 38.4183 7.27421C38.3888 7.2786 38.3684 7.2735 38.3578 7.26924L39.4733 4.48435C38.5418 4.11122 37.3974 4.21783 36.5133 4.98495L38.4795 7.25086ZM38.3578 7.26924C38.3499 7.26609 38.3512 7.26455 38.3564 7.27062C38.361 7.27592 38.3681 7.28651 38.3728 7.30511L41.2832 6.57752C41.0436 5.61886 40.3663 4.84206 39.4733 4.48435L38.3578 7.26924ZM38.3728 7.30511L39.3714 11.2997L42.2818 10.5721L41.2832 6.57752L38.3728 7.30511ZM40.6405 12.4243C40.916 12.4588 41.2335 12.5177 41.5312 12.6043L42.3699 9.72397C41.8879 9.5836 41.4096 9.49715 41.0127 9.44752L40.6405 12.4243ZM41.5312 12.6043C41.7462 12.667 41.9442 12.7418 42.1042 12.8286C42.2678 12.9175 42.3331 12.9873 42.3515 13.0125L44.7725 11.2408C44.0785 10.2925 42.9694 9.89854 42.3699 9.72397L41.5312 12.6043ZM42.3515 13.0125C42.7435 13.5481 43.6174 14.3936 44.6457 15.1881L46.4798 12.814C45.5411 12.0888 44.9215 11.4445 44.7725 11.2408L42.3515 13.0125ZM44.6457 15.1881C45.6823 15.9888 46.9772 16.8171 48.2445 17.2528L49.2198 14.4157C48.3955 14.1323 47.3993 13.5244 46.4798 12.814L44.6457 15.1881ZM48.2445 17.2528C49.4171 17.6558 49.9076 17.8523 50.1732 18.0328L51.8598 15.5518C51.1901 15.0966 50.2615 14.7738 49.2198 14.4157L48.2445 17.2528ZM50.1731 18.0328C50.1779 18.0361 50.1825 18.0392 50.1868 18.0422L51.9102 15.5867C51.8934 15.5749 51.8766 15.5633 51.8598 15.5519L50.1731 18.0328ZM53.8158 16.4483C53.3923 15.6682 52.6942 15.2701 51.9712 15.1922C51.3564 15.1259 50.8151 15.2983 50.5147 15.4126L51.5823 18.2163C51.6417 18.1936 51.6826 18.1825 51.7057 18.1779C51.7305 18.173 51.7077 18.1811 51.6497 18.1749C51.5842 18.1678 51.4784 18.1424 51.3679 18.0703C51.2548 17.9966 51.198 17.914 51.1793 17.8797L53.8158 16.4483ZM52.9173 20.3438C53.7259 19.8618 54.142 19.1023 54.2204 18.3167C54.2919 17.6 54.0815 16.9377 53.8158 16.4483L51.1793 17.8797C51.2044 17.9259 51.2208 17.9703 51.229 18.0043C51.2374 18.0389 51.2328 18.043 51.2352 18.0188C51.2381 17.99 51.2505 17.932 51.2905 17.8673C51.3095 17.8365 51.3304 17.8115 51.3495 17.793C51.3587 17.784 51.3666 17.7775 51.3724 17.7731C51.3781 17.7688 51.3813 17.7669 51.3811 17.767L52.9173 20.3438ZM16.3419 42.2342L40.6096 25.8851L38.9334 23.397L14.6657 39.7461L16.3419 42.2342ZM14.0915 40.4849C13.8883 41.0528 13.7077 41.6353 13.5508 42.2273L16.4506 42.996C16.5864 42.4837 16.7421 41.982 16.9162 41.4954L14.0915 40.4849ZM14.4791 44.018C14.5322 44.0378 14.5849 44.0564 14.637 44.074L15.5967 41.2317C15.5737 41.2239 15.5489 41.2151 15.5223 41.2053L14.4791 44.018ZM14.6371 44.0741L15.1029 44.2313L16.0624 41.3889L15.5966 41.2317L14.6371 44.0741ZM14.0949 42.6191L13.3459 48.4546L16.3215 48.8365L17.0704 43.0011L14.0949 42.6191ZM15.3774 47.2476L14.86 47.0464L13.7727 49.8424L14.29 50.0436L15.3774 47.2476ZM12.8171 48.4928C12.8244 48.7174 12.8355 48.9415 12.8505 49.1649L15.8437 48.9631C15.8311 48.7753 15.8217 48.5862 15.8156 48.396L12.8171 48.4928ZM12.8505 49.1649C12.9568 50.7413 13.4235 52.0877 14.2969 53.0512L16.5197 51.0365C16.2341 50.7214 15.9202 50.0967 15.8437 48.9631L12.8505 49.1649ZM14.2969 53.0512C15.1867 54.0328 16.4151 54.5242 17.8374 54.5242V51.5242C17.1451 51.5242 16.7668 51.3091 16.5197 51.0365L14.2969 53.0512ZM17.8374 54.5242H33.5698V51.5242H17.8374V54.5242ZM33.5698 54.5242C34.0887 54.5242 34.5797 54.3127 34.925 53.954L32.7638 51.8733C32.9887 51.6397 33.2801 51.5242 33.5698 51.5242V54.5242ZM34.925 53.954C35.2903 53.5746 35.4853 53.0342 35.3757 52.4598L32.4289 53.0221C32.3941 52.8401 32.3926 52.6144 32.4677 52.3765C32.5411 52.1442 32.663 51.978 32.7638 51.8733L34.925 53.954ZM35.3757 52.4598C35.3027 52.077 35.1758 51.6958 34.9457 51.33C34.7187 50.9689 34.438 50.6974 34.1573 50.4755L32.297 52.8291C32.4062 52.9154 32.4163 52.9431 32.406 52.9267C32.4019 52.9202 32.4016 52.9178 32.4047 52.9261C32.4085 52.9364 32.418 52.9651 32.4289 53.0221L35.3757 52.4598ZM34.1573 50.4755C33.8654 50.2448 33.3904 50.0267 32.9306 49.8434L31.8201 52.6304C32.0242 52.7117 32.1731 52.7791 32.2704 52.8275C32.3191 52.8518 32.3477 52.8677 32.3599 52.8748C32.3794 52.8862 32.3494 52.8705 32.297 52.8291L34.1573 50.4755ZM32.9306 49.8434C32.4339 49.6455 31.8355 49.4428 31.2154 49.2638L30.3831 52.146C30.9253 52.3026 31.4291 52.4745 31.8201 52.6304L32.9306 49.8434ZM31.2117 49.2627L31.1103 49.2337L30.2855 52.1181L30.3869 52.1471L31.2117 49.2627ZM30.8826 49.1873C30.9405 49.1945 30.9974 49.2073 31.0523 49.2253L30.1153 52.0753C30.2459 52.1182 30.3791 52.1479 30.5132 52.1645L30.8826 49.1873ZM31.0522 49.2253C30.9886 49.2044 30.9245 49.1843 30.86 49.165L30.0006 52.0393C30.0403 52.0512 30.0786 52.0632 30.1154 52.0753L31.0522 49.2253ZM30.8187 49.1533C30.5747 49.0879 30.3309 49.0273 30.0914 48.9727L29.4251 51.8978C29.6254 51.9434 29.8323 51.9948 30.0419 52.051L30.8187 49.1533ZM30.0604 48.966C29.3575 48.8214 28.5928 48.7338 27.8455 48.6839L27.6459 51.6773C28.3061 51.7213 28.9273 51.7957 29.456 51.9045L30.0604 48.966ZM27.6355 48.6847L27.6276 48.6852L27.848 51.6771L27.8559 51.6766L27.6355 48.6847ZM27.6246 48.6855C27.7114 48.6789 27.7988 48.6851 27.8835 48.7035L27.2464 51.6351C27.442 51.6776 27.6455 51.6925 27.8511 51.6769L27.6246 48.6855ZM27.6524 48.6719C27.5003 48.663 27.3485 48.6556 27.1974 48.6495L27.0772 51.6471C27.2109 51.6525 27.3445 51.659 27.4775 51.6668L27.6524 48.6719ZM27.1974 48.6495C25.8967 48.5973 24.6746 48.6458 23.9343 48.7079L24.1853 51.6974C24.8101 51.645 25.9081 51.6002 27.0772 51.6471L27.1974 48.6495ZM23.9343 48.7079C24.4296 48.6664 24.8648 49.0342 24.9064 49.5295L21.9169 49.7805C22.014 50.9362 23.0296 51.7945 24.1853 51.6974L23.9343 48.7079ZM24.9064 49.5295C24.948 50.0248 24.5802 50.46 24.0849 50.5016L23.8339 47.5121C22.6781 47.6092 21.8199 48.6248 21.9169 49.7805L24.9064 49.5295ZM24.0849 50.5016C24.7559 50.4453 25.9035 50.3991 27.1253 50.4481L27.2455 47.4505C25.8921 47.3962 24.6203 47.4461 23.8339 47.5121L24.0849 50.5016ZM27.1253 50.4481C27.2782 50.4542 27.4327 50.4618 27.5877 50.4712L27.7678 47.4766C27.5917 47.466 27.4173 47.4574 27.2455 47.4505L27.1253 50.4481ZM27.9664 50.4458L28.0739 50.4248L27.4965 47.4808L27.3891 47.5019L27.9664 50.4458ZM28.0794 50.4237L28.0802 50.4235L27.4918 47.4818L27.491 47.4819L28.0794 50.4237ZM28.0737 50.4248C28.9732 50.249 31.5542 49.8022 33.0376 47.6895L30.5823 45.9656C29.8869 46.9561 28.5571 47.2736 27.4983 47.4805L28.0737 50.4248ZM33.0376 47.6895C33.8847 46.4829 34.3508 45.012 34.5798 43.6555L31.6217 43.1559C31.4374 44.2474 31.0871 45.2466 30.5823 45.9656L33.0376 47.6895ZM34.5798 43.6555C34.8094 42.2961 34.8132 40.9789 34.6813 40.0294L31.7099 40.4421C31.796 41.0625 31.8049 42.0711 31.6217 43.1559L34.5798 43.6555ZM34.6813 40.0294C34.7477 40.5073 34.4254 40.9525 33.9506 41.0387L33.4148 38.087C32.3071 38.288 31.555 39.3269 31.7099 40.4421L34.6813 40.0294ZM33.9506 41.0387C33.4759 41.1249 33.0176 40.8214 32.9118 40.3506L35.8388 39.6926C35.5918 38.5941 34.5225 37.8859 33.4148 38.087L33.9506 41.0387ZM32.9118 40.3506C34.0285 45.3177 35.0859 48.0873 37.0465 51.6185L39.6694 50.1622C37.8661 46.9145 36.9016 44.4201 35.8388 39.6926L32.9118 40.3506ZM37.0467 51.6187C37.0378 51.6027 37.0293 51.5864 37.0214 51.5697L39.728 50.2757C39.7095 50.2372 39.6899 50.1992 39.6692 50.162L37.0467 51.6187ZM37.0215 51.5699C37.0167 51.5599 37.0121 51.5498 37.0077 51.5396L39.7601 50.3462C39.7498 50.3225 39.7391 50.2989 39.7279 50.2756L37.0215 51.5699ZM37.0077 51.5397C37.0548 51.6484 37.0788 51.8011 37.0817 52.0899L40.0815 52.0604C40.0779 51.6931 40.0581 51.0334 39.7601 50.3461L37.0077 51.5397ZM37.0817 52.0899C37.0825 52.1775 37.0821 52.2583 37.0816 52.3449L40.0816 52.3614C40.082 52.2766 40.0826 52.1741 40.0815 52.0604L37.0817 52.0899ZM37.0816 52.3449C37.0805 52.5496 37.0764 52.8384 37.1194 53.1537L40.0919 52.7484C40.0824 52.6784 40.0803 52.603 40.0816 52.3613L37.0816 52.3449ZM37.1194 53.1539C37.1376 53.2872 37.1907 53.5527 37.3837 53.8251L39.8314 52.0906C39.841 52.1041 39.8854 52.1664 39.9312 52.2523C39.9741 52.3329 40.005 52.4086 40.0274 52.4749C40.0688 52.5972 40.085 52.698 40.0919 52.7482L37.1194 53.1539ZM37.3755 53.8134L37.3756 53.8136L39.8397 52.1024L39.8396 52.1022L37.3755 53.8134ZM37.3479 53.7722C37.463 53.9503 37.6094 54.0951 37.7702 54.2074L39.4869 51.7471C39.6182 51.8387 39.7543 51.9687 39.8674 52.1437L37.3479 53.7722ZM37.7704 54.2075C38.0813 54.4244 38.4511 54.5242 38.8057 54.5242V51.5242C38.9124 51.5242 39.02 51.5399 39.1258 51.5713C39.2238 51.6004 39.3509 51.6522 39.4867 51.747L37.7704 54.2075ZM38.8057 54.5242H44.1308V51.5242H38.8057V54.5242ZM44.1308 54.5242C44.6785 54.5242 45.1978 54.286 45.5369 53.8834L43.2426 51.9505C43.3809 51.7864 43.5339 51.6862 43.6651 51.6262C43.8061 51.5618 43.9644 51.5242 44.1308 51.5242V54.5242ZM45.5369 53.8835C45.7129 53.6746 45.8436 53.4167 45.8943 53.1255L42.9389 52.6101C42.9871 52.3338 43.1074 52.111 43.2427 51.9504L45.5369 53.8835ZM45.8946 53.1243C45.9095 53.0385 45.9306 52.8767 45.9059 52.6732C45.8843 52.4954 45.8351 52.3444 45.7833 52.2252L43.0316 53.4203C42.9919 53.3289 42.9477 53.1982 42.9278 53.0349C42.9178 52.952 42.9148 52.8676 42.9194 52.7828C42.924 52.6955 42.9359 52.6279 42.9387 52.6114L45.8946 53.1243ZM45.7833 52.2251C45.3385 51.2011 44.5249 50.5676 43.7325 50.1959L42.4586 52.912C42.7964 53.0705 42.9575 53.2497 43.0317 53.4204L45.7833 52.2251ZM43.7325 50.1959C42.9481 49.828 42.1284 49.6878 41.5364 49.6757L41.4752 52.6751C41.706 52.6798 42.1037 52.7456 42.4586 52.912L43.7325 50.1959ZM41.5364 49.6757C41.9066 49.6833 42.2344 49.9168 42.3624 50.2642L39.5476 51.3019C39.8465 52.1126 40.6113 52.6574 41.4751 52.6751L41.5364 49.6757ZM42.3624 50.2642C40.3216 44.7284 40.1457 42.7063 41.1627 40.5349L38.4459 39.2625C36.854 42.6614 37.5109 45.7772 39.5476 51.3019L42.3624 50.2642ZM41.1627 40.5348C41.1584 40.544 41.1538 40.5535 41.1488 40.5631L38.4779 39.197C38.4667 39.219 38.456 39.2409 38.4458 39.2626L41.1627 40.5348ZM41.149 40.5628C41.9862 38.925 42.3886 37.5799 42.5315 36.3101L39.5504 35.9744C39.4549 36.8222 39.182 37.8196 38.4778 39.1973L41.149 40.5628ZM42.5315 36.3101C42.6731 35.0522 42.5535 33.9136 42.4115 32.7422L39.4333 33.1032C39.5746 34.2689 39.649 35.0983 39.5504 35.9744L42.5315 36.3101ZM42.4115 32.7422C42.2906 31.745 42.066 30.477 41.8508 29.2594L38.8966 29.7815C39.1169 31.0279 39.3244 32.2049 39.4333 33.1032L42.4115 32.7422ZM41.8507 29.259L41.8497 29.253L38.8956 29.7758L38.8966 29.7818L41.8507 29.259ZM41.8492 29.2503L41.8488 29.2482L38.8957 29.7764L38.8961 29.7785L41.8492 29.2503ZM41.8494 29.2513C41.8035 28.9916 41.7578 28.7331 41.713 28.477L38.7578 28.9935C38.8032 29.2529 38.8493 29.5141 38.8951 29.7733L41.8494 29.2513ZM41.713 28.477C41.4502 26.9735 41.2476 25.6993 41.2476 25.0515H38.2476C38.2476 26.0216 38.5141 27.5989 38.7578 28.9935L41.713 28.477ZM41.2476 25.0515C41.2476 24.9677 41.2525 24.89 41.261 24.818L38.282 24.4641C38.2593 24.6552 38.2476 24.8511 38.2476 25.0515H41.2476ZM14.6452 46.6508C14.7093 45.6323 14.8535 44.6052 15.0718 43.5984L12.1399 42.9627C11.8904 44.1136 11.7249 45.2901 11.6511 46.4621L14.6452 46.6508ZM6.71756 39.247C7.14642 43.1067 9.61217 46.1844 12.3765 47.8427L13.9198 45.2701C11.8112 44.0052 10.0071 41.6864 9.69921 38.9157L6.71756 39.247ZM6.90871 33.0959C6.58785 34.6118 6.42441 36.6087 6.71756 39.247L9.69921 38.9157C9.43891 36.573 9.59358 34.8988 9.84369 33.717L6.90871 33.0959ZM7.92553 30.0728C7.64456 30.7017 7.21008 31.6719 6.90871 33.0959L9.84369 33.717C10.0772 32.6137 10.4044 31.8788 10.6646 31.2964L7.92553 30.0728ZM7.97367 29.9648L7.92521 30.0735L10.665 31.2957L10.7134 31.187L7.97367 29.9648ZM8.03026 29.8499C8.01745 29.8742 8.00717 29.8945 7.99972 29.9095L10.6874 31.2424C10.6861 31.245 10.6852 31.2468 10.6846 31.2479C10.6841 31.249 10.6838 31.2495 10.6838 31.2495L8.03026 29.8499ZM8.13625 29.6636C8.09092 29.738 8.05541 29.8022 8.03023 29.85L10.6838 31.2495C10.6844 31.2483 10.6894 31.239 10.6978 31.2252L8.13625 29.6636ZM8.54367 29.1231C8.36102 29.3175 8.22449 29.5189 8.13624 29.6636L10.6978 31.2252C10.7066 31.2108 10.7158 31.1969 10.7242 31.1855C10.733 31.1735 10.7355 31.1715 10.7299 31.1775L8.54367 29.1231ZM10.5931 28.6116C10.3502 28.5038 9.91246 28.3797 9.38945 28.5545C8.98925 28.6882 8.71136 28.9446 8.54366 29.1231L10.7299 31.1775C10.7625 31.1427 10.6305 31.3029 10.3402 31.3999C10.1732 31.4557 9.9792 31.482 9.77349 31.4597C9.57625 31.4383 9.43229 31.3786 9.37678 31.354L10.5931 28.6116ZM11.5999 30.4315C11.6156 30.21 11.62 29.8295 11.438 29.4379C11.2059 28.9381 10.8143 28.7097 10.5931 28.6116L9.37677 31.3539C9.32782 31.3322 9.19923 31.2719 9.06033 31.1529C8.91129 31.0253 8.79519 30.8695 8.71727 30.7018C8.64487 30.5459 8.62096 30.4135 8.61237 30.3381C8.60793 30.2992 8.60688 30.2692 8.60673 30.2506C8.60658 30.2318 8.60732 30.221 8.60742 30.2196L11.5999 30.4315ZM11.4786 31.0824C11.5255 30.9241 11.5814 30.6929 11.5999 30.4315L8.60742 30.2196C8.60808 30.2102 8.60884 30.2046 8.60908 30.2029C8.60934 30.2011 8.60931 30.2017 8.60873 30.2045C8.60817 30.2073 8.60729 30.2113 8.60605 30.2162C8.60482 30.2211 8.60345 30.2261 8.60204 30.2309L11.4786 31.0824ZM11.4129 31.2812C11.4311 31.2316 11.4545 31.1638 11.4786 31.0824L8.60204 30.2309C8.59913 30.2407 8.59715 30.2459 8.59801 30.2436L11.4129 31.2812ZM11.3999 31.3157L11.4078 31.2946L8.60304 30.2302L8.59505 30.2512L11.3999 31.3157ZM10.8493 34.4798C10.845 33.1922 11.0321 32.1196 11.3588 31.4132L8.63607 30.1536C8.05138 31.4175 7.84432 32.9826 7.84931 34.4897L10.8493 34.4798ZM11.4154 38.5119C11.046 37.1731 10.8535 35.7576 10.8493 34.4798L7.84931 34.4897C7.85445 36.0421 8.08544 37.7225 8.52342 39.3098L11.4154 38.5119ZM14.3337 41.969C13.1787 41.328 11.8754 40.1792 11.4154 38.5119L8.52342 39.3098C9.27742 42.0426 11.3328 43.7347 12.8781 44.5921L14.3337 41.969Z" fill="#F8F9FA" mask="url(#path-1-outside-1_50_7619)"/>
<path d="M10.5159 38.722C11.2382 41.3399 13.6671 42.7781 14.8931 43.192L14.3043 47.779C11.157 46.5551 8.04645 43.3147 7.58017 39.1183C7.01359 34.0191 8.22341 31.5179 8.76739 30.2939C8.76739 30.2939 9.35843 29.0334 10.1963 29.405C11.0341 29.7766 10.5159 30.9936 10.5159 30.9936C9.69991 32.7421 9.73594 35.8952 10.5159 38.722Z" fill="#FFE066" stroke="#212529" stroke-width="1.4" stroke-linecap="round"/>
<path d="M37.8577 6.54204C36.3951 7.81115 35.6105 9.74265 35.3786 11.1726V13.8202C34.0585 16.6089 30.9929 22.8954 29.2913 25.7314C27.1643 29.2764 23.1967 29.6195 17.8054 35.6574C14.9974 38.8022 13.3908 44.2434 13.7166 49.0753C13.9112 51.962 15.3996 53.5952 17.8054 53.5952H33.5379C34.0902 53.5952 34.5633 53.1419 34.4597 52.5994C34.3366 51.9541 34.0592 51.5414 33.5673 51.1525C32.8605 50.5939 29.2204 49.4357 27.6606 49.5539C28.4641 49.3884 30.9292 49.0516 32.2691 47.1433C33.758 45.0226 33.9943 41.8257 33.758 40.1241C34.8585 45.0193 35.888 47.7064 37.8015 51.1525C38.046 51.7165 37.8929 52.3702 37.9792 53.0031C38.0305 53.3794 38.394 53.5952 38.7738 53.5952H44.0989C44.6792 53.5952 45.1571 53.0869 44.9259 52.5546C44.2584 51.018 42.4534 50.5662 41.4861 50.5465C39.4464 45.0138 39.1263 42.6637 40.3157 40.1241C41.9104 37.0045 41.7697 35.1611 41.4861 32.8214C41.2025 30.4817 40.3157 26.5113 40.3157 25.0224C40.3157 23.5335 41.4152 22.7536 42.266 22.1864C43.1168 21.6192 48.2279 21.8818 49.575 21.8109C50.9221 21.74 51.8864 19.6161 51.3818 18.3179C50.9896 17.3092 50.774 17.1525 48.5052 16.3726C46.2364 15.5927 43.684 13.3239 43.0459 12.4519C42.5354 11.7544 41.0131 11.5032 40.3157 11.4648L39.214 7.05778C39.0567 6.42884 38.3474 6.11715 37.8577 6.54204Z" fill="#FFE066" stroke="#212529" stroke-width="1.4" stroke-linecap="round" stroke-linejoin="round"/>
<path d="M33.3826 35.8247C33.399 36.9244 33.5401 39.5572 33.9735 41.2908" stroke="#212529" stroke-width="1.4" stroke-linecap="round"/>
<path d="M23.9777 49.5758C25.389 49.4573 28.7172 49.3865 30.7393 50.0513" stroke="#212529" stroke-width="1.4" stroke-linecap="round"/>
<path d="M38.95 21.4058C39.5103 21.6345 41.116 21.9102 43.7468 21.8658" stroke="#212529" stroke-width="1.4" stroke-linecap="round"/>
<g style="mix-blend-mode:multiply">
<circle cx="42.0357" cy="15.1371" r="0.614161" fill="#212529"/>
</g>
<path d="M52.4657 17.1351C52.1155 16.49 51.464 16.6148 51.0145 16.7863L51.9462 19.115C52.8779 18.6982 52.8159 17.7801 52.4657 17.1351Z" fill="#212529"/>
<path opacity="0.7" d="M30.7931 44.8264C31.7748 42.6904 32.4871 38.9575 32.7308 36.6113C32.9023 37.2339 32.9419 39.2138 33.1278 40.5776C33.3603 42.2825 32.9656 45.3066 31.3429 47.2074C29.9925 48.7893 27.6469 48.9679 25.8258 48.8533C27.8794 48.6208 29.8824 46.8078 30.7931 44.8264Z" fill="white"/>
<path opacity="0.7" d="M38.1079 24.5816C38.0063 23.2608 38.1251 22.1427 38.3791 21.6983C38.6035 22.1971 40.0479 22.3184 40.9131 22.4318C39.8223 23.2663 39.5928 24.4508 39.6749 25.5863C39.7335 26.3966 40.2059 29.168 40.4811 30.5936C40.0366 29.2602 38.2349 26.2326 38.1079 24.5816Z" fill="white"/>
<g style="mix-blend-mode:multiply">
<path d="M10.2029 42.771C8.74894 41.0055 8.33534 38.4411 8.02649 36.8687C8.16687 38.4129 8.02649 40.8328 9.63084 43.3264C10.6439 44.9009 12.4907 46.4148 13.333 46.85V45.2917C12.6872 44.8987 11.0965 43.8562 10.2029 42.771Z" fill="#FFE066"/>
</g>
<g style="mix-blend-mode:multiply">
<path d="M38.9229 50.3067C38.1868 49.7045 35.3917 43.4851 34.1298 40.2617L35.59 45.4294L38.1945 50.8517V53.0545L39.2262 53.3055C39.4028 52.6827 39.659 50.9088 38.9229 50.3067Z" fill="#FFE066"/>
</g>
<g style="mix-blend-mode:multiply">
<path d="M49.4365 18.397C48.5726 17.9823 46.3123 16.2089 45.2902 15.374C47.0898 16.0074 50.7927 17.4988 51.2073 18.397C51.7256 19.5199 50.9913 19.7361 50.689 20.9454C50.3867 22.1547 46.6723 21.5501 47.3633 21.3773C48.0544 21.2045 49.0046 21.075 49.4365 19.9952C49.782 19.1314 49.5804 18.5698 49.4365 18.397Z" fill="#FFE066"/>
</g>
</svg>
