<svg width="60" height="60" viewBox="0 0 60 60" fill="none" xmlns="http://www.w3.org/2000/svg">
<mask id="path-1-outside-1_50_9988" maskUnits="userSpaceOnUse" x="6.65234" y="6.84668" width="47" height="46" fill="black">
<rect fill="white" x="6.65234" y="6.84668" width="47" height="46"/>
<path fill-rule="evenodd" clip-rule="evenodd" d="M29.994 8.84817C22.2906 8.76351 16.9718 12.2896 13.5852 16.6813C10.2288 21.0337 8.75034 26.2538 8.65274 29.7171L8.65234 29.7312V29.7453C8.65234 30.6326 8.99967 31.554 9.57634 32.4008C10.7654 42.6258 19.4558 50.5623 29.9999 50.5623C38.9356 50.5623 46.5401 44.8624 49.3758 36.9002C50.2425 36.327 50.8142 35.3436 50.8142 34.2267V31.2781C51.2674 30.5281 51.5205 29.6951 51.5205 28.8401V28.8087L51.5186 28.7774C51.3071 25.4105 49.773 20.4991 46.3834 16.3919C42.9651 12.25 37.6609 8.93243 29.994 8.84817ZM11.5101 31.6505C11.4621 31.1067 11.4377 30.5562 11.4377 30C11.4377 19.7484 19.7483 11.4377 29.9999 11.4377C40.2516 11.4377 48.5622 19.7484 48.5622 30C48.5622 31.8858 48.281 33.706 47.7582 35.4208C47.71 35.4267 47.6609 35.4297 47.6112 35.4297C46.9468 35.4297 46.4082 34.8911 46.4082 34.2267V32.3488L45.2243 32.5702C45.0053 32.6112 44.7784 32.6448 44.5436 32.6704L43.6519 32.7675V36.7265C43.6519 37.9878 42.6294 39.0103 41.3681 39.0103H41.0952C39.8339 39.0103 38.8114 37.9878 38.8114 36.7265V30.4858L38.7375 30.3044C38.6313 30.0439 38.5821 29.8166 38.5671 29.6534L38.5653 29.634L38.5627 29.6146C38.3965 28.3532 37.9163 26.5026 36.6709 24.9469C35.39 23.3469 33.3619 22.1409 30.306 22.1409C27.255 22.1409 25.1914 23.343 23.9041 24.9456C22.6602 26.494 22.1917 28.3496 22.1496 29.6853C22.0847 30.3513 21.6844 31.4663 20.8275 32.4118C19.9883 33.3379 18.7269 34.0862 16.9076 34.0862C15.0292 34.0862 13.4376 33.3871 12.321 32.4594C12.0028 32.1952 11.7334 31.9219 11.5101 31.6505ZM12.0419 34.7152C13.3693 35.5357 15.0309 36.0862 16.9076 36.0862C19.3496 36.0862 21.132 35.0542 22.3095 33.7549C23.4583 32.4872 24.0485 30.9484 24.1446 29.8309L24.1471 29.8013L24.1479 29.7716C24.1739 28.7861 24.5317 27.3578 25.4633 26.1981C26.3619 25.0794 27.8465 24.1409 30.306 24.1409C32.7603 24.1409 34.2118 25.0754 35.1095 26.1968C36.0376 27.356 36.4356 28.7983 36.5776 29.8588C36.6084 30.1709 36.6848 30.5134 36.8114 30.8661V36.7265C36.8114 39.0924 38.7293 41.0103 41.0952 41.0103H41.3681C43.7225 41.0103 45.6334 39.1108 45.6517 36.7606C46.0497 37.0689 46.5223 37.2854 47.0378 37.3785C44.1841 43.9591 37.6296 48.5623 29.9999 48.5623C21.3776 48.5623 14.1283 42.6834 12.0419 34.7152Z"/>
</mask>
<path fill-rule="evenodd" clip-rule="evenodd" d="M29.994 8.84817C22.2906 8.76351 16.9718 12.2896 13.5852 16.6813C10.2288 21.0337 8.75034 26.2538 8.65274 29.7171L8.65234 29.7312V29.7453C8.65234 30.6326 8.99967 31.554 9.57634 32.4008C10.7654 42.6258 19.4558 50.5623 29.9999 50.5623C38.9356 50.5623 46.5401 44.8624 49.3758 36.9002C50.2425 36.327 50.8142 35.3436 50.8142 34.2267V31.2781C51.2674 30.5281 51.5205 29.6951 51.5205 28.8401V28.8087L51.5186 28.7774C51.3071 25.4105 49.773 20.4991 46.3834 16.3919C42.9651 12.25 37.6609 8.93243 29.994 8.84817ZM11.5101 31.6505C11.4621 31.1067 11.4377 30.5562 11.4377 30C11.4377 19.7484 19.7483 11.4377 29.9999 11.4377C40.2516 11.4377 48.5622 19.7484 48.5622 30C48.5622 31.8858 48.281 33.706 47.7582 35.4208C47.71 35.4267 47.6609 35.4297 47.6112 35.4297C46.9468 35.4297 46.4082 34.8911 46.4082 34.2267V32.3488L45.2243 32.5702C45.0053 32.6112 44.7784 32.6448 44.5436 32.6704L43.6519 32.7675V36.7265C43.6519 37.9878 42.6294 39.0103 41.3681 39.0103H41.0952C39.8339 39.0103 38.8114 37.9878 38.8114 36.7265V30.4858L38.7375 30.3044C38.6313 30.0439 38.5821 29.8166 38.5671 29.6534L38.5653 29.634L38.5627 29.6146C38.3965 28.3532 37.9163 26.5026 36.6709 24.9469C35.39 23.3469 33.3619 22.1409 30.306 22.1409C27.255 22.1409 25.1914 23.343 23.9041 24.9456C22.6602 26.494 22.1917 28.3496 22.1496 29.6853C22.0847 30.3513 21.6844 31.4663 20.8275 32.4118C19.9883 33.3379 18.7269 34.0862 16.9076 34.0862C15.0292 34.0862 13.4376 33.3871 12.321 32.4594C12.0028 32.1952 11.7334 31.9219 11.5101 31.6505ZM12.0419 34.7152C13.3693 35.5357 15.0309 36.0862 16.9076 36.0862C19.3496 36.0862 21.132 35.0542 22.3095 33.7549C23.4583 32.4872 24.0485 30.9484 24.1446 29.8309L24.1471 29.8013L24.1479 29.7716C24.1739 28.7861 24.5317 27.3578 25.4633 26.1981C26.3619 25.0794 27.8465 24.1409 30.306 24.1409C32.7603 24.1409 34.2118 25.0754 35.1095 26.1968C36.0376 27.356 36.4356 28.7983 36.5776 29.8588C36.6084 30.1709 36.6848 30.5134 36.8114 30.8661V36.7265C36.8114 39.0924 38.7293 41.0103 41.0952 41.0103H41.3681C43.7225 41.0103 45.6334 39.1108 45.6517 36.7606C46.0497 37.0689 46.5223 37.2854 47.0378 37.3785C44.1841 43.9591 37.6296 48.5623 29.9999 48.5623C21.3776 48.5623 14.1283 42.6834 12.0419 34.7152Z" fill="#F8F9FA"/>
<path d="M13.5852 16.6813L14.773 17.5973L14.773 17.5973L13.5852 16.6813ZM29.994 8.84817L29.9776 10.3481L29.9776 10.3481L29.994 8.84817ZM8.65274 29.7171L10.1521 29.7594L10.1521 29.7594L8.65274 29.7171ZM8.65234 29.7312L7.15294 29.6889C7.15254 29.703 7.15234 29.7171 7.15234 29.7312L8.65234 29.7312ZM9.57634 32.4008L11.0663 32.2275C11.0383 31.9869 10.9525 31.7566 10.8161 31.5564L9.57634 32.4008ZM49.3758 36.9002L48.5483 35.6491C48.2773 35.8284 48.0718 36.0908 47.9628 36.3969L49.3758 36.9002ZM50.8142 31.2781L49.5304 30.5022C49.3889 30.7363 49.3142 31.0046 49.3142 31.2781H50.8142ZM51.5205 28.8087H53.0205C53.0205 28.7774 53.0196 28.7461 53.0176 28.7148L51.5205 28.8087ZM51.5186 28.7774L53.0156 28.6835L53.0156 28.6834L51.5186 28.7774ZM46.3834 16.3919L47.5402 15.4371L47.5402 15.4371L46.3834 16.3919ZM11.5101 31.6505L10.0158 31.7821C10.0424 32.0836 10.1596 32.37 10.3519 32.6037L11.5101 31.6505ZM47.7582 35.4208L47.9396 36.9098C48.5286 36.838 49.0199 36.4258 49.193 35.8583L47.7582 35.4208ZM46.4082 32.3488H47.9082C47.9082 31.9027 47.7096 31.4797 47.3664 31.1947C47.0232 30.9098 46.5709 30.7923 46.1324 30.8744L46.4082 32.3488ZM45.2243 32.5702L44.9485 31.0958L44.9485 31.0958L45.2243 32.5702ZM44.5436 32.6704L44.706 34.1616L44.706 34.1616L44.5436 32.6704ZM43.6519 32.7675L43.4895 31.2763C42.7284 31.3591 42.1519 32.0019 42.1519 32.7675H43.6519ZM38.8114 30.4858H40.3114C40.3114 30.2918 40.2738 30.0996 40.2005 29.9199L38.8114 30.4858ZM38.7375 30.3044L37.3484 30.8704L37.3484 30.8704L38.7375 30.3044ZM38.5671 29.6534L40.0607 29.5157L40.0607 29.5156L38.5671 29.6534ZM38.5653 29.634L40.0589 29.4962C40.0571 29.4768 40.055 29.4575 40.0524 29.4382L38.5653 29.634ZM38.5627 29.6146L40.0499 29.4188L40.0499 29.4187L38.5627 29.6146ZM36.6709 24.9469L37.8418 24.0094L37.8418 24.0094L36.6709 24.9469ZM23.9041 24.9456L22.7346 24.0062L22.7346 24.0062L23.9041 24.9456ZM22.1496 29.6853L23.6425 29.8308C23.6457 29.7981 23.6478 29.7653 23.6489 29.7325L22.1496 29.6853ZM20.8275 32.4118L19.7161 31.4045L19.7161 31.4045L20.8275 32.4118ZM12.321 32.4594L11.3625 33.6133L11.3625 33.6133L12.321 32.4594ZM12.0419 34.7152L12.8305 33.4393C12.3088 33.1168 11.6433 33.1445 11.1501 33.5091C10.6569 33.8737 10.4354 34.5019 10.5908 35.0952L12.0419 34.7152ZM22.3095 33.7549L21.198 32.7476L21.198 32.7476L22.3095 33.7549ZM24.1446 29.8309L25.6391 29.9594L25.6391 29.9594L24.1446 29.8309ZM24.1471 29.8013L25.6416 29.9298C25.6442 29.9002 25.6458 29.8705 25.6466 29.8408L24.1471 29.8013ZM24.1479 29.7716L25.6474 29.8111L25.6474 29.8111L24.1479 29.7716ZM25.4633 26.1981L24.2939 25.2587L24.2939 25.2587L25.4633 26.1981ZM35.1095 26.1968L33.9386 27.1342L33.9386 27.1342L35.1095 26.1968ZM36.5776 29.8588L38.0703 29.7116C38.0686 29.6943 38.0666 29.677 38.0643 29.6598L36.5776 29.8588ZM36.8114 30.8661H38.3114C38.3114 30.6934 38.2816 30.522 38.2232 30.3594L36.8114 30.8661ZM45.6517 36.7606L46.5701 35.5747C46.1193 35.2255 45.5095 35.1622 44.9965 35.4113C44.4836 35.6604 44.1562 36.1787 44.1518 36.7489L45.6517 36.7606ZM47.0378 37.3785L48.414 37.9753C48.5963 37.5551 48.5765 37.0746 48.3603 36.6707C48.1442 36.2669 47.7553 35.9839 47.3046 35.9025L47.0378 37.3785ZM14.773 17.5973C17.9147 13.5233 22.8105 10.2693 29.9776 10.3481L30.0105 7.34826C21.7706 7.2577 16.029 11.0559 12.3973 15.7653L14.773 17.5973ZM10.1521 29.7594C10.2411 26.6027 11.6164 21.6907 14.773 17.5973L12.3973 15.7653C8.84127 20.3767 7.25957 25.9049 7.15334 29.6748L10.1521 29.7594ZM10.1517 29.7734L10.1521 29.7594L7.15334 29.6748L7.15294 29.6889L10.1517 29.7734ZM10.1523 29.7453V29.7312H7.15234V29.7453H10.1523ZM10.8161 31.5564C10.3554 30.88 10.1523 30.2485 10.1523 29.7453H7.15234C7.15234 31.0167 7.64392 32.2281 8.33656 33.2451L10.8161 31.5564ZM8.08638 32.574C9.36233 43.5466 18.6856 52.0623 29.9999 52.0623V49.0623C20.2261 49.0623 12.1684 41.7051 11.0663 32.2275L8.08638 32.574ZM29.9999 52.0623C39.5898 52.0623 47.747 45.9445 50.7889 37.4035L47.9628 36.3969C45.3331 43.7804 38.2814 49.0623 29.9999 49.0623V52.0623ZM49.3142 34.2267C49.3142 34.8191 49.013 35.3418 48.5483 35.6491L50.2033 38.1513C51.472 37.3122 52.3142 35.8681 52.3142 34.2267H49.3142ZM49.3142 31.2781V34.2267H52.3142V31.2781H49.3142ZM50.0205 28.8401C50.0205 29.3942 49.8571 29.9617 49.5304 30.5022L52.098 32.0539C52.6777 31.0945 53.0205 29.9961 53.0205 28.8401H50.0205ZM50.0205 28.8087V28.8401H53.0205V28.8087H50.0205ZM50.0215 28.8714L50.0235 28.9027L53.0176 28.7148L53.0156 28.6835L50.0215 28.8714ZM45.2265 17.3467C48.4038 21.1966 49.8288 25.8024 50.0215 28.8714L53.0156 28.6834C52.7855 25.0185 51.1422 19.8015 47.5402 15.4371L45.2265 17.3467ZM29.9776 10.3481C37.163 10.4271 42.0633 13.5139 45.2265 17.3467L47.5402 15.4371C43.8669 10.9861 38.1588 7.43782 30.0105 7.34826L29.9776 10.3481ZM9.93768 30C9.93768 30.6002 9.96408 31.1946 10.0158 31.7821L13.0043 31.5188C12.9602 31.0188 12.9377 30.5122 12.9377 30H9.93768ZM29.9999 9.93774C18.9199 9.93774 9.93768 18.9199 9.93768 30H12.9377C12.9377 20.5768 20.5767 12.9377 29.9999 12.9377V9.93774ZM50.0622 30C50.0622 18.9199 41.08 9.93774 29.9999 9.93774V12.9377C39.4232 12.9377 47.0622 20.5768 47.0622 30H50.0622ZM49.193 35.8583C49.7585 34.0032 50.0622 32.0357 50.0622 30H47.0622C47.0622 31.736 46.8034 33.4088 46.3234 34.9834L49.193 35.8583ZM47.6112 36.9297C47.7217 36.9297 47.8313 36.923 47.9396 36.9098L47.5767 33.9318C47.5886 33.9304 47.6002 33.9297 47.6112 33.9297V36.9297ZM44.9082 34.2267C44.9082 35.7195 46.1183 36.9297 47.6112 36.9297V33.9297C47.7752 33.9297 47.9082 34.0627 47.9082 34.2267H44.9082ZM44.9082 32.3488V34.2267H47.9082V32.3488H44.9082ZM45.5001 34.0447L46.684 33.8232L46.1324 30.8744L44.9485 31.0958L45.5001 34.0447ZM44.706 34.1616C44.978 34.1319 45.2429 34.0928 45.5001 34.0447L44.9485 31.0958C44.7678 31.1296 44.5787 31.1577 44.3813 31.1792L44.706 34.1616ZM43.8142 34.2586L44.706 34.1616L44.3813 31.1792L43.4895 31.2763L43.8142 34.2586ZM45.1519 36.7265V32.7675H42.1519V36.7265H45.1519ZM41.3681 40.5103C43.4578 40.5103 45.1519 38.8162 45.1519 36.7265H42.1519C42.1519 37.1594 41.8009 37.5103 41.3681 37.5103V40.5103ZM41.0952 40.5103H41.3681V37.5103H41.0952V40.5103ZM37.3114 36.7265C37.3114 38.8162 39.0055 40.5103 41.0952 40.5103V37.5103C40.6623 37.5103 40.3114 37.1594 40.3114 36.7265H37.3114ZM37.3114 30.4858V36.7265H40.3114V30.4858H37.3114ZM37.3484 30.8704L37.4223 31.0518L40.2005 29.9199L40.1266 29.7384L37.3484 30.8704ZM37.0734 29.7912C37.1031 30.1127 37.1909 30.4838 37.3484 30.8704L40.1266 29.7384C40.1003 29.6738 40.0835 29.6194 40.0733 29.5784C40.0627 29.5363 40.0606 29.5144 40.0607 29.5157L37.0734 29.7912ZM37.0716 29.7718L37.0734 29.7912L40.0607 29.5156L40.0589 29.4962L37.0716 29.7718ZM37.0756 29.8105L37.0781 29.8298L40.0524 29.4382L40.0499 29.4188L37.0756 29.8105ZM35.4999 25.8843C36.511 27.1473 36.9291 28.6986 37.0756 29.8106L40.0499 29.4187C39.864 28.0079 39.3217 25.8579 37.8418 24.0094L35.4999 25.8843ZM30.306 23.6409C32.9108 23.6409 34.5064 24.6433 35.4999 25.8843L37.8418 24.0094C36.2736 22.0505 33.813 20.6409 30.306 20.6409V23.6409ZM25.0735 25.8849C26.0692 24.6453 27.6986 23.6409 30.306 23.6409V20.6409C26.8115 20.6409 24.3136 22.0406 22.7346 24.0062L25.0735 25.8849ZM23.6489 29.7325C23.6827 28.6583 24.0701 27.134 25.0735 25.8849L22.7346 24.0062C21.2503 25.854 20.7007 28.0409 20.6503 29.638L23.6489 29.7325ZM21.939 33.4191C23.0055 32.2423 23.5454 30.8275 23.6425 29.8308L20.6567 29.5397C20.624 29.8751 20.3633 30.6904 19.7161 31.4045L21.939 33.4191ZM16.9076 35.5862C19.1933 35.5862 20.8457 34.6256 21.939 33.4191L19.7161 31.4045C19.131 32.0501 18.2605 32.5862 16.9076 32.5862V35.5862ZM11.3625 33.6133C12.726 34.746 14.651 35.5862 16.9076 35.5862V32.5862C15.4074 32.5862 14.1492 32.0281 13.2794 31.3056L11.3625 33.6133ZM10.3519 32.6037C10.6371 32.9502 10.9737 33.2903 11.3625 33.6133L13.2794 31.3056C13.0319 31.1 12.8298 30.8935 12.6682 30.6972L10.3519 32.6037ZM16.9076 34.5862C15.3288 34.5862 13.938 34.1238 12.8305 33.4393L11.2532 35.9912C12.8006 36.9476 14.733 37.5862 16.9076 37.5862V34.5862ZM21.198 32.7476C20.2739 33.7673 18.8822 34.5862 16.9076 34.5862V37.5862C19.8169 37.5862 21.99 36.3411 23.421 34.7621L21.198 32.7476ZM22.6501 29.7024C22.5834 30.4788 22.1362 31.7123 21.198 32.7476L23.421 34.7621C24.7804 33.2621 25.5137 31.4181 25.6391 29.9594L22.6501 29.7024ZM22.6527 29.6729L22.6501 29.7025L25.6391 29.9594L25.6416 29.9298L22.6527 29.6729ZM22.6485 29.7321L22.6477 29.7618L25.6466 29.8408L25.6474 29.8111L22.6485 29.7321ZM24.2939 25.2587C23.1204 26.7195 22.6814 28.4818 22.6485 29.7321L25.6474 29.8111C25.6664 29.0905 25.9429 27.9962 26.6328 27.1374L24.2939 25.2587ZM30.306 22.6409C27.4028 22.6409 25.4839 23.7772 24.2939 25.2587L26.6328 27.1374C27.24 26.3815 28.2903 25.6409 30.306 25.6409V22.6409ZM36.2805 25.2593C35.0955 23.7791 33.2116 22.6409 30.306 22.6409V25.6409C32.3091 25.6409 33.3282 26.3718 33.9386 27.1342L36.2805 25.2593ZM38.0643 29.6598C37.9024 28.4498 37.4418 26.7099 36.2805 25.2593L33.9386 27.1342C34.6334 28.0022 34.9689 29.1468 35.0908 30.0578L38.0643 29.6598ZM38.2232 30.3594C38.1352 30.114 38.0881 29.8921 38.0703 29.7116L35.0848 30.0059C35.1286 30.4497 35.2345 30.9128 35.3996 31.3729L38.2232 30.3594ZM38.3114 36.7265V30.8661H35.3114V36.7265H38.3114ZM41.0952 39.5103C39.5578 39.5103 38.3114 38.2639 38.3114 36.7265H35.3114C35.3114 39.9208 37.9009 42.5103 41.0952 42.5103V39.5103ZM41.3681 39.5103H41.0952V42.5103H41.3681V39.5103ZM44.1518 36.7489C44.1398 38.2759 42.898 39.5103 41.3681 39.5103V42.5103C44.5471 42.5103 47.1269 39.9457 47.1517 36.7723L44.1518 36.7489ZM47.3046 35.9025C47.0327 35.8533 46.7825 35.7391 46.5701 35.5747L44.7333 37.9466C45.317 38.3986 46.0119 38.7175 46.7711 38.8546L47.3046 35.9025ZM29.9999 50.0623C38.2485 50.0623 45.331 45.0846 48.414 37.9753L45.6617 36.7818C43.0372 42.8337 37.0107 47.0623 29.9999 47.0623V50.0623ZM10.5908 35.0952C12.8458 43.7068 20.6787 50.0623 29.9999 50.0623V47.0623C22.0764 47.0623 15.4109 41.6599 13.4929 34.3353L10.5908 35.0952Z" fill="#F8F9FA" mask="url(#path-1-outside-1_50_9988)"/>
<circle cx="30" cy="29.9998" r="19.5623" fill="#FFA94D" stroke="#212529" stroke-width="2"/>
<g style="mix-blend-mode:multiply">
<path d="M18.913 37.5233C15.8895 38.3596 13.0965 37.1748 12.078 36.4779L10.7109 31.8944L17.8677 33.7439L22.9337 30.5273L23.8986 33.7439C23.4966 34.6552 21.9366 36.687 18.913 37.5233Z" fill="#E9ECEF"/>
</g>
<g style="mix-blend-mode:multiply">
<path d="M39.1898 41.7891C37.7761 41.1653 37.0426 38.9096 37.0909 37.5344L39.1898 35.3631L47.0067 32.3232L48.1648 36.4488C47.6581 37.7516 46.4856 40.473 45.8487 40.9363C45.4007 41.262 40.2755 47.1587 36.7383 47.4259C36.4781 47.503 38.2058 46.4912 39.564 45.1227C40.7438 43.9339 41.592 42.3672 41.2766 42.3701C40.5979 42.3765 39.8772 42.0923 39.1898 41.7891Z" fill="#E9ECEF"/>
</g>
<circle cx="30.0001" cy="29.9999" r="6.81147" fill="#F8F9FA" stroke="#212529" stroke-width="2"/>
<path fill-rule="evenodd" clip-rule="evenodd" d="M16.9077 35.0862C12.6464 35.0862 9.65247 31.9131 9.65247 29.7453C9.83614 23.2275 15.2911 9.68664 29.9832 9.84811C44.6753 10.0096 50.1227 22.5034 50.5207 28.8401C50.5207 29.5747 50.2767 30.3124 49.8143 30.984V34.2267C49.8143 35.4434 48.828 36.4297 47.6113 36.4297C46.3946 36.4297 45.4083 35.4434 45.4083 34.2267V33.5532C45.1638 33.5989 44.9116 33.6362 44.652 33.6645V36.7265C44.652 38.5401 43.1818 40.0103 41.3682 40.0103H40.9187C39.1051 40.0103 37.6349 38.5401 37.6349 36.7265V30.1301C37.6031 29.9931 37.5824 29.8639 37.5714 29.7453C37.2653 27.4218 35.8164 23.1409 30.3061 23.1409C24.7957 23.1409 23.2096 27.4218 23.1484 29.7453C22.9953 31.5256 21.169 35.0862 16.9077 35.0862Z" fill="#FAA2C1"/>
<path d="M9.65247 29.7453L8.85278 29.7227L8.85247 29.734V29.7453H9.65247ZM29.9832 9.84811L29.9744 10.6481L29.9832 9.84811ZM50.5207 28.8401H51.3207V28.815L51.3191 28.7899L50.5207 28.8401ZM49.8143 30.984L49.1554 30.5303L49.0143 30.7352V30.984H49.8143ZM45.4083 33.5532H46.2083V32.5897L45.2612 32.7668L45.4083 33.5532ZM44.652 33.6645L44.5654 32.8692L43.852 32.9469V33.6645H44.652ZM37.6349 30.1301H38.4349V30.0385L38.4141 29.9492L37.6349 30.1301ZM37.5714 29.7453L38.368 29.6718L38.3666 29.6562L38.3646 29.6408L37.5714 29.7453ZM23.1484 29.7453L23.9455 29.8138L23.9475 29.7901L23.9481 29.7663L23.1484 29.7453ZM8.85247 29.7453C8.85247 31.1572 9.78984 32.6968 11.1709 33.844C12.5837 35.0176 14.5753 35.8862 16.9077 35.8862V34.2862C14.9789 34.2862 13.3428 33.5682 12.1933 32.6133C11.0121 31.6321 10.4525 30.5012 10.4525 29.7453H8.85247ZM29.992 9.04816C22.36 8.96428 17.0976 12.4541 13.7437 16.8035C10.4139 21.1213 8.94923 26.3003 8.85278 29.7227L10.4521 29.7678C10.5394 26.6725 11.894 21.8222 15.0107 17.7805C18.1031 13.7703 22.9143 10.5705 29.9744 10.6481L29.992 9.04816ZM51.3191 28.7899C51.1101 25.4627 49.5905 20.5921 46.2292 16.5192C42.845 12.4185 37.5947 9.13172 29.992 9.04816L29.9744 10.6481C37.0638 10.726 41.8832 13.7668 44.9952 17.5376C48.1301 21.3362 49.5332 25.8808 49.7222 28.8902L51.3191 28.7899ZM50.4732 31.4377C51.0164 30.6487 51.3207 29.7553 51.3207 28.8401H49.7207C49.7207 29.3941 49.537 29.976 49.1554 30.5303L50.4732 31.4377ZM49.0143 30.984V34.2267H50.6143V30.984H49.0143ZM49.0143 34.2267C49.0143 35.0016 48.3861 35.6297 47.6113 35.6297V37.2297C49.2698 37.2297 50.6143 35.8852 50.6143 34.2267H49.0143ZM47.6113 35.6297C46.8364 35.6297 46.2083 35.0016 46.2083 34.2267H44.6083C44.6083 35.8852 45.9528 37.2297 47.6113 37.2297V35.6297ZM46.2083 34.2267V33.5532H44.6083V34.2267H46.2083ZM44.7386 34.4598C45.0181 34.4294 45.2905 34.3891 45.5554 34.3395L45.2612 32.7668C45.0371 32.8087 44.8051 32.8431 44.5654 32.8692L44.7386 34.4598ZM45.452 36.7265V33.6645H43.852V36.7265H45.452ZM41.3682 40.8103C43.6236 40.8103 45.452 38.9819 45.452 36.7265H43.852C43.852 38.0983 42.74 39.2103 41.3682 39.2103V40.8103ZM40.9187 40.8103H41.3682V39.2103H40.9187V40.8103ZM36.8349 36.7265C36.8349 38.9819 38.6632 40.8103 40.9187 40.8103V39.2103C39.5469 39.2103 38.4349 38.0983 38.4349 36.7265H36.8349ZM36.8349 30.1301V36.7265H38.4349V30.1301H36.8349ZM36.7748 29.8187C36.7893 29.9759 36.8161 30.1411 36.8556 30.311L38.4141 29.9492C38.39 29.8452 38.3754 29.7519 38.368 29.6718L36.7748 29.8187ZM30.3061 23.9409C32.8206 23.9409 34.3298 24.9026 35.2658 26.0718C36.2301 27.2763 36.6357 28.7678 36.7783 29.8498L38.3646 29.6408C38.201 28.3993 37.7291 26.5886 36.5148 25.0718C35.2723 23.5198 33.3019 22.3409 30.3061 22.3409V23.9409ZM23.9481 29.7663C23.975 28.7456 24.3436 27.2728 25.3075 26.0728C26.245 24.9057 27.7875 23.9409 30.3061 23.9409V22.3409C27.3143 22.3409 25.3086 23.5166 24.0601 25.0708C22.8381 26.5922 22.383 28.4215 22.3487 29.7242L23.9481 29.7663ZM16.9077 35.8862C19.2874 35.8862 21.0177 34.8826 22.1614 33.6205C23.2822 32.3839 23.8533 30.8858 23.9455 29.8138L22.3513 29.6767C22.2904 30.385 21.8719 31.5574 20.9759 32.5461C20.1028 33.5095 18.7893 34.2862 16.9077 34.2862V35.8862Z" fill="#212529"/>
<g style="mix-blend-mode:multiply">
<path fill-rule="evenodd" clip-rule="evenodd" d="M24.5746 10.312C25.3029 10.2527 26.0544 10.2261 26.8296 10.2346C42.7673 10.4098 48.6766 23.9628 49.1083 30.8367C49.1083 31.219 49.0474 31.602 48.9286 31.9776C50.1678 31.056 50.8464 29.8222 50.8464 28.5969C50.4484 22.2602 45.001 9.76642 30.3089 9.60495C28.2134 9.58192 26.3058 9.83763 24.5746 10.312ZM25.496 24.7896C20.8717 25.5709 19.4751 29.5528 19.4154 31.8186C19.3472 32.6117 18.9729 33.7306 18.2352 34.7738C21.7836 34.2697 23.3336 31.1361 23.4741 29.5021C23.5089 28.1818 24.0361 26.2293 25.496 24.7896Z" fill="#E9ECEF"/>
</g>
<path d="M23.7554 18.5059L21.4854 19.824" stroke="#FFD43B" stroke-linecap="round"/>
<path d="M28.6605 16.2632L27.3424 13.9932" stroke="#FFC078" stroke-linecap="round"/>
<path d="M18.2351 24.0404L16.3744 22.1888" stroke="#F8F9FA" stroke-linecap="round"/>
<path d="M18.2352 28.4664L15.7097 29.1825" stroke="#91A7FF" stroke-linecap="round"/>
<path d="M36.7587 18.1637L34.2248 18.8494" stroke="#91A7FF" stroke-linecap="round"/>
<path d="M43.0261 26.5515L41.7192 28.8281" stroke="#FFD43B" stroke-linecap="round"/>
<path d="M44.9112 21.8615L42.4593 20.9241" stroke="#F8F9FA" stroke-linecap="round"/>
<g style="mix-blend-mode:soft-light" opacity="0.6">
<path d="M19.1696 15.9083C18.0571 15.6605 16.2061 17.6617 15.111 19.3103C13.9911 20.9963 12.6061 23.7391 13.6883 24.2542C14.7706 24.7693 16.6203 21.2746 16.9939 20.3433C17.8717 18.6289 20.2821 16.156 19.1696 15.9083Z" fill="#F8F9FA"/>
</g>
</svg>
