<svg width="60" height="61" viewBox="0 0 60 61" fill="none" xmlns="http://www.w3.org/2000/svg">
<path d="M13.1335 30.3913C13.1335 21.0763 20.6849 13.5249 30 13.5249C39.315 13.5249 46.8664 21.0763 46.8664 30.3913C46.8664 39.7064 39.315 47.2577 30 47.2577C20.6849 47.2577 13.1335 39.7064 13.1335 30.3913ZM30 10.0249C18.7519 10.0249 9.63354 19.1433 9.63354 30.3913C9.63354 41.6394 18.7519 50.7577 30 50.7577C41.248 50.7577 50.3664 41.6394 50.3664 30.3913C50.3664 19.1433 41.248 10.0249 30 10.0249Z" fill="#F8F9FA" stroke="#F8F9FA" stroke-width="1.5" stroke-linecap="round" stroke-linejoin="round"/>
<circle cx="30" cy="30.3913" r="18.6164" fill="#FFD43B" stroke="#212529" stroke-width="2" stroke-linecap="round" stroke-linejoin="round"/>
<g style="mix-blend-mode:multiply">
<path fill-rule="evenodd" clip-rule="evenodd" d="M27.9342 47.344C37.7565 47.344 45.719 39.3815 45.719 29.5593C45.719 22.4787 41.5811 16.3645 35.5917 13.5029C42.6744 15.8468 47.7847 22.522 47.7847 30.3908C47.7847 40.213 39.8222 48.1755 30 48.1755C27.2583 48.1755 24.6616 47.5552 22.3425 46.4472C24.1009 47.029 25.9808 47.344 27.9342 47.344Z" fill="#FFD43B"/>
</g>
<g style="mix-blend-mode:soft-light" opacity="0.8">
<path d="M20.9719 19.1419C21.733 18.3678 20.8191 17.6249 19.9634 17.8212C19.2458 17.9858 17.4804 19.6543 16.5909 21.3403C15.7014 23.0262 17.0362 23.7713 17.5534 23.1624C18.0705 22.5536 20.0206 20.1096 20.9719 19.1419Z" fill="#F8F9FA"/>
</g>
<path d="M24.3586 27.0749C25.2488 27.0749 25.9704 26.3644 25.9704 25.4879C25.9704 24.6114 25.2488 23.9009 24.3586 23.9009C23.4685 23.9009 22.7468 24.6114 22.7468 25.4879C22.7468 26.3644 23.4685 27.0749 24.3586 27.0749Z" fill="#212529"/>
<path d="M35.6412 27.0749C36.5314 27.0749 37.253 26.3644 37.253 25.4879C37.253 24.6114 36.5314 23.9009 35.6412 23.9009C34.751 23.9009 34.0294 24.6114 34.0294 25.4879C34.0294 26.3644 34.751 27.0749 35.6412 27.0749Z" fill="#212529"/>
<path d="M23.613 35.8491H36.3869" stroke="#212529" stroke-width="2" stroke-linecap="round" stroke-linejoin="round"/>
</svg>
