<svg width="60" height="60" viewBox="0 0 60 60" fill="none" xmlns="http://www.w3.org/2000/svg">
<mask id="path-1-outside-1_50_6795" maskUnits="userSpaceOnUse" x="5.71985" y="6.28418" width="49" height="47" fill="black">
<rect fill="white" x="5.71985" y="6.28418" width="49" height="47"/>
<path fill-rule="evenodd" clip-rule="evenodd" d="M32.077 9.59678C31.7113 8.82789 30.9312 8.29417 30.0255 8.28432C30.0198 8.2842 30.0141 8.28415 30.0083 8.28419C30.0056 8.28418 30.0028 8.28418 30 8.28418C29.0818 8.28418 28.2893 8.82256 27.921 9.60087L12.6893 20.1322H10.6198C9.01822 20.1322 7.71985 21.4306 7.71985 23.0322V48.8155C7.71985 50.4172 9.01822 51.7155 10.6198 51.7155H49.3801C50.9817 51.7155 52.2801 50.4172 52.2801 48.8155V23.0322C52.2801 21.4306 50.9817 20.1322 49.3801 20.1322H47.1288L32.077 9.59678ZM28.9224 10.3674L30.0105 9.61508L31.0762 10.3611C31.0909 10.4327 31.0986 10.5069 31.0986 10.5829C31.0986 11.1896 30.6067 11.6815 30 11.6815C29.3932 11.6815 28.9013 11.1896 28.9013 10.5829C28.9013 10.5091 28.9086 10.4371 28.9224 10.3674ZM27.7746 11.161C28.031 12.1507 28.9301 12.8815 30 12.8815C31.0685 12.8815 31.9667 12.1525 32.2244 11.1647L45.0362 20.1322H14.7994L27.7746 11.161ZM10.6198 21.9322C10.0123 21.9322 9.51985 22.4247 9.51985 23.0322V48.8155C9.51985 49.423 10.0123 49.9155 10.6198 49.9155H49.3801C49.9876 49.9155 50.4801 49.423 50.4801 48.8155V23.0322C50.4801 22.4247 49.9876 21.9322 49.3801 21.9322H10.6198Z"/>
</mask>
<path fill-rule="evenodd" clip-rule="evenodd" d="M32.077 9.59678C31.7113 8.82789 30.9312 8.29417 30.0255 8.28432C30.0198 8.2842 30.0141 8.28415 30.0083 8.28419C30.0056 8.28418 30.0028 8.28418 30 8.28418C29.0818 8.28418 28.2893 8.82256 27.921 9.60087L12.6893 20.1322H10.6198C9.01822 20.1322 7.71985 21.4306 7.71985 23.0322V48.8155C7.71985 50.4172 9.01822 51.7155 10.6198 51.7155H49.3801C50.9817 51.7155 52.2801 50.4172 52.2801 48.8155V23.0322C52.2801 21.4306 50.9817 20.1322 49.3801 20.1322H47.1288L32.077 9.59678ZM28.9224 10.3674L30.0105 9.61508L31.0762 10.3611C31.0909 10.4327 31.0986 10.5069 31.0986 10.5829C31.0986 11.1896 30.6067 11.6815 30 11.6815C29.3932 11.6815 28.9013 11.1896 28.9013 10.5829C28.9013 10.5091 28.9086 10.4371 28.9224 10.3674ZM27.7746 11.161C28.031 12.1507 28.9301 12.8815 30 12.8815C31.0685 12.8815 31.9667 12.1525 32.2244 11.1647L45.0362 20.1322H14.7994L27.7746 11.161ZM10.6198 21.9322C10.0123 21.9322 9.51985 22.4247 9.51985 23.0322V48.8155C9.51985 49.423 10.0123 49.9155 10.6198 49.9155H49.3801C49.9876 49.9155 50.4801 49.423 50.4801 48.8155V23.0322C50.4801 22.4247 49.9876 21.9322 49.3801 21.9322H10.6198Z" fill="#F8F9FA"/>
<path d="M30.0255 8.28432L29.9933 9.78397C29.9986 9.78409 30.0039 9.78417 30.0092 9.78423L30.0255 8.28432ZM32.077 9.59678L30.7224 10.241C30.8339 10.4754 31.0042 10.6768 31.2168 10.8257L32.077 9.59678ZM30.0083 8.28419L30.003 9.78419C30.0083 9.7842 30.0136 9.78419 30.0189 9.78416L30.0083 8.28419ZM27.921 9.60087L28.7741 10.8347C28.9908 10.6848 29.1642 10.4806 29.2769 10.2424L27.921 9.60087ZM12.6893 20.1322V21.6322C12.9941 21.6322 13.2917 21.5394 13.5424 21.366L12.6893 20.1322ZM47.1288 20.1322L46.2687 21.3611C46.5208 21.5376 46.8211 21.6322 47.1288 21.6322V20.1322ZM30.0105 9.61508L30.8706 8.3862C30.3568 8.02652 29.6733 8.02456 29.1574 8.38128L30.0105 9.61508ZM28.9224 10.3674L28.0693 9.13358C27.7489 9.35515 27.5272 9.69271 27.4512 10.0748L28.9224 10.3674ZM31.0762 10.3611L32.5457 10.0598C32.4687 9.68409 32.2506 9.35213 31.9364 9.13218L31.0762 10.3611ZM27.7746 11.161L29.2267 10.7848C29.1038 10.3105 28.7569 9.92602 28.2977 9.75514C27.8384 9.58427 27.3246 9.6485 26.9215 9.92719L27.7746 11.161ZM32.2244 11.1647L33.0845 9.9358C32.6822 9.65419 32.1675 9.58736 31.7065 9.7569C31.2456 9.92644 30.8969 10.3109 30.7729 10.7861L32.2244 11.1647ZM45.0362 20.1322V21.6322C45.6909 21.6322 46.27 21.2076 46.4668 20.5832C46.6636 19.9587 46.4327 19.2788 45.8963 18.9034L45.0362 20.1322ZM14.7994 20.1322L13.9463 18.8984C13.4065 19.2717 13.172 19.9525 13.3675 20.5791C13.563 21.2056 14.1431 21.6322 14.7994 21.6322V20.1322ZM30.0092 9.78423C30.3212 9.78762 30.5937 9.97043 30.7224 10.241L33.4316 8.95254C32.8289 7.68535 31.5413 6.80072 30.0418 6.78441L30.0092 9.78423ZM30.0577 6.78466C30.0377 6.78424 30.0177 6.78409 29.9978 6.78423L30.0189 9.78416C30.0104 9.78422 30.0018 9.78416 29.9933 9.78397L30.0577 6.78466ZM30 9.78418C30.001 9.78418 30.002 9.78418 30.003 9.78419L30.0137 6.7842C30.0091 6.78419 30.0045 6.78418 30 6.78418V9.78418ZM29.2769 10.2424C29.4065 9.96854 29.6832 9.78418 30 9.78418V6.78418C28.4803 6.78418 27.1721 7.67658 26.5651 8.95931L29.2769 10.2424ZM27.0679 8.36707L11.8363 18.8984L13.5424 21.366L28.7741 10.8347L27.0679 8.36707ZM12.6893 18.6322H10.6198V21.6322H12.6893V18.6322ZM10.6198 18.6322C8.18979 18.6322 6.21985 20.6022 6.21985 23.0322H9.21985C9.21985 22.259 9.84665 21.6322 10.6198 21.6322V18.6322ZM6.21985 23.0322V48.8155H9.21985V23.0322H6.21985ZM6.21985 48.8155C6.21985 51.2456 8.1898 53.2155 10.6198 53.2155V50.2155C9.84665 50.2155 9.21985 49.5887 9.21985 48.8155H6.21985ZM10.6198 53.2155H49.3801V50.2155H10.6198V53.2155ZM49.3801 53.2155C51.8101 53.2155 53.7801 51.2456 53.7801 48.8155H50.7801C50.7801 49.5887 50.1533 50.2155 49.3801 50.2155V53.2155ZM53.7801 48.8155V23.0322H50.7801V48.8155H53.7801ZM53.7801 23.0322C53.7801 20.6022 51.8101 18.6322 49.3801 18.6322V21.6322C50.1533 21.6322 50.7801 22.259 50.7801 23.0322H53.7801ZM49.3801 18.6322H47.1288V21.6322H49.3801V18.6322ZM47.989 18.9034L32.9371 8.3679L31.2168 10.8257L46.2687 21.3611L47.989 18.9034ZM29.1574 8.38128L28.0693 9.13358L29.7755 11.6012L30.8635 10.8489L29.1574 8.38128ZM31.9364 9.13218L30.8706 8.3862L29.1503 10.844L30.2161 11.5899L31.9364 9.13218ZM32.5986 10.5829C32.5986 10.4051 32.5806 10.23 32.5457 10.0598L29.6068 10.6623C29.6013 10.6354 29.5986 10.6086 29.5986 10.5829H32.5986ZM30 13.1815C31.4352 13.1815 32.5986 12.0181 32.5986 10.5829H29.5986C29.5986 10.3612 29.7783 10.1815 30 10.1815V13.1815ZM27.4013 10.5829C27.4013 12.0181 28.5648 13.1815 30 13.1815V10.1815C30.2216 10.1815 30.4013 10.3612 30.4013 10.5829H27.4013ZM27.4512 10.0748C27.4183 10.2403 27.4013 10.4104 27.4013 10.5829H30.4013C30.4013 10.6079 30.3988 10.6338 30.3936 10.6599L27.4512 10.0748ZM30 11.3815C29.6303 11.3815 29.3158 11.129 29.2267 10.7848L26.3225 11.5372C26.7461 13.1723 28.2299 14.3815 30 14.3815V11.3815ZM30.7729 10.7861C30.6833 11.1297 30.3691 11.3815 30 11.3815V14.3815C31.7678 14.3815 33.2501 13.1753 33.6758 11.5433L30.7729 10.7861ZM45.8963 18.9034L33.0845 9.9358L31.3642 12.3936L44.176 21.3611L45.8963 18.9034ZM14.7994 21.6322H45.0362V18.6322H14.7994V21.6322ZM26.9215 9.92719L13.9463 18.8984L15.6524 21.366L28.6277 12.3948L26.9215 9.92719ZM11.0198 23.0322C11.0198 23.2532 10.8408 23.4322 10.6198 23.4322V20.4322C9.18391 20.4322 8.01985 21.5963 8.01985 23.0322H11.0198ZM11.0198 48.8155V23.0322H8.01985V48.8155H11.0198ZM10.6198 48.4155C10.8408 48.4155 11.0198 48.5946 11.0198 48.8155H8.01985C8.01985 50.2515 9.18391 51.4155 10.6198 51.4155V48.4155ZM49.3801 48.4155H10.6198V51.4155H49.3801V48.4155ZM48.9801 48.8155C48.9801 48.5946 49.1592 48.4155 49.3801 48.4155V51.4155C50.816 51.4155 51.9801 50.2515 51.9801 48.8155H48.9801ZM48.9801 23.0322V48.8155H51.9801V23.0322H48.9801ZM49.3801 23.4322C49.1592 23.4322 48.9801 23.2532 48.9801 23.0322H51.9801C51.9801 21.5963 50.816 20.4322 49.3801 20.4322V23.4322ZM10.6198 23.4322H49.3801V20.4322H10.6198V23.4322Z" fill="#F8F9FA" mask="url(#path-1-outside-1_50_6795)"/>
<rect x="8.61987" y="20.9746" width="42.7602" height="29.7833" rx="2" fill="#FFE066" stroke="#212529" stroke-width="1.6" stroke-linecap="round" stroke-linejoin="round"/>
<rect x="11.9446" y="24.1792" width="36.1107" height="23.3741" fill="#EDF2FF" stroke="#212529" stroke-linecap="round" stroke-linejoin="round"/>
<g style="mix-blend-mode:multiply">
<path fill-rule="evenodd" clip-rule="evenodd" d="M48.0554 24.2207H11.9447V47.5948H13.078V25.3182H48.0554V24.2207Z" fill="#DEE2E6"/>
</g>
<path d="M12.9788 20.6041L30.0126 8.82666L46.8389 20.6041" stroke="#212529" stroke-width="1.2" stroke-linecap="round" stroke-linejoin="round"/>
<circle cx="29.9999" cy="10.5253" r="1.69867" fill="#FA5252" stroke="#212529" stroke-width="1.2" stroke-linecap="round" stroke-linejoin="round"/>
<g opacity="0.1">
<path d="M15.5863 40.646C19.5291 37.711 21.9649 36.3405 26.6541 34.2852C28.4531 37.202 33.4555 40.3327 35.9409 40.646" stroke="#212529" stroke-width="1.6" stroke-linecap="round" stroke-linejoin="round"/>
<path d="M32.0508 38.4734C33.6684 37.0622 34.8761 36.4279 37.3937 35.2729C38.4476 37.415 42.0653 39.6302 44.4137 40.0811" stroke="#212529" stroke-width="1.6" stroke-linecap="round" stroke-linejoin="round"/>
<circle cx="42.391" cy="32.7344" r="1.55077" stroke="#212529" stroke-linecap="round" stroke-linejoin="round"/>
</g>
<path d="M9.26807 21.6494L11.7765 23.8443" stroke="#212529" stroke-linecap="round"/>
<path d="M50.5636 21.6909L48.0552 23.8858" stroke="#212529" stroke-linecap="round"/>
<path d="M9.26807 49.7896L11.7765 47.5946" stroke="#212529" stroke-linecap="round"/>
<path d="M50.5636 49.748L48.0552 47.5531" stroke="#212529" stroke-linecap="round"/>
<g style="mix-blend-mode:multiply">
<path d="M50.5824 22.1318L48.158 24.2219V47.4633L50.5824 49.637V22.1318Z" fill="#DEE2E6"/>
</g>
</svg>
