<svg width="60" height="58" viewBox="0 0 60 58" fill="none" xmlns="http://www.w3.org/2000/svg">
<mask id="path-1-outside-1_50_9367" maskUnits="userSpaceOnUse" x="8.76001" y="4.49023" width="42" height="49" fill="black">
<rect fill="white" x="8.76001" y="4.49023" width="42" height="49"/>
<path fill-rule="evenodd" clip-rule="evenodd" d="M34.6833 8.29835C34.2885 7.96522 33.7407 8.04636 33.4741 8.42745C32.7329 9.48708 31.7188 11.0349 30.8533 12.7009C31.4078 12.4738 32.0067 12.2978 32.6448 12.2042C33.3607 11.267 34.0837 10.4802 34.685 9.87855C35.1535 9.40975 35.1122 8.66024 34.6833 8.29835ZM29.1557 12.5122C28.9758 12.8774 28.8016 13.2518 28.6381 13.6313C26.6037 12.661 24.0757 11.9111 21.7491 12.9195C20.4086 13.5004 19.4718 14.527 18.7874 15.5155C18.4979 15.9336 18.2312 16.3826 17.9941 16.8042C16.4817 16.9563 15.2263 17.4434 14.2128 18.2614C12.9805 19.2559 12.2097 20.6561 11.7172 22.2554C10.7598 25.3639 10.7599 29.5802 10.76 33.9924L10.76 34.1314C10.76 38.7863 11.787 43.0698 13.6713 46.2257C15.5609 49.3904 18.3828 51.5104 21.9172 51.5104C23.3106 51.5104 24.455 51.1737 25.3388 50.4802C26.6525 51.1594 28.201 51.5105 30 51.5105C31.7232 51.5105 33.2165 51.1884 34.4938 50.5644C34.5619 50.5524 34.6294 50.5333 34.6952 50.5066C35.5743 51.1823 36.7072 51.5104 38.0828 51.5104C41.6172 51.5104 44.4392 49.3904 46.3287 46.2257C48.213 43.0698 49.24 38.7863 49.24 34.1314V33.9924C49.2401 29.5801 49.2402 25.3639 48.2829 22.2554C47.7903 20.6561 47.0195 19.2559 45.7872 18.2614C44.9199 17.5614 43.8753 17.1037 42.6442 16.8909C40.5629 13.8356 37.4697 12.7155 34.9694 12.2502C34.8807 12.2337 34.7925 12.219 34.7048 12.206C35.0921 11.7573 35.4703 11.3562 35.8167 11.0096C36.8745 9.95113 36.9365 8.106 35.7151 7.07547C34.6409 6.16918 32.9981 6.31651 32.163 7.51037C31.3228 8.71157 30.1224 10.5491 29.1557 12.5122ZM36.2719 49.1466C36.7116 49.3738 37.2924 49.5104 38.0828 49.5104C40.7049 49.5104 42.9615 47.9638 44.6115 45.2004C46.2666 42.4284 47.24 38.5224 47.24 34.1314C47.24 29.5482 47.2298 25.6309 46.3715 22.8441C45.9512 21.4793 45.3528 20.4809 44.5311 19.8178C44.3496 19.6712 44.1519 19.5369 43.9359 19.4166C43.967 19.5001 43.9976 19.5846 44.0275 19.67C44.1378 19.9849 44.0838 20.334 43.8836 20.6009C43.6834 20.8677 43.3633 21.0171 43.0301 20.9992L30.7216 20.338C30.6759 20.3737 30.6258 20.4046 30.5722 20.4299C30.3176 20.5502 30.0185 20.5278 29.7846 20.3709L29.6499 20.2805L18.0606 19.6579C17.7127 19.6392 17.3996 19.4408 17.2342 19.1341C17.2068 19.0834 17.1841 19.0309 17.1662 18.9773C16.4766 19.1617 15.9225 19.4516 15.4689 19.8178C14.6473 20.4809 14.0489 21.4793 13.6286 22.8441C12.7703 25.6309 12.76 29.5482 12.76 34.1314C12.76 38.5224 13.7334 42.4284 15.3885 45.2004C17.0385 47.9638 19.2951 49.5104 21.9172 49.5104C22.6837 49.5104 23.2531 49.382 23.6877 49.167C23.2303 48.6505 22.8416 48.0418 22.5281 47.3925C21.9587 46.2137 21.5982 44.8239 21.5318 43.412C21.5059 42.8604 21.9321 42.3921 22.4838 42.3662C23.0354 42.3403 23.5037 42.7665 23.5296 43.3181C23.5834 44.4634 23.878 45.589 24.329 46.5227C24.7859 47.4687 25.3656 48.1426 25.9354 48.4834C26.0086 48.5272 26.0742 48.5789 26.1317 48.6367C27.1434 49.1895 28.4056 49.5105 30 49.5105C31.7551 49.5105 33.1076 49.1215 34.1666 48.4627C34.6154 48.085 35.0529 47.5075 35.4139 46.7602C35.8648 45.8265 36.1594 44.7009 36.2133 43.5557C36.2392 43.004 36.7074 42.5778 37.2591 42.6037C37.8108 42.6297 38.237 43.0979 38.211 43.6496C38.1447 45.0614 37.7842 46.4512 37.2148 47.6301C36.952 48.1742 36.6364 48.6899 36.2719 49.1466ZM39.9718 16.7944C38.3855 15.2234 36.3984 14.5505 34.6035 14.2165C34.1254 14.1275 33.663 14.1106 33.2184 14.1508C32.9372 14.5718 32.6673 15.0146 32.4183 15.4764C34.3783 15.786 35.9258 16.4976 37.1192 17.5863C37.9463 17.1549 38.8955 16.891 39.9718 16.7944ZM30.7045 15.3128C30.7758 15.1663 30.8491 15.0216 30.9241 14.8787C30.6857 15.0086 30.4566 15.1506 30.2371 15.3007C30.395 15.3027 30.5509 15.3067 30.7045 15.3128ZM29.1767 17.3201C29.4136 17.3077 29.6585 17.3007 29.9117 17.2994C29.8122 17.6198 29.7245 17.946 29.6508 18.2776L29.5268 18.271L29.1207 17.9984C29.1252 17.7808 29.1443 17.5543 29.1767 17.3201ZM27.7937 15.4448C25.9146 14.5473 24.0658 14.0951 22.5444 14.7545C21.6861 15.1265 21.0114 15.8168 20.4317 16.654C20.3922 16.7111 20.3537 16.7679 20.316 16.8246C21.2745 16.94 22.1282 17.1938 22.8809 17.5863C24.1169 16.4587 25.7329 15.7355 27.7937 15.4448ZM25.7539 18.0683C26.2747 17.8312 26.8678 17.643 27.5459 17.5121C27.5269 17.7323 27.5179 17.9496 27.52 18.1632L25.7539 18.0683ZM31.5701 17.3799C33.1035 17.5477 34.2604 17.9695 35.1479 18.5729L31.274 18.3648C31.3574 18.0309 31.4569 17.7024 31.5701 17.3799ZM39.8164 18.8237C40.1606 18.7771 40.5333 18.7524 40.9373 18.7524C41.1132 18.7524 41.2832 18.7571 41.4475 18.7662C41.4746 18.8155 41.5013 18.8653 41.5278 18.9157L39.8164 18.8237Z"/>
</mask>
<path fill-rule="evenodd" clip-rule="evenodd" d="M34.6833 8.29835C34.2885 7.96522 33.7407 8.04636 33.4741 8.42745C32.7329 9.48708 31.7188 11.0349 30.8533 12.7009C31.4078 12.4738 32.0067 12.2978 32.6448 12.2042C33.3607 11.267 34.0837 10.4802 34.685 9.87855C35.1535 9.40975 35.1122 8.66024 34.6833 8.29835ZM29.1557 12.5122C28.9758 12.8774 28.8016 13.2518 28.6381 13.6313C26.6037 12.661 24.0757 11.9111 21.7491 12.9195C20.4086 13.5004 19.4718 14.527 18.7874 15.5155C18.4979 15.9336 18.2312 16.3826 17.9941 16.8042C16.4817 16.9563 15.2263 17.4434 14.2128 18.2614C12.9805 19.2559 12.2097 20.6561 11.7172 22.2554C10.7598 25.3639 10.7599 29.5802 10.76 33.9924L10.76 34.1314C10.76 38.7863 11.787 43.0698 13.6713 46.2257C15.5609 49.3904 18.3828 51.5104 21.9172 51.5104C23.3106 51.5104 24.455 51.1737 25.3388 50.4802C26.6525 51.1594 28.201 51.5105 30 51.5105C31.7232 51.5105 33.2165 51.1884 34.4938 50.5644C34.5619 50.5524 34.6294 50.5333 34.6952 50.5066C35.5743 51.1823 36.7072 51.5104 38.0828 51.5104C41.6172 51.5104 44.4392 49.3904 46.3287 46.2257C48.213 43.0698 49.24 38.7863 49.24 34.1314V33.9924C49.2401 29.5801 49.2402 25.3639 48.2829 22.2554C47.7903 20.6561 47.0195 19.2559 45.7872 18.2614C44.9199 17.5614 43.8753 17.1037 42.6442 16.8909C40.5629 13.8356 37.4697 12.7155 34.9694 12.2502C34.8807 12.2337 34.7925 12.219 34.7048 12.206C35.0921 11.7573 35.4703 11.3562 35.8167 11.0096C36.8745 9.95113 36.9365 8.106 35.7151 7.07547C34.6409 6.16918 32.9981 6.31651 32.163 7.51037C31.3228 8.71157 30.1224 10.5491 29.1557 12.5122ZM36.2719 49.1466C36.7116 49.3738 37.2924 49.5104 38.0828 49.5104C40.7049 49.5104 42.9615 47.9638 44.6115 45.2004C46.2666 42.4284 47.24 38.5224 47.24 34.1314C47.24 29.5482 47.2298 25.6309 46.3715 22.8441C45.9512 21.4793 45.3528 20.4809 44.5311 19.8178C44.3496 19.6712 44.1519 19.5369 43.9359 19.4166C43.967 19.5001 43.9976 19.5846 44.0275 19.67C44.1378 19.9849 44.0838 20.334 43.8836 20.6009C43.6834 20.8677 43.3633 21.0171 43.0301 20.9992L30.7216 20.338C30.6759 20.3737 30.6258 20.4046 30.5722 20.4299C30.3176 20.5502 30.0185 20.5278 29.7846 20.3709L29.6499 20.2805L18.0606 19.6579C17.7127 19.6392 17.3996 19.4408 17.2342 19.1341C17.2068 19.0834 17.1841 19.0309 17.1662 18.9773C16.4766 19.1617 15.9225 19.4516 15.4689 19.8178C14.6473 20.4809 14.0489 21.4793 13.6286 22.8441C12.7703 25.6309 12.76 29.5482 12.76 34.1314C12.76 38.5224 13.7334 42.4284 15.3885 45.2004C17.0385 47.9638 19.2951 49.5104 21.9172 49.5104C22.6837 49.5104 23.2531 49.382 23.6877 49.167C23.2303 48.6505 22.8416 48.0418 22.5281 47.3925C21.9587 46.2137 21.5982 44.8239 21.5318 43.412C21.5059 42.8604 21.9321 42.3921 22.4838 42.3662C23.0354 42.3403 23.5037 42.7665 23.5296 43.3181C23.5834 44.4634 23.878 45.589 24.329 46.5227C24.7859 47.4687 25.3656 48.1426 25.9354 48.4834C26.0086 48.5272 26.0742 48.5789 26.1317 48.6367C27.1434 49.1895 28.4056 49.5105 30 49.5105C31.7551 49.5105 33.1076 49.1215 34.1666 48.4627C34.6154 48.085 35.0529 47.5075 35.4139 46.7602C35.8648 45.8265 36.1594 44.7009 36.2133 43.5557C36.2392 43.004 36.7074 42.5778 37.2591 42.6037C37.8108 42.6297 38.237 43.0979 38.211 43.6496C38.1447 45.0614 37.7842 46.4512 37.2148 47.6301C36.952 48.1742 36.6364 48.6899 36.2719 49.1466ZM39.9718 16.7944C38.3855 15.2234 36.3984 14.5505 34.6035 14.2165C34.1254 14.1275 33.663 14.1106 33.2184 14.1508C32.9372 14.5718 32.6673 15.0146 32.4183 15.4764C34.3783 15.786 35.9258 16.4976 37.1192 17.5863C37.9463 17.1549 38.8955 16.891 39.9718 16.7944ZM30.7045 15.3128C30.7758 15.1663 30.8491 15.0216 30.9241 14.8787C30.6857 15.0086 30.4566 15.1506 30.2371 15.3007C30.395 15.3027 30.5509 15.3067 30.7045 15.3128ZM29.1767 17.3201C29.4136 17.3077 29.6585 17.3007 29.9117 17.2994C29.8122 17.6198 29.7245 17.946 29.6508 18.2776L29.5268 18.271L29.1207 17.9984C29.1252 17.7808 29.1443 17.5543 29.1767 17.3201ZM27.7937 15.4448C25.9146 14.5473 24.0658 14.0951 22.5444 14.7545C21.6861 15.1265 21.0114 15.8168 20.4317 16.654C20.3922 16.7111 20.3537 16.7679 20.316 16.8246C21.2745 16.94 22.1282 17.1938 22.8809 17.5863C24.1169 16.4587 25.7329 15.7355 27.7937 15.4448ZM25.7539 18.0683C26.2747 17.8312 26.8678 17.643 27.5459 17.5121C27.5269 17.7323 27.5179 17.9496 27.52 18.1632L25.7539 18.0683ZM31.5701 17.3799C33.1035 17.5477 34.2604 17.9695 35.1479 18.5729L31.274 18.3648C31.3574 18.0309 31.4569 17.7024 31.5701 17.3799ZM39.8164 18.8237C40.1606 18.7771 40.5333 18.7524 40.9373 18.7524C41.1132 18.7524 41.2832 18.7571 41.4475 18.7662C41.4746 18.8155 41.5013 18.8653 41.5278 18.9157L39.8164 18.8237Z" fill="#F8F9FA"/>
<path d="M33.4741 8.42745L34.7033 9.28721L34.7033 9.28721L33.4741 8.42745ZM34.6833 8.29835L35.6506 7.1519L35.6506 7.1519L34.6833 8.29835ZM30.8533 12.7009L29.5222 12.0094C29.2321 12.5678 29.3214 13.2479 29.7458 13.7126C30.1701 14.1772 30.8394 14.3275 31.4217 14.089L30.8533 12.7009ZM32.6448 12.2042L32.8627 13.6882C33.2498 13.6314 33.5994 13.4256 33.8368 13.1147L32.6448 12.2042ZM34.685 9.87855L33.624 8.81819L33.624 8.81819L34.685 9.87855ZM28.6381 13.6313L27.9924 14.9852C28.3605 15.1607 28.7842 15.1788 29.1659 15.0354C29.5476 14.8919 29.8545 14.5992 30.0158 14.2247L28.6381 13.6313ZM29.1557 12.5122L30.5014 13.1748L30.5014 13.1748L29.1557 12.5122ZM21.7491 12.9195L21.1526 11.5432L21.1526 11.5432L21.7491 12.9195ZM18.7874 15.5155L20.0206 16.3694L20.0206 16.3694L18.7874 15.5155ZM17.9941 16.8042L18.1442 18.2967C18.6304 18.2478 19.0622 17.9652 19.3016 17.5393L17.9941 16.8042ZM14.2128 18.2614L15.1549 19.4287L15.1549 19.4287L14.2128 18.2614ZM11.7172 22.2554L10.2836 21.8139L10.2836 21.8139L11.7172 22.2554ZM10.76 33.9924L12.26 33.9924L12.26 33.9924L10.76 33.9924ZM10.76 34.1314L12.26 34.1314L12.26 34.1314L10.76 34.1314ZM13.6713 46.2257L14.9592 45.4568L14.9592 45.4568L13.6713 46.2257ZM25.3388 50.4802L26.0277 49.1478C25.506 48.878 24.8749 48.9376 24.4128 49.3001L25.3388 50.4802ZM34.4938 50.5644L34.2347 49.0869C34.0962 49.1112 33.9617 49.1549 33.8353 49.2166L34.4938 50.5644ZM34.6952 50.5066L35.6093 49.3173C35.1874 48.993 34.6252 48.9165 34.132 49.1164L34.6952 50.5066ZM46.3287 46.2257L45.0408 45.4568L45.0408 45.4568L46.3287 46.2257ZM49.24 33.9924L47.74 33.9924V33.9924H49.24ZM48.2829 22.2554L46.8493 22.6969L46.8493 22.6969L48.2829 22.2554ZM45.7872 18.2614L46.7293 17.0941L46.7293 17.0941L45.7872 18.2614ZM42.6442 16.8909L41.4045 17.7354C41.6332 18.0712 41.9883 18.2998 42.3887 18.369L42.6442 16.8909ZM34.9694 12.2502L35.2438 10.7755L35.2438 10.7755L34.9694 12.2502ZM34.7048 12.206L33.5693 11.2259C33.2119 11.6399 33.1082 12.2157 33.2987 12.7285C33.4893 13.2412 33.9438 13.6096 34.4849 13.6898L34.7048 12.206ZM35.8167 11.0096L34.7557 9.94924L34.7557 9.94924L35.8167 11.0096ZM35.7151 7.07547L34.7478 8.22192L34.7478 8.22192L35.7151 7.07547ZM32.163 7.51037L33.3922 8.37013L33.3922 8.37013L32.163 7.51037ZM36.2719 49.1466L35.0995 48.2109C34.8193 48.562 34.7112 49.0202 34.8049 49.4595C34.8986 49.8988 35.1842 50.273 35.5833 50.4792L36.2719 49.1466ZM44.6115 45.2004L43.3236 44.4315L43.3236 44.4315L44.6115 45.2004ZM46.3715 22.8441L47.805 22.4026L47.805 22.4026L46.3715 22.8441ZM44.5311 19.8178L43.5891 20.985L43.5891 20.985L44.5311 19.8178ZM43.9359 19.4166L44.6656 18.1061C44.1165 17.8003 43.435 17.8693 42.9584 18.2789C42.4817 18.6884 42.3109 19.3517 42.5304 19.9406L43.9359 19.4166ZM44.0275 19.67L42.6119 20.166L42.6119 20.166L44.0275 19.67ZM43.8836 20.6009L45.0834 21.5011L45.0834 21.5011L43.8836 20.6009ZM43.0301 20.9992L43.1106 19.5014L43.1106 19.5014L43.0301 20.9992ZM30.7216 20.338L30.8021 18.8402C30.4414 18.8208 30.0858 18.9323 29.8006 19.1541L30.7216 20.338ZM30.5722 20.4299L29.9314 19.0737L29.9314 19.0737L30.5722 20.4299ZM29.7846 20.3709L30.6205 19.1253L30.6205 19.1253L29.7846 20.3709ZM29.6499 20.2805L30.4858 19.0349C30.2613 18.8843 30.0003 18.7971 29.7304 18.7826L29.6499 20.2805ZM18.0606 19.6579L18.1411 18.1601L18.1411 18.1601L18.0606 19.6579ZM17.2342 19.1341L18.5544 18.422L18.5543 18.422L17.2342 19.1341ZM17.1662 18.9773L18.5883 18.5003C18.3364 17.7492 17.5439 17.3235 16.7787 17.5282L17.1662 18.9773ZM15.4689 19.8178L14.5268 18.6505L14.5268 18.6505L15.4689 19.8178ZM13.6286 22.8441L15.0621 23.2856L15.0621 23.2856L13.6286 22.8441ZM15.3885 45.2004L14.1006 45.9694L14.1006 45.9694L15.3885 45.2004ZM23.6877 49.167L24.3526 50.5117C24.7715 50.3045 25.07 49.914 25.1598 49.4554C25.2496 48.9967 25.1205 48.5225 24.8107 48.1726L23.6877 49.167ZM22.5281 47.3925L21.1773 48.0449L21.1773 48.0449L22.5281 47.3925ZM21.5318 43.412L20.0335 43.4825L20.0335 43.4825L21.5318 43.412ZM23.5296 43.3181L22.0313 43.3886L22.0313 43.3886L23.5296 43.3181ZM24.329 46.5227L22.9783 47.1751L22.9783 47.1751L24.329 46.5227ZM25.9354 48.4834L26.7054 47.1962L26.7054 47.1962L25.9354 48.4834ZM26.1317 48.6367L25.0682 49.6946C25.17 49.7969 25.2859 49.8839 25.4125 49.9531L26.1317 48.6367ZM34.1666 48.4627L34.959 49.7363C35.0197 49.6985 35.0777 49.6564 35.1324 49.6104L34.1666 48.4627ZM35.4139 46.7602L36.7646 47.4126L36.7646 47.4126L35.4139 46.7602ZM36.2133 43.5557L37.7116 43.6261L37.7116 43.6261L36.2133 43.5557ZM38.211 43.6496L36.7127 43.5792L36.7127 43.5792L38.211 43.6496ZM37.2148 47.6301L38.5655 48.2824L38.5655 48.2824L37.2148 47.6301ZM34.6035 14.2165L34.3291 15.6912L34.3291 15.6912L34.6035 14.2165ZM39.9718 16.7944L40.106 18.2884C40.6873 18.2361 41.1856 17.8515 41.3832 17.3023C41.5809 16.7532 41.442 16.1392 41.0273 15.7285L39.9718 16.7944ZM33.2184 14.1508L33.0834 12.6569C32.6318 12.6977 32.2229 12.9406 31.9711 13.3176L33.2184 14.1508ZM32.4183 15.4764L31.098 14.7646C30.8671 15.1927 30.8582 15.7063 31.0741 16.1422C31.29 16.5781 31.7038 16.8822 32.1843 16.9581L32.4183 15.4764ZM37.1192 17.5863L36.1082 18.6944C36.5735 19.1189 37.2543 19.2075 37.8128 18.9163L37.1192 17.5863ZM30.9241 14.8787L32.2522 15.5759C32.5594 14.9907 32.4474 14.2734 31.9764 13.8098C31.5054 13.3462 30.7865 13.2454 30.2062 13.5617L30.9241 14.8787ZM30.7045 15.3128L30.6456 16.8116C31.2404 16.835 31.7928 16.5045 32.0533 15.9692L30.7045 15.3128ZM30.2371 15.3007L29.3904 14.0625C28.8504 14.4318 28.612 15.1085 28.8013 15.7347C28.9906 16.3609 29.5639 16.7922 30.218 16.8006L30.2371 15.3007ZM29.9117 17.2994L31.3441 17.7447C31.4861 17.2881 31.4018 16.7912 31.1173 16.4069C30.8328 16.0226 30.3821 15.797 29.904 15.7994L29.9117 17.2994ZM29.1767 17.3201L29.0982 15.8222C28.38 15.8598 27.7895 16.402 27.6909 17.1144L29.1767 17.3201ZM29.6508 18.2776L29.5703 19.7755C30.3024 19.8148 30.9557 19.3191 31.115 18.6034L29.6508 18.2776ZM29.5268 18.271L28.691 19.5165C28.9154 19.6671 29.1764 19.7543 29.4463 19.7688L29.5268 18.271ZM29.1207 17.9984L27.621 17.9672C27.6104 18.4781 27.8605 18.9592 28.2848 19.244L29.1207 17.9984ZM22.5444 14.7545L23.1409 16.1308L23.1409 16.1308L22.5444 14.7545ZM27.7937 15.4448L28.0032 16.9301C28.6584 16.8376 29.1756 16.3269 29.2762 15.6729C29.3768 15.019 29.0372 14.3764 28.4401 14.0912L27.7937 15.4448ZM20.4317 16.654L21.6649 17.5079L21.6649 17.5079L20.4317 16.654ZM20.316 16.8246L19.0668 15.9942C18.7785 16.4279 18.7358 16.98 18.9539 17.4529C19.172 17.9257 19.6198 18.2516 20.1367 18.3138L20.316 16.8246ZM22.8809 17.5863L22.1873 18.9163C22.7457 19.2075 23.4266 19.1189 23.8918 18.6944L22.8809 17.5863ZM27.5459 17.5121L29.0404 17.6411C29.0808 17.1725 28.8992 16.7121 28.5497 16.3974C28.2003 16.0827 27.7234 15.9501 27.2617 16.0393L27.5459 17.5121ZM25.7539 18.0683L25.1324 16.7031C24.5037 16.9894 24.1517 17.668 24.28 18.3469C24.4083 19.0257 24.9836 19.5291 25.6735 19.5661L25.7539 18.0683ZM27.52 18.1632L27.4396 19.661C27.8534 19.6832 28.2579 19.5333 28.5572 19.2468C28.8566 18.9603 29.0241 18.5627 29.02 18.1483L27.52 18.1632ZM35.1479 18.5729L35.0674 20.0708C35.7398 20.1069 36.3539 19.6905 36.5692 19.0524C36.7844 18.4144 36.5481 17.7111 35.9912 17.3325L35.1479 18.5729ZM31.5701 17.3799L31.7332 15.8888C31.0398 15.8129 30.3856 16.225 30.1547 16.8833L31.5701 17.3799ZM31.274 18.3648L29.8187 18.0014C29.7102 18.4358 29.8015 18.8959 30.0675 19.256C30.3335 19.6162 30.7465 19.8386 31.1935 19.8627L31.274 18.3648ZM39.8164 18.8237L39.6149 17.3373C38.8482 17.4412 38.2862 18.1113 38.3176 18.8845C38.3489 19.6576 38.9632 20.28 39.7359 20.3216L39.8164 18.8237ZM41.4475 18.7662L42.7626 18.0447C42.5135 17.5906 42.0477 17.2972 41.5306 17.2685L41.4475 18.7662ZM41.5278 18.9157L41.4473 20.4135C41.9862 20.4424 42.4991 20.1797 42.7905 19.7254C43.0818 19.2711 43.1066 18.6954 42.8555 18.2177L41.5278 18.9157ZM34.7033 9.28721C34.4462 9.65469 33.9709 9.65983 33.716 9.44481L35.6506 7.1519C34.6061 6.27062 33.0351 6.43803 32.245 7.56769L34.7033 9.28721ZM32.1844 13.3925C33.0085 11.8061 33.9827 10.3173 34.7033 9.28721L32.245 7.56769C31.4831 8.65681 30.4291 10.2637 29.5222 12.0094L32.1844 13.3925ZM32.4269 10.7201C31.6547 10.8334 30.9383 11.0452 30.2848 11.3128L31.4217 14.089C31.8774 13.9024 32.3587 13.7622 32.8627 13.6882L32.4269 10.7201ZM33.624 8.81819C32.9867 9.45589 32.2174 10.2927 31.4528 11.2936L33.8368 13.1147C34.504 12.2413 35.1807 11.5045 35.7459 10.9389L33.624 8.81819ZM33.716 9.44481C33.5553 9.30921 33.5224 9.15482 33.5209 9.07603C33.5193 8.98538 33.5529 8.88931 33.624 8.81819L35.7459 10.9389C36.7847 9.8996 36.8043 8.12532 35.6506 7.1519L33.716 9.44481ZM30.0158 14.2247C30.1679 13.8714 30.3313 13.5203 30.5014 13.1748L27.81 11.8495C27.6204 12.2345 27.4353 12.6321 27.2605 13.0379L30.0158 14.2247ZM22.3456 14.2958C24.042 13.5605 26.0403 14.0541 27.9924 14.9852L29.2839 12.2774C27.1671 11.2678 24.1094 10.2617 21.1526 11.5432L22.3456 14.2958ZM20.0206 16.3694C20.6266 15.4942 21.3668 14.72 22.3456 14.2958L21.1526 11.5432C19.4503 12.2809 18.3171 13.5597 17.5541 14.6616L20.0206 16.3694ZM19.3016 17.5393C19.5281 17.1366 19.7689 16.7329 20.0206 16.3694L17.5541 14.6616C17.2268 15.1343 16.9343 15.6286 16.6866 16.0691L19.3016 17.5393ZM15.1549 19.4287C15.9083 18.8206 16.8761 18.4242 18.1442 18.2967L17.844 15.3117C16.0873 15.4884 14.5443 16.0663 13.2707 17.0941L15.1549 19.4287ZM13.1507 22.6969C13.5892 21.2733 14.2307 20.1745 15.1549 19.4287L13.2707 17.0941C11.7303 18.3374 10.8302 20.039 10.2836 21.8139L13.1507 22.6969ZM12.26 33.9924C12.2599 29.4954 12.2748 25.5411 13.1507 22.6969L10.2836 21.8139C9.24483 25.1868 9.25991 29.6649 9.26001 33.9925L12.26 33.9924ZM12.26 34.1314L12.26 33.9924L9.26001 33.9924L9.26001 34.1314L12.26 34.1314ZM14.9592 45.4568C13.2468 42.5888 12.26 38.5884 12.26 34.1314H9.26001C9.26001 38.9842 10.3271 43.5508 12.3834 46.9947L14.9592 45.4568ZM21.9172 50.0104C19.0685 50.0104 16.6701 48.3221 14.9592 45.4568L12.3834 46.9947C14.4517 50.4586 17.6971 53.0104 21.9172 53.0104V50.0104ZM24.4128 49.3001C23.8585 49.7351 23.0686 50.0104 21.9172 50.0104V53.0104C23.5525 53.0104 25.0514 52.6124 26.2648 51.6603L24.4128 49.3001ZM30 50.0105C28.3985 50.0105 27.0939 49.699 26.0277 49.1478L24.6499 51.8126C26.2111 52.6198 28.0035 53.0105 30 53.0105V50.0105ZM33.8353 49.2166C32.7958 49.7245 31.5344 50.0105 30 50.0105V53.0105C31.9119 53.0105 33.6372 52.6523 35.1522 51.9121L33.8353 49.2166ZM34.7528 52.0418C34.9239 52.0118 35.0934 51.9637 35.2584 51.8968L34.132 49.1164C34.1653 49.1029 34.1998 49.093 34.2347 49.0869L34.7528 52.0418ZM38.0828 50.0104C36.9457 50.0104 36.1616 49.7418 35.6093 49.3173L33.7811 51.6959C34.9871 52.6228 36.4687 53.0104 38.0828 53.0104V50.0104ZM45.0408 45.4568C43.33 48.3221 40.9315 50.0104 38.0828 50.0104V53.0104C42.3029 53.0104 45.5484 50.4586 47.6166 46.9947L45.0408 45.4568ZM47.74 34.1314C47.74 38.5884 46.7532 42.5888 45.0408 45.4568L47.6166 46.9947C49.6729 43.5508 50.74 38.9842 50.74 34.1314H47.74ZM47.74 33.9924V34.1314H50.74V33.9924H47.74ZM46.8493 22.6969C47.7253 25.541 47.7401 29.4954 47.74 33.9924L50.74 33.9924C50.7401 29.6649 50.7552 25.1868 49.7164 21.8139L46.8493 22.6969ZM44.8452 19.4287C45.7693 20.1745 46.4109 21.2733 46.8493 22.6969L49.7164 21.8139C49.1698 20.039 48.2697 18.3374 46.7293 17.0941L44.8452 19.4287ZM42.3887 18.369C43.3964 18.5432 44.1976 18.906 44.8452 19.4287L46.7293 17.0941C45.6422 16.2168 44.3543 15.6642 42.8996 15.4128L42.3887 18.369ZM34.695 13.7249C37.0072 14.1552 39.6432 15.1498 41.4045 17.7354L43.8839 16.0464C41.4826 12.5214 37.9322 11.2758 35.2438 10.7755L34.695 13.7249ZM34.4849 13.6898C34.5544 13.7001 34.6244 13.7118 34.695 13.7249L35.2438 10.7755C35.1369 10.7557 35.0306 10.7379 34.9247 10.7222L34.4849 13.6898ZM34.7557 9.94924C34.3864 10.3188 33.983 10.7466 33.5693 11.2259L35.8403 13.1861C36.2012 12.768 36.5542 12.3936 36.8776 12.07L34.7557 9.94924ZM34.7478 8.22192C35.219 8.61946 35.2682 9.43642 34.7557 9.94924L36.8776 12.07C38.4808 10.4658 38.654 7.59253 36.6824 5.92901L34.7478 8.22192ZM33.3922 8.37013C33.6911 7.94277 34.3061 7.8493 34.7478 8.22192L36.6824 5.92901C34.9757 4.48906 32.3051 4.69026 30.9339 6.65061L33.3922 8.37013ZM30.5014 13.1748C31.4205 11.3083 32.5732 9.5409 33.3922 8.37013L30.9339 6.65061C30.0724 7.88225 28.8242 9.78983 27.81 11.8495L30.5014 13.1748ZM35.5833 50.4792C36.2909 50.8449 37.1236 51.0104 38.0828 51.0104V48.0104C37.4612 48.0104 37.1322 47.9028 36.9605 47.814L35.5833 50.4792ZM38.0828 51.0104C41.3873 51.0104 44.0685 49.0358 45.8994 45.9694L43.3236 44.4315C41.8545 46.8919 40.0225 48.0104 38.0828 48.0104V51.0104ZM45.8994 45.9694C47.7264 42.9095 48.74 38.7204 48.74 34.1314H45.74C45.74 38.3244 44.8068 41.9473 43.3236 44.4315L45.8994 45.9694ZM48.74 34.1314C48.74 29.64 48.7452 25.4555 47.805 22.4026L44.9379 23.2856C45.7143 25.8064 45.74 29.4564 45.74 34.1314H48.74ZM47.805 22.4026C47.3304 20.8616 46.6026 19.562 45.4732 18.6505L43.5891 20.985C44.1029 21.3997 44.5719 22.0971 44.9379 23.2856L47.805 22.4026ZM45.4732 18.6505C45.2258 18.4508 44.9571 18.2684 44.6656 18.1061L43.2062 20.7272C43.3467 20.8054 43.4733 20.8916 43.5891 20.985L45.4732 18.6505ZM42.5304 19.9406C42.558 20.0147 42.5852 20.0899 42.6119 20.166L45.4431 19.174C45.4099 19.0793 45.376 18.9855 45.3414 18.8927L42.5304 19.9406ZM42.6119 20.166C42.5567 20.0086 42.5837 19.834 42.6838 19.7006L45.0834 21.5011C45.584 20.834 45.7189 19.9612 45.4431 19.174L42.6119 20.166ZM42.6838 19.7006C42.7839 19.5672 42.944 19.4925 43.1106 19.5014L42.9496 22.4971C43.7825 22.5418 44.5828 22.1683 45.0834 21.5011L42.6838 19.7006ZM43.1106 19.5014L30.8021 18.8402L30.6412 21.8359L42.9496 22.4971L43.1106 19.5014ZM29.8006 19.1541C29.8409 19.1228 29.8848 19.0957 29.9314 19.0737L31.2129 21.7862C31.3669 21.7134 31.5108 21.6245 31.6427 21.522L29.8006 19.1541ZM29.9314 19.0737C30.1542 18.9684 30.4159 18.988 30.6205 19.1253L28.9488 21.6164C29.621 22.0675 30.4809 22.132 31.2129 21.7862L29.9314 19.0737ZM30.6205 19.1253L30.4858 19.0349L28.8141 21.526L28.9488 21.6164L30.6205 19.1253ZM29.7304 18.7826L18.1411 18.1601L17.9802 21.1557L29.5695 21.7783L29.7304 18.7826ZM18.1411 18.1601C18.3151 18.1694 18.4716 18.2686 18.5544 18.422L15.914 19.8462C16.3275 20.6129 17.1103 21.109 17.9802 21.1557L18.1411 18.1601ZM18.5543 18.422C18.5679 18.4471 18.5793 18.4733 18.5883 18.5003L15.744 19.4542C15.789 19.5885 15.8457 19.7196 15.914 19.8462L18.5543 18.422ZM16.7787 17.5282C15.8962 17.7642 15.1512 18.1466 14.5268 18.6505L16.411 20.985C16.6939 20.7567 17.057 20.5592 17.5537 20.4264L16.7787 17.5282ZM14.5268 18.6505C13.3974 19.562 12.6696 20.8616 12.195 22.4026L15.0621 23.2856C15.4281 22.0971 15.8971 21.3997 16.411 20.985L14.5268 18.6505ZM12.195 22.4026C11.2548 25.4555 11.26 29.64 11.26 34.1314H14.26C14.26 29.4564 14.2858 25.8064 15.0621 23.2856L12.195 22.4026ZM11.26 34.1314C11.26 38.7204 12.2736 42.9095 14.1006 45.9694L16.6764 44.4315C15.1932 41.9473 14.26 38.3244 14.26 34.1314H11.26ZM14.1006 45.9694C15.9315 49.0358 18.6127 51.0104 21.9172 51.0104V48.0104C19.9775 48.0104 18.1455 46.8919 16.6764 44.4315L14.1006 45.9694ZM21.9172 51.0104C22.8472 51.0104 23.6584 50.8549 24.3526 50.5117L23.0229 47.8224C22.8477 47.9091 22.5202 48.0104 21.9172 48.0104V51.0104ZM24.8107 48.1726C24.4589 47.7754 24.1427 47.2867 23.8788 46.7401L21.1773 48.0449C21.5406 48.7969 22.0017 49.5257 22.5648 50.1615L24.8107 48.1726ZM23.8788 46.7401C23.3982 45.7452 23.0871 44.5535 23.0302 43.3416L20.0335 43.4825C20.1092 45.0942 20.5192 46.6822 21.1773 48.0449L23.8788 46.7401ZM23.0302 43.3416C23.0431 43.6175 22.83 43.8516 22.5542 43.8645L22.4133 40.8678C21.0342 40.9327 19.9686 42.1033 20.0335 43.4825L23.0302 43.3416ZM22.5542 43.8645C22.2783 43.8775 22.0442 43.6644 22.0313 43.3886L25.028 43.2477C24.9631 41.8685 23.7925 40.803 22.4133 40.8678L22.5542 43.8645ZM22.0313 43.3886C22.0945 44.7337 22.4385 46.0575 22.9783 47.1751L25.6797 45.8703C25.3175 45.1205 25.0724 44.193 25.028 43.2477L22.0313 43.3886ZM22.9783 47.1751C23.5153 48.2869 24.2647 49.232 25.1654 49.7707L26.7054 47.1962C26.4664 47.0532 26.0565 46.6504 25.6797 45.8703L22.9783 47.1751ZM25.1654 49.7707C25.1307 49.75 25.0979 49.7244 25.0682 49.6946L27.1952 47.5789C27.0505 47.4335 26.8865 47.3045 26.7054 47.1962L25.1654 49.7707ZM25.4125 49.9531C26.6817 50.6465 28.1999 51.0105 30 51.0105V48.0105C28.6113 48.0105 27.6052 47.7325 26.8509 47.3204L25.4125 49.9531ZM30 51.0105C31.9841 51.0105 33.6222 50.568 34.959 49.7363L33.3743 47.189C32.593 47.6751 31.5262 48.0105 30 48.0105V51.0105ZM34.0632 46.1078C33.7714 46.7118 33.4521 47.1035 33.2008 47.315L35.1324 49.6104C35.7787 49.0665 36.3344 48.3032 36.7646 47.4126L34.0632 46.1078ZM34.7149 43.4853C34.6705 44.4306 34.4253 45.358 34.0632 46.1079L36.7646 47.4126C37.3043 46.295 37.6484 44.9713 37.7116 43.6261L34.7149 43.4853ZM37.3295 41.1054C35.9503 41.0406 34.7797 42.1061 34.7149 43.4853L37.7116 43.6261C37.6986 43.9019 37.4645 44.1151 37.1887 44.1021L37.3295 41.1054ZM39.7094 43.72C39.7742 42.3408 38.7087 41.1702 37.3295 41.1054L37.1887 44.1021C36.9128 44.0891 36.6997 43.855 36.7127 43.5792L39.7094 43.72ZM38.5655 48.2824C39.2237 46.9197 39.6336 45.3318 39.7094 43.72L36.7127 43.5792C36.6557 44.7911 36.3447 45.9827 35.8641 46.9777L38.5655 48.2824ZM37.4443 50.0823C37.8875 49.5269 38.2606 48.9137 38.5655 48.2824L35.8641 46.9777C35.6434 47.4347 35.3854 47.8528 35.0995 48.2109L37.4443 50.0823ZM34.3291 15.6912C35.979 15.9982 37.6312 16.5875 38.9164 17.8602L41.0273 15.7285C39.1398 13.8594 36.8178 13.1028 34.8779 12.7418L34.3291 15.6912ZM33.3534 15.6447C33.6658 15.6165 33.9904 15.6281 34.3291 15.6912L34.8779 12.7418C34.2604 12.6269 33.6601 12.6047 33.0834 12.6569L33.3534 15.6447ZM33.7386 16.1883C33.9629 15.7722 34.208 15.3698 34.4657 14.984L31.9711 13.3176C31.6664 13.7737 31.3716 14.257 31.098 14.7646L33.7386 16.1883ZM38.1301 16.4782C36.6845 15.1593 34.8509 14.342 32.6522 13.9948L32.1843 16.9581C33.9057 17.2299 35.1672 17.836 36.1082 18.6944L38.1301 16.4782ZM39.8376 15.3004C38.5959 15.4119 37.4515 15.7213 36.4256 16.2563L37.8128 18.9163C38.4411 18.5886 39.1951 18.3702 40.106 18.2884L39.8376 15.3004ZM29.5959 14.1816C29.514 14.3376 29.4339 14.4959 29.3558 14.6563L32.0533 15.9692C32.1177 15.8368 32.1841 15.7057 32.2522 15.5759L29.5959 14.1816ZM31.0838 16.5389C31.2657 16.4145 31.4519 16.2994 31.6419 16.1958L30.2062 13.5617C29.9196 13.7179 29.6474 13.8867 29.3904 14.0625L31.0838 16.5389ZM30.7635 13.8139C30.5962 13.8074 30.4271 13.803 30.2562 13.8008L30.218 16.8006C30.363 16.8024 30.5055 16.8061 30.6456 16.8116L30.7635 13.8139ZM29.904 15.7994C29.6282 15.8009 29.3597 15.8085 29.0982 15.8222L29.2552 18.8181C29.4674 18.8069 29.6887 18.8006 29.9195 18.7994L29.904 15.7994ZM31.115 18.6034C31.1794 18.314 31.2562 18.0276 31.3441 17.7447L28.4794 16.8542C28.3681 17.212 28.2697 17.5781 28.1866 17.9519L31.115 18.6034ZM29.4463 19.7688L29.5703 19.7755L29.7312 16.7798L29.6072 16.7731L29.4463 19.7688ZM28.2848 19.244L28.691 19.5165L30.3626 17.0254L29.9565 16.7529L28.2848 19.244ZM27.6909 17.1144C27.6515 17.3989 27.6269 17.6841 27.621 17.9672L30.6203 18.0297C30.6235 17.8776 30.6371 17.7097 30.6626 17.5258L27.6909 17.1144ZM23.1409 16.1308C24.0244 15.7479 25.337 15.9338 27.1472 16.7983L28.4401 14.0912C26.4921 13.1609 24.1072 12.4424 21.9479 13.3782L23.1409 16.1308ZM21.6649 17.5079C22.166 16.7842 22.6442 16.3461 23.1409 16.1308L21.9479 13.3782C20.728 13.9069 19.8568 14.8493 19.1985 15.8001L21.6649 17.5079ZM21.5652 17.6549C21.5978 17.6059 21.631 17.5569 21.6649 17.5079L19.1985 15.8001C19.1534 15.8653 19.1095 15.93 19.0668 15.9942L21.5652 17.6549ZM23.5745 16.2563C22.6414 15.7697 21.6096 15.4695 20.4953 15.3353L20.1367 18.3138C20.9395 18.4105 21.6151 18.6179 22.1873 18.9163L23.5745 16.2563ZM27.5841 13.9595C25.2814 14.2844 23.368 15.1114 21.8699 16.4782L23.8918 18.6944C24.8657 17.806 26.1844 17.1867 28.0032 16.9301L27.5841 13.9595ZM27.2617 16.0393C26.4803 16.1901 25.7723 16.4118 25.1324 16.7031L26.3755 19.4335C26.777 19.2507 27.2553 19.0959 27.8302 18.9849L27.2617 16.0393ZM29.02 18.1483C29.0184 17.9869 29.0251 17.8177 29.0404 17.6411L26.0515 17.3831C26.0287 17.647 26.0175 17.9124 26.0201 18.178L29.02 18.1483ZM25.6735 19.5661L27.4396 19.661L27.6005 16.6653L25.8344 16.5705L25.6735 19.5661ZM35.9912 17.3325C34.8614 16.5644 33.4582 16.0776 31.7332 15.8888L31.4069 18.871C32.7488 19.0178 33.6593 19.3747 34.3045 19.8134L35.9912 17.3325ZM31.1935 19.8627L35.0674 20.0708L35.2283 17.0751L31.3545 16.867L31.1935 19.8627ZM30.1547 16.8833C30.0271 17.2468 29.914 17.6198 29.8187 18.0014L32.7293 18.7283C32.8008 18.4421 32.8867 18.158 32.9855 17.8765L30.1547 16.8833ZM40.9373 17.2524C40.4726 17.2524 40.0323 17.2807 39.6149 17.3373L40.0178 20.3101C40.289 20.2734 40.594 20.2524 40.9373 20.2524V17.2524ZM41.5306 17.2685C41.3374 17.2578 41.1397 17.2524 40.9373 17.2524V20.2524C41.0867 20.2524 41.229 20.2564 41.3644 20.2639L41.5306 17.2685ZM42.8555 18.2177C42.8249 18.1595 42.794 18.1018 42.7626 18.0447L40.1325 19.4878C40.1552 19.5292 40.1777 19.5711 40.2001 19.6136L42.8555 18.2177ZM39.7359 20.3216L41.4473 20.4135L41.6083 17.4178L39.8968 17.3259L39.7359 20.3216Z" fill="#F8F9FA" mask="url(#path-1-outside-1_50_9367)"/>
<path d="M34.7864 13.1711C32.4117 12.7292 30.419 13.7747 29.0317 14.8893C26.888 13.7432 24.3455 12.8217 22.1467 13.7747C19.9479 14.7277 18.9238 17.2083 18.1143 18.5971L43.0837 19.9384C41.4249 15.2039 37.7548 13.7234 34.7864 13.1711Z" fill="#2F9E44" stroke="#212529" stroke-width="2" stroke-linecap="round" stroke-linejoin="round"/>
<path d="M32.8186 7.9063C31.1609 10.2763 28.1186 15.1067 28.3302 18.3688L30.2304 19.644C30.6228 15.6135 33.4347 12.1987 35.2508 10.3815C36.0141 9.61784 36.0244 8.32051 35.1992 7.6243C34.4647 7.0046 33.3694 7.11883 32.8186 7.9063Z" fill="#2B8A3E" stroke="#212529" stroke-width="1.6" stroke-linejoin="round"/>
<path fill-rule="evenodd" clip-rule="evenodd" d="M34.8059 49.1783C33.5438 49.9965 31.9661 50.4476 30 50.4476C28.034 50.4476 26.4562 49.9965 25.1941 49.1783C24.4887 49.9958 23.4451 50.4475 21.9172 50.4475C15.7607 50.4475 11.76 43.1143 11.76 34.0685C11.76 25.0227 11.76 17.6895 19.0627 17.6895C20.7459 17.6895 22.0412 18.0791 23.0379 18.7894C24.4591 17.1707 26.6433 16.2363 30 16.2363C33.3567 16.2363 35.5409 17.1707 36.9621 18.7895C37.9588 18.0791 39.2541 17.6895 40.9373 17.6895C48.24 17.6895 48.24 25.0227 48.24 34.0685C48.24 43.1143 44.2393 50.4475 38.0828 50.4475C36.5549 50.4475 35.5114 49.9958 34.8059 49.1783Z" fill="#40C057"/>
<path d="M34.8059 49.1784L35.563 48.525C35.2366 48.1468 34.6812 48.0675 34.262 48.3392L34.8059 49.1784ZM25.1941 49.1784L25.738 48.3393C25.3188 48.0675 24.7634 48.1468 24.437 48.525L25.1941 49.1784ZM23.0379 18.7895L22.4575 19.6038C22.8754 19.9016 23.4508 19.8349 23.7893 19.4493L23.0379 18.7895ZM36.9621 18.7895L36.2107 19.4493C36.5492 19.8349 37.1247 19.9016 37.5425 19.6038L36.9621 18.7895ZM30 51.4476C32.1239 51.4476 33.8985 50.9583 35.3499 50.0175L34.262 48.3392C33.1891 49.0348 31.8082 49.4476 30 49.4476V51.4476ZM24.6501 50.0175C26.1015 50.9583 27.8762 51.4476 30 51.4476V49.4476C28.1918 49.4476 26.8109 49.0348 25.738 48.3393L24.6501 50.0175ZM21.9172 51.4475C23.658 51.4475 25.0102 50.9221 25.9512 49.8317L24.437 48.525C23.9671 49.0695 23.2323 49.4475 21.9172 49.4475V51.4475ZM10.76 34.0685C10.76 38.7234 11.787 43.0069 13.6713 46.1629C15.5609 49.3275 18.3828 51.4475 21.9172 51.4475V49.4475C19.2951 49.4475 17.0385 47.901 15.3885 45.1376C13.7334 42.3655 12.76 38.4595 12.76 34.0685H10.76ZM19.0627 16.6896C17.0634 16.6896 15.4561 17.1951 14.2128 18.1985C12.9805 19.1931 12.2097 20.5933 11.7171 22.1925C10.7498 25.3337 10.76 29.6059 10.76 34.0685H12.76C12.76 29.4853 12.7703 25.5681 13.6286 22.7812C14.0489 21.4165 14.6473 20.418 15.4689 19.7549C16.2795 19.1007 17.4107 18.6896 19.0627 18.6896V16.6896ZM23.6182 17.9751C22.4153 17.1178 20.9036 16.6896 19.0627 16.6896V18.6896C20.5882 18.6896 21.6671 19.0405 22.4575 19.6038L23.6182 17.9751ZM30 15.2363C26.4505 15.2363 23.9523 16.2324 22.2864 18.1297L23.7893 19.4493C24.9659 18.1092 26.8361 17.2363 30 17.2363V15.2363ZM37.7136 18.1297C36.0477 16.2324 33.5495 15.2363 30 15.2363V17.2363C33.1639 17.2363 35.0341 18.1092 36.2107 19.4493L37.7136 18.1297ZM37.5425 19.6038C38.3329 19.0405 39.4118 18.6896 40.9373 18.6896V16.6896C39.0964 16.6896 37.5848 17.1178 36.3818 17.9751L37.5425 19.6038ZM40.9373 18.6896C42.5894 18.6896 43.7205 19.1007 44.5311 19.7549C45.3528 20.418 45.9512 21.4165 46.3715 22.7812C47.2298 25.5681 47.24 29.4853 47.24 34.0685H49.24C49.24 29.6059 49.2503 25.3337 48.2829 22.1925C47.7903 20.5933 47.0195 19.1931 45.7872 18.1985C44.5439 17.1951 42.9366 16.6896 40.9373 16.6896V18.6896ZM47.24 34.0685C47.24 38.4595 46.2666 42.3655 44.6115 45.1376C42.9615 47.901 40.7049 49.4475 38.0828 49.4475V51.4475C41.6172 51.4475 44.4392 49.3275 46.3287 46.1629C48.213 43.0069 49.24 38.7234 49.24 34.0685H47.24ZM38.0828 49.4475C36.7677 49.4475 36.0329 49.0695 35.563 48.525L34.0489 49.8317C34.9898 50.9221 36.342 51.4475 38.0828 51.4475V49.4475Z" fill="#212529"/>
<path d="M25.422 49.2787C23.8409 48.3329 22.6509 45.8592 22.5307 43.3022" stroke="#212529" stroke-width="2" stroke-linecap="round" stroke-linejoin="round"/>
<path d="M34.3208 49.517C35.9019 48.5712 37.0919 46.0975 37.2121 43.5404" stroke="#212529" stroke-width="2" stroke-linecap="round" stroke-linejoin="round"/>
<g style="mix-blend-mode:multiply" opacity="0.3">
<path d="M38.2619 47.3569C47.7437 40.839 46.6801 33.2779 46.6801 28.4106C46.6801 23.5432 44.9644 19.0508 44.9644 19.0508C44.9644 19.0508 48.24 19.7293 48.24 31.6917C48.24 41.6987 45.9619 46.4678 42.8342 49.1728C40.3703 51.3037 36.9931 50.8616 35.6732 50.1557C36.5628 48.7553 37.535 47.8567 38.2619 47.3569Z" fill="#40C057"/>
</g>
<g style="mix-blend-mode:multiply" opacity="0.3">
<path d="M32.8898 47.2072C30.1568 49.6524 25.8776 49.0052 24.0796 48.3759C25.3382 51.4324 32.8898 50.3537 33.7887 49.9042C34.6877 49.4547 36.7554 47.2072 36.7554 44.2405C36.7554 42.7823 36.8346 41.2896 36.847 40.2024C36.8497 39.9696 36.6484 39.97 36.6035 40.1984C36.2029 42.237 35.0097 45.3103 32.8898 47.2072Z" fill="#40C057"/>
</g>
<g style="mix-blend-mode:soft-light" opacity="0.3">
<path d="M18.1826 23.0476C19.0575 21.3325 18.5986 20.9805 17.7614 20.7114C16.9241 20.4424 15.6846 21.353 14.7027 24.4547C13.7208 27.5564 15.9718 29.6021 16.9364 28.653C17.9009 27.704 17.0888 25.1916 18.1826 23.0476Z" fill="#F8F9FA"/>
</g>
</svg>
