<svg width="60" height="60" viewBox="0 0 60 60" fill="none" xmlns="http://www.w3.org/2000/svg">
<mask id="path-1-outside-1_50_7926" maskUnits="userSpaceOnUse" x="12.6245" y="5.88281" width="37" height="49" fill="black">
<rect fill="white" x="12.6245" y="5.88281" width="37" height="49"/>
<path fill-rule="evenodd" clip-rule="evenodd" d="M31.1172 7.88281C27.7968 7.88281 24.9614 9.08211 22.9544 11.1584C20.9512 13.2308 19.8071 16.1405 19.7844 19.5148C19.7828 19.7629 19.9036 19.9984 20.1112 20.149L20.8201 20.6634C20.3754 21.6089 20.0722 22.6283 19.9363 23.697L16.8404 24.6407C16.2392 24.824 16.1966 25.8966 16.7803 26.1566L20.2224 27.6902C20.6648 29.2858 21.4887 30.7333 22.5946 31.9377C21.3506 33.2309 20.4031 34.7896 19.8562 36.5145L18.2237 35.0354C17.7483 34.6048 16.9914 34.6453 16.5693 35.1239L14.8914 37.0268C14.7193 37.222 14.6223 37.4713 14.6246 37.732C14.6577 41.5223 15.7111 45.4141 18.2505 48.3702C20.8069 51.3461 24.8119 53.3057 30.5863 53.3057C36.334 53.3057 40.4995 51.5757 43.2253 48.5265C45.9358 45.4943 47.1437 41.245 47.1834 36.3465C47.1861 36.0047 47.0191 35.6808 46.7346 35.4744L45.0047 34.2193C44.5946 33.9217 44.0263 33.9242 43.6191 34.2253L42.8924 34.7626C42.1693 33.3476 41.16 32.0907 39.9369 31.0609C41.2067 29.3426 41.9531 27.245 41.9531 24.9826C41.9531 23.2857 41.5337 21.6824 40.7885 20.262L41.8295 19.0813C41.9544 18.9396 42.0256 18.7579 42.0238 18.5666C41.9985 15.9002 40.6709 13.2376 38.6821 11.2486C36.6928 9.2592 33.98 7.88281 31.1172 7.88281ZM41.5505 35.7548C40.8186 34.1964 39.6916 32.8439 38.2904 31.8129C38.1127 31.6822 37.9981 31.4882 37.9729 31.2753C37.9477 31.0624 38.014 30.8489 38.1567 30.6836C39.4944 29.1334 40.2971 27.1486 40.2971 24.9826C40.2971 23.3697 39.8514 21.8563 39.0712 20.5485L36.2969 19.3498L34.4627 21.0315C34.1853 21.2858 33.7612 21.3243 33.4387 21.1245L30.6016 19.3669L28.1834 21.099C27.8926 21.3073 27.4936 21.3101 27.1996 21.1059L24.7226 19.3855L22.4521 21.0642C22.045 21.8637 21.7586 22.7295 21.6155 23.6402C21.8491 23.8179 22.0364 24.1001 22.1238 24.4741C22.3372 25.3874 22.3483 26.1245 22.1549 26.9473C22.1006 27.1784 22.0089 27.3704 21.8928 27.523C22.3503 29.0056 23.1981 30.3285 24.3236 31.3839C24.4836 31.534 24.5731 31.7396 24.5714 31.9539C24.5698 32.1681 24.4772 32.3725 24.3149 32.5204C23.6118 33.1606 22.9996 33.8906 22.4985 34.6911C22.7362 34.6966 22.9737 34.773 23.1738 34.9232L25.6366 36.7718L28.053 34.6893C28.4558 34.3421 29.0592 34.3147 29.4947 34.6238L32.5051 36.7604L34.9415 34.3579C35.336 33.9689 35.9702 33.9165 36.4289 34.235L40.1295 36.8054L41.5505 35.7548ZM21.424 37.0279L22.4822 35.9127L24.9377 37.7558C25.3735 38.0828 25.9925 38.0627 26.4039 37.7081L28.822 35.6241L31.8372 37.7641C32.2959 38.0897 32.9364 38.04 33.334 37.6479L35.7711 35.2448L39.4619 37.8083C39.8713 38.0926 40.4281 38.0847 40.8284 37.7887L42.0091 36.9157C42.3199 37.8757 42.4872 38.8959 42.4872 39.9534C42.4872 45.625 37.673 50.2227 31.7344 50.2227C25.7957 50.2227 20.9815 45.625 20.9815 39.9534C20.9815 38.9369 21.136 37.955 21.424 37.0279ZM19.53 37.8001C19.3957 38.4984 19.3256 39.2181 19.3256 39.9534C19.3256 46.4984 24.8812 51.8042 31.7344 51.8042C38.5875 51.8042 44.1431 46.4984 44.1431 39.9534C44.1431 38.5263 43.8789 37.1582 43.3948 35.8912L44.3166 35.2096L45.941 36.3882C45.8946 41.1047 44.7246 45.0224 42.2807 47.7563C39.8433 50.483 36.0599 52.1196 30.5863 52.1196C25.1353 52.1196 21.5021 50.2853 19.2107 47.6179C16.9107 44.9406 15.9054 41.3563 15.8669 37.7619L17.4486 35.9681L19.282 37.6291C19.3582 37.6981 19.4417 37.7551 19.53 37.8001ZM18.0836 25.4812L19.8552 24.9411L19.8551 24.9826C19.8551 25.4318 19.8845 25.8745 19.9416 26.309L18.0836 25.4812ZM40.1273 19.1703L40.779 18.4313C40.7107 16.168 39.5606 13.8446 37.7839 12.0677C35.9691 10.2529 33.5628 9.06893 31.1172 9.06893C28.1254 9.06893 25.6268 10.1423 23.8669 11.963C22.1404 13.7492 21.0923 16.2895 21.0291 19.3254L21.4014 19.5956C23.3278 16.5028 26.8626 14.4305 30.9041 14.4305C34.7575 14.4305 38.1501 16.3143 40.1273 19.1703ZM24.8629 18.1132C26.4961 16.8019 28.6035 16.0119 30.9041 16.0119C33.4465 16.0119 35.753 16.9766 37.4442 18.5437L36.5535 18.1589C36.2452 18.0256 35.883 18.0851 35.6389 18.3089L33.8393 19.9588L31.035 18.2216C30.7437 18.0412 30.3654 18.0535 30.0876 18.2524L27.6828 19.9749L25.2018 18.2517C25.0987 18.18 24.9826 18.1339 24.8629 18.1132Z"/>
</mask>
<path fill-rule="evenodd" clip-rule="evenodd" d="M31.1172 7.88281C27.7968 7.88281 24.9614 9.08211 22.9544 11.1584C20.9512 13.2308 19.8071 16.1405 19.7844 19.5148C19.7828 19.7629 19.9036 19.9984 20.1112 20.149L20.8201 20.6634C20.3754 21.6089 20.0722 22.6283 19.9363 23.697L16.8404 24.6407C16.2392 24.824 16.1966 25.8966 16.7803 26.1566L20.2224 27.6902C20.6648 29.2858 21.4887 30.7333 22.5946 31.9377C21.3506 33.2309 20.4031 34.7896 19.8562 36.5145L18.2237 35.0354C17.7483 34.6048 16.9914 34.6453 16.5693 35.1239L14.8914 37.0268C14.7193 37.222 14.6223 37.4713 14.6246 37.732C14.6577 41.5223 15.7111 45.4141 18.2505 48.3702C20.8069 51.3461 24.8119 53.3057 30.5863 53.3057C36.334 53.3057 40.4995 51.5757 43.2253 48.5265C45.9358 45.4943 47.1437 41.245 47.1834 36.3465C47.1861 36.0047 47.0191 35.6808 46.7346 35.4744L45.0047 34.2193C44.5946 33.9217 44.0263 33.9242 43.6191 34.2253L42.8924 34.7626C42.1693 33.3476 41.16 32.0907 39.9369 31.0609C41.2067 29.3426 41.9531 27.245 41.9531 24.9826C41.9531 23.2857 41.5337 21.6824 40.7885 20.262L41.8295 19.0813C41.9544 18.9396 42.0256 18.7579 42.0238 18.5666C41.9985 15.9002 40.6709 13.2376 38.6821 11.2486C36.6928 9.2592 33.98 7.88281 31.1172 7.88281ZM41.5505 35.7548C40.8186 34.1964 39.6916 32.8439 38.2904 31.8129C38.1127 31.6822 37.9981 31.4882 37.9729 31.2753C37.9477 31.0624 38.014 30.8489 38.1567 30.6836C39.4944 29.1334 40.2971 27.1486 40.2971 24.9826C40.2971 23.3697 39.8514 21.8563 39.0712 20.5485L36.2969 19.3498L34.4627 21.0315C34.1853 21.2858 33.7612 21.3243 33.4387 21.1245L30.6016 19.3669L28.1834 21.099C27.8926 21.3073 27.4936 21.3101 27.1996 21.1059L24.7226 19.3855L22.4521 21.0642C22.045 21.8637 21.7586 22.7295 21.6155 23.6402C21.8491 23.8179 22.0364 24.1001 22.1238 24.4741C22.3372 25.3874 22.3483 26.1245 22.1549 26.9473C22.1006 27.1784 22.0089 27.3704 21.8928 27.523C22.3503 29.0056 23.1981 30.3285 24.3236 31.3839C24.4836 31.534 24.5731 31.7396 24.5714 31.9539C24.5698 32.1681 24.4772 32.3725 24.3149 32.5204C23.6118 33.1606 22.9996 33.8906 22.4985 34.6911C22.7362 34.6966 22.9737 34.773 23.1738 34.9232L25.6366 36.7718L28.053 34.6893C28.4558 34.3421 29.0592 34.3147 29.4947 34.6238L32.5051 36.7604L34.9415 34.3579C35.336 33.9689 35.9702 33.9165 36.4289 34.235L40.1295 36.8054L41.5505 35.7548ZM21.424 37.0279L22.4822 35.9127L24.9377 37.7558C25.3735 38.0828 25.9925 38.0627 26.4039 37.7081L28.822 35.6241L31.8372 37.7641C32.2959 38.0897 32.9364 38.04 33.334 37.6479L35.7711 35.2448L39.4619 37.8083C39.8713 38.0926 40.4281 38.0847 40.8284 37.7887L42.0091 36.9157C42.3199 37.8757 42.4872 38.8959 42.4872 39.9534C42.4872 45.625 37.673 50.2227 31.7344 50.2227C25.7957 50.2227 20.9815 45.625 20.9815 39.9534C20.9815 38.9369 21.136 37.955 21.424 37.0279ZM19.53 37.8001C19.3957 38.4984 19.3256 39.2181 19.3256 39.9534C19.3256 46.4984 24.8812 51.8042 31.7344 51.8042C38.5875 51.8042 44.1431 46.4984 44.1431 39.9534C44.1431 38.5263 43.8789 37.1582 43.3948 35.8912L44.3166 35.2096L45.941 36.3882C45.8946 41.1047 44.7246 45.0224 42.2807 47.7563C39.8433 50.483 36.0599 52.1196 30.5863 52.1196C25.1353 52.1196 21.5021 50.2853 19.2107 47.6179C16.9107 44.9406 15.9054 41.3563 15.8669 37.7619L17.4486 35.9681L19.282 37.6291C19.3582 37.6981 19.4417 37.7551 19.53 37.8001ZM18.0836 25.4812L19.8552 24.9411L19.8551 24.9826C19.8551 25.4318 19.8845 25.8745 19.9416 26.309L18.0836 25.4812ZM40.1273 19.1703L40.779 18.4313C40.7107 16.168 39.5606 13.8446 37.7839 12.0677C35.9691 10.2529 33.5628 9.06893 31.1172 9.06893C28.1254 9.06893 25.6268 10.1423 23.8669 11.963C22.1404 13.7492 21.0923 16.2895 21.0291 19.3254L21.4014 19.5956C23.3278 16.5028 26.8626 14.4305 30.9041 14.4305C34.7575 14.4305 38.1501 16.3143 40.1273 19.1703ZM24.8629 18.1132C26.4961 16.8019 28.6035 16.0119 30.9041 16.0119C33.4465 16.0119 35.753 16.9766 37.4442 18.5437L36.5535 18.1589C36.2452 18.0256 35.883 18.0851 35.6389 18.3089L33.8393 19.9588L31.035 18.2216C30.7437 18.0412 30.3654 18.0535 30.0876 18.2524L27.6828 19.9749L25.2018 18.2517C25.0987 18.18 24.9826 18.1339 24.8629 18.1132Z" fill="#F8F9FA"/>
<path d="M22.9543 11.1584L24.0328 12.2009L22.9543 11.1584ZM19.7844 19.5148L21.2844 19.5249L21.2844 19.5249L19.7844 19.5148ZM20.1112 20.149L20.9921 18.9349L20.9921 18.9349L20.1112 20.149ZM20.8201 20.6634L22.1774 21.3018C22.484 20.65 22.284 19.8723 21.701 19.4493L20.8201 20.6634ZM19.9363 23.697L20.3737 25.1318C20.9385 24.9596 21.3498 24.472 21.4243 23.8862L19.9363 23.697ZM16.8404 24.6407L17.2777 26.0756L17.2777 26.0756L16.8404 24.6407ZM16.7802 26.1566L17.3907 24.7864L17.3907 24.7864L16.7802 26.1566ZM20.2223 27.6902L21.6678 27.2894C21.5482 26.8578 21.2419 26.5023 20.8328 26.32L20.2223 27.6902ZM22.5946 31.9377L23.6756 32.9776C24.2249 32.4065 24.2354 31.5067 23.6994 30.9231L22.5946 31.9377ZM19.8562 36.5145L18.8491 37.6261C19.2275 37.969 19.7544 38.0958 20.2474 37.9626C20.7404 37.8294 21.1317 37.4546 21.2861 36.9678L19.8562 36.5145ZM18.2236 35.0354L19.2307 33.9238L19.2307 33.9238L18.2236 35.0354ZM16.5693 35.1239L15.4442 34.1318L15.4442 34.1318L16.5693 35.1239ZM14.8914 37.0268L16.0165 38.0189L16.0165 38.0189L14.8914 37.0268ZM14.6246 37.732L13.1246 37.7451L13.1246 37.7451L14.6246 37.732ZM18.2505 48.3702L17.1127 49.3477L17.1127 49.3477L18.2505 48.3702ZM43.2252 48.5265L44.3436 49.5262L44.3436 49.5262L43.2252 48.5265ZM47.1833 36.3465L48.6833 36.3587L48.6833 36.3586L47.1833 36.3465ZM46.7346 35.4744L47.6155 34.2604L47.6155 34.2604L46.7346 35.4744ZM45.0047 34.2193L45.8856 33.0052L45.8856 33.0052L45.0047 34.2193ZM43.619 34.2253L44.5108 35.4314L44.5108 35.4314L43.619 34.2253ZM42.8924 34.7626L41.5566 35.4451C41.7572 35.8376 42.1201 36.122 42.5491 36.2228C42.9781 36.3236 43.4298 36.2307 43.7841 35.9687L42.8924 34.7626ZM39.9369 31.0609L38.7306 30.1694C38.2601 30.8059 38.3653 31.6985 38.9708 32.2083L39.9369 31.0609ZM40.7884 20.262L39.6633 19.2699C39.2521 19.7363 39.1712 20.4082 39.4601 20.9588L40.7884 20.262ZM41.8295 19.0813L40.7044 18.0892L40.7044 18.0892L41.8295 19.0813ZM42.0238 18.5666L43.5237 18.5524L43.5237 18.5524L42.0238 18.5666ZM38.682 11.2486L39.7427 10.1879L39.7427 10.1879L38.682 11.2486ZM38.2903 31.8129L37.4014 33.0211L37.4014 33.0211L38.2903 31.8129ZM41.5505 35.7548L42.4423 36.9609C43.0171 36.5358 43.2121 35.7642 42.9082 35.1171L41.5505 35.7548ZM37.9729 31.2753L36.4833 31.4516L36.4833 31.4516L37.9729 31.2753ZM38.1567 30.6836L39.2923 31.6636L39.2923 31.6635L38.1567 30.6836ZM39.0712 20.5485L40.3594 19.78C40.198 19.5094 39.9554 19.2965 39.6661 19.1715L39.0712 20.5485ZM36.2968 19.3498L36.8918 17.9728C36.3489 17.7383 35.719 17.8446 35.2832 18.2442L36.2968 19.3498ZM34.4626 21.0315L35.4763 22.1371L35.4763 22.1371L34.4626 21.0315ZM33.4386 21.1245L32.6487 22.3996L32.6487 22.3996L33.4386 21.1245ZM30.6015 19.3669L31.3915 18.0918C30.8766 17.7728 30.2205 17.7948 29.7281 18.1475L30.6015 19.3669ZM28.1834 21.099L27.3099 19.8796L27.3099 19.8796L28.1834 21.099ZM27.1996 21.1059L26.3439 22.3379L26.3439 22.3379L27.1996 21.1059ZM24.7226 19.3855L25.5783 18.1535C25.0504 17.7868 24.3476 17.7972 23.8308 18.1794L24.7226 19.3855ZM22.4521 21.0642L21.5603 19.8581C21.3733 19.9964 21.221 20.1763 21.1154 20.3836L22.4521 21.0642ZM21.6155 23.6402L20.1337 23.4074C20.0481 23.9522 20.2684 24.5001 20.7074 24.8341L21.6155 23.6402ZM22.1238 24.4741L23.5844 24.1328L23.5844 24.1328L22.1238 24.4741ZM22.1548 26.9473L20.6946 26.6041L20.6946 26.6041L22.1548 26.9473ZM21.8928 27.523L20.6991 26.6146C20.406 26.9998 20.3168 27.5027 20.4595 27.9652L21.8928 27.523ZM24.3235 31.3839L25.3496 30.2897L25.3496 30.2897L24.3235 31.3839ZM24.5714 31.9539L23.0714 31.9424L23.0714 31.9424L24.5714 31.9539ZM24.3148 32.5204L25.3248 33.6294L25.3248 33.6294L24.3148 32.5204ZM22.4984 34.6911L21.2271 33.8951C20.9409 34.3522 20.9221 34.9277 21.1779 35.4025C21.4337 35.8773 21.9246 36.1782 22.4638 36.1907L22.4984 34.6911ZM23.1738 34.9232L22.2733 36.1229L22.2734 36.1229L23.1738 34.9232ZM25.6366 36.7718L24.7361 37.9714C25.2998 38.3945 26.082 38.3681 26.6158 37.908L25.6366 36.7718ZM28.0529 34.6893L29.0322 35.8255L29.0322 35.8255L28.0529 34.6893ZM29.4947 34.6238L30.3629 33.4006L30.3629 33.4006L29.4947 34.6238ZM32.5051 36.7604L31.6369 37.9836C32.2302 38.4047 33.0402 38.3393 33.5583 37.8284L32.5051 36.7604ZM34.9415 34.3579L35.9947 35.426L35.9947 35.426L34.9415 34.3579ZM36.4289 34.235L37.2846 33.003L37.2846 33.003L36.4289 34.235ZM40.1295 36.8054L39.2738 38.0374C39.8017 38.404 40.5045 38.3936 41.0213 38.0115L40.1295 36.8054ZM22.4822 35.9127L23.3827 34.7131C22.7735 34.2559 21.9185 34.3277 21.3942 34.8802L22.4822 35.9127ZM21.4239 37.0279L20.3359 35.9953C20.1775 36.1622 20.0597 36.3633 19.9914 36.583L21.4239 37.0279ZM24.9377 37.7558L24.0372 38.9554L24.0372 38.9554L24.9377 37.7558ZM26.4039 37.7081L25.4246 36.5719L25.4246 36.5719L26.4039 37.7081ZM28.822 35.6241L29.6902 34.4009C29.1276 34.0016 28.3653 34.0375 27.8427 34.4879L28.822 35.6241ZM31.8371 37.7641L32.7053 36.5409L32.7053 36.5409L31.8371 37.7641ZM33.334 37.6479L32.2808 36.5798L32.2808 36.5798L33.334 37.6479ZM35.7711 35.2448L36.6268 34.0128C36.0339 33.601 35.2318 33.6699 34.7179 34.1767L35.7711 35.2448ZM39.4618 37.8083L38.6061 39.0403L39.4618 37.8083ZM40.8284 37.7887L41.7202 38.9948L41.7202 38.9948L40.8284 37.7887ZM42.0091 36.9157L43.4362 36.4537C43.2875 35.9945 42.927 35.6349 42.4674 35.4874C42.0079 35.34 41.5054 35.4226 41.1173 35.7096L42.0091 36.9157ZM19.53 37.8001L21.003 38.0833C21.1291 37.4273 20.8062 36.767 20.2111 36.4637L19.53 37.8001ZM43.3948 35.8912L42.503 34.685C41.9615 35.0854 41.7532 35.7975 41.9936 36.4265L43.3948 35.8912ZM44.3166 35.2096L45.1975 33.9955C44.668 33.6114 43.9507 33.6146 43.4248 34.0035L44.3166 35.2096ZM45.941 36.3882L47.4409 36.403C47.4457 35.9173 47.215 35.4593 46.8219 35.1741L45.941 36.3882ZM42.2807 47.7563L43.399 48.756L43.399 48.756L42.2807 47.7563ZM19.2106 47.6179L18.0728 48.5953L18.0728 48.5953L19.2106 47.6179ZM15.8669 37.7619L14.7418 36.7699C14.4965 37.048 14.363 37.4072 14.3669 37.778L15.8669 37.7619ZM17.4485 35.9681L18.4557 34.8565C18.1582 34.587 17.7652 34.448 17.3646 34.4705C16.9639 34.493 16.5889 34.6751 16.3235 34.9761L17.4485 35.9681ZM19.2819 37.6291L20.289 36.5175L20.289 36.5175L19.2819 37.6291ZM19.8552 24.9411L21.3552 24.9441C21.3561 24.4683 21.1312 24.0202 20.7491 23.7366C20.367 23.453 19.873 23.3675 19.4178 23.5063L19.8552 24.9411ZM18.0836 25.4812L17.6462 24.0463C17.0474 24.2289 16.625 24.764 16.5864 25.3888C16.5479 26.0135 16.9013 26.5966 17.4731 26.8513L18.0836 25.4812ZM19.8551 24.9826L18.3551 24.9796V24.9826H19.8551ZM19.9416 26.309L19.3311 27.6791C19.827 27.9001 20.4037 27.8358 20.8388 27.5111C21.2739 27.1864 21.4995 26.6519 21.4288 26.1136L19.9416 26.309ZM40.779 18.4313L41.9041 19.4233C42.156 19.1376 42.2898 18.7668 42.2783 18.386L40.779 18.4313ZM40.1273 19.1703L38.894 20.0242C39.1566 20.4034 39.579 20.6408 40.0395 20.6678C40.5 20.6948 40.9473 20.5084 41.2524 20.1624L40.1273 19.1703ZM37.7838 12.0677L36.7231 13.1284L36.7231 13.1284L37.7838 12.0677ZM23.8669 11.963L22.7884 10.9205L23.8669 11.963ZM21.0291 19.3254L19.5294 19.2942C19.5192 19.7856 19.7503 20.2508 20.1482 20.5395L21.0291 19.3254ZM21.4014 19.5956L20.5205 20.8097C20.8574 21.0541 21.2807 21.1475 21.6891 21.0677C22.0976 20.9879 22.4546 20.7419 22.6746 20.3886L21.4014 19.5956ZM24.8629 18.1132L23.9238 16.9436C23.464 17.3127 23.2632 17.917 23.4105 18.4879C23.5578 19.0588 24.0259 19.4905 24.6068 19.5912L24.8629 18.1132ZM37.4441 18.5437L36.8492 19.9206C37.52 20.2104 38.3019 19.9748 38.7008 19.3626C39.0998 18.7505 38.9996 17.94 38.4637 17.4434L37.4441 18.5437ZM36.5535 18.1589L37.1484 16.7819L37.1484 16.7819L36.5535 18.1589ZM35.6388 18.3089L36.6525 19.4145L36.6525 19.4145L35.6388 18.3089ZM33.8392 19.9588L33.0493 21.234C33.6206 21.5879 34.3576 21.5186 34.8529 21.0645L33.8392 19.9588ZM31.0349 18.2216L31.8249 16.9465L31.8249 16.9465L31.0349 18.2216ZM30.0876 18.2524L29.2141 17.033L29.2141 17.033L30.0876 18.2524ZM27.6828 19.9749L26.8271 21.2069C27.3481 21.5688 28.0405 21.5638 28.5563 21.1944L27.6828 19.9749ZM25.2018 18.2517L26.0575 17.0197L26.0575 17.0197L25.2018 18.2517ZM24.0328 12.2009C25.7353 10.4397 28.1708 9.38281 31.1171 9.38281V6.38281C27.4228 6.38281 24.1874 7.72456 21.8758 10.1159L24.0328 12.2009ZM21.2844 19.5249C21.3048 16.4876 22.3295 13.9631 24.0328 12.2009L21.8758 10.1159C19.5729 12.4984 18.3094 15.7933 18.2844 19.5047L21.2844 19.5249ZM20.9921 18.9349C21.1633 19.0592 21.2861 19.2731 21.2844 19.5249L18.2844 19.5047C18.2794 20.2526 18.6439 20.9377 19.2303 21.3631L20.9921 18.9349ZM21.701 19.4493L20.9921 18.9349L19.2303 21.3631L19.9392 21.8775L21.701 19.4493ZM21.4243 23.8862C21.5399 22.9769 21.7979 22.1087 22.1774 21.3018L19.4627 20.025C18.9528 21.1091 18.6044 22.2798 18.4482 23.5077L21.4243 23.8862ZM17.2777 26.0756L20.3737 25.1318L19.4989 22.2622L16.403 23.2059L17.2777 26.0756ZM17.3907 24.7864C17.6184 24.8879 17.7469 25.0557 17.8055 25.175C17.8596 25.2852 17.867 25.3734 17.8648 25.4293C17.8626 25.4844 17.8481 25.5808 17.7763 25.6986C17.6976 25.8279 17.5362 25.9968 17.2777 26.0756L16.403 23.2059C15.254 23.5562 14.8938 24.6399 14.8672 25.3104C14.8402 25.9891 15.1135 27.0561 16.1698 27.5267L17.3907 24.7864ZM20.8328 26.32L17.3907 24.7864L16.1698 27.5267L19.6119 29.0604L20.8328 26.32ZM23.6994 30.9231C22.7473 29.8863 22.0442 28.647 21.6678 27.2894L18.7769 28.0909C19.2853 29.9246 20.23 31.5804 21.4898 32.9522L23.6994 30.9231ZM21.2861 36.9678C21.7606 35.4713 22.585 34.1113 23.6756 32.9776L21.5136 30.8978C20.1161 32.3505 19.0456 34.1079 18.4264 36.0612L21.2861 36.9678ZM17.2165 36.1471L18.8491 37.6261L20.8633 35.4029L19.2307 33.9238L17.2165 36.1471ZM17.6944 36.116C17.6199 36.2004 17.5273 36.2328 17.4566 36.2365C17.3858 36.2403 17.2949 36.2181 17.2165 36.1471L19.2307 33.9238C18.1411 32.9366 16.4243 33.0204 15.4442 34.1318L17.6944 36.116ZM16.0165 38.0189L17.6944 36.116L15.4442 34.1318L13.7663 36.0348L16.0165 38.0189ZM16.1245 37.7189C16.1256 37.8433 16.0786 37.9484 16.0165 38.0189L13.7663 36.0347C13.3598 36.4957 13.119 37.0993 13.1246 37.7451L16.1245 37.7189ZM19.3883 47.3928C17.1414 44.7773 16.1554 41.2631 16.1245 37.7189L13.1246 37.7451C13.1598 41.7814 14.2807 46.051 17.1127 49.3477L19.3883 47.3928ZM30.5863 51.8057C25.178 51.8057 21.6165 49.9866 19.3883 47.3928L17.1127 49.3477C19.9973 52.7057 24.4456 54.8057 30.5863 54.8057V51.8057ZM42.1069 47.5268C39.7361 50.179 36.0253 51.8057 30.5863 51.8057V54.8057C36.6426 54.8057 41.2628 52.9725 44.3436 49.5262L42.1069 47.5268ZM45.6834 36.3343C45.6454 41.0168 44.4909 44.8599 42.1069 47.5268L44.3436 49.5262C47.3807 46.1287 48.6418 41.4731 48.6833 36.3587L45.6834 36.3343ZM45.8537 36.6885C45.7605 36.6209 45.6821 36.4952 45.6834 36.3343L48.6833 36.3586C48.6901 35.5143 48.2777 34.7408 47.6155 34.2604L45.8537 36.6885ZM44.1238 35.4334L45.8537 36.6885L47.6155 34.2604L45.8856 33.0052L44.1238 35.4334ZM44.5108 35.4314C44.4465 35.4789 44.3772 35.4975 44.3173 35.4978C44.2574 35.498 44.1882 35.4801 44.1238 35.4334L45.8856 33.0052C44.9463 32.3237 43.6608 32.3289 42.7272 33.0192L44.5108 35.4314ZM43.7841 35.9687L44.5108 35.4314L42.7272 33.0192L42.0006 33.5565L43.7841 35.9687ZM38.9708 32.2083C40.0453 33.113 40.9271 34.2132 41.5566 35.4451L44.2281 34.08C43.4114 32.482 42.2747 31.0683 40.903 29.9134L38.9708 32.2083ZM40.453 24.9826C40.453 26.9082 39.8193 28.6961 38.7306 30.1694L41.1432 31.9523C42.5941 29.989 43.453 27.5818 43.453 24.9826H40.453ZM39.4601 20.9588C40.0963 22.1713 40.453 23.5363 40.453 24.9826H43.453C43.453 23.0351 42.971 21.1934 42.1167 19.5651L39.4601 20.9588ZM40.7044 18.0892L39.6633 19.2699L41.9135 21.254L42.9546 20.0733L40.7044 18.0892ZM40.5239 18.5808C40.522 18.3857 40.5954 18.2129 40.7044 18.0892L42.9546 20.0733C43.3134 19.6664 43.5292 19.13 43.5237 18.5524L40.5239 18.5808ZM37.6213 12.3092C39.3968 14.0847 40.503 16.3898 40.5239 18.5809L43.5237 18.5524C43.4939 15.4107 41.9451 12.3904 39.7427 10.1879L37.6213 12.3092ZM31.1171 9.38281C33.5005 9.38281 35.85 10.5377 37.6213 12.3092L39.7427 10.1879C37.5357 7.98071 34.4593 6.38281 31.1171 6.38281V9.38281ZM37.4014 33.0211C38.6083 33.9091 39.5708 35.0681 40.1928 36.3924L42.9082 35.1171C42.0664 33.3248 40.7749 31.7786 39.1793 30.6047L37.4014 33.0211ZM36.4833 31.4516C36.5589 32.0902 36.9003 32.6525 37.4014 33.0211L39.1793 30.6047C39.3249 30.7119 39.4373 30.8862 39.4625 31.099L36.4833 31.4516ZM37.021 29.7036C36.6092 30.1809 36.4076 30.8119 36.4833 31.4516L39.4625 31.099C39.4878 31.3129 39.4188 31.517 39.2923 31.6636L37.021 29.7036ZM38.7971 24.9826C38.7971 26.7683 38.1374 28.4099 37.021 29.7036L39.2923 31.6635C40.8513 29.8569 41.7971 27.5289 41.7971 24.9826H38.7971ZM37.783 21.3169C38.43 22.4015 38.7971 23.6507 38.7971 24.9826H41.7971C41.7971 23.0888 41.2728 21.3111 40.3594 19.78L37.783 21.3169ZM35.7019 20.7268L38.4763 21.9254L39.6661 19.1715L36.8918 17.9728L35.7019 20.7268ZM35.4763 22.1371L37.3105 20.4555L35.2832 18.2442L33.4489 19.9259L35.4763 22.1371ZM32.6487 22.3996C33.5358 22.9491 34.6978 22.8509 35.4763 22.1371L33.4489 19.9259C33.6728 19.7206 33.9866 19.6994 34.2286 19.8493L32.6487 22.3996ZM29.8116 20.6421L32.6487 22.3996L34.2286 19.8493L31.3915 18.0918L29.8116 20.6421ZM29.0568 22.3185L31.475 20.5864L29.7281 18.1475L27.3099 19.8796L29.0568 22.3185ZM26.3439 22.3379C27.1584 22.9037 28.2498 22.8965 29.0568 22.3185L27.3099 19.8796C27.5353 19.7181 27.8287 19.7165 28.0553 19.8739L26.3439 22.3379ZM23.8669 20.6175L26.3439 22.3379L28.0553 19.874L25.5783 18.1535L23.8669 20.6175ZM23.3439 22.2703L25.6144 20.5916L23.8308 18.1794L21.5603 19.8581L23.3439 22.2703ZM23.0973 23.873C23.2153 23.1223 23.4515 22.4072 23.7888 21.7449L21.1154 20.3836C20.6385 21.3201 20.3019 22.3368 20.1337 23.4074L23.0973 23.873ZM23.5844 24.1328C23.4264 23.4567 23.0643 22.8576 22.5236 22.4463L20.7074 24.8341C20.6727 24.8077 20.6563 24.7848 20.6514 24.7768C20.6463 24.7687 20.6545 24.7786 20.6631 24.8155L23.5844 24.1328ZM23.615 27.2906C23.8677 26.2159 23.8438 25.2429 23.5844 24.1328L20.6631 24.8155C20.8306 25.5319 20.8289 26.033 20.6946 26.6041L23.615 27.2906ZM23.0865 28.4313C23.341 28.0969 23.5168 27.7084 23.615 27.2906L20.6946 26.6041C20.6893 26.6267 20.6847 26.6368 20.6846 26.6369C20.6846 26.6371 20.6885 26.6286 20.6991 26.6146L23.0865 28.4313ZM25.3496 30.2897C24.4057 29.4046 23.7034 28.3035 23.3261 27.0808L20.4595 27.9652C20.9971 29.7078 21.9904 31.2524 23.2975 32.478L25.3496 30.2897ZM26.0713 31.9653C26.0763 31.3212 25.8065 30.7182 25.3496 30.2897L23.2975 32.478C23.1606 32.3497 23.0698 32.1581 23.0714 31.9424L26.0713 31.9653ZM25.3248 33.6294C25.7876 33.2079 26.0664 32.6094 26.0713 31.9653L23.0714 31.9424C23.0731 31.7268 23.1667 31.5371 23.3048 31.4113L25.3248 33.6294ZM23.7698 35.4871C24.1971 34.8046 24.7208 34.1794 25.3248 33.6294L23.3048 31.4113C22.5028 32.1418 21.8021 32.9767 21.2271 33.8951L23.7698 35.4871ZM22.4638 36.1907C22.4048 36.1893 22.336 36.1699 22.2733 36.1229L24.0743 33.7236C23.6112 33.376 23.0675 33.2038 22.5331 33.1915L22.4638 36.1907ZM22.2734 36.1229L24.7361 37.9714L26.537 35.5721L24.0743 33.7236L22.2734 36.1229ZM26.6158 37.908L29.0322 35.8255L27.0737 33.553L24.6573 35.6355L26.6158 37.908ZM29.0322 35.8255C28.9659 35.8826 28.892 35.906 28.8296 35.9089C28.7673 35.9117 28.6943 35.8951 28.6265 35.847L30.3629 33.4006C29.3683 32.6946 28.0023 32.7527 27.0737 33.553L29.0322 35.8255ZM28.6265 35.847L31.6369 37.9836L33.3732 35.5371L30.3629 33.4006L28.6265 35.847ZM33.5583 37.8284L35.9947 35.426L33.8883 33.2898L31.4519 35.6923L33.5583 37.8284ZM35.9947 35.426C35.9272 35.4925 35.8491 35.5207 35.7846 35.526C35.7202 35.5313 35.6439 35.5161 35.5732 35.467L37.2846 33.003C36.24 32.2775 34.8028 32.3881 33.8883 33.2898L35.9947 35.426ZM35.5732 35.467L39.2738 38.0374L40.9852 35.5734L37.2846 33.003L35.5732 35.467ZM41.0213 38.0115L42.4423 36.9609L40.6587 34.5486L39.2377 35.5993L41.0213 38.0115ZM21.3942 34.8802L20.3359 35.9953L22.512 38.0604L23.5702 36.9453L21.3942 34.8802ZM25.8381 36.5561L23.3827 34.7131L21.5818 37.1124L24.0372 38.9554L25.8381 36.5561ZM25.4246 36.5719C25.4923 36.5136 25.5679 36.4904 25.6312 36.4884C25.6944 36.4863 25.7694 36.5045 25.8381 36.5561L24.0372 38.9554C25.0341 39.7037 26.4354 39.6611 27.3832 38.8444L25.4246 36.5719ZM27.8427 34.4879L25.4246 36.5719L27.3832 38.8444L29.8013 36.7604L27.8427 34.4879ZM32.7053 36.5409L29.6902 34.4009L27.9538 36.8474L30.969 38.9873L32.7053 36.5409ZM32.2808 36.5798C32.3487 36.5128 32.4275 36.4847 32.4924 36.4796C32.5571 36.4746 32.6342 36.4904 32.7053 36.5409L30.969 38.9873C32.0145 39.7294 33.4658 39.6245 34.3872 38.7159L32.2808 36.5798ZM34.7179 34.1767L32.2808 36.5798L34.3872 38.7159L36.8243 36.3128L34.7179 34.1767ZM40.3175 36.5763L36.6268 34.0128L34.9154 36.4767L38.6061 39.0403L40.3175 36.5763ZM39.9366 36.5826C39.9998 36.5358 40.0679 36.5171 40.127 36.5163C40.1861 36.5154 40.254 36.5321 40.3175 36.5763L38.6061 39.0403C39.5425 39.6906 40.8021 39.6736 41.7202 38.9948L39.9366 36.5826ZM41.1173 35.7096L39.9366 36.5826L41.7202 38.9948L42.9009 38.1218L41.1173 35.7096ZM40.582 37.3777C40.8452 38.1907 40.9872 39.0551 40.9872 39.9534H43.9872C43.9872 38.7366 43.7945 37.5607 43.4362 36.4537L40.582 37.3777ZM40.9872 39.9534C40.9872 44.7323 36.9103 48.7227 31.7343 48.7227V51.7227C38.4356 51.7227 43.9872 46.5177 43.9872 39.9534H40.9872ZM31.7343 48.7227C26.5583 48.7227 22.4815 44.7323 22.4815 39.9534H19.4815C19.4815 46.5177 25.033 51.7227 31.7343 51.7227V48.7227ZM22.4815 39.9534C22.4815 39.0898 22.6126 38.2578 22.8564 37.4727L19.9914 36.583C19.6594 37.6521 19.4815 38.7839 19.4815 39.9534H22.4815ZM20.8255 39.9534C20.8255 39.3138 20.8865 38.6889 21.003 38.0833L18.0569 37.5169C17.9048 38.3079 17.8255 39.1224 17.8255 39.9534H20.8255ZM31.7343 50.3042C25.6438 50.3042 20.8255 45.6057 20.8255 39.9534H17.8255C17.8255 47.3911 24.1185 53.3042 31.7343 53.3042V50.3042ZM42.6431 39.9534C42.6431 45.6057 37.8249 50.3042 31.7343 50.3042V53.3042C39.3501 53.3042 45.6431 47.3911 45.6431 39.9534H42.6431ZM41.9936 36.4265C42.4137 37.5262 42.6431 38.7131 42.6431 39.9534H45.6431C45.6431 38.3396 45.344 36.7902 44.796 35.3558L41.9936 36.4265ZM43.4248 34.0035L42.503 34.685L44.2865 37.0973L45.2083 36.4157L43.4248 34.0035ZM46.8219 35.1741L45.1975 33.9955L43.4357 36.4237L45.0601 37.6023L46.8219 35.1741ZM43.399 48.756C46.1681 45.6583 47.3924 41.336 47.4409 36.403L44.441 36.3735C44.3968 40.8735 43.281 44.3866 41.1624 46.7567L43.399 48.756ZM30.5863 53.6196C36.3691 53.6196 40.607 51.8794 43.399 48.756L41.1624 46.7567C39.0795 49.0866 35.7506 50.6196 30.5863 50.6196V53.6196ZM18.0728 48.5953C20.6923 51.6446 24.7687 53.6196 30.5863 53.6196V50.6196C25.5019 50.6196 22.3119 48.926 20.3485 46.6405L18.0728 48.5953ZM14.3669 37.778C14.4081 41.6183 15.4815 45.5788 18.0728 48.5953L20.3485 46.6405C18.3399 44.3023 17.4026 41.0942 17.3668 37.7459L14.3669 37.778ZM16.3235 34.9761L14.7418 36.7699L16.992 38.754L18.5736 36.9602L16.3235 34.9761ZM20.289 36.5175L18.4557 34.8565L16.4414 37.0798L18.2748 38.7407L20.289 36.5175ZM20.2111 36.4637C20.2384 36.4776 20.2649 36.4957 20.289 36.5175L18.2748 38.7407C18.4513 38.9006 18.6449 39.0326 18.8489 39.1366L20.2111 36.4637ZM19.4178 23.5063L17.6462 24.0463L18.521 26.916L20.2926 26.3759L19.4178 23.5063ZM21.3551 24.9856L21.3552 24.9441L18.3552 24.9381L18.3551 24.9796L21.3551 24.9856ZM21.4288 26.1136C21.3802 25.7437 21.3551 25.3662 21.3551 24.9826H18.3551C18.3551 25.4974 18.3888 26.0053 18.4544 26.5044L21.4288 26.1136ZM17.4731 26.8513L19.3311 27.6791L20.552 24.9388L18.694 24.111L17.4731 26.8513ZM39.6539 17.4392L39.0022 18.1783L41.2524 20.1624L41.9041 19.4233L39.6539 17.4392ZM36.7231 13.1284C38.2894 14.6947 39.2252 16.672 39.2797 18.4765L42.2783 18.386C42.1962 15.664 40.8318 12.9946 38.8445 11.0071L36.7231 13.1284ZM31.1171 10.5689C33.084 10.5689 35.1268 11.5319 36.7231 13.1284L38.8445 11.0071C36.8114 8.97386 34.0415 7.56893 31.1171 7.56893V10.5689ZM24.9454 13.0055C26.4009 11.4997 28.4995 10.5689 31.1171 10.5689V7.56893C27.7512 7.56893 24.8527 8.78486 22.7884 10.9205L24.9454 13.0055ZM22.5287 19.3566C22.585 16.6533 23.5118 14.4887 24.9454 13.0055L22.7884 10.9205C20.7689 13.0097 19.5995 15.9257 19.5294 19.2942L22.5287 19.3566ZM22.2823 18.3815L21.91 18.1113L20.1482 20.5395L20.5205 20.8097L22.2823 18.3815ZM30.9041 12.9305C26.3447 12.9305 22.3286 15.2699 20.1282 18.8025L22.6746 20.3886C24.327 17.7357 27.3803 15.9305 30.9041 15.9305V12.9305ZM41.3606 18.3165C39.1043 15.0574 35.2516 12.9305 30.9041 12.9305V15.9305C34.2633 15.9305 37.1959 17.5713 38.894 20.0242L41.3606 18.3165ZM30.9041 14.5119C28.2563 14.5119 25.8187 15.422 23.9238 16.9436L25.802 19.2828C27.1733 18.1817 28.9506 17.5119 30.9041 17.5119V14.5119ZM38.4637 17.4434C36.4995 15.6234 33.8304 14.5119 30.9041 14.5119V17.5119C33.0626 17.5119 35.0065 18.3299 36.4246 19.6439L38.4637 17.4434ZM35.9586 19.5358L36.8492 19.9206L38.0391 17.1667L37.1484 16.7819L35.9586 19.5358ZM36.6525 19.4145C36.4529 19.5976 36.1831 19.6328 35.9586 19.5358L37.1484 16.7819C36.3072 16.4185 35.3131 16.5725 34.6251 17.2033L36.6525 19.4145ZM34.8529 21.0645L36.6525 19.4145L34.6251 17.2032L32.8255 18.8532L34.8529 21.0645ZM30.245 19.4968L33.0493 21.234L34.6292 18.6837L31.8249 16.9465L30.245 19.4968ZM30.961 19.4719C30.7446 19.6269 30.4666 19.634 30.245 19.4968L31.8249 16.9465C31.0207 16.4483 29.9862 16.48 29.2141 17.033L30.961 19.4719ZM28.5563 21.1944L30.961 19.4719L29.2141 17.033L26.8093 18.7555L28.5563 21.1944ZM24.3461 19.4837L26.8271 21.2069L28.5385 18.7429L26.0575 17.0197L24.3461 19.4837ZM24.6068 19.5912C24.5187 19.5759 24.4287 19.5411 24.3461 19.4837L26.0575 17.0197C25.7685 16.819 25.4465 16.6919 25.119 16.6352L24.6068 19.5912Z" fill="#F8F9FA" mask="url(#path-1-outside-1_50_7926)"/>
<path fill-rule="evenodd" clip-rule="evenodd" d="M38.7913 31.1773C40.2467 29.4907 41.1208 27.3295 41.1208 24.9733C41.1208 19.5822 36.5447 15.2119 30.8998 15.2119C25.2549 15.2119 20.6788 19.5822 20.6788 24.9733C20.6788 27.7012 21.8504 30.1677 23.7393 31.9389C21.5275 33.9532 20.1492 36.795 20.1492 39.9443C20.1492 46.0526 25.3341 51.0044 31.73 51.0044C38.1259 51.0044 43.3109 46.0526 43.3109 39.9443C43.3109 36.3744 41.5399 33.1996 38.7913 31.1773Z" fill="#FFE066"/>
<path d="M38.7912 31.1773L38.1855 30.6547C38.0399 30.8235 37.9713 31.0454 37.9962 31.267C38.0212 31.4885 38.1375 31.6896 38.3171 31.8217L38.7912 31.1773ZM23.7392 31.9389L24.2779 32.5304C24.4428 32.3801 24.5376 32.1678 24.5392 31.9447C24.5408 31.7216 24.4492 31.5079 24.2864 31.3553L23.7392 31.9389ZM40.3207 24.9733C40.3207 27.1267 39.523 29.1048 38.1855 30.6547L39.3969 31.7C40.9703 29.8766 41.9207 27.5324 41.9207 24.9733H40.3207ZM30.8998 16.0119C36.1379 16.0119 40.3207 20.0584 40.3207 24.9733H41.9207C41.9207 19.1061 36.9514 14.4119 30.8998 14.4119V16.0119ZM21.4788 24.9733C21.4788 20.0584 25.6616 16.0119 30.8998 16.0119V14.4119C24.8481 14.4119 19.8788 19.1061 19.8788 24.9733H21.4788ZM24.2864 31.3553C22.5477 29.7248 21.4788 27.4652 21.4788 24.9733H19.8788C19.8788 27.9371 21.1531 30.6105 23.192 32.5225L24.2864 31.3553ZM20.9492 39.9443C20.9492 37.0356 22.2207 34.4038 24.2779 32.5304L23.2006 31.3474C20.834 33.5026 19.3492 36.5544 19.3492 39.9443H20.9492ZM31.73 50.2044C25.7408 50.2044 20.9492 45.5765 20.9492 39.9443H19.3492C19.3492 46.5287 24.9273 51.8044 31.73 51.8044V50.2044ZM42.5108 39.9443C42.5108 45.5765 37.7191 50.2044 31.73 50.2044V51.8044C38.5326 51.8044 44.1108 46.5287 44.1108 39.9443H42.5108ZM38.3171 31.8217C40.8771 33.7051 42.5108 36.6483 42.5108 39.9443H44.1108C44.1108 36.1005 42.2026 32.694 39.2653 30.533L38.3171 31.8217Z" fill="#212529"/>
<g style="mix-blend-mode:multiply">
<path d="M24.1048 20.7597L23.7122 20.9872C22.9115 21.451 21.9645 20.6721 22.2652 19.7969L23.3995 16.4954C23.5383 16.0915 23.9182 15.8203 24.3452 15.8203H37.8811C38.333 15.8203 38.7288 16.1234 38.8466 16.5597L39.8446 20.257C40.0661 21.0774 39.2281 21.7827 38.4576 21.4244L36.9009 20.7005C36.5663 20.545 36.1732 20.5863 35.8783 20.808L34.3761 21.9375C34.0593 22.1757 33.6316 22.2043 33.2859 22.0104L31.0149 20.7365C30.6974 20.5584 30.3081 20.5669 29.9987 20.7587L28.0118 21.9906C27.6788 22.197 27.256 22.19 26.9301 21.9727L25.1609 20.793C24.8439 20.5817 24.4345 20.5688 24.1048 20.7597Z" fill="#DEE2E6"/>
</g>
<path d="M20.401 19.5056C20.4464 13.0103 24.8019 8.46682 31.1127 8.46682C36.4199 8.46682 41.3489 13.5851 41.3984 18.5595C41.3989 18.6082 41.381 18.6552 41.3488 18.6917L40.0511 20.1634C39.9939 20.2283 39.9013 20.249 39.8218 20.2147L36.2845 18.6864C36.2121 18.6551 36.1281 18.6693 36.07 18.7226L34.0215 20.6007C33.9554 20.6613 33.8572 20.6705 33.781 20.6233L30.6847 18.7052C30.6161 18.6627 30.5286 18.6656 30.4629 18.7127L27.7987 20.621C27.73 20.6702 27.6377 20.6709 27.5682 20.6226L24.8243 18.7168C24.7539 18.6679 24.6602 18.6693 24.5913 18.7202L22.0272 20.616C21.9571 20.6679 21.8615 20.6683 21.7909 20.6171L20.4832 19.6683C20.4313 19.6307 20.4005 19.5697 20.401 19.5056Z" fill="#F8F9FA" stroke="#212529" stroke-width="1.4" stroke-linecap="round" stroke-linejoin="round"/>
<g style="mix-blend-mode:multiply">
<path d="M38.8299 13.0914C36.8039 10.2872 33.6056 9.28231 32.2598 9.13037C35.651 10.3086 36.6427 11.3065 38.1691 13.7223C39.5241 15.8668 39.6617 18.6531 39.7474 20.102L41.032 18.8401C41.1421 18.0923 40.8558 15.8956 38.8299 13.0914Z" fill="#DEE2E6"/>
</g>
<path d="M20.3173 24.06L16.8998 25.1906C16.7292 25.247 16.7138 25.4823 16.8756 25.5605L20.0334 27.0874C20.5766 27.35 21.2465 27.0813 21.4075 26.4998C21.5904 25.8397 21.6611 25.2137 21.4066 24.5117C21.2503 24.0806 20.7527 23.9159 20.3173 24.06Z" fill="#F8F9FA" stroke="#212529" stroke-width="1.2" stroke-linecap="round" stroke-linejoin="round"/>
<ellipse cx="32.2288" cy="39.3011" rx="6.47603" ry="8.17661" fill="#FFE066" stroke="#212529" stroke-width="1.4" stroke-linecap="round" stroke-linejoin="round"/>
<path d="M46.5587 36.1883C46.5261 45.903 41.8587 52.7031 30.5818 52.7031C19.3033 52.7031 15.2675 45.0437 15.2403 37.6128C15.2401 37.5641 15.258 37.5171 15.2902 37.4806L17.2593 35.2474C17.3331 35.1637 17.461 35.1566 17.5436 35.2314L19.944 37.4061C20.0245 37.479 20.1486 37.4743 20.2233 37.3955L22.2836 35.2246C22.3535 35.1509 22.4676 35.1413 22.5488 35.2023L25.5309 37.4407C25.6061 37.4971 25.7104 37.4936 25.7816 37.4322L28.6607 34.9509C28.7304 34.8908 28.832 34.8861 28.907 34.9393L32.4307 37.4402C32.5098 37.4964 32.6178 37.4876 32.6869 37.4195L35.5774 34.5693C35.646 34.5017 35.7529 34.4925 35.832 34.5474L40.0189 37.4555C40.0893 37.5044 40.183 37.503 40.2519 37.4521L44.1907 34.5398C44.2608 34.4879 44.3564 34.4875 44.427 34.5387L46.4763 36.0256C46.5281 36.0632 46.5589 36.1243 46.5587 36.1883Z" fill="#F8F9FA" stroke="#212529" stroke-width="1.4" stroke-linecap="round" stroke-linejoin="round"/>
<ellipse cx="24.9948" cy="22.3291" rx="0.758262" ry="0.724167" fill="#212529"/>
<g style="mix-blend-mode:multiply">
<path d="M43.8102 45.9666C40.6358 50.3603 38.5902 51.0987 33.5161 52.1729C38.8295 50.3269 40.3503 49.2523 42.7419 45.4671C44.8648 42.1072 44.9283 37.7726 45.0625 35.5026L46.1557 36.2521C46.3282 37.4238 46.9845 41.573 43.8102 45.9666Z" fill="#DEE2E6"/>
</g>
</svg>
