<svg width="60" height="61" viewBox="0 0 60 61" fill="none" xmlns="http://www.w3.org/2000/svg">
<mask id="path-1-outside-1_50_4251" maskUnits="userSpaceOnUse" x="10.9529" y="6.0957" width="37" height="50" fill="black">
<rect fill="white" x="10.9529" y="6.0957" width="37" height="50"/>
<path fill-rule="evenodd" clip-rule="evenodd" d="M27.5488 9.95078C28.0228 9.90376 28.5008 9.87246 28.9812 9.85681V39.0932H28.2356C28.0294 38.7223 27.8083 38.332 27.5769 37.9233C25.3259 33.948 22.0972 28.2462 22.0972 22.0225C22.0972 18.4465 22.8955 16.0011 23.873 14.1898C24.5844 12.8715 25.3701 11.9087 26.0849 11.0327C26.3271 10.7359 26.5611 10.4491 26.7814 10.1618C26.9955 10.0968 27.261 10.0222 27.5488 9.95078ZM29.7884 8.32482L29.7916 8.10003L29.7885 8.32482L29.7884 8.32482ZM30.3971 39.0932H31.1107L31.1377 39.0506C31.4368 38.5006 31.7729 37.9121 32.1299 37.287L32.1299 37.2869L32.13 37.2867C34.3353 33.4248 37.336 28.1699 37.336 22.0225C37.336 18.4465 36.5376 16.0011 35.5602 14.1898C34.8488 12.8715 34.0631 11.9087 33.3483 11.0327L33.3482 11.0327C33.086 10.7113 32.8332 10.4016 32.5972 10.0903C31.8748 9.97922 31.1392 9.90603 30.3971 9.87043V39.0932ZM36.7576 13.5437C36.1065 12.3372 35.3556 11.3502 34.6969 10.5317C36.6234 11.0521 38.3984 11.8705 39.8816 12.9943C42.5609 15.0244 44.3385 18.0841 44.3385 22.3616C44.3385 26.7267 42.4899 30.3574 40.1246 33.2065C37.8383 35.9605 35.0995 37.9449 33.1969 39.0932H32.6697C32.8622 38.7508 33.0686 38.3906 33.2847 38.0133L33.2847 38.0133C35.4846 34.1732 38.6966 28.5661 38.6966 22.0225C38.6966 18.2247 37.8439 15.5568 36.7576 13.5437ZM26.674 39.0932C26.5897 38.9444 26.5033 38.7923 26.415 38.6369L26.415 38.6368C24.1739 34.6914 20.7365 28.6398 20.7365 22.0225C20.7365 18.2247 21.5892 15.5568 22.6756 13.5437C23.3605 12.2745 24.1559 11.2482 24.8381 10.4055C22.7211 10.9152 20.7684 11.7749 19.1591 12.9943C16.4798 15.0243 14.7022 18.0841 14.7022 22.3616C14.7022 26.7266 16.5508 30.3574 18.9161 33.2065C21.2024 35.9605 23.9412 37.9449 25.8438 39.0932H26.674ZM41.4706 34.324C38.9748 37.3302 35.9997 39.4583 33.9824 40.662C33.957 40.7162 33.925 40.7679 33.8867 40.816L31.1185 44.2896H35.3296C35.759 44.2896 36.1071 44.6377 36.1071 45.0671C36.1071 45.4965 35.759 45.8446 35.3296 45.8446H34.8703V51.1401C34.8703 52.5894 33.6954 53.7642 32.2462 53.7642H27.7058C26.2566 53.7642 25.0818 52.5894 25.0818 51.1401V45.8446H24.3309C23.9015 45.8446 23.5534 45.4965 23.5534 45.0671C23.5534 44.6377 23.9015 44.2896 24.3309 44.2896H28.3159L25.1873 40.855C25.134 40.7965 25.0909 40.7313 25.0583 40.662C23.0411 39.4583 20.0659 37.3302 17.5702 34.3239C15.0293 31.2633 12.9529 27.2507 12.9529 22.3616C12.9529 17.5266 14.9948 13.9547 18.1026 11.6C21.1623 9.28171 25.2045 8.17664 29.2497 8.1C29.2783 8.09717 29.3073 8.09572 29.3367 8.09572C29.3975 8.09572 29.4583 8.09595 29.519 8.09641C29.5807 8.09594 29.6423 8.0957 29.704 8.0957C29.7336 8.0957 29.7628 8.09717 29.7916 8.10003C33.8366 8.17675 37.8786 9.28183 40.9381 11.6C44.0459 13.9547 46.0879 17.5266 46.0879 22.3616C46.0879 27.2507 44.0114 31.2633 41.4706 34.324ZM26.4424 45.8446H33.5096V51.1401C33.5096 51.8379 32.944 52.4036 32.2462 52.4036H27.7058C27.008 52.4036 26.4424 51.8379 26.4424 51.1401V45.8446ZM27.522 41.1089L29.7317 43.5348L31.6649 41.1089H27.522Z"/>
</mask>
<path fill-rule="evenodd" clip-rule="evenodd" d="M27.5488 9.95078C28.0228 9.90376 28.5008 9.87246 28.9812 9.85681V39.0932H28.2356C28.0294 38.7223 27.8083 38.332 27.5769 37.9233C25.3259 33.948 22.0972 28.2462 22.0972 22.0225C22.0972 18.4465 22.8955 16.0011 23.873 14.1898C24.5844 12.8715 25.3701 11.9087 26.0849 11.0327C26.3271 10.7359 26.5611 10.4491 26.7814 10.1618C26.9955 10.0968 27.261 10.0222 27.5488 9.95078ZM29.7884 8.32482L29.7916 8.10003L29.7885 8.32482L29.7884 8.32482ZM30.3971 39.0932H31.1107L31.1377 39.0506C31.4368 38.5006 31.7729 37.9121 32.1299 37.287L32.1299 37.2869L32.13 37.2867C34.3353 33.4248 37.336 28.1699 37.336 22.0225C37.336 18.4465 36.5376 16.0011 35.5602 14.1898C34.8488 12.8715 34.0631 11.9087 33.3483 11.0327L33.3482 11.0327C33.086 10.7113 32.8332 10.4016 32.5972 10.0903C31.8748 9.97922 31.1392 9.90603 30.3971 9.87043V39.0932ZM36.7576 13.5437C36.1065 12.3372 35.3556 11.3502 34.6969 10.5317C36.6234 11.0521 38.3984 11.8705 39.8816 12.9943C42.5609 15.0244 44.3385 18.0841 44.3385 22.3616C44.3385 26.7267 42.4899 30.3574 40.1246 33.2065C37.8383 35.9605 35.0995 37.9449 33.1969 39.0932H32.6697C32.8622 38.7508 33.0686 38.3906 33.2847 38.0133L33.2847 38.0133C35.4846 34.1732 38.6966 28.5661 38.6966 22.0225C38.6966 18.2247 37.8439 15.5568 36.7576 13.5437ZM26.674 39.0932C26.5897 38.9444 26.5033 38.7923 26.415 38.6369L26.415 38.6368C24.1739 34.6914 20.7365 28.6398 20.7365 22.0225C20.7365 18.2247 21.5892 15.5568 22.6756 13.5437C23.3605 12.2745 24.1559 11.2482 24.8381 10.4055C22.7211 10.9152 20.7684 11.7749 19.1591 12.9943C16.4798 15.0243 14.7022 18.0841 14.7022 22.3616C14.7022 26.7266 16.5508 30.3574 18.9161 33.2065C21.2024 35.9605 23.9412 37.9449 25.8438 39.0932H26.674ZM41.4706 34.324C38.9748 37.3302 35.9997 39.4583 33.9824 40.662C33.957 40.7162 33.925 40.7679 33.8867 40.816L31.1185 44.2896H35.3296C35.759 44.2896 36.1071 44.6377 36.1071 45.0671C36.1071 45.4965 35.759 45.8446 35.3296 45.8446H34.8703V51.1401C34.8703 52.5894 33.6954 53.7642 32.2462 53.7642H27.7058C26.2566 53.7642 25.0818 52.5894 25.0818 51.1401V45.8446H24.3309C23.9015 45.8446 23.5534 45.4965 23.5534 45.0671C23.5534 44.6377 23.9015 44.2896 24.3309 44.2896H28.3159L25.1873 40.855C25.134 40.7965 25.0909 40.7313 25.0583 40.662C23.0411 39.4583 20.0659 37.3302 17.5702 34.3239C15.0293 31.2633 12.9529 27.2507 12.9529 22.3616C12.9529 17.5266 14.9948 13.9547 18.1026 11.6C21.1623 9.28171 25.2045 8.17664 29.2497 8.1C29.2783 8.09717 29.3073 8.09572 29.3367 8.09572C29.3975 8.09572 29.4583 8.09595 29.519 8.09641C29.5807 8.09594 29.6423 8.0957 29.704 8.0957C29.7336 8.0957 29.7628 8.09717 29.7916 8.10003C33.8366 8.17675 37.8786 9.28183 40.9381 11.6C44.0459 13.9547 46.0879 17.5266 46.0879 22.3616C46.0879 27.2507 44.0114 31.2633 41.4706 34.324ZM26.4424 45.8446H33.5096V51.1401C33.5096 51.8379 32.944 52.4036 32.2462 52.4036H27.7058C27.008 52.4036 26.4424 51.8379 26.4424 51.1401V45.8446ZM27.522 41.1089L29.7317 43.5348L31.6649 41.1089H27.522Z" fill="#F8F9FA"/>
<path d="M28.9812 9.85681H30.4812C30.4812 9.45052 30.3164 9.0616 30.0244 8.77902C29.7325 8.49645 29.3384 8.34438 28.9324 8.35761L28.9812 9.85681ZM27.5488 9.95078L27.4007 8.45811C27.3289 8.46524 27.2576 8.47756 27.1875 8.49496L27.5488 9.95078ZM28.9812 39.0932V40.5932C29.8096 40.5932 30.4812 39.9216 30.4812 39.0932H28.9812ZM28.2356 39.0932L26.9245 39.822C27.1891 40.298 27.691 40.5932 28.2356 40.5932V39.0932ZM27.5769 37.9233L26.2717 38.6625L26.2717 38.6625L27.5769 37.9233ZM23.873 14.1898L22.5529 13.4775L22.5529 13.4775L23.873 14.1898ZM26.0849 11.0327L27.247 11.9811L27.247 11.9811L26.0849 11.0327ZM26.7814 10.1618L26.3454 8.72655C26.0455 8.81765 25.7817 9.0004 25.591 9.24913L26.7814 10.1618ZM29.7884 8.32482L28.2886 8.30369C28.2777 9.077 28.8565 9.73184 29.6253 9.81592L29.7884 8.32482ZM29.7885 8.32482L29.6254 9.81593C30.0455 9.86187 30.4654 9.72849 30.782 9.44858C31.0986 9.16867 31.2824 8.7682 31.2883 8.34565L29.7885 8.32482ZM30.3971 39.0932H28.8971C28.8971 39.9216 29.5686 40.5932 30.3971 40.5932V39.0932ZM31.1107 39.0932V40.5932C31.6243 40.5932 32.1023 40.3304 32.3774 39.8966L31.1107 39.0932ZM31.1377 39.0506L32.4044 39.854C32.4223 39.8257 32.4393 39.7968 32.4554 39.7674L31.1377 39.0506ZM32.1299 37.287L30.8326 36.5338L30.8273 36.5432L32.1299 37.287ZM32.1299 37.2869L33.4271 38.0401C33.4302 38.0348 33.4333 38.0293 33.4364 38.0239L32.1299 37.2869ZM32.13 37.2867L30.8274 36.5429L30.8236 36.5497L32.13 37.2867ZM35.5602 14.1898L34.2401 14.9022L34.2401 14.9022L35.5602 14.1898ZM33.3483 11.0327L34.5104 10.0844L34.5079 10.0813L33.3483 11.0327ZM33.3482 11.0327L32.1861 11.9811L32.1886 11.9842L33.3482 11.0327ZM32.5972 10.0903L33.7925 9.18406C33.5572 8.87364 33.2103 8.66695 32.8252 8.60774L32.5972 10.0903ZM30.3971 9.87043L30.469 8.37215C30.0591 8.35249 29.6591 8.50156 29.3621 8.78465C29.0651 9.06774 28.8971 9.46013 28.8971 9.87043H30.3971ZM34.6969 10.5317L35.0881 9.08363C34.461 8.91424 33.7961 9.16773 33.441 9.71161C33.0858 10.2555 33.1211 10.9662 33.5284 11.4722L34.6969 10.5317ZM36.7576 13.5437L35.4375 14.256L35.4375 14.256L36.7576 13.5437ZM39.8816 12.9943L38.9758 14.1899L38.9758 14.1899L39.8816 12.9943ZM40.1246 33.2065L41.2787 34.1647L41.2787 34.1647L40.1246 33.2065ZM33.1969 39.0932V40.5932C33.4701 40.5932 33.7381 40.5186 33.972 40.3774L33.1969 39.0932ZM32.6697 39.0932L31.3623 38.3578C31.101 38.8223 31.1058 39.3905 31.3748 39.8505C31.6439 40.3105 32.1368 40.5932 32.6697 40.5932V39.0932ZM33.2847 38.0133L32.0127 37.2183C32.0025 37.2346 31.9927 37.251 31.9832 37.2677L33.2847 38.0133ZM33.2847 38.0133L34.5567 38.8083C34.5669 38.792 34.5768 38.7755 34.5863 38.7589L33.2847 38.0133ZM26.415 38.6369L27.7193 37.8961C27.7156 37.8895 27.7118 37.8829 27.7079 37.8764L26.415 38.6369ZM26.674 39.0932V40.5932C27.2077 40.5932 27.7012 40.3096 27.9699 39.8485C28.2387 39.3874 28.2422 38.8182 27.9791 38.3538L26.674 39.0932ZM26.415 38.6368L25.1107 39.3776C25.1144 39.3842 25.1182 39.3908 25.1221 39.3973L26.415 38.6368ZM22.6756 13.5437L21.3555 12.8313L21.3555 12.8313L22.6756 13.5437ZM24.8381 10.4055L26.0039 11.3494C26.4084 10.8499 26.4496 10.1481 26.1064 9.60462C25.7633 9.06113 25.1119 8.79671 24.487 8.94717L24.8381 10.4055ZM19.1591 12.9943L18.2532 11.7987L18.2532 11.7987L19.1591 12.9943ZM18.9161 33.2065L20.0703 32.2484L20.0703 32.2484L18.9161 33.2065ZM25.8438 39.0932L25.0687 40.3774C25.3026 40.5186 25.5706 40.5932 25.8438 40.5932V39.0932ZM33.9824 40.662L33.2138 39.3739C32.957 39.5271 32.7519 39.7536 32.6247 40.0243L33.9824 40.662ZM41.4706 34.324L42.6247 35.2821L42.6247 35.2821L41.4706 34.324ZM33.8867 40.816L35.0598 41.7508L35.0598 41.7508L33.8867 40.816ZM31.1185 44.2896L29.9455 43.3548C29.5864 43.8053 29.5171 44.4217 29.7672 44.9407C30.0172 45.4597 30.5424 45.7896 31.1185 45.7896V44.2896ZM34.8703 45.8446V44.3446C34.0418 44.3446 33.3703 45.0162 33.3703 45.8446H34.8703ZM25.0818 45.8446H26.5818C26.5818 45.0162 25.9102 44.3446 25.0818 44.3446V45.8446ZM28.3159 44.2896V45.7896C28.9099 45.7896 29.448 45.4391 29.688 44.8958C29.928 44.3524 29.8248 43.7186 29.4248 43.2795L28.3159 44.2896ZM25.1873 40.855L26.2962 39.8449L26.2962 39.8449L25.1873 40.855ZM25.0583 40.662L26.4161 40.0244C26.2889 39.7537 26.0838 39.5271 25.8269 39.3739L25.0583 40.662ZM17.5702 34.3239L16.4161 35.2821L16.4161 35.2821L17.5702 34.3239ZM18.1026 11.6L19.0085 12.7955L19.0085 12.7955L18.1026 11.6ZM29.2497 8.1L29.2781 9.59973C29.3178 9.59898 29.3576 9.59664 29.3971 9.59273L29.2497 8.1ZM29.519 8.09641L29.5076 9.59637C29.5153 9.59643 29.5229 9.59643 29.5306 9.59637L29.519 8.09641ZM40.9381 11.6L41.844 10.4044L41.844 10.4044L40.9381 11.6ZM33.5096 45.8446H35.0096C35.0096 45.0162 34.3381 44.3446 33.5096 44.3446V45.8446ZM26.4424 45.8446V44.3446C25.614 44.3446 24.9424 45.0162 24.9424 45.8446H26.4424ZM29.7317 43.5348L28.6228 44.5449C28.9187 44.8697 29.3421 45.0484 29.7812 45.034C30.2203 45.0195 30.631 44.8132 30.9048 44.4696L29.7317 43.5348ZM27.522 41.1089V39.6089C26.928 39.6089 26.3899 39.9594 26.1499 40.5028C25.9099 41.0461 26.0131 41.6799 26.4131 42.119L27.522 41.1089ZM31.6649 41.1089L32.838 42.0437C33.197 41.5932 33.2663 40.9768 33.0163 40.4578C32.7662 39.9388 32.241 39.6089 31.6649 39.6089V41.1089ZM28.9324 8.35761C28.4193 8.37432 27.9082 8.40776 27.4007 8.45811L27.697 11.4435C28.1374 11.3998 28.5823 11.3706 29.03 11.356L28.9324 8.35761ZM30.4812 39.0932V9.85681H27.4812V39.0932H30.4812ZM28.2356 40.5932H28.9812V37.5932H28.2356V40.5932ZM26.2717 38.6625C26.5037 39.0722 26.7218 39.4573 26.9245 39.822L29.5466 38.3643C29.337 37.9874 29.113 37.5917 28.8822 37.1842L26.2717 38.6625ZM20.5972 22.0225C20.5972 28.7025 24.0511 34.7409 26.2717 38.6625L28.8822 37.1842C26.6007 33.1551 23.5972 27.7899 23.5972 22.0225H20.5972ZM22.5529 13.4775C21.4554 15.5113 20.5972 18.202 20.5972 22.0225H23.5972C23.5972 18.691 24.3357 16.4909 25.193 14.9022L22.5529 13.4775ZM24.9227 10.0844C24.2083 10.9599 23.3392 12.0205 22.5529 13.4775L25.193 14.9022C25.8296 13.7225 26.5319 12.8575 27.247 11.9811L24.9227 10.0844ZM25.591 9.24913C25.387 9.51522 25.1677 9.78419 24.9227 10.0844L27.247 11.9811C27.4865 11.6877 27.7353 11.383 27.9718 11.0745L25.591 9.24913ZM27.1875 8.49496C26.8734 8.57291 26.583 8.65438 26.3454 8.72655L27.2174 11.597C27.408 11.5392 27.6486 11.4715 27.9102 11.4066L27.1875 8.49496ZM28.2917 8.07891L28.2886 8.30369L31.2883 8.34594L31.2914 8.12116L28.2917 8.07891ZM31.2883 8.34565L31.2914 8.12086L28.2917 8.0792L28.2886 8.30399L31.2883 8.34565ZM29.6253 9.81592L29.6254 9.81593L29.9516 6.83371L29.9515 6.83371L29.6253 9.81592ZM30.3971 40.5932H31.1107V37.5932H30.3971V40.5932ZM32.3774 39.8966L32.4044 39.854L29.871 38.2472L29.844 38.2898L32.3774 39.8966ZM32.4554 39.7674C32.7457 39.2336 33.0737 38.6591 33.4325 38.0308L30.8273 36.5432C30.4722 37.165 30.128 37.7677 29.82 38.3339L32.4554 39.7674ZM33.427 38.0402L33.4271 38.0401L30.8327 36.5337L30.8327 36.5338L33.427 38.0402ZM33.4364 38.0239L33.4365 38.0237L30.8236 36.5497L30.8234 36.55L33.4364 38.0239ZM33.4326 38.0305C35.6151 34.2086 38.836 28.6236 38.836 22.0225H35.836C35.836 27.7162 33.0555 32.641 30.8274 36.5429L33.4326 38.0305ZM38.836 22.0225C38.836 18.202 37.9777 15.5113 36.8802 13.4775L34.2401 14.9022C35.0975 16.4909 35.836 18.691 35.836 22.0225H38.836ZM36.8802 13.4775C36.094 12.0205 35.2249 10.9599 34.5104 10.0844L32.1861 11.9811C32.9012 12.8575 33.6035 13.7225 34.2401 14.9022L36.8802 13.4775ZM34.5079 10.0813L34.5078 10.0812L32.1886 11.9842L32.1887 11.9842L34.5079 10.0813ZM34.5104 10.0844C34.2449 9.75894 34.0095 9.47025 33.7925 9.18406L31.402 10.9966C31.657 11.3329 31.9271 11.6637 32.1861 11.9811L34.5104 10.0844ZM32.8252 8.60774C32.0495 8.48846 31.2618 8.41019 30.469 8.37215L30.3252 11.3687C31.0166 11.4019 31.7 11.47 32.3693 11.5729L32.8252 8.60774ZM28.8971 9.87043V39.0932H31.8971V9.87043H28.8971ZM33.5284 11.4722C34.1679 12.2668 34.8515 13.1701 35.4375 14.256L38.0776 12.8313C37.3615 11.5042 36.5433 10.4335 35.8655 9.59126L33.5284 11.4722ZM40.7875 11.7987C39.1262 10.54 37.1688 9.64569 35.0881 9.08363L34.3058 11.9798C36.0779 12.4585 37.6705 13.2009 38.9758 14.1899L40.7875 11.7987ZM45.8385 22.3616C45.8385 17.6061 43.8343 14.1072 40.7875 11.7987L38.9758 14.1899C41.2876 15.9415 42.8385 18.5621 42.8385 22.3616H45.8385ZM41.2787 34.1647C43.7947 31.134 45.8385 27.1758 45.8385 22.3616H42.8385C42.8385 26.2775 41.1851 29.5808 38.9705 32.2484L41.2787 34.1647ZM33.972 40.3774C35.9675 39.1731 38.8529 37.0866 41.2787 34.1647L38.9705 32.2484C36.8236 34.8343 34.2315 36.7168 32.4219 37.8089L33.972 40.3774ZM32.6697 40.5932H33.1969V37.5932H32.6697V40.5932ZM31.9832 37.2677C31.7677 37.6439 31.5583 38.0094 31.3623 38.3578L33.977 39.8286C34.1662 39.4922 34.3695 39.1373 34.5863 38.7589L31.9832 37.2677ZM32.0127 37.2183L32.0127 37.2183L34.5567 38.8083L34.5567 38.8083L32.0127 37.2183ZM37.1966 22.0225C37.1966 28.113 34.2036 33.3916 31.9832 37.2676L34.5863 38.7589C36.7655 34.9547 40.1966 29.0193 40.1966 22.0225H37.1966ZM35.4375 14.256C36.4038 16.0466 37.1966 18.4692 37.1966 22.0225H40.1966C40.1966 17.9802 39.2841 15.067 38.0776 12.8313L35.4375 14.256ZM25.1107 39.3777C25.1991 39.5333 25.285 39.6846 25.3688 39.8325L27.9791 38.3538C27.8943 38.2042 27.8075 38.0513 27.7193 37.8961L25.1107 39.3777ZM25.1221 39.3973L25.1221 39.3974L27.7079 37.8764L27.7079 37.8763L25.1221 39.3973ZM19.2365 22.0225C19.2365 29.0954 22.8976 35.4814 25.1107 39.3776L27.7192 37.8959C25.4503 33.9014 22.2365 28.1843 22.2365 22.0225H19.2365ZM21.3555 12.8313C20.1491 15.067 19.2365 17.9802 19.2365 22.0225H22.2365C22.2365 18.4692 23.0294 16.0466 23.9956 14.256L21.3555 12.8313ZM23.6724 9.46159C22.9754 10.3224 22.1085 11.436 21.3555 12.8313L23.9956 14.256C24.6125 13.1129 25.3363 12.1739 26.0039 11.3494L23.6724 9.46159ZM20.065 14.1899C21.4815 13.1166 23.2362 12.3341 25.1893 11.8638L24.487 8.94717C22.2061 9.49634 20.0553 10.4333 18.2532 11.7987L20.065 14.1899ZM16.2022 22.3616C16.2022 18.5621 17.7532 15.9415 20.065 14.1899L18.2532 11.7987C15.2065 14.1072 13.2022 17.6061 13.2022 22.3616H16.2022ZM20.0703 32.2484C17.8556 29.5808 16.2022 26.2775 16.2022 22.3616H13.2022C13.2022 27.1758 15.246 31.134 17.762 34.1647L20.0703 32.2484ZM26.6189 37.8089C24.8092 36.7168 22.2171 34.8343 20.0703 32.2484L17.762 34.1647C20.1878 37.0866 23.0732 39.1731 25.0687 40.3774L26.6189 37.8089ZM26.674 37.5932H25.8438V40.5932H26.674V37.5932ZM34.751 41.9501C36.8625 40.6902 39.9871 38.4591 42.6247 35.2821L40.3164 33.3658C37.9625 36.2012 35.1368 38.2264 33.2138 39.3739L34.751 41.9501ZM35.0598 41.7508C35.1718 41.6103 35.2654 41.4587 35.3401 41.2997L32.6247 40.0243C32.6485 39.9736 32.6783 39.9255 32.7136 39.8811L35.0598 41.7508ZM32.2916 45.2245L35.0598 41.7508L32.7137 39.8811L29.9455 43.3548L32.2916 45.2245ZM35.3296 42.7896H31.1185V45.7896H35.3296V42.7896ZM37.6071 45.0671C37.6071 43.8093 36.5874 42.7896 35.3296 42.7896V45.7896C34.9306 45.7896 34.6071 45.4662 34.6071 45.0671H37.6071ZM35.3296 47.3446C36.5874 47.3446 37.6071 46.325 37.6071 45.0671H34.6071C34.6071 44.6681 34.9306 44.3446 35.3296 44.3446V47.3446ZM34.8703 47.3446H35.3296V44.3446H34.8703V47.3446ZM36.3703 51.1401V45.8446H33.3703V51.1401H36.3703ZM32.2462 55.2642C34.5239 55.2642 36.3703 53.4178 36.3703 51.1401H33.3703C33.3703 51.7609 32.867 52.2642 32.2462 52.2642V55.2642ZM27.7058 55.2642H32.2462V52.2642H27.7058V55.2642ZM23.5818 51.1401C23.5818 53.4178 25.4282 55.2642 27.7058 55.2642V52.2642C27.085 52.2642 26.5818 51.7609 26.5818 51.1401H23.5818ZM23.5818 45.8446V51.1401H26.5818V45.8446H23.5818ZM24.3309 47.3446H25.0818V44.3446H24.3309V47.3446ZM22.0534 45.0671C22.0534 46.325 23.0731 47.3446 24.3309 47.3446V44.3446C24.73 44.3446 25.0534 44.6681 25.0534 45.0671H22.0534ZM24.3309 42.7896C23.0731 42.7896 22.0534 43.8093 22.0534 45.0671H25.0534C25.0534 45.4662 24.7299 45.7896 24.3309 45.7896V42.7896ZM28.3159 42.7896H24.3309V45.7896H28.3159V42.7896ZM24.0784 41.8651L27.207 45.2997L29.4248 43.2795L26.2962 39.8449L24.0784 41.8651ZM23.7005 41.2995C23.7961 41.503 23.9226 41.6941 24.0784 41.8651L26.2962 39.8449C26.3453 39.8988 26.3856 39.9596 26.4161 40.0244L23.7005 41.2995ZM16.4161 35.2821C19.0536 38.4591 22.1782 40.6902 24.2897 41.9501L25.8269 39.3739C23.9039 38.2264 21.0782 36.2012 18.7243 33.3658L16.4161 35.2821ZM11.4529 22.3616C11.4529 27.7002 13.7248 32.0403 16.4161 35.2821L18.7243 33.3658C16.3338 30.4864 14.4529 26.8012 14.4529 22.3616H11.4529ZM17.1967 10.4044C13.7216 13.0375 11.4529 17.0485 11.4529 22.3616H14.4529C14.4529 18.0047 16.2681 14.8719 19.0085 12.7955L17.1967 10.4044ZM29.2212 6.60027C24.9464 6.68126 20.5712 7.84758 17.1967 10.4044L19.0085 12.7955C21.7533 10.7158 25.4626 9.67202 29.2781 9.59973L29.2212 6.60027ZM29.3367 6.59572C29.258 6.59572 29.1797 6.59961 29.1022 6.60727L29.3971 9.59273C29.3768 9.59474 29.3567 9.59572 29.3367 9.59572V6.59572ZM29.5304 6.59646C29.4658 6.59597 29.4013 6.59572 29.3367 6.59572V9.59572C29.3937 9.59572 29.4507 9.59594 29.5076 9.59637L29.5304 6.59646ZM29.704 6.5957C29.6385 6.5957 29.573 6.59596 29.5075 6.59646L29.5306 9.59637C29.5884 9.59593 29.6462 9.5957 29.704 9.5957V6.5957ZM29.94 6.60739C29.8619 6.59963 29.7832 6.5957 29.704 6.5957V9.5957C29.6839 9.5957 29.6636 9.59471 29.6432 9.59268L29.94 6.60739ZM41.844 10.4044C38.4696 7.84771 34.0947 6.68138 29.82 6.6003L29.7631 9.59976C33.5785 9.67213 37.2876 10.7159 40.0322 12.7956L41.844 10.4044ZM47.5879 22.3616C47.5879 17.0485 45.3192 13.0375 41.844 10.4044L40.0322 12.7956C42.7726 14.8719 44.5879 18.0047 44.5879 22.3616H47.5879ZM42.6247 35.2821C45.316 32.0403 47.5879 27.7002 47.5879 22.3616H44.5879C44.5879 26.8012 42.7069 30.4864 40.3164 33.3658L42.6247 35.2821ZM33.5096 44.3446H26.4424V47.3446H33.5096V44.3446ZM35.0096 51.1401V45.8446H32.0096V51.1401H35.0096ZM32.2462 53.9036C33.7724 53.9036 35.0096 52.6663 35.0096 51.1401H32.0096C32.0096 51.0095 32.1156 50.9036 32.2462 50.9036V53.9036ZM27.7058 53.9036H32.2462V50.9036H27.7058V53.9036ZM24.9424 51.1401C24.9424 52.6663 26.1796 53.9036 27.7058 53.9036V50.9036C27.8365 50.9036 27.9424 51.0095 27.9424 51.1401H24.9424ZM24.9424 45.8446V51.1401H27.9424V45.8446H24.9424ZM30.8406 42.5247L28.6309 40.0988L26.4131 42.119L28.6228 44.5449L30.8406 42.5247ZM30.4918 40.1741L28.5587 42.5999L30.9048 44.4696L32.838 42.0437L30.4918 40.1741ZM27.522 42.6089H31.6649V39.6089H27.522V42.6089Z" fill="#F8F9FA" mask="url(#path-1-outside-1_50_4251)"/>
<path fill-rule="evenodd" clip-rule="evenodd" d="M29.6749 8.99459C37.545 9.11957 45.1841 13.2704 45.1841 22.3829C45.1841 31.637 37.3341 37.6697 33.4091 39.9891H29.6749V39.9892H25.5734C21.6484 37.6697 13.7985 31.637 13.7985 22.3829C13.7985 13.2704 21.4375 9.11959 29.3076 8.99461V8.99168C29.3693 8.99168 29.431 8.99192 29.4927 8.99242C29.5534 8.99194 29.6142 8.9917 29.6749 8.9917V8.99459Z" fill="#FA5252"/>
<path d="M29.6749 8.99461H28.7749C28.7749 9.4861 29.1692 9.8867 29.6606 9.8945L29.6749 8.99461ZM33.4091 39.9892V40.8892C33.5702 40.8892 33.7284 40.8459 33.867 40.764L33.4091 39.9892ZM29.6749 39.9892V39.0892C29.1779 39.0892 28.7749 39.4921 28.7749 39.9892H29.6749ZM29.6749 39.9892V40.8892C30.172 40.8892 30.5749 40.4862 30.5749 39.9892H29.6749ZM25.5734 39.9892L25.1155 40.764C25.2542 40.846 25.4123 40.8892 25.5734 40.8892V39.9892ZM29.3076 8.99464L29.3219 9.89452C29.8133 9.88672 30.2076 9.48612 30.2076 8.99464H29.3076ZM29.3076 8.9917V8.0917C28.8106 8.0917 28.4076 8.49464 28.4076 8.9917H29.3076ZM29.4927 8.99244L29.4855 9.89241C29.4902 9.89245 29.495 9.89245 29.4998 9.89241L29.4927 8.99244ZM29.6749 8.99172H30.5749C30.5749 8.49467 30.172 8.09172 29.6749 8.09172V8.99172ZM46.0841 22.3829C46.0841 17.5398 44.0383 13.9605 40.9243 11.6011C37.8409 9.26481 33.7626 8.15941 29.6892 8.09473L29.6606 9.8945C33.4573 9.95479 37.1337 10.9873 39.8373 13.0358C42.5103 15.0611 44.2841 18.1135 44.2841 22.3829H46.0841ZM33.867 40.764C35.8866 39.5705 38.9215 37.4202 41.461 34.3614C44.0044 31.2978 46.0841 27.2796 46.0841 22.3829H44.2841C44.2841 26.7404 42.4388 30.3656 40.076 33.2117C37.7092 36.0626 34.8567 38.0884 32.9513 39.2143L33.867 40.764ZM29.6749 40.8892H33.4091V39.0892H29.6749V40.8892ZM28.7749 39.9892V39.9892H30.5749V39.9892H28.7749ZM29.6749 39.0892H25.5734V40.8892H29.6749V39.0892ZM26.0313 39.2144C24.1259 38.0884 21.2733 36.0626 18.9065 33.2117C16.5437 30.3656 14.6985 26.7404 14.6985 22.3829H12.8985C12.8985 27.2796 14.9782 31.2978 17.5216 34.3614C20.061 37.4203 23.0959 39.5705 25.1155 40.764L26.0313 39.2144ZM14.6985 22.3829C14.6985 18.1135 16.4722 15.0612 19.1453 13.0358C21.8489 10.9873 25.5252 9.95481 29.3219 9.89452L29.2933 8.09475C25.2199 8.15944 21.1417 9.26484 18.0582 11.6011C14.9442 13.9605 12.8985 17.5398 12.8985 22.3829H14.6985ZM28.4076 8.9917V8.99464H30.2076V8.9917H28.4076ZM29.4999 8.09247C29.4358 8.09195 29.3717 8.0917 29.3076 8.0917V9.8917C29.3669 9.8917 29.4262 9.89194 29.4855 9.89241L29.4999 8.09247ZM29.4998 9.89241C29.5581 9.89195 29.6165 9.89172 29.6749 9.89172V8.09172C29.6118 8.09172 29.5487 8.09197 29.4856 8.09247L29.4998 9.89241ZM28.7749 8.99172V8.99461H30.5749V8.99172H28.7749Z" fill="#212529"/>
<path d="M25.7329 45.0884H34.1608V51.1051C34.1608 52.2097 33.2653 53.1051 32.1608 53.1051H27.7329C26.6283 53.1051 25.7329 52.2097 25.7329 51.1051V45.0884Z" fill="#9775FA" stroke="#212529" stroke-width="1.4" stroke-linecap="round" stroke-linejoin="round"/>
<path d="M35.3004 45.0884H24.3017" stroke="#212529" stroke-width="1.6" stroke-linecap="round" stroke-linejoin="round"/>
<path d="M29.7421 44.7539L25.7329 40.3525H33.2495L29.7421 44.7539Z" stroke="#212529" stroke-width="1.6" stroke-linejoin="round"/>
<path d="M21.3877 22.0439C21.3877 14.6702 24.6898 11.8172 26.3408 9.59933C27.0655 9.36371 28.7383 8.9173 29.6324 9.01663V39.9349H27.8812C25.7839 36.0742 21.3877 29.4177 21.3877 22.0439Z" fill="#FFE066" stroke="#212529" stroke-width="1.4"/>
<path d="M37.9871 22.0437C37.9871 14.67 34.685 11.817 33.0339 9.59912C37.0003 9.87887 44.9939 12.7594 45.2369 22.0437C45.48 31.328 37.2029 37.9027 33.0339 40.0295H31.3067L31.6952 39.4169C33.7925 35.5562 37.9871 29.4175 37.9871 22.0437Z" fill="#FFE066" stroke="#212529" stroke-width="1.4"/>
<g style="mix-blend-mode:multiply">
<path fill-rule="evenodd" clip-rule="evenodd" d="M30.9966 39.9895H32.58C36.7489 37.8627 45.026 31.288 44.783 22.0037C44.5399 12.7194 36.5464 9.83883 32.58 9.55908C32.6441 9.64528 32.7108 9.73244 32.7797 9.82079C36.9661 10.7258 42.9891 13.9635 43.1996 22.0037C43.4427 31.288 35.1655 37.8627 30.9966 39.9895Z" fill="#DEE2E6"/>
</g>
<path d="M29.6876 9.8457V39.2939" stroke="#212529" stroke-width="1.4"/>
<g style="mix-blend-mode:multiply">
<path d="M32.5161 45.7368H33.499V52.5138H31.7832C31.7832 52.5138 32.5161 52.038 32.5161 51.2427C32.5161 48.9076 32.5161 45.7368 32.5161 45.7368Z" fill="#DEE2E6"/>
</g>
</svg>
