<svg width="60" height="58" viewBox="0 0 60 58" fill="none" xmlns="http://www.w3.org/2000/svg">
<mask id="path-1-outside-1_50_9449" maskUnits="userSpaceOnUse" x="7.5625" y="9.40527" width="45" height="44" fill="black">
<rect fill="white" x="7.5625" y="9.40527" width="45" height="44"/>
<path fill-rule="evenodd" clip-rule="evenodd" d="M25.0365 11.4052C24.33 11.4052 23.7573 11.9779 23.7573 12.6844C23.7573 12.7145 23.7583 12.7443 23.7604 12.7739C18.7326 13.2619 15.1986 15.2417 12.9127 18.3453C10.4765 21.6531 9.5625 26.0984 9.5625 30.9877C9.5625 35.8629 10.4072 40.436 12.8071 43.8104C15.2496 47.2447 19.1955 49.2906 25.0353 49.2906C26.5713 49.2906 27.9763 49.1491 29.2574 48.878C31.4111 50.2739 33.9795 51.0846 36.7372 51.0846C44.3425 51.0846 50.5078 44.9193 50.5078 37.314C50.5078 30.7374 45.8975 25.2375 39.7324 23.8701C39.2003 21.6823 38.37 19.6736 37.1685 17.9741C35.1568 15.1285 32.1635 13.2341 28.0228 12.7719C28.0247 12.743 28.0257 12.7138 28.0257 12.6844C28.0257 11.9779 27.453 11.4052 26.7465 11.4052H25.0365ZM35.6397 19.055C33.5781 16.1389 30.2661 14.3119 25.0793 14.556C19.832 14.803 16.4868 16.6498 14.4203 19.4557C12.3218 22.3048 11.4348 26.2856 11.4348 30.9877C11.4348 35.7038 12.2625 39.8142 14.3329 42.7253C16.3608 45.5766 19.6832 47.4183 25.0353 47.4183C25.8189 47.4183 26.5589 47.3788 27.2578 47.3025C24.6147 44.7933 22.9666 41.2461 22.9666 37.314C22.9666 29.7087 29.1319 23.5434 36.7372 23.5434C37.0676 23.5434 37.3953 23.555 37.7199 23.5779C37.2375 21.8763 36.5531 20.3469 35.6397 19.055ZM48.6354 37.314C48.6354 31.9241 45.0515 27.3712 40.1368 25.9085C40.3933 27.5459 40.5081 29.2549 40.5081 30.9877C40.5081 35.8629 39.6634 40.436 37.2635 43.8104C35.9119 45.7109 34.0998 47.1862 31.7612 48.1249C33.2752 48.8229 34.9607 49.2122 36.7372 49.2122C43.3084 49.2122 48.6354 43.8852 48.6354 37.314ZM38.6358 30.9877C38.6358 29.0632 38.4872 27.216 38.1676 25.5008C37.6986 25.4447 37.2213 25.4157 36.7372 25.4157C30.166 25.4157 24.839 30.7428 24.839 37.314C24.839 41.2242 26.7252 44.6939 29.6375 46.8628C32.4111 46.1139 34.3692 44.6495 35.7377 42.7253C37.8081 39.8142 38.6358 35.7038 38.6358 30.9877Z"/>
</mask>
<path fill-rule="evenodd" clip-rule="evenodd" d="M25.0365 11.4052C24.33 11.4052 23.7573 11.9779 23.7573 12.6844C23.7573 12.7145 23.7583 12.7443 23.7604 12.7739C18.7326 13.2619 15.1986 15.2417 12.9127 18.3453C10.4765 21.6531 9.5625 26.0984 9.5625 30.9877C9.5625 35.8629 10.4072 40.436 12.8071 43.8104C15.2496 47.2447 19.1955 49.2906 25.0353 49.2906C26.5713 49.2906 27.9763 49.1491 29.2574 48.878C31.4111 50.2739 33.9795 51.0846 36.7372 51.0846C44.3425 51.0846 50.5078 44.9193 50.5078 37.314C50.5078 30.7374 45.8975 25.2375 39.7324 23.8701C39.2003 21.6823 38.37 19.6736 37.1685 17.9741C35.1568 15.1285 32.1635 13.2341 28.0228 12.7719C28.0247 12.743 28.0257 12.7138 28.0257 12.6844C28.0257 11.9779 27.453 11.4052 26.7465 11.4052H25.0365ZM35.6397 19.055C33.5781 16.1389 30.2661 14.3119 25.0793 14.556C19.832 14.803 16.4868 16.6498 14.4203 19.4557C12.3218 22.3048 11.4348 26.2856 11.4348 30.9877C11.4348 35.7038 12.2625 39.8142 14.3329 42.7253C16.3608 45.5766 19.6832 47.4183 25.0353 47.4183C25.8189 47.4183 26.5589 47.3788 27.2578 47.3025C24.6147 44.7933 22.9666 41.2461 22.9666 37.314C22.9666 29.7087 29.1319 23.5434 36.7372 23.5434C37.0676 23.5434 37.3953 23.555 37.7199 23.5779C37.2375 21.8763 36.5531 20.3469 35.6397 19.055ZM48.6354 37.314C48.6354 31.9241 45.0515 27.3712 40.1368 25.9085C40.3933 27.5459 40.5081 29.2549 40.5081 30.9877C40.5081 35.8629 39.6634 40.436 37.2635 43.8104C35.9119 45.7109 34.0998 47.1862 31.7612 48.1249C33.2752 48.8229 34.9607 49.2122 36.7372 49.2122C43.3084 49.2122 48.6354 43.8852 48.6354 37.314ZM38.6358 30.9877C38.6358 29.0632 38.4872 27.216 38.1676 25.5008C37.6986 25.4447 37.2213 25.4157 36.7372 25.4157C30.166 25.4157 24.839 30.7428 24.839 37.314C24.839 41.2242 26.7252 44.6939 29.6375 46.8628C32.4111 46.1139 34.3692 44.6495 35.7377 42.7253C37.8081 39.8142 38.6358 35.7038 38.6358 30.9877Z" fill="#F8F9FA"/>
<path d="M23.7604 12.7739L23.9053 14.2669C24.7137 14.1884 25.3128 13.4808 25.2568 12.6705L23.7604 12.7739ZM12.9127 18.3454L11.7049 17.4558L11.7049 17.4558L12.9127 18.3454ZM12.8071 43.8105L11.5847 44.6798L11.5847 44.6798L12.8071 43.8105ZM29.2574 48.878L30.0732 47.6193C29.7402 47.4034 29.3351 47.3283 28.9468 47.4105L29.2574 48.878ZM39.7324 23.8701L38.2749 24.2247C38.4101 24.7803 38.8494 25.2107 39.4076 25.3345L39.7324 23.8701ZM37.1685 17.9742L38.3934 17.1082L38.3934 17.1082L37.1685 17.9742ZM28.0228 12.772L26.5262 12.6709C26.472 13.472 27.0584 14.1737 27.8564 14.2627L28.0228 12.772ZM25.0793 14.5561L25.0088 13.0577L25.0088 13.0577L25.0793 14.5561ZM35.6397 19.055L34.4149 19.9209L34.4149 19.9209L35.6397 19.055ZM14.4203 19.4557L15.6281 20.3453L15.6281 20.3453L14.4203 19.4557ZM14.3329 42.7253L15.5553 41.8559L15.5553 41.8559L14.3329 42.7253ZM27.2578 47.3025L27.4207 48.7937C28.0014 48.7302 28.4924 48.3354 28.6791 47.7819C28.8658 47.2284 28.7142 46.6169 28.2905 46.2147L27.2578 47.3025ZM37.7199 23.578L37.6144 25.0743C38.1019 25.1086 38.5757 24.9033 38.8839 24.524C39.1922 24.1448 39.2963 23.6391 39.163 23.1689L37.7199 23.578ZM40.1368 25.9085L40.5646 24.4708C40.0712 24.324 39.537 24.4404 39.1494 24.7793C38.7619 25.1182 38.5751 25.6321 38.6548 26.1407L40.1368 25.9085ZM37.2635 43.8105L36.0411 42.9411L36.0411 42.9411L37.2635 43.8105ZM31.7613 48.125L31.2025 46.7329C30.6466 46.9561 30.2768 47.4885 30.2617 48.0873C30.2467 48.686 30.5893 49.2364 31.1332 49.4872L31.7613 48.125ZM38.1676 25.5009L39.6422 25.2261C39.522 24.5814 38.9971 24.0895 38.346 24.0115L38.1676 25.5009ZM29.6375 46.8628L28.7415 48.0659C29.1103 48.3405 29.5846 48.4308 30.0285 48.311L29.6375 46.8628ZM35.7377 42.7253L36.9601 43.5947L36.9601 43.5947L35.7377 42.7253ZM25.2573 12.6844C25.2573 12.8064 25.1584 12.9053 25.0365 12.9053V9.90527C23.5016 9.90527 22.2573 11.1495 22.2573 12.6844H25.2573ZM25.2568 12.6705C25.2572 12.6753 25.2573 12.68 25.2573 12.6844H22.2573C22.2573 12.749 22.2595 12.8134 22.264 12.8773L25.2568 12.6705ZM14.1205 19.2349C16.1127 16.53 19.2271 14.721 23.9053 14.2669L23.6155 11.2809C18.2381 11.8029 14.2845 13.9534 11.7049 17.4558L14.1205 19.2349ZM11.0625 30.9877C11.0625 26.2483 11.9549 22.1752 14.1205 19.2349L11.7049 17.4558C8.99812 21.131 8.0625 25.9486 8.0625 30.9877H11.0625ZM14.0295 42.9411C11.8936 39.9379 11.0625 35.7356 11.0625 30.9877H8.0625C8.0625 35.9904 8.92077 40.9342 11.5847 44.6798L14.0295 42.9411ZM25.0353 47.7907C19.5856 47.7907 16.1395 45.9079 14.0295 42.9411L11.5847 44.6798C14.3597 48.5815 18.8053 50.7907 25.0353 50.7907V47.7907ZM28.9468 47.4105C27.7795 47.6576 26.4796 47.7907 25.0353 47.7907V50.7907C26.6631 50.7907 28.1731 50.6407 29.5679 50.3455L28.9468 47.4105ZM36.7372 49.5846C34.2777 49.5846 31.9914 48.8625 30.0732 47.6193L28.4415 50.1367C30.8309 51.6854 33.6813 52.5846 36.7372 52.5846V49.5846ZM49.0078 37.314C49.0078 44.0909 43.514 49.5846 36.7372 49.5846V52.5846C45.1709 52.5846 52.0078 45.7477 52.0078 37.314H49.0078ZM39.4076 25.3345C44.9008 26.553 49.0078 31.4556 49.0078 37.314H52.0078C52.0078 30.0192 46.8941 23.9222 40.0573 22.4057L39.4076 25.3345ZM35.9437 18.8401C37.0123 20.3516 37.7765 22.1757 38.2749 24.2247L41.1899 23.5156C40.624 21.189 39.7277 18.9956 38.3934 17.1082L35.9437 18.8401ZM27.8564 14.2627C31.5805 14.6784 34.1847 16.3519 35.9437 18.8401L38.3934 17.1082C36.1289 13.9052 32.7464 11.7899 28.1891 11.2812L27.8564 14.2627ZM26.5257 12.6844C26.5257 12.6801 26.5258 12.6756 26.5262 12.6709L29.5193 12.8731C29.5236 12.8106 29.5257 12.7476 29.5257 12.6844H26.5257ZM26.7465 12.9053C26.6246 12.9053 26.5257 12.8064 26.5257 12.6844H29.5257C29.5257 11.1495 28.2814 9.90527 26.7465 9.90527V12.9053ZM25.0365 12.9053H26.7465V9.90527H25.0365V12.9053ZM25.1498 16.0544C29.8867 15.8315 32.6827 17.4708 34.4149 19.9209L36.8645 18.1891C34.4735 14.8071 30.6456 12.7925 25.0088 13.0577L25.1498 16.0544ZM15.6281 20.3453C17.3732 17.9758 20.2556 16.2848 25.1498 16.0544L25.0088 13.0577C19.4084 13.3213 15.6005 15.3239 13.2125 18.5662L15.6281 20.3453ZM12.9348 30.9877C12.9348 26.4357 13.8001 22.8271 15.6281 20.3453L13.2125 18.5662C10.8435 21.7827 9.93483 26.1356 9.93483 30.9877H12.9348ZM15.5553 41.8559C13.7489 39.3161 12.9348 35.5764 12.9348 30.9877H9.93483C9.93483 35.8314 10.7761 40.3124 13.1105 43.5947L15.5553 41.8559ZM25.0353 45.9183C20.0746 45.9183 17.2513 44.2406 15.5553 41.8559L13.1105 43.5947C15.4702 46.9125 19.2918 48.9183 25.0353 48.9183V45.9183ZM27.0949 45.8114C26.4541 45.8814 25.7686 45.9183 25.0353 45.9183V48.9183C25.8691 48.9183 26.6637 48.8763 27.4207 48.7937L27.0949 45.8114ZM21.4666 37.314C21.4666 41.6743 23.2961 45.6098 26.225 48.3904L28.2905 46.2147C25.9334 43.9769 24.4666 40.818 24.4666 37.314H21.4666ZM36.7372 22.0434C28.3035 22.0434 21.4666 28.8803 21.4666 37.314H24.4666C24.4666 30.5372 29.9603 25.0434 36.7372 25.0434V22.0434ZM37.8254 22.0817C37.4657 22.0563 37.1028 22.0434 36.7372 22.0434V25.0434C37.0324 25.0434 37.3249 25.0538 37.6144 25.0743L37.8254 22.0817ZM34.4149 19.9209C35.2108 21.0468 35.8307 22.4135 36.2768 23.9871L39.163 23.1689C38.6444 21.3393 37.8953 19.6471 36.8645 18.1891L34.4149 19.9209ZM39.7089 27.3462C44.0051 28.6248 47.1354 32.6058 47.1354 37.314H50.1354C50.1354 31.2424 46.0979 26.1177 40.5646 24.4708L39.7089 27.3462ZM42.0081 30.9877C42.0081 29.1902 41.8891 27.4023 41.6187 25.6763L38.6548 26.1407C38.8975 27.6895 39.0081 29.3198 39.0081 30.9877H42.0081ZM38.4859 44.6798C41.1498 40.9342 42.0081 35.9904 42.0081 30.9877H39.0081C39.0081 35.7356 38.177 39.9379 36.0411 42.9411L38.4859 44.6798ZM32.32 49.517C34.93 48.4693 36.9706 46.8104 38.4859 44.6798L36.0411 42.9411C34.8531 44.6115 33.2697 45.9031 31.2025 46.7329L32.32 49.517ZM36.7372 47.7123C35.1819 47.7123 33.7103 47.3718 32.3893 46.7628L31.1332 49.4872C32.8401 50.2741 34.7395 50.7123 36.7372 50.7123V47.7123ZM47.1354 37.314C47.1354 43.0568 42.48 47.7123 36.7372 47.7123V50.7123C44.1368 50.7123 50.1354 44.7137 50.1354 37.314H47.1354ZM36.6929 25.7757C36.9928 27.3847 37.1358 29.1382 37.1358 30.9877H40.1358C40.1358 28.9883 39.9816 27.0474 39.6422 25.2261L36.6929 25.7757ZM36.7372 26.9158C37.1615 26.9158 37.5792 26.9411 37.9891 26.9902L38.346 24.0115C37.818 23.9483 37.2811 23.9158 36.7372 23.9158V26.9158ZM26.339 37.314C26.339 31.5712 30.9944 26.9158 36.7372 26.9158V23.9158C29.3376 23.9158 23.339 29.9144 23.339 37.314H26.339ZM30.5334 45.6598C27.9849 43.7618 26.339 40.7303 26.339 37.314H23.339C23.339 41.7182 25.4656 45.6261 28.7415 48.0659L30.5334 45.6598ZM34.5153 41.8559C33.3493 43.4955 31.6856 44.7561 29.2465 45.4147L30.0285 48.311C33.1366 47.4718 35.3891 45.8035 36.9601 43.5947L34.5153 41.8559ZM37.1358 30.9877C37.1358 35.5764 36.3217 39.3161 34.5153 41.8559L36.9601 43.5947C39.2945 40.3124 40.1358 35.8314 40.1358 30.9877H37.1358Z" fill="#F8F9FA" mask="url(#path-1-outside-1_50_9449)"/>
<path d="M39.5447 30.9012C39.5447 40.4926 36.2 48.268 25.0081 48.268C13.8161 48.268 10.4714 40.4926 10.4714 30.9012C10.4714 21.3098 14.0734 14.0491 25.0081 13.5345C35.9427 13.0199 39.5447 21.3098 39.5447 30.9012Z" fill="#51CF66" stroke="#212529" stroke-width="2" stroke-linecap="round" stroke-linejoin="round"/>
<g style="mix-blend-mode:soft-light" opacity="0.3">
<path fill-rule="evenodd" clip-rule="evenodd" d="M31.4723 15.8607C29.9017 15.2342 28.0445 14.9364 25.8642 15.0435C15.995 15.5285 12.744 22.3706 12.744 31.4091C12.744 37.8526 14.2782 43.4264 18.8191 46.0958C13.1788 43.8081 11.3314 37.7848 11.3314 30.7142C11.3314 21.6757 14.5825 14.8335 24.4517 14.3486C27.3252 14.2074 29.6378 14.7696 31.4723 15.8607Z" fill="#F8F9FA"/>
</g>
<g style="mix-blend-mode:multiply" opacity="0.4">
<path fill-rule="evenodd" clip-rule="evenodd" d="M21.375 37.4373C21.375 29.8268 27.8905 23.6572 35.9278 23.6572C36.3263 23.6572 36.7211 23.6724 37.1115 23.7022C29.7435 23.9254 23.8407 29.8271 23.8407 37.0748C23.8407 41.2828 25.8304 45.037 28.9414 47.4896H25.9735C23.1432 44.9755 21.375 41.402 21.375 37.4373Z" fill="#51CF66"/>
</g>
<circle cx="36.71" cy="37.228" r="12.8344" fill="#C0EB75" stroke="#212529" stroke-width="2" stroke-linecap="round" stroke-linejoin="round"/>
<g style="mix-blend-mode:multiply" opacity="0.4">
<path fill-rule="evenodd" clip-rule="evenodd" d="M34.5541 48.9538C41.2973 48.9538 46.7637 43.5923 46.7637 36.9785C46.7637 31.2321 42.6371 26.431 37.1318 25.2705C43.7261 25.438 49.0193 30.7336 49.0193 37.2418C49.0193 43.8556 43.5529 49.2171 36.8097 49.2171C35.9253 49.2171 35.0629 49.1249 34.2319 48.9498C34.339 48.9525 34.4464 48.9538 34.5541 48.9538Z" fill="#C0EB75"/>
</g>
<g style="mix-blend-mode:soft-light" opacity="0.3">
<path fill-rule="evenodd" clip-rule="evenodd" d="M41.2955 26.2354C34.7821 24.4902 28.1142 28.2542 26.4024 34.6427C24.9005 40.2479 27.7129 46.0111 32.8246 48.5188C26.7774 46.4788 23.2557 40.1567 24.8991 34.0237C26.6108 27.6353 33.2787 23.8712 39.7921 25.6165C40.5907 25.8305 41.3499 26.1173 42.0641 26.4677C41.8122 26.3828 41.556 26.3052 41.2955 26.2354Z" fill="#F8F9FA"/>
</g>
<g opacity="0.2">
<path d="M36.71 28.4639V34.4427" stroke="#212529" stroke-width="1.3" stroke-linecap="round" stroke-linejoin="round"/>
<path d="M36.71 40.1162V46.095" stroke="#212529" stroke-width="1.3" stroke-linecap="round" stroke-linejoin="round"/>
<path d="M43.0338 33.5654L39.1753 35.9339" stroke="#212529" stroke-width="1.3" stroke-linecap="round" stroke-linejoin="round"/>
<path d="M34.3113 38.5479L30.4527 40.9163" stroke="#212529" stroke-width="1.3" stroke-linecap="round" stroke-linejoin="round"/>
<path d="M40.3533 30.9131L38.1959 34.8935" stroke="#212529" stroke-width="1.3" stroke-linecap="round" stroke-linejoin="round"/>
<path d="M35.2906 39.5889L33.1333 43.5693" stroke="#212529" stroke-width="1.3" stroke-linecap="round" stroke-linejoin="round"/>
<path d="M40.434 43.5225L38.0562 39.6696" stroke="#212529" stroke-width="1.3" stroke-linecap="round" stroke-linejoin="round"/>
<path d="M35.4303 34.8125L33.0525 30.9597" stroke="#212529" stroke-width="1.3" stroke-linecap="round" stroke-linejoin="round"/>
<path d="M43.0803 40.8359L39.0947 38.6882" stroke="#212529" stroke-width="1.3" stroke-linecap="round" stroke-linejoin="round"/>
<path d="M34.3918 35.7949L30.4062 33.6472" stroke="#212529" stroke-width="1.3" stroke-linecap="round" stroke-linejoin="round"/>
<path d="M45.5256 37.2793L39.5468 37.2793" stroke="#212529" stroke-width="1.3" stroke-linecap="round" stroke-linejoin="round"/>
<path d="M33.873 37.2793L27.8943 37.2793" stroke="#212529" stroke-width="1.3" stroke-linecap="round" stroke-linejoin="round"/>
<circle cx="36.7099" cy="37.2271" r="3.17146" fill="#FFF3BF" stroke="#212529" stroke-width="1.3" stroke-linecap="round" stroke-linejoin="round"/>
</g>
<path d="M16.0438 21.5049L16.7306 21.9049" stroke="#212529" stroke-width="0.8" stroke-linecap="round" stroke-linejoin="round"/>
<path d="M19.5023 22.8828L20.1891 23.2829" stroke="#212529" stroke-width="0.8" stroke-linecap="round" stroke-linejoin="round"/>
<path d="M17.947 19.0176L18.4751 19.5567" stroke="#212529" stroke-width="0.8" stroke-linecap="round" stroke-linejoin="round"/>
<path d="M23.0964 16.834L23.1111 17.5885" stroke="#212529" stroke-width="0.8" stroke-linecap="round" stroke-linejoin="round"/>
<path d="M14.604 24.3164L15.3818 24.48" stroke="#212529" stroke-width="0.8" stroke-linecap="round" stroke-linejoin="round"/>
<path d="M13.8008 29.0039L14.5956 28.9943" stroke="#212529" stroke-width="0.8" stroke-linecap="round" stroke-linejoin="round"/>
<path d="M22.1536 20.584L21.7981 19.8731" stroke="#212529" stroke-width="0.8" stroke-linecap="round" stroke-linejoin="round"/>
<path d="M16.7377 26.625L17.5183 26.7744" stroke="#212529" stroke-width="0.8" stroke-linecap="round" stroke-linejoin="round"/>
<rect x="23.7301" y="11.3184" width="4.26839" height="2.55831" rx="1.27916" fill="#212529"/>
<g style="mix-blend-mode:multiply" opacity="0.4">
<path d="M35.8583 23.6274C35.9601 20.5709 33.863 17.3021 32.8018 16.0498C35.6036 17.5271 37.3653 21.7171 37.8959 23.6274H35.8583Z" fill="#51CF66"/>
</g>
</svg>
