<svg width="60" height="61" viewBox="0 0 60 61" fill="none" xmlns="http://www.w3.org/2000/svg">
<mask id="path-1-outside-1_50_1173" maskUnits="userSpaceOnUse" x="6.03479" y="9.021" width="49" height="41" fill="black">
<rect fill="white" x="6.03479" y="9.021" width="49" height="41"/>
<path fill-rule="evenodd" clip-rule="evenodd" d="M18.7243 12.3187C19.4408 11.0777 21.0276 10.6526 22.2686 11.369L31.0556 16.4422C32.2966 17.1587 32.7217 18.7455 32.0053 19.9865C31.6132 20.6656 30.9604 21.1004 30.2463 21.2375C29.8049 22.1699 29.3808 23.0393 28.9619 23.8667C29.4162 24.17 29.6691 24.6728 29.671 25.1896L50.9801 36.7945C52.7096 37.7364 53.3234 39.9181 52.3387 41.6236C51.3541 43.329 49.1577 43.8883 47.4773 42.8615L26.6879 30.158C26.2833 30.3327 25.8112 30.3383 25.3884 30.1438C24.8519 30.9828 24.2807 31.8402 23.658 32.7449C23.8728 33.4169 23.8143 34.1736 23.4337 34.8327C22.7173 36.0737 21.1305 36.4988 19.8895 35.7824L11.1025 30.7092C9.86151 29.9927 9.43633 28.4059 10.1528 27.165C10.5397 26.4949 11.1803 26.0627 11.8832 25.9196C13.9736 21.635 15.7295 18.6141 18.5282 14.4897C18.281 13.7975 18.328 13.0052 18.7243 12.3187ZM12.1841 42.9953C12.1841 41.8218 13.1354 40.8705 14.3089 40.8705H26.3195C27.493 40.8705 28.4443 41.8218 28.4443 42.9953C28.4443 43.0835 28.439 43.1704 28.4285 43.2557H29.7939C31.3403 43.2557 32.5939 44.5093 32.5939 46.0557V47.4464C32.5939 47.9986 32.1462 48.4464 31.5939 48.4464H9.03479C8.48251 48.4464 8.03479 47.9986 8.03479 47.4464V46.0557C8.03479 44.5093 9.28839 43.2557 10.8348 43.2557H12.1999C12.1895 43.1704 12.1841 43.0835 12.1841 42.9953Z"/>
</mask>
<path fill-rule="evenodd" clip-rule="evenodd" d="M18.7243 12.3187C19.4408 11.0777 21.0276 10.6526 22.2686 11.369L31.0556 16.4422C32.2966 17.1587 32.7217 18.7455 32.0053 19.9865C31.6132 20.6656 30.9604 21.1004 30.2463 21.2375C29.8049 22.1699 29.3808 23.0393 28.9619 23.8667C29.4162 24.17 29.6691 24.6728 29.671 25.1896L50.9801 36.7945C52.7096 37.7364 53.3234 39.9181 52.3387 41.6236C51.3541 43.329 49.1577 43.8883 47.4773 42.8615L26.6879 30.158C26.2833 30.3327 25.8112 30.3383 25.3884 30.1438C24.8519 30.9828 24.2807 31.8402 23.658 32.7449C23.8728 33.4169 23.8143 34.1736 23.4337 34.8327C22.7173 36.0737 21.1305 36.4988 19.8895 35.7824L11.1025 30.7092C9.86151 29.9927 9.43633 28.4059 10.1528 27.165C10.5397 26.4949 11.1803 26.0627 11.8832 25.9196C13.9736 21.635 15.7295 18.6141 18.5282 14.4897C18.281 13.7975 18.328 13.0052 18.7243 12.3187ZM12.1841 42.9953C12.1841 41.8218 13.1354 40.8705 14.3089 40.8705H26.3195C27.493 40.8705 28.4443 41.8218 28.4443 42.9953C28.4443 43.0835 28.439 43.1704 28.4285 43.2557H29.7939C31.3403 43.2557 32.5939 44.5093 32.5939 46.0557V47.4464C32.5939 47.9986 32.1462 48.4464 31.5939 48.4464H9.03479C8.48251 48.4464 8.03479 47.9986 8.03479 47.4464V46.0557C8.03479 44.5093 9.28839 43.2557 10.8348 43.2557H12.1999C12.1895 43.1704 12.1841 43.0835 12.1841 42.9953Z" fill="#F8F9FA"/>
<path d="M22.2686 11.369L21.5186 12.6681L21.5186 12.6681L22.2686 11.369ZM18.7243 12.3187L20.0234 13.0687L20.0234 13.0687L18.7243 12.3187ZM31.0556 16.4422L30.3056 17.7413L30.3056 17.7413L31.0556 16.4422ZM32.0053 19.9865L33.3043 20.7365L33.3043 20.7365L32.0053 19.9865ZM30.2463 21.2375L29.9635 19.7644C29.4938 19.8545 29.0952 20.1634 28.8905 20.5957L30.2463 21.2375ZM28.9619 23.8667L27.6237 23.1891C27.2808 23.8663 27.4978 24.6928 28.1291 25.1142L28.9619 23.8667ZM29.671 25.1896L28.171 25.195C28.173 25.7423 28.4729 26.2451 28.9536 26.5069L29.671 25.1896ZM50.9801 36.7945L51.6975 35.4772L51.6975 35.4772L50.9801 36.7945ZM52.3387 41.6236L53.6378 42.3736L53.6378 42.3736L52.3387 41.6236ZM47.4773 42.8615L48.2594 41.5815L48.2594 41.5815L47.4773 42.8615ZM26.6879 30.158L27.4701 28.8781C27.0543 28.624 26.541 28.5877 26.0937 28.7808L26.6879 30.158ZM25.3884 30.1438L26.0154 28.7811C25.3351 28.4681 24.5281 28.7048 24.1246 29.3357L25.3884 30.1438ZM23.658 32.7449L22.4224 31.8944C22.1592 32.2768 22.0879 32.7594 22.2292 33.2015L23.658 32.7449ZM23.4337 34.8327L22.1347 34.0827L22.1347 34.0827L23.4337 34.8327ZM19.8895 35.7824L19.1395 37.0814L19.1395 37.0814L19.8895 35.7824ZM11.1025 30.7092L10.3525 32.0082L10.3525 32.0082L11.1025 30.7092ZM10.1528 27.165L11.4518 27.915L11.4518 27.915L10.1528 27.165ZM11.8832 25.9196L12.1824 27.3894C12.6392 27.2965 13.0269 26.9963 13.2313 26.5773L11.8832 25.9196ZM18.5282 14.4897L19.7694 15.332C20.0381 14.9361 20.1017 14.4358 19.9408 13.9853L18.5282 14.4897ZM28.4285 43.2557L26.9396 43.0738C26.8875 43.5001 27.0207 43.9283 27.3054 44.25C27.5901 44.5716 27.999 44.7557 28.4285 44.7557V43.2557ZM12.1999 43.2557V44.7557C12.6295 44.7557 13.0384 44.5716 13.3231 44.25C13.6078 43.9283 13.741 43.5001 13.6889 43.0738L12.1999 43.2557ZM23.0186 10.07C21.0602 8.93932 18.556 9.61031 17.4253 11.5687L20.0234 13.0687C20.3256 12.5452 20.995 12.3658 21.5186 12.6681L23.0186 10.07ZM31.8056 15.1432L23.0186 10.07L21.5186 12.6681L30.3056 17.7413L31.8056 15.1432ZM33.3043 20.7365C34.435 18.7781 33.764 16.2739 31.8056 15.1432L30.3056 17.7413C30.8291 18.0435 31.0085 18.713 30.7062 19.2365L33.3043 20.7365ZM30.529 22.7106C31.6526 22.495 32.6854 21.8085 33.3043 20.7365L30.7062 19.2365C30.541 19.5227 30.2682 19.7059 29.9635 19.7644L30.529 22.7106ZM30.3002 24.5443C30.7261 23.7031 31.156 22.8215 31.602 21.8793L28.8905 20.5957C28.4538 21.5183 28.0356 22.3756 27.6237 23.1891L30.3002 24.5443ZM31.171 25.1841C31.1674 24.1862 30.6791 23.2095 29.7948 22.6192L28.1291 25.1142C28.1533 25.1304 28.1709 25.1594 28.171 25.195L31.171 25.1841ZM51.6975 35.4772L30.3884 23.8722L28.9536 26.5069L50.2627 38.1118L51.6975 35.4772ZM53.6378 42.3736C55.0439 39.938 54.1674 36.8223 51.6975 35.4772L50.2627 38.1118C51.2518 38.6505 51.6028 39.8982 51.0397 40.8736L53.6378 42.3736ZM46.6952 44.1415C49.095 45.6079 52.2316 44.8092 53.6378 42.3736L51.0397 40.8736C50.4766 41.8489 49.2205 42.1688 48.2594 41.5815L46.6952 44.1415ZM25.9058 31.438L46.6952 44.1415L48.2594 41.5815L27.4701 28.8781L25.9058 31.438ZM24.7613 31.5064C25.5847 31.8853 26.5012 31.8723 27.2822 31.5353L26.0937 28.7808C26.0653 28.793 26.0376 28.7913 26.0154 28.7811L24.7613 31.5064ZM24.8936 33.5954C25.5244 32.6789 26.1051 31.8072 26.6521 30.9518L24.1246 29.3357C23.5987 30.1583 23.037 31.0015 22.4224 31.8944L24.8936 33.5954ZM24.7328 35.5827C25.3334 34.5425 25.4248 33.3459 25.0868 32.2883L22.2292 33.2015C22.3207 33.488 22.2952 33.8047 22.1347 34.0827L24.7328 35.5827ZM19.1395 37.0814C21.0979 38.2121 23.6021 37.5411 24.7328 35.5827L22.1347 34.0827C21.8325 34.6062 21.163 34.7856 20.6395 34.4833L19.1395 37.0814ZM10.3525 32.0082L19.1395 37.0814L20.6395 34.4833L11.8525 29.4101L10.3525 32.0082ZM8.85376 26.415C7.72308 28.3733 8.39407 30.8775 10.3525 32.0082L11.8525 29.4101C11.329 29.1079 11.1496 28.4385 11.4518 27.915L8.85376 26.415ZM11.584 24.4497C10.478 24.6749 9.46438 25.3573 8.85376 26.415L11.4518 27.915C11.6149 27.6324 11.8826 27.4505 12.1824 27.3894L11.584 24.4497ZM17.287 13.6475C14.4501 17.8282 12.658 20.9106 10.5351 25.2619L13.2313 26.5773C15.2892 22.3594 17.0089 19.4001 19.7694 15.332L17.287 13.6475ZM17.4253 11.5687C16.7996 12.6524 16.7267 13.9051 17.1156 14.9942L19.9408 13.9853C19.8354 13.6899 19.8564 13.358 20.0234 13.0687L17.4253 11.5687ZM14.3089 39.3705C12.307 39.3705 10.6841 40.9934 10.6841 42.9953H13.6841C13.6841 42.6503 13.9639 42.3705 14.3089 42.3705V39.3705ZM26.3195 39.3705H14.3089V42.3705H26.3195V39.3705ZM29.9443 42.9953C29.9443 40.9934 28.3215 39.3705 26.3195 39.3705V42.3705C26.6646 42.3705 26.9443 42.6503 26.9443 42.9953H29.9443ZM29.9175 43.4376C29.9352 43.2921 29.9443 43.1444 29.9443 42.9953H26.9443C26.9443 43.0225 26.9427 43.0486 26.9396 43.0738L29.9175 43.4376ZM29.7939 41.7557H28.4285V44.7557H29.7939V41.7557ZM34.0939 46.0557C34.0939 43.6809 32.1687 41.7557 29.7939 41.7557V44.7557C30.5119 44.7557 31.0939 45.3377 31.0939 46.0557H34.0939ZM34.0939 47.4464V46.0557H31.0939V47.4464H34.0939ZM31.5939 49.9464C32.9746 49.9464 34.0939 48.8271 34.0939 47.4464H31.0939C31.0939 47.1702 31.3177 46.9464 31.5939 46.9464V49.9464ZM9.03479 49.9464H31.5939V46.9464H9.03479V49.9464ZM6.53479 47.4464C6.53479 48.8271 7.65409 49.9464 9.03479 49.9464V46.9464C9.31093 46.9464 9.53479 47.1702 9.53479 47.4464H6.53479ZM6.53479 46.0557V47.4464H9.53479V46.0557H6.53479ZM10.8348 41.7557C8.45996 41.7557 6.53479 43.6809 6.53479 46.0557H9.53479C9.53479 45.3377 10.1168 44.7557 10.8348 44.7557V41.7557ZM12.1999 41.7557H10.8348V44.7557H12.1999V41.7557ZM10.6841 42.9953C10.6841 43.1444 10.6932 43.2921 10.711 43.4376L13.6889 43.0738C13.6858 43.0487 13.6841 43.0225 13.6841 42.9953H10.6841Z" fill="#F8F9FA" mask="url(#path-1-outside-1_50_1173)"/>
<path d="M48.2974 37.1453L46.2422 40.7048" stroke="#212529" stroke-width="1.4"/>
<path d="M21.0876 23.5895C21.5862 22.7259 22.6825 22.4175 23.5582 22.8944L50.5583 37.5987C51.8435 38.2986 52.2997 39.9199 51.568 41.1874V41.1874C50.8362 42.4548 49.204 42.8704 47.9552 42.1073L21.7209 26.0767C20.87 25.5567 20.589 24.4531 21.0876 23.5895V23.5895Z" fill="#B75555" stroke="#212529" stroke-width="1.6" stroke-linecap="round" stroke-linejoin="round"/>
<path d="M20.4425 13.3196L30.304 19.0131C27.3679 25.4144 25.4349 28.7751 21.4526 34.3441L11.5912 28.6506C14.4988 22.4511 16.4309 19.0909 20.4425 13.3196Z" fill="#B75555" stroke="#212529" stroke-width="1.8" stroke-linecap="round" stroke-linejoin="round"/>
<g style="mix-blend-mode:multiply">
<rect x="27.882" y="20.4072" width="1.06485" height="12.932" transform="rotate(30 27.882 20.4072)" fill="#DEE2E6"/>
</g>
<rect x="20.323" y="11.1783" width="13.7355" height="3.58911" rx="1.79455" transform="rotate(30 20.323 11.1783)" fill="#B75555" stroke="#212529" stroke-width="1.6" stroke-linecap="round" stroke-linejoin="round"/>
<rect x="29.4442" y="24.8428" width="6.03319" height="1.99342" rx="0.996712" transform="rotate(120 29.4442 24.8428)" fill="#B75555" stroke="#212529" stroke-width="1.2" stroke-linecap="round" stroke-linejoin="round"/>
<rect x="49.6423" y="36.9161" width="5.42232" height="1.99342" rx="0.996712" transform="rotate(120 49.6423 36.9161)" fill="#FFE066" stroke="#212529" stroke-width="1.2" stroke-linecap="round" stroke-linejoin="round"/>
<rect x="11.7515" y="26.0247" width="13.7355" height="3.58911" rx="1.79455" transform="rotate(30 11.7515 26.0247)" fill="#B75555" stroke="#212529" stroke-width="1.6" stroke-linecap="round" stroke-linejoin="round"/>
<rect x="12.9928" y="41.6843" width="14.6602" height="2.64956" rx="1.32478" fill="#FFA94D" stroke="#212529" stroke-width="1.4" stroke-linecap="round" stroke-linejoin="round"/>
<path d="M8.84338 46.0695C8.84338 44.9649 9.73881 44.0695 10.8434 44.0695H29.8025C30.9071 44.0695 31.8025 44.9649 31.8025 46.0695V47.1601C31.8025 47.4363 31.5786 47.6601 31.3025 47.6601H9.34338C9.06724 47.6601 8.84338 47.4363 8.84338 47.1601V46.0695Z" fill="#FFA94D" stroke="#212529" stroke-width="1.4" stroke-linecap="round" stroke-linejoin="round"/>
<g style="mix-blend-mode:multiply">
<path d="M48.7512 40.7011L27.8456 28.0226L27.2228 28.9627C33.9644 33.379 46.5381 41.5372 48.2312 41.9654C49.9242 42.3935 50.5745 41.6086 50.688 41.1626C49.8318 41.0848 49.04 40.8225 48.7512 40.7011Z" fill="#DEE2E6" fill-opacity="0.7"/>
</g>
</svg>
