<svg width="60" height="61" viewBox="0 0 60 61" fill="none" xmlns="http://www.w3.org/2000/svg">
<mask id="path-1-outside-1_50_1314" maskUnits="userSpaceOnUse" x="7.64355" y="6.54602" width="45" height="49" fill="black">
<rect fill="white" x="7.64355" y="6.54602" width="45" height="49"/>
<path fill-rule="evenodd" clip-rule="evenodd" d="M30.9388 9.49465C30.9339 8.96589 30.5013 8.54119 29.9725 8.54606C29.4438 8.55094 29.0191 8.98354 29.0239 9.5123L29.0616 13.5963C29.0665 14.125 29.4991 14.5497 30.0278 14.5448C30.5566 14.54 30.9813 14.1074 30.9764 13.5786L30.9388 9.49465ZM20.126 16.4811C20.4419 16.9051 21.0418 16.9927 21.4658 16.6767C21.8898 16.3607 21.9774 15.7609 21.6615 15.3369L19.3137 12.1862C18.9977 11.7622 18.3978 11.6746 17.9738 11.9905C17.5498 12.3065 17.4622 12.9064 17.7782 13.3304L20.126 16.4811ZM14.9437 22.6847C14.6724 23.1386 14.0846 23.2867 13.6307 23.0154L10.11 20.9115C9.65609 20.6402 9.50802 20.0524 9.77927 19.5984C10.0505 19.1445 10.6384 18.9965 11.0923 19.2677L14.613 21.3716C15.0669 21.6429 15.215 22.2308 14.9437 22.6847ZM39.8741 16.4811C39.5581 16.9051 38.9583 16.9927 38.5343 16.6767C38.1102 16.3607 38.0227 15.7609 38.3386 15.3369L40.6864 12.1862C41.0024 11.7622 41.6022 11.6746 42.0262 11.9905C42.4502 12.3065 42.5378 12.9064 42.2219 13.3304L39.8741 16.4811ZM45.0564 22.6847C45.3276 23.1386 45.9155 23.2867 46.3694 23.0154L49.8901 20.9115C50.344 20.6402 50.4921 20.0524 50.2208 19.5984C49.9495 19.1445 49.3617 18.9965 48.9078 19.2677L45.3871 21.3716C44.9332 21.6429 44.7851 22.2308 45.0564 22.6847ZM30.019 19.9585C27.4083 19.8297 21.6446 20.9464 18.6804 26.5108C16.7816 30.0752 17.3656 33.5179 18.4817 36.1141C19.592 38.6966 21.2573 40.52 21.6732 40.968C22.4301 41.783 22.8613 42.3483 22.9709 43.396C23.1057 44.6838 23.1063 45.986 23.1063 46.6575C23.1063 47.1334 23.4921 47.5192 23.968 47.5192H24.245L24.2449 47.534V49.1364C24.2449 50.2403 25.0038 51.167 26.0284 51.4231C26.1235 52.6375 27.1391 53.5934 28.378 53.5934H31.6599C32.8988 53.5934 33.9144 52.6375 34.0095 51.4231C35.0341 51.167 35.793 50.2403 35.793 49.1364V47.534L35.7929 47.5192H36.0699C36.5458 47.5192 36.9316 47.1334 36.9316 46.6575C36.9316 45.986 36.9322 44.6838 37.067 43.396C37.1766 42.3483 37.6078 41.783 38.3647 40.968C38.7806 40.52 40.4459 38.6966 41.5562 36.1141C42.6723 33.5179 43.2563 30.0752 41.3575 26.5108C38.3933 20.9464 32.6297 19.8297 30.019 19.9585ZM26.0208 50.9454L26.0211 51.2365L26.1825 51.0684C26.1224 51.0357 26.0679 50.9941 26.0208 50.9454Z"/>
</mask>
<path fill-rule="evenodd" clip-rule="evenodd" d="M30.9388 9.49465C30.9339 8.96589 30.5013 8.54119 29.9725 8.54606C29.4438 8.55094 29.0191 8.98354 29.0239 9.5123L29.0616 13.5963C29.0665 14.125 29.4991 14.5497 30.0278 14.5448C30.5566 14.54 30.9813 14.1074 30.9764 13.5786L30.9388 9.49465ZM20.126 16.4811C20.4419 16.9051 21.0418 16.9927 21.4658 16.6767C21.8898 16.3607 21.9774 15.7609 21.6615 15.3369L19.3137 12.1862C18.9977 11.7622 18.3978 11.6746 17.9738 11.9905C17.5498 12.3065 17.4622 12.9064 17.7782 13.3304L20.126 16.4811ZM14.9437 22.6847C14.6724 23.1386 14.0846 23.2867 13.6307 23.0154L10.11 20.9115C9.65609 20.6402 9.50802 20.0524 9.77927 19.5984C10.0505 19.1445 10.6384 18.9965 11.0923 19.2677L14.613 21.3716C15.0669 21.6429 15.215 22.2308 14.9437 22.6847ZM39.8741 16.4811C39.5581 16.9051 38.9583 16.9927 38.5343 16.6767C38.1102 16.3607 38.0227 15.7609 38.3386 15.3369L40.6864 12.1862C41.0024 11.7622 41.6022 11.6746 42.0262 11.9905C42.4502 12.3065 42.5378 12.9064 42.2219 13.3304L39.8741 16.4811ZM45.0564 22.6847C45.3276 23.1386 45.9155 23.2867 46.3694 23.0154L49.8901 20.9115C50.344 20.6402 50.4921 20.0524 50.2208 19.5984C49.9495 19.1445 49.3617 18.9965 48.9078 19.2677L45.3871 21.3716C44.9332 21.6429 44.7851 22.2308 45.0564 22.6847ZM30.019 19.9585C27.4083 19.8297 21.6446 20.9464 18.6804 26.5108C16.7816 30.0752 17.3656 33.5179 18.4817 36.1141C19.592 38.6966 21.2573 40.52 21.6732 40.968C22.4301 41.783 22.8613 42.3483 22.9709 43.396C23.1057 44.6838 23.1063 45.986 23.1063 46.6575C23.1063 47.1334 23.4921 47.5192 23.968 47.5192H24.245L24.2449 47.534V49.1364C24.2449 50.2403 25.0038 51.167 26.0284 51.4231C26.1235 52.6375 27.1391 53.5934 28.378 53.5934H31.6599C32.8988 53.5934 33.9144 52.6375 34.0095 51.4231C35.0341 51.167 35.793 50.2403 35.793 49.1364V47.534L35.7929 47.5192H36.0699C36.5458 47.5192 36.9316 47.1334 36.9316 46.6575C36.9316 45.986 36.9322 44.6838 37.067 43.396C37.1766 42.3483 37.6078 41.783 38.3647 40.968C38.7806 40.52 40.4459 38.6966 41.5562 36.1141C42.6723 33.5179 43.2563 30.0752 41.3575 26.5108C38.3933 20.9464 32.6297 19.8297 30.019 19.9585ZM26.0208 50.9454L26.0211 51.2365L26.1825 51.0684C26.1224 51.0357 26.0679 50.9941 26.0208 50.9454Z" fill="#F8F9FA"/>
<path d="M26.7235 51.5878C27.0104 51.2889 27.0006 50.8142 26.7018 50.5273C26.403 50.2405 25.9282 50.2502 25.6414 50.5491L26.7235 51.5878ZM25.48 50.7172C25.1932 51.016 25.2029 51.4908 25.5017 51.7776C25.8006 52.0645 26.2754 52.0547 26.5622 51.7559L25.48 50.7172ZM25.6414 50.5491L25.48 50.7172L26.5622 51.7559L26.7235 51.5878L25.6414 50.5491ZM29.9725 8.54606L29.9587 7.04613L29.9725 8.54606ZM30.9388 9.49465L32.4387 9.48082L32.4387 9.48082L30.9388 9.49465ZM29.0239 9.5123L30.5239 9.49848L30.5239 9.49848L29.0239 9.5123ZM29.0616 13.5963L27.5617 13.6101L27.5617 13.6101L29.0616 13.5963ZM30.0278 14.5448L30.014 13.0449L30.014 13.0449L30.0278 14.5448ZM30.9764 13.5786L32.4764 13.5648L32.4764 13.5648L30.9764 13.5786ZM21.4658 16.6767L22.3621 17.8795L22.3621 17.8795L21.4658 16.6767ZM20.126 16.4811L18.9232 17.3773L18.9232 17.3773L20.126 16.4811ZM21.6615 15.3369L22.8642 14.4406L22.8642 14.4406L21.6615 15.3369ZM19.3137 12.1862L20.5165 11.2899L20.5165 11.2899L19.3137 12.1862ZM17.9738 11.9905L17.0776 10.7878L17.0776 10.7878L17.9738 11.9905ZM17.7782 13.3304L16.5754 14.2267L16.5754 14.2267L17.7782 13.3304ZM13.6307 23.0154L12.8612 24.303L12.8612 24.303L13.6307 23.0154ZM14.9437 22.6847L13.6561 21.9152L13.6561 21.9152L14.9437 22.6847ZM10.11 20.9115L10.8795 19.6239L10.8795 19.6239L10.11 20.9115ZM9.77927 19.5984L8.49167 18.829L8.49167 18.829L9.77927 19.5984ZM11.0923 19.2677L10.3228 20.5553L10.3228 20.5553L11.0923 19.2677ZM14.613 21.3716L15.3824 20.084L15.3824 20.084L14.613 21.3716ZM38.5343 16.6767L39.4305 15.4739L39.4305 15.4739L38.5343 16.6767ZM39.8741 16.4811L41.0769 17.3773L41.0769 17.3773L39.8741 16.4811ZM38.3386 15.3369L37.1358 14.4406L37.1358 14.4406L38.3386 15.3369ZM40.6864 12.1862L41.8892 13.0825L41.8892 13.0825L40.6864 12.1862ZM42.0262 11.9905L41.13 13.1933L41.13 13.1933L42.0262 11.9905ZM42.2219 13.3304L43.4247 14.2267L43.4247 14.2267L42.2219 13.3304ZM46.3694 23.0154L47.1389 24.303L47.1389 24.303L46.3694 23.0154ZM45.0564 22.6847L46.344 21.9152L46.344 21.9152L45.0564 22.6847ZM49.8901 20.9115L49.1206 19.6239L49.1206 19.6239L49.8901 20.9115ZM48.9078 19.2677L48.1383 17.9801L48.1383 17.9801L48.9078 19.2677ZM45.3871 21.3716L46.1566 22.6592L46.1566 22.6592L45.3871 21.3716ZM18.6804 26.5108L17.3565 25.8055L17.3565 25.8055L18.6804 26.5108ZM30.019 19.9585L29.9451 21.4567C29.9943 21.4591 30.0437 21.4591 30.0929 21.4567L30.019 19.9585ZM18.4817 36.1141L17.1037 36.7065L17.1037 36.7065L18.4817 36.1141ZM21.6732 40.968L20.5741 41.9886L20.5741 41.9886L21.6732 40.968ZM22.9709 43.396L24.4628 43.2398L24.4628 43.2398L22.9709 43.396ZM24.245 47.5192L25.7449 47.5259C25.7467 47.1269 25.5895 46.7437 25.308 46.4609C25.0265 46.1781 24.644 46.0192 24.245 46.0192V47.5192ZM24.2449 47.534L22.7449 47.5273V47.534H24.2449ZM26.0284 51.4231L27.5238 51.306C27.4735 50.663 27.0178 50.1242 26.3921 49.9678L26.0284 51.4231ZM34.0095 51.4231L33.6458 49.9678C33.0201 50.1242 32.5644 50.663 32.5141 51.306L34.0095 51.4231ZM35.793 47.534L37.293 47.534L37.293 47.5273L35.793 47.534ZM35.7929 47.5192V46.0192C35.3939 46.0192 35.0114 46.1781 34.7299 46.4609C34.4484 46.7437 34.2911 47.1269 34.2929 47.5259L35.7929 47.5192ZM37.067 43.396L38.5588 43.5521L38.5588 43.5521L37.067 43.396ZM38.3647 40.968L39.4639 41.9886L39.4639 41.9886L38.3647 40.968ZM41.5562 36.1141L40.1781 35.5216L40.1781 35.5216L41.5562 36.1141ZM41.3575 26.5108L40.0336 27.216L40.0336 27.216L41.3575 26.5108ZM26.0211 51.2365L24.5211 51.2383C24.5218 51.8503 24.8942 52.4004 25.4621 52.6285C26.03 52.8566 26.6795 52.7167 27.1033 52.2752L26.0211 51.2365ZM26.0208 50.9454L27.0986 49.9023C26.6734 49.4629 26.024 49.3256 25.4573 49.5553C24.8906 49.785 24.5201 50.3357 24.5208 50.9472L26.0208 50.9454ZM26.1825 51.0684L27.2646 52.1071C27.5884 51.7698 27.7364 51.3008 27.6648 50.8388C27.5932 50.3767 27.3103 49.9745 26.8996 49.751L26.1825 51.0684ZM29.9864 10.046C29.6867 10.0488 29.4416 9.8081 29.4388 9.50848L32.4387 9.48082C32.4262 8.12367 31.3159 7.03361 29.9587 7.04613L29.9864 10.046ZM30.5239 9.49848C30.5266 9.7981 30.286 10.0432 29.9864 10.046L29.9587 7.04613C28.6015 7.05864 27.5115 8.16897 27.524 9.52613L30.5239 9.49848ZM30.5615 13.5824L30.5239 9.49848L27.524 9.52613L27.5617 13.6101L30.5615 13.5824ZM30.014 13.0449C30.3136 13.0421 30.5588 13.2828 30.5615 13.5824L27.5617 13.6101C27.5742 14.9672 28.6845 16.0573 30.0417 16.0448L30.014 13.0449ZM29.4765 13.5924C29.4737 13.2928 29.7144 13.0477 30.014 13.0449L30.0417 16.0448C31.3988 16.0323 32.4889 14.9219 32.4764 13.5648L29.4765 13.5924ZM29.4388 9.50848L29.4765 13.5924L32.4764 13.5648L32.4387 9.48082L29.4388 9.50848ZM20.5695 15.4739C20.8098 15.2949 21.1497 15.3445 21.3288 15.5848L18.9232 17.3773C19.7342 18.4656 21.2738 18.6904 22.3621 17.8795L20.5695 15.4739ZM20.4587 16.2331C20.2796 15.9929 20.3293 15.653 20.5695 15.4739L22.3621 17.8795C23.4504 17.0685 23.6752 15.5289 22.8642 14.4406L20.4587 16.2331ZM18.1109 13.0825L20.4587 16.2331L22.8642 14.4406L20.5165 11.2899L18.1109 13.0825ZM18.8701 13.1933C18.6298 13.3724 18.2899 13.3227 18.1109 13.0825L20.5165 11.2899C19.7055 10.2016 18.1658 9.9768 17.0776 10.7878L18.8701 13.1933ZM18.981 12.4341C19.16 12.6744 19.1104 13.0143 18.8701 13.1933L17.0776 10.7878C15.9893 11.5987 15.7644 13.1384 16.5754 14.2267L18.981 12.4341ZM21.3288 15.5848L18.981 12.4341L16.5754 14.2267L18.9232 17.3773L21.3288 15.5848ZM12.8612 24.303C14.0262 24.9992 15.5351 24.6192 16.2313 23.4541L13.6561 21.9152C13.8098 21.658 14.1429 21.5741 14.4001 21.7278L12.8612 24.303ZM9.34054 22.1991L12.8612 24.303L14.4001 21.7278L10.8795 19.6239L9.34054 22.1991ZM8.49167 18.829C7.79545 19.994 8.1755 21.5029 9.34054 22.1991L10.8795 19.6239C11.1367 19.7776 11.2206 20.1107 11.0669 20.3679L8.49167 18.829ZM11.8618 17.9801C10.6967 17.2839 9.18789 17.6639 8.49167 18.829L11.0669 20.3679C10.9132 20.6251 10.5801 20.709 10.3228 20.5553L11.8618 17.9801ZM15.3824 20.084L11.8618 17.9801L10.3228 20.5553L13.8435 22.6592L15.3824 20.084ZM16.2313 23.4541C16.9275 22.2891 16.5475 20.7803 15.3824 20.084L13.8435 22.6592C13.5863 22.5055 13.5024 22.1724 13.6561 21.9152L16.2313 23.4541ZM37.638 17.8795C38.7263 18.6904 40.2659 18.4656 41.0769 17.3773L38.6713 15.5848C38.8504 15.3445 39.1903 15.2949 39.4305 15.4739L37.638 17.8795ZM37.1358 14.4406C36.3249 15.5289 36.5497 17.0685 37.638 17.8795L39.4305 15.4739C39.6708 15.653 39.7204 15.9929 39.5414 16.2331L37.1358 14.4406ZM39.4836 11.2899L37.1358 14.4406L39.5414 16.2331L41.8892 13.0825L39.4836 11.2899ZM42.9225 10.7878C41.8342 9.9768 40.2946 10.2016 39.4836 11.2899L41.8892 13.0825C41.7101 13.3227 41.3702 13.3724 41.13 13.1933L42.9225 10.7878ZM43.4247 14.2267C44.2356 13.1384 44.0108 11.5987 42.9225 10.7878L41.13 13.1933C40.8897 13.0143 40.8401 12.6744 41.0191 12.4341L43.4247 14.2267ZM41.0769 17.3773L43.4247 14.2267L41.0191 12.4341L38.6713 15.5848L41.0769 17.3773ZM45.5999 21.7278C45.8571 21.5741 46.1903 21.658 46.344 21.9152L43.7688 23.4541C44.465 24.6192 45.9738 24.9992 47.1389 24.303L45.5999 21.7278ZM49.1206 19.6239L45.5999 21.7278L47.1389 24.303L50.6595 22.1991L49.1206 19.6239ZM48.9332 20.3679C48.7795 20.1107 48.8634 19.7776 49.1206 19.6239L50.6595 22.1991C51.8246 21.5029 52.2046 19.994 51.5084 18.829L48.9332 20.3679ZM49.6772 20.5553C49.42 20.709 49.0869 20.6251 48.9332 20.3679L51.5084 18.829C50.8122 17.6639 49.3033 17.2839 48.1383 17.9801L49.6772 20.5553ZM46.1566 22.6592L49.6772 20.5553L48.1383 17.9801L44.6176 20.084L46.1566 22.6592ZM46.344 21.9152C46.4977 22.1724 46.4138 22.5055 46.1566 22.6592L44.6176 20.084C43.4526 20.7803 43.0725 22.2891 43.7688 23.4541L46.344 21.9152ZM20.0043 27.216C22.5982 22.3468 27.6747 21.3447 29.9451 21.4567L30.0929 18.4604C27.1419 18.3147 20.6911 19.5459 17.3565 25.8055L20.0043 27.216ZM19.8598 35.5216C18.8565 33.188 18.3883 30.2495 20.0043 27.216L17.3565 25.8055C15.1749 29.901 15.8748 33.8479 17.1037 36.7065L19.8598 35.5216ZM22.7724 39.9473C22.3913 39.5368 20.8671 37.8646 19.8598 35.5216L17.1037 36.7065C18.3169 39.5285 20.1233 41.5032 20.5741 41.9886L22.7724 39.9473ZM24.4628 43.2398C24.3011 41.6949 23.5903 40.8281 22.7724 39.9473L20.5741 41.9886C21.2698 42.7379 21.4215 43.0017 21.4791 43.5521L24.4628 43.2398ZM24.6063 46.6575C24.6063 45.9883 24.6067 44.6146 24.4628 43.2398L21.4791 43.5521C21.6048 44.7531 21.6063 45.9837 21.6063 46.6575H24.6063ZM23.968 46.0192C24.3205 46.0192 24.6063 46.305 24.6063 46.6575H21.6063C21.6063 47.9618 22.6636 49.0192 23.968 49.0192V46.0192ZM24.245 46.0192H23.968V49.0192H24.245V46.0192ZM25.7449 47.5408L25.7449 47.5259L22.745 47.5124L22.7449 47.5273L25.7449 47.5408ZM25.7449 49.1364V47.534H22.7449V49.1364H25.7449ZM26.3921 49.9678C26.0194 49.8747 25.7449 49.5358 25.7449 49.1364H22.7449C22.7449 50.9449 23.9882 52.4593 25.6646 52.8783L26.3921 49.9678ZM28.378 52.0934C27.9283 52.0934 27.5582 51.746 27.5238 51.306L24.5329 51.5402C24.6887 53.5291 26.3499 55.0934 28.378 55.0934V52.0934ZM31.6599 52.0934H28.378V55.0934H31.6599V52.0934ZM32.5141 51.306C32.4796 51.746 32.1096 52.0934 31.6599 52.0934V55.0934C33.688 55.0934 35.3492 53.5291 35.5049 51.5402L32.5141 51.306ZM34.293 49.1364C34.293 49.5358 34.0184 49.8747 33.6458 49.9678L34.3732 52.8783C36.0497 52.4593 37.293 50.9449 37.293 49.1364H34.293ZM34.293 47.534V49.1364H37.293V47.534H34.293ZM34.2929 47.5259L34.293 47.5408L37.293 47.5273L37.2929 47.5124L34.2929 47.5259ZM36.0699 46.0192H35.7929V49.0192H36.0699V46.0192ZM35.4316 46.6575C35.4316 46.305 35.7174 46.0192 36.0699 46.0192V49.0192C37.3743 49.0192 38.4316 47.9618 38.4316 46.6575H35.4316ZM35.5751 43.2398C35.4312 44.6146 35.4316 45.9883 35.4316 46.6575H38.4316C38.4316 45.9837 38.4331 44.7531 38.5588 43.5521L35.5751 43.2398ZM37.2655 39.9473C36.4476 40.8281 35.7368 41.6949 35.5751 43.2398L38.5588 43.5521C38.6164 43.0017 38.7681 42.7379 39.4639 41.9886L37.2655 39.9473ZM40.1781 35.5216C39.1709 37.8646 37.6466 39.5368 37.2655 39.9473L39.4639 41.9886C39.9146 41.5032 41.721 39.5285 42.9342 36.7065L40.1781 35.5216ZM40.0336 27.216C41.6496 30.2495 41.1814 33.188 40.1781 35.5216L42.9342 36.7065C44.1631 33.8479 44.8631 29.901 42.6814 25.8055L40.0336 27.216ZM30.0929 21.4567C32.3633 21.3447 37.4398 22.3468 40.0336 27.216L42.6814 25.8055C39.3469 19.546 32.8962 18.3148 29.9451 18.4604L30.0929 21.4567ZM27.5211 51.2348L27.5208 50.9437L24.5208 50.9472L24.5211 51.2383L27.5211 51.2348ZM25.1003 50.0297L24.9389 50.1978L27.1033 52.2752L27.2646 52.1071L25.1003 50.0297ZM24.9429 51.9886C25.0948 52.1456 25.2707 52.2799 25.4653 52.3859L26.8996 49.751C26.9741 49.7915 27.041 49.8427 27.0986 49.9023L24.9429 51.9886Z" fill="#F8F9FA" mask="url(#path-1-outside-1_50_1314)"/>
<path d="M29.9624 9.52258L30.0001 13.6065" stroke="#212529" stroke-width="2.2" stroke-linecap="round" stroke-linejoin="round"/>
<path d="M20.8749 15.928L18.5271 12.7773" stroke="#212529" stroke-width="2.2" stroke-linecap="round" stroke-linejoin="round"/>
<path d="M14.1029 22.2125L10.5822 20.1086" stroke="#212529" stroke-width="2.2" stroke-linecap="round" stroke-linejoin="round"/>
<path d="M39.0873 15.928L41.4351 12.7773" stroke="#212529" stroke-width="2.2" stroke-linecap="round" stroke-linejoin="round"/>
<path d="M45.8593 22.2125L49.3799 20.1086" stroke="#212529" stroke-width="2.2" stroke-linecap="round" stroke-linejoin="round"/>
<path fill-rule="evenodd" clip-rule="evenodd" d="M30.0001 20.8405C27.6114 20.7066 22.1912 21.7367 19.422 26.935C15.949 33.4546 21.4937 39.5476 22.2858 40.4007C23.0779 41.2537 23.6695 41.9922 23.809 43.3254C23.949 44.663 23.949 46.0063 23.949 46.6765V46.6765L29.976 46.6766H36.051V46.6765C36.051 46.0063 36.051 44.6631 36.191 43.3254C36.3305 41.9922 36.9221 41.2537 37.7142 40.4007C38.5063 39.5477 44.051 33.4546 40.578 26.935C37.8089 21.7368 32.3889 20.7066 30.0001 20.8405Z" fill="#FFD43B"/>
<path d="M19.422 26.935L18.5394 26.4648L18.5394 26.4648L19.422 26.935ZM30.0001 20.8405L29.9441 21.8389C29.9814 21.841 30.0188 21.841 30.056 21.8389L30.0001 20.8405ZM22.2858 40.4007L21.553 41.0811L21.553 41.0811L22.2858 40.4007ZM23.809 43.3254L24.8036 43.2213L24.8036 43.2213L23.809 43.3254ZM23.949 46.6765L24.949 46.6765L24.949 46.6765L23.949 46.6765ZM23.949 46.6765H22.949C22.949 47.2288 23.3968 47.6765 23.949 47.6765L23.949 46.6765ZM29.976 46.6766L29.976 47.6766H29.976V46.6766ZM36.051 46.6766V47.6766C36.6033 47.6766 37.051 47.2288 37.051 46.6766H36.051ZM36.191 43.3254L37.1855 43.4295L37.1855 43.4295L36.191 43.3254ZM37.7142 40.4007L38.447 41.0811L38.447 41.0811L37.7142 40.4007ZM40.578 26.935L41.4606 26.4648L40.578 26.935ZM20.3046 27.4051C22.8261 22.6718 27.7858 21.7179 29.9441 21.8389L30.0561 19.8421C27.4369 19.6952 21.5563 20.8016 18.5394 26.4648L20.3046 27.4051ZM23.0186 39.7202C22.6456 39.3186 21.1555 37.6829 20.1732 35.3978C19.1976 33.1285 18.7564 30.3114 20.3046 27.4051L18.5394 26.4648C16.6146 30.0782 17.2092 33.5673 18.3358 36.1877C19.4555 38.7924 21.1338 40.6297 21.553 41.0811L23.0186 39.7202ZM24.8036 43.2213C24.6294 41.5567 23.8516 40.6173 23.0186 39.7202L21.553 41.0811C22.3041 41.8901 22.7096 42.4276 22.8145 43.4294L24.8036 43.2213ZM24.949 46.6765C24.949 46.0077 24.9497 44.6168 24.8036 43.2213L22.8145 43.4294C22.9484 44.7093 22.949 46.0049 22.949 46.6765L24.949 46.6765ZM24.949 46.6765V46.6765H22.949V46.6765H24.949ZM29.976 45.6766L23.949 45.6765L23.949 47.6765L29.976 47.6766L29.976 45.6766ZM29.976 47.6766H36.051V45.6766H29.976V47.6766ZM37.051 46.6766V46.6765H35.051V46.6766H37.051ZM37.051 46.6765C37.051 46.0049 37.0516 44.7093 37.1855 43.4295L35.1964 43.2213C35.0503 44.6168 35.051 46.0077 35.051 46.6765H37.051ZM37.1855 43.4295C37.2904 42.4276 37.6959 41.8901 38.447 41.0811L36.9815 39.7202C36.1484 40.6174 35.3706 41.5567 35.1964 43.2213L37.1855 43.4295ZM38.447 41.0811C38.8662 40.6297 40.5445 38.7924 41.6643 36.1877C42.7908 33.5674 43.3855 30.0782 41.4606 26.4648L39.6954 27.4051C41.2436 30.3114 40.8024 33.1285 39.8269 35.3978C38.8445 37.6829 37.3544 39.3186 36.9815 39.7202L38.447 41.0811ZM41.4606 26.4648C38.4438 20.8017 32.5634 19.6953 29.9441 19.8421L30.056 21.8389C32.2145 21.718 37.174 22.672 39.6954 27.4051L41.4606 26.4648Z" fill="#212529"/>
<path fill-rule="evenodd" clip-rule="evenodd" d="M34.1647 46.8055C34.5776 46.8055 34.9123 47.1402 34.9123 47.5531V49.1555C34.9123 49.9813 34.2429 50.6507 33.4172 50.6507L33.1361 50.6503L33.1361 51.2557C33.1361 52.0814 32.4667 52.7508 31.6409 52.7508H28.359C27.5333 52.7508 26.8638 52.0814 26.8638 51.2557L26.8631 50.6503L26.5828 50.6507C25.7571 50.6507 25.0876 49.9813 25.0876 49.1555V47.5531C25.0876 47.1402 25.4223 46.8055 25.8352 46.8055H34.1647Z" fill="#9775FA" stroke="#212529" stroke-width="1.6" stroke-linejoin="round"/>
<g style="mix-blend-mode:multiply">
<rect x="33.0552" y="47.4756" width="1.2481" height="2.51" fill="#DEE2E6"/>
</g>
<g style="mix-blend-mode:multiply">
<rect x="31.2144" y="50.9486" width="1.2481" height="1.06948" fill="#DEE2E6"/>
</g>
<path d="M33.5004 50.4602H26.4995" stroke="#212529" stroke-width="1.2" stroke-linecap="round" stroke-linejoin="round"/>
<path d="M30.2058 46.1421V38.2452" stroke="#212529" stroke-width="2" stroke-linecap="round" stroke-linejoin="round"/>
<path d="M26.0397 34.079L30.2059 38.2452L34.3721 34.079" stroke="#212529" stroke-width="2" stroke-linecap="round" stroke-linejoin="round"/>
<g style="mix-blend-mode:soft-light">
<path d="M24.9791 24.457C24.1109 24.3233 22.7225 25.7524 22.1368 26.4837C20.4342 28.5562 20.7027 29.9146 21.2135 29.9146C21.7242 29.9146 22.5448 28.4488 23.388 27.3305C24.2313 26.2122 26.0642 24.6241 24.9791 24.457Z" fill="#F8F9FA"/>
</g>
<g style="mix-blend-mode:multiply">
<path fill-rule="evenodd" clip-rule="evenodd" d="M29.6827 21.4098C32.3817 21.6623 36.5833 23.0276 38.9113 27.217C42.3844 33.467 36.8397 39.3081 36.0476 40.1258C35.2555 40.9436 34.6638 41.6515 34.5243 42.9295C34.3843 44.2119 34.3843 45.4996 34.3843 46.1421V46.1421H35.7577V46.1421C35.7577 45.4996 35.7577 44.2119 35.8977 42.9295C36.0372 41.6515 36.6288 40.9436 37.4209 40.1258C38.213 39.3081 43.7577 33.467 40.2847 27.217C37.5063 22.217 32.059 21.2396 29.6827 21.3759V21.4098Z" fill="#FFE066"/>
</g>
</svg>
