<svg width="60" height="61" viewBox="0 0 60 61" fill="none" xmlns="http://www.w3.org/2000/svg">
<mask id="path-1-outside-1_50_3800" maskUnits="userSpaceOnUse" x="5" y="12.3911" width="49" height="36" fill="black">
<rect fill="white" x="5" y="12.3911" width="49" height="36"/>
<path fill-rule="evenodd" clip-rule="evenodd" d="M9 30.6C9 26.5618 10.0477 22.9526 11.6887 20.3841C13.337 17.8042 15.4922 16.3911 17.7169 16.3911C19.9415 16.3911 22.0967 17.8042 23.745 20.3841C25.386 22.9526 26.4337 26.5618 26.4337 30.6C26.4337 34.6383 25.386 38.2475 23.745 40.816C22.0967 43.3959 19.9415 44.809 17.7169 44.809C15.4922 44.809 13.337 43.3959 11.6887 40.816C10.0477 38.2475 9 34.6383 9 30.6ZM17.7169 14.3911C14.575 14.3911 11.8718 16.3827 10.0033 19.3073C8.1275 22.2433 7 26.2387 7 30.6C7 34.9614 8.1275 38.9567 10.0033 41.8928C11.8718 44.8174 14.575 46.809 17.7169 46.809C20.8587 46.809 23.5619 44.8174 25.4304 41.8928C27.3062 38.9567 28.4337 34.9614 28.4337 30.6C28.4337 26.2387 27.3062 22.2433 25.4304 19.3073C23.5619 16.3827 20.8587 14.3911 17.7169 14.3911ZM32.7365 30.6C32.7365 26.5618 33.7841 22.9526 35.4251 20.3841C37.0734 17.8042 39.2287 16.3911 41.4533 16.3911C43.678 16.3911 45.8332 17.8042 47.4815 20.3841C49.1225 22.9526 50.1702 26.5618 50.1702 30.6C50.1702 34.6383 49.1225 38.2475 47.4815 40.816C45.8332 43.3959 43.678 44.809 41.4533 44.809C39.2287 44.809 37.0734 43.3959 35.4251 40.816C33.7841 38.2475 32.7365 34.6383 32.7365 30.6ZM41.4533 14.3911C38.3115 14.3911 35.6083 16.3827 33.7398 19.3073C31.8639 22.2433 30.7365 26.2387 30.7365 30.6C30.7365 34.9614 31.8639 38.9567 33.7398 41.8928C35.6083 44.8174 38.3115 46.809 41.4533 46.809C44.5951 46.809 47.2983 44.8174 49.1669 41.8928C51.0427 38.9567 52.1702 34.9614 52.1702 30.6C52.1702 26.2387 51.0427 22.2433 49.1669 19.3073C47.2983 16.3827 44.5951 14.3911 41.4533 14.3911Z"/>
</mask>
<path fill-rule="evenodd" clip-rule="evenodd" d="M9 30.6C9 26.5618 10.0477 22.9526 11.6887 20.3841C13.337 17.8042 15.4922 16.3911 17.7169 16.3911C19.9415 16.3911 22.0967 17.8042 23.745 20.3841C25.386 22.9526 26.4337 26.5618 26.4337 30.6C26.4337 34.6383 25.386 38.2475 23.745 40.816C22.0967 43.3959 19.9415 44.809 17.7169 44.809C15.4922 44.809 13.337 43.3959 11.6887 40.816C10.0477 38.2475 9 34.6383 9 30.6ZM17.7169 14.3911C14.575 14.3911 11.8718 16.3827 10.0033 19.3073C8.1275 22.2433 7 26.2387 7 30.6C7 34.9614 8.1275 38.9567 10.0033 41.8928C11.8718 44.8174 14.575 46.809 17.7169 46.809C20.8587 46.809 23.5619 44.8174 25.4304 41.8928C27.3062 38.9567 28.4337 34.9614 28.4337 30.6C28.4337 26.2387 27.3062 22.2433 25.4304 19.3073C23.5619 16.3827 20.8587 14.3911 17.7169 14.3911ZM32.7365 30.6C32.7365 26.5618 33.7841 22.9526 35.4251 20.3841C37.0734 17.8042 39.2287 16.3911 41.4533 16.3911C43.678 16.3911 45.8332 17.8042 47.4815 20.3841C49.1225 22.9526 50.1702 26.5618 50.1702 30.6C50.1702 34.6383 49.1225 38.2475 47.4815 40.816C45.8332 43.3959 43.678 44.809 41.4533 44.809C39.2287 44.809 37.0734 43.3959 35.4251 40.816C33.7841 38.2475 32.7365 34.6383 32.7365 30.6ZM41.4533 14.3911C38.3115 14.3911 35.6083 16.3827 33.7398 19.3073C31.8639 22.2433 30.7365 26.2387 30.7365 30.6C30.7365 34.9614 31.8639 38.9567 33.7398 41.8928C35.6083 44.8174 38.3115 46.809 41.4533 46.809C44.5951 46.809 47.2983 44.8174 49.1669 41.8928C51.0427 38.9567 52.1702 34.9614 52.1702 30.6C52.1702 26.2387 51.0427 22.2433 49.1669 19.3073C47.2983 16.3827 44.5951 14.3911 41.4533 14.3911Z" fill="#F8F9FA"/>
<path d="M11.6887 20.3841L12.9527 21.1917L12.9527 21.1917L11.6887 20.3841ZM23.745 20.3841L25.0091 19.5765L25.0091 19.5765L23.745 20.3841ZM23.745 40.816L25.0091 41.6236L25.0091 41.6236L23.745 40.816ZM11.6887 40.816L10.4247 41.6236L10.4247 41.6236L11.6887 40.816ZM10.0033 19.3073L8.73926 18.4997L8.73926 18.4997L10.0033 19.3073ZM10.0033 41.8928L8.73926 42.7004L8.73926 42.7004L10.0033 41.8928ZM25.4304 41.8928L26.6945 42.7004L26.6945 42.7004L25.4304 41.8928ZM25.4304 19.3073L26.6945 18.4997L25.4304 19.3073ZM35.4251 20.3841L34.1611 19.5765L34.1611 19.5765L35.4251 20.3841ZM47.4815 20.3841L48.7455 19.5765L48.7455 19.5765L47.4815 20.3841ZM47.4815 40.816L48.7455 41.6236L48.7455 41.6236L47.4815 40.816ZM35.4251 40.816L34.1611 41.6236L34.1611 41.6236L35.4251 40.816ZM33.7398 19.3073L32.4757 18.4997L33.7398 19.3073ZM33.7398 41.8928L32.4757 42.7004L32.4757 42.7004L33.7398 41.8928ZM49.1669 41.8928L50.4309 42.7004L50.4309 42.7004L49.1669 41.8928ZM49.1669 19.3073L50.4309 18.4997L49.1669 19.3073ZM10.4247 19.5765C8.60758 22.4206 7.5 26.3194 7.5 30.6H10.5C10.5 26.8042 11.4878 23.4846 12.9527 21.1917L10.4247 19.5765ZM17.7169 14.8911C14.8062 14.8911 12.2395 16.7359 10.4247 19.5765L12.9527 21.1917C14.4345 18.8725 16.1782 17.8911 17.7169 17.8911V14.8911ZM25.0091 19.5765C23.1942 16.7359 20.6275 14.8911 17.7169 14.8911V17.8911C19.2555 17.8911 20.9993 18.8725 22.481 21.1917L25.0091 19.5765ZM27.9337 30.6C27.9337 26.3194 26.8261 22.4206 25.0091 19.5765L22.481 21.1917C23.9459 23.4846 24.9337 26.8042 24.9337 30.6H27.9337ZM25.0091 41.6236C26.8261 38.7795 27.9337 34.8807 27.9337 30.6H24.9337C24.9337 34.3959 23.9459 37.7155 22.481 40.0084L25.0091 41.6236ZM17.7169 46.309C20.6275 46.309 23.1942 44.4642 25.0091 41.6236L22.481 40.0084C20.9993 42.3276 19.2555 43.309 17.7169 43.309V46.309ZM10.4247 41.6236C12.2395 44.4642 14.8062 46.309 17.7169 46.309V43.309C16.1782 43.309 14.4345 42.3276 12.9527 40.0084L10.4247 41.6236ZM7.5 30.6C7.5 34.8807 8.60758 38.7795 10.4247 41.6236L12.9527 40.0084C11.4878 37.7155 10.5 34.3959 10.5 30.6H7.5ZM11.2673 20.1149C12.9718 17.4471 15.2644 15.8911 17.7169 15.8911V12.8911C13.8857 12.8911 10.7719 15.3183 8.73926 18.4997L11.2673 20.1149ZM8.5 30.6C8.5 26.4809 9.56767 22.7753 11.2673 20.1149L8.73926 18.4997C6.68732 21.7114 5.5 25.9964 5.5 30.6H8.5ZM11.2673 41.0852C9.56767 38.4248 8.5 34.7192 8.5 30.6H5.5C5.5 35.2037 6.68732 39.4886 8.73926 42.7004L11.2673 41.0852ZM17.7169 45.309C15.2644 45.309 12.9718 43.753 11.2673 41.0852L8.73926 42.7004C10.7719 45.8818 13.8857 48.309 17.7169 48.309V45.309ZM24.1664 41.0852C22.4619 43.753 20.1693 45.309 17.7169 45.309V48.309C21.548 48.309 24.6618 45.8818 26.6945 42.7004L24.1664 41.0852ZM26.9337 30.6C26.9337 34.7192 25.866 38.4248 24.1664 41.0852L26.6945 42.7004C28.7464 39.4886 29.9337 35.2037 29.9337 30.6H26.9337ZM24.1664 20.1149C25.866 22.7753 26.9337 26.4809 26.9337 30.6H29.9337C29.9337 25.9964 28.7464 21.7114 26.6945 18.4997L24.1664 20.1149ZM17.7169 15.8911C20.1693 15.8911 22.4619 17.4471 24.1664 20.1149L26.6945 18.4997C24.6618 15.3183 21.548 12.8911 17.7169 12.8911V15.8911ZM34.1611 19.5765C32.344 22.4206 31.2365 26.3194 31.2365 30.6H34.2365C34.2365 26.8042 35.2243 23.4846 36.6892 21.1917L34.1611 19.5765ZM41.4533 14.8911C38.5427 14.8911 35.976 16.7359 34.1611 19.5765L36.6892 21.1917C38.1709 18.8725 39.9146 17.8911 41.4533 17.8911V14.8911ZM48.7455 19.5765C46.9307 16.7359 44.3639 14.8911 41.4533 14.8911V17.8911C42.992 17.8911 44.7357 18.8725 46.2174 21.1917L48.7455 19.5765ZM51.6702 30.6C51.6702 26.3194 50.5626 22.4206 48.7455 19.5765L46.2174 21.1917C47.6824 23.4846 48.6702 26.8042 48.6702 30.6H51.6702ZM48.7455 41.6236C50.5626 38.7795 51.6702 34.8807 51.6702 30.6H48.6702C48.6702 34.3959 47.6824 37.7155 46.2174 40.0084L48.7455 41.6236ZM41.4533 46.309C44.3639 46.309 46.9307 44.4642 48.7455 41.6236L46.2174 40.0084C44.7357 42.3276 42.992 43.309 41.4533 43.309V46.309ZM34.1611 41.6236C35.976 44.4642 38.5427 46.309 41.4533 46.309V43.309C39.9146 43.309 38.1709 42.3276 36.6892 40.0084L34.1611 41.6236ZM31.2365 30.6C31.2365 34.8807 32.344 38.7795 34.1611 41.6236L36.6892 40.0084C35.2243 37.7155 34.2365 34.3959 34.2365 30.6H31.2365ZM35.0038 20.1149C36.7082 17.4471 39.0008 15.8911 41.4533 15.8911V12.8911C37.6221 12.8911 34.5083 15.3183 32.4757 18.4997L35.0038 20.1149ZM32.2365 30.6C32.2365 26.4809 33.3041 22.7753 35.0038 20.1149L32.4757 18.4997C30.4238 21.7114 29.2365 25.9964 29.2365 30.6H32.2365ZM35.0038 41.0852C33.3041 38.4248 32.2365 34.7192 32.2365 30.6H29.2365C29.2365 35.2037 30.4238 39.4886 32.4757 42.7004L35.0038 41.0852ZM41.4533 45.309C39.0008 45.309 36.7082 43.753 35.0038 41.0852L32.4757 42.7004C34.5083 45.8818 37.6221 48.309 41.4533 48.309V45.309ZM47.9028 41.0852C46.1984 43.753 43.9058 45.309 41.4533 45.309V48.309C45.2845 48.309 48.3983 45.8818 50.4309 42.7004L47.9028 41.0852ZM50.6702 30.6C50.6702 34.7192 49.6025 38.4248 47.9028 41.0852L50.4309 42.7004C52.4828 39.4886 53.6702 35.2037 53.6702 30.6H50.6702ZM47.9028 20.1149C49.6025 22.7753 50.6702 26.4809 50.6702 30.6H53.6702C53.6702 25.9964 52.4828 21.7114 50.4309 18.4997L47.9028 20.1149ZM41.4533 15.8911C43.9058 15.8911 46.1984 17.4471 47.9028 20.1149L50.4309 18.4997C48.3983 15.3183 45.2845 12.8911 41.4533 12.8911V15.8911Z" fill="#F8F9FA" mask="url(#path-1-outside-1_50_3800)"/>
<ellipse cx="17.7298" cy="30.6" rx="9.71686" ry="15.2089" fill="#D0EBFF" stroke="#212529" stroke-width="2" stroke-linecap="round" stroke-linejoin="round"/>
<g style="mix-blend-mode:multiply">
<path fill-rule="evenodd" clip-rule="evenodd" d="M15.8974 45.1057C21.2638 45.1057 25.6142 38.2965 25.6142 29.8968C25.6142 24.4169 23.7626 19.614 20.9853 16.937C24.7506 19.0322 27.4466 24.659 27.4466 31.2713C27.4466 39.671 23.0962 46.4803 17.7298 46.4803C15.8643 46.4803 14.1217 45.6575 12.6418 44.2311C13.6596 44.7974 14.7555 45.1057 15.8974 45.1057Z" fill="#D0EBFF"/>
</g>
<circle cx="15.5291" cy="30.5998" r="4.05002" fill="#F8F9FA" stroke="#212529" stroke-width="1.6" stroke-linecap="round"/>
<circle cx="14.4203" cy="30.6" r="1.10881" fill="#212529"/>
<ellipse cx="41.4662" cy="30.6" rx="9.71686" ry="15.2089" fill="#D0EBFF" stroke="#212529" stroke-width="2" stroke-linecap="round" stroke-linejoin="round"/>
<circle cx="39.2655" cy="30.5998" r="4.05002" fill="#F8F9FA" stroke="#212529" stroke-width="1.6" stroke-linecap="round"/>
<circle cx="38.1567" cy="30.6" r="1.10881" fill="#212529"/>
<g style="mix-blend-mode:multiply">
<path fill-rule="evenodd" clip-rule="evenodd" d="M39.6338 45.1057C45.0003 45.1057 49.3507 38.2965 49.3507 29.8968C49.3507 24.417 47.4991 19.614 44.7217 16.937C48.4871 19.0322 51.1831 24.659 51.1831 31.2713C51.1831 39.671 46.8327 46.4803 41.4662 46.4803C39.6008 46.4803 37.8581 45.6575 36.3783 44.2311C37.3961 44.7975 38.4919 45.1057 39.6338 45.1057Z" fill="#D0EBFF"/>
</g>
<g style="mix-blend-mode:soft-light" opacity="0.8">
<path d="M14.3225 21.306C14.7886 20.6692 14.0532 20.2309 13.4583 20.4619C12.9594 20.6557 11.8648 22.0414 11.4021 23.3475C10.9395 24.6537 11.9779 25.0494 12.2859 24.5571C12.5939 24.0648 13.7398 22.102 14.3225 21.306Z" fill="#F8F9FA"/>
</g>
<g style="mix-blend-mode:soft-light" opacity="0.8">
<path d="M38.3782 21.306C38.8444 20.6692 38.109 20.2309 37.5141 20.4619C37.0152 20.6557 35.9206 22.0414 35.4579 23.3475C34.9952 24.6537 36.0336 25.0494 36.3417 24.5571C36.6497 24.0648 37.7956 22.102 38.3782 21.306Z" fill="#F8F9FA"/>
</g>
</svg>
