<svg width="60" height="60" viewBox="0 0 60 60" fill="none" xmlns="http://www.w3.org/2000/svg">
<mask id="path-1-outside-1_50_516" maskUnits="userSpaceOnUse" x="6.95691" y="7.44128" width="46" height="46" fill="black">
<rect fill="white" x="6.95691" y="7.44128" width="46" height="46"/>
<path fill-rule="evenodd" clip-rule="evenodd" d="M25.5515 23.2185C25.5515 16.6413 30.7776 11.3095 37.2243 11.3095C43.6709 11.3095 48.897 16.6413 48.897 23.2185C48.897 29.7956 43.6709 35.1274 37.2243 35.1274C30.7776 35.1274 25.5515 29.7956 25.5515 23.2185ZM37.2243 9.44129C29.7663 9.44129 23.7204 15.6095 23.7204 23.2185C23.7204 26.322 24.7262 29.1859 26.4235 31.4892L24.4636 33.4888L23.9299 32.9435C23.5892 32.5954 23.0424 32.5765 22.6794 32.9002L10.5099 43.7533C8.55489 45.4967 8.42766 48.5544 10.2308 50.4607C12.017 52.3491 14.9823 52.3489 16.7683 50.4604L28.0887 38.4902C28.4352 38.1238 28.4303 37.5418 28.0777 37.1816L27.7849 36.8824L29.8581 34.7673C31.9765 36.1766 34.5066 36.9956 37.2243 36.9956C44.6823 36.9956 50.7281 30.8274 50.7281 23.2185C50.7281 15.6095 44.6823 9.44129 37.2243 9.44129ZM27.0788 32.9343L25.6718 34.3698L26.9239 35.6472L28.3309 34.2117L27.0788 32.9343ZM26.1469 37.8528L15.4505 49.1632C14.3845 50.2904 12.6146 50.2905 11.5484 49.1633C10.4722 48.0256 10.5481 46.2005 11.715 45.1598L23.2395 34.8821L26.1469 37.8528Z"/>
</mask>
<path fill-rule="evenodd" clip-rule="evenodd" d="M25.5515 23.2185C25.5515 16.6413 30.7776 11.3095 37.2243 11.3095C43.6709 11.3095 48.897 16.6413 48.897 23.2185C48.897 29.7956 43.6709 35.1274 37.2243 35.1274C30.7776 35.1274 25.5515 29.7956 25.5515 23.2185ZM37.2243 9.44129C29.7663 9.44129 23.7204 15.6095 23.7204 23.2185C23.7204 26.322 24.7262 29.1859 26.4235 31.4892L24.4636 33.4888L23.9299 32.9435C23.5892 32.5954 23.0424 32.5765 22.6794 32.9002L10.5099 43.7533C8.55489 45.4967 8.42766 48.5544 10.2308 50.4607C12.017 52.3491 14.9823 52.3489 16.7683 50.4604L28.0887 38.4902C28.4352 38.1238 28.4303 37.5418 28.0777 37.1816L27.7849 36.8824L29.8581 34.7673C31.9765 36.1766 34.5066 36.9956 37.2243 36.9956C44.6823 36.9956 50.7281 30.8274 50.7281 23.2185C50.7281 15.6095 44.6823 9.44129 37.2243 9.44129ZM27.0788 32.9343L25.6718 34.3698L26.9239 35.6472L28.3309 34.2117L27.0788 32.9343ZM26.1469 37.8528L15.4505 49.1632C14.3845 50.2904 12.6146 50.2905 11.5484 49.1633C10.4722 48.0256 10.5481 46.2005 11.715 45.1598L23.2395 34.8821L26.1469 37.8528Z" fill="#F8F9FA"/>
<path d="M26.4234 31.4892L27.4947 32.5392C28.0098 32.0136 28.0676 31.1919 27.631 30.5994L26.4234 31.4892ZM24.4636 33.4888L23.3915 34.538C23.6736 34.8261 24.0598 34.9886 24.463 34.9888C24.8662 34.9889 25.2525 34.8267 25.5348 34.5388L24.4636 33.4888ZM23.9299 32.9435L22.8578 33.9926L22.8578 33.9926L23.9299 32.9435ZM22.6794 32.9002L21.681 31.7807L21.681 31.7807L22.6794 32.9002ZM10.5098 43.7533L11.5082 44.8727L11.5082 44.8727L10.5098 43.7533ZM10.2308 50.4607L11.3205 49.4299L11.3205 49.4299L10.2308 50.4607ZM16.7683 50.4603L15.6785 49.4297L15.6785 49.4297L16.7683 50.4603ZM28.0887 38.4902L29.1785 39.5209L29.1785 39.5209L28.0887 38.4902ZM28.0777 37.1816L29.1497 36.1324L29.1497 36.1324L28.0777 37.1816ZM27.7849 36.8824L26.7137 35.8325C26.1423 36.4154 26.142 37.3482 26.7129 37.9316L27.7849 36.8824ZM29.8581 34.7673L30.6889 33.5184C30.0894 33.1196 29.2909 33.203 28.7869 33.7173L29.8581 34.7673ZM25.6718 34.3697L24.6006 33.3198C24.0289 33.903 24.0289 34.8365 24.6006 35.4197L25.6718 34.3697ZM27.0788 32.9343L28.15 31.8843C27.8679 31.5965 27.4818 31.4343 27.0788 31.4343C26.6758 31.4343 26.2897 31.5965 26.0076 31.8843L27.0788 32.9343ZM26.9239 35.6472L25.8527 36.6972C26.1348 36.985 26.5209 37.1472 26.9239 37.1472C27.3269 37.1472 27.713 36.985 27.9951 36.6972L26.9239 35.6472ZM28.3309 34.2117L29.4022 35.2617C29.9738 34.6785 29.9738 33.745 29.4022 33.1618L28.3309 34.2117ZM15.4505 49.1632L16.5404 50.1938L16.5404 50.1938L15.4505 49.1632ZM26.1469 37.8528L27.2367 38.8835C27.7905 38.298 27.7826 37.3796 27.2189 36.8036L26.1469 37.8528ZM11.5484 49.1633L10.4587 50.1941L10.4587 50.1941L11.5484 49.1633ZM11.715 45.1598L10.7166 44.0404L10.7166 44.0404L11.715 45.1598ZM23.2395 34.8821L24.3115 33.8329C23.7509 33.2602 22.8392 33.2292 22.2411 33.7626L23.2395 34.8821ZM37.2243 9.80951C29.921 9.80951 24.0515 15.8414 24.0515 23.2185H27.0515C27.0515 17.4413 31.6342 12.8095 37.2243 12.8095V9.80951ZM50.397 23.2185C50.397 15.8414 44.5275 9.80951 37.2243 9.80951V12.8095C42.8143 12.8095 47.397 17.4413 47.397 23.2185H50.397ZM37.2243 36.6274C44.5275 36.6274 50.397 30.5955 50.397 23.2185H47.397C47.397 28.9956 42.8143 33.6274 37.2243 33.6274V36.6274ZM24.0515 23.2185C24.0515 30.5955 29.921 36.6274 37.2243 36.6274V33.6274C31.6342 33.6274 27.0515 28.9956 27.0515 23.2185H24.0515ZM25.2204 23.2185C25.2204 16.4095 30.6229 10.9413 37.2243 10.9413V7.94128C28.9096 7.94128 22.2204 14.8096 22.2204 23.2185H25.2204ZM27.631 30.5994C26.1187 28.547 25.2204 25.9934 25.2204 23.2185H22.2204C22.2204 26.6506 23.3337 29.8247 25.2159 32.379L27.631 30.5994ZM25.3522 30.4392L23.3923 32.4388L25.5348 34.5388L27.4947 32.5392L25.3522 30.4392ZM25.5356 32.4396L25.0019 31.8943L22.8578 33.9926L23.3915 34.538L25.5356 32.4396ZM25.0019 31.8943C24.1019 30.9748 22.6434 30.9224 21.681 31.7807L23.6778 34.0197C23.4413 34.2306 23.0765 34.2161 22.8578 33.9926L25.0019 31.8943ZM21.681 31.7807L9.51147 42.6338L11.5082 44.8727L23.6778 34.0197L21.681 31.7807ZM9.51147 42.6338C6.9235 44.9418 6.75853 48.9726 9.14102 51.4914L11.3205 49.4299C10.0968 48.1362 10.1863 46.0517 11.5082 44.8727L9.51147 42.6338ZM9.14102 51.4914C11.5191 54.0055 15.4803 54.0053 17.8581 51.491L15.6785 49.4297C14.4842 50.6925 12.5149 50.6926 11.3205 49.4299L9.14102 51.4914ZM17.8581 51.491L29.1785 39.5209L26.9988 37.4595L15.6785 49.4297L17.8581 51.491ZM29.1785 39.5209C30.0784 38.5693 30.0663 37.0689 29.1497 36.1324L27.0057 38.2308C26.7943 38.0147 26.7919 37.6783 26.9988 37.4595L29.1785 39.5209ZM29.1497 36.1324L28.8569 35.8333L26.7129 37.9316L27.0057 38.2308L29.1497 36.1324ZM28.8562 37.9324L30.9293 35.8173L28.7869 33.7173L26.7137 35.8325L28.8562 37.9324ZM37.2243 35.4956C34.813 35.4956 32.5703 34.77 30.6889 33.5184L29.0273 36.0162C31.3827 37.5832 34.2002 38.4956 37.2243 38.4956V35.4956ZM49.2281 23.2185C49.2281 30.0274 43.8256 35.4956 37.2243 35.4956V38.4956C45.5389 38.4956 52.2281 31.6273 52.2281 23.2185H49.2281ZM37.2243 10.9413C43.8256 10.9413 49.2281 16.4095 49.2281 23.2185H52.2281C52.2281 14.8096 45.5389 7.94128 37.2243 7.94128V10.9413ZM26.743 35.4197L28.15 33.9843L26.0076 31.8843L24.6006 33.3198L26.743 35.4197ZM27.9951 34.5972L26.743 33.3198L24.6006 35.4197L25.8527 36.6972L27.9951 34.5972ZM27.2597 33.1618L25.8527 34.5972L27.9951 36.6972L29.4022 35.2617L27.2597 33.1618ZM26.0076 33.9843L27.2597 35.2617L29.4022 33.1618L28.15 31.8843L26.0076 33.9843ZM16.5404 50.1938L27.2367 38.8835L25.0571 36.8221L14.3607 48.1325L16.5404 50.1938ZM10.4587 50.1941C12.1167 51.9469 14.8825 51.9468 16.5404 50.1938L14.3607 48.1325C13.8864 48.634 13.1125 48.634 12.6381 48.1326L10.4587 50.1941ZM10.7166 44.0404C8.91674 45.6455 8.80306 48.4438 10.4587 50.1941L12.6381 48.1326C12.1413 47.6073 12.1795 46.7554 12.7134 46.2793L10.7166 44.0404ZM22.2411 33.7626L10.7166 44.0404L12.7134 46.2793L24.2378 36.0016L22.2411 33.7626ZM27.2189 36.8036L24.3115 33.8329L22.1674 35.9313L25.0749 38.902L27.2189 36.8036Z" fill="#F8F9FA" mask="url(#path-1-outside-1_50_516)"/>
<path d="M27.4043 37.8445L23.2565 33.6064L11.087 44.4594C9.52604 45.8515 9.42445 48.2929 10.8641 49.8149V49.8149C12.2903 51.3227 14.6579 51.3225 16.084 49.8146L27.4043 37.8445Z" fill="#495057" stroke="#212529" stroke-width="2" stroke-linejoin="round"/>
<g style="mix-blend-mode:multiply">
<path fill-rule="evenodd" clip-rule="evenodd" d="M9.2152 48.2792C9.38242 48.7668 9.6532 49.2267 10.029 49.624C11.4552 51.1317 13.8228 51.1316 15.2488 49.6237L26.5692 37.6536L25.6427 36.7069L14.5636 48.422C13.1376 49.9299 10.7699 49.93 9.34375 48.4223C9.29944 48.3754 9.25659 48.3277 9.2152 48.2792Z" fill="#CED4DA"/>
</g>
<rect width="3.26862" height="3.48987" transform="matrix(0.699988 0.714154 -0.699988 0.714154 27.0533 31.8803)" fill="#868E96" stroke="#212529" stroke-width="1.6" stroke-linejoin="round"/>
<ellipse cx="37.1989" cy="23.2213" rx="12.5883" ry="12.8431" fill="#BAC8FF" stroke="#212529" stroke-width="2" stroke-linejoin="round"/>
<g style="mix-blend-mode:multiply">
<path fill-rule="evenodd" clip-rule="evenodd" d="M35.7229 34.1722C42.6752 34.1722 48.3112 28.4222 48.3112 21.3291C48.3112 18.9651 47.6852 16.7503 46.593 14.8477C48.3325 17.0503 49.3738 19.851 49.3738 22.8998C49.3738 29.9929 43.7378 35.7429 36.7855 35.7429C32.1503 35.7429 28.1002 33.187 25.9154 29.3812C28.2229 32.3029 31.7589 34.1722 35.7229 34.1722Z" fill="#DEE2E6"/>
</g>
<g style="mix-blend-mode:soft-light" opacity="0.6">
<path fill-rule="evenodd" clip-rule="evenodd" d="M29.0193 20.7705C28.5164 20.6909 28.1815 20.2173 28.2711 19.7128C28.4944 18.4562 29.2463 16.9 30.4356 15.5444C31.636 14.1762 33.3321 12.9555 35.4881 12.459C35.9879 12.3439 36.4784 12.654 36.5835 13.1517C36.6886 13.6493 36.3686 14.1461 35.8687 14.2612C34.1693 14.6526 32.8053 15.6203 31.8154 16.7486C30.8144 17.8895 30.2456 19.1378 30.0922 20.0009C30.0025 20.5055 29.5222 20.85 29.0193 20.7705Z" fill="#F8F9FA"/>
</g>
</svg>
