<svg width="60" height="61" viewBox="0 0 60 61" fill="none" xmlns="http://www.w3.org/2000/svg">
<mask id="path-1-outside-1_50_4205" maskUnits="userSpaceOnUse" x="7.22339" y="12.2324" width="46" height="38" fill="black">
<rect fill="white" x="7.22339" y="12.2324" width="46" height="38"/>
<path fill-rule="evenodd" clip-rule="evenodd" d="M24.1695 14.4394L36.7269 22.0811L49.4088 14.3637C49.6867 14.1946 50.0341 14.1886 50.3177 14.3479C50.6012 14.5073 50.7767 14.8072 50.7767 15.1325V40.0803C50.7767 40.4088 50.5977 40.7112 50.3097 40.8692L37.16 48.0869C36.8903 48.2349 36.5636 48.2349 36.2939 48.0869L23.5808 41.109L10.5484 48.0911C10.2695 48.2406 9.93257 48.2326 9.66107 48.07C9.38957 47.9074 9.22339 47.6143 9.22339 47.2978V23.1345C9.22339 22.817 9.39074 22.5229 9.66377 22.3607L23.012 14.4321C23.0506 14.4009 23.0921 14.3727 23.1362 14.3479C23.2749 14.27 23.4288 14.2316 23.5824 14.2325C23.7402 14.2303 23.8985 14.2694 24.0404 14.3502C24.0864 14.3764 24.1296 14.4063 24.1695 14.4394ZM23.5804 16.188L11.0234 23.6467V45.7946L23.161 39.2918C23.4294 39.1481 23.7522 39.1497 24.0191 39.2962L36.7269 46.2712L48.9767 39.5476V16.7337L37.1948 23.9034C36.9074 24.0783 36.5465 24.0783 36.2591 23.9034L23.5804 16.188Z"/>
</mask>
<path fill-rule="evenodd" clip-rule="evenodd" d="M24.1695 14.4394L36.7269 22.0811L49.4088 14.3637C49.6867 14.1946 50.0341 14.1886 50.3177 14.3479C50.6012 14.5073 50.7767 14.8072 50.7767 15.1325V40.0803C50.7767 40.4088 50.5977 40.7112 50.3097 40.8692L37.16 48.0869C36.8903 48.2349 36.5636 48.2349 36.2939 48.0869L23.5808 41.109L10.5484 48.0911C10.2695 48.2406 9.93257 48.2326 9.66107 48.07C9.38957 47.9074 9.22339 47.6143 9.22339 47.2978V23.1345C9.22339 22.817 9.39074 22.5229 9.66377 22.3607L23.012 14.4321C23.0506 14.4009 23.0921 14.3727 23.1362 14.3479C23.2749 14.27 23.4288 14.2316 23.5824 14.2325C23.7402 14.2303 23.8985 14.2694 24.0404 14.3502C24.0864 14.3764 24.1296 14.4063 24.1695 14.4394ZM23.5804 16.188L11.0234 23.6467V45.7946L23.161 39.2918C23.4294 39.1481 23.7522 39.1497 24.0191 39.2962L36.7269 46.2712L48.9767 39.5476V16.7337L37.1948 23.9034C36.9074 24.0783 36.5465 24.0783 36.2591 23.9034L23.5804 16.188Z" fill="#F8F9FA"/>
<path d="M36.7269 22.0811L35.9472 23.3625C36.4261 23.6539 37.0277 23.6539 37.5067 23.3625L36.7269 22.0811ZM24.1695 14.4394L23.2125 15.5945C23.2685 15.6408 23.3277 15.683 23.3897 15.7208L24.1695 14.4394ZM49.4088 14.3637L50.1886 15.6451L50.1886 15.6451L49.4088 14.3637ZM50.3177 14.3479L51.0526 13.0403L51.0526 13.0403L50.3177 14.3479ZM50.3097 40.8692L51.0315 42.1842L51.0315 42.1842L50.3097 40.8692ZM37.16 48.0869L36.4382 46.7719L36.4382 46.7719L37.16 48.0869ZM36.2939 48.0869L37.0156 46.7719L37.0156 46.7719L36.2939 48.0869ZM23.5808 41.109L24.3026 39.794C23.8578 39.5499 23.3197 39.5471 22.8725 39.7868L23.5808 41.109ZM10.5484 48.0911L11.2568 49.4133L11.2568 49.4133L10.5484 48.0911ZM9.66107 48.07L8.89053 49.357L8.89053 49.357L9.66107 48.07ZM9.66377 22.3607L8.89773 21.0711L8.89773 21.0711L9.66377 22.3607ZM23.012 14.4321L23.778 15.7217C23.8395 15.6852 23.8982 15.6444 23.9538 15.5995L23.012 14.4321ZM23.1362 14.3479L23.8712 15.6555L23.8712 15.6555L23.1362 14.3479ZM23.5824 14.2325L23.5737 15.7325C23.5837 15.7325 23.5938 15.7325 23.6038 15.7324L23.5824 14.2325ZM24.0404 14.3502L23.2985 15.6539L23.2985 15.6539L24.0404 14.3502ZM11.0234 23.6467L10.2574 22.3571C9.80231 22.6274 9.52339 23.1175 9.52339 23.6467H11.0234ZM23.5804 16.188L24.3602 14.9066C23.8861 14.6181 23.2915 14.615 22.8144 14.8984L23.5804 16.188ZM11.0234 45.7946H9.52339C9.52339 46.322 9.80036 46.8107 10.2529 47.0816C10.7054 47.3525 11.2669 47.3659 11.7318 47.1168L11.0234 45.7946ZM23.161 39.2918L23.8694 40.614L23.8694 40.614L23.161 39.2918ZM24.0191 39.2962L23.2973 40.6111L23.2973 40.6111L24.0191 39.2962ZM36.7269 46.2712L36.0052 47.5862C36.4547 47.8329 36.9991 47.8329 37.4487 47.5862L36.7269 46.2712ZM48.9767 39.5476L49.6984 40.8626C50.1784 40.5991 50.4767 40.0951 50.4767 39.5476H48.9767ZM48.9767 16.7337H50.4767C50.4767 16.1916 50.1842 15.6917 49.7117 15.4261C49.2391 15.1605 48.66 15.1705 48.1969 15.4523L48.9767 16.7337ZM37.1948 23.9034L36.415 22.6221L36.415 22.6221L37.1948 23.9034ZM36.2591 23.9034L37.0388 22.6221L37.0388 22.6221L36.2591 23.9034ZM37.5067 20.7997L24.9493 13.158L23.3897 15.7208L35.9472 23.3625L37.5067 20.7997ZM48.6291 13.0823L35.9472 20.7997L37.5067 23.3625L50.1886 15.6451L48.6291 13.0823ZM51.0526 13.0403C50.2965 12.6154 49.37 12.6314 48.6291 13.0823L50.1886 15.6451C50.0034 15.7578 49.7717 15.7618 49.5827 15.6555L51.0526 13.0403ZM52.2767 15.1325C52.2767 14.2652 51.8087 13.4653 51.0526 13.0403L49.5827 15.6555C49.3937 15.5493 49.2767 15.3493 49.2767 15.1325H52.2767ZM52.2767 40.0803V15.1325H49.2767V40.0803H52.2767ZM51.0315 42.1842C51.7994 41.7627 52.2767 40.9563 52.2767 40.0803H49.2767C49.2767 39.8613 49.396 39.6597 49.588 39.5543L51.0315 42.1842ZM37.8817 49.4018L51.0315 42.1842L49.588 39.5543L36.4382 46.7719L37.8817 49.4018ZM35.5721 49.4018C36.2914 49.7966 37.1625 49.7966 37.8817 49.4018L36.4382 46.7719C36.618 46.6732 36.8358 46.6732 37.0156 46.7719L35.5721 49.4018ZM22.8591 42.4239L35.5721 49.4018L37.0156 46.7719L24.3026 39.794L22.8591 42.4239ZM11.2568 49.4133L24.2892 42.4311L22.8725 39.7868L9.84004 46.7689L11.2568 49.4133ZM8.89053 49.357C9.61453 49.7904 10.513 49.8118 11.2568 49.4133L9.84004 46.7689C10.026 46.6693 10.2506 46.6747 10.4316 46.783L8.89053 49.357ZM7.72339 47.2978C7.72339 48.1417 8.16655 48.9235 8.89053 49.357L10.4316 46.783C10.6126 46.8914 10.7234 47.0869 10.7234 47.2978H7.72339ZM7.72339 23.1345V47.2978H10.7234V23.1345H7.72339ZM8.89773 21.0711C8.16966 21.5036 7.72339 22.2877 7.72339 23.1345H10.7234C10.7234 23.3462 10.6118 23.5423 10.4298 23.6504L8.89773 21.0711ZM22.2459 13.1424L8.89773 21.0711L10.4298 23.6504L23.778 15.7217L22.2459 13.1424ZM22.4012 13.0403C22.2839 13.1063 22.1732 13.1815 22.0701 13.2647L23.9538 15.5995C23.928 15.6204 23.9003 15.6392 23.8712 15.6555L22.4012 13.0403ZM23.5912 12.7325C23.1818 12.7302 22.7709 12.8325 22.4012 13.0403L23.8712 15.6555C23.7788 15.7075 23.6758 15.7331 23.5737 15.7325L23.5912 12.7325ZM24.7824 13.0466C24.4039 12.8312 23.9814 12.7267 23.561 12.7327L23.6038 15.7324C23.4989 15.7339 23.3931 15.7077 23.2985 15.6539L24.7824 13.0466ZM25.1265 13.2843C25.0198 13.1959 24.9048 13.1162 24.7824 13.0466L23.2985 15.6539C23.2681 15.6366 23.2393 15.6167 23.2125 15.5945L25.1265 13.2843ZM11.7894 24.9364L24.3465 17.4777L22.8144 14.8984L10.2574 22.3571L11.7894 24.9364ZM12.5234 45.7946V23.6467H9.52339V45.7946H12.5234ZM22.4526 37.9696L10.315 44.4724L11.7318 47.1168L23.8694 40.614L22.4526 37.9696ZM24.7408 37.9812C24.0292 37.5906 23.1682 37.5862 22.4526 37.9696L23.8694 40.614C23.6905 40.7099 23.4753 40.7088 23.2973 40.6111L24.7408 37.9812ZM37.4487 44.9563L24.7408 37.9812L23.2973 40.6111L36.0052 47.5862L37.4487 44.9563ZM48.2549 38.2327L36.0052 44.9563L37.4487 47.5862L49.6984 40.8626L48.2549 38.2327ZM47.4767 16.7337V39.5476H50.4767V16.7337H47.4767ZM37.9746 25.1848L49.7565 18.0151L48.1969 15.4523L36.415 22.6221L37.9746 25.1848ZM35.4793 25.1848C36.2457 25.6512 37.2082 25.6512 37.9746 25.1848L36.415 22.6221C36.6066 22.5055 36.8472 22.5055 37.0388 22.6221L35.4793 25.1848ZM22.8007 17.4694L35.4793 25.1848L37.0388 22.6221L24.3602 14.9066L22.8007 17.4694Z" fill="#F8F9FA" mask="url(#path-1-outside-1_50_4205)"/>
<path fill-rule="evenodd" clip-rule="evenodd" d="M23.5861 15.1383L23.5953 15.1328V15.1439L36.727 23.135L49.8767 15.1329V40.0807L36.727 47.2983L23.5861 40.0855L10.1234 47.2982V23.1349L23.5772 15.1435V15.1329L23.5861 15.1383Z" fill="#FFF3BF"/>
<path d="M23.5953 15.1328H24.4953C24.4953 14.8093 24.3216 14.5106 24.0404 14.3506C23.7593 14.1906 23.4138 14.1938 23.1357 14.359L23.5953 15.1328ZM23.5861 15.1383L23.1182 15.9071C23.4026 16.0802 23.7594 16.0821 24.0457 15.9121L23.5861 15.1383ZM23.5953 15.1439H22.6953C22.6953 15.458 22.8591 15.7494 23.1274 15.9127L23.5953 15.1439ZM36.727 23.135L36.2591 23.9038C36.5465 24.0787 36.9074 24.0787 37.1948 23.9038L36.727 23.135ZM49.8767 15.1329H50.7767C50.7767 14.8076 50.6012 14.5077 50.3177 14.3483C50.0342 14.189 49.6867 14.195 49.4088 14.3641L49.8767 15.1329ZM49.8767 40.0807L50.3098 40.8696C50.5977 40.7116 50.7767 40.4092 50.7767 40.0807H49.8767ZM36.727 47.2983L36.2939 48.0873C36.5636 48.2353 36.8903 48.2353 37.16 48.0873L36.727 47.2983ZM23.5861 40.0855L24.0191 39.2966C23.7522 39.1501 23.4294 39.1484 23.161 39.2922L23.5861 40.0855ZM10.1234 47.2982H9.22341C9.22341 47.6146 9.3896 47.9078 9.66109 48.0704C9.93259 48.2329 10.2695 48.241 10.5484 48.0915L10.1234 47.2982ZM10.1234 23.1349L9.66379 22.3611C9.39077 22.5233 9.22341 22.8174 9.22341 23.1349H10.1234ZM23.5772 15.1435L24.0368 15.9173C24.3098 15.7552 24.4772 15.4611 24.4772 15.1435H23.5772ZM23.5772 15.1329L24.0451 14.3641C23.7672 14.195 23.4198 14.189 23.1362 14.3483C22.8527 14.5077 22.6772 14.8076 22.6772 15.1329H23.5772ZM23.1357 14.359L23.1265 14.3645L24.0457 15.9121L24.0549 15.9066L23.1357 14.359ZM24.4953 15.1439V15.1328H22.6953V15.1439H24.4953ZM37.1948 22.3662L24.0631 14.3751L23.1274 15.9127L36.2591 23.9038L37.1948 22.3662ZM49.4088 14.3641L36.2591 22.3662L37.1948 23.9038L50.3446 15.9017L49.4088 14.3641ZM50.7767 40.0807V15.1329H48.9767V40.0807H50.7767ZM37.16 48.0873L50.3098 40.8696L49.4437 39.2917L36.2939 46.5093L37.16 48.0873ZM23.153 40.8745L36.2939 48.0873L37.16 46.5093L24.0191 39.2966L23.153 40.8745ZM10.5484 48.0915L24.0111 40.8789L23.161 39.2922L9.69839 46.5049L10.5484 48.0915ZM9.22341 23.1349V47.2982H11.0234V23.1349H9.22341ZM23.1176 14.3698L9.66379 22.3611L10.583 23.9087L24.0368 15.9173L23.1176 14.3698ZM22.6772 15.1329V15.1435H24.4772V15.1329H22.6772ZM24.0539 14.3695L24.0451 14.3641L23.1093 15.9017L23.1182 15.9071L24.0539 14.3695Z" fill="#212529"/>
<path d="M15.9788 34.4177C18.2193 33.1206 20.9443 28.2886 30.3062 32.472C39.6681 36.6555 42.7818 33.0522 45.435 30.3989" stroke="#212529" stroke-linecap="round" stroke-linejoin="round" stroke-dasharray="2 2"/>
<path d="M23.7306 15.4814L23.7306 39.6341" stroke="#212529" stroke-width="1.4" stroke-linejoin="round"/>
<path d="M36.7004 23.2705L36.7004 47.298" stroke="#212529" stroke-width="1.4" stroke-linejoin="round"/>
<path d="M18.7521 26.8066C18.7521 28.2915 16.9838 29.3928 16.9838 29.3928C16.9838 29.3928 15.2156 28.4696 15.2156 26.8066C15.2156 25.8126 16.0072 25.0068 16.9838 25.0068C17.9604 25.0068 18.7521 25.8126 18.7521 26.8066Z" fill="#FA5252"/>
<path d="M40.6954 37.1792L42.8486 39.248" stroke="#212529" stroke-linecap="round" stroke-linejoin="round"/>
<path d="M42.8486 37.2637L40.6955 39.3325" stroke="#212529" stroke-linecap="round" stroke-linejoin="round"/>
<g style="mix-blend-mode:multiply">
<path d="M28.8078 26.7233C24.3428 26.092 19.4476 29.967 17.5582 31.9834C17.2965 32.5971 17.1396 33.8245 18.6046 33.8245C20.436 33.8245 21.4824 31.9834 25.5811 31.9834C29.6798 31.9834 28.1973 39.3475 36.8307 36.5421C45.4642 33.7368 45.4642 24.6194 39.883 26.7233C34.3018 28.8272 34.389 27.5124 28.8078 26.7233Z" fill="#FFEC99"/>
</g>
<g style="mix-blend-mode:multiply">
<path d="M14.4587 38.1996C15.4311 36.7786 12.7853 35.6733 10.9622 35.4707V42.8569C11.9012 39.3407 13.2433 39.976 14.4587 38.1996Z" fill="#FFEC99"/>
</g>
<g style="mix-blend-mode:multiply">
<path d="M46.4213 23.1933C45.6943 22.1307 47.6725 21.3043 49.0358 21.1528V26.6756C48.3336 24.0465 47.3301 24.5215 46.4213 23.1933Z" fill="#FFEC99"/>
</g>
<g style="mix-blend-mode:multiply">
<path d="M36.1759 23.5531L24.282 16.2104L24.282 39.558L36.1759 46.0059V23.5531Z" fill="#FFF3BF"/>
</g>
</svg>
