<svg width="60" height="60" viewBox="0 0 60 60" fill="none" xmlns="http://www.w3.org/2000/svg">
<mask id="path-1-outside-1_50_7233" maskUnits="userSpaceOnUse" x="8.00586" y="9.13867" width="47" height="46" fill="black">
<rect fill="white" x="8.00586" y="9.13867" width="47" height="46"/>
<path fill-rule="evenodd" clip-rule="evenodd" d="M11.7059 11.1387C10.767 11.1387 10.0059 11.8998 10.0059 12.8387V41.6854C10.0059 42.6243 10.767 43.3854 11.7059 43.3854H19.9217C20.5974 44.9015 21.4731 46.2913 22.5509 47.5137C25.4749 50.8299 29.8283 52.8467 35.5143 52.8467C41.2004 52.8467 45.5538 50.8299 48.4778 47.5137C51.3907 44.2101 52.8279 39.6828 52.8279 34.7479C52.8279 29.816 51.4165 25.2883 48.5151 21.9833C47.1851 20.4683 45.5545 19.2247 43.6294 18.3206V12.8387C43.6294 11.8998 42.8683 11.1387 41.9294 11.1387H11.7059ZM42.2294 17.7424V12.8387C42.2294 12.673 42.0951 12.5387 41.9294 12.5387H11.7059C11.5402 12.5387 11.4059 12.673 11.4059 12.8387V41.6854C11.4059 41.8511 11.5402 41.9854 11.7059 41.9854H19.3666C18.5876 39.7586 18.2008 37.3081 18.2008 34.7479C18.2008 29.816 19.6122 25.2883 22.5136 21.9833C25.4266 18.665 29.7814 16.6492 35.5143 16.6492C38.0171 16.6492 40.2573 17.0334 42.2294 17.7424ZM20.8574 41.9854C20.0244 39.8076 19.6008 37.3559 19.6008 34.7479C19.6008 30.0708 20.9389 25.8991 23.5657 22.907C26.1807 19.9281 30.1327 18.0492 35.5143 18.0492C38.0724 18.0492 40.3074 18.4737 42.2294 19.2391V41.6854C42.2294 41.8511 42.0951 41.9854 41.9294 41.9854H20.8574ZM21.4682 43.3854H41.9294C42.8683 43.3854 43.6294 42.6243 43.6294 41.6854V19.8848C45.1299 20.6781 46.4057 21.7026 47.463 22.907C50.0897 25.8991 51.4279 30.0708 51.4279 34.7479C51.4279 39.4222 50.0671 43.5943 47.4277 46.5878C44.7994 49.5687 40.846 51.4467 35.5143 51.4467C30.1827 51.4467 26.2293 49.5687 23.601 46.5878C22.7591 45.6329 22.0472 44.5582 21.4682 43.3854Z"/>
</mask>
<path fill-rule="evenodd" clip-rule="evenodd" d="M11.7059 11.1387C10.767 11.1387 10.0059 11.8998 10.0059 12.8387V41.6854C10.0059 42.6243 10.767 43.3854 11.7059 43.3854H19.9217C20.5974 44.9015 21.4731 46.2913 22.5509 47.5137C25.4749 50.8299 29.8283 52.8467 35.5143 52.8467C41.2004 52.8467 45.5538 50.8299 48.4778 47.5137C51.3907 44.2101 52.8279 39.6828 52.8279 34.7479C52.8279 29.816 51.4165 25.2883 48.5151 21.9833C47.1851 20.4683 45.5545 19.2247 43.6294 18.3206V12.8387C43.6294 11.8998 42.8683 11.1387 41.9294 11.1387H11.7059ZM42.2294 17.7424V12.8387C42.2294 12.673 42.0951 12.5387 41.9294 12.5387H11.7059C11.5402 12.5387 11.4059 12.673 11.4059 12.8387V41.6854C11.4059 41.8511 11.5402 41.9854 11.7059 41.9854H19.3666C18.5876 39.7586 18.2008 37.3081 18.2008 34.7479C18.2008 29.816 19.6122 25.2883 22.5136 21.9833C25.4266 18.665 29.7814 16.6492 35.5143 16.6492C38.0171 16.6492 40.2573 17.0334 42.2294 17.7424ZM20.8574 41.9854C20.0244 39.8076 19.6008 37.3559 19.6008 34.7479C19.6008 30.0708 20.9389 25.8991 23.5657 22.907C26.1807 19.9281 30.1327 18.0492 35.5143 18.0492C38.0724 18.0492 40.3074 18.4737 42.2294 19.2391V41.6854C42.2294 41.8511 42.0951 41.9854 41.9294 41.9854H20.8574ZM21.4682 43.3854H41.9294C42.8683 43.3854 43.6294 42.6243 43.6294 41.6854V19.8848C45.1299 20.6781 46.4057 21.7026 47.463 22.907C50.0897 25.8991 51.4279 30.0708 51.4279 34.7479C51.4279 39.4222 50.0671 43.5943 47.4277 46.5878C44.7994 49.5687 40.846 51.4467 35.5143 51.4467C30.1827 51.4467 26.2293 49.5687 23.601 46.5878C22.7591 45.6329 22.0472 44.5582 21.4682 43.3854Z" fill="#F8F9FA"/>
<path d="M19.9217 43.3854L21.2918 42.7748C21.0507 42.2339 20.5139 41.8854 19.9217 41.8854V43.3854ZM22.5509 47.5137L21.4258 48.5057L21.4258 48.5057L22.5509 47.5137ZM48.4778 47.5137L47.3527 46.5217L47.3527 46.5217L48.4778 47.5137ZM48.5151 21.9833L47.3879 22.9729L47.3879 22.9729L48.5151 21.9833ZM43.6294 18.3206H42.1294C42.1294 18.9021 42.4655 19.4311 42.9918 19.6783L43.6294 18.3206ZM42.2294 17.7424L41.722 19.154C42.1815 19.3192 42.6927 19.2503 43.0922 18.9694C43.4917 18.6885 43.7294 18.2308 43.7294 17.7424H42.2294ZM19.3666 41.9854V43.4854C19.8527 43.4854 20.3086 43.2499 20.5899 42.8535C20.8712 42.4571 20.943 41.9489 20.7825 41.4901L19.3666 41.9854ZM22.5136 21.9833L21.3863 20.9937L21.3863 20.9937L22.5136 21.9833ZM20.8574 41.9854L19.4563 42.5213C19.6784 43.1019 20.2357 43.4854 20.8574 43.4854V41.9854ZM23.5657 22.907L22.4384 21.9174L22.4384 21.9174L23.5657 22.907ZM42.2294 19.2391H43.7294C43.7294 18.6249 43.355 18.0728 42.7844 17.8455L42.2294 19.2391ZM21.4682 43.3854V41.8854C20.9497 41.8854 20.4679 42.1532 20.1942 42.5936C19.9205 43.034 19.8936 43.5846 20.1232 44.0495L21.4682 43.3854ZM43.6294 19.8848L44.3305 18.5587C43.8656 18.3129 43.3058 18.3285 42.8554 18.5999C42.4049 18.8713 42.1294 19.3588 42.1294 19.8848H43.6294ZM47.463 22.907L46.3358 23.8966L46.3358 23.8966L47.463 22.907ZM47.4277 46.5878L48.5528 47.5798L48.5528 47.5798L47.4277 46.5878ZM23.601 46.5878L24.7261 45.5958L24.7261 45.5958L23.601 46.5878ZM11.5059 12.8387C11.5059 12.7282 11.5954 12.6387 11.7059 12.6387V9.63867C9.93855 9.63867 8.50586 11.0714 8.50586 12.8387H11.5059ZM11.5059 41.6854V12.8387H8.50586V41.6854H11.5059ZM11.7059 41.8854C11.5954 41.8854 11.5059 41.7959 11.5059 41.6854H8.50586C8.50586 43.4527 9.93855 44.8854 11.7059 44.8854V41.8854ZM19.9217 41.8854H11.7059V44.8854H19.9217V41.8854ZM23.676 46.5217C22.7054 45.4208 21.9098 44.1615 21.2918 42.7748L18.5516 43.9961C19.2849 45.6414 20.2408 47.1618 21.4258 48.5057L23.676 46.5217ZM35.5143 51.3467C30.2078 51.3467 26.2831 49.4785 23.676 46.5217L21.4258 48.5057C24.6666 52.1813 29.4488 54.3467 35.5143 54.3467V51.3467ZM47.3527 46.5217C44.7456 49.4785 40.8209 51.3467 35.5143 51.3467V54.3467C41.5799 54.3467 46.3621 52.1813 49.6029 48.5057L47.3527 46.5217ZM51.3279 34.7479C51.3279 39.4037 49.9725 43.5504 47.3527 46.5217L49.6029 48.5057C52.8089 44.8697 54.3279 39.9619 54.3279 34.7479H51.3279ZM47.3879 22.9729C49.9949 25.9426 51.3279 30.0889 51.3279 34.7479H54.3279C54.3279 29.5432 52.8381 24.634 49.6424 20.9937L47.3879 22.9729ZM42.9918 19.6783C44.7288 20.4941 46.1931 21.6119 47.3879 22.9729L49.6424 20.9937C48.1771 19.3246 46.3802 17.9553 44.2671 16.9629L42.9918 19.6783ZM42.1294 12.8387V18.3206H45.1294V12.8387H42.1294ZM41.9294 12.6387C42.0399 12.6387 42.1294 12.7282 42.1294 12.8387H45.1294C45.1294 11.0714 43.6967 9.63867 41.9294 9.63867V12.6387ZM11.7059 12.6387H41.9294V9.63867H11.7059V12.6387ZM43.7294 17.7424V12.8387H40.7294V17.7424H43.7294ZM43.7294 12.8387C43.7294 11.8446 42.9235 11.0387 41.9294 11.0387V14.0387C41.2667 14.0387 40.7294 13.5014 40.7294 12.8387H43.7294ZM41.9294 11.0387H11.7059V14.0387H41.9294V11.0387ZM11.7059 11.0387C10.7117 11.0387 9.90586 11.8446 9.90586 12.8387H12.9059C12.9059 13.5014 12.3686 14.0387 11.7059 14.0387V11.0387ZM9.90586 12.8387V41.6854H12.9059V12.8387H9.90586ZM9.90586 41.6854C9.90586 42.6795 10.7117 43.4854 11.7059 43.4854V40.4854C12.3686 40.4854 12.9059 41.0227 12.9059 41.6854H9.90586ZM11.7059 43.4854H19.3666V40.4854H11.7059V43.4854ZM20.7825 41.4901C20.0653 39.4399 19.7008 37.159 19.7008 34.7479H16.7008C16.7008 37.4573 17.11 40.0773 17.9508 42.4807L20.7825 41.4901ZM19.7008 34.7479C19.7008 30.0889 21.0338 25.9426 23.6408 22.9729L21.3863 20.9937C18.1906 24.634 16.7008 29.5432 16.7008 34.7479H19.7008ZM23.6408 22.9729C26.2345 20.0185 30.1577 18.1492 35.5143 18.1492V15.1492C29.4051 15.1492 24.6188 17.3116 21.3863 20.9937L23.6408 22.9729ZM35.5143 18.1492C37.863 18.1492 39.9294 18.5095 41.722 19.154L42.7369 16.3309C40.5851 15.5572 38.1713 15.1492 35.5143 15.1492V18.1492ZM18.1008 34.7479C18.1008 37.5161 18.5502 40.1522 19.4563 42.5213L22.2584 41.4496C21.4986 39.463 21.1008 37.1957 21.1008 34.7479H18.1008ZM22.4384 21.9174C19.5175 25.2446 18.1008 29.7976 18.1008 34.7479H21.1008C21.1008 30.344 22.3604 26.5536 24.6929 23.8966L22.4384 21.9174ZM35.5143 16.5492C29.7561 16.5492 25.3727 18.5749 22.4384 21.9174L24.6929 23.8966C26.9888 21.2814 30.5094 19.5492 35.5143 19.5492V16.5492ZM42.7844 17.8455C40.6656 17.0018 38.2394 16.5492 35.5143 16.5492V19.5492C37.9054 19.5492 39.9493 19.9457 41.6745 20.6327L42.7844 17.8455ZM43.7294 41.6854V19.2391H40.7294V41.6854H43.7294ZM41.9294 43.4854C42.9235 43.4854 43.7294 42.6795 43.7294 41.6854H40.7294C40.7294 41.0227 41.2667 40.4854 41.9294 40.4854V43.4854ZM20.8574 43.4854H41.9294V40.4854H20.8574V43.4854ZM41.9294 41.8854H21.4682V44.8854H41.9294V41.8854ZM42.1294 41.6854C42.1294 41.7959 42.0399 41.8854 41.9294 41.8854V44.8854C43.6967 44.8854 45.1294 43.4527 45.1294 41.6854H42.1294ZM42.1294 19.8848V41.6854H45.1294V19.8848H42.1294ZM48.5903 21.9174C47.4146 20.5782 45.9951 19.4387 44.3305 18.5587L42.9283 21.2108C44.2648 21.9174 45.3968 22.827 46.3358 23.8966L48.5903 21.9174ZM52.9279 34.7479C52.9279 29.7976 51.5112 25.2446 48.5903 21.9174L46.3358 23.8966C48.6683 26.5536 49.9279 30.344 49.9279 34.7479H52.9279ZM48.5528 47.5798C51.4851 44.2541 52.9279 39.7016 52.9279 34.7479H49.9279C49.9279 39.1427 48.6491 42.9345 46.3026 45.5958L48.5528 47.5798ZM35.5143 52.9467C41.2258 52.9467 45.6078 50.9199 48.5528 47.5798L46.3026 45.5958C43.9909 48.2175 40.4662 49.9467 35.5143 49.9467V52.9467ZM22.4759 47.5798C25.4209 50.9199 29.8028 52.9467 35.5143 52.9467V49.9467C30.5625 49.9467 27.0378 48.2175 24.7261 45.5958L22.4759 47.5798ZM20.1232 44.0495C20.7574 45.3339 21.5416 46.5202 22.4759 47.5798L24.7261 45.5958C23.9765 44.7456 23.3371 43.7824 22.8132 42.7213L20.1232 44.0495Z" fill="#F8F9FA" mask="url(#path-1-outside-1_50_7233)"/>
<rect x="10.7759" y="11.8389" width="32.2236" height="30.8468" rx="1" fill="#F8F9FA" stroke="#212529" stroke-width="1.4" stroke-linejoin="round"/>
<g style="mix-blend-mode:multiply">
<path d="M22.4235 20.6265C27.8918 14.5235 38.0919 15.2787 42.7629 16.6898V19.3713L25.6415 25.3342L23.7384 42.5252L18.4098 42.5253C16.5702 36.1817 15.3187 28.556 22.4235 20.6265Z" fill="#DEE2E6"/>
</g>
<path d="M14.5466 15.73H21.5268" stroke="#212529" stroke-linecap="round"/>
<path d="M14.5466 18.2407H19.445" stroke="#212529" stroke-linecap="round"/>
<path d="M14.5466 20.6201H18.1661" stroke="#212529" stroke-linecap="round"/>
<path d="M52.1979 34.7479C52.1979 44.357 46.6021 52.1467 35.5844 52.1467C24.5666 52.1467 18.9708 44.357 18.9708 34.7479C18.9708 25.1388 24.4698 17.3491 35.5844 17.3491C46.6989 17.3491 52.1979 25.1388 52.1979 34.7479Z" fill="#BAC8FF" stroke="#212529" stroke-width="1.4" stroke-linejoin="round"/>
<path d="M23.653 21.9888L26.0738 24.524" stroke="#212529" stroke-width="1.2" stroke-linecap="round"/>
<path d="M47.1831 21.9883L44.7623 24.5235" stroke="#212529" stroke-width="1.2" stroke-linecap="round"/>
<path d="M23.653 47.3403L26.0738 44.8051" stroke="#212529" stroke-width="1.2" stroke-linecap="round"/>
<path d="M47.1831 47.3403L44.7623 44.8051" stroke="#212529" stroke-width="1.2" stroke-linecap="round"/>
<g style="mix-blend-mode:soft-light" opacity="0.7">
<path fill-rule="evenodd" clip-rule="evenodd" d="M50.3341 34.2481C50.6101 34.2534 50.8297 34.4814 50.8245 34.7575C50.8063 35.7193 50.6762 37.2696 50.3445 38.8225C50.0168 40.3563 49.4752 41.9793 48.583 43.0121C48.4024 43.2211 48.0867 43.2442 47.8777 43.0636C47.6688 42.8831 47.6457 42.5674 47.8262 42.3584C48.5451 41.5262 49.0458 40.115 49.3666 38.6136C49.6832 37.1313 49.8075 35.6455 49.8247 34.7386C49.8299 34.4625 50.058 34.2429 50.3341 34.2481Z" fill="#F8F9FA"/>
</g>
<rect x="25.9962" y="28.5376" width="7.31423" height="4.85751" rx="2.42875" fill="#F8F9FA" stroke="#212529" stroke-width="1.4" stroke-linejoin="round"/>
<rect x="37.2351" y="28.5376" width="7.31423" height="4.85751" rx="2.42875" fill="#F8F9FA" stroke="#212529" stroke-width="1.4" stroke-linejoin="round"/>
<rect x="31.9026" y="40.7651" width="7.31423" height="3.84071" rx="1.92036" fill="#F8F9FA" stroke="#212529" stroke-width="1.4" stroke-linejoin="round"/>
</svg>
