<svg width="60" height="60" viewBox="0 0 60 60" fill="none" xmlns="http://www.w3.org/2000/svg">
<mask id="path-1-outside-1_50_11613" maskUnits="userSpaceOnUse" x="8.44128" y="6.84961" width="43" height="46" fill="black">
<rect fill="white" x="8.44128" y="6.84961" width="43" height="46"/>
<path fill-rule="evenodd" clip-rule="evenodd" d="M37.9688 10.4024C38.357 10.1385 38.4577 9.60986 38.1937 9.2217C37.9298 8.83354 37.4012 8.73284 37.013 8.99678C36.5531 9.30951 36.055 9.89296 35.5954 10.5058C35.1884 11.0484 34.7608 11.6846 34.3489 12.3388C34.1189 11.735 33.8119 11.2144 33.4195 10.7715C32.7138 9.97493 31.8003 9.50721 30.7723 9.21349C30.3209 9.08454 29.8505 9.34588 29.7215 9.79722C29.5926 10.2486 29.8539 10.719 30.3053 10.8479C31.1312 11.0839 31.7207 11.4174 32.1472 11.8987C32.5746 12.3811 32.9067 13.0894 33.0753 14.1975C33.086 14.2677 33.105 14.3347 33.1312 14.3974C32.9196 14.7781 32.7247 15.1428 32.5549 15.4752C32.5254 15.4908 32.4965 15.5082 32.4685 15.5275C25.9435 20.0275 21.0334 19.1567 19.5912 18.3772C19.5387 18.3488 19.4844 18.3265 19.4291 18.31C19.2674 18.192 19.0995 18.079 18.9291 17.9711C18.6055 17.7661 18.254 17.5679 17.8871 17.3782C16.8979 15.4702 17.1309 13.5259 17.3491 12.8512C17.4936 12.4046 17.2487 11.9255 16.8021 11.781C16.3555 11.6365 15.8763 11.8814 15.7318 12.328C15.4851 13.0905 15.274 14.6541 15.7119 16.399C14.4988 15.9163 13.3113 15.5296 12.484 15.2947C12.0325 15.1665 11.5625 15.4286 11.4343 15.8802C11.306 16.3317 11.5682 16.8017 12.0197 16.9299C13.0239 17.2151 14.6047 17.7422 16.0596 18.3882C16.7872 18.7113 17.4661 19.0565 18.0196 19.4071C18.3436 19.6123 18.6022 19.8055 18.7977 19.9813C19.5526 20.9076 19.8964 21.6405 20.0102 22.1962C20.1293 22.7781 20.0054 23.2005 19.769 23.5386C19.5143 23.9031 19.0905 24.2198 18.5496 24.4696C18.0144 24.7168 17.4183 24.8732 16.8937 24.9481C16.8807 24.95 16.8678 24.9521 16.855 24.9546C16.2311 24.8515 15.5357 24.7662 14.8336 24.7279C13.5033 24.6554 11.9571 24.738 10.8697 25.3594C10.4621 25.5923 10.3205 26.1115 10.5534 26.519C10.7863 26.9266 11.3055 27.0682 11.713 26.8353C12.341 26.4764 13.4496 26.3548 14.741 26.4252C15.6664 26.4757 16.5877 26.6181 17.3063 26.7669C19.0639 27.3871 19.9198 28.6133 20.304 29.9599C20.7391 31.4851 20.561 33.1722 20.2534 34.249C20.2501 34.2606 20.247 34.2722 20.2442 34.2838C19.54 34.9572 18.7819 35.8234 18.1052 36.8475C18.062 36.8492 18.0184 36.8542 17.9746 36.8628C15.6736 37.3117 12.7603 36.668 11.5903 36.278C11.145 36.1296 10.6637 36.3703 10.5153 36.8156C10.3668 37.2609 10.6075 37.7422 11.0528 37.8907C12.1462 38.2551 14.6702 38.8512 17.0793 38.6874C16.3267 40.3272 15.86 42.2531 16.0661 44.3655C16.1117 44.8327 16.5274 45.1745 16.9946 45.1289C17.4617 45.0833 17.8035 44.6676 17.7579 44.2005C17.5356 41.9211 18.2506 39.8578 19.2729 38.1793C20.2042 36.6502 21.3659 35.4828 22.2131 34.8214C24.8189 33.4842 26.9481 33.5482 28.5642 34.1272C30.3664 34.7728 31.6276 36.095 32.2208 37.0907C32.3071 37.2356 32.4304 37.3461 32.572 37.4165C33.7519 39.2546 35.7332 41.8997 38.2031 44.4233C40.8765 47.1551 44.186 49.8104 47.7289 51.0987C48.1701 51.2591 48.6577 51.0316 48.8181 50.5904C48.9786 50.1493 48.751 49.6616 48.3098 49.5012C47.3988 49.1699 46.4958 48.734 45.61 48.2186C47.2494 48.2419 48.4487 47.9693 49.0465 47.7102C49.4772 47.5236 49.6751 47.0231 49.4884 46.5924C49.3018 46.1617 48.8013 45.9639 48.3706 46.1505C47.8164 46.3907 45.702 46.8546 42.6006 46.1338C41.4814 45.2379 40.413 44.2512 39.4179 43.2344C36.8291 40.5891 34.8 37.8064 33.7336 36.0705C33.6964 36.0099 33.6528 35.9556 33.6042 35.908C32.776 33.0837 33.5168 31.0301 34.7596 29.5578C36.1142 27.9529 38.1154 26.9904 39.544 26.6109C39.581 26.6011 39.6168 26.589 39.6514 26.5747C40.2296 26.5495 40.925 26.4978 41.6773 26.4063C42.3581 26.4144 42.9924 26.6516 43.5238 27.0214C44.1921 27.4865 44.6329 28.1164 44.7828 28.6339C44.9135 29.0847 45.3849 29.3443 45.8357 29.2137C46.2866 29.0831 46.5462 28.6117 46.4155 28.1608C46.1667 27.3019 45.5617 26.4564 44.7587 25.822C45.1278 25.722 45.4925 25.6099 45.8468 25.4844C46.2893 25.3277 46.5209 24.842 46.3642 24.3995C46.2075 23.957 45.7218 23.7254 45.2793 23.8821C44.0982 24.3004 42.7657 24.5566 41.572 24.7066C41.3669 24.7097 41.1583 24.7262 40.9468 24.7576C40.8979 24.7648 40.8506 24.7761 40.8052 24.791C40.1205 24.8558 39.5119 24.8854 39.0459 24.8926C36.2331 24.4486 34.8283 23.0139 34.1437 21.4346C33.5246 20.0063 33.4684 18.3899 33.6448 17.1365C33.9465 16.4262 34.7065 14.9972 35.5746 13.5863C36.037 12.8349 36.5165 12.1107 36.9553 11.5257C37.415 10.9127 37.7666 10.5399 37.9688 10.4024ZM21.6755 21.8553C21.593 21.4523 21.4469 21.0359 21.2347 20.6049C23.7487 20.9502 27.4919 20.519 31.8679 17.9297C31.8122 19.2278 31.9809 20.719 32.5841 22.1106C33.2832 23.7235 34.5458 25.1501 36.589 25.9775C35.4869 26.5699 34.3661 27.3885 33.4606 28.4613C32.2833 29.8561 31.4942 31.6562 31.5571 33.8624C30.8735 33.3318 30.0644 32.859 29.1375 32.5269C27.2282 31.8429 24.8846 31.7802 22.2155 32.9403C22.3167 31.8793 22.273 30.6655 21.9386 29.4935C21.5521 28.1389 20.7744 26.8456 19.4237 25.9355C20.0737 25.6129 20.714 25.1538 21.1623 24.5125C21.6661 23.7917 21.8881 22.8939 21.6755 21.8553Z"/>
</mask>
<path fill-rule="evenodd" clip-rule="evenodd" d="M37.9688 10.4024C38.357 10.1385 38.4577 9.60986 38.1937 9.2217C37.9298 8.83354 37.4012 8.73284 37.013 8.99678C36.5531 9.30951 36.055 9.89296 35.5954 10.5058C35.1884 11.0484 34.7608 11.6846 34.3489 12.3388C34.1189 11.735 33.8119 11.2144 33.4195 10.7715C32.7138 9.97493 31.8003 9.50721 30.7723 9.21349C30.3209 9.08454 29.8505 9.34588 29.7215 9.79722C29.5926 10.2486 29.8539 10.719 30.3053 10.8479C31.1312 11.0839 31.7207 11.4174 32.1472 11.8987C32.5746 12.3811 32.9067 13.0894 33.0753 14.1975C33.086 14.2677 33.105 14.3347 33.1312 14.3974C32.9196 14.7781 32.7247 15.1428 32.5549 15.4752C32.5254 15.4908 32.4965 15.5082 32.4685 15.5275C25.9435 20.0275 21.0334 19.1567 19.5912 18.3772C19.5387 18.3488 19.4844 18.3265 19.4291 18.31C19.2674 18.192 19.0995 18.079 18.9291 17.9711C18.6055 17.7661 18.254 17.5679 17.8871 17.3782C16.8979 15.4702 17.1309 13.5259 17.3491 12.8512C17.4936 12.4046 17.2487 11.9255 16.8021 11.781C16.3555 11.6365 15.8763 11.8814 15.7318 12.328C15.4851 13.0905 15.274 14.6541 15.7119 16.399C14.4988 15.9163 13.3113 15.5296 12.484 15.2947C12.0325 15.1665 11.5625 15.4286 11.4343 15.8802C11.306 16.3317 11.5682 16.8017 12.0197 16.9299C13.0239 17.2151 14.6047 17.7422 16.0596 18.3882C16.7872 18.7113 17.4661 19.0565 18.0196 19.4071C18.3436 19.6123 18.6022 19.8055 18.7977 19.9813C19.5526 20.9076 19.8964 21.6405 20.0102 22.1962C20.1293 22.7781 20.0054 23.2005 19.769 23.5386C19.5143 23.9031 19.0905 24.2198 18.5496 24.4696C18.0144 24.7168 17.4183 24.8732 16.8937 24.9481C16.8807 24.95 16.8678 24.9521 16.855 24.9546C16.2311 24.8515 15.5357 24.7662 14.8336 24.7279C13.5033 24.6554 11.9571 24.738 10.8697 25.3594C10.4621 25.5923 10.3205 26.1115 10.5534 26.519C10.7863 26.9266 11.3055 27.0682 11.713 26.8353C12.341 26.4764 13.4496 26.3548 14.741 26.4252C15.6664 26.4757 16.5877 26.6181 17.3063 26.7669C19.0639 27.3871 19.9198 28.6133 20.304 29.9599C20.7391 31.4851 20.561 33.1722 20.2534 34.249C20.2501 34.2606 20.247 34.2722 20.2442 34.2838C19.54 34.9572 18.7819 35.8234 18.1052 36.8475C18.062 36.8492 18.0184 36.8542 17.9746 36.8628C15.6736 37.3117 12.7603 36.668 11.5903 36.278C11.145 36.1296 10.6637 36.3703 10.5153 36.8156C10.3668 37.2609 10.6075 37.7422 11.0528 37.8907C12.1462 38.2551 14.6702 38.8512 17.0793 38.6874C16.3267 40.3272 15.86 42.2531 16.0661 44.3655C16.1117 44.8327 16.5274 45.1745 16.9946 45.1289C17.4617 45.0833 17.8035 44.6676 17.7579 44.2005C17.5356 41.9211 18.2506 39.8578 19.2729 38.1793C20.2042 36.6502 21.3659 35.4828 22.2131 34.8214C24.8189 33.4842 26.9481 33.5482 28.5642 34.1272C30.3664 34.7728 31.6276 36.095 32.2208 37.0907C32.3071 37.2356 32.4304 37.3461 32.572 37.4165C33.7519 39.2546 35.7332 41.8997 38.2031 44.4233C40.8765 47.1551 44.186 49.8104 47.7289 51.0987C48.1701 51.2591 48.6577 51.0316 48.8181 50.5904C48.9786 50.1493 48.751 49.6616 48.3098 49.5012C47.3988 49.1699 46.4958 48.734 45.61 48.2186C47.2494 48.2419 48.4487 47.9693 49.0465 47.7102C49.4772 47.5236 49.6751 47.0231 49.4884 46.5924C49.3018 46.1617 48.8013 45.9639 48.3706 46.1505C47.8164 46.3907 45.702 46.8546 42.6006 46.1338C41.4814 45.2379 40.413 44.2512 39.4179 43.2344C36.8291 40.5891 34.8 37.8064 33.7336 36.0705C33.6964 36.0099 33.6528 35.9556 33.6042 35.908C32.776 33.0837 33.5168 31.0301 34.7596 29.5578C36.1142 27.9529 38.1154 26.9904 39.544 26.6109C39.581 26.6011 39.6168 26.589 39.6514 26.5747C40.2296 26.5495 40.925 26.4978 41.6773 26.4063C42.3581 26.4144 42.9924 26.6516 43.5238 27.0214C44.1921 27.4865 44.6329 28.1164 44.7828 28.6339C44.9135 29.0847 45.3849 29.3443 45.8357 29.2137C46.2866 29.0831 46.5462 28.6117 46.4155 28.1608C46.1667 27.3019 45.5617 26.4564 44.7587 25.822C45.1278 25.722 45.4925 25.6099 45.8468 25.4844C46.2893 25.3277 46.5209 24.842 46.3642 24.3995C46.2075 23.957 45.7218 23.7254 45.2793 23.8821C44.0982 24.3004 42.7657 24.5566 41.572 24.7066C41.3669 24.7097 41.1583 24.7262 40.9468 24.7576C40.8979 24.7648 40.8506 24.7761 40.8052 24.791C40.1205 24.8558 39.5119 24.8854 39.0459 24.8926C36.2331 24.4486 34.8283 23.0139 34.1437 21.4346C33.5246 20.0063 33.4684 18.3899 33.6448 17.1365C33.9465 16.4262 34.7065 14.9972 35.5746 13.5863C36.037 12.8349 36.5165 12.1107 36.9553 11.5257C37.415 10.9127 37.7666 10.5399 37.9688 10.4024ZM21.6755 21.8553C21.593 21.4523 21.4469 21.0359 21.2347 20.6049C23.7487 20.9502 27.4919 20.519 31.8679 17.9297C31.8122 19.2278 31.9809 20.719 32.5841 22.1106C33.2832 23.7235 34.5458 25.1501 36.589 25.9775C35.4869 26.5699 34.3661 27.3885 33.4606 28.4613C32.2833 29.8561 31.4942 31.6562 31.5571 33.8624C30.8735 33.3318 30.0644 32.859 29.1375 32.5269C27.2282 31.8429 24.8846 31.7802 22.2155 32.9403C22.3167 31.8793 22.273 30.6655 21.9386 29.4935C21.5521 28.1389 20.7744 26.8456 19.4237 25.9355C20.0737 25.6129 20.714 25.1538 21.1623 24.5125C21.6661 23.7917 21.8881 22.8939 21.6755 21.8553Z" fill="#F8F9FA"/>
<path d="M38.1937 9.2217L36.9534 10.0652L36.9534 10.0652L38.1937 9.2217ZM37.9688 10.4024L38.8123 11.6428L38.8123 11.6428L37.9688 10.4024ZM37.013 8.99679L36.1696 7.75639L36.1696 7.75639L37.013 8.99679ZM35.5954 10.5058L36.7954 11.4058L36.7954 11.4058L35.5954 10.5058ZM34.3489 12.3388L32.9471 12.8727C33.1495 13.404 33.6348 13.7752 34.2006 13.8315C34.7664 13.8877 35.3153 13.6192 35.6182 13.138L34.3489 12.3388ZM33.4195 10.7715L34.5422 9.77671L34.5422 9.77671L33.4195 10.7715ZM30.7723 9.21349L30.3602 10.6558L30.3602 10.6558L30.7723 9.21349ZM29.7215 9.79722L31.1638 10.2093L31.1638 10.2093L29.7215 9.79722ZM30.3053 10.8479L30.7174 9.40565L30.7174 9.40565L30.3053 10.8479ZM32.1472 11.8987L33.2699 10.904L33.2699 10.904L32.1472 11.8987ZM33.0753 14.1975L34.5583 13.9718L34.5582 13.9718L33.0753 14.1975ZM33.1312 14.3974L34.4424 15.126C34.6653 14.7248 34.6923 14.2437 34.5156 13.8201L33.1312 14.3974ZM32.5549 15.4752L33.2544 16.8021C33.5278 16.658 33.7501 16.4329 33.8907 16.1576L32.5549 15.4752ZM32.4685 15.5275L31.6169 14.2927L31.6169 14.2927L32.4685 15.5275ZM19.5912 18.3772L20.3045 17.0576L20.3045 17.0576L19.5912 18.3772ZM19.4291 18.31L18.5444 19.5214C18.6827 19.6224 18.8372 19.699 19.0014 19.7478L19.4291 18.31ZM18.9291 17.9711L18.1265 19.2383L18.1265 19.2383L18.9291 17.9711ZM17.8871 17.3782L16.5555 18.0686C16.6982 18.3439 16.9227 18.5682 17.1982 18.7106L17.8871 17.3782ZM17.3491 12.8512L15.922 12.3895L15.922 12.3895L17.3491 12.8512ZM16.8021 11.781L17.2639 10.3538L17.2639 10.3538L16.8021 11.781ZM15.7318 12.328L17.159 12.7897L17.159 12.7897L15.7318 12.328ZM15.7119 16.399L15.1573 17.7927C15.6805 18.0009 16.2762 17.8986 16.6999 17.5277C17.1235 17.1569 17.3039 16.58 17.1668 16.0339L15.7119 16.399ZM12.484 15.2947L12.0743 16.7377L12.0743 16.7377L12.484 15.2947ZM11.4343 15.8802L9.99131 15.4704L9.99131 15.4704L11.4343 15.8802ZM12.0197 16.9299L11.61 18.3729L11.61 18.3729L12.0197 16.9299ZM16.0596 18.3882L16.6683 17.0173L16.6683 17.0173L16.0596 18.3882ZM18.0196 19.4071L17.217 20.6743L17.217 20.6743L18.0196 19.4071ZM18.7977 19.9813L19.9605 19.0337C19.9116 18.9737 19.8582 18.9176 19.8006 18.8658L18.7977 19.9813ZM20.0102 22.1962L21.4797 21.8954L21.4797 21.8954L20.0102 22.1962ZM19.769 23.5386L20.9985 24.398L20.9985 24.398L19.769 23.5386ZM18.5496 24.4696L19.1785 25.8314L19.1785 25.8314L18.5496 24.4696ZM16.8937 24.9481L16.6815 23.4632L16.6815 23.4632L16.8937 24.9481ZM16.855 24.9546L16.6105 26.4345C16.7843 26.4632 16.9617 26.4611 17.1347 26.4282L16.855 24.9546ZM14.8336 24.7279L14.7519 26.2257L14.7519 26.2257L14.8336 24.7279ZM10.8697 25.3594L11.6139 26.6618L11.6139 26.6618L10.8697 25.3594ZM10.5534 26.519L9.25106 27.2632L9.25106 27.2632L10.5534 26.519ZM11.713 26.8353L12.4573 28.1376L12.4573 28.1376L11.713 26.8353ZM14.741 26.4252L14.6593 27.923L14.6593 27.923L14.741 26.4252ZM17.3063 26.7669L17.8054 25.3524C17.7417 25.33 17.6766 25.3118 17.6106 25.2981L17.3063 26.7669ZM20.304 29.9599L18.8615 30.3714L18.8615 30.3714L20.304 29.9599ZM20.2534 34.249L18.8111 33.8369L18.8111 33.837L20.2534 34.249ZM20.2442 34.2838L21.2809 35.3679C21.4889 35.169 21.6353 34.9145 21.7026 34.6347L20.2442 34.2838ZM18.1052 36.8475L18.1638 38.3464C18.6464 38.3275 19.0904 38.0774 19.3567 37.6745L18.1052 36.8475ZM17.9746 36.8628L17.6874 35.3905L17.6874 35.3905L17.9746 36.8628ZM11.5903 36.278L12.0646 34.855L12.0646 34.855L11.5903 36.278ZM10.5153 36.8156L9.09223 36.3413L9.09223 36.3413L10.5153 36.8156ZM11.0528 37.8907L11.5271 36.4676L11.5271 36.4676L11.0528 37.8907ZM17.0793 38.6874L18.4425 39.3131C18.6632 38.8322 18.6143 38.2706 18.3137 37.8352C18.0131 37.3998 17.5054 37.1549 16.9775 37.1908L17.0793 38.6874ZM16.0661 44.3655L14.5732 44.5112L14.5732 44.5112L16.0661 44.3655ZM16.9946 45.1289L17.1402 46.6218L17.1402 46.6218L16.9946 45.1289ZM17.7579 44.2005L19.2509 44.0548L19.2509 44.0548L17.7579 44.2005ZM19.2729 38.1793L20.554 38.9596L20.554 38.9596L19.2729 38.1793ZM22.2131 34.8214L21.5283 33.4869C21.4442 33.53 21.3645 33.581 21.2901 33.6391L22.2131 34.8214ZM28.5642 34.1272L28.0583 35.5393L28.0583 35.5393L28.5642 34.1272ZM32.2208 37.0907L33.5095 36.323L33.5095 36.323L32.2208 37.0907ZM32.572 37.4165L33.8343 36.6063C33.688 36.3783 33.4826 36.1942 33.24 36.0735L32.572 37.4165ZM38.2031 44.4233L37.131 45.4725L37.131 45.4725L38.2031 44.4233ZM47.7289 51.0987L48.2416 49.689L48.2416 49.689L47.7289 51.0987ZM48.8181 50.5904L50.2278 51.1031L50.2278 51.103L48.8181 50.5904ZM48.3098 49.5012L47.7972 50.9109L47.7972 50.9109L48.3098 49.5012ZM45.61 48.2186L45.6313 46.7187C44.9495 46.709 44.3469 47.1605 44.1646 47.8176C43.9823 48.4747 44.2662 49.172 44.8555 49.515L45.61 48.2186ZM49.0465 47.7102L48.4501 46.3339L48.4501 46.3339L49.0465 47.7102ZM48.3706 46.1505L48.967 47.5268L48.9671 47.5268L48.3706 46.1505ZM42.6006 46.1338L41.6633 47.3049C41.8383 47.445 42.0426 47.5441 42.2611 47.5949L42.6006 46.1338ZM39.4179 43.2344L40.4899 42.1852L40.4899 42.1852L39.4179 43.2344ZM33.7336 36.0705L32.4555 36.8556L32.4555 36.8556L33.7336 36.0705ZM33.6042 35.908L32.1649 36.3301C32.237 36.576 32.3709 36.7994 32.5539 36.9789L33.6042 35.908ZM34.7596 29.5578L35.9058 30.5253L35.9058 30.5253L34.7596 29.5578ZM39.544 26.6109L39.159 25.1612L39.159 25.1612L39.544 26.6109ZM39.6514 26.5747L39.5862 25.0761C39.4115 25.0837 39.2394 25.1218 39.0778 25.1887L39.6514 26.5747ZM41.6773 26.4063L41.6951 24.9065C41.6287 24.9057 41.5623 24.9093 41.4963 24.9173L41.6773 26.4063ZM43.5238 27.0214L42.667 28.2526L42.667 28.2526L43.5238 27.0214ZM44.7828 28.6339L43.3421 29.0513L43.3421 29.0513L44.7828 28.6339ZM45.8357 29.2137L46.2531 30.6544L46.2532 30.6544L45.8357 29.2137ZM46.4155 28.1608L47.8563 27.7434L47.8563 27.7434L46.4155 28.1608ZM44.7587 25.822L44.3665 24.3742C43.8196 24.5223 43.4029 24.966 43.2892 25.521C43.1755 26.076 43.3843 26.6478 43.8288 26.999L44.7587 25.822ZM45.8468 25.4844L45.346 24.0705L45.346 24.0705L45.8468 25.4844ZM45.2793 23.8821L45.7801 25.296L45.7801 25.296L45.2793 23.8821ZM41.572 24.7066L41.5946 26.2064C41.6496 26.2056 41.7045 26.2017 41.759 26.1949L41.572 24.7066ZM40.9468 24.7576L40.7269 23.2738L40.7269 23.2738L40.9468 24.7576ZM40.8052 24.791L40.9466 26.2843C41.0576 26.2738 41.1671 26.2509 41.2731 26.2161L40.8052 24.791ZM39.0459 24.8926L38.812 26.3743C38.8971 26.3877 38.9832 26.3938 39.0693 26.3925L39.0459 24.8926ZM34.1437 21.4346L35.52 20.838L35.52 20.838L34.1437 21.4346ZM33.6448 17.1365L32.2641 16.5501C32.2129 16.6708 32.1777 16.7977 32.1594 16.9275L33.6448 17.1365ZM35.5746 13.5863L34.2971 12.8002L34.2971 12.8002L35.5746 13.5863ZM36.9553 11.5257L38.1553 12.4257L38.1553 12.4257L36.9553 11.5257ZM21.2347 20.6049L21.4389 19.1188C20.8892 19.0433 20.3428 19.2774 20.0182 19.7273C19.6936 20.1773 19.6439 20.7696 19.889 21.2674L21.2347 20.6049ZM21.6755 21.8553L23.145 21.5545L23.145 21.5545L21.6755 21.8553ZM31.8679 17.9297L33.3665 17.9941C33.3901 17.4443 33.1108 16.9257 32.6388 16.6429C32.1667 16.3601 31.5777 16.3585 31.1041 16.6388L31.8679 17.9297ZM32.5841 22.1106L33.9604 21.5141L33.9604 21.5141L32.5841 22.1106ZM36.589 25.9775L37.2992 27.2987C37.8114 27.0234 38.1183 26.4769 38.0868 25.8962C38.0552 25.3156 37.691 24.8055 37.152 24.5872L36.589 25.9775ZM33.4606 28.4613L34.6068 29.4289L34.6068 29.4289L33.4606 28.4613ZM31.5571 33.8624L30.6374 35.0474C31.0959 35.4032 31.7185 35.4627 32.236 35.2C32.7535 34.9374 33.0731 34.3998 33.0565 33.8196L31.5571 33.8624ZM29.1375 32.5269L29.6434 31.1148L29.6434 31.1148L29.1375 32.5269ZM22.2155 32.9403L20.7223 32.7979C20.6718 33.3264 20.9046 33.8422 21.3343 34.1542C21.7639 34.4661 22.3265 34.5276 22.8134 34.316L22.2155 32.9403ZM21.9386 29.4935L20.4962 29.9051L20.4962 29.9051L21.9386 29.4935ZM19.4237 25.9355L18.7569 24.5919C18.2784 24.8294 17.9623 25.3034 17.927 25.8364C17.8917 26.3694 18.1426 26.881 18.5856 27.1795L19.4237 25.9355ZM21.1623 24.5125L22.3917 25.3718L22.3917 25.3718L21.1623 24.5125ZM36.9534 10.0652C36.7515 9.76827 36.8285 9.36393 37.1254 9.16205L38.8123 11.6428C39.8855 10.9131 40.1639 9.45145 39.4341 8.37824L36.9534 10.0652ZM37.8565 10.2372C37.5596 10.4391 37.1552 10.362 36.9534 10.0652L39.4341 8.37824C38.7044 7.30503 37.2428 7.02662 36.1696 7.75639L37.8565 10.2372ZM36.7954 11.4058C37.254 10.7943 37.6233 10.3957 37.8565 10.2372L36.1696 7.75639C35.483 8.22327 34.856 8.99158 34.3954 9.60583L36.7954 11.4058ZM35.6182 13.138C36.0164 12.5056 36.4205 11.9057 36.7954 11.4058L34.3954 9.60583C33.9564 10.1912 33.5053 10.8635 33.0796 11.5396L35.6182 13.138ZM32.2968 11.7662C32.5562 12.059 32.7743 12.4189 32.9471 12.8727L35.7507 11.8049C35.4636 11.0511 35.0676 10.3697 34.5422 9.77671L32.2968 11.7662ZM30.3602 10.6558C31.2101 10.8986 31.8376 11.2479 32.2968 11.7662L34.5422 9.77671C33.5899 8.70193 32.3904 8.1158 31.1843 7.77121L30.3602 10.6558ZM31.1638 10.2093C31.0652 10.5545 30.7054 10.7544 30.3602 10.6558L31.1843 7.77121C29.9365 7.41467 28.6358 8.13725 28.2793 9.38514L31.1638 10.2093ZM30.7174 9.40565C31.0626 9.50428 31.2625 9.86409 31.1638 10.2093L28.2793 9.38514C27.9227 10.633 28.6453 11.9337 29.8932 12.2902L30.7174 9.40565ZM33.2699 10.904C32.5972 10.1448 31.722 9.6927 30.7174 9.40565L29.8932 12.2902C30.5403 12.4751 30.8442 12.69 31.0245 12.8935L33.2699 10.904ZM34.5582 13.9718C34.36 12.6688 33.9419 11.6624 33.2699 10.904L31.0245 12.8935C31.2073 13.0998 31.4534 13.51 31.5924 14.4231L34.5582 13.9718ZM34.5156 13.8201C34.5361 13.8691 34.5504 13.9203 34.5583 13.9718L31.5924 14.4231C31.6216 14.6152 31.674 14.8002 31.7468 14.9748L34.5156 13.8201ZM33.8907 16.1576C34.0515 15.8429 34.2381 15.4937 34.4424 15.126L31.82 13.6689C31.6012 14.0626 31.398 14.4428 31.2192 14.7928L33.8907 16.1576ZM33.3201 16.7624C33.299 16.7769 33.2771 16.7902 33.2544 16.8021L31.8555 14.1482C31.7737 14.1914 31.694 14.2396 31.6169 14.2927L33.3201 16.7624ZM18.878 19.6968C20.9277 20.8047 26.4454 21.5035 33.3201 16.7624L31.6169 14.2927C25.4417 18.5515 21.139 17.5087 20.3045 17.0576L18.878 19.6968ZM19.0014 19.7478C18.9585 19.735 18.917 19.7179 18.878 19.6968L20.3045 17.0576C20.1604 16.9798 20.0103 16.918 19.8567 16.8723L19.0014 19.7478ZM18.1265 19.2383C18.2737 19.3315 18.4136 19.4259 18.5444 19.5214L20.3137 17.0987C20.1212 16.9581 19.9254 16.8265 19.7317 16.7038L18.1265 19.2383ZM17.1982 18.7106C17.5348 18.8847 17.8471 19.0613 18.1265 19.2383L19.7317 16.7038C19.3638 16.4708 18.9732 16.2511 18.5761 16.0458L17.1982 18.7106ZM15.922 12.3895C15.6051 13.369 15.3477 15.7392 16.5555 18.0686L19.2188 16.6878C18.4481 15.2012 18.6567 13.6828 18.7763 13.313L15.922 12.3895ZM16.3404 13.2081C15.9988 13.0976 15.8115 12.7311 15.922 12.3895L18.7763 13.313C19.1758 12.0782 18.4987 10.7533 17.2639 10.3538L16.3404 13.2081ZM17.159 12.7897C17.0485 13.1313 16.682 13.3186 16.3404 13.2081L17.2639 10.3538C16.0291 9.95428 14.7042 10.6314 14.3047 11.8662L17.159 12.7897ZM17.1668 16.0339C16.8011 14.5766 16.994 13.2996 17.159 12.7897L14.3047 11.8662C13.9762 12.8813 13.747 14.7316 14.257 16.7641L17.1668 16.0339ZM12.0743 16.7377C12.8565 16.9598 13.9954 17.3303 15.1573 17.7927L16.2665 15.0053C15.0022 14.5022 13.7661 14.0995 12.8938 13.8518L12.0743 16.7377ZM12.8772 16.2899C12.7791 16.6353 12.4197 16.8357 12.0743 16.7377L12.8938 13.8518C11.6453 13.4973 10.3458 14.222 9.99131 15.4704L12.8772 16.2899ZM12.4294 15.487C12.7748 15.585 12.9753 15.9445 12.8772 16.2899L9.99131 15.4704C9.6368 16.7189 10.3615 18.0184 11.61 18.3729L12.4294 15.487ZM16.6683 17.0173C15.1355 16.3367 13.4859 15.787 12.4294 15.487L11.61 18.3729C12.562 18.6432 14.0739 19.1477 15.4509 19.7592L16.6683 17.0173ZM18.8222 18.1399C18.185 17.7363 17.4346 17.3575 16.6683 17.0173L15.4509 19.7592C16.1398 20.065 16.7471 20.3767 17.217 20.6743L18.8222 18.1399ZM19.8006 18.8658C19.527 18.6199 19.1968 18.3771 18.8222 18.1399L17.217 20.6743C17.4905 20.8475 17.6774 20.9912 17.7949 21.0968L19.8006 18.8658ZM21.4797 21.8954C21.3012 21.0235 20.8076 20.0732 19.9605 19.0337L17.6349 20.9289C18.2975 21.742 18.4916 22.2575 18.5406 22.497L21.4797 21.8954ZM20.9985 24.398C21.4708 23.7222 21.6813 22.8803 21.4797 21.8954L18.5406 22.497C18.553 22.5573 18.5558 22.5976 18.5561 22.621C18.5563 22.6437 18.5542 22.6539 18.554 22.6551C18.5538 22.6561 18.5539 22.6557 18.5536 22.6563C18.5531 22.6575 18.5497 22.6649 18.5396 22.6793L20.9985 24.398ZM19.1785 25.8314C19.8638 25.5149 20.5404 25.0534 20.9985 24.398L18.5396 22.6793C18.4883 22.7528 18.3172 22.9247 17.9207 23.1078L19.1785 25.8314ZM17.1058 26.4331C17.7486 26.3412 18.4892 26.1497 19.1785 25.8314L17.9207 23.1078C17.5396 23.2838 17.088 23.4051 16.6815 23.4632L17.1058 26.4331ZM17.1347 26.4282C17.1251 26.4301 17.1154 26.4317 17.1058 26.433L16.6815 23.4632C16.6459 23.4683 16.6105 23.4742 16.5753 23.4809L17.1347 26.4282ZM14.7519 26.2257C15.3895 26.2604 16.0297 26.3386 16.6105 26.4345L17.0995 23.4746C16.4325 23.3644 15.6819 23.2719 14.9152 23.2301L14.7519 26.2257ZM11.6139 26.6618C12.2964 26.2717 13.4572 26.1551 14.7519 26.2257L14.9152 23.2301C13.5494 23.1557 11.6178 23.2043 10.1254 24.057L11.6139 26.6618ZM11.8558 25.7748C12.0339 26.0865 11.9256 26.4836 11.6139 26.6618L10.1254 24.057C8.99862 24.701 8.60715 26.1364 9.25106 27.2632L11.8558 25.7748ZM10.9688 25.5329C11.2805 25.3548 11.6776 25.4631 11.8558 25.7748L9.25106 27.2632C9.89497 28.3901 11.3304 28.7815 12.4573 28.1376L10.9688 25.5329ZM14.8227 24.9275C14.113 24.8888 13.418 24.9004 12.787 24.9815C12.1763 25.06 11.5237 25.2158 10.9688 25.5329L12.4573 28.1376C12.5304 28.0958 12.7461 28.0114 13.1695 27.957C13.5727 27.9052 14.0777 27.8913 14.6593 27.923L14.8227 24.9275ZM17.6106 25.2981C16.8364 25.1378 15.8391 24.9829 14.8227 24.9275L14.6593 27.923C15.4937 27.9685 16.3389 28.0984 17.002 28.2358L17.6106 25.2981ZM21.7464 29.5483C21.2529 27.8187 20.0983 26.1615 17.8054 25.3524L16.8072 28.1815C18.0295 28.6128 18.5866 29.4078 18.8615 30.3714L21.7464 29.5483ZM21.6956 34.6611C22.057 33.3963 22.2787 31.4138 21.7464 29.5483L18.8615 30.3714C19.1996 31.5564 19.065 32.9481 18.8111 33.8369L21.6956 34.6611ZM21.7026 34.6347C21.7004 34.6436 21.6981 34.6524 21.6957 34.661L18.8111 33.837C18.802 33.8688 18.7936 33.9008 18.7858 33.933L21.7026 34.6347ZM19.3567 37.6745C19.9657 36.7529 20.6494 35.9718 21.2809 35.3679L19.2075 33.1997C18.4306 33.9426 17.5982 34.8939 16.8538 36.0206L19.3567 37.6745ZM18.2618 38.335C18.2298 38.3413 18.197 38.3451 18.1638 38.3464L18.0467 35.3487C17.9271 35.3533 17.807 35.3672 17.6874 35.3905L18.2618 38.335ZM11.116 37.7011C11.7951 37.9274 12.9092 38.2066 14.1618 38.3721C15.4046 38.5363 16.8882 38.603 18.2619 38.335L17.6874 35.3905C16.76 35.5715 15.6364 35.5408 14.5548 35.3979C13.483 35.2563 12.5555 35.0186 12.0646 34.855L11.116 37.7011ZM11.9383 37.2899C11.8248 37.6305 11.4566 37.8146 11.116 37.7011L12.0646 34.855C10.8334 34.4446 9.50261 35.1101 9.09223 36.3413L11.9383 37.2899ZM11.5271 36.4676C11.8677 36.5812 12.0518 36.9493 11.9383 37.2899L9.09223 36.3413C8.68186 37.5725 9.34729 38.9033 10.5785 39.3137L11.5271 36.4676ZM16.9775 37.1908C14.8275 37.337 12.5077 36.7945 11.5271 36.4676L10.5785 39.3137C11.7846 39.7157 14.5128 40.3654 17.181 40.1839L16.9775 37.1908ZM17.559 44.2199C17.3836 42.422 17.7773 40.7625 18.4425 39.3131L15.716 38.0617C14.876 39.892 14.3364 42.0843 14.5732 44.5112L17.559 44.2199ZM16.8489 43.636C17.2062 43.6011 17.5242 43.8625 17.559 44.2199L14.5732 44.5112C14.6992 45.8029 15.8485 46.7478 17.1402 46.6218L16.8489 43.636ZM16.265 44.3461C16.2302 43.9888 16.4916 43.6708 16.8489 43.636L17.1402 46.6218C18.4319 46.4958 19.3769 45.3465 19.2509 44.0548L16.265 44.3461ZM17.9918 37.399C16.8522 39.2702 16.0026 41.6566 16.265 44.3461L19.2509 44.0548C19.0685 42.1855 19.649 40.4455 20.554 38.9596L17.9918 37.399ZM21.2901 33.6391C20.3147 34.4005 19.0264 35.7005 17.9918 37.399L20.554 38.9596C21.3821 37.6 22.417 36.5652 23.1361 36.0038L21.2901 33.6391ZM29.0701 32.7151C27.0448 31.9895 24.4852 31.9695 21.5283 33.4869L22.8979 36.156C25.1525 34.999 26.8513 35.1069 28.0583 35.5393L29.0701 32.7151ZM33.5095 36.323C32.7698 35.0814 31.2541 33.4975 29.0701 32.7151L28.0583 35.5393C29.4788 36.0482 30.4855 37.1086 30.9322 37.8584L33.5095 36.323ZM33.24 36.0735C33.3488 36.1276 33.4442 36.2134 33.5095 36.323L30.9322 37.8584C31.1701 38.2577 31.5121 38.5646 31.904 38.7596L33.24 36.0735ZM39.2751 43.3742C36.8833 40.9302 34.9644 38.3668 33.8343 36.6063L31.3097 38.2268C32.5393 40.1424 34.5832 42.8691 37.131 45.4725L39.2751 43.3742ZM48.2416 49.689C45.0045 48.5119 41.8818 46.0377 39.2751 43.3742L37.131 45.4725C39.8712 48.2724 43.3675 51.1089 47.2163 52.5084L48.2416 49.689ZM47.4085 50.0778C47.5311 49.7404 47.9041 49.5663 48.2416 49.689L47.2163 52.5084C48.436 52.952 49.7843 52.3227 50.2278 51.1031L47.4085 50.0778ZM47.7972 50.9109C47.4598 50.7882 47.2858 50.4152 47.4084 50.0778L50.2278 51.103C50.6713 49.8834 50.0422 48.5351 48.8225 48.0915L47.7972 50.9109ZM44.8555 49.515C45.8054 50.0678 46.7894 50.5444 47.7972 50.9109L48.8225 48.0915C48.0082 47.7955 47.1861 47.4002 46.3645 46.9221L44.8555 49.515ZM48.4501 46.3339C48.1002 46.4855 47.125 46.7399 45.6313 46.7187L45.5887 49.7184C47.3737 49.7438 48.7972 49.453 49.6429 49.0865L48.4501 46.3339ZM48.1121 47.1888C47.9693 46.8594 48.1207 46.4766 48.4501 46.3339L49.6429 49.0865C50.8338 48.5705 51.3808 47.1868 50.8648 45.996L48.1121 47.1888ZM48.9671 47.5268C48.6376 47.6696 48.2548 47.5183 48.1121 47.1888L50.8648 45.996C50.3487 44.8052 48.965 44.2581 47.7742 44.7742L48.9671 47.5268ZM42.2611 47.5949C45.603 48.3716 48.0563 47.9215 48.967 47.5268L47.7742 44.7742C47.777 44.773 47.7448 44.7866 47.6689 44.8088C47.5968 44.83 47.498 44.8552 47.3725 44.8807C47.1216 44.9317 46.78 44.9809 46.3558 45.0049C45.509 45.053 44.3481 45 42.9402 44.6728L42.2611 47.5949ZM38.3459 44.2836C39.3761 45.3362 40.4893 46.3651 41.6633 47.3049L43.538 44.9628C42.4736 44.1107 41.4499 43.1661 40.4899 42.1852L38.3459 44.2836ZM32.4555 36.8556C33.5771 38.6815 35.6744 41.5538 38.3459 44.2836L40.4899 42.1852C37.9838 39.6245 36.0228 36.9313 35.0117 35.2854L32.4555 36.8556ZM32.5539 36.9789C32.5159 36.9416 32.4828 36.9001 32.4555 36.8556L35.0118 35.2854C34.91 35.1197 34.7897 34.9696 34.6546 34.8371L32.5539 36.9789ZM33.6133 28.5902C32.0666 30.4226 31.1861 32.9926 32.1649 36.3301L35.0436 35.4859C34.3659 33.1747 34.9669 31.6375 35.9058 30.5253L33.6133 28.5902ZM39.159 25.1612C37.524 25.5955 35.2193 26.6876 33.6133 28.5902L35.9058 30.5253C37.0091 29.2182 38.7068 28.3853 39.9291 28.0607L39.159 25.1612ZM39.0778 25.1887C39.1043 25.1777 39.1315 25.1685 39.159 25.1612L39.9291 28.0607C40.0305 28.0337 40.1293 28.0003 40.2249 27.9607L39.0778 25.1887ZM41.4963 24.9173C40.7854 25.0037 40.1289 25.0525 39.5862 25.0761L39.7166 28.0733C40.3304 28.0466 41.0645 27.9919 41.8583 27.8954L41.4963 24.9173ZM44.3806 25.7902C43.64 25.2748 42.7186 24.9186 41.6951 24.9065L41.6596 27.9062C41.9977 27.9102 42.3448 28.0284 42.667 28.2526L44.3806 25.7902ZM46.2236 28.2164C45.9631 27.3173 45.2836 26.4186 44.3806 25.7902L42.667 28.2526C42.8696 28.3936 43.0332 28.557 43.1524 28.7141C43.2759 28.8771 43.3276 29.0011 43.3421 29.0513L46.2236 28.2164ZM45.4183 27.7729C45.7631 27.673 46.1237 27.8716 46.2236 28.2164L43.3421 29.0513C43.7033 30.2978 45.0066 31.0156 46.2531 30.6544L45.4183 27.7729ZM44.9748 28.5782C44.8749 28.2334 45.0734 27.8729 45.4183 27.7729L46.2532 30.6544C47.4997 30.2933 48.2175 28.9899 47.8563 27.7434L44.9748 28.5782ZM43.8288 26.999C44.4303 27.4742 44.8273 28.069 44.9748 28.5782L47.8563 27.7434C47.5061 26.5348 46.6931 25.4386 45.6886 24.645L43.8288 26.999ZM45.346 24.0705C45.0316 24.1818 44.7035 24.2829 44.3665 24.3742L45.1509 27.2698C45.552 27.1612 45.9533 27.038 46.3476 26.8984L45.346 24.0705ZM44.9503 24.9003C44.8304 24.5619 45.0076 24.1903 45.346 24.0705L46.3476 26.8984C47.571 26.4651 48.2114 25.1221 47.7782 23.8987L44.9503 24.9003ZM45.7801 25.296C45.4417 25.4159 45.0702 25.2387 44.9503 24.9003L47.7782 23.8987C47.3449 22.6754 46.0019 22.0349 44.7786 22.4682L45.7801 25.296ZM41.759 26.1949C43.0126 26.0374 44.4607 25.7633 45.7801 25.296L44.7786 22.4682C43.7357 22.8375 42.5188 23.0758 41.385 23.2183L41.759 26.1949ZM41.1666 26.2414C41.3122 26.2198 41.455 26.2085 41.5946 26.2064L41.5494 23.2068C41.2789 23.2108 41.0044 23.2326 40.7269 23.2738L41.1666 26.2414ZM41.2731 26.2161C41.238 26.2277 41.2023 26.2361 41.1666 26.2414L40.7269 23.2738C40.5935 23.2935 40.4633 23.3245 40.3374 23.3658L41.2731 26.2161ZM39.0693 26.3925C39.5755 26.3846 40.2235 26.3527 40.9466 26.2843L40.6639 23.2976C40.0176 23.3588 39.4483 23.3862 39.0225 23.3928L39.0693 26.3925ZM32.7675 22.0312C33.6557 24.0803 35.4906 25.85 38.812 26.3743L39.2798 23.411C36.9756 23.0473 36.0009 21.9475 35.52 20.838L32.7675 22.0312ZM32.1594 16.9275C31.9573 18.3638 32.0071 20.2771 32.7675 22.0312L35.52 20.838C35.0421 19.7356 34.9795 18.416 35.1301 17.3455L32.1594 16.9275ZM34.2971 12.8002C33.4118 14.2391 32.608 15.7405 32.2641 16.5501L35.0254 17.7229C35.2849 17.1118 36.0013 15.7553 36.8522 14.3724L34.2971 12.8002ZM35.7553 10.6257C35.2796 11.26 34.7736 12.0258 34.2971 12.8002L36.8522 14.3724C37.3003 13.644 37.7535 12.9614 38.1553 12.4257L35.7553 10.6257ZM37.1254 9.16204C36.6948 9.4548 36.2133 10.015 35.7553 10.6257L38.1553 12.4257C38.3645 12.1468 38.5365 11.9395 38.6666 11.7969C38.814 11.6354 38.8583 11.6115 38.8123 11.6428L37.1254 9.16204ZM19.889 21.2674C20.0528 21.6001 20.1526 21.8953 20.2059 22.1561L23.145 21.5545C23.0334 21.0093 22.8411 20.4717 22.5805 19.9423L19.889 21.2674ZM31.1041 16.6388C26.9936 19.0709 23.5888 19.4142 21.4389 19.1188L21.0306 22.0909C23.9086 22.4863 27.9902 21.967 32.6318 19.2207L31.1041 16.6388ZM33.9604 21.5141C33.4691 20.3806 33.3179 19.127 33.3665 17.9941L30.3693 17.8654C30.3065 19.3286 30.4927 21.0574 31.2078 22.7072L33.9604 21.5141ZM37.152 24.5872C35.5022 23.9191 34.5158 22.7954 33.9604 21.5141L31.2078 22.7072C32.0507 24.6516 33.5893 26.3811 36.0259 27.3678L37.152 24.5872ZM34.6068 29.4289C35.3648 28.531 36.3241 27.8229 37.2992 27.2987L35.8788 24.6563C34.6497 25.3169 33.3675 26.2461 32.3144 27.4938L34.6068 29.4289ZM33.0565 33.8196C33.0054 32.0269 33.6369 30.578 34.6068 29.4289L32.3144 27.4938C30.9297 29.1342 29.983 31.2854 30.0577 33.9052L33.0565 33.8196ZM28.6316 33.939C29.3936 34.2121 30.0649 34.603 30.6374 35.0474L32.4768 32.6775C31.6821 32.0607 30.7352 31.506 29.6434 31.1148L28.6316 33.939ZM22.8134 34.316C25.1422 33.3038 27.0912 33.3872 28.6316 33.939L29.6434 31.1148C27.3653 30.2987 24.6271 30.2566 21.6176 31.5646L22.8134 34.316ZM20.4962 29.9051C20.7673 30.8554 20.8104 31.8743 20.7223 32.7979L23.7087 33.0827C23.823 31.8844 23.7787 30.4757 23.381 29.082L20.4962 29.9051ZM18.5856 27.1795C19.5896 27.856 20.1874 28.8229 20.4962 29.9051L23.381 29.082C22.9168 27.4548 21.9592 25.8352 20.2619 24.6915L18.5856 27.1795ZM19.9328 23.6531C19.6735 24.0241 19.2644 24.34 18.7569 24.5919L20.0906 27.2791C20.883 26.8858 21.7545 26.2835 22.3917 25.3718L19.9328 23.6531ZM20.2059 22.1561C20.3361 22.7917 20.2006 23.27 19.9328 23.6531L22.3917 25.3718C23.1315 24.3135 23.4401 22.9961 23.145 21.5545L20.2059 22.1561Z" fill="#F8F9FA" mask="url(#path-1-outside-1_50_11613)"/>
<path d="M32.9511 16.2275C26.2285 20.8638 20.974 20.0911 19.1871 19.1252C23.1279 23.6456 19.3803 25.4518 17.0139 25.7898C21.882 27.0648 21.7468 32.1164 21.0706 34.4828C27.3296 30.7738 31.5988 34.3862 32.9511 36.6561C30.633 29.9335 36.2351 26.6108 39.3259 25.7898C32.6033 24.9785 32.2749 19.0769 32.9511 16.2275Z" fill="#F3F0FF" stroke="#212529" stroke-width="1.8" stroke-linecap="round" stroke-linejoin="round"/>
<circle cx="27.6057" cy="25.4459" r="2.48886" fill="#748FFC" stroke="#212529" stroke-width="1.2" stroke-linecap="round" stroke-linejoin="round"/>
<path d="M32.79 16.9834C33.3418 15.5488 36.1668 10.6007 37.491 9.70022" stroke="#212529" stroke-width="1.8" stroke-linecap="round" stroke-linejoin="round"/>
<path d="M30.5388 10.0312C32.3927 10.5609 33.5449 11.6336 33.9156 14.0701" stroke="#212529" stroke-width="1.8" stroke-linecap="round" stroke-linejoin="round"/>
<path d="M38.611 25.743C39.869 25.7651 43.0206 25.5841 45.5631 24.6836" stroke="#212529" stroke-width="1.8" stroke-linecap="round" stroke-linejoin="round"/>
<path d="M45.5993 28.3979C45.1739 26.9298 43.2942 25.2695 41.0714 25.5988" stroke="#212529" stroke-width="1.8" stroke-linecap="round" stroke-linejoin="round"/>
<path d="M33.0095 36.5156C35.2049 40.0894 41.2803 47.8496 48.0195 50.3003" stroke="#212529" stroke-width="1.8" stroke-linecap="round" stroke-linejoin="round"/>
<path d="M48.7087 46.9307C47.9429 47.2625 45.5842 47.7271 42.2759 46.9307" stroke="#212529" stroke-width="1.8" stroke-linecap="round" stroke-linejoin="round"/>
<path d="M21.9666 33.9453C20.0776 35.2983 16.4221 39.2601 16.9122 44.2838" stroke="#212529" stroke-width="1.8" stroke-linecap="round" stroke-linejoin="round"/>
<path d="M11.3217 37.085C12.547 37.4934 15.6256 38.1876 18.1374 37.6976" stroke="#212529" stroke-width="1.8" stroke-linecap="round" stroke-linejoin="round"/>
<path d="M18.1837 26.0979C16.601 25.6895 13.0068 25.1176 11.2914 26.0979" stroke="#212529" stroke-width="1.8" stroke-linecap="round" stroke-linejoin="round"/>
<path d="M12.252 16.1123C14.3197 16.6994 18.7308 18.272 19.8335 19.8648" stroke="#212529" stroke-width="1.8" stroke-linecap="round" stroke-linejoin="round"/>
<path d="M16.5406 12.5898C16.2598 13.4577 16.0045 15.7449 17.2298 17.9505" stroke="#212529" stroke-width="1.8" stroke-linecap="round" stroke-linejoin="round"/>
</svg>
