<svg width="60" height="61" viewBox="0 0 60 61" fill="none" xmlns="http://www.w3.org/2000/svg">
<mask id="path-1-outside-1_50_5242" maskUnits="userSpaceOnUse" x="7.33875" y="6.8584" width="48" height="47" fill="black">
<rect fill="white" x="7.33875" y="6.8584" width="48" height="47"/>
<path fill-rule="evenodd" clip-rule="evenodd" d="M18.3188 8.8584C15.7671 8.8584 13.6985 10.927 13.6985 13.4788V46.1545C13.6985 46.5798 14.0432 46.9246 14.4685 46.9246H42.5593C42.9846 46.9246 43.3293 46.5798 43.3293 46.1545V23.1531C43.3913 23.1672 43.4557 23.1746 43.5219 23.1746H43.9726C45.0798 23.1746 45.9775 24.0722 45.9775 25.1794V37.4991C45.9775 39.1607 47.3245 40.5077 48.9861 40.5077C50.6478 40.5077 51.9948 39.1607 51.9948 37.4991V34.9239C52.4924 34.696 52.838 34.1936 52.838 33.6105V30.2479C52.838 29.763 52.599 29.3339 52.2324 29.0721L53.1227 26.8901C53.3035 26.4471 53.0909 25.9414 52.6479 25.7607C52.2049 25.5799 51.6992 25.7925 51.5185 26.2355L50.4454 28.8652C49.8515 29.0442 49.4188 29.5955 49.4188 30.2479V33.6105C49.4188 34.1936 49.7645 34.696 50.2621 34.9239V37.4991C50.2621 38.2038 49.6908 38.7751 48.9861 38.7751C48.2814 38.7751 47.7101 38.2038 47.7101 37.4991V25.1794C47.7101 23.1152 46.0366 21.442 43.9726 21.442H43.5219C43.4557 21.442 43.3913 21.4494 43.3293 21.4634V13.4788C43.3293 10.927 41.2607 8.8584 38.709 8.8584H18.3188ZM15.2386 13.4788C15.2386 11.7776 16.6177 10.3985 18.3188 10.3985H38.709C40.4102 10.3985 41.7892 11.7776 41.7892 13.4788V45.3845H15.2386V13.4788ZM9.33875 49.454C9.33875 48.0902 10.4443 46.9846 11.8081 46.9846H45.2195C46.5833 46.9846 47.6889 48.0902 47.6889 49.454C47.6889 50.8178 46.5833 51.9234 45.2195 51.9234H11.8081C10.4443 51.9234 9.33875 50.8178 9.33875 49.454ZM11.8081 48.9098C11.5076 48.9098 11.2639 49.1534 11.2639 49.454C11.2639 49.7546 11.5076 49.9982 11.8081 49.9982H45.2195C45.5201 49.9982 45.7637 49.7546 45.7637 49.454C45.7637 49.1534 45.5201 48.9098 45.2195 48.9098H11.8081Z"/>
</mask>
<path fill-rule="evenodd" clip-rule="evenodd" d="M18.3188 8.8584C15.7671 8.8584 13.6985 10.927 13.6985 13.4788V46.1545C13.6985 46.5798 14.0432 46.9246 14.4685 46.9246H42.5593C42.9846 46.9246 43.3293 46.5798 43.3293 46.1545V23.1531C43.3913 23.1672 43.4557 23.1746 43.5219 23.1746H43.9726C45.0798 23.1746 45.9775 24.0722 45.9775 25.1794V37.4991C45.9775 39.1607 47.3245 40.5077 48.9861 40.5077C50.6478 40.5077 51.9948 39.1607 51.9948 37.4991V34.9239C52.4924 34.696 52.838 34.1936 52.838 33.6105V30.2479C52.838 29.763 52.599 29.3339 52.2324 29.0721L53.1227 26.8901C53.3035 26.4471 53.0909 25.9414 52.6479 25.7607C52.2049 25.5799 51.6992 25.7925 51.5185 26.2355L50.4454 28.8652C49.8515 29.0442 49.4188 29.5955 49.4188 30.2479V33.6105C49.4188 34.1936 49.7645 34.696 50.2621 34.9239V37.4991C50.2621 38.2038 49.6908 38.7751 48.9861 38.7751C48.2814 38.7751 47.7101 38.2038 47.7101 37.4991V25.1794C47.7101 23.1152 46.0366 21.442 43.9726 21.442H43.5219C43.4557 21.442 43.3913 21.4494 43.3293 21.4634V13.4788C43.3293 10.927 41.2607 8.8584 38.709 8.8584H18.3188ZM15.2386 13.4788C15.2386 11.7776 16.6177 10.3985 18.3188 10.3985H38.709C40.4102 10.3985 41.7892 11.7776 41.7892 13.4788V45.3845H15.2386V13.4788ZM9.33875 49.454C9.33875 48.0902 10.4443 46.9846 11.8081 46.9846H45.2195C46.5833 46.9846 47.6889 48.0902 47.6889 49.454C47.6889 50.8178 46.5833 51.9234 45.2195 51.9234H11.8081C10.4443 51.9234 9.33875 50.8178 9.33875 49.454ZM11.8081 48.9098C11.5076 48.9098 11.2639 49.1534 11.2639 49.454C11.2639 49.7546 11.5076 49.9982 11.8081 49.9982H45.2195C45.5201 49.9982 45.7637 49.7546 45.7637 49.454C45.7637 49.1534 45.5201 48.9098 45.2195 48.9098H11.8081Z" fill="#F8F9FA"/>
<path d="M43.3293 23.1531L43.6613 21.6903C43.2164 21.5894 42.7498 21.6964 42.3934 21.981C42.0369 22.2656 41.8293 22.697 41.8293 23.1531H43.3293ZM51.9948 34.9239L51.3701 33.5601C50.8368 33.8044 50.4948 34.3372 50.4948 34.9239H51.9948ZM52.2324 29.0721L50.8435 28.5054C50.5809 29.149 50.7949 29.8887 51.3606 30.2927L52.2324 29.0721ZM53.1227 26.8901L54.5115 27.4568L54.5115 27.4568L53.1227 26.8901ZM52.6479 25.7607L53.2146 24.3718L53.2146 24.3718L52.6479 25.7607ZM51.5185 26.2355L52.9073 26.8022L52.9073 26.8022L51.5185 26.2355ZM50.4454 28.8652L50.8783 30.3014C51.3118 30.1707 51.6632 29.8512 51.8343 29.4319L50.4454 28.8652ZM50.2621 34.9239H51.7621C51.7621 34.3372 51.4201 33.8044 50.8867 33.5601L50.2621 34.9239ZM43.3293 21.4634H41.8293C41.8293 21.9196 42.0369 22.351 42.3934 22.6356C42.7498 22.9202 43.2164 23.0272 43.6613 22.9263L43.3293 21.4634ZM41.7892 45.3845V46.8845C42.6176 46.8845 43.2892 46.2129 43.2892 45.3845H41.7892ZM15.2386 45.3845H13.7386C13.7386 46.2129 14.4102 46.8845 15.2386 46.8845V45.3845ZM15.1985 13.4788C15.1985 11.7554 16.5955 10.3584 18.3188 10.3584V7.3584C14.9387 7.3584 12.1985 10.0986 12.1985 13.4788H15.1985ZM15.1985 46.1545V13.4788H12.1985V46.1545H15.1985ZM14.4685 45.4246C14.8717 45.4246 15.1985 45.7514 15.1985 46.1545H12.1985C12.1985 47.4082 13.2148 48.4246 14.4685 48.4246V45.4246ZM42.5593 45.4246H14.4685V48.4246H42.5593V45.4246ZM41.8293 46.1545C41.8293 45.7514 42.1561 45.4246 42.5593 45.4246V48.4246C43.813 48.4246 44.8293 47.4082 44.8293 46.1545H41.8293ZM41.8293 23.1531V46.1545H44.8293V23.1531H41.8293ZM43.5219 21.6746C43.5681 21.6746 43.615 21.6798 43.6613 21.6903L42.9974 24.616C43.1675 24.6546 43.3432 24.6746 43.5219 24.6746V21.6746ZM43.9726 21.6746H43.5219V24.6746H43.9726V21.6746ZM47.4775 25.1794C47.4775 23.2437 45.9082 21.6746 43.9726 21.6746V24.6746C44.2515 24.6746 44.4775 24.9007 44.4775 25.1794H47.4775ZM47.4775 37.4991V25.1794H44.4775V37.4991H47.4775ZM48.9861 39.0077C48.1529 39.0077 47.4775 38.3323 47.4775 37.4991H44.4775C44.4775 39.9891 46.4961 42.0077 48.9861 42.0077V39.0077ZM50.4948 37.4991C50.4948 38.3323 49.8193 39.0077 48.9861 39.0077V42.0077C51.4762 42.0077 53.4948 39.9891 53.4948 37.4991H50.4948ZM50.4948 34.9239V37.4991H53.4948V34.9239H50.4948ZM51.338 33.6105C51.338 33.6073 51.3386 33.6016 51.3407 33.5948C51.3426 33.5884 51.3453 33.583 51.3481 33.5787C51.353 33.5712 51.3598 33.5649 51.3701 33.5601L52.6194 36.2876C53.6306 35.8245 54.338 34.8017 54.338 33.6105H51.338ZM51.338 30.2479V33.6105H54.338V30.2479H51.338ZM51.3606 30.2927C51.3547 30.2885 51.3495 30.2829 51.3453 30.275C51.3431 30.2707 51.3411 30.2657 51.3398 30.2603C51.3384 30.2548 51.338 30.2503 51.338 30.2479H54.338C54.338 29.258 53.8481 28.3827 53.1041 27.8514L51.3606 30.2927ZM51.7339 26.3234L50.8435 28.5054L53.6212 29.6388L54.5115 27.4568L51.7339 26.3234ZM52.0812 27.1495C51.7572 27.0173 51.6017 26.6474 51.7339 26.3234L54.5115 27.4568C55.0053 26.2468 54.4246 24.8656 53.2146 24.3718L52.0812 27.1495ZM52.9073 26.8022C52.7751 27.1262 52.4052 27.2817 52.0812 27.1495L53.2146 24.3718C52.0046 23.8781 50.6234 24.4588 50.1297 25.6688L52.9073 26.8022ZM51.8343 29.4319L52.9073 26.8022L50.1297 25.6688L49.0566 28.2985L51.8343 29.4319ZM50.9188 30.2479C50.9188 30.2516 50.9181 30.2582 50.9155 30.2657C50.9131 30.2728 50.9099 30.2783 50.9068 30.2825C50.9014 30.2896 50.8926 30.2971 50.8783 30.3014L50.0126 27.429C48.8027 27.7937 47.9188 28.9156 47.9188 30.2479H50.9188ZM50.9188 33.6105V30.2479H47.9188V33.6105H50.9188ZM50.8867 33.5601C50.8971 33.5649 50.9039 33.5712 50.9088 33.5787C50.9116 33.583 50.9143 33.5884 50.9162 33.5948C50.9183 33.6016 50.9188 33.6073 50.9188 33.6105H47.9188C47.9188 34.8017 48.6263 35.8245 49.6375 36.2877L50.8867 33.5601ZM51.7621 37.4991V34.9239H48.7621V37.4991H51.7621ZM48.9861 40.2751C50.5193 40.2751 51.7621 39.0322 51.7621 37.4991H48.7621C48.7621 37.3754 48.8624 37.2751 48.9861 37.2751V40.2751ZM46.2101 37.4991C46.2101 39.0322 47.453 40.2751 48.9861 40.2751V37.2751C49.1098 37.2751 49.2101 37.3754 49.2101 37.4991H46.2101ZM46.2101 25.1794V37.4991H49.2101V25.1794H46.2101ZM43.9726 22.942C45.2083 22.942 46.2101 23.9438 46.2101 25.1794H49.2101C49.2101 22.2867 46.865 19.942 43.9726 19.942V22.942ZM43.5219 22.942H43.9726V19.942H43.5219V22.942ZM43.6613 22.9263C43.615 22.9368 43.5681 22.942 43.5219 22.942V19.942C43.3432 19.942 43.1675 19.962 42.9974 20.0006L43.6613 22.9263ZM41.8293 13.4788V21.4634H44.8293V13.4788H41.8293ZM38.709 10.3584C40.4323 10.3584 41.8293 11.7554 41.8293 13.4788H44.8293C44.8293 10.0986 42.0892 7.3584 38.709 7.3584V10.3584ZM18.3188 10.3584H38.709V7.3584H18.3188V10.3584ZM18.3188 8.89852C15.7892 8.89852 13.7386 10.9492 13.7386 13.4788H16.7386C16.7386 12.606 17.4461 11.8985 18.3188 11.8985V8.89852ZM38.709 8.89852H18.3188V11.8985H38.709V8.89852ZM43.2892 13.4788C43.2892 10.9492 41.2386 8.89852 38.709 8.89852V11.8985C39.5817 11.8985 40.2892 12.606 40.2892 13.4788H43.2892ZM43.2892 45.3845V13.4788H40.2892V45.3845H43.2892ZM15.2386 46.8845H41.7892V43.8845H15.2386V46.8845ZM13.7386 13.4788V45.3845H16.7386V13.4788H13.7386ZM11.8081 45.4846C9.61589 45.4846 7.83875 47.2618 7.83875 49.454H10.8387C10.8387 48.9186 11.2728 48.4846 11.8081 48.4846V45.4846ZM45.2195 45.4846H11.8081V48.4846H45.2195V45.4846ZM49.1889 49.454C49.1889 47.2618 47.4117 45.4846 45.2195 45.4846V48.4846C45.7549 48.4846 46.1889 48.9186 46.1889 49.454H49.1889ZM45.2195 53.4234C47.4117 53.4234 49.1889 51.6462 49.1889 49.454H46.1889C46.1889 49.9894 45.7549 50.4234 45.2195 50.4234V53.4234ZM11.8081 53.4234H45.2195V50.4234H11.8081V53.4234ZM7.83875 49.454C7.83875 51.6462 9.61589 53.4234 11.8081 53.4234V50.4234C11.2727 50.4234 10.8387 49.9894 10.8387 49.454H7.83875ZM12.7639 49.454C12.7639 49.9818 12.336 50.4098 11.8081 50.4098V47.4098C10.6791 47.4098 9.7639 48.325 9.7639 49.454H12.7639ZM11.8081 48.4982C12.336 48.4982 12.7639 48.9261 12.7639 49.454H9.7639C9.7639 50.583 10.6791 51.4982 11.8081 51.4982V48.4982ZM45.2195 48.4982H11.8081V51.4982H45.2195V48.4982ZM44.2637 49.454C44.2637 48.9261 44.6916 48.4982 45.2195 48.4982V51.4982C46.3485 51.4982 47.2637 50.583 47.2637 49.454H44.2637ZM45.2195 50.4098C44.6916 50.4098 44.2637 49.9818 44.2637 49.454H47.2637C47.2637 48.325 46.3485 47.4098 45.2195 47.4098V50.4098ZM11.8081 50.4098H45.2195V47.4098H11.8081V50.4098Z" fill="#F8F9FA" mask="url(#path-1-outside-1_50_5242)"/>
<path d="M14.6278 13.7012C14.6278 11.492 16.4187 9.70117 18.6278 9.70117H38.7186C40.9277 9.70117 42.7186 11.492 42.7186 13.7012V48.02H14.6278V13.7012Z" fill="#FA5252" stroke="#212529" stroke-width="1.6" stroke-linecap="round" stroke-linejoin="round"/>
<path d="M17.7466 13.9146C17.7466 13.3623 18.1943 12.9146 18.7466 12.9146H38.5996C39.1519 12.9146 39.5996 13.3623 39.5996 13.9146V24.5705H17.7466V13.9146Z" fill="#E9ECEF" stroke="#212529" stroke-width="1.2" stroke-linecap="round" stroke-linejoin="round"/>
<path d="M29.1311 21.4756C27.4219 21.4756 26.0363 22.8612 26.0363 24.5704H32.2259C32.2259 22.8612 30.8403 21.4756 29.1311 21.4756Z" fill="#B197FC" stroke="#212529" stroke-linecap="round" stroke-linejoin="round"/>
<path d="M36.036 19.0042L31.6402 22.3944" stroke="#212529" stroke-linecap="round" stroke-linejoin="round"/>
<path d="M34.649 17.3902C34.0001 16.6512 32.4062 15.2057 29.2314 15.2348C26.0565 15.2639 23.3405 16.5884 21.1776 19.0757" stroke="#212529" stroke-linecap="round" stroke-linejoin="round"/>
<rect x="23.8805" y="27.7217" width="9.58528" height="4.60991" rx="1" fill="#DEE2E6" stroke="#212529" stroke-linecap="round" stroke-linejoin="round"/>
<path d="M43.6812 22.3809C43.8273 22.3809 43.9784 22.3809 44.1319 22.3809C45.7175 22.3809 47.0031 23.6663 47.0031 25.252V37.5716C47.0031 38.7548 47.9622 39.7139 49.1454 39.7139V39.7139C50.3286 39.7139 51.2877 38.7548 51.2877 37.5716V29.557L52.4799 26.6353" stroke="#212529" stroke-width="1.8" stroke-linecap="round" stroke-linejoin="round"/>
<rect x="10.4606" y="48.02" width="36.425" height="3.0136" rx="1.5068" fill="#FA5252" stroke="#212529" stroke-width="1.6" stroke-linecap="round" stroke-linejoin="round"/>
<rect x="50.0594" y="29.3579" width="2.45662" height="5.28776" rx="1" fill="#FA5252" stroke="#212529" stroke-linecap="round" stroke-linejoin="round"/>
<g style="mix-blend-mode:multiply">
<path fill-rule="evenodd" clip-rule="evenodd" d="M14.6278 47.1864V47.441H42.7186V13.7012C42.7186 11.492 40.9277 9.70117 38.7186 9.70117H37.0155C39.2247 9.70117 41.0155 11.492 41.0155 13.7012V47.1864H14.6278Z" fill="#E9ECEF"/>
</g>
<g style="mix-blend-mode:multiply">
<rect x="18.0292" y="13.4731" width="1.02465" height="10.5154" fill="#E9ECEF"/>
</g>
</svg>
