<svg width="60" height="61" viewBox="0 0 60 61" fill="none" xmlns="http://www.w3.org/2000/svg">
<mask id="path-1-outside-1_50_2826" maskUnits="userSpaceOnUse" x="8.31299" y="8.95117" width="44" height="45" fill="black">
<rect fill="white" x="8.31299" y="8.95117" width="44" height="45"/>
<path fill-rule="evenodd" clip-rule="evenodd" d="M29.8433 10.9512C27.7577 10.9512 25.7484 11.2952 23.8714 11.9313C23.0995 12.1928 22.5919 12.8795 22.5212 13.6419C16.5394 16.5087 12.408 22.6193 12.4056 29.695C11.269 30.0134 10.4354 31.057 10.4354 32.2952V39.0941C10.4354 40.5853 11.6443 41.7941 13.1354 41.7941H16.512C16.8057 42.4099 17.4341 42.8353 18.1618 42.8353H18.3882C19.3972 42.8353 20.2152 42.0174 20.2152 41.0084V30.1961C20.2152 29.1871 19.3972 28.3691 18.3882 28.3691H18.1618C17.3633 28.3691 16.6845 28.8814 16.436 29.5952H14.8059C14.8476 23.4214 18.5225 18.1105 23.7995 15.6938C24.2195 15.8545 24.6959 15.8753 25.1551 15.7197C26.624 15.2219 28.1999 14.9512 29.8433 14.9512C31.7251 14.9512 33.5192 15.3062 35.1656 15.9512C35.7518 16.1808 36.3808 16.1148 36.888 15.8252C42.0149 18.2992 45.5613 23.5309 45.6022 29.5952H44.3125C44.064 28.8814 43.3851 28.3691 42.5866 28.3691H42.3602C41.3512 28.3691 40.5332 29.1871 40.5332 30.1961V41.0084C40.5332 42.0174 41.3512 42.8353 42.3602 42.8353H42.5866C43.3143 42.8353 43.9427 42.4099 44.2365 41.7941H45.9741L45.1479 46.9412C45.0545 47.523 44.5524 47.951 43.963 47.951H38.1643C37.8207 46.8051 36.758 45.9702 35.5003 45.9702C33.9644 45.9702 32.7194 47.2153 32.7194 48.7511C32.7194 50.287 33.9644 51.532 35.5003 51.532C36.7581 51.532 37.8208 50.6969 38.1644 49.551H43.963C45.3381 49.551 46.5097 48.5525 46.7276 47.1948L47.5946 41.7941H47.613C49.1042 41.7941 50.313 40.5853 50.313 39.0941V32.2952C50.313 30.9363 49.3091 29.8119 48.0024 29.6231C47.972 22.5591 43.8265 16.4666 37.8393 13.6191C37.6907 13.0067 37.2558 12.474 36.6246 12.2267C34.5208 11.4026 32.2324 10.9512 29.8433 10.9512ZM43.1215 41.3356C43.0113 41.5154 42.813 41.6353 42.5866 41.6353H42.3602C42.0139 41.6353 41.7332 41.3546 41.7332 41.0084V30.1961C41.7332 29.8498 42.0139 29.5691 42.3602 29.5691H42.5866C42.848 29.5691 43.0719 29.729 43.1661 29.9563C43.1104 30.0567 43.0787 30.1723 43.0787 30.2952V41.0941C43.0787 41.179 43.0938 41.2603 43.1215 41.3356ZM48.0026 32.0654V31.0546C48.5302 31.2201 48.913 31.713 48.913 32.2952V39.0941C48.913 39.8121 48.331 40.3941 47.613 40.3941H47.6084C47.4894 40.2122 47.2971 40.0791 47.0656 40.042C46.744 39.9903 46.4364 40.1381 46.2689 40.3941H44.4787V30.9952H45.6026V32.0654C45.6026 32.7282 46.1398 33.2654 46.8026 33.2654C47.4653 33.2654 48.0026 32.7282 48.0026 32.0654ZM17.5823 29.9563C17.6765 29.729 17.9005 29.5691 18.1618 29.5691H18.3882C18.7345 29.5691 19.0152 29.8498 19.0152 30.1961V41.0084C19.0152 41.3546 18.7345 41.6353 18.3882 41.6353H18.1618C17.9355 41.6353 17.7371 41.5154 17.6269 41.3356C17.6546 41.2603 17.6697 41.179 17.6697 41.0941V30.2952C17.6697 30.1723 17.638 30.0567 17.5823 29.9563ZM14.8056 32.0654V30.9952H16.2697V40.3941H13.1354C12.4175 40.3941 11.8354 39.8121 11.8354 39.0941V32.2952C11.8354 31.8478 12.0615 31.4531 12.4056 31.2193V32.0654C12.4056 32.7282 12.9428 33.2654 13.6056 33.2654C14.2683 33.2654 14.8056 32.7282 14.8056 32.0654ZM36.8642 49.551C36.5895 50.0183 36.0815 50.332 35.5003 50.332C34.6272 50.332 33.9194 49.6242 33.9194 48.7511C33.9194 47.878 34.6272 47.1702 35.5003 47.1702C36.0814 47.1702 36.5893 47.4838 36.864 47.951H36.5583C36.1165 47.951 35.7583 48.3092 35.7583 48.751C35.7583 49.1928 36.1165 49.551 36.5583 49.551H36.8642Z"/>
</mask>
<path fill-rule="evenodd" clip-rule="evenodd" d="M29.8433 10.9512C27.7577 10.9512 25.7484 11.2952 23.8714 11.9313C23.0995 12.1928 22.5919 12.8795 22.5212 13.6419C16.5394 16.5087 12.408 22.6193 12.4056 29.695C11.269 30.0134 10.4354 31.057 10.4354 32.2952V39.0941C10.4354 40.5853 11.6443 41.7941 13.1354 41.7941H16.512C16.8057 42.4099 17.4341 42.8353 18.1618 42.8353H18.3882C19.3972 42.8353 20.2152 42.0174 20.2152 41.0084V30.1961C20.2152 29.1871 19.3972 28.3691 18.3882 28.3691H18.1618C17.3633 28.3691 16.6845 28.8814 16.436 29.5952H14.8059C14.8476 23.4214 18.5225 18.1105 23.7995 15.6938C24.2195 15.8545 24.6959 15.8753 25.1551 15.7197C26.624 15.2219 28.1999 14.9512 29.8433 14.9512C31.7251 14.9512 33.5192 15.3062 35.1656 15.9512C35.7518 16.1808 36.3808 16.1148 36.888 15.8252C42.0149 18.2992 45.5613 23.5309 45.6022 29.5952H44.3125C44.064 28.8814 43.3851 28.3691 42.5866 28.3691H42.3602C41.3512 28.3691 40.5332 29.1871 40.5332 30.1961V41.0084C40.5332 42.0174 41.3512 42.8353 42.3602 42.8353H42.5866C43.3143 42.8353 43.9427 42.4099 44.2365 41.7941H45.9741L45.1479 46.9412C45.0545 47.523 44.5524 47.951 43.963 47.951H38.1643C37.8207 46.8051 36.758 45.9702 35.5003 45.9702C33.9644 45.9702 32.7194 47.2153 32.7194 48.7511C32.7194 50.287 33.9644 51.532 35.5003 51.532C36.7581 51.532 37.8208 50.6969 38.1644 49.551H43.963C45.3381 49.551 46.5097 48.5525 46.7276 47.1948L47.5946 41.7941H47.613C49.1042 41.7941 50.313 40.5853 50.313 39.0941V32.2952C50.313 30.9363 49.3091 29.8119 48.0024 29.6231C47.972 22.5591 43.8265 16.4666 37.8393 13.6191C37.6907 13.0067 37.2558 12.474 36.6246 12.2267C34.5208 11.4026 32.2324 10.9512 29.8433 10.9512ZM43.1215 41.3356C43.0113 41.5154 42.813 41.6353 42.5866 41.6353H42.3602C42.0139 41.6353 41.7332 41.3546 41.7332 41.0084V30.1961C41.7332 29.8498 42.0139 29.5691 42.3602 29.5691H42.5866C42.848 29.5691 43.0719 29.729 43.1661 29.9563C43.1104 30.0567 43.0787 30.1723 43.0787 30.2952V41.0941C43.0787 41.179 43.0938 41.2603 43.1215 41.3356ZM48.0026 32.0654V31.0546C48.5302 31.2201 48.913 31.713 48.913 32.2952V39.0941C48.913 39.8121 48.331 40.3941 47.613 40.3941H47.6084C47.4894 40.2122 47.2971 40.0791 47.0656 40.042C46.744 39.9903 46.4364 40.1381 46.2689 40.3941H44.4787V30.9952H45.6026V32.0654C45.6026 32.7282 46.1398 33.2654 46.8026 33.2654C47.4653 33.2654 48.0026 32.7282 48.0026 32.0654ZM17.5823 29.9563C17.6765 29.729 17.9005 29.5691 18.1618 29.5691H18.3882C18.7345 29.5691 19.0152 29.8498 19.0152 30.1961V41.0084C19.0152 41.3546 18.7345 41.6353 18.3882 41.6353H18.1618C17.9355 41.6353 17.7371 41.5154 17.6269 41.3356C17.6546 41.2603 17.6697 41.179 17.6697 41.0941V30.2952C17.6697 30.1723 17.638 30.0567 17.5823 29.9563ZM14.8056 32.0654V30.9952H16.2697V40.3941H13.1354C12.4175 40.3941 11.8354 39.8121 11.8354 39.0941V32.2952C11.8354 31.8478 12.0615 31.4531 12.4056 31.2193V32.0654C12.4056 32.7282 12.9428 33.2654 13.6056 33.2654C14.2683 33.2654 14.8056 32.7282 14.8056 32.0654ZM36.8642 49.551C36.5895 50.0183 36.0815 50.332 35.5003 50.332C34.6272 50.332 33.9194 49.6242 33.9194 48.7511C33.9194 47.878 34.6272 47.1702 35.5003 47.1702C36.0814 47.1702 36.5893 47.4838 36.864 47.951H36.5583C36.1165 47.951 35.7583 48.3092 35.7583 48.751C35.7583 49.1928 36.1165 49.551 36.5583 49.551H36.8642Z" fill="#F8F9FA"/>
<path d="M23.8714 11.9313L24.3528 13.3519L24.3528 13.3519L23.8714 11.9313ZM22.5212 13.6419L24.0148 13.7804C23.9661 14.3056 23.6451 14.7666 23.1695 14.9945L22.5212 13.6419ZM12.4056 29.695L13.9056 29.6955C13.9053 30.368 13.4577 30.9581 12.8102 31.1394L12.4056 29.695ZM16.512 41.7941V40.2941C17.0901 40.2941 17.6168 40.6264 17.8658 41.1482L16.512 41.7941ZM16.436 29.5952L17.8526 30.0884C17.6427 30.6912 17.0743 31.0952 16.436 31.0952V29.5952ZM14.8059 29.5952V31.0952C14.4064 31.0952 14.0233 30.9358 13.7417 30.6523C13.4601 30.3688 13.3033 29.9847 13.306 29.5851L14.8059 29.5952ZM23.7995 15.6938L23.1749 14.33C23.5411 14.1623 23.9594 14.1489 24.3356 14.2929L23.7995 15.6938ZM25.1551 15.7197L25.6365 17.1403L25.6365 17.1403L25.1551 15.7197ZM35.1656 15.9512L34.6185 17.3478L35.1656 15.9512ZM36.888 15.8252L36.1441 14.5226C36.5731 14.2777 37.0951 14.2596 37.5399 14.4742L36.888 15.8252ZM45.6022 29.5952L47.1022 29.5851C47.1049 29.9847 46.9481 30.3688 46.6665 30.6523C46.3849 30.9358 46.0018 31.0952 45.6022 31.0952V29.5952ZM44.3125 29.5952V31.0952C43.6741 31.0952 43.1057 30.6912 42.8958 30.0884L44.3125 29.5952ZM44.2365 41.7941L42.8826 41.1482C43.1316 40.6264 43.6583 40.2941 44.2365 40.2941V41.7941ZM45.9741 41.7941V40.2941C46.4134 40.2941 46.8307 40.4867 47.1157 40.8211C47.4007 41.1555 47.5248 41.598 47.4551 42.0318L45.9741 41.7941ZM45.1479 46.9412L43.6668 46.7034L43.6668 46.7034L45.1479 46.9412ZM38.1643 47.951V49.451C37.5019 49.451 36.9179 49.0164 36.7275 48.3819L38.1643 47.951ZM38.1644 49.551L36.7276 49.1202C36.9178 48.4856 37.5019 48.051 38.1644 48.051V49.551ZM46.7276 47.1948L48.2087 47.4325L48.2087 47.4325L46.7276 47.1948ZM47.5946 41.7941L46.1135 41.5564C46.2303 40.829 46.8579 40.2941 47.5946 40.2941V41.7941ZM48.0024 29.6231L47.788 31.1077C47.0525 31.0014 46.5056 30.3727 46.5024 29.6296L48.0024 29.6231ZM37.8393 13.6191L37.195 14.9737C36.7869 14.7796 36.4881 14.4119 36.3816 13.9727L37.8393 13.6191ZM36.6246 12.2267L37.1717 10.8301L37.1717 10.8301L36.6246 12.2267ZM43.1215 41.3356L44.5294 40.8181C44.6877 41.2488 44.6402 41.7283 44.4003 42.1196L43.1215 41.3356ZM43.1661 29.9563L44.5519 29.3823C44.7269 29.8046 44.6996 30.2837 44.478 30.6836L43.1661 29.9563ZM48.0026 31.0546H46.5026C46.5026 30.5771 46.7299 30.1282 47.1148 29.8456C47.4996 29.563 47.996 29.4805 48.4516 29.6234L48.0026 31.0546ZM47.6084 40.3941V41.8941C47.1022 41.8941 46.6302 41.6388 46.3531 41.2153L47.6084 40.3941ZM47.0656 40.042L47.3033 38.5609L47.3033 38.5609L47.0656 40.042ZM46.2689 40.3941L47.5241 41.2154C47.247 41.6389 46.775 41.8941 46.2689 41.8941V40.3941ZM44.4787 40.3941V41.8941C43.6503 41.8941 42.9787 41.2225 42.9787 40.3941H44.4787ZM44.4787 30.9952H42.9787C42.9787 30.1668 43.6503 29.4952 44.4787 29.4952V30.9952ZM45.6026 30.9952V29.4952C46.431 29.4952 47.1026 30.1668 47.1026 30.9952H45.6026ZM17.5823 29.9563L16.2704 30.6836C16.0488 30.2837 16.0216 29.8046 16.1965 29.3823L17.5823 29.9563ZM17.6269 41.3356L16.3481 42.1196C16.1082 41.7283 16.0607 41.2488 16.219 40.8181L17.6269 41.3356ZM14.8056 30.9952H13.3056C13.3056 30.1668 13.9772 29.4952 14.8056 29.4952V30.9952ZM16.2697 30.9952V29.4952C17.0981 29.4952 17.7697 30.1668 17.7697 30.9952H16.2697ZM16.2697 40.3941H17.7697C17.7697 41.2225 17.0981 41.8941 16.2697 41.8941V40.3941ZM12.4056 31.2193L11.5624 29.9787C12.0219 29.6664 12.6164 29.6336 13.1074 29.8936C13.5985 30.1536 13.9056 30.6637 13.9056 31.2193H12.4056ZM36.8642 49.551V48.051C37.4021 48.051 37.8989 48.3391 38.1661 48.806C38.4333 49.273 38.4299 49.8472 38.1574 50.311L36.8642 49.551ZM36.864 47.951L38.1571 47.1907C38.4298 47.6545 38.4332 48.2288 38.166 48.6958C37.8988 49.1628 37.402 49.451 36.864 49.451V47.951ZM23.39 10.5106C25.42 9.82272 27.5918 9.45117 29.8433 9.45117V12.4512C27.9235 12.4512 26.0767 12.7677 24.3528 13.3519L23.39 10.5106ZM21.0276 13.5034C21.151 12.1728 22.037 10.9691 23.39 10.5106L24.3528 13.3519C24.162 13.4166 24.0328 13.5863 24.0148 13.7804L21.0276 13.5034ZM10.9056 29.6945C10.9082 22.0202 15.3905 15.396 21.8729 12.2892L23.1695 14.9945C17.6883 17.6215 13.9078 23.2184 13.9056 29.6955L10.9056 29.6945ZM8.93542 32.2952C8.93542 30.3669 10.2337 28.7456 12.001 28.2506L12.8102 31.1394C12.3043 31.2811 11.9354 31.747 11.9354 32.2952H8.93542ZM8.93542 39.0941V32.2952H11.9354V39.0941H8.93542ZM13.1354 43.2941C10.8158 43.2941 8.93542 41.4137 8.93542 39.0941H11.9354C11.9354 39.7568 12.4727 40.2941 13.1354 40.2941V43.2941ZM16.512 43.2941H13.1354V40.2941H16.512V43.2941ZM18.1618 44.3353C16.8343 44.3353 15.6914 43.5578 15.1581 42.44L17.8658 41.1482C17.92 41.2619 18.0338 41.3353 18.1618 41.3353V44.3353ZM18.3882 44.3353H18.1618V41.3353H18.3882V44.3353ZM21.7152 41.0084C21.7152 42.8458 20.2256 44.3353 18.3882 44.3353V41.3353C18.5688 41.3353 18.7152 41.189 18.7152 41.0084H21.7152ZM21.7152 30.1961V41.0084H18.7152V30.1961H21.7152ZM18.3882 26.8691C20.2256 26.8691 21.7152 28.3587 21.7152 30.1961H18.7152C18.7152 30.0155 18.5688 29.8691 18.3882 29.8691V26.8691ZM18.1618 26.8691H18.3882V29.8691H18.1618V26.8691ZM15.0193 29.102C15.4712 27.8041 16.7054 26.8691 18.1618 26.8691V29.8691C18.0212 29.8691 17.8977 29.9587 17.8526 30.0884L15.0193 29.102ZM14.8059 28.0952H16.436V31.0952H14.8059V28.0952ZM24.4241 17.0576C19.6578 19.2404 16.3435 24.0355 16.3059 29.6053L13.306 29.5851C13.3517 22.8073 17.3872 16.9806 23.1749 14.33L24.4241 17.0576ZM25.6365 17.1403C24.8341 17.4122 23.9978 17.3758 23.2634 17.0948L24.3356 14.2929C24.4412 14.3333 24.5577 14.3383 24.6737 14.299L25.6365 17.1403ZM29.8433 16.4512C28.3658 16.4512 26.9523 16.6944 25.6365 17.1403L24.6737 14.299C26.2956 13.7494 28.0341 13.4512 29.8433 13.4512V16.4512ZM34.6185 17.3478C33.1436 16.7701 31.5349 16.4512 29.8433 16.4512V13.4512C31.9153 13.4512 33.8948 13.8424 35.7127 14.5545L34.6185 17.3478ZM37.6319 17.1277C36.7476 17.6327 35.6449 17.7499 34.6185 17.3478L35.7127 14.5545C35.8587 14.6117 36.014 14.5969 36.1441 14.5226L37.6319 17.1277ZM44.1023 29.6053C44.0653 24.1343 40.8671 19.4108 36.2361 17.1761L37.5399 14.4742C43.1627 17.1876 47.0573 22.9275 47.1022 29.5851L44.1023 29.6053ZM44.3125 28.0952H45.6022V31.0952H44.3125V28.0952ZM42.8958 30.0884C42.8507 29.9587 42.7272 29.8691 42.5866 29.8691V26.8691C44.043 26.8691 45.2772 27.8041 45.7291 29.1021L42.8958 30.0884ZM42.5866 29.8691H42.3602V26.8691H42.5866V29.8691ZM42.3602 29.8691C42.1796 29.8691 42.0332 30.0155 42.0332 30.1961H39.0332C39.0332 28.3587 40.5228 26.8691 42.3602 26.8691V29.8691ZM42.0332 30.1961V41.0084H39.0332V30.1961H42.0332ZM42.0332 41.0084C42.0332 41.189 42.1796 41.3353 42.3602 41.3353V44.3353C40.5228 44.3353 39.0332 42.8458 39.0332 41.0084H42.0332ZM42.3602 41.3353H42.5866V44.3353H42.3602V41.3353ZM42.5866 41.3353C42.7146 41.3353 42.8284 41.2619 42.8826 41.1482L45.5903 42.44C45.057 43.5578 43.9141 44.3353 42.5866 44.3353V41.3353ZM45.9741 43.2941H44.2365V40.2941H45.9741V43.2941ZM43.6668 46.7034L44.493 41.5564L47.4551 42.0318L46.6289 47.1789L43.6668 46.7034ZM43.963 46.451C43.8157 46.451 43.6902 46.558 43.6668 46.7034L46.6289 47.1789C46.4187 48.4881 45.289 49.451 43.963 49.451V46.451ZM38.1643 46.451H43.963V49.451H38.1643V46.451ZM35.5003 44.4702C37.4386 44.4702 39.0724 45.7573 39.6011 47.5201L36.7275 48.3819C36.5689 47.853 36.0773 47.4702 35.5003 47.4702V44.4702ZM31.2194 48.7511C31.2194 46.3868 33.136 44.4702 35.5003 44.4702V47.4702C34.7928 47.4702 34.2194 48.0437 34.2194 48.7511H31.2194ZM35.5003 53.032C33.136 53.032 31.2194 51.1154 31.2194 48.7511H34.2194C34.2194 49.4585 34.7928 50.032 35.5003 50.032V53.032ZM39.6012 49.9818C39.0726 51.7447 37.4387 53.032 35.5003 53.032V50.032C36.0774 50.032 36.569 49.6491 36.7276 49.1202L39.6012 49.9818ZM43.963 51.051H38.1644V48.051H43.963V51.051ZM48.2087 47.4325C47.874 49.5176 46.0748 51.051 43.963 51.051V48.051C44.6015 48.051 45.1454 47.5874 45.2466 46.957L48.2087 47.4325ZM49.0756 42.0318L48.2087 47.4325L45.2466 46.957L46.1135 41.5564L49.0756 42.0318ZM47.613 43.2941H47.5946V40.2941H47.613V43.2941ZM51.813 39.0941C51.813 41.4137 49.9326 43.2941 47.613 43.2941V40.2941C48.2757 40.2941 48.813 39.7568 48.813 39.0941H51.813ZM51.813 32.2952V39.0941H48.813V32.2952H51.813ZM48.2169 28.1385C50.2508 28.4323 51.813 30.18 51.813 32.2952H48.813C48.813 31.6926 48.3673 31.1914 47.788 31.1077L48.2169 28.1385ZM38.4835 12.2645C44.9719 15.3504 49.4694 21.9549 49.5024 29.6166L46.5024 29.6296C46.4746 23.1633 42.6811 17.5829 37.195 14.9737L38.4835 12.2645ZM37.1717 10.8301C38.2776 11.2633 39.0381 12.1981 39.297 13.2654L36.3816 13.9727C36.3434 13.8153 36.2341 13.6848 36.0775 13.6234L37.1717 10.8301ZM29.8433 9.45117C32.4226 9.45117 34.8964 9.9388 37.1717 10.8301L36.0775 13.6234C34.1452 12.8665 32.0421 12.4512 29.8433 12.4512V9.45117ZM44.4003 42.1196C44.0288 42.7256 43.3563 43.1353 42.5866 43.1353V40.1353C42.2696 40.1353 41.9937 40.3052 41.8427 40.5516L44.4003 42.1196ZM42.5866 43.1353H42.3602V40.1353H42.5866V43.1353ZM42.3602 43.1353C41.1855 43.1353 40.2332 42.1831 40.2332 41.0084H43.2332C43.2332 40.5262 42.8424 40.1353 42.3602 40.1353V43.1353ZM40.2332 41.0084V30.1961H43.2332V41.0084H40.2332ZM40.2332 30.1961C40.2332 29.0214 41.1855 28.0691 42.3602 28.0691V31.0691C42.8424 31.0691 43.2332 30.6783 43.2332 30.1961H40.2332ZM42.3602 28.0691H42.5866V31.0691H42.3602V28.0691ZM42.5866 28.0691C43.4755 28.0691 44.2337 28.6141 44.5519 29.3823L41.7803 30.5304C41.9102 30.844 42.2204 31.0691 42.5866 31.0691V28.0691ZM41.5787 30.2952C41.5787 29.9114 41.6783 29.5463 41.8542 29.2291L44.478 30.6836C44.5425 30.5671 44.5787 30.4331 44.5787 30.2952H41.5787ZM41.5787 41.0941V30.2952H44.5787V41.0941H41.5787ZM41.7136 41.8531C41.6259 41.6145 41.5787 41.3581 41.5787 41.0941H44.5787C44.5787 40.9998 44.5618 40.9061 44.5294 40.8181L41.7136 41.8531ZM49.5026 31.0546V32.0654H46.5026V31.0546H49.5026ZM47.413 32.2952C47.413 32.3871 47.4738 32.4608 47.5536 32.4858L48.4516 29.6234C49.5867 29.9795 50.413 31.0389 50.413 32.2952H47.413ZM47.413 39.0941V32.2952H50.413V39.0941H47.413ZM47.613 38.8941C47.5025 38.8941 47.413 38.9836 47.413 39.0941H50.413C50.413 40.6405 49.1594 41.8941 47.613 41.8941V38.8941ZM47.6084 38.8941H47.613V41.8941H47.6084V38.8941ZM47.3033 38.5609C47.969 38.6678 48.5232 39.0525 48.8636 39.5729L46.3531 41.2153C46.4556 41.3718 46.6252 41.4905 46.8278 41.523L47.3033 38.5609ZM45.0138 39.5728C45.4934 38.8398 46.3765 38.4122 47.3033 38.5609L46.8278 41.523C47.1115 41.5685 47.3795 41.4364 47.5241 41.2154L45.0138 39.5728ZM44.4787 38.8941H46.2689V41.8941H44.4787V38.8941ZM45.9787 30.9952V40.3941H42.9787V30.9952H45.9787ZM45.6026 32.4952H44.4787V29.4952H45.6026V32.4952ZM44.1026 32.0654V30.9952H47.1026V32.0654H44.1026ZM46.8026 34.7654C45.3114 34.7654 44.1026 33.5566 44.1026 32.0654H47.1026C47.1026 31.8998 46.9683 31.7654 46.8026 31.7654V34.7654ZM49.5026 32.0654C49.5026 33.5566 48.2938 34.7654 46.8026 34.7654V31.7654C46.6369 31.7654 46.5026 31.8998 46.5026 32.0654H49.5026ZM18.1618 31.0691C18.5281 31.0691 18.8382 30.844 18.9681 30.5304L16.1965 29.3823C16.5147 28.6141 17.2729 28.0691 18.1618 28.0691V31.0691ZM18.3882 31.0691H18.1618V28.0691H18.3882V31.0691ZM17.5152 30.1961C17.5152 30.6783 17.906 31.0691 18.3882 31.0691V28.0691C19.5629 28.0691 20.5152 29.0214 20.5152 30.1961H17.5152ZM17.5152 41.0084V30.1961H20.5152V41.0084H17.5152ZM18.3882 40.1353C17.906 40.1353 17.5152 40.5262 17.5152 41.0084H20.5152C20.5152 42.1831 19.5629 43.1353 18.3882 43.1353V40.1353ZM18.1618 40.1353H18.3882V43.1353H18.1618V40.1353ZM18.9057 40.5516C18.7547 40.3052 18.4788 40.1353 18.1618 40.1353V43.1353C17.3921 43.1353 16.7196 42.7256 16.3481 42.1196L18.9057 40.5516ZM19.1697 41.0941C19.1697 41.3581 19.1225 41.6145 19.0348 41.8531L16.219 40.8181C16.1867 40.9061 16.1697 40.9998 16.1697 41.0941H19.1697ZM19.1697 30.2952V41.0941H16.1697V30.2952H19.1697ZM18.8942 29.2291C19.0701 29.5463 19.1697 29.9114 19.1697 30.2952H16.1697C16.1697 30.4331 16.2059 30.5671 16.2704 30.6836L18.8942 29.2291ZM16.3056 30.9952V32.0654H13.3056V30.9952H16.3056ZM16.2697 32.4952H14.8056V29.4952H16.2697V32.4952ZM14.7697 40.3941V30.9952H17.7697V40.3941H14.7697ZM13.1354 38.8941H16.2697V41.8941H13.1354V38.8941ZM13.3354 39.0941C13.3354 38.9836 13.2459 38.8941 13.1354 38.8941V41.8941C11.589 41.8941 10.3354 40.6405 10.3354 39.0941H13.3354ZM13.3354 32.2952V39.0941H10.3354V32.2952H13.3354ZM13.2487 32.4599C13.298 32.4264 13.3354 32.3654 13.3354 32.2952H10.3354C10.3354 31.3301 10.825 30.4799 11.5624 29.9787L13.2487 32.4599ZM10.9056 32.0654V31.2193H13.9056V32.0654H10.9056ZM13.6056 34.7654C12.1144 34.7654 10.9056 33.5566 10.9056 32.0654H13.9056C13.9056 31.8998 13.7713 31.7654 13.6056 31.7654V34.7654ZM16.3056 32.0654C16.3056 33.5566 15.0967 34.7654 13.6056 34.7654V31.7654C13.4399 31.7654 13.3056 31.8998 13.3056 32.0654H16.3056ZM35.5003 48.832C35.5176 48.832 35.5295 48.828 35.5399 48.8219C35.5525 48.8146 35.5636 48.8035 35.571 48.7909L38.1574 50.311C37.6244 51.2178 36.6349 51.832 35.5003 51.832V48.832ZM35.4194 48.7511C35.4194 48.7958 35.4556 48.832 35.5003 48.832V51.832C33.7987 51.832 32.4194 50.4526 32.4194 48.7511H35.4194ZM35.5003 48.6702C35.4556 48.6702 35.4194 48.7064 35.4194 48.7511H32.4194C32.4194 47.0496 33.7987 45.6702 35.5003 45.6702V48.6702ZM35.571 48.7113C35.5636 48.6987 35.5525 48.6876 35.5399 48.6803C35.5294 48.6742 35.5176 48.6702 35.5003 48.6702V45.6702C36.6347 45.6702 37.624 46.2842 38.1571 47.1907L35.571 48.7113ZM36.5583 46.451H36.864V49.451H36.5583V46.451ZM34.2583 48.751C34.2583 47.4807 35.288 46.451 36.5583 46.451V49.451C36.9449 49.451 37.2583 49.1376 37.2583 48.751H34.2583ZM36.5583 51.051C35.2881 51.051 34.2583 50.0212 34.2583 48.751H37.2583C37.2583 48.3644 36.9449 48.051 36.5583 48.051V51.051ZM36.8642 51.051H36.5583V48.051H36.8642V51.051Z" fill="#F8F9FA" mask="url(#path-1-outside-1_50_2826)"/>
<path d="M46.9837 40.8215L45.9827 47.0576C45.8271 48.0274 44.9902 48.7407 44.008 48.7407H36.6033" stroke="#212529" stroke-width="1.6" stroke-linecap="round" stroke-linejoin="round"/>
<circle cx="35.5453" cy="48.7407" r="2.18089" fill="#FF6B6B" stroke="#212529" stroke-width="1.2" stroke-linecap="round" stroke-linejoin="round"/>
<path d="M46.8475 32.0549V29.6908C46.8475 20.5237 39.4161 13.0923 30.249 13.0923C21.0819 13.0923 13.6505 20.5237 13.6505 29.6908V32.0549" stroke="#212529" stroke-width="2.4" stroke-linecap="round" stroke-linejoin="round"/>
<path d="M35.9401 14.0787C34.065 13.3442 32.0237 12.9409 29.8883 12.9409C28.0238 12.9409 26.2312 13.2483 24.5582 13.8152" stroke="#212529" stroke-width="4" stroke-linecap="round" stroke-linejoin="round"/>
<path d="M11.1803 32.2849C11.1803 31.1803 12.0757 30.2849 13.1803 30.2849H17.0145V41.0838H13.1803C12.0757 41.0838 11.1803 40.1884 11.1803 39.0838V32.2849Z" fill="#748FFC" stroke="#212529" stroke-width="1.4" stroke-linejoin="round"/>
<rect x="16.9797" y="28.9587" width="2.68033" height="13.2662" rx="1.22696" fill="#BAC8FF" stroke="#212529" stroke-width="1.2" stroke-linejoin="round"/>
<path d="M49.6581 32.2849C49.6581 31.1803 48.7627 30.2849 47.6581 30.2849H43.8238V41.0838H47.6581C48.7627 41.0838 49.6581 40.1884 49.6581 39.0838V32.2849Z" fill="#748FFC" stroke="#212529" stroke-width="1.4" stroke-linejoin="round"/>
<g style="mix-blend-mode:multiply" opacity="0.3">
<path d="M44.1602 30.9124H45.3994V40.4572H44.1602V30.9124Z" fill="#748FFC"/>
</g>
<g style="mix-blend-mode:multiply" opacity="0.3">
<path d="M15.4497 30.7129C15.4497 30.4765 15.6413 30.2849 15.8777 30.2849V30.2849C16.114 30.2849 16.3056 30.4765 16.3056 30.7129V40.6564C16.3056 40.8927 16.114 41.0843 15.8777 41.0843V41.0843C15.6413 41.0843 15.4497 40.8927 15.4497 40.6564V30.7129Z" fill="#748FFC"/>
</g>
<rect width="2.68033" height="13.2662" rx="1.22696" transform="matrix(-1 0 0 1 43.8586 28.9587)" fill="#BAC8FF" stroke="#212529" stroke-width="1.2" stroke-linejoin="round"/>
</svg>
