<svg width="60" height="60" viewBox="0 0 60 60" fill="none" xmlns="http://www.w3.org/2000/svg">
<mask id="path-1-outside-1_50_11288" maskUnits="userSpaceOnUse" x="4.03857" y="12.4951" width="52" height="35" fill="black">
<rect fill="white" x="4.03857" y="12.4951" width="52" height="35"/>
<path fill-rule="evenodd" clip-rule="evenodd" d="M31.5119 18.0158C33.5688 16.7953 35.9672 16.0951 38.5306 16.0951C42.3485 16.0951 45.8042 17.6494 48.3081 20.1654C50.813 22.6826 52.3615 26.1586 52.3615 30.0003C52.3615 33.842 50.813 37.3181 48.3081 39.8352C45.8042 42.3513 42.3485 43.9055 38.5306 43.9055C35.5522 43.9055 32.7955 42.96 30.5387 41.3506C28.8937 40.1775 27.5145 38.652 26.5104 36.8839C26.2372 36.4029 26.4642 35.7184 27.1335 35.4752L39.1356 31.1145C39.4236 31.0099 39.6265 30.7499 39.6581 30.4451C39.6897 30.1403 39.5444 29.8442 39.284 29.6827L28.1084 22.752C27.5217 22.3881 27.4228 21.6961 27.7619 21.2737C28.8049 19.9746 30.0753 18.8683 31.5119 18.0158ZM38.5306 14.4951C35.6718 14.4951 32.9923 15.2769 30.6954 16.6399C29.0926 17.5909 27.6764 18.8244 26.5143 20.272C25.4827 21.5569 25.991 23.3216 27.2651 24.1117L37.0398 30.1737L26.5872 33.9714C25.1393 34.4975 24.2798 36.1962 25.1191 37.674C26.2384 39.6451 27.7756 41.3454 29.6098 42.6533C32.1283 44.4494 35.2078 45.5055 38.5306 45.5055C42.7925 45.5055 46.6513 43.7684 49.4422 40.9638C52.2342 38.1582 53.9615 34.2808 53.9615 30.0003C53.9615 25.7199 52.2342 21.8424 49.4422 19.0368C46.6513 16.2322 42.7925 14.4951 38.5306 14.4951ZM18.2013 30.4746C17.1326 29.338 15.6475 28.6644 13.9987 28.6644C12.3636 28.6644 10.8847 29.3262 9.81246 30.3984C8.74024 31.4706 8.07847 32.9496 8.07847 34.5846C8.07847 34.9625 8.07617 35.3776 8.07375 35.8153C8.06859 36.7468 7.95809 37.8111 7.85207 38.8321C7.82856 39.0586 7.80526 39.2829 7.78339 39.5032C7.6586 40.7599 7.57999 41.8834 7.6923 42.7359C7.72548 42.9877 7.78322 43.16 7.84988 43.2689C7.90476 43.3586 7.96778 43.4126 8.07604 43.4462C8.14644 43.468 8.241 43.4728 8.34459 43.4527C8.39436 43.443 8.43841 43.4289 8.47318 43.4143C8.50955 43.3989 8.52531 43.3874 8.52399 43.3884C8.76856 43.2039 8.89625 42.9309 9.08956 42.5176L9.09708 42.5015C9.3247 42.0149 9.68586 41.2873 10.5875 40.9903C11.5109 40.6861 12.2453 41.2477 12.634 41.6339C12.849 41.8475 13.0323 42.0791 13.1746 42.268C13.2441 42.3603 13.2973 42.433 13.341 42.4927C13.4007 42.5743 13.4426 42.6316 13.4838 42.681L13.5242 42.7295C14.0159 43.3201 14.1708 43.5062 14.5775 43.5062H14.5878L14.5981 43.5065C14.7092 43.5093 14.7503 43.4856 14.8165 43.4056C14.9243 43.2755 15.0186 43.0696 15.158 42.7234L15.1856 42.6546L15.1856 42.6546C15.2999 42.3687 15.4603 41.9675 15.6999 41.6498C15.991 41.264 16.4354 40.9484 17.0648 40.9492C17.445 40.9151 17.7621 41.0826 17.9462 41.2011C18.1707 41.3457 18.3845 41.5411 18.5731 41.7309C18.8082 41.9677 19.0779 42.2746 19.3321 42.5641L19.3321 42.5641C19.4694 42.7203 19.6021 42.8715 19.7226 43.0037C20.0429 43.3554 20.2954 43.597 20.4827 43.7285L20.5532 43.5606C20.6089 42.8132 20.5229 41.6982 20.3918 40.4228L20.3481 40.0066L20.3477 40.0034L20.1761 38.4455C20.0407 37.2096 19.9189 35.9844 19.9189 35.0504C19.9189 33.1837 19.2562 31.5964 18.2013 30.4746ZM13.9987 27.0644C16.0975 27.0644 18.0017 27.9267 19.3669 29.3785C20.7145 30.8116 21.5189 32.7968 21.5189 35.0504C21.5189 35.8823 21.6295 37.0208 21.7666 38.2712L21.9386 39.8329L21.939 39.8361L21.9832 40.2574L21.9834 40.2592C22.118 41.5685 22.2289 42.8987 22.1353 43.8347C22.1012 44.1755 21.9338 44.4628 21.8507 44.6056C21.8412 44.6218 21.8328 44.6362 21.8258 44.6486C21.6423 44.9746 21.3545 45.2731 20.9293 45.3802C20.523 45.4825 20.1549 45.3674 19.8921 45.2359C19.3939 44.9867 18.9155 44.4937 18.5396 44.0811C18.3716 43.8965 18.2184 43.7217 18.074 43.5568L18.0739 43.5568C17.8485 43.2994 17.6443 43.0663 17.4379 42.8585C17.2798 42.6993 17.1638 42.6014 17.0854 42.5499L17.0748 42.5495C17.0702 42.5493 17.0661 42.5489 17.0624 42.5485C17.0394 42.546 17.0289 42.5449 16.9772 42.6133C16.8745 42.7495 16.7886 42.9574 16.6422 43.321L16.637 43.3341C16.5145 43.6384 16.338 44.0769 16.0488 44.4261C15.7158 44.8282 15.23 45.12 14.5676 45.1062C13.383 45.1018 12.7537 44.3223 12.361 43.8358L12.3608 43.8355C12.3233 43.789 12.2879 43.7452 12.2544 43.705C12.1843 43.6208 12.0906 43.4934 12.005 43.377C11.9662 43.3243 11.929 43.2738 11.8965 43.2305C11.7698 43.0623 11.6402 42.902 11.5062 42.7689C11.2005 42.4651 11.0914 42.5086 11.0881 42.51C10.8841 42.5771 10.7662 42.7095 10.5464 43.1794C10.5343 43.2051 10.5215 43.2331 10.5077 43.2631C10.3477 43.6122 10.0641 44.2308 9.48748 44.6658C9.06045 44.9879 8.31033 45.1939 7.60228 44.9744C6.52334 44.6399 6.20077 43.6642 6.10601 42.9449C5.96596 41.8819 6.06862 40.5798 6.19122 39.3451C6.21498 39.1058 6.23955 38.8685 6.26384 38.634L6.2639 38.6333C6.36924 37.616 6.4691 36.6516 6.47377 35.8064C6.4762 35.3677 6.47847 34.9572 6.47847 34.5846C6.47847 32.5082 7.32107 30.627 8.68109 29.267C10.0411 27.907 11.9223 27.0644 13.9987 27.0644ZM17.0361 42.5219C17.0362 42.5222 17.04 42.5242 17.0472 42.5269C17.0396 42.5229 17.036 42.5215 17.0361 42.5219Z"/>
</mask>
<path fill-rule="evenodd" clip-rule="evenodd" d="M31.5119 18.0158C33.5688 16.7953 35.9672 16.0951 38.5306 16.0951C42.3485 16.0951 45.8042 17.6494 48.3081 20.1654C50.813 22.6826 52.3615 26.1586 52.3615 30.0003C52.3615 33.842 50.813 37.3181 48.3081 39.8352C45.8042 42.3513 42.3485 43.9055 38.5306 43.9055C35.5522 43.9055 32.7955 42.96 30.5387 41.3506C28.8937 40.1775 27.5145 38.652 26.5104 36.8839C26.2372 36.4029 26.4642 35.7184 27.1335 35.4752L39.1356 31.1145C39.4236 31.0099 39.6265 30.7499 39.6581 30.4451C39.6897 30.1403 39.5444 29.8442 39.284 29.6827L28.1084 22.752C27.5217 22.3881 27.4228 21.6961 27.7619 21.2737C28.8049 19.9746 30.0753 18.8683 31.5119 18.0158ZM38.5306 14.4951C35.6718 14.4951 32.9923 15.2769 30.6954 16.6399C29.0926 17.5909 27.6764 18.8244 26.5143 20.272C25.4827 21.5569 25.991 23.3216 27.2651 24.1117L37.0398 30.1737L26.5872 33.9714C25.1393 34.4975 24.2798 36.1962 25.1191 37.674C26.2384 39.6451 27.7756 41.3454 29.6098 42.6533C32.1283 44.4494 35.2078 45.5055 38.5306 45.5055C42.7925 45.5055 46.6513 43.7684 49.4422 40.9638C52.2342 38.1582 53.9615 34.2808 53.9615 30.0003C53.9615 25.7199 52.2342 21.8424 49.4422 19.0368C46.6513 16.2322 42.7925 14.4951 38.5306 14.4951ZM18.2013 30.4746C17.1326 29.338 15.6475 28.6644 13.9987 28.6644C12.3636 28.6644 10.8847 29.3262 9.81246 30.3984C8.74024 31.4706 8.07847 32.9496 8.07847 34.5846C8.07847 34.9625 8.07617 35.3776 8.07375 35.8153C8.06859 36.7468 7.95809 37.8111 7.85207 38.8321C7.82856 39.0586 7.80526 39.2829 7.78339 39.5032C7.6586 40.7599 7.57999 41.8834 7.6923 42.7359C7.72548 42.9877 7.78322 43.16 7.84988 43.2689C7.90476 43.3586 7.96778 43.4126 8.07604 43.4462C8.14644 43.468 8.241 43.4728 8.34459 43.4527C8.39436 43.443 8.43841 43.4289 8.47318 43.4143C8.50955 43.3989 8.52531 43.3874 8.52399 43.3884C8.76856 43.2039 8.89625 42.9309 9.08956 42.5176L9.09708 42.5015C9.3247 42.0149 9.68586 41.2873 10.5875 40.9903C11.5109 40.6861 12.2453 41.2477 12.634 41.6339C12.849 41.8475 13.0323 42.0791 13.1746 42.268C13.2441 42.3603 13.2973 42.433 13.341 42.4927C13.4007 42.5743 13.4426 42.6316 13.4838 42.681L13.5242 42.7295C14.0159 43.3201 14.1708 43.5062 14.5775 43.5062H14.5878L14.5981 43.5065C14.7092 43.5093 14.7503 43.4856 14.8165 43.4056C14.9243 43.2755 15.0186 43.0696 15.158 42.7234L15.1856 42.6546L15.1856 42.6546C15.2999 42.3687 15.4603 41.9675 15.6999 41.6498C15.991 41.264 16.4354 40.9484 17.0648 40.9492C17.445 40.9151 17.7621 41.0826 17.9462 41.2011C18.1707 41.3457 18.3845 41.5411 18.5731 41.7309C18.8082 41.9677 19.0779 42.2746 19.3321 42.5641L19.3321 42.5641C19.4694 42.7203 19.6021 42.8715 19.7226 43.0037C20.0429 43.3554 20.2954 43.597 20.4827 43.7285L20.5532 43.5606C20.6089 42.8132 20.5229 41.6982 20.3918 40.4228L20.3481 40.0066L20.3477 40.0034L20.1761 38.4455C20.0407 37.2096 19.9189 35.9844 19.9189 35.0504C19.9189 33.1837 19.2562 31.5964 18.2013 30.4746ZM13.9987 27.0644C16.0975 27.0644 18.0017 27.9267 19.3669 29.3785C20.7145 30.8116 21.5189 32.7968 21.5189 35.0504C21.5189 35.8823 21.6295 37.0208 21.7666 38.2712L21.9386 39.8329L21.939 39.8361L21.9832 40.2574L21.9834 40.2592C22.118 41.5685 22.2289 42.8987 22.1353 43.8347C22.1012 44.1755 21.9338 44.4628 21.8507 44.6056C21.8412 44.6218 21.8328 44.6362 21.8258 44.6486C21.6423 44.9746 21.3545 45.2731 20.9293 45.3802C20.523 45.4825 20.1549 45.3674 19.8921 45.2359C19.3939 44.9867 18.9155 44.4937 18.5396 44.0811C18.3716 43.8965 18.2184 43.7217 18.074 43.5568L18.0739 43.5568C17.8485 43.2994 17.6443 43.0663 17.4379 42.8585C17.2798 42.6993 17.1638 42.6014 17.0854 42.5499L17.0748 42.5495C17.0702 42.5493 17.0661 42.5489 17.0624 42.5485C17.0394 42.546 17.0289 42.5449 16.9772 42.6133C16.8745 42.7495 16.7886 42.9574 16.6422 43.321L16.637 43.3341C16.5145 43.6384 16.338 44.0769 16.0488 44.4261C15.7158 44.8282 15.23 45.12 14.5676 45.1062C13.383 45.1018 12.7537 44.3223 12.361 43.8358L12.3608 43.8355C12.3233 43.789 12.2879 43.7452 12.2544 43.705C12.1843 43.6208 12.0906 43.4934 12.005 43.377C11.9662 43.3243 11.929 43.2738 11.8965 43.2305C11.7698 43.0623 11.6402 42.902 11.5062 42.7689C11.2005 42.4651 11.0914 42.5086 11.0881 42.51C10.8841 42.5771 10.7662 42.7095 10.5464 43.1794C10.5343 43.2051 10.5215 43.2331 10.5077 43.2631C10.3477 43.6122 10.0641 44.2308 9.48748 44.6658C9.06045 44.9879 8.31033 45.1939 7.60228 44.9744C6.52334 44.6399 6.20077 43.6642 6.10601 42.9449C5.96596 41.8819 6.06862 40.5798 6.19122 39.3451C6.21498 39.1058 6.23955 38.8685 6.26384 38.634L6.2639 38.6333C6.36924 37.616 6.4691 36.6516 6.47377 35.8064C6.4762 35.3677 6.47847 34.9572 6.47847 34.5846C6.47847 32.5082 7.32107 30.627 8.68109 29.267C10.0411 27.907 11.9223 27.0644 13.9987 27.0644ZM17.0361 42.5219C17.0362 42.5222 17.04 42.5242 17.0472 42.5269C17.0396 42.5229 17.036 42.5215 17.0361 42.5219Z" fill="#F8F9FA"/>
<path d="M31.5119 18.0158L30.7464 16.7258L30.7464 16.7258L31.5119 18.0158ZM48.3081 20.1654L47.2448 21.2235L47.2448 21.2235L48.3081 20.1654ZM48.3081 39.8352L47.2448 38.7772L47.2448 38.7772L48.3081 39.8352ZM30.5387 41.3506L31.4097 40.1294L31.4097 40.1294L30.5387 41.3506ZM26.5104 36.8839L27.8147 36.1432L27.8147 36.1432L26.5104 36.8839ZM27.1335 35.4752L27.6458 36.8851L27.6458 36.8851L27.1335 35.4752ZM39.1356 31.1145L39.6478 32.5244L39.6478 32.5244L39.1356 31.1145ZM39.6581 30.4451L41.1501 30.5998L41.1501 30.5998L39.6581 30.4451ZM39.284 29.6827L38.4935 30.9575L38.4935 30.9575L39.284 29.6827ZM28.1084 22.752L27.3178 24.0267L27.3178 24.0267L28.1084 22.752ZM27.7619 21.2737L28.9316 22.2127L28.9316 22.2127L27.7619 21.2737ZM30.6954 16.6399L31.4608 17.9298L31.4608 17.9298L30.6954 16.6399ZM26.5143 20.272L25.3446 19.3329L25.3446 19.3329L26.5143 20.272ZM27.2651 24.1117L28.0556 22.837L28.0556 22.837L27.2651 24.1117ZM37.0398 30.1737L37.552 31.5835C38.092 31.3873 38.4725 30.8998 38.5318 30.3283C38.591 29.7568 38.3186 29.2017 37.8304 28.8989L37.0398 30.1737ZM26.5872 33.9714L26.0749 32.5616L26.0749 32.5616L26.5872 33.9714ZM25.1191 37.674L23.8147 38.4147L23.8147 38.4147L25.1191 37.674ZM29.6098 42.6533L30.4807 41.4321L30.4807 41.4321L29.6098 42.6533ZM49.4422 40.9638L48.379 39.9058L48.379 39.9058L49.4422 40.9638ZM49.4422 19.0368L48.379 20.0949L48.379 20.0949L49.4422 19.0368ZM18.2013 30.4746L17.1086 31.5021L17.1086 31.5021L18.2013 30.4746ZM8.07375 35.8153L9.57373 35.8236L9.57373 35.8236L8.07375 35.8153ZM7.85207 38.8321L6.36009 38.6772L6.36009 38.6772L7.85207 38.8321ZM7.78339 39.5032L6.29073 39.355L6.29073 39.355L7.78339 39.5032ZM7.6923 42.7359L6.20515 42.9319L6.20515 42.9319L7.6923 42.7359ZM7.84988 43.2689L6.57038 44.0518L6.57038 44.0518L7.84988 43.2689ZM8.07604 43.4462L8.5202 42.0134L8.5202 42.0134L8.07604 43.4462ZM8.34459 43.4527L8.63115 44.925L8.63117 44.925L8.34459 43.4527ZM8.47318 43.4143L9.05583 44.7965L9.05585 44.7965L8.47318 43.4143ZM8.52399 43.3884L7.62054 42.191C6.95927 42.6899 6.82763 43.6304 7.32651 44.2918C7.8254 44.9531 8.76591 45.0848 9.42726 44.5859L8.52399 43.3884ZM9.08956 42.5176L7.73082 41.8821L7.73081 41.8821L9.08956 42.5176ZM9.09708 42.5015L7.73837 41.8659L7.73834 41.866L9.09708 42.5015ZM10.5875 40.9903L10.1183 39.5656L10.1183 39.5656L10.5875 40.9903ZM12.634 41.6339L11.5767 42.698L11.5767 42.698L12.634 41.6339ZM13.1746 42.268L14.3728 41.3656L14.3728 41.3656L13.1746 42.268ZM13.341 42.4927L14.5514 41.6068L14.5514 41.6068L13.341 42.4927ZM13.4838 42.681L14.6366 41.7212L14.6364 41.721L13.4838 42.681ZM13.5242 42.7295L14.6771 41.7699L14.677 41.7697L13.5242 42.7295ZM14.5878 43.5062L14.6263 42.0067C14.6135 42.0064 14.6006 42.0062 14.5878 42.0062V43.5062ZM14.5981 43.5065L14.5596 45.006L14.5596 45.006L14.5981 43.5065ZM14.8165 43.4056L15.9718 44.3623L15.9718 44.3623L14.8165 43.4056ZM15.158 42.7234L16.5495 43.2837L16.5505 43.2812L15.158 42.7234ZM15.1856 42.6546L16.578 43.2124L16.5783 43.2117L15.1856 42.6546ZM15.1856 42.6546L16.5783 43.2116L16.5785 43.2113L15.1856 42.6546ZM15.6999 41.6498L14.5024 40.7465L14.5024 40.7465L15.6999 41.6498ZM17.0648 40.9492L17.0628 42.4492C17.1083 42.4493 17.1537 42.4473 17.1991 42.4432L17.0648 40.9492ZM17.9462 41.2011L18.7584 39.94L18.7584 39.94L17.9462 41.2011ZM18.5731 41.7309L19.6373 40.6739L19.6373 40.6739L18.5731 41.7309ZM19.3321 42.5641L20.461 41.5763L20.4591 41.5742L19.3321 42.5641ZM19.3321 42.5641L18.2033 43.5519L18.2052 43.5541L19.3321 42.5641ZM19.7226 43.0037L18.6136 44.0137L18.6136 44.0137L19.7226 43.0037ZM20.4827 43.7285L19.6208 44.9562C19.9922 45.217 20.4617 45.2955 20.8978 45.1699C21.3339 45.0443 21.6897 44.728 21.8655 44.3096L20.4827 43.7285ZM20.5532 43.5606L21.9361 44.1417C21.9989 43.9923 22.037 43.8337 22.0491 43.6721L20.5532 43.5606ZM20.3918 40.4228L21.884 40.2694L21.8836 40.266L20.3918 40.4228ZM20.3481 40.0066L21.8399 39.8498L21.8395 39.8466L20.3481 40.0066ZM20.3477 40.0034L21.8392 39.8433L21.8387 39.8392L20.3477 40.0034ZM20.1761 38.4455L18.6851 38.6089L18.6852 38.6097L20.1761 38.4455ZM19.3669 29.3785L18.2742 30.4061L18.2742 30.4061L19.3669 29.3785ZM21.7666 38.2712L20.2755 38.4346L20.2756 38.4354L21.7666 38.2712ZM21.9386 39.8329L23.4301 39.6735L23.4296 39.6687L21.9386 39.8329ZM21.939 39.8361L23.4307 39.6793L23.4305 39.6767L21.939 39.8361ZM21.9832 40.2574L23.4752 40.1021L23.475 40.1006L21.9832 40.2574ZM21.9834 40.2592L23.4756 40.1058L23.4754 40.1039L21.9834 40.2592ZM22.1353 43.8347L20.6427 43.6854L20.6427 43.6854L22.1353 43.8347ZM21.8507 44.6056L20.5546 43.8505L20.5546 43.8505L21.8507 44.6056ZM21.8258 44.6486L23.133 45.3844L23.133 45.3843L21.8258 44.6486ZM20.9293 45.3802L21.2955 46.8348L21.2955 46.8348L20.9293 45.3802ZM19.8921 45.2359L19.2211 46.5775L19.2211 46.5775L19.8921 45.2359ZM18.5396 44.0811L19.6486 43.0711L19.6486 43.0711L18.5396 44.0811ZM18.074 43.5568L19.2023 42.5684C19.1949 42.56 19.1874 42.5516 19.1797 42.5432L18.074 43.5568ZM18.0739 43.5568L16.9456 44.5451C16.953 44.5536 16.9606 44.562 16.9682 44.5703L18.0739 43.5568ZM17.4379 42.8585L18.5021 41.8014L18.5021 41.8014L17.4379 42.8585ZM17.0854 42.5499L17.9092 41.2964C17.6816 41.1468 17.4175 41.062 17.1453 41.0511L17.0854 42.5499ZM17.0748 42.5495L17.1346 41.0507L17.1344 41.0507L17.0748 42.5495ZM17.0624 42.5485L16.9018 44.0398L16.9019 44.0399L17.0624 42.5485ZM16.9772 42.6133L18.1747 43.5167L18.1747 43.5167L16.9772 42.6133ZM16.6422 43.321L15.2508 42.7608L15.2508 42.7608L16.6422 43.321ZM16.637 43.3341L15.2455 42.7738L15.2455 42.7739L16.637 43.3341ZM16.0488 44.4261L17.2041 45.3828L17.2041 45.3828L16.0488 44.4261ZM14.5676 45.1062L14.5988 43.6065C14.5902 43.6063 14.5817 43.6062 14.5731 43.6062L14.5676 45.1062ZM12.361 43.8358L13.5282 42.8936L13.5277 42.893L12.361 43.8358ZM12.3608 43.8355L11.1936 44.7776L11.1941 44.7782L12.3608 43.8355ZM12.2544 43.705L11.1019 44.665L11.1019 44.6651L12.2544 43.705ZM12.005 43.377L13.2133 42.4883L13.2133 42.4883L12.005 43.377ZM11.8965 43.2305L13.0947 42.3281L13.0947 42.3281L11.8965 43.2305ZM11.5062 42.7689L10.4489 43.8329L10.449 43.8329L11.5062 42.7689ZM11.0881 42.51L11.5574 43.9347C11.5865 43.9251 11.6153 43.9146 11.6438 43.9032L11.0881 42.51ZM10.5464 43.1794L9.18766 42.5438L9.18765 42.5439L10.5464 43.1794ZM10.5077 43.2631L9.14421 42.638L9.1442 42.638L10.5077 43.2631ZM9.48748 44.6658L10.3907 45.8633L10.3907 45.8633L9.48748 44.6658ZM7.60228 44.9744L8.04643 43.5417L8.04643 43.5417L7.60228 44.9744ZM6.10601 42.9449L7.59316 42.749L7.59316 42.749L6.10601 42.9449ZM6.19122 39.3451L7.68388 39.4934L7.68388 39.4934L6.19122 39.3451ZM6.26384 38.634L4.77184 38.4792L4.77181 38.4795L6.26384 38.634ZM6.2639 38.6333L7.75589 38.7881L7.75592 38.7878L6.2639 38.6333ZM6.47377 35.8064L4.9738 35.7981L4.9738 35.7981L6.47377 35.8064ZM8.68109 29.267L7.62043 28.2064L7.62043 28.2064L8.68109 29.267ZM17.0361 42.5219L18.4819 42.1221L18.4796 42.1137L17.0361 42.5219ZM17.0472 42.5269L16.5209 43.9315C17.2622 44.2092 18.0917 43.8632 18.4157 43.141C18.7398 42.4188 18.4469 41.569 17.7467 41.1999L17.0472 42.5269ZM38.5306 14.5951C35.6903 14.5951 33.0284 15.3718 30.7464 16.7258L32.2773 19.3058C34.1091 18.2189 36.2442 17.5951 38.5306 17.5951V14.5951ZM49.3713 19.1073C46.5983 16.3208 42.7647 14.5951 38.5306 14.5951V17.5951C41.9323 17.5951 45.0102 18.978 47.2448 21.2235L49.3713 19.1073ZM53.8615 30.0003C53.8615 25.7473 52.1454 21.895 49.3713 19.1073L47.2448 21.2235C49.4806 23.4702 50.8615 26.5699 50.8615 30.0003H53.8615ZM49.3713 40.8933C52.1454 38.1057 53.8615 34.2533 53.8615 30.0003H50.8615C50.8615 33.4307 49.4806 36.5305 47.2448 38.7772L49.3713 40.8933ZM38.5306 45.4055C42.7647 45.4055 46.5983 43.6799 49.3713 40.8933L47.2448 38.7772C45.0102 41.0227 41.9323 42.4055 38.5306 42.4055V45.4055ZM29.6678 42.5719C32.17 44.3563 35.2293 45.4055 38.5306 45.4055V42.4055C35.875 42.4055 33.421 41.5637 31.4097 40.1294L29.6678 42.5719ZM25.206 37.6246C26.3182 39.5831 27.8455 41.2724 29.6678 42.5719L31.4097 40.1294C29.9419 39.0827 28.7108 37.721 27.8147 36.1432L25.206 37.6246ZM26.6213 34.0654C25.1762 34.5904 24.4247 36.2487 25.206 37.6246L27.8147 36.1432C28.0497 36.557 27.7521 36.8464 27.6458 36.8851L26.6213 34.0654ZM38.6234 29.7047L26.6213 34.0654L27.6458 36.8851L39.6478 32.5244L38.6234 29.7047ZM38.1661 30.2904C38.1938 30.0237 38.3713 29.7963 38.6233 29.7047L39.6478 32.5244C40.4759 32.2235 41.0593 31.4761 41.1501 30.5998L38.1661 30.2904ZM38.4935 30.9575C38.2656 30.8162 38.1385 30.5571 38.1661 30.2904L41.1501 30.5998C41.241 29.7235 40.8233 28.8723 40.0746 28.408L38.4935 30.9575ZM27.3178 24.0267L38.4935 30.9575L40.0746 28.408L28.8989 21.4772L27.3178 24.0267ZM26.5923 20.3346C25.6285 21.5351 26.051 23.2411 27.3178 24.0267L28.8989 21.4772C28.9923 21.5351 29.2171 21.8571 28.9316 22.2127L26.5923 20.3346ZM30.7464 16.7258C29.154 17.6707 27.7469 18.8963 26.5923 20.3346L28.9316 22.2127C29.8628 21.0529 30.9966 20.0658 32.2773 19.3058L30.7464 16.7258ZM31.4608 17.9298C33.5327 16.7004 35.9488 15.9951 38.5306 15.9951V12.9951C35.3948 12.9951 32.4519 13.8534 29.9299 15.3499L31.4608 17.9298ZM27.684 21.2111C28.7343 19.9027 30.0139 18.7884 31.4608 17.9298L29.9299 15.3499C28.1713 16.3934 26.6185 17.7461 25.3446 19.3329L27.684 21.2111ZM28.0556 22.837C27.4121 22.4379 27.3109 21.6757 27.684 21.2111L25.3446 19.3329C23.6545 21.4381 24.57 24.2053 26.4745 25.3865L28.0556 22.837ZM37.8304 28.8989L28.0556 22.837L26.4745 25.3865L36.2492 31.4484L37.8304 28.8989ZM27.0994 35.3812L37.552 31.5835L36.5276 28.7638L26.0749 32.5616L27.0994 35.3812ZM26.4234 36.9333C26.2526 36.6324 26.2543 36.3348 26.373 36.0594C26.5014 35.7615 26.7666 35.5022 27.0994 35.3812L26.0749 32.5616C23.9149 33.3464 22.4362 35.9874 23.8147 38.4147L26.4234 36.9333ZM30.4807 41.4321C28.8238 40.2505 27.4347 38.7141 26.4234 36.9333L23.8147 38.4147C25.0422 40.5761 26.7274 42.4402 28.7388 43.8746L30.4807 41.4321ZM38.5306 44.0055C35.5307 44.0055 32.7538 43.0531 30.4807 41.4321L28.7388 43.8746C31.5028 45.8457 34.8849 47.0055 38.5306 47.0055V44.0055ZM48.379 39.9058C45.8571 42.4399 42.3762 44.0055 38.5306 44.0055V47.0055C43.2088 47.0055 47.4454 45.0969 50.5054 42.0219L48.379 39.9058ZM52.4615 30.0003C52.4615 33.8694 50.9019 37.3705 48.379 39.9058L50.5054 42.0219C53.5665 38.9459 55.4615 34.6922 55.4615 30.0003H52.4615ZM48.379 20.0949C50.9019 22.6301 52.4615 26.1312 52.4615 30.0003H55.4615C55.4615 25.3085 53.5665 21.0548 50.5054 17.9787L48.379 20.0949ZM38.5306 15.9951C42.3762 15.9951 45.8571 17.5608 48.379 20.0949L50.5054 17.9787C47.4454 14.9037 43.2088 12.9951 38.5306 12.9951V15.9951ZM13.9987 30.1644C15.2257 30.1644 16.3178 30.6612 17.1086 31.5021L19.2941 29.447C17.9473 28.0148 16.0693 27.1644 13.9987 27.1644V30.1644ZM10.8731 31.459C11.6754 30.6567 12.7773 30.1644 13.9987 30.1644V27.1644C11.95 27.1644 10.0939 27.9956 8.7518 29.3377L10.8731 31.459ZM9.57847 34.5846C9.57847 33.3632 10.0708 32.2614 10.8731 31.459L8.7518 29.3377C7.40967 30.6798 6.57847 32.5359 6.57847 34.5846H9.57847ZM9.57373 35.8236C9.57614 35.387 9.57847 34.9675 9.57847 34.5846H6.57847C6.57847 34.9576 6.5762 35.3683 6.57377 35.807L9.57373 35.8236ZM9.34405 38.987C9.44809 37.985 9.56808 36.843 9.57373 35.8236L6.57377 35.807C6.5691 36.6506 6.46808 37.6372 6.36009 38.6772L9.34405 38.987ZM9.27605 39.6515C9.29753 39.4351 9.32047 39.2141 9.34405 38.987L6.36009 38.6772C6.33664 38.9031 6.31299 39.1308 6.29073 39.355L9.27605 39.6515ZM9.17945 42.54C9.09318 41.8852 9.14911 40.9298 9.27605 39.6514L6.29073 39.355C6.16809 40.5901 6.0668 41.8817 6.20515 42.9319L9.17945 42.54ZM9.12938 42.4861C9.15387 42.5261 9.16945 42.5586 9.17863 42.5798C9.18789 42.6013 9.19215 42.6147 9.19315 42.618C9.19476 42.6233 9.18738 42.6002 9.17945 42.54L6.20515 42.9319C6.25286 43.294 6.35239 43.6955 6.57038 44.0518L9.12938 42.4861ZM8.5202 42.0134C8.61039 42.0414 8.74346 42.0981 8.87972 42.2071C9.01367 42.3142 9.09204 42.425 9.12937 42.486L6.57038 44.0518C6.80034 44.4276 7.14867 44.7291 7.63188 44.8789L8.5202 42.0134ZM8.05804 41.9803C8.11101 41.97 8.17329 41.9637 8.24461 41.9659C8.31349 41.968 8.40822 41.9787 8.5202 42.0134L7.63188 44.8789C7.98212 44.9875 8.33319 44.983 8.63115 44.925L8.05804 41.9803ZM7.89052 42.0321C7.95222 42.006 8.00748 41.9901 8.05802 41.9803L8.63117 44.925C8.78125 44.8958 8.9246 44.8518 9.05583 44.7965L7.89052 42.0321ZM9.42743 44.5858C9.42854 44.585 9.43391 44.5809 9.44068 44.5757C9.444 44.5731 9.45104 44.5677 9.45986 44.5606C9.46406 44.5573 9.48868 44.5377 9.51859 44.5112C9.52816 44.5028 9.57343 44.4629 9.6256 44.4065C9.65696 44.3715 9.73963 44.2672 9.78805 44.196C9.8825 44.0244 10.021 43.2924 9.88421 42.7559C9.44779 42.2065 8.53952 41.8884 8.26928 41.9101C8.16273 41.9325 8.00515 41.981 7.95294 42.0013C7.87185 42.0347 7.8115 42.0683 7.80106 42.0741C7.76357 42.0947 7.73498 42.1127 7.73065 42.1153C7.72069 42.1216 7.71291 42.1266 7.70931 42.1289C7.69838 42.136 7.67785 42.1497 7.69247 42.14C7.69883 42.1357 7.70747 42.13 7.71772 42.1235C7.73762 42.1109 7.75769 42.0989 7.77787 42.0875C7.81811 42.0649 7.85585 42.0467 7.89051 42.0321L9.05585 44.7965C9.12688 44.7665 9.19068 44.7348 9.24757 44.7029C9.27607 44.6869 9.3021 44.6712 9.32573 44.6562C9.33783 44.6485 9.34777 44.642 9.35488 44.6372C9.36988 44.6272 9.34958 44.6408 9.33876 44.6478C9.33518 44.6501 9.32741 44.6551 9.31745 44.6613C9.31313 44.664 9.28455 44.682 9.24706 44.7026C9.23662 44.7083 9.17627 44.742 9.09518 44.7754C9.04297 44.7957 8.8854 44.8442 8.77885 44.8665C8.50861 44.8883 7.60034 44.5702 7.16392 44.0208C7.02713 43.4842 7.16562 42.7522 7.26007 42.5807C7.30849 42.5095 7.39116 42.4052 7.42252 42.3702C7.47469 42.3138 7.51996 42.2739 7.52953 42.2654C7.55944 42.2389 7.58406 42.2194 7.58825 42.2161C7.59706 42.209 7.60409 42.2036 7.60739 42.201C7.61414 42.1958 7.61948 42.1918 7.62054 42.191L9.42743 44.5858ZM7.73081 41.8821C7.68067 41.9893 7.64414 42.0672 7.61038 42.1353C7.5773 42.2019 7.55639 42.2396 7.54321 42.2613C7.5219 42.2965 7.54691 42.2465 7.62071 42.1909L9.42726 44.5859C10.0293 44.1319 10.3023 43.4652 10.4483 43.153L7.73081 41.8821ZM7.73834 41.866L7.73082 41.8821L10.4483 43.153L10.4558 43.137L7.73834 41.866ZM10.1183 39.5656C8.56335 40.0777 7.97417 41.3618 7.73837 41.8659L10.4558 43.137C10.6752 42.6679 10.8084 42.4968 11.0568 42.415L10.1183 39.5656ZM13.6913 40.5699C13.2375 40.119 11.9134 38.9743 10.1183 39.5656L11.0568 42.415C11.0955 42.4022 11.1153 42.4029 11.126 42.4037C11.1405 42.4048 11.1689 42.4097 11.2148 42.4295C11.3208 42.4755 11.4476 42.5697 11.5767 42.698L13.6913 40.5699ZM14.3728 41.3656C14.2158 41.1572 13.9821 40.8588 13.6913 40.5699L11.5767 42.698C11.7159 42.8362 11.8488 43.001 11.9764 43.1704L14.3728 41.3656ZM14.5514 41.6068C14.5073 41.5464 14.4489 41.4666 14.3728 41.3656L11.9764 43.1704C12.0393 43.2539 12.0873 43.3196 12.1306 43.3787L14.5514 41.6068ZM14.6364 41.721C14.6375 41.7223 14.633 41.717 14.6181 41.6972C14.6021 41.676 14.583 41.6499 14.5514 41.6068L12.1306 43.3786C12.1811 43.4476 12.2535 43.5476 12.3313 43.641L14.6364 41.721ZM14.677 41.7697L14.6366 41.7212L12.3311 43.6408L12.3715 43.6894L14.677 41.7697ZM14.5775 42.0062C14.5918 42.0062 14.675 42.008 14.7881 42.046C14.9054 42.0853 14.9844 42.1398 15.0175 42.1662C15.0383 42.1828 15.0249 42.1757 14.9563 42.0992C14.8884 42.0234 14.8058 41.9245 14.6771 41.7699L12.3714 43.6892C12.5709 43.9289 12.8471 44.2727 13.1479 44.5124C13.5846 44.8604 14.0611 45.0062 14.5775 45.0062V42.0062ZM14.5878 42.0062H14.5775V45.0062H14.5878V42.0062ZM14.6365 42.0069L14.6263 42.0067L14.5493 45.0057L14.5596 45.006L14.6365 42.0069ZM13.6613 42.4488C13.6656 42.4436 13.7034 42.3975 13.7659 42.3412C13.8353 42.2786 13.9377 42.2007 14.0748 42.1349C14.3572 41.9993 14.5988 42.006 14.6365 42.0069L14.5596 45.006C14.7084 45.0098 15.0262 45.006 15.3735 44.8392C15.7097 44.6778 15.9066 44.441 15.9718 44.3623L13.6613 42.4488ZM13.7666 42.1631C13.6991 42.3309 13.6577 42.4259 13.6289 42.4846C13.5994 42.5446 13.6091 42.5118 13.6613 42.4488L15.9718 44.3623C16.2554 44.0198 16.4293 43.5822 16.5495 43.2837L13.7666 42.1631ZM13.7932 42.0967L13.7656 42.1656L16.5505 43.2812L16.578 43.2124L13.7932 42.0967ZM13.7929 42.0975L13.7929 42.0975L16.5783 43.2117L16.5783 43.2116L13.7929 42.0975ZM14.5024 40.7465C14.1222 41.2504 13.895 41.8419 13.7928 42.0978L16.5785 43.2113C16.6372 43.0644 16.6886 42.9371 16.7481 42.813C16.808 42.6882 16.8588 42.6043 16.8974 42.5531L14.5024 40.7465ZM17.0668 39.4492C15.8597 39.4476 15.0065 40.0782 14.5024 40.7465L16.8974 42.5531C16.942 42.494 16.976 42.4702 16.99 42.4624C16.9965 42.4587 17.0022 42.4564 17.0091 42.4546C17.0159 42.4528 17.0324 42.4492 17.0628 42.4492L17.0668 39.4492ZM18.7584 39.94C18.4864 39.7649 17.8161 39.3757 16.9306 39.4552L17.1991 42.4432C17.1306 42.4494 17.0876 42.4351 17.0836 42.4337C17.0814 42.433 17.0853 42.4342 17.0951 42.4393C17.1049 42.4443 17.1175 42.4516 17.1341 42.4623L18.7584 39.94ZM19.6373 40.6739C19.4232 40.4584 19.1194 40.1725 18.7584 39.94L17.1341 42.4623C17.222 42.5189 17.3458 42.6239 17.5089 42.788L19.6373 40.6739ZM20.4591 41.5742C20.2139 41.2951 19.9116 40.95 19.6373 40.6739L17.5089 42.788C17.7049 42.9854 17.9418 43.2542 18.2052 43.554L20.4591 41.5742ZM20.461 41.5764L20.461 41.5764L18.2033 43.5519L18.2033 43.5519L20.461 41.5764ZM20.8316 41.9937C20.722 41.8734 20.5986 41.7331 20.4591 41.5742L18.2052 43.5541C18.3401 43.7076 18.4823 43.8696 18.6136 44.0137L20.8316 41.9937ZM21.3445 42.5009C21.3446 42.5009 21.3436 42.5002 21.3415 42.4986C21.3394 42.4971 21.3365 42.4949 21.3326 42.4918C21.3247 42.4857 21.3138 42.4769 21.2999 42.4651C21.2716 42.4411 21.2345 42.4079 21.1881 42.3636C21.0944 42.2741 20.9763 42.1527 20.8316 41.9937L18.6136 44.0137C18.9441 44.3766 19.2895 44.7236 19.6208 44.9562L21.3445 42.5009ZM19.1704 42.9795L19.0998 43.1474L21.8655 44.3096L21.9361 44.1417L19.1704 42.9795ZM18.8997 40.5762C19.033 41.8735 19.1016 42.8563 19.0574 43.4491L22.0491 43.6721C22.1163 42.7702 22.0128 41.5228 21.8839 40.2694L18.8997 40.5762ZM18.8563 40.1634L18.9 40.5796L21.8836 40.266L21.8399 39.8498L18.8563 40.1634ZM18.8563 40.1634L18.8566 40.1667L21.8395 39.8466L21.8392 39.8433L18.8563 40.1634ZM18.6852 38.6097L18.8567 40.1676L21.8387 39.8392L21.6671 38.2813L18.6852 38.6097ZM18.4189 35.0504C18.4189 36.08 18.5511 37.3866 18.6851 38.6089L21.6672 38.282C21.5303 37.0327 21.4189 35.8888 21.4189 35.0504H18.4189ZM17.1086 31.5021C17.889 32.3322 18.4189 33.5465 18.4189 35.0504H21.4189C21.4189 32.8208 20.6233 30.8606 19.2941 29.447L17.1086 31.5021ZM20.4597 28.351C18.8166 26.6036 16.5194 25.5644 13.9987 25.5644V28.5644C15.6756 28.5644 17.1869 29.2498 18.2742 30.4061L20.4597 28.351ZM23.0189 35.0504C23.0189 32.4342 22.0818 30.076 20.4597 28.351L18.2742 30.4061C19.3473 31.5472 20.0189 33.1594 20.0189 35.0504H23.0189ZM23.2577 38.1077C23.1191 36.8433 23.0189 35.7865 23.0189 35.0504H20.0189C20.0189 35.978 20.14 37.1983 20.2755 38.4346L23.2577 38.1077ZM23.4296 39.6687L23.2576 38.1069L20.2756 38.4354L20.4476 39.9971L23.4296 39.6687ZM23.4305 39.6767L23.4301 39.6735L20.4471 39.9923L20.4475 39.9956L23.4305 39.6767ZM23.475 40.1006L23.4307 39.6793L20.4472 39.9929L20.4915 40.4142L23.475 40.1006ZM23.4754 40.1039L23.4752 40.1021L20.4913 40.4127L20.4915 40.4145L23.4754 40.1039ZM23.6278 43.984C23.7393 42.8699 23.607 41.3847 23.4756 40.1058L20.4913 40.4126C20.629 41.7524 20.7186 42.9275 20.6427 43.6854L23.6278 43.984ZM23.1468 45.3606C23.2261 45.2244 23.5578 44.6837 23.6278 43.984L20.6427 43.6854C20.6453 43.6602 20.6489 43.6654 20.632 43.7052C20.6152 43.7443 20.5945 43.7819 20.5546 43.8505L23.1468 45.3606ZM23.133 45.3843C23.1325 45.3853 23.1331 45.3841 23.1358 45.3795C23.1386 45.3747 23.1418 45.3692 23.1468 45.3606L20.5546 43.8505C20.5468 43.8638 20.5322 43.8888 20.5187 43.9129L23.133 45.3843ZM21.2955 46.8348C22.2435 46.5961 22.8203 45.9398 23.133 45.3844L20.5187 43.9129C20.5068 43.934 20.4966 43.9486 20.4895 43.9576C20.4825 43.9665 20.4801 43.9679 20.4838 43.9647C20.4879 43.9611 20.4977 43.9534 20.5134 43.945C20.5295 43.9363 20.5469 43.9297 20.563 43.9256L21.2955 46.8348ZM19.2211 46.5775C19.65 46.792 20.4036 47.0594 21.2955 46.8348L20.563 43.9256C20.5791 43.9215 20.5951 43.9197 20.6087 43.9195C20.6217 43.9193 20.6289 43.9206 20.6291 43.9206C20.6292 43.9206 20.6276 43.9203 20.6244 43.9195C20.6212 43.9186 20.6165 43.9172 20.6105 43.915C20.5982 43.9106 20.5822 43.904 20.5631 43.8944L19.2211 46.5775ZM17.4306 45.0911C17.7881 45.4836 18.4386 46.1861 19.2211 46.5775L20.5631 43.8944C20.3492 43.7874 20.0428 43.5038 19.6486 43.0711L17.4306 45.0911ZM16.9457 44.5452C17.0892 44.709 17.2514 44.8943 17.4306 45.0911L19.6486 43.0711C19.4917 42.8988 19.3477 42.7344 19.2023 42.5684L16.9457 44.5452ZM16.9682 44.5703L16.9683 44.5704L19.1797 42.5432L19.1797 42.5432L16.9682 44.5703ZM16.3737 43.9156C16.5408 44.0838 16.7129 44.2795 16.9456 44.5451L19.2023 42.5684C18.9841 42.3193 18.7479 42.0489 18.5021 41.8014L16.3737 43.9156ZM16.2616 43.8034C16.242 43.7906 16.2317 43.7825 16.2317 43.7825C16.2311 43.7821 16.2367 43.7863 16.2486 43.7967C16.2732 43.8181 16.3144 43.8559 16.3737 43.9156L18.5021 41.8014C18.3189 41.617 18.1171 41.433 17.9092 41.2964L16.2616 43.8034ZM17.015 44.0483L17.0256 44.0487L17.1453 41.0511L17.1346 41.0507L17.015 44.0483ZM16.9019 44.0399C16.9034 44.04 16.9538 44.0459 17.0152 44.0483L17.1344 41.0507C17.1865 41.0527 17.2289 41.0577 17.2229 41.0571L16.9019 44.0399ZM18.1747 43.5167C18.1736 43.5181 18.1687 43.5246 18.1608 43.5344C18.1531 43.5439 18.1392 43.5607 18.1201 43.5818C18.0901 43.6148 18.0023 43.7092 17.8626 43.8023C17.6947 43.9143 17.4801 44.006 17.229 44.0368C17.0325 44.0609 16.8614 44.0355 16.9018 44.0398L17.223 41.0571C17.2227 41.0571 17.2196 41.0567 17.2161 41.0563C17.2123 41.056 17.2063 41.0553 17.1991 41.0547C17.185 41.0533 17.1613 41.0513 17.1319 41.0497C17.0726 41.0467 16.9785 41.0451 16.8643 41.059C16.6031 41.091 16.3784 41.1863 16.1985 41.3062C15.9451 41.4752 15.7905 41.6957 15.7797 41.71L18.1747 43.5167ZM18.0337 43.8813C18.1101 43.6916 18.1543 43.5839 18.189 43.5084C18.2239 43.4324 18.2185 43.4587 18.1747 43.5167L15.7798 41.71C15.5281 42.0436 15.3636 42.4806 15.2508 42.7608L18.0337 43.8813ZM18.0284 43.8943L18.0337 43.8812L15.2508 42.7608L15.2455 42.7738L18.0284 43.8943ZM17.2041 45.3828C17.6646 44.8267 17.9171 44.1708 18.0285 43.8942L15.2455 42.7739C15.1827 42.93 15.1285 43.0628 15.0635 43.1929C14.9988 43.3225 14.9411 43.4119 14.8935 43.4693L17.2041 45.3828ZM14.5363 46.6058C15.7205 46.6305 16.6226 46.085 17.2041 45.3828L14.8936 43.4693C14.8418 43.5318 14.7982 43.562 14.7673 43.5773C14.7416 43.59 14.6937 43.6085 14.5988 43.6065L14.5363 46.6058ZM11.1938 44.7779C11.5771 45.2528 12.6071 46.599 14.562 46.6062L14.5731 43.6062C14.1588 43.6047 13.9303 43.3918 13.5282 42.8936L11.1938 44.7779ZM11.1941 44.7782L11.1943 44.7785L13.5277 42.893L13.5275 42.8927L11.1941 44.7782ZM11.1019 44.6651C11.1266 44.6947 11.1544 44.729 11.1936 44.7776L13.528 42.8933C13.4922 42.849 13.4492 42.7957 13.407 42.745L11.1019 44.6651ZM10.7966 44.2657C10.8713 44.3673 10.9959 44.5378 11.1019 44.665L13.407 42.745C13.3726 42.7037 13.3099 42.6195 13.2133 42.4883L10.7966 44.2657ZM10.6983 44.1329C10.7247 44.168 10.7564 44.211 10.7966 44.2657L13.2133 42.4883C13.176 42.4375 13.1334 42.3795 13.0947 42.3281L10.6983 44.1329ZM10.449 43.8329C10.5069 43.8905 10.5859 43.9836 10.6983 44.1329L13.0947 42.3281C12.9537 42.1409 12.7736 41.9136 12.5635 41.7049L10.449 43.8329ZM11.6438 43.9032C11.6439 43.9032 11.6411 43.9043 11.6378 43.9056C11.6343 43.907 11.6301 43.9086 11.6253 43.9104C11.6158 43.9141 11.6052 43.918 11.5938 43.9221C11.5709 43.9303 11.547 43.9382 11.5219 43.9458C11.4718 43.9608 11.4206 43.9733 11.3685 43.983C11.2637 44.0025 11.1619 44.0094 11.0655 44.0064C10.8726 44.0005 10.7195 43.9557 10.6165 43.9136C10.428 43.8366 10.3689 43.7534 10.4489 43.8329L12.5635 41.7049C12.3378 41.4806 12.0713 41.2672 11.751 41.1364C11.5821 41.0674 11.3819 41.0148 11.1581 41.0079C11.0462 41.0044 10.933 41.0126 10.8205 41.0335C10.7645 41.0439 10.7103 41.0571 10.658 41.0728C10.6319 41.0807 10.6071 41.0889 10.5836 41.0973C10.5719 41.1015 10.5611 41.1055 10.5513 41.1093C10.5465 41.1112 10.5422 41.1128 10.5386 41.1142C10.5352 41.1156 10.5324 41.1167 10.5324 41.1167L11.6438 43.9032ZM11.9051 43.8149C11.9512 43.7163 11.9812 43.6588 11.9995 43.6266C12.0182 43.5936 12.0124 43.6092 11.9815 43.6467C11.9458 43.6901 11.8825 43.7559 11.7886 43.8194C11.6943 43.8832 11.6088 43.9177 11.5574 43.9347L10.6188 41.0853C10.2584 41.204 9.9351 41.4122 9.66485 41.7406C9.45388 41.997 9.3036 42.296 9.18766 42.5438L11.9051 43.8149ZM11.8713 43.8882C11.8856 43.8569 11.896 43.8344 11.9051 43.8149L9.18765 42.5439C9.17272 42.5758 9.15737 42.6093 9.14421 42.638L11.8713 43.8882ZM10.3907 45.8633C11.3019 45.1761 11.7157 44.2277 11.8713 43.8882L9.1442 42.638C8.97979 42.9967 8.82632 43.2856 8.5842 43.4682L10.3907 45.8633ZM7.15812 46.4072C8.36925 46.7826 9.61526 46.4482 10.3907 45.8633L8.58421 43.4682C8.58426 43.4682 8.58278 43.4693 8.57965 43.4714C8.57652 43.4734 8.57202 43.4762 8.56609 43.4796C8.55406 43.4865 8.53761 43.495 8.5168 43.504C8.47435 43.5224 8.42169 43.5395 8.36273 43.551C8.24121 43.5747 8.13127 43.568 8.04643 43.5417L7.15812 46.4072ZM4.61886 43.1408C4.7359 44.0292 5.20993 45.8032 7.15812 46.4072L8.04643 43.5417C7.89929 43.4961 7.82961 43.4285 7.76835 43.3273C7.68767 43.194 7.62553 42.9947 7.59316 42.749L4.61886 43.1408ZM4.69856 39.1969C4.57793 40.4118 4.45286 41.8809 4.61886 43.1409L7.59316 42.749C7.47907 41.883 7.55932 40.7478 7.68388 39.4934L4.69856 39.1969ZM4.77181 38.4795C4.74758 38.7135 4.72268 38.9539 4.69856 39.1969L7.68388 39.4934C7.70728 39.2577 7.73153 39.0235 7.75586 38.7884L4.77181 38.4795ZM4.77191 38.4786L4.77184 38.4792L7.75583 38.7887L7.75589 38.7881L4.77191 38.4786ZM4.9738 35.7981C4.96961 36.5552 4.87935 37.4409 4.77188 38.4789L7.75592 38.7878C7.85914 37.791 7.96859 36.748 7.97375 35.8147L4.9738 35.7981ZM4.97847 34.5846C4.97847 34.9523 4.97623 35.3583 4.9738 35.7981L7.97375 35.8147C7.97617 35.377 7.97847 34.9622 7.97847 34.5846H4.97847ZM7.62043 28.2064C5.99069 29.8361 4.97847 32.0943 4.97847 34.5846H7.97847C7.97847 32.9221 8.65146 31.418 9.74175 30.3277L7.62043 28.2064ZM13.9987 25.5644C11.5084 25.5644 9.25017 26.5766 7.62043 28.2064L9.74175 30.3277C10.832 29.2374 12.3362 28.5644 13.9987 28.5644V25.5644ZM15.5904 42.9216C15.7091 43.351 15.99 43.5969 15.9967 43.6033C16.0688 43.6726 16.1322 43.7194 16.16 43.7394C16.2211 43.7834 16.2722 43.813 16.292 43.8244C16.3396 43.8516 16.379 43.8707 16.3992 43.8802C16.4455 43.902 16.4871 43.9188 16.5209 43.9315L17.5735 41.1222C17.6001 41.1322 17.6363 41.1467 17.6788 41.1667C17.6971 41.1754 17.7351 41.1937 17.7818 41.2204C17.8011 41.2315 17.8519 41.2609 17.9127 41.3047C17.9404 41.3246 18.0037 41.3713 18.0757 41.4406C18.1119 41.4754 18.1725 41.5369 18.2368 41.6227C18.2909 41.695 18.4115 41.8676 18.4819 42.1221L15.5904 42.9216ZM17.7467 41.1999C17.7213 41.1865 17.6827 41.167 17.6354 41.1465C17.6181 41.139 17.5667 41.1169 17.4991 41.095C17.4837 41.09 17.3763 41.0539 17.2346 41.035C17.2107 41.0318 16.94 40.9875 16.6166 41.0817C16.4386 41.1336 16.0525 41.2836 15.7792 41.7032C15.477 42.1673 15.5123 42.6456 15.5927 42.93L18.4796 42.1137C18.5599 42.398 18.5953 42.8764 18.2931 43.3405C18.0198 43.76 17.6337 43.9101 17.4557 43.9619C17.1324 44.0561 16.8618 44.0118 16.8379 44.0086C16.6965 43.9898 16.5894 43.9538 16.5744 43.9489C16.5077 43.9273 16.4577 43.9057 16.4422 43.899C16.3985 43.8801 16.3656 43.8632 16.3478 43.8538L17.7467 41.1999Z" fill="#F8F9FA" mask="url(#path-1-outside-1_50_11288)"/>
<path d="M38.5307 15.2949C42.5706 15.2949 46.2278 16.9406 48.8752 19.6009C51.5237 22.2623 53.1615 25.939 53.1615 30.0001C53.1615 34.0612 51.5237 37.738 48.8752 40.3993C46.2278 43.0596 42.5706 44.7053 38.5307 44.7053C35.38 44.7053 32.462 43.7045 30.0743 42.0018C28.3347 40.7612 26.8765 39.1484 25.8148 37.2788C25.2586 36.2993 25.8018 35.1078 26.8604 34.7231L38.8625 30.3624L27.6868 23.4317C26.7564 22.8547 26.4528 21.6263 27.1382 20.7726C28.2407 19.3993 29.584 18.2294 31.1037 17.3277C33.2806 16.0359 35.8196 15.2949 38.5307 15.2949Z" fill="#FFE066" stroke="#212529" stroke-width="1.6" stroke-linejoin="round"/>
<g style="mix-blend-mode:multiply">
<path fill-rule="evenodd" clip-rule="evenodd" d="M30.1007 41.9345C32.4835 43.6258 35.3916 44.6193 38.5307 44.6193C42.5705 44.6193 46.2278 42.9736 48.8752 40.3133C51.5237 37.6519 53.1615 33.9752 53.1615 29.9141C53.1615 25.853 51.5237 22.1763 48.8752 19.5149C47.823 18.4575 46.6112 17.5604 45.2793 16.8633C45.963 17.3485 46.6034 17.8912 47.1937 18.4843C49.8421 21.1457 51.48 24.8225 51.48 28.8835C51.48 32.9446 49.8421 36.6214 47.1937 39.2827C44.5463 41.943 40.889 43.5887 36.8492 43.5887C34.4151 43.5887 32.1198 42.9914 30.1007 41.9345Z" fill="#DEE2E6"/>
</g>
<path d="M36.1263 22.6281C36.868 22.6281 37.4692 22.0269 37.4692 21.2853C37.4692 20.5436 36.868 19.9424 36.1263 19.9424C35.3847 19.9424 34.7834 20.5436 34.7834 21.2853C34.7834 22.0269 35.3847 22.6281 36.1263 22.6281Z" fill="#212529"/>
<path d="M13.9987 27.8643C12.1429 27.8643 10.4629 28.6164 9.24677 29.8326C8.03065 31.0487 7.27846 32.7287 7.27846 34.5845C7.27846 34.9597 7.27618 35.3725 7.27376 35.8107C7.2617 37.989 6.64679 40.9248 6.89915 42.8403C6.98106 43.462 7.21944 44.018 7.83915 44.2102C8.27963 44.3467 8.7652 44.2084 9.00573 44.0269C9.44269 43.6974 9.64692 43.214 9.82172 42.8403C10.0454 42.362 10.285 41.9321 10.8378 41.75C11.762 41.4456 12.5226 42.7769 12.8691 43.1929C13.3235 43.7384 13.7163 44.3061 14.5775 44.3061C16.1355 44.346 15.7035 41.6942 17.1066 41.75C18.0502 41.5751 20.2209 45.8688 21.1287 44.2561C21.2328 44.0711 21.3219 43.928 21.3393 43.7549C21.4234 42.9141 21.3239 41.6669 21.1876 40.3409L21.1433 39.9196L21.0735 39.28L21.0221 38.8178L20.9714 38.3582C20.8351 37.115 20.7189 35.9332 20.7189 35.0503C20.7189 32.9901 19.9853 31.2039 18.7841 29.9264C17.5671 28.6322 15.8725 27.8643 13.9987 27.8643Z" fill="#91A7FF"/>
<path d="M21.1287 44.2561C21.2328 44.0711 21.3219 43.928 21.3393 43.7549M21.1287 44.2561C20.2209 45.8688 18.0502 41.5751 17.1066 41.75C15.7035 41.6942 16.1355 44.346 14.5775 44.3061C13.7163 44.3061 13.3235 43.7384 12.8691 43.1929C12.5226 42.7769 11.762 41.4456 10.8378 41.75C10.285 41.9321 10.0454 42.362 9.82172 42.8403C9.64692 43.214 9.44269 43.6974 9.00573 44.0269C8.7652 44.2084 8.27963 44.3467 7.83915 44.2102C7.21944 44.018 6.98106 43.462 6.89915 42.8403C6.64679 40.9248 7.2617 37.989 7.27376 35.8107C7.27618 35.3725 7.27846 34.9597 7.27846 34.5845C7.27846 32.7287 8.03065 31.0487 9.24677 29.8326C10.4629 28.6164 12.1429 27.8643 13.9987 27.8643C15.8725 27.8643 17.5671 28.6322 18.7841 29.9264C19.9853 31.2039 20.7189 32.9901 20.7189 35.0503C20.7189 35.9332 20.8351 37.115 20.9714 38.3582L21.0221 38.8178L21.0735 39.28L21.1433 39.9196L21.1876 40.3409C21.3239 41.6669 21.4234 42.9141 21.3393 43.7549M21.1287 44.2561L21.3393 43.7549" stroke="#212529" stroke-width="1.4"/>
<g style="mix-blend-mode:soft-light" opacity="0.4">
<path fill-rule="evenodd" clip-rule="evenodd" d="M9.24673 29.8326C10.4629 28.6164 12.1429 27.8643 13.9986 27.8643C15.5757 27.8643 17.0259 28.4083 18.1712 29.3521C17.3285 28.9628 16.393 28.7506 15.4079 28.7506C13.5522 28.7506 11.8722 29.5028 10.656 30.7189C9.43992 31.935 8.68773 33.6151 8.68773 35.4708C8.68773 35.846 8.68545 36.2588 8.68303 36.697C8.67811 37.5853 8.57295 38.5995 8.46723 39.6191C8.31369 41.0999 8.15897 42.5922 8.30842 43.7266C8.33247 43.9092 8.37003 44.0861 8.42677 44.2498C8.23891 44.2772 8.03457 44.2708 7.83912 44.2102C7.21941 44.018 6.98102 43.462 6.89911 42.8403C6.74966 41.7059 6.90438 40.2136 7.05792 38.7328C7.16364 37.7132 7.2688 36.699 7.27372 35.8107C7.27614 35.3725 7.27843 34.9597 7.27843 34.5845C7.27843 32.7287 8.03061 31.0487 9.24673 29.8326ZM12.4188 42.5977C12.5126 42.7163 12.5978 42.8323 12.6734 42.9353C12.7484 43.0374 12.814 43.1267 12.8691 43.1929C12.9048 43.2358 12.9402 43.2788 12.9754 43.3217C13.3677 43.7993 13.7448 44.2583 14.4626 44.3026C14.4366 44.2712 14.4107 44.2397 14.3847 44.208C14.3495 44.1651 14.3141 44.1221 14.2784 44.0792C14.2233 44.0131 14.1577 43.9238 14.0827 43.8216C13.7154 43.3214 13.1215 42.5125 12.4188 42.5977ZM18.3351 42.645C18.4551 42.7778 18.5779 42.9178 18.7021 43.0593C19.4068 43.8626 20.1566 44.7173 20.7084 44.61C20.5094 44.3993 20.3087 44.1705 20.1114 43.9457C19.4882 43.2352 18.9002 42.5651 18.5158 42.6363C18.4519 42.6337 18.3918 42.6368 18.3351 42.645Z" fill="#F8F9FA"/>
</g>
<path d="M12.0741 35.2239C12.5313 35.2239 12.9019 34.8533 12.9019 34.3961C12.9019 33.939 12.5313 33.5684 12.0741 33.5684C11.6169 33.5684 11.2463 33.939 11.2463 34.3961C11.2463 34.8533 11.6169 35.2239 12.0741 35.2239Z" fill="#212529"/>
<path d="M17.2894 35.2239C17.7466 35.2239 18.1172 34.8533 18.1172 34.3961C18.1172 33.939 17.7466 33.5684 17.2894 33.5684C16.8323 33.5684 16.4617 33.939 16.4617 34.3961C16.4617 34.8533 16.8323 35.2239 17.2894 35.2239Z" fill="#212529"/>
</svg>
