<svg width="60" height="61" viewBox="0 0 60 61" fill="none" xmlns="http://www.w3.org/2000/svg">
<mask id="path-1-outside-1_50_5607" maskUnits="userSpaceOnUse" x="4.51135" y="9.11182" width="51" height="43" fill="black">
<rect fill="white" x="4.51135" y="9.11182" width="51" height="43"/>
<path fill-rule="evenodd" clip-rule="evenodd" d="M9.11774 19.8958C9.11774 16.0038 12.2728 12.8487 16.1648 12.8487C20.0568 12.8487 23.2119 16.0038 23.2119 19.8958C23.2119 21.6567 22.5672 23.2648 21.4998 24.5003C21.2152 24.8298 21.2185 25.3191 21.5077 25.6447C23.0208 27.3485 23.9849 29.7805 23.9849 32.5043C23.9849 37.4915 20.8097 41.3714 16.973 41.8543V36.3301L21.0434 32.5864C21.2788 32.37 21.2941 32.0037 21.0776 31.7684C20.8612 31.533 20.4949 31.5177 20.2596 31.7342L16.973 34.7569V28.1345L19.6026 25.716C19.838 25.4995 19.8533 25.1333 19.6368 24.8979C19.4204 24.6626 19.0541 24.6473 18.8188 24.8637L16.973 26.5613L16.973 18.0415C16.973 17.7218 16.7138 17.4626 16.3941 17.4626C16.0743 17.4626 15.8151 17.7218 15.8151 18.0415L15.8151 26.4729L13.9576 24.8535C13.7166 24.6433 13.3509 24.6684 13.1407 24.9094C12.9306 25.1504 12.9557 25.5161 13.1967 25.7263L15.8151 28.0091V34.5994L12.5168 31.7239C12.2758 31.5138 11.91 31.5388 11.6999 31.7799C11.4898 32.0209 11.5148 32.3866 11.7559 32.5967L15.8151 36.1356V41.8956C11.7762 41.6768 8.34471 37.6889 8.34471 32.5043C8.34471 29.7805 9.30884 27.3485 10.822 25.6447C11.1111 25.3191 11.1145 24.8297 10.8298 24.5003C9.76244 23.2648 9.11774 21.6567 9.11774 19.8958ZM25.7218 32.5043C25.7218 38.2107 21.9812 43.1225 16.973 43.6033V47.7402L31.1296 47.7402V44.7013H29.1598C28.095 44.7013 27.2318 43.8381 27.2318 42.7733C27.2318 41.7085 28.095 40.8453 29.1598 40.8453H31.9179V37.8259H31.3505C30.2849 37.8259 29.421 36.962 29.421 35.8963C29.421 34.8307 30.2849 33.9668 31.3505 33.9668H48.8847C49.9504 33.9668 50.8142 34.8307 50.8142 35.8963C50.8142 36.962 49.9504 37.8259 48.8847 37.8259H48.3175V40.8453H51.0755C52.1404 40.8453 53.0036 41.7085 53.0036 42.7733C53.0036 43.8381 52.1404 44.7013 51.0755 44.7013H49.1058V47.7402H52.5238C53.0567 47.7402 53.4887 48.1723 53.4887 48.7052C53.4887 49.2381 53.0567 49.6701 52.5238 49.6701L7.47629 49.6701C6.94337 49.6701 6.51135 49.2381 6.51135 48.7052C6.51135 48.1722 6.94337 47.7402 7.47629 47.7402H15.8151V43.6347C10.5784 43.4193 6.60782 38.3835 6.60782 32.5043C6.60782 29.6558 7.52539 27.0393 9.05574 25.0561C8.00261 23.6074 7.38086 21.8234 7.38086 19.8958C7.38086 15.0445 11.3136 11.1118 16.1648 11.1118C21.0161 11.1118 24.9488 15.0445 24.9488 19.8958C24.9488 21.8234 24.3271 23.6075 23.2739 25.0561C24.8042 27.0394 25.7218 29.6558 25.7218 32.5043ZM49.1058 43.5434V43.2931C49.1058 42.8668 45.5857 42.5212 41.2434 42.5212C36.901 42.5212 33.3809 42.8668 33.3809 43.2931V43.5434H32.6735V43.2931C32.6735 42.8668 32.3278 42.5212 31.9015 42.5212C31.4752 42.5212 31.1296 42.8668 31.1296 43.2931V43.5434H29.1598C28.7345 43.5434 28.3897 43.1986 28.3897 42.7733C28.3897 42.348 28.7345 42.0032 29.1598 42.0032H51.0755C51.5009 42.0032 51.8456 42.348 51.8456 42.7733C51.8456 43.1986 51.5009 43.5434 51.0755 43.5434H49.1058ZM32.6735 44.7013H33.3809V47.7402H32.6735V44.7013ZM33.9722 40.8453V37.8259H33.4618V40.8453H33.9722ZM31.3505 35.1247C30.9244 35.1247 30.5789 35.4702 30.5789 35.8963C30.5789 36.3225 30.9244 36.6679 31.3505 36.6679H48.8847C49.3108 36.6679 49.6563 36.3225 49.6563 35.8963C49.6563 35.4702 49.3109 35.1247 48.8847 35.1247H31.3505Z"/>
</mask>
<path fill-rule="evenodd" clip-rule="evenodd" d="M9.11774 19.8958C9.11774 16.0038 12.2728 12.8487 16.1648 12.8487C20.0568 12.8487 23.2119 16.0038 23.2119 19.8958C23.2119 21.6567 22.5672 23.2648 21.4998 24.5003C21.2152 24.8298 21.2185 25.3191 21.5077 25.6447C23.0208 27.3485 23.9849 29.7805 23.9849 32.5043C23.9849 37.4915 20.8097 41.3714 16.973 41.8543V36.3301L21.0434 32.5864C21.2788 32.37 21.2941 32.0037 21.0776 31.7684C20.8612 31.533 20.4949 31.5177 20.2596 31.7342L16.973 34.7569V28.1345L19.6026 25.716C19.838 25.4995 19.8533 25.1333 19.6368 24.8979C19.4204 24.6626 19.0541 24.6473 18.8188 24.8637L16.973 26.5613L16.973 18.0415C16.973 17.7218 16.7138 17.4626 16.3941 17.4626C16.0743 17.4626 15.8151 17.7218 15.8151 18.0415L15.8151 26.4729L13.9576 24.8535C13.7166 24.6433 13.3509 24.6684 13.1407 24.9094C12.9306 25.1504 12.9557 25.5161 13.1967 25.7263L15.8151 28.0091V34.5994L12.5168 31.7239C12.2758 31.5138 11.91 31.5388 11.6999 31.7799C11.4898 32.0209 11.5148 32.3866 11.7559 32.5967L15.8151 36.1356V41.8956C11.7762 41.6768 8.34471 37.6889 8.34471 32.5043C8.34471 29.7805 9.30884 27.3485 10.822 25.6447C11.1111 25.3191 11.1145 24.8297 10.8298 24.5003C9.76244 23.2648 9.11774 21.6567 9.11774 19.8958ZM25.7218 32.5043C25.7218 38.2107 21.9812 43.1225 16.973 43.6033V47.7402L31.1296 47.7402V44.7013H29.1598C28.095 44.7013 27.2318 43.8381 27.2318 42.7733C27.2318 41.7085 28.095 40.8453 29.1598 40.8453H31.9179V37.8259H31.3505C30.2849 37.8259 29.421 36.962 29.421 35.8963C29.421 34.8307 30.2849 33.9668 31.3505 33.9668H48.8847C49.9504 33.9668 50.8142 34.8307 50.8142 35.8963C50.8142 36.962 49.9504 37.8259 48.8847 37.8259H48.3175V40.8453H51.0755C52.1404 40.8453 53.0036 41.7085 53.0036 42.7733C53.0036 43.8381 52.1404 44.7013 51.0755 44.7013H49.1058V47.7402H52.5238C53.0567 47.7402 53.4887 48.1723 53.4887 48.7052C53.4887 49.2381 53.0567 49.6701 52.5238 49.6701L7.47629 49.6701C6.94337 49.6701 6.51135 49.2381 6.51135 48.7052C6.51135 48.1722 6.94337 47.7402 7.47629 47.7402H15.8151V43.6347C10.5784 43.4193 6.60782 38.3835 6.60782 32.5043C6.60782 29.6558 7.52539 27.0393 9.05574 25.0561C8.00261 23.6074 7.38086 21.8234 7.38086 19.8958C7.38086 15.0445 11.3136 11.1118 16.1648 11.1118C21.0161 11.1118 24.9488 15.0445 24.9488 19.8958C24.9488 21.8234 24.3271 23.6075 23.2739 25.0561C24.8042 27.0394 25.7218 29.6558 25.7218 32.5043ZM49.1058 43.5434V43.2931C49.1058 42.8668 45.5857 42.5212 41.2434 42.5212C36.901 42.5212 33.3809 42.8668 33.3809 43.2931V43.5434H32.6735V43.2931C32.6735 42.8668 32.3278 42.5212 31.9015 42.5212C31.4752 42.5212 31.1296 42.8668 31.1296 43.2931V43.5434H29.1598C28.7345 43.5434 28.3897 43.1986 28.3897 42.7733C28.3897 42.348 28.7345 42.0032 29.1598 42.0032H51.0755C51.5009 42.0032 51.8456 42.348 51.8456 42.7733C51.8456 43.1986 51.5009 43.5434 51.0755 43.5434H49.1058ZM32.6735 44.7013H33.3809V47.7402H32.6735V44.7013ZM33.9722 40.8453V37.8259H33.4618V40.8453H33.9722ZM31.3505 35.1247C30.9244 35.1247 30.5789 35.4702 30.5789 35.8963C30.5789 36.3225 30.9244 36.6679 31.3505 36.6679H48.8847C49.3108 36.6679 49.6563 36.3225 49.6563 35.8963C49.6563 35.4702 49.3109 35.1247 48.8847 35.1247H31.3505Z" fill="#F8F9FA"/>
<path d="M21.4998 24.5003L20.3648 23.5197L20.3648 23.5197L21.4998 24.5003ZM21.5077 25.6447L22.6292 24.6486L22.6292 24.6486L21.5077 25.6447ZM16.973 41.8543H15.473C15.473 42.2848 15.658 42.6945 15.9808 42.9793C16.3036 43.264 16.7333 43.3963 17.1604 43.3426L16.973 41.8543ZM16.973 36.3301L15.9576 35.226C15.6488 35.5101 15.473 35.9105 15.473 36.3301H16.973ZM21.0434 32.5864L22.0588 33.6905L22.0588 33.6905L21.0434 32.5864ZM21.0776 31.7684L19.9736 32.7838L19.9736 32.7838L21.0776 31.7684ZM20.2596 31.7342L21.275 32.8382L21.275 32.8382L20.2596 31.7342ZM16.973 34.7569H15.473C15.473 35.3522 15.8251 35.8911 16.3702 36.1304C16.9153 36.3697 17.5503 36.2639 17.9884 35.8609L16.973 34.7569ZM16.973 28.1345L15.9576 27.0305C15.6488 27.3145 15.473 27.7149 15.473 28.1345H16.973ZM19.6026 25.716L18.5872 24.612L18.5872 24.612L19.6026 25.716ZM19.6368 24.8979L18.5328 25.9134L18.5328 25.9134L19.6368 24.8979ZM18.8188 24.8637L19.8342 25.9678L19.8342 25.9678L18.8188 24.8637ZM16.973 26.5613L15.473 26.5613C15.473 27.1566 15.8251 27.6956 16.3702 27.9348C16.9153 28.1741 17.5503 28.0684 17.9884 27.6654L16.973 26.5613ZM16.973 18.0415L15.473 18.0415L15.473 18.0415L16.973 18.0415ZM15.8151 18.0415L14.3151 18.0415L14.3151 18.0415L15.8151 18.0415ZM15.8151 26.4729L14.8294 27.6035C15.2727 27.99 15.9009 28.0817 16.4362 27.8383C16.9715 27.5948 17.3151 27.0609 17.3151 26.4729L15.8151 26.4729ZM13.9576 24.8535L12.9719 25.9841L12.9719 25.9841L13.9576 24.8535ZM13.1407 24.9094L12.0101 23.9237L12.0101 23.9237L13.1407 24.9094ZM13.1967 25.7263L14.1824 24.5956L14.1824 24.5956L13.1967 25.7263ZM15.8151 28.0091H17.3151C17.3151 27.5756 17.1276 27.1633 16.8008 26.8784L15.8151 28.0091ZM15.8151 34.5994L14.8294 35.7301C15.2727 36.1165 15.9009 36.2083 16.4362 35.9648C16.9715 35.7213 17.3151 35.1875 17.3151 34.5994H15.8151ZM12.5168 31.7239L11.5311 32.8546L11.5311 32.8546L12.5168 31.7239ZM11.6999 31.7799L12.8306 32.7656L12.8306 32.7656L11.6999 31.7799ZM11.7559 32.5967L10.7701 33.7274L10.7702 33.7274L11.7559 32.5967ZM15.8151 36.1356H17.3151C17.3151 35.7021 17.1276 35.2898 16.8008 35.005L15.8151 36.1356ZM15.8151 41.8956L15.734 43.3934C16.1453 43.4157 16.5476 43.2678 16.8467 42.9845C17.1457 42.7013 17.3151 42.3075 17.3151 41.8956H15.8151ZM10.822 25.6447L11.9435 26.6407L11.9435 26.6407L10.822 25.6447ZM10.8298 24.5003L11.9649 23.5196L11.9649 23.5196L10.8298 24.5003ZM16.973 43.6033L16.8297 42.1102C16.0603 42.1841 15.473 42.8304 15.473 43.6033H16.973ZM16.973 47.7402H15.473C15.473 48.5687 16.1446 49.2402 16.973 49.2402L16.973 47.7402ZM31.1296 47.7402L31.1296 49.2402C31.5274 49.2402 31.9089 49.0822 32.1902 48.8009C32.4715 48.5196 32.6296 48.1381 32.6296 47.7402H31.1296ZM31.1296 44.7013H32.6296C32.6296 43.8729 31.958 43.2013 31.1296 43.2013V44.7013ZM31.9179 40.8453V42.3453C32.7464 42.3453 33.4179 41.6737 33.4179 40.8453H31.9179ZM31.9179 37.8259H33.4179C33.4179 36.9974 32.7464 36.3259 31.9179 36.3259V37.8259ZM48.3175 37.8259V36.3259C47.4891 36.3259 46.8175 36.9974 46.8175 37.8259H48.3175ZM48.3175 40.8453H46.8175C46.8175 41.6737 47.4891 42.3453 48.3175 42.3453V40.8453ZM49.1058 44.7013V43.2013C48.2774 43.2013 47.6058 43.8729 47.6058 44.7013H49.1058ZM49.1058 47.7402H47.6058C47.6058 48.5687 48.2774 49.2402 49.1058 49.2402V47.7402ZM52.5238 49.6701L52.5238 51.1701H52.5238V49.6701ZM7.47629 49.6701L7.47629 48.1701H7.47629V49.6701ZM15.8151 47.7402V49.2402C16.6435 49.2402 17.3151 48.5687 17.3151 47.7402H15.8151ZM15.8151 43.6347H17.3151C17.3151 42.8303 16.6805 42.1691 15.8768 42.136L15.8151 43.6347ZM9.05574 25.0561L10.2433 25.9725C10.6502 25.4452 10.6606 24.7128 10.269 24.1741L9.05574 25.0561ZM23.2739 25.0561L22.0606 24.1741C21.669 24.7128 21.6795 25.4452 22.0864 25.9725L23.2739 25.0561ZM49.1058 43.5434H47.6058C47.6058 44.3718 48.2774 45.0434 49.1058 45.0434V43.5434ZM33.3809 43.5434V45.0434C34.2093 45.0434 34.8809 44.3718 34.8809 43.5434H33.3809ZM32.6735 43.5434H31.1735C31.1735 44.3718 31.845 45.0434 32.6735 45.0434V43.5434ZM31.1296 43.5434V45.0434C31.958 45.0434 32.6296 44.3718 32.6296 43.5434H31.1296ZM33.3809 44.7013H34.8809C34.8809 43.8729 34.2093 43.2013 33.3809 43.2013V44.7013ZM32.6735 44.7013V43.2013C31.845 43.2013 31.1735 43.8729 31.1735 44.7013H32.6735ZM33.3809 47.7402V49.2402C34.2093 49.2402 34.8809 48.5687 34.8809 47.7402H33.3809ZM32.6735 47.7402H31.1735C31.1735 48.5687 31.845 49.2402 32.6735 49.2402V47.7402ZM33.9722 37.8259H35.4722C35.4722 36.9974 34.8007 36.3259 33.9722 36.3259V37.8259ZM33.9722 40.8453V42.3453C34.8007 42.3453 35.4722 41.6737 35.4722 40.8453H33.9722ZM33.4618 37.8259V36.3259C32.6334 36.3259 31.9618 36.9974 31.9618 37.8259H33.4618ZM33.4618 40.8453H31.9618C31.9618 41.6737 32.6334 42.3453 33.4618 42.3453V40.8453ZM16.1648 11.3487C11.4444 11.3487 7.61774 15.1754 7.61774 19.8958H10.6177C10.6177 16.8322 13.1013 14.3487 16.1648 14.3487V11.3487ZM24.7119 19.8958C24.7119 15.1754 20.8853 11.3487 16.1648 11.3487V14.3487C19.2284 14.3487 21.7119 16.8322 21.7119 19.8958H24.7119ZM22.6349 25.4809C23.9288 23.9832 24.7119 22.0301 24.7119 19.8958H21.7119C21.7119 21.2832 21.2057 22.5463 20.3648 23.5197L22.6349 25.4809ZM22.6292 24.6486C22.8395 24.8854 22.8419 25.2413 22.6349 25.4809L20.3648 23.5197C19.5884 24.4183 19.5976 25.7528 20.3861 26.6407L22.6292 24.6486ZM25.4849 32.5043C25.4849 29.4315 24.3979 26.6402 22.6292 24.6486L20.3861 26.6407C21.6437 28.0568 22.4849 30.1295 22.4849 32.5043H25.4849ZM17.1604 43.3426C21.9166 42.7439 25.4849 38.0633 25.4849 32.5043H22.4849C22.4849 36.9197 19.7029 39.9989 16.7857 40.3661L17.1604 43.3426ZM15.473 36.3301V41.8543H18.473V36.3301H15.473ZM20.028 31.4824L15.9576 35.226L17.9884 37.4341L22.0588 33.6905L20.028 31.4824ZM19.9736 32.7838C19.6292 32.4094 19.6536 31.8267 20.028 31.4824L22.0588 33.6905C22.9039 32.9132 22.9589 31.5981 22.1817 30.753L19.9736 32.7838ZM21.275 32.8382C20.9006 33.1826 20.3179 33.1582 19.9736 32.7838L22.1817 30.753C21.4044 29.9079 20.0892 29.8529 19.2441 30.6301L21.275 32.8382ZM17.9884 35.8609L21.275 32.8382L19.2441 30.6301L15.9576 33.6528L17.9884 35.8609ZM15.473 28.1345V34.7569H18.473V28.1345H15.473ZM18.5872 24.612L15.9576 27.0305L17.9884 29.2386L20.6181 26.82L18.5872 24.612ZM18.5328 25.9134C18.1884 25.539 18.2128 24.9563 18.5872 24.612L20.6181 26.82C21.4632 26.0428 21.5181 24.7276 20.7409 23.8825L18.5328 25.9134ZM19.8342 25.9678C19.4598 26.3121 18.8771 26.2878 18.5328 25.9134L20.7409 23.8825C19.9636 23.0374 18.6485 22.9824 17.8034 23.7597L19.8342 25.9678ZM17.9884 27.6654L19.8342 25.9678L17.8034 23.7597L15.9576 25.4573L17.9884 27.6654ZM15.473 18.0415L15.473 26.5613L18.473 26.5613L18.473 18.0415L15.473 18.0415ZM16.3941 18.9626C15.8854 18.9626 15.473 18.5502 15.473 18.0415H18.473C18.473 16.8934 17.5422 15.9626 16.3941 15.9626V18.9626ZM17.3151 18.0415C17.3151 18.5502 16.9027 18.9626 16.3941 18.9626V15.9626C15.2459 15.9626 14.3151 16.8934 14.3151 18.0415H17.3151ZM17.3151 26.4729L17.3151 18.0415L14.3151 18.0415L14.3151 26.4729L17.3151 26.4729ZM12.9719 25.9841L14.8294 27.6035L16.8008 25.3422L14.9433 23.7228L12.9719 25.9841ZM14.2714 25.8951C13.9371 26.2785 13.3553 26.3184 12.9719 25.9841L14.9433 23.7228C14.0778 22.9683 12.7646 23.0582 12.0101 23.9237L14.2714 25.8951ZM14.1824 24.5956C14.5658 24.9299 14.6056 25.5117 14.2714 25.8951L12.0101 23.9237C11.2556 24.7892 11.3455 26.1024 12.211 26.8569L14.1824 24.5956ZM16.8008 26.8784L14.1824 24.5956L12.211 26.8569L14.8294 29.1397L16.8008 26.8784ZM17.3151 34.5994V28.0091H14.3151V34.5994H17.3151ZM11.5311 32.8546L14.8294 35.7301L16.8008 33.4688L13.5025 30.5933L11.5311 32.8546ZM12.8306 32.7656C12.4963 33.149 11.9145 33.1888 11.5311 32.8546L13.5025 30.5933C12.637 29.8387 11.3238 29.9287 10.5693 30.7941L12.8306 32.7656ZM12.7416 31.4661C13.125 31.8003 13.1648 32.3821 12.8306 32.7656L10.5693 30.7941C9.81476 31.6596 9.90469 32.9728 10.7701 33.7274L12.7416 31.4661ZM16.8008 35.005L12.7416 31.4661L10.7702 33.7274L14.8294 37.2663L16.8008 35.005ZM17.3151 41.8956V36.1356H14.3151V41.8956H17.3151ZM6.84471 32.5043C6.84471 38.2723 10.7023 43.1208 15.734 43.3934L15.8962 40.3978C12.85 40.2327 9.84471 37.1054 9.84471 32.5043H6.84471ZM9.70044 24.6486C7.9317 26.6402 6.84471 29.4315 6.84471 32.5043H9.84471C9.84471 30.1295 10.686 28.0567 11.9435 26.6407L9.70044 24.6486ZM9.69475 25.4809C9.48774 25.2413 9.49017 24.8854 9.70044 24.6486L11.9435 26.6407C12.7321 25.7528 12.7412 24.4182 11.9649 23.5196L9.69475 25.4809ZM7.61774 19.8958C7.61774 22.0301 8.40086 23.9832 9.69475 25.4809L11.9649 23.5196C11.124 22.5463 10.6177 21.2832 10.6177 19.8958H7.61774ZM17.1164 45.0965C23.0874 44.5232 27.2218 38.7725 27.2218 32.5043H24.2218C24.2218 37.6488 20.8751 41.7218 16.8297 42.1102L17.1164 45.0965ZM18.473 47.7402V43.6033H15.473V47.7402H18.473ZM31.1296 46.2402L16.973 46.2402L16.973 49.2402L31.1296 49.2402L31.1296 46.2402ZM29.6296 44.7013V47.7402H32.6296V44.7013H29.6296ZM31.1296 43.2013H29.1598V46.2013H31.1296V43.2013ZM29.1598 43.2013C28.9234 43.2013 28.7318 43.0097 28.7318 42.7733H25.7318C25.7318 44.6665 27.2665 46.2013 29.1598 46.2013V43.2013ZM28.7318 42.7733C28.7318 42.5369 28.9234 42.3453 29.1598 42.3453V39.3453C27.2665 39.3453 25.7318 40.8801 25.7318 42.7733H28.7318ZM29.1598 42.3453H31.9179V39.3453H29.1598V42.3453ZM30.4179 37.8259V40.8453H33.4179V37.8259H30.4179ZM31.3505 39.3259H31.9179V36.3259H31.3505V39.3259ZM27.921 35.8963C27.921 37.7904 29.4565 39.3259 31.3505 39.3259V36.3259C31.1133 36.3259 30.921 36.1336 30.921 35.8963H27.921ZM31.3505 32.4668C29.4565 32.4668 27.921 34.0023 27.921 35.8963H30.921C30.921 35.6591 31.1133 35.4668 31.3505 35.4668V32.4668ZM48.8847 32.4668H31.3505V35.4668H48.8847V32.4668ZM52.3142 35.8963C52.3142 34.0023 50.7788 32.4668 48.8847 32.4668V35.4668C49.1219 35.4668 49.3142 35.6591 49.3142 35.8963H52.3142ZM48.8847 39.3259C50.7788 39.3259 52.3142 37.7904 52.3142 35.8963H49.3142C49.3142 36.1336 49.1219 36.3259 48.8847 36.3259V39.3259ZM48.3175 39.3259H48.8847V36.3259H48.3175V39.3259ZM49.8175 40.8453V37.8259H46.8175V40.8453H49.8175ZM48.3175 42.3453H51.0755V39.3453H48.3175V42.3453ZM51.0755 42.3453C51.3119 42.3453 51.5036 42.5369 51.5036 42.7733H54.5036C54.5036 40.8801 52.9688 39.3453 51.0755 39.3453V42.3453ZM51.5036 42.7733C51.5036 43.0097 51.3119 43.2013 51.0755 43.2013V46.2013C52.9688 46.2013 54.5036 44.6665 54.5036 42.7733H51.5036ZM51.0755 43.2013H49.1058V46.2013H51.0755V43.2013ZM50.6058 47.7402V44.7013H47.6058V47.7402H50.6058ZM52.5238 46.2402H49.1058V49.2402H52.5238V46.2402ZM54.9887 48.7052C54.9887 47.3438 53.8851 46.2402 52.5238 46.2402V49.2402C52.2283 49.2402 51.9887 49.0007 51.9887 48.7052H54.9887ZM52.5238 51.1701C53.8852 51.1701 54.9887 50.0665 54.9887 48.7052H51.9887C51.9887 48.4097 52.2283 48.1701 52.5238 48.1701V51.1701ZM7.47629 51.1701L52.5238 51.1701L52.5238 48.1701L7.47629 48.1701L7.47629 51.1701ZM5.01135 48.7052C5.01135 50.0665 6.11494 51.1701 7.47629 51.1701V48.1701C7.7718 48.1701 8.01135 48.4097 8.01135 48.7052H5.01135ZM7.47629 46.2402C6.11494 46.2402 5.01135 47.3438 5.01135 48.7052H8.01135C8.01135 49.0007 7.77179 49.2402 7.47629 49.2402V46.2402ZM15.8151 46.2402H7.47629V49.2402H15.8151V46.2402ZM14.3151 43.6347V47.7402H17.3151V43.6347H14.3151ZM5.10782 32.5043C5.10782 38.9544 9.49856 44.8762 15.7535 45.1335L15.8768 42.136C11.6583 41.9625 8.10782 37.8126 8.10782 32.5043H5.10782ZM7.86819 24.1397C6.12771 26.3953 5.10782 29.3368 5.10782 32.5043H8.10782C8.10782 29.9748 8.92307 27.6834 10.2433 25.9725L7.86819 24.1397ZM5.88086 19.8958C5.88086 22.1509 6.60934 24.2419 7.84246 25.9381L10.269 24.1741C9.39589 22.973 8.88086 21.4958 8.88086 19.8958H5.88086ZM16.1648 9.61182C10.4852 9.61182 5.88086 14.2161 5.88086 19.8958H8.88086C8.88086 15.873 12.142 12.6118 16.1648 12.6118V9.61182ZM26.4488 19.8958C26.4488 14.2161 21.8445 9.61182 16.1648 9.61182V12.6118C20.1877 12.6118 23.4488 15.873 23.4488 19.8958H26.4488ZM24.4872 25.9382C25.7203 24.2419 26.4488 22.151 26.4488 19.8958H23.4488C23.4488 21.4959 22.9338 22.973 22.0606 24.1741L24.4872 25.9382ZM27.2218 32.5043C27.2218 29.3368 26.2019 26.3953 24.4615 24.1398L22.0864 25.9725C23.4066 27.6834 24.2218 29.9748 24.2218 32.5043H27.2218ZM50.6058 43.5434V43.2931H47.6058V43.5434H50.6058ZM50.6058 43.2931C50.6058 42.7107 50.2988 42.3204 50.1078 42.1358C49.9178 41.9521 49.7176 41.844 49.595 41.7852C49.3417 41.6637 49.0613 41.5859 48.8271 41.5315C48.3346 41.4172 47.6832 41.3265 46.9495 41.2545C45.4643 41.1087 43.4475 41.0212 41.2434 41.0212V44.0212C43.3816 44.0212 45.296 44.1066 46.6564 44.2401C47.3455 44.3078 47.8456 44.3834 48.1488 44.4538C48.3125 44.4918 48.341 44.511 48.2972 44.49C48.2794 44.4814 48.159 44.4245 48.0227 44.2926C47.8854 44.1599 47.6058 43.8223 47.6058 43.2931H50.6058ZM41.2434 41.0212C39.0393 41.0212 37.0224 41.1087 35.5372 41.2545C34.8035 41.3265 34.1521 41.4172 33.6596 41.5315C33.4255 41.5859 33.145 41.6637 32.8917 41.7852C32.7691 41.844 32.5689 41.9521 32.3789 42.1358C32.1879 42.3204 31.8809 42.7107 31.8809 43.2931H34.8809C34.8809 43.8223 34.6013 44.1599 34.4641 44.2926C34.3277 44.4245 34.2074 44.4814 34.1895 44.49C34.1457 44.511 34.1742 44.4918 34.3379 44.4538C34.6411 44.3834 35.1412 44.3078 35.8303 44.2401C37.1907 44.1066 39.1051 44.0212 41.2434 44.0212V41.0212ZM31.8809 43.2931V43.5434H34.8809V43.2931H31.8809ZM32.6735 45.0434H33.3809V42.0434H32.6735V45.0434ZM34.1735 43.5434V43.2931H31.1735V43.5434H34.1735ZM34.1735 43.2931C34.1735 42.0384 33.1563 41.0212 31.9015 41.0212V44.0212C31.4994 44.0212 31.1735 43.6952 31.1735 43.2931H34.1735ZM31.9015 41.0212C30.6467 41.0212 29.6296 42.0384 29.6296 43.2931H32.6296C32.6296 43.6952 32.3036 44.0212 31.9015 44.0212V41.0212ZM29.6296 43.2931V43.5434H32.6296V43.2931H29.6296ZM29.1598 45.0434H31.1296V42.0434H29.1598V45.0434ZM26.8897 42.7733C26.8897 44.027 27.9061 45.0434 29.1598 45.0434V42.0434C29.5629 42.0434 29.8897 42.3702 29.8897 42.7733H26.8897ZM29.1598 40.5032C27.9061 40.5032 26.8897 41.5196 26.8897 42.7733H29.8897C29.8897 43.1764 29.5629 43.5032 29.1598 43.5032V40.5032ZM51.0755 40.5032H29.1598V43.5032H51.0755V40.5032ZM53.3456 42.7733C53.3456 41.5196 52.3293 40.5032 51.0755 40.5032V43.5032C50.6724 43.5032 50.3456 43.1764 50.3456 42.7733H53.3456ZM51.0755 45.0434C52.3293 45.0434 53.3456 44.027 53.3456 42.7733H50.3456C50.3456 42.3702 50.6724 42.0434 51.0755 42.0434V45.0434ZM49.1058 45.0434H51.0755V42.0434H49.1058V45.0434ZM33.3809 43.2013H32.6735V46.2013H33.3809V43.2013ZM31.8809 44.7013V47.7402H34.8809V44.7013H31.8809ZM33.3809 46.2402H32.6735V49.2402H33.3809V46.2402ZM34.1735 47.7402V44.7013H31.1735V47.7402H34.1735ZM32.4722 37.8259V40.8453H35.4722V37.8259H32.4722ZM33.4618 39.3259H33.9722V36.3259H33.4618V39.3259ZM34.9618 40.8453V37.8259H31.9618V40.8453H34.9618ZM33.4618 42.3453H33.9722V39.3453H33.4618V42.3453ZM32.0789 35.8963C32.0789 36.2986 31.7528 36.6247 31.3505 36.6247V33.6247C30.096 33.6247 29.0789 34.6418 29.0789 35.8963H32.0789ZM31.3505 35.1679C31.7528 35.1679 32.0789 35.4941 32.0789 35.8963H29.0789C29.0789 37.1509 30.096 38.1679 31.3505 38.1679V35.1679ZM48.8847 35.1679H31.3505V38.1679H48.8847V35.1679ZM48.1563 35.8963C48.1563 35.494 48.4824 35.1679 48.8847 35.1679V38.1679C50.1393 38.1679 51.1563 37.1509 51.1563 35.8963H48.1563ZM48.8847 36.6247C48.4824 36.6247 48.1563 36.2986 48.1563 35.8963H51.1563C51.1563 34.6418 50.1393 33.6247 48.8847 33.6247V36.6247ZM31.3505 36.6247H48.8847V33.6247H31.3505V36.6247Z" fill="#F8F9FA" mask="url(#path-1-outside-1_50_5607)"/>
<path d="M31.9016 43.3228V48.1876" stroke="#212529" stroke-width="1.6" stroke-linecap="round"/>
<path d="M48.334 43.3228V48.1876" stroke="#212529" stroke-width="1.6" stroke-linecap="round"/>
<path d="M32.6898 37.6689V41.06" stroke="#212529" stroke-width="1.6" stroke-linecap="round"/>
<path d="M47.5455 37.6689V41.06" stroke="#212529" stroke-width="1.6" stroke-linecap="round"/>
<path fill-rule="evenodd" clip-rule="evenodd" d="M22.157 25.0969C23.3555 23.7097 24.0804 21.9019 24.0804 19.9247C24.0804 15.5531 20.5365 12.0092 16.1648 12.0092C11.7932 12.0092 8.24928 15.5531 8.24928 19.9247C8.24928 21.9019 8.97416 23.7097 10.1726 25.0969C8.51151 26.9674 7.47629 29.6074 7.47629 32.5332C7.47629 38.2047 11.3663 42.8024 16.1648 42.8024C20.9634 42.8024 24.8534 38.2047 24.8534 32.5332C24.8534 29.6074 23.8182 26.9674 22.157 25.0969Z" fill="#51CF66"/>
<path d="M22.1569 25.097L21.6272 24.6394C21.3978 24.905 21.4005 25.2994 21.6335 25.5618L22.1569 25.097ZM10.1726 25.097L10.696 25.5618C10.929 25.2994 10.9317 24.905 10.7023 24.6394L10.1726 25.097ZM23.3803 19.9248C23.3803 21.7276 22.72 23.3745 21.6272 24.6394L22.6866 25.5546C23.9908 24.0451 24.7803 22.0763 24.7803 19.9248H23.3803ZM16.1647 12.7093C20.1498 12.7093 23.3803 15.9398 23.3803 19.9248H24.7803C24.7803 15.1666 20.923 11.3093 16.1647 11.3093V12.7093ZM8.94919 19.9248C8.94919 15.9398 12.1797 12.7093 16.1647 12.7093V11.3093C11.4065 11.3093 7.54919 15.1666 7.54919 19.9248H8.94919ZM10.7023 24.6394C9.60944 23.3745 8.94919 21.7276 8.94919 19.9248H7.54919C7.54919 22.0763 8.33869 24.0451 9.64286 25.5546L10.7023 24.6394ZM8.1762 32.5333C8.1762 29.7703 9.15411 27.298 10.696 25.5618L9.64916 24.6322C7.86873 26.637 6.7762 29.4447 6.7762 32.5333H8.1762ZM16.1647 42.1025C11.8579 42.1025 8.1762 37.9324 8.1762 32.5333H6.7762C6.7762 38.4771 10.8745 43.5025 16.1647 43.5025V42.1025ZM24.1533 32.5333C24.1533 37.9324 20.4716 42.1025 16.1647 42.1025V43.5025C21.455 43.5025 25.5533 38.4771 25.5533 32.5333H24.1533ZM21.6335 25.5618C23.1754 27.298 24.1533 29.7703 24.1533 32.5333H25.5533C25.5533 29.4446 24.4608 26.637 22.6803 24.6322L21.6335 25.5618Z" fill="#212529"/>
<path d="M16.394 18.0708L16.394 48.2219" stroke="#212529" stroke-width="1.2" stroke-linecap="round"/>
<path d="M12.1364 32.1895L16.5078 36.0005L20.6515 32.1895" stroke="#212529" stroke-width="1.2" stroke-linecap="round"/>
<path d="M13.5771 25.3188L16.4693 27.8402L19.2107 25.3188" stroke="#212529" stroke-width="1.2" stroke-linecap="round"/>
<path d="M52.5238 48.7339L7.47632 48.7339" stroke="#212529" stroke-width="2" stroke-linecap="round" stroke-linejoin="round"/>
<rect x="30" y="34.5747" width="20.2353" height="2.70111" rx="1.35055" fill="#FFE066" stroke="#212529" stroke-width="1.2" stroke-linecap="round" stroke-linejoin="round"/>
<rect x="27.8108" y="41.4536" width="24.6139" height="2.69811" rx="1.34905" fill="#FFE066" stroke="#212529" stroke-width="1.2" stroke-linecap="round" stroke-linejoin="round"/>
<g style="mix-blend-mode:multiply">
<path fill-rule="evenodd" clip-rule="evenodd" d="M22.2966 20.3091C22.2966 21.8934 21.8119 23.3645 20.9828 24.5823C20.7006 24.9967 20.7028 25.5535 20.9995 25.9576C22.27 27.6882 23.039 29.9471 23.039 32.4182C23.039 37.2059 20.1526 41.1967 16.3244 42.0927C16.2147 42.1184 16.2224 42.2807 16.3351 42.2807V42.2807C20.9436 42.2807 24.6796 37.8651 24.6796 32.4182C24.6796 29.947 23.9107 27.6882 22.6401 25.9576C22.3434 25.5534 22.3412 24.9967 22.6234 24.5822C23.4525 23.3645 23.9372 21.8934 23.9372 20.3091C23.9372 16.1106 20.5336 12.707 16.3351 12.707V12.707C16.2295 12.707 16.2227 12.8599 16.3259 12.8825C19.7404 13.6291 22.2966 16.6706 22.2966 20.3091Z" fill="#DEE2E6"/>
</g>
<mask id="path-16-outside-2_50_5607" maskUnits="userSpaceOnUse" x="35.2019" y="11.2886" width="19" height="14" fill="black">
<rect fill="white" x="35.2019" y="11.2886" width="19" height="14"/>
<path fill-rule="evenodd" clip-rule="evenodd" d="M45.8123 13.2886C44.6455 13.2886 43.5754 13.7071 42.7455 14.4013C42.2664 14.1977 41.7396 14.0852 41.1876 14.0852C38.9864 14.0852 37.2019 15.8697 37.2019 18.0709C37.2019 20.2721 38.9864 22.0566 41.1876 22.0566C41.7396 22.0566 42.2664 21.9441 42.7455 21.7405C43.5754 22.4347 44.6455 22.8532 45.8123 22.8532C46.7895 22.8532 47.6995 22.5596 48.4572 22.0558C48.4841 22.0563 48.511 22.0566 48.538 22.0566C50.7393 22.0566 52.5237 20.2721 52.5237 18.0709C52.5237 15.8697 50.7393 14.0852 48.538 14.0852C48.511 14.0852 48.4841 14.0855 48.4572 14.086C47.6995 13.5822 46.7895 13.2886 45.8123 13.2886Z"/>
</mask>
<path fill-rule="evenodd" clip-rule="evenodd" d="M45.8123 13.2886C44.6455 13.2886 43.5754 13.7071 42.7455 14.4013C42.2664 14.1977 41.7396 14.0852 41.1876 14.0852C38.9864 14.0852 37.2019 15.8697 37.2019 18.0709C37.2019 20.2721 38.9864 22.0566 41.1876 22.0566C41.7396 22.0566 42.2664 21.9441 42.7455 21.7405C43.5754 22.4347 44.6455 22.8532 45.8123 22.8532C46.7895 22.8532 47.6995 22.5596 48.4572 22.0558C48.4841 22.0563 48.511 22.0566 48.538 22.0566C50.7393 22.0566 52.5237 20.2721 52.5237 18.0709C52.5237 15.8697 50.7393 14.0852 48.538 14.0852C48.511 14.0852 48.4841 14.0855 48.4572 14.086C47.6995 13.5822 46.7895 13.2886 45.8123 13.2886Z" fill="#F8F9FA"/>
<path d="M42.7455 14.4013L42.1588 15.7818C42.6774 16.0022 43.2757 15.9134 43.7079 15.5519L42.7455 14.4013ZM42.7455 21.7405L43.7079 20.5899C43.2757 20.2284 42.6774 20.1396 42.1588 20.36L42.7455 21.7405ZM48.4572 22.0558L48.4871 20.5561C48.1815 20.55 47.8813 20.6374 47.6267 20.8067L48.4572 22.0558ZM48.4572 14.086L47.6267 15.3351C47.8813 15.5044 48.1815 15.5918 48.4871 15.5857L48.4572 14.086ZM43.7079 15.5519C44.2781 15.0749 45.0104 14.7886 45.8123 14.7886V11.7886C44.2805 11.7886 42.8727 12.3393 41.7831 13.2508L43.7079 15.5519ZM41.1876 15.5852C41.5342 15.5852 41.8617 15.6556 42.1588 15.7818L43.3322 13.0208C42.671 12.7398 41.9449 12.5852 41.1876 12.5852V15.5852ZM38.7019 18.0709C38.7019 16.6981 39.8148 15.5852 41.1876 15.5852V12.5852C38.1579 12.5852 35.7019 15.0412 35.7019 18.0709H38.7019ZM41.1876 20.5566C39.8148 20.5566 38.7019 19.4437 38.7019 18.0709H35.7019C35.7019 21.1006 38.1579 23.5566 41.1876 23.5566V20.5566ZM42.1588 20.36C41.8618 20.4862 41.5342 20.5566 41.1876 20.5566V23.5566C41.9449 23.5566 42.671 23.402 43.3322 23.121L42.1588 20.36ZM45.8123 21.3532C45.0104 21.3532 44.2781 21.0669 43.7079 20.5899L41.7831 22.891C42.8727 23.8025 44.2805 24.3532 45.8123 24.3532V21.3532ZM47.6267 20.8067C47.1074 21.152 46.4848 21.3532 45.8123 21.3532V24.3532C47.0941 24.3532 48.2917 23.9672 49.2877 23.3049L47.6267 20.8067ZM48.538 20.5566C48.521 20.5566 48.5041 20.5564 48.4871 20.5561L48.4273 23.5555C48.4641 23.5562 48.501 23.5566 48.538 23.5566V20.5566ZM51.0237 18.0709C51.0237 19.4437 49.9108 20.5566 48.538 20.5566V23.5566C51.5677 23.5566 54.0237 21.1006 54.0237 18.0709H51.0237ZM48.538 15.5852C49.9108 15.5852 51.0237 16.6981 51.0237 18.0709H54.0237C54.0237 15.0412 51.5677 12.5852 48.538 12.5852V15.5852ZM48.4871 15.5857C48.5041 15.5854 48.5211 15.5852 48.538 15.5852V12.5852C48.501 12.5852 48.4641 12.5856 48.4273 12.5863L48.4871 15.5857ZM45.8123 14.7886C46.4848 14.7886 47.1074 14.9898 47.6267 15.3351L49.2877 12.8369C48.2917 12.1746 47.0941 11.7886 45.8123 11.7886V14.7886Z" fill="#F8F9FA" mask="url(#path-16-outside-2_50_5607)"/>
<path fill-rule="evenodd" clip-rule="evenodd" d="M48.3239 21.4708C48.3002 21.4693 48.2768 21.476 48.2576 21.4898C47.5686 21.9834 46.7244 22.2739 45.8122 22.2739C44.6812 22.2739 43.6544 21.8272 42.8989 21.1005C42.8667 21.0696 42.8182 21.0629 42.7787 21.0838C42.3038 21.3351 41.7623 21.4774 41.1875 21.4774C39.306 21.4774 37.7808 19.9522 37.7808 18.0707C37.7808 16.1892 39.306 14.6639 41.1875 14.6639C41.7622 14.6639 42.3036 14.8062 42.7785 15.0575C42.818 15.0784 42.8665 15.0717 42.8987 15.0407C43.6543 14.314 44.6811 13.8672 45.8122 13.8672C46.7245 13.8672 47.5689 14.1578 48.2579 14.6515C48.2771 14.6653 48.3005 14.672 48.3242 14.6705C48.3949 14.6661 48.4661 14.6639 48.538 14.6639C50.4194 14.6639 51.9447 16.1892 51.9447 18.0707C51.9447 19.9522 50.4194 21.4774 48.538 21.4774C48.466 21.4774 48.3947 21.4752 48.3239 21.4708Z" fill="#91A7FF"/>
<path d="M48.2579 14.6515L48.6073 14.1638L48.2579 14.6515ZM42.8989 21.1005L43.3148 20.6681L42.8989 21.1005ZM42.7787 21.0838L43.0593 21.6141L42.7787 21.0838ZM42.7785 15.0575L42.4979 15.5878L42.7785 15.0575ZM42.8987 15.0407L42.4828 14.6083L42.8987 15.0407ZM48.2576 21.4898L47.9081 21.0021L48.2576 21.4898ZM48.3239 21.4708L48.2867 22.0696L48.3239 21.4708ZM45.8122 22.8739C46.8538 22.8739 47.8196 22.5417 48.607 21.9776L47.9081 21.0021C47.3177 21.4251 46.5949 21.6739 45.8122 21.6739V22.8739ZM42.483 21.533C43.3458 22.3628 44.52 22.8739 45.8122 22.8739V21.6739C44.8424 21.6739 43.9631 21.2915 43.3148 20.6681L42.483 21.533ZM41.1875 22.0774C41.8624 22.0774 42.5 21.9101 43.0593 21.6141L42.4981 20.5534C42.1075 20.7601 41.6621 20.8774 41.1875 20.8774V22.0774ZM37.1808 18.0707C37.1808 20.2835 38.9746 22.0774 41.1875 22.0774V20.8774C39.6374 20.8774 38.3808 19.6208 38.3808 18.0707H37.1808ZM41.1875 14.0639C38.9746 14.0639 37.1808 15.8578 37.1808 18.0707H38.3808C38.3808 16.5205 39.6374 15.2639 41.1875 15.2639V14.0639ZM43.0592 14.5272C42.4999 14.2312 41.8624 14.0639 41.1875 14.0639V15.2639C41.662 15.2639 42.1074 15.3812 42.4979 15.5878L43.0592 14.5272ZM45.8122 13.2672C44.5199 13.2672 43.3457 13.7784 42.4828 14.6083L43.3147 15.4732C43.963 14.8496 44.8423 14.4672 45.8122 14.4672V13.2672ZM48.6073 14.1638C47.8198 13.5995 46.854 13.2672 45.8122 13.2672V14.4672C46.595 14.4672 47.3179 14.7161 47.9084 15.1392L48.6073 14.1638ZM48.3612 15.2694C48.4196 15.2658 48.4785 15.2639 48.538 15.2639V14.0639C48.4538 14.0639 48.3701 14.0665 48.2871 14.0717L48.3612 15.2694ZM48.538 15.2639C50.0881 15.2639 51.3447 16.5205 51.3447 18.0707H52.5447C52.5447 15.8578 50.7508 14.0639 48.538 14.0639V15.2639ZM51.3447 18.0707C51.3447 19.6208 50.0881 20.8774 48.538 20.8774V22.0774C50.7508 22.0774 52.5447 20.2835 52.5447 18.0707H51.3447ZM48.538 20.8774C48.4784 20.8774 48.4194 20.8756 48.361 20.8719L48.2867 22.0696C48.3699 22.0748 48.4536 22.0774 48.538 22.0774V20.8774ZM47.9084 15.1392C48.0404 15.2338 48.2005 15.2793 48.3612 15.2694L48.2871 14.0717C48.4006 14.0646 48.5138 14.0968 48.6073 14.1638L47.9084 15.1392ZM43.3148 20.6681C43.0948 20.4565 42.7652 20.4121 42.4981 20.5534L43.0593 21.6141C42.8712 21.7137 42.6386 21.6826 42.483 21.533L43.3148 20.6681ZM42.4979 15.5878C42.7651 15.7292 43.0947 15.6847 43.3147 15.4732L42.4828 14.6083C42.6384 14.4586 42.871 14.4276 43.0592 14.5272L42.4979 15.5878ZM48.607 21.9776C48.5135 22.0446 48.4003 22.0767 48.2867 22.0696L48.361 20.8719C48.2002 20.862 48.0401 20.9075 47.9081 21.0021L48.607 21.9776Z" fill="#212529"/>
<g style="mix-blend-mode:multiply">
<path fill-rule="evenodd" clip-rule="evenodd" d="M47.0671 20.4485C47.0864 20.4347 47.1098 20.428 47.1334 20.4295C47.2042 20.4339 47.2756 20.4361 47.3475 20.4361C49.229 20.4361 50.7542 18.9108 50.7542 17.0293V17.0293C50.7542 16.4653 51.3645 15.9656 51.569 16.4912C51.718 16.8741 51.7997 17.2905 51.7997 17.7261C51.7997 19.6076 50.2745 21.1329 48.393 21.1329C48.3211 21.1329 48.2497 21.1306 48.1789 21.1262C48.1552 21.1248 48.1318 21.1315 48.1126 21.1453C47.4237 21.6388 46.5794 21.9294 45.6673 21.9294C45.2347 21.9294 44.8175 21.864 44.4248 21.7427C44.1208 21.6488 44.3036 21.2326 44.6218 21.2326V21.2326C45.5339 21.2326 46.3782 20.9421 47.0671 20.4485ZM42.6337 20.7392C42.6359 20.738 42.636 20.7349 42.6338 20.7337C42.2948 20.5514 41.9836 20.3238 41.7084 20.0592C41.6762 20.0282 41.6277 20.0215 41.5882 20.0424C41.1133 20.2938 40.5718 20.4361 39.9971 20.4361V20.4361C39.7132 20.4361 39.543 20.7992 39.8076 20.9021C40.1905 21.0511 40.6069 21.1329 41.0425 21.1329C41.6173 21.1329 42.1588 20.9905 42.6337 20.7392V20.7392Z" fill="#DEE2E6"/>
</g>
</svg>
