<svg width="60" height="61" viewBox="0 0 60 61" fill="none" xmlns="http://www.w3.org/2000/svg">
<mask id="path-1-outside-1_50_2947" maskUnits="userSpaceOnUse" x="3.91638" y="10.6406" width="52" height="44" fill="black">
<rect fill="white" x="3.91638" y="10.6406" width="52" height="44"/>
<path fill-rule="evenodd" clip-rule="evenodd" d="M8.61638 12.6406C7.12521 12.6406 5.91638 13.8495 5.91638 15.3406V49.515C5.91638 51.0062 7.12521 52.215 8.61638 52.215H21.6847C23.1759 52.215 24.3847 51.0062 24.3847 49.515V46.6926H33.6255V50.615H29.9291C29.432 50.615 29.0291 51.0179 29.0291 51.515C29.0291 52.012 29.432 52.415 29.9291 52.415H43.5282C44.0252 52.415 44.4282 52.012 44.4282 51.515C44.4282 51.0179 44.0252 50.615 43.5282 50.615H39.8316V46.6926H51.4837C52.9196 46.6926 54.0836 45.5285 54.0836 44.0926V24.8579C54.0836 23.4219 52.9196 22.2579 51.4837 22.2579H24.3847V15.3406C24.3847 13.8495 23.1759 12.6406 21.6847 12.6406H8.61638ZM51.4837 45.4926H24.3847V23.4579H51.4837C52.2568 23.4579 52.8837 24.0847 52.8837 24.8579V44.0926C52.8837 44.8658 52.2568 45.4926 51.4837 45.4926ZM22.9847 45.4926V23.4579H21.9736C21.2004 23.4579 20.5736 24.0847 20.5736 24.8579V44.0926C20.5736 44.8658 21.2004 45.4926 21.9736 45.4926H22.9847ZM21.9736 22.2579H22.9847V15.3406C22.9847 14.6227 22.4027 14.0406 21.6847 14.0406H8.61638C7.89841 14.0406 7.31638 14.6227 7.31638 15.3406V49.515C7.31638 50.233 7.89841 50.815 8.61638 50.815H21.6847C22.4027 50.815 22.9847 50.233 22.9847 49.515V46.6926H21.9736C20.5376 46.6926 19.3736 45.5285 19.3736 44.0926V24.8579C19.3736 23.4219 20.5376 22.2579 21.9736 22.2579ZM34.8255 50.5426V46.9754H38.6316V50.5426H34.8255Z"/>
</mask>
<path fill-rule="evenodd" clip-rule="evenodd" d="M8.61638 12.6406C7.12521 12.6406 5.91638 13.8495 5.91638 15.3406V49.515C5.91638 51.0062 7.12521 52.215 8.61638 52.215H21.6847C23.1759 52.215 24.3847 51.0062 24.3847 49.515V46.6926H33.6255V50.615H29.9291C29.432 50.615 29.0291 51.0179 29.0291 51.515C29.0291 52.012 29.432 52.415 29.9291 52.415H43.5282C44.0252 52.415 44.4282 52.012 44.4282 51.515C44.4282 51.0179 44.0252 50.615 43.5282 50.615H39.8316V46.6926H51.4837C52.9196 46.6926 54.0836 45.5285 54.0836 44.0926V24.8579C54.0836 23.4219 52.9196 22.2579 51.4837 22.2579H24.3847V15.3406C24.3847 13.8495 23.1759 12.6406 21.6847 12.6406H8.61638ZM51.4837 45.4926H24.3847V23.4579H51.4837C52.2568 23.4579 52.8837 24.0847 52.8837 24.8579V44.0926C52.8837 44.8658 52.2568 45.4926 51.4837 45.4926ZM22.9847 45.4926V23.4579H21.9736C21.2004 23.4579 20.5736 24.0847 20.5736 24.8579V44.0926C20.5736 44.8658 21.2004 45.4926 21.9736 45.4926H22.9847ZM21.9736 22.2579H22.9847V15.3406C22.9847 14.6227 22.4027 14.0406 21.6847 14.0406H8.61638C7.89841 14.0406 7.31638 14.6227 7.31638 15.3406V49.515C7.31638 50.233 7.89841 50.815 8.61638 50.815H21.6847C22.4027 50.815 22.9847 50.233 22.9847 49.515V46.6926H21.9736C20.5376 46.6926 19.3736 45.5285 19.3736 44.0926V24.8579C19.3736 23.4219 20.5376 22.2579 21.9736 22.2579ZM34.8255 50.5426V46.9754H38.6316V50.5426H34.8255Z" fill="#F8F9FA"/>
<path d="M24.3847 46.6926V45.1926C23.5563 45.1926 22.8847 45.8641 22.8847 46.6926H24.3847ZM33.6255 46.6926H35.1255C35.1255 45.8641 34.4539 45.1926 33.6255 45.1926V46.6926ZM33.6255 50.615V52.115C34.4539 52.115 35.1255 51.4434 35.1255 50.615H33.6255ZM39.8316 50.615H38.3316C38.3316 51.4434 39.0032 52.115 39.8316 52.115V50.615ZM39.8316 46.6926V45.1926C39.0032 45.1926 38.3316 45.8641 38.3316 46.6926H39.8316ZM24.3847 22.2579H22.8847C22.8847 23.0863 23.5563 23.7579 24.3847 23.7579V22.2579ZM24.3847 45.4926H22.8847C22.8847 46.321 23.5563 46.9926 24.3847 46.9926V45.4926ZM24.3847 23.4579V21.9579C23.5563 21.9579 22.8847 22.6294 22.8847 23.4579H24.3847ZM22.9847 23.4579H24.4847C24.4847 22.6294 23.8131 21.9579 22.9847 21.9579V23.4579ZM22.9847 45.4926V46.9926C23.8131 46.9926 24.4847 46.321 24.4847 45.4926H22.9847ZM22.9847 22.2579V23.7579C23.8131 23.7579 24.4847 23.0863 24.4847 22.2579H22.9847ZM22.9847 46.6926H24.4847C24.4847 45.8641 23.8131 45.1926 22.9847 45.1926V46.6926ZM34.8255 46.9754V45.4754C33.9971 45.4754 33.3255 46.1469 33.3255 46.9754H34.8255ZM34.8255 50.5426H33.3255C33.3255 51.3711 33.9971 52.0426 34.8255 52.0426V50.5426ZM38.6316 46.9754H40.1316C40.1316 46.1469 39.46 45.4754 38.6316 45.4754V46.9754ZM38.6316 50.5426V52.0426C39.46 52.0426 40.1316 51.3711 40.1316 50.5426H38.6316ZM7.41638 15.3406C7.41638 14.6779 7.95364 14.1406 8.61638 14.1406V11.1406C6.29679 11.1406 4.41638 13.021 4.41638 15.3406H7.41638ZM7.41638 49.515V15.3406H4.41638V49.515H7.41638ZM8.61638 50.715C7.95364 50.715 7.41638 50.1778 7.41638 49.515H4.41638C4.41638 51.8346 6.29679 53.715 8.61638 53.715V50.715ZM21.6847 50.715H8.61638V53.715H21.6847V50.715ZM22.8847 49.515C22.8847 50.1778 22.3474 50.715 21.6847 50.715V53.715C24.0043 53.715 25.8847 51.8346 25.8847 49.515H22.8847ZM22.8847 46.6926V49.515H25.8847V46.6926H22.8847ZM33.6255 45.1926H24.3847V48.1926H33.6255V45.1926ZM35.1255 50.615V46.6926H32.1255V50.615H35.1255ZM29.9291 52.115H33.6255V49.115H29.9291V52.115ZM30.5291 51.515C30.5291 51.8464 30.2604 52.115 29.9291 52.115V49.115C28.6036 49.115 27.5291 50.1895 27.5291 51.515H30.5291ZM29.9291 50.915C30.2604 50.915 30.5291 51.1836 30.5291 51.515H27.5291C27.5291 52.8405 28.6036 53.915 29.9291 53.915V50.915ZM43.5282 50.915H29.9291V53.915H43.5282V50.915ZM42.9282 51.515C42.9282 51.1836 43.1968 50.915 43.5282 50.915V53.915C44.8536 53.915 45.9282 52.8405 45.9282 51.515H42.9282ZM43.5282 52.115C43.1968 52.115 42.9282 51.8464 42.9282 51.515H45.9282C45.9282 50.1895 44.8536 49.115 43.5282 49.115V52.115ZM39.8316 52.115H43.5282V49.115H39.8316V52.115ZM38.3316 46.6926V50.615H41.3316V46.6926H38.3316ZM51.4837 45.1926H39.8316V48.1926H51.4837V45.1926ZM52.5836 44.0926C52.5836 44.7001 52.0912 45.1926 51.4837 45.1926V48.1926C53.748 48.1926 55.5836 46.3569 55.5836 44.0926H52.5836ZM52.5836 24.8579V44.0926H55.5836V24.8579H52.5836ZM51.4837 23.7579C52.0912 23.7579 52.5836 24.2504 52.5836 24.8579H55.5836C55.5836 22.5935 53.748 20.7579 51.4837 20.7579V23.7579ZM24.3847 23.7579H51.4837V20.7579H24.3847V23.7579ZM22.8847 15.3406V22.2579H25.8847V15.3406H22.8847ZM21.6847 14.1406C22.3474 14.1406 22.8847 14.6779 22.8847 15.3406H25.8847C25.8847 13.021 24.0043 11.1406 21.6847 11.1406V14.1406ZM8.61638 14.1406H21.6847V11.1406H8.61638V14.1406ZM24.3847 46.9926H51.4837V43.9926H24.3847V46.9926ZM22.8847 23.4579V45.4926H25.8847V23.4579H22.8847ZM51.4837 21.9579H24.3847V24.9579H51.4837V21.9579ZM54.3837 24.8579C54.3837 23.2562 53.0853 21.9579 51.4837 21.9579V24.9579C51.4284 24.9579 51.3837 24.9131 51.3837 24.8579H54.3837ZM54.3837 44.0926V24.8579H51.3837V44.0926H54.3837ZM51.4837 46.9926C53.0853 46.9926 54.3837 45.6942 54.3837 44.0926H51.3837C51.3837 44.0373 51.4284 43.9926 51.4837 43.9926V46.9926ZM21.4847 23.4579V45.4926H24.4847V23.4579H21.4847ZM21.9736 24.9579H22.9847V21.9579H21.9736V24.9579ZM22.0736 24.8579C22.0736 24.9131 22.0288 24.9579 21.9736 24.9579V21.9579C20.3719 21.9579 19.0736 23.2562 19.0736 24.8579H22.0736ZM22.0736 44.0926V24.8579H19.0736V44.0926H22.0736ZM21.9736 43.9926C22.0288 43.9926 22.0736 44.0373 22.0736 44.0926H19.0736C19.0736 45.6942 20.3719 46.9926 21.9736 46.9926V43.9926ZM22.9847 43.9926H21.9736V46.9926H22.9847V43.9926ZM22.9847 20.7579H21.9736V23.7579H22.9847V20.7579ZM21.4847 15.3406V22.2579H24.4847V15.3406H21.4847ZM21.6847 15.5406C21.5742 15.5406 21.4847 15.4511 21.4847 15.3406H24.4847C24.4847 13.7942 23.2311 12.5406 21.6847 12.5406V15.5406ZM8.61638 15.5406H21.6847V12.5406H8.61638V15.5406ZM8.81638 15.3406C8.81638 15.4511 8.72683 15.5406 8.61638 15.5406V12.5406C7.06999 12.5406 5.81638 13.7942 5.81638 15.3406H8.81638ZM8.81638 49.515V15.3406H5.81638V49.515H8.81638ZM8.61638 49.315C8.72684 49.315 8.81638 49.4046 8.81638 49.515H5.81638C5.81638 51.0614 7.06999 52.315 8.61638 52.315V49.315ZM21.6847 49.315H8.61638V52.315H21.6847V49.315ZM21.4847 49.515C21.4847 49.4046 21.5742 49.315 21.6847 49.315V52.315C23.2311 52.315 24.4847 51.0614 24.4847 49.515H21.4847ZM21.4847 46.6926V49.515H24.4847V46.6926H21.4847ZM21.9736 48.1926H22.9847V45.1926H21.9736V48.1926ZM17.8736 44.0926C17.8736 46.3569 19.7092 48.1926 21.9736 48.1926V45.1926C21.366 45.1926 20.8736 44.7001 20.8736 44.0926H17.8736ZM17.8736 24.8579V44.0926H20.8736V24.8579H17.8736ZM21.9736 20.7579C19.7092 20.7579 17.8736 22.5935 17.8736 24.8579H20.8736C20.8736 24.2504 21.366 23.7579 21.9736 23.7579V20.7579ZM33.3255 46.9754V50.5426H36.3255V46.9754H33.3255ZM38.6316 45.4754H34.8255V48.4754H38.6316V45.4754ZM40.1316 50.5426V46.9754H37.1316V50.5426H40.1316ZM34.8255 52.0426H38.6316V49.0426H34.8255V52.0426Z" fill="#F8F9FA" mask="url(#path-1-outside-1_50_2947)"/>
<path fill-rule="evenodd" clip-rule="evenodd" d="M43.5272 51.5606H29.9281Z" fill="white"/>
<path d="M43.5272 51.5606H29.9281" stroke="#212529" stroke-width="1.8" stroke-linecap="round" stroke-linejoin="round"/>
<rect x="6.61548" y="13.3862" width="17.0683" height="38.1744" rx="2" fill="#495057" stroke="#212529" stroke-width="1.4" stroke-linejoin="round"/>
<g style="mix-blend-mode:multiply">
<path fill-rule="evenodd" clip-rule="evenodd" d="M6.73181 50.052C7.05415 50.7241 7.74097 51.1882 8.53618 51.1882H21.6045C22.7091 51.1882 23.6045 50.2928 23.6045 49.1882V15.0138C23.6045 14.1257 23.0256 13.3728 22.2246 13.1118V49.052C22.2246 49.6043 21.7769 50.052 21.2246 50.052H6.73181Z" fill="#DEE2E6"/>
</g>
<path d="M10.5054 29.123H19.831" stroke="#212529" stroke-linecap="round"/>
<path d="M10.5054 36.262H19.831" stroke="#212529" stroke-linecap="round"/>
<path d="M10.5054 31.1812H16.2293" stroke="#212529" stroke-linecap="round"/>
<rect x="10.4708" y="17.1565" width="9.35769" height="3.32294" fill="#F8F9FA" stroke="#212529" stroke-linejoin="round"/>
<rect x="10.4708" y="23.0205" width="9.35769" height="3.32294" fill="#F8F9FA" stroke="#212529" stroke-linejoin="round"/>
<circle cx="15.1496" cy="44.8967" r="2.43309" fill="#FF6B6B" stroke="#212529" stroke-linejoin="round"/>
<rect x="19.9727" y="22.9033" width="33.5101" height="23.2347" rx="2" fill="#ADB5BD" stroke="#212529" stroke-width="1.4" stroke-linejoin="round"/>
<rect x="34.2246" y="46.1382" width="5.00612" height="5.05004" fill="#ADB5BD" stroke="#212529" stroke-width="1.2" stroke-linejoin="round"/>
<rect x="22.6982" y="25.6038" width="28.059" height="16.3687" fill="#F8F9FA" stroke="#212529" stroke-linejoin="round"/>
<g style="mix-blend-mode:multiply">
<rect x="37.7842" y="46.6816" width="1.00397" height="3.96309" fill="#DEE2E6"/>
</g>
</svg>
