<svg width="60" height="60" viewBox="0 0 60 60" fill="none" xmlns="http://www.w3.org/2000/svg">
<mask id="path-1-outside-1_50_11039" maskUnits="userSpaceOnUse" x="-1.28837" y="-2.05775" width="61.8219" height="62.3616" fill="black">
<rect fill="white" x="-1.28837" y="-2.05775" width="61.8219" height="62.3616"/>
<path fill-rule="evenodd" clip-rule="evenodd" d="M33.2907 8.45169C33.7307 8.1178 33.8166 7.49049 33.4827 7.05057C33.1488 6.61064 32.5215 6.52468 32.0816 6.85857L25.3679 11.9541L26.5608 8.98789C26.7668 8.47549 26.5185 7.89306 26.0061 7.68699C25.4937 7.48092 24.9113 7.72925 24.7052 8.24165L22.3974 13.9802C22.2713 14.2936 22.312 14.6494 22.5055 14.9262C22.699 15.2031 23.0192 15.3635 23.3568 15.3528L29.1236 15.1702C29.6756 15.1527 30.1089 14.6911 30.0915 14.1391C30.074 13.5871 29.6123 13.1537 29.0603 13.1712L26.9858 13.2369L33.2907 8.45169ZM9.11253 23.5597C8.81698 23.0931 8.95559 22.4753 9.42214 22.1798L16.0583 17.9758L13.9042 17.8125C13.3535 17.7707 12.9409 17.2904 12.9827 16.7397C13.0244 16.189 13.5047 15.7764 14.0554 15.8182L19.8086 16.2545C20.1454 16.2801 20.4465 16.4739 20.6093 16.7699C20.772 17.0658 20.7743 17.424 20.6154 17.722L17.706 23.1803C17.4463 23.6677 16.8406 23.8522 16.3532 23.5924C15.8658 23.3326 15.6813 22.7269 15.9411 22.2395L17.4074 19.4887L10.4924 23.8693C10.0259 24.1649 9.40809 24.0262 9.11253 23.5597ZM26.4122 43.5407C26.5692 43.5245 26.7293 43.5497 26.8757 43.616L39.3327 49.2534C40.3218 49.068 41.2079 48.5783 41.9675 47.6431C44.0007 45.1399 45.695 42.0206 46.8878 39.5002C47.4497 38.3129 47.8959 37.2681 48.2097 36.4976C48.2212 36.4404 48.2383 36.3834 48.2616 36.3274L48.4577 35.8556L45.9989 34.5498L45.8681 34.8646L45.8646 34.8731L45.8373 34.9387C45.6465 35.3977 45.1198 35.6152 44.6608 35.4244C44.2018 35.2337 43.9844 34.707 44.1751 34.248L44.4021 33.7018L41.2887 32.0485L40.994 32.7577C40.9932 32.7597 40.9923 32.7617 40.9915 32.7637L40.9343 32.9012C40.7436 33.3602 40.2169 33.5776 39.7579 33.3869C39.2989 33.1961 39.0814 32.6694 39.2722 32.2104L39.6919 31.2004L36.5089 29.5101C36.2128 30.1031 35.9002 30.71 35.5684 31.3348C35.3352 31.7738 34.7903 31.9406 34.3513 31.7074C33.9124 31.4743 33.7455 30.9294 33.9787 30.4904C34.0346 30.3852 34.0899 30.2804 34.1447 30.1762C34.1589 30.1252 34.1777 30.0748 34.2014 30.0254L34.8677 28.6386L33.0646 27.681L29.4457 31.344C29.2997 31.6151 29.151 31.8899 28.9992 32.1689C28.7618 32.6056 28.2153 32.7671 27.7786 32.5297C27.342 32.2922 27.1805 31.7457 27.4179 31.3091L27.5924 30.9876C27.0493 30.4052 26.3131 29.6589 25.5346 28.9305C24.523 27.9839 23.4959 27.1205 22.7492 26.6695C21.4635 25.8929 20.5061 25.6826 19.8634 25.726C19.2867 25.7649 18.9281 26.0059 18.7147 26.3142C18.6798 26.4252 18.6762 26.5853 18.7735 26.848C18.892 27.1675 19.1312 27.555 19.494 28.0228C19.8524 28.4849 20.289 28.9729 20.7672 29.5036L20.8333 29.5769C21.2842 30.0772 21.7658 30.6116 22.2053 31.1568C23.6865 32.9943 24.4299 35.0544 24.509 36.4866C24.6428 38.91 25.326 41.411 26.4122 43.5407ZM35.6479 27.0148L33.3172 25.7771C32.9661 25.5906 32.5343 25.6566 32.2549 25.9394L32.1856 26.0096C33.9938 22.2641 35.3585 18.8405 36.8848 14.307C37.2067 13.3508 38.2634 12.8698 39.1769 13.2495C39.9997 13.5914 40.42 14.5128 40.1386 15.3596C38.9072 19.0658 37.8804 22.102 36.4756 25.3311C36.416 25.4293 36.3607 25.5312 36.31 25.6368L35.6479 27.0148ZM39.1176 23.6542C40.0871 21.1935 40.9126 18.7389 41.8468 15.9272C42.4252 14.1865 41.5626 12.2917 39.8676 11.5873C37.9729 10.7999 35.8274 11.8066 35.1789 13.7326C33.1483 19.7641 31.4187 23.7782 28.488 29.316C27.9837 28.7921 27.386 28.1978 26.7644 27.6161C25.7418 26.6593 24.5989 25.6839 23.6798 25.1287C22.2039 24.2372 20.877 23.8534 19.7422 23.9301C18.5773 24.0087 17.6729 24.5734 17.1457 25.4257C17.1244 25.4601 17.1055 25.496 17.089 25.533C16.7902 26.2038 16.8665 26.882 17.0857 27.4735C17.2992 28.0495 17.6701 28.6081 18.0716 29.1259C18.4776 29.6493 18.9594 30.1863 19.4299 30.7084L19.485 30.7695C19.9449 31.2799 20.3964 31.781 20.8039 32.2865C22.0882 33.8797 22.6566 35.5887 22.7117 36.5859C22.8721 39.4907 23.7427 42.4833 25.1333 44.9658C25.1666 45.0251 25.201 45.0837 25.2368 45.1416L24.4434 47.0507C23.965 48.2019 24.2719 49.5898 25.3724 50.3433C26.3963 51.0444 28.0409 52.0515 30.2487 53.0252C32.6544 54.0862 34.8011 54.5052 36.1337 54.6712C37.3854 54.8271 38.4682 54.0666 38.913 52.9964L39.7398 51.0069C41.0617 50.7439 42.3134 50.0722 43.3647 48.7779C45.53 46.1121 47.2965 42.8445 48.5148 40.2702C49.1264 38.9779 49.6049 37.8495 49.931 37.043C50.065 36.7114 50.1735 36.4339 50.2549 36.2214L50.8774 34.7235C51.5526 33.0988 50.7829 31.2343 49.1581 30.5591C48.6099 30.3312 48.0343 30.2679 47.4864 30.3465C47.5202 28.9225 46.6902 27.5581 45.2959 26.9786C44.5417 26.6652 43.7413 26.6308 43.0093 26.828C42.8881 25.579 42.1034 24.4349 40.8671 23.9128C40.2958 23.6716 39.6953 23.592 39.1176 23.6542ZM38.0679 26.1826C37.8225 26.7436 37.5655 27.3111 37.2942 27.8891L40.3857 29.5308L40.6491 28.897C40.6507 28.8932 40.6523 28.8894 40.6539 28.8856L41.0923 27.8308C41.4578 26.9512 41.0443 25.9416 40.1669 25.5711C39.4002 25.2473 38.5261 25.5171 38.0679 26.1826ZM41.9826 30.3789L42.3148 29.5794C42.6896 28.6902 43.713 28.2701 44.6051 28.6408C45.5 29.0127 45.924 30.0397 45.5521 30.9346L45.0959 32.0322L41.9826 30.3789ZM46.6957 32.8818L49.1515 34.186L49.2152 34.0327C49.5089 33.326 49.1741 32.515 48.4674 32.2212C47.7904 31.9399 47.0177 32.2353 46.6957 32.8818ZM26.5685 46.6275L26.1056 47.7414C25.9201 48.1877 26.0623 48.6341 26.3893 48.8581C27.3359 49.5062 28.8837 50.4559 30.9751 51.3783C33.183 52.352 35.1515 52.7349 36.3562 52.885C36.7055 52.9285 37.0764 52.7252 37.2508 52.3056L37.7423 51.1229C37.6918 51.1196 37.6414 51.1159 37.5909 51.1117C35.5668 50.946 33.4749 50.1244 31.6877 49.3817C30.0512 48.7016 28.6803 48.0561 27.5984 47.3683C27.2266 47.1319 26.8821 46.8864 26.5685 46.6275Z"/>
</mask>
<path fill-rule="evenodd" clip-rule="evenodd" d="M33.2907 8.45169C33.7307 8.1178 33.8166 7.49049 33.4827 7.05057C33.1488 6.61064 32.5215 6.52468 32.0816 6.85857L25.3679 11.9541L26.5608 8.98789C26.7668 8.47549 26.5185 7.89306 26.0061 7.68699C25.4937 7.48092 24.9113 7.72925 24.7052 8.24165L22.3974 13.9802C22.2713 14.2936 22.312 14.6494 22.5055 14.9262C22.699 15.2031 23.0192 15.3635 23.3568 15.3528L29.1236 15.1702C29.6756 15.1527 30.1089 14.6911 30.0915 14.1391C30.074 13.5871 29.6123 13.1537 29.0603 13.1712L26.9858 13.2369L33.2907 8.45169ZM9.11253 23.5597C8.81698 23.0931 8.95559 22.4753 9.42214 22.1798L16.0583 17.9758L13.9042 17.8125C13.3535 17.7707 12.9409 17.2904 12.9827 16.7397C13.0244 16.189 13.5047 15.7764 14.0554 15.8182L19.8086 16.2545C20.1454 16.2801 20.4465 16.4739 20.6093 16.7699C20.772 17.0658 20.7743 17.424 20.6154 17.722L17.706 23.1803C17.4463 23.6677 16.8406 23.8522 16.3532 23.5924C15.8658 23.3326 15.6813 22.7269 15.9411 22.2395L17.4074 19.4887L10.4924 23.8693C10.0259 24.1649 9.40809 24.0262 9.11253 23.5597ZM26.4122 43.5407C26.5692 43.5245 26.7293 43.5497 26.8757 43.616L39.3327 49.2534C40.3218 49.068 41.2079 48.5783 41.9675 47.6431C44.0007 45.1399 45.695 42.0206 46.8878 39.5002C47.4497 38.3129 47.8959 37.2681 48.2097 36.4976C48.2212 36.4404 48.2383 36.3834 48.2616 36.3274L48.4577 35.8556L45.9989 34.5498L45.8681 34.8646L45.8646 34.8731L45.8373 34.9387C45.6465 35.3977 45.1198 35.6152 44.6608 35.4244C44.2018 35.2337 43.9844 34.707 44.1751 34.248L44.4021 33.7018L41.2887 32.0485L40.994 32.7577C40.9932 32.7597 40.9923 32.7617 40.9915 32.7637L40.9343 32.9012C40.7436 33.3602 40.2169 33.5776 39.7579 33.3869C39.2989 33.1961 39.0814 32.6694 39.2722 32.2104L39.6919 31.2004L36.5089 29.5101C36.2128 30.1031 35.9002 30.71 35.5684 31.3348C35.3352 31.7738 34.7903 31.9406 34.3513 31.7074C33.9124 31.4743 33.7455 30.9294 33.9787 30.4904C34.0346 30.3852 34.0899 30.2804 34.1447 30.1762C34.1589 30.1252 34.1777 30.0748 34.2014 30.0254L34.8677 28.6386L33.0646 27.681L29.4457 31.344C29.2997 31.6151 29.151 31.8899 28.9992 32.1689C28.7618 32.6056 28.2153 32.7671 27.7786 32.5297C27.342 32.2922 27.1805 31.7457 27.4179 31.3091L27.5924 30.9876C27.0493 30.4052 26.3131 29.6589 25.5346 28.9305C24.523 27.9839 23.4959 27.1205 22.7492 26.6695C21.4635 25.8929 20.5061 25.6826 19.8634 25.726C19.2867 25.7649 18.9281 26.0059 18.7147 26.3142C18.6798 26.4252 18.6762 26.5853 18.7735 26.848C18.892 27.1675 19.1312 27.555 19.494 28.0228C19.8524 28.4849 20.289 28.9729 20.7672 29.5036L20.8333 29.5769C21.2842 30.0772 21.7658 30.6116 22.2053 31.1568C23.6865 32.9943 24.4299 35.0544 24.509 36.4866C24.6428 38.91 25.326 41.411 26.4122 43.5407ZM35.6479 27.0148L33.3172 25.7771C32.9661 25.5906 32.5343 25.6566 32.2549 25.9394L32.1856 26.0096C33.9938 22.2641 35.3585 18.8405 36.8848 14.307C37.2067 13.3508 38.2634 12.8698 39.1769 13.2495C39.9997 13.5914 40.42 14.5128 40.1386 15.3596C38.9072 19.0658 37.8804 22.102 36.4756 25.3311C36.416 25.4293 36.3607 25.5312 36.31 25.6368L35.6479 27.0148ZM39.1176 23.6542C40.0871 21.1935 40.9126 18.7389 41.8468 15.9272C42.4252 14.1865 41.5626 12.2917 39.8676 11.5873C37.9729 10.7999 35.8274 11.8066 35.1789 13.7326C33.1483 19.7641 31.4187 23.7782 28.488 29.316C27.9837 28.7921 27.386 28.1978 26.7644 27.6161C25.7418 26.6593 24.5989 25.6839 23.6798 25.1287C22.2039 24.2372 20.877 23.8534 19.7422 23.9301C18.5773 24.0087 17.6729 24.5734 17.1457 25.4257C17.1244 25.4601 17.1055 25.496 17.089 25.533C16.7902 26.2038 16.8665 26.882 17.0857 27.4735C17.2992 28.0495 17.6701 28.6081 18.0716 29.1259C18.4776 29.6493 18.9594 30.1863 19.4299 30.7084L19.485 30.7695C19.9449 31.2799 20.3964 31.781 20.8039 32.2865C22.0882 33.8797 22.6566 35.5887 22.7117 36.5859C22.8721 39.4907 23.7427 42.4833 25.1333 44.9658C25.1666 45.0251 25.201 45.0837 25.2368 45.1416L24.4434 47.0507C23.965 48.2019 24.2719 49.5898 25.3724 50.3433C26.3963 51.0444 28.0409 52.0515 30.2487 53.0252C32.6544 54.0862 34.8011 54.5052 36.1337 54.6712C37.3854 54.8271 38.4682 54.0666 38.913 52.9964L39.7398 51.0069C41.0617 50.7439 42.3134 50.0722 43.3647 48.7779C45.53 46.1121 47.2965 42.8445 48.5148 40.2702C49.1264 38.9779 49.6049 37.8495 49.931 37.043C50.065 36.7114 50.1735 36.4339 50.2549 36.2214L50.8774 34.7235C51.5526 33.0988 50.7829 31.2343 49.1581 30.5591C48.6099 30.3312 48.0343 30.2679 47.4864 30.3465C47.5202 28.9225 46.6902 27.5581 45.2959 26.9786C44.5417 26.6652 43.7413 26.6308 43.0093 26.828C42.8881 25.579 42.1034 24.4349 40.8671 23.9128C40.2958 23.6716 39.6953 23.592 39.1176 23.6542ZM38.0679 26.1826C37.8225 26.7436 37.5655 27.3111 37.2942 27.8891L40.3857 29.5308L40.6491 28.897C40.6507 28.8932 40.6523 28.8894 40.6539 28.8856L41.0923 27.8308C41.4578 26.9512 41.0443 25.9416 40.1669 25.5711C39.4002 25.2473 38.5261 25.5171 38.0679 26.1826ZM41.9826 30.3789L42.3148 29.5794C42.6896 28.6902 43.713 28.2701 44.6051 28.6408C45.5 29.0127 45.924 30.0397 45.5521 30.9346L45.0959 32.0322L41.9826 30.3789ZM46.6957 32.8818L49.1515 34.186L49.2152 34.0327C49.5089 33.326 49.1741 32.515 48.4674 32.2212C47.7904 31.9399 47.0177 32.2353 46.6957 32.8818ZM26.5685 46.6275L26.1056 47.7414C25.9201 48.1877 26.0623 48.6341 26.3893 48.8581C27.3359 49.5062 28.8837 50.4559 30.9751 51.3783C33.183 52.352 35.1515 52.7349 36.3562 52.885C36.7055 52.9285 37.0764 52.7252 37.2508 52.3056L37.7423 51.1229C37.6918 51.1196 37.6414 51.1159 37.5909 51.1117C35.5668 50.946 33.4749 50.1244 31.6877 49.3817C30.0512 48.7016 28.6803 48.0561 27.5984 47.3683C27.2266 47.1319 26.8821 46.8864 26.5685 46.6275Z" fill="#F8F9FA"/>
<path d="M33.4827 7.05057L34.6776 6.14372L34.6776 6.14372L33.4827 7.05057ZM33.2907 8.45169L34.1976 9.64652L33.2907 8.45169ZM32.0816 6.85857L31.1748 5.66374L31.1748 5.66374L32.0816 6.85857ZM25.3679 11.9541L23.9762 11.3944C23.7245 12.0203 23.9215 12.7371 24.4577 13.1464C24.9939 13.5557 25.7374 13.5568 26.2747 13.1489L25.3679 11.9541ZM26.5608 8.98789L27.9524 9.54758L27.9524 9.54758L26.5608 8.98789ZM26.0061 7.68699L26.5658 6.29532L26.5658 6.29532L26.0061 7.68699ZM24.7052 8.24165L26.0969 8.80133L26.0969 8.80133L24.7052 8.24165ZM22.3974 13.9802L23.789 14.5399L23.789 14.5399L22.3974 13.9802ZM23.3568 15.3528L23.3093 13.8536L23.3093 13.8536L23.3568 15.3528ZM29.1236 15.1702L29.0761 13.671L29.0761 13.671L29.1236 15.1702ZM30.0915 14.1391L28.5922 14.1865L28.5922 14.1866L30.0915 14.1391ZM29.0603 13.1712L29.0128 11.672L29.0128 11.672L29.0603 13.1712ZM26.9858 13.2369L26.079 12.0421C25.559 12.4367 25.354 13.1224 25.5719 13.7378C25.7899 14.3531 26.3808 14.7568 27.0333 14.7362L26.9858 13.2369ZM9.42214 22.1798L8.61942 20.9126L8.61942 20.9126L9.42214 22.1798ZM9.11253 23.5597L10.3797 22.757L10.3797 22.757L9.11253 23.5597ZM16.0583 17.9758L16.861 19.243C17.4071 18.897 17.6701 18.24 17.5137 17.6127C17.3572 16.9855 16.8164 16.529 16.1717 16.4801L16.0583 17.9758ZM13.9042 17.8125L14.0176 16.3168L14.0176 16.3168L13.9042 17.8125ZM12.9827 16.7397L11.4869 16.6263L11.4869 16.6263L12.9827 16.7397ZM14.0554 15.8182L13.942 17.3139L13.942 17.3139L14.0554 15.8182ZM19.8086 16.2545L19.922 14.7588L19.922 14.7588L19.8086 16.2545ZM20.6093 16.7699L19.2948 17.4925L19.2948 17.4925L20.6093 16.7699ZM20.6154 17.722L21.9391 18.4276L21.9391 18.4276L20.6154 17.722ZM17.706 23.1803L16.3823 22.4747L16.3823 22.4747L17.706 23.1803ZM16.3532 23.5924L15.6476 24.9161L15.6476 24.9161L16.3532 23.5924ZM15.9411 22.2395L17.2648 22.9451L17.2648 22.9451L15.9411 22.2395ZM17.4074 19.4887L18.7311 20.1943C19.0514 19.5934 18.9267 18.8522 18.4275 18.3891C17.9283 17.926 17.1799 17.8572 16.6046 18.2216L17.4074 19.4887ZM10.4924 23.8693L11.2952 25.1364L11.2952 25.1364L10.4924 23.8693ZM26.8757 43.616L27.4941 42.2494L27.4941 42.2494L26.8757 43.616ZM26.4122 43.5407L25.0759 44.2222C25.3575 44.7744 25.9497 45.0965 26.5663 45.0328L26.4122 43.5407ZM39.3327 49.2534L38.7143 50.6199C38.9944 50.7467 39.3067 50.7843 39.609 50.7277L39.3327 49.2534ZM41.9675 47.6431L40.8032 46.6974L40.8032 46.6974L41.9675 47.6431ZM46.8878 39.5002L45.532 38.8585L45.532 38.8585L46.8878 39.5002ZM48.2097 36.4976L49.5989 37.0635C49.6348 36.9755 49.6622 36.8843 49.6808 36.7911L48.2097 36.4976ZM48.4577 35.8556L49.8428 36.4312C50.1398 35.7168 49.8445 34.8937 49.1612 34.5308L48.4577 35.8556ZM45.9989 34.5498L46.7025 33.2251C46.3294 33.027 45.8901 32.9953 45.4925 33.1379C45.0949 33.2805 44.7759 33.5841 44.6138 33.9742L45.9989 34.5498ZM45.8681 34.8646L47.2504 35.4472L47.2533 35.4402L45.8681 34.8646ZM45.8646 34.8731L44.4823 34.2905L44.4794 34.2974L45.8646 34.8731ZM44.4021 33.7018L45.7872 34.2775C46.0841 33.563 45.7889 32.7399 45.1056 32.377L44.4021 33.7018ZM41.2887 32.0485L41.9922 30.7237C41.6192 30.5256 41.1799 30.4939 40.7823 30.6365C40.3847 30.7791 40.0656 31.0828 39.9036 31.4729L41.2887 32.0485ZM40.994 32.7577L42.3791 33.3333L42.3792 33.3333L40.994 32.7577ZM40.9915 32.7637L39.6104 32.1782L39.6063 32.188L40.9915 32.7637ZM39.2722 32.2104L40.6573 32.786L39.2722 32.2104ZM39.6919 31.2004L41.077 31.7761C41.374 31.0616 41.0787 30.2386 40.3954 29.8757L39.6919 31.2004ZM36.5089 29.5101L37.2125 28.1853C36.8554 27.9957 36.4368 27.9583 36.0517 28.0815C35.6666 28.2048 35.3476 28.4783 35.1669 28.84L36.5089 29.5101ZM35.5684 31.3348L36.8931 32.0384L36.8931 32.0384L35.5684 31.3348ZM33.9787 30.4904L32.654 29.7867L32.654 29.7867L33.9787 30.4904ZM34.1447 30.1762L35.4724 30.8743C35.5223 30.7794 35.5619 30.6794 35.5905 30.5761L34.1447 30.1762ZM34.2014 30.0254L32.8494 29.3758L32.8493 29.3758L34.2014 30.0254ZM34.8677 28.6386L36.2198 29.2882C36.5684 28.5627 36.2822 27.6913 35.5713 27.3138L34.8677 28.6386ZM33.0646 27.681L33.7681 26.3562C33.1829 26.0454 32.4632 26.1554 31.9975 26.6268L33.0646 27.681ZM29.4457 31.344L28.3786 30.2897C28.2781 30.3915 28.1927 30.507 28.1249 30.6329L29.4457 31.344ZM28.9992 32.1689L27.6815 31.4524L27.6815 31.4524L28.9992 32.1689ZM27.4179 31.3091L28.7357 32.0256L28.7362 32.0246L27.4179 31.3091ZM27.5924 30.9876L28.9107 31.7032C29.2184 31.1363 29.1293 30.4363 28.6894 29.9646L27.5924 30.9876ZM25.5346 28.9305L24.5097 30.0258L24.5097 30.0258L25.5346 28.9305ZM22.7492 26.6695L21.9736 27.9534L21.9736 27.9534L22.7492 26.6695ZM19.8634 25.726L19.9645 27.2226L19.9645 27.2226L19.8634 25.726ZM18.7147 26.3142L17.4813 25.4607C17.3957 25.5843 17.3292 25.7202 17.284 25.8637L18.7147 26.3142ZM18.7735 26.848L20.18 26.3267L20.18 26.3267L18.7735 26.848ZM19.494 28.0228L18.3087 28.9421L18.3087 28.9421L19.494 28.0228ZM20.7672 29.5036L19.6528 30.5076L19.6529 30.5077L20.7672 29.5036ZM20.8333 29.5769L19.7189 30.5811L19.719 30.5811L20.8333 29.5769ZM22.2053 31.1568L23.3731 30.2154L23.3731 30.2154L22.2053 31.1568ZM24.509 36.4866L26.0067 36.4039L26.0067 36.4039L24.509 36.4866ZM33.3172 25.7771L34.0208 24.4523L34.0208 24.4523L33.3172 25.7771ZM35.6479 27.0148L34.9444 28.3396C35.305 28.5311 35.7281 28.5673 36.116 28.4399C36.5039 28.3125 36.8231 28.0325 36.9999 27.6644L35.6479 27.0148ZM32.2549 25.9394L31.1878 24.8852L31.1878 24.8852L32.2549 25.9394ZM32.1856 26.0096L30.8348 25.3574C30.5159 26.0179 30.7214 26.8122 31.3207 27.2351C31.92 27.658 32.7372 27.5855 33.2527 27.0638L32.1856 26.0096ZM36.8848 14.307L38.3064 14.7856L38.3064 14.7856L36.8848 14.307ZM40.1386 15.3596L38.7152 14.8866L38.7152 14.8866L40.1386 15.3596ZM36.4756 25.3311L37.758 26.1092C37.7931 26.0515 37.8241 25.9914 37.8511 25.9295L36.4756 25.3311ZM36.31 25.6368L34.958 24.9872L34.958 24.9872L36.31 25.6368ZM39.1176 23.6542L37.722 23.1044C37.5296 23.5928 37.6065 24.1462 37.9247 24.5637C38.243 24.9811 38.7564 25.2018 39.2783 25.1456L39.1176 23.6542ZM41.8468 15.9272L40.4233 15.4542L40.4233 15.4542L41.8468 15.9272ZM35.1789 13.7326L33.7573 13.254L33.7573 13.254L35.1789 13.7326ZM28.488 29.316L27.4072 30.3562C27.7409 30.7029 28.2205 30.8684 28.697 30.8014C29.1734 30.7344 29.5887 30.4429 29.8138 30.0177L28.488 29.316ZM26.7644 27.6161L25.7395 28.7114L25.7396 28.7114L26.7644 27.6161ZM23.6798 25.1287L24.4554 23.8448L24.4554 23.8448L23.6798 25.1287ZM19.7422 23.9301L19.8432 25.4267L19.8432 25.4267L19.7422 23.9301ZM17.1457 25.4257L18.4214 26.2148L18.4214 26.2147L17.1457 25.4257ZM17.089 25.533L18.4592 26.1432L18.4592 26.1432L17.089 25.533ZM17.0857 27.4735L15.6792 27.9948L15.6792 27.9948L17.0857 27.4735ZM18.0716 29.1259L16.8863 30.0452L16.8863 30.0452L18.0716 29.1259ZM19.4299 30.7084L18.3155 31.7125L18.3155 31.7125L19.4299 30.7084ZM19.485 30.7696L18.3706 31.7737L18.3706 31.7737L19.485 30.7696ZM20.8039 32.2865L21.9717 31.3451L21.9717 31.3451L20.8039 32.2865ZM22.7117 36.5859L24.2094 36.5032L24.2094 36.5032L22.7117 36.5859ZM25.1333 44.9658L23.8247 45.6989L23.8247 45.6989L25.1333 44.9658ZM25.2368 45.1416L26.6219 45.7173C26.807 45.2719 26.7666 44.7648 26.5135 44.3543L25.2368 45.1416ZM25.3724 50.3433L26.2198 49.1056L26.2198 49.1056L25.3724 50.3433ZM30.2487 53.0252L30.854 51.6528L30.854 51.6528L30.2487 53.0252ZM36.1337 54.6712L35.9484 56.1597L35.9484 56.1597L36.1337 54.6712ZM39.7398 51.0069L39.4471 49.5357C38.9564 49.6333 38.5467 49.9692 38.3546 50.4312L39.7398 51.0069ZM43.3647 48.7779L44.529 49.7236L44.529 49.7236L43.3647 48.7779ZM48.5148 40.2702L47.159 39.6285L47.159 39.6285L48.5148 40.2702ZM49.931 37.043L48.5403 36.4808L48.5403 36.4808L49.931 37.043ZM50.2549 36.2214L48.8697 35.6458C48.8644 35.6587 48.8592 35.6716 48.8542 35.6846L50.2549 36.2214ZM47.4864 30.3465L45.9868 30.3108C45.9763 30.7519 46.1605 31.1752 46.4905 31.4681C46.8204 31.7611 47.2625 31.8939 47.6992 31.8313L47.4864 30.3465ZM43.0093 26.828L41.5163 26.9729C41.5589 27.4122 41.7928 27.8103 42.1556 28.0614C42.5185 28.3126 42.9735 28.3912 43.3995 28.2764L43.0093 26.828ZM40.8671 23.9128L40.2836 25.2947L40.2836 25.2947L40.8671 23.9128ZM37.2942 27.8891L35.9363 27.2518C35.5966 27.9757 35.8844 28.8388 36.5907 29.2139L37.2942 27.8891ZM38.0679 26.1826L36.8324 25.3319C36.7784 25.4105 36.7319 25.494 36.6937 25.5814L38.0679 26.1826ZM40.3857 29.5308L39.6822 30.8556C40.0553 31.0537 40.4946 31.0854 40.8922 30.9428C41.2897 30.8002 41.6088 30.4965 41.7709 30.1065L40.3857 29.5308ZM40.6539 28.8856L42.0372 29.4658L42.0391 29.4613L40.6539 28.8856ZM40.1669 25.5711L40.7504 24.1892L40.7504 24.1892L40.1669 25.5711ZM42.3148 29.5794L40.9326 28.9968L40.9297 29.0038L42.3148 29.5794ZM41.9826 30.3789L40.5974 29.8032C40.3005 30.5176 40.5957 31.3407 41.279 31.7036L41.9826 30.3789ZM45.0959 32.0322L44.3924 33.357C44.7654 33.5551 45.2047 33.5868 45.6023 33.4441C45.9999 33.3015 46.319 32.9979 46.4811 32.6079L45.0959 32.0322ZM49.1515 34.186L48.448 35.5108C48.8211 35.7089 49.2604 35.7405 49.658 35.5979C50.0556 35.4553 50.3746 35.1517 50.5367 34.7616L49.1515 34.186ZM46.6957 32.8818L45.353 32.213C44.9905 32.9409 45.274 33.8252 45.9922 34.2066L46.6957 32.8818ZM26.1056 47.7414L27.4907 48.3171L26.1056 47.7414ZM26.5685 46.6275L27.5236 45.4708C27.1569 45.1681 26.6685 45.0571 26.2071 45.1717C25.7456 45.2862 25.3658 45.6128 25.1834 46.0518L26.5685 46.6275ZM26.3893 48.8581L25.5418 50.0958L25.5418 50.0958L26.3893 48.8581ZM30.9751 51.3783L31.5804 50.0059L31.5804 50.0058L30.9751 51.3783ZM36.3562 52.885L36.5416 51.3965L36.5416 51.3965L36.3562 52.885ZM37.7423 51.1229L39.1275 51.6985C39.3132 51.2517 39.2719 50.7427 39.0166 50.3315C38.7613 49.9204 38.3233 49.6578 37.8404 49.6261L37.7423 51.1229ZM37.5909 51.1117L37.4685 52.6067L37.4686 52.6067L37.5909 51.1117ZM27.5984 47.3683L26.7937 48.6341L26.7937 48.6341L27.5984 47.3683ZM32.2879 7.95741C32.1209 7.73745 32.1639 7.4238 32.3839 7.25685L34.1976 9.64652C35.2974 8.81179 35.5123 7.24353 34.6776 6.14372L32.2879 7.95741ZM32.9884 8.05341C32.7685 8.22035 32.4548 8.17738 32.2879 7.95741L34.6776 6.14372C33.8428 5.04391 32.2746 4.82901 31.1748 5.66374L32.9884 8.05341ZM26.2747 13.1489L32.9884 8.05341L31.1748 5.66374L24.461 10.7593L26.2747 13.1489ZM25.1691 8.42821L23.9762 11.3944L26.7595 12.5138L27.9524 9.54758L25.1691 8.42821ZM25.4464 9.07866C25.1902 8.97563 25.0661 8.68441 25.1691 8.42821L27.9524 9.54758C28.4676 8.26658 27.8468 6.81049 26.5658 6.29532L25.4464 9.07866ZM26.0969 8.80133C25.9939 9.05753 25.7026 9.1817 25.4464 9.07866L26.5658 6.29532C25.2848 5.78014 23.8287 6.40097 23.3135 7.68197L26.0969 8.80133ZM23.789 14.5399L26.0969 8.80133L23.3135 7.68197L21.0057 13.4205L23.789 14.5399ZM23.735 14.0669C23.8317 14.2053 23.852 14.3832 23.789 14.5399L21.0057 13.4205C20.6906 14.204 20.7923 15.0935 21.2761 15.7856L23.735 14.0669ZM23.3093 13.8536C23.4781 13.8482 23.6382 13.9285 23.735 14.0669L21.2761 15.7856C21.7598 16.4777 22.5603 16.8788 23.4043 16.8521L23.3093 13.8536ZM29.0761 13.671L23.3093 13.8536L23.4043 16.8521L29.1711 16.6695L29.0761 13.671ZM28.5922 14.1866C28.5835 13.9105 28.8001 13.6797 29.0761 13.671L29.1711 16.6695C30.5511 16.6258 31.6344 15.4716 31.5907 14.0916L28.5922 14.1866ZM29.1078 14.6705C28.8318 14.6792 28.601 14.4626 28.5922 14.1865L31.5907 14.0916C31.547 12.7116 30.3929 11.6283 29.0128 11.672L29.1078 14.6705ZM27.0333 14.7362L29.1078 14.6705L29.0128 11.672L26.9384 11.7377L27.0333 14.7362ZM32.3839 7.25685L26.079 12.0421L27.8927 14.4317L34.1976 9.64652L32.3839 7.25685ZM8.61942 20.9126C7.45305 21.6515 7.10651 23.196 7.8454 24.3624L10.3797 22.757C10.5274 22.9902 10.4581 23.2991 10.2249 23.4469L8.61942 20.9126ZM15.2555 16.7087L8.61942 20.9126L10.2249 23.4469L16.861 19.243L15.2555 16.7087ZM13.7907 19.3082L15.9448 19.4715L16.1717 16.4801L14.0176 16.3168L13.7907 19.3082ZM11.4869 16.6263C11.3825 18.003 12.414 19.2038 13.7907 19.3082L14.0176 16.3168C14.2929 16.3377 14.4992 16.5778 14.4784 16.8531L11.4869 16.6263ZM14.1688 14.3225C12.7921 14.2181 11.5914 15.2495 11.4869 16.6263L14.4784 16.8531C14.4575 17.1285 14.2173 17.3348 13.942 17.3139L14.1688 14.3225ZM19.922 14.7588L14.1688 14.3225L13.942 17.3139L19.6952 17.7502L19.922 14.7588ZM21.9237 16.0472C21.5169 15.3072 20.764 14.8227 19.922 14.7588L19.6952 17.7502C19.5268 17.7374 19.3762 17.6405 19.2948 17.4925L21.9237 16.0472ZM21.9391 18.4276C22.3363 17.6824 22.3305 16.7871 21.9237 16.0472L19.2948 17.4925C19.2135 17.3445 19.2123 17.1655 19.2917 17.0165L21.9391 18.4276ZM19.0297 23.8859L21.9391 18.4276L19.2918 17.0165L16.3823 22.4747L19.0297 23.8859ZM15.6476 24.9161C16.8661 25.5655 18.3803 25.1043 19.0297 23.8859L16.3823 22.4747C16.5122 22.231 16.8151 22.1388 17.0588 22.2687L15.6476 24.9161ZM14.6174 21.534C13.968 22.7524 14.4292 24.2666 15.6476 24.9161L17.0588 22.2687C17.3025 22.3986 17.3947 22.7014 17.2648 22.9451L14.6174 21.534ZM16.0837 18.7832L14.6174 21.534L17.2648 22.9451L18.7311 20.1943L16.0837 18.7832ZM11.2952 25.1364L18.2101 20.7559L16.6046 18.2216L9.68972 22.6022L11.2952 25.1364ZM7.8454 24.3624C8.58429 25.5288 10.1288 25.8753 11.2952 25.1364L9.68972 22.6022C9.92299 22.4544 10.2319 22.5237 10.3797 22.757L7.8454 24.3624ZM27.4941 42.2494C27.1036 42.0727 26.6767 42.0054 26.258 42.0487L26.5663 45.0328C26.4617 45.0436 26.3549 45.0268 26.2573 44.9826L27.4941 42.2494ZM39.9512 47.8868L27.4941 42.2494L26.2573 44.9826L38.7143 50.6199L39.9512 47.8868ZM40.8032 46.6974C40.2664 47.3582 39.6944 47.6595 39.0565 47.779L39.609 50.7277C40.9491 50.4766 42.1493 49.7984 43.1318 48.5888L40.8032 46.6974ZM45.532 38.8585C44.3604 41.3341 42.7262 44.3298 40.8032 46.6974L43.1318 48.5888C45.2751 45.95 47.0296 42.7071 48.2436 40.1419L45.532 38.8585ZM46.8205 35.9318C46.5151 36.6816 46.08 37.7006 45.532 38.8585L48.2436 40.1419C48.8195 38.9252 49.2767 37.8546 49.5989 37.0635L46.8205 35.9318ZM46.8765 35.7517C46.8151 35.8993 46.7693 36.0508 46.7387 36.2042L49.6808 36.7911C49.673 36.8299 49.6615 36.8674 49.6468 36.903L46.8765 35.7517ZM47.0725 35.2799L46.8765 35.7517L49.6468 36.903L49.8428 36.4312L47.0725 35.2799ZM45.2954 35.8746L47.7542 37.1804L49.1612 34.5308L46.7025 33.2251L45.2954 35.8746ZM47.2533 35.4402L47.3841 35.1255L44.6138 33.9742L44.483 34.289L47.2533 35.4402ZM47.2468 35.4556L47.2504 35.4472L44.4859 34.2821L44.4823 34.2905L47.2468 35.4556ZM47.2224 35.5144L47.2497 35.4487L44.4794 34.2974L44.4521 34.3631L47.2224 35.5144ZM44.0852 36.8096C45.3092 37.3183 46.7138 36.7384 47.2224 35.5144L44.4521 34.3631C44.5793 34.0571 44.9304 33.9121 45.2365 34.0393L44.0852 36.8096ZM42.79 33.6723C42.2813 34.8963 42.8612 36.3009 44.0852 36.8096L45.2365 34.0393C45.5424 34.1665 45.6874 34.5176 45.5603 34.8236L42.79 33.6723ZM43.0169 33.1262L42.79 33.6723L45.5603 34.8236L45.7872 34.2775L43.0169 33.1262ZM40.5852 33.3732L43.6985 35.0266L45.1056 32.377L41.9922 30.7237L40.5852 33.3732ZM39.9036 31.4729L39.6088 32.1821L42.3792 33.3333L42.6739 32.6241L39.9036 31.4729ZM39.6088 32.182C39.6094 32.1808 39.6099 32.1795 39.6104 32.1783L42.3725 33.3491C42.3748 33.3438 42.377 33.3386 42.3791 33.3333L39.6088 32.182ZM42.3195 33.4768L42.3766 33.3393L39.6063 32.188L39.5492 32.3255L42.3195 33.4768ZM39.1822 34.772C40.4062 35.2807 41.8108 34.7008 42.3195 33.4768L39.5492 32.3255C39.6764 32.0195 40.0275 31.8745 40.3335 32.0017L39.1822 34.772ZM37.887 31.6347C37.3784 32.8587 37.9582 34.2633 39.1822 34.772L40.3335 32.0017C40.6395 32.1289 40.7845 32.48 40.6573 32.786L37.887 31.6347ZM38.3067 30.6248L37.887 31.6347L40.6573 32.786L41.077 31.7761L38.3067 30.6248ZM35.8054 30.8349L38.9884 32.5252L40.3954 29.8757L37.2125 28.1853L35.8054 30.8349ZM36.8931 32.0384C37.2307 31.4029 37.549 30.7848 37.8509 30.1802L35.1669 28.84C34.8766 29.4214 34.5698 30.0172 34.2436 30.6311L36.8931 32.0384ZM33.6477 33.0321C34.8183 33.6539 36.2713 33.209 36.8931 32.0384L34.2436 30.6311C34.3991 30.3385 34.7623 30.2273 35.055 30.3827L33.6477 33.0321ZM32.654 29.7867C32.0322 30.9573 32.4771 32.4103 33.6477 33.0321L35.055 30.3827C35.3476 30.5382 35.4589 30.9014 35.3034 31.1941L32.654 29.7867ZM32.8171 29.4781C32.7633 29.5805 32.7089 29.6833 32.654 29.7867L35.3034 31.1941C35.3603 31.087 35.4166 30.9804 35.4724 30.8743L32.8171 29.4781ZM35.5905 30.5761C35.5809 30.6105 35.5685 30.6437 35.5534 30.675L32.8493 29.3758C32.7868 29.5059 32.7368 29.6399 32.699 29.7763L35.5905 30.5761ZM35.5534 30.675L36.2198 29.2882L33.5157 27.9889L32.8494 29.3758L35.5534 30.675ZM32.3611 29.0058L34.1642 29.9633L35.5713 27.3138L33.7681 26.3562L32.3611 29.0058ZM30.5127 32.3982L34.1316 28.7352L31.9975 26.6268L28.3786 30.2897L30.5127 32.3982ZM30.317 32.8855C30.4697 32.6048 30.6194 32.3281 30.7664 32.055L28.1249 30.6329C27.98 30.902 27.8323 31.1751 27.6815 31.4524L30.317 32.8855ZM27.0621 33.8474C28.2265 34.4806 29.6838 34.05 30.317 32.8855L27.6815 31.4524C27.8398 31.1613 28.2041 31.0536 28.4952 31.2119L27.0621 33.8474ZM26.1002 30.5925C25.4669 31.7569 25.8976 33.2142 27.0621 33.8474L28.4952 31.2119C28.7863 31.3702 28.894 31.7345 28.7357 32.0256L26.1002 30.5925ZM26.2741 30.272L26.0996 30.5935L28.7362 32.0246L28.9107 31.7032L26.2741 30.272ZM24.5097 30.0258C25.2622 30.7298 25.9744 31.4519 26.4954 32.0106L28.6894 29.9646C28.1243 29.3585 27.364 28.588 26.5594 27.8352L24.5097 30.0258ZM21.9736 27.9534C22.5765 28.3176 23.507 29.0876 24.5097 30.0258L26.5594 27.8352C25.5389 26.8803 24.4152 25.9234 23.5247 25.3855L21.9736 27.9534ZM19.9645 27.2226C20.1974 27.2068 20.8469 27.2728 21.9736 27.9534L23.5247 25.3855C22.0801 24.5129 20.8149 24.1583 19.7624 24.2294L19.9645 27.2226ZM19.9482 27.1678C19.9414 27.1776 19.9309 27.1904 19.9165 27.2036C19.9019 27.217 19.8874 27.227 19.8759 27.2333C19.8645 27.2396 19.862 27.2391 19.8732 27.2359C19.8848 27.2327 19.9137 27.226 19.9645 27.2226L19.7624 24.2294C18.7602 24.297 17.9713 24.7525 17.4813 25.4607L19.9482 27.1678ZM20.18 26.3267C20.1666 26.2906 20.1832 26.3223 20.1898 26.4053C20.1972 26.4987 20.1894 26.6252 20.1454 26.7648L17.284 25.8637C17.1172 26.3933 17.1971 26.9108 17.367 27.3693L20.18 26.3267ZM20.6793 27.1035C20.3484 26.6769 20.2191 26.4322 20.18 26.3267L17.367 27.3693C17.5648 27.9029 17.914 28.4332 18.3087 28.9421L20.6793 27.1035ZM21.8816 28.4995C21.3968 27.9615 20.998 27.5145 20.6793 27.1035L18.3087 28.9421C18.7067 29.4553 19.1812 29.9842 19.6528 30.5076L21.8816 28.4995ZM21.9476 28.5727L21.8815 28.4994L19.6529 30.5077L19.7189 30.5811L21.9476 28.5727ZM23.3731 30.2154C22.9033 29.6327 22.3937 29.0678 21.9475 28.5727L19.719 30.5811C20.1746 31.0867 20.6282 31.5906 21.0374 32.0982L23.3731 30.2154ZM26.0067 36.4039C25.9076 34.6089 25.0182 32.2563 23.3731 30.2154L21.0374 32.0982C22.3547 33.7323 22.9522 35.4998 23.0112 36.5693L26.0067 36.4039ZM27.7484 42.8592C26.7563 40.914 26.1289 38.6167 26.0067 36.4039L23.0112 36.5693C23.1567 39.2033 23.8957 41.9081 25.0759 44.2222L27.7484 42.8592ZM32.6137 27.1019L34.9444 28.3396L36.3514 25.69L34.0208 24.4523L32.6137 27.1019ZM33.3219 26.9936C33.1357 27.1822 32.8478 27.2262 32.6137 27.1019L34.0208 24.4523C33.0845 23.9551 31.9329 24.1311 31.1878 24.8852L33.3219 26.9936ZM33.2527 27.0638L33.3219 26.9936L31.1878 24.8852L31.1185 24.9553L33.2527 27.0638ZM35.4632 13.8284C33.9529 18.3146 32.6108 21.6786 30.8348 25.3574L33.5364 26.6617C35.3768 22.8497 36.7642 19.3665 38.3064 14.7856L35.4632 13.8284ZM39.7525 11.8643C38.0239 11.146 36.0582 12.0612 35.4632 13.8284L38.3064 14.7856C38.3553 14.6404 38.5028 14.5937 38.6012 14.6346L39.7525 11.8643ZM41.5621 15.8326C42.091 14.2408 41.3019 12.5082 39.7525 11.8643L38.6012 14.6346C38.6975 14.6746 38.749 14.7848 38.7152 14.8866L41.5621 15.8326ZM37.8511 25.9295C39.286 22.6312 40.3316 19.5361 41.5621 15.8326L38.7152 14.8866C37.4828 18.5955 36.4749 21.5727 35.1001 24.7328L37.8511 25.9295ZM37.662 26.2864C37.6916 26.2249 37.7237 26.1658 37.758 26.1092L35.1932 24.5531C35.1084 24.6928 35.0299 24.8376 34.958 24.9872L37.662 26.2864ZM36.9999 27.6644L37.662 26.2864L34.958 24.9872L34.2959 26.3652L36.9999 27.6644ZM40.5132 24.2041C41.4996 21.7004 42.3369 19.2095 43.2703 16.4002L40.4233 15.4542C39.4883 18.2682 38.6746 20.6866 37.722 23.1044L40.5132 24.2041ZM43.2703 16.4002C44.0961 13.9147 42.865 11.2085 40.4433 10.2021L39.292 12.9724C40.2601 13.3748 40.7542 14.4584 40.4233 15.4542L43.2703 16.4002ZM40.4433 10.2021C37.7295 9.07433 34.6774 10.5211 33.7573 13.254L36.6005 14.2113C36.9773 13.0921 38.2163 12.5254 39.292 12.9724L40.4433 10.2021ZM33.7573 13.254C31.7526 19.2086 30.055 23.1481 27.1622 28.6144L29.8138 30.0177C32.7823 24.4083 34.544 20.3197 36.6005 14.2112L33.7573 13.254ZM29.5687 28.2759C29.048 27.7348 28.4317 27.122 27.7893 26.5209L25.7396 28.7114C26.3403 29.2736 26.9194 29.8494 27.4072 30.3562L29.5687 28.2759ZM27.7893 26.5209C26.7573 25.5552 25.518 24.4866 24.4554 23.8448L22.9043 26.4127C23.6798 26.8811 24.7264 27.7634 25.7395 28.7114L27.7893 26.5209ZM24.4554 23.8448C22.8212 22.8577 21.1864 22.3292 19.6412 22.4335L19.8432 25.4267C20.5677 25.3777 21.5866 25.6168 22.9043 26.4127L24.4554 23.8448ZM19.6412 22.4335C18.0166 22.5431 16.6637 23.3536 15.8701 24.6366L18.4214 26.2147C18.6821 25.7933 19.138 25.4743 19.8432 25.4267L19.6412 22.4335ZM15.8701 24.6366C15.8132 24.7285 15.7627 24.8241 15.7187 24.9228L18.4592 26.1432C18.4483 26.1679 18.4356 26.1918 18.4214 26.2148L15.8701 24.6366ZM15.7187 24.9228C15.2118 26.061 15.372 27.166 15.6792 27.9948L18.4922 26.9522C18.3609 26.598 18.3686 26.3467 18.4592 26.1432L15.7187 24.9228ZM15.6792 27.9948C15.9718 28.7842 16.4521 29.4853 16.8863 30.0452L19.2569 28.2067C18.888 27.731 18.6266 27.3148 18.4922 26.9522L15.6792 27.9948ZM16.8863 30.0452C17.3318 30.6196 17.8513 31.1973 18.3155 31.7125L20.5443 29.7044C20.0676 29.1753 19.6233 28.679 19.2569 28.2067L16.8863 30.0452ZM18.3155 31.7125L18.3706 31.7737L20.5993 29.7654L20.5442 29.7043L18.3155 31.7125ZM18.3706 31.7737C18.8361 32.2902 19.2591 32.7602 19.6361 33.2279L21.9717 31.3451C21.5337 30.8018 21.0537 30.2697 20.5993 29.7654L18.3706 31.7737ZM19.6361 33.2279C20.7562 34.6174 21.1789 36.0338 21.214 36.6686L24.2094 36.5032C24.1343 35.1436 23.4202 33.142 21.9717 31.3451L19.6361 33.2279ZM21.214 36.6686C21.3869 39.7996 22.3212 43.0149 23.8247 45.6989L26.442 44.2327C25.1643 41.9517 24.3573 39.1819 24.2094 36.5032L21.214 36.6686ZM23.8247 45.6989C23.8682 45.7766 23.9134 45.8533 23.96 45.929L26.5135 44.3543C26.4887 44.3141 26.4649 44.2736 26.442 44.2327L23.8247 45.6989ZM23.8516 44.566L23.0583 46.475L25.8285 47.6263L26.6219 45.7173L23.8516 44.566ZM23.0583 46.475C22.3377 48.2089 22.776 50.3834 24.5249 51.5809L26.2198 49.1056C25.7679 48.7962 25.5922 48.195 25.8285 47.6263L23.0583 46.475ZM24.5249 51.5809C25.6132 52.3262 27.3386 53.3812 29.6434 54.3977L30.854 51.6528C28.7432 50.7219 27.1793 49.7626 26.2198 49.1056L24.5249 51.5809ZM29.6434 54.3977C32.2139 55.5313 34.5092 55.9804 35.9484 56.1597L36.3191 53.1827C35.0931 53.03 33.0949 52.6411 30.854 51.6528L29.6434 54.3977ZM35.9484 56.1597C37.957 56.4099 39.6302 55.1793 40.2981 53.5721L37.5278 52.4208C37.3062 52.9539 36.8137 53.2443 36.3191 53.1827L35.9484 56.1597ZM40.2981 53.5721L41.1249 51.5825L38.3546 50.4312L37.5278 52.4208L40.2981 53.5721ZM40.0324 52.478C41.6849 52.1493 43.2495 51.2989 44.529 49.7236L42.2004 47.8322C41.3774 48.8454 40.4386 49.3385 39.4471 49.5357L40.0324 52.478ZM44.529 49.7236C46.8044 46.9222 48.631 43.5311 49.8706 40.9119L47.159 39.6285C45.9619 42.1579 44.2556 45.3019 42.2004 47.8322L44.529 49.7236ZM49.8706 40.9119C50.4969 39.5886 50.9869 38.4331 51.3216 37.6052L48.5403 36.4808C48.2229 37.2659 47.7559 38.3672 47.159 39.6285L49.8706 40.9119ZM51.3216 37.6052C51.4593 37.2646 51.5711 36.9786 51.6556 36.7582L48.8542 35.6846C48.7758 35.8892 48.6707 36.1582 48.5403 36.4808L51.3216 37.6052ZM51.64 36.7971L52.2626 35.2991L49.4923 34.1479L48.8697 35.6458L51.64 36.7971ZM52.2626 35.2991C53.2557 32.9094 52.1235 30.167 49.7338 29.1739L48.5825 31.9442C49.4422 32.3015 49.8496 33.2881 49.4923 34.1479L52.2626 35.2991ZM49.7338 29.1739C48.9296 28.8397 48.0811 28.7459 47.2735 28.8616L47.6992 31.8313C47.9876 31.7899 48.2901 31.8227 48.5825 31.9442L49.7338 29.1739ZM48.9859 30.3821C49.034 28.36 47.8564 26.4184 45.8715 25.5935L44.7202 28.3638C45.524 28.6978 46.0064 29.485 45.9868 30.3108L48.9859 30.3821ZM45.8715 25.5935C44.8006 25.1484 43.6598 25.0993 42.6191 25.3797L43.3995 28.2764C43.8227 28.1624 44.2828 28.182 44.7202 28.3638L45.8715 25.5935ZM40.2836 25.2947C40.9929 25.5942 41.4462 26.2502 41.5163 26.9729L44.5023 26.6831C44.33 24.9079 43.2139 23.2756 41.4506 22.531L40.2836 25.2947ZM39.2783 25.1456C39.6091 25.1099 39.953 25.1551 40.2836 25.2947L41.4506 22.531C40.6386 22.1881 39.7814 22.074 38.9569 22.1628L39.2783 25.1456ZM38.6521 28.5264C38.9291 27.9363 39.1915 27.3568 39.4421 26.7839L36.6937 25.5814C36.4535 26.1304 36.202 26.6859 35.9363 27.2518L38.6521 28.5264ZM41.0893 28.2061L37.9977 26.5643L36.5907 29.2139L39.6822 30.8556L41.0893 28.2061ZM39.264 28.3214L39.0006 28.9552L41.7709 30.1065L42.0343 29.4727L39.264 28.3214ZM39.2706 28.3055C39.2685 28.3106 39.2663 28.3159 39.264 28.3214L42.0343 29.4727C42.0352 29.4706 42.0361 29.4683 42.0372 29.4658L39.2706 28.3055ZM42.0391 29.4613L42.4774 28.4064L39.7071 27.2552L39.2688 28.31L42.0391 29.4613ZM42.4774 28.4064C43.1596 26.765 42.388 24.8807 40.7504 24.1892L39.5833 26.9529C39.7007 27.0025 39.756 27.1375 39.7071 27.2552L42.4774 28.4064ZM40.7504 24.1892C39.3184 23.5845 37.6883 24.0891 36.8324 25.3319L39.3033 27.0333C39.364 26.9452 39.4819 26.9101 39.5833 26.9529L40.7504 24.1892ZM40.9297 29.0038L40.5974 29.8032L43.3677 30.9545L43.7 30.1551L40.9297 29.0038ZM45.1807 27.2557C43.526 26.568 41.6279 27.3473 40.9326 28.9968L43.697 30.1621C43.7514 30.0331 43.9 29.9722 44.0295 30.026L45.1807 27.2557ZM46.9372 31.5102C47.6271 29.8503 46.8407 27.9455 45.1807 27.2557L44.0295 30.026C44.1594 30.08 44.2209 30.229 44.1669 30.3589L46.9372 31.5102ZM46.4811 32.6079L46.9372 31.5102L44.1669 30.3589L43.7108 31.4566L46.4811 32.6079ZM41.279 31.7036L44.3924 33.357L45.7995 30.7074L42.6861 29.0541L41.279 31.7036ZM49.8551 32.8612L47.3992 31.557L45.9922 34.2066L48.448 35.5108L49.8551 32.8612ZM47.8301 33.4571L47.7664 33.6103L50.5367 34.7616L50.6004 34.6084L47.8301 33.4571ZM47.8917 33.6064C47.8335 33.5822 47.8059 33.5153 47.8301 33.4571L50.6004 34.6084C51.212 33.1366 50.5147 31.4477 49.043 30.8361L47.8917 33.6064ZM48.0384 33.5506C48.0112 33.6052 47.9481 33.6298 47.8917 33.6064L49.043 30.8361C47.6327 30.25 46.0243 30.8654 45.353 32.213L48.0384 33.5506ZM27.4907 48.3171L27.9537 47.2031L25.1834 46.0518L24.7204 47.1658L27.4907 48.3171ZM27.2368 47.6204C27.5421 47.8295 27.5554 48.1615 27.4907 48.3171L24.7204 47.1658C24.2848 48.214 24.5824 49.4388 25.5418 50.0958L27.2368 47.6204ZM31.5804 50.0058C29.586 49.1263 28.1189 48.2245 27.2368 47.6204L25.5418 50.0958C26.5529 50.788 28.1814 51.7856 30.3698 52.7508L31.5804 50.0058ZM36.5416 51.3965C35.4435 51.2597 33.6235 50.9069 31.5804 50.0059L30.3698 52.7508C32.7425 53.7972 34.8595 54.2102 36.1708 54.3735L36.5416 51.3965ZM35.8656 51.73C35.9232 51.5915 36.1546 51.3483 36.5416 51.3965L36.1708 54.3735C37.2564 54.5087 38.2297 53.8589 38.6359 52.8813L35.8656 51.73ZM36.3572 50.5473L35.8656 51.73L38.6359 52.8813L39.1275 51.6985L36.3572 50.5473ZM37.4686 52.6067C37.5269 52.6115 37.5854 52.6158 37.6442 52.6197L37.8404 49.6261C37.7983 49.6233 37.7559 49.6202 37.7132 49.6167L37.4686 52.6067ZM31.1121 50.7668C32.8807 51.5018 35.1775 52.4192 37.4685 52.6067L37.7133 49.6167C35.9561 49.4729 34.0691 48.747 32.2634 47.9965L31.1121 50.7668ZM26.7937 48.6341C27.9869 49.3927 29.4535 50.0776 31.1121 50.7668L32.2634 47.9965C30.6489 47.3256 29.3738 46.7195 28.4031 46.1024L26.7937 48.6341ZM25.6135 47.7841C25.9833 48.0895 26.3797 48.371 26.7937 48.6341L28.4031 46.1024C28.0735 45.8929 27.7809 45.6833 27.5236 45.4708L25.6135 47.7841Z" fill="#F8F9FA" mask="url(#path-1-outside-1_50_11039)"/>
<path d="M32.6801 7.62438L24.5971 13.7592" stroke="#212529" stroke-width="2" stroke-linecap="round" stroke-linejoin="round"/>
<path d="M29.0859 14.1396L23.3191 14.3223L25.627 8.58369" stroke="#212529" stroke-width="2" stroke-linecap="round" stroke-linejoin="round"/>
<path d="M9.95131 22.9935L18.396 17.6438" stroke="#212529" stroke-width="2" stroke-linecap="round" stroke-linejoin="round"/>
<path d="M13.9738 16.7842L19.7269 17.2205L16.8175 22.6788" stroke="#212529" stroke-width="2" stroke-linecap="round" stroke-linejoin="round"/>
<path d="M36.2389 53.7474C34.9702 53.5894 32.9126 53.1884 30.6058 52.1711C28.4562 51.2231 26.86 50.2446 25.8747 49.57C25.161 49.0813 24.9364 48.1642 25.2684 47.3654L26.4985 44.4053L39.1167 50.1156L38.0758 52.6203C37.7662 53.3652 37.0393 53.8471 36.2389 53.7474Z" fill="#F8F9FA" stroke="#212529" stroke-width="1.8" stroke-linecap="round" stroke-linejoin="round"/>
<path d="M25.9125 44.4951C24.5896 42.1335 23.7572 39.2746 23.6043 36.5054C23.5372 35.2907 22.8813 33.4061 21.4985 31.6908C19.729 29.4957 17.2079 27.434 17.9051 25.8683C18.6401 24.6801 20.4468 24.2002 23.2085 25.8683C24.8742 26.8744 27.5485 29.5459 28.671 30.8106L32.8891 26.5411L49.5817 35.4058C49.5817 35.4058 46.8585 43.0107 42.6601 48.1797C39.9017 51.5757 35.6248 50.0149 32.0271 48.5198C28.7803 47.1705 26.7736 46.0323 25.9125 44.4951Z" fill="#FFD8A8" stroke="#212529" stroke-width="1.8" stroke-linecap="round" stroke-linejoin="round"/>
<g style="mix-blend-mode:soft-light" opacity="0.6">
<path d="M26.4023 37.0307C25.8959 37.3818 26.0122 38.8512 26.2656 39.8909C26.5248 40.9542 27.1067 42.5104 27.7082 42.2693C28.3098 42.0282 27.5996 40.0116 27.3666 39.5216C27.0074 38.5441 26.9088 36.6795 26.4023 37.0307Z" fill="#F8F9FA"/>
</g>
<path fill-rule="evenodd" clip-rule="evenodd" d="M40.0972 32.5246L41.4741 29.2112C42.0368 27.8573 43.5905 27.2159 44.9444 27.7786V27.7786C46.2983 28.3412 46.9397 29.8949 46.3771 31.2488L45.0001 34.5622" fill="#FFD8A8"/>
<path d="M40.0972 32.5246L41.4741 29.2112C42.0368 27.8573 43.5905 27.2159 44.9444 27.7786V27.7786C46.2983 28.3412 46.9397 29.8949 46.3771 31.2488L45.0001 34.5622" stroke="#212529" stroke-width="1.8" stroke-linecap="round" stroke-linejoin="round"/>
<path fill-rule="evenodd" clip-rule="evenodd" d="M45.031 34.4877L45.8187 32.5922C46.3032 31.4265 47.6409 30.8742 48.8067 31.3586V31.3586C49.9724 31.8431 50.5247 33.1809 50.0403 34.3466L49.0866 36.6413" fill="#FFD8A8"/>
<path d="M45.031 34.4877L45.8187 32.5922C46.3032 31.4265 47.6409 30.8742 48.8067 31.3586V31.3586C49.9724 31.8431 50.5247 33.1809 50.0403 34.3466L49.0866 36.6413" stroke="#212529" stroke-width="1.8" stroke-linecap="round" stroke-linejoin="round"/>
<path fill-rule="evenodd" clip-rule="evenodd" d="M28.2026 31.7082C31.8279 25.0413 33.7411 20.7751 36.0259 13.989C36.511 12.5479 38.1121 11.804 39.5162 12.3876V12.3876C40.7751 12.9107 41.4166 14.3189 40.9867 15.6126C39.1299 21.2009 37.7204 25.3227 34.7675 30.8818" fill="#FFD8A8"/>
<path d="M28.2026 31.7082C31.8279 25.0413 33.7411 20.7751 36.0259 13.989C36.511 12.5479 38.1121 11.804 39.5162 12.3876V12.3876C40.7751 12.9107 41.4166 14.3189 40.9867 15.6126C39.1299 21.2009 37.7204 25.3227 34.7675 30.8818" stroke="#212529" stroke-width="1.8" stroke-linecap="round" stroke-linejoin="round"/>
<path fill-rule="evenodd" clip-rule="evenodd" d="M35.0065 30.3845L37.1152 25.9959C37.7232 24.7305 39.2175 24.1651 40.5109 24.7113V24.7113C41.8444 25.2744 42.4728 26.8088 41.9173 28.1455L40.1568 32.3817" fill="#FFD8A8"/>
<path d="M35.0065 30.3845L37.1152 25.9959C37.7232 24.7305 39.2175 24.1651 40.5109 24.7113V24.7113C41.8444 25.2744 42.4728 26.8088 41.9173 28.1455L40.1568 32.3817" stroke="#212529" stroke-width="1.8" stroke-linecap="round" stroke-linejoin="round"/>
<g style="mix-blend-mode:multiply">
<path d="M42.9711 44.8436C44.9969 41.9904 47.5868 36.3228 49.2526 32.3142C49.4984 32.5667 49.417 33.1063 49.2606 34.7849C49.1041 36.4634 45.8243 42.7977 44.2946 45.3936C43.4629 46.551 41.8205 48.7781 40.638 49.3087C39.4555 49.8394 37.2039 49.862 36.2445 49.6386C39.9382 49.0694 41.4566 46.9767 42.9711 44.8436Z" fill="#DEE2E6"/>
</g>
<g style="mix-blend-mode:multiply">
<path d="M37.0419 50.6661L38.0088 50.9728L37.1281 53.092L36.0887 52.9595L37.0419 50.6661Z" fill="#DEE2E6"/>
</g>
<g style="mix-blend-mode:multiply">
<path d="M46.347 29.8143L45.7947 29.3742L43.8449 34.066L44.2369 34.8917L46.347 29.8143Z" fill="#DEE2E6"/>
</g>
<g style="mix-blend-mode:multiply">
<path d="M41.8251 27.0557L41.2839 26.5891L39.046 31.9739L39.4033 32.8832L41.8251 27.0557Z" fill="#DEE2E6"/>
</g>
<g style="mix-blend-mode:multiply">
<path d="M41.1534 14.5868L40.538 13.5284L34.0035 30.0223L34.3299 31.0059L41.1534 14.5868Z" fill="#DEE2E6"/>
</g>
</svg>
