<svg width="60" height="59" viewBox="0 0 60 59" fill="none" xmlns="http://www.w3.org/2000/svg">
<mask id="path-1-outside-1_50_9515" maskUnits="userSpaceOnUse" x="12.3142" y="6.71289" width="35" height="49" fill="black">
<rect fill="white" x="12.3142" y="6.71289" width="35" height="49"/>
<path fill-rule="evenodd" clip-rule="evenodd" d="M35.1526 8.74908C33.5711 8.54887 32.2449 9.20721 31.2658 10.0382C30.7384 10.4859 30.2918 10.999 29.9331 11.4972C29.5745 10.999 29.1279 10.4859 28.6004 10.0382C27.6213 9.20723 26.2951 8.54889 24.7137 8.7491C24.4506 8.7824 24.2212 8.94384 24.101 9.18017C23.9809 9.4165 23.9856 9.69701 24.1136 9.92916C24.3995 10.4474 24.8353 11.2967 25.2057 12.1445C25.3441 12.4612 25.4709 12.7721 25.5766 13.0617C23.9193 12.8451 21.4783 13.0123 19.2547 14.5755C18.9886 14.7625 18.8623 15.0919 18.935 15.4089C19.0077 15.7258 19.2651 15.9672 19.586 16.0195C20.5545 16.1774 22.1073 16.5638 23.5679 17.1996C23.8502 17.3226 24.1233 17.4523 24.3842 17.5885C21.4076 18.4756 19.1798 20.1198 17.5877 22.344C15.1601 25.7355 14.3142 30.3357 14.3142 35.2446C14.3142 40.1539 15.1624 44.754 17.5911 48.1454C20.0607 51.5939 24.0574 53.6481 30 53.6481C35.9425 53.6481 39.9393 51.5939 42.4088 48.1454C44.8375 44.754 45.6857 40.1539 45.6857 35.2446C45.6857 30.3357 44.8398 25.7355 42.4122 22.344C40.805 20.0986 38.5498 18.4444 35.5305 17.5634C35.7767 17.4363 36.0334 17.315 36.2984 17.1996C37.759 16.5638 39.3117 16.1774 40.2803 16.0195C40.6012 15.9672 40.8585 15.7258 40.9313 15.4089C41.004 15.0919 40.8776 14.7625 40.6116 14.5755C38.388 13.0123 35.947 12.8451 34.2897 13.0616C34.3954 12.7721 34.5222 12.4612 34.6605 12.1445C35.0309 11.2966 35.4667 10.4474 35.7526 9.92914C35.8807 9.69699 35.8854 9.41648 35.7652 9.18015C35.6451 8.94382 35.4156 8.78238 35.1526 8.74908ZM33.2887 17.075C34.0161 16.528 34.8492 16.0854 35.6598 15.7326C36.3861 15.4164 37.1294 15.1574 37.8253 14.9523C35.9772 14.3502 34.2289 14.6076 33.4597 14.8786C33.2065 14.9679 32.9254 14.9241 32.7113 14.7622C32.4971 14.6002 32.3785 14.3416 32.3954 14.0737C32.4193 13.696 32.5331 13.2618 32.6707 12.8456C32.8124 12.417 32.9975 11.9546 33.1943 11.5039C33.3501 11.1475 33.5159 10.7923 33.6784 10.4589C33.1843 10.6182 32.7237 10.8995 32.3012 11.2581C31.5295 11.9131 30.9546 12.7722 30.6508 13.3891C30.5162 13.6625 30.2379 13.8357 29.9331 13.8357C29.6284 13.8357 29.3501 13.6625 29.2154 13.3891C28.9116 12.7722 28.3368 11.9131 27.5651 11.2581C27.1426 10.8995 26.682 10.6182 26.1878 10.4589C26.3503 10.7923 26.5162 11.1475 26.6719 11.5039C26.8688 11.9546 27.0538 12.4171 27.1955 12.8457C27.3331 13.2619 27.447 13.696 27.4708 14.0737C27.4877 14.3417 27.3691 14.6002 27.155 14.7622C26.9409 14.9241 26.6598 14.9679 26.4066 14.8787C25.6374 14.6076 23.889 14.3503 22.041 14.9523C22.7369 15.1574 23.4801 15.4164 24.2065 15.7326C25.0255 16.0891 25.8675 16.5372 26.6002 17.0921C27.6547 16.9267 28.7867 16.8412 30 16.8412C31.1707 16.8412 32.2659 16.9208 33.2887 17.075ZM28.9649 18.6642C29.3013 18.6489 29.6463 18.6412 30 18.6412C30.3184 18.6412 30.6299 18.6475 30.9344 18.6599L29.933 18.7905L28.9649 18.6642ZM26.3125 18.9683C26.5254 19.1936 26.7021 19.4281 26.8363 19.6712C26.9593 19.8941 27.1809 20.0451 27.4333 20.078L29.6011 20.3607C29.7066 20.3978 29.8196 20.4127 29.933 20.4032C30.0465 20.4127 30.1597 20.3978 30.2654 20.3607L32.433 20.078C32.6854 20.0451 32.907 19.894 33.03 19.6712C33.1684 19.4204 33.3522 19.1787 33.5741 18.9469C37.0285 19.587 39.3745 21.1927 40.9485 23.3917C43.0554 26.3351 43.8857 30.4867 43.8857 35.2446C43.8857 40.0022 43.0534 44.1538 40.9454 47.0974C38.8782 49.984 35.4821 51.8481 30 51.8481C24.5178 51.8481 21.1217 49.984 19.0545 47.0974C16.9465 44.1538 16.1142 40.0022 16.1142 35.2446C16.1142 30.4867 16.9445 26.3351 19.0514 23.3917C20.6081 21.2168 22.92 19.6223 26.3125 18.9683Z"/>
</mask>
<path fill-rule="evenodd" clip-rule="evenodd" d="M35.1526 8.74908C33.5711 8.54887 32.2449 9.20721 31.2658 10.0382C30.7384 10.4859 30.2918 10.999 29.9331 11.4972C29.5745 10.999 29.1279 10.4859 28.6004 10.0382C27.6213 9.20723 26.2951 8.54889 24.7137 8.7491C24.4506 8.7824 24.2212 8.94384 24.101 9.18017C23.9809 9.4165 23.9856 9.69701 24.1136 9.92916C24.3995 10.4474 24.8353 11.2967 25.2057 12.1445C25.3441 12.4612 25.4709 12.7721 25.5766 13.0617C23.9193 12.8451 21.4783 13.0123 19.2547 14.5755C18.9886 14.7625 18.8623 15.0919 18.935 15.4089C19.0077 15.7258 19.2651 15.9672 19.586 16.0195C20.5545 16.1774 22.1073 16.5638 23.5679 17.1996C23.8502 17.3226 24.1233 17.4523 24.3842 17.5885C21.4076 18.4756 19.1798 20.1198 17.5877 22.344C15.1601 25.7355 14.3142 30.3357 14.3142 35.2446C14.3142 40.1539 15.1624 44.754 17.5911 48.1454C20.0607 51.5939 24.0574 53.6481 30 53.6481C35.9425 53.6481 39.9393 51.5939 42.4088 48.1454C44.8375 44.754 45.6857 40.1539 45.6857 35.2446C45.6857 30.3357 44.8398 25.7355 42.4122 22.344C40.805 20.0986 38.5498 18.4444 35.5305 17.5634C35.7767 17.4363 36.0334 17.315 36.2984 17.1996C37.759 16.5638 39.3117 16.1774 40.2803 16.0195C40.6012 15.9672 40.8585 15.7258 40.9313 15.4089C41.004 15.0919 40.8776 14.7625 40.6116 14.5755C38.388 13.0123 35.947 12.8451 34.2897 13.0616C34.3954 12.7721 34.5222 12.4612 34.6605 12.1445C35.0309 11.2966 35.4667 10.4474 35.7526 9.92914C35.8807 9.69699 35.8854 9.41648 35.7652 9.18015C35.6451 8.94382 35.4156 8.78238 35.1526 8.74908ZM33.2887 17.075C34.0161 16.528 34.8492 16.0854 35.6598 15.7326C36.3861 15.4164 37.1294 15.1574 37.8253 14.9523C35.9772 14.3502 34.2289 14.6076 33.4597 14.8786C33.2065 14.9679 32.9254 14.9241 32.7113 14.7622C32.4971 14.6002 32.3785 14.3416 32.3954 14.0737C32.4193 13.696 32.5331 13.2618 32.6707 12.8456C32.8124 12.417 32.9975 11.9546 33.1943 11.5039C33.3501 11.1475 33.5159 10.7923 33.6784 10.4589C33.1843 10.6182 32.7237 10.8995 32.3012 11.2581C31.5295 11.9131 30.9546 12.7722 30.6508 13.3891C30.5162 13.6625 30.2379 13.8357 29.9331 13.8357C29.6284 13.8357 29.3501 13.6625 29.2154 13.3891C28.9116 12.7722 28.3368 11.9131 27.5651 11.2581C27.1426 10.8995 26.682 10.6182 26.1878 10.4589C26.3503 10.7923 26.5162 11.1475 26.6719 11.5039C26.8688 11.9546 27.0538 12.4171 27.1955 12.8457C27.3331 13.2619 27.447 13.696 27.4708 14.0737C27.4877 14.3417 27.3691 14.6002 27.155 14.7622C26.9409 14.9241 26.6598 14.9679 26.4066 14.8787C25.6374 14.6076 23.889 14.3503 22.041 14.9523C22.7369 15.1574 23.4801 15.4164 24.2065 15.7326C25.0255 16.0891 25.8675 16.5372 26.6002 17.0921C27.6547 16.9267 28.7867 16.8412 30 16.8412C31.1707 16.8412 32.2659 16.9208 33.2887 17.075ZM28.9649 18.6642C29.3013 18.6489 29.6463 18.6412 30 18.6412C30.3184 18.6412 30.6299 18.6475 30.9344 18.6599L29.933 18.7905L28.9649 18.6642ZM26.3125 18.9683C26.5254 19.1936 26.7021 19.4281 26.8363 19.6712C26.9593 19.8941 27.1809 20.0451 27.4333 20.078L29.6011 20.3607C29.7066 20.3978 29.8196 20.4127 29.933 20.4032C30.0465 20.4127 30.1597 20.3978 30.2654 20.3607L32.433 20.078C32.6854 20.0451 32.907 19.894 33.03 19.6712C33.1684 19.4204 33.3522 19.1787 33.5741 18.9469C37.0285 19.587 39.3745 21.1927 40.9485 23.3917C43.0554 26.3351 43.8857 30.4867 43.8857 35.2446C43.8857 40.0022 43.0534 44.1538 40.9454 47.0974C38.8782 49.984 35.4821 51.8481 30 51.8481C24.5178 51.8481 21.1217 49.984 19.0545 47.0974C16.9465 44.1538 16.1142 40.0022 16.1142 35.2446C16.1142 30.4867 16.9445 26.3351 19.0514 23.3917C20.6081 21.2168 22.92 19.6223 26.3125 18.9683Z" fill="#F8F9FA"/>
<path d="M31.2658 10.0382L30.2952 8.8946L30.2952 8.8946L31.2658 10.0382ZM35.1526 8.74908L34.9642 10.2372L34.9642 10.2372L35.1526 8.74908ZM29.9331 11.4972L28.7158 12.3736C28.9976 12.7651 29.4507 12.9972 29.9331 12.9972C30.4156 12.9972 30.8686 12.7651 31.1505 12.3736L29.9331 11.4972ZM28.6004 10.0382L29.5711 8.8946L29.5711 8.8946L28.6004 10.0382ZM24.7137 8.7491L24.5253 7.26098L24.5253 7.26098L24.7137 8.7491ZM24.101 9.18017L22.764 8.50031L22.764 8.50031L24.101 9.18017ZM24.1136 9.92916L25.4271 9.20467L25.4271 9.20467L24.1136 9.92916ZM25.2057 12.1445L23.8312 12.745L23.8312 12.745L25.2057 12.1445ZM25.5766 13.0617L25.3822 14.549C25.9021 14.6169 26.4196 14.4086 26.7473 13.9994C27.0751 13.5902 27.1654 13.0397 26.9856 12.5472L25.5766 13.0617ZM19.2547 14.5755L20.1173 15.8026L20.1173 15.8026L19.2547 14.5755ZM19.586 16.0195L19.3446 17.5L19.3446 17.5L19.586 16.0195ZM23.5679 17.1996L24.1666 15.8243L24.1666 15.8243L23.5679 17.1996ZM24.3842 17.5885L24.8126 19.026C25.3978 18.8516 25.8189 18.3398 25.8773 17.732C25.9357 17.1241 25.6198 16.5415 25.0785 16.2589L24.3842 17.5885ZM17.5877 22.344L16.368 21.4709L16.368 21.4709L17.5877 22.344ZM17.5911 48.1454L18.8106 47.2721L18.8106 47.2721L17.5911 48.1454ZM42.4088 48.1454L43.6284 49.0188L43.6284 49.0188L42.4088 48.1454ZM42.4122 22.344L43.6319 21.4709L43.6319 21.4709L42.4122 22.344ZM35.5305 17.5634L34.8425 16.2305C34.2973 16.5119 33.9784 17.0969 34.0374 17.7076C34.0964 18.3183 34.5213 18.8315 35.1103 19.0033L35.5305 17.5634ZM36.2984 17.1996L36.8971 18.575L36.8971 18.575L36.2984 17.1996ZM40.2803 16.0195L40.5216 17.5L40.5216 17.5L40.2803 16.0195ZM40.6116 14.5755L41.4743 13.3484L41.4743 13.3484L40.6116 14.5755ZM34.2897 13.0616L32.8806 12.5472C32.7008 13.0397 32.7912 13.5902 33.1189 13.9994C33.4466 14.4085 33.9642 14.6169 34.484 14.549L34.2897 13.0616ZM34.6605 12.1445L36.0351 12.745L36.0351 12.745L34.6605 12.1445ZM35.7526 9.92914L34.4392 9.20464L34.4392 9.20465L35.7526 9.92914ZM35.7652 9.18015L37.1023 8.50028L37.1023 8.50028L35.7652 9.18015ZM33.2887 17.075L33.0651 18.5582C33.4631 18.6182 33.8686 18.5158 34.1903 18.2738L33.2887 17.075ZM35.6598 15.7326L35.0611 14.3573L35.0611 14.3573L35.6598 15.7326ZM37.8253 14.9523L38.2493 16.3911C38.8797 16.2054 39.3158 15.6308 39.3251 14.9736C39.3345 14.3164 38.9149 13.7297 38.2899 13.5261L37.8253 14.9523ZM33.4597 14.8786L33.9582 16.2934L33.9582 16.2934L33.4597 14.8786ZM32.7113 14.7622L31.8064 15.9585L31.8064 15.9585L32.7113 14.7622ZM32.3954 14.0737L33.8925 14.1682L33.8925 14.1682L32.3954 14.0737ZM32.6707 12.8456L34.0949 13.3165L34.0949 13.3165L32.6707 12.8456ZM33.1943 11.5039L31.8198 10.9034L31.8198 10.9034L33.1943 11.5039ZM33.6784 10.4589L35.0268 11.116C35.2902 10.5755 35.2055 9.93 34.8114 9.47586C34.4174 9.02171 33.7903 8.84672 33.2181 9.03124L33.6784 10.4589ZM32.3012 11.2581L31.3305 10.1144L31.3305 10.1144L32.3012 11.2581ZM30.6508 13.3891L31.9965 14.0519L31.9965 14.0519L30.6508 13.3891ZM29.9331 13.8357L29.9331 15.3357L29.9331 15.3357L29.9331 13.8357ZM29.2154 13.3891L30.5611 12.7264L30.5611 12.7264L29.2154 13.3891ZM27.5651 11.2581L28.5357 10.1145L28.5357 10.1145L27.5651 11.2581ZM26.1878 10.4589L26.6482 9.03126C26.076 8.84674 25.4488 9.02174 25.0548 9.47588C24.6608 9.93002 24.576 10.5756 24.8394 11.116L26.1878 10.4589ZM26.6719 11.5039L28.0465 10.9034L28.0465 10.9034L26.6719 11.5039ZM27.1955 12.8457L28.6197 12.3748L28.6197 12.3748L27.1955 12.8457ZM27.4708 14.0737L28.9679 13.9792L28.9679 13.9792L27.4708 14.0737ZM27.155 14.7622L26.2502 13.5658L26.2502 13.5658L27.155 14.7622ZM26.4066 14.8787L26.905 13.4639L26.905 13.4639L26.4066 14.8787ZM22.041 14.9523L21.5763 13.5261C20.9514 13.7297 20.5318 14.3164 20.5411 14.9736C20.5505 15.6308 20.9865 16.2054 21.617 16.3912L22.041 14.9523ZM24.2065 15.7326L23.6078 17.108L23.6078 17.108L24.2065 15.7326ZM26.6002 17.0921L25.6946 18.2879C26.0193 18.5338 26.4301 18.6371 26.8326 18.574L26.6002 17.0921ZM28.9649 18.6642L28.8969 17.1657C28.1201 17.201 27.499 17.824 27.4662 18.6009C27.4334 19.3779 27.9998 20.051 28.7709 20.1516L28.9649 18.6642ZM30.9344 18.6599L31.1284 20.1473C31.9008 20.0465 32.4676 19.3713 32.433 18.5931C32.3983 17.815 31.7738 17.1928 30.9955 17.1611L30.9344 18.6599ZM29.933 18.7905L29.7391 20.2779C29.8678 20.2947 29.9983 20.2947 30.127 20.2779L29.933 18.7905ZM26.8363 19.6712L28.1496 18.9465L28.1496 18.9465L26.8363 19.6712ZM26.3125 18.9683L27.4028 17.9381C27.0506 17.5653 26.5323 17.3984 26.0286 17.4955L26.3125 18.9683ZM27.4333 20.078L27.6273 18.5906L27.6273 18.5906L27.4333 20.078ZM29.6011 20.3607L30.0983 18.9455C30 18.911 29.8984 18.8868 29.7951 18.8733L29.6011 20.3607ZM29.933 20.4032L30.0587 18.9084C29.9752 18.9014 29.8913 18.9014 29.8078 18.9084L29.933 20.4032ZM30.2654 20.3607L30.0714 18.8733C29.968 18.8868 29.8662 18.911 29.7678 18.9456L30.2654 20.3607ZM32.433 20.078L32.239 18.5906L32.239 18.5906L32.433 20.078ZM33.03 19.6712L34.3433 20.3959L34.3433 20.3959L33.03 19.6712ZM33.5741 18.9469L33.8473 17.472C33.3503 17.3799 32.8403 17.5444 32.4907 17.9095L33.5741 18.9469ZM40.9485 23.3917L39.7288 24.2647L39.7288 24.2647L40.9485 23.3917ZM40.9454 47.0974L42.1649 47.9708L42.1649 47.9708L40.9454 47.0974ZM19.0545 47.0974L20.2741 46.2241L20.2741 46.2241L19.0545 47.0974ZM19.0514 23.3917L20.2711 24.2647L20.2711 24.2647L19.0514 23.3917ZM32.2365 11.1818C33.0178 10.5187 33.9373 10.1072 34.9642 10.2372L35.341 7.26096C33.2049 6.99053 31.472 7.89573 30.2952 8.8946L32.2365 11.1818ZM31.1505 12.3736C31.4521 11.9546 31.8185 11.5365 32.2365 11.1818L30.2952 8.8946C29.6582 9.43524 29.1314 10.0435 28.7157 10.6209L31.1505 12.3736ZM27.6298 11.1818C28.0477 11.5366 28.4141 11.9546 28.7158 12.3736L31.1505 10.6209C30.7349 10.0435 30.208 9.43525 29.5711 8.8946L27.6298 11.1818ZM24.9021 10.2372C25.9289 10.1072 26.8485 10.5187 27.6298 11.1818L29.5711 8.8946C28.3942 7.89574 26.6614 6.99056 24.5253 7.26098L24.9021 10.2372ZM25.4381 9.86004C25.333 10.0668 25.1322 10.2081 24.9021 10.2372L24.5253 7.26098C23.7691 7.35671 23.1094 7.82086 22.764 8.50031L25.4381 9.86004ZM25.4271 9.20467C25.5391 9.4078 25.5433 9.65325 25.4381 9.86004L22.764 8.50031C22.4185 9.17975 22.4321 9.98622 22.8002 10.6536L25.4271 9.20467ZM26.5803 11.544C26.188 10.646 25.7306 9.755 25.4271 9.20467L22.8002 10.6536C23.0684 11.1399 23.4827 11.9473 23.8312 12.745L26.5803 11.544ZM26.9856 12.5472C26.8667 12.2216 26.7276 11.8811 26.5803 11.544L23.8312 12.745C23.9606 13.0412 24.075 13.3227 24.1676 13.5761L26.9856 12.5472ZM20.1173 15.8026C21.9486 14.5152 23.9797 14.3658 25.3822 14.549L25.7709 11.5743C23.8588 11.3245 21.0079 11.5094 18.392 13.3484L20.1173 15.8026ZM20.397 15.0734C20.4606 15.3507 20.3501 15.639 20.1173 15.8026L18.392 13.3484C17.6272 13.886 17.2639 14.8331 17.473 15.7444L20.397 15.0734ZM19.8274 14.5391C20.1082 14.5849 20.3334 14.7961 20.397 15.0734L17.473 15.7444C17.6821 16.6556 18.4219 17.3495 19.3446 17.5L19.8274 14.5391ZM24.1666 15.8243C22.5735 15.1308 20.8976 14.7136 19.8274 14.5391L19.3446 17.5C20.2114 17.6413 21.6411 17.9968 22.9692 18.575L24.1666 15.8243ZM25.0785 16.2589C24.7835 16.1049 24.4784 15.96 24.1666 15.8243L22.9692 18.575C23.2221 18.6851 23.4631 18.7997 23.6899 18.9182L25.0785 16.2589ZM18.8075 23.2171C20.2023 21.2683 22.1495 19.8197 24.8126 19.026L23.9558 16.151C20.6657 17.1316 18.1573 18.9712 16.368 21.4709L18.8075 23.2171ZM15.8142 35.2446C15.8142 30.4615 16.6471 26.2352 18.8075 23.2171L16.368 21.4709C13.6731 25.2359 12.8142 30.2099 12.8142 35.2446H15.8142ZM18.8106 47.2721C16.6492 44.2539 15.8142 40.0275 15.8142 35.2446H12.8142C12.8142 40.2804 13.6756 45.2542 16.3716 49.0188L18.8106 47.2721ZM30 52.1481C24.4405 52.1481 20.9446 50.2519 18.8106 47.2721L16.3716 49.0188C19.1767 52.9359 23.6744 55.1481 30 55.1481V52.1481ZM41.1893 47.2721C39.0553 50.2519 35.5594 52.1481 30 52.1481V55.1481C36.3255 55.1481 40.8232 52.9359 43.6284 49.0188L41.1893 47.2721ZM44.1857 35.2446C44.1857 40.0275 43.3507 44.2539 41.1893 47.2721L43.6284 49.0188C46.3243 45.2542 47.1857 40.2804 47.1857 35.2446H44.1857ZM41.1925 23.2171C43.3528 26.2352 44.1857 30.4615 44.1857 35.2446H47.1857C47.1857 30.2099 46.3268 25.2359 43.6319 21.4709L41.1925 23.2171ZM35.1103 19.0033C37.8136 19.7921 39.7846 21.2502 41.1925 23.2171L43.6319 21.4709C41.8253 18.9469 39.286 17.0966 35.9506 16.1234L35.1103 19.0033ZM35.6997 15.8243C35.4071 15.9516 35.1204 16.087 34.8425 16.2305L36.2184 18.8963C36.433 18.7856 36.6598 18.6783 36.8971 18.575L35.6997 15.8243ZM40.0389 14.5391C38.9686 14.7136 37.2928 15.1308 35.6997 15.8243L36.8971 18.575C38.2252 17.9968 39.6549 17.6413 40.5216 17.5L40.0389 14.5391ZM39.4693 15.0734C39.5329 14.7961 39.7581 14.5848 40.0389 14.5391L40.5216 17.5C41.4443 17.3495 42.1842 16.6555 42.3933 15.7443L39.4693 15.0734ZM39.7489 15.8026C39.5162 15.639 39.4056 15.3507 39.4693 15.0734L42.3933 15.7443C42.6023 14.8331 42.2391 13.886 41.4743 13.3484L39.7489 15.8026ZM34.484 14.549C35.8865 14.3657 37.9176 14.5152 39.7489 15.8026L41.4743 13.3484C38.8584 11.5094 36.0075 11.3244 34.0953 11.5743L34.484 14.549ZM33.286 11.544C33.1387 11.8811 32.9995 12.2216 32.8806 12.5472L35.6987 13.5761C35.7912 13.3226 35.9057 13.0412 36.0351 12.745L33.286 11.544ZM34.4392 9.20465C34.1356 9.75498 33.6783 10.646 33.286 11.544L36.0351 12.745C36.3836 11.9473 36.7979 11.1398 37.0661 10.6536L34.4392 9.20465ZM34.4282 9.86002C34.323 9.65323 34.3271 9.40778 34.4392 9.20464L37.0661 10.6536C37.4342 9.9862 37.4478 9.17972 37.1023 8.50028L34.4282 9.86002ZM34.9642 10.2372C34.7341 10.2081 34.5333 10.0668 34.4282 9.86002L37.1023 8.50028C36.7568 7.82084 36.0972 7.35669 35.341 7.26096L34.9642 10.2372ZM34.1903 18.2738C34.7952 17.8189 35.5166 17.4309 36.2585 17.1079L35.0611 14.3573C34.1819 14.74 33.2369 15.2371 32.3871 15.8762L34.1903 18.2738ZM36.2585 17.1079C36.9185 16.8206 37.602 16.5819 38.2493 16.3911L37.4013 13.5135C36.6567 13.7329 35.8538 14.0122 35.0611 14.3573L36.2585 17.1079ZM38.2899 13.5261C36.0929 12.8103 34.0044 13.0963 32.9612 13.4639L33.9582 16.2934C34.4534 16.1189 35.8616 15.8902 37.3606 16.3785L38.2899 13.5261ZM32.9612 13.4639C33.1828 13.3858 33.4287 13.4241 33.6161 13.5658L31.8064 15.9585C32.422 16.4241 33.2302 16.5499 33.9582 16.2934L32.9612 13.4639ZM33.6161 13.5658C33.8035 13.7075 33.9073 13.9337 33.8925 14.1682L30.8984 13.9792C30.8498 14.7495 31.1908 15.4929 31.8064 15.9585L33.6161 13.5658ZM33.8925 14.1682C33.904 13.9849 33.9693 13.6964 34.0949 13.3165L31.2466 12.3748C31.097 12.8273 30.9345 13.4071 30.8984 13.9792L33.8925 14.1682ZM34.0949 13.3165C34.2172 12.9468 34.383 12.53 34.5689 12.1044L31.8198 10.9034C31.612 11.3791 31.4077 11.8873 31.2466 12.3748L34.0949 13.3165ZM34.5689 12.1045C34.7148 11.7704 34.8717 11.4343 35.0268 11.116L32.33 9.80171C32.1602 10.1503 31.9853 10.5246 31.8198 10.9034L34.5689 12.1045ZM33.2181 9.03124C32.4937 9.26482 31.864 9.66171 31.3305 10.1144L33.2718 12.4017C33.5834 12.1372 33.8748 11.9716 34.1388 11.8865L33.2181 9.03124ZM31.3305 10.1144C30.369 10.9306 29.6783 11.9688 29.3052 12.7264L31.9965 14.0519C32.231 13.5756 32.69 12.8955 33.2718 12.4017L31.3305 10.1144ZM29.3052 12.7264C29.423 12.4872 29.6665 12.3357 29.9331 12.3357L29.9331 15.3357C30.8093 15.3357 31.6094 14.8379 31.9965 14.0519L29.3052 12.7264ZM29.9331 12.3357C30.1998 12.3357 30.4433 12.4872 30.5611 12.7264L27.8698 14.0519C28.2569 14.8379 29.057 15.3357 29.9331 15.3357L29.9331 12.3357ZM30.5611 12.7264C30.188 11.9688 29.4973 10.9306 28.5357 10.1145L26.5944 12.4017C27.1763 12.8955 27.6352 13.5756 27.8698 14.0519L30.5611 12.7264ZM28.5357 10.1145C28.0023 9.66173 27.3725 9.26484 26.6482 9.03126L25.7275 11.8865C25.9915 11.9716 26.2829 12.1373 26.5944 12.4017L28.5357 10.1145ZM24.8394 11.116C24.9945 11.4343 25.1514 11.7704 25.2974 12.1045L28.0465 10.9034C27.881 10.5247 27.7061 10.1503 27.5362 9.80173L24.8394 11.116ZM25.2974 12.1045C25.4833 12.5301 25.6491 12.9468 25.7713 13.3165L28.6197 12.3748C28.4585 11.8873 28.2543 11.3792 28.0465 10.9034L25.2974 12.1045ZM25.7713 13.3165C25.8969 13.6964 25.9622 13.9849 25.9738 14.1682L28.9679 13.9792C28.9317 13.4071 28.7693 12.8273 28.6197 12.3748L25.7713 13.3165ZM25.9738 14.1682C25.959 13.9338 26.0628 13.7075 26.2502 13.5658L28.0598 15.9585C28.6755 15.4929 29.0165 14.7496 28.9679 13.9792L25.9738 14.1682ZM26.2502 13.5658C26.4375 13.4241 26.6835 13.3858 26.905 13.4639L25.9081 16.2934C26.6361 16.5499 27.4442 16.4241 28.0598 15.9585L26.2502 13.5658ZM26.905 13.4639C25.8619 13.0964 23.7734 12.8103 21.5763 13.5261L22.5056 16.3785C24.0047 15.8902 25.4129 16.1189 25.9081 16.2934L26.905 13.4639ZM21.617 16.3912C22.2642 16.5819 22.9478 16.8207 23.6078 17.108L24.8052 14.3573C24.0125 14.0122 23.2095 13.7329 22.465 13.5135L21.617 16.3912ZM23.6078 17.108C24.3576 17.4343 25.086 17.827 25.6946 18.2879L27.5058 15.8963C26.6489 15.2474 25.6933 14.7439 24.8052 14.3573L23.6078 17.108ZM26.8326 18.574C27.803 18.4217 28.857 18.3412 30 18.3412V15.3412C28.7165 15.3412 27.5063 15.4316 26.3677 15.6102L26.8326 18.574ZM30 18.3412C31.1029 18.3412 32.123 18.4162 33.0651 18.5582L33.5123 15.5918C32.4088 15.4254 31.2385 15.3412 30 15.3412V18.3412ZM30 17.1412C29.6244 17.1412 29.2568 17.1494 28.8969 17.1657L29.0328 20.1627C29.3459 20.1485 29.6682 20.1412 30 20.1412V17.1412ZM30.9955 17.1611C30.67 17.1479 30.3382 17.1412 30 17.1412V20.1412C30.2987 20.1412 30.5898 20.1471 30.8734 20.1586L30.9955 17.1611ZM30.127 20.2779L31.1284 20.1473L30.7405 17.1725L29.7391 17.3031L30.127 20.2779ZM28.7709 20.1516L29.7391 20.2779L30.127 17.3031L29.1588 17.1768L28.7709 20.1516ZM28.1496 18.9465C27.944 18.5738 27.6865 18.2384 27.4028 17.9381L25.2223 19.9985C25.3642 20.1487 25.4603 20.2824 25.523 20.396L28.1496 18.9465ZM27.6273 18.5906C27.8481 18.6194 28.042 18.7515 28.1496 18.9465L25.523 20.396C25.8765 21.0366 26.5137 21.4708 27.2393 21.5654L27.6273 18.5906ZM29.7951 18.8733L27.6273 18.5906L27.2393 21.5654L29.4071 21.8481L29.7951 18.8733ZM29.8078 18.9084C29.9072 18.9001 30.0061 18.9131 30.0983 18.9455L29.1039 21.7759C29.4071 21.8824 29.7321 21.9252 30.0582 21.8979L29.8078 18.9084ZM29.7678 18.9456C29.8601 18.9132 29.9592 18.9001 30.0587 18.9084L29.8073 21.8979C30.1339 21.9254 30.4594 21.8825 30.7629 21.7758L29.7678 18.9456ZM32.239 18.5906L30.0714 18.8733L30.4594 21.8481L32.627 21.5654L32.239 18.5906ZM31.7166 18.9465C31.8242 18.7515 32.0182 18.6194 32.239 18.5906L32.627 21.5654C33.3525 21.4708 33.9898 21.0366 34.3433 20.3959L31.7166 18.9465ZM32.4907 17.9095C32.1961 18.2172 31.9288 18.5621 31.7166 18.9465L34.3433 20.3959C34.408 20.2787 34.5083 20.1402 34.6575 19.9843L32.4907 17.9095ZM42.1683 22.5186C40.3565 19.9875 37.6626 18.1789 33.8473 17.472L33.3008 20.4218C36.3945 20.995 38.3925 22.3979 39.7288 24.2647L42.1683 22.5186ZM45.3857 35.2446C45.3857 30.3608 44.5424 25.8354 42.1683 22.5186L39.7288 24.2647C41.5684 26.8348 42.3857 30.6125 42.3857 35.2446H45.3857ZM42.1649 47.9708C44.5402 44.654 45.3857 40.1287 45.3857 35.2446H42.3857C42.3857 39.8757 41.5666 43.6537 39.7258 46.2241L42.1649 47.9708ZM30 53.3481C35.8664 53.3481 39.7627 51.3251 42.1649 47.9708L39.7258 46.2241C37.9937 48.6428 35.0979 50.3481 30 50.3481V53.3481ZM17.835 47.9708C20.2372 51.3251 24.1335 53.3481 30 53.3481V50.3481C24.9021 50.3481 22.0062 48.6428 20.2741 46.2241L17.835 47.9708ZM14.6142 35.2446C14.6142 40.1287 15.4598 44.654 17.835 47.9708L20.2741 46.2241C18.4333 43.6537 17.6142 39.8757 17.6142 35.2446H14.6142ZM17.8317 22.5186C15.4575 25.8354 14.6142 30.3608 14.6142 35.2446H17.6142C17.6142 30.6125 18.4315 26.8348 20.2711 24.2647L17.8317 22.5186ZM26.0286 17.4955C22.2776 18.2185 19.6229 20.0161 17.8317 22.5186L20.2711 24.2647C21.5934 22.4175 23.5624 21.0261 26.5964 20.4412L26.0286 17.4955Z" fill="#F8F9FA" mask="url(#path-1-outside-1_50_9515)"/>
<path fill-rule="evenodd" clip-rule="evenodd" d="M29.9331 13.0636C30.6147 11.6797 32.4796 9.24497 35.0521 9.57064C34.4615 10.6414 33.263 13.0567 33.1938 14.152C34.3894 13.7307 37.4549 13.3621 40.1515 15.2578C38.106 15.5913 33.6778 16.8692 32.3295 19.3126L30 19.6164V19.6339L29.933 19.6251L29.8663 19.6339V19.6164L27.5367 19.3126C26.1884 16.8692 21.7603 15.5914 19.7147 15.2579C22.4114 13.3621 25.4768 13.7307 26.6724 14.152C26.6033 13.0567 25.4047 10.6414 24.8141 9.57067C27.3866 9.245 29.2515 11.6797 29.9331 13.0636Z" fill="#40C057"/>
<path d="M35.0521 9.57067L35.7526 9.95706C35.8807 9.72491 35.8854 9.4444 35.7652 9.20807C35.645 8.97174 35.4156 8.8103 35.1526 8.777L35.0521 9.57067ZM29.9331 13.0636L29.2154 13.4171C29.3501 13.6905 29.6284 13.8636 29.9331 13.8636C30.2379 13.8636 30.5161 13.6905 30.6508 13.4171L29.9331 13.0636ZM33.1938 14.152L32.3954 14.1016C32.3785 14.3696 32.4971 14.6281 32.7112 14.7901C32.9254 14.952 33.2065 14.9958 33.4597 14.9066L33.1938 14.152ZM40.1515 15.2579L40.2802 16.0474C40.6012 15.9951 40.8585 15.7537 40.9312 15.4368C41.004 15.1198 40.8776 14.7904 40.6116 14.6034L40.1515 15.2579ZM32.3295 19.3126L32.433 20.1059C32.6853 20.073 32.907 19.922 33.0299 19.6991L32.3295 19.3126ZM30 19.6164L29.8965 18.8232C29.498 18.8751 29.2 19.2146 29.2 19.6164H30ZM30 19.6339L29.8965 20.4272C30.1248 20.457 30.3548 20.3869 30.5278 20.235C30.7008 20.0832 30.8 19.8641 30.8 19.6339H30ZM29.933 19.6252L30.0365 18.8319C29.9678 18.8229 29.8982 18.8229 29.8296 18.8319L29.933 19.6252ZM29.8663 19.6339H29.0663C29.0663 19.8641 29.1654 20.0831 29.3384 20.235C29.5114 20.3869 29.7414 20.4569 29.9697 20.4272L29.8663 19.6339ZM29.8663 19.6165H30.6663C30.6663 19.2146 30.3682 18.8751 29.9697 18.8232L29.8663 19.6165ZM27.5367 19.3126L26.8363 19.6992C26.9592 19.922 27.1809 20.073 27.4333 20.1059L27.5367 19.3126ZM19.7147 15.2579L19.2546 14.6034C18.9886 14.7904 18.8623 15.1199 18.935 15.4368C19.0077 15.7537 19.265 15.9951 19.586 16.0475L19.7147 15.2579ZM26.6724 14.152L26.4065 14.9066C26.6598 14.9958 26.9408 14.9521 27.155 14.7901C27.3691 14.6281 27.4877 14.3696 27.4708 14.1016L26.6724 14.152ZM24.8141 9.57069L24.7136 8.77702C24.4506 8.81032 24.2212 8.97177 24.101 9.20809C23.9808 9.44442 23.9856 9.72493 24.1136 9.95708L24.8141 9.57069ZM35.1526 8.777C33.5711 8.57679 32.2449 9.23514 31.2658 10.0661C30.2916 10.893 29.5931 11.9432 29.2154 12.7102L30.6508 13.4171C30.9546 12.8001 31.5295 11.941 32.3012 11.286C33.0681 10.6351 33.9606 10.2389 34.9516 10.3643L35.1526 8.777ZM33.9922 14.2024C34.003 14.0325 34.0648 13.754 34.1899 13.3758C34.3108 13.01 34.4753 12.5963 34.6605 12.1724C35.0309 11.3246 35.4667 10.4753 35.7526 9.95706L34.3516 9.18427C34.0469 9.73674 33.5881 10.6305 33.1943 11.5318C32.9974 11.9825 32.8124 12.445 32.6707 12.8736C32.5331 13.2898 32.4193 13.7239 32.3954 14.1016L33.9922 14.2024ZM40.6116 14.6034C37.6449 12.5178 34.2912 12.9172 32.928 13.3975L33.4597 14.9066C34.4877 14.5443 37.2649 14.2065 39.6914 15.9123L40.6116 14.6034ZM33.0299 19.6991C33.5709 18.7188 34.8052 17.8776 36.2984 17.2276C37.759 16.5917 39.3117 16.2053 40.2802 16.0474L40.0228 14.4683C38.9457 14.6439 37.2617 15.0632 35.6597 15.7605C34.0904 16.4437 32.4364 17.4631 31.6291 18.9261L33.0299 19.6991ZM30.1034 20.4097L32.433 20.1059L32.226 18.5193L29.8965 18.8232L30.1034 20.4097ZM29.2 19.6164V19.6339H30.8V19.6164H29.2ZM30.1034 18.8406L30.0365 18.8319L29.8296 20.4184L29.8965 20.4272L30.1034 18.8406ZM29.9697 20.4272L30.0365 20.4184L29.8296 18.8319L29.7628 18.8406L29.9697 20.4272ZM29.0663 19.6165V19.6339H30.6663V19.6165H29.0663ZM29.9697 18.8232L27.6402 18.5194L27.4333 20.1059L29.7628 20.4097L29.9697 18.8232ZM28.2371 18.9261C27.4298 17.4631 25.7758 16.4437 24.2065 15.7605C22.6046 15.0632 20.9205 14.6439 19.8435 14.4683L19.586 16.0475C20.5545 16.2054 22.1073 16.5918 23.5679 17.2276C25.0611 17.8776 26.2953 18.7188 26.8363 19.6992L28.2371 18.9261ZM20.1748 15.9123C22.6014 14.2065 25.3785 14.5444 26.4065 14.9066L26.9383 13.3975C25.575 12.9172 22.2214 12.5178 19.2546 14.6034L20.1748 15.9123ZM27.4708 14.1016C27.447 13.7239 27.3331 13.2898 27.1955 12.8736C27.0538 12.445 26.8688 11.9825 26.6719 11.5319C26.2781 10.6306 25.8194 9.73676 25.5146 9.1843L24.1136 9.95708C24.3995 10.4754 24.8353 11.3246 25.2057 12.1724C25.3909 12.5964 25.5554 13.01 25.6764 13.3758C25.8014 13.754 25.8633 14.0325 25.874 14.2024L27.4708 14.1016ZM24.9146 10.3644C25.9056 10.2389 26.7981 10.6351 27.565 11.286C28.3368 11.941 28.9116 12.8001 29.2154 13.4171L30.6508 12.7102C30.2731 11.9432 29.5746 10.893 28.6004 10.0661C27.6213 9.23515 26.2951 8.57682 24.7136 8.77702L24.9146 10.3644Z" fill="#212529"/>
<path d="M44.7857 35.273C44.7857 44.9399 41.4247 52.7764 30 52.7764C18.5753 52.7764 15.2142 44.9399 15.2142 35.273C15.2142 25.6061 18.5666 17.7695 30 17.7695C41.4334 17.7695 44.7857 25.6061 44.7857 35.273Z" fill="#FFE066" stroke="#212529" stroke-width="1.8" stroke-linecap="round" stroke-linejoin="round"/>
<g style="mix-blend-mode:multiply">
<path fill-rule="evenodd" clip-rule="evenodd" d="M29.6502 51.9866C38.494 51.4592 41.8178 44.8661 42.5925 36.6244C43.4581 27.4156 40.8222 19.6367 29.4389 18.5667C29.1666 18.5411 28.8984 18.5202 28.6344 18.5039C28.8771 18.4968 29.1237 18.4932 29.3741 18.4932C40.8075 18.4932 44.1598 25.9913 44.1598 35.2406C44.1598 44.4151 40.853 51.8665 29.6502 51.9866Z" fill="#FFE066"/>
</g>
<g style="mix-blend-mode:soft-light" opacity="0.8">
<path fill-rule="evenodd" clip-rule="evenodd" d="M30.4974 51.9866C21.6536 51.4592 18.3298 44.8661 17.5551 36.6244C16.6895 27.4156 19.3254 19.6367 30.7086 18.5667C30.981 18.5411 31.2492 18.5202 31.5132 18.5039C31.2705 18.4968 31.0239 18.4932 30.7735 18.4932C19.3401 18.4932 15.9878 25.9913 15.9878 35.2406C15.9878 44.4151 19.2946 51.8665 30.4974 51.9866Z" fill="#F8F9FA"/>
</g>
<path d="M20.7405 28.4327C21.6845 28.3125 22.9585 27.4286 22.9997 26.3164C23.2056 26.9 23.9248 28.3459 25.4078 28.3459" stroke="#212529" stroke-width="1.6" stroke-linecap="round" stroke-linejoin="round"/>
<path d="M19.0758 35.2727C20.1654 35.1341 21.6359 34.1138 21.6834 32.8301C21.9212 33.5036 22.7513 35.1726 24.4629 35.1726" stroke="#212529" stroke-width="1.6" stroke-linecap="round" stroke-linejoin="round"/>
<path d="M20.7405 42.6272C21.7046 42.5045 23.0058 41.6017 23.0478 40.4658C23.2582 41.0618 23.9927 42.5386 25.5072 42.5386" stroke="#212529" stroke-width="1.6" stroke-linecap="round" stroke-linejoin="round"/>
<path d="M34.4564 42.0321C35.3925 41.9129 36.6558 41.0365 36.6966 39.9336C36.9009 40.5122 37.614 41.946 39.0845 41.946" stroke="#212529" stroke-width="1.6" stroke-linecap="round" stroke-linejoin="round"/>
<path d="M34.7644 35.4046C35.854 35.2659 37.3245 34.2457 37.372 32.9619C37.6098 33.6355 38.4399 35.3044 40.1515 35.3044" stroke="#212529" stroke-width="1.6" stroke-linecap="round" stroke-linejoin="round"/>
<path d="M27.3064 25.013C28.396 24.8743 29.8665 23.8541 29.914 22.5703C30.1518 23.2439 30.9819 24.9128 32.6935 24.9128" stroke="#212529" stroke-width="1.6" stroke-linecap="round" stroke-linejoin="round"/>
<path d="M34.4171 28.4327C35.3611 28.3125 36.6351 27.4286 36.6763 26.3164C36.8823 26.9 37.6015 28.3459 39.0844 28.3459" stroke="#212529" stroke-width="1.6" stroke-linecap="round" stroke-linejoin="round"/>
<path d="M27.8027 32.1546C28.8923 32.0159 30.3628 30.9957 30.4104 29.7119C30.6481 30.3855 31.4782 32.0544 33.1899 32.0544" stroke="#212529" stroke-width="1.6" stroke-linecap="round" stroke-linejoin="round"/>
<g style="mix-blend-mode:multiply" opacity="0.5">
<path fill-rule="evenodd" clip-rule="evenodd" d="M36.9736 26.3256C37.3533 26.2678 37.7206 26.488 37.8484 26.8502C37.9454 27.1251 38.1673 27.6069 38.5257 28.0052C38.8744 28.3927 39.3089 28.659 39.8735 28.659C40.3153 28.659 40.6735 29.0172 40.6735 29.459C40.6735 29.9008 40.3153 30.259 39.8735 30.259C38.7265 30.259 37.8901 29.6908 37.3363 29.0754C37.2821 29.0152 37.2302 28.9541 37.1805 28.8925C37.0309 29.0721 36.8671 29.2341 36.6988 29.377C36.0871 29.8964 35.3058 30.2613 34.5874 30.3527C34.1491 30.4085 33.7485 30.0984 33.6928 29.6601C33.637 29.2218 33.9471 28.8213 34.3854 28.7655C34.7565 28.7183 35.2553 28.5037 35.6631 28.1574C36.073 27.8094 36.282 27.4255 36.2946 27.0869C36.3088 26.703 36.5938 26.3834 36.9736 26.3256Z" fill="#FFE066"/>
</g>
<g style="mix-blend-mode:multiply" opacity="0.5">
<path fill-rule="evenodd" clip-rule="evenodd" d="M30.29 30.018C30.6697 29.9601 31.037 30.1804 31.1648 30.5426C31.2618 30.8175 31.4837 31.2993 31.8421 31.6976C32.1908 32.0851 32.6253 32.3514 33.1899 32.3514C33.6317 32.3514 33.9899 32.7095 33.9899 33.1514C33.9899 33.5932 33.6317 33.9514 33.1899 33.9514C32.0429 33.9514 31.2065 33.3832 30.6527 32.7678C30.5985 32.7076 30.5466 32.6464 30.4969 32.5849C30.3473 32.7644 30.1835 32.9265 30.0152 33.0694C29.4035 33.5888 28.6222 33.9537 27.9038 34.0451C27.4655 34.1009 27.065 33.7908 27.0092 33.3525C26.9534 32.9142 27.2635 32.5137 27.7018 32.4579C28.0729 32.4107 28.5717 32.1961 28.9795 31.8498C29.3894 31.5017 29.5984 31.1179 29.611 30.7792C29.6252 30.3954 29.9102 30.0758 30.29 30.018Z" fill="#FFE066"/>
</g>
<g style="mix-blend-mode:multiply" opacity="0.5">
<path fill-rule="evenodd" clip-rule="evenodd" d="M22.3631 33.393C22.7428 33.3351 23.1101 33.5554 23.2379 33.9176C23.335 34.1925 23.5568 34.6743 23.9152 35.0726C24.2639 35.4601 24.6984 35.7264 25.263 35.7264C25.7049 35.7264 26.063 36.0845 26.063 36.5264C26.063 36.9682 25.7049 37.3264 25.263 37.3264C24.116 37.3264 23.2796 36.7582 22.7259 36.1428C22.6716 36.0826 22.6197 36.0214 22.5701 35.9599C22.4204 36.1394 22.2566 36.3015 22.0883 36.4444C21.4766 36.9638 20.6954 37.3287 19.9769 37.4201C19.5386 37.4759 19.1381 37.1658 19.0823 36.7275C19.0265 36.2892 19.3366 35.8887 19.7749 35.8329C20.146 35.7857 20.6448 35.5711 21.0527 35.2248C21.4625 34.8767 21.6715 34.4929 21.6841 34.1542C21.6983 33.7704 21.9833 33.4508 22.3631 33.393Z" fill="#FFE066"/>
</g>
<g style="mix-blend-mode:multiply" opacity="0.5">
<path fill-rule="evenodd" clip-rule="evenodd" d="M36.1908 39.3051C36.5706 39.2472 36.9378 39.4675 37.0657 39.8297C37.1627 40.1046 37.3846 40.5864 37.743 40.9847C38.0917 41.3722 38.5261 41.6385 39.0908 41.6385C39.5326 41.6385 39.8908 41.9966 39.8908 42.4385C39.8908 42.8803 39.5326 43.2385 39.0908 43.2385C37.9438 43.2385 37.1074 42.6703 36.5536 42.0549C36.4994 41.9947 36.4475 41.9336 36.3978 41.872C36.2482 42.0516 36.0844 42.2136 35.9161 42.3565C35.3043 42.8759 34.5231 43.2408 33.8046 43.3322C33.3664 43.388 32.9658 43.0779 32.9101 42.6396C32.8543 42.2013 33.1644 41.8008 33.6027 41.745C33.9738 41.6978 34.4726 41.4832 34.8804 41.1369C35.2903 40.7889 35.4993 40.405 35.5118 40.0664C35.5261 39.6825 35.8111 39.3629 36.1908 39.3051Z" fill="#FFE066"/>
</g>
<path d="M27.3064 39.2962C28.396 39.1575 29.8665 38.1373 29.914 36.8535C30.1518 37.5271 30.9819 39.196 32.6935 39.196" stroke="#212529" stroke-width="1.6" stroke-linecap="round" stroke-linejoin="round"/>
<path d="M28.2991 47.8235C29.3887 47.6849 30.8592 46.6646 30.9067 45.3809C31.1444 46.0544 31.9746 47.7234 33.6862 47.7234" stroke="#212529" stroke-width="1.6" stroke-linecap="round" stroke-linejoin="round"/>
<g style="mix-blend-mode:multiply" opacity="0.4">
<path d="M37.8172 14.9941C37.0742 15.2143 35.7165 15.7358 35.114 15.9876C34.6052 16.2002 33.8407 16.7397 33.2801 17.1168L32.3477 16.9817C32.9582 16.4933 34.0717 15.6747 35.0509 15.1438L35.0849 14.88C35.0575 14.7826 35.0321 14.6896 35.114 14.6533C35.3637 14.5427 36.0613 14.6899 36.2593 14.6533C36.2593 14.6533 36.7541 14.7068 37.0647 14.7756C37.3635 14.8418 37.8172 14.9941 37.8172 14.9941Z" fill="#40C057"/>
</g>
</svg>
