<svg width="60" height="60" viewBox="0 0 60 60" fill="none" xmlns="http://www.w3.org/2000/svg">
<g clip-path="url(#clip0_50_11338)">
<mask id="path-1-outside-1_50_11338" maskUnits="userSpaceOnUse" x="-3.76431" y="-3.61749" width="67.1751" height="67.1751" fill="black">
<rect fill="white" x="-3.76431" y="-3.61749" width="67.1751" height="67.1751"/>
<path fill-rule="evenodd" clip-rule="evenodd" d="M48.8671 11.7058C48.8227 11.5422 48.7341 11.3976 48.6146 11.2854C48.5023 11.1654 48.3574 11.0764 48.1933 11.0319C48.1106 11.0095 48.0265 10.9992 47.9431 11.0006C46.0981 10.5664 43.2892 10.3379 40.234 10.65C37.0557 10.9748 33.5362 11.8921 30.5233 13.8431C28.5334 15.1317 26.4704 16.7699 24.5061 18.6103C24.1283 18.4696 23.7156 18.329 23.2834 18.2026C21.9322 17.8074 20.2396 17.5042 18.8177 17.9133C18.0526 18.1334 17.1661 18.7828 16.3193 19.5187C15.4397 20.2833 14.4889 21.2452 13.5819 22.2247C11.766 24.1856 10.0789 26.2679 9.41158 27.1056C8.83875 27.8246 9.45072 28.8145 10.3032 28.7246C11.2191 28.6281 13.1493 28.4654 14.4763 28.6128C15.0137 28.6725 15.6389 28.7756 16.2545 28.8914C15.7456 29.8192 15.3078 30.743 14.9563 31.6513C14.8277 31.9837 14.9073 32.3606 15.1593 32.6125L21.2434 38.6967L21.2496 38.7028L27.2865 44.7398C27.5385 44.9917 27.9154 45.0713 28.2478 44.9427C29.1802 44.5818 30.129 44.1301 31.0817 43.6037C31.2084 44.2645 31.3229 44.9451 31.3872 45.5239C31.5347 46.8509 31.3719 48.7811 31.2754 49.697C31.1856 50.5495 32.1754 51.1614 32.8945 50.5886C33.7322 49.9213 35.8144 48.2342 37.7754 46.4183C38.7548 45.5113 39.7168 44.5605 40.4813 43.6809C41.2173 42.8341 41.8666 41.9476 42.0868 41.1825C42.4959 39.7605 42.1927 38.068 41.7975 36.7168C41.6543 36.227 41.4928 35.7623 41.3336 35.3451C43.1558 33.3951 44.7779 31.3495 46.056 29.3757C48.007 26.3629 48.9243 22.8434 49.2491 19.665C49.5612 16.6097 49.3327 13.8007 48.8984 11.9556C48.8998 11.8724 48.8895 11.7884 48.8671 11.7058ZM40.5384 33.5507C42.0812 31.8463 43.4507 30.0874 44.5451 28.3973C46.2953 25.6945 47.1526 22.4746 47.4584 19.482C47.7349 16.7757 47.5542 14.3162 47.2159 12.6832C45.5829 12.3449 43.1234 12.1642 40.417 12.4407C37.4244 12.7465 34.2045 13.6037 31.5017 15.354C29.8019 16.4547 28.0326 17.8336 26.319 19.3872C26.3224 19.3889 26.3258 19.3906 26.3292 19.3922C26.9219 19.6834 27.0481 20.4281 26.6639 20.9076L20.0611 29.1483C19.8184 29.4512 19.4224 29.5868 19.0444 29.4951C18.8703 29.453 18.5332 29.3725 18.1032 29.2759C17.6194 30.1162 17.1992 30.9483 16.8539 31.7616L22.51 37.4176L22.5162 37.4238L28.1375 43.0451C28.9731 42.6904 29.8285 42.2565 30.6923 41.7559C30.61 41.3934 30.5424 41.1103 30.5049 40.9558C30.4133 40.5778 30.5488 40.1818 30.8518 39.9391L39.0925 33.3363C39.5375 32.9797 40.2112 33.0628 40.5384 33.5507ZM32.9161 40.3353L37.1524 36.941C37.0666 37.0188 36.9806 37.0963 36.8943 37.1734C35.5995 38.3308 34.2594 39.4 32.9161 40.3353ZM32.5419 42.7414C34.4362 41.5522 36.32 40.1011 38.0939 38.5154C38.776 37.9057 39.4443 37.2739 40.0931 36.6267C40.1514 36.8018 40.2081 36.9821 40.2618 37.1659C40.6399 38.4586 40.8261 39.7773 40.5492 40.7401C40.4369 41.1302 40.0129 41.7808 39.2737 42.6313C38.5631 43.4489 37.6481 44.3555 36.6883 45.2443C35.3691 46.4659 33.9891 47.6319 32.9871 48.4551C33.0503 47.4845 33.0837 46.3032 32.9774 45.3472C32.8892 44.553 32.7162 43.5967 32.5419 42.7414ZM18.9876 27.837C19.0089 27.842 19.0296 27.8469 19.0498 27.8516L24.1804 21.4483C23.6844 21.9561 23.1984 22.4759 22.7256 23.0048C21.3229 24.574 20.0498 26.2097 18.9876 27.837ZM23.2214 19.8572C23.0945 19.8164 22.9653 19.7765 22.8343 19.7382C21.5416 19.3601 20.2228 19.1739 19.2601 19.4509C18.87 19.5632 18.2194 19.9872 17.3689 20.7264C16.5513 21.437 15.6447 22.3519 14.7558 23.3118C13.5343 24.631 12.3683 26.011 11.5451 27.013C12.5157 26.9498 13.697 26.9164 14.653 27.0226C15.4023 27.1059 16.2959 27.2646 17.1129 27.4286C18.3103 25.5102 19.778 23.6014 21.3836 21.8052C21.9773 21.141 22.592 20.4899 23.2214 19.8572ZM16.133 36.932C16.5235 37.3225 16.5235 37.9557 16.133 38.3462L12.6844 41.7948C12.2939 42.1853 11.6607 42.1853 11.2702 41.7948C10.8797 41.4043 10.8797 40.7711 11.2702 40.3806L14.7188 36.932C15.1093 36.5414 15.7425 36.5414 16.133 36.932ZM19.5852 41.8098C19.9789 41.4224 19.984 40.7893 19.5966 40.3956C19.2093 40.0019 18.5761 39.9968 18.1825 40.3842L11.276 47.18C10.8823 47.5674 10.8772 48.2005 11.2646 48.5942C11.6519 48.9879 12.2851 48.993 12.6787 48.6056L19.5852 41.8098ZM22.9382 43.7371C23.3287 44.1276 23.3287 44.7608 22.9382 45.1513L19.4896 48.5999C19.099 48.9904 18.4659 48.9904 18.0754 48.5999C17.6848 48.2094 17.6848 47.5762 18.0754 47.1857L21.524 43.7371C21.9145 43.3466 22.5477 43.3466 22.9382 43.7371Z"/>
</mask>
<path fill-rule="evenodd" clip-rule="evenodd" d="M48.8671 11.7058C48.8227 11.5422 48.7341 11.3976 48.6146 11.2854C48.5023 11.1654 48.3574 11.0764 48.1933 11.0319C48.1106 11.0095 48.0265 10.9992 47.9431 11.0006C46.0981 10.5664 43.2892 10.3379 40.234 10.65C37.0557 10.9748 33.5362 11.8921 30.5233 13.8431C28.5334 15.1317 26.4704 16.7699 24.5061 18.6103C24.1283 18.4696 23.7156 18.329 23.2834 18.2026C21.9322 17.8074 20.2396 17.5042 18.8177 17.9133C18.0526 18.1334 17.1661 18.7828 16.3193 19.5187C15.4397 20.2833 14.4889 21.2452 13.5819 22.2247C11.766 24.1856 10.0789 26.2679 9.41158 27.1056C8.83875 27.8246 9.45072 28.8145 10.3032 28.7246C11.2191 28.6281 13.1493 28.4654 14.4763 28.6128C15.0137 28.6725 15.6389 28.7756 16.2545 28.8914C15.7456 29.8192 15.3078 30.743 14.9563 31.6513C14.8277 31.9837 14.9073 32.3606 15.1593 32.6125L21.2434 38.6967L21.2496 38.7028L27.2865 44.7398C27.5385 44.9917 27.9154 45.0713 28.2478 44.9427C29.1802 44.5818 30.129 44.1301 31.0817 43.6037C31.2084 44.2645 31.3229 44.9451 31.3872 45.5239C31.5347 46.8509 31.3719 48.7811 31.2754 49.697C31.1856 50.5495 32.1754 51.1614 32.8945 50.5886C33.7322 49.9213 35.8144 48.2342 37.7754 46.4183C38.7548 45.5113 39.7168 44.5605 40.4813 43.6809C41.2173 42.8341 41.8666 41.9476 42.0868 41.1825C42.4959 39.7605 42.1927 38.068 41.7975 36.7168C41.6543 36.227 41.4928 35.7623 41.3336 35.3451C43.1558 33.3951 44.7779 31.3495 46.056 29.3757C48.007 26.3629 48.9243 22.8434 49.2491 19.665C49.5612 16.6097 49.3327 13.8007 48.8984 11.9556C48.8998 11.8724 48.8895 11.7884 48.8671 11.7058ZM40.5384 33.5507C42.0812 31.8463 43.4507 30.0874 44.5451 28.3973C46.2953 25.6945 47.1526 22.4746 47.4584 19.482C47.7349 16.7757 47.5542 14.3162 47.2159 12.6832C45.5829 12.3449 43.1234 12.1642 40.417 12.4407C37.4244 12.7465 34.2045 13.6037 31.5017 15.354C29.8019 16.4547 28.0326 17.8336 26.319 19.3872C26.3224 19.3889 26.3258 19.3906 26.3292 19.3922C26.9219 19.6834 27.0481 20.4281 26.6639 20.9076L20.0611 29.1483C19.8184 29.4512 19.4224 29.5868 19.0444 29.4951C18.8703 29.453 18.5332 29.3725 18.1032 29.2759C17.6194 30.1162 17.1992 30.9483 16.8539 31.7616L22.51 37.4176L22.5162 37.4238L28.1375 43.0451C28.9731 42.6904 29.8285 42.2565 30.6923 41.7559C30.61 41.3934 30.5424 41.1103 30.5049 40.9558C30.4133 40.5778 30.5488 40.1818 30.8518 39.9391L39.0925 33.3363C39.5375 32.9797 40.2112 33.0628 40.5384 33.5507ZM32.9161 40.3353L37.1524 36.941C37.0666 37.0188 36.9806 37.0963 36.8943 37.1734C35.5995 38.3308 34.2594 39.4 32.9161 40.3353ZM32.5419 42.7414C34.4362 41.5522 36.32 40.1011 38.0939 38.5154C38.776 37.9057 39.4443 37.2739 40.0931 36.6267C40.1514 36.8018 40.2081 36.9821 40.2618 37.1659C40.6399 38.4586 40.8261 39.7773 40.5492 40.7401C40.4369 41.1302 40.0129 41.7808 39.2737 42.6313C38.5631 43.4489 37.6481 44.3555 36.6883 45.2443C35.3691 46.4659 33.9891 47.6319 32.9871 48.4551C33.0503 47.4845 33.0837 46.3032 32.9774 45.3472C32.8892 44.553 32.7162 43.5967 32.5419 42.7414ZM18.9876 27.837C19.0089 27.842 19.0296 27.8469 19.0498 27.8516L24.1804 21.4483C23.6844 21.9561 23.1984 22.4759 22.7256 23.0048C21.3229 24.574 20.0498 26.2097 18.9876 27.837ZM23.2214 19.8572C23.0945 19.8164 22.9653 19.7765 22.8343 19.7382C21.5416 19.3601 20.2228 19.1739 19.2601 19.4509C18.87 19.5632 18.2194 19.9872 17.3689 20.7264C16.5513 21.437 15.6447 22.3519 14.7558 23.3118C13.5343 24.631 12.3683 26.011 11.5451 27.013C12.5157 26.9498 13.697 26.9164 14.653 27.0226C15.4023 27.1059 16.2959 27.2646 17.1129 27.4286C18.3103 25.5102 19.778 23.6014 21.3836 21.8052C21.9773 21.141 22.592 20.4899 23.2214 19.8572ZM16.133 36.932C16.5235 37.3225 16.5235 37.9557 16.133 38.3462L12.6844 41.7948C12.2939 42.1853 11.6607 42.1853 11.2702 41.7948C10.8797 41.4043 10.8797 40.7711 11.2702 40.3806L14.7188 36.932C15.1093 36.5414 15.7425 36.5414 16.133 36.932ZM19.5852 41.8098C19.9789 41.4224 19.984 40.7893 19.5966 40.3956C19.2093 40.0019 18.5761 39.9968 18.1825 40.3842L11.276 47.18C10.8823 47.5674 10.8772 48.2005 11.2646 48.5942C11.6519 48.9879 12.2851 48.993 12.6787 48.6056L19.5852 41.8098ZM22.9382 43.7371C23.3287 44.1276 23.3287 44.7608 22.9382 45.1513L19.4896 48.5999C19.099 48.9904 18.4659 48.9904 18.0754 48.5999C17.6848 48.2094 17.6848 47.5762 18.0754 47.1857L21.524 43.7371C21.9145 43.3466 22.5477 43.3466 22.9382 43.7371Z" fill="#F8F9FA"/>
<path d="M48.6145 11.2854L47.5196 12.3106C47.5415 12.3341 47.5643 12.3568 47.5877 12.3789L48.6145 11.2854ZM48.8671 11.7058L50.3147 11.313L50.3147 11.313L48.8671 11.7058ZM48.1932 11.0319L48.586 9.58425L48.586 9.58425L48.1932 11.0319ZM47.9431 11.0006L47.5995 12.4607C47.72 12.4891 47.8435 12.5024 47.9673 12.5004L47.9431 11.0006ZM40.234 10.65L40.0815 9.15779L40.0815 9.15779L40.234 10.65ZM30.5233 13.8431L31.3386 15.1022L31.3386 15.1022L30.5233 13.8431ZM24.506 18.6103L23.9824 20.0159C24.516 20.2147 25.1161 20.0942 25.5316 19.7049L24.506 18.6103ZM23.2834 18.2026L23.7044 16.7629L23.7044 16.7629L23.2834 18.2026ZM18.8177 17.9133L18.4029 16.4718L18.4029 16.4718L18.8177 17.9133ZM16.3193 19.5187L15.3353 18.3866L15.3353 18.3866L16.3193 19.5187ZM13.5818 22.2247L12.4812 21.2055L13.5818 22.2247ZM9.41152 27.1056L10.5847 28.0402L10.5847 28.0402L9.41152 27.1056ZM10.3032 28.7246L10.146 27.2329L10.146 27.2329L10.3032 28.7246ZM14.4763 28.6128L14.6419 27.122L14.6419 27.122L14.4763 28.6128ZM16.2545 28.8914L17.5696 29.6129C17.8007 29.1916 17.816 28.685 17.6106 28.2505C17.4053 27.816 17.0042 27.5062 16.5319 27.4173L16.2545 28.8914ZM14.9563 31.6513L16.3552 32.1927L16.3552 32.1927L14.9563 31.6513ZM15.1592 32.6125L16.2199 31.5519L15.1592 32.6125ZM21.2433 38.6967L20.1826 39.7573L20.1878 39.7624L21.2433 38.6967ZM21.2495 38.7028L22.3102 37.6421L22.305 37.637L21.2495 38.7028ZM28.2477 44.9427L27.7063 43.5438L27.7063 43.5438L28.2477 44.9427ZM31.0816 43.6037L32.5547 43.3212C32.4642 42.8493 32.1532 42.4494 31.7181 42.2455C31.2831 42.0416 30.7767 42.0585 30.3561 42.2908L31.0816 43.6037ZM31.3872 45.5239L32.878 45.3582L32.878 45.3582L31.3872 45.5239ZM31.2754 49.697L32.7671 49.8541L32.7671 49.8541L31.2754 49.697ZM32.8944 50.5886L33.8291 51.7618L33.8291 51.7618L32.8944 50.5886ZM37.7753 46.4183L38.7945 47.5189L38.7945 47.5189L37.7753 46.4183ZM40.4813 43.6809L39.3491 42.6969L39.3491 42.6969L40.4813 43.6809ZM42.0867 41.1825L40.6452 40.7677L40.6452 40.7677L42.0867 41.1825ZM41.7974 36.7168L43.2371 36.2957L43.2371 36.2957L41.7974 36.7168ZM41.3335 35.3451L40.2375 34.3209C39.8463 34.7396 39.7278 35.3446 39.9321 35.8799L41.3335 35.3451ZM46.0559 29.3757L44.7969 28.5604L44.7969 28.5604L46.0559 29.3757ZM49.249 19.665L50.7412 19.8175L50.7412 19.8175L49.249 19.665ZM48.8984 11.9556L47.3986 11.9319C47.3966 12.0555 47.41 12.1789 47.4383 12.2993L48.8984 11.9556ZM40.5384 33.5507L39.2926 34.3862C39.5498 34.7697 39.9693 35.0133 40.4298 35.0468C40.8903 35.0802 41.3406 34.8996 41.6505 34.5573L40.5384 33.5507ZM44.5451 28.3973L45.8041 29.2126L45.8041 29.2126L44.5451 28.3973ZM47.4583 19.482L45.9661 19.3296L45.9661 19.3296L47.4583 19.482ZM47.2159 12.6832L48.6847 12.3789C48.5634 11.7933 48.1058 11.3357 47.5201 11.2144L47.2159 12.6832ZM40.4169 12.4407L40.2645 10.9485L40.2645 10.9485L40.4169 12.4407ZM31.5016 15.354L30.6863 14.0949L30.6863 14.0949L31.5016 15.354ZM26.3189 19.3872L25.3114 18.276C24.9431 18.6099 24.7642 19.1046 24.8336 19.5969C24.9031 20.0891 25.212 20.515 25.6583 20.7339L26.3189 19.3872ZM26.3291 19.3922L25.6678 20.7386L25.6678 20.7386L26.3291 19.3922ZM26.6639 20.9076L25.4933 19.9697L25.4933 19.9697L26.6639 20.9076ZM20.0611 29.1483L21.2317 30.0862L21.2317 30.0862L20.0611 29.1483ZM19.0444 29.4951L19.3977 28.0374L19.3977 28.0374L19.0444 29.4951ZM18.1032 29.2759L18.4323 27.8124C17.7912 27.6683 17.131 27.958 16.8032 28.5274L18.1032 29.2759ZM16.8539 31.7616L15.4731 31.1755C15.2342 31.7384 15.3608 32.3899 15.7932 32.8223L16.8539 31.7616ZM22.5099 37.4176L21.4492 38.4783L21.4543 38.4834L22.5099 37.4176ZM22.5161 37.4238L23.5768 36.3632L23.5717 36.3581L22.5161 37.4238ZM28.1374 43.0451L27.0767 44.1058C27.5091 44.5381 28.1606 44.6648 28.7235 44.4259L28.1374 43.0451ZM30.6923 41.7559L31.4444 43.0537C32.0125 42.7244 32.3005 42.0639 32.155 41.4235L30.6923 41.7559ZM30.5049 40.9558L31.9626 40.6024L31.9626 40.6024L30.5049 40.9558ZM30.8517 39.9391L29.9138 38.7685L29.9138 38.7685L30.8517 39.9391ZM39.0924 33.3363L40.0303 34.5069L40.0303 34.5069L39.0924 33.3363ZM32.916 40.3353L31.9781 39.1647C31.3469 39.6704 31.2303 40.5855 31.7145 41.2333C32.1987 41.8811 33.1094 42.0284 33.7731 41.5663L32.916 40.3353ZM37.1523 36.941L38.1601 38.052C38.7605 37.5074 38.8196 36.5844 38.2936 35.9677C37.7677 35.3509 36.8469 35.2636 36.2144 35.7704L37.1523 36.941ZM36.8942 37.1734L37.8939 38.2918L37.8939 38.2918L36.8942 37.1734ZM38.0938 38.5154L39.0935 39.6338L39.0935 39.6338L38.0938 38.5154ZM32.5418 42.7414L31.7444 41.471C31.2152 41.8032 30.9473 42.4286 31.072 43.0408L32.5418 42.7414ZM40.093 36.6267L41.5162 36.1529C41.3521 35.6598 40.9444 35.2869 40.4388 35.1671C39.9331 35.0473 39.4015 35.1977 39.0336 35.5647L40.093 36.6267ZM40.2618 37.1659L41.7015 36.7448L41.7015 36.7448L40.2618 37.1659ZM40.5491 40.7401L39.1076 40.3253L39.1076 40.3253L40.5491 40.7401ZM39.2736 42.6313L40.4058 43.6153L40.4058 43.6153L39.2736 42.6313ZM36.6882 45.2443L35.669 44.1437L35.669 44.1437L36.6882 45.2443ZM32.987 48.4551L31.4902 48.3577C31.4514 48.9542 31.7704 49.5168 32.3023 49.7897C32.8342 50.0626 33.4773 49.9936 33.9392 49.6141L32.987 48.4551ZM32.9774 45.3472L31.4866 45.5128L31.4866 45.5128L32.9774 45.3472ZM18.9876 27.837L17.7314 27.0172C17.464 27.4269 17.4132 27.9413 17.5954 28.3955C17.7775 28.8496 18.1697 29.1863 18.6461 29.2977L18.9876 27.837ZM19.0498 27.8516L18.7069 29.3119C19.2699 29.4441 19.8587 29.2409 20.2204 28.7895L19.0498 27.8516ZM24.1804 21.4483L25.351 22.3862C25.8511 21.762 25.7735 20.8552 25.1746 20.3251C24.5756 19.7949 23.6661 19.828 23.1073 20.4002L24.1804 21.4483ZM22.7255 23.0048L21.6072 22.0051L21.6072 22.0051L22.7255 23.0048ZM23.2213 19.8572L24.2847 20.9151C24.6528 20.545 24.8021 20.0103 24.6789 19.5031C24.5557 18.9959 24.1777 18.5892 23.6809 18.4293L23.2213 19.8572ZM22.8342 19.7382L22.4131 21.1779L22.4131 21.1779L22.8342 19.7382ZM19.2601 19.4509L19.6748 20.8924L19.6748 20.8924L19.2601 19.4509ZM17.3689 20.7264L18.3528 21.8585L18.3528 21.8585L17.3689 20.7264ZM14.7558 23.3118L13.6552 22.2926L13.6552 22.2926L14.7558 23.3118ZM11.545 27.013L10.386 26.0608C10.0065 26.5227 9.93753 27.1658 10.2104 27.6977C10.4833 28.2296 11.0459 28.5486 11.6424 28.5098L11.545 27.013ZM14.6529 27.0226L14.8186 25.5318L14.8186 25.5318L14.6529 27.0226ZM17.1128 27.4286L16.8176 28.8993C17.43 29.0223 18.0546 28.7528 18.3853 28.2229L17.1128 27.4286ZM21.3835 21.8052L20.2652 20.8055L20.2652 20.8055L21.3835 21.8052ZM19.5966 40.3956L18.5274 41.4477L18.5274 41.4477L19.5966 40.3956ZM19.5852 41.8098L18.5331 40.7406L18.5331 40.7406L19.5852 41.8098ZM18.1824 40.3842L17.1303 39.315L17.1303 39.315L18.1824 40.3842ZM11.2759 47.18L12.328 48.2492L12.328 48.2492L11.2759 47.18ZM12.6787 48.6056L13.7307 49.6748L13.7307 49.6748L12.6787 48.6056ZM47.5877 12.3789C47.5084 12.3043 47.449 12.2077 47.4194 12.0986L50.3147 11.313C50.1963 10.8766 49.9596 10.4908 49.6414 10.1919L47.5877 12.3789ZM47.8004 12.4795C47.691 12.4499 47.5942 12.3903 47.5196 12.3106L49.7095 10.2602C49.4103 9.94063 49.0236 9.70299 48.586 9.58425L47.8004 12.4795ZM47.9673 12.5004C47.9114 12.5013 47.8551 12.4944 47.8004 12.4795L48.586 9.58425C48.366 9.52454 48.1414 9.49719 47.9189 9.50078L47.9673 12.5004ZM40.3864 12.1423C43.2956 11.845 45.9354 12.0691 47.5995 12.4607L48.2867 9.54048C46.2607 9.06368 43.2826 8.83074 40.0815 9.15779L40.3864 12.1423ZM31.3386 15.1022C34.0931 13.3185 37.3628 12.4512 40.3864 12.1423L40.0815 9.15779C36.7484 9.49834 32.9791 10.4657 29.708 12.584L31.3386 15.1022ZM25.5316 19.7049C27.4408 17.9161 29.4341 16.3354 31.3386 15.1022L29.708 12.584C27.6325 13.928 25.4999 15.6236 23.4805 17.5157L25.5316 19.7049ZM22.8623 19.6422C23.2545 19.7569 23.6326 19.8856 23.9824 20.0159L25.0297 17.2047C24.6239 17.0535 24.1766 16.901 23.7044 16.7629L22.8623 19.6422ZM19.2324 19.3548C20.2242 19.0695 21.5666 19.2633 22.8623 19.6422L23.7044 16.7629C22.2977 16.3514 20.255 15.9389 18.4029 16.4718L19.2324 19.3548ZM17.3033 20.6509C18.1519 19.9133 18.818 19.474 19.2324 19.3548L18.4029 16.4718C17.2871 16.7928 16.1801 17.6523 15.3353 18.3866L17.3033 20.6509ZM14.6824 23.2439C15.5724 22.2828 16.4818 21.3649 17.3033 20.6509L15.3353 18.3866C14.3975 19.2017 13.4052 20.2077 12.4812 21.2055L14.6824 23.2439ZM10.5847 28.0402C11.2438 27.2129 12.904 25.1643 14.6824 23.2439L12.4812 21.2055C10.6279 23.207 8.91386 25.3229 8.2383 26.1709L10.5847 28.0402ZM10.146 27.2329C10.3699 27.2093 10.5459 27.3366 10.6224 27.4694C10.6632 27.5401 10.6932 27.6366 10.6873 27.7513C10.681 27.8752 10.6345 27.9778 10.5847 28.0402L8.2383 26.1709C6.76787 28.0167 8.39454 30.434 10.4603 30.2164L10.146 27.2329ZM14.6419 27.122C13.1332 26.9544 11.0525 27.1374 10.146 27.2329L10.4603 30.2164C11.3856 30.1189 13.1653 29.9764 14.3106 30.1037L14.6419 27.122ZM16.5319 27.4173C15.8994 27.2983 15.2327 27.1877 14.6419 27.122L14.3106 30.1037C14.7946 30.1574 15.3784 30.2529 15.977 30.3655L16.5319 27.4173ZM16.3552 32.1927C16.6794 31.355 17.0876 30.4914 17.5696 29.6129L14.9394 28.17C14.4034 29.1469 13.9362 30.1311 13.5574 31.1099L16.3552 32.1927ZM16.2199 31.5519C16.3879 31.7199 16.4409 31.9712 16.3552 32.1927L13.5574 31.1099C13.2144 31.9962 13.4266 33.0013 14.0985 33.6732L16.2199 31.5519ZM22.304 37.636L16.2199 31.5519L14.0985 33.6732L20.1827 39.7573L22.304 37.636ZM22.305 37.637L22.2988 37.6309L20.1878 39.7624L20.194 39.7685L22.305 37.637ZM28.3471 43.6791L22.3102 37.6421L20.1888 39.7634L26.2258 45.8004L28.3471 43.6791ZM27.7063 43.5438C27.9279 43.4581 28.1792 43.5111 28.3471 43.6791L26.2258 45.8004C26.8978 46.4724 27.9029 46.6846 28.7891 46.3416L27.7063 43.5438ZM30.3561 42.2908C29.4536 42.7895 28.5664 43.211 27.7063 43.5438L28.7891 46.3416C29.7939 45.9527 30.8044 45.4707 31.807 44.9167L30.3561 42.2908ZM29.6084 43.8863C29.732 44.5307 29.8383 45.1674 29.8963 45.6895L32.878 45.3582C32.8074 44.7228 32.6846 43.9984 32.5547 43.3212L29.6084 43.8863ZM29.8963 45.6895C30.0236 46.8349 29.8811 48.6145 29.7836 49.5398L32.7671 49.8541C32.8626 48.9476 33.0456 46.8669 32.878 45.3582L29.8963 45.6895ZM29.7836 49.5398C29.566 51.6056 31.9833 53.2323 33.8291 51.7618L31.9598 49.4154C32.0222 49.3656 32.1248 49.3191 32.2487 49.3128C32.3634 49.3069 32.4599 49.3369 32.5306 49.3777C32.6634 49.4542 32.7907 49.6302 32.7671 49.8541L29.7836 49.5398ZM33.8291 51.7618C34.6771 51.0863 36.793 49.3722 38.7945 47.5189L36.7562 45.3177C34.8357 47.0961 32.7871 48.7563 31.9598 49.4154L33.8291 51.7618ZM38.7945 47.5189C39.7923 46.5949 40.7983 45.6027 41.6134 44.6649L39.3491 42.6969C38.6351 43.5184 37.7172 44.4277 36.7561 45.3177L38.7945 47.5189ZM41.6134 44.6649C42.3477 43.82 43.2072 42.7131 43.5282 41.5972L40.6452 40.7677C40.526 41.1821 40.0867 41.8482 39.3491 42.6969L41.6134 44.6649ZM43.5282 41.5972C44.0611 39.7451 43.6486 37.7024 43.2371 36.2957L40.3578 37.1378C40.7367 38.4335 40.9305 39.776 40.6452 40.7677L43.5282 41.5972ZM43.2371 36.2957C43.0807 35.7608 42.9057 35.2577 42.7349 34.8102L39.9321 35.8799C40.0798 36.2669 40.2277 36.6933 40.3578 37.1378L43.2371 36.2957ZM44.7969 28.5604C43.5737 30.4494 42.0086 32.4257 40.2375 34.3209L42.4295 36.3692C44.3029 34.3644 45.9819 32.2496 47.315 30.191L44.7969 28.5604ZM47.7568 19.5125C47.4478 22.5361 46.5805 25.8059 44.7969 28.5604L47.315 30.191C49.4333 26.9198 50.4007 23.1506 50.7412 19.8175L47.7568 19.5125ZM47.4383 12.2993C47.8299 13.9633 48.054 16.6032 47.7568 19.5125L50.7412 19.8175C51.0683 16.6162 50.8353 13.638 50.3585 11.612L47.4383 12.2993ZM47.4194 12.0986C47.4046 12.0439 47.3977 11.9877 47.3986 11.9319L50.3982 11.9793C50.4017 11.7571 50.3744 11.5328 50.3147 11.313L47.4194 12.0986ZM41.6505 34.5573C43.2391 32.8022 44.6597 30.9799 45.8041 29.2126L43.286 27.582C42.2415 29.195 40.9233 30.8903 39.4263 32.5441L41.6505 34.5573ZM45.8041 29.2126C47.7216 26.2515 48.629 22.7819 48.9505 19.6345L45.9661 19.3296C45.6762 22.1674 44.8689 25.1375 43.286 27.582L45.8041 29.2126ZM48.9505 19.6345C49.2415 16.787 49.0563 14.1728 48.6847 12.3789L45.7471 12.9874C46.052 14.4595 46.2282 16.7644 45.9661 19.3296L48.9505 19.6345ZM47.5201 11.2144C45.7262 10.8427 43.112 10.6575 40.2645 10.9485L40.5694 13.9329C43.1346 13.6709 45.4396 13.8471 46.9116 14.152L47.5201 11.2144ZM40.2645 10.9485C37.117 11.27 33.6475 12.1774 30.6863 14.0949L32.317 16.613C34.7615 15.0301 37.7316 14.2229 40.5694 13.9329L40.2645 10.9485ZM30.6863 14.0949C28.9089 15.2459 27.0758 16.6762 25.3114 18.276L27.3264 20.4985C28.9892 18.9909 30.6947 17.6635 32.317 16.613L30.6863 14.0949ZM25.6583 20.7339C25.662 20.7357 25.6649 20.7372 25.6678 20.7386L26.9905 18.0459C26.9866 18.044 26.9827 18.0421 26.9795 18.0405L25.6583 20.7339ZM25.6678 20.7386C25.5242 20.6681 25.4231 20.5262 25.3931 20.379C25.3656 20.2446 25.3945 20.0929 25.4933 19.9697L27.8344 21.8455C28.7821 20.6627 28.4964 18.7856 26.9904 18.0459L25.6678 20.7386ZM25.4933 19.9697L18.8905 28.2103L21.2317 30.0862L27.8344 21.8455L25.4933 19.9697ZM18.8905 28.2103C19.0113 28.0595 19.2091 27.9917 19.3977 28.0374L18.691 30.9529C19.6355 31.1819 20.6253 30.8429 21.2317 30.0862L18.8905 28.2103ZM19.3977 28.0374C19.2172 27.9936 18.8718 27.9112 18.4323 27.8124L17.7741 30.7393C18.1945 30.8338 18.5234 30.9123 18.691 30.9529L19.3977 28.0374ZM16.8032 28.5274C16.2937 29.4124 15.8452 30.2988 15.4731 31.1755L18.2346 32.3477C18.553 31.5977 18.945 30.8199 19.4031 30.0243L16.8032 28.5274ZM15.7932 32.8223L21.4492 38.4783L23.5706 36.357L17.9145 30.701L15.7932 32.8223ZM21.4543 38.4834L21.4606 38.4895L23.5717 36.3581L23.5655 36.3519L21.4543 38.4834ZM21.4555 38.4845L27.0767 44.1058L29.1981 41.9844L23.5768 36.3632L21.4555 38.4845ZM28.7235 44.4259C29.6242 44.0435 30.5351 43.5807 31.4444 43.0537L29.9401 40.4581C29.1218 40.9324 28.3219 41.3372 27.5513 41.6643L28.7235 44.4259ZM29.0471 41.3091C29.0831 41.4579 29.149 41.7339 29.2295 42.0882L32.155 41.4235C32.0708 41.0529 32.0015 40.7628 31.9626 40.6024L29.0471 41.3091ZM29.9138 38.7685C29.1571 39.3748 28.8181 40.3646 29.0471 41.3091L31.9626 40.6024C32.0083 40.791 31.9405 40.9888 31.7897 41.1096L29.9138 38.7685ZM38.1545 32.1657L29.9138 38.7685L31.7896 41.1097L40.0303 34.5069L38.1545 32.1657ZM41.7841 32.7152C40.9467 31.4666 39.2555 31.2835 38.1545 32.1657L40.0303 34.5069C39.8194 34.6758 39.4756 34.6591 39.2926 34.3862L41.7841 32.7152ZM33.854 41.5059L38.0903 38.1116L36.2144 35.7704L31.9781 39.1647L33.854 41.5059ZM37.8939 38.2918C37.9829 38.2122 38.0717 38.1322 38.1601 38.052L36.1445 35.83C36.0614 35.9054 35.9781 35.9804 35.8945 36.0551L37.8939 38.2918ZM33.7731 41.5663C35.1714 40.5928 36.5588 39.4851 37.8939 38.2918L35.8945 36.0551C34.64 37.1765 33.3474 38.2072 32.059 39.1043L33.7731 41.5663ZM37.0941 37.3971C35.3722 38.9363 33.5556 40.334 31.7444 41.471L33.3393 44.0118C35.3168 42.7705 37.2676 41.2658 39.0935 39.6338L37.0941 37.3971ZM39.0336 35.5647C38.4039 36.193 37.7555 36.8059 37.0941 37.3971L39.0935 39.6338C39.7964 39.0054 40.4846 38.3548 41.1524 37.6886L39.0336 35.5647ZM38.6698 37.1005C38.7228 37.2596 38.7739 37.4223 38.8221 37.587L41.7015 36.7448C41.6421 36.5419 41.5799 36.3441 41.5162 36.1529L38.6698 37.1005ZM38.8221 37.587C39.1844 38.8256 39.2606 39.7935 39.1076 40.3253L41.9906 41.1548C42.3916 39.7612 42.0954 38.0915 41.7015 36.7448L38.8221 37.587ZM39.1076 40.3253C39.1156 40.2975 39.0828 40.4051 38.8995 40.6793C38.7319 40.93 38.4831 41.2543 38.1415 41.6473L40.4058 43.6153C40.8034 43.1578 41.1362 42.7315 41.3934 42.3468C41.635 41.9855 41.8704 41.5727 41.9906 41.1548L39.1076 40.3253ZM38.1415 41.6473C37.4814 42.4067 36.6106 43.2719 35.669 44.1437L37.7074 46.3449C38.6856 45.4391 39.6446 44.491 40.4058 43.6153L38.1415 41.6473ZM35.669 44.1437C34.3799 45.3375 33.0248 46.4828 32.0348 47.2961L33.9392 49.6141C34.9533 48.781 36.3582 47.5943 37.7074 46.3449L35.669 44.1437ZM34.4839 48.5525C34.5485 47.5602 34.5894 46.2724 34.4682 45.1815L31.4866 45.5128C31.5778 46.334 31.552 47.4088 31.4902 48.3577L34.4839 48.5525ZM34.4682 45.1815C34.3725 44.3198 34.1888 43.3113 34.0117 42.4419L31.072 43.0408C31.2434 43.882 31.4058 44.7863 31.4866 45.5128L34.4682 45.1815ZM18.6461 29.2977C18.667 29.3025 18.6872 29.3073 18.7069 29.3119L19.3926 26.3913C19.3719 26.3865 19.3507 26.3815 19.329 26.3764L18.6461 29.2977ZM20.2204 28.7895L25.351 22.3862L23.0098 20.5104L17.8792 26.9137L20.2204 28.7895ZM23.1073 20.4002C22.5961 20.9236 22.095 21.4595 21.6072 22.0051L23.8439 24.0045C24.3016 23.4924 24.7726 22.9887 25.2535 22.4963L23.1073 20.4002ZM21.6072 22.0051C20.1615 23.6225 18.8406 25.3179 17.7314 27.0172L20.2437 28.6569C21.2589 27.1015 22.4842 25.5255 23.8439 24.0045L21.6072 22.0051ZM23.6809 18.4293C23.542 18.3846 23.4 18.3408 23.2553 18.2985L22.4131 21.1779C22.5305 21.2122 22.6469 21.2481 22.7617 21.285L23.6809 18.4293ZM23.2553 18.2985C21.9086 17.9046 20.239 17.6084 18.8453 18.0094L19.6748 20.8924C20.2066 20.7394 21.1745 20.8156 22.4131 21.1779L23.2553 18.2985ZM18.8453 18.0094C18.4274 18.1296 18.0146 18.365 17.6534 18.6066C17.2686 18.8638 16.8423 19.1966 16.3849 19.5942L18.3528 21.8585C18.7458 21.5169 19.0701 21.2681 19.3208 21.1005C19.595 20.9172 19.7026 20.8844 19.6748 20.8924L18.8453 18.0094ZM16.3849 19.5942C15.5091 20.3554 14.561 21.3144 13.6552 22.2926L15.8564 24.331C16.7283 23.3894 17.5934 22.5186 18.3528 21.8585L16.3849 19.5942ZM13.6552 22.2926C12.4058 23.6418 11.2191 25.0467 10.386 26.0608L12.704 27.9652C13.5173 26.9752 14.6626 25.6201 15.8564 24.331L13.6552 22.2926ZM11.6424 28.5098C12.5914 28.448 13.6661 28.4222 14.4873 28.5134L14.8186 25.5318C13.7277 25.4106 12.4399 25.4515 11.4476 25.5161L11.6424 28.5098ZM14.4873 28.5134C15.1718 28.5895 16.0156 28.7383 16.8176 28.8993L17.4081 25.958C16.5762 25.791 15.6326 25.6222 14.8186 25.5318L14.4873 28.5134ZM18.3853 28.2229C19.5298 26.3892 20.9432 24.5486 22.5019 22.8049L20.2652 20.8055C18.6127 22.6543 17.0906 24.6313 15.8404 26.6344L18.3853 28.2229ZM22.5019 22.8049C23.0775 22.1609 23.6738 21.5292 24.2847 20.9151L22.1579 18.7993C21.51 19.4506 20.8771 20.1211 20.2652 20.8055L22.5019 22.8049ZM17.1936 39.4068C18.1699 38.4305 18.1699 36.8476 17.1936 35.8713L15.0723 37.9926C14.877 37.7974 14.877 37.4808 15.0723 37.2855L17.1936 39.4068ZM13.745 42.8555L17.1936 39.4068L15.0723 37.2855L11.6237 40.7341L13.745 42.8555ZM10.2095 42.8555C11.1858 43.8318 12.7687 43.8318 13.745 42.8555L11.6237 40.7341C11.8189 40.5389 12.1355 40.5389 12.3308 40.7341L10.2095 42.8555ZM10.2095 39.3199C9.23315 40.2962 9.23314 41.8791 10.2095 42.8555L12.3308 40.7341C12.526 40.9294 12.526 41.246 12.3308 41.4412L10.2095 39.3199ZM13.6581 35.8713L10.2095 39.3199L12.3308 41.4412L15.7794 37.9926L13.6581 35.8713ZM17.1936 35.8713C16.2173 34.895 14.6344 34.895 13.6581 35.8713L15.7794 37.9926C15.5841 38.1879 15.2676 38.1879 15.0723 37.9926L17.1936 35.8713ZM18.5274 41.4477C18.3337 41.2508 18.3363 40.9342 18.5331 40.7406L20.6372 42.8789C21.6214 41.9106 21.6342 40.3277 20.6658 39.3435L18.5274 41.4477ZM19.2345 41.4534C19.0376 41.647 18.7211 41.6445 18.5274 41.4477L20.6658 39.3435C19.6974 38.3594 18.1145 38.3466 17.1303 39.315L19.2345 41.4534ZM12.328 48.2492L19.2345 41.4534L17.1303 39.315L10.2239 46.1108L12.328 48.2492ZM12.3337 47.5421C12.5274 47.739 12.5248 48.0555 12.328 48.2492L10.2239 46.1108C9.23971 47.0792 9.22693 48.6621 10.1953 49.6463L12.3337 47.5421ZM11.6266 47.5364C11.8234 47.3427 12.14 47.3453 12.3337 47.5421L10.1953 49.6463C11.1637 50.6304 12.7466 50.6432 13.7307 49.6748L11.6266 47.5364ZM18.5331 40.7406L11.6266 47.5364L13.7307 49.6748L20.6372 42.8789L18.5331 40.7406ZM23.9988 46.2119C24.9751 45.2356 24.9751 43.6527 23.9988 42.6764L21.8775 44.7977C21.6822 44.6025 21.6822 44.2859 21.8775 44.0906L23.9988 46.2119ZM20.5502 49.6606L23.9988 46.2119L21.8775 44.0906L18.4288 47.5392L20.5502 49.6606ZM17.0146 49.6606C17.9909 50.6369 19.5739 50.6369 20.5502 49.6606L18.4288 47.5392C18.6241 47.344 18.9407 47.344 19.136 47.5392L17.0146 49.6606ZM17.0146 46.125C16.0383 47.1013 16.0383 48.6843 17.0146 49.6606L19.136 47.5392C19.3312 47.7345 19.3312 48.0511 19.136 48.2464L17.0146 46.125ZM20.4633 42.6764L17.0146 46.125L19.136 48.2464L22.5846 44.7977L20.4633 42.6764ZM23.9988 42.6764C23.0225 41.7001 21.4396 41.7001 20.4633 42.6764L22.5846 44.7977C22.3893 44.993 22.0727 44.993 21.8775 44.7977L23.9988 42.6764Z" fill="#F8F9FA" mask="url(#path-1-outside-1_50_11338)"/>
<path d="M19.0474 18.6819C21.7928 17.892 26.1994 20.2182 26.1994 20.2182L19.3652 28.7477C19.3652 28.7477 16.4678 28.028 14.5731 27.8175C12.6785 27.607 9.74541 27.9838 9.74541 27.9838C9.74541 27.9838 16.4006 19.4434 19.0474 18.6819Z" fill="#9775FA" stroke="#212529" stroke-width="1.6" stroke-linecap="round" stroke-linejoin="round"/>
<path d="M41.3266 40.9612C42.1165 38.2158 39.7902 33.8091 39.7902 33.8091L31.2607 40.6433C31.2607 40.6433 31.9804 43.5408 32.1909 45.4354C32.4014 47.3301 32.0246 50.2631 32.0246 50.2631C32.0246 50.2631 40.565 43.6079 41.3266 40.9612Z" fill="#9775FA" stroke="#212529" stroke-width="1.6" stroke-linecap="round" stroke-linejoin="round"/>
<path d="M15.4344 37.6387L11.9858 41.0873" stroke="#212529" stroke-width="2" stroke-linecap="round" stroke-linejoin="round"/>
<path d="M18.8923 41.0967L11.9859 47.8925" stroke="#212529" stroke-width="2" stroke-linecap="round" stroke-linejoin="round"/>
<path d="M22.2396 44.4434L18.791 47.892" stroke="#212529" stroke-width="2" stroke-linecap="round" stroke-linejoin="round"/>
<path fill-rule="evenodd" clip-rule="evenodd" d="M48.0066 11.9421C48.8961 15.3522 49.0724 23.1747 45.3488 28.925C41.4524 34.9421 34.2204 41.7234 27.9711 44.1419L21.889 38.0597L21.8882 38.0604L15.8041 31.9763C18.2226 25.7271 25.0039 18.4951 31.021 14.5987C36.7713 10.8751 44.5938 11.0514 48.0039 11.9409L48.0058 11.939C48.006 11.9399 48.0062 11.9407 48.0065 11.9415C48.0066 11.9416 48.0068 11.9416 48.007 11.9417L48.0066 11.9421Z" fill="#FFE3E3"/>
<path d="M45.3488 28.925L44.5933 28.4358L44.5933 28.4358L45.3488 28.925ZM48.0066 11.9421L47.3702 11.3057C47.1443 11.5315 47.0551 11.8602 47.1357 12.1692L48.0066 11.9421ZM27.9711 44.1419L27.3347 44.7783C27.5867 45.0303 27.9636 45.1098 28.296 44.9812L27.9711 44.1419ZM21.889 38.0597L22.5254 37.4233C22.3566 37.2545 22.1277 37.1597 21.889 37.1597C21.6503 37.1597 21.4213 37.2545 21.2526 37.4233L21.889 38.0597ZM21.8882 38.0604L21.2518 38.6968C21.4206 38.8656 21.6495 38.9604 21.8882 38.9604C22.1269 38.9604 22.3558 38.8656 22.5246 38.6968L21.8882 38.0604ZM15.8041 31.9763L14.9648 31.6515C14.8362 31.9838 14.9158 32.3608 15.1677 32.6127L15.8041 31.9763ZM31.021 14.5987L30.5318 13.8433L31.021 14.5987ZM48.0039 11.9409L47.7768 12.8117C48.0858 12.8924 48.4145 12.8031 48.6403 12.5773L48.0039 11.9409ZM48.0058 11.939L48.8766 11.7118C48.7952 11.3996 48.5529 11.155 48.2416 11.0705C47.9302 10.9859 47.5975 11.0745 47.3694 11.3026L48.0058 11.939ZM48.0065 11.9415L47.1356 12.1689C47.2179 12.4839 47.4638 12.7299 47.7787 12.8123L48.0065 11.9415ZM48.007 11.9417L48.6434 12.5781C48.8714 12.35 48.96 12.0174 48.8756 11.7062C48.7913 11.3949 48.5468 11.1526 48.2348 11.071L48.007 11.9417ZM46.1042 29.4142C48.0669 26.3832 48.9836 22.8393 49.3031 19.6456C49.6222 16.456 49.3532 13.5389 48.8775 11.7149L47.1357 12.1692C47.5495 13.7554 47.8134 16.4546 47.5121 19.4664C47.2112 22.474 46.3542 25.7166 44.5933 28.4358L46.1042 29.4142ZM28.296 44.9812C31.5576 43.719 35.02 41.3448 38.1421 38.554C41.2701 35.7579 44.107 32.4984 46.1042 29.4142L44.5933 28.4358C42.6941 31.3688 39.9669 34.5085 36.9425 37.212C33.9122 39.9207 30.6339 42.1463 27.6463 43.3026L28.296 44.9812ZM21.2526 38.6961L27.3347 44.7783L28.6075 43.5055L22.5254 37.4233L21.2526 38.6961ZM21.2526 37.4233L21.2518 37.424L22.5246 38.6968L22.5254 38.6961L21.2526 37.4233ZM22.5246 37.424L16.4405 31.3399L15.1677 32.6127L21.2518 38.6968L22.5246 37.424ZM16.6435 32.3012C17.7997 29.3135 20.0253 26.0353 22.7341 23.005C25.4375 19.9806 28.5773 17.2534 31.5102 15.3542L30.5318 13.8433C27.4476 15.8405 24.1881 18.6774 21.3921 21.8054C18.6012 24.9275 16.227 28.3899 14.9648 31.6515L16.6435 32.3012ZM31.5102 15.3542C34.2295 13.5933 37.472 12.7363 40.4796 12.4354C43.4914 12.1341 46.1906 12.398 47.7768 12.8117L48.2311 11.07C46.4071 10.5943 43.49 10.3253 40.3004 10.6444C37.1067 10.9639 33.5628 11.8805 30.5318 13.8433L31.5102 15.3542ZM47.3694 11.3026L47.3675 11.3045L48.6403 12.5773L48.6422 12.5754L47.3694 11.3026ZM48.8773 11.7142C48.877 11.713 48.8768 11.7126 48.8766 11.7118L47.135 12.1663C47.1352 12.1671 47.1355 12.1684 47.1356 12.1689L48.8773 11.7142ZM47.7787 12.8123L47.7792 12.8124L48.2348 11.071L48.2342 11.0708L47.7787 12.8123ZM47.3706 11.3053L47.3702 11.3057L48.643 12.5785L48.6434 12.5781L47.3706 11.3053Z" fill="#212529"/>
<path d="M32.4633 41.5031L18.1473 27.2797C16.6431 29.2478 16.111 30.7661 15.895 32.0003L27.8045 43.848C29.4397 43.4778 31.6037 42.2533 32.4633 41.5031Z" fill="#FFE066" stroke="#212529" stroke-width="1.4" stroke-linecap="round" stroke-linejoin="round"/>
<path d="M47.6668 22.1914L37.6754 12.2C39.9359 11.4403 44.1883 10.9998 47.8922 11.9347C48.566 13.5882 49.0686 17.9544 47.6668 22.1914Z" fill="#FA5252" stroke="#212529" stroke-width="1.4" stroke-linecap="round" stroke-linejoin="round"/>
<circle cx="36.9329" cy="23.0753" r="3.96235" transform="rotate(45 36.9329 23.0753)" fill="#BAC8FF" stroke="#212529" stroke-width="1.2" stroke-linejoin="round"/>
<path d="M31.3292 28.6797L28.9921 31.0168" stroke="#212529" stroke-width="1.2" stroke-linecap="round" stroke-linejoin="round"/>
<g style="mix-blend-mode:multiply">
<path fill-rule="evenodd" clip-rule="evenodd" d="M47.1257 11.7111C47.7128 15.5653 47.4506 22.2135 44.1804 27.2635C40.284 33.2806 33.052 40.0619 26.8028 42.4804L21.5796 37.2572L21.1975 37.6393L27.2816 43.7234C33.5309 41.3049 40.7629 34.5236 44.6593 28.5065C48.384 22.7545 48.2065 14.929 47.3163 11.5205L47.1257 11.7111Z" fill="#E9ECEF"/>
</g>
</g>
<defs>
<clipPath id="clip0_50_11338">
<rect width="60" height="60" fill="white"/>
</clipPath>
</defs>
</svg>
