<svg width="60" height="61" viewBox="0 0 60 61" fill="none" xmlns="http://www.w3.org/2000/svg">
<path d="M13.1335 30.3913C13.1335 21.0763 20.6849 13.5249 30 13.5249C39.315 13.5249 46.8664 21.0763 46.8664 30.3913C46.8664 39.7064 39.315 47.2577 30 47.2577C20.6849 47.2577 13.1335 39.7064 13.1335 30.3913ZM30 10.0249C18.7519 10.0249 9.63354 19.1433 9.63354 30.3913C9.63354 41.6394 18.7519 50.7577 30 50.7577C41.248 50.7577 50.3664 41.6394 50.3664 30.3913C50.3664 19.1433 41.248 10.0249 30 10.0249Z" fill="#F8F9FA" stroke="#F8F9FA" stroke-width="1.5" stroke-linecap="round" stroke-linejoin="round"/>
<circle cx="30" cy="30.3913" r="18.6164" fill="#FFD43B" stroke="#212529" stroke-width="2" stroke-linecap="round" stroke-linejoin="round"/>
<g style="mix-blend-mode:multiply">
<path fill-rule="evenodd" clip-rule="evenodd" d="M27.9342 47.344C37.7565 47.344 45.719 39.3815 45.719 29.5593C45.719 22.4787 41.5811 16.3645 35.5917 13.5029C42.6744 15.8468 47.7847 22.522 47.7847 30.3908C47.7847 40.213 39.8222 48.1755 30 48.1755C27.2583 48.1755 24.6616 47.5552 22.3425 46.4472C24.1009 47.029 25.9808 47.344 27.9342 47.344Z" fill="#FFD43B"/>
</g>
<g style="mix-blend-mode:soft-light" opacity="0.8">
<path d="M20.9719 19.1419C21.733 18.3678 20.8191 17.6249 19.9634 17.8212C19.2458 17.9858 17.4804 19.6543 16.5909 21.3403C15.7014 23.0262 17.0362 23.7713 17.5534 23.1624C18.0705 22.5536 20.0206 20.1096 20.9719 19.1419Z" fill="#F8F9FA"/>
</g>
<path d="M22.5866 30.5576C24.7574 30.5576 26.5172 28.8249 26.5172 26.6875C26.5172 24.5501 24.7574 22.8174 22.5866 22.8174C20.4158 22.8174 18.656 24.5501 18.656 26.6875C18.656 28.8249 20.4158 30.5576 22.5866 30.5576Z" fill="white" stroke="white" stroke-width="3.52941"/>
<path d="M22.5866 27.0747C24.0338 27.0747 25.207 25.9196 25.207 24.4946C25.207 23.0697 24.0338 21.9146 22.5866 21.9146C21.1394 21.9146 19.9662 23.0697 19.9662 24.4946C19.9662 25.9196 21.1394 27.0747 22.5866 27.0747Z" fill="#212529"/>
<path d="M38.3089 30.5576C40.4797 30.5576 42.2394 28.8249 42.2394 26.6875C42.2394 24.5501 40.4797 22.8174 38.3089 22.8174C36.1381 22.8174 34.3783 24.5501 34.3783 26.6875C34.3783 28.8249 36.1381 30.5576 38.3089 30.5576Z" fill="white" stroke="white" stroke-width="3.52941"/>
<path d="M38.3089 27.0747C39.7561 27.0747 40.9292 25.9196 40.9292 24.4946C40.9292 23.0697 39.7561 21.9146 38.3089 21.9146C36.8617 21.9146 35.6885 23.0697 35.6885 24.4946C35.6885 25.9196 36.8617 27.0747 38.3089 27.0747Z" fill="#212529"/>
<path d="M38.2892 37.4017C35.9778 36.1109 33.2303 35.5581 30 38.8683" stroke="#212529" stroke-width="1.99919" stroke-linecap="round"/>
</svg>
