<svg width="60" height="61" viewBox="0 0 60 61" fill="none" xmlns="http://www.w3.org/2000/svg">
<g clip-path="url(#clip0_50_2405)">
<mask id="path-1-outside-1_50_2405" maskUnits="userSpaceOnUse" x="7.75696" y="8.98047" width="44" height="44" fill="black">
<rect fill="white" x="7.75696" y="8.98047" width="44" height="44"/>
<path fill-rule="evenodd" clip-rule="evenodd" d="M9.75696 16.1805C9.75696 13.3086 12.0851 10.9805 14.957 10.9805H44.5929C47.4648 10.9805 49.7929 13.3086 49.7929 16.1805V45.8164C49.7929 48.6883 47.4648 51.0164 44.5929 51.0164H14.957C12.0851 51.0164 9.75696 48.6883 9.75696 45.8164V16.1805ZM14.957 13.3805C13.4106 13.3805 12.157 14.6341 12.157 16.1805V45.8164C12.157 47.3628 13.4106 48.6164 14.957 48.6164H44.5929C46.1393 48.6164 47.3929 47.3628 47.3929 45.8164V16.1805C47.3929 14.6341 46.1393 13.3805 44.5929 13.3805H14.957Z"/>
</mask>
<path fill-rule="evenodd" clip-rule="evenodd" d="M9.75696 16.1805C9.75696 13.3086 12.0851 10.9805 14.957 10.9805H44.5929C47.4648 10.9805 49.7929 13.3086 49.7929 16.1805V45.8164C49.7929 48.6883 47.4648 51.0164 44.5929 51.0164H14.957C12.0851 51.0164 9.75696 48.6883 9.75696 45.8164V16.1805ZM14.957 13.3805C13.4106 13.3805 12.157 14.6341 12.157 16.1805V45.8164C12.157 47.3628 13.4106 48.6164 14.957 48.6164H44.5929C46.1393 48.6164 47.3929 47.3628 47.3929 45.8164V16.1805C47.3929 14.6341 46.1393 13.3805 44.5929 13.3805H14.957Z" fill="#F8F9FA"/>
<path d="M14.957 9.48047C11.2567 9.48047 8.25696 12.4802 8.25696 16.1805H11.257C11.257 14.137 12.9135 12.4805 14.957 12.4805V9.48047ZM44.5929 9.48047H14.957V12.4805H44.5929V9.48047ZM51.2929 16.1805C51.2929 12.4802 48.2932 9.48047 44.5929 9.48047V12.4805C46.6364 12.4805 48.2929 14.137 48.2929 16.1805H51.2929ZM51.2929 45.8164V16.1805H48.2929V45.8164H51.2929ZM44.5929 52.5164C48.2932 52.5164 51.2929 49.5168 51.2929 45.8164H48.2929C48.2929 47.8599 46.6364 49.5164 44.5929 49.5164V52.5164ZM14.957 52.5164H44.5929V49.5164H14.957V52.5164ZM8.25696 45.8164C8.25696 49.5168 11.2566 52.5164 14.957 52.5164V49.5164C12.9135 49.5164 11.257 47.8599 11.257 45.8164H8.25696ZM8.25696 16.1805V45.8164H11.257V16.1805H8.25696ZM13.657 16.1805C13.657 15.4625 14.239 14.8805 14.957 14.8805V11.8805C12.5821 11.8805 10.657 13.8056 10.657 16.1805H13.657ZM13.657 45.8164V16.1805H10.657V45.8164H13.657ZM14.957 47.1164C14.239 47.1164 13.657 46.5344 13.657 45.8164H10.657C10.657 48.1913 12.5821 50.1164 14.957 50.1164V47.1164ZM44.5929 47.1164H14.957V50.1164H44.5929V47.1164ZM45.8929 45.8164C45.8929 46.5344 45.3109 47.1164 44.5929 47.1164V50.1164C46.9678 50.1164 48.8929 48.1913 48.8929 45.8164H45.8929ZM45.8929 16.1805V45.8164H48.8929V16.1805H45.8929ZM44.5929 14.8805C45.3109 14.8805 45.8929 15.4625 45.8929 16.1805H48.8929C48.8929 13.8056 46.9678 11.8805 44.5929 11.8805V14.8805ZM14.957 14.8805H44.5929V11.8805H14.957V14.8805Z" fill="#F8F9FA" mask="url(#path-1-outside-1_50_2405)"/>
<rect x="10.957" y="12.1804" width="37.636" height="37.636" rx="4" fill="#FFC078" stroke="#212529" stroke-width="2.4" stroke-linecap="round" stroke-linejoin="round"/>
<g style="mix-blend-mode:multiply">
<path fill-rule="evenodd" clip-rule="evenodd" d="M11.5194 47.4665C12.1741 48.7832 13.533 49.688 15.1032 49.688H44.7392C46.9484 49.688 48.7392 47.8971 48.7392 45.688V16.052C48.7392 14.3131 47.6297 12.8334 46.08 12.2822V45.4665C46.08 46.5711 45.1845 47.4665 44.08 47.4665H11.5194Z" fill="#DEE2E6"/>
</g>
<path d="M19.0148 33.8506C21.3036 33.6013 23.6808 34.354 25.4355 36.1087C27.1902 37.8635 27.9429 40.2407 27.6937 42.5295" stroke="#212529" stroke-width="2.4" stroke-linecap="round" stroke-linejoin="round"/>
<path d="M18.9096 26.8024C23.026 26.354 27.3016 27.7078 30.4574 30.8637C33.6133 34.0195 34.967 38.295 34.5187 42.4115" stroke="#212529" stroke-width="2.4" stroke-linecap="round" stroke-linejoin="round"/>
<path d="M18.4874 19.2225C24.5924 18.5576 30.9334 20.5653 35.6138 25.2457C40.2942 29.9261 42.3019 36.2671 41.637 42.3721" stroke="#212529" stroke-width="2.4" stroke-linecap="round" stroke-linejoin="round"/>
<circle cx="19.9717" cy="41.4546" r="1.98254" transform="rotate(-45 19.9717 41.4546)" fill="#212529"/>
</g>
<defs>
<clipPath id="clip0_50_2405">
<rect width="60" height="60" fill="white" transform="translate(0 0.862305)"/>
</clipPath>
</defs>
</svg>
