<svg width="60" height="61" viewBox="0 0 60 61" fill="none" xmlns="http://www.w3.org/2000/svg">
<mask id="path-1-outside-1_50_1840" maskUnits="userSpaceOnUse" x="3.98474" y="2.98779" width="52" height="53" fill="black">
<rect fill="white" x="3.98474" y="2.98779" width="52" height="53"/>
<path fill-rule="evenodd" clip-rule="evenodd" d="M40.8554 8.9792C41.1121 9.55922 41.0028 10.262 40.5274 10.7374L37.9145 13.3503L49.2303 13.3503C50.2244 13.3503 51.0303 14.1562 51.0303 15.1503V24.5736L51.646 23.9578C51.9063 23.6976 52.2593 23.5513 52.6274 23.5513C53.3938 23.5513 54.0152 24.1727 54.0152 24.9392V51.8535C54.0152 52.9446 53.1307 53.8292 52.0395 53.8292H25.1252C24.7571 53.8292 24.4041 53.683 24.1439 53.4227C23.6019 52.8807 23.6019 52.002 24.1439 51.46L28.0694 47.5345H7.78474C6.79063 47.5345 5.98474 46.7286 5.98474 45.7345V21.0213C5.98474 20.7918 6.0833 20.5734 6.25536 20.4215L14.0404 13.5505C14.1865 13.4215 14.3748 13.3503 14.5697 13.3503L27.6825 13.3503L35.4114 5.62146C35.8805 5.15237 36.571 5.03969 37.1465 5.28341C37.1551 5.27411 37.1639 5.26495 37.1729 5.25593C37.5304 4.89841 38.11 4.89841 38.4676 5.25593L40.8761 7.66447C41.2336 8.02199 41.2336 8.60163 40.8761 8.95915C40.8693 8.96596 40.8624 8.97264 40.8554 8.9792Z"/>
</mask>
<path fill-rule="evenodd" clip-rule="evenodd" d="M40.8554 8.9792C41.1121 9.55922 41.0028 10.262 40.5274 10.7374L37.9145 13.3503L49.2303 13.3503C50.2244 13.3503 51.0303 14.1562 51.0303 15.1503V24.5736L51.646 23.9578C51.9063 23.6976 52.2593 23.5513 52.6274 23.5513C53.3938 23.5513 54.0152 24.1727 54.0152 24.9392V51.8535C54.0152 52.9446 53.1307 53.8292 52.0395 53.8292H25.1252C24.7571 53.8292 24.4041 53.683 24.1439 53.4227C23.6019 52.8807 23.6019 52.002 24.1439 51.46L28.0694 47.5345H7.78474C6.79063 47.5345 5.98474 46.7286 5.98474 45.7345V21.0213C5.98474 20.7918 6.0833 20.5734 6.25536 20.4215L14.0404 13.5505C14.1865 13.4215 14.3748 13.3503 14.5697 13.3503L27.6825 13.3503L35.4114 5.62146C35.8805 5.15237 36.571 5.03969 37.1465 5.28341C37.1551 5.27411 37.1639 5.26495 37.1729 5.25593C37.5304 4.89841 38.11 4.89841 38.4676 5.25593L40.8761 7.66447C41.2336 8.02199 41.2336 8.60163 40.8761 8.95915C40.8693 8.96596 40.8624 8.97264 40.8554 8.9792Z" fill="#F8F9FA"/>
<path d="M40.5274 10.7374L39.4667 9.67678L39.4667 9.67678L40.5274 10.7374ZM40.8554 8.9792L39.8282 7.88616C39.3641 8.3223 39.226 9.00393 39.4838 9.58629L40.8554 8.9792ZM37.9145 13.3503L36.8538 12.2897C36.4248 12.7187 36.2965 13.3638 36.5287 13.9244C36.7609 14.4849 37.3078 14.8503 37.9145 14.8503L37.9145 13.3503ZM49.2303 13.3503L49.2303 11.8503L49.2303 11.8503L49.2303 13.3503ZM51.0303 24.5736H49.5303C49.5303 25.1803 49.8957 25.7272 50.4562 25.9594C51.0167 26.1916 51.6619 26.0632 52.0909 25.6342L51.0303 24.5736ZM24.1439 53.4227L25.2045 52.362L25.2045 52.362L24.1439 53.4227ZM24.1439 51.46L25.2045 52.5207L25.2045 52.5207L24.1439 51.46ZM28.0694 47.5345L29.13 48.5951C29.559 48.1661 29.6874 47.521 29.4552 46.9605C29.223 46.3999 28.6761 46.0345 28.0694 46.0345V47.5345ZM6.25536 20.4215L7.24794 21.5461L7.24795 21.5461L6.25536 20.4215ZM14.0404 13.5505L15.0329 14.6752L15.0329 14.6752L14.0404 13.5505ZM14.5697 13.3503L14.5697 14.8503L14.5697 14.8503L14.5697 13.3503ZM27.6825 13.3503L27.6825 14.8503C28.0804 14.8503 28.4619 14.6923 28.7432 14.411L27.6825 13.3503ZM35.4114 5.62146L34.3508 4.5608L34.3508 4.5608L35.4114 5.62146ZM37.1465 5.28341L36.5615 6.66465C37.1448 6.91169 37.8205 6.76565 38.2497 6.29975L37.1465 5.28341ZM37.1729 5.25593L36.1122 4.19527L36.1122 4.19529L37.1729 5.25593ZM38.4676 5.25593L39.5282 4.19527L39.5282 4.19526L38.4676 5.25593ZM40.8761 7.66447L39.8154 8.72513L39.8154 8.72514L40.8761 7.66447ZM40.8761 8.95915L39.8154 7.89849L39.8154 7.89851L40.8761 8.95915ZM41.5881 11.7981C42.5162 10.87 42.7263 9.49997 42.2271 8.37211L39.4838 9.58629C39.4896 9.59952 39.4923 9.61716 39.4891 9.6351C39.4864 9.65014 39.4803 9.6632 39.4667 9.67678L41.5881 11.7981ZM38.9752 14.411L41.5881 11.7981L39.4667 9.67678L36.8538 12.2897L38.9752 14.411ZM49.2303 11.8503L37.9145 11.8503L37.9145 14.8503L49.2303 14.8503L49.2303 11.8503ZM52.5303 15.1503C52.5303 13.3278 51.0528 11.8503 49.2303 11.8503V14.8503C49.3959 14.8503 49.5303 14.9846 49.5303 15.1503H52.5303ZM52.5303 24.5736V15.1503H49.5303V24.5736H52.5303ZM50.5854 22.8972L49.9696 23.5129L52.0909 25.6342L52.7067 25.0185L50.5854 22.8972ZM52.6274 22.0513C51.8615 22.0513 51.1269 22.3556 50.5854 22.8972L52.7067 25.0185C52.6856 25.0395 52.6571 25.0513 52.6274 25.0513V22.0513ZM55.5152 24.9392C55.5152 23.3443 54.2223 22.0513 52.6274 22.0513V25.0513C52.5654 25.0513 52.5152 25.0011 52.5152 24.9392H55.5152ZM55.5152 51.8535V24.9392H52.5152V51.8535H55.5152ZM52.0395 55.3292C53.9591 55.3292 55.5152 53.7731 55.5152 51.8535H52.5152C52.5152 52.1162 52.3022 52.3292 52.0395 52.3292V55.3292ZM25.1252 55.3292H52.0395V52.3292H25.1252V55.3292ZM23.0832 54.4833C23.6248 55.0249 24.3593 55.3292 25.1252 55.3292V52.3292C25.1549 52.3292 25.1835 52.341 25.2045 52.362L23.0832 54.4833ZM23.0832 50.3993C21.9554 51.5271 21.9554 53.3556 23.0832 54.4833L25.2045 52.362C25.2483 52.4058 25.2483 52.4769 25.2045 52.5207L23.0832 50.3993ZM27.0087 46.4738L23.0832 50.3993L25.2045 52.5207L29.13 48.5951L27.0087 46.4738ZM7.78474 49.0345H28.0694V46.0345H7.78474V49.0345ZM4.48474 45.7345C4.48474 47.557 5.9622 49.0345 7.78474 49.0345V46.0345C7.61906 46.0345 7.48474 45.9002 7.48474 45.7345H4.48474ZM4.48474 21.0213V45.7345H7.48474V21.0213H4.48474ZM5.26278 19.2969C4.76809 19.7335 4.48474 20.3615 4.48474 21.0213H7.48474C7.48474 21.2221 7.3985 21.4133 7.24794 21.5461L5.26278 19.2969ZM13.0478 12.4259L5.26278 19.2969L7.24795 21.5461L15.0329 14.6752L13.0478 12.4259ZM14.5697 11.8503C14.0092 11.8503 13.468 12.055 13.0478 12.4259L15.0329 14.6752C14.905 14.788 14.7403 14.8503 14.5697 14.8503V11.8503ZM27.6825 11.8503L14.5697 11.8503L14.5697 14.8503L27.6825 14.8503L27.6825 11.8503ZM34.3508 4.5608L26.6219 12.2897L28.7432 14.411L36.4721 6.68212L34.3508 4.5608ZM37.7315 3.90218C36.6127 3.42838 35.2666 3.64497 34.3508 4.5608L36.4721 6.68212C36.4855 6.66866 36.4984 6.66262 36.5131 6.65989C36.5307 6.65662 36.5482 6.65899 36.5615 6.66465L37.7315 3.90218ZM38.2497 6.29975C38.2443 6.30562 38.2389 6.31122 38.2336 6.31656L36.1122 4.19529C36.0888 4.21868 36.0658 4.24261 36.0433 4.26707L38.2497 6.29975ZM38.2335 6.31659C38.0053 6.54486 37.6352 6.54486 37.4069 6.31659L39.5282 4.19526C38.5849 3.25197 37.0555 3.25197 36.1122 4.19527L38.2335 6.31659ZM37.4069 6.31659L39.8154 8.72513L41.9368 6.60381L39.5282 4.19527L37.4069 6.31659ZM39.8154 8.72514C39.5872 8.49686 39.5872 8.12675 39.8154 7.89849L41.9368 10.0198C42.8801 9.07651 42.8801 7.54712 41.9368 6.60381L39.8154 8.72514ZM39.8154 7.89851C39.8195 7.8944 39.8238 7.89029 39.8282 7.88616L41.8827 10.0722C41.901 10.055 41.9191 10.0375 41.9368 10.0198L39.8154 7.89851Z" fill="#F8F9FA" mask="url(#path-1-outside-1_50_1840)"/>
<path d="M25.3057 39.6421L41.6188 23.259" stroke="#212529" stroke-linecap="round" stroke-linejoin="round"/>
<path fill-rule="evenodd" clip-rule="evenodd" d="M7.78479 46.8151C7.2325 46.8151 6.78479 46.3673 6.78479 45.8151L6.78479 21.1019L14.5698 14.2309L49.2303 14.2309C49.7826 14.2309 50.2303 14.6786 50.2303 15.2309L50.2303 45.8151C50.2303 46.3673 49.7826 46.8151 49.2303 46.8151L7.78479 46.8151Z" fill="#F1F3F5" stroke="#212529" stroke-width="1.6" stroke-linejoin="round"/>
<path d="M14.4836 30.5229V38.5743" stroke="#DEE2E6" stroke-linecap="round"/>
<path d="M28.0312 32.8811H14.4836" stroke="#DEE2E6" stroke-linecap="round"/>
<path d="M20.1769 32.8811L14.4837 38.5743" stroke="#DEE2E6" stroke-linecap="round"/>
<path fill-rule="evenodd" clip-rule="evenodd" d="M14.4837 14.5053L14.4837 21.1331L6.78479 21.1331" fill="#DEE2E6" stroke="#212529" stroke-width="1.6" stroke-linecap="round" stroke-linejoin="round"/>
<path d="M19.661 27.0597H42.3403" stroke="#CED4DA" stroke-linecap="round" stroke-linejoin="round"/>
<path fill-rule="evenodd" clip-rule="evenodd" d="M52.2117 24.6041L24.7095 52.1062C24.48 52.3358 24.48 52.708 24.7095 52.9375C24.8198 53.0478 24.9693 53.1097 25.1252 53.1097H52.0395C52.6888 53.1097 53.2152 52.5834 53.2152 51.9341V25.0197C53.2152 24.6951 52.952 24.4319 52.6274 24.4319C52.4715 24.4319 52.3219 24.4938 52.2117 24.6041Z" fill="#69DB7C" stroke="#212529" stroke-width="1.6" stroke-linejoin="round"/>
<path fill-rule="evenodd" clip-rule="evenodd" d="M47.1693 38.2409L39.5647 45.8309C39.4498 45.9456 39.4496 46.1317 39.5643 46.2466C39.6194 46.3018 39.6943 46.3329 39.7723 46.3329H47.083C47.4076 46.3329 47.6708 46.0697 47.6708 45.745V38.4489C47.6708 38.2866 47.5392 38.155 47.3769 38.155C47.299 38.155 47.2244 38.1859 47.1693 38.2409Z" fill="#F1F3F5" stroke="#212529" stroke-width="1.2" stroke-linejoin="round"/>
<path d="M31.7593 51.6401V52.8158" stroke="#212529" stroke-linecap="round"/>
<path d="M34.4045 50.7584V52.5219" stroke="#212529" stroke-linecap="round"/>
<path d="M42.3403 51.6401V52.8158" stroke="#212529" stroke-linecap="round"/>
<path d="M44.9856 50.7584V52.5219" stroke="#212529" stroke-linecap="round"/>
<path d="M37.0498 51.6401V52.8158" stroke="#212529" stroke-linecap="round"/>
<path d="M39.6951 50.7584V52.5219" stroke="#212529" stroke-linecap="round"/>
<path d="M47.6307 51.6401V52.8158" stroke="#212529" stroke-linecap="round"/>
<path d="M50.276 50.7584V52.5219" stroke="#212529" stroke-linecap="round"/>
<g style="mix-blend-mode:multiply">
<path fill-rule="evenodd" clip-rule="evenodd" d="M26.0984 26.2027L21.5496 27.9316C21.1464 28.0849 20.7513 27.6898 20.9046 27.2866L22.6335 22.7378C22.6893 22.6115 22.7708 22.4933 22.8719 22.3922L34.6324 11.4216C35.0035 11.0505 35.5457 10.9912 35.8435 11.289L38.337 13.7825C38.6349 14.0803 38.5755 14.6226 38.2045 14.9936L26.444 25.9643C26.3429 26.0654 26.2247 26.1469 26.0984 26.2027Z" fill="#E9ECEF"/>
</g>
<path fill-rule="evenodd" clip-rule="evenodd" d="M25.608 24.6238L19.4599 26.7696L21.6057 20.6216C21.6494 20.4964 21.7208 20.3827 21.8146 20.289L35.9064 6.19711C36.2504 5.85307 36.8082 5.85307 37.1523 6.19711L40.0325 9.0773C40.3765 9.42133 40.3765 9.97911 40.0325 10.3231L25.9406 24.415C25.8468 24.5087 25.7331 24.5801 25.608 24.6238Z" fill="#FA5252" stroke="#212529" stroke-width="1.4" stroke-linejoin="round"/>
<path fill-rule="evenodd" clip-rule="evenodd" d="M25.7982 24.5574L21.6722 20.4313L19.7608 25.9078C19.6806 26.1374 19.8018 26.3886 20.0315 26.4688C20.1255 26.5016 20.2278 26.5016 20.3218 26.4688L25.7982 24.5574Z" fill="#FFE066" stroke="#212529" stroke-width="1.2" stroke-linecap="round" stroke-linejoin="round"/>
<path fill-rule="evenodd" clip-rule="evenodd" d="M22.1693 25.6769L20.5527 24.0603L19.6334 26.5962L22.1693 25.6769Z" fill="#212529"/>
<path d="M38.1318 5.67243C37.9598 5.50041 37.6809 5.50041 37.5088 5.67243C37.3368 5.84444 37.3368 6.12333 37.5088 6.29535L39.9174 8.70389C40.0894 8.87591 40.3683 8.87591 40.5403 8.70389C40.7123 8.53188 40.7123 8.25299 40.5403 8.08097L38.1318 5.67243Z" fill="#212529" stroke="#212529" stroke-width="0.95"/>
<g style="mix-blend-mode:multiply">
<path d="M49.9236 23.9554L27.3279 46.5512H30.1373L49.9236 26.9655V23.9554Z" fill="#E9ECEF"/>
</g>
</svg>
