<svg width="60" height="61" viewBox="0 0 60 61" fill="none" xmlns="http://www.w3.org/2000/svg">
<g clip-path="url(#clip0_50_3477)">
<mask id="path-1-outside-1_50_3477" maskUnits="userSpaceOnUse" x="-1.13493" y="-0.651856" width="65.4359" height="64.8573" fill="black">
<rect fill="white" x="-1.13493" y="-0.651856" width="65.4359" height="64.8573"/>
<path fill-rule="evenodd" clip-rule="evenodd" d="M40.8587 15.5937C33.1052 9.71653 22.0553 11.2377 16.1781 18.9912C13.5614 22.4434 12.4113 26.5489 12.6248 30.5605C14.3167 30.2713 16.2415 30.0573 17.9786 29.9259C18.2499 29.9054 18.513 30.0242 18.6771 30.2412C18.8412 30.4583 18.8837 30.7438 18.7899 30.9993C18.1466 32.7522 17.3574 34.6759 16.5706 36.2853C16.1776 37.0893 15.7791 37.8275 15.3938 38.4314C15.3169 38.5518 15.2386 38.6701 15.1591 38.7847C16.2774 40.6259 17.7547 42.2915 19.5756 43.6718C27.3292 49.549 38.3791 48.0279 44.2563 40.2743C44.6234 39.7899 44.9617 39.2926 45.2715 38.7845C45.1102 38.5473 44.9619 38.3062 44.8254 38.079C44.8181 38.067 44.8112 38.0547 44.8046 38.0424L44.8028 38.0393L44.7961 38.0284L44.785 38.0105L44.7755 37.9949C43.7088 36.1969 42.5363 33.5023 41.6421 31.1379C41.5458 30.8834 41.5855 30.5975 41.7475 30.3788C41.9094 30.1601 42.1714 30.0388 42.4429 30.0566C44.1899 30.1715 46.1173 30.3672 47.8067 30.639C48.1251 24.9819 45.7137 19.2737 40.8587 15.5937ZM13.6863 40.2036C14.9008 42.1032 16.4658 43.8242 18.3675 45.2657C27.0013 51.8101 39.3057 50.1163 45.8501 41.4825C46.1609 41.0725 46.453 40.6543 46.7268 40.2288C47.7131 40.8227 48.8671 41.0549 50.0198 40.8831C51.3336 40.6877 52.4948 39.99 53.2845 38.9235C54.9176 36.7186 54.4524 33.5979 52.2476 31.965C51.8212 31.6492 51.1963 31.4103 50.5313 31.2177C50.2974 31.1499 50.0482 31.0851 49.7865 31.0232C50.2344 24.636 47.5503 18.1562 42.0669 13.9998C33.4331 7.45543 21.1287 9.14924 14.5843 17.7831C11.6055 21.7129 10.3335 26.4032 10.6458 30.9646C10.6021 30.9754 10.5589 30.9862 10.516 30.9971L10.4984 31.0018L10.4781 31.0075L10.4658 31.0108L10.4623 31.0117C10.4486 31.0145 10.4349 31.0177 10.4213 31.0213C9.68256 31.214 8.80476 31.4673 8.19283 31.9299C7.13412 32.7303 6.44821 33.8987 6.26538 35.2133C6.08218 36.5289 6.42391 37.8398 7.22416 38.8984C8.75484 40.9234 11.5442 41.4467 13.6863 40.2036ZM14.2904 37.1695C14.5603 36.7107 14.844 36.1741 15.1332 35.5826C15.7185 34.3853 16.3113 32.9936 16.8419 31.6285C15.457 31.7598 14.0388 31.9382 12.7825 32.1569C13.0326 33.8848 13.5381 35.5762 14.2904 37.1695ZM10.822 32.5707C11.1506 34.7409 11.8413 36.8573 12.8805 38.8212C11.4284 39.6609 9.53722 39.3051 8.50048 37.9335C7.95598 37.2132 7.72553 36.3285 7.85012 35.4338C7.97447 34.5394 8.43739 33.7508 9.15772 33.2063C9.56836 32.8958 10.1824 32.7364 10.6904 32.6046C10.7305 32.5942 10.7699 32.5839 10.8086 32.5738C10.8131 32.5728 10.8176 32.5718 10.822 32.5707ZM50.0862 32.7545C49.9354 32.7109 49.7757 32.6681 49.6077 32.6262C49.2795 34.7646 48.5935 36.8695 47.5371 38.849C48.2098 39.2587 48.9946 39.4182 49.7842 39.3006C50.6776 39.1677 51.4614 38.6969 51.9987 37.9713C53.1058 36.4765 52.7901 34.3578 51.2953 33.2507C51.1104 33.1138 50.7183 32.9376 50.0862 32.7545ZM46.1449 37.1674C46.8968 35.5821 47.3939 33.9188 47.6439 32.2335C46.3858 32.0278 44.9719 31.8647 43.5963 31.748C44.3914 33.7354 45.3157 35.767 46.1449 37.1674Z"/>
</mask>
<path fill-rule="evenodd" clip-rule="evenodd" d="M40.8587 15.5937C33.1052 9.71653 22.0553 11.2377 16.1781 18.9912C13.5614 22.4434 12.4113 26.5489 12.6248 30.5605C14.3167 30.2713 16.2415 30.0573 17.9786 29.9259C18.2499 29.9054 18.513 30.0242 18.6771 30.2412C18.8412 30.4583 18.8837 30.7438 18.7899 30.9993C18.1466 32.7522 17.3574 34.6759 16.5706 36.2853C16.1776 37.0893 15.7791 37.8275 15.3938 38.4314C15.3169 38.5518 15.2386 38.6701 15.1591 38.7847C16.2774 40.6259 17.7547 42.2915 19.5756 43.6718C27.3292 49.549 38.3791 48.0279 44.2563 40.2743C44.6234 39.7899 44.9617 39.2926 45.2715 38.7845C45.1102 38.5473 44.9619 38.3062 44.8254 38.079C44.8181 38.067 44.8112 38.0547 44.8046 38.0424L44.8028 38.0393L44.7961 38.0284L44.785 38.0105L44.7755 37.9949C43.7088 36.1969 42.5363 33.5023 41.6421 31.1379C41.5458 30.8834 41.5855 30.5975 41.7475 30.3788C41.9094 30.1601 42.1714 30.0388 42.4429 30.0566C44.1899 30.1715 46.1173 30.3672 47.8067 30.639C48.1251 24.9819 45.7137 19.2737 40.8587 15.5937ZM13.6863 40.2036C14.9008 42.1032 16.4658 43.8242 18.3675 45.2657C27.0013 51.8101 39.3057 50.1163 45.8501 41.4825C46.1609 41.0725 46.453 40.6543 46.7268 40.2288C47.7131 40.8227 48.8671 41.0549 50.0198 40.8831C51.3336 40.6877 52.4948 39.99 53.2845 38.9235C54.9176 36.7186 54.4524 33.5979 52.2476 31.965C51.8212 31.6492 51.1963 31.4103 50.5313 31.2177C50.2974 31.1499 50.0482 31.0851 49.7865 31.0232C50.2344 24.636 47.5503 18.1562 42.0669 13.9998C33.4331 7.45543 21.1287 9.14924 14.5843 17.7831C11.6055 21.7129 10.3335 26.4032 10.6458 30.9646C10.6021 30.9754 10.5589 30.9862 10.516 30.9971L10.4984 31.0018L10.4781 31.0075L10.4658 31.0108L10.4623 31.0117C10.4486 31.0145 10.4349 31.0177 10.4213 31.0213C9.68256 31.214 8.80476 31.4673 8.19283 31.9299C7.13412 32.7303 6.44821 33.8987 6.26538 35.2133C6.08218 36.5289 6.42391 37.8398 7.22416 38.8984C8.75484 40.9234 11.5442 41.4467 13.6863 40.2036ZM14.2904 37.1695C14.5603 36.7107 14.844 36.1741 15.1332 35.5826C15.7185 34.3853 16.3113 32.9936 16.8419 31.6285C15.457 31.7598 14.0388 31.9382 12.7825 32.1569C13.0326 33.8848 13.5381 35.5762 14.2904 37.1695ZM10.822 32.5707C11.1506 34.7409 11.8413 36.8573 12.8805 38.8212C11.4284 39.6609 9.53722 39.3051 8.50048 37.9335C7.95598 37.2132 7.72553 36.3285 7.85012 35.4338C7.97447 34.5394 8.43739 33.7508 9.15772 33.2063C9.56836 32.8958 10.1824 32.7364 10.6904 32.6046C10.7305 32.5942 10.7699 32.5839 10.8086 32.5738C10.8131 32.5728 10.8176 32.5718 10.822 32.5707ZM50.0862 32.7545C49.9354 32.7109 49.7757 32.6681 49.6077 32.6262C49.2795 34.7646 48.5935 36.8695 47.5371 38.849C48.2098 39.2587 48.9946 39.4182 49.7842 39.3006C50.6776 39.1677 51.4614 38.6969 51.9987 37.9713C53.1058 36.4765 52.7901 34.3578 51.2953 33.2507C51.1104 33.1138 50.7183 32.9376 50.0862 32.7545ZM46.1449 37.1674C46.8968 35.5821 47.3939 33.9188 47.6439 32.2335C46.3858 32.0278 44.9719 31.8647 43.5963 31.748C44.3914 33.7354 45.3157 35.767 46.1449 37.1674Z" fill="#F8F9FA"/>
<path d="M12.6248 30.5605L11.127 30.6402C11.1497 31.0677 11.354 31.4651 11.6885 31.7323C12.0229 31.9996 12.4556 32.1112 12.8776 32.0391L12.6248 30.5605ZM17.9786 29.9259L17.8654 28.4302L17.8654 28.4302L17.9786 29.9259ZM18.6771 30.2412L17.4805 31.1457L17.4805 31.1458L18.6771 30.2412ZM18.7899 30.9993L17.3818 30.4825L17.3818 30.4825L18.7899 30.9993ZM16.5706 36.2853L17.9182 36.9441L17.9182 36.9441L16.5706 36.2853ZM15.3938 38.4314L16.6583 39.2383L16.6583 39.2383L15.3938 38.4314ZM15.1591 38.7847L13.9267 37.9296C13.5888 38.4166 13.5694 39.0568 13.8771 39.5634L15.1591 38.7847ZM45.2715 38.7845L46.5523 39.5653C46.8585 39.0629 46.8427 38.4279 46.512 37.9413L45.2715 38.7845ZM44.8254 38.079L46.1109 37.3061L46.1109 37.3061L44.8254 38.079ZM44.8046 38.0424L46.1291 37.3381C46.1176 37.3167 46.1057 37.2955 46.0933 37.2746L44.8046 38.0424ZM44.8028 38.0393L46.0914 37.2716C46.088 37.2659 46.0846 37.2602 46.0811 37.2545L44.8028 38.0393ZM44.7961 38.0284L46.0745 37.2436L46.0687 37.2344L44.7961 38.0284ZM44.785 38.0105L43.5038 38.7906C43.5066 38.7953 43.5095 38.7999 43.5123 38.8045L44.785 38.0105ZM44.7755 37.9949L43.4854 38.7602C43.4883 38.7652 43.4913 38.7701 43.4943 38.775L44.7755 37.9949ZM41.6421 31.1379L43.0451 30.6073L43.0451 30.6073L41.6421 31.1379ZM42.4429 30.0566L42.5413 28.5599L42.5413 28.5599L42.4429 30.0566ZM47.8067 30.639L47.5684 32.1199C47.9877 32.1874 48.416 32.0739 48.747 31.8077C49.0779 31.5414 49.2804 31.1473 49.3043 30.7233L47.8067 30.639ZM13.6863 40.2036L14.9501 39.3957C14.5174 38.7188 13.6283 38.503 12.9334 38.9062L13.6863 40.2036ZM46.7268 40.2288L47.5005 38.9437C46.8056 38.5254 45.9041 38.7351 45.4653 39.4172L46.7268 40.2288ZM50.0198 40.8831L49.799 39.3995L49.7988 39.3995L50.0198 40.8831ZM53.2845 38.9235L52.0791 38.0308L52.079 38.0309L53.2845 38.9235ZM52.2476 31.965L51.3548 33.1704L51.3548 33.1704L52.2476 31.965ZM50.5313 31.2177L50.9486 29.7769L50.9486 29.7769L50.5313 31.2177ZM49.7865 31.0232L48.2902 30.9183C48.2388 31.6513 48.726 32.3136 49.441 32.4828L49.7865 31.0232ZM10.6458 30.9646L11.0054 32.4208C11.7125 32.2462 12.192 31.5888 12.1423 30.8621L10.6458 30.9646ZM10.516 30.9971L10.1459 29.5435C10.1403 29.5449 10.1347 29.5464 10.1291 29.5479L10.516 30.9971ZM10.4984 31.0018L10.1115 29.5526C10.1062 29.554 10.1009 29.5554 10.0957 29.5569L10.4984 31.0018ZM10.4781 31.0075L10.8702 32.4554L10.8808 32.4524L10.4781 31.0075ZM10.4658 31.0108L10.8389 32.4637C10.8453 32.462 10.8516 32.4604 10.8579 32.4587L10.4658 31.0108ZM10.4623 31.0117L10.764 32.4811C10.788 32.4761 10.8118 32.4706 10.8355 32.4645L10.4623 31.0117ZM10.4213 31.0213L10.0426 29.5698L10.0426 29.5699L10.4213 31.0213ZM8.19283 31.9299L7.28827 30.7334L7.28824 30.7334L8.19283 31.9299ZM6.26538 35.2133L7.75105 35.4202L7.75109 35.4199L6.26538 35.2133ZM7.22416 38.8984L8.42077 37.9939L8.42071 37.9938L7.22416 38.8984ZM14.2904 37.1695L12.934 37.8099C13.1713 38.3125 13.6671 38.6427 14.2223 38.6679C14.7776 38.6931 15.3012 38.4093 15.5831 37.9302L14.2904 37.1695ZM15.1332 35.5826L16.4808 36.2414L15.1332 35.5826ZM16.8419 31.6285L18.24 32.1719C18.4284 31.687 18.3522 31.139 18.0384 30.724C17.7247 30.3089 17.2183 30.0861 16.7003 30.1352L16.8419 31.6285ZM12.7825 32.1569L12.5253 30.6791C11.7256 30.8183 11.1817 31.5684 11.298 32.3717L12.7825 32.1569ZM12.8805 38.8212L13.6314 40.1197C14.3296 39.7159 14.5835 38.8324 14.2063 38.1196L12.8805 38.8212ZM10.822 32.5707L12.3051 32.3462C12.2425 31.9328 12.0103 31.5643 11.6643 31.3296C11.3184 31.0948 10.8902 31.015 10.4829 31.1096L10.822 32.5707ZM8.50048 37.9335L9.6971 37.029L9.69703 37.0289L8.50048 37.9335ZM7.85012 35.4338L9.33578 35.6407L9.33583 35.6404L7.85012 35.4338ZM9.15772 33.2063L8.25315 32.0097L8.25313 32.0097L9.15772 33.2063ZM10.6904 32.6046L11.0673 34.0564L11.0673 34.0564L10.6904 32.6046ZM10.8086 32.5738L10.4829 31.1096C10.4646 31.1137 10.4463 31.1181 10.4282 31.1228L10.8086 32.5738ZM49.6077 32.6262L49.9704 31.1707C49.5611 31.0687 49.1278 31.1438 48.7767 31.3774C48.4256 31.6111 48.189 31.9818 48.125 32.3987L49.6077 32.6262ZM50.0862 32.7545L49.6689 34.1953L49.6689 34.1953L50.0862 32.7545ZM47.5371 38.849L46.2138 38.1427C45.8393 38.8444 46.0776 39.7163 46.7568 40.1301L47.5371 38.849ZM49.7842 39.3006L49.5634 37.8169L49.5631 37.817L49.7842 39.3006ZM51.9987 37.9713L50.7933 37.0786L50.7932 37.0787L51.9987 37.9713ZM51.2953 33.2507L50.4026 34.4562L50.4026 34.4562L51.2953 33.2507ZM47.6439 32.2335L49.1277 32.4536C49.248 31.6426 48.6949 30.8854 47.8859 30.7531L47.6439 32.2335ZM46.1449 37.1674L44.8542 37.9317C45.1368 38.4089 45.6597 38.6913 46.2137 38.6658C46.7677 38.6404 47.2625 38.3113 47.5002 37.8102L46.1449 37.1674ZM43.5963 31.748L43.7231 30.2534C43.2047 30.2094 42.7005 30.4372 42.3908 30.8553C42.0812 31.2734 42.0103 31.8221 42.2036 32.3052L43.5963 31.748ZM17.3735 19.8973C22.7503 12.804 32.8593 11.4124 39.9526 16.7891L41.7648 14.3983C33.3511 8.02071 21.3603 9.67135 14.9827 18.0851L17.3735 19.8973ZM14.1227 30.4808C13.9273 26.81 14.9789 23.0565 17.3735 19.8973L14.9827 18.0851C12.144 21.8302 10.8953 26.2879 11.127 30.6402L14.1227 30.4808ZM12.8776 32.0391C14.5115 31.7598 16.3879 31.5505 18.0917 31.4216L17.8654 28.4302C16.0951 28.5641 14.1219 28.7828 12.3721 29.0819L12.8776 32.0391ZM18.0917 31.4216C17.8543 31.4396 17.6241 31.3357 17.4805 31.1457L19.8737 29.3367C19.402 28.7127 18.6454 28.3712 17.8654 28.4302L18.0917 31.4216ZM17.4805 31.1458C17.3369 30.9558 17.2997 30.706 17.3818 30.4825L20.1981 31.516C20.4676 30.7817 20.3454 29.9607 19.8737 29.3367L17.4805 31.1458ZM17.3818 30.4825C16.7503 32.203 15.9807 34.0765 15.223 35.6266L17.9182 36.9441C18.734 35.2753 19.5429 33.3013 20.1981 31.516L17.3818 30.4825ZM15.223 35.6265C14.8439 36.4022 14.4731 37.0857 14.1293 37.6245L16.6583 39.2383C17.0851 38.5693 17.5114 37.7763 17.9182 36.9441L15.223 35.6265ZM14.1293 37.6245C14.0612 37.7311 13.9937 37.8331 13.9267 37.9296L16.3915 39.6398C16.4836 39.5071 16.5726 39.3725 16.6583 39.2383L14.1293 37.6245ZM20.4817 42.4764C18.8136 41.212 17.4631 39.6886 16.4411 38.006L13.8771 39.5634C15.0918 41.5633 16.6957 43.3711 18.6695 44.8672L20.4817 42.4764ZM43.0609 39.3682C37.6841 46.4616 27.5751 47.8532 20.4817 42.4764L18.6695 44.8672C27.0833 51.2448 39.0741 49.5942 45.4516 41.1804L43.0609 39.3682ZM43.9907 38.0038C43.7072 38.4688 43.3974 38.9242 43.0609 39.3682L45.4516 41.1804C45.8494 40.6556 46.2162 40.1165 46.5523 39.5653L43.9907 38.0038ZM43.5398 38.8519C43.6806 39.0861 43.8459 39.3556 44.0309 39.6277L46.512 37.9413C46.3745 37.7391 46.2433 37.5262 46.1109 37.3061L43.5398 38.8519ZM43.4802 38.7466C43.4991 38.7821 43.519 38.8173 43.5399 38.852L46.1109 37.3061C46.1173 37.3167 46.1233 37.3274 46.1291 37.3381L43.4802 38.7466ZM43.5142 38.807L43.516 38.8101L46.0933 37.2746L46.0914 37.2716L43.5142 38.807ZM43.5178 38.8132L43.5245 38.8241L46.0811 37.2545L46.0744 37.2436L43.5178 38.8132ZM43.5123 38.8045L43.5235 38.8224L46.0687 37.2344L46.0576 37.2165L43.5123 38.8045ZM43.4943 38.775L43.5038 38.7906L46.0662 37.2304L46.0567 37.2148L43.4943 38.775ZM40.2391 31.6685C41.1438 34.0607 42.3525 36.8505 43.4854 38.7602L46.0655 37.2296C45.0652 35.5434 43.9288 32.944 43.0451 30.6073L40.2391 31.6685ZM40.5421 29.4861C40.0765 30.1147 39.9624 30.9368 40.2391 31.6685L43.0451 30.6073C43.1293 30.83 43.0946 31.0802 42.9529 31.2715L40.5421 29.4861ZM42.5413 28.5599C41.7607 28.5085 41.0076 28.8574 40.5421 29.4861L42.9529 31.2715C42.8112 31.4629 42.582 31.569 42.3444 31.5534L42.5413 28.5599ZM48.0449 29.158C46.2976 28.8769 44.3218 28.677 42.5413 28.5599L42.3444 31.5534C44.0581 31.6661 45.937 31.8575 47.5684 32.1199L48.0449 29.158ZM39.9526 16.7891C44.3931 20.1549 46.6006 25.3747 46.309 30.5547L49.3043 30.7233C49.6496 24.589 47.0343 18.3926 41.7648 14.3983L39.9526 16.7891ZM19.2736 44.0703C17.5151 42.7374 16.0706 41.1482 14.9501 39.3957L12.4225 41.0116C13.731 43.0582 15.4164 44.911 17.4614 46.4611L19.2736 44.0703ZM44.6547 40.5763C38.6107 48.55 27.2472 50.1143 19.2736 44.0703L17.4614 46.4611C26.7554 53.5059 40.0007 51.6826 47.0455 42.3886L44.6547 40.5763ZM45.4653 39.4172C45.2123 39.8104 44.9422 40.1971 44.6547 40.5763L47.0455 42.3886C47.3795 41.9479 47.6937 41.4981 47.9883 41.0403L45.4653 39.4172ZM49.7988 39.3995C48.9901 39.52 48.1879 39.3576 47.5005 38.9437L45.953 41.5138C47.2383 42.2877 48.744 42.5897 50.2408 42.3668L49.7988 39.3995ZM52.079 38.0309C51.5259 38.7778 50.7188 39.2626 49.799 39.3995L50.2405 42.3668C51.9483 42.1127 53.4636 41.2021 54.49 39.8162L52.079 38.0309ZM51.3548 33.1704C52.894 34.3103 53.2191 36.4916 52.0791 38.0308L54.4899 39.8163C56.6161 36.9456 56.0109 32.8855 53.1403 30.7595L51.3548 33.1704ZM50.114 32.6585C50.747 32.8418 51.1543 33.0219 51.3548 33.1704L53.1403 30.7595C52.488 30.2765 51.6456 29.9787 50.9486 29.7769L50.114 32.6585ZM49.441 32.4828C49.6826 32.54 49.9075 32.5987 50.114 32.6585L50.9486 29.7769C50.6873 29.7012 50.4138 29.6302 50.1321 29.5635L49.441 32.4828ZM41.1608 15.1952C46.2237 19.0329 48.7041 25.0149 48.2902 30.9183L51.2829 31.1281C51.7646 24.257 48.8769 17.2796 42.973 12.8044L41.1608 15.1952ZM15.7797 18.6892C21.8236 10.7155 33.1872 9.15126 41.1608 15.1952L42.973 12.8044C33.679 5.75961 20.4337 7.58294 13.3889 16.877L15.7797 18.6892ZM12.1423 30.8621C11.8538 26.6484 13.028 22.3194 15.7797 18.6892L13.3889 16.877C10.183 21.1064 8.81315 26.1579 9.14926 31.067L12.1423 30.8621ZM10.8862 32.4507C10.9255 32.4407 10.9652 32.4308 11.0054 32.4208L10.2861 29.5083C10.239 29.52 10.1923 29.5317 10.1459 29.5435L10.8862 32.4507ZM10.8853 32.4511L10.903 32.4463L10.1291 29.5479L10.1115 29.5526L10.8853 32.4511ZM10.8808 32.4524L10.9011 32.4467L10.0957 29.5569L10.0754 29.5625L10.8808 32.4524ZM10.8579 32.4587L10.8702 32.4553L10.086 29.5596L10.0736 29.563L10.8579 32.4587ZM10.8355 32.4645L10.8389 32.4637L10.0926 29.558L10.0891 29.5589L10.8355 32.4645ZM10.7999 32.4727C10.7881 32.4758 10.7761 32.4786 10.764 32.4811L10.1606 29.5424C10.121 29.5505 10.0816 29.5597 10.0426 29.5698L10.7999 32.4727ZM9.0974 33.1265C9.43652 32.8701 10.0245 32.675 10.8 32.4727L10.0426 29.5699C9.34062 29.753 8.17301 30.0645 7.28827 30.7334L9.0974 33.1265ZM7.75109 35.4199C7.87912 34.4993 8.35598 33.687 9.09742 33.1265L7.28824 30.7334C5.91225 31.7736 5.0173 33.2981 4.77968 35.0067L7.75109 35.4199ZM8.42071 37.9938C7.86022 37.2524 7.62279 36.3412 7.75105 35.4202L4.77972 35.0064C4.54157 36.7165 4.98759 38.4272 6.02761 39.8029L8.42071 37.9938ZM12.9334 38.9062C11.4384 39.7738 9.4883 39.4062 8.42077 37.9939L6.02755 39.8028C8.02138 42.4406 11.65 43.1196 14.4392 41.501L12.9334 38.9062ZM15.5831 37.9302C15.8779 37.4293 16.1799 36.8569 16.4808 36.2414L13.7856 34.9239C13.5082 35.4913 13.2428 35.9921 12.9976 36.4087L15.5831 37.9302ZM16.4808 36.2414C17.0895 34.9961 17.699 33.5638 18.24 32.1719L15.4437 31.0851C14.9236 32.4234 14.3474 33.7745 13.7856 34.9239L16.4808 36.2414ZM16.7003 30.1352C15.2876 30.2692 13.8294 30.4521 12.5253 30.6791L13.0398 33.6346C14.2483 33.4243 15.6264 33.2505 16.9834 33.1218L16.7003 30.1352ZM15.6468 36.529C14.9587 35.0717 14.496 33.5239 14.2671 31.942L11.298 32.3717C11.5692 34.2457 12.1175 36.0807 12.934 37.8099L15.6468 36.529ZM14.2063 38.1196C13.2469 36.3065 12.6088 34.3517 12.3051 32.3462L9.33893 32.7953C9.69242 35.1302 10.4356 37.408 11.5547 39.5227L14.2063 38.1196ZM7.30385 38.8379C8.80346 40.8219 11.5327 41.3333 13.6314 40.1197L12.1296 37.5226C11.3241 37.9885 10.271 37.7882 9.6971 37.029L7.30385 38.8379ZM6.36445 35.227C6.18493 36.5161 6.51961 37.8006 7.30393 38.838L9.69703 37.0289C9.39235 36.6259 9.26612 36.1409 9.33578 35.6407L6.36445 35.227ZM8.25313 32.0097C7.21551 32.7942 6.54354 33.9388 6.36441 35.2273L9.33583 35.6404C9.4054 35.14 9.65928 34.7075 10.0623 34.4028L8.25313 32.0097ZM10.3136 31.1527C9.89094 31.2624 8.95038 31.4826 8.25315 32.0097L10.0623 34.4028C10.1863 34.309 10.4739 34.2105 11.0673 34.0564L10.3136 31.1527ZM10.4282 31.1228C10.3916 31.1324 10.354 31.1422 10.3135 31.1527L11.0673 34.0564C11.1071 34.0461 11.1483 34.0354 11.1889 34.0248L10.4282 31.1228ZM10.4829 31.1096L10.4829 31.1096L11.1343 34.038C11.1445 34.0357 11.1537 34.0336 11.1611 34.0319L10.4829 31.1096ZM49.245 34.0817C49.397 34.1196 49.5384 34.1575 49.6689 34.1953L50.5035 31.3137C50.3324 31.2642 50.1543 31.2166 49.9704 31.1707L49.245 34.0817ZM48.8604 39.5552C49.9981 37.4235 50.7369 35.1563 51.0903 32.8538L48.125 32.3987C47.822 34.3728 47.1889 36.3155 46.2138 38.1427L48.8604 39.5552ZM49.5631 37.817C49.1193 37.8831 48.6891 37.7943 48.3174 37.5679L46.7568 40.1301C47.7306 40.7232 48.8699 40.9534 50.0052 40.7842L49.5631 37.817ZM50.7932 37.0787C50.4926 37.4847 50.063 37.7426 49.5634 37.8169L50.0049 40.7843C51.2923 40.5927 52.4301 39.9092 53.2041 38.864L50.7932 37.0787ZM50.4026 34.4562C51.2316 35.0701 51.4074 36.2495 50.7933 37.0786L53.2041 38.8641C54.8043 36.7036 54.3486 33.6454 52.188 32.0453L50.4026 34.4562ZM49.6689 34.1953C49.9439 34.275 50.1432 34.3465 50.2777 34.4029C50.4267 34.4655 50.4475 34.4894 50.4026 34.4562L52.188 32.0453C51.7761 31.7402 51.1647 31.5052 50.5035 31.3137L49.6689 34.1953ZM46.1601 32.0134C45.9315 33.5548 45.477 35.0753 44.7896 36.5246L47.5002 37.8102C48.3167 36.0888 48.8563 34.2829 49.1277 32.4536L46.1601 32.0134ZM43.4695 33.2426C44.8174 33.357 46.1914 33.516 47.4019 33.7138L47.8859 30.7531C46.5801 30.5397 45.1263 30.3724 43.7231 30.2534L43.4695 33.2426ZM47.4356 36.4031C46.6645 35.1009 45.7736 33.1521 44.9889 31.1908L42.2036 32.3052C43.0091 34.3186 43.9668 36.4331 44.8542 37.9317L47.4356 36.4031Z" fill="#F8F9FA" mask="url(#path-1-outside-1_50_3477)"/>
<circle cx="30.2232" cy="29.6505" r="18.6164" transform="rotate(37.162 30.2232 29.6505)" fill="#FFD43B" stroke="#212529" stroke-width="2" stroke-linecap="round" stroke-linejoin="round"/>
<g style="mix-blend-mode:multiply">
<path fill-rule="evenodd" clip-rule="evenodd" d="M18.3363 41.9127C26.164 47.846 37.3194 46.3104 43.2527 38.4827C47.5299 32.84 47.9258 25.4679 44.8812 19.5693C49.1097 25.7158 49.15 34.1224 44.3967 40.3932C38.4634 48.2209 27.3079 49.7565 19.4803 43.8232C17.2954 42.1671 15.6007 40.1041 14.4219 37.8202C15.4716 39.3461 16.7796 40.7327 18.3363 41.9127Z" fill="#FFD43B"/>
</g>
<g style="mix-blend-mode:soft-light" opacity="0.8">
<path d="M21.7549 17.9637C22.516 17.1896 21.6021 16.4467 20.7463 16.6429C20.0287 16.8075 18.2633 18.4761 17.3739 20.162C16.4844 21.848 17.8192 22.5931 18.3363 21.9842C18.8535 21.3754 20.8035 18.9313 21.7549 17.9637Z" fill="#F8F9FA"/>
</g>
<path fill-rule="evenodd" clip-rule="evenodd" d="M30.2598 44.6713C37.6431 44.6713 41.1929 40.155 41.9445 34.3663C42.0125 33.8423 41.7791 32.4469 40.5744 32.7722C38.2356 33.4038 37.0659 34.0012 30.2023 34.0369C23.3387 34.0725 22.4055 33.31 19.8173 32.88C18.5261 32.6655 18.3931 33.9356 18.4627 34.445C19.2556 40.2467 22.8765 44.6713 30.2598 44.6713Z" fill="#212529"/>
<path fill-rule="evenodd" clip-rule="evenodd" d="M40.2654 34.6077C37.954 35.2427 34.6091 35.5715 30.2309 35.5942C25.8526 35.617 22.5427 35.3227 20.3012 34.7114C19.9578 34.7132 20.6761 36.3085 21.2313 36.6799C21.7864 37.0513 24.1816 38.6379 30.3116 38.606C36.4415 38.5742 38.9293 37.0954 39.5917 36.6799C40.2542 36.2644 40.6291 34.6059 40.2654 34.6077Z" fill="white"/>
<path d="M10.661 40.047C9.55747 39.8978 8.57601 39.3252 7.90078 38.4377C6.50705 36.6056 6.86385 33.9812 8.696 32.5875C9.90523 31.6677 14.3667 31.0052 18.0537 30.7149C16.7898 34.1905 14.9604 38.313 13.751 39.2332C12.8633 39.9082 11.7659 40.1973 10.661 40.047Z" fill="#4DABF7" stroke="#212529" stroke-width="1.6" stroke-linejoin="round"/>
<path fill-rule="evenodd" clip-rule="evenodd" d="M49.9083 40.1093C48.8053 40.2736 47.7044 39.9986 46.8083 39.335C46.5962 39.1779 46.3639 38.9227 46.1186 38.593C46.0819 38.534 46.0418 38.4775 45.9971 38.4254C45.8414 38.2047 45.6811 37.9567 45.5172 37.6842C45.5028 37.6567 45.4861 37.6303 45.4697 37.6041C44.4385 35.8658 43.2852 33.222 42.3966 30.8723C46.0863 31.115 50.5551 31.7198 51.7777 32.6252C53.6275 33.9952 54.018 36.615 52.6478 38.4648C51.9843 39.3608 51.0119 39.9451 49.9083 40.1093Z" fill="#4DABF7" stroke="#212529" stroke-width="1.6" stroke-linejoin="round"/>
<path d="M15.5537 25.7109C16.1826 24.2921 18.0453 21.208 20.4648 20.2221" stroke="#212529" stroke-width="1.6" stroke-linecap="round" stroke-linejoin="round"/>
<path d="M18.7446 27.7487C19.6054 26.6653 22.4596 24.274 25.6739 26.8133" stroke="#212529" stroke-width="1.6" stroke-linecap="round" stroke-linejoin="round"/>
<path d="M40.3079 27.7487C39.4471 26.6653 36.5929 24.274 33.3785 26.8133" stroke="#212529" stroke-width="1.6" stroke-linecap="round" stroke-linejoin="round"/>
<path d="M44.4477 25.6841C43.816 24.2665 41.9471 21.1861 39.5256 20.2051" stroke="#212529" stroke-width="1.6" stroke-linecap="round" stroke-linejoin="round"/>
</g>
<defs>
<clipPath id="clip0_50_3477">
<rect width="60" height="60" fill="white" transform="translate(0 0.391113)"/>
</clipPath>
</defs>
</svg>
