<svg width="60" height="60" viewBox="0 0 60 60" fill="none" xmlns="http://www.w3.org/2000/svg">
<mask id="path-1-outside-1_50_6201" maskUnits="userSpaceOnUse" x="6.21618" y="6.59814" width="48" height="49" fill="black">
<rect fill="white" x="6.21618" y="6.59814" width="48" height="49"/>
<path fill-rule="evenodd" clip-rule="evenodd" d="M52.2162 30.2337C52.2162 30.6203 51.9028 30.9337 51.5162 30.9337L47.0037 30.9337L43.5881 33.394C44.4785 35.1991 44.9765 37.2132 44.9765 39.3428C44.9765 41.5604 44.4366 43.6526 43.4759 45.5141C45.6098 45.8224 47.378 47.3511 47.378 49.3821C47.378 51.6607 45.1523 53.3071 42.6815 53.3071C40.8615 53.3071 39.1745 52.4138 38.4121 51.0325C35.9824 52.5956 33.0452 53.5071 29.8943 53.5071C27.5521 53.5071 25.3279 53.0034 23.3425 52.1028C22.7094 52.8402 21.7703 53.3072 20.7222 53.3072C20.2215 53.3072 19.619 53.2808 19.0012 53.2537C18.7002 53.2405 18.3957 53.2271 18.0975 53.2166C17.1612 53.1835 16.2734 53.1771 15.604 53.2663C15.4011 53.2933 15.1944 53.3072 14.9848 53.3072C12.4156 53.3072 10.3329 51.2245 10.3329 48.6553C10.3329 46.0861 12.4156 44.0034 14.9848 44.0034C15.2155 44.0034 15.4423 44.0202 15.6641 44.0527C15.1126 42.5817 14.8121 40.9971 14.8121 39.3428C14.8121 36.8814 15.4773 34.5744 16.6448 32.5659L13.4452 29.1204C13.4221 29.0955 13.4011 29.0694 13.3823 29.0423L8.33948 27.9786C7.96121 27.8988 7.71925 27.5274 7.79904 27.1491C7.87883 26.7709 8.25017 26.5289 8.62845 26.6087L12.9352 27.5172L12.47 23.7897C12.4221 23.406 12.6943 23.0562 13.0779 23.0084C13.4615 22.9605 13.8113 23.2327 13.8592 23.6163L14.4212 28.1191C14.4384 28.1343 14.4551 28.1505 14.4711 28.1678L17.4334 31.3577C18.3871 30.0485 19.5685 28.8987 20.9223 27.9571C20.906 27.8396 20.8976 27.7195 20.8976 27.5975L20.8976 27.382C20.8976 26.4721 21.365 25.6714 22.0727 25.2068C21.2036 24.1561 20.542 22.9272 20.1511 21.5832L18.1742 21.6173C17.0106 21.6374 16.7568 19.9897 17.8725 19.6587L19.7546 19.1004C19.7505 18.9822 19.7485 18.8634 19.7485 18.7441C19.7485 13.1406 24.291 8.59814 29.8944 8.59814C35.4979 8.59814 40.0403 13.1406 40.0403 18.7441C40.0403 21.4034 39.0172 23.8238 37.3431 25.633C37.7632 26.0948 38.0192 26.7085 38.0192 27.382L38.0192 27.4088C40.015 28.6088 41.6931 30.2387 42.9008 32.1637L46.1506 29.8228L47.0939 25.4596C47.1756 25.0817 47.5481 24.8416 47.926 24.9233C48.3039 25.005 48.544 25.3775 48.4623 25.7554L47.6454 29.5337L51.5162 29.5337C51.9028 29.5337 52.2162 29.8471 52.2162 30.2337Z"/>
</mask>
<path fill-rule="evenodd" clip-rule="evenodd" d="M52.2162 30.2337C52.2162 30.6203 51.9028 30.9337 51.5162 30.9337L47.0037 30.9337L43.5881 33.394C44.4785 35.1991 44.9765 37.2132 44.9765 39.3428C44.9765 41.5604 44.4366 43.6526 43.4759 45.5141C45.6098 45.8224 47.378 47.3511 47.378 49.3821C47.378 51.6607 45.1523 53.3071 42.6815 53.3071C40.8615 53.3071 39.1745 52.4138 38.4121 51.0325C35.9824 52.5956 33.0452 53.5071 29.8943 53.5071C27.5521 53.5071 25.3279 53.0034 23.3425 52.1028C22.7094 52.8402 21.7703 53.3072 20.7222 53.3072C20.2215 53.3072 19.619 53.2808 19.0012 53.2537C18.7002 53.2405 18.3957 53.2271 18.0975 53.2166C17.1612 53.1835 16.2734 53.1771 15.604 53.2663C15.4011 53.2933 15.1944 53.3072 14.9848 53.3072C12.4156 53.3072 10.3329 51.2245 10.3329 48.6553C10.3329 46.0861 12.4156 44.0034 14.9848 44.0034C15.2155 44.0034 15.4423 44.0202 15.6641 44.0527C15.1126 42.5817 14.8121 40.9971 14.8121 39.3428C14.8121 36.8814 15.4773 34.5744 16.6448 32.5659L13.4452 29.1204C13.4221 29.0955 13.4011 29.0694 13.3823 29.0423L8.33948 27.9786C7.96121 27.8988 7.71925 27.5274 7.79904 27.1491C7.87883 26.7709 8.25017 26.5289 8.62845 26.6087L12.9352 27.5172L12.47 23.7897C12.4221 23.406 12.6943 23.0562 13.0779 23.0084C13.4615 22.9605 13.8113 23.2327 13.8592 23.6163L14.4212 28.1191C14.4384 28.1343 14.4551 28.1505 14.4711 28.1678L17.4334 31.3577C18.3871 30.0485 19.5685 28.8987 20.9223 27.9571C20.906 27.8396 20.8976 27.7195 20.8976 27.5975L20.8976 27.382C20.8976 26.4721 21.365 25.6714 22.0727 25.2068C21.2036 24.1561 20.542 22.9272 20.1511 21.5832L18.1742 21.6173C17.0106 21.6374 16.7568 19.9897 17.8725 19.6587L19.7546 19.1004C19.7505 18.9822 19.7485 18.8634 19.7485 18.7441C19.7485 13.1406 24.291 8.59814 29.8944 8.59814C35.4979 8.59814 40.0403 13.1406 40.0403 18.7441C40.0403 21.4034 39.0172 23.8238 37.3431 25.633C37.7632 26.0948 38.0192 26.7085 38.0192 27.382L38.0192 27.4088C40.015 28.6088 41.6931 30.2387 42.9008 32.1637L46.1506 29.8228L47.0939 25.4596C47.1756 25.0817 47.5481 24.8416 47.926 24.9233C48.3039 25.005 48.544 25.3775 48.4623 25.7554L47.6454 29.5337L51.5162 29.5337C51.9028 29.5337 52.2162 29.8471 52.2162 30.2337Z" fill="#F8F9FA"/>
<path d="M51.5162 30.9337L51.5162 29.4337L51.5162 30.9337ZM47.0037 30.9337L47.0037 29.4337C46.689 29.4337 46.3823 29.5326 46.1269 29.7166L47.0037 30.9337ZM43.5881 33.394L42.7114 32.1769C42.1168 32.6052 41.9187 33.4004 42.2429 34.0576L43.5881 33.394ZM43.4759 45.5141L42.1429 44.8262C41.9205 45.2573 41.9202 45.7693 42.1423 46.2007C42.3643 46.632 42.7813 46.9293 43.2614 46.9987L43.4759 45.5141ZM47.378 49.3821L45.878 49.3821L45.878 49.3821L47.378 49.3821ZM38.4121 51.0325L39.7253 50.3076C39.5246 49.944 39.1821 49.6799 38.7794 49.5782C38.3767 49.4765 37.9498 49.5463 37.6005 49.771L38.4121 51.0325ZM23.3425 52.1028L23.9622 50.7368C23.355 50.4614 22.6389 50.6198 22.2046 51.1256L23.3425 52.1028ZM19.0012 53.2537L18.9354 54.7522L18.9355 54.7522L19.0012 53.2537ZM18.0975 53.2166L18.0445 54.7156L18.0445 54.7156L18.0975 53.2166ZM15.604 53.2663L15.406 51.7794L15.406 51.7794L15.604 53.2663ZM15.6641 44.0527L15.4467 45.5369C15.9718 45.6138 16.4984 45.4075 16.8316 44.9944C17.1648 44.5814 17.2549 44.0231 17.0686 43.5262L15.6641 44.0527ZM16.6448 32.5659L17.9416 33.3197C18.2733 32.7492 18.1931 32.0288 17.744 31.5452L16.6448 32.5659ZM13.4452 29.1204L14.5443 28.0997L14.5443 28.0997L13.4452 29.1204ZM13.3823 29.0423L14.615 28.1876C14.3968 27.8729 14.0666 27.6536 13.6919 27.5746L13.3823 29.0423ZM8.33948 27.9786L8.02988 29.4463L8.02988 29.4463L8.33948 27.9786ZM7.79904 27.1491L6.33134 26.8395L6.33133 26.8396L7.79904 27.1491ZM8.62845 26.6087L8.93805 25.141L8.93805 25.141L8.62845 26.6087ZM12.9352 27.5172L12.6256 28.9849C13.1 29.085 13.5936 28.9495 13.9505 28.6213C14.3074 28.2931 14.4837 27.8126 14.4236 27.3314L12.9352 27.5172ZM12.47 23.7897L13.9584 23.6039L13.9584 23.6039L12.47 23.7897ZM13.0779 23.0084L13.2636 24.4968L13.2637 24.4968L13.0779 23.0084ZM13.8592 23.6163L15.3476 23.4305L15.3476 23.4305L13.8592 23.6163ZM14.4212 28.1191L12.9327 28.3048C12.9779 28.6673 13.1539 29.0009 13.4276 29.2428L14.4212 28.1191ZM14.4711 28.1678L15.5702 27.147L15.5702 27.147L14.4711 28.1678ZM17.4334 31.3577L16.3342 32.3784C16.6392 32.7068 17.075 32.8817 17.5224 32.8551C17.9698 32.8285 18.3819 32.6032 18.6458 32.2409L17.4334 31.3577ZM20.9223 27.9571L21.7787 29.1886C22.2423 28.8662 22.4855 28.3108 22.4081 27.7515L20.9223 27.9571ZM22.0727 25.2068L22.8958 26.4608C23.2524 26.2267 23.4925 25.8519 23.556 25.4301C23.6195 25.0083 23.5004 24.5794 23.2285 24.2507L22.0727 25.2068ZM20.1511 21.5832L21.5914 21.1642C21.4024 20.5145 20.8018 20.0718 20.1252 20.0835L20.1511 21.5832ZM18.1742 21.6173L18.1483 20.1175L18.1483 20.1175L18.1742 21.6173ZM17.8725 19.6587L17.4459 18.2207L17.4459 18.2207L17.8725 19.6587ZM19.7546 19.1004L20.1812 20.5385C20.8363 20.3442 21.2773 19.7316 21.2537 19.0487L19.7546 19.1004ZM37.3431 25.633L36.2421 24.6143C35.7134 25.1857 35.7097 26.0665 36.2335 26.6424L37.3431 25.633ZM38.0192 27.4088L36.5192 27.4088C36.5192 27.9352 36.7952 28.4231 37.2463 28.6943L38.0192 27.4088ZM42.9008 32.1637L41.6302 32.9609C41.8505 33.312 42.2062 33.5563 42.613 33.6358C43.0197 33.7154 43.4413 33.6231 43.7776 33.3808L42.9008 32.1637ZM46.1506 29.8228L47.0273 31.0399C47.3283 30.823 47.5383 30.5023 47.6167 30.1397L46.1506 29.8228ZM47.0939 25.4596L45.6277 25.1426L45.6277 25.1426L47.0939 25.4596ZM47.926 24.9233L48.243 23.4572L48.243 23.4572L47.926 24.9233ZM48.4623 25.7554L46.9961 25.4384L46.9961 25.4384L48.4623 25.7554ZM47.6454 29.5337L46.1793 29.2167C46.0835 29.6599 46.1933 30.1227 46.4781 30.4756C46.7628 30.8285 47.192 31.0337 47.6454 31.0337L47.6454 29.5337ZM51.5162 29.5337L51.5162 28.0337L51.5162 29.5337ZM51.5162 32.4337C52.7312 32.4337 53.7162 31.4487 53.7162 30.2337L50.7162 30.2337C50.7162 29.7918 51.0744 29.4337 51.5162 29.4337L51.5162 32.4337ZM47.0037 32.4337L51.5162 32.4337L51.5162 29.4337L47.0037 29.4337L47.0037 32.4337ZM46.1269 29.7166L42.7114 32.1769L44.4649 34.6111L47.8804 32.1508L46.1269 29.7166ZM46.4765 39.3428C46.4765 36.976 45.9224 34.7355 44.9334 32.7305L42.2429 34.0576C43.0347 35.6628 43.4765 37.4504 43.4765 39.3428L46.4765 39.3428ZM44.8089 46.202C45.8756 44.1349 46.4765 41.8076 46.4765 39.3428L43.4765 39.3428C43.4765 41.3131 42.9975 43.1702 42.1429 44.8262L44.8089 46.202ZM48.878 49.3821C48.878 46.3649 46.296 44.406 43.6904 44.0295L43.2614 46.9987C44.9236 47.2388 45.878 48.3372 45.878 49.3821L48.878 49.3821ZM42.6815 54.8071C45.6603 54.8071 48.878 52.7768 48.878 49.3821L45.878 49.3821C45.878 50.5447 44.6442 51.8071 42.6815 51.8071L42.6815 54.8071ZM37.0988 51.7573C38.1732 53.7038 40.4223 54.8071 42.6815 54.8071L42.6815 51.8071C41.3007 51.8071 40.1758 51.1239 39.7253 50.3076L37.0988 51.7573ZM29.8943 55.0071C33.3363 55.0071 36.5547 54.0111 39.2236 52.294L37.6005 49.771C35.4101 51.1802 32.7541 52.0071 29.8943 52.0071L29.8943 55.0071ZM22.7229 53.4689C24.9008 54.4568 27.336 55.0071 29.8943 55.0071L29.8943 52.0071C27.7681 52.0071 25.7551 51.5501 23.9622 50.7368L22.7229 53.4689ZM20.7222 54.8072C22.226 54.8072 23.5745 54.1351 24.4805 53.0801L22.2046 51.1256C21.8442 51.5452 21.3146 51.8072 20.7222 51.8072L20.7222 54.8072ZM18.9355 54.7522C19.5431 54.7789 20.1817 54.8072 20.7222 54.8072L20.7222 51.8072C20.2613 51.8072 19.6948 51.7827 19.0669 51.7551L18.9355 54.7522ZM18.0445 54.7156C18.3352 54.7259 18.6334 54.739 18.9354 54.7522L19.0669 51.7551C18.7671 51.742 18.4561 51.7283 18.1505 51.7175L18.0445 54.7156ZM15.802 54.7531C16.3322 54.6825 17.1052 54.6824 18.0445 54.7156L18.1505 51.7175C17.2171 51.6845 16.2145 51.6717 15.406 51.7794L15.802 54.7531ZM14.9848 54.8072C15.2608 54.8072 15.5337 54.7889 15.802 54.7531L15.406 51.7794C15.2686 51.7977 15.128 51.8072 14.9848 51.8072L14.9848 54.8072ZM8.83288 48.6553C8.83288 52.0529 11.5872 54.8072 14.9848 54.8072L14.9848 51.8072C13.244 51.8072 11.8329 50.396 11.8329 48.6553L8.83288 48.6553ZM14.9848 42.5034C11.5872 42.5034 8.83288 45.2577 8.83288 48.6553L11.8329 48.6553C11.8329 46.9146 13.244 45.5034 14.9848 45.5034L14.9848 42.5034ZM15.8814 42.5685C15.5879 42.5256 15.2885 42.5034 14.9848 42.5034L14.9848 45.5034C15.1425 45.5034 15.2967 45.5149 15.4467 45.5369L15.8814 42.5685ZM13.3121 39.3428C13.3121 41.1805 13.6462 42.9432 14.2595 44.5793L17.0686 43.5262C16.579 42.2202 16.3121 40.8138 16.3121 39.3428L13.3121 39.3428ZM15.348 31.8121C14.0527 34.0404 13.3121 36.6062 13.3121 39.3428L16.3121 39.3428C16.3121 37.1566 16.9019 35.1085 17.9416 33.3197L15.348 31.8121ZM12.346 30.1411L15.5456 33.5866L17.744 31.5452L14.5443 28.0997L12.346 30.1411ZM12.1497 29.897C12.2088 29.9824 12.2744 30.064 12.3461 30.1412L14.5443 28.0997C14.5698 28.1271 14.5934 28.1565 14.615 28.1876L12.1497 29.897ZM8.02988 29.4463L13.0727 30.51L13.6919 27.5746L8.64909 26.5109L8.02988 29.4463ZM6.33133 26.8396C6.08056 28.0284 6.84101 29.1955 8.02988 29.4463L8.64909 26.5109C9.08141 26.6021 9.35793 27.0264 9.26674 27.4587L6.33133 26.8396ZM8.93805 25.141C7.74919 24.8902 6.58212 25.6507 6.33134 26.8395L9.26674 27.4588C9.17554 27.8911 8.75115 28.1676 8.31885 28.0764L8.93805 25.141ZM13.2448 26.0495L8.93805 25.141L8.31884 28.0764L12.6256 28.9849L13.2448 26.0495ZM10.9815 23.9754L11.4467 27.7029L14.4236 27.3314L13.9584 23.6039L10.9815 23.9754ZM12.8921 21.5199C11.6864 21.6704 10.831 22.7698 10.9815 23.9754L13.9584 23.6039C14.0131 24.0423 13.7021 24.4421 13.2636 24.4968L12.8921 21.5199ZM15.3476 23.4305C15.1972 22.2248 14.0978 21.3694 12.8921 21.5199L13.2637 24.4968C12.8252 24.5515 12.4255 24.2405 12.3707 23.802L15.3476 23.4305ZM15.9096 27.9333L15.3476 23.4305L12.3707 23.802L12.9327 28.3048L15.9096 27.9333ZM15.5702 27.147C15.5207 27.0937 15.4688 27.0431 15.4147 26.9953L13.4276 29.2428C13.408 29.2255 13.3895 29.2074 13.3719 29.1885L15.5702 27.147ZM18.5325 30.337L15.5702 27.147L13.3719 29.1885L16.3342 32.3784L18.5325 30.337ZM20.0658 26.7257C18.5782 27.7603 17.2756 29.0268 16.221 30.4745L18.6458 32.2409C19.4987 31.0701 20.5587 30.0371 21.7787 29.1886L20.0658 26.7257ZM19.3976 27.5975C19.3976 27.7885 19.4108 27.9773 19.4364 28.1628L22.4081 27.7515C22.4012 27.7018 22.3976 27.6505 22.3976 27.5975L19.3976 27.5975ZM19.3976 27.382L19.3976 27.5975L22.3976 27.5975L22.3976 27.382L19.3976 27.382ZM21.2496 23.9528C20.1374 24.6829 19.3976 25.9457 19.3976 27.382L22.3976 27.382C22.3976 26.9985 22.5926 26.6599 22.8958 26.4608L21.2496 23.9528ZM18.7108 22.0022C19.1601 23.5469 19.92 24.9577 20.9169 26.1629L23.2285 24.2507C22.4871 23.3544 21.924 22.3076 21.5914 21.1642L18.7108 22.0022ZM18.2 23.1171L20.1769 23.083L20.1252 20.0835L18.1483 20.1175L18.2 23.1171ZM17.4459 18.2207C14.6565 19.0482 15.291 23.1672 18.2 23.1171L18.1483 20.1175C18.2359 20.116 18.3773 20.154 18.4963 20.2638C18.5984 20.358 18.639 20.4626 18.6511 20.5413C18.6632 20.6201 18.6561 20.7321 18.587 20.8526C18.5066 20.9931 18.3831 21.0719 18.2991 21.0968L17.4459 18.2207ZM19.328 17.6624L17.4459 18.2207L18.2991 21.0968L20.1812 20.5385L19.328 17.6624ZM18.2485 18.7441C18.2485 18.8806 18.2508 19.0167 18.2555 19.1522L21.2537 19.0487C21.2502 18.9476 21.2485 18.8461 21.2485 18.7441L18.2485 18.7441ZM29.8944 7.09814C23.4625 7.09814 18.2485 12.3122 18.2485 18.7441L21.2485 18.7441C21.2485 13.9691 25.1194 10.0981 29.8944 10.0981L29.8944 7.09814ZM41.5403 18.7441C41.5403 12.3122 36.3263 7.09814 29.8944 7.09814L29.8944 10.0981C34.6694 10.0981 38.5403 13.9691 38.5403 18.7441L41.5403 18.7441ZM38.4441 26.6518C40.3646 24.5762 41.5403 21.7958 41.5403 18.7441L38.5403 18.7441C38.5403 21.0111 37.6698 23.0713 36.2421 24.6143L38.4441 26.6518ZM39.5192 27.382C39.5192 26.3209 39.1142 25.3509 38.4527 24.6237L36.2335 26.6424C36.4122 26.8388 36.5192 27.0962 36.5192 27.382L39.5192 27.382ZM39.5192 27.4088L39.5192 27.382L36.5192 27.382L36.5192 27.4088L39.5192 27.4088ZM44.1714 31.3665C42.8341 29.235 40.9828 27.4404 38.7922 26.1233L37.2463 28.6943C39.0473 29.7772 40.552 31.2425 41.6302 32.9609L44.1714 31.3665ZM43.7776 33.3808L47.0273 31.0399L45.2738 28.6057L42.0241 30.9466L43.7776 33.3808ZM45.6277 25.1426L44.6844 29.5058L47.6167 30.1397L48.56 25.7765L45.6277 25.1426ZM48.243 23.4572C47.0554 23.2004 45.8845 23.955 45.6277 25.1426L48.56 25.7765C48.4666 26.2084 48.0409 26.4828 47.609 26.3894L48.243 23.4572ZM49.9284 26.0724C50.1851 24.8848 49.4305 23.7139 48.243 23.4572L47.609 26.3894C47.1772 26.2961 46.9028 25.8703 46.9961 25.4384L49.9284 26.0724ZM49.1115 29.8506L49.9284 26.0724L46.9961 25.4384L46.1793 29.2167L49.1115 29.8506ZM51.5162 28.0337L47.6454 28.0337L47.6454 31.0337L51.5162 31.0337L51.5162 28.0337ZM53.7162 30.2337C53.7162 29.0186 52.7312 28.0337 51.5162 28.0337L51.5162 31.0337C51.0744 31.0337 50.7162 30.6755 50.7162 30.2337L53.7162 30.2337Z" fill="#F8F9FA" mask="url(#path-1-outside-1_50_6201)"/>
<ellipse cx="42.6601" cy="49.3871" rx="4.09646" ry="3.32506" fill="#F8F9FA" stroke="#212529" stroke-width="1.2" stroke-linejoin="round"/>
<path fill-rule="evenodd" clip-rule="evenodd" d="M20.7008 52.7122C19.2381 52.7122 16.9533 52.4834 15.5034 52.6765C15.3267 52.7 15.1465 52.7122 14.9634 52.7122C12.7256 52.7122 10.9115 50.8981 10.9115 48.6603C10.9115 46.4225 12.7256 44.6084 14.9634 44.6084C16.1561 44.6084 17.2284 45.1237 17.9699 45.9439C18.5825 46.6215 19.7874 47.0072 20.7008 47.0072V47.0072C22.2762 47.0072 23.5533 48.2843 23.5533 49.8597C23.5533 51.4351 22.2762 52.7122 20.7008 52.7122V52.7122Z" fill="#F8F9FA"/>
<path d="M20.7008 52.1122C20.3694 52.1122 20.1008 52.3808 20.1008 52.7122C20.1008 53.0436 20.3694 53.3122 20.7008 53.3122V52.1122ZM15.4242 52.0817C15.2737 52.1018 15.1199 52.1122 14.9634 52.1122V53.3122C15.173 53.3122 15.3798 53.2983 15.5826 53.2712L15.4242 52.0817ZM14.9634 52.1122C13.057 52.1122 11.5115 50.5667 11.5115 48.6603H10.3115C10.3115 51.2294 12.3942 53.3122 14.9634 53.3122V52.1122ZM11.5115 48.6603C11.5115 46.7539 13.057 45.2084 14.9634 45.2084V44.0084C12.3942 44.0084 10.3115 46.0911 10.3115 48.6603H11.5115ZM14.9634 45.2084C15.9794 45.2084 16.8923 45.6466 17.5248 46.3463L18.415 45.5415C17.5646 44.6008 16.3327 44.0084 14.9634 44.0084V45.2084ZM20.7008 47.6072C21.9448 47.6072 22.9533 48.6156 22.9533 49.8597H24.1533C24.1533 47.9529 22.6076 46.4072 20.7008 46.4072V47.6072ZM22.9533 49.8597C22.9533 51.1037 21.9448 52.1122 20.7008 52.1122V53.3122C22.6076 53.3122 24.1533 51.7664 24.1533 49.8597H22.9533ZM17.5248 46.3463C17.9175 46.7806 18.4675 47.091 19.0153 47.2927C19.5676 47.496 20.1672 47.6072 20.7008 47.6072V46.4072C20.321 46.4072 19.8615 46.3255 19.4298 46.1666C18.9936 46.006 18.6349 45.7848 18.415 45.5415L17.5248 46.3463ZM15.5826 53.2712C16.252 53.1821 17.1398 53.1885 18.0761 53.2216C18.9863 53.2537 19.9562 53.3122 20.7008 53.3122V52.1122C19.9827 52.1122 19.0789 52.0562 18.1185 52.0223C17.1843 51.9893 16.2048 51.9778 15.4242 52.0817L15.5826 53.2712Z" fill="#212529"/>
<g style="mix-blend-mode:multiply">
<path d="M15.0245 44.9097H16.6187C17.4063 46.8976 21.2601 50.02 23.0886 51.3327L21.6821 52.411C20.3277 51.8135 18.6853 50.8461 17.4029 49.1812C16.2027 47.9059 15.3527 45.7692 15.0245 44.9097Z" fill="#E9ECEF"/>
</g>
<ellipse cx="29.8729" cy="39.3481" rx="14.2822" ry="13.3643" fill="#F8F9FA" stroke="#212529" stroke-width="1.6" stroke-linejoin="round"/>
<g style="mix-blend-mode:multiply">
<path fill-rule="evenodd" clip-rule="evenodd" d="M29.8729 51.9395C36.6149 51.3948 41.9056 46.1012 41.9056 39.6513C41.9056 33.2014 36.6149 27.9078 29.8729 27.3631C30.2515 27.3325 30.6347 27.3169 31.0218 27.3169C38.3018 27.3169 44.2034 32.8392 44.2034 39.6513C44.2034 46.4634 38.3018 51.9857 31.0218 51.9857C30.6347 51.9857 30.2515 51.9701 29.8729 51.9395Z" fill="#E9ECEF"/>
</g>
<circle cx="29.8729" cy="18.7493" r="9.34594" fill="#F8F9FA" stroke="#212529" stroke-width="1.6" stroke-linejoin="round"/>
<g style="mix-blend-mode:multiply">
<path fill-rule="evenodd" clip-rule="evenodd" d="M29.4369 27.3591C33.823 26.9399 37.2532 23.2451 37.2532 18.7492C37.2532 14.2532 33.823 10.5585 29.4369 10.1392C29.7111 10.113 29.9891 10.0996 30.2701 10.0996C35.0472 10.0996 38.9197 13.9722 38.9197 18.7492C38.9197 23.5262 35.0472 27.3988 30.2701 27.3988C29.9891 27.3988 29.7111 27.3854 29.4369 27.3591Z" fill="#E9ECEF"/>
</g>
<path fill-rule="evenodd" clip-rule="evenodd" d="M23.4761 25.3872C22.3715 25.3872 21.4761 26.2826 21.4761 27.3872V27.6027C21.4761 28.3706 21.9089 29.0375 22.5438 29.3726L22.5438 34.1457C22.5438 35.2503 23.4393 36.1457 24.5438 36.1457H24.7593C25.8639 36.1457 26.7593 35.2503 26.7593 34.1457L26.7593 29.6027H35.3977C36.5023 29.6027 37.3977 28.7073 37.3977 27.6027V27.3872C37.3977 26.2826 36.5023 25.3872 35.3977 25.3872H23.4761Z" fill="#FF6B6B"/>
<path d="M22.5438 29.3726L23.1438 29.3726C23.1438 29.1501 23.0207 28.9458 22.8239 28.842L22.5438 29.3726ZM22.5438 34.1457L21.9438 34.1457V34.1457H22.5438ZM26.7593 34.1457L26.1593 34.1457V34.1457H26.7593ZM26.7593 29.6027V29.0027C26.428 29.0027 26.1593 29.2713 26.1593 29.6027L26.7593 29.6027ZM22.0761 27.3872C22.0761 26.614 22.7029 25.9872 23.4761 25.9872V24.7872C22.0401 24.7872 20.8761 25.9513 20.8761 27.3872H22.0761ZM22.0761 27.6027V27.3872H20.8761V27.6027H22.0761ZM22.8239 28.842C22.3779 28.6066 22.0761 28.1394 22.0761 27.6027H20.8761C20.8761 28.6018 21.4398 29.4683 22.2638 29.9032L22.8239 28.842ZM23.1438 34.1457L23.1438 29.3726L21.9438 29.3726L21.9438 34.1457L23.1438 34.1457ZM24.5438 35.5457C23.7706 35.5457 23.1438 34.9189 23.1438 34.1457H21.9438C21.9438 35.5817 23.1079 36.7457 24.5438 36.7457V35.5457ZM24.7593 35.5457H24.5438V36.7457H24.7593V35.5457ZM26.1593 34.1457C26.1593 34.9189 25.5325 35.5457 24.7593 35.5457V36.7457C26.1953 36.7457 27.3593 35.5817 27.3593 34.1457H26.1593ZM26.1593 29.6027L26.1593 34.1457L27.3593 34.1457L27.3593 29.6027L26.1593 29.6027ZM35.3977 29.0027H26.7593V30.2027H35.3977V29.0027ZM36.7977 27.6027C36.7977 28.3759 36.1709 29.0027 35.3977 29.0027V30.2027C36.8337 30.2027 37.9977 29.0386 37.9977 27.6027H36.7977ZM36.7977 27.3872V27.6027H37.9977V27.3872H36.7977ZM35.3977 25.9872C36.1709 25.9872 36.7977 26.614 36.7977 27.3872H37.9977C37.9977 25.9513 36.8337 24.7872 35.3977 24.7872V25.9872ZM23.4761 25.9872H35.3977V24.7872H23.4761V25.9872Z" fill="#212529"/>
<path d="M25.6796 29.6025H28.9438" stroke="#212529" stroke-width="1.2" stroke-linecap="round" stroke-linejoin="round"/>
<g style="mix-blend-mode:multiply">
<path d="M35.6599 25.9839H34.4949C35.3202 26.2083 35.8973 26.8413 35.8797 27.5447C35.8622 28.2481 35.506 28.7589 34.7806 29.0615C34.8979 29.0834 35.2071 29.1142 35.506 29.0615C35.8797 28.9955 36.803 28.6218 36.803 27.5447C36.803 26.683 36.3503 26.236 35.6599 25.9839Z" fill="#E9ECEF"/>
</g>
<path d="M17.9933 20.1432L25.6148 17.8823C26.8247 18.4431 27.0018 19.8596 26.3526 20.981L18.1441 21.1225C17.5623 21.1325 17.4354 20.3087 17.9933 20.1432Z" fill="#F59F00" stroke="#212529" stroke-linecap="round" stroke-linejoin="round"/>
<circle cx="26.7235" cy="14.3474" r="0.702881" fill="#212529"/>
<circle cx="29.6467" cy="34.1492" r="0.702881" fill="#212529"/>
<circle cx="29.6467" cy="37.3401" r="0.702881" fill="#212529"/>
<circle cx="30.2993" cy="14.4832" r="0.702881" fill="#212529"/>
<path d="M8.46249 27.2988L13.7299 28.4099L13.1431 23.7081" stroke="#212529" stroke-width="1.4" stroke-linecap="round" stroke-linejoin="round"/>
<path d="M13.9366 28.6494L19.3057 34.431" stroke="#212529" stroke-width="1.4" stroke-linecap="round" stroke-linejoin="round"/>
<path d="M47.7566 25.6124L46.7565 30.2386L51.4948 30.2386" stroke="#212529" stroke-width="1.4" stroke-linecap="round" stroke-linejoin="round"/>
<path d="M46.7565 30.2383L40.3544 34.85" stroke="#212529" stroke-width="1.4" stroke-linecap="round" stroke-linejoin="round"/>
<g style="mix-blend-mode:soft-light">
<path d="M26.5728 11.8352C26.0203 11.6277 24.9264 12.5198 24.2457 13.2858C23.5494 14.0693 22.6409 15.3754 23.1585 15.7178C23.6761 16.0602 24.8774 14.4023 25.1363 13.9517C25.7105 13.1363 27.1253 12.0427 26.5728 11.8352Z" fill="#F8F9FA"/>
</g>
<circle cx="46.7298" cy="19.2103" r="0.743014" fill="#F8F9FA"/>
<circle cx="7.78385" cy="35.0091" r="1.13651" fill="#F8F9FA"/>
<circle cx="14.8664" cy="11.2361" r="1.13651" fill="#F8F9FA"/>
</svg>
