<svg width="61" height="60" viewBox="0 0 61 60" fill="none" xmlns="http://www.w3.org/2000/svg">
<mask id="path-1-outside-1_50_8357" maskUnits="userSpaceOnUse" x="8.14124" y="7.6416" width="45" height="45" fill="black">
<rect fill="white" x="8.14124" y="7.6416" width="45" height="45"/>
<path fill-rule="evenodd" clip-rule="evenodd" d="M30.4999 9.64163C30.9839 9.64163 31.3762 10.0339 31.3762 10.5179V14.7997L33.4726 12.3408C33.7866 11.9725 34.3396 11.9285 34.7079 12.2425C35.0762 12.5565 35.1202 13.1096 34.8062 13.4778L31.3762 17.5009V23.8602L33.7429 25.5183L38.4184 20.8427L38.7517 15.4384C38.7814 14.9554 39.1972 14.5879 39.6802 14.6177C40.1632 14.6475 40.5306 15.0632 40.5009 15.5463L40.2897 18.9714L43.6566 15.6046C43.9988 15.2624 44.5536 15.2624 44.8958 15.6046C45.238 15.9468 45.238 16.5016 44.8958 16.8438L41.8164 19.9232L44.7093 19.6569C45.1913 19.6126 45.6179 19.9673 45.6622 20.4492C45.7066 20.9311 45.3519 21.3577 44.87 21.4021L39.878 21.8615L35.2002 26.5393L35.6016 26.8205C35.8357 26.9845 35.9751 27.2524 35.9751 27.5382V29.1242H43.1143L47.0515 25.7301C47.4181 25.4141 47.9714 25.4551 48.2874 25.8217C48.6034 26.1882 48.5624 26.7415 48.1958 27.0575L45.7984 29.1242H49.9825C50.4664 29.1242 50.8588 29.5165 50.8588 30.0005C50.8588 30.4844 50.4664 30.8767 49.9825 30.8767H45.7716L48.1922 32.9404C48.5605 33.2544 48.6045 33.8075 48.2905 34.1758C47.9765 34.544 47.4234 34.588 47.0552 34.2741L43.0704 30.8767H35.9751V32.3826C35.9751 32.6648 35.8392 32.9297 35.61 33.0943L35.1578 33.4191L39.7615 38.0229L44.9812 38.4096C45.4638 38.4454 45.8261 38.8656 45.7903 39.3482C45.7546 39.8308 45.3343 40.1931 44.8517 40.1573L41.6595 39.9208L44.8958 43.1572C45.238 43.4994 45.238 44.0542 44.8958 44.3964C44.5536 44.7386 43.9988 44.7386 43.6566 44.3964L40.4398 41.1796L40.6893 44.3146C40.7277 44.7971 40.3677 45.2193 39.8853 45.2577C39.4029 45.296 38.9807 44.9361 38.9423 44.4537L38.5297 39.2696L33.7153 34.4551L31.3762 36.1351V42.5442L34.803 46.5194C35.119 46.8859 35.078 47.4393 34.7115 47.7552C34.3449 48.0712 33.7916 48.0302 33.4756 47.6637L31.3762 45.2283V49.4829C31.3762 49.9668 30.9839 50.3592 30.4999 50.3592C30.016 50.3592 29.6237 49.9668 29.6237 49.4829V45.2779L27.5927 47.66C27.2787 48.0283 26.7256 48.0723 26.3574 47.7583C25.9891 47.4444 25.9451 46.8913 26.2591 46.523L29.6237 42.5766V36.0718L27.3011 34.4385L22.6511 39.0884L22.3136 44.5624C22.2838 45.0455 21.8681 45.4129 21.3851 45.3831C20.9021 45.3533 20.5346 44.9376 20.5644 44.4546L20.7799 40.9597L17.3434 44.3962C17.0012 44.7384 16.4464 44.7384 16.1042 44.3962C15.7619 44.054 15.7619 43.4992 16.1042 43.157L19.1768 40.0843L16.3559 40.3439C15.874 40.3883 15.4474 40.0336 15.403 39.5517C15.3587 39.0698 15.7134 38.6431 16.1953 38.5988L21.1152 38.146L25.846 33.4151L25.397 33.0994C25.1637 32.9353 25.0248 32.6679 25.0248 32.3826V30.8767H17.9511L14.0138 34.2709C13.6472 34.5868 13.0939 34.5458 12.7779 34.1793C12.462 33.8127 12.5029 33.2594 12.8695 32.9435L15.267 30.8767H11.0175C10.5336 30.8767 10.1412 30.4844 10.1412 30.0005C10.1412 29.5165 10.5336 29.1242 11.0175 29.1242H15.2936L12.8731 27.0605C12.5049 26.7465 12.4608 26.1935 12.7748 25.8252C13.0888 25.4569 13.6419 25.4129 14.0101 25.7269L17.9949 29.1242H25.0248V27.5382C25.0248 27.2493 25.1672 26.979 25.4054 26.8156L25.803 26.5428L21.2328 21.9726L16.0843 21.5911C15.6017 21.5554 15.2394 21.1351 15.2752 20.6525C15.311 20.1699 15.7312 19.8076 16.2138 19.8434L19.3348 20.0746L16.1042 16.844C15.762 16.5018 15.762 15.9469 16.1042 15.6047C16.4464 15.2625 17.0012 15.2625 17.3434 15.6047L20.6314 18.8928L20.3762 15.6861C20.3379 15.2037 20.6978 14.7815 21.1802 14.7431C21.6627 14.7047 22.0849 15.0647 22.1233 15.5471L22.5415 20.8028L27.273 25.5344L29.6237 23.9217V17.3808L26.2623 13.4815C25.9463 13.1149 25.9873 12.5616 26.3538 12.2456C26.7204 11.9296 27.2737 11.9706 27.5897 12.3372L29.6237 14.6967V10.5179C29.6237 10.0339 30.016 9.64163 30.4999 9.64163ZM29.6237 26.047L28.5335 26.7949L29.6237 27.885V26.047ZM27.0635 27.8033L26.7773 27.9997V29.1242H28.3844L27.0635 27.8033ZM26.7773 30.8767V31.9276L27.1039 32.1572L28.3844 30.8767H26.7773ZM28.559 33.1806L29.6237 33.9293V32.1159L28.559 33.1806ZM31.3762 33.9774L32.4595 33.1993L31.3762 32.116V33.9774ZM33.902 32.1633L34.2225 31.9331V30.8767H32.6154L33.902 32.1633ZM34.2225 29.1242V27.9942L33.942 27.7976L32.6154 29.1242H34.2225ZM32.4846 26.7765L31.3762 26V27.8849L32.4846 26.7765Z"/>
</mask>
<path fill-rule="evenodd" clip-rule="evenodd" d="M30.4999 9.64163C30.9839 9.64163 31.3762 10.0339 31.3762 10.5179V14.7997L33.4726 12.3408C33.7866 11.9725 34.3396 11.9285 34.7079 12.2425C35.0762 12.5565 35.1202 13.1096 34.8062 13.4778L31.3762 17.5009V23.8602L33.7429 25.5183L38.4184 20.8427L38.7517 15.4384C38.7814 14.9554 39.1972 14.5879 39.6802 14.6177C40.1632 14.6475 40.5306 15.0632 40.5009 15.5463L40.2897 18.9714L43.6566 15.6046C43.9988 15.2624 44.5536 15.2624 44.8958 15.6046C45.238 15.9468 45.238 16.5016 44.8958 16.8438L41.8164 19.9232L44.7093 19.6569C45.1913 19.6126 45.6179 19.9673 45.6622 20.4492C45.7066 20.9311 45.3519 21.3577 44.87 21.4021L39.878 21.8615L35.2002 26.5393L35.6016 26.8205C35.8357 26.9845 35.9751 27.2524 35.9751 27.5382V29.1242H43.1143L47.0515 25.7301C47.4181 25.4141 47.9714 25.4551 48.2874 25.8217C48.6034 26.1882 48.5624 26.7415 48.1958 27.0575L45.7984 29.1242H49.9825C50.4664 29.1242 50.8588 29.5165 50.8588 30.0005C50.8588 30.4844 50.4664 30.8767 49.9825 30.8767H45.7716L48.1922 32.9404C48.5605 33.2544 48.6045 33.8075 48.2905 34.1758C47.9765 34.544 47.4234 34.588 47.0552 34.2741L43.0704 30.8767H35.9751V32.3826C35.9751 32.6648 35.8392 32.9297 35.61 33.0943L35.1578 33.4191L39.7615 38.0229L44.9812 38.4096C45.4638 38.4454 45.8261 38.8656 45.7903 39.3482C45.7546 39.8308 45.3343 40.1931 44.8517 40.1573L41.6595 39.9208L44.8958 43.1572C45.238 43.4994 45.238 44.0542 44.8958 44.3964C44.5536 44.7386 43.9988 44.7386 43.6566 44.3964L40.4398 41.1796L40.6893 44.3146C40.7277 44.7971 40.3677 45.2193 39.8853 45.2577C39.4029 45.296 38.9807 44.9361 38.9423 44.4537L38.5297 39.2696L33.7153 34.4551L31.3762 36.1351V42.5442L34.803 46.5194C35.119 46.8859 35.078 47.4393 34.7115 47.7552C34.3449 48.0712 33.7916 48.0302 33.4756 47.6637L31.3762 45.2283V49.4829C31.3762 49.9668 30.9839 50.3592 30.4999 50.3592C30.016 50.3592 29.6237 49.9668 29.6237 49.4829V45.2779L27.5927 47.66C27.2787 48.0283 26.7256 48.0723 26.3574 47.7583C25.9891 47.4444 25.9451 46.8913 26.2591 46.523L29.6237 42.5766V36.0718L27.3011 34.4385L22.6511 39.0884L22.3136 44.5624C22.2838 45.0455 21.8681 45.4129 21.3851 45.3831C20.9021 45.3533 20.5346 44.9376 20.5644 44.4546L20.7799 40.9597L17.3434 44.3962C17.0012 44.7384 16.4464 44.7384 16.1042 44.3962C15.7619 44.054 15.7619 43.4992 16.1042 43.157L19.1768 40.0843L16.3559 40.3439C15.874 40.3883 15.4474 40.0336 15.403 39.5517C15.3587 39.0698 15.7134 38.6431 16.1953 38.5988L21.1152 38.146L25.846 33.4151L25.397 33.0994C25.1637 32.9353 25.0248 32.6679 25.0248 32.3826V30.8767H17.9511L14.0138 34.2709C13.6472 34.5868 13.0939 34.5458 12.7779 34.1793C12.462 33.8127 12.5029 33.2594 12.8695 32.9435L15.267 30.8767H11.0175C10.5336 30.8767 10.1412 30.4844 10.1412 30.0005C10.1412 29.5165 10.5336 29.1242 11.0175 29.1242H15.2936L12.8731 27.0605C12.5049 26.7465 12.4608 26.1935 12.7748 25.8252C13.0888 25.4569 13.6419 25.4129 14.0101 25.7269L17.9949 29.1242H25.0248V27.5382C25.0248 27.2493 25.1672 26.979 25.4054 26.8156L25.803 26.5428L21.2328 21.9726L16.0843 21.5911C15.6017 21.5554 15.2394 21.1351 15.2752 20.6525C15.311 20.1699 15.7312 19.8076 16.2138 19.8434L19.3348 20.0746L16.1042 16.844C15.762 16.5018 15.762 15.9469 16.1042 15.6047C16.4464 15.2625 17.0012 15.2625 17.3434 15.6047L20.6314 18.8928L20.3762 15.6861C20.3379 15.2037 20.6978 14.7815 21.1802 14.7431C21.6627 14.7047 22.0849 15.0647 22.1233 15.5471L22.5415 20.8028L27.273 25.5344L29.6237 23.9217V17.3808L26.2623 13.4815C25.9463 13.1149 25.9873 12.5616 26.3538 12.2456C26.7204 11.9296 27.2737 11.9706 27.5897 12.3372L29.6237 14.6967V10.5179C29.6237 10.0339 30.016 9.64163 30.4999 9.64163ZM29.6237 26.047L28.5335 26.7949L29.6237 27.885V26.047ZM27.0635 27.8033L26.7773 27.9997V29.1242H28.3844L27.0635 27.8033ZM26.7773 30.8767V31.9276L27.1039 32.1572L28.3844 30.8767H26.7773ZM28.559 33.1806L29.6237 33.9293V32.1159L28.559 33.1806ZM31.3762 33.9774L32.4595 33.1993L31.3762 32.116V33.9774ZM33.902 32.1633L34.2225 31.9331V30.8767H32.6154L33.902 32.1633ZM34.2225 29.1242V27.9942L33.942 27.7976L32.6154 29.1242H34.2225ZM32.4846 26.7765L31.3762 26V27.8849L32.4846 26.7765Z" fill="#F8F9FA"/>
<path d="M31.3762 14.7996H29.8762C29.8762 15.4281 30.268 15.9899 30.8576 16.2071C31.4473 16.4244 32.1099 16.251 32.5177 15.7728L31.3762 14.7996ZM33.4726 12.3408L32.3311 11.3676L32.3311 11.3676L33.4726 12.3408ZM34.8062 13.4778L33.6648 12.5046L33.6648 12.5046L34.8062 13.4778ZM31.3762 17.5009L30.2348 16.5277C30.0033 16.7991 29.8762 17.1442 29.8762 17.5009H31.3762ZM31.3762 23.8601H29.8762C29.8762 24.3494 30.1148 24.8079 30.5155 25.0886L31.3762 23.8601ZM33.7429 25.5182L32.8822 26.7467C33.4785 27.1645 34.2887 27.0937 34.8035 26.5789L33.7429 25.5182ZM38.4184 20.8426L39.4791 21.9033C39.7378 21.6446 39.8931 21.3002 39.9156 20.935L38.4184 20.8426ZM38.7517 15.4384L37.2545 15.3461L37.2545 15.3461L38.7517 15.4384ZM39.6802 14.6177L39.7725 13.1205L39.7725 13.1205L39.6802 14.6177ZM40.5009 15.5462L39.0037 15.4539L39.0037 15.4539L40.5009 15.5462ZM40.2897 18.9714L38.7925 18.8791C38.7541 19.5015 39.1048 20.0827 39.6733 20.3389C40.2417 20.5951 40.9094 20.473 41.3503 20.0321L40.2897 18.9714ZM43.6566 15.6045L42.5959 14.5439L42.5959 14.5439L43.6566 15.6045ZM44.8958 16.8438L43.8351 15.7831L43.8351 15.7831L44.8958 16.8438ZM41.8164 19.9232L40.7557 18.8625C40.309 19.3093 40.19 19.9881 40.4584 20.5602C40.7267 21.1322 41.3247 21.4748 41.9539 21.4168L41.8164 19.9232ZM44.7093 19.6569L44.5719 18.1632L44.5719 18.1632L44.7093 19.6569ZM45.6622 20.4492L47.1559 20.3117L47.1559 20.3117L45.6622 20.4492ZM44.87 21.402L44.7325 19.9084L44.7325 19.9084L44.87 21.402ZM39.878 21.8615L39.7406 20.3678C39.3917 20.3999 39.0651 20.5531 38.8174 20.8008L39.878 21.8615ZM35.2002 26.5393L34.1396 25.4786C33.8261 25.7921 33.6674 26.2282 33.7059 26.6698C33.7445 27.1115 33.9765 27.5134 34.3395 27.7678L35.2002 26.5393ZM35.6016 26.8205L34.7409 28.049L34.7409 28.049L35.6016 26.8205ZM35.9751 29.1242H34.4751C34.4751 29.9526 35.1466 30.6242 35.9751 30.6242V29.1242ZM43.1143 29.1242V30.6242C43.4738 30.6242 43.8214 30.495 44.0937 30.2603L43.1143 29.1242ZM47.0515 25.7301L48.0309 26.8662L48.0309 26.8662L47.0515 25.7301ZM48.2874 25.8216L49.4235 24.8423L49.4235 24.8423L48.2874 25.8216ZM48.1958 27.0575L47.2164 25.9214L47.2164 25.9214L48.1958 27.0575ZM45.7984 29.1242L44.819 27.988C44.3442 28.3974 44.174 29.0589 44.3923 29.6466C44.6107 30.2343 45.1715 30.6242 45.7984 30.6242V29.1242ZM45.7716 30.8767V29.3767C45.1432 29.3767 44.5814 29.7684 44.3641 30.3581C44.1469 30.9478 44.3202 31.6104 44.7985 32.0182L45.7716 30.8767ZM48.1922 32.9404L47.219 34.0819L47.219 34.0819L48.1922 32.9404ZM47.0552 34.274L48.0284 33.1326L48.0284 33.1326L47.0552 34.274ZM43.0704 30.8767L44.0436 29.7352C43.7722 29.5038 43.4271 29.3767 43.0704 29.3767V30.8767ZM35.9751 30.8767V29.3767C35.1466 29.3767 34.4751 30.0483 34.4751 30.8767H35.9751ZM35.61 33.0943L34.735 31.876L34.735 31.876L35.61 33.0943ZM35.1578 33.4191L34.2827 32.2008C33.9252 32.4576 33.6985 32.8585 33.6627 33.2973C33.627 33.7361 33.7858 34.1684 34.0971 34.4797L35.1578 33.4191ZM39.7615 38.0229L38.7009 39.0835C38.9551 39.3377 39.2922 39.4922 39.6507 39.5188L39.7615 38.0229ZM44.9812 38.4096L44.8704 39.9055L44.8704 39.9055L44.9812 38.4096ZM45.7903 39.3482L44.2944 39.2374L44.2944 39.2374L45.7903 39.3482ZM44.8517 40.1573L44.9625 38.6614L44.9625 38.6614L44.8517 40.1573ZM41.6595 39.9208L41.7703 38.4249C41.1451 38.3786 40.557 38.726 40.2958 39.2959C40.0347 39.8659 40.1555 40.5382 40.5988 40.9815L41.6595 39.9208ZM43.6566 44.3964L44.7172 43.3357L44.7172 43.3357L43.6566 44.3964ZM40.4398 41.1796L41.5005 40.1189C41.0561 39.6746 40.3818 39.5543 39.8112 39.8176C39.2406 40.081 38.8947 40.6721 38.9445 41.2986L40.4398 41.1796ZM40.6893 44.3146L42.1845 44.1956L42.1845 44.1956L40.6893 44.3146ZM39.8853 45.2576L40.0043 46.7529L40.0043 46.7529L39.8853 45.2576ZM38.9423 44.4536L37.447 44.5726L37.447 44.5726L38.9423 44.4536ZM38.5297 39.2695L40.025 39.1505C39.9967 38.795 39.8426 38.4611 39.5904 38.2089L38.5297 39.2695ZM33.7153 34.4551L34.776 33.3944C34.2564 32.8749 33.437 32.8081 32.8403 33.2367L33.7153 34.4551ZM31.3762 36.135L30.5012 34.9167C30.1088 35.1985 29.8762 35.652 29.8762 36.135H31.3762ZM31.3762 42.5441H29.8762C29.8762 42.9037 30.0053 43.2512 30.2401 43.5235L31.3762 42.5441ZM34.803 46.5194L33.6669 47.4988L33.6669 47.4988L34.803 46.5194ZM33.4756 47.6636L34.6118 46.6843L34.6117 46.6842L33.4756 47.6636ZM31.3762 45.2283L32.5123 44.2489C32.103 43.774 31.4415 43.6038 30.8538 43.8222C30.2661 44.0405 29.8762 44.6013 29.8762 45.2283H31.3762ZM29.6237 45.2779H31.1237C31.1237 44.6494 30.7319 44.0876 30.1422 43.8703C29.5526 43.6531 28.8899 43.8264 28.4822 44.3047L29.6237 45.2779ZM27.5927 47.66L26.4512 46.6868L26.4512 46.6868L27.5927 47.66ZM26.3574 47.7583L27.3306 46.6169L27.3306 46.6169L26.3574 47.7583ZM26.2591 46.523L27.4005 47.4962L27.4005 47.4962L26.2591 46.523ZM29.6237 42.5766L30.7651 43.5498C30.9966 43.2784 31.1237 42.9333 31.1237 42.5766H29.6237ZM29.6237 36.0718H31.1237C31.1237 35.5835 30.886 35.1257 30.4866 34.8448L29.6237 36.0718ZM27.3011 34.4384L28.164 33.2115C27.5676 32.7921 26.756 32.8622 26.2405 33.3778L27.3011 34.4384ZM22.6511 39.0884L21.5905 38.0277C21.3317 38.2865 21.1765 38.6309 21.154 38.9961L22.6511 39.0884ZM22.3136 44.5624L23.8108 44.6547L23.8108 44.6547L22.3136 44.5624ZM21.3851 45.3831L21.4774 43.8859L21.4774 43.8859L21.3851 45.3831ZM20.5644 44.4546L22.0616 44.5469L22.0616 44.5469L20.5644 44.4546ZM20.7799 40.9596L22.2771 41.052C22.3154 40.4296 21.9648 39.8484 21.3963 39.5922C20.8279 39.3359 20.1602 39.4581 19.7192 39.899L20.7799 40.9596ZM17.3434 44.3962L18.404 45.4568L18.404 45.4568L17.3434 44.3962ZM16.1042 44.3962L15.0435 45.4568L15.0435 45.4568L16.1042 44.3962ZM16.1042 43.1569L17.1648 44.2176L17.1648 44.2176L16.1042 43.1569ZM19.1768 40.0843L20.2375 41.1449C20.6843 40.6982 20.8032 40.0193 20.5348 39.4473C20.2665 38.8752 19.6685 38.5327 19.0393 38.5906L19.1768 40.0843ZM16.3559 40.3439L16.4934 41.8376L16.4934 41.8376L16.3559 40.3439ZM15.403 39.5516L13.9094 39.6891L13.9094 39.6891L15.403 39.5516ZM16.1953 38.5988L16.3328 40.0924L16.3328 40.0924L16.1953 38.5988ZM21.1152 38.1459L21.2526 39.6396C21.6015 39.6075 21.9281 39.4543 22.1758 39.2066L21.1152 38.1459ZM25.846 33.4151L26.9066 34.4758C27.2198 34.1626 27.3786 33.7271 27.3404 33.2859C27.3023 32.8447 27.0711 32.4429 26.7089 32.1881L25.846 33.4151ZM25.397 33.0993L26.2599 31.8724L26.2599 31.8724L25.397 33.0993ZM25.0248 30.8767H26.5248C26.5248 30.0483 25.8532 29.3767 25.0248 29.3767V30.8767ZM17.9511 30.8767V29.3767C17.5916 29.3767 17.244 29.5058 16.9717 29.7406L17.9511 30.8767ZM14.0138 34.2708L14.9932 35.407L14.9932 35.407L14.0138 34.2708ZM12.7779 34.1793L13.9141 33.1999L13.9141 33.1999L12.7779 34.1793ZM12.8695 32.9434L13.8489 34.0796L13.8489 34.0796L12.8695 32.9434ZM15.267 30.8767L16.2464 32.0128C16.7212 31.6035 16.8914 30.942 16.6731 30.3543C16.4547 29.7666 15.8939 29.3767 15.267 29.3767V30.8767ZM15.2936 29.1242V30.6242C15.9221 30.6242 16.4839 30.2324 16.7011 29.6427C16.9184 29.053 16.745 28.3904 16.2668 27.9827L15.2936 29.1242ZM12.8731 27.0605L11.8999 28.202L11.8999 28.202L12.8731 27.0605ZM12.7748 25.8252L13.9163 26.7984L13.9163 26.7984L12.7748 25.8252ZM14.0101 25.7269L13.037 26.8683L13.037 26.8683L14.0101 25.7269ZM17.9949 29.1242L17.0217 30.2656C17.2931 30.497 17.6381 30.6242 17.9949 30.6242V29.1242ZM25.0248 29.1242V30.6242C25.8532 30.6242 26.5248 29.9526 26.5248 29.1242H25.0248ZM25.4054 26.8156L26.2539 28.0525L26.2539 28.0525L25.4054 26.8156ZM25.803 26.5428L26.6516 27.7797C27.0193 27.5274 27.2557 27.1247 27.2966 26.6807C27.3376 26.2367 27.179 25.7974 26.8637 25.4821L25.803 26.5428ZM21.2328 21.9725L22.2934 20.9119C22.0392 20.6577 21.7021 20.5032 21.3436 20.4766L21.2328 21.9725ZM16.0843 21.5911L16.1952 20.0952L16.1952 20.0952L16.0843 21.5911ZM15.2752 20.6525L16.7711 20.7633L16.7711 20.7633L15.2752 20.6525ZM16.2138 19.8434L16.103 21.3393L16.103 21.3393L16.2138 19.8434ZM19.3348 20.0746L19.224 21.5705C19.8492 21.6168 20.4373 21.2694 20.6985 20.6995C20.9596 20.1295 20.8388 19.4572 20.3955 19.0139L19.3348 20.0746ZM16.1042 16.8439L17.1648 15.7833L17.1648 15.7833L16.1042 16.8439ZM16.1042 15.6047L17.1648 16.6654L17.1648 16.6654L16.1042 15.6047ZM20.6314 18.8927L19.5708 19.9534C20.0151 20.3978 20.6894 20.518 21.26 20.2547C21.8306 19.9913 22.1765 19.4002 22.1267 18.7738L20.6314 18.8927ZM20.3762 15.6861L18.881 15.8051L18.881 15.8051L20.3762 15.6861ZM21.1802 14.7431L21.0613 13.2478L21.0613 13.2478L21.1802 14.7431ZM22.1233 15.547L20.628 15.666L20.628 15.666L22.1233 15.547ZM22.5415 20.8028L21.0462 20.9218C21.0745 21.2774 21.2286 21.6112 21.4808 21.8635L22.5415 20.8028ZM27.273 25.5343L26.2123 26.595C26.7232 27.1059 27.5258 27.18 28.1216 26.7712L27.273 25.5343ZM29.6237 23.9217L30.4722 25.1586C30.88 24.8789 31.1237 24.4162 31.1237 23.9217H29.6237ZM29.6237 17.3808H31.1237C31.1237 17.0213 30.9946 16.6737 30.7598 16.4014L29.6237 17.3808ZM26.2623 13.4814L25.1261 14.4608L25.1261 14.4608L26.2623 13.4814ZM26.3538 12.2456L25.3744 11.1095L25.3744 11.1095L26.3538 12.2456ZM27.5897 12.3372L26.4535 13.3165L26.4535 13.3165L27.5897 12.3372ZM29.6237 14.6967L28.4876 15.6761C28.8969 16.1509 29.5584 16.3211 30.1461 16.1028C30.7338 15.8844 31.1237 15.3236 31.1237 14.6967H29.6237ZM29.6237 26.047H31.1237C31.1237 25.4902 30.8153 24.9792 30.3227 24.7198C29.83 24.4603 29.2342 24.4951 28.7751 24.8101L29.6237 26.047ZM28.5335 26.7949L27.685 25.5579C27.3173 25.8102 27.0809 26.213 27.0399 26.657C26.9989 27.101 27.1576 27.5402 27.4729 27.8555L28.5335 26.7949ZM29.6237 27.885L28.563 28.9457C28.992 29.3747 29.6372 29.503 30.1977 29.2708C30.7582 29.0387 31.1237 28.4917 31.1237 27.885H29.6237ZM27.0635 27.8033L28.1242 26.7427C27.6133 26.2318 26.8108 26.1577 26.215 26.5664L27.0635 27.8033ZM26.7773 27.9997L25.9288 26.7627C25.521 27.0425 25.2773 27.5052 25.2773 27.9997H26.7773ZM26.7773 29.1242H25.2773C25.2773 29.9526 25.9489 30.6242 26.7773 30.6242V29.1242ZM28.3844 29.1242V30.6242C28.9911 30.6242 29.538 30.2587 29.7702 29.6982C30.0024 29.1377 29.874 28.4925 29.445 28.0635L28.3844 29.1242ZM26.7773 30.8767V29.3767C25.9489 29.3767 25.2773 30.0483 25.2773 30.8767H26.7773ZM26.7773 31.9276H25.2773C25.2773 32.4159 25.515 32.8736 25.9145 33.1545L26.7773 31.9276ZM27.1039 32.1572L26.241 33.3842C26.8374 33.8036 27.649 33.7334 28.1645 33.2179L27.1039 32.1572ZM28.3844 30.8767L29.4451 31.9374C29.8741 31.5084 30.0024 30.8632 29.7702 30.3027C29.538 29.7422 28.9911 29.3767 28.3844 29.3767V30.8767ZM28.559 33.1805L27.4983 32.1199C27.1852 32.433 27.0264 32.8685 27.0646 33.3097C27.1027 33.751 27.3339 34.1528 27.6961 34.4075L28.559 33.1805ZM29.6237 33.9293L28.7608 35.1562C29.2188 35.4783 29.818 35.5185 30.3149 35.2605C30.8118 35.0025 31.1237 34.4892 31.1237 33.9293H29.6237ZM29.6237 32.1159H31.1237C31.1237 31.5092 30.7582 30.9622 30.1977 30.73C29.6372 30.4979 28.992 30.6262 28.563 31.0552L29.6237 32.1159ZM31.3762 33.9773H29.8762C29.8762 34.5399 30.191 35.0552 30.6916 35.312C31.1921 35.5687 31.7943 35.5238 32.2512 35.1957L31.3762 33.9773ZM32.4595 33.1993L33.3345 34.4176C33.6921 34.1608 33.9188 33.7599 33.9546 33.3211C33.9903 32.8823 33.8315 32.4499 33.5202 32.1386L32.4595 33.1993ZM31.3762 32.116L32.4369 31.0553C32.0079 30.6263 31.3627 30.498 30.8022 30.7302C30.2417 30.9623 29.8762 31.5093 29.8762 32.116H31.3762ZM33.902 32.1633L32.8413 33.224C33.3608 33.7435 34.1802 33.8102 34.777 33.3816L33.902 32.1633ZM34.2225 31.9331L35.0976 33.1514C35.4899 32.8696 35.7225 32.4161 35.7225 31.9331H34.2225ZM34.2225 30.8767H35.7225C35.7225 30.0483 35.051 29.3767 34.2225 29.3767V30.8767ZM32.6154 30.8767V29.3767C32.0087 29.3767 31.4617 29.7422 31.2295 30.3027C30.9974 30.8632 31.1257 31.5084 31.5547 31.9374L32.6154 30.8767ZM34.2225 29.1242V30.6242C35.051 30.6242 35.7225 29.9526 35.7225 29.1242H34.2225ZM34.2225 27.9942H35.7225C35.7225 27.5049 35.4839 27.0464 35.0832 26.7657L34.2225 27.9942ZM33.942 27.7976L34.8027 26.5691C34.2064 26.1513 33.3961 26.2221 32.8813 26.7369L33.942 27.7976ZM32.6154 29.1242L31.5547 28.0635C31.1257 28.4925 30.9974 29.1377 31.2296 29.6982C31.4617 30.2587 32.0087 30.6242 32.6154 30.6242V29.1242ZM32.4846 26.7765L33.5452 27.8372C33.8587 27.5237 34.0175 27.0876 33.9789 26.646C33.9403 26.2043 33.7083 25.8024 33.3453 25.548L32.4846 26.7765ZM31.3762 26L32.2369 24.7715C31.7787 24.4505 31.18 24.4111 30.6838 24.6694C30.1875 24.9276 29.8762 25.4406 29.8762 26H31.3762ZM31.3762 27.8849H29.8762C29.8762 28.4916 30.2417 29.0385 30.8022 29.2707C31.3627 29.5029 32.0079 29.3745 32.4369 28.9455L31.3762 27.8849ZM32.8762 10.5179C32.8762 9.20549 31.8123 8.1416 30.4999 8.1416V11.1416C30.1555 11.1416 29.8762 10.8623 29.8762 10.5179H32.8762ZM32.8762 14.7996V10.5179H29.8762V14.7996H32.8762ZM32.3311 11.3676L30.2348 13.8264L32.5177 15.7728L34.614 13.314L32.3311 11.3676ZM35.6811 11.101C34.6824 10.2496 33.1826 10.3689 32.3311 11.3676L34.614 13.314C34.3905 13.5761 33.9969 13.6074 33.7347 13.3839L35.6811 11.101ZM35.9477 14.451C36.7991 13.4523 36.6798 11.9525 35.6811 11.101L33.7347 13.3839C33.4726 13.1604 33.4413 12.7668 33.6648 12.5046L35.9477 14.451ZM32.5177 18.474L35.9477 14.451L33.6648 12.5046L30.2348 16.5277L32.5177 18.474ZM32.8762 23.8601V17.5009H29.8762V23.8601H32.8762ZM30.5155 25.0886L32.8822 26.7467L34.6036 24.2897L32.2369 22.6316L30.5155 25.0886ZM37.3578 19.782L32.6822 24.4576L34.8035 26.5789L39.4791 21.9033L37.3578 19.782ZM37.2545 15.3461L36.9213 20.7503L39.9156 20.935L40.2488 15.5307L37.2545 15.3461ZM39.7725 13.1205C38.4626 13.0398 37.3353 14.0362 37.2545 15.3461L40.2488 15.5307C40.2276 15.8745 39.9317 16.1361 39.5879 16.1149L39.7725 13.1205ZM41.998 15.6385C42.0788 14.3286 41.0824 13.2013 39.7725 13.1205L39.5879 16.1149C39.2441 16.0937 38.9825 15.7977 39.0037 15.4539L41.998 15.6385ZM41.7868 19.0637L41.998 15.6385L39.0037 15.4539L38.7925 18.8791L41.7868 19.0637ZM42.5959 14.5439L39.229 17.9108L41.3503 20.0321L44.7172 16.6652L42.5959 14.5439ZM45.9564 14.5439C45.0285 13.6159 43.5239 13.6159 42.5959 14.5439L44.7172 16.6652C44.4736 16.9088 44.0787 16.9088 43.8351 16.6652L45.9564 14.5439ZM45.9564 17.9044C46.8844 16.9764 46.8844 15.4719 45.9564 14.5439L43.8351 16.6652C43.5915 16.4216 43.5915 16.0267 43.8351 15.7831L45.9564 17.9044ZM42.8771 20.9838L45.9565 17.9044L43.8351 15.7831L40.7557 18.8625L42.8771 20.9838ZM44.5719 18.1632L41.6789 18.4295L41.9539 21.4168L44.8468 21.1506L44.5719 18.1632ZM47.1559 20.3117C47.0356 19.0048 45.8787 18.0429 44.5719 18.1632L44.8468 21.1506C44.5038 21.1821 44.2001 20.9297 44.1685 20.5866L47.1559 20.3117ZM45.0074 22.8957C46.3143 22.7754 47.2762 21.6185 47.1559 20.3117L44.1685 20.5866C44.137 20.2436 44.3895 19.9399 44.7325 19.9084L45.0074 22.8957ZM40.0155 23.3552L45.0074 22.8957L44.7325 19.9084L39.7406 20.3678L40.0155 23.3552ZM36.2609 27.6L40.9387 22.9222L38.8174 20.8008L34.1396 25.4786L36.2609 27.6ZM34.3395 27.7678L34.7409 28.049L36.4623 25.592L36.0609 25.3108L34.3395 27.7678ZM34.7409 28.049C34.5743 27.9323 34.4751 27.7416 34.4751 27.5382H37.4751C37.4751 26.7631 37.0971 26.0367 36.4623 25.592L34.7409 28.049ZM34.4751 27.5382V29.1242H37.4751V27.5382H34.4751ZM43.1143 27.6242H35.9751V30.6242H43.1143V27.6242ZM46.0722 24.594L42.1349 27.988L44.0937 30.2603L48.0309 26.8662L46.0722 24.594ZM49.4235 24.8423C48.5666 23.8482 47.0662 23.7371 46.0722 24.594L48.0309 26.8662C47.77 27.0911 47.3762 27.062 47.1513 26.801L49.4235 24.8423ZM49.1752 28.1936C50.1692 27.3367 50.2804 25.8363 49.4235 24.8423L47.1513 26.801C46.9263 26.5401 46.9555 26.1463 47.2164 25.9214L49.1752 28.1936ZM46.7778 30.2603L49.1752 28.1936L47.2164 25.9214L44.819 27.988L46.7778 30.2603ZM49.9825 27.6242H45.7984V30.6242H49.9825V27.6242ZM52.3588 30.0004C52.3588 28.6881 51.2949 27.6242 49.9825 27.6242V30.6242C49.638 30.6242 49.3588 30.3449 49.3588 30.0004H52.3588ZM49.9825 32.3767C51.2949 32.3767 52.3588 31.3128 52.3588 30.0004H49.3588C49.3588 29.656 49.638 29.3767 49.9825 29.3767V32.3767ZM45.7716 32.3767H49.9825V29.3767H45.7716V32.3767ZM49.1654 31.799L46.7448 29.7352L44.7985 32.0182L47.219 34.0819L49.1654 31.799ZM49.4319 35.1489C50.2834 34.1502 50.1641 32.6504 49.1654 31.799L47.219 34.0819C46.9569 33.8584 46.9255 33.4647 47.149 33.2026L49.4319 35.1489ZM46.082 35.4155C47.0807 36.2669 48.5805 36.1476 49.4319 35.1489L47.149 33.2026C47.3725 32.9404 47.7662 32.9091 48.0284 33.1326L46.082 35.4155ZM42.0972 32.0182L46.082 35.4155L48.0284 33.1326L44.0436 29.7352L42.0972 32.0182ZM35.9751 32.3767H43.0704V29.3767H35.9751V32.3767ZM34.4751 30.8767V32.3826H37.4751V30.8767H34.4751ZM34.4751 32.3826C34.4751 32.1817 34.5718 31.9931 34.735 31.876L36.485 34.3126C37.1065 33.8662 37.4751 33.1478 37.4751 32.3826H34.4751ZM34.735 31.876L34.2827 32.2008L36.0328 34.6374L36.485 34.3126L34.735 31.876ZM40.8222 36.9622L36.2184 32.3584L34.0971 34.4797L38.7009 39.0835L40.8222 36.9622ZM45.092 36.9137L39.8724 36.527L39.6507 39.5188L44.8704 39.9055L45.092 36.9137ZM47.2862 39.459C47.3832 38.1502 46.4008 37.0106 45.092 36.9137L44.8704 39.9055C44.5268 39.88 44.269 39.5809 44.2944 39.2374L47.2862 39.459ZM44.7409 41.6532C46.0496 41.7502 47.1892 40.7678 47.2862 39.459L44.2944 39.2374C44.3199 38.8938 44.619 38.636 44.9625 38.6614L44.7409 41.6532ZM41.5486 41.4167L44.7409 41.6532L44.9625 38.6614L41.7703 38.4249L41.5486 41.4167ZM45.9565 42.0965L42.7201 38.8601L40.5988 40.9815L43.8351 44.2178L45.9565 42.0965ZM45.9565 45.457C46.8844 44.529 46.8844 43.0245 45.9565 42.0965L43.8351 44.2178C43.5916 43.9742 43.5916 43.5793 43.8351 43.3357L45.9565 45.457ZM42.5959 45.457C43.5239 46.385 45.0285 46.385 45.9565 45.457L43.8351 43.3357C44.0787 43.0921 44.4736 43.0921 44.7172 43.3357L42.5959 45.457ZM39.3791 42.2403L42.5959 45.457L44.7172 43.3357L41.5005 40.1189L39.3791 42.2403ZM42.1845 44.1956L41.9351 41.0606L38.9445 41.2986L39.194 44.4336L42.1845 44.1956ZM40.0043 46.7529C41.3125 46.6488 42.2886 45.5039 42.1845 44.1956L39.194 44.4336C39.1667 44.0902 39.4229 43.7897 39.7663 43.7623L40.0043 46.7529ZM37.447 44.5726C37.5511 45.8808 38.696 46.857 40.0043 46.7529L39.7663 43.7623C40.1097 43.735 40.4102 43.9912 40.4375 44.3346L37.447 44.5726ZM37.0345 39.3885L37.447 44.5726L40.4375 44.3346L40.025 39.1505L37.0345 39.3885ZM32.6546 35.5157L37.4691 40.3302L39.5904 38.2089L34.776 33.3944L32.6546 35.5157ZM32.8403 33.2367L30.5012 34.9167L32.2512 37.3534L34.5903 35.6734L32.8403 33.2367ZM32.8762 42.5441V36.135H29.8762V42.5441H32.8762ZM35.9392 45.54L32.5123 41.5648L30.2401 43.5235L33.6669 47.4988L35.9392 45.54ZM35.6909 48.8913C36.6849 48.0344 36.796 46.534 35.9392 45.54L33.6669 47.4988C33.442 47.2378 33.4712 46.844 33.7321 46.6191L35.6909 48.8913ZM32.3395 48.643C33.1964 49.6371 34.6968 49.7482 35.6909 48.8913L33.7321 46.6191C33.993 46.3942 34.3868 46.4233 34.6118 46.6843L32.3395 48.643ZM30.2401 46.2076L32.3395 48.643L34.6117 46.6842L32.5123 44.2489L30.2401 46.2076ZM32.8762 49.4829V45.2283H29.8762V49.4829H32.8762ZM30.4999 51.8591C31.8123 51.8591 32.8762 50.7952 32.8762 49.4829H29.8762C29.8762 49.1384 30.1555 48.8591 30.4999 48.8591V51.8591ZM28.1237 49.4829C28.1237 50.7952 29.1876 51.8591 30.4999 51.8591V48.8591C30.8444 48.8591 31.1237 49.1384 31.1237 49.4829H28.1237ZM28.1237 45.2779V49.4829H31.1237V45.2779H28.1237ZM28.7341 48.6332L30.7651 46.251L28.4822 44.3047L26.4512 46.6868L28.7341 48.6332ZM25.3842 48.8998C26.3829 49.7512 27.8827 49.6319 28.7342 48.6332L26.4512 46.6868C26.6747 46.4247 27.0684 46.3934 27.3306 46.6169L25.3842 48.8998ZM25.1176 45.5498C24.2662 46.5485 24.3855 48.0483 25.3842 48.8998L27.3306 46.6169C27.5927 46.8403 27.624 47.234 27.4005 47.4962L25.1176 45.5498ZM28.4822 41.6034L25.1176 45.5498L27.4005 47.4962L30.7651 43.5498L28.4822 41.6034ZM28.1237 36.0718V42.5766H31.1237V36.0718H28.1237ZM30.4866 34.8448L28.164 33.2115L26.4382 35.6654L28.7608 37.2988L30.4866 34.8448ZM23.7118 40.1491L28.3618 35.4991L26.2405 33.3778L21.5905 38.0277L23.7118 40.1491ZM23.8108 44.6547L24.1483 39.1807L21.154 38.9961L20.8165 44.4701L23.8108 44.6547ZM21.2928 46.8803C22.6027 46.961 23.73 45.9646 23.8108 44.6547L20.8165 44.4701C20.8377 44.1263 21.1336 43.8647 21.4774 43.8859L21.2928 46.8803ZM19.0673 44.3623C18.9865 45.6721 19.9829 46.7995 21.2928 46.8803L21.4774 43.8859C21.8212 43.9071 22.0828 44.203 22.0616 44.5469L19.0673 44.3623ZM19.2827 40.8673L19.0673 44.3623L22.0616 44.5469L22.2771 41.052L19.2827 40.8673ZM18.404 45.4568L21.8406 42.0203L19.7192 39.899L16.2827 43.3355L18.404 45.4568ZM15.0435 45.4568C15.9715 46.3848 17.476 46.3848 18.404 45.4568L16.2827 43.3355C16.5263 43.0919 16.9212 43.0919 17.1648 43.3355L15.0435 45.4568ZM15.0435 42.0963C14.1155 43.0243 14.1155 44.5288 15.0435 45.4568L17.1648 43.3355C17.4084 43.5791 17.4084 43.974 17.1648 44.2176L15.0435 42.0963ZM18.1162 39.0236L15.0435 42.0963L17.1648 44.2176L20.2375 41.1449L18.1162 39.0236ZM16.4934 41.8376L19.3143 41.578L19.0393 38.5906L16.2185 38.8502L16.4934 41.8376ZM13.9094 39.6891C14.0296 40.996 15.1866 41.9579 16.4934 41.8376L16.2185 38.8502C16.5615 38.8186 16.8652 39.0711 16.8967 39.4142L13.9094 39.6891ZM16.0578 37.1051C14.751 37.2253 13.7891 38.3823 13.9094 39.6891L16.8967 39.4142C16.9283 39.7572 16.6758 40.0609 16.3328 40.0924L16.0578 37.1051ZM20.9777 36.6522L16.0578 37.1051L16.3328 40.0924L21.2526 39.6396L20.9777 36.6522ZM24.7853 32.3544L20.0545 37.0853L22.1758 39.2066L26.9066 34.4758L24.7853 32.3544ZM26.7089 32.1881L26.2599 31.8724L24.5341 34.3263L24.9831 34.6421L26.7089 32.1881ZM26.2599 31.8724C26.426 31.9892 26.5248 32.1795 26.5248 32.3826H23.5248C23.5248 33.1562 23.9013 33.8813 24.5341 34.3263L26.2599 31.8724ZM26.5248 32.3826V30.8767H23.5248V32.3826H26.5248ZM17.9511 32.3767H25.0248V29.3767H17.9511V32.3767ZM14.9932 35.407L18.9305 32.0128L16.9717 29.7406L13.0344 33.1347L14.9932 35.407ZM11.6418 35.1587C12.4987 36.1527 13.9992 36.2638 14.9932 35.407L13.0344 33.1347C13.2953 32.9098 13.6891 32.939 13.9141 33.1999L11.6418 35.1587ZM11.8901 31.8073C10.8961 32.6642 10.7849 34.1646 11.6418 35.1587L13.9141 33.1999C14.139 33.4608 14.1098 33.8546 13.8489 34.0796L11.8901 31.8073ZM14.2876 29.7406L11.8901 31.8073L13.8489 34.0796L16.2464 32.0128L14.2876 29.7406ZM11.0175 32.3767H15.267V29.3767H11.0175V32.3767ZM8.64124 30.0004C8.64124 31.3128 9.70513 32.3767 11.0175 32.3767V29.3767C11.362 29.3767 11.6412 29.6559 11.6412 30.0004H8.64124ZM11.0175 27.6242C9.70513 27.6242 8.64124 28.688 8.64124 30.0004H11.6412C11.6412 30.3449 11.362 30.6242 11.0175 30.6242V27.6242ZM15.2936 27.6242H11.0175V30.6242H15.2936V27.6242ZM11.8999 28.202L14.3204 30.2656L16.2668 27.9827L13.8463 25.919L11.8999 28.202ZM11.6334 24.852C10.7819 25.8507 10.9013 27.3505 11.8999 28.202L13.8463 25.919C14.1084 26.1425 14.1398 26.5362 13.9163 26.7984L11.6334 24.852ZM14.9833 24.5854C13.9847 23.734 12.4848 23.8533 11.6334 24.852L13.9163 26.7984C13.6928 27.0605 13.2991 27.0918 13.037 26.8683L14.9833 24.5854ZM18.968 27.9827L14.9833 24.5854L13.037 26.8683L17.0217 30.2656L18.968 27.9827ZM25.0248 27.6242H17.9949V30.6242H25.0248V27.6242ZM26.5248 29.1242V27.5382H23.5248V29.1242H26.5248ZM26.5248 27.5382C26.5248 27.7438 26.4235 27.9362 26.2539 28.0525L24.5568 25.5787C23.9108 26.0218 23.5248 26.7548 23.5248 27.5382H26.5248ZM26.2539 28.0525L26.6516 27.7797L24.9544 25.3059L24.5568 25.5787L26.2539 28.0525ZM20.1721 23.0332L24.7423 27.6034L26.8637 25.4821L22.2934 20.9119L20.1721 23.0332ZM15.9735 23.087L21.1219 23.4684L21.3436 20.4766L16.1952 20.0952L15.9735 23.087ZM13.7793 20.5417C13.6823 21.8504 14.6647 22.99 15.9735 23.087L16.1952 20.0952C16.5387 20.1207 16.7966 20.4198 16.7711 20.7633L13.7793 20.5417ZM16.3247 18.3475C15.0159 18.2505 13.8763 19.2329 13.7793 20.5417L16.7711 20.7633C16.7457 21.1068 16.4465 21.3647 16.103 21.3393L16.3247 18.3475ZM19.4456 18.5787L16.3247 18.3475L16.103 21.3393L19.224 21.5705L19.4456 18.5787ZM15.0435 17.9046L18.2741 21.1352L20.3955 19.0139L17.1648 15.7833L15.0435 17.9046ZM15.0435 14.5441C14.1155 15.472 14.1155 16.9766 15.0435 17.9046L17.1648 15.7833C17.4084 16.0269 17.4084 16.4218 17.1648 16.6654L15.0435 14.5441ZM18.404 14.5441C17.4761 13.6161 15.9715 13.6161 15.0435 14.5441L17.1648 16.6654C16.9212 16.909 16.5263 16.909 16.2827 16.6654L18.404 14.5441ZM21.6921 17.8321L18.404 14.5441L16.2827 16.6654L19.5708 19.9534L21.6921 17.8321ZM18.881 15.8051L19.1361 19.0117L22.1267 18.7738L21.8715 15.5671L18.881 15.8051ZM21.0613 13.2478C19.753 13.3519 18.7769 14.4968 18.881 15.8051L21.8715 15.5671C21.8988 15.9105 21.6426 16.211 21.2992 16.2383L21.0613 13.2478ZM23.6185 15.4281C23.5144 14.1198 22.3695 13.1437 21.0613 13.2478L21.2992 16.2383C20.9558 16.2657 20.6553 16.0094 20.628 15.666L23.6185 15.4281ZM24.0368 20.6838L23.6185 15.4281L20.628 15.666L21.0462 20.9218L24.0368 20.6838ZM28.3337 24.4737L23.6021 19.7421L21.4808 21.8635L26.2123 26.595L28.3337 24.4737ZM28.1216 26.7712L30.4722 25.1586L28.7751 22.6848L26.4244 24.2974L28.1216 26.7712ZM28.1237 17.3808V23.9217H31.1237V17.3808H28.1237ZM25.1261 14.4608L28.4876 18.3602L30.7598 16.4014L27.3984 12.502L25.1261 14.4608ZM25.3744 11.1095C24.3804 11.9663 24.2692 13.4668 25.1261 14.4608L27.3984 12.502C27.6233 12.763 27.5941 13.1568 27.3332 13.3817L25.3744 11.1095ZM28.7258 11.3578C27.8689 10.3637 26.3684 10.2526 25.3744 11.1095L27.3332 13.3817C27.0723 13.6066 26.6784 13.5775 26.4535 13.3165L28.7258 11.3578ZM30.7598 13.7173L28.7258 11.3578L26.4535 13.3165L28.4876 15.6761L30.7598 13.7173ZM28.1237 10.5179V14.6967H31.1237V10.5179H28.1237ZM30.4999 8.1416C29.1876 8.1416 28.1237 9.20549 28.1237 10.5179H31.1237C31.1237 10.8623 30.8444 11.1416 30.4999 11.1416V8.1416ZM28.7751 24.8101L27.685 25.5579L29.3821 28.0318L30.4722 27.2839L28.7751 24.8101ZM30.6843 26.8243L29.5942 25.7342L27.4729 27.8555L28.563 28.9457L30.6843 26.8243ZM28.1237 26.047V27.885H31.1237V26.047H28.1237ZM26.215 26.5664L25.9288 26.7627L27.6259 29.2366L27.9121 29.0402L26.215 26.5664ZM25.2773 27.9997V29.1242H28.2773V27.9997H25.2773ZM28.3844 27.6242H26.7773V30.6242H28.3844V27.6242ZM26.0029 28.864L27.3237 30.1848L29.445 28.0635L28.1242 26.7427L26.0029 28.864ZM25.2773 30.8767V31.9276H28.2773V30.8767H25.2773ZM25.9145 33.1545L26.241 33.3842L27.9668 30.9302L27.6402 30.7006L25.9145 33.1545ZM27.3237 29.816L26.0432 31.0966L28.1645 33.2179L29.4451 31.9374L27.3237 29.816ZM26.7773 32.3767H28.3844V29.3767H26.7773V32.3767ZM27.6961 34.4075L28.7608 35.1562L30.4866 32.7023L29.4219 31.9536L27.6961 34.4075ZM28.1237 32.1159V33.9293H31.1237V32.1159H28.1237ZM29.6197 34.2412L30.6843 33.1765L28.563 31.0552L27.4983 32.1199L29.6197 34.2412ZM32.2512 35.1957L33.3345 34.4176L31.5845 31.981L30.5012 32.759L32.2512 35.1957ZM30.3156 33.1767L31.3989 34.26L33.5202 32.1386L32.4369 31.0553L30.3156 33.1767ZM32.8762 33.9773V32.116H29.8762V33.9773H32.8762ZM34.777 33.3816L35.0976 33.1514L33.3475 30.7147L33.027 30.945L34.777 33.3816ZM35.7225 31.9331V30.8767H32.7225V31.9331H35.7225ZM32.6154 32.3767H34.2225V29.3767H32.6154V32.3767ZM34.9626 31.1026L33.676 29.816L31.5547 31.9374L32.8413 33.224L34.9626 31.1026ZM35.7225 29.1242V27.9942H32.7225V29.1242H35.7225ZM35.0832 26.7657L34.8027 26.5691L33.0813 29.0261L33.3618 29.2227L35.0832 26.7657ZM33.676 30.1848L35.0026 28.8582L32.8813 26.7369L31.5547 28.0635L33.676 30.1848ZM34.2225 27.6242H32.6154V30.6242H34.2225V27.6242ZM33.3453 25.548L32.2369 24.7715L30.5155 27.2285L31.6239 28.005L33.3453 25.548ZM32.8762 27.8849V26H29.8762V27.8849H32.8762ZM31.4239 25.7159L30.3156 26.8242L32.4369 28.9455L33.5452 27.8372L31.4239 25.7159Z" fill="#F8F9FA" mask="url(#path-1-outside-1_50_8357)"/>
<path d="M30.5 10.5176V49.4826" stroke="#212529" stroke-width="1.8" stroke-linecap="round" stroke-linejoin="round"/>
<path d="M49.9825 30L11.0176 30" stroke="#212529" stroke-width="1.8" stroke-linecap="round" stroke-linejoin="round"/>
<path d="M44.2762 16.2236L16.7238 43.776" stroke="#212529" stroke-width="1.8" stroke-linecap="round" stroke-linejoin="round"/>
<path d="M44.2762 43.7764L16.7238 16.224" stroke="#212529" stroke-width="1.8" stroke-linecap="round" stroke-linejoin="round"/>
<path d="M47.6237 26.3936L43.4167 30.0202L47.6237 33.607" stroke="#212529" stroke-width="1.8" stroke-linecap="round" stroke-linejoin="round"/>
<path d="M13.4417 33.6074L17.6487 29.9808L13.4417 26.394" stroke="#212529" stroke-width="1.8" stroke-linecap="round" stroke-linejoin="round"/>
<path d="M34.1393 47.0908L30.5127 42.8838L26.9258 47.0908" stroke="#212529" stroke-width="1.8" stroke-linecap="round" stroke-linejoin="round"/>
<path d="M26.9259 12.9082L30.5525 17.1152L34.1393 12.9082" stroke="#212529" stroke-width="1.8" stroke-linecap="round" stroke-linejoin="round"/>
<path d="M21.4391 44.5078L21.7809 38.9639L16.2757 39.4707" stroke="#212529" stroke-width="1.8" stroke-linecap="round" stroke-linejoin="round"/>
<path d="M39.6263 15.4912L39.2845 21.0351L44.7897 20.5284" stroke="#212529" stroke-width="1.8" stroke-linecap="round" stroke-linejoin="round"/>
<path d="M16.149 20.7168L21.6883 21.1272L21.2497 15.6161" stroke="#212529" stroke-width="1.8" stroke-linecap="round" stroke-linejoin="round"/>
<path d="M44.9164 39.2832L39.3772 38.8728L39.8157 44.3839" stroke="#212529" stroke-width="1.8" stroke-linecap="round" stroke-linejoin="round"/>
<path d="M35.0989 32.3822L30.5484 35.6504L25.9011 32.3822L25.9011 27.5378L30.5484 24.3496L35.0989 27.5378L35.0989 32.3822Z" fill="#F3F0FF" stroke="#212529" stroke-width="1.8" stroke-linecap="round" stroke-linejoin="round"/>
</svg>
