<svg width="60" height="61" viewBox="0 0 60 61" fill="none" xmlns="http://www.w3.org/2000/svg">
<mask id="path-1-outside-1_50_4987" maskUnits="userSpaceOnUse" x="5.01257" y="8.76123" width="50" height="43" fill="black">
<rect fill="white" x="5.01257" y="8.76123" width="50" height="43"/>
<path fill-rule="evenodd" clip-rule="evenodd" d="M18.9998 13.5505C18.9998 12.7625 19.6386 12.1236 20.4267 12.1236C21.2147 12.1236 21.8536 12.7625 21.8536 13.5505C21.8536 14.3386 21.2147 14.9774 20.4267 14.9774C19.6386 14.9774 18.9998 14.3386 18.9998 13.5505ZM20.4267 10.7612C18.8862 10.7612 17.6374 12.01 17.6374 13.5505C17.6374 15.091 18.8862 16.3398 20.4267 16.3398C21.9671 16.3398 23.216 15.091 23.216 13.5505C23.216 12.01 21.9671 10.7612 20.4267 10.7612ZM12.3428 16.34C10.1514 16.34 8.37496 18.1164 8.37496 20.3078C8.37496 21.2794 8.72421 22.1695 9.30401 22.8593C10.5765 20.5112 13.3914 19.1083 16.2299 19.508C15.8599 17.7 14.2602 16.34 12.3428 16.34ZM17.6488 19.7972C17.3918 17.0929 15.1143 14.9776 12.3428 14.9776C9.39898 14.9776 7.01257 17.364 7.01257 20.3078C7.01257 21.8745 7.68852 23.2833 8.7647 24.2586C8.65716 24.7018 8.59992 25.1666 8.59992 25.6493V36.201C8.59992 39.804 11.8322 42.5309 15.4039 42.0573C25.2206 40.7557 32.6955 40.6551 42.3784 41.9036C42.3446 42.1462 42.3271 42.394 42.3271 42.646C42.3271 45.5897 44.7135 47.9761 47.6573 47.9761C50.601 47.9761 52.9874 45.5897 52.9874 42.646C52.9874 40.4648 51.6773 38.5897 49.8011 37.7645C49.9503 37.2493 50.0306 36.7033 50.0306 36.1353V25.0197C50.0306 21.0766 46.2015 18.285 42.3566 19.1598C33.8368 21.0982 25.8307 21.5026 17.6488 19.7972ZM16.1917 21.2756C13.8261 20.84 11.6019 22.0733 10.7345 23.9361C11.226 24.1543 11.7702 24.2756 12.3428 24.2756C14.2003 24.2756 15.7596 22.9992 16.1917 21.2756ZM10.3704 25.2611C10.9805 25.5043 11.646 25.638 12.3428 25.638C14.8552 25.638 16.9616 23.8997 17.525 21.5601C25.9201 23.2708 34.1139 22.8316 42.7452 20.8678C45.5998 20.2183 48.2789 22.307 48.2789 25.0197V36.1353C48.2789 36.5525 48.216 36.9547 48.0993 37.3338C47.9535 37.3219 47.8061 37.3158 47.6573 37.3158C45.5923 37.3158 43.8016 38.49 42.9165 40.2072C32.9201 38.895 25.2368 38.9866 15.1737 40.3209C12.6093 40.6609 10.3516 38.7029 10.3516 36.201V25.6493C10.3516 25.5185 10.3579 25.3891 10.3704 25.2611ZM43.7328 42.0578C43.7042 42.2497 43.6895 42.4461 43.6895 42.646C43.6895 44.8373 45.4659 46.6138 47.6573 46.6138C49.8486 46.6138 51.625 44.8373 51.625 42.646C51.625 41.029 50.6578 39.6379 49.2703 39.0198C48.1844 40.9264 46.0614 42.1574 43.7328 42.0578ZM44.4665 40.287C45.643 40.1607 46.6866 39.5632 47.3831 38.6875C46.1881 38.769 45.1384 39.3797 44.4665 40.287ZM37.6829 46.7878C37.1664 46.7878 36.7477 47.2065 36.7477 47.723C36.7477 48.2395 37.1664 48.6582 37.6829 48.6582C38.1994 48.6582 38.6181 48.2395 38.6181 47.723C38.6181 47.2065 38.1994 46.7878 37.6829 46.7878ZM35.3853 47.723C35.3853 46.4541 36.414 45.4254 37.6829 45.4254C38.9518 45.4254 39.9805 46.4541 39.9805 47.723C39.9805 48.9919 38.9518 50.0205 37.6829 50.0205C36.414 50.0205 35.3853 48.9919 35.3853 47.723Z"/>
</mask>
<path fill-rule="evenodd" clip-rule="evenodd" d="M18.9998 13.5505C18.9998 12.7625 19.6386 12.1236 20.4267 12.1236C21.2147 12.1236 21.8536 12.7625 21.8536 13.5505C21.8536 14.3386 21.2147 14.9774 20.4267 14.9774C19.6386 14.9774 18.9998 14.3386 18.9998 13.5505ZM20.4267 10.7612C18.8862 10.7612 17.6374 12.01 17.6374 13.5505C17.6374 15.091 18.8862 16.3398 20.4267 16.3398C21.9671 16.3398 23.216 15.091 23.216 13.5505C23.216 12.01 21.9671 10.7612 20.4267 10.7612ZM12.3428 16.34C10.1514 16.34 8.37496 18.1164 8.37496 20.3078C8.37496 21.2794 8.72421 22.1695 9.30401 22.8593C10.5765 20.5112 13.3914 19.1083 16.2299 19.508C15.8599 17.7 14.2602 16.34 12.3428 16.34ZM17.6488 19.7972C17.3918 17.0929 15.1143 14.9776 12.3428 14.9776C9.39898 14.9776 7.01257 17.364 7.01257 20.3078C7.01257 21.8745 7.68852 23.2833 8.7647 24.2586C8.65716 24.7018 8.59992 25.1666 8.59992 25.6493V36.201C8.59992 39.804 11.8322 42.5309 15.4039 42.0573C25.2206 40.7557 32.6955 40.6551 42.3784 41.9036C42.3446 42.1462 42.3271 42.394 42.3271 42.646C42.3271 45.5897 44.7135 47.9761 47.6573 47.9761C50.601 47.9761 52.9874 45.5897 52.9874 42.646C52.9874 40.4648 51.6773 38.5897 49.8011 37.7645C49.9503 37.2493 50.0306 36.7033 50.0306 36.1353V25.0197C50.0306 21.0766 46.2015 18.285 42.3566 19.1598C33.8368 21.0982 25.8307 21.5026 17.6488 19.7972ZM16.1917 21.2756C13.8261 20.84 11.6019 22.0733 10.7345 23.9361C11.226 24.1543 11.7702 24.2756 12.3428 24.2756C14.2003 24.2756 15.7596 22.9992 16.1917 21.2756ZM10.3704 25.2611C10.9805 25.5043 11.646 25.638 12.3428 25.638C14.8552 25.638 16.9616 23.8997 17.525 21.5601C25.9201 23.2708 34.1139 22.8316 42.7452 20.8678C45.5998 20.2183 48.2789 22.307 48.2789 25.0197V36.1353C48.2789 36.5525 48.216 36.9547 48.0993 37.3338C47.9535 37.3219 47.8061 37.3158 47.6573 37.3158C45.5923 37.3158 43.8016 38.49 42.9165 40.2072C32.9201 38.895 25.2368 38.9866 15.1737 40.3209C12.6093 40.6609 10.3516 38.7029 10.3516 36.201V25.6493C10.3516 25.5185 10.3579 25.3891 10.3704 25.2611ZM43.7328 42.0578C43.7042 42.2497 43.6895 42.4461 43.6895 42.646C43.6895 44.8373 45.4659 46.6138 47.6573 46.6138C49.8486 46.6138 51.625 44.8373 51.625 42.646C51.625 41.029 50.6578 39.6379 49.2703 39.0198C48.1844 40.9264 46.0614 42.1574 43.7328 42.0578ZM44.4665 40.287C45.643 40.1607 46.6866 39.5632 47.3831 38.6875C46.1881 38.769 45.1384 39.3797 44.4665 40.287ZM37.6829 46.7878C37.1664 46.7878 36.7477 47.2065 36.7477 47.723C36.7477 48.2395 37.1664 48.6582 37.6829 48.6582C38.1994 48.6582 38.6181 48.2395 38.6181 47.723C38.6181 47.2065 38.1994 46.7878 37.6829 46.7878ZM35.3853 47.723C35.3853 46.4541 36.414 45.4254 37.6829 45.4254C38.9518 45.4254 39.9805 46.4541 39.9805 47.723C39.9805 48.9919 38.9518 50.0205 37.6829 50.0205C36.414 50.0205 35.3853 48.9919 35.3853 47.723Z" fill="#F8F9FA"/>
<path d="M9.30401 22.8593L8.15576 23.8244C8.47511 24.2044 8.96173 24.4017 9.45552 24.3516C9.94932 24.3015 10.3863 24.0103 10.6228 23.574L9.30401 22.8593ZM16.2299 19.508L16.0207 20.9934C16.5034 21.0614 16.9891 20.8905 17.3229 20.5353C17.6568 20.1801 17.7972 19.6849 17.6995 19.2073L16.2299 19.508ZM17.6488 19.7972L16.1555 19.9391C16.2177 20.5937 16.699 21.1315 17.3427 21.2656L17.6488 19.7972ZM8.7647 24.2586L10.2224 24.6123C10.352 24.0782 10.1792 23.5161 9.77195 23.1471L8.7647 24.2586ZM15.4039 42.0573L15.6011 43.5443L15.6011 43.5443L15.4039 42.0573ZM42.3784 41.9036L43.864 42.1106C43.9193 41.7139 43.8136 41.3117 43.5706 40.9933C43.3276 40.675 42.9674 40.4671 42.5702 40.4159L42.3784 41.9036ZM49.8011 37.7645L48.3603 37.3472C48.1512 38.0694 48.509 38.8348 49.1972 39.1375L49.8011 37.7645ZM42.3566 19.1598L42.0238 17.6971L42.0238 17.6971L42.3566 19.1598ZM16.1917 21.2756L17.6467 21.6403C17.7474 21.2384 17.6774 20.8127 17.4533 20.4643C17.2291 20.1158 16.8708 19.8755 16.4634 19.8004L16.1917 21.2756ZM10.7345 23.9361L9.37465 23.3029C9.20474 23.6678 9.18861 24.0856 9.32987 24.4625C9.47114 24.8394 9.75796 25.1438 10.1258 25.3071L10.7345 23.9361ZM10.3704 25.2611L10.9257 23.8677C10.4875 23.6931 9.99272 23.7348 9.5899 23.9802C9.18708 24.2256 8.92318 24.6463 8.87746 25.1158L10.3704 25.2611ZM17.525 21.5601L17.8245 20.0903C17.0329 19.929 16.2558 20.4236 16.0667 21.209L17.525 21.5601ZM42.7452 20.8678L42.4124 19.4051L42.4124 19.4051L42.7452 20.8678ZM48.0993 37.3338L47.9765 38.8288C48.6783 38.8864 49.3257 38.4482 49.5329 37.7752L48.0993 37.3338ZM42.9165 40.2072L42.7213 41.6944C43.3485 41.7767 43.9599 41.4567 44.2498 40.8944L42.9165 40.2072ZM15.1737 40.3209L15.3709 41.8078L15.3709 41.8078L15.1737 40.3209ZM43.7328 42.0578L43.7969 40.5592C43.0299 40.5264 42.3619 41.078 42.249 41.8374L43.7328 42.0578ZM49.2703 39.0198L49.8807 37.6496C49.1762 37.3357 48.3485 37.6073 47.9669 38.2774L49.2703 39.0198ZM44.4665 40.287L43.2611 39.3944C42.9066 39.8729 42.8689 40.5159 43.1649 41.0326C43.4609 41.5494 44.0346 41.8421 44.6267 41.7785L44.4665 40.287ZM47.3831 38.6875L48.5571 39.6212C48.927 39.1561 48.9875 38.5164 48.7112 37.9902C48.4349 37.464 47.8739 37.1505 47.281 37.191L47.3831 38.6875ZM20.4267 10.6236C18.8102 10.6236 17.4998 11.934 17.4998 13.5505H20.4998C20.4998 13.5909 20.467 13.6236 20.4267 13.6236V10.6236ZM23.3536 13.5505C23.3536 11.934 22.0431 10.6236 20.4267 10.6236V13.6236C20.3863 13.6236 20.3536 13.5909 20.3536 13.5505H23.3536ZM20.4267 16.4774C22.0431 16.4774 23.3536 15.167 23.3536 13.5505H20.3536C20.3536 13.5102 20.3863 13.4774 20.4267 13.4774V16.4774ZM17.4998 13.5505C17.4998 15.167 18.8102 16.4774 20.4267 16.4774V13.4774C20.467 13.4774 20.4998 13.5102 20.4998 13.5505H17.4998ZM19.1374 13.5505C19.1374 12.8385 19.7146 12.2612 20.4267 12.2612V9.26123C18.0577 9.26123 16.1374 11.1816 16.1374 13.5505H19.1374ZM20.4267 14.8398C19.7146 14.8398 19.1374 14.2626 19.1374 13.5505H16.1374C16.1374 15.9194 18.0577 17.8398 20.4267 17.8398V14.8398ZM21.716 13.5505C21.716 14.2626 21.1387 14.8398 20.4267 14.8398V17.8398C22.7956 17.8398 24.716 15.9194 24.716 13.5505H21.716ZM20.4267 12.2612C21.1387 12.2612 21.716 12.8385 21.716 13.5505H24.716C24.716 11.1816 22.7956 9.26123 20.4267 9.26123V12.2612ZM9.87496 20.3078C9.87496 18.9449 10.9798 17.84 12.3428 17.84V14.84C9.32298 14.84 6.87496 17.288 6.87496 20.3078H9.87496ZM10.4523 21.8941C10.0912 21.4645 9.87496 20.9133 9.87496 20.3078H6.87496C6.87496 21.6455 7.35726 22.8744 8.15576 23.8244L10.4523 21.8941ZM16.4391 18.0227C13.0121 17.54 9.57113 19.2181 7.98521 22.1446L10.6228 23.574C11.5818 21.8044 13.7706 20.6765 16.0207 20.9934L16.4391 18.0227ZM12.3428 17.84C13.5335 17.84 14.5304 18.6849 14.7604 19.8088L17.6995 19.2073C17.1894 16.7152 14.9868 14.84 12.3428 14.84V17.84ZM19.1421 19.6553C18.8126 16.1884 15.8951 13.4776 12.3428 13.4776V16.4776C14.3335 16.4776 15.971 17.9975 16.1555 19.9391L19.1421 19.6553ZM12.3428 13.4776C8.57055 13.4776 5.51257 16.5356 5.51257 20.3078H8.51257C8.51257 18.1924 10.2274 16.4776 12.3428 16.4776V13.4776ZM5.51257 20.3078C5.51257 22.3155 6.38073 24.1225 7.75745 25.3701L9.77195 23.1471C8.99632 22.4442 8.51257 21.4335 8.51257 20.3078H5.51257ZM7.307 23.9049C7.1714 24.4637 7.09992 25.0473 7.09992 25.6493H10.0999C10.0999 25.2859 10.1429 24.9398 10.2224 24.6123L7.307 23.9049ZM7.09992 25.6493V36.201H10.0999V25.6493H7.09992ZM7.09992 36.201C7.09992 40.7469 11.1667 44.1322 15.6011 43.5443L15.2068 40.5703C12.4977 40.9295 10.0999 38.8611 10.0999 36.201H7.09992ZM15.6011 43.5443C25.3001 42.2583 32.6437 42.1608 42.1865 43.3912L42.5702 40.4159C32.7472 39.1493 25.1411 39.2532 15.2068 40.5703L15.6011 43.5443ZM40.8927 41.6965C40.8494 42.0075 40.8271 42.3246 40.8271 42.646H43.8271C43.8271 42.4635 43.8397 42.2848 43.864 42.1106L40.8927 41.6965ZM40.8271 42.646C40.8271 46.4182 43.885 49.4761 47.6573 49.4761V46.4761C45.5419 46.4761 43.8271 44.7613 43.8271 42.646H40.8271ZM47.6573 49.4761C51.4295 49.4761 54.4874 46.4182 54.4874 42.646H51.4874C51.4874 44.7613 49.7726 46.4761 47.6573 46.4761V49.4761ZM54.4874 42.646C54.4874 39.8487 52.8061 37.4474 50.405 36.3914L49.1972 39.1375C50.5486 39.7319 51.4874 41.081 51.4874 42.646H54.4874ZM51.2419 38.1817C51.4301 37.5319 51.5306 36.8454 51.5306 36.1353H48.5306C48.5306 36.5611 48.4705 36.9667 48.3603 37.3472L51.2419 38.1817ZM51.5306 36.1353V25.0197H48.5306V36.1353H51.5306ZM51.5306 25.0197C51.5306 20.023 46.7167 16.6294 42.0238 17.6971L42.6894 20.6224C45.6862 19.9406 48.5306 22.1303 48.5306 25.0197H51.5306ZM42.0238 17.6971C33.6664 19.5986 25.8827 19.9812 17.9549 18.3288L17.3427 21.2656C25.7787 23.024 34.0072 22.5977 42.6894 20.6224L42.0238 17.6971ZM16.4634 19.8004C13.4438 19.2443 10.5383 20.8039 9.37465 23.3029L12.0943 24.5693C12.6654 23.3427 14.2084 22.4356 15.92 22.7508L16.4634 19.8004ZM12.3428 22.7756C11.9839 22.7756 11.6467 22.6999 11.3431 22.5651L10.1258 25.3071C10.8054 25.6087 11.5566 25.7756 12.3428 25.7756V22.7756ZM14.7367 20.9109C14.4679 21.9831 13.496 22.7756 12.3428 22.7756V25.7756C14.9045 25.7756 17.0513 24.0153 17.6467 21.6403L14.7367 20.9109ZM9.81507 26.6546C10.5989 26.9669 11.4527 27.138 12.3428 27.138V24.138C11.8393 24.138 11.362 24.0416 10.9257 23.8677L9.81507 26.6546ZM12.3428 27.138C15.5642 27.138 18.2614 24.9092 18.9833 21.9113L16.0667 21.209C15.6618 22.8901 14.1462 24.138 12.3428 24.138V27.138ZM42.4124 19.4051C33.9417 21.3324 25.968 21.7498 17.8245 20.0903L17.2255 23.0299C25.8722 24.7919 34.286 24.3307 43.078 22.3304L42.4124 19.4051ZM49.7789 25.0197C49.7789 21.2689 46.1308 18.5592 42.4124 19.4051L43.078 22.3304C45.0688 21.8774 46.7789 23.3452 46.7789 25.0197H49.7789ZM49.7789 36.1353V25.0197H46.7789V36.1353H49.7789ZM49.5329 37.7752C49.693 37.255 49.7789 36.7041 49.7789 36.1353H46.7789C46.7789 36.4008 46.739 36.6543 46.6657 36.8925L49.5329 37.7752ZM48.222 35.8389C48.0355 35.8236 47.8471 35.8158 47.6573 35.8158V38.8158C47.7651 38.8158 47.8716 38.8202 47.9765 38.8288L48.222 35.8389ZM47.6573 35.8158C45.0091 35.8158 42.7155 37.3232 41.5832 39.5199L44.2498 40.8944C44.8877 39.6568 46.1756 38.8158 47.6573 38.8158V35.8158ZM15.3709 41.8078C25.3142 40.4895 32.8652 40.4007 42.7213 41.6944L43.1117 38.7199C32.975 37.3894 25.1594 37.4838 14.9766 38.8339L15.3709 41.8078ZM8.85156 36.201C8.85156 39.6402 11.9382 42.263 15.3709 41.8078L14.9766 38.8339C13.2805 39.0587 11.8516 37.7656 11.8516 36.201H8.85156ZM8.85156 25.6493V36.201H11.8516V25.6493H8.85156ZM8.87746 25.1158C8.86032 25.2918 8.85156 25.4698 8.85156 25.6493H11.8516C11.8516 25.5673 11.8556 25.4864 11.8633 25.4065L8.87746 25.1158ZM45.1895 42.646C45.1895 42.5201 45.1988 42.3974 45.2165 42.2783L42.249 41.8374C42.2097 42.102 42.1895 42.3721 42.1895 42.646H45.1895ZM47.6573 45.1138C46.2943 45.1138 45.1895 44.0089 45.1895 42.646H42.1895C42.1895 45.6657 44.6375 48.1138 47.6573 48.1138V45.1138ZM50.125 42.646C50.125 44.0089 49.0202 45.1138 47.6573 45.1138V48.1138C50.677 48.1138 53.125 45.6657 53.125 42.646H50.125ZM48.6599 40.3899C49.5261 40.7758 50.125 41.6426 50.125 42.646H53.125C53.125 40.4154 51.7895 38.4999 49.8807 37.6496L48.6599 40.3899ZM43.6686 43.5564C46.5665 43.6804 49.2135 42.1505 50.5737 39.7621L47.9669 38.2774C47.1554 39.7023 45.5564 40.6345 43.7969 40.5592L43.6686 43.5564ZM44.6267 41.7785C46.2098 41.6084 47.6156 40.8049 48.5571 39.6212L46.2092 37.7538C45.7575 38.3216 45.0763 38.7129 44.3063 38.7956L44.6267 41.7785ZM45.672 41.1797C46.0924 40.612 46.7453 40.2345 47.4852 40.184L47.281 37.191C45.6309 37.3036 44.1844 38.1475 43.2611 39.3944L45.672 41.1797ZM38.2477 47.723C38.2477 48.0349 37.9948 48.2878 37.6829 48.2878V45.2878C36.338 45.2878 35.2477 46.3781 35.2477 47.723H38.2477ZM37.6829 47.1582C37.9949 47.1582 38.2477 47.411 38.2477 47.723H35.2477C35.2477 49.0679 36.338 50.1582 37.6829 50.1582V47.1582ZM37.1181 47.723C37.1181 47.411 37.371 47.1582 37.6829 47.1582V50.1582C39.0278 50.1582 40.1181 49.0679 40.1181 47.723H37.1181ZM37.6829 48.2878C37.371 48.2878 37.1181 48.0349 37.1181 47.723H40.1181C40.1181 46.3781 39.0278 45.2878 37.6829 45.2878V48.2878ZM37.6829 43.9254C35.5856 43.9254 33.8853 45.6256 33.8853 47.723H36.8853C36.8853 47.2825 37.2424 46.9254 37.6829 46.9254V43.9254ZM41.4805 47.723C41.4805 45.6256 39.7803 43.9254 37.6829 43.9254V46.9254C38.1234 46.9254 38.4805 47.2825 38.4805 47.723H41.4805ZM37.6829 51.5205C39.7803 51.5205 41.4805 49.8203 41.4805 47.723H38.4805C38.4805 48.1635 38.1234 48.5205 37.6829 48.5205V51.5205ZM33.8853 47.723C33.8853 49.8203 35.5856 51.5205 37.6829 51.5205V48.5205C37.2424 48.5205 36.8853 48.1635 36.8853 47.723H33.8853Z" fill="#F8F9FA" mask="url(#path-1-outside-1_50_4987)"/>
<circle cx="12.3427" cy="20.3082" r="4.64899" fill="#D0BFFF" stroke="#212529" stroke-width="1.4" stroke-linecap="round" stroke-linejoin="round"/>
<circle cx="47.6572" cy="42.6465" r="4.64899" fill="#D0BFFF" stroke="#212529" stroke-width="1.4" stroke-linecap="round" stroke-linejoin="round"/>
<circle cx="20.4266" cy="13.551" r="2.1081" fill="#D0BFFF" stroke="#212529" stroke-width="1.4" stroke-linecap="round" stroke-linejoin="round"/>
<circle cx="37.6829" cy="47.7233" r="1.61638" fill="#D0BFFF" stroke="#212529" stroke-width="1.4" stroke-linecap="round" stroke-linejoin="round"/>
<path d="M16.8279 20.5416C25.3145 22.4203 33.5827 22.0545 42.3402 20.0864C45.7871 19.3118 49.1305 21.8205 49.1305 25.2396V35.9439C49.1305 39.0982 46.2786 41.5149 43.0988 41.0906C33.1001 39.7567 25.4732 39.8263 15.4734 41.1406C12.3192 41.5551 9.49985 39.1481 9.49985 36.0114V25.8865C9.49985 22.3286 13.1533 19.7282 16.8279 20.5416Z" fill="#FFEC99" stroke="#212529" stroke-width="1.8"/>
<rect x="20.9475" y="27.5015" width="16.7354" height="6.93708" rx="1" fill="#FFE066"/>
</svg>
