<svg width="61" height="60" viewBox="0 0 61 60" fill="none" xmlns="http://www.w3.org/2000/svg">
<mask id="path-1-outside-1_50_8561" maskUnits="userSpaceOnUse" x="9.01392" y="8.58301" width="44" height="44" fill="black">
<rect fill="white" x="9.01392" y="8.58301" width="44" height="44"/>
<path fill-rule="evenodd" clip-rule="evenodd" d="M32.1657 11.783C32.1657 11.1203 31.6284 10.583 30.9657 10.583C30.3029 10.583 29.7657 11.1203 29.7657 11.783V15.8595C29.7657 16.5222 30.3029 17.0595 30.9657 17.0595C31.6284 17.0595 32.1657 16.5222 32.1657 15.8595V11.783ZM30.9657 23.6983C27.19 23.6983 24.1292 26.7591 24.1292 30.5348C24.1292 34.3105 27.19 37.3713 30.9657 37.3713C34.7413 37.3713 37.8021 34.3105 37.8021 30.5348C37.8021 26.7591 34.7413 23.6983 30.9657 23.6983ZM21.7292 30.5348C21.7292 25.4336 25.8645 21.2983 30.9657 21.2983C36.0668 21.2983 40.2021 25.4336 40.2021 30.5348C40.2021 35.636 36.0668 39.7713 30.9657 39.7713C25.8645 39.7713 21.7292 35.636 21.7292 30.5348ZM30.9657 44.0102C31.6284 44.0102 32.1657 44.5475 32.1657 45.2102V49.2867C32.1657 49.9494 31.6284 50.4867 30.9657 50.4867C30.3029 50.4867 29.7657 49.9494 29.7657 49.2867V45.2102C29.7657 44.5475 30.3029 44.0102 30.9657 44.0102ZM21.4372 41.7604C21.9059 41.2917 21.9059 40.5319 21.4372 40.0633C20.9686 39.5947 20.2088 39.5947 19.7402 40.0633L16.8577 42.9458C16.389 43.4144 16.389 44.1742 16.8577 44.6429C17.3263 45.1115 18.0861 45.1115 18.5547 44.6429L21.4372 41.7604ZM50.9174 30.5348C50.9174 31.1975 50.3802 31.7348 49.7174 31.7348H45.641C44.9782 31.7348 44.441 31.1975 44.441 30.5348C44.441 29.872 44.9782 29.3348 45.641 29.3348H49.7174C50.3802 29.3348 50.9174 29.872 50.9174 30.5348ZM16.2904 31.7348C16.9531 31.7348 17.4904 31.1975 17.4904 30.5348C17.4904 29.872 16.9531 29.3348 16.2904 29.3348H12.2139C11.5512 29.3348 11.0139 29.872 11.0139 30.5348C11.0139 31.1975 11.5512 31.7348 12.2139 31.7348H16.2904ZM45.0737 44.6428C44.6051 45.1114 43.8453 45.1114 43.3766 44.6428L40.4941 41.7603C40.0255 41.2917 40.0255 40.5319 40.4941 40.0632C40.9628 39.5946 41.7226 39.5946 42.1912 40.0632L45.0737 42.9457C45.5423 43.4144 45.5423 44.1741 45.0737 44.6428ZM45.0737 16.4268C45.5423 16.8954 45.5423 17.6552 45.0737 18.1238L42.1912 21.0063C41.7226 21.475 40.9628 21.475 40.4941 21.0063C40.0255 20.5377 40.0255 19.7779 40.4941 19.3093L43.3766 16.4268C43.8453 15.9581 44.605 15.9581 45.0737 16.4268ZM19.7402 21.0063C20.2088 21.4749 20.9686 21.4749 21.4373 21.0063C21.9059 20.5377 21.9059 19.7779 21.4373 19.3092L18.5548 16.4268C18.0861 15.9581 17.3263 15.9581 16.8577 16.4268C16.3891 16.8954 16.3891 17.6552 16.8577 18.1238L19.7402 21.0063Z"/>
</mask>
<path fill-rule="evenodd" clip-rule="evenodd" d="M32.1657 11.783C32.1657 11.1203 31.6284 10.583 30.9657 10.583C30.3029 10.583 29.7657 11.1203 29.7657 11.783V15.8595C29.7657 16.5222 30.3029 17.0595 30.9657 17.0595C31.6284 17.0595 32.1657 16.5222 32.1657 15.8595V11.783ZM30.9657 23.6983C27.19 23.6983 24.1292 26.7591 24.1292 30.5348C24.1292 34.3105 27.19 37.3713 30.9657 37.3713C34.7413 37.3713 37.8021 34.3105 37.8021 30.5348C37.8021 26.7591 34.7413 23.6983 30.9657 23.6983ZM21.7292 30.5348C21.7292 25.4336 25.8645 21.2983 30.9657 21.2983C36.0668 21.2983 40.2021 25.4336 40.2021 30.5348C40.2021 35.636 36.0668 39.7713 30.9657 39.7713C25.8645 39.7713 21.7292 35.636 21.7292 30.5348ZM30.9657 44.0102C31.6284 44.0102 32.1657 44.5475 32.1657 45.2102V49.2867C32.1657 49.9494 31.6284 50.4867 30.9657 50.4867C30.3029 50.4867 29.7657 49.9494 29.7657 49.2867V45.2102C29.7657 44.5475 30.3029 44.0102 30.9657 44.0102ZM21.4372 41.7604C21.9059 41.2917 21.9059 40.5319 21.4372 40.0633C20.9686 39.5947 20.2088 39.5947 19.7402 40.0633L16.8577 42.9458C16.389 43.4144 16.389 44.1742 16.8577 44.6429C17.3263 45.1115 18.0861 45.1115 18.5547 44.6429L21.4372 41.7604ZM50.9174 30.5348C50.9174 31.1975 50.3802 31.7348 49.7174 31.7348H45.641C44.9782 31.7348 44.441 31.1975 44.441 30.5348C44.441 29.872 44.9782 29.3348 45.641 29.3348H49.7174C50.3802 29.3348 50.9174 29.872 50.9174 30.5348ZM16.2904 31.7348C16.9531 31.7348 17.4904 31.1975 17.4904 30.5348C17.4904 29.872 16.9531 29.3348 16.2904 29.3348H12.2139C11.5512 29.3348 11.0139 29.872 11.0139 30.5348C11.0139 31.1975 11.5512 31.7348 12.2139 31.7348H16.2904ZM45.0737 44.6428C44.6051 45.1114 43.8453 45.1114 43.3766 44.6428L40.4941 41.7603C40.0255 41.2917 40.0255 40.5319 40.4941 40.0632C40.9628 39.5946 41.7226 39.5946 42.1912 40.0632L45.0737 42.9457C45.5423 43.4144 45.5423 44.1741 45.0737 44.6428ZM45.0737 16.4268C45.5423 16.8954 45.5423 17.6552 45.0737 18.1238L42.1912 21.0063C41.7226 21.475 40.9628 21.475 40.4941 21.0063C40.0255 20.5377 40.0255 19.7779 40.4941 19.3093L43.3766 16.4268C43.8453 15.9581 44.605 15.9581 45.0737 16.4268ZM19.7402 21.0063C20.2088 21.4749 20.9686 21.4749 21.4373 21.0063C21.9059 20.5377 21.9059 19.7779 21.4373 19.3092L18.5548 16.4268C18.0861 15.9581 17.3263 15.9581 16.8577 16.4268C16.3891 16.8954 16.3891 17.6552 16.8577 18.1238L19.7402 21.0063Z" fill="#F8F9FA"/>
<path d="M21.4372 40.0633L20.3766 41.124L20.3766 41.124L21.4372 40.0633ZM21.4372 41.7604L20.3766 40.6997L20.3766 40.6997L21.4372 41.7604ZM19.7402 40.0633L18.6795 39.0026L18.6795 39.0027L19.7402 40.0633ZM16.8577 42.9458L17.9183 44.0065L17.9183 44.0065L16.8577 42.9458ZM16.8577 44.6429L17.9183 43.5822L17.9183 43.5822L16.8577 44.6429ZM18.5547 44.6429L17.4941 43.5822L17.4941 43.5822L18.5547 44.6429ZM43.3766 44.6428L42.316 45.7034L42.316 45.7034L43.3766 44.6428ZM40.4941 41.7603L41.5548 40.6996L41.5548 40.6996L40.4941 41.7603ZM40.4941 40.0632L39.4335 39.0026L39.4335 39.0026L40.4941 40.0632ZM42.1912 40.0632L43.2518 39.0026L43.2518 39.0026L42.1912 40.0632ZM45.0737 18.1238L46.1343 19.1845L46.1343 19.1845L45.0737 18.1238ZM45.0737 16.4268L46.1343 15.3661L46.1343 15.3661L45.0737 16.4268ZM42.1912 21.0063L41.1305 19.9457L41.1305 19.9457L42.1912 21.0063ZM40.4941 21.0063L41.5548 19.9457L41.5548 19.9457L40.4941 21.0063ZM40.4941 19.3093L39.4335 18.2486L39.4335 18.2486L40.4941 19.3093ZM43.3766 16.4268L42.316 15.3661L42.316 15.3661L43.3766 16.4268ZM21.4373 21.0063L20.3766 19.9456L20.3766 19.9456L21.4373 21.0063ZM19.7402 21.0063L20.8009 19.9456L20.8009 19.9456L19.7402 21.0063ZM21.4373 19.3092L22.4979 18.2486L22.4979 18.2486L21.4373 19.3092ZM18.5548 16.4268L17.4941 17.4874L17.4941 17.4874L18.5548 16.4268ZM16.8577 18.1238L15.797 19.1845L15.797 19.1845L16.8577 18.1238ZM30.9657 12.083C30.8 12.083 30.6657 11.9487 30.6657 11.783H33.6657C33.6657 10.2918 32.4568 9.08301 30.9657 9.08301V12.083ZM31.2657 11.783C31.2657 11.9487 31.1314 12.083 30.9657 12.083V9.08301C29.4745 9.08301 28.2657 10.2918 28.2657 11.783H31.2657ZM31.2657 15.8595V11.783H28.2657V15.8595H31.2657ZM30.9657 15.5595C31.1314 15.5595 31.2657 15.6938 31.2657 15.8595H28.2657C28.2657 17.3506 29.4745 18.5595 30.9657 18.5595V15.5595ZM30.6657 15.8595C30.6657 15.6938 30.8 15.5595 30.9657 15.5595V18.5595C32.4568 18.5595 33.6657 17.3506 33.6657 15.8595H30.6657ZM30.6657 11.783V15.8595H33.6657V11.783H30.6657ZM25.6292 30.5348C25.6292 27.5876 28.0184 25.1983 30.9656 25.1983V22.1983C26.3615 22.1983 22.6292 25.9307 22.6292 30.5348H25.6292ZM30.9656 35.8713C28.0184 35.8713 25.6292 33.4821 25.6292 30.5348H22.6292C22.6292 35.1389 26.3615 38.8713 30.9656 38.8713V35.8713ZM36.3021 30.5348C36.3021 33.4821 33.9129 35.8713 30.9656 35.8713V38.8713C35.5697 38.8713 39.3021 35.1389 39.3021 30.5348H36.3021ZM30.9656 25.1983C33.9129 25.1983 36.3021 27.5876 36.3021 30.5348H39.3021C39.3021 25.9307 35.5697 22.1983 30.9656 22.1983V25.1983ZM30.9656 19.7983C25.0361 19.7983 20.2292 24.6052 20.2292 30.5348H23.2292C23.2292 26.2621 26.6929 22.7983 30.9656 22.7983V19.7983ZM41.7021 30.5348C41.7021 24.6052 36.8952 19.7983 30.9656 19.7983V22.7983C35.2384 22.7983 38.7021 26.2621 38.7021 30.5348H41.7021ZM30.9656 41.2713C36.8952 41.2713 41.7021 36.4644 41.7021 30.5348H38.7021C38.7021 34.8075 35.2384 38.2713 30.9656 38.2713V41.2713ZM20.2292 30.5348C20.2292 36.4644 25.0361 41.2713 30.9656 41.2713V38.2713C26.6929 38.2713 23.2292 34.8075 23.2292 30.5348H20.2292ZM33.6657 45.2102C33.6657 43.719 32.4568 42.5102 30.9657 42.5102V45.5102C30.8 45.5102 30.6657 45.3759 30.6657 45.2102H33.6657ZM33.6657 49.2867V45.2102H30.6657V49.2867H33.6657ZM30.9657 51.9867C32.4568 51.9867 33.6657 50.7778 33.6657 49.2867H30.6657C30.6657 49.121 30.8 48.9867 30.9657 48.9867V51.9867ZM28.2657 49.2867C28.2657 50.7778 29.4745 51.9867 30.9657 51.9867V48.9867C31.1313 48.9867 31.2657 49.121 31.2657 49.2867H28.2657ZM28.2657 45.2102V49.2867H31.2657V45.2102H28.2657ZM30.9657 42.5102C29.4745 42.5102 28.2657 43.719 28.2657 45.2102H31.2657C31.2657 45.3759 31.1313 45.5102 30.9657 45.5102V42.5102ZM20.3766 41.124C20.2594 41.0068 20.2594 40.8169 20.3766 40.6997L22.4979 42.821C23.5523 41.7666 23.5523 40.0571 22.4979 39.0027L20.3766 41.124ZM20.8008 41.124C20.6837 41.2411 20.4937 41.2411 20.3766 41.124L22.4979 39.0027C21.4435 37.9482 19.7339 37.9482 18.6795 39.0026L20.8008 41.124ZM17.9183 44.0065L20.8008 41.124L18.6795 39.0027L15.797 41.8851L17.9183 44.0065ZM17.9183 43.5822C18.0355 43.6994 18.0355 43.8893 17.9183 44.0065L15.797 41.8851C14.7426 42.9396 14.7426 44.6491 15.797 45.7035L17.9183 43.5822ZM17.4941 43.5822C17.6112 43.465 17.8012 43.465 17.9183 43.5822L15.797 45.7035C16.8514 46.7579 18.561 46.7579 19.6154 45.7035L17.4941 43.5822ZM20.3766 40.6997L17.4941 43.5822L19.6154 45.7035L22.4979 42.821L20.3766 40.6997ZM49.7174 33.2348C51.2086 33.2348 52.4174 32.0259 52.4174 30.5348H49.4174C49.4174 30.3691 49.5517 30.2348 49.7174 30.2348V33.2348ZM45.641 33.2348H49.7174V30.2348H45.641V33.2348ZM42.9409 30.5348C42.9409 32.0259 44.1498 33.2348 45.641 33.2348V30.2348C45.8066 30.2348 45.9409 30.3691 45.9409 30.5348H42.9409ZM45.641 27.8348C44.1498 27.8348 42.9409 29.0436 42.9409 30.5348H45.9409C45.9409 30.7005 45.8066 30.8348 45.641 30.8348V27.8348ZM49.7174 27.8348H45.641V30.8348H49.7174V27.8348ZM52.4174 30.5348C52.4174 29.0436 51.2086 27.8348 49.7174 27.8348V30.8348C49.5517 30.8348 49.4174 30.7005 49.4174 30.5348H52.4174ZM15.9904 30.5348C15.9904 30.3691 16.1247 30.2348 16.2904 30.2348V33.2348C17.7816 33.2348 18.9904 32.0259 18.9904 30.5348H15.9904ZM16.2904 30.8348C16.1247 30.8348 15.9904 30.7005 15.9904 30.5348H18.9904C18.9904 29.0436 17.7816 27.8348 16.2904 27.8348V30.8348ZM12.2139 30.8348H16.2904V27.8348H12.2139V30.8348ZM12.5139 30.5348C12.5139 30.7005 12.3796 30.8348 12.2139 30.8348V27.8348C10.7227 27.8348 9.51392 29.0436 9.51392 30.5348H12.5139ZM12.2139 30.2348C12.3796 30.2348 12.5139 30.3691 12.5139 30.5348H9.51392C9.51392 32.0259 10.7228 33.2348 12.2139 33.2348V30.2348ZM16.2904 30.2348H12.2139V33.2348H16.2904V30.2348ZM42.316 45.7034C43.3704 46.7579 45.0799 46.7579 46.1343 45.7034L44.013 43.5821C44.1302 43.465 44.3201 43.465 44.4373 43.5821L42.316 45.7034ZM39.4335 42.8209L42.316 45.7034L44.4373 43.5821L41.5548 40.6996L39.4335 42.8209ZM39.4335 39.0026C38.3791 40.057 38.379 41.7665 39.4335 42.8209L41.5548 40.6996C41.6719 40.8168 41.6719 41.0067 41.5548 41.1239L39.4335 39.0026ZM43.2518 39.0026C42.1974 37.9482 40.4879 37.9481 39.4335 39.0026L41.5548 41.1239C41.4376 41.241 41.2477 41.241 41.1305 41.1239L43.2518 39.0026ZM46.1343 41.8851L43.2518 39.0026L41.1305 41.1239L44.013 44.0064L46.1343 41.8851ZM46.1343 45.7034C47.1888 44.649 47.1888 42.9395 46.1343 41.8851L44.013 44.0064C43.8959 43.8892 43.8959 43.6993 44.013 43.5821L46.1343 45.7034ZM46.1343 19.1845C47.1888 18.1301 47.1888 16.4205 46.1343 15.3661L44.013 17.4874C43.8959 17.3703 43.8959 17.1803 44.013 17.0632L46.1343 19.1845ZM43.2518 22.067L46.1343 19.1845L44.013 17.0632L41.1305 19.9457L43.2518 22.067ZM39.4335 22.067C40.4879 23.1214 42.1974 23.1214 43.2518 22.067L41.1305 19.9457C41.2477 19.8285 41.4376 19.8285 41.5548 19.9457L39.4335 22.067ZM39.4335 18.2486C38.3791 19.303 38.379 21.0126 39.4335 22.067L41.5548 19.9457C41.6719 20.0628 41.6719 20.2528 41.5548 20.3699L39.4335 18.2486ZM42.316 15.3661L39.4335 18.2486L41.5548 20.3699L44.4373 17.4874L42.316 15.3661ZM46.1343 15.3661C45.0799 14.3117 43.3704 14.3117 42.316 15.3661L44.4373 17.4874C44.3201 17.6046 44.1302 17.6046 44.013 17.4874L46.1343 15.3661ZM20.3766 19.9456C20.4937 19.8285 20.6837 19.8285 20.8009 19.9456L18.6795 22.067C19.7339 23.1214 21.4435 23.1214 22.4979 22.067L20.3766 19.9456ZM20.3766 20.3699C20.2594 20.2528 20.2594 20.0628 20.3766 19.9456L22.4979 22.067C23.5523 21.0125 23.5523 19.303 22.4979 18.2486L20.3766 20.3699ZM17.4941 17.4874L20.3766 20.3699L22.4979 18.2486L19.6154 15.3661L17.4941 17.4874ZM17.9184 17.4874C17.8012 17.6046 17.6112 17.6046 17.4941 17.4874L19.6154 15.3661C18.561 14.3117 16.8515 14.3117 15.797 15.3661L17.9184 17.4874ZM17.9184 17.0631C18.0355 17.1803 18.0355 17.3703 17.9184 17.4874L15.797 15.3661C14.7426 16.4205 14.7426 18.1301 15.797 19.1845L17.9184 17.0631ZM20.8009 19.9456L17.9184 17.0631L15.797 19.1845L18.6795 22.067L20.8009 19.9456Z" fill="#F8F9FA" mask="url(#path-1-outside-1_50_8561)"/>
<circle cx="30.9657" cy="30.5345" r="8.03646" fill="#FFD43B" stroke="#212529" stroke-width="2.4" stroke-linecap="round" stroke-linejoin="round"/>
<g style="mix-blend-mode:multiply">
<path fill-rule="evenodd" clip-rule="evenodd" d="M29.9076 36.7589C33.7618 36.7589 36.8862 33.6345 36.8862 29.7803C36.8862 27.9916 36.2132 26.36 35.1066 25.125C36.819 26.3967 37.9287 28.4344 37.9287 30.7313C37.9287 34.5854 34.8043 37.7098 30.9502 37.7098C28.8848 37.7098 27.029 36.8126 25.7512 35.3866C26.9123 36.2488 28.3504 36.7589 29.9076 36.7589Z" fill="#DEE2E6"/>
</g>
<path d="M30.9656 45.209L30.9656 49.2855" stroke="#212529" stroke-width="2.4" stroke-linecap="round" stroke-linejoin="round"/>
<path d="M20.5886 40.9111L17.7061 43.7936" stroke="#212529" stroke-width="2.4" stroke-linecap="round" stroke-linejoin="round"/>
<path d="M49.7174 30.5342L45.6409 30.5342" stroke="#212529" stroke-width="2.4" stroke-linecap="round" stroke-linejoin="round"/>
<path d="M16.2904 30.5342L12.2139 30.5342" stroke="#212529" stroke-width="2.4" stroke-linecap="round" stroke-linejoin="round"/>
<path d="M44.2251 43.793L41.3426 40.9105" stroke="#212529" stroke-width="2.4" stroke-linecap="round" stroke-linejoin="round"/>
<path d="M30.9656 11.7822L30.9656 15.8587" stroke="#212529" stroke-width="2.4" stroke-linecap="round" stroke-linejoin="round"/>
<path d="M44.2251 17.2744L41.3426 20.1569" stroke="#212529" stroke-width="2.4" stroke-linecap="round" stroke-linejoin="round"/>
<path d="M20.5886 20.1572L17.7061 17.2747" stroke="#212529" stroke-width="2.4" stroke-linecap="round" stroke-linejoin="round"/>
</svg>
