<svg width="60" height="60" viewBox="0 0 60 60" fill="none" xmlns="http://www.w3.org/2000/svg">
<mask id="path-1-outside-1_50_9107" maskUnits="userSpaceOnUse" x="6.09082" y="12.6934" width="48" height="37" fill="black">
<rect fill="white" x="6.09082" y="12.6934" width="48" height="37"/>
<path fill-rule="evenodd" clip-rule="evenodd" d="M20.0453 17.7981C21.1364 16.0057 22.8574 14.6933 25.2693 14.6933C27.6054 14.6933 29.4272 15.6215 30.6473 17.2548C31.7304 18.7048 32.3078 20.6666 32.4124 22.9297H34.4004C34.5314 21.1451 35.0207 19.2949 35.9319 17.7981C37.023 16.0057 38.744 14.6933 41.1559 14.6933C43.4804 14.6933 45.3032 15.5659 46.5285 17.1545C47.6462 18.6036 48.2255 20.594 48.3065 22.9297H50.9534C51.4813 22.9297 51.9093 23.3577 51.9093 23.8856C51.9093 24.4135 51.4813 24.8415 50.9534 24.8415L38.24 24.8415V41.2789C38.2584 41.2682 38.2769 41.2572 38.2956 41.2461C38.6979 41.0044 39.088 40.6906 39.5468 40.3214C39.6102 40.2703 39.675 40.2182 39.7413 40.1651C40.7779 39.3344 42.1161 38.3074 44.0016 38.3074C45.8706 38.3074 47.1231 39.239 48.125 39.9948C49.1731 40.7852 49.9059 41.3352 50.9534 41.3352C51.4285 41.3352 51.8137 41.7204 51.8137 42.1955C51.8137 42.6706 51.4285 43.0558 50.9534 43.0558C49.3167 43.0558 48.1607 42.18 47.2254 41.4716L47.089 41.3684C46.0838 40.6103 45.2426 40.028 44.0016 40.028C42.7771 40.028 41.863 40.6697 40.8173 41.5077C40.7559 41.5569 40.6935 41.6072 40.6303 41.6581C40.1835 42.0184 39.693 42.4139 39.1814 42.7211C38.58 43.0822 37.8831 43.3653 37.0674 43.3653C36.2535 43.3653 35.5504 43.0835 34.9422 42.7244C34.407 42.4083 33.8955 42.0004 33.4307 41.6298L33.4307 41.6297L33.4306 41.6297L33.4306 41.6297L33.2802 41.5099C32.2097 40.6593 31.3158 40.028 30.1865 40.028C29.0845 40.028 28.3427 40.6206 27.2651 41.4816L27.2314 41.5085C26.1793 42.349 24.8656 43.3653 22.8255 43.3653C20.7457 43.3653 19.6363 42.3078 18.7497 41.4571C17.8738 40.6169 17.2523 40.028 16.0064 40.028C15.0495 40.028 14.1736 40.6438 13.0144 41.5221L12.966 41.5588L12.966 41.5588L12.9659 41.5588L12.9659 41.5588L12.9659 41.5588L12.9659 41.5589L12.9658 41.5589L12.9658 41.5589C12.4401 41.9573 11.8577 42.3987 11.2444 42.7369C10.6029 43.0906 9.87064 43.3653 9.0467 43.3653C8.57158 43.3653 8.18642 42.9802 8.18642 42.505C8.18642 42.0299 8.57158 41.6448 9.0467 41.6448C9.47903 41.6448 9.92024 41.5023 10.4135 41.2302C10.9159 40.9532 11.4124 40.5772 11.9754 40.1507L12.0514 40.093C13.0839 39.31 14.4059 38.3074 16.0064 38.3074C17.0483 38.3074 17.838 38.6004 18.4775 38.9981V24.8415L9.04669 24.8415C8.51878 24.8415 8.09082 24.4135 8.09082 23.8856C8.09082 23.3577 8.51878 22.9297 9.04669 22.9297L18.5138 22.9297C18.6448 21.1451 19.1341 19.2949 20.0453 17.7981ZM37.0929 41.6446C37.0844 41.6447 37.0759 41.6448 37.0674 41.6448C36.6665 41.6448 36.2686 41.5094 35.817 41.2428C35.7149 41.1825 35.6133 41.1176 35.5112 41.0484V36.4C35.8331 36.092 36.0395 35.6722 36.0395 35.1817C36.0395 34.6913 35.8331 34.2715 35.5112 33.9635V30.2277C35.8331 29.9197 36.0395 29.4999 36.0395 29.0094C36.0395 28.519 35.8331 28.0992 35.5112 27.7912V24.8415L37.0929 24.8415V41.6446ZM38.3176 22.9297H44.1042C44.0577 21.6618 43.8507 20.7205 43.4544 20.0851C43.0364 19.4148 42.3589 19.0099 41.1559 19.0099C40.4658 19.0099 39.966 19.258 39.5812 19.6395C39.1822 20.0349 38.8896 20.5931 38.6815 21.2201C38.4878 21.8035 38.3788 22.4103 38.3176 22.9297ZM45.252 22.9297C45.206 21.5608 44.983 20.3684 44.4277 19.4781C43.7592 18.4063 42.6707 17.8629 41.1559 17.8629C40.1473 17.8629 39.3616 18.242 38.7736 18.8248C38.1998 19.3937 37.8324 20.1369 37.5928 20.8587C37.3535 21.5796 37.2285 22.3205 37.1634 22.9297L35.5508 22.9297C35.68 21.3165 36.127 19.6835 36.9116 18.3945C37.8463 16.8593 39.2344 15.8403 41.1559 15.8403C43.1647 15.8403 44.6354 16.5781 45.6203 17.8551C46.5409 19.0487 47.0781 20.768 47.1588 22.9297L45.252 22.9297ZM34.3641 24.8415L22.3534 24.8415V27.2347L34.0954 27.2347C34.1857 27.2347 34.2755 27.2406 34.3641 27.2521V24.8415ZM34.3641 30.7668C34.2755 30.7783 34.1857 30.7842 34.0954 30.7842L22.3534 30.7842V33.407L34.0954 33.407C34.1857 33.407 34.2755 33.4129 34.3641 33.4244V30.7668ZM34.3641 34.5893C34.2832 34.5668 34.1935 34.554 34.0954 34.554H22.3534V35.8095H34.0954C34.1935 35.8095 34.2832 35.7967 34.3641 35.7741V34.5893ZM34.3641 36.9391C34.2755 36.9506 34.1857 36.9565 34.0954 36.9565H22.3534V41.6176C22.5015 41.6354 22.6583 41.6448 22.8255 41.6448C24.2202 41.6448 25.1209 40.9924 26.1575 40.1642C26.2121 40.1206 26.2673 40.0762 26.3233 40.0312C27.286 39.2574 28.4677 38.3074 30.1865 38.3074C31.9893 38.3074 33.3211 39.3448 34.3506 40.1628L34.3641 40.1736V36.9391ZM29.3582 22.9297H31.2641C31.1604 20.8455 30.6273 19.1448 29.7283 17.9413C28.7381 16.6157 27.2664 15.8403 25.2693 15.8403C23.3478 15.8403 21.9597 16.8593 21.025 18.3945C20.2404 19.6835 19.7934 21.3165 19.6642 22.9297H21.2768C21.3419 22.3205 21.4669 21.5796 21.7062 20.8587C21.9458 20.1369 22.3132 19.3937 22.887 18.8248C23.475 18.242 24.2607 17.8629 25.2693 17.8629C26.806 17.8629 27.8894 18.4702 28.548 19.5827C29.0719 20.4676 29.2987 21.6265 29.3582 22.9297ZM19.6246 39.9133V24.8415H21.2063V27.5496C20.7119 27.8585 20.3664 28.3748 20.3664 29.0094C20.3664 29.644 20.7119 30.1604 21.2063 30.4693V33.7219C20.7119 34.0308 20.3664 34.5472 20.3664 35.1817C20.3664 35.8163 20.7119 36.3327 21.2063 36.6416V41.0854C21.1058 41.085 21.0139 41.079 20.928 41.0677C20.591 40.8333 20.2798 40.5408 19.9408 40.2156L19.8735 40.1509L19.8733 40.1508C19.7925 40.0731 19.7098 39.9936 19.6246 39.9133ZM22.7949 21.2201C22.6012 21.8035 22.4922 22.4103 22.431 22.9297L28.2097 22.9297C28.1506 21.7409 27.9444 20.8147 27.561 20.167C27.133 19.4441 26.4504 19.0099 25.2693 19.0099C24.5792 19.0099 24.0794 19.258 23.6946 19.6395C23.2956 20.0349 23.003 20.5931 22.7949 21.2201ZM11.3508 47.0782C10.6586 47.4476 9.87425 47.7412 9.0467 47.7412C8.57158 47.7412 8.18642 47.3561 8.18642 46.8809C8.18642 46.4058 8.57158 46.0207 9.0467 46.0207C9.47542 46.0207 9.96978 45.865 10.5408 45.5603C11.1087 45.2573 11.6867 44.8434 12.2808 44.3962C12.3963 44.3093 12.5134 44.2202 12.6315 44.1305C13.0977 43.7761 13.5778 43.4112 14.0245 43.1242C14.5596 42.7802 15.2226 42.4259 15.9061 42.4259C16.5857 42.4259 17.1893 42.7508 17.674 43.0712C17.9882 43.2789 18.3389 43.5475 18.6814 43.8097C18.8588 43.9455 19.0339 44.0796 19.2006 44.2027C20.254 44.9804 21.3773 45.6432 22.8084 45.6432C24.2509 45.6432 25.4587 44.9716 26.6258 44.1822C26.7923 44.0696 26.9638 43.9504 27.1368 43.8302L27.137 43.83C27.5351 43.5533 27.9415 43.2709 28.315 43.0491C28.8543 42.729 29.4939 42.4259 30.1865 42.4259C30.8687 42.4259 31.5336 42.7209 32.1002 43.0383C32.595 43.3155 33.116 43.6706 33.6142 44.0102C33.6995 44.0683 33.7841 44.126 33.8678 44.1828C34.461 44.5849 35.0291 44.9559 35.5853 45.2281C36.1432 45.5012 36.6272 45.6432 37.0503 45.6432C37.4744 45.6432 37.9639 45.5007 38.53 45.2265C39.0936 44.9536 39.6708 44.5818 40.2714 44.1799C40.3599 44.1206 40.4494 44.0604 40.5396 43.9997L40.5411 43.9987L40.5411 43.9987L40.5411 43.9986L40.5411 43.9986L40.5414 43.9984L40.5415 43.9984C41.0416 43.6618 41.5623 43.3112 42.0542 43.0373C42.6205 42.7218 43.2856 42.4259 43.9616 42.4259C44.6489 42.4259 45.3041 42.7361 45.8539 43.0614C46.2953 43.3226 46.7647 43.6547 47.2187 43.9759L47.2198 43.9767C47.3415 44.0628 47.4622 44.1482 47.5808 44.2311C48.7866 45.0742 49.8789 45.726 50.9534 45.726C51.4285 45.726 51.8137 46.1111 51.8137 46.5862C51.8137 47.0614 51.4285 47.4465 50.9534 47.4465C49.2633 47.4465 47.7492 46.4482 46.595 45.6412C46.4542 45.5428 46.3189 45.4471 46.1881 45.3547C45.7443 45.0409 45.3528 44.7641 44.9777 44.5422C44.4818 44.2487 44.1637 44.1464 43.9616 44.1464C43.748 44.1464 43.4081 44.2526 42.8914 44.5404C42.4686 44.7759 42.019 45.0783 41.5161 45.4165L41.5161 45.4166C41.4221 45.4798 41.3262 45.5442 41.2284 45.6097C40.6271 46.0121 39.962 46.4447 39.2799 46.775C38.6003 47.1041 37.841 47.3638 37.0503 47.3638C36.2587 47.3638 35.5032 47.1036 34.8288 46.7734C34.1526 46.4424 33.4954 46.009 32.9023 45.6069C32.8115 45.5453 32.7224 45.4847 32.635 45.4251L32.6334 45.424L32.6333 45.4239C32.1308 45.0818 31.6825 44.7765 31.2593 44.5394C30.7491 44.2536 30.4079 44.1464 30.1865 44.1464C29.9754 44.1464 29.6703 44.2455 29.1934 44.5286C28.8737 44.7184 28.5523 44.942 28.1844 45.1979C27.9998 45.3263 27.8034 45.4629 27.5897 45.6074C26.3784 46.4267 24.8007 47.3638 22.8084 47.3638C20.8047 47.3638 19.3041 46.4179 18.1787 45.5869C17.9497 45.4178 17.7474 45.2625 17.5605 45.1191L17.5604 45.1189L17.5603 45.1189L17.5603 45.1189L17.5601 45.1187L17.56 45.1187L17.5599 45.1186L17.5598 45.1185C17.2569 44.8859 16.9946 44.6846 16.7252 44.5065C16.2973 44.2237 16.0538 44.1464 15.9061 44.1464C15.7623 44.1464 15.4683 44.2415 14.9548 44.5715C14.5708 44.8183 14.1626 45.1283 13.7037 45.4769L13.7031 45.4774C13.5779 45.5725 13.4488 45.6705 13.3155 45.7709C12.7157 46.2224 12.0461 46.7072 11.3508 47.0782Z"/>
</mask>
<path fill-rule="evenodd" clip-rule="evenodd" d="M20.0453 17.7981C21.1364 16.0057 22.8574 14.6933 25.2693 14.6933C27.6054 14.6933 29.4272 15.6215 30.6473 17.2548C31.7304 18.7048 32.3078 20.6666 32.4124 22.9297H34.4004C34.5314 21.1451 35.0207 19.2949 35.9319 17.7981C37.023 16.0057 38.744 14.6933 41.1559 14.6933C43.4804 14.6933 45.3032 15.5659 46.5285 17.1545C47.6462 18.6036 48.2255 20.594 48.3065 22.9297H50.9534C51.4813 22.9297 51.9093 23.3577 51.9093 23.8856C51.9093 24.4135 51.4813 24.8415 50.9534 24.8415L38.24 24.8415V41.2789C38.2584 41.2682 38.2769 41.2572 38.2956 41.2461C38.6979 41.0044 39.088 40.6906 39.5468 40.3214C39.6102 40.2703 39.675 40.2182 39.7413 40.1651C40.7779 39.3344 42.1161 38.3074 44.0016 38.3074C45.8706 38.3074 47.1231 39.239 48.125 39.9948C49.1731 40.7852 49.9059 41.3352 50.9534 41.3352C51.4285 41.3352 51.8137 41.7204 51.8137 42.1955C51.8137 42.6706 51.4285 43.0558 50.9534 43.0558C49.3167 43.0558 48.1607 42.18 47.2254 41.4716L47.089 41.3684C46.0838 40.6103 45.2426 40.028 44.0016 40.028C42.7771 40.028 41.863 40.6697 40.8173 41.5077C40.7559 41.5569 40.6935 41.6072 40.6303 41.6581C40.1835 42.0184 39.693 42.4139 39.1814 42.7211C38.58 43.0822 37.8831 43.3653 37.0674 43.3653C36.2535 43.3653 35.5504 43.0835 34.9422 42.7244C34.407 42.4083 33.8955 42.0004 33.4307 41.6298L33.4307 41.6297L33.4306 41.6297L33.4306 41.6297L33.2802 41.5099C32.2097 40.6593 31.3158 40.028 30.1865 40.028C29.0845 40.028 28.3427 40.6206 27.2651 41.4816L27.2314 41.5085C26.1793 42.349 24.8656 43.3653 22.8255 43.3653C20.7457 43.3653 19.6363 42.3078 18.7497 41.4571C17.8738 40.6169 17.2523 40.028 16.0064 40.028C15.0495 40.028 14.1736 40.6438 13.0144 41.5221L12.966 41.5588L12.966 41.5588L12.9659 41.5588L12.9659 41.5588L12.9659 41.5588L12.9659 41.5589L12.9658 41.5589L12.9658 41.5589C12.4401 41.9573 11.8577 42.3987 11.2444 42.7369C10.6029 43.0906 9.87064 43.3653 9.0467 43.3653C8.57158 43.3653 8.18642 42.9802 8.18642 42.505C8.18642 42.0299 8.57158 41.6448 9.0467 41.6448C9.47903 41.6448 9.92024 41.5023 10.4135 41.2302C10.9159 40.9532 11.4124 40.5772 11.9754 40.1507L12.0514 40.093C13.0839 39.31 14.4059 38.3074 16.0064 38.3074C17.0483 38.3074 17.838 38.6004 18.4775 38.9981V24.8415L9.04669 24.8415C8.51878 24.8415 8.09082 24.4135 8.09082 23.8856C8.09082 23.3577 8.51878 22.9297 9.04669 22.9297L18.5138 22.9297C18.6448 21.1451 19.1341 19.2949 20.0453 17.7981ZM37.0929 41.6446C37.0844 41.6447 37.0759 41.6448 37.0674 41.6448C36.6665 41.6448 36.2686 41.5094 35.817 41.2428C35.7149 41.1825 35.6133 41.1176 35.5112 41.0484V36.4C35.8331 36.092 36.0395 35.6722 36.0395 35.1817C36.0395 34.6913 35.8331 34.2715 35.5112 33.9635V30.2277C35.8331 29.9197 36.0395 29.4999 36.0395 29.0094C36.0395 28.519 35.8331 28.0992 35.5112 27.7912V24.8415L37.0929 24.8415V41.6446ZM38.3176 22.9297H44.1042C44.0577 21.6618 43.8507 20.7205 43.4544 20.0851C43.0364 19.4148 42.3589 19.0099 41.1559 19.0099C40.4658 19.0099 39.966 19.258 39.5812 19.6395C39.1822 20.0349 38.8896 20.5931 38.6815 21.2201C38.4878 21.8035 38.3788 22.4103 38.3176 22.9297ZM45.252 22.9297C45.206 21.5608 44.983 20.3684 44.4277 19.4781C43.7592 18.4063 42.6707 17.8629 41.1559 17.8629C40.1473 17.8629 39.3616 18.242 38.7736 18.8248C38.1998 19.3937 37.8324 20.1369 37.5928 20.8587C37.3535 21.5796 37.2285 22.3205 37.1634 22.9297L35.5508 22.9297C35.68 21.3165 36.127 19.6835 36.9116 18.3945C37.8463 16.8593 39.2344 15.8403 41.1559 15.8403C43.1647 15.8403 44.6354 16.5781 45.6203 17.8551C46.5409 19.0487 47.0781 20.768 47.1588 22.9297L45.252 22.9297ZM34.3641 24.8415L22.3534 24.8415V27.2347L34.0954 27.2347C34.1857 27.2347 34.2755 27.2406 34.3641 27.2521V24.8415ZM34.3641 30.7668C34.2755 30.7783 34.1857 30.7842 34.0954 30.7842L22.3534 30.7842V33.407L34.0954 33.407C34.1857 33.407 34.2755 33.4129 34.3641 33.4244V30.7668ZM34.3641 34.5893C34.2832 34.5668 34.1935 34.554 34.0954 34.554H22.3534V35.8095H34.0954C34.1935 35.8095 34.2832 35.7967 34.3641 35.7741V34.5893ZM34.3641 36.9391C34.2755 36.9506 34.1857 36.9565 34.0954 36.9565H22.3534V41.6176C22.5015 41.6354 22.6583 41.6448 22.8255 41.6448C24.2202 41.6448 25.1209 40.9924 26.1575 40.1642C26.2121 40.1206 26.2673 40.0762 26.3233 40.0312C27.286 39.2574 28.4677 38.3074 30.1865 38.3074C31.9893 38.3074 33.3211 39.3448 34.3506 40.1628L34.3641 40.1736V36.9391ZM29.3582 22.9297H31.2641C31.1604 20.8455 30.6273 19.1448 29.7283 17.9413C28.7381 16.6157 27.2664 15.8403 25.2693 15.8403C23.3478 15.8403 21.9597 16.8593 21.025 18.3945C20.2404 19.6835 19.7934 21.3165 19.6642 22.9297H21.2768C21.3419 22.3205 21.4669 21.5796 21.7062 20.8587C21.9458 20.1369 22.3132 19.3937 22.887 18.8248C23.475 18.242 24.2607 17.8629 25.2693 17.8629C26.806 17.8629 27.8894 18.4702 28.548 19.5827C29.0719 20.4676 29.2987 21.6265 29.3582 22.9297ZM19.6246 39.9133V24.8415H21.2063V27.5496C20.7119 27.8585 20.3664 28.3748 20.3664 29.0094C20.3664 29.644 20.7119 30.1604 21.2063 30.4693V33.7219C20.7119 34.0308 20.3664 34.5472 20.3664 35.1817C20.3664 35.8163 20.7119 36.3327 21.2063 36.6416V41.0854C21.1058 41.085 21.0139 41.079 20.928 41.0677C20.591 40.8333 20.2798 40.5408 19.9408 40.2156L19.8735 40.1509L19.8733 40.1508C19.7925 40.0731 19.7098 39.9936 19.6246 39.9133ZM22.7949 21.2201C22.6012 21.8035 22.4922 22.4103 22.431 22.9297L28.2097 22.9297C28.1506 21.7409 27.9444 20.8147 27.561 20.167C27.133 19.4441 26.4504 19.0099 25.2693 19.0099C24.5792 19.0099 24.0794 19.258 23.6946 19.6395C23.2956 20.0349 23.003 20.5931 22.7949 21.2201ZM11.3508 47.0782C10.6586 47.4476 9.87425 47.7412 9.0467 47.7412C8.57158 47.7412 8.18642 47.3561 8.18642 46.8809C8.18642 46.4058 8.57158 46.0207 9.0467 46.0207C9.47542 46.0207 9.96978 45.865 10.5408 45.5603C11.1087 45.2573 11.6867 44.8434 12.2808 44.3962C12.3963 44.3093 12.5134 44.2202 12.6315 44.1305C13.0977 43.7761 13.5778 43.4112 14.0245 43.1242C14.5596 42.7802 15.2226 42.4259 15.9061 42.4259C16.5857 42.4259 17.1893 42.7508 17.674 43.0712C17.9882 43.2789 18.3389 43.5475 18.6814 43.8097C18.8588 43.9455 19.0339 44.0796 19.2006 44.2027C20.254 44.9804 21.3773 45.6432 22.8084 45.6432C24.2509 45.6432 25.4587 44.9716 26.6258 44.1822C26.7923 44.0696 26.9638 43.9504 27.1368 43.8302L27.137 43.83C27.5351 43.5533 27.9415 43.2709 28.315 43.0491C28.8543 42.729 29.4939 42.4259 30.1865 42.4259C30.8687 42.4259 31.5336 42.7209 32.1002 43.0383C32.595 43.3155 33.116 43.6706 33.6142 44.0102C33.6995 44.0683 33.7841 44.126 33.8678 44.1828C34.461 44.5849 35.0291 44.9559 35.5853 45.2281C36.1432 45.5012 36.6272 45.6432 37.0503 45.6432C37.4744 45.6432 37.9639 45.5007 38.53 45.2265C39.0936 44.9536 39.6708 44.5818 40.2714 44.1799C40.3599 44.1206 40.4494 44.0604 40.5396 43.9997L40.5411 43.9987L40.5411 43.9987L40.5411 43.9986L40.5411 43.9986L40.5414 43.9984L40.5415 43.9984C41.0416 43.6618 41.5623 43.3112 42.0542 43.0373C42.6205 42.7218 43.2856 42.4259 43.9616 42.4259C44.6489 42.4259 45.3041 42.7361 45.8539 43.0614C46.2953 43.3226 46.7647 43.6547 47.2187 43.9759L47.2198 43.9767C47.3415 44.0628 47.4622 44.1482 47.5808 44.2311C48.7866 45.0742 49.8789 45.726 50.9534 45.726C51.4285 45.726 51.8137 46.1111 51.8137 46.5862C51.8137 47.0614 51.4285 47.4465 50.9534 47.4465C49.2633 47.4465 47.7492 46.4482 46.595 45.6412C46.4542 45.5428 46.3189 45.4471 46.1881 45.3547C45.7443 45.0409 45.3528 44.7641 44.9777 44.5422C44.4818 44.2487 44.1637 44.1464 43.9616 44.1464C43.748 44.1464 43.4081 44.2526 42.8914 44.5404C42.4686 44.7759 42.019 45.0783 41.5161 45.4165L41.5161 45.4166C41.4221 45.4798 41.3262 45.5442 41.2284 45.6097C40.6271 46.0121 39.962 46.4447 39.2799 46.775C38.6003 47.1041 37.841 47.3638 37.0503 47.3638C36.2587 47.3638 35.5032 47.1036 34.8288 46.7734C34.1526 46.4424 33.4954 46.009 32.9023 45.6069C32.8115 45.5453 32.7224 45.4847 32.635 45.4251L32.6334 45.424L32.6333 45.4239C32.1308 45.0818 31.6825 44.7765 31.2593 44.5394C30.7491 44.2536 30.4079 44.1464 30.1865 44.1464C29.9754 44.1464 29.6703 44.2455 29.1934 44.5286C28.8737 44.7184 28.5523 44.942 28.1844 45.1979C27.9998 45.3263 27.8034 45.4629 27.5897 45.6074C26.3784 46.4267 24.8007 47.3638 22.8084 47.3638C20.8047 47.3638 19.3041 46.4179 18.1787 45.5869C17.9497 45.4178 17.7474 45.2625 17.5605 45.1191L17.5604 45.1189L17.5603 45.1189L17.5603 45.1189L17.5601 45.1187L17.56 45.1187L17.5599 45.1186L17.5598 45.1185C17.2569 44.8859 16.9946 44.6846 16.7252 44.5065C16.2973 44.2237 16.0538 44.1464 15.9061 44.1464C15.7623 44.1464 15.4683 44.2415 14.9548 44.5715C14.5708 44.8183 14.1626 45.1283 13.7037 45.4769L13.7031 45.4774C13.5779 45.5725 13.4488 45.6705 13.3155 45.7709C12.7157 46.2224 12.0461 46.7072 11.3508 47.0782Z" fill="#F8F9FA"/>
<path d="M20.0453 17.7981L18.764 17.0181L18.764 17.0181L20.0453 17.7981ZM30.6473 17.2549L31.849 16.3572L31.849 16.3572L30.6473 17.2549ZM32.4124 22.9298L30.914 22.9991C30.9511 23.7997 31.6109 24.4298 32.4124 24.4298V22.9298ZM34.4004 22.9298V24.4298C35.1863 24.4298 35.8389 23.8233 35.8964 23.0396L34.4004 22.9298ZM35.9319 17.7981L37.2131 18.5781L37.2131 18.5781L35.9319 17.7981ZM46.5285 17.1546L45.3408 18.0707L45.3408 18.0707L46.5285 17.1546ZM48.3065 22.9298L46.8074 22.9818C46.8355 23.7895 47.4984 24.4298 48.3065 24.4298V22.9298ZM50.9534 24.8415L50.9534 23.3415L50.9534 23.3415L50.9534 24.8415ZM38.24 24.8415L38.24 23.3415C37.4115 23.3415 36.74 24.0131 36.74 24.8415H38.24ZM38.24 41.279H36.74C36.74 41.8156 37.0267 42.3114 37.4918 42.5791C37.957 42.8468 38.5297 42.8455 38.9937 42.5759L38.24 41.279ZM38.2956 41.2461L39.0678 42.5321L39.0678 42.5321L38.2956 41.2461ZM39.5468 40.3214L40.4871 41.4901L40.4872 41.4901L39.5468 40.3214ZM39.7413 40.1651L40.6794 41.3356L40.6794 41.3356L39.7413 40.1651ZM48.125 39.9948L47.2218 41.1924L47.2218 41.1924L48.125 39.9948ZM47.2254 41.4716L48.1311 40.2759L48.1303 40.2753L47.2254 41.4716ZM47.089 41.3685L47.9939 40.1722L47.9922 40.1709L47.089 41.3685ZM40.8173 41.5077L41.7553 42.6783L41.7553 42.6783L40.8173 41.5077ZM40.6303 41.6582L41.5718 42.826L41.5718 42.826L40.6303 41.6582ZM39.1814 42.7211L38.4091 41.4352L38.4091 41.4352L39.1814 42.7211ZM34.9422 42.7244L35.7049 41.4328L35.7049 41.4328L34.9422 42.7244ZM33.4307 41.6298L34.3659 40.4571C34.3543 40.4478 34.3426 40.4387 34.3307 40.4298L33.4307 41.6298ZM33.4306 41.6298L32.4961 42.8031C32.5075 42.8121 32.519 42.821 32.5306 42.8298L33.4306 41.6298ZM33.2802 41.51L34.2148 40.3367L34.2134 40.3356L33.2802 41.51ZM27.2651 41.4817L28.2014 42.6536L28.2014 42.6536L27.2651 41.4817ZM27.2314 41.5086L28.1677 42.6805L28.1677 42.6805L27.2314 41.5086ZM18.7496 41.4572L19.7881 40.3748L19.7881 40.3748L18.7496 41.4572ZM16.0064 40.028L16.0064 38.528L16.0064 38.528L16.0064 40.028ZM13.0144 41.5221L12.1085 40.3265L12.1084 40.3266L13.0144 41.5221ZM12.966 41.5588L13.798 42.8069C13.8232 42.7901 13.8478 42.7726 13.872 42.7543L12.966 41.5588ZM12.966 41.5588L12.1339 40.3107C12.0978 40.3348 12.0628 40.3604 12.0289 40.3875L12.966 41.5588ZM12.9659 41.5588L13.875 42.752C13.8844 42.7448 13.8937 42.7375 13.903 42.7301L12.9659 41.5588ZM12.9659 41.5589L12.0568 40.3657C12.0474 40.3729 12.0381 40.3802 12.0288 40.3876L12.9659 41.5589ZM12.9658 41.5589L12.0288 40.3876C12.019 40.3955 12.0093 40.4034 11.9996 40.4115L12.9658 41.5589ZM12.9658 41.559L13.8718 42.7544C13.8923 42.7389 13.9123 42.7229 13.932 42.7063L12.9658 41.559ZM11.2443 42.737L11.9687 44.0505L11.9687 44.0505L11.2443 42.737ZM10.4135 41.2303L11.1378 42.5438L11.1378 42.5438L10.4135 41.2303ZM11.9754 40.1507L12.8812 41.3463L12.8816 41.3461L11.9754 40.1507ZM12.0514 40.093L12.9576 41.2884L12.9578 41.2882L12.0514 40.093ZM16.0064 38.3075L16.0064 39.8075L16.0064 39.8075L16.0064 38.3075ZM18.4775 38.9982L17.6853 40.2719C18.1478 40.5596 18.73 40.5739 19.2061 40.3094C19.6822 40.0448 19.9775 39.5429 19.9775 38.9982H18.4775ZM18.4775 24.8415H19.9775C19.9775 24.4437 19.8195 24.0622 19.5382 23.7809C19.2569 23.4996 18.8754 23.3415 18.4775 23.3415L18.4775 24.8415ZM9.04669 24.8415L9.04669 26.3415L9.04669 26.3415L9.04669 24.8415ZM8.09082 23.8857L9.59082 23.8857L8.09082 23.8857ZM9.04669 22.9298L9.04669 24.4298L9.04669 24.4298L9.04669 22.9298ZM18.5138 22.9298L18.5138 24.4298C19.2997 24.4298 19.9523 23.8233 20.0098 23.0396L18.5138 22.9298ZM37.0929 41.6446L37.1144 43.1445C37.9344 43.1327 38.5929 42.4647 38.5929 41.6446H37.0929ZM35.817 41.2428L35.0544 42.5345L35.0544 42.5345L35.817 41.2428ZM35.5112 41.0485H34.0112C34.0112 41.5461 34.258 42.0113 34.67 42.2904L35.5112 41.0485ZM35.5112 36.4001L34.4742 35.3162C34.1785 35.5992 34.0112 35.9907 34.0112 36.4001H35.5112ZM35.5112 33.9635H34.0112C34.0112 34.3729 34.1785 34.7644 34.4742 35.0474L35.5112 33.9635ZM35.5112 30.2278L34.4742 29.1439C34.1785 29.4269 34.0112 29.8184 34.0112 30.2278H35.5112ZM35.5112 27.7912H34.0112C34.0112 28.2006 34.1785 28.5921 34.4742 28.8751L35.5112 27.7912ZM35.5112 24.8415L35.5112 23.3415C34.6827 23.3415 34.0112 24.0131 34.0112 24.8415H35.5112ZM37.0929 24.8415H38.5929C38.5929 24.4437 38.4349 24.0622 38.1536 23.7809C37.8723 23.4996 37.4907 23.3415 37.0929 23.3415L37.0929 24.8415ZM44.1042 22.9298V24.4298C44.5115 24.4298 44.9014 24.2641 45.1841 23.9709C45.4668 23.6776 45.6181 23.2819 45.6032 22.8749L44.1042 22.9298ZM38.3176 22.9298L36.8279 22.7542C36.7778 23.1797 36.9119 23.6063 37.1966 23.9265C37.4812 24.2466 37.8892 24.4298 38.3176 24.4298V22.9298ZM43.4544 20.0852L44.7272 19.2914L44.7272 19.2914L43.4544 20.0852ZM39.5811 19.6395L38.5251 18.5742L38.5251 18.5742L39.5811 19.6395ZM38.6815 21.2201L37.2578 20.7476L37.2578 20.7476L38.6815 21.2201ZM44.4277 19.4782L45.7005 18.6844L45.7005 18.6844L44.4277 19.4782ZM45.252 22.9298L43.7529 22.9802C43.7801 23.7886 44.4433 24.4298 45.252 24.4298L45.252 22.9298ZM38.7736 18.8249L39.8296 19.8902L39.8296 19.8902L38.7736 18.8249ZM37.5928 20.8588L36.1692 20.3862L36.1692 20.3862L37.5928 20.8588ZM37.1634 22.9298L37.1634 24.4298C37.93 24.4298 38.5733 23.8517 38.6549 23.0893L37.1634 22.9298ZM35.5508 22.9298L34.0556 22.81C34.0221 23.2273 34.1646 23.6396 34.4486 23.9472C34.7325 24.2548 35.1321 24.4298 35.5508 24.4298L35.5508 22.9298ZM36.9116 18.3946L38.1929 19.1746L38.1929 19.1746L36.9116 18.3946ZM45.6203 17.8551L46.808 16.939L46.808 16.939L45.6203 17.8551ZM47.1588 22.9298L47.1588 24.4298C47.5663 24.4298 47.9563 24.264 48.239 23.9705C48.5218 23.677 48.6729 23.2811 48.6577 22.8739L47.1588 22.9298ZM22.3534 24.8415L22.3534 23.3415C21.5249 23.3415 20.8534 24.0131 20.8534 24.8415H22.3534ZM34.3641 24.8415H35.8641C35.8641 24.4437 35.7061 24.0622 35.4248 23.7809C35.1435 23.4996 34.762 23.3415 34.3641 23.3415L34.3641 24.8415ZM22.3534 27.2347H20.8534C20.8534 28.0631 21.5249 28.7347 22.3534 28.7347L22.3534 27.2347ZM34.0954 27.2347L34.0954 28.7347H34.0954V27.2347ZM34.3641 27.2521L34.1709 28.7396C34.5988 28.7952 35.0299 28.6638 35.3541 28.3791C35.6783 28.0943 35.8641 27.6837 35.8641 27.2521H34.3641ZM34.0954 30.7843L34.0954 32.2843H34.0954V30.7843ZM34.3641 30.7668H35.8641C35.8641 30.3353 35.6783 29.9247 35.3541 29.6399C35.0299 29.3551 34.5988 29.2237 34.1709 29.2793L34.3641 30.7668ZM22.3534 30.7843L22.3534 29.2843C21.9555 29.2843 21.574 29.4423 21.2927 29.7236C21.0114 30.0049 20.8534 30.3864 20.8534 30.7843H22.3534ZM22.3534 33.407H20.8534C20.8534 34.2354 21.5249 34.907 22.3534 34.907L22.3534 33.407ZM34.0954 33.407L34.0954 34.907H34.0954V33.407ZM34.3641 33.4244L34.1709 34.9119C34.5988 34.9675 35.0299 34.8362 35.3541 34.5514C35.6783 34.2666 35.8641 33.856 35.8641 33.4244H34.3641ZM34.3641 34.5894H35.8641C35.8641 33.9162 35.4157 33.3255 34.7673 33.1446L34.3641 34.5894ZM22.3534 34.5541V33.0541C21.5249 33.0541 20.8534 33.7256 20.8534 34.5541H22.3534ZM22.3534 35.8095H20.8534C20.8534 36.638 21.5249 37.3095 22.3534 37.3095V35.8095ZM34.3641 35.7742L34.7673 37.219C35.4157 37.0381 35.8641 36.4474 35.8641 35.7742H34.3641ZM34.3641 36.9392H35.8641C35.8641 36.5076 35.6783 36.097 35.3541 35.8122C35.0299 35.5274 34.5988 35.3961 34.1709 35.4517L34.3641 36.9392ZM22.3534 36.9566V35.4566C21.5249 35.4566 20.8534 36.1282 20.8534 36.9566H22.3534ZM22.3534 41.6177H20.8534C20.8534 42.3767 21.4204 43.0161 22.174 43.1069L22.3534 41.6177ZM26.1575 40.1643L27.0938 41.3362L27.0938 41.3362L26.1575 40.1643ZM26.3233 40.0313L25.3835 38.8622L25.3835 38.8622L26.3233 40.0313ZM34.3506 40.1629L35.2846 38.9891L35.2838 38.9885L34.3506 40.1629ZM34.3641 40.1737L33.4302 41.3474C33.8808 41.706 34.497 41.7749 35.0157 41.5247C35.5344 41.2746 35.8641 40.7495 35.8641 40.1737H34.3641ZM31.2641 22.9298V24.4298C31.6749 24.4298 32.0677 24.2613 32.3508 23.9638C32.634 23.6662 32.7827 23.2655 32.7623 22.8552L31.2641 22.9298ZM29.3581 22.9298L27.8597 22.9982C27.8963 23.7992 28.5563 24.4298 29.3581 24.4298V22.9298ZM29.7283 17.9413L30.93 17.0436L30.93 17.0436L29.7283 17.9413ZM21.025 18.3946L22.3063 19.1746L22.3063 19.1746L21.025 18.3946ZM19.6642 22.9298L18.169 22.81C18.1355 23.2273 18.278 23.6396 18.562 23.9472C18.8459 24.2548 19.2455 24.4298 19.6642 24.4298V22.9298ZM21.2768 22.9298V24.4298C22.0434 24.4298 22.6867 23.8517 22.7683 23.0893L21.2768 22.9298ZM21.7062 20.8588L23.1298 21.3313L23.1298 21.3313L21.7062 20.8588ZM22.887 18.8249L21.831 17.7596L21.831 17.7596L22.887 18.8249ZM28.548 19.5827L27.2572 20.3469L27.2572 20.3469L28.548 19.5827ZM19.6246 24.8415V23.3415C18.7961 23.3415 18.1246 24.0131 18.1246 24.8415H19.6246ZM19.6246 39.9134H18.1246C18.1246 40.3267 18.2951 40.7217 18.5959 41.0051L19.6246 39.9134ZM21.2063 24.8415H22.7063C22.7063 24.0131 22.0347 23.3415 21.2063 23.3415V24.8415ZM21.2063 27.5496L22.0011 28.8217C22.4398 28.5477 22.7063 28.0669 22.7063 27.5496H21.2063ZM21.2063 30.4694H22.7063C22.7063 29.9521 22.4398 29.4713 22.0011 29.1972L21.2063 30.4694ZM21.2063 33.7219L22.0011 34.9941C22.4398 34.72 22.7063 34.2392 22.7063 33.7219H21.2063ZM21.2063 36.6417H22.7063C22.7063 36.1244 22.4398 35.6436 22.0011 35.3695L21.2063 36.6417ZM21.2063 41.0855L21.2001 42.5854C21.599 42.5871 21.9821 42.4298 22.2648 42.1483C22.5474 41.8668 22.7063 41.4843 22.7063 41.0855H21.2063ZM20.928 41.0677L20.0716 42.2992C20.2679 42.4357 20.494 42.5233 20.731 42.5547L20.928 41.0677ZM19.9408 40.2156L18.9018 41.2975L18.9023 41.298L19.9408 40.2156ZM19.8735 40.151L20.9125 39.0691C20.9079 39.0647 20.9033 39.0603 20.8986 39.0559L19.8735 40.151ZM19.8733 40.1508L18.834 41.2324C18.8387 41.2369 18.8434 41.2414 18.8482 41.2459L19.8733 40.1508ZM22.431 22.9298L20.9413 22.7542C20.8912 23.1797 21.0253 23.6063 21.31 23.9265C21.5946 24.2466 22.0026 24.4298 22.431 24.4298L22.431 22.9298ZM22.7949 21.2201L24.2185 21.6927L24.2185 21.6927L22.7949 21.2201ZM28.2097 22.9298L28.2097 24.4298C28.6204 24.4298 29.0132 24.2614 29.2964 23.9638C29.5795 23.6662 29.7282 23.2655 29.7078 22.8553L28.2097 22.9298ZM27.561 20.1671L28.8517 19.4029L28.8517 19.4029L27.561 20.1671ZM23.6945 19.6395L22.6385 18.5742L22.6385 18.5742L23.6945 19.6395ZM11.3508 47.0783L10.6446 45.7549L10.6446 45.7549L11.3508 47.0783ZM10.5408 45.5603L9.83463 44.2369L9.83463 44.2369L10.5408 45.5603ZM12.2808 44.3963L13.1829 45.5947L13.1829 45.5947L12.2808 44.3963ZM12.6315 44.1306L13.5391 45.3248L13.5391 45.3248L12.6315 44.1306ZM14.0245 43.1242L14.8355 44.386L14.8355 44.386L14.0245 43.1242ZM17.674 43.0713L18.5011 41.8199L18.5011 41.8199L17.674 43.0713ZM18.6814 43.8098L19.5933 42.6188L19.5933 42.6188L18.6814 43.8098ZM19.2006 44.2028L18.3097 45.4095L18.3097 45.4095L19.2006 44.2028ZM26.6258 44.1823L27.4661 45.4248L27.4661 45.4248L26.6258 44.1823ZM27.1368 43.8302L26.283 42.5969L26.2807 42.5985L27.1368 43.8302ZM27.137 43.8301L27.9908 45.0634L27.9931 45.0618L27.137 43.8301ZM28.315 43.0492L29.0808 44.339L29.0808 44.339L28.315 43.0492ZM32.1002 43.0384L32.8333 41.7298L32.8333 41.7298L32.1002 43.0384ZM33.6142 44.0102L34.459 42.7708L34.459 42.7708L33.6142 44.0102ZM33.8678 44.1828L33.0261 45.4244L33.0261 45.4244L33.8678 44.1828ZM35.5853 45.2282L34.9258 46.5754L34.9258 46.5754L35.5853 45.2282ZM38.53 45.2266L39.1838 46.5766L39.1838 46.5766L38.53 45.2266ZM40.2713 44.18L39.437 42.9334L39.437 42.9334L40.2713 44.18ZM40.5396 43.9997L39.7042 42.7539L39.702 42.7554L40.5396 43.9997ZM40.5411 43.9987L41.3764 45.2446C41.3984 45.2299 41.4199 45.2146 41.4411 45.1987L40.5411 43.9987ZM40.5411 43.9987L39.7091 42.7506C39.686 42.766 39.6633 42.782 39.6411 42.7987L40.5411 43.9987ZM40.5414 43.9985L41.3735 45.2466C41.3794 45.2426 41.3853 45.2386 41.3912 45.2345L40.5414 43.9985ZM40.5415 43.9984L39.7039 42.7541C39.6999 42.7568 39.6958 42.7596 39.6917 42.7624L40.5415 43.9984ZM42.0542 43.0374L42.7841 44.3478L42.7841 44.3478L42.0542 43.0374ZM45.8539 43.0615L46.6177 41.7705L46.6177 41.7705L45.8539 43.0615ZM47.2187 43.976L46.3523 45.2005L46.3551 45.2024L47.2187 43.976ZM47.2198 43.9767L48.0862 42.7522L48.0833 42.7503L47.2198 43.9767ZM47.5808 44.2312L48.4404 43.0019L48.4403 43.0019L47.5808 44.2312ZM46.595 45.6413L45.7354 46.8706L45.7354 46.8706L46.595 45.6413ZM46.1881 45.3547L45.3221 46.5795L45.3221 46.5795L46.1881 45.3547ZM44.9777 44.5422L45.7416 43.2513L45.7416 43.2513L44.9777 44.5422ZM42.8914 44.5405L42.1615 43.2301L42.1615 43.2301L42.8914 44.5405ZM41.5161 45.4166L42.3273 46.6783C42.336 46.6727 42.3447 46.667 42.3533 46.6612L41.5161 45.4166ZM41.5161 45.4166L40.7049 44.1549C40.6962 44.1605 40.6875 44.1662 40.6789 44.172L41.5161 45.4166ZM41.2284 45.6098L42.0627 46.8564L42.0627 46.8564L41.2284 45.6098ZM39.2799 46.7751L38.6261 45.4251L38.6261 45.4251L39.2799 46.7751ZM34.8288 46.7735L35.4883 45.4263L35.4883 45.4263L34.8288 46.7735ZM32.9023 45.6069L33.744 44.3654L33.744 44.3654L32.9023 45.6069ZM32.635 45.4252L31.7892 46.664L31.7908 46.6651L32.635 45.4252ZM32.6333 45.4241L31.7836 46.6601L31.7875 46.6629L32.6333 45.4241ZM32.6333 45.424L33.4831 44.1879L33.4776 44.1842L32.6333 45.424ZM31.2593 44.5395L30.5262 45.8481L30.5262 45.8481L31.2593 44.5395ZM29.1934 44.5287L29.9591 45.8185L29.9591 45.8185L29.1934 44.5287ZM28.1844 45.1979L29.041 46.4293L29.041 46.4293L28.1844 45.1979ZM27.5897 45.6075L28.4301 46.85L28.4301 46.85L27.5897 45.6075ZM18.1787 45.587L19.0696 44.3802L19.0696 44.3802L18.1787 45.587ZM17.5605 45.1191L16.6382 46.3021L16.6471 46.3089L17.5605 45.1191ZM17.5603 45.119L16.6233 46.2903C16.6282 46.2942 16.6331 46.2981 16.6381 46.3019L17.5603 45.119ZM17.5603 45.119L16.6105 46.2799C16.6147 46.2834 16.619 46.2868 16.6233 46.2903L17.5603 45.119ZM17.5603 45.1189L18.5101 43.958C18.4997 43.9495 18.4892 43.9411 18.4785 43.9328L17.5603 45.1189ZM17.5601 45.1188L18.4784 43.9327L18.4713 43.9273L17.5601 45.1188ZM17.56 45.1187L18.4712 43.9271L18.46 43.9187L17.56 45.1187ZM17.5599 45.1186L18.4599 43.9186L18.4519 43.9127L17.5599 45.1186ZM17.5598 45.1186L16.6464 46.3084C16.6535 46.3138 16.6606 46.3192 16.6677 46.3245L17.5598 45.1186ZM16.7252 44.5066L15.898 45.7579L15.898 45.7579L16.7252 44.5066ZM14.9548 44.5716L14.1437 43.3098L14.1437 43.3098L14.9548 44.5716ZM13.7037 45.477L14.6096 46.6725L14.611 46.6715L13.7037 45.477ZM13.7031 45.4775L12.7972 44.2819L12.7958 44.283L13.7031 45.4775ZM13.3155 45.7709L12.4134 44.5725L12.4134 44.5725L13.3155 45.7709ZM25.2693 13.1934C22.215 13.1934 20.0592 14.8906 18.764 17.0181L21.3265 18.5781C22.2136 17.1209 23.4998 16.1934 25.2693 16.1934V13.1934ZM31.849 16.3572C30.3283 14.3213 28.0485 13.1934 25.2693 13.1934V16.1934C27.1624 16.1934 28.5262 16.9218 29.4455 18.1525L31.849 16.3572ZM33.9108 22.8605C33.7971 20.4017 33.1652 18.1191 31.849 16.3572L29.4455 18.1525C30.2957 19.2907 30.8184 20.9316 30.914 22.9991L33.9108 22.8605ZM34.4004 21.4298H32.4124V24.4298H34.4004V21.4298ZM35.8964 23.0396C36.0144 21.4307 36.4542 19.8248 37.2131 18.5781L34.6506 17.0181C33.5872 18.765 33.0483 20.8597 32.9044 22.82L35.8964 23.0396ZM37.2131 18.5781C38.1002 17.1209 39.3864 16.1934 41.1559 16.1934V13.1934C38.1016 13.1934 35.9458 14.8906 34.6506 17.0181L37.2131 18.5781ZM41.1559 16.1934C43.0679 16.1934 44.4301 16.8899 45.3408 18.0707L47.7163 16.2385C46.1764 14.2419 43.8929 13.1934 41.1559 13.1934V16.1934ZM45.3408 18.0707C46.2065 19.1931 46.7332 20.8437 46.8074 22.9818L49.8056 22.8778C49.7177 20.3443 49.0858 18.0142 47.7163 16.2385L45.3408 18.0707ZM50.9534 21.4298H48.3065V24.4298H50.9534V21.4298ZM53.4093 23.8857C53.4093 22.5293 52.3097 21.4298 50.9534 21.4298V24.4298C50.6529 24.4298 50.4093 24.1862 50.4093 23.8857H53.4093ZM50.9534 26.3415C52.3097 26.3415 53.4093 25.242 53.4093 23.8857H50.4093C50.4093 23.5852 50.6529 23.3415 50.9534 23.3415V26.3415ZM38.24 26.3415L50.9534 26.3415L50.9534 23.3415L38.24 23.3415L38.24 26.3415ZM36.74 24.8415V41.279H39.74V24.8415H36.74ZM37.5233 39.9602C37.5107 39.9677 37.4983 39.9751 37.4862 39.9821L38.9937 42.5759C39.0184 42.5615 39.0431 42.5469 39.0678 42.5321L37.5233 39.9602ZM38.6064 39.1528C38.1269 39.5386 37.8204 39.7818 37.5233 39.9602L39.0678 42.5321C39.5754 42.2272 40.049 41.8426 40.4871 41.4901L38.6064 39.1528ZM38.8033 38.9946C38.7356 39.0488 38.6697 39.1019 38.6064 39.1528L40.4872 41.4901C40.5508 41.4389 40.6144 41.3877 40.6794 41.3356L38.8033 38.9946ZM44.0016 36.8075C41.5409 36.8075 39.8337 38.1688 38.8033 38.9946L40.6794 41.3356C41.7221 40.5 42.6914 39.8075 44.0016 39.8075V36.8075ZM49.0283 38.7972C48.0273 38.0423 46.4171 36.8075 44.0016 36.8075V39.8075C45.3241 39.8075 46.2188 40.4359 47.2218 41.1924L49.0283 38.7972ZM50.9534 39.8353C50.4926 39.8353 50.1608 39.6514 49.0283 38.7972L47.2218 41.1924C48.1854 41.9192 49.3192 42.8353 50.9534 42.8353V39.8353ZM53.3137 42.1955C53.3137 40.892 52.2569 39.8353 50.9534 39.8353V42.8353C50.6001 42.8353 50.3137 42.5488 50.3137 42.1955H53.3137ZM50.9534 44.5558C52.257 44.5558 53.3137 43.4991 53.3137 42.1955H50.3137C50.3137 41.8422 50.6001 41.5558 50.9534 41.5558V44.5558ZM46.3196 42.6673C47.2262 43.354 48.7538 44.5558 50.9534 44.5558V41.5558C49.8796 41.5558 49.0951 41.0062 48.1311 40.2759L46.3196 42.6673ZM46.1841 42.5648L46.3205 42.6679L48.1303 40.2753L47.9939 40.1722L46.1841 42.5648ZM44.0016 41.528C44.6938 41.528 45.1753 41.8039 46.1858 42.5661L47.9922 40.1709C46.9923 39.4167 45.7914 38.528 44.0016 38.528V41.528ZM41.7553 42.6783C42.8114 41.8319 43.3547 41.528 44.0016 41.528V38.528C42.1995 38.528 40.9145 39.5076 39.8793 40.3372L41.7553 42.6783ZM41.5718 42.826C41.6353 42.7747 41.6959 42.7259 41.7553 42.6783L39.8793 40.3372C39.8158 40.3881 39.7518 40.4397 39.6888 40.4905L41.5718 42.826ZM39.9536 44.0071C40.5692 43.6374 41.14 43.1741 41.5718 42.826L39.6888 40.4905C39.2269 40.8629 38.8167 41.1904 38.4091 41.4352L39.9536 44.0071ZM37.0674 44.8654C38.2465 44.8654 39.2122 44.4523 39.9536 44.0071L38.4091 41.4352C37.9477 41.7123 37.5196 41.8654 37.0674 41.8654V44.8654ZM34.1796 44.0161C34.9241 44.4557 35.8933 44.8654 37.0674 44.8654V41.8654C36.6137 41.8654 36.1767 41.7114 35.7049 41.4328L34.1796 44.0161ZM32.4954 42.8026C32.9451 43.1612 33.5383 43.6374 34.1796 44.0161L35.7049 41.4328C35.2756 41.1793 34.8458 40.8398 34.3659 40.4571L32.4954 42.8026ZM32.5307 42.8298L32.5307 42.8298L34.3307 40.4298L34.3307 40.4298L32.5307 42.8298ZM32.5306 42.8298L32.5307 42.8298L34.3307 40.4298L34.3306 40.4298L32.5306 42.8298ZM32.5306 42.8298L32.5306 42.8298L34.3306 40.4298L34.3306 40.4298L32.5306 42.8298ZM32.3457 42.6833L32.4961 42.8031L34.3652 40.4565L34.2148 40.3367L32.3457 42.6833ZM30.1865 41.528C30.7266 41.528 31.2369 41.8023 32.3471 42.6844L34.2134 40.3356C33.1824 39.5164 31.9049 38.528 30.1865 38.528V41.528ZM28.2014 42.6536C29.3672 41.7221 29.6986 41.528 30.1865 41.528V38.528C28.4703 38.528 27.3183 39.5192 26.3288 40.3098L28.2014 42.6536ZM28.1677 42.6805L28.2014 42.6536L26.3288 40.3098L26.2951 40.3366L28.1677 42.6805ZM22.8255 44.8654C25.4275 44.8654 27.1008 43.5328 28.1677 42.6805L26.2952 40.3366C25.2578 41.1654 24.3037 41.8654 22.8255 41.8654V44.8654ZM17.7112 42.5396C18.628 43.4192 20.1141 44.8654 22.8255 44.8654V41.8654C21.3772 41.8654 20.6445 41.1965 19.7881 40.3748L17.7112 42.5396ZM16.0064 41.528C16.3583 41.528 16.5584 41.6018 16.7453 41.7139C16.994 41.8631 17.2451 42.0925 17.7112 42.5396L19.7881 40.3748C18.9257 39.5474 17.9116 38.528 16.0064 38.528L16.0064 41.528ZM13.9202 42.7177C14.5089 42.2718 14.9334 41.965 15.3045 41.7626C15.658 41.5698 15.8648 41.528 16.0064 41.528L16.0064 38.528C15.191 38.5281 14.4814 38.7942 13.8679 39.1289C13.2721 39.454 12.6791 39.8943 12.1085 40.3265L13.9202 42.7177ZM13.872 42.7543L13.9203 42.7176L12.1084 40.3266L12.06 40.3633L13.872 42.7543ZM13.798 42.8069L13.798 42.8069L12.1339 40.3107L12.1339 40.3107L13.798 42.8069ZM13.903 42.7301L13.903 42.7301L12.0289 40.3875L12.0289 40.3875L13.903 42.7301ZM13.875 42.752L13.875 42.752L12.0569 40.3657L12.0568 40.3657L13.875 42.752ZM13.8749 42.752L13.875 42.752L12.0568 40.3657L12.0568 40.3657L13.8749 42.752ZM13.9029 42.7302L13.9029 42.7302L12.0288 40.3876L12.0288 40.3876L13.9029 42.7302ZM13.932 42.7063L13.9321 42.7063L11.9996 40.4115L11.9996 40.4116L13.932 42.7063ZM13.932 42.7063L13.932 42.7063L11.9996 40.4116L11.9996 40.4116L13.932 42.7063ZM11.9687 44.0505C12.6932 43.6509 13.3614 43.1413 13.8718 42.7544L12.0598 40.3635C11.5189 40.7734 11.0222 41.1465 10.52 41.4235L11.9687 44.0505ZM9.0467 44.8654C10.2121 44.8654 11.1982 44.4754 11.9687 44.0505L10.52 41.4235C10.0076 41.706 9.52913 41.8654 9.0467 41.8654V44.8654ZM6.68641 42.5051C6.68641 43.8086 7.74315 44.8654 9.0467 44.8654V41.8654C9.4 41.8654 9.68641 42.1518 9.68641 42.5051H6.68641ZM9.0467 40.1448C7.74315 40.1448 6.68641 41.2015 6.68641 42.5051H9.68641C9.68641 42.8584 9.4 43.1448 9.0467 43.1448V40.1448ZM9.68914 39.9168C9.32529 40.1174 9.13776 40.1448 9.0467 40.1448V43.1448C9.82028 43.1448 10.5152 42.8872 11.1378 42.5438L9.68914 39.9168ZM11.0695 38.9551C10.4842 39.3986 10.078 39.7023 9.68914 39.9168L11.1378 42.5438C11.7538 42.2042 12.3406 41.7559 12.8812 41.3463L11.0695 38.9551ZM11.1452 38.8977L11.0692 38.9554L12.8816 41.3461L12.9576 41.2884L11.1452 38.8977ZM16.0064 36.8075C13.8208 36.8075 12.1025 38.1718 11.1451 38.8979L12.9578 41.2882C14.0653 40.4484 14.991 39.8075 16.0064 39.8075L16.0064 36.8075ZM19.2697 37.7245C18.4192 37.1954 17.3583 36.8075 16.0064 36.8075L16.0064 39.8075C16.7384 39.8075 17.2568 40.0054 17.6853 40.2719L19.2697 37.7245ZM16.9775 24.8415V38.9982H19.9775V24.8415H16.9775ZM9.04669 26.3415L18.4775 26.3415L18.4775 23.3415L9.04669 23.3415L9.04669 26.3415ZM6.59082 23.8857C6.59082 25.242 7.69035 26.3415 9.04669 26.3415V23.3415C9.34721 23.3415 9.59082 23.5852 9.59082 23.8857L6.59082 23.8857ZM9.04669 21.4298C7.69035 21.4298 6.59082 22.5293 6.59082 23.8857L9.59082 23.8857C9.59082 24.1862 9.3472 24.4298 9.04669 24.4298V21.4298ZM18.5138 21.4298L9.04669 21.4298L9.04669 24.4298L18.5138 24.4298L18.5138 21.4298ZM18.764 17.0181C17.7006 18.765 17.1617 20.8597 17.0178 22.82L20.0098 23.0396C20.1278 21.4307 20.5676 19.8248 21.3265 18.5781L18.764 17.0181ZM37.0714 40.1448C37.0701 40.1448 37.0687 40.1448 37.0674 40.1448V43.1448C37.0831 43.1448 37.0987 43.1447 37.1144 43.1445L37.0714 40.1448ZM37.0674 40.1448C37.0262 40.1448 36.8943 40.137 36.5797 39.9512L35.0544 42.5345C35.6428 42.882 36.3067 43.1448 37.0674 43.1448V40.1448ZM36.5797 39.9512C36.5082 39.909 36.433 39.8611 36.3524 39.8065L34.67 42.2904C34.7936 42.3741 34.9215 42.4561 35.0544 42.5345L36.5797 39.9512ZM34.0112 36.4001V41.0485H37.0112V36.4001H34.0112ZM36.5481 37.4839C37.1373 36.9203 37.5395 36.1195 37.5395 35.1818H34.5395C34.5395 35.2126 34.5338 35.2312 34.5274 35.2455C34.52 35.262 34.5049 35.2869 34.4742 35.3162L36.5481 37.4839ZM37.5395 35.1818C37.5395 34.2441 37.1373 33.4433 36.5481 32.8797L34.4742 35.0474C34.5049 35.0767 34.52 35.1016 34.5274 35.1181C34.5338 35.1324 34.5395 35.151 34.5395 35.1818H37.5395ZM34.0112 30.2278V33.9635H37.0112V30.2278H34.0112ZM36.5481 31.3116C37.1373 30.748 37.5395 29.9472 37.5395 29.0095H34.5395C34.5395 29.0403 34.5338 29.0589 34.5274 29.0732C34.52 29.0897 34.5049 29.1146 34.4742 29.1439L36.5481 31.3116ZM37.5395 29.0095C37.5395 28.0718 37.1373 27.271 36.5481 26.7074L34.4742 28.8751C34.5049 28.9044 34.52 28.9293 34.5274 28.9457C34.5338 28.9601 34.5395 28.9787 34.5395 29.0095H37.5395ZM34.0112 24.8415V27.7912H37.0112V24.8415H34.0112ZM35.5112 26.3415L37.0929 26.3415L37.0929 23.3415L35.5112 23.3415L35.5112 26.3415ZM38.5929 41.6446V24.8415H35.5929V41.6446H38.5929ZM44.1042 21.4298H38.3176V24.4298H44.1042V21.4298ZM45.6032 22.8749C45.5536 21.5209 45.3323 20.2616 44.7272 19.2914L42.1817 20.879C42.3691 21.1795 42.5619 21.8029 42.6052 22.9847L45.6032 22.8749ZM44.7272 19.2914C44.3889 18.7489 43.9162 18.2758 43.2674 17.9531C42.6346 17.6384 41.9213 17.51 41.1559 17.51V20.51C41.5935 20.51 41.8204 20.584 41.9316 20.6393C42.0268 20.6867 42.1019 20.7511 42.1817 20.879L44.7272 19.2914ZM41.1559 17.51C40.0496 17.51 39.1758 17.9292 38.5251 18.5742L40.6372 20.7048C40.7119 20.6307 40.777 20.5892 40.8384 20.5632C40.8988 20.5377 40.9957 20.51 41.1559 20.51V17.51ZM38.5251 18.5742C37.8975 19.1964 37.5071 19.9966 37.2578 20.7476L40.1051 21.6927C40.272 21.1898 40.467 20.8735 40.6372 20.7048L38.5251 18.5742ZM37.2578 20.7476C37.022 21.4581 36.8965 22.1719 36.8279 22.7542L39.8073 23.1053C39.8611 22.6489 39.9536 22.149 40.1051 21.6927L37.2578 20.7476ZM43.155 20.272C43.5011 20.8269 43.7099 21.701 43.7529 22.9802L46.7512 22.8794C46.7021 21.4207 46.4648 19.91 45.7005 18.6844L43.155 20.272ZM41.1559 19.363C42.2648 19.363 42.8148 19.7265 43.155 20.272L45.7005 18.6844C44.7037 17.0861 43.0766 16.363 41.1559 16.363V19.363ZM39.8296 19.8902C40.1521 19.5705 40.564 19.363 41.1559 19.363V16.363C39.7305 16.363 38.571 16.9136 37.7176 17.7596L39.8296 19.8902ZM39.0164 21.3313C39.2149 20.7336 39.4846 20.2323 39.8296 19.8902L37.7176 17.7596C36.915 18.5553 36.45 19.5404 36.1692 20.3862L39.0164 21.3313ZM38.6549 23.0893C38.713 22.5456 38.8218 21.9178 39.0164 21.3313L36.1692 20.3862C35.8853 21.2416 35.744 22.0956 35.6719 22.7703L38.6549 23.0893ZM37.1634 21.4298L35.5508 21.4298L35.5508 24.4298L37.1634 24.4298L37.1634 21.4298ZM35.6304 17.6146C34.6953 19.1506 34.1986 21.0244 34.0556 22.81L37.046 23.0496C37.1614 21.6087 37.5586 20.2165 38.1929 19.1746L35.6304 17.6146ZM41.1559 14.3404C38.5944 14.3404 36.7706 15.7417 35.6304 17.6146L38.1929 19.1746C38.9219 17.977 39.8744 17.3404 41.1559 17.3404V14.3404ZM46.808 16.939C45.509 15.2548 43.578 14.3404 41.1559 14.3404V17.3404C42.7513 17.3404 43.7617 17.9016 44.4325 18.7712L46.808 16.939ZM48.6577 22.8739C48.5697 20.5145 47.9791 18.4574 46.808 16.939L44.4325 18.7712C45.1026 19.64 45.5865 21.0215 45.6598 22.9857L48.6577 22.8739ZM47.1588 21.4298L45.252 21.4298L45.252 24.4298L47.1588 24.4298L47.1588 21.4298ZM22.3534 26.3415L34.3641 26.3415L34.3641 23.3415L22.3534 23.3415L22.3534 26.3415ZM23.8534 27.2347V24.8415H20.8534V27.2347H23.8534ZM34.0954 25.7347L22.3534 25.7347L22.3534 28.7347L34.0954 28.7347L34.0954 25.7347ZM34.5574 25.7646C34.4054 25.7449 34.2511 25.7347 34.0954 25.7347V28.7347C34.1202 28.7347 34.1455 28.7363 34.1709 28.7396L34.5574 25.7646ZM35.8641 27.2521V24.8415H32.8641V27.2521H35.8641ZM34.0954 32.2843C34.2511 32.2843 34.4054 32.2741 34.5574 32.2543L34.1709 29.2793C34.1455 29.2826 34.1202 29.2843 34.0954 29.2843V32.2843ZM22.3534 32.2843L34.0954 32.2843L34.0954 29.2843L22.3534 29.2843L22.3534 32.2843ZM23.8534 33.407V30.7843H20.8534V33.407H23.8534ZM34.0954 31.907L22.3534 31.907L22.3534 34.907L34.0954 34.907L34.0954 31.907ZM34.5574 31.937C34.4054 31.9172 34.2511 31.907 34.0954 31.907V34.907C34.1202 34.907 34.1455 34.9086 34.1709 34.9119L34.5574 31.937ZM35.8641 33.4244V30.7668H32.8641V33.4244H35.8641ZM34.0954 36.0541C34.0626 36.0541 34.0164 36.0497 33.961 36.0342L34.7673 33.1446C34.55 33.084 34.3244 33.0541 34.0954 33.0541V36.0541ZM22.3534 36.0541H34.0954V33.0541H22.3534V36.0541ZM23.8534 35.8095V34.5541H20.8534V35.8095H23.8534ZM34.0954 34.3095H22.3534V37.3095H34.0954V34.3095ZM33.961 34.3294C34.0164 34.3139 34.0626 34.3095 34.0954 34.3095V37.3095C34.3244 37.3095 34.55 37.2796 34.7673 37.219L33.961 34.3294ZM35.8641 35.7742V34.5894H32.8641V35.7742H35.8641ZM34.0954 38.4566C34.2511 38.4566 34.4054 38.4464 34.5574 38.4266L34.1709 35.4517C34.1455 35.455 34.1202 35.4566 34.0954 35.4566V38.4566ZM22.3534 38.4566H34.0954V35.4566H22.3534V38.4566ZM23.8534 41.6177V36.9566H20.8534V41.6177H23.8534ZM22.8255 40.1448C22.7141 40.1448 22.6173 40.1386 22.5327 40.1284L22.174 43.1069C22.3856 43.1324 22.6026 43.1448 22.8255 43.1448V40.1448ZM25.2213 38.9924C24.1966 39.811 23.6566 40.1448 22.8255 40.1448V43.1448C24.7838 43.1448 26.0452 42.1739 27.0938 41.3362L25.2213 38.9924ZM25.3835 38.8622C25.3272 38.9075 25.2737 38.9504 25.2212 38.9924L27.0938 41.3362C27.1504 41.291 27.2074 41.2451 27.2631 41.2004L25.3835 38.8622ZM30.1865 36.8075C27.8781 36.8075 26.3157 38.1128 25.3835 38.8622L27.2631 41.2004C28.2562 40.402 29.0573 39.8075 30.1865 39.8075V36.8075ZM35.2838 38.9885C34.2873 38.1967 32.5752 36.8075 30.1865 36.8075V39.8075C31.4035 39.8075 32.3549 40.493 33.4174 41.3373L35.2838 38.9885ZM35.2981 38.9999L35.2845 38.9891L33.4166 41.3367L33.4302 41.3474L35.2981 38.9999ZM35.8641 40.1737V36.9392H32.8641V40.1737H35.8641ZM31.2641 21.4298H29.3581V24.4298H31.2641V21.4298ZM28.5266 18.839C29.1943 19.7329 29.6719 21.1153 29.766 23.0044L32.7623 22.8552C32.6488 20.5758 32.0603 18.5568 30.93 17.0436L28.5266 18.839ZM25.2693 17.3404C26.8229 17.3404 27.8368 17.9156 28.5266 18.839L30.93 17.0436C29.6395 15.3159 27.71 14.3404 25.2693 14.3404V17.3404ZM22.3063 19.1746C23.0353 17.977 23.9878 17.3404 25.2693 17.3404V14.3404C22.7078 14.3404 20.884 15.7417 19.7438 17.6146L22.3063 19.1746ZM21.1594 23.0496C21.2748 21.6087 21.672 20.2165 22.3063 19.1746L19.7438 17.6146C18.8087 19.1506 18.312 21.0244 18.169 22.81L21.1594 23.0496ZM21.2768 21.4298H19.6642V24.4298H21.2768V21.4298ZM20.2826 20.3862C19.9987 21.2416 19.8574 22.0956 19.7853 22.7703L22.7683 23.0893C22.8264 22.5456 22.9352 21.9178 23.1298 21.3313L20.2826 20.3862ZM21.831 17.7596C21.0284 18.5553 20.5634 19.5404 20.2826 20.3862L23.1298 21.3313C23.3283 20.7336 23.598 20.2323 23.943 19.8902L21.831 17.7596ZM25.2693 16.363C23.8439 16.363 22.6844 16.9136 21.831 17.7596L23.943 19.8902C24.2655 19.5705 24.6774 19.363 25.2693 19.363V16.363ZM29.8388 18.8186C28.878 17.1958 27.2698 16.363 25.2693 16.363V19.363C26.3422 19.363 26.9008 19.7448 27.2572 20.3469L29.8388 18.8186ZM30.8566 22.8614C30.7927 21.461 30.5462 20.0136 29.8388 18.8186L27.2572 20.3469C27.5975 20.9217 27.8047 21.7921 27.8597 22.9982L30.8566 22.8614ZM18.1246 24.8415V39.9134H21.1246V24.8415H18.1246ZM21.2063 23.3415H19.6246V26.3415H21.2063V23.3415ZM22.7063 27.5496V24.8415H19.7063V27.5496H22.7063ZM21.8664 29.0095C21.8664 28.9728 21.8743 28.9506 21.8873 28.929C21.9033 28.9023 21.9375 28.8615 22.0011 28.8217L20.4115 26.2775C19.5465 26.8179 18.8664 27.7821 18.8664 29.0095H21.8664ZM22.0011 29.1972C21.9375 29.1575 21.9033 29.1167 21.8873 29.09C21.8743 29.0683 21.8664 29.0461 21.8664 29.0095H18.8664C18.8664 30.2369 19.5465 31.2011 20.4115 31.7415L22.0011 29.1972ZM22.7063 33.7219V30.4694H19.7063V33.7219H22.7063ZM21.8664 35.1818C21.8664 35.1451 21.8743 35.1229 21.8873 35.1013C21.9033 35.0746 21.9375 35.0338 22.0011 34.9941L20.4115 32.4498C19.5465 32.9902 18.8664 33.9544 18.8664 35.1818H21.8664ZM22.0011 35.3695C21.9375 35.3298 21.9033 35.289 21.8873 35.2623C21.8743 35.2407 21.8664 35.2185 21.8664 35.1818H18.8664C18.8664 36.4092 19.5465 37.3734 20.4115 37.9138L22.0011 35.3695ZM22.7063 41.0855V36.6417H19.7063V41.0855H22.7063ZM20.731 42.5547C20.888 42.5755 21.0442 42.5848 21.2001 42.5854L21.2125 39.5855C21.1674 39.5853 21.1398 39.5827 21.125 39.5807L20.731 42.5547ZM18.9023 41.298C19.2332 41.6155 19.624 41.9879 20.0716 42.2992L21.7844 39.8362C21.5579 39.6787 21.3263 39.4662 20.9793 39.1332L18.9023 41.298ZM18.8344 41.2328L18.9018 41.2975L20.9798 39.1338L20.9125 39.0691L18.8344 41.2328ZM18.8482 41.2459L18.8483 41.246L20.8986 39.0559L20.8985 39.0558L18.8482 41.2459ZM18.5959 41.0051C18.6749 41.0795 18.7524 41.154 18.834 41.2324L20.9127 39.0693C20.8327 38.9924 20.7447 38.9078 20.6532 38.8216L18.5959 41.0051ZM23.9207 23.1053C23.9745 22.6489 24.067 22.149 24.2185 21.6927L21.3712 20.7476C21.1354 21.4581 21.0099 22.1719 20.9413 22.7542L23.9207 23.1053ZM28.2097 21.4298L22.431 21.4298L22.431 24.4298L28.2097 24.4298L28.2097 21.4298ZM26.2702 20.9312C26.4708 21.2701 26.6571 21.9092 26.7115 23.0043L29.7078 22.8553C29.6441 21.5728 29.418 20.3594 28.8517 19.4029L26.2702 20.9312ZM25.2693 20.51C25.6773 20.51 25.8862 20.5846 25.99 20.6401C26.0835 20.6901 26.1732 20.7674 26.2702 20.9312L28.8517 19.4029C28.5208 18.8439 28.0552 18.3426 27.4051 17.9948C26.7653 17.6525 26.0424 17.51 25.2693 17.51V20.51ZM24.7506 20.7048C24.8253 20.6307 24.8904 20.5892 24.9518 20.5632C25.0122 20.5377 25.1091 20.51 25.2693 20.51V17.51C24.163 17.51 23.2892 17.9292 22.6385 18.5742L24.7506 20.7048ZM24.2185 21.6927C24.3854 21.1898 24.5804 20.8735 24.7506 20.7048L22.6385 18.5742C22.0109 19.1964 21.6205 19.9966 21.3712 20.7476L24.2185 21.6927ZM9.0467 49.2413C10.2219 49.2413 11.2591 48.8274 12.0569 48.4017L10.6446 45.7549C10.0582 46.0679 9.52659 46.2413 9.0467 46.2413V49.2413ZM6.68641 46.881C6.68641 48.1845 7.74315 49.2413 9.0467 49.2413V46.2413C9.4 46.2413 9.68641 46.5277 9.68641 46.881H6.68641ZM9.0467 44.5207C7.74315 44.5207 6.68641 45.5774 6.68641 46.881H9.68641C9.68641 47.2343 9.4 47.5207 9.0467 47.5207V44.5207ZM9.83463 44.2369C9.36912 44.4853 9.12763 44.5207 9.0467 44.5207V47.5207C9.8232 47.5207 10.5704 47.2447 11.2469 46.8837L9.83463 44.2369ZM11.3787 43.1978C10.7893 43.6415 10.2913 43.9933 9.83463 44.2369L11.2469 46.8837C11.9261 46.5213 12.584 46.0454 13.1829 45.5947L11.3787 43.1978ZM11.7238 42.9364C11.6053 43.0265 11.4909 43.1134 11.3787 43.1978L13.1829 45.5947C13.3016 45.5053 13.4216 45.4141 13.5391 45.3248L11.7238 42.9364ZM13.2135 41.8624C12.7075 42.1876 12.1781 42.5911 11.7238 42.9364L13.5391 45.3248C14.0174 44.9613 14.4481 44.635 14.8355 44.386L13.2135 41.8624ZM15.9061 40.9259C14.7535 40.9259 13.77 41.5046 13.2135 41.8624L14.8355 44.386C15.3492 44.0559 15.6917 43.9259 15.9061 43.9259V40.9259ZM18.5011 41.8199C17.9655 41.4659 17.0485 40.9259 15.9061 40.9259V43.9259C16.1229 43.9259 16.4131 44.0359 16.8468 44.3226L18.5011 41.8199ZM19.5933 42.6188C19.2624 42.3654 18.8675 42.0621 18.5011 41.8199L16.8468 44.3226C17.1088 44.4958 17.4154 44.7297 17.7695 45.0007L19.5933 42.6188ZM20.0916 42.9961C19.9373 42.8822 19.7729 42.7563 19.5933 42.6188L17.7695 45.0007C17.9446 45.1348 18.1305 45.2772 18.3097 45.4095L20.0916 42.9961ZM22.8084 44.1433C21.8767 44.1433 21.0825 43.7276 20.0916 42.9961L18.3097 45.4095C19.4255 46.2333 20.8778 47.1433 22.8084 47.1433V44.1433ZM25.7854 42.9398C24.656 43.7037 23.7711 44.1433 22.8084 44.1433V47.1433C24.7308 47.1433 26.2614 46.2396 27.4661 45.4248L25.7854 42.9398ZM26.2807 42.5985C26.1061 42.7198 25.9427 42.8334 25.7854 42.9398L27.4661 45.4248C27.6419 45.3059 27.8214 45.1812 27.9929 45.062L26.2807 42.5985ZM26.2832 42.5968L26.283 42.597L27.9906 45.0635L27.9908 45.0634L26.2832 42.5968ZM27.5493 41.7594C27.1205 42.0139 26.6676 42.3296 26.2809 42.5984L27.9931 45.0618C28.4026 44.7772 28.7625 44.528 29.0808 44.339L27.5493 41.7594ZM30.1865 40.9259C29.0748 40.9259 28.1441 41.4062 27.5493 41.7594L29.0808 44.339C29.5644 44.0519 29.9129 43.9259 30.1865 43.9259V40.9259ZM32.8333 41.7298C32.2161 41.384 31.2696 40.9259 30.1865 40.9259V43.9259C30.4678 43.9259 30.851 44.0579 31.3671 44.347L32.8333 41.7298ZM34.459 42.7708C33.9736 42.4399 33.3963 42.0451 32.8333 41.7298L31.3671 44.347C31.7937 44.5861 32.2584 44.9015 32.7693 45.2497L34.459 42.7708ZM34.7096 42.9413C34.6276 42.8857 34.5445 42.8291 34.459 42.7708L32.7693 45.2497C32.8544 45.3077 32.9405 45.3664 33.0261 45.4244L34.7096 42.9413ZM36.2448 43.8809C35.7935 43.66 35.3032 43.3437 34.7096 42.9413L33.0261 45.4244C33.6189 45.8263 34.2648 46.2518 34.9258 46.5754L36.2448 43.8809ZM37.0503 44.1433C36.9486 44.1433 36.7012 44.1044 36.2447 43.8809L34.9258 46.5754C35.5851 46.8982 36.3058 47.1433 37.0503 47.1433V44.1433ZM37.8762 43.8765C37.4089 44.1029 37.1546 44.1433 37.0503 44.1433V47.1433C37.7941 47.1433 38.519 46.8985 39.1838 46.5766L37.8762 43.8765ZM39.437 42.9334C38.8368 43.3351 38.3363 43.6537 37.8762 43.8765L39.1838 46.5766C39.8508 46.2536 40.5049 45.8286 41.1057 45.4265L39.437 42.9334ZM39.702 42.7554C39.6115 42.8163 39.5236 42.8754 39.437 42.9334L41.1057 45.4265C41.1961 45.366 41.2873 45.3046 41.3772 45.2441L39.702 42.7554ZM39.7057 42.7529L39.7042 42.7539L41.375 45.2456L41.3764 45.2446L39.7057 42.7529ZM39.6411 42.7987L39.6411 42.7987L41.4411 45.1987L41.4411 45.1987L39.6411 42.7987ZM39.6411 42.7987L39.6411 42.7987L41.4411 45.1987L41.4411 45.1987L39.6411 42.7987ZM39.6411 42.7987L39.6411 42.7987L41.4411 45.1987L41.4411 45.1987L39.6411 42.7987ZM39.7094 42.7504L39.7091 42.7506L41.3732 45.2468L41.3735 45.2466L39.7094 42.7504ZM39.6917 42.7624L39.6916 42.7624L41.3912 45.2345L41.3913 45.2345L39.6917 42.7624ZM41.3243 41.7269C40.7668 42.0375 40.1915 42.4259 39.7039 42.7541L41.3791 45.2428C41.8917 44.8978 42.3579 44.5852 42.7841 44.3478L41.3243 41.7269ZM43.9616 40.9259C42.8835 40.9259 41.9355 41.3865 41.3243 41.7269L42.7841 44.3478C43.3056 44.0573 43.6878 43.9259 43.9616 43.9259V40.9259ZM46.6177 41.7705C46.0195 41.4165 45.0711 40.9259 43.9616 40.9259V43.9259C44.2268 43.9259 44.5886 44.0557 45.09 44.3524L46.6177 41.7705ZM48.085 42.7515C47.6432 42.4389 47.1218 42.0688 46.6177 41.7705L45.09 44.3524C45.4688 44.5765 45.8862 44.8706 46.3523 45.2005L48.085 42.7515ZM48.0833 42.7503L48.0822 42.7495L46.3551 45.2024L46.3562 45.2032L48.0833 42.7503ZM48.4403 43.0019C48.3257 42.9217 48.2085 42.8388 48.0862 42.7523L46.3534 45.2012C46.4745 45.2869 46.5986 45.3747 46.7214 45.4605L48.4403 43.0019ZM50.9534 44.226C50.4173 44.226 49.6949 43.879 48.4404 43.0019L46.7213 45.4605C47.8783 46.2695 49.3405 47.226 50.9534 47.226V44.226ZM53.3137 46.5863C53.3137 45.2827 52.257 44.226 50.9534 44.226V47.226C50.6001 47.226 50.3137 46.9396 50.3137 46.5863H53.3137ZM50.9534 48.9466C52.2569 48.9466 53.3137 47.8898 53.3137 46.5863H50.3137C50.3137 46.233 50.6001 45.9466 50.9534 45.9466V48.9466ZM45.7354 46.8706C46.8477 47.6483 48.728 48.9466 50.9534 48.9466V45.9466C49.7986 45.9466 48.6507 45.2483 47.4545 44.412L45.7354 46.8706ZM45.3221 46.5795C45.4525 46.6717 45.5909 46.7696 45.7354 46.8706L47.4545 44.412C47.3174 44.3162 47.1853 44.2227 47.054 44.1299L45.3221 46.5795ZM44.2139 45.8332C44.5262 46.018 44.8649 46.2563 45.3221 46.5795L47.0541 44.13C46.6237 43.8257 46.1795 43.5104 45.7416 43.2513L44.2139 45.8332ZM43.9616 45.6465C43.8873 45.6465 43.8381 45.6373 43.8209 45.6336C43.8032 45.6298 43.8067 45.6291 43.8349 45.6396C43.8945 45.6619 44.0162 45.7162 44.2139 45.8332L45.7416 43.2513C45.2014 42.9317 44.5884 42.6465 43.9616 42.6465V45.6465ZM43.6213 45.8509C43.8306 45.7343 43.9666 45.6759 44.0416 45.6493C44.0777 45.6364 44.0895 45.6347 44.0803 45.6366C44.072 45.6383 44.03 45.6465 43.9616 45.6465V42.6465C43.3433 42.6465 42.7187 42.9197 42.1615 43.2301L43.6213 45.8509ZM42.3533 46.6612C42.8707 46.3132 43.2645 46.0496 43.6213 45.8509L42.1615 43.2301C41.6726 43.5024 41.1674 43.8435 40.679 44.1719L42.3533 46.6612ZM42.3272 46.6784L42.3273 46.6783L40.705 44.1548L40.7049 44.1549L42.3272 46.6784ZM42.0627 46.8564C42.1622 46.7898 42.2594 46.7244 42.3532 46.6613L40.6789 44.172C40.5848 44.2353 40.4903 44.2988 40.394 44.3633L42.0627 46.8564ZM39.9337 48.1251C40.719 47.7448 41.4606 47.2594 42.0627 46.8564L40.394 44.3632C39.7937 44.765 39.205 45.1447 38.6261 45.4251L39.9337 48.1251ZM37.0503 48.8638C38.1605 48.8638 39.155 48.5022 39.9337 48.1251L38.6261 45.4251C38.0456 45.7062 37.5215 45.8638 37.0503 45.8638V48.8638ZM34.1693 48.1208C34.9455 48.5007 35.9375 48.8638 37.0503 48.8638V45.8638C36.5798 45.8638 36.061 45.7066 35.4883 45.4263L34.1693 48.1208ZM32.0605 46.8485C32.6539 47.2508 33.3885 47.7385 34.1693 48.1208L35.4883 45.4263C34.9166 45.1464 34.3369 44.7674 33.744 44.3654L32.0605 46.8485ZM31.7908 46.6651C31.8779 46.7244 31.9682 46.7859 32.0605 46.8485L33.744 44.3654C33.6547 44.3048 33.5669 44.245 33.4792 44.1853L31.7908 46.6651ZM31.7875 46.6629L31.7892 46.664L33.4808 44.1864L33.4791 44.1853L31.7875 46.6629ZM31.7835 46.6601L31.7836 46.6601L33.4831 44.188L33.483 44.1879L31.7835 46.6601ZM30.5262 45.8481C30.8808 46.0467 31.2714 46.3114 31.789 46.6638L33.4776 44.1842C32.9902 43.8523 32.4841 43.5063 31.9924 43.2308L30.5262 45.8481ZM30.1865 45.6465C30.069 45.6465 30.0329 45.6211 30.1145 45.65C30.188 45.676 30.3212 45.7332 30.5262 45.8481L31.9924 43.2308C31.4354 42.9188 30.811 42.6465 30.1865 42.6465V45.6465ZM29.9591 45.8185C30.1482 45.7063 30.2597 45.6569 30.3109 45.6379C30.3641 45.6182 30.3115 45.6465 30.1865 45.6465V42.6465C29.5542 42.6465 28.9565 42.9249 28.4276 43.2388L29.9591 45.8185ZM29.041 46.4293C29.4195 46.166 29.6947 45.9755 29.9591 45.8185L28.4276 43.2388C28.0526 43.4615 27.6851 43.7181 27.3278 43.9665L29.041 46.4293ZM28.4301 46.85C28.6531 46.6991 28.8571 46.5572 29.041 46.4293L27.3278 43.9665C27.1425 44.0955 26.9538 44.2267 26.7494 44.365L28.4301 46.85ZM22.8084 48.8638C25.2796 48.8638 27.1794 47.6958 28.4301 46.85L26.7494 44.365C25.5773 45.1577 24.3218 45.8638 22.8084 45.8638V48.8638ZM17.2877 46.7937C18.4764 47.6713 20.3058 48.8638 22.8084 48.8638V45.8638C21.3037 45.8638 20.1319 45.1645 19.0696 44.3802L17.2877 46.7937ZM16.6471 46.3089C16.8332 46.4518 17.0459 46.6152 17.2877 46.7937L19.0696 44.3802C18.8534 44.2206 18.6615 44.0733 18.474 43.9293L16.6471 46.3089ZM16.6381 46.3019L16.6382 46.3021L18.4828 43.9362L18.4826 43.9361L16.6381 46.3019ZM16.6233 46.2903L16.6233 46.2903L18.4974 43.9477L18.4974 43.9477L16.6233 46.2903ZM16.6104 46.2799L16.6105 46.2799L18.5102 43.958L18.5101 43.958L16.6104 46.2799ZM16.6418 46.3049L16.642 46.305L18.4785 43.9328L18.4783 43.9327L16.6418 46.3049ZM16.6488 46.3102L16.6489 46.3103L18.4713 43.9273L18.4712 43.9272L16.6488 46.3102ZM16.6599 46.3186L16.66 46.3187L18.46 43.9187L18.4599 43.9186L16.6599 46.3186ZM16.6677 46.3245L16.6678 46.3245L18.4519 43.9127L18.4518 43.9127L16.6677 46.3245ZM15.898 45.7579C16.1151 45.9014 16.3341 46.0686 16.6464 46.3084L18.4732 43.9288C18.1796 43.7034 17.8741 43.4679 17.5523 43.2553L15.898 45.7579ZM15.9061 45.6465C15.8123 45.6465 15.7406 45.6342 15.6974 45.6242C15.6547 45.6143 15.6343 45.6054 15.6397 45.6076C15.6448 45.6097 15.6685 45.6199 15.7134 45.6447C15.758 45.6692 15.8189 45.7056 15.898 45.7579L17.5523 43.2553C17.0782 42.9419 16.5195 42.6465 15.9061 42.6465V45.6465ZM15.7658 45.8334C15.9731 45.7002 16.0956 45.6409 16.1472 45.6194C16.1719 45.6091 16.1667 45.6132 16.1356 45.621C16.1089 45.6278 16.0271 45.6465 15.9061 45.6465V42.6465C15.5479 42.6465 15.2262 42.7529 14.991 42.8511C14.7313 42.9596 14.45 43.1129 14.1437 43.3098L15.7658 45.8334ZM14.611 46.6715C15.0831 46.3129 15.4413 46.042 15.7658 45.8334L14.1437 43.3098C13.7003 43.5948 13.2421 43.9439 12.7964 44.2825L14.611 46.6715ZM14.609 46.673L14.6096 46.6725L12.7978 44.2814L12.7972 44.2819L14.609 46.673ZM14.2176 46.9694C14.3539 46.8668 14.4855 46.7668 14.6104 46.672L12.7958 44.283C12.6702 44.3784 12.5437 44.4744 12.4134 44.5725L14.2176 46.9694ZM12.0569 48.4017C12.8632 47.9715 13.6125 47.4248 14.2176 46.9694L12.4134 44.5725C11.8188 45.02 11.229 45.4431 10.6446 45.7549L12.0569 48.4017Z" fill="#F8F9FA" mask="url(#path-1-outside-1_50_9107)"/>
<path d="M9.04663 23.9883L50.9533 23.9883" stroke="#212529" stroke-width="2" stroke-linecap="round" stroke-linejoin="round"/>
<path d="M9.04663 42.6078C11.5592 42.6078 13.4093 39.2705 16.0063 39.2705C19.2526 39.2705 19.3906 42.6078 22.8254 42.6078C26.2603 42.6078 27.2542 39.2705 30.1864 39.2705C33.1186 39.2705 34.6378 42.6078 37.0673 42.6078C39.4968 42.6078 40.8916 39.2705 44.0016 39.2705C47.1115 39.2705 48.1887 42.2983 50.9533 42.2983" stroke="#212529" stroke-width="1.8" stroke-linecap="round" stroke-linejoin="round"/>
<path d="M9.04663 46.9835C11.5592 46.9835 14.2515 43.3887 15.906 43.3887C17.5606 43.3887 19.3735 46.606 22.8083 46.606C26.2432 46.606 28.3791 43.3887 30.1864 43.3887C31.9937 43.3887 34.6207 46.606 37.0502 46.606C39.4797 46.606 42.1824 43.3887 43.9615 43.3887C45.7406 43.3887 48.1887 46.6887 50.9533 46.6887" stroke="#212529" stroke-width="1.8" stroke-linecap="round" stroke-linejoin="round"/>
<path fill-rule="evenodd" clip-rule="evenodd" d="M20.9399 29.1114C20.9399 28.448 21.5535 27.9102 22.3104 27.9102L34.0954 27.9102C34.8523 27.9102 35.4659 28.448 35.4659 29.1114C35.4659 29.7749 34.8523 30.3127 34.0954 30.3127L22.3104 30.3127C21.5535 30.3127 20.9399 29.7748 20.9399 29.1114Z" fill="#22B8CF" stroke="#212529" stroke-width="1.2" stroke-linecap="round" stroke-linejoin="round"/>
<path fill-rule="evenodd" clip-rule="evenodd" d="M20.9399 35.2843C20.9399 34.6208 21.5535 34.083 22.3104 34.083L34.0954 34.083C34.8523 34.083 35.4659 34.6208 35.4659 35.2843C35.4659 35.9477 34.8523 36.4855 34.0954 36.4855L22.3104 36.4855C21.5535 36.4855 20.9399 35.9477 20.9399 35.2843Z" fill="#22B8CF" stroke="#212529" stroke-width="1.2" stroke-linecap="round" stroke-linejoin="round"/>
<path d="M25.2692 15.3691C29.6026 15.3691 31.8563 18.7763 31.8563 23.7973H28.8013C28.8013 20.6217 27.9871 18.5387 25.2692 18.5387C21.8719 18.5387 21.7798 23.5559 21.7798 24.311V41.7232C20.7747 41.845 20.1917 41.6954 19.3629 40.9703C19.1589 40.7918 19.051 40.5292 19.051 40.2582V38.8521V24.0172C19.051 20.0317 20.9359 15.3691 25.2692 15.3691Z" fill="#22B8CF" stroke="#212529" stroke-width="1.2" stroke-linecap="round" stroke-linejoin="round"/>
<path d="M41.1558 15.3691C45.4892 15.3691 47.7429 18.5898 47.7429 23.6109H44.6879C44.6879 20.4352 43.8737 18.5387 41.1558 18.5387C37.7585 18.5387 37.6664 23.5559 37.6664 24.311V42.6119C36.6613 42.7337 36.0783 42.5841 35.2494 41.859C35.0455 41.6806 34.9376 41.4179 34.9376 41.1469V38.8521V24.0172C34.9376 20.0317 36.8225 15.3691 41.1558 15.3691Z" fill="#22B8CF" stroke="#212529" stroke-width="1.2" stroke-linecap="round" stroke-linejoin="round"/>
</svg>
