<svg width="60" height="61" viewBox="0 0 60 61" fill="none" xmlns="http://www.w3.org/2000/svg">
<mask id="path-1-outside-1_50_1901" maskUnits="userSpaceOnUse" x="6.84705" y="7.29431" width="48" height="50" fill="black">
<rect fill="white" x="6.84705" y="7.29431" width="48" height="50"/>
<path fill-rule="evenodd" clip-rule="evenodd" d="M42.9014 13.3891C41.4272 14.3379 40.4254 15.9573 40.3272 17.8163L43.3949 23.1298C44.1587 23.5182 45.0231 23.7371 45.9386 23.7371C46.8674 23.7371 47.7435 23.5118 48.5154 23.1128L42.9014 13.3891ZM49.3076 24.4245L45.5754 26.5793C44.6574 27.1093 43.5576 27.039 42.7306 26.4902L31.4856 32.9825L43.1959 53.9259C43.4115 54.3115 43.2737 54.799 42.8881 55.0146C42.5024 55.2302 42.015 55.0924 41.7994 54.7068L38.6587 49.0898H31.2046V54.7778C31.2046 55.1644 30.8912 55.4778 30.5046 55.4778C30.118 55.4778 29.8046 55.1644 29.8046 54.7778V49.0898H22.1801L18.9758 54.7124C18.7571 55.0963 18.2685 55.2301 17.8847 55.0114C17.5008 54.7926 17.367 54.3041 17.5857 53.9202L28.5531 34.6756L24.9721 36.7431C23.1245 37.8098 20.8625 37.5086 19.3589 36.1538L14.9813 38.6811L15.1523 38.9774C15.661 39.8585 15.3591 40.9851 14.478 41.4939C13.5969 42.0026 12.4703 41.7007 11.9616 40.8196L9.09416 35.8531C8.58545 34.972 8.88734 33.8453 9.76844 33.3366C10.6495 32.8279 11.7762 33.1298 12.2849 34.0109L12.6203 34.5918L16.9987 32.064C16.5786 30.0852 17.4488 27.9772 19.2955 26.911L36.9469 16.72C36.7487 15.6296 37.2393 14.4844 38.2541 13.8985L42.1372 11.6566C42.0675 10.842 42.4622 10.0219 43.2171 9.58607C44.2574 8.98546 45.5876 9.34189 46.1882 10.3822L46.6206 11.1311C50.1773 11.474 52.958 14.4711 52.958 18.1177C52.958 19.1534 52.7337 20.1368 52.331 21.0217L52.8668 21.9499C53.4674 22.9902 53.111 24.3204 52.0707 24.921C51.1377 25.4596 49.9715 25.2285 49.3076 24.4245ZM50.502 23.6451C50.7438 23.8365 51.0875 23.8721 51.3707 23.7085C51.7414 23.4945 51.8684 23.0205 51.6544 22.6499L51.5062 22.3931C51.2371 22.743 50.9358 23.0668 50.6067 23.3601C50.593 23.4611 50.5575 23.5586 50.502 23.6451ZM51.4063 19.4201C51.5055 19.0021 51.558 18.5661 51.558 18.1177C51.558 15.5722 49.8655 13.4221 47.5444 12.7311L51.4063 19.4201ZM45.7945 12.5002L50.7319 21.0521C50.5204 21.3969 50.2727 21.7171 49.9941 22.0075L44.597 12.6595C44.9821 12.5652 45.3828 12.5105 45.7945 12.5002ZM45.0196 11.158L44.9758 11.0822C44.7618 10.7115 44.2878 10.5845 43.9171 10.7985C43.7658 10.8859 43.6551 11.0166 43.5916 11.1659C43.7021 11.2182 43.8 11.2999 43.8723 11.4074C44.2426 11.2935 44.6259 11.2095 45.0196 11.158ZM20.0955 28.2967L37.6108 18.1842L41.6873 25.245L24.1721 35.3575C22.6415 36.2411 20.6845 35.7167 19.8008 34.1862L18.9242 32.6679C18.0406 31.1374 18.565 29.1803 20.0955 28.2967ZM11.2457 34.6109L11.6189 35.2573C11.2368 35.6334 11.0008 36.124 10.9345 36.6407L10.1334 35.2531C9.95606 34.9459 10.0613 34.5532 10.3684 34.3758C10.6756 34.1985 11.0683 34.3037 11.2457 34.6109ZM13.0008 40.2196L12.364 39.1167C12.8446 39.3177 13.3875 39.3586 13.9043 39.2157L14.1131 39.5774C14.2904 39.8845 14.1852 40.2773 13.878 40.4546C13.5709 40.632 13.1781 40.5267 13.0008 40.2196ZM12.4445 37.4196C12.5975 37.6847 12.8579 37.8493 13.139 37.8902L12.3842 36.5828C12.279 36.8467 12.2914 37.1545 12.4445 37.4196ZM13.3203 35.8043L14.2813 37.4687L18.4573 35.0577C18.4431 35.034 18.429 35.0102 18.4152 34.9862L17.5386 33.4679C17.5243 33.4431 17.5102 33.4182 17.4964 33.3933L13.3203 35.8043ZM44.8754 25.3669C44.5509 25.5542 44.1792 25.5858 43.847 25.4848C43.9396 25.2919 43.9974 25.0838 44.0175 24.871C44.4369 24.9901 44.8724 25.0711 45.32 25.1102L44.8754 25.3669ZM38.9541 15.1109L39.8751 14.5792C39.5513 15.1328 39.3012 15.7347 39.1382 16.3714C38.8797 16.2456 38.5935 16.1826 38.3048 16.1894C38.3209 15.7574 38.5521 15.343 38.9541 15.1109ZM22.75 48.0898H29.8046V35.711L22.75 48.0898ZM31.2046 48.0898H38.0996L31.2046 35.7584V48.0898Z"/>
</mask>
<path fill-rule="evenodd" clip-rule="evenodd" d="M42.9014 13.3891C41.4272 14.3379 40.4254 15.9573 40.3272 17.8163L43.3949 23.1298C44.1587 23.5182 45.0231 23.7371 45.9386 23.7371C46.8674 23.7371 47.7435 23.5118 48.5154 23.1128L42.9014 13.3891ZM49.3076 24.4245L45.5754 26.5793C44.6574 27.1093 43.5576 27.039 42.7306 26.4902L31.4856 32.9825L43.1959 53.9259C43.4115 54.3115 43.2737 54.799 42.8881 55.0146C42.5024 55.2302 42.015 55.0924 41.7994 54.7068L38.6587 49.0898H31.2046V54.7778C31.2046 55.1644 30.8912 55.4778 30.5046 55.4778C30.118 55.4778 29.8046 55.1644 29.8046 54.7778V49.0898H22.1801L18.9758 54.7124C18.7571 55.0963 18.2685 55.2301 17.8847 55.0114C17.5008 54.7926 17.367 54.3041 17.5857 53.9202L28.5531 34.6756L24.9721 36.7431C23.1245 37.8098 20.8625 37.5086 19.3589 36.1538L14.9813 38.6811L15.1523 38.9774C15.661 39.8585 15.3591 40.9851 14.478 41.4939C13.5969 42.0026 12.4703 41.7007 11.9616 40.8196L9.09416 35.8531C8.58545 34.972 8.88734 33.8453 9.76844 33.3366C10.6495 32.8279 11.7762 33.1298 12.2849 34.0109L12.6203 34.5918L16.9987 32.064C16.5786 30.0852 17.4488 27.9772 19.2955 26.911L36.9469 16.72C36.7487 15.6296 37.2393 14.4844 38.2541 13.8985L42.1372 11.6566C42.0675 10.842 42.4622 10.0219 43.2171 9.58607C44.2574 8.98546 45.5876 9.34189 46.1882 10.3822L46.6206 11.1311C50.1773 11.474 52.958 14.4711 52.958 18.1177C52.958 19.1534 52.7337 20.1368 52.331 21.0217L52.8668 21.9499C53.4674 22.9902 53.111 24.3204 52.0707 24.921C51.1377 25.4596 49.9715 25.2285 49.3076 24.4245ZM50.502 23.6451C50.7438 23.8365 51.0875 23.8721 51.3707 23.7085C51.7414 23.4945 51.8684 23.0205 51.6544 22.6499L51.5062 22.3931C51.2371 22.743 50.9358 23.0668 50.6067 23.3601C50.593 23.4611 50.5575 23.5586 50.502 23.6451ZM51.4063 19.4201C51.5055 19.0021 51.558 18.5661 51.558 18.1177C51.558 15.5722 49.8655 13.4221 47.5444 12.7311L51.4063 19.4201ZM45.7945 12.5002L50.7319 21.0521C50.5204 21.3969 50.2727 21.7171 49.9941 22.0075L44.597 12.6595C44.9821 12.5652 45.3828 12.5105 45.7945 12.5002ZM45.0196 11.158L44.9758 11.0822C44.7618 10.7115 44.2878 10.5845 43.9171 10.7985C43.7658 10.8859 43.6551 11.0166 43.5916 11.1659C43.7021 11.2182 43.8 11.2999 43.8723 11.4074C44.2426 11.2935 44.6259 11.2095 45.0196 11.158ZM20.0955 28.2967L37.6108 18.1842L41.6873 25.245L24.1721 35.3575C22.6415 36.2411 20.6845 35.7167 19.8008 34.1862L18.9242 32.6679C18.0406 31.1374 18.565 29.1803 20.0955 28.2967ZM11.2457 34.6109L11.6189 35.2573C11.2368 35.6334 11.0008 36.124 10.9345 36.6407L10.1334 35.2531C9.95606 34.9459 10.0613 34.5532 10.3684 34.3758C10.6756 34.1985 11.0683 34.3037 11.2457 34.6109ZM13.0008 40.2196L12.364 39.1167C12.8446 39.3177 13.3875 39.3586 13.9043 39.2157L14.1131 39.5774C14.2904 39.8845 14.1852 40.2773 13.878 40.4546C13.5709 40.632 13.1781 40.5267 13.0008 40.2196ZM12.4445 37.4196C12.5975 37.6847 12.8579 37.8493 13.139 37.8902L12.3842 36.5828C12.279 36.8467 12.2914 37.1545 12.4445 37.4196ZM13.3203 35.8043L14.2813 37.4687L18.4573 35.0577C18.4431 35.034 18.429 35.0102 18.4152 34.9862L17.5386 33.4679C17.5243 33.4431 17.5102 33.4182 17.4964 33.3933L13.3203 35.8043ZM44.8754 25.3669C44.5509 25.5542 44.1792 25.5858 43.847 25.4848C43.9396 25.2919 43.9974 25.0838 44.0175 24.871C44.4369 24.9901 44.8724 25.0711 45.32 25.1102L44.8754 25.3669ZM38.9541 15.1109L39.8751 14.5792C39.5513 15.1328 39.3012 15.7347 39.1382 16.3714C38.8797 16.2456 38.5935 16.1826 38.3048 16.1894C38.3209 15.7574 38.5521 15.343 38.9541 15.1109ZM22.75 48.0898H29.8046V35.711L22.75 48.0898ZM31.2046 48.0898H38.0996L31.2046 35.7584V48.0898Z" fill="#F8F9FA"/>
<path d="M40.3272 17.8163L38.8293 17.7371C38.814 18.0269 38.883 18.315 39.0281 18.5663L40.3272 17.8163ZM42.9014 13.3891L44.2004 12.6391C43.9952 12.2837 43.6534 12.0279 43.2545 11.9312C42.8556 11.8346 42.4346 11.9057 42.0895 12.1278L42.9014 13.3891ZM43.3949 23.1298L42.0959 23.8798C42.2411 24.1313 42.4562 24.3352 42.715 24.4668L43.3949 23.1298ZM48.5154 23.1128L49.2041 24.4453C49.5683 24.2571 49.8395 23.928 49.9548 23.5347C50.0701 23.1413 50.0194 22.7178 49.8144 22.3628L48.5154 23.1128ZM49.3076 24.4245L50.4642 23.4694C49.9978 22.9047 49.1919 22.7593 48.5576 23.1255L49.3076 24.4245ZM45.5754 26.5793L44.8254 25.2803L44.8254 25.2803L45.5754 26.5793ZM42.7306 26.4902L43.5599 25.2403C43.0854 24.9256 42.4737 24.9065 41.9806 25.1912L42.7306 26.4902ZM31.4856 32.9825L30.7356 31.6835C30.0252 32.0937 29.776 32.9985 30.1764 33.7146L31.4856 32.9825ZM43.1959 53.9259L41.8867 54.658L41.8867 54.658L43.1959 53.9259ZM41.7994 54.7068L43.1086 53.9747L43.1086 53.9747L41.7994 54.7068ZM38.6587 49.0898L39.968 48.3578C39.7028 47.8836 39.202 47.5898 38.6587 47.5898V49.0898ZM31.2046 49.0898V47.5898C30.3762 47.5898 29.7046 48.2614 29.7046 49.0898H31.2046ZM29.8046 49.0898H31.3046C31.3046 48.2614 30.633 47.5898 29.8046 47.5898V49.0898ZM22.1801 49.0898V47.5898C21.6412 47.5898 21.1437 47.8789 20.8769 48.3471L22.1801 49.0898ZM18.9758 54.7124L20.2791 55.4551L20.2791 55.4551L18.9758 54.7124ZM17.8847 55.0114L18.6274 53.7082L18.6274 53.7082L17.8847 55.0114ZM17.5857 53.9202L16.2825 53.1775L16.2825 53.1775L17.5857 53.9202ZM28.5531 34.6756L29.8563 35.4183C30.1917 34.8298 30.0911 34.0896 29.6108 33.612C29.1305 33.1344 28.3897 33.0379 27.8031 33.3766L28.5531 34.6756ZM24.9721 36.7431L24.2221 35.4441L24.2221 35.4441L24.9721 36.7431ZM19.3589 36.1538L20.3629 35.0394C19.88 34.6043 19.1718 34.5297 18.6089 34.8547L19.3589 36.1538ZM14.9813 38.6811L14.2313 37.3821C13.5139 37.7963 13.268 38.7137 13.6823 39.4311L14.9813 38.6811ZM15.1523 38.9774L13.8533 39.7274L13.8533 39.7274L15.1523 38.9774ZM14.478 41.4939L15.228 42.7929L15.228 42.7929L14.478 41.4939ZM11.9616 40.8196L10.6625 41.5696L11.9616 40.8196ZM9.09416 35.8531L10.3932 35.1031L10.3932 35.1031L9.09416 35.8531ZM9.76844 33.3366L10.5184 34.6356L10.5184 34.6356L9.76844 33.3366ZM12.2849 34.0109L10.9859 34.7609L10.9859 34.7609L12.2849 34.0109ZM12.6203 34.5918L11.3213 35.3418C11.7355 36.0593 12.6529 36.3051 13.3703 35.8909L12.6203 34.5918ZM16.9987 32.064L17.7487 33.363C18.3113 33.0382 18.6009 32.3881 18.466 31.7525L16.9987 32.064ZM19.2955 26.911L18.5455 25.612L18.5455 25.612L19.2955 26.911ZM36.9469 16.72L37.6969 18.019C38.2456 17.7022 38.5361 17.075 38.4227 16.4517L36.9469 16.72ZM38.2541 13.8985L37.5041 12.5995L37.5041 12.5995L38.2541 13.8985ZM42.1372 11.6566L42.8872 12.9556C43.3911 12.6647 43.6813 12.1085 43.6317 11.5287L42.1372 11.6566ZM43.2171 9.58607L42.4671 8.28703L42.4671 8.28703L43.2171 9.58607ZM46.1882 10.3822L44.8892 11.1322L44.8892 11.1322L46.1882 10.3822ZM46.6206 11.1311L45.3216 11.8811C45.5639 12.3008 45.9942 12.5776 46.4766 12.6241L46.6206 11.1311ZM52.331 21.0217L50.9657 20.4005C50.765 20.8415 50.7897 21.3522 51.0319 21.7717L52.331 21.0217ZM52.8668 21.9499L51.5678 22.6999L51.5678 22.6999L52.8668 21.9499ZM52.0707 24.921L52.8207 26.22L52.8207 26.22L52.0707 24.921ZM50.502 23.6451L49.2392 22.8357C48.8232 23.4845 48.9668 24.343 49.5712 24.8213L50.502 23.6451ZM51.3707 23.7085L50.6207 22.4095L50.6207 22.4095L51.3707 23.7085ZM51.6544 22.6499L52.9534 21.8999L52.9534 21.8999L51.6544 22.6499ZM51.5062 22.3931L52.8052 21.6431C52.5549 21.2095 52.1047 20.9294 51.6051 20.8964C51.1055 20.8634 50.6224 21.0818 50.3171 21.4787L51.5062 22.3931ZM50.6067 23.3601L49.6087 22.2402C49.3414 22.4784 49.1681 22.8043 49.1202 23.1592L50.6067 23.3601ZM51.4063 19.4201L50.1073 20.1701C50.4145 20.7024 51.0154 20.9933 51.6235 20.9043C52.2316 20.8153 52.7239 20.3644 52.8658 19.7665L51.4063 19.4201ZM47.5444 12.7311L47.9724 11.2935C47.3837 11.1183 46.7476 11.3196 46.3671 11.8017C45.9865 12.2838 45.9383 12.9492 46.2454 13.4811L47.5444 12.7311ZM50.7319 21.0521L52.0105 21.8365C52.2982 21.3675 52.3061 20.7786 52.031 20.3021L50.7319 21.0521ZM45.7945 12.5002L47.0935 11.7502C46.8188 11.2744 46.306 10.9868 45.7567 11.0007L45.7945 12.5002ZM49.9941 22.0075L48.6951 22.7575C48.931 23.1661 49.3454 23.4399 49.8138 23.4966C50.2821 23.5534 50.7499 23.3864 51.0765 23.046L49.9941 22.0075ZM44.597 12.6595L44.2402 11.2026C43.7817 11.3149 43.4028 11.6364 43.2175 12.0706C43.0322 12.5047 43.062 13.0007 43.298 13.4095L44.597 12.6595ZM45.0196 11.158L45.2141 12.6453C45.711 12.5803 46.1427 12.2714 46.3646 11.822C46.5865 11.3726 46.5692 10.8421 46.3186 10.408L45.0196 11.158ZM44.9758 11.0822L46.2748 10.3322L46.2748 10.3322L44.9758 11.0822ZM43.9171 10.7985L44.6671 12.0975L44.6671 12.0975L43.9171 10.7985ZM43.5916 11.1659L42.2112 10.579C41.8962 11.3199 42.2223 12.1773 42.95 12.5217L43.5916 11.1659ZM43.8723 11.4074L42.6272 12.2439C42.996 12.793 43.681 13.0356 44.3133 12.8412L43.8723 11.4074ZM37.6108 18.1842L38.9098 17.4342C38.7109 17.0897 38.3833 16.8383 37.999 16.7353C37.6147 16.6324 37.2053 16.6863 36.8608 16.8852L37.6108 18.1842ZM20.0955 28.2967L20.8455 29.5957L20.8455 29.5957L20.0955 28.2967ZM41.6873 25.245L42.4373 26.5441C43.1548 26.1299 43.4006 25.2125 42.9864 24.495L41.6873 25.245ZM24.1721 35.3575L24.9221 36.6565L24.9221 36.6565L24.1721 35.3575ZM19.8008 34.1862L21.0998 33.4362L21.0998 33.4362L19.8008 34.1862ZM18.9242 32.6679L17.6252 33.4179L17.6252 33.4179L18.9242 32.6679ZM11.6189 35.2573L12.6712 36.3263C13.1581 35.8469 13.2596 35.099 12.9179 34.5073L11.6189 35.2573ZM11.2457 34.6109L12.5447 33.8609L12.5447 33.8609L11.2457 34.6109ZM10.9345 36.6407L9.6355 37.3907C9.95728 37.948 10.5987 38.238 11.2297 38.1114C11.8607 37.9847 12.3406 37.4697 12.4224 36.8314L10.9345 36.6407ZM10.1334 35.2531L8.83435 36.0031L8.83435 36.0031L10.1334 35.2531ZM10.3684 34.3758L11.1184 35.6749L11.1184 35.6749L10.3684 34.3758ZM12.364 39.1167L12.9428 37.7328C12.3491 37.4845 11.6631 37.6426 11.238 38.1257C10.8128 38.6088 10.7432 39.3093 11.065 39.8667L12.364 39.1167ZM13.0008 40.2196L14.2998 39.4696L14.2998 39.4696L13.0008 40.2196ZM13.9043 39.2157L15.2033 38.4657C14.8617 37.874 14.1633 37.5879 13.5047 37.7699L13.9043 39.2157ZM14.1131 39.5774L12.8141 40.3274L12.8141 40.3274L14.1131 39.5774ZM13.878 40.4546L13.128 39.1556L13.128 39.1556L13.878 40.4546ZM13.139 37.8902L12.923 39.3746C13.4919 39.4573 14.0579 39.2077 14.3805 38.732C14.7031 38.2562 14.7254 37.638 14.438 37.1402L13.139 37.8902ZM12.4445 37.4196L11.1454 38.1696L11.1454 38.1696L12.4445 37.4196ZM12.3842 36.5828L13.6832 35.8328C13.3958 35.335 12.8492 35.0452 12.2759 35.0867C11.7026 35.1282 11.2034 35.4937 10.9907 36.0276L12.3842 36.5828ZM14.2813 37.4687L12.9823 38.2187C13.1812 38.5632 13.5088 38.8146 13.8931 38.9176C14.2773 39.0206 14.6868 38.9667 15.0313 38.7678L14.2813 37.4687ZM13.3203 35.8043L12.5703 34.5052C11.8529 34.9195 11.6071 35.8368 12.0213 36.5543L13.3203 35.8043ZM18.4573 35.0577L19.2073 36.3568C19.5556 36.1556 19.8086 35.823 19.9094 35.4336C20.0102 35.0442 19.9504 34.6306 19.7434 34.2858L18.4573 35.0577ZM18.4152 34.9862L19.7142 34.2362L19.7142 34.2362L18.4152 34.9862ZM17.5386 33.4679L18.8376 32.7179L18.8376 32.7179L17.5386 33.4679ZM17.4964 33.3933L18.8083 32.6661C18.6133 32.3142 18.285 32.0554 17.8973 31.9478C17.5095 31.8403 17.0948 31.893 16.7464 32.0942L17.4964 33.3933ZM43.847 25.4848L42.495 24.8351C42.3054 25.2296 42.2976 25.6872 42.4736 26.088C42.6496 26.4887 42.9918 26.7926 43.4106 26.9199L43.847 25.4848ZM44.8754 25.3669L45.6254 26.6659L45.6254 26.6659L44.8754 25.3669ZM44.0175 24.871L44.4272 23.428C43.9986 23.3063 43.5381 23.3814 43.1704 23.633C42.8027 23.8846 42.5659 24.2867 42.5241 24.7302L44.0175 24.871ZM45.32 25.1102L46.07 26.4093C46.637 26.0819 46.9261 25.4246 46.7844 24.7854C46.6426 24.1463 46.1027 23.6729 45.4504 23.6159L45.32 25.1102ZM39.8751 14.5792L41.1699 15.3365C41.5134 14.7491 41.4185 14.004 40.9387 13.5215C40.4589 13.039 39.7144 12.9399 39.1251 13.2802L39.8751 14.5792ZM38.9541 15.1109L38.2041 13.8119L38.2041 13.8119L38.9541 15.1109ZM39.1382 16.3714L38.4814 17.72C38.8867 17.9174 39.3592 17.922 39.7682 17.7327C40.1773 17.5434 40.4795 17.1801 40.5913 16.7435L39.1382 16.3714ZM38.3048 16.1894L36.8058 16.1333C36.7904 16.5467 36.9463 16.9481 37.2367 17.2426C37.5272 17.5372 37.9264 17.6987 38.3399 17.689L38.3048 16.1894ZM29.8046 48.0898V49.5898C30.633 49.5898 31.3046 48.9182 31.3046 48.0898H29.8046ZM22.75 48.0898L21.4468 47.3471C21.1822 47.8114 21.1846 48.3814 21.4531 48.8435C21.7216 49.3055 22.2156 49.5898 22.75 49.5898V48.0898ZM29.8046 35.711H31.3046C31.3046 35.0305 30.8466 34.4353 30.1888 34.261C29.531 34.0868 28.8383 34.3771 28.5014 34.9683L29.8046 35.711ZM38.0996 48.0898V49.5898C38.6318 49.5898 39.1242 49.3078 39.3934 48.8487C39.6627 48.3897 39.6686 47.8223 39.4088 47.3578L38.0996 48.0898ZM31.2046 48.0898H29.7046C29.7046 48.9182 30.3762 49.5898 31.2046 49.5898V48.0898ZM31.2046 35.7584L32.5139 35.0264C32.1807 34.4305 31.4871 34.1347 30.8264 34.3069C30.1657 34.4791 29.7046 35.0757 29.7046 35.7584H31.2046ZM41.8251 17.8955C41.8969 16.5362 42.6287 15.3484 43.7132 14.6504L42.0895 12.1278C40.2256 13.3275 38.9539 15.3785 38.8293 17.7371L41.8251 17.8955ZM44.694 22.3798L41.6262 17.0663L39.0281 18.5663L42.0959 23.8798L44.694 22.3798ZM45.9386 22.2371C45.2648 22.2371 44.6328 22.0765 44.0748 21.7927L42.715 24.4668C43.6845 24.9599 44.7814 25.2371 45.9386 25.2371V22.2371ZM47.8266 21.7803C47.2626 22.0718 46.6221 22.2371 45.9386 22.2371V25.2371C47.1126 25.2371 48.2244 24.9518 49.2041 24.4453L47.8266 21.7803ZM49.8144 22.3628L44.2004 12.6391L41.6023 14.1391L47.2163 23.8628L49.8144 22.3628ZM48.5576 23.1255L44.8254 25.2803L46.3254 27.8784L50.0576 25.7236L48.5576 23.1255ZM44.8254 25.2803C44.4193 25.5147 43.9308 25.4865 43.5599 25.2403L41.9013 27.7401C43.1844 28.5915 44.8956 28.7039 46.3254 27.8784L44.8254 25.2803ZM41.9806 25.1912L30.7356 31.6835L32.2356 34.2816L43.4806 27.7893L41.9806 25.1912ZM30.1764 33.7146L41.8867 54.658L44.5051 53.1939L32.7949 32.2505L30.1764 33.7146ZM41.8867 54.658C41.698 54.3205 41.8186 53.894 42.156 53.7054L43.6201 56.3238C44.7288 55.7039 45.1251 54.3026 44.5051 53.1939L41.8867 54.658ZM42.156 53.7054C42.4934 53.5167 42.9199 53.6373 43.1086 53.9747L40.4901 55.4388C41.1101 56.5475 42.5114 56.9438 43.6201 56.3238L42.156 53.7054ZM43.1086 53.9747L39.968 48.3578L37.3495 49.8219L40.4901 55.4388L43.1086 53.9747ZM38.6587 47.5898H31.2046V50.5898H38.6587V47.5898ZM29.7046 49.0898V54.7778H32.7046V49.0898H29.7046ZM29.7046 54.7778C29.7046 54.336 30.0628 53.9778 30.5046 53.9778V56.9778C31.7196 56.9778 32.7046 55.9928 32.7046 54.7778H29.7046ZM30.5046 53.9778C30.9464 53.9778 31.3046 54.336 31.3046 54.7778H28.3046C28.3046 55.9928 29.2896 56.9778 30.5046 56.9778V53.9778ZM31.3046 54.7778V49.0898H28.3046V54.7778H31.3046ZM29.8046 47.5898H22.1801V50.5898H29.8046V47.5898ZM20.8769 48.3471L17.6726 53.9697L20.2791 55.4551L23.4833 49.8325L20.8769 48.3471ZM17.6726 53.9697C17.864 53.6339 18.2915 53.5167 18.6274 53.7082L17.142 56.3146C18.2456 56.9436 19.6501 56.5588 20.2791 55.4551L17.6726 53.9697ZM18.6274 53.7082C18.9633 53.8996 19.0804 54.327 18.889 54.6629L16.2825 53.1775C15.6536 54.2811 16.0383 55.6857 17.142 56.3146L18.6274 53.7082ZM18.889 54.6629L29.8563 35.4183L27.2499 33.9329L16.2825 53.1775L18.889 54.6629ZM27.8031 33.3766L24.2221 35.4441L25.7221 38.0421L29.3031 35.9746L27.8031 33.3766ZM24.2221 35.4441C22.9539 36.1763 21.3979 35.972 20.3629 35.0394L18.3548 37.2681C20.3271 39.0453 23.2951 39.4433 25.7221 38.0421L24.2221 35.4441ZM18.6089 34.8547L14.2313 37.3821L15.7313 39.9802L20.1089 37.4528L18.6089 34.8547ZM13.6823 39.4311L13.8533 39.7274L16.4514 38.2274L16.2803 37.9312L13.6823 39.4311ZM13.8533 39.7274C13.9478 39.891 13.8917 40.1003 13.728 40.1948L15.228 42.7929C16.8266 41.87 17.3743 39.8259 16.4514 38.2274L13.8533 39.7274ZM13.728 40.1948C13.5644 40.2893 13.3551 40.2332 13.2606 40.0696L10.6625 41.5696C11.5855 43.1681 13.6295 43.7158 15.228 42.7929L13.728 40.1948ZM13.2606 40.0696L10.3932 35.1031L7.79512 36.6031L10.6625 41.5696L13.2606 40.0696ZM10.3932 35.1031C10.2987 34.9394 10.3548 34.7301 10.5184 34.6356L9.01845 32.0376C7.4199 32.9605 6.8722 35.0045 7.79512 36.6031L10.3932 35.1031ZM10.5184 34.6356C10.6821 34.5411 10.8914 34.5972 10.9859 34.7609L13.5839 33.2609C12.661 31.6623 10.617 31.1146 9.01844 32.0376L10.5184 34.6356ZM10.9859 34.7609L11.3213 35.3418L13.9194 33.8418L13.5839 33.2609L10.9859 34.7609ZM13.3703 35.8909L17.7487 33.363L16.2487 30.765L11.8703 33.2928L13.3703 35.8909ZM18.466 31.7525C18.1769 30.3905 18.7779 28.9419 20.0455 28.2101L18.5455 25.612C16.1197 27.0125 14.9804 29.7799 15.5314 32.3755L18.466 31.7525ZM20.0455 28.2101L37.6969 18.019L36.1969 15.4209L18.5455 25.612L20.0455 28.2101ZM38.4227 16.4517C38.3342 15.9649 38.5551 15.4568 39.0041 15.1975L37.5041 12.5995C35.9235 13.5121 35.1632 15.2944 35.4711 16.9883L38.4227 16.4517ZM39.0041 15.1975L42.8872 12.9556L41.3872 10.3576L37.5041 12.5995L39.0041 15.1975ZM43.6317 11.5287C43.6098 11.2721 43.7348 11.0192 43.9671 10.8851L42.4671 8.28703C41.1896 9.02459 40.5252 10.4118 40.6426 11.7845L43.6317 11.5287ZM43.9671 10.8851C44.29 10.6987 44.7028 10.8093 44.8892 11.1322L47.4873 9.63217C46.4724 7.87445 44.2249 7.27221 42.4671 8.28703L43.9671 10.8851ZM44.8892 11.1322L45.3216 11.8811L47.9196 10.3811L47.4873 9.63217L44.8892 11.1322ZM46.4766 12.6241C49.2717 12.8936 51.458 15.2513 51.458 18.1177H54.458C54.458 13.691 51.0829 10.0543 46.7646 9.638L46.4766 12.6241ZM51.458 18.1177C51.458 18.9349 51.2814 19.7067 50.9657 20.4005L53.6963 21.643C54.186 20.5668 54.458 19.372 54.458 18.1177H51.458ZM51.0319 21.7717L51.5678 22.6999L54.1659 21.1999L53.63 20.2717L51.0319 21.7717ZM51.5678 22.6999C51.7542 23.0227 51.6436 23.4355 51.3207 23.6219L52.8207 26.22C54.5785 25.2052 55.1807 22.9576 54.1659 21.1999L51.5678 22.6999ZM51.3207 23.6219C51.0325 23.7883 50.6695 23.718 50.4642 23.4694L48.151 25.3797C49.2735 26.7389 51.243 27.1309 52.8207 26.22L51.3207 23.6219ZM49.5712 24.8213C50.2787 25.3813 51.2871 25.4889 52.1207 25.0076L50.6207 22.4095C50.8878 22.2553 51.2089 22.2916 51.4329 22.4689L49.5712 24.8213ZM52.1207 25.0076C53.2089 24.3793 53.5817 22.988 52.9534 21.8999L50.3554 23.3999C50.1552 23.0531 50.274 22.6097 50.6207 22.4095L52.1207 25.0076ZM52.9534 21.8999L52.8052 21.6431L50.2071 23.1431L50.3554 23.3999L52.9534 21.8999ZM50.3171 21.4787C50.1053 21.7541 49.868 22.0092 49.6087 22.2402L51.6046 24.4799C52.0036 24.1244 52.3689 23.7318 52.6952 23.3076L50.3171 21.4787ZM49.1202 23.1592C49.1356 23.0452 49.1756 22.9347 49.2392 22.8357L51.7649 24.4545C51.9393 24.1824 52.0504 23.877 52.0932 23.5609L49.1202 23.1592ZM52.8658 19.7665C52.9917 19.2358 53.058 18.6836 53.058 18.1177H50.058C50.058 18.4486 50.0193 18.7684 49.9468 19.0738L52.8658 19.7665ZM53.058 18.1177C53.058 14.8905 50.9119 12.1685 47.9724 11.2935L47.1165 14.1688C48.819 14.6756 50.058 16.2539 50.058 18.1177H53.058ZM46.2454 13.4811L50.1073 20.1701L52.7053 18.6701L48.8434 11.9811L46.2454 13.4811ZM52.031 20.3021L47.0935 11.7502L44.4954 13.2502L49.4329 21.8021L52.031 20.3021ZM51.0765 23.046C51.429 22.6786 51.7425 22.2733 52.0105 21.8365L49.4534 20.2677C49.2983 20.5205 49.1164 20.7557 48.9117 20.9691L51.0765 23.046ZM43.298 13.4095L48.6951 22.7575L51.2932 21.2575L45.8961 11.9095L43.298 13.4095ZM45.7567 11.0007C45.2367 11.0137 44.729 11.0828 44.2402 11.2026L44.9539 14.1164C45.2353 14.0475 45.529 14.0073 45.8322 13.9997L45.7567 11.0007ZM46.3186 10.408L46.2748 10.3322L43.6767 11.8321L43.7205 11.908L46.3186 10.408ZM46.2748 10.3322C45.6466 9.24405 44.2552 8.87125 43.1671 9.49946L44.6671 12.0975C44.3204 12.2977 43.877 12.1789 43.6767 11.8322L46.2748 10.3322ZM43.1671 9.49946C42.7244 9.75509 42.3976 10.1406 42.2112 10.579L44.972 11.7528C44.9126 11.8926 44.8072 12.0167 44.6671 12.0975L43.1671 9.49946ZM42.95 12.5217C42.8235 12.4619 42.71 12.3672 42.6272 12.2439L45.1174 10.571C44.89 10.2325 44.5808 9.9745 44.2332 9.81004L42.95 12.5217ZM44.3133 12.8412C44.6037 12.7518 44.9046 12.6858 45.2141 12.6453L44.8251 9.67065C44.3472 9.73314 43.8815 9.83527 43.4313 9.97372L44.3133 12.8412ZM36.8608 16.8852L19.3455 26.9976L20.8455 29.5957L38.3608 19.4833L36.8608 16.8852ZM42.9864 24.495L38.9098 17.4342L36.3117 18.9342L40.3883 25.995L42.9864 24.495ZM24.9221 36.6565L42.4373 26.5441L40.9373 23.946L23.4221 34.0584L24.9221 36.6565ZM18.5018 34.9362C19.7996 37.1842 22.6741 37.9544 24.9221 36.6565L23.4221 34.0584C22.609 34.5279 21.5693 34.2493 21.0998 33.4362L18.5018 34.9362ZM17.6252 33.4179L18.5018 34.9362L21.0998 33.4362L20.2233 31.9179L17.6252 33.4179ZM19.3455 26.9976C17.0975 28.2955 16.3273 31.17 17.6252 33.4179L20.2233 31.9179C19.7538 31.1048 20.0324 30.0651 20.8455 29.5957L19.3455 26.9976ZM12.9179 34.5073L12.5447 33.8609L9.94664 35.3609L10.3198 36.0073L12.9179 34.5073ZM12.4224 36.8314C12.4469 36.6398 12.5343 36.461 12.6712 36.3263L10.5666 34.1883C9.93924 34.8059 9.5546 35.6081 9.44671 36.45L12.4224 36.8314ZM8.83435 36.0031L9.6355 37.3907L12.2336 35.8907L11.4324 34.5031L8.83435 36.0031ZM9.61844 33.0768C8.59386 33.6683 8.24281 34.9785 8.83435 36.0031L11.4324 34.5031C11.6693 34.9134 11.5287 35.438 11.1184 35.6749L9.61844 33.0768ZM12.5447 33.8609C11.9532 32.8363 10.643 32.4852 9.61844 33.0768L11.1184 35.6749C10.7082 35.9117 10.1835 35.7712 9.94664 35.3609L12.5447 33.8609ZM11.065 39.8667L11.7018 40.9696L14.2998 39.4696L13.6631 38.3667L11.065 39.8667ZM13.5047 37.7699C13.3195 37.8211 13.121 37.8073 12.9428 37.7328L11.7853 40.5005C12.5683 40.828 13.4554 40.896 14.3039 40.6615L13.5047 37.7699ZM15.4121 38.8274L15.2033 38.4657L12.6052 39.9657L12.8141 40.3274L15.4121 38.8274ZM14.628 41.7537C15.6526 41.1621 16.0037 39.852 15.4121 38.8274L12.8141 40.3274C12.5772 39.9171 12.7178 39.3925 13.128 39.1556L14.628 41.7537ZM11.7018 40.9696C12.2933 41.9942 13.6034 42.3452 14.628 41.7537L13.128 39.1556C13.5383 38.9187 14.063 39.0593 14.2998 39.4696L11.7018 40.9696ZM13.3549 36.4058C13.5086 36.4282 13.6573 36.5202 13.7435 36.6696L11.1454 38.1696C11.5378 38.8492 12.2071 39.2704 12.923 39.3746L13.3549 36.4058ZM11.0851 37.3328L11.8399 38.6402L14.438 37.1402L13.6832 35.8328L11.0851 37.3328ZM13.7435 36.6696C13.8298 36.8189 13.8352 36.9937 13.7777 37.138L10.9907 36.0276C10.7229 36.6998 10.7531 37.49 11.1454 38.1696L13.7435 36.6696ZM15.5803 36.7187L14.6194 35.0543L12.0213 36.5543L12.9823 38.2187L15.5803 36.7187ZM17.7073 33.7587L13.5313 36.1697L15.0313 38.7678L19.2073 36.3568L17.7073 33.7587ZM17.1161 35.7362C17.1342 35.7675 17.1525 35.7987 17.1712 35.8297L19.7434 34.2858C19.7336 34.2694 19.7238 34.2529 19.7142 34.2362L17.1161 35.7362ZM16.2396 34.2179L17.1161 35.7362L19.7142 34.2362L18.8376 32.7179L16.2396 34.2179ZM16.1844 34.1204C16.2025 34.153 16.2209 34.1855 16.2396 34.2179L18.8376 32.7179C18.8277 32.7007 18.8179 32.6834 18.8083 32.6661L16.1844 34.1204ZM14.0703 37.1033L18.2464 34.6923L16.7464 32.0942L12.5703 34.5052L14.0703 37.1033ZM43.4106 26.9199C44.1235 27.1367 44.9266 27.0694 45.6254 26.6659L44.1254 24.0679C44.1752 24.0391 44.2349 24.0349 44.2833 24.0496L43.4106 26.9199ZM42.5241 24.7302C42.5207 24.7665 42.5107 24.8023 42.495 24.8351L45.199 26.1345C45.3685 25.7816 45.4741 25.4011 45.5108 25.0117L42.5241 24.7302ZM45.4504 23.6159C45.0982 23.5851 44.7562 23.5214 44.4272 23.428L43.6078 26.3139C44.1177 26.4587 44.6467 26.5571 45.1895 26.6045L45.4504 23.6159ZM45.6254 26.6659L46.07 26.4093L44.57 23.8112L44.1254 24.0679L45.6254 26.6659ZM39.1251 13.2802L38.2041 13.8119L39.7041 16.41L40.6251 15.8783L39.1251 13.2802ZM40.5913 16.7435C40.7192 16.244 40.9154 15.7716 41.1699 15.3365L38.5803 13.822C38.1872 14.494 37.8832 15.2253 37.6851 15.9994L40.5913 16.7435ZM38.3399 17.689C38.3881 17.6879 38.4373 17.6985 38.4814 17.72L39.7949 15.0229C39.3222 14.7926 38.7988 14.6774 38.2697 14.6898L38.3399 17.689ZM38.2041 13.8119C37.3368 14.3126 36.8405 15.2075 36.8058 16.1333L39.8037 16.2455C39.8014 16.3074 39.7674 16.3735 39.7041 16.41L38.2041 13.8119ZM29.8046 46.5898H22.75V49.5898H29.8046V46.5898ZM28.3046 35.711V48.0898H31.3046V35.711H28.3046ZM24.0532 48.8325L31.1078 36.4537L28.5014 34.9683L21.4468 47.3471L24.0532 48.8325ZM38.0996 46.5898H31.2046V49.5898H38.0996V46.5898ZM29.8954 36.4905L36.7903 48.8219L39.4088 47.3578L32.5139 35.0264L29.8954 36.4905ZM32.7046 48.0898V35.7584H29.7046V48.0898H32.7046Z" fill="#F8F9FA" mask="url(#path-1-outside-1_50_1901)"/>
<path d="M18.2787 54.3198L30.5024 32.8706L42.4955 54.3198" stroke="#212529" stroke-width="1.6" stroke-linecap="round" stroke-linejoin="round"/>
<path d="M30.5024 34.1392V54.7812" stroke="#212529" stroke-width="1.4" stroke-linecap="round" stroke-linejoin="round"/>
<path d="M21.8107 48.5933H39.0993" stroke="#212529" stroke-linecap="round" stroke-linejoin="round"/>
<circle cx="45.9366" cy="18.1214" r="6.31937" fill="#66D9E8" stroke="#212529" stroke-linecap="round" stroke-linejoin="round"/>
<path d="M18.2295 33.0713C17.1249 31.1581 17.7804 28.7117 19.6936 27.6072L37.8466 17.1265C38.3249 16.8504 38.9365 17.0143 39.2127 17.4925L43.0892 24.2069C43.3654 24.6852 43.2015 25.2968 42.7232 25.573L24.5702 36.0536C22.657 37.1582 20.2106 36.5027 19.1061 34.5895L18.2295 33.0713Z" fill="#8CE99A" stroke="#212529" stroke-width="1.6" stroke-linecap="round" stroke-linejoin="round"/>
<path d="M37.87 17.2401C37.3177 16.2835 37.6455 15.0603 38.602 14.5081L43.2896 11.8017L49.9108 23.2701L45.2233 25.9765C44.2667 26.5287 43.0436 26.201 42.4913 25.2444L37.87 17.2401Z" fill="#8CE99A" stroke="#212529" stroke-width="1.4" stroke-linecap="round" stroke-linejoin="round"/>
<g style="mix-blend-mode:multiply">
<path fill-rule="evenodd" clip-rule="evenodd" d="M17.8584 31.7266C17.9468 32.0777 18.0847 32.4226 18.2747 32.7518L19.0116 34.0281C20.1162 35.9413 22.5626 36.5968 24.4757 35.4922L41.9849 25.3833C42.4632 25.1072 42.6271 24.4956 42.3509 24.0173L41.9764 23.3687C41.9644 23.7014 41.7865 24.0207 41.4769 24.1995L23.9678 34.3084C22.0546 35.4129 19.6082 34.7574 18.5037 32.8443L17.8584 31.7266Z" fill="#DEE2E6"/>
</g>
<g style="mix-blend-mode:multiply">
<path fill-rule="evenodd" clip-rule="evenodd" d="M42.2889 24.0956L42.6235 24.675C43.1758 25.6316 44.3989 25.9593 45.3555 25.4071L49.584 22.9658L43.4362 12.3175L43.3992 12.3389L49.0059 22.05L44.7775 24.4913C43.9435 24.9727 42.907 24.7854 42.2889 24.0956Z" fill="#DEE2E6"/>
</g>
<path d="M11.8362 37.7731C11.3776 36.9787 11.6497 35.9629 12.4442 35.5042L17.8366 32.3909L19.4975 35.2678L14.1051 38.3811C13.3107 38.8398 12.2949 38.5676 11.8362 37.7731V37.7731Z" fill="#69DB7C" stroke="#212529" stroke-width="1.2" stroke-linecap="round" stroke-linejoin="round"/>
<path d="M10.0663 33.8597C10.6605 33.5167 11.4202 33.7203 11.7632 34.3144L14.6306 39.2809C14.9736 39.875 14.7701 40.6347 14.1759 40.9778V40.9778C13.5818 41.3208 12.8221 41.1172 12.4791 40.5231L9.61166 35.5566C9.26864 34.9625 9.4722 34.2028 10.0663 33.8597V33.8597Z" fill="#69DB7C" stroke="#212529" stroke-linecap="round" stroke-linejoin="round"/>
<rect x="42.2877" y="10.9332" width="2.94997" height="16.3072" rx="1.47499" transform="rotate(-30 42.2877 10.9332)" fill="#8CE99A" stroke="#212529" stroke-width="1.4" stroke-linecap="round" stroke-linejoin="round"/>
<circle cx="30.4308" cy="32.6228" r="1.85795" fill="#66D9E8" stroke="#212529" stroke-linecap="round" stroke-linejoin="round"/>
<g style="mix-blend-mode:multiply">
<rect x="18.6381" y="34.4031" width="0.633672" height="5.80734" transform="rotate(60 18.6381 34.4031)" fill="#DEE2E6"/>
</g>
</svg>
