<svg width="60" height="61" viewBox="0 0 60 61" fill="none" xmlns="http://www.w3.org/2000/svg">
<mask id="path-1-outside-1_50_3266" maskUnits="userSpaceOnUse" x="6.09229" y="8.51099" width="48" height="45" fill="black">
<rect fill="white" x="6.09229" y="8.51099" width="48" height="45"/>
<path fill-rule="evenodd" clip-rule="evenodd" d="M16.3627 10.511C14.8063 10.511 13.5447 11.7726 13.5447 13.329V14.5957H10.9589C9.37576 14.5957 8.09234 15.8792 8.09234 17.4623V44.2619C8.09234 45.8451 9.37577 47.1285 10.9589 47.1285H13.5447V48.3953C13.5447 49.9517 14.8063 51.2133 16.3627 51.2133H23.3822C24.9385 51.2133 26.2002 49.9517 26.2002 48.3953V47.1285H49.2354C50.8186 47.1285 52.102 45.8451 52.102 44.2619V17.4623C52.102 15.8792 50.8186 14.5957 49.2354 14.5957H26.2002V13.329C26.2002 11.7726 24.9385 10.511 23.3822 10.511H16.3627ZM24.4511 14.5957V13.329C24.4511 12.7386 23.9725 12.2601 23.3822 12.2601H16.3627C15.7724 12.2601 15.2938 12.7386 15.2938 13.329V14.5957H24.4511ZM15.2938 16.442H24.4511V45.2822H15.2938V16.442ZM13.5447 16.442H10.9589C10.3954 16.442 9.93863 16.8988 9.93863 17.4623V44.2619C9.93863 44.8254 10.3954 45.2822 10.9589 45.2822H13.5447V16.442ZM15.2938 47.1285V48.3953C15.2938 48.9857 15.7724 49.4642 16.3627 49.4642H23.3822C23.9725 49.4642 24.4511 48.9857 24.4511 48.3953V47.1285H15.2938ZM26.2002 45.2822V16.442H49.2354C49.7989 16.442 50.2557 16.8988 50.2557 17.4623V44.2619C50.2557 44.8254 49.7989 45.2822 49.2354 45.2822H26.2002Z"/>
</mask>
<path fill-rule="evenodd" clip-rule="evenodd" d="M16.3627 10.511C14.8063 10.511 13.5447 11.7726 13.5447 13.329V14.5957H10.9589C9.37576 14.5957 8.09234 15.8792 8.09234 17.4623V44.2619C8.09234 45.8451 9.37577 47.1285 10.9589 47.1285H13.5447V48.3953C13.5447 49.9517 14.8063 51.2133 16.3627 51.2133H23.3822C24.9385 51.2133 26.2002 49.9517 26.2002 48.3953V47.1285H49.2354C50.8186 47.1285 52.102 45.8451 52.102 44.2619V17.4623C52.102 15.8792 50.8186 14.5957 49.2354 14.5957H26.2002V13.329C26.2002 11.7726 24.9385 10.511 23.3822 10.511H16.3627ZM24.4511 14.5957V13.329C24.4511 12.7386 23.9725 12.2601 23.3822 12.2601H16.3627C15.7724 12.2601 15.2938 12.7386 15.2938 13.329V14.5957H24.4511ZM15.2938 16.442H24.4511V45.2822H15.2938V16.442ZM13.5447 16.442H10.9589C10.3954 16.442 9.93863 16.8988 9.93863 17.4623V44.2619C9.93863 44.8254 10.3954 45.2822 10.9589 45.2822H13.5447V16.442ZM15.2938 47.1285V48.3953C15.2938 48.9857 15.7724 49.4642 16.3627 49.4642H23.3822C23.9725 49.4642 24.4511 48.9857 24.4511 48.3953V47.1285H15.2938ZM26.2002 45.2822V16.442H49.2354C49.7989 16.442 50.2557 16.8988 50.2557 17.4623V44.2619C50.2557 44.8254 49.7989 45.2822 49.2354 45.2822H26.2002Z" fill="#F8F9FA"/>
<path d="M13.5446 14.5958V16.0958C14.373 16.0958 15.0446 15.4242 15.0446 14.5958H13.5446ZM13.5446 47.1285H15.0446C15.0446 46.3001 14.373 45.6285 13.5446 45.6285V47.1285ZM26.2001 47.1285V45.6285C25.3717 45.6285 24.7001 46.3001 24.7001 47.1285H26.2001ZM26.2001 14.5958H24.7001C24.7001 15.4242 25.3717 16.0958 26.2001 16.0958V14.5958ZM24.451 14.5958V16.0958C25.2794 16.0958 25.951 15.4242 25.951 14.5958H24.451ZM15.2937 14.5958H13.7937C13.7937 15.4242 14.4653 16.0958 15.2937 16.0958V14.5958ZM24.451 16.442H25.951C25.951 15.6136 25.2794 14.942 24.451 14.942V16.442ZM15.2937 16.442V14.942C14.4653 14.942 13.7937 15.6136 13.7937 16.442H15.2937ZM24.451 45.2822V46.7822C25.2794 46.7822 25.951 46.1107 25.951 45.2822H24.451ZM15.2937 45.2822H13.7937C13.7937 46.1107 14.4653 46.7822 15.2937 46.7822V45.2822ZM13.5446 16.442H15.0446C15.0446 15.6136 14.373 14.942 13.5446 14.942V16.442ZM13.5446 45.2822V46.7822C14.373 46.7822 15.0446 46.1107 15.0446 45.2822H13.5446ZM15.2937 47.1285V45.6285C14.4653 45.6285 13.7937 46.3001 13.7937 47.1285H15.2937ZM24.451 47.1285H25.951C25.951 46.3001 25.2794 45.6285 24.451 45.6285V47.1285ZM26.2001 16.442V14.942C25.3717 14.942 24.7001 15.6136 24.7001 16.442H26.2001ZM26.2001 45.2822H24.7001C24.7001 46.1107 25.3717 46.7822 26.2001 46.7822V45.2822ZM15.0446 13.329C15.0446 12.6011 15.6347 12.011 16.3626 12.011V9.01099C13.9779 9.01099 12.0446 10.9442 12.0446 13.329H15.0446ZM15.0446 14.5958V13.329H12.0446V14.5958H15.0446ZM10.9589 16.0958H13.5446V13.0958H10.9589V16.0958ZM9.59229 17.4624C9.59229 16.7076 10.2041 16.0958 10.9589 16.0958V13.0958C8.54728 13.0958 6.59229 15.0508 6.59229 17.4624H9.59229ZM9.59229 44.2619V17.4624H6.59229V44.2619H9.59229ZM10.9589 45.6285C10.2041 45.6285 9.59229 45.0167 9.59229 44.2619H6.59229C6.59229 46.6735 8.54729 48.6285 10.9589 48.6285V45.6285ZM13.5446 45.6285H10.9589V48.6285H13.5446V45.6285ZM15.0446 48.3953V47.1285H12.0446V48.3953H15.0446ZM16.3626 49.7134C15.6347 49.7134 15.0446 49.1233 15.0446 48.3953H12.0446C12.0446 50.7801 13.9779 52.7134 16.3626 52.7134V49.7134ZM23.3821 49.7134H16.3626V52.7134H23.3821V49.7134ZM24.7001 48.3953C24.7001 49.1233 24.11 49.7134 23.3821 49.7134V52.7134C25.7669 52.7134 27.7001 50.7801 27.7001 48.3953H24.7001ZM24.7001 47.1285V48.3953H27.7001V47.1285H24.7001ZM49.2353 45.6285H26.2001V48.6285H49.2353V45.6285ZM50.602 44.2619C50.602 45.0167 49.9901 45.6285 49.2353 45.6285V48.6285C51.647 48.6285 53.602 46.6735 53.602 44.2619H50.602ZM50.602 17.4624V44.2619H53.602V17.4624H50.602ZM49.2353 16.0958C49.9901 16.0958 50.602 16.7076 50.602 17.4624H53.602C53.602 15.0507 51.6469 13.0958 49.2353 13.0958V16.0958ZM26.2001 16.0958H49.2353V13.0958H26.2001V16.0958ZM24.7001 13.329V14.5958H27.7001V13.329H24.7001ZM23.3821 12.011C24.11 12.011 24.7001 12.6011 24.7001 13.329H27.7001C27.7001 10.9442 25.7669 9.01099 23.3821 9.01099V12.011ZM16.3626 12.011H23.3821V9.01099H16.3626V12.011ZM25.951 14.5958V13.329H22.951V14.5958H25.951ZM25.951 13.329C25.951 11.9102 24.8009 10.7601 23.3821 10.7601V13.7601C23.144 13.7601 22.951 13.5671 22.951 13.329H25.951ZM23.3821 10.7601H16.3626V13.7601H23.3821V10.7601ZM16.3626 10.7601C14.9439 10.7601 13.7937 11.9102 13.7937 13.329H16.7937C16.7937 13.5671 16.6007 13.7601 16.3626 13.7601V10.7601ZM13.7937 13.329V14.5958H16.7937V13.329H13.7937ZM15.2937 16.0958H24.451V13.0958H15.2937V16.0958ZM24.451 14.942H15.2937V17.942H24.451V14.942ZM25.951 45.2822V16.442H22.951V45.2822H25.951ZM15.2937 46.7822H24.451V43.7822H15.2937V46.7822ZM13.7937 16.442V45.2822H16.7937V16.442H13.7937ZM13.5446 14.942H10.9589V17.942H13.5446V14.942ZM10.9589 14.942C9.56695 14.942 8.43857 16.0704 8.43857 17.4624H11.4386C11.4386 17.7273 11.2238 17.942 10.9589 17.942V14.942ZM8.43857 17.4624V44.2619H11.4386V17.4624H8.43857ZM8.43857 44.2619C8.43857 45.6539 9.56696 46.7822 10.9589 46.7822V43.7822C11.2238 43.7822 11.4386 43.997 11.4386 44.2619H8.43857ZM10.9589 46.7822H13.5446V43.7822H10.9589V46.7822ZM15.0446 45.2822V16.442H12.0446V45.2822H15.0446ZM13.7937 47.1285V48.3953H16.7937V47.1285H13.7937ZM13.7937 48.3953C13.7937 49.8141 14.9439 50.9642 16.3626 50.9642V47.9642C16.6007 47.9642 16.7937 48.1572 16.7937 48.3953H13.7937ZM16.3626 50.9642H23.3821V47.9642H16.3626V50.9642ZM23.3821 50.9642C24.8009 50.9642 25.951 49.8141 25.951 48.3953H22.951C22.951 48.1572 23.144 47.9642 23.3821 47.9642V50.9642ZM25.951 48.3953V47.1285H22.951V48.3953H25.951ZM24.451 45.6285H15.2937V48.6285H24.451V45.6285ZM24.7001 16.442V45.2822H27.7001V16.442H24.7001ZM49.2353 14.942H26.2001V17.942H49.2353V14.942ZM51.7557 17.4624C51.7557 16.0704 50.6273 14.942 49.2353 14.942V17.942C48.9704 17.942 48.7557 17.7273 48.7557 17.4624H51.7557ZM51.7557 44.2619V17.4624H48.7557V44.2619H51.7557ZM49.2353 46.7822C50.6273 46.7822 51.7557 45.6539 51.7557 44.2619H48.7557C48.7557 43.997 48.9704 43.7822 49.2353 43.7822V46.7822ZM26.2001 46.7822H49.2353V43.7822H26.2001V46.7822Z" fill="#F8F9FA" mask="url(#path-1-outside-1_50_3266)"/>
<rect x="8.92102" y="15.519" width="42.1634" height="30.6865" rx="2" fill="#868E96" stroke="#212529" stroke-width="1.8" stroke-linejoin="round"/>
<g style="mix-blend-mode:multiply">
<path fill-rule="evenodd" clip-rule="evenodd" d="M8.56104 44.4426C8.74003 45.3636 9.55095 46.0588 10.5243 46.0588H48.6876C49.7922 46.0588 50.6876 45.1634 50.6876 44.0588V17.3724C50.6876 16.5342 50.1721 15.8165 49.4409 15.519V43.4426C49.4409 43.9949 48.9931 44.4426 48.4409 44.4426H8.56104Z" fill="#CED4DA"/>
</g>
<rect x="14.3247" y="11.3857" width="10.9064" height="38.9533" rx="2" fill="#868E96" stroke="#212529" stroke-width="1.6" stroke-linejoin="round"/>
<rect x="29.6244" y="20.0303" width="16.9629" height="5.02708" fill="#F1F3F5" stroke="#212529" stroke-width="1.2" stroke-linejoin="round"/>
<path d="M30.0972 29.488H32.394" stroke="#212529" stroke-width="1.8" stroke-linecap="round" stroke-linejoin="round"/>
<path d="M36.9574 29.488H39.2542" stroke="#212529" stroke-width="1.8" stroke-linecap="round" stroke-linejoin="round"/>
<path d="M43.8176 29.488H46.1145" stroke="#212529" stroke-width="1.8" stroke-linecap="round" stroke-linejoin="round"/>
<path d="M30.0972 33.939H32.394" stroke="#212529" stroke-width="1.8" stroke-linecap="round" stroke-linejoin="round"/>
<path d="M36.9574 33.939H39.2542" stroke="#212529" stroke-width="1.8" stroke-linecap="round" stroke-linejoin="round"/>
<path d="M43.8176 33.939H46.1145" stroke="#212529" stroke-width="1.8" stroke-linecap="round" stroke-linejoin="round"/>
<path d="M30.0972 38.3901H32.394" stroke="#212529" stroke-width="1.8" stroke-linecap="round" stroke-linejoin="round"/>
<path d="M36.9574 38.3901H39.2542" stroke="#212529" stroke-width="1.8" stroke-linecap="round" stroke-linejoin="round"/>
<path d="M43.8176 38.3901H46.1145" stroke="#212529" stroke-width="1.8" stroke-linecap="round" stroke-linejoin="round"/>
<g style="mix-blend-mode:multiply">
<rect x="25.2827" y="15.7427" width="1.84442" height="30.4629" fill="#CED4DA"/>
</g>
<path d="M41.3669 24.4533L42.7372 20.6328H46.0176V24.4533H41.3669Z" fill="#F8F9FA"/>
</svg>
