<svg width="60" height="61" viewBox="0 0 60 61" fill="none" xmlns="http://www.w3.org/2000/svg">
<path d="M11.3679 14.4805C9.35206 14.4805 7.7179 16.1146 7.7179 18.1305V44.4406C7.7179 46.4565 9.35206 48.0906 11.3679 48.0906H48.632C50.6479 48.0906 52.282 46.4565 52.282 44.4406V18.1305C52.282 16.1146 50.6479 14.4805 48.632 14.4805H11.3679ZM11.0179 18.1305C11.0179 17.9372 11.1746 17.7805 11.3679 17.7805H48.632C48.8253 17.7805 48.982 17.9372 48.982 18.1305V44.4406C48.982 44.6339 48.8253 44.7906 48.632 44.7906H11.3679C11.1746 44.7906 11.0179 44.6339 11.0179 44.4406V18.1305Z" fill="#F8F9FA" stroke="#F8F9FA" stroke-width="1.5" stroke-linecap="round" stroke-linejoin="round"/>
<rect x="9.36792" y="16.1304" width="41.2641" height="30.3102" rx="2" fill="#343A40" stroke="#212529" stroke-width="1.8" stroke-linejoin="round"/>
<circle cx="41.7946" cy="19.6919" r="0.72512" fill="#FFF3BF"/>
<circle cx="44.4638" cy="19.6919" r="0.72512" fill="#FFF3BF"/>
<circle cx="47.1327" cy="19.6919" r="0.72512" fill="#FFF3BF"/>
<path d="M50.2523 22.8896H9.82214" stroke="#212529" stroke-width="1.2" stroke-linecap="round" stroke-linejoin="round"/>
<path d="M16.1349 38.6751C15.9625 38.7518 15.7932 38.7901 15.6272 38.7901C15.4292 38.7901 15.2472 38.739 15.0811 38.6368C14.915 38.5346 14.7809 38.3877 14.6787 38.1961C14.5957 38.0365 14.5542 37.8704 14.5542 37.698C14.5542 37.4872 14.6149 37.2956 14.7362 37.1232C14.8576 36.9444 15.0236 36.8038 15.2344 36.7017L21.0494 33.9139L15.3014 31.1549C15.0779 31.0527 14.9023 30.9154 14.7745 30.7429C14.6468 30.5641 14.5829 30.3725 14.5829 30.1681C14.5829 30.0021 14.6245 29.8456 14.7075 29.6987C14.8224 29.4944 14.9598 29.3411 15.1194 29.2389C15.2855 29.1303 15.4611 29.076 15.6463 29.076C15.7996 29.076 15.9656 29.1175 16.1445 29.2006L22.8313 32.5727C23.1059 32.7068 23.3198 32.892 23.4731 33.1283C23.6328 33.3646 23.7126 33.6329 23.7126 33.9331C23.7126 34.2652 23.6328 34.5494 23.4731 34.7857C23.3135 35.0156 23.0995 35.2008 22.8313 35.3413L16.1349 38.6751ZM24.7473 40.7827C24.7473 40.4762 24.8622 40.2207 25.0921 40.0163C25.322 39.8119 25.6063 39.7098 25.9447 39.7098H31.0987C31.4372 39.7098 31.7183 39.8119 31.9418 40.0163C32.1717 40.2207 32.2867 40.4762 32.2867 40.7827C32.2867 41.0893 32.1717 41.3447 31.9418 41.5491C31.7183 41.7535 31.4372 41.8557 31.0987 41.8557H25.9447C25.5999 41.8557 25.3125 41.7535 25.0825 41.5491C24.859 41.3511 24.7473 41.0957 24.7473 40.7827Z" fill="#F8F9FA"/>
</svg>
