<svg width="60" height="60" viewBox="0 0 60 60" fill="none" xmlns="http://www.w3.org/2000/svg">
<mask id="path-1-outside-1_50_1397" maskUnits="userSpaceOnUse" x="12.2671" y="9.29767" width="35" height="42" fill="black">
<rect fill="white" x="12.2671" y="9.29767" width="35" height="42"/>
<path fill-rule="evenodd" clip-rule="evenodd" d="M32.5915 13.8274C32.5915 12.4303 31.4589 11.2977 30.0618 11.2977H29.9375C28.5404 11.2977 27.4078 12.4302 27.4078 13.8274V15.4984H16.7968C15.3997 15.4984 14.2671 16.631 14.2671 18.0281V18.1524C14.2671 19.5495 15.3997 20.6821 16.7968 20.6821H16.8633L17.5591 44.8325C17.6281 47.2268 19.5889 49.132 21.9842 49.132H38.0151C40.4104 49.132 42.3712 47.2268 42.4402 44.8325L43.136 20.6821H43.2026C44.5997 20.6821 45.7323 19.5495 45.7323 18.1524V18.0281C45.7323 16.631 44.5997 15.4984 43.2026 15.4984H32.5915V13.8274Z"/>
</mask>
<path fill-rule="evenodd" clip-rule="evenodd" d="M32.5915 13.8274C32.5915 12.4303 31.4589 11.2977 30.0618 11.2977H29.9375C28.5404 11.2977 27.4078 12.4302 27.4078 13.8274V15.4984H16.7968C15.3997 15.4984 14.2671 16.631 14.2671 18.0281V18.1524C14.2671 19.5495 15.3997 20.6821 16.7968 20.6821H16.8633L17.5591 44.8325C17.6281 47.2268 19.5889 49.132 21.9842 49.132H38.0151C40.4104 49.132 42.3712 47.2268 42.4402 44.8325L43.136 20.6821H43.2026C44.5997 20.6821 45.7323 19.5495 45.7323 18.1524V18.0281C45.7323 16.631 44.5997 15.4984 43.2026 15.4984H32.5915V13.8274Z" fill="#F8F9FA"/>
<path d="M27.4078 15.4984V16.9984C28.2362 16.9984 28.9078 16.3268 28.9078 15.4984H27.4078ZM16.8633 20.6821L18.3626 20.6389C18.3393 19.8276 17.6749 19.1821 16.8633 19.1821V20.6821ZM17.559 44.8325L16.0597 44.8757L16.0597 44.8757L17.559 44.8325ZM42.4402 44.8325L40.9408 44.7893L40.9408 44.7893L42.4402 44.8325ZM43.136 20.6821V19.1821C42.3244 19.1821 41.66 19.8276 41.6366 20.6389L43.136 20.6821ZM32.5914 15.4984H31.0914C31.0914 16.3268 31.763 16.9984 32.5914 16.9984V15.4984ZM30.0618 12.7977C30.6304 12.7977 31.0914 13.2587 31.0914 13.8274H34.0914C34.0914 11.6018 32.2873 9.79767 30.0618 9.79767V12.7977ZM29.9375 12.7977H30.0618V9.79767H29.9375V12.7977ZM28.9078 13.8274C28.9078 13.2587 29.3688 12.7977 29.9375 12.7977V9.79767C27.712 9.79767 25.9078 11.6018 25.9078 13.8274H28.9078ZM28.9078 15.4984V13.8274H25.9078V15.4984H28.9078ZM16.7968 16.9984H27.4078V13.9984H16.7968V16.9984ZM15.7671 18.0281C15.7671 17.4594 16.2281 16.9984 16.7968 16.9984V13.9984C14.5712 13.9984 12.7671 15.8026 12.7671 18.0281H15.7671ZM15.7671 18.1524V18.0281H12.7671V18.1524H15.7671ZM16.7968 19.1821C16.2281 19.1821 15.7671 18.721 15.7671 18.1524H12.7671C12.7671 20.3779 14.5712 22.1821 16.7968 22.1821V19.1821ZM16.8633 19.1821H16.7968V22.1821H16.8633V19.1821ZM19.0584 44.7893L18.3626 20.6389L15.3639 20.7253L16.0597 44.8757L19.0584 44.7893ZM21.9842 47.632C20.4005 47.632 19.104 46.3723 19.0584 44.7893L16.0597 44.8757C16.152 48.0813 18.7773 50.632 21.9842 50.632V47.632ZM38.015 47.632H21.9842V50.632H38.015V47.632ZM40.9408 44.7893C40.8952 46.3723 39.5987 47.632 38.015 47.632V50.632C41.222 50.632 43.8472 48.0812 43.9396 44.8757L40.9408 44.7893ZM41.6366 20.6389L40.9408 44.7893L43.9396 44.8757L44.6353 20.7253L41.6366 20.6389ZM43.2026 19.1821H43.136V22.1821H43.2026V19.1821ZM44.2323 18.1524C44.2323 18.721 43.7713 19.1821 43.2026 19.1821V22.1821C45.4281 22.1821 47.2323 20.3779 47.2323 18.1524H44.2323ZM44.2323 18.0281V18.1524H47.2323V18.0281H44.2323ZM43.2026 16.9984C43.7712 16.9984 44.2323 17.4594 44.2323 18.0281H47.2323C47.2323 15.8026 45.4281 13.9984 43.2026 13.9984V16.9984ZM32.5914 16.9984H43.2026V13.9984H32.5914V16.9984ZM31.0914 13.8274V15.4984H34.0914V13.8274H31.0914Z" fill="#F8F9FA" mask="url(#path-1-outside-1_50_1397)"/>
<path d="M17.6561 19.9514H42.3436L41.6384 44.4262C41.5761 46.5895 39.8044 48.311 37.6401 48.311H22.3596C20.1953 48.311 18.4236 46.5895 18.3613 44.4262L17.6561 19.9514Z" fill="#FF6B6B" stroke="#212529" stroke-width="1.8" stroke-linecap="round" stroke-linejoin="round"/>
<path d="M29.941 27.8534V40.4312" stroke="#212529" stroke-width="1.4" stroke-linecap="round" stroke-linejoin="round"/>
<path d="M36.1671 27.9188L35.6604 40.4315" stroke="#212529" stroke-width="1.4" stroke-linecap="round" stroke-linejoin="round"/>
<path d="M23.8329 27.8309L24.2215 40.4307" stroke="#212529" stroke-width="1.4" stroke-linecap="round" stroke-linejoin="round"/>
<rect x="31.869" y="12.0126" width="6.0698" height="3.7381" rx="1.86905" transform="rotate(90 31.869 12.0126)" fill="#FA5252" stroke="#212529" stroke-width="1.6" stroke-linecap="round" stroke-linejoin="round"/>
<rect x="14.9901" y="16.2133" width="30.0196" height="3.7381" rx="1.86905" fill="#FA5252" stroke="#212529" stroke-width="1.6" stroke-linecap="round" stroke-linejoin="round"/>
<g style="mix-blend-mode:multiply">
<path fill-rule="evenodd" clip-rule="evenodd" d="M35.7371 47.8031H37.5271C39.6897 47.8031 41.4607 46.0842 41.5253 43.9226L42.2264 20.4594H40.4364L39.7353 43.9226C39.6707 46.0842 37.8997 47.8031 35.7371 47.8031Z" fill="#DEE2E6"/>
</g>
<g style="mix-blend-mode:multiply">
<rect x="18.1492" y="20.0432" width="22.2833" height="1.41127" fill="#DEE2E6"/>
</g>
</svg>
