<svg width="60" height="60" viewBox="0 0 60 60" fill="none" xmlns="http://www.w3.org/2000/svg">
<mask id="path-1-outside-1_50_6840" maskUnits="userSpaceOnUse" x="8.22913" y="9.00049" width="44" height="45" fill="black">
<rect fill="white" x="8.22913" y="9.00049" width="44" height="45"/>
<path fill-rule="evenodd" clip-rule="evenodd" d="M11.2061 11.0005C10.6665 11.0005 10.2291 11.4379 10.2291 11.9774C10.2291 12.517 10.6665 12.9543 11.2061 12.9543H12.8304V14.4737C12.8304 15.9845 14.055 17.2091 15.5658 17.2091H27.3049V20.0962H19.1333C17.7569 20.0962 16.5949 21.1188 16.42 22.484L13.3284 46.6172C13.1189 48.2525 14.393 49.7002 16.0417 49.7002H17.1701V50.5043C17.1701 51.0605 17.6211 51.5114 18.1773 51.5114H20.2352C20.7914 51.5114 21.2423 51.0605 21.2423 50.5043V49.7002H38.7576V50.5043C38.7576 51.0605 39.2085 51.5114 39.7647 51.5114H41.8226C42.3788 51.5114 42.8297 51.0605 42.8297 50.5043V49.7002H43.9583C45.607 49.7002 46.881 48.2525 46.6715 46.6172L43.5799 22.484C43.4051 21.1188 42.2431 20.0962 40.8667 20.0962H32.6951V17.2091H44.434C45.9447 17.2091 47.1694 15.9845 47.1694 14.4737V12.9543H48.7939C49.3335 12.9543 49.7709 12.517 49.7709 11.9774C49.7709 11.4379 49.3335 11.0005 48.7939 11.0005H11.2061ZM14.3935 12.9543H45.6063V14.4737C45.6063 15.1212 45.0814 15.646 44.434 15.646H32.6572C32.4893 14.8499 31.7827 14.2523 30.9366 14.2523H29.0633C28.2172 14.2523 27.5107 14.8499 27.3427 15.646H15.5658C14.9183 15.646 14.3935 15.1212 14.3935 14.4737V12.9543ZM31.132 17.2091H28.8679V20.0962H31.132V17.2091ZM27.3427 21.6593H19.1333C18.5434 21.6593 18.0454 22.0976 17.9704 22.6826L14.8788 46.8158C14.7891 47.5166 15.3351 48.1371 16.0417 48.1371H17.1709C17.1908 47.5984 17.6338 47.1679 18.1773 47.1679H20.2352C20.7787 47.1679 21.2217 47.5984 21.2416 48.1371H38.7583C38.7782 47.5984 39.2212 47.1679 39.7647 47.1679H41.8226C42.3661 47.1679 42.8091 47.5984 42.829 48.1371H43.9583C44.6649 48.1371 45.2109 47.5166 45.1211 46.8158L42.0295 22.6826C41.9546 22.0976 41.4566 21.6593 40.8667 21.6593H32.6572C32.4893 22.4555 31.7828 23.0531 30.9366 23.0531H29.0633C28.2172 23.0531 27.5106 22.4555 27.3427 21.6593Z"/>
</mask>
<path fill-rule="evenodd" clip-rule="evenodd" d="M11.2061 11.0005C10.6665 11.0005 10.2291 11.4379 10.2291 11.9774C10.2291 12.517 10.6665 12.9543 11.2061 12.9543H12.8304V14.4737C12.8304 15.9845 14.055 17.2091 15.5658 17.2091H27.3049V20.0962H19.1333C17.7569 20.0962 16.5949 21.1188 16.42 22.484L13.3284 46.6172C13.1189 48.2525 14.393 49.7002 16.0417 49.7002H17.1701V50.5043C17.1701 51.0605 17.6211 51.5114 18.1773 51.5114H20.2352C20.7914 51.5114 21.2423 51.0605 21.2423 50.5043V49.7002H38.7576V50.5043C38.7576 51.0605 39.2085 51.5114 39.7647 51.5114H41.8226C42.3788 51.5114 42.8297 51.0605 42.8297 50.5043V49.7002H43.9583C45.607 49.7002 46.881 48.2525 46.6715 46.6172L43.5799 22.484C43.4051 21.1188 42.2431 20.0962 40.8667 20.0962H32.6951V17.2091H44.434C45.9447 17.2091 47.1694 15.9845 47.1694 14.4737V12.9543H48.7939C49.3335 12.9543 49.7709 12.517 49.7709 11.9774C49.7709 11.4379 49.3335 11.0005 48.7939 11.0005H11.2061ZM14.3935 12.9543H45.6063V14.4737C45.6063 15.1212 45.0814 15.646 44.434 15.646H32.6572C32.4893 14.8499 31.7827 14.2523 30.9366 14.2523H29.0633C28.2172 14.2523 27.5107 14.8499 27.3427 15.646H15.5658C14.9183 15.646 14.3935 15.1212 14.3935 14.4737V12.9543ZM31.132 17.2091H28.8679V20.0962H31.132V17.2091ZM27.3427 21.6593H19.1333C18.5434 21.6593 18.0454 22.0976 17.9704 22.6826L14.8788 46.8158C14.7891 47.5166 15.3351 48.1371 16.0417 48.1371H17.1709C17.1908 47.5984 17.6338 47.1679 18.1773 47.1679H20.2352C20.7787 47.1679 21.2217 47.5984 21.2416 48.1371H38.7583C38.7782 47.5984 39.2212 47.1679 39.7647 47.1679H41.8226C42.3661 47.1679 42.8091 47.5984 42.829 48.1371H43.9583C44.6649 48.1371 45.2109 47.5166 45.1211 46.8158L42.0295 22.6826C41.9546 22.0976 41.4566 21.6593 40.8667 21.6593H32.6572C32.4893 22.4555 31.7828 23.0531 30.9366 23.0531H29.0633C28.2172 23.0531 27.5106 22.4555 27.3427 21.6593Z" fill="#F8F9FA"/>
<path d="M12.8304 12.9543H14.3304C14.3304 12.1259 13.6588 11.4543 12.8304 11.4543V12.9543ZM27.3049 17.2091H28.8049C28.8049 16.3807 28.1333 15.7091 27.3049 15.7091V17.2091ZM27.3049 20.0962V21.5962C28.1333 21.5962 28.8049 20.9246 28.8049 20.0962H27.3049ZM16.42 22.484L14.9322 22.2934L14.9322 22.2934L16.42 22.484ZM13.3284 46.6172L14.8163 46.8078L14.8163 46.8078L13.3284 46.6172ZM17.1701 49.7002H18.6701C18.6701 48.8717 17.9986 48.2002 17.1701 48.2002V49.7002ZM21.2423 49.7002V48.2002C20.4139 48.2002 19.7423 48.8717 19.7423 49.7002H21.2423ZM38.7576 49.7002H40.2576C40.2576 48.8717 39.586 48.2002 38.7576 48.2002V49.7002ZM42.8297 49.7002V48.2002C42.0013 48.2002 41.3297 48.8717 41.3297 49.7002H42.8297ZM46.6715 46.6172L45.1837 46.8078L45.1837 46.8078L46.6715 46.6172ZM43.5799 22.484L45.0678 22.2934L45.0678 22.2934L43.5799 22.484ZM32.6951 20.0962H31.1951C31.1951 20.9246 31.8667 21.5962 32.6951 21.5962V20.0962ZM32.6951 17.2091V15.7091C31.8667 15.7091 31.1951 16.3807 31.1951 17.2091H32.6951ZM47.1694 12.9543V11.4543C46.3409 11.4543 45.6694 12.1259 45.6694 12.9543H47.1694ZM45.6063 12.9543H47.1063C47.1063 12.1259 46.4347 11.4543 45.6063 11.4543V12.9543ZM14.3935 12.9543V11.4543C13.565 11.4543 12.8935 12.1259 12.8935 12.9543H14.3935ZM32.6572 15.646L31.1895 15.9556C31.3359 16.6495 31.9481 17.146 32.6572 17.146V15.646ZM27.3427 15.646V17.146C28.0518 17.146 28.6641 16.6495 28.8104 15.9556L27.3427 15.646ZM28.8679 17.2091V15.7091C28.0395 15.7091 27.3679 16.3807 27.3679 17.2091H28.8679ZM31.132 17.2091H32.632C32.632 16.3807 31.9604 15.7091 31.132 15.7091V17.2091ZM28.8679 20.0962H27.3679C27.3679 20.9246 28.0395 21.5962 28.8679 21.5962V20.0962ZM31.132 20.0962V21.5962C31.9604 21.5962 32.632 20.9246 32.632 20.0962H31.132ZM27.3427 21.6593L28.8104 21.3497C28.6641 20.6559 28.0518 20.1593 27.3427 20.1593V21.6593ZM17.9704 22.6826L19.4583 22.8732L19.4583 22.8732L17.9704 22.6826ZM14.8788 46.8158L13.391 46.6252L13.391 46.6252L14.8788 46.8158ZM17.1709 48.1371V49.6371C17.9777 49.6371 18.6399 48.9989 18.6698 48.1926L17.1709 48.1371ZM21.2416 48.1371L19.7426 48.1926C19.7725 48.9989 20.4348 49.6371 21.2416 49.6371V48.1371ZM38.7583 48.1371V49.6371C39.5651 49.6371 40.2273 48.9989 40.2572 48.1926L38.7583 48.1371ZM42.829 48.1371L41.3301 48.1926C41.3599 48.9989 42.0222 49.6371 42.829 49.6371V48.1371ZM45.1211 46.8158L46.609 46.6252L46.609 46.6252L45.1211 46.8158ZM42.0295 22.6826L43.5174 22.492L43.5174 22.492L42.0295 22.6826ZM32.6572 21.6593V20.1593C31.9481 20.1593 31.3359 20.6559 31.1895 21.3497L32.6572 21.6593ZM11.7291 11.9774C11.7291 12.2663 11.4949 12.5005 11.2061 12.5005V9.50049C9.83809 9.50049 8.72913 10.6094 8.72913 11.9774H11.7291ZM11.2061 11.4543C11.4949 11.4543 11.7291 11.6885 11.7291 11.9774H8.72913C8.72913 13.3454 9.83809 14.4543 11.2061 14.4543V11.4543ZM12.8304 11.4543H11.2061V14.4543H12.8304V11.4543ZM11.3304 12.9543V14.4737H14.3304V12.9543H11.3304ZM11.3304 14.4737C11.3304 16.8129 13.2266 18.7091 15.5658 18.7091V15.7091C14.8835 15.7091 14.3304 15.156 14.3304 14.4737H11.3304ZM15.5658 18.7091H27.3049V15.7091H15.5658V18.7091ZM25.8049 17.2091V20.0962H28.8049V17.2091H25.8049ZM27.3049 18.5962H19.1333V21.5962H27.3049V18.5962ZM19.1333 18.5962C17.0022 18.5962 15.203 20.1796 14.9322 22.2934L17.9079 22.6746C17.9868 22.0581 18.5116 21.5962 19.1333 21.5962V18.5962ZM14.9322 22.2934L11.8406 46.4266L14.8163 46.8078L17.9079 22.6746L14.9322 22.2934ZM11.8406 46.4266C11.5162 48.9587 13.4889 51.2002 16.0417 51.2002V48.2002C15.2971 48.2002 14.7217 47.5463 14.8163 46.8078L11.8406 46.4266ZM16.0417 51.2002H17.1701V48.2002H16.0417V51.2002ZM15.6701 49.7002V50.5043H18.6701V49.7002H15.6701ZM15.6701 50.5043C15.6701 51.889 16.7926 53.0114 18.1773 53.0114V50.0114C18.4495 50.0114 18.6701 50.2321 18.6701 50.5043H15.6701ZM18.1773 53.0114H20.2352V50.0114H18.1773V53.0114ZM20.2352 53.0114C21.6198 53.0114 22.7423 51.889 22.7423 50.5043H19.7423C19.7423 50.2321 19.963 50.0114 20.2352 50.0114V53.0114ZM22.7423 50.5043V49.7002H19.7423V50.5043H22.7423ZM21.2423 51.2002H38.7576V48.2002H21.2423V51.2002ZM37.2576 49.7002V50.5043H40.2576V49.7002H37.2576ZM37.2576 50.5043C37.2576 51.889 38.38 53.0114 39.7647 53.0114V50.0114C40.0369 50.0114 40.2576 50.2321 40.2576 50.5043H37.2576ZM39.7647 53.0114H41.8226V50.0114H39.7647V53.0114ZM41.8226 53.0114C43.2073 53.0114 44.3297 51.889 44.3297 50.5043H41.3297C41.3297 50.2321 41.5504 50.0114 41.8226 50.0114V53.0114ZM44.3297 50.5043V49.7002H41.3297V50.5043H44.3297ZM42.8297 51.2002H43.9583V48.2002H42.8297V51.2002ZM43.9583 51.2002C46.5111 51.2002 48.4838 48.9587 48.1594 46.4266L45.1837 46.8078C45.2783 47.5463 44.7029 48.2002 43.9583 48.2002V51.2002ZM48.1594 46.4266L45.0678 22.2934L42.0921 22.6746L45.1837 46.8078L48.1594 46.4266ZM45.0678 22.2934C44.797 20.1796 42.9978 18.5962 40.8667 18.5962V21.5962C41.4883 21.5962 42.0131 22.0581 42.0921 22.6746L45.0678 22.2934ZM40.8667 18.5962H32.6951V21.5962H40.8667V18.5962ZM34.1951 20.0962V17.2091H31.1951V20.0962H34.1951ZM32.6951 18.7091H44.434V15.7091H32.6951V18.7091ZM44.434 18.7091C46.7731 18.7091 48.6694 16.8129 48.6694 14.4737H45.6694C45.6694 15.156 45.1162 15.7091 44.434 15.7091V18.7091ZM48.6694 14.4737V12.9543H45.6694V14.4737H48.6694ZM48.7939 11.4543H47.1694V14.4543H48.7939V11.4543ZM48.2709 11.9774C48.2709 11.6885 48.5051 11.4543 48.7939 11.4543V14.4543C50.1619 14.4543 51.2709 13.3454 51.2709 11.9774H48.2709ZM48.7939 12.5005C48.5051 12.5005 48.2709 12.2663 48.2709 11.9774H51.2709C51.2709 10.6094 50.1619 9.50049 48.7939 9.50049V12.5005ZM11.2061 12.5005H48.7939V9.50049H11.2061V12.5005ZM45.6063 11.4543H14.3935V14.4543H45.6063V11.4543ZM47.1063 14.4737V12.9543H44.1063V14.4737H47.1063ZM44.434 17.146C45.9098 17.146 47.1063 15.9496 47.1063 14.4737H44.1063C44.1063 14.2928 44.253 14.146 44.434 14.146V17.146ZM32.6572 17.146H44.434V14.146H32.6572V17.146ZM30.9366 15.7523C31.0592 15.7523 31.1649 15.8391 31.1895 15.9556L34.1249 15.3365C33.8137 13.8607 32.5063 12.7523 30.9366 12.7523V15.7523ZM29.0633 15.7523H30.9366V12.7523H29.0633V15.7523ZM28.8104 15.9556C28.835 15.8391 28.9408 15.7523 29.0633 15.7523V12.7523C27.4936 12.7523 26.1863 13.8607 25.875 15.3365L28.8104 15.9556ZM15.5658 17.146H27.3427V14.146H15.5658V17.146ZM12.8935 14.4737C12.8935 15.9496 14.0899 17.146 15.5658 17.146V14.146C15.7467 14.146 15.8935 14.2928 15.8935 14.4737H12.8935ZM12.8935 12.9543V14.4737H15.8935V12.9543H12.8935ZM28.8679 18.7091H31.132V15.7091H28.8679V18.7091ZM30.3679 20.0962V17.2091H27.3679V20.0962H30.3679ZM31.132 18.5962H28.8679V21.5962H31.132V18.5962ZM29.632 17.2091V20.0962H32.632V17.2091H29.632ZM19.1333 23.1593H27.3427V20.1593H19.1333V23.1593ZM19.4583 22.8732C19.4373 23.0368 19.2981 23.1593 19.1333 23.1593V20.1593C17.7886 20.1593 16.6534 21.1583 16.4826 22.492L19.4583 22.8732ZM16.3667 47.0064L19.4583 22.8732L16.4826 22.492L13.391 46.6252L16.3667 47.0064ZM16.0417 46.6371C16.2392 46.6371 16.3918 46.8105 16.3667 47.0064L13.391 46.6252C13.1863 48.2228 14.431 49.6371 16.0417 49.6371V46.6371ZM17.1709 46.6371H16.0417V49.6371H17.1709V46.6371ZM18.1773 45.6679C16.824 45.6679 15.7216 46.7396 15.6719 48.0815L18.6698 48.1926C18.66 48.4573 18.4436 48.6679 18.1773 48.6679V45.6679ZM20.2352 45.6679H18.1773V48.6679H20.2352V45.6679ZM22.7406 48.0815C22.6908 46.7396 21.5885 45.6679 20.2352 45.6679V48.6679C19.9689 48.6679 19.7525 48.4573 19.7426 48.1926L22.7406 48.0815ZM38.7583 46.6371H21.2416V49.6371H38.7583V46.6371ZM39.7647 45.6679C38.4114 45.6679 37.309 46.7396 37.2593 48.0815L40.2572 48.1926C40.2474 48.4573 40.031 48.6679 39.7647 48.6679V45.6679ZM41.8226 45.6679H39.7647V48.6679H41.8226V45.6679ZM44.328 48.0815C44.2783 46.7396 43.1759 45.6679 41.8226 45.6679V48.6679C41.5563 48.6679 41.3399 48.4573 41.3301 48.1926L44.328 48.0815ZM43.9583 46.6371H42.829V49.6371H43.9583V46.6371ZM43.6333 47.0064C43.6082 46.8105 43.7608 46.6371 43.9583 46.6371V49.6371C45.569 49.6371 46.8136 48.2228 46.609 46.6252L43.6333 47.0064ZM40.5417 22.8732L43.6333 47.0064L46.609 46.6252L43.5174 22.492L40.5417 22.8732ZM40.8667 23.1593C40.7018 23.1593 40.5626 23.0368 40.5417 22.8732L43.5174 22.492C43.3465 21.1583 42.2113 20.1593 40.8667 20.1593V23.1593ZM32.6572 23.1593H40.8667V20.1593H32.6572V23.1593ZM30.9366 24.5531C32.5063 24.5531 33.8137 23.4446 34.1249 21.9688L31.1895 21.3497C31.1649 21.4663 31.0592 21.5531 30.9366 21.5531V24.5531ZM29.0633 24.5531H30.9366V21.5531H29.0633V24.5531ZM25.875 21.9688C26.1863 23.4446 27.4936 24.5531 29.0633 24.5531V21.5531C28.9408 21.5531 28.835 21.4663 28.8104 21.3497L25.875 21.9688Z" fill="#F8F9FA" mask="url(#path-1-outside-1_50_6840)"/>
<rect x="17.1702" y="47.168" width="4.07217" height="4.34352" rx="1.0309" fill="#212529"/>
<rect x="38.7576" y="47.168" width="4.07217" height="4.34352" rx="1.0309" fill="#212529"/>
<rect x="28.0864" y="15.0342" width="3.82715" height="7.23769" rx="1" fill="#868E96" stroke="#212529" stroke-width="1.6" stroke-linejoin="round"/>
<path d="M17.1901 22.6238C17.3179 21.6256 18.1675 20.8779 19.1739 20.8779H40.8261C41.8324 20.8779 42.682 21.6256 42.8099 22.6238L45.8897 46.6647C46.0428 47.8603 45.1113 48.9188 43.9059 48.9188H16.0941C14.8886 48.9188 13.9571 47.8603 14.1103 46.6647L17.1901 22.6238Z" fill="#15AABF" stroke="#212529" stroke-width="1.6" stroke-linejoin="round"/>
<g style="mix-blend-mode:multiply">
<path fill-rule="evenodd" clip-rule="evenodd" d="M41.9924 48.6239H43.9587C45.1642 48.6239 46.0957 47.5654 45.9425 46.3697L42.8627 22.3289C42.7349 21.3307 41.8853 20.583 40.8789 20.583H38.9126C39.9189 20.583 40.7685 21.3307 40.8964 22.3289L43.9762 46.3697C44.1293 47.5654 43.1978 48.6239 41.9924 48.6239Z" fill="#DEE2E6"/>
</g>
<circle cx="29.8668" cy="34.8981" r="8.89075" fill="#F8F9FA" stroke="#212529" stroke-width="1.2" stroke-linejoin="round"/>
<circle cx="29.8667" cy="34.5291" r="1.06034" fill="#212529"/>
<path d="M29.8859 30.0825L29.8859 34.603" stroke="#212529" stroke-linecap="round" stroke-linejoin="round"/>
<path d="M13.6119 11.9775H46.3878V14.4277C46.3878 15.5323 45.4924 16.4277 44.3878 16.4277H15.6119C14.5074 16.4277 13.6119 15.5323 13.6119 14.4277V11.9775Z" fill="#15AABF" stroke="#212529" stroke-width="1.6" stroke-linejoin="round"/>
<path d="M11.2061 11.9775H48.7939" stroke="#212529" stroke-width="2" stroke-linecap="round" stroke-linejoin="round"/>
<path d="M29.9762 26.1201L29.9762 27.873" stroke="#212529" stroke-linecap="round" stroke-linejoin="round"/>
<path d="M29.9762 41.9302L29.9762 43.6831" stroke="#212529" stroke-linecap="round" stroke-linejoin="round"/>
<path d="M36.1855 28.6919L34.946 29.9314" stroke="#212529" stroke-linecap="round" stroke-linejoin="round"/>
<path d="M25.0062 39.8711L23.7667 41.1106" stroke="#212529" stroke-linecap="round" stroke-linejoin="round"/>
<path d="M36.1855 41.1108L34.946 39.8713" stroke="#212529" stroke-linecap="round" stroke-linejoin="round"/>
<path d="M25.0062 29.9316L23.7667 28.6921" stroke="#212529" stroke-linecap="round" stroke-linejoin="round"/>
<path d="M21.1946 34.9014H22.9475" stroke="#212529" stroke-linecap="round" stroke-linejoin="round"/>
<path d="M37.0046 34.9014H38.7576" stroke="#212529" stroke-linecap="round" stroke-linejoin="round"/>
</svg>
