<svg width="18" height="18" viewBox="0 0 18 18" fill="none" xmlns="http://www.w3.org/2000/svg">
<g clip-path="url(#clip0_501_45798)">
<path fill-rule="evenodd" clip-rule="evenodd" d="M23.3807 8.12185L22.7928 8.12185L22.8027 8.12132V5.83672L14.4938 6.76893L14.4834 6.33636L8.92585 6.63214L8.92161 6.45519L13.4922 6.1882V6.33576L21.9251 5.83616V4.05002L13.5737 4.54478V4.39729L5.59928 4.86312L-0.327393 4.53857V6.32472L5.21558 6.36341V6.53351L0.528436 6.78297L0.571216 8.56798L1.1493 8.53721L1.1493 9.90812L9.53952 9.90811V9.80369L9.77295 9.90833L7.67732 9.90846L7.35653 10.27L0.571216 9.90885L0.528437 11.6939L0.691162 11.6805V13.2189H9.06755V13.1791L9.79236 13.1557L9.80024 13.3271L17.1924 12.9871L17.1397 11.8412L22.76 12.1403L22.8027 10.3553L14.4124 9.90875L14.4105 9.98997L14.3541 9.9081L23.3807 9.908V8.12185ZM14.3956 10.6104L8.32945 11.402L14.3813 11.2067L14.3956 10.6104ZM6.53044 11.2009L6.33707 11.4189H3.87693L6.53044 11.2009Z" fill="#27292A"/>
</g>
<defs>
<clipPath id="clip0_501_45798">
<rect width="16.2" height="10.35" fill="white" transform="translate(0.899902 4.05002)"/>
</clipPath>
</defs>
</svg>
