<svg width="18" height="18" viewBox="0 0 18 18" fill="none" xmlns="http://www.w3.org/2000/svg">
<path fill-rule="evenodd" clip-rule="evenodd" d="M2 8.75C2 8.33579 2.33579 8 2.75 8H8.5C8.91421 8 9.25 8.33579 9.25 8.75C9.25 9.16421 8.91421 9.5 8.5 9.5H2.75C2.33579 9.5 2 9.16421 2 8.75Z" fill="#27292A"/>
<path fill-rule="evenodd" clip-rule="evenodd" d="M7.75 9C7.75 5.13401 10.884 2 14.75 2H15.5C15.9142 2 16.25 2.33579 16.25 2.75C16.25 3.16421 15.9142 3.5 15.5 3.5H14.75C11.7124 3.5 9.25 5.96243 9.25 9C9.25 12.0376 11.7124 14.5 14.75 14.5H15.5C15.9142 14.5 16.25 14.8358 16.25 15.25C16.25 15.6642 15.9142 16 15.5 16H14.75C10.884 16 7.75 12.866 7.75 9Z" fill="#27292A"/>
</svg>
