<svg width="28" height="14" viewBox="0 0 28 14" fill="none" xmlns="http://www.w3.org/2000/svg">
<rect x="0.75" y="0.75" width="26.6176" height="12.5" rx="6.25" fill="url(#paint0_linear_3084_10338)" stroke="white" stroke-width="0.5"/>
<path d="M7.1586 10.1761H5.93847V4.20784H7.1586V10.1761ZM6.62092 7.16923H8.22983C8.43939 7.16923 8.62275 7.12925 8.77992 7.04929C8.93709 6.96932 9.05842 6.85489 9.14389 6.706C9.22937 6.5571 9.27211 6.38339 9.27211 6.18486C9.27211 5.98633 9.22937 5.81261 9.14389 5.66372C9.05842 5.51482 8.93571 5.40039 8.77579 5.32043C8.61586 5.24046 8.42974 5.20048 8.21742 5.20048H6.62092V4.20784H8.35805C8.7882 4.20784 9.1632 4.28918 9.48305 4.45186C9.80566 4.61179 10.0538 4.84065 10.2275 5.13844C10.404 5.43624 10.4922 5.78504 10.4922 6.18486C10.4922 6.58467 10.404 6.93348 10.2275 7.23127C10.0538 7.52907 9.80566 7.75931 9.48305 7.92199C9.1632 8.08192 8.7882 8.16188 8.35805 8.16188H6.62092V7.16923Z" fill="white"/>
<path d="M12.9008 10.1761H11.6807V4.20784H12.9008V10.1761ZM16.3751 10.1761H15.0226L13.3558 7.42567H14.5635L16.3751 10.1761ZM12.3301 6.96243H14.0507C14.354 6.96243 14.5939 6.88523 14.7703 6.73081C14.9468 6.5764 15.035 6.36684 15.035 6.10214C15.035 5.8264 14.9468 5.60719 14.7703 5.44451C14.5939 5.28182 14.354 5.20048 14.0507 5.20048H12.3301V4.20784H14.1417C14.5746 4.20784 14.9509 4.28504 15.2708 4.43945C15.5934 4.59111 15.8416 4.80894 16.0153 5.09295C16.189 5.3742 16.2758 5.70508 16.2758 6.08559C16.2758 6.46059 16.189 6.78734 16.0153 7.06583C15.8416 7.34432 15.5934 7.5594 15.2708 7.71105C14.9509 7.85995 14.5746 7.9344 14.1417 7.9344H12.3301V6.96243Z" fill="white"/>
<path d="M20.3554 10.2919C19.724 10.2919 19.1739 10.1665 18.7051 9.91556C18.2391 9.66188 17.8793 9.30067 17.6256 8.83192C17.3747 8.36317 17.2492 7.81307 17.2492 7.18164C17.2492 6.55296 17.3747 6.00563 17.6256 5.53964C17.8793 5.07364 18.2391 4.71519 18.7051 4.46427C19.1739 4.21335 19.724 4.08789 20.3554 4.08789C20.9841 4.08789 21.5314 4.21335 21.9974 4.46427C22.4634 4.71519 22.8219 5.07364 23.0728 5.53964C23.3237 6.00563 23.4491 6.55296 23.4491 7.18164C23.4491 7.81307 23.3237 8.36317 23.0728 8.83192C22.8219 9.30067 22.4634 9.66188 21.9974 9.91556C21.5314 10.1665 20.9841 10.2919 20.3554 10.2919ZM20.3554 9.23725C20.7359 9.23725 21.0668 9.15453 21.348 8.98909C21.6321 8.82089 21.8499 8.58238 22.0015 8.27355C22.1532 7.96473 22.229 7.60076 22.229 7.18164C22.229 6.76804 22.1532 6.4082 22.0015 6.10214C21.8499 5.79331 21.6321 5.55618 21.348 5.39074C21.0668 5.2253 20.7359 5.14258 20.3554 5.14258C19.9721 5.14258 19.6385 5.2253 19.3545 5.39074C19.0705 5.55618 18.8513 5.79331 18.6969 6.10214C18.5452 6.4082 18.4694 6.76804 18.4694 7.18164C18.4694 7.60076 18.5452 7.96473 18.6969 8.27355C18.8513 8.58238 19.0705 8.82089 19.3545 8.98909C19.6385 9.15453 19.9721 9.23725 20.3554 9.23725Z" fill="white"/>
<defs>
<linearGradient id="paint0_linear_3084_10338" x1="1" y1="2.08041" x2="27.1641" y2="2.19257" gradientUnits="userSpaceOnUse">
<stop stop-color="#6C69FF"/>
<stop offset="1" stop-color="#FF3737"/>
</linearGradient>
</defs>
</svg>
