<svg width="22" height="18" viewBox="0 0 22 18" fill="none" xmlns="http://www.w3.org/2000/svg">
<path d="M12 3.25C11.3096 3.25 10.75 3.80964 10.75 4.5V8.25H10.5C10.0858 8.25 9.75 8.58579 9.75 9C9.75 9.41421 10.0858 9.75 10.5 9.75H10.75V13.5C10.75 14.1904 11.3096 14.75 12 14.75H13C13.4142 14.75 13.75 14.4142 13.75 14C13.75 13.5858 13.4142 13.25 13 13.25H12.25V4.75H13C13.4142 4.75 13.75 4.41421 13.75 4C13.75 3.58579 13.4142 3.25 13 3.25H12Z" fill="#27292A"/>
<path fill-rule="evenodd" clip-rule="evenodd" d="M1.3292 6.25C0.733175 6.25 0.25 6.73317 0.25 7.3292V10.6708C0.25 11.2668 0.733175 11.75 1.3292 11.75H7.6708C8.26682 11.75 8.75 11.2668 8.75 10.6708V7.3292C8.75 6.73317 8.26682 6.25 7.6708 6.25H1.3292ZM1.75 10.25V7.75H7.25V10.25H1.75Z" fill="#27292A"/>
<path d="M19.5 4.25C19.9142 4.25 20.25 4.58579 20.25 5C20.25 5.41421 19.9142 5.75 19.5 5.75H15.5C15.0858 5.75 14.75 5.41421 14.75 5C14.75 4.58579 15.0858 4.25 15.5 4.25H19.5Z" fill="#27292A"/>
<path d="M20.25 9C20.25 8.58579 19.9142 8.25 19.5 8.25H15.5C15.0858 8.25 14.75 8.58579 14.75 9C14.75 9.41421 15.0858 9.75 15.5 9.75H19.5C19.9142 9.75 20.25 9.41421 20.25 9Z" fill="#27292A"/>
<path d="M19.5 12.25C19.9142 12.25 20.25 12.5858 20.25 13C20.25 13.4142 19.9142 13.75 19.5 13.75H15.5C15.0858 13.75 14.75 13.4142 14.75 13C14.75 12.5858 15.0858 12.25 15.5 12.25H19.5Z" fill="#27292A"/>
</svg>
