<svg width="22" height="18" viewBox="0 0 22 18" fill="none" xmlns="http://www.w3.org/2000/svg">
<path fill-rule="evenodd" clip-rule="evenodd" d="M8 3.25C8.69036 3.25 9.25 3.80964 9.25 4.5V8.25H11.25V6.79927C11.25 6.21978 11.7198 5.75 12.2993 5.75H19.7007C20.2802 5.75 20.75 6.21977 20.75 6.79927V11.2007C20.75 11.7802 20.2802 12.25 19.7007 12.25H12.2993C11.7198 12.25 11.25 11.7802 11.25 11.2007V9.75H9.25V13.5C9.25 14.1904 8.69036 14.75 8 14.75H4C3.58579 14.75 3.25 14.4142 3.25 14C3.25 13.5858 3.58579 13.25 4 13.25H7.75V9.75H4.00049C3.58628 9.75 3.25049 9.41421 3.25049 9C3.25049 8.58579 3.58628 8.25 4.00049 8.25H7.75V4.75H4C3.58579 4.75 3.25 4.41421 3.25 4C3.25 3.58579 3.58579 3.25 4 3.25H8ZM12.7505 9C12.7505 9.00915 12.7503 9.01825 12.75 9.02732V10.75H19.25V7.25H12.75V8.97268C12.7503 8.98175 12.7505 8.99085 12.7505 9Z" fill="#27292A"/>
</svg>
