<svg width="24" height="24" viewBox="0 0 24 24" fill="none" xmlns="http://www.w3.org/2000/svg">
<path d="M18.4342 18.4436C18.6699 18.2008 18.6556 17.858 18.4342 17.6367L6.33703 5.55373C6.12279 5.33235 5.75145 5.32521 5.53007 5.55373C5.31583 5.76797 5.31583 6.13931 5.53007 6.35355L17.6273 18.4436C17.8558 18.665 18.2057 18.6793 18.4342 18.4436ZM18.2985 16.2727C20.3838 14.873 21.712 12.9806 21.712 12.1379C21.712 10.6954 17.7844 6.02505 12 6.02505C10.786 6.02505 9.65055 6.225 8.62221 6.56778L10.5718 8.51733C11.0074 8.3388 11.493 8.23168 12 8.23168C14.1709 8.23168 15.9277 9.95986 15.9277 12.1451C15.9277 12.6449 15.8205 13.1377 15.6277 13.5733L18.2985 16.2727ZM12 18.2579C13.3068 18.2579 14.5208 18.0223 15.592 17.6295L13.6282 15.6728C13.1426 15.9156 12.5856 16.0442 12 16.0442C9.82193 16.0442 8.07948 14.266 8.07234 12.1451C8.07234 11.5452 8.20802 10.9882 8.44368 10.4883L5.87999 7.91033C3.65193 9.33857 2.28796 11.2953 2.28796 12.1379C2.28796 13.5876 6.28704 18.2579 12 18.2579ZM14.2709 12.2236C14.278 12.1522 14.2923 12.0737 14.2923 11.9951C14.2923 10.7454 13.2783 9.73134 12.0214 9.73134C11.9429 9.73134 11.8643 9.73848 11.7929 9.74562L14.2709 12.2236ZM11.9786 14.2803C12.0643 14.2803 12.1428 14.2731 12.2285 14.266L9.71482 11.7594C9.70768 11.8451 9.70053 11.9308 9.70053 12.0165C9.70053 13.2662 10.736 14.2803 11.9786 14.2803Z" fill="white"/>
</svg>
