<svg width="32" height="32" viewBox="0 0 32 32" fill="none" xmlns="http://www.w3.org/2000/svg">
<path fill-rule="evenodd" clip-rule="evenodd" d="M32 16C32 7.16344 24.8366 0 16 0C7.16344 0 0 7.16344 0 16C0 24.8366 7.16344 32 16 32C24.8366 32 32 24.8366 32 16ZM2.5 16C2.5 8.54416 8.54416 2.5 16 2.5C23.4558 2.5 29.5 8.54416 29.5 16C29.5 23.4558 23.4558 29.5 16 29.5C8.54416 29.5 2.5 23.4558 2.5 16Z" fill="white"/>
<path fill-rule="evenodd" clip-rule="evenodd" d="M12.5 9.93426C12.5 9.53491 12.9451 9.29672 13.2774 9.51823L22.376 15.584C22.6728 15.7819 22.6728 16.2181 22.376 16.416L13.2774 22.4818C12.9451 22.7033 12.5 22.4651 12.5 22.0657L12.5 9.93426Z" fill="white"/>
</svg>
