<?xml version="1.0" encoding="UTF-8"?>
<svg width="24px" height="24px" viewBox="0 0 24 24" version="1.1" xmlns="http://www.w3.org/2000/svg" xmlns:xlink="http://www.w3.org/1999/xlink">
    <!-- Generator: Sketch 56 (81588) - https://sketch.com -->
    <title>emotion_adore@16</title>
    <desc>Created with Sketch.</desc>
    <defs>
        <polygon id="path-1" points="0 0.000122508295 23.9999363 0.000122508295 23.9999363 24 0 24"></polygon>
    </defs>
    <g id="emotion_adore" stroke="none" stroke-width="1" fill="none" fill-rule="evenodd">
        <g id="Group-16">
            <g id="Group-3">
                <mask id="mask-2" fill="white">
                    <use xlink:href="#path-1"></use>
                </mask>
                <g id="Clip-2"></g>
                <path d="M1.8291,18.3652 C-1.6869,12.7482 0.0171,5.3442 5.6351,1.8292 C11.2521,-1.6858 18.6551,0.0172 22.1711,5.6352 C25.6861,11.2522 23.9821,18.6552 18.3651,22.1712 C12.7481,25.6862 5.3451,23.9822 1.8291,18.3652" id="Fill-1" fill="#F7C839" mask="url(#mask-2)"></path>
            </g>
            <path d="M12,18.2374 C15.372,18.1854 17.77,15.9714 17.619,17.5354 C17.509,18.6914 14.673,19.6914 12,19.6914 C9.72,19.6914 6.491,18.6914 6.381,17.5354 C6.23,15.9714 8.628,18.1854 12,18.2374 Z" id="Combined-Shape" fill="#4C4023"></path>
            <path d="M5.9736,7.5527 C5.9736,7.5527 4.8676,6.5347 3.7696,6.8687 C2.6716,7.2017 1.8456,8.4327 2.3546,10.1057 C2.9286,11.9957 5.4216,13.1587 7.8046,13.5787 L5.9736,7.5527 Z" id="Fill-8" fill="#E74643"></path>
            <path d="M5.9736,7.5527 C5.9736,7.5527 6.3276,6.0917 7.4256,5.7577 C8.5236,5.4247 9.8936,5.9877 10.4026,7.6607 C10.9766,9.5507 9.5516,11.9047 7.8046,13.5787 L5.9736,7.5527 Z" id="Fill-10" fill="#E74643"></path>
            <path d="M17.8799,7.5527 C17.8799,7.5527 18.9859,6.5347 20.0849,6.8687 C21.1829,7.2017 22.0079,8.4327 21.4999,10.1057 C20.9259,11.9957 18.4329,13.1587 16.0489,13.5787 L17.8799,7.5527 Z" id="Fill-12" fill="#E74643"></path>
            <path d="M17.8799,7.5527 C17.8799,7.5527 17.5259,6.0917 16.4289,5.7577 C15.3309,5.4247 13.9599,5.9877 13.4519,7.6607 C12.8779,9.5507 14.3019,11.9047 16.0489,13.5787 L17.8799,7.5527 Z" id="Fill-14" fill="#E74643"></path>
        </g>
    </g>
</svg>