<?xml version="1.0" encoding="UTF-8"?>
<svg width="24px" height="24px" viewBox="0 0 24 24" version="1.1" xmlns="http://www.w3.org/2000/svg" xmlns:xlink="http://www.w3.org/1999/xlink">
    <!-- Generator: Sketch 56 (81588) - https://sketch.com -->
    <title>emotion_devil@16</title>
    <desc>Created with Sketch.</desc>
    <defs>
        <polygon id="path-1" points="0.000343955217 -0.000156044783 23.999856 -0.000156044783 23.999856 24 0.000343955217 24"></polygon>
        <polygon id="path-3" points="0 0.742099112 7.1758 0.742099112 7.1758 6.6416 0 6.6416"></polygon>
        <polygon id="path-5" points="0.8242 0.742099112 8 0.742099112 8 6.6416 0.8242 6.6416"></polygon>
    </defs>
    <g id="emotion_devil" stroke="none" stroke-width="1" fill="none" fill-rule="evenodd">
        <g id="Group-20" transform="translate(0.000000, -1.000000)">
            <g id="Group-3" transform="translate(0.000000, 1.258000)">
                <mask id="mask-2" fill="white">
                    <use xlink:href="#path-1"></use>
                </mask>
                <g id="Clip-2"></g>
                <path d="M0.3086,9.3091 C1.7936,2.8521 8.2336,-1.1779 14.6906,0.3081 C21.1476,1.7941 25.1776,8.2331 23.6916,14.6911 C22.2056,21.1481 15.7666,25.1781 9.3096,23.6921 C2.8526,22.2051 -1.1774,15.7671 0.3086,9.3091" id="Fill-1" fill="#AE61D5" mask="url(#mask-2)"></path>
            </g>
            <g id="Group-6" transform="translate(0.000000, 0.258000)">
                <mask id="mask-4" fill="white">
                    <use xlink:href="#path-3"></use>
                </mask>
                <g id="Clip-5"></g>
                <path d="M2.0088,6.6416 C2.0088,6.6416 -0.0002,4.8696 -0.0002,1.4036 C-0.0002,-0.8964 2.2958,3.5536 7.1758,3.3796" id="Fill-4" fill="#AE61D5" mask="url(#mask-4)"></path>
            </g>
            <g id="Group-9" transform="translate(16.000000, 0.258000)">
                <mask id="mask-6" fill="white">
                    <use xlink:href="#path-5"></use>
                </mask>
                <g id="Clip-8"></g>
                <path d="M5.9912,6.6416 C5.9912,6.6416 8.0002,4.8696 8.0002,1.4036 C8.0002,-0.8964 5.7042,3.5536 0.8242,3.3796" id="Fill-7" fill="#AE61D5" mask="url(#mask-6)"></path>
            </g>
            <path d="M3.0566,8.404 L10.7716,11.547 C10.8876,11.594 10.9456,11.721 10.8976,11.836 C10.5486,12.67 9.0026,15.695 5.3056,14.452 C1.6206,13.214 2.4706,9.499 2.7586,8.541 C2.7966,8.414 2.9346,8.354 3.0566,8.404" id="Fill-10" fill="#FFFFFF"></path>
            <path d="M20.9434,8.404 L13.2284,11.547 C13.1124,11.594 13.0544,11.721 13.1024,11.836 C13.4514,12.67 14.9974,15.695 18.6944,14.452 C22.3794,13.214 21.5294,9.499 21.2414,8.541 C21.2034,8.414 21.0654,8.354 20.9434,8.404" id="Fill-12" fill="#FFFFFF"></path>
            <path d="M15.0342,12.2956 C15.0342,12.8126 15.4532,13.2316 15.9702,13.2316 C16.4862,13.2316 16.9052,12.8126 16.9052,12.2956 C16.9052,11.7786 16.4862,11.3596 15.9702,11.3596 C15.4532,11.3596 15.0342,11.7786 15.0342,12.2956" id="Fill-14" fill="#4C4023"></path>
            <path d="M7.1758,12.2956 C7.1758,12.8126 7.5948,13.2316 8.1118,13.2316 C8.6278,13.2316 9.0468,12.8126 9.0468,12.2956 C9.0468,11.7786 8.6278,11.3596 8.1118,11.3596 C7.5948,11.3596 7.1758,11.7786 7.1758,12.2956" id="Fill-16" fill="#4C4023"></path>
            <path d="M11.4199,20.9567 C9.3389,20.9567 7.7439,20.4587 7.6139,20.4167 C7.3319,20.3267 7.1769,20.0237 7.2679,19.7407 C7.3579,19.4567 7.8609,19.5017 8.1419,19.5917 C8.1999,19.6087 13.4889,21.0977 17.1539,17.7067 C17.3739,17.5047 17.9709,17.2447 18.3109,17.5957 C18.6169,17.9117 18.2869,18.3657 18.0689,18.5677 C16.0129,20.4687 13.4789,20.9567 11.4199,20.9567" id="Fill-18" fill="#4C4023"></path>
        </g>
    </g>
</svg>