<svg width="24" height="24" viewBox="0 0 24 24" fill="none" xmlns="http://www.w3.org/2000/svg">
<g clip-path="url(#clip0_219_1993)">
<mask id="mask0_219_1993" style="mask-type:alpha" maskUnits="userSpaceOnUse" x="0" y="0" width="24" height="24">
<path fill-rule="evenodd" clip-rule="evenodd" d="M1.52588e-05 0.00012207H23.9999V24H1.52588e-05V0.00012207Z" fill="white"/>
</mask>
<g mask="url(#mask0_219_1993)">
<path fill-rule="evenodd" clip-rule="evenodd" d="M1.82909 18.3651C-1.68591 12.7481 0.0170927 5.34408 5.63509 1.82908C11.2521 -1.68592 18.6551 0.0170774 22.1711 5.63508C25.6861 11.2521 23.9821 18.6551 18.3651 22.1711C12.7481 25.6861 5.34509 23.9821 1.82909 18.3651" fill="#F0C800"/>
</g>
<path fill-rule="evenodd" clip-rule="evenodd" d="M9.69443 19.1373C8.99618 18.8955 8.37326 18.5496 7.82568 18.0996C7.2781 17.6496 6.83621 17.1213 6.50002 16.5146L8.56554 14.4795C8.95458 15.1131 9.42458 15.6134 9.97216 15.9772C10.5197 16.3422 11.0808 16.5246 11.6565 16.5246C12.3885 16.5246 12.9574 16.3444 13.3611 15.9828C13.7659 15.6213 13.9705 15.103 13.9773 14.428C13.957 13.7407 13.6163 13.1978 12.9552 12.8026C12.2952 12.4075 11.4001 12.1959 10.2701 12.169L9.28403 12.159V10.5638L12.6325 7.48545H7.30171L7.34219 4.5H17.0593L17.0278 7.66007L13.8952 10.3388C14.6216 10.3522 15.2523 10.5325 15.7898 10.8806C16.3273 11.2287 16.7444 11.7291 17.0379 12.384C17.3325 13.0377 17.4865 13.8213 17.5 14.7347C17.5 15.731 17.2763 16.5862 16.8276 17.3015C16.379 18.0179 15.7336 18.5631 14.8914 18.9381C14.0492 19.3131 13.0463 19.5 11.8825 19.5C11.1224 19.5 10.3927 19.3791 9.69443 19.1373" fill="white"/>
</g>
<defs>
<clipPath id="clip0_219_1993">
<rect width="24" height="24" fill="white"/>
</clipPath>
</defs>
</svg>
