<?xml version="1.0" encoding="UTF-8"?>
<svg width="50px" height="50px" viewBox="0 0 50 50" version="1.1" xmlns="http://www.w3.org/2000/svg" xmlns:xlink="http://www.w3.org/1999/xlink">
    <title>Icons/Assets/Welcome/theme</title>
    <defs>
        <polygon id="path-1" points="41.2030281 24.0486351 20.6528527 24.0486351 20.6528527 39.3870346 0 39.3870346 0 -2.84217094e-14 39.2030281 -2.84217094e-14"></polygon>
    </defs>
    <g id="Icons/Assets/Welcome/theme" stroke="none" stroke-width="1" fill="none" fill-rule="evenodd">
        <g id="theme" transform="translate(3.796972, 1.451365)">
            <mask id="mask-2" fill="white">
                <use xlink:href="#path-1"></use>
            </mask>
            <g id="Mask"></g>
            <rect id="Rectangle" stroke="#EF3420" stroke-width="2" stroke-linejoin="round" mask="url(#mask-2)" x="4.20302806" y="5.54863513" width="31" height="31" rx="3"></rect>
            <path d="M15.8163093,30.937307 C16.9979499,29.7556664 18.2381843,26.9724633 19.1561531,25.8787133 L21.2362312,27.968557 C21.9979499,28.7400414 22.9159187,28.7400414 23.6581062,27.9978539 L24.9178718,26.7283226 C25.5135749,26.1228539 25.6307624,25.4392601 25.2694343,24.7947289 L29.4198249,20.6443383 C30.5038093,19.5603539 30.4842781,18.2615258 29.3709968,17.1482445 L21.7049812,9.47246326 C20.6795906,8.44707263 18.9022468,8.84746326 18.5409187,10.4392601 C17.7499031,13.8865258 17.6131843,14.6775414 16.5975593,16.2205101 C16.0116218,15.9666039 15.3866218,16.1130883 14.8397468,16.6501976 L13.5799812,17.9197289 C12.8377937,18.6619164 12.8280281,19.5701195 13.5995124,20.3416039 L15.6893562,22.421682 C14.6053718,23.3396508 11.8221687,24.5701195 10.6405281,25.7517601 C9.03896556,27.3533226 9.04873118,29.2673851 10.6795906,30.8884789 C12.3104499,32.5193383 14.2147468,32.5388695 15.8163093,30.937307 Z M24.2342781,23.6521508 L17.8182624,17.2361351 C18.9706062,15.5076195 19.1756843,14.2771508 19.9959968,11.249807 C20.1229499,10.7517601 20.5331062,10.624807 20.8651374,10.9470726 L25.4159187,15.4880883 C25.1815437,17.109182 24.3124031,18.3005883 23.2674812,19.3455101 C23.1405281,19.4724633 23.1502937,19.6287133 23.2381843,19.7166039 C23.7362312,20.2146508 26.4022468,18.7595726 27.4764656,17.5486351 L28.1795906,18.2517601 C28.6288093,18.7009789 28.6288093,19.2478539 28.2088874,19.6677758 L24.2342781,23.6521508 Z M11.7147468,29.8533226 C10.7577156,28.8865258 10.7479499,27.7439476 11.6952156,26.8064476 C13.2479499,25.2634789 16.4608406,23.9255883 17.2127937,23.1638695 C17.6034187,22.7439476 17.6522468,22.2751976 17.2909187,21.9236351 L14.9374031,19.5798851 C14.6834968,19.3259789 14.6834968,19.0427758 14.9374031,18.7888695 L15.7284187,18.0173851 C15.9823249,17.7634789 16.2557624,17.7537133 16.5096687,18.0076195 L23.5702156,25.0584008 C23.8143562,25.312307 23.8143562,25.5857445 23.5506843,25.8494164 L22.7889656,26.6209008 C22.5350593,26.8943383 22.2420906,26.9041039 21.9881843,26.6306664 L19.6541999,24.2869164 C19.2928718,23.9255883 18.8241218,23.9646508 18.4139656,24.3650414 C17.6522468,25.1169945 16.3143562,28.3298851 14.7616218,29.8728539 C13.8241218,30.8201195 12.6913093,30.8201195 11.7147468,29.8533226 Z" id="format" fill="#EF3420" fill-rule="nonzero" mask="url(#mask-2)"></path>
        </g>
        <g id="add" transform="translate(23.500000, 25.000000)" stroke="#EF3420" stroke-linejoin="round" stroke-width="2">
            <rect id="bg" x="0.5" y="0" width="19" height="19" rx="2"></rect>
            <line x1="15" y1="9.5" x2="5" y2="9.5" id="Path-2" stroke-linecap="round"></line>
            <line x1="10" y1="4.5" x2="10" y2="14.5" id="Path-2" stroke-linecap="round"></line>
        </g>
    </g>
</svg>