<svg xmlns="http://www.w3.org/2000/svg" viewBox="0 0 50 50" width="50" height="50"><g class="uk-icon-alternate-dark" version="1.1"><g stroke="#F4202C" stroke-width="3" fill="none" fill-rule="evenodd" stroke-linecap="round"><g stroke-linejoin="round"><path d="M20 12h-9a2 2 0 0 0-2 2v6.5h0M30 12h9a2 2 0 0 1 2 2v6.5h0"/></g><g stroke-linejoin="round"><path d="M20 38h-9a2 2 0 0 1-2-2v-6.5h0M30 38h9a2 2 0 0 0 2-2v-6.5h0"/></g><path d="M20 25h10M25 20v10"/></g></g><g class="uk-icon-alternate-default" version="1.1"><g stroke="#F4202C" stroke-width="3" fill="none" fill-rule="evenodd" stroke-linecap="round"><g stroke-linejoin="round"><path d="M20 12h-9a2 2 0 0 0-2 2v6.5h0M30 12h9a2 2 0 0 1 2 2v6.5h0"/></g><g stroke-linejoin="round"><path d="M20 38h-9a2 2 0 0 1-2-2v-6.5h0M30 38h9a2 2 0 0 0 2-2v-6.5h0"/></g><path d="M20 25h10M25 20v10"/></g></g></svg>