<svg width="16" height="16" viewBox="0 0 16 16" fill="none" xmlns="http://www.w3.org/2000/svg">
<path fill-rule="evenodd" clip-rule="evenodd" d="M3.78182 6.06795C3.75694 5.88194 3.74411 5.69233 3.74411 5.5C3.74411 3.15279 5.6469 1.25 7.99411 1.25C10.3413 1.25 12.2441 3.15279 12.2441 5.5C12.2441 5.6924 12.2313 5.88207 12.2064 6.06813C12.3799 6.13959 12.5506 6.2233 12.7172 6.31949C14.7499 7.49309 15.4464 10.0924 14.2728 12.1251C13.0992 14.1578 10.4999 14.8543 8.46719 13.6807C8.30055 13.5845 8.14269 13.4785 7.99399 13.3639C7.84535 13.4785 7.68758 13.5844 7.52103 13.6805C5.48829 14.8541 2.88903 14.1576 1.71543 12.1249C0.541821 10.0922 1.23829 7.4929 3.27103 6.3193C3.43763 6.22311 3.60827 6.13941 3.78182 6.06795ZM5.24411 5.5C5.24411 3.98122 6.47533 2.75 7.99411 2.75C9.5129 2.75 10.7441 3.98122 10.7441 5.5C10.7441 5.6715 10.7285 5.83885 10.6987 6.00087C9.71833 5.9756 8.74969 6.31217 7.99421 6.95717C7.23868 6.31206 6.26995 5.97544 5.28946 6.00072C5.25971 5.83875 5.24411 5.67145 5.24411 5.5ZM6.77103 12.3815C5.45573 13.1409 3.77386 12.6902 3.01446 11.3749C2.25507 10.0596 2.70573 8.37772 4.02103 7.61833C4.16951 7.53261 4.32221 7.46246 4.47738 7.40723C4.94572 8.26903 5.72158 8.93966 6.658 9.27143C6.47711 10.2482 6.66992 11.2554 7.182 12.0918C7.05661 12.1986 6.91952 12.2957 6.77103 12.3815ZM7.99412 9.5C7.87345 9.5 7.75402 9.49466 7.63608 9.4842C7.51458 10.1808 7.64534 10.8963 7.99408 11.5013C8.34284 10.8964 8.47365 10.1808 8.35218 9.4842C8.23423 9.49466 8.1148 9.5 7.99412 9.5ZM11.5108 7.40739C11.0424 8.2691 10.2666 8.93967 9.33027 9.27142C9.51113 10.2482 9.31828 11.2554 8.8061 12.0919C8.93154 12.1987 9.06867 12.2959 9.21719 12.3817C10.5325 13.1411 12.2144 12.6904 12.9738 11.3751C13.7332 10.0598 13.2825 8.37792 11.9672 7.61853C11.8187 7.53279 11.666 7.46263 11.5108 7.40739ZM9.02551 8.31799C9.68946 8.07492 10.2438 7.60389 10.5933 6.99944C9.89503 6.99988 9.20997 7.2444 8.66749 7.69784C8.7355 7.79473 8.79982 7.89545 8.86014 7.99993C8.92049 8.10446 8.97559 8.21058 9.02551 8.31799ZM5.3949 6.99929C5.74439 7.60383 6.29876 8.07492 6.96279 8.31801C7.01269 8.21065 7.06777 8.10457 7.1281 8.00008C7.18846 7.89553 7.25282 7.79475 7.32088 7.6978C6.77837 7.24427 6.09321 6.99971 5.3949 6.99929Z" fill="#27292A"/>
</svg>
