<svg width="16" height="16" viewBox="0 0 16 16" fill="none" xmlns="http://www.w3.org/2000/svg">
<path fill-rule="evenodd" clip-rule="evenodd" d="M8.00772 1.30005C11.0258 1.30005 13.5783 3.29333 14.4207 6.03525C14.7475 7.09912 14.2634 8.19901 13.4764 8.98597L8.06033 14.402C7.86359 14.5988 7.59298 14.7085 7.3162 14.6802C3.93655 14.334 1.30005 11.4788 1.30005 8.00772C1.30005 7.45453 1.36701 6.91698 1.49328 6.40274C1.80785 6.44429 2.05994 6.49199 2.25156 6.5439C2.41232 6.58745 2.50697 6.63765 2.55149 6.68192C2.59932 6.72948 2.65406 6.82965 2.70287 6.99679L2.76002 7.21329C2.7201 7.47384 2.70005 7.73844 2.70005 8.00772C2.70005 10.4261 4.31836 12.4679 6.53052 13.1074C6.15471 11.8941 5.91545 10.5593 6.20146 9.41778C6.37975 8.70616 6.76406 8.06213 7.43123 7.59313C8.08565 7.1331 8.95413 6.88207 10.0368 6.83281C11.015 6.7883 11.8711 6.65432 12.3668 6.3766C12.5948 6.24882 12.6793 6.12795 12.7108 6.03044C12.7431 5.93042 12.7626 5.72198 12.5892 5.33336L12.5929 5.33174C11.6716 3.75676 9.96182 2.70005 8.00772 2.70005C7.16991 2.70005 6.37744 2.89417 5.67283 3.23988C5.65322 3.18456 5.63362 3.11825 5.61519 3.04391C5.57826 2.89495 5.54152 2.72051 5.50525 2.52123L5.43341 2.08969C5.42109 2.00366 5.40125 1.91913 5.37331 1.83726C6.1807 1.49172 7.07183 1.30005 8.00772 1.30005ZM12.6892 7.77159C12.0132 8.04914 11.183 8.16365 10.4218 8.21361L10.1004 8.23136C9.18833 8.27287 8.60579 8.47876 8.23635 8.73846C7.87968 8.98919 7.6673 9.32768 7.55948 9.75803C7.36793 10.5226 7.51651 11.5365 7.84964 12.6328L12.4865 7.99602C12.5613 7.92117 12.6288 7.84621 12.6892 7.77159ZM4.1806 2C4.25737 2 4.31789 2.01977 4.36195 2.05954C4.40565 2.09898 4.43299 2.15786 4.44421 2.23623L4.52241 2.70557C4.56212 2.92334 4.60279 3.11598 4.64457 3.28452C4.71435 3.56603 4.80561 3.79752 4.91835 3.97895C5.03108 4.16037 5.17822 4.30512 5.35976 4.41321C5.54133 4.52132 5.77465 4.60795 6.0597 4.67313C6.34476 4.73832 6.69544 4.79727 7.11173 4.85001C7.19519 4.8605 7.25761 4.88712 7.29928 4.93007C7.34103 4.97311 7.36179 5.03244 7.36179 5.10781C7.36179 5.17433 7.33923 5.23189 7.29409 5.28049C7.24963 5.32836 7.19012 5.3565 7.11538 5.36521C6.69161 5.42252 6.34396 5.48314 6.06322 5.54824C5.78132 5.61361 5.55127 5.70055 5.37311 5.80905C5.19496 5.91757 5.05143 6.0626 4.94248 6.2442C4.83352 6.42585 4.74171 6.65733 4.66701 6.93866C4.63713 7.05123 4.60733 7.17449 4.57762 7.30846L4.48874 7.74244L4.4445 7.98349C4.42991 8.05837 4.40079 8.11511 4.35657 8.15298C4.31251 8.19072 4.25381 8.20949 4.1806 8.20949C4.10424 8.20949 4.04405 8.19022 4.00021 8.15146C3.95649 8.11282 3.92919 8.05497 3.91809 7.97804L3.83833 7.48961C3.78338 7.1867 3.72489 6.92913 3.66277 6.71644C3.56951 6.39713 3.43408 6.14931 3.25659 5.97282C3.07912 5.79634 2.83134 5.66493 2.51306 5.5787C2.24788 5.50685 1.9113 5.44556 1.50022 5.3944L1.2446 5.36493C1.1669 5.35481 1.1043 5.32796 1.06254 5.28493C1.02077 5.24188 1 5.18278 1 5.10781C1 5.04084 1.02351 4.98326 1.07053 4.9351C1.11735 4.88713 1.17688 4.85884 1.2491 4.85013C1.67196 4.79672 2.02189 4.73662 2.30173 4.66948C2.58191 4.60227 2.81114 4.51452 2.98933 4.40622C3.1675 4.29794 3.31116 4.15401 3.4203 3.97442C3.52945 3.79479 3.62135 3.56339 3.69601 3.28026L3.78528 2.90878L3.82967 2.69928L3.91799 2.23271C3.93235 2.15545 3.96133 2.0971 4.00527 2.05816C4.04909 2.01933 4.1076 2 4.1806 2Z" fill="#27292A"/>
</svg>
