<?xml version="1.0" encoding="UTF-8"?>
<svg width="75px" height="40px" viewBox="0 0 75 40" version="1.1" xmlns="http://www.w3.org/2000/svg" xmlns:xlink="http://www.w3.org/1999/xlink">
    <!-- Generator: Sketch 56 (81588) - https://sketch.com -->
    <title>shape-focus</title>
    <desc>Created with Sketch.</desc>
    <g id="shape-focus" stroke="none" stroke-width="1" fill="none" fill-rule="evenodd">
        <g id="9" transform="translate(21.000000, 9.000000)" stroke="#000000" stroke-width="2">
            <g id="8">
                <polyline id="Path-Copy-2" transform="translate(28.999999, 18.000000) rotate(-180.000000) translate(-28.999999, -18.000000) " points="24.9999988 22 24.9999988 14 32.9999988 14"></polyline>
                <polyline id="Path-Copy-2-Copy" transform="translate(4.000000, 18.000000) scale(-1, 1) rotate(-180.000000) translate(-4.000000, -18.000000) " points="-5.99999887e-07 22 -5.99999887e-07 14 7.9999994 14"></polyline>
                <polyline id="Path-Copy" transform="translate(29.000000, 4.000000) rotate(90.000000) translate(-29.000000, -4.000000) " points="25 8 25 -1.41716057e-12 33 -1.17753849e-12"></polyline>
                <polyline id="Path-Copy-Copy" transform="translate(4.000001, 4.000000) scale(-1, 1) rotate(90.000000) translate(-4.000001, -4.000000) " points="6.00000249e-07 8 5.99999794e-07 -1.41716057e-12 8.0000006 -1.17753849e-12"></polyline>
            </g>
        </g>
    </g>
</svg>