<svg width="18" height="18" viewBox="0 0 18 18" fill="none" xmlns="http://www.w3.org/2000/svg">
<path d="M3.12557 4.60518C2.72936 4.60518 2.26077 4.69134 1.87873 5.00217C1.46923 5.33535 1.27957 5.82692 1.27957 6.38139V8.21878C1.26273 8.22496 1.24218 8.23172 1.21739 8.23869C1.05018 8.28569 0.837619 8.3039 0.625578 8.31024C0.539887 8.30825 0.463503 8.30804 0.400208 8.30804L0.400085 9.81325C0.463448 9.81325 0.539908 9.81304 0.625676 9.81105C0.838129 9.81738 1.05161 9.8356 1.21969 9.88274C1.24503 9.88984 1.26599 9.89674 1.28311 9.90303V11.7399C1.28311 12.2944 1.47277 12.7859 1.88227 13.1191C2.26431 13.43 2.7329 13.5161 3.12911 13.5161H3.73478L3.73489 12.0161H3.12911C2.92398 12.0161 2.84457 11.9683 2.82894 11.9556C2.8249 11.9523 2.8187 11.9472 2.81047 11.9278C2.80079 11.9049 2.78311 11.8485 2.78311 11.7399V9.79096C2.78311 9.50995 2.70088 9.26244 2.56221 9.05823C2.69883 8.8548 2.77957 8.60894 2.77957 8.33033V6.38139C2.77957 6.27281 2.79725 6.21639 2.80693 6.19352C2.81516 6.17407 2.82136 6.169 2.8254 6.16571C2.84103 6.153 2.92044 6.10518 3.12557 6.10518H3.73498L3.73487 4.60518H3.12557Z" fill="#27292A"/>
<path d="M16.1213 5.00217C15.7392 4.69134 15.2706 4.60518 14.8744 4.60518H14.2651L14.265 6.10518H14.8744C15.0796 6.10518 15.159 6.153 15.1746 6.16571C15.1786 6.169 15.1848 6.17407 15.1931 6.19352C15.2028 6.21639 15.2204 6.27281 15.2204 6.38139V8.33033C15.2204 8.60894 15.3012 8.85481 15.4378 9.05824C15.2991 9.26244 15.2169 9.50995 15.2169 9.79096V11.7399C15.2169 11.8485 15.1992 11.9049 15.1895 11.9278C15.1813 11.9472 15.1751 11.9523 15.1711 11.9556C15.1554 11.9683 15.076 12.0161 14.8709 12.0161H14.2651L14.2652 13.5161H14.8709C15.2671 13.5161 15.7357 13.43 16.1177 13.1191C16.5272 12.7859 16.7169 12.2944 16.7169 11.7399V9.90303C16.734 9.89674 16.755 9.88984 16.7803 9.88274C16.9484 9.8356 17.1619 9.81738 17.3743 9.81105C17.4601 9.81304 17.5366 9.81325 17.5999 9.81325V8.31325C17.5999 8.31325 17.6 8.31325 17.5999 8.31325L17.5998 8.30804C17.5365 8.30804 17.4601 8.30825 17.3744 8.31024C17.1624 8.3039 16.9498 8.28569 16.7826 8.23869C16.7578 8.23172 16.7373 8.22496 16.7204 8.21878V6.38139C16.7204 5.82692 16.5308 5.33535 16.1213 5.00217Z" fill="#27292A"/>
</svg>
