<?xml version="1.0" encoding="UTF-8"?>
<svg width="24px" height="24px" viewBox="0 0 24 24" version="1.1" xmlns="http://www.w3.org/2000/svg" xmlns:xlink="http://www.w3.org/1999/xlink">
    <!-- Generator: Sketch 56 (81588) - https://sketch.com -->
    <title>month_jun@16</title>
    <desc>Created with Sketch.</desc>
    <defs>
        <polygon id="path-1" points="0 0.0001 24 0.0001 24 24 0 24"></polygon>
    </defs>
    <g id="month_jun" stroke="none" stroke-width="1" fill="none" fill-rule="evenodd">
        <g id="Group-8">
            <g id="Group-3">
                <mask id="mask-2" fill="white">
                    <use xlink:href="#path-1"></use>
                </mask>
                <g id="Clip-2"></g>
                <path d="M24,12.0001 C24,18.6271 18.627,24.0001 12,24.0001 C5.373,24.0001 0,18.6271 0,12.0001 C0,5.3721 5.373,0.0001 12,0.0001 C18.627,0.0001 24,5.3721 24,12.0001" id="Fill-1" fill="#297DF8" mask="url(#mask-2)"></path>
            </g>
            <path d="M10.2656,5.8389 L10.2656,14.0579 C10.2546,15.1649 9.9796,16.0069 9.4386,16.5809 C8.8976,17.1559 8.1056,17.4429 7.0616,17.4429 C6.6026,17.4429 6.1716,17.3599 5.7676,17.1939 C5.3646,17.0279 5.0096,16.7899 4.7036,16.4789 L5.2736,14.7699 C5.5216,14.9709 5.7896,15.1259 6.0796,15.2359 C6.3696,15.3479 6.6606,15.4019 6.9506,15.4019 C7.5736,15.3869 7.8836,14.9229 7.8836,14.0109 L7.8836,5.8389 L10.2656,5.8389 Z" id="Fill-4" fill="#FFFFFF"></path>
            <path d="M18.4414,9.1846 C18.9024,9.7336 19.1324,10.5356 19.1324,11.5896 L19.1324,17.2536 L16.8384,17.2536 L16.8384,11.8826 C16.8384,11.3716 16.7354,10.9836 16.5264,10.7196 C16.3184,10.4556 16.0164,10.3246 15.6214,10.3246 C15.2614,10.3186 14.9764,10.4416 14.7624,10.6916 C14.5484,10.9426 14.4264,11.2966 14.3944,11.7556 L14.3944,17.2536 L12.1004,17.2536 L12.1004,8.5516 L14.3944,8.5516 L14.3944,9.4616 L14.4734,9.4616 C14.6694,9.1036 14.9324,8.8306 15.2644,8.6426 C15.5964,8.4556 15.9794,8.3626 16.4124,8.3626 C17.3024,8.3626 17.9794,8.6366 18.4414,9.1846" id="Fill-6" fill="#FFFFFF"></path>
        </g>
    </g>
</svg>