<?xml version="1.0" encoding="UTF-8"?>
<svg width="24px" height="24px" viewBox="0 0 24 24" version="1.1" xmlns="http://www.w3.org/2000/svg" xmlns:xlink="http://www.w3.org/1999/xlink">
    <!-- Generator: Sketch 56 (81588) - https://sketch.com -->
    <title>month_apr@16</title>
    <desc>Created with Sketch.</desc>
    <defs>
        <polygon id="path-1" points="0 0.0001 24 0.0001 24 24 0 24"></polygon>
    </defs>
    <g id="month_apr" stroke="none" stroke-width="1" fill="none" fill-rule="evenodd">
        <g id="Group-8">
            <g id="Group-3">
                <mask id="mask-2" fill="white">
                    <use xlink:href="#path-1"></use>
                </mask>
                <g id="Clip-2"></g>
                <path d="M24,12.0001 C24,18.6271 18.627,24.0001 12,24.0001 C5.373,24.0001 0,18.6271 0,12.0001 C0,5.3721 5.373,0.0001 12,0.0001 C18.627,0.0001 24,5.3721 24,12.0001" id="Fill-1" fill="#297DF8" mask="url(#mask-2)"></path>
            </g>
            <path d="M6.8984,12.3399 L9.1894,12.3399 L8.0814,8.9039 L8.0064,8.9039 L6.8984,12.3399 Z M10.5064,16.4269 L9.7804,14.1659 L6.3074,14.1659 L5.5814,16.4269 L3.2154,16.4269 L7.1384,5.6259 L8.9494,5.6259 L12.9164,16.4269 L10.5064,16.4269 Z" id="Fill-4" fill="#FFFFFF"></path>
            <path d="M18.3652,14.6866 C18.5902,14.4796 18.7652,14.1836 18.8922,13.7996 C19.0212,13.4156 19.0842,12.9686 19.0842,12.4596 C19.0842,11.9156 19.0192,11.4396 18.8902,11.0306 C18.7602,10.6216 18.5782,10.3046 18.3472,10.0826 C18.1152,9.8616 17.8532,9.7496 17.5642,9.7496 C17.1112,9.7496 16.7652,9.9326 16.5312,10.2966 C16.2972,10.6616 16.1792,11.1626 16.1792,11.8006 L16.1792,12.9836 C16.1792,13.5826 16.2932,14.0676 16.5172,14.4396 C16.7422,14.8116 17.1052,14.9976 17.6092,14.9976 C17.8882,14.9976 18.1402,14.8936 18.3652,14.6866 M19.7952,8.5596 C20.2632,8.9186 20.6252,9.4336 20.8772,10.1016 C21.1292,10.7706 21.2562,11.5566 21.2562,12.4596 C21.2562,13.3026 21.1312,14.0366 20.8852,14.6606 C20.6362,15.2846 20.2812,15.7646 19.8142,16.1016 C19.3472,16.4376 18.7972,16.6066 18.1642,16.6066 C17.7402,16.6066 17.3712,16.5226 17.0602,16.3556 C16.7482,16.1886 16.4922,15.9556 16.2932,15.6566 L16.1792,15.6566 L16.1792,19.1736 L14.0102,19.1736 L14.0102,8.1936 L16.1792,8.1936 L16.1792,9.0166 L16.2692,9.0166 C16.4742,8.6976 16.7342,8.4516 17.0492,8.2796 C17.3632,8.1076 17.7222,8.0206 18.1272,8.0206 C18.7692,8.0206 19.3262,8.2006 19.7952,8.5596" id="Fill-6" fill="#FFFFFF"></path>
        </g>
    </g>
</svg>