<?xml version="1.0" encoding="UTF-8"?>
<svg width="24px" height="24px" viewBox="0 0 24 24" version="1.1" xmlns="http://www.w3.org/2000/svg" xmlns:xlink="http://www.w3.org/1999/xlink">
    <!-- Generator: Sketch 56 (81588) - https://sketch.com -->
    <title>month_dec@16</title>
    <desc>Created with Sketch.</desc>
    <g id="month_dec" stroke="none" stroke-width="1" fill="none" fill-rule="evenodd">
        <g id="Group-7">
            <path d="M24,12 C24,18.627 18.627,24 12,24 C5.373,24 0,18.627 0,12 C0,5.373 5.373,0 12,0 C18.627,0 24,5.373 24,12" id="Fill-1" fill="#297DF8"></path>
            <path d="M9.4687,14.2598 C9.8887,13.6238 10.0977,12.6898 10.0977,11.4548 C10.0977,10.2798 9.8827,9.3898 9.4527,8.7848 C9.0237,8.1818 8.3887,7.8798 7.5507,7.8798 L6.5617,7.8798 L6.5617,15.2128 L7.6147,15.2128 C8.4317,15.2128 9.0497,14.8958 9.4687,14.2598 M11.2877,7.2628 C12.1347,8.2118 12.5587,9.6098 12.5587,11.4548 C12.5587,13.3638 12.1397,14.8088 11.3047,15.7858 C10.4687,16.7648 9.2387,17.2538 7.6147,17.2538 L4.1167,17.2538 L4.1097,5.8388 L7.5507,5.8388 C9.1967,5.8388 10.4427,6.3138 11.2877,7.2628" id="Fill-3" fill="#FFFFFF"></path>
            <path d="M18.3252,10.8301 C18.0982,10.5291 17.7822,10.3791 17.3762,10.3791 C16.9742,10.3791 16.6642,10.5311 16.4422,10.8341 C16.2212,11.1381 16.1102,11.5581 16.1102,12.0961 L18.6652,12.0961 C18.6652,11.5531 18.5522,11.1311 18.3252,10.8301 M14.8522,16.2811 C14.1822,15.5061 13.8452,14.3931 13.8402,12.9421 C13.8402,11.9721 13.9762,11.1421 14.2512,10.4541 C14.5252,9.7671 14.9252,9.2441 15.4492,8.8881 C15.9742,8.5321 16.6052,8.3591 17.3442,8.3701 C18.1032,8.3861 18.7512,8.5621 19.2862,8.9001 C19.8212,9.2371 20.2272,9.7191 20.5052,10.3441 C20.7812,10.9691 20.9202,11.7221 20.9202,12.6021 C20.9202,12.9191 20.9062,13.2671 20.8802,13.6461 L16.1102,13.6461 C16.1312,14.2321 16.3142,14.6821 16.6602,14.9951 C17.0052,15.3091 17.4472,15.4661 17.9842,15.4661 C18.3862,15.4661 18.7622,15.4161 19.1162,15.3151 C19.4702,15.2161 19.8202,15.0551 20.1682,14.8331 L20.4842,16.5901 C20.0682,16.8851 19.6362,17.1011 19.1872,17.2381 C18.7392,17.3751 18.2622,17.4431 17.7562,17.4431 C16.4892,17.4431 15.5212,17.0561 14.8522,16.2811" id="Fill-5" fill="#FFFFFF"></path>
        </g>
    </g>
</svg>