<?xml version="1.0" encoding="UTF-8"?>
<svg width="24px" height="24px" viewBox="0 0 24 24" version="1.1" xmlns="http://www.w3.org/2000/svg" xmlns:xlink="http://www.w3.org/1999/xlink">
    <!-- Generator: Sketch 56 (81588) - https://sketch.com -->
    <title>month_jan@16</title>
    <desc>Created with Sketch.</desc>
    <defs>
        <polygon id="path-1" points="0 0.0001 24 0.0001 24 24 0 24"></polygon>
    </defs>
    <g id="month_jan" stroke="none" stroke-width="1" fill="none" fill-rule="evenodd">
        <g id="Group-8">
            <g id="Group-3">
                <mask id="mask-2" fill="white">
                    <use xlink:href="#path-1"></use>
                </mask>
                <g id="Clip-2"></g>
                <path d="M24,12.0001 C24,18.6271 18.627,24.0001 12,24.0001 C5.373,24.0001 0,18.6271 0,12.0001 C0,5.3721 5.373,0.0001 12,0.0001 C18.627,0.0001 24,5.3721 24,12.0001" id="Fill-1" fill="#297DF8" mask="url(#mask-2)"></path>
            </g>
            <path d="M10.5474,5.8399 L10.5474,14.0589 C10.5364,15.1659 10.2614,16.0079 9.7204,16.5819 C9.1794,17.1569 8.3874,17.4439 7.3434,17.4439 C6.8844,17.4439 6.4534,17.3609 6.0494,17.1949 C5.6464,17.0289 5.2914,16.7909 4.9854,16.4799 L5.5554,14.7709 C5.8034,14.9719 6.0724,15.1269 6.3624,15.2369 C6.6524,15.3489 6.9424,15.4029 7.2324,15.4029 C7.8554,15.3879 8.1664,14.9239 8.1664,14.0119 L8.1664,5.8399 L10.5474,5.8399 Z" id="Fill-4" fill="#FFFFFF"></path>
            <path d="M16.2036,15.4122 C16.4616,15.1902 16.6306,14.9192 16.7096,14.5972 L16.7096,13.1092 C16.2196,13.1362 15.7976,13.1832 15.4436,13.2522 C15.1066,13.3312 14.8316,13.4902 14.6206,13.7302 C14.4106,13.9712 14.3046,14.2672 14.3046,14.6202 C14.3046,14.9692 14.3906,15.2432 14.5616,15.4432 C14.7336,15.6432 14.9726,15.7442 15.2776,15.7442 C15.6366,15.7442 15.9446,15.6332 16.2036,15.4122 L16.2036,15.4122 Z M19.0036,17.2552 L16.7096,17.2552 L16.7096,16.2032 L16.6386,16.2032 C16.4746,16.5882 16.2086,16.8912 15.8396,17.1122 C15.4706,17.3342 15.0246,17.4442 14.5026,17.4442 C13.7166,17.4442 13.1116,17.2202 12.6866,16.7682 C12.2626,16.3172 12.0506,15.6762 12.0506,14.8422 C12.0506,14.0402 12.3196,13.3732 12.8566,12.8412 C13.3946,12.3082 14.1646,11.9442 15.1666,11.7492 C15.6046,11.6702 16.0976,11.6032 16.6466,11.5512 C16.5826,11.0762 16.4396,10.7292 16.2156,10.5112 C15.9916,10.2922 15.6496,10.1832 15.1906,10.1832 C14.5736,10.1832 13.9116,10.3462 13.2046,10.6732 L12.8886,9.0042 C13.3266,8.8042 13.7826,8.6472 14.2576,8.5372 C14.7316,8.4272 15.1666,8.3712 15.5626,8.3712 C16.4166,8.3712 17.0946,8.5222 17.5956,8.8262 C18.0966,9.1292 18.4556,9.5842 18.6716,10.1902 C18.8876,10.7972 18.9986,11.5832 19.0036,12.5482 L19.0036,17.2552 Z" id="Fill-6" fill="#FFFFFF"></path>
        </g>
    </g>
</svg>