<svg width="40" height="40" viewBox="0 0 40 40" fill="none" xmlns="http://www.w3.org/2000/svg">
<path fill-rule="evenodd" clip-rule="evenodd" d="M3.99348 9.61597C4.03522 9.25549 3.87862 8.88492 3.55633 8.66914C3.0974 8.36189 2.47629 8.48485 2.16904 8.94378L1.84518 9.42752C1.29416 10.2505 1 11.2187 1 12.2091V25.7487C1 28.5101 3.23858 30.7487 6 30.7487H34.6506L35.1995 30.5795C37.2965 29.9334 38.7273 27.9955 38.7273 25.8012V13.0001C38.7273 11.1311 37.2121 9.61595 35.3431 9.61595H4C3.99782 9.61595 3.99565 9.61596 3.99348 9.61597ZM3.17932 11.1875C3.0613 11.5133 3 11.8589 3 12.2091V25.7487C3 27.4055 4.34315 28.7487 6 28.7487H34.3494L34.6106 28.6682C35.8688 28.2805 36.7273 27.1178 36.7273 25.8012V13.0001C36.7273 12.2357 36.1076 11.616 35.3431 11.616H4C3.66023 11.616 3.36004 11.4465 3.17932 11.1875Z" fill="black"/>
</svg>
