<svg width="20" height="20" viewBox="0 0 20 20" fill="none" xmlns="http://www.w3.org/2000/svg">
<path d="M10 5.25C10.4142 5.25 10.75 5.58579 10.75 6V9.57535L12.8859 10.8569C13.2411 11.07 13.3562 11.5307 13.1431 11.8859C12.93 12.241 12.4693 12.3562 12.1141 12.1431L9.62624 10.6504C9.60075 10.6357 9.57621 10.6196 9.55272 10.6021C9.46702 10.5386 9.39827 10.4594 9.34807 10.3711C9.29644 10.2805 9.26312 10.1782 9.25315 10.0691C9.25058 10.0416 9.24952 10.0139 9.25 9.98619V6C9.25 5.58579 9.58579 5.25 10 5.25Z" fill="#27292A"/>
<path fill-rule="evenodd" clip-rule="evenodd" d="M4.50324 4.53666C5.90617 3.12519 7.85158 2.25 10 2.25C14.2802 2.25 17.75 5.71979 17.75 10C17.75 14.2802 14.2802 17.75 10 17.75C5.71979 17.75 2.25 14.2802 2.25 10C2.25 8.92202 2.47052 7.89361 2.86962 6.95892C3.25849 6.04822 3.8163 5.22777 4.50324 4.53666ZM10 3.75C8.26706 3.75 6.70002 4.45429 5.56711 5.5941C5.01217 6.15241 4.56233 6.81447 4.24913 7.54796C3.92808 8.29986 3.75 9.12816 3.75 10C3.75 13.4518 6.54822 16.25 10 16.25C13.4518 16.25 16.25 13.4518 16.25 10C16.25 6.54822 13.4518 3.75 10 3.75Z" fill="#27292A"/>
</svg>
