<svg width="20" height="20" viewBox="0 0 20 20" fill="none" xmlns="http://www.w3.org/2000/svg">
<path fill-rule="evenodd" clip-rule="evenodd" d="M3.5 5C3.5 3.89543 4.39543 3 5.5 3H8.5C9.05228 3 9.5 3.44772 9.5 4V10C9.5 10.5523 9.05228 11 8.5 11H4.5C3.94772 11 3.5 10.5523 3.5 10V5ZM5.5 4.5H8V9.5H5V5C5 4.72386 5.22386 4.5 5.5 4.5Z" fill="#27292A"/>
<path fill-rule="evenodd" clip-rule="evenodd" d="M10.5 10C10.5 9.44772 10.9477 9 11.5 9H15.5C16.0523 9 16.5 9.44772 16.5 10V15C16.5 16.1046 15.6046 17 14.5 17H11.5C10.9477 17 10.5 16.5523 10.5 16V10ZM12 10.5H15V15C15 15.2761 14.7761 15.5 14.5 15.5H12V10.5Z" fill="#27292A"/>
<path fill-rule="evenodd" clip-rule="evenodd" d="M4.5 12C3.94772 12 3.5 12.4477 3.5 13V15C3.5 16.1046 4.39543 17 5.5 17H8.5C9.05228 17 9.5 16.5523 9.5 16V13C9.5 12.4477 9.05228 12 8.5 12H4.5ZM5 13.5V15C5 15.2761 5.22386 15.5 5.5 15.5H8V13.5H5Z" fill="#27292A"/>
<path fill-rule="evenodd" clip-rule="evenodd" d="M10.5 4C10.5 3.44772 10.9477 3 11.5 3H14.5C15.6046 3 16.5 3.89543 16.5 5V7C16.5 7.55228 16.0523 8 15.5 8H11.5C10.9477 8 10.5 7.55228 10.5 7V4ZM12 6.5V4.5H14.5C14.7761 4.5 15 4.72386 15 5V6.5H12Z" fill="#27292A"/>
</svg>
