<?xml version="1.0" encoding="UTF-8"?><svg width="16px" height="16px" viewBox="0 0 16 16" version="1.1" xmlns="http://www.w3.org/2000/svg" xmlns:xlink="http://www.w3.org/1999/xlink"><!--Generator: Sketch 56 (81588) - https://sketch.com--><title>underline</title><desc>Created with Sketch.</desc><g id="underline" stroke="none" stroke-width="1" fill="none" fill-rule="evenodd" opacity="0.9"><g fill="#000000"><polygon id="Path-29" points="14 13.0246765 14 14.0246765 2 14.0246765 2 13.0246765"/><path d="M7.9812187,11.728491 C7.40750235,11.728491 6.88791432,11.6363862 6.42272556,11.4519719 C5.95642919,11.2671184 5.55765551,10.989628 5.22692105,10.6198227 C4.89657662,10.2504536 4.64277823,9.79404007 4.46540937,9.25101545 C4.28837477,8.70901419 4.2,8.08083453 4.2,7.36649103 L4.25,2.95 L5.84006678,3 L5.84006678,7.29649103 C5.84006678,8.2004942 6.03310188,8.8847497 6.41713134,9.35069019 C6.79961889,9.8147599 7.32789864,10.046491 8.00626043,10.046491 C8.67664654,10.046491 9.20104816,9.82376858 9.58350274,9.37793613 C9.96704745,8.93083289 10.1599332,8.26087303 10.1599332,7.36649103 L10.2099332,2.95 L11.8,3 L11.8,7.28249103 C11.8,8.01549045 11.7095417,8.65999231 11.5283404,9.2159843 C11.3468388,9.77289753 11.091037,10.2385674 10.7607682,10.6125863 C10.4299639,10.9872117 10.0289745,11.2671399 9.55834942,11.4520286 C9.08901852,11.6364088 8.56322308,11.728491 7.9812187,11.728491 Z" id="U" stroke="#000000" stroke-width="0.1"/></g></g></svg>