<svg width="18" height="18" viewBox="0 0 18 18" fill="none" xmlns="http://www.w3.org/2000/svg">
<g clip-path="url(#clip0_501_45807)">
<path d="M16.5918 5.36487L-1.28772 5.36496L-1.2126 4.86591L16.6669 4.86581L16.5918 5.36487Z" fill="#27292A"/>
<path d="M-0.335269 10.0683L3.96373 10.2035L14.9935 9.96389H2.28567L2.3239 9.70996L0.123608 9.79408L0.187126 9.29525L16.4666 8.67286L16.403 9.17169L8.7357 9.46483L16.3118 9.46483L16.2407 9.93679L16.4551 9.93214L16.4648 10.382L12.4282 10.4697L15.3287 10.561L15.2448 11.056L16.907 10.9603L16.8533 11.4247L17.071 11.4296L16.9891 11.9286L15.4262 11.8933L15.3852 12.1655L-4.33179 12.1656L-4.25666 11.6665L5.21617 11.6665L5.21661 11.6627L0.922391 11.5656L1.00429 11.0667L11.0968 11.2947L15.2009 11.0585L2.99597 10.6746L0.719542 10.7241L0.716911 10.6029L-0.419798 10.5672L-0.335269 10.0683Z" fill="#27292A"/>
<path d="M1.75327 8.33398H0.24202L0.166892 8.83304L10.0566 8.83304L10.0821 8.66337L16.8406 8.66336L16.9157 8.1643L1.77881 8.16432L1.75327 8.33398Z" fill="#27292A"/>
<path d="M12.5786 6.13123L16.8451 5.99879L16.9108 5.49988L0.90148 5.99682L0.835765 6.49573L1.06895 6.4885L1.07402 6.78093L17.4506 6.49676L17.4428 6.04682L12.5786 6.13123Z" fill="#27292A"/>
<path d="M2.05462 12.4002L4.9034 12.5561L17.0643 12.2879L16.9958 12.7869L9.28544 12.957L9.22326 13.2962L4.8234 13.0554L1.49747 13.1287L1.56592 12.6297L2.01436 12.6198L2.05462 12.4002Z" fill="#27292A"/>
<path d="M16.9828 7.52782L17.0676 7.52782L16.9925 8.02688L0.117824 8.02684L0.192952 7.52778L10.7376 7.52781L1.8687 7.32718L1.87888 6.8773L16.9897 7.21912L16.9828 7.52782Z" fill="#27292A"/>
</g>
<defs>
<clipPath id="clip0_501_45807">
<rect width="16.2" height="10.35" fill="white" transform="translate(0.899902 4.05002)"/>
</clipPath>
</defs>
</svg>
