<?xml version="1.0" encoding="UTF-8"?>
<svg width="24px" height="24px" viewBox="0 0 24 24" version="1.1" xmlns="http://www.w3.org/2000/svg" xmlns:xlink="http://www.w3.org/1999/xlink">
    <!-- Generator: Sketch 56 (81588) - https://sketch.com -->
    <title>symbol_dislike</title>
    <desc>Created with Sketch.</desc>
    <g id="symbol_dislike" stroke="none" stroke-width="1" fill="none" fill-rule="evenodd">
        <g id="Group-7">
            <path d="M24,12 C24,18.627 18.627,24 12,24 C5.373,24 0,18.627 0,12 C0,5.373 5.373,0 12,0 C18.627,0 24,5.373 24,12" id="Fill-1" fill="#297DF8"></path>
            <path d="M9.8398,15.6152 C10.5548,15.9192 11.0988,16.7862 11.4218,18.6472 C11.6508,19.9702 12.0338,20.8902 13.0268,20.8902 C14.3858,20.8902 14.6198,17.1852 13.6548,15.5142 C13.6968,15.5212 16.0578,15.8982 18.1308,15.1792 C20.6218,14.3162 18.6778,7.2342 16.4178,7.0922 C14.4278,6.9662 12.0708,6.9272 10.6558,7.1312 C9.6398,7.2772 8.8128,7.6232 8.6328,8.1232 C8.3818,8.8192 8.4788,9.7462 8.4818,11.1332 C8.4858,12.6062 8.5068,13.6112 8.5338,14.6462 C8.5508,15.2912 9.4198,15.4372 9.8398,15.6152" id="Fill-3" fill="#FFFFFF"></path>
            <path d="M6.4995,7.418 L5.2015,7.418 C4.8425,7.418 4.5525,7.708 4.5525,8.066 L4.5525,14.531 C4.5525,14.89 4.8425,15.18 5.2015,15.18 L6.4995,15.18 C6.8575,15.18 7.1475,14.89 7.1475,14.531 L7.1475,8.066 C7.1475,7.708 6.8575,7.418 6.4995,7.418" id="Fill-5" fill="#FFFFFF"></path>
        </g>
    </g>
</svg>