<?xml version="1.0" encoding="UTF-8"?>
<svg width="24px" height="24px" viewBox="0 0 24 24" version="1.1" xmlns="http://www.w3.org/2000/svg" xmlns:xlink="http://www.w3.org/1999/xlink">
    <!-- Generator: Sketch 56 (81588) - https://sketch.com -->
    <title>symbol_comment</title>
    <desc>Created with Sketch.</desc>
    <defs>
        <polygon id="path-1" points="0 0 24 0 24 23.9999 0 23.9999"></polygon>
    </defs>
    <g id="symbol_comment" stroke="none" stroke-width="1" fill="none" fill-rule="evenodd">
        <g id="Group-6">
            <g id="Group-3">
                <mask id="mask-2" fill="white">
                    <use xlink:href="#path-1"></use>
                </mask>
                <g id="Clip-2"></g>
                <path d="M24,11.9999 C24,18.6279 18.627,23.9999 12,23.9999 C5.373,23.9999 0,18.6279 0,11.9999 C0,5.3729 5.373,-0.0001 12,-0.0001 C18.627,-0.0001 24,5.3729 24,11.9999" id="Fill-1" fill="#4ECF55" mask="url(#mask-2)"></path>
            </g>
            <path d="M13.752,13.62 C13.752,13.206 13.416,12.87 13.002,12.87 L8.029,12.87 C7.615,12.87 7.279,13.206 7.279,13.62 C7.279,14.034 7.615,14.37 8.029,14.37 L13.002,14.37 C13.416,14.37 13.752,14.034 13.752,13.62 M15.373,10.116 C15.373,9.702 15.037,9.366 14.623,9.366 L8.029,9.366 C7.615,9.366 7.279,9.702 7.279,10.116 C7.279,10.53 7.615,10.866 8.029,10.866 L14.623,10.866 C15.037,10.866 15.373,10.53 15.373,10.116 M18.56,10.886 C18.788,12.683 18.347,14.371 17.452,15.734 C17.193,16.129 17.892,18.041 18.195,18.823 C18.247,18.957 18.122,19.087 17.986,19.041 C17.142,18.756 14.982,18.072 14.435,18.321 C13.271,18.85 11.94,19.076 10.544,18.898 C7.329,18.488 4.738,15.839 4.39,12.617 C3.896,8.052 7.712,4.235 12.277,4.728 C15.501,5.077 18.15,7.67 18.56,10.886" id="Fill-4" fill="#FFFFFF"></path>
        </g>
    </g>
</svg>