<svg width="110" height="68" viewBox="0 0 110 68" fill="none" xmlns="http://www.w3.org/2000/svg">
<rect width="110" height="68" rx="6" fill="white"/>
<path d="M84.0931 46.7247C71.9349 46.7247 67.5599 40.803 67.5599 33.4981C67.5599 26.1932 71.6678 20.2715 84.0931 20.2715" stroke="#A2A4A6" stroke-width="1.5"/>
<rect width="18" height="9" rx="1.5" transform="matrix(-1 0 0 1 98 15.7695)" fill="#EEEEEE"/>
<rect width="18" height="9" rx="1.5" transform="matrix(-1 0 0 1 98 42.2207)" fill="#EEEEEE"/>
<path d="M26.5414 46.7228C38.6996 46.7228 43.0747 40.801 43.0747 33.4961C43.0747 26.1913 38.9667 20.2695 26.5414 20.2695" stroke="#A2A4A6" stroke-width="1.5"/>
<rect x="14" y="15.7695" width="18" height="9" rx="1.5" fill="#EEEEEE"/>
<rect x="14" y="42.2207" width="18" height="9" rx="1.5" fill="#EEEEEE"/>
<rect x="35.5" y="27" width="41" height="13" rx="2" fill="#E8E8E8"/>
<path d="M44.7954 31.0679H45.8276V36H44.7954V32.5581H44.7578L43.1821 34.4448H43.1138L41.5483 32.5581H41.5107V36H40.4785V31.0679H41.5107L43.1479 33.0742L44.7954 31.0679ZM46.5942 30.6543H47.606V31.666H46.5942V30.6543ZM46.6011 32.2402H47.5991V36H46.6011V32.2402ZM50.4199 32.1582C50.8825 32.1582 51.2345 32.2892 51.4761 32.5513C51.7176 32.8133 51.8384 33.195 51.8384 33.6963V36H50.8403V33.9048C50.8403 33.6108 50.7777 33.3875 50.6523 33.2349C50.527 33.0822 50.3447 33.0059 50.1055 33.0059C49.9027 33.0036 49.7352 33.0742 49.603 33.2178C49.4709 33.3613 49.3923 33.5562 49.3672 33.8022V36H48.3691V32.2402H49.3672V32.7632H49.4048C49.4914 32.5695 49.6247 32.4202 49.8047 32.3154C49.9847 32.2106 50.1898 32.1582 50.4199 32.1582ZM56.1597 30.791V36H55.1616V35.5454H55.1206C55.0067 35.7072 54.8586 35.8371 54.6763 35.9351C54.494 36.0308 54.2752 36.0786 54.02 36.0786C53.6987 36.0786 53.4128 36 53.1621 35.8428C52.9115 35.6833 52.7155 35.4611 52.5742 35.1763C52.4352 34.8892 52.3657 34.5588 52.3657 34.1851C52.3657 33.784 52.4364 33.4308 52.5776 33.1255C52.7189 32.8179 52.916 32.5798 53.169 32.4111C53.4242 32.2425 53.7147 32.1582 54.0405 32.1582C54.2661 32.1582 54.4712 32.2038 54.6558 32.2949C54.8426 32.3861 54.9964 32.5137 55.1172 32.6777H55.1616V30.791H56.1597ZM54.2251 35.3438C54.4347 35.3438 54.6102 35.2959 54.7515 35.2002C54.8927 35.1045 54.9964 34.986 55.0625 34.8447C55.1286 34.7012 55.1616 34.561 55.1616 34.4243V33.8843C55.1616 33.7043 55.1217 33.5436 55.042 33.4023C54.9622 33.2588 54.8529 33.1471 54.7139 33.0674C54.5749 32.9876 54.4211 32.9478 54.2524 32.9478C54.0952 32.9478 53.9482 33.0002 53.8115 33.105C53.6748 33.2075 53.5654 33.3534 53.4834 33.5425C53.4037 33.7316 53.3638 33.9458 53.3638 34.1851C53.3638 34.4084 53.4037 34.6089 53.4834 34.7866C53.5632 34.9621 53.668 35.0988 53.7979 35.1968C53.93 35.2948 54.0724 35.3438 54.2251 35.3438ZM63.0967 31.0679H64.1289V36H63.0967V32.5581H63.0591L61.4834 34.4448H61.415L59.8496 32.5581H59.812V36H58.7798V31.0679H59.812L61.4492 33.0742L63.0967 31.0679ZM68.1187 36H67.1206V35.4634H67.083C67.001 35.6411 66.8608 35.7892 66.6626 35.9077C66.4666 36.0239 66.2354 36.082 65.9688 36.082C65.7067 36.082 65.4789 36.0342 65.2852 35.9385C65.0938 35.8405 64.9468 35.7015 64.8442 35.5215C64.7417 35.3392 64.6904 35.1239 64.6904 34.8755C64.6904 34.6659 64.7508 34.4756 64.8716 34.3047C64.9946 34.1338 65.1701 33.9902 65.398 33.874C65.6281 33.7555 65.9004 33.6712 66.2149 33.6211C66.3561 33.5983 66.4826 33.5824 66.5942 33.5732C66.7059 33.5618 66.8654 33.5493 67.0728 33.5356C67.0226 33.3351 66.9338 33.187 66.8062 33.0913C66.6808 32.9956 66.5122 32.9478 66.3003 32.9478C66.1385 32.9478 65.9631 32.966 65.7739 33.0024C65.5848 33.0389 65.3991 33.0902 65.2168 33.1562L65.0562 32.4146C65.2612 32.3371 65.4845 32.2756 65.7261 32.23C65.9699 32.1844 66.1773 32.1616 66.3482 32.1616C66.756 32.1616 67.0899 32.2254 67.3496 32.353C67.6094 32.4806 67.8019 32.6777 67.9273 32.9443C68.0526 33.2087 68.1164 33.5493 68.1187 33.9663V36ZM66.2012 35.3472C66.3561 35.3472 66.4974 35.3187 66.625 35.2617C66.7526 35.2048 66.8586 35.1273 66.9429 35.0293C67.0295 34.929 67.0887 34.8174 67.1206 34.6943V34.209C66.9247 34.2158 66.7686 34.2249 66.6524 34.2363C66.5384 34.2454 66.4085 34.2637 66.2627 34.291C66.0918 34.3229 65.9539 34.3879 65.8491 34.4858C65.7443 34.5838 65.6919 34.7091 65.6919 34.8618C65.6919 35.0145 65.7363 35.1341 65.8252 35.2207C65.9164 35.305 66.0417 35.3472 66.2012 35.3472ZM70.9702 32.1616C71.2961 32.1616 71.5855 32.2459 71.8384 32.4146C72.0936 32.5832 72.2918 32.8213 72.4331 33.1289C72.5744 33.4342 72.645 33.7874 72.645 34.1885C72.645 34.5622 72.5744 34.8926 72.4331 35.1797C72.2941 35.4645 72.0993 35.6867 71.8486 35.8462C71.598 36.0034 71.312 36.082 70.9907 36.082C70.7401 36.082 70.5247 36.0353 70.3447 35.9419C70.1647 35.8462 70.0166 35.7197 69.9004 35.5625H69.8491V37.251H68.8511V32.2402H69.8491V32.6948H69.8833C70.0018 32.5262 70.1556 32.3952 70.3447 32.3018C70.5339 32.2083 70.7424 32.1616 70.9702 32.1616ZM70.7857 35.3472C70.9383 35.3472 71.0796 35.2982 71.2095 35.2002C71.3416 35.1022 71.4476 34.9655 71.5274 34.79C71.6071 34.6123 71.647 34.4118 71.647 34.1885C71.647 33.9492 71.606 33.735 71.5239 33.5459C71.4442 33.3568 71.3359 33.2109 71.1992 33.1084C71.0625 33.0036 70.9155 32.9512 70.7583 32.9512C70.5897 32.9512 70.4359 32.991 70.2969 33.0708C70.1579 33.1506 70.0485 33.2622 69.9688 33.4058C69.889 33.547 69.8491 33.7077 69.8491 33.8877V34.4277C69.8491 34.5645 69.8822 34.7046 69.9483 34.8481C70.0143 34.9894 70.118 35.1079 70.2593 35.2036C70.4006 35.2993 70.576 35.3472 70.7857 35.3472Z" fill="black"/>
<path d="M93.5 20.2695H84.5" stroke="#A2A4A6" stroke-width="1.5" stroke-linecap="round"/>
<path d="M93.5 46.7207H84.5" stroke="#A2A4A6" stroke-width="1.5" stroke-linecap="round"/>
<path d="M27.5 20.2695H18.5" stroke="#A2A4A6" stroke-width="1.5" stroke-linecap="round"/>
<path d="M27.5 46.7207H18.5" stroke="#A2A4A6" stroke-width="1.5" stroke-linecap="round"/>
</svg>
