<svg width="52" height="14" viewBox="0 0 52 14" fill="none" xmlns="http://www.w3.org/2000/svg">
<g id="Alipay" clip-path="url(#clip0_3046_10031)">
<path id="Vector" d="M51.4707 3.84156L51.4827 3.82831H49.5759L48.3718 8.00233H48.3079L46.9254 3.82831H44.6594L47.3859 10.7167L46.2468 12.8164V12.867H48.0259L51.4707 3.84156Z" fill="black"/>
<path id="Vector_2" d="M30.3317 3.82831H28.3092V10.6914H30.3317V3.82831Z" fill="black"/>
<path id="Vector_3" d="M44.2616 8.975V6.10754C44.2616 4.54544 43.3395 3.68726 41.7135 3.68726C40.6758 3.68726 39.9598 3.86685 38.6532 4.2634L39.0112 5.83875C40.2021 5.30118 40.7264 5.07097 41.2772 5.07097C41.9425 5.07097 42.2378 5.54465 42.2378 6.27508V6.3257C39.92 6.76082 39.2028 7.0043 38.7557 7.45268C38.423 7.78534 38.282 8.25904 38.282 8.80987C38.282 10.1285 39.3065 10.8324 40.2659 10.8324C40.9831 10.8324 41.5592 10.5636 42.3403 9.97421L42.4813 10.6914H44.5038L44.2616 8.975ZM42.2391 9.02682C41.7015 9.32092 41.3941 9.43664 41.0361 9.43664C40.5492 9.43664 40.2418 9.11602 40.2418 8.60496C40.2418 8.41332 40.2804 8.22047 40.4335 8.06739C40.677 7.82392 41.1506 7.64432 42.2391 7.38879V9.02682Z" fill="black"/>
<path id="Vector_4" d="M35.3639 3.68726C34.6215 3.68726 34.0453 3.9693 33.392 4.50687V3.82828H31.3695V12.867H33.392V10.6263C33.7765 10.7287 34.1345 10.7806 34.5696 10.7806C36.3752 10.7806 38.0012 9.44869 38.0012 7.08023C38.0012 4.95525 36.8236 3.68726 35.3639 3.68726ZM34.0827 9.51257C33.8525 9.51257 33.6343 9.48726 33.3908 9.41012V5.69773C33.8139 5.40363 34.1586 5.26261 34.5937 5.26261C35.3495 5.26261 35.9509 5.86407 35.9509 7.14532C35.9521 8.78335 35.0686 9.51257 34.0827 9.51257Z" fill="black"/>
<path id="Vector_5" d="M11.1647 0.293091H2.49247C1.36308 0.293091 0.448242 1.21637 0.448242 2.35419V11.1C0.448242 12.2378 1.36308 13.1611 2.49247 13.1611H11.1647C12.2941 13.1611 13.2078 12.2378 13.2078 11.1V2.35419C13.209 1.21516 12.2941 0.293091 11.1647 0.293091Z" fill="#1677FF"/>
<path id="Vector_6" d="M10.9538 8.37354C10.4439 8.20118 9.75812 7.93721 8.99515 7.65878C9.45317 6.85484 9.81959 5.94 10.0607 4.94561H7.54515V4.03198H10.6259V3.52212H7.54515V1.9986H6.288C6.06743 1.9986 6.06743 2.21797 6.06743 2.21797V3.52092H2.95167V4.03077H6.06743V4.9444H3.49407V5.45425H8.48409C8.30209 6.08825 8.0562 6.68489 7.76572 7.22607C6.14698 6.6873 4.41855 6.25097 3.33376 6.51975C2.63949 6.69212 2.19232 6.99947 1.92956 7.3225C0.72424 8.80143 1.58845 11.0481 4.13409 11.0481C5.63954 11.0481 7.08954 10.202 8.2129 8.80745C9.8895 9.61984 13.2077 11.0156 13.2077 11.0156V9.02682C13.2089 9.02682 12.7919 8.99307 10.9538 8.37354ZM3.89664 10.1888C1.91148 10.1888 1.32449 8.61219 2.30562 7.74918C2.63347 7.4575 3.23131 7.31527 3.54951 7.28393C4.72831 7.16701 5.82034 7.62021 7.10882 8.25421C6.20363 9.44507 5.05013 10.1888 3.89664 10.1888Z" fill="white"/>
<path id="Vector_7" d="M21.3569 1.66473H18.6426L15.6088 10.6914H17.4782L17.9905 8.92438H21.2039L21.6908 10.6914H24.0846L21.3569 1.66473ZM18.4123 7.45148L19.6152 3.29071H19.6659L20.8049 7.45148H18.4123Z" fill="black"/>
<path id="Vector_8" d="M26.9255 1.34412H24.903V10.6902H26.9255V1.34412Z" fill="black"/>
<path id="Vector_9" d="M28.1549 2.17701C28.1549 2.84235 28.6419 3.29073 29.3205 3.29073C29.999 3.29073 30.486 2.84235 30.486 2.17701C30.486 1.52373 29.999 1.06329 29.3205 1.06329C28.6419 1.06329 28.1549 1.52373 28.1549 2.17701Z" fill="#1677FF"/>
</g>
<defs>
<clipPath id="clip0_3046_10031">
<rect width="51.0345" height="12.868" fill="white" transform="translate(0.448242 0.293091)"/>
</clipPath>
</defs>
</svg>
