<?xml version="1.0" encoding="UTF-8"?>
<svg width="24px" height="24px" viewBox="0 0 24 24" version="1.1" xmlns="http://www.w3.org/2000/svg" xmlns:xlink="http://www.w3.org/1999/xlink">
    <!-- Generator: Sketch 56 (81588) - https://sketch.com -->
    <title>week_tue@16</title>
    <desc>Created with Sketch.</desc>
    <defs>
        <polygon id="path-1" points="0 0 24 0 24 23.9998 0 23.9998"></polygon>
    </defs>
    <g id="week_tue" stroke="none" stroke-width="1" fill="none" fill-rule="evenodd">
        <g id="Group-8">
            <g id="Group-3">
                <mask id="mask-2" fill="white">
                    <use xlink:href="#path-1"></use>
                </mask>
                <g id="Clip-2"></g>
                <path d="M24,11.9998 C24,18.6278 18.627,23.9998 12,23.9998 C5.373,23.9998 0,18.6278 0,11.9998 C0,5.3728 5.373,-0.0002 12,-0.0002 C18.627,-0.0002 24,5.3728 24,11.9998" id="Fill-1" fill="#9D9DA0" mask="url(#mask-2)"></path>
            </g>
            <polygon id="Fill-4" fill="#FFFFFF" points="12.1133 5.8475 12.1133 7.8885 9.5423 7.8885 9.5343 17.2545 7.1693 17.2545 7.1853 7.8885 4.5903 7.8885 4.5903 5.8475"></polygon>
            <path d="M14.4155,17.0409 C13.8825,16.7769 13.4765,16.3929 13.1975,15.8869 C12.9175,15.3799 12.7775,14.7729 12.7775,14.0659 L12.7775,8.5529 L15.0725,8.5529 L15.0725,14.0659 C15.0725,14.5579 15.1855,14.9379 15.4125,15.2099 C15.6395,15.4809 15.9445,15.6169 16.3305,15.6169 C16.7045,15.6169 16.9985,15.4809 17.2115,15.2099 C17.4255,14.9379 17.5325,14.5579 17.5325,14.0659 L17.5325,8.5529 L19.8185,8.5529 L19.8185,14.0659 C19.8185,14.7779 19.6825,15.3869 19.4115,15.8909 C19.1395,16.3939 18.7425,16.7769 18.2205,17.0409 C17.6985,17.3049 17.0685,17.4369 16.3305,17.4369 C15.5865,17.4369 14.9485,17.3049 14.4155,17.0409" id="Fill-6" fill="#FFFFFF"></path>
        </g>
    </g>
</svg>