<?xml version="1.0" encoding="UTF-8"?>
<svg width="24px" height="24px" viewBox="0 0 24 24" version="1.1" xmlns="http://www.w3.org/2000/svg" xmlns:xlink="http://www.w3.org/1999/xlink">
    <!-- Generator: Sketch 56 (81588) - https://sketch.com -->
    <title>week_sun@16</title>
    <desc>Created with Sketch.</desc>
    <defs>
        <polygon id="path-1" points="0 0 24 0 24 23.9998 0 23.9998"></polygon>
    </defs>
    <g id="week_sun" stroke="none" stroke-width="1" fill="none" fill-rule="evenodd">
        <g id="Group-8">
            <g id="Group-3">
                <mask id="mask-2" fill="white">
                    <use xlink:href="#path-1"></use>
                </mask>
                <g id="Clip-2"></g>
                <path d="M24,11.9998 C24,18.6278 18.627,23.9998 12,23.9998 C5.373,23.9998 0,18.6278 0,11.9998 C0,5.3728 5.373,-0.0002 12,-0.0002 C18.627,-0.0002 24,5.3728 24,11.9998" id="Fill-1" fill="#9D9DA0" mask="url(#mask-2)"></path>
            </g>
            <path d="M5.8364,17.0731 C5.1244,16.8191 4.5464,16.4641 4.1044,16.0051 L4.8474,14.2331 C5.2794,14.5861 5.7904,14.8711 6.3784,15.0871 C6.9664,15.3031 7.5214,15.4121 8.0434,15.4121 C8.5074,15.4121 8.8704,15.3041 9.1314,15.0911 C9.3924,14.8781 9.5234,14.5921 9.5234,14.2331 C9.5234,13.8641 9.3714,13.5411 9.0674,13.2631 C8.7644,12.9871 8.2884,12.6931 7.6404,12.3821 C6.6324,11.8811 5.8794,11.3351 5.3814,10.7441 C4.8824,10.1531 4.6334,9.4441 4.6334,8.6161 C4.6334,7.9681 4.7764,7.4141 5.0614,6.9551 C5.3454,6.4961 5.7524,6.1481 6.2794,5.9111 C6.8064,5.6741 7.4314,5.5541 8.1544,5.5541 C8.6024,5.5541 9.0664,5.6131 9.5464,5.7281 C10.0264,5.8441 10.5034,6.0161 10.9784,6.2431 L10.9784,8.2441 C10.5874,8.0281 10.1794,7.8661 9.7524,7.7581 C9.3244,7.6491 8.9024,7.5951 8.4864,7.5951 C8.0114,7.5951 7.6254,7.6971 7.3274,7.9001 C7.0294,8.1031 6.8804,8.3941 6.8804,8.7741 C6.8804,9.1221 7.0324,9.4451 7.3354,9.7431 C7.6384,10.0421 8.0904,10.3331 8.6914,10.6171 C9.7624,11.1391 10.5424,11.6861 11.0294,12.2591 C11.5174,12.8311 11.7614,13.4781 11.7614,14.2011 C11.7614,14.8601 11.6134,15.4351 11.3184,15.9261 C11.0234,16.4161 10.5984,16.7931 10.0444,17.0561 C9.4914,17.3201 8.8344,17.4531 8.0754,17.4531 C7.2944,17.4531 6.5484,17.3261 5.8364,17.0731" id="Fill-4" fill="#FFFFFF"></path>
            <path d="M14.9336,17.0409 C14.4006,16.7769 13.9946,16.3929 13.7156,15.8869 C13.4356,15.3799 13.2956,14.7729 13.2956,14.0659 L13.2956,8.5529 L15.5906,8.5529 L15.5906,14.0659 C15.5906,14.5579 15.7036,14.9379 15.9306,15.2099 C16.1576,15.4809 16.4626,15.6169 16.8486,15.6169 C17.2226,15.6169 17.5166,15.4809 17.7296,15.2099 C17.9436,14.9379 18.0506,14.5579 18.0506,14.0659 L18.0506,8.5529 L20.3366,8.5529 L20.3366,14.0659 C20.3366,14.7779 20.2006,15.3869 19.9296,15.8909 C19.6576,16.3939 19.2606,16.7769 18.7386,17.0409 C18.2166,17.3049 17.5866,17.4369 16.8486,17.4369 C16.1046,17.4369 15.4666,17.3049 14.9336,17.0409" id="Fill-6" fill="#FFFFFF"></path>
        </g>
    </g>
</svg>