<?xml version="1.0" encoding="UTF-8"?>
<svg width="48px" height="28px" viewBox="0 0 48 28" version="1.1" xmlns="http://www.w3.org/2000/svg" xmlns:xlink="http://www.w3.org/1999/xlink">
    <title>Icons/Format Panel Icons/Structure/brace-right Copy</title>
    <g id="Icons/Format-Panel-Icons/Structure/brace-right-Copy" stroke="none" stroke-width="1" fill="none" fill-rule="evenodd">
        <rect id="bg" x="0" y="0" width="48" height="28"></rect>
        <path d="M30.105,5.52507891 C30.5192136,5.52507891 30.855,5.86086535 30.855,6.27507891 C30.855,6.68929247 30.5192136,7.02507891 30.105,7.02507891 C29.2913005,7.02507891 28.6231075,7.64806639 28.5513752,8.44308711 L28.545,8.58507891 L28.545,12.4311938 C28.545,12.6458701 28.4531492,12.8484031 28.2957759,12.9895293 L28.2117509,13.054747 L26.809,13.991 L28.2062943,14.9078133 L28.2916121,14.9729362 C28.4514517,15.1141434 28.545,15.3183147 28.545,15.5349792 L28.545,15.5349792 L28.545,19.410085 L28.5513752,19.5520768 C28.6231075,20.3470975 29.2913005,20.970085 30.105,20.970085 C30.5192136,20.970085 30.855,21.3058714 30.855,21.720085 C30.855,22.1342985 30.5192136,22.470085 30.105,22.470085 L30.105,22.470085 L29.9252018,22.4648904 C28.3188984,22.3718191 27.045,21.0397195 27.045,19.410085 L27.045,19.410085 L27.045,15.941085 L25.0737057,14.6472508 L24.9854872,14.5796726 C24.8174951,14.4300916 24.7297298,14.21626 24.735152,14.0005257 C24.728313,13.7848371 24.8142011,13.5706783 24.9806236,13.419871 L25.0682491,13.3515256 L27.045,12.03 L27.045,8.58507891 C27.045,6.95544441 28.3188984,5.62334481 29.9252018,5.53027346 L30.105,5.52507891 Z M37.7,20.9 C38.1142136,20.9 38.45,21.2357864 38.45,21.65 C38.45,22.0296958 38.1678461,22.343491 37.8017706,22.3931534 L37.7,22.4 L34.2,22.4 C33.7857864,22.4 33.45,22.0642136 33.45,21.65 C33.45,21.2703042 33.7321539,20.956509 34.0982294,20.9068466 L34.2,20.9 L37.7,20.9 Z M21.570271,9.7 C22.3875028,9.7 23.05,10.3624972 23.05,11.179729 L23.05,11.179729 L23.05,16.020271 C23.05,16.8375028 22.3875028,17.5 21.570271,17.5 L21.570271,17.5 L11.129729,17.5 C10.3124972,17.5 9.65,16.8375028 9.65,16.020271 L9.65,16.020271 L9.65,11.179729 C9.65,10.3624972 10.3124972,9.7 11.129729,9.7 L11.129729,9.7 Z M21.549,11.2 L11.149,11.2 L11.149,16 L21.549,16 L21.549,11.2 Z M37.7,13.2 C38.1142136,13.2 38.45,13.5357864 38.45,13.95 C38.45,14.3296958 38.1678461,14.643491 37.8017706,14.6931534 L37.7,14.7 L34.2,14.7 C33.7857864,14.7 33.45,14.3642136 33.45,13.95 C33.45,13.5703042 33.7321539,13.256509 34.0982294,13.2068466 L34.2,13.2 L37.7,13.2 Z M37.7,5.5 C38.1142136,5.5 38.45,5.83578644 38.45,6.25 C38.45,6.62969577 38.1678461,6.94349096 37.8017706,6.99315338 L37.7,7 L34.2,7 C33.7857864,7 33.45,6.66421356 33.45,6.25 C33.45,5.87030423 33.7321539,5.55650904 34.0982294,5.50684662 L34.2,5.5 L37.7,5.5 Z" id="Combined-Shape" fill="#000000" fill-rule="nonzero"></path>
    </g>
</svg>