<?xml version="1.0" encoding="UTF-8"?>
<svg width="48px" height="28px" viewBox="0 0 48 28" version="1.1" xmlns="http://www.w3.org/2000/svg" xmlns:xlink="http://www.w3.org/1999/xlink">
    <title>Icons/Format Panel Icons/Structure/logic-left Copy</title>
    <g id="Icons/Format-Panel-Icons/Structure/logic-left-Copy" stroke="none" stroke-width="1" fill="none" fill-rule="evenodd">
        <rect id="bg" transform="translate(24.000000, 14.000000) scale(-1, 1) translate(-24.000000, -14.000000) " x="0" y="0" width="48" height="28"></rect>
        <path d="M20.95,20.3 C20.95,21.4357856 20.0692959,22.3658717 18.9535442,22.4446017 L18.8,22.45 L12.5,22.45 C12.0857864,22.45 11.75,22.1142136 11.75,21.7 C11.75,21.3203042 12.0321539,21.006509 12.3982294,20.9568466 L12.5,20.95 L18.8,20.95 C19.1263501,20.95 19.3965265,20.7094918 19.4429523,20.3960522 L19.45,20.3 L19.45,14.75 L12.6984937,14.75 L12.5967231,14.7431534 C12.2306476,14.693491 11.9484937,14.3796958 11.9484937,14 C11.9484937,13.5857864 12.2842801,13.25 12.6984937,13.25 L12.6984937,13.25 L19.45,13.25 L19.45,7.7 L19.4429523,7.60394776 C19.3965265,7.29050819 19.1263501,7.05 18.8,7.05 L18.8,7.05 L12.5,7.05 L12.3982294,7.04315338 C12.0321539,6.99349096 11.75,6.67969577 11.75,6.3 C11.75,5.88578644 12.0857864,5.55 12.5,5.55 L12.5,5.55 L18.8,5.55 L18.9535442,5.55539827 C20.0692959,5.63412828 20.95,6.56421441 20.95,7.7 L20.95,7.7 L20.95,13.25 L23.649,13.25 L23.65,11.16339 C23.65,10.3827963 24.2827963,9.75 25.06339,9.75 L37.73661,9.75 C38.5172037,9.75 39.15,10.3827963 39.15,11.16339 L39.15,16.83661 C39.15,17.6172037 38.5172037,18.25 37.73661,18.25 L25.06339,18.25 C24.2827963,18.25 23.65,17.6172037 23.65,16.83661 L23.649,14.75 L20.95,14.75 L20.95,20.3 Z M37.651,11.25 L25.151,11.25 L25.151,16.75 L37.651,16.75 L37.651,11.25 Z" id="Combined-Shape" fill="#000000" fill-rule="nonzero"></path>
    </g>
</svg>