<?xml version="1.0" encoding="UTF-8"?>
<svg width="48px" height="28px" viewBox="0 0 48 28" version="1.1" xmlns="http://www.w3.org/2000/svg" xmlns:xlink="http://www.w3.org/1999/xlink">
    <title>timeline-horizontal-Off-Axis</title>
    <g id="Page-1" stroke="none" stroke-width="1" fill="none" fill-rule="evenodd">
        <g id="timeline-horizontal-Off-Axis">
            <rect id="Rectangle" fill-rule="nonzero" x="0" y="0" width="48" height="28"></rect>
            <path d="M27.27,10.1228 C27.2203,9.75676 26.9066,9.47461 26.5269,9.47461 C26.1126,9.47461 25.7769,9.8104 25.7769,10.2246 L25.7769,13.2496 L21.5,13.2496 L21.5,11.4134 C21.5,10.6328 20.8672,10 20.0866,10 L9.41339,10 C8.6328,10 8,10.6328 8,11.4134 L8,16.59 C8,17.3706 8.6328,18 9.41339,18 L20.0866,18 C20.8672,18 21.5,17.3706 21.5,16.59 L21.5,14.7496 L30.7769,14.7496 L30.7769,17.4321 L30.7837,17.5339 C30.8334,17.9 31.1472,18.1821 31.5269,18.1821 C31.9411,18.1821 32.2769,17.8463 32.2769,17.4321 L32.2769,14.7496 L41.1001,14.7496 L41.2019,14.7428 C41.5679,14.6931 41.8501,14.3793 41.8501,13.9996 C41.8501,13.5854 41.5143,13.2496 41.1001,13.2496 L37.2769,13.2496 L37.2769,10.2246 L37.27,10.1228 C37.2203,9.75676 36.9066,9.47461 36.5269,9.47461 C36.1126,9.47461 35.7769,9.8104 35.7769,10.2246 L35.7769,13.2496 L27.2769,13.2496 L27.2769,10.2246 L27.27,10.1228 Z M20,11.5 L20,16.5 L9.5,16.5 L9.5,11.5 L20,11.5 Z" id="Shape" fill="#000000"></path>
        </g>
    </g>
</svg>