<?xml version="1.0" encoding="UTF-8"?>
<svg width="48px" height="28px" viewBox="0 0 48 28" version="1.1" xmlns="http://www.w3.org/2000/svg" xmlns:xlink="http://www.w3.org/1999/xlink">
    <title>timeline-horizontal</title>
    <g id="Page-1" stroke="none" stroke-width="1" fill="none" fill-rule="evenodd">
        <g id="timeline-horizontal">
            <rect id="Rectangle" fill-rule="nonzero" x="0" y="0" width="48" height="28"></rect>
            <path d="M20.0866,10 L9.41339,10 C8.6328,10 8,10.6328 8,11.4134 L8,16.59 C8,17.3706 8.6328,18 9.41339,18 L20.0866,18 C20.8672,18 21.5,17.3706 21.5,16.59 L21.5,14.7498 L25.7769,14.7498 L25.7769,16.1079 L25.7837,16.2097 C25.8334,16.5757 26.1472,16.8579 26.5269,16.8579 C26.9411,16.8579 27.2769,16.5221 27.2769,16.1079 L27.2769,14.7498 L27.4501,14.7498 L28.527,14.7498 L30.7769,14.7498 L30.7769,16.1079 L30.7837,16.2097 C30.8334,16.5757 31.1472,16.8579 31.5269,16.8579 C31.9411,16.8579 32.2769,16.5221 32.2769,16.1079 L32.2769,14.7498 L35.7769,14.7498 L35.7769,16.1079 L35.7837,16.2097 C35.8334,16.5757 36.1472,16.8579 36.5269,16.8579 C36.9411,16.8579 37.2769,16.5221 37.2769,16.1079 L37.2769,14.7498 L40.1001,14.7498 L40.2019,14.7429 C40.5679,14.6932 40.8501,14.3795 40.8501,13.9998 C40.8501,13.5855 40.5143,13.2498 40.1001,13.2498 L37.2769,13.2498 L37.2769,11.9004 L37.27,11.7986 C37.2203,11.4325 36.9066,11.1504 36.5269,11.1504 C36.1126,11.1504 35.7769,11.4862 35.7769,11.9004 L35.7769,13.2498 L32.2769,13.2498 L32.2769,11.9004 L32.27,11.7986 C32.2203,11.4325 31.9066,11.1504 31.5269,11.1504 C31.1126,11.1504 30.7769,11.4862 30.7769,11.9004 L30.7769,13.2498 L28.527,13.2498 L27.4501,13.2498 L27.2769,13.2498 L27.2769,11.9004 L27.27,11.7986 C27.2203,11.4325 26.9066,11.1504 26.5269,11.1504 C26.1126,11.1504 25.7769,11.4862 25.7769,11.9004 L25.7769,13.2498 L21.5,13.2498 L21.5,11.4134 C21.5,10.6328 20.8672,10 20.0866,10 Z M20,11.5 L20,16.5 L9.5,16.5 L9.5,11.5 L20,11.5 Z" id="Shape" fill="#000000"></path>
        </g>
    </g>
</svg>