<?xml version="1.0" encoding="UTF-8"?>
<svg width="48px" height="28px" viewBox="0 0 48 28" version="1.1" xmlns="http://www.w3.org/2000/svg" xmlns:xlink="http://www.w3.org/1999/xlink">
    <title>tree-vertical</title>
    <g id="Page-1" stroke="none" stroke-width="1" fill="none" fill-rule="evenodd">
        <g id="tree-vertical">
            <rect id="Rectangle" fill-rule="nonzero" x="0" y="0" width="48" height="28"></rect>
            <path d="M17.1902,3.75 L31.6102,3.75 C32.295,3.75 32.8502,4.30517 32.8502,4.99 L32.8502,11.01 C32.8502,11.6948 32.295,12.25 31.6102,12.25 L25.1503,12.25 L25.1503,14.6489 L25.1504,14.6504 L25.1504,15.7116 C25.1559,16.0328 25.3944,16.2973 25.7042,16.3431 L25.8003,16.3502 L30.3003,16.3502 C30.7145,16.3502 31.0503,16.686 31.0503,17.1002 C31.0503,17.4799 30.7681,17.7937 30.4021,17.8433 L30.3003,17.8502 L25.8003,17.8502 C25.5738,17.8502 25.3554,17.8152 25.1504,17.7502 L25.1504,19.2004 C25.1504,19.2073 25.1504,19.2142 25.1503,19.2211 L25.1503,22.7002 C25.1503,23.0265 25.3908,23.2967 25.7042,23.3431 L25.8003,23.3502 L30.3003,23.3502 C30.7145,23.3502 31.0503,23.686 31.0503,24.1002 C31.0503,24.4799 30.7681,24.7937 30.4021,24.8433 L30.3003,24.8502 L25.8003,24.8502 C24.6645,24.8502 23.7344,23.9695 23.6557,22.8537 L23.6503,22.7002 L23.6503,21.2504 C23.492,21.3006 23.3257,21.3329 23.1539,21.345 L23.0004,21.3504 L18.5004,21.3504 C18.0862,21.3504 17.7504,21.0146 17.7504,20.6004 C17.7504,20.2207 18.0325,19.9069 18.3986,19.8572 L18.5004,19.8504 L23.0004,19.8504 C23.3267,19.8504 23.5969,19.6099 23.6433,19.2964 L23.6503,19.2017 L23.6503,15.7002 L23.6503,12.25 L17.1902,12.25 C16.5054,12.25 15.9502,11.6948 15.9502,11.01 L15.9502,4.99 C15.9502,4.30517 16.5054,3.75 17.1902,3.75 Z M17.4512,5.25 L17.4512,10.75 L31.3502,10.75 L31.3502,5.25 L17.4512,5.25 Z" id="Combined-Shape" fill="#000000"></path>
        </g>
    </g>
</svg>