<svg width="54" height="12" viewBox="0 0 54 12" fill="none" xmlns="http://www.w3.org/2000/svg">
<path d="M33.0342 1.30713L26.7349 8.53287L28.9963 10.5043L30.2987 9.01029L32.0088 10.4761L38.1409 3.322L35.8631 1.36963L34.6839 2.74533L33.0342 1.30713Z" fill="#27292A"/>
<path d="M19.9405 10.5504L21.8828 8.57136L23.962 10.5282L30.631 3.4423L28.4463 1.38623L25.6987 4.30569L23.7464 2.38965L19.9514 6.25634L22.2031 3.24382L19.8002 1.44775L14.4673 8.5825L16.8703 10.3786L18.0954 8.73956L19.9405 10.5504Z" fill="#27292A"/>
<path d="M8.50983 5.91748L12.5098 1.41748L14.5122 3.19737L15.7936 1.45654L18.2096 3.23496L12.839 10.5312L10.4229 8.75282L12.4438 6.00731L10.7521 7.91057L8.50983 5.91748Z" fill="#27292A"/>
<path d="M33.9996 8.73612L40.1317 1.58203L42.2613 3.40747L43.3179 2.21436L45.4902 4.13804L39.9926 10.4944L37.9751 8.70779L36.2773 10.6885L33.9996 8.73612Z" fill="#27292A"/>
</svg>
