<svg width="54" height="12" viewBox="0 0 54 12" fill="none" xmlns="http://www.w3.org/2000/svg">
<path fill-rule="evenodd" clip-rule="evenodd" d="M37.1188 4.62943C38.7787 4.43847 40.2297 4.2193 41.4197 4.02389L41.5646 4H44.0842V3.57201C44.3209 3.53444 44.5136 3.50721 44.6604 3.49274C44.7485 3.48406 44.8183 3.48017 44.8704 3.48109C44.8964 3.48155 44.9166 3.4832 44.9316 3.48564C44.9436 3.48758 44.9495 3.48961 44.951 3.49013L45.0252 2.51033C44.9835 2.48728 44.9274 2.48208 44.8728 2.48111C44.813 2.48005 44.7372 2.48451 44.647 2.49341C44.4662 2.51121 44.2206 2.54751 43.9161 2.59735C43.6551 2.64006 43.34 2.69462 42.9805 2.75685L42.98 2.75693C42.5597 2.8297 42.0789 2.91295 41.5533 3H9.49475V4H23.3693L23.3632 4.00014C21.155 4.05111 19.3679 4.25724 17.6263 4.45814C17.212 4.50593 16.8003 4.55342 16.3861 4.59845C16.2259 4.61587 16.0654 4.63292 15.9041 4.64949C14.3422 4.56393 12.9595 4.46498 11.8777 4.35965C10.6913 4.24414 9.8793 4.12181 9.58442 4.0053L9.53953 4.83491C9.35725 4.82526 9.17205 4.81425 8.98378 4.80181L8.97473 5.80151C9.11779 5.81097 9.25907 5.8196 9.39866 5.82743L9.31713 6.47322C9.37318 6.52489 9.45762 6.55822 9.5494 6.58508C9.64746 6.61377 9.77358 6.63991 9.92474 6.66393C10.2274 6.71203 10.6376 6.75272 11.1389 6.78695C11.2434 6.79408 11.3519 6.80094 11.4643 6.80753C10.1548 6.89256 9.28103 6.97447 9.02063 7.0465L9.0583 8.0413C9.1691 8.01066 9.40126 7.97769 9.73972 7.94309L9.7381 8.02022C9.61831 8.01358 9.49915 8.00685 9.38067 8.00002L9.37278 8.99979C9.43394 9.00331 9.49527 9.00681 9.55678 9.01029L9.51661 9.48755C9.63648 9.56123 9.87263 9.617 10.1917 9.66405C10.5173 9.71205 10.9455 9.75273 11.4611 9.78696C12.4924 9.85544 13.8778 9.89842 15.4994 9.92187C18.743 9.96876 22.9353 9.93749 27.1384 9.87499C32.5613 9.79435 38.0003 9.66175 41.4457 9.57776L41.4476 9.57771C43.3434 9.5315 44.6354 9.5 44.9882 9.5V8.5C44.8412 8.5 44.5313 8.50546 44.0826 8.51518L44.1267 8.08874C44.1497 8.08651 44.1721 8.08424 44.1938 8.08194C44.4132 8.05867 44.5758 8.03083 44.6578 7.99304L44.6217 7.42203C44.6949 7.44479 44.737 7.46564 44.7552 7.47999L44.8591 6.52019C44.8033 6.47609 44.7212 6.44417 44.6267 6.4175V5.55257C44.7739 5.53258 44.8984 5.51479 44.9988 5.49936L44.9778 4.50098C44.8433 4.52164 44.6652 4.54658 44.4471 4.57538L44.438 4.00049C43.1666 4.14702 40.5923 4.4157 37.1188 4.62943ZM39.3766 8.20517C39.7411 8.20504 40.0921 8.20397 40.4279 8.20191C40.9138 8.21234 41.3799 8.24072 41.8128 8.29115C42.2858 8.34624 42.7155 8.42735 43.0866 8.53803C42.6093 8.54937 42.0569 8.56283 41.4409 8.57785C39.4907 8.62538 36.903 8.68845 34.0422 8.74885C35.316 8.53586 36.9722 8.32153 38.5942 8.236C38.8566 8.22217 39.118 8.21171 39.3766 8.20517ZM40.4289 7.2019C40.0854 7.19457 39.7325 7.19614 39.3748 7.20517C37.2363 7.20591 34.634 7.17429 31.9254 7.12009L31.8986 7.11955C34.4731 7.08324 36.8983 7.07108 38.9381 7.09287C40.2215 7.10659 41.3517 7.13374 42.2702 7.17673C41.7381 7.18926 41.1306 7.19745 40.4618 7.2017C40.4508 7.20177 40.4399 7.20184 40.4289 7.2019ZM31.8649 8.1189C29.2686 8.38974 22.8809 8.44596 16.5473 8.28616C18.2624 8.16619 20.1876 8.01277 22.2073 7.83957C25.1569 7.95408 28.587 8.05295 31.8649 8.1189ZM23.5228 5.91709C20.4509 5.94855 17.5259 5.95638 15.1399 5.92188C14.3011 5.90976 13.5291 5.8924 12.841 5.86903C13.9323 5.83197 14.9329 5.74981 15.9074 5.64987C16.0469 5.65751 16.1878 5.66503 16.3301 5.67245C18.5171 5.78642 21.0195 5.87396 23.5228 5.91709ZM27.6654 4.02355C27.2302 4.01518 26.7926 4.00677 26.3551 4H32.8767L32.8726 4.00024C31.2958 4.09336 29.5009 4.05884 27.6654 4.02355Z" fill="#27292A"/>
</svg>
