<svg width="116" height="12" viewBox="0 0 116 12" fill="none" xmlns="http://www.w3.org/2000/svg">
<path d="M7.31641 5.25H0.0664062V6.75H7.31641V5.25Z" fill="#27292A"/>
<path d="M10.4742 5.25H13.6964V6.75H10.4742V5.25Z" fill="#27292A"/>
<path d="M16.9186 5.25H20.1408V6.75H16.9186V5.25Z" fill="#27292A"/>
<path d="M30.613 5.25H23.363V6.75H30.613V5.25Z" fill="#27292A"/>
<path d="M33.7708 5.25H36.993V6.75H33.7708V5.25Z" fill="#27292A"/>
<path d="M40.2152 5.25H43.4374V6.75H40.2152V5.25Z" fill="#27292A"/>
<path d="M46.6597 5.25H53.9097V6.75H46.6597V5.25Z" fill="#27292A"/>
<path d="M60.2897 5.25H57.0675V6.75H60.2897V5.25Z" fill="#27292A"/>
<path d="M66.7341 5.25H63.5118V6.75H66.7341V5.25Z" fill="#27292A"/>
<path d="M77.2063 5.25H69.9563V6.75H77.2063V5.25Z" fill="#27292A"/>
<path d="M80.3641 5.25H83.5863V6.75H80.3641V5.25Z" fill="#27292A"/>
<path d="M86.8085 5.25H90.0307V6.75H86.8085V5.25Z" fill="#27292A"/>
<path d="M93.2529 5.25H100.503V6.75H93.2529V5.25Z" fill="#27292A"/>
<path d="M106.883 5.25H103.661V6.75H106.883V5.25Z" fill="#27292A"/>
<path d="M113.327 5.25H110.105V6.75H113.327V5.25Z" fill="#27292A"/>
</svg>
