<?xml version="1.0" encoding="UTF-8"?>
<svg width="24px" height="24px" viewBox="0 0 24 24" version="1.1" xmlns="http://www.w3.org/2000/svg" xmlns:xlink="http://www.w3.org/1999/xlink">
    <!-- Generator: Sketch 46.2 (44496) - http://www.bohemiancoding.com/sketch -->
    <title>new</title>
    <desc>Created with Sketch.</desc>
    <defs>
        <linearGradient x1="50%" y1="0%" x2="50%" y2="100%" id="linearGradient-1">
            <stop stop-color="#FFFFFF" offset="0%"></stop>
            <stop stop-color="#F5F2F6" offset="100%"></stop>
        </linearGradient>
        <rect id="path-2" x="3" y="3" width="18" height="18" rx="2"></rect>
        <linearGradient x1="50%" y1="0%" x2="50%" y2="98.8560268%" id="linearGradient-3">
            <stop stop-color="#7E7E7E" offset="0%"></stop>
            <stop stop-color="#515151" offset="100%"></stop>
        </linearGradient>
        <path d="M19,13 L16,13 L16,13 C15.4477153,13 15,13.4477153 15,14 C15,14.5522847 15.4477153,15 16,15 L19,15 L19,18 C19,18.5522847 19.4477153,19 20,19 C20.5522847,19 21,18.5522847 21,18 L21,15 L24,15 C24.5522847,15 25,14.5522847 25,14 C25,13.4477153 24.5522847,13 24,13 L21,13 L21,10 C21,9.44771525 20.5522847,9 20,9 C19.4477153,9 19,9.44771525 19,10 L19,10 L19,13 Z" id="path-4"></path>
    </defs>
    <g id="edit-page" stroke="none" stroke-width="1" fill="none" fill-rule="evenodd">
        <g id="new">
            <g id="Group-Copy-8" transform="translate(-2.000000, 0.000000)">
                <rect id="Rectangle" x="0" y="0" width="24" height="24"></rect>
                <g id="Combined-Shape">
                    <use fill="url(#linearGradient-1)" fill-rule="evenodd" xlink:href="#path-2"></use>
                    <rect stroke="#919191" stroke-width="0.5" x="3.25" y="3.25" width="17.5" height="17.5" rx="2"></rect>
                </g>
                <path d="M18.8,12.8 L14,12.8 L14,15.2 L18.8,15.2 L18.8,20 L21.2,20 L21.2,15.2 L26,15.2 L26,12.8 L21.2,12.8 L21.2,8 L18.8,8 L18.8,12.8 Z" id="Combined-Shape-Copy" fill="url(#linearGradient-1)"></path>
                <g id="Combined-Shape-Copy">
                    <use fill="url(#linearGradient-3)" fill-rule="evenodd" xlink:href="#path-4"></use>
                    <path stroke="#444444" stroke-width="0.525" d="M19.2625,10 L19.2625,13.2625 L16,13.2625 C15.59269,13.2625 15.2625,13.59269 15.2625,14 C15.2625,14.40731 15.59269,14.7375 16,14.7375 L19.2625,14.7375 L19.2625,18 C19.2625,18.40731 19.59269,18.7375 20,18.7375 C20.40731,18.7375 20.7375,18.40731 20.7375,18 L20.7375,14.7375 L24,14.7375 C24.40731,14.7375 24.7375,14.40731 24.7375,14 C24.7375,13.59269 24.40731,13.2625 24,13.2625 L20.7375,13.2625 L20.7375,10 C20.7375,9.59269 20.40731,9.2625 20,9.2625 C19.59269,9.2625 19.2625,9.59269 19.2625,10 Z"></path>
                </g>
            </g>
        </g>
    </g>
</svg>