<?xml version="1.0" encoding="UTF-8"?>
<svg width="24px" height="24px" viewBox="0 0 24 24" version="1.1" xmlns="http://www.w3.org/2000/svg" xmlns:xlink="http://www.w3.org/1999/xlink">
    <!-- Generator: Sketch 56 (81588) - https://sketch.com -->
    <title>celebration_king</title>
    <desc>Created with Sketch.</desc>
    <defs>
        <polygon id="path-1" points="0 0 24 0 24 23.9995 0 23.9995"></polygon>
    </defs>
    <g id="celebration_king" stroke="none" stroke-width="1" fill="none" fill-rule="evenodd">
        <g id="Group-14">
            <g id="Group-3">
                <mask id="mask-2" fill="white">
                    <use xlink:href="#path-1"></use>
                </mask>
                <g id="Clip-2"></g>
                <path d="M24,11.9995 C24,18.6275 18.627,23.9995 12,23.9995 C5.373,23.9995 0,18.6275 0,11.9995 C0,5.3725 5.373,-0.0005 12,-0.0005 C18.627,-0.0005 24,5.3725 24,11.9995" id="Fill-1" fill="#297DF8" mask="url(#mask-2)"></path>
            </g>
            <path d="M14.7617,12.7593 L12.0047,6.2963 L9.2487,12.7593 L4.7887,9.3883 L6.4517,16.1893 C6.4957,16.3323 6.6057,16.4413 6.7487,16.4743 C7.4617,16.6383 9.7437,17.1213 12.0047,17.1213 C13.9817,17.1213 16.5057,16.6263 17.2637,16.4673 C17.4077,16.4383 17.5167,16.3333 17.5647,16.1923 L19.4267,9.3883 L14.7617,12.7593 Z" id="Fill-4" fill="#FFFFFF"></path>
            <path d="M5.7314,9.4292 C5.7314,9.9502 5.3094,10.3712 4.7894,10.3712 C4.2684,10.3712 3.8464,9.9502 3.8464,9.4292 C3.8464,8.9082 4.2684,8.4862 4.7894,8.4862 C5.3094,8.4862 5.7314,8.9082 5.7314,9.4292" id="Fill-6" fill="#FFFFFF"></path>
            <path d="M20.3691,9.4292 C20.3691,9.9502 19.9471,10.3712 19.4271,10.3712 C18.9061,10.3712 18.4831,9.9502 18.4831,9.4292 C18.4831,8.9082 18.9061,8.4862 19.4271,8.4862 C19.9471,8.4862 20.3691,8.9082 20.3691,9.4292" id="Fill-8" fill="#FFFFFF"></path>
            <path d="M12.9453,6.3872 C12.9453,6.9082 12.5233,7.3292 12.0033,7.3292 C11.4823,7.3292 11.0603,6.9082 11.0603,6.3872 C11.0603,5.8662 11.4823,5.4452 12.0033,5.4452 C12.5233,5.4452 12.9453,5.8662 12.9453,6.3872" id="Fill-10" fill="#FFFFFF"></path>
            <path d="M17.3848,18.8745 C17.3848,18.8745 14.7388,19.5895 11.9948,19.5895 C9.3528,19.5895 6.6698,18.8745 6.6698,18.8745 L6.6698,17.6055 C6.6698,17.6055 9.3668,18.3205 11.9948,18.3205 C14.4738,18.3205 17.3848,17.6055 17.3848,17.6055 L17.3848,18.8745 Z" id="Fill-12" fill="#FFFFFF"></path>
        </g>
    </g>
</svg>