<svg width="24" height="24" viewBox="0 0 24 24" fill="none" xmlns="http://www.w3.org/2000/svg">
<path fill-rule="evenodd" clip-rule="evenodd" d="M1.3125 12C1.3125 6.098 6.0975 1.312 12.0005 1.312C17.9025 1.312 22.6875 6.098 22.6875 12C22.6875 17.902 17.9025 22.688 12.0005 22.688C6.0975 22.688 1.3125 17.902 1.3125 12" fill="#20C07D"/>
<path d="M7.2725 13.1338L10.6705 16.3588L16.6265 7.2798" stroke="white" stroke-width="2" stroke-linecap="round" stroke-linejoin="round"/>
<path fill-rule="evenodd" clip-rule="evenodd" d="M12 0C5.373 0 0 5.373 0 12C0 18.627 5.373 24 12 24C18.627 24 24 18.627 24 12C24 5.373 18.627 0 12 0M12 1.5C17.79 1.5 22.5 6.21 22.5 12C22.5 17.79 17.79 22.5 12 22.5C6.21 22.5 1.5 17.79 1.5 12C1.5 6.21 6.21 1.5 12 1.5" fill="#20C07D"/>
</svg>
