<svg width="24" height="24" viewBox="0 0 24 24" fill="none" xmlns="http://www.w3.org/2000/svg">
<g opacity="0.9">
<circle cx="12" cy="12" r="12" fill="#FF9D43"/>
</g>
<path d="M14.7843 5.62772C14.8624 5.54961 14.9891 5.54961 15.0672 5.62772L18.0369 8.59749C18.115 8.67559 18.115 8.80222 18.0369 8.88033L9.8893 17.028C9.81119 17.1061 9.68456 17.1061 9.60645 17.028L6.63669 14.0582C6.55858 13.9801 6.55858 13.8535 6.63669 13.7753L14.7843 5.62772Z" fill="white"/>
<path d="M5.70006 14.9618C5.73901 14.8122 5.92571 14.7615 6.03503 14.8708L8.7841 17.6199C8.89341 17.7292 8.84267 17.9159 8.69307 17.9548L4.97635 18.9226C4.82857 18.9611 4.69393 18.8265 4.7324 18.6787L5.70006 14.9618Z" fill="white"/>
<path d="M17.8871 4.299L19.3656 5.77746C19.8555 6.26738 19.9594 6.95783 19.5976 7.31962L18.9384 7.97885C18.8602 8.05696 18.7336 8.05696 18.6555 7.97885L15.6857 5.00909C15.6076 4.93098 15.6076 4.80435 15.6857 4.72624L16.345 4.06701C16.7068 3.70522 17.3972 3.80908 17.8871 4.299Z" fill="white"/>
</svg>
