<svg xmlns="http://www.w3.org/2000/svg" viewBox="0 0 20 20" width="20" height="20"><g class="uk-icon-alternate-dark" fill="none"><path fill-rule="evenodd" clip-rule="evenodd" d="M7 8a2 2 0 0 1 2-2h9a2 2 0 0 1 2 2v4a2 2 0 0 1-2 2H9a2 2 0 0 1-2-2V8Zm2-.5h9a.5.5 0 0 1 .5.5v4a.5.5 0 0 1-.5.5H9a.5.5 0 0 1-.5-.5V8a.5.5 0 0 1 .5-.5Z" fill="#27292A"/><path d="M5.355 10.75a2 2 0 1 1 0-1.5H7v1.5H5.355Z" fill="#27292A"/></g><g class="uk-icon-alternate-default" fill="none"><path fill-rule="evenodd" clip-rule="evenodd" d="M7 8a2 2 0 0 1 2-2h9a2 2 0 0 1 2 2v4a2 2 0 0 1-2 2H9a2 2 0 0 1-2-2V8Zm2-.5h9a.5.5 0 0 1 .5.5v4a.5.5 0 0 1-.5.5H9a.5.5 0 0 1-.5-.5V8a.5.5 0 0 1 .5-.5Z" fill="#27292A"/><path d="M5.355 10.75a2 2 0 1 1 0-1.5H7v1.5H5.355Z" fill="#27292A"/></g></svg>