<svg width="24" height="24" viewBox="0 0 24 24" fill="none" xmlns="http://www.w3.org/2000/svg">
<path fill-rule="evenodd" clip-rule="evenodd" d="M24 12C24 18.627 18.627 24 12 24C5.373 24 0 18.627 0 12C0 5.373 5.373 0 12 0C18.627 0 24 5.373 24 12" fill="#9D9DA0"/>
<path fill-rule="evenodd" clip-rule="evenodd" d="M9.25519 15.7574C9.62556 14.6422 10.1121 13.3325 10.7139 11.8282C10.8529 11.4686 11.1168 10.8484 11.5067 9.96768C12.0237 8.74101 12.3637 7.93081 12.5299 7.53596H7.5V4.5H17.5C16.6474 6.26718 15.9653 7.74533 15.4559 8.93332C14.9465 10.1224 14.2927 11.7622 13.4911 13.8559C13.1685 14.7082 12.8568 15.6413 12.5592 16.6563C12.2616 17.6725 12.0064 18.6193 11.7956 19.5H8.19295C8.53074 18.1208 8.88482 16.8726 9.25519 15.7574" fill="white"/>
</svg>
