<?xml version="1.0" encoding="UTF-8" standalone="no"?>
<svg width="16px" height="16px" viewBox="0 0 16 16" version="1.1" xmlns="http://www.w3.org/2000/svg" xmlns:xlink="http://www.w3.org/1999/xlink">
    <!-- Generator: Sketch 3.7 (28169) - http://www.bohemiancoding.com/sketch -->
    <title>task_9</title>
    <desc>Created with Sketch.</desc>
    <defs>
        <linearGradient x1="50%" y1="0%" x2="50%" y2="98.2342156%" id="linearGradient-1">
            <stop stop-color="#8BBAC1" offset="0%"></stop>
            <stop stop-color="#75A2A9" offset="100%"></stop>
        </linearGradient>
    </defs>
    <g id="最终稿2" stroke="none" stroke-width="1" fill="none" fill-rule="evenodd">
        <g id="task-priority" transform="translate(-21.000000, -23.000000)">
            <g id="task_9" transform="translate(21.000000, 23.000000)">
                <rect id="Rectangle-7-Copy-50" fill="url(#linearGradient-1)" x="0" y="0" width="16" height="16" rx="3"></rect>
                <path d="M6.23659375,4.28027344 C6.76198701,3.71581749 7.44459737,3.43359375 8.28444532,3.43359375 C9.57742053,3.43359375 10.4641304,4.00585365 10.9446016,5.15039062 C11.2180404,5.79883137 11.3547578,6.65233846 11.3547578,7.7109375 C11.3547578,8.73828639 11.2238997,9.59569969 10.9621797,10.2832031 C10.4621772,11.5918034 9.54421762,12.2460938 8.20827344,12.2460938 C7.57155151,12.2460938 6.9992916,12.0576191 6.49147657,11.6806641 C5.98366153,11.3037091 5.69264881,10.7539099 5.61842969,10.03125 L7.28249219,10.03125 C7.32155489,10.2812513 7.42702258,10.4843742 7.59889844,10.640625 C7.7707743,10.7968758 7.99928764,10.875 8.28444532,10.875 C8.83522932,10.875 9.2219442,10.5703155 9.44460157,9.9609375 C9.56569592,9.62499832 9.64186703,9.13476885 9.67311719,8.49023438 C9.52077268,8.68164158 9.35866492,8.82812449 9.18678907,8.9296875 C8.8742875,9.11718844 8.48952573,9.2109375 8.03249219,9.2109375 C7.35670756,9.2109375 6.75710418,8.9775414 6.23366407,8.51074219 C5.71022395,8.04394298 5.44850782,7.37109814 5.44850782,6.4921875 C5.44850782,5.5820267 5.7112005,4.84472938 6.23659375,4.28027344 L6.23659375,4.28027344 Z M9.04616407,7.65234375 C9.42507221,7.41015504 9.61452344,6.99023736 9.61452344,6.39257812 C9.61452344,5.91210697 9.50221988,5.53125141 9.27760938,5.25 C9.05299888,4.96874859 8.74538477,4.828125 8.35475782,4.828125 C8.06960014,4.828125 7.82546196,4.90820232 7.62233594,5.06835938 C7.30202184,5.31836063 7.14186719,5.74218451 7.14186719,6.33984375 C7.14186719,6.84375252 7.24440523,7.22167843 7.44948438,7.47363281 C7.65456353,7.7255872 7.96999006,7.8515625 8.39577344,7.8515625 C8.62624334,7.8515625 8.84303805,7.78515691 9.04616407,7.65234375 L9.04616407,7.65234375 Z" id="9" fill="#FFFFFF"></path>
            </g>
        </g>
    </g>
</svg>