<svg width="24" height="24" viewBox="0 0 24 24" fill="none" xmlns="http://www.w3.org/2000/svg">
<g clip-path="url(#clip0_219_2152)">
<mask id="mask0_219_2152" style="mask-type:alpha" maskUnits="userSpaceOnUse" x="0" y="0" width="24" height="24">
<path fill-rule="evenodd" clip-rule="evenodd" d="M0.000301361 0H24V24H0.000301361V0Z" fill="white"/>
</mask>
<g mask="url(#mask0_219_2152)">
<path d="M24.0003 12C24.0003 18.627 18.6273 24 12.0003 24C5.3723 24 0.000301361 18.627 0.000301361 12C0.000301361 5.373 5.3723 0 12.0003 0C18.6273 0 24.0003 5.373 24.0003 12" fill="#6A4CCD"/>
</g>
<path d="M19.1172 15.5655C18.4502 14.5205 15.6132 13.6925 14.2482 13.3005C13.8432 13.1845 13.5502 12.8415 13.4932 12.4235L13.4592 12.1725C13.4242 11.9125 13.5602 11.6655 13.7852 11.5295C15.4352 10.5395 15.7122 9.17846 15.7052 7.53646C15.6912 4.53146 12.9802 4.06346 12.2052 3.99146C12.0672 3.97746 11.9332 3.97746 11.7952 3.99146C11.0192 4.06346 8.30825 4.53146 8.29525 7.53646C8.28725 9.17846 8.56425 10.5395 10.2142 11.5295C10.4402 11.6655 10.5762 11.9125 10.5412 12.1725L10.5072 12.4235C10.4502 12.8415 10.1572 13.1845 9.75225 13.3005C8.38725 13.6925 5.54925 14.5205 4.88325 15.5655C4.64625 15.9375 4.45325 16.8585 4.70825 17.2815C5.82625 19.1375 8.96425 20.6385 12.0002 20.6275C15.0362 20.6385 18.1732 19.1375 19.2912 17.2815C19.5462 16.8585 19.3542 15.9375 19.1172 15.5655" fill="white"/>
</g>
<defs>
<clipPath id="clip0_219_2152">
<rect width="24" height="24" fill="white"/>
</clipPath>
</defs>
</svg>
