<svg width="56" height="19" viewBox="4.1171875 -5.765625 56 19" version="1.1" xmlns="http://www.w3.org/2000/svg"><path d="M16.2 12L16.2 10.0L17.7 10.0L16.3 6.0L9.4 6.0L8.1 10.0L9.9 10.0L9.9 12L4.1 12L4.1 10.0L5.7 10.0L11.2-5.8L14.7-5.8L20.2 10.0L22.0 10.0L22.0 12L16.2 12ZM12.8-3.9L10.1 4.0L15.6 4.0L12.8-3.9ZM32.0-0.2L32.0 2.4L29.7 2.4L29.7 1.7Q29.4 1.7 29.0 1.8Q28.6 2.0 28.2 2.3Q27.8 2.6 27.6 3.0Q27.3 3.5 27.2 4.1L27.2 4.1L27.2 10.0L29.3 10.0L29.3 12L23.2 12L23.2 10.0L24.9 10.0L24.9 1.9L23.2 1.9L23.2-0.1L27.1-0.1L27.1 1.5Q27.3 1.2 27.6 0.8Q27.9 0.5 28.2 0.3Q28.5 0.0 28.9-0.1Q29.3-0.2 29.7-0.2L29.7-0.2Q30.4-0.2 30.9-0.2Q31.4-0.2 32.0-0.2L32.0-0.2ZM33.6 1.9L33.6-0.1L37.8-0.1L37.8 1.9L36.6 1.9L39.6 10.2L42.5 1.9L41.8 1.9L41.8-0.1L45.6-0.1L45.6 1.9L44.6 1.9L40.6 12.2L38.5 12.2L34.5 1.9L33.6 1.9ZM47.2 5.9L47.2 5.9Q47.2 4.5 47.7 3.3Q48.1 2.1 48.9 1.3Q49.8 0.4 50.9-0.0Q52.0-0.5 53.3-0.5L53.3-0.5Q54.7-0.5 55.8-0.0Q56.9 0.4 57.7 1.3Q58.5 2.1 58.9 3.3Q59.4 4.5 59.4 5.9L59.4 5.9Q59.4 7.3 58.9 8.5Q58.5 9.7 57.7 10.6Q56.9 11.4 55.8 11.9Q54.7 12.4 53.3 12.4L53.3 12.4Q51.9 12.4 50.8 11.9Q49.7 11.4 48.9 10.6Q48.1 9.7 47.7 8.5Q47.2 7.4 47.2 5.9ZM49.5 5.9L49.5 5.9Q49.5 7.0 49.8 7.8Q50.1 8.7 50.6 9.3Q51.2 9.8 51.9 10.2Q52.5 10.5 53.3 10.5L53.3 10.5Q54.1 10.5 54.8 10.2Q55.5 9.9 56.0 9.3Q56.5 8.7 56.8 7.8Q57.1 7.0 57.1 5.9L57.1 5.9Q57.1 4.8 56.8 4.0Q56.5 3.1 56.0 2.5Q55.5 2.0 54.8 1.7Q54.1 1.4 53.3 1.4L53.3 1.4Q52.5 1.4 51.9 1.7Q51.2 2.0 50.6 2.5Q50.1 3.1 49.8 4.0Q49.5 4.8 49.5 5.9Z" fill="foregroundcolor"/></svg>