<svg width="145" height="18" viewBox="3.976 -4.824000000000002 145 18" version="1.1" xmlns="http://www.w3.org/2000/svg"><path d="M15.6 4.0L21.5-4.8L27.4-4.8L24.1 12L19.2 12L21.0 2.8L16.2 10.4L12.5 10.4L10.6 2.8L8.8 12L4.0 12L7.2-4.8L13.1-4.8L15.6 4.0ZM35.2-1.3Q37.3-1.3 38.8-0.6Q40.3 0.2 41.1 1.5Q41.9 2.9 41.9 4.8L41.9 4.8Q41.9 7.0 40.9 8.7Q39.9 10.3 38.1 11.3Q36.2 12.2 33.8 12.2L33.8 12.2Q31.7 12.2 30.2 11.4Q28.7 10.7 27.9 9.3Q27.0 7.9 27.0 6.1L27.0 6.1Q27.0 3.9 28.1 2.2Q29.1 0.5 30.9-0.4Q32.8-1.3 35.2-1.3L35.2-1.3ZM34.7 3.0Q33.8 3.0 33.1 3.8Q32.5 4.6 32.5 5.8L32.5 5.8Q32.5 6.8 33.0 7.4Q33.4 8.0 34.2 8.0L34.2 8.0Q35.2 8.0 35.8 7.2Q36.5 6.4 36.5 5.2L36.5 5.2Q36.5 4.2 36.0 3.6Q35.6 3.0 34.7 3.0L34.7 3.0ZM53.9-1.3Q55.2-1.3 56.2-0.8Q57.1-0.2 57.7 0.8Q58.2 1.8 58.2 3L58.2 3Q58.2 3.5 58.1 4.2L58.1 4.2L56.5 12L51.1 12L52.5 5.0Q52.6 4.7 52.6 4.5L52.6 4.5Q52.6 3.9 52.2 3.5Q51.9 3.2 51.3 3.2L51.3 3.2Q50.6 3.2 49.9 3.9Q49.2 4.6 49.0 5.6L49.0 5.6L47.8 12L42.4 12L45.0-1.1L50.4-1.1L50.1 0.5Q51.7-1.3 53.9-1.3L53.9-1.3ZM66.7 3L65.8 7.2Q65.8 7.5 65.8 7.5L65.8 7.5Q65.8 8.1 66.4 8.1L66.4 8.1Q66.9 8.1 67.9 7.7L67.9 7.7L68.4 11.5Q67.7 11.9 66.7 12.1Q65.7 12.2 64.6 12.2L64.6 12.2Q62.6 12.2 61.5 11.2Q60.3 10.2 60.3 8.5L60.3 8.5Q60.3 8.0 60.4 7.6L60.4 7.6L61.3 3L59.5 3L60.2-0.4L62.0-0.4L62.7-4.1L68.1-4.1L67.3-0.4L70.4-0.4L69.7 3L66.7 3ZM76.6 12.2Q74.6 12.2 72.7 11.5Q70.9 10.9 69.4 9.6L69.4 9.6L71.6 6.6Q72.8 7.5 74.0 8.1Q75.2 8.6 76.2 8.6L76.2 8.6Q77.1 8.6 77.1 8.1L77.1 8.1Q77.1 7.8 76.8 7.7Q76.5 7.5 75.6 7.2L75.6 7.2Q74.4 6.8 73.6 6.3Q72.7 5.9 72.1 5.1Q71.4 4.3 71.4 3.2L71.4 3.2Q71.4 1.9 72.1 0.9Q72.8-0.2 74.1-0.7Q75.3-1.3 77.0-1.3L77.0-1.3Q78.7-1.3 80.5-0.7Q82.2-0.1 83.8 1.0L83.8 1.0L81.5 4.1Q80.2 3.2 79.1 2.7Q78.0 2.3 77.2 2.3L77.2 2.3Q76.9 2.3 76.7 2.4Q76.5 2.5 76.5 2.8L76.5 2.8Q76.5 3.0 76.8 3.2Q77.2 3.4 78.1 3.8L78.1 3.8Q79.3 4.3 80.2 4.7Q81.0 5.1 81.6 5.9Q82.2 6.6 82.2 7.8L82.2 7.8Q82.2 9.1 81.5 10.1Q80.8 11.1 79.6 11.7Q78.3 12.2 76.6 12.2L76.6 12.2ZM91.1-1.3Q93.2-1.3 94.7-0.5Q96.3 0.2 97.1 1.6Q97.9 3.0 97.9 4.8L97.9 4.8Q97.9 5.7 97.7 6.6L97.7 6.6L89.0 6.6Q89.3 8.2 91.1 8.2L91.1 8.2Q92.4 8.2 93.7 7.2L93.7 7.2L96.5 10.0Q94.2 12.2 90.9 12.2L90.9 12.2Q88.7 12.2 87.1 11.4Q85.5 10.7 84.6 9.4Q83.7 8.0 83.7 6.3L83.7 6.3Q83.7 4.1 84.7 2.4Q85.6 0.6 87.3-0.3Q89.0-1.3 91.1-1.3L91.1-1.3ZM92.7 4.2Q92.8 3.8 92.8 3.6L92.8 3.6Q92.8 3.1 92.4 2.7Q92.1 2.4 91.5 2.4L91.5 2.4Q90.9 2.4 90.3 2.8Q89.8 3.3 89.4 4.2L89.4 4.2L92.7 4.2ZM106.0 0.6Q107.7-1.4 110.2-1.4L110.2-1.4L109.6 3.5Q109.1 3.4 108.7 3.4L108.7 3.4Q107.2 3.4 106.2 4.1Q105.2 4.8 104.9 6.0L104.9 6.0L104.9 6.0L103.7 12L98.3 12L100.9-1.1L106.3-1.1L106.0 0.6ZM117.2 0.6Q118.9-1.4 121.4-1.4L121.4-1.4L120.8 3.5Q120.3 3.4 119.9 3.4L119.9 3.4Q118.4 3.4 117.4 4.1Q116.3 4.8 116.1 6.0L116.1 6.0L116.1 6.0L114.9 12L109.5 12L112.1-1.1L117.5-1.1L117.2 0.6ZM125.8 12.2Q124.4 12.2 123.3 11.5Q122.2 10.8 121.6 9.5Q121.0 8.2 121.0 6.5L121.0 6.5Q121.0 4.3 121.9 2.6Q122.8 0.8 124.3-0.3Q125.8-1.3 127.7-1.3L127.7-1.3Q129.0-1.3 129.9-0.8Q130.9-0.3 131.4 0.6L131.4 0.6L131.8-1.1L137.2-1.1L134.5 12L129.1 12L129.4 10.7Q127.8 12.2 125.8 12.2L125.8 12.2ZM128.0 8.2Q128.7 8.2 129.2 7.7Q129.8 7.3 130.1 6.6Q130.4 5.9 130.4 5.1L130.4 5.1Q130.4 4.2 130.0 3.6Q129.5 3.1 128.8 3.1L128.8 3.1Q127.8 3.1 127.1 4.0Q126.4 4.9 126.4 6.1L126.4 6.1Q126.4 7.1 126.8 7.6Q127.2 8.2 128.0 8.2L128.0 8.2ZM145.0 3L144.2 7.2Q144.2 7.5 144.2 7.5L144.2 7.5Q144.2 8.1 144.8 8.1L144.8 8.1Q145.3 8.1 146.3 7.7L146.3 7.7L146.8 11.5Q146.1 11.9 145.1 12.1Q144.0 12.2 143.0 12.2L143.0 12.2Q141.0 12.2 139.8 11.2Q138.7 10.2 138.7 8.5L138.7 8.5Q138.7 8.0 138.8 7.6L138.8 7.6L139.7 3L137.9 3L138.5-0.4L140.3-0.4L141.1-4.1L146.5-4.1L145.7-0.4L148.8-0.4L148.1 3L145.0 3Z" fill="foregroundcolor"/></svg>