<svg width="112" height="18" viewBox="4.234375 -5.390625 112 18" version="1.1" xmlns="http://www.w3.org/2000/svg"><path d="M16.3 10.9L20.0-4.9L20.6-4.9L16.7 12L16.1 12L8.6-3.9L8.5-3.9L4.8 12L4.2 12L8.1-4.9L8.7-4.9L16.3 10.9L16.3 10.9ZM25.4 12.2Q23.1 12.2 21.9 11.0Q20.7 9.9 20.7 7.8L20.7 7.8Q20.7 6.8 20.9 5.8L20.9 5.8Q21.4 4.0 22.4 2.6Q23.4 1.2 24.8 0.4Q26.2-0.4 27.7-0.4L27.7-0.4Q28.9-0.4 29.8 0.2Q30.7 0.7 31.1 1.6Q31.6 2.5 31.6 3.8L31.6 3.8Q31.6 4.4 31.5 5.2L31.5 5.2Q31.3 5.8 31.3 6L31.3 6L21.5 6Q21.3 6.9 21.3 7.7L21.3 7.7Q21.3 9.6 22.3 10.6Q23.4 11.6 25.4 11.6L25.4 11.6Q26.2 11.7 27.3 11.4Q28.4 11.1 29.3 10.5L29.3 10.5L29.3 11.0Q28.4 11.6 27.3 11.9Q26.3 12.2 25.4 12.2L25.4 12.2ZM30.8 5.5Q31.0 4.6 31.0 3.8L31.0 3.8Q31.0 2.1 30.2 1.2Q29.3 0.2 27.7 0.2L27.7 0.2Q26.4 0.2 25.1 0.8Q23.9 1.5 22.9 2.7Q22 3.9 21.6 5.5L21.6 5.5L30.8 5.5ZM37.6 11.1L45.5-0.2L46.2-0.2L37.6 12.1L37.1 12.1L34.1-0.2L34.7-0.2L37.5 11.1L37.6 11.1ZM50.7 12.2Q48.5 12.2 47.3 11.0Q46.0 9.9 46.0 7.8L46.0 7.8Q46.0 6.8 46.3 5.8L46.3 5.8Q46.7 4.0 47.7 2.6Q48.7 1.2 50.1 0.4Q51.5-0.4 53.1-0.4L53.1-0.4Q54.3-0.4 55.1 0.2Q56.0 0.7 56.5 1.6Q56.9 2.5 56.9 3.8L56.9 3.8Q56.9 4.4 56.8 5.2L56.8 5.2Q56.7 5.8 56.6 6L56.6 6L46.8 6Q46.6 6.9 46.6 7.7L46.6 7.7Q46.6 9.6 47.6 10.6Q48.7 11.6 50.7 11.6L50.7 11.6Q51.6 11.7 52.6 11.4Q53.7 11.1 54.6 10.5L54.6 10.5L54.6 11.0Q53.7 11.6 52.6 11.9Q51.6 12.2 50.7 12.2L50.7 12.2ZM56.2 5.5Q56.4 4.6 56.4 3.8L56.4 3.8Q56.4 2.1 55.5 1.2Q54.6 0.2 53.1 0.2L53.1 0.2Q51.7 0.2 50.4 0.8Q49.2 1.5 48.3 2.7Q47.3 3.9 46.9 5.5L46.9 5.5L56.2 5.5ZM61.0 2.3Q61.8 1.0 63.1 0.3Q64.4-0.4 66.2-0.4L66.2-0.4L66.0 0.3Q63.7 0.3 62.3 1.6Q60.8 2.8 60.2 5.5L60.2 5.5L60.2 5.5L58.7 12L58.2 12L61.0-0.2L61.6-0.2L61.0 2.3L61.0 2.3ZM75.3 3.7L84.8-4.9L85.4-4.9L81.5 12L80.9 12L84.7-4.0L84.6-4.0L75.4 4.4L75.1 4.4L69.8-4.0L69.7-4.0L66.0 12L65.4 12L69.4-4.9L69.9-4.9L75.3 3.7ZM88.5-3.5L88.7-4.4L89.6-4.4L89.4-3.5L88.5-3.5ZM85.1 12L87.9-0.2L88.5-0.2L85.7 12L85.1 12ZM96.8-0.4Q98.6-0.4 99.5 0.4Q100.4 1.1 100.4 2.6L100.4 2.6Q100.4 3.4 100.3 4.1L100.3 4.1L98.4 12L97.9 12L99.6 4.3Q99.8 3.4 99.8 2.7L99.8 2.7Q99.8 1.4 99.1 0.8Q98.3 0.2 96.6 0.2L96.6 0.2Q95.6 0.2 94.6 0.7Q93.6 1.2 92.9 2.1Q92.1 3.0 91.8 4.0L91.8 4.0L90.0 12L89.4 12L92.2-0.2L92.8-0.2L92.3 2.1L92.3 2.1Q93.2 0.9 94.4 0.3Q95.6-0.4 96.8-0.4L96.8-0.4ZM91.7 4.3L91.7 4.3Q91.7 4.3 91.7 4.3L91.7 4.3ZM115.1-5.4L115.7-5.4L111.7 12.0L111.1 12.0L111.8 9.2L111.7 9.2Q110.8 10.6 109.4 11.4Q108.0 12.2 106.4 12.2L106.4 12.2Q105.2 12.2 104.3 11.6Q103.4 11.1 102.9 10.1Q102.4 9.1 102.4 7.8L102.4 7.8Q102.4 7.0 102.6 6.1L102.6 6.1Q103.0 4.3 104.1 2.8Q105.1 1.3 106.5 0.5Q107.9-0.4 109.4-0.4L109.4-0.4Q110.9-0.4 111.9 0.5Q112.9 1.4 113.1 2.9L113.1 2.9L113.2 2.9L115.1-5.4ZM106.4 11.6Q107.7 11.6 108.9 11.0Q110.1 10.4 111.0 9.4Q111.9 8.3 112.3 6.9L112.3 6.9L112.6 5.7Q112.7 4.8 112.7 4.2L112.7 4.2Q112.7 3.0 112.3 2.1Q111.9 1.2 111.2 0.7Q110.4 0.2 109.3 0.2L109.3 0.2Q108.1 0.2 106.8 0.9Q105.5 1.7 104.5 3.1Q103.6 4.4 103.2 6.1L103.2 6.1Q103.0 7.0 103.0 7.8L103.0 7.8Q103.0 8.9 103.4 9.8Q103.8 10.7 104.6 11.1Q105.4 11.6 106.4 11.6L106.4 11.6Z" fill="foregroundcolor"/></svg>