<svg width="124" height="18" viewBox="5.848 -5.112000000000002 124 18" version="1.1" xmlns="http://www.w3.org/2000/svg"><path d="M18.0 10.3L19.2-4.9L20.1-4.9L18.8 12L18.0 12L8.0-3.3L6.8 12L5.8 12L7.2-4.9L8.0-4.9L18.0 10.3ZM32.1 0.4L33.1 0.4L32.2 12L31.2 12L31.3 9.8Q30.8 11.0 29.7 11.6Q28.7 12.2 27.4 12.2L27.4 12.2Q25.5 12.2 24.4 11.2Q23.4 10.2 23.4 8.3L23.4 8.3Q23.4 7.9 23.4 7.7L23.4 7.7L24.0 0.4L25.0 0.4L24.4 7.6Q24.4 7.8 24.4 8.2L24.4 8.2Q24.4 11.2 27.3 11.2L27.3 11.2Q29.2 11.2 30.3 10.1Q31.4 9.0 31.5 7.0L31.5 7.0L32.1 0.4ZM42.0 0.1Q44.0 0.1 45.0 1.1Q46.1 2.0 46.1 3.9L46.1 3.9Q46.1 4.3 46.0 4.6L46.0 4.6L45.5 12L44.5 12L45.0 4.7Q45.1 4.4 45.1 4.0L45.1 4.0Q45.1 1.1 42.1 1.1L42.1 1.1Q40.2 1.1 39.1 2.2Q37.9 3.3 37.8 5.2L37.8 5.2L37.2 12L36.2 12L37.1 0.4L38.1 0.4L38.0 2.4Q38.6 1.3 39.6 0.7Q40.7 0.1 42.0 0.1L42.0 0.1ZM50.5 12L49.5 12L50.4 0.4L51.4 0.4L50.5 12ZM50.4-2.9L50.5-4.4L52.0-4.4L51.9-2.9L50.4-2.9ZM56.9 1.2L56.4 8.0Q56.4 8.2 56.4 8.5L56.4 8.5Q56.4 9.8 57.0 10.5Q57.7 11.2 59.0 11.2L59.0 11.2Q59.6 11.2 60.0 11.1L60.0 11.1L59.9 12.0Q59.4 12.1 58.9 12.1L58.9 12.1Q57.2 12.1 56.3 11.2Q55.4 10.3 55.4 8.6L55.4 8.6Q55.4 8.3 55.4 8.2L55.4 8.2L55.9 1.2L53.6 1.2L53.7 0.4L56.0 0.4L56.3-3.2L57.3-3.2L57.0 0.4L60.5 0.4L60.4 1.2L56.9 1.2ZM66.8 12.2Q65.3 12.2 64.2 11.5Q63.0 10.8 62.4 9.5Q61.8 8.3 61.8 6.6L61.8 6.6Q61.8 4.7 62.5 3.2Q63.1 1.7 64.3 0.9Q65.6 0.1 67.2 0.1L67.2 0.1Q69.4 0.1 70.8 1.6Q72.2 3.1 72.2 5.7L72.2 5.7Q72.2 7.6 71.5 9.1Q70.8 10.6 69.6 11.4Q68.4 12.2 66.8 12.2L66.8 12.2ZM66.9 11.2Q68.8 11.2 70.0 9.7Q71.1 8.2 71.1 5.6L71.1 5.6Q71.1 3.5 70.0 2.3Q69.0 1.1 67.1 1.1L67.1 1.1Q65.2 1.1 64.0 2.6Q62.9 4.0 62.9 6.6L62.9 6.6Q62.9 8.8 63.9 10.0Q65.0 11.2 66.9 11.2L66.9 11.2ZM86.5 12.2Q84.5 12.2 83.0 11.7Q81.5 11.1 80.2 9.9L80.2 9.9L80.8 9.1Q82.1 10.2 83.4 10.7Q84.8 11.2 86.5 11.2L86.5 11.2Q88.9 11.2 90.1 10.3Q91.4 9.4 91.4 7.7L91.4 7.7Q91.4 6.7 90.8 6.0Q90.2 5.4 89.3 5.1Q88.4 4.7 86.9 4.3L86.9 4.3Q85.1 3.8 84.0 3.3Q82.9 2.9 82.1 1.9Q81.4 1.0 81.4-0.5L81.4-0.5Q81.4-1.9 82.1-3.0Q82.8-4.0 84.1-4.5Q85.5-5.1 87.3-5.1L87.3-5.1Q89.0-5.1 90.5-4.5Q92.0-4.0 93.1-2.8L93.1-2.8L92.5-2.0Q90.2-4.2 87.3-4.2L87.3-4.2Q84.9-4.2 83.7-3.2Q82.4-2.2 82.4-0.5L82.4-0.5Q82.4 0.6 83.0 1.3Q83.7 2.0 84.6 2.4Q85.6 2.8 87.2 3.3L87.2 3.3Q88.9 3.8 89.9 4.2Q91.0 4.6 91.7 5.5Q92.4 6.3 92.4 7.7L92.4 7.7Q92.4 9.0 91.7 10.1Q91.0 11.1 89.6 11.6Q88.3 12.2 86.5 12.2L86.5 12.2ZM100.6 0.1Q104.4 0.1 104.4 3.8L104.4 3.8Q104.4 4.2 104.3 4.4L104.3 4.4L103.7 12L102.7 12L102.9 9.9Q102.3 11.0 101.3 11.6Q100.3 12.2 99.1 12.2L99.1 12.2Q97.3 12.2 96.2 11.2Q95.1 10.3 95.1 8.9L95.1 8.9Q95.1 7.6 95.8 6.8Q96.5 6.0 98.1 5.7Q99.7 5.4 102.4 5.4L102.4 5.4L103.2 5.4L103.3 4.4Q103.3 4.2 103.3 3.8L103.3 3.8Q103.3 2.4 102.7 1.7Q102.0 1.1 100.6 1.1L100.6 1.1Q98.6 1.1 96.6 2.4L96.6 2.4L96.2 1.5Q97.0 0.8 98.2 0.5Q99.4 0.1 100.6 0.1L100.6 0.1ZM99.1 11.2Q100.7 11.2 101.8 10.1Q103.0 9.0 103.1 7.2L103.1 7.2L103.1 6.3L102.4 6.3Q99.9 6.3 98.5 6.6Q97.2 6.8 96.7 7.3Q96.3 7.9 96.3 8.8L96.3 8.8Q96.3 9.9 97.0 10.5Q97.8 11.2 99.1 11.2L99.1 11.2ZM113.6 0.1Q115.5 0.1 116.6 1.1Q117.6 2.0 117.6 3.9L117.6 3.9Q117.6 4.3 117.6 4.6L117.6 4.6L117.0 12L116.0 12L116.6 4.7Q116.6 4.4 116.6 4.0L116.6 4.0Q116.6 1.1 113.6 1.1L113.6 1.1Q111.7 1.1 110.6 2.2Q109.4 3.3 109.3 5.2L109.3 5.2L108.8 12L107.8 12L108.7 0.4L109.6 0.4L109.5 2.4Q110.1 1.3 111.1 0.7Q112.2 0.1 113.6 0.1L113.6 0.1ZM124.7 12.2Q123.5 12.2 122.3 11.7Q121.2 11.3 120.4 10.6L120.4 10.6L121.0 9.7Q121.9 10.5 122.8 10.8Q123.6 11.2 124.8 11.2L124.8 11.2Q128.1 11.2 128.1 9.0L128.1 9.0Q128.1 8.4 127.7 7.9Q127.3 7.5 126.7 7.2Q126.1 7.0 125.1 6.7L125.1 6.7Q123.9 6.3 123.2 6.0Q122.4 5.7 121.9 5.1Q121.4 4.4 121.4 3.4L121.4 3.4Q121.4 1.9 122.6 1.0Q123.8 0.1 125.7 0.1L125.7 0.1Q126.9 0.1 127.9 0.5Q129.0 0.9 129.6 1.7L129.6 1.7L129.1 2.5Q127.6 1.1 125.8 1.1L125.8 1.1Q124.2 1.1 123.4 1.7Q122.5 2.3 122.5 3.4L122.5 3.4Q122.5 4.4 123.3 4.8Q124.0 5.3 125.5 5.7L125.5 5.7Q126.7 6.0 127.5 6.3Q128.2 6.7 128.7 7.3Q129.2 7.9 129.2 9.0L129.2 9.0Q129.2 10.4 128.0 11.3Q126.8 12.2 124.7 12.2L124.7 12.2Z" fill="foregroundcolor"/></svg>