<svg width="108" height="24" viewBox="6.015625 -5.37890625 108 24" version="1.1" xmlns="http://www.w3.org/2000/svg"><path d="M20.4 1.3L20.4 1.3Q20.4 4.3 19.3 7.0Q18.2 9.6 16.4 10.9Q14.5 12.2 12.1 12.2L12.1 12.2Q9.2 12.2 7.6 10.5Q6.0 8.7 6.0 5.4L6.0 5.4Q6.0 2.4 7.1-0.1Q8.2-2.7 10.1-4.0Q12.0-5.4 14.5-5.4L14.5-5.4Q17.4-5.4 18.9-3.6Q20.4-1.9 20.4 1.3ZM14.3-4.3L14.3-4.3Q12.3-4.3 10.7-3.1Q9.1-1.9 8.2 0.4Q7.2 2.7 7.2 5.3L7.2 5.3Q7.2 8.2 8.5 9.7Q9.8 11.2 12.3 11.2L12.3 11.2Q14.2 11.2 15.8 10.0Q17.3 8.8 18.2 6.5Q19.2 4.1 19.2 1.4L19.2 1.4Q19.2-1.4 17.9-2.8Q16.7-4.3 14.3-4.3ZM27.0 12.2L27.0 12.2Q24.3 12.2 23.7 9.6L23.7 9.6L23.7 9.6Q23.5 10.5 21.9 17.8L21.9 17.8L20.8 17.8L24.7-0.7L25.7-0.7L25.1 2.5L25.2 2.5Q26.3 0.7 27.5-0.2Q28.7-1.0 30.2-1.0L30.2-1.0Q31.8-1.0 32.6 0.1Q33.5 1.2 33.5 3.4L33.5 3.4Q33.5 5.7 32.6 7.8Q31.8 9.8 30.3 11.0Q28.8 12.2 27.0 12.2ZM29.9 0.1L29.9 0.1Q28.9 0.1 27.9 0.8Q26.9 1.4 26.0 2.7Q25.1 4.0 24.7 5.5Q24.3 7.0 24.3 7.9L24.3 7.9Q24.3 9.4 25.0 10.3Q25.7 11.2 27.0 11.2L27.0 11.2Q28.4 11.2 29.6 10.2Q30.8 9.2 31.5 7.3Q32.3 5.5 32.3 3.5L32.3 3.5Q32.3 0.1 29.9 0.1ZM40.1 12.2L40.1 12.2Q38.1 12.2 37.0 11.0Q35.8 9.7 35.8 7.4L35.8 7.4Q35.8 5.3 36.6 3.3Q37.5 1.4 38.9 0.2Q40.4-0.9 42.2-0.9L42.2-0.9Q43.5-0.9 44.3-0.2Q45.1 0.5 45.1 1.7L45.1 1.7Q45.1 3.8 43.2 5.0Q41.3 6.1 37.5 6.1L37.5 6.1L37.1 6.1Q37.0 6.6 37.0 7.2L37.0 7.2Q37.0 9.2 37.9 10.2Q38.8 11.2 40.4 11.2L40.4 11.2Q41.9 11.2 43.6 10.3L43.6 10.3L43.6 11.4Q42.0 12.2 40.1 12.2ZM42.0 0.1L42.0 0.1Q40.5 0.1 39.2 1.4Q37.8 2.8 37.3 5.0L37.3 5.0L37.8 5.0Q43.9 5.0 43.9 1.9L43.9 1.9Q43.9 1.1 43.4 0.6Q42.9 0.1 42.0 0.1ZM55.6 12L54.4 12L56.2 3.9Q56.4 2.8 56.4 2.1L56.4 2.1Q56.4 1.1 55.9 0.6Q55.4 0.1 54.4 0.1L54.4 0.1Q53.0 0.1 51.9 0.9Q50.7 1.6 49.9 3.1Q49.2 4.5 48.7 6.4L48.7 6.4L47.5 12L46.4 12L49.1-0.7L50.1-0.7L49.6 1.9L49.7 1.9Q51.6-0.9 54.6-0.9L54.6-0.9Q56.1-0.9 56.9-0.2Q57.6 0.6 57.6 2.0L57.6 2.0Q57.6 2.8 57.3 4.1L57.3 4.1L55.6 12ZM75.6 7.3L75.6 7.3Q75.6 8.8 74.8 9.9Q74.1 11.1 72.7 11.6Q71.4 12.2 69.6 12.2L69.6 12.2Q68.6 12.2 67.6 12.0Q66.6 11.8 65.6 11.4L65.6 11.4L65.6 10.1Q67.5 11.2 69.6 11.2L69.6 11.2Q71.8 11.2 73.1 10.1Q74.4 9.1 74.4 7.4L74.4 7.4Q74.4 6.7 74.2 6.2Q74.0 5.7 73.5 5.3Q73.1 4.9 72.5 4.5Q71.8 4.1 70.9 3.6L70.9 3.6Q69.2 2.7 68.5 1.7Q67.8 0.6 67.8-0.7L67.8-0.7Q67.8-2.1 68.5-3.2Q69.2-4.2 70.4-4.8Q71.7-5.4 73.2-5.4L73.2-5.4Q74.3-5.4 75.3-5.2Q76.2-5.0 77.3-4.5L77.3-4.5L76.9-3.4Q76.1-3.8 75.1-4.1Q74.1-4.4 73.2-4.4L73.2-4.4Q71.3-4.4 70.1-3.4Q69.0-2.4 69.0-0.8L69.0-0.8Q69.0 0.4 69.6 1.1Q70.2 1.9 71.7 2.7L71.7 2.7Q73.5 3.6 74.2 4.2Q74.9 4.8 75.3 5.6Q75.6 6.3 75.6 7.3ZM84.8-0.9L84.8-0.9Q87.5-0.9 88.0 1.6L88.0 1.6L88.1 1.6L88.8-0.7L89.7-0.7L87.0 12L86.1 12L86.6 8.8L86.5 8.8Q85.6 10.5 84.3 11.3Q83.1 12.2 81.6 12.2L81.6 12.2Q78.3 12.2 78.3 7.9L78.3 7.9Q78.3 5.5 79.2 3.4Q80.0 1.3 81.5 0.2Q83.0-0.9 84.8-0.9ZM81.8 11.2L81.8 11.2Q82.9 11.2 83.9 10.5Q85.0 9.7 85.8 8.5Q86.6 7.3 87.0 5.8Q87.5 4.3 87.5 3.3L87.5 3.3Q87.5 2.4 87.2 1.7Q86.9 0.9 86.3 0.5Q85.7 0.1 84.8 0.1L84.8 0.1Q83.3 0.1 82.2 1.0Q81.0 2.0 80.2 3.9Q79.5 5.8 79.5 7.7L79.5 7.7Q79.5 9.5 80.1 10.3Q80.7 11.2 81.8 11.2ZM100.5 12L99.3 12L101.1 3.9Q101.3 2.8 101.3 2.1L101.3 2.1Q101.3 1.1 100.8 0.6Q100.3 0.1 99.2 0.1L99.2 0.1Q97.9 0.1 96.7 0.9Q95.6 1.6 94.8 3.1Q94.0 4.5 93.6 6.4L93.6 6.4L92.4 12L91.2 12L94.0-0.7L94.9-0.7L94.5 1.9L94.6 1.9Q96.5-0.9 99.4-0.9L99.4-0.9Q100.9-0.9 101.7-0.2Q102.5 0.6 102.5 2.0L102.5 2.0Q102.5 2.8 102.2 4.1L102.2 4.1L100.5 12ZM112.1 8.5L112.1 8.5Q112.1 10.2 110.9 11.2Q109.7 12.2 107.6 12.2L107.6 12.2Q105.6 12.2 104.0 11.4L104.0 11.4L104.0 10.1Q104.9 10.6 105.8 10.9Q106.8 11.2 107.6 11.2L107.6 11.2Q109.2 11.2 110.0 10.6Q110.9 9.9 110.9 8.6L110.9 8.6Q110.9 8.1 110.7 7.8Q110.5 7.4 110.1 7.0Q109.7 6.7 108.6 6.0L108.6 6.0Q106.8 5.1 106.2 4.3Q105.6 3.6 105.6 2.5L105.6 2.5Q105.6 1.0 106.8 0.0Q107.9-0.9 109.8-0.9L109.8-0.9Q110.7-0.9 111.7-0.7Q112.7-0.5 113.3-0.2L113.3-0.2L112.9 0.8Q111.3 0.1 109.8 0.1L109.8 0.1Q108.5 0.1 107.6 0.7Q106.8 1.3 106.8 2.3L106.8 2.3Q106.8 3.0 107.0 3.4Q107.2 3.8 107.7 4.2Q108.2 4.6 109.1 5.1L109.1 5.1Q110.5 5.8 111.0 6.3Q111.6 6.8 111.8 7.3Q112.1 7.8 112.1 8.5Z" fill="foregroundcolor"/></svg>