<svg width="76" height="19" viewBox="4.0234375 -6 76 19" version="1.1" xmlns="http://www.w3.org/2000/svg"><path d="M13.2 12L11.3 6.0L9.1 6.0L8.0 12L4.0 12L7.0-5.1L13-5.1Q15.9-5.1 17.5-3.7Q19.0-2.3 18.9 0L18.9 0Q18.7 1.9 17.8 3.1Q16.9 4.3 15.2 5.0L15.2 5.0L17.5 11.8L17.5 12L13.2 12ZM10.4-1.9L9.6 2.8L12.0 2.8Q12.9 2.8 13.6 2.4Q14.3 1.9 14.7 1.1Q15.0 0.3 14.8-0.5L14.8-0.5Q14.6-1.8 13.2-1.9L13.2-1.9L10.4-1.9ZM26.5-0.9L26.5-0.9Q28.2-0.9 29.5-0.1Q30.7 0.8 31.3 2.2Q31.9 3.7 31.7 5.5L31.7 5.5L31.7 5.8Q31.4 8.7 29.5 10.5Q27.7 12.3 25.0 12.2L25.0 12.2Q23.3 12.2 22.1 11.4Q20.8 10.6 20.2 9.1Q19.7 7.7 19.8 5.9L19.8 5.9Q20.1 2.7 22.0 0.9Q23.8-1.0 26.5-0.9ZM23.7 5.9L23.7 5.9L23.6 6.6Q23.5 9.2 25.2 9.2L25.2 9.2Q27.5 9.3 27.9 5.5L27.9 5.5L27.9 4.5Q27.9 3.4 27.5 2.8Q27.1 2.1 26.3 2.1L26.3 2.1Q25.2 2.1 24.5 3.0Q23.9 3.9 23.7 5.9ZM44.9 5.4L44.9 5.7Q44.5 8.8 43.0 10.5Q41.6 12.3 39.2 12.2L39.2 12.2Q37.4 12.2 36.3 10.7L36.3 10.7L35.9 12L32.4 12L35.5-6L39.4-6L38.1 0.4Q39.4-0.9 40.9-0.9L40.9-0.9Q42.8-0.9 43.9 0.4Q44.9 1.7 45.0 4.0L45.0 4.0Q45.0 4.7 44.9 5.4L44.9 5.4ZM41.0 5.7L41.0 5.4Q41.1 4.7 41.1 4.1L41.1 4.1Q41.1 2.2 39.8 2.1L39.8 2.1Q38.6 2.1 37.8 3.1L37.8 3.1L36.9 8.2Q37.2 9.2 38.5 9.2L38.5 9.2Q40.4 9.3 40.8 6.7L40.8 6.7L41.0 5.7ZM53.0-0.9L53.0-0.9Q54.7-0.9 55.9-0.1Q57.1 0.8 57.7 2.2Q58.3 3.7 58.1 5.5L58.1 5.5L58.1 5.8Q57.8 8.7 55.9 10.5Q54.1 12.3 51.4 12.2L51.4 12.2Q49.7 12.2 48.5 11.4Q47.3 10.6 46.7 9.1Q46.1 7.7 46.2 5.9L46.2 5.9Q46.5 2.7 48.4 0.9Q50.2-1.0 53.0-0.9ZM50.1 5.9L50.1 5.9L50.1 6.6Q49.9 9.2 51.6 9.2L51.6 9.2Q53.9 9.3 54.3 5.5L54.3 5.5L54.3 4.5Q54.4 3.4 53.9 2.8Q53.5 2.1 52.7 2.1L52.7 2.1Q51.6 2.1 51.0 3.0Q50.3 3.9 50.1 5.9ZM62.1-3.8L66.0-3.8L65.4-0.7L67.5-0.7L67.0 2.1L65.0 2.1L64.0 7.9Q63.9 8.5 64.1 8.8Q64.2 9.1 64.8 9.1L64.8 9.1Q65.1 9.1 65.9 9.1L65.9 9.1L65.6 11.9Q64.6 12.2 63.5 12.2L63.5 12.2Q61.7 12.2 60.8 11.2Q59.9 10.1 60.1 8.4L60.1 8.4L61.1 2.1L59.5 2.1L60.0-0.7L61.6-0.7L62.1-3.8ZM73.9-0.9L73.9-0.9Q75.6-0.9 76.9-0.1Q78.1 0.8 78.7 2.2Q79.3 3.7 79.1 5.5L79.1 5.5L79.1 5.8Q78.7 8.7 76.9 10.5Q75.1 12.3 72.4 12.2L72.4 12.2Q70.7 12.2 69.4 11.4Q68.2 10.6 67.6 9.1Q67.0 7.7 67.2 5.9L67.2 5.9Q67.5 2.7 69.3 0.9Q71.2-1.0 73.9-0.9ZM71.0 5.9L71.0 5.9L71.0 6.6Q70.8 9.2 72.6 9.2L72.6 9.2Q74.9 9.3 75.2 5.5L75.2 5.5L75.3 4.5Q75.3 3.4 74.9 2.8Q74.5 2.1 73.7 2.1L73.7 2.1Q72.6 2.1 71.9 3.0Q71.2 3.9 71.0 5.9Z" fill="foregroundcolor"/></svg>