<svg width="67" height="18" viewBox="5.848 -5.039999999999999 67 18" version="1.1" xmlns="http://www.w3.org/2000/svg"><path d="M19.6-5.0Q19.8-5.0 20.0-4.9Q20.1-4.7 20.1-4.5L20.1-4.5L18.9 11.6Q18.8 12.1 18.4 12.1L18.4 12.1Q18.2 12.1 18.1 12.0Q18.0 11.9 17.8 11.8L17.8 11.8L8.0-3.3L6.8 11.7Q6.8 12.1 6.3 12.1L6.3 12.1Q6.1 12.1 6.0 12.0Q5.8 11.8 5.8 11.6L5.8 11.6L7.1-4.5Q7.1-5.0 7.6-5.0L7.6-5.0Q7.9-5.0 8.2-4.7L8.2-4.7L18.0 10.3L19.2-4.6Q19.2-5.0 19.6-5.0L19.6-5.0ZM32.6 0.1Q33.1 0.1 33.1 0.7L33.1 0.7L32.2 11.6Q32.2 11.9 32.0 12Q31.8 12.1 31.6 12.1L31.6 12.1Q31.2 12.1 31.2 11.6L31.2 11.6L31.3 9.8Q30.8 11.0 29.7 11.6Q28.7 12.2 27.4 12.2L27.4 12.2Q25.5 12.2 24.4 11.2Q23.4 10.2 23.4 8.3L23.4 8.3Q23.4 7.9 23.4 7.7L23.4 7.7L24.0 0.7Q24.0 0.1 24.5 0.1L24.5 0.1Q25.0 0.1 25.0 0.7L25.0 0.7L24.4 7.6Q24.4 7.8 24.4 8.2L24.4 8.2Q24.4 11.2 27.3 11.2L27.3 11.2Q29.2 11.2 30.3 10.1Q31.4 9.0 31.5 7.0L31.5 7.0L32.1 0.7Q32.1 0.1 32.6 0.1L32.6 0.1ZM42.0 0.1Q44.0 0.1 45.0 1.1Q46.1 2.0 46.1 3.9L46.1 3.9Q46.1 4.3 46.0 4.6L46.0 4.6L45.5 11.6Q45.5 11.9 45.3 12.0Q45.2 12.1 45.0 12.1L45.0 12.1Q44.8 12.1 44.6 12.0Q44.5 11.9 44.5 11.6L44.5 11.6L45.0 4.7Q45.1 4.4 45.1 4.0L45.1 4.0Q45.1 1.1 42.1 1.1L42.1 1.1Q40.2 1.1 39.1 2.2Q37.9 3.3 37.8 5.2L37.8 5.2L37.2 11.6Q37.2 11.9 37.1 12.0Q36.9 12.1 36.7 12.1L36.7 12.1Q36.5 12.1 36.4 12.0Q36.2 11.9 36.2 11.6L36.2 11.6L37.1 0.6Q37.1 0.4 37.3 0.3Q37.5 0.1 37.7 0.1L37.7 0.1Q38.1 0.1 38.1 0.6L38.1 0.6L38.0 2.4Q38.6 1.3 39.6 0.7Q40.7 0.1 42.0 0.1L42.0 0.1ZM50.0 12.1Q49.5 12.1 49.5 11.6L49.5 11.6L50.4 0.6Q50.4 0.4 50.6 0.3Q50.7 0.1 50.9 0.1L50.9 0.1Q51.4 0.1 51.4 0.6L51.4 0.6L50.5 11.6Q50.5 12.1 50.0 12.1L50.0 12.1ZM51.3-2.7Q50.9-2.7 50.6-3.0Q50.4-3.2 50.4-3.6L50.4-3.6Q50.4-4.0 50.6-4.2Q50.9-4.5 51.3-4.5L51.3-4.5Q51.6-4.5 51.9-4.2Q52.1-4.0 52.1-3.6L52.1-3.6Q52.1-3.2 51.9-3.0Q51.6-2.7 51.3-2.7L51.3-2.7ZM60.2 0.4Q60.3 0.4 60.4 0.5Q60.5 0.6 60.5 0.8L60.5 0.8Q60.5 1.0 60.4 1.1Q60.3 1.2 60.2 1.2L60.2 1.2L56.9 1.2L56.4 8.0Q56.4 8.2 56.4 8.5L56.4 8.5Q56.4 9.8 57.0 10.5Q57.6 11.2 58.7 11.2L58.7 11.2Q59.1 11.2 59.3 11.2Q59.6 11.1 59.7 11.1L59.7 11.1Q60.1 11.1 60.1 11.6L60.1 11.6Q60.1 11.9 59.8 12.0Q59.5 12.1 58.6 12.1L58.6 12.1Q57.1 12.1 56.2 11.2Q55.4 10.3 55.4 8.6L55.4 8.6Q55.4 8.3 55.4 8.2L55.4 8.2L55.9 1.2L54.0 1.2Q53.8 1.2 53.7 1.1Q53.6 1.0 53.6 0.8L53.6 0.8Q53.6 0.6 53.7 0.5Q53.8 0.4 53.9 0.4L53.9 0.4L56.0 0.4L56.2-2.8Q56.2-3.0 56.4-3.2Q56.5-3.3 56.8-3.3L56.8-3.3Q57.0-3.3 57.1-3.2Q57.3-3.0 57.2-2.8L57.2-2.8L57.0 0.4L60.2 0.4ZM66.8 12.2Q65.3 12.2 64.2 11.5Q63.0 10.8 62.4 9.5Q61.8 8.3 61.8 6.6L61.8 6.6Q61.8 4.7 62.5 3.2Q63.1 1.7 64.3 0.9Q65.6 0.1 67.2 0.1L67.2 0.1Q69.4 0.1 70.8 1.6Q72.2 3.1 72.2 5.7L72.2 5.7Q72.2 7.6 71.5 9.1Q70.8 10.6 69.6 11.4Q68.4 12.2 66.8 12.2L66.8 12.2ZM66.9 11.2Q68.8 11.2 70.0 9.7Q71.1 8.2 71.1 5.6L71.1 5.6Q71.1 3.5 70.0 2.3Q69.0 1.1 67.1 1.1L67.1 1.1Q65.2 1.1 64.0 2.6Q62.9 4.0 62.9 6.6L62.9 6.6Q62.9 8.8 63.9 10.0Q65.0 11.2 66.9 11.2L66.9 11.2Z" fill="foregroundcolor"/></svg>