<svg width="174" height="19" viewBox="5.9921875 -6 174 19" version="1.1" xmlns="http://www.w3.org/2000/svg"><path d="M14.7 12L11.3 4.9L7.3 4.9L7.3 12L6.0 12L6.0-5.1L10.7-5.1Q13-5.1 14.3-3.7Q15.6-2.4 15.6-0.0L15.6-0.0Q15.6 1.6 14.8 2.9Q14.0 4.1 12.6 4.6L12.6 4.6L16.2 11.8L16.2 12L14.7 12ZM7.3-3.8L7.3 3.7L10.9 3.7Q12.4 3.7 13.3 2.6Q14.2 1.6 14.2-0.0L14.2-0.0Q14.2-1.8 13.3-2.8Q12.3-3.8 10.7-3.8L10.7-3.8L7.3-3.8ZM18.4 6.5L18.4 5.0Q18.4 2.3 19.7 0.7Q20.9-0.9 23.1-0.9L23.1-0.9Q25.2-0.9 26.5 0.7Q27.7 2.2 27.7 5.0L27.7 5.0L27.7 6.3Q27.7 9.1 26.5 10.7Q25.2 12.2 23.1 12.2Q21.0 12.2 19.7 10.7Q18.5 9.2 18.4 6.5L18.4 6.5ZM19.8 4.9L19.8 6.3Q19.8 8.5 20.6 9.8Q21.5 11.0 23.1 11.0L23.1 11.0Q24.7 11.0 25.5 9.8Q26.4 8.6 26.4 6.4L26.4 6.4L26.4 5.0Q26.4 2.8 25.5 1.6Q24.6 0.3 23.1 0.3L23.1 0.3Q21.6 0.3 20.7 1.5Q19.8 2.8 19.8 4.9L19.8 4.9ZM39.4 4.9L39.4 6.3Q39.4 9.2 38.3 10.7Q37.3 12.2 35.3 12.2L35.3 12.2Q33.1 12.2 32.0 10.3L32.0 10.3L31.9 12L30.7 12L30.7-6L32.0-6L32.0 1.1Q33.1-0.9 35.3-0.9L35.3-0.9Q37.3-0.9 38.3 0.5Q39.3 2.0 39.4 4.9L39.4 4.9ZM38.1 6.3L38.1 5.1Q38.1 2.7 37.4 1.5Q36.6 0.3 35.0 0.3L35.0 0.3Q32.8 0.3 32.0 2.6L32.0 2.6L32.0 8.9Q32.4 9.9 33.2 10.4Q33.9 11.0 35.0 11.0L35.0 11.0Q36.6 11.0 37.3 9.9Q38.1 8.7 38.1 6.3L38.1 6.3ZM41.9 6.5L41.9 5.0Q41.9 2.3 43.1 0.7Q44.4-0.9 46.5-0.9L46.5-0.9Q48.7-0.9 49.9 0.7Q51.1 2.2 51.2 5.0L51.2 5.0L51.2 6.3Q51.2 9.1 49.9 10.7Q48.7 12.2 46.5 12.2Q44.4 12.2 43.2 10.7Q41.9 9.2 41.9 6.5L41.9 6.5ZM43.2 4.9L43.2 6.3Q43.2 8.5 44.1 9.8Q45.0 11.0 46.5 11.0L46.5 11.0Q48.1 11.0 49.0 9.8Q49.8 8.6 49.9 6.4L49.9 6.4L49.9 5.0Q49.9 2.8 49.0 1.6Q48.1 0.3 46.5 0.3L46.5 0.3Q45.0 0.3 44.1 1.5Q43.2 2.8 43.2 4.9L43.2 4.9ZM54.8-3.9L56.1-3.9L56.1-0.7L58.3-0.7L58.3 0.5L56.1 0.5L56.1 8.9Q56.1 10.0 56.4 10.5Q56.7 11.0 57.5 11.0L57.5 11.0Q57.8 11.0 58.4 10.9L58.4 10.9L58.4 12.0Q58.0 12.2 57.2 12.2L57.2 12.2Q54.9 12.2 54.8 9.1L54.8 9.1L54.8 0.5L52.9 0.5L52.9-0.7L54.8-0.7L54.8-3.9ZM60.4 6.5L60.4 5.0Q60.4 2.3 61.6 0.7Q62.9-0.9 65.0-0.9L65.0-0.9Q67.2-0.9 68.4 0.7Q69.6 2.2 69.7 5.0L69.7 5.0L69.7 6.3Q69.7 9.1 68.4 10.7Q67.2 12.2 65.0 12.2Q62.9 12.2 61.7 10.7Q60.4 9.2 60.4 6.5L60.4 6.5ZM61.7 4.9L61.7 6.3Q61.7 8.5 62.6 9.8Q63.5 11.0 65.0 11.0L65.0 11.0Q66.6 11.0 67.5 9.8Q68.3 8.6 68.4 6.4L68.4 6.4L68.4 5.0Q68.4 2.8 67.5 1.6Q66.6 0.3 65.0 0.3L65.0 0.3Q63.5 0.3 62.6 1.5Q61.7 2.8 61.7 4.9L61.7 4.9ZM87.2 6.7L88.6 6.7Q88.4 9.6 87.0 10.9Q85.7 12.2 83.3 12.2L83.3 12.2Q80.8 12.2 79.4 10.4Q77.9 8.5 77.9 5.3L77.9 5.3L77.9 1.6Q77.9-1.6 79.4-3.5Q80.8-5.3 83.4-5.3L83.4-5.3Q85.8-5.3 87.1-3.9Q88.4-2.6 88.6 0.3L88.6 0.3L87.2 0.3Q87.0-2.0 86.1-3.0Q85.2-4.0 83.4-4.0L83.4-4.0Q81.4-4.0 80.3-2.6Q79.3-1.1 79.3 1.6L79.3 1.6L79.3 5.3Q79.3 8.0 80.3 9.5Q81.4 11.0 83.3 11.0L83.3 11.0Q85.2 11.0 86.1 10.0Q87.0 9 87.2 6.7L87.2 6.7ZM91.1 6.5L91.1 5.0Q91.1 2.3 92.4 0.7Q93.6-0.9 95.8-0.9L95.8-0.9Q97.9-0.9 99.2 0.7Q100.4 2.2 100.4 5.0L100.4 5.0L100.4 6.3Q100.4 9.1 99.2 10.7Q97.9 12.2 95.8 12.2Q93.7 12.2 92.4 10.7Q91.2 9.2 91.1 6.5L91.1 6.5ZM92.4 4.9L92.4 6.3Q92.4 8.5 93.3 9.8Q94.2 11.0 95.8 11.0L95.8 11.0Q97.4 11.0 98.2 9.8Q99.1 8.6 99.1 6.4L99.1 6.4L99.1 5.0Q99.1 2.8 98.2 1.6Q97.3 0.3 95.8 0.3L95.8 0.3Q94.2 0.3 93.4 1.5Q92.5 2.8 92.4 4.9L92.4 4.9ZM103.4-0.7L104.6-0.7L104.7 1.3Q105.2 0.3 106.1-0.3Q107.0-0.9 108.1-0.9L108.1-0.9Q111.4-0.9 111.5 3.5L111.5 3.5L111.5 12L110.2 12L110.2 3.6Q110.2 1.9 109.6 1.1Q109.0 0.3 107.8 0.3L107.8 0.3Q106.8 0.3 105.9 1.1Q105.1 1.9 104.7 3.2L104.7 3.2L104.7 12L103.4 12L103.4-0.7ZM114.5 6.4L114.5 5.1Q114.5 2.1 115.5 0.6Q116.6-0.9 118.6-0.9L118.6-0.9Q120.8-0.9 121.8 1.0L121.8 1.0L121.8-6L123.1-6L123.1 12L121.9 12L121.9 10.4Q120.8 12.2 118.6 12.2L118.6 12.2Q116.6 12.2 115.6 10.7Q114.5 9.2 114.5 6.4L114.5 6.4ZM115.8 5.0L115.8 6.3Q115.8 8.7 116.5 9.8Q117.3 11.0 118.9 11.0L118.9 11.0Q120.9 11.0 121.8 9.0L121.8 9.0L121.8 2.5Q121.0 0.3 118.9 0.3L118.9 0.3Q117.3 0.3 116.6 1.5Q115.8 2.6 115.8 5.0L115.8 5.0ZM130.8 12.2L130.8 12.2Q128.6 12.2 127.3 10.8Q126.1 9.3 126.1 6.6L126.1 6.6L126.1 5.1Q126.1 2.3 127.3 0.7Q128.5-0.9 130.6-0.9L130.6-0.9Q132.7-0.9 133.8 0.4Q134.9 1.8 134.9 4.6L134.9 4.6L134.9 5.8L127.3 5.8L127.3 6.5Q127.3 8.7 128.3 9.9Q129.2 11.0 130.9 11.0L130.9 11.0Q132.8 11.0 133.9 9.7L133.9 9.7L134.6 10.5Q133.4 12.2 130.8 12.2ZM130.6 0.3L130.6 0.3Q129.1 0.3 128.3 1.4Q127.4 2.5 127.4 4.6L127.4 4.6L133.6 4.6L133.6 4.2Q133.5 0.3 130.6 0.3ZM137.6-0.7L138.9-0.7L138.9 1.3Q139.5 0.3 140.4-0.3Q141.2-0.9 142.3-0.9L142.3-0.9Q145.7-0.9 145.7 3.5L145.7 3.5L145.7 12L144.4 12L144.4 3.6Q144.4 1.9 143.9 1.1Q143.3 0.3 142.0 0.3L142.0 0.3Q141.0 0.3 140.2 1.1Q139.4 1.9 138.9 3.2L138.9 3.2L138.9 12L137.6 12L137.6-0.7ZM155.5 8.9L155.5 8.9Q155.5 8.1 154.9 7.4Q154.2 6.8 152.6 6.1Q150.9 5.4 150.3 4.9Q149.6 4.4 149.3 3.8Q149.0 3.2 149.0 2.5L149.0 2.5Q149.0 1.0 150.1 0.0Q151.1-0.9 152.8-0.9L152.8-0.9Q154.6-0.9 155.7 0.1Q156.8 1.1 156.8 2.8L156.8 2.8L155.5 2.8Q155.5 1.7 154.7 1.0Q154 0.3 152.8 0.3L152.8 0.3Q151.7 0.3 151.0 0.9Q150.3 1.5 150.3 2.4L150.3 2.4Q150.3 3.2 150.8 3.7Q151.4 4.1 153.1 5.0L153.1 5.0Q154.8 5.7 155.5 6.2Q156.2 6.7 156.5 7.4Q156.8 8.0 156.8 8.8L156.8 8.8Q156.8 10.4 155.8 11.3Q154.7 12.2 152.9 12.2L152.9 12.2Q151 12.2 149.8 11.2Q148.7 10.2 148.7 8.5L148.7 8.5L150.0 8.5Q150.0 9.7 150.8 10.4Q151.5 11.0 152.9 11.0L152.9 11.0Q154.1 11.0 154.8 10.4Q155.5 9.9 155.5 8.9ZM164.1 12.2L164.1 12.2Q161.9 12.2 160.6 10.8Q159.3 9.3 159.3 6.6L159.3 6.6L159.3 5.1Q159.3 2.3 160.5 0.7Q161.7-0.9 163.9-0.9L163.9-0.9Q165.9-0.9 167.0 0.4Q168.1 1.8 168.1 4.6L168.1 4.6L168.1 5.8L160.6 5.8L160.6 6.5Q160.6 8.7 161.5 9.9Q162.4 11.0 164.1 11.0L164.1 11.0Q166.0 11.0 167.2 9.7L167.2 9.7L167.9 10.5Q166.6 12.2 164.1 12.2ZM163.9 0.3L163.9 0.3Q162.3 0.3 161.5 1.4Q160.7 2.5 160.6 4.6L160.6 4.6L166.8 4.6L166.8 4.2Q166.7 0.3 163.9 0.3ZM170.4 6.4L170.4 5.1Q170.4 2.1 171.5 0.6Q172.5-0.9 174.6-0.9L174.6-0.9Q176.7-0.9 177.8 1.0L177.8 1.0L177.8-6L179.1-6L179.1 12L177.9 12L177.8 10.4Q176.7 12.2 174.5 12.2L174.5 12.2Q172.5 12.2 171.5 10.7Q170.4 9.2 170.4 6.4L170.4 6.4ZM171.7 5.0L171.7 6.3Q171.7 8.7 172.5 9.8Q173.2 11.0 174.8 11.0L174.8 11.0Q176.9 11.0 177.8 9.0L177.8 9.0L177.8 2.5Q176.9 0.3 174.8 0.3L174.8 0.3Q173.2 0.3 172.5 1.5Q171.8 2.6 171.7 5.0L171.7 5.0Z" fill="foregroundcolor"/></svg>