<svg width="75" height="19" viewBox="5.734375 -6 75 19" version="1.1" xmlns="http://www.w3.org/2000/svg"><path d="M15.4 12L12.0 5.4L8.7 5.4L8.7 12L5.7 12L5.7-5.1L11.7-5.1Q14.7-5.1 16.3-3.7Q17.9-2.4 17.9 0.1L17.9 0.1Q17.9 1.8 17.1 3.0Q16.2 4.1 14.8 4.7L14.8 4.7L18.6 11.8L18.6 12L15.4 12ZM8.7-2.7L8.7 3.0L11.7 3.0Q13.2 3.0 14.1 2.3Q14.9 1.5 14.9 0.2L14.9 0.2Q14.9-1.1 14.2-1.9Q13.4-2.6 11.8-2.7L11.8-2.7L8.7-2.7ZM19.9 5.7L19.9 5.5Q19.9 3.7 20.6 2.2Q21.4 0.7 22.7-0.1Q24.1-0.9 25.8-0.9L25.8-0.9Q28.4-0.9 30.0 0.7Q31.6 2.4 31.7 5.1L31.7 5.1L31.7 5.8Q31.7 7.7 31.0 9.1Q30.3 10.6 28.9 11.4Q27.6 12.2 25.8 12.2L25.8 12.2Q23.1 12.2 21.5 10.4Q19.9 8.7 19.9 5.7L19.9 5.7ZM22.8 5.8L22.8 5.8Q22.8 7.7 23.6 8.9Q24.4 10.0 25.8 10.0Q27.3 10.0 28.1 8.8Q28.9 7.7 28.9 5.5L28.9 5.5Q28.9 3.6 28.0 2.5Q27.2 1.4 25.8 1.4L25.8 1.4Q24.4 1.4 23.6 2.5Q22.8 3.6 22.8 5.8ZM45.2 5.6L45.2 5.8Q45.2 8.7 43.9 10.5Q42.6 12.2 40.3 12.2L40.3 12.2Q38.1 12.2 36.8 10.6L36.8 10.6L36.7 12L34.1 12L34.1-6L36.9-6L36.9 0.5Q38.2-0.9 40.3-0.9L40.3-0.9Q42.6-0.9 43.9 0.8Q45.2 2.5 45.2 5.6L45.2 5.6ZM42.4 5.9L42.4 5.5Q42.4 3.5 41.7 2.4Q40.9 1.4 39.5 1.4L39.5 1.4Q37.7 1.4 36.9 3.0L36.9 3.0L36.9 8.3Q37.7 9.9 39.6 9.9L39.6 9.9Q40.9 9.9 41.6 8.9Q42.4 7.9 42.4 5.9L42.4 5.9ZM47.1 5.7L47.1 5.5Q47.1 3.7 47.8 2.2Q48.6 0.7 49.9-0.1Q51.2-0.9 53.0-0.9L53.0-0.9Q55.5-0.9 57.1 0.7Q58.7 2.4 58.9 5.1L58.9 5.1L58.9 5.8Q58.9 7.7 58.1 9.1Q57.4 10.6 56.1 11.4Q54.7 12.2 53.0 12.2L53.0 12.2Q50.3 12.2 48.7 10.4Q47.1 8.7 47.1 5.7L47.1 5.7ZM49.9 5.8L49.9 5.8Q49.9 7.7 50.7 8.9Q51.5 10.0 53.0 10.0Q54.4 10.0 55.2 8.8Q56.0 7.7 56.0 5.5L56.0 5.5Q56.0 3.6 55.2 2.5Q54.4 1.4 53.0 1.4L53.0 1.4Q51.6 1.4 50.7 2.5Q49.9 3.6 49.9 5.8ZM62.0-3.8L64.8-3.8L64.8-0.7L67.1-0.7L67.1 1.4L64.8 1.4L64.8 8.5Q64.8 9.2 65.1 9.6Q65.4 9.9 66.2 9.9L66.2 9.9Q66.6 9.9 67.2 9.8L67.2 9.8L67.2 12.0Q66.2 12.2 65.3 12.2L65.3 12.2Q62.0 12.2 62.0 8.6L62.0 8.6L62.0 1.4L59.9 1.4L59.9-0.7L62.0-0.7L62.0-3.8ZM68.4 5.7L68.4 5.5Q68.4 3.7 69.1 2.2Q69.8 0.7 71.2-0.1Q72.5-0.9 74.3-0.9L74.3-0.9Q76.8-0.9 78.4 0.7Q80.0 2.4 80.1 5.1L80.1 5.1L80.2 5.8Q80.2 7.7 79.4 9.1Q78.7 10.6 77.4 11.4Q76.0 12.2 74.3 12.2L74.3 12.2Q71.6 12.2 70.0 10.4Q68.4 8.7 68.4 5.7L68.4 5.7ZM71.2 5.8L71.2 5.8Q71.2 7.7 72.0 8.9Q72.8 10.0 74.3 10.0Q75.7 10.0 76.5 8.8Q77.3 7.7 77.3 5.5L77.3 5.5Q77.3 3.6 76.5 2.5Q75.7 1.4 74.3 1.4L74.3 1.4Q72.9 1.4 72.0 2.5Q71.2 3.6 71.2 5.8Z" fill="foregroundcolor"/></svg>