<svg width="40" height="40" viewBox="0 0 40 40" fill="none" xmlns="http://www.w3.org/2000/svg">
<path d="M6.25 6.25H16C16.6904 6.25 17.25 5.69036 17.25 5C17.25 4.30964 16.6904 3.75 16 3.75H6C4.75736 3.75 3.75 4.75736 3.75 6V34C3.75 35.2426 4.75736 36.25 6 36.25H34C35.2426 36.25 36.25 35.2426 36.25 34V24C36.25 23.3096 35.6904 22.75 35 22.75C34.3096 22.75 33.75 23.3096 33.75 24V33.75H6.25V6.25Z" fill="#CCCDCE"/>
<path d="M33.75 8.01777V17C33.75 17.6904 34.3096 18.25 35 18.25C35.6904 18.25 36.25 17.6904 36.25 17V6C36.25 4.75736 35.2426 3.75 34 3.75H23C22.3096 3.75 21.75 4.30964 21.75 5C21.75 5.69036 22.3096 6.25 23 6.25H31.9822L19.1161 19.1161C18.628 19.6043 18.628 20.3957 19.1161 20.8839C19.6043 21.372 20.3957 21.372 20.8839 20.8839L33.75 8.01777Z" fill="#CCCDCE"/>
</svg>
