<?xml version="1.0" encoding="UTF-8"?>
<svg width="16px" height="16px" viewBox="0 0 16 16" version="1.1" xmlns="http://www.w3.org/2000/svg" xmlns:xlink="http://www.w3.org/1999/xlink">
    <g id="replace" stroke="none" stroke-width="1" fill="none" fill-rule="evenodd" opacity="0.3">
        <path d="M12.6262153,5.14814717 L13.309809,4.4782253 C13.4784288,4.30504821 13.5661567,4.12959248 13.5729926,3.95185811 C13.5798286,3.77412373 13.5080512,3.60778259 13.3576606,3.45283467 L13.1184028,3.21357686 C12.9680122,3.05862894 12.8028103,2.98799092 12.6227973,3.0016628 C12.4427843,3.01533467 12.2684679,3.10420186 12.0998481,3.26826436 L11.4162543,3.93818623 L12.6262153,5.14814717 Z M3.30883247,13.5016628 L4.84008247,12.9069362 L12.0314887,5.72920186 L10.8283637,4.5329128 L3.6437934,11.7106472 L3.01488715,13.2008815 C2.98298611,13.2874701 3.0023546,13.3672227 3.07299262,13.4401394 C3.14363064,13.513056 3.22224392,13.5335638 3.30883247,13.5016628 Z" fill="#1D1F20" fill-rule="nonzero"></path>
    </g>
</svg>