<svg width="18" height="18" viewBox="0 0 18 18" fill="none" xmlns="http://www.w3.org/2000/svg">
<path fill-rule="evenodd" clip-rule="evenodd" d="M0.149902 7.19997C0.149902 5.29459 1.69452 3.74997 3.5999 3.74997H14.3999C16.3053 3.74997 17.8499 5.29459 17.8499 7.19997V11.25C17.8499 13.1554 16.3053 14.7 14.3999 14.7H3.5999C1.69452 14.7 0.149902 13.1554 0.149902 11.25V7.19997ZM3.5999 5.24997C2.52295 5.24997 1.6499 6.12301 1.6499 7.19997V11.25C1.6499 12.3269 2.52295 13.2 3.5999 13.2H14.3999C15.4769 13.2 16.3499 12.3269 16.3499 11.25V7.19997C16.3499 6.12301 15.4769 5.24997 14.3999 5.24997H3.5999Z" fill="#27292A"/>
</svg>
