<?xml version="1.0" encoding="UTF-8"?>
<svg width="40px" height="40px" viewBox="0 0 40 40" version="1.1" xmlns="http://www.w3.org/2000/svg" xmlns:xlink="http://www.w3.org/1999/xlink">
    <title>Icons/Format Panel Icons/Sum/bight备份</title>
    <g id="Icons/Format-Panel-Icons/Sum/bight备份" stroke="none" stroke-width="1" fill="none" fill-rule="evenodd">
        <g id="Group-2" transform="translate(11.000000, 6.000000)" stroke="#000000" stroke-width="2">
            <g id="Group" transform="translate(0.000000, 14.000000)">
                <path d="M16.555632,0 C17.5924907,0 16.8148467,0 14.2226999,0 C10.3344798,0 8.97457379,3.20833333 9.55683577,7.4375 C10.1390977,11.6666667 7.61272571,14 2.94686156,14 C-0.163714531,14 -0.811751218,14 1.0027515,14" id="Path-56-Copy" transform="translate(8.500000, 7.000000) scale(1, -1) translate(-8.500000, -7.000000) "></path>
            </g>
            <g id="Group-Copy" transform="translate(8.500000, 7.000000) scale(1, -1) translate(-8.500000, -7.000000) ">
                <path d="M16.555632,0 C17.5924907,0 16.8148467,0 14.2226999,0 C10.3344798,0 8.97457379,3.20833333 9.55683577,7.4375 C10.1390977,11.6666667 7.61272571,14 2.94686156,14 C-0.163714531,14 -0.811751218,14 1.0027515,14" id="Path-56-Copy" transform="translate(8.500000, 7.000000) scale(1, -1) translate(-8.500000, -7.000000) "></path>
            </g>
        </g>
    </g>
</svg>