<?xml version="1.0" encoding="UTF-8"?>
<svg width="24px" height="24px" viewBox="0 0 24 24" version="1.1" xmlns="http://www.w3.org/2000/svg" xmlns:xlink="http://www.w3.org/1999/xlink">
    <!-- Generator: Sketch 56 (81588) - https://sketch.com -->
    <title>symbol_like</title>
    <desc>Created with Sketch.</desc>
    <g id="symbol_like" stroke="none" stroke-width="1" fill="none" fill-rule="evenodd">
        <g id="Group-7">
            <path d="M24,12 C24,18.627 18.627,24 12,24 C5.373,24 0,18.627 0,12 C0,5.373 5.373,0 12,0 C18.627,0 24,5.373 24,12" id="Fill-1" fill="#F9493E"></path>
            <path d="M9.9912,10.1064 C10.7062,9.8024 11.2502,8.9354 11.5732,7.0734 C11.8022,5.7514 12.1842,4.8314 13.1772,4.8314 C14.5372,4.8314 14.7702,8.5354 13.8062,10.2074 C13.8482,10.2004 16.2082,9.8224 18.2822,10.5424 C20.7732,11.4054 18.8282,18.4874 16.5682,18.6294 C14.5782,18.7544 12.2222,18.7934 10.8072,18.5894 C9.7902,18.4444 8.9642,18.0984 8.7842,17.5984 C8.5332,16.9024 8.6292,15.9754 8.6332,14.5884 C8.6372,13.1144 8.6572,12.1104 8.6842,11.0754 C8.7012,10.4294 9.5712,10.2844 9.9912,10.1064" id="Fill-3" fill="#FFFFFF"></path>
            <path d="M6.6509,18.3037 L5.3519,18.3037 C4.9939,18.3037 4.7039,18.0127 4.7039,17.6557 L4.7039,11.1907 C4.7039,10.8317 4.9939,10.5417 5.3519,10.5417 L6.6509,10.5417 C7.0089,10.5417 7.2989,10.8317 7.2989,11.1907 L7.2989,17.6557 C7.2989,18.0127 7.0089,18.3037 6.6509,18.3037" id="Fill-5" fill="#FFFFFF"></path>
        </g>
    </g>
</svg>