<svg width="66" height="40" viewBox="0 0 66 40" fill="none" xmlns="http://www.w3.org/2000/svg">
<g clip-path="url(#clip0_415_45639)">
<path d="M56.9216 10.0182L56.2315 11.8224L55.8246 11.6776L55.9851 11.3551L54.4547 10.6852L49.5851 20.4697C51.0657 16.5778 52.6156 12.5725 53.4714 10.5648L51.8981 9.98798C50.8997 12.3302 48.9916 17.2971 47.3397 21.6597C46.5123 23.845 45.7468 25.885 45.1883 27.3785C44.909 28.1253 44.6813 28.7356 44.5235 29.1592L44.2777 29.8198C44.2777 29.8198 44.2777 29.82 45.0795 30.0704C45.8813 30.3207 45.8816 30.3201 45.8816 30.3201L46.2233 29.4021L46.8638 29.6825L52.0088 19.3447L47.6699 29.7893L49.2494 30.3514L49.4589 29.8471L50.9486 30.3286L58.5193 10.5346L56.9216 10.0182Z" fill="#27292A"/>
<path d="M58.3054 11.378L52.68 29.1159L54.3107 29.5381L59.9361 11.8001L58.3054 11.378Z" fill="#27292A"/>
<path d="M41.9266 30.0835L41.7457 30.5543L43.3425 31.0732L50.9481 11.2792L49.3513 10.7603L45.8851 19.7812L47.7272 13.7297L48.4083 12.035L48.2587 11.9837L48.3173 11.7911L46.6807 11.388L46.1122 13.2554L43.4853 19.7915L46.9013 10.5253L45.2962 10.0284L44.6327 11.8281L44.2012 11.6814L44.3633 11.3556L42.833 10.6857L37.9634 20.4699C39.444 16.5781 40.9939 12.573 41.8497 10.5653L40.2764 9.98846C39.278 12.3307 37.3699 17.2975 35.7181 21.6599C34.8906 23.8452 34.1252 25.8851 33.5666 27.3786C33.2873 28.1254 33.0597 28.7356 32.9019 29.1592L32.6561 29.8199C32.6561 29.8199 32.656 29.8201 33.4578 30.0704C34.2597 30.3208 34.2599 30.3201 34.2599 30.3201L34.6016 29.4021L35.2422 29.6825L41.0304 18.0524L36.0435 30.5439L37.6321 31.0837L37.8266 30.5967L39.3304 31.0622L40.3125 28.3981L41.3905 28.7673L41.0552 29.8688L41.9266 30.0835Z" fill="#27292A"/>
<path d="M30.1241 30.5543L30.3205 30.0431L29.6128 29.8672L29.9328 28.8235L28.8553 28.4544L27.8869 31.064L26.3855 30.5955L26.1884 31.0857L24.6014 30.5419L29.593 18.1274L23.7981 29.6849L23.1612 29.4037L22.8161 30.3225C22.8161 30.3225 22.8159 30.3231 22.0149 30.0704C21.214 29.8177 21.2141 29.8175 21.2141 29.8175L21.4599 29.1628C21.6176 28.7429 21.8452 28.138 22.1245 27.3976C22.683 25.917 23.4484 23.8942 24.2758 21.726C25.9276 17.3972 27.8352 12.4657 28.8331 10.1248L30.4065 10.7016C29.5558 12.6971 28.0205 16.638 26.5489 20.4764L31.3909 10.8196L32.9189 11.4943L32.7572 11.8168L33.1854 11.9635L33.8536 10.163L35.4574 10.6634L34.553 13.1005L35.1995 11.4919L35.4244 11.5689L36.8735 11.9291L35.2647 17.1756L37.7296 10.7608L39.3264 11.2797L31.7209 31.0733L30.1241 30.5543Z" fill="#27292A"/>
<path d="M19.0137 29.6949L18.6819 30.5525L20.2772 31.0751L27.8824 11.4179L26.2871 10.8952L23.1104 19.1061L25.2141 12.6882L25.142 12.6688L25.3424 12.174L23.7571 11.6259L22.3002 15.2218L23.7968 11.4229L22.2053 10.8904L21.4932 12.698L21.0966 12.5515L21.2534 12.2591L19.7476 11.5417L15.1674 20.082C16.5508 16.7128 17.9513 13.3234 18.752 11.4451L17.1787 10.8682C16.1858 13.1975 14.282 17.8221 12.6289 21.8585C11.8017 23.878 11.0365 25.7522 10.4781 27.1216C10.1989 27.8063 9.9714 28.3648 9.81367 28.7521L9.56803 29.3556C9.56803 29.3556 9.56797 29.3557 10.3602 29.6308C11.1524 29.9059 11.1526 29.9053 11.1526 29.9053L11.5295 28.9795L12.1322 29.2667L17.989 18.3459L12.9542 30.084L14.526 30.6644L14.7484 30.1461L16.226 30.6404L17.1266 28.3544L18.1892 28.7218L17.963 29.4119L19.0137 29.6949Z" fill="#27292A"/>
<path d="M14.6395 11.6215L7.03396 30.0957L8.61561 30.6527L16.2211 12.1785L14.6395 11.6215Z" fill="#27292A"/>
<path d="M6.91894 28.4392L13.6792 12.9385L12.1115 12.3484L5.35132 27.8491L6.91894 28.4392Z" fill="#27292A"/>
</g>
<defs>
<clipPath id="clip0_415_45639">
<rect width="36" height="25" fill="white" transform="translate(15 8)"/>
</clipPath>
</defs>
</svg>
