<svg width="24" height="24" viewBox="0 0 24 24" fill="none" xmlns="http://www.w3.org/2000/svg">
<circle cx="12" cy="12" r="12" fill="#5865F2"/>
<path d="M16.9959 7.39403C16.0771 6.97034 15.0917 6.65818 14.0615 6.47939C14.0428 6.47594 14.024 6.48456 14.0144 6.50181C13.8877 6.72831 13.7473 7.0238 13.649 7.25606C12.5409 7.08934 11.4386 7.08934 10.3532 7.25606C10.2549 7.01863 10.1095 6.72831 9.98217 6.50181C9.97251 6.48514 9.95376 6.47651 9.93501 6.47939C8.90536 6.6576 7.92004 6.96976 7.00064 7.39403C6.99268 7.39748 6.98586 7.40323 6.98132 7.4107C5.11239 10.2167 4.60041 12.9537 4.85157 15.6568C4.8527 15.6701 4.86009 15.6827 4.87032 15.6907C6.10339 16.6008 7.29782 17.1533 8.47009 17.5195C8.48885 17.5252 8.50873 17.5183 8.52067 17.5028C8.79797 17.1222 9.04515 16.7209 9.2571 16.299C9.2696 16.2743 9.25767 16.2449 9.2321 16.2352C8.84002 16.0857 8.46668 15.9035 8.10756 15.6965C8.07915 15.6798 8.07687 15.639 8.10301 15.6195C8.17859 15.5626 8.25416 15.5033 8.32633 15.4435C8.3394 15.4326 8.35758 15.4303 8.37293 15.4372C10.7322 16.5197 13.2865 16.5197 15.6179 15.4372C15.6333 15.4298 15.6515 15.4321 15.6651 15.443C15.7373 15.5028 15.8128 15.5626 15.889 15.6195C15.9151 15.639 15.9134 15.6798 15.885 15.6965C15.5259 15.9075 15.1525 16.0857 14.7599 16.2346C14.7343 16.2444 14.723 16.2743 14.7355 16.299C14.952 16.7204 15.1991 17.1216 15.4713 17.5022C15.4827 17.5183 15.5032 17.5252 15.5219 17.5195C16.6999 17.1533 17.8943 16.6008 19.1274 15.6907C19.1382 15.6827 19.145 15.6706 19.1461 15.6574C19.4467 12.5323 18.6427 9.81774 17.0147 7.41127C17.0107 7.40323 17.0039 7.39748 16.9959 7.39403ZM9.60941 14.0109C8.89911 14.0109 8.31383 13.3556 8.31383 12.5507C8.31383 11.7459 8.88775 11.0905 9.60941 11.0905C10.3367 11.0905 10.9163 11.7516 10.905 12.5507C10.905 13.3556 10.3311 14.0109 9.60941 14.0109ZM14.3996 14.0109C13.6893 14.0109 13.1041 13.3556 13.1041 12.5507C13.1041 11.7459 13.678 11.0905 14.3996 11.0905C15.127 11.0905 15.7066 11.7516 15.6952 12.5507C15.6952 13.3556 15.127 14.0109 14.3996 14.0109Z" fill="white"/>
</svg>
