<svg width="326" height="310" viewBox="0 0 326 310" fill="none" xmlns="http://www.w3.org/2000/svg">
<rect width="326" height="310" fill="#C3B9FF"/>
<mask id="mask0_3611_49593" style="mask-type:alpha" maskUnits="userSpaceOnUse" x="0" y="0" width="326" height="310">
<rect width="326" height="310" fill="#C3B9FF"/>
</mask>
<g mask="url(#mask0_3611_49593)">
<path fill-rule="evenodd" clip-rule="evenodd" d="M327.629 207.276L304.445 170.929L306.131 169.854L329.315 206.2L327.629 207.276Z" fill="#D9D2FF"/>
<path fill-rule="evenodd" clip-rule="evenodd" d="M355.427 176.404C353.345 173.141 349.013 172.183 345.75 174.265L293.089 207.854C289.826 209.935 288.868 214.267 290.95 217.53L289.264 218.606C286.588 214.412 287.82 208.843 292.014 206.167L344.674 172.578C348.869 169.903 354.438 171.135 357.113 175.329L355.427 176.404Z" fill="#D9D2FF"/>
<rect x="276.304" y="175.582" width="54" height="22" rx="2" transform="rotate(-32.5313 276.304 175.582)" fill="#D9D2FF"/>
<rect x="275.254" y="227.541" width="34" height="14" rx="2" transform="rotate(-32.5313 275.254 227.541)" fill="#D9D2FF"/>
<rect x="307.66" y="206.871" width="34" height="14" rx="2" transform="rotate(-32.5313 307.66 206.871)" fill="#D9D2FF"/>
<path fill-rule="evenodd" clip-rule="evenodd" d="M208.032 143.526C206.699 143.525 205.367 143.536 204.037 143.56C203.484 143.569 203.029 143.13 203.019 142.577C203.01 142.025 203.449 141.57 204.002 141.56C205.344 141.536 206.688 141.525 208.034 141.526C208.586 141.527 209.033 141.975 209.033 142.527C209.032 143.08 208.584 143.527 208.032 143.526ZM211.056 142.548C211.067 141.996 211.523 141.557 212.075 141.568C213.419 141.594 214.764 141.632 216.11 141.684C216.662 141.705 217.092 142.169 217.071 142.721C217.05 143.273 216.586 143.703 216.034 143.682C214.7 143.631 213.367 143.593 212.036 143.567C211.484 143.556 211.045 143.1 211.056 142.548ZM200.998 142.631C201.018 143.183 200.586 143.647 200.035 143.666C198.7 143.714 197.367 143.774 196.036 143.846C195.485 143.876 195.013 143.453 194.984 142.901C194.954 142.35 195.377 141.878 195.928 141.849C197.271 141.776 198.616 141.716 199.963 141.668C200.515 141.648 200.978 142.079 200.998 142.631ZM219.084 142.817C219.116 142.265 219.588 141.844 220.14 141.875C221.484 141.952 222.83 142.041 224.176 142.144C224.727 142.186 225.139 142.666 225.097 143.217C225.056 143.767 224.575 144.18 224.024 144.138C222.691 144.037 221.358 143.948 220.026 143.872C219.475 143.841 219.053 143.368 219.084 142.817ZM192.975 143.028C193.015 143.578 192.6 144.057 192.05 144.097C190.716 144.193 189.384 144.301 188.055 144.42C187.505 144.47 187.019 144.064 186.97 143.514C186.92 142.964 187.326 142.478 187.876 142.428C189.217 142.308 190.56 142.199 191.906 142.102C192.457 142.062 192.936 142.477 192.975 143.028ZM227.103 143.388C227.155 142.839 227.643 142.435 228.193 142.488C229.531 142.615 230.869 142.755 232.208 142.909C232.757 142.971 233.15 143.467 233.088 144.016C233.025 144.565 232.529 144.958 231.98 144.896C230.654 144.744 229.329 144.605 228.004 144.479C227.454 144.426 227.051 143.938 227.103 143.388ZM184.961 143.712C185.02 144.261 184.623 144.755 184.074 144.814C182.748 144.957 181.424 145.111 180.103 145.277C179.555 145.346 179.055 144.957 178.986 144.409C178.917 143.861 179.306 143.361 179.854 143.292C181.186 143.125 182.522 142.969 183.86 142.825C184.409 142.766 184.902 143.163 184.961 143.712ZM235.102 144.266C235.176 143.719 235.679 143.335 236.227 143.408C237.554 143.586 238.883 143.778 240.212 143.982C240.757 144.066 241.132 144.577 241.048 145.122C240.964 145.668 240.453 146.043 239.907 145.959C238.591 145.756 237.276 145.567 235.961 145.39C235.413 145.317 235.029 144.814 235.102 144.266ZM176.98 144.679C177.058 145.225 176.679 145.732 176.132 145.81C174.811 146 173.493 146.2 172.178 146.411C171.633 146.499 171.12 146.128 171.032 145.583C170.945 145.038 171.315 144.525 171.861 144.437C173.187 144.224 174.516 144.021 175.848 143.831C176.395 143.752 176.902 144.132 176.98 144.679ZM243.041 145.449C243.136 144.905 243.654 144.54 244.198 144.635C245.525 144.865 246.852 145.109 248.179 145.367C248.721 145.472 249.075 145.997 248.97 146.539C248.865 147.081 248.34 147.435 247.798 147.33C246.484 147.075 245.169 146.834 243.855 146.605C243.311 146.511 242.947 145.993 243.041 145.449ZM169.041 145.921C169.138 146.464 168.776 146.984 168.232 147.081C166.917 147.315 165.605 147.561 164.296 147.817C163.754 147.924 163.229 147.57 163.122 147.028C163.016 146.486 163.369 145.961 163.911 145.855C165.231 145.596 166.555 145.348 167.881 145.112C168.425 145.015 168.944 145.377 169.041 145.921ZM250.936 146.94C251.052 146.4 251.583 146.056 252.123 146.172C253.438 146.454 254.753 146.749 256.068 147.057C256.605 147.184 256.939 147.722 256.813 148.26C256.686 148.797 256.148 149.131 255.61 149.004C254.309 148.699 253.007 148.406 251.704 148.127C251.164 148.012 250.82 147.48 250.936 146.94ZM161.149 147.432C161.264 147.972 160.92 148.504 160.38 148.619C159.072 148.898 157.769 149.188 156.468 149.488C155.93 149.612 155.393 149.277 155.269 148.738C155.145 148.2 155.48 147.663 156.018 147.539C157.329 147.236 158.644 146.944 159.962 146.663C160.503 146.548 161.034 146.892 161.149 147.432ZM258.779 148.742C258.916 148.207 259.46 147.884 259.996 148.021C261.293 148.352 262.59 148.698 263.887 149.056C264.419 149.203 264.731 149.754 264.584 150.287C264.437 150.819 263.886 151.131 263.354 150.984C262.07 150.629 260.785 150.287 259.5 149.958C258.965 149.822 258.642 149.277 258.779 148.742ZM153.305 149.209C153.438 149.745 153.112 150.287 152.576 150.421C151.281 150.742 149.99 151.074 148.704 151.416C148.17 151.558 147.622 151.24 147.48 150.707C147.338 150.173 147.656 149.625 148.19 149.483C149.487 149.138 150.788 148.804 152.094 148.48C152.63 148.346 153.172 148.673 153.305 149.209ZM266.531 150.846C266.689 150.317 267.246 150.015 267.775 150.173C269.063 150.557 270.35 150.954 271.636 151.365C272.162 151.533 272.453 152.095 272.285 152.622C272.117 153.148 271.554 153.438 271.028 153.27C269.754 152.863 268.479 152.47 267.204 152.09C266.675 151.932 266.374 151.375 266.531 150.846ZM145.528 151.243C145.678 151.774 145.369 152.327 144.838 152.478C143.554 152.841 142.274 153.215 140.998 153.599C140.469 153.758 139.911 153.459 139.752 152.93C139.593 152.401 139.893 151.843 140.422 151.684C141.708 151.297 142.998 150.92 144.293 150.553C144.824 150.403 145.377 150.711 145.528 151.243ZM274.191 153.251C274.369 152.728 274.937 152.449 275.46 152.627C276.734 153.062 278.007 153.51 279.279 153.972C279.798 154.16 280.066 154.734 279.877 155.253C279.689 155.772 279.115 156.04 278.596 155.851C277.337 155.394 276.076 154.95 274.815 154.52C274.292 154.342 274.013 153.774 274.191 153.251ZM137.824 153.527C137.991 154.053 137.7 154.616 137.174 154.783C135.9 155.189 134.631 155.605 133.366 156.03C132.843 156.206 132.276 155.924 132.1 155.4C131.924 154.877 132.206 154.31 132.729 154.134C134.004 153.706 135.283 153.287 136.567 152.878C137.093 152.71 137.656 153.001 137.824 153.527ZM281.768 155.96C281.967 155.445 282.546 155.188 283.061 155.387C284.31 155.868 285.557 156.362 286.804 156.871C287.315 157.079 287.561 157.663 287.352 158.174C287.144 158.686 286.56 158.931 286.049 158.723C284.814 158.219 283.579 157.729 282.342 157.253C281.826 157.054 281.57 156.476 281.768 155.96ZM130.197 156.057C130.381 156.578 130.108 157.149 129.588 157.333C128.326 157.78 127.07 158.236 125.819 158.701C125.301 158.893 124.726 158.629 124.533 158.112C124.341 157.594 124.605 157.018 125.122 156.826C126.383 156.357 127.649 155.898 128.921 155.448C129.441 155.264 130.013 155.536 130.197 156.057ZM122.646 158.83C122.847 159.345 122.592 159.925 122.078 160.125C120.834 160.61 119.596 161.103 118.364 161.606C117.852 161.815 117.269 161.569 117.06 161.058C116.852 160.546 117.097 159.963 117.608 159.754C118.851 159.248 120.098 158.75 121.351 158.262C121.866 158.061 122.446 158.316 122.646 158.83ZM289.225 158.959C289.444 158.452 290.032 158.218 290.539 158.436C291.161 158.704 291.783 158.975 292.404 159.25C292.909 159.473 293.138 160.064 292.915 160.569C292.691 161.074 292.101 161.302 291.596 161.079C290.98 160.807 290.365 160.538 289.748 160.273C289.241 160.055 289.007 159.466 289.225 158.959ZM115.19 161.838C115.406 162.346 115.17 162.933 114.662 163.15C113.434 163.673 112.211 164.205 110.995 164.746C110.49 164.97 109.899 164.743 109.675 164.238C109.451 163.734 109.678 163.143 110.182 162.918C111.408 162.373 112.64 161.837 113.878 161.31C114.386 161.093 114.973 161.33 115.19 161.838ZM107.834 165.074C108.067 165.575 107.849 166.169 107.347 166.401C106.134 166.964 104.926 167.535 103.725 168.114C103.228 168.354 102.63 168.145 102.39 167.647C102.15 167.15 102.359 166.552 102.856 166.312C104.067 165.729 105.283 165.153 106.507 164.587C107.008 164.355 107.602 164.573 107.834 165.074ZM100.587 168.534C100.835 169.027 100.635 169.628 100.141 169.876C98.9429 170.477 97.7511 171.086 96.5663 171.703C96.0765 171.958 95.4726 171.768 95.2174 171.278C94.9623 170.788 95.1526 170.184 95.6424 169.929C96.8363 169.307 98.0373 168.693 99.2452 168.088C99.7389 167.84 100.34 168.04 100.587 168.534ZM93.4363 172.223C93.699 172.709 93.5181 173.316 93.0323 173.579C91.8564 174.214 90.6878 174.858 89.5267 175.509C89.045 175.779 88.4355 175.608 88.1653 175.126C87.8952 174.644 88.0667 174.035 88.5484 173.765C89.7185 173.108 90.8962 172.46 92.0811 171.819C92.5669 171.557 93.1737 171.737 93.4363 172.223ZM86.4063 176.13C86.6839 176.608 86.5219 177.22 86.0445 177.498C84.8914 178.168 83.746 178.846 82.6086 179.531C82.1355 179.816 81.521 179.664 81.236 179.191C80.951 178.718 81.1035 178.103 81.5766 177.818C82.7229 177.127 83.8771 176.444 85.0392 175.769C85.5166 175.491 86.1287 175.653 86.4063 176.13ZM79.5052 180.252C79.7976 180.72 79.6548 181.337 79.1862 181.629C78.0518 182.337 76.9257 183.052 75.8081 183.774C75.3442 184.074 74.7252 183.941 74.4255 183.477C74.1258 183.013 74.2589 182.394 74.7228 182.094C75.8492 181.367 76.9842 180.646 78.1275 179.933C78.596 179.64 79.2129 179.783 79.5052 180.252ZM72.7415 184.584C73.0485 185.043 72.9252 185.664 72.4661 185.971C71.3513 186.716 70.2455 187.469 69.1489 188.228C68.6947 188.542 68.0718 188.429 67.7575 187.974C67.4432 187.52 67.5566 186.897 68.0107 186.583C69.1162 185.818 70.2308 185.06 71.3544 184.308C71.8135 184.001 72.4345 184.125 72.7415 184.584ZM66.1174 189.129C66.4389 189.578 66.3356 190.203 65.8866 190.524C64.7948 191.306 63.7127 192.094 62.6403 192.889C62.1966 193.218 61.5703 193.125 61.2415 192.681C60.9127 192.237 61.0058 191.611 61.4496 191.282C62.5307 190.481 63.6216 189.686 64.7222 188.898C65.1712 188.577 65.7959 188.68 66.1174 189.129ZM59.6318 193.894C59.9678 194.333 59.885 194.96 59.4467 195.296C58.3851 196.11 57.3337 196.931 56.2927 197.757C55.86 198.1 55.231 198.028 54.8877 197.595C54.5444 197.163 54.6168 196.534 55.0494 196.19C56.0991 195.357 57.1593 194.53 58.2297 193.709C58.668 193.373 59.2957 193.456 59.6318 193.894ZM53.3103 198.869C53.6609 199.296 53.5991 199.926 53.1724 200.276C52.143 201.122 51.1244 201.974 50.1169 202.831C49.6962 203.188 49.0651 203.137 48.7073 202.717C48.3494 202.296 48.4004 201.665 48.8211 201.307C49.8373 200.443 50.8646 199.584 51.9028 198.731C52.3295 198.38 52.9597 198.442 53.3103 198.869ZM47.1647 204.052C47.5298 204.467 47.49 205.098 47.0756 205.464C46.0735 206.347 45.0831 207.235 44.1047 208.129C43.6969 208.501 43.0644 208.473 42.692 208.065C42.3195 207.657 42.3482 207.025 42.7559 206.652C43.7431 205.751 44.7423 204.854 45.7533 203.963C46.1676 203.598 46.7995 203.638 47.1647 204.052ZM41.208 209.445C41.5878 209.846 41.5707 210.479 41.1698 210.859C40.1972 211.78 39.2373 212.706 38.2904 213.637C37.8966 214.025 37.2634 214.019 36.8762 213.625C36.489 213.232 36.4944 212.598 36.8883 212.211C37.8441 211.272 38.8128 210.337 39.7943 209.407C40.1953 209.027 40.8282 209.044 41.208 209.445ZM35.4551 215.049C35.8496 215.436 35.8563 216.069 35.4699 216.463C34.5297 217.423 33.6033 218.388 32.691 219.357C32.3124 219.759 31.6795 219.778 31.2774 219.399C30.8753 219.021 30.8563 218.388 31.2349 217.986C32.1563 217.007 33.0917 216.033 34.0409 215.064C34.4273 214.669 35.0605 214.663 35.4551 215.049ZM29.9227 220.867C30.3323 221.237 30.3639 221.87 29.9934 222.279C29.0891 223.279 28.1998 224.282 27.3258 225.29C26.9639 225.707 26.3323 225.752 25.9151 225.39C25.498 225.028 25.4532 224.396 25.8151 223.979C26.6983 222.961 27.5968 221.947 28.5103 220.938C28.8808 220.528 29.5132 220.496 29.9227 220.867ZM24.62 226.915C25.0447 227.268 25.1029 227.898 24.7499 228.323C23.8894 229.358 23.0452 230.397 22.2175 231.439C21.8739 231.871 21.2449 231.944 20.8124 231.6C20.38 231.257 20.3079 230.627 20.6514 230.195C21.4884 229.141 22.342 228.091 23.2117 227.044C23.5648 226.62 24.1952 226.562 24.62 226.915ZM19.5813 233.186C20.0214 233.52 20.1078 234.147 19.7743 234.587C18.9628 235.658 18.1689 236.732 17.3929 237.808C17.0699 238.256 16.4449 238.357 15.9969 238.034C15.549 237.711 15.4477 237.086 15.7707 236.638C16.5561 235.549 17.3594 234.462 18.1803 233.379C18.5139 232.939 19.1411 232.853 19.5813 233.186ZM14.8389 239.682C15.2947 239.994 15.4113 240.616 15.0995 241.072C14.3419 242.179 13.6036 243.288 12.8847 244.399C12.5846 244.863 11.9655 244.996 11.5018 244.696C11.0382 244.396 10.9055 243.776 11.2055 243.313C11.9339 242.187 12.6818 241.063 13.4489 239.942C13.7608 239.487 14.3831 239.37 14.8389 239.682ZM14.7506 249.814L4.99996 256L4.51868 244.463L9.00896 246.811C9.02385 246.787 9.03875 246.762 9.05366 246.738C9.34109 246.266 9.95641 246.117 10.428 246.404C10.8867 246.684 11.0405 247.274 10.7841 247.74L14.7506 249.814Z" fill="white" fill-opacity="0.3"/>
<path fill-rule="evenodd" clip-rule="evenodd" d="M98.3048 294.775L47.4263 284.033L47.8395 282.076L98.7179 292.818L98.3048 294.775Z" fill="#D2CBFF"/>
<path fill-rule="evenodd" clip-rule="evenodd" d="M81.3462 259.398C77.5636 258.599 73.8498 261.018 73.0512 264.801L63.5489 309.809C62.7503 313.592 65.1693 317.305 68.9519 318.104L68.5388 320.061C63.6754 319.034 60.5653 314.259 61.5921 309.396L71.0943 264.388C72.1211 259.525 76.896 256.414 81.7594 257.441L81.3462 259.398Z" fill="#D2CBFF"/>
<rect x="-10.6292" y="258" width="64" height="26" rx="2" transform="rotate(11.9215 -10.6292 258)" fill="#D2CBFF"/>
<rect x="83.145" y="250" width="42" height="18" rx="2" transform="rotate(11.9215 83.145 250)" fill="#D2CBFF"/>
<rect x="76.7184" y="280.44" width="42" height="18" rx="2" transform="rotate(11.9215 76.7184 280.44)" fill="#D2CBFF"/>
<rect x="32" y="143" width="142" height="94" rx="8" fill="white"/>
<path fill-rule="evenodd" clip-rule="evenodd" d="M103 191.127H73.4692V190.127H103V191.127Z" fill="#6B52FF"/>
<path fill-rule="evenodd" clip-rule="evenodd" d="M134.531 191.127H105V190.127H134.531V191.127Z" fill="#6B52FF"/>
<path fill-rule="evenodd" clip-rule="evenodd" d="M116.181 190.627C116.181 200.733 124.395 208.927 134.531 208.927V209.927C123.845 209.927 115.181 201.287 115.181 190.627H116.181Z" fill="#95A7FF"/>
<path fill-rule="evenodd" clip-rule="evenodd" d="M134.531 172.326C124.396 172.326 116.181 180.521 116.181 190.626H115.181C115.181 179.966 123.846 171.326 134.531 171.326V172.326Z" fill="#42FFDD"/>
<path fill-rule="evenodd" clip-rule="evenodd" d="M91.8186 190.627C91.8186 200.733 83.6045 208.927 73.469 208.927V209.927C84.1543 209.927 92.8186 201.287 92.8186 190.627H91.8186Z" fill="#42FFDD"/>
<path fill-rule="evenodd" clip-rule="evenodd" d="M73.469 172.327C83.6045 172.327 91.8186 180.522 91.8186 190.627H92.8186C92.8186 179.967 84.1543 171.327 73.469 171.327V172.327Z" fill="#95A7FF"/>
<path d="M86 185C86 183.895 86.8954 183 88 183H120C121.105 183 122 183.895 122 185V197C122 198.105 121.105 199 120 199H88C86.8954 199 86 198.105 86 197V185Z" fill="#0038FF"/>
<rect x="133.593" y="166.813" width="24" height="10" rx="2" fill="#42FFDD"/>
<rect x="49.5925" y="166.813" width="24" height="10" rx="2" fill="#95A7FF"/>
<rect x="133.814" y="184.707" width="24" height="10" rx="2" fill="#6B52FF"/>
<rect x="49.5925" y="184.813" width="24" height="10" rx="2" fill="#6B52FF"/>
<rect x="133.593" y="202.813" width="24" height="10" rx="2" fill="#95A7FF"/>
<rect x="49.5925" y="202.813" width="24" height="10" rx="2" fill="#42FFDD"/>
</g>
<rect x="166.318" y="202.172" width="124" height="82" rx="8" fill="#6B52FF"/>
<path d="M204.309 233.856L228.087 243.816" stroke="#6B52FF"/>
<path d="M251.865 253.775L228.087 243.815" stroke="#6B52FF"/>
<rect x="186.779" y="221.757" width="20.8431" height="8.77604" rx="2" transform="rotate(22.7265 186.779 221.757)" fill="#6B52FF"/>
<rect x="196.774" y="213.185" width="35.4284" height="14.66" rx="2" fill="#CCD7FF"/>
<rect x="221.207" y="246" width="24" height="12" rx="2" fill="#FF42E1"/>
<rect x="253" y="243" width="12" height="4" rx="2" fill="#FF42E1"/>
<rect x="253" y="257" width="12" height="4" rx="2" fill="#FF42E1"/>
<path fill-rule="evenodd" clip-rule="evenodd" d="M223.099 252.5H215.099V251.5H223.099V252.5Z" fill="#FF42E1"/>
<path fill-rule="evenodd" clip-rule="evenodd" d="M251.197 252.5H243.197V251.5H251.197V252.5Z" fill="#FF42E1"/>
<path fill-rule="evenodd" clip-rule="evenodd" d="M214.599 227.845H215.599V267.345H223.099V268.345H214.599V227.845Z" fill="#9AABFF"/>
<path fill-rule="evenodd" clip-rule="evenodd" d="M250.5 244.5H255V245.5H251.5V258.5H255V259.5H250.5V244.5Z" fill="#FF42E1"/>
<rect x="221.207" y="262.052" width="24" height="12" rx="2" fill="#9AABFF"/>
</svg>
