<svg width="326" height="310" viewBox="0 0 326 310" fill="none" xmlns="http://www.w3.org/2000/svg">
<rect width="326" height="310" fill="#FFC2C2"/>
<mask id="mask0_3611_49642" style="mask-type:alpha" maskUnits="userSpaceOnUse" x="0" y="0" width="326" height="310">
<rect width="326" height="310" fill="#FD3535"/>
</mask>
<g mask="url(#mask0_3611_49642)">
<path d="M-55.8917 217.512C-56.2018 217.512 -56.4243 217.433 -56.5591 217.273C-56.6939 217.113 -56.7681 216.933 -56.7816 216.733C-56.7816 216.6 -56.7411 216.4 -56.6602 216.134C-56.5793 215.867 -56.4378 215.554 -56.2355 215.194C-56.0332 214.835 -55.7299 214.495 -55.3253 214.175C-54.9208 213.855 -54.4422 213.622 -53.8893 213.476L-53.2421 213.376H-52.9994C-52.5544 213.376 -52.2915 213.382 -52.2106 213.396C-51.3611 213.542 -50.6532 213.895 -50.0869 214.455C-49.5206 215.014 -49.1161 215.634 -48.8734 216.313C-48.6306 216.993 -48.516 217.732 -48.5295 218.532C-48.5295 219.797 -48.8464 221.243 -49.4801 222.868C-50.1139 224.493 -50.9027 225.739 -51.8465 226.605C-52.9387 227.604 -54.1455 228.104 -55.4669 228.104C-56.8153 228.104 -57.8266 227.584 -58.5008 226.545C-58.9188 225.932 -59.1278 225.319 -59.1278 224.707V224.487C-59.1278 222.928 -58.5412 221.523 -57.3681 220.27C-56.195 219.018 -54.8939 218.385 -53.4646 218.372C-52.6421 218.372 -52.0218 218.578 -51.6038 218.991C-51.1858 219.404 -50.9094 219.851 -50.7746 220.33L-50.7139 220.11C-50.4442 219.005 -50.3094 218.092 -50.3094 217.373C-50.3094 216.2 -50.5858 215.374 -51.1386 214.895C-51.6915 214.415 -52.3185 214.168 -53.0196 214.155C-54.0713 214.155 -54.8871 214.581 -55.4669 215.434C-54.9141 215.514 -54.6377 215.781 -54.6377 216.233C-54.6377 216.567 -54.759 216.86 -55.0017 217.113C-55.2444 217.366 -55.5411 217.499 -55.8917 217.512ZM-51.2802 221.549C-51.2802 220.67 -51.4757 220.044 -51.8668 219.671C-52.2578 219.298 -52.7162 219.111 -53.2421 219.111C-54.0916 219.111 -54.8399 219.418 -55.4871 220.03C-55.8242 220.403 -56.0872 220.796 -56.2759 221.209C-56.4647 221.622 -56.6872 222.302 -56.9434 223.248C-57.1861 224.207 -57.3075 224.906 -57.3075 225.346C-57.3075 226.612 -56.6333 227.245 -55.2849 227.245C-55.1231 227.245 -55.0017 227.238 -54.9208 227.225C-53.8826 227.051 -53.0466 226.452 -52.4128 225.426C-52.2106 225.093 -51.9746 224.533 -51.7049 223.747C-51.4353 222.961 -51.2937 222.229 -51.2802 221.549Z" fill="#E7A3A3"/>
<path d="M-45.9231 214.348C-46.1805 214.348 -46.3855 214.264 -46.538 214.094C-46.6905 213.925 -46.7668 213.717 -46.7668 213.473C-46.7668 212.804 -46.5142 212.224 -46.0089 211.735C-45.5037 211.245 -44.8745 211 -44.1214 211C-43.2539 211 -42.5294 211.264 -41.9479 211.791C-41.3663 212.319 -41.0708 213.002 -41.0613 213.84C-41.0613 214.245 -41.1566 214.631 -41.3473 214.998C-41.5379 215.366 -41.7667 215.686 -42.0337 215.959C-42.3006 216.232 -42.6819 216.581 -43.1776 217.005C-43.5208 217.297 -43.9975 217.73 -44.6076 218.304L-45.4512 219.096L-44.3645 219.11C-42.8678 219.11 -42.0718 219.086 -41.9765 219.039C-41.9097 219.02 -41.7953 218.601 -41.6333 217.782V217.739H-41.0613V217.782C-41.0708 217.81 -41.1328 218.239 -41.2472 219.067C-41.3616 219.896 -41.4331 220.33 -41.4617 220.367V220.41H-46.7668V219.972C-46.7668 219.906 -46.7382 219.835 -46.681 219.76C-46.6238 219.684 -46.4808 219.52 -46.252 219.265C-45.9756 218.964 -45.7372 218.7 -45.537 218.474C-45.4512 218.38 -45.2892 218.206 -45.0509 217.951C-44.8125 217.697 -44.6505 217.523 -44.5647 217.429C-44.4789 217.334 -44.3406 217.179 -44.15 216.962C-43.9593 216.746 -43.8259 216.586 -43.7496 216.482C-43.6733 216.378 -43.5637 216.237 -43.4207 216.058C-43.2777 215.879 -43.1776 215.728 -43.1204 215.606C-43.0632 215.483 -42.9917 215.347 -42.9059 215.196C-42.8201 215.045 -42.7582 214.895 -42.72 214.744C-42.6819 214.593 -42.6485 214.452 -42.6199 214.32C-42.5913 214.188 -42.577 214.033 -42.577 213.854C-42.577 213.261 -42.7391 212.747 -43.0632 212.314C-43.3873 211.881 -43.8497 211.664 -44.4503 211.664C-44.7649 211.664 -45.0413 211.744 -45.2796 211.904C-45.518 212.064 -45.6848 212.22 -45.7801 212.37C-45.8755 212.521 -45.9231 212.611 -45.9231 212.639C-45.9231 212.648 -45.8993 212.653 -45.8516 212.653C-45.68 212.653 -45.5037 212.719 -45.3225 212.851C-45.1414 212.983 -45.0509 213.199 -45.0509 213.501C-45.0509 213.736 -45.1271 213.934 -45.2796 214.094C-45.4322 214.254 -45.6467 214.339 -45.9231 214.348Z" fill="#E7A3A3"/>
<path d="M-38.8964 221.929C-38.8964 221.822 -38.8357 221.616 -38.7144 221.309C-38.593 221.003 -38.4245 220.656 -38.2087 220.27C-37.993 219.884 -37.6964 219.551 -37.3188 219.271C-36.9413 218.991 -36.5435 218.845 -36.1255 218.831C-35.5052 218.831 -35.0401 218.998 -34.7299 219.331C-34.4198 219.664 -34.2647 220.057 -34.2647 220.51C-34.2647 220.75 -34.494 221.496 -34.9524 222.748C-35.4109 224 -35.6401 224.94 -35.6401 225.566C-35.6401 226.139 -35.5457 226.538 -35.3569 226.765C-35.1682 226.991 -34.885 227.111 -34.5074 227.125C-34.1299 227.138 -33.7726 227.025 -33.4355 226.785C-33.0984 226.545 -32.8489 226.319 -32.6871 226.105L-32.4647 225.766C-32.4377 225.712 -32.1815 224.7 -31.6961 222.728C-31.2916 221.129 -31.0489 220.197 -30.968 219.93C-30.8871 219.664 -30.7927 219.471 -30.6848 219.351C-30.4556 219.151 -30.2129 219.051 -29.9567 219.051C-29.7275 219.051 -29.5589 219.118 -29.451 219.251C-29.3432 219.384 -29.2892 219.511 -29.2892 219.631L-30.8264 225.985C-30.8399 226.052 -30.8466 226.159 -30.8466 226.305C-30.8466 226.638 -30.7994 226.858 -30.705 226.965C-30.6106 227.071 -30.4691 227.131 -30.2803 227.145C-29.9836 227.105 -29.7477 226.898 -29.5724 226.525C-29.3971 226.152 -29.1948 225.566 -28.9656 224.766C-28.9387 224.66 -28.8038 224.607 -28.5611 224.607C-28.3049 224.607 -28.1768 224.667 -28.1768 224.786C-28.1903 224.853 -28.2038 224.946 -28.2173 225.066C-28.2308 225.186 -28.2914 225.399 -28.3993 225.706C-28.5072 226.012 -28.6218 226.299 -28.7431 226.565C-28.8645 226.831 -29.033 227.085 -29.2488 227.324C-29.4645 227.564 -29.7072 227.731 -29.9769 227.824C-30.0848 227.851 -30.2466 227.864 -30.4623 227.864C-31.3522 227.864 -31.9658 227.491 -32.3029 226.745C-32.3298 226.758 -32.404 226.825 -32.5253 226.945C-32.6467 227.065 -32.768 227.165 -32.8894 227.244C-33.0108 227.324 -33.1591 227.424 -33.3344 227.544C-33.5097 227.664 -33.7052 227.744 -33.9209 227.784C-34.1366 227.824 -34.3659 227.857 -34.6086 227.884C-35.2019 227.884 -35.7277 227.764 -36.1862 227.524C-36.8873 227.111 -37.2379 226.405 -37.2379 225.406C-37.2379 224.647 -37.0019 223.654 -36.53 222.428C-36.0581 221.203 -35.8221 220.423 -35.8221 220.09C-35.8221 220.077 -35.8221 220.064 -35.8221 220.05C-35.8221 219.93 -35.8221 219.85 -35.8221 219.81C-35.8221 219.771 -35.8491 219.724 -35.903 219.671C-35.957 219.617 -36.0311 219.591 -36.1255 219.591H-36.2064C-36.5165 219.591 -36.7997 219.717 -37.0559 219.97C-37.3121 220.223 -37.5143 220.497 -37.6627 220.79C-37.811 221.083 -37.9256 221.363 -38.0065 221.629C-38.0874 221.895 -38.1413 222.042 -38.1683 222.069C-38.1953 222.095 -38.3031 222.109 -38.4919 222.109H-38.7751C-38.856 222.029 -38.8964 221.969 -38.8964 221.929Z" fill="#E7A3A3"/>
<path d="M-53.2343 245.409C-53.5445 245.409 -53.767 245.329 -53.9018 245.169C-54.0366 245.009 -54.1108 244.829 -54.1243 244.629C-54.1243 244.496 -54.0838 244.296 -54.0029 244.03C-53.922 243.763 -53.7804 243.45 -53.5782 243.09C-53.3759 242.731 -53.0725 242.391 -52.668 242.071C-52.2635 241.752 -51.7848 241.518 -51.232 241.372L-50.5848 241.272H-50.3421C-49.8971 241.272 -49.6342 241.279 -49.5533 241.292C-48.7038 241.438 -47.9959 241.791 -47.4296 242.351C-46.8633 242.911 -46.4588 243.53 -46.216 244.21C-45.9733 244.889 -45.8587 245.628 -45.8722 246.428C-45.8722 247.693 -46.1891 249.139 -46.8228 250.764C-47.4566 252.39 -48.2454 253.635 -49.1892 254.501C-50.2814 255.5 -51.4882 256 -52.8096 256C-54.158 256 -55.1693 255.48 -55.8435 254.441C-56.2615 253.828 -56.4705 253.216 -56.4705 252.603V252.383C-56.4705 250.824 -55.8839 249.419 -54.7108 248.166C-53.5377 246.914 -52.2365 246.281 -50.8073 246.268C-49.9848 246.268 -49.3645 246.474 -48.9465 246.887C-48.5285 247.3 -48.2521 247.747 -48.1173 248.226L-48.0566 248.006C-47.7869 246.901 -47.6521 245.988 -47.6521 245.269C-47.6521 244.096 -47.9285 243.27 -48.4813 242.791C-49.0342 242.311 -49.6611 242.065 -50.3623 242.051C-51.414 242.051 -52.2298 242.478 -52.8096 243.33C-52.2568 243.41 -51.9804 243.677 -51.9804 244.13C-51.9804 244.463 -52.1017 244.756 -52.3444 245.009C-52.5871 245.262 -52.8838 245.395 -53.2343 245.409ZM-48.6229 249.445C-48.6229 248.566 -48.8184 247.94 -49.2094 247.567C-49.6005 247.194 -50.0589 247.007 -50.5848 247.007C-51.4343 247.007 -52.1826 247.314 -52.8298 247.927C-53.1669 248.3 -53.4299 248.693 -53.6186 249.106C-53.8074 249.519 -54.0299 250.198 -54.2861 251.144C-54.5288 252.103 -54.6501 252.803 -54.6501 253.242C-54.6501 254.508 -53.976 255.141 -52.6276 255.141C-52.4658 255.141 -52.3444 255.134 -52.2635 255.121C-51.2253 254.948 -50.3893 254.348 -49.7555 253.322C-49.5533 252.989 -49.3173 252.43 -49.0476 251.644C-48.778 250.857 -48.6364 250.125 -48.6229 249.445Z" fill="#E7A3A3"/>
<path d="M-45.3462 247.866C-45.4406 247.773 -45.4878 247.707 -45.4878 247.667C-45.4878 247.613 -45.4676 247.507 -45.4271 247.347C-45.3867 247.187 -45.353 247.094 -45.326 247.067C-45.299 247 -45.2383 246.967 -45.144 246.967C-45.0496 246.967 -44.7057 246.961 -44.1124 246.947H-43.0405L-42.6562 245.348C-42.6157 245.202 -42.5686 245.009 -42.5146 244.769C-42.4607 244.529 -42.4135 244.356 -42.373 244.249C-42.3326 244.143 -42.2921 244.01 -42.2517 243.85C-42.2112 243.69 -42.1573 243.577 -42.0899 243.51C-42.0225 243.443 -41.955 243.363 -41.8876 243.27C-41.8202 243.177 -41.7258 243.117 -41.6045 243.09C-41.4831 243.064 -41.3618 243.05 -41.2404 243.05C-40.9977 243.064 -40.8291 243.137 -40.7348 243.27C-40.6404 243.403 -40.5932 243.53 -40.5932 243.65C-40.5932 243.743 -40.6539 244.056 -40.7752 244.589C-40.8966 245.122 -41.0314 245.648 -41.1797 246.168L-41.382 246.907C-41.382 246.934 -41.0449 246.947 -40.3707 246.947H-39.3392C-39.2448 247.04 -39.1976 247.114 -39.1976 247.167C-39.1976 247.46 -39.2853 247.693 -39.4605 247.866H-41.6247L-42.3528 250.764C-42.8787 252.896 -43.1416 254.041 -43.1416 254.201C-43.1416 254.761 -42.9596 255.041 -42.5955 255.041C-42.1236 255.041 -41.6651 254.814 -41.2202 254.361C-40.7752 253.908 -40.4179 253.349 -40.1482 252.683C-40.1212 252.603 -40.0875 252.556 -40.0471 252.543C-40.0066 252.529 -39.9055 252.516 -39.7437 252.503H-39.6628C-39.4605 252.503 -39.3594 252.556 -39.3594 252.663C-39.3594 252.703 -39.3796 252.782 -39.4201 252.902C-39.4875 253.116 -39.6089 253.369 -39.7842 253.662C-39.9594 253.955 -40.1887 254.268 -40.4718 254.601C-40.755 254.934 -41.0988 255.214 -41.5033 255.44C-41.9078 255.667 -42.3191 255.78 -42.7371 255.78C-43.1416 255.78 -43.5259 255.68 -43.89 255.48C-44.254 255.28 -44.517 254.934 -44.6788 254.441C-44.7057 254.335 -44.7192 254.155 -44.7192 253.902V253.542L-44.0113 250.744C-43.5394 248.866 -43.2967 247.92 -43.2832 247.906C-43.2832 247.88 -43.627 247.866 -44.3147 247.866H-45.3462Z" fill="#E7A3A3"/>
<path d="M-37.0117 243.724C-37.2691 243.724 -37.4741 243.639 -37.6266 243.47C-37.7791 243.3 -37.8554 243.093 -37.8554 242.848C-37.8554 242.179 -37.6028 241.6 -37.0975 241.11C-36.5922 240.62 -35.9631 240.375 -35.21 240.375C-34.3425 240.375 -33.6179 240.639 -33.0364 241.167C-32.4549 241.694 -32.1594 242.377 -32.1499 243.215C-32.1499 243.62 -32.2452 244.006 -32.4359 244.374C-32.6265 244.741 -32.8553 245.061 -33.1222 245.335C-33.3892 245.608 -33.7705 245.956 -34.2662 246.38C-34.6094 246.672 -35.086 247.105 -35.6961 247.68L-36.5398 248.471L-35.4531 248.485C-33.9564 248.485 -33.1604 248.462 -33.065 248.415C-32.9983 248.396 -32.8839 247.977 -32.7218 247.157V247.115H-32.1499V247.157C-32.1594 247.185 -32.2214 247.614 -32.3358 248.443C-32.4502 249.272 -32.5217 249.705 -32.5502 249.743V249.785H-37.8554V249.347C-37.8554 249.281 -37.8268 249.21 -37.7696 249.135C-37.7124 249.06 -37.5694 248.895 -37.3406 248.641C-37.0641 248.339 -36.8258 248.075 -36.6256 247.849C-36.5398 247.755 -36.3778 247.581 -36.1394 247.327C-35.9011 247.072 -35.739 246.898 -35.6532 246.804C-35.5674 246.71 -35.4292 246.554 -35.2386 246.338C-35.0479 246.121 -34.9144 245.961 -34.8382 245.857C-34.7619 245.754 -34.6523 245.612 -34.5093 245.433C-34.3663 245.254 -34.2662 245.104 -34.209 244.981C-34.1518 244.859 -34.0803 244.722 -33.9945 244.572C-33.9087 244.421 -33.8467 244.27 -33.8086 244.119C-33.7705 243.969 -33.7371 243.827 -33.7085 243.696C-33.6799 243.564 -33.6656 243.408 -33.6656 243.229C-33.6656 242.636 -33.8277 242.123 -34.1518 241.689C-34.4759 241.256 -34.9383 241.039 -35.5389 241.039C-35.8534 241.039 -36.1299 241.119 -36.3682 241.28C-36.6065 241.44 -36.7734 241.595 -36.8687 241.746C-36.964 241.897 -37.0117 241.986 -37.0117 242.014C-37.0117 242.024 -36.9879 242.028 -36.9402 242.028C-36.7686 242.028 -36.5922 242.094 -36.4111 242.226C-36.23 242.358 -36.1394 242.575 -36.1394 242.876C-36.1394 243.112 -36.2157 243.309 -36.3682 243.47C-36.5208 243.63 -36.7352 243.714 -37.0117 243.724Z" fill="#E7A3A3"/>
<path d="M-25.7293 236.777H-62V235.578H-25.7293V236.777Z" fill="#E7A3A3"/>
<path d="M-10.9323 234.239C-10.9323 234.066 -10.8379 233.932 -10.6491 233.839H2.2346C2.43686 233.946 2.53799 234.079 2.53799 234.239C2.53799 234.385 2.44361 234.512 2.25484 234.619L-4.17692 234.639H-10.6087C-10.8244 234.572 -10.9323 234.439 -10.9323 234.239ZM-10.9323 238.116C-10.9323 237.916 -10.8244 237.783 -10.6087 237.716H2.25484C2.44361 237.849 2.53799 237.982 2.53799 238.116C2.53799 238.289 2.43686 238.422 2.2346 238.515H-10.6491C-10.8379 238.422 -10.9323 238.289 -10.9323 238.116Z" fill="#E7A3A3"/>
<path d="M9.97457 237.996C9.97457 236.544 10.5544 235.238 11.714 234.079C12.8736 232.92 14.1276 232.341 15.4759 232.341C16.231 232.341 16.8243 232.5 17.2558 232.82C17.6873 233.14 17.9098 233.56 17.9232 234.079C17.9232 234.465 17.7952 234.792 17.539 235.058C17.2828 235.325 16.9592 235.465 16.5681 235.478C16.3119 235.478 16.1097 235.411 15.9614 235.278C15.813 235.145 15.7389 234.945 15.7389 234.679C15.7389 234.412 15.813 234.186 15.9614 233.999C16.1097 233.813 16.258 233.673 16.4063 233.58C16.5546 233.486 16.649 233.446 16.6895 233.46H16.7097C16.7097 233.433 16.6693 233.393 16.5884 233.34C16.5075 233.286 16.3659 233.233 16.1636 233.18C15.9614 233.127 15.7321 233.1 15.4759 233.1C15.0714 233.1 14.6871 233.193 14.3231 233.38C14.0399 233.5 13.75 233.706 13.4534 233.999C12.8601 234.585 12.4286 235.411 12.1589 236.477C11.8893 237.543 11.7477 238.316 11.7342 238.795C11.7342 239.408 11.9095 239.868 12.2601 240.174C12.5567 240.494 12.9477 240.654 13.4332 240.654H13.5141C15.0242 240.654 16.2715 240.088 17.2558 238.955C17.3772 238.822 17.4581 238.755 17.4985 238.755C17.5524 238.755 17.6401 238.815 17.7614 238.935C17.8828 239.055 17.9502 239.148 17.9637 239.215C17.9772 239.282 17.9165 239.382 17.7817 239.515C17.6468 239.648 17.4513 239.834 17.1951 240.074C16.9389 240.314 16.6356 240.514 16.285 240.674C15.9344 240.834 15.5029 241 14.9905 241.173C14.4781 241.347 13.9388 241.42 13.3725 241.393C12.3612 241.393 11.5454 241.073 10.9252 240.434C10.3049 239.795 9.98805 238.982 9.97457 237.996Z" fill="#E7A3A3"/>
<path d="M19.6031 226.858C19.3457 226.858 19.1407 226.773 18.9882 226.604C18.8357 226.434 18.7594 226.227 18.7594 225.982C18.7594 225.313 19.012 224.734 19.5173 224.244C20.0225 223.755 20.6517 223.51 21.4048 223.51C22.2723 223.51 22.9969 223.773 23.5784 224.301C24.1599 224.828 24.4554 225.511 24.4649 226.35C24.4649 226.755 24.3696 227.141 24.1789 227.508C23.9883 227.875 23.7595 228.196 23.4926 228.469C23.2256 228.742 22.8443 229.091 22.3486 229.514C22.0054 229.806 21.5288 230.24 20.9187 230.814L20.075 231.605L21.1617 231.62C22.6584 231.62 23.4544 231.596 23.5498 231.549C23.6165 231.53 23.7309 231.111 23.893 230.291V230.249H24.4649V230.291C24.4554 230.32 24.3934 230.748 24.279 231.577C24.1646 232.406 24.0931 232.839 24.0645 232.877V232.919H18.7594V232.481C18.7594 232.415 18.788 232.345 18.8452 232.269C18.9024 232.194 19.0454 232.029 19.2742 231.775C19.5507 231.474 19.789 231.21 19.9892 230.984C20.075 230.89 20.237 230.715 20.4754 230.461C20.7137 230.207 20.8758 230.032 20.9615 229.938C21.0473 229.844 21.1856 229.689 21.3762 229.472C21.5669 229.255 21.7004 229.095 21.7766 228.992C21.8529 228.888 21.9625 228.747 22.1055 228.568C22.2485 228.389 22.3486 228.238 22.4058 228.116C22.463 227.993 22.5345 227.857 22.6203 227.706C22.7061 227.555 22.7681 227.405 22.8062 227.254C22.8443 227.103 22.8777 226.962 22.9063 226.83C22.9349 226.698 22.9492 226.543 22.9492 226.364C22.9492 225.77 22.7871 225.257 22.463 224.824C22.1389 224.39 21.6765 224.174 21.076 224.174C20.7614 224.174 20.4849 224.254 20.2466 224.414C20.0082 224.574 19.8414 224.73 19.7461 224.88C19.6508 225.031 19.6031 225.12 19.6031 225.149C19.6031 225.158 19.6269 225.163 19.6746 225.163C19.8462 225.163 20.0225 225.229 20.2037 225.361C20.3848 225.492 20.4754 225.709 20.4754 226.01C20.4754 226.246 20.3991 226.444 20.2466 226.604C20.094 226.764 19.8796 226.849 19.6031 226.858Z" fill="#E7A3A3"/>
<path d="M27.1383 227.665C27.1383 227.626 27.172 227.579 27.2394 227.526H42.0041C42.0715 227.579 42.1052 227.626 42.1052 227.665C42.1052 227.692 40.9659 230.024 38.6871 234.66C36.4083 239.296 35.242 241.641 35.1881 241.694C35.1206 241.787 34.9319 241.834 34.6217 241.834C34.3116 241.834 34.1228 241.787 34.0554 241.694C34.015 241.641 32.8554 239.296 30.5766 234.66C28.2979 230.024 27.1517 227.692 27.1383 227.665ZM40.3052 229.264C40.3052 229.251 38.6062 229.244 35.2083 229.244C31.8104 229.244 30.1114 229.251 30.1114 229.264C30.1384 229.331 30.9879 231.063 32.6599 234.46C34.3318 237.857 35.1813 239.563 35.2083 239.576L40.3052 229.264Z" fill="#E7A3A3"/>
<path d="M44.6142 226.86C44.3568 226.86 44.1519 226.775 43.9993 226.606C43.8468 226.436 43.7705 226.229 43.7705 225.984C43.7705 225.315 44.0232 224.736 44.5284 224.246C45.0337 223.757 45.6629 223.512 46.416 223.512C47.2835 223.512 48.008 223.775 48.5895 224.303C49.171 224.83 49.4665 225.513 49.4761 226.352C49.4761 226.757 49.3807 227.143 49.1901 227.51C48.9994 227.877 48.7706 228.198 48.5037 228.471C48.2368 228.744 47.8554 229.092 47.3597 229.516C47.0165 229.808 46.5399 230.242 45.9298 230.816L45.0861 231.607L46.1729 231.621C47.6695 231.621 48.4656 231.598 48.5609 231.551C48.6276 231.532 48.742 231.113 48.9041 230.293V230.251H49.4761V230.293C49.4665 230.322 49.4045 230.75 49.2902 231.579C49.1758 232.408 49.1043 232.841 49.0757 232.879V232.921H43.7705V232.483C43.7705 232.417 43.7991 232.347 43.8563 232.271C43.9135 232.196 44.0565 232.031 44.2853 231.777C44.5618 231.476 44.8001 231.212 45.0003 230.986C45.0861 230.892 45.2482 230.717 45.4865 230.463C45.7248 230.209 45.8869 230.034 45.9727 229.94C46.0585 229.846 46.1967 229.691 46.3874 229.474C46.578 229.257 46.7115 229.097 46.7877 228.994C46.864 228.89 46.9736 228.749 47.1166 228.57C47.2596 228.391 47.3597 228.24 47.4169 228.118C47.4741 227.995 47.5456 227.859 47.6314 227.708C47.7172 227.557 47.7792 227.406 47.8173 227.256C47.8554 227.105 47.8888 226.964 47.9174 226.832C47.946 226.7 47.9603 226.545 47.9603 226.366C47.9603 225.772 47.7982 225.259 47.4741 224.826C47.15 224.392 46.6876 224.176 46.0871 224.176C45.7725 224.176 45.496 224.256 45.2577 224.416C45.0194 224.576 44.8525 224.731 44.7572 224.882C44.6619 225.033 44.6142 225.122 44.6142 225.151C44.6142 225.16 44.638 225.165 44.6857 225.165C44.8573 225.165 45.0337 225.231 45.2148 225.363C45.3959 225.494 45.4865 225.711 45.4865 226.012C45.4865 226.248 45.4102 226.446 45.2577 226.606C45.1052 226.766 44.8907 226.851 44.6142 226.86Z" fill="#E7A3A3"/>
<path d="M51.6419 235.439C51.6419 235.332 51.7026 235.126 51.8239 234.819C51.9453 234.513 52.1138 234.167 52.3296 233.78C52.5453 233.394 52.842 233.061 53.2195 232.781C53.5971 232.501 53.9948 232.355 54.4128 232.341C55.0331 232.341 55.4983 232.508 55.8084 232.841C56.1185 233.174 56.2736 233.567 56.2736 234.02C56.2736 234.26 56.0444 235.006 55.5859 236.258C55.1275 237.511 54.8982 238.45 54.8982 239.076C54.8982 239.649 54.9926 240.049 55.1814 240.275C55.3702 240.502 55.6533 240.621 56.0309 240.635C56.4084 240.648 56.7657 240.535 57.1028 240.295C57.4399 240.055 57.6894 239.829 57.8512 239.616L58.0737 239.276C58.1006 239.223 58.3568 238.21 58.8422 236.238C59.2468 234.64 59.4895 233.707 59.5704 233.441C59.6513 233.174 59.7457 232.981 59.8535 232.861C60.0828 232.661 60.3255 232.561 60.5817 232.561C60.8109 232.561 60.9794 232.628 61.0873 232.761C61.1952 232.894 61.2491 233.021 61.2491 233.141L59.7119 239.496C59.6985 239.562 59.6917 239.669 59.6917 239.815C59.6917 240.148 59.7389 240.368 59.8333 240.475C59.9277 240.581 60.0693 240.641 60.258 240.655C60.5547 240.615 60.7906 240.408 60.9659 240.035C61.1412 239.662 61.3435 239.076 61.5727 238.277C61.5997 238.17 61.7345 238.117 61.9772 238.117C62.2334 238.117 62.3615 238.177 62.3615 238.297C62.348 238.363 62.3345 238.457 62.3211 238.576C62.3076 238.696 62.2469 238.909 62.139 239.216C62.0312 239.522 61.9165 239.809 61.7952 240.075C61.6738 240.342 61.5053 240.595 61.2895 240.835C61.0738 241.074 60.8311 241.241 60.5614 241.334C60.4535 241.361 60.2918 241.374 60.076 241.374C59.1861 241.374 58.5726 241.001 58.2355 240.255C58.2085 240.268 58.1343 240.335 58.013 240.455C57.8916 240.575 57.7703 240.675 57.6489 240.755C57.5276 240.835 57.3793 240.935 57.204 241.054C57.0287 241.174 56.8332 241.254 56.6174 241.294C56.4017 241.334 56.1725 241.368 55.9297 241.394C55.3365 241.394 54.8106 241.274 54.3521 241.034C53.651 240.621 53.3004 239.915 53.3004 238.916C53.3004 238.157 53.5364 237.164 54.0083 235.939C54.4802 234.713 54.7162 233.934 54.7162 233.6C54.7162 233.587 54.7162 233.574 54.7162 233.56C54.7162 233.441 54.7162 233.361 54.7162 233.321C54.7162 233.281 54.6892 233.234 54.6353 233.181C54.5814 233.127 54.5072 233.101 54.4128 233.101H54.3319C54.0218 233.101 53.7386 233.227 53.4824 233.481C53.2262 233.734 53.024 234.007 52.8757 234.3C52.7273 234.593 52.6127 234.873 52.5318 235.139C52.4509 235.406 52.397 235.552 52.37 235.579C52.3431 235.605 52.2352 235.619 52.0464 235.619H51.7633C51.6824 235.539 51.6419 235.479 51.6419 235.439Z" fill="#E7A3A3"/>
<path fill-rule="evenodd" clip-rule="evenodd" d="M260.287 253.732L260.287 201.5C260.287 200.672 260.959 200 261.787 200C262.616 200 263.287 200.672 263.287 201.5L263.287 253.732C263.287 260.084 258.138 265.232 251.787 265.232L244.738 265.232C243.909 265.232 243.238 264.561 243.238 263.732C243.238 262.904 243.909 262.232 244.738 262.232L251.787 262.232C256.482 262.232 260.287 258.427 260.287 253.732Z" fill="black"/>
<path d="M188.99 148.065C189.104 147.393 189.544 146.617 190.31 145.737C191.075 144.857 192.02 144.409 193.145 144.393C193.715 144.393 194.236 144.537 194.709 144.825C195.181 145.113 195.532 145.473 195.76 145.905C196.444 144.897 197.267 144.393 198.228 144.393C198.831 144.393 199.352 144.569 199.792 144.921C200.232 145.273 200.46 145.745 200.477 146.337C200.477 146.801 200.363 147.177 200.134 147.465C199.906 147.753 199.686 147.929 199.475 147.993C199.263 148.057 199.075 148.089 198.912 148.089C198.603 148.089 198.35 148.001 198.155 147.825C197.959 147.649 197.862 147.417 197.862 147.129C197.862 146.393 198.269 145.889 199.084 145.617C198.904 145.409 198.578 145.305 198.106 145.305C197.894 145.305 197.739 145.321 197.642 145.353C197.022 145.609 196.566 146.137 196.273 146.937C195.295 150.473 194.807 152.537 194.807 153.129C194.807 153.577 194.937 153.897 195.198 154.089C195.458 154.281 195.743 154.377 196.053 154.377C196.656 154.377 197.251 154.113 197.837 153.585C198.424 153.057 198.823 152.409 199.035 151.641C199.084 151.481 199.132 151.393 199.181 151.377C199.23 151.361 199.361 151.345 199.572 151.329H199.67C199.914 151.329 200.037 151.393 200.037 151.521C200.037 151.537 200.02 151.625 199.988 151.785C199.727 152.697 199.222 153.505 198.473 154.209C197.723 154.913 196.851 155.265 195.857 155.265C194.717 155.265 193.853 154.761 193.267 153.753C192.599 154.745 191.833 155.241 190.97 155.241H190.823C190.025 155.241 189.454 155.033 189.112 154.617C188.77 154.201 188.591 153.761 188.574 153.297C188.574 152.785 188.729 152.369 189.039 152.049C189.348 151.729 189.715 151.569 190.139 151.569C190.839 151.569 191.19 151.905 191.19 152.577C191.19 152.897 191.092 153.177 190.896 153.417C190.701 153.657 190.513 153.817 190.334 153.897C190.155 153.977 190.049 154.017 190.016 154.017L189.943 154.041C189.943 154.057 189.992 154.089 190.09 154.137C190.187 154.185 190.318 154.241 190.481 154.305C190.644 154.369 190.798 154.393 190.945 154.377C191.532 154.377 192.037 154.017 192.46 153.297C192.607 153.041 192.794 152.497 193.022 151.665C193.251 150.833 193.479 149.969 193.707 149.073C193.935 148.177 194.065 147.649 194.098 147.489C194.179 147.057 194.22 146.745 194.22 146.553C194.22 146.105 194.098 145.785 193.853 145.593C193.609 145.401 193.332 145.305 193.022 145.305C192.371 145.305 191.76 145.561 191.19 146.073C190.619 146.585 190.22 147.241 189.992 148.041C189.959 148.185 189.919 148.265 189.87 148.281C189.821 148.297 189.691 148.313 189.479 148.329H189.137C189.039 148.233 188.99 148.145 188.99 148.065Z" fill="#E7A3A3"/>
<path d="M202.062 153.731C202.073 153.663 202.09 153.573 202.113 153.46C202.136 153.347 202.206 153.132 202.321 152.815C202.436 152.498 202.551 152.232 202.666 152.018C202.782 151.803 202.972 151.593 203.237 151.39C203.501 151.186 203.766 151.09 204.031 151.101C204.446 151.101 204.792 151.203 205.068 151.407C205.345 151.61 205.517 151.803 205.586 151.984C205.656 152.165 205.69 152.283 205.69 152.34C205.69 152.363 205.696 152.374 205.707 152.374L205.897 152.187C206.6 151.463 207.401 151.101 208.299 151.101C208.921 151.101 209.422 151.254 209.802 151.559C210.183 151.865 210.378 152.312 210.39 152.9C210.401 153.488 210.183 154.376 209.733 155.564C209.284 156.752 209.065 157.47 209.077 157.719C209.077 158.013 209.175 158.16 209.371 158.16C209.44 158.16 209.491 158.154 209.526 158.143C209.86 158.086 210.16 157.871 210.425 157.498C210.689 157.125 210.891 156.672 211.029 156.141C211.052 156.05 211.168 156.005 211.375 156.005C211.605 156.005 211.72 156.05 211.72 156.141C211.72 156.152 211.697 156.237 211.651 156.395C211.559 156.723 211.432 157.046 211.271 157.362C211.11 157.679 210.845 157.996 210.476 158.313C210.108 158.629 209.71 158.782 209.284 158.771C208.743 158.771 208.351 158.618 208.109 158.313C207.867 158.007 207.746 157.691 207.746 157.362C207.746 157.148 207.954 156.469 208.368 155.326C208.783 154.184 208.996 153.324 209.008 152.747C209.008 152.08 208.754 151.746 208.247 151.746H208.161C207.17 151.746 206.335 152.317 205.656 153.46L205.535 153.663L204.964 155.937C204.584 157.419 204.365 158.217 204.308 158.33C204.158 158.635 203.91 158.788 203.565 158.788C203.415 158.788 203.294 158.754 203.202 158.686C203.11 158.618 203.046 158.55 203.012 158.482C202.977 158.414 202.966 158.358 202.977 158.313C202.977 158.166 203.196 157.244 203.634 155.547C204.072 153.85 204.302 152.928 204.325 152.781C204.337 152.725 204.342 152.594 204.342 152.391C204.342 151.95 204.204 151.729 203.928 151.729C203.49 151.729 203.127 152.295 202.839 153.426C202.77 153.652 202.735 153.771 202.735 153.782C202.712 153.85 202.603 153.884 202.407 153.884H202.165C202.096 153.816 202.062 153.765 202.062 153.731Z" fill="#E7A3A3"/>
<path d="M213.034 154.58C213.034 154.58 213.034 154.506 213.034 154.359C213.034 154.212 213.114 154.099 213.275 154.02H218.442V151.474L218.459 148.929C218.574 148.782 218.684 148.709 218.787 148.709C218.937 148.709 219.052 148.793 219.133 148.963V154.02H224.282C224.455 154.11 224.541 154.223 224.541 154.359C224.541 154.495 224.455 154.608 224.282 154.698H219.133V159.755C219.041 159.913 218.937 159.992 218.822 159.992H218.753C218.615 159.992 218.511 159.913 218.442 159.755V154.698H213.275C213.114 154.619 213.034 154.506 213.034 154.359V154.58Z" fill="#E7A3A3"/>
<path d="M227.392 151.322C227.081 151.322 226.834 151.22 226.649 151.017C226.465 150.813 226.373 150.564 226.373 150.27C226.373 149.467 226.678 148.771 227.289 148.183C227.899 147.595 228.659 147.301 229.569 147.301C230.618 147.301 231.493 147.617 232.196 148.251C232.899 148.884 233.256 149.704 233.267 150.711C233.267 151.198 233.152 151.661 232.922 152.103C232.691 152.544 232.415 152.928 232.092 153.256C231.77 153.584 231.309 154.003 230.71 154.512C230.295 154.863 229.719 155.383 228.982 156.073L227.963 157.023L229.276 157.04C231.084 157.04 232.046 157.012 232.161 156.955C232.242 156.933 232.38 156.429 232.576 155.445V155.394H233.267V155.445C233.256 155.479 233.181 155.994 233.043 156.989C232.904 157.985 232.818 158.505 232.783 158.55V158.601H226.373V158.075C226.373 157.996 226.407 157.911 226.477 157.821C226.546 157.73 226.718 157.532 226.995 157.227C227.329 156.865 227.617 156.548 227.859 156.277C227.963 156.164 228.158 155.954 228.446 155.649C228.734 155.343 228.93 155.134 229.034 155.021C229.138 154.908 229.305 154.721 229.535 154.461C229.765 154.201 229.927 154.009 230.019 153.884C230.111 153.76 230.243 153.59 230.416 153.375C230.589 153.16 230.71 152.979 230.779 152.832C230.848 152.685 230.935 152.521 231.038 152.34C231.142 152.159 231.217 151.978 231.263 151.797C231.309 151.616 231.349 151.446 231.384 151.288C231.418 151.13 231.436 150.943 231.436 150.728C231.436 150.015 231.24 149.399 230.848 148.879C230.456 148.358 229.898 148.098 229.172 148.098C228.792 148.098 228.458 148.194 228.17 148.387C227.882 148.579 227.68 148.765 227.565 148.946C227.45 149.127 227.392 149.235 227.392 149.269C227.392 149.28 227.421 149.286 227.479 149.286C227.686 149.286 227.899 149.365 228.118 149.523C228.337 149.682 228.446 149.942 228.446 150.304C228.446 150.587 228.354 150.824 228.17 151.017C227.986 151.209 227.726 151.311 227.392 151.322Z" fill="#E7A3A3"/>
<path d="M243.532 146.671C243.532 146.463 243.646 146.303 243.874 146.191H259.442C259.686 146.319 259.809 146.479 259.809 146.671C259.809 146.847 259.695 146.999 259.467 147.127L251.695 147.151H243.923C243.662 147.071 243.532 146.911 243.532 146.671ZM243.532 151.327C243.532 151.087 243.662 150.927 243.923 150.847H259.467C259.695 151.007 259.809 151.167 259.809 151.327C259.809 151.535 259.686 151.695 259.442 151.807H243.874C243.646 151.695 243.532 151.535 243.532 151.327Z" fill="#E7A3A3"/>
<path d="M268.48 148.113C268.496 148.065 268.513 148.001 268.529 147.921C268.545 147.841 268.586 147.665 268.651 147.393C268.716 147.121 268.798 146.873 268.896 146.649C268.993 146.425 269.116 146.161 269.262 145.857C269.409 145.553 269.572 145.313 269.751 145.137C269.93 144.961 270.142 144.785 270.386 144.609C270.631 144.433 270.9 144.361 271.193 144.393C271.665 144.393 272.081 144.489 272.439 144.681C272.798 144.873 273.05 145.049 273.197 145.209C273.344 145.369 273.433 145.529 273.466 145.689C273.498 145.785 273.523 145.833 273.539 145.833C273.555 145.833 273.621 145.777 273.735 145.665C274.517 144.833 275.421 144.417 276.448 144.417H276.521C277.303 144.417 277.889 144.745 278.28 145.401C278.411 145.705 278.476 146.001 278.476 146.289C278.476 146.769 278.37 147.153 278.158 147.441C277.946 147.729 277.735 147.913 277.523 147.993C277.311 148.073 277.107 148.105 276.912 148.089C276.586 148.089 276.325 148.001 276.13 147.825C275.934 147.649 275.837 147.417 275.837 147.129C275.837 146.361 276.293 145.849 277.205 145.593C276.847 145.385 276.553 145.281 276.325 145.281C275.413 145.281 274.574 145.873 273.808 147.057C273.645 147.313 273.523 147.577 273.441 147.849C273.36 148.121 273.083 149.185 272.61 151.041C272.057 153.281 271.739 154.473 271.657 154.617C271.446 155.049 271.095 155.265 270.606 155.265C270.395 155.265 270.224 155.217 270.093 155.121C269.963 155.025 269.873 154.929 269.824 154.833C269.775 154.737 269.759 154.657 269.775 154.593C269.775 154.385 270.101 153.009 270.753 150.465C271.405 147.921 271.731 146.505 271.731 146.217C271.731 145.593 271.519 145.281 271.095 145.281C270.753 145.281 270.46 145.505 270.215 145.953C269.971 146.401 269.775 146.889 269.629 147.417C269.482 147.945 269.393 148.233 269.36 148.281C269.327 148.313 269.197 148.329 268.969 148.329H268.627C268.529 148.233 268.48 148.161 268.48 148.113Z" fill="#E7A3A3"/>
<path d="M280.259 148.065C280.373 147.393 280.813 146.617 281.579 145.737C282.345 144.857 283.29 144.409 284.414 144.393C284.984 144.393 285.506 144.537 285.978 144.825C286.451 145.113 286.801 145.473 287.029 145.905C287.713 144.897 288.536 144.393 289.498 144.393C290.1 144.393 290.622 144.569 291.062 144.921C291.502 145.273 291.73 145.745 291.746 146.337C291.746 146.801 291.632 147.177 291.404 147.465C291.176 147.753 290.956 147.929 290.744 147.993C290.532 148.057 290.345 148.089 290.182 148.089C289.872 148.089 289.62 148.001 289.424 147.825C289.229 147.649 289.131 147.417 289.131 147.129C289.131 146.393 289.538 145.889 290.353 145.617C290.174 145.409 289.848 145.305 289.375 145.305C289.164 145.305 289.009 145.321 288.911 145.353C288.292 145.609 287.836 146.137 287.542 146.937C286.565 150.473 286.076 152.537 286.076 153.129C286.076 153.577 286.206 153.897 286.467 154.089C286.728 154.281 287.013 154.377 287.322 154.377C287.925 154.377 288.52 154.113 289.107 153.585C289.693 153.057 290.092 152.409 290.304 151.641C290.353 151.481 290.402 151.393 290.451 151.377C290.5 151.361 290.63 151.345 290.842 151.329H290.94C291.184 151.329 291.306 151.393 291.306 151.521C291.306 151.537 291.29 151.625 291.257 151.785C290.997 152.697 290.491 153.505 289.742 154.209C288.992 154.913 288.121 155.265 287.127 155.265C285.986 155.265 285.123 154.761 284.536 153.753C283.868 154.745 283.103 155.241 282.239 155.241H282.092C281.294 155.241 280.724 155.033 280.382 154.617C280.039 154.201 279.86 153.761 279.844 153.297C279.844 152.785 279.999 152.369 280.308 152.049C280.618 151.729 280.984 151.569 281.408 151.569C282.109 151.569 282.459 151.905 282.459 152.577C282.459 152.897 282.361 153.177 282.166 153.417C281.97 153.657 281.783 153.817 281.604 153.897C281.424 153.977 281.318 154.017 281.286 154.017L281.213 154.041C281.213 154.057 281.261 154.089 281.359 154.137C281.457 154.185 281.587 154.241 281.75 154.305C281.913 154.369 282.068 154.393 282.215 154.377C282.801 154.377 283.306 154.017 283.73 153.297C283.876 153.041 284.064 152.497 284.292 151.665C284.52 150.833 284.748 149.969 284.976 149.073C285.204 148.177 285.335 147.649 285.367 147.489C285.449 147.057 285.489 146.745 285.489 146.553C285.489 146.105 285.367 145.785 285.123 145.593C284.878 145.401 284.601 145.305 284.292 145.305C283.64 145.305 283.029 145.561 282.459 146.073C281.889 146.585 281.49 147.241 281.261 148.041C281.229 148.185 281.188 148.265 281.139 148.281C281.09 148.297 280.96 148.313 280.748 148.329H280.406C280.308 148.233 280.259 148.145 280.259 148.065Z" fill="#E7A3A3"/>
<path d="M293.331 153.731C293.343 153.663 293.36 153.573 293.383 153.46C293.406 153.347 293.475 153.132 293.59 152.815C293.705 152.498 293.821 152.232 293.936 152.018C294.051 151.803 294.241 151.593 294.506 151.39C294.771 151.186 295.036 151.09 295.301 151.101C295.715 151.101 296.061 151.203 296.338 151.407C296.614 151.61 296.787 151.803 296.856 151.984C296.925 152.165 296.96 152.283 296.96 152.34C296.96 152.363 296.965 152.374 296.977 152.374L297.167 152.187C297.87 151.463 298.67 151.101 299.569 151.101C300.191 151.101 300.692 151.254 301.072 151.559C301.452 151.865 301.648 152.312 301.659 152.9C301.671 153.488 301.452 154.376 301.003 155.564C300.554 156.752 300.335 157.47 300.346 157.719C300.346 158.013 300.444 158.16 300.64 158.16C300.709 158.16 300.761 158.154 300.795 158.143C301.13 158.086 301.429 157.871 301.694 157.498C301.959 157.125 302.16 156.672 302.299 156.141C302.322 156.05 302.437 156.005 302.644 156.005C302.875 156.005 302.99 156.05 302.99 156.141C302.99 156.152 302.967 156.237 302.921 156.395C302.829 156.723 302.702 157.046 302.541 157.362C302.379 157.679 302.114 157.996 301.746 158.313C301.377 158.629 300.98 158.782 300.554 158.771C300.012 158.771 299.62 158.618 299.379 158.313C299.137 158.007 299.016 157.691 299.016 157.362C299.016 157.148 299.223 156.469 299.638 155.326C300.052 154.184 300.266 153.324 300.277 152.747C300.277 152.08 300.024 151.746 299.517 151.746H299.43C298.44 151.746 297.605 152.317 296.925 153.46L296.804 153.663L296.234 155.937C295.854 157.419 295.635 158.217 295.577 158.33C295.427 158.635 295.18 158.788 294.834 158.788C294.685 158.788 294.564 158.754 294.471 158.686C294.379 158.618 294.316 158.55 294.281 158.482C294.247 158.414 294.235 158.358 294.247 158.313C294.247 158.166 294.466 157.244 294.903 155.547C295.341 153.85 295.571 152.928 295.595 152.781C295.606 152.725 295.612 152.594 295.612 152.391C295.612 151.95 295.474 151.729 295.197 151.729C294.759 151.729 294.397 152.295 294.109 153.426C294.039 153.652 294.005 153.771 294.005 153.782C293.982 153.85 293.872 153.884 293.677 153.884H293.435C293.366 153.816 293.331 153.765 293.331 153.731Z" fill="#E7A3A3"/>
<path d="M306.858 149C306.858 147.896 306.939 146.848 307.102 145.856C307.265 144.864 307.452 144.008 307.664 143.288C307.876 142.568 308.177 141.864 308.568 141.176C308.959 140.488 309.269 139.952 309.497 139.568C309.725 139.184 310.067 138.768 310.524 138.32C310.98 137.872 311.249 137.6 311.33 137.504C311.412 137.408 311.615 137.24 311.941 137H312.357C312.585 137 312.699 137.072 312.699 137.216C312.699 137.264 312.56 137.432 312.283 137.72C312.006 138.008 311.672 138.432 311.281 138.992C310.89 139.552 310.491 140.24 310.084 141.056C309.676 141.872 309.334 142.976 309.057 144.368C308.78 145.76 308.642 147.304 308.642 149C308.642 150.696 308.78 152.232 309.057 153.608C309.334 154.984 309.668 156.096 310.059 156.944C310.45 157.792 310.849 158.48 311.257 159.008C311.664 159.536 312.006 159.96 312.283 160.28C312.56 160.6 312.699 160.768 312.699 160.784C312.699 160.928 312.577 161 312.332 161H311.941L311.257 160.424C309.725 159.064 308.609 157.368 307.909 155.336C307.208 153.304 306.858 151.192 306.858 149Z" fill="#E7A3A3"/>
<path d="M319.272 141.129L318.955 141.249C318.727 141.329 318.401 141.409 317.977 141.489C317.554 141.569 317.081 141.625 316.56 141.657H316.095V140.553H316.56C317.325 140.521 318.034 140.401 318.686 140.193C319.338 139.985 319.794 139.793 320.055 139.617C320.315 139.441 320.543 139.265 320.739 139.089C320.771 139.041 320.869 139.017 321.032 139.017C321.179 139.017 321.317 139.065 321.448 139.161V146.337L321.472 153.537C321.586 153.649 321.684 153.721 321.765 153.753C321.847 153.785 322.042 153.817 322.352 153.849C322.661 153.881 323.166 153.897 323.867 153.897H324.503V155.001H324.234C323.892 154.953 322.596 154.929 320.348 154.929C318.132 154.929 316.853 154.953 316.511 155.001H316.217V153.897H316.853C317.211 153.897 317.521 153.897 317.782 153.897C318.042 153.897 318.246 153.889 318.393 153.873C318.539 153.857 318.67 153.833 318.784 153.801C318.898 153.769 318.963 153.753 318.979 153.753C318.995 153.753 319.044 153.713 319.126 153.633C319.207 153.553 319.256 153.521 319.272 153.537V141.129Z" fill="#E7A3A3"/>
<path d="M333.771 149.313C333.771 149.313 333.771 149.209 333.771 149.001C333.771 148.793 333.885 148.633 334.113 148.521H348.313C348.557 148.649 348.679 148.809 348.679 149.001C348.679 149.193 348.557 149.353 348.313 149.481H334.113C333.885 149.369 333.771 149.209 333.771 149.001V149.313Z" fill="#E7A3A3"/>
<path d="M357.189 155.001H357.14C356.912 155.001 356.798 154.913 356.798 154.737C356.798 154.673 356.822 154.545 356.871 154.353C356.936 154.129 356.993 154.001 357.042 153.969C357.091 153.937 357.246 153.913 357.507 153.897C358.908 153.849 360.008 153.433 360.806 152.649C360.969 152.489 361.914 151.481 363.641 149.625C365.368 147.769 366.223 146.825 366.207 146.793C364.431 142.345 363.503 140.081 363.421 140.001C363.274 139.825 362.761 139.729 361.881 139.713H361.197C361.099 139.617 361.05 139.553 361.05 139.521C361.05 139.489 361.067 139.337 361.099 139.065C361.164 138.857 361.246 138.705 361.344 138.609H361.686C362.24 138.641 363.226 138.657 364.643 138.657C365.181 138.657 365.678 138.657 366.134 138.657C366.59 138.657 366.957 138.649 367.234 138.633C367.511 138.617 367.674 138.617 367.722 138.633C367.999 138.633 368.138 138.721 368.138 138.897C368.138 138.913 368.122 139.017 368.089 139.209C368.024 139.449 367.967 139.593 367.918 139.641C367.869 139.689 367.739 139.713 367.527 139.713C367.022 139.761 366.582 139.897 366.207 140.121L368.089 144.777L369.384 143.361C371.095 141.553 371.951 140.553 371.951 140.361C371.951 140.073 371.755 139.873 371.364 139.761C371.282 139.761 371.177 139.745 371.046 139.713C370.802 139.713 370.68 139.625 370.68 139.449C370.68 139.417 370.696 139.289 370.729 139.065C370.794 138.857 370.875 138.705 370.973 138.609H371.266C371.282 138.609 371.486 138.609 371.877 138.609C372.268 138.609 372.708 138.625 373.197 138.657C373.686 138.689 374.02 138.697 374.199 138.681C375.665 138.681 376.472 138.657 376.618 138.609H376.814C376.928 138.721 376.985 138.809 376.985 138.873C376.952 139.273 376.855 139.553 376.692 139.713H376.301C375.747 139.729 375.25 139.801 374.81 139.929C374.37 140.057 374.036 140.193 373.808 140.337C373.58 140.481 373.384 140.625 373.221 140.769L372.953 140.985C372.953 140.969 372.179 141.801 370.631 143.481L368.505 145.785C368.505 145.801 368.757 146.441 369.262 147.705C369.767 148.969 370.297 150.265 370.851 151.593C371.405 152.921 371.706 153.609 371.755 153.657C371.918 153.801 372.415 153.881 373.246 153.897C373.816 153.897 374.101 153.969 374.101 154.113C374.101 154.145 374.085 154.257 374.052 154.449C373.987 154.705 373.93 154.857 373.881 154.905C373.832 154.953 373.718 154.977 373.539 154.977C373.49 154.977 373.221 154.977 372.733 154.977C372.244 154.977 371.519 154.969 370.557 154.953C369.564 154.953 368.806 154.953 368.285 154.953C367.763 154.953 367.478 154.961 367.429 154.977C367.152 154.977 367.014 154.905 367.014 154.761C367.014 154.745 367.03 154.625 367.063 154.401C367.095 154.241 367.128 154.129 367.16 154.065C367.193 154.001 367.234 153.961 367.283 153.945C367.331 153.929 367.405 153.913 367.502 153.897C367.6 153.881 367.731 153.873 367.894 153.873C368.056 153.873 368.268 153.817 368.529 153.705C368.806 153.577 368.944 153.497 368.944 153.465C368.928 153.465 368.545 152.529 367.796 150.657L366.647 147.825C363.584 151.089 362.012 152.809 361.93 152.985C361.865 153.113 361.832 153.209 361.832 153.273C361.832 153.577 362.069 153.777 362.541 153.873C362.558 153.873 362.606 153.873 362.688 153.873C362.769 153.873 362.818 153.881 362.834 153.897C362.883 153.897 362.916 153.897 362.932 153.897C362.949 153.897 362.973 153.905 363.006 153.921C363.038 153.937 363.063 153.961 363.079 153.993C363.095 154.025 363.103 154.081 363.103 154.161C363.103 154.305 363.087 154.433 363.054 154.545C363.006 154.753 362.957 154.873 362.908 154.905C362.859 154.937 362.737 154.961 362.541 154.977C362.492 154.977 362.346 154.977 362.101 154.977C361.857 154.977 361.515 154.969 361.075 154.953C360.635 154.937 360.154 154.937 359.633 154.953C358.362 154.953 357.547 154.969 357.189 155.001Z" fill="#E7A3A3"/>
<path d="M376.761 153.731C376.772 153.663 376.79 153.573 376.813 153.46C376.836 153.347 376.905 153.132 377.02 152.815C377.135 152.498 377.25 152.232 377.366 152.018C377.481 151.803 377.671 151.593 377.936 151.39C378.201 151.186 378.466 151.09 378.731 151.101C379.145 151.101 379.491 151.203 379.767 151.407C380.044 151.61 380.217 151.803 380.286 151.984C380.355 152.165 380.389 152.283 380.389 152.34C380.389 152.363 380.395 152.374 380.407 152.374L380.597 152.187C381.299 151.463 382.1 151.101 382.999 151.101C383.621 151.101 384.122 151.254 384.502 151.559C384.882 151.865 385.078 152.312 385.089 152.9C385.101 153.488 384.882 154.376 384.433 155.564C383.983 156.752 383.765 157.47 383.776 157.719C383.776 158.013 383.874 158.16 384.07 158.16C384.139 158.16 384.191 158.154 384.225 158.143C384.559 158.086 384.859 157.871 385.124 157.498C385.389 157.125 385.59 156.672 385.729 156.141C385.752 156.05 385.867 156.005 386.074 156.005C386.305 156.005 386.42 156.05 386.42 156.141C386.42 156.152 386.397 156.237 386.351 156.395C386.258 156.723 386.132 157.046 385.97 157.362C385.809 157.679 385.544 157.996 385.176 158.313C384.807 158.629 384.41 158.782 383.983 158.771C383.442 158.771 383.05 158.618 382.808 158.313C382.567 158.007 382.446 157.691 382.446 157.362C382.446 157.148 382.653 156.469 383.068 155.326C383.482 154.184 383.695 153.324 383.707 152.747C383.707 152.08 383.454 151.746 382.947 151.746H382.86C381.87 151.746 381.034 152.317 380.355 153.46L380.234 153.663L379.664 155.937C379.284 157.419 379.065 158.217 379.007 158.33C378.857 158.635 378.61 158.788 378.264 158.788C378.114 158.788 377.993 158.754 377.901 158.686C377.809 158.618 377.746 158.55 377.711 158.482C377.677 158.414 377.665 158.358 377.677 158.313C377.677 158.166 377.895 157.244 378.333 155.547C378.771 153.85 379.001 152.928 379.024 152.781C379.036 152.725 379.042 152.594 379.042 152.391C379.042 151.95 378.903 151.729 378.627 151.729C378.189 151.729 377.826 152.295 377.538 153.426C377.469 153.652 377.435 153.771 377.435 153.782C377.412 153.85 377.302 153.884 377.106 153.884H376.865C376.795 153.816 376.761 153.765 376.761 153.731Z" fill="#E7A3A3"/>
<path d="M389.456 137.024L389.554 137C389.635 137 389.717 137 389.798 137H390.092L390.776 137.576C392.307 138.936 393.424 140.632 394.124 142.664C394.825 144.696 395.175 146.808 395.175 149C395.175 150.088 395.094 151.136 394.931 152.144C394.768 153.152 394.58 154.008 394.369 154.712C394.157 155.416 393.855 156.12 393.464 156.824C393.073 157.528 392.764 158.064 392.536 158.432C392.307 158.8 391.973 159.208 391.534 159.656C391.094 160.104 390.833 160.368 390.751 160.448C390.67 160.528 390.483 160.68 390.189 160.904C390.14 160.952 390.108 160.984 390.092 161H389.798C389.668 161 389.578 161 389.529 161C389.481 161 389.44 160.976 389.407 160.928C389.375 160.88 389.35 160.808 389.334 160.712C389.35 160.696 389.44 160.592 389.603 160.4C392.128 157.824 393.391 154.024 393.391 149C393.391 143.976 392.128 140.176 389.603 137.6C389.44 137.408 389.35 137.304 389.334 137.288C389.334 137.16 389.375 137.072 389.456 137.024Z" fill="#E7A3A3"/>
</g>
<rect x="192.586" y="170" width="107.312" height="35" rx="10" fill="#E62A2A"/>
<mask id="mask1_3611_49642" style="mask-type:alpha" maskUnits="userSpaceOnUse" x="192" y="170" width="106" height="35">
<rect x="192.586" y="170" width="105.306" height="35" rx="10" fill="#E62A2A"/>
</mask>
<g mask="url(#mask1_3611_49642)">
<path d="M190.58 178C190.58 172.477 195.057 168 200.58 168H289.892C294.31 168 297.892 171.582 297.892 176V195C297.892 199.418 294.31 203 289.892 203H200.58C195.057 203 190.58 198.523 190.58 193V178Z" fill="#FF6060"/>
</g>
<ellipse cx="210.137" cy="187.5" rx="8.52479" ry="8.5" fill="#FFC226"/>
<path d="M205.624 185C205.624 184.448 206.071 184 206.624 184H213.65C214.202 184 214.65 184.448 214.65 185V185C214.65 185.552 214.202 186 213.65 186H206.624C206.071 186 205.624 185.552 205.624 185V185Z" fill="white"/>
<path d="M205.624 190C205.624 189.448 206.071 189 206.624 189H213.65C214.202 189 214.65 189.448 214.65 190V190C214.65 190.552 214.202 191 213.65 191H206.624C206.071 191 205.624 190.552 205.624 190V190Z" fill="white"/>
<g clip-path="url(#clip0_3611_49642)">
<path d="M49.1143 264.304C49.1143 262.858 49.5376 261.468 50.3843 260.134C51.231 258.801 52.2989 257.744 53.5879 256.964C54.877 256.184 56.166 255.788 57.455 255.776C58.5924 255.776 59.496 256.096 60.1657 256.738C60.2795 256.864 60.3743 256.971 60.4501 257.059C60.5259 257.147 60.5765 257.21 60.6017 257.247L60.6207 257.304C60.6586 257.304 60.8292 257.141 61.1325 256.813C61.221 256.738 61.3157 256.65 61.4168 256.549C61.5179 256.449 61.619 256.348 61.7201 256.247C61.8212 256.147 61.8844 256.078 61.9097 256.04L62.1941 255.757H62.3078C62.4847 255.757 62.5732 255.801 62.5732 255.889C62.5732 255.939 62.371 256.801 61.9666 258.474C61.5116 260.222 61.2842 261.103 61.2842 261.116C61.2589 261.178 61.2273 261.216 61.1894 261.229C61.1515 261.241 61.0377 261.254 60.8482 261.267H60.5449C60.469 261.191 60.4311 261.134 60.4311 261.097C60.4311 261.084 60.4374 261.04 60.4501 260.965C60.4627 260.889 60.4754 260.763 60.488 260.587C60.5006 260.411 60.507 260.21 60.507 259.983C60.507 259.09 60.3048 258.31 59.9004 257.644C59.496 256.977 58.8072 256.637 57.8341 256.625C57.6066 256.625 57.3602 256.644 57.0948 256.681C56.8294 256.719 56.4945 256.801 56.0901 256.927C55.6857 257.052 55.3003 257.229 54.9338 257.455C54.5673 257.681 54.1693 257.983 53.7396 258.361C53.3099 258.738 52.9434 259.185 52.6401 259.7C52.3368 260.216 52.0398 260.858 51.7492 261.625C51.4585 262.392 51.2626 263.235 51.1615 264.154C51.1363 264.38 51.1236 264.625 51.1236 264.889C51.1236 265.493 51.2121 266.028 51.389 266.493C51.5659 266.959 51.7934 267.317 52.0714 267.569C52.3495 267.82 52.6654 268.034 53.0192 268.21C53.3731 268.386 53.7017 268.493 54.005 268.531C54.3083 268.569 54.5926 268.594 54.858 268.607C55.5404 268.607 56.166 268.462 56.7347 268.173C57.3033 267.883 57.6951 267.512 57.9099 267.059C57.9479 266.959 58.0426 266.613 58.1943 266.022C58.3459 265.43 58.4218 265.097 58.4218 265.022C58.4218 264.921 58.3396 264.858 58.1753 264.833C58.011 264.808 57.6319 264.789 57.038 264.776H56.3366C56.2608 264.701 56.2228 264.65 56.2228 264.625C56.2228 264.6 56.2355 264.481 56.2608 264.267C56.3113 264.103 56.3745 263.984 56.4503 263.908H56.7726C57.2781 263.933 58.1627 263.946 59.4264 263.946C59.9319 263.946 60.3427 263.946 60.6586 263.946C60.9745 263.946 61.202 263.94 61.341 263.927C61.48 263.915 61.5559 263.915 61.5685 263.927C61.7454 263.927 61.8339 263.984 61.8339 264.097C61.8339 264.122 61.8212 264.21 61.796 264.361C61.7328 264.6 61.6696 264.732 61.6064 264.757C61.5685 264.77 61.4737 264.776 61.3221 264.776C61.0693 264.776 60.8103 264.795 60.5449 264.833C60.4564 264.871 60.3932 264.927 60.3553 265.003C60.3174 265.078 60.2289 265.399 60.0899 265.965C59.9762 266.38 59.8814 266.732 59.8056 267.022C59.4896 268.305 59.3127 268.965 59.2748 269.003C59.2495 269.028 59.2179 269.041 59.18 269.041C59.0536 269.041 58.8767 268.915 58.6492 268.663C58.4218 268.412 58.2764 268.217 58.2132 268.078C58.2132 268.066 58.2006 268.066 58.1753 268.078C58.1501 268.091 58.1121 268.122 58.0616 268.173C57.1264 269.041 55.8627 269.475 54.2704 269.475C52.7412 269.475 51.5027 268.99 50.5549 268.022C49.6071 267.053 49.1269 265.814 49.1143 264.304Z" fill="black"/>
<path d="M63.8433 274.771C63.7183 274.771 63.611 274.735 63.5217 274.664C63.4323 274.593 63.3832 274.495 63.3743 274.37C63.3743 274.281 63.7004 272.938 64.3526 270.341C65.0049 267.745 65.3488 266.419 65.3846 266.366C65.5007 266.117 65.7062 265.992 66.0011 265.992C66.1083 266.001 66.1976 266.033 66.2691 266.086C66.3406 266.139 66.3853 266.193 66.4031 266.246C66.421 266.299 66.4299 266.344 66.4299 266.379C66.4299 266.486 66.2914 267.082 66.0145 268.167C65.7375 269.252 65.5901 269.861 65.5722 269.995C65.5543 270.092 65.5454 270.248 65.5454 270.462V270.568C65.5454 271.218 65.8447 271.542 66.4433 271.542C66.5237 271.542 66.6042 271.538 66.6846 271.529C66.765 271.52 66.8409 271.502 66.9124 271.475C66.9839 271.449 67.0509 271.418 67.1134 271.382C67.176 271.346 67.2341 271.315 67.2877 271.289C67.3413 271.262 67.3949 271.218 67.4485 271.155C67.5021 271.093 67.5512 271.049 67.5959 271.022C67.6406 270.995 67.6853 270.942 67.7299 270.862C67.7746 270.782 67.8103 270.733 67.8372 270.715C67.864 270.697 67.9042 270.644 67.9578 270.555L68.0516 270.422L68.5341 268.514C68.8557 267.251 69.0344 266.579 69.0701 266.499C69.1863 266.259 69.3784 266.139 69.6464 266.139C69.7626 266.139 69.8564 266.17 69.9279 266.233C69.9993 266.295 70.0485 266.348 70.0753 266.393C70.1021 266.437 70.111 266.482 70.1021 266.526L69.0835 270.768C69.0746 270.813 69.0701 270.884 69.0701 270.982C69.0701 271.204 69.1014 271.351 69.164 271.422C69.2265 271.493 69.3203 271.533 69.4454 271.542C69.5258 271.533 69.6152 271.493 69.7134 271.422C69.9011 271.244 70.0842 270.817 70.2629 270.141C70.3165 269.964 70.3612 269.87 70.3969 269.861C70.4148 269.852 70.4595 269.848 70.531 269.848H70.5846C70.7543 269.848 70.8392 269.888 70.8392 269.968C70.8392 270.021 70.8169 270.141 70.7722 270.328C70.7275 270.515 70.6382 270.755 70.5042 271.049C70.3701 271.342 70.2272 271.564 70.0753 271.716C69.9591 271.831 69.8162 271.925 69.6464 271.996C69.5749 272.013 69.4677 272.022 69.3248 272.022C69.1371 272.022 68.9674 271.996 68.8155 271.942C68.6636 271.889 68.543 271.822 68.4536 271.742C68.3643 271.662 68.2884 271.582 68.2258 271.502C68.1633 271.422 68.1231 271.355 68.1052 271.302C68.0873 271.249 68.0784 271.218 68.0784 271.209L67.998 271.289C67.9444 271.342 67.864 271.409 67.7567 271.489C67.6495 271.569 67.5334 271.649 67.4083 271.729C67.2832 271.809 67.1224 271.88 66.9258 271.942C66.7292 272.005 66.5416 272.036 66.3629 272.036C65.943 272.036 65.5275 271.933 65.1165 271.729L64.7949 273.023C64.6073 273.752 64.4956 274.175 64.4598 274.29C64.4241 274.406 64.3705 274.504 64.299 274.584C64.1561 274.708 64.0042 274.771 63.8433 274.771Z" fill="black"/>
<path d="M72.1396 266.14C72.1486 266.14 72.4702 266.117 73.1046 266.073C73.7389 266.028 74.0651 266.002 74.0829 265.993C74.1901 265.993 74.2438 266.028 74.2438 266.1C74.2438 266.153 74.0383 267.011 73.6273 268.674L72.984 271.209H73.0242L73.1582 271.156C73.2565 271.12 73.3771 271.067 73.52 270.996C73.663 270.924 73.8283 270.84 74.0159 270.742C74.2036 270.644 74.4135 270.497 74.6458 270.302C74.8781 270.106 75.106 269.902 75.3293 269.688C76.2049 268.808 76.7991 267.789 77.1118 266.633C77.2279 266.206 77.4558 265.993 77.7953 265.993C77.9115 265.993 78.0142 266.028 78.1035 266.1C78.1929 266.171 78.242 266.273 78.251 266.406C78.251 266.593 78.1884 266.856 78.0633 267.193C77.9383 267.531 77.7283 267.932 77.4334 268.394C77.1386 268.857 76.7767 269.301 76.3479 269.728C75.919 270.155 75.3785 270.564 74.7262 270.956C74.074 271.347 73.3548 271.636 72.5685 271.823C72.3451 271.885 72.1888 271.916 72.0994 271.916C72.0548 271.916 72.0011 271.912 71.9386 271.903C71.8761 271.894 71.8403 271.885 71.8314 271.876C71.7778 271.84 71.751 271.796 71.751 271.743C71.751 271.725 71.9431 270.938 72.3273 269.381L72.917 267.033C72.9259 266.918 72.8946 266.847 72.8231 266.82C72.7517 266.793 72.5774 266.771 72.3005 266.753H72.019C71.9654 266.7 71.9386 266.664 71.9386 266.647C71.9386 266.629 71.9475 266.544 71.9654 266.393C72.0011 266.224 72.0592 266.14 72.1396 266.14Z" fill="black"/>
<path d="M84.4756 264.587C84.4756 264.587 84.4756 264.505 84.4756 264.342C84.4756 264.178 84.564 264.053 84.741 263.965H90.4089V261.134L90.4278 258.304C90.5542 258.14 90.6743 258.058 90.788 258.058C90.9523 258.058 91.0787 258.153 91.1671 258.342V263.965H96.8161C97.0057 264.065 97.1004 264.191 97.1004 264.342C97.1004 264.493 97.0057 264.619 96.8161 264.719H91.1671V270.342C91.066 270.518 90.9523 270.606 90.8259 270.606H90.788H90.7501C90.5985 270.606 90.4847 270.518 90.4089 270.342V264.719H84.741C84.564 264.631 84.4756 264.505 84.4756 264.342V264.587Z" fill="black"/>
<path d="M108.439 255.7C108.515 255.6 108.642 255.549 108.818 255.549H108.97H109.103C109.254 255.549 109.362 255.6 109.425 255.7C109.45 255.725 109.773 256.738 110.392 258.738C111.011 260.738 111.643 262.757 112.287 264.795C112.932 266.833 113.261 267.865 113.273 267.89C113.349 268.015 113.45 268.091 113.577 268.116C113.703 268.141 113.975 268.166 114.392 268.192H114.903V269.06H114.752C114.638 269.022 113.873 269.003 112.458 269.003C110.929 269.003 110.032 269.022 109.766 269.06H109.558V268.192H109.804C110.714 268.192 111.169 268.072 111.169 267.833C111.156 267.77 110.689 266.261 109.766 263.304C108.844 260.348 108.376 258.877 108.364 258.889L107.037 263.097C106.165 265.877 105.729 267.336 105.729 267.475C105.729 267.626 105.861 267.783 106.127 267.946C106.392 268.11 106.708 268.192 107.075 268.192H107.169V269.06H107.018C106.828 269.022 106.101 269.003 104.838 269.003C103.789 269.003 103.207 269.022 103.094 269.06H102.98V268.192H103.226C104.073 268.129 104.591 267.846 104.781 267.342C104.793 267.33 105.406 265.393 106.62 261.531C107.833 257.669 108.439 255.725 108.439 255.7Z" fill="black"/>
<path d="M121.425 268.248C121.235 268.412 120.957 268.588 120.591 268.777C120.224 268.965 119.839 269.06 119.434 269.06C118.638 269.06 118 268.777 117.52 268.21C117.04 267.644 116.793 266.921 116.781 266.041C116.781 264.72 117.267 263.506 118.24 262.399C119.213 261.292 120.294 260.732 121.482 260.719C122.076 260.719 122.625 261.021 123.131 261.625L123.188 261.55C123.213 261.512 123.245 261.474 123.283 261.436C123.32 261.399 123.377 261.348 123.453 261.286C123.529 261.223 123.611 261.179 123.7 261.153C123.788 261.128 123.889 261.109 124.003 261.097C124.18 261.097 124.325 261.153 124.439 261.267C124.553 261.38 124.616 261.499 124.628 261.625C124.628 261.814 124.268 263.336 123.548 266.191C122.828 269.047 122.448 270.506 122.411 270.569C122.183 271.248 121.697 271.808 120.951 272.248C120.205 272.689 119.352 272.915 118.392 272.928C116.61 272.928 115.719 272.5 115.719 271.645C115.719 271.318 115.833 271.028 116.06 270.777C116.288 270.525 116.578 270.399 116.932 270.399C117.122 270.399 117.299 270.456 117.463 270.569C117.627 270.682 117.716 270.877 117.728 271.154C117.728 271.28 117.716 271.399 117.69 271.513C117.665 271.626 117.621 271.714 117.558 271.777C117.495 271.84 117.444 271.903 117.406 271.965C117.368 272.028 117.324 272.079 117.273 272.116L117.235 272.154H117.254C117.381 272.192 117.76 272.211 118.392 272.211C118.872 272.211 119.251 272.135 119.529 271.984C119.82 271.846 120.092 271.638 120.344 271.362C120.597 271.085 120.774 270.789 120.875 270.475C120.951 270.236 121.052 269.846 121.178 269.305C121.343 268.701 121.425 268.349 121.425 268.248ZM122.809 262.871L122.733 262.663C122.695 262.525 122.663 262.43 122.638 262.38C122.613 262.33 122.575 262.242 122.524 262.116C122.474 261.99 122.411 261.902 122.335 261.852C122.259 261.801 122.177 261.732 122.088 261.644C122 261.556 121.886 261.499 121.747 261.474C121.608 261.449 121.469 261.43 121.33 261.418C120.774 261.418 120.237 261.751 119.719 262.418C119.34 262.908 119.024 263.657 118.771 264.663C118.518 265.669 118.392 266.399 118.392 266.852C118.392 267.846 118.784 268.343 119.567 268.343C120.275 268.343 120.97 267.902 121.652 267.022L121.804 266.833L122.809 262.871Z" fill="black"/>
<path d="M125.349 274.771C125.224 274.771 125.117 274.735 125.028 274.664C124.938 274.593 124.889 274.495 124.88 274.37C124.88 274.281 125.206 272.938 125.858 270.341C126.511 267.745 126.855 266.419 126.89 266.366C127.007 266.117 127.212 265.992 127.507 265.992C127.614 266.001 127.703 266.033 127.775 266.086C127.846 266.139 127.891 266.193 127.909 266.246C127.927 266.299 127.936 266.344 127.936 266.379C127.936 266.486 127.797 267.082 127.52 268.167C127.243 269.252 127.096 269.861 127.078 269.995C127.06 270.092 127.051 270.248 127.051 270.462V270.568C127.051 271.218 127.351 271.542 127.949 271.542C128.03 271.542 128.11 271.538 128.19 271.529C128.271 271.52 128.347 271.502 128.418 271.475C128.49 271.449 128.557 271.418 128.619 271.382C128.682 271.346 128.74 271.315 128.794 271.289C128.847 271.262 128.901 271.218 128.954 271.155C129.008 271.093 129.057 271.049 129.102 271.022C129.146 270.995 129.191 270.942 129.236 270.862C129.28 270.782 129.316 270.733 129.343 270.715C129.37 270.697 129.41 270.644 129.464 270.555L129.557 270.422L130.04 268.514C130.362 267.251 130.54 266.579 130.576 266.499C130.692 266.259 130.884 266.139 131.152 266.139C131.268 266.139 131.362 266.17 131.434 266.233C131.505 266.295 131.554 266.348 131.581 266.393C131.608 266.437 131.617 266.482 131.608 266.526L130.589 270.768C130.58 270.813 130.576 270.884 130.576 270.982C130.576 271.204 130.607 271.351 130.67 271.422C130.732 271.493 130.826 271.533 130.951 271.542C131.032 271.533 131.121 271.493 131.219 271.422C131.407 271.244 131.59 270.817 131.769 270.141C131.822 269.964 131.867 269.87 131.903 269.861C131.921 269.852 131.965 269.848 132.037 269.848H132.09C132.26 269.848 132.345 269.888 132.345 269.968C132.345 270.021 132.323 270.141 132.278 270.328C132.233 270.515 132.144 270.755 132.01 271.049C131.876 271.342 131.733 271.564 131.581 271.716C131.465 271.831 131.322 271.925 131.152 271.996C131.081 272.013 130.974 272.022 130.831 272.022C130.643 272.022 130.473 271.996 130.321 271.942C130.169 271.889 130.049 271.822 129.96 271.742C129.87 271.662 129.794 271.582 129.732 271.502C129.669 271.422 129.629 271.355 129.611 271.302C129.593 271.249 129.584 271.218 129.584 271.209L129.504 271.289C129.45 271.342 129.37 271.409 129.263 271.489C129.155 271.569 129.039 271.649 128.914 271.729C128.789 271.809 128.628 271.88 128.432 271.942C128.235 272.005 128.047 272.036 127.869 272.036C127.449 272.036 127.033 271.933 126.622 271.729L126.301 273.023C126.113 273.752 126.001 274.175 125.966 274.29C125.93 274.406 125.876 274.504 125.805 274.584C125.662 274.708 125.51 274.771 125.349 274.771Z" fill="black"/>
<path d="M133.645 266.14C133.654 266.14 133.976 266.117 134.61 266.073C135.245 266.028 135.571 266.002 135.589 265.993C135.696 265.993 135.75 266.028 135.75 266.1C135.75 266.153 135.544 267.011 135.133 268.674L134.49 271.209H134.53L134.664 271.156C134.762 271.12 134.883 271.067 135.026 270.996C135.169 270.924 135.334 270.84 135.522 270.742C135.709 270.644 135.919 270.497 136.152 270.302C136.384 270.106 136.612 269.902 136.835 269.688C137.711 268.808 138.305 267.789 138.618 266.633C138.734 266.206 138.962 265.993 139.301 265.993C139.417 265.993 139.52 266.028 139.609 266.1C139.699 266.171 139.748 266.273 139.757 266.406C139.757 266.593 139.694 266.856 139.569 267.193C139.444 267.531 139.234 267.932 138.939 268.394C138.644 268.857 138.283 269.301 137.854 269.728C137.425 270.155 136.884 270.564 136.232 270.956C135.58 271.347 134.861 271.636 134.074 271.823C133.851 271.885 133.695 271.916 133.605 271.916C133.561 271.916 133.507 271.912 133.444 271.903C133.382 271.894 133.346 271.885 133.337 271.876C133.284 271.84 133.257 271.796 133.257 271.743C133.257 271.725 133.449 270.938 133.833 269.381L134.423 267.033C134.432 266.918 134.4 266.847 134.329 266.82C134.258 266.793 134.083 266.771 133.806 266.753H133.525C133.471 266.7 133.444 266.664 133.444 266.647C133.444 266.629 133.453 266.544 133.471 266.393C133.507 266.224 133.565 266.14 133.645 266.14Z" fill="black"/>
<path d="M147.032 262.512C147.032 262.348 147.121 262.222 147.298 262.134H159.373C159.562 262.235 159.657 262.361 159.657 262.512C159.657 262.65 159.569 262.77 159.392 262.87L153.364 262.889H147.336C147.133 262.826 147.032 262.701 147.032 262.512ZM147.032 266.172C147.032 265.984 147.133 265.858 147.336 265.795H159.392C159.569 265.921 159.657 266.047 159.657 266.172C159.657 266.336 159.562 266.462 159.373 266.55H147.298C147.121 266.462 147.032 266.336 147.032 266.172Z" fill="black"/>
<path d="M171.482 248.436C171.482 248.436 171.482 247.952 171.482 246.983C171.482 246.015 171.823 245.235 172.506 244.644C173.188 244.052 173.972 243.75 174.856 243.738C175.754 243.738 176.55 244.002 177.245 244.53C177.94 245.059 178.287 245.744 178.287 246.587C178.287 246.964 178.218 247.317 178.079 247.644C177.94 247.971 177.776 248.235 177.586 248.436C177.396 248.637 177.201 248.814 176.998 248.965C176.796 249.115 176.632 249.229 176.505 249.304C176.379 249.38 176.31 249.43 176.297 249.455L176.562 249.625C176.739 249.751 176.916 249.877 177.093 250.002C177.27 250.128 177.371 250.197 177.396 250.21C178.344 250.952 178.818 251.889 178.818 253.021C178.818 254.015 178.452 254.877 177.719 255.606C176.986 256.336 176.038 256.707 174.875 256.72C173.738 256.72 172.803 256.399 172.07 255.757C171.337 255.116 170.97 254.323 170.97 253.38C170.97 252.021 171.785 250.889 173.416 249.983L173.074 249.738C172.809 249.575 172.638 249.449 172.563 249.361C171.842 248.744 171.482 247.952 171.482 246.983V248.436ZM175.577 249.021L175.69 248.946C175.766 248.895 175.823 248.858 175.861 248.832C175.899 248.807 175.962 248.763 176.05 248.7C176.139 248.637 176.215 248.575 176.278 248.512C176.341 248.449 176.411 248.373 176.486 248.285C176.562 248.197 176.632 248.115 176.695 248.04C176.758 247.964 176.821 247.864 176.885 247.738C176.948 247.612 177.005 247.505 177.055 247.417C177.106 247.329 177.137 247.203 177.15 247.04C177.163 246.876 177.175 246.738 177.188 246.625C177.188 246.084 177.005 245.625 176.638 245.247C176.272 244.87 175.848 244.631 175.368 244.53C175.28 244.518 175.071 244.511 174.743 244.511C174.224 244.511 173.738 244.675 173.283 245.002C172.828 245.329 172.594 245.738 172.581 246.229C172.581 246.518 172.664 246.782 172.828 247.021C172.992 247.26 173.157 247.442 173.321 247.568C173.485 247.694 173.801 247.895 174.269 248.172C174.357 248.235 174.427 248.279 174.477 248.304L175.577 249.021ZM174.894 255.908C175.627 255.908 176.259 255.695 176.79 255.267C177.321 254.839 177.586 254.323 177.586 253.72C177.586 253.506 177.554 253.304 177.491 253.116C177.428 252.927 177.352 252.77 177.264 252.644C177.175 252.518 177.036 252.38 176.847 252.229C176.657 252.078 176.512 251.965 176.411 251.889C176.31 251.814 176.126 251.694 175.861 251.531C175.596 251.367 175.425 251.26 175.349 251.21C175.172 251.097 174.983 250.977 174.78 250.851C174.578 250.726 174.414 250.619 174.288 250.531L174.136 250.436C174.06 250.436 173.877 250.543 173.586 250.757C173.296 250.971 172.992 251.317 172.676 251.795C172.36 252.273 172.196 252.789 172.183 253.342C172.183 254.084 172.455 254.694 172.999 255.172C173.542 255.65 174.174 255.896 174.894 255.908Z" fill="black"/>
<path d="M182.135 256.512C181.706 256.512 181.491 256.304 181.491 255.889V255.681L181.737 255.153C182.685 253.166 183.374 251.449 183.803 250.002L183.955 249.549H183.348C182.868 249.549 182.527 249.568 182.325 249.606C182.123 249.643 181.876 249.763 181.585 249.964C181.446 250.052 181.307 250.165 181.168 250.304C181.029 250.442 180.909 250.574 180.808 250.7C180.707 250.826 180.65 250.901 180.638 250.926C180.612 250.939 180.518 250.945 180.353 250.945C180.113 250.945 179.993 250.882 179.993 250.757C179.993 250.681 180.113 250.461 180.353 250.096C180.593 249.731 180.941 249.341 181.396 248.926C181.851 248.511 182.3 248.272 182.742 248.209C182.83 248.184 184.252 248.172 187.007 248.172C189.029 248.172 190.065 248.178 190.116 248.19C190.369 248.279 190.495 248.455 190.495 248.719C190.495 249.109 190.293 249.373 189.888 249.511C189.812 249.536 189.376 249.549 188.58 249.549H187.367L187.31 249.87C187.159 250.776 187.083 251.524 187.083 252.115C187.083 252.769 187.14 253.354 187.253 253.87C187.367 254.386 187.487 254.788 187.614 255.078C187.74 255.367 187.803 255.543 187.803 255.606C187.803 255.82 187.715 256.021 187.538 256.21C187.361 256.399 187.133 256.493 186.855 256.493C186.716 256.493 186.603 256.474 186.514 256.436C186.426 256.399 186.325 256.248 186.211 255.983C186.097 255.719 185.996 255.342 185.908 254.851C185.895 254.738 185.889 254.461 185.889 254.021C185.889 253.405 185.945 252.744 186.059 252.04C186.173 251.335 186.287 250.757 186.4 250.304C186.514 249.851 186.577 249.599 186.59 249.549H184.732L184.713 249.625C184.713 249.662 184.593 250.159 184.353 251.115C184.113 252.071 183.841 253.084 183.538 254.153C183.235 255.222 183.039 255.832 182.95 255.983C182.811 256.336 182.54 256.512 182.135 256.512Z" fill="black"/>
<path d="M191.386 251.55C191.386 250.103 191.81 248.713 192.656 247.38C193.503 246.046 194.571 244.989 195.86 244.21C197.149 243.43 198.438 243.033 199.727 243.021C200.864 243.021 201.768 243.342 202.438 243.983C202.551 244.109 202.646 244.216 202.722 244.304C202.798 244.392 202.848 244.455 202.874 244.493L202.893 244.549C202.931 244.549 203.101 244.386 203.404 244.059C203.493 243.983 203.588 243.895 203.689 243.794C203.79 243.694 203.891 243.593 203.992 243.492C204.093 243.392 204.156 243.323 204.182 243.285L204.466 243.002H204.58C204.757 243.002 204.845 243.046 204.845 243.134C204.845 243.184 204.643 244.046 204.239 245.719C203.784 247.468 203.556 248.348 203.556 248.361C203.531 248.424 203.499 248.461 203.461 248.474C203.423 248.487 203.31 248.499 203.12 248.512H202.817C202.741 248.436 202.703 248.38 202.703 248.342C202.703 248.329 202.709 248.285 202.722 248.21C202.735 248.134 202.747 248.008 202.76 247.832C202.773 247.656 202.779 247.455 202.779 247.229C202.779 246.335 202.577 245.556 202.172 244.889C201.768 244.222 201.079 243.882 200.106 243.87C199.879 243.87 199.632 243.889 199.367 243.926C199.101 243.964 198.767 244.046 198.362 244.172C197.958 244.298 197.572 244.474 197.206 244.7C196.839 244.927 196.441 245.228 196.012 245.606C195.582 245.983 195.215 246.43 194.912 246.946C194.609 247.461 194.312 248.103 194.021 248.87C193.73 249.638 193.535 250.48 193.434 251.399C193.408 251.625 193.396 251.87 193.396 252.135C193.396 252.738 193.484 253.273 193.661 253.738C193.838 254.204 194.065 254.562 194.343 254.814C194.621 255.066 194.937 255.279 195.291 255.455C195.645 255.632 195.974 255.739 196.277 255.776C196.58 255.814 196.865 255.839 197.13 255.852C197.812 255.852 198.438 255.707 199.007 255.418C199.575 255.128 199.967 254.757 200.182 254.304C200.22 254.204 200.315 253.858 200.466 253.267C200.618 252.675 200.694 252.342 200.694 252.267C200.694 252.166 200.612 252.103 200.447 252.078C200.283 252.053 199.904 252.034 199.31 252.021H198.609C198.533 251.946 198.495 251.896 198.495 251.87C198.495 251.845 198.507 251.726 198.533 251.512C198.583 251.348 198.646 251.229 198.722 251.153H199.045C199.55 251.179 200.435 251.191 201.698 251.191C202.204 251.191 202.615 251.191 202.931 251.191C203.247 251.191 203.474 251.185 203.613 251.172C203.752 251.16 203.828 251.16 203.84 251.172C204.017 251.172 204.106 251.229 204.106 251.342C204.106 251.367 204.093 251.455 204.068 251.606C204.005 251.845 203.942 251.977 203.878 252.002C203.84 252.015 203.746 252.021 203.594 252.021C203.341 252.021 203.082 252.04 202.817 252.078C202.728 252.116 202.665 252.172 202.627 252.248C202.589 252.323 202.501 252.644 202.362 253.21C202.248 253.625 202.153 253.977 202.078 254.267C201.762 255.55 201.585 256.21 201.547 256.248C201.522 256.273 201.49 256.286 201.452 256.286C201.326 256.286 201.149 256.16 200.921 255.908C200.694 255.657 200.548 255.462 200.485 255.323C200.485 255.311 200.473 255.311 200.447 255.323C200.422 255.336 200.384 255.367 200.334 255.418C199.398 256.286 198.135 256.72 196.542 256.72C195.013 256.72 193.775 256.235 192.827 255.267C191.879 254.298 191.399 253.059 191.386 251.55Z" fill="black"/>
<path d="M180.461 279.79C180.461 278.419 181.005 277.186 182.092 276.092C183.178 274.997 184.354 274.45 185.618 274.45C186.325 274.45 186.881 274.601 187.286 274.903C187.69 275.205 187.899 275.601 187.911 276.092C187.911 276.457 187.791 276.765 187.551 277.016C187.311 277.268 187.008 277.4 186.641 277.413C186.401 277.413 186.211 277.35 186.072 277.224C185.933 277.098 185.864 276.909 185.864 276.658C185.864 276.406 185.933 276.192 186.072 276.016C186.211 275.84 186.351 275.708 186.49 275.62C186.629 275.532 186.717 275.494 186.755 275.507H186.774C186.774 275.482 186.736 275.444 186.66 275.394C186.584 275.343 186.452 275.293 186.262 275.243C186.072 275.192 185.858 275.167 185.618 275.167C185.238 275.167 184.878 275.255 184.537 275.431C184.272 275.545 184 275.74 183.722 276.016C183.166 276.57 182.761 277.35 182.509 278.356C182.256 279.362 182.123 280.092 182.111 280.545C182.111 281.124 182.275 281.558 182.603 281.847C182.882 282.149 183.248 282.3 183.703 282.3H183.779C185.194 282.3 186.363 281.765 187.286 280.696C187.399 280.57 187.475 280.507 187.513 280.507C187.564 280.507 187.646 280.564 187.76 280.677C187.873 280.79 187.937 280.878 187.949 280.941C187.962 281.004 187.905 281.098 187.779 281.224C187.652 281.35 187.469 281.526 187.229 281.753C186.989 281.979 186.704 282.168 186.376 282.319C186.047 282.47 185.643 282.627 185.163 282.79C184.682 282.954 184.177 283.023 183.646 282.998C182.698 282.998 181.934 282.696 181.352 282.092C180.771 281.488 180.474 280.721 180.461 279.79Z" fill="black"/>
<path d="M194.217 277.336C194.056 277.309 193.48 277.296 192.488 277.296C191.452 277.296 190.853 277.309 190.692 277.336H190.572V276.722H190.987C191.166 276.722 191.286 276.722 191.349 276.722C191.411 276.722 191.487 276.713 191.577 276.696C191.666 276.678 191.729 276.656 191.764 276.629C191.8 276.602 191.831 276.567 191.858 276.522C191.867 276.504 191.872 276.264 191.872 275.802V275.135H188.4V274.521L190.424 271.439C191.791 269.376 192.484 268.34 192.501 268.331C192.519 268.313 192.613 268.304 192.783 268.304H193.024L193.105 268.384V274.521H194.337V275.135H193.105V275.815C193.105 276.18 193.105 276.393 193.105 276.455C193.105 276.518 193.131 276.571 193.185 276.616C193.256 276.678 193.511 276.713 193.949 276.722H194.337V277.336H194.217ZM191.952 274.521V270.065L189.017 274.508L190.478 274.521H191.952Z" fill="black"/>
<path d="M207.234 264.907H168.26V263.775H207.234V264.907Z" fill="black"/>
<path d="M210.267 260.813C210.027 260.813 209.907 260.762 209.907 260.662C209.907 260.599 210.008 260.247 210.21 259.605C210.412 258.964 210.627 258.328 210.855 257.699L211.177 256.775C211.24 256.548 211.322 256.385 211.423 256.284H220.295H222.001C222.405 256.284 222.645 256.291 222.721 256.303C222.797 256.316 222.841 256.372 222.854 256.473C222.854 256.548 222.746 257.265 222.532 258.624C222.317 259.983 222.197 260.668 222.171 260.681C222.171 260.769 222.051 260.813 221.811 260.813C221.698 260.813 221.622 260.813 221.584 260.813C221.546 260.813 221.508 260.781 221.47 260.718L221.432 260.662C221.432 260.586 221.47 260.303 221.546 259.813C221.622 259.322 221.66 258.938 221.66 258.662C221.66 258.221 221.577 257.888 221.413 257.662C221.249 257.435 220.901 257.278 220.371 257.19C220.307 257.177 219.941 257.165 219.271 257.152C218.69 257.152 218.323 257.158 218.172 257.171C218.02 257.184 217.906 257.234 217.83 257.322C217.818 257.335 217.369 259.089 216.485 262.586C215.6 266.084 215.158 267.864 215.158 267.926C215.158 268.077 215.714 268.165 216.826 268.191C217.23 268.191 217.489 268.197 217.603 268.209C217.717 268.222 217.774 268.279 217.774 268.379C217.774 268.442 217.755 268.53 217.717 268.643C217.666 268.87 217.609 269.002 217.546 269.04L217.508 269.059C217.47 269.059 217.426 269.059 217.375 269.059C217.312 269.059 216.984 269.052 216.39 269.04C215.796 269.027 214.943 269.021 213.831 269.021C212.2 269.021 211.164 269.033 210.722 269.059H210.438C210.362 268.983 210.324 268.927 210.324 268.889C210.324 268.851 210.336 268.738 210.362 268.549C210.412 268.386 210.475 268.266 210.551 268.191H211.082H211.291C212.302 268.191 212.902 268.134 213.091 268.021C213.104 268.008 213.117 268.002 213.129 268.002C213.192 267.964 213.256 267.838 213.319 267.625C213.382 267.411 213.635 266.423 214.077 264.662C214.292 263.807 214.469 263.109 214.608 262.568C215.493 259.108 215.935 257.341 215.935 257.265C215.935 257.203 215.752 257.171 215.385 257.171H214.797C213.951 257.171 213.395 257.209 213.129 257.284C212.561 257.41 212.118 257.668 211.802 258.058C211.486 258.448 211.145 259.177 210.779 260.247C210.69 260.523 210.627 260.687 210.589 260.737C210.551 260.788 210.463 260.813 210.324 260.813H210.267Z" fill="black"/>
<path d="M221.357 274.771C221.231 274.771 221.124 274.735 221.035 274.664C220.946 274.593 220.896 274.495 220.887 274.37C220.887 274.281 221.214 272.938 221.866 270.341C222.518 267.745 222.862 266.419 222.898 266.366C223.014 266.117 223.219 265.992 223.514 265.992C223.621 266.001 223.711 266.033 223.782 266.086C223.854 266.139 223.898 266.193 223.916 266.246C223.934 266.299 223.943 266.344 223.943 266.379C223.943 266.486 223.805 267.082 223.528 268.167C223.251 269.252 223.103 269.861 223.085 269.995C223.068 270.092 223.059 270.248 223.059 270.462V270.568C223.059 271.218 223.358 271.542 223.957 271.542C224.037 271.542 224.117 271.538 224.198 271.529C224.278 271.52 224.354 271.502 224.426 271.475C224.497 271.449 224.564 271.418 224.627 271.382C224.689 271.346 224.747 271.315 224.801 271.289C224.854 271.262 224.908 271.218 224.962 271.155C225.015 271.093 225.064 271.049 225.109 271.022C225.154 270.995 225.198 270.942 225.243 270.862C225.288 270.782 225.324 270.733 225.35 270.715C225.377 270.697 225.417 270.644 225.471 270.555L225.565 270.422L226.047 268.514C226.369 267.251 226.548 266.579 226.583 266.499C226.699 266.259 226.892 266.139 227.16 266.139C227.276 266.139 227.37 266.17 227.441 266.233C227.513 266.295 227.562 266.348 227.588 266.393C227.615 266.437 227.624 266.482 227.615 266.526L226.597 270.768C226.588 270.813 226.583 270.884 226.583 270.982C226.583 271.204 226.615 271.351 226.677 271.422C226.74 271.493 226.833 271.533 226.959 271.542C227.039 271.533 227.128 271.493 227.227 271.422C227.414 271.244 227.597 270.817 227.776 270.141C227.83 269.964 227.874 269.87 227.91 269.861C227.928 269.852 227.973 269.848 228.044 269.848H228.098C228.268 269.848 228.352 269.888 228.352 269.968C228.352 270.021 228.33 270.141 228.285 270.328C228.241 270.515 228.151 270.755 228.017 271.049C227.883 271.342 227.74 271.564 227.588 271.716C227.472 271.831 227.329 271.925 227.16 271.996C227.088 272.013 226.981 272.022 226.838 272.022C226.65 272.022 226.481 271.996 226.329 271.942C226.177 271.889 226.056 271.822 225.967 271.742C225.877 271.662 225.802 271.582 225.739 271.502C225.676 271.422 225.636 271.355 225.618 271.302C225.601 271.249 225.592 271.218 225.592 271.209L225.511 271.289C225.458 271.342 225.377 271.409 225.27 271.489C225.163 271.569 225.047 271.649 224.921 271.729C224.796 271.809 224.636 271.88 224.439 271.942C224.242 272.005 224.055 272.036 223.876 272.036C223.456 272.036 223.041 271.933 222.63 271.729L222.308 273.023C222.12 273.752 222.009 274.175 221.973 274.29C221.937 274.406 221.884 274.504 221.812 274.584C221.669 274.708 221.517 274.771 221.357 274.771Z" fill="black"/>
<path d="M229.653 266.14C229.662 266.14 229.983 266.117 230.618 266.073C231.252 266.028 231.578 266.002 231.596 265.993C231.703 265.993 231.757 266.028 231.757 266.1C231.757 266.153 231.551 267.011 231.14 268.674L230.497 271.209H230.537L230.671 271.156C230.77 271.12 230.89 271.067 231.033 270.996C231.176 270.924 231.341 270.84 231.529 270.742C231.717 270.644 231.927 270.497 232.159 270.302C232.391 270.106 232.619 269.902 232.843 269.688C233.718 268.808 234.312 267.789 234.625 266.633C234.741 266.206 234.969 265.993 235.308 265.993C235.425 265.993 235.527 266.028 235.617 266.1C235.706 266.171 235.755 266.273 235.764 266.406C235.764 266.593 235.702 266.856 235.577 267.193C235.451 267.531 235.241 267.932 234.947 268.394C234.652 268.857 234.29 269.301 233.861 269.728C233.432 270.155 232.892 270.564 232.239 270.956C231.587 271.347 230.868 271.636 230.082 271.823C229.858 271.885 229.702 271.916 229.613 271.916C229.568 271.916 229.514 271.912 229.452 271.903C229.389 271.894 229.354 271.885 229.345 271.876C229.291 271.84 229.264 271.796 229.264 271.743C229.264 271.725 229.456 270.938 229.84 269.381L230.43 267.033C230.439 266.918 230.408 266.847 230.336 266.82C230.265 266.793 230.091 266.771 229.814 266.753H229.532C229.479 266.7 229.452 266.664 229.452 266.647C229.452 266.629 229.461 266.544 229.479 266.393C229.514 266.224 229.572 266.14 229.653 266.14Z" fill="black"/>
</g>
<path d="M70.2305 173C70.2305 167.477 74.7076 163 80.2305 163H167.887C173.41 163 177.887 167.477 177.887 173V184.25L186.569 189.5L177.887 194.75V206C177.887 211.523 173.41 216 167.887 216H80.2305C74.7076 216 70.2305 211.523 70.2305 206V173Z" fill="#FFE8E8" fill-opacity="0.8"/>
<path d="M65.2158 216.688C68.0574 211.188 150.062 204.888 154.475 207.688C159.991 211.188 94.1494 239.559 87.28 231.188C73.7406 214.688 164.003 218.188 182.557 228.688" stroke="#F8EF2D" stroke-width="4" stroke-linecap="round"/>
<g opacity="0.5">
<path d="M86.6265 185.693H90.5112V187H85.103V178.545L90.3706 178.557V179.857H86.6265V182.049H90.0073V183.355H86.6265V185.693Z" fill="black"/>
<path d="M91.7419 177.994H93.2654V179.518H91.7419V177.994ZM91.7654 180.613H93.2419V187H91.7654V180.613Z" fill="black"/>
<path d="M100.396 187H98.9258V183.361C98.9258 182.826 98.8066 182.422 98.5683 182.148C98.334 181.875 97.9922 181.738 97.5429 181.738C97.289 181.738 97.0605 181.801 96.8574 181.926C96.6582 182.051 96.4961 182.229 96.3711 182.459C96.25 182.689 96.1797 182.955 96.1601 183.256V187H94.6894V180.613H96.1601V181.545H96.2304C96.3789 181.205 96.6113 180.943 96.9277 180.76C97.2441 180.576 97.6015 180.484 98 180.484C98.7812 180.484 99.375 180.703 99.7812 181.141C100.191 181.578 100.396 182.215 100.396 183.051V187Z" fill="black"/>
<path d="M104.053 187.135C103.561 187.135 103.069 187.057 102.576 186.9C102.088 186.744 101.676 186.535 101.34 186.273L101.844 185.289C102.164 185.492 102.516 185.656 102.899 185.781C103.281 185.902 103.641 185.963 103.977 185.963C104.168 185.963 104.344 185.934 104.504 185.875C104.668 185.812 104.797 185.729 104.891 185.623C104.985 185.518 105.031 185.4 105.031 185.271C105.031 185.119 104.983 184.986 104.885 184.873C104.791 184.76 104.639 184.65 104.428 184.545C104.217 184.436 103.918 184.309 103.531 184.164C103.086 184 102.733 183.832 102.471 183.66C102.213 183.484 102.02 183.277 101.891 183.039C101.766 182.801 101.703 182.506 101.703 182.154C101.703 181.822 101.797 181.531 101.985 181.281C102.176 181.027 102.444 180.832 102.787 180.695C103.131 180.555 103.526 180.484 103.971 180.484C104.389 180.484 104.766 180.533 105.102 180.631C105.438 180.729 105.748 180.877 106.033 181.076V182.137C105.393 181.793 104.764 181.621 104.147 181.621C103.846 181.621 103.608 181.668 103.432 181.762C103.256 181.855 103.168 181.998 103.168 182.189C103.168 182.412 103.266 182.604 103.461 182.764C103.66 182.92 103.992 183.076 104.457 183.232C105.129 183.455 105.635 183.74 105.975 184.088C106.315 184.432 106.485 184.834 106.485 185.295C106.485 185.67 106.387 185.996 106.192 186.273C105.996 186.551 105.715 186.764 105.348 186.912C104.981 187.061 104.549 187.135 104.053 187.135Z" fill="black"/>
<path d="M109.614 181.932V184.762C109.614 185.031 109.637 185.236 109.684 185.377C109.735 185.518 109.815 185.617 109.924 185.676C110.034 185.73 110.19 185.758 110.393 185.758H110.879V187H110.036C108.774 187 108.143 186.316 108.143 184.949V181.932H107.106V180.648H108.143V179.189L109.614 178.686V180.648H110.92V181.932H109.614Z" fill="black"/>
<path d="M114.999 187.135C114.315 187.135 113.729 187.002 113.241 186.736C112.753 186.471 112.38 186.09 112.122 185.594C111.864 185.098 111.733 184.506 111.729 183.818C111.729 183.154 111.848 182.57 112.087 182.066C112.329 181.562 112.671 181.172 113.112 180.895C113.557 180.617 114.071 180.48 114.653 180.484C115.251 180.492 115.77 180.627 116.212 180.889C116.657 181.15 116.997 181.516 117.231 181.984C117.469 182.453 117.589 183 117.589 183.625C117.589 183.836 117.579 184.053 117.559 184.275H113.194C113.202 184.611 113.284 184.898 113.44 185.137C113.596 185.375 113.813 185.557 114.091 185.682C114.372 185.807 114.694 185.869 115.057 185.869C115.382 185.869 115.714 185.828 116.053 185.746C116.393 185.664 116.716 185.543 117.02 185.383L117.266 186.508C116.895 186.734 116.526 186.896 116.159 186.994C115.792 187.088 115.405 187.135 114.999 187.135ZM116.141 183.273C116.141 182.977 116.081 182.715 115.96 182.488C115.842 182.262 115.673 182.086 115.45 181.961C115.231 181.836 114.977 181.773 114.688 181.773C114.395 181.773 114.135 181.838 113.909 181.967C113.682 182.092 113.505 182.268 113.376 182.494C113.251 182.721 113.188 182.98 113.188 183.273H116.141Z" fill="black"/>
<path d="M118.561 177.994H120.085V179.518H118.561V177.994ZM118.585 180.613H120.061V187H118.585V180.613Z" fill="black"/>
<path d="M127.216 187H125.745V183.361C125.745 182.826 125.626 182.422 125.388 182.148C125.153 181.875 124.812 181.738 124.362 181.738C124.109 181.738 123.88 181.801 123.677 181.926C123.478 182.051 123.316 182.229 123.191 182.459C123.07 182.689 122.999 182.955 122.98 183.256V187H121.509V180.613H122.98V181.545H123.05C123.198 181.205 123.431 180.943 123.747 180.76C124.064 180.576 124.421 180.484 124.82 180.484C125.601 180.484 126.195 180.703 126.601 181.141C127.011 181.578 127.216 182.215 127.216 183.051V187Z" fill="black"/>
<path d="M129.841 178.117L129.636 181.357H128.581V178.117H129.841Z" fill="black"/>
<path d="M133.55 187.135C133.058 187.135 132.566 187.057 132.074 186.9C131.586 186.744 131.173 186.535 130.838 186.273L131.341 185.289C131.662 185.492 132.013 185.656 132.396 185.781C132.779 185.902 133.138 185.963 133.474 185.963C133.666 185.963 133.841 185.934 134.002 185.875C134.166 185.812 134.295 185.729 134.388 185.623C134.482 185.518 134.529 185.4 134.529 185.271C134.529 185.119 134.48 184.986 134.382 184.873C134.289 184.76 134.136 184.65 133.925 184.545C133.715 184.436 133.416 184.309 133.029 184.164C132.584 184 132.23 183.832 131.968 183.66C131.711 183.484 131.517 183.277 131.388 183.039C131.263 182.801 131.201 182.506 131.201 182.154C131.201 181.822 131.295 181.531 131.482 181.281C131.673 181.027 131.941 180.832 132.285 180.695C132.629 180.555 133.023 180.484 133.468 180.484C133.886 180.484 134.263 180.533 134.599 180.631C134.935 180.729 135.246 180.877 135.531 181.076V182.137C134.89 181.793 134.261 181.621 133.644 181.621C133.343 181.621 133.105 181.668 132.929 181.762C132.754 181.855 132.666 181.998 132.666 182.189C132.666 182.412 132.763 182.604 132.959 182.764C133.158 182.92 133.49 183.076 133.955 183.232C134.627 183.455 135.132 183.74 135.472 184.088C135.812 184.432 135.982 184.834 135.982 185.295C135.982 185.67 135.884 185.996 135.689 186.273C135.494 186.551 135.213 186.764 134.845 186.912C134.478 187.061 134.047 187.135 133.55 187.135Z" fill="black"/>
<path d="M85.103 192.545H90.4175V193.922H86.6265V196.084H90.0483V197.385H86.6265V201H85.103V192.545Z" fill="black"/>
<path d="M91.4607 191.994H92.9841V193.518H91.4607V191.994ZM91.4841 194.613H92.9607V201H91.4841V194.613Z" fill="black"/>
<path d="M97.332 201.135C96.6484 201.135 96.0625 201.002 95.5742 200.736C95.0859 200.471 94.7129 200.09 94.4551 199.594C94.1972 199.098 94.0664 198.506 94.0625 197.818C94.0625 197.154 94.1816 196.57 94.4199 196.066C94.6621 195.562 95.0039 195.172 95.4453 194.895C95.8906 194.617 96.4043 194.48 96.9863 194.484C97.584 194.492 98.1035 194.627 98.5449 194.889C98.9902 195.15 99.3301 195.516 99.5644 195.984C99.8027 196.453 99.9219 197 99.9219 197.625C99.9219 197.836 99.9121 198.053 99.8926 198.275H95.5273C95.5351 198.611 95.6172 198.898 95.7734 199.137C95.9297 199.375 96.1465 199.557 96.4238 199.682C96.7051 199.807 97.0273 199.869 97.3906 199.869C97.7148 199.869 98.0469 199.828 98.3867 199.746C98.7265 199.664 99.0488 199.543 99.3535 199.383L99.5996 200.508C99.2285 200.734 98.8594 200.896 98.4922 200.994C98.125 201.088 97.7383 201.135 97.332 201.135ZM98.4746 197.273C98.4746 196.977 98.414 196.715 98.2929 196.488C98.1758 196.262 98.0058 196.086 97.7832 195.961C97.5644 195.836 97.3105 195.773 97.0215 195.773C96.7285 195.773 96.4687 195.838 96.2422 195.967C96.0156 196.092 95.8379 196.268 95.709 196.494C95.584 196.721 95.5215 196.98 95.5215 197.273H98.4746Z" fill="black"/>
<path d="M103.309 199.758V201H102.881C102.369 201 101.981 200.941 101.715 200.824C101.449 200.703 101.264 200.498 101.158 200.209C101.053 199.92 101 199.496 101 198.938V192.141H102.471V198.75C102.471 199.051 102.49 199.271 102.53 199.412C102.572 199.549 102.647 199.641 102.752 199.688C102.862 199.734 103.03 199.758 103.256 199.758H103.309Z" fill="black"/>
<path d="M110.293 192.111V201H108.817V200.121H108.758C108.559 200.426 108.297 200.67 107.973 200.854C107.649 201.037 107.258 201.129 106.801 201.129C106.262 201.129 105.78 200.994 105.354 200.725C104.932 200.455 104.6 200.078 104.358 199.594C104.12 199.105 104 198.547 104 197.918C104 197.242 104.122 196.645 104.364 196.125C104.606 195.605 104.942 195.203 105.372 194.918C105.801 194.629 106.288 194.484 106.831 194.484C107.241 194.484 107.614 194.574 107.95 194.754C108.286 194.93 108.557 195.178 108.764 195.498H108.817V192.111H110.293ZM107.094 200.033C107.469 200.033 107.786 199.947 108.043 199.775C108.305 199.6 108.498 199.379 108.623 199.113C108.752 198.844 108.817 198.57 108.817 198.293V197.473C108.817 197.125 108.743 196.814 108.594 196.541C108.45 196.264 108.248 196.047 107.991 195.891C107.737 195.734 107.452 195.656 107.135 195.656C106.838 195.656 106.563 195.752 106.309 195.943C106.055 196.135 105.852 196.402 105.7 196.746C105.551 197.09 105.477 197.48 105.477 197.918C105.477 198.328 105.549 198.693 105.694 199.014C105.842 199.334 106.04 199.584 106.286 199.764C106.536 199.943 106.805 200.033 107.094 200.033Z" fill="black"/>
<path d="M116.511 199.693H120.395V201H114.987V192.545L120.255 192.557V193.857H116.511V196.049H119.892V197.355H116.511V199.693Z" fill="black"/>
<path d="M127.573 194.613V203.133H126.097V200.145H126.027C125.823 200.441 125.56 200.68 125.236 200.859C124.915 201.039 124.53 201.129 124.081 201.129C123.542 201.129 123.06 200.996 122.634 200.73C122.212 200.461 121.88 200.084 121.638 199.6C121.4 199.111 121.28 198.553 121.28 197.924C121.28 197.248 121.402 196.65 121.644 196.131C121.886 195.607 122.222 195.203 122.652 194.918C123.081 194.629 123.568 194.484 124.111 194.484C124.528 194.484 124.905 194.576 125.241 194.76C125.581 194.939 125.855 195.193 126.062 195.521H126.097V194.613H127.573ZM124.374 200.033C124.749 200.033 125.066 199.947 125.323 199.775C125.585 199.6 125.778 199.379 125.903 199.113C126.032 198.844 126.097 198.57 126.097 198.293V197.479C126.097 197.131 126.023 196.818 125.874 196.541C125.73 196.264 125.528 196.047 125.271 195.891C125.017 195.734 124.732 195.656 124.415 195.656C124.118 195.656 123.843 195.752 123.589 195.943C123.335 196.135 123.132 196.404 122.98 196.752C122.831 197.096 122.757 197.486 122.757 197.924C122.757 198.334 122.829 198.699 122.974 199.02C123.122 199.34 123.32 199.59 123.566 199.77C123.816 199.945 124.085 200.033 124.374 200.033Z" fill="black"/>
<path d="M131.898 201.129C131.316 201.129 130.806 201.018 130.369 200.795C129.931 200.572 129.591 200.258 129.349 199.852C129.111 199.441 128.992 198.967 128.992 198.428V194.613H130.468V198.428C130.468 198.74 130.529 199.012 130.65 199.242C130.771 199.473 130.939 199.65 131.154 199.775C131.372 199.896 131.621 199.957 131.898 199.957C132.167 199.957 132.406 199.896 132.613 199.775C132.824 199.65 132.986 199.473 133.099 199.242C133.216 199.012 133.275 198.74 133.275 198.428V194.613H134.751V198.428C134.751 198.967 134.636 199.441 134.406 199.852C134.175 200.258 133.845 200.572 133.415 200.795C132.986 201.018 132.48 201.129 131.898 201.129Z" fill="black"/>
<path d="M141.543 201H140.066V200.051H140.007C139.859 200.371 139.605 200.633 139.246 200.836C138.89 201.039 138.476 201.141 138.004 201.141C137.566 201.141 137.183 201.059 136.855 200.895C136.531 200.727 136.279 200.49 136.099 200.186C135.923 199.881 135.836 199.525 135.836 199.119C135.836 198.756 135.937 198.43 136.14 198.141C136.347 197.848 136.642 197.605 137.025 197.414C137.408 197.223 137.861 197.086 138.384 197.004C138.658 196.965 138.908 196.936 139.134 196.916C139.365 196.893 139.656 196.871 140.007 196.852C139.929 196.441 139.769 196.139 139.527 195.943C139.285 195.748 138.947 195.65 138.513 195.65C138.24 195.65 137.941 195.682 137.617 195.744C137.297 195.807 136.986 195.895 136.685 196.008L136.445 194.906C136.785 194.777 137.152 194.676 137.547 194.602C137.945 194.523 138.291 194.484 138.584 194.484C139.275 194.484 139.838 194.594 140.271 194.812C140.705 195.027 141.023 195.357 141.226 195.803C141.433 196.248 141.539 196.818 141.543 197.514V201ZM138.332 200.045C138.621 200.045 138.884 199.994 139.123 199.893C139.365 199.787 139.566 199.645 139.726 199.465C139.89 199.281 140.004 199.076 140.066 198.85V197.854C139.718 197.865 139.431 197.881 139.205 197.9C138.978 197.92 138.728 197.953 138.455 198C138.099 198.062 137.818 198.188 137.611 198.375C137.408 198.562 137.31 198.811 137.318 199.119C137.318 199.396 137.41 199.621 137.593 199.793C137.781 199.961 138.027 200.045 138.332 200.045Z" fill="black"/>
<path d="M145.029 195.932V198.762C145.029 199.031 145.053 199.236 145.1 199.377C145.15 199.518 145.23 199.617 145.34 199.676C145.449 199.73 145.605 199.758 145.808 199.758H146.295V201H145.451C144.189 201 143.558 200.316 143.558 198.949V195.932H142.521V194.648H143.558V193.189L145.029 192.686V194.648H146.336V195.932H145.029Z" fill="black"/>
<path d="M147.49 191.994H149.014V193.518H147.49V191.994ZM147.514 194.613H148.99V201H147.514V194.613Z" fill="black"/>
<path d="M153.362 201.135C152.733 201.135 152.17 200.994 151.674 200.713C151.178 200.428 150.789 200.031 150.508 199.523C150.231 199.016 150.092 198.441 150.092 197.801C150.092 197.16 150.231 196.588 150.508 196.084C150.789 195.58 151.178 195.188 151.674 194.906C152.17 194.621 152.733 194.479 153.362 194.479C153.991 194.479 154.551 194.621 155.043 194.906C155.539 195.188 155.926 195.58 156.203 196.084C156.481 196.588 156.62 197.16 156.62 197.801C156.62 198.441 156.481 199.016 156.203 199.523C155.926 200.031 155.539 200.428 155.043 200.713C154.551 200.994 153.991 201.135 153.362 201.135ZM153.362 199.846C153.705 199.846 154.012 199.76 154.282 199.588C154.551 199.412 154.762 199.17 154.914 198.861C155.067 198.549 155.143 198.195 155.143 197.801C155.143 197.406 155.067 197.055 154.914 196.746C154.762 196.438 154.551 196.197 154.282 196.025C154.012 195.854 153.705 195.768 153.362 195.768C153.018 195.768 152.709 195.854 152.436 196.025C152.162 196.197 151.95 196.438 151.797 196.746C151.645 197.055 151.569 197.406 151.569 197.801C151.569 198.195 151.645 198.549 151.797 198.861C151.95 199.17 152.162 199.412 152.436 199.588C152.709 199.76 153.018 199.846 153.362 199.846Z" fill="black"/>
<path d="M163.405 201H161.934V197.361C161.934 196.826 161.815 196.422 161.577 196.148C161.342 195.875 161.001 195.738 160.551 195.738C160.297 195.738 160.069 195.801 159.866 195.926C159.667 196.051 159.505 196.229 159.38 196.459C159.258 196.689 159.188 196.955 159.169 197.256V201H157.698V194.613H159.169V195.545H159.239C159.387 195.205 159.62 194.943 159.936 194.76C160.253 194.576 160.61 194.484 161.008 194.484C161.79 194.484 162.383 194.703 162.79 195.141C163.2 195.578 163.405 196.215 163.405 197.051V201Z" fill="black"/>
</g>
<defs>
<clipPath id="clip0_3611_49642">
<rect width="188.548" height="40" fill="white" transform="translate(48.166 243)"/>
</clipPath>
</defs>
</svg>
