<svg width="116" height="32" viewBox="0 0 116 32" fill="none" xmlns="http://www.w3.org/2000/svg">
<path d="M22.3199 10.6915L16.2077 20.2834L22.3583 31.1372H15.498L11.3166 23.9799L6.86029 31.1372H0L6.47028 20.2834L0.159839 10.6915H6.94341L11.3614 17.5301L15.3829 10.6915H22.3263H22.3199Z" fill="currentColor"/>
<path d="M30.3632 10.6907L31.4309 12.6537C32.3772 11.0412 34.2697 9.90039 37.0701 9.90039C40.1454 9.90039 42.3959 11.1177 43.6554 13.3994C44.6784 11.5128 46.8906 9.90039 50.1641 9.90039C57.1842 9.90039 58.0154 15.9551 58.0154 19.3011V31.1364H51.7817V19.3776C51.7817 17.0577 50.4006 15.5663 48.2716 15.5663C46.4558 15.5663 44.9214 17.491 44.9214 19.6962V31.1364H38.6876V19.3776C38.6876 17.0577 37.345 15.5663 35.2926 15.5663C33.4002 15.5663 31.7442 17.491 31.7442 19.6962V31.1364H25.5105V10.6907H30.3632Z" fill="currentColor"/>
<path d="M64.3638 0.429916C66.4929 0.429916 68.2703 2.23995 68.2703 4.36227C68.2703 6.4846 66.4929 8.29463 64.3638 8.29463C62.2348 8.29463 60.3806 6.52284 60.3806 4.36227C60.3806 2.20171 62.1581 0.429916 64.3638 0.429916ZM67.4391 10.691V31.1367H61.2054V10.691H67.4391Z" fill="currentColor"/>
<path d="M75.8788 10.6907L76.9466 12.6537C77.8928 11.0412 79.7853 9.90039 82.5857 9.90039C87.6366 9.90039 90.437 13.1635 90.437 19.1035V31.1364H84.2032V19.3776C84.2032 16.9366 82.9821 15.5663 80.8083 15.5663C78.9158 15.5663 77.2598 17.491 77.2598 19.6962V31.1364H71.0261V10.6907H75.8788Z" fill="currentColor"/>
<path d="M92.8025 20.7542C92.8025 14.7378 97.4954 9.90038 103.333 9.90038C105.583 9.90038 107.674 10.6461 109.407 11.908V2.51367L115.64 4.636V31.1364H110.947L109.841 29.2116C108.064 30.703 105.781 31.5698 103.333 31.5698C97.4954 31.5698 92.8025 26.7324 92.8025 20.7606V20.7542ZM104.279 25.9421C107.239 25.9421 109.605 23.6222 109.605 20.6331C109.605 17.644 107.239 15.3623 104.279 15.3623C101.319 15.3623 98.9915 17.7205 98.9915 20.6331C98.9915 23.5457 101.319 25.9421 104.279 25.9421Z" fill="currentColor"/>
</svg>