<svg width="16" height="16" viewBox="0 0 16 16" fill="none" xmlns="http://www.w3.org/2000/svg">
<path d="M8.92251 11.5829L8.96671 11.5714C9.48642 11.4321 9.94915 11.1903 10.3403 10.8741L9.51694 10.2403C9.35597 10.1164 9.40489 9.862 9.60032 9.80664L12.609 8.95433C12.7673 8.90948 12.9244 9.02895 12.9235 9.19348L12.9062 12.3482C12.9051 12.5527 12.6703 12.6674 12.5083 12.5427L11.6259 11.8635C11.0074 12.445 10.2402 12.8864 9.36285 13.1215L9.32161 13.1324C6.6048 13.8276 3.82825 12.2912 2.9645 9.65305C2.92191 9.29364 3.12888 8.93875 3.48349 8.80856C3.89825 8.65629 4.35792 8.86908 4.51019 9.28384C5.15898 11.051 7.06099 12.0675 8.92251 11.5829Z" fill="#000000" />
<path d="M7.07769 4.4166C8.93921 3.93204 10.8412 4.94852 11.49 6.71571C11.6423 7.13047 12.1019 7.34326 12.5167 7.19099C12.8713 7.0608 13.0783 6.70591 13.0357 6.3465C12.1719 3.70836 9.39537 2.17194 6.67855 2.86718L6.63734 2.87805C5.77609 3.10882 5.02102 3.53839 4.40858 4.10409L3.58191 3.46781C3.41994 3.34314 3.18527 3.45785 3.18415 3.66224L3.16686 6.81581C3.16596 6.98028 3.32302 7.0997 3.48127 7.05487L6.48879 6.20288C6.68416 6.14753 6.73306 5.89323 6.57215 5.76938L5.69705 5.09582C6.08026 4.79408 6.53015 4.56303 7.03348 4.42817L7.07769 4.4166Z" fill="#000000" />
</svg>
