<svg xmlns="http://www.w3.org/2000/svg" viewBox="0 0 24 24" width="24" height="24"><g class="uk-icon-alternate-dark" version="1.1"><g stroke="none" stroke-width="1" fill="none" fill-rule="evenodd"><path d="M0 0h24v24H0z"/><path d="M11.652 7C12.418 4.466 10.5 3 7.6 2.6H11c3.086 0 3.416 3.23 2.83 5.4-.585 2.17 2.17 3.8 3.174 4-1.004.2-3.759 1.83-3.174 4s.256 5.4-2.83 5.4H7.6c2.9-.4 4.804-1.896 4.052-4.4-.752-2.504.842-4.503 1.848-5-1.006-.503-2.615-2.466-1.848-5Z" fill="#EEE" fill-rule="nonzero"/><path d="M4 7h5v2H4V7Zm0 4h5v2H4v-2Zm0 4h5v2H4v-2Zm13-4h5v2h-5v-2Z" fill="#EEE" fill-rule="nonzero" opacity=".25"/></g></g><g class="uk-icon-alternate-default" version="1.1"><g stroke="none" stroke-width="1" fill="none" fill-rule="evenodd"><path d="M0 0h24v24H0z"/><path d="M11.652 7C12.418 4.466 10.5 3 7.6 2.6H11c3.086 0 3.416 3.23 2.83 5.4-.585 2.17 2.17 3.8 3.174 4-1.004.2-3.759 1.83-3.174 4s.256 5.4-2.83 5.4H7.6c2.9-.4 4.804-1.896 4.052-4.4-.752-2.504.842-4.503 1.848-5-1.006-.503-2.615-2.466-1.848-5Z" fill="#343638" fill-rule="nonzero"/><path d="M4 7h5v2H4V7Zm0 4h5v2H4v-2Zm0 4h5v2H4v-2Zm13-4h5v2h-5v-2Z" fill="#363A40" fill-rule="nonzero" opacity=".2"/></g></g></svg>