<?xml version="1.0" encoding="UTF-8"?>
<svg width="24px" height="24px" viewBox="0 0 24 24" version="1.1" xmlns="http://www.w3.org/2000/svg" xmlns:xlink="http://www.w3.org/1999/xlink">
    <!-- Generator: Sketch 56 (81588) - https://sketch.com -->
    <title>symbol_divide@16</title>
    <desc>Created with Sketch.</desc>
    <defs>
        <polygon id="path-1" points="0 0 24 0 24 23.9996 0 23.9996"></polygon>
        <polygon id="path-3" points="0 24 24 24 24 0 0 0"></polygon>
    </defs>
    <g id="symbol_divide" stroke="none" stroke-width="1" fill="none" fill-rule="evenodd">
        <g id="Group-10">
            <g id="Group-3">
                <mask id="mask-2" fill="white">
                    <use xlink:href="#path-1"></use>
                </mask>
                <g id="Clip-2"></g>
                <path d="M24,11.9996 C24,18.6276 18.627,23.9996 12,23.9996 C5.373,23.9996 0,18.6276 0,11.9996 C0,5.3726 5.373,-0.0004 12,-0.0004 C18.627,-0.0004 24,5.3726 24,11.9996" id="Fill-1" fill="#9D9DA0" mask="url(#mask-2)"></path>
            </g>
            <path d="M11.9653,7.6861 L11.9653,7.6861 C11.1173,7.6861 10.4293,6.9991 10.4293,6.1511 C10.4293,5.3031 11.1173,4.6161 11.9653,4.6161 C12.8133,4.6161 13.5003,5.3031 13.5003,6.1511 C13.5003,6.9991 12.8133,7.6861 11.9653,7.6861" id="Fill-4" fill="#FFFFFF"></path>
            <path d="M11.9653,19.3844 L11.9653,19.3844 C11.1173,19.3844 10.4293,18.6974 10.4293,17.8494 C10.4293,17.0014 11.1173,16.3144 11.9653,16.3144 C12.8133,16.3144 13.5003,17.0014 13.5003,17.8494 C13.5003,18.6974 12.8133,19.3844 11.9653,19.3844" id="Fill-6" fill="#FFFFFF"></path>
            <mask id="mask-4" fill="white">
                <use xlink:href="#path-3"></use>
            </mask>
            <g id="Clip-9"></g>
            <polygon id="Fill-8" fill="#FFFFFF" mask="url(#mask-4)" points="4.883 13.25 19.118 13.25 19.118 10.75 4.883 10.75"></polygon>
        </g>
    </g>
</svg>