<svg width="20" height="20" viewBox="0 0 20 20" fill="none" xmlns="http://www.w3.org/2000/svg">
<path fill-rule="evenodd" clip-rule="evenodd" d="M7.27364 7.64333C6.61102 9.37792 6.25288 11.7951 6.22819 14.1407C6.22237 14.693 5.76997 15.136 5.21771 15.1302C4.66546 15.1243 4.22248 14.6719 4.2283 14.1197C4.25451 11.6301 4.63037 8.95826 5.40532 6.92962C5.79104 5.91991 6.30512 4.99057 6.99342 4.33558C7.71117 3.65255 8.64013 3.25647 9.72272 3.43338C10.4133 3.54623 11.0068 3.83754 11.429 4.34646C11.8402 4.84208 12.0006 5.43801 12.0425 5.99921C12.1231 7.0763 11.7857 8.35192 11.4424 9.46881C11.3181 9.87319 11.1919 10.2604 11.0711 10.6313C10.8313 11.3676 10.6125 12.0392 10.4712 12.6514C10.4538 12.7267 10.4383 12.7984 10.4246 12.8668C10.5391 12.5965 10.6609 12.2772 10.7954 11.9127C10.8199 11.8463 10.8448 11.7785 10.8701 11.7096C11.122 11.0236 11.4133 10.2306 11.7608 9.59985C11.9542 9.24868 12.1988 8.88285 12.5161 8.5955C12.8453 8.29732 13.2935 8.05 13.8516 8.04904C14.3074 8.04825 14.7954 8.18145 15.1596 8.57625C15.5015 8.94677 15.596 9.40121 15.6152 9.74751C15.652 10.4089 15.4356 11.1895 15.246 11.8051C15.1665 12.0633 15.0885 12.302 15.0156 12.5253C14.9348 12.7725 14.8602 13.0009 14.7964 13.2163C15.0203 12.9796 15.1994 12.7214 15.3367 12.5234C15.3792 12.4623 15.4176 12.4068 15.4522 12.3596C15.7781 11.9137 16.4037 11.8165 16.8496 12.1424C17.2955 12.4684 17.3927 13.094 17.0668 13.5399C17.0597 13.5495 17.0469 13.5683 17.0288 13.595C16.8997 13.7848 16.5018 14.3702 16.0203 14.8181C15.7415 15.0774 15.3538 15.3724 14.8784 15.515C14.3534 15.6724 13.7558 15.6294 13.2105 15.2483C12.7013 14.8925 12.6303 14.3321 12.6252 14.0412C12.6195 13.7198 12.6855 13.3818 12.7572 13.0921C12.8523 12.7078 13.0047 12.2395 13.1471 11.8022C13.2142 11.596 13.2791 11.3966 13.3346 11.2163C13.4122 10.9645 13.4742 10.7428 13.5202 10.551C13.5177 10.5556 13.5151 10.5602 13.5125 10.5649C13.2427 11.0547 13.0041 11.7026 12.7366 12.429C12.7152 12.4872 12.6935 12.546 12.6717 12.6051C12.4042 13.3301 12.0814 14.195 11.6632 14.7816C11.4518 15.0781 11.1248 15.4381 10.641 15.6013C10.0906 15.7869 9.55998 15.6488 9.13173 15.3623L9.08803 15.3331L9.04763 15.2994C8.53006 14.8682 8.37437 14.2622 8.3456 13.7606C8.31687 13.2596 8.40362 12.7163 8.52241 12.2017C8.68359 11.5033 8.94943 10.686 9.20532 9.89929C9.31909 9.54948 9.4309 9.20572 9.53067 8.88117C9.88259 7.73631 10.0968 6.80031 10.0481 6.14834C10.0254 5.84502 9.95086 5.69706 9.88983 5.6235C9.83983 5.56324 9.72373 5.46007 9.40017 5.4072C9.05016 5.35 8.72754 5.44621 8.37215 5.7844C7.98731 6.15062 7.60672 6.77143 7.27364 7.64333ZM13.9093 10.0388C13.9093 10.0389 13.9086 10.0393 13.9072 10.0399C13.9086 10.0391 13.9093 10.0388 13.9093 10.0388ZM13.6131 9.8092C13.6122 9.80624 13.6119 9.80462 13.612 9.80455C13.612 9.80448 13.6125 9.80596 13.6131 9.8092ZM14.625 14.0116C14.6258 14.0183 14.6259 14.022 14.6258 14.0222C14.6256 14.0224 14.6252 14.019 14.625 14.0116ZM10.3677 13.8074C10.3696 13.8107 10.3704 13.8127 10.3703 13.8128C10.3702 13.8129 10.3693 13.8113 10.3677 13.8074Z" fill="black" fill-opacity="0.3"/>
</svg>
