<svg width="112" height="84" viewBox="0 0 112 84" fill="none" xmlns="http://www.w3.org/2000/svg">
<rect width="112" height="84" fill="#EDF4E5"/>
<path d="M88.5151 8.58336C87.2831 7.57536 85.7385 10.66 85.1201 12.3284C85.2018 12.5617 85.5261 13.0283 86.1701 13.0283C86.9751 13.0283 87.4301 10.1233 87.8151 10.6133C88.2001 11.1033 87.3601 13.2733 88.7601 13.7633C90.1601 14.2533 90.5101 12.7133 91.4201 11.8383C92.3301 10.9633 91.9101 10.2983 92.8901 10.6133C93.8701 10.9283 92.8901 13.6583 95.3751 13.7633C97.8601 13.8683 97.6501 11.8383 98.0001 11.4883C98.3501 11.1383 98.0701 9.10832 98.8401 11.8383C99.6101 14.5683 101.465 13.5183 104.055 13.0283C106.645 12.5383 104.86 11.5583 104.055 11.1733C103.25 10.7883 101.85 12.3284 100.8 12.3284C99.7501 12.3284 102.06 9.73832 98.8401 8.58336C95.6201 7.4284 98.7701 12.3284 95.3751 12.3284C91.9801 12.3284 96.4251 10.2983 93.5551 8.58336C90.6851 6.86842 91.2101 12.3284 89.1101 12.3284C87.0101 12.3284 90.0551 9.84336 88.5151 8.58336Z" fill="#2F4DB5"/>
<path d="M8.86276 71.6983C7.5247 70.1283 8.25444 70.3267 8.94685 69.9835C11.5288 72.3856 11.8712 72.9454 13.5171 74.3171C14.8808 75.4536 13.1779 75.7486 12.5172 75.4695C11.8566 74.8666 10.2008 73.2683 8.86276 71.6983Z" fill="#2F4DB5"/>
<path d="M9.60415 75.0081C7.97317 76.2711 8.20554 75.5514 7.89517 74.8437C10.4156 72.3772 10.9909 72.0613 12.4382 70.4815C13.6374 69.1726 13.8522 70.8874 13.5424 71.5344C12.9092 72.166 11.2351 73.745 9.60415 75.0081Z" fill="#2F4DB5"/>
<path d="M8.70907 73.5094C6.65675 73.3014 7.32092 72.9398 7.58345 72.213C11.1096 72.1612 11.7442 72.3285 13.8816 72.1803C15.6525 72.0575 14.627 73.4486 13.9568 73.7042C13.0627 73.7259 10.7614 73.7173 8.70907 73.5094Z" fill="#2F4DB5"/>
<path d="M12.0011 74.8223C12.0268 76.885 11.5924 76.266 10.8405 76.0875C10.3899 72.5898 10.4843 71.9404 10.095 69.8335C9.77255 68.0878 11.2708 68.9493 11.6006 69.5863C11.7234 70.4722 11.9754 72.7596 12.0011 74.8223Z" fill="#2F4DB5"/>
<path fill-rule="evenodd" clip-rule="evenodd" d="M4.46809 3.61009C4.44536 3.79097 4.42148 4.01178 4.3973 4.2755C4.33508 4.95427 4.27616 5.84832 4.22067 6.93127C4.10974 9.09581 4.01384 11.9873 3.93104 15.364C3.76549 22.1158 3.65286 30.7855 3.5763 39.412C3.42317 56.664 3.41439 73.7287 3.41439 74.9002C3.41439 75.7859 3.33148 76.6749 3.25955 77.4462C3.23287 77.7323 3.20771 78.0022 3.18884 78.2496C3.15243 78.7272 3.13789 79.1247 3.16125 79.4522C3.17091 79.5876 3.18641 79.6998 3.20552 79.7926C3.35349 79.8113 3.54478 79.8308 3.78168 79.8508C4.46937 79.9086 5.47344 79.9642 6.7572 80.0169C9.32119 80.122 12.9612 80.2138 17.329 80.2903C26.0627 80.4433 37.6856 80.5352 49.3838 80.5527C61.0821 80.5702 72.851 80.5133 81.877 80.369C86.3909 80.2969 90.2134 80.2029 92.9962 80.0858C94.3888 80.0272 95.5126 79.9631 96.3294 79.8939C96.7386 79.8592 97.0605 79.824 97.296 79.7892C97.4728 79.763 97.5625 79.7421 97.5951 79.7344C97.6124 79.7304 97.6136 79.7301 97.6032 79.7348C98.5124 79.3235 99.7543 79.2162 100.976 79.2057C102.071 79.1964 103.266 79.2669 104.376 79.3325C104.533 79.3417 104.688 79.3509 104.84 79.3597C106.108 79.4328 107.197 79.4804 107.965 79.4035C108.276 79.3724 108.474 79.3257 108.59 79.2832C108.59 78.7943 108.593 77.4603 108.597 75.4807C108.611 69.0546 108.639 55.8255 108.655 42.6191C108.666 33.6612 108.672 24.7126 108.663 17.901C108.659 14.495 108.652 11.6244 108.64 9.55438C108.634 8.51912 108.627 7.68582 108.618 7.08656C108.614 6.78666 108.61 6.54774 108.605 6.37244C108.603 6.28464 108.601 6.21529 108.598 6.1635C108.596 6.11636 108.595 6.09473 108.594 6.08986C108.594 6.08879 108.594 6.0894 108.594 6.08986C108.538 5.5594 108.608 5.0564 108.67 4.66024C108.68 4.59837 108.69 4.53974 108.699 4.48398C108.753 4.14574 108.791 3.91262 108.787 3.69735C108.783 3.4893 108.738 3.38838 108.662 3.30354C108.564 3.19412 108.323 3.01717 107.736 2.85483C107.743 2.85693 107.742 2.85674 107.728 2.85489C107.703 2.85144 107.634 2.84217 107.501 2.83139C107.325 2.81702 107.083 2.80325 106.775 2.79041C106.162 2.76479 105.312 2.74397 104.247 2.72774C102.118 2.6953 99.1518 2.68151 95.5411 2.68304C88.3209 2.6861 78.5389 2.75039 67.7635 2.84838C46.505 3.04171 21.3879 3.36617 4.46809 3.61009ZM107.638 1.15692C107.819 1.17169 108.028 1.19271 108.183 1.23551C108.926 1.44067 109.512 1.73622 109.911 2.18022C110.333 2.64882 110.457 3.18227 110.466 3.66546C110.473 4.04564 110.407 4.45015 110.354 4.77482C110.345 4.82631 110.337 4.8758 110.33 4.92286C110.269 5.30763 110.234 5.61924 110.265 5.91128C110.281 6.06347 110.29 6.48572 110.298 7.06334C110.307 7.66938 110.314 8.50797 110.32 9.54468C110.332 11.6186 110.339 14.4923 110.343 17.899C110.352 24.7127 110.346 33.6629 110.335 42.6212C110.319 55.8338 110.291 69.0617 110.277 75.4848C110.272 77.7728 110.269 79.1974 110.269 79.4502C110.269 80.0893 109.877 80.5098 109.449 80.736C109.064 80.9399 108.587 81.0296 108.133 81.0751C107.208 81.1677 105.978 81.1081 104.744 81.0369C104.588 81.0279 104.431 81.0187 104.274 81.0094C103.157 80.9436 102.024 80.8768 100.991 80.8857C99.7845 80.896 98.8564 81.0118 98.2956 81.2655C98.0819 81.3622 97.791 81.4143 97.5417 81.4511C97.2571 81.4932 96.8963 81.5318 96.4713 81.5679C95.6194 81.6401 94.4681 81.7054 93.0669 81.7643C90.2622 81.8824 86.4227 81.9766 81.9038 82.0488C72.8644 82.1933 61.0849 82.2502 49.3813 82.2327C37.6775 82.2151 26.0451 82.1233 17.2996 81.97C12.9278 81.8934 9.27225 81.8014 6.68837 81.6955C5.39819 81.6426 4.36526 81.5858 3.64083 81.5248C3.28142 81.4946 2.98056 81.4619 2.75644 81.4253C2.64766 81.4075 2.53105 81.3847 2.42597 81.3531C2.37499 81.3377 2.29945 81.3122 2.21951 81.271C2.16806 81.2444 1.97311 81.1429 1.84358 80.9143C1.60711 80.497 1.51753 80.0207 1.48551 79.5717C1.45309 79.1172 1.47573 78.62 1.5137 78.1219C1.53667 77.8207 1.56493 77.5179 1.59347 77.2121C1.66311 76.466 1.73439 75.7023 1.73439 74.9002C1.73439 73.7267 1.74318 56.6564 1.89636 39.3971C1.97295 30.768 2.08567 22.088 2.25155 15.3228C2.33447 11.941 2.4308 9.03209 2.54287 6.84528C2.59887 5.75256 2.65914 4.83318 2.72432 4.12213C2.78678 3.44075 2.85957 2.87337 2.95994 2.5388L3.13683 1.94917L3.75236 1.94026C20.6757 1.69524 46.1941 1.36447 67.7483 1.16845C78.525 1.07045 88.3128 1.00611 95.5404 1.00304C99.1536 1.00151 102.131 1.01529 104.272 1.04793C105.343 1.06424 106.21 1.08533 106.846 1.11187C107.163 1.12511 107.429 1.13998 107.638 1.15692Z" fill="#2F4DB5"/>
<path d="M19.1111 36.6208C19.1156 36.434 19.1681 36.2608 19.2683 36.1013C19.3686 35.9418 19.4985 35.8165 19.658 35.7253C19.822 35.6342 19.9998 35.5886 20.1912 35.5886C20.3962 35.5886 20.5831 35.641 20.7517 35.7458C20.9203 35.8507 21.0502 35.9919 21.1414 36.1697C21.2371 36.3429 21.2804 36.5274 21.2712 36.7234C21.2667 36.81 21.2644 36.949 21.2644 37.1404C21.2644 37.9379 21.3305 38.9291 21.4626 40.114C21.5994 41.2989 21.7817 42.7231 22.0095 44.3865L22.03 44.5505C22.0346 44.5824 22.0369 44.6303 22.0369 44.6941C22.0369 44.8901 21.989 45.0723 21.8933 45.241C21.7976 45.405 21.6654 45.5372 21.4968 45.6375C21.3328 45.7377 21.1505 45.7878 20.95 45.7878C20.6765 45.7878 20.4373 45.6967 20.2322 45.5144C20.0271 45.3367 19.9063 45.1134 19.8699 44.8445L19.8083 44.4412C19.5805 42.7641 19.405 41.3627 19.282 40.2371C19.1589 39.1069 19.0974 38.0974 19.0974 37.2087C19.0974 36.9444 19.102 36.7485 19.1111 36.6208ZM21.4421 42.1375C21.2826 42.1375 21.13 42.0964 20.9841 42.0144C20.8429 41.9324 20.7289 41.8207 20.6423 41.6794C20.5603 41.5382 20.5193 41.3832 20.5193 41.2146C20.5193 40.9776 20.599 40.7725 20.7585 40.5994C20.9181 40.4216 21.114 40.3214 21.3464 40.2986C22.0893 40.2211 22.6817 40.1186 23.1238 39.991C23.5658 39.8588 23.8894 39.6879 24.0945 39.4783C24.3041 39.2686 24.4089 38.9975 24.4089 38.6648C24.4089 38.5782 24.4021 38.4916 24.3884 38.405C24.2654 37.4845 23.2468 37.0242 21.3328 37.0242C21.032 37.0242 20.7107 37.0356 20.3689 37.0583C20.2003 37.0675 20.0408 37.0333 19.8904 36.9558C19.74 36.8783 19.6192 36.769 19.5281 36.6277C19.4369 36.4819 19.3914 36.3201 19.3914 36.1423C19.3914 35.8917 19.4757 35.6775 19.6443 35.4998C19.8175 35.322 20.0248 35.2286 20.2664 35.2195C20.5261 35.2058 20.8041 35.199 21.1003 35.199C22.4949 35.199 23.7139 35.4109 24.7576 35.8347C25.8057 36.2585 26.4073 37.0333 26.5623 38.1589C26.5805 38.3093 26.5896 38.4711 26.5896 38.6443C26.5896 40.5629 24.9102 41.725 21.5515 42.1306L21.4421 42.1375Z" fill="#2F4DB5"/>
<path d="M30.0144 36.7917C30.019 36.8236 30.0212 36.8669 30.0212 36.9216C30.0212 37.0994 29.9757 37.268 29.8845 37.4275C29.7979 37.5824 29.6772 37.7078 29.5222 37.8035C29.3673 37.8946 29.1941 37.9402 29.0027 37.9402C28.752 37.9402 28.531 37.8604 28.3396 37.7009C28.1482 37.5369 28.0343 37.3318 27.9978 37.0857C27.9659 36.8669 27.95 36.6482 27.95 36.4294C27.95 36.2472 27.9955 36.0785 28.0867 35.9236C28.1778 35.7686 28.3009 35.6456 28.4558 35.5544C28.6153 35.4633 28.7862 35.4177 28.9685 35.4177C29.1599 35.4177 29.3331 35.4656 29.488 35.5613C29.6475 35.657 29.7706 35.7846 29.8572 35.9441C29.9483 36.099 29.9939 36.2677 29.9939 36.45C29.9939 36.5593 30.0007 36.6733 30.0144 36.7917ZM30.3972 44.407C30.4109 44.4662 30.4177 44.5277 30.4177 44.5916C30.4177 44.7784 30.3722 44.9516 30.281 45.1111C30.1899 45.266 30.0645 45.3891 29.905 45.4802C29.7501 45.5714 29.5815 45.6169 29.3992 45.6169C29.1531 45.6169 28.9343 45.5372 28.7429 45.3777C28.5561 45.2182 28.4399 45.0199 28.3943 44.783C28.2804 44.1905 28.1938 43.6277 28.1345 43.0945C28.0753 42.5613 28.0457 42.0167 28.0457 41.4607C28.0457 40.9503 28.0707 40.4535 28.1208 39.9705C28.1436 39.7107 28.253 39.4919 28.449 39.3142C28.6449 39.1365 28.8751 39.0476 29.1394 39.0476C29.3399 39.0476 29.5199 39.1 29.6794 39.2048C29.8435 39.3097 29.9666 39.4486 30.0486 39.6218C30.1352 39.795 30.1716 39.9773 30.158 40.1687C30.1124 40.6062 30.0896 41.0391 30.0896 41.4675C30.0896 41.9506 30.1147 42.4246 30.1648 42.8894C30.2195 43.3497 30.297 43.8555 30.3972 44.407Z" fill="#2F4DB5"/>
<path d="M36.3513 43.99C36.5792 43.9945 36.7729 44.0811 36.9324 44.2498C37.0919 44.4138 37.1716 44.6098 37.1716 44.8376C37.1716 45.0017 37.1306 45.1498 37.0486 45.282C36.9666 45.4141 36.8572 45.5144 36.7205 45.5828C36.5837 45.6557 36.4379 45.6899 36.283 45.6853C35.85 45.6671 35.4421 45.601 35.0593 45.4871C34.6765 45.3731 34.3643 45.2068 34.1228 44.988C33.781 44.6781 33.5304 44.3318 33.3708 43.949C33.2159 43.5616 33.1179 43.1446 33.0769 42.698C33.0359 42.2468 33.0108 41.5929 33.0017 40.7361C33.0017 40.613 32.9994 40.4581 32.9949 40.2712C32.9949 40.0798 32.9903 39.8542 32.9812 39.5945C32.9721 39.2208 32.9675 38.9542 32.9675 38.7947C32.9675 38.2159 32.9903 37.6986 33.0359 37.2429C33.0815 36.7872 33.1567 36.3406 33.2615 35.9031C33.3116 35.6798 33.4278 35.4952 33.6101 35.3494C33.797 35.199 34.0089 35.1238 34.2458 35.1238C34.4281 35.1238 34.5968 35.1694 34.7517 35.2605C34.9112 35.3516 35.0365 35.4747 35.1277 35.6296C35.2188 35.7846 35.2644 35.9532 35.2644 36.1355C35.2644 36.2175 35.2553 36.2927 35.2371 36.3611C35.1596 36.7074 35.1026 37.072 35.0662 37.4548C35.0343 37.8331 35.0183 38.2706 35.0183 38.7673C35.0183 38.9177 35.0229 39.1798 35.032 39.5535C35.0457 40.0593 35.0525 40.5151 35.0525 40.9207C35.0616 41.5678 35.073 42.0509 35.0867 42.3699C35.1049 42.6889 35.1436 42.9646 35.2029 43.197C35.2621 43.4249 35.3578 43.5981 35.49 43.7166C35.686 43.8943 35.9731 43.9854 36.3513 43.99ZM36.1257 38.9792C36.1895 38.9701 36.2374 38.9656 36.2693 38.9656C36.4242 38.9656 36.5678 39.0043 36.6999 39.0818C36.8321 39.1593 36.9369 39.2641 37.0144 39.3962C37.0919 39.5284 37.1306 39.672 37.1306 39.8269C37.1306 40.0411 37.06 40.2279 36.9187 40.3875C36.782 40.547 36.6111 40.6427 36.406 40.6746C35.5037 40.8204 34.5808 40.8933 33.6374 40.8933C33.1316 40.8933 32.6417 40.8774 32.1677 40.8455C31.9399 40.8363 31.7485 40.7498 31.5935 40.5857C31.4386 40.4171 31.3611 40.2188 31.3611 39.991C31.3611 39.8269 31.4021 39.6788 31.4841 39.5466C31.5707 39.4145 31.6824 39.3119 31.8191 39.239C31.9604 39.1661 32.1085 39.1342 32.2634 39.1433C32.7647 39.1707 33.2273 39.1843 33.6511 39.1843C34.4988 39.1843 35.3236 39.116 36.1257 38.9792Z" fill="#2F4DB5"/>
<path d="M42.8386 43.5046C42.9799 43.4135 43.1394 43.3679 43.3171 43.3679C43.4766 43.3679 43.6248 43.4089 43.7615 43.491C43.9027 43.5684 44.0121 43.6778 44.0896 43.8191C44.1716 43.9558 44.2126 44.1039 44.2126 44.2634C44.2126 44.4366 44.1671 44.5938 44.0759 44.7351C43.9893 44.8764 43.8731 44.9835 43.7273 45.0564C43.3855 45.2341 43.0437 45.3686 42.7019 45.4597C42.3601 45.5554 42.0343 45.6033 41.7244 45.6033C41.0727 45.6033 40.4779 45.4529 39.9402 45.1521C39.407 44.8513 38.9832 44.4594 38.6687 43.9763C38.3588 43.4887 38.1947 42.9828 38.1765 42.4587C38.1583 41.9666 38.2449 41.5063 38.4363 41.0779C38.6277 40.6449 38.8897 40.2735 39.2224 39.9636C39.5596 39.6492 39.9265 39.4122 40.323 39.2527C40.7651 39.075 41.2527 38.9861 41.7859 38.9861C42.1277 38.9861 42.4968 39.0203 42.8933 39.0886C43.0984 39.1251 43.2693 39.2231 43.406 39.3826C43.5427 39.5421 43.6111 39.7266 43.6111 39.9363C43.6111 40.0912 43.5723 40.2348 43.4949 40.3669C43.4174 40.4991 43.3126 40.6039 43.1804 40.6814C43.0483 40.7589 42.9047 40.7976 42.7498 40.7976C42.7133 40.7976 42.6632 40.793 42.5994 40.7839C42.2758 40.7247 42.0183 40.6951 41.8269 40.6951C41.6036 40.6951 41.3826 40.7315 41.1638 40.8044C40.8904 40.8956 40.6602 41.0779 40.4734 41.3513C40.2911 41.6202 40.2091 41.9666 40.2273 42.3904C40.2455 42.8507 40.3845 43.2175 40.6443 43.491C40.9086 43.7598 41.2686 43.8943 41.7244 43.8943C42.0525 43.8943 42.4239 43.7644 42.8386 43.5046Z" fill="#2F4DB5"/>
<path d="M47.8972 44.5027C47.9063 44.5756 47.9109 44.628 47.9109 44.6599C47.9109 44.8422 47.8653 45.0131 47.7742 45.1726C47.683 45.3276 47.5577 45.4506 47.3982 45.5417C47.2432 45.6329 47.0746 45.6785 46.8923 45.6785C46.6417 45.6785 46.4207 45.5964 46.2292 45.4324C46.0378 45.2729 45.9239 45.0701 45.8874 44.824C45.769 44.0811 45.6915 43.2358 45.655 42.2878C45.6186 41.3399 45.6003 40.2074 45.6003 38.8904V37.4822C45.6003 36.8852 45.5981 36.4477 45.5935 36.1697C45.5935 36.0694 45.5844 35.9578 45.5662 35.8347C45.5525 35.7117 45.5343 35.5886 45.5115 35.4656C45.5024 35.3927 45.4978 35.3334 45.4978 35.2878C45.4978 35.1056 45.5434 34.9369 45.6345 34.782C45.7257 34.6225 45.8487 34.4972 46.0037 34.406C46.1632 34.3103 46.3363 34.2625 46.5232 34.2625C46.7693 34.2625 46.988 34.3445 47.1794 34.5085C47.3708 34.6681 47.4871 34.8686 47.5281 35.1101C47.601 35.5066 47.6397 35.8552 47.6443 36.156C47.6488 36.516 47.6511 37.0834 47.6511 37.8582V38.8015C47.6511 40.1231 47.6648 41.2374 47.6921 42.1443C47.724 43.0512 47.7924 43.8373 47.8972 44.5027ZM52.8123 44.6394C52.8123 44.8217 52.7667 44.9926 52.6755 45.1521C52.5889 45.307 52.4682 45.4301 52.3132 45.5212C52.1583 45.6169 51.9851 45.6648 51.7937 45.6648C51.5339 45.6648 51.3061 45.5782 51.1101 45.405C50.9187 45.2319 50.807 45.0154 50.7751 44.7556L50.6863 43.9421C50.6407 43.5183 50.602 43.1765 50.5701 42.9167C50.5382 42.657 50.4994 42.42 50.4539 42.2058C50.3536 41.7182 50.2283 41.3536 50.0779 41.1121C49.932 40.8705 49.7179 40.7498 49.4353 40.7498C49.1208 40.7498 48.8748 40.825 48.697 40.9753C48.5193 41.1212 48.3643 41.4766 48.2322 42.0417C48.1046 42.6069 48.0089 43.4932 47.9451 44.7009C47.9359 44.8787 47.8835 45.0427 47.7878 45.1931C47.6967 45.3389 47.5736 45.4529 47.4187 45.5349C47.2683 45.6215 47.1042 45.6648 46.9265 45.6648C46.7305 45.6648 46.5505 45.6147 46.3865 45.5144C46.227 45.4141 46.1039 45.2797 46.0173 45.1111C45.9307 44.9425 45.8943 44.7625 45.908 44.571C46.0264 43.0033 46.2703 41.8139 46.6394 41.0027C47.0085 40.1915 47.4233 39.6628 47.8835 39.4167C48.3484 39.1661 48.8656 39.0408 49.4353 39.0408C50.0186 39.0408 50.5199 39.1729 50.9392 39.4373C51.3585 39.697 51.6912 40.0388 51.9373 40.4626C52.1833 40.8865 52.3588 41.3536 52.4636 41.864C52.5183 42.1283 52.5639 42.4063 52.6003 42.698C52.6368 42.9851 52.6824 43.3793 52.7371 43.8806L52.8123 44.53V44.6394Z" fill="#2F4DB5"/>
<path d="M64.5017 39.8953C64.5701 40.032 64.6042 40.1801 64.6042 40.3396C64.6042 40.531 64.5564 40.7087 64.4607 40.8728C64.365 41.0369 64.2351 41.1667 64.071 41.2625C63.907 41.3582 63.7292 41.406 63.5378 41.406C63.3282 41.406 63.1345 41.349 62.9568 41.2351C62.7836 41.1212 62.6537 40.9731 62.5671 40.7908C62.198 39.9887 61.822 39.198 61.4392 38.4187C61.0564 37.6348 60.8559 37.2452 60.8376 37.2498C60.8468 37.2452 60.8559 37.2406 60.865 37.2361C60.8741 37.2315 60.8832 37.2292 60.8923 37.2292C60.8969 37.2292 60.8992 37.2361 60.8992 37.2498C60.8992 37.2771 60.8901 37.3295 60.8718 37.407C60.7852 37.7989 60.7146 38.38 60.6599 39.1501C60.6052 39.9203 60.5779 40.7247 60.5779 41.5632C60.5779 42.5704 60.6212 43.4545 60.7078 44.2156C60.7123 44.2429 60.7146 44.2862 60.7146 44.3455C60.7146 44.5369 60.6667 44.7169 60.571 44.8855C60.4753 45.0496 60.3432 45.1817 60.1746 45.282C60.0105 45.3822 59.8282 45.4324 59.6277 45.4324C59.3497 45.4324 59.1082 45.3412 58.9031 45.1589C58.698 44.9766 58.5795 44.7488 58.5476 44.4753C58.4473 43.6687 58.3972 42.6889 58.3972 41.5359C58.3972 40.6609 58.4268 39.8178 58.4861 39.0066C58.5499 38.1954 58.6296 37.5551 58.7253 37.0857C58.8028 36.671 58.9919 36.3178 59.2927 36.0261C59.5935 35.7299 59.9581 35.5362 60.3865 35.4451C60.5004 35.4223 60.6029 35.4109 60.6941 35.4109C61.3822 35.4109 62.0362 35.8279 62.656 36.6619C63.2758 37.4958 63.891 38.5736 64.5017 39.8953ZM64.6658 40.7634C64.5883 40.9548 64.4607 41.1098 64.283 41.2283C64.1098 41.3468 63.9161 41.406 63.7019 41.406C63.5105 41.406 63.335 41.3604 63.1755 41.2693C63.016 41.1736 62.8884 41.046 62.7927 40.8865C62.7016 40.727 62.656 40.5515 62.656 40.3601C62.656 40.2006 62.6925 40.0434 62.7654 39.8884C63.3988 38.6397 64.0938 37.5346 64.8503 36.573C65.6068 35.6069 66.3223 35.1238 66.9968 35.1238C67.3067 35.1238 67.6257 35.2058 67.9539 35.3699C68.2865 35.5294 68.5691 35.7618 68.8015 36.0671C69.0385 36.3725 69.1752 36.7257 69.2117 37.1267C69.2846 37.9014 69.3438 38.7924 69.3894 39.7996C69.4395 40.8067 69.4646 41.7638 69.4646 42.6707C69.4646 43.45 69.4464 44.0948 69.4099 44.6052C69.4008 44.7921 69.3461 44.9652 69.2458 45.1248C69.1456 45.2797 69.0134 45.4027 68.8494 45.4939C68.6899 45.585 68.5144 45.6306 68.323 45.6306C68.1134 45.6306 67.922 45.5759 67.7488 45.4666C67.5802 45.3617 67.4503 45.2205 67.3591 45.0427C67.268 44.865 67.227 44.6759 67.2361 44.4753C67.2634 43.9604 67.2771 43.377 67.2771 42.7253C67.2771 41.8549 67.2543 40.9229 67.2087 39.9294C67.1632 38.936 67.1062 38.0564 67.0378 37.2908C67.0151 37.0766 67.0014 36.9695 66.9968 36.9695C66.7598 36.9695 66.5206 37.1244 66.279 37.4343C66.0421 37.7442 65.8188 38.1202 65.6091 38.5623C65.404 39.0043 65.1466 39.599 64.8367 40.3464L64.6658 40.7634Z" fill="#2F4DB5"/>
<path d="M73.8396 43.8943C74.0356 43.9399 74.1973 44.0424 74.3249 44.2019C74.4571 44.3614 74.5232 44.5437 74.5232 44.7488C74.5232 44.9128 74.4822 45.061 74.4001 45.1931C74.3227 45.3207 74.2178 45.421 74.0857 45.4939C73.9535 45.5714 73.8122 45.6101 73.6619 45.6101C73.6117 45.6101 73.573 45.6078 73.5456 45.6033C72.5248 45.4711 71.8253 45.1361 71.447 44.5984C71.0688 44.0606 70.8796 43.4636 70.8796 42.8074C70.8796 42.5932 70.8887 42.4132 70.907 42.2673C70.9298 42.1215 70.9434 42.0372 70.948 42.0144C71.0209 41.5313 71.1895 41.0893 71.4538 40.6882C71.7182 40.2826 72.0691 39.9431 72.5066 39.6697C72.9441 39.3917 73.4454 39.2026 74.0105 39.1023C74.2429 39.0613 74.4685 39.0408 74.6872 39.0408C75.3025 39.0408 75.8494 39.1843 76.3279 39.4714C76.8109 39.7585 77.1915 40.1231 77.4695 40.5652C77.7475 41.0072 77.9024 41.4539 77.9343 41.905L77.9412 42.1238C77.9412 42.739 77.7703 43.3269 77.4285 43.8875C77.0912 44.4434 76.6127 44.8946 75.9929 45.241C75.3731 45.5828 74.6645 45.7537 73.8669 45.7537C73.63 45.7537 73.4272 45.6694 73.2585 45.5007C73.0945 45.3367 73.0124 45.1361 73.0124 44.8992C73.0124 44.7351 73.0512 44.5893 73.1287 44.4617C73.2107 44.3295 73.3178 44.227 73.4499 44.1541C73.5821 44.0811 73.7234 44.0447 73.8738 44.0447C74.3432 44.0492 74.7328 43.9604 75.0427 43.7781C75.3572 43.5958 75.5828 43.352 75.7195 43.0466C75.8562 42.7367 75.9109 42.3972 75.8835 42.0281C75.8562 41.6453 75.7445 41.3376 75.5486 41.1052C75.3572 40.8728 75.0769 40.7566 74.7078 40.7566C74.5893 40.7566 74.4753 40.7657 74.366 40.7839C73.9512 40.8569 73.6345 41.0027 73.4158 41.2214C73.2016 41.4356 73.058 41.7683 72.9851 42.2195C72.9805 42.2514 72.9669 42.3266 72.9441 42.4451C72.9213 42.5636 72.9099 42.6843 72.9099 42.8074C72.9099 43.3998 73.2198 43.7621 73.8396 43.8943Z" fill="#2F4DB5"/>
<path d="M84.2849 34.6316C84.294 34.4584 84.3464 34.2989 84.4421 34.1531C84.5378 34.0027 84.6609 33.8865 84.8113 33.8044C84.9617 33.7179 85.1257 33.6746 85.3035 33.6746C85.504 33.6746 85.684 33.7247 85.8435 33.825C86.003 33.9252 86.1261 34.0597 86.2126 34.2283C86.2992 34.3969 86.338 34.5746 86.3288 34.7615C86.2559 35.8005 86.2195 36.8555 86.2195 37.9265C86.2195 39.3848 86.2924 40.9093 86.4382 42.4998C86.3881 42.5453 86.3015 42.6912 86.1785 42.9373C85.9552 43.393 85.7091 43.8054 85.4402 44.1746C85.1713 44.5437 84.7816 44.8787 84.2712 45.1794C83.7608 45.4757 83.1319 45.6238 82.3845 45.6238C81.8741 45.6238 81.3591 45.4916 80.8396 45.2273C80.3246 44.9584 79.8985 44.5688 79.5613 44.0583C79.2286 43.5479 79.0714 42.9486 79.0896 42.2605C79.1078 41.5678 79.2947 40.9776 79.6501 40.49C80.0056 39.9978 80.4363 39.6287 80.9421 39.3826C81.448 39.1365 81.9288 39.0134 82.3845 39.0134C83.2504 39.0134 84.032 39.2823 84.7292 39.8201C85.4265 40.3533 85.9779 41.1371 86.3835 42.1716C86.4291 42.281 86.4519 42.4041 86.4519 42.5408C86.4519 42.7231 86.4063 42.8917 86.3152 43.0466C86.2286 43.197 86.1078 43.3178 85.9529 43.4089C85.8025 43.5001 85.6361 43.5457 85.4538 43.5457C85.2351 43.5457 85.0391 43.4819 84.866 43.3542C84.6928 43.2266 84.572 43.0626 84.5037 42.8621C84.2393 42.0736 83.934 41.5199 83.5876 41.2009C83.2458 40.8819 82.8448 40.7224 82.3845 40.7224C82.1886 40.7224 81.9971 40.7748 81.8103 40.8796C81.628 40.9799 81.4731 41.1485 81.3455 41.3855C81.2178 41.6179 81.1495 41.9233 81.1404 42.3015C81.1267 42.8621 81.2406 43.2722 81.4822 43.532C81.7237 43.7872 82.0245 43.9148 82.3845 43.9148C82.7309 43.9148 83.0225 43.835 83.2595 43.6755C83.4965 43.516 83.6856 43.3292 83.8269 43.115C83.9682 42.8962 84.1436 42.5795 84.3533 42.1648C84.2348 40.7748 84.1755 39.3621 84.1755 37.9265C84.1755 36.81 84.212 35.7117 84.2849 34.6316ZM84.3396 42.4519C84.3214 42.2559 84.3555 42.0736 84.4421 41.905C84.5287 41.7319 84.6518 41.5951 84.8113 41.4949C84.9753 41.3901 85.1576 41.3376 85.3581 41.3376C85.627 41.3376 85.8572 41.4288 86.0486 41.6111C86.2445 41.7888 86.3539 42.0098 86.3767 42.2742C86.4132 42.6615 86.4587 43.0717 86.5134 43.5046C86.5727 43.9376 86.6342 44.3204 86.698 44.6531C86.7071 44.6941 86.7117 44.7579 86.7117 44.8445C86.7117 45.0268 86.6661 45.1954 86.5749 45.3503C86.4838 45.5053 86.3608 45.6283 86.2058 45.7195C86.0509 45.8106 85.8822 45.8562 85.6999 45.8562C85.4584 45.8562 85.2465 45.781 85.0642 45.6306C84.8819 45.4802 84.7657 45.2888 84.7156 45.0564C84.5515 44.3044 84.4262 43.4363 84.3396 42.4519Z" fill="#2F4DB5"/>
<path d="M92.8093 43.5798C92.9187 43.5251 93.0417 43.4978 93.1785 43.4978C93.4154 43.4978 93.616 43.5821 93.78 43.7507C93.9486 43.9148 94.033 44.1153 94.033 44.3523C94.033 44.5209 93.9874 44.6759 93.8962 44.8171C93.8051 44.9539 93.6866 45.0564 93.5408 45.1248C93.1899 45.2934 92.8412 45.421 92.4949 45.5076C92.1531 45.5942 91.7589 45.6375 91.3122 45.6375C91.1573 45.6375 91.0388 45.6352 90.9568 45.6306C90.4555 45.6078 89.9792 45.4962 89.5281 45.2957C89.0769 45.0906 88.7009 44.7989 88.4001 44.4207C88.1039 44.0424 87.933 43.5912 87.8875 43.0671C87.8783 42.9031 87.8738 42.7732 87.8738 42.6775C87.8738 42.1488 87.9604 41.6384 88.1335 41.1462C88.3113 40.6541 88.6029 40.2279 89.0085 39.8679C89.4141 39.5079 89.9428 39.2755 90.5945 39.1707C90.836 39.1296 91.0639 39.1091 91.2781 39.1091C91.7839 39.1091 92.2374 39.2071 92.6384 39.4031C93.0395 39.599 93.3744 39.8611 93.6433 40.1892C93.9167 40.5128 94.1264 40.8774 94.2722 41.283C94.3041 41.3878 94.3201 41.4835 94.3201 41.5701C94.3201 41.8025 94.238 42.0007 94.074 42.1648C93.9099 42.3289 93.7117 42.4109 93.4792 42.4109C93.2924 42.4109 93.1238 42.3562 92.9734 42.2468C92.8275 42.1329 92.7273 41.9893 92.6726 41.8162C92.4675 41.1462 92.0186 40.8113 91.3259 40.8113C91.1938 40.8113 91.0411 40.825 90.8679 40.8523C90.3985 40.9252 90.0658 41.1052 89.8699 41.3923C89.6739 41.6794 89.5759 42.06 89.5759 42.5339C89.5759 42.6615 89.5828 42.7937 89.5964 42.9304C89.6238 43.2677 89.7628 43.5138 90.0134 43.6687C90.2686 43.8191 90.6104 43.9034 91.0388 43.9216C91.1117 43.9262 91.212 43.9285 91.3396 43.9285C91.6221 43.9285 91.8705 43.9011 92.0847 43.8464C92.3035 43.7917 92.545 43.7029 92.8093 43.5798ZM93.3835 41.1462C93.4792 41.0916 93.5863 41.0642 93.7048 41.0642C93.8917 41.0642 94.0512 41.1326 94.1833 41.2693C94.3201 41.4014 94.3884 41.561 94.3884 41.7478C94.3884 41.8754 94.3542 41.9939 94.2859 42.1033C94.2221 42.2126 94.1355 42.297 94.0261 42.3562C93.4701 42.6479 92.9005 42.8712 92.3171 43.0261C91.7338 43.1765 91.1527 43.2791 90.574 43.3337C89.9997 43.3839 89.3275 43.418 88.5574 43.4363C88.3751 43.4408 88.2133 43.3793 88.072 43.2517C87.9307 43.1195 87.8601 42.9532 87.8601 42.7527C87.8601 42.5658 87.9262 42.4063 88.0583 42.2742C88.1905 42.142 88.3477 42.0736 88.53 42.0691C89.2546 42.0554 89.8767 42.0258 90.3962 41.9802C90.9158 41.9347 91.4239 41.8481 91.9206 41.7205C92.4219 41.5883 92.9096 41.3969 93.3835 41.1462Z" fill="#2F4DB5"/>
<path d="M40.8364 52.423C40.2095 51.9915 40.5752 51.2722 40.8364 50.9666C43.1603 51.3981 67.4532 50.2383 67.9125 50.0765C68.3719 49.9147 71.0741 50.9666 70.8579 52.423C70.6418 53.8795 57.8333 53.7177 57.1307 54.3111C56.4281 54.9044 68.5881 53.3401 68.5881 54.3111C68.5881 55.282 65.4805 56.28 66.5344 56.1182C67.5883 55.9563 67.5342 56.4958 66.9938 57.0352C66.4533 57.5746 64.4807 57.4937 63.1296 57.0352C61.7785 56.5767 67.21 54.3111 66.9938 54.3111C66.7776 54.3111 53.5908 55.309 52.7531 55.363C51.9154 55.4169 51.1588 55.0663 52.2127 54.3111C53.2666 53.5559 72.2901 51.8836 68.5881 51.6678C64.8861 51.4521 47.9702 52.8006 46.457 52.423C44.9437 52.0454 41.62 52.9625 40.8364 52.423Z" fill="#2F4DB5"/>
<path fill-rule="evenodd" clip-rule="evenodd" d="M16.3848 29.4339C15.875 28.4377 16.1596 27.8468 16.8187 28.0347C18.1499 28.4142 18.3885 31.7439 17.81 31.7634C17.4073 31.7769 17.1834 31.2462 16.8695 30.5023C16.7325 30.1777 16.5784 29.8123 16.3848 29.4339ZM13.0237 34.375C12.182 34.2089 12.1356 33.3913 12.5616 33.0837C13.422 32.4624 15.5399 33.8995 15.277 34.257C15.0141 34.6145 14.0759 34.5825 13.0237 34.375ZM12.4454 29.1622C11.6221 29.4055 11.9711 30.4655 13.2374 31.377C13.7579 31.7516 14.1966 32.1311 14.5719 32.4558C15.3381 33.1186 15.8401 33.5529 16.2335 33.2496C16.8197 32.7979 14.1082 28.6709 12.4454 29.1622Z" fill="#2F4DB5"/>
</svg>
