<svg width="112" height="84" viewBox="0 0 112 84" fill="none" xmlns="http://www.w3.org/2000/svg">
<g clip-path="url(#clip0_5467_24778)">
<rect width="112" height="84" fill="#FAE4E8"/>
<path d="M22.392 -13.5847C25.1016 -16.7426 29.9884 -16.7426 32.698 -13.5847L38.3775 -6.96582C39.7857 -5.32468 41.8914 -4.45245 44.0476 -4.61716L52.7439 -5.28145C56.8929 -5.59838 60.3483 -2.14294 60.0314 2.006L59.3671 10.7023C59.2024 12.8585 60.0746 14.9642 61.7157 16.3724L68.3346 22.0519C71.4925 24.7616 71.4925 29.6483 68.3346 32.3579L61.7157 38.0374C60.0746 39.4456 59.2024 41.5513 59.3671 43.7076L60.0314 52.4038C60.3483 56.5528 56.8929 60.0082 52.7439 59.6913L44.0476 59.027C41.8914 58.8623 39.7857 59.7345 38.3775 61.3756L32.698 67.9946C29.9884 71.1524 25.1016 71.1524 22.392 67.9946L16.7125 61.3756C15.3043 59.7345 13.1986 58.8623 11.0424 59.027L2.34609 59.6913C-1.80286 60.0082 -5.25829 56.5528 -4.94136 52.4038L-4.27707 43.7076C-4.11236 41.5513 -4.98459 39.4456 -6.62573 38.0374L-13.2447 32.3579C-16.4025 29.6483 -16.4025 24.7615 -13.2447 22.0519L-6.62574 16.3724C-4.98459 14.9642 -4.11236 12.8585 -4.27707 10.7023L-4.94136 2.006C-5.25829 -2.14295 -1.80286 -5.59838 2.34608 -5.28145L11.0424 -4.61716C13.1986 -4.45245 15.3043 -5.32467 16.7125 -6.96582L22.392 -13.5847Z" fill="#F4B7B8"/>
<path d="M25.5456 42.4961C25.7536 42.5521 25.9776 42.6001 26.2176 42.6401C26.4576 42.6721 26.7216 42.6881 27.0096 42.6881C27.4976 42.6881 27.9296 42.6201 28.3056 42.4841C28.6816 42.3481 28.9936 42.1641 29.2416 41.9321C29.4976 41.6921 29.6896 41.4201 29.8176 41.1161C29.9456 40.8041 30.0096 40.4721 30.0096 40.1201C30.0096 39.7841 29.9536 39.4641 29.8416 39.1601C29.7296 38.8481 29.5576 38.5801 29.3256 38.3561C29.1016 38.1241 28.8176 37.9401 28.4736 37.8041C28.1296 37.6681 27.7256 37.6001 27.2616 37.6001H24.4536V46.0001H25.5456V42.4961ZM25.5456 38.1281H26.8056C27.1416 38.1281 27.4376 38.1881 27.6936 38.3081C27.9496 38.4281 28.1616 38.5881 28.3296 38.7881C28.4976 38.9801 28.6216 39.2001 28.7016 39.4481C28.7896 39.6881 28.8336 39.9281 28.8336 40.1681C28.8336 40.4001 28.7936 40.6361 28.7136 40.8761C28.6416 41.1081 28.5216 41.3201 28.3536 41.5121C28.1856 41.7041 27.9736 41.8601 27.7176 41.9801C27.4616 42.1001 27.1536 42.1601 26.7936 42.1601C26.5456 42.1601 26.3176 42.1521 26.1096 42.1361C25.9016 42.1121 25.7136 42.0681 25.5456 42.0041V38.1281Z" fill="black"/>
<path d="M31.717 40.0001V46.0001H32.737V40.0001H31.717ZM31.573 38.1041C31.573 38.2801 31.637 38.4321 31.765 38.5601C31.893 38.6881 32.045 38.7521 32.221 38.7521C32.397 38.7521 32.549 38.6881 32.677 38.5601C32.805 38.4321 32.869 38.2801 32.869 38.1041C32.869 37.9281 32.805 37.7761 32.677 37.6481C32.549 37.5201 32.397 37.4561 32.221 37.4561C32.045 37.4561 31.893 37.5201 31.765 37.6481C31.637 37.7761 31.573 37.9281 31.573 38.1041Z" fill="black"/>
<path d="M34.4244 40.4801V40.0001H35.4684V38.1521H36.4884V40.0001H37.9404V40.4801H36.4884V44.4641C36.4884 44.5601 36.4924 44.6721 36.5004 44.8001C36.5084 44.9201 36.5324 45.0361 36.5724 45.1481C36.6124 45.2521 36.6724 45.3401 36.7524 45.4121C36.8404 45.4841 36.9604 45.5201 37.1124 45.5201C37.3044 45.5201 37.4644 45.4481 37.5924 45.3041C37.7204 45.1601 37.8244 45.0041 37.9044 44.8361L38.4684 45.4121C38.0764 45.8041 37.6324 46.0001 37.1364 46.0001C36.9284 46.0001 36.7244 45.9641 36.5244 45.8921C36.3244 45.8201 36.1444 45.7121 35.9844 45.5681C35.8324 45.4161 35.7084 45.2241 35.6124 44.9921C35.5164 44.7601 35.4684 44.4881 35.4684 44.1761V40.4801H34.4244Z" fill="black"/>
<path d="M42.5364 45.5201C42.2484 45.5201 41.9684 45.4761 41.6964 45.3881C41.4324 45.3001 41.1964 45.1601 40.9884 44.9681C40.7804 44.7681 40.6124 44.5081 40.4844 44.1881C40.3644 43.8601 40.3044 43.4601 40.3044 42.9881C40.3044 42.5001 40.3724 42.0881 40.5084 41.7521C40.6444 41.4081 40.8124 41.1361 41.0124 40.9361C41.2204 40.7281 41.4484 40.5801 41.6964 40.4921C41.9444 40.3961 42.1804 40.3481 42.4044 40.3481C42.7724 40.3481 43.0924 40.4441 43.3644 40.6361C43.6364 40.8281 43.8164 41.0641 43.9044 41.3441H44.7324C44.6524 41.0561 44.5244 40.8201 44.3484 40.6361C44.1724 40.4441 43.9684 40.2921 43.7364 40.1801C43.5124 40.0601 43.2684 39.9801 43.0044 39.9401C42.7484 39.8921 42.5004 39.8681 42.2604 39.8681C41.7564 39.8681 41.3124 39.9521 40.9284 40.1201C40.5444 40.2801 40.2204 40.5001 39.9564 40.7801C39.6924 41.0601 39.4924 41.3881 39.3564 41.7641C39.2284 42.1401 39.1644 42.5401 39.1644 42.9641C39.1644 43.4121 39.2364 43.8321 39.3804 44.2241C39.5244 44.6081 39.7284 44.9441 39.9924 45.2321C40.2644 45.5121 40.5884 45.7361 40.9644 45.9041C41.3404 46.0641 41.7644 46.1441 42.2364 46.1441C42.7644 46.1441 43.2244 46.0561 43.6164 45.8801C44.0164 45.7041 44.3524 45.5121 44.6244 45.3041L44.2764 44.8481C43.9964 45.0801 43.7164 45.2521 43.4364 45.3641C43.1644 45.4681 42.8644 45.5201 42.5364 45.5201Z" fill="black"/>
<path d="M46.0517 37.6001V46.0001H47.0717V42.5321C47.0717 42.3721 47.0837 42.1761 47.1077 41.9441C47.1317 41.7121 47.1957 41.4881 47.2997 41.2721C47.4117 41.0561 47.5757 40.8721 47.7917 40.7201C48.0077 40.5601 48.3077 40.4801 48.6917 40.4801C48.9637 40.4801 49.1797 40.5321 49.3397 40.6361C49.5077 40.7321 49.6357 40.8641 49.7237 41.0321C49.8117 41.2001 49.8677 41.3961 49.8917 41.6201C49.9237 41.8441 49.9397 42.0761 49.9397 42.3161V46.0001H50.9597V42.0401C50.9597 41.5921 50.8957 41.2281 50.7677 40.9481C50.6397 40.6601 50.4797 40.4361 50.2877 40.2761C50.0957 40.1161 49.8837 40.0081 49.6517 39.9521C49.4277 39.8961 49.2117 39.8681 49.0037 39.8681C48.7237 39.8681 48.4277 39.9241 48.1157 40.0361C47.8117 40.1401 47.5237 40.3441 47.2517 40.6481L47.1197 40.8161H47.0717V37.6001H46.0517Z" fill="black"/>
<path d="M58.3751 37.6001H57.5591V46.0001H58.0871V39.1481H58.1351L61.8431 46.1441H62.0591L65.8511 39.1961H65.8991V46.0001H66.9911V37.6001H66.1631L62.2751 44.8121H62.2271L58.3751 37.6001Z" fill="black"/>
<path d="M75.2515 43.0121C75.2515 43.4281 75.1795 43.8281 75.0355 44.2121C74.8915 44.5881 74.6835 44.9201 74.4115 45.2081C74.1475 45.4961 73.8235 45.7241 73.4395 45.8921C73.0635 46.0601 72.6395 46.1441 72.1675 46.1441C71.6875 46.1441 71.2515 46.0601 70.8595 45.8921C70.4755 45.7161 70.1475 45.4841 69.8755 45.1961C69.6115 44.9081 69.4035 44.5761 69.2515 44.2001C69.1075 43.8161 69.0355 43.4201 69.0355 43.0121C69.0355 42.5961 69.1075 42.2001 69.2515 41.8241C69.4035 41.4401 69.6115 41.1041 69.8755 40.8161C70.1475 40.5281 70.4755 40.3001 70.8595 40.1321C71.2515 39.9561 71.6875 39.8681 72.1675 39.8681C72.6395 39.8681 73.0635 39.9561 73.4395 40.1321C73.8235 40.3001 74.1475 40.5281 74.4115 40.8161C74.6835 41.1041 74.8915 41.4401 75.0355 41.8241C75.1795 42.2001 75.2515 42.5961 75.2515 43.0121ZM74.1115 43.0121C74.1115 42.4521 74.0515 42.0001 73.9315 41.6561C73.8115 41.3041 73.6555 41.0321 73.4635 40.8401C73.2715 40.6481 73.0595 40.5201 72.8275 40.4561C72.5955 40.3841 72.3715 40.3481 72.1555 40.3481C71.9395 40.3481 71.7155 40.3841 71.4835 40.4561C71.2515 40.5201 71.0355 40.6481 70.8355 40.8401C70.6435 41.0321 70.4835 41.3041 70.3555 41.6561C70.2355 42.0001 70.1755 42.4521 70.1755 43.0121C70.1755 43.5641 70.2355 44.0161 70.3555 44.3681C70.4835 44.7121 70.6435 44.9801 70.8355 45.1721C71.0355 45.3641 71.2515 45.4961 71.4835 45.5681C71.7155 45.6321 71.9395 45.6641 72.1555 45.6641C72.3715 45.6641 72.5955 45.6321 72.8275 45.5681C73.0595 45.4961 73.2715 45.3641 73.4635 45.1721C73.6555 44.9801 73.8115 44.7121 73.9315 44.3681C74.0515 44.0161 74.1115 43.5641 74.1115 43.0121Z" fill="black"/>
<path d="M82.1415 37.6001H81.1215V40.9841H81.0735C80.9935 40.7761 80.8855 40.6041 80.7495 40.4681C80.6215 40.3241 80.4735 40.2081 80.3055 40.1201C80.1375 40.0321 79.9575 39.9681 79.7655 39.9281C79.5815 39.8881 79.3935 39.8681 79.2015 39.8681C78.8015 39.8681 78.4335 39.9441 78.0975 40.0961C77.7615 40.2401 77.4695 40.4481 77.2215 40.7201C76.9815 40.9921 76.7935 41.3201 76.6575 41.7041C76.5215 42.0881 76.4535 42.5161 76.4535 42.9881C76.4535 43.4681 76.5215 43.9041 76.6575 44.2961C76.7935 44.6801 76.9815 45.0121 77.2215 45.2921C77.4695 45.5641 77.7615 45.7761 78.0975 45.9281C78.4335 46.0721 78.8015 46.1441 79.2015 46.1441C80.1455 46.1441 80.7695 45.7721 81.0735 45.0281H81.1215V46.0001H82.1415V37.6001ZM81.1215 43.6001C81.1215 43.8641 81.0775 44.1161 80.9895 44.3561C80.9015 44.5881 80.7815 44.7921 80.6295 44.9681C80.4855 45.1361 80.3095 45.2721 80.1015 45.3761C79.9015 45.4721 79.6855 45.5201 79.4535 45.5201C79.1975 45.5201 78.9575 45.4761 78.7335 45.3881C78.5095 45.2921 78.3135 45.1441 78.1455 44.9441C77.9775 44.7441 77.8415 44.4841 77.7375 44.1641C77.6415 43.8441 77.5935 43.4601 77.5935 43.0121C77.5935 42.5561 77.6415 42.1681 77.7375 41.8481C77.8415 41.5281 77.9775 41.2681 78.1455 41.0681C78.3215 40.8601 78.5215 40.7121 78.7455 40.6241C78.9695 40.5281 79.2055 40.4801 79.4535 40.4801C79.6775 40.4801 79.8895 40.5281 80.0895 40.6241C80.2895 40.7121 80.4655 40.8481 80.6175 41.0321C80.7695 41.2081 80.8895 41.4241 80.9775 41.6801C81.0735 41.9361 81.1215 42.2281 81.1215 42.5561V43.6001Z" fill="black"/>
<path d="M89.3836 43.2641V43.0121C89.3836 42.4761 89.3076 42.0121 89.1556 41.6201C89.0036 41.2281 88.7956 40.9041 88.5316 40.6481C88.2756 40.3921 87.9756 40.2001 87.6316 40.0721C87.2876 39.9441 86.9236 39.8801 86.5396 39.8801C86.1316 39.8801 85.7556 39.9521 85.4116 40.0961C85.0676 40.2321 84.7676 40.4361 84.5116 40.7081C84.2556 40.9721 84.0556 41.2961 83.9116 41.6801C83.7676 42.0561 83.6956 42.4841 83.6956 42.9641C83.6956 43.3641 83.7556 43.7561 83.8756 44.1401C84.0036 44.5161 84.1916 44.8561 84.4396 45.1601C84.6956 45.4561 85.0156 45.6961 85.3996 45.8801C85.7916 46.0561 86.2516 46.1441 86.7796 46.1441C87.2916 46.1441 87.7636 46.0561 88.1956 45.8801C88.6276 45.6961 89.0036 45.4361 89.3236 45.1001L88.9396 44.7161C88.7716 44.8601 88.6116 44.9921 88.4596 45.1121C88.3156 45.2321 88.1676 45.3321 88.0156 45.4121C87.8636 45.4921 87.7036 45.5561 87.5356 45.6041C87.3756 45.6441 87.1956 45.6641 86.9956 45.6641C86.7716 45.6641 86.5316 45.6321 86.2756 45.5681C86.0276 45.4961 85.7956 45.3721 85.5796 45.1961C85.3636 45.0201 85.1836 44.7761 85.0396 44.4641C84.8956 44.1521 84.8236 43.7521 84.8236 43.2641H89.3836ZM84.8236 42.7841C84.8236 42.4641 84.8556 42.1561 84.9196 41.8601C84.9916 41.5561 85.0956 41.2881 85.2316 41.0561C85.3756 40.8241 85.5556 40.6401 85.7716 40.5041C85.9876 40.3601 86.2436 40.2881 86.5396 40.2881C87.1076 40.2881 87.5476 40.5121 87.8596 40.9601C88.1796 41.4001 88.3396 42.0081 88.3396 42.7841H84.8236Z" fill="black"/>
</g>
<defs>
<clipPath id="clip0_5467_24778">
<rect width="112" height="84" fill="white"/>
</clipPath>
</defs>
</svg>
