<?xml version="1.0" encoding="UTF-8"?>
<svg width="24px" height="24px" viewBox="0 0 24 24" version="1.1" xmlns="http://www.w3.org/2000/svg" xmlns:xlink="http://www.w3.org/1999/xlink">
    <title>print-portrait</title>
    <g id="print-portrait" stroke="none" stroke-width="1" fill="none" fill-rule="evenodd">
        <g id="编组" transform="translate(12.000000, 12.000000) scale(-1, 1) rotate(-90.000000) translate(-12.000000, -12.000000) translate(3.000000, 5.000000)" stroke="#000000" stroke-linejoin="round" stroke-width="1.2">
            <path d="M1,0 L13,0 L13,0 L18,5.05046709 L18,13 C18,13.5522847 17.5522847,14 17,14 L1,14 C0.44771525,14 6.76353751e-17,13.5522847 0,13 L0,1 C-6.76353751e-17,0.44771525 0.44771525,1.01453063e-16 1,0 Z" id="路径-3"></path>
            <polygon id="路径-4" stroke-linecap="round" points="13 2.77555756e-16 13 5 17.9786118 5"></polygon>
        </g>
        <g id="编组" opacity="0.2" transform="translate(7.500000, 10.500000)">
            <rect id="矩形" fill="#000000" x="1.5" y="1.5" width="6" height="3" rx="0.5"></rect>
            <line x1="0" y1="0.0137032375" x2="2.8732729" y2="3" id="路径-5" stroke="#000000" stroke-linecap="round"></line>
            <line x1="6" y1="0.0137032375" x2="9.08617952" y2="3" id="路径-5" stroke="#000000" stroke-linecap="round" transform="translate(7.543090, 1.506852) scale(-1, 1) translate(-7.543090, -1.506852) "></line>
            <line x1="0" y1="3" x2="2.8732729" y2="6.119802" id="路径-5" stroke="#000000" stroke-linecap="round" transform="translate(1.436636, 4.559901) scale(1, -1) translate(-1.436636, -4.559901) "></line>
            <line x1="6" y1="3" x2="9.08617952" y2="6.119802" id="路径-5" stroke="#000000" stroke-linecap="round" transform="translate(7.543090, 4.559901) scale(-1, -1) translate(-7.543090, -4.559901) "></line>
        </g>
    </g>
</svg>