<?xml version="1.0" encoding="UTF-8"?>
<svg width="24px" height="24px" viewBox="0 0 24 24" version="1.1" xmlns="http://www.w3.org/2000/svg" xmlns:xlink="http://www.w3.org/1999/xlink">
    <!-- Generator: Sketch 56 (81588) - https://sketch.com -->
    <title>week_sat@16</title>
    <desc>Created with Sketch.</desc>
    <defs>
        <polygon id="path-1" points="0 0 24 0 24 23.9998 0 23.9998"></polygon>
    </defs>
    <g id="week_sat" stroke="none" stroke-width="1" fill="none" fill-rule="evenodd">
        <g id="Group-8">
            <g id="Group-3">
                <mask id="mask-2" fill="white">
                    <use xlink:href="#path-1"></use>
                </mask>
                <g id="Clip-2"></g>
                <path d="M24,11.9998 C24,18.6278 18.627,23.9998 12,23.9998 C5.373,23.9998 0,18.6278 0,11.9998 C0,5.3728 5.373,-0.0002 12,-0.0002 C18.627,-0.0002 24,5.3728 24,11.9998" id="Fill-1" fill="#9D9DA0" mask="url(#mask-2)"></path>
            </g>
            <path d="M6.1592,17.0731 C5.4462,16.8191 4.8692,16.4641 4.4272,16.0051 L5.1702,14.2331 C5.6022,14.5861 6.1122,14.8711 6.7002,15.0871 C7.2892,15.3031 7.8442,15.4121 8.3662,15.4121 C8.8302,15.4121 9.1922,15.3041 9.4542,15.0911 C9.7152,14.8781 9.8462,14.5921 9.8462,14.2331 C9.8462,13.8641 9.6932,13.5411 9.3902,13.2631 C9.0872,12.9871 8.6112,12.6931 7.9632,12.3821 C6.9552,11.8811 6.2022,11.3351 5.7042,10.7441 C5.2052,10.1531 4.9562,9.4441 4.9562,8.6161 C4.9562,7.9681 5.0982,7.4141 5.3842,6.9551 C5.6682,6.4961 6.0742,6.1481 6.6012,5.9111 C7.1292,5.6741 7.7542,5.5541 8.4762,5.5541 C8.9252,5.5541 9.3882,5.6131 9.8692,5.7281 C10.3482,5.8441 10.8262,6.0161 11.3012,6.2431 L11.3012,8.2441 C10.9102,8.0281 10.5022,7.8661 10.0742,7.7581 C9.6472,7.6491 9.2252,7.5951 8.8082,7.5951 C8.3342,7.5951 7.9482,7.6971 7.6502,7.9001 C7.3512,8.1031 7.2032,8.3941 7.2032,8.7741 C7.2032,9.1221 7.3542,9.4451 7.6582,9.7431 C7.9612,10.0421 8.4132,10.3331 9.0142,10.6171 C10.0852,11.1391 10.8642,11.6861 11.3522,12.2591 C11.8402,12.8311 12.0842,13.4781 12.0842,14.2011 C12.0842,14.8601 11.9362,15.4351 11.6402,15.9261 C11.3462,16.4161 10.9212,16.7931 10.3672,17.0561 C9.8132,17.3201 9.1572,17.4531 8.3972,17.4531 C7.6172,17.4531 6.8712,17.3261 6.1592,17.0731" id="Fill-4" fill="#FFFFFF"></path>
            <path d="M17.4395,15.412 C17.6985,15.19 17.8675,14.919 17.9465,14.597 L17.9465,13.109 C17.4555,13.136 17.0335,13.183 16.6795,13.252 C16.3425,13.331 16.0685,13.49 15.8575,13.73 C15.6465,13.971 15.5415,14.267 15.5415,14.62 C15.5415,14.969 15.6275,15.243 15.7975,15.443 C15.9695,15.643 16.2085,15.744 16.5135,15.744 C16.8725,15.744 17.1805,15.633 17.4395,15.412 L17.4395,15.412 Z M20.2405,17.255 L17.9465,17.255 L17.9465,16.203 L17.8755,16.203 C17.7105,16.588 17.4445,16.891 17.0755,17.112 C16.7065,17.334 16.2605,17.444 15.7385,17.444 C14.9535,17.444 14.3475,17.22 13.9225,16.768 C13.4995,16.317 13.2865,15.676 13.2865,14.842 C13.2865,14.04 13.5555,13.373 14.0925,12.841 C14.6305,12.308 15.4015,11.944 16.4035,11.749 C16.8405,11.67 17.3345,11.603 17.8825,11.551 C17.8195,11.076 17.6755,10.729 17.4515,10.511 C17.2275,10.292 16.8855,10.183 16.4265,10.183 C15.8095,10.183 15.1485,10.346 14.4415,10.673 L14.1255,9.004 C14.5625,8.804 15.0185,8.647 15.4935,8.537 C15.9675,8.427 16.4035,8.371 16.7985,8.371 C17.6535,8.371 18.3315,8.522 18.8325,8.826 C19.3335,9.129 19.6915,9.584 19.9085,10.19 C20.1245,10.797 20.2345,11.583 20.2405,12.548 L20.2405,17.255 Z" id="Fill-6" fill="#FFFFFF"></path>
        </g>
    </g>
</svg>