<svg width="116" height="12" viewBox="0 0 116 12" fill="none" xmlns="http://www.w3.org/2000/svg">
<path fill-rule="evenodd" clip-rule="evenodd" d="M0 5.25H7.25V6.75H0V5.25ZM9.66667 5.25H16.9167V6.75H9.66667V5.25ZM19.3333 5.25H26.5833V6.75H19.3333V5.25ZM29 5.25H36.25V6.75H29V5.25ZM38.6667 5.25H45.9167V6.75H38.6667V5.25ZM48.3333 5.25H55.5833V6.75H48.3333V5.25ZM58 5.25H65.25V6.75H58V5.25ZM67.6667 5.25H74.9167V6.75H67.6667V5.25ZM77.3333 5.25H84.5833V6.75H77.3333V5.25ZM87 5.25H94.25V6.75H87V5.25ZM96.6667 5.25H103.917V6.75H96.6667V5.25Z" fill="#27292A"/>
<path d="M113.583 5.25V6.75H106.333V5.25H113.583Z" fill="#27292A"/>
</svg>
