<svg width="16" height="16" viewBox="0 0 16 16" fill="none" xmlns="http://www.w3.org/2000/svg">
<path fill-rule="evenodd" clip-rule="evenodd" d="M7.28258 0.871851C7.57603 0.277255 8.4239 0.277254 8.71735 0.871851L10.5221 4.52858L14.5575 5.11497C15.2137 5.21031 15.4757 6.01669 15.0009 6.47952L12.0808 9.32589L12.7701 13.345C12.8822 13.9986 12.1963 14.4969 11.6094 14.1884L7.99997 12.2908L4.39055 14.1884C3.80365 14.4969 3.11771 13.9986 3.2298 13.345L3.91913 9.32589L0.999057 6.47952C0.524243 6.01669 0.786251 5.21032 1.44243 5.11497L5.47787 4.52858L7.28258 0.871851ZM7.99997 2.58163L6.5937 5.43104C6.47717 5.66716 6.25192 5.83081 5.99135 5.86867L2.84684 6.3256L5.12223 8.54355C5.31078 8.72734 5.39682 8.99214 5.35231 9.25166L4.81516 12.3835L7.62769 10.9048C7.86075 10.7823 8.13918 10.7823 8.37224 10.9048L11.1848 12.3835L10.6476 9.25166C10.6031 8.99214 10.6892 8.72734 10.8777 8.54355L13.1531 6.3256L10.0086 5.86867C9.74801 5.83081 9.52276 5.66716 9.40623 5.43104L7.99997 2.58163Z" fill="#27292A"/>
</svg>
