<?xml version="1.0" encoding="UTF-8"?>
<svg width="40px" height="40px" viewBox="0 0 40 40" version="1.1" xmlns="http://www.w3.org/2000/svg" xmlns:xlink="http://www.w3.org/1999/xlink">
    <title>Icons/Format Panel Icons/Brace/Brace5</title>
    <g id="Icons/Format-Panel-Icons/Brace/Brace5" stroke="none" stroke-width="1" fill="none" fill-rule="evenodd">
        <path d="M24.5275953,3 C25.0798801,3 25.4084688,3.136872 25.4084688,3.33910409 C25.4084688,3.54133619 25.0409961,3.60628365 24.5275953,3.60628365 C24.0141946,3.60628365 23.6524732,3.63033817 23.0145633,3.65889295 C20.9938052,3.74670718 20.2657602,5.77021413 20.3670409,7.84843421 C20.4683216,9.9266543 21.0968361,15.2884512 21,20.0384654 C21,20.8610191 20.5522847,21.0384654 20,21.0384654 C19.4871642,21.0384654 19.0644928,20.6524252 19.0067277,20.1550865 L19,20.0384654 L19,7.96063051 C19,5.67009438 20,3.19038164 23.0145633,3 C24.0232513,3 24.5275953,3 24.5275953,3 Z" id="Brace-5" fill="#000000"></path>
        <path d="M24.5275953,19 C25.0798801,19 25.4084688,19.136872 25.4084688,19.3391041 C25.4084688,19.5413362 25.0409961,19.6062836 24.5275953,19.6062836 C24.0141946,19.6062836 23.6524732,19.6303382 23.0145633,19.658893 C20.9938052,19.7467072 20.2657602,21.7702141 20.3670409,23.8484342 C20.4683216,25.9266543 21.0968361,31.2884512 21,36.0384654 C21,36.8610191 20.5522847,37.0384654 20,37.0384654 C19.4871642,37.0384654 19.0644928,36.6524252 19.0067277,36.1550865 L19,36.0384654 L19,23.9606305 C19,21.6700944 20,19.1903816 23.0145633,19 C24.0232513,19 24.5275953,19 24.5275953,19 Z" id="Brace-5" fill="#000000" transform="translate(22.204234, 28.019233) scale(1, -1) translate(-22.204234, -28.019233) "></path>
    </g>
</svg>