<svg xmlns="http://www.w3.org/2000/svg" width="20" height="20" viewBox="0 0 20 20">
  <g fill="none" fill-rule="evenodd">
    <circle cx="10" cy="10" r="10" fill="#FC9850"/>
    <path fill="#FFF" d="M8.78685799,8.10498522 C8.78685799,8.10498522 8.01709477,7.99282851 8.01709477,7.29167088 C8.01709477,6.69474706 8.02075008,6.53623107 8.02183688,5.83423949 C8.02202665,5.71165894 8.02213811,5.57250698 8.02213811,5.41155569 C8.02213811,4.97107776 7.55867321,5.33346697 7.55867321,5.33346697 C7.55867321,5.33346697 1.75674356,9.68803704 1.75674356,10.0230733 C1.75674356,10.3581096 7.61724817,14.7433295 7.61724817,14.7433295 C7.61724817,14.7433295 7.99131108,14.9310804 8.00891511,14.5691182 C8.02213811,14.2972359 8.02986857,13.6049594 8.02213811,13.1197016 C8.01768244,12.8400097 8.02213811,12.7107884 8.02213811,12.625082 C8.02213811,11.829284 8.78685799,11.807507 8.78685799,11.807507 L9.54936896,11.7619055 L11.3118799,11.807507 C11.3118799,11.807507 12.0765998,11.829284 12.0765998,12.625082 C12.0765998,12.7107884 12.0810555,12.8400097 12.0765998,13.1197016 C12.0688693,13.6049594 12.0765998,14.2972359 12.0898228,14.5691182 C12.1074268,14.9310804 12.4814897,14.7433295 12.4814897,14.7433295 C12.4814897,14.7433295 18.3419944,10.3581096 18.3419944,10.0230733 C18.3419944,9.68803704 12.5400647,5.33346697 12.5400647,5.33346697 C12.5400647,5.33346697 12.0765998,4.97107776 12.0765998,5.41155569 C12.0765998,5.57250698 12.0767113,5.71165894 12.076901,5.83423949 C12.0779878,6.53623107 12.0816432,6.69474706 12.0816432,7.29167088 C12.0816432,7.99282851 11.3118799,8.10498522 11.3118799,8.10498522 L9.62852622,8.10498522 C9.62305898,8.10476221 9.57450387,8.10476221 9.48286089,8.10498522 C9.48286089,8.10498522 9.25085992,8.10498522 8.78685799,8.10498522 Z" transform="rotate(90 10.05 9.993)"/>
  </g>
</svg>
