<svg width="13" height="13" viewBox="0 0 13 13" fill="none" xmlns="http://www.w3.org/2000/svg">
<path fill-rule="evenodd" clip-rule="evenodd" d="M0 1.25C0 0.559643 0.559644 0 1.25 0H4.25C4.94036 0 5.5 0.559644 5.5 1.25V2.84158L7.21481 1.47506C7.75471 1.04483 8.54116 1.13372 8.97139 1.67362L10.9531 4.16038C11.3833 4.70028 11.2944 5.48672 10.7545 5.91696L9.39541 7H11.25C11.9404 7 12.5 7.55964 12.5 8.25V11.25C12.5 11.9404 11.9404 12.5 11.25 12.5H1.25C0.559645 12.5 0 11.9404 0 11.25V1.25ZM4 1.5V4.03691L1.5 6.02912V1.5H4ZM1.5 8.5H4.25V11H1.5V8.5ZM5.25 11H11V8.5H5.25V11ZM6.98851 7L9.62417 4.89968L7.95411 2.80395L2.68856 7H6.98851Z" fill="#000000" fill-opacity="0.3"/>
</svg>
