<?xml version="1.0" encoding="UTF-8"?>
<svg width="16px" height="16px" viewBox="0 0 16 16" version="1.1" xmlns="http://www.w3.org/2000/svg" xmlns:xlink="http://www.w3.org/1999/xlink">
    <title>Icons/search/relationship</title>
    <g id="Icons/search/relationship" stroke="none" stroke-width="1" fill="none" fill-rule="evenodd" opacity="0.7">
        <g id="Group-31-Copy-3" transform="translate(1.000000, 4.000000)" fill="#000000">
            <path d="M1.93223478,5.88360633 C1.86434798,6.2349891 1.52446284,6.46480798 1.17308007,6.39692118 C0.821697307,6.32903438 0.591878421,5.98914924 0.659765223,5.63776648 C0.733229502,5.25751463 0.82011328,4.88946903 0.921395887,4.53593201 L2.2745746,4.53574722 C2.13735582,4.95543706 2.02438798,5.40662043 1.93223478,5.88360633 Z M6.156,-9.70601377e-12 C9.396,-9.70601377e-12 11.4642626,1.84592024 12.6038689,5.32872643 C12.7151642,5.66886144 12.529653,6.03481801 12.189518,6.14611332 C11.849383,6.25740862 11.4834264,6.0718974 11.3721311,5.73176239 C10.4054455,2.77742748 8.65844684,1.29909775 6.156,1.296 C4.5916999,1.29406357 3.53742002,2.02722686 2.8387775,3.23981228 L1.3896954,3.23988221 C2.27385646,1.27229545 3.78081203,-9.70601377e-12 6.156,-9.70601377e-12 Z" id="Combined-Shape" fill-rule="nonzero"></path>
            <path d="M9.36154723,5.79809098 L13.6206907,3.39292759 C13.6985972,3.34893337 13.7974172,3.37642465 13.8414114,3.45433108 C13.857745,3.48325527 13.8647925,3.51650137 13.8615988,3.54956491 L13.474404,7.55817055 C13.465802,7.64722621 13.3866349,7.71244681 13.2975792,7.70384484 C13.2816226,7.70230358 13.2659831,7.69840241 13.251172,7.69226887 L9.37922335,6.08882661 C9.29656093,6.05459464 9.25730029,5.95983302 9.29153226,5.87717059 C9.30538091,5.84372924 9.33002993,5.81588898 9.36154723,5.79809098 Z" id="Path-13" transform="translate(11.481750, 5.508000) rotate(9.000000) translate(-11.481750, -5.508000) "></path>
            <rect id="Rectangle" x="0" y="4.5" width="2.7" height="2.7" rx="0.162"></rect>
        </g>
    </g>
</svg>