<?xml version="1.0" encoding="UTF-8"?>
<svg width="128px" height="128px" viewBox="0 0 128 128" version="1.1" xmlns="http://www.w3.org/2000/svg" xmlns:xlink="http://www.w3.org/1999/xlink">
    <!-- Generator: Sketch 52.1 (67048) - http://www.bohemiancoding.com/sketch -->
    <g id="empty-status-cant-be-formatted" stroke="none" stroke-width="1" fill="none" fill-rule="evenodd">
        <path d="M18.1955929,25.9430502 C18.2383976,26.4936736 17.8267292,26.9747422 17.2761057,27.017547 C16.7254822,27.0603517 16.2444136,26.6486833 16.2016089,26.0980598 C16.1797525,25.8169076 16.1687674,25.5339745 16.1687674,25.2497431 C16.1687674,19.6018152 20.5050844,15 25.8848537,15 C31.2646229,15 35.60094,19.6018152 35.60094,25.2497431 C35.60094,25.5339745 35.5899548,25.8169076 35.5680984,26.0980598 C35.5252937,26.6486833 35.0442251,27.0603517 34.4936016,27.017547 C33.9429782,26.9747422 33.5313097,26.4936736 33.5741144,25.9430502 C33.5919624,25.7134605 33.60094,25.4822361 33.60094,25.2497431 C33.60094,20.6806869 30.1326075,17 25.8848537,17 C21.6370999,17 18.1687674,20.6806869 18.1687674,25.2497431 C18.1687674,25.4822361 18.1777449,25.7134605 18.1955929,25.9430502 Z M47.1854551,26 L56.3911557,26 C56.9434405,26 57.3911557,26.4477153 57.3911557,27 C57.3911557,27.5522847 56.9434405,28 56.3911557,28 L46.2223884,28 C45.6701036,28 45.2223884,27.5522847 45.2223884,27 C45.2223884,26.8381644 45.260832,26.6853077 45.3290852,26.5500641 C45.2128121,26.3640404 45.1566728,26.1386763 45.1842653,25.903854 C45.209597,25.6882724 45.2223884,25.4699747 45.2223884,25.2497431 C45.2223884,22.3835175 43.0548308,20.0832477 40.4116642,20.0832477 C37.7684975,20.0832477 35.60094,22.3835175 35.60094,25.2497431 C35.60094,25.4699747 35.6137313,25.6882724 35.639063,25.903854 C35.7035152,26.4523651 35.3111079,26.9492699 34.7625969,27.0137221 C34.2140858,27.0781743 33.717181,26.685767 33.6527288,26.137256 C33.6182979,25.8442367 33.60094,25.5480055 33.60094,25.2497431 C33.60094,21.3046459 36.6364821,18.0832477 40.4116642,18.0832477 C44.1868463,18.0832477 47.2223884,21.3046459 47.2223884,25.2497431 C47.2223884,25.5015128 47.2100201,25.7518352 47.1854551,26 Z M17.1687674,26 C17.7210521,26 18.1687674,26.4477153 18.1687674,27 C18.1687674,27.5522847 17.7210521,28 17.1687674,28 L7,28 C6.44771525,28 6,27.5522847 6,27 C6,26.4477153 6.44771525,26 7,26 L17.1687674,26 Z M20.9193192,112 C20.3670344,112 19.9193192,111.552285 19.9193192,111 C19.9193192,110.447715 20.3670344,110 20.9193192,110 L120.919319,110 C121.471604,110 121.919319,110.447715 121.919319,111 C121.919319,111.552285 121.471604,112 120.919319,112 L20.9193192,112 Z" id="-" fill="#000000" fill-rule="nonzero" opacity="0.100000001"></path>
        <path d="M14.0542068,81.9626587 C13.676397,81.5598209 13.6966861,80.9269811 14.0995238,80.5491713 C14.5023616,80.1713616 15.1352014,80.1916507 15.5130112,80.5944884 C21.0137024,86.4595717 26.1973227,90.3796319 31.0458758,92.3647702 C35.9292535,94.3641667 41.9480302,95.5389443 49.1014237,95.8801788 C49.6530811,95.9064942 50.078955,96.3750338 50.0526395,96.9266913 C50.0263241,97.4783487 49.5577845,97.9042226 49.0061271,97.8779072 C41.6393286,97.5264927 35.4002384,96.3087132 30.2880741,94.2156447 C25.1410853,92.1083181 19.7357949,88.0206223 14.0542068,81.9626587 Z M30.3338583,88.292895 C29.9008656,87.95006 29.8277784,87.3211275 30.1706133,86.8881348 C30.5134482,86.4551421 31.1423808,86.3820549 31.5753735,86.7248898 C32.8977196,87.7718971 34.5826052,88.6526018 36.6333752,89.3613439 C38.6821418,90.0693935 40.6966641,90.4219468 42.6805455,90.4219468 C43.2328302,90.4219468 43.6805455,90.8696621 43.6805455,91.4219468 C43.6805455,91.9742316 43.2328302,92.4219468 42.6805455,92.4219468 C40.4694874,92.4219468 38.2348019,92.0308637 35.9800924,91.2516406 C33.7273862,90.4731098 31.8441932,89.488748 30.3338583,88.292895 Z" id="-" fill="#000000" fill-rule="nonzero" opacity="0.200000003"></path>
        <path d="M60.7454007,71.982413 C59.2556293,73.4780324 58.0038558,74.6552861 57.0503581,75.4293854 C55.9808991,76.297628 54.560971,77.3259067 52.8606304,78.4811116 C52.2827893,78.8736946 51.6790647,79.2764281 51.0545079,79.686625 C50.1968494,80.2499187 49.3291341,80.8082994 48.4748778,81.349107 C49.7082071,82.4457664 50.8498956,83.7430546 51.7841191,85.2464072 C52.1009512,85.7562535 52.3850272,86.249054 52.773978,86.9507291 C53.687869,88.5994069 53.7219103,88.6593231 54.067666,89.1916592 C55.0997552,90.7806956 56.172,91.6731499 58.0230599,92.283314 C60.3902799,93.0636198 61.5739298,94.3621334 63.867249,97.7983853 C64.231936,98.3448231 64.416713,98.6180567 64.6313627,98.9242885 C65.9783535,100.845984 67.019247,101.775529 68.3633431,102.121963 C70.7255074,102.73159 72.4355041,103.798619 73.5556727,105.148553 C74.0226128,104.462048 74.4958255,103.772845 74.9678439,103.093188 C75.3005821,102.614079 75.626739,102.148411 75.9448038,101.698673 C77.2346258,99.8748856 78.3434394,98.3797125 79.2187477,97.3049196 C79.9806917,96.369327 81.0571637,95.1835608 82.3817758,93.8009218 C83.4309754,92.7057602 84.5508214,91.5748819 85.6419655,90.4962395 L63.8627026,68.7550612 C62.7893386,69.8946749 61.7423625,70.9815378 60.7454007,71.982413 Z M67.8635593,104.05851 C62.7462179,102.739542 61.8552851,95.6523832 57.3969395,94.1827806 C52.938594,92.713178 52.1470627,89.6196645 50.0854,86.3020366 C48.0237373,82.9844087 44.949651,81.1878195 44.949651,81.1878195 C44.949651,81.1878195 52.2306671,76.7661381 55.7897787,73.8766653 C58.5173593,71.6622728 63.8097276,65.8762237 63.8097276,65.8762237 L88.4870938,90.5104374 C88.4870938,90.5104374 83.1231828,95.6778268 80.7695347,98.5678763 C78.0145177,101.950767 73.1623478,109.325268 73.153944,109.338041 C73.1543841,109.327007 73.3081374,105.463646 67.8635593,104.05851 Z M89.4801594,86.6618755 L92.9347412,83.2116809 C94.0957311,82.0530669 94.0950497,80.1666945 92.9310597,79.0072811 L87.1920432,73.2800091 L88.8129582,71.8715304 C94.8700235,66.6083006 100.668115,61.4198876 101.735407,60.3465601 C103.874321,58.2173938 103.872656,54.7662441 101.732731,52.6306977 C99.5947276,50.4943787 96.1206825,50.4927119 93.9875411,52.618775 C92.8965752,53.7159481 87.663195,59.5261789 82.4391674,65.4815323 L81.0413481,67.0750361 L79.5316969,65.5870487 L75.3038436,61.4198118 C74.1358666,60.2542251 72.241202,60.2528618 71.0755559,61.4161225 L67.6299919,64.8547098 L89.4801594,86.6618755 Z M91.5309413,72.1568571 C91.0702121,72.5588314 90.6011601,72.967261 90.1247785,73.3812083 L91.4432886,74.6970201 L91.4365989,74.8908862 C91.4724137,74.8597652 91.508218,74.8286483 91.5440108,74.7975362 L94.343824,77.5916198 C96.2913589,79.5314952 96.2913589,82.6874668 94.3475055,84.6273423 L89.4806534,89.4880138 L64.7987344,64.8546696 L69.6627762,60.0004765 C71.6103112,58.056927 74.769073,58.0606011 76.7166079,60.0041505 L79.5088543,62.7563277 C79.4832836,62.785471 79.4577117,62.8146191 79.4321393,62.8437715 L79.5916964,62.8379809 L80.9356533,64.1626519 C81.3572491,63.6820358 81.7731942,63.2087857 82.1824876,62.7439573 L82.3396098,62.7382551 L82.258185,62.6579987 C87.5351304,56.666429 91.6916165,52.0912777 92.5693214,51.2085789 C95.4887831,48.2987657 100.226926,48.2987657 103.146387,51.2159269 C106.065849,54.1294141 106.073212,58.8505125 103.146387,61.7639996 C102.268428,62.6469545 97.6788602,66.7913237 91.6367374,72.0645386 L91.5375428,71.9655469 L91.5309413,72.1568571 Z M95.8119663,58.2240564 C95.0309177,57.4430079 95.0309177,56.1766779 95.8119663,55.3956293 C96.5930149,54.6145807 97.8593449,54.6145807 98.6403934,55.3956293 C99.421442,56.1766779 99.421442,57.4430079 98.6403934,58.2240564 C97.8593449,59.005105 96.5930149,59.005105 95.8119663,58.2240564 Z" id="-" fill="#000000" fill-rule="nonzero" opacity="0.5"></path>
    </g>
</svg>