<?xml version="1.0" encoding="UTF-8"?>
<svg width="48px" height="28px" viewBox="0 0 48 28" version="1.1" xmlns="http://www.w3.org/2000/svg" xmlns:xlink="http://www.w3.org/1999/xlink">
    <title>timeline-vertical</title>
    <g id="Page-1" stroke="none" stroke-width="1" fill="none" fill-rule="evenodd">
        <g id="timeline-vertical">
            <rect id="Rectangle" fill-rule="nonzero" x="0" y="0" width="48" height="28"></rect>
            <path d="M29.3366,4 L18.6634,4 C17.8828,4 17.25,4.6328 17.25,5.41339 L17.25,9.59 C17.25,10.3706 17.8828,11 18.6634,11 L23.2249,11 L23.2249,13.5049 L21.8726,13.5049 L21.7708,13.5117 C21.4047,13.5614 21.1226,13.8752 21.1226,14.2549 C21.1226,14.6691 21.4584,15.0049 21.8726,15.0049 L23.2249,15.0049 L23.2249,17.5059 L21.8725,17.5059 L21.7707,17.5127 C21.4046,17.5624 21.1225,17.8762 21.1225,18.2559 C21.1225,18.6701 21.4583,19.0059 21.8725,19.0059 L23.2249,19.0059 L23.2249,21.5059 L21.8725,21.5059 L21.7707,21.5127 C21.4046,21.5624 21.1225,21.8762 21.1225,22.2559 C21.1225,22.6701 21.4583,23.0059 21.8725,23.0059 L23.2249,23.0059 L23.2249,24.8286 L23.2317,24.9304 C23.2814,25.2965 23.5952,25.5786 23.9749,25.5786 C24.3891,25.5786 24.7249,25.2428 24.7249,24.8286 L24.7249,23.0059 L26.08,23.0059 L26.1818,22.999 C26.5478,22.9494 26.83,22.6356 26.83,22.2559 C26.83,21.8416 26.4942,21.5059 26.08,21.5059 L24.7249,21.5059 L24.7249,19.0059 L26.08,19.0059 L26.1818,18.999 C26.5478,18.9494 26.83,18.6356 26.83,18.2559 C26.83,17.8416 26.4942,17.5059 26.08,17.5059 L24.7249,17.5059 L24.7249,15.0049 L26.0801,15.0049 L26.1818,14.998 C26.5479,14.9484 26.8301,14.6346 26.8301,14.2549 C26.8301,13.8407 26.4943,13.5049 26.0801,13.5049 L24.7249,13.5049 L24.7249,11 L29.3366,11 C30.1172,11 30.75,10.3706 30.75,9.59 L30.75,5.41339 C30.75,4.6328 30.1172,4 29.3366,4 Z M29.25,5.5 L29.25,9.5 L18.75,9.5 L18.75,5.5 L29.25,5.5 Z" id="Shape" fill="#000000"></path>
        </g>
    </g>
</svg>