<svg width="16" height="16" viewBox="0 0 16 16" fill="none" xmlns="http://www.w3.org/2000/svg">
<path d="M8.75 1C8.75 0.585786 8.41421 0.25 8 0.25C7.58579 0.25 7.25 0.585786 7.25 1V1.5C7.25 1.91421 7.58579 2.25 8 2.25C8.41421 2.25 8.75 1.91421 8.75 1.5V1Z" fill="#27292A"/>
<path d="M8.75 14.5C8.75 14.0858 8.41421 13.75 8 13.75C7.58579 13.75 7.25 14.0858 7.25 14.5V15C7.25 15.4142 7.58579 15.75 8 15.75C8.41421 15.75 8.75 15.4142 8.75 15V14.5Z" fill="#27292A"/>
<path d="M13.4801 3.58058C13.773 3.28769 13.773 2.81282 13.4801 2.51992C13.1872 2.22703 12.7123 2.22703 12.4194 2.51992L12.0659 2.87348C11.773 3.16637 11.773 3.64124 12.0659 3.93414C12.3588 4.22703 12.8337 4.22703 13.1265 3.93414L13.4801 3.58058Z" fill="#27292A"/>
<path d="M3.93416 13.1265C4.22705 12.8336 4.22705 12.3588 3.93416 12.0659C3.64126 11.773 3.16639 11.773 2.8735 12.0659L2.51994 12.4194C2.22705 12.7123 2.22705 13.1872 2.51994 13.4801C2.81284 13.773 3.28771 13.773 3.5806 13.4801L3.93416 13.1265Z" fill="#27292A"/>
<path d="M15.75 8C15.75 8.41421 15.4142 8.75 15 8.75H14.5C14.0858 8.75 13.75 8.41421 13.75 8C13.75 7.58579 14.0858 7.25 14.5 7.25H15C15.4142 7.25 15.75 7.58579 15.75 8Z" fill="#27292A"/>
<path d="M2.25 8C2.25 8.41421 1.91421 8.75 1.5 8.75H1C0.585787 8.75 0.25 8.41421 0.25 8C0.25 7.58579 0.585787 7.25 1 7.25H1.5C1.91421 7.25 2.25 7.58579 2.25 8Z" fill="#27292A"/>
<path d="M12.4194 13.4801C12.7123 13.773 13.1872 13.773 13.4801 13.4801C13.773 13.1872 13.773 12.7123 13.4801 12.4194L13.1266 12.0659C12.8337 11.773 12.3588 11.773 12.0659 12.0659C11.773 12.3588 11.773 12.8336 12.0659 13.1265L12.4194 13.4801Z" fill="#27292A"/>
<path d="M2.87351 3.93414C3.1664 4.22703 3.64127 4.22703 3.93417 3.93414C4.22706 3.64125 4.22706 3.16637 3.93417 2.87348L3.58061 2.51993C3.28772 2.22703 2.81285 2.22703 2.51995 2.51993C2.22706 2.81282 2.22706 3.28769 2.51995 3.58059L2.87351 3.93414Z" fill="#27292A"/>
<path fill-rule="evenodd" clip-rule="evenodd" d="M8 4.25C5.92893 4.25 4.25 5.92893 4.25 8C4.25 10.0711 5.92893 11.75 8 11.75C10.0711 11.75 11.75 10.0711 11.75 8C11.75 5.92893 10.0711 4.25 8 4.25ZM5.75 8C5.75 6.75736 6.75736 5.75 8 5.75C9.24264 5.75 10.25 6.75736 10.25 8C10.25 9.24264 9.24264 10.25 8 10.25C6.75736 10.25 5.75 9.24264 5.75 8Z" fill="#27292A"/>
</svg>
