<?xml version="1.0" encoding="UTF-8"?>
<svg width="20px" height="16px" viewBox="0 0 20 16" version="1.1" xmlns="http://www.w3.org/2000/svg" xmlns:xlink="http://www.w3.org/1999/xlink">
    <title>ic_add</title>
    <g id="页面-1" stroke="none" stroke-width="1" fill="none" fill-rule="evenodd">
        <g id="Snowbrush-Boundary-" transform="translate(-657.000000, -202.000000)" fill="#69B0FF">
            <g id="编组-2" transform="translate(651.000000, 202.000000)">
                <path d="M24,0 C25.1045695,-2.02906125e-16 26,0.8954305 26,2 L26,16 L6,16 L6,2 C6,0.8954305 6.8954305,2.02906125e-16 8,0 L24,0 Z M16,4 C15.4477153,4 15,4.44771525 15,5 L15,5 L15,8 L12,8 C11.4477153,8 11,8.44771525 11,9 C11,9.55228475 11.4477153,10 12,10 L12,10 L15,10 L15,13 C15,13.5522847 15.4477153,14 16,14 C16.5522847,14 17,13.5522847 17,13 L17,13 L17,10 L20,10 C20.5522847,10 21,9.55228475 21,9 C21,8.44771525 20.5522847,8 20,8 L20,8 L17,8 L17,5 C17,4.44771525 16.5522847,4 16,4 Z" id="ic_add"></path>
            </g>
        </g>
    </g>
</svg>