<svg width="64" height="64" viewBox="0 0 64 64" fill="none" xmlns="http://www.w3.org/2000/svg">
<rect opacity="0.05" width="64" height="64" fill="black"/>
<path opacity="0.3" fill-rule="evenodd" clip-rule="evenodd" d="M26.9579 17.4488C27.109 17.2898 27.3186 17.1998 27.5379 17.1998H36.462C36.6813 17.1998 36.891 17.2898 37.042 17.4488L40.6093 21.2038C41.2134 21.8397 42.0521 22.1998 42.9293 22.1998H46.6614L39.9805 27.4195C38.3926 24.6587 35.4134 22.7998 32 22.7998C26.919 22.7998 22.8 26.9188 22.8 31.9998C22.8 34.6066 23.8842 36.9602 25.6262 38.6342L18.1152 44.5025H15C14.5582 44.5025 14.2 44.1443 14.2 43.7025V22.9998C14.2 22.558 14.5582 22.1998 15 22.1998H21.0707C21.9478 22.1998 22.7865 21.8397 23.3907 21.2038L26.9579 17.4488ZM12.9958 48.5022C11.1189 47.7176 9.79998 45.8641 9.79998 43.7025V22.9998C9.79998 20.1279 12.1281 17.7998 15 17.7998H20.5555L23.7679 14.4183C24.7496 13.3849 26.1125 12.7998 27.5379 12.7998H36.462C37.8874 12.7998 39.2503 13.3849 40.232 14.4183L43.4445 17.7998H49C49.9001 17.7998 50.7468 18.0285 51.4852 18.431L56.0578 14.8585C56.9855 14.1337 58.344 14.3223 59.092 15.2798C59.84 16.2372 59.6944 17.601 58.7667 18.3258L12.9544 54.1183C12.0267 54.8431 10.6682 54.6545 9.92014 53.697C9.17209 52.7396 9.31774 51.3758 10.2455 50.651L12.9958 48.5022ZM36.444 30.1825L29.1623 35.8716C27.9724 34.998 27.2 33.5891 27.2 31.9998C27.2 29.3488 29.349 27.1998 32 27.1998C34.0078 27.1998 35.7277 28.4326 36.444 30.1825ZM49 44.5025H32.1089L26.4771 48.9025H49C51.8719 48.9025 54.2 46.5744 54.2 43.7025V27.243L49.8 30.6807V43.7025C49.8 44.1443 49.4418 44.5025 49 44.5025Z" fill="black"/>
</svg>
