<svg xmlns="http://www.w3.org/2000/svg" viewBox="0 0 32 32" width="32" height="32"><g class="uk-icon-alternate-dark" version="1.1"><g stroke="none" stroke-width="1" fill="#FFF" fill-rule="evenodd"><path d="M16 0c8.837 0 16 7.163 16 16s-7.163 16-16 16S0 24.837 0 16 7.163 0 16 0Zm0 2.5C8.544 2.5 2.5 8.544 2.5 16S8.544 29.5 16 29.5 29.5 23.456 29.5 16 23.456 2.5 16 2.5Z" fill-rule="nonzero"/><rect x="10.5" y="9.5" width="4" height="13" rx=".5"/><rect x="17.5" y="9.5" width="4" height="13" rx=".5"/></g></g><g class="uk-icon-alternate-default" version="1.1"><g stroke="none" stroke-width="1" fill="#000" fill-rule="evenodd"><path d="M16 0c8.837 0 16 7.163 16 16s-7.163 16-16 16S0 24.837 0 16 7.163 0 16 0Zm0 2.5C8.544 2.5 2.5 8.544 2.5 16S8.544 29.5 16 29.5 29.5 23.456 29.5 16 23.456 2.5 16 2.5Z" fill-rule="nonzero"/><rect x="10.5" y="9.5" width="4" height="13" rx=".5"/><rect x="17.5" y="9.5" width="4" height="13" rx=".5"/></g></g></svg>