<svg width="18" height="18" viewBox="0 0 18 18" fill="none" xmlns="http://www.w3.org/2000/svg">
<path d="M1.99178 8.6134L1.98923 8.62664C1.91958 9.03336 1.53416 9.3077 1.1267 9.2398C0.718123 9.1717 0.442108 8.78528 0.510205 8.3767L0.520912 8.31922C0.526978 8.28889 0.535742 8.24777 0.547739 8.19738C0.571688 8.09679 0.608785 7.95819 0.663488 7.79408C0.772099 7.46825 0.954468 7.02872 1.25096 6.58397C1.85782 5.67369 2.9462 4.75 4.75 4.75C5.78488 4.75 6.69688 5.33992 7.4633 6.02164C8.21364 6.68905 8.94995 7.56149 9.64889 8.38964L9.72931 8.48491C10.4717 9.36414 11.1761 10.1893 11.8857 10.8043C12.6033 11.4262 13.2186 11.7361 13.7692 11.7502C14.4357 11.7673 14.8589 11.5983 15.1407 11.3876C15.4314 11.1702 15.6329 10.862 15.7696 10.5098C15.907 10.156 15.9671 9.78732 15.9908 9.49751C16.0024 9.35493 16.0048 9.23717 16.0044 9.15755C16.0042 9.11788 16.0033 9.08809 16.0026 9.06987L16.0018 9.05158C15.9733 8.63863 16.2848 8.28063 16.6978 8.25182C17.111 8.22299 17.4694 8.53459 17.4982 8.9478L17.4983 8.94929L17.4984 8.95111L17.4987 8.95575L17.4995 8.96897C17.5001 8.9795 17.5007 8.99344 17.5014 9.01057C17.5028 9.04481 17.5041 9.09192 17.5044 9.15006C17.505 9.26608 17.5015 9.42762 17.4858 9.61967C17.4548 9.99913 17.3743 10.5211 17.1679 11.0527C16.9609 11.5859 16.6154 12.1579 16.039 12.5889C15.4536 13.0267 14.6893 13.2743 13.7308 13.2498C12.6564 13.2222 11.7092 12.6363 10.9033 11.9379C10.0895 11.2325 9.3096 10.3129 8.58319 9.45259L8.53941 9.40074C7.81023 8.53701 7.1348 7.73696 6.46638 7.14242C5.77187 6.52466 5.21512 6.25 4.75 6.25C3.5538 6.25 2.89218 6.82631 2.49904 7.41603C2.29553 7.72128 2.1654 8.03175 2.08651 8.26842C2.04747 8.38556 2.02206 8.48133 2.00695 8.54481C1.99941 8.57645 1.99451 8.59978 1.99178 8.6134Z" fill="#27292A"/>
</svg>
