<svg width="18" height="18" viewBox="0 0 18 18" fill="none" xmlns="http://www.w3.org/2000/svg">
<path d="M13.8672 4.80937C14.2689 4.78027 14.6725 4.81926 15.0612 4.92467L15.4538 3.47698C14.9112 3.32979 14.3479 3.27383 13.787 3.31133H12.355V4.81133H13.813C13.8311 4.81133 13.8492 4.81067 13.8672 4.80937Z" fill="#27292A"/>
<path d="M7.49486 4.81134H4.57886V3.31134H7.49486V4.81134Z" fill="#27292A"/>
<path d="M8.4668 4.81134H9.4388V3.31134H8.4668V4.81134Z" fill="#27292A"/>
<path d="M10.4109 4.81134H11.3829V3.31134H10.4109V4.81134Z" fill="#27292A"/>
<path d="M15.6328 5.24833C15.8145 5.39479 15.9678 5.57328 16.0852 5.77496L17.3818 5.02076C17.1722 4.66055 16.8985 4.34187 16.5741 4.08043L15.6328 5.24833Z" fill="#27292A"/>
<path d="M16.3575 7.24286C16.3693 6.96168 16.3575 6.68001 16.3223 6.40084L17.8104 6.21284C17.8562 6.57527 17.8715 6.94089 17.8562 7.30583L16.3575 7.24286Z" fill="#27292A"/>
<path d="M15.6877 12.2788C15.8659 12.1214 16.0152 11.9343 16.1289 11.7257L17.4458 12.444C17.2485 12.8057 16.9896 13.1302 16.6809 13.4029L15.6877 12.2788Z" fill="#27292A"/>
<path d="M15.0919 12.634C14.8716 12.717 14.6384 12.7602 14.4031 12.7614L14.4107 14.2613C14.8242 14.2592 15.234 14.1835 15.6209 14.0376L15.0919 12.634Z" fill="#27292A"/>
<path d="M16.3603 8.99912C16.3586 8.75166 16.3569 8.50112 16.3569 8.24636H17.8569C17.8569 8.47762 17.8586 8.71332 17.8602 8.95205C17.8653 9.68798 17.8707 10.4526 17.8287 11.2042L16.3311 11.1206C16.3701 10.4204 16.3653 9.72284 16.3603 8.99912Z" fill="#27292A"/>
<path d="M9.54695 12.7613H8.57495V14.2613H9.54695V12.7613Z" fill="#27292A"/>
<path d="M6.63086 12.7613H7.60286V14.2613H6.63086V12.7613Z" fill="#27292A"/>
<path d="M13.4348 12.7613H10.5188V14.2613H13.4348V12.7613Z" fill="#27292A"/>
<path d="M1.92868 11.7978C2.046 11.9994 2.19931 12.1779 2.38103 12.3244L1.43976 13.4923C1.11537 13.2308 0.8416 12.9122 0.63208 12.552L1.92868 11.7978Z" fill="#27292A"/>
<path d="M1.69153 11.1718C1.65626 10.8927 1.64448 10.611 1.65629 10.3298L0.157617 10.2669C0.142283 10.6318 0.157568 10.9974 0.203354 11.3599L1.69153 11.1718Z" fill="#27292A"/>
<path d="M2.95272 12.648C3.34138 12.7534 3.74504 12.7924 4.14669 12.7633C4.16472 12.762 4.18279 12.7613 4.20087 12.7613H5.65892V14.2613H4.22692C3.66602 14.2988 3.10273 14.2429 2.56006 14.0957L2.95272 12.648Z" fill="#27292A"/>
<path d="M1.88493 5.847C1.9987 5.63844 2.14801 5.45126 2.32613 5.2939L1.33299 4.16977C1.0243 4.44249 0.765424 4.76697 0.568115 5.12866L1.88493 5.847Z" fill="#27292A"/>
<path d="M3.6109 4.81133C3.37558 4.81253 3.14234 4.85564 2.92212 4.93865L2.39307 3.53504C2.77997 3.38921 3.18977 3.31345 3.60327 3.31135L3.6109 4.81133Z" fill="#27292A"/>
<path d="M1.65688 9.32634C1.65688 9.07158 1.65516 8.82105 1.65345 8.57359C1.64847 7.84984 1.64366 7.15235 1.68275 6.45212L0.185076 6.36853C0.14313 7.12008 0.148455 7.88473 0.15358 8.62065C0.155243 8.85938 0.156884 9.09509 0.156884 9.32634H1.65688Z" fill="#27292A"/>
</svg>
