<svg width="40" height="40" viewBox="0 0 40 40" fill="none" xmlns="http://www.w3.org/2000/svg">
<path fill-rule="evenodd" clip-rule="evenodd" d="M3.51292 9.95868L37.4546 10.0501C37.5407 10.0503 37.6243 10.0614 37.704 10.0821C37.7708 10.0648 37.8405 10.0542 37.9123 10.051C38.464 10.0269 38.9309 10.4547 38.9549 11.0065C39.0293 12.7109 38.9908 15.7768 38.9646 18.5381C38.9614 18.8755 38.9584 19.1934 38.9558 19.4851C38.9372 21.575 38.8076 24.2264 38.6836 26.3445C38.6433 27.032 38.6035 27.6652 38.5682 28.2071C38.8041 28.39 38.9559 28.6762 38.9559 28.9978C38.9559 29.3684 38.7543 29.6919 38.4547 29.8647L38.4449 30.0002L38.4396 30.0731L38.4395 30.0743C38.4395 30.0743 38.4395 30.0744 37.4422 30.0001L38.4395 30.0743C38.3984 30.6251 37.9186 31.0384 37.3679 30.9973C36.8413 30.958 36.4405 30.5178 36.4422 29.9978H2.49946C1.94718 29.9978 1.49946 29.5501 1.49946 28.9978C1.49946 28.9681 1.50075 28.9388 1.50328 28.9098C1.44484 28.7943 1.40799 28.6656 1.39837 28.5284C1.2459 26.3543 1 21.3535 1 18.4739C1 16.3753 1.13025 14.9801 1.25922 13.1197C1.29452 12.6105 1.32982 12.14 1.36249 11.7251C1.14036 11.5411 0.999166 11.2629 1 10.9519C1.001 10.5823 1.20245 10.26 1.50119 10.0877L1.51225 9.96784L1.51823 9.90455C1.51823 9.90455 1.51824 9.90444 2.04169 9.95472L1.51823 9.90455C1.57105 9.3548 2.05955 8.95183 2.60931 9.00465C3.11287 9.05304 3.49317 9.46697 3.51292 9.95868ZM3.35034 11.9583C3.3198 12.3487 3.28712 12.7865 3.25443 13.258C3.12657 15.1024 3 16.4441 3 18.4739C3 21.1293 3.216 25.6851 3.36707 27.9978H36.5776C36.6114 27.4776 36.649 26.877 36.687 26.2276C36.8106 24.1158 36.9378 21.5052 36.9559 19.4673C36.9585 19.1738 36.9615 18.8563 36.9647 18.5209C36.9867 16.1861 37.0169 13.9875 36.9834 12.0488L3.35034 11.9583Z" fill="black"/>
</svg>
