<?xml version="1.0" encoding="UTF-8"?>
<svg width="65px" height="65px" viewBox="0 0 65 65" version="1.1" xmlns="http://www.w3.org/2000/svg" xmlns:xlink="http://www.w3.org/1999/xlink">
    <g id="no-note-icon" stroke="none" stroke-width="1" fill="none" fill-rule="evenodd" opacity="0.3">
        <path d="M48.5776382,13 L45.5,17 L15.5,17 C15.3707284,17 15.0762113,17.2801537 15.0123589,17.4445505 L15,17.5 L15,47.5 C15,47.6292716 15.2801537,47.9237887 15.4445505,47.9876411 L15.5,48 L45.5,48 C45.6292716,48 45.9237887,47.7198463 45.9876411,47.5554495 L46,47.5 L46,38.75 L50,34.4593916 L50,47.5 C50,49.7872961 47.9754142,51.8772332 45.7012629,51.994791 L45.5,52 L15.5,52 C13.2127039,52 11.1227668,49.9754142 11.005209,47.7012629 L11,47.5 L11,17.5 C11,15.2127039 13.0245858,13.1227668 15.2987371,13.005209 L15.5,13 L48.5776382,13 Z M55.5,14 L59.1552763,17.4115913 L41.6552763,36.1615913 L37.1831817,37.564786 L38,32.75 L55.5,14 Z M33,29.75 C33.6903559,29.75 34.25,30.3096441 34.25,31 C34.25,31.6472087 33.7581253,32.1795339 33.1278052,32.2435464 L33,32.25 L20.5,32.25 C19.8096441,32.25 19.25,31.6903559 19.25,31 C19.25,30.3527913 19.7418747,29.8204661 20.3721948,29.7564536 L20.5,29.75 L33,29.75 Z M38,22.75 C38.6903559,22.75 39.25,23.3096441 39.25,24 C39.25,24.6472087 38.7581253,25.1795339 38.1278052,25.2435464 L38,25.25 L20.5,25.25 C19.8096441,25.25 19.25,24.6903559 19.25,24 C19.25,23.3527913 19.7418747,22.8204661 20.3721948,22.7564536 L20.5,22.75 L38,22.75 Z" fill="#000000" fill-rule="nonzero"></path>
    </g>
</svg>