<?xml version="1.0" encoding="UTF-8"?>
<svg width="24px" height="24px" viewBox="0 0 24 24" version="1.1" xmlns="http://www.w3.org/2000/svg" xmlns:xlink="http://www.w3.org/1999/xlink">
    <!-- Generator: Sketch 56 (81588) - https://sketch.com -->
    <title>flag_dark_blue@16</title>
    <desc>Created with Sketch.</desc>
    <g id="flag_dark_blue" stroke="none" stroke-width="1" fill="none" fill-rule="evenodd">
        <g id="Group-5">
            <path d="M24,12 C24,18.627 18.627,24 12,24 C5.373,24 0,18.627 0,12 C0,5.373 5.373,0 12,0 C18.627,0 24,5.373 24,12" id="Fill-1" fill="#297DF8"></path>
            <path d="M14.5547,7.0352 L14.2767,5.6072 C14.1927,5.1752 13.8137,4.8622 13.3727,4.8622 L7.0437,4.8622 C6.8757,4.8622 6.7397,4.9982 6.7397,5.1662 L6.7397,19.0142 C6.7397,19.5972 7.2127,20.0692 7.7957,20.0692 C8.3787,20.0692 8.8517,19.5972 8.8517,19.0142 L8.8517,12.4662 L12.6537,12.4662 L12.9577,14.0282 C13.0267,14.3832 13.3367,14.6392 13.6977,14.6392 L19.1087,14.6392 C19.2767,14.6392 19.4117,14.5032 19.4117,14.3352 L19.4117,7.3392 C19.4117,7.1712 19.2767,7.0352 19.1087,7.0352 L14.5547,7.0352 Z" id="Fill-3" fill="#FFFFFF"></path>
        </g>
    </g>
</svg>