<?xml version="1.0" encoding="UTF-8" standalone="no"?>
<svg width="17px" height="16px" viewBox="0 0 17 16" version="1.1" xmlns="http://www.w3.org/2000/svg" xmlns:xlink="http://www.w3.org/1999/xlink">
    <!-- Generator: sketchtool 44.1 (41455) - http://www.bohemiancoding.com/sketch -->
    <!-- <title>6FA5C50F-1DE5-4F23-A977-812D8ADCCDBF</title> -->
    <desc>Created with sketchtool.</desc>
    <defs></defs>
    <g id="Page-1" stroke="none" stroke-width="1" fill="none" fill-rule="evenodd">
        <g id="information-card-新增comments及其他" transform="translate(-459.000000, -514.000000)">
            <g id="Group-25" transform="translate(459.428571, 514.000000)">
                <rect id="ic_back" x="0" y="0" width="16" height="16"></rect>
                <g id="Group-2-Copy-3" transform="translate(8.000000, 8.000000) rotate(-315.000000) translate(-8.000000, -8.000000) translate(4.000000, 4.000000)" fill="#434B54">
                    <path d="M3.35355339,0.0433726418 C3.35355339,-0.231071185 3.58548698,-0.453551865 3.85355339,-0.453551865 L3.85355339,-0.453551865 C4.12969577,-0.453551865 4.35355339,-0.225080827 4.35355339,0.0433726418 L4.35355339,8.29216432 C4.35355339,8.56660814 4.1216198,8.78908882 3.85355339,8.78908882 L3.85355339,8.78908882 C3.57741102,8.78908882 3.35355339,8.56061778 3.35355339,8.29216432 L3.35355339,0.0433726418 Z" id="Combined-Shape" transform="translate(3.853553, 4.167768) rotate(-315.000000) translate(-3.853553, -4.167768) "></path>
                    <path d="M0.149769472,2.14351156 C0.239358168,2.05475571 0.360871295,2 0.491005182,2 L5.50899482,2 C5.78016949,2 6,2.23193359 6,2.5 C6,2.77614237 5.77211952,3 5.50899482,3 L1,3 L1,7.50899482 C1,7.78016949 0.768066406,8 0.5,8 C0.223857625,8 3.41060513e-13,7.77211952 3.41060513e-13,7.50899482 L3.41060513e-13,2.49100518 C3.41060513e-13,2.35692666 0.0567001018,2.23540009 0.146433225,2.14679097 Z" id="Combined-Shape-Copy-4" transform="translate(3.000000, 5.000000) scale(1, -1) translate(-3.000000, -5.000000) "></path>
                </g>
            </g>
        </g>
    </g>
</svg>