<?xml version="1.0" encoding="UTF-8"?>
<svg width="75px" height="40px" viewBox="0 0 75 40" version="1.1" xmlns="http://www.w3.org/2000/svg" xmlns:xlink="http://www.w3.org/1999/xlink">
    <!-- Generator: Sketch 56 (81588) - https://sketch.com -->
    <title>boundary/5</title>
    <desc>Created with Sketch.</desc>
    <g id="boundary/5" stroke="none" stroke-width="1" fill="none" fill-rule="evenodd" stroke-linejoin="round">
        <path d="M19.5,9.5 C20.5,11.5 21,13.1666667 21,14.5 C21,16.5 19,18 19,20 C19,22 21,23.5 21,25 C21,26 20.3333333,28.0833333 19,31.25 C21.3333333,30.0833333 23.3333333,29.5 25,29.5 C27.5,29.5 29.75,31.5 31.25,31.5 C32.75,31.5 35,29.5 37.5,29.5 C40,29.5 41,31.5 44,31.5 C47,31.5 48,29.5 50.5,29.5 C53,29.5 55.5,30.75 56,31.25 C56.5,31.75 54.5,28 54.5,25.5 C54.5,23 56,22 56,20.5 C56,19 54,17.5 54,15.5 C54,14.1666667 54.8333333,12.5 56.5,10.5 C54.8333333,8.83333333 53,8 51,8 C48,8 47,10 44.5,10 C42,10 41,8 38,8 C35,8 33.25,10 31.25,10 C29.25,10 28.5,8 25.5,8 C23.5,8 21.5,8.5 19.5,9.5 Z" id="Path-50" stroke="#000000" stroke-width="2"></path>
    </g>
</svg>