<svg width="45" height="22" viewBox="0 0 45 22" fill="none" xmlns="http://www.w3.org/2000/svg">
<path fill-rule="evenodd" clip-rule="evenodd" d="M11.0278 11.8195L11.0138 11.2024C11 10.5854 11 10.5854 11 10.5854C12.5447 10.3782 14.1653 10.3329 15.727 10.333C17.3797 10.3331 18.233 10.5222 19.165 10.5846C20.7104 10.6881 21.348 10.5847 23.1735 10.5846C24.9979 10.5844 26.8162 10.3396 27.8208 10.1738C29.6617 9.86993 30.8733 10.0275 32.0017 10.1724C32.9745 10.2973 33.9892 10.5846 35 10.5846L35 11.8206C34.3111 11.8206 33.9993 11.6344 32.8599 11.5044C31.7205 11.3744 31.1608 11.2255 29.4709 11.5044C28.4528 11.6724 24.6141 12 23.4646 12C21.7338 12 20.8614 11.8142 18.8597 11.6344C16.9743 11.4651 15.822 11.6528 14.5471 11.8142C12.9924 12.011 12.211 11.6608 11.0278 11.8195Z" fill="#27292A"/>
</svg>
