<svg width="63" height="112" viewBox="0 0 63 112" fill="none" xmlns="http://www.w3.org/2000/svg">
<g clip-path="url(#clip0_5462_25120)">
<rect width="63" height="112" fill="#0C1548"/>
<path d="M45.3004 32.0778L59.1079 55.9931L45.3004 79.9083L17.6854 79.9083L3.87792 55.9931L17.6854 32.0778L45.3004 32.0778Z" fill="url(#paint0_radial_5462_25120)"/>
<path d="M31.4929 36.4277L48.4366 46.2102V65.7752L31.4929 75.5577L14.5491 65.7752V46.2102L31.4929 36.4277Z" fill="url(#paint1_radial_5462_25120)"/>
<path d="M37.9503 44.8081L44.4078 55.9928L37.9503 67.1775L25.0353 67.1775L18.5778 55.9928L25.0353 44.8081L37.9503 44.8081Z" fill="#112385"/>
<path d="M11.5333 55.6649C11.5333 55.9022 11.504 56.1141 11.4454 56.3008C11.3867 56.4874 11.3067 56.6527 11.2054 56.7966C11.1068 56.9379 10.9921 57.0592 10.8615 57.1606C10.7309 57.2619 10.5936 57.3445 10.4496 57.4085C10.3083 57.4725 10.1643 57.5191 10.0177 57.5485C9.87374 57.5778 9.73777 57.5925 9.6098 57.5925H7.25838V56.5527H9.6098C9.74311 56.542 9.86308 56.5154 9.96972 56.4727C10.079 56.4274 10.1723 56.3674 10.2496 56.2928C10.327 56.2181 10.3869 56.1288 10.4296 56.0248C10.4723 55.9182 10.4936 55.7982 10.4936 55.6649V55.193C10.4803 55.0624 10.4523 54.9424 10.4096 54.8331C10.367 54.7238 10.3083 54.6305 10.2337 54.5532C10.1617 54.4759 10.0737 54.4159 9.96972 54.3732C9.86574 54.3279 9.74577 54.3053 9.6098 54.3053H7.26638C7.12774 54.3053 7.02244 54.3412 6.95045 54.4132C6.87847 54.4852 6.84248 54.5892 6.84248 54.7252V59.0001H5.80273V54.7252C5.80273 54.4585 5.85072 54.2319 5.9467 54.0453C6.04534 53.8587 6.16665 53.7081 6.31061 53.5934C6.45724 53.4788 6.61587 53.3961 6.78649 53.3455C6.95712 53.2922 7.11441 53.2655 7.25838 53.2655H9.6098C9.84441 53.2655 10.055 53.2962 10.2417 53.3575C10.4283 53.4161 10.5922 53.4961 10.7335 53.5974C10.8775 53.6961 10.9988 53.8107 11.0974 53.9413C11.1988 54.072 11.2814 54.2093 11.3454 54.3532C11.412 54.4945 11.46 54.6385 11.4893 54.7851C11.5187 54.9291 11.5333 55.0651 11.5333 55.193V55.6649Z" fill="white"/>
<path d="M13.4127 53.7894H12.373V52.8496H13.4127V53.7894ZM13.4127 59.0001H12.373V54.6772H13.4127V59.0001Z" fill="white"/>
<path d="M18.3914 55.7169H16.5758V59.0001H15.5241V55.7169H14.1724V54.6772H15.5241V53.2655H16.5758V54.6772H18.3914V55.7169Z" fill="white"/>
<path d="M23.2941 59.0001H20.4747C20.3308 59.0001 20.1735 58.9748 20.0029 58.9241C19.8322 58.8735 19.6736 58.7908 19.527 58.6762C19.383 58.5589 19.2617 58.4083 19.1631 58.2243C19.0671 58.0377 19.0191 57.8097 19.0191 57.5405V56.1328C19.0191 56.0342 19.0298 55.9302 19.0511 55.8209C19.0751 55.7116 19.1111 55.6036 19.1591 55.497C19.2071 55.3877 19.2684 55.2837 19.343 55.185C19.4203 55.0864 19.5123 54.9998 19.619 54.9251C19.7283 54.8505 19.8536 54.7905 19.9949 54.7451C20.1362 54.6998 20.2961 54.6772 20.4747 54.6772H23.2941V55.7169H20.4747C20.3388 55.7169 20.2348 55.7516 20.1628 55.8209C20.0935 55.8902 20.0588 55.9968 20.0588 56.1408V57.5405C20.0588 57.6764 20.0948 57.7804 20.1668 57.8524C20.2388 57.9244 20.3441 57.9604 20.4827 57.9604H23.2941V59.0001Z" fill="white"/>
<path d="M29.0085 59.0001H27.9688V56.1328C27.9688 55.9968 27.9341 55.8942 27.8648 55.8249C27.7955 55.7529 27.6915 55.7169 27.5529 55.7169H25.6773V54.6772H27.5529C27.6515 54.6772 27.7555 54.6892 27.8648 54.7132C27.9741 54.7345 28.0821 54.7691 28.1887 54.8171C28.298 54.8651 28.402 54.9278 28.5006 55.0051C28.5993 55.0797 28.6859 55.1717 28.7606 55.281C28.8352 55.3877 28.8952 55.5116 28.9405 55.6529C28.9859 55.7942 29.0085 55.9542 29.0085 56.1328V59.0001ZM25.2574 59.0001H24.2177V52.8496H25.2574V59.0001Z" fill="white"/>
<path d="M39.5097 59.0001H38.4619V55.5849L36.6184 58.8281C36.5731 58.9108 36.5091 58.9734 36.4264 59.0161C36.3465 59.0588 36.2598 59.0801 36.1665 59.0801C36.0759 59.0801 35.9905 59.0588 35.9106 59.0161C35.8332 58.9734 35.7719 58.9108 35.7266 58.8281L33.8751 55.5849V59.0001H32.8353V53.7094C32.8353 53.5894 32.87 53.4828 32.9393 53.3895C33.0113 53.2962 33.1046 53.2335 33.2192 53.2015C33.2752 53.1882 33.3312 53.1842 33.3872 53.1895C33.4432 53.1922 33.4965 53.2042 33.5471 53.2255C33.6005 53.2442 33.6484 53.2722 33.6911 53.3095C33.7338 53.3442 33.7698 53.3868 33.7991 53.4375L36.1665 57.5525L38.5339 53.4375C38.5952 53.3362 38.6792 53.2642 38.7859 53.2215C38.8952 53.1789 39.0085 53.1722 39.1258 53.2015C39.2378 53.2335 39.3297 53.2962 39.4017 53.3895C39.4737 53.4828 39.5097 53.5894 39.5097 53.7094V59.0001Z" fill="white"/>
<path d="M45.3241 57.5405C45.3241 57.7191 45.3015 57.8804 45.2561 58.0243C45.2108 58.1656 45.1508 58.2909 45.0762 58.4003C45.0015 58.5069 44.9149 58.5989 44.8162 58.6762C44.7176 58.7508 44.6136 58.8122 44.5043 58.8601C44.3977 58.9081 44.2884 58.9441 44.1764 58.9681C44.0671 58.9894 43.9631 59.0001 43.8645 59.0001H41.9889C41.845 59.0001 41.6877 58.9748 41.5171 58.9241C41.3464 58.8735 41.1878 58.7908 41.0412 58.6762C40.8972 58.5589 40.7759 58.4083 40.6773 58.2243C40.5813 58.0377 40.5333 57.8097 40.5333 57.5405V56.1328C40.5333 55.8662 40.5813 55.6409 40.6773 55.457C40.7759 55.2704 40.8972 55.1197 41.0412 55.0051C41.1878 54.8878 41.3464 54.8038 41.5171 54.7531C41.6877 54.7025 41.845 54.6772 41.9889 54.6772H43.8645C44.1311 54.6772 44.3577 54.7252 44.5443 54.8211C44.7309 54.9171 44.8816 55.0384 44.9962 55.185C45.1108 55.329 45.1935 55.4863 45.2441 55.6569C45.2975 55.8275 45.3241 55.9862 45.3241 56.1328V57.5405ZM44.2844 56.1408C44.2844 55.9968 44.2484 55.8902 44.1764 55.8209C44.1044 55.7516 44.0004 55.7169 43.8645 55.7169H41.9969C41.8583 55.7169 41.753 55.7529 41.681 55.8249C41.609 55.8942 41.573 55.9968 41.573 56.1328V57.5405C41.573 57.6764 41.609 57.7804 41.681 57.8524C41.753 57.9244 41.8583 57.9604 41.9969 57.9604H43.8645C44.0058 57.9604 44.1111 57.9244 44.1804 57.8524C44.2497 57.7804 44.2844 57.6764 44.2844 57.5405V56.1408Z" fill="white"/>
<path d="M51.0026 57.5405C51.0026 57.7191 50.9799 57.8804 50.9346 58.0243C50.8893 58.1656 50.8293 58.2909 50.7547 58.4003C50.68 58.5069 50.5934 58.5989 50.4947 58.6762C50.3961 58.7508 50.2921 58.8122 50.1828 58.8601C50.0762 58.9081 49.9669 58.9441 49.8549 58.9681C49.7456 58.9894 49.6416 59.0001 49.543 59.0001H47.6674C47.4888 59.0001 47.3288 58.9774 47.1875 58.9321C47.0462 58.8868 46.9209 58.8268 46.8116 58.7522C46.705 58.6749 46.613 58.5869 46.5357 58.4882C46.461 58.3896 46.3997 58.2869 46.3517 58.1803C46.3037 58.071 46.2678 57.9617 46.2438 57.8524C46.2224 57.7404 46.2118 57.6364 46.2118 57.5405V56.1328C46.2118 55.8662 46.2598 55.6409 46.3557 55.457C46.4544 55.2704 46.5757 55.1197 46.7197 55.0051C46.8663 54.8878 47.0249 54.8038 47.1955 54.7531C47.3662 54.7025 47.5235 54.6772 47.6674 54.6772H49.543V55.7169H47.6754C47.5368 55.7169 47.4315 55.7529 47.3595 55.8249C47.2875 55.8942 47.2515 55.9968 47.2515 56.1328V57.5325C47.2515 57.6738 47.2862 57.7804 47.3555 57.8524C47.4275 57.9244 47.5315 57.9604 47.6674 57.9604H49.543C49.6843 57.9604 49.7896 57.9244 49.8589 57.8524C49.9282 57.7804 49.9629 57.6764 49.9629 57.5405V52.8496H51.0026V57.5405Z" fill="white"/>
<path d="M56.6931 56.1088C56.6931 56.2528 56.6678 56.4087 56.6171 56.5767C56.5664 56.742 56.4838 56.8966 56.3692 57.0406C56.2572 57.1819 56.1092 57.3005 55.9253 57.3965C55.744 57.4925 55.5227 57.5405 55.2614 57.5405H53.3859V56.5527H55.2614C55.4027 56.5527 55.512 56.51 55.5893 56.4247C55.6667 56.3368 55.7053 56.2288 55.7053 56.1008C55.7053 55.9648 55.6613 55.8582 55.5734 55.7809C55.488 55.7036 55.3841 55.6649 55.2614 55.6649H53.3859C53.2446 55.6649 53.1353 55.7089 53.058 55.7969C52.9806 55.8822 52.942 55.9888 52.942 56.1168V57.5685C52.942 57.7071 52.9846 57.8151 53.07 57.8924C53.1579 57.9697 53.2659 58.0083 53.3939 58.0083H55.2614V59.0001H53.3859C53.2419 59.0001 53.086 58.9748 52.918 58.9241C52.7527 58.8735 52.5981 58.7922 52.4541 58.6802C52.3128 58.5655 52.1942 58.4176 52.0982 58.2363C52.0022 58.0523 51.9542 57.8297 51.9542 57.5685V56.1088C51.9542 55.9648 51.9796 55.8102 52.0302 55.6449C52.0809 55.477 52.1622 55.3223 52.2742 55.181C52.3888 55.0371 52.5368 54.9171 52.718 54.8211C52.902 54.7252 53.1246 54.6772 53.3859 54.6772H55.2614C55.4054 54.6772 55.56 54.7025 55.7253 54.7531C55.8933 54.8038 56.0479 54.8864 56.1892 55.0011C56.3332 55.1131 56.4531 55.261 56.5491 55.445C56.6451 55.6263 56.6931 55.8475 56.6931 56.1088Z" fill="white"/>
</g>
<defs>
<radialGradient id="paint0_radial_5462_25120" cx="0" cy="0" r="1" gradientUnits="userSpaceOnUse" gradientTransform="translate(31.4929 55.9931) rotate(120) scale(27.615)">
<stop offset="0.445656"/>
<stop offset="1" stop-color="#2C47D8"/>
</radialGradient>
<radialGradient id="paint1_radial_5462_25120" cx="0" cy="0" r="1" gradientUnits="userSpaceOnUse" gradientTransform="translate(31.4929 55.9927) rotate(90) scale(19.565)">
<stop offset="0.445656"/>
<stop offset="1" stop-color="#2C47D8"/>
</radialGradient>
<clipPath id="clip0_5462_25120">
<rect width="63" height="112" fill="white"/>
</clipPath>
</defs>
</svg>
