<svg width="22" height="18" viewBox="0 0 22 18" fill="none" xmlns="http://www.w3.org/2000/svg">
<path fill-rule="evenodd" clip-rule="evenodd" d="M7.58399 5.37597C7.23934 5.60573 7.14621 6.07138 7.37597 6.41603L8.59862 8.25H6.42465L5.14313 6.11413C4.93002 5.75895 4.46932 5.64378 4.11414 5.85689C3.75895 6.07 3.64378 6.53069 3.85689 6.88588L4.67536 8.25H1C0.585787 8.25 0.25 8.58579 0.25 9C0.25 9.41421 0.585787 9.75 1 9.75H3.67536L2.85689 11.1141C2.64378 11.4693 2.75895 11.93 3.11414 12.1431C3.46932 12.3562 3.93002 12.2411 4.14313 11.8859L5.42465 9.75H5.9873C5.99624 9.75016 6.00518 9.75016 6.01413 9.75H7.59862L6.37597 11.584C6.14621 11.9286 6.23934 12.3943 6.58399 12.624C6.92863 12.8538 7.39429 12.7607 7.62405 12.416L9.4014 9.75H9.98953C9.99697 9.75011 10.0044 9.75011 10.0119 9.75H11.75V10.6708C11.75 11.2668 12.2332 11.75 12.8292 11.75H19.1708C19.7668 11.75 20.25 11.2668 20.25 10.6708V7.3292C20.25 6.73317 19.7668 6.25 19.1708 6.25H12.8292C12.2332 6.25 11.75 6.73317 11.75 7.3292V8.25H10.4014L8.62405 5.58398C8.39429 5.23933 7.92863 5.1462 7.58399 5.37597ZM18.75 10.25V7.75H13.25V10.25H18.75Z" fill="#27292A"/>
</svg>
