<svg width="22" height="18" viewBox="0 0 22 18" fill="none" xmlns="http://www.w3.org/2000/svg">
<path fill-rule="evenodd" clip-rule="evenodd" d="M7.84567 6.20327H14.1521C14.1665 6.18392 14.1815 6.16415 14.1973 6.14398C14.4073 5.87465 14.7341 5.53983 15.2249 5.21441C16.2111 4.56044 17.8107 3.97559 20.36 3.97559C20.7742 3.97559 21.11 4.31137 21.11 4.72559C21.11 5.1398 20.7742 5.47559 20.36 5.47559C18.3406 5.47559 17.0964 5.87772 16.351 6.28558C16.7845 6.45766 17.0909 6.8808 17.0909 7.37552V10.9865C17.0909 11.4777 16.7888 11.8983 16.3603 12.0727C17.1067 12.4788 18.349 12.8777 20.36 12.8777C20.7742 12.8777 21.11 13.2134 21.11 13.6277C21.11 14.0419 20.7742 14.3777 20.36 14.3777C17.8107 14.3777 16.2111 13.7928 15.2249 13.1388C14.7341 12.8134 14.4073 12.4786 14.1973 12.2093C14.1839 12.1922 14.171 12.1753 14.1587 12.1588H7.8391C7.82668 12.1753 7.81379 12.1922 7.80042 12.2094C7.59034 12.4787 7.26355 12.8135 6.77281 13.1389C5.78662 13.7929 4.18695 14.3778 1.6377 14.3778C1.22348 14.3778 0.887695 14.042 0.887695 13.6278C0.887695 13.2135 1.22348 12.8778 1.6377 12.8778C3.64532 12.8778 4.88679 12.4803 5.63358 12.0749C5.20225 11.9018 4.89767 11.4797 4.89767 10.9865V7.37551C4.89767 6.87876 5.20666 6.45417 5.64293 6.28346C4.89717 5.8763 3.65373 5.47549 1.6377 5.47549C1.22348 5.47549 0.887695 5.13971 0.887695 4.72549C0.887695 4.31128 1.22348 3.97549 1.6377 3.97549C4.18695 3.97549 5.78662 4.56034 6.77281 5.21432C7.26355 5.53974 7.59034 5.87456 7.80042 6.14389C7.81617 6.16409 7.83125 6.18389 7.84567 6.20327ZM7.54549 10.6588C7.46795 10.6466 7.39015 10.647 7.31469 10.6588H6.39767V7.70327H7.41365C7.42464 7.70351 7.43566 7.70351 7.44669 7.70327H14.5473C14.5608 7.70363 14.5743 7.70363 14.5877 7.70327H15.5909V10.6588H14.6836C14.6077 10.6469 14.5295 10.6465 14.4516 10.6588H7.54549Z" fill="#27292A"/>
</svg>
