<svg width="18" height="18" viewBox="0 0 18 18" fill="none" xmlns="http://www.w3.org/2000/svg">
<path fill-rule="evenodd" clip-rule="evenodd" d="M7.60453 3.89999C8.04817 4.15742 8.5511 4.36135 9 4.36135C10.0513 4.36135 10.9348 3.80801 11.3086 3.45498C11.5976 3.18199 12.0495 3.18199 12.3385 3.45498C12.8068 3.89727 13.3206 4.36135 14.1765 4.36135C14.7212 4.36135 15.0139 4.30851 15.2591 4.2016C15.5167 4.08932 15.7917 3.88754 16.2497 3.45498C16.5235 3.19644 16.9465 3.18095 17.2384 3.41877C17.5303 3.6566 17.6007 4.074 17.4028 4.39436C16.6663 5.58683 16.602 6.50403 16.7342 7.13897C16.8714 7.79729 17.236 8.23158 17.4638 8.41088C17.6273 8.53955 17.73 8.73035 17.7474 8.93767C17.7647 9.145 17.6952 9.35021 17.5554 9.50428C17.2384 9.85356 16.8054 10.4351 16.6418 11.1303C16.4896 11.7774 16.5519 12.5886 17.337 13.5155C17.5828 13.8056 17.5725 14.2338 17.3131 14.5119C17.0536 14.7899 16.6272 14.8298 16.3207 14.6047C16.0844 14.4311 15.6891 14.2435 15.2334 14.0964C14.78 13.9499 14.3417 13.8677 14.0425 13.8612C13.389 13.847 12.8841 14.1389 12.2757 14.5986C12.0269 14.7866 11.6878 14.801 11.4239 14.6349C10.78 14.2295 9.86197 13.8613 9.11765 13.8613C8.37333 13.8613 7.45528 14.2295 6.81137 14.6349C6.52181 14.8172 6.14556 14.7804 5.8968 14.5455C5.36889 14.0469 4.63414 13.8613 4.05882 13.8613C3.39467 13.8613 2.68288 13.863 1.83517 14.5747C1.54647 14.817 1.12273 14.8074 0.845265 14.5523C0.567803 14.2971 0.522835 13.8757 0.740216 13.5677C1.12689 13.0199 1.39706 12.2529 1.39706 11.5002C1.39706 10.7653 1.14377 10.0816 0.528102 9.58317C0.355568 9.4435 0.25377 9.23458 0.250103 9.01263C0.246436 8.79068 0.341277 8.5785 0.509102 8.43321C1.06293 7.95374 1.3206 7.39341 1.35396 6.7529C1.38867 6.08623 1.18127 5.27891 0.6901 4.35115C0.523392 4.03626 0.60124 3.64754 0.876356 3.42113C1.15147 3.19472 1.54791 3.19312 1.82484 3.4173C2.58718 4.03444 3.20695 4.36135 4.05882 4.36135C4.54186 4.36135 4.82508 4.27273 5.04986 4.14889C5.30381 4.00898 5.52822 3.80308 5.8968 3.45498C6.07971 3.28222 6.28738 3.25327 6.39102 3.25031C6.49615 3.2473 6.57749 3.26729 6.61469 3.27764C6.69142 3.29899 6.74744 3.32809 6.76373 3.33657C6.80555 3.35835 6.83833 3.38042 6.8485 3.38726L6.84874 3.38743C6.87549 3.40543 6.90378 3.42632 6.92195 3.43978C6.93488 3.44935 6.948 3.45913 6.96171 3.46934C6.99632 3.49513 7.03463 3.52367 7.08282 3.5586C7.21311 3.65304 7.39247 3.77694 7.60453 3.89999ZM6.47365 4.96179C6.26144 5.14524 6.03194 5.32041 5.77367 5.4627C5.29257 5.72775 4.75226 5.86135 4.05882 5.86135C3.58206 5.86135 3.15503 5.79065 2.76295 5.66745C2.83992 6.06053 2.87179 6.44942 2.85193 6.83091C2.81044 7.62764 2.54417 8.35908 2.04604 8.98951C2.65304 9.73916 2.89706 10.6356 2.89706 11.5002C2.89706 11.8246 2.86311 12.1476 2.80059 12.4622C3.28604 12.3613 3.71447 12.3613 4.05537 12.3613H4.05882C4.76074 12.3613 5.68176 12.5436 6.48217 13.0956C7.22406 12.7064 8.19125 12.3613 9.11765 12.3613C10.0546 12.3613 11.0332 12.7143 11.7783 13.1088C12.3745 12.7061 13.1165 12.3407 14.0751 12.3615C14.4099 12.3688 14.7897 12.428 15.1682 12.5201C15.0314 11.911 15.055 11.3254 15.1817 10.7868C15.3474 10.0827 15.6813 9.48886 16.0008 9.04437C15.6884 8.64411 15.4036 8.10639 15.2658 7.44484C15.1604 6.93913 15.1443 6.37749 15.2553 5.76821C14.9202 5.839 14.5677 5.86135 14.1765 5.86135C13.0867 5.86135 12.3145 5.40079 11.7925 4.97792C11.134 5.4231 10.1521 5.86135 9 5.86135C8.15478 5.86135 7.37362 5.50024 6.85169 5.19739C6.71221 5.11645 6.58519 5.03605 6.47365 4.96179Z" fill="#27292A"/>
</svg>
