<svg width="18" height="18" viewBox="0 0 18 18" fill="none" xmlns="http://www.w3.org/2000/svg">
<path fill-rule="evenodd" clip-rule="evenodd" d="M7.34495 5.25C7.23732 5.25 7.13167 5.27895 7.03907 5.33383L2.54052 7.99963C1.9885 8.32676 1.64999 8.92083 1.64999 9.5625C1.64999 10.1684 1.99711 10.7208 2.54307 10.9837L7.02278 13.1406C7.10398 13.1797 7.19295 13.2 7.28307 13.2H14.175C15.3309 13.2 16.35 12.2522 16.35 11.25V7.2C16.35 6.19781 15.3309 5.25 14.175 5.25H7.34495ZM6.27437 4.04339C6.59846 3.85134 6.96824 3.75 7.34495 3.75H14.175C16.0014 3.75 17.85 5.21985 17.85 7.2V11.25C17.85 13.2302 16.0014 14.7 14.175 14.7H7.28307C6.96764 14.7 6.65626 14.6289 6.37206 14.4921L1.89235 12.3352C0.827201 11.8224 0.149994 10.7447 0.149994 9.5625C0.149994 8.39101 0.767999 7.30642 1.77582 6.7092L6.27437 4.04339Z" fill="#27292A"/>
</svg>
