<svg width="66" height="40" viewBox="0 0 66 40" fill="none" xmlns="http://www.w3.org/2000/svg">
<path fill-rule="evenodd" clip-rule="evenodd" d="M17.2375 8.69678L17.5095 8.70002L17.5156 8.70011L47.4711 9.05685C47.7396 8.92248 48.0338 8.88959 48.3191 8.94113C48.6727 9.00501 48.9783 9.1901 49.2164 9.3742C49.6961 9.74502 50.1558 10.3137 50.5349 10.8478C50.9242 11.3964 51.272 11.9716 51.5203 12.4049C51.6451 12.6227 51.7463 12.8072 51.8166 12.938C51.8518 13.0034 51.8793 13.0555 51.8983 13.0917L51.9203 13.1339L51.9262 13.1455L51.928 13.1488L51.9285 13.1498C51.9285 13.1499 51.9288 13.1504 51.546 13.3465L51.9285 13.1498L52.0108 13.3105L52.0163 13.4902C52.0518 14.6282 52.0014 15.9612 51.9044 17.3308C51.9693 18.6951 51.9996 20.1257 52.0116 21.429C52.0243 22.81 52.0164 24.065 52.0053 24.9746C51.9998 25.4295 51.9935 25.7984 51.9885 26.0539C51.986 26.1816 51.9839 26.281 51.9824 26.3486L51.9813 26.3939C52.0901 27.3403 51.912 28.1381 51.5481 28.7914C51.182 29.4485 50.6545 29.9124 50.145 30.2353C49.7017 30.5162 49.2541 30.7019 48.8945 30.8221L48.7533 31.0112L48.3945 31.0412C43.4797 31.4523 35.9181 31.7668 29.5991 31.9784C26.4366 32.0844 23.5803 32.1647 21.5147 32.2185C20.4818 32.2455 19.6465 32.2658 19.0693 32.2793C18.7807 32.2861 18.5566 32.2912 18.4047 32.2947L18.2252 32.2986C17.8965 32.3406 17.5988 32.2477 17.3716 32.1335C17.1214 32.0078 16.8946 31.8263 16.6971 31.6307C16.534 31.4692 16.3757 31.283 16.2257 31.0791C15.9133 30.8139 15.5928 30.5219 15.2853 30.2174C14.8337 29.7702 14.3904 29.2768 14.0283 28.777C13.6737 28.2875 13.3597 27.7415 13.2234 27.1928L13.6716 26.9512C13.5299 24.0567 13.415 21.0553 13.3342 18.7282C13.291 17.4852 13.2575 16.434 13.2348 15.6934C13.2234 15.3231 13.2148 15.0305 13.2089 14.8303L13.2007 14.5441C13.1437 13.8092 13.4252 13.0811 13.767 12.4702C14.1223 11.8349 14.6019 11.2226 15.066 10.6997C15.5333 10.1731 16.0035 9.71631 16.3553 9.39224C16.5318 9.22967 16.6799 9.09919 16.7847 9.0086C16.8372 8.96328 16.879 8.92786 16.9082 8.90332L16.9423 8.87477L16.9519 8.86682L16.9548 8.86446L16.9557 8.8637C16.9557 8.86366 16.9561 8.86334 16.9796 8.89186C16.9796 8.89182 16.9796 8.89189 16.9796 8.89186L16.9557 8.8637L16.9857 8.88689C16.9923 8.88149 16.9983 8.87672 17.0035 8.87261L17.0126 8.86555L17.0165 8.86258L17.0183 8.86124L17.0191 8.8606C17.0193 8.86051 17.0198 8.86011 17.1231 8.9977L17.02 8.85999L17.2375 8.69678ZM15.1922 14.1809L14.8095 14.7353L15.0484 20.9464C15.0563 20.4135 15.0657 19.8845 15.0757 19.3726C15.1019 18.0413 15.133 16.8171 15.1576 15.9257C15.1698 15.4799 15.1805 15.1173 15.1881 14.866L15.1993 14.5043C15.1948 14.395 15.1925 14.2872 15.1922 14.1809ZM17.7746 11.3037L16.7986 14.6194L16.6787 26.0338L18.0385 29.2003L47.5775 29.4379L48.0661 28.8628L49.2157 26.2751L49.5739 22.4584L49.1915 20.5365L49.9178 13.7203L47.356 10.9286L46.671 10.9406C46.0012 10.9522 45.0369 10.9687 43.8585 10.9884C41.5019 11.0278 38.2894 11.0798 34.8657 11.1302C28.5397 11.2234 21.4806 11.3112 17.7746 11.3037Z" fill="#27292A"/>
<path fill-rule="evenodd" clip-rule="evenodd" d="M22.2053 8.93994L22.4484 11.9301L18.6286 12.2406L16.6379 14.49V20.7869H13.6379V13.3532L17.1822 9.3483L22.2053 8.93994Z" fill="#27292A"/>
</svg>
