<svg xmlns="http://www.w3.org/2000/svg" viewBox="0 0 16 16" width="16" height="16"><g class="uk-icon-alternate-dark" fill="none"><path clip-rule="evenodd" d="M11.158 11.231 5.914 5.987a.916.916 0 0 0-1.295 0l-.853.854a.916.916 0 0 0 0 1.295l5.243 5.244a.916.916 0 0 0 1.296 0l.853-.853a.916.916 0 0 0 0-1.296Z" stroke="#27292A" stroke-width="1.505"/><path d="M11.337 11.177c1.559-.848 3.795-3.313 3.448-3.824C13.51 6.083 9.967 2.57 8.247.816c-.014-.014-.05.001-.056.023-.444 2.087-1.223 3.746-2.338 4.976" stroke="#27292A" stroke-width="1.505"/><path d="m11.844 5.217.655.744c-.19.254-.49.51-.861.747-.101.064-.203.125-.305.182.193-.47.391-1.045.511-1.673Z" stroke="#27292A" stroke-width="1.075"/><path d="M7.292 11.214 4.86 14.537a1.555 1.555 0 1 1-2.174-2.174L6.01 9.931" stroke="#27292A" stroke-width="1.505"/></g><g class="uk-icon-alternate-default" fill="none"><path clip-rule="evenodd" d="M11.158 11.231 5.914 5.987a.916.916 0 0 0-1.295 0l-.853.854a.916.916 0 0 0 0 1.295l5.243 5.244a.916.916 0 0 0 1.296 0l.853-.853a.916.916 0 0 0 0-1.296Z" stroke="#27292A" stroke-width="1.505"/><path d="M11.337 11.177c1.559-.848 3.795-3.313 3.448-3.824C13.51 6.083 9.967 2.57 8.247.816c-.014-.014-.05.001-.056.023-.444 2.087-1.223 3.746-2.338 4.976" stroke="#27292A" stroke-width="1.505"/><path d="m11.844 5.217.655.744c-.19.254-.49.51-.861.747-.101.064-.203.125-.305.182.193-.47.391-1.045.511-1.673Z" stroke="#27292A" stroke-width="1.075"/><path d="M7.292 11.214 4.86 14.537a1.555 1.555 0 1 1-2.174-2.174L6.01 9.931" stroke="#27292A" stroke-width="1.505"/></g></svg>