<svg xmlns="http://www.w3.org/2000/svg" viewBox="0 0 30 18" width="30" height="18"><g class="uk-icon-alternate-dark" version="1.1"><g stroke="none" stroke-width="1" fill="none" fill-rule="evenodd"><path d="M21 11.5V15c0 .5-.5 1-1 1H8c-.5 0-1-.5-1-1V3c0-.5.5-1 1-1h12" stroke="#000" stroke-width="2" stroke-linejoin="round"/><path fill="#000" fill-rule="nonzero" d="m24 2 1.462 1.365-7 7.5-1.462.26V9.5z"/><path d="M10 6h7M10 10h5" stroke="#000" stroke-width="2"/></g></g><g class="uk-icon-alternate-default" version="1.1"><g stroke="none" stroke-width="1" fill="none" fill-rule="evenodd"><path d="M21 11.5V15c0 .5-.5 1-1 1H8c-.5 0-1-.5-1-1V3c0-.5.5-1 1-1h12" stroke="#000" stroke-width="2" stroke-linejoin="round"/><path fill="#000" fill-rule="nonzero" d="m24 2 1.462 1.365-7 7.5-1.462.26V9.5z"/><path d="M10 6h7M10 10h5" stroke="#000" stroke-width="2"/></g></g></svg>