<svg width="70" height="18" viewBox="5.677913330078125 -5.039999999999999 70 18" version="1.1" xmlns="http://www.w3.org/2000/svg"><path d="M19.6-5.0Q20.0-5.0 20.2-4.8Q20.5-4.5 20.5-4.1L20.5-4.1L19.3 11.2Q19.2 11.6 19.0 11.9Q18.8 12.1 18.3 12.1L18.3 12.1Q17.8 12.1 17.5 11.7L17.5 11.7L8.6-1.6L7.5 11.2Q7.5 11.6 7.2 11.9Q7.0 12.1 6.6 12.1L6.6 12.1Q6.2 12.1 5.9 11.8Q5.7 11.6 5.7 11.1L5.7 11.1L6.9-4.1Q6.9-4.5 7.2-4.8Q7.5-5.0 7.9-5.0L7.9-5.0Q8.4-5.0 8.7-4.6L8.7-4.6L17.6 8.6L18.6-4.1Q18.6-4.5 18.9-4.8Q19.2-5.0 19.6-5.0L19.6-5.0ZM32.9 0.1Q33.3 0.1 33.6 0.3Q33.8 0.6 33.8 1.0L33.8 1.0L33.0 11.2Q32.9 11.6 32.6 11.9Q32.3 12.1 31.9 12.1L31.9 12.1Q31.5 12.1 31.3 11.9Q31.0 11.7 31.1 11.3L31.1 11.3L31.2 10.1Q30.6 11.1 29.6 11.6Q28.6 12.2 27.3 12.2L27.3 12.2Q25.4 12.2 24.4 11.1Q23.3 10.1 23.3 8.2L23.3 8.2Q23.3 7.7 23.4 7.5L23.4 7.5L23.9 1.0Q23.9 0.6 24.2 0.3Q24.5 0.1 24.9 0.1L24.9 0.1Q25.4 0.1 25.6 0.3Q25.9 0.6 25.8 1.0L25.8 1.0L25.3 7.4Q25.3 7.6 25.3 7.9L25.3 7.9Q25.3 10.5 27.8 10.5L27.8 10.5Q29.4 10.5 30.3 9.6Q31.2 8.6 31.4 6.9L31.4 6.9L31.8 1.0Q31.9 0.6 32.2 0.3Q32.5 0.1 32.9 0.1L32.9 0.1ZM43.2 0.0Q45.2 0.0 46.2 1.1Q47.2 2.1 47.2 4.1L47.2 4.1Q47.2 4.5 47.2 4.7L47.2 4.7L46.7 11.2Q46.6 11.6 46.4 11.9Q46.1 12.1 45.7 12.1L45.7 12.1Q45.2 12.1 45.0 11.9Q44.7 11.6 44.8 11.2L44.8 11.2L45.3 4.8Q45.3 4.7 45.3 4.3L45.3 4.3Q45.3 1.7 42.7 1.7L42.7 1.7Q41.1 1.7 40.1 2.6Q39.2 3.6 39.0 5.3L39.0 5.3L38.5 11.2Q38.5 11.6 38.2 11.9Q37.9 12.1 37.5 12.1L37.5 12.1Q37.1 12.1 36.8 11.9Q36.6 11.6 36.6 11.2L36.6 11.2L37.4 1.0Q37.5 0.6 37.8 0.3Q38.1 0.1 38.5 0.1L38.5 0.1Q38.9 0.1 39.1 0.3Q39.4 0.6 39.3 1.0L39.3 1.0L39.2 2.1Q39.8 1.1 40.9 0.6Q41.9 0.0 43.2 0.0L43.2 0.0ZM51.1 12.1Q50.7 12.1 50.5 11.9Q50.2 11.6 50.2 11.2L50.2 11.2L51.1 1.0Q51.1 0.5 51.4 0.3Q51.7 0.1 52.1 0.1L52.1 0.1Q52.5 0.1 52.8 0.3Q53.0 0.5 53.0 1.0L53.0 1.0L52.2 11.2Q52.1 11.6 51.8 11.9Q51.5 12.1 51.1 12.1L51.1 12.1ZM52.4-2.4Q51.8-2.4 51.5-2.8Q51.1-3.1 51.1-3.7L51.1-3.7Q51.1-4.2 51.5-4.5Q51.8-4.9 52.4-4.9L52.4-4.9Q53.0-4.9 53.3-4.5Q53.7-4.2 53.7-3.7L53.7-3.7Q53.7-3.1 53.3-2.8Q53.0-2.4 52.4-2.4L52.4-2.4ZM59.1 1.8L58.7 7.8Q58.6 7.9 58.6 8.3L58.6 8.3Q58.6 9.4 59.2 10.0Q59.7 10.6 60.7 10.6L60.7 10.6Q61.0 10.6 61.3 10.6Q61.6 10.5 61.7 10.5L61.7 10.5Q61.9 10.5 62.1 10.7Q62.2 10.9 62.2 11.3L62.2 11.3Q62.2 11.8 61.8 12.0Q61.4 12.2 60.4 12.2L60.4 12.2Q58.6 12.2 57.7 11.2Q56.7 10.2 56.7 8.4L56.7 8.4Q56.7 8.1 56.7 7.9L56.7 7.9L57.2 1.8L55.6 1.8Q55.2 1.8 55.0 1.6Q54.8 1.4 54.8 1.1L54.8 1.1Q54.8 0.7 55.0 0.5Q55.3 0.3 55.7 0.3L55.7 0.3L57.3 0.3L57.5-2.4Q57.6-2.8 57.8-3.1Q58.1-3.3 58.6-3.3L58.6-3.3Q59.0-3.3 59.3-3.1Q59.5-2.8 59.5-2.4L59.5-2.4L59.2 0.3L61.9 0.3Q62.2 0.3 62.5 0.5Q62.7 0.7 62.7 1.1L62.7 1.1Q62.7 1.4 62.5 1.6Q62.2 1.8 61.8 1.8L61.8 1.8L59.1 1.8ZM69.1 12.2Q67.5 12.2 66.2 11.5Q65.0 10.8 64.3 9.5Q63.7 8.2 63.7 6.5L63.7 6.5Q63.7 4.6 64.4 3.1Q65.1 1.6 66.4 0.8Q67.6 0.0 69.4 0.0L69.4 0.0Q71.0 0.0 72.2 0.7Q73.5 1.4 74.1 2.7Q74.8 4.0 74.8 5.7L74.8 5.7Q74.8 7.7 74.1 9.1Q73.4 10.6 72.1 11.4Q70.8 12.2 69.1 12.2L69.1 12.2ZM69.1 10.6Q70.9 10.6 71.8 9.2Q72.8 7.9 72.8 5.6L72.8 5.6Q72.8 3.7 71.9 2.7Q71.0 1.6 69.4 1.6L69.4 1.6Q67.6 1.6 66.6 3.0Q65.6 4.3 65.6 6.6L65.6 6.6Q65.6 8.5 66.5 9.5Q67.4 10.6 69.1 10.6L69.1 10.6Z" fill="foregroundcolor"/></svg>