<svg width="88" height="23" viewBox="6.3759999999999994 -5.52 88 23" version="1.1" xmlns="http://www.w3.org/2000/svg"><path d="M6.9 12L6.4 12L6.4-5.0L13.3-5.0Q14.3-5.0 15.2-4.6Q16.1-4.2 16.8-3.4Q17.4-2.7 17.8-1.8Q18.1-0.8 18.1 0.1L18.1 0.1Q18.1 1.1 17.8 2.0Q17.5 2.9 16.9 3.6Q16.3 4.3 15.5 4.8Q14.7 5.2 13.8 5.3L13.8 5.3L18.1 12L17.5 12L13.2 5.3L6.9 5.3L6.9 12ZM6.9-4.6L6.9 4.8L13.5 4.8Q14.4 4.8 15.2 4.4Q16.0 4.0 16.5 3.3Q17.1 2.7 17.3 1.8Q17.6 1.0 17.6 0.1L17.6 0.1Q17.6-0.8 17.3-1.6Q17.0-2.5 16.4-3.1Q15.8-3.8 15.0-4.2Q14.2-4.6 13.3-4.6L13.3-4.6L6.9-4.6ZM24.2 12.2L24.2 12.2Q23.4 12.2 22.6 11.9Q21.9 11.6 21.3 11.1Q20.8 10.6 20.5 9.9Q20.2 9.2 20.2 8.4L20.2 8.4Q20.2 7.6 20.5 7.0Q20.9 6.3 21.6 5.9Q22.3 5.4 23.2 5.1Q24.2 4.9 25.3 4.9L25.3 4.9Q26.4 4.9 27.5 5.1Q28.6 5.2 29.5 5.6L29.5 5.6L29.5 4.2Q29.5 3.2 29.2 2.4Q28.9 1.6 28.4 1.0Q27.8 0.5 27.1 0.1Q26.3-0.2 25.4-0.2L25.4-0.2Q24.5-0.2 23.5 0.2Q22.4 0.6 21.4 1.4L21.4 1.4L21.1 1.0Q23.5-0.6 25.4-0.6L25.4-0.6Q26.4-0.6 27.3-0.3Q28.1 0.0 28.7 0.6Q29.3 1.3 29.6 2.2Q30.0 3.0 30.0 4.2L30.0 4.2L30.0 11.0Q30.0 11.5 30.4 11.5L30.4 11.5L30.4 12Q30.1 12 30.0 12.0L30.0 12.0Q29.8 11.9 29.6 11.6Q29.5 11.4 29.5 11.0L29.5 11.0L29.5 9.9Q28.6 11.0 27.2 11.6Q25.8 12.2 24.2 12.2ZM24.2 11.8L24.2 11.8Q25.8 11.8 27.1 11.2Q28.5 10.6 29.1 9.6L29.1 9.6Q29.5 9.0 29.5 8.6L29.5 8.6L29.5 6.1Q27.6 5.4 25.3 5.4L25.3 5.4Q24.3 5.4 23.4 5.6Q22.6 5.8 21.9 6.2Q21.3 6.6 21.0 7.2Q20.7 7.7 20.7 8.4L20.7 8.4Q20.7 9.1 20.9 9.7Q21.2 10.3 21.7 10.8Q22.2 11.3 22.8 11.5Q23.5 11.8 24.2 11.8ZM34.0 10.2L34.0-5.5L34.5-5.5L34.5 10.2Q34.5 10.8 34.9 11.3Q35.3 11.7 36.0 11.7L36.0 11.7Q36.3 11.7 36.7 11.6Q37.0 11.5 37.4 11.4L37.4 11.4L37.5 11.8Q37.2 12.0 36.7 12.0Q36.2 12.1 35.9 12.1L35.9 12.1Q35.0 12.1 34.5 11.6Q34.0 11.0 34.0 10.2L34.0 10.2ZM44.6 12.2L44.6 12.2Q43.4 12.2 42.3 11.7Q41.2 11.2 40.4 10.3Q39.6 9.4 39.1 8.2Q38.6 7.0 38.6 5.7L38.6 5.7Q38.6 4.4 39.1 3.2Q39.5 2.1 40.3 1.2Q41.2 0.3 42.2-0.2Q43.3-0.6 44.5-0.6L44.5-0.6Q45.8-0.6 46.9-0.1Q47.9 0.4 48.7 1.2Q49.6 2.1 50.0 3.3Q50.5 4.4 50.5 5.8L50.5 5.8L50.5 6.0L39.1 6.0Q39.2 7.2 39.7 8.3Q40.1 9.3 40.9 10.1Q41.6 10.9 42.6 11.3Q43.6 11.8 44.7 11.8L44.7 11.8Q45.4 11.8 46.1 11.6Q46.7 11.4 47.3 11.0Q47.9 10.7 48.4 10.2Q48.9 9.7 49.1 9.1L49.1 9.1L49.6 9.3Q49.3 9.9 48.8 10.5Q48.3 11.0 47.7 11.4Q47.0 11.8 46.2 12.0Q45.4 12.2 44.6 12.2ZM39.1 5.6L50.0 5.6Q49.9 4.3 49.5 3.3Q49.0 2.2 48.3 1.5Q47.6 0.7 46.6 0.3Q45.6-0.2 44.5-0.2L44.5-0.2Q43.4-0.2 42.5 0.3Q41.5 0.7 40.8 1.5Q40.0 2.2 39.6 3.3Q39.2 4.3 39.1 5.6L39.1 5.6ZM63.8 11.3L68.9-0.5L69.5-0.5L64.0 12L63.6 12L60.5 5.0L57.5 12L57.1 12L51.6-0.5L52.1-0.5L57.3 11.3L60.3 4.4L58.2-0.4L58.7-0.4L60.5 3.8L62.4-0.4L62.9-0.4L60.8 4.4L63.8 11.3ZM74.7 12.2L74.7 12.2Q73.9 12.2 73.1 11.9Q72.4 11.6 71.9 11.1Q71.3 10.6 71.0 9.9Q70.7 9.2 70.7 8.4L70.7 8.4Q70.7 7.6 71.1 7.0Q71.4 6.3 72.1 5.9Q72.8 5.4 73.8 5.1Q74.7 4.9 75.8 4.9L75.8 4.9Q76.9 4.9 78.0 5.1Q79.1 5.2 80.0 5.6L80.0 5.6L80.0 4.2Q80.0 3.2 79.7 2.4Q79.4 1.6 78.9 1.0Q78.4 0.5 77.6 0.1Q76.8-0.2 75.9-0.2L75.9-0.2Q75.0-0.2 74.0 0.2Q73.0 0.6 71.9 1.4L71.9 1.4L71.6 1.0Q74.0-0.6 75.9-0.6L75.9-0.6Q77.0-0.6 77.8-0.3Q78.7 0.0 79.3 0.6Q79.8 1.3 80.2 2.2Q80.5 3.0 80.5 4.2L80.5 4.2L80.5 11.0Q80.5 11.5 80.9 11.5L80.9 11.5L80.9 12Q80.6 12 80.5 12.0L80.5 12.0Q80.3 11.9 80.2 11.6Q80.0 11.4 80.0 11.0L80.0 11.0L80.0 9.9Q79.1 11.0 77.8 11.6Q76.4 12.2 74.7 12.2ZM74.7 11.8L74.7 11.8Q76.3 11.8 77.7 11.2Q79 10.6 79.6 9.6L79.6 9.6Q80.0 9.0 80.0 8.6L80.0 8.6L80.0 6.1Q78.1 5.4 75.8 5.4L75.8 5.4Q74.8 5.4 73.9 5.6Q73.1 5.8 72.5 6.2Q71.8 6.6 71.5 7.2Q71.2 7.7 71.2 8.4L71.2 8.4Q71.2 9.1 71.5 9.7Q71.7 10.3 72.2 10.8Q72.7 11.3 73.3 11.5Q74.0 11.8 74.7 11.8ZM85.1 17.4L85.1 16.9Q85.5 16.9 85.8 16.8Q86.1 16.8 86.2 16.6L86.2 16.6Q86.3 16.6 86.4 16.4Q86.5 16.2 86.7 15.7Q86.9 15.2 87.3 14.3Q87.7 13.4 88.3 12L88.3 12L82.5-0.5L83.1-0.5L88.6 11.4L93.8-0.5L94.3-0.5L86.9 16.5Q86.6 17.1 86.1 17.2L86.1 17.2Q85.6 17.4 85.1 17.4L85.1 17.4Z" fill="foregroundcolor"/></svg>