<svg width="239" height="19" viewBox="4.0703125 -6.0234375 239 19" version="1.1" xmlns="http://www.w3.org/2000/svg"><path d="M16.1 6.8L18.8-4.9L21.9-4.9L18.0 12L15.0 12L10.1 0.3L9.9 0.3L7.2 12L4.1 12L8.0-4.9L10.9-4.9L15.9 6.8L16.1 6.8ZM26.7 12.3Q24.3 12.3 23.0 11.1Q21.7 9.9 21.7 7.7L21.7 7.7Q21.7 6.8 22.0 5.6L22.0 5.6Q22.4 3.6 23.4 2.1Q24.5 0.6 25.9-0.2Q27.4-1.0 29.1-1.0L29.1-1.0Q31.2-1.0 32.3 0.1Q33.5 1.3 33.5 3.3L33.5 3.3Q33.5 4.1 33.3 5.0L33.3 5.0Q33.2 5.7 32.9 6.6L32.9 6.6L24.7 6.6Q24.6 7.1 24.6 7.5L24.6 7.5Q24.6 8.6 25.2 9.2Q25.8 9.7 27.1 9.7L27.1 9.7Q28.1 9.7 29.2 9.5Q30.4 9.2 31.3 8.8L31.3 8.8L31.3 11.0Q30.1 11.7 29.0 12.0Q27.8 12.3 26.7 12.3L26.7 12.3ZM30.5 4.5Q30.7 3.9 30.7 3.5L30.7 3.5Q30.7 2.6 30.2 2.1Q29.7 1.5 28.8 1.5L28.8 1.5Q27.9 1.5 27.2 1.9Q26.4 2.3 25.9 3.0Q25.3 3.7 25.1 4.5L25.1 4.5L30.5 4.5ZM40.3 7.6L45.4-0.8L48.8-0.8L40.2 12.2L38.4 12.2L35.5-0.8L38.5-0.8L40.1 7.6L40.3 7.6ZM52.7 12.3Q50.3 12.3 49.0 11.1Q47.7 9.9 47.7 7.7L47.7 7.7Q47.7 6.8 48.0 5.6L48.0 5.6Q48.5 3.6 49.5 2.1Q50.5 0.6 52.0-0.2Q53.4-1.0 55.1-1.0L55.1-1.0Q57.3-1.0 58.4 0.1Q59.5 1.3 59.5 3.3L59.5 3.3Q59.5 4.1 59.4 5.0L59.4 5.0Q59.2 5.7 58.9 6.6L58.9 6.6L50.7 6.6Q50.6 7.1 50.6 7.5L50.6 7.5Q50.6 8.6 51.3 9.2Q51.9 9.7 53.2 9.7L53.2 9.7Q54.2 9.7 55.3 9.5Q56.4 9.2 57.4 8.8L57.4 8.8L57.3 11.0Q56.1 11.7 55.0 12.0Q53.9 12.3 52.7 12.3L52.7 12.3ZM56.6 4.5Q56.7 3.9 56.7 3.5L56.7 3.5Q56.7 2.6 56.2 2.1Q55.8 1.5 54.8 1.5L54.8 1.5Q54.0 1.5 53.2 1.9Q52.5 2.3 51.9 3.0Q51.4 3.7 51.2 4.5L51.2 4.5L56.6 4.5ZM65.9 1.1Q66.6 0.1 67.7-0.5Q68.7-1.0 70.0-1.0L70.0-1.0L69.4 1.6Q67.8 1.6 66.8 2.1Q65.9 2.7 65.4 3.7Q64.9 4.7 64.5 6.4L64.5 6.4L64.4 6.5L64.4 6.5L63.2 12L60.2 12L63.2-0.8L66.1-0.8L65.7 1.1L65.9 1.1ZM79.9 2.0L87.0-4.9L90.3-4.9L86.4 12L83.3 12L86.2-0.5L86.1-0.5L79.3 6.1L79.1 6.1L75.4-0.5L75.3-0.5L72.4 12L69.3 12L73.2-4.9L76-4.9L79.9 2.0ZM93.0-3.0L93.7-6.0L96.7-6.0L96.0-3.0L93.0-3.0ZM89.6 12L92.5-0.8L95.5-0.8L92.5 12L89.6 12ZM105.1-1.0Q106.9-1.0 107.9-0.2Q108.8 0.7 108.8 2.4L108.8 2.4Q108.8 3.1 108.6 4.0L108.6 4.0L106.8 12L103.8 12L105.6 4.2Q105.7 3.6 105.7 3.2L105.7 3.2Q105.7 2.3 105.2 1.9Q104.8 1.5 103.7 1.5L103.7 1.5Q103 1.5 102.4 1.8Q101.7 2.2 101.2 2.8Q100.8 3.4 100.5 4.3L100.5 4.3L98.7 12L95.7 12L98.7-0.8L101.7-0.8L101.3 0.9L101.4 0.9Q102.1-0.0 103.0-0.5Q104.0-1.0 105.1-1.0L105.1-1.0ZM122.4-5.8L125.3-5.8L121.2 12L118.3 12L118.7 10.3L118.6 10.3Q117.8 11.2 116.7 11.7Q115.7 12.3 114.4 12.3L114.4 12.3Q113.2 12.3 112.3 11.7Q111.3 11.2 110.9 10.2Q110.4 9.2 110.4 7.9L110.4 7.9Q110.4 6.9 110.6 5.8L110.6 5.8Q111.1 3.8 112.1 2.2Q113.2 0.7 114.6-0.2Q116.0-1.0 117.6-1.0L117.6-1.0Q118.7-1.0 119.5-0.5Q120.4-0.0 120.7 0.9L120.7 0.9L120.8 0.9L122.4-5.8ZM113.6 5.8Q113.4 6.6 113.4 7.3L113.4 7.3Q113.4 8.6 114.0 9.3Q114.6 10.1 115.5 10.1L115.5 10.1Q116.5 10.1 117.3 9.6Q118.1 9.2 118.6 8.5Q119.1 7.8 119.4 7.0L119.4 7.0L120.0 4.5Q120.1 4.2 120.1 3.8L120.1 3.8Q120.1 2.7 119.4 2.0Q118.8 1.3 117.7 1.3L117.7 1.3Q116.9 1.3 116.0 1.9Q115.2 2.4 114.5 3.5Q113.9 4.5 113.6 5.8L113.6 5.8ZM139.3 9.8Q140.7 9.8 142.1 9.0Q143.4 8.2 144.6 6.8L144.6 6.8L146.4 8.3Q145.0 10.3 143.0 11.3Q141.1 12.4 138.9 12.4L138.9 12.4Q136.9 12.4 135.5 11.6Q134.1 10.9 133.3 9.4Q132.5 8.0 132.5 6.0L132.5 6.0Q132.5 4.9 132.8 3.6L132.8 3.6Q133.5 0.9 135.0-1.1Q136.5-3.1 138.5-4.2Q140.6-5.3 143.0-5.3L143.0-5.3Q145.2-5.3 146.6-4.2Q148.1-3.2 148.6-1.2L148.6-1.2L146.3 0.3Q145.3-2.6 142.6-2.6L142.6-2.6Q141.2-2.6 139.8-1.9Q138.4-1.1 137.4 0.3Q136.3 1.7 135.9 3.6L135.9 3.6Q135.6 4.7 135.6 5.6L135.6 5.6Q135.6 7.5 136.6 8.6Q137.6 9.8 139.3 9.8L139.3 9.8ZM153.8 12.3Q152.2 12.3 151.1 11.7Q150.0 11.1 149.4 10.0Q148.8 9.0 148.8 7.5L148.8 7.5Q148.8 6.6 149.1 5.6L149.1 5.6Q149.5 3.6 150.6 2.1Q151.8 0.6 153.4-0.2Q155.0-1.0 156.8-1.0L156.8-1.0Q158.4-1.0 159.5-0.5Q160.6 0.1 161.2 1.2Q161.7 2.3 161.7 3.7L161.7 3.7Q161.7 4.6 161.5 5.6L161.5 5.6Q161.1 7.6 159.9 9.1Q158.8 10.6 157.2 11.4Q155.6 12.3 153.8 12.3L153.8 12.3ZM154.2 9.7Q155.2 9.7 156.1 9.2Q157 8.7 157.7 7.7Q158.3 6.8 158.6 5.6L158.6 5.6Q158.8 4.9 158.8 4.2L158.8 4.2Q158.8 3.0 158.1 2.3Q157.5 1.5 156.3 1.5L156.3 1.5Q155.4 1.5 154.5 2.0Q153.6 2.6 152.9 3.5Q152.3 4.4 152.0 5.6L152.0 5.6Q151.8 6.3 151.8 7.0L151.8 7.0Q151.8 8.3 152.4 9.0Q153.1 9.7 154.2 9.7L154.2 9.7ZM172.0-1.0Q173.7-1.0 174.7-0.2Q175.7 0.7 175.7 2.4L175.7 2.4Q175.7 3.1 175.5 4.0L175.5 4.0L173.6 12L170.6 12L172.4 4.2Q172.5 3.6 172.5 3.2L172.5 3.2Q172.5 2.3 172.1 1.9Q171.6 1.5 170.5 1.5L170.5 1.5Q169.8 1.5 169.2 1.8Q168.6 2.2 168.1 2.8Q167.6 3.4 167.3 4.3L167.3 4.3L165.6 12L162.5 12L165.5-0.8L168.5-0.8L168.1 0.9L168.2 0.9Q168.9-0.0 169.9-0.5Q170.8-1.0 172.0-1.0L172.0-1.0ZM189.2-5.8L192.2-5.8L188.1 12L185.1 12L185.5 10.3L185.4 10.3Q184.6 11.2 183.6 11.7Q182.5 12.3 181.3 12.3L181.3 12.3Q180.0 12.3 179.1 11.7Q178.2 11.2 177.7 10.2Q177.2 9.2 177.2 7.9L177.2 7.9Q177.2 6.9 177.4 5.8L177.4 5.8Q177.9 3.8 179.0 2.2Q180.0 0.7 181.4-0.2Q182.8-1.0 184.4-1.0L184.4-1.0Q185.6-1.0 186.4-0.5Q187.2-0.0 187.6 0.9L187.6 0.9L187.7 0.9L189.2-5.8ZM180.4 5.8Q180.2 6.6 180.2 7.3L180.2 7.3Q180.2 8.6 180.8 9.3Q181.4 10.1 182.4 10.1L182.4 10.1Q183.3 10.1 184.1 9.6Q184.9 9.2 185.4 8.5Q186.0 7.8 186.3 7.0L186.3 7.0L186.8 4.5Q186.9 4.2 186.9 3.8L186.9 3.8Q186.9 2.7 186.3 2.0Q185.6 1.3 184.6 1.3L184.6 1.3Q183.7 1.3 182.9 1.9Q182.0 2.4 181.4 3.5Q180.7 4.5 180.4 5.8L180.4 5.8ZM196.8 12.3Q194.3 12.3 193.0 11.1Q191.8 9.9 191.8 7.7L191.8 7.7Q191.8 6.8 192.0 5.6L192.0 5.6Q192.5 3.6 193.5 2.1Q194.5 0.6 196-0.2Q197.5-1.0 199.1-1.0L199.1-1.0Q201.3-1.0 202.4 0.1Q203.6 1.3 203.6 3.3L203.6 3.3Q203.6 4.1 203.4 5.0L203.4 5.0Q203.2 5.7 203.0 6.6L203.0 6.6L194.7 6.6Q194.6 7.1 194.6 7.5L194.6 7.5Q194.6 8.6 195.3 9.2Q195.9 9.7 197.2 9.7L197.2 9.7Q198.2 9.7 199.3 9.5Q200.5 9.2 201.4 8.8L201.4 8.8L201.4 11.0Q200.2 11.7 199.0 12.0Q197.9 12.3 196.8 12.3L196.8 12.3ZM200.6 4.5Q200.7 3.9 200.7 3.5L200.7 3.5Q200.7 2.6 200.3 2.1Q199.8 1.5 198.8 1.5L198.8 1.5Q198.0 1.5 197.3 1.9Q196.5 2.3 195.9 3.0Q195.4 3.7 195.2 4.5L195.2 4.5L200.6 4.5ZM213.7-1.0Q215.5-1.0 216.4-0.2Q217.4 0.7 217.4 2.4L217.4 2.4Q217.4 3.1 217.2 4.0L217.2 4.0L215.4 12L212.3 12L214.1 4.2Q214.2 3.6 214.2 3.2L214.2 3.2Q214.2 2.3 213.8 1.9Q213.3 1.5 212.3 1.5L212.3 1.5Q211.6 1.5 210.9 1.8Q210.3 2.2 209.8 2.8Q209.3 3.4 209.1 4.3L209.1 4.3L207.3 12L204.3 12L207.2-0.8L210.2-0.8L209.8 0.9L210.0 0.9Q210.6-0.0 211.6-0.5Q212.6-1.0 213.7-1.0L213.7-1.0ZM222.6 12.3Q221.2 12.3 219.9 11.8Q218.6 11.3 217.9 10.6L217.9 10.6L219.3 8.6Q220.1 9.2 221.0 9.6Q222.0 9.9 222.9 9.9L222.9 9.9Q223.5 9.9 224.0 9.8Q224.5 9.6 224.8 9.3Q225.2 9.0 225.3 8.6L225.3 8.6Q225.3 8.4 225.3 8.3L225.3 8.3Q225.3 7.7 224.8 7.3Q224.3 6.9 223.1 6.4L223.1 6.4Q221.7 5.7 221.0 5.0Q220.3 4.3 220.3 3.3L220.3 3.3Q220.3 2.8 220.5 2.3L220.5 2.3Q220.7 1.3 221.4 0.5Q222.1-0.2 223.2-0.6Q224.3-1.0 225.6-1.0L225.6-1.0Q227.9-1.0 229.2 0.1L229.2 0.1L228.8 2.2Q227.2 1.2 225.6 1.2L225.6 1.2Q224.7 1.2 224.1 1.5Q223.5 1.9 223.4 2.4L223.4 2.4Q223.3 2.6 223.3 2.7L223.3 2.7Q223.3 3.3 223.8 3.7Q224.3 4.1 225.3 4.5L225.3 4.5Q226.8 5.1 227.5 5.9Q228.3 6.8 228.3 7.8L228.3 7.8Q228.3 8.2 228.2 8.6L228.2 8.6Q227.9 9.7 227.2 10.6Q226.4 11.4 225.3 11.8Q224.1 12.3 222.6 12.3L222.6 12.3ZM235.3 12.3Q232.9 12.3 231.6 11.1Q230.3 9.9 230.3 7.7L230.3 7.7Q230.3 6.8 230.6 5.6L230.6 5.6Q231.0 3.6 232.0 2.1Q233.1 0.6 234.5-0.2Q236.0-1.0 237.7-1.0L237.7-1.0Q239.8-1.0 240.9 0.1Q242.1 1.3 242.1 3.3L242.1 3.3Q242.1 4.1 241.9 5.0L241.9 5.0Q241.8 5.7 241.5 6.6L241.5 6.6L233.3 6.6Q233.2 7.1 233.2 7.5L233.2 7.5Q233.2 8.6 233.8 9.2Q234.4 9.7 235.7 9.7L235.7 9.7Q236.7 9.7 237.8 9.5Q239.0 9.2 239.9 8.8L239.9 8.8L239.9 11.0Q238.7 11.7 237.6 12.0Q236.4 12.3 235.3 12.3L235.3 12.3ZM239.1 4.5Q239.3 3.9 239.3 3.5L239.3 3.5Q239.3 2.6 238.8 2.1Q238.3 1.5 237.4 1.5L237.4 1.5Q236.5 1.5 235.8 1.9Q235.0 2.3 234.5 3.0Q233.9 3.7 233.7 4.5L233.7 4.5L239.1 4.5Z" fill="foregroundcolor"/></svg>