<svg width="117" height="18" viewBox="5.69921875 -5.625 117 18" version="1.1" xmlns="http://www.w3.org/2000/svg"><path d="M17.3 8.5L17.3-4.9L19.4-4.9L19.4 12L17.3 12L7.9-1.5L7.8-1.5L7.8 12L5.7 12L5.7-4.9L7.8-4.9L17.2 8.5L17.3 8.5ZM28.4 12.2Q26.5 12.2 25.1 11.4Q23.6 10.7 22.9 9.2Q22.1 7.7 22.1 5.7L22.1 5.7Q22.1 3.8 22.8 2.3Q23.6 0.9 24.8 0.0Q26.1-0.8 27.8-0.8L27.8-0.8Q29.4-0.8 30.6-0.0Q31.9 0.7 32.6 2.0Q33.3 3.3 33.3 5.1L33.3 5.1Q33.3 5.8 33.3 6.3L33.3 6.3L24.1 6.3Q24.1 7.6 24.7 8.6Q25.2 9.5 26.2 10.0Q27.2 10.5 28.5 10.5L28.5 10.5Q29.5 10.5 30.4 10.2Q31.4 10.0 32.3 9.5L32.3 9.5L32.6 11.0Q30.7 12.2 28.4 12.2L28.4 12.2ZM31.4 4.9Q31.4 3.8 30.9 2.9Q30.5 2.0 29.7 1.5Q28.9 1.0 27.8 1.0L27.8 1.0Q26.7 1.0 25.9 1.5Q25.1 2.0 24.6 2.9Q24.1 3.8 24.1 4.9L24.1 4.9L31.4 4.9ZM41.1 8.8L45.3-0.5L47.5-0.5L41.4 12.1L40.5 12.1L34.4-0.5L36.7-0.5L40.9 8.8L41.1 8.8ZM54.8 12.2Q52.9 12.2 51.4 11.4Q50.0 10.7 49.3 9.2Q48.5 7.7 48.5 5.7L48.5 5.7Q48.5 3.8 49.2 2.3Q49.9 0.9 51.2 0.0Q52.5-0.8 54.2-0.8L54.2-0.8Q55.8-0.8 57.0-0.0Q58.3 0.7 59.0 2.0Q59.7 3.3 59.7 5.1L59.7 5.1Q59.7 5.8 59.7 6.3L59.7 6.3L50.5 6.3Q50.5 7.6 51.1 8.6Q51.6 9.5 52.6 10.0Q53.6 10.5 54.9 10.5L54.9 10.5Q55.9 10.5 56.8 10.2Q57.8 10.0 58.6 9.5L58.6 9.5L59.0 11.0Q57.1 12.2 54.8 12.2L54.8 12.2ZM57.8 4.9Q57.8 3.8 57.3 2.9Q56.9 2.0 56.1 1.5Q55.2 1.0 54.2 1.0L54.2 1.0Q53.1 1.0 52.3 1.5Q51.5 2.0 51.0 2.9Q50.5 3.8 50.5 4.9L50.5 4.9L57.8 4.9ZM64.6 1.7Q65.2 0.6 66.2-0.1Q67.2-0.8 68.7-0.8L68.7-0.8L68.7 1.1Q67.1 1.1 66.2 1.6Q65.3 2.2 64.9 3.3Q64.5 4.4 64.5 6.1L64.5 6.1L64.5 12L62.5 12L62.5-0.5L64.5-0.5L64.5 1.7L64.6 1.7ZM79.7 2.8L86.2-4.9L88.3-4.9L88.3 12L86.2 12L86.2-1.9L86.1-1.9L79.8 5.5L79.6 5.5L73.2-1.9L73.1-1.9L73.1 12L71.1 12L71.1-4.9L73.1-4.9L79.7 2.8ZM91.7-3.2L91.7-5.4L93.9-5.4L93.9-3.2L91.7-3.2ZM91.8 12L91.8-0.5L93.8-0.5L93.8 12L91.8 12ZM107.8 4.1L107.8 12L105.8 12L105.8 4.5Q105.8 1.0 102.5 1.0L102.5 1.0Q101.7 1.0 100.9 1.4Q100.2 1.8 99.8 2.6Q99.4 3.4 99.3 4.3L99.3 4.3L99.3 12L97.3 12L97.3-0.5L99.3-0.5L99.3 1.5L99.4 1.5Q99.9 0.4 100.9-0.2Q101.9-0.8 103.1-0.8L103.1-0.8Q105.4-0.8 106.6 0.5Q107.8 1.7 107.8 4.1L107.8 4.1ZM120.1-5.6L122.1-5.6L122.1 12.0L120.1 12.0L120.1 9.8L120.0 9.8Q119.4 10.9 118.4 11.6Q117.3 12.2 115.8 12.2L115.8 12.2Q114.3 12.2 113.1 11.4Q111.8 10.6 111.1 9.2Q110.4 7.8 110.4 6.0L110.4 6.0Q110.4 4.0 111.1 2.5Q111.8 0.9 113.1 0.1Q114.3-0.8 115.9-0.8L115.9-0.8Q117.3-0.8 118.4-0.1Q119.5 0.6 120.1 1.8L120.1 1.8L120.1 1.8L120.1-5.6ZM116.2 10.7Q117.4 10.7 118.3 10.1Q119.2 9.5 119.7 8.6Q120.1 7.6 120.1 6.6L120.1 6.6L120.1 5.4Q120.1 4.1 119.6 3.0Q119.1 2.0 118.2 1.4Q117.4 0.9 116.3 0.9L116.3 0.9Q115.2 0.9 114.3 1.5Q113.5 2.2 112.9 3.3Q112.4 4.5 112.4 6.0L112.4 6.0Q112.4 7.3 112.9 8.4Q113.4 9.5 114.3 10.1Q115.2 10.7 116.2 10.7L116.2 10.7Z" fill="foregroundcolor"/></svg>