<svg width="139" height="18" viewBox="5.08 -5.712 139 18" version="1.1" xmlns="http://www.w3.org/2000/svg"><path d="M16.6 4.6L17.4-4.9L21.5-4.9L20.2 12L16.9 12L10.0 2.5L9.2 12L5.1 12L6.4-4.9L9.6-4.9L16.6 4.6ZM31.5 0.2L35.8 0.2L34.8 12L30.7 12L30.8 10.7Q30.2 11.4 29.2 11.8Q28.3 12.2 27.1 12.2L27.1 12.2Q25.2 12.2 24.2 11.1Q23.2 10.0 23.2 7.9L23.2 7.9Q23.2 7.7 23.2 7.1L23.2 7.1L23.8 0.2L28.0 0.2L27.5 6.8L27.5 7.2Q27.5 8.0 27.9 8.5Q28.3 8.9 29.0 8.9L29.0 8.9Q29.9 8.9 30.4 8.3Q30.9 7.7 31.0 6.7L31.0 6.7L31.5 0.2ZM46.1-0.1Q48.0-0.1 49.0 1.0Q50.1 2.1 50.1 4.3L50.1 4.3Q50.1 4.8 50.0 5.1L50.0 5.1L49.5 12L45.2 12L45.8 5.3Q45.8 4.2 45.4 3.7Q45.0 3.2 44.2 3.2L44.2 3.2Q43.3 3.2 42.7 3.8Q42.2 4.4 42.2 5.4L42.2 5.4L41.6 12L37.4 12L38.3 0.2L42.4 0.2L42.4 1.4Q43.0 0.7 43.9 0.3Q44.9-0.1 46.1-0.1L46.1-0.1ZM56.2 12L51.9 12L52.8 0.2L57.1 0.2L56.2 12ZM52.9-1.8L53.2-5.7L57.6-5.7L57.3-1.8L52.9-1.8ZM64.6 3.3L64.3 7.2L64.3 7.6Q64.3 9.1 66.0 9.1L66.0 9.1Q66.4 9.1 67.1 9.0L67.1 9.0L66.6 12.1Q65.9 12.2 65.2 12.2L65.2 12.2Q60.0 12.2 60.0 7.9L60.0 7.9Q60.0 7.4 60.0 7.2L60.0 7.2L60.4 3.3L58.1 3.3L58.4 0.2L60.6 0.2L60.9-3.2L65.1-3.2L64.9 0.2L67.7 0.2L67.5 3.3L64.6 3.3ZM74.7 12.2Q72.8 12.2 71.3 11.5Q69.8 10.8 69.0 9.4Q68.2 8.1 68.2 6.3L68.2 6.3Q68.2 4.3 69.1 2.9Q69.9 1.4 71.4 0.7Q72.8-0.1 74.8-0.1L74.8-0.1Q76.8-0.1 78.2 0.6Q79.7 1.3 80.5 2.7Q81.3 4.0 81.3 5.7L81.3 5.7Q81.3 7.8 80.5 9.2Q79.6 10.7 78.2 11.4Q76.7 12.2 74.7 12.2L74.7 12.2ZM74.7 9.0Q75.9 9.0 76.5 8.1Q77.1 7.1 77.1 5.6L77.1 5.6Q77.1 4.3 76.5 3.7Q76.0 3.0 74.9 3.0L74.9 3.0Q73.6 3.0 73.0 4.0Q72.5 4.9 72.5 6.4L72.5 6.4Q72.5 7.8 73.0 8.4Q73.6 9.0 74.7 9.0L74.7 9.0ZM96.4 12.2Q94.4 12.2 92.6 11.7Q90.7 11.2 89.4 10.4L89.4 10.4L91 7.2Q93.6 8.8 96.5 8.8L96.5 8.8Q97.9 8.8 98.6 8.5Q99.4 8.1 99.4 7.4L99.4 7.4Q99.4 6.7 98.6 6.3Q97.8 5.8 96.1 5.4L96.1 5.4Q94.3 4.8 93.2 4.3Q92.1 3.8 91.3 2.8Q90.4 1.8 90.4 0.2L90.4 0.2Q90.4-1.4 91.3-2.6Q92.2-3.8 93.9-4.5Q95.6-5.1 97.8-5.1L97.8-5.1Q99.6-5.1 101.3-4.6Q103.0-4.1 104.0-3.3L104.0-3.3L102.4-0.2Q101.4-0.9 100.1-1.3Q98.8-1.8 97.6-1.8L97.6-1.8Q96.4-1.8 95.6-1.3Q94.8-0.9 94.8-0.2L94.8-0.2Q94.8 0.6 95.6 1.0Q96.4 1.4 98.1 1.9L98.1 1.9Q99.9 2.4 101.0 2.9Q102.1 3.4 102.9 4.4Q103.7 5.4 103.7 6.9L103.7 6.9Q103.7 9.5 101.8 10.8Q99.9 12.2 96.4 12.2L96.4 12.2ZM111.9-0.1Q114.4-0.1 115.7 1.0Q116.9 2.2 116.9 4.6L116.9 4.6Q116.9 4.8 116.9 5.4L116.9 5.4L116.4 12L112.4 12L112.5 10.5Q112.1 11.3 111.3 11.7Q110.5 12.2 109.5 12.2L109.5 12.2Q108.3 12.2 107.3 11.7Q106.4 11.3 105.9 10.5Q105.3 9.7 105.3 8.7L105.3 8.7Q105.3 7.3 106.0 6.5Q106.7 5.7 108.1 5.3Q109.6 4.9 112.0 4.9L112.0 4.9L112.9 4.9L112.9 4.7Q113.0 3.8 112.5 3.4Q112.1 3.0 111.0 3.0L111.0 3.0Q110.2 3.0 109.1 3.3Q108.1 3.7 107.2 4.2L107.2 4.2L106.4 1.4Q107.3 0.7 108.9 0.3Q110.4-0.1 111.9-0.1L111.9-0.1ZM110.7 9.3Q111.5 9.3 112.1 8.7Q112.6 8.1 112.7 7.1L112.7 7.1L112.7 6.9L112.1 6.9Q110.7 6.9 110.1 7.2Q109.4 7.5 109.4 8.2L109.4 8.2Q109.4 8.7 109.8 9.0Q110.1 9.3 110.7 9.3L110.7 9.3ZM127.5-0.1Q129.5-0.1 130.5 1.0Q131.5 2.1 131.5 4.3L131.5 4.3Q131.5 4.8 131.5 5.1L131.5 5.1L130.9 12L126.6 12L127.2 5.3Q127.3 4.2 126.9 3.7Q126.5 3.2 125.6 3.2L125.6 3.2Q124.7 3.2 124.2 3.8Q123.7 4.4 123.6 5.4L123.6 5.4L123.1 12L118.8 12L119.7 0.2L123.9 0.2L123.8 1.4Q124.4 0.7 125.4 0.3Q126.3-0.1 127.5-0.1L127.5-0.1ZM138.3 12.2Q136.7 12.2 135.3 11.8Q133.9 11.5 132.6 10.8L132.6 10.8L133.9 7.9Q134.9 8.5 136.1 8.9Q137.3 9.2 138.4 9.2L138.4 9.2Q139.1 9.2 139.5 9.0Q139.8 8.9 139.8 8.6L139.8 8.6Q139.8 8.2 139.4 8.0Q138.9 7.8 137.8 7.4L137.8 7.4Q136.5 7.1 135.7 6.7Q134.8 6.4 134.2 5.7Q133.5 5.0 133.5 3.8L133.5 3.8Q133.5 2.7 134.2 1.8Q134.9 0.9 136.1 0.4Q137.3-0.1 138.9-0.1L138.9-0.1Q140.3-0.1 141.6 0.3Q142.9 0.6 143.9 1.3L143.9 1.3L142.6 4.1Q141.7 3.5 140.7 3.2Q139.7 2.9 138.8 2.9L138.8 2.9Q138.0 2.9 137.7 3.0Q137.3 3.2 137.3 3.5L137.3 3.5Q137.3 3.9 137.8 4.2Q138.3 4.4 139.3 4.7L139.3 4.7Q140.6 5.0 141.5 5.4Q142.3 5.8 143.0 6.5Q143.6 7.2 143.6 8.3L143.6 8.3Q143.6 10.2 142.2 11.2Q140.8 12.2 138.3 12.2L138.3 12.2Z" fill="foregroundcolor"/></svg>