<svg width="74" height="18" viewBox="5.68 -5.568000000000001 74 18" version="1.1" xmlns="http://www.w3.org/2000/svg"><path d="M18.6-5.0Q19.4-5.0 19.9-4.5Q20.4-4.0 20.4-3.2L20.4-3.2L20.4 10.3Q20.4 11.1 19.9 11.6Q19.4 12.1 18.6 12.1L18.6 12.1Q17.7 12.1 17.2 11.5L17.2 11.5L9.2 1.2L9.2 10.3Q9.2 11.1 8.7 11.6Q8.2 12.1 7.4 12.1L7.4 12.1Q6.6 12.1 6.2 11.6Q5.7 11.1 5.7 10.3L5.7 10.3L5.7-3.2Q5.7-4.0 6.2-4.5Q6.7-5.0 7.5-5.0L7.5-5.0Q8.3-5.0 8.8-4.4L8.8-4.4L16.9 5.8L16.9-3.2Q16.9-4.0 17.3-4.5Q17.8-5.0 18.6-5.0L18.6-5.0ZM33.0-0.0Q33.8-0.0 34.3 0.4Q34.8 0.9 34.8 1.7L34.8 1.7L34.8 10.5Q34.8 11.2 34.3 11.7Q33.8 12.1 32.9 12.1L32.9 12.1Q32.2 12.1 31.7 11.7Q31.3 11.3 31.3 10.6L31.3 10.6L31.3 10.3Q30.7 11.2 29.8 11.7Q28.9 12.2 27.8 12.2L27.8 12.2Q25.6 12.2 24.5 11.0Q23.4 9.7 23.4 7.2L23.4 7.2L23.4 1.7Q23.4 0.9 23.9 0.4Q24.4-0.0 25.2-0.0L25.2-0.0Q26.0-0.0 26.5 0.4Q27.0 0.9 27.0 1.7L27.0 1.7L27.0 7.3Q27.0 8.4 27.4 8.9Q27.9 9.4 28.8 9.4L28.8 9.4Q29.8 9.4 30.5 8.6Q31.2 7.9 31.2 6.7L31.2 6.7L31.2 1.7Q31.2 0.9 31.6 0.4Q32.1-0.0 33.0-0.0L33.0-0.0ZM45.0-0.1Q47.1-0.1 48.1 1.2Q49.1 2.4 49.1 4.9L49.1 4.9L49.1 10.4Q49.1 11.2 48.7 11.7Q48.2 12.1 47.3 12.1L47.3 12.1Q46.5 12.1 46.0 11.7Q45.5 11.2 45.5 10.4L45.5 10.4L45.5 5.1Q45.5 3.9 45.1 3.3Q44.6 2.8 43.7 2.8L43.7 2.8Q42.6 2.8 41.9 3.5Q41.2 4.2 41.2 5.4L41.2 5.4L41.2 10.4Q41.2 11.2 40.7 11.7Q40.2 12.1 39.4 12.1L39.4 12.1Q38.6 12.1 38.1 11.7Q37.6 11.2 37.6 10.4L37.6 10.4L37.6 1.6Q37.6 0.9 38.1 0.4Q38.6-0.0 39.4-0.0L39.4-0.0Q40.2-0.0 40.6 0.4Q41.1 0.9 41.1 1.6L41.1 1.6L41.1 1.9Q41.7 0.9 42.7 0.4Q43.7-0.1 45.0-0.1L45.0-0.1ZM53.7 12.1Q52.9 12.1 52.4 11.7Q51.9 11.3 51.9 10.4L51.9 10.4L51.9 1.7Q51.9 0.8 52.4 0.4Q52.9-0.0 53.7-0.0L53.7-0.0Q54.4-0.0 55.0 0.4Q55.5 0.8 55.5 1.7L55.5 1.7L55.5 10.4Q55.5 11.3 55.0 11.7Q54.4 12.1 53.7 12.1L53.7 12.1ZM53.7-1.9Q52.7-1.9 52.2-2.4Q51.6-2.9 51.6-3.8L51.6-3.8Q51.6-4.6 52.2-5.1Q52.7-5.6 53.7-5.6L53.7-5.6Q54.6-5.6 55.2-5.1Q55.7-4.6 55.7-3.8L55.7-3.8Q55.7-2.9 55.2-2.4Q54.6-1.9 53.7-1.9L53.7-1.9ZM64.8 9.5Q65.5 9.6 65.9 9.9Q66.2 10.2 66.2 10.8L66.2 10.8Q66.2 11.5 65.7 11.8Q65.1 12.2 64.1 12.1L64.1 12.1L63.4 12.1Q59.2 11.7 59.2 7.7L59.2 7.7L59.2 2.9L58.2 2.9Q57.4 2.9 57.0 2.6Q56.6 2.2 56.6 1.6L56.6 1.6Q56.6 0.9 57.0 0.6Q57.4 0.2 58.2 0.2L58.2 0.2L59.2 0.2L59.2-1.7Q59.2-2.4 59.7-2.9Q60.2-3.4 61.0-3.4L61.0-3.4Q61.9-3.4 62.3-2.9Q62.8-2.4 62.8-1.7L62.8-1.7L62.8 0.2L64.5 0.2Q66.1 0.2 66.1 1.6L66.1 1.6Q66.1 2.2 65.7 2.6Q65.3 2.9 64.5 2.9L64.5 2.9L62.8 2.9L62.8 7.9Q62.8 8.7 63.2 9.0Q63.5 9.4 64.1 9.5L64.1 9.5L64.8 9.5ZM73.2 12.2Q71.3 12.2 69.9 11.4Q68.5 10.7 67.7 9.3Q67.0 7.9 67.0 6.0L67.0 6.0Q67.0 4.2 67.7 2.8Q68.5 1.4 69.9 0.7Q71.3-0.1 73.2-0.1L73.2-0.1Q75.1-0.1 76.5 0.7Q77.9 1.4 78.7 2.8Q79.5 4.2 79.5 6.0L79.5 6.0Q79.5 7.9 78.7 9.3Q77.9 10.7 76.5 11.4Q75.1 12.2 73.2 12.2L73.2 12.2ZM73.2 9.4Q75.9 9.4 75.9 6.0L75.9 6.0Q75.9 4.3 75.2 3.5Q74.5 2.7 73.2 2.7L73.2 2.7Q70.6 2.7 70.6 6.0L70.6 6.0Q70.6 9.4 73.2 9.4L73.2 9.4Z" fill="foregroundcolor"/></svg>