<svg width="121" height="24" viewBox="5.21875 -5.40234375 121 24" version="1.1" xmlns="http://www.w3.org/2000/svg"><path d="M14.5-5.4L14.5-5.4Q17.6-5.4 19.3-3.7Q20.9-1.9 20.9 1.2L20.9 1.2Q20.9 4.3 19.8 6.9Q18.6 9.5 16.6 10.9Q14.5 12.2 11.8 12.2L11.8 12.2Q8.7 12.2 6.9 10.5Q5.2 8.7 5.2 5.6L5.2 5.6Q5.2 2.5 6.4-0.1Q7.6-2.7 9.7-4.0Q11.8-5.4 14.5-5.4ZM16.3 1.2L16.3 1.2Q16.3-0.1 15.8-0.8Q15.2-1.6 14.1-1.6L14.1-1.6Q13.0-1.6 12.0-0.6Q11.0 0.4 10.4 2.1Q9.9 3.8 9.9 5.6L9.9 5.6Q9.9 8.4 12.2 8.4L12.2 8.4Q13.3 8.4 14.3 7.5Q15.2 6.5 15.8 4.9Q16.3 3.2 16.3 1.2ZM29.3 12.2L29.3 12.2Q27.6 12.2 26.6 10.5L26.6 10.5L26.5 10.5Q26.4 12.5 25.9 14.9L25.9 14.9L25.3 17.8L20.7 17.8L24.8-1.3L28.4-1.3L28.2 0.2L28.3 0.2Q29.5-1.5 31.4-1.5L31.4-1.5Q33.2-1.5 34.2-0.2Q35.3 1.1 35.3 3.4L35.3 3.4Q35.3 5.8 34.4 7.9Q33.6 10.0 32.3 11.1Q30.9 12.2 29.3 12.2ZM29.6 2.1L29.6 2.1Q29.0 2.1 28.5 2.8Q28.0 3.5 27.7 4.6Q27.4 5.7 27.4 6.9L27.4 6.9Q27.4 7.7 27.6 8.1Q27.9 8.6 28.4 8.6L28.4 8.6Q29.0 8.6 29.5 7.9Q30.0 7.3 30.3 6.1Q30.6 5.0 30.6 3.8L30.6 3.8Q30.6 2.1 29.6 2.1ZM42.5 12.2L42.5 12.2Q40 12.2 38.6 10.8Q37.2 9.5 37.2 7.0L37.2 7.0Q37.2 4.5 38.2 2.5Q39.2 0.5 40.9-0.5Q42.6-1.5 44.8-1.5L44.8-1.5Q47.1-1.5 48.3-0.5Q49.6 0.5 49.6 2.2L49.6 2.2Q49.6 4.5 47.8 5.8Q46.0 7.1 42.5 7.1L42.5 7.1L41.8 7.1L41.8 7.2Q41.8 9.0 43.7 9.0L43.7 9.0Q44.6 9.0 45.5 8.7Q46.4 8.4 47.6 7.8L47.6 7.8L47.6 11.0Q46.2 11.7 45.1 12.0Q44.0 12.2 42.5 12.2ZM44.3 1.6L44.3 1.6Q43.6 1.6 43 2.4Q42.4 3.2 42.3 4.2L42.3 4.2L42.6 4.2Q43.9 4.2 44.6 3.7Q45.3 3.2 45.3 2.4L45.3 2.4Q45.3 2.1 45.1 1.8Q44.9 1.6 44.3 1.6ZM59.4 3.1L59.4 3.1Q59.4 2.6 59.1 2.3Q58.8 2.1 58.5 2.1L58.5 2.1Q57.8 2.1 57.2 2.9Q56.7 3.8 56.3 5.5L56.3 5.5L55.0 12L50.4 12L53.2-1.3L56.8-1.3L56.7 0.6L56.8 0.6Q57.4-0.5 58.3-1.0Q59.2-1.5 60.4-1.5L60.4-1.5Q62.1-1.5 63.0-0.5Q64.0 0.5 64.0 2.3L64.0 2.3Q64.0 3.5 63.7 4.9L63.7 4.9L62.2 12L57.6 12L59.1 4.8Q59.4 3.8 59.4 3.1ZM82.8 6.7L82.8 6.7Q82.8 9.3 81.0 10.8Q79.3 12.2 76.2 12.2L76.2 12.2Q74.9 12.2 73.8 11.9Q72.6 11.7 71.8 11.1L71.8 11.1L71.8 7.0Q72.8 7.6 74.1 8.1Q75.3 8.5 76.4 8.5L76.4 8.5Q77.2 8.5 77.7 8.1Q78.1 7.7 78.1 7.1L78.1 7.1Q78.1 6.8 78.0 6.5Q77.9 6.2 77.6 5.9Q77.3 5.7 76.2 4.7L76.2 4.7Q74.8 3.6 74.2 2.5Q73.6 1.3 73.6-0.0L73.6-0.0Q73.6-1.6 74.4-2.8Q75.1-4.0 76.5-4.7Q77.9-5.4 79.7-5.4L79.7-5.4Q82.5-5.4 84.7-4.1L84.7-4.1L83.1-0.6Q81.1-1.7 79.7-1.7L79.7-1.7Q79.0-1.7 78.6-1.3Q78.2-1.0 78.2-0.4L78.2-0.4Q78.2 0.2 78.5 0.7Q78.9 1.2 80.0 2.0L80.0 2.0Q81.4 3.0 82.1 4.2Q82.8 5.3 82.8 6.7ZM91.1 8.6L91.1 8.6Q91.7 8.6 92.2 7.9Q92.7 7.2 93.1 6.1Q93.4 4.9 93.4 3.8L93.4 3.8Q93.4 3.1 93.1 2.6Q92.9 2.1 92.4 2.1L92.4 2.1Q91.5 2.1 90.8 3.6Q90.1 5.1 90.1 6.9L90.1 6.9Q90.1 8.6 91.1 8.6ZM98.8-1.3L96.0 12L92.3 12L92.5 10.6L92.4 10.6Q91.7 11.5 90.9 11.9Q90.2 12.2 89.2 12.2L89.2 12.2Q87.4 12.2 86.4 10.9Q85.4 9.6 85.4 7.2L85.4 7.2Q85.4 5.1 86.3 2.9Q87.2 0.7 88.5-0.4Q89.8-1.5 91.4-1.5L91.4-1.5Q92.3-1.5 93.1-1.1Q93.8-0.6 94.4 0.4L94.4 0.4L94.5 0.4L95.1-1.3L98.8-1.3ZM108.2 3.1L108.2 3.1Q108.2 2.6 108.0 2.3Q107.7 2.1 107.4 2.1L107.4 2.1Q106.7 2.1 106.1 2.9Q105.6 3.8 105.2 5.5L105.2 5.5L103.8 12L99.3 12L102.1-1.3L105.7-1.3L105.6 0.6L105.7 0.6Q106.3-0.5 107.2-1.0Q108.1-1.5 109.3-1.5L109.3-1.5Q111.0-1.5 111.9-0.5Q112.8 0.5 112.8 2.3L112.8 2.3Q112.8 3.5 112.5 4.9L112.5 4.9L111.1 12L106.5 12L108.0 4.8Q108.2 3.8 108.2 3.1ZM124.4 7.4L124.4 7.4Q124.4 9.7 122.9 11.0Q121.4 12.2 118.5 12.2L118.5 12.2Q115.9 12.2 114.3 11.5L114.3 11.5L114.3 7.9Q115.4 8.4 116.3 8.7Q117.3 8.9 118.2 8.9L118.2 8.9Q119.0 8.9 119.4 8.7Q119.8 8.5 119.8 8.1L119.8 8.1Q119.8 7.7 119.5 7.4Q119.2 7.1 118.0 6.4L118.0 6.4Q116.7 5.7 116.2 4.8Q115.6 3.9 115.6 2.7L115.6 2.7Q115.6 0.7 117.0-0.4Q118.4-1.5 121.0-1.5L121.0-1.5Q122.3-1.5 123.4-1.2Q124.5-0.9 125.5-0.3L125.5-0.3L124.1 2.7Q123.3 2.2 122.5 1.9Q121.7 1.6 121.1 1.6L121.1 1.6Q120.2 1.6 120.2 2.4L120.2 2.4Q120.2 2.7 120.6 3.0Q120.9 3.2 121.8 3.6L121.8 3.6Q124.4 5.0 124.4 7.4Z" fill="foregroundcolor"/></svg>