<svg width="173" height="19" viewBox="4.69140625 -6 173 19" version="1.1" xmlns="http://www.w3.org/2000/svg"><path d="M13.2 12L11.1 4.9L7.3 4.9L6.0 12L4.7 12L7.7-5.1L12.1-5.1Q14.2-5.0 15.2-3.6Q16.3-2.3 16.1-0.1L16.1-0.1Q15.9 1.6 15.0 2.8Q14.0 4.1 12.4 4.6L12.4 4.6L14.7 11.8L14.6 12L13.2 12ZM8.8-3.8L7.5 3.7L10.9 3.7Q12.5 3.7 13.5 2.6Q14.6 1.5 14.8-0.1L14.8-0.1Q14.9-1.7 14.2-2.7Q13.5-3.7 12.1-3.8L12.1-3.8L8.8-3.8ZM23.5-0.9L23.5-0.9Q25.2-0.9 26.2 0.3Q27.1 1.5 27.2 3.6L27.2 3.6Q27.2 4.7 26.9 6.4L26.9 6.4Q26.5 9.2 25.1 10.7Q23.7 12.3 21.6 12.2L21.6 12.2Q20.0 12.2 19.0 11.2Q18.1 10.1 17.9 8.2L17.9 8.2L17.9 7.7Q17.8 6.7 18.1 4.9Q18.4 3.1 19.1 1.8Q19.8 0.5 20.9-0.2Q22.0-1.0 23.5-0.9ZM19.2 6.7L19.2 7.3Q19.1 9.1 19.8 10.0Q20.4 11.0 21.6 11.0L21.6 11.0Q23.2 11.1 24.2 9.9Q25.2 8.8 25.6 6.5L25.6 6.5L25.8 5.0L25.9 4.0Q25.9 2.3 25.3 1.3Q24.6 0.3 23.4 0.3L23.4 0.3Q21.8 0.2 20.7 1.5Q19.7 2.9 19.4 5.2L19.4 5.2L19.2 6.7ZM33.5 12.2L33.5 12.2Q32.5 12.2 31.7 11.7Q30.9 11.2 30.5 10.3L30.5 10.3L30.1 12L28.9 12L32.0-6L33.3-6L32.0 1.1Q33.3-1.0 35.4-0.9L35.4-0.9Q37.1-0.9 37.9 0.4Q38.7 1.6 38.6 3.8L38.6 3.8Q38.6 4.8 38.3 6.3L38.3 6.3Q37.9 9.3 36.7 10.8Q35.5 12.3 33.5 12.2ZM37.0 6.6L37.2 5.0Q37.4 3.8 37.3 3.0L37.3 3.0Q37.2 1.6 36.7 1.0Q36.1 0.3 35.1 0.3L35.1 0.3Q33.0 0.3 31.8 2.6L31.8 2.6L30.7 8.9Q31.3 10.9 33.3 11.0L33.3 11.0Q36.3 11.1 37.0 6.6L37.0 6.6ZM46.5-0.9L46.5-0.9Q48.2-0.9 49.1 0.3Q50.1 1.5 50.1 3.6L50.1 3.6Q50.2 4.7 49.9 6.4L49.9 6.4Q49.5 9.2 48.1 10.7Q46.7 12.3 44.5 12.2L44.5 12.2Q43.0 12.2 42.0 11.2Q41.0 10.1 40.9 8.2L40.9 8.2L40.8 7.7Q40.8 6.7 41.1 4.9Q41.4 3.1 42.1 1.8Q42.8 0.5 43.9-0.2Q45.0-1.0 46.5-0.9ZM42.2 6.7L42.1 7.3Q42.1 9.1 42.7 10.0Q43.4 11.0 44.6 11.0L44.6 11.0Q46.2 11.1 47.2 9.9Q48.2 8.8 48.6 6.5L48.6 6.5L48.8 5.0L48.8 4.0Q48.9 2.3 48.2 1.3Q47.6 0.3 46.4 0.3L46.4 0.3Q44.8 0.2 43.7 1.5Q42.7 2.9 42.4 5.2L42.4 5.2L42.2 6.7ZM55.3-3.9L56.6-3.9L56.0-0.7L58.1-0.7L57.9 0.5L55.8 0.5L54.4 8.9L54.4 9.6Q54.3 10.9 55.3 10.9L55.3 10.9L56.2 10.9L56.1 12.0Q55.6 12.2 54.9 12.2L54.9 12.2Q54.1 12.2 53.6 11.6Q53.2 11.0 53.1 10.0L53.1 10.0Q53.1 9.4 53.1 8.9L53.1 8.9L54.5 0.5L52.6 0.5L52.8-0.7L54.7-0.7L55.3-3.9ZM64.6-0.9L64.6-0.9Q66.4-0.9 67.3 0.3Q68.3 1.5 68.3 3.6L68.3 3.6Q68.3 4.7 68.1 6.4L68.1 6.4Q67.7 9.2 66.2 10.7Q64.8 12.3 62.7 12.2L62.7 12.2Q61.1 12.2 60.2 11.2Q59.2 10.1 59.0 8.2L59.0 8.2L59.0 7.7Q59.0 6.7 59.3 4.9Q59.5 3.1 60.3 1.8Q61.0 0.5 62.1-0.2Q63.2-1.0 64.6-0.9ZM60.3 6.7L60.3 7.3Q60.3 9.1 60.9 10.0Q61.6 11.0 62.8 11.0L62.8 11.0Q64.3 11.1 65.4 9.9Q66.4 8.8 66.8 6.5L66.8 6.5L67.0 5.0L67.0 4.0Q67.1 2.3 66.4 1.3Q65.8 0.3 64.5 0.3L64.5 0.3Q63.0 0.2 61.9 1.5Q60.8 2.9 60.5 5.2L60.5 5.2L60.3 6.7ZM85.2 6.7L86.5 6.7Q86.0 9.5 84.4 10.9Q82.9 12.3 80.6 12.2L80.6 12.2Q78.8 12.2 77.7 11.0Q76.6 9.7 76.4 7.5L76.4 7.5L76.4 6.8Q76.4 6.0 76.5 5.3L76.5 5.3L77.1 1.6Q77.6-1.7 79.2-3.5Q80.9-5.4 83.4-5.3L83.4-5.3Q85.6-5.3 86.7-3.8Q87.8-2.3 87.6 0.3L87.6 0.3L86.3 0.3Q86.4-1.9 85.6-3.0Q84.9-4.0 83.3-4.0L83.3-4.0Q81.4-4.1 80.1-2.6Q78.8-1.2 78.4 1.6L78.4 1.6L77.8 5.5L77.7 6.5Q77.7 7.7 78.0 8.8Q78.3 9.8 79.0 10.4Q79.6 11.0 80.7 11.0L80.7 11.0Q82.4 11.1 83.5 10.1Q84.6 9.1 85.2 6.7L85.2 6.7ZM94.8-0.9L94.8-0.9Q96.5-0.9 97.5 0.3Q98.4 1.5 98.5 3.6L98.5 3.6Q98.5 4.7 98.2 6.4L98.2 6.4Q97.8 9.2 96.4 10.7Q95.0 12.3 92.9 12.2L92.9 12.2Q91.3 12.2 90.3 11.2Q89.4 10.1 89.2 8.2L89.2 8.2L89.2 7.7Q89.1 6.7 89.4 4.9Q89.7 3.1 90.4 1.8Q91.1 0.5 92.2-0.2Q93.4-1.0 94.8-0.9ZM90.5 6.7L90.5 7.3Q90.4 9.1 91.1 10.0Q91.7 11.0 93.0 11.0L93.0 11.0Q94.5 11.1 95.5 9.9Q96.6 8.8 96.9 6.5L96.9 6.5L97.1 5.0L97.2 4.0Q97.2 2.3 96.6 1.3Q95.9 0.3 94.7 0.3L94.7 0.3Q93.1 0.2 92.1 1.5Q91 2.9 90.7 5.2L90.7 5.2L90.5 6.7ZM102.4-0.7L103.7-0.7L103.3 1.3Q104.8-1.0 106.9-0.9L106.9-0.9Q109.2-0.9 109.5 2.0L109.5 2.0L109.6 2.7L109.5 3.8L108.1 12L106.8 12L108.2 3.7L108.3 3.0Q108.3 0.4 106.4 0.3L106.4 0.3Q105.4 0.3 104.4 1.1Q103.4 2.0 103.0 3.2L103.0 3.2L101.5 12L100.2 12L102.4-0.7ZM117.2-0.9L117.2-0.9Q119.3-0.8 120.1 1.0L120.1 1.0L121.4-6L122.7-6L119.6 12L118.4 12L118.7 10.4Q117.3 12.3 115.3 12.2L115.3 12.2Q113.7 12.2 112.8 11.0Q112.0 9.8 112.1 7.5L112.1 7.5Q112.1 6.6 112.3 4.9L112.3 4.9Q112.8 1.9 114.0 0.5Q115.2-1.0 117.2-0.9ZM113.6 5.1L113.5 6.3Q113.3 7.5 113.4 8.3L113.4 8.3Q113.5 11.0 115.6 11.0L115.6 11.0Q117.5 11.1 118.8 9.0L118.8 9.0L119.9 2.4Q119.3 0.4 117.4 0.3L117.4 0.3Q114.2 0.2 113.6 5.1L113.6 5.1ZM127.4 12.2L127.4 12.2Q125.3 12.2 124.3 10.6Q123.3 9.1 123.6 6.5L123.6 6.5L123.7 5.3Q124.1 2.3 125.5 0.7Q127.0-1.0 129.1-0.9L129.1-0.9Q130.7-0.9 131.5 0.1Q132.4 1.0 132.5 2.7L132.5 2.7Q132.5 3.7 132.4 4.7L132.4 4.7L132.3 5.8L125.0 5.8L124.9 6.5Q124.8 7.3 124.8 8.0L124.8 8.0Q124.9 9.4 125.6 10.2Q126.3 11.0 127.5 11.0L127.5 11.0Q128.4 11.1 129.2 10.7Q129.9 10.3 130.6 9.7L130.6 9.7L131.2 10.6Q129.8 12.3 127.4 12.2ZM129.0 0.3L129.0 0.3Q127.6 0.2 126.6 1.3Q125.6 2.4 125.1 4.6L125.1 4.6L131.1 4.6L131.2 4.2Q131.3 3.6 131.3 2.9L131.3 2.9Q131.2 1.7 130.6 1.0Q130.0 0.3 129.0 0.3ZM136.0-0.7L137.2-0.7L136.8 1.3Q138.4-1.0 140.4-0.9L140.4-0.9Q142.8-0.9 143.1 2.0L143.1 2.0L143.1 2.7L143.1 3.8L141.7 12L140.4 12L141.8 3.7L141.8 3.0Q141.9 0.4 140.0 0.3L140.0 0.3Q139.0 0.3 138.0 1.1Q136.9 2.0 136.6 3.2L136.6 3.2L135.1 12L133.8 12L136.0-0.7ZM151.9 8.8L151.9 8.8Q152.0 7.5 150.3 6.5L150.3 6.5L149.7 6.2L148.5 5.5Q146.6 4.4 146.7 2.6L146.7 2.6Q146.8 1.1 147.9 0.1Q149.1-0.9 150.8-0.9L150.8-0.9Q152.4-0.9 153.3 0.2Q154.2 1.2 154.1 2.8L154.1 2.8L152.8 2.8Q152.9 1.7 152.3 1.0Q151.7 0.3 150.7 0.3L150.7 0.3Q149.6 0.3 148.8 0.9Q148.1 1.5 147.9 2.5L147.9 2.5Q147.8 3.7 149.2 4.5L149.2 4.5L151.3 5.6Q153.3 6.8 153.2 8.7L153.2 8.7Q153.1 10.3 151.9 11.3Q150.6 12.3 148.9 12.2L148.9 12.2Q147.2 12.2 146.2 11.2Q145.2 10.2 145.3 8.5L145.3 8.5L146.6 8.5Q146.5 9.7 147.2 10.4Q147.8 11.0 149.0 11.0L149.0 11.0Q150.1 11.0 150.9 10.4Q151.7 9.8 151.9 8.8ZM160.0 12.2L160.0 12.2Q157.9 12.2 156.9 10.6Q155.9 9.1 156.2 6.5L156.2 6.5L156.3 5.3Q156.7 2.3 158.1 0.7Q159.6-1.0 161.7-0.9L161.7-0.9Q163.3-0.9 164.1 0.1Q165.0 1.0 165.1 2.7L165.1 2.7Q165.1 3.7 165.0 4.7L165.0 4.7L164.9 5.8L157.6 5.8L157.5 6.5Q157.4 7.3 157.4 8.0L157.4 8.0Q157.5 9.4 158.2 10.2Q158.9 11.0 160.1 11.0L160.1 11.0Q161.0 11.1 161.8 10.7Q162.5 10.3 163.2 9.7L163.2 9.7L163.8 10.6Q162.4 12.3 160.0 12.2ZM161.6 0.3L161.6 0.3Q160.2 0.2 159.2 1.3Q158.2 2.4 157.7 4.6L157.7 4.6L163.8 4.6L163.8 4.2Q163.9 3.6 163.9 2.9L163.9 2.9Q163.8 1.7 163.2 1.0Q162.6 0.3 161.6 0.3ZM172.1-0.9L172.1-0.9Q174.2-0.8 175.0 1.0L175.0 1.0L176.2-6L177.5-6L174.4 12L173.2 12L173.5 10.4Q172.2 12.3 170.1 12.2L170.1 12.2Q168.5 12.2 167.7 11.0Q166.9 9.8 166.9 7.5L166.9 7.5Q166.9 6.6 167.2 4.9L167.2 4.9Q167.6 1.9 168.8 0.5Q170.1-1.0 172.1-0.9ZM168.5 5.1L168.3 6.3Q168.2 7.5 168.2 8.3L168.2 8.3Q168.3 11.0 170.4 11.0L170.4 11.0Q172.3 11.1 173.6 9.0L173.6 9.0L174.7 2.4Q174.2 0.4 172.2 0.3L172.2 0.3Q169.1 0.2 168.5 5.1L168.5 5.1Z" fill="foregroundcolor"/></svg>