<svg width="76" height="19" viewBox="5.2890625 -6 76 19" version="1.1" xmlns="http://www.w3.org/2000/svg"><path d="M14.6 12L11.6 6.0L9.4 6.0L9.4 12L5.3 12L5.3-5.1L12.0-5.1Q15.0-5.1 16.8-3.7Q18.5-2.4 18.5 0.1L18.5 0.1Q18.5 1.9 17.7 3.0Q17.0 4.2 15.5 4.9L15.5 4.9L19.0 11.8L19.0 12L14.6 12ZM9.4-1.9L9.4 2.8L12.0 2.8Q13.2 2.8 13.8 2.2Q14.4 1.6 14.4 0.5Q14.4-0.6 13.8-1.3Q13.2-1.9 12.0-1.9L12.0-1.9L9.4-1.9ZM20.3 6.2L20.3 5.5Q20.3 3.6 21.0 2.2Q21.7 0.7 23.1-0.1Q24.5-0.9 26.4-0.9L26.4-0.9Q29.2-0.9 30.9 0.8Q32.5 2.6 32.5 5.6L32.5 5.6L32.5 5.8Q32.5 8.8 30.9 10.5Q29.2 12.2 26.4 12.2L26.4 12.2Q23.7 12.2 22.0 10.6Q20.4 9.0 20.3 6.2L20.3 6.2ZM24.2 5.1L24.2 5.8Q24.2 7.5 24.8 8.4Q25.3 9.2 26.4 9.2L26.4 9.2Q28.5 9.2 28.6 5.9L28.6 5.9L28.6 5.5Q28.6 2.1 26.4 2.1L26.4 2.1Q24.4 2.1 24.2 5.1L24.2 5.1ZM46.0 5.6L46.0 5.8Q46.0 8.9 44.7 10.6Q43.4 12.2 41.1 12.2L41.1 12.2Q39.2 12.2 38.0 10.7L38.0 10.7L37.8 12L34.3 12L34.3-6L38.2-6L38.2 0.3Q39.3-0.9 41.1-0.9L41.1-0.9Q43.4-0.9 44.7 0.8Q46.0 2.5 46.0 5.6L46.0 5.6ZM42.1 5.5L42.1 5.5Q42.1 3.7 41.6 2.9Q41.1 2.1 40.1 2.1L40.1 2.1Q38.7 2.1 38.2 3.2L38.2 3.2L38.2 8.2Q38.7 9.2 40.1 9.2L40.1 9.2Q41.5 9.2 41.9 7.8L41.9 7.8Q42.1 7.2 42.1 5.5ZM47.3 6.2L47.3 5.5Q47.3 3.6 48.0 2.2Q48.7 0.7 50.1-0.1Q51.5-0.9 53.4-0.9L53.4-0.9Q56.2-0.9 57.8 0.8Q59.5 2.6 59.5 5.6L59.5 5.6L59.5 5.8Q59.5 8.8 57.8 10.5Q56.2 12.2 53.4 12.2L53.4 12.2Q50.7 12.2 49.0 10.6Q47.4 9.0 47.3 6.2L47.3 6.2ZM51.2 5.1L51.2 5.8Q51.2 7.5 51.8 8.4Q52.3 9.2 53.4 9.2L53.4 9.2Q55.5 9.2 55.5 5.9L55.5 5.9L55.5 5.5Q55.5 2.1 53.4 2.1L53.4 2.1Q51.4 2.1 51.2 5.1L51.2 5.1ZM61.9-3.8L65.8-3.8L65.8-0.7L67.9-0.7L67.9 2.1L65.8 2.1L65.8 7.9Q65.8 8.6 66.1 8.9Q66.3 9.1 67.1 9.1L67.1 9.1Q67.7 9.1 68.1 9.1L68.1 9.1L68.1 11.9Q67.0 12.2 65.9 12.2L65.9 12.2Q63.8 12.2 62.9 11.3Q61.9 10.3 61.9 8.4L61.9 8.4L61.9 2.1L60.3 2.1L60.3-0.7L61.9-0.7L61.9-3.8ZM68.6 6.2L68.6 5.5Q68.6 3.6 69.4 2.2Q70.1 0.7 71.5-0.1Q72.9-0.9 74.7-0.9L74.7-0.9Q77.6-0.9 79.2 0.8Q80.9 2.6 80.9 5.6L80.9 5.6L80.9 5.8Q80.9 8.8 79.2 10.5Q77.6 12.2 74.7 12.2L74.7 12.2Q72.0 12.2 70.4 10.6Q68.8 9.0 68.6 6.2L68.6 6.2ZM72.6 5.1L72.6 5.8Q72.6 7.5 73.1 8.4Q73.7 9.2 74.7 9.2L74.7 9.2Q76.9 9.2 76.9 5.9L76.9 5.9L76.9 5.5Q76.9 2.1 74.7 2.1L74.7 2.1Q72.7 2.1 72.6 5.1L72.6 5.1Z" fill="foregroundcolor"/></svg>