<svg width="73" height="19" viewBox="4.8203125 -6 73 19" version="1.1" xmlns="http://www.w3.org/2000/svg"><path d="M15.1 12L12.3 4.9L7.5 4.9L6.3 12L4.8 12L7.8-5.1L12.8-5.1Q15.4-5.1 16.8-3.7Q18.2-2.4 17.9-0.1L17.9-0.1Q17.8 1.6 16.7 2.8Q15.5 4.1 13.7 4.6L13.7 4.6L16.6 11.8L16.6 12L15.1 12ZM9.0-3.8L7.7 3.7L11.9 3.7Q13.7 3.7 15.0 2.6Q16.3 1.6 16.5-0.1L16.5-0.1Q16.7-1.8 15.8-2.8Q14.9-3.8 13.0-3.8L13.0-3.8L9.0-3.8ZM19.7 5.9L19.8 5.5Q20.0 3.7 20.9 2.2Q21.8 0.6 23.2-0.2Q24.5-0.9 26.1-0.9L26.1-0.9Q27.7-0.9 28.8-0.1Q29.9 0.8 30.4 2.2Q30.9 3.7 30.8 5.4L30.8 5.4L30.8 5.7Q30.4 8.7 28.6 10.5Q26.9 12.3 24.4 12.2L24.4 12.2Q22.2 12.2 21.0 10.7Q19.7 9.1 19.7 6.6L19.7 6.6L19.7 5.9ZM21.2 5.7L21.1 5.9Q21.0 7.3 21.3 8.5Q21.7 9.7 22.5 10.4Q23.3 11.0 24.4 11.1L24.4 11.1Q25.7 11.1 26.8 10.4Q27.8 9.8 28.5 8.5Q29.2 7.3 29.4 5.8L29.4 5.8L29.4 5.4Q29.6 3.2 28.7 1.8Q27.8 0.3 26.1 0.3L26.1 0.3Q24.2 0.2 22.8 1.7Q21.5 3.2 21.2 5.7L21.2 5.7ZM43.6 5.5L43.6 5.7Q43.2 8.7 41.7 10.5Q40.2 12.3 37.9 12.2L37.9 12.2Q36.7 12.2 35.7 11.7Q34.8 11.2 34.3 10.3L34.3 10.3L33.9 12L32.6 12L35.7-6L37.1-6L35.8 1.2Q37.4-1.0 39.9-0.9L39.9-0.9Q41.7-0.9 42.7 0.4Q43.7 1.7 43.7 4.0L43.7 4.0Q43.7 4.8 43.6 5.5L43.6 5.5ZM42.2 5.4L42.2 5.4L42.3 4.3Q42.4 2.4 41.7 1.4Q40.9 0.3 39.6 0.3L39.6 0.3Q37.0 0.2 35.5 2.9L35.5 2.9L34.6 8.6Q34.9 9.8 35.7 10.4Q36.6 11.0 37.8 11.0L37.8 11.0Q39.5 11.1 40.7 9.7Q41.9 8.3 42.2 5.4ZM45.9 5.9L46.0 5.5Q46.2 3.7 47.1 2.2Q48.0 0.6 49.4-0.2Q50.7-0.9 52.3-0.9L52.3-0.9Q53.9-0.9 55.0-0.1Q56.1 0.8 56.6 2.2Q57.1 3.7 57.0 5.4L57.0 5.4L56.9 5.7Q56.6 8.7 54.8 10.5Q53.0 12.3 50.5 12.2L50.5 12.2Q48.4 12.2 47.1 10.7Q45.9 9.1 45.9 6.6L45.9 6.6L45.9 5.9ZM47.3 5.7L47.3 5.9Q47.2 7.3 47.5 8.5Q47.9 9.7 48.7 10.4Q49.4 11.0 50.6 11.1L50.6 11.1Q51.9 11.1 52.9 10.4Q54.0 9.8 54.7 8.5Q55.3 7.3 55.5 5.8L55.5 5.8L55.6 5.4Q55.8 3.2 54.9 1.8Q54.0 0.3 52.2 0.3L52.2 0.3Q50.4 0.2 49.0 1.7Q47.6 3.2 47.3 5.7L47.3 5.7ZM62.3-3.9L63.7-3.9L63.1-0.7L65.7-0.7L65.5 0.5L62.9 0.5L61.5 8.9L61.5 9.7Q61.5 10.9 62.7 11.0L62.7 11.0Q63.0 11.0 63.8 10.9L63.8 10.9L63.7 12.0Q63.1 12.2 62.3 12.2L62.3 12.2Q61.1 12.2 60.5 11.3Q60.0 10.5 60.1 8.9L60.1 8.9L61.5 0.5L59.3 0.5L59.5-0.7L61.7-0.7L62.3-3.9ZM66.4 5.9L66.5 5.5Q66.7 3.7 67.6 2.2Q68.5 0.6 69.9-0.2Q71.2-0.9 72.8-0.9L72.8-0.9Q74.4-0.9 75.5-0.1Q76.6 0.8 77.1 2.2Q77.6 3.7 77.5 5.4L77.5 5.4L77.5 5.7Q77.1 8.7 75.3 10.5Q73.6 12.3 71.1 12.2L71.1 12.2Q68.9 12.2 67.7 10.7Q66.4 9.1 66.4 6.6L66.4 6.6L66.4 5.9ZM67.9 5.7L67.8 5.9Q67.7 7.3 68.0 8.5Q68.4 9.7 69.2 10.4Q70.0 11.0 71.1 11.1L71.1 11.1Q72.4 11.1 73.5 10.4Q74.5 9.8 75.2 8.5Q75.9 7.3 76.1 5.8L76.1 5.8L76.1 5.4Q76.3 3.2 75.4 1.8Q74.5 0.3 72.8 0.3L72.8 0.3Q70.9 0.2 69.5 1.7Q68.2 3.2 67.9 5.7L67.9 5.7Z" fill="foregroundcolor"/></svg>