<svg width="56" height="36" viewBox="0 0 56 36" fill="none" xmlns="http://www.w3.org/2000/svg">
<path fill-rule="evenodd" clip-rule="evenodd" d="M12.2194 27.9239L12.5105 26.4524C12.6676 26.4835 12.8311 26.5 13 26.5H13.9375V28H13C12.7329 28 12.4718 27.9738 12.2194 27.9239ZM42.0625 28V26.5H43C43.1689 26.5 43.3324 26.4835 43.4895 26.4524L43.7806 27.9239C43.5282 27.9738 43.2671 28 43 28H42.0625ZM45.2225 27.3263L44.388 26.0798C44.6613 25.8969 44.8969 25.6613 45.0798 25.388L46.3263 26.2225C46.0342 26.6587 45.6587 27.0342 45.2225 27.3263ZM47 13H45.5V12C45.5 11.8311 45.4835 11.6676 45.4524 11.5105L46.9239 11.2194C46.9738 11.4718 47 11.7329 47 12V13ZM46.3263 9.77754L45.0798 10.612C44.8969 10.3387 44.6613 10.1031 44.388 9.92019L45.2225 8.67374C45.6587 8.96577 46.0342 9.34133 46.3263 9.77754ZM13.9375 8H13C12.7329 8 12.4718 8.02619 12.2194 8.07614L12.5105 9.54762C12.6676 9.51653 12.8311 9.5 13 9.5H13.9375V8ZM10.7775 8.67374L11.612 9.92019C11.3387 10.1031 11.1031 10.3387 10.9202 10.612L9.67374 9.77754C9.96577 9.34133 10.3413 8.96577 10.7775 8.67374ZM9 23H10.5V24C10.5 24.1689 10.5165 24.3324 10.5476 24.4895L9.07614 24.7806C9.02619 24.5282 9 24.2671 9 24V23ZM10.7775 27.3263L11.612 26.0798C11.3387 25.8969 11.1031 25.6613 10.9202 25.388L9.67374 26.2225C9.96577 26.6587 10.3413 27.0342 10.7775 27.3263ZM9 21H10.5V19H9V21ZM9 17H10.5V15H9V17ZM9 13H10.5V12C10.5 11.8311 10.5165 11.6676 10.5476 11.5105L9.07614 11.2194C9.02619 11.4718 9 11.7329 9 12V13ZM15.8125 8V9.5H17.6875V8H15.8125ZM19.5625 8V9.5H21.4375V8H19.5625ZM23.3125 8V9.5H25.1875V8H23.3125ZM27.0625 8V9.5H28.9375V8H27.0625ZM30.8125 8V9.5H32.6875V8H30.8125ZM34.5625 8V9.5H36.4375V8H34.5625ZM38.3125 8V9.5H40.1875V8H38.3125ZM42.0625 8V9.5H43C43.1689 9.5 43.3324 9.51653 43.4895 9.54762L43.7806 8.07614C43.5282 8.02619 43.2671 8 43 8H42.0625ZM47 15H45.5V17H47V15ZM47 19H45.5V21H47V19ZM47 23H45.5V24C45.5 24.1689 45.4835 24.3324 45.4524 24.4895L46.9239 24.7806C46.9738 24.5282 47 24.2671 47 24V23ZM40.1875 28V26.5H38.3125V28H40.1875ZM36.4375 28V26.5H34.5625V28H36.4375ZM32.6875 28V26.5H30.8125V28H32.6875ZM28.9375 28V26.5H27.0625V28H28.9375ZM25.1875 28V26.5H23.3125V28H25.1875ZM21.4375 28V26.5H19.5625V28H21.4375ZM17.6875 28V26.5H15.8125V28H17.6875Z" fill="currentcolor" />
</svg>
