<?xml version="1.0" encoding="UTF-8" standalone="no"?>
<svg width="16px" height="16px" viewBox="0 0 16 16" version="1.1" xmlns="http://www.w3.org/2000/svg" xmlns:xlink="http://www.w3.org/1999/xlink" xmlns:sketch="http://www.bohemiancoding.com/sketch/ns">
    <!-- Generator: Sketch 3.3.3 (12072) - http://www.bohemiancoding.com/sketch -->
    <title>Triangle 29 Copy</title>
    <desc>Created with Sketch.</desc>
    <defs></defs>
    <g id="Page-1" stroke="none" stroke-width="1" fill="none" fill-rule="evenodd" sketch:type="MSPage">
        <path d="M7.99758966,1 C8.32413066,1 15.3521121,12.0172666 14.986197,12.586106 C14.8079126,12.863261 7.99758959,12.8742628 7.99758959,12.8742628 C7.99758959,12.8742628 1.15905987,12.8602399 1.00898234,12.586106 C0.716302904,12.0514932 7.67104867,1 7.99758966,1 Z" id="Triangle-29-Copy" stroke="#EB7F3C" stroke-width="1.5" fill="#EB7F3C" sketch:type="MSShapeGroup"></path>
        <path d="M8.39,10.4 L7.54,10.4 L7.54,4.9 L8.39,4.9 L8.39,10.4 Z M7.97,11.19 C8.1633343,11.19 8.32499935,11.2549994 8.455,11.385 C8.58500065,11.5150007 8.65,11.6733324 8.65,11.86 C8.65,12.0466676 8.583334,12.206666 8.45,12.34 C8.316666,12.473334 8.15833425,12.54 7.975,12.54 C7.79166575,12.54 7.633334,12.473334 7.5,12.34 C7.366666,12.206666 7.3,12.0466676 7.3,11.86 C7.3,11.6733324 7.366666,11.5150007 7.5,11.385 C7.633334,11.2549994 7.7899991,11.19 7.97,11.19 L7.97,11.19 Z" id="!-copy-6" fill="#FFFFFF" sketch:type="MSShapeGroup"></path>
    </g>
</svg>