<svg xmlns="http://www.w3.org/2000/svg" width="20" height="20" viewBox="0 0 20 20">
  <g fill="none" fill-rule="evenodd">
    <circle cx="10" cy="10" r="10" fill="#0078F0"/>
    <g fill="#FFF" fill-rule="nonzero" transform="translate(4.727 4.336)">
      <path d="M3.07701111 5.55988808L2.6849497 5.55988808.0414174848.287380219C-.0247804895.155348206.0714714118 0 .219501002 0L2.9601018 0C3.03551663 0 3.10446799.042490387 3.13818532.109762955 3.97218673 1.77316648 4.59768778 3.02071913 5.01468848 3.85242089 5.20493163 4.23185804 4.55903917 4.80101377 3.07701111 5.55988808zM7.3651886 5.55988808L7.8619253 5.55988808 10.5054575.287380219C10.5716555.155348206 10.4754036 0 10.327374 0L7.58674986 0C7.51133504 0 7.44238368.042490387 7.40866634.109762955 6.569126 1.78422812 5.93947074 3.04007699 5.51970057 3.87730957 5.33223208 4.25121591 5.94739475 4.81207541 7.3651886 5.55988808z"/>
      <path d="M5.2734375,11.9140625 C2.96410525,11.9140625 1.09202157,10.0471249 1.09202157,7.74414062 C1.09202157,5.44115637 2.96410525,3.57421875 5.2734375,3.57421875 C7.58276975,3.57421875 9.45485343,5.44115637 9.45485343,7.74414062 C9.45485343,10.0471249 7.58276975,11.9140625 5.2734375,11.9140625 Z M4.6684375,6.6500625 L4.6684375,10.0160625 C4.6684375,10.1660632 4.68793731,10.287562 4.7269375,10.3805625 C4.7659377,10.473563 4.82143714,10.5470622 4.8934375,10.6010625 C4.96543786,10.6550628 5.05393698,10.6910624 5.1589375,10.7090625 C5.26393803,10.7270626 5.38243684,10.7360625 5.5144375,10.7360625 C5.64643816,10.7360625 5.77693686,10.7255626 5.9059375,10.7045625 C6.03493815,10.6835624 6.13243717,10.6670626 6.1984375,10.6550625 L6.1984375,5.9660625 C6.1984375,5.70806121 6.12343825,5.50406325 5.9734375,5.3540625 C5.82343675,5.20406175 5.61943879,5.1290625 5.3614375,5.1290625 L5.0284375,5.1290625 L4.0204375,5.4710625 C3.58243531,5.61506322 3.3634375,5.8670607 3.3634375,6.2270625 C3.3634375,6.41906346 3.40843705,6.56906196 3.4984375,6.6770625 C3.58843795,6.78506304 3.67843705,6.8690622 3.7684375,6.9290625 L4.6684375,6.6500625 Z"/>
    </g>
  </g>
</svg>
