<svg width="32" height="32" viewBox="0 0 32 32" fill="none" xmlns="http://www.w3.org/2000/svg">
<path fill-rule="evenodd" clip-rule="evenodd" d="M32 16C32 7.16344 24.8366 0 16 0C7.16344 0 0 7.16344 0 16C0 24.8366 7.16344 32 16 32C24.8366 32 32 24.8366 32 16ZM2.5 16C2.5 8.54416 8.54416 2.5 16 2.5C23.4558 2.5 29.5 8.54416 29.5 16C29.5 23.4558 23.4558 29.5 16 29.5C8.54416 29.5 2.5 23.4558 2.5 16Z" fill="white"/>
<rect x="10.5" y="9.5" width="4" height="13" rx="0.5" fill="white"/>
<rect x="17.5" y="9.5" width="4" height="13" rx="0.5" fill="white"/>
</svg>
