<svg width="18" height="18" viewBox="0 0 18 18" fill="none" xmlns="http://www.w3.org/2000/svg">
<path fill-rule="evenodd" clip-rule="evenodd" d="M3.70209 3.79482C3.34308 3.79482 3.01457 3.99669 2.85236 4.31696L0.682754 8.60078C0.544849 8.87306 0.545785 9.19495 0.685269 9.46643L2.85407 13.6876C3.01722 14.0052 3.34427 14.2048 3.70128 14.2048H8.72926C8.73695 14.2051 8.74467 14.2052 8.75242 14.2052H14.3173C14.7837 14.2052 15.2075 13.934 15.4029 13.5105L17.2667 9.47035C17.4143 9.1505 17.4133 8.78184 17.264 8.4628L15.4018 4.48393C15.2051 4.06367 14.7831 3.79518 14.319 3.79518H9.45083C9.44313 3.79494 9.43541 3.79482 9.42766 3.79482H3.70209ZM8.72926 5.29482H4.03852L2.14711 9.02935L4.03552 12.7048H9.42766C9.43541 12.7048 9.44313 12.7049 9.45083 12.7052H14.1225L15.8454 8.97047L14.1254 5.29518H8.75242C8.74467 5.29518 8.73695 5.29506 8.72926 5.29482Z" fill="#27292A"/>
</svg>
