<?xml version="1.0" encoding="UTF-8" standalone="no"?>
<svg width="16px" height="16px" viewBox="0 0 16 16" version="1.1" xmlns="http://www.w3.org/2000/svg" xmlns:xlink="http://www.w3.org/1999/xlink">
    <!-- Generator: Sketch 46.2 (44496) - http://www.bohemiancoding.com/sketch -->
    <title>ic_scallops</title>
    <desc>Created with Sketch.</desc>
    <defs></defs>
    <g id="icon" stroke="none" stroke-width="1" fill="none" fill-rule="evenodd">
        <g id="图标" transform="translate(-2606.000000, -1219.000000)">
            <g id="ic-straight-copy-13" transform="translate(2606.000000, 1219.000000)">
                <rect id="ic_rectangle" stroke="#DEDEDE" stroke-width="0.81" opacity="0" x="0.405" y="0.405" width="15.19" height="15.19"></rect>
                <path d="M14.0003662,7.5 C14.0003662,7.12883111 14.0936303,6.87230834 14.310962,6.47278144 C14.3503268,6.40067848 14.3674039,6.36921555 14.384841,6.3360882 C14.4696633,6.17494095 14.5,6.08443309 14.5,6 C14.5,4.06700338 12.9329966,2.5 11,2.5 C10.5954762,2.5 10.1895517,2.63304187 9.55610805,2.93708405 C8.45890421,3.46372323 8.39484744,3.48993406 7.97783809,3.47143244 C7.74773288,3.46122326 7.51198941,3.39415177 7.22122958,3.27318768 C7.11563376,3.22925692 7.00553788,3.17951471 6.86130792,3.11154521 C6.82085395,3.09248095 6.57125764,2.97359771 6.49771328,2.93914891 C5.84856215,2.63508104 5.42399057,2.5 5,2.5 C3.06700338,2.5 1.5,4.06700338 1.5,6 C1.5,6.08748648 1.53499005,6.18678874 1.63237667,6.36690006 C1.66401832,6.4247875 1.66401832,6.4247875 1.69903337,6.48777117 C1.92544349,6.89585611 2.01929208,7.13854905 2.02352414,7.49404814 C2.02787769,7.85975219 1.93259371,8.10685278 1.69752642,8.52444573 C1.66472731,8.58261154 1.66472731,8.58261154 1.63488226,8.63633575 C1.53527332,8.8173548 1.5,8.91512973 1.5,9 C1.5,10.9329966 3.06700338,12.5 5,12.5 C5.16986108,12.5 5.3603913,12.4737504 5.57033508,12.4223567 C5.88028033,12.346483 6.2139011,12.2220339 6.61145325,12.043036 C6.78048725,11.9669284 7.29003031,11.7243651 7.33980282,11.7014929 C7.64689851,11.5603717 7.81242639,11.5003327 7.99346815,11.4979675 C8.18092103,11.4955184 8.35052152,11.5557416 8.66244523,11.698549 C8.7289582,11.7290005 9.23238785,11.9689797 9.39688472,12.0432623 C9.79265941,12.2219839 10.1232794,12.3459202 10.4306012,12.4217802 C10.6403784,12.4735621 10.8305721,12.5 11,12.5 C12.9329966,12.5 14.5,10.9329966 14.5,9 C14.5,8.91556691 14.4696633,8.82505905 14.384841,8.6639118 C14.3674039,8.63078445 14.3503268,8.59932152 14.310962,8.52721856 C14.0936303,8.12769166 14.0003662,7.87116889 14.0003662,7.5 Z" id="Combined-Shape" stroke="#434B54"></path>
            </g>
        </g>
    </g>
</svg>