<svg width="18" height="18" viewBox="0 0 18 18" fill="none" xmlns="http://www.w3.org/2000/svg">
<path fill-rule="evenodd" clip-rule="evenodd" d="M1.91477 3.59C1.27688 3.59 0.759766 4.10711 0.759766 4.745V11.035C0.759766 11.6729 1.27688 12.19 1.91477 12.19H2.98597C2.98528 12.2032 2.98492 12.2166 2.98492 12.23V13.4546C2.98492 14.0925 3.50204 14.6096 4.13992 14.6096H16.2899C16.9278 14.6096 17.4449 14.0925 17.4449 13.4546V6.56964C17.4449 5.93175 16.9278 5.41464 16.2899 5.41464H15.0749C15.0598 5.41464 15.0447 5.41509 15.0298 5.41598V4.745C15.0298 4.10711 14.5127 3.59 13.8748 3.59H1.91477ZM15.0298 6.91331V11.035C15.0298 11.6729 14.5127 12.19 13.8748 12.19H4.48388C4.48457 12.2032 4.48492 12.2166 4.48492 12.23V13.1096H15.9449V6.91464H15.0749C15.0598 6.91464 15.0447 6.91419 15.0298 6.91331ZM2.25977 10.69V5.09H13.5298V10.69H2.25977Z" fill="#27292A"/>
</svg>
