<svg width="18" height="18" viewBox="0 0 18 18" fill="none" xmlns="http://www.w3.org/2000/svg">
<path fill-rule="evenodd" clip-rule="evenodd" d="M8.1961 2.43155C8.54003 1.79027 9.4596 1.79027 9.80352 2.43156L11.6164 5.81195L15.3339 6.52385C16.0373 6.65855 16.3181 7.51428 15.8313 8.03953L13.2255 10.8509L13.7112 14.6846C13.8022 15.4022 13.0615 15.935 12.41 15.6206L8.99981 13.9747L5.58958 15.6206C4.93815 15.935 4.19748 15.4023 4.28839 14.6847L4.77409 10.8509L2.16835 8.03952C1.68152 7.51427 1.96231 6.65855 2.6657 6.52385L6.38313 5.81195L8.1961 2.43155ZM8.9998 4.1067L7.36722 7.15076L3.98935 7.79762L6.3502 10.3448L5.91256 13.7992L8.99981 12.3091L12.087 13.7991L11.6494 10.3448L14.0103 7.79762L10.6323 7.15076L8.9998 4.1067Z" fill="#27292A"/>
</svg>
