<svg width="18" height="18" viewBox="0 0 18 18" fill="none" xmlns="http://www.w3.org/2000/svg">
<path fill-rule="evenodd" clip-rule="evenodd" d="M0.97998 9.59521C0.97998 8.18336 1.90696 7.18507 2.94802 6.7002L3.34733 7.45604C2.49166 7.85535 2.04957 8.65397 2.04957 9.09607C2.10661 9.06755 2.2207 9.02476 2.34905 9.02476C2.94802 9.02476 3.34733 9.48112 3.34733 10.0658C3.34733 10.6363 2.93376 11.1212 2.23496 11.1212C1.5219 11.1212 0.97998 10.4509 0.97998 9.59521ZM3.87499 9.59521C3.87499 8.18336 4.80197 7.18507 5.84303 6.7002L6.25661 7.45604C5.38668 7.85535 4.94458 8.65397 4.94458 9.09607C5.00163 9.06755 5.11572 9.02476 5.25833 9.02476C5.84303 9.02476 6.24235 9.48112 6.24235 10.0658C6.24235 10.6363 5.84304 11.1212 5.12998 11.1212C4.41692 11.1212 3.87499 10.4509 3.87499 9.59521ZM17.0003 8.34001C17.0003 9.75186 16.0733 10.7501 15.0322 11.2208L14.6329 10.4792C15.4886 10.0656 15.9307 9.28125 15.9307 8.82489C15.8736 8.86767 15.7595 8.89619 15.6312 8.89619C15.0322 8.89619 14.6329 8.43984 14.6329 7.85513C14.6329 7.29895 15.0465 6.7998 15.7453 6.7998C16.4583 6.7998 17.0003 7.47008 17.0003 8.34001ZM14.1052 8.34001C14.1052 9.75186 13.1783 10.7501 12.1372 11.2208L11.7236 10.4792C12.5936 10.0656 13.0357 9.28125 13.0357 8.82489C12.9786 8.86767 12.8645 8.89619 12.7219 8.89619C12.1372 8.89619 11.7379 8.43984 11.7379 7.85513C11.7379 7.29895 12.1372 6.7998 12.8503 6.7998C13.5633 6.7998 14.1052 7.47008 14.1052 8.34001Z" fill="#27292A"/>
</svg>
