<svg width="18" height="18" viewBox="0 0 18 18" fill="none" xmlns="http://www.w3.org/2000/svg">
<path fill-rule="evenodd" clip-rule="evenodd" d="M17.0343 6.18396C17.0343 5.64906 16.6671 5.18414 16.1467 5.06033L9.28274 3.42717C9.10746 3.38546 8.92485 3.38534 8.74952 3.42682L1.84347 5.06041C1.32239 5.18367 0.954346 5.64892 0.954346 6.18439V8.99456C0.954346 9.0016 0.954443 9.00862 0.954636 9.01561V11.8046C0.954636 12.3395 1.32191 12.8044 1.84229 12.9282L8.70624 14.5614C8.88153 14.6031 9.06413 14.6032 9.23947 14.5618L16.1455 12.9282C16.6666 12.8049 17.0346 12.3396 17.0346 11.8042V8.99401C17.0346 8.98697 17.0345 8.97995 17.0343 8.97296V6.18396ZM15.5346 9.01558C15.5344 9.00859 15.5343 9.00159 15.5343 8.99456V6.4565L9.01516 4.90537L2.45435 6.4573V8.97299C2.45454 8.97998 2.45464 8.98698 2.45464 8.99401V11.5321L8.97383 13.0832L15.5346 11.5313V9.01558Z" fill="#27292A"/>
</svg>
