<?xml version="1.0" encoding="UTF-8"?>
<svg width="24px" height="24px" viewBox="0 0 24 24" version="1.1" xmlns="http://www.w3.org/2000/svg" xmlns:xlink="http://www.w3.org/1999/xlink">
    <!-- Generator: Sketch 56 (81588) - https://sketch.com -->
    <title>month_jul@16</title>
    <desc>Created with Sketch.</desc>
    <g id="month_jul" stroke="none" stroke-width="1" fill="none" fill-rule="evenodd">
        <g id="Group-7">
            <path d="M24,12 C24,18.627 18.627,24 12,24 C5.373,24 0,18.627 0,12 C0,5.373 5.373,0 12,0 C18.627,0 24,5.373 24,12" id="Fill-1" fill="#297DF8"></path>
            <path d="M11.7407,5.8398 L11.7407,14.0588 C11.7297,15.1658 11.4547,16.0078 10.9137,16.5818 C10.3727,17.1568 9.5807,17.4438 8.5367,17.4438 C8.0777,17.4438 7.6467,17.3608 7.2427,17.1948 C6.8397,17.0288 6.4847,16.7908 6.1787,16.4798 L6.7487,14.7708 C6.9967,14.9718 7.2657,15.1268 7.5557,15.2368 C7.8457,15.3488 8.1357,15.4028 8.4257,15.4028 C9.0487,15.3878 9.3597,14.9238 9.3597,14.0118 L9.3597,5.8398 L11.7407,5.8398 Z" id="Fill-3" fill="#FFFFFF"></path>
            <path d="M16.582,15.4121 L16.582,17.2551 L16.044,17.2551 C15.406,17.2551 14.912,17.1771 14.561,17.0211 C14.21,16.8661 13.958,16.6091 13.805,16.2501 C13.652,15.8911 13.576,15.3881 13.576,14.7391 L13.576,5.1831 L15.87,5.1831 L15.87,14.4541 C15.87,14.7181 15.89,14.9171 15.929,15.0521 C15.969,15.1861 16.033,15.2801 16.123,15.3331 C16.213,15.3861 16.342,15.4121 16.511,15.4121 L16.582,15.4121 Z" id="Fill-5" fill="#FFFFFF"></path>
        </g>
    </g>
</svg>