<svg xmlns="http://www.w3.org/2000/svg" viewBox="0 0 24 24" width="24" height="24"><g class="uk-icon-alternate-dark" fill="none"><path d="M16.015 13.64a.5.5 0 0 0 0 .792l3.18 2.448a.5.5 0 0 0 .805-.396v-4.897a.5.5 0 0 0-.805-.396l-3.18 2.448Z" fill="#27292A"/><path d="M18.5 6.5h-13M13.5 16.5h-8M13.5 11.5h-8" stroke="#27292A" stroke-width="1.6" stroke-linecap="round"/></g><g class="uk-icon-alternate-default" fill="none"><path d="M16.015 13.64a.5.5 0 0 0 0 .792l3.18 2.448a.5.5 0 0 0 .805-.396v-4.897a.5.5 0 0 0-.805-.396l-3.18 2.448Z" fill="#27292A"/><path d="M18.5 6.5h-13M13.5 16.5h-8M13.5 11.5h-8" stroke="#27292A" stroke-width="1.6" stroke-linecap="round"/></g></svg>