<svg width="20" height="20" viewBox="0 0 20 20" fill="none" xmlns="http://www.w3.org/2000/svg">
<path d="M5.8678 10.7548C6.3975 10.7548 6.8269 10.3254 6.8269 9.79565C6.8269 9.26595 6.3975 8.83655 5.8678 8.83655C5.3381 8.83655 4.90869 9.26595 4.90869 9.79565C4.90869 10.3254 5.3381 10.7548 5.8678 10.7548Z" fill="#27292A"/>
<path d="M9.06299 6.81409C9.06299 7.34379 8.63358 7.77319 8.10388 7.77319C7.57418 7.77319 7.14478 7.34379 7.14478 6.81409C7.14478 6.28439 7.57418 5.85498 8.10388 5.85498C8.63358 5.85498 9.06299 6.28439 9.06299 6.81409Z" fill="#27292A"/>
<path d="M11.8303 7.77319C12.36 7.77319 12.7894 7.34379 12.7894 6.81409C12.7894 6.28439 12.36 5.85498 11.8303 5.85498C11.3006 5.85498 10.8712 6.28439 10.8712 6.81409C10.8712 7.34379 11.3006 7.77319 11.8303 7.77319Z" fill="#27292A"/>
<path d="M15.0256 9.79565C15.0256 10.3254 14.5962 10.7548 14.0665 10.7548C13.5368 10.7548 13.1074 10.3254 13.1074 9.79565C13.1074 9.26595 13.5368 8.83655 14.0665 8.83655C14.5962 8.83655 15.0256 9.26595 15.0256 9.79565Z" fill="#27292A"/>
<path fill-rule="evenodd" clip-rule="evenodd" d="M2.19995 10.267C2.19995 5.98388 5.68383 2.5 9.96692 2.5C14.0554 2.5 17.7339 5.44932 17.7339 9.4836C17.7339 12.0224 15.8169 14.0125 13.2365 14.0125H11.598C11.3648 14.0125 11.164 14.0228 10.9938 14.0472C10.8695 14.0651 10.7838 14.0875 10.7282 14.107C10.8066 14.2311 10.9209 14.3648 11.0867 14.5508C11.0887 14.5529 11.096 14.5605 11.1116 14.5762C11.1323 14.5969 11.1587 14.6227 11.1929 14.6554L11.2548 14.7146C11.31 14.7671 11.3773 14.8312 11.4345 14.8872C11.5158 14.9667 11.6301 15.0811 11.7313 15.2018C11.7803 15.2603 11.8574 15.3568 11.9297 15.4778C11.9666 15.5396 12.0176 15.6328 12.0621 15.7508C12.1037 15.8611 12.1645 16.0572 12.1645 16.3074C12.1645 17.0202 11.7343 17.4772 11.4065 17.6913C11.1217 17.8773 10.8356 17.9453 10.6904 17.9742C10.3885 18.0342 10.0842 18.034 9.97577 18.0339L9.96692 18.0339C5.68383 18.0339 2.19995 14.5501 2.19995 10.267ZM10.7083 14.0743L10.7091 14.0726L10.7095 14.0714C10.7094 14.0714 10.709 14.0723 10.7083 14.0743ZM8.72632 16.4105C5.86346 15.833 3.69995 13.2971 3.69995 10.267C3.69995 6.8123 6.51225 4 9.96692 4C13.4216 4 16.2339 6.45979 16.2339 9.4836C16.2339 11.2148 14.9678 12.5125 13.2365 12.5125H11.598C10.517 12.5125 9.2947 12.6953 9.19693 14.0641C9.173 14.399 9.33096 14.7272 9.53049 15.0141C9.58283 15.0893 9.63804 15.1617 9.69357 15.2307C9.78788 15.3477 9.88313 15.4548 9.96692 15.5488C10.0291 15.6185 10.1275 15.7123 10.231 15.8109C10.4376 16.0077 10.6645 16.2239 10.6645 16.3074C10.6645 16.5268 10.1863 16.5339 9.96692 16.5339C9.69886 16.5339 9.43466 16.517 9.17535 16.4842C9.10102 16.4747 9.0271 16.464 8.9536 16.452C8.87737 16.4396 8.8016 16.4257 8.72632 16.4105Z" fill="#27292A"/>
</svg>
