<svg width="140" height="140" viewBox="0 0 140 140" fill="none" xmlns="http://www.w3.org/2000/svg">
<path d="M12.9325 47.6154C12.9335 47.6151 12.9345 47.6148 12.9355 47.6145L12.9325 47.6154ZM11.0951 48.8141C10.9828 49.4608 11.1427 50.0671 11.4751 50.544C5.89564 57.2969 3.10321 67.251 3.04276 77.4145C2.97577 88.6762 6.25055 100.639 13.3107 109.53C13.1357 109.687 12.9712 109.851 12.8186 110.021C12.1588 110.756 11.6358 111.715 11.6358 112.866C11.6358 114.501 12.6682 115.725 13.7354 116.559C14.8371 117.421 16.3356 118.161 18.0686 118.813C21.5196 120.111 26.3678 121.227 32.1785 122.127C58.6378 131.425 87.4971 131.143 108.401 122.165C113.821 121.335 118.417 120.317 121.841 119.141L121.813 119.789C121.717 122.068 124.041 123.66 126.131 122.747L126.759 122.472L127.337 122.84C129.262 124.063 131.803 122.846 132.057 120.579L132.134 119.898L132.741 119.581C134.763 118.525 134.979 115.716 133.143 114.363L132.592 113.957L132.621 113.272C132.717 110.993 130.393 109.401 128.303 110.314L128.263 110.332C127.927 109.899 127.529 109.524 127.123 109.203C126.718 108.882 126.259 108.58 125.756 108.293C130.94 100.925 134.122 91.8485 135.798 82.8996C137.63 73.117 137.693 63.3232 136.502 55.7797C134.996 46.2413 130.774 38.1115 124.832 31.57C125.763 30.5253 126.563 29.4253 127.115 28.3606C127.518 27.582 127.848 26.7104 127.929 25.8227C128.012 24.9045 127.832 23.8317 127.036 22.9615C125.324 21.0891 122.85 21.3583 121.143 21.954C120.059 22.3325 118.983 22.9283 118.018 23.635C116.78 22.1752 115.256 20.7788 113.746 19.8206C112.701 19.1571 111.452 18.5677 110.183 18.4852C109.518 18.442 108.787 18.5351 108.091 18.89C108.005 18.9341 107.921 18.9811 107.839 19.0311C105.919 18.0988 103.946 17.2634 101.932 16.5268C92.1624 12.9525 83.9462 12.0818 76.429 13.9546C72.5809 13.8861 68.6364 13.3636 66.9264 13.064C65.5664 12.8258 64.2708 13.7352 64.0325 15.0952C63.796 16.4454 64.6907 17.7323 66.0345 17.9838C65.6049 18.4117 65.2011 18.8649 64.8248 19.3359C61.0624 21.928 57.4307 25.2732 53.7609 29.2924C48.5335 35.0178 42.69 36.514 35.6634 38.2684L35.6036 38.2833C32.0282 39.176 28.1523 40.1437 24.1093 41.8322L24.4571 39.8307C24.7526 38.1295 23.1638 36.7068 21.5054 37.1878L19.1274 37.8775L17.2266 36.2906C15.9011 35.1841 13.8746 35.8487 13.462 37.5254L12.8703 39.9297L10.5456 40.7824C8.92457 41.377 8.48692 43.4643 9.73263 44.66L11.519 46.3746L11.0951 48.8141ZM131.702 120.124L131.704 120.122L131.702 120.124ZM13.7017 39.6247L13.7 39.6253C13.7006 39.6251 13.7011 39.6249 13.7017 39.6247L13.7017 39.6247ZM12.1579 46.9879C12.1575 46.9875 12.1571 46.9871 12.1567 46.9868L12.1579 46.9879L12.1579 46.9879ZM20.5161 39.1459L21.4027 39.3L20.4954 39.5631L20.5161 39.1459Z" fill="#E8FCFF" stroke="white" stroke-width="4"/>
<path fill-rule="evenodd" clip-rule="evenodd" d="M15.9777 48.8145C-1.37537 63.4325 1.22464 107.894 28.8083 118.74C57.4395 129.997 89.4986 129.507 111.034 118.74C132.569 107.972 137.464 74.6903 134.527 56.0916C132.98 46.2937 128.442 38.0486 122.062 31.5499C124.891 28.8805 126.806 25.6735 125.56 24.3109C123.799 22.3841 119.918 24.243 117.71 26.5458C115.304 22.8765 109.85 18.4796 108.223 21.4592C105.973 20.3004 103.64 19.281 101.245 18.405C81.1782 11.0634 68.8166 15.7688 55.2379 30.6409C49.5595 36.8602 43.1498 38.4605 36.1479 40.2088C32.0655 41.228 27.7819 42.2976 23.3245 44.3621L22.0094 43.0998C21.9288 43.0225 21.892 42.9102 21.9111 42.8003L22.4866 39.4882C22.5291 39.2438 22.3008 39.0394 22.0625 39.1085L18.834 40.0449C18.7268 40.076 18.6111 40.0518 18.5255 39.9802L15.9449 37.8259C15.7545 37.6669 15.4633 37.7624 15.404 38.0033L14.6007 41.2675C14.574 41.3759 14.4952 41.4639 14.3904 41.5023L11.2344 42.66C11.0015 42.7454 10.9386 43.0453 11.1176 43.217L13.5428 45.5449C13.6233 45.6222 13.6602 45.7344 13.6411 45.8444L13.0656 49.1564C13.0231 49.4008 13.2514 49.6052 13.4896 49.5361L15.9777 48.8145Z" fill="#A5D8FF"/>
<path fill-rule="evenodd" clip-rule="evenodd" d="M21.9111 42.8003C21.892 42.9102 21.9289 43.0225 22.0094 43.0998L23.3245 44.3621C27.7819 42.2976 32.0655 41.228 36.1479 40.2088C43.1498 38.4605 49.5595 36.8602 55.2379 30.6409C68.8167 15.7688 81.1782 11.0635 101.245 18.405C103.64 19.281 105.973 20.3004 108.223 21.4592C109.614 18.9111 113.805 21.7578 116.494 24.9306C116.95 25.4678 117.362 26.0144 117.71 26.5458C118.159 26.0775 118.677 25.6276 119.233 25.2242C121.408 23.6435 124.157 22.7759 125.56 24.3109C126.712 25.5712 125.16 28.4093 122.683 30.9405C122.482 31.146 122.274 31.3495 122.062 31.5499C122.51 32.0063 122.949 32.4712 123.378 32.9447C129.064 39.2143 133.088 46.9817 134.527 56.0916C137.464 74.6903 132.569 107.972 111.034 118.74C89.4986 129.507 57.4395 129.997 28.8083 118.74C2.77308 108.503 -1.00473 68.3184 13.2448 51.5472C13.4489 51.307 13.6567 51.0716 13.8682 50.8412C14.5348 50.1147 15.2381 49.4375 15.9777 48.8145L13.4896 49.5361C13.2514 49.6052 13.0231 49.4008 13.0656 49.1564L13.6411 45.8444C13.6602 45.7345 13.6234 45.6222 13.5428 45.5449L11.1176 43.2171C10.9386 43.0453 11.0015 42.7454 11.2344 42.66L14.3904 41.5023C14.4952 41.4639 14.574 41.3759 14.6007 41.2675L15.404 38.0033C15.4633 37.7624 15.7545 37.6669 15.9449 37.8259L18.5255 39.9802C18.6111 40.0518 18.7268 40.076 18.834 40.0449L22.0626 39.1085C22.3008 39.0394 22.5291 39.2438 22.4866 39.4882L21.9111 42.8003ZM12.9325 47.6153C12.9336 47.615 12.9345 47.6147 12.9356 47.6144ZM11.4749 50.5436C11.1426 50.0667 10.9828 49.4605 11.0951 48.8141L11.519 46.3745L9.73265 44.6599C8.48694 43.4643 8.92459 41.3769 10.5457 40.7823L12.8703 39.9296L13.462 37.5253C13.8746 35.8486 15.9012 35.184 17.2266 36.2906L19.1274 37.8774L21.5054 37.1877C23.1638 36.7067 24.7527 38.1294 24.4571 39.8306L24.1093 41.8321C28.1523 40.1436 32.0282 39.1759 35.6036 38.2833L35.6634 38.2683C42.69 36.5139 48.5335 35.0178 53.761 29.2924C60.6653 21.7304 67.4508 16.5361 75.251 14.2721C83.0832 11.9988 91.6446 12.763 101.932 16.5267C103.946 17.2633 105.919 18.0987 107.839 19.031C107.921 18.9811 108.005 18.934 108.091 18.89C108.787 18.5351 109.518 18.4419 110.183 18.4852C111.452 18.5677 112.701 19.157 113.746 19.8206C115.256 20.7787 116.78 22.1751 118.018 23.635C118.983 22.9283 120.059 22.3324 121.143 21.9539C122.85 21.3583 125.324 21.0891 127.036 22.9614C127.832 23.8316 128.012 24.9045 127.929 25.8226C127.848 26.7103 127.518 27.582 127.115 28.3606C126.563 29.4253 125.763 30.5253 124.832 31.5699C130.774 38.1115 134.996 46.2412 136.502 55.7797C138.017 65.3704 137.509 78.6411 133.875 90.9198C130.249 103.174 123.396 114.795 111.928 120.529C89.7854 131.6 57.1213 132.021 28.0765 120.601C13.3746 114.821 5.54618 100.185 3.55969 85.4592C1.82639 72.6103 4.45617 59.0353 11.4749 50.5436Z" fill="black"/>
<path d="M17.5514 72.2431C17.5514 73.054 16.894 73.7114 16.0831 73.7114C15.2721 73.7114 14.6147 73.054 14.6147 72.2431C14.6147 71.4321 15.2721 70.7747 16.0831 70.7747C16.894 70.7747 17.5514 71.4321 17.5514 72.2431Z" fill="#FF859B"/>
<path d="M129.143 50.7078C129.143 51.5187 128.486 52.1761 127.675 52.1761C126.864 52.1761 126.207 51.5187 126.207 50.7078C126.207 49.8969 126.864 49.2395 127.675 49.2395C128.486 49.2395 129.143 49.8969 129.143 50.7078Z" fill="#FF859B"/>
<path d="M23.666 66.4906C23.666 67.3682 22.9545 68.0797 22.0769 68.0797C21.1992 68.0797 20.4878 67.3682 20.4878 66.4906C20.4878 65.6129 21.1992 64.9015 22.0769 64.9015C22.9545 64.9015 23.666 65.6129 23.666 66.4906Z" fill="#FFF9DB"/>
<path d="M20.4878 101.12C20.4878 101.661 20.0495 102.099 19.5089 102.099C18.9683 102.099 18.53 101.661 18.53 101.12C18.53 100.579 18.9683 100.141 19.5089 100.141C20.0495 100.141 20.4878 100.579 20.4878 101.12Z" fill="#FFF9DB"/>
<path d="M127.474 85.6213C128.249 85.8585 128.686 86.6794 128.449 87.4548C128.211 88.2303 127.391 88.6667 126.615 88.4296C125.84 88.1924 125.403 87.3715 125.64 86.5961C125.877 85.8206 126.698 85.3842 127.474 85.6213Z" fill="#FF859B"/>
<path d="M103.998 32.0492C104.773 32.2863 105.209 33.1072 104.972 33.8827C104.735 34.6582 103.914 35.0946 103.139 34.8574C102.363 34.6203 101.927 33.7994 102.164 33.0239C102.401 32.2484 103.222 31.812 103.998 32.0492Z" fill="#E8FCFF"/>
<path d="M89.1686 27.485C89.4271 27.564 89.5726 27.8376 89.4935 28.0961C89.4145 28.3546 89.1408 28.5001 88.8823 28.4211C88.6239 28.342 88.4784 28.0684 88.5574 27.8099C88.6365 27.5514 88.9101 27.4059 89.1686 27.485Z" fill="#FFF385"/>
<path d="M123.761 78.0916C124.6 78.3483 125.073 79.2367 124.816 80.0759C124.559 80.9152 123.671 81.3875 122.832 81.1308C121.992 80.8742 121.52 79.9858 121.777 79.1465C122.033 78.3073 122.922 77.835 123.761 78.0916Z" fill="#FFF9DB"/>
<path d="M15.5935 60.0071C15.5935 60.5478 15.1552 60.986 14.6146 60.986C14.074 60.986 13.6357 60.5478 13.6357 60.0071C13.6357 59.4665 14.074 59.0283 14.6146 59.0283C15.1552 59.0283 15.5935 59.4665 15.5935 60.0071Z" fill="#FFF385"/>
<path d="M127.185 112.866C127.185 118.273 101.766 122.655 70.4105 122.655C39.0547 122.655 13.6357 118.273 13.6357 112.866C13.6357 107.46 39.0547 103.078 70.4105 103.078C101.766 103.078 127.185 107.46 127.185 112.866Z" fill="#F2FDFF"/>
<path fill-rule="evenodd" clip-rule="evenodd" d="M126.523 111.366C122.336 116.061 98.8081 119.655 70.4105 119.655C42.013 119.655 18.4849 116.061 14.2982 111.366C13.862 111.855 13.6357 112.356 13.6357 112.866C13.6357 118.273 39.0547 122.655 70.4105 122.655C101.766 122.655 127.185 118.273 127.185 112.866C127.185 112.356 126.959 111.855 126.523 111.366Z" fill="#C6D3D6"/>
<path fill-rule="evenodd" clip-rule="evenodd" d="M110.896 121.759C100.479 123.555 86.1662 124.655 70.4105 124.655C54.6548 124.655 40.342 123.555 29.9249 121.759C24.7325 120.864 20.4115 119.78 17.3424 118.529C15.817 117.907 14.4849 117.198 13.5005 116.369C12.5337 115.554 11.6357 114.387 11.6357 112.866C11.6357 111.346 12.5337 110.179 13.5005 109.364C14.4849 108.535 15.817 107.826 17.3424 107.204C20.4115 105.953 24.7325 104.869 29.9249 103.974C40.342 102.178 54.6548 101.078 70.4105 101.078C86.1662 101.078 100.479 102.178 110.896 103.974C116.089 104.869 120.409 105.953 123.479 107.204C125.004 107.826 126.336 108.535 127.321 109.364C128.287 110.179 129.185 111.346 129.185 112.866C129.185 114.387 128.287 115.554 127.321 116.369C126.336 117.198 125.004 117.907 123.479 118.529C120.409 119.78 116.089 120.864 110.896 121.759ZM70.4105 122.655C101.766 122.655 127.185 118.273 127.185 112.866C127.185 107.46 101.766 103.078 70.4105 103.078C39.0547 103.078 13.6357 107.46 13.6357 112.866C13.6357 118.273 39.0547 122.655 70.4105 122.655Z" fill="black"/>
<g filter="url(#filter0_i_3614_1907)">
<path d="M101.735 111.888C101.735 114.05 87.9295 115.803 70.9 115.803C53.8705 115.803 40.0654 114.05 40.0654 111.888C40.0654 109.725 53.8705 107.972 70.9 107.972C87.9295 107.972 101.735 109.725 101.735 111.888Z" fill="#BEAC8A" fill-opacity="0.5"/>
</g>
<path fill-rule="evenodd" clip-rule="evenodd" d="M74.3335 16.179C74.4817 16.994 73.9411 17.7749 73.126 17.9231C71.0701 18.2969 68.9308 20.1698 67.3805 22.9832C65.852 25.7572 65.1016 29.0946 65.5303 31.8812C65.6563 32.7 65.0947 33.4659 64.2759 33.5919C63.4571 33.7178 62.6912 33.1562 62.5652 32.3374C62.0151 28.7612 62.9778 24.757 64.753 21.5354C66.5064 18.3532 69.2615 15.5765 72.5893 14.9715C73.4044 14.8233 74.1853 15.3639 74.3335 16.179Z" fill="black"/>
<path fill-rule="evenodd" clip-rule="evenodd" d="M75.631 15.7074C76.0395 16.4281 75.7865 17.3436 75.0658 17.7521C73.4912 18.6446 72.8598 19.7644 72.6911 20.9372C72.5101 22.1957 72.8424 23.6895 73.5635 25.2348C74.2768 26.7633 75.3106 28.2118 76.3408 29.3205C76.8541 29.8731 77.3482 30.3213 77.778 30.6446C78.2316 30.9857 78.5253 31.1206 78.643 31.1533C79.4412 31.375 79.9086 32.2018 79.6869 33C79.4652 33.7982 78.6385 34.2656 77.8402 34.0439C77.1952 33.8648 76.5499 33.4747 75.9747 33.0421C75.3757 32.5916 74.7512 32.0172 74.143 31.3625C72.9297 30.0567 71.7077 28.3523 70.8449 26.5034C69.99 24.6715 69.4263 22.5636 69.7217 20.5101C70.0294 18.3708 71.2469 16.4683 73.5864 15.1422C74.3071 14.7337 75.2225 14.9867 75.631 15.7074Z" fill="black"/>
<path fill-rule="evenodd" clip-rule="evenodd" d="M65.0174 15.2676C65.1604 14.4516 65.9378 13.906 66.7538 14.049C68.886 14.4225 74.3174 15.1208 78.8777 14.9294C79.7054 14.8947 80.4045 15.5375 80.4393 16.3652C80.474 17.1929 79.8312 17.892 79.0035 17.9268C74.1423 18.1308 68.4754 17.3962 66.2361 17.004C65.4201 16.861 64.8745 16.0836 65.0174 15.2676Z" fill="black"/>
<path d="M85.834 37.5655C86.3735 41.8567 83.3322 45.7728 79.0411 46.3123C74.7499 46.8518 70.8339 43.8106 70.2943 39.5194C69.7548 35.2282 72.7961 31.3122 77.0872 30.7726C81.3784 30.2331 85.2944 33.2744 85.834 37.5655Z" fill="#EC2222"/>
<path fill-rule="evenodd" clip-rule="evenodd" d="M87.8183 37.316C88.4957 42.7031 84.6777 47.6193 79.2906 48.2967C73.9035 48.974 68.9873 45.156 68.3099 39.7689C67.6326 34.3818 71.4506 29.4656 76.8377 28.7882C82.2248 28.1109 87.141 31.9289 87.8183 37.316ZM79.0411 46.3123C83.3322 45.7727 86.3735 41.8567 85.834 37.5655C85.2944 33.2744 81.3784 30.2331 77.0872 30.7726C72.796 31.3122 69.7548 35.2282 70.2943 39.5194C70.8339 43.8105 74.7499 46.8518 79.0411 46.3123Z" fill="black"/>
<path d="M71.0213 37.4548C71.6283 42.2823 68.2069 46.6879 63.3793 47.2949C58.5518 47.9019 54.1462 44.4804 53.5392 39.6529C52.9322 34.8253 56.3537 30.4197 61.1812 29.8128C66.0088 29.2058 70.4144 32.6272 71.0213 37.4548Z" fill="#EC2222"/>
<path fill-rule="evenodd" clip-rule="evenodd" d="M73.0057 37.2053C73.7505 43.1288 69.5523 48.5345 63.6288 49.2793C57.7053 50.024 52.2996 45.8259 51.5549 39.9024C50.8101 33.9789 55.0082 28.5732 60.9317 27.8284C66.8552 27.0836 72.2609 31.2818 73.0057 37.2053ZM63.3793 47.2949C68.2069 46.6879 71.6283 42.2823 71.0213 37.4548C70.4143 32.6272 66.0088 29.2058 61.1812 29.8128C56.3537 30.4198 52.9322 34.8253 53.5392 39.6529C54.1462 44.4804 58.5518 47.9019 63.3793 47.2949Z" fill="black"/>
<path d="M28.8945 64.5802C28.8945 60.7155 32.0275 57.5825 35.8923 57.5825H108.203C112.067 57.5825 115.2 60.7155 115.2 64.5802C115.2 68.445 112.067 71.578 108.203 71.578H35.8923C32.0275 71.578 28.8945 68.445 28.8945 64.5802Z" fill="#FFE066"/>
<path fill-rule="evenodd" clip-rule="evenodd" d="M35.8923 55.5825H108.203C113.172 55.5825 117.2 59.6109 117.2 64.5802C117.2 69.5496 113.172 73.578 108.203 73.578H35.8923C30.923 73.578 26.8945 69.5496 26.8945 64.5802C26.8945 59.6109 30.923 55.5825 35.8923 55.5825ZM35.8923 57.5825C32.0275 57.5825 28.8945 60.7155 28.8945 64.5802C28.8945 68.445 32.0275 71.578 35.8923 71.578H108.203C112.067 71.578 115.2 68.445 115.2 64.5802C115.2 60.7155 112.067 57.5825 108.203 57.5825H35.8923Z" fill="black"/>
<path d="M28.8945 78.5758C28.8945 74.711 32.0275 71.578 35.8923 71.578H108.203C112.067 71.578 115.2 74.711 115.2 78.5758C115.2 82.4406 112.067 85.5736 108.203 85.5736H35.8923C32.0275 85.5736 28.8945 82.4406 28.8945 78.5758Z" fill="#FFE066"/>
<path fill-rule="evenodd" clip-rule="evenodd" d="M35.8923 69.578H108.203C113.172 69.578 117.2 73.6065 117.2 78.5758C117.2 83.5451 113.172 87.5736 108.203 87.5736H35.8923C30.923 87.5736 26.8945 83.5451 26.8945 78.5758C26.8945 73.6065 30.923 69.578 35.8923 69.578ZM35.8923 71.578C32.0275 71.578 28.8945 74.711 28.8945 78.5758C28.8945 82.4406 32.0275 85.5736 35.8923 85.5736H108.203C112.067 85.5736 115.2 82.4406 115.2 78.5758C115.2 74.711 112.067 71.578 108.203 71.578H35.8923Z" fill="black"/>
<path d="M28.8945 92.5716C28.8945 88.7069 32.0275 85.5739 35.8923 85.5739H108.203C112.067 85.5739 115.2 88.7069 115.2 92.5716C115.2 96.4364 112.067 99.5694 108.203 99.5694H35.8923C32.0275 99.5694 28.8945 96.4364 28.8945 92.5716Z" fill="#FFE066"/>
<path fill-rule="evenodd" clip-rule="evenodd" d="M35.8923 83.5739H108.203C113.172 83.5739 117.2 87.6023 117.2 92.5716C117.2 97.541 113.172 101.569 108.203 101.569H35.8923C30.923 101.569 26.8945 97.541 26.8945 92.5716C26.8945 87.6023 30.923 83.5739 35.8923 83.5739ZM35.8923 85.5739C32.0275 85.5739 28.8945 88.7069 28.8945 92.5716C28.8945 96.4364 32.0275 99.5694 35.8923 99.5694H108.203C112.067 99.5694 115.2 96.4364 115.2 92.5716C115.2 88.7069 112.067 85.5739 108.203 85.5739H35.8923Z" fill="black"/>
<path d="M28.8945 106.567C28.8945 102.702 32.0275 99.5691 35.8923 99.5691H108.203C112.067 99.5691 115.2 102.702 115.2 106.567C115.2 110.432 112.067 113.565 108.203 113.565H35.8923C32.0275 113.565 28.8945 110.432 28.8945 106.567Z" fill="#FFE066"/>
<path fill-rule="evenodd" clip-rule="evenodd" d="M35.8923 97.5691H108.203C113.172 97.5691 117.2 101.597 117.2 106.567C117.2 111.536 113.172 115.565 108.203 115.565H35.8923C30.923 115.565 26.8945 111.536 26.8945 106.567C26.8945 101.597 30.923 97.5691 35.8923 97.5691ZM35.8923 99.5691C32.0275 99.5691 28.8945 102.702 28.8945 106.567C28.8945 110.432 32.0275 113.565 35.8923 113.565H108.203C112.067 113.565 115.2 110.432 115.2 106.567C115.2 102.702 112.067 99.5691 108.203 99.5691H35.8923Z" fill="black"/>
<path fill-rule="evenodd" clip-rule="evenodd" d="M29.969 68.3079C31.2081 70.2727 33.3978 71.578 35.8923 71.578H108.203C112.067 71.578 115.2 68.445 115.2 64.5802C115.2 61.8005 113.58 59.3993 111.231 58.2701C111.912 59.3493 112.306 60.6276 112.306 61.9978C112.306 65.8625 109.173 68.9955 105.308 68.9955H32.9978C31.9128 68.9955 30.8855 68.7486 29.969 68.3079Z" fill="#FCC419"/>
<path fill-rule="evenodd" clip-rule="evenodd" d="M29.969 82.3035C31.2081 84.2683 33.3978 85.5736 35.8923 85.5736H108.203C112.067 85.5736 115.2 82.4406 115.2 78.5758C115.2 75.796 113.58 73.3948 111.231 72.2657C111.912 73.3449 112.306 74.6231 112.306 75.9933C112.306 79.8581 109.173 82.9911 105.308 82.9911H32.9978C31.9128 82.9911 30.8855 82.7442 29.969 82.3035Z" fill="#FCC419"/>
<path fill-rule="evenodd" clip-rule="evenodd" d="M29.969 96.2993C31.2081 98.2641 33.3978 99.5694 35.8923 99.5694H108.203C112.067 99.5694 115.2 96.4364 115.2 92.5716C115.2 89.7919 113.58 87.3906 111.231 86.2615C111.912 87.3407 112.306 88.619 112.306 89.9892C112.306 93.8539 109.173 96.9869 105.308 96.9869H32.9978C31.9128 96.9869 30.8855 96.74 29.969 96.2993Z" fill="#FCC419"/>
<path fill-rule="evenodd" clip-rule="evenodd" d="M29.969 110.295C31.2081 112.259 33.3978 113.565 35.8923 113.565H108.203C112.067 113.565 115.2 110.432 115.2 106.567C115.2 103.787 113.58 101.386 111.231 100.257C111.912 101.336 112.306 102.614 112.306 103.984C112.306 107.849 109.173 110.982 105.308 110.982H32.9978C31.9128 110.982 30.8855 110.735 29.969 110.295Z" fill="#FCC419"/>
<path d="M112.278 44.5388C103.189 41.5375 86.6747 45.2284 70.265 45.3708C57.461 45.4819 43.889 45.4679 37.4771 45.3708C29.4623 45.2493 27.7622 49.0139 27.3979 51.564C27.0336 54.1142 28.3693 57.7573 32.0124 58.7357C35.6555 59.714 40.0273 57.6359 43.6704 58.7357C47.3135 59.8355 44.6419 83.9417 44.6419 86.5377C44.6419 90.3471 49.7553 93.6213 53.2469 88.3014C55.3329 85.1232 52.2167 62.7409 55.6169 60.5926C59.0171 58.4443 72.6941 59.8593 74.4357 59.8593C76.1772 59.8593 72.1089 74.7299 80.302 73.9752C87.2683 73.3336 84.4268 61.2342 84.7934 59.8593C85.1601 58.4844 90.1098 59.401 91.2098 59.8593C92.3097 60.3176 92.1705 66.3136 92.5847 67.5589C93.7647 71.1061 97.5654 73.0065 101.113 69.7759C104.66 66.5452 100.883 61.0509 103.267 59.8593C105.65 58.6677 106.693 60.8938 111.441 58.7357C116.188 56.5776 119.451 46.9073 112.278 44.5388Z" fill="#FFA94D"/>
<path fill-rule="evenodd" clip-rule="evenodd" d="M29.3933 57.2878C30.0792 57.9357 30.9472 58.4496 32.0124 58.7357C33.7974 59.215 35.7573 58.9606 37.7207 58.7058C39.2717 58.5045 40.8249 58.3029 42.2958 58.4625C42.0392 57.87 41.7211 57.4873 41.3303 57.3693C39.4722 56.8084 37.4245 57.0742 35.3806 57.3395C33.4172 57.5943 31.4573 57.8487 29.6724 57.3693C29.5778 57.344 29.4848 57.3168 29.3933 57.2878ZM45.8744 89.6415C47.606 91.5442 50.8186 92.0011 53.2469 88.3014C54.1672 86.8993 54.075 81.7597 53.9765 76.2686C53.8517 69.3128 53.7167 61.7931 55.6169 60.5926C58.4057 58.8306 68.1072 59.4656 72.4673 59.7509C72.5041 59.7534 72.5405 59.7557 72.5766 59.7581C72.534 58.9738 72.4087 58.493 72.0956 58.493C71.7824 58.493 71.0832 58.4472 70.1272 58.3846C65.7672 58.0993 56.0656 57.4643 53.2768 59.2263C51.3767 60.4268 51.5116 67.9465 51.6364 74.9023C51.7349 80.3934 51.8271 85.533 50.9069 86.9351C49.3527 89.303 47.4772 89.9682 45.8744 89.6415ZM76.5118 72.5659C77.3197 73.5651 78.5212 74.1392 80.302 73.9752C85.8234 73.4667 85.1836 65.7607 84.8632 61.9012C84.7794 60.8911 84.7174 60.1445 84.7935 59.8593C85.0502 58.8966 87.5535 59.0573 89.4092 59.3975C89.2718 58.9197 89.0973 58.5878 88.8697 58.493C87.7698 58.0347 82.82 57.118 82.4534 58.493C82.3773 58.7782 82.4393 59.5248 82.5232 60.5349C82.8436 64.3944 83.4833 72.1004 77.9619 72.6089C77.4282 72.6581 76.9465 72.6409 76.5118 72.5659ZM94.0071 69.9523C95.4639 70.294 97.145 69.8919 98.7727 68.4095C100.741 66.6166 100.454 64.1265 100.216 62.0616C100.025 60.4057 99.8659 59.0233 100.926 58.493C101.936 57.9882 102.705 58.0967 103.617 58.2255C104.858 58.4006 106.364 58.6132 109.1 57.3693C113.177 55.5164 116.158 48.1253 112.38 44.5732C119.42 46.9993 116.166 56.5878 111.441 58.7357C108.704 59.9795 107.198 59.7669 105.957 59.5918C105.045 59.463 104.276 59.3545 103.267 59.8593C102.206 60.3896 102.365 61.772 102.556 63.4279C102.794 65.4928 103.081 67.9829 101.113 69.7758C98.4983 72.1569 95.7462 71.7508 94.0071 69.9523Z" fill="#FF922B"/>
<path fill-rule="evenodd" clip-rule="evenodd" d="M93.8626 41.7819C101.117 41.2213 107.919 40.9934 112.905 42.6397C115.164 43.3855 116.749 44.774 117.634 46.5674C118.496 48.3133 118.609 50.2626 118.301 52.0547C117.704 55.5268 115.383 59.1408 112.268 60.5564C109.528 61.8019 107.707 61.8225 106.229 61.6457C105.968 61.6145 105.75 61.586 105.566 61.5619C104.928 61.4783 104.693 61.4475 104.422 61.5363C104.422 61.5429 104.421 61.5496 104.421 61.5566C104.401 61.9499 104.453 62.4005 104.53 63.0716C104.556 63.301 104.585 63.5561 104.615 63.8434C104.818 65.7701 105.031 68.9129 102.46 71.2545C100.243 73.2731 97.667 73.8874 95.3275 73.1061C93.0809 72.3558 91.4366 70.4437 90.687 68.1902C90.4917 67.6031 90.4124 66.7246 90.3568 66.0619C90.3267 65.7024 90.3012 65.3582 90.2757 65.0124C90.2418 64.5553 90.2078 64.0954 90.1625 63.5937C90.0871 62.7574 89.9986 62.0466 89.8844 61.5424C89.3252 61.4049 88.4528 61.2369 87.5659 61.1653C87.2797 61.1423 87.0255 61.1324 86.8073 61.1332C86.821 61.3091 86.8368 61.4991 86.854 61.7065C86.8716 61.9175 86.8906 62.1465 86.9104 62.3967C87.0177 63.7502 87.1312 65.5298 87.0187 67.3179C86.9082 69.0732 86.5699 71.0516 85.6235 72.6918C84.6113 74.4461 82.9338 75.7413 80.4855 75.9668C79.1643 76.0885 77.9489 75.9054 76.8826 75.3781C75.8147 74.85 75.0333 74.0445 74.4737 73.1413C73.4028 71.4127 73.07 69.2044 72.9534 67.324C72.865 65.8988 72.8944 64.4189 72.9179 63.2342C72.9258 62.8384 72.933 62.4756 72.9349 62.1587C72.9358 62.0237 72.9357 61.8996 72.9347 61.7857C72.7146 61.7716 72.4797 61.7562 72.2334 61.7401C71.8799 61.7169 71.5031 61.6923 71.1136 61.6678C69.5432 61.5694 67.5961 61.4616 65.6064 61.4199C63.608 61.3779 61.6124 61.4038 59.9357 61.5627C58.2745 61.7202 57.2463 61.9849 56.782 62.2279C56.7454 62.2915 56.6522 62.4662 56.5419 62.8382C56.3528 63.4761 56.2022 64.3876 56.0976 65.5592C55.8895 67.8921 55.8922 70.893 55.9389 74.031C55.9496 74.7503 55.9627 75.4773 55.9757 76.2027C56.0186 78.5909 56.0611 80.9605 56.0187 82.9753C55.991 84.2918 55.9263 85.5197 55.7912 86.5472C55.6688 87.4776 55.4527 88.5856 54.919 89.3988C53.8732 90.9921 52.599 92.1017 51.1614 92.667C49.7106 93.2376 48.2375 93.1948 46.9457 92.7204C44.4537 91.8053 42.642 89.2918 42.642 86.5377C42.642 85.9716 42.745 84.6067 42.8762 82.8684C42.918 82.3146 42.9627 81.7229 43.0078 81.107C43.2008 78.4721 43.4185 75.2132 43.5234 72.0101C43.629 68.7882 43.6171 65.7034 43.3705 63.3907C43.2458 62.222 43.0719 61.3629 42.8753 60.8139C42.8374 60.708 42.8036 60.6269 42.7755 60.5659C41.5046 60.2706 40.0232 60.424 38.0986 60.6735C38.0139 60.6845 37.928 60.6957 37.8412 60.7071C35.9866 60.9495 33.6715 61.252 31.4938 60.6672C26.6102 59.3557 24.9529 54.5371 25.4181 51.2812C25.6418 49.7148 26.3042 47.6063 28.2775 45.9382C30.2395 44.2796 33.2026 43.3058 37.5075 43.371C43.8966 43.4678 57.4508 43.4819 70.2477 43.3708C76.2267 43.319 82.1876 42.7921 87.8797 42.289C89.912 42.1093 91.9101 41.9327 93.8626 41.7819ZM42.6867 60.4063C42.6869 60.4057 42.6916 60.4111 42.7002 60.4242C42.6908 60.4134 42.6865 60.4069 42.6867 60.4063ZM72.873 60.8015C72.8732 60.8011 72.8749 60.807 72.8776 60.8201C72.8742 60.8084 72.8729 60.8019 72.873 60.8015ZM84.7935 59.8593C84.7175 60.1445 84.7794 60.8911 84.8633 61.9012C85.1837 65.7607 85.8234 73.4667 80.3021 73.9752C74.696 74.4916 74.8306 67.6924 74.9166 63.3471C74.9563 61.3419 74.9856 59.8593 74.4357 59.8593C74.1225 59.8593 73.4233 59.8135 72.4673 59.7509C68.1073 59.4656 58.4057 58.8306 55.617 60.5926C53.7168 61.7931 53.8517 69.3128 53.9765 76.2686C54.075 81.7597 54.1672 86.8993 53.247 88.3013C49.7553 93.6212 44.642 90.347 44.642 86.5377C44.642 86.0537 44.7348 84.8217 44.8624 83.1305C45.4187 75.7518 46.6342 59.6304 43.6705 58.7356C41.8123 58.1747 39.7646 58.4405 37.7207 58.7058C35.7573 58.9606 33.7974 59.215 32.0125 58.7356C28.3694 57.7573 27.0337 54.1142 27.398 51.564C27.7623 49.0139 29.4624 45.2493 37.4772 45.3708C43.889 45.4679 57.4611 45.4819 70.265 45.3708C76.3306 45.3181 82.4103 44.7807 88.1241 44.2756C97.8684 43.4142 106.548 42.6469 112.278 44.5388C119.451 46.9072 116.188 56.5776 111.441 58.7356C108.704 59.9795 107.198 59.7669 105.957 59.5918C105.045 59.463 104.276 59.3545 103.267 59.8593C102.206 60.3896 102.365 61.772 102.556 63.4279C102.794 65.4928 103.082 67.9829 101.113 69.7758C97.5655 73.0065 93.7648 71.1061 92.5848 67.5589C92.4379 67.1174 92.3606 66.0787 92.273 64.9013C92.1135 62.758 91.9198 60.1551 91.2098 59.8593C90.1099 59.401 85.1602 58.4844 84.7935 59.8593ZM86.7613 60.1821C86.7614 60.1823 86.7612 60.1864 86.7605 60.194C86.7609 60.1857 86.7612 60.1819 86.7613 60.1821Z" fill="black"/>
<path d="M48.5416 96.1309C44.7994 96.2598 43.7859 102.08 43.718 105.31C43.526 111.629 48.9071 115.698 52.7901 108.39C56.673 101.083 53.658 95.9547 48.5416 96.1309Z" fill="#FFA94D"/>
<path fill-rule="evenodd" clip-rule="evenodd" d="M45.5696 111.086C46.9877 110.917 48.5233 109.752 49.8769 107.204C52.5778 102.121 51.9413 98.0929 49.5816 96.1706C54.0456 96.682 56.4017 101.593 52.79 108.39C50.4014 112.886 47.446 113.076 45.5696 111.086Z" fill="#FF922B"/>
<path fill-rule="evenodd" clip-rule="evenodd" d="M42.8881 98.8323C43.6982 96.7507 45.3516 94.2395 48.4728 94.1321C51.7771 94.0183 54.6258 95.6664 55.8861 98.6832C57.1033 101.597 56.6671 105.356 54.5563 109.329C53.4758 111.362 52.1646 112.853 50.6338 113.653C49.0292 114.492 47.3248 114.488 45.8392 113.753C43.0606 112.379 41.6126 108.839 41.7186 105.259C41.7562 103.514 42.0443 101.001 42.8881 98.8323ZM43.718 105.31C43.7859 102.08 44.7995 96.2598 48.5416 96.1309C53.658 95.9547 56.6731 101.083 52.7901 108.39C48.9071 115.698 43.526 111.629 43.718 105.31Z" fill="black"/>
<path d="M58.6487 33.8544C58.2925 34.5829 57.8069 35.0772 57.5641 34.9585C57.3213 34.8398 57.4132 34.1529 57.7694 33.4244C58.1255 32.6959 58.6112 32.2016 58.854 32.3203C59.0968 32.4391 59.0049 33.1259 58.6487 33.8544Z" fill="white" fill-opacity="0.6"/>
<path d="M97.8292 115.798C97.8828 116.336 94.0014 117.164 89.1599 117.646C84.3183 118.129 80.35 118.084 80.2963 117.546C80.2427 117.009 84.1241 116.181 88.9656 115.698C93.8072 115.216 97.7755 115.26 97.8292 115.798Z" fill="#241806" fill-opacity="0.24"/>
<path d="M118.403 113.231C118.547 114.069 114.553 115.455 109.482 116.328C104.41 117.201 100.182 117.23 100.038 116.392C99.8937 115.555 103.888 114.168 108.96 113.296C114.031 112.423 118.259 112.394 118.403 113.231Z" fill="#1B0F02" fill-opacity="0.2"/>
<path d="M75.4526 34.3607C75.317 34.9848 74.9929 35.4443 74.7288 35.3869C74.4646 35.3295 74.3604 34.777 74.4961 34.1528C74.6317 33.5287 74.9558 33.0692 75.22 33.1266C75.4841 33.1841 75.5883 33.7366 75.4526 34.3607Z" fill="white" fill-opacity="0.6"/>
<path d="M53.4538 49.0796C53.4538 49.7107 52.9422 50.2223 52.3111 50.2223C51.68 50.2223 51.1685 49.7107 51.1685 49.0796C51.1685 48.4485 51.68 47.937 52.3111 47.937C52.9422 47.937 53.4538 48.4485 53.4538 49.0796Z" fill="#FFE975"/>
<path d="M38.9799 47.5561C38.9799 48.1872 38.4683 48.6988 37.8373 48.6988C37.2062 48.6988 36.6946 48.1872 36.6946 47.5561C36.6946 46.925 37.2062 46.4135 37.8373 46.4135C38.4683 46.4135 38.9799 46.925 38.9799 47.5561Z" fill="#FFE975"/>
<path d="M47.3596 49.8415C47.3596 50.4726 46.848 50.9842 46.2169 50.9842C45.5858 50.9842 45.0742 50.4726 45.0742 49.8415C45.0742 49.2104 45.5858 48.6989 46.2169 48.6989C46.848 48.6989 47.3596 49.2104 47.3596 49.8415Z" fill="white"/>
<path d="M97.1677 50.3822C97.1677 51.0133 96.6561 51.5249 96.025 51.5249C95.3939 51.5249 94.8823 51.0133 94.8823 50.3822C94.8823 49.7511 95.3939 49.2395 96.025 49.2395C96.6561 49.2395 97.1677 49.7511 97.1677 50.3822Z" fill="white"/>
<path d="M87.3791 48.4245C87.3791 49.0556 86.8675 49.5671 86.2364 49.5671C85.6053 49.5671 85.0938 49.0556 85.0938 48.4245C85.0938 47.7934 85.6053 47.2818 86.2364 47.2818C86.8675 47.2818 87.3791 47.7934 87.3791 48.4245Z" fill="#8CF1FF"/>
<path d="M104.999 49.4034C104.999 50.0344 104.487 50.546 103.856 50.546C103.225 50.546 102.713 50.0344 102.713 49.4034C102.713 48.7723 103.225 48.2607 103.856 48.2607C104.487 48.2607 104.999 48.7723 104.999 49.4034Z" fill="#8CF1FF"/>
<path d="M37.4562 53.6503C37.4562 54.2814 36.9447 54.793 36.3136 54.793C35.6825 54.793 35.1709 54.2814 35.1709 53.6503C35.1709 53.0192 35.6825 52.5076 36.3136 52.5076C36.9447 52.5076 37.4562 53.0192 37.4562 53.6503Z" fill="#8CF1FF"/>
<path d="M67.0397 48.0436C67.0397 48.4643 66.6986 48.8054 66.2779 48.8054C65.8572 48.8054 65.5161 48.4643 65.5161 48.0436C65.5161 47.6229 65.8572 47.2818 66.2779 47.2818C66.6986 47.2818 67.0397 47.6229 67.0397 48.0436Z" fill="#FFE975"/>
<path d="M61.8334 47.9371C61.8334 48.3578 61.4923 48.6989 61.0716 48.6989C60.6509 48.6989 60.3098 48.3578 60.3098 47.9371C60.3098 47.5164 60.6509 47.1753 61.0716 47.1753C61.4923 47.1753 61.8334 47.5164 61.8334 47.9371Z" fill="#FFE975"/>
<path d="M72.913 47.0647C72.913 47.4854 72.5719 47.8265 72.1512 47.8265C71.7305 47.8265 71.3894 47.4854 71.3894 47.0647C71.3894 46.644 71.7305 46.3029 72.1512 46.3029C72.5719 46.3029 72.913 46.644 72.913 47.0647Z" fill="#8CF1FF"/>
<path d="M44.3124 45.6517C44.3124 46.0724 43.9713 46.4135 43.5506 46.4135C43.1299 46.4135 42.7888 46.0724 42.7888 45.6517C42.7888 45.231 43.1299 44.8899 43.5506 44.8899C43.9713 44.8899 44.3124 45.231 44.3124 45.6517Z" fill="white"/>
<path d="M95.4271 46.0858C95.4271 46.5065 95.0861 46.8476 94.6653 46.8476C94.2446 46.8476 93.9036 46.5065 93.9036 46.0858C93.9036 45.6651 94.2446 45.324 94.6653 45.324C95.0861 45.324 95.4271 45.6651 95.4271 46.0858Z" fill="#FFE975"/>
<path d="M83.6805 48.0436C83.6805 48.4643 83.3395 48.8054 82.9188 48.8054C82.498 48.8054 82.157 48.4643 82.157 48.0436C82.157 47.6229 82.498 47.2818 82.9188 47.2818C83.3395 47.2818 83.6805 47.6229 83.6805 48.0436Z" fill="white"/>
<path d="M55.7391 53.2694C55.7391 53.6901 55.3981 54.0312 54.9774 54.0312C54.5566 54.0312 54.2156 53.6901 54.2156 53.2694C54.2156 52.8487 54.5566 52.5076 54.9774 52.5076C55.3981 52.5076 55.7391 52.8487 55.7391 53.2694Z" fill="white"/>
<path d="M57.2628 45.6517C57.2628 46.0724 56.9218 46.4135 56.501 46.4135C56.0803 46.4135 55.7393 46.0724 55.7393 45.6517C55.7393 45.231 56.0803 44.8899 56.501 44.8899C56.9218 44.8899 57.2628 45.231 57.2628 45.6517Z" fill="#8CF1FF"/>
<path d="M75.9601 49.3501C75.9601 49.7708 75.619 50.1119 75.1983 50.1119C74.7776 50.1119 74.4365 49.7708 74.4365 49.3501C74.4365 48.9294 74.7776 48.5883 75.1983 48.5883C75.619 48.5883 75.9601 48.9294 75.9601 49.3501Z" fill="white"/>
<path d="M113.809 45.4878C113.809 46.1189 113.297 46.6305 112.666 46.6305C112.035 46.6305 111.523 46.1189 111.523 45.4878C111.523 44.8567 112.035 44.3452 112.666 44.3452C113.297 44.3452 113.809 44.8567 113.809 45.4878Z" fill="#8CF1FF"/>
<path d="M99.3427 44.1281C99.3427 44.5488 99.0016 44.8899 98.5809 44.8899C98.1602 44.8899 97.8191 44.5488 97.8191 44.1281C97.8191 43.7074 98.1602 43.3663 98.5809 43.3663C99.0016 43.3663 99.3427 43.7074 99.3427 44.1281Z" fill="#8CF1FF"/>
<path d="M110.11 45.1069C110.11 45.5277 109.769 45.8687 109.348 45.8687C108.928 45.8687 108.587 45.5277 108.587 45.1069C108.587 44.6862 108.928 44.3452 109.348 44.3452C109.769 44.3452 110.11 44.6862 110.11 45.1069Z" fill="white"/>
<path d="M102.39 46.4135C102.39 46.8342 102.049 47.1753 101.628 47.1753C101.207 47.1753 100.866 46.8342 100.866 46.4135C100.866 45.9928 101.207 45.6517 101.628 45.6517C102.049 45.6517 102.39 45.9928 102.39 46.4135Z" fill="white"/>
<path d="M33.7579 50.0013C33.7579 50.422 33.4169 50.7631 32.9962 50.7631C32.5754 50.7631 32.2344 50.422 32.2344 50.0013C32.2344 49.5806 32.5754 49.2395 32.9962 49.2395C33.4169 49.2395 33.7579 49.5806 33.7579 50.0013Z" fill="white"/>
<path fill-rule="evenodd" clip-rule="evenodd" d="M118.748 102.576L118.752 102.577C118.981 104.211 119.267 107.665 118.212 108.328C118.043 108.434 117.887 108.496 117.738 108.531C115.301 114.343 108.97 117.739 102.614 116.288C97.219 115.057 93.3554 110.685 92.511 105.542C92.1138 105.463 91.7561 105.227 91.477 104.709C90.7147 103.295 92.234 100.041 93.533 97.913C96.0786 92.3252 102.276 89.1015 108.497 90.5217C114.344 91.8566 118.392 96.8795 118.748 102.576Z" fill="#FFF9DB"/>
<path fill-rule="evenodd" clip-rule="evenodd" d="M120.735 102.316C120.27 95.8142 115.631 90.0988 108.942 88.5718C101.819 86.9457 94.7266 90.6069 91.7643 96.9727C91.0875 98.0931 90.3411 99.522 89.8478 100.909C89.5943 101.621 89.3825 102.392 89.3046 103.144C89.2302 103.865 89.2535 104.799 89.7165 105.658C89.9861 106.158 90.3315 106.571 90.7406 106.883C92.0293 112.354 96.3138 116.901 102.169 118.238C109.217 119.847 116.236 116.28 119.252 110.036C119.26 110.031 119.268 110.026 119.276 110.021L119.267 110.006L119.276 110.021C120.202 109.44 120.554 108.469 120.707 107.895C120.882 107.238 120.945 106.519 120.963 105.872C120.999 104.572 120.856 103.186 120.735 102.316ZM118.748 102.576L118.752 102.577C118.981 104.211 119.267 107.665 118.212 108.328C118.043 108.434 117.887 108.496 117.738 108.531C115.301 114.343 108.97 117.739 102.614 116.288C97.219 115.057 93.3555 110.685 92.5111 105.542C92.1138 105.463 91.7562 105.227 91.4771 104.709C90.7148 103.295 92.234 100.041 93.5331 97.913C96.0787 92.3252 102.276 89.1015 108.497 90.5217C114.344 91.8566 118.392 96.8795 118.748 102.576Z" fill="black"/>
<path fill-rule="evenodd" clip-rule="evenodd" d="M110.665 96.6189L111.048 95.1505L111.785 95.3427L111.402 96.8111L110.665 96.6189Z" fill="#3DF3FF"/>
<path fill-rule="evenodd" clip-rule="evenodd" d="M97.4681 95.7484L96.5347 94.4953L97.1456 94.0402L98.079 95.2934L97.4681 95.7484Z" fill="#FF859B"/>
<path fill-rule="evenodd" clip-rule="evenodd" d="M104.428 95.5788L107.475 93.6743L107.879 94.3203L104.831 96.2248L104.428 95.5788Z" fill="#FF8BEC"/>
<path fill-rule="evenodd" clip-rule="evenodd" d="M113.167 95.0697L110.135 92.8292L110.587 92.2165L113.62 94.457L113.167 95.0697Z" fill="#FF859B"/>
<path fill-rule="evenodd" clip-rule="evenodd" d="M100.511 95.0152L101.397 93.7758L102.017 94.2189L101.131 95.4583L100.511 95.0152Z" fill="#3DF3FF"/>
<path fill-rule="evenodd" clip-rule="evenodd" d="M104.305 92.6882L104.73 91.225L105.462 91.4373L105.037 92.9005L104.305 92.6882Z" fill="#FF8BEC"/>
<path d="M91.393 106.05C90.5194 104.399 92.7219 100.229 94.0631 98.2671L118.381 103.819C118.602 105.457 118.873 108.922 117.828 109.59C116.52 110.426 116.02 108.543 113.644 112.265C112.254 114.442 110.442 113.575 107 110.067C104.723 107.747 102.199 110.559 98.932 111.174C95.6653 111.789 97.0742 107.574 95.9484 106.637C94.8226 105.699 92.4849 108.114 91.393 106.05Z" fill="#F2C56D"/>
<path d="M91.393 105.05C90.5194 103.399 92.7219 99.2293 94.0631 97.2671L118.381 102.819C118.602 104.457 118.873 107.922 117.828 108.59C116.52 109.426 116.02 107.543 113.644 111.265C112.254 113.442 110.442 112.575 107 109.067C104.723 106.747 102.199 109.559 98.932 110.174C95.6653 110.789 97.0742 106.574 95.9484 105.637C94.8226 104.699 92.4849 107.114 91.393 105.05Z" fill="#FFF9DB"/>
<path d="M89.3641 117.259C96.2274 115.399 100.283 108.327 98.4234 101.464L73.5696 108.199C75.4295 115.062 82.5009 119.118 89.3641 117.259Z" fill="#94502A"/>
<path d="M101.735 111.398C102.518 106.699 99.7769 102.262 98.3086 100.63L96.3508 112.866C97.8191 114.335 100.952 116.097 101.735 111.398Z" fill="#743C1C" fill-opacity="0.11"/>
<path d="M77.7239 114.316C75.6613 114.875 73.6559 110.743 73.364 108.032L97.6229 100.327C98.229 101.746 98.7208 102.744 98.8445 105.652C98.9836 108.921 96.6105 108.729 94.272 107.57C90.8689 105.882 89.69 107.001 88.6682 109.767C87.7511 112.249 85.0443 114.369 82.9152 112.231C80.786 110.093 79.1677 113.925 77.7239 114.316Z" fill="#823F1A"/>
<path d="M77.7239 113.316C75.6613 113.875 73.6559 109.743 73.364 107.032L97.6229 99.327C98.229 100.746 98.7208 101.744 98.8445 104.652C98.9836 107.921 96.6105 107.729 94.272 106.57C90.8689 104.882 89.69 106.001 88.6682 108.767C87.7511 111.249 85.0443 113.369 82.9152 111.231C80.786 109.093 79.1677 112.925 77.7239 113.316Z" fill="#94502A"/>
<path d="M97.6797 99.6364C98.195 101.191 93.1528 104.262 86.4176 106.494C79.6823 108.727 73.8045 109.276 73.2891 107.722C72.7737 106.167 74.3354 102.126 84.5512 100.864C90.8689 100.06 96.4498 95.9262 97.6797 99.6364Z" fill="#A3613C"/>
<path fill-rule="evenodd" clip-rule="evenodd" d="M98.7975 103.434C99.4821 109.632 95.5712 115.577 89.3642 117.259C83.9475 118.727 78.401 116.509 75.3893 112.135C74.9404 111.57 74.5384 110.856 74.2113 110.098C74.023 109.661 73.8594 109.209 73.7259 108.762C73.6843 108.622 73.6456 108.483 73.6099 108.345C73.5964 108.297 73.5832 108.249 73.5702 108.201C73.57 108.201 73.5698 108.2 73.5697 108.199L73.5733 108.198C73.5639 108.16 73.5547 108.121 73.5458 108.083C73.5441 108.081 73.5424 108.08 73.5408 108.078C73.5391 108.077 73.5374 108.076 73.5357 108.074C73.4163 107.972 73.3332 107.854 73.2892 107.722C73.2139 107.494 73.1829 107.214 73.2168 106.898C73.2171 106.894 73.2175 106.891 73.2179 106.887C73.4235 105.034 75.8437 101.94 84.5513 100.864C86.8122 100.576 88.9787 99.8618 90.8853 99.2334C94.158 98.1546 96.6646 97.3283 97.5671 99.3448L97.623 99.327C97.6546 99.4009 97.6858 99.4736 97.7167 99.5455L97.7186 99.5499C97.9877 100.176 98.2307 100.742 98.4235 101.464C98.4403 101.526 98.4566 101.588 98.4725 101.65C98.4729 101.652 98.4733 101.653 98.4737 101.655C98.6249 102.248 98.7321 102.842 98.7975 103.434ZM100.351 100.931L100.354 100.941C102.503 108.87 97.8167 117.04 89.8874 119.189C83.6484 120.88 77.2655 118.339 73.7793 113.324C72.8315 112.108 72.1206 110.49 71.7194 109.018C71.5864 108.821 71.4731 108.599 71.3908 108.351C71.2576 107.949 71.1946 107.528 71.199 107.098L71.1162 106.792L71.2156 106.765C71.341 105.359 72.1654 103.879 73.6009 102.659C75.6161 100.946 78.9929 99.536 84.3022 98.8794C86.3411 98.6194 88.328 97.9705 90.2591 97.3339C90.3146 97.3157 90.3702 97.2973 90.4261 97.2789C91.9254 96.7841 93.5659 96.2428 94.9599 96.1344C95.7176 96.0754 96.5973 96.1226 97.4356 96.5068C97.7404 96.6464 98.0173 96.8202 98.266 97.0244L98.749 96.8709L99.4624 98.5417C99.4927 98.6127 99.5228 98.6828 99.5536 98.7544L99.5558 98.7596L99.5563 98.7607L99.5715 98.7963C99.6092 98.8839 99.6474 98.9729 99.686 99.0637L99.8346 99.0246L100.339 100.887C100.343 100.902 100.347 100.916 100.351 100.931Z" fill="black"/>
<path d="M107.77 23.3872C108.1 17.1098 114.934 22.3121 117.71 26.5458C119.918 24.243 123.798 22.3841 125.56 24.3109C127.498 26.4305 121.787 33.0126 116.888 35.0927C114.345 33.9696 107.541 27.7274 107.77 23.3872Z" fill="#FF859B"/>
<path d="M10.5712 87.8499C8.12777 84.8043 12.6382 83.3709 17.032 84.5473C17.1338 81.6834 18.5218 78.8518 20.8552 79.0894C23.422 79.3507 23.6331 86.4426 21.5939 90.7677C19.2177 91.5362 13.0146 90.8954 10.5712 87.8499Z" fill="#FFF385"/>
<path d="M124.492 61.0144C124.626 60.4675 125.287 60.2507 125.72 60.6117L126.956 61.6439C127.151 61.8063 127.413 61.8614 127.656 61.7908L129.203 61.3421C129.744 61.1852 130.263 61.6493 130.166 62.2042L129.89 63.7911C129.847 64.0407 129.931 64.2956 130.113 64.4711L131.276 65.5865C131.682 65.9765 131.539 66.6573 131.01 66.8512L129.498 67.4059C129.26 67.4932 129.081 67.693 129.021 67.9391L128.636 69.5031C128.501 70.05 127.84 70.2668 127.408 69.9058L126.171 68.8736C125.977 68.7112 125.714 68.6561 125.471 68.7267L123.924 69.1754C123.383 69.3323 122.865 68.8682 122.961 68.3134L123.237 66.7264C123.28 66.4768 123.197 66.2219 123.014 66.0464L121.852 64.931C121.446 64.541 121.588 63.8602 122.117 63.6663L123.629 63.1116C123.867 63.0243 124.046 62.8245 124.107 62.5785L124.492 61.0144Z" fill="#FFF385"/>
<path d="M129.104 112.147C129.839 111.826 130.657 112.386 130.623 113.187L130.573 114.358C130.558 114.719 130.723 115.063 131.013 115.278L131.956 115.973C132.602 116.449 132.526 117.437 131.815 117.808L130.776 118.351C130.456 118.518 130.24 118.833 130.2 119.192L130.07 120.356C129.98 121.154 129.086 121.582 128.409 121.151L127.42 120.523C127.116 120.33 126.735 120.3 126.404 120.445L125.33 120.914C124.595 121.235 123.777 120.675 123.811 119.873L123.861 118.703C123.876 118.342 123.711 117.998 123.421 117.783L122.477 117.088C121.832 116.612 121.908 115.624 122.619 115.253L123.658 114.71C123.978 114.543 124.194 114.228 124.234 113.869L124.364 112.705C124.454 111.907 125.347 111.479 126.025 111.91L127.014 112.538C127.318 112.731 127.699 112.761 128.03 112.616L129.104 112.147Z" fill="#FF859B"/>
<path fill-rule="evenodd" clip-rule="evenodd" d="M132.592 113.957L133.143 114.363C134.979 115.716 134.763 118.525 132.741 119.581L132.134 119.898L132.057 120.579C131.803 122.846 129.262 124.063 127.337 122.839L126.759 122.472L126.131 122.746C124.041 123.66 121.717 122.068 121.813 119.789L121.842 119.104L121.291 118.698C119.455 117.345 119.671 114.536 121.693 113.48L122.3 113.163L122.377 112.482C122.631 110.215 125.172 108.998 127.097 110.221L127.675 110.589L128.303 110.314C130.393 109.401 132.717 110.993 132.621 113.272L132.592 113.957ZM130.623 113.187C130.657 112.386 129.839 111.826 129.104 112.147L128.03 112.616C127.699 112.761 127.318 112.731 127.014 112.538L126.025 111.91C125.348 111.479 124.454 111.907 124.364 112.705L124.234 113.869C124.194 114.228 123.978 114.543 123.658 114.71L122.619 115.253C121.908 115.624 121.832 116.612 122.477 117.088L123.421 117.783C123.711 117.997 123.876 118.342 123.861 118.703L123.811 119.873C123.777 120.675 124.595 121.235 125.33 120.914L126.404 120.445C126.735 120.3 127.116 120.329 127.42 120.523L128.409 121.151C129.087 121.582 129.98 121.154 130.07 120.356L130.2 119.192C130.24 118.833 130.456 118.518 130.776 118.351L131.815 117.808C132.526 117.437 132.602 116.449 131.957 115.973L131.013 115.278C130.723 115.063 130.558 114.719 130.573 114.358L130.623 113.187Z" fill="black"/>
<path d="M15.4041 38.0033C15.4634 37.7624 15.7545 37.6669 15.9449 37.8259L18.5255 39.9803C18.6112 40.0518 18.7268 40.076 18.834 40.0449L22.0626 39.1085C22.3008 39.0394 22.5291 39.2438 22.4866 39.4882L21.9112 42.8003C21.8921 42.9102 21.9289 43.0225 22.0094 43.0998L24.4346 45.4276C24.6136 45.5994 24.5507 45.8993 24.3178 45.9847L21.1618 47.1423C21.057 47.1808 20.9782 47.2688 20.9515 47.3772L20.1482 50.6414C20.0889 50.8823 19.7978 50.9778 19.6073 50.8188L17.0268 48.6644C16.9411 48.5929 16.8255 48.5687 16.7183 48.5997L13.4897 49.5361C13.2514 49.6052 13.0232 49.4008 13.0656 49.1564L13.6411 45.8444C13.6602 45.7345 13.6234 45.6222 13.5429 45.5449L11.1176 43.2171C10.9387 43.0453 11.0015 42.7454 11.2344 42.66L14.3905 41.5023C14.4952 41.4639 14.5741 41.3759 14.6007 41.2675L15.4041 38.0033Z" fill="#E8FCFF"/>
<defs>
<filter id="filter0_i_3614_1907" x="40.0654" y="107.972" width="61.6692" height="7.83099" filterUnits="userSpaceOnUse" color-interpolation-filters="sRGB">
<feFlood flood-opacity="0" result="BackgroundImageFix"/>
<feBlend mode="normal" in="SourceGraphic" in2="BackgroundImageFix" result="shape"/>
<feColorMatrix in="SourceAlpha" type="matrix" values="0 0 0 0 0 0 0 0 0 0 0 0 0 0 0 0 0 0 127 0" result="hardAlpha"/>
<feOffset dy="1.95775"/>
<feComposite in2="hardAlpha" operator="arithmetic" k2="-1" k3="1"/>
<feColorMatrix type="matrix" values="0 0 0 0 0 0 0 0 0 0 0 0 0 0 0 0 0 0 0.25 0"/>
<feBlend mode="normal" in2="shape" result="effect1_innerShadow_3614_1907"/>
</filter>
</defs>
</svg>
