<svg width="140" height="140" viewBox="0 0 140 140" fill="none" xmlns="http://www.w3.org/2000/svg">
<path d="M119.18 39.073C118.369 38.2132 117.533 37.3723 116.673 36.5512L123.481 31.4738C125.257 30.1496 125.607 27.6293 124.26 25.871C122.913 24.1127 120.388 23.795 118.648 25.1649L110.697 31.422C106.309 27.9594 101.734 24.7892 96.9812 22.0606C97.1548 20.7559 97.12 19.3749 96.8539 17.9113C96.0639 13.5666 92.7134 11.0201 90.0033 9.7024C88.5901 9.01525 87.1561 8.5583 85.9116 8.29373C84.7932 8.05595 83.4277 7.88608 82.2842 8.09398C80.4436 8.42865 79.2028 10.1461 79.4384 11.9804C78.335 10.9897 77.1183 10.2445 76.0033 9.7024C74.5901 9.01525 73.1561 8.5583 71.9116 8.29373C70.7932 8.05595 69.4277 7.88608 68.2842 8.09398C66.5739 8.40496 65.3815 9.90995 65.4102 11.5932C64.4409 10.7989 63.4044 10.1779 62.4264 9.7024C61.0132 9.01525 59.5792 8.5583 58.3347 8.29373C57.2163 8.05595 55.8508 7.88608 54.7073 8.09398C52.8055 8.43977 51.5441 10.2618 51.8899 12.1636C51.9418 12.4491 52.027 12.7202 52.1407 12.9735C46.1911 14.0452 40.1141 16.0746 33.9278 19.2165C18.5622 27.0205 9.95777 46.6062 14.7274 64.425C16.6854 71.7397 14.3584 77.1927 11.8571 82.9427L11.8009 83.0719C10.3902 86.3145 8.88365 89.7772 8.45541 93.5344C8.06301 96.9771 8.57586 100.585 10.6138 104.54C9.64096 105.082 8.7748 105.7 8.06182 106.397C6.8704 107.562 6 109.064 6 110.833C6 113.046 7.34694 114.821 9.02157 116.094C10.5267 117.238 12.5038 118.151 14.7378 118.819C15.5614 120.035 16.9415 120.859 18.2691 121.388C20.062 122.102 22.2971 122.5 24.6667 122.5C26.3348 122.5 27.9302 122.303 29.3493 121.94C42.1404 128.793 58.95 132.358 75.2393 131.333C91.8379 130.289 108.159 124.455 119.122 112.142C129.896 100.04 134.601 87.4997 134.665 75.5567C134.725 64.4134 130.745 53.9673 124.184 45.0573L132.031 40.5672C133.953 39.4671 134.606 37.0076 133.481 35.0994L131.758 36.1152L133.481 35.0994C132.356 33.1913 129.888 32.5711 127.994 33.7208L119.18 39.073ZM81.9805 15.2739C81.9076 15.1269 81.8317 14.9826 81.7528 14.8412C82.2738 15.0243 82.8449 15.0863 83.426 14.9994C83.4589 14.9998 83.5115 15.0017 83.5842 15.0072C83.7738 15.0215 84.0673 15.0581 84.4559 15.1407C85.1959 15.298 86.0847 15.5806 86.9424 15.9977C88.3005 16.658 89.1959 17.4468 89.6519 18.2858C87.1402 17.1416 84.5825 16.1308 81.9805 15.2739ZM83.3838 14.9998C83.3836 14.9997 83.3869 14.9995 83.3941 14.9994C83.3876 14.9998 83.3841 14.9998 83.3838 14.9998Z" fill="#5C75CD" stroke="white" stroke-width="4" stroke-linejoin="round"/>
<path fill-rule="evenodd" clip-rule="evenodd" d="M62.4265 9.70239C63.3881 10.17 64.4304 10.7923 65.4103 11.5947C65.3807 9.91089 66.5734 8.40505 68.2843 8.09398C69.4278 7.88607 70.7932 8.05594 71.9117 8.29373C73.1561 8.5583 74.5902 9.01524 76.0034 9.70239C77.1143 10.2426 78.3329 10.9892 79.4386 11.9816C79.2023 10.1469 80.4432 8.42871 82.2843 8.09398C83.4278 7.88607 84.7932 8.05594 85.9117 8.29373C87.1561 8.5583 88.5902 9.01524 90.0034 9.70239C92.7135 11.0201 96.064 13.5666 96.8539 17.9113C97.3466 20.6207 97.0425 23.0268 96.1237 25.1725C95.2333 27.2518 93.8469 28.8949 92.4787 30.24C91.5198 31.1827 90.452 32.0873 89.491 32.9014L89.4636 32.9246C89.0855 33.2449 88.7241 33.5511 88.3789 33.8504C87.0814 34.9751 86.0274 35.986 85.2328 37.0695C84.2352 38.4298 83.8766 39.6119 83.8371 40.5785C83.7975 41.5487 84.0736 42.4393 84.5649 43.2246C85.6436 44.9485 87.6737 46.0375 89.4104 46.0375C91.3434 46.0375 92.9104 47.6045 92.9104 49.5375C92.9104 51.4705 91.3434 53.0375 89.4104 53.0375C85.146 53.0375 80.9266 50.6066 78.6308 46.9376C76.1705 43.0056 76.0046 37.8164 79.588 32.93C80.8629 31.1914 82.4058 29.7642 83.7938 28.561C84.2171 28.1941 84.6297 27.8446 85.0228 27.5116L85.0229 27.5115L85.0269 27.5082C85.9821 26.699 86.8116 25.9952 87.5712 25.2483C88.6233 24.2139 89.3043 23.3152 89.6889 22.417C90.0453 21.5848 90.2239 20.5771 89.9668 19.1635C89.7558 18.0029 88.7663 16.8845 86.9424 15.9977C86.0848 15.5806 85.1959 15.298 84.456 15.1407C84.0673 15.0581 83.7738 15.0215 83.5843 15.0071C83.5115 15.0017 83.459 14.9998 83.4261 14.9994C82.8459 15.0861 82.2756 15.0245 81.7553 14.8421C82.2601 15.7473 82.6459 16.7669 82.8539 17.9113C83.3466 20.6207 83.0425 23.0268 82.1237 25.1725C81.2333 27.2518 79.8469 28.8949 78.4787 30.24C77.5198 31.1827 76.452 32.0873 75.491 32.9014L75.4636 32.9246C75.0855 33.2449 74.7241 33.5511 74.3789 33.8504C73.0814 34.9751 72.0274 35.986 71.2328 37.0695C70.2352 38.4298 69.8766 39.6119 69.8371 40.5785C69.7975 41.5487 70.0736 42.4393 70.5649 43.2246C71.6436 44.9485 73.6737 46.0375 75.4104 46.0375C77.3434 46.0375 78.9104 47.6045 78.9104 49.5375C78.9104 51.4705 77.3434 53.0375 75.4104 53.0375C71.146 53.0375 66.9266 50.6066 64.6308 46.9376C62.1705 43.0056 62.0046 37.8164 65.588 32.93C66.8629 31.1914 68.4058 29.7642 69.7938 28.561C70.217 28.1942 70.6296 27.8447 71.0226 27.5118L71.0228 27.5116L71.0229 27.5115L71.0269 27.5082C71.9821 26.699 72.8116 25.9952 73.5712 25.2483C74.6233 24.2139 75.3043 23.3152 75.6889 22.417C76.0453 21.5848 76.2239 20.5771 75.9668 19.1635C75.7558 18.0029 74.7663 16.8845 72.9424 15.9977C72.0848 15.5806 71.1959 15.298 70.456 15.1407C70.0673 15.0581 69.7738 15.0215 69.5843 15.0071C69.5115 15.0017 69.459 14.9998 69.4261 14.9994C69.0255 15.0593 68.6297 15.0484 68.2517 14.9759C68.7206 15.8475 69.0791 16.823 69.277 17.9113C69.7697 20.6207 69.4656 23.0268 68.5468 25.1725C67.6564 27.2518 66.27 28.8949 64.9018 30.24C63.9429 31.1827 62.8751 32.0873 61.9141 32.9014L61.8867 32.9246L60.5939 31.3986C61.5731 30.5691 62.5938 29.7044 63.4997 28.8138C64.7774 27.5576 65.9623 26.1272 66.7083 24.3852C67.4664 22.6149 67.7346 20.6084 67.3093 18.2691C66.6852 14.8366 64.0123 12.6974 61.5519 11.501L62.4265 9.70239ZM61.5519 11.501L62.4265 9.70239C61.0133 9.01524 59.5792 8.5583 58.3348 8.29373C57.2163 8.05594 55.8509 7.88607 54.7074 8.09398C52.8056 8.43976 51.5442 10.2618 51.8899 12.1636C52.229 14.0286 53.9877 15.2777 55.8492 14.9994C55.8821 14.9998 55.9346 15.0017 56.0074 15.0071C56.1969 15.0215 56.4904 15.0581 56.8791 15.1407C57.619 15.298 58.5079 15.5806 59.3655 15.9977C61.1894 16.8845 62.1789 18.0029 62.3899 19.1635C62.647 20.5771 62.4684 21.5848 62.112 22.417C61.7274 23.3152 61.0464 24.2139 59.9943 25.2483C59.2347 25.9952 58.4052 26.699 57.45 27.5082L57.446 27.5115C57.0529 27.8445 56.6402 28.1941 56.2169 28.561C54.8289 29.7642 53.286 31.1914 52.011 32.93C48.4277 37.8164 48.5936 43.0056 51.0539 46.9376C53.3497 50.6066 57.5691 53.0375 61.8335 53.0375C63.7665 53.0375 65.3335 51.4705 65.3335 49.5375C65.3335 47.6045 63.7665 46.0375 61.8335 46.0375C60.0968 46.0375 58.0667 44.9485 56.988 43.2246C56.4967 42.4393 56.2206 41.5487 56.2602 40.5785C56.2997 39.6119 56.6583 38.4298 57.6559 37.0695C58.4505 35.986 59.5045 34.9751 60.802 33.8504C61.1472 33.5511 61.5086 33.2449 61.8867 32.9246L60.5939 31.3986C60.2175 31.7175 59.8472 32.0312 59.492 32.3391C58.1689 33.486 56.975 34.6159 56.0431 35.8868C53.6503 39.1496 53.9362 42.1177 55.2926 44.2855C56.7193 46.5656 59.3752 48.0375 61.8335 48.0375C62.6619 48.0375 63.3335 48.7091 63.3335 49.5375C63.3335 50.3659 62.6619 51.0375 61.8335 51.0375C58.2918 51.0375 54.6977 48.9905 52.7494 45.8768C50.7308 42.6506 50.5166 38.3498 53.6239 34.1127C54.7617 32.5611 56.1651 31.2528 57.5269 30.0723C57.9417 29.7127 58.3471 29.3693 58.7426 29.0343L58.7427 29.0343C59.6872 28.2342 60.5747 27.4824 61.3965 26.6745C62.5387 25.5515 63.4213 24.4401 63.9505 23.2043C64.4675 21.9969 64.682 20.5897 64.3577 18.8058C63.9818 16.7383 62.3213 15.211 60.2401 14.199C59.2237 13.7048 58.1791 13.3724 57.295 13.1844C56.3563 12.9849 55.7662 12.9834 55.6018 13.0133C54.7867 13.1615 54.0059 12.6209 53.8577 11.8058C53.7095 10.9908 54.2501 10.2099 55.0652 10.0617C55.8174 9.92494 56.8732 10.0277 57.9188 10.25C59.0192 10.4839 60.2974 10.8911 61.5519 11.501ZM55.807 14.9998C55.8069 14.9997 55.8102 14.9995 55.8173 14.9994C55.8106 14.9998 55.8071 14.9998 55.807 14.9998ZM74.1708 31.3986C75.15 30.5691 76.1707 29.7044 77.0766 28.8138C78.3543 27.5576 79.5393 26.1272 80.2852 24.3852C81.0433 22.6149 81.3115 20.6084 80.8862 18.2691C80.2621 14.8366 77.5892 12.6974 75.1288 11.501C73.8743 10.8911 72.5961 10.4839 71.4958 10.25C70.4501 10.0277 69.3944 9.92494 68.6421 10.0617C67.827 10.2099 67.2864 10.9908 67.4346 11.8058C67.5828 12.6209 68.3637 13.1615 69.1787 13.0133C69.3431 12.9834 69.9332 12.9849 70.8719 13.1844C71.756 13.3724 72.8006 13.7048 73.817 14.199C75.8982 15.211 77.5587 16.7383 77.9346 18.8058C78.2589 20.5897 78.0444 21.9969 77.5274 23.2043C76.9982 24.4401 76.1156 25.5515 74.9734 26.6745C74.1516 27.4824 73.2641 28.2342 72.3196 29.0343L72.3195 29.0343C71.924 29.3693 71.5186 29.7127 71.1038 30.0723C69.742 31.2528 68.3386 32.5611 67.2008 34.1127C64.0935 38.3498 64.3077 42.6506 66.3263 45.8768C68.2746 48.9905 71.8687 51.0375 75.4104 51.0375C76.2388 51.0375 76.9104 50.3659 76.9104 49.5375C76.9104 48.7091 76.2388 48.0375 75.4104 48.0375C72.9521 48.0375 70.2962 46.5656 68.8695 44.2855C67.5131 42.1177 67.2272 39.1496 69.62 35.8868C70.5519 34.6159 71.7458 33.486 73.0689 32.3391C73.4241 32.0312 73.7944 31.7175 74.1708 31.3986ZM69.3839 14.9998C69.3838 14.9997 69.3871 14.9995 69.3942 14.9994C69.3875 14.9998 69.384 14.9998 69.3839 14.9998ZM91.0766 28.8138C90.1707 29.7044 89.15 30.5691 88.1708 31.3986C87.7944 31.7175 87.4241 32.0312 87.0689 32.3391C85.7458 33.486 84.5519 34.6159 83.62 35.8868C81.2272 39.1496 81.5131 42.1177 82.8695 44.2855C84.2962 46.5656 86.9521 48.0375 89.4104 48.0375C90.2388 48.0375 90.9104 48.7091 90.9104 49.5375C90.9104 50.3659 90.2388 51.0375 89.4104 51.0375C85.8687 51.0375 82.2746 48.9905 80.3263 45.8768C78.3077 42.6506 78.0935 38.3498 81.2008 34.1127C82.3386 32.5611 83.742 31.2528 85.1038 30.0723C85.5186 29.7127 85.924 29.3693 86.3195 29.0343L86.3196 29.0343L86.3196 29.0342C87.2641 28.2342 88.1516 27.4824 88.9734 26.6745C90.1156 25.5515 90.9982 24.4401 91.5274 23.2043C92.0444 21.9969 92.2589 20.5897 91.9346 18.8058C91.5587 16.7383 89.8982 15.211 87.817 14.199C86.8006 13.7048 85.756 13.3724 84.8719 13.1844C83.9332 12.9849 83.3431 12.9834 83.1787 13.0133C82.3637 13.1615 81.5828 12.6209 81.4346 11.8058C81.2864 10.9908 81.827 10.2099 82.6421 10.0617C83.3943 9.92494 84.4501 10.0277 85.4958 10.25C86.5961 10.4839 87.8743 10.8911 89.1288 11.501C91.5892 12.6974 94.2621 14.8366 94.8862 18.2691C95.3115 20.6084 95.0433 22.6149 94.2852 24.3852C93.5393 26.1272 92.3543 27.5576 91.0766 28.8138ZM83.3839 14.9998C83.3838 14.9997 83.3871 14.9995 83.3942 14.9994C83.3875 14.9998 83.384 14.9998 83.3839 14.9998Z" fill="black"/>
<path d="M16.6594 63.9079C12.1215 46.9547 20.3534 28.354 34.8335 20.9997C63.7626 6.30701 89.7501 16.8405 111.333 34.4997C133.333 52.4997 142.833 82.4997 117.628 110.812C90.658 141.106 29.1252 131.201 13.256 105.161C3.61304 89.3376 21.3204 81.3209 16.6594 63.9079Z" fill="#F1925C"/>
<path fill-rule="evenodd" clip-rule="evenodd" d="M14.7274 64.425C9.95777 46.6062 18.5622 27.0205 33.9278 19.2165C63.8777 4.00537 90.7323 15.0601 112.6 32.9518C123.894 42.1924 132.098 54.6088 134.161 68.4948C136.233 82.4428 132.067 97.6009 119.122 112.142C105.059 127.938 82.1895 133.081 61.0924 131.103C40.0653 129.131 19.9555 119.997 11.5481 106.202C8.93591 101.915 8.1175 98.037 8.38015 94.3463C8.6373 90.7329 9.92708 87.4329 11.2511 84.3428C11.4443 83.892 11.6385 83.4443 11.8318 82.9986C14.3389 77.2181 16.6967 71.782 14.7274 64.425ZM34.8335 20.9997C20.3534 28.3539 12.1215 46.9547 16.6594 63.9079C18.8151 71.9614 16.1861 78.005 13.6911 83.7405C10.7915 90.4061 8.07289 96.6557 13.256 105.161C29.1252 131.201 90.658 141.106 117.628 110.812C142.833 82.4997 133.333 52.4997 111.333 34.4997C89.75 16.8405 63.7626 6.30701 34.8335 20.9997Z" fill="black"/>
<ellipse cx="75.3335" cy="100.5" rx="43" ry="18" fill="#222222" fill-opacity="0.17"/>
<ellipse cx="75.3335" cy="103.5" rx="38" ry="14" fill="#8E805B"/>
<g style="mix-blend-mode:soft-light" opacity="0.8">
<path d="M66.1992 69.2147C66.573 68.4296 68.1169 68.4411 69.2378 68.8551C70.5695 69.3468 71.8796 70.4105 72.075 70.6802C72.3193 71.0174 71.1882 71.3291 68.7521 70.2323C67.7734 69.7917 65.8254 69.9997 66.1992 69.2147Z" fill="#F8F9FA"/>
</g>
<g style="mix-blend-mode:soft-light" opacity="0.8">
<path d="M72.0787 56.9778C72.5634 56.46 73.7621 56.3722 74.5323 56.5641C75.4472 56.792 76.2041 57.3817 76.2896 57.5396C76.3965 57.737 75.4392 58.0031 73.8142 57.4619C73.1614 57.2445 71.594 57.4955 72.0787 56.9778Z" fill="#F8F9FA"/>
</g>
<path d="M75.3335 118.5C85.9134 118.5 95.5358 116.921 102.549 114.338C106.052 113.047 108.957 111.487 111.004 109.703C113.049 107.922 114.333 105.829 114.333 103.5C114.333 101.171 113.049 99.0776 111.004 97.2962C108.957 95.5129 106.052 93.9524 102.549 92.6619C95.5358 90.078 85.9134 88.4997 75.3335 88.4997C64.7536 88.4997 55.1312 90.078 48.1177 92.6619C44.6149 93.9524 41.7103 95.5129 39.6629 97.2962C37.6179 99.0776 36.3335 101.171 36.3335 103.5C36.3335 105.829 37.6179 107.922 39.6629 109.703C41.7103 111.487 44.6149 113.047 48.1177 114.338C55.1312 116.921 64.7536 118.5 75.3335 118.5Z" stroke="black" stroke-width="2"/>
<path fill-rule="evenodd" clip-rule="evenodd" d="M30.3437 64.4997H30.3335V93.4997H30.3439C30.337 93.6659 30.3335 93.8326 30.3335 93.9997C30.3335 100.877 36.1105 106.507 44.0672 110.301C52.1724 114.165 63.229 116.5 75.3335 116.5C87.438 116.5 98.4946 114.165 106.6 110.301C114.557 106.507 120.333 100.877 120.333 93.9997C120.333 93.8326 120.33 93.6659 120.323 93.4997H120.333V64.4997H120.323C120.051 57.8498 114.363 52.3997 106.6 48.6987C98.4946 44.8346 87.438 42.4997 75.3335 42.4997C63.229 42.4997 52.1724 44.8346 44.0672 48.6987C36.3042 52.3997 30.6161 57.8498 30.3437 64.4997ZM75.3335 87.4997C87.438 87.4997 98.4946 85.1648 106.6 81.3007C111.749 78.846 115.985 75.6217 118.333 71.7883V91.4997H118.017C118.185 92.1573 118.287 92.8245 118.321 93.4997C118.329 93.6659 118.333 93.8326 118.333 93.9997C118.333 105.322 99.0817 114.5 75.3335 114.5C51.5853 114.5 32.3335 105.322 32.3335 93.9997C32.3335 93.8326 32.3377 93.6659 32.346 93.4997C32.3799 92.8245 32.4823 92.1573 32.65 91.4997H32.3335V71.7883C34.682 75.6217 38.9182 78.846 44.0672 81.3007C52.1724 85.1648 63.229 87.4997 75.3335 87.4997ZM32.346 64.4997C32.9029 53.4089 51.9358 44.4997 75.3335 44.4997C98.7312 44.4997 117.764 53.4089 118.321 64.4997H32.346ZM32.4469 66.4997H118.22C116.609 77.1212 98.0236 85.4997 75.3335 85.4997C52.6434 85.4997 34.058 77.1212 32.4469 66.4997Z" fill="black"/>
<path fill-rule="evenodd" clip-rule="evenodd" d="M118.333 65.4997H32.3335V93.9997V94.4997H32.346C32.9029 105.591 51.9358 114.5 75.3335 114.5C98.7312 114.5 117.764 105.591 118.321 94.4997H118.333V93.9997V65.4997Z" fill="#FFE8CC"/>
<mask id="mask0_3614_4079" style="mask-type:alpha" maskUnits="userSpaceOnUse" x="32" y="65" width="87" height="49">
<path fill-rule="evenodd" clip-rule="evenodd" d="M118.333 65.4997H32.3335V92.9997V94.4997H32.4469C34.058 105.121 52.6434 113.5 75.3335 113.5C98.0236 113.5 116.609 105.121 118.22 94.4997H118.333V92.9997V65.4997Z" fill="#FFE8CC"/>
</mask>
<g mask="url(#mask0_3614_4079)">
<path d="M119.333 84.4997C119.333 96.0977 99.634 105.5 75.3335 105.5C51.033 105.5 31.3335 96.0977 31.3335 84.4997" stroke="#A99665"/>
<path d="M119.333 73.4997C119.333 85.0977 99.634 94.4997 75.3335 94.4997C51.033 94.4997 31.3335 85.0977 31.3335 73.4997" stroke="#A99665"/>
</g>
<path d="M117.333 64.9997C117.333 70.0527 113.003 74.9248 105.309 78.5927C97.6891 82.2254 87.0924 84.4997 75.3335 84.4997C63.5746 84.4997 52.9779 82.2254 45.3582 78.5927C37.6644 74.9248 33.3335 70.0527 33.3335 64.9997C33.3335 59.9468 37.6644 55.0747 45.3582 51.4067C52.9779 47.7741 63.5746 45.4997 75.3335 45.4997C87.0924 45.4997 97.6891 47.7741 105.309 51.4067C113.003 55.0747 117.333 59.9468 117.333 64.9997Z" fill="#FFE8CC" stroke="#9E8F68" stroke-width="2"/>
<path d="M118.333 64.9997C118.333 76.3216 99.0817 85.4997 75.3335 85.4997C51.5853 85.4997 32.3335 76.3216 32.3335 64.9997C32.3335 53.6779 51.5853 44.4997 75.3335 44.4997C99.0817 44.4997 118.333 53.6779 118.333 64.9997Z" fill="#FFE8CC"/>
<path fill-rule="evenodd" clip-rule="evenodd" d="M116.91 70.2499C117.839 68.5742 118.333 66.8145 118.333 64.9997C118.333 53.6779 99.0817 44.4997 75.3335 44.4997C51.5853 44.4997 32.3335 53.6779 32.3335 64.9997C32.3335 66.8145 32.8281 68.5742 33.7566 70.2499C38.6208 61.4716 55.3919 55 75.3335 55C95.2751 55 112.046 61.4716 116.91 70.2499Z" fill="#ECCCA6"/>
<path fill-rule="evenodd" clip-rule="evenodd" d="M104.878 77.6901C112.485 74.0639 116.333 69.4447 116.333 64.9997C116.333 60.5548 112.485 55.9356 104.878 52.3094C97.4206 48.7539 86.9773 46.4997 75.3335 46.4997C63.6897 46.4997 53.2463 48.7539 45.7886 52.3094C38.1824 55.9356 34.3335 60.5548 34.3335 64.9997C34.3335 69.4447 38.1824 74.0639 45.7886 77.6901C53.2463 81.2455 63.6897 83.4997 75.3335 83.4997C86.9773 83.4997 97.4206 81.2455 104.878 77.6901ZM75.3335 85.4997C99.0817 85.4997 118.333 76.3216 118.333 64.9997C118.333 53.6779 99.0817 44.4997 75.3335 44.4997C51.5853 44.4997 32.3335 53.6779 32.3335 64.9997C32.3335 76.3216 51.5853 85.4997 75.3335 85.4997Z" fill="#9E8F68"/>
<mask id="mask1_3614_4079" style="mask-type:alpha" maskUnits="userSpaceOnUse" x="32" y="55" width="87" height="42">
<ellipse cx="75.3335" cy="75.9997" rx="43" ry="20.5" fill="#DFCB96"/>
</mask>
<g mask="url(#mask1_3614_4079)">
<path fill-rule="evenodd" clip-rule="evenodd" d="M70.3335 49.4997H44.3335V53.4997H70.3335V49.4997ZM35.3335 67.4997H55.3335V71.4997H35.3335V67.4997ZM59.3335 67.4997H85.3335V71.4997H59.3335V67.4997ZM115.333 67.4997H89.3335V71.4997H115.333V67.4997ZM44.3335 73.4997H70.3335V77.4997H44.3335V73.4997ZM100.333 73.4997H74.3335V77.4997H100.333V73.4997ZM49.3335 79.4997H55.3335V82.9997L53.3335 81.9997L49.3335 79.4997ZM85.3335 79.4997H59.3335V83.4997H85.3335V79.4997ZM89.3335 79.4997H101.333L98.3335 81.4997L89.3335 83.4997V79.4997ZM74.3335 49.4997H100.333V53.4997H74.3335V49.4997ZM130.333 49.4997H104.333V53.4997H130.333V49.4997ZM29.3335 55.4997H55.3335V59.4997H29.3335V55.4997ZM85.3335 55.4997H59.3335V59.4997H85.3335V55.4997ZM89.3335 55.4997H115.333V59.4997H89.3335V55.4997ZM70.3335 61.4997H44.3335V65.4997H70.3335V61.4997ZM74.3335 61.4997H100.333V65.4997H74.3335V61.4997ZM130.333 61.4997H104.333V65.4997H130.333V61.4997Z" fill="#D9BA98"/>
</g>
<path fill-rule="evenodd" clip-rule="evenodd" d="M104.878 77.6901C112.485 74.0639 116.333 69.4447 116.333 64.9997C116.333 60.5548 112.485 55.9356 104.878 52.3094C97.4206 48.7539 86.9773 46.4997 75.3335 46.4997C63.6897 46.4997 53.2463 48.7539 45.7886 52.3094C38.1824 55.9356 34.3335 60.5548 34.3335 64.9997C34.3335 69.4447 38.1824 74.0639 45.7886 77.6901C53.2463 81.2455 63.6897 83.4997 75.3335 83.4997C86.9773 83.4997 97.4206 81.2455 104.878 77.6901ZM75.3335 85.4997C99.0817 85.4997 118.333 76.3216 118.333 64.9997C118.333 53.6779 99.0817 44.4997 75.3335 44.4997C51.5853 44.4997 32.3335 53.6779 32.3335 64.9997C32.3335 76.3216 51.5853 85.4997 75.3335 85.4997Z" fill="#8E805B"/>
<path d="M82.8523 56.9708C82.1553 56.2647 81.2322 55.7952 80.1893 55.6976C78.6651 55.555 77.2449 56.2404 76.3334 57.4006C76.0904 57.3324 75.8383 57.2851 75.5788 57.2608C73.1346 57.0321 70.9581 58.9325 70.7173 61.5056C70.7135 61.5457 70.7103 61.5857 70.7075 61.6257L70.7061 61.6256C68.2619 61.3968 66.0854 63.2973 65.8446 65.8703C65.6284 68.1809 67.0466 70.2481 69.1081 70.8115C71.3475 71.7757 77.2543 73.7624 82.9669 73.9951C88.6795 74.2278 93.8131 73.6266 95.6658 73.297C95.6653 73.2904 95.6647 73.2837 95.6642 73.2771C97.7539 73.0638 99.4838 71.3132 99.6969 69.0356C99.9377 66.4625 98.1516 64.1912 95.7074 63.9625L95.7061 63.9624C95.7106 63.9235 95.7148 63.8844 95.7184 63.8452C95.9592 61.2722 94.1731 59.0009 91.7289 58.7722C90.9149 58.696 90.1305 58.856 89.4375 59.1984C88.8625 57.5839 87.4519 56.3773 85.7052 56.2138C84.6623 56.1162 83.6681 56.4063 82.8523 56.9708Z" fill="#F6C76B"/>
<path d="M82.6699 58.7139C82.0722 58.1381 81.2824 57.7535 80.3918 57.6701C79.0903 57.5483 77.8808 58.0989 77.1074 59.0368C76.8996 58.9805 76.6843 58.9411 76.4627 58.9203C74.3756 58.725 72.5253 60.2586 72.33 62.3457C72.3269 62.3783 72.3243 62.4108 72.3221 62.4432L72.3209 62.4431C70.2338 62.2478 68.3835 63.7814 68.1882 65.8685C68.0128 67.7427 69.2316 69.4259 70.9934 69.8912C72.9086 70.6826 77.9584 72.3183 82.8353 72.5298C87.7123 72.7413 92.0917 72.2739 93.6718 72.0137C93.6713 72.0083 93.6708 72.0029 93.6703 71.9976C95.4531 71.8327 96.9228 70.419 97.0957 68.5715C97.291 66.4844 95.7574 64.6341 93.6703 64.4388L93.6691 64.4387C93.6728 64.4071 93.6762 64.3755 93.6792 64.3436C93.8745 62.2565 92.3409 60.4063 90.2538 60.2109C89.5586 60.1459 88.8898 60.2726 88.2996 60.5477C87.8024 59.2353 86.5936 58.2505 85.102 58.1109C84.2115 58.0276 83.364 58.259 82.6699 58.7139Z" fill="#FFF3BF"/>
<path d="M79.4337 62.2063C82.3983 62.0899 89.1456 63.0561 92.4185 67.8519" stroke="#FDCA67" stroke-width="1.4" stroke-linecap="round"/>
<g style="mix-blend-mode:multiply">
<path fill-rule="evenodd" clip-rule="evenodd" d="M80.446 57.9796L80.4253 57.9608L80.4609 57.9694L80.446 57.9796ZM70.7074 70.2935C70.2477 70.1605 69.8367 69.9198 69.5013 69.6023C71.7001 70.3867 76.4083 71.6988 80.9386 71.7879C85.8192 71.8838 90.1863 71.3127 91.7598 71.0152L91.7572 70.9927C93.3501 70.7781 94.6276 69.4699 94.7438 67.8036C94.8185 66.7323 94.3973 65.7409 93.6756 65.0543C95.339 65.4049 96.5314 66.9369 96.4098 68.6808C96.2936 70.3471 95.0161 71.6553 93.4232 71.8699L93.4258 71.8924C91.8523 72.1899 87.4852 72.761 82.6046 72.6651C77.724 72.5691 72.6369 71.0536 70.7034 70.3079L70.7074 70.2935ZM93.2515 64.2243C93.2409 64.3761 93.2215 64.5253 93.1939 64.6712C92.7134 64.3545 92.1472 64.1534 91.5323 64.1106C91.5065 64.1088 91.4807 64.1073 91.455 64.106C91.5228 63.8627 91.5672 63.6089 91.5855 63.3471C91.6698 62.1382 91.1783 61.0221 90.3447 60.2674C92.1208 60.6881 93.3826 62.3439 93.2515 64.2243ZM85.1446 58.29C85.8763 58.4633 86.5207 58.8462 87.0164 59.3681C86.7014 59.4343 86.3998 59.5398 86.1175 59.6796C85.9012 59.147 85.5668 58.6722 85.1446 58.29Z" fill="#FFF3BF"/>
</g>
<path d="M72.1045 49.0195C71.3448 48.3814 70.3819 48 69.3345 48C67.8036 48 66.4535 48.8148 65.654 50.0549C65.4057 50.0096 65.1503 49.9859 64.8896 49.9859C62.4348 49.9859 60.4448 52.0809 60.4448 54.6652C60.4448 54.7055 60.4453 54.7457 60.4463 54.7857L60.4448 54.7857C57.99 54.7857 56 56.8807 56 59.465C56 61.7857 57.6047 63.7117 59.7097 64.0806C62.0292 64.8319 68.0954 66.2596 73.8049 65.959C79.5143 65.6585 84.5695 64.5816 86.3835 64.0807C86.3823 64.0742 86.3812 64.0677 86.38 64.0611C88.4407 63.654 90 61.7499 90 59.4623C90 56.878 88.01 54.783 85.5552 54.783L85.5538 54.783C85.5547 54.7439 85.5552 54.7046 85.5552 54.6652C85.5552 52.0809 83.5652 49.9859 81.1104 49.9859C80.2928 49.9859 79.5267 50.2183 78.8686 50.6238C78.1457 49.0699 76.6288 48 74.8744 48C73.827 48 72.8642 48.3814 72.1045 49.0195Z" fill="#F6C76B"/>
<path d="M72.0853 50.772C71.4366 50.2544 70.6144 49.945 69.7199 49.945C68.4127 49.945 67.2598 50.6059 66.5771 51.6118C66.365 51.575 66.1469 51.5559 65.9244 51.5559C63.8281 51.5559 62.1288 53.2552 62.1288 55.3514C62.1288 55.3841 62.1292 55.4167 62.13 55.4492L62.1288 55.4492C60.0326 55.4492 58.3333 57.1485 58.3333 59.2448C58.3333 61.1272 59.7036 62.6895 61.5011 62.9887C63.4817 63.5981 68.6619 64.7562 73.5373 64.5124C78.4128 64.2686 82.7296 63.3951 84.2786 62.9888C84.2776 62.9835 84.2766 62.9782 84.2756 62.9729C86.0353 62.6427 87.3668 61.0981 87.3668 59.2426C87.3668 57.1463 85.6675 55.447 83.5713 55.447L83.5701 55.447C83.5709 55.4152 83.5713 55.3834 83.5713 55.3514C83.5713 53.2552 81.8719 51.5559 79.7757 51.5559C79.0775 51.5559 78.4234 51.7444 77.8614 52.0733C77.2441 50.8129 75.9488 49.945 74.4507 49.945C73.5562 49.945 72.7341 50.2544 72.0853 50.772Z" fill="#FFF3BF"/>
<path d="M69.1885 54.5508C72.1293 54.1587 78.9373 54.4919 82.6428 58.962" stroke="#FDCA67" stroke-width="1.4" stroke-linecap="round"/>
<g style="mix-blend-mode:multiply">
<path fill-rule="evenodd" clip-rule="evenodd" d="M69.8027 50.2481L69.7804 50.2313L69.8166 50.2366L69.8027 50.2481ZM61.2538 63.4158C60.7837 63.3262 60.3521 63.1249 59.9885 62.84C62.2509 63.4161 67.0609 64.2838 71.5797 63.9504C76.448 63.5912 80.7429 62.6157 82.2818 62.1728L82.2772 62.1507C83.8432 61.7886 84.9932 60.367 84.9536 58.6971C84.9282 57.6235 84.4164 56.6757 83.634 56.0593C85.3227 56.2534 86.6527 57.6677 86.6941 59.4153C86.7337 61.0852 85.5837 62.5068 84.0177 62.8688L84.0223 62.891C82.4834 63.3338 78.1885 64.3093 73.3202 64.6686C68.4519 65.0278 63.2458 63.9929 61.2512 63.4305L61.2538 63.4158ZM83.1343 55.2725C83.1379 55.4246 83.1325 55.5749 83.1186 55.7228C82.6107 55.4522 82.0283 55.3048 81.412 55.3194C81.3861 55.32 81.3603 55.3209 81.3346 55.3221C81.3795 55.0735 81.4001 54.8167 81.3938 54.5543C81.3651 53.3428 80.7718 52.2774 79.8715 51.6036C81.679 51.8571 83.0897 53.3881 83.1343 55.2725ZM74.5098 50.1193C75.2544 50.2237 75.9317 50.5449 76.4738 51.0183C76.1664 51.1136 75.876 51.2468 75.6079 51.4123C75.3429 50.9021 74.9657 50.4605 74.5098 50.1193Z" fill="#FFF3BF"/>
</g>
<path fill-rule="evenodd" clip-rule="evenodd" d="M61.5519 11.501C64.0123 12.6974 66.6851 14.8367 67.3092 18.2691C67.7346 20.6084 67.4663 22.6149 66.7082 24.3853C65.9623 26.1272 64.7773 27.5576 63.4996 28.8138C62.5937 29.7044 61.573 30.5691 60.5939 31.3986C60.2175 31.7175 59.8472 32.0312 59.4919 32.3391C58.1689 33.486 56.975 34.6159 56.043 35.8868C53.6503 39.1496 53.9361 42.1177 55.2925 44.2855C56.7192 46.5656 59.3751 48.0375 61.8335 48.0375C62.6619 48.0375 63.3335 48.7091 63.3335 49.5375C63.3335 50.366 62.6619 51.0375 61.8335 51.0375C58.2917 51.0375 54.6976 48.9905 52.7493 45.8768C50.7307 42.6506 50.5166 38.3498 53.6238 34.1127C54.7616 32.5611 56.165 31.2528 57.5269 30.0723C57.9417 29.7127 58.3471 29.3693 58.7426 29.0343C59.6871 28.2342 60.5747 27.4824 61.3964 26.6745C62.5387 25.5515 63.4213 24.4401 63.9505 23.2043C64.4675 21.9969 64.682 20.5897 64.3576 18.8058C63.9817 16.7384 62.3212 15.211 60.24 14.199C59.2236 13.7048 58.179 13.3724 57.2949 13.1844C56.3563 12.9849 55.7661 12.9834 55.6018 13.0133C54.7867 13.1615 54.0058 12.6209 53.8576 11.8059C53.7094 10.9908 54.25 10.2099 55.0651 10.0617C55.8174 9.92494 56.8731 10.0277 57.9188 10.25C59.0191 10.4839 60.2974 10.8911 61.5519 11.501Z" fill="#FFEFD7"/>
<path fill-rule="evenodd" clip-rule="evenodd" d="M75.1288 11.501C77.5892 12.6974 80.262 14.8367 80.8861 18.2691C81.3115 20.6084 81.0432 22.6149 80.2851 24.3853C79.5392 26.1272 78.3543 27.5576 77.0765 28.8138C76.1706 29.7044 75.15 30.5691 74.1708 31.3986C73.7944 31.7175 73.4241 32.0312 73.0688 32.3391C71.7458 33.486 70.5519 34.6159 69.6199 35.8868C67.2272 39.1496 67.513 42.1177 68.8694 44.2855C70.2961 46.5656 72.952 48.0375 75.4104 48.0375C76.2388 48.0375 76.9104 48.7091 76.9104 49.5375C76.9104 50.366 76.2388 51.0375 75.4104 51.0375C71.8687 51.0375 68.2745 48.9905 66.3262 45.8768C64.3076 42.6506 64.0935 38.3498 67.2007 34.1127C68.3385 32.5611 69.7419 31.2528 71.1038 30.0723C71.5186 29.7127 71.924 29.3693 72.3195 29.0343C73.264 28.2342 74.1516 27.4824 74.9733 26.6745C76.1156 25.5515 76.9982 24.4401 77.5274 23.2043C78.0444 21.9969 78.2589 20.5897 77.9345 18.8058C77.5586 16.7384 75.8981 15.211 73.8169 14.199C72.8005 13.7048 71.7559 13.3724 70.8719 13.1844C69.9332 12.9849 69.343 12.9834 69.1787 13.0133C68.3636 13.1615 67.5827 12.6209 67.4345 11.8059C67.2863 10.9908 67.8269 10.2099 68.642 10.0617C69.3943 9.92494 70.45 10.0277 71.4957 10.25C72.596 10.4839 73.8743 10.8911 75.1288 11.501Z" fill="#FFEFD7"/>
<path fill-rule="evenodd" clip-rule="evenodd" d="M89.1288 11.501C91.5892 12.6974 94.262 14.8367 94.8861 18.2691C95.3115 20.6084 95.0432 22.6149 94.2851 24.3853C93.5392 26.1272 92.3543 27.5576 91.0765 28.8138C90.1706 29.7044 89.15 30.5691 88.1708 31.3986C87.7944 31.7175 87.4241 32.0312 87.0688 32.3391C85.7458 33.486 84.5519 34.6159 83.6199 35.8868C81.2272 39.1496 81.513 42.1177 82.8694 44.2855C84.2961 46.5656 86.952 48.0375 89.4104 48.0375C90.2388 48.0375 90.9104 48.7091 90.9104 49.5375C90.9104 50.366 90.2388 51.0375 89.4104 51.0375C85.8687 51.0375 82.2745 48.9905 80.3262 45.8768C78.3076 42.6506 78.0935 38.3498 81.2007 34.1127C82.3385 32.5611 83.7419 31.2528 85.1038 30.0723C85.5186 29.7127 85.924 29.3693 86.3195 29.0343C87.264 28.2342 88.1516 27.4824 88.9733 26.6745C90.1156 25.5515 90.9982 24.4401 91.5274 23.2043C92.0444 21.9969 92.2589 20.5897 91.9345 18.8058C91.5586 16.7384 89.8981 15.211 87.8169 14.199C86.8005 13.7048 85.7559 13.3724 84.8719 13.1844C83.9332 12.9849 83.343 12.9834 83.1787 13.0133C82.3636 13.1615 81.5827 12.6209 81.4345 11.8059C81.2863 10.9908 81.8269 10.2099 82.642 10.0617C83.3943 9.92494 84.45 10.0277 85.4957 10.25C86.596 10.4839 87.8743 10.8911 89.1288 11.501Z" fill="#FFEFD7"/>
<path d="M63.5573 74.9146L122.883 30.6722C124.212 29.6812 124.474 27.795 123.466 26.4792C122.458 25.1633 120.569 24.9256 119.266 25.9508L61.1089 71.7189C60.2433 72.4002 60.0859 73.6507 60.7559 74.5252C61.4259 75.3996 62.6743 75.5731 63.5573 74.9146Z" fill="#714F4F" stroke="black" stroke-width="2"/>
<path d="M114.268 35.8494L109.859 39.1376L107.703 36.3233L112.025 32.9216L114.268 35.8494Z" fill="#FFDF70"/>
<path d="M66.1045 61.0195C65.3448 60.3814 64.3819 60 63.3345 60C61.8036 60 60.4535 60.8148 59.654 62.0549C59.4057 62.0096 59.1503 61.9859 58.8896 61.9859C56.4348 61.9859 54.4448 64.0809 54.4448 66.6652C54.4448 66.7055 54.4453 66.7457 54.4463 66.7857L54.4448 66.7857C51.99 66.7857 50 68.8807 50 71.465C50 73.7857 51.6047 75.7117 53.7097 76.0806C56.0292 76.8319 62.0954 78.2596 67.8049 77.959C73.5143 77.6585 78.5695 76.5816 80.3835 76.0807C80.3823 76.0742 80.3812 76.0677 80.38 76.0611C82.4407 75.654 84 73.7499 84 71.4623C84 68.878 82.01 66.783 79.5552 66.783L79.5538 66.783C79.5547 66.7439 79.5552 66.7046 79.5552 66.6652C79.5552 64.0809 77.5652 61.9859 75.1104 61.9859C74.2928 61.9859 73.5267 62.2183 72.8686 62.6238C72.1457 61.0699 70.6288 60 68.8744 60C67.827 60 66.8642 60.3814 66.1045 61.0195Z" fill="#F6C76B"/>
<path d="M66.0853 62.772C65.4366 62.2544 64.6144 61.945 63.7199 61.945C62.4127 61.945 61.2598 62.6059 60.5771 63.6118C60.365 63.575 60.1469 63.5559 59.9244 63.5559C57.8281 63.5559 56.1288 65.2552 56.1288 67.3514C56.1288 67.3841 56.1292 67.4167 56.13 67.4492L56.1288 67.4492C54.0326 67.4492 52.3333 69.1485 52.3333 71.2448C52.3333 73.1272 53.7036 74.6895 55.5011 74.9887C57.4817 75.5981 62.6619 76.7562 67.5373 76.5124C72.4128 76.2686 76.7296 75.3951 78.2786 74.9888C78.2776 74.9835 78.2766 74.9782 78.2756 74.9729C80.0353 74.6427 81.3668 73.0981 81.3668 71.2426C81.3668 69.1463 79.6675 67.447 77.5713 67.447L77.5701 67.447C77.5709 67.4152 77.5713 67.3834 77.5713 67.3514C77.5713 65.2552 75.8719 63.5559 73.7757 63.5559C73.0775 63.5559 72.4234 63.7444 71.8614 64.0733C71.2441 62.8129 69.9488 61.945 68.4507 61.945C67.5562 61.945 66.7341 62.2544 66.0853 62.772Z" fill="#FFF3BF"/>
<path d="M63.1885 66.5508C66.1293 66.1587 72.9373 66.4919 76.6428 70.962" stroke="#FDCA67" stroke-width="1.4" stroke-linecap="round"/>
<g style="mix-blend-mode:multiply">
<path fill-rule="evenodd" clip-rule="evenodd" d="M55.2539 75.4158C54.5015 75.2724 53.8478 74.843 53.4136 74.2426C53.74 74.4638 54.1127 74.6213 54.5134 74.6976L54.5108 74.7123C56.5053 75.2747 61.7115 76.3096 66.5798 75.9504C71.4481 75.5912 75.743 74.6157 77.2819 74.1728L77.2772 74.1507C78.8432 73.7886 79.9933 72.367 79.9537 70.6972C79.9357 69.9383 79.6747 69.2422 79.2469 68.6817C80.101 69.2931 80.6674 70.2844 80.6942 71.4153C80.7338 73.0852 79.5837 74.5068 78.0177 74.8689L78.0224 74.891C76.4835 75.3339 72.1886 76.3094 67.3203 76.6686C62.452 77.0278 57.2458 75.9929 55.2513 75.4305L55.2539 75.4158ZM77.1344 67.2725C77.1352 67.3077 77.1356 67.3427 77.1355 67.3777C76.9015 67.3338 76.6595 67.3136 76.412 67.3194C76.3862 67.32 76.3604 67.3209 76.3347 67.3221C76.3795 67.0735 76.4001 66.8167 76.3939 66.5543C76.3737 65.7039 76.0754 64.9254 75.5879 64.3039C76.5018 64.9766 77.1054 66.0502 77.1344 67.2725ZM70.608 63.4123C70.6633 63.3781 70.7196 63.3454 70.7768 63.314C70.6098 63.1319 70.4254 62.9662 70.2262 62.8196C70.3709 63.0041 70.4989 63.2024 70.608 63.4123Z" fill="#FFF3BF"/>
</g>
<path d="M42.3334 81.9997C42.64 82.6129 42.1618 83.4997 41.3334 83.4997C40.505 83.4997 39.7321 82.7967 39.3334 81.9997C39.0418 81.4167 39.505 80.4997 40.3334 80.4997C41.1618 80.4997 41.8334 80.9997 42.3334 81.9997Z" fill="#8E805B"/>
<path d="M41.4211 91.9997C41.7276 92.6129 41.2495 93.4997 40.4211 93.4997C39.5926 93.4997 38.8197 92.7967 38.4211 91.9997C38.1294 91.4167 38.5926 90.4997 39.4211 90.4997C40.2495 90.4997 40.9211 90.9997 41.4211 91.9997Z" fill="#8E805B"/>
<path d="M108.246 81.9997C107.939 82.6129 108.418 83.4997 109.246 83.4997C110.074 83.4997 110.847 82.7967 111.246 81.9997C111.538 81.4167 111.074 80.4997 110.246 80.4997C109.418 80.4997 108.746 80.9997 108.246 81.9997Z" fill="#8E805B"/>
<path d="M108.246 91.9997C107.939 92.6129 108.418 93.4997 109.246 93.4997C110.074 93.4997 110.847 92.7967 111.246 91.9997C111.538 91.4167 111.074 90.4997 110.246 90.4997C109.418 90.4997 108.746 90.9997 108.246 91.9997Z" fill="#8E805B"/>
<path d="M67.2999 76.4541L131.534 39.6993C132.973 38.876 133.461 37.0353 132.619 35.6073C131.777 34.1793 129.93 33.7152 128.513 34.5756L65.2553 72.9861C64.3137 73.5579 64.0065 74.7803 64.566 75.7292C65.1254 76.6782 66.3437 77.0012 67.2999 76.4541Z" fill="#714F4F" stroke="black" stroke-width="2"/>
<path d="M122.357 43.7983L117.583 46.53L115.782 43.4759L120.484 40.6211L122.357 43.7983Z" fill="#FFDF70"/>
<path d="M24.6667 121.5C27.1709 121.5 29.4868 121.033 31.214 120.236C32.8562 119.478 34.3333 118.229 34.3333 116.5C34.3333 114.77 32.8562 113.521 31.214 112.763C29.4868 111.966 27.1709 111.5 24.6667 111.5C22.1624 111.5 19.8466 111.966 18.1193 112.763C16.4771 113.521 15 114.77 15 116.5C15 118.229 16.4771 119.478 18.1193 120.236C19.8466 121.033 22.1624 121.5 24.6667 121.5Z" fill="#DBE9F4" stroke="black" stroke-width="2"/>
<g filter="url(#filter0_i_3614_4079)">
<ellipse cx="24.6667" cy="110.833" rx="16.6667" ry="7.33333" fill="#EFF8FF"/>
</g>
<path d="M24.6667 119.166C29.3743 119.166 33.6841 118.329 36.8545 116.934C38.4383 116.237 39.7825 115.381 40.7445 114.381C41.7113 113.375 42.3333 112.174 42.3333 110.833C42.3333 109.492 41.7113 108.291 40.7445 107.286C39.7825 106.285 38.4383 105.429 36.8545 104.732C33.6841 103.337 29.3743 102.5 24.6667 102.5C19.9591 102.5 15.6492 103.337 12.4788 104.732C10.895 105.429 9.55086 106.285 8.58882 107.286C7.62204 108.291 7 109.492 7 110.833C7 112.174 7.62204 113.375 8.58882 114.381C9.55086 115.381 10.895 116.237 12.4788 116.934C15.6492 118.329 19.9591 119.166 24.6667 119.166Z" stroke="black" stroke-width="2"/>
<path d="M17.3334 108.833C20.5334 108.833 18.6667 108.166 20.6666 106.833C22.6666 105.5 30.1711 107.113 33.3334 108.167C37.3334 109.5 35.5334 113.348 32.6667 114.167C28.0001 115.5 22 113.5 16.6667 113.5C11.3333 113.5 13.3334 108.833 17.3334 108.833Z" fill="#551212"/>
<path d="M26.0001 108.166C25.4668 107.633 23.5557 107.5 22.6668 107.5C22.4446 107.5 22.1335 107.633 22.6668 108.166C23.3335 108.833 26.6668 108.833 26.0001 108.166Z" fill="white" fill-opacity="0.25"/>
<path d="M20.7919 79.7638C20.9413 79.2234 21.6523 79.1008 21.9739 79.56L24.6029 83.3125C24.6913 83.4387 24.8208 83.5301 24.9693 83.5711L29.3855 84.7919C29.9258 84.9413 30.0484 85.6522 29.5892 85.9739L25.8367 88.6029C25.7106 88.6913 25.6191 88.8208 25.5781 88.9693L24.3573 93.3855C24.2079 93.9258 23.497 94.0484 23.1753 93.5892L20.5463 89.8367C20.4579 89.7105 20.3284 89.6191 20.18 89.5781L15.7638 88.3573C15.2234 88.2079 15.1009 87.497 15.56 87.1753L19.3126 84.5463C19.4387 84.4579 19.5301 84.3284 19.5712 84.18L20.7919 79.7638Z" fill="#5C75CD"/>
<path d="M99.5408 28.346C99.8986 27.9144 100.597 28.094 100.702 28.6447L101.109 30.7724C101.138 30.9237 101.219 31.0602 101.337 31.1585L103.005 32.5408C103.437 32.8985 103.257 33.5972 102.706 33.7024L100.579 34.109C100.427 34.1379 100.291 34.2185 100.193 34.3371L98.8103 36.005C98.4526 36.4367 97.7539 36.2571 97.6487 35.7064L97.2422 33.5786C97.2133 33.4274 97.1326 33.2909 97.014 33.1926L95.3461 31.8103C94.9145 31.4526 95.0941 30.7538 95.6447 30.6486L97.7725 30.2421C97.9238 30.2132 98.0603 30.1325 98.1585 30.014L99.5408 28.346Z" fill="#5C75CD"/>
<circle cx="21.8335" cy="48.9997" r="2.5" fill="#FFF8E0"/>
<circle cx="122.833" cy="86.9997" r="1.5" fill="#FFF8E0"/>
<circle cx="36.7685" cy="36.9347" r="1.43498" fill="#FFE381"/>
<circle cx="93.2901" cy="40.4564" r="0.956654" fill="#FFE380"/>
<rect x="25.3335" y="59.4299" width="4.26785" height="4.13814" rx="0.191331" transform="rotate(-12.5876 25.3335 59.4299)" fill="#FFE381"/>
<rect x="122.828" y="73.8359" width="5.25422" height="5.09453" rx="0.191331" transform="rotate(-12.5876 122.828 73.8359)" fill="#5C75CD"/>
<defs>
<filter id="filter0_i_3614_4079" x="6" y="101.5" width="37.3333" height="18.6667" filterUnits="userSpaceOnUse" color-interpolation-filters="sRGB">
<feFlood flood-opacity="0" result="BackgroundImageFix"/>
<feBlend mode="normal" in="SourceGraphic" in2="BackgroundImageFix" result="shape"/>
<feColorMatrix in="SourceAlpha" type="matrix" values="0 0 0 0 0 0 0 0 0 0 0 0 0 0 0 0 0 0 127 0" result="hardAlpha"/>
<feOffset dy="-0.666667"/>
<feComposite in2="hardAlpha" operator="arithmetic" k2="-1" k3="1"/>
<feColorMatrix type="matrix" values="0 0 0 0 0.84 0 0 0 0 0.894035 0 0 0 0 0.933333 0 0 0 1 0"/>
<feBlend mode="normal" in2="shape" result="effect1_innerShadow_3614_4079"/>
</filter>
</defs>
</svg>
