<svg width="140" height="140" viewBox="0 0 140 140" fill="none" xmlns="http://www.w3.org/2000/svg">
<path d="M5.98163 53.2099C6.13475 55.4054 6.48335 57.5076 6.99552 59.516C5.53862 67.558 5.57994 75.8422 7.79283 83.0844C10.3787 91.5474 13.8495 97.4081 18.4798 102.412C23.0259 107.325 28.6555 111.364 35.3869 116.194L35.5044 116.279C38.573 118.481 41.8905 120.861 45.4979 123.594C55.3554 131.062 70.4923 132.901 84.7646 130.669C99.0498 128.435 113.105 122.026 120.78 112.234C134.856 94.2747 137.854 67.4189 132.138 45.9847C125.832 22.3366 100.295 7.9999 75.2056 8C57.6342 8.00007 41.5049 13.4377 29.1263 22.3299C22.5123 24.3346 16.4825 27.8077 12.2103 32.8957C7.83634 38.1049 5.40186 44.8966 5.98163 53.2099Z" stroke="white" stroke-width="4"/>
<path d="M75.2057 10C55.5039 10.0001 37.7056 17 25.2057 28C12.7057 39 4.20565 64.5 9.70564 82.5C15.8428 102.585 26.9144 107.007 46.7057 122C65.2057 136.015 104.706 129.5 119.206 111C132.809 93.6446 135.799 67.4752 130.206 46.5C124.206 24 99.7057 9.9999 75.2057 10Z" fill="#F1FFCA"/>
<path fill-rule="evenodd" clip-rule="evenodd" d="M23.8845 26.4986C36.7656 15.1632 55.0393 8.00008 75.2057 8C100.295 7.9999 125.832 22.3366 132.138 45.9847C137.854 67.4189 134.856 94.2747 120.78 112.234C113.105 122.026 99.05 128.435 84.7648 130.669C70.4925 132.901 55.3556 131.062 45.4981 123.594C41.9688 120.921 38.6897 118.571 35.648 116.392C21.91 106.548 13.0149 100.174 7.79301 83.0844C4.89341 73.5948 5.71573 62.2981 8.79008 52.0503C11.8627 41.8081 17.2746 32.3153 23.8845 26.4986ZM25.2057 28C37.7057 17 55.504 10.0001 75.2058 10C99.7058 9.9999 124.206 24 130.206 46.5C135.799 67.4752 132.809 93.6446 119.206 111C104.706 129.5 65.2058 136.015 46.7058 122C43.0748 119.249 39.7372 116.854 36.6699 114.653C23.018 104.857 14.7169 98.9004 9.70572 82.5C4.20572 64.5 12.7057 39 25.2057 28Z" fill="black"/>
<mask id="mask0_3614_4719" style="mask-type:alpha" maskUnits="userSpaceOnUse" x="8" y="10" width="125" height="120">
<path d="M75.2057 10C55.5039 10.0001 37.7056 17 25.2057 28C12.7057 39 4.20565 64.5 9.70564 82.5C15.8428 102.585 26.9144 107.007 46.7057 122C65.2057 136.015 104.706 129.5 119.206 111C132.809 93.6446 135.799 67.4752 130.206 46.5C124.206 24 99.7057 9.9999 75.2057 10Z" fill="#F1FFCA"/>
</mask>
<g mask="url(#mask0_3614_4719)">
<path d="M125.5 57C134.043 56.5983 137.676 73.3434 138 79.7039L122 131.5H13L5 75.1846C7.75061 60.7897 11.4569 39 20 39C30.6788 39 34.1241 81.7124 42.8613 81.7124C51.5985 81.7124 64.7044 64.1373 77.8102 64.1373C90.9161 64.1373 87.0328 79.7039 97.7117 79.7039C108.391 79.7039 114.821 57.5021 125.5 57Z" fill="#D1E8A1"/>
<path d="M46 71C32 71 13.5 97 6 110L25 143L105.5 147L136.5 121C132 108.333 120.7 83.1 111.5 83.5C100 84 94 101.5 80 101.5C66 101.5 63.5 71 46 71Z" fill="#A5D67E"/>
<path fill-rule="evenodd" clip-rule="evenodd" d="M4.26676 110.998C3.91077 110.38 3.9111 109.619 4.26763 109.001C8.06766 102.414 14.6466 92.5418 22.0759 84.2871C25.7895 80.1608 29.766 76.382 33.7612 73.6204C37.7244 70.8811 41.9107 69 46 69C51.0397 69 54.9536 71.2239 58.1273 74.3381C61.2491 77.4013 63.7575 81.4273 66.0287 85.2231C66.2843 85.6502 66.5367 86.074 66.7865 86.4935C68.8154 89.9005 70.6781 93.0282 72.754 95.425C75.0533 98.0798 77.3311 99.5 80 99.5C86.1111 99.5 90.5762 95.7188 95.3125 91.2351C95.592 90.9705 95.8731 90.703 96.1557 90.434C98.1873 88.5003 100.303 86.4866 102.534 84.8953C105.11 83.0574 108.012 81.6497 111.413 81.5019C114.618 81.3625 117.585 83.4245 120.093 86.0194C122.679 88.6953 125.189 92.3663 127.494 96.3483C132.111 104.329 136.109 113.925 138.385 120.33C138.664 121.118 138.425 121.996 137.785 122.532L106.785 148.532C106.399 148.856 105.904 149.023 105.401 148.998L24.9007 144.998C24.2216 144.964 23.6061 144.587 23.2668 143.998L4.26676 110.998ZM6 110C13.5 97 32 71 46 71C55.2376 71 60.2956 79.4985 65.0718 87.5235C69.3437 94.7012 73.3901 101.5 80 101.5C87.4256 101.5 92.6006 96.5769 97.5394 91.8784C101.912 87.7185 106.1 83.7348 111.5 83.5C120.7 83.1 132 108.333 136.5 121L105.5 147L25 143L6 110Z" fill="black"/>
<path d="M60.7165 103C48.9157 103 33.3218 113.263 27 118.395L43.0153 131.421L110.87 133L137 122.737C133.207 117.737 123.682 107.776 115.927 107.934C106.234 108.132 101.176 115.039 89.3755 115.039C77.5747 115.039 75.4674 103 60.7165 103Z" fill="#84BC58"/>
<path fill-rule="evenodd" clip-rule="evenodd" d="M25 118.394C25.0003 117.792 25.272 117.221 25.7395 116.842C28.9935 114.201 34.5845 110.275 40.8805 106.999C47.1247 103.75 54.3241 101 60.7165 101C68.7769 101 73.4375 104.355 77.3849 107.445C77.5699 107.59 77.7527 107.733 77.9336 107.875C81.6079 110.76 84.5116 113.039 89.3755 113.039C94.8398 113.039 98.736 111.459 102.631 109.732C102.886 109.619 103.142 109.505 103.4 109.39C107.043 107.764 110.917 106.036 115.886 105.935C120.522 105.84 125.327 108.706 129.207 111.847C133.18 115.062 136.619 118.926 138.593 121.528C138.972 122.027 139.095 122.675 138.926 123.278C138.756 123.881 138.314 124.369 137.731 124.598L111.601 134.862C111.353 134.959 111.089 135.006 110.823 134.999L42.9688 133.421C42.5252 133.41 42.0976 133.253 41.7533 132.973L25.738 119.946C25.2708 119.566 24.9997 118.996 25 118.394ZM28.6138 117.129C28.0252 117.577 27.4853 118.001 27 118.395L43.0153 131.421L110.87 133L137 122.737C136.62 122.236 136.183 121.686 135.695 121.1C131.317 115.843 122.905 107.792 115.927 107.934C111.375 108.027 107.845 109.599 104.16 111.241C99.9967 113.096 95.6346 115.039 89.3755 115.039C83.8039 115.039 80.3931 112.356 76.7923 109.522C72.7664 106.355 68.503 103 60.7165 103C49.8215 103 35.6935 111.748 28.6138 117.129Z" fill="black"/>
<path d="M93.4238 99.3617C87.5798 101.578 79.1633 109.952 67 111.237C85.8741 109.965 91.7461 106.148 98.0374 111.237C103.071 115.308 114.255 119.295 118.589 115.054C124.042 121.84 136.205 120.567 140.399 117.599C144.594 114.63 149.207 105.299 142.916 100.634C138.511 97.3678 131.973 98.5135 131.591 102.755C132.011 98.0894 130.082 93 120.686 93C111.291 93 108.523 97.2411 110.201 100.634C110.201 100.634 103.49 95.5446 93.4238 99.3617Z" fill="#FDFFF6"/>
<path fill-rule="evenodd" clip-rule="evenodd" d="M65.0076 111.409C64.9136 110.324 65.7062 109.362 66.79 109.248C72.4663 108.648 77.3261 106.39 81.5768 103.919C83.0751 103.048 84.4576 102.176 85.7869 101.338C86.3616 100.975 86.9263 100.619 87.4862 100.272C89.2845 99.1565 91.0533 98.1217 92.7148 97.4916C98.1922 95.4146 102.823 95.7456 106.11 96.636C106.778 96.817 107.389 97.0204 107.939 97.2303C108.248 96.0815 108.916 94.9879 109.957 94.0551C112.138 92.101 115.759 91 120.686 91C125.722 91 129.214 92.3695 131.332 94.8198C132.105 95.7136 132.646 96.6953 133.01 97.7101C133.759 97.3249 134.572 97.0605 135.385 96.9117C138.157 96.4048 141.456 97.0613 144.107 99.0275C148.14 102.018 148.542 106.506 147.52 110.276C146.518 113.97 144.065 117.455 141.555 119.231C138.981 121.053 134.406 122.152 129.891 121.983C125.91 121.834 121.528 120.68 118.329 117.703C117.134 118.353 115.791 118.687 114.44 118.811C112.414 118.996 110.219 118.726 108.098 118.205C103.876 117.167 99.5478 115.031 96.7797 112.792C95.4447 111.712 94.1947 111.145 92.8045 110.874C91.3646 110.593 89.6832 110.609 87.4431 110.841C86.0237 110.987 84.3505 111.229 82.4072 111.51C78.4705 112.079 73.4253 112.808 67.1346 113.232C66.0473 113.306 65.1015 112.495 65.0076 111.409ZM117.789 115.697C118.076 115.508 118.344 115.294 118.589 115.054C119.014 115.582 119.478 116.061 119.977 116.494C125.886 121.631 136.532 120.336 140.399 117.599C144.594 114.63 149.207 105.299 142.916 100.634C139.891 98.3912 135.861 98.2287 133.508 99.7203C132.435 100.401 131.711 101.426 131.592 102.755C131.707 101.475 131.645 100.164 131.301 98.934C130.391 95.6805 127.505 93 120.686 93C113.593 93 110.277 95.4176 109.8 98.0624C109.646 98.9207 109.79 99.8028 110.201 100.634C110.201 100.634 109.338 99.9799 107.768 99.3165C104.958 98.1296 99.8812 96.9131 93.4239 99.3617C91.5291 100.08 89.3638 101.446 86.8881 103.008C84.2577 104.667 81.2768 106.547 77.8974 108.107C74.6477 109.607 71.0295 110.811 67.0001 111.237C71.4991 110.934 75.2593 110.486 78.4625 110.048C79.7032 109.879 80.8603 109.711 81.9445 109.554C89.8037 108.414 93.8267 107.831 98.0376 111.237C102.785 115.078 113.007 118.843 117.789 115.697Z" fill="black"/>
<path d="M15.1415 77.9783L16.0142 78.5554L16.6193 77.7019L16.5558 78.7462L17.5976 78.8435L16.6614 79.3107L17.098 80.2615L16.2253 79.6844L15.6202 80.5379L15.6837 79.4936L14.642 79.3963L15.5781 78.9291L15.1415 77.9783Z" fill="#A5D67E"/>
<path d="M73.0323 17.2586L74.7567 18.399L75.9524 16.7124L75.827 18.776L77.8856 18.9682L76.0357 19.8915L76.8985 21.7703L75.174 20.6298L73.9783 22.3165L74.1037 20.2528L72.0452 20.0606L73.8951 19.1374L73.0323 17.2586Z" fill="#A5D67E"/>
<path d="M77.1415 27.9783L78.0142 28.5554L78.6193 27.7019L78.5558 28.7462L79.5976 28.8435L78.6614 29.3107L79.098 30.2615L78.2253 29.6844L77.6202 30.5379L77.6837 29.4936L76.642 29.3963L77.5781 28.9291L77.1415 27.9783Z" fill="#A5D67E"/>
<path d="M105.141 20.9783L106.014 21.5554L106.619 20.7019L106.556 21.7462L107.598 21.8435L106.661 22.3107L107.098 23.2615L106.225 22.6844L105.62 23.5379L105.684 22.4936L104.642 22.3963L105.578 21.9291L105.141 20.9783Z" fill="#A5D67E"/>
<path d="M56.1396 14.4862L57.4017 15.3772L58.055 13.9773L58.1452 15.5195L59.647 15.1574L58.4975 16.1895L59.717 17.138L58.1933 16.8827L58.2121 18.4275L57.4617 17.0771L56.2657 18.055L56.8536 16.6263L55.3433 16.3009L56.8269 15.8698L56.1396 14.4862Z" fill="#FCC419"/>
<path d="M93.437 118.231L94.4826 118.97L95.0239 117.81L95.0986 119.088L96.343 118.788L95.3905 119.643L96.401 120.429L95.1385 120.217L95.1541 121.497L94.5324 120.378L93.5414 121.188L94.0285 120.005L92.7772 119.735L94.0064 119.378L93.437 118.231Z" fill="#FCC419"/>
<path d="M87.758 14.7097L88.5148 15.745L89.3995 14.8166L89.062 16.0538L90.3394 16.1667L89.1617 16.6742L89.8699 17.7434L88.7388 17.139L88.3444 18.3592L88.1118 17.0981L86.9119 17.5506L87.7528 16.5824L86.6508 15.9264L87.9321 15.9802L87.758 14.7097Z" fill="#1971C2"/>
</g>
<path fill-rule="evenodd" clip-rule="evenodd" d="M92.2673 77.0088C92.5083 76.529 93.0314 76.2597 93.562 76.3423L106.338 78.3315C106.868 78.4141 107.285 78.8298 107.368 79.3601C107.452 79.8905 107.184 80.4142 106.704 80.6562L99.6035 84.2414C99.1307 84.4802 98.5582 84.3911 98.1803 84.0198L92.5056 78.4453C92.1226 78.0691 92.0263 77.4886 92.2673 77.0088ZM96.981 79.3765L99.2805 81.6353L102.158 80.1825L96.981 79.3765Z" fill="#212529"/>
<g filter="url(#filter0_i_3614_4719)">
<path d="M91.7852 84.1452L104.735 86.1616L103.306 95.3389C103.044 97.0252 101.464 98.1793 99.7775 97.9167L92.934 96.8512C91.2478 96.5886 90.0936 95.0088 90.3562 93.3225L91.7852 84.1452Z" fill="#FFE296"/>
</g>
<mask id="mask1_3614_4719" style="mask-type:alpha" maskUnits="userSpaceOnUse" x="90" y="84" width="15" height="14">
<path d="M91.7852 84.1452L104.735 86.1616L103.306 95.3389C103.044 97.0252 101.464 98.1793 99.7775 97.9167L92.934 96.8512C91.2478 96.5886 90.0936 95.0088 90.3562 93.3225L91.7852 84.1452Z" fill="#FFE296"/>
</mask>
<g mask="url(#mask1_3614_4719)">
<path fill-rule="evenodd" clip-rule="evenodd" d="M92.6961 85.3923C92.8948 85.4232 93.0308 85.6094 92.9999 85.808L91.1515 97.6789C91.1205 97.8775 90.9344 98.0135 90.7357 97.9826C90.5371 97.9516 90.4011 97.7655 90.432 97.5668L92.2804 85.696C92.3113 85.4974 92.4975 85.3614 92.6961 85.3923Z" fill="#F1CC80"/>
<path fill-rule="evenodd" clip-rule="evenodd" d="M94.8546 85.7284C95.0533 85.7594 95.1892 85.9455 95.1583 86.1442L93.3099 98.015C93.279 98.2137 93.0929 98.3496 92.8942 98.3187C92.6955 98.2878 92.5595 98.1016 92.5905 97.903L94.4389 86.0321C94.4698 85.8335 94.6559 85.6975 94.8546 85.7284Z" fill="#F1CC80"/>
<path fill-rule="evenodd" clip-rule="evenodd" d="M97.0128 86.0645C97.2115 86.0954 97.3474 86.2816 97.3165 86.4802L95.4681 98.351C95.4372 98.5497 95.2511 98.6857 95.0524 98.6548C94.8537 98.6238 94.7177 98.4377 94.7487 98.239L96.5971 86.3682C96.628 86.1695 96.8141 86.0336 97.0128 86.0645Z" fill="#F1CC80"/>
<path fill-rule="evenodd" clip-rule="evenodd" d="M99.1712 86.4006C99.3699 86.4316 99.5059 86.6177 99.475 86.8163L97.6266 98.6872C97.5956 98.8858 97.4095 99.0218 97.2108 98.9909C97.0122 98.9599 96.8762 98.7738 96.9071 98.5751L98.7555 86.7043C98.7864 86.5057 98.9726 86.3697 99.1712 86.4006Z" fill="#F1CC80"/>
<path fill-rule="evenodd" clip-rule="evenodd" d="M101.329 86.7367C101.528 86.7676 101.664 86.9537 101.633 87.1524L99.7848 99.0232C99.7538 99.2219 99.5677 99.3579 99.369 99.3269C99.1704 99.296 99.0344 99.1099 99.0653 98.9112L100.914 87.0404C100.945 86.8417 101.131 86.7057 101.329 86.7367Z" fill="#F1CC80"/>
<path fill-rule="evenodd" clip-rule="evenodd" d="M103.488 87.0727C103.687 87.1037 103.823 87.2898 103.792 87.4885L101.943 99.3593C101.912 99.558 101.726 99.6939 101.527 99.663C101.329 99.6321 101.193 99.4459 101.224 99.2473L103.072 87.3764C103.103 87.1778 103.289 87.0418 103.488 87.0727Z" fill="#F1CC80"/>
<path fill-rule="evenodd" clip-rule="evenodd" d="M105.394 89.0274C105.363 89.2261 105.177 89.3621 104.978 89.3312L90.5896 87.0907C90.3909 87.0598 90.2549 86.8736 90.2859 86.675C90.3168 86.4763 90.5029 86.3403 90.7016 86.3712L105.09 88.6117C105.289 88.6426 105.425 88.8288 105.394 89.0274Z" fill="#F1CC80"/>
<path fill-rule="evenodd" clip-rule="evenodd" d="M105.058 91.1857C105.027 91.3844 104.841 91.5204 104.642 91.4894L90.2534 89.249C90.0547 89.218 89.9188 89.0319 89.9497 88.8332C89.9806 88.6346 90.1668 88.4986 90.3654 88.5295L104.754 90.77C104.953 90.8009 105.089 90.987 105.058 91.1857Z" fill="#F1CC80"/>
<path fill-rule="evenodd" clip-rule="evenodd" d="M104.722 93.344C104.691 93.5427 104.505 93.6787 104.306 93.6477L89.9175 91.4073C89.7188 91.3763 89.5828 91.1902 89.6138 90.9915C89.6447 90.7929 89.8308 90.6569 90.0295 90.6878L104.418 92.9283C104.617 92.9592 104.753 93.1454 104.722 93.344Z" fill="#F1CC80"/>
<path fill-rule="evenodd" clip-rule="evenodd" d="M104.386 95.5024C104.355 95.701 104.169 95.837 103.97 95.8061L89.5813 93.5656C89.3826 93.5347 89.2466 93.3485 89.2776 93.1499C89.3085 92.9512 89.4946 92.8152 89.6933 92.8462L104.082 95.0866C104.281 95.1176 104.417 95.3037 104.386 95.5024Z" fill="#F1CC80"/>
<path fill-rule="evenodd" clip-rule="evenodd" d="M104.05 97.6607C104.019 97.8594 103.833 97.9953 103.634 97.9644L89.2453 95.7239C89.0467 95.693 88.9107 95.5069 88.9416 95.3082C88.9726 95.1095 89.1587 94.9736 89.3574 95.0045L103.746 97.245C103.945 97.2759 104.081 97.462 104.05 97.6607Z" fill="#F1CC80"/>
<path fill-rule="evenodd" clip-rule="evenodd" d="M103.714 99.819C103.683 100.018 103.497 100.154 103.298 100.123L88.9092 97.8823C88.7105 97.8513 88.5745 97.6652 88.6055 97.4665C88.6364 97.2679 88.8225 97.1319 89.0212 97.1628L103.41 99.4033C103.609 99.4342 103.745 99.6203 103.714 99.819Z" fill="#F1CC80"/>
</g>
<path fill-rule="evenodd" clip-rule="evenodd" d="M107.18 86.5603C107.075 87.2349 106.443 87.6965 105.768 87.5915L90.5042 85.2147C89.8297 85.1097 89.3681 84.4778 89.4731 83.8033C89.5781 83.1287 90.2101 82.6671 90.8846 82.7721L106.149 85.1489C106.823 85.2539 107.285 85.8858 107.18 86.5603Z" fill="#FFE196"/>
<path fill-rule="evenodd" clip-rule="evenodd" d="M104.542 87.4005L105.769 87.5915C106.443 87.6965 107.075 87.2348 107.18 86.5603C107.285 85.8858 106.823 85.2539 106.149 85.1489L90.8847 82.7721C90.2101 82.6671 89.5782 83.1287 89.4732 83.8032C89.3682 84.4777 89.8298 85.1097 90.5043 85.2147L91.5923 85.3841L90.3563 93.3225C90.0937 95.0087 91.2478 96.5886 92.9341 96.8511L99.7776 97.9167C101.464 98.1793 103.044 97.0251 103.306 95.3389L104.542 87.4005ZM89.3279 86.9276C88.054 86.335 87.27 84.9533 87.497 83.4955C87.772 81.7296 89.4264 80.5209 91.1924 80.7959L106.457 83.1727C108.223 83.4476 109.431 85.1021 109.156 86.868C108.921 88.3757 107.681 89.4772 106.225 89.596L105.282 95.6466C104.85 98.4243 102.248 100.325 99.4699 99.8929L92.6264 98.8273C89.8487 98.3948 87.9476 95.7924 88.3801 93.0148L89.3279 86.9276Z" fill="black"/>
<path fill-rule="evenodd" clip-rule="evenodd" d="M107.457 30.8523C119.677 32.9505 130.581 41.1387 128.415 55.0499C126.215 69.1776 112.563 76.4846 105.902 79.0743L100.09 78.1693L100.09 78.1694L93.7055 77.1753C88.1476 72.6831 77.3631 61.571 79.5629 47.4434C81.729 33.5321 94.6059 29.0468 106.885 30.7634L106.886 30.7588C106.984 30.774 107.081 30.7895 107.178 30.8054C107.271 30.8192 107.365 30.8334 107.458 30.8479L107.457 30.8523Z" fill="#5552FA"/>
<path fill-rule="evenodd" clip-rule="evenodd" d="M106.886 30.7634C106.416 30.6977 105.945 30.6411 105.474 30.5938C93.6362 29.4038 81.6461 34.0644 79.5629 47.4434C77.3631 61.571 88.1476 72.6832 93.7055 77.1754L100.09 78.1694L105.902 79.0743C112.563 76.4847 126.215 69.1776 128.415 55.05C130.498 41.6709 120.493 33.5855 108.853 31.1199C108.392 31.0222 107.929 30.9333 107.463 30.8533C107.461 30.853 107.459 30.8526 107.457 30.8523L107.458 30.8479C107.365 30.8334 107.271 30.8193 107.178 30.8054C107.109 30.7941 107.039 30.7829 106.97 30.7719C106.942 30.7675 106.914 30.7632 106.886 30.7588L106.886 30.7634ZM107.93 28.9044C107.876 28.8913 107.821 28.8804 107.766 28.8718C107.672 28.8573 107.579 28.8431 107.486 28.8293C107.389 28.8134 107.291 28.7978 107.194 28.7826C107.137 28.7737 107.08 28.7673 107.023 28.7634C100.628 27.8931 93.9491 28.6042 88.4999 31.4732C82.9338 34.4039 78.7703 39.5345 77.5867 47.1357C76.3928 54.8036 78.7386 61.5914 82.0179 66.9646C85.2903 72.3266 89.5564 76.3934 92.4483 78.7308C92.7223 78.9522 93.0498 79.0974 93.3978 79.1515L99.7819 80.1456C99.7884 80.1466 99.7949 80.1476 99.8014 80.1485L105.594 81.0505C105.942 81.1047 106.298 81.066 106.627 80.9384C110.092 79.5909 115.393 77.0137 120.141 72.9005C124.898 68.7787 129.197 63.0256 130.391 55.3577C131.575 47.7565 129.168 41.6028 124.757 37.1186C120.437 32.7275 114.288 30.019 107.93 28.9044Z" fill="#212529"/>
<mask id="mask2_3614_4719" style="mask-type:alpha" maskUnits="userSpaceOnUse" x="79" y="30" width="50" height="50">
<path fill-rule="evenodd" clip-rule="evenodd" d="M107.457 30.8523C119.677 32.9505 130.581 41.1387 128.415 55.0499C126.215 69.1776 112.563 76.4846 105.902 79.0743L100.09 78.1693L100.09 78.1694L93.7055 77.1753C88.1476 72.6831 77.3631 61.571 79.5629 47.4434C81.729 33.5321 94.6059 29.0468 106.885 30.7634L106.886 30.7588C106.984 30.774 107.081 30.7895 107.178 30.8054C107.271 30.8192 107.365 30.8334 107.458 30.8479L107.457 30.8523Z" fill="#FA5252"/>
</mask>
<g mask="url(#mask2_3614_4719)">
<path d="M92.1285 48.6525C93.9985 36.6432 99.7092 32.7731 102.765 29.5493C103.919 29.3359 106.559 29.0023 107.884 29.3743L100.043 79.7298L97.3987 79.3179C95.2102 72.5369 90.2586 60.6619 92.1285 48.6525Z" fill="#7291FF"/>
<path d="M118.099 52.9672C119.942 41.1296 115.491 35.7455 113.464 31.7831C119.596 33.1979 131.376 39.7686 129.435 54.7324C127.495 69.6963 112.908 78.2358 105.857 80.635L103.156 80.2145L103.917 79.3255C108.162 73.6383 116.255 64.8048 118.099 52.9672Z" fill="#7291FF"/>
</g>
<path d="M53.4238 46.3617C47.5798 48.5777 39.1633 56.9517 27 58.2369C45.8741 56.9646 51.7461 53.1475 58.0374 58.2369C63.0705 62.3084 74.2552 66.295 78.5893 62.0539C84.0418 68.8397 96.2051 67.5674 100.399 64.5986C104.594 61.6298 109.207 52.2993 102.916 47.634C98.5112 44.3678 91.9727 45.5135 91.5914 49.7547C92.0109 45.0894 90.0815 40 80.6864 40C71.2913 40 68.5231 44.2411 70.2008 47.634C70.2008 47.634 63.49 42.5446 53.4238 46.3617Z" fill="#FDFFF6"/>
<path fill-rule="evenodd" clip-rule="evenodd" d="M25.0076 58.4092C24.9136 57.3235 25.7062 56.3625 26.79 56.2479C32.4663 55.6482 37.3261 53.3896 41.5768 50.9192C43.0751 50.0483 44.4576 49.1762 45.7869 48.3376C46.3616 47.9751 46.9263 47.6188 47.4862 47.2716C49.2845 46.1565 51.0533 45.1217 52.7148 44.4916C58.1922 42.4146 62.8226 42.7456 66.1101 43.636C66.7781 43.817 67.389 44.0204 67.9391 44.2303C68.2475 43.0815 68.9157 41.9879 69.9568 41.0551C72.1377 39.101 75.7593 38 80.6865 38C85.722 38 89.2139 39.3695 91.3324 41.8198C92.1052 42.7136 92.6464 43.6953 93.0097 44.7101C93.7587 44.3249 94.5715 44.0605 95.3852 43.9117C98.1573 43.4048 101.456 44.0613 104.107 46.0275C108.14 49.0177 108.542 53.5057 107.52 57.2759C106.518 60.97 104.065 64.4545 101.555 66.231C98.9805 68.0533 94.4059 69.1519 89.8914 68.9828C85.9098 68.8337 81.5276 67.68 78.3293 64.7032C77.1341 65.3531 75.7906 65.6872 74.4399 65.8109C72.4143 65.9964 70.2195 65.7264 68.098 65.2048C63.8758 64.1666 59.5478 62.031 56.7797 59.7918C55.4447 58.7119 54.1947 58.1453 52.8045 57.8738C51.3646 57.5925 49.6832 57.609 47.4431 57.8406C46.0237 57.9874 44.3505 58.2293 42.4072 58.5101C38.4705 59.0791 33.4253 59.8083 27.1346 60.2323C26.0473 60.3056 25.1015 59.495 25.0076 58.4092ZM77.7885 62.6974C78.0759 62.5084 78.3437 62.2943 78.5894 62.0539C79.0136 62.5818 79.4784 63.061 79.9769 63.4944C85.8862 68.6315 96.5315 67.3364 100.399 64.5986C104.594 61.6298 109.207 52.2993 102.916 47.634C99.8914 45.3912 95.8606 45.2287 93.5083 46.7203C92.4349 47.4009 91.711 48.4258 91.5915 49.7547C91.7066 48.4751 91.6449 47.1636 91.301 45.934C90.391 42.6805 87.5048 40 80.6865 40C73.5931 40 70.2773 42.4176 69.8004 45.0624C69.6457 45.9207 69.7899 46.8028 70.2009 47.634C70.2009 47.634 69.3383 46.9799 67.7678 46.3165C64.9577 45.1296 59.8812 43.9131 53.4239 46.3617C51.5291 47.0802 49.3638 48.4461 46.8881 50.0078C44.2577 51.6671 41.2768 53.5475 37.8974 55.1074C34.6477 56.6074 31.0295 57.8111 27.0001 58.2369C31.4991 57.9336 35.2593 57.4857 38.4625 57.0484C39.7032 56.879 40.8603 56.7111 41.9445 56.5539C49.8037 55.414 53.8267 54.8305 58.0376 58.2369C62.7853 62.0775 73.0069 65.8427 77.7885 62.6974Z" fill="black"/>
<path fill-rule="evenodd" clip-rule="evenodd" d="M34.1868 88.0335C34.3691 87.3259 34.9837 86.8143 35.7126 86.7635L52.6471 85.5825C53.376 85.5316 54.0556 85.9529 54.3344 86.6284C54.6131 87.3038 54.4284 88.0818 53.8757 88.5598L45.8514 95.5008C45.2807 95.9943 44.4528 96.0521 43.8192 95.6425L34.9091 89.8825C34.2955 89.4859 34.0045 88.741 34.1868 88.0335ZM41.0291 89.7961L44.5932 92.1L47.8029 89.3237L41.0291 89.7961Z" fill="#212529"/>
<g filter="url(#filter1_i_3614_4719)">
<path d="M35.6633 95.8254L53.6197 94.5731L54.5072 107.298C54.6702 109.636 52.907 111.664 50.5688 111.827L41.0797 112.489C38.7415 112.652 36.7138 110.889 36.5508 108.551L35.6633 95.8254Z" fill="#FFE296"/>
</g>
<mask id="mask3_3614_4719" style="mask-type:alpha" maskUnits="userSpaceOnUse" x="35" y="94" width="20" height="19">
<path d="M35.6633 95.8254L53.6197 94.5731L54.5072 107.298C54.6702 109.636 52.907 111.664 50.5688 111.827L41.0797 112.489C38.7415 112.652 36.7138 110.889 36.5508 108.551L35.6633 95.8254Z" fill="#FFE296"/>
</mask>
<g mask="url(#mask3_3614_4719)">
<path fill-rule="evenodd" clip-rule="evenodd" d="M37.2642 97.2174C37.5396 97.1982 37.7785 97.4059 37.7977 97.6814L38.9457 114.141C38.9649 114.417 38.7571 114.656 38.4817 114.675C38.2062 114.694 37.9673 114.486 37.9481 114.211L36.8002 97.751C36.781 97.4755 36.9887 97.2366 37.2642 97.2174Z" fill="#F1CC80"/>
<path fill-rule="evenodd" clip-rule="evenodd" d="M40.2568 97.0087C40.5323 96.9895 40.7712 97.1972 40.7904 97.4727L41.9383 113.933C41.9576 114.208 41.7498 114.447 41.4743 114.466C41.1989 114.485 40.96 114.278 40.9408 114.002L39.7928 97.5422C39.7736 97.2668 39.9814 97.0279 40.2568 97.0087Z" fill="#F1CC80"/>
<path fill-rule="evenodd" clip-rule="evenodd" d="M43.2495 96.8C43.525 96.7808 43.7639 96.9885 43.7831 97.264L44.931 113.724C44.9502 113.999 44.7425 114.238 44.467 114.258C44.1915 114.277 43.9527 114.069 43.9334 113.794L42.7855 97.3336C42.7663 97.0581 42.974 96.8192 43.2495 96.8Z" fill="#F1CC80"/>
<path fill-rule="evenodd" clip-rule="evenodd" d="M46.2424 96.5913C46.5179 96.572 46.7568 96.7798 46.776 97.0553L47.9239 113.515C47.9431 113.791 47.7354 114.03 47.4599 114.049C47.1845 114.068 46.9456 113.86 46.9264 113.585L45.7784 97.1248C45.7592 96.8494 45.967 96.6105 46.2424 96.5913Z" fill="#F1CC80"/>
<path fill-rule="evenodd" clip-rule="evenodd" d="M49.2351 96.3826C49.5106 96.3634 49.7495 96.5711 49.7687 96.8466L50.9166 113.307C50.9358 113.582 50.7281 113.821 50.4526 113.84C50.1771 113.859 49.9382 113.652 49.919 113.376L48.7711 96.9161C48.7519 96.6407 48.9596 96.4018 49.2351 96.3826Z" fill="#F1CC80"/>
<path fill-rule="evenodd" clip-rule="evenodd" d="M52.2278 96.1738C52.5033 96.1546 52.7422 96.3624 52.7614 96.6378L53.9093 113.098C53.9285 113.373 53.7208 113.612 53.4453 113.631C53.1698 113.651 52.9309 113.443 52.9117 113.167L51.7638 96.7074C51.7446 96.4319 51.9523 96.193 52.2278 96.1738Z" fill="#F1CC80"/>
<path fill-rule="evenodd" clip-rule="evenodd" d="M55.3771 98.2097C55.3963 98.4851 55.1885 98.724 54.9131 98.7432L34.9615 100.135C34.6861 100.154 34.4472 99.9461 34.428 99.6707C34.4087 99.3952 34.6165 99.1563 34.892 99.1371L54.8435 97.7457C55.119 97.7265 55.3579 97.9342 55.3771 98.2097Z" fill="#F1CC80"/>
<path fill-rule="evenodd" clip-rule="evenodd" d="M55.5858 101.202C55.605 101.478 55.3973 101.717 55.1218 101.736L35.1703 103.127C34.8948 103.147 34.6559 102.939 34.6367 102.663C34.6175 102.388 34.8252 102.149 35.1007 102.13L55.0522 100.738C55.3277 100.719 55.5666 100.927 55.5858 101.202Z" fill="#F1CC80"/>
<path fill-rule="evenodd" clip-rule="evenodd" d="M55.7946 104.195C55.8138 104.471 55.606 104.71 55.3305 104.729L35.379 106.12C35.1035 106.139 34.8646 105.932 34.8454 105.656C34.8262 105.381 35.034 105.142 35.3094 105.123L55.261 103.731C55.5365 103.712 55.7753 103.92 55.7946 104.195Z" fill="#F1CC80"/>
<path fill-rule="evenodd" clip-rule="evenodd" d="M56.0033 107.188C56.0225 107.463 55.8148 107.702 55.5393 107.721L35.5877 109.113C35.3123 109.132 35.0734 108.924 35.0542 108.649C35.035 108.373 35.2427 108.135 35.5182 108.115L55.4697 106.724C55.7452 106.705 55.9841 106.912 56.0033 107.188Z" fill="#F1CC80"/>
<path fill-rule="evenodd" clip-rule="evenodd" d="M56.212 110.181C56.2312 110.456 56.0235 110.695 55.748 110.714L35.7965 112.106C35.521 112.125 35.2821 111.917 35.2629 111.642C35.2437 111.366 35.4514 111.127 35.7269 111.108L55.6785 109.717C55.9539 109.697 56.1928 109.905 56.212 110.181Z" fill="#F1CC80"/>
</g>
<path fill-rule="evenodd" clip-rule="evenodd" d="M57.0153 94.3608C57.0805 95.2961 56.3752 96.1071 55.44 96.1724L34.2746 97.6484C33.3394 97.7136 32.5283 97.0083 32.4631 96.0731C32.3979 95.1378 33.1032 94.3268 34.0384 94.2615L55.2038 92.7855C56.139 92.7202 56.9501 93.4255 57.0153 94.3608Z" fill="#FFE196"/>
<path fill-rule="evenodd" clip-rule="evenodd" d="M53.7395 96.2909L55.44 96.1724C56.3752 96.1071 57.0805 95.2961 57.0153 94.3608C56.9501 93.4255 56.139 92.7202 55.2038 92.7855L34.0384 94.2615C33.1032 94.3268 32.3979 95.1378 32.4631 96.0731C32.5283 97.0083 33.3394 97.7137 34.2746 97.6484L35.7831 97.5432L36.5508 108.551C36.7138 110.889 38.7415 112.652 41.0797 112.489L50.5688 111.827C52.907 111.664 54.6702 109.636 54.5072 107.298L53.7395 96.2909ZM33.9249 99.6457C32.1011 99.5335 30.5985 98.0844 30.4679 96.2122C30.3259 94.1751 31.8621 92.4084 33.8993 92.2664L55.0646 90.7903C57.1018 90.6482 58.8684 92.1845 59.0105 94.2217C59.1456 96.1596 57.7619 97.8528 55.873 98.1354L56.5023 107.159C56.7422 110.599 54.148 113.582 50.7079 113.822L41.2188 114.484C37.7787 114.724 34.7955 112.13 34.5556 108.69L33.9249 99.6457Z" fill="black"/>
<path fill-rule="evenodd" clip-rule="evenodd" d="M39.473 22.3959C22.5058 23.8451 6.63165 33.7814 7.97689 53.0707C9.34305 72.66 27.1758 84.2485 35.9892 88.5675L44.0486 88.0055L44.8413 87.9502L52.9007 87.3881C61.0294 81.8875 77.0809 67.936 75.7148 48.3467C74.3695 29.0573 57.2698 21.4206 40.2657 22.3406L40.2653 22.3345C40.1332 22.3437 40.0011 22.3534 39.8691 22.3636C39.7369 22.3718 39.6047 22.3805 39.4726 22.3897L39.473 22.3959Z" fill="#FF3333"/>
<path fill-rule="evenodd" clip-rule="evenodd" d="M35.9893 88.5675C27.1758 84.2485 9.34307 72.66 7.97691 53.0707C6.66344 34.2368 21.7658 24.3195 38.2732 22.5128C38.6724 22.4691 39.0724 22.4301 39.473 22.3959L39.4726 22.3897C39.6047 22.3805 39.7369 22.3718 39.8691 22.3636C40.0011 22.3534 40.1332 22.3437 40.2653 22.3345L40.2658 22.3406C40.6673 22.3189 41.0688 22.3019 41.4702 22.2898C58.0686 21.7877 74.4013 29.5128 75.7148 48.3467C77.081 67.936 61.0294 81.8875 52.9007 87.3881L35.9893 88.5675ZM40.3194 20.335C40.2556 20.3334 40.1911 20.3348 40.1262 20.3393C39.9941 20.3485 39.862 20.3582 39.7299 20.3684C39.5977 20.3766 39.4656 20.3854 39.3335 20.3946C39.2685 20.3991 39.2045 20.4067 39.1415 20.4172C30.4147 21.1895 21.8368 24.1404 15.5561 29.5249C9.17045 34.9993 5.26368 42.9135 5.98176 53.2099C6.70737 63.6144 11.808 71.8303 17.7574 77.9407C23.6976 84.0416 30.572 88.14 35.1092 90.3635C35.4254 90.5185 35.777 90.5872 36.1284 90.5627L53.0399 89.3833C53.3912 89.3588 53.7299 89.2419 54.0216 89.0445C58.2062 86.2128 64.4452 81.1999 69.4811 74.3335C74.5247 67.4564 78.4356 58.6121 77.7099 48.2075C76.9919 37.9111 72.0244 30.6159 64.9407 26.0808C57.9734 21.6202 49.069 19.8886 40.3194 20.335Z" fill="black"/>
<mask id="mask4_3614_4719" style="mask-type:alpha" maskUnits="userSpaceOnUse" x="7" y="22" width="69" height="67">
<path fill-rule="evenodd" clip-rule="evenodd" d="M39.473 22.3959C22.5058 23.8451 6.63165 33.7814 7.97689 53.0707C9.34305 72.66 27.1758 84.2485 35.9892 88.5675L44.0486 88.0055L44.8413 87.9502L52.9007 87.3881C61.0294 81.8875 77.0809 67.936 75.7148 48.3467C74.3695 29.0573 57.2698 21.4206 40.2657 22.3406L40.2653 22.3345C40.1332 22.3437 40.0011 22.3534 39.8691 22.3636C39.7369 22.3718 39.6047 22.3805 39.4726 22.3897L39.473 22.3959Z" fill="#FA5252"/>
</mask>
<g mask="url(#mask4_3614_4719)">
<path d="M25.1724 50.8549C24.011 34.2027 30.477 27.2775 33.5853 22.0278C35.0658 21.3899 38.4987 20.1374 40.3866 20.2312L45.256 90.0539L41.5888 90.3096C36.5886 81.8973 26.3337 67.507 25.1724 50.8549Z" fill="#FFDB6F"/>
<path d="M61.2651 48.7062C60.1204 32.2923 52.5178 26.4408 48.5937 21.7536C57.2371 21.7765 75.0162 26.9799 76.9845 47.6099C78.9528 68.2399 62.0268 84.1268 53.3177 89.4915L49.5726 89.7527L50.3199 88.3301C54.268 79.4191 62.4098 65.1201 61.2651 48.7062Z" fill="#FFDB6F"/>
</g>
<defs>
<filter id="filter0_i_3614_4719" x="90.3188" y="84.1452" width="14.4163" height="13.8088" filterUnits="userSpaceOnUse" color-interpolation-filters="sRGB">
<feFlood flood-opacity="0" result="BackgroundImageFix"/>
<feBlend mode="normal" in="SourceGraphic" in2="BackgroundImageFix" result="shape"/>
<feColorMatrix in="SourceAlpha" type="matrix" values="0 0 0 0 0 0 0 0 0 0 0 0 0 0 0 0 0 0 127 0" result="hardAlpha"/>
<feOffset dx="-1" dy="3"/>
<feComposite in2="hardAlpha" operator="arithmetic" k2="-1" k3="1"/>
<feColorMatrix type="matrix" values="0 0 0 0 0.775 0 0 0 0 0.560583 0 0 0 0 0.238958 0 0 0 0.25 0"/>
<feBlend mode="normal" in2="shape" result="effect1_innerShadow_3614_4719"/>
</filter>
<filter id="filter1_i_3614_4719" x="35.6633" y="94.5731" width="18.8542" height="17.9263" filterUnits="userSpaceOnUse" color-interpolation-filters="sRGB">
<feFlood flood-opacity="0" result="BackgroundImageFix"/>
<feBlend mode="normal" in="SourceGraphic" in2="BackgroundImageFix" result="shape"/>
<feColorMatrix in="SourceAlpha" type="matrix" values="0 0 0 0 0 0 0 0 0 0 0 0 0 0 0 0 0 0 127 0" result="hardAlpha"/>
<feOffset dy="4"/>
<feComposite in2="hardAlpha" operator="arithmetic" k2="-1" k3="1"/>
<feColorMatrix type="matrix" values="0 0 0 0 0.775 0 0 0 0 0.560583 0 0 0 0 0.238958 0 0 0 0.25 0"/>
<feBlend mode="normal" in2="shape" result="effect1_innerShadow_3614_4719"/>
</filter>
</defs>
</svg>
