<svg width="140" height="140" viewBox="0 0 140 140" fill="none" xmlns="http://www.w3.org/2000/svg">
<path d="M6.38912 65.3043C3.4512 78.3413 3.78407 93.9046 9.36644 105.764C8.12889 106.415 7.28499 107.714 7.28499 109.209C7.28499 111.357 9.0265 113.099 11.1748 113.099H13.9252C17.4286 117.41 22.0132 120.741 27.8015 122.533C33.9222 124.428 41.2604 124.563 49.9086 122.493C61.3809 119.746 69.7556 119.007 76.2301 119.167C82.6959 119.326 87.337 120.38 91.4366 121.313L91.5494 121.339C94.7728 122.073 97.8288 122.768 101.095 122.758C104.463 122.748 107.962 121.995 112.189 119.993C115.579 118.387 118.475 116.011 120.907 113.099H125.507C127.655 113.099 129.396 111.357 129.396 109.209C129.396 107.162 127.815 105.484 125.807 105.331C128.034 100.664 129.569 95.3471 130.482 89.7821L135.183 87.1487C136.043 86.667 136.424 85.6304 136.08 84.7065L131.392 72.1056C130.671 58.5962 126.789 45.2545 119.948 37.3268V29.3826C119.948 26.8805 117.681 25.0252 115.256 25.4379C101.923 27.7073 90.6353 29.1247 79.8675 29.7081C77.7595 28.5087 75.8693 27.0056 73.7901 25.3456L73.7214 25.2908C70.5512 22.7597 67.0183 19.9391 62.0859 18.0886C57.0875 16.2132 50.8021 15.3808 42.0976 16.5162C34.7431 17.4755 28.8443 21.0064 24.1293 25.8723C23.2325 25.7274 22.3265 25.5787 21.4108 25.4263C18.9914 25.0235 16.734 26.8769 16.734 29.3731V36.0071C11.4098 45.4756 8.34058 56.6447 6.38912 65.3043Z" fill="#FFFCB4" stroke="white" stroke-width="4" stroke-linejoin="round"/>
<path d="M42.6756 17.5078C31.3711 18.9823 23.6268 26.7345 18.2532 36.1463C12.8809 45.5559 9.78437 56.7779 7.81338 65.5241C4.74644 79.1337 5.31304 95.4211 11.6565 107.197C14.8403 113.107 19.4938 117.903 25.8827 120.606C32.2675 123.307 40.2845 123.876 50.1245 121.52C70.8964 116.547 81.7288 118.079 89.5887 119.775C90.4339 119.957 91.2544 120.144 92.0565 120.327C94.9717 120.991 97.644 121.6 100.375 121.732C103.928 121.903 107.587 121.279 112.21 119.089C119.983 115.407 125.118 107.468 128.011 97.9935C130.91 88.5 131.61 77.3111 130.393 66.8563C129.178 56.4145 126.036 46.5904 121.146 39.8819C118.696 36.5206 115.779 33.9042 112.408 32.4147C109.021 30.9182 105.236 30.5869 101.125 31.708C93.4525 33.8006 88.2298 33.6707 84.1772 32.4602C80.1047 31.2437 77.1013 28.9092 73.8567 26.3201C73.7667 26.2483 73.6765 26.1763 73.5861 26.1041C70.4407 23.5926 67.0551 20.8892 62.3643 19.0934C57.5207 17.2391 51.3596 16.3751 42.6756 17.5078Z" fill="#91A7FF" stroke="black" stroke-width="2" stroke-linecap="square" stroke-linejoin="round"/>
<circle cx="13.9357" cy="84.5484" r="1.3874" fill="white"/>
<circle cx="105.168" cy="77.0827" r="0.944891" fill="white"/>
<circle cx="18.7102" cy="81.3347" r="0.472445" fill="white"/>
<circle cx="25.777" cy="113.913" r="0.92493" fill="white"/>
<circle cx="118.783" cy="98.5162" r="1.3874" transform="rotate(-72.9962 118.783 98.5162)" fill="white"/>
<circle cx="61.8482" cy="28.9985" r="1.3874" transform="rotate(-72.9962 61.8482 28.9985)" fill="#F5ED28"/>
<circle cx="48.107" cy="23.8013" r="0.462465" transform="rotate(-72.9962 48.107 23.8013)" fill="#FFF385"/>
<circle cx="116.492" cy="89.3514" r="1.50151" transform="rotate(-72.9962 116.492 89.3514)" fill="white"/>
<circle cx="13.9249" cy="74.9249" r="0.92493" fill="#FFF385"/>
<path d="M47.433 100.161C48.5375 100.161 49.433 99.2652 49.433 98.1606V89.0094C49.433 85.0734 46.2422 81.8827 42.3063 81.8827H31.3257C27.3897 81.8827 24.199 85.0734 24.199 89.0094V98.1606C24.199 99.2652 25.0944 100.161 26.199 100.161H47.433Z" fill="#FA5252" stroke="black" stroke-width="4" stroke-linejoin="round"/>
<path d="M68.6668 100.161C69.7714 100.161 70.6668 99.2651 70.6668 98.1606V89.0093C70.6668 85.0734 67.4761 81.8826 63.5402 81.8826H52.5595C48.6236 81.8826 45.4329 85.0734 45.4329 89.0093V98.1606C45.4329 99.2651 46.3283 100.161 47.4329 100.161H68.6668Z" fill="#FA5252" stroke="black" stroke-width="4" stroke-linejoin="round"/>
<path d="M89.9007 100.161C91.0053 100.161 91.9007 99.2651 91.9007 98.1606V89.0093C91.9007 85.0734 88.71 81.8826 84.7741 81.8826H73.7934C69.8575 81.8826 66.6667 85.0734 66.6667 89.0093V98.1606C66.6667 99.2651 67.5622 100.161 68.6667 100.161H89.9007Z" fill="#FA5252" stroke="black" stroke-width="4" stroke-linejoin="round"/>
<path d="M111.135 100.161C112.239 100.161 113.135 99.2651 113.135 98.1606V89.0093C113.135 85.0734 109.944 81.8826 106.008 81.8826H95.0276C91.0916 81.8826 87.9009 85.0734 87.9009 89.0093V98.1606C87.9009 99.2651 88.7963 100.161 89.9009 100.161H111.135Z" fill="#FA5252" stroke="black" stroke-width="4" stroke-linejoin="round"/>
<g style="mix-blend-mode:multiply">
<rect x="25.6868" y="90.2009" width="86.2055" height="7.77956" fill="#DEE2E6"/>
<rect x="25.6868" y="90.2009" width="86.2055" height="7.77956" stroke="black" stroke-width="4"/>
</g>
<path d="M36.816 111.235C37.9206 111.235 38.816 110.34 38.816 109.235V100.084C38.816 96.1478 35.6253 92.957 31.6893 92.957H20.7087C16.7728 92.957 13.582 96.1478 13.582 100.084V109.235C13.582 110.34 14.4775 111.235 15.582 111.235H36.816Z" fill="#FA5252" stroke="black" stroke-width="4" stroke-linejoin="round"/>
<path d="M58.0499 111.235C59.1545 111.235 60.0499 110.34 60.0499 109.235V100.084C60.0499 96.1477 56.8592 92.957 52.9232 92.957H41.9426C38.0066 92.957 34.8159 96.1477 34.8159 100.084V109.235C34.8159 110.34 35.7113 111.235 36.8159 111.235H58.0499Z" fill="#FA5252" stroke="black" stroke-width="4" stroke-linejoin="round"/>
<path d="M79.284 111.235C80.3886 111.235 81.284 110.34 81.284 109.235V100.084C81.284 96.1477 78.0933 92.957 74.1574 92.957H63.1767C59.2408 92.957 56.05 96.1477 56.05 100.084V109.235C56.05 110.34 56.9455 111.235 58.05 111.235H79.284Z" fill="#FA5252" stroke="black" stroke-width="4" stroke-linejoin="round"/>
<path d="M100.518 111.235C101.622 111.235 102.518 110.34 102.518 109.235V100.084C102.518 96.1477 99.3272 92.957 95.3912 92.957H84.4106C80.4747 92.957 77.2839 96.1477 77.2839 100.084V109.235C77.2839 110.34 78.1794 111.235 79.2839 111.235H100.518Z" fill="#FA5252" stroke="black" stroke-width="4" stroke-linejoin="round"/>
<path d="M121.752 111.235C122.857 111.235 123.752 110.34 123.752 109.235V100.084C123.752 96.1477 120.562 92.957 116.626 92.957H105.645C101.709 92.957 98.5183 96.1477 98.5183 100.084V109.235C98.5183 110.34 99.4137 111.235 100.518 111.235H121.752Z" fill="#FA5252" stroke="black" stroke-width="4" stroke-linejoin="round"/>
<path d="M26.1987 89.0094C26.1987 86.178 28.494 83.8827 31.3254 83.8827H42.306C45.1374 83.8827 47.4327 86.178 47.4327 89.0094V98.1606H26.1987V89.0094Z" fill="#FA5252" stroke="#BE2C2C" stroke-width="3.58867" stroke-linejoin="round"/>
<path d="M47.4326 89.0093C47.4326 86.1779 49.7279 83.8826 52.5593 83.8826H63.5399C66.3713 83.8826 68.6666 86.1779 68.6666 89.0093V98.1606H47.4326V89.0093Z" fill="#FA5252" stroke="#BE2C2C" stroke-width="3.58867" stroke-linejoin="round"/>
<path d="M68.6665 89.0093C68.6665 86.1779 70.9618 83.8826 73.7932 83.8826H84.7738C87.6052 83.8826 89.9005 86.1779 89.9005 89.0093V98.1606H68.6665V89.0093Z" fill="#FA5252" stroke="#BE2C2C" stroke-width="3.58867" stroke-linejoin="round"/>
<path d="M89.9006 89.0093C89.9006 86.1779 92.1959 83.8826 95.0273 83.8826H106.008C108.839 83.8826 111.135 86.1779 111.135 89.0093V98.1606H89.9006V89.0093Z" fill="#FA5252" stroke="#BE2C2C" stroke-width="3.58867" stroke-linejoin="round"/>
<g style="mix-blend-mode:multiply">
<rect x="27.6865" y="92.2009" width="82.2055" height="3.77956" fill="#DEE2E6"/>
</g>
<g style="mix-blend-mode:multiply">
<path fill-rule="evenodd" clip-rule="evenodd" d="M64.2754 83.627C64.2803 83.501 64.2896 83.3731 64.3048 83.2445C64.4634 81.8981 65.2645 80.4709 68.4626 80.2808C71.4876 80.1011 72.6448 81.1888 73.1112 82.4209C73.257 82.8059 73.3352 83.2049 73.382 83.5837C73.3917 83.6628 73.4001 83.741 73.4075 83.818C73.4271 84.0239 73.4392 84.2213 73.4501 84.4043L73.4423 84.4048C73.4434 84.467 73.4261 84.5257 73.3952 84.5753C73.365 84.6238 73.3218 84.6636 73.2702 84.6896C73.2332 84.7083 73.1918 84.7199 73.1478 84.7225L72.9897 84.7319C73.0756 84.9542 73.1401 85.2232 73.186 85.5226C73.1892 85.523 73.1923 85.5233 73.1954 85.5236C73.3077 85.536 73.4147 85.5655 73.5139 85.6095C73.5166 85.6106 73.5193 85.6118 73.5219 85.613C73.8288 85.7521 74.0593 86.0304 74.1327 86.3673C74.1411 86.406 74.1475 86.4454 74.1516 86.4856C74.1555 86.5227 74.1575 86.5604 74.1575 86.5986C74.1575 87.1339 73.7686 87.5784 73.258 87.6649C73.2033 88.6962 73.0449 89.6962 72.854 90.2688L72.5345 90.4487C72.1916 91.027 71.7032 91.5088 71.1197 91.8438V93.9031L76.2897 95.5251C77.4698 95.8954 78.3936 96.7574 78.8643 97.843C79.086 98.3544 79.2071 98.9155 79.2071 99.4981V99.843H59.5061V99.4513C59.5061 98.8866 59.6199 98.3419 59.829 97.843C60.2853 96.7542 61.1951 95.8831 62.3653 95.497L67.2086 93.8989H67.3242V91.8844C66.8854 91.6449 66.4977 91.3233 66.1818 90.94L66.078 90.9245C65.5429 90.4577 65.256 89.0669 65.1497 87.6787C65.1312 87.6797 65.1126 87.6801 65.0938 87.6801C64.7437 87.6801 64.4324 87.5137 64.2347 87.2557C64.1033 87.0842 64.0222 86.8721 64.0132 86.6415C64.0126 86.6273 64.0123 86.613 64.0123 86.5986C64.0123 86.2787 64.1513 85.9912 64.3721 85.7932C64.5635 85.6215 64.8165 85.5171 65.0938 85.5171C65.1057 85.5171 65.1174 85.5173 65.1291 85.5177C65.1368 85.4051 65.146 85.298 65.1566 85.1974L61.7735 85.3984C61.6009 85.4087 61.4526 85.2771 61.4423 85.1045C61.4321 84.9318 61.5637 84.7836 61.7363 84.7733L64.3024 84.6208C64.2941 84.5004 64.2859 84.3733 64.2799 84.2414C64.271 84.0456 64.267 83.8389 64.2754 83.627ZM62.3586 82.7328L61.6177 82.7768C61.6177 82.7768 61.6177 82.7768 61.6177 82.7768C60.3424 82.8526 59.3701 83.9478 59.4459 85.2231C59.5217 86.4983 60.6169 87.4707 61.8921 87.3949L62.1127 87.3818C62.2975 88.087 62.7259 88.6936 63.3025 89.1063C63.3594 89.4647 63.4304 89.8186 63.5184 90.1542C63.6805 90.7725 64.004 91.7691 64.763 92.4315L64.903 92.5536L61.7386 93.5977C59.2125 94.4312 57.5061 96.7912 57.5061 99.4513V101.843H81.2071V99.4981C81.2071 96.8047 79.4583 94.4231 76.8883 93.6168L73.4447 92.5365C73.6188 92.3543 73.7813 92.1609 73.931 91.9576L74.5074 91.633L74.7514 90.9012C74.935 90.3502 75.0735 89.623 75.1622 88.8663C75.7741 88.3035 76.1575 87.4965 76.1575 86.5986C76.1575 85.8621 75.8994 85.1863 75.4686 84.6565L75.4466 84.2857C75.445 84.2593 75.4434 84.2316 75.4417 84.2027C75.397 83.4269 75.3026 81.7874 74.2795 80.4258C73.0848 78.8361 71.0805 78.1217 68.3439 78.2844C65.7794 78.4368 63.9506 79.3201 62.983 80.9647C62.6379 81.5514 62.4531 82.164 62.3586 82.7328Z" fill="black"/>
</g>
<path d="M59.5061 99.4513V99.843H79.2071V99.4981C79.2071 97.6786 78.0257 96.0698 76.2897 95.5251L71.1063 93.899H67.2086L62.3653 95.497C60.6589 96.0601 59.5061 97.6543 59.5061 99.4513Z" fill="#20C997" stroke="#212529" stroke-width="0.740256" stroke-linecap="round" stroke-linejoin="round"/>
<path d="M67.3242 89.1377H71.1197V94.0166C71.1197 94.0166 70.0879 94.7328 69.2368 94.7328C68.3856 94.7328 67.3242 94.0166 67.3242 94.0166V89.1377Z" fill="#FFF9DB" stroke="#212529" stroke-width="0.647724" stroke-linecap="round" stroke-linejoin="round"/>
<path fill-rule="evenodd" clip-rule="evenodd" d="M65.2615 85.2722C65.2352 84.4878 65.8639 83.8376 66.6487 83.8376H69.9988L70.4062 83.1826L71.0557 83.8376H71.6879C72.4545 83.8376 73.0759 84.459 73.0759 85.2256V85.5171C73.6732 85.5172 74.1574 86.0014 74.1574 86.5986C74.1574 87.1959 73.6732 87.6801 73.0759 87.6802V88.5062C73.0759 90.6334 71.3515 92.3579 69.2242 92.3579C67.1474 92.3579 65.4445 90.7113 65.3747 88.6357L65.3416 87.6516C65.262 87.6703 65.179 87.6802 65.0937 87.6802C64.4964 87.6802 64.0122 87.1959 64.0122 86.5986C64.0122 86.0013 64.4964 85.5171 65.0937 85.5171C65.1538 85.5171 65.2128 85.522 65.2703 85.5315L65.2615 85.2722Z" fill="#FFF9DB"/>
<path d="M66.078 90.9245C65.1279 90.0955 64.96 86.3532 65.1975 84.8852L72.7981 84.3671C73.5582 85.4033 73.2912 88.9573 72.854 90.2688L71.373 91.1026L68.9978 91.3617L66.078 90.9245Z" fill="#212529"/>
<path d="M68.4625 80.2808C63.7677 80.5598 64.2386 83.5049 64.3243 84.9466L73.45 84.4043C73.3532 82.776 73.1573 80.0018 68.4625 80.2808Z" fill="#0C8599"/>
<rect x="61.4238" y="84.7919" width="12.0206" height="0.626238" rx="0.313119" transform="rotate(-3.401 61.4238 84.7919)" fill="#0C8599"/>
<path d="M71.9118 83.6877C71.8378 83.2403 71.3467 83.1184 71.1104 83.1134C70.5812 83.135 70.4018 83.5506 70.3783 83.7557L71.9118 83.6877Z" fill="#212529"/>
<g style="mix-blend-mode:multiply">
<path d="M67.5935 92.6647V92.0546C67.8891 92.1209 68.6287 92.2898 69.2223 92.4346C69.8159 92.5794 70.5554 92.2416 70.851 92.0546V94.0091L70.356 94.3065V92.966C70.1822 93.0744 69.8851 93.2098 69.2223 93.1855C68.3384 93.1531 67.7504 92.8517 67.5935 92.6647Z" fill="#E9ECEF"/>
</g>
<g style="mix-blend-mode:multiply">
<path d="M77.3063 96.147L72.2561 94.6098C73.9855 95.4812 76.595 96.1567 77.3063 97.0151C77.6882 97.476 78.1495 98.7234 78.1495 99.5939H78.944C78.9956 99.1037 78.7262 98.0694 78.4939 97.4702C78.308 96.9909 77.6075 96.3377 77.3063 96.147Z" fill="#DEE2E6"/>
</g>
<g style="mix-blend-mode:multiply">
<path d="M72.8587 85.1749L65.4817 85.2576L72.8587 84.7173V85.1749Z" fill="#E9ECEF"/>
</g>
<g style="mix-blend-mode:multiply">
<path d="M72.3788 82.6775C72.1954 81.8824 71.3509 81.072 70.9517 80.7662C72.5012 80.8885 72.9905 82.0914 73.0414 82.6775L73.2963 84.1811H72.6082C72.6082 84.0112 72.5623 83.4727 72.3788 82.6775Z" fill="#E9ECEF"/>
</g>
<path d="M46.0724 94.3605L41.6057 95.8462C40.065 96.3588 39.0254 97.8001 39.0254 99.4239C39.0254 99.6553 39.213 99.8428 39.4443 99.8428H56.6364C56.8647 99.8428 57.0497 99.6578 57.0497 99.4295C57.0497 97.8072 55.9984 96.372 54.4516 95.8828L49.6383 94.3605H46.0724Z" fill="#FF8787"/>
<path d="M46.2156 90.0911H49.6189V94.4659C49.6189 94.4659 48.5976 95.1003 48.09 95.1003C47.5825 95.1003 46.2156 94.4659 46.2156 94.4659V90.0911Z" fill="#FFF9DB"/>
<path fill-rule="evenodd" clip-rule="evenodd" d="M51.751 87.0365V85.1215C51.751 82.6141 48.9778 82.0999 47.5912 82.1562C44.5077 82.3274 43.7594 84.2044 43.7707 85.1215V87.0089C43.3055 87.0965 42.9546 87.4892 42.9546 87.9604C42.9546 88.4315 43.3055 88.8242 43.7707 88.9119V89.1342C43.7707 91.3379 45.5571 93.1243 47.7608 93.1243C49.9645 93.1243 51.751 91.3379 51.751 89.1342V88.8842C52.1593 88.7592 52.4549 88.3928 52.4549 87.9604C52.4549 87.5279 52.1593 87.1616 51.751 87.0365Z" fill="#FFF9DB"/>
<g style="mix-blend-mode:multiply">
<path d="M46.4084 93.4512V93.0161C46.6832 93.0634 47.3708 93.1839 47.9227 93.2871C48.4745 93.3904 49.162 93.1494 49.4368 93.0161V94.41L48.9766 95.1284V93.6661C48.8151 93.7434 48.5388 93.84 47.9227 93.8227C47.1009 93.7996 46.5543 93.5846 46.4084 93.4512Z" fill="#E9ECEF"/>
</g>
<g style="mix-blend-mode:multiply">
<path d="M55.4991 96.5049L52.1948 95.2414C53.4283 96.0627 54.8457 96.7056 55.8073 97.8177C56.1425 98.2055 56.2475 99.0224 56.2475 99.8428H56.7238C56.7606 99.3808 56.7774 98.5597 56.6117 97.9951C56.4791 97.5433 55.7139 96.6846 55.4991 96.5049Z" fill="#DEE2E6"/>
</g>
<path d="M43.7289 86.9655C43.7289 91.0137 45.0784 92.0892 47.0142 92.0892C50.4556 92.0892 51.677 91.8741 51.8985 87.0525C51.9845 86.3645 51.9773 84.8196 51.677 84.0128C51.3018 83.0042 50.1615 81.3297 47.5756 81.4534C44.9898 81.5771 44.1276 82.7719 43.7289 84.0128C43.5552 84.5534 43.4263 85.6374 43.7289 86.9655Z" fill="#FC93B8"/>
<circle cx="47.6622" cy="81.8899" r="1.88978" fill="#FAA2C1"/>
<path fill-rule="evenodd" clip-rule="evenodd" d="M46.0724 94.3605H46.2154V92.8141C46.1672 92.7938 46.1196 92.7726 46.0724 92.7506C45.8801 92.6607 45.6962 92.5559 45.5221 92.4376C44.465 91.7199 43.7706 90.5082 43.7706 89.1342V88.9119C43.3054 88.8242 42.9545 88.4315 42.9545 87.9604C42.9545 87.5034 43.2846 87.1202 43.7289 87.0176L43.7289 86.9655C43.4262 85.6374 43.5551 84.5534 43.7288 84.0128C44.0154 83.1208 44.5415 82.2527 45.775 81.789C45.8275 80.7923 46.6523 80.0002 47.6622 80.0002C48.665 80.0002 49.4853 80.7812 49.5481 81.7682C50.7826 82.284 51.4155 83.31 51.677 84.0128C51.9772 84.8196 51.9844 86.3645 51.8984 87.0525L51.8965 87.0935C52.2276 87.253 52.4548 87.5813 52.4548 87.9604C52.4548 88.3928 52.1591 88.7592 51.7508 88.8842V89.1342C51.7508 90.4864 51.0782 91.6815 50.0493 92.4031C49.9179 92.4953 49.7807 92.5798 49.6383 92.6558C49.6318 92.6593 49.6252 92.6628 49.6187 92.6663V94.3605H49.6383L54.4516 95.8828C55.4627 96.2026 56.2621 96.9266 56.6945 97.8428C56.7044 97.8639 56.7142 97.885 56.7237 97.9063C56.9343 98.3751 57.0497 98.892 57.0497 99.4295C57.0497 99.6276 56.9104 99.7931 56.7245 99.8334L56.7237 99.8428H56.6427L56.6364 99.8428H39.4443C39.213 99.8428 39.0254 99.6553 39.0254 99.4239C39.0254 97.8001 40.065 96.3587 41.6057 95.8462L46.0724 94.3605ZM43.33 93.1649C42.5592 92.3184 42.0273 91.2496 41.8424 90.065C41.3026 89.5384 40.9545 88.8049 40.9545 87.9604C40.9545 87.2625 41.1927 86.64 41.5802 86.1476C41.4832 85.0319 41.6094 84.071 41.8247 83.4009C42.1558 82.3706 42.7837 81.2097 44.0637 80.4109C44.6459 78.9958 46.0374 78.0002 47.6622 78.0002C49.2929 78.0002 50.6885 79.003 51.2669 80.4263C52.5492 81.2707 53.237 82.4702 53.5514 83.3153C53.8122 84.0161 53.899 84.8558 53.9301 85.4776C53.9439 85.7557 53.9485 86.0374 53.9446 86.3066C54.2626 86.7721 54.4548 87.3375 54.4548 87.9604C54.4548 88.7325 54.162 89.4134 53.6988 89.9273C53.5393 91.1324 53.0214 92.2237 52.2575 93.0912L55.0547 93.9759C57.4331 94.7282 59.0497 96.935 59.0497 99.4295C59.0497 100.43 58.442 101.286 57.5764 101.652C57.3172 101.775 57.0279 101.843 56.7237 101.843H56.6427L56.6364 101.843H39.4443C38.1084 101.843 37.0254 100.76 37.0254 99.4239C37.0254 96.9388 38.6164 94.7328 40.9745 93.9485L43.33 93.1649Z" fill="black"/>
<path d="M87.5345 94.051L82.4026 95.664C80.7677 96.1779 79.6555 97.6933 79.6555 99.4071C79.6555 99.6478 79.8507 99.843 80.0915 99.843H99.3775C99.6152 99.843 99.8079 99.6503 99.8079 99.4126C99.8079 97.7006 98.6839 96.1916 97.0436 95.7013L91.5215 94.051H87.5345Z" fill="#748FFC"/>
<path d="M87.6355 89.4991H91.5506V94.0699C91.5506 94.0699 90.4863 94.7408 89.6084 94.7408C88.7304 94.7408 87.6355 94.0699 87.6355 94.0699V89.4991Z" fill="#FFF9DB"/>
<path fill-rule="evenodd" clip-rule="evenodd" d="M93.5682 85.858V85.4755C93.5682 84.6782 92.9219 84.0318 92.1245 84.0318H91.4843H90.3941H86.9014C86.104 84.0318 85.4577 84.6782 85.4577 85.4755V85.8036C85.371 85.778 85.2793 85.7644 85.1844 85.7644C84.6509 85.7644 84.2185 86.1968 84.2185 86.7302C84.2185 87.2636 84.6509 87.6961 85.1844 87.6961C85.2793 87.6961 85.371 87.6824 85.4577 87.6569V88.7655C85.4577 91.0051 87.2733 92.8207 89.5129 92.8207C91.7526 92.8207 93.5682 91.0051 93.5682 88.7655V87.3541C93.6839 87.414 93.8152 87.4478 93.9544 87.4478C94.4193 87.4478 94.7961 87.0709 94.7961 86.6061C94.7961 86.1412 94.4193 85.7644 93.9544 85.7644C93.8152 85.7644 93.6839 85.7981 93.5682 85.858Z" fill="#FFF9DB"/>
<path d="M93.6479 85.9881C93.6479 85.9881 94.2482 89.3598 92.8841 90.9513C91.5199 92.5428 88.0887 92.0881 86.2698 90.9513C85.0286 90.1755 85.4629 87.0869 85.4629 87.0869V85.7797L84.3749 85.9881C84.1119 85.4477 83.9724 83.8642 84.0163 82.9732C84.0977 82.2647 84.5696 80.9059 85.8064 81.1385C87.0042 79.6777 91.4296 79.4784 93.3979 81.3957C94.3825 82.3548 94.6233 84.5693 94.4872 85.7797L93.6479 85.9881Z" fill="#D69B5C"/>
<path fill-rule="evenodd" clip-rule="evenodd" d="M84.0162 82.9732C84.0976 82.2647 84.5696 80.9059 85.8064 81.1385C87.0042 79.6777 91.4295 79.4784 93.3979 81.3957C94.256 82.2316 94.5492 84.0211 94.5202 85.2683C94.5159 85.4522 94.5047 85.6242 94.4872 85.7797L94.2822 85.8306C94.38 85.872 94.4682 85.9313 94.543 86.0044C94.6992 86.1572 94.7961 86.3703 94.7961 86.6061C94.7961 86.6956 94.7821 86.7819 94.7562 86.8629C94.7238 86.9642 94.6726 87.0572 94.6069 87.1378C94.4964 87.2732 94.3446 87.3736 94.1708 87.4197C94.1017 87.438 94.0292 87.4478 93.9544 87.4478C93.8934 87.4478 93.8338 87.4413 93.7765 87.4289C93.7906 88.0325 93.757 88.7498 93.5981 89.4254C93.4928 89.8733 93.3325 90.3029 93.0946 90.6689C92.4128 91.9492 91.0647 92.8207 89.5129 92.8207C87.9135 92.8207 86.5303 91.8948 85.8702 90.5497C85.7087 90.3052 85.5984 90.0016 85.5246 89.6766C85.3802 89.0401 85.3758 88.3213 85.4012 87.8028C85.4035 87.7569 85.4059 87.7125 85.4086 87.6699C85.3366 87.687 85.2615 87.6961 85.1844 87.6961C85.1081 87.6961 85.0339 87.6872 84.9627 87.6705C84.9623 87.6704 84.9619 87.6703 84.9615 87.6702C84.9448 87.6663 84.9282 87.6619 84.9118 87.6571C84.8894 87.6505 84.8673 87.6431 84.8456 87.635C84.7854 87.6125 84.728 87.5841 84.6742 87.5505C84.4006 87.38 84.2185 87.0764 84.2185 86.7302C84.2185 86.5155 84.2886 86.3171 84.4071 86.1567C84.4691 86.0728 84.5444 85.9993 84.6298 85.9393L84.3749 85.9881C84.3494 85.9359 84.3251 85.8738 84.3021 85.8036C84.2996 85.796 84.2971 85.7884 84.2947 85.7807C84.2515 85.6446 84.2128 85.4798 84.1787 85.297C84.1239 85.003 84.0813 84.6625 84.0524 84.3193C84.0517 84.3109 84.051 84.3025 84.0503 84.2941C84.0427 84.2018 84.0361 84.1094 84.0305 84.0177C84.0073 83.6358 84.0018 83.2668 84.0162 82.9732ZM85.4577 85.7807V85.8036C85.4411 85.7987 85.4245 85.7943 85.4076 85.7903L85.4577 85.7807ZM82.296 86.0545C82.2755 85.9708 82.2582 85.8918 82.2433 85.8199C82.1774 85.5016 82.128 85.1587 82.0921 84.8275C82.0216 84.1758 81.9904 83.4493 82.0187 82.8749C82.0208 82.8315 82.0244 82.7881 82.0293 82.7449C82.0944 82.1786 82.3083 81.3059 82.846 80.5469C83.1288 80.1477 83.5486 79.7146 84.148 79.4257C84.4321 79.2889 84.7311 79.1968 85.0391 79.1495C85.5435 78.7906 86.1029 78.5487 86.6182 78.3858C87.4593 78.1199 88.3967 77.9959 89.3228 78.0003C91.0977 78.0089 93.2934 78.502 94.7934 79.963C95.7198 80.8654 96.1304 82.141 96.3234 83.0983C96.4796 83.873 96.5393 84.676 96.5179 85.3786C96.6961 85.7497 96.7961 86.1659 96.7961 86.6061C96.7961 87.5077 96.3761 88.3114 95.7211 88.8319C95.6242 89.7416 95.3819 90.7821 94.8199 91.6829C93.7923 93.5493 91.8026 94.8207 89.5129 94.8207C87.1632 94.8207 85.1297 93.4821 84.1269 91.5344C83.6698 90.7831 83.5105 89.9354 83.4439 89.3299C83.436 89.2584 83.4291 89.1873 83.4232 89.1168C82.6924 88.5766 82.2185 87.7087 82.2185 86.7302C82.2185 86.4977 82.2453 86.2715 82.296 86.0545Z" fill="black"/>
<g style="mix-blend-mode:multiply">
<path d="M87.8557 93.0422V92.4666C88.173 92.5292 88.9668 92.6886 89.604 92.8251C90.2411 92.9617 91.035 92.643 91.3522 92.4666V94.3104L90.8209 94.591V93.3264C90.6343 93.4286 90.3154 93.5564 89.604 93.5335C88.6552 93.5029 88.0241 93.2186 87.8557 93.0422Z" fill="#E9ECEF"/>
</g>
<g style="mix-blend-mode:multiply">
<path d="M98.0336 96.2846L93.2695 94.764C94.901 95.626 97.3625 96.2942 98.0336 97.1433C98.3938 97.5991 98.829 98.833 98.829 99.694H99.5784C99.6271 99.2091 99.373 98.186 99.1539 97.5934C98.9785 97.1193 98.3177 96.4732 98.0336 96.2846Z" fill="#DEE2E6"/>
</g>
<path d="M15.5818 100.084C15.5818 97.2523 17.8771 94.957 20.7085 94.957H31.6891C34.5205 94.957 36.8158 97.2523 36.8158 100.084V109.235H15.5818V100.084Z" stroke="black" stroke-width="7.59" stroke-linejoin="round"/>
<path d="M36.8157 100.084C36.8157 97.2523 39.111 94.957 41.9424 94.957H52.923C55.7544 94.957 58.0497 97.2523 58.0497 100.084V109.235H36.8157V100.084Z" stroke="black" stroke-width="7.59" stroke-linejoin="round"/>
<path d="M58.0498 100.084C58.0498 97.2523 60.3451 94.957 63.1765 94.957H74.1571C76.9885 94.957 79.2838 97.2523 79.2838 100.084V109.235H58.0498V100.084Z" stroke="black" stroke-width="7.59" stroke-linejoin="round"/>
<path d="M79.2834 100.084C79.2834 97.2523 81.5787 94.957 84.4101 94.957H95.3908C98.2221 94.957 100.517 97.2523 100.517 100.084V109.235H79.2834V100.084Z" stroke="black" stroke-width="7.59" stroke-linejoin="round"/>
<path d="M100.518 100.084C100.518 97.2523 102.813 94.957 105.645 94.957H116.625C119.457 94.957 121.752 97.2523 121.752 100.084V109.235H100.518V100.084Z" stroke="black" stroke-width="7.59" stroke-linejoin="round"/>
<path d="M15.5818 100.084C15.5818 97.2523 17.8771 94.957 20.7085 94.957H31.6891C34.5205 94.957 36.8158 97.2523 36.8158 100.084V109.235H15.5818V100.084Z" fill="#FA5252" stroke="#BE2C2C" stroke-width="3.58867" stroke-linejoin="round"/>
<path d="M36.8157 100.084C36.8157 97.2523 39.111 94.957 41.9424 94.957H52.923C55.7544 94.957 58.0497 97.2523 58.0497 100.084V109.235H36.8157V100.084Z" fill="#FA5252" stroke="#BE2C2C" stroke-width="3.58867" stroke-linejoin="round"/>
<path d="M58.0498 100.084C58.0498 97.2523 60.3451 94.957 63.1765 94.957H74.1571C76.9885 94.957 79.2838 97.2523 79.2838 100.084V109.235H58.0498V100.084Z" fill="#FA5252" stroke="#BE2C2C" stroke-width="3.58867" stroke-linejoin="round"/>
<path d="M79.2834 100.084C79.2834 97.2523 81.5787 94.957 84.4101 94.957H95.3908C98.2221 94.957 100.517 97.2523 100.517 100.084V109.235H79.2834V100.084Z" fill="#FA5252" stroke="#BE2C2C" stroke-width="3.58867" stroke-linejoin="round"/>
<path d="M100.518 100.084C100.518 97.2523 102.813 94.957 105.645 94.957H116.625C119.457 94.957 121.752 97.2523 121.752 100.084V109.235H100.518V100.084Z" fill="#FA5252" stroke="#BE2C2C" stroke-width="3.58867" stroke-linejoin="round"/>
<rect x="8.73389" y="106.319" width="120.111" height="5.77956" rx="2.88978" fill="#BE2C2C" stroke="black" stroke-width="2" stroke-linejoin="round"/>
<path d="M19.1829 29.3731C19.1829 28.1343 20.3092 27.1957 21.5312 27.3991C58.3233 33.5248 79.7958 33.5785 116.041 27.4095C117.265 27.2011 118.396 28.1406 118.396 29.3826V74.8208C118.396 76.0225 117.333 76.9512 116.14 76.8074C79.5514 72.3977 58.0323 72.443 21.437 76.8106C20.2448 76.9528 19.1829 76.0244 19.1829 74.8237V29.3731Z" fill="#CEDBEE"/>
<path fill-rule="evenodd" clip-rule="evenodd" d="M21.8596 25.4263C58.4382 31.5164 79.6862 31.5684 115.705 25.4379C118.129 25.0252 120.396 26.8805 120.396 29.3826V74.8208C120.396 77.2416 118.265 79.078 115.9 78.7931C79.4729 74.4027 58.1138 74.4474 21.6741 78.7965C19.3111 79.0785 17.1829 77.2423 17.1829 74.8237V29.3731C17.1829 26.8769 19.4402 25.0234 21.8596 25.4263ZM21.5312 27.3991C20.3092 27.1957 19.1829 28.1343 19.1829 29.3731V74.8237C19.1829 76.0244 20.2448 76.9528 21.437 76.8106C58.0323 72.443 79.5514 72.3977 116.14 76.8074C117.333 76.9512 118.396 76.0225 118.396 74.8208V29.3826C118.396 28.1406 117.265 27.2011 116.041 27.4095C79.7958 33.5785 58.3233 33.5248 21.5312 27.3991Z" fill="black"/>
<path d="M64.8409 58.6348C63.8327 59.1958 62.5928 58.4668 62.5928 57.313V46.4319C62.5928 45.2766 63.8356 44.5478 64.8439 45.1117L74.5961 50.5664C75.6297 51.1446 75.6281 52.6326 74.5931 53.2085L64.8409 58.6348Z" fill="#F8F9FA" stroke="black" stroke-width="2" stroke-linejoin="round"/>
<path d="M98.799 56.7644C98.6397 57.1874 98.604 57.8367 98.8303 58.5016C98.5892 58.6787 98.3882 58.9069 98.248 59.1733C98.0043 59.6364 97.9538 60.2044 98.1893 60.7516C98.2613 60.9188 98.3553 61.0736 98.4678 61.2164C97.9997 61.967 97.8787 62.8157 98.3317 63.571C98.7525 64.2725 99.4855 64.5729 100.245 64.5456C100.443 64.9648 100.719 65.3166 101.096 65.5608C101.767 65.9951 102.502 65.9281 103.068 65.7227C103.626 65.5197 104.131 65.1494 104.529 64.7589C104.705 64.5871 104.871 64.3999 105.021 64.2038C105.462 64.2408 105.891 64.1185 106.246 63.9169C106.842 63.5789 107.307 63.0005 107.59 62.4107C107.871 61.8255 108.051 61.0673 107.861 60.3345C107.753 59.9161 107.536 59.5536 107.224 59.2707C107.289 58.9854 107.292 58.6909 107.241 58.4034C107.122 57.7357 106.727 57.1498 106.257 56.7278C105.51 56.0573 104.249 55.5623 103.063 56.067C102.367 55.5318 101.631 55.3062 100.9 55.3851C100.002 55.4822 99.3395 56.017 98.9584 56.4865L98.8561 56.6125L98.799 56.7644Z" fill="#FFF975" stroke="black" stroke-width="2"/>
<path d="M123.447 63.7773C123.237 63.4409 122.823 63.08 122.27 62.8705C122.261 62.6286 122.206 62.389 122.103 62.167C121.898 61.7234 121.504 61.3632 120.965 61.2279C120.833 61.1949 120.7 61.1769 120.567 61.1724C120.276 60.472 119.74 59.945 118.955 59.8566C118.229 59.775 117.623 60.1122 117.221 60.6357C116.842 60.5671 116.464 60.58 116.101 60.7101C115.4 60.961 115.04 61.5418 114.878 62.0594C114.717 62.5704 114.708 63.1281 114.768 63.615C114.791 63.8043 114.827 63.9956 114.874 64.1831C114.631 64.4776 114.496 64.8362 114.449 65.1827C114.364 65.7995 114.526 66.4455 114.789 66.9638C115.051 67.4777 115.494 68.025 116.133 68.2942C116.475 68.4383 116.833 68.4858 117.187 68.4359C117.35 68.6143 117.544 68.7604 117.758 68.871C118.309 69.1555 118.947 69.1905 119.502 69.0858C120.359 68.9238 121.384 68.318 121.702 67.2318C122.417 67.0221 122.958 66.6292 123.294 66.0739C123.721 65.3698 123.698 64.5993 123.571 64.0726L123.533 63.9149L123.447 63.7773Z" fill="#FFF975" stroke="black" stroke-width="2"/>
<path d="M118.433 43.1219C117.888 43.0762 117.081 43.2684 116.369 43.8181C116.074 43.549 115.714 43.358 115.324 43.2757C114.755 43.1554 114.133 43.2731 113.618 43.6921C113.415 43.8566 113.244 44.0555 113.101 44.2825C112.048 43.9271 111.014 44.0472 110.307 44.7994C109.645 45.5038 109.563 46.4637 109.898 47.3382C109.425 47.7164 109.079 48.1651 108.916 48.6963C108.653 49.5504 108.946 50.3302 109.357 50.8999C109.763 51.464 110.348 51.9224 110.932 52.256C111.23 52.4257 111.546 52.574 111.865 52.692C111.934 53.2347 112.215 53.7102 112.578 54.0685C113.142 54.6247 113.943 54.9677 114.711 55.1009C115.473 55.2332 116.379 55.1878 117.127 54.75C117.591 54.4785 117.943 54.0849 118.152 53.5934C118.534 53.5973 118.907 53.5064 119.25 53.34C119.95 53.0005 120.483 52.3741 120.812 51.7029C121.353 50.5991 121.489 48.9699 120.454 47.8001C120.895 46.7778 120.923 45.8368 120.594 45.0204C120.204 44.0547 119.398 43.4806 118.743 43.1995L118.594 43.1355L118.433 43.1219Z" fill="#FFF975" stroke="black" stroke-width="2"/>
<path d="M109.009 70.4646C108.754 70.6074 108.574 70.8544 108.517 71.1408C108.46 71.4272 108.53 71.7243 108.711 71.9542L124.054 91.5185C124.358 91.9063 124.899 92.0147 125.329 91.7738L135.143 86.2764C135.573 86.0355 135.764 85.5172 135.592 85.0553L126.922 61.7527C126.82 61.479 126.604 61.2634 126.33 61.1627C126.055 61.062 125.751 61.0862 125.496 61.229L109.009 70.4646Z" fill="#FC5F5F" stroke="black" stroke-width="2" stroke-linejoin="round"/>
<path d="M110.675 70.6774L112.442 69.6879L126.803 89.802L125.626 90.4617L110.675 70.6774Z" fill="white"/>
<path d="M113.619 69.0282L115.68 67.8737L128.57 88.8124L127.392 89.4721L113.619 69.0282Z" fill="white"/>
<path d="M121.569 64.5752L119.508 65.7297L130.925 87.493L132.103 86.8333L121.569 64.5752Z" fill="white"/>
<path d="M124.513 62.926L122.452 64.0805L132.692 86.5035L133.869 85.8438L124.513 62.926Z" fill="white"/>
<path d="M116.564 67.379L118.625 66.2245L130.337 87.8229L129.159 88.4826L116.564 67.379Z" fill="white"/>
<path fill-rule="evenodd" clip-rule="evenodd" d="M22.0801 72.0778C22.1017 77.0031 22.3749 80.8978 22.7087 80.8978C23.0425 80.8978 23.3157 77.0031 23.3372 72.0778C28.959 72.0587 33.4175 71.7844 33.4175 71.449C33.4175 71.1135 28.959 70.8392 23.3373 70.8201C23.3157 65.8948 23.0425 62 22.7087 62C22.3749 62 22.1017 65.8948 22.0801 70.8201C16.4584 70.8392 12 71.1135 12 71.449C12 71.7844 16.4584 72.0587 22.0801 72.0778Z" fill="#FFFCB4"/>
<path fill-rule="evenodd" clip-rule="evenodd" d="M93.2956 38.37C93.3118 42.064 93.5167 44.9851 93.767 44.9851C94.0174 44.9851 94.2223 42.064 94.2384 38.37C98.4548 38.3557 101.799 38.15 101.799 37.8984C101.799 37.6468 98.4548 37.4411 94.2384 37.4267C94.2223 33.7328 94.0174 30.8117 93.767 30.8117C93.5167 30.8117 93.3118 33.7328 93.2956 37.4267C89.0794 37.4411 85.7356 37.6468 85.7356 37.8984C85.7356 38.15 89.0794 38.3557 93.2956 38.37Z" fill="#FFFCB4"/>
</svg>
