<svg width="140" height="140" viewBox="0 0 140 140" fill="none" xmlns="http://www.w3.org/2000/svg">
<mask id="path-1-outside-1_3614_4254" maskUnits="userSpaceOnUse" x="3" y="14" width="134" height="119" fill="black">
<rect fill="white" x="3" y="14" width="134" height="119"/>
<path fill-rule="evenodd" clip-rule="evenodd" d="M50.7155 26.9866C57.8844 25.3388 66.5566 23.3454 78.1365 19.9605C101.594 13.1037 114.977 25.3373 121.959 39.5555H127.178C127.45 39.5555 127.713 39.6535 127.918 39.8315L132.011 43.3728C132.533 43.8242 132.533 44.6333 132.011 45.0847L127.918 48.626C127.713 48.804 127.45 48.902 127.178 48.902H125.632C126.099 50.4242 126.503 51.9269 126.847 53.3892C127.591 56.5521 128.375 60.6917 128.923 65.4062L129.825 66.1864C130.346 66.6378 130.346 67.4469 129.825 67.8983L129.231 68.412C129.873 75.6545 129.881 83.9553 128.382 92.0457V94.8861L128.382 99.5464C128.382 101.667 126.886 103.438 124.893 103.863C121.1 112.755 114.618 120.478 104.026 124.972C87.8168 131.849 73.4512 127.837 56.0986 122.991C50.4457 121.412 44.4758 119.745 38.0219 118.337C32.1328 117.052 27.0571 114.617 22.8163 111.294H18.6903C18.8634 111.591 18.9626 111.936 18.9626 112.304C18.9626 113.415 18.0624 114.315 16.952 114.315C15.8416 114.315 14.9414 113.415 14.9414 112.304C14.9414 111.936 15.0406 111.591 15.2137 111.294H13.7687C12.7137 111.294 11.8585 110.438 11.8585 109.383V97.3961C7.65519 88.5918 6.14838 77.8974 7.45854 66.7609C9.64716 48.1574 17.9646 37.6301 29.9035 32.8545C36.2751 30.3059 42.5107 28.8726 50.7155 26.9866Z"/>
</mask>
<path fill-rule="evenodd" clip-rule="evenodd" d="M50.7155 26.9866C57.8844 25.3388 66.5566 23.3454 78.1365 19.9605C101.594 13.1037 114.977 25.3373 121.959 39.5555H127.178C127.45 39.5555 127.713 39.6535 127.918 39.8315L132.011 43.3728C132.533 43.8242 132.533 44.6333 132.011 45.0847L127.918 48.626C127.713 48.804 127.45 48.902 127.178 48.902H125.632C126.099 50.4242 126.503 51.9269 126.847 53.3892C127.591 56.5521 128.375 60.6917 128.923 65.4062L129.825 66.1864C130.346 66.6378 130.346 67.4469 129.825 67.8983L129.231 68.412C129.873 75.6545 129.881 83.9553 128.382 92.0457V94.8861L128.382 99.5464C128.382 101.667 126.886 103.438 124.893 103.863C121.1 112.755 114.618 120.478 104.026 124.972C87.8168 131.849 73.4512 127.837 56.0986 122.991C50.4457 121.412 44.4758 119.745 38.0219 118.337C32.1328 117.052 27.0571 114.617 22.8163 111.294H18.6903C18.8634 111.591 18.9626 111.936 18.9626 112.304C18.9626 113.415 18.0624 114.315 16.952 114.315C15.8416 114.315 14.9414 113.415 14.9414 112.304C14.9414 111.936 15.0406 111.591 15.2137 111.294H13.7687C12.7137 111.294 11.8585 110.438 11.8585 109.383V97.3961C7.65519 88.5918 6.14838 77.8974 7.45854 66.7609C9.64716 48.1574 17.9646 37.6301 29.9035 32.8545C36.2751 30.3059 42.5107 28.8726 50.7155 26.9866Z" fill="#A3D3FF"/>
<path d="M78.1365 19.9605L79.2587 23.7999L78.1365 19.9605ZM50.7155 26.9866L51.6115 30.885L50.7155 26.9866ZM121.959 39.5555L118.368 41.3186L119.467 43.5555H121.959V39.5555ZM127.918 39.8315L130.536 36.8067L127.918 39.8315ZM132.011 43.3728L129.393 46.3976L129.394 46.3976L132.011 43.3728ZM132.011 45.0847L134.628 48.1095L134.628 48.1095L132.011 45.0847ZM127.918 48.626L125.301 45.6012V45.6012L127.918 48.626ZM125.632 48.902V44.902H120.221L121.808 50.0754L125.632 48.902ZM126.847 53.3892L130.741 52.4731V52.4731L126.847 53.3892ZM128.923 65.4062L124.95 65.8677L125.129 67.413L126.306 68.431L128.923 65.4062ZM129.825 66.1864L127.207 69.2112L129.825 66.1864ZM129.825 67.8983L127.207 64.8735L127.207 64.8735L129.825 67.8983ZM129.231 68.412L126.614 65.3872L125.066 66.7265L125.247 68.7651L129.231 68.412ZM128.382 92.0457L124.449 91.3167L124.382 91.6781V92.0457H128.382ZM128.382 94.8861L132.382 94.8861V94.8861H128.382ZM128.382 99.5464L124.382 99.5464V99.5464H128.382ZM124.893 103.863L124.059 99.9506L122.028 100.383L121.213 102.293L124.893 103.863ZM104.026 124.972L105.588 128.654L104.026 124.972ZM56.0986 122.991L55.0226 126.843H55.0226L56.0986 122.991ZM38.0219 118.337L38.8746 114.429L38.0219 118.337ZM22.8163 111.294L25.2837 108.145L24.197 107.294H22.8163V111.294ZM18.6903 111.294V107.294H11.7293L15.2344 113.308L18.6903 111.294ZM15.2137 111.294L18.6696 113.308L22.1747 107.294H15.2137V111.294ZM11.8585 97.3961H15.8585V96.4903L15.4682 95.6728L11.8585 97.3961ZM7.45854 66.7609L3.48594 66.2935L7.45854 66.7609ZM29.9035 32.8545L28.4179 29.1406V29.1406L29.9035 32.8545ZM77.0142 16.1212C65.5526 19.4715 56.9752 21.4435 49.8194 23.0883L51.6115 30.885C58.7936 29.2341 67.5607 27.2193 79.2587 23.7999L77.0142 16.1212ZM125.549 37.7924C121.836 30.2313 116.265 22.8628 108.171 18.3595C99.9622 13.7923 89.6269 12.4344 77.0142 16.1212L79.2587 23.7999C90.1036 20.6298 98.1886 21.9604 104.281 25.3503C110.489 28.8042 115.099 34.6615 118.368 41.3186L125.549 37.7924ZM127.178 35.5555H121.959V43.5555H127.178V35.5555ZM130.536 36.8067C129.603 35.9997 128.411 35.5555 127.178 35.5555V43.5555C126.488 43.5555 125.822 43.3073 125.301 42.8563L130.536 36.8067ZM134.628 40.348L130.536 36.8067L125.301 42.8563L129.393 46.3976L134.628 40.348ZM134.628 48.1095C136.993 46.0629 136.993 42.3946 134.628 40.348L129.394 46.3976C128.072 45.2538 128.072 43.2037 129.393 42.0599L134.628 48.1095ZM130.536 51.6508L134.628 48.1095L129.394 42.0599L125.301 45.6012L130.536 51.6508ZM127.178 52.902C128.411 52.902 129.603 52.4578 130.536 51.6508L125.301 45.6012C125.822 45.1502 126.488 44.902 127.178 44.902V52.902ZM125.632 52.902H127.178V44.902H125.632V52.902ZM130.741 52.4731C130.377 50.9274 129.951 49.3388 129.456 47.7286L121.808 50.0754C122.248 51.5097 122.629 52.9264 122.953 54.3054L130.741 52.4731ZM132.896 64.9447C132.33 60.0675 131.518 55.776 130.741 52.4731L122.953 54.3054C123.665 57.3283 124.421 61.3159 124.95 65.8677L132.896 64.9447ZM132.442 63.1616L131.54 62.3814L126.306 68.431L127.207 69.2112L132.442 63.1616ZM132.442 70.9231C134.807 68.8765 134.807 65.2082 132.442 63.1616L127.207 69.2112C125.885 68.0674 125.885 66.0173 127.207 64.8735L132.442 70.9231ZM131.848 71.4368L132.442 70.9231L127.207 64.8735L126.614 65.3872L131.848 71.4368ZM132.315 92.7747C133.899 84.2245 133.878 75.5408 133.215 68.059L125.247 68.7651C125.867 75.7682 125.863 83.6862 124.449 91.3167L132.315 92.7747ZM132.382 94.8861V92.0457H124.382V94.8861H132.382ZM132.382 99.5465L132.382 94.8861L124.382 94.8861L124.382 99.5464L132.382 99.5465ZM125.727 107.775C129.528 106.965 132.382 103.593 132.382 99.5464H124.382C124.382 99.7402 124.244 99.9111 124.059 99.9506L125.727 107.775ZM105.588 128.654C117.273 123.697 124.437 115.126 128.572 105.432L121.213 102.293C117.763 110.383 111.964 117.26 102.464 121.29L105.588 128.654ZM55.0226 126.843C72.1801 131.635 87.9044 136.157 105.588 128.654L102.464 121.29C87.7293 127.541 74.7224 124.039 57.1745 119.138L55.0226 126.843ZM37.1692 122.245C43.4943 123.625 49.3581 125.261 55.0226 126.843L57.1745 119.138C51.5332 117.563 45.4572 115.865 38.8746 114.429L37.1692 122.245ZM20.3488 114.442C25.0751 118.146 30.7057 120.834 37.1692 122.245L38.8746 114.429C33.56 113.269 29.0391 111.089 25.2837 108.145L20.3488 114.442ZM18.6903 115.294H22.8163V107.294H18.6903V115.294ZM22.9626 112.304C22.9626 111.209 22.666 110.171 22.1462 109.279L15.2344 113.308C15.0608 113.01 14.9626 112.663 14.9626 112.304H22.9626ZM16.952 118.315C20.2715 118.315 22.9626 115.624 22.9626 112.304H14.9626C14.9626 111.206 15.8533 110.315 16.952 110.315V118.315ZM10.9414 112.304C10.9414 115.624 13.6325 118.315 16.952 118.315V110.315C18.0507 110.315 18.9414 111.206 18.9414 112.304H10.9414ZM11.7578 109.279C11.238 110.171 10.9414 111.209 10.9414 112.304H18.9414C18.9414 112.663 18.8432 113.01 18.6696 113.308L11.7578 109.279ZM13.7687 115.294H15.2137V107.294H13.7687V115.294ZM7.85845 109.383C7.85845 112.647 10.5045 115.294 13.7687 115.294V107.294C14.9228 107.294 15.8585 108.229 15.8585 109.383H7.85845ZM7.85845 97.3961V109.383H15.8585V97.3961H7.85845ZM3.48594 66.2935C2.10251 78.0528 3.66914 89.5269 8.24872 99.1195L15.4682 95.6728C11.6413 87.6568 10.1942 77.742 11.4311 67.2282L3.48594 66.2935ZM28.4179 29.1406C14.8516 34.5671 5.80957 46.5424 3.48594 66.2935L11.4311 67.2282C13.4848 49.7723 21.0776 40.693 31.389 36.5684L28.4179 29.1406ZM49.8194 23.0883C41.6726 24.9609 35.1272 26.4569 28.4179 29.1406L31.389 36.5684C37.4229 34.1549 43.3488 32.7842 51.6115 30.885L49.8194 23.0883Z" fill="white" mask="url(#path-1-outside-1_3614_4254)"/>
<path d="M78.1365 19.9605C53.3037 27.2193 41.8423 28.079 29.9035 32.8545C17.9646 37.6301 9.64716 48.1574 7.45854 66.7609C4.59323 91.1162 15.2013 113.357 38.0219 118.337C64.2873 124.067 82.5364 134.089 104.026 124.972C135.545 111.601 130.667 69.6261 126.847 53.3892C122.577 35.2423 109.177 10.887 78.1365 19.9605Z" fill="#FFE066"/>
<path fill-rule="evenodd" clip-rule="evenodd" d="M50.2641 25.0382C57.4297 23.3911 66.0528 21.409 77.5752 18.0409C93.7447 13.3144 105.592 17.2805 113.893 25.0029C122.063 32.6039 126.613 43.6619 128.794 52.9312C130.735 61.183 132.963 76.0184 130.664 90.5673C128.36 105.15 121.434 119.759 104.807 126.813C93.5674 131.582 83.1913 131.312 72.4269 129.184C67.0723 128.126 61.5822 126.599 55.8557 124.999L55.5793 124.922C49.915 123.34 43.9926 121.686 37.5954 120.291C13.4048 115.013 2.53589 91.4856 5.47214 66.5272C7.72827 47.3499 16.408 36.0986 29.1606 30.9976C35.2921 28.545 41.2841 27.1067 48.7356 25.3898C49.2379 25.2741 49.7472 25.157 50.2641 25.0382ZM50.7154 26.9866C57.8843 25.3388 66.5565 23.3454 78.1364 19.9605C109.177 10.887 122.577 35.2423 126.847 53.3892C130.667 69.6261 135.545 111.601 104.026 124.972C87.8167 131.849 73.4511 127.837 56.0985 122.991C50.4456 121.412 44.4757 119.745 38.0218 118.337C15.2012 113.358 4.59314 91.1163 7.45845 66.7609C9.64707 48.1574 17.9645 37.6301 29.9034 32.8545C36.275 30.3059 42.5106 28.8726 50.7154 26.9866Z" fill="black"/>
<path d="M40.5116 47.1307C32.733 50.9021 30.5013 63.6223 40.5115 68.143C55.3156 74.8286 87.9731 70.6803 96.8628 67.1879C110.234 61.9347 112.271 53.0488 111.189 43.3101C109.757 30.4162 95.9077 28.6947 81.1035 30.4163C64.8667 32.3046 56.2708 39.4897 40.5116 47.1307Z" fill="white" fill-opacity="0.1"/>
<path d="M48.572 82.8233C28.6948 82.8233 26.185 70.582 26.185 61.4573C26.185 54.2536 13.3791 52.825 11.9235 67.4555C10.6812 79.9419 27.4525 104.915 42.3604 104.915C67.2069 104.914 73.4185 82.8233 48.572 82.8233Z" fill="white" fill-opacity="0.19"/>
<path fill-rule="evenodd" clip-rule="evenodd" d="M110.031 34.9594C110.685 34.9594 111.216 35.49 111.216 36.1445L111.216 112.556C111.216 113.21 110.685 113.741 110.031 113.741C109.376 113.741 108.845 113.21 108.845 112.556L108.845 36.1445C108.845 35.49 109.376 34.9594 110.031 34.9594Z" fill="#FFF4E6"/>
<path d="M104.704 112.255C104.704 111.317 105.465 110.556 106.404 110.556H113.329C114.268 110.556 115.029 111.317 115.029 112.255C115.029 113.194 114.268 113.955 113.329 113.955H106.404C105.465 113.955 104.704 113.194 104.704 112.255Z" fill="#FFF4E6"/>
<path d="M127.178 39.5556H111.183C110.558 39.5556 110.051 40.0624 110.051 40.6875L110.051 47.7702C110.051 48.3953 110.558 48.9021 111.183 48.9021H127.178C127.45 48.9021 127.713 48.8041 127.918 48.6261L132.011 45.0848C132.533 44.6334 132.533 43.8243 132.011 43.3729L127.918 39.8316C127.713 39.6536 127.45 39.5556 127.178 39.5556Z" fill="#FFF4E6"/>
<path fill-rule="evenodd" clip-rule="evenodd" d="M113.606 44.2136C113.606 43.7135 114.011 43.3081 114.511 43.3081H123.683C124.183 43.3081 124.588 43.7135 124.588 44.2136C124.588 44.7137 124.183 45.1191 123.683 45.1191H114.511C114.011 45.1191 113.606 44.7137 113.606 44.2136Z" fill="#FF9A61"/>
<path d="M124.991 62.3691H111.183C110.558 62.3691 110.051 62.8759 110.051 63.501L110.051 70.5837C110.051 71.2088 110.558 71.7156 111.183 71.7156H124.991C125.263 71.7156 125.526 71.6176 125.732 71.4397L129.825 67.8983C130.346 67.4469 130.346 66.6378 129.825 66.1864L125.732 62.6451C125.526 62.4671 125.263 62.3691 124.991 62.3691Z" fill="#FFF4E6"/>
<path fill-rule="evenodd" clip-rule="evenodd" d="M113.605 67.0272C113.605 66.5271 114.011 66.1217 114.511 66.1217H120.815C121.315 66.1217 121.721 66.5271 121.721 67.0272C121.721 67.5273 121.315 67.9327 120.815 67.9327H114.511C114.011 67.9327 113.605 67.5273 113.605 67.0272Z" fill="#9462FF"/>
<path d="M95.9996 60.039L108.715 60.039C109.34 60.039 109.847 59.5322 109.847 58.9071L109.847 51.8244C109.847 51.1993 109.34 50.6925 108.715 50.6925L95.9996 50.6925C95.7275 50.6925 95.4646 50.7905 95.2589 50.9685L91.1663 54.5098C90.6446 54.9612 90.6446 55.7703 91.1663 56.2217L95.2589 59.763C95.4646 59.941 95.7275 60.039 95.9996 60.039Z" fill="#FFF4E6"/>
<path fill-rule="evenodd" clip-rule="evenodd" d="M98.4729 55.3659C98.4729 54.8658 98.8783 54.4604 99.3784 54.4604L105.065 54.4604C105.565 54.4604 105.97 54.8658 105.97 55.3659C105.97 55.866 105.565 56.2714 105.065 56.2714L99.3784 56.2714C98.8783 56.2714 98.4729 55.866 98.4729 55.3659Z" fill="#61B3FF"/>
<path d="M111.846 35.0766C111.846 36.068 111.042 36.8716 110.051 36.8716C109.059 36.8716 108.256 36.068 108.256 35.0766C108.256 34.0852 109.059 33.2816 110.051 33.2816C111.042 33.2816 111.846 34.0852 111.846 35.0766Z" fill="#FFF4E6"/>
<path fill-rule="evenodd" clip-rule="evenodd" d="M111.216 36.4423L111.216 39.5556H127.177C127.45 39.5556 127.712 39.6536 127.918 39.8316L132.011 43.3729C132.532 43.8243 132.532 44.6334 132.011 45.0848L127.918 48.6261C127.712 48.8041 127.45 48.9021 127.177 48.9021H111.216L111.216 62.3691H124.991C125.263 62.3691 125.526 62.4671 125.732 62.6451L129.825 66.1864C130.346 66.6378 130.346 67.4469 129.825 67.8983L125.732 71.4397C125.526 71.6176 125.263 71.7156 124.991 71.7156H111.216L111.216 110.556H113.329C114.268 110.556 115.029 111.317 115.029 112.255C115.029 113.194 114.268 113.955 113.329 113.955H106.404C105.465 113.955 104.704 113.194 104.704 112.255C104.704 111.317 105.465 110.556 106.404 110.556H108.846L108.846 60.0316C108.803 60.0365 108.759 60.039 108.715 60.039L95.9996 60.039C95.7276 60.039 95.4647 59.941 95.259 59.763L91.1664 56.2217C90.6447 55.7703 90.6447 54.9612 91.1664 54.5098L95.259 50.9685C95.4647 50.7905 95.7276 50.6925 95.9996 50.6925L108.715 50.6925C108.759 50.6925 108.803 50.6951 108.846 50.7L108.846 36.4069C108.483 36.0785 108.256 35.6041 108.256 35.0766C108.256 34.0852 109.059 33.2816 110.051 33.2816C111.042 33.2816 111.846 34.0852 111.846 35.0766C111.846 35.6234 111.601 36.113 111.216 36.4423ZM106.846 48.6925L95.9996 48.6925C95.247 48.6925 94.5195 48.9636 93.9503 49.4561L89.8577 52.9974C88.4143 54.2464 88.4143 56.4851 89.8577 57.7341L93.9503 61.2754C94.5195 61.7679 95.247 62.039 95.9996 62.039L106.846 62.039L106.846 108.556H106.404C104.361 108.556 102.704 110.212 102.704 112.255C102.704 114.298 104.361 115.955 106.404 115.955H113.329C115.373 115.955 117.029 114.298 117.029 112.255C117.029 110.212 115.373 108.556 113.329 108.556H113.216L113.216 73.7156H124.991C125.744 73.7156 126.472 73.4446 127.041 72.9521L131.133 69.4107C132.577 68.1617 132.577 65.923 131.133 64.674L127.041 61.1327C126.472 60.6402 125.744 60.3691 124.991 60.3691H113.216L113.216 50.9021H127.177C127.93 50.9021 128.658 50.631 129.227 50.1385L133.319 46.5972C134.763 45.3482 134.763 43.1095 133.319 41.8605L129.227 38.3192C128.658 37.8267 127.93 37.5556 127.177 37.5556H113.216V37.1708C113.613 36.5711 113.846 35.8505 113.846 35.0766C113.846 32.9807 112.147 31.2816 110.051 31.2816C107.955 31.2816 106.256 32.9806 106.256 35.0766C106.256 35.8239 106.473 36.5216 106.846 37.1088L106.846 48.6925Z" fill="black"/>
<path d="M68.2097 52.6802C68.2097 51.4615 69.1977 50.4735 70.4164 50.4735H73.6439C74.8626 50.4735 75.8506 51.4615 75.8506 52.6802V58.1144H68.2097V52.6802Z" fill="#FF9A61"/>
<path fill-rule="evenodd" clip-rule="evenodd" d="M77.8506 58.1144C77.8506 59.2189 76.9551 60.1144 75.8506 60.1144H68.2097C67.1051 60.1144 66.2097 59.2189 66.2097 58.1144V52.6802C66.2097 50.3569 68.0931 48.4735 70.4164 48.4735H73.6439C75.9672 48.4735 77.8506 50.3569 77.8506 52.6802V58.1144ZM70.4164 50.4735C69.1977 50.4735 68.2097 51.4615 68.2097 52.6802V58.1144H75.8506V52.6802C75.8506 51.4615 74.8626 50.4735 73.6439 50.4735H70.4164Z" fill="black"/>
<path d="M107.895 77.9405H119.555C124.43 77.9405 128.381 81.8923 128.381 86.7671V99.5464C128.381 101.984 126.406 103.96 123.968 103.96H24.8677C22.4303 103.96 20.4543 101.984 20.4543 99.5464V86.7671C20.4543 81.8923 24.4062 77.9405 29.281 77.9405H36.2479L41.6276 60.2863C42.1936 58.4287 43.9073 57.1594 45.8492 57.1594H96.6163C98.4226 57.1594 100.047 58.2601 100.716 59.9378L107.895 77.9405Z" fill="#5C7CFA"/>
<path fill-rule="evenodd" clip-rule="evenodd" d="M109.251 75.9405H119.555C125.534 75.9405 130.381 80.7877 130.381 86.7671V99.5464C130.381 103.088 127.51 105.96 123.968 105.96H24.8677C21.3257 105.96 18.4543 103.088 18.4543 99.5464V86.7671C18.4543 80.7877 23.3016 75.9405 29.281 75.9405H34.7665L39.7144 59.7033C40.537 57.0039 43.0273 55.1594 45.8492 55.1594H96.6163C99.2411 55.1594 101.601 56.7589 102.573 59.1969L109.251 75.9405ZM107.895 77.9405L100.716 59.9378C100.047 58.2601 98.4226 57.1594 96.6163 57.1594H45.8492C43.9073 57.1594 42.1936 58.4287 41.6276 60.2863L36.2479 77.9405H29.281C24.4062 77.9405 20.4543 81.8923 20.4543 86.7671V99.5464C20.4543 101.984 22.4303 103.96 24.8677 103.96H123.968C126.406 103.96 128.381 101.984 128.381 99.5464V86.7671C128.381 81.8923 124.43 77.9405 119.555 77.9405H107.895Z" fill="black"/>
<path fill-rule="evenodd" clip-rule="evenodd" d="M35.2585 101.572C35.2585 101.308 35.4724 101.094 35.7361 101.094H126.949C127.213 101.094 127.426 101.308 127.426 101.572C127.426 101.835 127.213 102.049 126.949 102.049H35.7361C35.4724 102.049 35.2585 101.835 35.2585 101.572Z" fill="#91A7FF"/>
<path fill-rule="evenodd" clip-rule="evenodd" d="M72.6136 76.8763L72.492 77.3381C71.778 80.0484 70.9193 84.4933 70.6691 88.9952C70.4175 93.5226 70.7889 97.9999 72.4434 100.855L72.6828 101.268L71.8565 101.747L71.617 101.334C69.8119 98.219 69.4625 93.4934 69.7155 88.9422C69.9698 84.3657 70.8409 79.8564 71.5684 77.0948L71.69 76.633L72.6136 76.8763Z" fill="#91A7FF"/>
<path d="M46.2238 62.2498L41.6362 77.604C41.5516 77.887 41.7636 78.1716 42.0591 78.1716H101.956C102.264 78.1716 102.478 77.8637 102.369 77.5751L96.6021 62.221C96.5374 62.0488 96.3728 61.9348 96.1889 61.9348H46.6467C46.4516 61.9348 46.2797 62.0629 46.2238 62.2498Z" fill="#A5D8FF"/>
<path fill-rule="evenodd" clip-rule="evenodd" d="M44.031 76.2614H99.8354L95.1716 63.845H47.7409L44.031 76.2614ZM102.369 77.5751C102.478 77.8637 102.264 78.1716 101.956 78.1716H42.0591C41.7636 78.1716 41.5516 77.887 41.6362 77.604L46.2238 62.2498C46.2797 62.0629 46.4516 61.9348 46.6467 61.9348H96.1889C96.3728 61.9348 96.5374 62.0488 96.6021 62.221L102.369 77.5751Z" fill="#86B4E3"/>
<path d="M88.5095 63.8451L91.3748 76.2615H94.9526L90.8896 63.8451H88.5095Z" fill="white" fill-opacity="0.46"/>
<path d="M84.4465 63.8451L86.3567 76.2615H88.7445L85.8716 63.8451H84.4465Z" fill="white" fill-opacity="0.46"/>
<path d="M54.8382 63.8451L51.9729 76.2615H54.3607L56.2632 63.8451H54.8382Z" fill="white" fill-opacity="0.46"/>
<path fill-rule="evenodd" clip-rule="evenodd" d="M71.075 76.2615L71.075 63.8451L72.9852 63.8451L72.9852 76.2615L71.075 76.2615Z" fill="#85B4E3"/>
<path d="M103.113 81.037H107.744V84.5326H103.113V81.037Z" fill="#212529"/>
<path d="M107.744 84.5323H112.374V88.0279H107.744V84.5323Z" fill="#212529"/>
<path d="M98.4822 84.5323H103.113V88.0279H98.4822V84.5323Z" fill="#212529"/>
<path d="M93.8518 81.037H98.4824V84.5326H93.8518V81.037Z" fill="#212529"/>
<path d="M89.2219 84.5323H93.8526V88.0279H89.2219V84.5323Z" fill="#212529"/>
<path fill-rule="evenodd" clip-rule="evenodd" d="M118.353 92.0207H128.381V94.886H118.353V92.0207Z" fill="#212529"/>
<path d="M57.4834 103.608C57.4834 109.605 52.6225 114.466 46.6262 114.466C40.63 114.466 35.769 109.605 35.769 103.608C35.769 97.6122 40.63 92.7513 46.6262 92.7513C52.6225 92.7513 57.4834 97.6122 57.4834 103.608Z" fill="#868E96"/>
<path fill-rule="evenodd" clip-rule="evenodd" d="M46.6262 94.2959C41.483 94.2959 37.3137 98.4653 37.3137 103.608C37.3137 108.752 41.483 112.921 46.6262 112.921C51.7694 112.921 55.9387 108.752 55.9387 103.608C55.9387 98.4653 51.7694 94.2959 46.6262 94.2959ZM34.2244 103.608C34.2244 96.7591 39.7769 91.2066 46.6262 91.2066C53.4756 91.2066 59.0281 96.7591 59.0281 103.608C59.0281 110.458 53.4756 116.01 46.6262 116.01C39.7769 116.01 34.2244 110.458 34.2244 103.608Z" fill="#212529"/>
<path d="M50.412 103.609C50.412 105.7 48.717 107.395 46.6261 107.395C44.5351 107.395 42.8401 105.7 42.8401 103.609C42.8401 101.518 44.5351 99.8229 46.6261 99.8229C48.717 99.8229 50.412 101.518 50.412 103.609Z" fill="#212529"/>
<path d="M115.342 103.608C115.342 109.605 110.481 114.466 104.485 114.466C98.4889 114.466 93.6279 109.605 93.6279 103.608C93.6279 97.6122 98.4889 92.7513 104.485 92.7513C110.481 92.7513 115.342 97.6122 115.342 103.608Z" fill="#868E96"/>
<path fill-rule="evenodd" clip-rule="evenodd" d="M104.485 94.2959C99.3419 94.2959 95.1726 98.4653 95.1726 103.608C95.1726 108.752 99.3419 112.921 104.485 112.921C109.628 112.921 113.798 108.752 113.798 103.608C113.798 98.4653 109.628 94.2959 104.485 94.2959ZM92.0833 103.608C92.0833 96.7591 97.6357 91.2066 104.485 91.2066C111.334 91.2066 116.887 96.7591 116.887 103.608C116.887 110.458 111.334 116.01 104.485 116.01C97.6357 116.01 92.0833 110.458 92.0833 103.608Z" fill="#212529"/>
<path d="M108.271 103.609C108.271 105.7 106.576 107.395 104.485 107.395C102.394 107.395 100.699 105.7 100.699 103.609C100.699 101.518 102.394 99.8229 104.485 99.8229C106.576 99.8229 108.271 101.518 108.271 103.609Z" fill="#212529"/>
<path fill-rule="evenodd" clip-rule="evenodd" d="M19.4543 71.9634C19.4543 71.4112 19.9021 70.9634 20.4543 70.9634H31.9156C32.4679 70.9634 32.9156 71.4112 32.9156 71.9634V82.4696C32.9156 83.0219 32.4679 83.4696 31.9156 83.4696H20.4543C19.9021 83.4696 19.4543 83.0219 19.4543 82.4696V71.9634ZM21.4543 72.9634V81.4696H30.9156V72.9634H21.4543Z" fill="black"/>
<path d="M11.8584 82.7266C11.8584 81.6716 12.7136 80.8164 13.7686 80.8164H38.6325C39.6875 80.8164 40.5427 81.6716 40.5427 82.7266V109.383C40.5427 110.438 39.6875 111.294 38.6325 111.294H13.7686C12.7136 111.294 11.8584 110.438 11.8584 109.383V82.7266Z" fill="#C1DAFF"/>
<path fill-rule="evenodd" clip-rule="evenodd" d="M13.7686 78.8164H38.6325C40.7921 78.8164 42.5427 80.5671 42.5427 82.7266V109.383C42.5427 111.543 40.7921 113.294 38.6325 113.294H13.7686C11.6091 113.294 9.8584 111.543 9.8584 109.383V82.7266C9.8584 80.5671 11.6091 78.8164 13.7686 78.8164ZM13.7686 80.8164C12.7136 80.8164 11.8584 81.6716 11.8584 82.7266V109.383C11.8584 110.438 12.7136 111.294 13.7686 111.294H38.6325C39.6875 111.294 40.5427 110.438 40.5427 109.383V82.7266C40.5427 81.6716 39.6875 80.8164 38.6325 80.8164H13.7686Z" fill="black"/>
<g style="mix-blend-mode:soft-light" opacity="0.6">
<path fill-rule="evenodd" clip-rule="evenodd" d="M25.4835 85.9233C25.8795 85.9233 26.2006 86.2444 26.2006 86.6404V105.47C26.2006 105.866 25.8795 106.187 25.4835 106.187C25.0874 106.187 24.7664 105.866 24.7664 105.47V86.6404C24.7664 86.2444 25.0874 85.9233 25.4835 85.9233Z" fill="#F8F9FA"/>
</g>
<g style="mix-blend-mode:soft-light" opacity="0.6">
<path fill-rule="evenodd" clip-rule="evenodd" d="M31.7581 85.9233C32.1542 85.9233 32.4752 86.2444 32.4752 86.6404V105.47C32.4752 105.866 32.1542 106.187 31.7581 106.187C31.3621 106.187 31.041 105.866 31.041 105.47V86.6404C31.041 86.2444 31.3621 85.9233 31.7581 85.9233Z" fill="#F8F9FA"/>
</g>
<g style="mix-blend-mode:soft-light" opacity="0.6">
<path fill-rule="evenodd" clip-rule="evenodd" d="M19.2088 85.9233C19.6049 85.9233 19.9259 86.2444 19.9259 86.6404V105.47C19.9259 105.866 19.6049 106.187 19.2088 106.187C18.8128 106.187 18.4917 105.866 18.4917 105.47V86.6404C18.4917 86.2444 18.8128 85.9233 19.2088 85.9233Z" fill="#F8F9FA"/>
</g>
<path fill-rule="evenodd" clip-rule="evenodd" d="M26.2004 85.8762C26.6224 85.8762 26.9645 86.2183 26.9645 86.6402V105.47C26.9645 105.892 26.6224 106.234 26.2004 106.234C25.7784 106.234 25.4363 105.892 25.4363 105.47V86.6402C25.4363 86.2183 25.7784 85.8762 26.2004 85.8762Z" fill="#212529"/>
<path fill-rule="evenodd" clip-rule="evenodd" d="M32.4753 85.8762C32.8973 85.8762 33.2394 86.2183 33.2394 86.6402V105.47C33.2394 105.892 32.8973 106.234 32.4753 106.234C32.0533 106.234 31.7112 105.892 31.7112 105.47V86.6402C31.7112 86.2183 32.0533 85.8762 32.4753 85.8762Z" fill="#212529"/>
<path fill-rule="evenodd" clip-rule="evenodd" d="M19.9257 85.8763C20.3477 85.8763 20.6898 86.2184 20.6898 86.6404V105.47C20.6898 105.892 20.3477 106.234 19.9257 106.234C19.5037 106.234 19.1616 105.892 19.1616 105.47V86.6404C19.1616 86.2184 19.5037 85.8763 19.9257 85.8763Z" fill="#212529"/>
<path d="M18.9625 112.304C18.9625 113.415 18.0624 114.315 16.952 114.315C15.8416 114.315 14.9414 113.415 14.9414 112.304C14.9414 111.194 15.8416 110.294 16.952 110.294C18.0624 110.294 18.9625 111.194 18.9625 112.304Z" fill="#495057"/>
<path fill-rule="evenodd" clip-rule="evenodd" d="M20.9625 112.304C20.9625 114.519 19.1669 116.315 16.952 116.315C14.737 116.315 12.9414 114.519 12.9414 112.304C12.9414 110.089 14.737 108.294 16.952 108.294C19.1669 108.294 20.9625 110.089 20.9625 112.304ZM16.952 114.315C18.0624 114.315 18.9625 113.415 18.9625 112.304C18.9625 111.194 18.0624 110.294 16.952 110.294C15.8416 110.294 14.9414 111.194 14.9414 112.304C14.9414 113.415 15.8416 114.315 16.952 114.315Z" fill="#212529"/>
<path d="M37.4599 112.304C37.4599 113.415 36.5597 114.315 35.4493 114.315C34.3389 114.315 33.4387 113.415 33.4387 112.304C33.4387 111.194 34.3389 110.294 35.4493 110.294C36.5597 110.294 37.4599 111.194 37.4599 112.304Z" fill="#495057"/>
<path fill-rule="evenodd" clip-rule="evenodd" d="M39.4599 112.304C39.4599 114.519 37.6643 116.315 35.4493 116.315C33.2343 116.315 31.4387 114.519 31.4387 112.304C31.4387 110.089 33.2343 108.294 35.4493 108.294C37.6643 108.294 39.4599 110.089 39.4599 112.304ZM35.4493 114.315C36.5597 114.315 37.4599 113.415 37.4599 112.304C37.4599 111.194 36.5597 110.294 35.4493 110.294C34.3389 110.294 33.4387 111.194 33.4387 112.304C33.4387 113.415 34.3389 114.315 35.4493 114.315Z" fill="#212529"/>
<path d="M17.2366 72.3008C17.2366 71.587 17.8152 71.0084 18.5289 71.0084H33.8719C34.5857 71.0084 35.1643 71.587 35.1643 72.3008C35.1643 73.0145 34.5857 73.5932 33.8719 73.5932H18.5289C17.8152 73.5932 17.2366 73.0145 17.2366 72.3008Z" fill="#F2FAFF"/>
<path fill-rule="evenodd" clip-rule="evenodd" d="M18.5289 69.0084H33.8719C35.6902 69.0084 37.1643 70.4825 37.1643 72.3008C37.1643 74.1191 35.6902 75.5932 33.8719 75.5932H18.5289C16.7106 75.5932 15.2366 74.1191 15.2366 72.3008C15.2366 70.4825 16.7106 69.0084 18.5289 69.0084ZM18.5289 71.0084C17.8152 71.0084 17.2366 71.587 17.2366 72.3008C17.2366 73.0145 17.8152 73.5932 18.5289 73.5932H33.8719C34.5857 73.5932 35.1643 73.0145 35.1643 72.3008C35.1643 71.587 34.5857 71.0084 33.8719 71.0084H18.5289Z" fill="black"/>
<g style="mix-blend-mode:soft-light" opacity="0.9">
<path d="M15.2731 82.5362L24.5943 81.6949H12.762V93.4213L13.5415 84.2765C13.6202 83.3532 14.3502 82.6195 15.2731 82.5362Z" fill="#F8F9FA"/>
</g>
<path d="M81.5812 84.3798H73.9403C73.3036 85.6533 72.7942 88.2003 75.8505 88.2003C78.9069 88.2003 80.9444 85.6533 81.5812 84.3798Z" fill="#91A7FF"/>
<path d="M50.5458 84.3798H42.9049C42.2682 85.6533 41.7588 88.2003 44.8151 88.2003C47.8715 88.2003 49.909 85.6533 50.5458 84.3798Z" fill="#91A7FF"/>
<path fill-rule="evenodd" clip-rule="evenodd" d="M53.5558 47.4984C53.7446 46.9793 54.3183 46.7116 54.8374 46.9003L61.9562 49.489C62.4753 49.6777 62.743 50.2515 62.5543 50.7705C62.3655 51.2896 61.7918 51.5573 61.2728 51.3686L54.1539 48.7799C53.6349 48.5912 53.3671 48.0174 53.5558 47.4984Z" fill="#FF9A61"/>
<path fill-rule="evenodd" clip-rule="evenodd" d="M59.6132 40.6612C60.0037 40.2707 60.6369 40.2707 61.0274 40.6612L64.9104 44.5442C65.301 44.9347 65.301 45.5679 64.9104 45.9584C64.5199 46.3489 63.8867 46.3489 63.4962 45.9584L59.6132 42.0754C59.2227 41.6849 59.2227 41.0517 59.6132 40.6612Z" fill="#FF9A61"/>
<path fill-rule="evenodd" clip-rule="evenodd" d="M90.5042 47.4984C90.3155 46.9793 89.7417 46.7116 89.2227 46.9003L82.1038 49.489C81.5848 49.6777 81.317 50.2515 81.5058 50.7705C81.6945 51.2896 82.2683 51.5573 82.7873 51.3686L89.9062 48.7799C90.4252 48.5912 90.693 48.0174 90.5042 47.4984Z" fill="#FF9A61"/>
<path fill-rule="evenodd" clip-rule="evenodd" d="M84.4471 40.6612C84.0566 40.2707 83.4234 40.2707 83.0329 40.6612L79.1499 44.5443C78.7593 44.9348 78.7593 45.5679 79.1499 45.9585C79.5404 46.349 80.1736 46.349 80.5641 45.9585L84.4471 42.0755C84.8376 41.6849 84.8376 41.0518 84.4471 40.6612Z" fill="#FF9A61"/>
<path fill-rule="evenodd" clip-rule="evenodd" d="M72.0298 36C72.5821 36 73.0298 36.4477 73.0298 37V45.2514C73.0298 45.8037 72.5821 46.2514 72.0298 46.2514C71.4775 46.2514 71.0298 45.8037 71.0298 45.2514V37C71.0298 36.4477 71.4775 36 72.0298 36Z" fill="#FF9A61"/>
<mask id="mask0_3614_4254" style="mask-type:alpha" maskUnits="userSpaceOnUse" x="7" y="18" width="123" height="111">
<path d="M78.1365 19.9605C53.3037 27.2193 41.8423 28.079 29.9035 32.8545C17.9646 37.6301 9.64716 48.1574 7.45854 66.7609C4.59323 91.1162 15.2013 113.357 38.0219 118.337C64.2873 124.067 82.5364 134.089 104.026 124.972C135.545 111.601 130.667 69.6261 126.847 53.3892C122.577 35.2423 109.177 10.887 78.1365 19.9605Z" fill="#B071EE"/>
</mask>
<g mask="url(#mask0_3614_4254)">
<path d="M11.8584 115.898H129.337V128.792H11.8584V115.898Z" fill="#B1965F"/>
</g>
<path fill-rule="evenodd" clip-rule="evenodd" d="M50.7646 33.1815L50.1403 36.4059L48.2649 36.0428L48.8892 32.8184L50.7646 33.1815Z" fill="#FFE066"/>
<path fill-rule="evenodd" clip-rule="evenodd" d="M61.0218 29.2821L54.7029 33.8164L53.5892 32.2644L59.9081 27.7301L61.0218 29.2821Z" fill="#A3D3FF"/>
<path fill-rule="evenodd" clip-rule="evenodd" d="M24.792 43.2495L31.652 47.6703L30.6173 49.276L23.7572 44.8552L24.792 43.2495Z" fill="#FFEBC4"/>
<path fill-rule="evenodd" clip-rule="evenodd" d="M92.9693 30.1522L85.9463 26.811L86.7669 25.086L93.79 28.4273L92.9693 30.1522Z" fill="#A3D3FF"/>
<path fill-rule="evenodd" clip-rule="evenodd" d="M96.5518 37.9669L93.2588 37.7938L93.3591 35.8862L96.6521 36.0593L96.5518 37.9669Z" fill="#FFE066"/>
<path fill-rule="evenodd" clip-rule="evenodd" d="M22.9801 53.7655L22.2649 56.9846L20.4001 56.5703L21.1153 53.3512L22.9801 53.7655Z" fill="#A3D3FF"/>
</svg>
