<svg width="16" height="16" viewBox="0 0 16 16" fill="none" xmlns="http://www.w3.org/2000/svg">
<path fill-rule="evenodd" clip-rule="evenodd" d="M7.28258 0.871973C7.57603 0.277377 8.4239 0.277376 8.71735 0.871973L10.5221 4.52871L14.5575 5.11509C15.2137 5.21044 15.4757 6.01681 15.0009 6.47964L12.0808 9.32601L12.7701 13.3452C12.8822 13.9987 12.1963 14.497 11.6094 14.1885L7.99997 12.2909L4.39055 14.1885C3.80365 14.497 3.11771 13.9987 3.2298 13.3452L3.91913 9.32601L0.999057 6.47964C0.524243 6.01682 0.786251 5.21044 1.44243 5.11509L5.47787 4.52871L7.28258 0.871973ZM7.99997 2.58176L6.5937 5.43116C6.47717 5.66728 6.25192 5.83093 5.99135 5.8688L2.84684 6.32572L5.12223 8.54367C5.31078 8.72746 5.39682 8.99226 5.35231 9.25178L4.81516 12.3836L7.62769 10.9049C7.86075 10.7824 8.13918 10.7824 8.37224 10.9049L11.1848 12.3836L10.6476 9.25178C10.6031 8.99226 10.6892 8.72746 10.8777 8.54367L13.1531 6.32572L10.0086 5.8688C9.74801 5.83093 9.52276 5.66728 9.40623 5.43116L7.99997 2.58176Z" fill="#27292A"/>
</svg>
