<svg xmlns="http://www.w3.org/2000/svg" viewBox="0 0 50 50" width="50" height="50"><g class="uk-icon-alternate-dark" version="1.1"><g stroke="#F4202C" stroke-width="1" fill="none" fill-rule="evenodd" stroke-linecap="round"><path stroke-width="3" stroke-linejoin="round" d="M7.998 31.043h4.3l5.584 9.68 2.2-27.223h23.603"/><g stroke-width="3"><path d="m27.833 23 12.574 12.41M40.193 23l-12.6 12.41"/></g><path d="M7 10h5.827l-4.014 3.939c.934-.25 1.755-.25 2.462 0 1.06.373 1.65 1.162 1.718 2.543.095 1.908-.814 3.292-2.966 3.518-1.53.16-2.856-.494-3.527-1.912" stroke-width="2.6" stroke-linejoin="round"/></g></g><g class="uk-icon-alternate-default" version="1.1"><g stroke="#F4202C" stroke-width="1" fill="none" fill-rule="evenodd" stroke-linecap="round"><path stroke-width="3" stroke-linejoin="round" d="M7.998 31.043h4.3l5.584 9.68 2.2-27.223h23.603"/><g stroke-width="3"><path d="m27.833 23 12.574 12.41M40.193 23l-12.6 12.41"/></g><path d="M7 10h5.827l-4.014 3.939c.934-.25 1.755-.25 2.462 0 1.06.373 1.65 1.162 1.718 2.543.095 1.908-.814 3.292-2.966 3.518-1.53.16-2.856-.494-3.527-1.912" stroke-width="2.6" stroke-linejoin="round"/></g></g></svg>