<?xml version="1.0" encoding="UTF-8"?>
<svg width="24px" height="24px" viewBox="0 0 24 24" version="1.1" xmlns="http://www.w3.org/2000/svg" xmlns:xlink="http://www.w3.org/1999/xlink">
    <!-- Generator: Sketch 56 (81588) - https://sketch.com -->
    <title>emotion_think@16</title>
    <desc>Created with Sketch.</desc>
    <defs>
        <polygon id="path-1" points="2.25082953e-05 0.000222508295 23.9999363 0.000222508295 23.9999363 24 2.25082953e-05 24"></polygon>
        <polygon id="path-3" points="2.25082953e-05 0.000222508295 23.9999363 0.000222508295 23.9999363 24 2.25082953e-05 24"></polygon>
    </defs>
    <g id="emotion_think" stroke="none" stroke-width="1" fill="none" fill-rule="evenodd">
        <g id="Group-15">
            <g id="Group-3">
                <mask id="mask-2" fill="white">
                    <use xlink:href="#path-1"></use>
                </mask>
                <g id="Clip-2"></g>
                <path d="M1.8291,18.3653 C-1.6859,12.7483 0.0171,5.3443 5.6351,1.8293 C11.2521,-1.6857 18.6551,0.0173 22.1711,5.6353 C25.6861,11.2523 23.9821,18.6553 18.3651,22.1713 C12.7481,25.6863 5.3451,23.9823 1.8291,18.3653" id="Fill-1" fill="#F7C839" mask="url(#mask-2)"></path>
            </g>
            <g id="Group-6">
                <mask id="mask-4" fill="white">
                    <use xlink:href="#path-3"></use>
                </mask>
                <g id="Clip-5"></g>
                <path d="M1.8291,18.3653 C-1.6859,12.7483 0.0171,5.3443 5.6351,1.8293 C11.2521,-1.6857 18.6551,0.0173 22.1711,5.6353 C25.6861,11.2523 23.9821,18.6553 18.3651,22.1713 C12.7481,25.6863 5.3451,23.9823 1.8291,18.3653" id="Fill-4" fill="#F7C839" mask="url(#mask-4)"></path>
            </g>
            <path d="M9,5.5 C9,6.329 8.552,7 8,7 C7.448,7 7,6.329 7,5.5 C7,4.671 7.448,4 8,4 C8.552,4 9,4.671 9,5.5" id="Fill-7" fill="#4C4023"></path>
            <path d="M15,5.5 C15,6.329 14.552,7 14,7 C13.448,7 13,6.329 13,5.5 C13,4.671 13.448,4 14,4 C14.552,4 15,4.671 15,5.5" id="Fill-9" fill="#4C4023"></path>
            <path d="M15.4492,13.1739 C15.4312,13.1639 13.5842,12.3689 11.7822,12.0219 C9.6142,11.6039 8.0972,12.1539 8.0822,12.1599 C7.6972,12.3039 7.2642,12.1099 7.1172,11.7229 C6.9712,11.3369 7.1632,10.9059 7.5492,10.7579 C7.6252,10.7289 9.4552,10.0439 12.0662,10.5489 C14.1142,10.9439 16.0602,12.0349 16.1422,12.0819 C16.5032,12.2849 17.0002,12.7979 16.7832,13.1509 C16.5372,13.5499 15.5662,13.2389 15.4492,13.1739" id="Fill-11" fill="#4C4023"></path>
            <path d="M1.998,19.0288 C2.182,18.4828 2.751,17.6098 2.671,16.8228 C2.486,14.9968 2.89,12.6958 3.553,12.7728 C4.65,12.9018 4.536,14.9858 4.856,16.0108 C5.176,17.0358 8.817,15.2028 10.112,14.7568 C11.363,14.3238 12.11,14.3148 12.317,14.7798 C12.523,15.2448 12.252,16.0118 10.926,16.6618 C9.537,17.3418 7.582,18.0128 7.582,18.0128 C7.582,18.0128 8.998,18.9638 8.868,20.6568 C8.786,21.7098 7.006,23.6078 3.97,22.5308 C2.79,22.1118 1.402,20.8058 1.998,19.0288" id="Fill-13" fill="#F79633"></path>
        </g>
    </g>
</svg>