<svg xmlns="http://www.w3.org/2000/svg" viewBox="0 0 320 500" width="320" height="500"><g class="uk-icon-alternate-dark" version="1.1"><g stroke="none" stroke-width="1" fill="none" fill-rule="evenodd"><path fill="#0D0D0D" fill-rule="nonzero" d="M320.805 524.675h-340.5V-25h340.5z"/><path fill="#F5F5F5" fill-rule="nonzero" style="mix-blend-mode:multiply" d="M94.6 141.78-66.64 298.493l-77.041 14.164-73.32-19.163L17.06 96.9z"/><path d="m317.59 289.72 14.975 74.528c3.381 11.797-3.495 24.206-14.198 25.796l-20.094 2.97-10.109-26.546-8.011-29.798-10.817-30.986 48.254-15.965z" fill="#0F66DE" fill-rule="nonzero"/><path fill="#0F66DE" fill-rule="nonzero" style="mix-blend-mode:multiply" d="M325.012 321.965 279.93 341.87 269 323.468 321.805 306z"/><path d="M-85.336 177.394c1.57-.41 3.202-.526 4.814-.34a12.37 12.37 0 0 1 3.783 1.057 19.788 19.788 0 0 1 3.137 1.94l3.023 2.08a991.821 991.821 0 0 1 12.056 8.397c8.012 5.627 15.901 11.412 23.782 17.223l11.751 8.808 11.664 8.887 23.406 17.748 94.113 70.3-7.339 2.123 25.494-61.448 25.59-61.404 1.075-2.622 2.674.481 78.054 14.2-1.249.113 65.37-23.016L361.281 159l.385 1.057-64.714 24.835-64.775 24.642-.576.218-.673-.105-78.387-12.233 3.748-2.098-24.183 61.973-24.28 61.91-2.272 5.803-5.05-3.714-94.934-69.242-23.887-17.145-11.934-8.555-11.839-8.598c-7.863-5.82-15.726-11.666-23.467-17.66-3.87-2.998-7.74-6.004-11.576-9.045l-2.875-2.28a20.28 20.28 0 0 1-2.778-2.42 12.522 12.522 0 0 1-2.123-3.313A13.11 13.11 0 0 1-86 178.338l.664-.944z" fill-opacity=".2" fill="#E7EBF6" fill-rule="nonzero"/><path fill="#141F38" fill-rule="nonzero" d="m147.204 345.33-25.747-11.43 21.92-5.986zM135.19 271.264l-29.74-22.082-4.455 21.094-.358 2.106"/><path fill="#E2F244" fill-rule="nonzero" style="mix-blend-mode:multiply" d="m122.05 253.543-19.867 11.587 12.319 11.263 13.131 63.72 21.947-8.327-8.859-59.124z"/><path fill="#E7EBF6" fill-rule="nonzero" d="M273.779 329.28v-45.17l57.09 250.605-184.486-13.649-7.671-179.502-17.255-13.65-16.006-50.096v-28.636l57.203-6.056 102.13-9.402L301.5 244.67l31.579 62.371z"/><path d="m196.766 287.266-58.866 2.008 3.072 102.8 59.752-4.37c4.097-.41 7.173-4.369 6.99-9.053l-3.426-83.084c-.192-4.605-3.486-8.222-7.522-8.301z" fill="#D1D8ED" fill-rule="nonzero"/><path d="M231.62 236.599s-3.792 11.5-24.08 13.107c-20.286 1.608-16.38-8.423-16.38-8.423l9.321-9.612 3.495-10.338 10.781-3.652 16.862 18.918z" fill="#0F66DE" fill-rule="nonzero"/><path d="m213.517 216.422 6.037 7.096-.437.166a30.102 30.102 0 0 1-16.495 1.433l2.69-9.525 8.205.83z" fill="#0028C1" fill-rule="nonzero"/><path fill="#0028C1" fill-rule="nonzero" d="m206.842 221.779 22.183 11.945-13.368-15.03z"/><path d="m212.713 170.878-25.87 6.405 4.29 31.694a15.424 15.424 0 0 0 17.369 13.213 12.817 12.817 0 0 0 10.886-15.048l-6.675-36.264z" fill="#0F66DE" fill-rule="nonzero"/><path fill="#1B1C67" fill-rule="nonzero" d="m191.351 165.583 5.968-1.477 3.084-8.59 14.913 1.258 31.427-36.543 30.404 3.207v16.115l5.032 15.64-26.42 34.158-28.185 3.163-10.117 4.195-2.857-14.995-26.621 3.914-1.136-8.37z"/><path fill="#E2F244" fill-rule="nonzero" style="mix-blend-mode:multiply" d="m63.016 293.651 12.852 16.63-4.115-22.24z"/><path fill="#E7EBF6" fill-rule="nonzero" style="mix-blend-mode:multiply" d="m170.348 390.21 11.227 27.246 69.09 13.212-73.432-6.466z"/><path d="m219.308 365.539 33.686 2.19a6.3 6.3 0 0 1-.817 12.574l-33.686-2.19a6.3 6.3 0 0 1 .817-12.574z" fill="#0D50A1" fill-rule="nonzero"/><path d="M239.483 347.279a7.498 7.498 0 0 1 3.87 9.56l-27.897 67.669-10.117 7.07-3.495-13.108 27.574-67.067a7.497 7.497 0 0 1 10.065-4.124z" fill="#FF827F" fill-rule="nonzero"/><path d="m224.233 403.619-2.783 6.327a8.946 8.946 0 0 1-11.913-7.897l-.114-1.892L213.716 389l10.517 14.619z" fill="#F04E4A" opacity=".58"/><path d="M201.792 418.443a18.781 18.781 0 0 1 8.387-.148c3.958 1.048 5.242 6.213 5.242 6.213l-10.117 7.07-3.512-13.135z" fill="#F5F5F5" fill-rule="nonzero" opacity=".3"/><path d="M204.36 428.038a5.058 5.058 0 0 1 2.263-.044c1.066.28 1.416 1.678 1.416 1.678l-2.726 1.905-.953-3.539z" fill="#240200" fill-rule="nonzero" opacity=".3"/><path d="m218.994 393.972 19.8-4.325a6.3 6.3 0 0 1 2.688 12.31l-19.8 4.326a6.3 6.3 0 0 1-7.499-4.81v-.001a6.3 6.3 0 0 1 4.811-7.5z" fill="#0F66DE" fill-rule="nonzero"/><path d="m214.278 384.393 22.242-4.858a6.3 6.3 0 0 1 2.688 12.31l-22.242 4.859a6.3 6.3 0 0 1-7.499-4.81v-.001a6.3 6.3 0 0 1 4.811-7.5z" fill="#0F66DE" fill-rule="nonzero"/><path d="m212.425 375.922 27.745-6.06a6.3 6.3 0 0 1 2.688 12.31l-27.744 6.06a6.3 6.3 0 0 1-2.688-12.31z" fill="#0F66DE" fill-rule="nonzero"/><path fill="#0F66DE" fill-rule="nonzero" d="m236 371.547 6.303 30.157 76.313-12.122L312.203 354z"/><path stroke="#240200" stroke-width="1.8" d="m218.487 394.733 24.97-5.523M217 384.523 241.97 379"/><path d="m65.43 292.977-38.662 20.07c-6.246 3.242-13.938.807-17.18-5.439l-.001-.001c-3.242-6.248-.806-13.94 5.441-17.184l38.662-20.07c6.246-3.242 13.938-.807 17.18 5.44h.002c3.242 6.248.806 13.941-5.441 17.184z" fill="#0D50A1" fill-rule="nonzero"/><path d="M186.756 248.728 49.15 254.705c-4.525-.088-8.134 4.273-7.767 9.394l6.02 89.532c.35 4.789 4.071 8.345 8.3 7.926l135.01-12.417c4.09-.402 7.173-4.37 6.99-9.044l-3.425-83.084c-.227-4.58-3.486-8.197-7.522-8.284z" fill="#E2F244" fill-rule="nonzero"/><path fill="#B2D6D5" fill-rule="nonzero" style="mix-blend-mode:multiply" d="m78.41 344.238-30.937 12.47L46.1 337.29z"/><path d="m62.487 308.418-40.07 8.753c-6.877 1.502-13.668-2.854-15.17-9.73v-.001c-1.502-6.877 2.855-13.67 9.732-15.171l40.07-8.753c6.877-1.502 13.669 2.854 15.17 9.73v.001c1.502 6.877-2.855 13.67-9.732 15.171z" fill="#0F66DE" fill-rule="nonzero"/><path d="m72.032 327.795-45.013 9.833c-6.876 1.502-13.668-2.855-15.17-9.73v-.002c-1.501-6.877 2.856-13.669 9.732-15.17l45.014-9.833c6.876-1.502 13.667 2.854 15.17 9.73v.001c1.501 6.877-2.856 13.67-9.733 15.171z" fill="#0F66DE" fill-rule="nonzero"/><path d="m75.793 344.939-45.013 9.833c-6.876 1.502-13.668-2.855-15.17-9.731v-.001c-1.501-6.877 2.856-13.669 9.732-15.171l45.014-9.833c6.876-1.502 13.667 2.855 15.17 9.731 1.501 6.878-2.856 13.67-9.733 15.172z" fill="#0F66DE" fill-rule="nonzero"/><path stroke="#240200" stroke-width="3.63" d="m67.576 304.845-50.525 11.168M76.54 324.524l-50.525 11.168"/><path fill="#00E72F" fill-rule="nonzero" d="m17.06 96.9-7.365 59.98 46.82 1.59L94.6 141.78l8.737-35.172z"/><path d="M-1.331 126.313a1640.669 1640.669 0 0 1 30.02-13.553c10.065-4.37 20.138-8.739 30.421-12.723 2.621-.988 5.164-1.95 7.864-2.832 1.328-.437 2.62-.873 4.088-1.206.766-.195 1.546-.33 2.333-.401.262-.018.525-.018.786 0 .485.021.956.162 1.372.41.447.28.783.706.952 1.206.117.42.117.864 0 1.285a3.19 3.19 0 0 1-.498 1.066 11.193 11.193 0 0 1-1.65 1.791l-1.547 1.407c-1.031.926-2.07 1.835-3.12 2.726a508.22 508.22 0 0 1-6.316 5.313c-4.211 3.496-8.449 6.99-12.599 10.486a172.472 172.472 0 0 0-6.115 5.383 60.456 60.456 0 0 0-2.988 2.822 26.266 26.266 0 0 0-2.551 2.884 5.811 5.811 0 0 0-.411.664l-.061.131v.061a.577.577 0 0 0 0-.297.874.874 0 0 0-.455-.541h-.07.053c.228.013.458-.005.681-.053a20.966 20.966 0 0 0 3.652-1.048 76.292 76.292 0 0 0 7.34-3.338c4.84-2.465 9.61-5.165 14.32-7.865 9.452-5.505 18.74-11.299 28.167-16.935 1.18-.699 2.367-1.398 3.564-2.08a36.421 36.421 0 0 1 3.783-1.94c.238-.1.487-.167.743-.2h.14c.122.012.242.038.358.078.423.154.69.574.646 1.023-.02.246-.108.481-.253.681-.236.314-.5.606-.786.874-.516.516-1.031.979-1.547 1.442-1.04.926-2.096 1.809-3.154 2.682-4.254 3.496-8.536 6.895-12.825 10.312-4.29 3.416-8.65 6.79-13.018 10.084-2.184 1.66-4.369 3.32-6.588 4.937-1.11.813-2.219 1.616-3.355 2.394-.559.402-1.136.778-1.747 1.162-.595.407-1.213.778-1.852 1.11l-.359-.874c.481-.262 1.11-.673 1.652-1.04a58.712 58.712 0 0 0 1.668-1.17 120.425 120.425 0 0 0 3.303-2.438 311.717 311.717 0 0 0 6.491-5.016 903.283 903.283 0 0 0 12.791-10.311c4.238-3.47 8.475-6.991 12.642-10.486 1.031-.874 2.062-1.748 3.067-2.692.498-.454.987-.874 1.442-1.38.196-.205.38-.42.55-.647 0 0 0-.122-.052.218a.874.874 0 0 0 .533.822c.071.031.148.049.227.052h.166a2.254 2.254 0 0 0-.245.088 36.99 36.99 0 0 0-3.495 1.87 185.98 185.98 0 0 0-3.494 2.114c-9.366 5.759-18.549 11.683-27.95 17.354-4.709 2.832-9.444 5.62-14.328 8.206a79.263 79.263 0 0 1-7.575 3.582c-1.363.556-2.776.98-4.22 1.268a4.411 4.411 0 0 1-.629.078 4.84 4.84 0 0 1-.725 0c-.155-.01-.31-.03-.463-.061a2.332 2.332 0 0 1-.56-.184 2 2 0 0 1-.646-.445 2.21 2.21 0 0 1-.489-.804 2.42 2.42 0 0 1 0-1.302c.032-.146.076-.29.131-.428l.149-.35a7.07 7.07 0 0 1 .629-1.057 29.01 29.01 0 0 1 2.822-3.32 104.284 104.284 0 0 1 2.979-2.928c2.018-1.905 4.071-3.74 6.116-5.558 4.132-3.635 8.326-7.182 12.476-10.739 2.08-1.748 4.15-3.565 6.186-5.374a196.953 196.953 0 0 0 3.031-2.726l1.468-1.399a9.655 9.655 0 0 0 1.145-1.162c.052-.06 0-.078-.044.149a1.407 1.407 0 0 0 0 .778c.12.336.347.625.647.82.393.21.393.14.384.158h-.245a12.23 12.23 0 0 0-1.703.341 53.05 53.05 0 0 0-3.775 1.17c-2.533.875-5.067 1.87-7.592 2.885-10.1 4.09-20.095 8.58-30.037 13.107-9.943 4.527-19.868 9.202-29.706 13.929l-2.14-4.5z" fill="#E2F244" fill-rule="nonzero"/><g fill-rule="nonzero"><path fill="#F68CBC" d="M66 390h-82.952L-29 425.383 51.035 438z"/><path d="M-8.063 395c14.9.63 29.8 1.36 44.641 2.733 3.735.384 7.43.73 11.255 1.51.477.11.993.222 1.48.382.28.079.555.178.824.297.17.07.336.152.497.248.297.162.567.393.795.68a2.822 2.822 0 0 1 .556 1.558c.02.201.02.405 0 .606a2.768 2.768 0 0 1-.12.47c-.05.137-.11.27-.178.396l-.139.223a2.635 2.635 0 0 1-.834.766 5.062 5.062 0 0 1-.924.42c-.547.186-.994.31-1.52.421-1.927.433-3.795.68-5.662.916l-22.271 2.77c-7.38.952-14.801 1.843-22.043 3.314a28.42 28.42 0 0 0-5.185 1.497 4.68 4.68 0 0 0-.506.272c-.14.074-.229.198-.18.111a.57.57 0 0 0 .09-.185 1.32 1.32 0 0 0 .07-.408 1.082 1.082 0 0 0-.16-.582c-.089-.099.06 0 .18.124.752.423 1.537.746 2.344.965 3.579.99 7.2 1.72 10.847 2.189 7.341 1.026 14.752 1.533 22.162 1.83 7.41.297 14.9.371 22.26.235v1.967c-7.45.288-14.896.35-22.34.185-7.45-.148-14.9-.52-22.36-1.41a80.99 80.99 0 0 1-11.175-2.04 11.713 11.713 0 0 1-2.98-1.237c-.14-.112-.268-.173-.437-.322l-.229-.222-.278-.347a2.506 2.506 0 0 1-.01-2.758 3.29 3.29 0 0 1 .934-.903c.25-.169.51-.317.775-.445a29.176 29.176 0 0 1 5.632-1.756c7.41-1.657 14.791-2.684 22.192-3.784l22.25-3.154c1.828-.272 3.656-.557 5.385-.977.417-.111.844-.223 1.192-.359.131-.048.26-.106.387-.173a1.174 1.174 0 0 0-.228.247l-.09.149a1.994 1.994 0 0 0-.228.668c-.02.168-.02.339 0 .507.007.282.068.557.178.804.059.136.132.26.219.37.199.248.238.223.209.223l-.15-.074-.516-.173a11.64 11.64 0 0 0-1.252-.285c-3.526-.655-7.261-.952-10.926-1.236-14.772-1.076-29.652-1.51-44.483-1.868l.05-5.355z" fill="#FBFF5C"/></g><path stroke="#240200" stroke-width="3" d="m274.5 284.5 12.763 55.778"/><g opacity=".2" fill="#E7EBF6" fill-rule="nonzero"><path d="M99.792 380.214 53.112 476.5 48 473.871l51.014-94.06z"/><path d="M104.34 393.33c-1.05-1.11-18.96-8.914-18.96-8.914L101.814 374l2.525 19.33z"/></g><path d="m72.46 253.892.079-6.894a8.381 8.381 0 0 1 7.863-9.525h.21a8.257 8.257 0 0 1 8.737 7.602l2.62 33.53a5.112 5.112 0 0 1-5.093 5.504h-1.485a5.732 5.732 0 0 1-5.723-5.33l-2.15-30.392a3.347 3.347 0 0 1 3.199-3.591 3.355 3.355 0 0 1 3.494 3.067l2.027 23.733a2.412 2.412 0 0 1-2.297 2.621" stroke="#FF7F5C" stroke-width="3"/><path fill="#0F66DE" fill-rule="nonzero" d="m175.922 452.4-31.208-21.705-34.65 4.107-18.697 27.752 32.964 27.753h46.06z"/><path d="M167.264 456.936a1625.694 1625.694 0 0 1-23.887 17.162c-8.02 5.636-16.058 11.237-24.35 16.541a153.122 153.122 0 0 1-6.342 3.863c-1.084.62-2.176 1.223-3.364 1.747-.632.313-1.29.57-1.966.77-.222.068-.45.117-.681.148a2.62 2.62 0 0 1-1.276-.114 1.992 1.992 0 0 1-1.048-.874 2.028 2.028 0 0 1-.262-1.11c.015-.353.098-.7.244-1.022.315-.666.701-1.296 1.154-1.878l1.1-1.503c.743-.997 1.494-1.975 2.255-2.945 1.511-1.94 3.04-3.854 4.578-5.767 3.066-3.82 6.115-7.612 9.156-11.439 1.503-1.922 2.988-3.854 4.368-5.802a72.164 72.164 0 0 0 2.062-2.962 22.852 22.852 0 0 0 1.748-2.98c.096-.213.177-.432.244-.656v-.174c.015.09.047.176.096.253a.874.874 0 0 0 .48.385h.07-.043a3.372 3.372 0 0 0-.594.166 18.766 18.766 0 0 0-3.006 1.572 67.326 67.326 0 0 0-5.827 4.221c-3.792 3.015-7.47 6.222-11.113 9.464-7.296 6.492-14.39 13.22-21.633 19.827l-2.752 2.447a33.524 33.524 0 0 1-2.962 2.376c-.191.13-.4.233-.62.306h-.166a.944.944 0 0 1-.856-.297.874.874 0 0 1-.21-.49 1.136 1.136 0 0 1 .096-.628c.146-.332.324-.648.533-.944.35-.542.717-1.04 1.092-1.538.743-.987 1.512-1.949 2.28-2.901 3.102-3.81 6.247-7.55 9.393-11.299a722.643 722.643 0 0 1 9.54-11.167c1.617-1.835 3.233-3.68 4.893-5.488.821-.874 1.651-1.8 2.507-2.691l1.294-1.32c.443-.461.916-.893 1.415-1.293l.48.725a14.53 14.53 0 0 0-1.258 1.206l-1.258 1.32c-.873.873-1.642 1.8-2.446 2.717-1.625 1.826-3.207 3.688-4.788 5.54-3.163 3.731-6.264 7.506-9.357 11.299-3.093 3.792-6.177 7.585-9.2 11.412-.743.961-1.494 1.923-2.202 2.901-.358.49-.699.979-1.013 1.468a4.92 4.92 0 0 0-.367.656v-.193a.725.725 0 0 0-.175-.375.734.734 0 0 0-.437-.254.56.56 0 0 0-.21 0h-.052c-.052 0 .105-.052.192-.113a32.685 32.685 0 0 0 2.788-2.141l2.734-2.517c7.112-6.693 14.119-13.536 21.336-20.168 3.617-3.312 7.26-6.597 11.078-9.726a70.219 70.219 0 0 1 5.985-4.482 21.701 21.701 0 0 1 3.494-1.862 5.59 5.59 0 0 1 1.171-.323c.137-.01.274-.01.41 0 .177-.005.354.015.525.061.233.046.453.141.646.28.232.16.426.368.568.611.182.35.27.742.254 1.136a2.98 2.98 0 0 1-.044.402l-.061.324a6.991 6.991 0 0 1-.376 1.075 25.054 25.054 0 0 1-1.878 3.399 91.364 91.364 0 0 1-2.088 3.102 231.551 231.551 0 0 1-4.369 5.95c-2.97 3.907-6.002 7.76-9.007 11.614a566.515 566.515 0 0 0-4.456 5.793c-.734.97-1.46 1.949-2.167 2.928l-1.04 1.468a7.725 7.725 0 0 0-.769 1.232v-.14a1.363 1.363 0 0 0-.874-1.276c-.384-.122-.366-.061-.366-.078a1.18 1.18 0 0 0 .21-.053 9.88 9.88 0 0 0 1.432-.594 47.442 47.442 0 0 0 3.093-1.704c2.062-1.223 4.098-2.534 6.116-3.862 8.1-5.374 16.04-11.08 23.939-16.822 7.898-5.74 15.726-11.587 23.528-17.476l2.639 3.574z" fill="#FFF" fill-rule="nonzero"/><path stroke="#E2F244" stroke-width="5" style="mix-blend-mode:multiply" d="m136.913 432-27.119 2.989-9.794 14.13"/><path d="m196.873 320.303.56 19.33a9.97 9.97 0 0 1-9.175 10.215l-34.213 2.7" stroke="#000" stroke-width="3" style="mix-blend-mode:multiply"/><path d="M190.137 292.917a1750.293 1750.293 0 0 1-23.86 17.163c-8.02 5.636-16.059 11.228-24.35 16.541-2.08 1.32-4.176 2.622-6.334 3.863-1.092.62-2.184 1.223-3.373 1.747-.635.305-1.292.562-1.965.77-.223.067-.451.117-.682.148a2.725 2.725 0 0 1-1.276-.114 2.07 2.07 0 0 1-1.048-.874 2.045 2.045 0 0 1-.262-1.11c.022-.355.104-.704.245-1.03.318-.664.708-1.291 1.162-1.87l1.1-1.504c.743-.996 1.494-1.974 2.246-2.944a368.089 368.089 0 0 1 4.578-5.768c3.067-3.818 6.116-7.61 9.156-11.447 1.503-1.914 2.988-3.845 4.369-5.802a74.364 74.364 0 0 0 2.053-2.954 22.852 22.852 0 0 0 1.747-2.98c.104-.21.186-.429.245-.655v-.175a.62.62 0 0 0 .096.245c.104.191.28.333.49.393h.06-.043a2.315 2.315 0 0 0-.595.166c-1.047.43-2.053.953-3.005 1.564a67.842 67.842 0 0 0-5.766 4.265c-3.8 3.014-7.48 6.221-11.122 9.463-7.296 6.493-14.39 13.221-21.633 19.819l-2.752 2.455c-.94.85-1.929 1.644-2.962 2.377a2.76 2.76 0 0 1-.611.306h-.175a.935.935 0 0 1-.874-.297.961.961 0 0 1-.21-.49 1.302 1.302 0 0 1 .097-.637c.15-.327.329-.64.533-.935.35-.542.725-1.04 1.092-1.538.751-.988 1.511-1.949 2.28-2.901 3.102-3.81 6.247-7.55 9.392-11.308a729.04 729.04 0 0 1 9.54-11.159c1.617-1.835 3.233-3.678 4.893-5.487.822-.874 1.66-1.81 2.508-2.692l1.293-1.32a16.13 16.13 0 0 1 1.415-1.301l.48.734a14.53 14.53 0 0 0-1.257 1.206l-1.258 1.32c-.822.873-1.643 1.8-2.447 2.717a362.552 362.552 0 0 0-4.787 5.54c-3.163 3.731-6.265 7.506-9.358 11.29a808.122 808.122 0 0 0-9.19 11.42c-.752.962-1.495 1.923-2.211 2.902-.35.49-.7.979-1.014 1.46-.139.21-.261.433-.367.663v-.192a.725.725 0 0 0-.174-.376.734.734 0 0 0-.437-.253.56.56 0 0 0-.21 0h-.052c.066-.037.13-.078.192-.122.95-.7 1.857-1.456 2.717-2.264l2.691-2.464c7.112-6.693 14.119-13.535 21.344-20.168 3.608-3.32 7.252-6.597 11.07-9.734a73.521 73.521 0 0 1 5.984-4.474 21.387 21.387 0 0 1 3.495-1.862 5.102 5.102 0 0 1 1.17-.323c.137-.014.275-.014.412 0a2.035 2.035 0 0 1 1.18.332c.227.162.417.37.558.612.187.351.275.747.254 1.145v.393l-.07.332a6.991 6.991 0 0 1-.376 1.075 25.596 25.596 0 0 1-1.878 3.399 76.88 76.88 0 0 1-2.089 3.102 231.553 231.553 0 0 1-4.368 5.95c-2.97 3.907-6.002 7.752-8.999 11.614a464.992 464.992 0 0 0-4.464 5.793c-.734.97-1.45 1.95-2.158 2.919l-1.066 1.494c-.293.387-.55.8-.77 1.232v-.14a1.224 1.224 0 0 0-.174-.672 1.433 1.433 0 0 0-.699-.612c-.376-.114-.367-.052-.367-.07l.219-.052c.488-.164.964-.363 1.424-.595a33.658 33.658 0 0 0 3.093-1.747 140.825 140.825 0 0 0 6.115-3.871c8.108-5.366 16.041-11.072 23.94-16.813 7.897-5.74 15.726-11.587 23.528-17.476l2.682 3.643z" fill="#FFF" fill-rule="nonzero"/></g></g><g class="uk-icon-alternate-default" version="1.1" xmlns:xlink="http://www.w3.org/1999/xlink"><defs><path id="activate-dialog-headline_default_a" d="M215.805 0h322v500h-322z"/></defs><g transform="translate(-217 -.325)" stroke="none" stroke-width="1" fill="none" fill-rule="evenodd"><mask id="activate-dialog-headline_default_b" fill="#fff"><use xlink:href="#activate-dialog-headline_default_a"/></mask><use fill="#F6F6F6" fill-rule="nonzero" transform="rotate(-180 376.805 250)" xlink:href="#activate-dialog-headline_default_a"/><path fill="#F5F5F5" fill-rule="nonzero" style="mix-blend-mode:multiply" mask="url(#activate-dialog-headline_default_b)" d="M311.6 142.104 150.36 298.817 73.32 312.982 0 293.82 234.06 97.224z"/><path d="m534.59 290.044 14.975 74.53c3.381 11.796-3.495 24.204-14.198 25.795l-20.094 2.97-10.109-26.546-8.011-29.798-10.817-30.986 48.254-15.965z" fill="#0F66DE" fill-rule="nonzero" mask="url(#activate-dialog-headline_default_b)"/><path fill="#0F66DE" fill-rule="nonzero" style="mix-blend-mode:multiply" mask="url(#activate-dialog-headline_default_b)" d="m542.012 322.29-45.082 19.906L486 323.793l52.805-17.468z"/><path d="M131.664 177.719c1.57-.41 3.202-.526 4.814-.34a12.37 12.37 0 0 1 3.783 1.057 19.788 19.788 0 0 1 3.137 1.94l3.023 2.08a991.806 991.806 0 0 1 12.056 8.397c8.012 5.627 15.901 11.412 23.782 17.223l11.751 8.808 11.664 8.887 23.406 17.748 94.113 70.3-7.339 2.123 25.494-61.448 25.59-61.404 1.075-2.622 2.674.48 78.054 14.2-1.249.114 65.37-23.017 65.42-22.92.385 1.057-64.714 24.834-64.775 24.643-.576.218-.673-.105-78.387-12.233 3.748-2.098-24.183 61.972-24.28 61.911-2.272 5.803-5.05-3.714-94.934-69.243-23.887-17.144-11.934-8.555-11.839-8.598c-7.863-5.82-15.726-11.666-23.467-17.66a1285.81 1285.81 0 0 1-11.576-9.045l-2.875-2.28a20.28 20.28 0 0 1-2.778-2.42 12.522 12.522 0 0 1-2.123-3.313 13.11 13.11 0 0 1-1.092-4.692l.664-.944z" fill="#E7EBF6" fill-rule="nonzero" mask="url(#activate-dialog-headline_default_b)"/><path fill="#141F38" fill-rule="nonzero" mask="url(#activate-dialog-headline_default_b)" d="m364.204 345.655-25.747-11.43 21.92-5.986zM352.19 271.589l-29.74-22.082-4.455 21.094-.358 2.106"/><path fill="#E2F244" fill-rule="nonzero" style="mix-blend-mode:multiply" mask="url(#activate-dialog-headline_default_b)" d="m339.05 253.867-19.867 11.587 12.319 11.264 13.131 63.72 21.947-8.328-8.859-59.123z"/><path fill="#E7EBF6" fill-rule="nonzero" mask="url(#activate-dialog-headline_default_b)" d="M490.779 329.605v-45.17l57.09 250.605-184.486-13.649-7.671-179.502-17.255-13.65-16.006-50.096v-28.636l57.203-6.056 102.13-9.402 36.716 10.946 31.579 62.371z"/><path d="m413.766 287.59-58.866 2.008 3.072 102.8 59.752-4.369c4.097-.41 7.173-4.37 6.99-9.053l-3.426-83.084c-.192-4.605-3.486-8.223-7.522-8.301z" fill="#D1D8ED" fill-rule="nonzero" mask="url(#activate-dialog-headline_default_b)"/><path d="M448.62 236.924s-3.792 11.5-24.08 13.107c-20.286 1.608-16.38-8.423-16.38-8.423l9.321-9.613 3.495-10.337 10.781-3.653 16.862 18.919z" fill="#0F66DE" fill-rule="nonzero" mask="url(#activate-dialog-headline_default_b)"/><path d="m430.517 216.747 6.037 7.096-.437.166a30.102 30.102 0 0 1-16.495 1.433l2.69-9.525 8.205.83z" fill="#0028C1" fill-rule="nonzero" mask="url(#activate-dialog-headline_default_b)"/><path fill="#0028C1" fill-rule="nonzero" mask="url(#activate-dialog-headline_default_b)" d="m423.842 222.104 22.183 11.945-13.368-15.03z"/><path d="m429.713 171.203-25.87 6.405 4.29 31.694a15.424 15.424 0 0 0 17.369 13.212 12.817 12.817 0 0 0 10.886-15.047l-6.675-36.264z" fill="#0F66DE" fill-rule="nonzero" mask="url(#activate-dialog-headline_default_b)"/><path fill="#1B1C67" fill-rule="nonzero" mask="url(#activate-dialog-headline_default_b)" d="m408.351 165.908 5.968-1.477 3.084-8.59 14.913 1.258 31.427-36.543 30.404 3.207v16.115l5.032 15.64-26.42 34.158-28.185 3.163-10.117 4.194-2.857-14.994-26.621 3.914-1.136-8.371z"/><path fill="#E2F244" fill-rule="nonzero" style="mix-blend-mode:multiply" mask="url(#activate-dialog-headline_default_b)" d="m280.016 293.976 12.852 16.63-4.115-22.24z"/><path fill="#E7EBF6" fill-rule="nonzero" style="mix-blend-mode:multiply" mask="url(#activate-dialog-headline_default_b)" d="m387.348 390.535 11.227 27.246 69.09 13.212-73.432-6.466z"/><path d="M435.864 366.945h33.757a6.3 6.3 0 0 1 0 12.601h-33.757a6.3 6.3 0 0 1 0-12.6z" fill="#0D50A1" fill-rule="nonzero" mask="url(#activate-dialog-headline_default_b)" transform="rotate(3.72 452.742 373.246)"/><path d="M456.483 347.603a7.498 7.498 0 0 1 3.87 9.56l-27.897 67.67-10.117 7.069-3.495-13.108 27.574-67.066a7.497 7.497 0 0 1 10.065-4.125z" fill="#FF827F" fill-rule="nonzero" mask="url(#activate-dialog-headline_default_b)"/><path d="m441.233 403.943-2.783 6.327a8.946 8.946 0 0 1-11.913-7.896l-.114-1.892 4.293-11.157 10.517 14.618z" fill="#F04E4A" opacity=".58" mask="url(#activate-dialog-headline_default_b)"/><path d="M418.792 418.768a18.781 18.781 0 0 1 8.387-.148c3.958 1.048 5.242 6.213 5.242 6.213l-10.117 7.069-3.512-13.134z" fill="#F5F5F5" fill-rule="nonzero" opacity=".3" mask="url(#activate-dialog-headline_default_b)"/><path d="M421.36 428.363a5.058 5.058 0 0 1 2.263-.044c1.066.28 1.416 1.678 1.416 1.678l-2.726 1.905-.953-3.54z" fill="#240200" fill-rule="nonzero" opacity=".3" mask="url(#activate-dialog-headline_default_b)"/><path d="M437.105 391.99h20.268a6.3 6.3 0 0 1 0 12.6h-20.269a6.3 6.3 0 0 1 0-12.6z" fill="#0F66DE" fill-rule="nonzero" mask="url(#activate-dialog-headline_default_b)" transform="rotate(-12.32 447.239 398.29)"/><path d="M432.36 382.144h22.767a6.3 6.3 0 0 1 0 12.6H432.36a6.3 6.3 0 0 1 0-12.6z" fill="#0F66DE" fill-rule="nonzero" mask="url(#activate-dialog-headline_default_b)" transform="rotate(-12.32 443.743 388.444)"/><path d="M430.443 373.072h28.399a6.3 6.3 0 0 1 0 12.6h-28.4a6.3 6.3 0 0 1 0-12.6z" fill="#0F66DE" fill-rule="nonzero" mask="url(#activate-dialog-headline_default_b)" transform="rotate(-12.32 444.642 379.372)"/><path fill="#0F66DE" fill-rule="nonzero" mask="url(#activate-dialog-headline_default_b)" d="m453 371.871 6.303 30.158 76.313-12.122-6.413-35.582z"/><path stroke="#240200" stroke-width="1.8" mask="url(#activate-dialog-headline_default_b)" d="m435.487 395.057 24.97-5.522M434 384.847l24.97-5.522"/><path d="m235.45 279.282 43.56-.003c7.038 0 12.744 5.704 12.744 12.742v.002c0 7.039-5.706 12.745-12.745 12.745l-43.561.003c-7.038 0-12.743-5.704-12.744-12.742v-.001c.001-7.04 5.707-12.745 12.746-12.746z" fill="#0D50A1" fill-rule="nonzero" mask="url(#activate-dialog-headline_default_b)" transform="rotate(152.57 257.23 292.025)"/><path d="M403.756 249.053 266.15 255.03c-4.525-.088-8.134 4.273-7.767 9.393l6.02 89.533c.35 4.789 4.071 8.345 8.3 7.926l135.01-12.417c4.09-.402 7.173-4.37 6.99-9.044l-3.425-83.084c-.227-4.58-3.486-8.197-7.522-8.284z" fill="#E2F244" fill-rule="nonzero" mask="url(#activate-dialog-headline_default_b)"/><path fill="#B2D6D5" fill-rule="nonzero" style="mix-blend-mode:multiply" mask="url(#activate-dialog-headline_default_b)" d="m295.41 344.562-30.937 12.47-1.372-19.416z"/><path d="m236.226 287.924 41.015-.001c7.039 0 12.744 5.705 12.745 12.743v.001c0 7.04-5.707 12.745-12.745 12.745l-41.016.002c-7.039 0-12.744-5.705-12.745-12.744 0-7.04 5.707-12.745 12.746-12.746z" fill="#0F66DE" fill-rule="nonzero" mask="url(#activate-dialog-headline_default_b)" transform="rotate(167.68 256.733 300.668)"/><path d="m240.77 307.841 46.075-.002c7.038 0 12.744 5.706 12.744 12.744 0 7.04-5.706 12.746-12.745 12.746l-46.075.002c-7.038 0-12.744-5.706-12.744-12.744 0-7.04 5.706-12.746 12.745-12.746z" fill="#0F66DE" fill-rule="nonzero" mask="url(#activate-dialog-headline_default_b)" transform="rotate(167.68 263.807 320.585)"/><path d="m244.531 324.985 46.075-.002c7.038 0 12.744 5.705 12.744 12.744 0 7.04-5.706 12.745-12.745 12.746l-46.075.001c-7.038 0-12.744-5.705-12.744-12.743 0-7.04 5.706-12.746 12.745-12.746z" fill="#0F66DE" fill-rule="nonzero" mask="url(#activate-dialog-headline_default_b)" transform="rotate(167.68 267.568 337.729)"/><path stroke="#240200" stroke-width="3.63" mask="url(#activate-dialog-headline_default_b)" d="m284.576 305.17-50.525 11.168M293.54 324.849l-50.525 11.167"/><path fill="#00E72F" fill-rule="nonzero" mask="url(#activate-dialog-headline_default_b)" d="m234.06 97.224-7.365 59.98 46.82 1.59 38.084-16.69 8.737-35.171z"/><path d="M215.669 126.638a1640.67 1640.67 0 0 1 30.02-13.554c10.065-4.369 20.138-8.738 30.421-12.723 2.621-.987 5.164-1.948 7.864-2.83 1.328-.438 2.62-.875 4.088-1.207.766-.195 1.546-.33 2.333-.402.262-.017.525-.017.786 0 .485.022.956.163 1.372.411.447.28.783.706.952 1.206.117.42.117.864 0 1.285a3.19 3.19 0 0 1-.498 1.066 11.193 11.193 0 0 1-1.65 1.79l-1.547 1.408a151.28 151.28 0 0 1-3.12 2.726 508.226 508.226 0 0 1-6.316 5.313c-4.211 3.495-8.449 6.99-12.599 10.486a172.473 172.473 0 0 0-6.115 5.383 60.456 60.456 0 0 0-2.988 2.822 26.266 26.266 0 0 0-2.551 2.884 5.811 5.811 0 0 0-.411.664l-.061.131v.061a.577.577 0 0 0 0-.297.874.874 0 0 0-.455-.542h-.07.053c.228.013.458-.004.681-.052a20.966 20.966 0 0 0 3.652-1.049 76.292 76.292 0 0 0 7.34-3.338c4.84-2.464 9.61-5.164 14.32-7.864 9.452-5.505 18.74-11.299 28.167-16.935 1.18-.699 2.367-1.398 3.564-2.08a36.422 36.422 0 0 1 3.783-1.94c.238-.1.487-.167.743-.2h.14c.122.012.242.038.358.078.423.153.69.574.646 1.022-.02.246-.108.482-.253.682-.236.314-.5.606-.786.874-.516.515-1.031.979-1.547 1.442-1.04.926-2.096 1.809-3.154 2.682-4.254 3.496-8.536 6.895-12.825 10.312-4.29 3.416-8.65 6.79-13.018 10.084-2.184 1.66-4.369 3.32-6.588 4.937-1.11.812-2.219 1.616-3.355 2.394-.559.402-1.136.778-1.747 1.162-.595.407-1.213.778-1.852 1.11l-.359-.874c.481-.262 1.11-.673 1.652-1.04a58.712 58.712 0 0 0 1.668-1.17 120.425 120.425 0 0 0 3.303-2.439 311.72 311.72 0 0 0 6.491-5.015 903.295 903.295 0 0 0 12.791-10.312c4.238-3.469 8.475-6.99 12.642-10.486 1.031-.873 2.062-1.747 3.067-2.691.498-.454.987-.874 1.442-1.38.196-.205.38-.42.55-.647 0 0 0-.123-.052.218a.874.874 0 0 0 .533.822c.071.03.148.049.227.052h.166a2.254 2.254 0 0 0-.245.087 36.99 36.99 0 0 0-3.495 1.87 185.98 185.98 0 0 0-3.494 2.115c-9.366 5.759-18.549 11.683-27.95 17.354-4.709 2.832-9.444 5.62-14.328 8.206a79.263 79.263 0 0 1-7.575 3.582c-1.363.556-2.776.98-4.22 1.267a4.411 4.411 0 0 1-.629.079 4.84 4.84 0 0 1-.725 0c-.155-.01-.31-.03-.463-.061a2.332 2.332 0 0 1-.56-.184 2 2 0 0 1-.646-.445 2.21 2.21 0 0 1-.489-.804 2.42 2.42 0 0 1 0-1.302c.032-.146.076-.29.131-.428l.149-.35a7.07 7.07 0 0 1 .629-1.057 29.01 29.01 0 0 1 2.822-3.32 104.282 104.282 0 0 1 2.979-2.928c2.018-1.905 4.071-3.74 6.116-5.558 4.132-3.635 8.326-7.183 12.476-10.74 2.08-1.747 4.15-3.564 6.186-5.373a196.952 196.952 0 0 0 3.031-2.727l1.468-1.398a9.655 9.655 0 0 0 1.145-1.162c.052-.061 0-.079-.044.149a1.407 1.407 0 0 0 0 .777c.12.337.347.626.647.822.393.21.393.14.384.157h-.245a12.23 12.23 0 0 0-1.703.34 53.05 53.05 0 0 0-3.775 1.172c-2.533.874-5.067 1.87-7.592 2.883-10.1 4.09-20.095 8.581-30.037 13.108-9.943 4.526-19.868 9.201-29.706 13.929l-2.14-4.5z" fill="#E2F244" fill-rule="nonzero" mask="url(#activate-dialog-headline_default_b)"/><g mask="url(#activate-dialog-headline_default_b)" fill-rule="nonzero"><path fill="#F68CBC" d="M283 390.325h-82.952L188 425.708l80.035 12.617z"/><path d="M208.937 395.325c14.9.63 29.8 1.36 44.641 2.733 3.735.383 7.43.73 11.255 1.509.477.111.993.223 1.48.383.28.079.555.178.824.297.17.07.336.152.497.248.297.162.567.393.795.68a2.822 2.822 0 0 1 .556 1.558c.02.201.02.405 0 .606a2.768 2.768 0 0 1-.12.47c-.05.137-.11.27-.178.396l-.139.222a2.635 2.635 0 0 1-.834.767 5.062 5.062 0 0 1-.924.42c-.547.186-.994.31-1.52.421-1.927.433-3.795.68-5.662.915l-22.271 2.77c-7.38.953-14.801 1.843-22.043 3.315a28.42 28.42 0 0 0-5.185 1.497 4.68 4.68 0 0 0-.506.272c-.14.074-.229.198-.18.111a.57.57 0 0 0 .09-.185 1.32 1.32 0 0 0 .07-.409 1.082 1.082 0 0 0-.16-.58c-.089-.1.06 0 .18.123.752.423 1.537.746 2.344.965 3.579.99 7.2 1.72 10.847 2.189 7.341 1.026 14.752 1.533 22.162 1.83 7.41.297 14.9.371 22.26.235v1.966c-7.45.289-14.896.35-22.34.186-7.45-.148-14.9-.52-22.36-1.41a80.99 80.99 0 0 1-11.175-2.04 11.713 11.713 0 0 1-2.98-1.237c-.14-.112-.268-.174-.437-.322l-.229-.223-.278-.346a2.506 2.506 0 0 1-.01-2.758 3.29 3.29 0 0 1 .934-.903c.25-.169.51-.317.775-.445a29.176 29.176 0 0 1 5.632-1.756c7.41-1.657 14.791-2.684 22.192-3.785l22.25-3.153c1.828-.272 3.656-.557 5.385-.977.417-.112.844-.223 1.192-.359.131-.048.26-.106.387-.173a1.174 1.174 0 0 0-.228.247l-.09.149a1.994 1.994 0 0 0-.228.667c-.02.169-.02.34 0 .508.007.282.068.557.178.803.059.137.132.262.219.371.199.248.238.223.209.223l-.15-.074-.516-.173a11.64 11.64 0 0 0-1.252-.285c-3.526-.655-7.261-.952-10.926-1.236-14.772-1.076-29.652-1.51-44.483-1.868l.05-5.355z" fill="#FBFF5C"/></g><path stroke="#240200" stroke-width="3" mask="url(#activate-dialog-headline_default_b)" d="m491.5 284.825 12.763 55.777"/><path fill="#E7EBF6" fill-rule="nonzero" mask="url(#activate-dialog-headline_default_b)" d="m316.792 380.539-46.68 96.287-5.112-2.63 51.014-94.06z"/><path d="M321.34 393.654c-1.05-1.11-18.96-8.913-18.96-8.913l16.434-10.416 2.525 19.329z" fill="#E7EBF6" fill-rule="nonzero" mask="url(#activate-dialog-headline_default_b)"/><path d="m289.46 254.217.079-6.895a8.381 8.381 0 0 1 7.863-9.524h.21a8.257 8.257 0 0 1 8.737 7.602l2.62 33.529a5.112 5.112 0 0 1-5.093 5.505h-1.485a5.732 5.732 0 0 1-5.723-5.33l-2.15-30.392a3.347 3.347 0 0 1 3.199-3.592 3.355 3.355 0 0 1 3.494 3.068l2.027 23.733a2.412 2.412 0 0 1-2.297 2.621" stroke="#FF7F5C" stroke-width="3" mask="url(#activate-dialog-headline_default_b)"/><path fill="#0F66DE" fill-rule="nonzero" mask="url(#activate-dialog-headline_default_b)" d="m392.922 452.725-31.208-21.706-34.65 4.107-18.697 27.753 32.964 27.753h46.06z"/><path d="M384.264 457.26a1625.694 1625.694 0 0 1-23.887 17.163c-8.02 5.636-16.058 11.237-24.35 16.541a153.121 153.121 0 0 1-6.342 3.863c-1.084.62-2.176 1.223-3.364 1.747-.632.312-1.29.57-1.966.77-.222.068-.45.117-.681.148a2.62 2.62 0 0 1-1.276-.114 1.992 1.992 0 0 1-1.048-.874 2.028 2.028 0 0 1-.262-1.11c.015-.353.098-.7.244-1.022.315-.666.701-1.296 1.154-1.879l1.1-1.503c.743-.996 1.494-1.974 2.255-2.944 1.511-1.94 3.04-3.854 4.578-5.768 3.066-3.818 6.115-7.61 9.156-11.438 1.503-1.923 2.988-3.854 4.368-5.802a72.164 72.164 0 0 0 2.062-2.963 22.852 22.852 0 0 0 1.748-2.98c.096-.212.177-.431.244-.655v-.175c.015.09.047.177.096.254a.874.874 0 0 0 .48.384h.07-.043a3.372 3.372 0 0 0-.594.166 18.766 18.766 0 0 0-3.006 1.573 67.326 67.326 0 0 0-5.827 4.22c-3.792 3.016-7.47 6.223-11.113 9.464-7.296 6.493-14.39 13.222-21.633 19.828l-2.752 2.446a33.524 33.524 0 0 1-2.962 2.377c-.191.13-.4.233-.62.306h-.166a.944.944 0 0 1-.856-.297.874.874 0 0 1-.21-.49 1.136 1.136 0 0 1 .096-.628c.146-.332.324-.648.533-.944.35-.542.717-1.04 1.092-1.538a107.54 107.54 0 0 1 2.28-2.901c3.102-3.81 6.247-7.55 9.393-11.299a722.637 722.637 0 0 1 9.54-11.167c1.617-1.836 3.233-3.68 4.893-5.488.821-.874 1.651-1.8 2.507-2.692l1.294-1.319c.443-.461.916-.893 1.415-1.293l.48.725a14.53 14.53 0 0 0-1.258 1.206l-1.258 1.32c-.873.873-1.642 1.8-2.446 2.717-1.625 1.826-3.207 3.688-4.788 5.54-3.163 3.731-6.264 7.506-9.357 11.299-3.093 3.792-6.177 7.585-9.2 11.412-.743.961-1.494 1.922-2.202 2.901-.358.49-.699.979-1.013 1.468a4.92 4.92 0 0 0-.367.655v-.192a.725.725 0 0 0-.175-.376.734.734 0 0 0-.437-.253.56.56 0 0 0-.21 0h-.052c-.052 0 .105-.052.192-.114a32.685 32.685 0 0 0 2.788-2.14l2.734-2.517c7.112-6.694 14.119-13.536 21.336-20.168 3.617-3.312 7.26-6.598 11.078-9.726a70.219 70.219 0 0 1 5.985-4.483 21.701 21.701 0 0 1 3.494-1.86 5.59 5.59 0 0 1 1.171-.324c.137-.01.274-.01.41 0 .177-.006.354.015.525.061.233.046.453.141.646.28.232.16.426.368.568.611.182.35.27.742.254 1.136a2.98 2.98 0 0 1-.044.402l-.061.324a6.991 6.991 0 0 1-.376 1.074 25.054 25.054 0 0 1-1.878 3.4 91.364 91.364 0 0 1-2.088 3.102 231.553 231.553 0 0 1-4.369 5.95c-2.97 3.907-6.002 7.76-9.007 11.614a566.515 566.515 0 0 0-4.456 5.793c-.734.97-1.46 1.949-2.167 2.928l-1.04 1.468a7.725 7.725 0 0 0-.769 1.232v-.14a1.363 1.363 0 0 0-.874-1.276c-.384-.122-.366-.061-.366-.079a1.18 1.18 0 0 0 .21-.052 9.88 9.88 0 0 0 1.432-.594 47.441 47.441 0 0 0 3.093-1.704c2.062-1.224 4.098-2.534 6.116-3.863 8.1-5.374 16.04-11.08 23.939-16.82 7.898-5.742 15.726-11.588 23.528-17.477l2.639 3.574z" fill="#FFF" fill-rule="nonzero" mask="url(#activate-dialog-headline_default_b)"/><path stroke="#E2F244" stroke-width="5" style="mix-blend-mode:multiply" mask="url(#activate-dialog-headline_default_b)" d="m353.913 432.325-27.119 2.988-9.794 14.13"/><path d="m413.873 320.628.56 19.33a9.97 9.97 0 0 1-9.175 10.214l-34.213 2.7" stroke="#000" stroke-width="3" style="mix-blend-mode:multiply" mask="url(#activate-dialog-headline_default_b)"/><path d="M407.137 293.242a1750.293 1750.293 0 0 1-23.86 17.162c-8.02 5.637-16.059 11.23-24.35 16.542-2.08 1.32-4.176 2.622-6.334 3.862-1.092.62-2.184 1.224-3.373 1.748-.635.305-1.292.562-1.965.769-.223.068-.451.118-.682.149a2.725 2.725 0 0 1-1.276-.114 2.07 2.07 0 0 1-1.048-.874 2.045 2.045 0 0 1-.262-1.11c.022-.355.104-.704.245-1.03.318-.664.708-1.291 1.162-1.87l1.1-1.504c.743-.996 1.494-1.975 2.246-2.945a368.08 368.08 0 0 1 4.578-5.767c3.067-3.819 6.116-7.61 9.156-11.447 1.503-1.914 2.988-3.845 4.369-5.802a74.364 74.364 0 0 0 2.053-2.954 22.852 22.852 0 0 0 1.747-2.98c.104-.21.186-.429.245-.655v-.174a.62.62 0 0 0 .096.244c.104.191.28.333.49.393h.06-.043a2.315 2.315 0 0 0-.595.166c-1.047.43-2.053.953-3.005 1.564a67.842 67.842 0 0 0-5.766 4.265c-3.8 3.014-7.48 6.221-11.122 9.463-7.296 6.493-14.39 13.221-21.633 19.819l-2.752 2.455c-.94.85-1.929 1.643-2.962 2.377a2.76 2.76 0 0 1-.611.306h-.175a.935.935 0 0 1-.874-.297.961.961 0 0 1-.21-.49 1.302 1.302 0 0 1 .097-.637c.15-.327.329-.64.533-.935.35-.542.725-1.04 1.092-1.538.751-.988 1.511-1.95 2.28-2.902 3.102-3.81 6.247-7.55 9.392-11.307a729.045 729.045 0 0 1 9.54-11.159c1.617-1.835 3.233-3.679 4.893-5.487.822-.874 1.66-1.81 2.508-2.692l1.293-1.32a16.13 16.13 0 0 1 1.415-1.301l.48.734a14.53 14.53 0 0 0-1.257 1.206l-1.258 1.32c-.822.873-1.643 1.8-2.447 2.717a362.552 362.552 0 0 0-4.787 5.54c-3.163 3.731-6.265 7.506-9.358 11.29a808.116 808.116 0 0 0-9.19 11.42 115.51 115.51 0 0 0-2.211 2.902c-.35.49-.7.978-1.014 1.46-.139.21-.261.433-.367.663v-.192a.725.725 0 0 0-.174-.376.734.734 0 0 0-.437-.253.56.56 0 0 0-.21 0h-.052c.066-.037.13-.078.192-.123.95-.7 1.857-1.455 2.717-2.263l2.691-2.464c7.112-6.694 14.119-13.536 21.344-20.168 3.608-3.32 7.252-6.597 11.07-9.734a73.521 73.521 0 0 1 5.984-4.475 21.387 21.387 0 0 1 3.495-1.86 5.102 5.102 0 0 1 1.17-.324c.137-.014.275-.014.412 0a2.035 2.035 0 0 1 1.18.332c.227.162.417.37.558.612.187.351.275.747.254 1.144v.394l-.07.332a6.991 6.991 0 0 1-.376 1.074 25.596 25.596 0 0 1-1.878 3.4 76.88 76.88 0 0 1-2.089 3.102 231.551 231.551 0 0 1-4.368 5.95c-2.97 3.907-6.002 7.751-8.999 11.614a464.992 464.992 0 0 0-4.464 5.793c-.734.97-1.45 1.949-2.158 2.919l-1.066 1.494c-.293.387-.55.799-.77 1.232v-.14a1.224 1.224 0 0 0-.174-.672 1.433 1.433 0 0 0-.699-.612c-.376-.114-.367-.053-.367-.07l.219-.052c.488-.165.964-.363 1.424-.595a33.658 33.658 0 0 0 3.093-1.747 140.826 140.826 0 0 0 6.115-3.871c8.108-5.366 16.041-11.072 23.94-16.813 7.897-5.741 15.726-11.587 23.528-17.477l2.682 3.644z" fill="#FFF" fill-rule="nonzero" mask="url(#activate-dialog-headline_default_b)"/></g></g></svg>