<svg xmlns="http://www.w3.org/2000/svg" viewBox="0 0 24 24" width="24" height="24"><g class="uk-icon-alternate-dark" version="1.1"><g fill-rule="nonzero" stroke="none" stroke-width="1" fill="none"><path fill="none" d="M0 0h24v24H0z"/><path d="M15 17.25v1.25a.5.5 0 0 0 .5.5H20a1 1 0 0 0 1-1v-3.5a.5.5 0 0 0-.5-.5h-1.25v3.25H15ZM19.25 11h1.25a.5.5 0 0 0 .5-.5V7a1 1 0 0 0-1-1h-4.5a.5.5 0 0 0-.5.5v1.25h4.25V11Zm-14.5 3H3.5a.5.5 0 0 0-.5.5V18a1 1 0 0 0 1 1h4.5a.5.5 0 0 0 .5-.5v-1.25H4.75V14ZM9 7.75V6.5a.5.5 0 0 0-.5-.5H4a1 1 0 0 0-1 1v3.5a.5.5 0 0 0 .5.5h1.25V7.75H9Z" fill="#EEE"/><path fill="#EEE" opacity=".2" d="M5.75 8.75h12.5v7.5H5.75z"/></g></g><g class="uk-icon-alternate-default" version="1.1"><g fill-rule="nonzero" stroke="none" stroke-width="1" fill="none"><path fill="none" d="M0 0h24v24H0z"/><path d="M15 17.25v1.25a.5.5 0 0 0 .5.5H20a1 1 0 0 0 1-1v-3.5a.5.5 0 0 0-.5-.5h-1.25v3.25H15ZM19.25 11h1.25a.5.5 0 0 0 .5-.5V7a1 1 0 0 0-1-1h-4.5a.5.5 0 0 0-.5.5v1.25h4.25V11Zm-14.5 3H3.5a.5.5 0 0 0-.5.5V18a1 1 0 0 0 1 1h4.5a.5.5 0 0 0 .5-.5v-1.25H4.75V14ZM9 7.75V6.5a.5.5 0 0 0-.5-.5H4a1 1 0 0 0-1 1v3.5a.5.5 0 0 0 .5.5h1.25V7.75H9Z" fill="#343638"/><path fill="#363A40" opacity=".2" d="M5.75 8.75h12.5v7.5H5.75z"/></g></g></svg>