<svg xmlns="http://www.w3.org/2000/svg" viewBox="0 0 24 24" width="24" height="24"><g class="uk-icon-alternate-dark" version="1.1"><g stroke="none" stroke-width="1" fill="none" fill-rule="evenodd"><path d="M0 0h24v24H0z"/><path d="M13 15a.5.5 0 0 0-.5.5v1a.5.5 0 0 0 .5.5h7a.5.5 0 0 0 .5-.5v-1a.5.5 0 0 0-.5-.5h-7Zm0-4a.5.5 0 0 0-.5.5v1a.5.5 0 0 0 .5.5h7a.5.5 0 0 0 .5-.5v-1a.5.5 0 0 0-.5-.5h-7Zm-2.5 2.003H6.907l1.249-1.229a.503.503 0 0 0-.006-.718l-.752-.718a.5.5 0 0 0-.697.007L3 14.007l3.703 3.656a.5.5 0 0 0 .695.007l.751-.712a.503.503 0 0 0 .008-.718l-1.25-1.237H10.5a.5.5 0 0 0 .5-.5v-1a.5.5 0 0 0-.5-.5Z" fill="#EEE" fill-rule="nonzero"/><path d="M13 7a.5.5 0 0 0-.5.5v1a.5.5 0 0 0 .5.5h7a.5.5 0 0 0 .5-.5v-1A.5.5 0 0 0 20 7h-7Z" fill="#EEE" fill-rule="nonzero" opacity=".2"/></g></g><g class="uk-icon-alternate-default" version="1.1"><g stroke="none" stroke-width="1" fill="none" fill-rule="evenodd"><path d="M0 0h24v24H0z"/><path d="M13 15a.5.5 0 0 0-.5.5v1a.5.5 0 0 0 .5.5h7a.5.5 0 0 0 .5-.5v-1a.5.5 0 0 0-.5-.5h-7Zm0-4a.5.5 0 0 0-.5.5v1a.5.5 0 0 0 .5.5h7a.5.5 0 0 0 .5-.5v-1a.5.5 0 0 0-.5-.5h-7Zm-2.5 2.003H6.907l1.249-1.229a.503.503 0 0 0-.006-.718l-.752-.718a.5.5 0 0 0-.697.007L3 14.007l3.703 3.656a.5.5 0 0 0 .695.007l.751-.712a.503.503 0 0 0 .008-.718l-1.25-1.237H10.5a.5.5 0 0 0 .5-.5v-1a.5.5 0 0 0-.5-.5Z" fill="#343638" fill-rule="nonzero"/><path d="M13 7a.5.5 0 0 0-.5.5v1a.5.5 0 0 0 .5.5h7a.5.5 0 0 0 .5-.5v-1A.5.5 0 0 0 20 7h-7Z" fill="#363A40" fill-rule="nonzero" opacity=".2"/></g></g></svg>