<svg width="40" height="12" viewBox="0 0 40 12" fill="none" xmlns="http://www.w3.org/2000/svg">
<path fill-rule="evenodd" clip-rule="evenodd" d="M0 5.25H1.85708V6.75H0V5.25ZM3.75708 5.25H5.61416V6.75H3.75708V5.25ZM9.37124 5.25H7.51416V6.75H9.37124V5.25ZM11.2712 5.25H13.1283V6.75H11.2712V5.25ZM16.8854 5.25H15.0283V6.75H16.8854V5.25ZM18.7854 5.25H20.6425V6.75H18.7854V5.25ZM24.3996 5.25H22.5425V6.75H24.3996V5.25ZM26.2996 5.25H28.1566V6.75H26.2996V5.25ZM31.9137 5.25H30.0566V6.75H31.9137V5.25ZM33.8137 5.25H35.6708V6.75H33.8137V5.25ZM39.4279 5.25H37.5708V6.75H39.4279V5.25Z" fill="#27292A"/>
</svg>
