<?xml version="1.0" encoding="UTF-8"?>
<svg width="48px" height="48px" viewBox="0 0 48 48" version="1.1" xmlns="http://www.w3.org/2000/svg" xmlns:xlink="http://www.w3.org/1999/xlink">
    <!-- Generator: Sketch 51.2 (57519) - http://www.bohemiancoding.com/sketch -->
    <title>boundary-shape-tension-popover</title>
    <desc>Created with Sketch.</desc>
    <defs></defs>
    <g id="boundary-shape-tension-popover" stroke="none" stroke-width="1" fill="none" fill-rule="evenodd">
        <path d="M9.58328454,19.5646321 C9.46777815,18.3971346 9.21940269,16.8905271 8.83558826,15.0345773 L8.52371601,13.5265068 L10.0282343,13.8550883 C11.9635663,14.277758 13.5295256,14.57373 14.7334318,14.7448339 C16.8920794,15.0516293 19.7538172,14.213277 23.5605527,12.1313089 L24.0374125,11.8705061 L24.5156319,12.1288075 C28.3581037,14.2042477 31.2601249,15.0360552 33.4545252,14.7178496 C34.5827947,14.5542415 36.0363339,14.2789803 37.8212343,13.8905119 L39.3755763,13.5522227 L39.0066283,15.0995739 C38.6240122,16.704249 38.3685933,18.0203578 38.237753,19.0566204 C38.0912999,20.2165376 38.4084704,21.6536371 39.2394162,23.5243019 L39.4311119,23.9558563 L39.219644,24.3780741 C38.3817943,26.0509286 38.0533665,27.3390746 38.1742745,28.4120574 C38.3064755,29.5852583 38.5908476,31.0943232 39.0307477,32.9509154 L39.3930029,34.4798082 L37.8545423,34.1606199 C36.0440173,33.7849858 34.5707036,33.5195609 33.4285523,33.36288 C31.2631045,33.0658227 28.3362233,33.7855847 24.4366946,35.5951923 L24.009774,35.7933083 L23.5850219,35.5905848 C19.7885125,33.7786058 16.9233505,33.053274 14.7821563,33.3408013 C13.5646651,33.5042904 11.9772887,33.788573 10.0128573,34.1953416 L8.52010125,34.5044419 L8.83112678,33.0120859 C9.19832707,31.2501932 9.43917864,29.8167709 9.55606491,28.7024501 C9.67302796,27.5873973 9.32636808,26.2346961 8.45720354,24.4814422 L8.23029142,24.0237216 L8.46819122,23.5716143 C9.33922429,21.916294 9.68942143,20.6374261 9.58328454,19.5646321 Z" id="-" stroke="#3B99FC" stroke-width="2" fill-opacity="0.5" fill="#3B99FC"></path>
        <path d="M10.5784261,19.4661777 C10.7104009,20.8001322 10.2796703,22.2765147 9.3531509,24.037282 C10.2733139,25.8934085 10.6941259,27.4385663 10.5506085,28.8067724 C10.4294335,29.961979 10.1826651,31.4284408 9.81009174,33.2161143 C11.792265,32.8056719 13.4027639,32.5170553 14.6490672,32.3496972 C17.0644679,32.0253485 20.1331008,32.8350117 24.0157532,34.6881045 C27.9994535,32.8394363 31.1278457,32.0379025 33.56446,32.3721585 C34.7341208,32.5326131 36.2296978,32.8022137 38.0576887,33.1814716 C37.6105832,31.2944692 37.3182723,29.7461118 37.1805636,28.5240327 C37.0305207,27.1924962 37.4354505,25.7073714 38.3255212,23.9302524 C37.450355,21.9600366 37.0683771,20.3352068 37.24563,18.9313533 C37.381942,17.8517538 37.6445842,16.5003997 38.0338974,14.8676375 C36.2309833,15.2600264 34.7545657,15.5397923 33.5980322,15.7074989 C31.0991785,16.0698527 27.9743021,15.1334927 24.0403934,13.0086645 C20.1434744,15.1399555 17.0582017,16.0852883 14.592722,15.7348847 C13.3588079,15.559516 11.7687547,15.2587825 9.81486701,14.8320604 C10.2042078,16.7147331 10.4586827,18.2558534 10.5784261,19.4661777 Z M8.58814297,19.6630864 C8.47656624,18.5353084 8.23358765,17.0614376 7.8563095,15.2370943 L7.23256501,12.2209533 L10.2416015,12.8781162 C12.1548454,13.2959619 13.6980286,13.5876292 14.8741417,13.754783 C16.7736448,14.0247478 19.4458554,13.2419179 23.080712,11.2539532 L24.0344317,10.7323478 L24.9908704,11.2489505 C28.661678,13.2316694 31.3739538,14.0090901 33.3110181,13.7282003 C34.4129637,13.5684094 35.8447291,13.2972716 37.6085713,12.9133864 L40.7172551,12.2368078 L39.9793593,15.3315103 C39.6044698,16.9037801 39.3556013,18.1861365 39.2298761,19.1818875 C39.1099696,20.1315535 39.3898147,21.3995316 40.1533113,23.1183514 L40.5367027,23.9814603 L40.1137669,24.8258958 C39.354903,26.341047 39.072185,27.449912 39.1679855,28.300082 C39.2950762,29.427932 39.5724175,30.8996871 40.0038067,32.7203592 L40.7283172,35.7781448 L37.651396,35.1397683 C35.8613536,34.7683838 34.409204,34.5067717 33.2926446,34.3536015 C31.3563144,34.0879747 28.5991484,34.7660012 24.857636,36.5022802 L24.0037948,36.8985121 L23.1542907,36.493065 C19.5171477,34.7571476 16.8245902,34.0755116 14.9152453,34.3319054 C13.7244123,34.4918148 12.1588627,34.7721884 10.2156228,35.174569 L7.23011076,35.7927695 L7.85216182,32.8080574 C8.21304638,31.0764688 8.44862028,29.6744564 8.56152137,28.5981278 C8.65553584,27.7018525 8.35372037,26.5241386 7.56125617,24.9256025 L7.10743195,24.0101612 L7.58323154,23.1059467 C8.37120623,21.6084713 8.67195157,20.5101941 8.58814297,19.6630864 Z" id="-" fill="#3B99FC" fill-rule="nonzero"></path>
    </g>
</svg>