<?xml version="1.0" encoding="UTF-8"?>
<svg width="40px" height="40px" viewBox="0 0 40 40" version="1.1" xmlns="http://www.w3.org/2000/svg" xmlns:xlink="http://www.w3.org/1999/xlink">
    <g id="Icons/Format-Panel-Icons/Shape/Shape-punctuation-double-quotes" stroke="none" stroke-width="1" fill="none" fill-rule="evenodd">
        <path d="M7.05755102,23.9818594 C7.54734694,23.9818594 7.9555102,23.8185941 8.28204082,23.5328798 C8.60857143,23.2267574 8.77183673,22.8390023 8.77183673,22.3696145 C8.77183673,21.9002268 8.60857143,21.5124717 8.32285714,21.2063492 C7.99632653,20.9002268 7.62897959,20.7573696 7.20040816,20.7573696 C6.9555102,20.7573696 6.7922449,20.7777778 6.69020408,20.8390023 C6.66979592,20.3492063 6.85346939,19.8594104 7.22081633,19.4104308 C7.58816327,18.9206349 8.05755102,18.5941043 8.62897959,18.4104308 L8.62897959,17.0634921 C7.54734694,17.3492063 6.69020408,17.9002268 6.07795918,18.7165533 C5.44530612,19.5124717 5.13918367,20.4512472 5.13918367,21.553288 C5.13918367,22.2471655 5.30244898,22.8390023 5.66979592,23.2879819 C6.03714286,23.7369615 6.48612245,23.9818594 7.05755102,23.9818594 Z M2.09836735,23.9818594 C2.58816327,23.9818594 3.01673469,23.8185941 3.34326531,23.5328798 C3.64938776,23.2267574 3.81265306,22.8390023 3.81265306,22.3696145 C3.81265306,21.9002268 3.64938776,21.5124717 3.34326531,21.2063492 C3.03714286,20.9002268 2.66979592,20.7573696 2.24122449,20.7573696 C1.99632653,20.7573696 1.83306122,20.7777778 1.73102041,20.8390023 C1.71061224,20.3492063 1.89428571,19.8594104 2.28204082,19.4104308 C2.64938776,18.9206349 3.09836735,18.5941043 3.66979592,18.4104308 L3.66979592,17.0634921 C2.58816327,17.3492063 1.73102041,17.9002268 1.11877551,18.7165533 C0.486122449,19.5124717 0.18,20.4512472 0.18,21.553288 C0.18,22.2471655 0.363673469,22.8390023 0.731020408,23.2879819 C1.07795918,23.7369615 1.52693878,23.9818594 2.09836735,23.9818594 Z" id="“" fill="#000000" fill-rule="nonzero"></path>
        <path d="M36.3310658,23.9818594 C37.3922902,23.675737 38.2494331,23.1247166 38.8820862,22.3287982 C39.4943311,21.5124717 39.8208617,20.5736961 39.8208617,19.4920635 C39.8208617,18.7777778 39.6371882,18.185941 39.2902494,17.7369615 C38.9229025,17.2879819 38.4535147,17.0634921 37.9024943,17.0634921 C37.3922902,17.0634921 36.984127,17.2063492 36.6780045,17.5124717 C36.3514739,17.7981859 36.1882086,18.185941 36.1882086,18.675737 C36.1882086,19.1247166 36.3310658,19.5124717 36.6371882,19.8185941 C36.9433107,20.1247166 37.3106576,20.2879819 37.7596372,20.2879819 C37.984127,20.2879819 38.1473923,20.2471655 38.2698413,20.2063492 C38.2698413,20.6961451 38.106576,21.1655329 37.739229,21.6553288 C37.3514739,22.1043084 36.8820862,22.430839 36.3310658,22.6349206 L36.3310658,23.9818594 Z M31.3718821,23.9818594 C32.4331066,23.675737 33.2902494,23.1247166 33.9229025,22.3287982 C34.5351474,21.5124717 34.861678,20.5736961 34.861678,19.4920635 C34.861678,18.7777778 34.6780045,18.185941 34.3106576,17.7369615 C33.9433107,17.2879819 33.4943311,17.0634921 32.9433107,17.0634921 C32.4331066,17.0634921 32.0249433,17.2063492 31.6984127,17.5124717 C31.3718821,17.7981859 31.2290249,18.185941 31.2290249,18.675737 C31.2290249,19.1247166 31.3718821,19.5124717 31.6984127,19.8185941 C31.984127,20.1247166 32.3514739,20.2879819 32.8004535,20.2879819 C33.0249433,20.2879819 33.1882086,20.2471655 33.3106576,20.2063492 C33.3106576,20.6961451 33.1269841,21.1655329 32.7596372,21.6553288 C32.3922902,22.1043084 31.9229025,22.430839 31.3718821,22.6349206 L31.3718821,23.9818594 Z" id="”" fill="#000000" fill-rule="nonzero"></path>
    </g>
</svg>