<svg width="72" height="12" viewBox="0 0 72 12" fill="none" xmlns="http://www.w3.org/2000/svg">
<path d="M4.5415 5.25H0.0415039V6.75H4.5415V5.25Z" fill="#27292A"/>
<path d="M8.5015 5.25H6.5015V6.75H8.5015V5.25Z" fill="#27292A"/>
<path d="M15.0015 5.25H10.5015V6.75H15.0015V5.25Z" fill="#27292A"/>
<path d="M18.9615 5.25H16.9615V6.75H18.9615V5.25Z" fill="#27292A"/>
<path d="M20.9614 5.25H25.4614V6.75H20.9614V5.25Z" fill="#27292A"/>
<path d="M27.4214 5.25H29.4214V6.75H27.4214V5.25Z" fill="#27292A"/>
<path d="M35.9214 5.25H31.4214V6.75H35.9214V5.25Z" fill="#27292A"/>
<path d="M39.8814 5.25H37.8814V6.75H39.8814V5.25Z" fill="#27292A"/>
<path d="M41.8816 5.25H46.3816V6.75H41.8816V5.25Z" fill="#27292A"/>
<path d="M48.3416 5.25H50.3416V6.75H48.3416V5.25Z" fill="#27292A"/>
<path d="M56.8416 5.25H52.3416V6.75H56.8416V5.25Z" fill="#27292A"/>
<path d="M60.8016 5.25H58.8016V6.75H60.8016V5.25Z" fill="#27292A"/>
<path d="M62.8015 5.25H67.3015V6.75H62.8015V5.25Z" fill="#27292A"/>
<path d="M69.2615 5.25H71.2615V6.75H69.2615V5.25Z" fill="#27292A"/>
</svg>
