<svg width="18" height="18" viewBox="0 0 18 18" fill="none" xmlns="http://www.w3.org/2000/svg">
<path d="M5.75 2C5.75 1.58579 5.41421 1.25 5 1.25C4.58579 1.25 4.25 1.58579 4.25 2V8.18C4.25 12.5762 7.81382 16.14 12.21 16.14H13.24C13.6542 16.14 13.99 15.8042 13.99 15.39C13.99 14.9758 13.6542 14.64 13.24 14.64H12.21C8.64224 14.64 5.75 11.7478 5.75 8.18V7.68172C7.19551 9.68559 9.55044 10.9899 12.21 10.9899H13.24C13.6542 10.9899 13.99 10.6541 13.99 10.2399C13.99 9.8257 13.6542 9.48991 13.24 9.48991H12.21C8.64224 9.48991 5.75 6.59767 5.75 3.02991V2Z" fill="#27292A"/>
</svg>
