<?xml version="1.0" encoding="UTF-8"?>
<svg width="24px" height="24px" viewBox="0 0 24 24" version="1.1" xmlns="http://www.w3.org/2000/svg" xmlns:xlink="http://www.w3.org/1999/xlink">
    <!-- Generator: Sketch 56 (81588) - https://sketch.com -->
    <title>symbol_notice</title>
    <desc>Created with Sketch.</desc>
    <defs>
        <polygon id="path-1" points="0 0 24 0 24 23.9999 0 23.9999"></polygon>
    </defs>
    <g id="symbol_notice" stroke="none" stroke-width="1" fill="none" fill-rule="evenodd">
        <g id="Group-8">
            <g id="Group-3">
                <mask id="mask-2" fill="white">
                    <use xlink:href="#path-1"></use>
                </mask>
                <g id="Clip-2"></g>
                <path d="M24,11.9999 C24,18.6279 18.627,23.9999 12,23.9999 C5.373,23.9999 0,18.6279 0,11.9999 C0,5.3729 5.373,-0.0001 12,-0.0001 C18.627,-0.0001 24,5.3729 24,11.9999" id="Fill-1" fill="#FF8533" mask="url(#mask-2)"></path>
            </g>
            <path d="M14.5732,17.945193 L9.4282,17.945193 C9.3292,17.9462 9.2612,18.0552 9.3072,18.1422 C9.8222,19.0942 10.8292,19.8002 11.9862,19.8002 C13.1702,19.8002 14.1952,19.1252 14.6982,18.1382 C14.7432,18.0502 14.6732,17.9442 14.5732,17.945193" id="Fill-4" fill="#FFFFFF"></path>
            <path d="M17.9241,15.1317 L16.1791,13.0657 L16.1791,9.1197 C16.1791,7.3957 14.7801,5.9977 13.0561,5.9977 L12.5021,5.9977 L12.5021,5.1177 C12.5021,4.8417 12.2781,4.6177 12.0021,4.6177 C11.7261,4.6177 11.5021,4.8417 11.5021,5.1177 L11.5021,5.9977 L10.9441,5.9977 C9.2201,5.9977 7.8211,7.3957 7.8211,9.1197 L7.8211,13.0567 L5.9591,15.2007 L5.9821,15.2007 C5.7731,15.3497 5.6291,15.5797 5.6291,15.8557 L5.6291,16.0867 C5.6291,16.5367 5.9941,16.9027 6.4451,16.9027 L17.5551,16.9027 C18.0061,16.9027 18.3711,16.5367 18.3711,16.0867 L18.3711,15.8557 C18.3711,15.5347 18.1831,15.2657 17.9141,15.1317 L17.9241,15.1317 Z" id="Fill-6" fill="#FFFFFF"></path>
        </g>
    </g>
</svg>