<svg width="60" height="60" viewBox="0 0 60 60" fill="none" xmlns="http://www.w3.org/2000/svg">
<mask id="path-1-outside-1_50_8835" maskUnits="userSpaceOnUse" x="0.786441" y="1.03897" width="57.9828" height="57.9828" fill="black">
<rect fill="white" x="0.786441" y="1.03897" width="57.9828" height="57.9828"/>
<path fill-rule="evenodd" clip-rule="evenodd" d="M11.3321 34.8996C10.1996 33.7671 10.1996 31.9309 11.3321 30.7984L12.965 29.1655C14.0975 28.033 15.9337 28.033 17.0662 29.1655L21.5332 33.6325L33.7159 21.4498L29.2489 16.9829C28.1163 15.8503 28.1164 14.0142 29.2489 12.8816L30.8818 11.2488C32.0143 10.1162 33.8505 10.1162 34.983 11.2488L35.647 11.9128C35.7885 11.5745 35.9968 11.2576 36.2722 10.9823L37.1861 10.0684C38.3186 8.93586 40.1548 8.93586 41.2873 10.0684L43.1923 11.9734L43.76 11.4057C44.4629 10.7028 45.6026 10.7028 46.3056 11.4057L48.5951 13.6952C49.298 14.3981 49.298 15.5378 48.5951 16.2408L48.0274 16.8085L49.9319 18.713C51.0645 19.8455 51.0645 21.6817 49.9319 22.8142L49.018 23.7282C48.7427 24.0035 48.4258 24.2119 48.0875 24.3533L48.7517 25.0175C49.8842 26.15 49.8842 27.9862 48.7517 29.1187L47.1188 30.7516C45.9863 31.8841 44.1501 31.8841 43.0176 30.7516L38.5509 26.2849L26.3683 38.4676L30.8349 42.9343C31.9675 44.0668 31.9675 45.903 30.8349 47.0355L29.2021 48.6684C28.0695 49.8009 26.2334 49.8009 25.1008 48.6684L24.4368 48.0044C24.2954 48.3426 24.087 48.6595 23.8117 48.9348L22.8977 49.8488C21.7652 50.9813 19.929 50.9813 18.7965 49.8488L16.8918 47.9441L16.2404 48.5955C15.5374 49.2985 14.3977 49.2985 13.6948 48.5955L11.4053 46.306C10.7023 45.6031 10.7023 44.4634 11.4053 43.7604L12.0567 43.109L10.1519 41.2041C9.01936 40.0716 9.01936 38.2354 10.1519 37.1029L11.0658 36.189C11.3411 35.9137 11.658 35.7053 11.9963 35.5638L11.3321 34.8996ZM44.285 20.5508L46.1896 22.4554C46.6192 22.8849 47.3156 22.8849 47.7452 22.4554L48.6591 21.5415C49.0887 21.1119 49.0887 20.4154 48.6591 19.9858L46.7546 18.0813L44.285 20.5508ZM46.896 15.6771L47.4637 15.1094C47.5418 15.0313 47.5418 14.9047 47.4637 14.8266L45.1742 12.5371C45.0961 12.459 44.9695 12.459 44.8914 12.5371L44.3237 13.1048L46.896 15.6771ZM43.0509 14.3776L45.6232 16.9499L43.1537 19.4195L40.5813 16.8471L43.0509 14.3776ZM41.9195 13.2462L40.0145 11.3412C39.5849 10.9116 38.8884 10.9116 38.4589 11.3412L37.5449 12.2551C37.1154 12.6847 37.1154 13.3812 37.5449 13.8107L39.45 15.7157L41.9195 13.2462ZM16.9304 40.498L19.5028 43.0703L17.0332 45.5399L14.4609 42.9675L16.9304 40.498ZM20.6342 44.2017L18.1646 46.6713L20.0693 48.576C20.4989 49.0055 21.1954 49.0055 21.6249 48.576L22.5389 47.6621C22.9684 47.2325 22.9684 46.536 22.5389 46.1064L20.6342 44.2017ZM13.1881 44.2403L15.7604 46.8127L15.109 47.4641C15.0309 47.5423 14.9042 47.5423 14.8261 47.4641L12.5366 45.1746C12.4585 45.0965 12.4585 44.9699 12.5366 44.8918L13.1881 44.2403ZM15.7991 39.3666L13.3295 41.8362L11.4247 39.9313C10.9951 39.5017 10.9951 38.8053 11.4247 38.3757L12.3386 37.4618C12.7682 37.0322 13.4646 37.0322 13.8942 37.4618L15.7991 39.3666ZM39.8237 25.0121L44.2904 29.4788C44.72 29.9084 45.4165 29.9084 45.846 29.4788L47.4789 27.8459C47.9085 27.4164 47.9085 26.7199 47.4789 26.2903L43.0122 21.8236L39.8237 25.0121ZM41.8809 20.6923L38.6924 23.8808L36.12 21.3084L39.3085 18.1199L41.8809 20.6923ZM38.1772 16.9885L33.7102 12.5216C33.2806 12.092 32.5841 12.092 32.1545 12.5216L30.5217 14.1544C30.0921 14.584 30.0921 15.2805 30.5217 15.7101L34.9886 20.1771L38.1772 16.9885ZM37.4196 25.1536L25.2369 37.3362L22.6646 34.7639L34.8472 22.5812L37.4196 25.1536ZM15.7934 30.4383L20.2604 34.9053L17.0719 38.0938L12.6049 33.6268C12.1753 33.1973 12.1753 32.5008 12.6049 32.0712L14.2378 30.4383C14.6673 30.0087 15.3638 30.0087 15.7934 30.4383ZM21.3918 36.0367L18.2032 39.2252L20.7756 41.7975L23.9641 38.609L21.3918 36.0367ZM26.3736 47.3956L21.907 42.9289L25.0955 39.7404L29.5622 44.2071C29.9917 44.6366 29.9917 45.3331 29.5621 45.7627L27.9293 47.3956C27.4997 47.8252 26.8032 47.8252 26.3736 47.3956Z"/>
</mask>
<path fill-rule="evenodd" clip-rule="evenodd" d="M11.3321 34.8996C10.1996 33.7671 10.1996 31.9309 11.3321 30.7984L12.965 29.1655C14.0975 28.033 15.9337 28.033 17.0662 29.1655L21.5332 33.6325L33.7159 21.4498L29.2489 16.9829C28.1163 15.8503 28.1164 14.0142 29.2489 12.8816L30.8818 11.2488C32.0143 10.1162 33.8505 10.1162 34.983 11.2488L35.647 11.9128C35.7885 11.5745 35.9968 11.2576 36.2722 10.9823L37.1861 10.0684C38.3186 8.93586 40.1548 8.93586 41.2873 10.0684L43.1923 11.9734L43.76 11.4057C44.4629 10.7028 45.6026 10.7028 46.3056 11.4057L48.5951 13.6952C49.298 14.3981 49.298 15.5378 48.5951 16.2408L48.0274 16.8085L49.9319 18.713C51.0645 19.8455 51.0645 21.6817 49.9319 22.8142L49.018 23.7282C48.7427 24.0035 48.4258 24.2119 48.0875 24.3533L48.7517 25.0175C49.8842 26.15 49.8842 27.9862 48.7517 29.1187L47.1188 30.7516C45.9863 31.8841 44.1501 31.8841 43.0176 30.7516L38.5509 26.2849L26.3683 38.4676L30.8349 42.9343C31.9675 44.0668 31.9675 45.903 30.8349 47.0355L29.2021 48.6684C28.0695 49.8009 26.2334 49.8009 25.1008 48.6684L24.4368 48.0044C24.2954 48.3426 24.087 48.6595 23.8117 48.9348L22.8977 49.8488C21.7652 50.9813 19.929 50.9813 18.7965 49.8488L16.8918 47.9441L16.2404 48.5955C15.5374 49.2985 14.3977 49.2985 13.6948 48.5955L11.4053 46.306C10.7023 45.6031 10.7023 44.4634 11.4053 43.7604L12.0567 43.109L10.1519 41.2041C9.01936 40.0716 9.01936 38.2354 10.1519 37.1029L11.0658 36.189C11.3411 35.9137 11.658 35.7053 11.9963 35.5638L11.3321 34.8996ZM44.285 20.5508L46.1896 22.4554C46.6192 22.8849 47.3156 22.8849 47.7452 22.4554L48.6591 21.5415C49.0887 21.1119 49.0887 20.4154 48.6591 19.9858L46.7546 18.0813L44.285 20.5508ZM46.896 15.6771L47.4637 15.1094C47.5418 15.0313 47.5418 14.9047 47.4637 14.8266L45.1742 12.5371C45.0961 12.459 44.9695 12.459 44.8914 12.5371L44.3237 13.1048L46.896 15.6771ZM43.0509 14.3776L45.6232 16.9499L43.1537 19.4195L40.5813 16.8471L43.0509 14.3776ZM41.9195 13.2462L40.0145 11.3412C39.5849 10.9116 38.8884 10.9116 38.4589 11.3412L37.5449 12.2551C37.1154 12.6847 37.1154 13.3812 37.5449 13.8107L39.45 15.7157L41.9195 13.2462ZM16.9304 40.498L19.5028 43.0703L17.0332 45.5399L14.4609 42.9675L16.9304 40.498ZM20.6342 44.2017L18.1646 46.6713L20.0693 48.576C20.4989 49.0055 21.1954 49.0055 21.6249 48.576L22.5389 47.6621C22.9684 47.2325 22.9684 46.536 22.5389 46.1064L20.6342 44.2017ZM13.1881 44.2403L15.7604 46.8127L15.109 47.4641C15.0309 47.5423 14.9042 47.5423 14.8261 47.4641L12.5366 45.1746C12.4585 45.0965 12.4585 44.9699 12.5366 44.8918L13.1881 44.2403ZM15.7991 39.3666L13.3295 41.8362L11.4247 39.9313C10.9951 39.5017 10.9951 38.8053 11.4247 38.3757L12.3386 37.4618C12.7682 37.0322 13.4646 37.0322 13.8942 37.4618L15.7991 39.3666ZM39.8237 25.0121L44.2904 29.4788C44.72 29.9084 45.4165 29.9084 45.846 29.4788L47.4789 27.8459C47.9085 27.4164 47.9085 26.7199 47.4789 26.2903L43.0122 21.8236L39.8237 25.0121ZM41.8809 20.6923L38.6924 23.8808L36.12 21.3084L39.3085 18.1199L41.8809 20.6923ZM38.1772 16.9885L33.7102 12.5216C33.2806 12.092 32.5841 12.092 32.1545 12.5216L30.5217 14.1544C30.0921 14.584 30.0921 15.2805 30.5217 15.7101L34.9886 20.1771L38.1772 16.9885ZM37.4196 25.1536L25.2369 37.3362L22.6646 34.7639L34.8472 22.5812L37.4196 25.1536ZM15.7934 30.4383L20.2604 34.9053L17.0719 38.0938L12.6049 33.6268C12.1753 33.1973 12.1753 32.5008 12.6049 32.0712L14.2378 30.4383C14.6673 30.0087 15.3638 30.0087 15.7934 30.4383ZM21.3918 36.0367L18.2032 39.2252L20.7756 41.7975L23.9641 38.609L21.3918 36.0367ZM26.3736 47.3956L21.907 42.9289L25.0955 39.7404L29.5622 44.2071C29.9917 44.6366 29.9917 45.3331 29.5621 45.7627L27.9293 47.3956C27.4997 47.8252 26.8032 47.8252 26.3736 47.3956Z" fill="#F8F9FA"/>
<path d="M21.5332 33.6325L20.4725 34.6932C21.0583 35.279 22.0081 35.279 22.5938 34.6932L21.5332 33.6325ZM33.7159 21.4499L34.7765 22.5105C35.0578 22.2292 35.2159 21.8477 35.2159 21.4499C35.2159 21.052 35.0578 20.6705 34.7765 20.3892L33.7159 21.4499ZM29.2489 12.8816L30.3095 13.9423L29.2489 12.8816ZM30.8818 11.2488L31.9424 12.3094L30.8818 11.2488ZM35.647 11.9128L34.5863 12.9734C34.9399 13.3271 35.4465 13.4812 35.9371 13.3845C36.4278 13.2877 36.8379 12.9529 37.0309 12.4915L35.647 11.9128ZM36.2722 10.9823L35.2115 9.92164L35.2115 9.92164L36.2722 10.9823ZM37.1861 10.0684L38.2467 11.129L38.2467 11.129L37.1861 10.0684ZM41.2873 10.0684L42.3479 9.00773L41.2873 10.0684ZM43.1923 11.9734L42.1316 13.0341C42.4129 13.3154 42.7945 13.4734 43.1923 13.4734C43.5901 13.4734 43.9717 13.3154 44.253 13.0341L43.1923 11.9734ZM46.3056 11.4057L45.2449 12.4664L46.3056 11.4057ZM48.5951 13.6952L49.6557 12.6345L48.5951 13.6952ZM48.0274 16.8085L46.9667 15.7478C46.6854 16.0291 46.5274 16.4107 46.5274 16.8085C46.5274 17.2063 46.6854 17.5878 46.9667 17.8691L48.0274 16.8085ZM49.9319 18.713L50.9926 17.6524L49.9319 18.713ZM48.0875 24.3533L47.5088 22.9695C47.0475 23.1624 46.7126 23.5725 46.6159 24.0632C46.5191 24.5538 46.6733 25.0604 47.0269 25.414L48.0875 24.3533ZM38.5509 26.2849L39.6116 25.2243C39.0258 24.6385 38.0761 24.6385 37.4903 25.2243L38.5509 26.2849ZM26.3683 38.4676L25.3076 37.4069C25.0263 37.6883 24.8683 38.0698 24.8683 38.4676C24.8683 38.8654 25.0263 39.247 25.3076 39.5283L26.3683 38.4676ZM30.8349 47.0355L29.7743 45.9748L30.8349 47.0355ZM29.2021 48.6684L30.2627 49.729L29.2021 48.6684ZM24.4368 48.0044L25.4975 46.9437C25.1439 46.5901 24.6373 46.436 24.1467 46.5327C23.656 46.6294 23.2459 46.9643 23.0529 47.4257L24.4368 48.0044ZM23.8117 48.9348L24.8723 49.9955L23.8117 48.9348ZM22.8977 49.8488L21.8371 48.7881L22.8977 49.8488ZM16.8918 47.9441L17.9525 46.8834C17.6712 46.6021 17.2896 46.4441 16.8918 46.4441C16.494 46.4441 16.1125 46.6021 15.8312 46.8834L16.8918 47.9441ZM16.2403 48.5955L17.301 49.6562L17.301 49.6562L16.2403 48.5955ZM13.6948 48.5955L14.7554 47.5349L13.6948 48.5955ZM11.4053 46.306L10.3446 47.3667L11.4053 46.306ZM11.4053 43.7604L12.4659 44.8211L12.4659 44.8211L11.4053 43.7604ZM12.0567 43.109L13.1174 44.1696C13.3987 43.8883 13.5567 43.5068 13.5567 43.109C13.5567 42.7111 13.3987 42.3296 13.1174 42.0483L12.0567 43.109ZM10.1519 37.1029L11.2125 38.1636L10.1519 37.1029ZM11.0658 36.189L10.0051 35.1283L11.0658 36.189ZM11.9963 35.5638L12.575 36.9477C13.0363 36.7548 13.3712 36.3446 13.4679 35.854C13.5647 35.3633 13.4105 34.8568 13.0569 34.5032L11.9963 35.5638ZM44.285 20.5508L43.2244 19.4902C42.9431 19.7715 42.785 20.153 42.785 20.5508C42.785 20.9487 42.9431 21.3302 43.2244 21.6115L44.285 20.5508ZM46.1896 22.4554L47.2502 21.3947L47.2502 21.3947L46.1896 22.4554ZM47.7452 22.4554L48.8059 23.516L47.7452 22.4554ZM48.6591 21.5415L47.5985 20.4808L47.5985 20.4808L48.6591 21.5415ZM46.7546 18.0813L47.8153 17.0206C47.2295 16.4348 46.2797 16.4348 45.6939 17.0206L46.7546 18.0813ZM47.4637 15.1094L48.5244 16.1701L47.4637 15.1094ZM46.896 15.6771L45.8354 16.7378C46.4211 17.3236 47.3709 17.3236 47.9567 16.7378L46.896 15.6771ZM44.8914 12.5371L45.952 13.5977L44.8914 12.5371ZM44.3237 13.1048L43.263 12.0441C42.9817 12.3254 42.8237 12.7069 42.8237 13.1048C42.8237 13.5026 42.9817 13.8841 43.263 14.1654L44.3237 13.1048ZM45.6232 16.9499L46.6839 18.0106C46.9652 17.7293 47.1232 17.3477 47.1232 16.9499C47.1232 16.5521 46.9652 16.1706 46.6839 15.8892L45.6232 16.9499ZM43.0509 14.3776L44.1115 13.3169C43.5258 12.7311 42.576 12.7311 41.9902 13.3169L43.0509 14.3776ZM43.1537 19.4195L42.093 20.4801C42.6788 21.0659 43.6285 21.0659 44.2143 20.4801L43.1537 19.4195ZM40.5813 16.8471L39.5207 15.7865C39.2394 16.0678 39.0813 16.4493 39.0813 16.8471C39.0813 17.2449 39.2394 17.6265 39.5207 17.9078L40.5813 16.8471ZM41.9195 13.2462L42.9802 14.3069C43.566 13.7211 43.566 12.7713 42.9802 12.1855L41.9195 13.2462ZM38.4589 11.3412L37.3982 10.2805L37.3982 10.2805L38.4589 11.3412ZM37.5449 13.8107L38.6056 12.7501L38.6056 12.7501L37.5449 13.8107ZM39.45 15.7158L38.3893 16.7764C38.6706 17.0577 39.0521 17.2157 39.45 17.2158C39.8478 17.2158 40.2293 17.0577 40.5106 16.7764L39.45 15.7158ZM19.5028 43.0703L20.5635 44.131C21.1492 43.5452 21.1492 42.5955 20.5635 42.0097L19.5028 43.0703ZM16.9304 40.498L17.9911 39.4373C17.4053 38.8515 16.4556 38.8515 15.8698 39.4373L16.9304 40.498ZM17.0332 45.5399L15.9726 46.6006C16.2539 46.8819 16.6354 47.0399 17.0332 47.0399C17.4311 47.0399 17.8126 46.8819 18.0939 46.6006L17.0332 45.5399ZM14.4609 42.9675L13.4002 41.9069C12.8144 42.4927 12.8144 43.4424 13.4002 44.0282L14.4609 42.9675ZM18.1646 46.6713L17.1039 45.6106C16.5182 46.1964 16.5182 47.1461 17.1039 47.7319L18.1646 46.6713ZM20.6342 44.2017L21.6948 43.1411C21.4135 42.8597 21.032 42.7017 20.6342 42.7017C20.2363 42.7017 19.8548 42.8597 19.5735 43.141L20.6342 44.2017ZM21.6249 48.576L20.5643 47.5153L21.6249 48.576ZM22.5389 47.6621L23.5995 48.7227L22.5389 47.6621ZM22.5389 46.1064L21.4782 47.1671L21.4782 47.1671L22.5389 46.1064ZM15.7604 46.8127L16.8211 47.8733C17.4069 47.2876 17.4069 46.3378 16.8211 45.752L15.7604 46.8127ZM13.1881 44.2403L14.2488 43.1797C13.663 42.5939 12.7132 42.5939 12.1274 43.1797L13.1881 44.2403ZM15.109 47.4642L16.1696 48.5248L15.109 47.4642ZM14.8261 47.4642L13.7655 48.5248L13.7655 48.5248L14.8261 47.4642ZM12.5366 45.1747L13.5973 44.114L13.5973 44.114L12.5366 45.1747ZM12.5366 44.8918L11.476 43.8311L12.5366 44.8918ZM13.3295 41.8362L12.2689 42.8968C12.8546 43.4826 13.8044 43.4826 14.3902 42.8968L13.3295 41.8362ZM15.7991 39.3666L16.8597 40.4273C17.141 40.146 17.2991 39.7644 17.2991 39.3666C17.2991 38.9688 17.141 38.5873 16.8597 38.306L15.7991 39.3666ZM11.4247 38.3757L10.364 37.315L11.4247 38.3757ZM12.3386 37.4618L13.3992 38.5224L12.3386 37.4618ZM13.8942 37.4618L12.8336 38.5224L12.8336 38.5224L13.8942 37.4618ZM39.8237 25.0121L38.7631 23.9515C38.1773 24.5373 38.1773 25.487 38.7631 26.0728L39.8237 25.0121ZM45.846 29.4788L46.9067 30.5395L45.846 29.4788ZM47.4789 27.8459L46.4183 26.7853L46.4183 26.7853L47.4789 27.8459ZM43.0122 21.8236L44.0729 20.763C43.4871 20.1772 42.5374 20.1772 41.9516 20.763L43.0122 21.8236ZM38.6924 23.8808L37.6317 24.9414C38.2175 25.5272 39.1672 25.5272 39.753 24.9414L38.6924 23.8808ZM41.8809 20.6923L42.9415 21.7529C43.5273 21.1671 43.5273 20.2174 42.9415 19.6316L41.8809 20.6923ZM36.12 21.3084L35.0594 20.2478C34.4736 20.8336 34.4736 21.7833 35.0594 22.3691L36.12 21.3084ZM39.3085 18.1199L40.3692 17.0593C39.7834 16.4735 38.8337 16.4735 38.2479 17.0593L39.3085 18.1199ZM38.1772 16.9885L39.2378 18.0492C39.8236 17.4634 39.8236 16.5137 39.2378 15.9279L38.1772 16.9885ZM32.1545 12.5216L33.2152 13.5822L33.2152 13.5822L32.1545 12.5216ZM30.5217 14.1544L31.5823 15.2151L31.5823 15.2151L30.5217 14.1544ZM34.9886 20.1771L33.928 21.2377C34.5138 21.8235 35.4635 21.8235 36.0493 21.2377L34.9886 20.1771ZM25.2369 37.3362L24.1762 38.3969C24.762 38.9827 25.7118 38.9827 26.2976 38.3969L25.2369 37.3362ZM37.4196 25.1536L38.4802 26.2142C38.7615 25.9329 38.9196 25.5514 38.9196 25.1536C38.9196 24.7557 38.7615 24.3742 38.4802 24.0929L37.4196 25.1536ZM22.6646 34.7639L21.6039 33.7032C21.3226 33.9845 21.1646 34.3661 21.1646 34.7639C21.1646 35.1617 21.3226 35.5432 21.6039 35.8246L22.6646 34.7639ZM34.8472 22.5812L35.9079 21.5206C35.3221 20.9348 34.3723 20.9348 33.7866 21.5206L34.8472 22.5812ZM20.2604 34.9053L21.321 35.966C21.6024 35.6847 21.7604 35.3031 21.7604 34.9053C21.7604 34.5075 21.6024 34.126 21.321 33.8447L20.2604 34.9053ZM17.0719 38.0938L16.0112 39.1545C16.597 39.7403 17.5467 39.7403 18.1325 39.1545L17.0719 38.0938ZM12.6049 32.0712L11.5442 31.0105L12.6049 32.0712ZM14.2378 30.4383L15.2984 31.499L14.2378 30.4383ZM18.2032 39.2252L17.1426 38.1645C16.5568 38.7503 16.5568 39.7001 17.1426 40.2859L18.2032 39.2252ZM21.3918 36.0367L22.4524 34.976C21.8666 34.3902 20.9169 34.3902 20.3311 34.976L21.3918 36.0367ZM20.7756 41.7975L19.7149 42.8582C20.3007 43.444 21.2505 43.444 21.8362 42.8582L20.7756 41.7975ZM23.9641 38.609L25.0248 39.6697C25.3061 39.3884 25.4641 39.0069 25.4641 38.609C25.4641 38.2112 25.3061 37.8297 25.0248 37.5484L23.9641 38.609ZM21.907 42.9289L20.8463 41.8683C20.2605 42.454 20.2605 43.4038 20.8463 43.9896L21.907 42.9289ZM25.0955 39.7404L26.1561 38.6797C25.5703 38.094 24.6206 38.094 24.0348 38.6797L25.0955 39.7404ZM29.5621 45.7627L28.5015 44.702L29.5621 45.7627ZM27.9293 47.3956L28.9899 48.4562L27.9293 47.3956ZM10.2714 29.7378C8.55312 31.4561 8.55311 34.242 10.2714 35.9603L12.3927 33.839C11.846 33.2922 11.846 32.4058 12.3927 31.8591L10.2714 29.7378ZM11.9043 28.1049L10.2714 29.7378L12.3927 31.8591L14.0256 30.2262L11.9043 28.1049ZM18.1268 28.1049C16.4085 26.3866 13.6226 26.3866 11.9043 28.1049L14.0256 30.2262C14.5724 29.6795 15.4588 29.6795 16.0055 30.2262L18.1268 28.1049ZM22.5938 32.5719L18.1268 28.1049L16.0055 30.2262L20.4725 34.6932L22.5938 32.5719ZM32.6552 20.3892L20.4725 32.5719L22.5938 34.6932L34.7765 22.5105L32.6552 20.3892ZM28.1882 18.0435L32.6552 22.5105L34.7765 20.3892L30.3095 15.9222L28.1882 18.0435ZM28.1882 11.821C26.4699 13.5393 26.4699 16.3252 28.1882 18.0435L30.3095 15.9222C29.7628 15.3755 29.7628 14.489 30.3095 13.9423L28.1882 11.821ZM29.8211 10.1881L28.1882 11.821L30.3095 13.9423L31.9424 12.3094L29.8211 10.1881ZM36.0436 10.1881C34.3253 8.4698 31.5394 8.4698 29.8211 10.1881L31.9424 12.3094C32.4891 11.7627 33.3756 11.7627 33.9223 12.3094L36.0436 10.1881ZM36.7077 10.8521L36.0436 10.1881L33.9223 12.3094L34.5863 12.9734L36.7077 10.8521ZM37.0309 12.4915C37.0983 12.3303 37.1979 12.1778 37.3328 12.043L35.2115 9.92164C34.7957 10.3374 34.4786 10.8188 34.2631 11.3341L37.0309 12.4915ZM37.3328 12.043L38.2467 11.129L36.1254 9.00772L35.2115 9.92164L37.3328 12.043ZM38.2467 11.129C38.7935 10.5823 39.6799 10.5823 40.2266 11.129L42.3479 9.00773C40.6296 7.28942 37.8437 7.28942 36.1254 9.00773L38.2467 11.129ZM40.2266 11.129L42.1316 13.0341L44.253 10.9127L42.3479 9.00773L40.2266 11.129ZM42.6993 10.345L42.1316 10.9127L44.253 13.0341L44.8207 12.4664L42.6993 10.345ZM47.3662 10.345C46.0775 9.05631 43.9881 9.05632 42.6993 10.345L44.8207 12.4664C44.9378 12.3492 45.1278 12.3492 45.2449 12.4664L47.3662 10.345ZM49.6557 12.6345L47.3662 10.345L45.2449 12.4664L47.5344 14.7559L49.6557 12.6345ZM49.6557 17.3015C50.9445 16.0127 50.9445 13.9233 49.6557 12.6345L47.5344 14.7559C47.6516 14.873 47.6516 15.063 47.5344 15.1801L49.6557 17.3015ZM49.088 17.8691L49.6557 17.3015L47.5344 15.1801L46.9667 15.7478L49.088 17.8691ZM46.9667 17.8691L48.8713 19.7737L50.9926 17.6524L49.088 15.7478L46.9667 17.8691ZM48.8713 19.7737C49.418 20.3204 49.418 21.2069 48.8713 21.7536L50.9926 23.8749C52.7109 22.1566 52.7109 19.3707 50.9926 17.6524L48.8713 19.7737ZM48.8713 21.7536L47.9574 22.6675L50.0787 24.7888L50.9926 23.8749L48.8713 21.7536ZM47.9574 22.6675C47.8225 22.8024 47.67 22.902 47.5088 22.9695L48.6662 25.7372C49.1815 25.5217 49.6629 25.2046 50.0787 24.7888L47.9574 22.6675ZM49.8124 23.9569L49.1482 23.2927L47.0269 25.414L47.6911 26.0782L49.8124 23.9569ZM49.8124 30.1794C51.5307 28.4611 51.5307 25.6752 49.8124 23.9569L47.6911 26.0782C48.2378 26.6249 48.2378 27.5113 47.6911 28.0581L49.8124 30.1794ZM48.1795 31.8123L49.8124 30.1794L47.6911 28.0581L46.0582 29.691L48.1795 31.8123ZM41.957 31.8123C43.6753 33.5306 46.4612 33.5306 48.1795 31.8123L46.0582 29.691C45.5114 30.2377 44.625 30.2377 44.0783 29.691L41.957 31.8123ZM37.4903 27.3456L41.957 31.8123L44.0783 29.691L39.6116 25.2243L37.4903 27.3456ZM27.4289 39.5283L39.6116 27.3456L37.4903 25.2243L25.3076 37.4069L27.4289 39.5283ZM31.8956 41.8736L27.4289 37.4069L25.3076 39.5283L29.7743 43.9949L31.8956 41.8736ZM31.8956 48.0962C33.6139 46.3779 33.6139 43.5919 31.8956 41.8736L29.7743 43.9949C30.321 44.5417 30.321 45.4281 29.7743 45.9748L31.8956 48.0962ZM30.2627 49.729L31.8956 48.0962L29.7743 45.9748L28.1414 47.6077L30.2627 49.729ZM24.0402 49.729C25.7585 51.4473 28.5444 51.4473 30.2627 49.729L28.1414 47.6077C27.5947 48.1545 26.7082 48.1545 26.1615 47.6077L24.0402 49.729ZM23.3762 49.065L24.0402 49.729L26.1615 47.6077L25.4975 46.9437L23.3762 49.065ZM24.8723 49.9955C25.2881 49.5797 25.6052 49.0984 25.8207 48.5831L23.0529 47.4257C22.9855 47.5869 22.8859 47.7393 22.751 47.8742L24.8723 49.9955ZM23.9584 50.9094L24.8723 49.9955L22.751 47.8742L21.8371 48.7881L23.9584 50.9094ZM17.7359 50.9094C19.4542 52.6277 22.2401 52.6277 23.9584 50.9094L21.8371 48.7881C21.2903 49.3348 20.4039 49.3348 19.8572 48.7881L17.7359 50.9094ZM15.8312 49.0047L17.7359 50.9094L19.8572 48.7881L17.9525 46.8834L15.8312 49.0047ZM17.301 49.6562L17.9525 49.0047L15.8312 46.8834L15.1797 47.5349L17.301 49.6562ZM12.6341 49.6562C13.9228 50.9449 16.0123 50.9449 17.301 49.6562L15.1797 47.5349C15.0625 47.652 14.8726 47.652 14.7554 47.5349L12.6341 49.6562ZM10.3446 47.3667L12.6341 49.6562L14.7554 47.5349L12.4659 45.2454L10.3446 47.3667ZM10.3446 42.6998C9.05587 43.9885 9.05588 46.078 10.3446 47.3667L12.4659 45.2454C12.3488 45.1282 12.3488 44.9383 12.4659 44.8211L10.3446 42.6998ZM10.9961 42.0483L10.3446 42.6998L12.4659 44.8211L13.1174 44.1696L10.9961 42.0483ZM9.09121 42.2648L10.9961 44.1696L13.1174 42.0483L11.2125 40.1435L9.09121 42.2648ZM9.09121 36.0422C7.37291 37.7605 7.37291 40.5465 9.09121 42.2648L11.2125 40.1435C10.6658 39.5967 10.6658 38.7103 11.2125 38.1636L9.09121 36.0422ZM10.0051 35.1283L9.09121 36.0422L11.2125 38.1636L12.1265 37.2496L10.0051 35.1283ZM11.4176 34.18C10.9023 34.3954 10.4209 34.7126 10.0051 35.1283L12.1265 37.2496C12.2613 37.1148 12.4138 37.0151 12.575 36.9477L11.4176 34.18ZM10.2714 35.9603L10.9356 36.6245L13.0569 34.5032L12.3927 33.839L10.2714 35.9603ZM43.2244 21.6115L45.1289 23.516L47.2502 21.3947L45.3457 19.4902L43.2244 21.6115ZM45.1289 23.516C46.1443 24.5314 47.7905 24.5314 48.8059 23.516L46.6846 21.3947C46.8408 21.2385 47.094 21.2385 47.2502 21.3947L45.1289 23.516ZM48.8059 23.516L49.7198 22.6021L47.5985 20.4808L46.6846 21.3947L48.8059 23.516ZM49.7198 22.6021C50.7352 21.5868 50.7352 19.9405 49.7198 18.9252L47.5985 21.0465C47.4423 20.8903 47.4423 20.637 47.5985 20.4808L49.7198 22.6021ZM49.7198 18.9252L47.8153 17.0206L45.6939 19.1419L47.5985 21.0465L49.7198 18.9252ZM45.3457 21.6115L47.8153 19.1419L45.6939 17.0206L43.2244 19.4902L45.3457 21.6115ZM46.4031 14.0488L45.8354 14.6165L47.9567 16.7378L48.5244 16.1701L46.4031 14.0488ZM46.4031 15.8872C45.8954 15.3795 45.8954 14.5564 46.4031 14.0488L48.5244 16.1701C49.1882 15.5062 49.1883 14.4298 48.5244 13.7659L46.4031 15.8872ZM44.1136 13.5977L46.4031 15.8872L48.5244 13.7659L46.2349 11.4764L44.1136 13.5977ZM45.952 13.5977C45.4444 14.1054 44.6213 14.1054 44.1136 13.5977L46.2349 11.4764C45.571 10.8125 44.4946 10.8125 43.8307 11.4764L45.952 13.5977ZM45.3843 14.1654L45.952 13.5977L43.8307 11.4764L43.263 12.0441L45.3843 14.1654ZM43.263 14.1654L45.8354 16.7378L47.9567 14.6165L45.3843 12.0441L43.263 14.1654ZM46.6839 15.8892L44.1115 13.3169L41.9902 15.4382L44.5626 18.0106L46.6839 15.8892ZM44.5626 15.8892L42.093 18.3588L44.2143 20.4801L46.6839 18.0106L44.5626 15.8892ZM39.5207 17.9078L42.093 20.4801L44.2143 18.3588L41.642 15.7865L39.5207 17.9078ZM41.642 17.9078L44.1115 15.4382L41.9902 13.3169L39.5207 15.7865L41.642 17.9078ZM42.9802 12.1855L41.0752 10.2805L38.9538 12.4018L40.8588 14.3069L42.9802 12.1855ZM41.0752 10.2805C40.0598 9.26516 38.4136 9.26515 37.3982 10.2805L39.5195 12.4018C39.3633 12.558 39.11 12.558 38.9538 12.4018L41.0752 10.2805ZM37.3982 10.2805L36.4843 11.1944L38.6056 13.3158L39.5195 12.4018L37.3982 10.2805ZM36.4843 11.1944C35.4689 12.2098 35.4689 13.856 36.4843 14.8714L38.6056 12.7501C38.7618 12.9063 38.7618 13.1595 38.6056 13.3158L36.4843 11.1944ZM36.4843 14.8714L38.3893 16.7764L40.5106 14.6551L38.6056 12.7501L36.4843 14.8714ZM40.8588 12.1855L38.3893 14.6551L40.5106 16.7764L42.9802 14.3069L40.8588 12.1855ZM20.5635 42.0097L17.9911 39.4373L15.8698 41.5587L18.4421 44.131L20.5635 42.0097ZM18.0939 46.6006L20.5635 44.131L18.4421 42.0097L15.9726 44.4792L18.0939 46.6006ZM13.4002 44.0282L15.9726 46.6006L18.0939 44.4792L15.5216 41.9069L13.4002 44.0282ZM15.8698 39.4373L13.4002 41.9069L15.5216 44.0282L17.9911 41.5587L15.8698 39.4373ZM19.2253 47.7319L21.6948 45.2624L19.5735 43.141L17.1039 45.6106L19.2253 47.7319ZM21.13 47.5153L19.2253 45.6106L17.1039 47.7319L19.0086 49.6366L21.13 47.5153ZM20.5643 47.5153C20.7205 47.3591 20.9738 47.3591 21.13 47.5153L19.0086 49.6366C20.024 50.652 21.6702 50.652 22.6856 49.6366L20.5643 47.5153ZM21.4782 46.6014L20.5643 47.5153L22.6856 49.6366L23.5995 48.7227L21.4782 46.6014ZM21.4782 47.1671C21.322 47.0109 21.322 46.7576 21.4782 46.6014L23.5995 48.7227C24.6149 47.7073 24.6149 46.0611 23.5995 45.0458L21.4782 47.1671ZM19.5735 45.2624L21.4782 47.1671L23.5995 45.0458L21.6948 43.1411L19.5735 45.2624ZM16.8211 45.752L14.2488 43.1797L12.1274 45.301L14.6998 47.8733L16.8211 45.752ZM16.1696 48.5248L16.8211 47.8733L14.6998 45.752L14.0483 46.4035L16.1696 48.5248ZM13.7655 48.5248C14.4294 49.1887 15.5057 49.1887 16.1696 48.5248L14.0483 46.4035C14.556 45.8958 15.3791 45.8958 15.8868 46.4035L13.7655 48.5248ZM11.476 46.2353L13.7655 48.5248L15.8868 46.4035L13.5973 44.114L11.476 46.2353ZM11.476 43.8311C10.8121 44.495 10.8121 45.5714 11.476 46.2353L13.5973 44.114C14.105 44.6217 14.105 45.4448 13.5973 45.9525L11.476 43.8311ZM12.1274 43.1797L11.476 43.8311L13.5973 45.9525L14.2488 45.301L12.1274 43.1797ZM14.3902 42.8968L16.8597 40.4273L14.7384 38.306L12.2689 40.7755L14.3902 42.8968ZM10.364 40.992L12.2689 42.8968L14.3902 40.7755L12.4853 38.8707L10.364 40.992ZM10.364 37.315C9.34864 38.3304 9.34864 39.9766 10.364 40.992L12.4853 38.8707C12.6415 39.0269 12.6415 39.2801 12.4853 39.4364L10.364 37.315ZM11.2779 36.4011L10.364 37.315L12.4853 39.4364L13.3992 38.5224L11.2779 36.4011ZM14.9549 36.4011C13.9395 35.3858 12.2933 35.3858 11.2779 36.4011L13.3992 38.5224C13.243 38.6786 12.9898 38.6786 12.8336 38.5224L14.9549 36.4011ZM16.8597 38.306L14.9549 36.4011L12.8336 38.5224L14.7384 40.4273L16.8597 38.306ZM45.3511 28.4182L40.8844 23.9515L38.7631 26.0728L43.2297 30.5395L45.3511 28.4182ZM44.7854 28.4182C44.9416 28.262 45.1949 28.262 45.3511 28.4182L43.2297 30.5395C44.2451 31.5549 45.8913 31.5549 46.9067 30.5395L44.7854 28.4182ZM46.4183 26.7853L44.7854 28.4182L46.9067 30.5395L48.5396 28.9066L46.4183 26.7853ZM46.4183 27.351C46.2621 27.1948 46.2621 26.9415 46.4183 26.7853L48.5396 28.9066C49.555 27.8912 49.555 26.245 48.5396 25.2297L46.4183 27.351ZM41.9516 22.8843L46.4183 27.351L48.5396 25.2297L44.0729 20.763L41.9516 22.8843ZM40.8844 26.0728L44.0729 22.8843L41.9516 20.763L38.7631 23.9515L40.8844 26.0728ZM39.753 24.9414L42.9415 21.7529L40.8202 19.6316L37.6317 22.8201L39.753 24.9414ZM35.0594 22.3691L37.6317 24.9414L39.753 22.8201L37.1807 20.2478L35.0594 22.3691ZM38.2479 17.0593L35.0594 20.2478L37.1807 22.3691L40.3692 19.1806L38.2479 17.0593ZM42.9415 19.6316L40.3692 17.0593L38.2479 19.1806L40.8202 21.7529L42.9415 19.6316ZM32.6495 13.5822L37.1165 18.0492L39.2378 15.9279L34.7708 11.4609L32.6495 13.5822ZM33.2152 13.5822C33.059 13.7384 32.8057 13.7384 32.6495 13.5822L34.7708 11.4609C33.7555 10.4455 32.1092 10.4455 31.0939 11.4609L33.2152 13.5822ZM31.5823 15.2151L33.2152 13.5822L31.0939 11.4609L29.461 13.0938L31.5823 15.2151ZM31.5823 14.6494C31.7385 14.8056 31.7385 15.0589 31.5823 15.2151L29.461 13.0938C28.4456 14.1091 28.4456 15.7554 29.461 16.7707L31.5823 14.6494ZM36.0493 19.1164L31.5823 14.6494L29.461 16.7707L33.928 21.2377L36.0493 19.1164ZM37.1165 15.9279L33.928 19.1164L36.0493 21.2377L39.2378 18.0492L37.1165 15.9279ZM26.2976 38.3969L38.4802 26.2142L36.3589 24.0929L24.1762 36.2756L26.2976 38.3969ZM21.6039 35.8246L24.1762 38.3969L26.2976 36.2756L23.7252 33.7032L21.6039 35.8246ZM33.7866 21.5206L21.6039 33.7032L23.7252 35.8246L35.9079 23.6419L33.7866 21.5206ZM38.4802 24.0929L35.9079 21.5206L33.7866 23.6419L36.3589 26.2142L38.4802 24.0929ZM21.321 33.8447L16.8541 29.3777L14.7327 31.499L19.1997 35.966L21.321 33.8447ZM18.1325 39.1545L21.321 35.966L19.1997 33.8447L16.0112 37.0332L18.1325 39.1545ZM11.5442 34.6875L16.0112 39.1545L18.1325 37.0332L13.6655 32.5662L11.5442 34.6875ZM11.5442 31.0105C10.5289 32.0259 10.5289 33.6721 11.5442 34.6875L13.6655 32.5662C13.8217 32.7224 13.8217 32.9757 13.6655 33.1319L11.5442 31.0105ZM13.1771 29.3777L11.5442 31.0105L13.6655 33.1319L15.2984 31.499L13.1771 29.3777ZM16.8541 29.3777C15.8387 28.3623 14.1925 28.3623 13.1771 29.3777L15.2984 31.499C15.1422 31.6552 14.8889 31.6552 14.7327 31.499L16.8541 29.3777ZM19.2639 40.2859L22.4524 37.0973L20.3311 34.976L17.1426 38.1645L19.2639 40.2859ZM21.8362 40.7369L19.2639 38.1645L17.1426 40.2859L19.7149 42.8582L21.8362 40.7369ZM22.9034 37.5484L19.7149 40.7369L21.8362 42.8582L25.0248 39.6697L22.9034 37.5484ZM20.3311 37.0973L22.9034 39.6697L25.0248 37.5484L22.4524 34.976L20.3311 37.0973ZM20.8463 43.9896L25.313 48.4562L27.4343 46.3349L22.9676 41.8683L20.8463 43.9896ZM24.0348 38.6797L20.8463 41.8683L22.9676 43.9896L26.1561 40.8011L24.0348 38.6797ZM30.6228 43.1464L26.1561 38.6797L24.0348 40.8011L28.5015 45.2677L30.6228 43.1464ZM30.6228 46.8234C31.6382 45.808 31.6382 44.1618 30.6228 43.1464L28.5015 45.2677C28.3453 45.1115 28.3453 44.8583 28.5015 44.702L30.6228 46.8234ZM28.9899 48.4562L30.6228 46.8234L28.5015 44.702L26.8686 46.3349L28.9899 48.4562ZM25.313 48.4562C26.3283 49.4716 27.9746 49.4716 28.9899 48.4562L26.8686 46.3349C27.0248 46.1787 27.2781 46.1787 27.4343 46.3349L25.313 48.4562Z" fill="#F8F9FA" mask="url(#path-1-outside-1_50_8835)"/>
<rect x="45.0367" y="11.2598" width="5.23784" height="47.7565" rx="1" transform="rotate(45 45.0367 11.2598)" fill="#F1F3F5" stroke="#212529" stroke-width="1.6" stroke-linecap="round" stroke-linejoin="round"/>
<g style="mix-blend-mode:multiply">
<rect x="24.3717" y="36.999" width="17.8688" height="1.10817" transform="rotate(-45 24.3717 36.999)" fill="#DEE2E6"/>
</g>
<rect x="10.5582" y="32.8447" width="6.30925" height="23.472" rx="2" transform="rotate(-45 10.5582 32.8447)" fill="#9775FA" stroke="#212529" stroke-width="1.8" stroke-linecap="round" stroke-linejoin="round"/>
<rect x="49.5334" y="27.0635" width="6.30925" height="23.472" rx="2" transform="rotate(135 49.5334 27.0635)" fill="#9775FA" stroke="#212529" stroke-width="1.8" stroke-linecap="round" stroke-linejoin="round"/>
<rect x="9.37805" y="39.1494" width="5.29247" height="16.2254" rx="2" transform="rotate(-45 9.37805 39.1494)" fill="#91A7FF" stroke="#212529" stroke-width="1.8" stroke-linecap="round" stroke-linejoin="round"/>
<rect x="50.7137" y="20.7598" width="5.29247" height="16.2254" rx="2" transform="rotate(135 50.7137 20.7598)" fill="#91A7FF" stroke="#212529" stroke-width="1.8" stroke-linecap="round" stroke-linejoin="round"/>
</svg>
