<svg width="60" height="60" viewBox="0 0 60 60" fill="none" xmlns="http://www.w3.org/2000/svg">
<mask id="path-1-outside-1_50_5793" maskUnits="userSpaceOnUse" x="4.67346" y="7.75488" width="51" height="46" fill="black">
<rect fill="white" x="4.67346" y="7.75488" width="51" height="46"/>
<path fill-rule="evenodd" clip-rule="evenodd" d="M29.9796 9.75524C30.1853 9.7487 30.3835 9.83304 30.5214 9.98581C31.5225 11.0947 32.5647 12.7911 32.8355 14.2835C32.9712 15.0319 32.9348 15.861 32.4354 16.5139C32.0058 17.0756 31.3364 17.3754 30.5 17.4572V18.8603H31.88C32.3219 18.8603 32.68 19.2184 32.68 19.6603V24.7921H35.4014V19.6603C35.4014 19.2184 35.7595 18.8603 36.2014 18.8603H37.5814V17.4604C36.6724 17.3841 35.9538 17.0866 35.5137 16.4971C35.0028 15.813 35.0325 14.9534 35.2142 14.2138C35.5786 12.7304 36.7183 11.0488 37.5349 10.0197C37.6628 9.85852 37.8553 9.76177 38.061 9.75524C38.2667 9.7487 38.4649 9.83304 38.6028 9.98581C39.6038 11.0947 40.6461 12.7911 40.9168 14.2835C41.0526 15.0319 41.0162 15.861 40.5168 16.5139C40.0872 17.0756 39.4178 17.3754 38.5814 17.4572V18.8603H39.9614C40.4032 18.8603 40.7614 19.2184 40.7614 19.6603V24.8159C43.0607 25.0503 44.8547 26.9925 44.8547 29.3537V36.8973C47.277 37.0065 49.2073 39.0049 49.2073 41.4541V49.7484H52.3266C52.8789 49.7484 53.3266 50.1961 53.3266 50.7484C53.3266 51.3006 52.8789 51.7484 52.3266 51.7484H7.67346C7.12118 51.7484 6.67346 51.3006 6.67346 50.7484C6.67346 50.1961 7.12118 49.7484 7.67346 49.7484H10.7357V41.4541C10.7357 38.9857 12.6963 36.9753 15.1452 36.895V29.3537C15.1452 26.8746 17.1228 24.8575 19.5864 24.7937V19.6603C19.5864 19.2184 19.9446 18.8603 20.3864 18.8603H21.7664V17.4604C20.8575 17.3841 20.1389 17.0866 19.6987 16.4971C19.1879 15.813 19.2176 14.9534 19.3993 14.2138C19.7637 12.7304 20.9033 11.0488 21.7199 10.0197C21.8479 9.85852 22.0403 9.76177 22.246 9.75524C22.4518 9.7487 22.6499 9.83304 22.7879 9.98581C23.7889 11.0947 24.8312 12.7911 25.1019 14.2835C25.2377 15.0319 25.2012 15.861 24.7019 16.5139C24.2722 17.0756 23.6028 17.3754 22.7664 17.4572V18.8603H24.1464C24.5883 18.8603 24.9464 19.2184 24.9464 19.6603V24.7921H27.32V19.6603C27.32 19.2184 27.6782 18.8603 28.12 18.8603H29.5V17.4604C28.5911 17.3841 27.8724 17.0866 27.4323 16.4971C26.9215 15.813 26.9511 14.9534 27.1329 14.2138C27.4973 12.7304 28.6369 11.0488 29.4535 10.0197C29.5815 9.85852 29.7739 9.76177 29.9796 9.75524ZM30.0257 11.5886C29.3695 12.5117 28.7189 13.626 28.4924 14.5478C28.3481 15.1352 28.4167 15.4755 28.5541 15.6595C28.684 15.8334 29.037 16.0805 30.0018 16.0805C30.8403 16.0805 31.1801 15.8508 31.3234 15.6634C31.4792 15.4597 31.5612 15.1028 31.4579 14.5334C31.2929 13.6237 30.7111 12.5095 30.0257 11.5886ZM28.92 20.4603V24.7912H31.08V20.4603H28.92ZM16.9698 29.3537C16.9698 27.8421 18.1952 26.6167 19.7068 26.6167H40.2931C41.8047 26.6167 43.0301 27.8421 43.0301 29.3537V30.8373C42.8384 30.6977 42.6393 30.562 42.4368 30.4337C41.5688 29.8838 40.422 29.3306 39.3507 29.3306C37.9714 29.3306 37.1015 30.2356 36.5436 30.816C36.5097 30.8513 36.4769 30.8854 36.4452 30.9181C35.804 31.5787 35.4429 31.8731 34.872 31.8586C34.202 31.8415 33.6223 31.4288 32.7318 30.742L32.6538 30.6818C31.8959 30.0959 30.8113 29.2574 29.4273 29.332C28.0797 29.4046 27.1258 30.202 26.4457 30.7704L26.4023 30.8067C25.634 31.4483 25.1656 31.8117 24.5653 31.8617C24.4316 31.8728 24.2225 31.8362 23.8904 31.6767C23.558 31.5171 23.2045 31.2866 22.7772 31.0049L22.7441 30.983C22.3495 30.7227 21.8897 30.4195 21.4183 30.1881C20.9323 29.9496 20.3463 29.7416 19.7038 29.7598C18.594 29.7912 17.6951 30.1754 16.9698 30.73V29.3537ZM16.9698 33.7797V36.8925H43.0301V33.5265C43.013 33.5074 42.9964 33.4875 42.9806 33.4669C42.7543 33.1718 42.1408 32.6138 41.3665 32.1232C40.5721 31.6199 39.8303 31.3306 39.3507 31.3306C38.875 31.3306 38.5678 31.6029 37.8803 32.3111L37.8587 32.3334C37.2595 32.9509 36.3417 33.8967 34.8211 33.8579C33.4443 33.8229 32.3737 32.994 31.6131 32.4052L31.5104 32.3258C30.6149 31.6352 30.0987 31.2987 29.535 31.3291C28.9157 31.3625 28.4344 31.7153 27.6843 32.3418L27.5891 32.4215C26.93 32.9743 26.007 33.7486 24.7311 33.8548C24.0892 33.9082 23.5021 33.7089 23.0247 33.4796C22.5554 33.2543 22.0935 32.9497 21.6961 32.6877L21.6763 32.6746C21.2492 32.3929 20.8864 32.155 20.5371 31.9835C20.1891 31.8127 19.9423 31.7539 19.7604 31.759C18.5604 31.793 17.7043 32.547 17.03 33.6893C17.0114 33.7208 16.9913 33.751 16.9698 33.7797ZM32.231 44.835C31.1009 44.1319 30.2887 43.6675 29.3333 43.7091C28.3361 43.7524 27.5999 44.2144 26.6447 44.858L26.5451 44.9252C25.6517 45.5285 24.5308 46.2855 23.0052 46.3879C22.2913 46.4358 21.6125 46.2582 21.0122 46.0257C20.4203 45.7964 19.8316 45.4832 19.3018 45.2013L19.3017 45.2013L19.2863 45.1931C18.1254 44.5755 17.2689 44.1469 16.5003 44.1645C14.6709 44.2063 13.4688 45.1376 12.6015 46.3228C12.5883 46.3409 12.5746 46.3585 12.5603 46.3754V49.723H47.3827V46.1129C47.3713 46.102 47.3601 46.0908 47.3491 46.0792C47.034 45.7478 46.2011 45.1388 45.1579 44.6055C44.1089 44.0693 43.0397 43.71 42.2605 43.71C41.3978 43.71 40.876 44.1327 40.0243 44.8406C39.2008 45.5251 38.1057 46.4267 36.3206 46.39C34.6713 46.3561 33.3663 45.5427 32.3346 44.8996L32.231 44.835ZM47.3827 43.5846C46.9779 43.3211 46.5302 43.0608 46.0682 42.8247C44.9325 42.2442 43.5198 41.71 42.2605 41.71C40.6524 41.71 39.6215 42.5712 38.8547 43.2118L38.7459 43.3025C37.94 43.9723 37.3495 44.4108 36.3617 44.3904C35.2938 44.3685 34.4167 43.8395 33.2876 43.1369L33.2288 43.1003C32.1914 42.4544 30.8829 41.6398 29.2464 41.711C27.6318 41.7812 26.4711 42.5633 25.5465 43.1864L25.5271 43.1994C24.5535 43.8554 23.8365 44.3276 22.8712 44.3924C22.5659 44.4129 22.1984 44.3404 21.7347 44.1607C21.2684 43.9801 20.7813 43.723 20.2256 43.4274L20.1096 43.3656C19.1056 42.8303 17.8002 42.1343 16.4546 42.165C14.8362 42.202 13.5612 42.7442 12.5603 43.5105V41.4541C12.5603 39.9426 13.7857 38.7172 15.2973 38.7172H44.6457C46.1573 38.7172 47.3827 39.9426 47.3827 41.4541V43.5846ZM21.1864 24.7912V20.4603H23.3464V24.7912H21.1864ZM20.7589 14.5478C20.9853 13.626 21.636 12.5117 22.2921 11.5886C22.9775 12.5095 23.5593 13.6237 23.7244 14.5334C23.8277 15.1028 23.7457 15.4597 23.5899 15.6634C23.4465 15.8508 23.1068 16.0805 22.2682 16.0805C21.3034 16.0805 20.9504 15.8334 20.8205 15.6595C20.6831 15.4755 20.6145 15.1352 20.7589 14.5478ZM37.0014 20.4603V24.7912H39.1614V20.4603H37.0014ZM38.107 11.5886C37.4509 12.5117 36.8002 13.626 36.5738 14.5478C36.4295 15.1352 36.498 15.4755 36.6354 15.6595C36.7653 15.8334 37.1184 16.0805 38.0832 16.0805C38.9217 16.0805 39.2615 15.8508 39.4048 15.6634C39.5606 15.4597 39.6426 15.1028 39.5393 14.5334C39.3743 13.6237 38.7925 12.5095 38.107 11.5886Z"/>
</mask>
<path fill-rule="evenodd" clip-rule="evenodd" d="M29.9796 9.75524C30.1853 9.7487 30.3835 9.83304 30.5214 9.98581C31.5225 11.0947 32.5647 12.7911 32.8355 14.2835C32.9712 15.0319 32.9348 15.861 32.4354 16.5139C32.0058 17.0756 31.3364 17.3754 30.5 17.4572V18.8603H31.88C32.3219 18.8603 32.68 19.2184 32.68 19.6603V24.7921H35.4014V19.6603C35.4014 19.2184 35.7595 18.8603 36.2014 18.8603H37.5814V17.4604C36.6724 17.3841 35.9538 17.0866 35.5137 16.4971C35.0028 15.813 35.0325 14.9534 35.2142 14.2138C35.5786 12.7304 36.7183 11.0488 37.5349 10.0197C37.6628 9.85852 37.8553 9.76177 38.061 9.75524C38.2667 9.7487 38.4649 9.83304 38.6028 9.98581C39.6038 11.0947 40.6461 12.7911 40.9168 14.2835C41.0526 15.0319 41.0162 15.861 40.5168 16.5139C40.0872 17.0756 39.4178 17.3754 38.5814 17.4572V18.8603H39.9614C40.4032 18.8603 40.7614 19.2184 40.7614 19.6603V24.8159C43.0607 25.0503 44.8547 26.9925 44.8547 29.3537V36.8973C47.277 37.0065 49.2073 39.0049 49.2073 41.4541V49.7484H52.3266C52.8789 49.7484 53.3266 50.1961 53.3266 50.7484C53.3266 51.3006 52.8789 51.7484 52.3266 51.7484H7.67346C7.12118 51.7484 6.67346 51.3006 6.67346 50.7484C6.67346 50.1961 7.12118 49.7484 7.67346 49.7484H10.7357V41.4541C10.7357 38.9857 12.6963 36.9753 15.1452 36.895V29.3537C15.1452 26.8746 17.1228 24.8575 19.5864 24.7937V19.6603C19.5864 19.2184 19.9446 18.8603 20.3864 18.8603H21.7664V17.4604C20.8575 17.3841 20.1389 17.0866 19.6987 16.4971C19.1879 15.813 19.2176 14.9534 19.3993 14.2138C19.7637 12.7304 20.9033 11.0488 21.7199 10.0197C21.8479 9.85852 22.0403 9.76177 22.246 9.75524C22.4518 9.7487 22.6499 9.83304 22.7879 9.98581C23.7889 11.0947 24.8312 12.7911 25.1019 14.2835C25.2377 15.0319 25.2012 15.861 24.7019 16.5139C24.2722 17.0756 23.6028 17.3754 22.7664 17.4572V18.8603H24.1464C24.5883 18.8603 24.9464 19.2184 24.9464 19.6603V24.7921H27.32V19.6603C27.32 19.2184 27.6782 18.8603 28.12 18.8603H29.5V17.4604C28.5911 17.3841 27.8724 17.0866 27.4323 16.4971C26.9215 15.813 26.9511 14.9534 27.1329 14.2138C27.4973 12.7304 28.6369 11.0488 29.4535 10.0197C29.5815 9.85852 29.7739 9.76177 29.9796 9.75524ZM30.0257 11.5886C29.3695 12.5117 28.7189 13.626 28.4924 14.5478C28.3481 15.1352 28.4167 15.4755 28.5541 15.6595C28.684 15.8334 29.037 16.0805 30.0018 16.0805C30.8403 16.0805 31.1801 15.8508 31.3234 15.6634C31.4792 15.4597 31.5612 15.1028 31.4579 14.5334C31.2929 13.6237 30.7111 12.5095 30.0257 11.5886ZM28.92 20.4603V24.7912H31.08V20.4603H28.92ZM16.9698 29.3537C16.9698 27.8421 18.1952 26.6167 19.7068 26.6167H40.2931C41.8047 26.6167 43.0301 27.8421 43.0301 29.3537V30.8373C42.8384 30.6977 42.6393 30.562 42.4368 30.4337C41.5688 29.8838 40.422 29.3306 39.3507 29.3306C37.9714 29.3306 37.1015 30.2356 36.5436 30.816C36.5097 30.8513 36.4769 30.8854 36.4452 30.9181C35.804 31.5787 35.4429 31.8731 34.872 31.8586C34.202 31.8415 33.6223 31.4288 32.7318 30.742L32.6538 30.6818C31.8959 30.0959 30.8113 29.2574 29.4273 29.332C28.0797 29.4046 27.1258 30.202 26.4457 30.7704L26.4023 30.8067C25.634 31.4483 25.1656 31.8117 24.5653 31.8617C24.4316 31.8728 24.2225 31.8362 23.8904 31.6767C23.558 31.5171 23.2045 31.2866 22.7772 31.0049L22.7441 30.983C22.3495 30.7227 21.8897 30.4195 21.4183 30.1881C20.9323 29.9496 20.3463 29.7416 19.7038 29.7598C18.594 29.7912 17.6951 30.1754 16.9698 30.73V29.3537ZM16.9698 33.7797V36.8925H43.0301V33.5265C43.013 33.5074 42.9964 33.4875 42.9806 33.4669C42.7543 33.1718 42.1408 32.6138 41.3665 32.1232C40.5721 31.6199 39.8303 31.3306 39.3507 31.3306C38.875 31.3306 38.5678 31.6029 37.8803 32.3111L37.8587 32.3334C37.2595 32.9509 36.3417 33.8967 34.8211 33.8579C33.4443 33.8229 32.3737 32.994 31.6131 32.4052L31.5104 32.3258C30.6149 31.6352 30.0987 31.2987 29.535 31.3291C28.9157 31.3625 28.4344 31.7153 27.6843 32.3418L27.5891 32.4215C26.93 32.9743 26.007 33.7486 24.7311 33.8548C24.0892 33.9082 23.5021 33.7089 23.0247 33.4796C22.5554 33.2543 22.0935 32.9497 21.6961 32.6877L21.6763 32.6746C21.2492 32.3929 20.8864 32.155 20.5371 31.9835C20.1891 31.8127 19.9423 31.7539 19.7604 31.759C18.5604 31.793 17.7043 32.547 17.03 33.6893C17.0114 33.7208 16.9913 33.751 16.9698 33.7797ZM32.231 44.835C31.1009 44.1319 30.2887 43.6675 29.3333 43.7091C28.3361 43.7524 27.5999 44.2144 26.6447 44.858L26.5451 44.9252C25.6517 45.5285 24.5308 46.2855 23.0052 46.3879C22.2913 46.4358 21.6125 46.2582 21.0122 46.0257C20.4203 45.7964 19.8316 45.4832 19.3018 45.2013L19.3017 45.2013L19.2863 45.1931C18.1254 44.5755 17.2689 44.1469 16.5003 44.1645C14.6709 44.2063 13.4688 45.1376 12.6015 46.3228C12.5883 46.3409 12.5746 46.3585 12.5603 46.3754V49.723H47.3827V46.1129C47.3713 46.102 47.3601 46.0908 47.3491 46.0792C47.034 45.7478 46.2011 45.1388 45.1579 44.6055C44.1089 44.0693 43.0397 43.71 42.2605 43.71C41.3978 43.71 40.876 44.1327 40.0243 44.8406C39.2008 45.5251 38.1057 46.4267 36.3206 46.39C34.6713 46.3561 33.3663 45.5427 32.3346 44.8996L32.231 44.835ZM47.3827 43.5846C46.9779 43.3211 46.5302 43.0608 46.0682 42.8247C44.9325 42.2442 43.5198 41.71 42.2605 41.71C40.6524 41.71 39.6215 42.5712 38.8547 43.2118L38.7459 43.3025C37.94 43.9723 37.3495 44.4108 36.3617 44.3904C35.2938 44.3685 34.4167 43.8395 33.2876 43.1369L33.2288 43.1003C32.1914 42.4544 30.8829 41.6398 29.2464 41.711C27.6318 41.7812 26.4711 42.5633 25.5465 43.1864L25.5271 43.1994C24.5535 43.8554 23.8365 44.3276 22.8712 44.3924C22.5659 44.4129 22.1984 44.3404 21.7347 44.1607C21.2684 43.9801 20.7813 43.723 20.2256 43.4274L20.1096 43.3656C19.1056 42.8303 17.8002 42.1343 16.4546 42.165C14.8362 42.202 13.5612 42.7442 12.5603 43.5105V41.4541C12.5603 39.9426 13.7857 38.7172 15.2973 38.7172H44.6457C46.1573 38.7172 47.3827 39.9426 47.3827 41.4541V43.5846ZM21.1864 24.7912V20.4603H23.3464V24.7912H21.1864ZM20.7589 14.5478C20.9853 13.626 21.636 12.5117 22.2921 11.5886C22.9775 12.5095 23.5593 13.6237 23.7244 14.5334C23.8277 15.1028 23.7457 15.4597 23.5899 15.6634C23.4465 15.8508 23.1068 16.0805 22.2682 16.0805C21.3034 16.0805 20.9504 15.8334 20.8205 15.6595C20.6831 15.4755 20.6145 15.1352 20.7589 14.5478ZM37.0014 20.4603V24.7912H39.1614V20.4603H37.0014ZM38.107 11.5886C37.4509 12.5117 36.8002 13.626 36.5738 14.5478C36.4295 15.1352 36.498 15.4755 36.6354 15.6595C36.7653 15.8334 37.1184 16.0805 38.0832 16.0805C38.9217 16.0805 39.2615 15.8508 39.4048 15.6634C39.5606 15.4597 39.6426 15.1028 39.5393 14.5334C39.3743 13.6237 38.7925 12.5095 38.107 11.5886Z" fill="#F8F9FA"/>
<path d="M30.5214 9.98581L31.6348 8.98067L31.6348 8.98066L30.5214 9.98581ZM29.9796 9.75524L29.932 8.25599L29.932 8.25599L29.9796 9.75524ZM32.8355 14.2835L34.3114 14.0157L34.3114 14.0157L32.8355 14.2835ZM32.4354 16.5139L31.244 15.6026L31.244 15.6026L32.4354 16.5139ZM30.5 17.4572L30.354 15.9643C29.5858 16.0395 29 16.6853 29 17.4572H30.5ZM30.5 18.8603H29C29 19.6887 29.6716 20.3603 30.5 20.3603V18.8603ZM32.68 24.7921H31.18C31.18 25.6205 31.8516 26.2921 32.68 26.2921V24.7921ZM35.4014 24.7921V26.2921C36.2298 26.2921 36.9014 25.6205 36.9014 24.7921H35.4014ZM37.5814 18.8603V20.3603C38.4098 20.3603 39.0814 19.6887 39.0814 18.8603H37.5814ZM37.5814 17.4604H39.0814C39.0814 16.6806 38.4839 16.0309 37.7069 15.9656L37.5814 17.4604ZM35.5137 16.4971L34.3118 17.3946L34.3118 17.3946L35.5137 16.4971ZM35.2142 14.2138L33.7575 13.8559L33.7575 13.8559L35.2142 14.2138ZM37.5349 10.0197L38.7099 10.9522L38.7099 10.9522L37.5349 10.0197ZM38.061 9.75524L38.0133 8.25599L38.0133 8.25599L38.061 9.75524ZM38.6028 9.98581L39.7162 8.98067L39.7162 8.98066L38.6028 9.98581ZM40.9168 14.2835L42.3927 14.0157L42.3927 14.0157L40.9168 14.2835ZM40.5168 16.5139L39.3254 15.6026L39.3254 15.6026L40.5168 16.5139ZM38.5814 17.4572L38.4353 15.9643C37.6671 16.0395 37.0814 16.6853 37.0814 17.4572H38.5814ZM38.5814 18.8603H37.0814C37.0814 19.6887 37.7529 20.3603 38.5814 20.3603V18.8603ZM40.7614 24.8159H39.2614C39.2614 25.5854 39.8437 26.2301 40.6092 26.3081L40.7614 24.8159ZM44.8547 36.8973H43.3547C43.3547 37.6994 43.9858 38.3596 44.7871 38.3957L44.8547 36.8973ZM49.2073 49.7484H47.7073C47.7073 50.5768 48.3789 51.2484 49.2073 51.2484V49.7484ZM10.7357 49.7484V51.2484C11.5641 51.2484 12.2357 50.5768 12.2357 49.7484H10.7357ZM15.1452 36.895L15.1943 38.3942C16.0032 38.3677 16.6452 37.7043 16.6452 36.895H15.1452ZM19.5864 24.7937L19.6253 26.2932C20.4383 26.2721 21.0864 25.607 21.0864 24.7937H19.5864ZM21.7664 18.8603V20.3603C22.5948 20.3603 23.2664 19.6887 23.2664 18.8603H21.7664ZM21.7664 17.4604H23.2664C23.2664 16.6806 22.669 16.0309 21.8919 15.9656L21.7664 17.4604ZM19.6987 16.4971L18.4968 17.3946L18.4968 17.3946L19.6987 16.4971ZM19.3993 14.2138L20.856 14.5716L20.856 14.5716L19.3993 14.2138ZM21.7199 10.0197L22.8949 10.9522L22.8949 10.9522L21.7199 10.0197ZM22.246 9.75524L22.1984 8.25599L22.1984 8.25599L22.246 9.75524ZM22.7879 9.98581L23.9013 8.98067L23.9013 8.98066L22.7879 9.98581ZM25.1019 14.2835L26.5778 14.0157L26.5778 14.0157L25.1019 14.2835ZM24.7019 16.5139L23.5104 15.6026L23.5104 15.6026L24.7019 16.5139ZM22.7664 17.4572L22.6204 15.9643C21.8522 16.0395 21.2664 16.6853 21.2664 17.4572H22.7664ZM22.7664 18.8603H21.2664C21.2664 19.6887 21.938 20.3603 22.7664 20.3603V18.8603ZM24.9464 24.7921H23.4464C23.4464 25.6205 24.118 26.2921 24.9464 26.2921V24.7921ZM27.32 24.7921V26.2921C28.1484 26.2921 28.82 25.6205 28.82 24.7921H27.32ZM29.5 18.8603V20.3603C30.3284 20.3603 31 19.6887 31 18.8603H29.5ZM29.5 17.4604H31C31 16.6806 30.4026 16.0309 29.6255 15.9656L29.5 17.4604ZM27.4323 16.4971L26.2304 17.3946L26.2304 17.3946L27.4323 16.4971ZM27.1329 14.2138L25.6762 13.8559L25.6762 13.8559L27.1329 14.2138ZM29.4535 10.0197L30.6285 10.9522L30.6285 10.9522L29.4535 10.0197ZM28.4924 14.5478L29.9491 14.9057L28.4924 14.5478ZM30.0257 11.5886L31.2289 10.693C30.9424 10.308 30.489 10.0834 30.0092 10.0887C29.5293 10.0939 29.081 10.3285 28.803 10.7196L30.0257 11.5886ZM28.5541 15.6595L27.3522 16.557L27.3522 16.557L28.5541 15.6595ZM30.0018 16.0805L30.0018 17.5805L30.0018 17.5805L30.0018 16.0805ZM31.3234 15.6634L30.132 14.7521L30.132 14.7521L31.3234 15.6634ZM31.4579 14.5334L29.982 14.8011L29.982 14.8011L31.4579 14.5334ZM28.92 24.7912H27.42C27.42 25.6196 28.0916 26.2912 28.92 26.2912V24.7912ZM28.92 20.4603V18.9603C28.0916 18.9603 27.42 19.6318 27.42 20.4603H28.92ZM31.08 24.7912V26.2912C31.9085 26.2912 32.58 25.6196 32.58 24.7912H31.08ZM31.08 20.4603H32.58C32.58 19.6318 31.9085 18.9603 31.08 18.9603V20.4603ZM43.0301 30.8373L42.1471 32.0499C42.6033 32.3821 43.2073 32.4302 43.7103 32.1742C44.2133 31.9183 44.5301 31.4017 44.5301 30.8373H43.0301ZM42.4368 30.4337L41.634 31.7008L41.6341 31.7008L42.4368 30.4337ZM36.5436 30.816L37.625 31.8555L37.6251 31.8555L36.5436 30.816ZM36.4452 30.9181L35.3689 29.8733L35.3689 29.8733L36.4452 30.9181ZM34.872 31.8586L34.8338 33.3581L34.8338 33.3581L34.872 31.8586ZM32.7318 30.742L31.8148 31.9291L31.8157 31.9299L32.7318 30.742ZM32.6538 30.6818L31.7364 31.8685L31.7368 31.8689L32.6538 30.6818ZM29.4273 29.332L29.3466 27.8342L29.3466 27.8342L29.4273 29.332ZM26.4457 30.7704L27.4075 31.9214L27.4077 31.9213L26.4457 30.7704ZM26.4023 30.8067L27.3638 31.958L27.3641 31.9577L26.4023 30.8067ZM24.5653 31.8617L24.6896 33.3565L24.6897 33.3565L24.5653 31.8617ZM23.8904 31.6767L23.2411 33.0289L23.2411 33.0289L23.8904 31.6767ZM22.7772 31.0049L21.9514 32.2571L21.9515 32.2571L22.7772 31.0049ZM22.7441 30.983L21.9182 32.2352L21.9183 32.2352L22.7441 30.983ZM21.4183 30.1881L20.7574 31.5347L20.7574 31.5347L21.4183 30.1881ZM19.7038 29.7598L19.6614 28.2604L19.6614 28.2604L19.7038 29.7598ZM16.9698 30.73H15.4698C15.4698 31.3007 15.7937 31.8219 16.3053 32.0747C16.8169 32.3276 17.4277 32.2682 17.881 31.9215L16.9698 30.73ZM16.9698 36.8925H15.4698C15.4698 37.721 16.1414 38.3925 16.9698 38.3925V36.8925ZM16.9698 33.7797L15.7674 32.883C15.5742 33.1421 15.4698 33.4566 15.4698 33.7797H16.9698ZM43.0301 36.8925V38.3925C43.8585 38.3925 44.5301 37.721 44.5301 36.8925H43.0301ZM43.0301 33.5265H44.5301C44.5301 33.157 44.3937 32.8005 44.147 32.5253L43.0301 33.5265ZM42.9806 33.4669L44.1708 32.554L44.1708 32.5539L42.9806 33.4669ZM41.3665 32.1232L42.1692 30.8561L42.1692 30.8561L41.3665 32.1232ZM37.8803 32.3111L36.804 31.2663L36.8039 31.2665L37.8803 32.3111ZM37.8587 32.3334L36.7822 31.2887L36.7822 31.2888L37.8587 32.3334ZM34.8211 33.8579L34.8593 32.3584L34.8593 32.3584L34.8211 33.8579ZM31.6131 32.4052L32.5314 31.2191L32.5306 31.2185L31.6131 32.4052ZM31.5104 32.3258L32.4279 31.1391L32.4264 31.138L31.5104 32.3258ZM29.535 31.3291L29.6157 32.8269L29.6157 32.8269L29.535 31.3291ZM27.6843 32.3418L26.7228 31.1904L26.7211 31.1918L27.6843 32.3418ZM27.5891 32.4215L26.626 31.2715L26.6252 31.2722L27.5891 32.4215ZM24.7311 33.8548L24.6067 32.3599L24.6067 32.3599L24.7311 33.8548ZM23.0247 33.4796L22.3754 34.8318L22.3754 34.8318L23.0247 33.4796ZM21.6961 32.6877L20.8703 33.9399L20.8704 33.9399L21.6961 32.6877ZM21.6763 32.6746L22.5021 31.4223L22.502 31.4223L21.6763 32.6746ZM20.5371 31.9835L19.8762 33.3301L19.8762 33.3301L20.5371 31.9835ZM19.7604 31.759L19.718 30.2596L19.718 30.2596L19.7604 31.759ZM17.03 33.6893L18.3217 34.4519L18.3217 34.4518L17.03 33.6893ZM29.3333 43.7091L29.3984 45.2077L29.3984 45.2077L29.3333 43.7091ZM32.231 44.835L33.0241 43.5619L33.0234 43.5614L32.231 44.835ZM26.6447 44.858L25.8065 43.614L25.8057 43.6146L26.6447 44.858ZM26.5451 44.9252L25.7061 43.6818L25.7057 43.6821L26.5451 44.9252ZM23.0052 46.3879L23.1057 47.8845L23.1057 47.8845L23.0052 46.3879ZM21.0122 46.0257L21.5541 44.627L21.5541 44.627L21.0122 46.0257ZM19.3018 45.2013L20.0063 43.8771C19.9898 43.8683 19.9731 43.8598 19.9562 43.8516L19.3018 45.2013ZM19.3017 45.2013L18.597 46.5254C18.6136 46.5343 18.6304 46.5428 18.6473 46.551L19.3017 45.2013ZM19.2863 45.1931L19.9909 43.8689L19.9908 43.8688L19.2863 45.1931ZM16.5003 44.1645L16.5345 45.6641L16.5345 45.6641L16.5003 44.1645ZM12.6015 46.3228L13.8121 47.2086L13.8121 47.2086L12.6015 46.3228ZM12.5603 46.3754L11.4107 45.4119C11.1844 45.682 11.0603 46.0231 11.0603 46.3754H12.5603ZM12.5603 49.723H11.0603C11.0603 50.5514 11.7319 51.223 12.5603 51.223V49.723ZM47.3827 49.723V51.223C48.2111 51.223 48.8827 50.5514 48.8827 49.723H47.3827ZM47.3827 46.1129H48.8827C48.8827 45.7039 48.7157 45.3127 48.4204 45.0298L47.3827 46.1129ZM47.3491 46.0792L46.262 47.1127L46.262 47.1128L47.3491 46.0792ZM45.1579 44.6055L45.8407 43.2699L45.8407 43.2699L45.1579 44.6055ZM40.0243 44.8406L40.9831 45.9941L40.9831 45.9941L40.0243 44.8406ZM36.3206 46.39L36.3514 44.8903L36.3514 44.8903L36.3206 46.39ZM32.3346 44.8996L33.1281 43.6266L33.1277 43.6264L32.3346 44.8996ZM46.0682 42.8247L45.3855 44.1603L45.3855 44.1603L46.0682 42.8247ZM47.3827 43.5846L46.5643 44.8417C47.0255 45.1419 47.614 45.1655 48.0977 44.9032C48.5814 44.6409 48.8827 44.1348 48.8827 43.5846H47.3827ZM38.8547 43.2118L39.8154 44.3637L39.8164 44.363L38.8547 43.2118ZM38.7459 43.3025L39.7047 44.456L39.7067 44.4544L38.7459 43.3025ZM36.3617 44.3904L36.3309 45.8901L36.3309 45.8901L36.3617 44.3904ZM33.2876 43.1369L32.4949 44.4104L32.4951 44.4105L33.2876 43.1369ZM33.2288 43.1003L32.436 44.3737L32.4362 44.3738L33.2288 43.1003ZM29.2464 41.711L29.1812 40.2124L29.1812 40.2124L29.2464 41.711ZM25.5465 43.1864L26.3846 44.4303L26.3847 44.4303L25.5465 43.1864ZM25.5271 43.1994L24.689 41.9554L24.6889 41.9554L25.5271 43.1994ZM22.8712 44.3924L22.9717 45.889L22.9717 45.889L22.8712 44.3924ZM21.7347 44.1607L21.1928 45.5595L21.1928 45.5595L21.7347 44.1607ZM20.2256 43.4274L19.5203 44.7512L19.5211 44.7516L20.2256 43.4274ZM20.1096 43.3656L19.4039 44.6892L19.4043 44.6894L20.1096 43.3656ZM16.4546 42.165L16.4203 40.6654L16.4203 40.6654L16.4546 42.165ZM12.5603 43.5105H11.0603C11.0603 44.0813 11.3844 44.6027 11.8962 44.8554C12.408 45.1082 13.0189 45.0485 13.4722 44.7015L12.5603 43.5105ZM21.1864 20.4603V18.9603C20.358 18.9603 19.6864 19.6318 19.6864 20.4603H21.1864ZM21.1864 24.7912H19.6864C19.6864 25.6196 20.358 26.2912 21.1864 26.2912V24.7912ZM23.3464 20.4603H24.8464C24.8464 19.6318 24.1749 18.9603 23.3464 18.9603V20.4603ZM23.3464 24.7912V26.2912C24.1749 26.2912 24.8464 25.6196 24.8464 24.7912H23.3464ZM22.2921 11.5886L23.4953 10.693C23.2088 10.308 22.7554 10.0834 22.2756 10.0887C21.7958 10.0939 21.3474 10.3285 21.0694 10.7196L22.2921 11.5886ZM20.7589 14.5478L22.2155 14.9057L22.2155 14.9057L20.7589 14.5478ZM23.7244 14.5334L22.2485 14.8011L22.2485 14.8011L23.7244 14.5334ZM23.5899 15.6634L22.3984 14.7521L22.3984 14.7521L23.5899 15.6634ZM22.2682 16.0805L22.2683 17.5805L22.2683 17.5805L22.2682 16.0805ZM20.8205 15.6595L22.0224 14.762L22.0224 14.762L20.8205 15.6595ZM37.0014 24.7912H35.5014C35.5014 25.6196 36.1729 26.2912 37.0014 26.2912V24.7912ZM37.0014 20.4603V18.9603C36.1729 18.9603 35.5014 19.6318 35.5014 20.4603H37.0014ZM39.1614 24.7912V26.2912C39.9898 26.2912 40.6614 25.6196 40.6614 24.7912H39.1614ZM39.1614 20.4603H40.6614C40.6614 19.6318 39.9898 18.9603 39.1614 18.9603V20.4603ZM36.5738 14.5478L38.0305 14.9057L36.5738 14.5478ZM38.107 11.5886L39.3103 10.693C39.0238 10.308 38.5704 10.0834 38.0905 10.0887C37.6107 10.0939 37.1623 10.3285 36.8844 10.7196L38.107 11.5886ZM36.6354 15.6595L35.4335 16.557L35.4335 16.557L36.6354 15.6595ZM38.0832 16.0805L38.0832 17.5805L38.0832 17.5805L38.0832 16.0805ZM39.4048 15.6634L40.5962 16.5747L40.5962 16.5747L39.4048 15.6634ZM39.5393 14.5334L41.0152 14.2656L41.0152 14.2656L39.5393 14.5334ZM31.6348 8.98066C31.2014 8.50051 30.5785 8.23545 29.932 8.25599L30.0272 11.2545C29.7921 11.2619 29.5657 11.1656 29.408 10.991L31.6348 8.98066ZM34.3114 14.0157C33.9728 12.1495 32.7414 10.2064 31.6348 8.98067L29.408 10.991C30.3035 11.9829 31.1567 13.4328 31.3596 14.5512L34.3114 14.0157ZM33.6269 17.4252C34.4954 16.2898 34.4815 14.9535 34.3114 14.0157L31.3596 14.5512C31.461 15.1103 31.3743 15.4323 31.244 15.6026L33.6269 17.4252ZM30.646 18.9501C31.7513 18.8419 32.8678 18.4177 33.6269 17.4252L31.244 15.6026C31.1439 15.7336 30.9215 15.9088 30.354 15.9643L30.646 18.9501ZM32 18.8603V17.4572H29V18.8603H32ZM31.88 17.3603H30.5V20.3603H31.88V17.3603ZM34.18 19.6603C34.18 18.39 33.1503 17.3603 31.88 17.3603V20.3603C31.4934 20.3603 31.18 20.0469 31.18 19.6603H34.18ZM34.18 24.7921V19.6603H31.18V24.7921H34.18ZM35.4014 23.2921H32.68V26.2921H35.4014V23.2921ZM33.9014 19.6603V24.7921H36.9014V19.6603H33.9014ZM36.2014 17.3603C34.9311 17.3603 33.9014 18.39 33.9014 19.6603H36.9014C36.9014 20.0469 36.588 20.3603 36.2014 20.3603V17.3603ZM37.5814 17.3603H36.2014V20.3603H37.5814V17.3603ZM36.0814 17.4604V18.8603H39.0814V17.4604H36.0814ZM34.3118 17.3946C35.1061 18.4583 36.3137 18.8592 37.4558 18.9551L37.7069 15.9656C37.0312 15.9089 36.8015 15.7148 36.7155 15.5997L34.3118 17.3946ZM33.7575 13.8559C33.5365 14.7556 33.3997 16.1731 34.3118 17.3946L36.7155 15.5997C36.606 15.453 36.5285 15.1513 36.6709 14.5716L33.7575 13.8559ZM36.3599 9.0873C35.5232 10.1416 34.2042 12.0379 33.7575 13.8559L36.6709 14.5716C36.9531 13.423 37.9133 11.9559 38.7099 10.9522L36.3599 9.0873ZM38.0133 8.25599C37.3668 8.27653 36.762 8.58059 36.3599 9.0873L38.7099 10.9522C38.5636 11.1364 38.3437 11.247 38.1086 11.2545L38.0133 8.25599ZM39.7162 8.98066C39.2827 8.50051 38.6599 8.23545 38.0133 8.25599L38.1086 11.2545C37.8735 11.2619 37.647 11.1656 37.4894 10.991L39.7162 8.98066ZM42.3927 14.0157C42.0542 12.1495 40.8228 10.2064 39.7162 8.98067L37.4894 10.991C38.3849 11.9829 39.238 13.4328 39.4409 14.5512L42.3927 14.0157ZM41.7082 17.4252C42.5767 16.2898 42.5629 14.9535 42.3927 14.0157L39.4409 14.5512C39.5423 15.1103 39.4556 15.4323 39.3254 15.6026L41.7082 17.4252ZM38.7274 18.9501C39.8327 18.8419 40.9491 18.4177 41.7082 17.4252L39.3254 15.6026C39.2252 15.7336 39.0029 15.9088 38.4353 15.9643L38.7274 18.9501ZM40.0814 18.8603V17.4572H37.0814V18.8603H40.0814ZM39.9614 17.3603H38.5814V20.3603H39.9614V17.3603ZM42.2614 19.6603C42.2614 18.39 41.2316 17.3603 39.9614 17.3603V20.3603C39.5748 20.3603 39.2614 20.0469 39.2614 19.6603H42.2614ZM42.2614 24.8159V19.6603H39.2614V24.8159H42.2614ZM46.3547 29.3537C46.3547 26.2151 43.9706 23.6353 40.9135 23.3236L40.6092 26.3081C42.1508 26.4653 43.3547 27.7699 43.3547 29.3537H46.3547ZM46.3547 36.8973V29.3537H43.3547V36.8973H46.3547ZM50.7073 41.4541C50.7073 38.1991 48.1423 35.544 44.9223 35.3988L44.7871 38.3957C46.4117 38.469 47.7073 39.8107 47.7073 41.4541H50.7073ZM50.7073 49.7484V41.4541H47.7073V49.7484H50.7073ZM49.2073 51.2484H52.3266V48.2484H49.2073V51.2484ZM52.3266 51.2484C52.0504 51.2484 51.8266 51.0245 51.8266 50.7484H54.8266C54.8266 49.3676 53.7073 48.2484 52.3266 48.2484V51.2484ZM51.8266 50.7484C51.8266 50.4722 52.0504 50.2484 52.3266 50.2484V53.2484C53.7073 53.2484 54.8266 52.1291 54.8266 50.7484H51.8266ZM52.3266 50.2484H7.67346V53.2484H52.3266V50.2484ZM7.67346 50.2484C7.9496 50.2484 8.17346 50.4722 8.17346 50.7484H5.17346C5.17346 52.1291 6.29275 53.2484 7.67346 53.2484V50.2484ZM8.17346 50.7484C8.17346 51.0245 7.9496 51.2484 7.67346 51.2484V48.2484C6.29275 48.2484 5.17346 49.3676 5.17346 50.7484H8.17346ZM7.67346 51.2484H10.7357V48.2484H7.67346V51.2484ZM9.23572 41.4541V49.7484H12.2357V41.4541H9.23572ZM15.0961 35.3958C11.841 35.5025 9.23572 38.1738 9.23572 41.4541H12.2357C12.2357 39.7977 13.5516 38.448 15.1943 38.3942L15.0961 35.3958ZM13.6452 29.3537V36.895H16.6452V29.3537H13.6452ZM19.5476 23.2942C16.273 23.379 13.6452 26.0592 13.6452 29.3537H16.6452C16.6452 27.6901 17.9725 26.336 19.6253 26.2932L19.5476 23.2942ZM18.0864 19.6603V24.7937H21.0864V19.6603H18.0864ZM20.3864 17.3603C19.1162 17.3603 18.0864 18.39 18.0864 19.6603H21.0864C21.0864 20.0469 20.773 20.3603 20.3864 20.3603V17.3603ZM21.7664 17.3603H20.3864V20.3603H21.7664V17.3603ZM20.2664 17.4604V18.8603H23.2664V17.4604H20.2664ZM18.4968 17.3946C19.2911 18.4583 20.4988 18.8592 21.6409 18.9551L21.8919 15.9656C21.2162 15.9089 20.9866 15.7148 20.9006 15.5997L18.4968 17.3946ZM17.9426 13.8559C17.7216 14.7556 17.5847 16.1731 18.4968 17.3946L20.9006 15.5997C20.7911 15.4529 20.7136 15.1513 20.856 14.5716L17.9426 13.8559ZM20.545 9.0873C19.7083 10.1416 18.3892 12.0379 17.9426 13.8559L20.856 14.5716C21.1382 13.423 22.0984 11.9559 22.8949 10.9522L20.545 9.0873ZM22.1984 8.25599C21.5518 8.27653 20.9471 8.58059 20.545 9.0873L22.8949 10.9522C22.7487 11.1364 22.5288 11.247 22.2937 11.2545L22.1984 8.25599ZM23.9013 8.98066C23.4678 8.50051 22.845 8.23545 22.1984 8.25599L22.2937 11.2545C22.0586 11.2619 21.8321 11.1656 21.6744 10.991L23.9013 8.98066ZM26.5778 14.0157C26.2392 12.1495 25.0079 10.2064 23.9013 8.98067L21.6744 10.991C22.57 11.9829 23.4231 13.4328 23.626 14.5512L26.5778 14.0157ZM25.8933 17.4252C26.7618 16.2898 26.7479 14.9535 26.5778 14.0157L23.626 14.5512C23.7274 15.1103 23.6407 15.4323 23.5104 15.6026L25.8933 17.4252ZM22.9124 18.9501C24.0177 18.8419 25.1342 18.4177 25.8933 17.4252L23.5104 15.6026C23.4103 15.7336 23.1879 15.9088 22.6204 15.9643L22.9124 18.9501ZM24.2664 18.8603V17.4572H21.2664V18.8603H24.2664ZM24.1464 17.3603H22.7664V20.3603H24.1464V17.3603ZM26.4464 19.6603C26.4464 18.39 25.4167 17.3603 24.1464 17.3603V20.3603C23.7598 20.3603 23.4464 20.0469 23.4464 19.6603H26.4464ZM26.4464 24.7921V19.6603H23.4464V24.7921H26.4464ZM27.32 23.2921H24.9464V26.2921H27.32V23.2921ZM25.82 19.6603V24.7921H28.82V19.6603H25.82ZM28.12 17.3603C26.8497 17.3603 25.82 18.39 25.82 19.6603H28.82C28.82 20.0469 28.5066 20.3603 28.12 20.3603V17.3603ZM29.5 17.3603H28.12V20.3603H29.5V17.3603ZM28 17.4604V18.8603H31V17.4604H28ZM26.2304 17.3946C27.0247 18.4583 28.2324 18.8592 29.3745 18.9551L29.6255 15.9656C28.9498 15.9089 28.7202 15.7148 28.6342 15.5997L26.2304 17.3946ZM25.6762 13.8559C25.4552 14.7556 25.3183 16.1731 26.2304 17.3946L28.6342 15.5997C28.5246 15.453 28.4471 15.1513 28.5895 14.5716L25.6762 13.8559ZM28.2786 9.0873C27.4419 10.1416 26.1228 12.0379 25.6762 13.8559L28.5895 14.5716C28.8717 13.423 29.8319 11.9559 30.6285 10.9522L28.2786 9.0873ZM29.932 8.25599C29.2854 8.27653 28.6807 8.58059 28.2786 9.0873L30.6285 10.9522C30.4823 11.1364 30.2624 11.247 30.0272 11.2545L29.932 8.25599ZM29.9491 14.9057C30.105 14.271 30.6156 13.3478 31.2483 12.4575L28.803 10.7196C28.1235 11.6757 27.3328 12.981 27.0357 14.1899L29.9491 14.9057ZM29.756 14.762C29.8865 14.9368 29.9085 15.0866 29.9116 15.121C29.9141 15.1489 29.9041 15.0888 29.9491 14.9057L27.0357 14.1899C26.8497 14.9473 26.8173 15.8406 27.3522 16.557L29.756 14.762ZM30.0018 14.5805C29.638 14.5805 29.4968 14.5327 29.4866 14.5289C29.485 14.5283 29.5195 14.541 29.5733 14.5795C29.6284 14.619 29.6936 14.6785 29.756 14.762L27.3522 16.557C27.8954 17.2845 28.8348 17.5805 30.0018 17.5805L30.0018 14.5805ZM30.132 14.7521C30.1817 14.687 30.2353 14.6363 30.2856 14.5993C30.335 14.5629 30.3705 14.5478 30.3791 14.5444C30.3909 14.5398 30.2916 14.5805 30.0018 14.5805L30.0018 17.5805C31.095 17.5805 31.9797 17.2744 32.5149 16.5747L30.132 14.7521ZM29.982 14.8011C30.0125 14.969 30.0016 15.0323 30.0035 15.0194C30.006 15.0022 30.0267 14.8898 30.132 14.7521L32.5149 16.5747C33.0368 15.8924 33.0729 15.0319 32.9339 14.2656L29.982 14.8011ZM28.8224 12.4842C29.439 13.3127 29.8749 14.2107 29.982 14.8011L32.9339 14.2656C32.7109 13.0367 31.9832 11.7063 31.2289 10.693L28.8224 12.4842ZM30.42 24.7912V20.4603H27.42V24.7912H30.42ZM31.08 23.2912H28.92V26.2912H31.08V23.2912ZM29.58 20.4603V24.7912H32.58V20.4603H29.58ZM28.92 21.9603H31.08V18.9603H28.92V21.9603ZM19.7068 25.1167C17.3668 25.1167 15.4698 27.0137 15.4698 29.3537H18.4698C18.4698 28.6705 19.0236 28.1167 19.7068 28.1167V25.1167ZM40.2931 25.1167H19.7068V28.1167H40.2931V25.1167ZM44.5301 29.3537C44.5301 27.0137 42.6331 25.1167 40.2931 25.1167V28.1167C40.9763 28.1167 41.5301 28.6705 41.5301 29.3537H44.5301ZM44.5301 30.8373V29.3537H41.5301V30.8373H44.5301ZM41.6341 31.7008C41.8082 31.8112 41.9806 31.9287 42.1471 32.0499L43.9131 29.6248C43.6962 29.4668 43.4704 29.3128 43.2396 29.1666L41.6341 31.7008ZM39.3507 30.8306C39.9788 30.8306 40.8221 31.1864 41.634 31.7008L43.2396 29.1666C42.3156 28.5812 40.8653 27.8306 39.3507 27.8306V30.8306ZM37.6251 31.8555C38.2141 31.2427 38.6786 30.8306 39.3507 30.8306V27.8306C37.2642 27.8306 35.989 29.2285 35.4622 29.7766L37.6251 31.8555ZM37.5215 31.9629C37.5562 31.9271 37.5917 31.8902 37.625 31.8555L35.4622 29.7765C35.4277 29.8124 35.3976 29.8438 35.3689 29.8733L37.5215 31.9629ZM34.8338 33.3581C36.1347 33.3913 36.9187 32.5839 37.5215 31.9629L35.3689 29.8733C35.2154 30.0314 35.0994 30.1461 35.0028 30.2334C34.9066 30.3205 34.8515 30.3603 34.825 30.3772C34.8039 30.3907 34.8157 30.3801 34.852 30.3697C34.89 30.3587 34.9151 30.3592 34.9103 30.3591L34.8338 33.3581ZM31.8157 31.9299C32.6005 32.5351 33.5816 33.3262 34.8338 33.3581L34.9103 30.3591C34.8953 30.3587 34.824 30.3588 34.6197 30.2439C34.3892 30.1143 34.1046 29.9065 33.6478 29.5542L31.8157 31.9299ZM31.7368 31.8689L31.8148 31.9291L33.6488 29.555L33.5708 29.4947L31.7368 31.8689ZM29.5081 30.8298C30.2577 30.7894 30.918 31.2358 31.7364 31.8685L33.5712 29.4951C32.8739 28.956 31.365 27.7254 29.3466 27.8342L29.5081 30.8298ZM27.4077 31.9213C28.116 31.3292 28.7176 30.8724 29.5081 30.8298L29.3466 27.8342C27.4417 27.9368 26.1355 29.0747 25.4837 29.6195L27.4077 31.9213ZM27.3641 31.9577L27.4075 31.9214L25.4838 29.6194L25.4404 29.6557L27.3641 31.9577ZM24.6897 33.3565C25.8486 33.2601 26.6851 32.5248 27.3638 31.958L25.4408 29.6554C25.0432 29.9874 24.8155 30.1673 24.6348 30.2785C24.4872 30.3693 24.4453 30.3664 24.4409 30.3668L24.6897 33.3565ZM23.2411 33.0289C23.6819 33.2406 24.1746 33.3993 24.6896 33.3565L24.4409 30.3668C24.5733 30.3558 24.6559 30.3754 24.667 30.3782C24.6776 30.3808 24.6388 30.3721 24.5396 30.3245L23.2411 33.0289ZM21.9515 32.2571C22.3584 32.5254 22.7997 32.817 23.2411 33.0289L24.5396 30.3245C24.3162 30.2172 24.0506 30.0478 23.603 29.7526L21.9515 32.2571ZM21.9183 32.2352L21.9514 32.2571L23.6031 29.7527L23.5699 29.7308L21.9183 32.2352ZM20.7574 31.5347C21.1291 31.7171 21.5102 31.9661 21.9182 32.2352L23.57 29.7308C23.1887 29.4794 22.6503 29.1219 22.0792 28.8416L20.7574 31.5347ZM19.7463 31.2592C20.0434 31.2508 20.3751 31.347 20.7574 31.5347L22.0792 28.8416C21.4895 28.5522 20.6492 28.2325 19.6614 28.2604L19.7463 31.2592ZM17.881 31.9215C18.384 31.5369 18.9844 31.2808 19.7463 31.2592L19.6614 28.2604C18.2036 28.3017 17.0062 28.8138 16.0586 29.5384L17.881 31.9215ZM15.4698 29.3537V30.73H18.4698V29.3537H15.4698ZM18.4698 36.8925V33.7797H15.4698V36.8925H18.4698ZM43.0301 35.3925H16.9698V38.3925H43.0301V35.3925ZM41.5301 33.5265V36.8925H44.5301V33.5265H41.5301ZM41.7903 34.3797C41.8296 34.4309 41.8706 34.4802 41.9132 34.5278L44.147 32.5253C44.1554 32.5346 44.1633 32.5442 44.1708 32.554L41.7903 34.3797ZM40.5637 33.3903C40.8876 33.5955 41.1776 33.8149 41.4051 34.0092C41.5185 34.1059 41.611 34.1919 41.6809 34.2619C41.7157 34.2967 41.7426 34.3252 41.7623 34.3471C41.7826 34.3697 41.7909 34.3805 41.7904 34.3798L44.1708 32.5539C43.7992 32.0695 43.0287 31.4006 42.1692 30.8561L40.5637 33.3903ZM39.3507 32.8306C39.3253 32.8306 39.4316 32.8321 39.6927 32.9345C39.9322 33.0285 40.2309 33.1794 40.5637 33.3903L42.1692 30.8561C41.7077 30.5637 41.2383 30.3183 40.7884 30.1418C40.3601 29.9737 39.8557 29.8306 39.3507 29.8306V32.8306ZM38.9566 33.3559C39.1266 33.1808 39.2548 33.0517 39.3614 32.9513C39.4688 32.8502 39.529 32.8025 39.5591 32.7813C39.5841 32.7637 39.5626 32.7828 39.5046 32.8027C39.4407 32.8247 39.3828 32.8306 39.3507 32.8306V29.8306C38.7546 29.8306 38.2628 30.0247 37.8308 30.3292C37.4737 30.5808 37.128 30.9325 36.804 31.2663L38.9566 33.3559ZM38.9351 33.378L38.9567 33.3558L36.8039 31.2665L36.7822 31.2887L38.9351 33.378ZM34.7829 35.3575C37.0209 35.4145 38.3533 33.9777 38.9352 33.378L36.7822 31.2888C36.1658 31.924 35.6626 32.3789 34.8593 32.3584L34.7829 35.3575ZM30.6949 33.5913C31.4076 34.1431 32.8471 35.3081 34.7829 35.3575L34.8593 32.3584C34.0416 32.3376 33.3398 31.845 32.5314 31.2191L30.6949 33.5913ZM30.5929 33.5125L30.6956 33.5919L32.5306 31.2185L32.4279 31.1391L30.5929 33.5125ZM29.6157 32.8269C29.5401 32.831 29.5346 32.7962 29.6906 32.8797C29.8785 32.9802 30.1413 33.1642 30.5944 33.5136L32.4264 31.138C31.984 30.7968 31.5409 30.4672 31.1059 30.2345C30.6389 29.9847 30.0936 29.7968 29.4543 29.8313L29.6157 32.8269ZM28.6458 33.4931C29.0259 33.1756 29.2463 33.0072 29.4166 32.9075C29.5532 32.8275 29.5978 32.8279 29.6157 32.8269L29.4543 29.8313C28.2628 29.8955 27.4136 30.6136 26.7228 31.1905L28.6458 33.4931ZM28.5523 33.5714L28.6475 33.4917L26.7211 31.1918L26.626 31.2715L28.5523 33.5714ZM24.8555 35.3496C26.6652 35.199 27.9258 34.0969 28.5531 33.5707L26.6252 31.2722C25.9343 31.8517 25.3487 32.2982 24.6067 32.3599L24.8555 35.3496ZM22.3754 34.8318C22.962 35.1135 23.8325 35.4347 24.8555 35.3496L24.6067 32.3599C24.3459 32.3816 24.0423 32.3043 23.674 32.1274L22.3754 34.8318ZM20.8704 33.9399C21.2526 34.192 21.7989 34.555 22.3754 34.8318L23.674 32.1274C23.3119 31.9536 22.9345 31.7075 22.5219 31.4354L20.8704 33.9399ZM20.8505 33.9268L20.8703 33.9399L22.5219 31.4354L22.5021 31.4223L20.8505 33.9268ZM19.8762 33.3301C20.1236 33.4515 20.4034 33.632 20.8505 33.9268L22.502 31.4223C22.0949 31.1539 21.6492 30.8584 21.198 30.637L19.8762 33.3301ZM19.8029 33.2584C19.7137 33.2609 19.6694 33.2462 19.6862 33.2509C19.7036 33.2557 19.7639 33.275 19.8762 33.3301L21.198 30.637C20.7469 30.4156 20.2456 30.2447 19.718 30.2596L19.8029 33.2584ZM18.3217 34.4518C18.8736 33.517 19.3432 33.2714 19.8029 33.2584L19.718 30.2596C17.7775 30.3146 16.5351 31.5771 15.7383 32.9267L18.3217 34.4518ZM18.1723 34.6765C18.2258 34.6047 18.2757 34.5298 18.3217 34.4519L15.7383 32.9267C15.747 32.9119 15.7567 32.8973 15.7674 32.883L18.1723 34.6765ZM29.3984 45.2077C29.8169 45.1895 30.2392 45.3624 31.4385 46.1086L33.0234 43.5614C31.9627 42.9014 30.7604 42.1456 29.2681 42.2105L29.3984 45.2077ZM27.4829 46.102C28.4627 45.4418 28.8748 45.2304 29.3984 45.2077L29.2681 42.2105C27.7975 42.2744 26.7372 42.987 25.8065 43.614L27.4829 46.102ZM27.3841 46.1686L27.4837 46.1014L25.8057 43.6146L25.7061 43.6818L27.3841 46.1686ZM23.1057 47.8845C25.081 47.7519 26.5081 46.7602 27.3846 46.1683L25.7057 43.6821C24.7954 44.2968 23.9806 44.8191 22.9047 44.8913L23.1057 47.8845ZM20.4704 47.4244C21.1733 47.6967 22.0855 47.953 23.1057 47.8845L22.9047 44.8913C22.4971 44.9186 22.0517 44.8198 21.5541 44.627L20.4704 47.4244ZM18.5972 46.5256C19.1128 46.7999 19.7807 47.1572 20.4704 47.4244L21.5541 44.627C21.06 44.4356 20.5503 44.1665 20.0063 43.8771L18.5972 46.5256ZM18.6473 46.551L18.6474 46.551L19.9562 43.8516L19.9561 43.8515L18.6473 46.551ZM18.5816 46.5172L18.597 46.5254L20.0064 43.8771L19.9909 43.8689L18.5816 46.5172ZM16.5345 45.6641C16.6324 45.6619 16.8234 45.687 17.1891 45.8333C17.5576 45.9807 17.993 46.2041 18.5817 46.5173L19.9908 43.8688C19.4187 43.5644 18.8454 43.2648 18.3033 43.0479C17.7584 42.8299 17.1368 42.6496 16.466 42.6649L16.5345 45.6641ZM13.8121 47.2086C14.4931 46.2779 15.304 45.6922 16.5345 45.6641L16.466 42.6649C14.0378 42.7203 12.4444 43.9974 11.391 45.4371L13.8121 47.2086ZM13.71 47.3389C13.7454 47.2967 13.7794 47.2532 13.8121 47.2086L11.391 45.4371C11.3971 45.4287 11.4037 45.4203 11.4107 45.4119L13.71 47.3389ZM14.0603 49.723V46.3754H11.0603V49.723H14.0603ZM47.3827 48.223H12.5603V51.223H47.3827V48.223ZM45.8827 46.1129V49.723H48.8827V46.1129H45.8827ZM46.262 47.1128C46.2891 47.1413 46.3168 47.169 46.3449 47.196L48.4204 45.0298C48.4258 45.0349 48.431 45.0402 48.4362 45.0456L46.262 47.1128ZM44.4752 45.9411C44.9373 46.1773 45.3502 46.4292 45.6757 46.6534C46.0196 46.8902 46.209 47.057 46.262 47.1127L48.4362 45.0457C47.9566 44.5413 46.9574 43.8407 45.8407 43.2699L44.4752 45.9411ZM42.2605 45.21C42.6792 45.21 43.4906 45.4378 44.4752 45.9411L45.8407 43.2699C44.7272 42.7008 43.4001 42.21 42.2605 42.21V45.21ZM40.9831 45.9941C41.4361 45.6176 41.671 45.4314 41.8743 45.3169C42.0184 45.2357 42.1132 45.21 42.2605 45.21V42.21C40.7769 42.21 39.8538 43.0319 39.0655 43.687L40.9831 45.9941ZM36.2897 47.8897C38.6718 47.9387 40.1448 46.6909 40.9831 45.9941L39.0655 43.687C38.2568 44.3592 37.5395 44.9148 36.3514 44.8903L36.2897 47.8897ZM31.5411 46.1725C32.5409 46.7957 34.1745 47.8462 36.2897 47.8897L36.3514 44.8903C35.1681 44.866 34.1916 44.2896 33.1281 43.6266L31.5411 46.1725ZM31.4379 46.1082L31.5415 46.1727L33.1277 43.6264L33.0241 43.5619L31.4379 46.1082ZM45.3855 44.1603C45.8009 44.3726 46.2034 44.6067 46.5643 44.8417L48.201 42.3275C47.7524 42.0355 47.2595 41.749 46.7509 41.489L45.3855 44.1603ZM42.2605 43.21C43.16 43.21 44.3153 43.6132 45.3855 44.1603L46.7509 41.489C45.5498 40.8751 43.8796 40.21 42.2605 40.21V43.21ZM39.8164 44.363C40.5884 43.718 41.2453 43.21 42.2605 43.21V40.21C40.0596 40.21 38.6546 41.4244 37.8931 42.0606L39.8164 44.363ZM39.7067 44.4544L39.8154 44.3637L37.894 42.0598L37.7852 42.1505L39.7067 44.4544ZM36.3309 45.8901C37.9181 45.9228 38.8882 45.1347 39.7047 44.456L37.7871 42.1489C37.3764 42.4903 37.1434 42.6649 36.9373 42.7707C36.7782 42.8523 36.6287 42.8956 36.3925 42.8908L36.3309 45.8901ZM32.4951 44.4105C33.5573 45.0714 34.7828 45.8583 36.3309 45.8901L36.3925 42.8908C35.8049 42.8787 35.2762 42.6076 34.08 41.8633L32.4951 44.4105ZM32.4362 44.3738L32.4949 44.4104L34.0802 41.8635L34.0215 41.8269L32.4362 44.3738ZM29.3115 43.2095C30.4224 43.1612 31.3563 43.7015 32.436 44.3737L34.0216 41.827C33.0265 41.2074 31.3434 40.1184 29.1812 40.2124L29.3115 43.2095ZM26.3847 44.4303C27.3221 43.7987 28.1647 43.2594 29.3115 43.2095L29.1812 40.2124C27.0989 40.3029 25.6202 41.3279 24.7082 41.9424L26.3847 44.4303ZM26.3653 44.4434L26.3846 44.4303L24.7083 41.9424L24.689 41.9554L26.3653 44.4434ZM22.9717 45.889C24.4025 45.793 25.4454 45.0632 26.3653 44.4434L24.6889 41.9554C23.6617 42.6476 23.2705 42.8622 22.7708 42.8958L22.9717 45.889ZM21.1928 45.5595C21.7587 45.7786 22.3598 45.9301 22.9717 45.889L22.7708 42.8958C22.772 42.8957 22.6381 42.9021 22.2765 42.762L21.1928 45.5595ZM19.5211 44.7516C20.0596 45.0381 20.6277 45.3405 21.1928 45.5595L22.2765 42.762C21.9091 42.6197 21.5031 42.4079 20.9301 42.1031L19.5211 44.7516ZM19.4043 44.6894L19.5203 44.7512L20.9309 42.1035L20.8149 42.0417L19.4043 44.6894ZM16.4888 43.6646C17.3736 43.6444 18.3275 44.1153 19.4039 44.6892L20.8153 42.0419C19.8837 41.5453 18.2267 40.6241 16.4203 40.6654L16.4888 43.6646ZM13.4722 44.7015C14.2411 44.1129 15.2131 43.6938 16.4888 43.6646L16.4203 40.6654C14.4593 40.7102 12.8814 41.3756 11.6485 42.3195L13.4722 44.7015ZM11.0603 41.4541V43.5105H14.0603V41.4541H11.0603ZM15.2973 37.2172C12.9573 37.2172 11.0603 39.1141 11.0603 41.4541H14.0603C14.0603 40.771 14.6142 40.2172 15.2973 40.2172V37.2172ZM44.6457 37.2172H15.2973V40.2172H44.6457V37.2172ZM48.8827 41.4541C48.8827 39.1141 46.9857 37.2172 44.6457 37.2172V40.2172C45.3289 40.2172 45.8827 40.771 45.8827 41.4541H48.8827ZM48.8827 43.5846V41.4541H45.8827V43.5846H48.8827ZM19.6864 20.4603V24.7912H22.6864V20.4603H19.6864ZM23.3464 18.9603H21.1864V21.9603H23.3464V18.9603ZM24.8464 24.7912V20.4603H21.8464V24.7912H24.8464ZM21.1864 26.2912H23.3464V23.2912H21.1864V26.2912ZM21.0694 10.7196C20.3899 11.6757 19.5992 12.981 19.3022 14.1899L22.2155 14.9057C22.3714 14.271 22.882 13.3478 23.5147 12.4575L21.0694 10.7196ZM25.2003 14.2656C24.9773 13.0367 24.2496 11.7063 23.4953 10.693L21.0888 12.4842C21.7055 13.3127 22.1413 14.2107 22.2485 14.8011L25.2003 14.2656ZM24.7813 16.5747C25.3032 15.8924 25.3393 15.0319 25.2003 14.2656L22.2485 14.8011C22.2789 14.969 22.268 15.0323 22.2699 15.0194C22.2724 15.0022 22.2931 14.8898 22.3984 14.7521L24.7813 16.5747ZM22.2683 17.5805C23.3614 17.5805 24.2461 17.2744 24.7813 16.5747L22.3984 14.7521C22.4482 14.687 22.5017 14.6363 22.552 14.5993C22.6014 14.5629 22.6369 14.5478 22.6455 14.5444C22.6573 14.5398 22.558 14.5805 22.2682 14.5805L22.2683 17.5805ZM19.6186 16.557C20.1618 17.2845 21.1012 17.5805 22.2683 17.5805L22.2682 14.5805C21.9044 14.5805 21.7632 14.5327 21.753 14.5289C21.7514 14.5283 21.7859 14.541 21.8397 14.5795C21.8948 14.619 21.96 14.6785 22.0224 14.762L19.6186 16.557ZM19.3022 14.1899C19.1161 14.9473 19.0837 15.8406 19.6186 16.557L22.0224 14.762C22.1529 14.9368 22.1749 15.0866 22.178 15.121C22.1805 15.1489 22.1706 15.0888 22.2155 14.9057L19.3022 14.1899ZM38.5014 24.7912V20.4603H35.5014V24.7912H38.5014ZM39.1614 23.2912H37.0014V26.2912H39.1614V23.2912ZM37.6614 20.4603V24.7912H40.6614V20.4603H37.6614ZM37.0014 21.9603H39.1614V18.9603H37.0014V21.9603ZM38.0305 14.9057C38.1864 14.271 38.697 13.3478 39.3297 12.4575L36.8844 10.7196C36.2048 11.6757 35.4141 12.981 35.1171 14.1899L38.0305 14.9057ZM37.8373 14.762C37.9679 14.9368 37.9899 15.0866 37.993 15.121C37.9955 15.1489 37.9855 15.0888 38.0305 14.9057L35.1171 14.1899C34.931 14.9473 34.8986 15.8406 35.4335 16.557L37.8373 14.762ZM38.0832 14.5805C37.7193 14.5805 37.5781 14.5327 37.568 14.5289C37.5663 14.5283 37.6009 14.541 37.6547 14.5795C37.7098 14.619 37.775 14.6785 37.8373 14.762L35.4335 16.557C35.9768 17.2845 36.9162 17.5805 38.0832 17.5805L38.0832 14.5805ZM38.2134 14.7521C38.2631 14.687 38.3167 14.6363 38.367 14.5993C38.4164 14.5629 38.4518 14.5478 38.4604 14.5444C38.4722 14.5398 38.373 14.5805 38.0832 14.5805L38.0832 17.5805C39.1764 17.5805 40.061 17.2744 40.5962 16.5747L38.2134 14.7521ZM38.0634 14.8011C38.0939 14.969 38.083 15.0323 38.0849 15.0194C38.0874 15.0022 38.108 14.8898 38.2134 14.7521L40.5962 16.5747C41.1181 15.8924 41.1542 15.0319 41.0152 14.2656L38.0634 14.8011ZM36.9038 12.4842C37.5204 13.3127 37.9563 14.2107 38.0634 14.8011L41.0152 14.2656C40.7923 13.0367 40.0645 11.7063 39.3103 10.693L36.9038 12.4842Z" fill="#F8F9FA" mask="url(#path-1-outside-1_50_5793)"/>
<path d="M16.0576 29.3763C16.0576 27.3609 17.6914 25.7271 19.7069 25.7271H40.2932C42.3087 25.7271 43.9425 27.3609 43.9425 29.3763V37.8275H16.0576V29.3763Z" fill="#FFA8A8"/>
<path d="M43.7741 32.881C43.1278 32.0385 40.9018 30.3534 39.3507 30.3534C37.4119 30.3534 36.9565 32.9349 34.8466 32.8811C32.7367 32.8273 31.4771 30.2458 29.4812 30.3534C27.4854 30.4609 26.5871 32.7197 24.6483 32.881C23.0972 33.0101 21.3809 30.7355 19.7322 30.7822C18.0355 30.8303 16.9226 31.9272 16.1689 33.2037" stroke="#FFF5F5" stroke-width="2" stroke-linecap="round" stroke-linejoin="round"/>
<path fill-rule="evenodd" clip-rule="evenodd" d="M15.1453 29.3765C15.1453 26.8572 17.1876 24.8149 19.7068 24.8149H40.2932C42.8125 24.8149 44.8548 26.8572 44.8548 29.3765V37.8277C44.8548 38.3315 44.4463 38.74 43.9425 38.74H16.0576C15.5537 38.74 15.1453 38.3315 15.1453 37.8277V29.3765ZM19.7068 26.6396C18.1953 26.6396 16.9699 27.8649 16.9699 29.3765V36.9154H43.0301V29.3765C43.0301 27.8649 41.8048 26.6396 40.2932 26.6396H19.7068Z" fill="#212529"/>
<path d="M11.6481 41.4764C11.6481 39.461 13.2819 37.8271 15.2973 37.8271H44.6457C46.6612 37.8271 48.295 39.461 48.295 41.4764V50.6576H11.6481V41.4764Z" fill="#FFE066"/>
<path d="M48.0739 45.4126C47.2245 44.5193 44.299 42.7325 42.2606 42.7325C39.7125 42.7325 39.1141 45.4697 36.3412 45.4127C33.5683 45.3557 31.9129 42.6184 29.2899 42.7325C26.6669 42.8465 25.4863 45.2415 22.9383 45.4126C20.8998 45.5495 18.6442 43.1377 16.4775 43.1872C14.2476 43.2381 12.785 44.4012 11.7946 45.7548" stroke="#FFF5F5" stroke-width="2" stroke-linecap="round" stroke-linejoin="round"/>
<path fill-rule="evenodd" clip-rule="evenodd" d="M10.7357 41.4766C10.7357 38.9573 12.778 36.915 15.2973 36.915H44.6457C47.165 36.915 49.2073 38.9573 49.2073 41.4766V50.6578C49.2073 51.1617 48.7988 51.5701 48.295 51.5701H11.648C11.1442 51.5701 10.7357 51.1617 10.7357 50.6578V41.4766ZM15.2973 38.7397C13.7857 38.7397 12.5604 39.965 12.5604 41.4766V49.7455H47.3827V41.4766C47.3827 39.965 46.1573 38.7397 44.6457 38.7397H15.2973Z" fill="#212529"/>
<rect x="28.12" y="19.6831" width="3.76002" height="5.93092" fill="#5C7CFA" stroke="#212529" stroke-width="1.6" stroke-linejoin="round"/>
<path d="M30 17.1685V19.1168" stroke="#212529" stroke-linecap="round" stroke-linejoin="round"/>
<path d="M30.0018 10.4775C28.387 12.5124 25.7789 16.8032 30.0018 16.8032C33.8179 16.8032 31.9054 12.5861 30.0018 10.4775Z" fill="#FFE066" stroke="#212529" stroke-width="1.4" stroke-linecap="round" stroke-linejoin="round"/>
<rect x="20.3864" y="19.6831" width="3.76002" height="5.93092" fill="#69DB7C" stroke="#212529" stroke-width="1.6" stroke-linejoin="round"/>
<path d="M22.2664 17.1685V19.1168" stroke="#212529" stroke-linecap="round" stroke-linejoin="round"/>
<path d="M22.2682 10.4775C20.6533 12.5124 18.0452 16.8032 22.2682 16.8032C26.0843 16.8032 24.1717 12.5861 22.2682 10.4775Z" fill="#FFE066" stroke="#212529" stroke-width="1.4" stroke-linecap="round" stroke-linejoin="round"/>
<rect x="36.2014" y="19.6831" width="3.76002" height="5.93092" fill="#FF6B6B" stroke="#212529" stroke-width="1.6" stroke-linejoin="round"/>
<path d="M38.0814 17.1685V19.1168" stroke="#212529" stroke-linecap="round" stroke-linejoin="round"/>
<path d="M38.0833 10.4775C36.4684 12.5124 33.8603 16.8032 38.0832 16.8032C41.8994 16.8032 39.9868 12.5861 38.0833 10.4775Z" fill="#FFE066" stroke="#212529" stroke-width="1.4" stroke-linecap="round" stroke-linejoin="round"/>
<path d="M7.67346 50.771H52.3266" stroke="#212529" stroke-width="2" stroke-linecap="round" stroke-linejoin="round"/>
<g style="mix-blend-mode:multiply" opacity="0.5">
<path d="M40.285 26.4976H43.4654V37.2958H41.8902C41.8902 37.2958 41.8902 32.1802 41.8902 28.9189C41.8902 27.3444 40.285 26.4976 40.285 26.4976Z" fill="#DEE2E6"/>
</g>
<g style="mix-blend-mode:multiply" opacity="0.5">
<path d="M44.8934 38.3281L47.7038 38.827L48.0738 49.8042H46.1044C46.1044 49.8042 46.1044 44.3675 46.1044 40.9014C46.1044 39.2281 44.8934 38.3281 44.8934 38.3281Z" fill="#DEE2E6"/>
</g>
<g style="mix-blend-mode:soft-light" opacity="0.8">
<path d="M14.3531 40.2073C13.8749 40.3818 13.66 41.58 13.6447 42.4637C13.629 43.3675 13.7679 44.7327 14.299 44.6661C14.8301 44.5995 14.6852 42.8396 14.6016 42.3993C14.5194 41.5431 14.8313 40.0328 14.3531 40.2073Z" fill="#F8F9FA"/>
</g>
<g style="mix-blend-mode:soft-light" opacity="0.8">
<path d="M18.6621 28.1018C18.1839 28.2763 17.969 29.4745 17.9536 30.3583C17.9379 31.2621 18.0768 32.6272 18.6079 32.5606C19.139 32.494 18.9941 30.7342 18.9106 30.2939C18.8284 29.4377 19.1402 27.9273 18.6621 28.1018Z" fill="#F8F9FA"/>
</g>
</svg>
