<svg width="60" height="58" viewBox="0 0 60 58" fill="none" xmlns="http://www.w3.org/2000/svg">
<mask id="path-1-outside-1_50_9388" maskUnits="userSpaceOnUse" x="19.2244" y="4.03906" width="22" height="52" fill="black">
<rect fill="white" x="19.2244" y="4.03906" width="22" height="52"/>
<path fill-rule="evenodd" clip-rule="evenodd" d="M31.4971 8.15109C31.2762 7.80137 30.9529 7.63905 30.4755 7.63906C29.9627 7.63907 29.5681 7.79402 29.2548 8.14017C28.9497 8.47717 28.6607 9.06328 28.4995 10.0504C29.1899 10.8692 29.5953 11.7968 29.8316 12.6573C30.2854 11.8166 30.9379 10.8889 31.8418 10.2369C31.899 9.15013 31.7221 8.50719 31.4971 8.15109ZM33.4409 9.40884C33.3933 8.55703 33.1996 7.85027 32.8499 7.2966C32.2833 6.39972 31.3958 6.03904 30.4754 6.03906C29.5903 6.03908 28.7348 6.33043 28.0686 7.0664C27.6662 7.51087 27.3622 8.08545 27.1497 8.78641C26.5259 8.33725 25.9135 8.08301 25.3119 8.00706C24.3051 7.88 23.4918 8.27157 22.907 8.75561C22.2074 9.33468 21.8773 10.2227 21.9743 11.2107C22.0697 12.182 22.5697 13.236 23.4811 14.2878C24.0293 14.9204 24.728 15.3779 25.4367 15.71C24.9971 15.8945 24.5743 16.1151 24.1767 16.3769C22.4427 17.5184 21.282 19.3839 21.2267 22.1486C21.1752 24.7245 21.9804 32.52 23.2986 39.6392C23.9589 43.2056 24.7573 46.6553 25.6599 49.2291C26.109 50.51 26.6012 51.625 27.1438 52.4366C27.648 53.1908 28.3815 53.9602 29.3819 53.9602C30.3687 53.9602 31.1233 53.2057 31.659 52.4568C32.2369 51.6491 32.7814 50.5361 33.2916 49.2527C34.3164 46.675 35.2764 43.2195 36.0955 39.647C36.9163 36.0667 37.6032 32.3351 38.0755 29.1888C38.5439 26.0695 38.813 23.4521 38.7714 22.1382C38.6852 19.4094 37.4907 17.5254 35.7467 16.3661C35.5068 16.2066 35.258 16.0618 35.002 15.9307C35.2142 15.8357 35.4251 15.7269 35.6329 15.6026C36.9719 14.8017 37.7627 13.9243 38.0778 12.9812C38.3994 12.0189 38.1745 11.1446 37.8143 10.4764C37.3833 9.67704 36.577 9.17955 35.5891 9.0814C34.937 9.0166 34.2127 9.12341 33.4409 9.40884ZM31.4905 14.9059C31.5294 14.862 31.5684 14.8171 31.6076 14.7712C32.3208 13.9344 33.1124 12.7102 33.354 11.1931C34.2364 10.7421 34.9369 10.6245 35.4309 10.6736C35.9606 10.7262 36.2594 10.964 36.4059 11.2357C36.6232 11.6387 36.7028 12.0477 36.5603 12.4742C36.4113 12.9199 35.9695 13.5369 34.8116 14.2294C33.7565 14.8606 32.5377 14.9743 31.5322 14.9088C31.5183 14.9078 31.5044 14.9069 31.4905 14.9059ZM25.1115 9.59447C25.517 9.64565 26.0928 9.88874 26.8318 10.6089C26.7873 11.9752 27.3112 13.293 27.8124 14.242C27.9371 14.4783 28.0638 14.6977 28.1854 14.8964C27.9809 14.8588 27.759 14.8119 27.5276 14.7535C26.4806 14.4892 25.3674 14.0214 24.6903 13.24C23.9233 12.3549 23.6203 11.6008 23.5667 11.0543C23.5146 10.5245 23.6894 10.185 23.9272 9.98817C24.2799 9.6963 24.6654 9.53817 25.1115 9.59447Z"/>
</mask>
<path fill-rule="evenodd" clip-rule="evenodd" d="M31.4971 8.15109C31.2762 7.80137 30.9529 7.63905 30.4755 7.63906C29.9627 7.63907 29.5681 7.79402 29.2548 8.14017C28.9497 8.47717 28.6607 9.06328 28.4995 10.0504C29.1899 10.8692 29.5953 11.7968 29.8316 12.6573C30.2854 11.8166 30.9379 10.8889 31.8418 10.2369C31.899 9.15013 31.7221 8.50719 31.4971 8.15109ZM33.4409 9.40884C33.3933 8.55703 33.1996 7.85027 32.8499 7.2966C32.2833 6.39972 31.3958 6.03904 30.4754 6.03906C29.5903 6.03908 28.7348 6.33043 28.0686 7.0664C27.6662 7.51087 27.3622 8.08545 27.1497 8.78641C26.5259 8.33725 25.9135 8.08301 25.3119 8.00706C24.3051 7.88 23.4918 8.27157 22.907 8.75561C22.2074 9.33468 21.8773 10.2227 21.9743 11.2107C22.0697 12.182 22.5697 13.236 23.4811 14.2878C24.0293 14.9204 24.728 15.3779 25.4367 15.71C24.9971 15.8945 24.5743 16.1151 24.1767 16.3769C22.4427 17.5184 21.282 19.3839 21.2267 22.1486C21.1752 24.7245 21.9804 32.52 23.2986 39.6392C23.9589 43.2056 24.7573 46.6553 25.6599 49.2291C26.109 50.51 26.6012 51.625 27.1438 52.4366C27.648 53.1908 28.3815 53.9602 29.3819 53.9602C30.3687 53.9602 31.1233 53.2057 31.659 52.4568C32.2369 51.6491 32.7814 50.5361 33.2916 49.2527C34.3164 46.675 35.2764 43.2195 36.0955 39.647C36.9163 36.0667 37.6032 32.3351 38.0755 29.1888C38.5439 26.0695 38.813 23.4521 38.7714 22.1382C38.6852 19.4094 37.4907 17.5254 35.7467 16.3661C35.5068 16.2066 35.258 16.0618 35.002 15.9307C35.2142 15.8357 35.4251 15.7269 35.6329 15.6026C36.9719 14.8017 37.7627 13.9243 38.0778 12.9812C38.3994 12.0189 38.1745 11.1446 37.8143 10.4764C37.3833 9.67704 36.577 9.17955 35.5891 9.0814C34.937 9.0166 34.2127 9.12341 33.4409 9.40884ZM31.4905 14.9059C31.5294 14.862 31.5684 14.8171 31.6076 14.7712C32.3208 13.9344 33.1124 12.7102 33.354 11.1931C34.2364 10.7421 34.9369 10.6245 35.4309 10.6736C35.9606 10.7262 36.2594 10.964 36.4059 11.2357C36.6232 11.6387 36.7028 12.0477 36.5603 12.4742C36.4113 12.9199 35.9695 13.5369 34.8116 14.2294C33.7565 14.8606 32.5377 14.9743 31.5322 14.9088C31.5183 14.9078 31.5044 14.9069 31.4905 14.9059ZM25.1115 9.59447C25.517 9.64565 26.0928 9.88874 26.8318 10.6089C26.7873 11.9752 27.3112 13.293 27.8124 14.242C27.9371 14.4783 28.0638 14.6977 28.1854 14.8964C27.9809 14.8588 27.759 14.8119 27.5276 14.7535C26.4806 14.4892 25.3674 14.0214 24.6903 13.24C23.9233 12.3549 23.6203 11.6008 23.5667 11.0543C23.5146 10.5245 23.6894 10.185 23.9272 9.98817C24.2799 9.6963 24.6654 9.53817 25.1115 9.59447Z" fill="#F8F9FA"/>
<path d="M30.4755 7.63906L30.4755 9.13906L30.4755 9.13906L30.4755 7.63906ZM31.4971 8.15109L32.7653 7.35001L32.7653 7.35001L31.4971 8.15109ZM29.2548 8.14017L30.3668 9.14683L30.3668 9.14683L29.2548 8.14017ZM28.4995 10.0504L27.0191 9.8085C26.9485 10.2408 27.0703 10.6824 27.3527 11.0173L28.4995 10.0504ZM29.8316 12.6573L28.3851 13.0545C28.5474 13.6455 29.0528 14.0783 29.6617 14.1477C30.2705 14.2171 30.8604 13.9091 31.1515 13.3699L29.8316 12.6573ZM31.8418 10.2369L32.7194 11.4534C33.0877 11.1876 33.3159 10.7693 33.3397 10.3157L31.8418 10.2369ZM32.8499 7.2966L31.5817 8.09768L31.5817 8.09768L32.8499 7.2966ZM33.4409 9.40884L31.9432 9.49258C31.9698 9.96782 32.2204 10.4023 32.6184 10.6632C33.0165 10.9242 33.5148 10.9808 33.9612 10.8157L33.4409 9.40884ZM30.4754 6.03906L30.4754 4.53906L30.4754 4.53906L30.4754 6.03906ZM28.0686 7.0664L26.9565 6.05974L26.9565 6.05974L28.0686 7.0664ZM27.1497 8.78641L26.2732 10.0037C26.6662 10.2867 27.1716 10.3625 27.6303 10.2073C28.089 10.0522 28.4446 9.68508 28.5851 9.22166L27.1497 8.78641ZM25.3119 8.00706L25.4997 6.51887L25.4997 6.51887L25.3119 8.00706ZM22.907 8.75561L23.8635 9.91114L23.8635 9.91114L22.907 8.75561ZM21.9743 11.2107L20.4815 11.3573L20.4815 11.3573L21.9743 11.2107ZM23.4811 14.2878L24.6148 13.3055L24.6148 13.3055L23.4811 14.2878ZM25.4367 15.71L26.0174 17.093C26.5641 16.8635 26.9243 16.3334 26.9364 15.7405C26.9485 15.1476 26.6102 14.6033 26.0732 14.3517L25.4367 15.71ZM24.1767 16.3769L25.0015 17.6297L25.0015 17.6297L24.1767 16.3769ZM21.2267 22.1486L19.727 22.1186L21.2267 22.1486ZM23.2986 39.6392L21.8236 39.9123L21.8236 39.9123L23.2986 39.6392ZM25.6599 49.2291L24.2444 49.7255L24.2444 49.7255L25.6599 49.2291ZM27.1438 52.4366L28.3908 51.6029L28.3908 51.6029L27.1438 52.4366ZM31.659 52.4568L32.8789 53.3296L32.8789 53.3296L31.659 52.4568ZM33.2916 49.2527L31.8977 48.6986L31.8977 48.6986L33.2916 49.2527ZM36.0955 39.647L34.6334 39.3118L34.6334 39.3118L36.0955 39.647ZM38.0755 29.1888L39.5589 29.4115L39.5589 29.4115L38.0755 29.1888ZM38.7714 22.1382L37.2722 22.1855L37.2722 22.1855L38.7714 22.1382ZM35.7467 16.3661L34.9164 17.6153L34.9164 17.6153L35.7467 16.3661ZM35.002 15.9307L34.3892 14.5616C33.8624 14.7974 33.5176 15.3145 33.5025 15.8915C33.4874 16.4684 33.8047 17.0028 34.3184 17.2659L35.002 15.9307ZM35.6329 15.6026L36.4029 16.8899L36.4029 16.8899L35.6329 15.6026ZM38.0778 12.9812L39.5005 13.4566L39.5005 13.4566L38.0778 12.9812ZM37.8143 10.4764L39.1346 9.76458L39.1346 9.76458L37.8143 10.4764ZM35.5891 9.0814L35.7374 7.58875L35.7374 7.58875L35.5891 9.0814ZM31.6076 14.7712L32.7491 15.7442L32.7492 15.7442L31.6076 14.7712ZM31.4905 14.9059L30.3673 13.9117C29.9889 14.3393 29.886 14.9447 30.102 15.4733C30.3179 16.0019 30.8153 16.362 31.3849 16.4022L31.4905 14.9059ZM33.354 11.1931L32.6713 9.85753C32.2448 10.0756 31.948 10.4842 31.8727 10.9572L33.354 11.1931ZM35.4309 10.6736L35.2826 12.1662L35.2826 12.1662L35.4309 10.6736ZM36.4059 11.2357L35.0856 11.9476L35.0856 11.9476L36.4059 11.2357ZM36.5603 12.4742L35.1376 11.9988L35.1376 11.9988L36.5603 12.4742ZM34.8116 14.2294L34.0417 12.9421L34.0417 12.9421L34.8116 14.2294ZM31.5322 14.9088L31.6299 13.4119L31.6298 13.4119L31.5322 14.9088ZM26.8318 10.6089L28.331 10.6577C28.3447 10.2365 28.1805 9.8289 27.8787 9.53474L26.8318 10.6089ZM25.1115 9.59447L25.2993 8.10628L25.2993 8.10628L25.1115 9.59447ZM27.8124 14.242L26.4859 14.9424L26.4859 14.9424L27.8124 14.242ZM28.1854 14.8964L27.9143 16.3717C28.4964 16.4787 29.0871 16.2333 29.4221 15.7453C29.757 15.2574 29.7737 14.618 29.4647 14.1132L28.1854 14.8964ZM27.5276 14.7535L27.8948 13.2991L27.8948 13.2991L27.5276 14.7535ZM24.6903 13.24L25.8239 12.2577L25.8239 12.2577L24.6903 13.24ZM23.5667 11.0543L25.0595 10.9077L25.0595 10.9077L23.5667 11.0543ZM23.9272 9.98817L22.9708 8.83264L22.9708 8.83264L23.9272 9.98817ZM30.4755 9.13906C30.5468 9.13906 30.5027 9.15121 30.4102 9.10483C30.3646 9.08197 30.3221 9.05209 30.2867 9.01893C30.2523 8.98674 30.2344 8.96072 30.229 8.95217L32.7653 7.35001C32.5273 6.97326 32.1958 6.64416 31.7548 6.42303C31.326 6.20805 30.8815 6.13905 30.4754 6.13906L30.4755 9.13906ZM30.3668 9.14683C30.3768 9.13578 30.3793 9.13515 30.3736 9.13914C30.3677 9.14339 30.3604 9.14727 30.3548 9.14956C30.342 9.15476 30.3703 9.13907 30.4755 9.13906L30.4754 6.13906C29.6109 6.13908 28.7854 6.42357 28.1427 7.13351L30.3668 9.14683ZM29.9798 10.2923C30.1138 9.47231 30.3226 9.19561 30.3668 9.14683L28.1427 7.13351C27.5768 7.75872 27.2077 8.65426 27.0191 9.8085L29.9798 10.2923ZM31.278 12.2601C31 11.2478 30.5106 10.1085 29.6462 9.0834L27.3527 11.0173C27.8693 11.6299 28.1905 12.3459 28.3851 13.0545L31.278 12.2601ZM31.1515 13.3699C31.5501 12.6314 32.0713 11.9208 32.7194 11.4534L30.9643 9.02034C29.8045 9.85694 29.0206 11.0018 28.5116 11.9448L31.1515 13.3699ZM30.229 8.95217C30.2214 8.9402 30.3929 9.22743 30.3439 10.158L33.3397 10.3157C33.4052 9.07283 33.2228 8.07418 32.7653 7.35001L30.229 8.95217ZM31.5817 8.09768C31.7562 8.37395 31.9051 8.81109 31.9432 9.49258L34.9386 9.32511C34.8814 8.30297 34.643 7.32659 34.118 6.49552L31.5817 8.09768ZM30.4755 7.53906C30.9837 7.53905 31.3406 7.71597 31.5817 8.09768L34.118 6.49552C33.2261 5.08347 31.808 4.53903 30.4754 4.53906L30.4755 7.53906ZM29.1806 8.07306C29.5153 7.70336 29.9381 7.53908 30.4755 7.53906L30.4754 4.53906C29.2424 4.53909 27.9543 4.95749 26.9565 6.05974L29.1806 8.07306ZM28.5851 9.22166C28.7493 8.68013 28.9599 8.31691 29.1806 8.07306L26.9565 6.05974C26.3726 6.70483 25.9751 7.49076 25.7142 8.35117L28.5851 9.22166ZM25.124 9.49526C25.4296 9.53382 25.8099 9.6701 26.2732 10.0037L28.0262 7.56913C27.2418 7.0044 26.3975 6.63219 25.4997 6.51887L25.124 9.49526ZM23.8635 9.91114C24.2321 9.60599 24.6444 9.43472 25.124 9.49526L25.4997 6.51887C23.9659 6.32528 22.7515 6.93716 21.9506 7.60008L23.8635 9.91114ZM23.4671 11.0641C23.4121 10.5038 23.5981 10.1308 23.8635 9.91114L21.9506 7.60008C20.8167 8.53859 20.3425 9.94157 20.4815 11.3573L23.4671 11.0641ZM24.6148 13.3055C23.8385 12.4096 23.5234 11.6368 23.4671 11.0641L20.4815 11.3573C20.616 12.7272 21.3009 14.0623 22.3475 15.2701L24.6148 13.3055ZM26.0732 14.3517C25.4924 14.0795 24.9865 13.7345 24.6148 13.3055L22.3475 15.2701C23.0721 16.1063 23.9635 16.6762 24.8003 17.0682L26.0732 14.3517ZM25.0015 17.6297C25.3145 17.4237 25.6543 17.2454 26.0174 17.093L24.8561 14.3269C24.3399 14.5436 23.8342 14.8065 23.3518 15.124L25.0015 17.6297ZM22.7264 22.1786C22.7723 19.8838 23.6998 18.4867 25.0015 17.6297L23.3518 15.124C21.1856 16.5501 19.7917 18.884 19.727 22.1186L22.7264 22.1786ZM24.7735 39.3661C23.4604 32.2743 22.678 24.599 22.7264 22.1786L19.727 22.1186C19.6724 24.85 20.5004 32.7657 21.8236 39.9123L24.7735 39.3661ZM27.0753 48.7328C26.211 46.268 25.4292 42.9074 24.7735 39.3661L21.8236 39.9123C22.4886 43.5039 23.3035 47.0426 24.2444 49.7255L27.0753 48.7328ZM28.3908 51.6029C27.9517 50.9461 27.5089 49.969 27.0753 48.7328L24.2444 49.7255C24.7092 51.051 25.2508 52.3039 25.8968 53.2702L28.3908 51.6029ZM29.3819 52.4602C29.2926 52.4602 29.1727 52.4322 28.9932 52.2937C28.8 52.1446 28.5957 51.9094 28.3908 51.6029L25.8968 53.2702C26.438 54.0797 27.5636 55.4602 29.3819 55.4602V52.4602ZM30.4391 51.5841C30.2178 51.8933 29.9996 52.1329 29.7936 52.2863C29.5988 52.4314 29.4702 52.4602 29.3819 52.4602V55.4602C31.163 55.4602 32.3115 54.1228 32.8789 53.3296L30.4391 51.5841ZM31.8977 48.6986C31.4048 49.9383 30.9132 50.9214 30.4391 51.5841L32.8789 53.3296C33.5607 52.3768 34.158 51.1338 34.6855 49.8069L31.8977 48.6986ZM34.6334 39.3118C33.8206 42.8572 32.8807 46.2262 31.8977 48.6986L34.6855 49.8069C35.7522 47.1238 36.7323 43.5819 37.5575 39.9822L34.6334 39.3118ZM36.5922 28.9661C36.125 32.0775 35.4451 35.7714 34.6334 39.3118L37.5575 39.9822C38.3875 36.362 39.0813 32.5927 39.5589 29.4115L36.5922 28.9661ZM37.2722 22.1855C37.3089 23.3457 37.062 25.837 36.5922 28.9661L39.5589 29.4115C40.0258 26.302 40.3171 23.5584 40.2707 22.0908L37.2722 22.1855ZM34.9164 17.6153C36.2482 18.5006 37.201 19.9326 37.2722 22.1855L40.2707 22.0908C40.1694 18.8862 38.7331 16.5501 36.5771 15.1169L34.9164 17.6153ZM34.3184 17.2659C34.5263 17.3723 34.7259 17.4887 34.9164 17.6153L36.5771 15.1169C36.2877 14.9245 35.9897 14.7512 35.6856 14.5955L34.3184 17.2659ZM34.863 14.3153C34.7078 14.4081 34.5496 14.4898 34.3892 14.5616L35.6148 17.2998C35.8789 17.1816 36.1424 17.0457 36.4029 16.8899L34.863 14.3153ZM36.6551 12.5059C36.496 12.9822 36.0328 13.6156 34.863 14.3153L36.4029 16.8899C37.911 15.9879 39.0294 14.8665 39.5005 13.4566L36.6551 12.5059ZM36.4939 11.1883C36.7211 11.6095 36.8083 12.0474 36.6551 12.5059L39.5005 13.4566C39.9904 11.9903 39.628 10.6797 39.1346 9.76458L36.4939 11.1883ZM35.4408 10.574C36.0011 10.6297 36.3305 10.8851 36.4939 11.1883L39.1346 9.76458C38.4361 8.46899 37.153 7.7294 35.7374 7.58875L35.4408 10.574ZM33.9612 10.8157C34.5648 10.5925 35.0588 10.5361 35.4408 10.574L35.7374 7.58875C34.8152 7.49712 33.8606 7.65433 32.9206 8.00197L33.9612 10.8157ZM30.466 13.7981C30.4331 13.8368 30.4001 13.8746 30.3673 13.9117L32.6137 15.9001C32.6586 15.8494 32.7038 15.7974 32.7491 15.7442L30.466 13.7981ZM31.8727 10.9572C31.6905 12.1015 31.0806 13.0771 30.466 13.7981L32.7492 15.7442C33.561 14.7918 34.5344 13.319 34.8354 11.4291L31.8727 10.9572ZM35.5792 9.18091C34.7237 9.0959 33.7332 9.31472 32.6713 9.85753L34.0368 12.5288C34.7396 12.1695 35.15 12.153 35.2826 12.1662L35.5792 9.18091ZM37.7262 10.5239C37.315 9.76107 36.543 9.27667 35.5792 9.18091L35.2826 12.1662C35.352 12.1731 35.3295 12.1836 35.2643 12.1427C35.1964 12.1001 35.131 12.0318 35.0856 11.9476L37.7262 10.5239ZM37.983 12.9496C38.2924 12.0236 38.0795 11.1791 37.7262 10.5239L35.0856 11.9476C35.1312 12.0322 35.1341 12.0657 35.1329 12.0571C35.1322 12.0521 35.1313 12.0409 35.1326 12.0263C35.1339 12.0116 35.1367 12.0016 35.1376 11.9988L37.983 12.9496ZM35.5816 15.5168C36.9102 14.7221 37.6785 13.8608 37.983 12.9495L35.1376 11.9988C35.1442 11.979 35.0287 12.3518 34.0417 12.9421L35.5816 15.5168ZM31.4345 16.4056C32.6003 16.4816 34.1643 16.3645 35.5816 15.5168L34.0417 12.9421C33.3487 13.3566 32.4751 13.4671 31.6299 13.4119L31.4345 16.4056ZM31.3849 16.4022C31.4011 16.4033 31.4177 16.4045 31.4346 16.4056L31.6298 13.4119C31.6188 13.4112 31.6076 13.4104 31.5961 13.4096L31.3849 16.4022ZM27.8787 9.53474C26.9907 8.66923 26.129 8.21099 25.2993 8.10628L24.9237 11.0827C24.905 11.0803 25.195 11.1082 25.7848 11.6831L27.8787 9.53474ZM29.1388 13.5416C28.6849 12.6819 28.299 11.6404 28.331 10.6577L25.3325 10.5601C25.2756 12.31 25.9376 13.9041 26.4859 14.9424L29.1388 13.5416ZM29.4647 14.1132C29.3577 13.9385 29.2471 13.7467 29.1388 13.5416L26.4859 14.9424C26.6272 15.2098 26.7698 15.457 26.9061 15.6796L29.4647 14.1132ZM27.1604 16.2079C27.4273 16.2752 27.6815 16.3289 27.9143 16.3717L28.4565 13.4211C28.2802 13.3887 28.0908 13.3486 27.8948 13.2991L27.1604 16.2079ZM23.5567 14.2223C24.5379 15.3546 26.0171 15.9192 27.1604 16.2079L27.8948 13.2991C26.944 13.0591 26.1969 12.6881 25.8239 12.2577L23.5567 14.2223ZM22.0738 11.2009C22.1666 12.1453 22.654 13.1805 23.5567 14.2223L25.8239 12.2577C25.1927 11.5293 25.0741 11.0563 25.0595 10.9077L22.0738 11.2009ZM22.9708 8.83264C22.3032 9.38523 21.9792 10.237 22.0738 11.2009L25.0595 10.9077C25.0527 10.8383 25.0674 10.8584 25.04 10.9302C25.0115 11.0052 24.9574 11.0827 24.8836 11.1437L22.9708 8.83264ZM25.2993 8.10628C24.3308 7.98403 23.5442 8.35803 22.9708 8.83264L24.8836 11.1437C24.9577 11.0824 24.99 11.073 24.9818 11.0759C24.977 11.0775 24.9662 11.0806 24.9516 11.0822C24.9369 11.0838 24.9266 11.083 24.9237 11.0827L25.2993 8.10628Z" fill="#F8F9FA" mask="url(#path-1-outside-1_50_9388)"/>
<path d="M37.872 22.4048C37.7175 17.5184 33.6742 15.9536 29.9416 16.0103C26.209 16.0669 22.2259 17.4396 22.1266 22.4048C22.0273 27.37 25.2928 53.2985 29.382 53.2985C33.4711 53.2985 38.0264 27.2913 37.872 22.4048Z" fill="#FD7E14" stroke="#212529" stroke-width="1.8" stroke-linejoin="round"/>
<path d="M22.1244 24.375H27.382" stroke="#212529" stroke-width="1.4" stroke-linecap="round" stroke-linejoin="round"/>
<path d="M33.9714 27.8604L37.2662 27.8604" stroke="#212529" stroke-width="1.4" stroke-linecap="round" stroke-linejoin="round"/>
<path d="M22.6932 30.7109L25.988 30.7109" stroke="#212529" stroke-width="1.4" stroke-linecap="round" stroke-linejoin="round"/>
<path d="M35.6188 25.373H37.8757" stroke="#212529" stroke-width="1.4" stroke-linecap="round" stroke-linejoin="round"/>
<path d="M27.768 10.667C29.721 12.8233 29.3191 16.0798 29.3191 16.0798C29.3191 16.0798 25.7642 15.939 24.0858 14.002C22.4074 12.065 22.4797 10.3859 23.4172 9.61C24.3546 8.83408 25.8149 8.5106 27.768 10.667Z" fill="#51CF66" stroke="#212529" stroke-width="1.6" stroke-linecap="round" stroke-linejoin="round"/>
<path d="M32.6016 11.0176C32.3062 13.9119 29.6174 15.7925 29.6174 15.7925C29.6174 15.7925 27.3431 13.0566 27.6592 10.5132C27.9754 7.96982 29.0775 7.07729 30.4754 7.07725C31.8733 7.07722 32.897 8.12327 32.6016 11.0176Z" fill="#51CF66" stroke="#212529" stroke-width="1.6" stroke-linecap="round" stroke-linejoin="round"/>
<path d="M35.2223 15.154C32.7255 16.6473 29.6106 15.616 29.6106 15.616C29.6106 15.616 30.4443 12.1573 32.6722 10.8904C34.9001 9.6234 36.5326 10.0229 37.1101 11.094C37.6876 12.1652 37.7192 13.6606 35.2223 15.154Z" fill="#51CF66" stroke="#212529" stroke-width="1.6" stroke-linecap="round" stroke-linejoin="round"/>
<g style="mix-blend-mode:multiply">
<path fill-rule="evenodd" clip-rule="evenodd" d="M30.1556 14.887C31.2143 14.9311 32.5235 14.7867 33.6964 14.0852C36.1932 12.5918 36.1617 11.0964 35.5842 10.0253C35.562 9.98405 35.5382 9.9438 35.5128 9.9046C36.4714 9.87783 37.1638 10.2735 37.4995 10.8963C38.077 11.9674 38.1085 13.4628 35.6117 14.9562C33.1149 16.4496 30 15.4182 30 15.4182C30 15.4182 30.0492 15.2142 30.1556 14.887Z" fill="#DEE2E6"/>
</g>
<g style="mix-blend-mode:multiply">
<path fill-rule="evenodd" clip-rule="evenodd" d="M30.0244 16.0103C33.7569 15.9536 37.8003 17.5184 37.9547 22.4048C38.1092 27.2913 33.5539 53.2985 29.4647 53.2985C29.1718 53.2985 28.8831 53.1654 28.5996 52.9166C32.4336 49.6863 36.3504 26.9418 36.207 22.4048C36.0668 17.9693 32.7224 16.2707 29.3147 16.0373C29.5516 16.0227 29.7885 16.0138 30.0244 16.0103Z" fill="#DEE2E6"/>
</g>
<g style="mix-blend-mode:soft-light" opacity="0.6">
<path d="M26.4257 20.6891C26.9936 19.5758 26.6957 19.3474 26.1523 19.1727C25.6089 18.9981 24.8043 19.5891 24.167 21.6024C23.5296 23.6156 24.9908 24.9434 25.6168 24.3274C26.2428 23.7114 25.7158 22.0807 26.4257 20.6891Z" fill="#F8F9FA"/>
</g>
</svg>
