<svg width="60" height="60" viewBox="0 0 60 60" fill="none" xmlns="http://www.w3.org/2000/svg">
<mask id="path-1-outside-1_50_7987" maskUnits="userSpaceOnUse" x="6.88196" y="3.40088" width="48" height="53" fill="black">
<rect fill="white" x="6.88196" y="3.40088" width="48" height="53"/>
<path fill-rule="evenodd" clip-rule="evenodd" d="M17.1084 5.40092C15.4549 5.40092 14.1145 6.74135 14.1145 8.39485C14.1145 9.15767 14.3997 9.85371 14.8693 10.3823C14.7515 10.4984 14.6401 10.619 14.5351 10.7438C13.8026 11.6135 13.4021 12.6497 13.2469 13.6161L9.12635 16.0006C8.94527 16.1054 8.85081 16.3137 8.89128 16.5189C8.93175 16.7242 9.09821 16.881 9.30552 16.9093L14.0255 17.5515C14.0379 17.5532 14.0503 17.5544 14.0626 17.5552C14.6711 18.527 15.5007 19.2772 16.2571 19.734C16.4702 19.8627 16.6843 19.9793 16.8787 20.0853L16.8844 20.0884C17.4698 20.4075 17.8264 20.6163 18.0277 20.8877C18.1737 21.0846 18.2964 21.4008 18.0848 22.1121C17.9117 22.6936 17.6645 23.2992 17.3912 23.9665L17.3792 23.9959C16.9521 25.0389 16.4697 26.2171 16.2561 27.4871C15.6472 31.1058 15.5666 35.5581 17.7659 38.5852C19.2138 40.5781 21.1546 42.7871 24.3358 44.1537L24.8155 46.1805C25.0409 47.1327 25.7655 47.857 26.6727 48.1035V50.6826L23.7286 49.7646C23.4189 49.6681 23.0896 49.8409 22.993 50.1506C22.8965 50.4603 23.0692 50.7896 23.379 50.8862L24.6841 51.2931L22.5617 51.8324C22.2473 51.9123 22.0571 52.2319 22.137 52.5463C22.2169 52.8608 22.5366 53.0509 22.851 52.971L25.1893 52.3768L23.7349 53.5555C23.4828 53.7597 23.4441 54.1296 23.6483 54.3817C23.8526 54.6337 24.2225 54.6724 24.4745 54.4682L27.6065 51.93C27.7603 51.8054 27.84 51.6126 27.8214 51.4179C27.8384 51.3628 27.8475 51.3045 27.8475 51.2446V48.1902C28.75 48.1582 29.5772 47.6655 30.0408 46.8857L30.8832 45.4688C31.0887 45.4735 31.2972 45.4756 31.5086 45.475L32.0783 47.1751C32.387 48.0963 33.205 48.7416 34.1561 48.8401V50.6826L31.212 49.7646C30.9023 49.6681 30.573 49.8409 30.4764 50.1506C30.3798 50.4603 30.5526 50.7896 30.8623 50.8862L32.1674 51.2931L30.045 51.8324C29.7306 51.9123 29.5405 52.2319 29.6204 52.5463C29.7003 52.8608 30.0199 53.0509 30.3344 52.971L32.6726 52.3768L31.2182 53.5555C30.9662 53.7597 30.9274 54.1296 31.1317 54.3817C31.3359 54.6337 31.7058 54.6724 31.9579 54.4682L35.0899 51.93C35.2437 51.8054 35.3234 51.6126 35.3048 51.4179C35.3218 51.3628 35.3309 51.3045 35.3309 51.2446V48.6746C35.7813 48.4928 36.1746 48.179 36.4531 47.764L38.9973 43.9719C40.6568 43.1677 42.0971 42.0515 43.3779 40.6638C44.1748 39.8002 45.6059 38.8531 47.1261 37.8531L47.1383 37.8451C47.9835 37.2891 48.8444 36.7228 49.5719 36.173C50.2889 35.6312 50.9481 35.0539 51.3294 34.4627C51.4578 34.2635 51.5624 34.0097 51.5401 33.7192C51.517 33.4169 51.3661 33.1927 51.2126 33.0436C51.0684 32.9036 50.9 32.8073 50.7668 32.7405C50.6342 32.674 50.4907 32.6148 50.3725 32.5661L50.3619 32.5618C50.2284 32.5067 50.121 32.4621 50.0267 32.4149C49.9865 32.3948 49.9546 32.3771 49.9296 32.3619C50.076 32.0376 50.3547 31.715 50.7687 31.2525L50.7943 31.2239C51.3606 30.5913 52.0943 29.7718 52.4426 28.577C52.5249 28.2944 52.5848 27.8284 52.2344 27.4737C51.928 27.1636 51.5097 27.1635 51.2995 27.1776C50.849 27.2078 50.2593 27.4037 49.7897 27.5597L49.7294 27.5797C49.4817 27.6619 49.2523 27.7379 49.044 27.7976C49.2551 27.3146 49.5171 26.8576 49.7769 26.4064L49.8087 26.3512C50.0975 25.8503 50.4168 25.2963 50.549 24.7799C50.6219 24.4953 50.6525 24.1742 50.5664 23.8451C50.4777 23.5063 50.2814 23.221 50.0041 22.9899C49.6083 22.6601 49.1216 22.6619 48.7424 22.7376C48.3564 22.8147 47.9408 22.9937 47.5288 23.2095C46.7091 23.6387 45.7201 24.3141 44.6999 25.0108L44.67 25.0312C43.1992 26.0356 41.6341 27.102 40.1903 27.762C39.7118 27.9808 39.1206 28.1658 38.445 28.3056C37.824 27.9429 37.2039 27.5972 36.5949 27.2724C35.1154 26.4835 33.6877 25.8113 32.4559 25.3187C31.2456 24.8347 30.1584 24.4968 29.3849 24.4248C28.0447 24.3002 26.9201 24.4078 25.9754 24.6759C25.943 24.6185 25.9112 24.5605 25.8801 24.502C25.0728 22.9801 24.7186 21.023 24.7186 18.7198C24.7186 15.6467 24.572 13.2144 23.84 11.5366C23.792 11.4266 23.7414 11.3194 23.6879 11.2151C24.1196 10.8201 24.3903 10.2521 24.3903 9.62092C24.3903 8.42786 23.4231 7.46069 22.2301 7.46069C22.0993 7.46069 21.971 7.47236 21.8462 7.49478C21.4007 6.88159 20.6774 6.48193 19.8601 6.48193C19.7174 6.48193 19.5773 6.49417 19.4409 6.51769C18.8926 5.83735 18.0516 5.40092 17.1084 5.40092ZM35.7407 28.5923C33.9152 28.6281 31.8478 28.3821 29.8359 27.7331C28.6585 27.3532 27.7292 26.7813 27.0034 26.046C27.6346 25.9354 28.3728 25.9038 29.2398 25.9845C29.7744 26.0342 30.6845 26.2973 31.8743 26.7731C33.0109 27.2276 34.3434 27.8517 35.7407 28.5923ZM10.8539 16.1319L13.1752 14.7886C13.2015 15.3971 13.3311 15.9689 13.5327 16.4965L10.8539 16.1319ZM23.1409 10.3732C23.3098 10.1689 23.4113 9.90674 23.4113 9.62092C23.4113 8.96853 22.8825 8.43967 22.2301 8.43967C22.0772 8.43967 21.9323 8.46845 21.7995 8.52045C21.5631 8.61305 21.2951 8.5095 21.1824 8.28197C20.9408 7.79441 20.439 7.46092 19.8601 7.46092C19.6954 7.46092 19.538 7.48773 19.3913 7.53685C19.1764 7.60885 18.9402 7.52388 18.8203 7.33148C18.4639 6.7591 17.8302 6.3799 17.1084 6.3799C15.9956 6.3799 15.0935 7.28202 15.0935 8.39485C15.0935 8.92286 15.2967 9.40359 15.6291 9.76295C16.5701 9.13314 17.7976 8.75276 19.3423 8.78789C20.4428 8.81292 21.377 9.03264 22.1436 9.50248C22.531 9.73989 22.8608 10.0321 23.1409 10.3732ZM33.1418 45.419C33.2783 45.4102 33.4159 45.4004 33.5546 45.3896C34.5961 45.308 35.5719 45.1431 36.4888 44.8993L35.3309 46.6252V46.3218C35.3309 45.9974 35.0679 45.7344 34.7435 45.7344C34.4191 45.7344 34.1561 45.9974 34.1561 46.3218V47.2499C33.8821 47.1685 33.6576 46.9583 33.5635 46.6774L33.1418 45.419ZM48.8355 28.3498C48.8351 28.3501 48.8356 28.3456 48.8381 28.3355C48.8371 28.3445 48.8359 28.3496 48.8355 28.3498Z"/>
</mask>
<path fill-rule="evenodd" clip-rule="evenodd" d="M17.1084 5.40092C15.4549 5.40092 14.1145 6.74135 14.1145 8.39485C14.1145 9.15767 14.3997 9.85371 14.8693 10.3823C14.7515 10.4984 14.6401 10.619 14.5351 10.7438C13.8026 11.6135 13.4021 12.6497 13.2469 13.6161L9.12635 16.0006C8.94527 16.1054 8.85081 16.3137 8.89128 16.5189C8.93175 16.7242 9.09821 16.881 9.30552 16.9093L14.0255 17.5515C14.0379 17.5532 14.0503 17.5544 14.0626 17.5552C14.6711 18.527 15.5007 19.2772 16.2571 19.734C16.4702 19.8627 16.6843 19.9793 16.8787 20.0853L16.8844 20.0884C17.4698 20.4075 17.8264 20.6163 18.0277 20.8877C18.1737 21.0846 18.2964 21.4008 18.0848 22.1121C17.9117 22.6936 17.6645 23.2992 17.3912 23.9665L17.3792 23.9959C16.9521 25.0389 16.4697 26.2171 16.2561 27.4871C15.6472 31.1058 15.5666 35.5581 17.7659 38.5852C19.2138 40.5781 21.1546 42.7871 24.3358 44.1537L24.8155 46.1805C25.0409 47.1327 25.7655 47.857 26.6727 48.1035V50.6826L23.7286 49.7646C23.4189 49.6681 23.0896 49.8409 22.993 50.1506C22.8965 50.4603 23.0692 50.7896 23.379 50.8862L24.6841 51.2931L22.5617 51.8324C22.2473 51.9123 22.0571 52.2319 22.137 52.5463C22.2169 52.8608 22.5366 53.0509 22.851 52.971L25.1893 52.3768L23.7349 53.5555C23.4828 53.7597 23.4441 54.1296 23.6483 54.3817C23.8526 54.6337 24.2225 54.6724 24.4745 54.4682L27.6065 51.93C27.7603 51.8054 27.84 51.6126 27.8214 51.4179C27.8384 51.3628 27.8475 51.3045 27.8475 51.2446V48.1902C28.75 48.1582 29.5772 47.6655 30.0408 46.8857L30.8832 45.4688C31.0887 45.4735 31.2972 45.4756 31.5086 45.475L32.0783 47.1751C32.387 48.0963 33.205 48.7416 34.1561 48.8401V50.6826L31.212 49.7646C30.9023 49.6681 30.573 49.8409 30.4764 50.1506C30.3798 50.4603 30.5526 50.7896 30.8623 50.8862L32.1674 51.2931L30.045 51.8324C29.7306 51.9123 29.5405 52.2319 29.6204 52.5463C29.7003 52.8608 30.0199 53.0509 30.3344 52.971L32.6726 52.3768L31.2182 53.5555C30.9662 53.7597 30.9274 54.1296 31.1317 54.3817C31.3359 54.6337 31.7058 54.6724 31.9579 54.4682L35.0899 51.93C35.2437 51.8054 35.3234 51.6126 35.3048 51.4179C35.3218 51.3628 35.3309 51.3045 35.3309 51.2446V48.6746C35.7813 48.4928 36.1746 48.179 36.4531 47.764L38.9973 43.9719C40.6568 43.1677 42.0971 42.0515 43.3779 40.6638C44.1748 39.8002 45.6059 38.8531 47.1261 37.8531L47.1383 37.8451C47.9835 37.2891 48.8444 36.7228 49.5719 36.173C50.2889 35.6312 50.9481 35.0539 51.3294 34.4627C51.4578 34.2635 51.5624 34.0097 51.5401 33.7192C51.517 33.4169 51.3661 33.1927 51.2126 33.0436C51.0684 32.9036 50.9 32.8073 50.7668 32.7405C50.6342 32.674 50.4907 32.6148 50.3725 32.5661L50.3619 32.5618C50.2284 32.5067 50.121 32.4621 50.0267 32.4149C49.9865 32.3948 49.9546 32.3771 49.9296 32.3619C50.076 32.0376 50.3547 31.715 50.7687 31.2525L50.7943 31.2239C51.3606 30.5913 52.0943 29.7718 52.4426 28.577C52.5249 28.2944 52.5848 27.8284 52.2344 27.4737C51.928 27.1636 51.5097 27.1635 51.2995 27.1776C50.849 27.2078 50.2593 27.4037 49.7897 27.5597L49.7294 27.5797C49.4817 27.6619 49.2523 27.7379 49.044 27.7976C49.2551 27.3146 49.5171 26.8576 49.7769 26.4064L49.8087 26.3512C50.0975 25.8503 50.4168 25.2963 50.549 24.7799C50.6219 24.4953 50.6525 24.1742 50.5664 23.8451C50.4777 23.5063 50.2814 23.221 50.0041 22.9899C49.6083 22.6601 49.1216 22.6619 48.7424 22.7376C48.3564 22.8147 47.9408 22.9937 47.5288 23.2095C46.7091 23.6387 45.7201 24.3141 44.6999 25.0108L44.67 25.0312C43.1992 26.0356 41.6341 27.102 40.1903 27.762C39.7118 27.9808 39.1206 28.1658 38.445 28.3056C37.824 27.9429 37.2039 27.5972 36.5949 27.2724C35.1154 26.4835 33.6877 25.8113 32.4559 25.3187C31.2456 24.8347 30.1584 24.4968 29.3849 24.4248C28.0447 24.3002 26.9201 24.4078 25.9754 24.6759C25.943 24.6185 25.9112 24.5605 25.8801 24.502C25.0728 22.9801 24.7186 21.023 24.7186 18.7198C24.7186 15.6467 24.572 13.2144 23.84 11.5366C23.792 11.4266 23.7414 11.3194 23.6879 11.2151C24.1196 10.8201 24.3903 10.2521 24.3903 9.62092C24.3903 8.42786 23.4231 7.46069 22.2301 7.46069C22.0993 7.46069 21.971 7.47236 21.8462 7.49478C21.4007 6.88159 20.6774 6.48193 19.8601 6.48193C19.7174 6.48193 19.5773 6.49417 19.4409 6.51769C18.8926 5.83735 18.0516 5.40092 17.1084 5.40092ZM35.7407 28.5923C33.9152 28.6281 31.8478 28.3821 29.8359 27.7331C28.6585 27.3532 27.7292 26.7813 27.0034 26.046C27.6346 25.9354 28.3728 25.9038 29.2398 25.9845C29.7744 26.0342 30.6845 26.2973 31.8743 26.7731C33.0109 27.2276 34.3434 27.8517 35.7407 28.5923ZM10.8539 16.1319L13.1752 14.7886C13.2015 15.3971 13.3311 15.9689 13.5327 16.4965L10.8539 16.1319ZM23.1409 10.3732C23.3098 10.1689 23.4113 9.90674 23.4113 9.62092C23.4113 8.96853 22.8825 8.43967 22.2301 8.43967C22.0772 8.43967 21.9323 8.46845 21.7995 8.52045C21.5631 8.61305 21.2951 8.5095 21.1824 8.28197C20.9408 7.79441 20.439 7.46092 19.8601 7.46092C19.6954 7.46092 19.538 7.48773 19.3913 7.53685C19.1764 7.60885 18.9402 7.52388 18.8203 7.33148C18.4639 6.7591 17.8302 6.3799 17.1084 6.3799C15.9956 6.3799 15.0935 7.28202 15.0935 8.39485C15.0935 8.92286 15.2967 9.40359 15.6291 9.76295C16.5701 9.13314 17.7976 8.75276 19.3423 8.78789C20.4428 8.81292 21.377 9.03264 22.1436 9.50248C22.531 9.73989 22.8608 10.0321 23.1409 10.3732ZM33.1418 45.419C33.2783 45.4102 33.4159 45.4004 33.5546 45.3896C34.5961 45.308 35.5719 45.1431 36.4888 44.8993L35.3309 46.6252V46.3218C35.3309 45.9974 35.0679 45.7344 34.7435 45.7344C34.4191 45.7344 34.1561 45.9974 34.1561 46.3218V47.2499C33.8821 47.1685 33.6576 46.9583 33.5635 46.6774L33.1418 45.419ZM48.8355 28.3498C48.8351 28.3501 48.8356 28.3456 48.8381 28.3355C48.8371 28.3445 48.8359 28.3496 48.8355 28.3498Z" fill="#F8F9FA"/>
<path d="M14.8693 10.3823L15.9219 11.4508C16.4907 10.8905 16.5209 9.98291 15.9906 9.38603L14.8693 10.3823ZM14.535 10.7437L15.6823 11.71L15.6823 11.71L14.535 10.7437ZM13.2468 13.616L13.9981 14.9143C14.3884 14.6885 14.6563 14.2991 14.7278 13.8539L13.2468 13.616ZM9.12631 16.0005L9.87761 17.2988L9.87761 17.2988L9.12631 16.0005ZM8.89123 16.5189L7.41957 16.8091L7.41957 16.8091L8.89123 16.5189ZM9.30548 16.9092L9.10322 18.3955L9.10322 18.3955L9.30548 16.9092ZM14.0254 17.5515L13.8232 19.0378L13.8232 19.0378L14.0254 17.5515ZM14.0626 17.5551L15.3339 16.7591C15.0765 16.3479 14.6361 16.0867 14.1519 16.0578L14.0626 17.5551ZM16.257 19.7339L15.4816 21.018L15.4816 21.018L16.257 19.7339ZM16.8787 20.0853L16.1608 21.4024L16.1609 21.4024L16.8787 20.0853ZM16.8843 20.0884L17.6022 18.7713L17.6021 18.7712L16.8843 20.0884ZM18.0276 20.8877L16.8227 21.7811L16.8227 21.7811L18.0276 20.8877ZM18.0847 22.112L16.647 21.6842L16.647 21.6842L18.0847 22.112ZM17.3912 23.9664L18.7793 24.5348L18.7793 24.5348L17.3912 23.9664ZM17.3791 23.9959L18.7673 24.5643L18.7673 24.5643L17.3791 23.9959ZM16.256 27.487L17.7352 27.7359L17.7352 27.7359L16.256 27.487ZM17.7659 38.5852L16.5523 39.4668L16.5523 39.4669L17.7659 38.5852ZM24.3357 44.1537L25.7954 43.8082C25.686 43.346 25.3642 42.963 24.9278 42.7755L24.3357 44.1537ZM24.8154 46.1805L23.3558 46.5259L23.3558 46.5259L24.8154 46.1805ZM26.6727 48.1034H28.1727C28.1727 47.4265 27.7192 46.8334 27.0659 46.6559L26.6727 48.1034ZM26.6727 50.6825L26.2262 52.1145C26.6816 52.2565 27.1773 52.1734 27.5616 51.8908C27.9458 51.6081 28.1727 51.1595 28.1727 50.6825H26.6727ZM23.7286 49.7646L23.2821 51.1966L23.2821 51.1966L23.7286 49.7646ZM22.993 50.1505L21.561 49.704L21.561 49.7041L22.993 50.1505ZM23.3789 50.8861L22.9324 52.3181L22.9324 52.3181L23.3789 50.8861ZM24.684 51.293L25.0534 52.7468C25.704 52.5815 26.1656 52.0041 26.1835 51.3331C26.2014 50.6621 25.7713 50.0608 25.1305 49.861L24.684 51.293ZM22.5616 51.8323L22.931 53.2861L22.931 53.2861L22.5616 51.8323ZM22.137 52.5463L23.5908 52.1769L23.5908 52.1769L22.137 52.5463ZM22.8509 52.9709L23.2203 54.4247L23.2204 54.4247L22.8509 52.9709ZM25.1892 52.3768L26.1336 53.5421C26.681 53.0986 26.8459 52.3339 26.53 51.7042C26.2141 51.0745 25.5026 50.7495 24.8198 50.923L25.1892 52.3768ZM23.7348 53.5554L24.6792 54.7208L24.6792 54.7208L23.7348 53.5554ZM23.6483 54.3816L24.8137 53.4372L24.8136 53.4372L23.6483 54.3816ZM24.4745 54.4681L23.53 53.3028L23.53 53.3028L24.4745 54.4681ZM27.6064 51.93L26.662 50.7646L26.662 50.7646L27.6064 51.93ZM27.8214 51.4178L26.3881 50.9752C26.3297 51.1645 26.3093 51.3635 26.3282 51.5607L27.8214 51.4178ZM27.8474 48.1902L27.7942 46.6911C26.987 46.7198 26.3474 47.3824 26.3474 48.1902H27.8474ZM30.0408 46.8856L31.3301 47.6522L31.3301 47.6522L30.0408 46.8856ZM30.8831 45.4687L30.9176 43.9691C30.3764 43.9567 29.8704 44.2369 29.5938 44.7022L30.8831 45.4687ZM31.5086 45.4749L32.9308 44.9983C32.7255 44.3854 32.1505 43.973 31.5041 43.9749L31.5086 45.4749ZM32.0782 47.175L33.5005 46.6984L33.5005 46.6984L32.0782 47.175ZM34.156 48.8401H35.656C35.656 48.0715 35.0751 47.4273 34.3106 47.3481L34.156 48.8401ZM34.156 50.6825L33.7096 52.1145C34.1649 52.2565 34.6607 52.1734 35.0449 51.8908C35.4292 51.6081 35.656 51.1595 35.656 50.6825H34.156ZM31.2119 49.7646L30.7655 51.1966L30.7655 51.1966L31.2119 49.7646ZM30.4763 50.1505L29.0443 49.704L29.0443 49.7041L30.4763 50.1505ZM30.8623 50.8861L30.4158 52.3181L30.4158 52.3181L30.8623 50.8861ZM32.1674 51.293L32.5368 52.7468C33.1874 52.5815 33.6489 52.0041 33.6668 51.3331C33.6848 50.6621 33.2547 50.0608 32.6139 49.861L32.1674 51.293ZM30.045 51.8323L30.4144 53.2861L30.4144 53.2861L30.045 51.8323ZM29.6204 52.5463L31.0742 52.1769L31.0742 52.1769L29.6204 52.5463ZM30.3343 52.9709L30.7037 54.4247L30.7037 54.4247L30.3343 52.9709ZM32.6726 52.3768L33.617 53.5421C34.1643 53.0986 34.3292 52.3339 34.0134 51.7042C33.6975 51.0745 32.986 50.7495 32.3032 50.923L32.6726 52.3768ZM31.2182 53.5554L32.1626 54.7208L32.1626 54.7208L31.2182 53.5554ZM31.1316 54.3816L32.297 53.4372L32.297 53.4372L31.1316 54.3816ZM31.9578 54.4681L31.0134 53.3028L31.0134 53.3028L31.9578 54.4681ZM35.0898 51.93L34.1454 50.7646L34.1454 50.7646L35.0898 51.93ZM35.3047 51.4178L33.8715 50.9752C33.8131 51.1645 33.7927 51.3635 33.8115 51.5607L35.3047 51.4178ZM35.3308 48.6745L34.7694 47.2835C34.2022 47.5125 33.8308 48.0629 33.8308 48.6745H35.3308ZM36.453 47.7639L35.2074 46.9282L35.2074 46.9282L36.453 47.7639ZM38.9972 43.9718L38.3431 42.622C38.1038 42.7379 37.8997 42.9153 37.7516 43.1361L38.9972 43.9718ZM43.3778 40.6637L42.2755 39.6464L42.2755 39.6464L43.3778 40.6637ZM47.1261 37.8531L46.3017 36.5999L46.3017 36.5999L47.1261 37.8531ZM47.1382 37.8451L47.9625 39.0983L47.9626 39.0982L47.1382 37.8451ZM49.5719 36.173L48.6676 34.9762L48.6676 34.9762L49.5719 36.173ZM51.3293 34.4626L50.0687 33.6497L50.0687 33.6497L51.3293 34.4626ZM51.5401 33.7192L53.0357 33.6047L53.0357 33.6047L51.5401 33.7192ZM51.2126 33.0436L52.2574 31.9673L52.2574 31.9673L51.2126 33.0436ZM50.7668 32.7405L50.0943 34.0813L50.0943 34.0813L50.7668 32.7405ZM50.3724 32.5661L49.8006 33.9528L49.8008 33.9529L50.3724 32.5661ZM50.3618 32.5617L49.79 33.9484L49.7901 33.9485L50.3618 32.5617ZM50.0267 32.4149L50.6975 31.0733L50.6975 31.0732L50.0267 32.4149ZM49.9295 32.3618L48.5623 31.7448C48.2507 32.4353 48.5029 33.2498 49.1502 33.6435L49.9295 32.3618ZM50.7686 31.2525L49.651 30.2521L49.6509 30.2521L50.7686 31.2525ZM50.7943 31.2238L49.6767 30.2233L49.6766 30.2234L50.7943 31.2238ZM52.4425 28.577L53.8826 28.9968L53.8826 28.9968L52.4425 28.577ZM52.2343 27.4737L53.3014 26.4195L53.3014 26.4195L52.2343 27.4737ZM51.2995 27.1776L51.3998 28.6742L51.3998 28.6742L51.2995 27.1776ZM49.7896 27.5597L50.2623 28.9833L50.2625 28.9832L49.7896 27.5597ZM49.7294 27.5797L50.2017 29.0034L50.2021 29.0033L49.7294 27.5797ZM49.044 27.7976L47.6695 27.1969C47.4368 27.7294 47.5326 28.3483 47.9153 28.7856C48.2981 29.2228 48.899 29.3997 49.4576 29.2394L49.044 27.7976ZM49.7769 26.4063L48.4772 25.6574L48.477 25.6577L49.7769 26.4063ZM49.8087 26.3511L48.5091 25.6021L48.509 25.6022L49.8087 26.3511ZM50.549 24.7798L49.0958 24.4077L49.0958 24.4077L50.549 24.7798ZM50.5664 23.8451L52.0175 23.4653L52.0175 23.4653L50.5664 23.8451ZM50.004 22.9899L49.0438 24.1422L49.0438 24.1422L50.004 22.9899ZM48.7424 22.7375L48.4487 21.2666L48.4487 21.2666L48.7424 22.7375ZM47.5287 23.2094L46.8328 21.8806L46.8328 21.8806L47.5287 23.2094ZM44.6998 25.0108L43.8539 23.7721L43.8539 23.7721L44.6998 25.0108ZM44.67 25.0311L45.5159 26.2699L45.5159 26.2699L44.67 25.0311ZM40.1903 27.762L39.5666 26.3978L39.5666 26.3978L40.1903 27.762ZM38.445 28.3055L37.6885 29.6008C38.0084 29.7876 38.3861 29.8495 38.7489 29.7744L38.445 28.3055ZM36.5949 27.2724L37.3007 25.9488L37.3007 25.9488L36.5949 27.2724ZM32.4559 25.3187L33.0128 23.9259L33.0128 23.9259L32.4559 25.3187ZM29.3848 24.4248L29.5238 22.9312L29.5238 22.9312L29.3848 24.4248ZM25.9754 24.6758L24.67 25.4147C25.0108 26.0169 25.7193 26.3078 26.3849 26.1189L25.9754 24.6758ZM25.8801 24.502L24.555 25.2049L24.555 25.2049L25.8801 24.502ZM23.84 11.5365L25.2148 10.9367L25.2148 10.9367L23.84 11.5365ZM23.6879 11.2151L22.6753 10.1084C22.1767 10.5646 22.0447 11.2979 22.353 11.8993L23.6879 11.2151ZM21.8461 7.49473L20.6326 8.37645C20.9708 8.84179 21.5452 9.0728 22.1113 8.9711L21.8461 7.49473ZM19.4408 6.51765L18.2728 7.45884C18.6145 7.88282 19.1591 8.08836 19.6957 7.99583L19.4408 6.51765ZM29.8359 27.733L30.2964 26.3055L30.2964 26.3055L29.8359 27.733ZM35.7407 28.5922L35.7701 30.0919C36.4535 30.0785 37.0414 29.6047 37.1998 28.9398C37.3582 28.2749 37.047 27.5869 36.4431 27.2668L35.7407 28.5922ZM27.0033 26.0459L26.7446 24.5684C26.1951 24.6646 25.7443 25.0579 25.5745 25.5893C25.4047 26.1208 25.5438 26.7026 25.9358 27.0996L27.0033 26.0459ZM29.2398 25.9844L29.1008 27.478L29.1008 27.478L29.2398 25.9844ZM31.8743 26.7731L32.4312 25.3803L32.4312 25.3803L31.8743 26.7731ZM13.1751 14.7886L14.6737 14.7237C14.651 14.1996 14.3562 13.7255 13.8962 13.4733C13.4362 13.2211 12.8779 13.2276 12.4238 13.4903L13.1751 14.7886ZM10.8538 16.1319L10.1025 14.8336C9.54761 15.1547 9.25814 15.7931 9.38217 16.4221C9.50619 17.0511 10.0163 17.5318 10.6516 17.6182L10.8538 16.1319ZM13.5326 16.4964L13.3304 17.9827C13.8552 18.0541 14.3787 17.8435 14.7079 17.4285C15.037 17.0136 15.1229 16.4558 14.9338 15.961L13.5326 16.4964ZM23.1408 10.3731L21.9816 11.3251C22.266 11.6714 22.6903 11.8724 23.1383 11.8731C23.5864 11.8739 24.0113 11.6743 24.2969 11.329L23.1408 10.3731ZM21.7995 8.5204L22.3465 9.91709L22.3465 9.91709L21.7995 8.5204ZM21.1823 8.28193L19.8382 8.94783L19.8382 8.94783L21.1823 8.28193ZM19.3913 7.53681L19.8677 8.95912L19.8677 8.95912L19.3913 7.53681ZM18.8203 7.33144L20.0936 6.53846L20.0936 6.53846L18.8203 7.33144ZM15.6291 9.76291L14.528 10.7815C15.0292 11.3233 15.8501 11.42 16.4634 11.0094L15.6291 9.76291ZM19.3423 8.78784L19.3764 7.28823L19.3764 7.28823L19.3423 8.78784ZM22.1436 9.50244L21.3598 10.7814L21.3598 10.7814L22.1436 9.50244ZM33.5546 45.3895L33.4375 43.8941L33.4375 43.8941L33.5546 45.3895ZM33.1418 45.4189L33.0458 43.922C32.5811 43.9518 32.1565 44.1958 31.8968 44.5823C31.6371 44.9688 31.5716 45.454 31.7195 45.8955L33.1418 45.4189ZM36.4887 44.8992L37.7344 45.735C38.0823 45.2163 38.0725 44.5363 37.7097 44.0279C37.3469 43.5195 36.707 43.2891 36.1033 43.4496L36.4887 44.8992ZM35.3308 46.6251H33.8308C33.8308 47.2853 34.2624 47.8679 34.894 48.0601C35.5256 48.2524 36.2086 48.0091 36.5764 47.4608L35.3308 46.6251ZM34.156 47.2499L33.7287 48.6877C34.1826 48.8226 34.6735 48.7353 35.053 48.4522C35.4325 48.169 35.656 47.7234 35.656 47.2499H34.156ZM33.5635 46.6773L34.9857 46.2008L34.9857 46.2008L33.5635 46.6773ZM48.8354 28.3498L49.6675 29.5978C49.6743 29.5933 49.6812 29.5887 49.6879 29.584L48.8354 28.3498ZM48.838 28.3355L50.3296 28.4938C50.4129 27.7089 49.8737 26.9938 49.0962 26.8579C48.3187 26.722 47.569 27.2119 47.3811 27.9785L48.838 28.3355ZM15.6145 8.3948C15.6145 7.56973 16.2833 6.90088 17.1084 6.90088V3.90088C14.6265 3.90088 12.6145 5.91288 12.6145 8.3948H15.6145ZM15.9906 9.38603C15.7556 9.12142 15.6145 8.77653 15.6145 8.3948H12.6145C12.6145 9.53872 13.0437 10.5859 13.7479 11.3785L15.9906 9.38603ZM15.6823 11.71C15.758 11.6202 15.8378 11.5337 15.9219 11.4508L13.8166 9.31369C13.6651 9.46291 13.5222 9.61779 13.3877 9.77745L15.6823 11.71ZM14.7278 13.8539C14.8474 13.1098 15.153 12.3385 15.6823 11.71L13.3877 9.77745C12.452 10.8884 11.9567 12.1896 11.7658 13.3781L14.7278 13.8539ZM9.87761 17.2988L13.9981 14.9143L12.4955 12.3177L8.375 14.7022L9.87761 17.2988ZM10.3629 16.2287C10.4465 16.6525 10.2514 17.0825 9.87761 17.2988L8.375 14.7022C7.639 15.1282 7.25507 15.9748 7.41957 16.8091L10.3629 16.2287ZM9.50773 15.4229C9.9357 15.4811 10.2793 15.8049 10.3629 16.2287L7.41957 16.8091C7.58407 17.6434 8.26063 18.2809 9.10322 18.3955L9.50773 15.4229ZM14.2277 16.0652L9.50773 15.4229L9.10322 18.3955L13.8232 19.0378L14.2277 16.0652ZM14.1519 16.0578C14.1772 16.0593 14.2025 16.0618 14.2276 16.0652L13.8232 19.0378C13.8732 19.0446 13.9232 19.0495 13.9733 19.0525L14.1519 16.0578ZM17.0325 18.4499C16.4633 18.1062 15.8092 17.5181 15.3339 16.7591L12.7913 18.3512C13.533 19.5357 14.5381 20.4481 15.4816 21.018L17.0325 18.4499ZM17.5966 18.7682C17.3984 18.6602 17.2128 18.5588 17.0325 18.4499L15.4816 21.018C15.7275 21.1664 15.9701 21.2984 16.1608 21.4024L17.5966 18.7682ZM17.6021 18.7712L17.5964 18.7682L16.1609 21.4024L16.1666 21.4055L17.6021 18.7712ZM19.2325 19.9942C18.7931 19.4017 18.0934 19.039 17.6022 18.7713L16.1664 21.4054C16.4652 21.5682 16.6418 21.6692 16.7633 21.7508C16.8795 21.829 16.8645 21.8375 16.8227 21.7811L19.2325 19.9942ZM19.5224 22.5399C19.6653 22.0596 19.7335 21.5896 19.6802 21.133C19.6226 20.6396 19.4358 20.2684 19.2325 19.9942L16.8227 21.7811C16.8028 21.7542 16.7717 21.7067 16.7448 21.6427C16.7177 21.5781 16.7051 21.5212 16.7004 21.481C16.6921 21.4095 16.7158 21.4532 16.647 21.6842L19.5224 22.5399ZM18.7793 24.5348C19.0461 23.8832 19.3241 23.2062 19.5224 22.5399L16.647 21.6842C16.4992 22.181 16.2827 22.715 16.003 23.3981L18.7793 24.5348ZM18.7673 24.5643L18.7793 24.5348L16.003 23.3981L15.991 23.4275L18.7673 24.5643ZM17.7352 27.7359C17.9169 26.6561 18.3317 25.628 18.7673 24.5643L15.991 23.4275C15.5725 24.4497 15.0225 25.7779 14.7768 27.2381L17.7352 27.7359ZM18.9794 37.7035C17.1644 35.2053 17.135 31.3034 17.7352 27.7359L14.7768 27.2381C14.1594 30.9082 13.9688 35.9108 16.5523 39.4668L18.9794 37.7035ZM24.9278 42.7755C22.1057 41.5631 20.359 39.6025 18.9794 37.7035L16.5523 39.4669C18.0684 41.5536 20.2034 44.011 23.7436 45.5319L24.9278 42.7755ZM26.2751 45.835L25.7954 43.8082L22.8761 44.4992L23.3558 46.5259L26.2751 45.835ZM27.0659 46.6559C26.6805 46.5512 26.3718 46.2433 26.2751 45.835L23.3558 46.5259C23.7099 48.0221 24.8505 49.1628 26.2794 49.551L27.0659 46.6559ZM28.1727 50.6825V48.1034H25.1727V50.6825H28.1727ZM23.2821 51.1966L26.2262 52.1145L27.1191 49.2505L24.1751 48.3326L23.2821 51.1966ZM24.425 50.597C24.275 51.0782 23.7633 51.3466 23.2821 51.1966L24.1751 48.3326C23.0745 47.9894 21.9041 48.6035 21.561 49.704L24.425 50.597ZM23.8254 49.4541C24.3066 49.6041 24.575 50.1158 24.425 50.597L21.561 49.7041C21.2178 50.8046 21.8318 51.975 22.9324 52.3181L23.8254 49.4541ZM25.1305 49.861L23.8254 49.4541L22.9324 52.3181L24.2375 52.7251L25.1305 49.861ZM22.931 53.2861L25.0534 52.7468L24.3146 49.8392L22.1922 50.3785L22.931 53.2861ZM23.5908 52.1769C23.7149 52.6654 23.4195 53.162 22.931 53.2861L22.1922 50.3785C21.0749 50.6624 20.3993 51.7984 20.6832 52.9157L23.5908 52.1769ZM22.4815 51.5171C22.97 51.393 23.4667 51.6884 23.5908 52.1769L20.6832 52.9157C20.9671 54.033 22.103 54.7086 23.2203 54.4247L22.4815 51.5171ZM24.8198 50.923L22.4815 51.5171L23.2204 54.4247L25.5586 53.8306L24.8198 50.923ZM24.6792 54.7208L26.1336 53.5421L24.2448 51.2114L22.7904 52.3901L24.6792 54.7208ZM24.8136 53.4372C25.131 53.8288 25.0708 54.4035 24.6792 54.7208L22.7904 52.3901C21.8947 53.1159 21.7571 54.4304 22.4829 55.326L24.8136 53.4372ZM23.53 53.3028C23.9216 52.9854 24.4963 53.0456 24.8137 53.4372L22.4829 55.326C23.2087 56.2217 24.5232 56.3593 25.4189 55.6335L23.53 53.3028ZM26.662 50.7646L23.53 53.3028L25.4189 55.6335L28.5509 53.0953L26.662 50.7646ZM26.3282 51.5607C26.2992 51.2579 26.4229 50.9584 26.662 50.7646L28.5508 53.0954C29.0976 52.6523 29.3808 51.9672 29.3145 51.2749L26.3282 51.5607ZM26.3474 51.2445C26.3474 51.1525 26.3614 51.0617 26.3881 50.9752L29.2546 51.8604C29.3153 51.6638 29.3474 51.4565 29.3474 51.2445H26.3474ZM26.3474 48.1902V51.2445H29.3474V48.1902H26.3474ZM28.7514 46.1191C28.5464 46.4639 28.1829 46.6773 27.7942 46.6911L27.9006 49.6892C29.3171 49.6389 30.6079 48.867 31.3301 47.6522L28.7514 46.1191ZM29.5938 44.7022L28.7514 46.1191L31.3301 47.6522L32.1725 46.2353L29.5938 44.7022ZM31.5041 43.9749C31.3055 43.9755 31.11 43.9735 30.9176 43.9691L30.8487 46.9683C31.0674 46.9734 31.2888 46.9756 31.513 46.9749L31.5041 43.9749ZM33.5005 46.6984L32.9308 44.9983L30.0863 45.9515L30.656 47.6516L33.5005 46.6984ZM34.3106 47.3481C33.94 47.3097 33.6209 47.0576 33.5005 46.6984L30.656 47.6516C31.153 49.135 32.4699 50.1734 34.0015 50.3321L34.3106 47.3481ZM35.656 50.6825V48.8401H32.656V50.6825H35.656ZM30.7655 51.1966L33.7096 52.1145L34.6025 49.2505L31.6584 48.3326L30.7655 51.1966ZM31.9084 50.597C31.7583 51.0782 31.2466 51.3466 30.7655 51.1966L31.6584 48.3326C30.5578 47.9894 29.3875 48.6035 29.0443 49.704L31.9084 50.597ZM31.3088 49.4541C31.7899 49.6041 32.0584 50.1158 31.9084 50.597L29.0443 49.7041C28.7012 50.8046 29.3152 51.975 30.4158 52.3181L31.3088 49.4541ZM32.6139 49.861L31.3087 49.4541L30.4158 52.3181L31.7209 52.7251L32.6139 49.861ZM30.4144 53.2861L32.5368 52.7468L31.798 49.8392L29.6756 50.3785L30.4144 53.2861ZM31.0742 52.1769C31.1983 52.6654 30.9029 53.162 30.4144 53.2861L29.6756 50.3785C28.5583 50.6624 27.8826 51.7984 28.1666 52.9157L31.0742 52.1769ZM29.9649 51.5171C30.4534 51.393 30.95 51.6884 31.0742 52.1769L28.1666 52.9157C28.4505 54.033 29.5864 54.7086 30.7037 54.4247L29.9649 51.5171ZM32.3032 50.923L29.9649 51.5171L30.7037 54.4247L33.042 53.8306L32.3032 50.923ZM32.1626 54.7208L33.617 53.5421L31.7282 51.2114L30.2738 52.3901L32.1626 54.7208ZM32.297 53.4372C32.6144 53.8288 32.5542 54.4035 32.1626 54.7208L30.2738 52.3901C29.3781 53.1159 29.2404 54.4304 29.9663 55.326L32.297 53.4372ZM31.0134 53.3028C31.405 52.9854 31.9797 53.0456 32.297 53.4372L29.9663 55.326C30.6921 56.2217 32.0066 56.3593 32.9022 55.6335L31.0134 53.3028ZM34.1454 50.7646L31.0134 53.3028L32.9022 55.6335L36.0342 53.0953L34.1454 50.7646ZM33.8115 51.5607C33.7826 51.2579 33.9063 50.9584 34.1454 50.7646L36.0342 53.0954C36.581 52.6523 36.8641 51.9672 36.7979 51.2749L33.8115 51.5607ZM33.8308 51.2445C33.8308 51.1525 33.8448 51.0617 33.8715 50.9752L36.7379 51.8604C36.7986 51.6638 36.8308 51.4565 36.8308 51.2445H33.8308ZM33.8308 48.6745V51.2445H36.8308V48.6745H33.8308ZM35.2074 46.9282C35.0988 47.09 34.9455 47.2125 34.7694 47.2835L35.8922 50.0655C36.6169 49.773 37.2503 49.2678 37.6986 48.5996L35.2074 46.9282ZM37.7516 43.1361L35.2074 46.9282L37.6986 48.5996L40.2428 44.8075L37.7516 43.1361ZM42.2755 39.6464C41.1056 40.914 39.8132 41.9096 38.3431 42.622L39.6513 45.3217C41.5003 44.4257 43.0885 43.1888 44.4801 41.681L42.2755 39.6464ZM46.3017 36.5999C44.8471 37.5567 43.2267 38.6157 42.2755 39.6464L44.4801 41.681C45.1228 40.9847 46.3646 40.1494 47.9504 39.1062L46.3017 36.5999ZM46.3139 36.5919L46.3017 36.5999L47.9504 39.1063L47.9625 39.0983L46.3139 36.5919ZM48.6676 34.9762C47.9866 35.4908 47.1695 36.0291 46.3139 36.5919L47.9626 39.0982C48.7975 38.549 49.702 37.9548 50.4762 37.3697L48.6676 34.9762ZM50.0687 33.6497C49.8409 34.003 49.3678 34.4471 48.6676 34.9762L50.4762 37.3697C51.2099 36.8153 52.0553 36.1047 52.59 35.2755L50.0687 33.6497ZM50.0445 33.8337C50.039 33.763 50.0505 33.7062 50.061 33.6729C50.0704 33.6434 50.0777 33.6357 50.0687 33.6497L52.59 35.2755C52.8238 34.9129 53.0915 34.3333 53.0357 33.6047L50.0445 33.8337ZM50.1677 34.1198C50.141 34.0939 50.0569 33.9963 50.0445 33.8337L53.0357 33.6047C52.977 32.8374 52.5912 32.2914 52.2574 31.9673L50.1677 34.1198ZM50.0943 34.0813C50.1302 34.0993 50.153 34.1125 50.1678 34.1221C50.1829 34.1319 50.1803 34.1321 50.1677 34.1198L52.2574 31.9673C51.9515 31.6703 51.6249 31.4928 51.4393 31.3997L50.0943 34.0813ZM49.8008 33.9529C49.9269 34.0049 50.0193 34.0437 50.0943 34.0813L51.4393 31.3997C51.2491 31.3043 51.0543 31.2247 50.9441 31.1793L49.8008 33.9529ZM49.7901 33.9485L49.8006 33.9528L50.9442 31.1793L50.9336 31.175L49.7901 33.9485ZM49.3558 33.7565C49.5077 33.8325 49.6677 33.898 49.79 33.9484L50.9337 31.175C50.789 31.1153 50.7341 31.0916 50.6975 31.0733L49.3558 33.7565ZM49.1502 33.6435C49.2156 33.6832 49.2843 33.7208 49.3558 33.7565L50.6975 31.0732C50.6885 31.0688 50.6935 31.0708 50.7089 31.0802L49.1502 33.6435ZM49.6509 30.2521C49.2827 30.6636 48.8233 31.1666 48.5623 31.7448L51.2968 32.9789C51.3285 32.9085 51.4267 32.7664 51.8864 32.2528L49.6509 30.2521ZM49.6766 30.2234L49.651 30.2521L51.8863 32.2528L51.912 32.2242L49.6766 30.2234ZM51.0024 28.1572C50.76 28.9889 50.2506 29.5822 49.6767 30.2233L51.9119 32.2243C52.4705 31.6003 53.4284 30.5546 53.8826 28.9968L51.0024 28.1572ZM51.1672 28.5279C51.121 28.4811 51.0792 28.4202 51.0495 28.3515C51.021 28.2856 51.0108 28.2294 51.0074 28.1935C51.0018 28.1345 51.0132 28.1202 51.0024 28.1572L53.8826 28.9968C54.005 28.5769 54.2512 27.3809 53.3014 26.4195L51.1672 28.5279ZM51.3998 28.6742C51.4436 28.6713 51.44 28.6759 51.41 28.6693C51.3695 28.6605 51.265 28.6269 51.1672 28.5279L53.3014 26.4195C52.4989 25.6072 51.4718 25.6626 51.1991 25.6809L51.3998 28.6742ZM50.2625 28.9832C50.7965 28.8058 51.1823 28.6888 51.3998 28.6742L51.1991 25.6809C50.5155 25.7268 49.722 26.0015 49.3167 26.1362L50.2625 28.9832ZM50.2021 29.0033L50.2623 28.9833L49.317 26.1361L49.2567 26.1561L50.2021 29.0033ZM49.4576 29.2394C49.701 29.1696 49.9609 29.0832 50.2017 29.0034L49.2571 26.156C49.0024 26.2405 48.8035 26.3061 48.6304 26.3557L49.4576 29.2394ZM48.477 25.6577C48.2224 26.0998 47.9189 26.6262 47.6695 27.1969L50.4184 28.3983C50.5913 28.0028 50.8116 27.6153 51.0767 27.155L48.477 25.6577ZM48.509 25.6022L48.4772 25.6574L51.0765 27.1552L51.1083 27.1001L48.509 25.6022ZM49.0958 24.4077C49.0248 24.6851 48.8271 25.0504 48.5091 25.6021L51.1082 27.1002C51.3677 26.6501 51.8086 25.9074 52.0021 25.1519L49.0958 24.4077ZM49.1153 24.2249C49.1172 24.2322 49.1282 24.2816 49.0958 24.4077L52.0021 25.1519C52.1155 24.709 52.1878 24.116 52.0175 23.4653L49.1153 24.2249ZM49.0438 24.1422C49.0828 24.1747 49.1003 24.1978 49.107 24.2078C49.1128 24.2166 49.1142 24.2208 49.1153 24.2249L52.0175 23.4653C51.8389 22.7829 51.4468 22.2396 50.9643 21.8375L49.0438 24.1422ZM49.0361 24.2085C49.0725 24.2012 49.1021 24.1977 49.1245 24.1965C49.1468 24.1953 49.1561 24.1967 49.1542 24.1964C49.1515 24.1961 49.1359 24.1935 49.1124 24.1836C49.0876 24.1732 49.0634 24.1586 49.0438 24.1422L50.9643 21.8375C50.0593 21.0833 49.0156 21.1534 48.4487 21.2666L49.0361 24.2085ZM48.2246 24.5382C48.5924 24.3456 48.8589 24.2439 49.0361 24.2085L48.4487 21.2666C47.8538 21.3854 47.2892 21.6416 46.8328 21.8806L48.2246 24.5382ZM45.5457 26.2495C46.5922 25.5349 47.5 24.9178 48.2246 24.5382L46.8328 21.8806C45.9182 22.3596 44.848 23.0932 43.8539 23.7721L45.5457 26.2495ZM45.5159 26.2699L45.5457 26.2495L43.8539 23.7721L43.8241 23.7924L45.5159 26.2699ZM40.8139 29.1262C42.3973 28.4023 44.0738 27.2547 45.5159 26.2699L43.8241 23.7924C42.3245 24.8165 40.8708 25.8016 39.5666 26.3978L40.8139 29.1262ZM38.7489 29.7744C39.505 29.618 40.2089 29.4028 40.8139 29.1262L39.5666 26.3978C39.2147 26.5587 38.736 26.7135 38.1411 26.8366L38.7489 29.7744ZM35.8891 28.596C36.4812 28.9117 37.0844 29.248 37.6885 29.6008L39.2014 27.0102C38.5636 26.6378 37.9266 26.2826 37.3007 25.9488L35.8891 28.596ZM31.8989 26.7114C33.07 27.1797 34.4475 27.8272 35.8891 28.596L37.3007 25.9488C35.7833 25.1397 34.3054 24.4428 33.0128 23.9259L31.8989 26.7114ZM29.2459 25.9183C29.7909 25.969 30.7088 26.2355 31.8989 26.7114L33.0128 23.9259C31.7822 23.4338 30.5258 23.0244 29.5238 22.9312L29.2459 25.9183ZM26.3849 26.1189C27.127 25.9082 28.0629 25.8083 29.2459 25.9183L29.5238 22.9312C28.0263 22.7919 26.7131 22.9072 25.5659 23.2328L26.3849 26.1189ZM24.555 25.2049C24.5924 25.2754 24.6307 25.3453 24.67 25.4147L27.2808 23.937C27.2551 23.8916 27.2299 23.8456 27.2052 23.799L24.555 25.2049ZM23.2185 18.7197C23.2185 21.1535 23.589 23.384 24.555 25.2049L27.2052 23.799C26.5565 22.5761 26.2185 20.8923 26.2185 18.7197H23.2185ZM22.4651 12.1363C23.0528 13.4834 23.2185 15.6017 23.2185 18.7197H26.2185C26.2185 15.6916 26.0912 12.9454 25.2148 10.9367L22.4651 12.1363ZM22.353 11.8993C22.3917 11.9747 22.4291 12.0537 22.4651 12.1363L25.2148 10.9367C25.1549 10.7994 25.091 10.664 25.0227 10.5308L22.353 11.8993ZM22.8903 9.62088C22.8903 9.81377 22.8095 9.98562 22.6753 10.1084L24.7004 12.3217C25.4296 11.6545 25.8903 10.6904 25.8903 9.62088H22.8903ZM22.23 8.96064C22.5947 8.96064 22.8903 9.25624 22.8903 9.62088H25.8903C25.8903 7.59939 24.2515 5.96064 22.23 5.96064V8.96064ZM22.1113 8.9711C22.1491 8.96432 22.1887 8.96064 22.23 8.96064V5.96064C22.0098 5.96064 21.7927 5.98031 21.5809 6.01836L22.1113 8.9711ZM19.86 7.98189C20.1764 7.98189 20.4569 8.13457 20.6326 8.37645L23.0596 6.61302C22.3443 5.62852 21.1783 4.98189 19.86 4.98189V7.98189ZM19.6957 7.99583C19.7484 7.98675 19.8032 7.98189 19.86 7.98189V4.98189C19.6315 4.98189 19.4061 5.00149 19.1859 5.03946L19.6957 7.99583ZM17.1084 6.90088C17.5782 6.90088 17.9968 7.11632 18.2728 7.45884L20.6088 5.57645C19.7883 4.55828 18.525 3.90088 17.1084 3.90088V6.90088ZM29.3754 29.1606C31.5613 29.8657 33.7959 30.1307 35.7701 30.0919L35.7112 27.0925C34.0343 27.1254 32.1341 26.8983 30.2964 26.3055L29.3754 29.1606ZM25.9358 27.0996C26.8468 28.0226 27.9909 28.714 29.3754 29.1606L30.2964 26.3055C29.326 25.9924 28.6116 25.54 28.0709 24.9922L25.9358 27.0996ZM29.3787 24.4909C28.3977 24.3996 27.5243 24.4319 26.7446 24.5684L27.262 27.5234C27.7447 27.4389 28.3478 27.4079 29.1008 27.478L29.3787 24.4909ZM32.4312 25.3803C31.2224 24.8969 30.1424 24.5619 29.3787 24.4909L29.1008 27.478C29.4063 27.5064 30.1466 27.6977 31.3173 28.1658L32.4312 25.3803ZM36.4431 27.2668C35.0087 26.5067 33.6271 25.8585 32.4312 25.3803L31.3173 28.1658C32.3947 28.5966 33.6781 29.1967 35.0383 29.9176L36.4431 27.2668ZM12.4238 13.4903L10.1025 14.8336L11.6051 17.4302L13.9264 16.0869L12.4238 13.4903ZM14.9338 15.961C14.7851 15.5717 14.6925 15.1584 14.6737 14.7237L11.6765 14.8534C11.7104 15.6357 11.877 16.366 12.1314 17.0318L14.9338 15.961ZM10.6516 17.6182L13.3304 17.9827L13.7349 15.0101L11.0561 14.6456L10.6516 17.6182ZM21.9113 9.62088C21.9113 9.54508 21.9396 9.47193 21.9848 9.41728L24.2969 11.329C24.6799 10.8657 24.9113 10.2683 24.9113 9.62088H21.9113ZM22.23 9.93962C22.054 9.93962 21.9113 9.79692 21.9113 9.62088H24.9113C24.9113 8.14006 23.7108 6.93962 22.23 6.93962V9.93962ZM22.3465 9.91709C22.3078 9.93227 22.2674 9.93962 22.23 9.93962V6.93962C21.887 6.93962 21.5567 7.00455 21.2524 7.12372L22.3465 9.91709ZM19.8382 8.94783C20.2964 9.87258 21.3856 10.2935 22.3465 9.91709L21.2524 7.12372C21.7405 6.93255 22.2937 7.14633 22.5264 7.61603L19.8382 8.94783ZM19.86 8.96087C19.8601 8.96087 19.8575 8.96079 19.8537 8.95967C19.8502 8.95864 19.8474 8.95726 19.8455 8.95603C19.8425 8.95414 19.8402 8.95187 19.8382 8.94783L22.5264 7.61603C22.0411 6.63644 21.0298 5.96087 19.86 5.96087V8.96087ZM19.8677 8.95912C19.8656 8.95984 19.8635 8.96033 19.8618 8.96062C19.86 8.96092 19.8593 8.96087 19.86 8.96087V5.96087C19.5313 5.96087 19.2131 6.01458 18.9148 6.1145L19.8677 8.95912ZM17.547 8.12441C18.034 8.9064 18.9942 9.25175 19.8677 8.95912L18.9148 6.11449C19.3585 5.96586 19.8462 6.14127 20.0936 6.53846L17.547 8.12441ZM17.1084 7.87986C17.2913 7.87986 17.4532 7.97377 17.547 8.12442L20.0936 6.53846C19.4744 5.54434 18.3691 4.87986 17.1084 4.87986V7.87986ZM16.5934 8.3948C16.5934 8.11041 16.824 7.87986 17.1084 7.87986V4.87986C15.1671 4.87986 13.5934 6.45355 13.5934 8.3948H16.5934ZM16.7302 8.74431C16.644 8.65112 16.5934 8.5304 16.5934 8.3948H13.5934C13.5934 9.31522 13.9493 10.156 14.528 10.7815L16.7302 8.74431ZM19.3764 7.28823C17.557 7.24685 16.0191 7.69687 14.7947 8.51638L16.4634 11.0094C17.121 10.5693 18.0381 10.2586 19.3082 10.2875L19.3764 7.28823ZM22.9274 8.22351C21.8676 7.57399 20.6501 7.3172 19.3764 7.28823L19.3082 10.2875C20.2354 10.3085 20.8863 10.4912 21.3598 10.7814L22.9274 8.22351ZM24.3 9.42114C23.9178 8.95571 23.4624 8.55142 22.9274 8.22351L21.3598 10.7814C21.5995 10.9283 21.8036 11.1083 21.9816 11.3251L24.3 9.42114ZM33.4375 43.8941C33.3057 43.9044 33.1752 43.9137 33.0458 43.922L33.2378 46.9159C33.3813 46.9067 33.5259 46.8964 33.6716 46.8849L33.4375 43.8941ZM36.1033 43.4496C35.2799 43.6685 34.3943 43.8192 33.4375 43.8941L33.6716 46.8849C34.7978 46.7968 35.8637 46.6175 36.8741 46.3489L36.1033 43.4496ZM36.5764 47.4608L37.7344 45.735L35.2431 44.0635L34.0852 45.7894L36.5764 47.4608ZM33.8308 46.3217V46.6251H36.8308V46.3217H33.8308ZM34.7434 47.2344C34.2394 47.2344 33.8308 46.8258 33.8308 46.3217H36.8308C36.8308 45.1689 35.8962 44.2344 34.7434 44.2344V47.2344ZM35.656 46.3217C35.656 46.8258 35.2474 47.2344 34.7434 47.2344V44.2344C33.5906 44.2344 32.656 45.1689 32.656 46.3217H35.656ZM35.656 47.2499V46.3217H32.656V47.2499H35.656ZM32.1412 47.1539C32.3935 47.9071 32.9954 48.4698 33.7287 48.6877L34.5833 45.812C34.7687 45.8671 34.9216 46.0093 34.9857 46.2008L32.1412 47.1539ZM31.7195 45.8955L32.1412 47.1539L34.9857 46.2008L34.5641 44.9424L31.7195 45.8955ZM48.0034 27.1017C48.1889 26.978 48.5581 26.7961 49.0441 26.8644C49.5454 26.9348 49.8635 27.2272 50.0221 27.4323C50.275 27.7594 50.3144 28.0989 50.3179 28.1214C50.3432 28.2861 50.3338 28.4185 50.333 28.4329C50.3287 28.5103 50.319 28.5698 50.3163 28.5865C50.3083 28.6361 50.2995 28.6737 50.2949 28.6925L47.3811 27.9785C47.374 28.0074 47.3638 28.0522 47.355 28.1064C47.3519 28.1256 47.3421 28.1867 47.3377 28.2652C47.3368 28.2802 47.3274 28.413 47.3528 28.5778C47.3563 28.6005 47.3957 28.9401 47.6487 29.2673C47.8073 29.4723 48.1254 29.7648 48.6268 29.8352C49.1127 29.9035 49.482 29.7215 49.6675 29.5978L48.0034 27.1017ZM47.3464 28.1772C47.3497 28.1459 47.3552 28.1047 47.3647 28.0562C47.3689 28.0349 47.3776 27.9931 47.3924 27.9408C47.3987 27.9185 47.4145 27.864 47.4412 27.7967C47.4536 27.7653 47.4812 27.6982 47.526 27.6181C47.5487 27.5775 47.5875 27.5122 47.6444 27.4379C47.6937 27.3736 47.8037 27.2394 47.983 27.1156L49.6879 29.584C49.9934 29.373 50.133 29.1027 50.145 29.0813C50.1899 29.001 50.2175 28.9338 50.2301 28.9022C50.2569 28.8345 50.2729 28.7795 50.2794 28.7565C50.2945 28.703 50.3036 28.6593 50.3083 28.6356C50.3188 28.5823 50.3253 28.5341 50.3296 28.4938L47.3464 28.1772Z" fill="#F8F9FA" mask="url(#path-1-outside-1_50_7987)"/>
<path d="M27.2749 46.3164V51.2392L22.7212 52.3963" stroke="#212529" stroke-width="1.2" stroke-linecap="round" stroke-linejoin="round"/>
<path d="M23.5686 50.3198L27.2515 51.4681L24.1195 54.0062" stroke="#212529" stroke-width="1.2" stroke-linecap="round" stroke-linejoin="round"/>
<path d="M34.7585 46.3164V51.2392L30.2047 52.3963" stroke="#212529" stroke-width="1.2" stroke-linecap="round" stroke-linejoin="round"/>
<path d="M31.0521 50.3198L34.735 51.4681L31.603 54.0062" stroke="#212529" stroke-width="1.2" stroke-linecap="round" stroke-linejoin="round"/>
<path d="M32.8358 46.9213L32.0025 44.4347C31.5511 43.0875 32.1159 41.6091 33.3506 40.9061C33.602 40.7629 33.8729 40.6572 34.1548 40.5923L41.4617 38.9102L35.8175 47.3227C35.5062 47.7867 34.9842 48.0651 34.4254 48.0651C33.7047 48.0651 33.0647 47.6046 32.8358 46.9213Z" fill="#FFF9DB" stroke="#212529" stroke-width="1.6" stroke-linecap="round" stroke-linejoin="round"/>
<path fill-rule="evenodd" clip-rule="evenodd" d="M21.6849 11.1904C21.86 11.2526 22.0485 11.2865 22.245 11.2865C23.1677 11.2865 23.9157 10.5385 23.9157 9.6158C23.9157 8.69307 23.1677 7.94505 22.245 7.94505C22.0301 7.94505 21.8246 7.98562 21.6359 8.05953C21.3149 7.4117 20.647 6.96631 19.875 6.96631C19.6568 6.96631 19.4469 7.0019 19.2508 7.0676C18.8087 6.35772 18.0212 5.88525 17.1233 5.88525C15.7402 5.88525 14.6189 7.00653 14.6189 8.38968C14.6189 9.67567 15.5882 10.7353 16.836 10.8778V10.8897L21.6677 11.2503L21.6849 11.1904Z" fill="#FF6B6B"/>
<path d="M21.6849 11.1904L21.886 10.6251C21.7301 10.5696 21.5581 10.581 21.4109 10.6566C21.2636 10.7323 21.1541 10.8653 21.1084 11.0244L21.6849 11.1904ZM21.6359 8.05953L21.0983 8.3259C21.2365 8.60478 21.5649 8.73171 21.8547 8.61821L21.6359 8.05953ZM19.2508 7.0676L18.7415 7.38478C18.8883 7.62062 19.1779 7.72478 19.4414 7.63653L19.2508 7.0676ZM16.836 10.8778H17.436C17.436 10.5728 17.2071 10.3163 16.9041 10.2817L16.836 10.8778ZM16.836 10.8897H16.236C16.236 11.2038 16.4782 11.4647 16.7913 11.4881L16.836 10.8897ZM21.6677 11.2503L21.623 11.8486C21.9064 11.8698 22.1657 11.6893 22.2443 11.4163L21.6677 11.2503ZM21.4839 11.7557C21.7226 11.8406 21.9791 11.8865 22.245 11.8865V10.6865C22.118 10.6865 21.9974 10.6647 21.886 10.6251L21.4839 11.7557ZM22.245 11.8865C23.4991 11.8865 24.5157 10.8699 24.5157 9.6158H23.3157C23.3157 10.2072 22.8363 10.6865 22.245 10.6865V11.8865ZM24.5157 9.6158C24.5157 8.3617 23.4991 7.34505 22.245 7.34505V8.54505C22.8363 8.54505 23.3157 9.02444 23.3157 9.6158H24.5157ZM22.245 7.34505C21.954 7.34505 21.6744 7.40008 21.4171 7.50085L21.8547 8.61821C21.9748 8.57117 22.1061 8.54505 22.245 8.54505V7.34505ZM22.1735 7.79316C21.7552 6.94887 20.8837 6.36631 19.875 6.36631V7.56631C20.4103 7.56631 20.8747 7.87453 21.0983 8.3259L22.1735 7.79316ZM19.875 6.36631C19.5912 6.36631 19.3169 6.41266 19.0602 6.49868L19.4414 7.63653C19.5768 7.59114 19.7224 7.56631 19.875 7.56631V6.36631ZM19.7601 6.75042C19.213 5.87203 18.237 5.28525 17.1233 5.28525V6.48525C17.8054 6.48525 18.4043 6.84341 18.7415 7.38478L19.7601 6.75042ZM17.1233 5.28525C15.4088 5.28525 14.0189 6.67516 14.0189 8.38968H15.2189C15.2189 7.3379 16.0715 6.48525 17.1233 6.48525V5.28525ZM14.0189 8.38968C14.0189 9.98418 15.2205 11.2972 16.7679 11.4739L16.9041 10.2817C15.9558 10.1734 15.2189 9.36717 15.2189 8.38968H14.0189ZM17.436 10.8897V10.8778H16.236V10.8897H17.436ZM21.7123 10.652L16.8806 10.2914L16.7913 11.4881L21.623 11.8486L21.7123 10.652ZM21.1084 11.0244L21.0911 11.0843L22.2443 11.4163L22.2615 11.3564L21.1084 11.0244Z" fill="#212529"/>
<path fill-rule="evenodd" clip-rule="evenodd" d="M45.0715 25.592C43.6136 26.5876 41.9977 27.691 40.4902 28.3802C38.211 29.4221 33.7862 29.7175 29.6405 28.3802C25.4949 27.0428 24.0483 23.4403 24.0483 18.7146C24.0483 12.5263 23.4268 9.56079 19.3418 9.46789C15.2567 9.37499 13.8705 12.4316 13.8705 14.5534C13.8705 16.6752 15.341 18.366 16.6263 19.1422C16.8265 19.2631 17.0294 19.3737 17.2273 19.4816C18.3215 20.078 19.2655 20.5925 18.7566 22.3024C18.572 22.9227 18.3108 23.5608 18.0404 24.221C17.6059 25.2824 17.1478 26.4012 16.9469 27.5956C16.342 31.1911 16.3116 35.3918 18.3353 38.1773C19.8001 40.1934 21.7314 42.3669 24.937 43.65L25.4898 45.9854C25.7024 46.8836 26.5019 47.5114 27.4239 47.5042L27.7602 47.5016C28.4637 47.4962 29.1167 47.1193 29.4791 46.5097L30.5159 44.7659C31.4462 44.8039 32.4441 44.7852 33.5161 44.7013C37.5242 44.3875 40.4903 42.7933 42.8893 40.1939C43.7566 39.2541 45.2737 38.2562 46.7645 37.2755C48.4727 36.1518 50.1464 35.0508 50.7685 34.0862C51.0878 33.591 50.6183 33.3974 50.1157 33.1902C49.6001 32.9776 49.0498 32.7507 49.28 32.1692C49.4712 31.6863 49.8543 31.2583 50.273 30.7904C50.8501 30.1456 51.4951 29.4249 51.7996 28.3801C52.0466 27.533 50.9944 27.882 49.9602 28.225C48.9385 28.564 47.9343 28.8971 48.2177 28.0652C48.471 27.3217 48.8557 26.6538 49.1981 26.0593C49.8272 24.9669 50.3137 24.1223 49.5804 23.5112C48.922 22.9626 47.1586 24.1668 45.0715 25.592Z" fill="#FFF4E6"/>
<path d="M40.4903 28.3802L40.7813 29.0168L40.7813 29.0168L40.4903 28.3802ZM45.0715 25.592L45.4663 26.1701L45.4663 26.1701L45.0715 25.592ZM29.6406 28.3802L29.4257 29.0464L29.4257 29.0464L29.6406 28.3802ZM19.3418 9.46789L19.3577 8.76807L19.3418 9.46789ZM13.8705 14.5534L13.1705 14.5534L13.1705 14.5534L13.8705 14.5534ZM16.6264 19.1422L16.2645 19.7415L16.2645 19.7415L16.6264 19.1422ZM17.2274 19.4816L16.8924 20.0962L16.8924 20.0962L17.2274 19.4816ZM18.7566 22.3024L19.4275 22.5021L19.4275 22.5021L18.7566 22.3024ZM18.0405 24.221L18.6883 24.4863L18.6883 24.4863L18.0405 24.221ZM16.9469 27.5956L17.6372 27.7118L17.6372 27.7118L16.9469 27.5956ZM18.3354 38.1773L18.9017 37.7659L18.3354 38.1773ZM24.9371 43.65L25.6182 43.4887C25.5658 43.267 25.4087 43.0847 25.1972 43.0001L24.9371 43.65ZM25.4898 45.9854L24.8086 46.1466L24.8086 46.1466L25.4898 45.9854ZM27.424 47.5042L27.4294 48.2042L27.4294 48.2042L27.424 47.5042ZM27.7602 47.5016L27.7548 46.8016L27.7548 46.8016L27.7602 47.5016ZM29.4791 46.5097L30.0808 46.8675L30.0808 46.8675L29.4791 46.5097ZM30.5159 44.7659L30.5444 44.0665C30.2876 44.056 30.0456 44.1872 29.9142 44.4082L30.5159 44.7659ZM33.5162 44.7013L33.4615 44.0034L33.4615 44.0034L33.5162 44.7013ZM42.8893 40.1939L42.3749 39.7191L42.3749 39.7191L42.8893 40.1939ZM46.7645 37.2755L47.1492 37.8603L47.1492 37.8603L46.7645 37.2755ZM50.7685 34.0862L51.3568 34.4655L51.3568 34.4655L50.7685 34.0862ZM50.1157 33.1902L49.8488 33.8373L49.8489 33.8373L50.1157 33.1902ZM49.28 32.1692L49.9309 32.427L49.9309 32.4269L49.28 32.1692ZM50.2731 30.7904L50.7947 31.2572L50.7947 31.2572L50.2731 30.7904ZM51.7997 28.3801L52.4717 28.576L52.4717 28.576L51.7997 28.3801ZM49.9602 28.225L50.1806 28.8895L50.1806 28.8895L49.9602 28.225ZM48.2177 28.0652L48.8803 28.291L48.8803 28.291L48.2177 28.0652ZM49.1981 26.0593L48.5915 25.7099L48.5915 25.7099L49.1981 26.0593ZM49.5804 23.5112L50.0285 22.9735L50.0285 22.9735L49.5804 23.5112ZM40.7813 29.0168C42.3539 28.2979 44.0216 27.1566 45.4663 26.1701L44.6768 25.0139C43.2056 26.0185 41.6416 27.0841 40.1992 27.7435L40.7813 29.0168ZM29.4257 29.0464C33.6987 30.4247 38.3093 30.1469 40.7813 29.0168L40.1992 27.7435C38.1128 28.6974 33.8738 29.0102 29.8555 27.714L29.4257 29.0464ZM23.3483 18.7146C23.3483 21.1384 23.7176 23.348 24.6714 25.1461C25.6377 26.9674 27.1815 28.3224 29.4257 29.0464L29.8555 27.714C27.9539 27.1006 26.7017 25.9857 25.9082 24.49C25.1024 22.971 24.7483 21.0166 24.7483 18.7146H23.3483ZM19.3259 10.1677C20.2662 10.1891 20.9388 10.3745 21.4348 10.6785C21.9227 10.9775 22.2981 11.4269 22.5854 12.0854C23.1839 13.4574 23.3483 15.5989 23.3483 18.7146H24.7483C24.7483 15.642 24.602 13.2067 23.8685 11.5256C23.4898 10.6575 22.9439 9.96135 22.1664 9.48482C21.3969 9.01323 20.4599 8.79314 19.3577 8.76807L19.3259 10.1677ZM14.5705 14.5534C14.5705 13.6272 14.8768 12.5012 15.6097 11.6311C16.3214 10.786 17.4812 10.1258 19.3259 10.1677L19.3577 8.76807C17.1173 8.71712 15.5415 9.53873 14.5389 10.7292C13.5574 11.8945 13.1705 13.3578 13.1705 14.5534L14.5705 14.5534ZM16.9882 18.543C15.8357 17.847 14.5705 16.3517 14.5705 14.5534L13.1705 14.5534C13.1705 16.9987 14.8464 18.8851 16.2645 19.7415L16.9882 18.543ZM17.5624 18.867C17.3623 18.7579 17.1729 18.6546 16.9882 18.543L16.2645 19.7415C16.48 19.8716 16.6964 19.9894 16.8924 20.0962L17.5624 18.867ZM19.4275 22.5021C19.7257 21.5003 19.6312 20.6992 19.1554 20.0575C18.7361 19.492 18.0703 19.1438 17.5624 18.867L16.8924 20.0962C17.4786 20.4158 17.8319 20.6231 18.0309 20.8914C18.1734 21.0836 18.2965 21.3946 18.0857 22.1028L19.4275 22.5021ZM18.6883 24.4863C18.9557 23.8332 19.2312 23.1619 19.4275 22.5021L18.0857 22.1028C17.9129 22.6835 17.6659 23.2883 17.3927 23.9558L18.6883 24.4863ZM17.6372 27.7118C17.8231 26.6067 18.249 25.559 18.6883 24.4863L17.3927 23.9558C16.9628 25.0058 16.4726 26.1957 16.2566 27.4795L17.6372 27.7118ZM18.9017 37.7659C17.0573 35.2272 17.0363 31.2833 17.6372 27.7118L16.2566 27.4795C15.6477 31.0988 15.566 35.5564 17.769 38.5888L18.9017 37.7659ZM25.1972 43.0001C22.1688 41.788 20.3329 39.7359 18.9017 37.7659L17.769 38.5888C19.2672 40.6509 21.2941 42.9458 24.6769 44.2998L25.1972 43.0001ZM26.171 45.8242L25.6182 43.4887L24.2559 43.8112L24.8086 46.1466L26.171 45.8242ZM27.4185 46.8043C26.8235 46.8089 26.3085 46.4051 26.171 45.8242L24.8086 46.1466C25.0963 47.3621 26.1804 48.2139 27.4294 48.2042L27.4185 46.8043ZM27.7548 46.8016L27.4185 46.8043L27.4294 48.2042L27.7656 48.2016L27.7548 46.8016ZM28.8775 46.152C28.639 46.5531 28.2109 46.7981 27.7548 46.8016L27.7656 48.2016C28.7165 48.1942 29.5945 47.6855 30.0808 46.8675L28.8775 46.152ZM29.9142 44.4082L28.8774 46.152L30.0808 46.8675L31.1176 45.1236L29.9142 44.4082ZM33.4615 44.0034C32.4151 44.0853 31.445 44.1032 30.5444 44.0665L30.4874 45.4653C31.4474 45.5045 32.4731 45.485 33.5708 45.3991L33.4615 44.0034ZM42.3749 39.7191C40.0904 42.1944 37.2864 43.704 33.4615 44.0034L33.5708 45.3991C37.7622 45.0711 40.8901 43.3921 43.4037 40.6686L42.3749 39.7191ZM46.3798 36.6907C44.919 37.6516 43.3141 38.7015 42.3749 39.7191L43.4037 40.6686C44.1991 39.8067 45.6284 38.8607 47.1492 37.8603L46.3798 36.6907ZM50.1802 33.7068C49.9409 34.0779 49.4541 34.532 48.7518 35.0627C48.0639 35.5825 47.239 36.1255 46.3798 36.6907L47.1492 37.8603C47.9983 37.3018 48.8643 36.7324 49.5958 36.1797C50.313 35.6378 50.974 35.0591 51.3568 34.4655L50.1802 33.7068ZM49.8489 33.8373C49.9801 33.8915 50.0785 33.9324 50.1608 33.9737C50.2465 34.0167 50.2682 34.0378 50.2627 34.0325C50.2477 34.0179 50.1835 33.9447 50.1739 33.8198C50.1653 33.7071 50.2104 33.66 50.1802 33.7068L51.3568 34.4655C51.4863 34.2647 51.5924 34.0078 51.5698 33.713C51.5463 33.4061 51.3932 33.1787 51.2379 33.028C51.0921 32.8864 50.9221 32.7893 50.7885 32.7223C50.6513 32.6535 50.5026 32.5925 50.3825 32.543L49.8489 33.8373ZM48.6292 31.9115C48.5297 32.1629 48.4914 32.439 48.5629 32.718C48.6335 32.9935 48.7919 33.196 48.9498 33.3383C49.2319 33.5923 49.6277 33.7461 49.8488 33.8373L50.3825 32.543C50.2489 32.4879 50.142 32.4435 50.0483 32.3967C49.9534 32.3492 49.9064 32.3157 49.8866 32.2978C49.8713 32.2841 49.903 32.3076 49.919 32.3703C49.936 32.4366 49.9153 32.4663 49.9309 32.427L48.6292 31.9115ZM49.7515 30.3236C49.3558 30.7656 48.8755 31.2896 48.6292 31.9115L49.9309 32.4269C50.067 32.0831 50.3527 31.751 50.7947 31.2572L49.7515 30.3236ZM51.1277 28.1842C50.8731 29.0573 50.3362 29.6702 49.7515 30.3236L50.7947 31.2572C51.3641 30.6209 52.1171 29.7925 52.4717 28.576L51.1277 28.1842ZM50.1806 28.8895C50.4427 28.8025 50.6866 28.7217 50.9086 28.6592C51.1369 28.5948 51.3011 28.5618 51.4072 28.5547C51.5579 28.5446 51.415 28.5952 51.2639 28.4422C51.0679 28.2438 51.1683 28.0447 51.1277 28.1842L52.4717 28.576C52.5545 28.2919 52.6161 27.8189 52.2599 27.4583C51.9486 27.1432 51.5244 27.1437 51.3136 27.1578C50.8412 27.1895 50.2176 27.4022 49.7398 27.5606L50.1806 28.8895ZM47.5551 27.8395C47.4674 28.0971 47.3671 28.5685 47.6995 28.9492C48.0037 29.2975 48.4458 29.2953 48.6437 29.2828C49.1 29.254 49.7113 29.0451 50.1806 28.8895L49.7398 27.5606C49.4808 27.6466 49.2422 27.7256 49.0269 27.7864C48.8047 27.8491 48.6505 27.8796 48.5555 27.8856C48.5092 27.8885 48.5096 27.8831 48.5388 27.8901C48.5714 27.8979 48.667 27.9286 48.754 28.0284C48.946 28.2482 48.8264 28.4492 48.8803 28.291L47.5551 27.8395ZM48.5915 25.7099C48.2535 26.2968 47.8338 27.0216 47.5551 27.8395L48.8803 28.291C49.1083 27.6218 49.4579 27.0107 49.8047 26.4086L48.5915 25.7099ZM49.1323 24.049C49.2196 24.1218 49.2355 24.1687 49.2413 24.1908C49.2497 24.223 49.2574 24.2932 49.2221 24.4311C49.1426 24.7414 48.9243 25.1321 48.5915 25.7099L49.8047 26.4086C50.1011 25.8941 50.4406 25.3163 50.5783 24.7784C50.6516 24.4923 50.6826 24.1685 50.5957 23.8363C50.5061 23.4941 50.3079 23.2062 50.0285 22.9735L49.1323 24.049ZM45.4663 26.1701C46.5228 25.4486 47.447 24.8188 48.1865 24.4315C48.5581 24.2369 48.8358 24.1295 49.0287 24.0909C49.2287 24.051 49.2039 24.1087 49.1323 24.049L50.0285 22.9735C49.6278 22.6395 49.1356 22.642 48.7546 22.718C48.3665 22.7955 47.9495 22.9753 47.537 23.1913C46.7084 23.6253 45.7073 24.3102 44.6768 25.0139L45.4663 26.1701Z" fill="#212529"/>
<path d="M17.4395 13.8672C17.8741 13.8672 18.2264 13.5177 18.2264 13.0865C18.2264 12.6552 17.8741 12.3057 17.4395 12.3057C17.0049 12.3057 16.6526 12.6552 16.6526 13.0865C16.6526 13.5177 17.0049 13.8672 17.4395 13.8672Z" fill="#212529"/>
<path d="M9.38646 16.4187L13.8441 13.9143C14.6508 14.588 14.8471 16.1482 14.2773 17.0373L9.38646 16.4187Z" fill="#FFEC99" stroke="#212529" stroke-linecap="round" stroke-linejoin="round"/>
<g style="mix-blend-mode:multiply">
<path d="M29.149 26.5267C23.7247 26.0221 22.5 29.5962 21.8826 31.0543C20.5766 35.7117 23.0298 37.4256 26.1806 38.297C29.3313 39.1684 48.8544 38.957 44.3748 34.9027C39.8952 30.8483 31.7652 26.77 29.149 26.5267Z" fill="#DEE2E6"/>
</g>
<path d="M29.3274 25.1995C23.9031 24.695 22.6783 28.269 22.0609 29.7272C20.7549 34.3846 23.2082 36.0985 26.3589 36.9699C29.5097 37.8413 49.0327 37.6299 44.5531 33.5755C40.0736 29.5212 31.9436 25.4429 29.3274 25.1995Z" fill="#FFF4E6" stroke="#212529" stroke-width="1.2" stroke-linejoin="round"/>
<g style="mix-blend-mode:multiply">
<path d="M47.6809 32.4019C47.6256 31.6831 48.9477 29.7762 49.6157 28.9126C50.1455 28.4519 51.2949 27.6617 51.6542 28.1869C52.1034 28.8433 49.6157 31.9183 49.2702 32.4019C48.9939 32.7887 49.8921 33.5997 50.3758 33.9568C49.9889 34.4543 47.2663 36.2371 45.9534 37.0663L48.5101 33.9568C48.2567 33.7379 47.7361 33.1206 47.6809 32.4019Z" fill="#DEE2E6"/>
</g>
<g style="mix-blend-mode:soft-light" opacity="0.8">
<path d="M30.2614 27.3249C30.7221 27.4073 30.7641 26.9013 30.4859 26.6445C30.2527 26.4292 29.2292 26.2071 28.4127 26.301C27.5962 26.3948 27.656 27.0512 27.9985 27.087C28.3411 27.1229 29.6855 27.2219 30.2614 27.3249Z" fill="#F8F9FA"/>
</g>
</svg>
