<svg width="60" height="60" viewBox="0 0 60 60" fill="none" xmlns="http://www.w3.org/2000/svg">
<g filter="url(#filter0_d_694_6486)">
<mask id="path-1-outside-1_694_6486" maskUnits="userSpaceOnUse" x="5.69434" y="13.3896" width="49" height="33" fill="black">
<rect fill="white" x="5.69434" y="13.3896" width="49" height="33"/>
<path fill-rule="evenodd" clip-rule="evenodd" d="M18.7646 18.651C21.2788 16.4035 24.5173 15.3896 27.6699 15.3896C30.7856 15.3896 33.5411 16.1701 35.8104 17.7435C37.9163 19.2036 39.5475 21.3079 40.6628 23.9805C43.104 24.0956 45.8331 24.8261 48.0441 26.3562C50.5027 28.0576 52.3057 30.7464 52.3057 34.5504C52.3057 38.2985 50.7718 40.8631 48.6762 42.4638C46.622 44.0329 44.0936 44.6301 42.0962 44.6301H16.3311C12.7349 44.6301 10.4954 43.3888 9.19771 41.6157C7.94264 39.9008 7.69434 37.8558 7.69434 36.4543C7.69434 33.0543 9.61954 30.9373 11.4442 29.7172C12.3529 29.1095 13.2544 28.7092 13.9252 28.4607C14.0797 28.4034 14.2229 28.3539 14.3521 28.3114C14.7009 23.9942 16.3673 20.794 18.7646 18.651ZM15.5227 30.0533L15.5164 30.0548C15.5084 30.0566 15.4946 30.06 15.4752 30.0648C15.4364 30.0746 15.3757 30.0905 15.2961 30.1132C15.1366 30.1587 14.903 30.2312 14.6202 30.336C14.0512 30.5469 13.2999 30.8822 12.5559 31.3798C11.0748 32.3701 9.69434 33.9417 9.69434 36.4543C9.69434 37.6737 9.92035 39.2166 10.8116 40.4345C11.6603 41.594 13.2392 42.6301 16.3311 42.6301H42.0962C43.7475 42.6301 45.8238 42.1259 47.4622 40.8745C49.0592 39.6546 50.3057 37.6793 50.3057 34.5504C50.3057 31.4775 48.8893 29.3732 46.906 28.0008C44.8848 26.6021 42.2621 25.9642 39.9769 25.9642C39.56 25.9642 39.1869 25.7056 39.0406 25.3153C38.0446 22.6589 36.5545 20.6932 34.6708 19.3871C32.7871 18.081 30.4448 17.3896 27.6699 17.3896C24.932 17.3896 22.1914 18.2704 20.0975 20.1421C18.0182 22.0008 16.4969 24.9076 16.3046 29.1227C16.2841 29.5735 15.9641 29.9546 15.5239 30.053C15.5235 30.0531 15.5231 30.0532 15.5227 30.0533Z"/>
</mask>
<path fill-rule="evenodd" clip-rule="evenodd" d="M18.7646 18.651C21.2788 16.4035 24.5173 15.3896 27.6699 15.3896C30.7856 15.3896 33.5411 16.1701 35.8104 17.7435C37.9163 19.2036 39.5475 21.3079 40.6628 23.9805C43.104 24.0956 45.8331 24.8261 48.0441 26.3562C50.5027 28.0576 52.3057 30.7464 52.3057 34.5504C52.3057 38.2985 50.7718 40.8631 48.6762 42.4638C46.622 44.0329 44.0936 44.6301 42.0962 44.6301H16.3311C12.7349 44.6301 10.4954 43.3888 9.19771 41.6157C7.94264 39.9008 7.69434 37.8558 7.69434 36.4543C7.69434 33.0543 9.61954 30.9373 11.4442 29.7172C12.3529 29.1095 13.2544 28.7092 13.9252 28.4607C14.0797 28.4034 14.2229 28.3539 14.3521 28.3114C14.7009 23.9942 16.3673 20.794 18.7646 18.651ZM15.5227 30.0533L15.5164 30.0548C15.5084 30.0566 15.4946 30.06 15.4752 30.0648C15.4364 30.0746 15.3757 30.0905 15.2961 30.1132C15.1366 30.1587 14.903 30.2312 14.6202 30.336C14.0512 30.5469 13.2999 30.8822 12.5559 31.3798C11.0748 32.3701 9.69434 33.9417 9.69434 36.4543C9.69434 37.6737 9.92035 39.2166 10.8116 40.4345C11.6603 41.594 13.2392 42.6301 16.3311 42.6301H42.0962C43.7475 42.6301 45.8238 42.1259 47.4622 40.8745C49.0592 39.6546 50.3057 37.6793 50.3057 34.5504C50.3057 31.4775 48.8893 29.3732 46.906 28.0008C44.8848 26.6021 42.2621 25.9642 39.9769 25.9642C39.56 25.9642 39.1869 25.7056 39.0406 25.3153C38.0446 22.6589 36.5545 20.6932 34.6708 19.3871C32.7871 18.081 30.4448 17.3896 27.6699 17.3896C24.932 17.3896 22.1914 18.2704 20.0975 20.1421C18.0182 22.0008 16.4969 24.9076 16.3046 29.1227C16.2841 29.5735 15.9641 29.9546 15.5239 30.053C15.5235 30.0531 15.5231 30.0532 15.5227 30.0533Z" fill="#F8F9FA"/>
<path d="M18.7646 18.651L17.7649 17.5327V17.5327L18.7646 18.651ZM35.8104 17.7435L34.9557 18.9762V18.9762L35.8104 17.7435ZM40.6628 23.9805L39.2786 24.5582C39.5018 25.0931 40.0132 25.4515 40.5922 25.4788L40.6628 23.9805ZM48.0441 26.3562L47.1906 27.5896V27.5896L48.0441 26.3562ZM48.6762 42.4638L47.7657 41.2718L48.6762 42.4638ZM9.19771 41.6157L7.98726 42.5016L7.98726 42.5016L9.19771 41.6157ZM11.4442 29.7172L10.6104 28.4703L11.4442 29.7172ZM13.9252 28.4607L14.4464 29.8672L14.4464 29.8672L13.9252 28.4607ZM14.3521 28.3114L14.8199 29.7366C15.3937 29.5483 15.7986 29.0342 15.8472 28.4322L14.3521 28.3114ZM15.5164 30.0548L15.1734 28.5945L15.1718 28.5949L15.5164 30.0548ZM15.5227 30.0533L15.1966 28.5892C15.191 28.5904 15.1854 28.5917 15.1798 28.593L15.5227 30.0533ZM15.4752 30.0648L15.8408 31.5196L15.8409 31.5196L15.4752 30.0648ZM15.2961 30.1132L15.7077 31.5556L15.7077 31.5556L15.2961 30.1132ZM14.6202 30.336L14.0989 28.9295L14.0989 28.9295L14.6202 30.336ZM12.5559 31.3798L11.7221 30.1329H11.7221L12.5559 31.3798ZM10.8116 40.4345L9.60119 41.3204L9.60119 41.3204L10.8116 40.4345ZM47.4622 40.8745L46.5516 39.6824L47.4622 40.8745ZM46.906 28.0008L47.7596 26.7673L46.906 28.0008ZM39.0406 25.3153L40.4451 24.7887L39.0406 25.3153ZM34.6708 19.3871L35.5255 18.1544L34.6708 19.3871ZM20.0975 20.1421L21.0972 21.2604L20.0975 20.1421ZM16.3046 29.1227L17.8031 29.191L16.3046 29.1227ZM15.5239 30.053L15.8504 31.517L15.8511 31.5169L15.5239 30.053ZM27.6699 13.8896C24.2066 13.8896 20.5945 15.0033 17.7649 17.5327L19.7643 19.7693C21.9631 17.8038 24.8281 16.8896 27.6699 16.8896V13.8896ZM36.6651 16.5108C34.1066 14.7369 31.041 13.8896 27.6699 13.8896V16.8896C30.5302 16.8896 32.9757 17.6033 34.9557 18.9762L36.6651 16.5108ZM42.0471 23.4028C40.8373 20.5039 39.0382 18.1562 36.6651 16.5108L34.9557 18.9762C36.7943 20.251 38.2576 22.1119 39.2786 24.5582L42.0471 23.4028ZM48.8977 25.1227C46.4099 23.4011 43.3939 22.6076 40.7335 22.4822L40.5922 25.4788C42.8141 25.5836 45.2563 26.2511 47.1906 27.5896L48.8977 25.1227ZM53.8057 34.5504C53.8057 30.1976 51.7123 27.0705 48.8977 25.1227L47.1906 27.5896C49.2931 29.0446 50.8057 31.2952 50.8057 34.5504H53.8057ZM49.5868 43.6558C52.0563 41.7695 53.8057 38.7629 53.8057 34.5504H50.8057C50.8057 37.8341 49.4873 39.9567 47.7657 41.2718L49.5868 43.6558ZM42.0962 46.1301C44.3528 46.1301 47.2205 45.4633 49.5868 43.6558L47.7657 41.2718C46.0235 42.6026 43.8343 43.1301 42.0962 43.1301V46.1301ZM7.98726 42.5016C9.62234 44.7356 12.3578 46.1301 16.3311 46.1301V43.1301C13.112 43.1301 11.3685 42.042 10.4082 40.7298L7.98726 42.5016ZM6.19434 36.4543C6.19434 37.9923 6.4593 40.4138 7.98726 42.5016L10.4082 40.7298C9.42598 39.3878 9.19434 37.7194 9.19434 36.4543H6.19434ZM10.6104 28.4703C8.52983 29.8615 6.19434 32.3873 6.19434 36.4543H9.19434C9.19434 33.7214 10.7092 32.0131 12.2779 30.9641L10.6104 28.4703ZM13.4039 27.0541C12.6568 27.331 11.6426 27.78 10.6104 28.4703L12.2779 30.9641C13.0632 30.439 13.8521 30.0874 14.4464 29.8672L13.4039 27.0541ZM13.8843 26.8863C13.7382 26.9342 13.5772 26.9899 13.4039 27.0541L14.4464 29.8672C14.5822 29.8169 14.7075 29.7735 14.8199 29.7366L13.8843 26.8863ZM17.7649 17.5327C15.0501 19.9595 13.2333 23.5324 12.857 28.1907L15.8472 28.4322C16.1684 24.4561 17.6845 21.6285 19.7643 19.7693L17.7649 17.5327ZM15.8593 31.515L15.8657 31.5135L15.1798 28.593L15.1734 28.5945L15.8593 31.515ZM15.8409 31.5196C15.853 31.5165 15.8598 31.5149 15.8609 31.5147L15.1718 28.5949C15.1571 28.5983 15.1362 28.6034 15.1095 28.6101L15.8409 31.5196ZM15.7077 31.5556C15.7712 31.5375 15.8165 31.5257 15.8408 31.5196L15.1096 28.6101C15.0563 28.6235 14.9802 28.6435 14.8844 28.6708L15.7077 31.5556ZM15.1414 31.7425C15.3837 31.6527 15.5804 31.5919 15.7077 31.5556L14.8844 28.6708C14.6929 28.7254 14.4223 28.8096 14.0989 28.9295L15.1414 31.7425ZM13.3897 32.6267C14.0102 32.2117 14.6488 31.9251 15.1414 31.7425L14.0989 28.9295C13.4537 29.1686 12.5897 29.5527 11.7221 30.1329L13.3897 32.6267ZM11.1943 36.4543C11.1943 34.6051 12.1686 33.4432 13.3897 32.6267L11.7221 30.1329C9.98102 31.2971 8.19434 33.2783 8.19434 36.4543H11.1943ZM12.0221 39.5486C11.4036 38.7034 11.1943 37.5369 11.1943 36.4543H8.19434C8.19434 37.8105 8.43714 39.7299 9.60119 41.3204L12.0221 39.5486ZM16.3311 41.1301C13.6188 41.1301 12.5346 40.2488 12.0221 39.5486L9.60119 41.3204C10.7859 42.9391 12.8596 44.1301 16.3311 44.1301V41.1301ZM46.5516 39.6824C45.2249 40.6958 43.4877 41.1301 42.0962 41.1301V44.1301C44.0073 44.1301 46.4227 43.556 48.3727 42.0665L46.5516 39.6824ZM48.8057 34.5504C48.8057 37.2149 47.7747 38.7482 46.5516 39.6824L48.3727 42.0665C50.3436 40.561 51.8057 38.1438 51.8057 34.5504H48.8057ZM46.0525 29.2342C47.6786 30.3596 48.8057 32.0251 48.8057 34.5504H51.8057C51.8057 30.9298 50.1 28.3869 47.7596 26.7673L46.0525 29.2342ZM39.9769 27.4642C42.0223 27.4642 44.3308 28.0428 46.0525 29.2342L47.7596 26.7673C45.4389 25.1613 42.502 24.4642 39.9769 24.4642V27.4642ZM37.636 25.8419C38.0019 26.8177 38.9348 27.4642 39.9769 27.4642V24.4642C40.1853 24.4642 40.3719 24.5935 40.4451 24.7887L37.636 25.8419ZM33.8161 20.6198C35.4107 21.7254 36.7296 23.4244 37.636 25.8419L40.4451 24.7887C39.3595 21.8934 37.6983 19.6609 35.5255 18.1544L33.8161 20.6198ZM27.6699 18.8896C30.1892 18.8896 32.2214 19.5141 33.8161 20.6198L35.5255 18.1544C33.3527 16.6479 30.7005 15.8896 27.6699 15.8896V18.8896ZM21.0972 21.2604C22.876 19.6703 25.2432 18.8896 27.6699 18.8896V15.8896C24.6207 15.8896 21.5067 16.8704 19.0978 19.0237L21.0972 21.2604ZM17.8031 29.191C17.9793 25.3274 19.3548 22.8179 21.0972 21.2604L19.0978 19.0237C16.6816 21.1836 15.0145 24.4879 14.8062 29.0543L17.8031 29.191ZM15.8511 31.5169C16.9518 31.2708 17.7517 30.3181 17.8031 29.191L14.8062 29.0543C14.8165 28.8289 14.9765 28.6384 15.1966 28.5891L15.8511 31.5169ZM15.8489 31.5174C15.8492 31.5173 15.8498 31.5172 15.8504 31.517L15.1973 28.589C15.1972 28.589 15.197 28.5891 15.1966 28.5892L15.8489 31.5174ZM16.3311 46.1301H42.0962V43.1301H16.3311V46.1301ZM42.0962 41.1301H16.3311V44.1301H42.0962V41.1301Z" fill="#F8F9FA" mask="url(#path-1-outside-1_694_6486)"/>
</g>
<path fill-rule="evenodd" clip-rule="evenodd" d="M27.6699 16.3799C21.7794 16.3799 15.7116 20.1691 15.3057 29.0673C15.3057 29.0673 8.69434 30.532 8.69434 36.4445C8.69434 39.0655 9.64299 43.6203 16.3311 43.6203C23.0192 43.6203 38.4475 43.6203 42.0962 43.6203C45.7449 43.6203 51.3057 41.4176 51.3057 34.5407C51.3057 27.6637 44.867 24.9544 39.9769 24.9544C37.8655 19.3234 33.5605 16.3799 27.6699 16.3799Z" fill="#4DABF7" stroke="#212529" stroke-width="2" stroke-linecap="round" stroke-linejoin="round"/>
<g style="mix-blend-mode:multiply" opacity="0.3">
<path fill-rule="evenodd" clip-rule="evenodd" d="M20.8088 42.6369H39.378C42.4501 42.6369 47.1322 40.5948 47.1322 34.2193C47.1322 27.8438 41.711 25.3321 37.5936 25.3321C36.021 20.7142 33.0032 18.0459 28.8945 17.4915C29.3932 17.4186 29.8955 17.3828 30.3962 17.3828C35.356 17.3828 38.9807 20.1117 40.7585 25.3321C44.8758 25.3321 50.2971 27.8438 50.2971 34.2194C50.2971 40.5949 45.615 42.6369 42.5429 42.6369H20.8492C20.8357 42.6369 20.8223 42.6369 20.8088 42.6369Z" fill="#4DABF7"/>
</g>
<g style="mix-blend-mode:soft-light" opacity="0.4">
<path d="M17.7753 28.0303C17.9575 22.8075 22.6601 18.9589 24.9886 17.6875C17.8816 18.9785 15.953 26.0987 15.8771 29.4974L17.7753 28.0303Z" fill="#F8F9FA"/>
</g>
<defs>
<filter id="filter0_d_694_6486" x="5.97434" y="13.8696" width="48.0513" height="32.6802" filterUnits="userSpaceOnUse" color-interpolation-filters="sRGB">
<feFlood flood-opacity="0" result="BackgroundImageFix"/>
<feColorMatrix in="SourceAlpha" type="matrix" values="0 0 0 0 0 0 0 0 0 0 0 0 0 0 0 0 0 0 127 0" result="hardAlpha"/>
<feOffset dy="0.2"/>
<feGaussianBlur stdDeviation="0.11"/>
<feComposite in2="hardAlpha" operator="out"/>
<feColorMatrix type="matrix" values="0 0 0 0 0 0 0 0 0 0 0 0 0 0 0 0 0 0 0.2 0"/>
<feBlend mode="normal" in2="BackgroundImageFix" result="effect1_dropShadow_694_6486"/>
<feBlend mode="normal" in="SourceGraphic" in2="effect1_dropShadow_694_6486" result="shape"/>
</filter>
</defs>
</svg>
