<svg width="60" height="61" viewBox="0 0 60 61" fill="none" xmlns="http://www.w3.org/2000/svg">
<mask id="path-1-outside-1_50_4538" maskUnits="userSpaceOnUse" x="3.45483" y="16.0088" width="53" height="32" fill="black">
<rect fill="white" x="3.45483" y="16.0088" width="53" height="32"/>
<path fill-rule="evenodd" clip-rule="evenodd" d="M7.49777 19.7118C7.49777 18.7712 8.26025 18.0088 9.20081 18.0088H41.6541C42.5947 18.0088 43.3572 18.7712 43.3572 19.7118V22.2941C43.4193 22.2872 43.4824 22.2837 43.5463 22.2837H50.5127C51.3135 22.2837 52.0062 22.8416 52.1767 23.6241L54.506 34.3114C54.532 34.4305 54.5451 34.5521 54.5451 34.674V40.0027C54.5451 40.9433 53.7826 41.7058 52.842 41.7058H48.6794C48.5831 44.3605 46.4006 46.4831 43.7224 46.4831C41.2074 46.4831 39.1296 44.6115 38.8059 42.1851H19.3719C19.0482 44.6115 16.9704 46.4831 14.4555 46.4831C11.9405 46.4831 9.86273 44.6115 9.53898 42.1851H7.52265C6.38063 42.1851 5.45483 41.2593 5.45483 40.1173C5.45483 38.9836 6.36721 38.063 7.49777 38.0496V19.7118ZM40.3394 42.1851C40.6483 43.7717 42.0455 44.9693 43.7224 44.9693C45.5644 44.9693 47.069 43.5242 47.1641 41.7058H45.5523C45.1936 42.005 44.732 42.1851 44.2283 42.1851H40.3394ZM48.5021 40.192H52.842C52.9466 40.192 53.0313 40.1072 53.0313 40.0027V34.674C53.0313 34.6605 53.0298 34.647 53.0269 34.6337L50.6976 23.9464C50.6786 23.8595 50.6017 23.7975 50.5127 23.7975H43.5463C43.4437 23.7975 43.3602 23.8792 43.3572 23.9811V36.5757C43.4778 36.567 43.5995 36.5625 43.7224 36.5625C46.0009 36.5625 47.9205 38.0987 48.5021 40.192ZM45.7981 38.7713C46.2813 39.1364 46.6653 39.6258 46.9025 40.192H46.2948C46.2957 40.1672 46.2961 40.1423 46.2961 40.1173C46.2961 39.6032 46.1086 39.133 45.7981 38.7713ZM41.0275 39.3741H41.8433V40.0027L41.8433 40.0082C41.8404 40.1102 41.7569 40.1921 41.6541 40.1921H40.5422C40.6661 39.8962 40.8302 39.6213 41.0275 39.3741ZM39.2503 39.3741C39.1248 39.6349 39.0214 39.9084 38.9426 40.1921H19.2352C19.1564 39.9084 19.053 39.6349 18.9275 39.3741H39.2503ZM41.8433 36.9308C41.2141 37.1885 40.6496 37.5718 40.1811 38.0495H17.9968C17.0966 37.1318 15.8425 36.5625 14.4555 36.5625C13.0684 36.5625 11.8143 37.1318 10.9142 38.0495H9.01159V19.7118C9.01159 19.6073 9.09631 19.5226 9.20081 19.5226H41.6541C41.7587 19.5226 41.8434 19.6073 41.8434 19.7118V23.9697L41.8433 23.9867V36.9308ZM17.6356 40.1921C17.5117 39.8962 17.3476 39.6213 17.1503 39.3741H11.7606C11.5633 39.6213 11.3992 39.8962 11.2753 40.1921H17.6356ZM9.67567 40.1921C9.75449 39.9084 9.85789 39.6349 9.98342 39.3741H9.01159V40.0028C9.01159 40.1073 9.09631 40.1921 9.20081 40.1921H9.67567ZM14.4555 44.9693C16.1324 44.9693 17.5295 43.7717 17.8384 42.1851H11.0725C11.3814 43.7717 12.7786 44.9693 14.4555 44.9693ZM44.9678 40.192H43.5463C43.4436 40.192 43.36 40.1101 43.3572 40.0081L43.3572 40.0028V39.3741H44.2283C44.6388 39.3741 44.9716 39.7068 44.9716 40.1173C44.9716 40.1425 44.9703 40.1674 44.9678 40.192ZM6.77942 40.1173C6.77942 39.7152 7.09881 39.3876 7.49777 39.3745V40.0028C7.49777 40.3156 7.58207 40.6086 7.72919 40.8605H7.52265C7.11218 40.8605 6.77942 40.5278 6.77942 40.1173Z"/>
</mask>
<path fill-rule="evenodd" clip-rule="evenodd" d="M7.49777 19.7118C7.49777 18.7712 8.26025 18.0088 9.20081 18.0088H41.6541C42.5947 18.0088 43.3572 18.7712 43.3572 19.7118V22.2941C43.4193 22.2872 43.4824 22.2837 43.5463 22.2837H50.5127C51.3135 22.2837 52.0062 22.8416 52.1767 23.6241L54.506 34.3114C54.532 34.4305 54.5451 34.5521 54.5451 34.674V40.0027C54.5451 40.9433 53.7826 41.7058 52.842 41.7058H48.6794C48.5831 44.3605 46.4006 46.4831 43.7224 46.4831C41.2074 46.4831 39.1296 44.6115 38.8059 42.1851H19.3719C19.0482 44.6115 16.9704 46.4831 14.4555 46.4831C11.9405 46.4831 9.86273 44.6115 9.53898 42.1851H7.52265C6.38063 42.1851 5.45483 41.2593 5.45483 40.1173C5.45483 38.9836 6.36721 38.063 7.49777 38.0496V19.7118ZM40.3394 42.1851C40.6483 43.7717 42.0455 44.9693 43.7224 44.9693C45.5644 44.9693 47.069 43.5242 47.1641 41.7058H45.5523C45.1936 42.005 44.732 42.1851 44.2283 42.1851H40.3394ZM48.5021 40.192H52.842C52.9466 40.192 53.0313 40.1072 53.0313 40.0027V34.674C53.0313 34.6605 53.0298 34.647 53.0269 34.6337L50.6976 23.9464C50.6786 23.8595 50.6017 23.7975 50.5127 23.7975H43.5463C43.4437 23.7975 43.3602 23.8792 43.3572 23.9811V36.5757C43.4778 36.567 43.5995 36.5625 43.7224 36.5625C46.0009 36.5625 47.9205 38.0987 48.5021 40.192ZM45.7981 38.7713C46.2813 39.1364 46.6653 39.6258 46.9025 40.192H46.2948C46.2957 40.1672 46.2961 40.1423 46.2961 40.1173C46.2961 39.6032 46.1086 39.133 45.7981 38.7713ZM41.0275 39.3741H41.8433V40.0027L41.8433 40.0082C41.8404 40.1102 41.7569 40.1921 41.6541 40.1921H40.5422C40.6661 39.8962 40.8302 39.6213 41.0275 39.3741ZM39.2503 39.3741C39.1248 39.6349 39.0214 39.9084 38.9426 40.1921H19.2352C19.1564 39.9084 19.053 39.6349 18.9275 39.3741H39.2503ZM41.8433 36.9308C41.2141 37.1885 40.6496 37.5718 40.1811 38.0495H17.9968C17.0966 37.1318 15.8425 36.5625 14.4555 36.5625C13.0684 36.5625 11.8143 37.1318 10.9142 38.0495H9.01159V19.7118C9.01159 19.6073 9.09631 19.5226 9.20081 19.5226H41.6541C41.7587 19.5226 41.8434 19.6073 41.8434 19.7118V23.9697L41.8433 23.9867V36.9308ZM17.6356 40.1921C17.5117 39.8962 17.3476 39.6213 17.1503 39.3741H11.7606C11.5633 39.6213 11.3992 39.8962 11.2753 40.1921H17.6356ZM9.67567 40.1921C9.75449 39.9084 9.85789 39.6349 9.98342 39.3741H9.01159V40.0028C9.01159 40.1073 9.09631 40.1921 9.20081 40.1921H9.67567ZM14.4555 44.9693C16.1324 44.9693 17.5295 43.7717 17.8384 42.1851H11.0725C11.3814 43.7717 12.7786 44.9693 14.4555 44.9693ZM44.9678 40.192H43.5463C43.4436 40.192 43.36 40.1101 43.3572 40.0081L43.3572 40.0028V39.3741H44.2283C44.6388 39.3741 44.9716 39.7068 44.9716 40.1173C44.9716 40.1425 44.9703 40.1674 44.9678 40.192ZM6.77942 40.1173C6.77942 39.7152 7.09881 39.3876 7.49777 39.3745V40.0028C7.49777 40.3156 7.58207 40.6086 7.72919 40.8605H7.52265C7.11218 40.8605 6.77942 40.5278 6.77942 40.1173Z" fill="#F8F9FA"/>
<path d="M43.3572 22.2941H41.8572C41.8572 22.7206 42.0388 23.127 42.3565 23.4115C42.6742 23.696 43.098 23.8319 43.5219 23.785L43.3572 22.2941ZM52.1767 23.6241L50.7111 23.9435L50.7111 23.9435L52.1767 23.6241ZM54.506 34.3114L55.9716 33.992L55.9716 33.992L54.506 34.3114ZM48.6794 41.7058V40.2058C47.8721 40.2058 47.2096 40.8447 47.1803 41.6515L48.6794 41.7058ZM38.8059 42.1852L40.2927 41.9868C40.1933 41.2416 39.5576 40.6852 38.8059 40.6852V42.1852ZM19.3719 42.1852V40.6852C18.6202 40.6852 17.9845 41.2416 17.8851 41.9868L19.3719 42.1852ZM9.53898 42.1852L11.0258 41.9868C10.9264 41.2416 10.2907 40.6852 9.53898 40.6852V42.1852ZM7.49777 38.0497L7.51545 39.5496C8.33693 39.5399 8.99777 38.8712 8.99777 38.0497H7.49777ZM40.3395 42.1852V40.6852C39.8914 40.6852 39.4668 40.8854 39.1819 41.2312C38.8969 41.5769 38.7815 42.032 38.8671 42.4718L40.3395 42.1852ZM47.1641 41.7058L48.662 41.7842C48.6835 41.3733 48.5353 40.9716 48.2521 40.6732C47.9689 40.3748 47.5755 40.2058 47.1641 40.2058V41.7058ZM45.5523 41.7058V40.2058C45.2011 40.2058 44.861 40.3291 44.5913 40.5541L45.5523 41.7058ZM48.5021 40.192L47.0569 40.5935C47.2372 41.2427 47.8283 41.692 48.5021 41.692V40.192ZM53.0269 34.6338L54.4926 34.3145L54.4925 34.3143L53.0269 34.6338ZM50.6976 23.9465L49.232 24.2659L49.232 24.2659L50.6976 23.9465ZM43.3572 23.9811L41.8578 23.9368C41.8574 23.9516 41.8572 23.9663 41.8572 23.9811H43.3572ZM43.3572 36.5758H41.8572C41.8572 36.9925 42.0306 37.3905 42.3357 37.6742C42.6409 37.958 43.0504 38.102 43.4661 38.0718L43.3572 36.5758ZM46.9025 40.192V41.692C47.4046 41.692 47.8733 41.4408 48.1514 41.0228C48.4295 40.6048 48.48 40.0754 48.286 39.6123L46.9025 40.192ZM45.7981 38.7713L46.7024 37.5745C46.091 37.1126 45.2297 37.1857 44.705 37.7442C44.1803 38.3026 44.1608 39.1667 44.6599 39.7482L45.7981 38.7713ZM46.2948 40.192L44.7958 40.1389C44.7814 40.5457 44.9329 40.9408 45.2156 41.2337C45.4982 41.5266 45.8878 41.692 46.2948 41.692V40.192ZM41.8433 39.3741H43.3433C43.3433 38.5457 42.6717 37.8741 41.8433 37.8741V39.3741ZM41.0275 39.3741V37.8741C40.5713 37.8741 40.1399 38.0817 39.8553 38.4382L41.0275 39.3741ZM41.8433 40.0028L40.3433 40.0028L40.3433 40.0048L41.8433 40.0028ZM41.8433 40.0083L43.3427 40.0502C43.3431 40.0355 43.3433 40.0208 43.3433 40.0062L41.8433 40.0083ZM40.5422 40.1921L39.1587 39.6125C38.9647 40.0756 39.0152 40.6049 39.2933 41.0229C39.5714 41.4409 40.0401 41.6921 40.5422 41.6921V40.1921ZM38.9426 40.1921V41.6921C39.6164 41.6921 40.2075 41.2428 40.3878 40.5936L38.9426 40.1921ZM39.2503 39.3741L40.6019 40.0247C40.8256 39.5599 40.7948 39.0127 40.5203 38.576C40.2459 38.1392 39.7662 37.8741 39.2503 37.8741V39.3741ZM19.2352 40.1921L17.79 40.5936C17.9703 41.2428 18.5614 41.6921 19.2352 41.6921V40.1921ZM18.9275 39.3741V37.8741C18.4116 37.8741 17.932 38.1392 17.6575 38.576C17.383 39.0127 17.3522 39.5599 17.5759 40.0247L18.9275 39.3741ZM40.1811 38.0495V39.5495C40.5839 39.5495 40.9698 39.3875 41.2519 39.0999L40.1811 38.0495ZM41.8433 36.9308L42.4119 38.3189C42.9753 38.0881 43.3433 37.5396 43.3433 36.9308H41.8433ZM17.9968 38.0495L16.9259 39.0999C17.208 39.3875 17.5939 39.5495 17.9968 39.5495V38.0495ZM10.9142 38.0495V39.5495C11.317 39.5495 11.7029 39.3875 11.985 39.0999L10.9142 38.0495ZM9.01159 38.0495H7.51159C7.51159 38.878 8.18316 39.5495 9.01159 39.5495V38.0495ZM41.8434 23.9697L43.3434 23.9771V23.9697H41.8434ZM41.8433 23.9868L40.3433 23.9794V23.9868H41.8433ZM17.1503 39.3741L18.3225 38.4382C18.0379 38.0817 17.6065 37.8741 17.1503 37.8741V39.3741ZM17.6356 40.1921V41.6921C18.1377 41.6921 18.6064 41.4409 18.8845 41.0229C19.1626 40.6049 19.2131 40.0755 19.0191 39.6125L17.6356 40.1921ZM11.7606 39.3741V37.8741C11.3044 37.8741 10.873 38.0817 10.5884 38.4382L11.7606 39.3741ZM11.2753 40.1921L9.89177 39.6125C9.69778 40.0755 9.74831 40.6049 10.0264 41.0229C10.3045 41.4409 10.7732 41.6921 11.2753 41.6921V40.1921ZM9.98343 39.3741L11.335 40.0247C11.5587 39.5599 11.5279 39.0127 11.2534 38.576C10.979 38.1392 10.4993 37.8741 9.98343 37.8741V39.3741ZM9.67568 40.1921V41.6921C10.3495 41.6921 10.9406 41.2428 11.1209 40.5936L9.67568 40.1921ZM9.01159 39.3741V37.8741C8.18316 37.8741 7.51159 38.5457 7.51159 39.3741H9.01159ZM17.8384 42.1852L19.3107 42.4718C19.3963 42.032 19.2809 41.5769 18.9959 41.2312C18.711 40.8854 18.2864 40.6852 17.8384 40.6852V42.1852ZM11.0725 42.1852V40.6852C10.6245 40.6852 10.1999 40.8854 9.91498 41.2312C9.63004 41.5769 9.51457 42.032 9.60018 42.4718L11.0725 42.1852ZM44.9679 40.192V41.692C45.7386 41.692 46.3839 41.1078 46.4604 40.3409L44.9679 40.192ZM43.3572 40.0082L41.8572 40.006C41.8572 40.0208 41.8574 40.0355 41.8578 40.0503L43.3572 40.0082ZM43.3572 40.0029L44.8572 40.005V40.0029H43.3572ZM43.3572 39.3741V37.8741C42.5288 37.8741 41.8572 38.5457 41.8572 39.3741H43.3572ZM7.49777 39.3745H8.99777C8.99777 38.9682 8.83289 38.5792 8.54085 38.2966C8.24882 38.014 7.85462 37.862 7.44847 37.8753L7.49777 39.3745ZM7.7292 40.8606V42.3606C8.26644 42.3606 8.76267 42.0732 9.03012 41.6073C9.29757 41.1413 9.2954 40.5679 9.02444 40.104L7.7292 40.8606ZM9.20082 16.5088C7.43182 16.5088 5.99777 17.9428 5.99777 19.7118H8.99777C8.99777 19.5997 9.08868 19.5088 9.20082 19.5088V16.5088ZM41.6541 16.5088H9.20082V19.5088H41.6541V16.5088ZM44.8572 19.7118C44.8572 17.9428 43.4231 16.5088 41.6541 16.5088V19.5088C41.7663 19.5088 41.8572 19.5997 41.8572 19.7118H44.8572ZM44.8572 22.2941V19.7118H41.8572V22.2941H44.8572ZM43.5463 20.7837C43.4273 20.7837 43.3092 20.7903 43.1925 20.8032L43.5219 23.785C43.5294 23.7842 43.5376 23.7837 43.5463 23.7837V20.7837ZM50.5127 20.7837H43.5463V23.7837H50.5127V20.7837ZM53.6423 23.3047C53.3215 21.8331 52.0189 20.7837 50.5127 20.7837V23.7837C50.6082 23.7837 50.6908 23.8503 50.7111 23.9435L53.6423 23.3047ZM55.9716 33.992L53.6423 23.3047L50.7111 23.9435L53.0404 34.6308L55.9716 33.992ZM56.0451 34.6741C56.0451 34.4447 56.0205 34.2161 55.9716 33.992L53.0404 34.6308C53.0435 34.645 53.0451 34.6595 53.0451 34.6741H56.0451ZM56.0451 40.0028V34.6741H53.0451V40.0028H56.0451ZM52.8421 43.2058C54.611 43.2058 56.0451 41.7718 56.0451 40.0028H53.0451C53.0451 40.1149 52.9542 40.2058 52.8421 40.2058V43.2058ZM48.6794 43.2058H52.8421V40.2058H48.6794V43.2058ZM47.1803 41.6515C47.1132 43.5024 45.5904 44.9831 43.7224 44.9831V47.9831C47.2108 47.9831 50.053 45.2187 50.1784 41.7602L47.1803 41.6515ZM43.7224 44.9831C41.9692 44.9831 40.5184 43.6779 40.2927 41.9868L37.3191 42.3835C37.7409 45.5451 40.4457 47.9831 43.7224 47.9831V44.9831ZM19.3719 43.6852H38.8059V40.6852H19.3719V43.6852ZM14.4555 47.9831C17.7321 47.9831 20.4369 45.5451 20.8588 42.3835L17.8851 41.9868C17.6595 43.6779 16.2087 44.9831 14.4555 44.9831V47.9831ZM8.05216 42.3835C8.47401 45.5451 11.1788 47.9831 14.4555 47.9831V44.9831C12.7022 44.9831 11.2515 43.6779 11.0258 41.9868L8.05216 42.3835ZM7.52265 43.6852H9.53898V40.6852H7.52265V43.6852ZM3.95483 40.1173C3.95483 42.0878 5.55221 43.6852 7.52265 43.6852V40.6852C7.20905 40.6852 6.95483 40.4309 6.95483 40.1173H3.95483ZM7.48009 36.5498C5.52903 36.5728 3.95483 38.1611 3.95483 40.1173H6.95483C6.95483 39.8061 7.20539 39.5532 7.51545 39.5496L7.48009 36.5498ZM5.99777 19.7118V38.0497H8.99777V19.7118H5.99777ZM38.8671 42.4718C39.3105 44.7496 41.3139 46.4693 43.7224 46.4693V43.4693C42.777 43.4693 41.9861 42.7939 41.8118 41.8986L38.8671 42.4718ZM43.7224 46.4693C46.3666 46.4693 48.5255 44.3952 48.662 41.7842L45.6661 41.6275C45.6125 42.6532 44.7622 43.4693 43.7224 43.4693V46.4693ZM45.5523 43.2058H47.1641V40.2058H45.5523V43.2058ZM44.2283 43.6852C45.0961 43.6852 45.8949 43.3735 46.5133 42.8576L44.5913 40.5541C44.4923 40.6367 44.3679 40.6852 44.2283 40.6852V43.6852ZM40.3395 43.6852H44.2283V40.6852H40.3395V43.6852ZM52.8421 38.692H48.5021V41.692H52.8421V38.692ZM51.5313 40.0028C51.5313 39.2789 52.1181 38.692 52.8421 38.692V41.692C53.775 41.692 54.5313 40.9357 54.5313 40.0028H51.5313ZM51.5313 34.6741V40.0028H54.5313V34.6741H51.5313ZM51.5613 34.953C51.5413 34.8613 51.5313 34.7678 51.5313 34.6741H54.5313C54.5313 34.5532 54.5183 34.4327 54.4926 34.3145L51.5613 34.953ZM49.232 24.2659L51.5613 34.9532L54.4925 34.3143L52.1632 23.627L49.232 24.2659ZM50.5127 25.2975C49.8964 25.2975 49.3633 24.8681 49.232 24.2659L52.1632 23.6271C51.994 22.8509 51.307 22.2975 50.5127 22.2975V25.2975ZM43.5463 25.2975H50.5127V22.2975H43.5463V25.2975ZM44.8565 24.0254C44.8357 24.7319 44.2574 25.2975 43.5463 25.2975V22.2975C42.6301 22.2975 41.8847 23.0265 41.8578 23.9368L44.8565 24.0254ZM44.8572 36.5758V23.9811H41.8572V36.5758H44.8572ZM43.4661 38.0718C43.5504 38.0657 43.6359 38.0625 43.7224 38.0625V35.0625C43.5632 35.0625 43.4051 35.0683 43.2483 35.0797L43.4661 38.0718ZM43.7224 38.0625C45.3097 38.0625 46.651 39.1326 47.0569 40.5935L49.9474 39.7904C49.1901 37.0649 46.692 35.0625 43.7224 35.0625V38.0625ZM48.286 39.6123C47.945 38.7985 47.3942 38.0973 46.7024 37.5745L44.8939 39.9681C45.1684 40.1755 45.3856 40.4531 45.519 40.7716L48.286 39.6123ZM46.9025 38.692H46.2948V41.692H46.9025V38.692ZM47.7939 40.2451C47.7954 40.2028 47.7962 40.1602 47.7962 40.1173H44.7962C44.7962 40.1245 44.796 40.1317 44.7958 40.1389L47.7939 40.2451ZM47.7962 40.1173C47.7962 39.2315 47.4714 38.4178 46.9364 37.7944L44.6599 39.7482C44.7457 39.8483 44.7962 39.975 44.7962 40.1173H47.7962ZM41.8433 37.8741H41.0275V40.8741H41.8433V37.8741ZM43.3433 40.0028V39.3741H40.3433V40.0028H43.3433ZM43.3433 40.0062L43.3433 40.0007L40.3433 40.0048L40.3433 40.0103L43.3433 40.0062ZM41.6541 41.6921C42.5713 41.6921 43.3172 40.9616 43.3427 40.0502L40.3439 39.9663C40.3637 39.2589 40.9424 38.6921 41.6541 38.6921V41.6921ZM40.5422 41.6921H41.6541V38.6921H40.5422V41.6921ZM39.8553 38.4382C39.5725 38.7924 39.3369 39.187 39.1587 39.6125L41.9257 40.7717C41.9953 40.6054 42.0878 40.4502 42.1997 40.31L39.8553 38.4382ZM40.3878 40.5936C40.4426 40.3964 40.5145 40.2063 40.6019 40.0247L37.8988 38.7235C37.7351 39.0636 37.6002 39.4204 37.4973 39.7906L40.3878 40.5936ZM19.2352 41.6921H38.9426V38.6921H19.2352V41.6921ZM17.5759 40.0247C17.6633 40.2063 17.7352 40.3964 17.79 40.5936L20.6805 39.7906C20.5776 39.4204 20.4427 39.0636 20.2791 38.7235L17.5759 40.0247ZM39.2503 37.8741H18.9275V40.8741H39.2503V37.8741ZM41.2519 39.0999C41.5799 38.7655 41.9742 38.4982 42.4119 38.3189L41.2747 35.5427C40.454 35.8789 39.7193 36.3782 39.1102 36.9991L41.2519 39.0999ZM40.1811 36.5495H17.9968V39.5495H40.1811V36.5495ZM19.0676 36.9991C17.8969 35.8057 16.2616 35.0625 14.4555 35.0625V38.0625C15.4234 38.0625 16.2962 38.458 16.9259 39.0999L19.0676 36.9991ZM14.4555 35.0625C12.6493 35.0625 11.014 35.8057 9.84333 36.9991L11.985 39.0999C12.6147 38.458 13.4875 38.0625 14.4555 38.0625V35.0625ZM10.9142 36.5495H9.01159V39.5495H10.9142V36.5495ZM10.5116 38.0495V19.7118H7.51159V38.0495H10.5116ZM10.5116 19.7118C10.5116 20.4358 9.92474 21.0226 9.20082 21.0226V18.0226C8.26788 18.0226 7.51159 18.7789 7.51159 19.7118H10.5116ZM9.20082 21.0226H41.6541V18.0226H9.20082V21.0226ZM41.6541 21.0226C40.9302 21.0226 40.3434 20.4357 40.3434 19.7118H43.3434C43.3434 18.7789 42.5871 18.0226 41.6541 18.0226V21.0226ZM40.3434 19.7118V23.9697H43.3434V19.7118H40.3434ZM40.3434 23.9623L40.3433 23.9794L43.3433 23.9941L43.3434 23.9771L40.3434 23.9623ZM40.3433 23.9868V36.9308H43.3433V23.9868H40.3433ZM15.9781 40.31C16.09 40.4502 16.1825 40.6054 16.2522 40.7717L19.0191 39.6125C18.8409 39.187 18.6053 38.7924 18.3225 38.4382L15.9781 40.31ZM11.7606 40.8741H17.1503V37.8741H11.7606V40.8741ZM12.6588 40.7717C12.7284 40.6054 12.8209 40.4502 12.9328 40.31L10.5884 38.4382C10.3056 38.7924 10.07 39.187 9.89177 39.6125L12.6588 40.7717ZM17.6356 38.6921H11.2753V41.6921H17.6356V38.6921ZM8.63186 38.7235C8.46817 39.0636 8.33327 39.4204 8.23041 39.7906L11.1209 40.5936C11.1757 40.3964 11.2476 40.2063 11.335 40.0247L8.63186 38.7235ZM9.01159 40.8741H9.98343V37.8741H9.01159V40.8741ZM10.5116 40.0029V39.3741H7.51159V40.0029H10.5116ZM9.20082 38.6921C9.92475 38.6921 10.5116 39.279 10.5116 40.0029H7.51159C7.51159 40.9358 8.26788 41.6921 9.20082 41.6921V38.6921ZM9.67568 38.6921H9.20082V41.6921H9.67568V38.6921ZM16.366 41.8986C16.1917 42.7938 15.4008 43.4693 14.4555 43.4693V46.4693C16.8639 46.4693 18.8674 44.7496 19.3107 42.4718L16.366 41.8986ZM11.0725 43.6852H17.8384V40.6852H11.0725V43.6852ZM14.4555 43.4693C13.5101 43.4693 12.7192 42.7938 12.5449 41.8986L9.60018 42.4718C10.0436 44.7496 12.047 46.4693 14.4555 46.4693V43.4693ZM43.5463 41.692H44.9679V38.692H43.5463V41.692ZM41.8578 40.0503C41.8834 40.9617 42.6293 41.692 43.5463 41.692V38.692C44.258 38.692 44.8367 39.2587 44.8566 39.9661L41.8578 40.0503ZM41.8572 40.0007L41.8572 40.006L44.8572 40.0103L44.8572 40.005L41.8572 40.0007ZM41.8572 39.3741V40.0029H44.8572V39.3741H41.8572ZM44.2283 37.8741H43.3572V40.8741H44.2283V37.8741ZM46.4716 40.1173C46.4716 38.8784 45.4672 37.8741 44.2283 37.8741V40.8741C43.8104 40.8741 43.4716 40.5353 43.4716 40.1173H46.4716ZM46.4604 40.3409C46.4678 40.267 46.4716 40.1924 46.4716 40.1173H43.4716C43.4716 40.0927 43.4728 40.0679 43.4753 40.0431L46.4604 40.3409ZM7.44847 37.8753C6.2434 37.915 5.27943 38.9033 5.27943 40.1173H8.27943C8.27943 40.5271 7.95424 40.8603 7.54708 40.8737L7.44847 37.8753ZM8.99777 40.0029V39.3745H5.99777V40.0029H8.99777ZM9.02444 40.104C9.00777 40.0755 8.99777 40.0426 8.99777 40.0029H5.99777C5.99777 40.5886 6.15638 41.1419 6.43395 41.6171L9.02444 40.104ZM7.52265 42.3606H7.7292V39.3606H7.52265V42.3606ZM5.27943 40.1173C5.27943 41.3562 6.28375 42.3606 7.52265 42.3606V39.3606C7.9406 39.3606 8.27943 39.6994 8.27943 40.1173H5.27943Z" fill="#F8F9FA" mask="url(#path-1-outside-1_50_4538)"/>
<rect x="8.22974" y="18.8169" width="34.3456" height="22.1833" rx="1" fill="#E9ECEF" stroke="#212529" stroke-width="1.6" stroke-linejoin="round"/>
<g style="mix-blend-mode:multiply">
<path fill-rule="evenodd" clip-rule="evenodd" d="M8.92395 37.2672V37.763C8.92395 38.3153 9.37166 38.763 9.92395 38.763H41.2505C41.8028 38.763 42.2505 38.3153 42.2505 37.763V19.3901C42.2505 18.8379 41.8028 18.3901 41.2505 18.3901H40.8304V36.3148C40.8304 36.8671 40.3827 37.3148 39.8304 37.3148H9.2298C9.12312 37.3148 9.02035 37.2981 8.92395 37.2672Z" fill="#DEE2E6"/>
</g>
<rect x="6.09216" y="38.7632" width="39.5167" height="2.81104" rx="1.40552" fill="#E9ECEF" stroke="#212529" stroke-width="1.4" stroke-linejoin="round"/>
<path d="M42.5752 24.0918C42.5752 23.5395 43.0229 23.0918 43.5752 23.0918L50.4443 23.0918C50.9145 23.0918 51.3212 23.4194 51.4214 23.8788L53.7402 34.5181C53.7555 34.588 53.7632 34.6594 53.7632 34.731V40.0001C53.7632 40.5523 53.3155 41.0001 52.7632 41.0001H43.5752C43.0229 41.0001 42.5752 40.5523 42.5752 40.0001V24.0918Z" fill="#E9ECEF" stroke="#212529" stroke-width="1.6" stroke-linejoin="round"/>
<path d="M49.2496 25.4663H45.6089V32.5229H50.927L49.2496 25.4663Z" fill="#BAC8FF" stroke="#212529" stroke-linecap="round" stroke-linejoin="round"/>
<path d="M45.6089 34.3257H47.1887" stroke="#212529" stroke-linecap="round" stroke-linejoin="round"/>
<path d="M14.4304 26.3052H20.4611" stroke="#212529" stroke-width="1.4" stroke-linecap="round" stroke-linejoin="round"/>
<path d="M16.3473 29.2334L20.4611 29.2334" stroke="#212529" stroke-width="1.4" stroke-linecap="round" stroke-linejoin="round"/>
<path d="M18.0605 31.9404L20.4611 31.9404" stroke="#212529" stroke-width="1.4" stroke-linecap="round" stroke-linejoin="round"/>
<circle cx="28.5989" cy="28.5986" r="4.95215" fill="#FFE066" stroke="#212529" stroke-linecap="round" stroke-linejoin="round"/>
<path d="M28.5989 26.5171V28.6853L30.1451 30.2315" stroke="#212529" stroke-width="1.2" stroke-linecap="round" stroke-linejoin="round"/>
<circle cx="14.4305" cy="41.574" r="4.2034" fill="#868E96" stroke="#212529" stroke-width="1.2" stroke-linejoin="round"/>
<circle cx="14.4305" cy="41.5739" r="1.44695" fill="#212529"/>
<circle cx="43.6974" cy="41.574" r="4.2034" fill="#868E96" stroke="#212529" stroke-width="1.2" stroke-linejoin="round"/>
<circle cx="43.6974" cy="41.5739" r="1.44695" fill="#212529"/>
</svg>
