<svg width="60" height="60" viewBox="0 0 60 60" fill="none" xmlns="http://www.w3.org/2000/svg">
<mask id="path-1-outside-1_50_11463" maskUnits="userSpaceOnUse" x="6.40405" y="6.16113" width="47" height="47" fill="black">
<rect fill="white" x="6.40405" y="6.16113" width="47" height="47"/>
<path fill-rule="evenodd" clip-rule="evenodd" d="M23.5213 8.16115C22.0099 8.16115 20.7847 9.38638 20.7847 10.8978V11.2192C20.7847 11.9452 21.0675 12.6053 21.5289 13.0951L18.4003 20.1345C18.3521 20.2431 18.3271 20.3606 18.3271 20.4794V36.8724C16.7587 37.2706 15.5675 37.9698 14.6854 38.8215L11.6344 38.5607C10.6238 38.4743 9.53671 38.9693 9.12144 40.0544C8.7805 40.9452 8.40405 42.3038 8.40405 43.9651C8.40405 45.4599 8.56794 46.8231 8.72601 47.7921C8.9377 49.0899 10.0737 49.9416 11.3156 49.9416H14.733C15.7185 50.5238 17.1909 50.9674 19.2623 51.1143C27.2959 51.6842 39.2602 51.2327 41.6363 51.1339C42.0738 51.1157 42.485 50.9806 42.8448 50.7507L49.9785 46.1916C51.4734 45.2362 51.818 43.1997 50.7207 41.8056C49.8667 40.7206 48.3941 40.3677 47.1538 40.9141V20.5838C47.1538 20.4943 47.1411 20.4053 47.116 20.3194L45.0516 13.2476C45.15 13.1356 45.2357 13.0158 45.3082 12.895C45.6121 12.3884 45.7757 11.7373 45.7757 11.0584C45.7757 10.3796 45.6121 9.72848 45.3082 9.22188C45.0132 8.73031 44.5006 8.25551 43.7919 8.25551C43.7431 8.25551 43.6952 8.25776 43.6482 8.26212C43.4131 8.19633 43.1652 8.16115 42.9091 8.16115H23.5213ZM16.1405 39.796C16.6957 39.3302 17.4099 38.9219 18.3271 38.6363V43.1682C18.3271 44.6796 19.5524 45.9048 21.0637 45.9048H41.1811C41.2433 45.9177 41.3078 45.9245 41.3739 45.9245H44.3228C45.8863 45.9245 47.1538 44.6571 47.1538 43.0936V42.8494L47.7188 42.5288C48.279 42.2108 48.9876 42.35 49.386 42.8562C49.8624 43.4614 49.7128 44.3456 49.0637 44.7604L41.9301 49.3194C41.8141 49.3936 41.6926 49.4315 41.5658 49.4368C39.1766 49.5361 27.306 49.9821 19.3824 49.42C18.4596 49.3545 17.7124 49.2286 17.1109 49.0726C17.109 48.9876 17.0942 48.9025 17.0663 48.82L15.69 44.7553L16.1399 39.8028L16.1405 39.796ZM36.364 44.2061H31.2108C31.2058 44.2061 31.2007 44.2061 31.1956 44.2062H21.0637C20.4905 44.2062 20.0257 43.7415 20.0257 43.1682V38.288C20.0623 38.2838 20.0992 38.2798 20.1363 38.2759C21.0935 38.2899 22.0109 38.7988 23.0717 39.4621C23.1384 39.5038 23.206 39.5463 23.2743 39.5892L23.2744 39.5893L23.2744 39.5893C23.723 39.8712 24.2024 40.1725 24.6738 40.4069C25.2206 40.6788 25.8428 40.9068 26.5113 40.9068H36.3121C36.8452 40.9068 37.2983 41.0261 37.5863 41.2334C37.8245 41.4048 38.0254 41.6848 38.0015 42.2636C37.9731 42.9522 37.783 43.3323 37.547 43.5804C37.3054 43.8343 36.933 44.0374 36.364 44.2061ZM39.1929 44.204H40.4302L40.4302 20.5838C40.4302 20.5184 40.437 20.4533 40.4504 20.3895C40.4571 20.3265 40.4708 20.2644 40.4914 20.2043L42.6308 13.9559H23.0052L20.0257 20.6596V36.58C20.0491 36.578 20.0725 36.5771 20.096 36.5771C21.622 36.577 22.9436 37.3787 23.9721 38.0218C24.0442 38.0669 24.1149 38.1112 24.1842 38.1547L24.1849 38.1552L24.1849 38.1552C24.6412 38.4416 25.0405 38.6923 25.4301 38.886C25.8755 39.1074 26.222 39.2083 26.5113 39.2083H36.3121C37.0461 39.2083 37.8969 39.3642 38.5785 39.8548C39.31 40.3812 39.7445 41.2217 39.6987 42.3336C39.6687 43.0603 39.5032 43.6835 39.1929 44.204ZM42.3175 43.6407L45.2665 41.9673V20.7187L43.9399 16.1746L42.3175 20.7463L42.3175 43.6407ZM14.2405 45.7706L14.9957 48.0011C14.9749 47.9771 14.9562 47.9538 14.9394 47.9315C14.6437 47.5372 14.3268 46.9337 14.2405 45.7706ZM11.4897 40.2532L13.4532 40.421C12.7021 41.7624 12.4933 43.1699 12.5532 44.1782C12.4214 46.0949 12.6863 47.3408 13.1411 48.2431H11.3156C10.8321 48.2431 10.4685 47.9237 10.4024 47.5187C10.2542 46.6098 10.1026 45.3421 10.1026 43.9651C10.1026 42.5588 10.4219 41.4084 10.7078 40.6615C10.8016 40.4165 11.0815 40.2182 11.4897 40.2532ZM41.8082 11.0584C41.8082 10.6391 41.8706 10.2304 41.9899 9.85974H23.5213C22.9481 9.85974 22.4833 10.3245 22.4833 10.8978V11.2192C22.4833 11.7924 22.9481 12.2572 23.5213 12.2572H41.9899C41.8706 11.8865 41.8082 11.4778 41.8082 11.0584Z"/>
</mask>
<path fill-rule="evenodd" clip-rule="evenodd" d="M23.5213 8.16115C22.0099 8.16115 20.7847 9.38638 20.7847 10.8978V11.2192C20.7847 11.9452 21.0675 12.6053 21.5289 13.0951L18.4003 20.1345C18.3521 20.2431 18.3271 20.3606 18.3271 20.4794V36.8724C16.7587 37.2706 15.5675 37.9698 14.6854 38.8215L11.6344 38.5607C10.6238 38.4743 9.53671 38.9693 9.12144 40.0544C8.7805 40.9452 8.40405 42.3038 8.40405 43.9651C8.40405 45.4599 8.56794 46.8231 8.72601 47.7921C8.9377 49.0899 10.0737 49.9416 11.3156 49.9416H14.733C15.7185 50.5238 17.1909 50.9674 19.2623 51.1143C27.2959 51.6842 39.2602 51.2327 41.6363 51.1339C42.0738 51.1157 42.485 50.9806 42.8448 50.7507L49.9785 46.1916C51.4734 45.2362 51.818 43.1997 50.7207 41.8056C49.8667 40.7206 48.3941 40.3677 47.1538 40.9141V20.5838C47.1538 20.4943 47.1411 20.4053 47.116 20.3194L45.0516 13.2476C45.15 13.1356 45.2357 13.0158 45.3082 12.895C45.6121 12.3884 45.7757 11.7373 45.7757 11.0584C45.7757 10.3796 45.6121 9.72848 45.3082 9.22188C45.0132 8.73031 44.5006 8.25551 43.7919 8.25551C43.7431 8.25551 43.6952 8.25776 43.6482 8.26212C43.4131 8.19633 43.1652 8.16115 42.9091 8.16115H23.5213ZM16.1405 39.796C16.6957 39.3302 17.4099 38.9219 18.3271 38.6363V43.1682C18.3271 44.6796 19.5524 45.9048 21.0637 45.9048H41.1811C41.2433 45.9177 41.3078 45.9245 41.3739 45.9245H44.3228C45.8863 45.9245 47.1538 44.6571 47.1538 43.0936V42.8494L47.7188 42.5288C48.279 42.2108 48.9876 42.35 49.386 42.8562C49.8624 43.4614 49.7128 44.3456 49.0637 44.7604L41.9301 49.3194C41.8141 49.3936 41.6926 49.4315 41.5658 49.4368C39.1766 49.5361 27.306 49.9821 19.3824 49.42C18.4596 49.3545 17.7124 49.2286 17.1109 49.0726C17.109 48.9876 17.0942 48.9025 17.0663 48.82L15.69 44.7553L16.1399 39.8028L16.1405 39.796ZM36.364 44.2061H31.2108C31.2058 44.2061 31.2007 44.2061 31.1956 44.2062H21.0637C20.4905 44.2062 20.0257 43.7415 20.0257 43.1682V38.288C20.0623 38.2838 20.0992 38.2798 20.1363 38.2759C21.0935 38.2899 22.0109 38.7988 23.0717 39.4621C23.1384 39.5038 23.206 39.5463 23.2743 39.5892L23.2744 39.5893L23.2744 39.5893C23.723 39.8712 24.2024 40.1725 24.6738 40.4069C25.2206 40.6788 25.8428 40.9068 26.5113 40.9068H36.3121C36.8452 40.9068 37.2983 41.0261 37.5863 41.2334C37.8245 41.4048 38.0254 41.6848 38.0015 42.2636C37.9731 42.9522 37.783 43.3323 37.547 43.5804C37.3054 43.8343 36.933 44.0374 36.364 44.2061ZM39.1929 44.204H40.4302L40.4302 20.5838C40.4302 20.5184 40.437 20.4533 40.4504 20.3895C40.4571 20.3265 40.4708 20.2644 40.4914 20.2043L42.6308 13.9559H23.0052L20.0257 20.6596V36.58C20.0491 36.578 20.0725 36.5771 20.096 36.5771C21.622 36.577 22.9436 37.3787 23.9721 38.0218C24.0442 38.0669 24.1149 38.1112 24.1842 38.1547L24.1849 38.1552L24.1849 38.1552C24.6412 38.4416 25.0405 38.6923 25.4301 38.886C25.8755 39.1074 26.222 39.2083 26.5113 39.2083H36.3121C37.0461 39.2083 37.8969 39.3642 38.5785 39.8548C39.31 40.3812 39.7445 41.2217 39.6987 42.3336C39.6687 43.0603 39.5032 43.6835 39.1929 44.204ZM42.3175 43.6407L45.2665 41.9673V20.7187L43.9399 16.1746L42.3175 20.7463L42.3175 43.6407ZM14.2405 45.7706L14.9957 48.0011C14.9749 47.9771 14.9562 47.9538 14.9394 47.9315C14.6437 47.5372 14.3268 46.9337 14.2405 45.7706ZM11.4897 40.2532L13.4532 40.421C12.7021 41.7624 12.4933 43.1699 12.5532 44.1782C12.4214 46.0949 12.6863 47.3408 13.1411 48.2431H11.3156C10.8321 48.2431 10.4685 47.9237 10.4024 47.5187C10.2542 46.6098 10.1026 45.3421 10.1026 43.9651C10.1026 42.5588 10.4219 41.4084 10.7078 40.6615C10.8016 40.4165 11.0815 40.2182 11.4897 40.2532ZM41.8082 11.0584C41.8082 10.6391 41.8706 10.2304 41.9899 9.85974H23.5213C22.9481 9.85974 22.4833 10.3245 22.4833 10.8978V11.2192C22.4833 11.7924 22.9481 12.2572 23.5213 12.2572H41.9899C41.8706 11.8865 41.8082 11.4778 41.8082 11.0584Z" fill="#F8F9FA"/>
<path d="M21.5289 13.0951L22.8996 13.7043C23.1451 13.1521 23.0352 12.5065 22.6208 12.0666L21.5289 13.0951ZM18.4003 20.1345L19.771 20.7437L19.771 20.7437L18.4003 20.1345ZM18.3271 36.8724L18.6963 38.3263C19.3614 38.1574 19.8271 37.5586 19.8271 36.8724H18.3271ZM14.6854 38.8215L14.5576 40.3161C14.9892 40.353 15.4156 40.2015 15.7272 39.9006L14.6854 38.8215ZM11.6344 38.5607L11.7622 37.0662L11.7622 37.0662L11.6344 38.5607ZM9.12144 40.0543L7.72052 39.5182L7.72052 39.5182L9.12144 40.0543ZM8.72601 47.7921L10.2064 47.5506L10.2064 47.5506L8.72601 47.7921ZM11.3156 49.9416L11.3156 51.4416H11.3156V49.9416ZM14.733 49.9416L15.496 48.6502C15.2649 48.5136 15.0014 48.4416 14.733 48.4416V49.9416ZM19.2623 51.1143L19.1561 52.6105L19.1561 52.6105L19.2623 51.1143ZM41.6363 51.1339L41.574 49.6352L41.574 49.6352L41.6363 51.1339ZM42.8448 50.7506L43.6526 52.0146L43.6526 52.0146L42.8448 50.7506ZM49.9785 46.1916L50.7862 47.4555L50.7862 47.4555L49.9785 46.1916ZM50.7207 41.8056L51.8994 40.8779L51.8994 40.8779L50.7207 41.8056ZM47.1538 40.9141H45.6538C45.6538 41.421 45.9098 41.8936 46.3344 42.1705C46.7589 42.4474 47.2946 42.4912 47.7585 42.2868L47.1538 40.9141ZM47.116 20.3194L48.5559 19.899L48.5559 19.899L47.116 20.3194ZM45.0516 13.2476L43.9251 12.2571C43.586 12.6428 43.4678 13.175 43.6117 13.668L45.0516 13.2476ZM45.3082 12.895L46.5944 13.6667L46.5944 13.6667L45.3082 12.895ZM45.3082 9.22186L44.0219 9.9936L44.0219 9.9936L45.3082 9.22186ZM43.6482 8.2621L43.244 9.70661C43.4204 9.75598 43.6044 9.77261 43.7869 9.75568L43.6482 8.2621ZM18.3271 38.6363H19.8271C19.8271 38.1594 19.6003 37.7109 19.2163 37.4282C18.8322 37.1455 18.3365 37.0624 17.8812 37.2041L18.3271 38.6363ZM16.1405 39.796L15.1764 38.6469C14.8713 38.9028 14.6805 39.2695 14.6461 39.6662L16.1405 39.796ZM41.1811 45.9048L41.4859 44.4361C41.3857 44.4153 41.2835 44.4048 41.1811 44.4048V45.9048ZM47.1538 42.8494L46.4135 41.5448C45.9439 41.8112 45.6538 42.3095 45.6538 42.8494H47.1538ZM47.7188 42.5288L48.4591 43.8334L48.4591 43.8334L47.7188 42.5288ZM49.386 42.8562L48.2073 43.7839L48.2073 43.7839L49.386 42.8562ZM49.0637 44.7603L48.256 43.4964L48.256 43.4964L49.0637 44.7603ZM41.9301 49.3194L42.7379 50.5833L42.7379 50.5833L41.9301 49.3194ZM41.5658 49.4368L41.6281 50.9355L41.6281 50.9355L41.5658 49.4368ZM19.3824 49.42L19.2763 50.9162L19.2763 50.9162L19.3824 49.42ZM17.1109 49.0726L15.6113 49.1074C15.6269 49.7776 16.0853 50.3562 16.7343 50.5245L17.1109 49.0726ZM17.0663 48.82L15.6455 49.301L15.6455 49.301L17.0663 48.82ZM15.69 44.7552L14.1961 44.6195C14.1772 44.828 14.2021 45.0381 14.2692 45.2363L15.69 44.7552ZM16.1399 39.8028L17.6337 39.9385L17.6342 39.9325L16.1399 39.8028ZM36.364 44.2061V45.7061C36.5084 45.7061 36.6519 45.6852 36.7903 45.6442L36.364 44.2061ZM31.1956 44.2062V45.7062C31.2043 45.7062 31.213 45.7061 31.2216 45.706L31.1956 44.2062ZM20.0257 38.288L19.8557 36.7976C19.098 36.8841 18.5257 37.5253 18.5257 38.288H20.0257ZM20.1363 38.2759L20.1581 36.7761C20.099 36.7752 20.0399 36.7778 19.9812 36.784L20.1363 38.2759ZM23.0717 39.4621L23.8669 38.1902L23.8669 38.1902L23.0717 39.4621ZM23.2743 39.5892L24.1064 38.3411C24.0952 38.3337 24.0839 38.3264 24.0725 38.3192L23.2743 39.5892ZM23.2744 39.5893L22.4424 40.8373C22.4536 40.8448 22.4649 40.8521 22.4762 40.8593L23.2744 39.5893ZM24.6738 40.4069L25.3417 39.0638L25.3417 39.0637L24.6738 40.4069ZM37.5863 41.2334L38.4625 40.0159L38.4625 40.0159L37.5863 41.2334ZM38.0015 42.2636L36.5028 42.2018L36.5028 42.2018L38.0015 42.2636ZM37.547 43.5803L38.6337 44.6143L38.6337 44.6143L37.547 43.5803ZM40.4302 44.204V45.704C40.828 45.704 41.2096 45.546 41.4909 45.2647C41.7722 44.9834 41.9302 44.6018 41.9302 44.204L40.4302 44.204ZM39.1929 44.204L37.9045 43.4359C37.6282 43.8994 37.6221 44.4756 37.8886 44.9449C38.1552 45.4141 38.6533 45.704 39.1929 45.704V44.204ZM40.4302 20.5838L38.9302 20.5838L38.9302 20.5838L40.4302 20.5838ZM40.4504 20.3895L41.9183 20.6984C41.9287 20.6488 41.9366 20.5986 41.942 20.5482L40.4504 20.3895ZM40.4914 20.2043L41.9105 20.6902L41.9105 20.6902L40.4914 20.2043ZM42.6308 13.9558L44.0499 14.4417C44.2068 13.9835 44.1328 13.4778 43.8512 13.0837C43.5696 12.6897 43.1151 12.4558 42.6308 12.4558V13.9558ZM23.0052 13.9558V12.4558C22.4124 12.4558 21.8752 12.8049 21.6345 13.3466L23.0052 13.9558ZM20.0257 20.6596L18.655 20.0504C18.5698 20.2422 18.5257 20.4497 18.5257 20.6596H20.0257ZM20.0257 36.5799H18.5257C18.5257 36.9993 18.7013 37.3996 19.0099 37.6836C19.3184 37.9676 19.7318 38.1095 20.1498 38.0748L20.0257 36.5799ZM20.096 36.577L20.096 38.077L20.096 38.077L20.096 36.577ZM23.9721 38.0218L23.1769 39.2937L23.177 39.2937L23.9721 38.0218ZM24.1842 38.1547L23.3867 39.4251L23.3892 39.4267L24.1842 38.1547ZM24.1849 38.1551L25.0169 36.9071C25.0047 36.8989 24.9923 36.8909 24.9799 36.8831L24.1849 38.1551ZM24.1849 38.1552L23.3529 39.4033C23.3643 39.4109 23.3758 39.4183 23.3875 39.4256L24.1849 38.1552ZM25.4301 38.8859L24.7622 40.2291L24.7622 40.2291L25.4301 38.8859ZM38.5785 39.8547L39.4548 38.6373L39.4548 38.6373L38.5785 39.8547ZM39.6987 42.3335L41.1974 42.3953L41.1974 42.3953L39.6987 42.3335ZM45.2665 41.9673L46.0068 43.2719C46.4763 43.0055 46.7665 42.5072 46.7665 41.9673H45.2665ZM42.3175 43.6407L40.8175 43.6407C40.8175 44.1746 41.1013 44.6683 41.5627 44.9369C42.0241 45.2056 42.5935 45.2088 43.0578 44.9453L42.3175 43.6407ZM45.2665 20.7187H46.7665C46.7665 20.5765 46.7462 20.4349 46.7064 20.2984L45.2665 20.7187ZM43.9399 16.1745L45.3798 15.7542C45.1975 15.1295 44.6331 14.6937 43.9826 14.6751C43.3322 14.6566 42.7439 15.0596 42.5263 15.6729L43.9399 16.1745ZM42.3175 20.7463L40.9039 20.2446C40.8467 20.4057 40.8175 20.5754 40.8175 20.7463L42.3175 20.7463ZM14.9957 48.0011L13.8622 48.9835C14.3319 49.5254 15.1193 49.659 15.7414 49.3026C16.3636 48.9461 16.6464 48.1992 16.4165 47.52L14.9957 48.0011ZM14.2405 45.7706L15.6613 45.2896C15.419 44.574 14.6824 44.1503 13.9421 44.3006C13.2018 44.4509 12.6887 45.1283 12.7446 45.8816L14.2405 45.7706ZM14.9394 47.9315L13.7394 48.8315L13.7394 48.8315L14.9394 47.9315ZM13.4532 40.421L14.762 41.1538C15.0109 40.7091 15.0171 40.1685 14.7784 39.7183C14.5397 39.2681 14.0887 38.9698 13.5809 38.9264L13.4532 40.421ZM11.4897 40.2531L11.362 41.7477L11.362 41.7477L11.4897 40.2531ZM12.5532 44.1782L14.0496 44.2811C14.054 44.2172 14.0543 44.1532 14.0505 44.0893L12.5532 44.1782ZM13.1411 48.243V49.743C13.6618 49.743 14.1452 49.473 14.4183 49.0296C14.6913 48.5862 14.7149 48.0329 14.4805 47.5679L13.1411 48.243ZM10.4024 47.5186L11.8829 47.2772L11.8829 47.2772L10.4024 47.5186ZM10.1026 43.9651L8.60264 43.9651L8.60264 43.9651L10.1026 43.9651ZM10.7078 40.6614L12.1087 41.1976L12.1087 41.1976L10.7078 40.6614ZM41.9899 9.85972L43.4177 10.3195C43.5647 9.86309 43.4846 9.36395 43.2023 8.97644C42.92 8.58892 42.4694 8.35972 41.9899 8.35972V9.85972ZM41.9899 12.2572V13.7572C42.4694 13.7572 42.92 13.5279 43.2023 13.1404C43.4846 12.7529 43.5647 12.2538 43.4178 11.7974L41.9899 12.2572ZM22.2847 10.8977C22.2847 10.2148 22.8384 9.66113 23.5213 9.66113V6.66113C21.1815 6.66113 19.2847 8.55793 19.2847 10.8977H22.2847ZM22.2847 11.2191V10.8977H19.2847V11.2191H22.2847ZM22.6208 12.0666C22.4111 11.844 22.2847 11.5479 22.2847 11.2191H19.2847C19.2847 12.3425 19.7239 13.3665 20.437 14.1236L22.6208 12.0666ZM19.771 20.7437L22.8996 13.7043L20.1582 12.4859L17.0296 19.5253L19.771 20.7437ZM19.8271 20.4794C19.8271 20.5704 19.808 20.6605 19.771 20.7437L17.0296 19.5252C16.8961 19.8256 16.8271 20.1507 16.8271 20.4794H19.8271ZM19.8271 36.8724V20.4794H16.8271V36.8724H19.8271ZM15.7272 39.9006C16.4114 39.2401 17.3668 38.6638 18.6963 38.3263L17.958 35.4185C16.1507 35.8774 14.7237 36.6995 13.6435 37.7424L15.7272 39.9006ZM11.5067 40.0553L14.5576 40.3161L14.8131 37.327L11.7622 37.0662L11.5067 40.0553ZM10.5224 40.5905C10.651 40.2544 11.0192 40.0136 11.5067 40.0553L11.7622 37.0662C10.2284 36.935 8.42246 37.684 7.72052 39.5182L10.5224 40.5905ZM9.90405 43.9651C9.90405 42.529 10.23 41.3543 10.5224 40.5905L7.72052 39.5182C7.33097 40.5361 6.90405 42.0786 6.90405 43.9651H9.90405ZM10.2064 47.5506C10.057 46.6348 9.90405 45.3558 9.90405 43.9651H6.90405C6.90405 45.5639 7.07882 47.0113 7.24557 48.0336L10.2064 47.5506ZM11.3156 48.4416C10.7385 48.4416 10.2888 48.0554 10.2064 47.5506L7.24557 48.0336C7.58662 50.1244 9.40891 51.4416 11.3156 51.4416L11.3156 48.4416ZM14.733 48.4416H11.3156V51.4416H14.733V48.4416ZM19.3684 49.6181C17.442 49.4814 16.2178 49.0766 15.496 48.6502L13.97 51.2331C15.2191 51.971 16.9398 52.4533 19.1561 52.6105L19.3684 49.6181ZM41.574 49.6352C39.1864 49.7344 27.3048 50.181 19.3684 49.6181L19.1561 52.6105C27.2871 53.1873 39.334 52.7309 41.6986 52.6326L41.574 49.6352ZM42.0371 49.4867C41.8924 49.5791 41.7371 49.6284 41.574 49.6352L41.6986 52.6326C42.4104 52.603 43.0775 52.3821 43.6526 52.0146L42.0371 49.4867ZM49.1707 44.9277L42.0371 49.4867L43.6526 52.0146L50.7862 47.4555L49.1707 44.9277ZM49.542 42.7333C50.091 43.4308 49.9186 44.4497 49.1707 44.9277L50.7862 47.4555C53.0281 46.0227 53.545 42.9686 51.8994 40.8779L49.542 42.7333ZM47.7585 42.2868C48.3781 42.0138 49.1151 42.1909 49.5421 42.7334L51.8994 40.8779C50.6182 39.2502 48.4101 38.7215 46.5491 39.5414L47.7585 42.2868ZM45.6538 20.5838V40.9141H48.6538V20.5838H45.6538ZM45.6761 20.7397C45.6613 20.689 45.6538 20.6366 45.6538 20.5838H48.6538C48.6538 20.3521 48.6208 20.1215 48.5559 19.899L45.6761 20.7397ZM43.6117 13.668L45.6761 20.7397L48.5559 19.899L46.4915 12.8273L43.6117 13.668ZM44.0219 12.1232C43.9919 12.1733 43.9588 12.2188 43.9251 12.2571L46.178 14.2381C46.3413 14.0524 46.4795 13.8583 46.5944 13.6667L44.0219 12.1232ZM44.2757 11.0584C44.2757 11.5124 44.1637 11.887 44.0219 12.1232L46.5944 13.6667C47.0606 12.8898 47.2757 11.9621 47.2757 11.0584H44.2757ZM44.0219 9.9936C44.1637 10.2298 44.2757 10.6044 44.2757 11.0584H47.2757C47.2757 10.1547 47.0606 9.22708 46.5944 8.45011L44.0219 9.9936ZM43.7919 9.75549C43.7986 9.75549 43.7994 9.75612 43.8001 9.75637C43.8025 9.75718 43.8147 9.76169 43.8365 9.77722C43.8864 9.8126 43.9565 9.88455 44.0219 9.9936L46.5944 8.45012C46.1603 7.72651 45.2413 6.75549 43.7919 6.75549V9.75549ZM43.7869 9.75568C43.7877 9.75561 43.7893 9.75549 43.7919 9.75549V6.75549C43.6969 6.75549 43.6027 6.75988 43.5096 6.76852L43.7869 9.75568ZM42.9091 9.66113C43.0273 9.66113 43.1392 9.67729 43.244 9.70661L44.0525 6.8176C43.687 6.71534 43.3032 6.66113 42.9091 6.66113V9.66113ZM23.5213 9.66113H42.9091V6.66113H23.5213V9.66113ZM17.8812 37.2041C16.7829 37.5461 15.8907 38.0476 15.1764 38.6469L17.1046 40.9451C17.5007 40.6128 18.0369 40.2977 18.7731 40.0685L17.8812 37.2041ZM19.8271 43.1682V38.6363H16.8271V43.1682H19.8271ZM21.0637 44.4048C20.3808 44.4048 19.8271 43.8511 19.8271 43.1682H16.8271C16.8271 45.508 18.7239 47.4048 21.0637 47.4048V44.4048ZM41.1811 44.4048H21.0637V47.4048H41.1811V44.4048ZM41.3739 44.4245C41.4109 44.4245 41.4485 44.4283 41.4859 44.4361L40.8763 47.3735C41.0382 47.4071 41.2048 47.4245 41.3739 47.4245V44.4245ZM44.3228 44.4245H41.3739V47.4245H44.3228V44.4245ZM45.6538 43.0935C45.6538 43.8286 45.0579 44.4245 44.3228 44.4245V47.4245C46.7147 47.4245 48.6538 45.4855 48.6538 43.0935H45.6538ZM45.6538 42.8494V43.0935H48.6538V42.8494H45.6538ZM46.9785 41.2242L46.4135 41.5448L47.8941 44.154L48.4591 43.8334L46.9785 41.2242ZM50.5647 41.9284C49.7076 40.8396 48.1836 40.5403 46.9785 41.2242L48.4591 43.8334C48.3745 43.8814 48.2675 43.8603 48.2073 43.7839L50.5647 41.9284ZM49.8715 46.0243C51.2675 45.1321 51.5894 43.2303 50.5647 41.9284L48.2073 43.7839C48.1354 43.6925 48.158 43.559 48.256 43.4964L49.8715 46.0243ZM42.7379 50.5833L49.8715 46.0243L48.256 43.4964L41.1224 48.0555L42.7379 50.5833ZM41.6281 50.9355C42.0289 50.9188 42.4063 50.7952 42.7379 50.5833L41.1224 48.0554C41.2219 47.9919 41.3563 47.9442 41.5035 47.9381L41.6281 50.9355ZM19.2763 50.9162C27.2971 51.4852 39.2505 51.0343 41.6281 50.9355L41.5035 47.9381C39.1028 48.0378 27.3148 48.4789 19.4886 47.9237L19.2763 50.9162ZM16.7343 50.5245C17.4371 50.7068 18.2762 50.8453 19.2763 50.9162L19.4886 47.9237C18.643 47.8637 17.9877 47.7504 17.4876 47.6206L16.7343 50.5245ZM15.6455 49.301C15.6242 49.238 15.6129 49.1726 15.6113 49.1074L18.6105 49.0377C18.6051 48.8026 18.5643 48.5669 18.4871 48.3389L15.6455 49.301ZM14.2692 45.2363L15.6455 49.301L18.4871 48.3389L17.1108 44.2742L14.2692 45.2363ZM14.646 39.6671L14.1961 44.6195L17.1838 44.8909L17.6337 39.9385L14.646 39.6671ZM14.6461 39.6662L14.6455 39.673L17.6342 39.9325L17.6348 39.9258L14.6461 39.6662ZM31.2108 45.7061H36.364V42.7061H31.2108V45.7061ZM31.2216 45.706C31.2184 45.706 31.2148 45.7061 31.2108 45.7061V42.7061C31.1968 42.7061 31.183 42.7062 31.1696 42.7064L31.2216 45.706ZM31.1956 42.7062H21.0637V45.7062H31.1956V42.7062ZM21.0637 42.7062C21.3189 42.7062 21.5257 42.913 21.5257 43.1682H18.5257C18.5257 44.5699 19.662 45.7062 21.0637 45.7062V42.7062ZM21.5257 43.1682V38.288H18.5257V43.1682H21.5257ZM20.1957 39.7783C20.2274 39.7747 20.2593 39.7712 20.2914 39.7679L19.9812 36.784C19.9391 36.7883 19.8973 36.7929 19.8557 36.7976L20.1957 39.7783ZM20.1144 39.7757C20.5939 39.7827 21.1719 40.0433 22.2765 40.7339L23.8669 38.1902C22.8498 37.5543 21.593 36.797 20.1581 36.7761L20.1144 39.7757ZM22.2765 40.7339C22.3415 40.7746 22.4076 40.8161 22.4761 40.8592L24.0725 38.3192C24.0045 38.2764 23.9354 38.233 23.8669 38.1902L22.2765 40.7339ZM22.4423 40.8373L22.4423 40.8373L24.1064 38.3412L24.1064 38.3411L22.4423 40.8373ZM22.4423 40.8373L22.4424 40.8373L24.1065 38.3412L24.1064 38.3412L22.4423 40.8373ZM22.4762 40.8593C22.9118 41.133 23.4555 41.4763 24.006 41.75L25.3417 39.0637C24.9492 38.8686 24.5342 38.6094 24.0726 38.3193L22.4762 40.8593ZM24.006 41.75C24.6426 42.0666 25.5081 42.4068 26.5113 42.4068V39.4068C26.1774 39.4068 25.7986 39.291 25.3417 39.0638L24.006 41.75ZM26.5113 42.4068H36.3121V39.4068H26.5113V42.4068ZM36.3121 42.4068C36.4701 42.4068 36.589 42.4248 36.6662 42.4448C36.7484 42.466 36.7518 42.4809 36.7101 42.4509L38.4625 40.0159C37.8275 39.5589 37.0237 39.4068 36.3121 39.4068V42.4068ZM36.7101 42.4509C36.6932 42.4387 36.6614 42.4134 36.626 42.3728C36.5894 42.331 36.5579 42.2833 36.5348 42.234C36.4868 42.1319 36.5072 42.0955 36.5028 42.2018L39.5002 42.3254C39.5197 41.8529 39.4516 41.3871 39.2496 40.9574C39.0428 40.5177 38.744 40.2185 38.4625 40.0159L36.7101 42.4509ZM36.5028 42.2018C36.4937 42.4217 36.4615 42.524 36.4499 42.5544C36.442 42.5752 36.4446 42.5629 36.4603 42.5464L38.6337 44.6143C39.1732 44.0472 39.4604 43.2925 39.5002 42.3254L36.5028 42.2018ZM36.4603 42.5464C36.4751 42.5308 36.3864 42.6349 35.9377 42.7679L36.7903 45.6442C37.4797 45.4399 38.1356 45.1378 38.6337 44.6143L36.4603 42.5464ZM40.4302 42.704H39.1929V45.704H40.4302V42.704ZM38.9302 20.5838L38.9302 44.204L41.9302 44.204L41.9302 20.5838L38.9302 20.5838ZM38.9825 20.0807C38.9478 20.2458 38.9302 20.4145 38.9302 20.5838H41.9302C41.9302 20.6223 41.9262 20.6607 41.9183 20.6984L38.9825 20.0807ZM39.0723 19.7184C39.0154 19.8846 38.9774 20.0565 38.9588 20.2308L41.942 20.5482C41.9368 20.5965 41.9263 20.6441 41.9105 20.6902L39.0723 19.7184ZM41.2117 13.47L39.0723 19.7184L41.9105 20.6902L44.0499 14.4417L41.2117 13.47ZM23.0052 15.4558H42.6308V12.4558H23.0052V15.4558ZM21.3964 21.2688L24.3759 14.5651L21.6345 13.3466L18.655 20.0504L21.3964 21.2688ZM21.5257 36.5799V20.6596H18.5257V36.5799H21.5257ZM20.096 35.077C20.0311 35.077 19.9663 35.0797 19.9016 35.0851L20.1498 38.0748C20.1319 38.0763 20.1139 38.077 20.096 38.077V35.077ZM24.7673 36.7499C23.7773 36.131 22.1102 35.077 20.096 35.077L20.096 38.077C21.1339 38.077 22.1098 38.6265 23.1769 39.2937L24.7673 36.7499ZM24.9817 36.8843C24.9125 36.8408 24.8408 36.7958 24.7673 36.7499L23.177 39.2937C23.2477 39.3379 23.3172 39.3815 23.3867 39.4251L24.9817 36.8843ZM24.9799 36.8831L24.9792 36.8827L23.3892 39.4267L23.3899 39.4271L24.9799 36.8831ZM25.017 36.9071L25.0169 36.9071L23.3528 39.4032L23.3529 39.4033L25.017 36.9071ZM26.0979 37.5428C25.7881 37.3887 25.4551 37.1814 24.9824 36.8847L23.3875 39.4256C23.8272 39.7017 24.293 39.9958 24.7622 40.2291L26.0979 37.5428ZM26.5113 37.7082C26.541 37.7082 26.5277 37.7134 26.4554 37.692C26.3818 37.6702 26.2663 37.6265 26.0979 37.5428L24.7622 40.2291C25.2966 40.4948 25.8867 40.7082 26.5113 40.7082V37.7082ZM36.3121 37.7082H26.5113V40.7082H36.3121V37.7082ZM39.4548 38.6373C38.4252 37.8963 37.2229 37.7082 36.3121 37.7082V40.7082C36.8693 40.7082 37.3686 40.8321 37.7023 41.0722L39.4548 38.6373ZM41.1974 42.3953C41.2626 40.8137 40.6226 39.4778 39.4548 38.6373L37.7023 41.0722C37.9974 41.2846 38.2264 41.6297 38.1999 42.2717L41.1974 42.3953ZM40.4813 44.9721C40.9459 44.1929 41.1595 43.314 41.1974 42.3953L38.1999 42.2717C38.1779 42.8066 38.0606 43.1741 37.9045 43.4359L40.4813 44.9721ZM44.5262 40.6627L41.5772 42.3361L43.0578 44.9453L46.0068 43.2719L44.5262 40.6627ZM43.7665 20.7187V41.9673H46.7665V20.7187H43.7665ZM42.5 16.5949L43.8266 21.1391L46.7064 20.2984L45.3798 15.7542L42.5 16.5949ZM43.7311 21.2479L45.3535 16.6762L42.5263 15.6729L40.9039 20.2446L43.7311 21.2479ZM43.8175 43.6407L43.8175 20.7463L40.8175 20.7463L40.8175 43.6407L43.8175 43.6407ZM16.4165 47.52L15.6613 45.2896L12.8197 46.2517L13.575 48.4821L16.4165 47.52ZM13.7394 48.8315C13.7785 48.8835 13.8195 48.9342 13.8622 48.9835L16.1292 47.0186C16.1303 47.0199 16.1339 47.0241 16.1394 47.0315L13.7394 48.8315ZM12.7446 45.8816C12.8511 47.3166 13.2635 48.197 13.7394 48.8315L16.1394 47.0315C16.0652 46.9325 15.9886 46.8103 15.9194 46.6219C15.8475 46.4264 15.7709 46.1244 15.7364 45.6596L12.7446 45.8816ZM13.5809 38.9264L11.6175 38.7586L11.362 41.7477L13.3254 41.9155L13.5809 38.9264ZM14.0505 44.0893C14.0059 43.3373 14.165 42.22 14.762 41.1538L12.1444 39.6881C11.2391 41.3048 10.9807 43.0025 11.0558 44.2671L14.0505 44.0893ZM14.4805 47.5679C14.1815 46.9746 13.9303 46.0176 14.0496 44.2811L11.0567 44.0753C10.9125 46.1722 11.191 47.7068 11.8016 48.9182L14.4805 47.5679ZM11.3156 49.743H13.1411V46.743H11.3156V49.743ZM8.922 47.7601C9.11447 48.9401 10.148 49.743 11.3156 49.743V46.743C11.5163 46.743 11.8225 46.9073 11.8829 47.2772L8.922 47.7601ZM8.60264 43.9651C8.60264 45.4461 8.76508 46.7981 8.922 47.7601L11.8829 47.2772C11.7433 46.4215 11.6026 45.238 11.6026 43.9651L8.60264 43.9651ZM9.30691 40.1253C8.9724 40.9994 8.60264 42.3336 8.60264 43.9651L11.6026 43.9651C11.6026 42.7839 11.8715 41.8175 12.1087 41.1976L9.30691 40.1253ZM11.6175 38.7586C10.648 38.6757 9.6753 39.1627 9.3069 40.1253L12.1087 41.1976C11.9278 41.6703 11.5149 41.7608 11.362 41.7477L11.6175 38.7586ZM40.5621 9.39996C40.3919 9.9287 40.3082 10.4934 40.3082 11.0584H43.3082C43.3082 10.7848 43.3493 10.532 43.4177 10.3195L40.5621 9.39996ZM23.5213 11.3597H41.9899V8.35972H23.5213V11.3597ZM23.9833 10.8977C23.9833 11.1529 23.7765 11.3597 23.5213 11.3597V8.35972C22.1196 8.35972 20.9833 9.49603 20.9833 10.8977H23.9833ZM23.9833 11.2191V10.8977H20.9833V11.2191H23.9833ZM23.5213 10.7572C23.7765 10.7572 23.9833 10.964 23.9833 11.2191H20.9833C20.9833 12.6208 22.1196 13.7572 23.5213 13.7572V10.7572ZM41.9899 10.7572H23.5213V13.7572H41.9899V10.7572ZM40.3082 11.0584C40.3082 11.6235 40.3919 12.1882 40.5621 12.7169L43.4178 11.7974C43.3493 11.5848 43.3082 11.332 43.3082 11.0584H40.3082Z" fill="#F8F9FA" mask="url(#path-1-outside-1_50_11463)"/>
<path d="M21.5918 11.0664C21.5918 9.96184 22.4872 9.06641 23.5918 9.06641H42.7542C43.8588 9.06641 44.7542 9.96184 44.7542 11.0664V11.1624C44.7542 12.267 43.8588 13.1624 42.7542 13.1624H23.5918C22.4872 13.1624 21.5918 12.267 21.5918 11.1624V11.0664Z" fill="#FFEC99" stroke="#212529" stroke-width="1.8" stroke-linecap="round" stroke-linejoin="round"/>
<path d="M41.2527 45.1111V20.5349L43.777 13.1621H22.411L19.1342 20.5349V43.1111C19.1342 44.2156 20.0296 45.1111 21.1342 45.1111H41.2527Z" fill="#FFEC99" stroke="#212529" stroke-width="1.6" stroke-linecap="round" stroke-linejoin="round"/>
<g style="mix-blend-mode:multiply">
<path d="M25.9706 38.3224C23.568 36.7077 21.0146 35.3989 19.1981 35.3096L19.5386 45.1117H40.8893C41.0381 44.4566 41.2466 42.7712 40.8893 41.2704C40.5712 39.9344 38.9081 38.9241 37.8535 38.4662C37.6188 38.3643 37.3693 38.3266 37.1135 38.3347C35.173 38.3963 26.4628 38.6532 25.9706 38.3224Z" fill="#DEE2E6"/>
</g>
<path d="M31.138 9.06645H35.1766V12.9062L33.3779 17.7789H29.3394L31.138 12.9062V9.06645Z" fill="#F8F9FA" stroke="#212529" stroke-linecap="round" stroke-linejoin="round"/>
<path d="M31.3127 12.8486L34.7882 12.8486" stroke="#212529" stroke-width="0.8" stroke-linecap="round" stroke-linejoin="round"/>
<path d="M46.1678 20.6394L43.985 11.4141L41.3315 20.6394L41.3316 45.0364H44.1678C45.2724 45.0364 46.1678 44.141 46.1678 43.0365V20.6394Z" fill="#FFEC99" stroke="#212529" stroke-width="1.6" stroke-linecap="round" stroke-linejoin="round"/>
<g style="mix-blend-mode:multiply" opacity="0.5">
<path d="M45.3398 20.5921L43.9078 14.5614L42.1669 20.5921L42.1669 44.2631H44.3398C44.8921 44.2631 45.3398 43.8154 45.3398 43.2631L45.3398 20.5921Z" fill="#FFEC99"/>
</g>
<ellipse cx="43.7497" cy="11.1144" rx="1.22881" ry="2.04801" fill="#FFEC99" stroke="#212529" stroke-width="1.4" stroke-linecap="round" stroke-linejoin="round"/>
<rect x="23.4861" y="25.8535" width="14.0654" height="8.29438" rx="1" fill="#FFF9DB" stroke="#212529" stroke-width="1.2" stroke-linecap="round" stroke-linejoin="round"/>
<path d="M9.50786 47.6242C9.35927 46.6919 9.21106 45.4131 9.21106 44.0212C9.21106 42.5277 9.54093 41.299 9.84762 40.4794C10.1121 39.7727 10.837 39.4047 11.5889 39.469L15.2518 39.7821L14.7856 44.9135L16.2196 49.1485L11.3609 49.1485C10.4467 49.1485 9.65175 48.527 9.50786 47.6242Z" fill="#F8F9FA" stroke="#212529" stroke-width="1.6" stroke-linecap="round" stroke-linejoin="round"/>
<path d="M14.2178 48.4972C13.6593 47.7525 13.1908 46.6018 13.3622 44.2366C13.2179 42.2228 14.3542 38.0526 20.0537 37.4824C22.5516 37.4824 24.5533 40.1136 26.4691 40.1136H36.2698C37.5371 40.1136 38.8776 40.6641 38.8079 42.3547C38.7381 44.0452 37.8299 44.725 36.4485 45.1094H41.1013C41.3671 45.1094 41.6284 45.0404 41.8596 44.9092L47.2574 41.8462C48.1828 41.3211 49.353 41.5509 50.0111 42.387C50.798 43.3867 50.5508 44.847 49.4789 45.5321L42.3453 50.0911C42.1073 50.2432 41.841 50.3297 41.5588 50.3414C39.1762 50.4405 27.2587 50.8892 19.2801 50.3232C16.2357 50.1073 14.7763 49.2418 14.2178 48.4972Z" fill="#FFD8A8" stroke="#212529" stroke-width="1.6" stroke-linecap="round" stroke-linejoin="round"/>
<path d="M31.1686 45.1113H39.6774" stroke="#212529" stroke-width="1.6" stroke-linecap="round" stroke-linejoin="round"/>
</svg>
