<svg width="61" height="60" viewBox="0 0 61 60" fill="none" xmlns="http://www.w3.org/2000/svg">
<mask id="path-1-outside-1_50_8284" maskUnits="userSpaceOnUse" x="7.54333" y="8.51367" width="47" height="46" fill="black">
<rect fill="white" x="7.54333" y="8.51367" width="47" height="46"/>
<path fill-rule="evenodd" clip-rule="evenodd" d="M32.2536 10.5137C37.6577 10.5137 42.5797 11.0439 46.1763 11.9159C47.9675 12.3501 49.4803 12.8809 50.5672 13.5039C51.5856 14.0877 52.5433 14.9372 52.5433 16.1145C52.5433 16.2201 52.5356 16.323 52.5209 16.4234C52.5356 16.4879 52.5433 16.5551 52.5433 16.6241C52.5433 16.901 52.4503 18.1393 52.027 19.6992C51.6021 21.2649 50.8249 23.2295 49.4074 24.8899C48.8736 25.5151 48.3099 26.0547 47.7318 26.5263C48.0642 26.6985 48.3562 26.9467 48.5856 27.3016C49.2419 28.3171 48.8236 29.5856 47.9107 30.171C46.7973 30.8851 44.0612 31.9513 41.1618 32.7934C40.1936 33.0746 39.1864 33.337 38.1949 33.5554C38.1938 33.5987 38.1933 33.6427 38.1933 33.6873L38.1933 33.6874C38.1933 33.6887 38.194 33.7042 38.2018 33.7371C38.2105 33.7739 38.2263 33.8247 38.2533 33.8919C38.3087 34.0298 38.3963 34.2001 38.5207 34.4137C38.6415 34.621 38.7824 34.8446 38.9427 35.0991L38.9428 35.0992L38.9551 35.1188C39.1175 35.3765 39.2961 35.6605 39.4718 35.9601C40.1618 37.1366 40.9169 38.7262 40.6141 40.5378C40.3456 42.1448 39.862 43.3776 38.6463 44.5316C37.4976 45.622 35.7302 46.6047 33.0471 47.8824C31.5786 48.5817 30.4899 49.6029 30.049 50.6918C29.8434 51.1994 29.455 51.6571 28.9742 51.9334C28.4828 52.2157 27.7875 52.3552 27.1261 51.9731C26.5673 51.6503 26.0464 51.2034 25.6828 50.4958C25.329 49.8075 25.1634 48.9487 25.1634 47.8646C25.1634 46.0336 26.2779 44.7906 27.1567 43.8106L27.1668 43.7994C28.1153 42.7416 28.8357 41.9333 28.9633 40.7878C28.968 40.7454 28.9717 40.7025 28.9742 40.6589C27.8436 40.426 26.8345 40.072 26.0569 39.5618C25.2976 39.0638 24.9198 37.9767 25.5685 37.1071C25.9004 36.6622 26.3481 36.4421 26.8236 36.3388C26.8809 36.3264 26.9393 36.3155 26.9988 36.3059C25.6711 34.6675 23.8065 33.0283 21.7738 31.6917C19.989 30.5181 17.5599 28.5001 15.5674 25.9253C15.3552 25.6511 15.1472 25.3696 14.9449 25.0812C13.8417 24.6879 12.9696 24.3245 12.4156 24.045L12.3911 24.0326C11.9487 23.8095 11.1045 23.3836 10.4359 22.8506C10.0976 22.5809 9.75455 22.2458 9.5423 21.8508C9.31903 21.4354 9.22159 20.9072 9.48764 20.3587C9.80715 19.7001 10.4062 19.4335 10.975 19.3264C11.3609 19.2539 11.8045 19.2406 12.2561 19.2436C12.0681 18.3946 11.9639 17.5197 11.9639 16.6241C11.9639 16.5551 11.9716 16.488 11.9863 16.4234C11.9716 16.3231 11.9639 16.2201 11.9639 16.1145C11.9639 14.9372 12.9216 14.0877 13.9401 13.5039C15.0269 12.8809 16.5397 12.3501 18.3309 11.9159C21.9275 11.0439 26.8495 10.5137 32.2536 10.5137ZM13.7116 23.0854C13.4715 22.9813 13.2649 22.8853 13.0952 22.7997C12.6409 22.5705 11.9025 22.1966 11.3461 21.7531C11.0656 21.5295 10.8811 21.3262 10.7915 21.1595C10.7129 21.0132 10.7343 20.9566 10.7525 20.919C10.7868 20.8483 10.8508 20.7563 11.1839 20.6936C11.5339 20.6278 12.0015 20.63 12.6466 20.6428C12.9315 21.4897 13.2941 22.3058 13.7116 23.0854ZM28.7128 39.1551C28.5422 38.6815 28.2897 38.1727 27.956 37.6375C27.5655 37.6356 27.2856 37.6516 27.0723 37.6979C26.8433 37.7477 26.7531 37.8186 26.6897 37.9037C26.6553 37.9497 26.6352 38.0153 26.6568 38.1075C26.6795 38.2038 26.7473 38.3134 26.8677 38.3924C27.3378 38.7008 27.9605 38.9568 28.7128 39.1551ZM46.2808 27.564C46.5011 27.5851 46.6857 27.6153 46.8435 27.6586C47.1434 27.7409 47.298 27.8568 47.4109 28.0315C47.5749 28.2852 47.5162 28.7407 47.1254 28.9914C46.1904 29.591 43.6214 30.6133 40.7318 31.4525C40.0039 31.6639 39.2674 31.8602 38.5431 32.0332C38.6846 31.7589 38.8639 31.5258 39.0719 31.3172C39.6524 30.7354 40.5059 30.2923 41.6491 29.7946C41.9021 29.6844 42.1665 29.5729 42.4402 29.4576C43.6109 28.9641 44.95 28.3996 46.2808 27.564ZM15.2719 30.5608C16.4178 30.5608 17.3467 31.4897 17.3467 32.6356C17.3467 33.7814 16.4178 34.7103 15.2719 34.7103C14.1261 34.7103 13.1972 33.7814 13.1972 32.6356C13.1972 31.4897 14.1261 30.5608 15.2719 30.5608ZM47.9056 36.084C48.7937 36.084 49.5135 36.8039 49.5135 37.6919C49.5135 38.5799 48.7937 39.2998 47.9056 39.2998C47.0176 39.2998 46.2977 38.5799 46.2977 37.6919C46.2977 36.8039 47.0176 36.084 47.9056 36.084Z"/>
</mask>
<path fill-rule="evenodd" clip-rule="evenodd" d="M32.2536 10.5137C37.6577 10.5137 42.5797 11.0439 46.1763 11.9159C47.9675 12.3501 49.4803 12.8809 50.5672 13.5039C51.5856 14.0877 52.5433 14.9372 52.5433 16.1145C52.5433 16.2201 52.5356 16.323 52.5209 16.4234C52.5356 16.4879 52.5433 16.5551 52.5433 16.6241C52.5433 16.901 52.4503 18.1393 52.027 19.6992C51.6021 21.2649 50.8249 23.2295 49.4074 24.8899C48.8736 25.5151 48.3099 26.0547 47.7318 26.5263C48.0642 26.6985 48.3562 26.9467 48.5856 27.3016C49.2419 28.3171 48.8236 29.5856 47.9107 30.171C46.7973 30.8851 44.0612 31.9513 41.1618 32.7934C40.1936 33.0746 39.1864 33.337 38.1949 33.5554C38.1938 33.5987 38.1933 33.6427 38.1933 33.6873L38.1933 33.6874C38.1933 33.6887 38.194 33.7042 38.2018 33.7371C38.2105 33.7739 38.2263 33.8247 38.2533 33.8919C38.3087 34.0298 38.3963 34.2001 38.5207 34.4137C38.6415 34.621 38.7824 34.8446 38.9427 35.0991L38.9428 35.0992L38.9551 35.1188C39.1175 35.3765 39.2961 35.6605 39.4718 35.9601C40.1618 37.1366 40.9169 38.7262 40.6141 40.5378C40.3456 42.1448 39.862 43.3776 38.6463 44.5316C37.4976 45.622 35.7302 46.6047 33.0471 47.8824C31.5786 48.5817 30.4899 49.6029 30.049 50.6918C29.8434 51.1994 29.455 51.6571 28.9742 51.9334C28.4828 52.2157 27.7875 52.3552 27.1261 51.9731C26.5673 51.6503 26.0464 51.2034 25.6828 50.4958C25.329 49.8075 25.1634 48.9487 25.1634 47.8646C25.1634 46.0336 26.2779 44.7906 27.1567 43.8106L27.1668 43.7994C28.1153 42.7416 28.8357 41.9333 28.9633 40.7878C28.968 40.7454 28.9717 40.7025 28.9742 40.6589C27.8436 40.426 26.8345 40.072 26.0569 39.5618C25.2976 39.0638 24.9198 37.9767 25.5685 37.1071C25.9004 36.6622 26.3481 36.4421 26.8236 36.3388C26.8809 36.3264 26.9393 36.3155 26.9988 36.3059C25.6711 34.6675 23.8065 33.0283 21.7738 31.6917C19.989 30.5181 17.5599 28.5001 15.5674 25.9253C15.3552 25.6511 15.1472 25.3696 14.9449 25.0812C13.8417 24.6879 12.9696 24.3245 12.4156 24.045L12.3911 24.0326C11.9487 23.8095 11.1045 23.3836 10.4359 22.8506C10.0976 22.5809 9.75455 22.2458 9.5423 21.8508C9.31903 21.4354 9.22159 20.9072 9.48764 20.3587C9.80715 19.7001 10.4062 19.4335 10.975 19.3264C11.3609 19.2539 11.8045 19.2406 12.2561 19.2436C12.0681 18.3946 11.9639 17.5197 11.9639 16.6241C11.9639 16.5551 11.9716 16.488 11.9863 16.4234C11.9716 16.3231 11.9639 16.2201 11.9639 16.1145C11.9639 14.9372 12.9216 14.0877 13.9401 13.5039C15.0269 12.8809 16.5397 12.3501 18.3309 11.9159C21.9275 11.0439 26.8495 10.5137 32.2536 10.5137ZM13.7116 23.0854C13.4715 22.9813 13.2649 22.8853 13.0952 22.7997C12.6409 22.5705 11.9025 22.1966 11.3461 21.7531C11.0656 21.5295 10.8811 21.3262 10.7915 21.1595C10.7129 21.0132 10.7343 20.9566 10.7525 20.919C10.7868 20.8483 10.8508 20.7563 11.1839 20.6936C11.5339 20.6278 12.0015 20.63 12.6466 20.6428C12.9315 21.4897 13.2941 22.3058 13.7116 23.0854ZM28.7128 39.1551C28.5422 38.6815 28.2897 38.1727 27.956 37.6375C27.5655 37.6356 27.2856 37.6516 27.0723 37.6979C26.8433 37.7477 26.7531 37.8186 26.6897 37.9037C26.6553 37.9497 26.6352 38.0153 26.6568 38.1075C26.6795 38.2038 26.7473 38.3134 26.8677 38.3924C27.3378 38.7008 27.9605 38.9568 28.7128 39.1551ZM46.2808 27.564C46.5011 27.5851 46.6857 27.6153 46.8435 27.6586C47.1434 27.7409 47.298 27.8568 47.4109 28.0315C47.5749 28.2852 47.5162 28.7407 47.1254 28.9914C46.1904 29.591 43.6214 30.6133 40.7318 31.4525C40.0039 31.6639 39.2674 31.8602 38.5431 32.0332C38.6846 31.7589 38.8639 31.5258 39.0719 31.3172C39.6524 30.7354 40.5059 30.2923 41.6491 29.7946C41.9021 29.6844 42.1665 29.5729 42.4402 29.4576C43.6109 28.9641 44.95 28.3996 46.2808 27.564ZM15.2719 30.5608C16.4178 30.5608 17.3467 31.4897 17.3467 32.6356C17.3467 33.7814 16.4178 34.7103 15.2719 34.7103C14.1261 34.7103 13.1972 33.7814 13.1972 32.6356C13.1972 31.4897 14.1261 30.5608 15.2719 30.5608ZM47.9056 36.084C48.7937 36.084 49.5135 36.8039 49.5135 37.6919C49.5135 38.5799 48.7937 39.2998 47.9056 39.2998C47.0176 39.2998 46.2977 38.5799 46.2977 37.6919C46.2977 36.8039 47.0176 36.084 47.9056 36.084Z" fill="#F8F9FA"/>
<path d="M46.1763 11.9159L45.8228 13.3736L45.8228 13.3736L46.1763 11.9159ZM50.5672 13.5039L51.3131 12.2025L51.3131 12.2025L50.5672 13.5039ZM52.5209 16.4234L51.0583 16.7565C51.0171 16.5756 51.0098 16.3887 51.0368 16.2051L52.5209 16.4234ZM52.027 19.6992L53.4746 20.0921L53.4746 20.0921L52.027 19.6992ZM49.4074 24.8899L50.5482 25.8638L50.5482 25.8638L49.4074 24.8899ZM47.7318 26.5263L47.0416 27.858C46.5931 27.6256 46.2917 27.183 46.2398 26.6805C46.1878 26.1781 46.3922 25.6832 46.7837 25.3639L47.7318 26.5263ZM48.5856 27.3016L49.8453 26.4874L49.8453 26.4874L48.5856 27.3016ZM47.9107 30.171L47.101 28.9084L47.101 28.9084L47.9107 30.171ZM41.1618 32.7934L41.5802 34.2338L41.5802 34.2338L41.1618 32.7934ZM38.1949 33.5554L36.6953 33.5189C36.7121 32.8287 37.1979 32.2391 37.8722 32.0905L38.1949 33.5554ZM38.1933 33.6873L36.6956 33.7705C36.6941 33.7428 36.6933 33.715 36.6933 33.6872L38.1933 33.6873ZM38.1933 33.6874L39.691 33.6042C39.6914 33.6109 39.6917 33.6175 39.692 33.6242L38.1933 33.6874ZM38.2018 33.7371L36.7422 34.0829L36.7422 34.0828L38.2018 33.7371ZM38.2533 33.8919L39.6452 33.3329L39.6452 33.3329L38.2533 33.8919ZM38.5207 34.4137L37.2246 35.1688L37.2246 35.1688L38.5207 34.4137ZM38.9427 35.0991L37.6755 35.9016L37.6736 35.8987L38.9427 35.0991ZM38.9428 35.0992L40.21 34.2966L40.2119 34.2996L38.9428 35.0992ZM38.9551 35.1188L37.686 35.9184L37.686 35.9184L38.9551 35.1188ZM39.4718 35.9601L40.7657 35.2013L40.7657 35.2013L39.4718 35.9601ZM40.6141 40.5378L39.1346 40.2905L39.1346 40.2905L40.6141 40.5378ZM38.6463 44.5316L37.6136 43.4438L37.6136 43.4438L38.6463 44.5316ZM33.0471 47.8824L33.692 49.2367L33.692 49.2367L33.0471 47.8824ZM30.049 50.6918L28.6586 50.1288L28.6586 50.1288L30.049 50.6918ZM28.9742 51.9334L28.2269 50.6327L28.227 50.6327L28.9742 51.9334ZM27.1261 51.9731L26.3757 53.272L26.3757 53.272L27.1261 51.9731ZM25.6828 50.4958L27.0169 49.8102L27.0169 49.8102L25.6828 50.4958ZM27.1567 43.8106L28.2737 44.8118L28.2735 44.812L27.1567 43.8106ZM27.1668 43.7994L26.0498 42.7982L26.05 42.798L27.1668 43.7994ZM28.9633 40.7878L30.4541 40.9538L30.4541 40.9538L28.9633 40.7878ZM28.9742 40.6589L29.2768 39.1897C30.0061 39.34 30.5149 40.0025 30.4717 40.7459L28.9742 40.6589ZM26.0569 39.5618L26.8797 38.3076L26.8797 38.3076L26.0569 39.5618ZM25.5685 37.1071L26.7709 38.004L26.7708 38.004L25.5685 37.1071ZM26.8236 36.3388L27.1421 37.8046L27.1421 37.8046L26.8236 36.3388ZM26.9988 36.3059L28.1642 35.3616C28.5013 35.7776 28.5911 36.3418 28.3997 36.8419C28.2084 37.3421 27.765 37.7022 27.2363 37.787L26.9988 36.3059ZM21.7738 31.6917L20.9496 32.945L20.9496 32.945L21.7738 31.6917ZM15.5674 25.9253L14.3811 26.8433L14.3811 26.8433L15.5674 25.9253ZM14.9449 25.0812L15.4485 23.6682C15.7414 23.7726 15.9946 23.9654 16.1731 24.2199L14.9449 25.0812ZM12.4156 24.045L13.0913 22.7058L13.0914 22.7058L12.4156 24.045ZM12.3911 24.0326L13.0667 22.6934L13.0668 22.6934L12.3911 24.0326ZM10.4359 22.8506L11.371 21.6777L11.371 21.6777L10.4359 22.8506ZM9.5423 21.8508L8.22102 22.5609L8.22101 22.5609L9.5423 21.8508ZM9.48764 20.3587L8.13807 19.704L8.13807 19.704L9.48764 20.3587ZM10.975 19.3264L11.2524 20.8006L11.2524 20.8006L10.975 19.3264ZM12.2561 19.2436L13.7206 18.9193C13.8193 19.3651 13.7096 19.8315 13.4226 20.1866C13.1356 20.5417 12.7025 20.7467 12.2459 20.7436L12.2561 19.2436ZM11.9863 16.4234L13.4704 16.2051C13.4974 16.3887 13.4901 16.5757 13.4489 16.7566L11.9863 16.4234ZM13.9401 13.5039L14.686 14.8053L14.686 14.8053L13.9401 13.5039ZM18.3309 11.9159L17.9775 10.4581L17.9775 10.4581L18.3309 11.9159ZM13.0952 22.7997L12.4195 24.1389L12.4195 24.1389L13.0952 22.7997ZM13.7116 23.0854L15.0339 22.3772C15.3353 22.9399 15.2476 23.6317 14.8152 24.1013C14.3829 24.5709 13.7007 24.7155 13.115 24.4616L13.7116 23.0854ZM11.3461 21.7531L10.4111 22.926L10.411 22.926L11.3461 21.7531ZM10.7915 21.1595L12.1128 20.4494L12.1128 20.4494L10.7915 21.1595ZM10.7525 20.919L9.40292 20.2644L9.40298 20.2643L10.7525 20.919ZM11.1839 20.6936L11.4612 22.1678L11.4612 22.1678L11.1839 20.6936ZM12.6466 20.6428L12.6763 19.1431C13.3093 19.1557 13.8663 19.5643 14.0682 20.1644L12.6466 20.6428ZM27.956 37.6375L27.9632 36.1375C28.4783 36.1399 28.9562 36.4066 29.2288 36.8438L27.956 37.6375ZM28.7128 39.1551L30.124 38.6467C30.3129 39.171 30.1955 39.7569 29.8191 40.168C29.4428 40.579 28.8695 40.7476 28.3306 40.6055L28.7128 39.1551ZM27.0723 37.6979L27.3908 39.1637L27.3908 39.1637L27.0723 37.6979ZM26.6897 37.9037L25.4874 37.0067L25.4874 37.0067L26.6897 37.9037ZM26.6568 38.1075L28.1171 37.7646L28.1171 37.7646L26.6568 38.1075ZM26.8677 38.3924L26.0449 39.6466L26.0449 39.6466L26.8677 38.3924ZM46.8435 27.6586L46.4465 29.1051L46.4465 29.1051L46.8435 27.6586ZM46.2808 27.564L45.4832 26.2937C45.7636 26.1176 46.0945 26.0392 46.4241 26.0708L46.2808 27.564ZM47.4109 28.0315L48.6706 27.2173L48.6706 27.2173L47.4109 28.0315ZM47.1254 28.9914L47.9351 30.254L47.9351 30.254L47.1254 28.9914ZM40.7318 31.4525L40.3135 30.012L40.3135 30.012L40.7318 31.4525ZM38.5431 32.0332L38.8917 33.4922C38.3215 33.6284 37.7241 33.4199 37.3624 32.9584C37.0008 32.4969 36.9412 31.867 37.2099 31.3458L38.5431 32.0332ZM39.0719 31.3172L40.1339 32.3766L40.1339 32.3767L39.0719 31.3172ZM41.6491 29.7946L41.0503 28.4193L41.0503 28.4193L41.6491 29.7946ZM42.4402 29.4576L43.0229 30.8398L43.0229 30.8398L42.4402 29.4576ZM45.8228 13.3736C42.3725 12.5371 37.5747 12.0137 32.2536 12.0137V9.01367C37.7407 9.01367 42.7869 9.55069 46.5297 10.4581L45.8228 13.3736ZM49.8212 14.8053C48.9104 14.2832 47.5526 13.793 45.8228 13.3736L46.5297 10.4581C48.3824 10.9072 50.0502 11.4787 51.3131 12.2025L49.8212 14.8053ZM51.0433 16.1145C51.0433 15.9659 50.9916 15.7908 50.7931 15.5567C50.5811 15.3068 50.2492 15.0506 49.8212 14.8053L51.3131 12.2025C52.3879 12.8186 54.0433 14.0532 54.0433 16.1145H51.0433ZM51.0368 16.2051C51.041 16.1768 51.0433 16.1468 51.0433 16.1145H54.0433C54.0433 16.2933 54.0303 16.4692 54.0049 16.6417L51.0368 16.2051ZM51.0433 16.6241C51.0433 16.668 51.0483 16.7125 51.0583 16.7565L53.9834 16.0903C54.0228 16.2634 54.0433 16.4423 54.0433 16.6241H51.0433ZM50.5793 19.3064C50.7724 18.5949 50.8899 17.9573 50.9586 17.4707C50.993 17.2278 51.0147 17.0257 51.0276 16.8743C51.0341 16.7986 51.0382 16.7376 51.0406 16.6921C51.0432 16.6437 51.0433 16.6227 51.0433 16.6241H54.0433C54.0433 17.0491 53.9284 18.4199 53.4746 20.0921L50.5793 19.3064ZM48.2666 23.9159C49.4888 22.4843 50.1875 20.7503 50.5793 19.3064L53.4746 20.0921C53.0167 21.7794 52.161 23.9748 50.5482 25.8638L48.2666 23.9159ZM46.7837 25.3639C47.297 24.9452 47.7953 24.468 48.2666 23.9159L50.5482 25.8638C49.952 26.5622 49.3229 27.1642 48.6799 27.6886L46.7837 25.3639ZM47.3258 28.1159C47.2473 27.9945 47.1581 27.9184 47.0416 27.858L48.422 25.1945C48.9703 25.4786 49.465 25.8989 49.8453 26.4874L47.3258 28.1159ZM47.101 28.9084C47.2371 28.821 47.3443 28.6735 47.3864 28.5145C47.4239 28.3722 47.4068 28.2413 47.3258 28.1159L49.8453 26.4874C51.0201 28.3048 50.2229 30.4701 48.7205 31.4336L47.101 28.9084ZM40.7435 31.3529C43.633 30.5137 46.1851 29.4957 47.101 28.9084L48.7205 31.4336C47.4095 32.2745 44.4895 33.3889 41.5802 34.2338L40.7435 31.3529ZM37.8722 32.0905C38.8268 31.8802 39.8017 31.6264 40.7435 31.3529L41.5802 34.2338C40.5854 34.5228 39.546 34.7937 38.5176 35.0203L37.8722 32.0905ZM36.6933 33.6872C36.6933 33.6307 36.694 33.5746 36.6953 33.5189L39.6944 33.5919C39.6937 33.6228 39.6933 33.6546 39.6933 33.6874L36.6933 33.6872ZM36.6956 33.7706L36.6956 33.7705L39.691 33.6041L39.691 33.6042L36.6956 33.7706ZM36.7422 34.0828C36.7137 33.9624 36.6989 33.8523 36.6946 33.7506L39.692 33.6242C39.6901 33.5797 39.6862 33.5349 39.68 33.491C39.6742 33.4503 39.6675 33.4168 39.6614 33.3913L36.7422 34.0828ZM36.8614 34.451C36.8135 34.3317 36.772 34.2084 36.7422 34.0829L39.6614 33.3913C39.6549 33.3638 39.6492 33.3453 39.6464 33.3369C39.6436 33.3282 39.6427 33.3266 39.6452 33.3329L36.8614 34.451ZM37.2246 35.1688C37.0855 34.93 36.9564 34.6875 36.8614 34.451L39.6452 33.3329C39.661 33.3721 39.707 33.4702 39.8167 33.6585L37.2246 35.1688ZM37.6736 35.8987C37.517 35.6502 37.3611 35.403 37.2246 35.1688L39.8167 33.6585C39.9218 33.8389 40.0477 34.039 40.2118 34.2995L37.6736 35.8987ZM37.6755 35.9017L37.6755 35.9016L40.2099 34.2965L40.21 34.2966L37.6755 35.9017ZM37.686 35.9184L37.6736 35.8987L40.2119 34.2996L40.2243 34.3192L37.686 35.9184ZM38.1779 36.7189C38.0158 36.4426 37.8492 36.1774 37.686 35.9184L40.2243 34.3192C40.3858 34.5756 40.5763 34.8784 40.7657 35.2013L38.1779 36.7189ZM39.1346 40.2905C39.3453 39.0298 38.8346 37.8387 38.1779 36.7189L40.7657 35.2013C41.4889 36.4344 42.4884 38.4226 42.0936 40.785L39.1346 40.2905ZM37.6136 43.4438C38.5224 42.581 38.9011 41.6878 39.1346 40.2905L42.0936 40.785C41.79 42.6018 41.2016 44.1741 39.679 45.6195L37.6136 43.4438ZM32.4022 46.5281C35.0993 45.2438 36.6596 44.3494 37.6136 43.4438L39.679 45.6195C38.3357 46.8947 36.361 47.9657 33.692 49.2367L32.4022 46.5281ZM28.6586 50.1288C29.2865 48.5785 30.725 47.3268 32.4022 46.5281L33.692 49.2367C32.4322 49.8366 31.6934 50.6273 31.4393 51.2549L28.6586 50.1288ZM28.227 50.6327C28.4058 50.53 28.574 50.3377 28.6586 50.1288L31.4393 51.2548C31.1128 52.061 30.5042 52.7843 29.7214 53.234L28.227 50.6327ZM27.8765 50.6743C27.9273 50.7037 27.9643 50.7092 28.0084 50.7061C28.0666 50.702 28.146 50.6792 28.2269 50.6327L29.7214 53.234C28.9183 53.6954 27.6344 53.9991 26.3757 53.272L27.8765 50.6743ZM27.0169 49.8102C27.2176 50.2007 27.5005 50.4571 27.8765 50.6743L26.3757 53.272C25.6342 52.8436 24.8752 52.2061 24.3486 51.1815L27.0169 49.8102ZM26.6634 47.8646C26.6634 48.8079 26.8094 49.4065 27.0169 49.8102L24.3487 51.1815C23.8485 50.2085 23.6634 49.0894 23.6634 47.8646H26.6634ZM28.2735 44.812C27.3557 45.8356 26.6634 46.679 26.6634 47.8646H23.6634C23.6634 45.3881 25.2002 43.7457 26.0399 42.8092L28.2735 44.812ZM28.2838 44.8005L28.2737 44.8118L26.0397 42.8095L26.0498 42.7982L28.2838 44.8005ZM30.4541 40.9538C30.2639 42.661 29.158 43.8256 28.2836 44.8008L26.05 42.798C27.0726 41.6576 27.4075 41.2057 27.4725 40.6217L30.4541 40.9538ZM30.4717 40.7459C30.4676 40.8152 30.4618 40.8846 30.4541 40.9538L27.4725 40.6217C27.4743 40.6063 27.4757 40.5897 27.4767 40.5719L30.4717 40.7459ZM26.8797 38.3076C27.441 38.6759 28.2486 38.9779 29.2768 39.1897L28.6716 42.128C27.4386 41.8741 26.2281 41.4681 25.2341 40.816L26.8797 38.3076ZM26.7708 38.004C26.743 38.0413 26.7391 38.0616 26.7382 38.0667C26.7367 38.0746 26.7352 38.0906 26.7418 38.1175C26.7488 38.146 26.7641 38.1827 26.7911 38.2207C26.8182 38.2587 26.85 38.2882 26.8797 38.3076L25.2341 40.816C23.9163 39.9516 23.0906 37.9201 24.3662 36.2101L26.7708 38.004ZM27.1421 37.8046C27.0235 37.8304 26.9461 37.8627 26.8952 37.8922C26.8493 37.9188 26.81 37.9516 26.7709 38.004L24.3662 36.2102C24.9696 35.4014 25.7779 35.031 26.5052 34.873L27.1421 37.8046ZM27.2363 37.787C27.2016 37.7926 27.1703 37.7985 27.1421 37.8046L26.5052 34.873C26.5916 34.8542 26.6771 34.8384 26.7613 34.8249L27.2363 37.787ZM22.5979 30.4384C24.7368 31.8449 26.7236 33.5837 28.1642 35.3616L25.8334 37.2503C24.6187 35.7513 22.8761 34.2118 20.9496 32.945L22.5979 30.4384ZM16.7537 25.0073C18.6289 27.4306 20.928 29.3403 22.5979 30.4384L20.9496 32.945C19.0499 31.6958 16.4908 29.5696 14.3811 26.8433L16.7537 25.0073ZM16.1731 24.2199C16.3612 24.4882 16.5552 24.7508 16.7537 25.0073L14.3811 26.8433C14.1551 26.5513 13.9331 26.2509 13.7168 25.9424L16.1731 24.2199ZM13.0914 22.7058C13.5666 22.9457 14.3736 23.2851 15.4485 23.6682L14.4413 26.4941C13.3097 26.0908 12.3726 25.7034 11.7399 25.3841L13.0914 22.7058ZM13.0668 22.6934L13.0913 22.7058L11.7399 25.3842L11.7155 25.3718L13.0668 22.6934ZM11.371 21.6777C11.9004 22.0998 12.6081 22.4621 13.0667 22.6934L11.7155 25.3719C11.2894 25.1569 10.3085 24.6674 9.50087 24.0235L11.371 21.6777ZM10.8636 21.1408C10.936 21.2756 11.0984 21.4604 11.371 21.6777L9.50087 24.0235C9.09692 23.7015 8.57308 23.216 8.22102 22.5609L10.8636 21.1408ZM10.8372 21.0134C10.8325 21.0231 10.8301 21.0298 10.8288 21.0335C10.8276 21.0372 10.8273 21.0391 10.8272 21.0394C10.8272 21.0397 10.8271 21.0398 10.8271 21.0397C10.8272 21.0397 10.8272 21.0396 10.8272 21.0396C10.8272 21.0397 10.8271 21.0398 10.8271 21.0402C10.8272 21.0405 10.8272 21.0411 10.8272 21.0421C10.8278 21.0494 10.8326 21.0831 10.8636 21.1408L8.22101 22.5609C7.83077 21.8348 7.61142 20.7896 8.13807 19.704L10.8372 21.0134ZM11.2524 20.8006C11.0887 20.8314 10.9876 20.8737 10.9306 20.9091C10.8884 20.9354 10.8628 20.9608 10.8372 21.0135L8.13807 19.704C8.74951 18.4437 9.89206 18.0039 10.6977 17.8523L11.2524 20.8006ZM12.2459 20.7436C11.8105 20.7407 11.4882 20.7562 11.2524 20.8006L10.6977 17.8523C11.2336 17.7515 11.7984 17.7405 12.2662 17.7437L12.2459 20.7436ZM13.4639 16.6241C13.4639 17.4028 13.5544 18.1688 13.7206 18.9193L10.7915 19.568C10.5817 18.6204 10.4639 17.6367 10.4639 16.6241H13.4639ZM13.4489 16.7566C13.4589 16.7126 13.4639 16.668 13.4639 16.6241H10.4639C10.4639 16.4423 10.4844 16.2634 10.5238 16.0903L13.4489 16.7566ZM13.4639 16.1145C13.4639 16.1469 13.4662 16.1769 13.4704 16.2051L10.5023 16.6417C10.4769 16.4692 10.4639 16.2933 10.4639 16.1145H13.4639ZM14.686 14.8053C14.258 15.0506 13.9261 15.3068 13.7141 15.5567C13.5156 15.7908 13.4639 15.9659 13.4639 16.1145H10.4639C10.4639 14.0532 12.1194 12.8186 13.1941 12.2025L14.686 14.8053ZM18.6844 13.3736C16.9546 13.793 15.5968 14.2832 14.686 14.8053L13.1941 12.2025C14.457 11.4787 16.1248 10.9072 17.9775 10.4581L18.6844 13.3736ZM32.2536 12.0137C26.9325 12.0137 22.1347 12.5371 18.6844 13.3736L17.9775 10.4581C21.7203 9.55069 26.7665 9.01367 32.2536 9.01367V12.0137ZM13.771 21.4605C13.908 21.5297 14.087 21.6132 14.3082 21.7091L13.115 24.4616C12.856 24.3493 12.6218 24.241 12.4195 24.1389L13.771 21.4605ZM12.2811 20.5802C12.6964 20.9112 13.2936 21.2196 13.771 21.4605L12.4195 24.1389C11.9883 23.9213 11.1086 23.482 10.4111 22.926L12.2811 20.5802ZM12.1128 20.4494C12.0946 20.4154 12.0811 20.3972 12.0793 20.3948C12.0771 20.3918 12.082 20.3987 12.0971 20.415C12.1283 20.4486 12.1867 20.5049 12.2811 20.5802L10.411 22.926C10.066 22.6509 9.70001 22.2971 9.47023 21.8695L12.1128 20.4494ZM12.1022 21.5736C12.1124 21.5524 12.1581 21.4586 12.1919 21.3283C12.2274 21.1914 12.2414 21.0496 12.2331 20.9097C12.2176 20.6491 12.1301 20.4816 12.1128 20.4494L9.47025 21.8695C9.37433 21.6911 9.25821 21.4222 9.23835 21.0873C9.2147 20.6883 9.33927 20.3956 9.40292 20.2644L12.1022 21.5736ZM11.4612 22.1678C11.3871 22.1817 11.4989 22.173 11.6654 22.0663C11.7595 22.006 11.8582 21.9228 11.9474 21.8139C12.0353 21.7068 12.0843 21.6104 12.1021 21.5737L9.40298 20.2643C9.50244 20.0592 9.6881 19.7702 10.047 19.5403C10.3373 19.3543 10.6477 19.2682 10.9066 19.2195L11.4612 22.1678ZM12.6168 22.1425C11.9258 22.1288 11.6278 22.1364 11.4612 22.1678L10.9066 19.2195C11.4401 19.1191 12.0772 19.1312 12.6763 19.1431L12.6168 22.1425ZM12.3894 23.7936C11.9369 22.949 11.5395 22.0561 11.2249 21.1212L14.0682 20.1644C14.3236 20.9233 14.6512 21.6626 15.0339 22.3772L12.3894 23.7936ZM29.2288 36.8438C29.6069 37.4502 29.9107 38.0546 30.124 38.6467L27.3016 39.6635C27.1736 39.3084 26.9724 38.8951 26.6831 38.4311L29.2288 36.8438ZM26.7539 36.2321C27.1371 36.1489 27.5553 36.1355 27.9632 36.1375L27.9488 39.1374C27.5757 39.1356 27.4342 39.1543 27.3908 39.1637L26.7539 36.2321ZM25.4874 37.0067C25.6177 36.832 25.8004 36.6456 26.0615 36.4928C26.2995 36.3536 26.5418 36.2782 26.7539 36.2321L27.3908 39.1637C27.3738 39.1674 27.4565 39.1524 27.5763 39.0823C27.6392 39.0455 27.7026 38.9993 27.7626 38.9437C27.822 38.8888 27.8646 38.8372 27.8919 38.8006L25.4874 37.0067ZM25.1966 38.4504C25.0794 37.9514 25.1737 37.4272 25.4874 37.0067L27.8919 38.8006C27.9988 38.6574 28.0843 38.4801 28.1241 38.2774C28.1635 38.0768 28.1488 37.8994 28.1171 37.7646L25.1966 38.4504ZM26.0449 39.6466C25.6116 39.3623 25.3093 38.9307 25.1965 38.4503L28.1171 37.7646C28.0496 37.4769 27.883 37.2645 27.6905 37.1382L26.0449 39.6466ZM28.3306 40.6055C27.4805 40.3815 26.6932 40.0718 26.0449 39.6466L27.6905 37.1382C27.9825 37.3297 28.4405 37.5321 29.095 37.7046L28.3306 40.6055ZM46.4465 29.1051C46.4003 29.0925 46.3076 29.0734 46.1375 29.0571L46.4241 26.0708C46.6946 26.0968 46.9711 26.1382 47.2405 26.2121L46.4465 29.1051ZM46.1511 28.8458C46.1671 28.8705 46.1934 28.9068 46.2318 28.9469C46.2708 28.9878 46.3134 29.0234 46.3563 29.0525C46.4403 29.1094 46.4903 29.1172 46.4465 29.1051L47.2405 26.2121C47.8153 26.3699 48.3165 26.6693 48.6706 27.2173L46.1511 28.8458ZM46.3156 27.7287C46.1787 27.8166 46.0646 27.9693 46.0187 28.1582C45.98 28.3172 45.976 28.5749 46.1511 28.8458L48.6706 27.2173C49.3237 28.2277 48.9642 29.594 47.9351 30.254L46.3156 27.7287ZM40.3135 30.012C41.7187 29.6039 43.0414 29.1525 44.1182 28.734C45.2273 28.3029 45.9831 27.942 46.3156 27.7287L47.9351 30.254C47.3327 30.6404 46.3365 31.0904 45.205 31.5302C44.0411 31.9825 42.6346 32.4619 41.1502 32.893L40.3135 30.012ZM38.1945 30.5743C38.8934 30.4073 39.6066 30.2173 40.3135 30.012L41.1502 32.893C40.4012 33.1105 39.6413 33.3131 38.8917 33.4922L38.1945 30.5743ZM40.1339 32.3767C40.0187 32.492 39.9373 32.6025 39.8764 32.7206L37.2099 31.3458C37.4318 30.9154 37.7091 30.5595 38.01 30.2578L40.1339 32.3767ZM42.2479 31.1699C41.1016 31.669 40.4919 32.0178 40.1339 32.3766L38.01 30.2578C38.8129 29.4531 39.9102 28.9156 41.0503 28.4193L42.2479 31.1699ZM43.0229 30.8398C42.7475 30.9558 42.4914 31.0638 42.2479 31.1699L41.0503 28.4193C41.3128 28.305 41.5856 28.19 41.8576 28.0753L43.0229 30.8398ZM47.0785 28.8343C45.6309 29.7433 44.1849 30.35 43.0229 30.8398L41.8576 28.0753C43.037 27.5782 44.2692 27.056 45.4832 26.2937L47.0785 28.8343ZM15.8467 32.6356C15.8467 32.3181 15.5894 32.0608 15.2719 32.0608V29.0608C17.2462 29.0608 18.8467 30.6613 18.8467 32.6356H15.8467ZM15.2719 33.2103C15.5893 33.2103 15.8467 32.953 15.8467 32.6356H18.8467C18.8467 34.6098 17.2462 36.2103 15.2719 36.2103V33.2103ZM14.6972 32.6356C14.6972 32.953 14.9545 33.2103 15.2719 33.2103V36.2103C13.2976 36.2103 11.6972 34.6098 11.6972 32.6356H14.6972ZM15.2719 32.0608C14.9545 32.0608 14.6972 32.3181 14.6972 32.6356H11.6972C11.6972 30.6613 13.2976 29.0608 15.2719 29.0608V32.0608ZM48.0135 37.6919C48.0135 37.6323 47.9652 37.584 47.9056 37.584V34.584C49.6221 34.584 51.0135 35.9754 51.0135 37.6919H48.0135ZM47.9056 37.7998C47.9652 37.7998 48.0135 37.7515 48.0135 37.6919H51.0135C51.0135 39.4084 49.6221 40.7998 47.9056 40.7998V37.7998ZM47.7977 37.6919C47.7977 37.7515 47.846 37.7998 47.9056 37.7998V40.7998C46.1892 40.7998 44.7977 39.4084 44.7977 37.6919H47.7977ZM47.9056 37.584C47.846 37.584 47.7977 37.6323 47.7977 37.6919H44.7977C44.7977 35.9754 46.1892 34.584 47.9056 34.584V37.584Z" fill="#F8F9FA" mask="url(#path-1-outside-1_50_8284)"/>
<path d="M12.8554 16.6191H51.6349C51.6349 16.9952 51.3152 21.2544 48.7145 24.3005C44.1323 29.6675 37.2848 28.2432 37.2848 33.6826C37.2848 34.9829 40.2129 37.4226 39.718 40.3845C39.223 43.3463 38.0356 44.5011 32.6517 47.0648C31.0585 47.8235 29.7596 48.9829 29.2063 50.349C28.9405 51.0055 28.1812 51.5432 27.5679 51.1889C26.6702 50.6702 26.0549 49.8588 26.0549 47.8596C26.0549 44.9624 29.5194 43.8443 29.8493 40.8824C30.1793 37.9206 26.5496 33.7556 22.2598 30.9347C18.828 28.6781 12.8554 23.1227 12.8554 16.6191Z" fill="#FFE066" stroke="#212529" stroke-width="1.8" stroke-linejoin="round"/>
<g style="mix-blend-mode:soft-light" opacity="0.8">
<path d="M47.8761 20.9409C48.1313 21.203 47.5921 22.2186 46.4813 23.3898C45.3454 24.5875 44.2627 25.0604 43.8551 24.8073C43.3456 24.4909 44.5824 22.9967 45.2752 22.5133C46.4997 21.4851 47.557 20.6132 47.8761 20.9409Z" fill="#F8F9FA"/>
</g>
<g style="mix-blend-mode:multiply" opacity="0.7">
<path fill-rule="evenodd" clip-rule="evenodd" d="M29.4988 50.2275C29.1371 50.6541 28.9185 51.1527 28.9185 51.7916C27.0333 51.1266 26.0551 50.7569 26.0551 47.8596C26.0551 46.371 26.9697 45.3521 27.9038 44.3114C28.7877 43.3267 29.6891 42.3225 29.8495 40.8825C30.1795 37.9206 26.5497 33.7556 22.26 30.9348C18.8282 28.6781 12.8556 23.1228 12.8556 16.6192H15.6726C15.6726 23.1228 21.6453 28.6781 25.077 30.9348C29.3668 33.7556 32.9965 37.9206 32.6666 40.8825C32.5061 42.3225 31.6048 43.3267 30.7209 44.3114C29.7868 45.3521 28.8722 46.371 28.8722 47.8596C28.8722 49.0591 29.113 49.7508 29.4988 50.2275Z" fill="#DEE2E6"/>
</g>
<path d="M45.3806 26.8183C46.6909 26.8434 47.5273 26.9459 47.9897 27.6614C48.3999 28.296 48.1614 29.1579 47.5096 29.576C45.4611 30.8897 36.8995 33.7529 32.9153 33.4378" stroke="#212529" stroke-width="1.4" stroke-linecap="round" stroke-linejoin="round"/>
<path d="M28.2584 36.9392C27.1964 36.9175 26.516 36.9695 26.1206 37.4994C25.77 37.9695 25.9381 38.6328 26.4538 38.9712C28.0747 40.0345 31.0203 40.4273 34.2563 40.3115" stroke="#212529" stroke-width="1.4" stroke-linecap="round" stroke-linejoin="round"/>
<path d="M12.7471 19.9427C11.4379 19.9159 10.4655 19.9041 10.1117 20.6333C9.54313 21.8054 11.8577 22.968 12.7471 23.4168C15.3087 24.7094 25.409 28.0506 33.2287 27.1712" stroke="#212529" stroke-width="1.4" stroke-linecap="round" stroke-linejoin="round"/>
<ellipse rx="19.3897" ry="4.70083" transform="matrix(-1 0 0 1 32.2452 16.109)" fill="#FFEC99" stroke="#212529" stroke-width="1.8" stroke-linejoin="round"/>
<circle r="1.57476" transform="matrix(-1 0 0 1 15.2635 32.6304)" fill="#FFE066" stroke="#212529" stroke-linejoin="round"/>
<circle r="1.10792" transform="matrix(-1 0 0 1 47.8972 37.686)" fill="#FFE066" stroke="#212529" stroke-linejoin="round"/>
</svg>
