<svg width="60" height="60" viewBox="0 0 60 60" fill="none" xmlns="http://www.w3.org/2000/svg">
<mask id="path-1-outside-1_50_11581" maskUnits="userSpaceOnUse" x="14.5334" y="6.26074" width="33" height="48" fill="black">
<rect fill="white" x="14.5334" y="6.26074" width="33" height="48"/>
<path fill-rule="evenodd" clip-rule="evenodd" d="M25.0601 12.4487C23.1542 13.9189 21.8704 16.0766 20.3755 18.9741C19.3297 21.0012 18.34 25.5207 18.4215 30.6615C18.5028 35.7844 19.6463 41.3185 22.6637 45.442C24.2015 47.5434 25.837 48.9641 27.6045 49.728C29.3568 50.4853 31.3171 50.6314 33.5819 50.0511C34.9321 49.7051 36.0761 48.9095 36.8817 47.9572C37.6993 46.9909 38.103 45.9448 38.103 45.1479C38.103 44.0462 37.859 43.2772 37.5608 42.5939C37.4584 42.3594 37.3598 42.1557 37.2551 41.9396C37.1928 41.8109 37.1283 41.6779 37.0597 41.5312C36.8881 41.1648 36.7146 40.7608 36.5931 40.3096C36.0738 38.3801 36.6524 36.151 39.6348 31.9114C43.0054 27.1198 44.0107 21.5859 42.9283 17.3221C42.3891 15.1979 41.3398 13.4112 39.8337 12.1576C38.3345 10.9099 36.3282 10.1441 33.7822 10.1441C29.5176 10.1441 26.9313 11.0053 25.0601 12.4487ZM23.9098 10.9574C26.2179 9.17702 29.261 8.26074 33.7822 8.26074C36.7275 8.26074 39.1709 9.15556 41.0385 10.71C42.8993 12.2587 44.1338 14.416 44.7538 16.8587C45.9901 21.7287 44.8155 27.8201 41.1752 32.995C38.2312 37.1802 38.1297 38.7718 38.4118 39.8201C38.4907 40.1134 38.6101 40.4011 38.7654 40.7326C38.8129 40.8341 38.8674 40.947 38.9255 41.0671C39.0418 41.3078 39.1721 41.5773 39.287 41.8406C39.6597 42.6949 39.9864 43.723 39.9864 45.1479C39.9864 46.5105 39.3362 47.9721 38.3196 49.1737C37.291 50.3895 35.8204 51.4218 34.0494 51.8755C31.4321 52.5461 29.0391 52.3998 26.8573 51.4569C24.6909 50.5205 22.8115 48.8331 21.1438 46.5542C17.8059 41.9928 16.6228 36.0163 16.5384 30.6913C16.4542 25.3841 17.4596 20.5182 18.7017 18.1106C20.1914 15.2231 21.6366 12.7109 23.9098 10.9574Z"/>
</mask>
<path fill-rule="evenodd" clip-rule="evenodd" d="M25.0601 12.4487C23.1542 13.9189 21.8704 16.0766 20.3755 18.9741C19.3297 21.0012 18.34 25.5207 18.4215 30.6615C18.5028 35.7844 19.6463 41.3185 22.6637 45.442C24.2015 47.5434 25.837 48.9641 27.6045 49.728C29.3568 50.4853 31.3171 50.6314 33.5819 50.0511C34.9321 49.7051 36.0761 48.9095 36.8817 47.9572C37.6993 46.9909 38.103 45.9448 38.103 45.1479C38.103 44.0462 37.859 43.2772 37.5608 42.5939C37.4584 42.3594 37.3598 42.1557 37.2551 41.9396C37.1928 41.8109 37.1283 41.6779 37.0597 41.5312C36.8881 41.1648 36.7146 40.7608 36.5931 40.3096C36.0738 38.3801 36.6524 36.151 39.6348 31.9114C43.0054 27.1198 44.0107 21.5859 42.9283 17.3221C42.3891 15.1979 41.3398 13.4112 39.8337 12.1576C38.3345 10.9099 36.3282 10.1441 33.7822 10.1441C29.5176 10.1441 26.9313 11.0053 25.0601 12.4487ZM23.9098 10.9574C26.2179 9.17702 29.261 8.26074 33.7822 8.26074C36.7275 8.26074 39.1709 9.15556 41.0385 10.71C42.8993 12.2587 44.1338 14.416 44.7538 16.8587C45.9901 21.7287 44.8155 27.8201 41.1752 32.995C38.2312 37.1802 38.1297 38.7718 38.4118 39.8201C38.4907 40.1134 38.6101 40.4011 38.7654 40.7326C38.8129 40.8341 38.8674 40.947 38.9255 41.0671C39.0418 41.3078 39.1721 41.5773 39.287 41.8406C39.6597 42.6949 39.9864 43.723 39.9864 45.1479C39.9864 46.5105 39.3362 47.9721 38.3196 49.1737C37.291 50.3895 35.8204 51.4218 34.0494 51.8755C31.4321 52.5461 29.0391 52.3998 26.8573 51.4569C24.6909 50.5205 22.8115 48.8331 21.1438 46.5542C17.8059 41.9928 16.6228 36.0163 16.5384 30.6913C16.4542 25.3841 17.4596 20.5182 18.7017 18.1106C20.1914 15.2231 21.6366 12.7109 23.9098 10.9574Z" fill="#F8F9FA"/>
<path d="M20.3755 18.9741L19.0425 18.2864L19.0425 18.2864L20.3755 18.9741ZM25.0601 12.4487L24.144 11.261L24.144 11.261L25.0601 12.4487ZM18.4215 30.6615L16.9217 30.6852L18.4215 30.6615ZM22.6637 45.442L21.4532 46.3278L21.4532 46.3278L22.6637 45.442ZM27.6045 49.728L28.1996 48.3511L28.1996 48.3511L27.6045 49.728ZM33.5819 50.0511L33.9542 51.5042L33.9542 51.5042L33.5819 50.0511ZM36.8817 47.9572L38.0269 48.9261L38.0269 48.9261L36.8817 47.9572ZM37.5608 42.5939L36.1859 43.1938L36.1859 43.1938L37.5608 42.5939ZM37.2551 41.9396L38.605 41.2857L38.605 41.2857L37.2551 41.9396ZM37.0597 41.5312L38.4181 40.8952L38.4181 40.8952L37.0597 41.5312ZM36.5931 40.3096L38.0416 39.9198L38.0416 39.9198L36.5931 40.3096ZM39.6348 31.9114L38.4079 31.0484L38.4079 31.0484L39.6348 31.9114ZM42.9283 17.3221L44.3822 16.953L44.3822 16.953L42.9283 17.3221ZM39.8337 12.1576L40.7933 11.0047L40.7933 11.0047L39.8337 12.1576ZM23.9098 10.9574L22.9936 9.76968L23.9098 10.9574ZM41.0385 10.71L41.9981 9.55713L41.9981 9.55713L41.0385 10.71ZM44.7538 16.8587L46.2077 16.4896L46.2077 16.4896L44.7538 16.8587ZM41.1752 32.995L42.4021 33.8581L42.4021 33.8581L41.1752 32.995ZM38.4118 39.8201L39.8603 39.4303L39.8603 39.4303L38.4118 39.8201ZM38.7654 40.7326L37.4069 41.3687L37.4069 41.3687L38.7654 40.7326ZM38.9255 41.0671L37.575 41.7198L37.575 41.7199L38.9255 41.0671ZM39.287 41.8406L40.6618 41.2407L40.6618 41.2407L39.287 41.8406ZM38.3196 49.1737L37.1744 48.2049L37.1744 48.2049L38.3196 49.1737ZM34.0494 51.8755L33.6771 50.4225L33.6771 50.4225L34.0494 51.8755ZM26.8573 51.4569L26.2623 52.8338L26.2623 52.8338L26.8573 51.4569ZM21.1438 46.5542L22.3543 45.6684L22.3543 45.6684L21.1438 46.5542ZM16.5384 30.6913L18.0382 30.6675L16.5384 30.6913ZM18.7017 18.1106L20.0348 18.7983L20.0348 18.7983L18.7017 18.1106ZM21.7086 19.6618C23.208 16.7554 24.3632 14.8807 25.9763 13.6364L24.144 11.261C21.9452 12.9571 20.5327 15.3978 19.0425 18.2864L21.7086 19.6618ZM19.9213 30.6377C19.8419 25.6296 20.8191 21.3858 21.7086 19.6618L19.0425 18.2864C17.8403 20.6165 16.8381 25.4119 16.9217 30.6852L19.9213 30.6377ZM23.8742 44.5561C21.112 40.7815 20 35.5996 19.9213 30.6377L16.9217 30.6852C17.0055 35.9692 18.1806 41.8555 21.4532 46.3278L23.8742 44.5561ZM28.1996 48.3511C26.7497 47.7245 25.3085 46.5162 23.8742 44.5561L21.4532 46.3278C23.0945 48.5707 24.9242 50.2037 27.0095 51.1049L28.1996 48.3511ZM33.2096 48.598C31.2256 49.1064 29.61 48.9606 28.1996 48.3511L27.0094 51.1049C29.1036 52.01 31.4085 52.1564 33.9542 51.5042L33.2096 48.598ZM35.7366 46.9884C35.1087 47.7306 34.2249 48.3379 33.2096 48.598L33.9542 51.5042C35.6394 51.0724 37.0435 50.0883 38.0269 48.9261L35.7366 46.9884ZM36.603 45.1479C36.603 45.4949 36.395 46.2102 35.7366 46.9884L38.0269 48.9261C39.0036 47.7717 39.603 46.3946 39.603 45.1479H36.603ZM36.1859 43.1938C36.4247 43.741 36.603 44.3036 36.603 45.1479H39.603C39.603 43.7888 39.2932 42.8135 38.9356 41.994L36.1859 43.1938ZM35.9051 42.5935C36.011 42.812 36.0972 42.9903 36.1859 43.1938L38.9356 41.994C38.8197 41.7284 38.7086 41.4994 38.605 41.2857L35.9051 42.5935ZM35.7012 42.1672C35.7746 42.3241 35.8432 42.4657 35.9051 42.5935L38.605 41.2857C38.5423 41.1562 38.482 41.0316 38.4181 40.8952L35.7012 42.1672ZM35.1447 40.6994C35.2999 41.2763 35.5165 41.7728 35.7012 42.1673L38.4181 40.8952C38.2597 40.5569 38.1292 40.2453 38.0416 39.9198L35.1447 40.6994ZM38.4079 31.0484C35.3953 35.331 34.4364 38.0679 35.1447 40.6994L38.0416 39.9198C37.7112 38.6922 37.9096 36.9709 40.8616 32.7745L38.4079 31.0484ZM41.4745 17.6911C42.4343 21.4724 41.5637 26.5623 38.4079 31.0484L40.8616 32.7745C44.4472 27.6774 45.5871 21.6994 44.3822 16.953L41.4745 17.6911ZM38.8741 13.3105C40.098 14.3292 40.9997 15.8209 41.4745 17.6911L44.3822 16.953C43.7786 14.575 42.5817 12.4932 40.7933 11.0047L38.8741 13.3105ZM33.7822 11.6441C36.01 11.6441 37.6683 12.307 38.8741 13.3105L40.7933 11.0047C39.0007 9.51277 36.6463 8.64414 33.7822 8.64414V11.6441ZM25.9763 13.6364C27.4996 12.4613 29.7222 11.6441 33.7822 11.6441V8.64414C29.313 8.64414 26.3629 9.54932 24.144 11.261L25.9763 13.6364ZM33.7822 6.76074C29.0569 6.76074 25.6498 7.7208 22.9936 9.76968L24.826 12.1451C26.7859 10.6332 29.4652 9.76074 33.7822 9.76074V6.76074ZM41.9981 9.55713C39.8369 7.75829 37.0454 6.76074 33.7822 6.76074V9.76074C36.4096 9.76074 38.5049 10.5528 40.079 11.8629L41.9981 9.55713ZM46.2077 16.4896C45.5233 13.7933 44.1413 11.341 41.9981 9.55713L40.079 11.8629C41.6572 13.1765 42.7443 15.0386 43.3 17.2278L46.2077 16.4896ZM42.4021 33.8581C46.257 28.378 47.5665 21.8425 46.2077 16.4896L43.3 17.2278C44.4136 21.6148 43.374 27.2622 39.9484 32.132L42.4021 33.8581ZM39.8603 39.4303C39.767 39.0836 39.4887 37.9995 42.4021 33.8581L39.9484 32.132C36.9736 36.3608 36.4924 38.46 36.9633 40.21L39.8603 39.4303ZM40.1238 40.0966C39.9815 39.7925 39.9053 39.5975 39.8603 39.4303L36.9633 40.21C37.0762 40.6292 37.2388 41.0098 37.4069 41.3687L40.1238 40.0966ZM40.276 40.4144C40.2169 40.2921 40.1666 40.188 40.1238 40.0966L37.4069 41.3687C37.4591 41.4802 37.518 41.602 37.575 41.7198L40.276 40.4144ZM40.6618 41.2407C40.5333 40.9462 40.3902 40.6506 40.276 40.4144L37.575 41.7199C37.6935 41.965 37.8108 42.2083 37.9122 42.4405L40.6618 41.2407ZM41.4864 45.1479C41.4864 43.4655 41.0939 42.2311 40.6618 41.2407L37.9122 42.4405C38.2255 43.1587 38.4864 43.9805 38.4864 45.1479H41.4864ZM39.4647 50.1426C40.6395 48.7541 41.4864 46.9615 41.4864 45.1479H38.4864C38.4864 46.0594 38.033 47.1902 37.1744 48.2049L39.4647 50.1426ZM34.4217 53.3286C36.5279 52.789 38.2586 51.5681 39.4647 50.1426L37.1744 48.2049C36.3233 49.2109 35.1128 50.0546 33.6771 50.4225L34.4217 53.3286ZM26.2623 52.8338C28.7862 53.9246 31.5238 54.0711 34.4217 53.3286L33.6771 50.4225C31.3403 51.0212 29.292 50.875 27.4524 50.0799L26.2623 52.8338ZM19.9333 47.44C21.7043 49.8602 23.778 51.7601 26.2623 52.8338L27.4524 50.0799C25.6037 49.281 23.9186 47.806 22.3543 45.6684L19.9333 47.44ZM15.0386 30.7151C15.1256 36.201 16.3401 42.5297 19.9333 47.44L22.3543 45.6684C19.2717 41.4558 18.1201 35.8317 18.0382 30.6675L15.0386 30.7151ZM17.3687 17.4228C15.9702 20.1335 14.9523 25.2752 15.0386 30.7151L18.0382 30.6675C17.9561 25.4929 18.949 20.9029 20.0348 18.7983L17.3687 17.4228ZM22.9936 9.76968C20.4282 11.7486 18.8547 14.5426 17.3687 17.4228L20.0348 18.7983C21.5282 15.9037 22.8449 13.6732 24.826 12.1451L22.9936 9.76968Z" fill="#F8F9FA" mask="url(#path-1-outside-1_50_11581)"/>
<path d="M33.7824 9.20215C24.9966 9.20215 22.5234 12.7571 19.5388 18.542C17.2509 22.9768 15.5486 37.3129 21.904 45.9978C25.1094 50.3782 28.9337 52.2139 33.8158 50.963C36.9371 50.1633 39.0449 47.307 39.0449 45.1476C39.0449 40.0943 34.4788 40.8777 40.4052 32.4529C47.4162 22.4864 44.7647 9.20215 33.7824 9.20215Z" fill="#FFD8A8" stroke="#212529" stroke-width="2" stroke-linecap="round" stroke-linejoin="round"/>
<g style="mix-blend-mode:soft-light" opacity="0.4">
<path fill-rule="evenodd" clip-rule="evenodd" d="M20.2184 18.7422C23.1527 13.0546 25.5843 9.55957 34.2221 9.55957C34.5509 9.55957 34.872 9.57168 35.1855 9.59543C27.7185 9.97735 25.4019 13.3884 22.6398 18.7422C20.3904 23.1022 18.7168 37.1969 24.9651 45.7355C27.1757 48.7563 29.6856 50.5462 32.6438 50.9213C28.6006 51.4 25.3337 49.5482 22.5437 45.7355C16.2954 37.1969 17.969 23.1022 20.2184 18.7422Z" fill="#F8F9FA"/>
</g>
<g style="mix-blend-mode:multiply" opacity="0.6">
<path fill-rule="evenodd" clip-rule="evenodd" d="M27.8864 51.0649C28.6701 51.0826 29.4891 51.013 30.3459 50.8535C33.5135 50.2635 35.807 47.554 35.9509 45.3995C36.0623 43.7314 35.6325 42.6674 35.2418 41.7003C34.4516 39.7441 33.8215 38.1844 38.1541 32.8236C45.7446 23.4319 44.0843 10.1569 33.3895 9.20605C44.0866 9.47716 46.6113 22.5895 39.6731 32.4526C35.7073 38.0901 36.44 39.6044 37.3588 41.5036C37.813 42.4425 38.3128 43.4755 38.3128 45.1473C38.3128 47.3067 36.2049 50.1629 33.0837 50.9627C31.2026 51.4446 29.4785 51.4684 27.8864 51.0649Z" fill="#FFD8A8"/>
</g>
<path d="M34.1451 31.5035C37.9411 27.547 39.0999 23.5059 39.2048 21.9798C39.6253 18.2707 38.4376 14.3281 32.7939 14.3281C26.7223 14.3281 23.465 21.0991 23.1 26.9353C23.0633 27.5211 23.5782 27.9807 24.148 28.1211C25.2754 28.3988 26.6126 29.2885 26.9267 31.5035C27.3544 34.5195 25.0456 36.1447 23.8377 36.5804" stroke="#212529" stroke-width="1.4" stroke-linecap="round" stroke-linejoin="round"/>
<g style="mix-blend-mode:multiply" opacity="0.6">
<path d="M28.0008 16.7528C30.1337 14.8109 32.5505 14.7764 33.4923 15.0019C31.689 15.079 28.902 17.1094 27.6029 19.7771C27.3576 20.2808 27.1443 20.7871 26.9593 21.2954C26.9593 21.2954 29.7515 20.3612 32.2182 21.0486C27.6029 21.4529 26.2336 23.914 26.1453 24.4562C25.9289 25.786 25.8519 27.1214 25.8519 28.4521C25.5335 27.688 24.2867 27.3644 23.7031 27.2981L24.2602 23.3983C24.6184 21.9923 25.8679 18.6948 28.0008 16.7528Z" fill="#FFD8A8"/>
</g>
<path d="M34.1447 21.2291C33.0085 20.2934 29.4397 19.0905 24.2535 21.7637" stroke="#212529" stroke-width="1.4" stroke-linecap="round" stroke-linejoin="round"/>
<g style="mix-blend-mode:soft-light" opacity="0.6">
<path d="M36.7285 24.271C37.3537 24.0672 37.685 22.5299 37.7445 21.3896C37.8054 20.2234 37.6875 18.4546 36.9988 18.5167C36.3101 18.5788 36.4181 20.8575 36.5061 21.4297C36.5738 22.5388 36.1033 24.4748 36.7285 24.271Z" fill="#F8F9FA"/>
</g>
</svg>
