<svg width="60" height="60" viewBox="0 0 60 60" fill="none" xmlns="http://www.w3.org/2000/svg">
<mask id="path-1-outside-1_50_107" maskUnits="userSpaceOnUse" x="7.48401" y="8.29915" width="45" height="43" fill="black">
<rect fill="white" x="7.48401" y="8.29915" width="45" height="43"/>
<path fill-rule="evenodd" clip-rule="evenodd" d="M15.484 10.2992C14.4685 10.2992 13.6453 11.1224 13.6453 12.1379V22.2172H12.5808C10.8705 22.2172 9.48401 23.6037 9.48401 25.314V46.6041C9.48401 48.3144 10.8705 49.7008 12.5808 49.7008H47.4191C49.1294 49.7008 50.5159 48.3144 50.5159 46.6041V25.314C50.5159 23.6037 49.1294 22.2172 47.4191 22.2172H46.3546V12.1379C46.3546 11.1224 45.5314 10.2992 44.5159 10.2992H15.484ZM44.6127 22.2172V12.1379C44.6127 12.0844 44.5694 12.0411 44.5159 12.0411H15.484C15.4305 12.0411 15.3872 12.0844 15.3872 12.1379V22.2172H44.6127ZM15.3872 24.5398H44.6127V43.6001C44.6127 43.6536 44.5694 43.6969 44.5159 43.6969H15.484C15.4305 43.6969 15.3872 43.6536 15.3872 43.6001V24.5398ZM13.6453 24.5398V43.6001C13.6453 44.6156 14.4685 45.4388 15.484 45.4388H44.5159C45.5314 45.4388 46.3546 44.6156 46.3546 43.6001V24.5398H47.4191C47.8467 24.5398 48.1933 24.8864 48.1933 25.314V46.6041C48.1933 47.0317 47.8467 47.3783 47.4191 47.3783H12.5808C12.1532 47.3783 11.8066 47.0317 11.8066 46.6041V25.314C11.8066 24.8864 12.1532 24.5398 12.5808 24.5398H13.6453Z"/>
</mask>
<path fill-rule="evenodd" clip-rule="evenodd" d="M15.484 10.2992C14.4685 10.2992 13.6453 11.1224 13.6453 12.1379V22.2172H12.5808C10.8705 22.2172 9.48401 23.6037 9.48401 25.314V46.6041C9.48401 48.3144 10.8705 49.7008 12.5808 49.7008H47.4191C49.1294 49.7008 50.5159 48.3144 50.5159 46.6041V25.314C50.5159 23.6037 49.1294 22.2172 47.4191 22.2172H46.3546V12.1379C46.3546 11.1224 45.5314 10.2992 44.5159 10.2992H15.484ZM44.6127 22.2172V12.1379C44.6127 12.0844 44.5694 12.0411 44.5159 12.0411H15.484C15.4305 12.0411 15.3872 12.0844 15.3872 12.1379V22.2172H44.6127ZM15.3872 24.5398H44.6127V43.6001C44.6127 43.6536 44.5694 43.6969 44.5159 43.6969H15.484C15.4305 43.6969 15.3872 43.6536 15.3872 43.6001V24.5398ZM13.6453 24.5398V43.6001C13.6453 44.6156 14.4685 45.4388 15.484 45.4388H44.5159C45.5314 45.4388 46.3546 44.6156 46.3546 43.6001V24.5398H47.4191C47.8467 24.5398 48.1933 24.8864 48.1933 25.314V46.6041C48.1933 47.0317 47.8467 47.3783 47.4191 47.3783H12.5808C12.1532 47.3783 11.8066 47.0317 11.8066 46.6041V25.314C11.8066 24.8864 12.1532 24.5398 12.5808 24.5398H13.6453Z" fill="#F8F9FA"/>
<path d="M13.6453 22.2172V23.7172C14.4737 23.7172 15.1453 23.0456 15.1453 22.2172H13.6453ZM46.3546 22.2172H44.8546C44.8546 23.0456 45.5262 23.7172 46.3546 23.7172V22.2172ZM44.6127 22.2172V23.7172C45.4411 23.7172 46.1127 23.0456 46.1127 22.2172H44.6127ZM15.3872 22.2172H13.8872C13.8872 23.0456 14.5588 23.7172 15.3872 23.7172V22.2172ZM44.6127 24.5398H46.1127C46.1127 23.7113 45.4411 23.0398 44.6127 23.0398V24.5398ZM15.3872 24.5398V23.0398C14.5588 23.0398 13.8872 23.7113 13.8872 24.5398H15.3872ZM13.6453 24.5398H15.1453C15.1453 23.7113 14.4737 23.0398 13.6453 23.0398V24.5398ZM46.3546 24.5398V23.0398C45.5262 23.0398 44.8546 23.7113 44.8546 24.5398H46.3546ZM15.1453 12.1378C15.1453 11.9508 15.2969 11.7991 15.484 11.7991V8.79915C13.64 8.79915 12.1453 10.2939 12.1453 12.1378H15.1453ZM15.1453 22.2172V12.1378H12.1453V22.2172H15.1453ZM12.5808 23.7172H13.6453V20.7172H12.5808V23.7172ZM10.984 25.314C10.984 24.4321 11.6989 23.7172 12.5808 23.7172V20.7172C10.042 20.7172 7.98401 22.7752 7.98401 25.314H10.984ZM10.984 46.6041V25.314H7.98401V46.6041H10.984ZM12.5808 48.2008C11.6989 48.2008 10.984 47.4859 10.984 46.6041H7.98401C7.98401 49.1428 10.042 51.2008 12.5808 51.2008V48.2008ZM47.4191 48.2008H12.5808V51.2008H47.4191V48.2008ZM49.0159 46.6041C49.0159 47.4859 48.301 48.2008 47.4191 48.2008V51.2008C49.9578 51.2008 52.0159 49.1428 52.0159 46.6041H49.0159ZM49.0159 25.314V46.6041H52.0159V25.314H49.0159ZM47.4191 23.7172C48.301 23.7172 49.0159 24.4321 49.0159 25.314H52.0159C52.0159 22.7752 49.9578 20.7172 47.4191 20.7172V23.7172ZM46.3546 23.7172H47.4191V20.7172H46.3546V23.7172ZM44.8546 12.1378V22.2172H47.8546V12.1378H44.8546ZM44.5159 11.7991C44.703 11.7991 44.8546 11.9508 44.8546 12.1378H47.8546C47.8546 10.2939 46.3598 8.79915 44.5159 8.79915V11.7991ZM15.484 11.7991H44.5159V8.79915H15.484V11.7991ZM46.1127 22.2172V12.1378H43.1127V22.2172H46.1127ZM46.1127 12.1378C46.1127 11.256 45.3978 10.5411 44.5159 10.5411V13.5411C43.7409 13.5411 43.1127 12.9128 43.1127 12.1378H46.1127ZM44.5159 10.5411H15.484V13.5411H44.5159V10.5411ZM15.484 10.5411C14.6021 10.5411 13.8872 11.256 13.8872 12.1378H16.8872C16.8872 12.9128 16.2589 13.5411 15.484 13.5411V10.5411ZM13.8872 12.1378V22.2172H16.8872V12.1378H13.8872ZM15.3872 23.7172H44.6127V20.7172H15.3872V23.7172ZM44.6127 23.0398H15.3872V26.0398H44.6127V23.0398ZM46.1127 43.6001V24.5398H43.1127V43.6001H46.1127ZM44.5159 45.1969C45.3978 45.1969 46.1127 44.482 46.1127 43.6001H43.1127C43.1127 42.8251 43.741 42.1969 44.5159 42.1969V45.1969ZM15.484 45.1969H44.5159V42.1969H15.484V45.1969ZM13.8872 43.6001C13.8872 44.4821 14.6021 45.1969 15.484 45.1969V42.1969C16.2589 42.1969 16.8872 42.8251 16.8872 43.6001H13.8872ZM13.8872 24.5398V43.6001H16.8872V24.5398H13.8872ZM15.1453 43.6001V24.5398H12.1453V43.6001H15.1453ZM15.484 43.9388C15.2969 43.9388 15.1453 43.7872 15.1453 43.6001H12.1453C12.1453 45.444 13.64 46.9388 15.484 46.9388V43.9388ZM44.5159 43.9388H15.484V46.9388H44.5159V43.9388ZM44.8546 43.6001C44.8546 43.7872 44.703 43.9388 44.5159 43.9388V46.9388C46.3598 46.9388 47.8546 45.444 47.8546 43.6001H44.8546ZM44.8546 24.5398V43.6001H47.8546V24.5398H44.8546ZM47.4191 23.0398H46.3546V26.0398H47.4191V23.0398ZM49.6933 25.314C49.6933 24.058 48.6751 23.0398 47.4191 23.0398V26.0398C47.0183 26.0398 46.6933 25.7148 46.6933 25.314H49.6933ZM49.6933 46.6041V25.314H46.6933V46.6041H49.6933ZM47.4191 48.8783C48.6751 48.8783 49.6933 47.8601 49.6933 46.6041H46.6933C46.6933 46.2032 47.0183 45.8783 47.4191 45.8783V48.8783ZM12.5808 48.8783H47.4191V45.8783H12.5808V48.8783ZM10.3066 46.6041C10.3066 47.8601 11.3248 48.8783 12.5808 48.8783V45.8783C12.9816 45.8783 13.3066 46.2032 13.3066 46.6041H10.3066ZM10.3066 25.314V46.6041H13.3066V25.314H10.3066ZM12.5808 23.0398C11.3248 23.0398 10.3066 24.058 10.3066 25.314H13.3066C13.3066 25.7148 12.9816 26.0398 12.5808 26.0398V23.0398ZM13.6453 23.0398H12.5808V26.0398H13.6453V23.0398Z" fill="#F8F9FA" mask="url(#path-1-outside-1_50_107)"/>
<rect x="10.6454" y="23.4005" width="38.7093" height="25.1611" rx="2" fill="white" stroke="#212529" stroke-width="2.4" stroke-linejoin="round"/>
<rect x="14.5162" y="11.1921" width="30.9674" height="33.3978" rx="1" fill="#F1F3F5" stroke="#212529" stroke-width="1.8" stroke-linejoin="round"/>
<g style="mix-blend-mode:multiply">
<path d="M29.8982 34.5328L15.1343 23.3006L14.729 26.6008L29.8982 37.3119L45.0096 26.8903V23.648L29.8982 34.5328Z" fill="#E9ECEF"/>
</g>
<path d="M19.7145 16.5561H30.7365" stroke="#212529" stroke-width="1.4" stroke-linecap="round" stroke-linejoin="round"/>
<path d="M19.5845 20.4271H25.2254" stroke="#212529" stroke-width="1.4" stroke-linecap="round" stroke-linejoin="round"/>
<path fill-rule="evenodd" clip-rule="evenodd" d="M10.6453 24.6379C10.6453 23.8204 11.5729 23.3483 12.2338 23.8294L28.9272 35.981L12.2338 48.1327C11.5729 48.6138 10.6453 48.1417 10.6453 47.3242L10.6453 24.6379Z" fill="#99E9F2" stroke="#212529" stroke-width="2" stroke-linejoin="round"/>
<g style="mix-blend-mode:multiply">
<path d="M24.7994 37.3119L10.6454 45.2694V47.8785L24.7994 37.3119Z" fill="#E9ECEF"/>
</g>
<path fill-rule="evenodd" clip-rule="evenodd" d="M49.3547 24.6379C49.3547 23.8204 48.4271 23.3483 47.7662 23.8294L31.0728 35.981L47.7662 48.1327C48.4271 48.6138 49.3547 48.1417 49.3547 47.3242V24.6379Z" fill="#99E9F2" stroke="#212529" stroke-width="2" stroke-linejoin="round"/>
<g style="mix-blend-mode:multiply">
<path d="M34.9179 37.1598L49.0719 45.1173V47.7264L34.9179 37.1598Z" fill="#E9ECEF"/>
</g>
<path fill-rule="evenodd" clip-rule="evenodd" d="M12.9775 48.5615C11.9969 48.5615 11.6022 47.297 12.4086 46.7391L30 34.57L47.5914 46.7391C48.3978 47.297 48.003 48.5615 47.0225 48.5615H12.9775Z" fill="#C5F6FA" stroke="#212529" stroke-width="2" stroke-linejoin="round"/>
</svg>
