<svg width="60" height="60" viewBox="0 0 60 60" fill="none" xmlns="http://www.w3.org/2000/svg">
<mask id="path-1-outside-1_50_11204" maskUnits="userSpaceOnUse" x="5.10181" y="7.5127" width="50" height="45" fill="black">
<rect fill="white" x="5.10181" y="7.5127" width="50" height="45"/>
<path fill-rule="evenodd" clip-rule="evenodd" d="M21.4437 9.5127C20.3391 9.5127 19.4437 10.4081 19.4437 11.5127V17.4353C19.4437 18.5398 20.3391 19.4353 21.4437 19.4353H29.0002V22.4112L19.9 25.7817C18.1595 26.4264 18.1595 28.8881 19.9 29.5327L29.0002 32.9033V35.5168H18.4379C16.7811 35.5168 15.4379 36.8599 15.4379 38.5168V41.6478H11.1018C8.89267 41.6478 7.10181 43.4387 7.10181 45.6478V46.4871C7.10181 48.6963 8.89267 50.4871 11.1018 50.4871H21.774C23.9832 50.4871 25.774 48.6963 25.774 46.4871V45.6478C25.774 43.4387 23.9832 41.6478 21.774 41.6478H17.4379V38.5168C17.4379 37.9645 17.8856 37.5168 18.4379 37.5168H41.5624C42.1147 37.5168 42.5624 37.9645 42.5624 38.5168V41.6478H38.2263C36.0171 41.6478 34.2263 43.4387 34.2263 45.6478V46.4871C34.2263 48.6963 36.0171 50.4871 38.2263 50.4871H48.8985C51.1076 50.4871 52.8985 48.6963 52.8985 46.4872V45.6478C52.8985 43.4387 51.1076 41.6478 48.8985 41.6478H44.5624V38.5168C44.5624 36.8599 43.2192 35.5168 41.5624 35.5168H31.0002V32.9033L40.1005 29.5327C41.841 28.8881 41.841 26.4264 40.1005 25.7817L31.0002 22.4112V19.4353H38.5569C39.6614 19.4353 40.5569 18.5398 40.5569 17.4353V11.5127C40.5569 10.4081 39.6614 9.5127 38.5569 9.5127H21.4437ZM20.5946 27.6572L29.0002 24.5439V30.7705L20.5946 27.6572ZM39.4059 27.6572L31.0002 30.7705V24.5439L39.4059 27.6572ZM21.4437 11.5127L38.5569 11.5127V17.4353L21.4437 17.4353V11.5127ZM42.5624 43.6478H38.2263C37.1217 43.6478 36.2263 44.5433 36.2263 45.6478V46.4871C36.2263 47.5917 37.1217 48.4871 38.2263 48.4871H48.8985C50.0031 48.4871 50.8985 47.5917 50.8985 46.4872V45.6478C50.8985 44.5433 50.0031 43.6478 48.8985 43.6478H44.5624V44.8822C44.5624 45.4345 44.1147 45.8822 43.5624 45.8822C43.0101 45.8822 42.5624 45.4345 42.5624 44.8822V43.6478ZM15.4379 44.8822V43.6478H11.1018C9.99724 43.6478 9.10181 44.5433 9.10181 45.6478V46.4871C9.10181 47.5917 9.99724 48.4871 11.1018 48.4871H21.774C22.8786 48.4871 23.774 47.5917 23.774 46.4871V45.6478C23.774 44.5433 22.8786 43.6478 21.774 43.6478H17.4379V44.8822C17.4379 45.4345 16.9902 45.8822 16.4379 45.8822C15.8856 45.8822 15.4379 45.4345 15.4379 44.8822Z"/>
</mask>
<path fill-rule="evenodd" clip-rule="evenodd" d="M21.4437 9.5127C20.3391 9.5127 19.4437 10.4081 19.4437 11.5127V17.4353C19.4437 18.5398 20.3391 19.4353 21.4437 19.4353H29.0002V22.4112L19.9 25.7817C18.1595 26.4264 18.1595 28.8881 19.9 29.5327L29.0002 32.9033V35.5168H18.4379C16.7811 35.5168 15.4379 36.8599 15.4379 38.5168V41.6478H11.1018C8.89267 41.6478 7.10181 43.4387 7.10181 45.6478V46.4871C7.10181 48.6963 8.89267 50.4871 11.1018 50.4871H21.774C23.9832 50.4871 25.774 48.6963 25.774 46.4871V45.6478C25.774 43.4387 23.9832 41.6478 21.774 41.6478H17.4379V38.5168C17.4379 37.9645 17.8856 37.5168 18.4379 37.5168H41.5624C42.1147 37.5168 42.5624 37.9645 42.5624 38.5168V41.6478H38.2263C36.0171 41.6478 34.2263 43.4387 34.2263 45.6478V46.4871C34.2263 48.6963 36.0171 50.4871 38.2263 50.4871H48.8985C51.1076 50.4871 52.8985 48.6963 52.8985 46.4872V45.6478C52.8985 43.4387 51.1076 41.6478 48.8985 41.6478H44.5624V38.5168C44.5624 36.8599 43.2192 35.5168 41.5624 35.5168H31.0002V32.9033L40.1005 29.5327C41.841 28.8881 41.841 26.4264 40.1005 25.7817L31.0002 22.4112V19.4353H38.5569C39.6614 19.4353 40.5569 18.5398 40.5569 17.4353V11.5127C40.5569 10.4081 39.6614 9.5127 38.5569 9.5127H21.4437ZM20.5946 27.6572L29.0002 24.5439V30.7705L20.5946 27.6572ZM39.4059 27.6572L31.0002 30.7705V24.5439L39.4059 27.6572ZM21.4437 11.5127L38.5569 11.5127V17.4353L21.4437 17.4353V11.5127ZM42.5624 43.6478H38.2263C37.1217 43.6478 36.2263 44.5433 36.2263 45.6478V46.4871C36.2263 47.5917 37.1217 48.4871 38.2263 48.4871H48.8985C50.0031 48.4871 50.8985 47.5917 50.8985 46.4872V45.6478C50.8985 44.5433 50.0031 43.6478 48.8985 43.6478H44.5624V44.8822C44.5624 45.4345 44.1147 45.8822 43.5624 45.8822C43.0101 45.8822 42.5624 45.4345 42.5624 44.8822V43.6478ZM15.4379 44.8822V43.6478H11.1018C9.99724 43.6478 9.10181 44.5433 9.10181 45.6478V46.4871C9.10181 47.5917 9.99724 48.4871 11.1018 48.4871H21.774C22.8786 48.4871 23.774 47.5917 23.774 46.4871V45.6478C23.774 44.5433 22.8786 43.6478 21.774 43.6478H17.4379V44.8822C17.4379 45.4345 16.9902 45.8822 16.4379 45.8822C15.8856 45.8822 15.4379 45.4345 15.4379 44.8822Z" fill="#F8F9FA"/>
<path d="M29.0002 19.4353H30.5002C30.5002 18.6068 29.8287 17.9353 29.0002 17.9353V19.4353ZM29.0002 22.4112L29.5212 23.8178C30.1096 23.5998 30.5002 23.0386 30.5002 22.4112H29.0002ZM19.9 25.7817L20.4209 27.1883L20.4209 27.1883L19.9 25.7817ZM19.9 29.5327L20.4209 28.1261L20.4209 28.1261L19.9 29.5327ZM29.0002 32.9033H30.5002C30.5002 32.2758 30.1096 31.7146 29.5212 31.4967L29.0002 32.9033ZM29.0002 35.5168V37.0168C29.8287 37.0168 30.5002 36.3452 30.5002 35.5168H29.0002ZM15.4379 41.6478V43.1478C16.2664 43.1478 16.9379 42.4763 16.9379 41.6478H15.4379ZM17.4379 41.6478H15.9379C15.9379 42.4763 16.6095 43.1478 17.4379 43.1478V41.6478ZM42.5624 41.6478V43.1478C43.3908 43.1478 44.0624 42.4763 44.0624 41.6478H42.5624ZM44.5624 41.6478H43.0624C43.0624 42.4763 43.734 43.1478 44.5624 43.1478V41.6478ZM31.0002 35.5168H29.5002C29.5002 36.3452 30.1718 37.0168 31.0002 37.0168V35.5168ZM31.0002 32.9033L30.4792 31.4967C29.8908 31.7146 29.5002 32.2758 29.5002 32.9033H31.0002ZM40.1005 29.5327L40.6215 30.9393L40.6215 30.9393L40.1005 29.5327ZM40.1005 25.7817L40.6215 24.3751L40.6215 24.3751L40.1005 25.7817ZM31.0002 22.4112H29.5002C29.5002 23.0386 29.8908 23.5998 30.4792 23.8178L31.0002 22.4112ZM31.0002 19.4353V17.9353C30.1718 17.9353 29.5002 18.6068 29.5002 19.4353H31.0002ZM29.0002 24.5439H30.5002C30.5002 24.053 30.26 23.5932 29.8571 23.3128C29.4542 23.0323 28.9396 22.9668 28.4792 23.1373L29.0002 24.5439ZM20.5946 27.6572L20.0736 26.2506C19.4852 26.4685 19.0946 27.0297 19.0946 27.6572C19.0946 28.2847 19.4852 28.8459 20.0736 29.0638L20.5946 27.6572ZM29.0002 30.7705L28.4792 32.1771C28.9396 32.3476 29.4542 32.2821 29.8571 32.0017C30.26 31.7212 30.5002 31.2614 30.5002 30.7705H29.0002ZM31.0002 30.7705H29.5002C29.5002 31.2614 29.7404 31.7212 30.1433 32.0017C30.5463 32.2821 31.0609 32.3476 31.5212 32.1771L31.0002 30.7705ZM39.4059 27.6572L39.9268 29.0638C40.5153 28.8459 40.9059 28.2847 40.9059 27.6572C40.9059 27.0297 40.5153 26.4685 39.9268 26.2506L39.4059 27.6572ZM31.0002 24.5439L31.5212 23.1373C31.0609 22.9668 30.5463 23.0323 30.1433 23.3128C29.7404 23.5932 29.5002 24.053 29.5002 24.5439H31.0002ZM38.5569 11.5127H40.0569C40.0569 10.6843 39.3853 10.0127 38.5569 10.0127L38.5569 11.5127ZM21.4437 11.5127L21.4437 10.0127C21.0458 10.0127 20.6643 10.1707 20.383 10.452C20.1017 10.7333 19.9437 11.1149 19.9437 11.5127H21.4437ZM38.5569 17.4353L38.5569 18.9353C38.9547 18.9353 39.3362 18.7772 39.6175 18.4959C39.8988 18.2146 40.0569 17.8331 40.0569 17.4353H38.5569ZM21.4437 17.4353H19.9437C19.9437 18.2637 20.6152 18.9353 21.4437 18.9353L21.4437 17.4353ZM42.5624 43.6478H44.0624C44.0624 42.8194 43.3908 42.1478 42.5624 42.1478V43.6478ZM44.5624 43.6478V42.1478C43.734 42.1478 43.0624 42.8194 43.0624 43.6478H44.5624ZM15.4379 43.6478H16.9379C16.9379 42.8194 16.2664 42.1478 15.4379 42.1478V43.6478ZM17.4379 43.6478V42.1478C16.6095 42.1478 15.9379 42.8194 15.9379 43.6478H17.4379ZM20.9437 11.5127C20.9437 11.2366 21.1675 11.0127 21.4437 11.0127V8.0127C19.5107 8.0127 17.9437 9.5797 17.9437 11.5127H20.9437ZM20.9437 17.4353V11.5127H17.9437V17.4353H20.9437ZM21.4437 17.9353C21.1675 17.9353 20.9437 17.7114 20.9437 17.4353H17.9437C17.9437 19.3683 19.5107 20.9353 21.4437 20.9353V17.9353ZM29.0002 17.9353H21.4437V20.9353H29.0002V17.9353ZM30.5002 22.4112V19.4353H27.5002V22.4112H30.5002ZM20.4209 27.1883L29.5212 23.8178L28.4792 21.0045L19.379 24.3751L20.4209 27.1883ZM20.4209 28.1261C19.9858 27.9649 19.9858 27.3495 20.4209 27.1883L19.379 24.3751C16.3332 25.5032 16.3331 29.8112 19.379 30.9393L20.4209 28.1261ZM29.5212 31.4967L20.4209 28.1261L19.379 30.9393L28.4792 34.3099L29.5212 31.4967ZM30.5002 35.5168V32.9033H27.5002V35.5168H30.5002ZM29.0002 34.0168H18.4379V37.0168H29.0002V34.0168ZM18.4379 34.0168C15.9526 34.0168 13.9379 36.0315 13.9379 38.5168H16.9379C16.9379 37.6884 17.6095 37.0168 18.4379 37.0168V34.0168ZM13.9379 38.5168V41.6478H16.9379V38.5168H13.9379ZM15.4379 40.1478H11.1018V43.1478H15.4379V40.1478ZM11.1018 40.1478C8.06424 40.1478 5.60181 42.6103 5.60181 45.6478H8.60181C8.60181 44.2671 9.72109 43.1478 11.1018 43.1478V40.1478ZM5.60181 45.6478V46.4871H8.60181V45.6478H5.60181ZM5.60181 46.4871C5.60181 49.5247 8.06424 51.9871 11.1018 51.9871V48.9871C9.72109 48.9871 8.60181 47.8678 8.60181 46.4871H5.60181ZM11.1018 51.9871H21.774V48.9871H11.1018V51.9871ZM21.774 51.9871C24.8116 51.9871 27.274 49.5247 27.274 46.4871H24.274C24.274 47.8678 23.1547 48.9871 21.774 48.9871V51.9871ZM27.274 46.4871V45.6478H24.274V46.4871H27.274ZM27.274 45.6478C27.274 42.6103 24.8116 40.1478 21.774 40.1478V43.1478C23.1547 43.1478 24.274 44.2671 24.274 45.6478H27.274ZM21.774 40.1478H17.4379V43.1478H21.774V40.1478ZM18.9379 41.6478V38.5168H15.9379V41.6478H18.9379ZM18.9379 38.5168C18.9379 38.7929 18.7141 39.0168 18.4379 39.0168V36.0168C17.0572 36.0168 15.9379 37.1361 15.9379 38.5168H18.9379ZM18.4379 39.0168H41.5624V36.0168H18.4379V39.0168ZM41.5624 39.0168C41.2863 39.0168 41.0624 38.7929 41.0624 38.5168H44.0624C44.0624 37.1361 42.9431 36.0168 41.5624 36.0168V39.0168ZM41.0624 38.5168V41.6478H44.0624V38.5168H41.0624ZM42.5624 40.1478H38.2263V43.1478H42.5624V40.1478ZM38.2263 40.1478C35.1887 40.1478 32.7263 42.6103 32.7263 45.6478H35.7263C35.7263 44.2671 36.8455 43.1478 38.2263 43.1478V40.1478ZM32.7263 45.6478V46.4871H35.7263V45.6478H32.7263ZM32.7263 46.4871C32.7263 49.5247 35.1887 51.9871 38.2263 51.9871V48.9871C36.8455 48.9871 35.7263 47.8679 35.7263 46.4871H32.7263ZM38.2263 51.9871H48.8985V48.9871H38.2263V51.9871ZM48.8985 51.9871C51.936 51.9871 54.3985 49.5247 54.3985 46.4872H51.3985C51.3985 47.8679 50.2792 48.9871 48.8985 48.9871V51.9871ZM54.3985 46.4872V45.6478H51.3985V46.4872H54.3985ZM54.3985 45.6478C54.3985 42.6103 51.9361 40.1478 48.8985 40.1478V43.1478C50.2792 43.1478 51.3985 44.2671 51.3985 45.6478H54.3985ZM48.8985 40.1478H44.5624V43.1478H48.8985V40.1478ZM46.0624 41.6478V38.5168H43.0624V41.6478H46.0624ZM46.0624 38.5168C46.0624 36.0315 44.0477 34.0168 41.5624 34.0168V37.0168C42.3908 37.0168 43.0624 37.6884 43.0624 38.5168H46.0624ZM41.5624 34.0168H31.0002V37.0168H41.5624V34.0168ZM29.5002 32.9033V35.5168H32.5002V32.9033H29.5002ZM39.5795 28.1261L30.4792 31.4967L31.5212 34.3099L40.6215 30.9393L39.5795 28.1261ZM39.5795 27.1883C40.0146 27.3495 40.0146 27.9649 39.5795 28.1261L40.6215 30.9393C43.6673 29.8112 43.6673 25.5032 40.6215 24.3751L39.5795 27.1883ZM30.4792 23.8178L39.5795 27.1883L40.6215 24.3751L31.5212 21.0045L30.4792 23.8178ZM29.5002 19.4353V22.4112H32.5002V19.4353H29.5002ZM38.5569 17.9353H31.0002V20.9353H38.5569V17.9353ZM39.0569 17.4353C39.0569 17.7114 38.833 17.9353 38.5569 17.9353V20.9353C40.4899 20.9353 42.0569 19.3683 42.0569 17.4353H39.0569ZM39.0569 11.5127V17.4353H42.0569V11.5127H39.0569ZM38.5569 11.0127C38.833 11.0127 39.0569 11.2366 39.0569 11.5127H42.0569C42.0569 9.5797 40.4899 8.0127 38.5569 8.0127V11.0127ZM21.4437 11.0127H38.5569V8.0127H21.4437V11.0127ZM28.4792 23.1373L20.0736 26.2506L21.1156 29.0638L29.5212 25.9505L28.4792 23.1373ZM30.5002 30.7705V24.5439H27.5002V30.7705H30.5002ZM20.0736 29.0638L28.4792 32.1771L29.5212 29.3639L21.1156 26.2506L20.0736 29.0638ZM31.5212 32.1771L39.9268 29.0638L38.8849 26.2506L30.4792 29.3639L31.5212 32.1771ZM29.5002 24.5439V30.7705H32.5002V24.5439H29.5002ZM39.9268 26.2506L31.5212 23.1373L30.4792 25.9505L38.8849 29.0638L39.9268 26.2506ZM38.5569 10.0127L21.4437 10.0127L21.4437 13.0127L38.5569 13.0127L38.5569 10.0127ZM40.0569 17.4353V11.5127H37.0569V17.4353H40.0569ZM21.4437 18.9353L38.5569 18.9353L38.5569 15.9353L21.4437 15.9353L21.4437 18.9353ZM19.9437 11.5127V17.4353H22.9437V11.5127H19.9437ZM38.2263 45.1478H42.5624V42.1478H38.2263V45.1478ZM37.7263 45.6478C37.7263 45.3717 37.9501 45.1478 38.2263 45.1478V42.1478C36.2933 42.1478 34.7263 43.7148 34.7263 45.6478H37.7263ZM37.7263 46.4871V45.6478H34.7263V46.4871H37.7263ZM38.2263 46.9871C37.9501 46.9871 37.7263 46.7633 37.7263 46.4871H34.7263C34.7263 48.4201 36.2933 49.9871 38.2263 49.9871V46.9871ZM48.8985 46.9871H38.2263V49.9871H48.8985V46.9871ZM49.3985 46.4872C49.3985 46.7633 49.1746 46.9871 48.8985 46.9871V49.9871C50.8315 49.9871 52.3985 48.4201 52.3985 46.4872H49.3985ZM49.3985 45.6478V46.4872H52.3985V45.6478H49.3985ZM48.8985 45.1478C49.1746 45.1478 49.3985 45.3717 49.3985 45.6478H52.3985C52.3985 43.7148 50.8315 42.1478 48.8985 42.1478V45.1478ZM44.5624 45.1478H48.8985V42.1478H44.5624V45.1478ZM46.0624 44.8822V43.6478H43.0624V44.8822H46.0624ZM43.5624 47.3822C44.9431 47.3822 46.0624 46.2629 46.0624 44.8822H43.0624C43.0624 44.6061 43.2863 44.3822 43.5624 44.3822V47.3822ZM41.0624 44.8822C41.0624 46.263 42.1817 47.3822 43.5624 47.3822V44.3822C43.8385 44.3822 44.0624 44.6061 44.0624 44.8822H41.0624ZM41.0624 43.6478V44.8822H44.0624V43.6478H41.0624ZM13.9379 43.6478V44.8822H16.9379V43.6478H13.9379ZM11.1018 45.1478H15.4379V42.1478H11.1018V45.1478ZM10.6018 45.6478C10.6018 45.3717 10.8257 45.1478 11.1018 45.1478V42.1478C9.16881 42.1478 7.60181 43.7148 7.60181 45.6478H10.6018ZM10.6018 46.4871V45.6478H7.60181V46.4871H10.6018ZM11.1018 46.9871C10.8257 46.9871 10.6018 46.7633 10.6018 46.4871H7.60181C7.60181 48.4201 9.16881 49.9871 11.1018 49.9871V46.9871ZM21.774 46.9871H11.1018V49.9871H21.774V46.9871ZM22.274 46.4871C22.274 46.7633 22.0502 46.9871 21.774 46.9871V49.9871C23.707 49.9871 25.274 48.4201 25.274 46.4871H22.274ZM22.274 45.6478V46.4871H25.274V45.6478H22.274ZM21.774 45.1478C22.0502 45.1478 22.274 45.3717 22.274 45.6478H25.274C25.274 43.7148 23.707 42.1478 21.774 42.1478V45.1478ZM17.4379 45.1478H21.774V42.1478H17.4379V45.1478ZM18.9379 44.8822V43.6478H15.9379V44.8822H18.9379ZM16.4379 47.3822C17.8186 47.3822 18.9379 46.263 18.9379 44.8822H15.9379C15.9379 44.6061 16.1618 44.3822 16.4379 44.3822V47.3822ZM13.9379 44.8822C13.9379 46.263 15.0572 47.3822 16.4379 47.3822V44.3822C16.7141 44.3822 16.9379 44.6061 16.9379 44.8822H13.9379Z" fill="#F8F9FA" mask="url(#path-1-outside-1_50_11204)"/>
<path d="M16.4377 44.883V38.5176C16.4377 37.413 17.3332 36.5176 18.4377 36.5176H41.5622C42.6668 36.5176 43.5622 37.413 43.5622 38.5176V44.883" stroke="#212529" stroke-width="2" stroke-linecap="round" stroke-linejoin="round"/>
<path fill-rule="evenodd" clip-rule="evenodd" d="M30 36.5172V18.9541Z" fill="white"/>
<path d="M30 36.5172V18.9541" stroke="#212529" stroke-width="2"/>
<rect x="20.4436" y="10.5127" width="19.1132" height="7.92257" rx="1" fill="#20C997" stroke="#212529" stroke-width="2"/>
<rect x="8.10168" y="42.6475" width="16.6722" height="6.83931" rx="3" fill="#22B8CF" stroke="#212529" stroke-width="2"/>
<rect x="35.2261" y="42.6475" width="16.6722" height="6.83932" rx="3" fill="#22B8CF" stroke="#212529" stroke-width="2"/>
<path d="M29.6528 23.2354C29.8769 23.1524 30.1233 23.1524 30.3474 23.2354L39.7531 26.7191C40.6233 27.0414 40.6233 28.2723 39.7531 28.5946L30.3474 32.0783C30.1233 32.1613 29.8769 32.1613 29.6528 32.0783L20.2472 28.5946C19.3769 28.2723 19.3769 27.0414 20.2472 26.7191L29.6528 23.2354Z" fill="#FFE066" stroke="#212529" stroke-width="2"/>
</svg>
