<svg width="60" height="61" viewBox="0 0 60 61" fill="none" xmlns="http://www.w3.org/2000/svg">
<path d="M13.1335 31.3981C13.1335 22.0831 20.6849 14.5317 30 14.5317C39.315 14.5317 46.8664 22.0831 46.8664 31.3981C46.8664 40.7132 39.315 48.2646 30 48.2646C20.6849 48.2646 13.1335 40.7132 13.1335 31.3981ZM30 11.0317C18.7519 11.0317 9.63354 20.1501 9.63354 31.3981C9.63354 42.6462 18.7519 51.7646 30 51.7646C41.248 51.7646 50.3664 42.6462 50.3664 31.3981C50.3664 20.1501 41.248 11.0317 30 11.0317Z" fill="#F8F9FA" stroke="#F8F9FA" stroke-width="1.5" stroke-linecap="round" stroke-linejoin="round"/>
<circle cx="30" cy="31.3981" r="18.6164" fill="#FFD43B" stroke="#212529" stroke-width="2" stroke-linecap="round" stroke-linejoin="round"/>
<g style="mix-blend-mode:multiply">
<path fill-rule="evenodd" clip-rule="evenodd" d="M27.9342 48.3513C37.7565 48.3513 45.7189 40.3888 45.7189 30.5666C45.7189 23.486 41.5811 17.3718 35.5917 14.5103C42.6744 16.8542 47.7847 23.5294 47.7847 31.3981C47.7847 41.2203 39.8222 49.1828 30 49.1828C27.2583 49.1828 24.6616 48.5625 22.3425 47.4545C24.1009 48.0364 25.9808 48.3513 27.9342 48.3513Z" fill="#FFD43B"/>
</g>
<g style="mix-blend-mode:soft-light" opacity="0.8">
<path d="M20.9718 20.1492C21.7329 19.3751 20.819 18.6322 19.9633 18.8285C19.2456 18.9931 17.4803 20.6616 16.5908 22.3476C15.7013 24.0336 17.0361 24.7786 17.5533 24.1697C18.0704 23.5609 20.0205 21.1169 20.9718 20.1492Z" fill="#F8F9FA"/>
</g>
<path d="M31.5676 34.0423C32.419 33.2713 34.1421 32.7831 34.9121 34.0424C35.6919 35.3177 34.4892 36.2706 33.7185 36.6673C33.626 36.7149 33.6415 36.8918 33.7399 36.9254C34.3506 37.1338 35.1462 37.6502 35.2117 38.659C35.2663 39.501 34.7172 40.2716 33.95 40.4492C33.3002 40.5997 32.4149 40.5488 31.6969 39.8632" stroke="#212529" stroke-width="1.8" stroke-linecap="round"/>
<path d="M22.9011 27.2796C23.2208 25.8916 24.3237 23.1157 26.178 23.1157C28.0323 23.1157 29.1353 25.8916 29.455 27.2796" stroke="#212529" stroke-width="1.8" stroke-linecap="round"/>
<path d="M35.0635 27.2796C35.3831 25.8916 36.486 23.1157 38.3404 23.1157C40.1947 23.1157 41.2976 25.8916 41.6173 27.2796" stroke="#212529" stroke-width="1.8" stroke-linecap="round"/>
</svg>
