<svg width="60" height="60" viewBox="0 0 60 60" fill="none" xmlns="http://www.w3.org/2000/svg">
<mask id="path-1-outside-1_50_11845" maskUnits="userSpaceOnUse" x="15.5181" y="7.49707" width="29" height="44" fill="black">
<rect fill="white" x="15.5181" y="7.49707" width="29" height="44"/>
<path fill-rule="evenodd" clip-rule="evenodd" d="M30 9.49707C23.1064 9.49707 17.5181 15.0854 17.5181 21.979C17.5181 28.4678 22.4694 33.8002 28.8 34.404V39.0958H20.0187C19.356 39.0958 18.8187 39.6331 18.8187 40.2958C18.8187 40.9586 19.356 41.4958 20.0187 41.4958H28.8V48.4381C28.8 49.1008 29.3373 49.6381 30 49.6381C30.6628 49.6381 31.2 49.1008 31.2 48.4381V41.4958H39.9815C40.6442 41.4958 41.1815 40.9586 41.1815 40.2958C41.1815 39.6331 40.6442 39.0958 39.9815 39.0958H31.2V34.404C37.5306 33.8001 42.482 28.4678 42.482 21.979C42.482 15.0854 36.8936 9.49707 30 9.49707Z"/>
</mask>
<path fill-rule="evenodd" clip-rule="evenodd" d="M30 9.49707C23.1064 9.49707 17.5181 15.0854 17.5181 21.979C17.5181 28.4678 22.4694 33.8002 28.8 34.404V39.0958H20.0187C19.356 39.0958 18.8187 39.6331 18.8187 40.2958C18.8187 40.9586 19.356 41.4958 20.0187 41.4958H28.8V48.4381C28.8 49.1008 29.3373 49.6381 30 49.6381C30.6628 49.6381 31.2 49.1008 31.2 48.4381V41.4958H39.9815C40.6442 41.4958 41.1815 40.9586 41.1815 40.2958C41.1815 39.6331 40.6442 39.0958 39.9815 39.0958H31.2V34.404C37.5306 33.8001 42.482 28.4678 42.482 21.979C42.482 15.0854 36.8936 9.49707 30 9.49707Z" fill="#F8F9FA"/>
<path d="M28.8 34.404H30.3C30.3 33.6308 29.7122 32.9842 28.9425 32.9108L28.8 34.404ZM28.8 39.0958V40.5958C29.6285 40.5958 30.3 39.9243 30.3 39.0958H28.8ZM28.8 41.4958H30.3C30.3 40.6674 29.6285 39.9958 28.8 39.9958V41.4958ZM31.2 41.4958V39.9958C30.3716 39.9958 29.7 40.6674 29.7 41.4958H31.2ZM31.2 39.0958H29.7C29.7 39.9243 30.3716 40.5958 31.2 40.5958V39.0958ZM31.2 34.404L31.0576 32.9108C30.2879 32.9842 29.7 33.6308 29.7 34.404H31.2ZM19.0181 21.979C19.0181 15.9139 23.9348 10.9971 30 10.9971V7.99707C22.278 7.99707 16.0181 14.257 16.0181 21.979H19.0181ZM28.9425 32.9108C23.3742 32.3797 19.0181 27.6872 19.0181 21.979H16.0181C16.0181 29.2485 21.5646 35.2207 28.6576 35.8972L28.9425 32.9108ZM27.3 34.404V39.0958H30.3V34.404H27.3ZM28.8 37.5958H20.0187V40.5958H28.8V37.5958ZM20.0187 37.5958C18.5276 37.5958 17.3187 38.8047 17.3187 40.2958H20.3187C20.3187 40.4615 20.1844 40.5958 20.0187 40.5958V37.5958ZM17.3187 40.2958C17.3187 41.787 18.5276 42.9958 20.0187 42.9958V39.9958C20.1844 39.9958 20.3187 40.1301 20.3187 40.2958H17.3187ZM20.0187 42.9958H28.8V39.9958H20.0187V42.9958ZM27.3 41.4958V48.4381H30.3V41.4958H27.3ZM27.3 48.4381C27.3 49.9292 28.5089 51.1381 30 51.1381V48.1381C30.1657 48.1381 30.3 48.2724 30.3 48.4381H27.3ZM30 51.1381C31.4912 51.1381 32.7 49.9292 32.7 48.4381H29.7C29.7 48.2724 29.8344 48.1381 30 48.1381V51.1381ZM32.7 48.4381V41.4958H29.7V48.4381H32.7ZM31.2 42.9958H39.9815V39.9958H31.2V42.9958ZM39.9815 42.9958C41.4726 42.9958 42.6815 41.787 42.6815 40.2958H39.6815C39.6815 40.1301 39.8158 39.9958 39.9815 39.9958V42.9958ZM42.6815 40.2958C42.6815 38.8047 41.4726 37.5958 39.9815 37.5958V40.5958C39.8158 40.5958 39.6815 40.4615 39.6815 40.2958H42.6815ZM39.9815 37.5958H31.2V40.5958H39.9815V37.5958ZM32.7 39.0958V34.404H29.7V39.0958H32.7ZM40.982 21.979C40.982 27.6871 36.6258 32.3796 31.0576 32.9108L31.3425 35.8972C38.4354 35.2206 43.982 29.2484 43.982 21.979H40.982ZM30 10.9971C36.0652 10.9971 40.982 15.9139 40.982 21.979H43.982C43.982 14.257 37.722 7.99707 30 7.99707V10.9971Z" fill="#F8F9FA" mask="url(#path-1-outside-1_50_11845)"/>
<path d="M20.0187 40.3027H39.9814" stroke="#212529" stroke-width="2.4" stroke-linecap="round"/>
<path d="M30 30.2021V48.4448" stroke="#212529" stroke-width="2.4" stroke-linecap="round"/>
<circle cx="30" cy="21.986" r="11.2819" fill="#228BE6" stroke="#212529" stroke-width="2.4" stroke-linecap="round" stroke-linejoin="round"/>
<g style="mix-blend-mode:soft-light" opacity="0.7">
<path d="M26.2631 14.3587C25.3406 14.1601 24.2683 15.1486 23.5936 15.8956C21.6356 18.0099 22.5441 18.6328 22.7671 18.6686C22.9901 18.7044 23.754 17.7899 24.7296 16.6442C25.7051 15.4985 27.4163 14.6069 26.2631 14.3587Z" fill="#F8F9FA"/>
</g>
</svg>
