<svg width="60" height="60" viewBox="0 0 60 60" fill="none" xmlns="http://www.w3.org/2000/svg">
<mask id="path-1-outside-1_50_1768" maskUnits="userSpaceOnUse" x="9.78442" y="10.6889" width="40" height="39" fill="black">
<rect fill="white" x="9.78442" y="10.6889" width="40" height="39"/>
<path fill-rule="evenodd" clip-rule="evenodd" d="M18.1176 16.4019C17.6144 16.4019 17.2064 16.8099 17.2064 17.3131L17.2064 42.1677H13.6068L13.6068 14.1334L41.8536 14.1334V16.4019L18.1176 16.4019ZM43.676 16.4019H47.3043C47.8075 16.4019 48.2155 16.8099 48.2155 17.3131L48.2155 46.7777C48.2155 47.281 47.8075 47.6889 47.3043 47.6889L18.1176 47.6889C17.6144 47.6889 17.2064 47.281 17.2064 46.7777V43.9901H13.6068C12.6003 43.9901 11.7844 43.1742 11.7844 42.1677L11.7844 14.1334C11.7844 13.1269 12.6003 12.311 13.6068 12.311L41.8536 12.311C42.8601 12.311 43.676 13.1269 43.676 14.1334V16.4019ZM43.676 18.2243V35.8948C43.676 36.1168 43.5949 36.3312 43.448 36.4977L37.1073 43.6819C36.9344 43.8778 36.6856 43.9901 36.4242 43.9901H19.0288V45.8665L46.3931 45.8665L46.3931 18.2243H43.676ZM19.0288 42.1677H36.0131L41.8536 35.5502V18.2243L19.0288 18.2243L19.0288 42.1677Z"/>
</mask>
<path fill-rule="evenodd" clip-rule="evenodd" d="M18.1176 16.4019C17.6144 16.4019 17.2064 16.8099 17.2064 17.3131L17.2064 42.1677H13.6068L13.6068 14.1334L41.8536 14.1334V16.4019L18.1176 16.4019ZM43.676 16.4019H47.3043C47.8075 16.4019 48.2155 16.8099 48.2155 17.3131L48.2155 46.7777C48.2155 47.281 47.8075 47.6889 47.3043 47.6889L18.1176 47.6889C17.6144 47.6889 17.2064 47.281 17.2064 46.7777V43.9901H13.6068C12.6003 43.9901 11.7844 43.1742 11.7844 42.1677L11.7844 14.1334C11.7844 13.1269 12.6003 12.311 13.6068 12.311L41.8536 12.311C42.8601 12.311 43.676 13.1269 43.676 14.1334V16.4019ZM43.676 18.2243V35.8948C43.676 36.1168 43.5949 36.3312 43.448 36.4977L37.1073 43.6819C36.9344 43.8778 36.6856 43.9901 36.4242 43.9901H19.0288V45.8665L46.3931 45.8665L46.3931 18.2243H43.676ZM19.0288 42.1677H36.0131L41.8536 35.5502V18.2243L19.0288 18.2243L19.0288 42.1677Z" fill="#F8F9FA"/>
<path d="M17.2064 42.1677H18.7064C18.7064 42.9962 18.0349 43.6677 17.2064 43.6677V42.1677ZM13.6068 42.1677V43.6677C12.7784 43.6677 12.1068 42.9962 12.1068 42.1677H13.6068ZM13.6068 14.1334H12.1068C12.1068 13.305 12.7784 12.6334 13.6068 12.6334V14.1334ZM41.8536 14.1334V12.6334C42.6821 12.6334 43.3536 13.305 43.3536 14.1334H41.8536ZM41.8536 16.4019H43.3536C43.3536 17.2304 42.6821 17.9019 41.8536 17.9019V16.4019ZM43.676 16.4019V17.9019C42.8476 17.9019 42.176 17.2304 42.176 16.4019H43.676ZM17.2064 43.9901V42.4901C18.0349 42.4901 18.7064 43.1617 18.7064 43.9901H17.2064ZM43.676 18.2243H42.176C42.176 17.3959 42.8476 16.7243 43.676 16.7243V18.2243ZM43.448 36.4977L42.3234 35.5052L42.3234 35.5051L43.448 36.4977ZM37.1073 43.6819L35.9827 42.6893L35.9827 42.6893L37.1073 43.6819ZM19.0288 43.9901H17.5288C17.5288 43.1617 18.2004 42.4901 19.0288 42.4901V43.9901ZM19.0288 45.8666V47.3666C18.2004 47.3666 17.5288 46.695 17.5288 45.8666H19.0288ZM46.3931 45.8666H47.8931C47.8931 46.695 47.2215 47.3666 46.3931 47.3666V45.8666ZM46.3931 18.2243V16.7243C47.2215 16.7243 47.8931 17.3959 47.8931 18.2243H46.3931ZM36.0131 42.1677L37.1377 43.1603C36.8529 43.4829 36.4434 43.6677 36.0131 43.6677V42.1677ZM19.0288 42.1677V43.6677C18.2004 43.6677 17.5288 42.9962 17.5288 42.1677H19.0288ZM41.8536 35.5502H43.3536C43.3536 35.9157 43.2202 36.2687 42.9783 36.5428L41.8536 35.5502ZM41.8536 18.2243L41.8536 16.7243C42.6821 16.7243 43.3536 17.3959 43.3536 18.2243H41.8536ZM19.0288 18.2243H17.5288C17.5288 17.8265 17.6869 17.445 17.9682 17.1637C18.2495 16.8823 18.631 16.7243 19.0288 16.7243L19.0288 18.2243ZM15.7064 17.3131C15.7064 15.9815 16.786 14.9019 18.1176 14.9019V17.9019C18.4428 17.9019 18.7064 17.6383 18.7064 17.3131H15.7064ZM15.7064 42.1677L15.7064 17.3131H18.7064L18.7064 42.1677H15.7064ZM17.2064 43.6677H13.6068V40.6677H17.2064V43.6677ZM12.1068 42.1677L12.1068 14.1334H15.1068L15.1068 42.1677H12.1068ZM13.6068 12.6334L41.8536 12.6334V15.6334L13.6068 15.6334V12.6334ZM43.3536 14.1334V16.4019H40.3536V14.1334L43.3536 14.1334ZM18.1176 14.9019L41.8536 14.9019V17.9019L18.1176 17.9019V14.9019ZM43.676 14.9019H47.3043V17.9019H43.676V14.9019ZM47.3043 14.9019C48.6359 14.9019 49.7155 15.9815 49.7155 17.3131H46.7155C46.7155 17.6383 46.9791 17.9019 47.3043 17.9019V14.9019ZM49.7155 17.3131L49.7155 46.7777H46.7155L46.7155 17.3131H49.7155ZM49.7155 46.7777C49.7155 48.1094 48.6359 49.1889 47.3043 49.1889V46.1889C46.9791 46.1889 46.7155 46.4526 46.7155 46.7777H49.7155ZM47.3043 49.1889L18.1176 49.1889V46.1889L47.3043 46.1889V49.1889ZM18.1176 49.1889C16.786 49.1889 15.7064 48.1094 15.7064 46.7777H18.7064C18.7064 46.4526 18.4428 46.1889 18.1176 46.1889V49.1889ZM15.7064 46.7777V43.9901H18.7064V46.7777H15.7064ZM13.6068 42.4901H17.2064V45.4901H13.6068V42.4901ZM13.2844 42.1677C13.2844 42.3458 13.4288 42.4901 13.6068 42.4901V45.4901C11.7719 45.4901 10.2844 44.0026 10.2844 42.1677H13.2844ZM13.2844 14.1334L13.2844 42.1677H10.2844L10.2844 14.1334H13.2844ZM13.6068 13.811C13.4288 13.811 13.2844 13.9554 13.2844 14.1334H10.2844C10.2844 12.2985 11.7719 10.811 13.6068 10.811V13.811ZM41.8536 13.811L13.6068 13.811V10.811L41.8536 10.811V13.811ZM42.176 14.1334C42.176 13.9554 42.0317 13.811 41.8536 13.811V10.811C43.6885 10.811 45.176 12.2985 45.176 14.1334H42.176ZM42.176 16.4019V14.1334H45.176V16.4019H42.176ZM42.176 35.8948V18.2243H45.176L45.176 35.8948H42.176ZM42.3234 35.5051C42.2284 35.6127 42.176 35.7513 42.176 35.8948H45.176C45.176 36.4824 44.9615 37.0498 44.5726 37.4903L42.3234 35.5051ZM35.9827 42.6893L42.3234 35.5052L44.5726 37.4903L38.232 44.6745L35.9827 42.6893ZM36.4242 42.4901C36.2553 42.4901 36.0945 42.5627 35.9827 42.6893L38.232 44.6745C37.7743 45.1931 37.1159 45.4901 36.4242 45.4901V42.4901ZM19.0288 42.4901H36.4242V45.4901H19.0288V42.4901ZM20.5288 43.9901V45.8666H17.5288V43.9901H20.5288ZM19.0288 44.3666L46.3931 44.3666V47.3666L19.0288 47.3666V44.3666ZM44.8931 45.8666L44.8931 18.2243H47.8931L47.8931 45.8666H44.8931ZM46.3931 19.7243H43.676V16.7243H46.3931L46.3931 19.7243ZM36.0131 43.6677H19.0288V40.6677H36.0131V43.6677ZM42.9783 36.5428L37.1377 43.1603L34.8884 41.1752L40.729 34.5576L42.9783 36.5428ZM43.3536 18.2243V35.5502H40.3536V18.2243H43.3536ZM41.8536 19.7243L19.0288 19.7243L19.0288 16.7243L41.8536 16.7243L41.8536 19.7243ZM20.5288 18.2243L20.5288 42.1677H17.5288L17.5288 18.2243H20.5288Z" fill="#F8F9FA" mask="url(#path-1-outside-1_50_1768)"/>
<rect x="18.1177" y="17.3132" width="29.1867" height="29.4646" fill="#FFE066" stroke="#212529" stroke-width="1.8" stroke-linejoin="round"/>
<g style="mix-blend-mode:multiply">
<path d="M37.5563 44.9896H18.1664V42.6827H35.7766L41.1815 35.6299V18.2287H44.9473V36.6186L37.5563 44.9896Z" fill="#DEE2E6"/>
</g>
<path fill-rule="evenodd" clip-rule="evenodd" d="M12.6957 42.0789C12.6957 42.6312 13.1434 43.0789 13.6957 43.0789H36.4242L42.7649 35.8948V14.2222C42.7649 13.67 42.3172 13.2222 41.7649 13.2222L13.6957 13.2222C13.1434 13.2222 12.6957 13.67 12.6957 14.2222L12.6957 42.0789Z" fill="#FFE066" stroke="#212529" stroke-width="1.8" stroke-linejoin="round"/>
<path fill-rule="evenodd" clip-rule="evenodd" d="M41.8168 35.5518H35.6652V42.6613" fill="#FFD43B"/>
<path d="M41.8168 35.5518H35.6652V42.6613" stroke="#212529" stroke-width="1.6" stroke-linecap="round" stroke-linejoin="round"/>
<path fill-rule="evenodd" clip-rule="evenodd" d="M19.3136 20.2731H31.7997Z" fill="#FFE066"/>
<path d="M19.3136 20.2731H31.7997" stroke="#212529" stroke-width="1.6" stroke-linecap="round" stroke-linejoin="round"/>
<path fill-rule="evenodd" clip-rule="evenodd" d="M19.1664 25.0441H29.416Z" fill="#FFE066"/>
<path d="M19.1664 25.0441H29.416" stroke="#212529" stroke-width="1.6" stroke-linecap="round" stroke-linejoin="round"/>
</svg>
