<svg width="60" height="58" viewBox="0 0 60 58" fill="none" xmlns="http://www.w3.org/2000/svg">
<mask id="path-1-outside-1_50_9682" maskUnits="userSpaceOnUse" x="5.73364" y="8.30273" width="49" height="41" fill="black">
<rect fill="white" x="5.73364" y="8.30273" width="49" height="41"/>
<path fill-rule="evenodd" clip-rule="evenodd" d="M27.5726 10.896C25.7409 10.2589 23.2191 10.1969 20.996 10.42C19.8722 10.5328 18.7947 10.7214 17.8815 10.9609C16.9984 11.1926 16.1985 11.4896 15.6687 11.8554C11.9531 14.2018 7.78846 18.7625 7.30482 26.7425C7.00241 31.7323 8.51472 34.4859 10.6183 35.867C12.655 37.2042 15.0372 37.1099 16.235 36.8703C16.847 36.7479 18.4332 36.2436 20.4422 35.5225C21.3876 35.1832 22.439 34.7913 23.5464 34.3602C23.6263 34.5434 23.7073 34.7283 23.7889 34.9142L23.8443 35.0405C24.3538 36.2012 24.8813 37.4031 25.2823 38.506C25.7035 39.6644 25.9586 40.6458 25.9397 41.3257C25.8847 43.3065 26.1812 44.9947 26.9676 46.1441C27.3668 46.7276 27.8915 47.17 28.5473 47.4307C29.1996 47.6901 29.9536 47.7587 30.7991 47.6421C31.6623 47.523 32.3453 47.2128 32.8702 46.7552C33.3928 46.2997 33.7333 45.7205 33.9497 45.1011C34.377 43.8781 34.3399 42.4407 34.2307 41.294C34.1687 40.6432 33.7863 39.5584 33.2701 38.34C32.744 37.0981 32.0494 35.6514 31.3158 34.2453C30.8503 33.3531 30.3675 32.4743 29.9003 31.6718C30.3729 31.4527 30.8399 31.2309 31.2977 31.0071C31.1077 31.7047 31.0852 32.4264 31.4001 33.0804C31.6292 33.5563 32.0548 33.9923 32.5293 34.3804C33.018 34.7802 33.6263 35.183 34.3005 35.5783C35.1744 36.0906 36.1859 36.6056 37.2424 37.0997C36.9751 37.5669 36.7029 38.0661 36.4393 38.5715C35.9529 39.5036 35.4918 40.4638 35.142 41.2895C34.8021 42.0918 34.5388 42.8308 34.4952 43.2894C34.4226 44.0514 34.3946 45.0309 34.6891 45.8738C34.8391 46.3032 35.0777 46.7118 35.4486 47.035C35.8218 47.3604 36.3034 47.5768 36.901 47.6592C37.4809 47.7392 38.0082 47.6935 38.4705 47.5097C38.9363 47.3245 39.3075 47.0103 39.5877 46.6008C40.136 45.7995 40.3317 44.6424 40.295 43.3211C40.2835 42.9049 40.4418 42.2816 40.72 41.5166C40.9832 40.7926 41.33 40.0024 41.6674 39.2336L41.7032 39.1521C41.7233 39.1063 41.7434 39.0606 41.7634 39.0149C42.4463 39.2794 43.0948 39.5206 43.6817 39.7312C45.0058 40.2064 46.0725 40.5469 46.4989 40.6322C47.3256 40.7975 48.978 40.8671 50.4024 39.9319C51.8937 38.9528 52.9112 37.028 52.7078 33.671C52.3824 28.3031 49.5765 25.2202 47.0648 23.6326C46.6769 23.3661 46.115 23.1619 45.526 23.0074C44.9076 22.8452 44.182 22.7184 43.428 22.6427C41.9482 22.4942 40.2425 22.531 38.9808 22.967C38.8501 22.4277 38.6428 21.8861 38.3907 21.3602C37.686 19.89 36.5397 18.3467 35.2557 16.9232C33.967 15.4944 32.5121 14.156 31.161 13.0971C29.8287 12.0529 28.5347 11.2307 27.5726 10.896ZM40.8827 38.6682C40.8676 38.7027 40.8524 38.7374 40.8372 38.7721L40.7964 38.865C40.463 39.6245 40.1052 40.4398 39.8312 41.1934C39.5516 41.9624 39.3327 42.7351 39.3497 43.3473C39.3844 44.597 39.1874 45.5111 38.8072 46.0668C38.6232 46.3357 38.3963 46.5215 38.1211 46.6309C37.8424 46.7416 37.4859 46.7852 37.0302 46.7224C36.5923 46.662 36.2882 46.5123 36.07 46.3221C35.8495 46.1299 35.6908 45.8734 35.5819 45.5618C35.3586 44.9228 35.3664 44.1168 35.4366 43.379C35.4644 43.0877 35.6653 42.4787 36.0128 41.6584C36.3504 40.8616 36.7999 39.9247 37.2777 39.0089C37.5511 38.4849 37.8325 37.9702 38.106 37.4948C38.4008 37.6269 38.697 37.7568 38.9929 37.8843C39.6283 38.1579 40.2643 38.4208 40.8827 38.6682ZM38.9023 36.1932C39.131 36.2947 39.3609 36.3952 39.5914 36.4945C40.2234 36.7667 40.8566 37.0283 41.472 37.2742C41.5527 37.0678 41.6231 36.8752 41.6802 36.6991C41.7712 36.4186 41.8174 36.2117 41.8264 36.0741C41.8278 36.0517 41.8282 36.0338 41.828 36.0198C41.3934 35.6929 40.9647 35.3942 40.5654 35.229C40.15 35.0571 39.8763 35.0719 39.6687 35.2202C39.6057 35.2652 39.4812 35.3917 39.2981 35.6312C39.1785 35.7877 39.0455 35.9768 38.9023 36.1932ZM38.0308 35.7977C38.213 35.5171 38.387 35.2659 38.5467 35.057C38.7352 34.8103 38.932 34.5842 39.119 34.4506C39.7113 34.0275 40.3766 34.1274 40.927 34.3551C41.4734 34.5812 42.0143 34.9745 42.4646 35.3154C42.7649 35.5427 42.7849 35.9092 42.7701 36.1358C42.7533 36.392 42.678 36.6879 42.5799 36.9907C42.5166 37.186 42.4392 37.3974 42.3521 37.6202C43.0069 37.8734 43.629 38.1046 44.1929 38.307C45.5396 38.7904 46.4986 39.089 46.7956 39.1484C47.4158 39.2724 48.609 39.2992 49.572 38.667C50.4681 38.0786 51.3798 36.772 51.1974 33.7626C50.906 28.9544 48.4231 26.277 46.2439 24.9038L46.2283 24.894L46.2131 24.8834C46.0507 24.7696 45.6939 24.6158 45.1421 24.471C44.6113 24.3318 43.9648 24.2174 43.2769 24.1483C41.8767 24.0078 40.4243 24.067 39.4684 24.3995C39.3653 24.4354 39.2458 24.4875 39.1119 24.5551C39.0725 24.9357 38.9745 25.3054 38.8052 25.6571C38.4956 26.3 37.9046 26.9161 37.2007 27.4919C36.4826 28.0794 35.5809 28.6774 34.5703 29.2698C34.2208 29.4747 33.8564 29.68 33.4797 29.885C33.3087 30.1544 33.1602 30.418 33.0383 30.6722C32.6288 31.5266 32.6043 32.0935 32.7634 32.424C32.8478 32.5992 33.0673 32.8656 33.4873 33.2092C33.8931 33.5411 34.4288 33.8995 35.0658 34.2729C35.9299 34.7794 36.9512 35.2968 38.0308 35.7977ZM29.112 30.3692C30.2742 29.8333 31.3969 29.2832 32.4268 28.7336C32.8257 28.1503 33.2926 27.5724 33.7868 27.0246C34.6487 26.0689 35.6212 25.1742 36.5255 24.4655C36.8833 24.1851 37.2407 23.9256 37.5842 23.7004C37.5137 23.2143 37.3318 22.6517 37.0262 22.0143C36.4084 20.7255 35.3656 19.3043 34.1321 17.9367C32.9034 16.5744 31.5125 15.2951 30.2276 14.2881C28.9238 13.2663 27.7916 12.5743 27.0754 12.3252C25.5505 11.7948 23.2868 11.7109 21.1471 11.9256C20.0894 12.0317 19.091 12.208 18.2655 12.4246C17.4189 12.6466 16.8244 12.8932 16.5208 13.1059L16.5057 13.1166L16.49 13.1264C13.1069 15.2583 9.26496 19.4134 8.81522 26.8341C8.53387 31.4763 9.94034 33.6117 11.4488 34.6021C13.024 35.6364 14.947 35.5848 15.9383 35.3865C16.4209 35.29 17.8994 34.8275 19.9311 34.0983C20.8527 33.7675 21.8768 33.386 22.9551 32.9667C22.7652 32.4993 22.5988 32.0605 22.4711 31.6666C22.3245 31.2143 22.218 30.7894 22.1947 30.4323C22.1732 30.1047 22.2112 29.6652 22.5612 29.4002C23.2442 28.8832 24.0397 28.3067 24.8339 27.9781C25.632 27.6478 26.5381 27.5262 27.3355 28.0958C27.5866 28.2752 27.8659 28.5917 28.1497 28.9631C28.4416 29.345 28.7679 29.8251 29.112 30.3692ZM29.0358 32.0668C29.5086 32.8752 30.0012 33.7701 30.4773 34.6827C31.2024 36.0725 31.8854 37.4959 32.3993 38.7089C32.9231 39.9453 33.2431 40.9 33.2892 41.3837C33.3961 42.5061 33.413 43.77 33.0569 44.7891C32.8816 45.2907 32.6211 45.7178 32.2488 46.0423C31.8789 46.3647 31.3734 46.6082 30.6698 46.7052C29.9485 46.8047 29.3654 46.7383 28.8967 46.5519C28.4314 46.3669 28.0511 46.053 27.7481 45.61C27.1298 44.7064 26.832 43.2611 26.885 41.352C26.9094 40.476 26.5937 39.3452 26.1711 38.1828C25.7593 37.0504 25.2208 35.8234 24.7155 34.6721L24.7154 34.6721L24.7154 34.672L24.7154 34.672L24.6549 34.5342C24.5778 34.3584 24.5017 34.1847 24.4271 34.0137C25.4339 33.6133 26.4745 33.1846 27.5138 32.737C28.0221 32.5181 28.5309 32.2943 29.0358 32.0668ZM23.8353 32.6206C24.8397 32.2214 25.8784 31.7938 26.9153 31.3472C27.3595 31.1559 27.8029 30.9614 28.2426 30.7643C27.9338 30.2806 27.6483 29.8645 27.3983 29.5374C27.1199 29.1731 26.9129 28.9562 26.7858 28.8654C26.3731 28.5706 25.8585 28.5776 25.1954 28.852C24.5347 29.1253 23.8355 29.6223 23.152 30.1391C23.1449 30.1594 23.1287 30.2231 23.1384 30.3705C23.154 30.6091 23.2313 30.945 23.3707 31.375C23.4915 31.7474 23.6506 32.1667 23.8353 32.6206ZM41.824 35.9767C41.8241 35.9766 41.8248 35.9786 41.8255 35.9833C41.8246 35.9805 41.8241 35.9785 41.824 35.9774C41.8239 35.977 41.8239 35.9768 41.824 35.9767Z"/>
</mask>
<path fill-rule="evenodd" clip-rule="evenodd" d="M27.5726 10.896C25.7409 10.2589 23.2191 10.1969 20.996 10.42C19.8722 10.5328 18.7947 10.7214 17.8815 10.9609C16.9984 11.1926 16.1985 11.4896 15.6687 11.8554C11.9531 14.2018 7.78846 18.7625 7.30482 26.7425C7.00241 31.7323 8.51472 34.4859 10.6183 35.867C12.655 37.2042 15.0372 37.1099 16.235 36.8703C16.847 36.7479 18.4332 36.2436 20.4422 35.5225C21.3876 35.1832 22.439 34.7913 23.5464 34.3602C23.6263 34.5434 23.7073 34.7283 23.7889 34.9142L23.8443 35.0405C24.3538 36.2012 24.8813 37.4031 25.2823 38.506C25.7035 39.6644 25.9586 40.6458 25.9397 41.3257C25.8847 43.3065 26.1812 44.9947 26.9676 46.1441C27.3668 46.7276 27.8915 47.17 28.5473 47.4307C29.1996 47.6901 29.9536 47.7587 30.7991 47.6421C31.6623 47.523 32.3453 47.2128 32.8702 46.7552C33.3928 46.2997 33.7333 45.7205 33.9497 45.1011C34.377 43.8781 34.3399 42.4407 34.2307 41.294C34.1687 40.6432 33.7863 39.5584 33.2701 38.34C32.744 37.0981 32.0494 35.6514 31.3158 34.2453C30.8503 33.3531 30.3675 32.4743 29.9003 31.6718C30.3729 31.4527 30.8399 31.2309 31.2977 31.0071C31.1077 31.7047 31.0852 32.4264 31.4001 33.0804C31.6292 33.5563 32.0548 33.9923 32.5293 34.3804C33.018 34.7802 33.6263 35.183 34.3005 35.5783C35.1744 36.0906 36.1859 36.6056 37.2424 37.0997C36.9751 37.5669 36.7029 38.0661 36.4393 38.5715C35.9529 39.5036 35.4918 40.4638 35.142 41.2895C34.8021 42.0918 34.5388 42.8308 34.4952 43.2894C34.4226 44.0514 34.3946 45.0309 34.6891 45.8738C34.8391 46.3032 35.0777 46.7118 35.4486 47.035C35.8218 47.3604 36.3034 47.5768 36.901 47.6592C37.4809 47.7392 38.0082 47.6935 38.4705 47.5097C38.9363 47.3245 39.3075 47.0103 39.5877 46.6008C40.136 45.7995 40.3317 44.6424 40.295 43.3211C40.2835 42.9049 40.4418 42.2816 40.72 41.5166C40.9832 40.7926 41.33 40.0024 41.6674 39.2336L41.7032 39.1521C41.7233 39.1063 41.7434 39.0606 41.7634 39.0149C42.4463 39.2794 43.0948 39.5206 43.6817 39.7312C45.0058 40.2064 46.0725 40.5469 46.4989 40.6322C47.3256 40.7975 48.978 40.8671 50.4024 39.9319C51.8937 38.9528 52.9112 37.028 52.7078 33.671C52.3824 28.3031 49.5765 25.2202 47.0648 23.6326C46.6769 23.3661 46.115 23.1619 45.526 23.0074C44.9076 22.8452 44.182 22.7184 43.428 22.6427C41.9482 22.4942 40.2425 22.531 38.9808 22.967C38.8501 22.4277 38.6428 21.8861 38.3907 21.3602C37.686 19.89 36.5397 18.3467 35.2557 16.9232C33.967 15.4944 32.5121 14.156 31.161 13.0971C29.8287 12.0529 28.5347 11.2307 27.5726 10.896ZM40.8827 38.6682C40.8676 38.7027 40.8524 38.7374 40.8372 38.7721L40.7964 38.865C40.463 39.6245 40.1052 40.4398 39.8312 41.1934C39.5516 41.9624 39.3327 42.7351 39.3497 43.3473C39.3844 44.597 39.1874 45.5111 38.8072 46.0668C38.6232 46.3357 38.3963 46.5215 38.1211 46.6309C37.8424 46.7416 37.4859 46.7852 37.0302 46.7224C36.5923 46.662 36.2882 46.5123 36.07 46.3221C35.8495 46.1299 35.6908 45.8734 35.5819 45.5618C35.3586 44.9228 35.3664 44.1168 35.4366 43.379C35.4644 43.0877 35.6653 42.4787 36.0128 41.6584C36.3504 40.8616 36.7999 39.9247 37.2777 39.0089C37.5511 38.4849 37.8325 37.9702 38.106 37.4948C38.4008 37.6269 38.697 37.7568 38.9929 37.8843C39.6283 38.1579 40.2643 38.4208 40.8827 38.6682ZM38.9023 36.1932C39.131 36.2947 39.3609 36.3952 39.5914 36.4945C40.2234 36.7667 40.8566 37.0283 41.472 37.2742C41.5527 37.0678 41.6231 36.8752 41.6802 36.6991C41.7712 36.4186 41.8174 36.2117 41.8264 36.0741C41.8278 36.0517 41.8282 36.0338 41.828 36.0198C41.3934 35.6929 40.9647 35.3942 40.5654 35.229C40.15 35.0571 39.8763 35.0719 39.6687 35.2202C39.6057 35.2652 39.4812 35.3917 39.2981 35.6312C39.1785 35.7877 39.0455 35.9768 38.9023 36.1932ZM38.0308 35.7977C38.213 35.5171 38.387 35.2659 38.5467 35.057C38.7352 34.8103 38.932 34.5842 39.119 34.4506C39.7113 34.0275 40.3766 34.1274 40.927 34.3551C41.4734 34.5812 42.0143 34.9745 42.4646 35.3154C42.7649 35.5427 42.7849 35.9092 42.7701 36.1358C42.7533 36.392 42.678 36.6879 42.5799 36.9907C42.5166 37.186 42.4392 37.3974 42.3521 37.6202C43.0069 37.8734 43.629 38.1046 44.1929 38.307C45.5396 38.7904 46.4986 39.089 46.7956 39.1484C47.4158 39.2724 48.609 39.2992 49.572 38.667C50.4681 38.0786 51.3798 36.772 51.1974 33.7626C50.906 28.9544 48.4231 26.277 46.2439 24.9038L46.2283 24.894L46.2131 24.8834C46.0507 24.7696 45.6939 24.6158 45.1421 24.471C44.6113 24.3318 43.9648 24.2174 43.2769 24.1483C41.8767 24.0078 40.4243 24.067 39.4684 24.3995C39.3653 24.4354 39.2458 24.4875 39.1119 24.5551C39.0725 24.9357 38.9745 25.3054 38.8052 25.6571C38.4956 26.3 37.9046 26.9161 37.2007 27.4919C36.4826 28.0794 35.5809 28.6774 34.5703 29.2698C34.2208 29.4747 33.8564 29.68 33.4797 29.885C33.3087 30.1544 33.1602 30.418 33.0383 30.6722C32.6288 31.5266 32.6043 32.0935 32.7634 32.424C32.8478 32.5992 33.0673 32.8656 33.4873 33.2092C33.8931 33.5411 34.4288 33.8995 35.0658 34.2729C35.9299 34.7794 36.9512 35.2968 38.0308 35.7977ZM29.112 30.3692C30.2742 29.8333 31.3969 29.2832 32.4268 28.7336C32.8257 28.1503 33.2926 27.5724 33.7868 27.0246C34.6487 26.0689 35.6212 25.1742 36.5255 24.4655C36.8833 24.1851 37.2407 23.9256 37.5842 23.7004C37.5137 23.2143 37.3318 22.6517 37.0262 22.0143C36.4084 20.7255 35.3656 19.3043 34.1321 17.9367C32.9034 16.5744 31.5125 15.2951 30.2276 14.2881C28.9238 13.2663 27.7916 12.5743 27.0754 12.3252C25.5505 11.7948 23.2868 11.7109 21.1471 11.9256C20.0894 12.0317 19.091 12.208 18.2655 12.4246C17.4189 12.6466 16.8244 12.8932 16.5208 13.1059L16.5057 13.1166L16.49 13.1264C13.1069 15.2583 9.26496 19.4134 8.81522 26.8341C8.53387 31.4763 9.94034 33.6117 11.4488 34.6021C13.024 35.6364 14.947 35.5848 15.9383 35.3865C16.4209 35.29 17.8994 34.8275 19.9311 34.0983C20.8527 33.7675 21.8768 33.386 22.9551 32.9667C22.7652 32.4993 22.5988 32.0605 22.4711 31.6666C22.3245 31.2143 22.218 30.7894 22.1947 30.4323C22.1732 30.1047 22.2112 29.6652 22.5612 29.4002C23.2442 28.8832 24.0397 28.3067 24.8339 27.9781C25.632 27.6478 26.5381 27.5262 27.3355 28.0958C27.5866 28.2752 27.8659 28.5917 28.1497 28.9631C28.4416 29.345 28.7679 29.8251 29.112 30.3692ZM29.0358 32.0668C29.5086 32.8752 30.0012 33.7701 30.4773 34.6827C31.2024 36.0725 31.8854 37.4959 32.3993 38.7089C32.9231 39.9453 33.2431 40.9 33.2892 41.3837C33.3961 42.5061 33.413 43.77 33.0569 44.7891C32.8816 45.2907 32.6211 45.7178 32.2488 46.0423C31.8789 46.3647 31.3734 46.6082 30.6698 46.7052C29.9485 46.8047 29.3654 46.7383 28.8967 46.5519C28.4314 46.3669 28.0511 46.053 27.7481 45.61C27.1298 44.7064 26.832 43.2611 26.885 41.352C26.9094 40.476 26.5937 39.3452 26.1711 38.1828C25.7593 37.0504 25.2208 35.8234 24.7155 34.6721L24.7154 34.6721L24.7154 34.672L24.7154 34.672L24.6549 34.5342C24.5778 34.3584 24.5017 34.1847 24.4271 34.0137C25.4339 33.6133 26.4745 33.1846 27.5138 32.737C28.0221 32.5181 28.5309 32.2943 29.0358 32.0668ZM23.8353 32.6206C24.8397 32.2214 25.8784 31.7938 26.9153 31.3472C27.3595 31.1559 27.8029 30.9614 28.2426 30.7643C27.9338 30.2806 27.6483 29.8645 27.3983 29.5374C27.1199 29.1731 26.9129 28.9562 26.7858 28.8654C26.3731 28.5706 25.8585 28.5776 25.1954 28.852C24.5347 29.1253 23.8355 29.6223 23.152 30.1391C23.1449 30.1594 23.1287 30.2231 23.1384 30.3705C23.154 30.6091 23.2313 30.945 23.3707 31.375C23.4915 31.7474 23.6506 32.1667 23.8353 32.6206ZM41.824 35.9767C41.8241 35.9766 41.8248 35.9786 41.8255 35.9833C41.8246 35.9805 41.8241 35.9785 41.824 35.9774C41.8239 35.977 41.8239 35.9768 41.824 35.9767Z" fill="#F8F9FA"/>
<path d="M20.996 10.4201L20.8462 8.92755L20.8462 8.92755L20.996 10.4201ZM27.5726 10.8961L28.0654 9.47936L28.0654 9.47936L27.5726 10.8961ZM17.8815 10.961L17.501 9.51005L17.501 9.51005L17.8815 10.961ZM15.6687 11.8555L16.5211 13.0898C16.5042 13.1014 16.487 13.1128 16.4696 13.1238L15.6687 11.8555ZM7.30482 26.7426L8.80207 26.8333L8.80207 26.8333L7.30482 26.7426ZM10.6183 35.867L11.4415 34.6132L11.4415 34.6132L10.6183 35.867ZM16.235 36.8704L15.9409 35.3995L15.9409 35.3995L16.235 36.8704ZM20.4422 35.5226L19.9355 34.1107L19.9355 34.1107L20.4422 35.5226ZM23.5464 34.3603L23.0023 32.9625C23.7526 32.6704 24.5997 33.0228 24.9214 33.7608L23.5464 34.3603ZM23.7889 34.9142L22.4153 35.517L22.4153 35.517L23.7889 34.9142ZM23.8443 35.0405L22.4708 35.6434L22.4708 35.6433L23.8443 35.0405ZM25.2823 38.5061L23.8726 39.0186L23.8726 39.0186L25.2823 38.5061ZM25.9397 41.3258L24.4403 41.2841L24.4403 41.2841L25.9397 41.3258ZM26.9676 46.1441L28.2055 45.2971L28.2055 45.2971L26.9676 46.1441ZM28.5473 47.4308L29.1015 46.0369L29.1015 46.0369L28.5473 47.4308ZM30.7991 47.6422L30.5941 46.1562L30.5941 46.1562L30.7991 47.6422ZM32.8702 46.7552L31.8846 45.6245L31.8846 45.6245L32.8702 46.7552ZM33.9497 45.1011L35.3658 45.5959L35.3658 45.5959L33.9497 45.1011ZM34.2307 41.2941L35.7239 41.1519L35.7239 41.1519L34.2307 41.2941ZM33.2701 38.34L31.889 38.9252L31.889 38.9251L33.2701 38.34ZM31.3158 34.2453L29.9859 34.9392L29.9859 34.9392L31.3158 34.2453ZM29.9003 31.6719L28.604 32.4267C28.3916 32.0619 28.3428 31.6245 28.4694 31.2219C28.596 30.8192 28.8865 30.4886 29.2694 30.311L29.9003 31.6719ZM31.2977 31.0072L30.6391 29.6595C31.1684 29.4009 31.7999 29.476 32.2538 29.8514C32.7077 30.2268 32.8998 30.8332 32.745 31.4015L31.2977 31.0072ZM31.4001 33.0805L30.0486 33.7312L30.0486 33.7312L31.4001 33.0805ZM32.5293 34.3805L33.479 33.2194L33.479 33.2194L32.5293 34.3805ZM34.3005 35.5783L35.0591 34.2843L35.0591 34.2843L34.3005 35.5783ZM37.2424 37.0998L37.8779 35.741C38.2576 35.9187 38.5457 36.2471 38.6723 36.6467C38.7989 37.0464 38.7525 37.4808 38.5443 37.8447L37.2424 37.0998ZM36.4393 38.5715L35.1094 37.8777L35.1094 37.8777L36.4393 38.5715ZM35.142 41.2896L33.7609 40.7044L33.7609 40.7044L35.142 41.2896ZM34.4952 43.2894L35.9884 43.4316L35.9884 43.4316L34.4952 43.2894ZM34.6891 45.8738L36.1052 45.3791L36.1052 45.3791L34.6891 45.8738ZM35.4486 47.0351L36.4342 45.9044L36.4342 45.9044L35.4486 47.0351ZM36.901 47.6593L36.6961 49.1452L36.696 49.1452L36.901 47.6593ZM38.4705 47.5097L37.9163 46.1159L37.9163 46.1159L38.4705 47.5097ZM39.5877 46.6009L40.8257 47.4479L40.8257 47.4479L39.5877 46.6009ZM40.295 43.3211L38.7956 43.3628L38.7956 43.3628L40.295 43.3211ZM40.72 41.5166L42.1297 42.0292L42.1297 42.0292L40.72 41.5166ZM41.6674 39.2336L43.041 39.8364L43.041 39.8365L41.6674 39.2336ZM41.7032 39.1522L43.0768 39.7549L43.0767 39.755L41.7032 39.1522ZM41.7634 39.0149L40.3895 38.4128C40.7119 37.6773 41.5563 37.3262 42.3051 37.6162L41.7634 39.0149ZM43.6817 39.7313L44.1885 38.3194L44.1885 38.3195L43.6817 39.7313ZM46.4989 40.6322L46.7931 39.1613L46.7931 39.1613L46.4989 40.6322ZM50.4024 39.9319L51.2257 41.1858L51.2257 41.1858L50.4024 39.9319ZM52.7078 33.6711L51.2105 33.7618L52.7078 33.6711ZM47.0648 23.6327L46.2634 24.9006C46.2472 24.8904 46.2312 24.8799 46.2155 24.869L47.0648 23.6327ZM45.526 23.0074L45.1454 24.4584L45.1454 24.4584L45.526 23.0074ZM43.428 22.6428L43.5778 21.1503L43.5778 21.1503L43.428 22.6428ZM38.9808 22.9671L39.4708 24.3848C39.0714 24.5229 38.6323 24.486 38.2615 24.2834C37.8906 24.0807 37.6225 23.7311 37.523 23.3204L38.9808 22.9671ZM38.3907 21.3603L37.0381 22.0087L37.0381 22.0087L38.3907 21.3603ZM35.2557 16.9233L34.1419 17.9279L34.1419 17.9279L35.2557 16.9233ZM31.161 13.0971L32.0863 11.9165L32.0863 11.9165L31.161 13.0971ZM40.8827 38.6683L41.4399 37.2756C41.8171 37.4265 42.117 37.724 42.2709 38.1C42.4248 38.476 42.4196 38.8984 42.2565 39.2705L40.8827 38.6683ZM40.8372 38.7722L42.2107 39.3749L42.2107 39.375L40.8372 38.7722ZM40.7964 38.8651L42.1699 39.4679L42.1699 39.468L40.7964 38.8651ZM39.8312 41.1935L38.4215 40.6809L38.4215 40.6809L39.8312 41.1935ZM39.3497 43.3474L40.8491 43.3057L40.8491 43.3057L39.3497 43.3474ZM38.8072 46.0668L37.5692 45.2198L37.5692 45.2198L38.8072 46.0668ZM38.1211 46.6309L38.6753 48.0248L38.6753 48.0248L38.1211 46.6309ZM37.0302 46.7224L37.2352 45.2365L37.2352 45.2365L37.0302 46.7224ZM36.07 46.3222L35.0844 47.4529L35.0844 47.4529L36.07 46.3222ZM35.5819 45.5619L34.1659 46.0567L34.1659 46.0567L35.5819 45.5619ZM35.4366 43.3791L33.9434 43.2369L33.9434 43.2369L35.4366 43.3791ZM36.0128 41.6585L34.6317 41.0733L34.6317 41.0733L36.0128 41.6585ZM37.2777 39.009L35.9478 38.3151L35.9478 38.3151L37.2777 39.009ZM38.106 37.4949L36.8058 36.7469C37.1897 36.0796 38.0166 35.8112 38.7192 36.126L38.106 37.4949ZM38.9929 37.8843L38.3996 39.262L38.3996 39.262L38.9929 37.8843ZM38.9023 36.1932L38.2935 37.5641C37.8901 37.385 37.5862 37.0373 37.4625 36.6137C37.3388 36.1901 37.4079 35.7334 37.6514 35.3654L38.9023 36.1932ZM39.5914 36.4945L38.9981 37.8722L38.9981 37.8722L39.5914 36.4945ZM41.472 37.2742L42.8689 37.8208C42.7232 38.193 42.435 38.4917 42.0683 38.6506C41.7015 38.8095 41.2865 38.8155 40.9153 38.6671L41.472 37.2742ZM41.6802 36.6991L43.1071 37.1617L43.1071 37.1617L41.6802 36.6991ZM41.8264 36.0741L43.3232 36.1721L43.3232 36.1721L41.8264 36.0741ZM41.828 36.0199L42.7296 34.821C43.1004 35.0999 43.3213 35.5348 43.3279 35.9988L41.828 36.0199ZM40.5654 35.229L41.1389 33.843L41.1389 33.843L40.5654 35.229ZM39.6687 35.2202L38.7968 33.9996L38.7968 33.9996L39.6687 35.2202ZM39.2981 35.6313L40.4899 36.5421L40.4899 36.5421L39.2981 35.6313ZM38.5467 35.057L37.3548 34.1462L37.3548 34.1462L38.5467 35.057ZM38.0308 35.7978L39.2889 36.6146C38.8822 37.2409 38.0768 37.4727 37.3995 37.1584L38.0308 35.7978ZM39.119 34.4507L38.2471 33.2301L38.2471 33.2301L39.119 34.4507ZM40.927 34.3552L40.3535 35.7412L40.3535 35.7412L40.927 34.3552ZM42.4646 35.3154L41.5592 36.5114L41.5592 36.5114L42.4646 35.3154ZM42.7701 36.1359L44.2669 36.2338L44.2669 36.2338L42.7701 36.1359ZM42.5799 36.9907L44.0068 37.4533L44.0068 37.4533L42.5799 36.9907ZM42.3521 37.6202L41.8111 39.0193C41.4391 38.8754 41.1397 38.5893 40.9791 38.2243C40.8184 37.8592 40.8098 37.4452 40.9552 37.0737L42.3521 37.6202ZM44.1929 38.3071L43.6862 39.7189L43.6862 39.7189L44.1929 38.3071ZM46.7956 39.1484L46.5015 40.6193L46.5015 40.6193L46.7956 39.1484ZM49.572 38.6671L48.7487 37.4132L48.7487 37.4132L49.572 38.6671ZM51.1974 33.7626L52.6946 33.6719L52.6946 33.6719L51.1974 33.7626ZM46.2439 24.9039L45.4442 26.1729L45.4442 26.1729L46.2439 24.9039ZM46.2283 24.894L45.4286 26.1631C45.4079 26.1501 45.3876 26.1365 45.3676 26.1225L46.2283 24.894ZM46.2131 24.8834L45.3524 26.1119L45.3524 26.1119L46.2131 24.8834ZM45.1421 24.4711L45.5227 23.0202L45.5227 23.0202L45.1421 24.4711ZM43.2769 24.1484L43.4267 22.6559L43.4267 22.6559L43.2769 24.1484ZM39.4684 24.3996L39.9612 25.8163L39.9612 25.8163L39.4684 24.3996ZM39.1119 24.5552L37.6199 24.4008C37.6724 23.8929 37.9797 23.4466 38.4354 23.2164L39.1119 24.5552ZM38.8052 25.6572L40.1567 26.3079L40.1567 26.3079L38.8052 25.6572ZM37.2007 27.492L36.251 26.331L36.251 26.331L37.2007 27.492ZM34.5703 29.2699L33.8117 27.9758L33.8117 27.9758L34.5703 29.2699ZM33.4797 29.8851L32.2133 29.0812C32.3498 28.8662 32.5388 28.6894 32.7626 28.5676L33.4797 29.8851ZM33.0383 30.6723L34.391 31.3207L34.3909 31.3207L33.0383 30.6723ZM32.7634 32.424L34.1149 31.7733L34.1149 31.7733L32.7634 32.424ZM33.4873 33.2092L34.4371 32.0482L34.4371 32.0482L33.4873 33.2092ZM35.0658 34.2729L35.8244 32.9789L35.8244 32.9789L35.0658 34.2729ZM32.4268 28.7336L33.665 29.5804C33.5286 29.7797 33.3461 29.9432 33.1331 30.0569L32.4268 28.7336ZM29.112 30.3693L29.7402 31.7314C29.0571 32.0464 28.2464 31.8068 27.8443 31.1711L29.112 30.3693ZM33.7868 27.0246L34.9006 28.0293L34.9006 28.0293L33.7868 27.0246ZM36.5255 24.4656L35.6002 23.285L35.6002 23.285L36.5255 24.4656ZM37.5842 23.7005L39.0687 23.485C39.1525 24.062 38.8942 24.6353 38.4065 24.955L37.5842 23.7005ZM37.0262 22.0144L38.3789 21.366L38.3789 21.366L37.0262 22.0144ZM34.1321 17.9368L33.0182 18.9414L33.0182 18.9414L34.1321 17.9368ZM30.2276 14.2881L31.1529 13.1075L31.1529 13.1075L30.2276 14.2881ZM27.0754 12.3253L26.5826 13.742L26.5826 13.742L27.0754 12.3253ZM21.1471 11.9257L21.2968 13.4182L21.2968 13.4182L21.1471 11.9257ZM18.2655 12.4246L17.8849 10.9737L17.8849 10.9737L18.2655 12.4246ZM16.5208 13.106L17.3815 14.3345L17.3815 14.3345L16.5208 13.106ZM16.5057 13.1166L17.3663 14.3451C17.3464 14.3591 17.3261 14.3726 17.3054 14.3856L16.5057 13.1166ZM16.49 13.1265L17.2898 14.3955L17.2897 14.3955L16.49 13.1265ZM8.81522 26.8341L7.31796 26.7434L7.31796 26.7434L8.81522 26.8341ZM11.4488 34.6021L10.6255 35.856L10.6255 35.856L11.4488 34.6021ZM15.9383 35.3866L16.2325 36.8575L16.2325 36.8575L15.9383 35.3866ZM19.9311 34.0984L20.4378 35.5102L20.4378 35.5102L19.9311 34.0984ZM22.9551 32.9667L24.3447 32.402C24.496 32.7742 24.4916 33.1915 24.3326 33.5604C24.1736 33.9294 23.8732 34.2191 23.4988 34.3647L22.9551 32.9667ZM22.4711 31.6667L21.0442 32.1292L21.0442 32.1292L22.4711 31.6667ZM22.1947 30.4323L23.6915 30.3344L23.6915 30.3344L22.1947 30.4323ZM22.5612 29.4003L21.6559 28.2043L21.6559 28.2043L22.5612 29.4003ZM24.8339 27.9781L25.4073 29.3642L25.4073 29.3642L24.8339 27.9781ZM27.3355 28.0959L26.4637 29.3165L26.4637 29.3165L27.3355 28.0959ZM28.1497 28.9632L26.9579 29.874L26.9579 29.874L28.1497 28.9632ZM30.4773 34.6828L31.8072 33.9889L31.8072 33.9889L30.4773 34.6828ZM29.0358 32.0669L28.4197 30.6993C29.1191 30.3842 29.9435 30.6475 30.3307 31.3097L29.0358 32.0669ZM32.3993 38.7089L33.7805 38.1238L33.7805 38.1238L32.3993 38.7089ZM33.2892 41.3837L34.7824 41.2415L34.7824 41.2415L33.2892 41.3837ZM33.0569 44.7892L34.473 45.284L34.4729 45.284L33.0569 44.7892ZM32.2488 46.0423L33.2345 47.1731L33.2344 47.1731L32.2488 46.0423ZM30.6698 46.7053L30.4649 45.2194L30.4649 45.2194L30.6698 46.7053ZM28.8967 46.552L28.3425 47.9458L28.3425 47.9458L28.8967 46.552ZM27.7481 45.6101L26.5101 46.4571L26.5101 46.4571L27.7481 45.6101ZM26.885 41.352L28.3845 41.3937L28.3845 41.3937L26.885 41.352ZM26.1711 38.1829L27.5808 37.6703L27.5808 37.6703L26.1711 38.1829ZM24.7155 34.6722L26.0774 34.0436C26.0814 34.0522 26.0852 34.0607 26.089 34.0693L24.7155 34.6722ZM24.7154 34.6721L26.0747 34.0378L26.0774 34.0435L24.7154 34.6721ZM24.7154 34.672L25.9635 33.84C26.0055 33.903 26.0427 33.9691 26.0747 34.0377L24.7154 34.672ZM24.7154 34.672L23.4673 35.5041C23.4189 35.4315 23.3769 35.3547 23.3419 35.2748L24.7154 34.672ZM24.6549 34.5342L23.2814 35.137L23.2813 35.1369L24.6549 34.5342ZM24.4271 34.0138L23.0522 34.6134C22.8897 34.241 22.8853 33.8186 23.04 33.4428C23.1947 33.0671 23.4951 32.7701 23.8727 32.62L24.4271 34.0138ZM27.5138 32.7371L26.9205 31.3594L26.9205 31.3594L27.5138 32.7371ZM26.9153 31.3473L27.5086 32.725L27.5086 32.725L26.9153 31.3473ZM23.8353 32.6207L24.3893 34.0146C23.6239 34.3188 22.7564 33.9489 22.4459 33.1861L23.8353 32.6207ZM28.2426 30.7644L29.5069 29.9572C29.7416 30.3248 29.8047 30.7764 29.6797 31.1943C29.5547 31.6121 29.254 31.9549 28.856 32.1333L28.2426 30.7644ZM27.3983 29.5374L28.5901 28.6266L28.5901 28.6266L27.3983 29.5374ZM26.7858 28.8654L27.6577 27.6448L27.6577 27.6448L26.7858 28.8654ZM25.1954 28.852L25.7689 30.2381L25.7689 30.2381L25.1954 28.852ZM23.152 30.1392L21.7361 29.644C21.8337 29.365 22.0115 29.121 22.2473 28.9427L23.152 30.1392ZM23.1384 30.3706L21.6416 30.4685L21.6416 30.4685L23.1384 30.3706ZM23.3707 31.3751L21.9438 31.8376L21.9438 31.8376L23.3707 31.3751ZM41.8255 35.9834L43.3071 35.7494C43.4293 36.5231 42.9356 37.2606 42.1737 37.4424C41.4117 37.6243 40.6382 37.1891 40.3978 36.4436L41.8255 35.9834ZM41.824 35.9768L42.9577 36.9589C42.9515 36.9661 42.9452 36.9732 42.9389 36.9802L41.824 35.9768ZM41.824 35.9775L43.3087 35.764L43.309 35.766L41.824 35.9775ZM20.8462 8.92755C23.152 8.69615 25.9297 8.73651 28.0654 9.47936L27.0798 12.3128C25.5521 11.7814 23.2861 11.6978 21.1457 11.9126L20.8462 8.92755ZM17.501 9.51005C18.501 9.24773 19.6569 9.04691 20.8462 8.92755L21.1457 11.9126C20.0875 12.0188 19.0884 12.1951 18.2621 12.4119L17.501 9.51005ZM14.8162 10.6213C15.5657 10.1037 16.5711 9.75396 17.501 9.51005L18.2621 12.4119C17.4257 12.6313 16.8312 12.8756 16.5211 13.0898L14.8162 10.6213ZM5.80757 26.6518C6.32541 18.1075 10.8196 13.1436 14.8678 10.5872L16.4696 13.1238C13.0867 15.2601 9.25152 19.4176 8.80207 26.8333L5.80757 26.6518ZM9.79502 37.1209C7.10042 35.3518 5.48438 31.9844 5.80757 26.6518L8.80207 26.8333C8.52044 31.4803 9.92902 33.6201 11.4415 34.6132L9.79502 37.1209ZM16.5292 38.3412C15.1274 38.6216 12.2896 38.7588 9.79502 37.1209L11.4415 34.6132C13.0204 35.6498 14.9471 35.5983 15.9409 35.3995L16.5292 38.3412ZM20.949 36.9344C18.9621 37.6475 17.2692 38.1932 16.5292 38.3412L15.9409 35.3995C16.4247 35.3027 17.9044 34.8398 19.9355 34.1107L20.949 36.9344ZM24.0906 35.7581C22.9707 36.1941 21.9068 36.5906 20.949 36.9344L19.9355 34.1107C20.8684 33.7759 21.9074 33.3887 23.0023 32.9625L24.0906 35.7581ZM22.4153 35.517C22.3337 35.331 22.252 35.1447 22.1714 34.9598L24.9214 33.7608C25.0005 33.9423 25.081 34.1258 25.1625 34.3115L22.4153 35.517ZM22.4708 35.6433L22.4153 35.517L25.1624 34.3114L25.2179 34.4377L22.4708 35.6433ZM23.8726 39.0186C23.4914 37.9702 22.985 36.8149 22.4708 35.6434L25.2179 34.4377C25.7226 35.5877 26.2712 36.8362 26.692 37.9935L23.8726 39.0186ZM24.4403 41.2841C24.4505 40.9155 24.2917 40.1715 23.8726 39.0186L26.692 37.9935C27.1152 39.1574 27.4666 40.3761 27.4391 41.3674L24.4403 41.2841ZM25.7296 46.9911C24.6766 45.4521 24.3821 43.3786 24.4403 41.2841L27.4391 41.3674C27.3872 43.2345 27.6857 44.5374 28.2055 45.2971L25.7296 46.9911ZM27.9931 48.8247C27.0349 48.4437 26.2814 47.7976 25.7296 46.9911L28.2055 45.2971C28.4523 45.6577 28.748 45.8964 29.1015 46.0369L27.9931 48.8247ZM31.004 49.1281C29.9618 49.2718 28.9369 49.1999 27.9931 48.8247L29.1015 46.0369C29.4624 46.1804 29.9454 46.2457 30.5941 46.1562L31.004 49.1281ZM33.8559 47.886C33.0849 48.558 32.1204 48.9741 31.004 49.1281L30.5941 46.1562C31.2042 46.0721 31.6057 45.8676 31.8846 45.6245L33.8559 47.886ZM35.3658 45.5959C35.0841 46.4021 34.6169 47.2226 33.8559 47.886L31.8846 45.6245C32.1687 45.3769 32.3825 45.0391 32.5336 44.6064L35.3658 45.5959ZM35.7239 41.1519C35.8368 42.3374 35.906 44.0497 35.3658 45.5959L32.5336 44.6064C32.848 43.7066 32.8429 42.5441 32.7374 41.4363L35.7239 41.1519ZM34.6513 37.7549C35.1559 38.9458 35.6367 40.2362 35.7239 41.1519L32.7374 41.4363C32.7006 41.0502 32.4168 40.1711 31.889 38.9252L34.6513 37.7549ZM32.6456 33.5515C33.3928 34.9835 34.1058 36.4673 34.6513 37.7549L31.889 38.9251C31.3822 37.729 30.706 36.3194 29.9859 34.9392L32.6456 33.5515ZM31.1966 30.9171C31.6768 31.7419 32.1707 32.6412 32.6456 33.5515L29.9859 34.9392C29.5298 34.0651 29.0583 33.2068 28.604 32.4267L31.1966 30.9171ZM31.9563 32.3549C31.4885 32.5835 31.0122 32.8098 30.5312 33.0328L29.2694 30.311C29.7336 30.0958 30.1913 29.8784 30.6391 29.6595L31.9563 32.3549ZM30.0486 33.7312C29.5237 32.6411 29.6037 31.5188 29.8505 30.6129L32.745 31.4015C32.6117 31.8907 32.6466 32.2117 32.7516 32.4298L30.0486 33.7312ZM31.5795 35.5415C31.0504 35.1086 30.421 34.5048 30.0486 33.7312L32.7516 32.4297C32.8374 32.608 33.0591 32.876 33.479 33.2194L31.5795 35.5415ZM33.542 36.8724C32.8307 36.4554 32.1504 36.0085 31.5795 35.5415L33.479 33.2194C33.8855 33.552 34.4219 33.9107 35.0591 34.2843L33.542 36.8724ZM36.6069 38.4585C35.5245 37.9523 34.4687 37.4157 33.542 36.8724L35.0591 34.2843C35.8802 34.7656 36.8473 35.2591 37.8779 35.741L36.6069 38.4585ZM38.5443 37.8447C38.2875 38.2935 38.0246 38.7757 37.7691 39.2654L35.1094 37.8777C35.3812 37.3567 35.6627 36.8403 35.9404 36.3549L38.5443 37.8447ZM37.7691 39.2654C37.2963 40.1716 36.8536 41.0947 36.5232 41.8747L33.7609 40.7044C34.13 39.833 34.6095 38.8357 35.1094 37.8777L37.7691 39.2654ZM36.5232 41.8747C36.1718 42.704 36.0069 43.2377 35.9884 43.4316L33.0019 43.1472C33.0708 42.4241 33.4324 41.4797 33.7609 40.7044L36.5232 41.8747ZM35.9884 43.4316C35.9196 44.1546 35.9235 44.8592 36.1052 45.3791L33.2731 46.3686C32.8657 45.2026 32.9256 43.9483 33.0019 43.1472L35.9884 43.4316ZM36.1052 45.3791C36.19 45.6218 36.3019 45.789 36.4342 45.9044L34.463 48.1658C33.8535 47.6346 33.4883 46.9847 33.2731 46.3686L36.1052 45.3791ZM36.4342 45.9044C36.5614 46.0152 36.7614 46.1258 37.106 46.1734L36.696 49.1452C35.8453 49.0279 35.0823 48.7057 34.463 48.1658L36.4342 45.9044ZM37.106 46.1734C37.4891 46.2262 37.7455 46.1838 37.9163 46.1159L39.0247 48.9036C38.2708 49.2033 37.4726 49.2523 36.6961 49.1452L37.106 46.1734ZM37.9163 46.1159C38.0797 46.0509 38.222 45.9405 38.3497 45.7538L40.8257 47.4479C40.393 48.0803 39.7929 48.5982 39.0247 48.9036L37.9163 46.1159ZM38.3497 45.7538C38.6314 45.3422 38.8292 44.5705 38.7956 43.3628L41.7945 43.2795C41.8343 44.7145 41.6406 46.2569 40.8257 47.4479L38.3497 45.7538ZM38.7956 43.3628C38.7754 42.635 39.0303 41.7741 39.3103 41.0041L42.1297 42.0292C42.0025 42.3789 41.9128 42.6692 41.8574 42.9001C41.8299 43.0144 41.8131 43.1049 41.8037 43.1737C41.7991 43.2075 41.7967 43.2334 41.7955 43.2521C41.7942 43.2709 41.7945 43.2796 41.7945 43.2795L38.7956 43.3628ZM39.3103 41.0041C39.5933 40.2257 39.9612 39.3888 40.2939 38.6308L43.041 39.8365C42.6987 40.6162 42.3731 41.3597 42.1297 42.0292L39.3103 41.0041ZM40.2939 38.6308L40.3296 38.5494L43.0767 39.755L43.041 39.8364L40.2939 38.6308ZM40.3296 38.5495C40.3497 38.5038 40.3696 38.4582 40.3895 38.4128L43.1372 39.617C43.1171 39.663 43.0969 39.709 43.0768 39.7549L40.3296 38.5495ZM43.175 41.1431C42.5764 40.9282 41.9162 40.6827 41.2216 40.4137L42.3051 37.6162C42.9764 37.8762 43.6132 38.113 44.1885 38.3194L43.175 41.1431ZM46.2047 42.1031C45.6503 41.9922 44.4771 41.6104 43.175 41.1431L44.1885 38.3195C45.5344 38.8025 46.4947 39.1017 46.7931 39.1613L46.2047 42.1031ZM51.2257 41.1858C49.3433 42.4218 47.2351 42.3092 46.2047 42.1031L46.7931 39.1613C47.4161 39.2859 48.6128 39.3126 49.5792 38.6781L51.2257 41.1858ZM54.205 33.5803C54.4292 37.2793 53.3085 39.8183 51.2257 41.1858L49.5792 38.6781C50.4789 38.0873 51.3932 36.7768 51.2105 33.7618L54.205 33.5803ZM47.8663 22.3647C50.7103 24.1624 53.8455 27.6484 54.205 33.5803L51.2105 33.7618C50.9194 28.958 48.4427 26.2781 46.2634 24.9006L47.8663 22.3647ZM45.9066 21.5565C46.5427 21.7234 47.3082 21.98 47.9142 22.3963L46.2155 24.869C46.0457 24.7524 45.6872 24.6005 45.1454 24.4584L45.9066 21.5565ZM43.5778 21.1503C44.3973 21.2325 45.2013 21.3715 45.9066 21.5565L45.1454 24.4584C44.6138 24.3189 43.9667 24.2044 43.2782 24.1353L43.5778 21.1503ZM38.4908 21.5494C40.0549 21.0088 42.0149 20.9935 43.5778 21.1503L43.2782 24.1353C41.8815 23.9951 40.4301 24.0532 39.4708 24.3848L38.4908 21.5494ZM39.7434 20.7119C40.0287 21.3072 40.2775 21.9489 40.4386 22.6138L37.523 23.3204C37.4227 22.9067 37.2569 22.4652 37.0381 22.0087L39.7434 20.7119ZM36.3696 15.9186C37.7035 17.3975 38.9524 19.0618 39.7434 20.7119L37.0381 22.0087C36.4195 20.7182 35.3758 19.296 34.1419 17.9279L36.3696 15.9186ZM32.0863 11.9165C33.503 13.0269 35.0214 14.4239 36.3696 15.9186L34.1419 17.9279C32.9126 16.5651 31.5212 15.2852 30.2357 14.2777L32.0863 11.9165ZM28.0654 9.47936C29.2712 9.89879 30.7253 10.8499 32.0863 11.9165L30.2357 14.2777C28.932 13.256 27.7982 12.5628 27.0798 12.3128L28.0654 9.47936ZM42.2565 39.2705C42.2413 39.3052 42.2261 39.34 42.2107 39.3749L39.4636 38.1695C39.4788 38.1348 39.4939 38.1004 39.5089 38.0661L42.2565 39.2705ZM42.2107 39.375L42.1699 39.4679L39.4228 38.2623L39.4636 38.1694L42.2107 39.375ZM42.1699 39.468C41.8321 40.2376 41.4951 41.0067 41.2409 41.706L38.4215 40.6809C38.7152 39.8731 39.094 39.0115 39.4229 38.2622L42.1699 39.468ZM41.2409 41.706C40.964 42.4676 40.8407 43.004 40.8491 43.3057L37.8503 43.389C37.8246 42.4663 38.1392 41.4573 38.4215 40.6809L41.2409 41.706ZM40.8491 43.3057C40.887 44.6691 40.692 45.9685 40.0451 46.9138L37.5692 45.2198C37.6828 45.0539 37.8818 44.5251 37.8503 43.389L40.8491 43.3057ZM40.0451 46.9138C39.7084 47.406 39.2525 47.7953 38.6753 48.0248L37.5669 45.2371C37.5657 45.2375 37.5622 45.2391 37.5574 45.2419C37.5527 45.2447 37.5488 45.2475 37.5463 45.2495C37.5439 45.2515 37.5445 45.2513 37.548 45.2474C37.5517 45.2434 37.559 45.2348 37.5692 45.2198L40.0451 46.9138ZM38.6753 48.0248C38.1055 48.2513 37.4782 48.2984 36.8253 48.2084L37.2352 45.2365C37.4937 45.2722 37.5794 45.2321 37.5669 45.2371L38.6753 48.0248ZM36.8253 48.2084C36.1337 48.113 35.5483 47.8573 35.0844 47.4529L37.0557 45.1915C37.0487 45.1854 37.0486 45.1879 37.066 45.1954C37.0851 45.2038 37.1364 45.2229 37.2352 45.2365L36.8253 48.2084ZM35.0844 47.4529C34.6256 47.053 34.3401 46.5554 34.1659 46.0567L36.998 45.0671C37.02 45.1302 37.0393 45.1654 37.0497 45.1817C37.0592 45.1966 37.0618 45.1969 37.0557 45.1915L35.0844 47.4529ZM34.1659 46.0567C33.8295 45.0939 33.8695 44.0123 33.9434 43.2369L36.9299 43.5213C36.8632 44.2215 36.8878 44.7519 36.998 45.0671L34.1659 46.0567ZM33.9434 43.2369C33.9744 42.9116 34.079 42.5509 34.1819 42.2425C34.2951 41.9031 34.4477 41.5075 34.6317 41.0733L37.394 42.2436C37.2304 42.6297 37.1088 42.9487 37.0277 43.1918C36.9363 43.4658 36.9266 43.5552 36.9299 43.5213L33.9434 43.2369ZM34.6317 41.0733C34.9886 40.2308 35.4565 39.2568 35.9478 38.3151L38.6076 39.7028C38.1433 40.5928 37.7122 41.4925 37.394 42.2436L34.6317 41.0733ZM35.9478 38.3151C36.2299 37.7746 36.5211 37.2418 36.8058 36.7469L39.4062 38.2429C39.1439 38.6988 38.8724 39.1953 38.6076 39.7028L35.9478 38.3151ZM38.3996 39.262C38.0975 39.1319 37.7946 38.999 37.4928 38.8639L38.7192 36.126C39.0069 36.2548 39.2965 36.3819 39.5862 36.5066L38.3996 39.262ZM40.3256 40.061C39.6963 39.8092 39.0482 39.5413 38.3996 39.262L39.5862 36.5066C40.2084 36.7746 40.8323 37.0325 41.4399 37.2756L40.3256 40.061ZM39.5112 34.8224C39.7344 34.9215 39.9592 35.0197 40.1847 35.1169L38.9981 37.8722C38.7627 37.7708 38.5275 37.668 38.2935 37.5641L39.5112 34.8224ZM40.1847 35.1169C40.8033 35.3833 41.4242 35.6398 42.0286 35.8814L40.9153 38.6671C40.289 38.4168 39.6435 38.1502 38.9981 37.8722L40.1847 35.1169ZM43.1071 37.1617C43.038 37.3749 42.9564 37.5969 42.8689 37.8208L40.0751 36.7277C40.149 36.5389 40.2083 36.3757 40.2533 36.2366L43.1071 37.1617ZM43.3232 36.1721C43.3018 36.4981 43.2093 36.8465 43.1071 37.1617L40.2533 36.2366C40.289 36.1264 40.3105 36.0472 40.3226 35.9952C40.3358 35.9379 40.3321 35.9368 40.3296 35.9762L43.3232 36.1721ZM43.3279 35.9988C43.3287 36.0568 43.3269 36.1146 43.3232 36.1721L40.3296 35.9762C40.3287 35.989 40.3277 36.011 40.3282 36.0409L43.3279 35.9988ZM41.1389 33.843C41.7339 34.0892 42.2988 34.497 42.7296 34.821L40.9264 37.2187C40.4879 36.8889 40.1956 36.6993 39.9919 36.6151L41.1389 33.843ZM38.7968 33.9996C39.6078 33.4204 40.4976 33.5777 41.1389 33.843L39.9919 36.6151C39.8931 36.5742 39.9258 36.6052 40.0468 36.6046C40.1131 36.6042 40.1985 36.5943 40.2935 36.564C40.3891 36.5336 40.4725 36.4894 40.5405 36.4408L38.7968 33.9996ZM38.1063 34.7205C38.2964 34.4716 38.5362 34.1858 38.7968 33.9996L40.5406 36.4408C40.5714 36.4188 40.5941 36.4004 40.6075 36.3891C40.6216 36.3773 40.6311 36.3685 40.6358 36.3641C40.6447 36.3558 40.6435 36.3562 40.6317 36.369C40.6079 36.3949 40.5606 36.4496 40.4899 36.5421L38.1063 34.7205ZM37.6514 35.3654C37.8072 35.13 37.9602 34.9116 38.1063 34.7205L40.4899 36.5421C40.3968 36.664 40.2838 36.8237 40.1532 37.021L37.6514 35.3654ZM39.7385 35.9678C39.6093 36.1369 39.4579 36.3543 39.2889 36.6146L36.7727 34.9809C36.9681 34.68 37.1646 34.3951 37.3548 34.1462L39.7385 35.9678ZM39.9909 35.6712C40.0112 35.6568 39.9929 35.6669 39.9351 35.7293C39.8816 35.7873 39.8162 35.8662 39.7385 35.9678L37.3548 34.1462C37.553 33.8869 37.8641 33.5036 38.2471 33.2301L39.9909 35.6712ZM40.3535 35.7412C40.1937 35.6751 40.089 35.6589 40.0361 35.6588C40.0246 35.6588 40.0172 35.6596 40.0131 35.6601C40.0092 35.6607 40.0076 35.6612 40.0075 35.6612C40.0074 35.6612 40.0073 35.6613 40.0072 35.6613C40.007 35.6614 40.0065 35.6616 40.0056 35.662C40.0041 35.6628 39.9992 35.6653 39.9909 35.6713L38.2471 33.2301C39.4529 32.3688 40.7415 32.6551 41.5005 32.9691L40.3535 35.7412ZM41.5592 36.5114C41.0989 36.1629 40.6989 35.8841 40.3535 35.7412L41.5005 32.9691C42.2479 33.2784 42.9298 33.7863 43.3699 34.1195L41.5592 36.5114ZM41.2733 36.038C41.2752 36.008 41.2678 36.0457 41.2889 36.1226C41.3154 36.2192 41.3907 36.3838 41.5592 36.5114L43.3699 34.1195C44.3194 34.8382 44.2873 35.922 44.2669 36.2338L41.2733 36.038ZM41.153 36.5282C41.2395 36.2613 41.2688 36.1063 41.2733 36.038L44.2669 36.2338C44.2378 36.6778 44.1166 37.1146 44.0068 37.4533L41.153 36.5282ZM40.9552 37.0737C41.0354 36.8686 41.1016 36.6866 41.153 36.5282L44.0068 37.4533C43.9315 37.6855 43.8431 37.9262 43.749 38.1667L40.9552 37.0737ZM42.893 36.2212C43.5365 36.47 44.1472 36.697 44.6996 36.8952L43.6862 39.7189C43.1108 39.5124 42.4773 39.2769 41.8111 39.0193L42.893 36.2212ZM44.6996 36.8952C45.3599 37.1322 45.9196 37.3219 46.3451 37.4581C46.5582 37.5263 46.7331 37.5796 46.8674 37.6183C46.9345 37.6375 46.9881 37.6522 47.0289 37.6627C47.0722 37.6739 47.0903 37.6777 47.0898 37.6776L46.5015 40.6193C46.076 40.5342 45.0098 40.194 43.6862 39.7189L44.6996 36.8952ZM47.0898 37.6776C47.2577 37.7111 47.554 37.7389 47.8846 37.7011C48.2128 37.6635 48.5115 37.5689 48.7487 37.4132L50.3952 39.9209C48.9757 40.853 47.3278 40.7846 46.5015 40.6193L47.0898 37.6776ZM48.7487 37.4132C49.0569 37.2108 49.8614 36.5151 49.7001 33.8534L52.6946 33.6719C52.8981 37.029 51.8792 38.9466 50.3952 39.9209L48.7487 37.4132ZM49.7001 33.8534C49.4429 29.6096 47.2897 27.3359 45.4442 26.1729L47.0436 23.6348C49.5564 25.2182 52.369 28.2993 52.6946 33.6719L49.7001 33.8534ZM45.4442 26.1729L45.4286 26.1631L47.028 23.625L47.0436 23.6348L45.4442 26.1729ZM45.3676 26.1225L45.3524 26.1119L47.0738 23.6549L47.0889 23.6655L45.3676 26.1225ZM45.3524 26.1119C45.3877 26.1367 45.4017 26.1419 45.3803 26.1311C45.3621 26.1219 45.3266 26.1054 45.2708 26.0833C45.1586 26.0388 44.9904 25.9821 44.7615 25.922L45.5227 23.0202C46.1184 23.1764 46.6869 23.3838 47.0738 23.6549L45.3524 26.1119ZM44.7615 25.922C44.3176 25.8056 43.7495 25.7034 43.1271 25.6409L43.4267 22.6559C44.1801 22.7315 44.905 22.8582 45.5227 23.0202L44.7615 25.922ZM43.1271 25.6409C41.8093 25.5087 40.6129 25.5896 39.9612 25.8163L38.9756 22.9828C40.2357 22.5445 41.9441 22.5071 43.4267 22.6559L43.1271 25.6409ZM39.9612 25.8163C39.9387 25.8241 39.8824 25.8465 39.7884 25.894L38.4354 23.2164C38.6093 23.1285 38.792 23.0467 38.9756 22.9828L39.9612 25.8163ZM40.6039 24.7096C40.5483 25.247 40.4077 25.7867 40.1567 26.3079L37.4537 25.0065C37.5414 24.8243 37.5967 24.6246 37.6199 24.4008L40.6039 24.7096ZM40.1567 26.3079C39.7037 27.2486 38.9088 28.0326 38.1505 28.653L36.251 26.331C36.9004 25.7997 37.2875 25.3516 37.4537 25.0065L40.1567 26.3079ZM38.1505 28.653C37.3501 29.3077 36.3765 29.9498 35.3289 30.5639L33.8117 27.9758C34.7853 27.4051 35.615 26.8512 36.251 26.331L38.1505 28.653ZM35.3289 30.5639C34.9642 30.7777 34.5859 30.9908 34.1968 31.2026L32.7626 28.5676C33.1269 28.3693 33.4774 28.1718 33.8117 27.9758L35.3289 30.5639ZM34.7461 30.6889C34.601 30.9175 34.4828 31.129 34.391 31.3207L31.6857 30.0239C31.8376 29.7071 32.0164 29.3913 32.2133 29.0812L34.7461 30.6889ZM34.3909 31.3207C34.2331 31.6499 34.1866 31.8489 34.1753 31.9367C34.1638 32.0258 34.1949 31.9394 34.1149 31.7733L31.4119 33.0748C30.9479 32.1109 31.2196 30.9963 31.6857 30.0239L34.3909 31.3207ZM34.1149 31.7733C34.1028 31.7481 34.0926 31.7302 34.0863 31.7199C34.0831 31.7145 34.0806 31.7106 34.079 31.7081C34.0782 31.7069 34.0775 31.7059 34.0771 31.7053C34.0767 31.7047 34.0765 31.7044 34.0765 31.7044C34.0765 31.7044 34.0767 31.7047 34.0771 31.7052C34.0775 31.7058 34.0781 31.7066 34.0789 31.7077C34.0806 31.7099 34.083 31.713 34.0863 31.7171C34.093 31.7254 34.1027 31.737 34.1161 31.7518C34.1717 31.8138 34.2726 31.9136 34.4371 32.0482L32.5376 34.3703C32.0646 33.9834 31.6401 33.5487 31.4119 33.0748L34.1149 31.7733ZM34.4371 32.0482C34.7606 32.3129 35.2243 32.6271 35.8244 32.9789L34.3072 35.567C33.6333 35.1719 33.0256 34.7695 32.5376 34.3703L34.4371 32.0482ZM35.8244 32.9789C36.6332 33.4531 37.6084 33.9482 38.6621 34.4371L37.3995 37.1584C36.294 36.6455 35.2266 36.1059 34.3072 35.567L35.8244 32.9789ZM33.1331 30.0569C32.0717 30.6234 30.922 31.1864 29.7402 31.7314L28.4839 29.0071C29.6263 28.4803 30.722 27.9432 31.7206 27.4103L33.1331 30.0569ZM34.9006 28.0293C34.4413 28.5385 34.0184 29.0637 33.665 29.5804L31.1887 27.8868C31.6331 27.237 32.144 26.6064 32.6729 26.02L34.9006 28.0293ZM37.4508 25.6462C36.6121 26.3035 35.7031 27.1396 34.9006 28.0293L32.6729 26.02C33.5944 24.9984 34.6303 24.0451 35.6002 23.285L37.4508 25.6462ZM38.4065 24.955C38.1045 25.153 37.7816 25.3869 37.4508 25.6462L35.6002 23.285C35.985 22.9834 36.3769 22.6984 36.7619 22.446L38.4065 24.955ZM38.3789 21.366C38.729 22.0966 38.9703 22.8073 39.0687 23.485L36.0998 23.916C36.057 23.6214 35.9345 23.207 35.6736 22.6627L38.3789 21.366ZM35.246 16.9321C36.5294 18.3551 37.6748 19.8973 38.3789 21.366L35.6736 22.6627C35.142 21.5538 34.2018 20.2537 33.0182 18.9414L35.246 16.9321ZM31.1529 13.1075C32.5034 14.166 33.9577 15.5039 35.246 16.9321L33.0182 18.9414C31.849 17.6451 30.5215 16.4243 29.3023 15.4687L31.1529 13.1075ZM27.5682 10.9085C28.5284 11.2425 29.8212 12.0638 31.1529 13.1075L29.3023 15.4687C28.0265 14.4689 27.0547 13.9062 26.5826 13.742L27.5682 10.9085ZM20.9973 10.4332C23.2195 10.2101 25.7392 10.2723 27.5682 10.9085L26.5826 13.742C25.3618 13.3174 23.3542 13.2117 21.2968 13.4182L20.9973 10.4332ZM17.8849 10.9737C18.7973 10.7344 19.8741 10.5459 20.9973 10.4332L21.2968 13.4182C20.3047 13.5177 19.3847 13.6818 18.646 13.8755L17.8849 10.9737ZM15.6601 11.8775C16.1881 11.5076 16.9939 11.2074 17.8849 10.9737L18.646 13.8755C18.2686 13.9746 17.9676 14.0738 17.7427 14.1631C17.6306 14.2075 17.5438 14.247 17.4797 14.2794C17.448 14.2954 17.4241 14.3087 17.4069 14.3188C17.3984 14.3237 17.3921 14.3276 17.3877 14.3304C17.3833 14.3332 17.3814 14.3346 17.3815 14.3345L15.6601 11.8775ZM15.645 11.8881L15.6602 11.8775L17.3815 14.3345L17.3663 14.3451L15.645 11.8881ZM15.6902 11.8575L15.7059 11.8476L17.3054 14.3856L17.2898 14.3955L15.6902 11.8575ZM7.31796 26.7434C7.80192 18.7581 11.9737 14.1994 15.6903 11.8574L17.2897 14.3955C14.24 16.3172 10.728 20.0688 10.3125 26.9249L7.31796 26.7434ZM10.6255 35.856C8.52842 34.4792 7.01561 31.7321 7.31796 26.7434L10.3125 26.9249C10.0521 31.2206 11.3523 32.7444 12.272 33.3483L10.6255 35.856ZM16.2325 36.8575C15.0355 37.0968 12.6577 37.1903 10.6255 35.856L12.272 33.3483C13.3904 34.0825 14.8585 34.0728 15.6441 33.9157L16.2325 36.8575ZM20.4378 35.5102C18.429 36.2312 16.8434 36.7353 16.2325 36.8575L15.6441 33.9157C15.9984 33.8449 17.3698 33.424 19.4243 32.6865L20.4378 35.5102ZM23.4988 34.3647C22.4081 34.7889 21.3718 35.1749 20.4378 35.5102L19.4243 32.6865C20.3337 32.3601 21.3454 31.9833 22.4114 31.5687L23.4988 34.3647ZM23.898 31.2042C24.01 31.5496 24.1616 31.9513 24.3447 32.402L21.5655 33.5315C21.3687 33.0474 21.1875 32.5714 21.0442 32.1292L23.898 31.2042ZM23.6915 30.3344C23.7025 30.5037 23.763 30.7875 23.898 31.2042L21.0442 32.1292C20.886 31.6411 20.7335 31.0753 20.6979 30.5302L23.6915 30.3344ZM23.4666 30.5962C23.5315 30.5471 23.5848 30.4866 23.6238 30.4245C23.661 30.3652 23.6779 30.3162 23.685 30.2904C23.6918 30.2656 23.6912 30.2566 23.6904 30.2686C23.6897 30.2801 23.6893 30.3016 23.6915 30.3344L20.6979 30.5302C20.6707 30.1157 20.6574 28.9601 21.6559 28.2043L23.4666 30.5962ZM25.4073 29.3642C24.8143 29.6095 24.1599 30.0714 23.4666 30.5962L21.6559 28.2043C22.3285 27.6951 23.2651 27.0039 24.2604 26.5921L25.4073 29.3642ZM26.4637 29.3165C26.3451 29.2318 26.232 29.1994 26.0867 29.1996C25.9179 29.1998 25.6916 29.2466 25.4073 29.3642L24.2604 26.5921C25.2686 26.1749 26.7974 25.8681 28.2074 26.8753L26.4637 29.3165ZM26.9579 29.874C26.8331 29.7108 26.7231 29.5778 26.6284 29.4752C26.5817 29.4247 26.5432 29.3863 26.5127 29.3583C26.4977 29.3445 26.4859 29.3343 26.4772 29.3271C26.4728 29.3235 26.4695 29.3209 26.4672 29.3191C26.466 29.3182 26.4652 29.3176 26.4646 29.3171C26.464 29.3167 26.4637 29.3165 26.4637 29.3165L28.2074 26.8753C28.6547 27.1948 29.0483 27.6687 29.3415 28.0524L26.9579 29.874ZM27.8443 31.1711C27.5134 30.6479 27.2131 30.208 26.9579 29.874L29.3415 28.0524C29.67 28.4822 30.0223 29.0023 30.3798 29.5675L27.8443 31.1711ZM29.1474 35.3766C28.681 34.4827 28.2001 33.6092 27.741 32.8241L30.3307 31.3097C30.8171 32.1414 31.3213 33.0577 31.8072 33.9889L29.1474 35.3766ZM31.0182 39.2941C30.5236 38.1268 29.859 36.7405 29.1474 35.3766L31.8072 33.9889C32.5458 35.4046 33.2472 36.8651 33.7805 38.1238L31.0182 39.2941ZM31.7959 41.526C31.7898 41.4619 31.7448 41.2362 31.6004 40.8029C31.4654 40.398 31.2701 39.8888 31.0182 39.2941L33.7805 38.1238C34.0523 38.7654 34.2789 39.3518 34.4464 39.8542C34.6045 40.3284 34.7425 40.8219 34.7824 41.2415L31.7959 41.526ZM31.6408 44.2944C31.8838 43.599 31.8992 42.6105 31.7959 41.526L34.7824 41.2415C34.8929 42.4019 34.9421 43.9412 34.473 45.284L31.6408 44.2944ZM31.2632 44.9116C31.3971 44.7948 31.531 44.6089 31.6408 44.2944L34.4729 45.284C34.2323 45.9726 33.845 46.6409 33.2345 47.1731L31.2632 44.9116ZM30.4649 45.2194C30.9149 45.1573 31.1391 45.0197 31.2632 44.9116L33.2344 47.1731C32.6187 47.7098 31.8318 48.0592 30.8748 48.1912L30.4649 45.2194ZM29.4509 45.1581C29.6283 45.2287 29.9407 45.2917 30.4649 45.2194L30.8748 48.1912C29.9564 48.3179 29.1024 48.248 28.3425 47.9458L29.4509 45.1581ZM28.986 44.7631C29.1364 44.9828 29.2877 45.0932 29.4509 45.1581L28.3425 47.9458C27.5751 47.6408 26.9659 47.1232 26.5101 46.4571L28.986 44.7631ZM28.3845 41.3937C28.3346 43.1892 28.6344 44.2491 28.986 44.7631L26.5101 46.4571C25.6252 45.1638 25.3294 43.3331 25.3856 41.3104L28.3845 41.3937ZM27.5808 37.6703C28.006 38.8397 28.4174 40.207 28.3845 41.3937L25.3856 41.3104C25.4013 40.745 25.1814 39.8508 24.7614 38.6955L27.5808 37.6703ZM26.089 34.0693C26.5898 35.2103 27.1493 36.4836 27.5808 37.6703L24.7614 38.6955C24.3694 37.6173 23.8518 36.4366 23.342 35.2751L26.089 34.0693ZM26.0774 34.0435L26.0774 34.0436L23.3535 35.3008L23.3535 35.3007L26.0774 34.0435ZM26.0747 34.0377L26.0747 34.0378L23.3562 35.3065L23.3561 35.3064L26.0747 34.0377ZM25.9635 33.84L25.9635 33.84L23.4673 35.5041L23.4673 35.5041L25.9635 33.84ZM26.0285 33.9314L26.0889 34.0692L23.3419 35.2748L23.2814 35.137L26.0285 33.9314ZM25.802 33.4141C25.8759 33.5836 25.9515 33.756 26.0285 33.9315L23.2813 35.1369C23.2041 34.9609 23.1274 34.786 23.0522 34.6134L25.802 33.4141ZM28.1071 34.1147C27.0535 34.5685 25.9998 35.0025 24.9815 35.4076L23.8727 32.62C24.8679 32.2241 25.8954 31.8008 26.9205 31.3594L28.1071 34.1147ZM29.652 33.4345C29.1389 33.6657 28.6225 33.8928 28.1071 34.1147L26.9205 31.3594C27.4218 31.1435 27.9229 30.9231 28.4197 30.6993L29.652 33.4345ZM27.5086 32.725C26.4573 33.1777 25.4054 33.6108 24.3893 34.0146L23.2813 31.2267C24.2741 30.8322 25.2996 30.4099 26.322 29.9696L27.5086 32.725ZM28.856 32.1333C28.4092 32.3335 27.9591 32.5309 27.5086 32.725L26.322 29.9696C26.76 29.781 27.1966 29.5894 27.6293 29.3955L28.856 32.1333ZM28.5901 28.6266C28.8745 28.9988 29.1848 29.4528 29.5069 29.9572L26.9783 31.5716C26.6827 31.1087 26.422 30.7303 26.2064 30.4482L28.5901 28.6266ZM27.6577 27.6448C27.982 27.8765 28.304 28.2523 28.5901 28.6266L26.2064 30.4482C26.0872 30.2922 25.9958 30.1843 25.9324 30.1155C25.901 30.0815 25.8815 30.0624 25.8733 30.0548C25.8628 30.0451 25.8773 30.0598 25.914 30.086L27.6577 27.6448ZM24.6219 27.466C25.5058 27.1003 26.6386 26.9169 27.6577 27.6448L25.914 30.086C25.9356 30.1015 25.9684 30.1194 26.0084 30.1319C26.0474 30.1441 26.0743 30.1453 26.08 30.1453C26.0834 30.1453 26.0614 30.1448 26.0076 30.1574C25.9533 30.1701 25.8749 30.1942 25.7689 30.2381L24.6219 27.466ZM22.2473 28.9427C22.921 28.4333 23.7608 27.8223 24.6219 27.466L25.7689 30.2381C25.3086 30.4285 24.75 30.8114 24.0567 31.3356L22.2473 28.9427ZM21.6416 30.4685C21.6238 30.1967 21.6411 29.9157 21.7361 29.644L24.5679 30.6344C24.6488 30.4032 24.6337 30.2496 24.6352 30.2727L21.6416 30.4685ZM21.9438 31.8376C21.7931 31.3726 21.6695 30.8954 21.6416 30.4685L24.6352 30.2726C24.6384 30.3229 24.6696 30.5175 24.7977 30.9125L21.9438 31.8376ZM22.4459 33.1861C22.2545 32.7158 22.0804 32.259 21.9438 31.8376L24.7976 30.9125C24.9025 31.236 25.0466 31.6177 25.2247 32.0553L22.4459 33.1861ZM40.3439 36.2174C40.3481 36.2442 40.3563 36.291 40.371 36.3489C40.3763 36.3696 40.3932 36.4353 40.4245 36.5165C40.4319 36.5357 40.4802 36.6658 40.5775 36.8113C40.6033 36.8497 40.7678 37.1063 41.0964 37.2885C41.2903 37.3961 41.6244 37.5224 42.0426 37.4608C42.476 37.3969 42.7801 37.164 42.9577 36.9589L40.6902 34.9946C40.8678 34.7896 41.1719 34.5566 41.6054 34.4928C42.0235 34.4312 42.3576 34.5575 42.5516 34.6651C42.8802 34.8473 43.0447 35.1039 43.0705 35.1424C43.1679 35.2879 43.2163 35.4183 43.2238 35.4377C43.2553 35.5194 43.2724 35.5859 43.278 35.6076C43.2933 35.6677 43.3022 35.7178 43.3071 35.7494L40.3439 36.2174ZM43.309 35.766C43.2991 35.6965 43.2863 35.6425 43.2793 35.6145C43.2707 35.5804 43.2618 35.5499 43.2532 35.5232L40.3978 36.4436C40.384 36.4008 40.356 36.3085 40.339 36.1891L43.309 35.766ZM42.9389 36.9802C43.1399 36.7569 43.2216 36.5308 43.2526 36.4339C43.2893 36.3191 43.3046 36.2234 43.3116 36.1687C43.3257 36.0595 43.3244 35.9728 43.3234 35.9358C43.3211 35.8535 43.3124 35.7896 43.3087 35.764L40.3393 36.191C40.3355 36.165 40.3268 36.1007 40.3245 36.0182C40.3235 35.9811 40.3221 35.8943 40.3363 35.785C40.3433 35.7303 40.3586 35.6345 40.3953 35.5197C40.4263 35.4228 40.508 35.1967 40.709 34.9733L42.9389 36.9802Z" fill="#F8F9FA" mask="url(#path-1-outside-1_50_9682)"/>
<path d="M8.2683 27.1792C8.73531 19.4736 12.7438 15.115 16.2949 12.8772C17.9614 11.7097 24.1757 10.834 27.5323 12.0015C30.8889 13.1691 40.229 21.7795 38.3318 25.7198C36.4346 29.6602 18.484 36.0815 16.2949 36.5193C14.1059 36.9571 7.68454 36.8112 8.2683 27.1792Z" fill="#FA5252" stroke="#212529" stroke-width="1.6"/>
<g style="mix-blend-mode:multiply">
<path fill-rule="evenodd" clip-rule="evenodd" d="M16.3488 12.5527C13.2475 15.0073 10.2187 19.161 9.81655 25.7971C9.23278 35.4291 15.6541 35.575 17.8432 35.1372C19.4956 34.8067 30.129 31.0668 36.0592 27.5582C31.0346 31.3912 17.628 36.1444 15.7554 36.5189C13.5663 36.9568 7.14499 36.8108 7.72875 27.1788C8.19576 19.4732 12.2042 15.1146 15.7554 12.8768C15.9141 12.7656 16.114 12.6571 16.3488 12.5527Z" fill="#DEE2E6"/>
</g>
<path d="M34.9617 26.8557C33.8411 25.6261 28.0309 27.4738 24.0959 29.3334C20.6102 30.9806 15.5819 34.2232 16.1399 35.178C16.8374 36.3716 23.3579 34.0911 25.5814 33.0044C27.8049 31.9177 36.3625 28.3927 34.9617 26.8557Z" fill="#F03E3E" stroke="#212529"/>
<path d="M14.2028 17.6914C14.0402 18.1404 13.7118 19.1678 13.6985 19.6853" stroke="#212529" stroke-linecap="round"/>
<path d="M16.9662 16.4747C16.9957 17.2202 17.1958 18.0989 17.3129 18.484" stroke="#212529" stroke-linecap="round"/>
<path d="M19.3825 15.1885C20.1149 15.2744 21.0434 15.6747 21.5338 16.0654" stroke="#212529" stroke-linecap="round"/>
<path d="M21.8752 13.5439C22.4855 13.5374 23.4269 13.7322 23.7247 13.9381" stroke="#212529" stroke-linecap="round"/>
<path d="M26.6207 41.7293C26.7071 38.6175 21.8816 31.0559 23.055 30.1677C24.4278 29.1285 26.6467 28.2407 27.0434 28.4741C28.6458 29.4167 33.4533 39.5089 33.9683 41.7293C34.5917 44.4174 34.0763 47.132 30.9428 47.5642C27.8093 47.9964 26.5127 45.6192 26.6207 41.7293Z" fill="#F1F3F5" stroke="#212529" stroke-width="1.2"/>
<g style="mix-blend-mode:multiply">
<path fill-rule="evenodd" clip-rule="evenodd" d="M25.7302 34.5562C26.7643 36.9122 27.9051 39.5113 27.8627 41.0387C27.7609 44.7036 28.906 47.0257 31.6596 46.9205C31.4376 46.9851 31.1989 47.0357 30.9428 47.071C27.8093 47.5032 26.5127 45.1261 26.6207 41.2362C26.6631 39.7089 25.5223 37.1097 24.4883 34.7537C23.4154 32.3094 22.4575 30.1268 23.055 29.6746C24.4278 28.6353 26.6467 27.7476 27.0434 27.981C27.0505 27.9851 27.0577 27.9895 27.0649 27.994C26.2135 28.3024 25.1077 28.8633 24.2969 29.477C23.6995 29.9293 24.6574 32.1119 25.7302 34.5562Z" fill="#DEE2E6"/>
</g>
<g style="mix-blend-mode:multiply">
<path d="M27.7124 29.7178C26.7121 29.8221 24.2799 31.2385 23.1889 31.9337L22.994 30.6995L24.2444 29.8522C24.698 29.5916 25.7744 29.0572 26.4511 29.005C27.1278 28.9529 27.4918 29.4137 27.7124 29.7178Z" fill="#CED4DA"/>
</g>
<path d="M52.1609 34.1072C51.8522 29.0141 49.2028 26.1332 46.8556 24.6542C45.7541 23.8824 41.6467 23.3036 39.4281 24.0754C37.2095 24.8471 31.0361 30.5382 32.2901 33.1426C33.544 35.747 45.4087 39.9913 46.8556 40.2807C48.3025 40.5701 52.5467 40.4736 52.1609 34.1072Z" fill="#FA5252" stroke="#212529" stroke-width="1.6"/>
<path d="M34.5175 33.8937C35.2582 33.0809 39.0985 34.3023 41.6994 35.5314C44.0033 36.6201 47.3268 38.7633 46.958 39.3944C46.497 40.1834 42.1872 38.676 40.7175 37.9577C39.2479 37.2395 33.5916 34.9096 34.5175 33.8937Z" fill="#F03E3E" stroke="#212529"/>
<path d="M40.0306 43.7243C39.9735 41.6675 43.1629 36.6696 42.3874 36.0825C41.48 35.3956 40.2608 34.869 39.461 35.4404C38.4611 36.1546 35.317 42.2245 35.1741 43.7243C35.0313 45.2241 35.1027 47.2953 37.1739 47.5809C39.245 47.8666 40.102 46.2954 40.0306 43.7243Z" fill="#F1F3F5" stroke="#212529" stroke-width="1.2"/>
<g style="mix-blend-mode:multiply">
<path d="M39.2941 35.8785C39.9553 35.9563 41.5629 37.0129 42.2841 37.5315L42.4128 36.6108L41.5864 35.9788C41.2866 35.7843 40.5751 35.3857 40.1279 35.3468C39.6806 35.3079 39.44 35.6516 39.2941 35.8785Z" fill="#CED4DA"/>
</g>
</svg>
