<svg width="60" height="61" viewBox="0 0 60 61" fill="none" xmlns="http://www.w3.org/2000/svg">
<mask id="path-1-outside-1_50_1265" maskUnits="userSpaceOnUse" x="8.58887" y="9.08716" width="43" height="43" fill="black">
<rect fill="white" x="8.58887" y="9.08716" width="43" height="43"/>
<path fill-rule="evenodd" clip-rule="evenodd" d="M30 11.0872C19.2795 11.0872 10.5889 19.7778 10.5889 30.4983C10.5889 41.2188 19.2795 49.9095 30 49.9095C40.7205 49.9095 49.4112 41.2188 49.4112 30.4983C49.4112 19.7778 40.7205 11.0872 30 11.0872Z"/>
</mask>
<path fill-rule="evenodd" clip-rule="evenodd" d="M30 11.0872C19.2795 11.0872 10.5889 19.7778 10.5889 30.4983C10.5889 41.2188 19.2795 49.9095 30 49.9095C40.7205 49.9095 49.4112 41.2188 49.4112 30.4983C49.4112 19.7778 40.7205 11.0872 30 11.0872Z" fill="#F8F9FA"/>
<path d="M12.0889 30.4983C12.0889 20.6063 20.108 12.5872 30 12.5872V9.58716C18.4511 9.58716 9.08887 18.9494 9.08887 30.4983H12.0889ZM30 48.4095C20.108 48.4095 12.0889 40.3904 12.0889 30.4983H9.08887C9.08887 42.0472 18.4511 51.4095 30 51.4095V48.4095ZM47.9112 30.4983C47.9112 40.3904 39.8921 48.4095 30 48.4095V51.4095C41.5489 51.4095 50.9112 42.0472 50.9112 30.4983H47.9112ZM30 12.5872C39.8921 12.5872 47.9112 20.6063 47.9112 30.4983H50.9112C50.9112 18.9494 41.5489 9.58716 30 9.58716V12.5872Z" fill="#F8F9FA" mask="url(#path-1-outside-1_50_1265)"/>
<circle cx="30" cy="30.5" r="18.2112" fill="#FA5252" stroke="#212529" stroke-width="2.4"/>
<g style="mix-blend-mode:multiply">
<path fill-rule="evenodd" clip-rule="evenodd" d="M29.4407 47.7032C38.2752 46.9424 45.2086 39.5301 45.2086 30.4984C45.2086 21.4667 38.2752 14.0544 29.4407 13.2936C29.9354 13.251 30.4361 13.2292 30.9419 13.2292C40.4794 13.2292 48.2111 20.9609 48.2111 30.4984C48.2111 40.0359 40.4794 47.7676 30.9419 47.7676C30.4361 47.7676 29.9354 47.7458 29.4407 47.7032Z" fill="#DEE2E6"/>
</g>
<g style="mix-blend-mode:soft-light" opacity="0.8">
<path d="M21.3911 18.0711C20.9653 17.8204 19.6206 18.7169 18.1678 20.3484C16.6819 22.0169 16.2219 23.4509 16.6653 23.89C17.2195 24.4389 19.1092 22.5778 19.6621 21.618C20.8877 19.8809 21.9234 18.3846 21.3911 18.0711Z" fill="#F8F9FA"/>
</g>
<path fill-rule="evenodd" clip-rule="evenodd" d="M23.8488 24.0867L36.7569 37.2936Z" fill="#F8F9FA"/>
<path d="M23.8488 24.0867L36.7569 37.2936" stroke="#212529" stroke-width="3.4" stroke-linecap="round"/>
<path fill-rule="evenodd" clip-rule="evenodd" d="M36.1511 24.0867L23.243 37.2936Z" fill="#F8F9FA"/>
<path d="M36.1511 24.0867L23.243 37.2936" stroke="#212529" stroke-width="3.4" stroke-linecap="round"/>
</svg>
