<svg width="60" height="61" viewBox="0 0 60 61" fill="none" xmlns="http://www.w3.org/2000/svg">
<path d="M13.1335 30.3911C13.1335 21.076 20.6849 13.5247 30 13.5247C39.315 13.5247 46.8664 21.076 46.8664 30.3911C46.8664 39.7061 39.315 47.2575 30 47.2575C20.6849 47.2575 13.1335 39.7061 13.1335 30.3911ZM30 10.0247C18.7519 10.0247 9.63354 19.143 9.63354 30.3911C9.63354 41.6391 18.7519 50.7575 30 50.7575C41.248 50.7575 50.3664 41.6391 50.3664 30.3911C50.3664 19.143 41.248 10.0247 30 10.0247Z" fill="#F8F9FA" stroke="#F8F9FA" stroke-width="1.5" stroke-linecap="round" stroke-linejoin="round"/>
<circle cx="30" cy="30.3913" r="18.6164" fill="#FFD43B" stroke="#212529" stroke-width="2" stroke-linecap="round" stroke-linejoin="round"/>
<g style="mix-blend-mode:multiply">
<path fill-rule="evenodd" clip-rule="evenodd" d="M27.9342 47.344C37.7565 47.344 45.7189 39.3815 45.7189 29.5593C45.7189 22.4787 41.5811 16.3645 35.5917 13.5029C42.6744 15.8468 47.7847 22.522 47.7847 30.3908C47.7847 40.213 39.8222 48.1755 30 48.1755C27.2583 48.1755 24.6616 47.5552 22.3425 46.4472C24.1009 47.029 25.9808 47.344 27.9342 47.344Z" fill="#FFD43B"/>
</g>
<g style="mix-blend-mode:soft-light" opacity="0.8">
<path d="M20.9718 19.1419C21.7329 18.3678 20.819 17.6249 19.9633 17.8212C19.2456 17.9858 17.4803 19.6543 16.5908 21.3403C15.7013 23.0262 17.0361 23.7713 17.5533 23.1624C18.0704 22.5536 20.0205 20.1096 20.9718 19.1419Z" fill="#F8F9FA"/>
</g>
<path d="M41.53 34.3227C41.53 34.3227 40.3042 37.3338 37.4675 39.36C34.6308 41.3861 31.3849 41.569 31.3849 41.569" stroke="#212529" stroke-width="2" stroke-linecap="round"/>
<circle cx="22.8837" cy="23.3226" r="1.39729" fill="#212529"/>
<circle cx="34.065" cy="23.3226" r="1.39729" fill="#212529"/>
</svg>
