<svg width="60" height="60" viewBox="0 0 60 60" fill="none" xmlns="http://www.w3.org/2000/svg">
<g clip-path="url(#clip0_50_7191)">
<mask id="path-1-outside-1_50_7191" maskUnits="userSpaceOnUse" x="-3.28232" y="0.545108" width="62.9325" height="62.9325" fill="black">
<rect fill="white" x="-3.28232" y="0.545108" width="62.9325" height="62.9325"/>
<path fill-rule="evenodd" clip-rule="evenodd" d="M45.3903 14.5695L45.3808 14.5602C43.3046 12.4874 39.9829 10.315 36.6515 9.1716C33.3846 8.05035 29.6799 7.78971 27.3178 10.2519C25.2049 12.4544 24.1129 16.1034 23.5571 19.6174C22.9937 23.1791 22.9499 26.8179 23.0851 29.1996C23.0879 29.2477 23.0924 29.2954 23.0987 29.3427C23.0219 29.3993 22.9483 29.4624 22.8787 29.532L10.0273 42.3834C8.1537 44.257 8.1537 47.2948 10.0273 49.1685L10.4829 49.624C12.3566 51.4977 15.3944 51.4977 17.268 49.624L30.1194 36.7727C30.131 36.761 30.1425 36.7493 30.1538 36.7374C30.3438 36.8151 30.5481 36.8626 30.7602 36.8746C33.142 37.0098 36.7807 36.9661 40.3424 36.4027C43.8564 35.8468 47.5055 34.7549 49.7079 32.642C52.1702 30.2798 51.9095 26.5751 50.7882 23.3082C49.6431 19.9718 47.4658 16.645 45.3903 14.5695ZM24.1656 30.9592L26.5831 33.3767L26.5921 33.3856L28.6923 35.4857L15.911 48.267C14.7868 49.3912 12.9641 49.3912 11.8399 48.267L11.3844 47.8114C10.2602 46.6872 10.2602 44.8646 11.3844 43.7404L24.1656 30.9592ZM30.4809 34.5604L30.8798 34.9592C33.1552 35.0876 36.6481 35.0441 40.0426 34.5071C43.4903 33.9618 46.6272 32.938 48.3793 31.2571C49.9755 29.7258 50.045 27.0544 48.9731 23.9312C47.9266 20.8824 45.9134 17.8099 44.042 15.9352L44.0332 15.9265C42.1593 14.0527 39.082 12.0348 36.0285 10.9868C32.9053 9.91488 30.234 9.98433 28.7027 11.5805C27.0218 13.3326 25.998 16.4696 25.4526 19.9172C24.9157 23.3118 24.8721 26.8046 25.0005 29.0801L25.0907 29.1703C25.2719 29.2605 25.4418 29.381 25.5928 29.532L30.1194 34.0586C30.2703 34.2095 30.3908 34.3793 30.4809 34.5604Z"/>
</mask>
<path fill-rule="evenodd" clip-rule="evenodd" d="M45.3903 14.5695L45.3808 14.5602C43.3046 12.4874 39.9829 10.315 36.6515 9.1716C33.3846 8.05035 29.6799 7.78971 27.3178 10.2519C25.2049 12.4544 24.1129 16.1034 23.5571 19.6174C22.9937 23.1791 22.9499 26.8179 23.0851 29.1996C23.0879 29.2477 23.0924 29.2954 23.0987 29.3427C23.0219 29.3993 22.9483 29.4624 22.8787 29.532L10.0273 42.3834C8.1537 44.257 8.1537 47.2948 10.0273 49.1685L10.4829 49.624C12.3566 51.4977 15.3944 51.4977 17.268 49.624L30.1194 36.7727C30.131 36.761 30.1425 36.7493 30.1538 36.7374C30.3438 36.8151 30.5481 36.8626 30.7602 36.8746C33.142 37.0098 36.7807 36.9661 40.3424 36.4027C43.8564 35.8468 47.5055 34.7549 49.7079 32.642C52.1702 30.2798 51.9095 26.5751 50.7882 23.3082C49.6431 19.9718 47.4658 16.645 45.3903 14.5695ZM24.1656 30.9592L26.5831 33.3767L26.5921 33.3856L28.6923 35.4857L15.911 48.267C14.7868 49.3912 12.9641 49.3912 11.8399 48.267L11.3844 47.8114C10.2602 46.6872 10.2602 44.8646 11.3844 43.7404L24.1656 30.9592ZM30.4809 34.5604L30.8798 34.9592C33.1552 35.0876 36.6481 35.0441 40.0426 34.5071C43.4903 33.9618 46.6272 32.938 48.3793 31.2571C49.9755 29.7258 50.045 27.0544 48.9731 23.9312C47.9266 20.8824 45.9134 17.8099 44.042 15.9352L44.0332 15.9265C42.1593 14.0527 39.082 12.0348 36.0285 10.9868C32.9053 9.91488 30.234 9.98433 28.7027 11.5805C27.0218 13.3326 25.998 16.4696 25.4526 19.9172C24.9157 23.3118 24.8721 26.8046 25.0005 29.0801L25.0907 29.1703C25.2719 29.2605 25.4418 29.381 25.5928 29.532L30.1194 34.0586C30.2703 34.2095 30.3908 34.3793 30.4809 34.5604Z" fill="#F8F9FA"/>
<path d="M45.3808 14.5602L44.321 15.6217L44.3273 15.6279L45.3808 14.5602ZM45.3903 14.5695L46.451 13.5088L46.4439 13.5018L45.3903 14.5695ZM36.6515 9.1716L36.1645 10.5904L36.1645 10.5904L36.6515 9.1716ZM27.3178 10.2519L28.4002 11.2904L27.3178 10.2519ZM23.5571 19.6174L22.0755 19.3831L22.0755 19.3831L23.5571 19.6174ZM23.0851 29.1996L21.5875 29.2847L21.5875 29.2847L23.0851 29.1996ZM23.0987 29.3427L23.9888 30.55C24.4293 30.2253 24.658 29.6864 24.5855 29.144L23.0987 29.3427ZM30.1538 36.7374L30.7217 35.3491C30.1497 35.115 29.4927 35.2559 29.0668 35.7038L30.1538 36.7374ZM30.7602 36.8746L30.8452 35.377L30.8452 35.377L30.7602 36.8746ZM40.3424 36.4027L40.5768 37.8842L40.5768 37.8842L40.3424 36.4027ZM49.7079 32.642L50.7464 33.7244L50.7464 33.7244L49.7079 32.642ZM50.7882 23.3082L52.207 22.8213L52.207 22.8213L50.7882 23.3082ZM26.5831 33.3767L25.5224 34.4374L25.5293 34.4442L26.5831 33.3767ZM24.1656 30.9592L25.2262 29.8985C24.9449 29.6172 24.5634 29.4592 24.1656 29.4592C23.7677 29.4592 23.3862 29.6172 23.1049 29.8985L24.1656 30.9592ZM26.5921 33.3856L27.6528 32.3249L27.6459 32.3181L26.5921 33.3856ZM28.6923 35.4857L29.7529 36.5464C30.3387 35.9606 30.3387 35.0109 29.7529 34.4251L28.6923 35.4857ZM30.4809 34.5604L29.1381 35.2289C29.2104 35.374 29.3057 35.5064 29.4203 35.6211L30.4809 34.5604ZM30.8798 34.9592L29.8191 36.0199C30.0797 36.2805 30.4272 36.436 30.7952 36.4568L30.8798 34.9592ZM40.0426 34.5071L40.277 35.9887L40.277 35.9887L40.0426 34.5071ZM48.3793 31.2571L49.4178 32.3395L49.4178 32.3395L48.3793 31.2571ZM48.9731 23.9312L50.3918 23.4443L50.3918 23.4443L48.9731 23.9312ZM44.042 15.9352L45.1036 14.8755L45.096 14.868L44.042 15.9352ZM44.0332 15.9265L42.9725 16.9872L42.9791 16.9938L44.0332 15.9265ZM36.0285 10.9868L35.5415 12.4055L35.5415 12.4055L36.0285 10.9868ZM28.7027 11.5805L29.7851 12.619L29.7851 12.619L28.7027 11.5805ZM25.4526 19.9172L26.9342 20.1516L26.9342 20.1516L25.4526 19.9172ZM25.0005 29.0801L23.5029 29.1646C23.5237 29.5326 23.6792 29.8801 23.9399 30.1408L25.0005 29.0801ZM25.0907 29.1703L24.0301 30.231C24.1448 30.3456 24.2773 30.441 24.4225 30.5132L25.0907 29.1703ZM44.3273 15.6279L44.3367 15.6372L46.4439 13.5018L46.4344 13.4925L44.3273 15.6279ZM36.1645 10.5904C39.275 11.6579 42.4022 13.706 44.3211 15.6217L46.4406 13.4986C44.2071 11.2688 40.6907 8.97205 37.1384 7.75284L36.1645 10.5904ZM28.4002 11.2904C30.1112 9.50688 33.0058 9.50624 36.1645 10.5904L37.1384 7.75284C33.7634 6.59447 29.2487 6.07254 26.2354 9.2135L28.4002 11.2904ZM25.0387 19.8518C25.5862 16.39 26.6248 13.141 28.4002 11.2904L26.2354 9.2135C23.7849 11.7678 22.6396 15.8168 22.0755 19.3831L25.0387 19.8518ZM24.5827 29.1146C24.4522 26.8161 24.4953 23.287 25.0387 19.8518L22.0755 19.3831C21.4921 23.0713 21.4476 26.8196 21.5875 29.2847L24.5827 29.1146ZM24.5855 29.144C24.5842 29.1344 24.5833 29.1246 24.5827 29.1146L21.5875 29.2847C21.5924 29.3709 21.6006 29.4565 21.6119 29.5414L24.5855 29.144ZM23.9394 30.5927C23.9556 30.5764 23.9722 30.5623 23.9888 30.55L22.2086 28.1353C22.0716 28.2363 21.9409 28.3485 21.8181 28.4713L23.9394 30.5927ZM11.088 43.444L23.9394 30.5927L21.8181 28.4713L8.96669 41.3227L11.088 43.444ZM11.088 48.1078C9.80014 46.8199 9.80014 44.7319 11.088 43.444L8.96669 41.3227C6.50725 43.7821 6.50725 47.7697 8.96669 50.2291L11.088 48.1078ZM11.5436 48.5634L11.088 48.1078L8.96669 50.2291L9.42226 50.6847L11.5436 48.5634ZM16.2073 48.5634C14.9195 49.8512 12.8314 49.8512 11.5436 48.5634L9.42226 50.6847C11.8817 53.1441 15.8692 53.1441 18.3287 50.6847L16.2073 48.5634ZM29.0587 35.712L16.2073 48.5634L18.3287 50.6847L31.18 37.8333L29.0587 35.712ZM29.0668 35.7038C29.0641 35.7065 29.0614 35.7093 29.0587 35.712L31.18 37.8333C31.2006 37.8127 31.2209 37.792 31.2408 37.771L29.0668 35.7038ZM30.8452 35.377C30.8019 35.3746 30.7607 35.365 30.7217 35.3491L29.5858 38.1257C29.927 38.2653 30.2943 38.3506 30.6752 38.3722L30.8452 35.377ZM40.1081 34.9211C36.6728 35.4645 33.1437 35.5075 30.8452 35.377L30.6752 38.3722C33.1402 38.5122 36.8886 38.4676 40.5768 37.8842L40.1081 34.9211ZM48.6695 31.5595C46.8189 33.3349 43.5698 34.3735 40.1081 34.9211L40.5768 37.8842C44.143 37.3201 48.1921 36.1748 50.7464 33.7244L48.6695 31.5595ZM49.3695 23.7952C50.4536 26.9539 50.453 29.8485 48.6695 31.5595L50.7464 33.7244C53.8873 30.711 53.3654 26.1963 52.207 22.8213L49.3695 23.7952ZM44.3296 15.6302C46.2475 17.5481 48.3002 20.6798 49.3695 23.7952L52.207 22.8213C50.986 19.2638 48.6841 15.742 46.451 13.5088L44.3296 15.6302ZM27.6438 32.316L25.2262 29.8985L23.1049 32.0198L25.5224 34.4374L27.6438 32.316ZM27.6459 32.3181L27.6369 32.3092L25.5293 34.4442L25.5384 34.4531L27.6459 32.3181ZM29.7529 34.4251L27.6528 32.325L25.5315 34.4463L27.6316 36.5464L29.7529 34.4251ZM16.9717 49.3277L29.7529 36.5464L27.6316 34.4251L14.8503 47.2063L16.9717 49.3277ZM10.7793 49.3277C12.4893 51.0376 15.2617 51.0376 16.9717 49.3277L14.8503 47.2063C14.3119 47.7448 13.439 47.7448 12.9006 47.2063L10.7793 49.3277ZM10.3237 48.8721L10.7793 49.3277L12.9006 47.2063L12.445 46.7508L10.3237 48.8721ZM10.3237 42.6797C8.61373 44.3897 8.61373 47.1621 10.3237 48.8721L12.445 46.7508C11.9066 46.2124 11.9066 45.3394 12.445 44.801L10.3237 42.6797ZM23.1049 29.8985L10.3237 42.6797L12.445 44.801L25.2262 32.0198L23.1049 29.8985ZM29.4203 35.6211L29.8191 36.0199L31.9404 33.8985L31.5416 33.4997L29.4203 35.6211ZM30.7952 36.4568C33.1538 36.5899 36.7561 36.5456 40.277 35.9887L39.8083 33.0255C36.54 33.5425 33.1566 33.5853 30.9643 33.4616L30.7952 36.4568ZM40.277 35.9887C43.776 35.4352 47.3135 34.3582 49.4178 32.3395L47.3409 30.1747C45.941 31.5177 43.2046 32.4883 39.8082 33.0255L40.277 35.9887ZM49.4178 32.3395C51.6885 30.1611 51.5042 26.6853 50.3918 23.4443L47.5543 24.4182C48.5858 27.4234 48.2626 29.2904 47.3409 30.1747L49.4178 32.3395ZM50.3918 23.4443C49.2696 20.1745 47.132 16.9075 45.1036 14.8755L42.9804 16.995C44.6948 18.7124 46.5837 21.5902 47.5543 24.4182L50.3918 23.4443ZM45.096 14.868L45.0872 14.8593L42.9791 16.9938L42.988 17.0025L45.096 14.868ZM45.0938 14.8658C43.0623 12.8344 39.79 10.6919 36.5154 9.56802L35.5415 12.4055C38.374 13.3777 41.2563 15.271 42.9725 16.9872L45.0938 14.8658ZM36.5154 9.56802C33.2744 8.45566 29.7986 8.27139 27.6202 10.5421L29.7851 12.619C30.6693 11.6973 32.5363 11.3741 35.5415 12.4055L36.5154 9.56802ZM27.6202 10.5421C25.6015 12.6463 24.5245 16.1839 23.971 19.6829L26.9342 20.1516C27.4714 16.7553 28.442 14.0189 29.7851 12.619L27.6202 10.5421ZM23.971 19.6829C23.4141 23.2038 23.3698 26.8061 23.5029 29.1646L26.4982 28.9956C26.3744 26.8032 26.4172 23.4198 26.9342 20.1516L23.971 19.6829ZM23.9399 30.1408L24.0301 30.231L26.1514 28.1096L26.0612 28.0194L23.9399 30.1408ZM24.4225 30.5132C24.4603 30.532 24.4973 30.5578 24.5321 30.5927L26.6534 28.4713C26.3863 28.2042 26.0835 27.9889 25.759 27.8274L24.4225 30.5132ZM24.5321 30.5927L29.0587 35.1193L31.18 32.998L26.6534 28.4713L24.5321 30.5927ZM29.0587 35.1193C29.0935 35.1541 29.1193 35.191 29.1381 35.2289L31.8238 33.8919C31.6623 33.5676 31.447 33.265 31.18 32.998L29.0587 35.1193Z" fill="#F8F9FA" mask="url(#path-1-outside-1_50_7191)"/>
<path fill-rule="evenodd" clip-rule="evenodd" d="M44.6979 15.2933C44.6979 15.2933 44.698 15.2933 44.698 15.2933C48.6474 19.2428 53.0883 28.1013 49.0298 31.9948C45.0797 35.7844 35.4791 36.2253 30.8163 35.9628C30.575 35.9492 30.3499 35.8455 30.179 35.6746L27.248 32.7435C27.2479 32.7435 27.2479 32.7435 27.2478 32.7435V32.7435C27.2478 32.7436 27.2477 32.7436 27.2477 32.7435L24.3166 29.8124C24.1457 29.6415 24.042 29.4164 24.0284 29.1751C23.7658 24.5124 24.2067 14.9118 27.9963 10.9616C31.8898 6.9032 40.7483 11.344 44.6977 15.2933C44.6978 15.2934 44.6978 15.2934 44.6979 15.2933V15.2933Z" fill="#FFA8A8"/>
<path d="M49.0298 31.9948L48.4068 31.3454L49.0298 31.9948ZM27.9963 10.9616L27.3468 10.3386L27.9963 10.9616ZM24.0283 29.1752L24.9269 29.1246L24.0283 29.1752ZM30.8163 35.9628L30.7657 36.8614L30.8163 35.9628ZM49.6529 32.6443C52.0882 30.3079 51.8378 26.6353 50.7181 23.3729C49.576 20.0453 47.4037 16.7263 45.3344 14.657L44.0616 15.9298C45.9417 17.8099 47.9645 20.8949 49.0156 23.9572C50.089 27.0848 50.0298 29.7883 48.4068 31.3454L49.6529 32.6443ZM30.7657 36.8614C33.1469 36.9955 36.7785 36.9504 40.3312 36.3873C43.8392 35.8312 47.4668 34.7415 49.6529 32.6443L48.4068 31.3454C46.6427 33.0377 43.4949 34.0633 40.0494 34.6095C36.6485 35.1485 33.1484 35.1927 30.8669 35.0642L30.7657 36.8614ZM26.6116 33.3799L29.5426 36.311L30.8154 35.0382L27.8844 32.1072L26.6116 33.3799ZM27.884 32.1072L24.9529 29.176L23.6801 30.4488L26.6113 33.3799L27.884 32.1072ZM24.9269 29.1246C24.7984 26.843 24.8426 23.3429 25.3817 19.9421C25.9278 16.4965 26.9534 13.3487 28.6458 11.5847L27.3468 10.3386C25.2496 12.5247 24.1599 16.1523 23.6039 19.6603C23.0407 23.2129 22.9957 26.8445 23.1298 29.2258L24.9269 29.1246ZM28.6458 11.5847C30.2029 9.96163 32.9063 9.90242 36.0338 10.9758C39.0962 12.0269 42.1812 14.0497 44.0613 15.9298L45.3341 14.657C43.2648 12.5877 39.9458 10.4154 36.6182 9.27332C33.3558 8.15362 29.6832 7.90323 27.3468 10.3386L28.6458 11.5847ZM44.0613 15.9298C44.4268 16.2953 44.9969 16.2671 45.3343 15.9298L44.0615 14.657C44.3987 14.3197 44.9687 14.2915 45.3341 14.657L44.0613 15.9298ZM24.9529 29.176C24.9332 29.1563 24.9277 29.1377 24.9269 29.1246L23.1298 29.2258C23.1562 29.6952 23.3581 30.1268 23.6801 30.4488L24.9529 29.176ZM26.6114 32.1072C26.9628 31.7557 27.5326 31.7557 27.884 32.1072L26.6113 33.3799C26.9628 33.7315 27.5327 33.7315 27.8842 33.3799L26.6114 32.1072ZM27.8844 32.1072C27.5328 31.7556 26.9629 31.7556 26.6114 32.1072L27.8842 33.3799C27.5328 33.7314 26.963 33.7314 26.6116 33.3799L27.8844 32.1072ZM30.8669 35.0642C30.8537 35.0635 30.8351 35.0579 30.8154 35.0382L29.5426 36.311C29.8647 36.6331 30.2963 36.8349 30.7657 36.8614L30.8669 35.0642ZM45.3344 14.657C44.9689 14.2914 44.3988 14.3196 44.0615 14.657L45.3343 15.9298C44.997 16.267 44.4271 16.2952 44.0616 15.9298L45.3344 14.657Z" fill="#212529"/>
<path d="M33.8564 26.1348L27.4377 32.6068" stroke="#212529" stroke-width="1.6" stroke-linecap="round"/>
<path d="M29.7073 23.4521L25.3887 30.8846" stroke="#212529" stroke-width="1.6" stroke-linecap="round"/>
<path d="M36.7513 30.0352L29.1597 34.6553" stroke="#212529" stroke-width="1.6" stroke-linecap="round"/>
<path d="M23.5148 30.2843C23.9053 29.8937 24.5385 29.8937 24.929 30.2843L29.3985 34.7537C29.789 35.1442 29.789 35.7774 29.3985 36.1679L16.6901 48.8763C15.128 50.4384 12.5953 50.4384 11.0332 48.8763L10.8064 48.6495C9.24434 47.0874 9.24434 44.5547 10.8064 42.9926L23.5148 30.2843Z" fill="#BE4BDB" stroke="#212529" stroke-width="1.8" stroke-linejoin="round"/>
<g style="mix-blend-mode:multiply">
<path fill-rule="evenodd" clip-rule="evenodd" d="M8.59407 44.363L7.57959 45.3774L13.4632 51.2611L29.0443 35.68L28.23 34.8657L15.6492 47.4465C14.0871 49.0086 11.5544 49.0086 9.99233 47.4465L9.76554 47.2197C8.97728 46.4315 8.58679 45.3961 8.59407 44.363Z" fill="#DEE2E6"/>
</g>
<path d="M20.5337 33.8975L25.9077 39.2715" stroke="#212529" stroke-width="1.8" stroke-linecap="round"/>
<g style="mix-blend-mode:multiply">
<path fill-rule="evenodd" clip-rule="evenodd" d="M44.9982 14.8955C48.9476 18.8449 53.3885 27.7035 49.33 31.5971C45.2716 35.4906 35.2485 35.8492 30.7443 35.5419L29.322 34.1195C34.0847 34.3468 43.3696 33.8466 47.2373 30.1361C50.732 26.7834 47.9246 19.7492 44.5556 15.3381L44.9982 14.8955Z" fill="#DEE2E6"/>
</g>
</g>
<defs>
<clipPath id="clip0_50_7191">
<rect width="60" height="60" fill="white"/>
</clipPath>
</defs>
</svg>
