<svg width="60" height="61" viewBox="0 0 60 61" fill="none" xmlns="http://www.w3.org/2000/svg">
<mask id="path-1-outside-1_50_2166" maskUnits="userSpaceOnUse" x="7.41455" y="8.70068" width="45" height="44" fill="black">
<rect fill="white" x="7.41455" y="8.70068" width="45" height="44"/>
<path fill-rule="evenodd" clip-rule="evenodd" d="M21.0531 10.7007C21.5899 10.7007 22.0251 11.1359 22.0251 11.6728V15.4887L25.9208 15.4887V11.6728C25.9208 11.1359 26.356 10.7007 26.8929 10.7007C27.4297 10.7007 27.8649 11.1359 27.8649 11.6728V15.4887H31.7606V11.6728C31.7606 11.1359 32.1958 10.7007 32.7327 10.7007C33.2695 10.7007 33.7047 11.1359 33.7047 11.6728V15.4887H37.9572V11.6728C37.9572 11.1359 38.3924 10.7007 38.9293 10.7007C39.4662 10.7007 39.9014 11.1359 39.9014 11.6728V15.4887H43.0205C44.6311 15.4887 45.9367 16.7944 45.9367 18.405V20.9473H49.5958C50.1326 20.9473 50.5679 21.3825 50.5679 21.9194C50.5679 22.4562 50.1326 22.8915 49.5958 22.8915H45.9367V26.7871H49.5958C50.1326 26.7871 50.5679 27.2223 50.5679 27.7592C50.5679 28.2961 50.1326 28.7313 49.5958 28.7313H45.9367V32.6269H49.5958C50.1326 32.6269 50.5679 33.0621 50.5679 33.599C50.5679 34.1359 50.1326 34.5711 49.5958 34.5711H45.9367V38.8235H49.5958C50.1326 38.8235 50.5679 39.2587 50.5679 39.7956C50.5679 40.3325 50.1326 40.7677 49.5958 40.7677H45.9367V43.31C45.9367 44.9206 44.6311 46.2262 43.0205 46.2262H39.9014V50.0418C39.9014 50.5787 39.4662 51.0139 38.9293 51.0139C38.3924 51.0139 37.9572 50.5787 37.9572 50.0418V46.2262H33.7047V50.0418C33.7047 50.5787 33.2695 51.0139 32.7327 51.0139C32.1958 51.0139 31.7606 50.5787 31.7606 50.0418V46.2262L27.8649 46.2262V50.0418C27.8649 50.5787 27.4297 51.0139 26.8929 51.0139C26.356 51.0139 25.9208 50.5787 25.9208 50.0418V46.2262H22.0251V50.0418C22.0251 50.5787 21.5899 51.0139 21.0531 51.0139C20.5162 51.0139 20.081 50.5787 20.081 50.0418V46.2262H16.9619C15.3513 46.2262 14.0457 44.9206 14.0457 43.31L14.0457 40.7677H10.3866C9.84977 40.7677 9.41455 40.3325 9.41455 39.7956C9.41455 39.2587 9.84977 38.8235 10.3866 38.8235H14.0457V34.5711H10.3866C9.84977 34.5711 9.41455 34.1359 9.41455 33.599C9.41455 33.0621 9.84977 32.6269 10.3866 32.6269H14.0457V28.7313H10.3866C9.84977 28.7313 9.41455 28.2961 9.41455 27.7592C9.41455 27.2223 9.84977 26.7871 10.3866 26.7871H14.0457L14.0457 22.8915H10.3866C9.84977 22.8915 9.41455 22.4562 9.41455 21.9194C9.41455 21.3825 9.84977 20.9473 10.3866 20.9473H14.0457L14.0457 18.405C14.0457 16.7944 15.3513 15.4887 16.9619 15.4887L20.081 15.4887V11.6728C20.081 11.1359 20.5162 10.7007 21.0531 10.7007ZM43.9926 39.7917L43.9926 39.7956L43.9926 39.7995V43.31C43.9926 43.8469 43.5574 44.2821 43.0205 44.2821L16.9619 44.2821C16.4251 44.2821 15.9899 43.8469 15.9899 43.31L15.9899 18.405C15.9899 17.8681 16.4251 17.4329 16.9619 17.4329L43.0205 17.4329C43.5574 17.4329 43.9926 17.8681 43.9926 18.405V21.9155L43.9926 21.9194L43.9926 21.9233V27.7553L43.9926 27.7592L43.9926 27.7631L43.9926 33.5951L43.9926 33.599L43.9926 33.6029V39.7917Z"/>
</mask>
<path fill-rule="evenodd" clip-rule="evenodd" d="M21.0531 10.7007C21.5899 10.7007 22.0251 11.1359 22.0251 11.6728V15.4887L25.9208 15.4887V11.6728C25.9208 11.1359 26.356 10.7007 26.8929 10.7007C27.4297 10.7007 27.8649 11.1359 27.8649 11.6728V15.4887H31.7606V11.6728C31.7606 11.1359 32.1958 10.7007 32.7327 10.7007C33.2695 10.7007 33.7047 11.1359 33.7047 11.6728V15.4887H37.9572V11.6728C37.9572 11.1359 38.3924 10.7007 38.9293 10.7007C39.4662 10.7007 39.9014 11.1359 39.9014 11.6728V15.4887H43.0205C44.6311 15.4887 45.9367 16.7944 45.9367 18.405V20.9473H49.5958C50.1326 20.9473 50.5679 21.3825 50.5679 21.9194C50.5679 22.4562 50.1326 22.8915 49.5958 22.8915H45.9367V26.7871H49.5958C50.1326 26.7871 50.5679 27.2223 50.5679 27.7592C50.5679 28.2961 50.1326 28.7313 49.5958 28.7313H45.9367V32.6269H49.5958C50.1326 32.6269 50.5679 33.0621 50.5679 33.599C50.5679 34.1359 50.1326 34.5711 49.5958 34.5711H45.9367V38.8235H49.5958C50.1326 38.8235 50.5679 39.2587 50.5679 39.7956C50.5679 40.3325 50.1326 40.7677 49.5958 40.7677H45.9367V43.31C45.9367 44.9206 44.6311 46.2262 43.0205 46.2262H39.9014V50.0418C39.9014 50.5787 39.4662 51.0139 38.9293 51.0139C38.3924 51.0139 37.9572 50.5787 37.9572 50.0418V46.2262H33.7047V50.0418C33.7047 50.5787 33.2695 51.0139 32.7327 51.0139C32.1958 51.0139 31.7606 50.5787 31.7606 50.0418V46.2262L27.8649 46.2262V50.0418C27.8649 50.5787 27.4297 51.0139 26.8929 51.0139C26.356 51.0139 25.9208 50.5787 25.9208 50.0418V46.2262H22.0251V50.0418C22.0251 50.5787 21.5899 51.0139 21.0531 51.0139C20.5162 51.0139 20.081 50.5787 20.081 50.0418V46.2262H16.9619C15.3513 46.2262 14.0457 44.9206 14.0457 43.31L14.0457 40.7677H10.3866C9.84977 40.7677 9.41455 40.3325 9.41455 39.7956C9.41455 39.2587 9.84977 38.8235 10.3866 38.8235H14.0457V34.5711H10.3866C9.84977 34.5711 9.41455 34.1359 9.41455 33.599C9.41455 33.0621 9.84977 32.6269 10.3866 32.6269H14.0457V28.7313H10.3866C9.84977 28.7313 9.41455 28.2961 9.41455 27.7592C9.41455 27.2223 9.84977 26.7871 10.3866 26.7871H14.0457L14.0457 22.8915H10.3866C9.84977 22.8915 9.41455 22.4562 9.41455 21.9194C9.41455 21.3825 9.84977 20.9473 10.3866 20.9473H14.0457L14.0457 18.405C14.0457 16.7944 15.3513 15.4887 16.9619 15.4887L20.081 15.4887V11.6728C20.081 11.1359 20.5162 10.7007 21.0531 10.7007ZM43.9926 39.7917L43.9926 39.7956L43.9926 39.7995V43.31C43.9926 43.8469 43.5574 44.2821 43.0205 44.2821L16.9619 44.2821C16.4251 44.2821 15.9899 43.8469 15.9899 43.31L15.9899 18.405C15.9899 17.8681 16.4251 17.4329 16.9619 17.4329L43.0205 17.4329C43.5574 17.4329 43.9926 17.8681 43.9926 18.405V21.9155L43.9926 21.9194L43.9926 21.9233V27.7553L43.9926 27.7592L43.9926 27.7631L43.9926 33.5951L43.9926 33.599L43.9926 33.6029V39.7917Z" fill="#F8F9FA"/>
<path d="M22.0251 15.4887H20.5251C20.5251 16.3172 21.1967 16.9887 22.0251 16.9887L22.0251 15.4887ZM25.9208 15.4887V16.9887C26.7492 16.9887 27.4208 16.3172 27.4208 15.4887H25.9208ZM27.8649 15.4887H26.3649C26.3649 16.3172 27.0365 16.9887 27.8649 16.9887V15.4887ZM31.7606 15.4887V16.9887C32.589 16.9887 33.2606 16.3172 33.2606 15.4887H31.7606ZM33.7047 15.4887H32.2047C32.2047 16.3172 32.8763 16.9887 33.7047 16.9887V15.4887ZM37.9572 15.4887V16.9887C38.7856 16.9887 39.4572 16.3172 39.4572 15.4887H37.9572ZM39.9014 15.4887L38.4014 15.4887C38.4014 16.3172 39.0729 16.9887 39.9014 16.9887V15.4887ZM45.9367 20.9473H44.4367C44.4367 21.7757 45.1083 22.4473 45.9367 22.4473V20.9473ZM45.9367 22.8915V21.3915C45.1083 21.3915 44.4367 22.063 44.4367 22.8915H45.9367ZM45.9367 26.7871H44.4367C44.4367 27.6155 45.1083 28.2871 45.9367 28.2871V26.7871ZM45.9367 28.7313V27.2313C45.1083 27.2313 44.4367 27.9028 44.4367 28.7313H45.9367ZM45.9367 32.6269H44.4367C44.4367 33.4553 45.1083 34.1269 45.9367 34.1269L45.9367 32.6269ZM45.9367 34.5711V33.0711C45.1083 33.0711 44.4367 33.7426 44.4367 34.5711H45.9367ZM45.9367 38.8235H44.4367C44.4367 39.652 45.1083 40.3235 45.9367 40.3235V38.8235ZM45.9367 40.7677V39.2677C45.1083 39.2677 44.4367 39.9393 44.4367 40.7677H45.9367ZM39.9014 46.2262V44.7262C39.0729 44.7262 38.4014 45.3978 38.4014 46.2262H39.9014ZM37.9572 46.2262H39.4572C39.4572 45.3978 38.7856 44.7262 37.9572 44.7262V46.2262ZM33.7047 46.2262V44.7262C32.8763 44.7262 32.2047 45.3978 32.2047 46.2262H33.7047ZM31.7606 46.2262H33.2606C33.2606 45.3978 32.589 44.7262 31.7606 44.7262V46.2262ZM27.8649 46.2262V44.7262C27.0365 44.7262 26.3649 45.3978 26.3649 46.2262H27.8649ZM25.9208 46.2262H27.4208C27.4208 45.3978 26.7492 44.7262 25.9208 44.7262V46.2262ZM22.0251 46.2262V44.7262C21.1967 44.7262 20.5251 45.3978 20.5251 46.2262H22.0251ZM20.081 46.2262H21.581C21.581 45.3978 20.9094 44.7262 20.081 44.7262V46.2262ZM14.0457 40.7677H15.5457C15.5457 39.9393 14.8741 39.2677 14.0457 39.2677V40.7677ZM14.0457 38.8235V40.3235C14.8741 40.3235 15.5457 39.652 15.5457 38.8235H14.0457ZM14.0457 34.5711H15.5457C15.5457 33.7426 14.8741 33.0711 14.0457 33.0711V34.5711ZM14.0457 32.6269V34.1269C14.8741 34.1269 15.5457 33.4553 15.5457 32.6269H14.0457ZM14.0457 28.7313H15.5457C15.5457 27.9028 14.8741 27.2313 14.0457 27.2313V28.7313ZM14.0457 26.7871V28.2871C14.8741 28.2871 15.5457 27.6155 15.5457 26.7871H14.0457ZM14.0457 22.8915H15.5457C15.5457 22.063 14.8741 21.3915 14.0457 21.3915V22.8915ZM14.0457 20.9473V22.4473C14.8741 22.4473 15.5457 21.7757 15.5457 20.9473H14.0457ZM20.081 15.4887L20.081 16.9887C20.9094 16.9887 21.581 16.3172 21.581 15.4887H20.081ZM43.9926 39.7956L42.4926 39.7927L42.4926 39.7985L43.9926 39.7956ZM43.9926 39.7917L45.4926 39.7947V39.7917H43.9926ZM43.9926 39.7995L45.4926 39.7995L45.4926 39.7966L43.9926 39.7995ZM43.9926 21.9155L45.4926 21.9184V21.9155H43.9926ZM43.9926 21.9194L42.4926 21.9164L42.4926 21.9223L43.9926 21.9194ZM43.9926 21.9233L45.4926 21.9233L45.4926 21.9203L43.9926 21.9233ZM43.9926 27.7553L45.4926 27.7582V27.7553H43.9926ZM43.9926 27.7592L42.4926 27.7562L42.4926 27.7621L43.9926 27.7592ZM43.9926 27.7631L45.4926 27.7631L45.4926 27.7601L43.9926 27.7631ZM43.9926 33.5951L45.4926 33.598V33.5951H43.9926ZM43.9926 33.599L42.4926 33.596L42.4926 33.6019L43.9926 33.599ZM43.9926 33.6029L45.4926 33.6029L45.4926 33.5999L43.9926 33.6029ZM23.5251 11.6728C23.5251 10.3075 22.4184 9.20068 21.0531 9.20068V12.2007C20.7615 12.2007 20.5251 11.9643 20.5251 11.6728H23.5251ZM23.5251 15.4887V11.6728H20.5251V15.4887L23.5251 15.4887ZM25.9208 13.9887L22.0251 13.9887L22.0251 16.9887L25.9208 16.9887V13.9887ZM24.4208 11.6728V15.4887H27.4208V11.6728L24.4208 11.6728ZM26.8929 9.20068C25.5276 9.20068 24.4208 10.3075 24.4208 11.6728L27.4208 11.6728C27.4208 11.9643 27.1844 12.2007 26.8929 12.2007V9.20068ZM29.3649 11.6728C29.3649 10.3075 28.2582 9.20068 26.8929 9.20068V12.2007C26.6013 12.2007 26.3649 11.9643 26.3649 11.6728H29.3649ZM29.3649 15.4887V11.6728H26.3649V15.4887H29.3649ZM31.7606 13.9887H27.8649V16.9887H31.7606V13.9887ZM30.2606 11.6728V15.4887H33.2606V11.6728H30.2606ZM32.7327 9.20068C31.3674 9.20068 30.2606 10.3075 30.2606 11.6728H33.2606C33.2606 11.9643 33.0242 12.2007 32.7327 12.2007V9.20068ZM35.2047 11.6728C35.2047 10.3075 34.098 9.20068 32.7327 9.20068V12.2007C32.4411 12.2007 32.2047 11.9643 32.2047 11.6728H35.2047ZM35.2047 15.4887V11.6728H32.2047V15.4887H35.2047ZM37.9572 13.9887H33.7047V16.9887H37.9572V13.9887ZM36.4572 11.6728V15.4887H39.4572V11.6728L36.4572 11.6728ZM38.9293 9.20068C37.564 9.20068 36.4572 10.3075 36.4572 11.6728L39.4572 11.6728C39.4572 11.9643 39.2208 12.2007 38.9293 12.2007V9.20068ZM41.4014 11.6728C41.4014 10.3075 40.2946 9.20068 38.9293 9.20068V12.2007C38.6377 12.2007 38.4014 11.9643 38.4014 11.6728H41.4014ZM41.4014 15.4887V11.6728H38.4014V15.4887L41.4014 15.4887ZM43.0205 13.9887H39.9014V16.9887H43.0205V13.9887ZM47.4367 18.405C47.4367 15.966 45.4595 13.9887 43.0205 13.9887V16.9887C43.8027 16.9887 44.4367 17.6228 44.4367 18.405H47.4367ZM47.4367 20.9473V18.405H44.4367V20.9473H47.4367ZM49.5958 19.4473H45.9367V22.4473H49.5958V19.4473ZM52.0679 21.9194C52.0679 20.5541 50.9611 19.4473 49.5958 19.4473V22.4473C49.3042 22.4473 49.0679 22.2109 49.0679 21.9194H52.0679ZM49.5958 24.3915C50.9611 24.3915 52.0679 23.2847 52.0679 21.9194H49.0679C49.0679 21.6278 49.3042 21.3915 49.5958 21.3915V24.3915ZM45.9367 24.3915H49.5958V21.3915H45.9367V24.3915ZM47.4367 26.7871V22.8915H44.4367V26.7871H47.4367ZM49.5958 25.2871H45.9367V28.2871H49.5958V25.2871ZM52.0679 27.7592C52.0679 26.3939 50.9611 25.2871 49.5958 25.2871V28.2871C49.3042 28.2871 49.0679 28.0508 49.0679 27.7592H52.0679ZM49.5958 30.2313C50.9611 30.2313 52.0679 29.1245 52.0679 27.7592H49.0679C49.0679 27.4676 49.3042 27.2313 49.5958 27.2313V30.2313ZM45.9367 30.2313H49.5958V27.2313H45.9367V30.2313ZM47.4367 32.6269V28.7313H44.4367V32.6269H47.4367ZM49.5958 31.1269H45.9367L45.9367 34.1269H49.5958L49.5958 31.1269ZM52.0679 33.599C52.0679 32.2337 50.9611 31.1269 49.5958 31.1269L49.5958 34.1269C49.3042 34.1269 49.0679 33.8906 49.0679 33.599H52.0679ZM49.5958 36.0711C50.9611 36.0711 52.0679 34.9643 52.0679 33.599H49.0679C49.0679 33.3074 49.3042 33.0711 49.5958 33.0711V36.0711ZM45.9367 36.0711H49.5958V33.0711H45.9367V36.0711ZM47.4367 38.8235V34.5711H44.4367V38.8235H47.4367ZM49.5958 37.3235H45.9367V40.3235H49.5958V37.3235ZM52.0679 39.7956C52.0679 38.4303 50.9611 37.3235 49.5958 37.3235V40.3235C49.3042 40.3235 49.0679 40.0872 49.0679 39.7956H52.0679ZM49.5958 42.2677C50.9611 42.2677 52.0679 41.1609 52.0679 39.7956H49.0679C49.0679 39.504 49.3042 39.2677 49.5958 39.2677V42.2677ZM45.9367 42.2677H49.5958V39.2677H45.9367V42.2677ZM47.4367 43.31V40.7677H44.4367V43.31H47.4367ZM43.0205 47.7262C45.4595 47.7262 47.4367 45.749 47.4367 43.31H44.4367C44.4367 44.0922 43.8027 44.7262 43.0205 44.7262V47.7262ZM39.9014 47.7262H43.0205V44.7262H39.9014V47.7262ZM38.4014 46.2262V50.0418H41.4014V46.2262H38.4014ZM38.4014 50.0418C38.4014 49.7502 38.6377 49.5139 38.9293 49.5139V52.5139C40.2946 52.5139 41.4014 51.4071 41.4014 50.0418H38.4014ZM38.9293 49.5139C39.2208 49.5139 39.4572 49.7502 39.4572 50.0418H36.4572C36.4572 51.4071 37.564 52.5139 38.9293 52.5139V49.5139ZM39.4572 50.0418V46.2262H36.4572V50.0418H39.4572ZM33.7047 47.7262H37.9572V44.7262H33.7047V47.7262ZM35.2047 50.0418V46.2262H32.2047V50.0418H35.2047ZM32.7327 52.5139C34.098 52.5139 35.2047 51.4071 35.2047 50.0418H32.2047C32.2047 49.7502 32.4411 49.5139 32.7327 49.5139V52.5139ZM30.2606 50.0418C30.2606 51.4071 31.3674 52.5139 32.7327 52.5139V49.5139C33.0242 49.5139 33.2606 49.7502 33.2606 50.0418L30.2606 50.0418ZM30.2606 46.2262V50.0418L33.2606 50.0418V46.2262L30.2606 46.2262ZM27.8649 47.7262L31.7606 47.7262V44.7262L27.8649 44.7262V47.7262ZM29.3649 50.0418V46.2262H26.3649V50.0418H29.3649ZM26.8929 52.5139C28.2582 52.5139 29.3649 51.4071 29.3649 50.0418H26.3649C26.3649 49.7502 26.6013 49.5139 26.8929 49.5139V52.5139ZM24.4208 50.0418C24.4208 51.4071 25.5276 52.5139 26.8929 52.5139V49.5139C27.1844 49.5139 27.4208 49.7502 27.4208 50.0418H24.4208ZM24.4208 46.2262V50.0418H27.4208V46.2262H24.4208ZM22.0251 47.7262H25.9208V44.7262H22.0251V47.7262ZM23.5251 50.0418V46.2262H20.5251V50.0418H23.5251ZM21.0531 52.5139C22.4184 52.5139 23.5251 51.4071 23.5251 50.0418H20.5251C20.5251 49.7502 20.7615 49.5139 21.0531 49.5139V52.5139ZM18.581 50.0418C18.581 51.4071 19.6878 52.5139 21.0531 52.5139V49.5139C21.3446 49.5139 21.581 49.7502 21.581 50.0418H18.581ZM18.581 46.2262V50.0418H21.581V46.2262H18.581ZM16.9619 47.7262H20.081V44.7262H16.9619V47.7262ZM12.5457 43.31C12.5457 45.749 14.5229 47.7262 16.9619 47.7262V44.7262C16.1798 44.7262 15.5457 44.0922 15.5457 43.31H12.5457ZM12.5457 40.7677L12.5457 43.31H15.5457L15.5457 40.7677H12.5457ZM10.3866 42.2677H14.0457L14.0457 39.2677H10.3866V42.2677ZM7.91455 39.7956C7.91455 41.1609 9.02133 42.2677 10.3866 42.2677V39.2677C10.6782 39.2677 10.9146 39.504 10.9146 39.7956L7.91455 39.7956ZM10.3866 37.3235C9.02134 37.3235 7.91455 38.4303 7.91455 39.7956L10.9146 39.7956C10.9146 40.0872 10.6782 40.3235 10.3866 40.3235V37.3235ZM14.0457 37.3235H10.3866V40.3235H14.0457V37.3235ZM12.5457 34.5711V38.8235H15.5457L15.5457 34.5711H12.5457ZM10.3866 36.0711H14.0457L14.0457 33.0711H10.3866V36.0711ZM7.91455 33.599C7.91455 34.9643 9.02133 36.0711 10.3866 36.0711V33.0711C10.6782 33.0711 10.9146 33.3074 10.9146 33.599L7.91455 33.599ZM10.3866 31.1269C9.02134 31.1269 7.91455 32.2337 7.91455 33.599L10.9146 33.599C10.9146 33.8906 10.6782 34.1269 10.3866 34.1269L10.3866 31.1269ZM14.0457 31.1269H10.3866L10.3866 34.1269H14.0457V31.1269ZM12.5457 28.7313V32.6269H15.5457V28.7313H12.5457ZM10.3866 30.2313H14.0457V27.2313H10.3866V30.2313ZM7.91455 27.7592C7.91455 29.1245 9.02133 30.2313 10.3866 30.2313V27.2313C10.6782 27.2313 10.9146 27.4676 10.9146 27.7592L7.91455 27.7592ZM10.3866 25.2871C9.02134 25.2871 7.91455 26.3939 7.91455 27.7592L10.9146 27.7592C10.9146 28.0508 10.6782 28.2871 10.3866 28.2871V25.2871ZM14.0457 25.2871H10.3866V28.2871H14.0457V25.2871ZM12.5457 22.8915V26.7871H15.5457V22.8915H12.5457ZM10.3866 24.3915H14.0457V21.3915H10.3866V24.3915ZM7.91455 21.9194C7.91455 23.2847 9.02134 24.3915 10.3866 24.3915V21.3915C10.6782 21.3915 10.9146 21.6278 10.9146 21.9194L7.91455 21.9194ZM10.3866 19.4473C9.02134 19.4473 7.91455 20.5541 7.91455 21.9194L10.9146 21.9194C10.9146 22.211 10.6782 22.4473 10.3866 22.4473L10.3866 19.4473ZM14.0457 19.4473H10.3866L10.3866 22.4473H14.0457V19.4473ZM12.5457 18.405L12.5457 20.9473H15.5457L15.5457 18.405H12.5457ZM16.9619 13.9887C14.5229 13.9887 12.5457 15.966 12.5457 18.405H15.5457C15.5457 17.6228 16.1798 16.9887 16.9619 16.9887V13.9887ZM20.081 13.9887H16.9619V16.9887H20.081L20.081 13.9887ZM18.581 11.6728V15.4887H21.581V11.6728H18.581ZM21.0531 9.20068C19.6878 9.20068 18.581 10.3075 18.581 11.6728H21.581C21.581 11.9643 21.3446 12.2007 21.0531 12.2007V9.20068ZM45.4926 39.7985L45.4926 39.7947L42.4926 39.7888L42.4926 39.7927L45.4926 39.7985ZM45.4926 39.7966L45.4926 39.7927L42.4926 39.7985L42.4926 39.8024L45.4926 39.7966ZM45.4926 43.31V39.7995L42.4926 39.7995V43.31H45.4926ZM43.0205 45.7821C44.3858 45.7821 45.4926 44.6753 45.4926 43.31H42.4926C42.4926 43.0185 42.7289 42.7821 43.0205 42.7821V45.7821ZM16.9619 45.7821L43.0205 45.7821V42.7821L16.9619 42.7821V45.7821ZM14.4899 43.31C14.4899 44.6753 15.5966 45.7821 16.9619 45.7821V42.7821C17.2535 42.7821 17.4899 43.0185 17.4899 43.31H14.4899ZM14.4899 18.405L14.4899 43.31H17.4899L17.4899 18.405H14.4899ZM16.9619 15.9329C15.5966 15.9329 14.4899 17.0397 14.4899 18.405H17.4899C17.4899 18.6965 17.2535 18.9329 16.9619 18.9329V15.9329ZM43.0205 15.9329L16.9619 15.9329V18.9329L43.0205 18.9329V15.9329ZM45.4926 18.405C45.4926 17.0397 44.3858 15.9329 43.0205 15.9329V18.9329C42.729 18.9329 42.4926 18.6965 42.4926 18.405H45.4926ZM45.4926 21.9155V18.405H42.4926V21.9155H45.4926ZM45.4926 21.9223L45.4926 21.9184L42.4926 21.9125L42.4926 21.9164L45.4926 21.9223ZM45.4926 21.9203L45.4926 21.9164L42.4926 21.9223L42.4926 21.9262L45.4926 21.9203ZM45.4926 27.7553V21.9233H42.4926V27.7553L45.4926 27.7553ZM45.4926 27.7621L45.4926 27.7582L42.4926 27.7524L42.4926 27.7562L45.4926 27.7621ZM45.4926 27.7601L45.4926 27.7562L42.4926 27.7621L42.4926 27.766L45.4926 27.7601ZM45.4926 33.5951L45.4926 27.7631L42.4926 27.7631L42.4926 33.5951L45.4926 33.5951ZM45.4926 33.6019L45.4926 33.598L42.4926 33.5922L42.4926 33.596L45.4926 33.6019ZM45.4926 33.5999L45.4926 33.596L42.4926 33.6019L42.4926 33.6058L45.4926 33.5999ZM45.4926 39.7917V33.6029L42.4926 33.6029V39.7917L45.4926 39.7917Z" fill="#F8F9FA" mask="url(#path-1-outside-1_50_2166)"/>
<rect x="15.0262" y="16.4653" width="29.9469" height="28.7934" rx="2" fill="#69DB7C" stroke="#212529" stroke-width="2" stroke-linejoin="round"/>
<g style="mix-blend-mode:multiply">
<rect x="19.0703" y="20.6121" width="23.0528" height="21.7631" rx="2" fill="#DEE2E6"/>
</g>
<rect x="19.4584" y="20.9104" width="21.0827" height="19.9032" rx="1" fill="#40C057" stroke="#212529" stroke-width="1.4" stroke-linejoin="round"/>
<path d="M15.0262 21.9238L10.3951 21.9238" stroke="#212529" stroke-width="2" stroke-linecap="round" stroke-linejoin="round"/>
<path d="M15.0262 27.7637L10.3951 27.7637" stroke="#212529" stroke-width="2" stroke-linecap="round" stroke-linejoin="round"/>
<path d="M15.0262 33.6035L10.3951 33.6035" stroke="#212529" stroke-width="2" stroke-linecap="round" stroke-linejoin="round"/>
<path d="M15.0262 39.8L10.3951 39.8" stroke="#212529" stroke-width="2" stroke-linecap="round" stroke-linejoin="round"/>
<path d="M49.6042 21.9238L44.9731 21.9238" stroke="#212529" stroke-width="2" stroke-linecap="round" stroke-linejoin="round"/>
<path d="M49.6042 27.7637L44.9731 27.7637" stroke="#212529" stroke-width="2" stroke-linecap="round" stroke-linejoin="round"/>
<path d="M49.6042 33.6035L44.9731 33.6035" stroke="#212529" stroke-width="2" stroke-linecap="round" stroke-linejoin="round"/>
<path d="M49.6042 39.8L44.9731 39.8" stroke="#212529" stroke-width="2" stroke-linecap="round" stroke-linejoin="round"/>
<path d="M21.0616 11.6772V16.3084" stroke="#212529" stroke-width="2" stroke-linecap="round" stroke-linejoin="round"/>
<path d="M26.9015 11.6772V16.3084" stroke="#212529" stroke-width="2" stroke-linecap="round" stroke-linejoin="round"/>
<path d="M32.7412 11.6772V16.3084" stroke="#212529" stroke-width="2" stroke-linecap="round" stroke-linejoin="round"/>
<path d="M38.9379 11.6772V16.3084" stroke="#212529" stroke-width="2" stroke-linecap="round" stroke-linejoin="round"/>
<path d="M21.0616 45.4153V50.0464" stroke="#212529" stroke-width="2" stroke-linecap="round" stroke-linejoin="round"/>
<path d="M26.9015 45.4153V50.0464" stroke="#212529" stroke-width="2" stroke-linecap="round" stroke-linejoin="round"/>
<path d="M32.7412 45.4153V50.0464" stroke="#212529" stroke-width="2" stroke-linecap="round" stroke-linejoin="round"/>
<path d="M38.9379 45.4153V50.0464" stroke="#212529" stroke-width="2" stroke-linecap="round" stroke-linejoin="round"/>
</svg>
