<svg width="60" height="60" viewBox="0 0 60 60" fill="none" xmlns="http://www.w3.org/2000/svg">
<mask id="path-1-outside-1_50_7319" maskUnits="userSpaceOnUse" x="14.2169" y="5.72998" width="32" height="52" fill="black">
<rect fill="white" x="14.2169" y="5.72998" width="32" height="52"/>
<path fill-rule="evenodd" clip-rule="evenodd" d="M19.0169 7.72998C17.4705 7.72998 16.2169 8.98358 16.2169 10.53V18.4633C16.2169 20.0097 17.4705 21.2633 19.0169 21.2633H23.3396L23.3396 21.2758V23.2322C23.3396 24.2263 24.1455 25.0322 25.1396 25.0322H25.4564V26.2481C25.4564 27.1325 26.0943 27.868 26.9351 28.0195C26.9333 28.0494 26.9324 28.0795 26.9324 28.1099L26.9324 52.6715C26.9324 54.1905 28.1637 55.4219 29.6827 55.4219C31.2017 55.4219 32.4331 54.1905 32.4331 52.6715L32.4331 28.1099C32.4331 28.0795 32.4322 28.0494 32.4303 28.0195C33.2711 27.8679 33.9089 27.1325 33.9089 26.2481V25.0322H34.2258C35.2199 25.0322 36.0258 24.2263 36.0258 23.2322V21.2758L36.0258 21.2633H40.9829C42.5293 21.2633 43.7829 20.0097 43.7829 18.4633V10.53C43.7829 8.98358 42.5293 7.72998 40.9829 7.72998H19.0169ZM24.94 21.2633H34.4254C34.4256 21.2653 34.4256 21.2673 34.4257 21.2693C34.4258 21.2715 34.4258 21.2736 34.4258 21.2758V23.2322C34.4258 23.3427 34.3363 23.4322 34.2258 23.4322H33.6909C33.3858 22.8719 32.7918 22.4917 32.1089 22.4917H27.2564C26.5736 22.4917 25.9795 22.8719 25.6745 23.4322H25.1396C25.0291 23.4322 24.9396 23.3427 24.9396 23.2322V21.2758L24.9396 21.2729L24.94 21.2633ZM20.9191 18.9446C20.9191 19.2031 20.9803 19.4472 21.0892 19.6633H19.0169C18.3542 19.6633 17.8169 19.126 17.8169 18.4633V10.53C17.8169 9.86724 18.3542 9.32998 19.0169 9.32998H40.9829C41.6457 9.32998 42.1829 9.86724 42.1829 10.53V18.4633C42.1829 19.126 41.6457 19.6633 40.9829 19.6633H38.9108C39.0196 19.4472 39.0809 19.2031 39.0809 18.9446V14.025C39.0809 13.1414 38.3645 12.425 37.4809 12.425H22.5191C21.6354 12.425 20.9191 13.1414 20.9191 14.0251V18.9446ZM32.3089 25.0322H27.0564V26.2481C27.0564 26.3586 27.146 26.4481 27.2564 26.4481H32.1089C32.2194 26.4481 32.3089 26.3586 32.3089 26.2481V25.0322ZM28.1397 28.0481H31.2258C31.2306 28.0679 31.2331 28.0886 31.2331 28.1099L31.2331 52.6715C31.2331 53.5278 30.539 54.2219 29.6827 54.2219C28.8265 54.2219 28.1324 53.5278 28.1324 52.6715L28.1324 28.1099C28.1324 28.0886 28.1349 28.0679 28.1397 28.0481ZM22.5191 13.625C22.2982 13.625 22.1191 13.8041 22.1191 14.0251V15.9707L37.8809 15.9707V14.025C37.8809 13.8041 37.7018 13.625 37.4809 13.625H22.5191ZM37.8809 16.9707V18.9446C37.8809 19.1655 37.7018 19.3446 37.4809 19.3446H22.5191C22.2982 19.3446 22.1191 19.1655 22.1191 18.9446V16.9707L37.8809 16.9707Z"/>
</mask>
<path fill-rule="evenodd" clip-rule="evenodd" d="M19.0169 7.72998C17.4705 7.72998 16.2169 8.98358 16.2169 10.53V18.4633C16.2169 20.0097 17.4705 21.2633 19.0169 21.2633H23.3396L23.3396 21.2758V23.2322C23.3396 24.2263 24.1455 25.0322 25.1396 25.0322H25.4564V26.2481C25.4564 27.1325 26.0943 27.868 26.9351 28.0195C26.9333 28.0494 26.9324 28.0795 26.9324 28.1099L26.9324 52.6715C26.9324 54.1905 28.1637 55.4219 29.6827 55.4219C31.2017 55.4219 32.4331 54.1905 32.4331 52.6715L32.4331 28.1099C32.4331 28.0795 32.4322 28.0494 32.4303 28.0195C33.2711 27.8679 33.9089 27.1325 33.9089 26.2481V25.0322H34.2258C35.2199 25.0322 36.0258 24.2263 36.0258 23.2322V21.2758L36.0258 21.2633H40.9829C42.5293 21.2633 43.7829 20.0097 43.7829 18.4633V10.53C43.7829 8.98358 42.5293 7.72998 40.9829 7.72998H19.0169ZM24.94 21.2633H34.4254C34.4256 21.2653 34.4256 21.2673 34.4257 21.2693C34.4258 21.2715 34.4258 21.2736 34.4258 21.2758V23.2322C34.4258 23.3427 34.3363 23.4322 34.2258 23.4322H33.6909C33.3858 22.8719 32.7918 22.4917 32.1089 22.4917H27.2564C26.5736 22.4917 25.9795 22.8719 25.6745 23.4322H25.1396C25.0291 23.4322 24.9396 23.3427 24.9396 23.2322V21.2758L24.9396 21.2729L24.94 21.2633ZM20.9191 18.9446C20.9191 19.2031 20.9803 19.4472 21.0892 19.6633H19.0169C18.3542 19.6633 17.8169 19.126 17.8169 18.4633V10.53C17.8169 9.86724 18.3542 9.32998 19.0169 9.32998H40.9829C41.6457 9.32998 42.1829 9.86724 42.1829 10.53V18.4633C42.1829 19.126 41.6457 19.6633 40.9829 19.6633H38.9108C39.0196 19.4472 39.0809 19.2031 39.0809 18.9446V14.025C39.0809 13.1414 38.3645 12.425 37.4809 12.425H22.5191C21.6354 12.425 20.9191 13.1414 20.9191 14.0251V18.9446ZM32.3089 25.0322H27.0564V26.2481C27.0564 26.3586 27.146 26.4481 27.2564 26.4481H32.1089C32.2194 26.4481 32.3089 26.3586 32.3089 26.2481V25.0322ZM28.1397 28.0481H31.2258C31.2306 28.0679 31.2331 28.0886 31.2331 28.1099L31.2331 52.6715C31.2331 53.5278 30.539 54.2219 29.6827 54.2219C28.8265 54.2219 28.1324 53.5278 28.1324 52.6715L28.1324 28.1099C28.1324 28.0886 28.1349 28.0679 28.1397 28.0481ZM22.5191 13.625C22.2982 13.625 22.1191 13.8041 22.1191 14.0251V15.9707L37.8809 15.9707V14.025C37.8809 13.8041 37.7018 13.625 37.4809 13.625H22.5191ZM37.8809 16.9707V18.9446C37.8809 19.1655 37.7018 19.3446 37.4809 19.3446H22.5191C22.2982 19.3446 22.1191 19.1655 22.1191 18.9446V16.9707L37.8809 16.9707Z" fill="#F8F9FA"/>
<path d="M23.3396 21.2633L24.8396 21.2684C24.841 20.8697 24.6836 20.4869 24.4021 20.2044C24.1207 19.922 23.7384 19.7633 23.3396 19.7633V21.2633ZM23.3396 21.2758L21.8396 21.2707V21.2758H23.3396ZM25.4564 25.0322H26.9564C26.9564 24.2038 26.2848 23.5322 25.4564 23.5322V25.0322ZM26.9351 28.0195L28.4323 28.1108C28.4786 27.3518 27.9496 26.6781 27.2011 26.5433L26.9351 28.0195ZM26.9324 28.1099L28.4324 28.1099V28.1099H26.9324ZM26.9324 52.6715L25.4324 52.6715V52.6715H26.9324ZM32.4331 52.6715L30.9331 52.6715V52.6715H32.4331ZM32.4331 28.1099L33.9331 28.1099V28.1099H32.4331ZM32.4303 28.0195L32.1642 26.5433C31.4159 26.6782 30.8868 27.3518 30.9331 28.1108L32.4303 28.0195ZM33.9089 25.0322V23.5322C33.0805 23.5322 32.4089 24.2038 32.4089 25.0322H33.9089ZM36.0258 21.2758L37.5258 21.2758L37.5258 21.2708L36.0258 21.2758ZM36.0258 21.2633V19.7633C35.6271 19.7633 35.2448 19.922 34.9633 20.2044C34.6819 20.4868 34.5245 20.8696 34.5258 21.2683L36.0258 21.2633ZM34.4254 21.2633L35.9225 21.1703C35.8735 20.3795 35.2178 19.7633 34.4254 19.7633V21.2633ZM24.94 21.2633V19.7633C24.1338 19.7633 23.4718 20.4006 23.4411 21.2062L24.94 21.2633ZM34.4257 21.2693L35.925 21.2218L35.9249 21.221L34.4257 21.2693ZM33.6909 23.4322L32.3735 24.1495C32.6361 24.6319 33.1415 24.9322 33.6909 24.9322V23.4322ZM25.6745 23.4322V24.9322C26.2238 24.9322 26.7292 24.6319 26.9919 24.1495L25.6745 23.4322ZM24.9396 21.2758L23.4396 21.2655V21.2758H24.9396ZM24.9396 21.2729L23.4407 21.2158C23.4401 21.2314 23.4398 21.247 23.4397 21.2626L24.9396 21.2729ZM21.0892 19.6633V21.1633C21.6098 21.1633 22.0932 20.8933 22.3663 20.4501C22.6393 20.0068 22.663 19.4536 22.4289 18.9886L21.0892 19.6633ZM38.9108 19.6633L37.5711 18.9886C37.3369 19.4536 37.3606 20.0068 37.6337 20.4501C37.9068 20.8933 38.3901 21.1633 38.9108 21.1633V19.6633ZM27.0564 25.0322V23.5322C26.228 23.5322 25.5564 24.2038 25.5564 25.0322H27.0564ZM32.3089 25.0322H33.8089C33.8089 24.2038 33.1374 23.5322 32.3089 23.5322V25.0322ZM31.2258 28.0481L32.6837 27.6952C32.5208 27.0222 31.9183 26.5481 31.2258 26.5481V28.0481ZM28.1397 28.0481V26.5481C27.4472 26.5481 26.8447 27.0222 26.6818 27.6952L28.1397 28.0481ZM31.2331 28.1099L32.7331 28.1099V28.1099H31.2331ZM31.2331 52.6715L29.7331 52.6715V52.6715H31.2331ZM28.1324 52.6715L26.6324 52.6715V52.6715H28.1324ZM28.1324 28.1099L29.6324 28.1099V28.1099H28.1324ZM22.1191 15.9707H20.6191C20.6191 16.3685 20.7771 16.7501 21.0584 17.0314C21.3397 17.3127 21.7212 17.4707 22.1191 17.4707L22.1191 15.9707ZM37.8809 15.9707L37.8809 17.4707C38.7093 17.4707 39.3809 16.7991 39.3809 15.9707H37.8809ZM37.8809 16.9707H39.3809C39.3809 16.5729 39.2228 16.1913 38.9415 15.91C38.6602 15.6287 38.2787 15.4707 37.8809 15.4707L37.8809 16.9707ZM22.1191 16.9707L22.1191 15.4707C21.2906 15.4707 20.6191 16.1423 20.6191 16.9707H22.1191ZM17.7169 10.53C17.7169 9.81201 18.2989 9.22998 19.0169 9.22998V6.22998C16.6421 6.22998 14.7169 8.15515 14.7169 10.53H17.7169ZM17.7169 18.4633V10.53H14.7169V18.4633H17.7169ZM19.0169 19.7633C18.2989 19.7633 17.7169 19.1813 17.7169 18.4633H14.7169C14.7169 20.8381 16.6421 22.7633 19.0169 22.7633V19.7633ZM23.3396 19.7633H19.0169V22.7633H23.3396V19.7633ZM24.8396 21.281L24.8396 21.2684L21.8397 21.2582L21.8396 21.2707L24.8396 21.281ZM24.8396 23.2322V21.2758H21.8396V23.2322H24.8396ZM25.1396 23.5322C24.9739 23.5322 24.8396 23.3979 24.8396 23.2322H21.8396C21.8396 25.0548 23.3171 26.5322 25.1396 26.5322V23.5322ZM25.4564 23.5322H25.1396V26.5322H25.4564V23.5322ZM26.9564 26.2481V25.0322H23.9564V26.2481H26.9564ZM27.2011 26.5433C27.062 26.5182 26.9564 26.3939 26.9564 26.2481H23.9564C23.9564 27.8712 25.1267 29.2178 26.6691 29.4957L27.2011 26.5433ZM28.4324 28.1099L28.4323 28.1108L25.4379 27.9282C25.4342 27.9882 25.4324 28.0488 25.4324 28.1099H28.4324ZM28.4324 52.6715L28.4324 28.1099L25.4324 28.1099L25.4324 52.6715L28.4324 52.6715ZM29.6827 53.9219C28.9922 53.9219 28.4324 53.3621 28.4324 52.6715H25.4324C25.4324 55.019 27.3353 56.9219 29.6827 56.9219V53.9219ZM30.9331 52.6715C30.9331 53.3621 30.3733 53.9219 29.6827 53.9219V56.9219C32.0301 56.9219 33.9331 55.019 33.9331 52.6715H30.9331ZM30.9331 28.1099L30.9331 52.6715L33.9331 52.6715L33.9331 28.1099L30.9331 28.1099ZM30.9331 28.1108L30.9331 28.1099H33.9331C33.9331 28.0488 33.9312 27.9882 33.9276 27.9282L30.9331 28.1108ZM32.4089 26.2481C32.4089 26.3939 32.3034 26.5182 32.1642 26.5433L32.6965 29.4957C34.2388 29.2177 35.4089 27.8711 35.4089 26.2481H32.4089ZM32.4089 25.0322V26.2481H35.4089V25.0322H32.4089ZM34.2258 23.5322H33.9089V26.5322H34.2258V23.5322ZM34.5258 23.2322C34.5258 23.3979 34.3915 23.5322 34.2258 23.5322V26.5322C36.0484 26.5322 37.5258 25.0548 37.5258 23.2322H34.5258ZM34.5258 21.2758V23.2322H37.5258V21.2758H34.5258ZM34.5258 21.2683L34.5258 21.2808L37.5258 21.2708L37.5258 21.2583L34.5258 21.2683ZM40.9829 19.7633H36.0258V22.7633H40.9829V19.7633ZM42.2829 18.4633C42.2829 19.1813 41.7009 19.7633 40.9829 19.7633V22.7633C43.3577 22.7633 45.2829 20.8381 45.2829 18.4633H42.2829ZM42.2829 10.53V18.4633H45.2829V10.53H42.2829ZM40.9829 9.22998C41.7009 9.22998 42.2829 9.81201 42.2829 10.53H45.2829C45.2829 8.15516 43.3577 6.22998 40.9829 6.22998V9.22998ZM19.0169 9.22998H40.9829V6.22998H19.0169V9.22998ZM34.4254 19.7633H24.94V22.7633H34.4254V19.7633ZM35.9249 21.221C35.9244 21.2037 35.9236 21.1868 35.9225 21.1703L32.9283 21.3562C32.9275 21.3437 32.9269 21.3308 32.9265 21.3176L35.9249 21.221ZM35.9258 21.2758C35.9258 21.2579 35.9255 21.2399 35.925 21.2218L32.9265 21.3168C32.926 21.303 32.9258 21.2894 32.9258 21.2758H35.9258ZM35.9258 23.2322V21.2758H32.9258V23.2322H35.9258ZM34.2258 24.9322C35.1647 24.9322 35.9258 24.1711 35.9258 23.2322H32.9258C32.9258 22.5143 33.5078 21.9322 34.2258 21.9322V24.9322ZM33.6909 24.9322H34.2258V21.9322H33.6909V24.9322ZM32.1089 23.9917C32.2207 23.9917 32.3205 24.0523 32.3735 24.1495L35.0083 22.715C34.4511 21.6916 33.3628 20.9917 32.1089 20.9917V23.9917ZM27.2564 23.9917H32.1089V20.9917H27.2564V23.9917ZM26.9919 24.1495C27.0448 24.0523 27.1446 23.9917 27.2564 23.9917V20.9917C26.0025 20.9917 24.9142 21.6916 24.3571 22.715L26.9919 24.1495ZM25.1396 24.9322H25.6745V21.9322H25.1396V24.9322ZM23.4396 23.2322C23.4396 24.1711 24.2007 24.9322 25.1396 24.9322V21.9322C25.8576 21.9322 26.4396 22.5143 26.4396 23.2322H23.4396ZM23.4396 21.2758V23.2322H26.4396V21.2758H23.4396ZM23.4397 21.2626L23.4396 21.2655L26.4396 21.2862L26.4396 21.2833L23.4397 21.2626ZM23.4411 21.2062L23.4407 21.2158L26.4385 21.33L26.4389 21.3204L23.4411 21.2062ZM22.4289 18.9886C22.4257 18.9823 22.4234 18.9759 22.4218 18.9694C22.4202 18.9629 22.4191 18.9549 22.4191 18.9446H19.4191C19.4191 19.4427 19.5376 19.9173 19.7494 20.3379L22.4289 18.9886ZM19.0169 21.1633H21.0892V18.1633H19.0169V21.1633ZM16.3169 18.4633C16.3169 19.9545 17.5258 21.1633 19.0169 21.1633V18.1633C19.1826 18.1633 19.3169 18.2976 19.3169 18.4633H16.3169ZM16.3169 10.53V18.4633H19.3169V10.53H16.3169ZM19.0169 7.82998C17.5258 7.82998 16.3169 9.03881 16.3169 10.53H19.3169C19.3169 10.6957 19.1826 10.83 19.0169 10.83V7.82998ZM40.9829 7.82998H19.0169V10.83H40.9829V7.82998ZM43.6829 10.53C43.6829 9.03881 42.4741 7.82998 40.9829 7.82998V10.83C40.8172 10.83 40.6829 10.6957 40.6829 10.53H43.6829ZM43.6829 18.4633V10.53H40.6829V18.4633H43.6829ZM40.9829 21.1633C42.4741 21.1633 43.6829 19.9545 43.6829 18.4633H40.6829C40.6829 18.2976 40.8172 18.1633 40.9829 18.1633V21.1633ZM38.9108 21.1633H40.9829V18.1633H38.9108V21.1633ZM37.5809 18.9446C37.5809 18.9549 37.5797 18.9629 37.5782 18.9694C37.5766 18.9759 37.5742 18.9823 37.5711 18.9886L40.2505 20.3379C40.4623 19.9173 40.5809 19.4427 40.5809 18.9446H37.5809ZM37.5809 14.025V18.9446H40.5809V14.025H37.5809ZM37.4809 13.925C37.5361 13.925 37.5809 13.9698 37.5809 14.025H40.5809C40.5809 12.313 39.193 10.925 37.4809 10.925V13.925ZM22.5191 13.925H37.4809V10.925H22.5191V13.925ZM22.4191 14.0251C22.4191 13.9698 22.4638 13.925 22.5191 13.925V10.925C20.807 10.925 19.4191 12.313 19.4191 14.0251H22.4191ZM22.4191 18.9446V14.0251H19.4191V18.9446H22.4191ZM27.0564 26.5322H32.3089V23.5322H27.0564V26.5322ZM28.5564 26.2481V25.0322H25.5564V26.2481H28.5564ZM27.2564 24.9481C27.9744 24.9481 28.5564 25.5301 28.5564 26.2481H25.5564C25.5564 27.187 26.3175 27.9481 27.2564 27.9481V24.9481ZM32.1089 24.9481H27.2564V27.9481H32.1089V24.9481ZM30.8089 26.2481C30.8089 25.5301 31.3909 24.9481 32.1089 24.9481V27.9481C33.0478 27.9481 33.8089 27.187 33.8089 26.2481H30.8089ZM30.8089 25.0322V26.2481H33.8089V25.0322H30.8089ZM31.2258 26.5481H28.1397V29.5481H31.2258V26.5481ZM32.7331 28.1099C32.7331 27.9688 32.7162 27.8297 32.6837 27.6952L29.7679 28.401C29.7449 28.3061 29.7331 28.2084 29.7331 28.1099H32.7331ZM32.7331 52.6715L32.7331 28.1099L29.7331 28.1099L29.7331 52.6715L32.7331 52.6715ZM29.6827 55.7219C31.3674 55.7219 32.7331 54.3562 32.7331 52.6715H29.7331C29.7331 52.6994 29.7106 52.7219 29.6827 52.7219V55.7219ZM26.6324 52.6715C26.6324 54.3562 27.9981 55.7219 29.6827 55.7219V52.7219C29.6549 52.7219 29.6324 52.6994 29.6324 52.6715H26.6324ZM26.6324 28.1099L26.6324 52.6715L29.6324 52.6715L29.6324 28.1099L26.6324 28.1099ZM26.6818 27.6952C26.6493 27.8297 26.6324 27.9688 26.6324 28.1099H29.6324C29.6324 28.2084 29.6206 28.3061 29.5976 28.401L26.6818 27.6952ZM23.6191 14.0251C23.6191 14.6326 23.1266 15.125 22.5191 15.125V12.125C21.4697 12.125 20.6191 12.9757 20.6191 14.0251H23.6191ZM23.6191 15.9707V14.0251H20.6191V15.9707H23.6191ZM22.1191 17.4707L37.8809 17.4707L37.8809 14.4707L22.1191 14.4707L22.1191 17.4707ZM36.3809 14.025V15.9707H39.3809V14.025H36.3809ZM37.4809 15.125C36.8734 15.125 36.3809 14.6326 36.3809 14.025H39.3809C39.3809 12.9757 38.5302 12.125 37.4809 12.125V15.125ZM22.5191 15.125H37.4809V12.125H22.5191V15.125ZM36.3809 16.9707V18.9446H39.3809V16.9707H36.3809ZM36.3809 18.9446C36.3809 18.3371 36.8734 17.8446 37.4809 17.8446V20.8446C38.5302 20.8446 39.3809 19.994 39.3809 18.9446H36.3809ZM37.4809 17.8446H22.5191V20.8446H37.4809V17.8446ZM22.5191 17.8446C23.1266 17.8446 23.6191 18.3371 23.6191 18.9446H20.6191C20.6191 19.994 21.4697 20.8446 22.5191 20.8446V17.8446ZM23.6191 18.9446V16.9707H20.6191V18.9446H23.6191ZM37.8809 15.4707L22.1191 15.4707L22.1191 18.4707L37.8809 18.4707L37.8809 15.4707Z" fill="#F8F9FA" mask="url(#path-1-outside-1_50_7319)"/>
<path d="M30.9715 27.2915C31.4473 27.2915 31.8331 27.6773 31.8331 28.1532L31.8331 52.7149C31.8331 53.9025 30.8704 54.8652 29.6828 54.8652V54.8652C28.4951 54.8652 27.5324 53.9025 27.5324 52.7149L27.5324 28.1532C27.5324 27.6773 27.9182 27.2915 28.3941 27.2915L30.9715 27.2915Z" fill="#868E96" stroke="#212529" stroke-width="1.4" stroke-linejoin="round"/>
<rect x="26.2565" y="23.335" width="6.8525" height="3.9564" rx="1" fill="#868E96" stroke="#212529" stroke-width="1.2" stroke-linejoin="round"/>
<rect x="24.1396" y="20.3188" width="11.0862" height="3.9564" rx="1" fill="#868E96" stroke="#212529" stroke-width="1.2" stroke-linejoin="round"/>
<rect x="17.017" y="8.57324" width="25.966" height="11.9333" rx="2" fill="#BAC8FF" stroke="#212529" stroke-width="1.6" stroke-linejoin="round"/>
<g style="mix-blend-mode:multiply">
<path fill-rule="evenodd" clip-rule="evenodd" d="M17.017 19.2045C17.3436 19.8647 18.0241 20.3187 18.8106 20.3187H40.7766C41.8812 20.3187 42.7766 19.4233 42.7766 18.3187V10.3854C42.7766 9.53621 42.2474 8.81061 41.5007 8.52051V18.2045C41.5007 18.7568 41.053 19.2045 40.5007 19.2045H17.017Z" fill="#DEE2E6"/>
</g>
<rect x="21.519" y="13.0684" width="16.9618" height="6.91958" rx="1" fill="#F1F3F5" stroke="#212529" stroke-width="1.2" stroke-linejoin="round"/>
<path d="M21.7195 16.5142L38.4188 16.5142" stroke="#212529" stroke-linecap="round" stroke-linejoin="round"/>
<g style="mix-blend-mode:multiply">
<rect x="30.2966" y="27.7397" width="1.00127" height="26.2843" fill="#DEE2E6"/>
</g>
<g style="mix-blend-mode:multiply">
<rect x="33.9812" y="21.27" width="0.793154" height="2.60167" fill="#DEE2E6"/>
</g>
<g style="mix-blend-mode:multiply">
<rect x="31.833" y="24.6895" width="0.793154" height="2.35474" fill="#DEE2E6"/>
</g>
</svg>
