<svg width="60" height="61" viewBox="0 0 60 61" fill="none" xmlns="http://www.w3.org/2000/svg">
<path d="M13.1335 30.3913C13.1335 21.0763 20.6849 13.5249 30 13.5249C39.315 13.5249 46.8664 21.0763 46.8664 30.3913C46.8664 39.7064 39.315 47.2577 30 47.2577C20.6849 47.2577 13.1335 39.7064 13.1335 30.3913ZM30 10.0249C18.7519 10.0249 9.63354 19.1433 9.63354 30.3913C9.63354 41.6394 18.7519 50.7577 30 50.7577C41.248 50.7577 50.3664 41.6394 50.3664 30.3913C50.3664 19.1433 41.248 10.0249 30 10.0249Z" fill="#F8F9FA" stroke="#F8F9FA" stroke-width="1.5" stroke-linecap="round" stroke-linejoin="round"/>
<circle cx="30" cy="30.3913" r="18.6164" fill="#FFD43B" stroke="#212529" stroke-width="2" stroke-linecap="round" stroke-linejoin="round"/>
<g style="mix-blend-mode:multiply">
<path fill-rule="evenodd" clip-rule="evenodd" d="M27.9342 47.344C37.7565 47.344 45.7189 39.3815 45.7189 29.5593C45.7189 22.4787 41.5811 16.3645 35.5917 13.5029C42.6744 15.8468 47.7847 22.522 47.7847 30.3908C47.7847 40.213 39.8222 48.1755 30 48.1755C27.2583 48.1755 24.6616 47.5552 22.3425 46.4472C24.1009 47.029 25.9808 47.344 27.9342 47.344Z" fill="#FFD43B"/>
</g>
<g style="mix-blend-mode:soft-light" opacity="0.8">
<path d="M20.9718 19.1419C21.7329 18.3678 20.819 17.6249 19.9633 17.8212C19.2456 17.9858 17.4803 19.6543 16.5908 21.3403C15.7013 23.0262 17.0361 23.7713 17.5533 23.1624C18.0704 22.5536 20.0205 20.1096 20.9718 19.1419Z" fill="#F8F9FA"/>
</g>
<path d="M20.5839 23.4878H26.0168" stroke="#212529" stroke-width="2" stroke-linecap="round"/>
<path d="M34.5443 23.4878H40.2865" stroke="#212529" stroke-width="2" stroke-linecap="round"/>
<path d="M24.9482 37.2949C24.9482 37.2949 27.6959 35.5571 31.1819 35.5571C34.6678 35.5571 37.4155 37.2949 37.4155 37.2949" stroke="#212529" stroke-width="2" stroke-linecap="round"/>
<g style="mix-blend-mode:multiply">
<path d="M28.9988 37.7704C28.9988 40.6189 27.2621 41.928 25.1199 41.928C22.9776 41.928 21.241 40.6189 21.241 37.7704C21.241 34.9219 25.1199 31.6128 25.1199 31.6128C25.1199 31.6128 28.9988 34.9219 28.9988 37.7704Z" fill="#FFD43B"/>
</g>
<path d="M27.1791 36.5487C27.1791 39.3972 25.4424 40.7063 23.3002 40.7063C21.1579 40.7063 19.4213 39.3972 19.4213 36.5487C19.4213 33.9134 22.7413 30.8839 23.2382 30.4451C23.2751 30.4126 23.3253 30.4126 23.3621 30.4451C23.8591 30.8839 27.1791 33.9134 27.1791 36.5487Z" fill="#4DABF7" stroke="#212529" stroke-width="1.6" stroke-linecap="round"/>
</svg>
