<svg width="60" height="61" viewBox="0 0 60 61" fill="none" xmlns="http://www.w3.org/2000/svg">
<mask id="path-1-outside-1_50_5661" maskUnits="userSpaceOnUse" x="4.31226" y="4.45703" width="51" height="52" fill="black">
<rect fill="white" x="4.31226" y="4.45703" width="51" height="52"/>
<path fill-rule="evenodd" clip-rule="evenodd" d="M28.3739 6.45703C28.8157 6.45703 29.1739 6.8152 29.1739 7.25703V7.36985L34.9245 9.87637C35.1454 9.97265 35.2872 10.1917 35.2847 10.4327C35.2822 10.6736 35.1358 10.8897 34.9129 10.9813L29.1739 13.3412V15.6302H38.7839C38.996 15.6302 39.1995 15.7145 39.3495 15.8645C39.4996 16.0145 39.5839 16.218 39.5839 16.4302V23.5278L52.0124 23.5278C52.5094 23.5278 52.9124 23.9308 52.9124 24.4278C52.9123 24.9249 52.5094 25.3278 52.0123 25.3278L50.5357 25.3278C50.5374 25.3501 50.5382 25.3727 50.5382 25.3954V52.3256H52.6876C53.2399 52.3256 53.6876 52.7733 53.6876 53.3256C53.6876 53.8779 53.2399 54.3256 52.6876 54.3256H7.31226C6.75997 54.3256 6.31226 53.8779 6.31226 53.3256C6.31226 52.7733 6.75997 52.3256 7.31226 52.3256H9.15845L9.15845 25.3954C9.15845 25.3727 9.15929 25.3501 9.16095 25.3278L7.31224 25.3278C6.81518 25.3278 6.41223 24.9249 6.41223 24.4278C6.41223 23.9308 6.81517 23.5278 7.31223 23.5278L19.7411 23.5278V16.4302C19.7411 16.218 19.8254 16.0145 19.9754 15.8645C20.1254 15.7145 20.3289 15.6302 20.5411 15.6302H27.5739V13.2322C27.5639 13.1845 27.5596 13.1353 27.5616 13.0854L27.5739 12.7706V7.25703C27.5739 6.8152 27.9321 6.45703 28.3739 6.45703ZM39.5839 25.3278L48.7407 25.3278C48.7391 25.3501 48.7382 25.3727 48.7382 25.3954V52.3256H46.1905V45.7625C46.1905 45.4311 45.9218 45.1625 45.5905 45.1625H42.8051C42.4737 45.1625 42.2051 45.4311 42.2051 45.7625V52.3256H39.5839V25.3278ZM44.9905 52.3256H43.4051V46.3625H44.9905V52.3256ZM19.7411 52.3256H17.4114V45.7625C17.4114 45.4311 17.1427 45.1625 16.8113 45.1625H14.026C13.6946 45.1625 13.426 45.4311 13.426 45.7625V52.3256H10.9584L10.9584 25.3954C10.9584 25.3727 10.9576 25.3501 10.9559 25.3278L19.7411 25.3278V52.3256ZM16.2114 46.3625V52.3256H14.626V46.3625H16.2114ZM29.1739 8.67889V12.0437L33.1462 10.4103L29.1739 8.67889ZM37.9839 17.2302V52.3256H33.7422V45.0717C33.7422 44.7404 33.4735 44.4717 33.1422 44.4717H26.3871C26.0557 44.4717 25.7871 44.7404 25.7871 45.0717V52.3256H21.3411V17.2302H37.9839ZM32.5422 52.3256H26.9871V45.6717H32.5422V52.3256Z"/>
</mask>
<path fill-rule="evenodd" clip-rule="evenodd" d="M28.3739 6.45703C28.8157 6.45703 29.1739 6.8152 29.1739 7.25703V7.36985L34.9245 9.87637C35.1454 9.97265 35.2872 10.1917 35.2847 10.4327C35.2822 10.6736 35.1358 10.8897 34.9129 10.9813L29.1739 13.3412V15.6302H38.7839C38.996 15.6302 39.1995 15.7145 39.3495 15.8645C39.4996 16.0145 39.5839 16.218 39.5839 16.4302V23.5278L52.0124 23.5278C52.5094 23.5278 52.9124 23.9308 52.9124 24.4278C52.9123 24.9249 52.5094 25.3278 52.0123 25.3278L50.5357 25.3278C50.5374 25.3501 50.5382 25.3727 50.5382 25.3954V52.3256H52.6876C53.2399 52.3256 53.6876 52.7733 53.6876 53.3256C53.6876 53.8779 53.2399 54.3256 52.6876 54.3256H7.31226C6.75997 54.3256 6.31226 53.8779 6.31226 53.3256C6.31226 52.7733 6.75997 52.3256 7.31226 52.3256H9.15845L9.15845 25.3954C9.15845 25.3727 9.15929 25.3501 9.16095 25.3278L7.31224 25.3278C6.81518 25.3278 6.41223 24.9249 6.41223 24.4278C6.41223 23.9308 6.81517 23.5278 7.31223 23.5278L19.7411 23.5278V16.4302C19.7411 16.218 19.8254 16.0145 19.9754 15.8645C20.1254 15.7145 20.3289 15.6302 20.5411 15.6302H27.5739V13.2322C27.5639 13.1845 27.5596 13.1353 27.5616 13.0854L27.5739 12.7706V7.25703C27.5739 6.8152 27.9321 6.45703 28.3739 6.45703ZM39.5839 25.3278L48.7407 25.3278C48.7391 25.3501 48.7382 25.3727 48.7382 25.3954V52.3256H46.1905V45.7625C46.1905 45.4311 45.9218 45.1625 45.5905 45.1625H42.8051C42.4737 45.1625 42.2051 45.4311 42.2051 45.7625V52.3256H39.5839V25.3278ZM44.9905 52.3256H43.4051V46.3625H44.9905V52.3256ZM19.7411 52.3256H17.4114V45.7625C17.4114 45.4311 17.1427 45.1625 16.8113 45.1625H14.026C13.6946 45.1625 13.426 45.4311 13.426 45.7625V52.3256H10.9584L10.9584 25.3954C10.9584 25.3727 10.9576 25.3501 10.9559 25.3278L19.7411 25.3278V52.3256ZM16.2114 46.3625V52.3256H14.626V46.3625H16.2114ZM29.1739 8.67889V12.0437L33.1462 10.4103L29.1739 8.67889ZM37.9839 17.2302V52.3256H33.7422V45.0717C33.7422 44.7404 33.4735 44.4717 33.1422 44.4717H26.3871C26.0557 44.4717 25.7871 44.7404 25.7871 45.0717V52.3256H21.3411V17.2302H37.9839ZM32.5422 52.3256H26.9871V45.6717H32.5422V52.3256Z" fill="#F8F9FA"/>
<path d="M29.1739 7.36985H27.6739C27.6739 7.96654 28.0276 8.50649 28.5745 8.74491L29.1739 7.36985ZM34.9245 9.87637L34.3251 11.2514L34.3251 11.2514L34.9245 9.87637ZM35.2847 10.4327L33.7848 10.417L33.7848 10.417L35.2847 10.4327ZM34.9129 10.9813L35.4834 12.3686L35.4834 12.3686L34.9129 10.9813ZM29.1739 13.3412L28.6034 11.9539C28.041 12.1852 27.6739 12.7331 27.6739 13.3412H29.1739ZM29.1739 15.6302H27.6739C27.6739 16.4586 28.3455 17.1302 29.1739 17.1302V15.6302ZM39.5839 23.5278H38.0839C38.0839 24.3562 38.7554 25.0278 39.5838 25.0278L39.5839 23.5278ZM52.0124 23.5278L52.0123 25.0278L52.0124 25.0278L52.0124 23.5278ZM52.9124 24.4278L54.4124 24.4278L52.9124 24.4278ZM52.0123 25.3278L52.0123 26.8278L52.0123 26.8278L52.0123 25.3278ZM50.5357 25.3278L50.5357 23.8278C50.1186 23.8278 49.7203 24.0015 49.4364 24.3072C49.1526 24.6129 49.0089 25.023 49.0398 25.439L50.5357 25.3278ZM50.5382 52.3256H49.0382C49.0382 53.154 49.7098 53.8256 50.5382 53.8256V52.3256ZM9.15845 52.3256V53.8256C9.55627 53.8256 9.9378 53.6676 10.2191 53.3863C10.5004 53.105 10.6584 52.7234 10.6584 52.3256L9.15845 52.3256ZM9.15845 25.3954L7.65845 25.3954L7.65845 25.3954L9.15845 25.3954ZM9.16095 25.3278L10.6568 25.4389C10.6877 25.0229 10.544 24.6129 10.2602 24.3072C9.97636 24.0015 9.57807 23.8278 9.16094 23.8278L9.16095 25.3278ZM7.31224 25.3278L7.31224 26.8278L7.31224 26.8278L7.31224 25.3278ZM6.41223 24.4278L4.91223 24.4278L6.41223 24.4278ZM7.31223 23.5278L7.31223 25.0278L7.31223 25.0278L7.31223 23.5278ZM19.7411 23.5278L19.7411 25.0278C20.5695 25.0278 21.2411 24.3562 21.2411 23.5278H19.7411ZM27.5739 15.6302V17.1302C28.4023 17.1302 29.0739 16.4586 29.0739 15.6302H27.5739ZM27.5739 13.2322H29.0739C29.0739 13.1286 29.0632 13.0253 29.0419 12.9239L27.5739 13.2322ZM27.5616 13.0854L29.0604 13.1442L29.0604 13.1441L27.5616 13.0854ZM27.5739 12.7706L29.0727 12.8293C29.0735 12.8098 29.0739 12.7902 29.0739 12.7706L27.5739 12.7706ZM48.7407 25.3278L50.2366 25.439C50.2675 25.023 50.1238 24.6129 49.84 24.3072C49.5562 24.0015 49.1579 23.8278 48.7407 23.8278L48.7407 25.3278ZM39.5839 25.3278L39.5839 23.8278C39.186 23.8278 38.8045 23.9858 38.5232 24.2671C38.2419 24.5484 38.0839 24.9299 38.0839 25.3278H39.5839ZM48.7382 52.3256V53.8256C49.5666 53.8256 50.2382 53.154 50.2382 52.3256H48.7382ZM46.1905 52.3256H44.6905C44.6905 53.154 45.362 53.8256 46.1905 53.8256V52.3256ZM42.2051 52.3256V53.8256C43.0335 53.8256 43.7051 53.154 43.7051 52.3256H42.2051ZM39.5839 52.3256H38.0839C38.0839 53.154 38.7554 53.8256 39.5839 53.8256V52.3256ZM43.4051 52.3256H41.9051C41.9051 53.154 42.5767 53.8256 43.4051 53.8256V52.3256ZM44.9905 52.3256V53.8256C45.8189 53.8256 46.4905 53.154 46.4905 52.3256H44.9905ZM43.4051 46.3625V44.8625C42.5767 44.8625 41.9051 45.534 41.9051 46.3625H43.4051ZM44.9905 46.3625H46.4905C46.4905 45.534 45.8189 44.8625 44.9905 44.8625V46.3625ZM17.4114 52.3256H15.9114C15.9114 53.154 16.5829 53.8256 17.4114 53.8256V52.3256ZM19.7411 52.3256V53.8256C20.5695 53.8256 21.2411 53.154 21.2411 52.3256H19.7411ZM13.426 52.3256V53.8256C14.2544 53.8256 14.926 53.154 14.926 52.3256H13.426ZM10.9584 52.3256L9.45845 52.3256C9.45845 53.154 10.13 53.8256 10.9584 53.8256V52.3256ZM10.9584 25.3954L9.45845 25.3954V25.3954L10.9584 25.3954ZM10.9559 25.3278L10.9559 23.8278C10.5388 23.8278 10.1405 24.0015 9.8567 24.3072C9.57288 24.6129 9.42917 25.0229 9.46007 25.4389L10.9559 25.3278ZM19.7411 25.3278H21.2411C21.2411 24.9299 21.0831 24.5484 20.8017 24.2671C20.5204 23.9858 20.1389 23.8278 19.7411 23.8278L19.7411 25.3278ZM16.2114 52.3256V53.8256C17.0398 53.8256 17.7114 53.154 17.7114 52.3256H16.2114ZM16.2114 46.3625H17.7114C17.7114 45.534 17.0398 44.8625 16.2114 44.8625V46.3625ZM14.626 52.3256H13.126C13.126 53.154 13.7975 53.8256 14.626 53.8256V52.3256ZM14.626 46.3625V44.8625C13.7975 44.8625 13.126 45.534 13.126 46.3625H14.626ZM29.1739 12.0437H27.6739C27.6739 12.544 27.9233 13.0114 28.3389 13.2898C28.7545 13.5683 29.2816 13.6213 29.7443 13.431L29.1739 12.0437ZM29.1739 8.67889L29.7732 7.30383C29.3095 7.10171 28.7752 7.14693 28.352 7.42409C27.9288 7.70126 27.6739 8.17304 27.6739 8.67889H29.1739ZM33.1462 10.4103L33.7166 11.7976C34.2738 11.5685 34.6398 11.0283 34.6461 10.426C34.6524 9.82363 34.2977 9.27594 33.7455 9.03525L33.1462 10.4103ZM37.9839 52.3256V53.8256C38.8123 53.8256 39.4839 53.154 39.4839 52.3256H37.9839ZM37.9839 17.2302H39.4839C39.4839 16.4018 38.8123 15.7302 37.9839 15.7302V17.2302ZM33.7422 52.3256H32.2422C32.2422 53.154 32.9137 53.8256 33.7422 53.8256V52.3256ZM25.7871 52.3256V53.8256C26.6155 53.8256 27.2871 53.154 27.2871 52.3256H25.7871ZM21.3411 52.3256H19.8411C19.8411 53.154 20.5127 53.8256 21.3411 53.8256V52.3256ZM21.3411 17.2302V15.7302C20.5127 15.7302 19.8411 16.4018 19.8411 17.2302H21.3411ZM26.9871 52.3256H25.4871C25.4871 53.154 26.1587 53.8256 26.9871 53.8256V52.3256ZM32.5422 52.3256V53.8256C33.3706 53.8256 34.0422 53.154 34.0422 52.3256H32.5422ZM26.9871 45.6717V44.1717C26.1587 44.1717 25.4871 44.8433 25.4871 45.6717H26.9871ZM32.5422 45.6717H34.0422C34.0422 44.8433 33.3706 44.1717 32.5422 44.1717V45.6717ZM30.6739 7.25703C30.6739 5.98678 29.6441 4.95703 28.3739 4.95703V7.95703C27.9873 7.95703 27.6739 7.64363 27.6739 7.25703H30.6739ZM30.6739 7.36985V7.25703H27.6739V7.36985H30.6739ZM35.5238 8.50132L29.7732 5.9948L28.5745 8.74491L34.3251 11.2514L35.5238 8.50132ZM36.7846 10.4484C36.7934 9.60507 36.2969 8.83829 35.5238 8.50132L34.3251 11.2514C33.9938 11.107 33.781 10.7784 33.7848 10.417L36.7846 10.4484ZM35.4834 12.3686C36.2633 12.0479 36.7758 11.2917 36.7846 10.4484L33.7848 10.417C33.7886 10.0556 34.0082 9.73148 34.3425 9.59402L35.4834 12.3686ZM29.7443 14.7285L35.4834 12.3686L34.3425 9.59402L28.6034 11.9539L29.7443 14.7285ZM30.6739 15.6302V13.3412H27.6739V15.6302H30.6739ZM38.7839 14.1302H29.1739V17.1302H38.7839V14.1302ZM40.4102 14.8038C39.9789 14.3725 39.3938 14.1302 38.7839 14.1302V17.1302C38.5982 17.1302 38.4202 17.0564 38.2889 16.9252L40.4102 14.8038ZM41.0839 16.4302C41.0839 15.8202 40.8415 15.2352 40.4102 14.8038L38.2889 16.9252C38.1576 16.7939 38.0839 16.6158 38.0839 16.4302H41.0839ZM41.0839 23.5278V16.4302H38.0839V23.5278H41.0839ZM52.0124 22.0278L39.5839 22.0278L39.5838 25.0278L52.0123 25.0278L52.0124 22.0278ZM54.4124 24.4278C54.4124 23.1023 53.3378 22.0278 52.0124 22.0278L52.0124 25.0278C51.681 25.0278 51.4124 24.7592 51.4124 24.4278L54.4124 24.4278ZM52.0123 26.8278C53.3378 26.8278 54.4123 25.7533 54.4124 24.4278L51.4124 24.4278C51.4124 24.0965 51.681 23.8278 52.0124 23.8278L52.0123 26.8278ZM50.5357 26.8278L52.0123 26.8278L52.0124 23.8278L50.5357 23.8278L50.5357 26.8278ZM52.0382 25.3954C52.0382 25.3356 52.036 25.276 52.0316 25.2166L49.0398 25.439C49.0387 25.4243 49.0382 25.4098 49.0382 25.3954H52.0382ZM52.0382 52.3256V25.3954H49.0382V52.3256H52.0382ZM52.6876 50.8256H50.5382V53.8256H52.6876V50.8256ZM55.1876 53.3256C55.1876 51.9449 54.0683 50.8256 52.6876 50.8256V53.8256C52.4115 53.8256 52.1876 53.6018 52.1876 53.3256H55.1876ZM52.6876 55.8256C54.0683 55.8256 55.1876 54.7063 55.1876 53.3256H52.1876C52.1876 53.0495 52.4115 52.8256 52.6876 52.8256V55.8256ZM7.31226 55.8256H52.6876V52.8256H7.31226V55.8256ZM4.81226 53.3256C4.81226 54.7063 5.93154 55.8256 7.31226 55.8256V52.8256C7.5884 52.8256 7.81226 53.0495 7.81226 53.3256H4.81226ZM7.31226 50.8256C5.93154 50.8256 4.81226 51.9449 4.81226 53.3256H7.81226C7.81226 53.6018 7.5884 53.8256 7.31226 53.8256V50.8256ZM9.15845 50.8256H7.31226V53.8256H9.15845V50.8256ZM7.65845 25.3954L7.65845 52.3256L10.6584 52.3256L10.6584 25.3954L7.65845 25.3954ZM7.66507 25.2167C7.66067 25.276 7.65845 25.3356 7.65845 25.3954H10.6584C10.6584 25.4098 10.6579 25.4243 10.6568 25.4389L7.66507 25.2167ZM7.31224 26.8278L9.16095 26.8278L9.16094 23.8278L7.31223 23.8278L7.31224 26.8278ZM4.91223 24.4278C4.91224 25.7533 5.98676 26.8278 7.31224 26.8278L7.31223 23.8278C7.6436 23.8278 7.91223 24.0964 7.91223 24.4278L4.91223 24.4278ZM7.31222 22.0278C5.98674 22.0278 4.91223 23.1023 4.91223 24.4278L7.91223 24.4278C7.91223 24.7592 7.6436 25.0278 7.31223 25.0278L7.31222 22.0278ZM19.7411 22.0278L7.31222 22.0278L7.31223 25.0278L19.7411 25.0278L19.7411 22.0278ZM18.2411 16.4302V23.5278H21.2411V16.4302H18.2411ZM18.9147 14.8038C18.4834 15.2352 18.2411 15.8202 18.2411 16.4302H21.2411C21.2411 16.6158 21.1673 16.7939 21.0361 16.9252L18.9147 14.8038ZM20.5411 14.1302C19.9311 14.1302 19.3461 14.3725 18.9147 14.8038L21.0361 16.9252C20.9048 17.0564 20.7267 17.1302 20.5411 17.1302V14.1302ZM27.5739 14.1302H20.5411V17.1302H27.5739V14.1302ZM26.0739 13.2322V15.6302H29.0739V13.2322H26.0739ZM26.0627 13.0267C26.0559 13.2009 26.0708 13.3734 26.1059 13.5405L29.0419 12.9239C29.0569 12.9957 29.0633 13.0697 29.0604 13.1442L26.0627 13.0267ZM26.075 12.7119L26.0627 13.0267L29.0604 13.1441L29.0727 12.8293L26.075 12.7119ZM26.0739 7.25703V12.7706H29.0739V7.25703H26.0739ZM28.3739 4.95703C27.1036 4.95703 26.0739 5.98677 26.0739 7.25703H29.0739C29.0739 7.64363 28.7605 7.95703 28.3739 7.95703V4.95703ZM48.7407 23.8278L39.5839 23.8278L39.5838 26.8278L48.7407 26.8278L48.7407 23.8278ZM50.2382 25.3954C50.2382 25.4098 50.2377 25.4243 50.2366 25.439L47.2448 25.2166C47.2404 25.276 47.2382 25.3356 47.2382 25.3954H50.2382ZM50.2382 52.3256V25.3954H47.2382V52.3256H50.2382ZM46.1905 53.8256H48.7382V50.8256H46.1905V53.8256ZM44.6905 45.7625V52.3256H47.6905V45.7625H44.6905ZM45.5905 46.6625C45.0934 46.6625 44.6905 46.2595 44.6905 45.7625H47.6905C47.6905 44.6027 46.7503 43.6625 45.5905 43.6625V46.6625ZM42.8051 46.6625H45.5905V43.6625H42.8051V46.6625ZM43.7051 45.7625C43.7051 46.2595 43.3021 46.6625 42.8051 46.6625V43.6625C41.6453 43.6625 40.7051 44.6027 40.7051 45.7625H43.7051ZM43.7051 52.3256V45.7625H40.7051V52.3256H43.7051ZM39.5839 53.8256H42.2051V50.8256H39.5839V53.8256ZM38.0839 25.3278V52.3256H41.0839V25.3278H38.0839ZM43.4051 53.8256H44.9905V50.8256H43.4051V53.8256ZM41.9051 46.3625V52.3256H44.9051V46.3625H41.9051ZM44.9905 44.8625H43.4051V47.8625H44.9905V44.8625ZM46.4905 52.3256V46.3625H43.4905V52.3256H46.4905ZM17.4114 53.8256H19.7411V50.8256H17.4114V53.8256ZM15.9114 45.7625V52.3256H18.9114V45.7625H15.9114ZM16.8113 46.6625C16.3143 46.6625 15.9114 46.2595 15.9114 45.7625H18.9114C18.9114 44.6027 17.9711 43.6625 16.8113 43.6625V46.6625ZM14.026 46.6625H16.8113V43.6625H14.026V46.6625ZM14.926 45.7625C14.926 46.2595 14.523 46.6625 14.026 46.6625V43.6625C12.8662 43.6625 11.926 44.6027 11.926 45.7625H14.926ZM14.926 52.3256V45.7625H11.926V52.3256H14.926ZM10.9584 53.8256H13.426V50.8256H10.9584V53.8256ZM9.45845 25.3954L9.45845 52.3256L12.4584 52.3256L12.4584 25.3954L9.45845 25.3954ZM9.46007 25.4389C9.45898 25.4243 9.45845 25.4098 9.45845 25.3954H12.4584C12.4584 25.3356 12.4562 25.276 12.4518 25.2167L9.46007 25.4389ZM19.7411 23.8278L10.9559 23.8278L10.956 26.8278L19.7411 26.8278L19.7411 23.8278ZM21.2411 52.3256V25.3278H18.2411V52.3256H21.2411ZM17.7114 52.3256V46.3625H14.7114V52.3256H17.7114ZM14.626 53.8256H16.2114V50.8256H14.626V53.8256ZM13.126 46.3625V52.3256H16.126V46.3625H13.126ZM16.2114 44.8625H14.626V47.8625H16.2114V44.8625ZM30.6739 12.0437V8.67889H27.6739V12.0437H30.6739ZM32.5757 9.02301L28.6034 10.6564L29.7443 13.431L33.7166 11.7976L32.5757 9.02301ZM28.5745 10.0539L32.5468 11.7854L33.7455 9.03525L29.7732 7.30383L28.5745 10.0539ZM39.4839 52.3256V17.2302H36.4839V52.3256H39.4839ZM33.7422 53.8256H37.9839V50.8256H33.7422V53.8256ZM32.2422 45.0717V52.3256H35.2422V45.0717H32.2422ZM33.1422 45.9717C32.6451 45.9717 32.2422 45.5688 32.2422 45.0717H35.2422C35.2422 43.9119 34.302 42.9717 33.1422 42.9717V45.9717ZM26.3871 45.9717H33.1422V42.9717H26.3871V45.9717ZM27.2871 45.0717C27.2871 45.5688 26.8842 45.9717 26.3871 45.9717V42.9717C25.2273 42.9717 24.2871 43.9119 24.2871 45.0717H27.2871ZM27.2871 52.3256V45.0717H24.2871V52.3256H27.2871ZM21.3411 53.8256H25.7871V50.8256H21.3411V53.8256ZM19.8411 17.2302V52.3256H22.8411V17.2302H19.8411ZM37.9839 15.7302H21.3411V18.7302H37.9839V15.7302ZM26.9871 53.8256H32.5422V50.8256H26.9871V53.8256ZM25.4871 45.6717V52.3256H28.4871V45.6717H25.4871ZM32.5422 44.1717H26.9871V47.1717H32.5422V44.1717ZM34.0422 52.3256V45.6717H31.0422V52.3256H34.0422Z" fill="#F8F9FA" mask="url(#path-1-outside-1_50_5661)"/>
<rect x="10.2524" y="24.627" width="39.3829" height="28.3545" fill="#3BC9DB"/>
<path d="M20.5381 16.4355L29.6595 16.4356L38.7808 16.4355V53.331H20.5381L20.5381 16.4355Z" fill="#22B8CF" stroke="#212529" stroke-width="1.6" stroke-linecap="round" stroke-linejoin="round"/>
<circle cx="29.7934" cy="24.4731" r="3.93985" fill="#F8F0FC" stroke="#212529" stroke-linecap="round" stroke-linejoin="round"/>
<path d="M29.8416 22.7549V24.6166L30.8813 25.7046" stroke="#212529" stroke-linecap="round" stroke-linejoin="round"/>
<path d="M52.6847 53.3311H7.30933" stroke="#212529" stroke-width="2" stroke-linecap="round" stroke-linejoin="round"/>
<path d="M28.1582 13.1139L34.6818 10.4314L28.371 7.68066L28.1582 13.1139Z" fill="#FA5252" stroke="#212529" stroke-width="1.2" stroke-linecap="round" stroke-linejoin="round"/>
<path d="M28.371 16.1604L28.371 7.26221" stroke="#212529" stroke-width="1.6" stroke-linecap="round" stroke-linejoin="round"/>
<path d="M19.8778 24.4331L7.30933 24.4332" stroke="#212529" stroke-width="1.6" stroke-linecap="round" stroke-linejoin="round"/>
<path d="M10.0555 25.4009L10.0555 52.982" stroke="#212529" stroke-width="1.6" stroke-linecap="round" stroke-linejoin="round"/>
<rect x="14.0229" y="33.3882" width="2.78542" height="2.78542" rx="0.5" fill="#212529"/>
<rect x="14.0229" y="28.4131" width="2.78542" height="2.78542" rx="0.5" fill="#212529"/>
<rect x="14.0229" y="38.3638" width="2.78542" height="2.78542" rx="0.5" fill="#212529"/>
<path d="M39.4409 24.4331L52.0094 24.4332" stroke="#212529" stroke-width="1.6" stroke-linecap="round" stroke-linejoin="round"/>
<path d="M49.6353 25.4009L49.6353 52.982" stroke="#212529" stroke-width="1.6" stroke-linecap="round" stroke-linejoin="round"/>
<rect width="2.78542" height="2.78542" rx="0.5" transform="matrix(-1 0 0 1 45.5875 33.3882)" fill="#212529"/>
<rect width="2.78542" height="2.78542" rx="0.5" transform="matrix(-1 0 0 1 28.371 33.3882)" fill="#212529"/>
<rect width="2.78542" height="2.78542" rx="0.5" transform="matrix(-1 0 0 1 28.371 38.3638)" fill="#212529"/>
<rect width="2.78542" height="2.78542" rx="0.5" transform="matrix(-1 0 0 1 33.7333 33.3882)" fill="#212529"/>
<rect width="2.78542" height="2.78542" rx="0.5" transform="matrix(-1 0 0 1 33.7333 38.3638)" fill="#212529"/>
<rect width="2.78542" height="2.78542" rx="0.5" transform="matrix(-1 0 0 1 45.5875 28.4126)" fill="#212529"/>
<rect width="2.78542" height="2.78542" rx="0.5" transform="matrix(-1 0 0 1 45.5875 38.3638)" fill="#212529"/>
<rect x="26.3842" y="45.0771" width="6.75506" height="7.90474" fill="#51CF66" stroke="#212529" stroke-width="1.2" stroke-linecap="round" stroke-linejoin="round"/>
<rect x="14.0229" y="45.7676" width="2.78539" height="7.21403" fill="#51CF66" stroke="#212529" stroke-width="1.2" stroke-linecap="round" stroke-linejoin="round"/>
<rect x="42.8022" y="45.7676" width="2.78539" height="7.21403" fill="#51CF66" stroke="#212529" stroke-width="1.2" stroke-linecap="round" stroke-linejoin="round"/>
<g style="mix-blend-mode:multiply">
<rect x="37.0918" y="17.0151" width="1.2284" height="35.9663" fill="#CED4DA"/>
</g>
<g style="mix-blend-mode:multiply">
<rect x="47.7637" y="25.4004" width="1.2284" height="27.162" fill="#CED4DA"/>
</g>
<g style="mix-blend-mode:multiply">
<rect x="19.0059" y="25.2236" width="1.2284" height="27.162" fill="#CED4DA"/>
</g>
</svg>
