<svg width="60" height="61" viewBox="0 0 60 61" fill="none" xmlns="http://www.w3.org/2000/svg">
<mask id="path-1-outside-1_50_2051" maskUnits="userSpaceOnUse" x="6.68945" y="13.4873" width="47" height="37" fill="black">
<rect fill="white" x="6.68945" y="13.4873" width="47" height="37"/>
<path fill-rule="evenodd" clip-rule="evenodd" d="M8.68945 18.331C8.68945 16.7605 9.96263 15.4873 11.5332 15.4873H48.4667C50.0373 15.4873 51.3105 16.7605 51.3105 18.331V27.2194C51.3105 28.79 50.0373 30.0631 48.4667 30.0631H31.4355V42.4295H36.2574C37.2323 42.4295 38.0225 43.2197 38.0225 44.1946V44.6067H48.0347C48.5763 44.6067 49.0153 45.0457 49.0153 45.5873C49.0153 46.1288 48.5763 46.5678 48.0347 46.5678H38.0225V46.98C38.0225 47.9548 37.2323 48.745 36.2574 48.745H24.4946C23.5198 48.745 22.7296 47.9548 22.7296 46.98V46.5678H11.5573C11.0158 46.5678 10.5768 46.1288 10.5768 45.5873C10.5768 45.0457 11.0158 44.6067 11.5573 44.6067H22.7296V44.1946C22.7296 43.2197 23.5198 42.4295 24.4946 42.4295H29.4743V30.0631H11.5332C9.96264 30.0631 8.68945 28.79 8.68945 27.2194V18.331ZM29.8665 43.9984H24.4946C24.3863 43.9984 24.2985 44.0863 24.2985 44.1946V44.6067H36.4536V44.1946C36.4536 44.0863 36.3658 43.9984 36.2574 43.9984H31.0433C30.8794 44.1216 30.6757 44.1946 30.4549 44.1946C30.2341 44.1946 30.0304 44.1216 29.8665 43.9984ZM36.4536 46.5678H24.2985V46.98C24.2985 47.0883 24.3863 47.1761 24.4946 47.1761H36.2574C36.3658 47.1761 36.4536 47.0883 36.4536 46.98V46.5678ZM48.4667 28.2981H31.4355V25.5745C31.4355 25.0329 30.9965 24.5939 30.4549 24.5939C29.9133 24.5939 29.4743 25.0329 29.4743 25.5745V28.2981H11.5332C10.9375 28.2981 10.4545 27.8151 10.4545 27.2194V18.331C10.4545 17.7353 10.9375 17.2524 11.5332 17.2524H48.4667C49.0625 17.2524 49.5454 17.7353 49.5454 18.331V27.2194C49.5454 27.8151 49.0625 28.2981 48.4667 28.2981Z"/>
</mask>
<path fill-rule="evenodd" clip-rule="evenodd" d="M8.68945 18.331C8.68945 16.7605 9.96263 15.4873 11.5332 15.4873H48.4667C50.0373 15.4873 51.3105 16.7605 51.3105 18.331V27.2194C51.3105 28.79 50.0373 30.0631 48.4667 30.0631H31.4355V42.4295H36.2574C37.2323 42.4295 38.0225 43.2197 38.0225 44.1946V44.6067H48.0347C48.5763 44.6067 49.0153 45.0457 49.0153 45.5873C49.0153 46.1288 48.5763 46.5678 48.0347 46.5678H38.0225V46.98C38.0225 47.9548 37.2323 48.745 36.2574 48.745H24.4946C23.5198 48.745 22.7296 47.9548 22.7296 46.98V46.5678H11.5573C11.0158 46.5678 10.5768 46.1288 10.5768 45.5873C10.5768 45.0457 11.0158 44.6067 11.5573 44.6067H22.7296V44.1946C22.7296 43.2197 23.5198 42.4295 24.4946 42.4295H29.4743V30.0631H11.5332C9.96264 30.0631 8.68945 28.79 8.68945 27.2194V18.331ZM29.8665 43.9984H24.4946C24.3863 43.9984 24.2985 44.0863 24.2985 44.1946V44.6067H36.4536V44.1946C36.4536 44.0863 36.3658 43.9984 36.2574 43.9984H31.0433C30.8794 44.1216 30.6757 44.1946 30.4549 44.1946C30.2341 44.1946 30.0304 44.1216 29.8665 43.9984ZM36.4536 46.5678H24.2985V46.98C24.2985 47.0883 24.3863 47.1761 24.4946 47.1761H36.2574C36.3658 47.1761 36.4536 47.0883 36.4536 46.98V46.5678ZM48.4667 28.2981H31.4355V25.5745C31.4355 25.0329 30.9965 24.5939 30.4549 24.5939C29.9133 24.5939 29.4743 25.0329 29.4743 25.5745V28.2981H11.5332C10.9375 28.2981 10.4545 27.8151 10.4545 27.2194V18.331C10.4545 17.7353 10.9375 17.2524 11.5332 17.2524H48.4667C49.0625 17.2524 49.5454 17.7353 49.5454 18.331V27.2194C49.5454 27.8151 49.0625 28.2981 48.4667 28.2981Z" fill="#F8F9FA"/>
<path d="M31.4355 30.0631V28.5631C30.6071 28.5631 29.9355 29.2347 29.9355 30.0631H31.4355ZM31.4355 42.4295H29.9355C29.9355 43.2579 30.6071 43.9295 31.4355 43.9295V42.4295ZM38.0225 44.6067H36.5225C36.5225 45.4351 37.1941 46.1067 38.0225 46.1067V44.6067ZM38.0225 46.5678V45.0678C37.1941 45.0678 36.5225 45.7394 36.5225 46.5678H38.0225ZM22.7296 46.5678H24.2296C24.2296 45.7394 23.558 45.0678 22.7296 45.0678V46.5678ZM22.7296 44.6067V46.1067C23.558 46.1067 24.2296 45.4351 24.2296 44.6067H22.7296ZM29.4743 42.4295V43.9295C30.3027 43.9295 30.9743 43.2579 30.9743 42.4295H29.4743ZM29.4743 30.0631H30.9743C30.9743 29.2347 30.3027 28.5631 29.4743 28.5631V30.0631ZM29.8665 43.9984L30.7675 42.7992C30.5076 42.604 30.1914 42.4984 29.8665 42.4984V43.9984ZM24.2985 44.6067H22.7985C22.7985 45.4351 23.4701 46.1067 24.2985 46.1067V44.6067ZM36.4536 44.6067V46.1067C37.282 46.1067 37.9536 45.4351 37.9536 44.6067H36.4536ZM31.0433 43.9984V42.4984C30.7184 42.4984 30.4022 42.604 30.1423 42.7992L31.0433 43.9984ZM36.4536 46.5678H37.9536C37.9536 45.7394 37.282 45.0678 36.4536 45.0678V46.5678ZM24.2985 46.5678V45.0678C23.4701 45.0678 22.7985 45.7394 22.7985 46.5678H24.2985ZM31.4355 28.2981H29.9355C29.9355 29.1265 30.6071 29.7981 31.4355 29.7981V28.2981ZM29.4743 28.2981V29.7981C30.3027 29.7981 30.9743 29.1265 30.9743 28.2981H29.4743ZM11.5332 13.9873C9.1342 13.9873 7.18945 15.9321 7.18945 18.331H10.1895C10.1895 17.5889 10.7911 16.9873 11.5332 16.9873V13.9873ZM48.4667 13.9873H11.5332V16.9873H48.4667V13.9873ZM52.8105 18.331C52.8105 15.9321 50.8657 13.9873 48.4667 13.9873V16.9873C49.2089 16.9873 49.8105 17.5889 49.8105 18.331H52.8105ZM52.8105 27.2194V18.331H49.8105V27.2194H52.8105ZM48.4667 31.5631C50.8657 31.5631 52.8105 29.6184 52.8105 27.2194H49.8105C49.8105 27.9615 49.2089 28.5631 48.4667 28.5631V31.5631ZM31.4355 31.5631H48.4667V28.5631H31.4355V31.5631ZM32.9355 42.4295V30.0631H29.9355V42.4295H32.9355ZM31.4355 43.9295H36.2574V40.9295H31.4355V43.9295ZM36.2574 43.9295C36.4038 43.9295 36.5225 44.0482 36.5225 44.1946H39.5225C39.5225 42.3913 38.0607 40.9295 36.2574 40.9295V43.9295ZM36.5225 44.1946V44.6067H39.5225V44.1946H36.5225ZM38.0225 46.1067H48.0347V43.1067H38.0225V46.1067ZM48.0347 46.1067C47.7479 46.1067 47.5153 45.8741 47.5153 45.5873H50.5153C50.5153 44.2173 49.4047 43.1067 48.0347 43.1067V46.1067ZM47.5153 45.5873C47.5153 45.3004 47.7479 45.0678 48.0347 45.0678V48.0678C49.4047 48.0678 50.5153 46.9572 50.5153 45.5873H47.5153ZM48.0347 45.0678H38.0225V48.0678H48.0347V45.0678ZM36.5225 46.5678V46.98H39.5225V46.5678H36.5225ZM36.5225 46.98C36.5225 47.1264 36.4038 47.245 36.2574 47.245V50.245C38.0607 50.245 39.5225 48.7832 39.5225 46.98H36.5225ZM36.2574 47.245H24.4946V50.245H36.2574V47.245ZM24.4946 47.245C24.3482 47.245 24.2296 47.1264 24.2296 46.98H21.2296C21.2296 48.7832 22.6914 50.245 24.4946 50.245V47.245ZM24.2296 46.98V46.5678H21.2296V46.98H24.2296ZM22.7296 45.0678H11.5573V48.0678H22.7296V45.0678ZM11.5573 45.0678C11.8442 45.0678 12.0768 45.3004 12.0768 45.5873H9.07676C9.07676 46.9572 10.1874 48.0678 11.5573 48.0678V45.0678ZM12.0768 45.5873C12.0768 45.8741 11.8442 46.1067 11.5573 46.1067V43.1067C10.1874 43.1067 9.07676 44.2173 9.07676 45.5873H12.0768ZM11.5573 46.1067H22.7296V43.1067H11.5573V46.1067ZM24.2296 44.6067V44.1946H21.2296V44.6067H24.2296ZM24.2296 44.1946C24.2296 44.0482 24.3482 43.9295 24.4946 43.9295V40.9295C22.6914 40.9295 21.2296 42.3913 21.2296 44.1946H24.2296ZM24.4946 43.9295H29.4743V40.9295H24.4946V43.9295ZM27.9743 30.0631V42.4295H30.9743V30.0631H27.9743ZM11.5332 31.5631H29.4743V28.5631H11.5332V31.5631ZM7.18945 27.2194C7.18945 29.6184 9.13421 31.5631 11.5332 31.5631V28.5631C10.7911 28.5631 10.1895 27.9615 10.1895 27.2194H7.18945ZM7.18945 18.331V27.2194H10.1895V18.331H7.18945ZM29.8665 42.4984H24.4946V45.4984H29.8665V42.4984ZM24.4946 42.4984C23.5579 42.4984 22.7985 43.2578 22.7985 44.1946H25.7985C25.7985 44.9147 25.2148 45.4984 24.4946 45.4984V42.4984ZM22.7985 44.1946V44.6067H25.7985V44.1946H22.7985ZM24.2985 46.1067H36.4536V43.1067H24.2985V46.1067ZM37.9536 44.6067V44.1946H34.9536V44.6067H37.9536ZM37.9536 44.1946C37.9536 43.2578 37.1942 42.4984 36.2574 42.4984V45.4984C35.5373 45.4984 34.9536 44.9147 34.9536 44.1946H37.9536ZM36.2574 42.4984H31.0433V45.4984H36.2574V42.4984ZM30.4549 45.6946C31.0117 45.6946 31.5296 45.5093 31.9443 45.1977L30.1423 42.7992C30.2293 42.7339 30.3397 42.6946 30.4549 42.6946V45.6946ZM28.9655 45.1977C29.3802 45.5093 29.8981 45.6946 30.4549 45.6946V42.6946C30.5701 42.6946 30.6805 42.7339 30.7675 42.7992L28.9655 45.1977ZM36.4536 45.0678H24.2985V48.0678H36.4536V45.0678ZM22.7985 46.5678V46.98H25.7985V46.5678H22.7985ZM22.7985 46.98C22.7985 47.9167 23.5579 48.6761 24.4946 48.6761V45.6761C25.2147 45.6761 25.7985 46.2598 25.7985 46.98H22.7985ZM24.4946 48.6761H36.2574V45.6761H24.4946V48.6761ZM36.2574 48.6761C37.1942 48.6761 37.9536 47.9167 37.9536 46.98H34.9536C34.9536 46.2598 35.5373 45.6761 36.2574 45.6761V48.6761ZM37.9536 46.98V46.5678H34.9536V46.98H37.9536ZM31.4355 29.7981H48.4667V26.7981H31.4355V29.7981ZM29.9355 25.5745V28.2981H32.9355V25.5745H29.9355ZM30.4549 26.0939C30.168 26.0939 29.9355 25.8613 29.9355 25.5745H32.9355C32.9355 24.2045 31.8249 23.0939 30.4549 23.0939V26.0939ZM30.9743 25.5745C30.9743 25.8613 30.7418 26.0939 30.4549 26.0939V23.0939C29.0849 23.0939 27.9743 24.2045 27.9743 25.5745H30.9743ZM30.9743 28.2981V25.5745H27.9743V28.2981H30.9743ZM11.5332 29.7981H29.4743V26.7981H11.5332V29.7981ZM8.95452 27.2194C8.95452 28.6436 10.109 29.7981 11.5332 29.7981V26.7981C11.7659 26.7981 11.9545 26.9867 11.9545 27.2194H8.95452ZM8.95452 18.331V27.2194H11.9545V18.331H8.95452ZM11.5332 15.7524C10.109 15.7524 8.95452 16.9069 8.95452 18.331H11.9545C11.9545 18.5637 11.7659 18.7524 11.5332 18.7524V15.7524ZM48.4667 15.7524H11.5332V18.7524H48.4667V15.7524ZM51.0454 18.331C51.0454 16.9069 49.8909 15.7524 48.4667 15.7524V18.7524C48.234 18.7524 48.0454 18.5637 48.0454 18.331H51.0454ZM51.0454 27.2194V18.331H48.0454V27.2194H51.0454ZM48.4667 29.7981C49.8909 29.7981 51.0454 28.6436 51.0454 27.2194H48.0454C48.0454 26.9867 48.234 26.7981 48.4667 26.7981V29.7981Z" fill="#F8F9FA" mask="url(#path-1-outside-1_50_2051)"/>
<path d="M30.455 25.6152L30.455 43.2547" stroke="#212529" stroke-width="2" stroke-linecap="round" stroke-linejoin="round"/>
<path d="M11.5574 45.6282H48.0348" stroke="#212529" stroke-width="2" stroke-linecap="round" stroke-linejoin="round"/>
<rect x="9.57202" y="16.4106" width="40.8559" height="12.8108" rx="2" fill="#4DABF7" stroke="#212529" stroke-width="1.8" stroke-linejoin="round"/>
<path fill-rule="evenodd" clip-rule="evenodd" d="M30 22.8159H15.2405Z" fill="white"/>
<path d="M30 22.8159H15.2405" stroke="#212529" stroke-width="1.4" stroke-linecap="round" stroke-linejoin="round"/>
<circle cx="36.1052" cy="22.8161" r="1.93203" fill="#FFE066" stroke="#212529" stroke-linejoin="round"/>
<circle cx="42.911" cy="22.8161" r="1.93203" fill="#FFE066" stroke="#212529" stroke-linejoin="round"/>
<rect x="23.514" y="43.2549" width="13.724" height="4.74658" rx="1" fill="#FA5252" stroke="#212529" stroke-width="1.6" stroke-linejoin="round"/>
<g style="mix-blend-mode:multiply">
<path fill-rule="evenodd" clip-rule="evenodd" d="M9.55396 27.3469C9.85706 28.0658 10.5684 28.5705 11.3977 28.5705H48.428C49.5325 28.5705 50.428 27.6751 50.428 26.5705V19.0386C50.428 17.9705 49.5906 17.0979 48.5365 17.0415V26.3469C48.5365 26.8991 48.0888 27.3469 47.5365 27.3469H9.55396Z" fill="#DEE2E6"/>
</g>
</svg>
