<svg width="60" height="60" viewBox="0 0 60 60" fill="none" xmlns="http://www.w3.org/2000/svg">
<mask id="path-1-outside-1_50_7073" maskUnits="userSpaceOnUse" x="7.03638" y="7.54443" width="46" height="47" fill="black">
<rect fill="white" x="7.03638" y="7.54443" width="46" height="47"/>
<path fill-rule="evenodd" clip-rule="evenodd" d="M18.237 9.54443H25.8137L25.8967 10.1159C26.0613 11.2488 26.6524 11.9781 27.4106 12.4465C28.186 12.9255 29.1489 13.1352 30.0055 13.1551C30.9268 13.1351 31.8831 12.9238 32.6358 12.4496C33.3693 11.9875 33.9376 11.2613 34.104 10.1159L34.187 9.54443H41.7637L41.9035 9.61348C42.7405 10.027 44.0477 10.7994 45.2918 11.7921C46.523 12.7746 47.765 14.0297 48.3778 15.4241C48.5529 15.8223 48.6991 16.487 48.8318 17.2863C48.9686 18.1099 49.1018 19.1497 49.2309 20.3467C49.4892 22.7419 49.7337 25.7961 49.9553 29.0692C50.3988 35.6171 50.7527 43.0664 50.9429 47.9284L50.9629 48.4389L50.4753 48.5915C48.3793 49.2471 47.0799 49.4666 45.1266 49.4921V52.0589L44.5117 52.1075C41.2474 52.3655 38.2423 52.3944 35.5412 52.4204L35.5336 52.4205C33.8333 52.4368 32.2605 52.4521 30.8081 52.5209V52.5384L30.1768 52.5727C24.4291 52.8844 21.1902 52.8267 15.4526 52.0548L14.8741 51.977V49.4554C12.9305 49.3265 11.653 49.1053 9.56843 48.6034L9.03638 48.4752L9.05778 47.9284C9.24803 43.0664 9.60189 35.6171 10.0454 29.0692C10.2671 25.7961 10.5116 22.7419 10.7698 20.3467C10.8989 19.1497 11.0321 18.1099 11.1689 17.2863C11.3016 16.487 11.4479 15.8223 11.6229 15.4241C12.2358 14.0297 13.4777 12.7746 14.7089 11.7921C15.953 10.7994 17.2602 10.027 18.0973 9.61348L18.237 9.54443ZM18.5512 10.8793C17.7864 11.2704 16.6363 11.9619 15.5415 12.8355C14.3661 13.7734 13.327 14.8643 12.8449 15.9611C12.7462 16.1857 12.6206 16.6927 12.4857 17.5049C12.3549 18.2929 12.2248 19.3045 12.097 20.4898C11.8415 22.8591 11.5984 25.893 11.3772 29.1594C10.9512 35.4491 10.6078 42.5779 10.4133 47.4317C12.3247 47.8755 13.5342 48.0513 15.577 48.16L16.209 48.1936V50.8084C21.2877 51.4676 24.3754 51.5328 29.4732 51.273V51.2601L30.1004 51.2222C31.7615 51.1219 33.5743 51.1044 35.5095 51.0858L35.5207 51.0857C38.0541 51.0613 40.8128 51.0346 43.7917 50.8229V48.1545L44.4637 48.159C46.506 48.1729 47.6921 48.0287 49.5888 47.4664C49.3946 42.6119 49.0506 35.4641 48.6236 29.1594C48.4023 25.893 48.1592 22.8591 47.9038 20.4898C47.776 19.3045 47.6458 18.2929 47.515 17.5049C47.3801 16.6927 47.2545 16.1857 47.1558 15.9611C46.6737 14.8643 45.6346 13.7734 44.4592 12.8355C43.3644 11.9619 42.2143 11.2704 41.4495 10.8793H35.3107C34.9893 12.125 34.2594 13.0044 33.3474 13.579C32.3247 14.2233 31.103 14.4686 30.0182 14.49L30.0046 14.4903L29.991 14.49C28.9635 14.4684 27.744 14.2215 26.709 13.5821C25.7867 13.0123 25.0221 12.1348 24.6915 10.8793H18.5512Z"/>
</mask>
<path fill-rule="evenodd" clip-rule="evenodd" d="M18.237 9.54443H25.8137L25.8967 10.1159C26.0613 11.2488 26.6524 11.9781 27.4106 12.4465C28.186 12.9255 29.1489 13.1352 30.0055 13.1551C30.9268 13.1351 31.8831 12.9238 32.6358 12.4496C33.3693 11.9875 33.9376 11.2613 34.104 10.1159L34.187 9.54443H41.7637L41.9035 9.61348C42.7405 10.027 44.0477 10.7994 45.2918 11.7921C46.523 12.7746 47.765 14.0297 48.3778 15.4241C48.5529 15.8223 48.6991 16.487 48.8318 17.2863C48.9686 18.1099 49.1018 19.1497 49.2309 20.3467C49.4892 22.7419 49.7337 25.7961 49.9553 29.0692C50.3988 35.6171 50.7527 43.0664 50.9429 47.9284L50.9629 48.4389L50.4753 48.5915C48.3793 49.2471 47.0799 49.4666 45.1266 49.4921V52.0589L44.5117 52.1075C41.2474 52.3655 38.2423 52.3944 35.5412 52.4204L35.5336 52.4205C33.8333 52.4368 32.2605 52.4521 30.8081 52.5209V52.5384L30.1768 52.5727C24.4291 52.8844 21.1902 52.8267 15.4526 52.0548L14.8741 51.977V49.4554C12.9305 49.3265 11.653 49.1053 9.56843 48.6034L9.03638 48.4752L9.05778 47.9284C9.24803 43.0664 9.60189 35.6171 10.0454 29.0692C10.2671 25.7961 10.5116 22.7419 10.7698 20.3467C10.8989 19.1497 11.0321 18.1099 11.1689 17.2863C11.3016 16.487 11.4479 15.8223 11.6229 15.4241C12.2358 14.0297 13.4777 12.7746 14.7089 11.7921C15.953 10.7994 17.2602 10.027 18.0973 9.61348L18.237 9.54443ZM18.5512 10.8793C17.7864 11.2704 16.6363 11.9619 15.5415 12.8355C14.3661 13.7734 13.327 14.8643 12.8449 15.9611C12.7462 16.1857 12.6206 16.6927 12.4857 17.5049C12.3549 18.2929 12.2248 19.3045 12.097 20.4898C11.8415 22.8591 11.5984 25.893 11.3772 29.1594C10.9512 35.4491 10.6078 42.5779 10.4133 47.4317C12.3247 47.8755 13.5342 48.0513 15.577 48.16L16.209 48.1936V50.8084C21.2877 51.4676 24.3754 51.5328 29.4732 51.273V51.2601L30.1004 51.2222C31.7615 51.1219 33.5743 51.1044 35.5095 51.0858L35.5207 51.0857C38.0541 51.0613 40.8128 51.0346 43.7917 50.8229V48.1545L44.4637 48.159C46.506 48.1729 47.6921 48.0287 49.5888 47.4664C49.3946 42.6119 49.0506 35.4641 48.6236 29.1594C48.4023 25.893 48.1592 22.8591 47.9038 20.4898C47.776 19.3045 47.6458 18.2929 47.515 17.5049C47.3801 16.6927 47.2545 16.1857 47.1558 15.9611C46.6737 14.8643 45.6346 13.7734 44.4592 12.8355C43.3644 11.9619 42.2143 11.2704 41.4495 10.8793H35.3107C34.9893 12.125 34.2594 13.0044 33.3474 13.579C32.3247 14.2233 31.103 14.4686 30.0182 14.49L30.0046 14.4903L29.991 14.49C28.9635 14.4684 27.744 14.2215 26.709 13.5821C25.7867 13.0123 25.0221 12.1348 24.6915 10.8793H18.5512Z" fill="#F8F9FA"/>
<path d="M18.237 9.54443V8.04443C18.0066 8.04443 17.7792 8.09753 17.5726 8.19961L18.237 9.54443ZM25.8137 9.54443L27.2981 9.32881C27.191 8.59141 26.5589 8.04443 25.8137 8.04443V9.54443ZM25.8967 10.1159L24.4123 10.3315L24.4123 10.3315L25.8967 10.1159ZM27.4106 12.4465L28.1989 11.1703L28.1989 11.1703L27.4106 12.4465ZM30.0055 13.1551L29.9705 14.6547C29.9931 14.6553 30.0156 14.6553 30.0381 14.6548L30.0055 13.1551ZM32.6358 12.4496L33.4354 13.7187L33.4354 13.7187L32.6358 12.4496ZM34.104 10.1159L32.6196 9.90028L32.6196 9.90029L34.104 10.1159ZM34.187 9.54443V8.04443C33.4419 8.04443 32.8097 8.59141 32.7026 9.32881L34.187 9.54443ZM41.7637 9.54443L42.4281 8.19961C42.2215 8.09753 41.9942 8.04443 41.7637 8.04443V9.54443ZM41.9035 9.61348L41.239 10.9583L41.239 10.9583L41.9035 9.61348ZM45.2918 11.7921L44.3562 12.9646L44.3562 12.9646L45.2918 11.7921ZM48.3778 15.4241L47.0046 16.0276L47.0046 16.0276L48.3778 15.4241ZM48.8318 17.2863L50.3115 17.0405L50.3115 17.0405L48.8318 17.2863ZM49.2309 20.3467L47.7395 20.5075L47.7395 20.5075L49.2309 20.3467ZM49.9553 29.0692L48.4588 29.1706L48.4588 29.1706L49.9553 29.0692ZM50.9429 47.9284L49.4441 47.987L49.4441 47.987L50.9429 47.9284ZM50.9629 48.4389L51.4107 49.8705C52.0575 49.6682 52.4883 49.0574 52.4618 48.3803L50.9629 48.4389ZM50.4753 48.5915L50.0275 47.1599L50.0275 47.1599L50.4753 48.5915ZM45.1266 49.4921L45.107 47.9923C44.2863 48.003 43.6266 48.6714 43.6266 49.4921H45.1266ZM45.1266 52.0589L45.2448 53.5543C46.0249 53.4926 46.6266 52.8415 46.6266 52.0589H45.1266ZM44.5117 52.1075L44.3936 50.6122L44.3936 50.6122L44.5117 52.1075ZM35.5412 52.4204L35.5267 50.9205L35.5261 50.9205L35.5412 52.4204ZM35.5336 52.4205L35.548 53.9204L35.5486 53.9204L35.5336 52.4205ZM30.8081 52.5209L30.7371 51.0226C29.9371 51.0605 29.3081 51.7201 29.3081 52.5209H30.8081ZM30.8081 52.5384L30.8893 54.0362C31.685 53.9931 32.3081 53.3353 32.3081 52.5384H30.8081ZM30.1768 52.5727L30.258 54.0705L30.258 54.0705L30.1768 52.5727ZM15.4526 52.0548L15.6525 50.5682L15.6525 50.5682L15.4526 52.0548ZM14.8741 51.977H13.3741C13.3741 52.7281 13.9297 53.3634 14.6741 53.4636L14.8741 51.977ZM14.8741 49.4554H16.3741C16.3741 48.6655 15.7615 48.0109 14.9734 47.9586L14.8741 49.4554ZM9.56843 48.6034L9.9196 47.145L9.91959 47.145L9.56843 48.6034ZM9.03638 48.4752L7.53752 48.4166C7.50956 49.1312 7.98995 49.7661 8.68522 49.9336L9.03638 48.4752ZM9.05778 47.9284L7.55892 47.8697L7.55892 47.8697L9.05778 47.9284ZM10.0454 29.0692L11.5419 29.1706L11.5419 29.1706L10.0454 29.0692ZM10.7698 20.3467L9.27845 20.1859L9.27845 20.1859L10.7698 20.3467ZM11.1689 17.2863L12.6487 17.532L12.6487 17.532L11.1689 17.2863ZM11.6229 15.4241L10.2497 14.8205L10.2497 14.8205L11.6229 15.4241ZM14.7089 11.7921L13.7733 10.6197L13.7733 10.6197L14.7089 11.7921ZM18.0973 9.61348L18.7617 10.9583L18.7617 10.9583L18.0973 9.61348ZM15.5415 12.8355L16.4771 14.008L16.4771 14.008L15.5415 12.8355ZM18.5512 10.8793V9.37927C18.3138 9.37927 18.0797 9.43564 17.8683 9.54375L18.5512 10.8793ZM12.8449 15.9611L14.2181 16.5647L14.2181 16.5647L12.8449 15.9611ZM12.4857 17.5049L11.006 17.2592L11.006 17.2592L12.4857 17.5049ZM12.097 20.4898L13.5883 20.6506L13.5883 20.6506L12.097 20.4898ZM11.3772 29.1594L9.88059 29.058L11.3772 29.1594ZM10.4133 47.4317L8.91453 47.3716C8.8857 48.0913 9.37245 48.7299 10.074 48.8928L10.4133 47.4317ZM15.577 48.16L15.6567 46.6621L15.6567 46.6621L15.577 48.16ZM16.209 48.1936H17.709C17.709 47.3961 17.085 46.738 16.2886 46.6957L16.209 48.1936ZM16.209 50.8084H14.709C14.709 51.5621 15.2684 52.1989 16.0159 52.2959L16.209 50.8084ZM29.4732 51.273L29.5496 52.7711C30.3473 52.7304 30.9732 52.0718 30.9732 51.273H29.4732ZM29.4732 51.2601L29.3828 49.7628C28.5909 49.8106 27.9732 50.4667 27.9732 51.2601H29.4732ZM30.1004 51.2222L30.1908 52.7195L30.1908 52.7194L30.1004 51.2222ZM35.5095 51.0858L35.5239 52.5857L35.5241 52.5857L35.5095 51.0858ZM35.5207 51.0857L35.5063 49.5858L35.5061 49.5858L35.5207 51.0857ZM43.7917 50.8229L43.898 52.3192C44.6832 52.2634 45.2917 51.6101 45.2917 50.8229H43.7917ZM43.7917 48.1545L43.8019 46.6545C43.4023 46.6518 43.0182 46.8086 42.7347 47.0902C42.4512 47.3718 42.2917 47.7549 42.2917 48.1545H43.7917ZM44.4637 48.159L44.4739 46.6591L44.4738 46.6591L44.4637 48.159ZM49.5888 47.4664L50.0152 48.9045C50.6733 48.7093 51.115 48.0923 51.0876 47.4064L49.5888 47.4664ZM48.6236 29.1594L50.1201 29.058L50.1201 29.058L48.6236 29.1594ZM47.9038 20.4898L49.3951 20.329L49.3951 20.329L47.9038 20.4898ZM47.515 17.5049L48.9947 17.2592L48.9947 17.2592L47.515 17.5049ZM47.1558 15.9611L48.529 15.3576L48.529 15.3576L47.1558 15.9611ZM44.4592 12.8355L45.3948 11.663L45.3948 11.663L44.4592 12.8355ZM41.4495 10.8793L42.1324 9.54375C41.921 9.43564 41.6869 9.37927 41.4495 9.37927V10.8793ZM35.3107 10.8793V9.37927C34.6266 9.37927 34.0291 9.84216 33.8583 10.5046L35.3107 10.8793ZM33.3474 13.579L32.5478 12.3099L32.5478 12.3099L33.3474 13.579ZM30.0182 14.49L29.9886 12.9903L29.9886 12.9903L30.0182 14.49ZM30.0046 14.4903L29.9731 15.9899C29.9935 15.9904 30.0138 15.9904 30.0342 15.99L30.0046 14.4903ZM29.991 14.49L29.9595 15.9897L29.9595 15.9897L29.991 14.49ZM26.709 13.5821L25.9207 14.8582L25.9207 14.8582L26.709 13.5821ZM24.6915 10.8793L26.1421 10.4974C25.9686 9.83848 25.3729 9.37927 24.6915 9.37927V10.8793ZM27.3812 9.90028L27.2981 9.32881L24.3293 9.76006L24.4123 10.3315L27.3812 9.90028ZM28.1989 11.1703C27.7764 10.9093 27.4752 10.5478 27.3812 9.90028L24.4123 10.3315C24.6474 11.9498 25.5283 13.0468 26.6222 13.7226L28.1989 11.1703ZM30.0405 11.6556C29.3714 11.64 28.6887 11.4729 28.1989 11.1703L26.6222 13.7226C27.6833 14.3781 28.9263 14.6304 29.9705 14.6547L30.0405 11.6556ZM31.8363 11.1805C31.3813 11.4671 30.7155 11.6393 29.9729 11.6555L30.0381 14.6548C31.1382 14.6309 32.3849 14.3806 33.4354 13.7187L31.8363 11.1805ZM32.6196 9.90029C32.5197 10.5879 32.2186 10.9396 31.8363 11.1805L33.4354 13.7187C34.52 13.0354 35.3555 11.9346 35.5884 10.3315L32.6196 9.90029ZM32.7026 9.32881L32.6196 9.90028L35.5884 10.3315L35.6714 9.76006L32.7026 9.32881ZM42.5679 8.26866L42.4281 8.19961L41.0993 10.8893L41.239 10.9583L42.5679 8.26866ZM46.2274 10.6197C44.8915 9.5537 43.4918 8.72514 42.5679 8.26865L41.239 10.9583C41.9892 11.3289 43.2039 12.0451 44.3562 12.9646L46.2274 10.6197ZM49.751 14.8205C48.9913 13.0919 47.5216 11.6524 46.2274 10.6197L44.3562 12.9646C45.5244 13.8968 46.5386 14.9674 47.0046 16.0276L49.751 14.8205ZM50.3115 17.0405C50.181 16.2546 50.0117 15.4135 49.751 14.8205L47.0046 16.0276C47.094 16.2311 47.2171 16.7195 47.3521 17.532L50.3115 17.0405ZM50.7223 20.1859C50.5918 18.9758 50.455 17.9043 50.3115 17.0405L47.3521 17.532C47.4822 18.3155 47.6119 19.3236 47.7395 20.5075L50.7223 20.1859ZM51.4519 28.9678C51.2297 25.6872 50.9837 22.6102 50.7223 20.1859L47.7395 20.5075C47.9947 22.8736 48.2376 25.905 48.4588 29.1706L51.4519 28.9678ZM52.4418 47.8697C52.2512 42.9988 51.8967 35.5343 51.4519 28.9678L48.4588 29.1706C48.901 35.6998 49.2542 43.1341 49.4441 47.987L52.4418 47.8697ZM52.4618 48.3803L52.4418 47.8697L49.4441 47.987L49.4641 48.4976L52.4618 48.3803ZM50.9231 50.0231L51.4107 49.8705L50.5151 47.0073L50.0275 47.1599L50.9231 50.0231ZM45.1462 50.992C47.2621 50.9644 48.7059 50.7166 50.9231 50.0231L50.0275 47.1599C48.0526 47.7776 46.8978 47.9689 45.107 47.9923L45.1462 50.992ZM44.6299 53.6029L45.2448 53.5543L45.0084 50.5636L44.3936 50.6122L44.6299 53.6029ZM35.5556 53.9203C38.2528 53.8944 41.3069 53.8655 44.6299 53.6029L44.3936 50.6122C41.188 50.8655 38.2318 50.8944 35.5267 50.9205L35.5556 53.9203ZM35.5486 53.9204L35.5562 53.9203L35.5261 50.9205L35.5185 50.9205L35.5486 53.9204ZM30.8791 54.0192C32.2978 53.952 33.8409 53.9368 35.548 53.9204L35.5191 50.9205C33.8257 50.9368 32.2231 50.9522 30.7371 51.0226L30.8791 54.0192ZM32.3081 52.5384V52.5209H29.3081V52.5384H32.3081ZM30.258 54.0705L30.8893 54.0362L30.7268 51.0406L30.0956 51.0749L30.258 54.0705ZM15.2526 53.5414C21.0982 54.3278 24.4326 54.3864 30.258 54.0705L30.0956 51.0749C24.4255 51.3824 21.2822 51.3256 15.6525 50.5682L15.2526 53.5414ZM14.6741 53.4636L15.2526 53.5414L15.6525 50.5682L15.0741 50.4904L14.6741 53.4636ZM9.21726 50.0617C11.3632 50.5784 12.7269 50.8163 14.7749 50.9521L14.9734 47.9586C13.1341 47.8367 11.9428 47.6322 9.9196 47.145L9.21726 50.0617ZM8.68522 49.9336L9.21727 50.0617L9.91959 47.145L9.38754 47.0169L8.68522 49.9336ZM7.55892 47.8697L7.53752 48.4166L10.5352 48.5339L10.5566 47.987L7.55892 47.8697ZM8.5488 28.9678C8.10406 35.5343 7.74952 42.9988 7.55892 47.8697L10.5566 47.987C10.7465 43.1341 11.0997 35.6998 11.5419 29.1706L8.5488 28.9678ZM9.27845 20.1859C9.01706 22.6102 8.771 25.6872 8.5488 28.9678L11.5419 29.1706C11.7631 25.905 12.006 22.8736 12.2612 20.5075L9.27845 20.1859ZM9.68918 17.0405C9.54575 17.9043 9.40893 18.9758 9.27845 20.1859L12.2612 20.5075C12.3888 19.3236 12.5185 18.3155 12.6487 17.532L9.68918 17.0405ZM10.2497 14.8205C9.98906 15.4135 9.8197 16.2546 9.68918 17.0405L12.6487 17.532C12.7836 16.7195 12.9067 16.2311 12.9961 16.0276L10.2497 14.8205ZM13.7733 10.6197C12.4791 11.6524 11.0094 13.0919 10.2497 14.8205L12.9961 16.0276C13.4621 14.9674 14.4763 13.8968 15.6445 12.9646L13.7733 10.6197ZM17.4328 8.26865C16.5089 8.72514 15.1092 9.5537 13.7733 10.6197L15.6445 12.9646C16.7969 12.0451 18.0115 11.3289 18.7617 10.9583L17.4328 8.26865ZM17.5726 8.19961L17.4328 8.26865L18.7617 10.9583L18.9014 10.8893L17.5726 8.19961ZM16.4771 14.008C17.4838 13.2047 18.5473 12.566 19.2341 12.2148L17.8683 9.54375C17.0256 9.97468 15.7888 10.7192 14.6059 11.663L16.4771 14.008ZM14.2181 16.5647C14.5532 15.8023 15.3643 14.8959 16.4771 14.008L14.6059 11.663C13.368 12.6509 12.1008 13.9262 11.4717 15.3576L14.2181 16.5647ZM13.9655 17.7507C14.0293 17.3663 14.0881 17.0715 14.1387 16.8577C14.1941 16.6232 14.2254 16.5482 14.2181 16.5647L11.4717 15.3576C11.287 15.7779 11.1382 16.4633 11.006 17.2592L13.9655 17.7507ZM13.5883 20.6506C13.7147 19.4784 13.8413 18.4985 13.9655 17.7507L11.006 17.2592C10.8685 18.0873 10.7348 19.1306 10.6056 20.329L13.5883 20.6506ZM12.8737 29.2608C13.0945 26.0019 13.336 22.9908 13.5883 20.6506L10.6056 20.329C10.347 22.7274 10.1023 25.7841 9.88059 29.058L12.8737 29.2608ZM11.9121 47.4917C12.1062 42.6465 12.449 35.5323 12.8737 29.2608L9.88059 29.058C9.45336 35.3659 9.10932 42.5093 8.91453 47.3716L11.9121 47.4917ZM15.6567 46.6621C13.7018 46.5581 12.5792 46.3947 10.7526 45.9705L10.074 48.8928C12.0702 49.3563 13.3665 49.5445 15.4973 49.6578L15.6567 46.6621ZM16.2886 46.6957L15.6567 46.6621L15.4973 49.6578L16.1293 49.6915L16.2886 46.6957ZM29.3969 49.775C24.3751 50.0308 21.3787 49.9668 16.402 49.3208L16.0159 52.2959C21.1968 52.9684 24.3758 53.0347 29.5496 52.7711L29.3969 49.775ZM27.9732 51.2601V51.273H30.9732V51.2601H27.9732ZM30.01 49.7249L29.3828 49.7628L29.5637 52.7573L30.1908 52.7195L30.01 49.7249ZM35.4951 49.5859C33.5692 49.6044 31.7163 49.6219 30.01 49.7249L30.1908 52.7194C31.8067 52.6219 33.5793 52.6044 35.5239 52.5857L35.4951 49.5859ZM35.5061 49.5858L35.4949 49.5859L35.5241 52.5857L35.5353 52.5856L35.5061 49.5858ZM43.6854 49.3267C40.7587 49.5346 38.0435 49.5614 35.5063 49.5858L35.5352 52.5856C38.0646 52.5613 40.8669 52.5345 43.898 52.3192L43.6854 49.3267ZM44.4738 46.6591L43.8019 46.6545L43.7816 49.6544L44.4535 49.659L44.4738 46.6591ZM49.1624 46.0282C47.4241 46.5436 46.387 46.672 44.4739 46.6591L44.4535 49.659C46.6251 49.6737 47.96 49.5138 50.0152 48.9045L49.1624 46.0282ZM47.127 29.2608C47.5528 35.5473 47.8961 42.6804 48.09 47.5263L51.0876 47.4064C50.893 42.5434 50.5484 35.381 50.1201 29.058L47.127 29.2608ZM46.4124 20.6506C46.6647 22.9908 46.9063 26.0019 47.127 29.2608L50.1201 29.058C49.8984 25.7841 49.6537 22.7274 49.3951 20.329L46.4124 20.6506ZM46.0353 17.7507C46.1594 18.4985 46.286 19.4784 46.4124 20.6506L49.3951 20.329C49.2659 19.1306 49.1322 18.0873 48.9947 17.2592L46.0353 17.7507ZM45.7826 16.5647C45.7753 16.5482 45.8066 16.6232 45.8621 16.8577C45.9126 17.0715 45.9714 17.3663 46.0353 17.7507L48.9947 17.2592C48.8625 16.4633 48.7138 15.7779 48.529 15.3576L45.7826 16.5647ZM43.5236 14.008C44.6364 14.8959 45.4475 15.8023 45.7826 16.5647L48.529 15.3576C47.8999 13.9262 46.6327 12.6509 45.3948 11.663L43.5236 14.008ZM40.7666 12.2148C41.4534 12.566 42.5169 13.2047 43.5236 14.008L45.3948 11.663C44.2119 10.7192 42.9751 9.97469 42.1324 9.54375L40.7666 12.2148ZM35.3107 12.3793H41.4495V9.37927H35.3107V12.3793ZM34.147 14.8481C35.3557 14.0865 36.3385 12.9 36.7632 11.254L33.8583 10.5046C33.6402 11.35 33.1631 11.9222 32.5478 12.3099L34.147 14.8481ZM30.0478 15.9897C31.3113 15.9648 32.825 15.681 34.147 14.8481L32.5478 12.3099C31.8244 12.7656 30.8946 12.9724 29.9886 12.9903L30.0478 15.9897ZM30.0342 15.99L30.0478 15.9897L29.9886 12.9903L29.975 12.9906L30.0342 15.99ZM29.9595 15.9897L29.9731 15.9899L30.0361 12.9906L30.0225 12.9903L29.9595 15.9897ZM25.9207 14.8582C27.2429 15.675 28.744 15.9641 29.9595 15.9897L30.0225 12.9903C29.1831 12.9727 28.2452 12.7679 27.4974 12.306L25.9207 14.8582ZM23.2409 11.2612C23.6818 12.9355 24.7148 14.1133 25.9207 14.8582L27.4974 12.306C26.8586 11.9114 26.3624 11.3341 26.1421 10.4974L23.2409 11.2612ZM18.5512 12.3793H24.6915V9.37927H18.5512V12.3793ZM25.8137 8.04443H18.237V11.0444H25.8137V8.04443ZM41.7637 8.04443H34.187V11.0444H41.7637V8.04443ZM46.6266 52.0589V49.4921H43.6266V52.0589H46.6266ZM13.3741 49.4554V51.977H16.3741V49.4554H13.3741ZM17.709 50.8084V48.1936H14.709V50.8084H17.709ZM42.2917 48.1545V50.8229H45.2917V48.1545H42.2917Z" fill="#F8F9FA" mask="url(#path-1-outside-1_50_7073)"/>
<path fill-rule="evenodd" clip-rule="evenodd" d="M25.2806 10.4673C25.2509 10.3212 25.1256 10.2114 24.9765 10.2114H18.4628C18.4167 10.2114 18.3726 10.2213 18.3314 10.2419C16.7089 11.0559 13.3149 13.2323 12.2338 15.6922C11.1478 18.1631 10.1216 37.9117 9.734 47.7139C9.72835 47.8568 9.82498 47.9783 9.96414 48.0113C11.9914 48.4925 13.2374 48.6917 15.2568 48.8101C15.416 48.8194 15.5414 48.951 15.5414 49.1105V51.1306C15.5414 51.2808 15.6543 51.4081 15.8033 51.4279C21.3274 52.1596 24.5122 52.2108 30.1315 51.9063C30.1365 51.906 30.1405 51.9019 30.1405 51.8969V51.8969C30.1405 51.8919 30.1444 51.8877 30.1494 51.8874C31.7911 51.7886 33.5868 51.7713 35.527 51.7527C38.1549 51.7274 41.0479 51.6995 44.1826 51.4631C44.3386 51.4513 44.459 51.321 44.459 51.1645V49.128C44.459 48.9616 44.5953 48.8271 44.7617 48.8269C46.7844 48.8242 48.0298 48.6424 50.0564 48.022C50.186 47.9823 50.2724 47.8654 50.2671 47.73C49.8799 37.9333 48.8533 18.1644 47.7667 15.6922C46.6855 13.2323 43.2916 11.0559 41.669 10.2419C41.6278 10.2213 41.5837 10.2114 41.5376 10.2114H35.0239C34.8749 10.2114 34.7495 10.3211 34.7203 10.4673C34.2204 12.9653 31.9502 13.7839 30.0049 13.8223C28.1784 13.7839 25.7883 12.9653 25.2806 10.4673Z" fill="#BAC8FF"/>
<path d="M12.2338 15.6922L12.9662 16.0141L12.9662 16.0141L12.2338 15.6922ZM35.527 51.7527L35.5193 50.9527L35.5193 50.9527L35.527 51.7527ZM47.7667 15.6922L48.4991 15.3703L48.4991 15.3703L47.7667 15.6922ZM34.7203 10.4673L35.5047 10.6242L35.5047 10.6242L34.7203 10.4673ZM30.0049 13.8223L29.9881 14.6221L30.0044 14.6225L30.0207 14.6221L30.0049 13.8223ZM41.669 10.2419L42.0277 9.52687L41.669 10.2419ZM44.7617 48.8269L44.7628 49.6269L44.7617 48.8269ZM44.1826 51.4631L44.1224 50.6654L44.1826 51.4631ZM30.1494 51.8874L30.1013 51.0889L30.1494 51.8874ZM30.1315 51.9063L30.0882 51.1075L30.1315 51.9063ZM15.2568 48.8101L15.3036 48.0115L15.2568 48.8101ZM9.734 47.7139L8.93462 47.6823L9.734 47.7139ZM9.96414 48.0113L9.7794 48.7897L9.96414 48.0113ZM15.8033 51.4279L15.9083 50.6348L15.8033 51.4279ZM50.0564 48.022L50.2905 48.787L50.0564 48.022ZM50.2671 47.73L51.0665 47.6984L50.2671 47.73ZM18.3314 10.2419L17.9727 9.52687L18.3314 10.2419ZM18.4628 11.0114H24.9765V9.41143H18.4628V11.0114ZM12.9662 16.0141C13.4291 14.9607 14.4281 13.8996 15.5807 12.9735C16.7181 12.0595 17.9234 11.3416 18.6901 10.957L17.9727 9.52687C17.1169 9.95619 15.814 10.7335 14.5785 11.7262C13.3581 12.7068 12.1196 13.9638 11.5014 15.3703L12.9662 16.0141ZM10.5334 47.7455C10.727 42.8491 11.0801 35.4694 11.5202 29.0081C11.7403 25.7765 11.9816 22.7822 12.2349 20.4458C12.3616 19.2768 12.4904 18.2813 12.6196 17.5071C12.7535 16.7041 12.876 16.2193 12.9662 16.0141L11.5014 15.3703C11.3201 15.7828 11.1729 16.4556 11.0414 17.2438C10.905 18.0609 10.7725 19.0903 10.6442 20.2733C10.3875 22.641 10.1445 25.6597 9.92386 28.8994C9.48243 35.3807 9.12863 42.7765 8.93462 47.6823L10.5334 47.7455ZM15.3036 48.0115C13.3366 47.8961 12.137 47.7048 10.1489 47.233L9.7794 48.7897C11.8459 49.2802 13.1383 49.4872 15.21 49.6087L15.3036 48.0115ZM16.3414 51.1306V49.1105H14.7414V51.1306H16.3414ZM30.0882 51.1075C24.5088 51.4098 21.3746 51.3589 15.9083 50.6348L15.6982 52.2209C21.2801 52.9604 24.5155 53.0118 30.1747 52.7051L30.0882 51.1075ZM30.1974 52.686C31.8151 52.5886 33.5894 52.5713 35.5347 52.5526L35.5193 50.9527C33.5842 50.9713 31.7671 50.9886 30.1013 51.0889L30.1974 52.686ZM35.5347 52.5526C38.1605 52.5274 41.0783 52.4995 44.2427 52.2608L44.1224 50.6654C41.0175 50.8996 38.1493 50.9274 35.5193 50.9527L35.5347 52.5526ZM45.259 51.1645V49.128H43.659V51.1645H45.259ZM44.7628 49.6269C46.865 49.6241 48.189 49.4303 50.2905 48.787L49.8222 47.257C47.8706 47.8545 46.7037 48.0243 44.7607 48.0269L44.7628 49.6269ZM51.0665 47.6984C50.8727 42.7953 50.5189 35.3959 50.0773 28.9101C49.8566 25.6681 49.6135 22.6469 49.3567 20.2772C49.2284 19.0931 49.0957 18.0629 48.9593 17.2452C48.8277 16.4563 48.6804 15.783 48.4991 15.3703L47.0343 16.0141C47.1245 16.2194 47.247 16.7047 47.3811 17.5084C47.5103 18.2833 47.6392 19.2796 47.766 20.4496C48.0194 22.7881 48.2608 25.7849 48.481 29.0187C48.9212 35.4846 49.2743 42.8679 49.4677 47.7616L51.0665 47.6984ZM48.4991 15.3703C47.8809 13.9638 46.6423 12.7068 45.422 11.7262C44.1865 10.7335 42.8836 9.95619 42.0277 9.52687L41.3103 10.957C42.077 11.3416 43.2824 12.0595 44.4198 12.9735C45.5723 13.8996 46.5713 14.9607 47.0343 16.0141L48.4991 15.3703ZM41.5376 9.41143H35.0239V11.0114H41.5376V9.41143ZM35.0239 9.41143C34.4676 9.41143 34.0347 9.81633 33.9358 10.3103L35.5047 10.6242C35.4644 10.8259 35.2822 11.0114 35.0239 11.0114V9.41143ZM33.9358 10.3103C33.734 11.3191 33.1906 11.9644 32.4943 12.3804C31.7746 12.8104 30.8685 13.0051 29.9891 13.0224L30.0207 14.6221C31.0867 14.6011 32.2884 14.3673 33.315 13.7539C34.3651 13.1265 35.2067 12.1134 35.5047 10.6242L33.9358 10.3103ZM24.4966 10.6266C25.1189 13.6885 28.0352 14.5811 29.9881 14.6221L30.0217 13.0225C28.3215 12.9868 26.4577 12.2421 26.0646 10.3079L24.4966 10.6266ZM42.0277 9.52687C41.8691 9.44732 41.7013 9.41143 41.5376 9.41143V11.0114C41.4661 11.0114 41.3865 10.9952 41.3103 10.957L42.0277 9.52687ZM45.259 49.128C45.259 49.4096 45.0311 49.6265 44.7628 49.6269L44.7607 48.0269C44.1594 48.0277 43.659 48.5135 43.659 49.128H45.259ZM44.2427 52.2608C44.8177 52.2175 45.259 51.7379 45.259 51.1645H43.659C43.659 50.9041 43.8596 50.6852 44.1224 50.6654L44.2427 52.2608ZM30.9405 51.8969C30.9405 52.3124 30.6175 52.6607 30.1974 52.686L30.1013 51.0889C29.6713 51.1148 29.3405 51.4714 29.3405 51.8969H30.9405ZM30.1747 52.7051C30.5912 52.6826 30.9405 52.3397 30.9405 51.8969H29.3405C29.3405 51.464 29.6817 51.1295 30.0882 51.1075L30.1747 52.7051ZM15.21 49.6087C14.9511 49.5936 14.7414 49.3795 14.7414 49.1105H16.3414C16.3414 48.5225 15.8809 48.0453 15.3036 48.0115L15.21 49.6087ZM8.93462 47.6823C8.91314 48.2256 9.28606 48.6726 9.7794 48.7897L10.1489 47.233C10.3639 47.284 10.5436 47.488 10.5334 47.7455L8.93462 47.6823ZM24.9765 11.0114C24.7175 11.0114 24.5371 10.8256 24.4966 10.6266L26.0646 10.3079C25.9647 9.81689 25.5336 9.41143 24.9765 9.41143V11.0114ZM14.7414 51.1306C14.7414 51.687 15.1565 52.1492 15.6982 52.2209L15.9083 50.6348C16.1522 50.6671 16.3414 50.8746 16.3414 51.1306H14.7414ZM50.2905 48.787C50.7529 48.6454 51.0868 48.2119 51.0665 47.6984L49.4677 47.7616C49.4581 47.5189 49.619 47.3193 49.8222 47.257L50.2905 48.787ZM18.4628 9.41143C18.2991 9.41143 18.1313 9.44732 17.9727 9.52687L18.6901 10.957C18.614 10.9952 18.5343 11.0114 18.4628 11.0114V9.41143Z" fill="#212529"/>
<path d="M15.6352 49.1959C15.6352 43.1085 15.5402 29.4716 16.9355 21.2837" stroke="#212529" stroke-width="1.6" stroke-linecap="round"/>
<path d="M44.3636 49.1861C44.3636 43.0987 44.4585 29.4618 43.0633 21.2739" stroke="#212529" stroke-width="1.6" stroke-linecap="round"/>
<g style="mix-blend-mode:multiply">
<path d="M45.2912 32.5906C45.0742 29.39 44.0379 23.3783 43.5469 20.7725L44.2455 35.017L44.6323 48.2713H45.8727C45.7693 44.3779 45.5083 35.7911 45.2912 32.5906Z" fill="#CED4DA"/>
</g>
<path d="M44.7097 46.1261C45.5627 46.0538 48.7871 45.7608 49.9669 45.1362" stroke="#212529" stroke-linecap="round" stroke-linejoin="round"/>
<path d="M15.3846 46.2266C14.5316 46.1544 11.3072 45.8614 10.1275 45.2368" stroke="#212529" stroke-linecap="round" stroke-linejoin="round"/>
<path d="M23.3031 10.0449C23.406 11.9174 24.8708 15.682 29.9075 15.7174C35.0559 15.7535 36.6663 11.9443 36.6971 10.0449" stroke="#212529" stroke-linecap="round" stroke-linejoin="round"/>
</svg>
