<svg width="60" height="60" viewBox="0 0 60 60" fill="none" xmlns="http://www.w3.org/2000/svg">
<mask id="path-1-outside-1_50_11266" maskUnits="userSpaceOnUse" x="5.45239" y="10.3555" width="47" height="43" fill="black">
<rect fill="white" x="5.45239" y="10.3555" width="47" height="43"/>
<path fill-rule="evenodd" clip-rule="evenodd" d="M8.45239 12.3555C7.90011 12.3555 7.45239 12.8032 7.45239 13.3555C7.45239 13.9078 7.90011 14.3555 8.45239 14.3555H11.5287C12.0229 14.3555 12.443 14.7164 12.5173 15.2049L15.5696 35.2492L15.7149 36.4015C15.7365 36.5729 15.7722 36.7393 15.8209 36.8998L16.4824 41.2437C16.7056 42.7093 17.9657 43.7921 19.4482 43.7921H43.0332C43.5855 43.7921 44.0332 43.3444 44.0332 42.7921C44.0332 42.2398 43.5855 41.7921 43.0332 41.7921H19.4482C18.9541 41.7921 18.534 41.4312 18.4596 40.9426L18.1606 38.9794C18.3332 39.0102 18.5106 39.0263 18.6913 39.0263H41.5296C43.0046 39.0263 44.2607 37.9541 44.4924 36.4975L46.9686 20.9262H49.4613C50.0136 20.9262 50.4613 20.4785 50.4613 19.9262C50.4613 19.3739 50.0136 18.9262 49.4613 18.9262H42.3711L36.9959 14.5495C36.7529 14.3516 36.4166 14.3139 36.1358 14.453L27.1031 18.9262H15.1071L14.4946 14.9039C14.2714 13.4383 13.0112 12.3555 11.5287 12.3555H8.45239ZM39.8371 18.9262H30.7084L36.3847 16.1152L39.8371 18.9262ZM18.6913 37.0263C18.2814 37.0263 17.9236 36.7782 17.7704 36.4165L17.5507 34.9736L15.7878 20.9897H44.9334L42.5172 36.1834C42.44 36.6689 42.0213 37.0263 41.5296 37.0263H18.6913ZM21.8472 48.336C21.8472 47.472 22.5477 46.7716 23.4117 46.7716C24.2758 46.7716 24.9762 47.472 24.9762 48.336C24.9762 49.2001 24.2758 49.9005 23.4117 49.9005C22.5477 49.9005 21.8472 49.2001 21.8472 48.336ZM23.4117 44.9716C21.5536 44.9716 20.0472 46.4779 20.0472 48.336C20.0472 50.1942 21.5536 51.7005 23.4117 51.7005C25.2699 51.7005 26.7762 50.1942 26.7762 48.336C26.7762 46.4779 25.2699 44.9716 23.4117 44.9716ZM37.9525 46.7716C37.0885 46.7716 36.388 47.472 36.388 48.336C36.388 49.2001 37.0885 49.9005 37.9525 49.9005C38.8165 49.9005 39.517 49.2001 39.517 48.336C39.517 47.472 38.8165 46.7716 37.9525 46.7716ZM34.588 48.336C34.588 46.4779 36.0943 44.9716 37.9525 44.9716C39.8106 44.9716 41.317 46.4779 41.317 48.336C41.317 50.1942 39.8106 51.7005 37.9525 51.7005C36.0943 51.7005 34.588 50.1942 34.588 48.336ZM22.735 25.2451C22.1827 25.2451 21.735 25.6929 21.735 26.2451C21.735 26.7974 22.1827 27.2451 22.735 27.2451L35.488 27.2451C36.0403 27.2451 36.488 26.7974 36.488 26.2451C36.488 25.6929 36.0403 25.2451 35.488 25.2451L22.735 25.2451ZM21.735 30.7154C21.735 30.1631 22.1827 29.7154 22.735 29.7154H31.6204C32.1727 29.7154 32.6204 30.1631 32.6204 30.7154C32.6204 31.2676 32.1727 31.7154 31.6204 31.7154H22.735C22.1827 31.7154 21.735 31.2676 21.735 30.7154Z"/>
</mask>
<path fill-rule="evenodd" clip-rule="evenodd" d="M8.45239 12.3555C7.90011 12.3555 7.45239 12.8032 7.45239 13.3555C7.45239 13.9078 7.90011 14.3555 8.45239 14.3555H11.5287C12.0229 14.3555 12.443 14.7164 12.5173 15.2049L15.5696 35.2492L15.7149 36.4015C15.7365 36.5729 15.7722 36.7393 15.8209 36.8998L16.4824 41.2437C16.7056 42.7093 17.9657 43.7921 19.4482 43.7921H43.0332C43.5855 43.7921 44.0332 43.3444 44.0332 42.7921C44.0332 42.2398 43.5855 41.7921 43.0332 41.7921H19.4482C18.9541 41.7921 18.534 41.4312 18.4596 40.9426L18.1606 38.9794C18.3332 39.0102 18.5106 39.0263 18.6913 39.0263H41.5296C43.0046 39.0263 44.2607 37.9541 44.4924 36.4975L46.9686 20.9262H49.4613C50.0136 20.9262 50.4613 20.4785 50.4613 19.9262C50.4613 19.3739 50.0136 18.9262 49.4613 18.9262H42.3711L36.9959 14.5495C36.7529 14.3516 36.4166 14.3139 36.1358 14.453L27.1031 18.9262H15.1071L14.4946 14.9039C14.2714 13.4383 13.0112 12.3555 11.5287 12.3555H8.45239ZM39.8371 18.9262H30.7084L36.3847 16.1152L39.8371 18.9262ZM18.6913 37.0263C18.2814 37.0263 17.9236 36.7782 17.7704 36.4165L17.5507 34.9736L15.7878 20.9897H44.9334L42.5172 36.1834C42.44 36.6689 42.0213 37.0263 41.5296 37.0263H18.6913ZM21.8472 48.336C21.8472 47.472 22.5477 46.7716 23.4117 46.7716C24.2758 46.7716 24.9762 47.472 24.9762 48.336C24.9762 49.2001 24.2758 49.9005 23.4117 49.9005C22.5477 49.9005 21.8472 49.2001 21.8472 48.336ZM23.4117 44.9716C21.5536 44.9716 20.0472 46.4779 20.0472 48.336C20.0472 50.1942 21.5536 51.7005 23.4117 51.7005C25.2699 51.7005 26.7762 50.1942 26.7762 48.336C26.7762 46.4779 25.2699 44.9716 23.4117 44.9716ZM37.9525 46.7716C37.0885 46.7716 36.388 47.472 36.388 48.336C36.388 49.2001 37.0885 49.9005 37.9525 49.9005C38.8165 49.9005 39.517 49.2001 39.517 48.336C39.517 47.472 38.8165 46.7716 37.9525 46.7716ZM34.588 48.336C34.588 46.4779 36.0943 44.9716 37.9525 44.9716C39.8106 44.9716 41.317 46.4779 41.317 48.336C41.317 50.1942 39.8106 51.7005 37.9525 51.7005C36.0943 51.7005 34.588 50.1942 34.588 48.336ZM22.735 25.2451C22.1827 25.2451 21.735 25.6929 21.735 26.2451C21.735 26.7974 22.1827 27.2451 22.735 27.2451L35.488 27.2451C36.0403 27.2451 36.488 26.7974 36.488 26.2451C36.488 25.6929 36.0403 25.2451 35.488 25.2451L22.735 25.2451ZM21.735 30.7154C21.735 30.1631 22.1827 29.7154 22.735 29.7154H31.6204C32.1727 29.7154 32.6204 30.1631 32.6204 30.7154C32.6204 31.2676 32.1727 31.7154 31.6204 31.7154H22.735C22.1827 31.7154 21.735 31.2676 21.735 30.7154Z" fill="#F8F9FA"/>
<path d="M12.5173 15.2049L11.0344 15.4307L11.0344 15.4307L12.5173 15.2049ZM15.5696 35.2492L17.0578 35.0616C17.0562 35.0488 17.0544 35.0361 17.0525 35.0234L15.5696 35.2492ZM15.7149 36.4015L17.2031 36.2139L17.2031 36.2139L15.7149 36.4015ZM15.8209 36.8998L17.3038 36.674C17.293 36.603 17.2771 36.5329 17.2563 36.4642L15.8209 36.8998ZM16.4824 41.2437L17.9653 41.0179L17.9653 41.0179L16.4824 41.2437ZM18.4596 40.9426L16.9767 41.1684L16.9767 41.1684L18.4596 40.9426ZM18.1606 38.9794L18.4249 37.5028C17.9486 37.4176 17.4604 37.5673 17.1138 37.905C16.7673 38.2427 16.6049 38.7268 16.6777 39.2052L18.1606 38.9794ZM44.4924 36.4975L45.9738 36.7331L45.9738 36.7331L44.4924 36.4975ZM46.9686 20.9262V19.4262C46.2311 19.4262 45.603 19.9623 45.4872 20.6906L46.9686 20.9262ZM42.3711 18.9262L41.424 20.0894C41.6916 20.3073 42.0261 20.4262 42.3711 20.4262V18.9262ZM36.9959 14.5495L36.0488 15.7127L36.0488 15.7127L36.9959 14.5495ZM36.1358 14.453L36.8014 15.7972L36.8014 15.7972L36.1358 14.453ZM27.1031 18.9262V20.4262C27.334 20.4262 27.5618 20.3729 27.7688 20.2704L27.1031 18.9262ZM15.1071 18.9262L13.6241 19.152C13.7357 19.8848 14.3658 20.4262 15.1071 20.4262V18.9262ZM14.4946 14.9039L13.0116 15.1297L13.0116 15.1297L14.4946 14.9039ZM30.7084 18.9262L30.0427 17.582C29.4184 17.8912 29.0891 18.5896 29.2479 19.268C29.4067 19.9464 30.0117 20.4262 30.7084 20.4262V18.9262ZM39.8371 18.9262V20.4262C40.4717 20.4262 41.0377 20.0268 41.2503 19.4288C41.463 18.8308 41.2763 18.1638 40.7842 17.763L39.8371 18.9262ZM36.3847 16.1152L37.3318 14.952C36.8761 14.5809 36.2456 14.5102 35.719 14.771L36.3847 16.1152ZM17.7704 36.4165L16.2875 36.6423C16.3063 36.7658 16.3404 36.8864 16.3891 37.0015L17.7704 36.4165ZM17.5507 34.9736L16.0624 35.1612C16.0641 35.1739 16.0658 35.1867 16.0678 35.1994L17.5507 34.9736ZM15.7878 20.9897V19.4897C15.3573 19.4897 14.9475 19.6747 14.6628 19.9976C14.378 20.3205 14.2457 20.7502 14.2996 21.1773L15.7878 20.9897ZM44.9334 20.9897L46.4148 21.2253C46.4837 20.7917 46.3593 20.3498 46.0743 20.0159C45.7893 19.682 45.3724 19.4897 44.9334 19.4897V20.9897ZM42.5172 36.1834L41.0358 35.9478L41.0358 35.9478L42.5172 36.1834ZM22.735 25.2451L22.735 26.7451L22.735 26.7451L22.735 25.2451ZM22.735 27.2451L22.735 28.7451L22.735 28.7451L22.735 27.2451ZM35.488 27.2451L35.488 25.7451L35.488 25.7451L35.488 27.2451ZM35.488 25.2451L35.488 23.7451L35.488 23.7451L35.488 25.2451ZM8.95239 13.3555C8.95239 13.6316 8.72853 13.8555 8.45239 13.8555V10.8555C7.07168 10.8555 5.95239 11.9748 5.95239 13.3555H8.95239ZM8.45239 12.8555C8.72853 12.8555 8.95239 13.0793 8.95239 13.3555H5.95239C5.95239 14.7362 7.07168 15.8555 8.45239 15.8555V12.8555ZM11.5287 12.8555H8.45239V15.8555H11.5287V12.8555ZM14.0002 14.9791C13.8143 13.7578 12.7641 12.8555 11.5287 12.8555V15.8555C11.2817 15.8555 11.0716 15.675 11.0344 15.4307L14.0002 14.9791ZM17.0525 35.0234L14.0002 14.9791L11.0344 15.4307L14.0867 35.475L17.0525 35.0234ZM17.2031 36.2139L17.0578 35.0616L14.0814 35.4368L14.2266 36.5892L17.2031 36.2139ZM17.2563 36.4642C17.232 36.3843 17.214 36.3008 17.2031 36.2139L14.2266 36.5892C14.2589 36.845 14.3124 37.0944 14.3856 37.3354L17.2563 36.4642ZM17.9653 41.0179L17.3038 36.674L14.338 37.1256L14.9995 41.4695L17.9653 41.0179ZM19.4482 42.2921C18.707 42.2921 18.0769 41.7507 17.9653 41.0179L14.9995 41.4695C15.3342 43.6679 17.2245 45.2921 19.4482 45.2921V42.2921ZM43.0332 42.2921H19.4482V45.2921H43.0332V42.2921ZM42.5332 42.7921C42.5332 42.5159 42.757 42.2921 43.0332 42.2921V45.2921C44.4139 45.2921 45.5332 44.1728 45.5332 42.7921H42.5332ZM43.0332 43.2921C42.757 43.2921 42.5332 43.0682 42.5332 42.7921H45.5332C45.5332 41.4114 44.4139 40.2921 43.0332 40.2921V43.2921ZM19.4482 43.2921H43.0332V40.2921H19.4482V43.2921ZM16.9767 41.1684C17.1627 42.3897 18.2128 43.2921 19.4482 43.2921V40.2921C19.6953 40.2921 19.9053 40.4726 19.9425 40.7168L16.9767 41.1684ZM16.6777 39.2052L16.9767 41.1684L19.9425 40.7168L19.6436 38.7536L16.6777 39.2052ZM18.6913 37.5263C18.5997 37.5263 18.5107 37.5182 18.4249 37.5028L17.8964 40.4559C18.1557 40.5023 18.4214 40.5263 18.6913 40.5263V37.5263ZM41.5296 37.5263H18.6913V40.5263H41.5296V37.5263ZM43.011 36.2619C42.8952 36.9902 42.2671 37.5263 41.5296 37.5263V40.5263C43.7421 40.5263 45.6263 38.9181 45.9738 36.7331L43.011 36.2619ZM45.4872 20.6906L43.011 36.2619L45.9738 36.7331L48.45 21.1618L45.4872 20.6906ZM49.4613 19.4262H46.9686V22.4262H49.4613V19.4262ZM48.9613 19.9262C48.9613 19.6501 49.1852 19.4262 49.4613 19.4262V22.4262C50.842 22.4262 51.9613 21.3069 51.9613 19.9262H48.9613ZM49.4613 20.4262C49.1852 20.4262 48.9613 20.2024 48.9613 19.9262H51.9613C51.9613 18.5455 50.842 17.4262 49.4613 17.4262V20.4262ZM42.3711 20.4262H49.4613V17.4262H42.3711V20.4262ZM36.0488 15.7127L41.424 20.0894L43.3182 17.763L37.943 13.3864L36.0488 15.7127ZM36.8014 15.7972C36.5557 15.9189 36.2615 15.8859 36.0488 15.7127L37.943 13.3864C37.2442 12.8174 36.2776 12.7089 35.4701 13.1088L36.8014 15.7972ZM27.7688 20.2704L36.8014 15.7972L35.4701 13.1088L26.4374 17.582L27.7688 20.2704ZM15.1071 20.4262H27.1031V17.4262H15.1071V20.4262ZM13.0116 15.1297L13.6241 19.152L16.59 18.7004L15.9775 14.678L13.0116 15.1297ZM11.5287 13.8555C12.27 13.8555 12.9001 14.3969 13.0116 15.1297L15.9775 14.678C15.6427 12.4797 13.7524 10.8555 11.5287 10.8555V13.8555ZM8.45239 13.8555H11.5287V10.8555H8.45239V13.8555ZM30.7084 20.4262H39.8371V17.4262H30.7084V20.4262ZM35.719 14.771L30.0427 17.582L31.3741 20.2704L37.0504 17.4594L35.719 14.771ZM40.7842 17.763L37.3318 14.952L35.4376 17.2784L38.89 20.0894L40.7842 17.763ZM16.3891 37.0015C16.7717 37.9049 17.6651 38.5263 18.6913 38.5263V35.5263C18.8977 35.5263 19.0754 35.6515 19.1516 35.8316L16.3891 37.0015ZM16.0678 35.1994L16.2875 36.6423L19.2533 36.1907L19.0336 34.7477L16.0678 35.1994ZM14.2996 21.1773L16.0624 35.1612L19.0389 34.7859L17.276 20.8021L14.2996 21.1773ZM44.9334 19.4897H15.7878V22.4897H44.9334V19.4897ZM43.9986 36.419L46.4148 21.2253L43.452 20.7541L41.0358 35.9478L43.9986 36.419ZM41.5296 38.5263C42.7587 38.5263 43.8056 37.6328 43.9986 36.4189L41.0358 35.9478C41.0744 35.705 41.2838 35.5263 41.5296 35.5263V38.5263ZM18.6913 38.5263H41.5296V35.5263H18.6913V38.5263ZM23.4117 45.2716C21.7193 45.2716 20.3472 46.6436 20.3472 48.336H23.3472C23.3472 48.3004 23.3761 48.2716 23.4117 48.2716V45.2716ZM26.4762 48.336C26.4762 46.6436 25.1042 45.2716 23.4117 45.2716V48.2716C23.4473 48.2716 23.4762 48.3004 23.4762 48.336H26.4762ZM23.4117 51.4005C25.1042 51.4005 26.4762 50.0285 26.4762 48.336H23.4762C23.4762 48.3716 23.4473 48.4005 23.4117 48.4005V51.4005ZM20.3472 48.336C20.3472 50.0285 21.7193 51.4005 23.4117 51.4005V48.4005C23.3761 48.4005 23.3472 48.3716 23.3472 48.336H20.3472ZM21.5472 48.336C21.5472 47.3063 22.382 46.4716 23.4117 46.4716V43.4716C20.7251 43.4716 18.5472 45.6495 18.5472 48.336H21.5472ZM23.4117 50.2005C22.382 50.2005 21.5472 49.3658 21.5472 48.336H18.5472C18.5472 51.0226 20.7251 53.2005 23.4117 53.2005V50.2005ZM25.2762 48.336C25.2762 49.3658 24.4414 50.2005 23.4117 50.2005V53.2005C26.0983 53.2005 28.2762 51.0226 28.2762 48.336H25.2762ZM23.4117 46.4716C24.4414 46.4716 25.2762 47.3063 25.2762 48.336H28.2762C28.2762 45.6495 26.0983 43.4716 23.4117 43.4716V46.4716ZM37.888 48.336C37.888 48.3004 37.9169 48.2716 37.9525 48.2716V45.2716C36.26 45.2716 34.888 46.6436 34.888 48.336H37.888ZM37.9525 48.4005C37.9169 48.4005 37.888 48.3716 37.888 48.336H34.888C34.888 50.0285 36.26 51.4005 37.9525 51.4005V48.4005ZM38.017 48.336C38.017 48.3716 37.9881 48.4005 37.9525 48.4005V51.4005C39.645 51.4005 41.017 50.0285 41.017 48.336H38.017ZM37.9525 48.2716C37.9881 48.2716 38.017 48.3004 38.017 48.336H41.017C41.017 46.6436 39.645 45.2716 37.9525 45.2716V48.2716ZM37.9525 43.4716C35.2659 43.4716 33.088 45.6495 33.088 48.336H36.088C36.088 47.3063 36.9228 46.4716 37.9525 46.4716V43.4716ZM42.817 48.336C42.817 45.6495 40.6391 43.4716 37.9525 43.4716V46.4716C38.9822 46.4716 39.817 47.3063 39.817 48.336H42.817ZM37.9525 53.2005C40.6391 53.2005 42.817 51.0226 42.817 48.336H39.817C39.817 49.3658 38.9822 50.2005 37.9525 50.2005V53.2005ZM33.088 48.336C33.088 51.0226 35.2659 53.2005 37.9525 53.2005V50.2005C36.9228 50.2005 36.088 49.3658 36.088 48.336H33.088ZM23.235 26.2451C23.235 26.5213 23.0111 26.7451 22.735 26.7451V23.7451C21.3543 23.7451 20.235 24.8644 20.235 26.2451H23.235ZM22.735 25.7451C23.0111 25.7451 23.235 25.969 23.235 26.2451H20.235C20.235 27.6259 21.3543 28.7451 22.735 28.7451V25.7451ZM35.488 25.7451L22.735 25.7451L22.735 28.7451L35.488 28.7451L35.488 25.7451ZM34.988 26.2451C34.988 25.969 35.2119 25.7451 35.488 25.7451V28.7451C36.8688 28.7451 37.988 27.6259 37.988 26.2451H34.988ZM35.488 26.7451C35.2119 26.7451 34.988 26.5213 34.988 26.2451H37.988C37.988 24.8644 36.8688 23.7451 35.488 23.7451V26.7451ZM22.735 26.7451L35.488 26.7451L35.488 23.7451L22.735 23.7451L22.735 26.7451ZM22.735 28.2154C21.3543 28.2154 20.235 29.3347 20.235 30.7154H23.235C23.235 30.9915 23.0111 31.2154 22.735 31.2154V28.2154ZM31.6204 28.2154H22.735V31.2154H31.6204V28.2154ZM34.1204 30.7154C34.1204 29.3347 33.0011 28.2154 31.6204 28.2154V31.2154C31.3443 31.2154 31.1204 30.9915 31.1204 30.7154H34.1204ZM31.6204 33.2154C33.0011 33.2154 34.1204 32.0961 34.1204 30.7154H31.1204C31.1204 30.4392 31.3443 30.2154 31.6204 30.2154V33.2154ZM22.735 33.2154H31.6204V30.2154H22.735V33.2154ZM20.235 30.7154C20.235 32.0961 21.3543 33.2154 22.735 33.2154V30.2154C23.0111 30.2154 23.235 30.4392 23.235 30.7154H20.235Z" fill="#F8F9FA" mask="url(#path-1-outside-1_50_11266)"/>
<path d="M14.676 19.9385H49.4695" stroke="#212529" stroke-width="2" stroke-linecap="round" stroke-linejoin="round"/>
<path d="M8.46057 13.3682H11.5369C12.5252 13.3682 13.3653 14.09 13.5141 15.0671L17.4792 41.1059C17.628 42.0829 18.4681 42.8048 19.4564 42.8048H43.0414" stroke="#212529" stroke-width="2" stroke-linecap="round" stroke-linejoin="round"/>
<path d="M43.5129 36.3527L46.1131 20.002H14.4115L16.7581 36.3232C16.8996 37.3077 17.7431 38.0386 18.7377 38.0386H41.5377C42.521 38.0386 43.3585 37.3238 43.5129 36.3527Z" fill="#4DABF7" stroke="#212529" stroke-width="2" stroke-linecap="round" stroke-linejoin="round"/>
<g style="mix-blend-mode:multiply" opacity="0.5">
<path d="M43.7087 20.9903L44.9548 20.9902L42.6454 36.2012C42.5712 36.6899 42.1511 37.0511 41.6568 37.0511L41.2703 37.0511L43.7087 20.9903Z" fill="#4DABF7"/>
</g>
<g style="mix-blend-mode:soft-light" opacity="0.4">
<path d="M16.7932 20.9902L15.5471 20.9902L17.7701 36.185C17.8402 36.664 18.2433 37.024 18.7272 37.0397L19.0802 37.0511L16.7932 20.9902Z" fill="#F8F9FA"/>
</g>
<circle cx="23.4199" cy="48.3483" r="2.46448" fill="#ADB5BD" stroke="#212529" stroke-width="1.8" stroke-linecap="round" stroke-linejoin="round"/>
<circle cx="37.9607" cy="48.3483" r="2.46448" fill="#ADB5BD" stroke="#212529" stroke-width="1.8" stroke-linecap="round" stroke-linejoin="round"/>
<path d="M22.7432 26.2578L35.4962 26.2578" stroke="#212529" stroke-width="2" stroke-linecap="round" stroke-linejoin="round"/>
<path d="M22.7432 30.7285H31.6286" stroke="#212529" stroke-width="2" stroke-linecap="round" stroke-linejoin="round"/>
<path d="M36.499 15.1826L27.1919 19.7917H42.1596L36.499 15.1826Z" fill="#E5DBFF" stroke="#212529" stroke-width="1.6" stroke-linecap="round" stroke-linejoin="round"/>
</svg>
