<svg width="60" height="61" viewBox="0 0 60 61" fill="none" xmlns="http://www.w3.org/2000/svg">
<mask id="path-1-outside-1_50_2209" maskUnits="userSpaceOnUse" x="13.3726" y="10.3809" width="33" height="41" fill="black">
<rect fill="white" x="13.3726" y="10.3809" width="33" height="41"/>
<path fill-rule="evenodd" clip-rule="evenodd" d="M23.0464 14.0839C22.7408 14.0839 22.4507 14.2182 22.2529 14.4512L17.3229 20.259L16.6738 19.708L17.3229 20.259C17.1633 20.4471 17.0756 20.6858 17.0756 20.9326V46.6001C17.0756 47.1749 17.5416 47.6409 18.1164 47.6409H41.8837C42.4585 47.6409 42.9245 47.1749 42.9245 46.6001V15.1247C42.9245 14.5499 42.4585 14.0839 41.8837 14.0839H23.0464ZM20.9546 13.3491C21.4759 12.7349 22.2408 12.3809 23.0464 12.3809H41.8837C43.3991 12.3809 44.6276 13.6093 44.6276 15.1247V46.6001C44.6276 48.1155 43.3991 49.344 41.8837 49.344H18.1164C16.601 49.344 15.3726 48.1155 15.3726 46.6001V20.9326C15.3726 20.2821 15.6036 19.6528 16.0246 19.1569L20.9546 13.3491Z"/>
</mask>
<path fill-rule="evenodd" clip-rule="evenodd" d="M23.0464 14.0839C22.7408 14.0839 22.4507 14.2182 22.2529 14.4512L17.3229 20.259L16.6738 19.708L17.3229 20.259C17.1633 20.4471 17.0756 20.6858 17.0756 20.9326V46.6001C17.0756 47.1749 17.5416 47.6409 18.1164 47.6409H41.8837C42.4585 47.6409 42.9245 47.1749 42.9245 46.6001V15.1247C42.9245 14.5499 42.4585 14.0839 41.8837 14.0839H23.0464ZM20.9546 13.3491C21.4759 12.7349 22.2408 12.3809 23.0464 12.3809H41.8837C43.3991 12.3809 44.6276 13.6093 44.6276 15.1247V46.6001C44.6276 48.1155 43.3991 49.344 41.8837 49.344H18.1164C16.601 49.344 15.3726 48.1155 15.3726 46.6001V20.9326C15.3726 20.2821 15.6036 19.6528 16.0246 19.1569L20.9546 13.3491Z" fill="#F8F9FA"/>
<path d="M22.2529 14.4512L21.1094 13.4805L21.1094 13.4805L22.2529 14.4512ZM17.3229 20.259L16.3522 21.4026C16.9838 21.9387 17.9304 21.8613 18.4665 21.2297L17.3229 20.259ZM17.6445 18.5644C17.0129 18.0283 16.0663 18.1057 15.5302 18.7373C14.9941 19.3688 15.0715 20.3154 15.7031 20.8515L17.6445 18.5644ZM17.3229 20.259L18.4665 21.2297C18.724 20.9264 18.8504 20.5333 18.818 20.1368C18.7855 19.7403 18.5969 19.3729 18.2937 19.1155L17.3229 20.259ZM20.9546 13.3491L22.0981 14.3198L22.0981 14.3198L20.9546 13.3491ZM16.0246 19.1569L17.1681 20.1276L17.1681 20.1276L16.0246 19.1569ZM23.3965 15.4219C23.3093 15.5247 23.1812 15.5839 23.0464 15.5839V12.5839C22.3004 12.5839 21.5921 12.9118 21.1094 13.4805L23.3965 15.4219ZM18.4665 21.2297L23.3965 15.4219L21.1094 13.4805L16.1794 19.2883L18.4665 21.2297ZM15.7031 20.8515L16.3522 21.4026L18.2937 19.1155L17.6445 18.5644L15.7031 20.8515ZM18.2937 19.1155L17.6445 18.5644L15.7031 20.8515L16.3522 21.4026L18.2937 19.1155ZM18.5756 20.9326C18.5756 21.0414 18.537 21.1467 18.4665 21.2297L16.1794 19.2883C15.7896 19.7475 15.5756 20.3302 15.5756 20.9326H18.5756ZM18.5756 46.6001V20.9326H15.5756V46.6001H18.5756ZM18.1164 46.1409C18.37 46.1409 18.5756 46.3465 18.5756 46.6001H15.5756C15.5756 48.0034 16.7132 49.1409 18.1164 49.1409V46.1409ZM41.8837 46.1409H18.1164V49.1409H41.8837V46.1409ZM41.4245 46.6001C41.4245 46.3465 41.6301 46.1409 41.8837 46.1409V49.1409C43.287 49.1409 44.4245 48.0034 44.4245 46.6001H41.4245ZM41.4245 15.1247V46.6001H44.4245V15.1247H41.4245ZM41.8837 15.5839C41.6301 15.5839 41.4245 15.3783 41.4245 15.1247H44.4245C44.4245 13.7215 43.287 12.5839 41.8837 12.5839V15.5839ZM23.0464 15.5839H41.8837V12.5839H23.0464V15.5839ZM23.0464 10.8809C21.8004 10.8809 20.6174 11.4284 19.811 12.3783L22.0981 14.3198C22.3345 14.0413 22.6812 13.8809 23.0464 13.8809V10.8809ZM41.8837 10.8809H23.0464V13.8809H41.8837V10.8809ZM46.1276 15.1247C46.1276 12.7809 44.2275 10.8809 41.8837 10.8809V13.8809C42.5707 13.8809 43.1276 14.4377 43.1276 15.1247H46.1276ZM46.1276 46.6001V15.1247H43.1276V46.6001H46.1276ZM41.8837 50.844C44.2275 50.844 46.1276 48.9439 46.1276 46.6001H43.1276C43.1276 47.2871 42.5707 47.844 41.8837 47.844V50.844ZM18.1164 50.844H41.8837V47.844H18.1164V50.844ZM13.8726 46.6001C13.8726 48.9439 15.7726 50.844 18.1164 50.844V47.844C17.4294 47.844 16.8726 47.2871 16.8726 46.6001H13.8726ZM13.8726 20.9326V46.6001H16.8726V20.9326H13.8726ZM14.881 18.1862C14.23 18.9532 13.8726 19.9265 13.8726 20.9326H16.8726C16.8726 20.6377 16.9773 20.3524 17.1681 20.1276L14.881 18.1862ZM19.811 12.3783L14.881 18.1862L17.1681 20.1276L22.0981 14.3198L19.811 12.3783Z" fill="#F8F9FA" mask="url(#path-1-outside-1_50_2209)"/>
<path d="M16.6994 19.6778L21.5715 13.9381C21.9515 13.4905 22.5091 13.2324 23.0963 13.2324H41.7761C42.8806 13.2324 43.7761 14.1279 43.7761 15.2324V46.4925C43.7761 47.597 42.8806 48.4925 41.7761 48.4925H18.2241C17.1196 48.4925 16.2241 47.597 16.2241 46.4925V20.9721C16.2241 20.498 16.3926 20.0393 16.6994 19.6778Z" fill="#DEE2E6" stroke="#212529" stroke-width="1.8" stroke-linejoin="round"/>
<g style="mix-blend-mode:multiply">
<path fill-rule="evenodd" clip-rule="evenodd" d="M16.4275 46.7466C16.753 47.4101 17.4352 47.867 18.2242 47.867H41.7761C42.8807 47.867 43.7761 46.9715 43.7761 45.867V14.6069C43.7761 13.5652 42.9796 12.7094 41.9624 12.6155V45.7466C41.9624 46.2989 41.5147 46.7466 40.9624 46.7466H16.4275Z" fill="#DEE2E6"/>
</g>
<rect x="20.8932" y="33.0808" width="18.1537" height="11.2085" rx="1" fill="#FFE066" stroke="#212529" stroke-width="1.2" stroke-linejoin="round"/>
<path d="M20.8932 38.7805L39.0468 38.7805" stroke="#212529" stroke-width="1.2" stroke-linejoin="round"/>
<path d="M27.0297 44.2891L27.0297 32.7186" stroke="#212529" stroke-width="1.2" stroke-linejoin="round"/>
<path d="M33.1329 44.2891L33.1329 32.7186" stroke="#212529" stroke-width="1.2" stroke-linejoin="round"/>
<path d="M27.0297 17.3447V20.1351" stroke="#212529" stroke-width="1.4" stroke-linecap="round" stroke-linejoin="round"/>
<path d="M30.8959 17.3447V20.1351" stroke="#212529" stroke-width="1.4" stroke-linecap="round" stroke-linejoin="round"/>
<path d="M34.7621 17.3447V20.1351" stroke="#212529" stroke-width="1.4" stroke-linecap="round" stroke-linejoin="round"/>
<path d="M38.6283 17.3447V20.1351" stroke="#212529" stroke-width="1.4" stroke-linecap="round" stroke-linejoin="round"/>
</svg>
