<svg width="60" height="60" viewBox="0 0 60 60" fill="none" xmlns="http://www.w3.org/2000/svg">
<mask id="path-1-outside-1_50_8791" maskUnits="userSpaceOnUse" x="2.94312" y="12.0684" width="54" height="36" fill="black">
<rect fill="white" x="2.94312" y="12.0684" width="54" height="36"/>
<path fill-rule="evenodd" clip-rule="evenodd" d="M40.2427 18.1212C41.5455 19.9624 42.1497 22.0963 42.2832 23.779C42.321 24.0309 42.351 24.2846 42.373 24.5397C42.4328 25.2327 42.4086 25.9275 42.3088 26.6172C42.5628 26.7963 42.7716 27.0276 42.9237 27.291C43.1949 27.7607 43.2874 28.3355 43.1358 28.9014C42.9841 29.4673 42.6166 29.9189 42.147 30.19C41.7954 30.393 41.385 30.4958 40.9635 30.4712C40.4351 31.4209 39.7774 32.3305 39.0171 33.1778C40.7047 33.9974 42.4314 34.9449 44.1706 36.0196C44.4861 36.2145 44.5927 36.6195 44.4214 36.9425C45.1842 37.3737 45.9343 37.8172 46.6676 38.2707C47.4117 37.8667 48.2578 37.631 49.197 37.631C51.5644 37.631 54.2345 38.819 55.0203 41.337C55.1519 41.7588 54.9167 42.2074 54.4949 42.339C54.0732 42.4707 53.6246 42.2355 53.4929 41.8137C52.9952 40.2187 51.174 39.231 49.197 39.231C47.4468 39.231 46.0197 40.435 45.1931 42.2645C44.1678 44.5339 41.94 45.931 39.8688 45.931C37.9125 45.931 35.6723 45.0556 34.3224 42.9726C34.0866 42.6087 33.86 42.2307 33.6483 41.8775C33.5392 41.6955 33.4341 41.5202 33.3337 41.3567C33.0252 40.8545 32.7379 40.4239 32.4242 40.0667C31.8325 39.3929 31.1454 38.9706 30 38.9706C28.8132 38.9706 28.1209 39.3591 27.5751 39.9082C27.2845 40.2006 27.0246 40.5508 26.7534 40.9562C26.6546 41.1039 26.5438 41.2758 26.4278 41.4556C26.2563 41.7215 26.0736 42.0049 25.9017 42.2536C24.5616 44.1925 22.9983 45.733 20.3471 45.733C18.8855 45.733 17.5938 44.7439 16.7636 43.9409C16.3268 43.5184 15.9687 43.0989 15.7202 42.7861C15.5955 42.629 15.4971 42.4973 15.4289 42.4034C15.3948 42.3564 15.3681 42.3188 15.3495 42.2921L15.3414 42.2804L15.3319 42.2689C15.3123 42.2452 15.2822 42.2093 15.2425 42.1629C15.163 42.0701 15.0454 41.9356 14.8962 41.7734C14.5968 41.448 14.1752 41.0163 13.684 40.5871C13.1902 40.1557 12.6426 39.7414 12.0917 39.4385C11.5331 39.1313 11.0285 38.9706 10.6055 38.9706C9.52456 38.9706 8.69948 39.243 8.05868 39.7286C7.41148 40.219 6.88447 40.9786 6.497 42.067C6.34883 42.4832 5.89128 42.7005 5.47504 42.5524C5.0588 42.4042 4.84149 41.9466 4.98966 41.5304C5.45057 40.2357 6.13189 39.1812 7.09232 38.4534C8.05915 37.7207 9.24099 37.3706 10.6055 37.3706C10.9644 37.3706 11.3191 37.4296 11.6623 37.5283C11.6742 37.4287 11.7077 37.3301 11.7645 37.2395C14.3504 33.115 17.7018 30.5536 21.8101 29.6314C20.7878 27.7033 20.6083 25.3833 21.1783 22.7453C21.2707 22.3177 21.3929 21.8931 21.5431 21.475C21.8736 20.4175 22.4285 19.219 23.2811 18.0995C24.8896 15.9872 27.5535 14.1633 31.7073 14.0717C35.8812 13.9797 38.6075 15.8102 40.2427 18.1212ZM37.494 32.4677C31.9882 30.0089 27.0016 28.9586 23.5043 29.3489C23.5026 29.3491 23.5008 29.3493 23.499 29.3495C22.6065 27.9743 22.2667 26.2468 22.5611 24.1025C24.7516 22.703 27.7828 21.9674 31.7227 21.9674C35.6167 21.9674 38.6152 23.0145 40.8008 25.0406C40.8125 25.3809 40.8 25.7241 40.7641 26.0689L39.3853 25.6994C38.8194 25.5478 38.2447 25.6403 37.775 25.9114C37.3958 26.1304 37.0832 26.4668 36.897 26.8862L35.7958 26.5752C35.8424 26.0291 35.6943 25.5017 35.4042 25.0717C35.0701 24.5763 34.5458 24.2073 33.9122 24.0841L31.4566 23.6068C30.8231 23.4837 30.1987 23.6294 29.7033 23.9635C29.208 24.2977 28.839 24.822 28.7158 25.4555C28.5927 26.0891 28.7384 26.7135 29.0725 27.2089C29.4066 27.7042 29.931 28.0732 30.5645 28.1964L33.0201 28.6737C33.6536 28.7969 34.278 28.6511 34.7734 28.317C35.0696 28.1172 35.3206 27.8495 35.5009 27.531L36.7171 27.8745C36.7368 28.2079 36.8352 28.5281 36.9982 28.8104C37.2694 29.2801 37.7209 29.6476 38.2868 29.7992L39.3405 30.0815C38.8398 30.9079 38.2196 31.7103 37.494 32.4677ZM32.5318 16.0559C27.9106 15.4434 24.1526 18.576 22.9599 22.2741C25.2958 21.1214 28.2308 20.5674 31.7227 20.5674C35.2199 20.5674 38.1609 21.3645 40.4965 22.9995C39.6043 19.4911 36.8792 16.632 32.5318 16.0559ZM41.647 29.324C41.5991 29.3516 41.5494 29.3757 41.498 29.396C41.7279 28.8722 41.9176 28.3392 42.0631 27.8005C42.2029 28.0481 42.2491 28.3469 42.1698 28.6426C42.0896 28.9421 41.8964 29.18 41.647 29.324ZM39.8351 29.1788C40.1783 28.4797 40.4354 27.7693 40.5983 27.0597L39.1265 26.6653C38.8271 26.5851 38.5244 26.6335 38.275 26.7774C38.0256 26.9214 37.8323 27.1594 37.7521 27.4589C37.6719 27.7583 37.7202 28.061 37.8642 28.3104C38.0082 28.5598 38.2462 28.753 38.5456 28.8333L39.8351 29.1788ZM30.2625 24.7926C30.547 24.6007 30.9031 24.5179 31.2658 24.5885L33.7214 25.0658C34.0842 25.1363 34.3833 25.3464 34.5752 25.6309C34.7671 25.9153 34.8498 26.2714 34.7793 26.6342C34.7088 26.9969 34.4987 27.2961 34.2142 27.488C33.9297 27.6798 33.5737 27.7626 33.2109 27.6921L30.7553 27.2148C30.3926 27.1443 30.0934 26.9341 29.9016 26.6497C29.7097 26.3652 29.6269 26.0091 29.6974 25.6464C29.7679 25.2836 29.9781 24.9845 30.2625 24.7926Z"/>
</mask>
<path fill-rule="evenodd" clip-rule="evenodd" d="M40.2427 18.1212C41.5455 19.9624 42.1497 22.0963 42.2832 23.779C42.321 24.0309 42.351 24.2846 42.373 24.5397C42.4328 25.2327 42.4086 25.9275 42.3088 26.6172C42.5628 26.7963 42.7716 27.0276 42.9237 27.291C43.1949 27.7607 43.2874 28.3355 43.1358 28.9014C42.9841 29.4673 42.6166 29.9189 42.147 30.19C41.7954 30.393 41.385 30.4958 40.9635 30.4712C40.4351 31.4209 39.7774 32.3305 39.0171 33.1778C40.7047 33.9974 42.4314 34.9449 44.1706 36.0196C44.4861 36.2145 44.5927 36.6195 44.4214 36.9425C45.1842 37.3737 45.9343 37.8172 46.6676 38.2707C47.4117 37.8667 48.2578 37.631 49.197 37.631C51.5644 37.631 54.2345 38.819 55.0203 41.337C55.1519 41.7588 54.9167 42.2074 54.4949 42.339C54.0732 42.4707 53.6246 42.2355 53.4929 41.8137C52.9952 40.2187 51.174 39.231 49.197 39.231C47.4468 39.231 46.0197 40.435 45.1931 42.2645C44.1678 44.5339 41.94 45.931 39.8688 45.931C37.9125 45.931 35.6723 45.0556 34.3224 42.9726C34.0866 42.6087 33.86 42.2307 33.6483 41.8775C33.5392 41.6955 33.4341 41.5202 33.3337 41.3567C33.0252 40.8545 32.7379 40.4239 32.4242 40.0667C31.8325 39.3929 31.1454 38.9706 30 38.9706C28.8132 38.9706 28.1209 39.3591 27.5751 39.9082C27.2845 40.2006 27.0246 40.5508 26.7534 40.9562C26.6546 41.1039 26.5438 41.2758 26.4278 41.4556C26.2563 41.7215 26.0736 42.0049 25.9017 42.2536C24.5616 44.1925 22.9983 45.733 20.3471 45.733C18.8855 45.733 17.5938 44.7439 16.7636 43.9409C16.3268 43.5184 15.9687 43.0989 15.7202 42.7861C15.5955 42.629 15.4971 42.4973 15.4289 42.4034C15.3948 42.3564 15.3681 42.3188 15.3495 42.2921L15.3414 42.2804L15.3319 42.2689C15.3123 42.2452 15.2822 42.2093 15.2425 42.1629C15.163 42.0701 15.0454 41.9356 14.8962 41.7734C14.5968 41.448 14.1752 41.0163 13.684 40.5871C13.1902 40.1557 12.6426 39.7414 12.0917 39.4385C11.5331 39.1313 11.0285 38.9706 10.6055 38.9706C9.52456 38.9706 8.69948 39.243 8.05868 39.7286C7.41148 40.219 6.88447 40.9786 6.497 42.067C6.34883 42.4832 5.89128 42.7005 5.47504 42.5524C5.0588 42.4042 4.84149 41.9466 4.98966 41.5304C5.45057 40.2357 6.13189 39.1812 7.09232 38.4534C8.05915 37.7207 9.24099 37.3706 10.6055 37.3706C10.9644 37.3706 11.3191 37.4296 11.6623 37.5283C11.6742 37.4287 11.7077 37.3301 11.7645 37.2395C14.3504 33.115 17.7018 30.5536 21.8101 29.6314C20.7878 27.7033 20.6083 25.3833 21.1783 22.7453C21.2707 22.3177 21.3929 21.8931 21.5431 21.475C21.8736 20.4175 22.4285 19.219 23.2811 18.0995C24.8896 15.9872 27.5535 14.1633 31.7073 14.0717C35.8812 13.9797 38.6075 15.8102 40.2427 18.1212ZM37.494 32.4677C31.9882 30.0089 27.0016 28.9586 23.5043 29.3489C23.5026 29.3491 23.5008 29.3493 23.499 29.3495C22.6065 27.9743 22.2667 26.2468 22.5611 24.1025C24.7516 22.703 27.7828 21.9674 31.7227 21.9674C35.6167 21.9674 38.6152 23.0145 40.8008 25.0406C40.8125 25.3809 40.8 25.7241 40.7641 26.0689L39.3853 25.6994C38.8194 25.5478 38.2447 25.6403 37.775 25.9114C37.3958 26.1304 37.0832 26.4668 36.897 26.8862L35.7958 26.5752C35.8424 26.0291 35.6943 25.5017 35.4042 25.0717C35.0701 24.5763 34.5458 24.2073 33.9122 24.0841L31.4566 23.6068C30.8231 23.4837 30.1987 23.6294 29.7033 23.9635C29.208 24.2977 28.839 24.822 28.7158 25.4555C28.5927 26.0891 28.7384 26.7135 29.0725 27.2089C29.4066 27.7042 29.931 28.0732 30.5645 28.1964L33.0201 28.6737C33.6536 28.7969 34.278 28.6511 34.7734 28.317C35.0696 28.1172 35.3206 27.8495 35.5009 27.531L36.7171 27.8745C36.7368 28.2079 36.8352 28.5281 36.9982 28.8104C37.2694 29.2801 37.7209 29.6476 38.2868 29.7992L39.3405 30.0815C38.8398 30.9079 38.2196 31.7103 37.494 32.4677ZM32.5318 16.0559C27.9106 15.4434 24.1526 18.576 22.9599 22.2741C25.2958 21.1214 28.2308 20.5674 31.7227 20.5674C35.2199 20.5674 38.1609 21.3645 40.4965 22.9995C39.6043 19.4911 36.8792 16.632 32.5318 16.0559ZM41.647 29.324C41.5991 29.3516 41.5494 29.3757 41.498 29.396C41.7279 28.8722 41.9176 28.3392 42.0631 27.8005C42.2029 28.0481 42.2491 28.3469 42.1698 28.6426C42.0896 28.9421 41.8964 29.18 41.647 29.324ZM39.8351 29.1788C40.1783 28.4797 40.4354 27.7693 40.5983 27.0597L39.1265 26.6653C38.8271 26.5851 38.5244 26.6335 38.275 26.7774C38.0256 26.9214 37.8323 27.1594 37.7521 27.4589C37.6719 27.7583 37.7202 28.061 37.8642 28.3104C38.0082 28.5598 38.2462 28.753 38.5456 28.8333L39.8351 29.1788ZM30.2625 24.7926C30.547 24.6007 30.9031 24.5179 31.2658 24.5885L33.7214 25.0658C34.0842 25.1363 34.3833 25.3464 34.5752 25.6309C34.7671 25.9153 34.8498 26.2714 34.7793 26.6342C34.7088 26.9969 34.4987 27.2961 34.2142 27.488C33.9297 27.6798 33.5737 27.7626 33.2109 27.6921L30.7553 27.2148C30.3926 27.1443 30.0934 26.9341 29.9016 26.6497C29.7097 26.3652 29.6269 26.0091 29.6974 25.6464C29.7679 25.2836 29.9781 24.9845 30.2625 24.7926Z" fill="#F8F9FA"/>
<path d="M42.2832 23.779L40.7879 23.8976C40.7906 23.9325 40.7946 23.9673 40.7998 24.0019L42.2832 23.779ZM40.2427 18.1212L39.0182 18.9876L39.0182 18.9876L40.2427 18.1212ZM42.373 24.5397L40.8786 24.6687L40.8786 24.6687L42.373 24.5397ZM42.3088 26.6172L40.8243 26.4023C40.7434 26.961 40.983 27.5177 41.4444 27.8431L42.3088 26.6172ZM42.9237 27.291L41.6247 28.041L41.6247 28.041L42.9237 27.291ZM43.1358 28.9014L41.6869 28.5132L41.6869 28.5132L43.1358 28.9014ZM42.147 30.19L41.397 28.891L41.397 28.891L42.147 30.19ZM40.9635 30.4712L41.0512 28.9737C40.4762 28.9401 39.9328 29.2386 39.6528 29.7419L40.9635 30.4712ZM39.0171 33.1778L37.9007 32.176C37.5862 32.5265 37.4545 33.0044 37.5452 33.4665C37.6358 33.9286 37.9382 34.3213 38.3618 34.5271L39.0171 33.1778ZM44.1706 36.0196L43.3822 37.2956L44.1706 36.0196ZM44.4214 36.9425L43.0963 36.2396C42.7155 36.9576 42.9757 37.8483 43.6832 38.2482L44.4214 36.9425ZM46.6676 38.2707L45.8787 39.5465C46.3363 39.8295 46.9105 39.8457 47.3834 39.5889L46.6676 38.2707ZM55.0203 41.337L53.5884 41.7839L53.5884 41.7839L55.0203 41.337ZM54.4949 42.339L54.0481 40.9071L54.0481 40.9072L54.4949 42.339ZM53.4929 41.8137L54.9248 41.3668L54.9248 41.3668L53.4929 41.8137ZM45.1931 42.2645L46.5601 42.8821L46.5601 42.8821L45.1931 42.2645ZM34.3224 42.9726L33.0636 43.7883L33.0636 43.7883L34.3224 42.9726ZM33.6483 41.8775L32.3617 42.6486L32.3617 42.6487L33.6483 41.8775ZM33.3337 41.3567L34.6119 40.5716L34.6119 40.5716L33.3337 41.3567ZM32.4242 40.0667L33.5513 39.0769L33.5513 39.0769L32.4242 40.0667ZM27.5751 39.9082L26.5112 38.8508L26.5112 38.8508L27.5751 39.9082ZM26.7534 40.9562L28.0002 41.7902L28.0002 41.7902L26.7534 40.9562ZM26.4278 41.4556L27.6884 42.2685L27.6884 42.2685L26.4278 41.4556ZM25.9017 42.2536L24.6678 41.4007L24.6678 41.4007L25.9017 42.2536ZM16.7636 43.9409L15.7207 45.0191L15.7207 45.0191L16.7636 43.9409ZM15.7202 42.7861L16.8947 41.853L16.8947 41.853L15.7202 42.7861ZM15.4289 42.4034L14.215 43.2846L14.2151 43.2847L15.4289 42.4034ZM15.3495 42.2921L14.1166 43.1465L14.1199 43.1512L15.3495 42.2921ZM15.3414 42.2804L16.5743 41.426C16.5505 41.3916 16.5252 41.3582 16.4986 41.326L15.3414 42.2804ZM15.3319 42.2689L16.4891 41.3145L16.4861 41.3109L15.3319 42.2689ZM15.2425 42.1629L16.3822 41.1877L16.3822 41.1877L15.2425 42.1629ZM14.8962 41.7734L16.0002 40.7579L16.0002 40.7579L14.8962 41.7734ZM13.684 40.5871L12.6971 41.7167L12.6971 41.7167L13.684 40.5871ZM12.0917 39.4385L12.8144 38.1241L12.8144 38.1241L12.0917 39.4385ZM8.05868 39.7286L7.15272 38.5331L7.15272 38.5331L8.05868 39.7286ZM6.497 42.067L7.91013 42.5701L7.91013 42.5701L6.497 42.067ZM5.47504 42.5524L5.9781 41.1392L5.97809 41.1392L5.47504 42.5524ZM4.98966 41.5304L3.57654 41.0273L3.57654 41.0273L4.98966 41.5304ZM7.09232 38.4534L6.18636 37.2579L6.18636 37.2579L7.09232 38.4534ZM11.6623 37.5283L11.2478 38.9699C11.6707 39.0915 12.1257 39.0212 12.4922 38.7778C12.8588 38.5343 13.0999 38.1422 13.1519 37.7053L11.6623 37.5283ZM11.7645 37.2395L13.0354 38.0363L13.0354 38.0363L11.7645 37.2395ZM21.8101 29.6314L22.1387 31.095C22.595 30.9925 22.9774 30.6832 23.1728 30.2583C23.3683 29.8335 23.3544 29.3418 23.1354 28.9287L21.8101 29.6314ZM21.1783 22.7453L22.6445 23.0622L22.6445 23.0621L21.1783 22.7453ZM21.5431 21.475L22.9548 21.9821C22.9619 21.9623 22.9686 21.9424 22.9749 21.9223L21.5431 21.475ZM23.2811 18.0995L22.0877 17.1907L22.0877 17.1907L23.2811 18.0995ZM31.7073 14.0717L31.7404 15.5713L31.7073 14.0717ZM23.5043 29.3489L23.338 27.8582L23.3379 27.8582L23.5043 29.3489ZM37.494 32.4677L36.8823 33.8374C37.4607 34.0956 38.139 33.9628 38.5771 33.5054L37.494 32.4677ZM23.499 29.3495L22.2408 30.1661C22.5499 30.6423 23.1013 30.9032 23.6655 30.8402L23.499 29.3495ZM22.5611 24.1025L21.7535 22.8384C21.3829 23.0752 21.1349 23.4627 21.0751 23.8985L22.5611 24.1025ZM40.8008 25.0406L42.2999 24.9889C42.2862 24.5896 42.1136 24.2122 41.8206 23.9405L40.8008 25.0406ZM40.7641 26.0689L40.3759 27.5177C40.8 27.6314 41.2527 27.5535 41.6144 27.3046C41.9761 27.0557 42.2106 26.6608 42.2561 26.2241L40.7641 26.0689ZM39.3853 25.6994L39.7736 24.2505L39.7736 24.2505L39.3853 25.6994ZM37.775 25.9114L37.025 24.6124L37.025 24.6124L37.775 25.9114ZM36.897 26.8862L36.4894 28.3297C37.2074 28.5325 37.9653 28.1767 38.268 27.4948L36.897 26.8862ZM35.7958 26.5752L34.3012 26.4477C34.2401 27.1642 34.6961 27.8233 35.3881 28.0187L35.7958 26.5752ZM35.4042 25.0717L34.1607 25.9105L34.1607 25.9105L35.4042 25.0717ZM33.9122 24.0841L34.1984 22.6117L34.1984 22.6117L33.9122 24.0841ZM31.4566 23.6068L31.7429 22.1344L31.7429 22.1344L31.4566 23.6068ZM29.7033 23.9635L28.8646 22.72L28.8646 22.72L29.7033 23.9635ZM29.0725 27.2089L30.3161 26.3701L30.3161 26.3701L29.0725 27.2089ZM30.5645 28.1964L30.8507 26.724L30.5645 28.1964ZM33.0201 28.6737L32.7339 30.1461L33.0201 28.6737ZM34.7734 28.317L33.9346 27.0734L33.9346 27.0734L34.7734 28.317ZM35.5009 27.531L35.9085 26.0875C35.2434 25.8996 34.5361 26.1906 34.1956 26.792L35.5009 27.531ZM36.7171 27.8745L38.2145 27.7861C38.1768 27.1484 37.7395 26.6045 37.1248 26.4309L36.7171 27.8745ZM36.9982 28.8104L38.2972 28.0604L38.2972 28.0604L36.9982 28.8104ZM38.2868 29.7992L37.8986 31.2481L37.8986 31.2481L38.2868 29.7992ZM39.3405 30.0815L40.6234 30.8589C40.8679 30.4553 40.9083 29.9601 40.7323 29.5222C40.5563 29.0843 40.1846 28.7548 39.7287 28.6327L39.3405 30.0815ZM22.9599 22.2741L21.5323 21.8137C21.3474 22.3872 21.5236 23.0157 21.9797 23.4095C22.4358 23.8033 23.0833 23.8859 23.6237 23.6193L22.9599 22.2741ZM32.5318 16.0559L32.7289 14.5689L32.7289 14.5689L32.5318 16.0559ZM40.4965 22.9995L39.6363 24.2283C40.15 24.5879 40.8331 24.59 41.349 24.2336C41.865 23.8772 42.1047 23.2375 41.9502 22.6298L40.4965 22.9995ZM41.498 29.396L40.1245 28.7933C39.8801 29.3502 39.9962 29.9996 40.4184 30.4373C40.8406 30.8751 41.4853 31.0146 42.0507 30.7905L41.498 29.396ZM41.647 29.324L40.897 28.025L40.8969 28.025L41.647 29.324ZM42.0631 27.8005L43.3693 27.0631C43.07 26.5329 42.48 26.2363 41.876 26.3123C41.272 26.3882 40.7738 26.8217 40.615 27.4094L42.0631 27.8005ZM42.1698 28.6426L43.6187 29.0308L43.6187 29.0308L42.1698 28.6426ZM40.5983 27.0597L42.0603 27.3955C42.241 26.6086 41.7665 25.8198 40.9866 25.6108L40.5983 27.0597ZM39.8351 29.1788L39.4469 30.6277C40.1392 30.8132 40.8659 30.4831 41.1817 29.8397L39.8351 29.1788ZM39.1265 26.6653L39.5148 25.2165L39.5148 25.2165L39.1265 26.6653ZM38.275 26.7774L37.525 25.4784L37.525 25.4784L38.275 26.7774ZM37.7521 27.4589L36.3032 27.0706L36.3032 27.0706L37.7521 27.4589ZM37.8642 28.3104L39.1633 27.5604L39.1633 27.5604L37.8642 28.3104ZM38.5456 28.8333L38.9339 27.3844L38.9339 27.3844L38.5456 28.8333ZM31.2658 24.5885L31.5521 23.116L31.5521 23.116L31.2658 24.5885ZM30.2625 24.7926L29.4237 23.549L29.4237 23.549L30.2625 24.7926ZM33.7214 25.0658L33.4352 26.5382L33.4352 26.5382L33.7214 25.0658ZM34.5752 25.6309L35.8187 24.7921L35.8187 24.7921L34.5752 25.6309ZM34.2142 27.488L33.3754 26.2444L33.3754 26.2444L34.2142 27.488ZM33.2109 27.6921L33.4971 26.2196L33.4971 26.2196L33.2109 27.6921ZM30.7553 27.2148L30.4691 28.6872L30.4691 28.6872L30.7553 27.2148ZM43.7785 23.6604C43.6271 21.752 42.9492 19.3493 41.4672 17.2548L39.0182 18.9876C40.1417 20.5754 40.6723 22.4406 40.7879 23.8976L43.7785 23.6604ZM43.8674 24.4106C43.8427 24.1243 43.8091 23.8393 43.7665 23.5561L40.7998 24.0019C40.833 24.2224 40.8592 24.4448 40.8786 24.6687L43.8674 24.4106ZM43.7933 26.8321C43.9088 26.0347 43.9377 25.2244 43.8674 24.4106L40.8786 24.6687C40.928 25.241 40.9085 25.8203 40.8243 26.4023L43.7933 26.8321ZM44.2228 26.541C43.9638 26.0924 43.6077 25.6977 43.1732 25.3913L41.4444 27.8431C41.5178 27.8948 41.5795 27.9627 41.6247 28.041L44.2228 26.541ZM44.5846 29.2896C44.8434 28.3238 44.6846 27.341 44.2228 26.541L41.6247 28.041C41.7052 28.1805 41.7313 28.3472 41.6869 28.5132L44.5846 29.2896ZM42.897 31.4891C43.6969 31.0272 44.3258 30.2555 44.5846 29.2896L41.6869 28.5132C41.6424 28.6792 41.5364 28.8105 41.397 28.891L42.897 31.4891ZM40.8759 31.9686C41.598 32.0109 42.2986 31.8345 42.897 31.4891L41.397 28.891C41.2922 28.9514 41.1721 28.9808 41.0512 28.9737L40.8759 31.9686ZM40.1336 34.1795C40.9623 33.256 41.6871 32.2559 42.2743 31.2005L39.6528 29.7419C39.1832 30.5859 38.5925 31.405 37.9007 32.176L40.1336 34.1795ZM38.3618 34.5271C40.0026 35.324 41.6849 36.247 43.3822 37.2956L44.9591 34.7435C43.1778 33.6429 41.4067 32.6708 39.6724 31.8285L38.3618 34.5271ZM43.3822 37.2956C43.0211 37.0725 42.8998 36.61 43.0963 36.2396L45.7466 37.6453C46.2856 36.6289 45.9512 35.3566 44.9591 34.7435L43.3822 37.2956ZM47.4566 36.995C46.7062 36.5309 45.9392 36.0774 45.1596 35.6367L43.6832 38.2482C44.4292 38.67 45.1624 39.1035 45.8787 39.5465L47.4566 36.995ZM49.197 36.131C47.9975 36.131 46.9064 36.4342 45.9519 36.9525L47.3834 39.5889C47.917 39.2992 48.5181 39.131 49.197 39.131V36.131ZM56.4522 40.8902C55.3949 37.5022 51.9237 36.131 49.197 36.131V39.131C51.205 39.131 53.0741 40.1359 53.5884 41.7839L56.4522 40.8902ZM54.9418 43.7709C56.1544 43.3925 56.8306 42.1028 56.4522 40.8902L53.5884 41.7839C53.4732 41.4149 53.679 41.0223 54.0481 40.9071L54.9418 43.7709ZM52.061 42.2605C52.4395 43.4731 53.7292 44.1494 54.9418 43.7709L54.0481 40.9072C54.4171 40.792 54.8097 40.9978 54.9248 41.3668L52.061 42.2605ZM49.197 40.731C50.7988 40.731 51.8313 41.5244 52.0611 42.2605L54.9248 41.3668C54.1591 38.913 51.5491 37.731 49.197 37.731V40.731ZM46.5601 42.8821C47.2375 41.3828 48.234 40.731 49.197 40.731V37.731C46.6597 37.731 44.8019 39.4873 43.8262 41.6469L46.5601 42.8821ZM39.8688 47.431C42.5704 47.431 45.3094 45.6503 46.5601 42.8821L43.8262 41.6469C43.0262 43.4174 41.3097 44.431 39.8688 44.431V47.431ZM33.0636 43.7883C34.7382 46.3722 37.4994 47.431 39.8688 47.431V44.431C38.3256 44.431 36.6065 43.7389 35.5812 42.1568L33.0636 43.7883ZM32.3617 42.6487C32.5713 42.9982 32.8112 43.3988 33.0636 43.7883L35.5812 42.1568C35.362 41.8186 35.1488 41.4631 34.9349 41.1063L32.3617 42.6487ZM32.0556 42.1418C32.1509 42.297 32.2517 42.4652 32.3617 42.6486L34.9349 41.1063C34.8267 40.9259 34.7173 40.7433 34.6119 40.5716L32.0556 42.1418ZM31.2971 41.0565C31.5238 41.3146 31.7574 41.6563 32.0556 42.1418L34.6119 40.5716C34.2931 40.0527 33.952 39.5332 33.5513 39.0769L31.2971 41.0565ZM30 40.4706C30.3802 40.4706 30.6075 40.5387 30.7619 40.614C30.9218 40.6921 31.0895 40.82 31.2971 41.0565L33.5513 39.0769C33.1672 38.6396 32.6955 38.2195 32.0776 37.918C31.4542 37.6137 30.7653 37.4706 30 37.4706V40.4706ZM28.639 40.9656C28.8081 40.7954 28.9613 40.6874 29.1343 40.6138C29.3094 40.5393 29.5744 40.4706 30 40.4706V37.4706C28.3967 37.4706 27.3263 38.0307 26.5112 38.8508L28.639 40.9656ZM28.0002 41.7902C28.2528 41.4125 28.4498 41.1559 28.639 40.9656L26.5112 38.8508C26.1191 39.2453 25.7963 39.6892 25.5067 40.1221L28.0002 41.7902ZM27.6884 42.2685C27.8063 42.0857 27.9098 41.9253 28.0002 41.7902L25.5067 40.1221C25.3994 40.2825 25.2812 40.4659 25.1672 40.6427L27.6884 42.2685ZM27.1357 43.1064C27.3238 42.8342 27.52 42.5297 27.6884 42.2685L25.1672 40.6427C24.9927 40.9133 24.8235 41.1755 24.6678 41.4007L27.1357 43.1064ZM20.3471 47.233C23.7494 47.233 25.7045 45.177 27.1357 43.1064L24.6678 41.4007C23.4187 43.208 22.2472 44.233 20.3471 44.233V47.233ZM15.7207 45.0191C16.589 45.8589 18.2558 47.233 20.3471 47.233V44.233C19.5152 44.233 18.5986 43.629 17.8065 42.8627L15.7207 45.0191ZM14.5457 43.7191C14.8224 44.0674 15.2245 44.5391 15.7207 45.0191L17.8065 42.8627C17.4292 42.4978 17.115 42.1303 16.8947 41.853L14.5457 43.7191ZM14.2151 43.2847C14.2944 43.3939 14.4059 43.5431 14.5457 43.7191L16.8947 41.853C16.785 41.715 16.6997 41.6007 16.6427 41.5221L14.2151 43.2847ZM14.1199 43.1512C14.1434 43.1849 14.1753 43.2299 14.215 43.2846L16.6427 41.5221C16.6142 41.4829 16.5929 41.4527 16.5791 41.433L14.1199 43.1512ZM14.1085 43.1348L14.1166 43.1465L16.5824 41.4377L16.5743 41.426L14.1085 43.1348ZM14.1748 43.2234L14.1842 43.2348L16.4986 41.326L16.4891 41.3145L14.1748 43.2234ZM14.1028 43.1382C14.1373 43.1785 14.1626 43.2087 14.1777 43.2269L16.4861 41.3109C16.462 41.2818 16.427 41.2401 16.3822 41.1877L14.1028 43.1382ZM13.7923 42.789C13.9279 42.9364 14.0335 43.0573 14.1028 43.1382L16.3822 41.1877C16.2925 41.0829 16.1629 40.9349 16.0002 40.7579L13.7923 42.789ZM12.6971 41.7167C13.1362 42.1003 13.5182 42.4911 13.7923 42.789L16.0002 40.7579C15.6754 40.4049 15.2143 39.9323 14.6709 39.4575L12.6971 41.7167ZM11.369 40.7529C11.7928 40.986 12.2506 41.3267 12.6971 41.7167L14.6709 39.4575C14.1297 38.9847 13.4923 38.4968 12.8144 38.1241L11.369 40.7529ZM10.6055 40.4706C10.6753 40.4706 10.9227 40.5075 11.369 40.7529L12.8144 38.1241C12.1434 37.7551 11.3818 37.4706 10.6055 37.4706V40.4706ZM8.96463 40.9241C9.3001 40.6699 9.79086 40.4706 10.6055 40.4706V37.4706C9.25825 37.4706 8.09886 37.8161 7.15272 38.5331L8.96463 40.9241ZM7.91013 42.5701C8.22863 41.6754 8.61089 41.1922 8.96464 40.9241L7.15272 38.5331C6.21208 39.2459 5.5403 40.2818 5.08387 41.5639L7.91013 42.5701ZM4.97197 43.9655C6.16867 44.3915 7.48412 43.7667 7.91013 42.5701L5.08387 41.5639C5.21353 41.1997 5.61388 41.0096 5.9781 41.1392L4.97197 43.9655ZM3.57654 41.0273C3.15053 42.224 3.77529 43.5395 4.97198 43.9655L5.97809 41.1392C6.3423 41.2689 6.53245 41.6692 6.40279 42.0335L3.57654 41.0273ZM6.18636 37.2579C4.93211 38.2083 4.1062 39.5395 3.57654 41.0273L6.40279 42.0335C6.79494 40.9319 7.33167 40.154 7.99828 39.6489L6.18636 37.2579ZM10.6055 35.8706C8.97548 35.8706 7.45906 36.2934 6.18636 37.2579L7.99828 39.6489C8.65924 39.148 9.5065 38.8706 10.6055 38.8706V35.8706ZM12.0769 36.0867C11.6237 35.9564 11.1284 35.8706 10.6055 35.8706V38.8706C10.8005 38.8706 11.0144 38.9027 11.2478 38.9699L12.0769 36.0867ZM13.1519 37.7053C13.1381 37.8213 13.0988 37.9351 13.0354 38.0363L10.4936 36.4428C10.3165 36.7252 10.2103 37.0361 10.1728 37.3513L13.1519 37.7053ZM13.0354 38.0363C15.4487 34.1869 18.4888 31.9143 22.1387 31.095L21.4816 28.1678C16.9149 29.1929 13.252 32.043 10.4936 36.4428L13.0354 38.0363ZM19.7122 22.4285C19.0912 25.3024 19.2508 28.0067 20.4849 30.3341L23.1354 28.9287C22.3247 27.3999 22.1255 25.4642 22.6445 23.0622L19.7122 22.4285ZM20.1315 20.9678C19.9595 21.4464 19.8189 21.9346 19.7122 22.4285L22.6445 23.0621C22.7226 22.7009 22.8263 22.3398 22.9548 21.9821L20.1315 20.9678ZM22.0877 17.1907C21.115 18.468 20.4862 19.828 20.1114 21.0276L22.9749 21.9223C23.2609 21.007 23.742 19.9701 24.4745 19.0082L22.0877 17.1907ZM31.6742 12.572C27.0321 12.6744 23.9531 14.7411 22.0877 17.1907L24.4745 19.0082C25.8261 17.2332 28.0748 15.6521 31.7404 15.5713L31.6742 12.572ZM41.4672 17.2548C39.5636 14.5645 36.3793 12.4683 31.6742 12.572L31.7404 15.5713C35.383 15.491 37.6515 17.056 39.0182 18.9876L41.4672 17.2548ZM23.6707 30.8396C26.7896 30.4916 31.4902 31.4293 36.8823 33.8374L38.1056 31.0981C32.4862 28.5885 27.2135 27.4257 23.338 27.8582L23.6707 30.8396ZM23.6655 30.8402C23.6669 30.8401 23.6682 30.8399 23.669 30.8398C23.67 30.8397 23.6704 30.8397 23.6708 30.8396L23.3379 27.8582C23.3365 27.8583 23.3352 27.8585 23.3344 27.8586C23.3334 27.8587 23.333 27.8587 23.3326 27.8588L23.6655 30.8402ZM24.7573 28.5329C24.103 27.5248 23.79 26.1797 24.0472 24.3065L21.0751 23.8985C20.7434 26.3139 21.1101 28.4238 22.2408 30.1661L24.7573 28.5329ZM23.3687 25.3665C25.2334 24.1752 27.9485 23.4674 31.7227 23.4674V20.4674C27.6171 20.4674 24.2698 21.2308 21.7535 22.8384L23.3687 25.3665ZM31.7227 23.4674C35.3406 23.4674 37.9395 24.4335 39.7811 26.1406L41.8206 23.9405C39.2908 21.5955 35.8928 20.4674 31.7227 20.4674V23.4674ZM39.3017 25.0923C39.311 25.361 39.3012 25.635 39.2722 25.9136L42.2561 26.2241C42.2988 25.8131 42.3141 25.4007 42.2999 24.9889L39.3017 25.0923ZM41.1524 24.62L39.7736 24.2505L38.9971 27.1483L40.3759 27.5177L41.1524 24.62ZM39.7736 24.2505C38.8077 23.9917 37.8249 24.1506 37.025 24.6124L38.525 27.2105C38.6644 27.13 38.8311 27.1038 38.9971 27.1483L39.7736 24.2505ZM37.025 24.6124C36.3795 24.985 35.8449 25.5593 35.5261 26.2775L38.268 27.4948C38.3215 27.3744 38.412 27.2757 38.525 27.2105L37.025 24.6124ZM37.3047 25.4426L36.2035 25.1316L35.3881 28.0187L36.4894 28.3297L37.3047 25.4426ZM37.2904 26.7027C37.3671 25.8035 37.1227 24.937 36.6478 24.2329L34.1607 25.9105C34.2659 26.0664 34.3177 26.2546 34.3012 26.4477L37.2904 26.7027ZM36.6478 24.2329C36.1004 23.4214 35.2384 22.8138 34.1984 22.6117L33.626 25.5566C33.8531 25.6007 34.0398 25.7313 34.1607 25.9105L36.6478 24.2329ZM34.1984 22.6117L31.7429 22.1344L31.1704 25.0793L33.626 25.5566L34.1984 22.6117ZM31.7429 22.1344C30.7029 21.9322 29.6761 22.1726 28.8646 22.72L30.5421 25.2071C30.7213 25.0862 30.9433 25.0351 31.1704 25.0793L31.7429 22.1344ZM28.8646 22.72C28.0531 23.2674 27.4455 24.1294 27.2434 25.1693L30.1882 25.7418C30.2324 25.5146 30.3629 25.328 30.5421 25.2071L28.8646 22.72ZM27.2434 25.1693C27.0412 26.2093 27.2816 27.2361 27.829 28.0476L30.3161 26.3701C30.1952 26.1909 30.1441 25.9689 30.1882 25.7418L27.2434 25.1693ZM27.829 28.0476C28.3763 28.8591 29.2384 29.4667 30.2783 29.6688L30.8507 26.724C30.6236 26.6798 30.4369 26.5493 30.3161 26.3701L27.829 28.0476ZM30.2783 29.6688L32.7339 30.1461L33.3063 27.2013L30.8507 26.724L30.2783 29.6688ZM32.7339 30.1461C33.7738 30.3483 34.8007 30.1079 35.6122 29.5605L33.9346 27.0734C33.7554 27.1943 33.5335 27.2454 33.3063 27.2013L32.7339 30.1461ZM35.6122 29.5606C36.0972 29.2334 36.5094 28.7942 36.8062 28.2701L34.1956 26.792C34.1318 26.9047 34.0419 27.0011 33.9346 27.0734L35.6122 29.5606ZM35.0932 28.9746L36.3095 29.318L37.1248 26.4309L35.9085 26.0875L35.0932 28.9746ZM35.2197 27.9629C35.2534 28.5336 35.4217 29.0798 35.6992 29.5604L38.2972 28.0604C38.2488 27.9765 38.2202 27.8822 38.2145 27.7861L35.2197 27.9629ZM35.6992 29.5604C36.161 30.3603 36.9327 30.9893 37.8986 31.2481L38.675 28.3503C38.509 28.3058 38.3777 28.1999 38.2972 28.0604L35.6992 29.5604ZM37.8986 31.2481L38.9523 31.5304L39.7287 28.6327L38.675 28.3503L37.8986 31.2481ZM38.0576 29.3042C37.6179 30.0299 37.0663 30.7459 36.4108 31.4301L38.5771 33.5054C39.3729 32.6748 40.0616 31.7859 40.6234 30.8589L38.0576 29.3042ZM24.3875 22.7345C25.3974 19.6033 28.5528 17.0417 32.3348 17.5429L32.7289 14.5689C27.2684 13.8452 22.9079 17.5487 21.5323 21.8137L24.3875 22.7345ZM31.7227 19.0674C28.0856 19.0674 24.9031 19.6425 22.2961 20.929L23.6237 23.6193C25.6884 22.6004 28.3759 22.0674 31.7227 22.0674V19.0674ZM41.3567 21.7706C38.7101 19.9179 35.447 19.0674 31.7227 19.0674V22.0674C34.9929 22.0674 37.6117 22.8111 39.6363 24.2283L41.3567 21.7706ZM32.3348 17.5429C36.0379 18.0336 38.2925 20.4187 39.0427 23.3691L41.9502 22.6298C40.9162 18.5635 37.7205 15.2304 32.7289 14.5689L32.3348 17.5429ZM42.0507 30.7905C42.1702 30.7431 42.286 30.6871 42.397 30.623L40.8969 28.025C40.9123 28.0161 40.9285 28.0082 40.9454 28.0015L42.0507 30.7905ZM40.615 27.4094C40.4902 27.8717 40.326 28.334 40.1245 28.7933L42.8716 29.9988C43.1298 29.4104 43.3451 28.8068 43.5113 28.1917L40.615 27.4094ZM43.6187 29.0308C43.8035 28.3411 43.6947 27.6393 43.3693 27.0631L40.7569 28.538C40.7112 28.4569 40.6946 28.3528 40.7209 28.2544L43.6187 29.0308ZM42.397 30.623C42.9772 30.288 43.4315 29.7296 43.6187 29.0308L40.7209 28.2544C40.7477 28.1545 40.8155 28.072 40.897 28.025L42.397 30.623ZM39.1364 26.7239C39.0015 27.3113 38.7855 27.913 38.4886 28.5179L41.1817 29.8397C41.5711 29.0463 41.8692 28.2272 42.0603 27.3955L39.1364 26.7239ZM38.7383 28.1142L40.2101 28.5086L40.9866 25.6108L39.5148 25.2165L38.7383 28.1142ZM39.025 28.0765C38.9435 28.1235 38.8381 28.141 38.7383 28.1142L39.5148 25.2165C38.816 25.0292 38.1052 25.1434 37.525 25.4784L39.025 28.0765ZM39.201 27.8471C39.1742 27.9469 39.1064 28.0295 39.025 28.0765L37.525 25.4784C36.9447 25.8134 36.4904 26.3719 36.3032 27.0706L39.201 27.8471ZM39.1633 27.5604C39.2103 27.6419 39.2277 27.7473 39.201 27.8471L36.3032 27.0706C36.116 27.7694 36.2302 28.4802 36.5652 29.0604L39.1633 27.5604ZM38.9339 27.3844C39.0337 27.4111 39.1162 27.479 39.1633 27.5604L36.5652 29.0604C36.9002 29.6406 37.4587 30.0949 38.1574 30.2822L38.9339 27.3844ZM40.2234 27.7299L38.9339 27.3844L38.1574 30.2822L39.4469 30.6277L40.2234 27.7299ZM31.5521 23.116C30.7835 22.9666 30.0249 23.1436 29.4237 23.549L31.1013 26.0361C31.086 26.0464 31.067 26.0551 31.0446 26.0598C31.0211 26.0647 30.9981 26.0645 30.9796 26.0609L31.5521 23.116ZM34.0076 23.5933L31.5521 23.116L30.9796 26.0609L33.4352 26.5382L34.0076 23.5933ZM35.8187 24.7921C35.4133 24.191 34.7762 23.7427 34.0076 23.5933L33.4352 26.5382C33.4167 26.5346 33.3953 26.5262 33.3754 26.5129C33.3564 26.5001 33.3419 26.4849 33.3316 26.4697L35.8187 24.7921ZM36.2517 26.9204C36.4011 26.1518 36.2242 25.3932 35.8187 24.7921L33.3316 26.4697C33.3213 26.4544 33.3127 26.4353 33.308 26.4129C33.303 26.3894 33.3033 26.3665 33.3069 26.348L36.2517 26.9204ZM35.053 28.7315C35.6541 28.3261 36.1023 27.689 36.2517 26.9204L33.3069 26.348C33.3105 26.3294 33.3188 26.3081 33.3322 26.2882C33.345 26.2691 33.3601 26.2547 33.3754 26.2444L35.053 28.7315ZM32.9247 29.1645C33.6933 29.3139 34.4519 29.137 35.053 28.7315L33.3754 26.2444C33.3907 26.2341 33.4097 26.2255 33.4322 26.2207C33.4556 26.2158 33.4786 26.216 33.4971 26.2196L32.9247 29.1645ZM30.4691 28.6872L32.9247 29.1645L33.4971 26.2196L31.0415 25.7423L30.4691 28.6872ZM28.658 27.4885C29.0635 28.0896 29.7005 28.5378 30.4691 28.6872L31.0416 25.7423C31.0601 25.7459 31.0814 25.7543 31.1014 25.7677C31.1204 25.7805 31.1348 25.7956 31.1451 25.8109L28.658 27.4885ZM28.225 25.3601C28.0756 26.1287 28.2525 26.8873 28.658 27.4885L31.1451 25.8109C31.1554 25.8262 31.164 25.8452 31.1688 25.8676C31.1737 25.8911 31.1735 25.9141 31.1699 25.9326L28.225 25.3601ZM29.4237 23.549C28.8226 23.9545 28.3744 24.5916 28.225 25.3601L31.1699 25.9326C31.1663 25.9511 31.1579 25.9725 31.1445 25.9924C31.1317 26.0114 31.1166 26.0258 31.1013 26.0361L29.4237 23.549Z" fill="#F8F9FA" mask="url(#path-1-outside-1_50_8791)"/>
<path fill-rule="evenodd" clip-rule="evenodd" d="M37.7086 33.2266C40.3075 30.6794 41.8392 27.4959 41.5759 24.4468C41.181 19.8732 38.0725 15.8214 32.6369 15.1011C27.2013 14.3808 22.9051 18.3802 21.9603 22.7526C21.3304 25.6675 21.6844 28.0524 23.0223 29.9072" fill="#FFF4E6" stroke="#212529" stroke-width="1.6"/>
<path fill-rule="evenodd" clip-rule="evenodd" d="M33.8169 24.4139C34.3151 24.5107 34.7268 24.8003 34.9898 25.1902C35.2528 25.5801 35.367 26.0704 35.2702 26.5685C35.1734 27.0667 34.8838 27.4784 34.4939 27.7414C34.104 28.0044 33.6137 28.1187 33.1156 28.0218L30.66 27.5445C30.1619 27.4477 29.7501 27.1581 29.4871 26.7682C29.2241 26.3783 29.1099 25.8881 29.2067 25.3899C29.3035 24.8918 29.5931 24.48 29.983 24.217C30.3729 23.954 30.8632 23.8398 31.3613 23.9366L33.8169 24.4139Z" fill="#91A7FF" stroke="#212529"/>
<path fill-rule="evenodd" clip-rule="evenodd" d="M41.5057 26.6242C41.9384 26.7402 42.2831 27.0205 42.4907 27.3801C42.6983 27.7396 42.7687 28.1783 42.6528 28.611C42.5368 29.0437 42.2565 29.3885 41.8969 29.5961C41.5374 29.8036 41.0987 29.8741 40.666 29.7581L38.4162 29.1553C37.9835 29.0393 37.6387 28.759 37.4312 28.3995C37.2236 28.0399 37.1532 27.6012 37.2691 27.1685C37.385 26.7358 37.6654 26.3911 38.0249 26.1835C38.3845 25.9759 38.8232 25.9055 39.2559 26.0214L41.5057 26.6242Z" fill="#91A7FF" stroke="#212529"/>
<path d="M37.2256 27.338L34.9912 26.707" stroke="#212529"/>
<path d="M31.7228 21.1064C35.9382 21.1064 39.2317 22.2981 41.6033 24.6815C41.7733 21.4374 39.5749 14.4374 31.7228 14.6106C23.8707 14.7837 21.8424 21.4532 21.8423 23.5796C24.2139 21.9308 27.5074 21.1064 31.7228 21.1064Z" fill="#FF6B6B" stroke="#212529" stroke-width="1.2" stroke-linecap="round"/>
<path d="M22.7672 29.8337C17.3522 29.9582 13.2495 35.591 11.875 38.3919C12.8086 39.0662 14.9093 40.7104 15.8429 41.893C17.0099 43.3712 18.0992 45.0051 20.511 45.0051C22.9229 45.0051 24.0121 42.9822 25.1013 41.3484C26.1905 39.7145 27.6688 38.0029 29.8472 37.9251C32.0257 37.8473 33.5817 40.1814 34.3597 41.3484C35.1377 42.5154 37.2384 45.1607 39.5724 45.0051C41.9065 44.8495 43.9293 43.3712 44.5517 41.893C45.0497 40.7104 46.4708 39.0662 47.1192 38.3919C39.339 33.4905 29.536 29.6781 22.7672 29.8337Z" fill="#91A7FF"/>
<path d="M5.74329 41.6379C6.59165 39.2547 8.15996 38.0098 10.6055 38.0098C13.051 38.0098 15.9809 41.6379 15.9809 41.6379C15.9809 41.6379 18.0957 44.7722 20.347 44.7722C22.5984 44.7722 23.9527 43.5056 25.2436 41.6379C26.424 39.9301 27.1819 38.0098 29.9999 38.0098C32.818 38.0098 33.5848 40.2026 34.9937 42.3767C36.1708 44.1929 38.1334 44.9701 39.8688 44.9701C41.6042 44.9701 43.5591 43.7772 44.464 41.7743C45.369 39.7713 47.0248 38.2702 49.197 38.2702C51.3691 38.2702 53.6148 39.358 54.2566 41.4145" stroke="#212529" stroke-width="1.6" stroke-linecap="round"/>
<path d="M43.8027 36.4542C35.8273 31.5264 28.2272 29.3654 23.582 29.8837C18.9367 30.4021 15.1952 32.9244 12.3575 37.4505" stroke="#212529" stroke-width="1.4" stroke-linecap="round"/>
<g style="mix-blend-mode:multiply">
<path fill-rule="evenodd" clip-rule="evenodd" d="M37.7286 32.4171C37.6147 32.536 37.4984 32.6535 37.3798 32.7697L23.0628 29.5338C21.7586 27.7256 21.4135 25.4007 22.0275 22.5591C22.9485 18.2966 27.1368 14.3977 32.4357 15.0999C33.103 15.1884 33.7344 15.3284 34.3291 15.5144C34.2682 15.5053 34.207 15.4967 34.1455 15.4886C28.9854 14.8047 24.9069 18.6015 24.0099 22.7523C23.412 25.5194 23.7481 27.7835 25.0182 29.5443L37.7286 32.4171Z" fill="#DEE2E6"/>
</g>
<g style="mix-blend-mode:multiply">
<path d="M21.864 30.6387C17.8369 32.1382 14.8666 36.8328 13.8848 38.9927L12.3701 38.2123C12.7628 37.6232 14.0195 35.931 15.9045 33.8746C17.7895 31.8182 20.5788 30.8171 21.864 30.6387Z" fill="#DEE2E6"/>
</g>
</svg>
