<svg width="60" height="61" viewBox="0 0 60 61" fill="none" xmlns="http://www.w3.org/2000/svg">
<mask id="path-1-outside-1_50_3744" maskUnits="userSpaceOnUse" x="8.38354" y="8.7749" width="43" height="44" fill="black">
<rect fill="white" x="8.38354" y="8.7749" width="43" height="44"/>
<path fill-rule="evenodd" clip-rule="evenodd" d="M12.3835 30.3913C12.3835 20.662 20.2707 12.7749 30 12.7749C39.7292 12.7749 47.6164 20.662 47.6164 30.3913C47.6164 40.1206 39.7292 48.0077 30 48.0077C29.1991 48.0077 28.4107 47.9543 27.6381 47.8508C28.0283 47.6329 28.4123 47.3978 28.7909 47.1472C29.7811 46.4918 30.024 45.4678 29.4427 44.4358C29.34 44.2533 29.3065 43.9892 29.3414 43.7795C29.4684 43.0185 29.3018 42.3745 28.7492 41.8178C28.6317 41.6993 28.5628 41.4537 28.5895 41.2852C28.6824 40.6967 28.5848 40.1618 28.2754 39.6591C27.9687 39.1603 27.969 39.1591 28.517 38.9032C28.9634 38.6946 29.4105 38.4873 29.8576 38.28C30.8564 37.8168 31.8552 37.3537 32.8475 36.8769C33.884 36.3789 34.1112 35.1656 33.3173 34.4488C32.7511 33.9376 32.1263 34.0083 31.4864 34.3072C29.2463 35.3535 27.005 36.3978 24.7625 37.4394C24.6528 37.4904 24.5376 37.5296 24.3961 37.5779C24.3214 37.6033 24.2394 37.6313 24.1469 37.6648C24.1668 37.5783 24.1829 37.5031 24.1973 37.4355C24.2243 37.309 24.2456 37.2092 24.2755 37.1122C24.5522 36.2137 24.6448 35.311 24.4004 34.3866C24.167 33.5038 23.6005 32.8898 22.9001 32.7963C22.3418 32.7219 21.9362 32.971 21.8934 33.4719C21.7441 35.2171 21.0119 36.7214 20.0692 38.1636L20.0632 38.1729C19.5306 38.9877 18.9802 39.8299 18.67 40.7387C18.3892 41.5614 17.9197 42.1351 17.277 42.5759C14.2459 39.4117 12.3835 35.119 12.3835 30.3913ZM16.0186 44.1509C12.5337 40.6101 10.3835 35.7518 10.3835 30.3913C10.3835 19.5575 19.1661 10.7749 30 10.7749C40.8338 10.7749 49.6164 19.5575 49.6164 30.3913C49.6164 41.2252 40.8338 50.0077 30 50.0077C28.0488 50.0077 26.1641 49.7229 24.3854 49.1924C23.7814 49.3552 23.1602 49.4761 22.5191 49.5507C21.7579 49.6392 21.0109 49.8799 20.2702 50.1185C20.1176 50.1676 19.9653 50.2167 19.8132 50.2643C19.4633 50.3738 18.938 50.0633 18.6777 49.9095L18.67 49.905C17.8892 49.4436 16.931 48.3919 16.5922 47.66C16.0201 46.4238 16.0186 45.5643 16.0186 44.1772C16.0186 44.1684 16.0186 44.1596 16.0186 44.1509Z"/>
</mask>
<path fill-rule="evenodd" clip-rule="evenodd" d="M12.3835 30.3913C12.3835 20.662 20.2707 12.7749 30 12.7749C39.7292 12.7749 47.6164 20.662 47.6164 30.3913C47.6164 40.1206 39.7292 48.0077 30 48.0077C29.1991 48.0077 28.4107 47.9543 27.6381 47.8508C28.0283 47.6329 28.4123 47.3978 28.7909 47.1472C29.7811 46.4918 30.024 45.4678 29.4427 44.4358C29.34 44.2533 29.3065 43.9892 29.3414 43.7795C29.4684 43.0185 29.3018 42.3745 28.7492 41.8178C28.6317 41.6993 28.5628 41.4537 28.5895 41.2852C28.6824 40.6967 28.5848 40.1618 28.2754 39.6591C27.9687 39.1603 27.969 39.1591 28.517 38.9032C28.9634 38.6946 29.4105 38.4873 29.8576 38.28C30.8564 37.8168 31.8552 37.3537 32.8475 36.8769C33.884 36.3789 34.1112 35.1656 33.3173 34.4488C32.7511 33.9376 32.1263 34.0083 31.4864 34.3072C29.2463 35.3535 27.005 36.3978 24.7625 37.4394C24.6528 37.4904 24.5376 37.5296 24.3961 37.5779C24.3214 37.6033 24.2394 37.6313 24.1469 37.6648C24.1668 37.5783 24.1829 37.5031 24.1973 37.4355C24.2243 37.309 24.2456 37.2092 24.2755 37.1122C24.5522 36.2137 24.6448 35.311 24.4004 34.3866C24.167 33.5038 23.6005 32.8898 22.9001 32.7963C22.3418 32.7219 21.9362 32.971 21.8934 33.4719C21.7441 35.2171 21.0119 36.7214 20.0692 38.1636L20.0632 38.1729C19.5306 38.9877 18.9802 39.8299 18.67 40.7387C18.3892 41.5614 17.9197 42.1351 17.277 42.5759C14.2459 39.4117 12.3835 35.119 12.3835 30.3913ZM16.0186 44.1509C12.5337 40.6101 10.3835 35.7518 10.3835 30.3913C10.3835 19.5575 19.1661 10.7749 30 10.7749C40.8338 10.7749 49.6164 19.5575 49.6164 30.3913C49.6164 41.2252 40.8338 50.0077 30 50.0077C28.0488 50.0077 26.1641 49.7229 24.3854 49.1924C23.7814 49.3552 23.1602 49.4761 22.5191 49.5507C21.7579 49.6392 21.0109 49.8799 20.2702 50.1185C20.1176 50.1676 19.9653 50.2167 19.8132 50.2643C19.4633 50.3738 18.938 50.0633 18.6777 49.9095L18.67 49.905C17.8892 49.4436 16.931 48.3919 16.5922 47.66C16.0201 46.4238 16.0186 45.5643 16.0186 44.1772C16.0186 44.1684 16.0186 44.1596 16.0186 44.1509Z" fill="#F8F9FA"/>
<path d="M27.6381 47.8508L26.9069 46.5411C26.3429 46.8559 26.0438 47.4965 26.1645 48.1311C26.2853 48.7657 26.7987 49.2517 27.4389 49.3375L27.6381 47.8508ZM28.7909 47.1472L27.963 45.8964L27.9629 45.8964L28.7909 47.1472ZM29.4427 44.4358L28.1356 45.1717L28.1358 45.172L29.4427 44.4358ZM29.3414 43.7795L27.8619 43.5327L27.8619 43.5327L29.3414 43.7795ZM28.7492 41.8178L27.6845 42.8743L27.6846 42.8744L28.7492 41.8178ZM28.5895 41.2852L30.0711 41.5192L30.0711 41.5191L28.5895 41.2852ZM28.2754 39.6591L26.9978 40.4449L26.9979 40.4451L28.2754 39.6591ZM28.517 38.9032L29.1517 40.2622L29.1517 40.2622L28.517 38.9032ZM29.8576 38.28L30.4886 39.6408L30.4886 39.6408L29.8576 38.28ZM32.8475 36.8769L32.1979 35.5248L32.1978 35.5249L32.8475 36.8769ZM33.3173 34.4488L32.3121 35.5622L32.3121 35.5622L33.3173 34.4488ZM31.4864 34.3072L32.1212 35.6663L32.1214 35.6662L31.4864 34.3072ZM24.7625 37.4394L24.1307 36.0789L24.1306 36.079L24.7625 37.4394ZM24.3961 37.5779L23.9121 36.1581L23.9121 36.1581L24.3961 37.5779ZM24.1469 37.6648L22.685 37.329C22.562 37.8644 22.7416 38.4242 23.1529 38.7882C23.5643 39.1522 24.1418 39.2622 24.6582 39.075L24.1469 37.6648ZM24.1973 37.4355L22.7304 37.1223L22.7303 37.1223L24.1973 37.4355ZM24.2755 37.1122L25.709 37.5539L25.7091 37.5536L24.2755 37.1122ZM24.4004 34.3866L22.9502 34.7699L22.9502 34.77L24.4004 34.3866ZM22.9001 32.7963L23.0985 31.3095L23.0983 31.3095L22.9001 32.7963ZM21.8934 33.4719L23.3879 33.5998L23.3879 33.5996L21.8934 33.4719ZM20.0692 38.1636L18.8136 37.343L18.8136 37.343L20.0692 38.1636ZM20.0632 38.1729L18.8076 37.3522L18.8076 37.3522L20.0632 38.1729ZM18.67 40.7387L17.2504 40.2542L17.2504 40.2542L18.67 40.7387ZM17.277 42.5759L16.1938 43.6135C16.7019 44.144 17.5195 44.2284 18.1253 43.813L17.277 42.5759ZM16.0186 44.1509L17.5186 44.154C17.5194 43.7592 17.3646 43.38 17.0876 43.0987L16.0186 44.1509ZM24.3854 49.1924L24.814 47.755C24.5473 47.6754 24.2637 47.6717 23.9949 47.7441L24.3854 49.1924ZM22.5191 49.5507L22.6924 51.0406L22.6924 51.0406L22.5191 49.5507ZM20.2702 50.1185L19.8103 48.6907L19.8103 48.6907L20.2702 50.1185ZM19.8132 50.2643L20.2612 51.6959L20.2614 51.6958L19.8132 50.2643ZM18.6777 49.9095L19.4409 48.6182L19.4406 48.618L18.6777 49.9095ZM18.67 49.905L17.9069 51.1964L17.9071 51.1964L18.67 49.905ZM16.5922 47.66L15.2309 48.29L15.231 48.2902L16.5922 47.66ZM30 11.2749C19.4423 11.2749 10.8835 19.8336 10.8835 30.3913H13.8835C13.8835 21.4905 21.0991 14.2749 30 14.2749V11.2749ZM49.1164 30.3913C49.1164 19.8336 40.5577 11.2749 30 11.2749V14.2749C38.9008 14.2749 46.1164 21.4905 46.1164 30.3913H49.1164ZM30 49.5077C40.5577 49.5077 49.1164 40.949 49.1164 30.3913H46.1164C46.1164 39.2922 38.9008 46.5077 30 46.5077V49.5077ZM27.4389 49.3375C28.2773 49.4498 29.1323 49.5077 30 49.5077V46.5077C29.2659 46.5077 28.544 46.4587 27.8373 46.364L27.4389 49.3375ZM28.3693 49.1605C28.7948 48.9229 29.211 48.668 29.619 48.3979L27.9629 45.8964C27.6136 46.1277 27.2619 46.3428 26.9069 46.5411L28.3693 49.1605ZM29.6189 48.398C30.3711 47.9001 30.9491 47.1827 31.1648 46.2821C31.3804 45.3823 31.1905 44.4823 30.7497 43.6997L28.1358 45.172C28.2763 45.4214 28.2555 45.5493 28.2474 45.5833C28.2394 45.6165 28.2009 45.7389 27.963 45.8964L29.6189 48.398ZM30.7499 43.7C30.7819 43.7569 30.7992 43.803 30.8084 43.832C30.8178 43.8619 30.8223 43.8848 30.8246 43.9005C30.8282 43.9252 30.8314 43.964 30.821 44.0262L27.8619 43.5327C27.7809 44.0184 27.8367 44.6407 28.1356 45.1717L30.7499 43.7ZM30.821 44.0263C31.0179 42.8457 30.7447 41.699 29.8139 40.7611L27.6846 42.8744C27.8589 43.0501 27.9188 43.1913 27.8619 43.5327L30.821 44.0263ZM29.814 40.7612C29.9106 40.8586 29.9657 40.9484 29.9945 41.0024C30.025 41.0596 30.0431 41.1088 30.0545 41.1474C30.0708 41.203 30.1011 41.3295 30.0711 41.5192L27.1078 41.0512C27.0513 41.4094 27.1026 41.743 27.1761 41.9931C27.2474 42.2355 27.3923 42.5798 27.6845 42.8743L29.814 40.7612ZM30.0711 41.5191C30.2167 40.5968 30.06 39.6971 29.553 38.873L26.9979 40.4451C27.1095 40.6265 27.148 40.7965 27.1078 41.0512L30.0711 41.5191ZM29.5531 38.8732C29.4563 38.7159 29.4556 38.7099 29.4667 38.7337C29.4671 38.7347 29.6698 39.1292 29.5045 39.6465C29.4229 39.9022 29.2843 40.0794 29.1783 40.1851C29.0819 40.2814 28.9993 40.3316 28.9834 40.3413C28.969 40.35 28.9823 40.3414 29.1517 40.2622L27.8822 37.5441C27.7777 37.5929 27.5854 37.6804 27.4264 37.777C27.2969 37.8556 26.837 38.1381 26.6468 38.7336C26.4513 39.3456 26.6772 39.8499 26.7467 39.9993C26.8269 40.1716 26.9411 40.3528 26.9978 40.4449L29.5531 38.8732ZM29.1517 40.2622C29.596 40.0547 30.0412 39.8483 30.4886 39.6408L29.2265 36.9192C28.7798 37.1264 28.3309 37.3345 27.8822 37.5441L29.1517 40.2622ZM30.4886 39.6408C31.4859 39.1784 32.494 38.7109 33.4971 38.2289L32.1978 35.5249C31.2164 35.9965 30.2269 36.4553 29.2265 36.9192L30.4886 39.6408ZM33.497 38.2289C34.4141 37.7883 35.0595 36.9808 35.2421 36.0269C35.427 35.0607 35.1115 34.0479 34.3225 33.3355L32.3121 35.5622C32.3196 35.569 32.3192 35.5702 32.3153 35.5642C32.3114 35.5583 32.3061 35.5485 32.3016 35.5352C32.2922 35.5069 32.2922 35.4805 32.2956 35.4629C32.2988 35.4459 32.3034 35.4449 32.2946 35.456C32.2866 35.4661 32.2604 35.4948 32.1979 35.5248L33.497 38.2289ZM34.3225 33.3355C33.7852 32.8504 33.1498 32.5944 32.4728 32.5749C31.842 32.5566 31.2833 32.7465 30.8515 32.9483L32.1214 35.6662C32.2193 35.6205 32.2903 35.596 32.3381 35.5836C32.3848 35.5716 32.3982 35.5739 32.3861 35.5736C32.3703 35.5731 32.3428 35.5689 32.3146 35.5574C32.2875 35.5463 32.287 35.5396 32.3121 35.5622L34.3225 33.3355ZM30.8517 32.9482C28.6123 33.9941 26.3721 35.0379 24.1307 36.0789L25.3944 38.7998C27.638 37.7577 29.8802 36.713 32.1212 35.6663L30.8517 32.9482ZM24.1306 36.079C24.1066 36.0901 24.0707 36.104 23.9121 36.1581L24.8801 38.9976C25.0045 38.9552 25.1989 38.8906 25.3945 38.7998L24.1306 36.079ZM23.9121 36.1581C23.838 36.1833 23.7433 36.2156 23.6356 36.2546L24.6582 39.075C24.7354 39.047 24.8047 39.0233 24.8801 38.9976L23.9121 36.1581ZM25.6089 38.0006C25.6316 37.9015 25.6499 37.8159 25.6642 37.7487L22.7303 37.1223C22.7159 37.1902 22.702 37.2551 22.685 37.329L25.6089 38.0006ZM25.6642 37.7487C25.6945 37.607 25.7023 37.5755 25.709 37.5539L22.842 36.6704C22.7889 36.843 22.7541 37.011 22.7304 37.1223L25.6642 37.7487ZM25.7091 37.5536C26.0423 36.4716 26.1862 35.273 25.8505 34.0032L22.9502 34.77C23.1033 35.349 23.0621 35.9558 22.8419 36.6707L25.7091 37.5536ZM25.8506 34.0033C25.5245 32.7697 24.6116 31.5114 23.0985 31.3095L22.7017 34.2831C22.6616 34.2778 22.6743 34.2608 22.7311 34.3214C22.7931 34.3876 22.8864 34.5289 22.9502 34.7699L25.8506 34.0033ZM23.0983 31.3095C22.572 31.2393 21.9406 31.2975 21.3818 31.6634C20.7826 32.0557 20.4555 32.6806 20.3988 33.3442L23.3879 33.5996C23.3822 33.666 23.3599 33.7706 23.2936 33.887C23.2259 34.0057 23.1311 34.1039 23.0251 34.1733C22.8194 34.308 22.6699 34.2789 22.7019 34.2832L23.0983 31.3095ZM20.3988 33.3441C20.2799 34.7348 19.6952 35.9942 18.8136 37.343L21.3248 38.9843C22.3286 37.4485 23.2083 35.6993 23.3879 33.5998L20.3988 33.3441ZM18.8136 37.343L18.8076 37.3522L21.3188 38.9936L21.3248 38.9843L18.8136 37.343ZM18.8076 37.3522C18.2958 38.1353 17.6322 39.1357 17.2504 40.2542L20.0896 41.2232C20.3282 40.5242 20.7655 39.84 21.3188 38.9936L18.8076 37.3522ZM17.2504 40.2542C17.0797 40.7544 16.8198 41.0706 16.4286 41.3388L18.1253 43.813C19.0196 43.1997 19.6987 42.3685 20.0896 41.2231L17.2504 40.2542ZM10.8835 30.3913C10.8835 35.5209 12.9059 40.1814 16.1938 43.6135L18.3602 41.5383C15.5858 38.6421 13.8835 34.7171 13.8835 30.3913H10.8835ZM17.0876 43.0987C13.8677 39.8271 11.8835 35.3424 11.8835 30.3913H8.88354C8.88354 36.1612 11.1997 41.3931 14.9495 45.2031L17.0876 43.0987ZM11.8835 30.3913C11.8835 20.3859 19.9945 12.2749 30 12.2749V9.2749C18.3377 9.2749 8.88354 18.729 8.88354 30.3913H11.8835ZM30 12.2749C40.0054 12.2749 48.1164 20.3859 48.1164 30.3913H51.1164C51.1164 18.729 41.6622 9.2749 30 9.2749V12.2749ZM48.1164 30.3913C48.1164 40.3967 40.0054 48.5077 30 48.5077V51.5077C41.6622 51.5077 51.1164 42.0536 51.1164 30.3913H48.1164ZM30 48.5077C28.1955 48.5077 26.4552 48.2444 24.814 47.755L23.9567 50.6299C25.8731 51.2013 27.9021 51.5077 30 51.5077V48.5077ZM22.6924 51.0406C23.4082 50.9574 24.102 50.8224 24.7758 50.6407L23.9949 47.7441C23.4609 47.8881 22.9122 47.9948 22.3457 48.0607L22.6924 51.0406ZM20.7301 51.5462C21.497 51.2992 22.1027 51.1092 22.6924 51.0406L22.3457 48.0607C21.413 48.1693 20.5248 48.4605 19.8103 48.6907L20.7301 51.5462ZM20.2614 51.6958C20.4204 51.646 20.5785 51.595 20.7302 51.5462L19.8103 48.6907C19.6567 48.7402 19.5102 48.7874 19.3649 48.8329L20.2614 51.6958ZM17.9145 51.2008C18.0354 51.2723 18.3249 51.4463 18.6541 51.5781C18.9144 51.6824 19.5588 51.9157 20.2612 51.6959L19.3652 48.8328C19.4689 48.8003 19.558 48.79 19.6223 48.7877C19.6859 48.7855 19.7326 48.791 19.7577 48.7949C19.8024 48.8019 19.8091 48.809 19.7696 48.7932C19.7344 48.7791 19.6863 48.7564 19.6252 48.7237C19.5644 48.691 19.5071 48.6573 19.4409 48.6182L17.9145 51.2008ZM17.9071 51.1964L17.9147 51.201L19.4406 48.618L19.4329 48.6135L17.9071 51.1964ZM15.231 48.2902C15.491 48.8519 15.9274 49.4282 16.362 49.9001C16.8014 50.3772 17.3484 50.8663 17.9069 51.1964L19.4331 48.6136C19.2109 48.4823 18.8883 48.2148 18.5687 47.8678C18.2443 47.5155 18.0321 47.2 17.9534 47.0298L15.231 48.2902ZM14.5186 44.1772C14.5186 45.5743 14.5085 46.729 15.2309 48.29L17.9535 47.0301C17.5317 46.1186 17.5186 45.5542 17.5186 44.1772H14.5186ZM14.5186 44.1477C14.5186 44.1572 14.5186 44.167 14.5186 44.1772H17.5186C17.5186 44.1697 17.5186 44.162 17.5186 44.154L14.5186 44.1477Z" fill="#F8F9FA" mask="url(#path-1-outside-1_50_3744)"/>
<circle cx="30" cy="30.3911" r="18.6164" fill="#FFD43B" stroke="#212529" stroke-width="2" stroke-linecap="round" stroke-linejoin="round"/>
<g style="mix-blend-mode:multiply">
<path fill-rule="evenodd" clip-rule="evenodd" d="M27.9342 47.3438C37.7565 47.3438 45.7189 39.3813 45.7189 29.559C45.7189 22.4784 41.5811 16.3643 35.5917 13.5027C42.6744 15.8466 47.7847 22.5218 47.7847 30.3906C47.7847 40.2128 39.8222 48.1753 30 48.1753C27.2583 48.1753 24.6616 47.5549 22.3425 46.4469C24.1009 47.0288 25.9808 47.3438 27.9342 47.3438Z" fill="#FFD43B"/>
</g>
<g style="mix-blend-mode:soft-light" opacity="0.8">
<path d="M20.9719 19.1417C21.733 18.3676 20.8191 17.6247 19.9634 17.8209C19.2458 17.9855 17.4804 19.6541 16.5909 21.34C15.7014 23.026 17.0362 23.771 17.5534 23.1622C18.0705 22.5533 20.0206 20.1093 20.9719 19.1417Z" fill="#F8F9FA"/>
</g>
<g style="mix-blend-mode:multiply">
<path d="M33.1102 37.2339C34.0057 36.8308 33.7818 35.4615 33.5579 34.8271L26.2136 38.0357L25.0618 46.6276L28.1436 47.8416C28.7247 47.6133 29.9333 46.9745 30.4065 45.9286C30.943 44.7427 29.9793 43.6891 29.9793 43.6891C30.3547 42.3169 29.5756 41.5015 29.2954 40.9619C29.5125 40.6382 29.2954 39.8687 28.7637 39.2988C29.7525 38.8697 32.2146 37.6369 33.1102 37.2339Z" fill="#FFD43B"/>
</g>
<path fill-rule="evenodd" clip-rule="evenodd" d="M24.2755 37.1119C24.5522 36.2134 24.6447 35.3108 24.4003 34.3864C24.167 33.5036 23.6005 32.8895 22.9001 32.7961C22.3418 32.7216 21.9361 32.9707 21.8933 33.4717C21.7441 35.2168 21.0119 36.7211 20.0692 38.1634C19.5348 38.9811 18.9813 39.8262 18.67 40.7384C18.3317 41.7296 17.7195 42.3593 16.8605 42.8306C16.1032 43.2461 16.0185 43.3004 16.0185 44.177C16.0185 45.564 16.0201 46.4236 16.5921 47.6598C16.931 48.3916 17.8892 49.4434 18.67 49.9047C18.9275 50.0569 19.4598 50.3746 19.8131 50.2641C20.7037 49.9852 21.601 49.6572 22.519 49.5505C24.8273 49.2819 26.8774 48.4137 28.7909 47.1469C29.781 46.4915 30.024 45.4675 29.4427 44.4356C29.34 44.2531 29.3064 43.9889 29.3414 43.7792C29.4683 43.0183 29.3018 42.3743 28.7492 41.8175C28.6317 41.6991 28.5628 41.4535 28.5894 41.2849C28.6824 40.6964 28.5847 40.1616 28.2754 39.6588C27.9686 39.1601 27.9689 39.1588 28.5169 38.9029C29.9609 38.2285 31.4111 37.5668 32.8474 36.8766C33.884 36.3786 34.1112 35.1654 33.3173 34.4486C32.7511 33.9374 32.1263 34.008 31.4864 34.307C29.2462 35.3533 27.005 36.3976 24.7625 37.4391C24.5948 37.5171 24.4143 37.5676 24.1469 37.6646C24.204 37.416 24.2296 37.2608 24.2755 37.1119Z" fill="#FF922B"/>
<path d="M26.2195 23.1714C24.353 22.8758 21.7073 23.1412 19.8605 24.3632" stroke="#212529" stroke-width="1.99919" stroke-linecap="round"/>
<path d="M24.8925 29.499C23.7884 29.499 22.8934 28.1564 22.8934 26.5002C22.8934 24.8441 23.7884 23.5015 24.8925 23.5015C25.9967 23.5015 26.8917 24.8441 26.8917 26.5002C26.8917 28.1564 25.9967 29.499 24.8925 29.499Z" fill="#212529"/>
<path d="M26.8694 32.7256C28.6561 32.1104 32.421 31.5456 34.8793 33.4952" stroke="#212529" stroke-width="1.99919" stroke-linecap="round"/>
<path d="M32.4941 18.7842C35.1313 18.4556 38.4062 19.4787 40.1394 20.9701" stroke="#212529" stroke-width="1.99919" stroke-linecap="round"/>
<path d="M34.222 28.1665C33.1179 28.1665 32.2228 26.8239 32.2228 25.1677C32.2228 23.5115 33.1179 22.1689 34.222 22.1689C35.3261 22.1689 36.2212 23.5115 36.2212 25.1677C36.2212 26.8239 35.3261 28.1665 34.222 28.1665Z" fill="#212529"/>
</svg>
