<svg width="60" height="60" viewBox="0 0 60 60" fill="none" xmlns="http://www.w3.org/2000/svg">
<mask id="path-1-outside-1_50_10766" maskUnits="userSpaceOnUse" x="13.0948" y="4.88574" width="34" height="50" fill="black">
<rect fill="white" x="13.0948" y="4.88574" width="34" height="50"/>
<path fill-rule="evenodd" clip-rule="evenodd" d="M23.9487 8.68574C22.8314 8.68574 21.9227 9.58593 21.9122 10.7032L21.7087 32.3344C21.7041 32.8315 21.2974 33.2306 20.8003 33.2259C20.3033 33.2213 19.9041 32.8145 19.9088 32.3175L19.9623 26.633C19.067 27.3379 18.3521 28.2756 17.8654 29.0043C16.887 30.4692 16.7365 32.1899 17.0256 33.9487C17.3157 35.7135 18.0358 37.4299 18.6903 38.7881C19.8715 41.2396 21.6597 43.5333 23.7053 45.2617C23.8569 45.1648 24.0354 45.1148 24.2179 45.1205L39.3665 45.5918C40.3273 44.9713 41.0495 44.0736 41.4394 42.7589C42.4586 39.322 42.8694 35.6283 43.0224 32.7749C43.0987 31.3524 43.1104 30.1477 43.1032 29.3003C43.1013 29.0793 43.0981 28.8827 43.0945 28.7131C43.0779 28.6448 43.0691 28.5734 43.0691 28.5V27.9321V27.9247V25.751C43.0691 24.8515 42.3399 24.1223 41.4404 24.1223C40.5409 24.1223 39.8117 24.8515 39.8117 25.751V28.0218L39.8117 28.0293V28.1106C39.8117 28.6076 39.4088 29.0106 38.9117 29.0106C38.4147 29.0106 38.0117 28.6076 38.0117 28.1106V24.1412C38.0117 23.0163 37.0998 22.1044 35.9749 22.1044C34.8537 22.1044 33.9442 23.0102 33.9381 24.1299V27.9387C33.9381 27.9412 33.9381 27.9437 33.9381 27.9462V28.1106C33.9381 28.6076 33.5351 29.0106 33.0381 29.0106C32.541 29.0106 32.1381 28.6076 32.1381 28.1106V24.1412C32.1381 24.1362 32.1381 24.1312 32.1381 24.1262V22.906C32.1381 21.7811 31.2262 20.8692 30.1013 20.8692C28.9764 20.8692 28.0644 21.7811 28.0644 22.906V27.9387C28.0644 27.9835 28.0612 28.0276 28.0548 28.0706L28.0643 28.6807C28.072 29.1777 27.6754 29.5868 27.1784 29.5946C26.6814 29.6023 26.2722 29.2056 26.2645 28.7086L25.985 10.6908C25.9678 9.57842 25.0611 8.68574 23.9487 8.68574ZM27.9257 19.7452L27.7848 10.6628C27.7523 8.56739 26.0444 6.88574 23.9487 6.88574C21.8439 6.88574 20.132 8.58154 20.1122 10.6863L19.9822 24.517C19.8965 24.5368 19.8123 24.5695 19.7323 24.6159C18.1491 25.5347 17.0074 27.0481 16.3686 28.0045C15.0503 29.9784 14.9161 32.2129 15.2494 34.2407C15.5818 36.2623 16.3913 38.1638 17.0687 39.5695C18.4595 42.4559 20.6102 45.1318 23.0731 47.0683C23.1439 47.124 23.2162 47.1778 23.2899 47.2299V49.7203C23.2899 50.9669 24.1034 52.1274 25.4031 52.4083C26.7316 52.6955 28.8944 53.0499 31.6633 53.1094C34.6574 53.1738 37.0799 52.6571 38.4878 52.2561C39.6947 51.9124 40.4043 50.7995 40.4043 49.6388V47.0626C41.6469 46.2428 42.642 45.0345 43.1651 43.2706C44.2404 39.6447 44.663 35.7953 44.8198 32.8713C44.8984 31.4053 44.9106 30.1627 44.9031 29.285C44.8994 28.8459 44.8907 28.4977 44.8829 28.2579C44.879 28.138 44.8753 28.0451 44.8725 27.9815L44.8692 27.9084L44.8691 27.9064V25.751C44.8691 23.8574 43.334 22.3223 41.4404 22.3223C40.7603 22.3223 40.1264 22.5204 39.5933 22.8619C39.0665 21.3719 37.6453 20.3044 35.9749 20.3044C35.0461 20.3044 34.1944 20.6344 33.5307 21.1835C32.8996 19.9295 31.6009 19.0692 30.1013 19.0692C29.2934 19.0692 28.5439 19.3188 27.9257 19.7452ZM25.0899 48.1015C25.5513 48.2498 26.0449 48.3658 26.5685 48.457C27.9575 48.6989 29.6254 48.7763 31.5844 48.7763C33.7268 48.7763 36.1981 48.7269 38.3199 48.0422C38.4153 48.0114 38.5102 47.9792 38.6043 47.9457V49.6388C38.6043 50.0913 38.3395 50.4268 37.9948 50.525C36.7123 50.8903 34.473 51.3694 31.702 51.3098C29.0653 51.2531 27.0179 50.9158 25.7834 50.6489C25.392 50.5644 25.0899 50.2038 25.0899 49.7203V48.1015Z"/>
</mask>
<path fill-rule="evenodd" clip-rule="evenodd" d="M23.9487 8.68574C22.8314 8.68574 21.9227 9.58593 21.9122 10.7032L21.7087 32.3344C21.7041 32.8315 21.2974 33.2306 20.8003 33.2259C20.3033 33.2213 19.9041 32.8145 19.9088 32.3175L19.9623 26.633C19.067 27.3379 18.3521 28.2756 17.8654 29.0043C16.887 30.4692 16.7365 32.1899 17.0256 33.9487C17.3157 35.7135 18.0358 37.4299 18.6903 38.7881C19.8715 41.2396 21.6597 43.5333 23.7053 45.2617C23.8569 45.1648 24.0354 45.1148 24.2179 45.1205L39.3665 45.5918C40.3273 44.9713 41.0495 44.0736 41.4394 42.7589C42.4586 39.322 42.8694 35.6283 43.0224 32.7749C43.0987 31.3524 43.1104 30.1477 43.1032 29.3003C43.1013 29.0793 43.0981 28.8827 43.0945 28.7131C43.0779 28.6448 43.0691 28.5734 43.0691 28.5V27.9321V27.9247V25.751C43.0691 24.8515 42.3399 24.1223 41.4404 24.1223C40.5409 24.1223 39.8117 24.8515 39.8117 25.751V28.0218L39.8117 28.0293V28.1106C39.8117 28.6076 39.4088 29.0106 38.9117 29.0106C38.4147 29.0106 38.0117 28.6076 38.0117 28.1106V24.1412C38.0117 23.0163 37.0998 22.1044 35.9749 22.1044C34.8537 22.1044 33.9442 23.0102 33.9381 24.1299V27.9387C33.9381 27.9412 33.9381 27.9437 33.9381 27.9462V28.1106C33.9381 28.6076 33.5351 29.0106 33.0381 29.0106C32.541 29.0106 32.1381 28.6076 32.1381 28.1106V24.1412C32.1381 24.1362 32.1381 24.1312 32.1381 24.1262V22.906C32.1381 21.7811 31.2262 20.8692 30.1013 20.8692C28.9764 20.8692 28.0644 21.7811 28.0644 22.906V27.9387C28.0644 27.9835 28.0612 28.0276 28.0548 28.0706L28.0643 28.6807C28.072 29.1777 27.6754 29.5868 27.1784 29.5946C26.6814 29.6023 26.2722 29.2056 26.2645 28.7086L25.985 10.6908C25.9678 9.57842 25.0611 8.68574 23.9487 8.68574ZM27.9257 19.7452L27.7848 10.6628C27.7523 8.56739 26.0444 6.88574 23.9487 6.88574C21.8439 6.88574 20.132 8.58154 20.1122 10.6863L19.9822 24.517C19.8965 24.5368 19.8123 24.5695 19.7323 24.6159C18.1491 25.5347 17.0074 27.0481 16.3686 28.0045C15.0503 29.9784 14.9161 32.2129 15.2494 34.2407C15.5818 36.2623 16.3913 38.1638 17.0687 39.5695C18.4595 42.4559 20.6102 45.1318 23.0731 47.0683C23.1439 47.124 23.2162 47.1778 23.2899 47.2299V49.7203C23.2899 50.9669 24.1034 52.1274 25.4031 52.4083C26.7316 52.6955 28.8944 53.0499 31.6633 53.1094C34.6574 53.1738 37.0799 52.6571 38.4878 52.2561C39.6947 51.9124 40.4043 50.7995 40.4043 49.6388V47.0626C41.6469 46.2428 42.642 45.0345 43.1651 43.2706C44.2404 39.6447 44.663 35.7953 44.8198 32.8713C44.8984 31.4053 44.9106 30.1627 44.9031 29.285C44.8994 28.8459 44.8907 28.4977 44.8829 28.2579C44.879 28.138 44.8753 28.0451 44.8725 27.9815L44.8692 27.9084L44.8691 27.9064V25.751C44.8691 23.8574 43.334 22.3223 41.4404 22.3223C40.7603 22.3223 40.1264 22.5204 39.5933 22.8619C39.0665 21.3719 37.6453 20.3044 35.9749 20.3044C35.0461 20.3044 34.1944 20.6344 33.5307 21.1835C32.8996 19.9295 31.6009 19.0692 30.1013 19.0692C29.2934 19.0692 28.5439 19.3188 27.9257 19.7452ZM25.0899 48.1015C25.5513 48.2498 26.0449 48.3658 26.5685 48.457C27.9575 48.6989 29.6254 48.7763 31.5844 48.7763C33.7268 48.7763 36.1981 48.7269 38.3199 48.0422C38.4153 48.0114 38.5102 47.9792 38.6043 47.9457V49.6388C38.6043 50.0913 38.3395 50.4268 37.9948 50.525C36.7123 50.8903 34.473 51.3694 31.702 51.3098C29.0653 51.2531 27.0179 50.9158 25.7834 50.6489C25.392 50.5644 25.0899 50.2038 25.0899 49.7203V48.1015Z" fill="#F8F9FA"/>
<path d="M21.9122 10.7032L20.4122 10.6891L21.9122 10.7032ZM21.7087 32.3344L20.2088 32.3203L20.2088 32.3203L21.7087 32.3344ZM19.9088 32.3175L18.4089 32.3034L18.4089 32.3034L19.9088 32.3175ZM19.9623 26.633L21.4622 26.6471C21.4676 26.0701 21.1416 25.5411 20.6236 25.2867C20.1057 25.0323 19.4877 25.0975 19.0343 25.4545L19.9623 26.633ZM17.8654 29.0043L19.1128 29.8374L19.1128 29.8374L17.8654 29.0043ZM17.0256 33.9487L18.5057 33.7054L18.5057 33.7054L17.0256 33.9487ZM18.6903 38.7881L17.339 39.4393L17.339 39.4393L18.6903 38.7881ZM23.7053 45.2617L22.7373 46.4075C23.2393 46.8316 23.9591 46.8796 24.5129 46.5257L23.7053 45.2617ZM24.2179 45.1205L24.1713 46.6198L24.1713 46.6198L24.2179 45.1205ZM39.3665 45.5918L39.3199 47.0911C39.6243 47.1006 39.9244 47.0171 40.1803 46.8519L39.3665 45.5918ZM41.4394 42.7589L40.0013 42.3324L40.0013 42.3324L41.4394 42.7589ZM43.0224 32.7749L44.5202 32.8553L44.5202 32.8553L43.0224 32.7749ZM43.1032 29.3003L41.6033 29.3131L41.6033 29.3131L43.1032 29.3003ZM43.0945 28.7131L44.5941 28.6808C44.5918 28.5723 44.5777 28.4645 44.5521 28.3591L43.0945 28.7131ZM39.8117 28.0218L41.3117 28.0279V28.0218H39.8117ZM39.8117 28.0293L38.3117 28.0232V28.0293H39.8117ZM33.9381 24.1299L32.4381 24.1218V24.1299H33.9381ZM33.9381 27.9462L32.4381 27.9336V27.9462H33.9381ZM32.1381 24.1262L33.6381 24.132V24.1262H32.1381ZM28.0548 28.0706L26.5708 27.8526C26.559 27.9325 26.5538 28.0132 26.555 28.0939L28.0548 28.0706ZM28.0643 28.6807L26.5645 28.704L26.5645 28.704L28.0643 28.6807ZM27.1784 29.5946L27.1551 28.0947L27.1551 28.0947L27.1784 29.5946ZM26.2645 28.7086L24.7647 28.7319L24.7647 28.7319L26.2645 28.7086ZM25.985 10.6908L27.4848 10.6675L27.4848 10.6675L25.985 10.6908ZM27.9257 19.7452L26.4259 19.7684C26.4345 20.3216 26.7468 20.8252 27.2386 21.0786C27.7304 21.332 28.3218 21.2941 28.7772 20.98L27.9257 19.7452ZM27.7848 10.6628L26.285 10.6861L26.285 10.6861L27.7848 10.6628ZM20.1122 10.6863L18.6123 10.6722L18.6123 10.6722L20.1122 10.6863ZM19.9822 24.517L20.319 25.9787C20.9947 25.823 21.4756 25.2245 21.4821 24.5311L19.9822 24.517ZM19.7323 24.6159L18.9794 23.3186L18.9794 23.3186L19.7323 24.6159ZM16.3686 28.0045L17.616 28.8377L17.616 28.8377L16.3686 28.0045ZM15.2494 34.2407L16.7296 33.9973L16.7296 33.9973L15.2494 34.2407ZM17.0687 39.5695L18.42 38.9184L18.42 38.9184L17.0687 39.5695ZM23.0731 47.0683L24.0003 45.8892L24.0003 45.8892L23.0731 47.0683ZM23.2899 47.2299H24.7899C24.7899 46.7429 24.5534 46.2862 24.1557 46.005L23.2899 47.2299ZM25.4031 52.4083L25.72 50.9422L25.72 50.9422L25.4031 52.4083ZM31.6633 53.1094L31.6955 51.6097L31.6955 51.6097L31.6633 53.1094ZM38.4878 52.2561L38.0769 50.8135L38.0769 50.8135L38.4878 52.2561ZM40.4043 47.0626L39.5783 45.8105C39.1576 46.0881 38.9043 46.5585 38.9043 47.0626H40.4043ZM43.1651 43.2706L41.727 42.8442L41.727 42.8442L43.1651 43.2706ZM44.8198 32.8713L43.3219 32.791L43.3219 32.791L44.8198 32.8713ZM44.9031 29.285L43.4032 29.2978L43.4032 29.2978L44.9031 29.285ZM44.8829 28.2579L46.3821 28.209L46.3821 28.209L44.8829 28.2579ZM44.8725 27.9815L46.3711 27.9166L46.371 27.9132L44.8725 27.9815ZM44.8692 27.9084L46.3676 27.84L46.3674 27.8342L44.8692 27.9084ZM44.8691 27.9064H43.3691C43.3691 27.9312 43.3697 27.9559 43.3709 27.9806L44.8691 27.9064ZM39.5933 22.8619L38.1791 23.3619C38.3317 23.7937 38.6732 24.1321 39.1064 24.2807C39.5395 24.4294 40.0169 24.372 40.4025 24.1249L39.5933 22.8619ZM33.5307 21.1835L32.1908 21.8578C32.396 22.2657 32.7759 22.5579 33.2228 22.6516C33.6698 22.7453 34.135 22.6304 34.4868 22.3393L33.5307 21.1835ZM26.5685 48.457L26.8258 46.9793L26.8258 46.9793L26.5685 48.457ZM25.0899 48.1015L25.5488 46.6734C25.0925 46.5268 24.5936 46.6071 24.2063 46.8894C23.819 47.1718 23.5899 47.6222 23.5899 48.1015H25.0899ZM38.3199 48.0422L38.7806 49.4697L38.7806 49.4697L38.3199 48.0422ZM38.6043 47.9457H40.1043C40.1043 47.4583 39.8675 47.0012 39.4692 46.7201C39.0709 46.4391 38.5609 46.3691 38.1016 46.5325L38.6043 47.9457ZM37.9948 50.525L37.5839 49.0824L37.5839 49.0824L37.9948 50.525ZM31.702 51.3098L31.7342 49.8102L31.7342 49.8102L31.702 51.3098ZM25.7834 50.6489L25.4665 52.1151L25.4665 52.1151L25.7834 50.6489ZM23.4121 10.7173C23.4149 10.4229 23.6543 10.1857 23.9487 10.1857V7.18574C22.0084 7.18574 20.4305 8.74893 20.4122 10.6891L23.4121 10.7173ZM23.2087 32.3485L23.4121 10.7173L20.4122 10.6891L20.2088 32.3203L23.2087 32.3485ZM20.7862 34.7259C22.1116 34.7383 23.1962 33.674 23.2087 32.3485L20.2088 32.3203C20.2119 31.989 20.4831 31.7229 20.8144 31.726L20.7862 34.7259ZM18.4089 32.3034C18.3964 33.6288 19.4608 34.7134 20.7862 34.7259L20.8144 31.726C21.1458 31.7291 21.4119 32.0003 21.4088 32.3316L18.4089 32.3034ZM18.4623 26.6189L18.4089 32.3034L21.4088 32.3316L21.4622 26.6471L18.4623 26.6189ZM19.1128 29.8374C19.5653 29.1599 20.1769 28.3732 20.8902 27.8116L19.0343 25.4545C17.9571 26.3027 17.139 27.3913 16.6181 28.1712L19.1128 29.8374ZM18.5057 33.7054C18.2536 32.1717 18.4173 30.8788 19.1128 29.8374L16.6181 28.1712C15.3567 30.0597 15.2193 32.2082 15.5455 34.192L18.5057 33.7054ZM20.0416 38.137C19.4061 36.8182 18.7606 35.256 18.5057 33.7054L15.5455 34.192C15.8708 36.171 16.6655 38.0416 17.339 39.4393L20.0416 38.137ZM24.6734 44.1159C22.7876 42.5226 21.1306 40.3971 20.0416 38.137L17.339 39.4393C18.6125 42.0822 20.5317 44.544 22.7373 46.4075L24.6734 44.1159ZM24.2646 43.6212C23.7777 43.6061 23.3019 43.7395 22.8978 43.9976L24.5129 46.5257C24.412 46.5902 24.2931 46.6236 24.1713 46.6198L24.2646 43.6212ZM39.4132 44.0925L24.2645 43.6212L24.1713 46.6198L39.3199 47.0911L39.4132 44.0925ZM40.0013 42.3324C39.7133 43.3033 39.2128 43.9055 38.5528 44.3317L40.1803 46.8519C41.4418 46.0372 42.3856 44.8439 42.8775 43.1853L40.0013 42.3324ZM41.5245 32.6946C41.3747 35.4891 40.9737 39.0531 40.0013 42.3324L42.8775 43.1853C43.9434 39.5909 44.3641 35.7675 44.5202 32.8553L41.5245 32.6946ZM41.6033 29.3131C41.6103 30.1351 41.5989 31.3083 41.5245 32.6946L44.5202 32.8553C44.5985 31.3964 44.6106 30.1602 44.6032 29.2875L41.6033 29.3131ZM41.5948 28.7454C41.5984 28.9088 41.6014 29.0989 41.6033 29.3131L44.6032 29.2875C44.6012 29.0597 44.5979 28.8566 44.5941 28.6808L41.5948 28.7454ZM41.5691 28.5C41.5691 28.6936 41.5923 28.8837 41.6368 29.0671L44.5521 28.3591C44.5635 28.4058 44.5691 28.4532 44.5691 28.5H41.5691ZM41.5691 27.9321V28.5H44.5691V27.9321H41.5691ZM41.5691 27.9247V27.9321H44.5691V27.9247H41.5691ZM41.5691 25.751V27.9247H44.5691V25.751H41.5691ZM41.4404 25.6223C41.5115 25.6223 41.5691 25.6799 41.5691 25.751H44.5691C44.5691 24.0231 43.1683 22.6223 41.4404 22.6223V25.6223ZM41.3117 25.751C41.3117 25.6799 41.3694 25.6223 41.4404 25.6223V22.6223C39.7125 22.6223 38.3117 24.0231 38.3117 25.751H41.3117ZM41.3117 28.0218V25.751H38.3117V28.0218H41.3117ZM41.3117 28.0354L41.3117 28.0279L38.3118 28.0157L38.3117 28.0232L41.3117 28.0354ZM41.3117 28.1106V28.0293H38.3117V28.1106H41.3117ZM38.9117 30.5106C40.2372 30.5106 41.3117 29.4361 41.3117 28.1106H38.3117C38.3117 27.7792 38.5803 27.5106 38.9117 27.5106V30.5106ZM36.5117 28.1106C36.5117 29.4361 37.5862 30.5106 38.9117 30.5106V27.5106C39.2431 27.5106 39.5117 27.7792 39.5117 28.1106H36.5117ZM36.5117 24.1412V28.1106H39.5117V24.1412H36.5117ZM35.9749 23.6044C36.2714 23.6044 36.5117 23.8447 36.5117 24.1412H39.5117C39.5117 22.1879 37.9282 20.6044 35.9749 20.6044V23.6044ZM35.4381 24.1381C35.4397 23.8431 35.6794 23.6044 35.9749 23.6044V20.6044C34.028 20.6044 32.4486 22.1773 32.4381 24.1218L35.4381 24.1381ZM32.4381 24.1299V27.9387H35.4381V24.1299H32.4381ZM32.4381 27.9387C32.4381 27.9374 32.4381 27.9357 32.4381 27.9336L35.438 27.9588C35.4381 27.9517 35.4381 27.945 35.4381 27.9387H32.4381ZM35.4381 28.1106V27.9462H32.4381V28.1106H35.4381ZM33.0381 30.5106C34.3635 30.5106 35.4381 29.4361 35.4381 28.1106H32.4381C32.4381 27.7792 32.7067 27.5106 33.0381 27.5106V30.5106ZM30.6381 28.1106C30.6381 29.4361 31.7126 30.5106 33.0381 30.5106V27.5106C33.3694 27.5106 33.6381 27.7792 33.6381 28.1106H30.6381ZM30.6381 24.1412V28.1106H33.6381V24.1412H30.6381ZM30.6381 24.1205C30.6381 24.1274 30.6381 24.1343 30.6381 24.1412H33.6381C33.6381 24.1381 33.6381 24.135 33.6381 24.132L30.6381 24.1205ZM33.6381 24.1262V22.906H30.6381V24.1262H33.6381ZM33.6381 22.906C33.6381 20.9527 32.0546 19.3692 30.1013 19.3692V22.3692C30.3977 22.3692 30.6381 22.6095 30.6381 22.906H33.6381ZM30.1013 19.3692C28.1479 19.3692 26.5644 20.9527 26.5644 22.906H29.5644C29.5644 22.6095 29.8048 22.3692 30.1013 22.3692V19.3692ZM26.5644 22.906V27.9387H29.5644V22.906H26.5644ZM26.5644 27.9387C26.5644 27.9104 26.5665 27.8815 26.5708 27.8526L29.5389 28.2886C29.5558 28.1736 29.5644 28.0567 29.5644 27.9387H26.5644ZM29.5641 28.6574L29.5547 28.0474L26.555 28.0939L26.5645 28.704L29.5641 28.6574ZM27.2016 31.0944C28.527 31.0738 29.5847 29.9828 29.5641 28.6574L26.5645 28.704C26.5593 28.3726 26.8238 28.0999 27.1551 28.0947L27.2016 31.0944ZM24.7647 28.7319C24.7853 30.0572 25.8763 31.1149 27.2016 31.0944L27.1551 28.0947C27.4864 28.0896 27.7592 28.354 27.7643 28.6854L24.7647 28.7319ZM24.4852 10.714L24.7647 28.7319L27.7643 28.6854L27.4848 10.6675L24.4852 10.714ZM23.9487 10.1857C24.2418 10.1857 24.4807 10.4209 24.4852 10.714L27.4848 10.6675C27.4549 8.7359 25.8805 7.18574 23.9487 7.18574V10.1857ZM29.4255 19.7219L29.2846 10.6396L26.285 10.6861L26.4259 19.7684L29.4255 19.7219ZM29.2846 10.6396C29.2394 7.72487 26.8637 5.38574 23.9487 5.38574V8.38574C25.225 8.38574 26.2652 9.40992 26.285 10.6861L29.2846 10.6396ZM23.9487 5.38574C21.0209 5.38574 18.6398 7.74454 18.6123 10.6722L21.6122 10.7004C21.6242 9.41853 22.6668 8.38574 23.9487 8.38574V5.38574ZM18.6123 10.6722L18.4822 24.5029L21.4821 24.5311L21.6122 10.7004L18.6123 10.6722ZM19.6454 23.0553C19.4152 23.1084 19.1906 23.196 18.9794 23.3186L20.4852 25.9133C20.4341 25.943 20.3778 25.9652 20.319 25.9787L19.6454 23.0553ZM18.9794 23.3186C17.0881 24.4161 15.7901 26.1701 15.1212 27.1714L17.616 28.8377C18.2248 27.9261 19.21 26.6533 20.4852 25.9133L18.9794 23.3186ZM15.1212 27.1714C13.5194 29.5697 13.3992 32.2326 13.7693 34.484L16.7296 33.9973C16.433 32.1931 16.5811 30.387 17.616 28.8377L15.1212 27.1714ZM13.7693 34.484C14.1368 36.7196 15.0209 38.7751 15.7174 40.2206L18.42 38.9184C17.7618 37.5524 17.0267 35.8051 16.7296 33.9973L13.7693 34.484ZM15.7174 40.2206C17.2065 43.311 19.5015 46.1682 22.146 48.2475L24.0003 45.8892C21.7189 44.0954 19.7125 41.6007 18.42 38.9184L15.7174 40.2206ZM22.146 48.2475C22.2372 48.3192 22.3299 48.3883 22.4241 48.4549L24.1557 46.005C24.1025 45.9674 24.0507 45.9288 24.0003 45.8892L22.146 48.2475ZM21.7899 47.2299V49.7203H24.7899V47.2299H21.7899ZM21.7899 49.7203C21.7899 51.5979 23.0252 53.429 25.0862 53.8745L25.72 50.9422C25.1817 50.8258 24.7899 50.3359 24.7899 49.7203H21.7899ZM25.0862 53.8745C26.4931 54.1785 28.752 54.5471 31.631 54.6091L31.6955 51.6097C29.0368 51.5526 26.9702 51.2124 25.72 50.9422L25.0862 53.8745ZM31.631 54.6091C34.811 54.6774 37.3862 54.1295 38.8987 53.6988L38.0769 50.8135C36.7736 51.1847 34.5037 51.6701 31.6955 51.6097L31.631 54.6091ZM38.8987 53.6988C40.8285 53.1491 41.9043 51.3845 41.9043 49.6388H38.9043C38.9043 50.2144 38.5609 50.6757 38.0769 50.8135L38.8987 53.6988ZM41.9043 49.6388V47.0626H38.9043V49.6388H41.9043ZM41.2303 48.3146C42.7566 47.3078 43.9759 45.8123 44.6032 43.6971L41.727 42.8442C41.3081 44.2567 40.5373 45.1779 39.5783 45.8105L41.2303 48.3146ZM44.6032 43.6971C45.7252 39.9136 46.1577 35.9345 46.3176 32.9517L43.3219 32.791C43.1683 35.6561 42.7555 39.3758 41.727 42.8442L44.6032 43.6971ZM46.3176 32.9517C46.3982 31.4494 46.4108 30.1753 46.4031 29.2722L43.4032 29.2978C43.4105 30.1502 43.3986 31.3612 43.3219 32.791L46.3176 32.9517ZM46.4031 29.2722C46.3992 28.8202 46.3903 28.4599 46.3821 28.209L43.3837 28.3068C43.3911 28.5355 43.3996 28.8717 43.4032 29.2978L46.4031 29.2722ZM46.3821 28.209C46.378 28.0835 46.3741 27.9853 46.3711 27.9166L43.3739 28.0465C43.3765 28.1049 43.38 28.1924 43.3837 28.3068L46.3821 28.209ZM46.371 27.9132L46.3676 27.84L43.3708 27.9768L43.3741 28.0499L46.371 27.9132ZM46.3674 27.8342L46.3673 27.8322L43.3709 27.9806L43.371 27.9826L46.3674 27.8342ZM46.3691 27.9064V25.751H43.3691V27.9064H46.3691ZM46.3691 25.751C46.3691 23.029 44.1625 20.8223 41.4404 20.8223V23.8223C42.5056 23.8223 43.3691 24.6858 43.3691 25.751H46.3691ZM41.4404 20.8223C40.465 20.8223 39.5515 21.1072 38.7841 21.5989L40.4025 24.1249C40.7013 23.9335 41.0556 23.8223 41.4404 23.8223V20.8223ZM41.0075 22.3619C40.2754 20.2914 38.3007 18.8044 35.9749 18.8044V21.8044C36.9899 21.8044 37.8575 22.4524 38.1791 23.3619L41.0075 22.3619ZM35.9749 18.8044C34.6843 18.8044 33.4972 19.2644 32.5745 20.0278L34.4868 22.3393C34.8916 22.0044 35.4079 21.8044 35.9749 21.8044V18.8044ZM30.1013 20.5692C31.0124 20.5692 31.8045 21.0904 32.1908 21.8578L34.8706 20.5092C33.9946 18.7686 32.1893 17.5692 30.1013 17.5692V20.5692ZM28.7772 20.98C29.1531 20.7208 29.6072 20.5692 30.1013 20.5692V17.5692C28.9797 17.5692 27.9348 17.9168 27.0741 18.5103L28.7772 20.98ZM26.8258 46.9793C26.3561 46.8975 25.9317 46.7965 25.5488 46.6734L24.631 49.5296C25.171 49.7031 25.7337 49.8342 26.3112 49.9348L26.8258 46.9793ZM31.5844 47.2763C29.6492 47.2763 28.0849 47.1985 26.8258 46.9793L26.3112 49.9348C27.8301 50.1993 29.6016 50.2763 31.5844 50.2763V47.2763ZM37.8592 46.6147C35.9923 47.2172 33.747 47.2763 31.5844 47.2763V50.2763C33.7066 50.2763 36.4039 50.2367 38.7806 49.4697L37.8592 46.6147ZM38.1016 46.5325C38.0217 46.5609 37.9409 46.5883 37.8592 46.6147L38.7806 49.4697C38.8898 49.4344 38.9986 49.3976 39.1071 49.359L38.1016 46.5325ZM40.1043 49.6388V47.9457H37.1043V49.6388H40.1043ZM38.4056 51.9676C39.4552 51.6687 40.1043 50.6967 40.1043 49.6388H37.1043C37.1043 49.4859 37.2238 49.1849 37.5839 49.0824L38.4056 51.9676ZM31.6697 52.8095C34.6266 52.8731 37.0186 52.3627 38.4056 51.9676L37.5839 49.0824C36.4059 49.4178 34.3194 49.8658 31.7342 49.8102L31.6697 52.8095ZM25.4665 52.1151C26.7793 52.3988 28.9229 52.7504 31.6697 52.8095L31.7342 49.8102C29.2077 49.7558 27.2564 49.4327 26.1002 49.1828L25.4665 52.1151ZM23.5899 49.7203C23.5899 50.8543 24.3316 51.8698 25.4665 52.1151L26.1002 49.1828C26.4523 49.2589 26.5899 49.5532 26.5899 49.7203H23.5899ZM23.5899 48.1015V49.7203H26.5899V48.1015H23.5899Z" fill="#F8F9FA" mask="url(#path-1-outside-1_50_10766)"/>
<path d="M38.2416 51.39C36.8964 51.7731 34.5654 52.271 31.6829 52.2091C28.9801 52.1509 26.875 51.8051 25.5935 51.5281C24.748 51.3453 24.1902 50.5848 24.1902 49.7198V46.0195L39.5046 46.496V49.6382C39.5046 50.4448 39.0173 51.169 38.2416 51.39Z" fill="#F8F9FA" stroke="#212529" stroke-width="1.8" stroke-linecap="round" stroke-linejoin="round"/>
<path fill-rule="evenodd" clip-rule="evenodd" d="M20.1843 25.3936C18.786 26.205 17.7383 27.5738 17.1172 28.5036C14.8205 31.9424 16.5478 36.4141 17.8797 39.178C19.2116 41.942 21.2756 44.5091 23.6296 46.36C25.1619 47.5648 27.6951 47.8755 31.5846 47.8755C35.8946 47.8755 40.9263 47.6543 42.3024 43.014C44.3969 35.9511 43.9693 27.9279 43.9693 27.9279" fill="#FFD8A8"/>
<path d="M20.1843 25.3936C18.786 26.205 17.7383 27.5738 17.1172 28.5036C14.8205 31.9424 16.5478 36.4141 17.8797 39.178C19.2116 41.942 21.2756 44.5091 23.6296 46.36C25.1619 47.5648 27.6951 47.8755 31.5846 47.8755C35.8946 47.8755 40.9263 47.6543 42.3024 43.014C44.3969 35.9511 43.9693 27.9279 43.9693 27.9279" stroke="#212529" stroke-width="1.8" stroke-linecap="round" stroke-linejoin="round"/>
<g style="mix-blend-mode:soft-light" opacity="0.6">
<path d="M20.961 38.5272C20.5928 39.101 21.3353 40.5526 22.0356 41.5072C22.7518 42.4834 24.0069 43.8261 24.5191 43.3244C25.0312 42.8227 23.4497 41.0642 23.0036 40.6625C22.2216 39.8165 21.3293 37.9535 20.961 38.5272Z" fill="#F8F9FA"/>
</g>
<path fill-rule="evenodd" clip-rule="evenodd" d="M33.0383 28.1103V24.1409C33.0383 22.519 34.3532 21.2041 35.9752 21.2041V21.2041C37.5971 21.2041 38.912 22.519 38.912 24.1409V28.1103" fill="#FFD8A8"/>
<path d="M33.0383 28.1103V24.1409C33.0383 22.519 34.3532 21.2041 35.9752 21.2041V21.2041C37.5971 21.2041 38.912 22.519 38.912 24.1409V28.1103" stroke="#212529" stroke-width="1.8" stroke-linecap="round" stroke-linejoin="round"/>
<path fill-rule="evenodd" clip-rule="evenodd" d="M38.912 28.0211L38.912 25.7504C38.912 24.3538 40.0441 23.2217 41.4407 23.2217V23.2217C42.8372 23.2217 43.9693 24.3538 43.9693 25.7504V28.4993" fill="#FFD8A8"/>
<path d="M38.912 28.0211L38.912 25.7504C38.912 24.3538 40.0441 23.2217 41.4407 23.2217V23.2217C42.8372 23.2217 43.9693 24.3538 43.9693 25.7504V28.4993" stroke="#212529" stroke-width="1.8" stroke-linecap="round" stroke-linejoin="round"/>
<path fill-rule="evenodd" clip-rule="evenodd" d="M20.809 32.3254L21.0124 10.6941C21.0276 9.08315 22.3378 7.78516 23.9489 7.78516V7.78516C25.553 7.78516 26.8602 9.07232 26.8851 10.6762L27.1646 28.6941" fill="#FFD8A8"/>
<path d="M20.809 32.3254L21.0124 10.6941C21.0276 9.08315 22.3378 7.78516 23.9489 7.78516V7.78516C25.553 7.78516 26.8602 9.07232 26.8851 10.6762L27.1646 28.6941" stroke="#212529" stroke-width="1.8" stroke-linecap="round" stroke-linejoin="round"/>
<path fill-rule="evenodd" clip-rule="evenodd" d="M27.1647 27.9383V22.9056C27.1647 21.2836 28.4795 19.9688 30.1015 19.9688V19.9688C31.7235 19.9688 33.0383 21.2836 33.0383 22.9056V27.9383" fill="#FFD8A8"/>
<path d="M27.1647 27.9383V22.9056C27.1647 21.2836 28.4795 19.9688 30.1015 19.9688V19.9688C31.7235 19.9688 33.0383 21.2836 33.0383 22.9056V27.9383" stroke="#212529" stroke-width="1.8" stroke-linecap="round" stroke-linejoin="round"/>
<g style="mix-blend-mode:multiply">
<path d="M41.204 39.474C42.0621 35.6993 42.3016 28.81 42.3016 24.0078C42.6599 24.1614 42.8059 24.7472 43.3586 26.5284C43.9114 28.3095 43.2501 36.1727 42.7895 39.474C42.4312 41.0095 41.6988 43.9818 40.7161 45.0259C39.7334 46.0701 37.4429 47.049 36.368 47.2282C39.8996 45.0785 40.5624 42.2961 41.204 39.474Z" fill="#DEE2E6"/>
</g>
<g style="mix-blend-mode:multiply">
<path d="M37.6188 47.9399L38.7368 47.8428V50.3816L37.6188 50.6875V47.9399Z" fill="#DEE2E6"/>
</g>
<g style="mix-blend-mode:multiply">
<path d="M38.2723 22.6877L37.5213 22.4727V28.0933L38.2723 28.7705V22.6877Z" fill="#DEE2E6"/>
</g>
<g style="mix-blend-mode:multiply">
<path d="M32.4817 21.7898L31.7307 21.543V27.994L32.4817 28.7711V21.7898Z" fill="#DEE2E6"/>
</g>
<g style="mix-blend-mode:multiply">
<path d="M26.502 9.33752L25.4239 8.51756L25.7509 28.1412L26.502 29.0074V9.33752Z" fill="#DEE2E6"/>
</g>
</svg>
