<svg width="60" height="60" viewBox="0 0 60 60" fill="none" xmlns="http://www.w3.org/2000/svg">
<mask id="path-1-outside-1_50_8057" maskUnits="userSpaceOnUse" x="3.86108" y="13.0728" width="54" height="41" fill="black">
<rect fill="white" x="3.86108" y="13.0728" width="54" height="41"/>
<path fill-rule="evenodd" clip-rule="evenodd" d="M24.584 16.4813C24.5323 16.4687 24.4781 16.47 24.4271 16.4852L17.5336 18.538C17.4978 18.5486 17.4643 18.5659 17.4348 18.5889L11.3105 23.3659C11.2701 23.3974 11.2385 23.4387 11.2186 23.4858L8.63987 29.5976C8.63683 29.6049 8.63408 29.6121 8.63164 29.6194C9.75145 30.0911 10.8985 30.4971 12.0643 30.8454C12.1674 30.8285 12.272 30.8118 12.3782 30.7952C14.6234 30.4442 17.6599 30.1298 21.014 29.8549C27.6058 29.3147 35.4792 28.9231 41.1186 28.7113L38.2588 22.5977L38.8929 22.3011L38.2588 22.5977C38.2386 22.5545 38.2084 22.5167 38.1707 22.4876L33.1531 18.6045C33.1198 18.5788 33.0816 18.5604 33.0407 18.5504L24.584 16.4813ZM7.83845 33.3769C7.85186 34.4325 8.5439 35.3346 9.35178 36.0734C9.83983 36.5197 10.4333 36.9644 11.0678 37.4082C10.5194 38.191 9.97336 39.0083 9.48712 39.7972C8.89401 40.7594 8.37439 41.7039 8.05159 42.5036C7.89088 42.9017 7.76686 43.293 7.71561 43.6497C7.66715 43.987 7.66594 44.4128 7.89322 44.7769C8.13726 45.1679 8.51332 45.3716 8.9083 45.4431C9.28085 45.5106 9.67789 45.4644 10.0524 45.374C10.8031 45.1928 11.674 44.7803 12.5273 44.2955C14.2483 43.3178 16.0919 41.9328 17.1373 41.0625C17.3767 40.8631 17.5789 40.6449 17.7487 40.414C18.6458 40.5433 19.6034 40.623 20.5926 40.6664C23.5742 40.7971 27.0038 40.6008 30.2938 40.3105C30.7854 40.2672 31.2687 40.2131 31.7421 40.1496C30.9997 41.8898 30.2042 43.954 29.6581 45.815C29.2804 47.102 29.0073 48.3397 28.9719 49.3211C28.9543 49.8085 28.9924 50.2907 29.1458 50.6999C29.3071 51.13 29.616 51.52 30.129 51.6803C30.6963 51.8576 31.3157 51.6945 31.8511 51.4585C32.4129 51.2109 33.0243 50.8191 33.648 50.3439C34.8992 49.3906 36.2925 48.0301 37.5761 46.5747C38.8608 45.118 40.0579 43.5409 40.9086 42.1428C41.3333 41.4447 41.6819 40.7747 41.9101 40.1753C42.1291 39.6002 42.2766 38.9914 42.1828 38.46C42.0941 37.9575 41.8631 37.4373 41.5595 36.9282C41.7426 36.8449 41.9192 36.7837 42.0988 36.75C43.1963 36.5434 44.4864 36.4754 45.8388 36.4042H45.8389L45.8391 36.4042C46.1751 36.3865 46.515 36.3686 46.8567 36.3483C48.5162 36.2498 50.2448 36.0942 51.5345 35.5512C53.3004 34.8077 54.7896 33.2808 55.4271 31.5572C56.0797 29.7928 55.8398 27.7829 54.0635 26.3027C52.2839 24.8197 50.1494 24.9123 48.2234 25.5255C46.3064 26.1358 44.4452 27.3054 43.0519 28.196C42.8909 28.2989 42.7216 28.3867 42.5461 28.4588L39.527 22.0045C39.4125 21.7597 39.2412 21.5458 39.0275 21.3804L38.5991 21.934L39.0275 21.3804L34.0099 17.4973C33.8216 17.3516 33.6047 17.2471 33.3735 17.1905L24.9167 15.1215C24.6236 15.0497 24.3167 15.0573 24.0275 15.1435L17.1341 17.1962C16.9309 17.2567 16.7409 17.3546 16.5737 17.485L17.0042 18.037L16.5737 17.485L10.4494 22.262L10.8799 22.8139L10.4494 22.262C10.2207 22.4404 10.0414 22.6743 9.92867 22.9416L7.34998 29.0534C7.28527 29.2068 7.24481 29.364 7.22675 29.5209C6.72648 29.6714 6.28787 30.0201 6.04393 30.534C5.6376 31.3898 5.91109 32.4839 6.83856 32.9348C7.15339 33.0878 7.48741 33.2352 7.83845 33.3769ZM7.522 30.6872C7.7199 30.9715 8.00657 31.1985 8.36091 31.321L9.0378 31.5549C8.91995 31.6015 8.81029 31.6504 8.71067 31.7021C8.53784 31.7917 8.28359 31.9442 8.12073 32.1958C7.85583 32.0855 7.60298 31.9721 7.36322 31.8555C7.10187 31.7285 6.96738 31.3869 7.12796 31.0486C7.20842 30.8791 7.35176 30.753 7.522 30.6872ZM40.3367 37.6116C38.7684 38.4535 36.3205 39.3372 33.3829 39.8865C32.7018 41.4251 31.9296 43.3344 31.336 45.1374C31.7247 45.1121 32.1951 45.1185 32.5963 45.2211C32.8638 45.2896 33.0251 45.562 32.9567 45.8295C32.8882 46.097 32.6158 46.2584 32.3483 46.1899C31.9433 46.0862 31.3551 46.1257 31.0114 46.1754L31.0015 46.2092C30.6328 47.4654 30.3999 48.5684 30.3709 49.3716C30.3563 49.7765 30.3964 50.0475 30.4567 50.2083C30.4849 50.2835 30.511 50.317 30.5224 50.329C30.5304 50.3375 30.5351 50.3405 30.5465 50.3441C30.6167 50.366 30.839 50.3747 31.2865 50.1774C31.7077 49.9918 32.2206 49.6714 32.7996 49.2303C33.9538 48.3508 35.2797 47.0619 36.5261 45.6487C37.7713 44.2368 38.9149 42.7261 39.7126 41.415C40.1121 40.7584 40.4147 40.1685 40.6018 39.6772C40.798 39.1617 40.8298 38.8492 40.8041 38.7033C40.7525 38.411 40.5975 38.043 40.3367 37.6116ZM12.2253 38.1959C11.6873 38.9634 11.1526 39.7633 10.6789 40.5318C10.1006 41.4699 9.62885 42.3364 9.3498 43.0276C9.20959 43.375 9.13008 43.6491 9.10138 43.8488C9.08536 43.9603 9.08909 44.0208 9.09217 44.0461C9.10059 44.0504 9.12035 44.0588 9.15766 44.0655C9.26172 44.0844 9.44436 44.0805 9.72391 44.0131C10.2813 43.8785 11.0158 43.544 11.8358 43.0782C13.3898 42.1954 15.0794 40.9407 16.1041 40.1001C15.0299 39.836 14.0951 39.4689 13.3672 38.9675C13.0306 38.7356 12.6847 38.5038 12.3387 38.2719L12.2253 38.1959Z"/>
</mask>
<path fill-rule="evenodd" clip-rule="evenodd" d="M24.584 16.4813C24.5323 16.4687 24.4781 16.47 24.4271 16.4852L17.5336 18.538C17.4978 18.5486 17.4643 18.5659 17.4348 18.5889L11.3105 23.3659C11.2701 23.3974 11.2385 23.4387 11.2186 23.4858L8.63987 29.5976C8.63683 29.6049 8.63408 29.6121 8.63164 29.6194C9.75145 30.0911 10.8985 30.4971 12.0643 30.8454C12.1674 30.8285 12.272 30.8118 12.3782 30.7952C14.6234 30.4442 17.6599 30.1298 21.014 29.8549C27.6058 29.3147 35.4792 28.9231 41.1186 28.7113L38.2588 22.5977L38.8929 22.3011L38.2588 22.5977C38.2386 22.5545 38.2084 22.5167 38.1707 22.4876L33.1531 18.6045C33.1198 18.5788 33.0816 18.5604 33.0407 18.5504L24.584 16.4813ZM7.83845 33.3769C7.85186 34.4325 8.5439 35.3346 9.35178 36.0734C9.83983 36.5197 10.4333 36.9644 11.0678 37.4082C10.5194 38.191 9.97336 39.0083 9.48712 39.7972C8.89401 40.7594 8.37439 41.7039 8.05159 42.5036C7.89088 42.9017 7.76686 43.293 7.71561 43.6497C7.66715 43.987 7.66594 44.4128 7.89322 44.7769C8.13726 45.1679 8.51332 45.3716 8.9083 45.4431C9.28085 45.5106 9.67789 45.4644 10.0524 45.374C10.8031 45.1928 11.674 44.7803 12.5273 44.2955C14.2483 43.3178 16.0919 41.9328 17.1373 41.0625C17.3767 40.8631 17.5789 40.6449 17.7487 40.414C18.6458 40.5433 19.6034 40.623 20.5926 40.6664C23.5742 40.7971 27.0038 40.6008 30.2938 40.3105C30.7854 40.2672 31.2687 40.2131 31.7421 40.1496C30.9997 41.8898 30.2042 43.954 29.6581 45.815C29.2804 47.102 29.0073 48.3397 28.9719 49.3211C28.9543 49.8085 28.9924 50.2907 29.1458 50.6999C29.3071 51.13 29.616 51.52 30.129 51.6803C30.6963 51.8576 31.3157 51.6945 31.8511 51.4585C32.4129 51.2109 33.0243 50.8191 33.648 50.3439C34.8992 49.3906 36.2925 48.0301 37.5761 46.5747C38.8608 45.118 40.0579 43.5409 40.9086 42.1428C41.3333 41.4447 41.6819 40.7747 41.9101 40.1753C42.1291 39.6002 42.2766 38.9914 42.1828 38.46C42.0941 37.9575 41.8631 37.4373 41.5595 36.9282C41.7426 36.8449 41.9192 36.7837 42.0988 36.75C43.1963 36.5434 44.4864 36.4754 45.8388 36.4042H45.8389L45.8391 36.4042C46.1751 36.3865 46.515 36.3686 46.8567 36.3483C48.5162 36.2498 50.2448 36.0942 51.5345 35.5512C53.3004 34.8077 54.7896 33.2808 55.4271 31.5572C56.0797 29.7928 55.8398 27.7829 54.0635 26.3027C52.2839 24.8197 50.1494 24.9123 48.2234 25.5255C46.3064 26.1358 44.4452 27.3054 43.0519 28.196C42.8909 28.2989 42.7216 28.3867 42.5461 28.4588L39.527 22.0045C39.4125 21.7597 39.2412 21.5458 39.0275 21.3804L38.5991 21.934L39.0275 21.3804L34.0099 17.4973C33.8216 17.3516 33.6047 17.2471 33.3735 17.1905L24.9167 15.1215C24.6236 15.0497 24.3167 15.0573 24.0275 15.1435L17.1341 17.1962C16.9309 17.2567 16.7409 17.3546 16.5737 17.485L17.0042 18.037L16.5737 17.485L10.4494 22.262L10.8799 22.8139L10.4494 22.262C10.2207 22.4404 10.0414 22.6743 9.92867 22.9416L7.34998 29.0534C7.28527 29.2068 7.24481 29.364 7.22675 29.5209C6.72648 29.6714 6.28787 30.0201 6.04393 30.534C5.6376 31.3898 5.91109 32.4839 6.83856 32.9348C7.15339 33.0878 7.48741 33.2352 7.83845 33.3769ZM7.522 30.6872C7.7199 30.9715 8.00657 31.1985 8.36091 31.321L9.0378 31.5549C8.91995 31.6015 8.81029 31.6504 8.71067 31.7021C8.53784 31.7917 8.28359 31.9442 8.12073 32.1958C7.85583 32.0855 7.60298 31.9721 7.36322 31.8555C7.10187 31.7285 6.96738 31.3869 7.12796 31.0486C7.20842 30.8791 7.35176 30.753 7.522 30.6872ZM40.3367 37.6116C38.7684 38.4535 36.3205 39.3372 33.3829 39.8865C32.7018 41.4251 31.9296 43.3344 31.336 45.1374C31.7247 45.1121 32.1951 45.1185 32.5963 45.2211C32.8638 45.2896 33.0251 45.562 32.9567 45.8295C32.8882 46.097 32.6158 46.2584 32.3483 46.1899C31.9433 46.0862 31.3551 46.1257 31.0114 46.1754L31.0015 46.2092C30.6328 47.4654 30.3999 48.5684 30.3709 49.3716C30.3563 49.7765 30.3964 50.0475 30.4567 50.2083C30.4849 50.2835 30.511 50.317 30.5224 50.329C30.5304 50.3375 30.5351 50.3405 30.5465 50.3441C30.6167 50.366 30.839 50.3747 31.2865 50.1774C31.7077 49.9918 32.2206 49.6714 32.7996 49.2303C33.9538 48.3508 35.2797 47.0619 36.5261 45.6487C37.7713 44.2368 38.9149 42.7261 39.7126 41.415C40.1121 40.7584 40.4147 40.1685 40.6018 39.6772C40.798 39.1617 40.8298 38.8492 40.8041 38.7033C40.7525 38.411 40.5975 38.043 40.3367 37.6116ZM12.2253 38.1959C11.6873 38.9634 11.1526 39.7633 10.6789 40.5318C10.1006 41.4699 9.62885 42.3364 9.3498 43.0276C9.20959 43.375 9.13008 43.6491 9.10138 43.8488C9.08536 43.9603 9.08909 44.0208 9.09217 44.0461C9.10059 44.0504 9.12035 44.0588 9.15766 44.0655C9.26172 44.0844 9.44436 44.0805 9.72391 44.0131C10.2813 43.8785 11.0158 43.544 11.8358 43.0782C13.3898 42.1954 15.0794 40.9407 16.1041 40.1001C15.0299 39.836 14.0951 39.4689 13.3672 38.9675C13.0306 38.7356 12.6847 38.5038 12.3387 38.2719L12.2253 38.1959Z" fill="#F8F9FA"/>
<path d="M24.4271 16.4852L23.999 15.0476L23.999 15.0476L24.4271 16.4852ZM24.584 16.4813L24.9405 15.0243L24.9405 15.0243L24.584 16.4813ZM17.5336 18.538L17.9617 19.9756L17.9617 19.9756L17.5336 18.538ZM17.4348 18.5889L16.5122 17.4062L16.5122 17.4062L17.4348 18.5889ZM11.3105 23.3659L10.3879 22.1831L10.3879 22.1831L11.3105 23.3659ZM11.2186 23.4858L12.6006 24.0689L12.6006 24.0689L11.2186 23.4858ZM8.63987 29.5976L10.0219 30.1808L10.0219 30.1807L8.63987 29.5976ZM8.63164 29.6194L7.20916 29.1435C6.96026 29.8873 7.32649 30.6973 8.04936 31.0018L8.63164 29.6194ZM12.0643 30.8454L11.635 32.2826C11.8526 32.3476 12.0821 32.3624 12.3062 32.3257L12.0643 30.8454ZM12.3782 30.7952L12.1465 29.3132L12.1465 29.3132L12.3782 30.7952ZM21.014 29.8549L21.1366 31.3499L21.1366 31.3499L21.014 29.8549ZM41.1186 28.7113L41.1749 30.2102C41.6775 30.1913 42.1371 29.9219 42.399 29.4926C42.661 29.0632 42.6904 28.5312 42.4773 28.0757L41.1186 28.7113ZM38.2588 22.5977L37.6233 21.239C37.2629 21.4076 36.9843 21.7124 36.8487 22.0864C36.7131 22.4604 36.7316 22.8729 36.9001 23.2333L38.2588 22.5977ZM39.5285 23.6598C40.2788 23.3088 40.6026 22.4159 40.2516 21.6655C39.9006 20.9152 39.0077 20.5914 38.2573 20.9424L39.5285 23.6598ZM38.2588 22.5977L36.9001 23.2332C37.0687 23.5936 37.3735 23.8722 37.7475 24.0078C38.1215 24.1435 38.534 24.125 38.8944 23.9564L38.2588 22.5977ZM38.1707 22.4876L39.0888 21.3013L39.0887 21.3013L38.1707 22.4876ZM33.1531 18.6045L32.235 19.7908L32.235 19.7908L33.1531 18.6045ZM33.0407 18.5504L33.3972 17.0934L33.3972 17.0934L33.0407 18.5504ZM9.35178 36.0734L8.33947 37.1803L8.33947 37.1803L9.35178 36.0734ZM7.83845 33.3769L9.33833 33.3578C9.33066 32.7532 8.96071 32.2123 8.40001 31.986L7.83845 33.3769ZM11.0678 37.4082L12.2964 38.2688C12.5247 37.9428 12.6142 37.5394 12.545 37.1474C12.4758 36.7554 12.2536 36.407 11.9274 36.1789L11.0678 37.4082ZM9.48712 39.7972L8.21021 39.0101L8.21021 39.0101L9.48712 39.7972ZM8.05159 42.5036L6.66065 41.9421L6.66065 41.9421L8.05159 42.5036ZM7.71561 43.6497L6.23085 43.4364L6.23085 43.4364L7.71561 43.6497ZM7.89322 44.7769L6.62075 45.5711L6.62075 45.5711L7.89322 44.7769ZM8.9083 45.4431L8.64113 46.9191L8.64114 46.9191L8.9083 45.4431ZM10.0524 45.374L10.4043 46.8321L10.4043 46.8321L10.0524 45.374ZM12.5273 44.2955L11.7864 42.9913L11.7864 42.9913L12.5273 44.2955ZM17.1373 41.0625L18.097 42.2152L18.097 42.2152L17.1373 41.0625ZM17.7487 40.414L17.9628 38.9293C17.4151 38.8503 16.8683 39.0794 16.5404 39.5251L17.7487 40.414ZM20.5926 40.6664L20.5269 42.1649L20.5269 42.1649L20.5926 40.6664ZM30.2938 40.3105L30.162 38.8163L30.162 38.8163L30.2938 40.3105ZM31.7421 40.1496L33.1218 40.7382C33.3335 40.2421 33.2625 39.6706 32.9359 39.2413C32.6093 38.8121 32.0774 38.5912 31.5428 38.6629L31.7421 40.1496ZM29.6581 45.815L31.0974 46.2374L31.0974 46.2374L29.6581 45.815ZM28.9719 49.3211L27.4728 49.267L27.4728 49.267L28.9719 49.3211ZM29.1458 50.6999L27.7413 51.2265L27.7413 51.2265L29.1458 50.6999ZM30.129 51.6803L29.6815 53.1121L29.6816 53.1121L30.129 51.6803ZM31.8511 51.4585L32.4561 52.8311L32.4561 52.8311L31.8511 51.4585ZM33.648 50.3439L34.5571 51.537L34.5571 51.537L33.648 50.3439ZM37.5761 46.5747L36.4511 45.5825L36.4511 45.5825L37.5761 46.5747ZM40.9086 42.1428L39.6272 41.3631L39.6272 41.3631L40.9086 42.1428ZM41.9101 40.1753L40.5083 39.6416L40.5083 39.6416L41.9101 40.1753ZM42.1828 38.46L43.66 38.1993L43.66 38.1993L42.1828 38.46ZM41.5595 36.9282L40.9383 35.5629C40.5499 35.7396 40.2551 36.0734 40.1278 36.4806C40.0005 36.8879 40.0526 37.3301 40.2712 37.6965L41.5595 36.9282ZM42.0988 36.75L41.8213 35.2758L41.8213 35.2758L42.0988 36.75ZM45.8388 36.4042V34.9042C45.8125 34.9042 45.7862 34.9049 45.7599 34.9063L45.8388 36.4042ZM45.8389 36.4042V37.9042C45.8638 37.9042 45.8888 37.9036 45.9138 37.9023L45.8389 36.4042ZM45.8391 36.4042L45.914 37.9023L45.918 37.9021L45.8391 36.4042ZM46.8567 36.3483L46.9455 37.8457L46.9455 37.8457L46.8567 36.3483ZM51.5345 35.5512L52.1166 36.9337L52.1166 36.9337L51.5345 35.5512ZM55.4271 31.5572L54.0202 31.0368L54.0202 31.0368L55.4271 31.5572ZM54.0635 26.3027L55.0238 25.1503L55.0238 25.1503L54.0635 26.3027ZM48.2234 25.5255L48.6784 26.9548L48.6784 26.9548L48.2234 25.5255ZM43.0519 28.196L42.244 26.9322L42.244 26.9322L43.0519 28.196ZM42.5461 28.4588L41.1874 29.0944C41.5266 29.8195 42.3755 30.1505 43.116 29.8463L42.5461 28.4588ZM39.527 22.0045L38.1683 22.6401L38.1683 22.6401L39.527 22.0045ZM39.0275 21.3804L39.9456 20.1941C39.2904 19.6871 38.3483 19.8072 37.8413 20.4623L39.0275 21.3804ZM37.4128 21.0159C36.9058 21.6711 37.0259 22.6132 37.6811 23.1202C38.3363 23.6272 39.2784 23.5071 39.7854 22.852L37.4128 21.0159ZM39.0275 21.3804L40.2138 22.2984C40.7208 21.6432 40.6007 20.7011 39.9455 20.1941L39.0275 21.3804ZM34.0099 17.4973L34.9279 16.3111L34.9279 16.3111L34.0099 17.4973ZM33.3735 17.1905L33.017 18.6475L33.017 18.6475L33.3735 17.1905ZM24.9167 15.1215L24.5602 16.5785L24.5602 16.5785L24.9167 15.1215ZM24.0275 15.1435L24.4556 16.5811L24.4556 16.5811L24.0275 15.1435ZM17.1341 17.1962L17.5622 18.6338L17.5622 18.6338L17.1341 17.1962ZM16.5737 17.485L15.6512 16.3023C14.9979 16.8118 14.8814 17.7543 15.391 18.4076L16.5737 17.485ZM15.8215 18.9595C16.331 19.6127 17.2736 19.7292 17.9268 19.2197C18.58 18.7102 18.6965 17.7676 18.187 17.1144L15.8215 18.9595ZM16.5737 17.485L17.7565 16.5625C17.5118 16.2488 17.1525 16.0451 16.7577 15.9963C16.3629 15.9476 15.9648 16.0576 15.6512 16.3023L16.5737 17.485ZM10.4494 22.262L9.52686 21.0792C9.21317 21.3239 9.00953 21.6832 8.96073 22.078C8.91194 22.4728 9.02198 22.8708 9.26665 23.1845L10.4494 22.262ZM9.69718 23.7365C10.2067 24.3897 11.1493 24.5062 11.8025 23.9967C12.4557 23.4872 12.5722 22.5446 12.0627 21.8914L9.69718 23.7365ZM10.4494 22.262L11.6322 21.3394C11.1226 20.6862 10.1801 20.5697 9.52686 21.0792L10.4494 22.262ZM9.92867 22.9416L11.3107 23.5247L11.3107 23.5247L9.92867 22.9416ZM7.34998 29.0534L5.96796 28.4703L5.96796 28.4703L7.34998 29.0534ZM7.22675 29.5209L7.65897 30.9573C8.23251 30.7847 8.64841 30.2875 8.71691 29.6924L7.22675 29.5209ZM6.04393 30.534L4.68888 29.8907L4.68888 29.8907L6.04393 30.534ZM6.83856 32.9348L6.18274 34.2838L6.18274 34.2838L6.83856 32.9348ZM8.36091 31.321L7.87089 32.7387L7.87089 32.7387L8.36091 31.321ZM7.522 30.6872L8.75304 29.8302C8.35807 29.2629 7.62656 29.0389 6.9817 29.2879L7.522 30.6872ZM9.0378 31.5549L9.58883 32.9501C10.1726 32.7195 10.5511 32.1499 10.5374 31.5224C10.5238 30.8949 10.121 30.3423 9.52782 30.1372L9.0378 31.5549ZM8.71067 31.7021L9.40134 33.0336L9.40134 33.0336L8.71067 31.7021ZM8.12073 32.1958L7.54419 33.5806C8.21337 33.8592 8.98603 33.6194 9.37993 33.0109L8.12073 32.1958ZM7.36322 31.8555L6.70739 33.2046L6.7074 33.2046L7.36322 31.8555ZM7.12796 31.0486L8.48301 31.6919L8.48301 31.6919L7.12796 31.0486ZM33.3829 39.8865L33.1072 38.412C32.6213 38.5029 32.2114 38.8273 32.0113 39.2793L33.3829 39.8865ZM40.3367 37.6116L41.6204 36.8356C41.2072 36.1521 40.3309 35.9123 39.6272 36.29L40.3367 37.6116ZM31.336 45.1374L29.9113 44.6682C29.7554 45.1416 29.8448 45.6616 30.15 46.0557C30.4551 46.4498 30.9361 46.6666 31.4334 46.6342L31.336 45.1374ZM32.5963 45.2211L32.2243 46.6743L32.2243 46.6743L32.5963 45.2211ZM32.9567 45.8295L34.4098 46.2014L34.4098 46.2014L32.9567 45.8295ZM32.3483 46.1899L31.9764 47.6431L31.9764 47.6431L32.3483 46.1899ZM31.0114 46.1754L30.7967 44.6908C30.2162 44.7748 29.7379 45.1894 29.5724 45.7521L31.0114 46.1754ZM31.0015 46.2092L29.5624 45.7859L29.5622 45.7868L31.0015 46.2092ZM30.3709 49.3716L31.87 49.4257L31.87 49.4257L30.3709 49.3716ZM30.4567 50.2083L29.0522 50.735L29.0522 50.735L30.4567 50.2083ZM30.5224 50.329L29.4328 51.3599L29.4331 51.3602L30.5224 50.329ZM30.5465 50.3441L30.9939 48.9123L30.9938 48.9123L30.5465 50.3441ZM31.2865 50.1774L31.8915 51.55L31.8915 51.55L31.2865 50.1774ZM32.7996 49.2303L33.7086 50.4234L33.7086 50.4234L32.7996 49.2303ZM36.5261 45.6487L35.4011 44.6565L35.4011 44.6565L36.5261 45.6487ZM39.7126 41.415L38.4312 40.6353L38.4312 40.6353L39.7126 41.415ZM40.6018 39.6772L42.0036 40.2109L42.0036 40.2109L40.6018 39.6772ZM40.8041 38.7033L39.3269 38.964L39.3269 38.964L40.8041 38.7033ZM10.6789 40.5318L9.40199 39.7447L9.40199 39.7447L10.6789 40.5318ZM12.2253 38.1959L13.0604 36.9499C12.3825 36.4955 11.4655 36.6665 10.997 37.3349L12.2253 38.1959ZM9.3498 43.0276L10.7407 43.5891L10.7407 43.5891L9.3498 43.0276ZM9.10138 43.8488L7.61662 43.6355L7.61662 43.6355L9.10138 43.8488ZM9.09217 44.0461L7.60312 44.227C7.66316 44.7213 7.96459 45.1536 8.40767 45.3808L9.09217 44.0461ZM9.15766 44.0655L9.42485 42.5895L9.4248 42.5895L9.15766 44.0655ZM9.72391 44.0131L9.37199 42.5549L9.37199 42.5549L9.72391 44.0131ZM11.8358 43.0782L12.5767 44.3825L12.5767 44.3825L11.8358 43.0782ZM16.1041 40.1001L17.0554 41.2598C17.4945 40.8996 17.6925 40.3223 17.5669 39.7684C17.4414 39.2145 17.0137 38.7791 16.4622 38.6435L16.1041 40.1001ZM13.3672 38.9675L14.2181 37.7322L14.2181 37.7322L13.3672 38.9675ZM12.3387 38.2719L11.5035 39.5179L11.5036 39.5179L12.3387 38.2719ZM24.8552 17.9228C24.651 17.9836 24.4344 17.989 24.2275 17.9384L24.9405 15.0243C24.6301 14.9484 24.3052 14.9564 23.999 15.0476L24.8552 17.9228ZM17.9617 19.9756L24.8552 17.9228L23.999 15.0476L17.1056 17.1003L17.9617 19.9756ZM18.3573 19.7717C18.2393 19.8637 18.1052 19.9329 17.9617 19.9756L17.1056 17.1003C16.8904 17.1644 16.6892 17.2681 16.5122 17.4062L18.3573 19.7717ZM12.233 24.5486L18.3573 19.7717L16.5122 17.4062L10.3879 22.1831L12.233 24.5486ZM12.6006 24.0689C12.521 24.2576 12.3944 24.4227 12.233 24.5486L10.3879 22.1831C10.1457 22.372 9.95592 22.6197 9.83652 22.9027L12.6006 24.0689ZM10.0219 30.1807L12.6006 24.0689L9.83653 22.9027L7.25785 29.0145L10.0219 30.1807ZM10.0541 30.0954C10.0445 30.1242 10.0337 30.1527 10.0219 30.1808L7.25786 29.0145C7.23994 29.057 7.2237 29.1 7.20916 29.1435L10.0541 30.0954ZM8.04936 31.0018C9.22305 31.4962 10.4215 31.9201 11.635 32.2826L12.4937 29.4081C11.3756 29.0741 10.2799 28.686 9.21392 28.2371L8.04936 31.0018ZM12.1465 29.3132C12.0371 29.3303 11.929 29.3476 11.8224 29.365L12.3062 32.3257C12.4057 32.3095 12.5069 32.2933 12.6099 32.2772L12.1465 29.3132ZM20.8915 28.3599C17.527 28.6356 14.4468 28.9536 12.1465 29.3132L12.6099 32.2772C14.7999 31.9348 17.7929 31.6239 21.1366 31.3499L20.8915 28.3599ZM41.0623 27.2123C35.4115 27.4246 27.5139 27.8172 20.8915 28.3599L21.1366 31.3499C27.6977 30.8122 35.5469 30.4217 41.1749 30.2102L41.0623 27.2123ZM36.9001 23.2333L39.7599 29.3468L42.4773 28.0757L39.6175 21.9621L36.9001 23.2333ZM38.2573 20.9424L37.6233 21.239L38.8944 23.9564L39.5285 23.6598L38.2573 20.9424ZM38.8944 23.9564L39.5284 23.6598L38.2573 20.9424L37.6233 21.239L38.8944 23.9564ZM37.2527 23.6738C37.1018 23.5571 36.9809 23.406 36.9001 23.2332L39.6176 21.9622C39.4963 21.703 39.315 21.4764 39.0888 21.3013L37.2527 23.6738ZM32.235 19.7908L37.2527 23.6738L39.0887 21.3013L34.0711 17.4183L32.235 19.7908ZM32.6843 20.0074C32.521 19.9675 32.368 19.8937 32.235 19.7908L34.0711 17.4183C33.8717 17.264 33.6421 17.1533 33.3972 17.0934L32.6843 20.0074ZM24.2275 17.9384L32.6843 20.0074L33.3972 17.0934L24.9405 15.0243L24.2275 17.9384ZM10.3641 34.9665C9.6254 34.2909 9.34346 33.7613 9.33833 33.3578L6.33858 33.3959C6.36026 35.1037 7.46241 36.3782 8.33947 37.1803L10.3641 34.9665ZM11.9274 36.1789C11.3106 35.7475 10.7799 35.3468 10.3641 34.9665L8.33947 37.1803C8.89975 37.6927 9.55595 38.1813 10.2082 38.6374L11.9274 36.1789ZM10.764 40.5843C11.231 39.8266 11.76 39.0344 12.2964 38.2688L9.83926 36.5475C9.27887 37.3475 8.7157 38.19 8.21021 39.0101L10.764 40.5843ZM9.44253 43.0651C9.71847 42.3815 10.1869 41.5206 10.764 40.5843L8.21021 39.0101C7.60115 39.9982 7.03031 41.0264 6.66065 41.9421L9.44253 43.0651ZM9.20036 43.863C9.22747 43.6744 9.30386 43.4086 9.44253 43.0651L6.66065 41.9421C6.47791 42.3948 6.30625 42.9116 6.23085 43.4364L9.20036 43.863ZM9.16568 43.9827C9.19455 44.0289 9.19399 44.0566 9.19142 44.034C9.1901 44.0223 9.18886 44.0019 9.18997 43.9713C9.19107 43.9409 9.19434 43.9049 9.20036 43.863L6.23085 43.4364C6.16434 43.8993 6.11337 44.7583 6.62075 45.5711L9.16568 43.9827ZM9.17548 43.9671C9.14021 43.9607 9.13152 43.953 9.1395 43.958C9.14368 43.9607 9.14977 43.9652 9.15606 43.9714C9.15903 43.9744 9.16144 43.9771 9.16324 43.9793C9.16504 43.9816 9.16581 43.9828 9.16568 43.9826L6.62075 45.5711C7.12989 46.3868 7.91299 46.7873 8.64113 46.9191L9.17548 43.9671ZM9.70045 43.9158C9.42792 43.9816 9.26052 43.9825 9.17547 43.9671L8.64114 46.9191C9.30118 47.0386 9.92786 46.9471 10.4043 46.8321L9.70045 43.9158ZM11.7864 42.9913C10.9691 43.4556 10.2441 43.7846 9.70045 43.9158L10.4043 46.8321C11.362 46.601 12.3789 46.105 13.2683 45.5997L11.7864 42.9913ZM16.1775 39.9097C15.1742 40.745 13.4052 42.0717 11.7864 42.9913L13.2683 45.5997C15.0914 44.564 17.0096 43.1206 18.097 42.2152L16.1775 39.9097ZM16.5404 39.5251C16.4406 39.6608 16.3214 39.7899 16.1775 39.9097L18.097 42.2152C18.432 41.9363 18.7171 41.6289 18.957 41.3028L16.5404 39.5251ZM20.6583 39.1678C19.7052 39.126 18.7989 39.0499 17.9628 38.9293L17.5347 41.8986C18.4928 42.0368 19.5016 42.12 20.5269 42.1649L20.6583 39.1678ZM30.162 38.8163C26.8919 39.1049 23.5401 39.2941 20.6583 39.1678L20.5269 42.1649C23.6082 42.3 27.1158 42.0968 30.4257 41.8047L30.162 38.8163ZM31.5428 38.6629C31.0913 38.7234 30.6306 38.775 30.162 38.8163L30.4257 41.8047C30.9403 41.7593 31.446 41.7027 31.9414 41.6363L31.5428 38.6629ZM31.0974 46.2374C31.6208 44.454 32.3919 42.4491 33.1218 40.7382L30.3625 39.5609C29.6075 41.3304 28.7877 43.454 28.2188 45.3926L31.0974 46.2374ZM30.4709 49.3752C30.4994 48.5846 30.7294 47.4912 31.0974 46.2374L28.2188 45.3926C27.8314 46.7128 27.5151 48.0948 27.4728 49.267L30.4709 49.3752ZM30.5503 50.1732C30.4966 50.0299 30.4565 49.7738 30.4709 49.3752L27.4728 49.267C27.452 49.8431 27.4882 50.5515 27.7413 51.2265L30.5503 50.1732ZM30.5764 50.2486C30.574 50.2479 30.5785 50.2491 30.586 50.2539C30.5893 50.256 30.5921 50.2581 30.5942 50.2598C30.5962 50.2615 30.5971 50.2625 30.597 50.2623C30.5955 50.2608 30.5741 50.2366 30.5503 50.1732L27.7413 51.2265C28.0175 51.9632 28.6124 52.7779 29.6815 53.1121L30.5764 50.2486ZM31.2461 50.0859C31.05 50.1724 30.8869 50.2232 30.7587 50.2443C30.6338 50.2648 30.5828 50.2506 30.5764 50.2486L29.6816 53.1121C30.7817 53.4558 31.8266 53.1086 32.4561 52.8311L31.2461 50.0859ZM32.739 49.1507C32.1632 49.5894 31.6574 49.9047 31.2461 50.0859L32.4561 52.8311C33.1684 52.5171 33.8854 52.0488 34.5571 51.537L32.739 49.1507ZM36.4511 45.5825C35.2074 46.9927 33.8863 48.2766 32.7389 49.1507L34.5571 51.537C35.9122 50.5046 37.3776 49.0675 38.7011 47.5669L36.4511 45.5825ZM39.6272 41.3631C38.8333 42.6679 37.6935 44.1738 36.4511 45.5825L38.7011 47.5669C40.0282 46.0621 41.2825 44.414 42.1901 42.9225L39.6272 41.3631ZM40.5083 39.6416C40.3242 40.1252 40.0249 40.7094 39.6272 41.3631L42.1901 42.9225C42.6418 42.1801 43.0397 41.4243 43.312 40.709L40.5083 39.6416ZM40.7056 38.7207C40.7266 38.8396 40.7025 39.1315 40.5083 39.6416L43.312 40.709C43.5557 40.0689 43.8265 39.1432 43.66 38.1993L40.7056 38.7207ZM40.2712 37.6965C40.5256 38.1231 40.6607 38.4661 40.7056 38.7207L43.66 38.1993C43.5275 37.4488 43.2005 36.7514 42.8478 36.1599L40.2712 37.6965ZM41.8213 35.2758C41.4933 35.3376 41.1994 35.4441 40.9383 35.5629L42.1807 38.2935C42.2857 38.2458 42.3452 38.2299 42.3762 38.2241L41.8213 35.2758ZM45.7599 34.9063C44.4363 34.976 43.0374 35.047 41.8213 35.2758L42.3762 38.2241C43.3553 38.0398 44.5366 37.9749 45.9177 37.9021L45.7599 34.9063ZM45.8389 34.9042H45.8388V37.9042H45.8389V34.9042ZM45.7642 34.9061L45.7639 34.9061L45.9138 37.9023L45.914 37.9023L45.7642 34.9061ZM46.7678 34.851C46.4319 34.8709 46.097 34.8885 45.7602 34.9063L45.918 37.9021C46.2532 37.8845 46.598 37.8663 46.9455 37.8457L46.7678 34.851ZM50.9524 34.1688C49.9352 34.5971 48.4611 34.7505 46.7678 34.851L46.9455 37.8457C48.5713 37.7492 50.5544 37.5914 52.1166 36.9337L50.9524 34.1688ZM54.0202 31.0368C53.5336 32.3525 52.355 33.5782 50.9524 34.1688L52.1166 36.9337C54.2458 36.0372 56.0455 34.2092 56.8339 32.0775L54.0202 31.0368ZM53.1032 27.455C54.3119 28.4622 54.4906 29.765 54.0202 31.0368L56.8339 32.0775C57.6687 29.8206 57.3677 27.1036 55.0238 25.1503L53.1032 27.455ZM48.6784 26.9548C50.3727 26.4154 51.8869 26.4414 53.1032 27.455L55.0238 25.1503C52.6809 23.1979 49.926 23.4092 47.7683 24.0962L48.6784 26.9548ZM43.8598 29.4599C45.2716 28.5574 46.976 27.4968 48.6784 26.9548L47.7683 24.0962C45.6369 24.7748 43.6187 26.0534 42.244 26.9322L43.8598 29.4599ZM43.116 29.8463C43.3738 29.7404 43.6228 29.6114 43.8598 29.4599L42.244 26.9322C42.159 26.9865 42.0694 27.033 41.9761 27.0713L43.116 29.8463ZM38.1683 22.6401L41.1874 29.0944L43.9048 27.8232L40.8857 21.369L38.1683 22.6401ZM38.1095 22.5666C38.1346 22.5861 38.1548 22.6113 38.1683 22.6401L40.8857 21.369C40.6701 20.9082 40.3478 20.5054 39.9456 20.1941L38.1095 22.5666ZM39.7854 22.852L40.2138 22.2984L37.8413 20.4623L37.4128 21.0159L39.7854 22.852ZM37.8413 20.4623L37.4128 21.0159L39.7854 22.852L40.2138 22.2984L37.8413 20.4623ZM33.0918 18.6836L38.1095 22.5666L39.9455 20.1941L34.9279 16.3111L33.0918 18.6836ZM33.017 18.6475C33.0442 18.6542 33.0697 18.6665 33.0919 18.6836L34.9279 16.3111C34.5734 16.0368 34.1653 15.84 33.7299 15.7335L33.017 18.6475ZM24.5602 16.5785L33.017 18.6475L33.7299 15.7335L25.2732 13.6644L24.5602 16.5785ZM24.4556 16.5811C24.4896 16.5709 24.5257 16.57 24.5602 16.5785L25.2732 13.6644C24.7215 13.5295 24.1438 13.5437 23.5994 13.7058L24.4556 16.5811ZM17.5622 18.6338L24.4556 16.5811L23.5994 13.7058L16.706 15.7586L17.5622 18.6338ZM17.4963 18.6678C17.5159 18.6524 17.5383 18.6409 17.5622 18.6338L16.706 15.7586C16.3236 15.8724 15.9658 16.0569 15.6512 16.3023L17.4963 18.6678ZM18.187 17.1144L17.7565 16.5625L15.391 18.4076L15.8215 18.9595L18.187 17.1144ZM15.391 18.4076L15.8215 18.9595L18.187 17.1144L17.7565 16.5625L15.391 18.4076ZM11.372 23.4447L17.4963 18.6678L15.6512 16.3023L9.52686 21.0792L11.372 23.4447ZM12.0627 21.8914L11.6322 21.3394L9.26665 23.1845L9.69718 23.7365L12.0627 21.8914ZM9.26665 23.1845L9.69718 23.7365L12.0627 21.8914L11.6322 21.3394L9.26665 23.1845ZM11.3107 23.5247C11.324 23.4932 11.345 23.4657 11.372 23.4447L9.52686 21.0792C9.09633 21.415 8.75889 21.8554 8.54664 22.3585L11.3107 23.5247ZM8.73201 29.6365L11.3107 23.5247L8.54664 22.3585L5.96796 28.4703L8.73201 29.6365ZM8.71691 29.6924C8.71882 29.6758 8.72324 29.6573 8.73201 29.6365L5.96796 28.4703C5.84731 28.7563 5.7708 29.0522 5.73659 29.3494L8.71691 29.6924ZM7.39897 31.1773C7.45064 31.0685 7.54045 30.993 7.65897 30.9573L6.79453 28.0845C5.91252 28.3499 5.12511 28.9718 4.68888 29.8907L7.39897 31.1773ZM7.49438 31.5857C7.42837 31.5536 7.39495 31.5112 7.37557 31.4478C7.35174 31.3699 7.35583 31.2682 7.39897 31.1773L4.68888 29.8907C3.97999 31.3838 4.41366 33.4238 6.18274 34.2838L7.49438 31.5857ZM8.40001 31.986C8.07701 31.8556 7.77476 31.722 7.49438 31.5857L6.18274 34.2838C6.53202 34.4536 6.8978 34.6148 7.2769 34.7678L8.40001 31.986ZM8.85094 29.9033C8.80689 29.8881 8.77575 29.8628 8.75304 29.8302L6.29097 31.5443C6.66405 32.0802 7.20625 32.509 7.87089 32.7387L8.85094 29.9033ZM9.52782 30.1372L8.85094 29.9033L7.87089 32.7387L8.54777 32.9726L9.52782 30.1372ZM9.40134 33.0336C9.44648 33.0102 9.50804 32.982 9.58883 32.9501L8.48677 30.1598C8.33185 30.221 8.17411 30.2906 8.01999 30.3706L9.40134 33.0336ZM9.37993 33.0109C9.36148 33.0394 9.34491 33.0583 9.3351 33.0684C9.32547 33.0783 9.32071 33.0816 9.32371 33.0793C9.32666 33.0771 9.3343 33.0716 9.34806 33.0632C9.36174 33.0549 9.37876 33.0453 9.40134 33.0336L8.02 30.3706C7.79477 30.4874 7.24529 30.7879 6.86153 31.3807L9.37993 33.0109ZM6.7074 33.2046C6.97579 33.3351 7.25529 33.4603 7.54419 33.5806L8.69727 30.811C8.45638 30.7107 8.23016 30.6091 8.01904 30.5065L6.7074 33.2046ZM5.77292 30.4053C5.29126 31.4198 5.64072 32.686 6.70739 33.2046L8.01904 30.5065C8.56303 30.771 8.6435 31.3539 8.48301 31.6919L5.77292 30.4053ZM6.9817 29.2879C6.47587 29.4832 6.02832 29.8674 5.77292 30.4053L8.48301 31.6919C8.38853 31.8909 8.22765 32.0227 8.06231 32.0865L6.9817 29.2879ZM33.6586 41.3609C36.7172 40.789 39.3171 39.8614 41.0462 38.9332L39.6272 36.29C38.2197 37.0456 35.9237 37.8854 33.1072 38.412L33.6586 41.3609ZM32.7608 45.6065C33.3346 43.8639 34.0867 42.0023 34.7545 40.4937L32.0113 39.2793C31.3169 40.848 30.5247 42.805 29.9113 44.6682L32.7608 45.6065ZM32.9682 43.768C32.3442 43.6083 31.6923 43.611 31.2386 43.6405L31.4334 46.6342C31.7572 46.6131 32.046 46.6286 32.2243 46.6743L32.9682 43.768ZM34.4098 46.2014C34.6837 45.1314 34.0383 44.0419 32.9682 43.768L32.2243 46.6743C31.6893 46.5373 31.3666 45.9926 31.5035 45.4576L34.4098 46.2014ZM31.9764 47.6431C33.0465 47.9169 34.1359 47.2715 34.4098 46.2014L31.5035 45.4575C31.6405 44.9225 32.1852 44.5998 32.7202 44.7367L31.9764 47.6431ZM31.2261 47.6599C31.3417 47.6432 31.509 47.6272 31.6763 47.625C31.7584 47.6239 31.8301 47.6264 31.8883 47.6314C31.9493 47.6366 31.9765 47.6431 31.9764 47.6431L32.7203 44.7367C32.0144 44.5561 31.1799 44.6354 30.7967 44.6908L31.2261 47.6599ZM32.4405 46.6325L32.4504 46.5986L29.5724 45.7521L29.5624 45.7859L32.4405 46.6325ZM31.87 49.4257C31.8921 48.8135 32.0817 47.855 32.4408 46.6316L29.5622 45.7868C29.1839 47.0758 28.9078 48.3232 28.8719 49.3175L31.87 49.4257ZM31.8612 49.6817C31.8863 49.7487 31.8825 49.7683 31.8761 49.7122C31.8704 49.6618 31.8648 49.5691 31.87 49.4257L28.8719 49.3175C28.8541 49.8101 28.892 50.3077 29.0522 50.735L31.8612 49.6817ZM31.612 49.2981C31.7661 49.461 31.8349 49.6116 31.8612 49.6817L29.0522 50.735C29.1348 50.9554 29.2559 51.173 29.4328 51.3599L31.612 49.2981ZM30.9938 48.9123C31.0429 48.9276 31.1767 48.9715 31.3291 49.0669C31.4815 49.1623 31.5792 49.2635 31.6117 49.2978L29.4331 51.3602C29.4736 51.403 29.5777 51.5099 29.7373 51.6098C29.8969 51.7097 30.0388 51.7569 30.0993 51.7758L30.9938 48.9123ZM30.6815 48.8049C30.5449 48.8651 30.5002 48.868 30.532 48.8627C30.5487 48.86 30.5934 48.8539 30.6613 48.8554C30.6956 48.8561 30.7398 48.8589 30.7921 48.8663C30.8425 48.8735 30.912 48.8867 30.9939 48.9123L30.0992 51.7758C30.4427 51.8831 30.7752 51.863 31.0179 51.8231C31.2903 51.7784 31.5805 51.6871 31.8915 51.55L30.6815 48.8049ZM31.8905 48.0371C31.3593 48.4418 30.952 48.6856 30.6814 48.8049L31.8915 51.55C32.4633 51.2979 33.0818 50.901 33.7086 50.4234L31.8905 48.0371ZM35.4011 44.6565C34.1946 46.0245 32.9408 47.2369 31.8905 48.0371L33.7086 50.4234C34.9668 49.4648 36.3648 48.0992 37.6511 46.6408L35.4011 44.6565ZM38.4312 40.6353C37.6903 41.853 36.6039 43.2927 35.4011 44.6565L37.6511 46.6408C38.9387 45.1809 40.1395 43.5991 40.9941 42.1947L38.4312 40.6353ZM39.1999 39.1435C39.057 39.5189 38.8037 40.0231 38.4312 40.6353L40.9941 42.1947C41.4205 41.4938 41.7724 40.8181 42.0036 40.2109L39.1999 39.1435ZM39.3269 38.964C39.3097 38.8661 39.3115 38.8 39.3123 38.7816C39.3132 38.7588 39.315 38.7581 39.3104 38.783C39.3011 38.8341 39.2731 38.9512 39.1999 39.1435L42.0036 40.2109C42.2234 39.6335 42.3801 39.0027 42.2813 38.4426L39.3269 38.964ZM39.0531 38.3877C39.155 38.5563 39.2243 38.693 39.2691 38.798C39.2911 38.8498 39.3057 38.8901 39.3149 38.9195C39.3195 38.9341 39.3225 38.9451 39.3244 38.9527C39.3263 38.9604 39.3269 38.9641 39.3269 38.964L42.2813 38.4426C42.1839 37.8906 41.9253 37.34 41.6204 36.8356L39.0531 38.3877ZM11.9558 41.3189C12.4101 40.5819 12.9276 39.8073 13.4536 39.0569L10.997 37.3349C10.447 38.1195 9.8951 38.9447 9.40199 39.7447L11.9558 41.3189ZM10.7407 43.5891C10.9729 43.0141 11.3934 42.2313 11.9558 41.3189L9.40199 39.7447C8.80787 40.7086 8.28481 41.6587 7.95886 42.4661L10.7407 43.5891ZM10.5861 44.0621C10.5872 44.0546 10.5947 44.0108 10.6207 43.9238C10.646 43.8394 10.6845 43.7284 10.7407 43.5891L7.95886 42.4661C7.79679 42.8676 7.66951 43.2674 7.61662 43.6355L10.5861 44.0621ZM10.5812 43.8652C10.5965 43.9908 10.5858 44.0644 10.5861 44.0621L7.61662 43.6355C7.58491 43.8562 7.58171 44.0508 7.60312 44.227L10.5812 43.8652ZM9.4248 42.5895C9.50874 42.6047 9.63357 42.638 9.77667 42.7114L8.40767 45.3808C8.5676 45.4628 8.73195 45.5128 8.89052 45.5415L9.4248 42.5895ZM9.37199 42.5549C9.29635 42.5732 9.26178 42.5759 9.26256 42.5759C9.26347 42.5758 9.27719 42.5748 9.30203 42.5756C9.32598 42.5765 9.36835 42.5793 9.42485 42.5895L8.89048 45.5415C9.28253 45.6125 9.69507 45.5631 10.0758 45.4712L9.37199 42.5549ZM11.0949 41.774C10.3103 42.2197 9.72196 42.4705 9.37199 42.5549L10.0758 45.4712C10.8406 45.2866 11.7213 44.8684 12.5767 44.3825L11.0949 41.774ZM15.1527 38.9404C14.167 39.749 12.5495 40.9476 11.0949 41.774L12.5767 44.3825C14.23 43.4433 15.9918 42.1323 17.0554 41.2598L15.1527 38.9404ZM12.5162 40.2027C13.4458 40.8431 14.5697 41.2675 15.746 41.5567L16.4622 38.6435C15.49 38.4045 14.7443 38.0947 14.2181 37.7322L12.5162 40.2027ZM11.5036 39.5179C11.8511 39.7508 12.1889 39.9773 12.5162 40.2027L14.2181 37.7322C13.8723 37.494 13.5184 37.2568 13.1738 37.0259L11.5036 39.5179ZM11.3902 39.4419L11.5035 39.5179L13.1738 37.0259L13.0604 36.9499L11.3902 39.4419Z" fill="#F8F9FA" mask="url(#path-1-outside-1_50_8057)"/>
<path d="M53.6372 26.9216C50.6024 24.3926 46.2551 27.0744 43.4507 28.867C42.8587 29.2455 42.1773 29.4545 41.4752 29.4805C30.1695 29.8981 9.35213 31.0626 8.70419 32.7074C7.86792 34.8302 10.8913 36.478 13.7861 38.4722C16.6808 40.4664 23.6927 40.2734 30.2541 39.6944C34.8417 39.2896 38.6473 37.935 40.506 36.8031C40.9726 36.5189 41.4542 36.2443 41.9911 36.1432C44.8468 35.6057 48.96 35.9661 51.2847 34.9873C54.4773 33.643 56.6617 29.4421 53.6372 26.9216Z" fill="#38D9A9" stroke="#212529" stroke-width="1.4" stroke-linecap="round" stroke-linejoin="round"/>
<g style="mix-blend-mode:multiply">
<path d="M28.1267 37.0371C33.9721 37.0371 40.1075 34.8199 43.1436 33.5803C43.7134 33.3477 43.9896 32.7065 43.7819 32.1271C43.5517 31.4847 42.8217 31.1783 42.1944 31.4471C39.1132 32.767 33.7382 34.6935 28.1267 34.6935C22.1451 34.6935 15.6267 34.0368 9.82753 31.4963C9.15801 31.2029 8.36564 31.4828 8.06228 32.1479C7.79706 32.7293 7.99206 33.421 8.562 33.7101C13.0621 35.9929 22.0049 37.0371 28.1267 37.0371Z" fill="#CED4DA"/>
</g>
<path d="M16.7112 40.606C18.3523 39.2396 17.9102 36.6987 17.484 35.5991L13.8608 34.9322C11.7545 37.601 7.73525 43.2483 8.50887 44.4878C9.4759 46.037 14.6598 42.314 16.7112 40.606Z" fill="#12B886" stroke="#212529" stroke-width="1.4" stroke-linecap="round"/>
<path d="M11.6331 38.1157C12.1407 38.2295 12.8579 38.5588 13.49 38.9341" stroke="#212529" stroke-linecap="round"/>
<path d="M10.5301 39.6142C10.8333 39.688 11.5535 39.9157 12.0086 40.236" stroke="#212529" stroke-linecap="round"/>
<path d="M41.5152 38.6627C41.1328 36.4953 37.1061 32.9786 35.1405 31.4912L31.3787 35.6635C32.6418 36.5476 33.6957 37.6589 33.2281 38.6627C31.422 42.5406 28.3196 50.4558 30.3595 51.0933C32.9094 51.8901 41.9933 41.3719 41.5152 38.6627Z" fill="#12B886" stroke="#212529" stroke-width="1.4" stroke-linecap="round"/>
<g style="mix-blend-mode:multiply">
<path fill-rule="evenodd" clip-rule="evenodd" d="M37.5705 34.3018C38.852 35.6001 39.9579 36.9984 40.1446 38.0564C40.5789 40.5175 32.6607 49.7998 29.9097 49.8404C29.9893 50.2723 30.1755 50.563 30.4962 50.6633C32.9052 51.4161 41.4871 41.4792 41.0354 38.9197C40.8063 37.6216 39.1936 35.8112 37.5705 34.3018ZM31.5338 36.0033C31.6844 36.148 31.8215 36.2957 31.9405 36.445C31.786 36.3219 31.6244 36.202 31.4591 36.0862L31.5338 36.0033Z" fill="#CED4DA"/>
</g>
<path d="M31.5054 43.5149C32.1029 43.39 33.0234 43.4246 33.8733 43.5617" stroke="#212529" stroke-linecap="round"/>
<path d="M32.4964 41.3623C33.2806 41.3086 34.4915 41.3408 35.6108 41.4239" stroke="#212529" stroke-linecap="round"/>
<path d="M30.8098 45.7863C31.1333 45.7254 31.9231 45.6401 32.4941 45.7863" stroke="#212529" stroke-linecap="round"/>
<path d="M10.5955 23.295L8.01679 29.4068C7.79193 29.9397 8.06477 30.5517 8.61145 30.7407L16.5003 33.4674C16.5805 33.4952 16.6639 33.5126 16.7485 33.5192L25.581 34.2144C25.6315 34.2184 25.6823 34.2185 25.7328 34.2148L35.1551 33.5214C35.2644 33.5133 35.3717 33.4873 35.4726 33.4445L41.7071 30.7967C42.2284 30.5753 42.462 29.9656 42.222 29.4526L38.9148 22.3824C38.8474 22.2384 38.7467 22.1125 38.621 22.0153L33.6033 18.1322C33.4926 18.0465 33.365 17.985 33.229 17.9517L24.7722 15.8827C24.5998 15.8405 24.4193 15.845 24.2492 15.8956L17.3557 17.9484C17.2362 17.9839 17.1244 18.0416 17.0261 18.1183L10.9018 22.8952C10.7672 23.0002 10.6618 23.1378 10.5955 23.295Z" fill="#087F5B" stroke="#212529" stroke-width="1.4" stroke-linecap="round" stroke-linejoin="round"/>
<g style="mix-blend-mode:soft-light" opacity="0.3">
<path d="M17.0546 18.7997L24.2108 16.4912L17.8856 20.1848L12.6084 24.0611L10.0367 30.5268L8.32849 29.7881L11.0063 23.232L17.0546 18.7997Z" fill="#F8F9FA"/>
</g>
<g style="mix-blend-mode:multiply">
<path d="M33.9351 18.7997L26.7788 16.4912L33.1041 20.1848L38.3812 24.0611L40.9529 30.5268L42.6611 29.7881L39.9833 23.232L33.9351 18.7997Z" fill="#CED4DA"/>
</g>
<circle cx="52.0391" cy="28.9539" r="0.739509" fill="#212529"/>
<path d="M11.15 23.2495L18.1073 26.2164C18.6034 26.428 19.1371 26.5371 19.6764 26.5371H29.442C30.0351 26.5371 30.6208 26.4052 31.1567 26.1509L38.6826 22.5801" stroke="#212529" stroke-width="1.2" stroke-linecap="round" stroke-linejoin="round"/>
<path d="M22.0231 20.0054L19.2508 25.5442C19.0683 25.9088 18.9426 26.2992 18.8781 26.7019L17.8888 32.8776" stroke="#212529" stroke-width="1.2" stroke-linecap="round" stroke-linejoin="round"/>
<path d="M27.2103 20.1313L29.9092 25.8637C30.084 26.235 30.2006 26.6309 30.255 27.0377L31.1073 33.414" stroke="#212529" stroke-width="1.2" stroke-linecap="round" stroke-linejoin="round"/>
<path d="M17.4988 18.1319L22.0067 20.0041C22.1282 20.0546 22.2586 20.0806 22.3902 20.0806H27.006C27.1164 20.0806 27.226 20.0623 27.3305 20.0264L32.8522 18.1318" stroke="#212529" stroke-width="1.2" stroke-linecap="round" stroke-linejoin="round"/>
<path d="M27.4732 35.7978C33.5572 35.7978 39.943 33.5805 43.1028 32.3409C43.6911 32.1102 43.9763 31.4494 43.7554 30.8573C43.5198 30.2257 42.8034 29.9232 42.1804 30.1806C38.9847 31.5011 33.3538 33.4543 27.4732 33.4543C21.224 33.4543 14.4117 32.7925 8.3588 30.2278C7.69484 29.9465 6.91699 30.2214 6.60773 30.8728C6.32427 31.4698 6.52827 32.1877 7.12267 32.4767C11.8101 34.7554 21.1072 35.7978 27.4732 35.7978Z" fill="#0CA678" stroke="#212529" stroke-width="1.2" stroke-linecap="round"/>
</svg>
