<svg width="60" height="61" viewBox="0 0 60 61" fill="none" xmlns="http://www.w3.org/2000/svg">
<mask id="path-1-outside-1_50_3762" maskUnits="userSpaceOnUse" x="5.61169" y="10.6543" width="50" height="41" fill="black">
<rect fill="white" x="5.61169" y="10.6543" width="50" height="41"/>
<path fill-rule="evenodd" clip-rule="evenodd" d="M34.3197 14.6597C35.477 13.4264 37.0929 12.6543 38.8858 12.6543C40.0378 12.6543 41.1197 12.9741 42.0533 13.532C42.3726 13.7228 42.6743 13.9414 42.9555 14.1843C43.2367 13.9414 43.5384 13.7228 43.8577 13.532C44.7914 12.9741 45.8732 12.6543 47.0252 12.6543C48.8181 12.6543 50.434 13.4264 51.5913 14.6597C52.7309 15.8742 53.4314 17.542 53.4314 19.3737C53.4314 21.0317 52.8168 22.4835 51.9725 23.6415C51.2936 24.5727 50.1037 25.6757 48.8926 26.7015C47.6608 27.7448 46.3263 28.7747 45.3035 29.5608L45.2976 29.5653L45.2975 29.5654L45.2968 29.5659C44.7335 29.9988 44.2832 30.345 43.993 30.583C43.8838 30.6726 43.7524 30.7838 43.5994 30.9152L42.9337 31.4868L42.2803 30.9011C42.1321 30.7682 42.0053 30.6569 41.9003 30.5683C41.58 30.298 41.052 29.8907 40.3864 29.3773L40.3779 29.3707C39.3538 28.5808 38.0649 27.5825 36.8849 26.5796C35.7244 25.5933 34.5938 24.5404 33.9385 23.6415C33.0941 22.4834 32.4796 21.0317 32.4796 19.3737C32.4796 17.5421 33.18 15.8743 34.3197 14.6597ZM38.8858 14.6543C37.6841 14.6543 36.5847 15.1687 35.7782 16.0283C34.9824 16.8763 34.4796 18.0563 34.4796 19.3737C34.4796 20.5213 34.903 21.5697 35.5545 22.4633L35.5545 22.4633C36.0563 23.1514 37.0215 24.071 38.1801 25.0557C39.3193 26.0239 40.5729 26.9954 41.5994 27.7871L41.6515 27.8273C42.1567 28.217 42.6141 28.5697 42.9582 28.8485C43.2533 28.614 43.6304 28.3242 44.0485 28.0029L44.0847 27.975C45.1095 27.1874 46.409 26.1841 47.5999 25.1753C48.8116 24.1491 49.833 23.1812 50.3564 22.4633C51.0079 21.5697 51.4314 20.5212 51.4314 19.3737C51.4314 18.0563 50.9286 16.8763 50.1328 16.0283C49.3262 15.1687 48.2269 14.6543 47.0252 14.6543C46.2491 14.6543 45.52 14.8686 44.8836 15.2489C44.4497 15.5082 44.0577 15.8458 43.7262 16.2468L42.9555 17.179L42.1848 16.2468C41.8533 15.8458 41.4614 15.5082 41.0274 15.2489C40.391 14.8686 39.6619 14.6543 38.8858 14.6543ZM16.403 24.2627C13.9587 24.2627 11.7506 25.2968 10.1616 26.957C8.58426 28.605 7.61169 30.8751 7.61169 33.3744C7.61169 35.6339 8.4684 37.6178 9.65219 39.2095C10.5922 40.4735 12.2382 41.9788 13.967 43.4172C15.7157 44.8722 17.628 46.3224 19.1532 47.4757L19.1618 47.4823C20.1621 48.2387 20.9705 48.8501 21.4646 49.2589C21.5764 49.3514 21.7034 49.4595 21.8453 49.5826L22.4876 50.1396L23.1407 49.5954C23.2868 49.4736 23.4176 49.366 23.5328 49.2734C23.9782 48.9152 24.6659 48.397 25.513 47.7587L25.5187 47.7544C27.0422 46.6064 29.023 45.1097 30.8491 43.5954C32.6541 42.0986 34.3882 40.5203 35.363 39.2094C36.5467 37.6178 37.4035 35.6339 37.4035 33.3744C37.4035 30.8751 36.4309 28.605 34.8536 26.957C33.2646 25.2968 31.0565 24.2627 28.6122 24.2627C26.2361 24.2627 24.0853 25.2398 22.5078 26.8184C20.9302 25.2399 18.7793 24.2627 16.403 24.2627Z"/>
</mask>
<path fill-rule="evenodd" clip-rule="evenodd" d="M34.3197 14.6597C35.477 13.4264 37.0929 12.6543 38.8858 12.6543C40.0378 12.6543 41.1197 12.9741 42.0533 13.532C42.3726 13.7228 42.6743 13.9414 42.9555 14.1843C43.2367 13.9414 43.5384 13.7228 43.8577 13.532C44.7914 12.9741 45.8732 12.6543 47.0252 12.6543C48.8181 12.6543 50.434 13.4264 51.5913 14.6597C52.7309 15.8742 53.4314 17.542 53.4314 19.3737C53.4314 21.0317 52.8168 22.4835 51.9725 23.6415C51.2936 24.5727 50.1037 25.6757 48.8926 26.7015C47.6608 27.7448 46.3263 28.7747 45.3035 29.5608L45.2976 29.5653L45.2975 29.5654L45.2968 29.5659C44.7335 29.9988 44.2832 30.345 43.993 30.583C43.8838 30.6726 43.7524 30.7838 43.5994 30.9152L42.9337 31.4868L42.2803 30.9011C42.1321 30.7682 42.0053 30.6569 41.9003 30.5683C41.58 30.298 41.052 29.8907 40.3864 29.3773L40.3779 29.3707C39.3538 28.5808 38.0649 27.5825 36.8849 26.5796C35.7244 25.5933 34.5938 24.5404 33.9385 23.6415C33.0941 22.4834 32.4796 21.0317 32.4796 19.3737C32.4796 17.5421 33.18 15.8743 34.3197 14.6597ZM38.8858 14.6543C37.6841 14.6543 36.5847 15.1687 35.7782 16.0283C34.9824 16.8763 34.4796 18.0563 34.4796 19.3737C34.4796 20.5213 34.903 21.5697 35.5545 22.4633L35.5545 22.4633C36.0563 23.1514 37.0215 24.071 38.1801 25.0557C39.3193 26.0239 40.5729 26.9954 41.5994 27.7871L41.6515 27.8273C42.1567 28.217 42.6141 28.5697 42.9582 28.8485C43.2533 28.614 43.6304 28.3242 44.0485 28.0029L44.0847 27.975C45.1095 27.1874 46.409 26.1841 47.5999 25.1753C48.8116 24.1491 49.833 23.1812 50.3564 22.4633C51.0079 21.5697 51.4314 20.5212 51.4314 19.3737C51.4314 18.0563 50.9286 16.8763 50.1328 16.0283C49.3262 15.1687 48.2269 14.6543 47.0252 14.6543C46.2491 14.6543 45.52 14.8686 44.8836 15.2489C44.4497 15.5082 44.0577 15.8458 43.7262 16.2468L42.9555 17.179L42.1848 16.2468C41.8533 15.8458 41.4614 15.5082 41.0274 15.2489C40.391 14.8686 39.6619 14.6543 38.8858 14.6543ZM16.403 24.2627C13.9587 24.2627 11.7506 25.2968 10.1616 26.957C8.58426 28.605 7.61169 30.8751 7.61169 33.3744C7.61169 35.6339 8.4684 37.6178 9.65219 39.2095C10.5922 40.4735 12.2382 41.9788 13.967 43.4172C15.7157 44.8722 17.628 46.3224 19.1532 47.4757L19.1618 47.4823C20.1621 48.2387 20.9705 48.8501 21.4646 49.2589C21.5764 49.3514 21.7034 49.4595 21.8453 49.5826L22.4876 50.1396L23.1407 49.5954C23.2868 49.4736 23.4176 49.366 23.5328 49.2734C23.9782 48.9152 24.6659 48.397 25.513 47.7587L25.5187 47.7544C27.0422 46.6064 29.023 45.1097 30.8491 43.5954C32.6541 42.0986 34.3882 40.5203 35.363 39.2094C36.5467 37.6178 37.4035 35.6339 37.4035 33.3744C37.4035 30.8751 36.4309 28.605 34.8536 26.957C33.2646 25.2968 31.0565 24.2627 28.6122 24.2627C26.2361 24.2627 24.0853 25.2398 22.5078 26.8184C20.9302 25.2399 18.7793 24.2627 16.403 24.2627Z" fill="#F8F9FA"/>
<path d="M34.3197 14.6597L35.4136 15.6861L35.4136 15.6861L34.3197 14.6597ZM42.0533 13.532L42.8228 12.2444L42.8228 12.2444L42.0533 13.532ZM42.9555 14.1843L41.9749 15.3194C42.5381 15.8059 43.3729 15.8059 43.9361 15.3194L42.9555 14.1843ZM43.8577 13.532L44.6271 14.8197L44.6271 14.8197L43.8577 13.532ZM51.5913 14.6597L50.4974 15.6861L50.4974 15.6861L51.5913 14.6597ZM51.9725 23.6415L50.7605 22.7578L50.7605 22.7578L51.9725 23.6415ZM48.8926 26.7015L47.9231 25.5569L47.9231 25.5569L48.8926 26.7015ZM45.3035 29.5608L44.3894 28.3715L44.3891 28.3717L45.3035 29.5608ZM45.2976 29.5653L46.1976 30.7653C46.2024 30.7617 46.2072 30.7581 46.212 30.7544L45.2976 29.5653ZM45.2975 29.5654L44.3975 28.3654C44.3931 28.3686 44.3888 28.372 44.3844 28.3753L45.2975 29.5654ZM45.2968 29.5659L44.3838 28.3758L44.3827 28.3766L45.2968 29.5659ZM43.993 30.583L43.0417 29.4233L43.0417 29.4233L43.993 30.583ZM43.5994 30.9152L44.5766 32.0532L44.5766 32.0532L43.5994 30.9152ZM42.9337 31.4868L41.9323 32.6037C42.493 33.1064 43.3396 33.1154 43.9109 32.6248L42.9337 31.4868ZM42.2803 30.9011L43.2817 29.7842L43.2816 29.7842L42.2803 30.9011ZM41.9003 30.5683L40.9328 31.7146L40.9328 31.7146L41.9003 30.5683ZM40.3864 29.3773L41.3025 28.1896L41.3022 28.1893L40.3864 29.3773ZM40.3779 29.3707L39.4617 30.5585L39.4621 30.5587L40.3779 29.3707ZM36.8849 26.5796L35.9135 27.7226L35.9135 27.7226L36.8849 26.5796ZM33.9385 23.6415L35.1505 22.7578L35.1505 22.7578L33.9385 23.6415ZM35.7782 16.0283L34.6843 15.0019L34.6843 15.0019L35.7782 16.0283ZM35.5545 22.4633L34.3425 23.347C34.3487 23.3555 34.355 23.3639 34.3614 23.3723L35.5545 22.4633ZM35.5545 22.4633L36.7666 21.5796C36.7604 21.571 36.7541 21.5626 36.7477 21.5542L35.5545 22.4633ZM38.1801 25.0557L39.1516 23.9127L39.1516 23.9127L38.1801 25.0557ZM41.5994 27.7871L40.6832 28.9748L40.6833 28.9749L41.5994 27.7871ZM41.6515 27.8273L42.5676 26.6395L42.5676 26.6395L41.6515 27.8273ZM42.9582 28.8485L42.014 30.014C42.5603 30.4566 43.3407 30.4603 43.8912 30.023L42.9582 28.8485ZM44.0485 28.0029L43.1344 26.8135L43.1344 26.8136L44.0485 28.0029ZM44.0847 27.975L44.9988 29.1644L44.9988 29.1643L44.0847 27.975ZM47.5999 25.1753L48.5694 26.3199L48.5694 26.3199L47.5999 25.1753ZM50.3564 22.4633L49.1444 21.5796L49.1444 21.5796L50.3564 22.4633ZM50.1328 16.0283L49.039 17.0547L49.039 17.0547L50.1328 16.0283ZM44.8836 15.2489L45.653 16.5365L45.6531 16.5365L44.8836 15.2489ZM43.7262 16.2468L44.8823 17.2025L44.8823 17.2025L43.7262 16.2468ZM42.9555 17.179L41.7995 18.1348C42.0844 18.4795 42.5083 18.679 42.9555 18.679C43.4028 18.679 43.8266 18.4795 44.1116 18.1348L42.9555 17.179ZM42.1848 16.2468L43.3409 15.291L42.1848 16.2468ZM41.0274 15.2489L41.7969 13.9612L41.7969 13.9612L41.0274 15.2489ZM10.1616 26.957L9.07793 25.9199L9.07793 25.9199L10.1616 26.957ZM9.65219 39.2095L10.8558 38.3144L10.8558 38.3143L9.65219 39.2095ZM13.967 43.4172L13.0076 44.5702L13.0076 44.5702L13.967 43.4172ZM19.1532 47.4757L18.2484 48.6722L18.2487 48.6724L19.1532 47.4757ZM19.1618 47.4823L20.0665 46.2858L20.0663 46.2857L19.1618 47.4823ZM21.4646 49.2589L20.5084 50.4146L20.5084 50.4146L21.4646 49.2589ZM21.8453 49.5826L20.8626 50.7158L20.8626 50.7158L21.8453 49.5826ZM22.4876 50.1396L21.5048 51.2728C22.0603 51.7545 22.883 51.7626 23.4478 51.2919L22.4876 50.1396ZM23.1407 49.5954L22.1804 48.443L22.1804 48.443L23.1407 49.5954ZM23.5328 49.2734L22.5928 48.1045L22.5928 48.1045L23.5328 49.2734ZM25.513 47.7587L24.6104 46.5606L24.6103 46.5607L25.513 47.7587ZM25.5187 47.7544L26.4213 48.9524L26.4214 48.9523L25.5187 47.7544ZM30.8491 43.5954L29.8916 42.4407L29.8916 42.4407L30.8491 43.5954ZM35.363 39.2094L34.1594 38.3143L34.1593 38.3143L35.363 39.2094ZM34.8536 26.957L33.77 27.9942L33.77 27.9942L34.8536 26.957ZM22.5078 26.8184L21.4468 27.8788C21.7282 28.1603 22.1099 28.3184 22.5079 28.3184C22.9059 28.3184 23.2875 28.1602 23.5689 27.8787L22.5078 26.8184ZM38.8858 11.1543C36.6492 11.1543 34.646 12.1199 33.2259 13.6333L35.4136 15.6861C36.308 14.7329 37.5366 14.1543 38.8858 14.1543V11.1543ZM42.8228 12.2444C41.6662 11.5533 40.3198 11.1543 38.8858 11.1543V14.1543C39.7558 14.1543 40.5731 14.3949 41.2839 14.8197L42.8228 12.2444ZM43.9361 13.0492C43.5901 12.7503 43.2179 12.4805 42.8228 12.2444L41.2839 14.8197C41.5274 14.9652 41.7586 15.1325 41.9749 15.3194L43.9361 13.0492ZM43.0883 12.2444C42.6932 12.4805 42.321 12.7503 41.9749 13.0492L43.9361 15.3194C44.1525 15.1325 44.3836 14.9652 44.6271 14.8197L43.0883 12.2444ZM47.0252 11.1543C45.5912 11.1543 44.2448 11.5533 43.0883 12.2444L44.6271 14.8197C45.3379 14.3949 46.1552 14.1543 47.0252 14.1543V11.1543ZM52.6851 13.6333C51.265 12.1199 49.2618 11.1543 47.0252 11.1543V14.1543C48.3744 14.1543 49.603 14.7329 50.4974 15.6861L52.6851 13.6333ZM54.9314 19.3737C54.9314 17.1563 54.0827 15.1227 52.6851 13.6333L50.4974 15.6861C51.3792 16.6258 51.9314 17.9278 51.9314 19.3737H54.9314ZM53.1846 24.5252C54.1733 23.169 54.9314 21.4148 54.9314 19.3737H51.9314C51.9314 20.6486 51.4603 21.7979 50.7605 22.7578L53.1846 24.5252ZM49.862 27.8461C51.0732 26.8202 52.3892 25.6161 53.1846 24.5252L50.7605 22.7578C50.198 23.5293 49.1341 24.5311 47.9231 25.5569L49.862 27.8461ZM46.2176 30.7501C47.2389 29.9651 48.5997 28.9152 49.862 27.8461L47.9231 25.5569C46.7219 26.5743 45.4136 27.5842 44.3894 28.3715L46.2176 30.7501ZM46.212 30.7544L46.2179 30.7499L44.3891 28.3717L44.3832 28.3762L46.212 30.7544ZM46.1975 30.7654L46.1976 30.7653L44.3976 28.3653L44.3975 28.3654L46.1975 30.7654ZM46.2099 30.756L46.2106 30.7554L44.3844 28.3753L44.3838 28.3758L46.2099 30.756ZM44.9444 31.7427C45.2114 31.5237 45.638 31.1955 46.2109 30.7552L44.3827 28.3766C43.829 28.8022 43.3549 29.1663 43.0417 29.4233L44.9444 31.7427ZM44.5766 32.0532C44.726 31.9248 44.8478 31.8219 44.9444 31.7427L43.0417 29.4233C42.9198 29.5232 42.7787 29.6428 42.6221 29.7772L44.5766 32.0532ZM43.9109 32.6248L44.5766 32.0532L42.6221 29.7772L41.9564 30.3489L43.9109 32.6248ZM41.279 32.0179L41.9323 32.6037L43.935 30.37L43.2817 29.7842L41.279 32.0179ZM40.9328 31.7146C41.0217 31.7896 41.1362 31.8899 41.279 32.0179L43.2816 29.7842C43.1281 29.6466 42.9889 29.5242 42.8678 29.4221L40.9328 31.7146ZM39.4703 30.5651C40.15 31.0894 40.6443 31.4711 40.9328 31.7146L42.8678 29.4221C42.5156 29.1248 41.954 28.6921 41.3025 28.1896L39.4703 30.5651ZM39.4621 30.5587L39.4706 30.5653L41.3022 28.1893L41.2937 28.1828L39.4621 30.5587ZM35.9135 27.7226C37.1241 28.7515 38.4395 29.77 39.4617 30.5585L41.294 28.183C40.2682 27.3917 39.0057 26.4136 37.8563 25.4367L35.9135 27.7226ZM32.7264 24.5253C33.4968 25.5819 34.7511 26.7346 35.9135 27.7226L37.8563 25.4367C36.6977 24.4519 35.6908 23.4989 35.1505 22.7578L32.7264 24.5253ZM30.9796 19.3737C30.9796 21.4148 31.7375 23.169 32.7264 24.5253L35.1505 22.7578C34.4506 21.7979 33.9796 20.6486 33.9796 19.3737H30.9796ZM33.2259 13.6333C31.8283 15.1227 30.9796 17.1563 30.9796 19.3737H33.9796C33.9796 17.9278 34.5318 16.6258 35.4136 15.6861L33.2259 13.6333ZM36.872 17.0547C37.4152 16.4758 38.1271 16.1543 38.8858 16.1543V13.1543C37.2411 13.1543 35.7543 13.8617 34.6843 15.0019L36.872 17.0547ZM35.9796 19.3737C35.9796 18.442 36.3342 17.6279 36.872 17.0547L34.6843 15.0019C33.6306 16.1248 32.9796 17.6707 32.9796 19.3737H35.9796ZM36.7666 21.5795C36.26 20.8848 35.9796 20.1389 35.9796 19.3737H32.9796C32.9796 20.9037 33.546 22.2546 34.3425 23.347L36.7666 21.5795ZM36.7477 21.5542L36.7477 21.5542L34.3614 23.3723L34.3614 23.3723L36.7477 21.5542ZM39.1516 23.9127C37.9938 22.9288 37.153 22.1095 36.7666 21.5796L34.3425 23.347C34.9596 24.1934 36.0492 25.2131 37.2087 26.1987L39.1516 23.9127ZM42.5155 26.5994C41.4872 25.8062 40.2601 24.8549 39.1516 23.9127L37.2087 26.1987C38.3785 27.1929 39.6586 28.1845 40.6832 28.9748L42.5155 26.5994ZM42.5676 26.6395L42.5155 26.5993L40.6833 28.9749L40.7354 29.015L42.5676 26.6395ZM43.9024 27.6829C43.5412 27.3903 43.0675 27.0251 42.5676 26.6395L40.7354 29.015C41.246 29.4089 41.687 29.7491 42.014 30.014L43.9024 27.6829ZM43.1344 26.8136C42.7197 27.1323 42.3318 27.4304 42.0251 27.674L43.8912 30.023C44.1749 29.7977 44.541 29.5162 44.9626 29.1922L43.1344 26.8136ZM43.1707 26.7857L43.1344 26.8135L44.9625 29.1922L44.9988 29.1644L43.1707 26.7857ZM46.6305 24.0307C45.4701 25.0136 44.1969 25.997 43.1706 26.7857L44.9988 29.1643C46.0221 28.3779 47.3478 27.3546 48.5694 26.3199L46.6305 24.0307ZM49.1444 21.5796C48.7377 22.1373 47.843 23.0037 46.6305 24.0307L48.5694 26.3199C49.7801 25.2945 50.9283 24.2251 51.5685 23.3469L49.1444 21.5796ZM49.9314 19.3737C49.9314 20.1388 49.6509 20.8848 49.1444 21.5796L51.5685 23.347C52.3649 22.2546 52.9314 20.9037 52.9314 19.3737H49.9314ZM49.039 17.0547C49.5768 17.6278 49.9314 18.442 49.9314 19.3737H52.9314C52.9314 17.6707 52.2804 16.1248 51.2266 15.0019L49.039 17.0547ZM47.0252 16.1543C47.7839 16.1543 48.4958 16.4758 49.039 17.0547L51.2266 15.0019C50.1567 13.8617 48.6698 13.1543 47.0252 13.1543V16.1543ZM45.6531 16.5365C46.0664 16.2895 46.531 16.1543 47.0252 16.1543V13.1543C45.9672 13.1543 44.9736 13.4477 44.1142 13.9612L45.6531 16.5365ZM44.8823 17.2025C45.1076 16.9301 45.3697 16.7058 45.653 16.5365L44.1142 13.9612C43.5296 14.3105 43.0078 14.7616 42.5702 15.291L44.8823 17.2025ZM44.1116 18.1348L44.8823 17.2025L42.5702 15.291L41.7995 16.2233L44.1116 18.1348ZM41.0287 17.2026L41.7995 18.1348L44.1116 16.2232L43.3409 15.291L41.0287 17.2026ZM40.258 16.5365C40.5414 16.7058 40.8035 16.9301 41.0287 17.2026L43.3409 15.291C42.9032 14.7616 42.3814 14.3105 41.7969 13.9612L40.258 16.5365ZM38.8858 16.1543C39.38 16.1543 39.8446 16.2895 40.258 16.5365L41.7969 13.9612C40.9374 13.4477 39.9438 13.1543 38.8858 13.1543V16.1543ZM11.2452 27.9942C12.5695 26.6107 14.3935 25.7627 16.403 25.7627V22.7627C13.5239 22.7627 10.9318 23.983 9.07793 25.9199L11.2452 27.9942ZM9.11169 33.3744C9.11169 31.269 9.92994 29.3684 11.2452 27.9942L9.07793 25.9199C7.23858 27.8416 6.11169 30.4813 6.11169 33.3744H9.11169ZM10.8558 38.3143C9.81799 36.9189 9.11169 35.2414 9.11169 33.3744H6.11169C6.11169 36.0265 7.11882 38.3167 8.44858 40.1046L10.8558 38.3143ZM14.9264 42.2641C13.1987 40.8266 11.6785 39.4206 10.8558 38.3144L8.44856 40.1046C9.50588 41.5264 11.2778 43.131 13.0076 44.5702L14.9264 42.2641ZM20.0579 46.2793C18.5302 45.124 16.6445 43.6937 14.9264 42.2641L13.0076 44.5702C14.7869 46.0507 16.7258 47.5208 18.2484 48.6722L20.0579 46.2793ZM20.0663 46.2857L20.0577 46.2791L18.2487 48.6724L18.2573 48.6789L20.0663 46.2857ZM22.4209 48.1033C21.8948 47.668 21.0528 47.0317 20.0665 46.2858L18.257 48.6787C19.2713 49.4457 20.0462 50.0321 20.5084 50.4146L22.4209 48.1033ZM22.8281 48.4494C22.6805 48.3214 22.5442 48.2053 22.4209 48.1033L20.5084 50.4146C20.6085 50.4974 20.7263 50.5977 20.8626 50.7158L22.8281 48.4494ZM23.4703 49.0063L22.8281 48.4494L20.8626 50.7158L21.5048 51.2728L23.4703 49.0063ZM22.1804 48.443L21.5273 48.9872L23.4478 51.2919L24.1009 50.7477L22.1804 48.443ZM22.5928 48.1045C22.4685 48.2044 22.3305 48.318 22.1804 48.443L24.1009 50.7477C24.2431 50.6293 24.3668 50.5276 24.4729 50.4422L22.5928 48.1045ZM24.6103 46.5607C23.7727 47.1918 23.0613 47.7277 22.5928 48.1045L24.4729 50.4422C24.8951 50.1027 25.5591 49.6021 26.4157 48.9566L24.6103 46.5607ZM24.6161 46.5563L24.6104 46.5606L26.4156 48.9567L26.4213 48.9524L24.6161 46.5563ZM29.8916 42.4407C28.096 43.9297 26.1417 45.4067 24.616 46.5564L26.4214 48.9523C27.9427 47.806 29.9499 46.2897 31.8066 44.75L29.8916 42.4407ZM34.1593 38.3143C33.3033 39.4655 31.6974 40.9433 29.8916 42.4407L31.8066 44.75C33.6108 43.2539 35.4731 41.5751 36.5667 40.1045L34.1593 38.3143ZM35.9035 33.3744C35.9035 35.2414 35.1971 36.9189 34.1594 38.3143L36.5667 40.1045C37.8962 38.3167 38.9035 36.0265 38.9035 33.3744H35.9035ZM33.77 27.9942C35.0852 29.3683 35.9035 31.269 35.9035 33.3744H38.9035C38.9035 30.4813 37.7766 27.8416 35.9372 25.9199L33.77 27.9942ZM28.6122 25.7627C30.6217 25.7627 32.4457 26.6107 33.77 27.9942L35.9372 25.9199C34.0834 23.983 31.4913 22.7627 28.6122 22.7627V25.7627ZM23.5689 27.8787C24.8828 26.5638 26.6586 25.7627 28.6122 25.7627V22.7627C25.8136 22.7627 23.2877 23.9159 21.4468 25.7582L23.5689 27.8787ZM16.403 25.7627C18.3567 25.7627 20.1327 26.5639 21.4468 27.8788L23.5688 25.7581C21.7277 23.9159 19.2018 22.7627 16.403 22.7627V25.7627Z" fill="#F8F9FA" mask="url(#path-1-outside-1_50_3762)"/>
<path d="M47.0036 13.6538C46.0396 13.6538 45.1341 13.9208 44.3491 14.39C43.8147 14.7093 43.3362 15.1225 42.9339 15.6091C42.5317 15.1225 42.0532 14.7093 41.5188 14.39C40.7338 13.9208 39.8283 13.6538 38.8642 13.6538C37.3669 13.6538 36.0093 14.2971 35.0274 15.3435C34.0596 16.3748 33.458 17.7987 33.458 19.3733C33.458 20.776 33.977 22.0261 34.7249 23.0519C35.882 24.6389 38.9165 26.9968 40.967 28.5784C41.6273 29.0877 42.1808 29.5142 42.5237 29.8037C42.6394 29.9013 42.7745 30.02 42.9263 30.156C43.0817 30.0226 43.2196 29.9059 43.3372 29.8094C43.6439 29.5578 44.1125 29.1979 44.6725 28.7674C46.7201 27.1937 49.9406 24.701 51.1429 23.0519C51.8908 22.0261 52.4098 20.776 52.4098 19.3733C52.4098 17.7987 51.8082 16.3748 50.8405 15.3435C49.8585 14.2971 48.5009 13.6538 47.0036 13.6538Z" fill="#F03E3E" stroke="#212529" stroke-width="1.6" stroke-linejoin="round"/>
<path d="M28.5906 25.2622C26.12 25.2622 23.9152 26.4598 22.4863 28.3344C21.0571 26.46 18.8522 25.2622 16.3814 25.2622C14.2268 25.2622 12.2748 26.1723 10.8624 27.648C9.45979 29.1134 8.59009 31.1372 8.59009 33.3739C8.59009 35.3719 9.34663 37.1515 10.433 38.6122C12.1564 40.9297 16.6809 44.3683 19.7347 46.6776C20.7297 47.43 21.5637 48.0603 22.0806 48.488C22.2 48.5868 22.3332 48.7003 22.4789 48.8266C22.6276 48.7027 22.7633 48.5911 22.8845 48.4936C23.3463 48.1222 24.0519 47.5907 24.8953 46.9552C27.9453 44.657 32.7478 41.0209 34.539 38.6122C35.6252 37.1515 36.3819 35.3719 36.3819 33.3739C36.3819 31.1372 35.5122 29.1134 34.1096 27.648C32.6972 26.1723 30.7451 25.2622 28.5906 25.2622Z" fill="#F03E3E" stroke="#212529" stroke-width="1.8" stroke-linejoin="round"/>
<g style="mix-blend-mode:multiply">
<path fill-rule="evenodd" clip-rule="evenodd" d="M21.6204 46.8087C21.7319 46.7161 21.8348 46.6317 21.9284 46.5564C22.348 46.219 22.9871 45.7374 23.7511 45.1617L23.7715 45.1463C26.5672 43.0397 30.9693 39.7067 32.6111 37.4989C33.6069 36.16 34.3004 34.5288 34.3004 32.6974C34.3004 30.6471 33.5032 28.7921 32.2176 27.4489C32.0608 27.2851 31.8968 27.129 31.7262 26.981C32.3015 27.3176 32.8277 27.735 33.2907 28.2188C34.5763 29.5619 35.3735 31.417 35.3735 33.4672C35.3735 35.2986 34.68 36.9299 33.6843 38.2688C32.0424 40.4766 27.6403 43.8096 24.8447 45.9162L24.824 45.9317C24.0601 46.5074 23.4211 46.9889 23.0015 47.3263C22.8904 47.4157 22.7661 47.518 22.6297 47.6315C22.4962 47.5157 22.3741 47.4118 22.2646 47.3212C22.0878 47.1749 21.8706 47.0028 21.6204 46.8087Z" fill="#F03E3E"/>
</g>
<g style="mix-blend-mode:soft-light" opacity="0.8">
<path d="M14.8656 29.0369C15.4773 28.4147 14.7427 27.8176 14.055 27.9753C13.4782 28.1076 12.0593 29.4487 11.3443 30.8038C10.6294 32.1589 11.7023 32.7577 12.1179 32.2683C12.5336 31.779 14.1009 29.8146 14.8656 29.0369Z" fill="#F8F9FA"/>
</g>
<g style="mix-blend-mode:soft-light" opacity="0.8">
<path d="M37.6888 16.6285C37.9928 16.1338 37.4383 15.8557 37.0201 16.0604C36.6695 16.2321 35.9499 17.3132 35.6831 18.2987C35.4163 19.2842 36.1877 19.513 36.3849 19.1337C36.582 18.7544 37.3088 17.2468 37.6888 16.6285Z" fill="#F8F9FA"/>
</g>
</svg>
