<svg width="18" height="18" viewBox="0 0 18 18" fill="none" xmlns="http://www.w3.org/2000/svg">
<path d="M5.75 2C5.75 1.58579 5.41421 1.25 5 1.25C4.58579 1.25 4.25 1.58579 4.25 2V11.7849C4.25 14.4746 6.43037 16.6549 9.12 16.6549H13.24C13.6542 16.6549 13.99 16.3192 13.99 15.9049C13.99 15.4907 13.6542 15.1549 13.24 15.1549H9.12C7.2588 15.1549 5.75 13.6461 5.75 11.7849V9.12069C6.62488 9.95953 7.81224 10.475 9.12 10.475H13.24C13.6542 10.475 13.99 10.1392 13.99 9.725C13.99 9.31079 13.6542 8.975 13.24 8.975H9.12C7.2588 8.975 5.75 7.4662 5.75 5.605V2Z" fill="#27292A"/>
</svg>
