<?xml version="1.0" encoding="UTF-8"?>
<svg width="24px" height="24px" viewBox="0 0 24 24" version="1.1" xmlns="http://www.w3.org/2000/svg" xmlns:xlink="http://www.w3.org/1999/xlink">
    <!-- Generator: Sketch 56 (81588) - https://sketch.com -->
    <title>celebration_five</title>
    <desc>Created with Sketch.</desc>
    <defs>
        <polygon id="path-1" points="0 0 23.9997 0 23.9997 23.9995 0 23.9995"></polygon>
    </defs>
    <g id="celebration_five" stroke="none" stroke-width="1" fill="none" fill-rule="evenodd">
        <g id="Group-10">
            <g id="Group-3">
                <mask id="mask-2" fill="white">
                    <use xlink:href="#path-1"></use>
                </mask>
                <g id="Clip-2"></g>
                <path d="M23.9997,11.9995 C23.9997,18.6275 18.6277,23.9995 11.9997,23.9995 C5.3727,23.9995 -0.0003,18.6275 -0.0003,11.9995 C-0.0003,5.3725 5.3727,-0.0005 11.9997,-0.0005 C18.6277,-0.0005 23.9997,5.3725 23.9997,11.9995" id="Fill-1" fill="#297DF8" mask="url(#mask-2)"></path>
            </g>
            <path d="M20.3981,14.2603 C20.2451,13.6073 19.3871,13.3813 18.2051,13.9603 C17.7821,14.1683 17.0541,14.6653 16.3781,15.0523 C15.8741,15.3403 15.8081,15.1873 16.0521,14.4523 L17.8901,9.3623 C18.4761,7.7383 18.2241,6.7743 17.5701,6.5373 C16.9171,6.3013 15.7251,8.2303 15.4881,8.8883 L16.1171,6.7683 C16.3151,6.1023 16.4461,4.7543 15.5601,4.4913 C14.5841,4.2013 14.0721,5.3583 13.8741,6.0243 L12.9651,8.6613 L13.3741,6.9903 C13.5301,6.3793 13.4341,5.2853 12.7651,5.1153 C12.0481,4.9333 11.5021,5.5263 11.3451,6.1383 L10.7621,7.9513 L10.8281,7.6103 C10.9371,7.1273 10.7021,6.3563 10.1611,6.2333 C9.4941,6.0803 9.1221,7.0983 8.8361,8.3483 L7.6861,13.3893 C7.0511,15.5313 8.1761,18.4133 10.5541,19.1193 C11.4251,19.3773 10.9681,19.2133 11.8351,19.4713 C14.0571,20.1613 15.7061,19.3213 16.7071,18.3813 C17.4361,17.6973 17.6771,16.5033 18.8241,15.7523 C19.3701,15.3953 20.5861,15.0583 20.3981,14.2603" id="Fill-4" fill="#FFFFFF"></path>
            <path d="M3.8024,8.4302 L5.4674,10.0962" id="Stroke-6" stroke="#FFFFFF" stroke-width="1.5" stroke-linecap="round" stroke-linejoin="round"></path>
            <path d="M3.1803,14.1441 L5.3113,13.1371" id="Stroke-8" stroke="#FFFFFF" stroke-width="1.5" stroke-linecap="round" stroke-linejoin="round"></path>
        </g>
    </g>
</svg>