<svg width="268" height="24" viewBox="0 0 268 24" fill="none" xmlns="http://www.w3.org/2000/svg">
<path d="M8.45903 3.40087C9.76748 3.40087 10.9263 3.65275 11.9354 4.15651C12.9531 4.66027 13.7399 5.3673 14.2957 6.27761C14.8602 7.17908 15.1424 8.21753 15.1424 9.39297C15.1424 10.5773 14.8644 11.629 14.3086 12.5481C13.7527 13.4673 12.9745 14.1831 11.9739 14.6957C10.9819 15.1995 9.84017 15.4514 8.54882 15.4514H4.27712V22.5305H2.01941V3.40087H8.45903ZM8.48469 13.4231C9.34843 13.4231 10.1138 13.2596 10.7809 12.9326C11.4479 12.5967 11.9653 12.1327 12.3331 11.5406C12.7093 10.9484 12.8975 10.2768 12.8975 9.52554C12.8975 8.73013 12.7008 8.0231 12.3074 7.40444C11.9226 6.77695 11.3795 6.29087 10.6783 5.94619C9.98555 5.59267 9.19022 5.41591 8.29227 5.41591H4.30278V13.4231H8.48469Z" fill="black" fill-opacity="0.2"/>
<path d="M20.6327 10.7054C21.0518 9.91883 21.6376 9.29134 22.3902 8.82293C23.1513 8.34568 24.1048 8.10264 25.2508 8.0938V10.1486C23.4976 10.1575 22.2833 10.5861 21.6077 11.4345C20.9321 12.2741 20.59 13.3258 20.5814 14.5897V22.5305H18.4007V8.34568H20.5814V10.7054H20.6327Z" fill="black" fill-opacity="0.2"/>
<path d="M33.9225 22.7957C32.4088 22.7957 31.1132 22.4996 30.0356 21.9075C28.9581 21.3153 28.1371 20.4625 27.5726 19.3489C27.0082 18.2353 26.726 16.9052 26.726 15.3586C26.726 13.9003 26.9954 12.6232 27.5342 11.5273C28.0815 10.4314 28.8426 9.58741 29.8175 8.99527C30.801 8.39429 31.9341 8.0938 33.2169 8.0938C34.3971 8.0938 35.4575 8.36778 36.3983 8.91573C37.3475 9.46368 38.1001 10.237 38.656 11.2357C39.2119 12.2255 39.5069 13.37 39.5411 14.6692V15.0802C39.5411 15.5044 39.5283 15.9154 39.5026 16.3131H29.035C29.0521 17.7713 29.5011 18.8849 30.382 19.6538C31.2714 20.4139 32.4943 20.7939 34.0507 20.7939C34.7349 20.7939 35.4447 20.6967 36.1802 20.5022C36.9157 20.3078 37.6041 20.0206 38.2455 19.6405L38.6431 21.417C37.2321 22.3361 35.6585 22.7957 33.9225 22.7957ZM37.2706 14.5101C37.2706 13.6528 37.0995 12.8884 36.7574 12.2167C36.4154 11.545 35.9407 11.0236 35.3335 10.6524C34.7349 10.2723 34.055 10.0823 33.2939 10.0823C32.5071 10.0823 31.793 10.2723 31.1516 10.6524C30.5102 11.0236 29.9971 11.5494 29.6123 12.2299C29.236 12.9016 29.0393 13.6617 29.0222 14.5101H37.2706Z" fill="black" fill-opacity="0.2"/>
<path d="M47.1737 22.7957C46.2073 22.7957 45.2281 22.6233 44.2361 22.2787C43.2526 21.934 42.3547 21.4611 41.5423 20.8602L42.235 19.1368C43.0303 19.667 43.8513 20.0736 44.6979 20.3564C45.5446 20.6304 46.3314 20.7762 47.0583 20.7939C47.9477 20.8027 48.6532 20.6348 49.1749 20.2901C49.7051 19.9454 49.9702 19.4417 49.9702 18.7788C49.9702 18.3458 49.8505 17.9746 49.611 17.6653C49.3801 17.3559 49.0124 17.082 48.5078 16.8433C48.0118 16.6047 47.3405 16.3749 46.4938 16.154C45.0657 15.7739 44.0138 15.2437 43.3382 14.5632C42.6711 13.8738 42.3376 13.0165 42.3376 11.9913C42.3376 11.2313 42.5257 10.5552 42.902 9.96302C43.2869 9.37088 43.8214 8.91131 44.5055 8.5843C45.1982 8.2573 45.9893 8.0938 46.8787 8.0938C47.674 8.0938 48.4736 8.20869 49.2775 8.43848C50.0814 8.65943 50.8254 8.96433 51.5096 9.3532L51.1375 11.2092C49.6923 10.4491 48.3667 10.0691 47.1609 10.0691C46.3912 10.0691 45.7584 10.2414 45.2624 10.5861C44.7663 10.9219 44.5183 11.3727 44.5183 11.9383C44.5183 12.3448 44.6295 12.6939 44.8519 12.9856C45.0742 13.2684 45.4248 13.5291 45.9038 13.7677C46.3827 13.9975 47.0283 14.2273 47.8408 14.4571C49.3374 14.8725 50.4277 15.3983 51.1119 16.0347C51.8046 16.6622 52.151 17.5018 52.151 18.5535C52.151 19.4107 51.9543 20.1576 51.5609 20.7939C51.1675 21.4302 50.5945 21.9251 49.8419 22.2787C49.0979 22.6233 48.2085 22.7957 47.1737 22.7957Z" fill="black" fill-opacity="0.2"/>
<path d="M61.3999 22.7957C59.8862 22.7957 58.5906 22.4996 57.513 21.9075C56.4355 21.3153 55.6145 20.4625 55.0501 19.3489C54.4856 18.2353 54.2034 16.9052 54.2034 15.3586C54.2034 13.9003 54.4728 12.6232 55.0116 11.5273C55.5589 10.4314 56.32 9.58741 57.295 8.99527C58.2784 8.39429 59.4116 8.0938 60.6944 8.0938C61.8745 8.0938 62.935 8.36778 63.8757 8.91573C64.8249 9.46368 65.5775 10.237 66.1334 11.2357C66.6893 12.2255 66.9843 13.37 67.0185 14.6692V15.0802C67.0185 15.5044 67.0057 15.9154 66.98 16.3131H56.5125C56.5296 17.7713 56.9785 18.8849 57.8594 19.6538C58.7488 20.4139 59.9717 20.7939 61.5282 20.7939C62.2123 20.7939 62.9221 20.6967 63.6576 20.5022C64.3931 20.3078 65.0815 20.0206 65.7229 19.6405L66.1206 21.417C64.7095 22.3361 63.1359 22.7957 61.3999 22.7957ZM64.748 14.5101C64.748 13.6528 64.5769 12.8884 64.2349 12.2167C63.8928 11.545 63.4182 11.0236 62.811 10.6524C62.2123 10.2723 61.5324 10.0823 60.7713 10.0823C59.9845 10.0823 59.2705 10.2723 58.6291 10.6524C57.9877 11.0236 57.4745 11.5494 57.0897 12.2299C56.7134 12.9016 56.5167 13.6617 56.4996 14.5101H64.748Z" fill="black" fill-opacity="0.2"/>
<path d="M81.5141 22.5305H79.3205V14.2317C79.3205 12.8353 79.0169 11.788 78.4097 11.0899C77.8025 10.3917 76.9131 10.0426 75.7415 10.0426C75.083 10.0426 74.4844 10.2414 73.9456 10.6391C73.4154 11.028 72.9963 11.5583 72.6885 12.2299C72.3891 12.9016 72.2395 13.6308 72.2395 14.4173V22.5305H70.0459V8.34568H72.2395V10.7982H72.3549C72.7056 9.94976 73.2486 9.28692 73.9841 8.80967C74.7196 8.33242 75.532 8.0938 76.4214 8.0938C78.0719 8.0938 79.3333 8.57989 80.2056 9.55206C81.0779 10.5242 81.5141 11.9206 81.5141 13.7412V22.5305Z" fill="black" fill-opacity="0.2"/>
<path d="M91.507 22.2787C91.2248 22.3582 90.8956 22.4201 90.5193 22.4642C90.1516 22.5084 89.8309 22.5305 89.5572 22.5305H89.5444C87.4064 22.5305 86.3374 21.4037 86.3374 19.15V10.5728H84.1438V8.5843H86.3374V5.19055L88.5181 4.39513V8.5843H91.4044V10.5728H88.5181V18.7656C88.5181 19.2252 88.5652 19.5831 88.6592 19.8394C88.7619 20.0868 88.9115 20.2636 89.1082 20.3697C89.3049 20.4669 89.5786 20.5243 89.9292 20.542C90.5877 20.5243 91.1136 20.4625 91.507 20.3564V22.2787Z" fill="black" fill-opacity="0.2"/>
<path d="M100.705 22.7957C99.191 22.7957 97.8953 22.4996 96.8178 21.9075C95.7403 21.3153 94.9193 20.4625 94.3548 19.3489C93.7904 18.2353 93.5082 16.9052 93.5082 15.3586C93.5082 13.9003 93.7776 12.6232 94.3164 11.5273C94.8637 10.4314 95.6248 9.58741 96.5997 8.99527C97.5832 8.39429 98.7163 8.0938 99.9991 8.0938C101.179 8.0938 102.24 8.36778 103.18 8.91573C104.13 9.46368 104.882 10.237 105.438 11.2357C105.994 12.2255 106.289 13.37 106.323 14.6692V15.0802C106.323 15.5044 106.31 15.9154 106.285 16.3131H95.8172C95.8343 17.7713 96.2833 18.8849 97.1642 19.6538C98.0536 20.4139 99.2765 20.7939 100.833 20.7939C101.517 20.7939 102.227 20.6967 102.962 20.5022C103.698 20.3078 104.386 20.0206 105.028 19.6405L105.425 21.417C104.014 22.3361 102.441 22.7957 100.705 22.7957ZM104.053 14.5101C104.053 13.6528 103.882 12.8884 103.54 12.2167C103.198 11.545 102.723 11.0236 102.116 10.6524C101.517 10.2723 100.837 10.0823 100.076 10.0823C99.2893 10.0823 98.5752 10.2723 97.9338 10.6524C97.2924 11.0236 96.7793 11.5494 96.3945 12.2299C96.0182 12.9016 95.8215 13.6617 95.8044 14.5101H104.053Z" fill="black" fill-opacity="0.2"/>
<path d="M119.292 3.01642H121.473V22.5173H119.292V20.0913H119.19C118.754 20.8955 118.146 21.5451 117.368 22.04C116.59 22.535 115.666 22.7824 114.597 22.7824C113.468 22.7824 112.451 22.4819 111.544 21.8809C110.638 21.28 109.928 20.4448 109.415 19.3754C108.902 18.2972 108.645 17.0687 108.645 15.69C108.645 14.2141 108.906 12.9016 109.428 11.7527C109.949 10.5949 110.668 9.69788 111.583 9.06155C112.498 8.41638 113.524 8.0938 114.661 8.0938C115.662 8.0938 116.56 8.34568 117.355 8.84944C118.151 9.3532 118.771 10.0514 119.215 10.944H119.292V3.01642ZM114.982 21.0458C115.863 21.0458 116.628 20.8071 117.278 20.3299C117.928 19.8526 118.424 19.2384 118.766 18.4872C119.117 17.7271 119.292 16.9317 119.292 16.101V15.279C119.284 14.298 119.091 13.401 118.715 12.5879C118.347 11.766 117.843 11.1164 117.201 10.6391C116.56 10.1619 115.846 9.92325 115.059 9.92325C114.289 9.92325 113.584 10.1707 112.943 10.6656C112.301 11.1517 111.788 11.8322 111.403 12.7072C111.027 13.5821 110.839 14.5764 110.839 15.69C110.839 16.724 111.023 17.6476 111.39 18.4607C111.767 19.2738 112.271 19.9101 112.904 20.3697C113.537 20.8204 114.23 21.0458 114.982 21.0458Z" fill="black" fill-opacity="0.2"/>
<path d="M145.218 20.1973L148.771 8.34568H150.99L146.706 22.5173L143.909 22.5305L141.793 16.0877L139.073 22.5305H136.725L131.492 8.34568H133.749L138.008 20.1973H138.111L140.933 13.4761L139.24 8.33242H141.344L145.115 20.1973H145.218Z" fill="black" fill-opacity="0.2"/>
<path d="M155.711 5.37614H153.299V2.88385H155.711V5.37614ZM155.608 22.5305H153.415V8.34568H155.608V22.5305Z" fill="black" fill-opacity="0.2"/>
<path d="M165.832 22.2787C165.55 22.3582 165.221 22.4201 164.844 22.4642C164.477 22.5084 164.156 22.5305 163.882 22.5305H163.869C161.731 22.5305 160.662 21.4037 160.662 19.15V10.5728H158.469V8.5843H160.662V5.19055L162.843 4.39513V8.5843H165.729V10.5728H162.843V18.7656C162.843 19.2252 162.89 19.5831 162.984 19.8394C163.087 20.0868 163.237 20.2636 163.433 20.3697C163.63 20.4669 163.904 20.5243 164.254 20.542C164.913 20.5243 165.439 20.4625 165.832 20.3564V22.2787Z" fill="black" fill-opacity="0.2"/>
<path d="M180.007 22.5305H177.813V14.2317C177.813 12.8442 177.51 11.8013 176.903 11.1031C176.304 10.3961 175.427 10.0426 174.273 10.0426C173.64 10.0426 173.063 10.2193 172.541 10.5728C172.019 10.9264 171.6 11.408 171.284 12.0178C170.968 12.6277 170.784 13.2993 170.732 14.0329V22.5305H168.539V3.01642H170.732V10.8512H170.822C171.173 9.98511 171.716 9.30901 172.451 8.82293C173.187 8.33684 173.999 8.0938 174.889 8.0938C176.548 8.0938 177.813 8.57989 178.686 9.55206C179.566 10.5242 180.007 11.9206 180.007 13.7412V22.5305Z" fill="black" fill-opacity="0.2"/>
<path d="M203.351 8.12962L199.279 14.7542L203.377 22.2477H198.806L196.021 17.3064L193.053 22.2477H188.481L192.79 14.7542L188.586 8.12962H193.105L196.048 12.8537L198.727 8.12962H203.351Z" fill="black" fill-opacity="0.2"/>
<path d="M205.49 8.12962V22.2477H209.641V14.7814V14.347C209.641 12.8266 210.744 11.4962 212.005 11.4962C213.372 11.4962 214.265 12.5279 214.265 14.1298V22.2477H218.416V14.347C218.416 12.8266 219.44 11.4962 220.649 11.4962C222.068 11.4962 222.987 12.5279 222.987 14.1298V22.2477H227.138V14.0755C227.138 11.7677 226.586 7.58662 221.91 7.58662C219.729 7.58662 218.258 8.69978 217.575 10.003C216.734 8.42828 215.237 7.58662 213.188 7.58662C211.322 7.58662 210.061 8.37398 209.431 9.48713L208.722 8.12962H205.49Z" fill="black" fill-opacity="0.2"/>
<path d="M229.287 8.12962V22.2477H233.438V8.12962H229.287ZM228.735 3.75846C228.735 5.25172 229.918 6.47347 231.389 6.47347C232.807 6.47347 233.99 5.25172 233.99 3.75846C233.99 2.29236 232.807 1.04346 231.389 1.04346C229.918 1.04346 228.735 2.29236 228.735 3.75846Z" fill="black" fill-opacity="0.2"/>
<path d="M235.841 8.12962V22.2477H239.992V14.347C239.992 12.8266 241.095 11.4962 242.356 11.4962C243.801 11.4962 244.616 12.4465 244.616 14.1298V22.2477H248.767V13.9397C248.767 9.84008 246.901 7.58662 243.539 7.58662C241.673 7.58662 240.412 8.37398 239.782 9.48713L239.072 8.12962H235.841Z" fill="black" fill-opacity="0.2"/>
<path d="M257.358 22.5463C258.987 22.5463 260.511 21.949 261.693 20.9173L262.429 22.2477H265.555V3.94851L261.404 2.48241V8.97128C260.248 8.10248 258.856 7.58662 257.358 7.58662C253.47 7.58662 250.344 10.9261 250.344 15.08C250.344 19.2069 253.47 22.5463 257.358 22.5463ZM254.468 14.9986C254.468 12.9895 256.018 11.3605 257.989 11.3605C259.959 11.3605 261.535 12.9895 261.535 14.9986C261.535 17.062 259.959 18.6639 257.989 18.6639C256.018 18.6639 254.468 17.062 254.468 14.9986Z" fill="black" fill-opacity="0.2"/>
</svg>
