<svg width="16" height="16" viewBox="0 0 16 16" fill="none" xmlns="http://www.w3.org/2000/svg">
<path fill-rule="evenodd" clip-rule="evenodd" d="M8.00772 2.69999C7.16981 2.69999 6.37724 2.89416 5.67256 3.23995C5.65346 3.18481 5.63402 3.11989 5.61519 3.0439C5.5554 2.80274 5.49433 2.48759 5.43373 2.09176C5.42241 2.01383 5.40333 1.92727 5.37252 1.83743C6.18148 1.49149 7.07224 1.29999 8.00772 1.29999C11.0258 1.29999 13.5783 3.29327 14.4207 6.03519C14.7475 7.09906 14.2634 8.19895 13.4764 8.98591L8.06033 14.402C7.86359 14.5987 7.59298 14.7085 7.3162 14.6801C3.93655 14.334 1.30005 11.4787 1.30005 8.00766C1.30005 7.45417 1.36709 6.91634 1.49348 6.40185C1.81696 6.44539 2.06696 6.49389 2.25156 6.5439C2.45351 6.59861 2.53 6.66056 2.55149 6.68192C2.57637 6.70666 2.64203 6.78847 2.70287 6.9968C2.72164 7.06106 2.74053 7.13236 2.75945 7.21093C2.72033 7.47081 2.70005 7.73687 2.70005 8.00766C2.70005 10.4261 4.31836 12.4679 6.53052 13.1074C6.15471 11.894 5.91545 10.5593 6.20146 9.41772C6.37975 8.7061 6.76406 8.06207 7.43123 7.59307C8.08565 7.13304 8.95413 6.88201 10.0368 6.83275C11.015 6.78824 11.8711 6.65426 12.3668 6.37654C12.5948 6.24876 12.6793 6.12789 12.7108 6.03038C12.7431 5.93036 12.7626 5.72192 12.5892 5.3333L12.5929 5.33168C11.6716 3.7567 9.96182 2.69999 8.00772 2.69999ZM7.84964 12.6328L12.4865 7.99596C12.5613 7.92111 12.6288 7.84615 12.6892 7.77152C11.9166 8.08873 10.9427 8.19298 10.1004 8.2313C9.18833 8.27281 8.60579 8.4787 8.23635 8.7384C7.87968 8.98913 7.6673 9.32762 7.55948 9.75796C7.36793 10.5225 7.51651 11.5364 7.84964 12.6328Z" fill="#27292A"/>
<path d="M3.14569 5.87546C3.00814 5.76858 2.83887 5.6821 2.63787 5.61601C2.59754 5.60275 2.55594 5.59031 2.51306 5.5787C2.34314 5.53266 2.14388 5.49095 1.91529 5.45357C1.89125 5.44963 1.86688 5.44575 1.84218 5.44191C1.6621 5.41393 1.46477 5.3885 1.25017 5.36561C1.08339 5.34397 1 5.25804 1 5.10781C1 5.04084 1.02351 4.98327 1.07053 4.9351C1.11755 4.88693 1.17743 4.85856 1.25017 4.85001C1.60811 4.80482 1.9152 4.75453 2.17144 4.69914C2.17836 4.69764 2.18525 4.69614 2.1921 4.69464C2.22976 4.68637 2.26629 4.67798 2.30171 4.66949C2.41802 4.64159 2.52553 4.61015 2.62426 4.57517C2.76341 4.52588 2.88509 4.46957 2.98932 4.40623C3.1675 4.29795 3.31116 4.15401 3.4203 3.97442C3.50891 3.82859 3.58617 3.64863 3.65205 3.43451C3.66731 3.38492 3.68196 3.3335 3.696 3.28025C3.72807 3.15863 3.76001 3.02484 3.79183 2.87887C3.79946 2.84386 3.80709 2.80816 3.8147 2.77175C3.84928 2.6065 3.88371 2.42682 3.91799 2.23271C3.94681 2.07757 4.03434 2 4.1806 2C4.33444 2 4.4224 2.07939 4.44449 2.23817C4.4485 2.2644 4.45252 2.29037 4.45656 2.31607C4.45657 2.31606 4.45655 2.31607 4.45656 2.31607L4.45841 2.32782C4.45867 2.32951 4.459 2.33158 4.45927 2.33326C4.49117 2.53524 4.52383 2.72054 4.55727 2.88918C4.58581 3.0331 4.61491 3.16487 4.64457 3.28452C4.64834 3.29973 4.65217 3.31479 4.65607 3.32971C4.66603 3.36784 4.67639 3.40502 4.68717 3.44124C4.72313 3.56212 4.76365 3.67236 4.80873 3.77197C4.84269 3.847 4.87923 3.916 4.91836 3.97897C5.03109 4.16038 5.17823 4.30513 5.35978 4.41322C5.54132 4.52131 5.77463 4.60794 6.05969 4.67313C6.34476 4.73831 6.69543 4.79727 7.11172 4.85001C7.27844 4.87082 7.36179 4.95676 7.36179 5.10781C7.36179 5.17434 7.33923 5.23189 7.2941 5.28048C7.24898 5.32906 7.18818 5.35744 7.11172 5.36561C6.69465 5.42199 6.34515 5.48286 6.06322 5.54824C5.78129 5.61362 5.55126 5.70056 5.37311 5.80906C5.19496 5.91756 5.05141 6.06262 4.94247 6.24422C4.83353 6.42583 4.74171 6.65731 4.66701 6.93867C4.59232 7.22004 4.51814 7.56831 4.44449 7.98349C4.41521 8.13416 4.32725 8.20949 4.1806 8.20949C4.02761 8.20949 3.94008 8.13211 3.91799 7.97736C3.84107 7.45594 3.756 7.03564 3.66277 6.71645C3.56955 6.39726 3.43415 6.14938 3.25659 5.97282C3.22226 5.93868 3.18529 5.90622 3.14569 5.87546Z" fill="#27292A"/>
</svg>
