<svg width="16" height="16" viewBox="0 0 16 16" fill="none" xmlns="http://www.w3.org/2000/svg">
<path fill-rule="evenodd" clip-rule="evenodd" d="M14.4207 6.03525C14.7475 7.09912 14.2634 8.19901 13.4764 8.98597L8.06033 14.402C7.86359 14.5988 7.59298 14.7085 7.3162 14.6802C3.93655 14.334 1.30005 11.4788 1.30005 8.00772C1.30005 4.30317 4.30317 1.30005 8.00772 1.30005C11.0258 1.30005 13.5783 3.29333 14.4207 6.03525ZM6.53052 13.1074C6.15471 11.8941 5.91545 10.5593 6.20146 9.41778C6.37975 8.70616 6.76406 8.06213 7.43123 7.59313C8.08565 7.1331 8.95413 6.88207 10.0368 6.83281C11.015 6.7883 11.8711 6.65432 12.3668 6.3766C12.5948 6.24882 12.6793 6.12795 12.7108 6.03044C12.7431 5.93042 12.7626 5.72198 12.5892 5.33336L12.5929 5.33174C11.6716 3.75676 9.96182 2.70005 8.00772 2.70005C5.07637 2.70005 2.70005 5.07637 2.70005 8.00772C2.70005 10.4261 4.31836 12.4679 6.53052 13.1074ZM7.84964 12.6328L12.4865 7.99602C12.5613 7.92117 12.6288 7.84621 12.6892 7.77159C11.9166 8.08879 10.9427 8.19304 10.1004 8.23136C9.18833 8.27287 8.60579 8.47876 8.23635 8.73846C7.87968 8.98919 7.6673 9.32768 7.55948 9.75803C7.36793 10.5226 7.51651 11.5365 7.84964 12.6328Z" fill="#27292A"/>
</svg>
