<svg width="59" height="19" viewBox="2.2421875 -5.765625 59 19" version="1.1" xmlns="http://www.w3.org/2000/svg"><path d="M14.3 12L14.8 10.0L16.3 10.0L15.8 6.0L9.1 6.0L6.9 10.0L8.5 10.0L8.0 12L2.2 12L2.7 10.0L4.2 10.0L13.1-5.8L16.9-5.8L18.8 10.0L20.5 10.0L20.1 12L14.3 12ZM14.7-4.1L10.2 4.0L15.6 4.0L14.7-4.1ZM33.1-0.1L32.3 3.2L29.9 3.2L30.3 1.8Q29.1 1.8 28.3 2.4Q27.5 2.9 27.0 3.9L27.0 3.9L25.6 10.0L27.6 10.0L27.2 12L22.8 12L25.1 1.9L22.8 1.9L23.3-0.1L27.9-0.1L27.5 1.5Q27.8 1.1 28.2 0.8Q28.6 0.5 29.0 0.3Q29.4 0.0 29.8-0.1Q30.3-0.2 30.8-0.2L30.8-0.2Q31.2-0.2 31.5-0.2Q31.8-0.2 32.1-0.2Q32.5-0.2 33.1-0.1L33.1-0.1ZM34.5 1.9L35.0-0.1L39.4-0.1L39.0 1.9L38.0 1.9L38.8 9.4L43.5 1.9L42.6 1.9L43.0-0.1L47.5-0.1L47.0 1.9L46.1 1.9L39.1 12.2L37.0 12.2L35.7 1.9L34.5 1.9ZM47.8 6.7L47.8 6.7Q47.8 5.7 48.1 4.8Q48.3 3.9 48.8 3.1Q49.3 2.3 49.9 1.6Q50.6 0.9 51.4 0.5Q52.1 0.0 53.0-0.2Q53.9-0.5 54.9-0.5L54.9-0.5Q56.1-0.5 57.1-0.1Q58.2 0.4 58.9 1.1Q59.7 1.8 60.1 2.8Q60.5 3.8 60.5 5.0L60.5 5.0Q60.5 6.0 60.3 6.9Q60.0 7.9 59.5 8.7Q59.1 9.5 58.4 10.2Q57.8 10.8 57.0 11.3Q56.2 11.8 55.3 12.0Q54.4 12.3 53.4 12.3L53.4 12.3Q52.2 12.3 51.2 11.9Q50.2 11.4 49.4 10.7Q48.7 9.9 48.3 8.9Q47.8 7.9 47.8 6.7ZM50.3 6.6L50.3 6.6Q50.3 7.4 50.5 8.1Q50.8 8.7 51.2 9.2Q51.6 9.7 52.2 10.0Q52.9 10.2 53.6 10.2L53.6 10.2Q54.4 10.2 55.3 9.8Q56.1 9.5 56.7 8.8Q57.3 8.1 57.7 7.2Q58.1 6.3 58.1 5.1L58.1 5.1Q58.1 4.3 57.8 3.7Q57.6 3 57.1 2.5Q56.7 2.1 56.1 1.8Q55.5 1.6 54.8 1.6L54.8 1.6Q53.9 1.6 53.1 1.9Q52.3 2.3 51.7 3.0Q51.0 3.6 50.7 4.5Q50.3 5.5 50.3 6.6Z" fill="foregroundcolor"/></svg>