<svg width="127" height="19" viewBox="4.1640625 -6.01171875 127 19" version="1.1" xmlns="http://www.w3.org/2000/svg"><path d="M16.8 6.9L19.6-4.9L22.7-4.9L18.8 12L15.6 12L10.2 0.2L10.0 0.2L7.3 12L4.2 12L8.1-4.9L11.1-4.9L16.7 6.9L16.8 6.9ZM27.9 12.3Q25.3 12.3 24.0 11.1Q22.6 9.8 22.6 7.6L22.6 7.6Q22.6 6.7 22.9 5.6L22.9 5.6Q23.3 3.7 24.4 2.1Q25.5 0.6 27.0-0.2Q28.5-1.0 30.2-1.0L30.2-1.0Q31.7-1.0 32.8-0.5Q33.8 0.1 34.3 1.1Q34.9 2.0 34.9 3.4L34.9 3.4Q34.9 4.2 34.7 5.0L34.7 5.0Q34.6 5.7 34.3 6.6L34.3 6.6L25.6 6.6Q25.5 7.0 25.5 7.5L25.5 7.5Q25.5 8.6 26.2 9.2Q26.9 9.7 28.3 9.7L28.3 9.7Q29.3 9.7 30.5 9.5Q31.7 9.2 32.7 8.8L32.7 8.8L32.7 11.0Q31.4 11.7 30.2 12.0Q29.1 12.3 27.9 12.3L27.9 12.3ZM31.9 4.5Q32.1 4.1 32.1 3.6L32.1 3.6Q32.1 2.6 31.5 2.1Q31.0 1.5 29.9 1.5L29.9 1.5Q29.0 1.5 28.2 1.9Q27.4 2.3 26.8 3.0Q26.2 3.7 26.0 4.5L26.0 4.5L31.9 4.5ZM42.1 7.5L47.4-0.8L50.9-0.8L42.0 12.2L40.2 12.2L37.0-0.8L40.1-0.8L41.9 7.5L42.1 7.5ZM55.2 12.3Q52.6 12.3 51.2 11.1Q49.9 9.8 49.9 7.6L49.9 7.6Q49.9 6.7 50.1 5.6L50.1 5.6Q50.6 3.7 51.7 2.1Q52.7 0.6 54.3-0.2Q55.8-1.0 57.5-1.0L57.5-1.0Q59.0-1.0 60.0-0.5Q61.1 0.1 61.6 1.1Q62.2 2.0 62.2 3.4L62.2 3.4Q62.2 4.2 62.0 5.0L62.0 5.0Q61.9 5.7 61.6 6.6L61.6 6.6L52.8 6.6Q52.7 7.0 52.7 7.5L52.7 7.5Q52.7 8.6 53.4 9.2Q54.2 9.7 55.5 9.7L55.5 9.7Q56.6 9.7 57.8 9.5Q59.0 9.2 60.0 8.8L60.0 8.8L60.0 11.0Q58.7 11.7 57.5 12.0Q56.4 12.3 55.2 12.3L55.2 12.3ZM59.2 4.5Q59.3 4.1 59.3 3.6L59.3 3.6Q59.3 2.6 58.8 2.1Q58.2 1.5 57.2 1.5L57.2 1.5Q56.3 1.5 55.5 1.9Q54.7 2.3 54.1 3.0Q53.5 3.7 53.3 4.5L53.3 4.5L59.2 4.5ZM68.6 1.3Q69.4 0.2 70.5-0.4Q71.7-1.0 73.0-1.0L73.0-1.0L72.4 1.6Q70.8 1.6 69.8 2.1Q68.8 2.7 68.2 3.7Q67.7 4.7 67.3 6.3L67.3 6.3L66.0 12L63.0 12L66.0-0.8L68.9-0.8L68.4 1.3L68.6 1.3ZM83.3 2.3L91.0-4.9L94.3-4.9L90.4 12L87.3 12L90.2-0.5L90.0-0.5L82.8 6.3L82.6 6.3L78.6-0.5L78.4-0.5L75.5 12L72.4 12L76.3-4.9L79.1-4.9L83.3 2.3ZM97.2-3.0L97.9-6.0L100.9-6.0L100.2-3.0L97.2-3.0ZM93.7 12L96.7-0.8L99.6-0.8L96.7 12L93.7 12ZM109.7-1.0Q111.6-1.0 112.7-0.1Q113.7 0.8 113.7 2.5L113.7 2.5Q113.7 3.3 113.5 4.1L113.5 4.1L111.7 12L108.6 12L110.4 4.5Q110.5 3.8 110.5 3.3L110.5 3.3Q110.5 2.4 110.0 1.9Q109.5 1.5 108.3 1.5L108.3 1.5Q107.6 1.5 106.9 1.8Q106.2 2.2 105.7 2.9Q105.2 3.5 104.9 4.4L104.9 4.4L103.1 12L100.1 12L103.0-0.8L106.1-0.8L105.6 1.1L105.8 1.1Q106.4 0.1 107.5-0.5Q108.5-1.0 109.7-1.0L109.7-1.0ZM104.7 4.9L104.8 4.8L104.7 4.9ZM128.0-5.8L130.9-5.8L126.8 12L123.8 12L124.3 10.2L124.1 10.2Q123.3 11.2 122.2 11.7Q121.1 12.3 119.7 12.3L119.7 12.3Q118.4 12.3 117.4 11.7Q116.5 11.1 115.9 10.1Q115.4 9.1 115.4 7.7L115.4 7.7Q115.4 6.8 115.6 5.8L115.6 5.8Q116.1 3.8 117.2 2.3Q118.3 0.7 119.8-0.2Q121.2-1.0 122.9-1.0L122.9-1.0Q124.1-1.0 125.0-0.5Q125.9 0.0 126.3 1.0L126.3 1.0L126.4 1.0L128.0-5.8ZM118.6 5.8Q118.4 6.6 118.4 7.1L118.4 7.1Q118.4 8.0 118.7 8.7Q119.0 9.4 119.6 9.7Q120.1 10.1 120.8 10.1L120.8 10.1Q121.9 10.1 122.8 9.6Q123.7 9.1 124.3 8.3Q124.9 7.5 125.1 6.7L125.1 6.7L125.5 4.9Q125.6 4.5 125.6 4.0L125.6 4.0Q125.6 3.2 125.3 2.6Q124.9 2.0 124.4 1.6Q123.8 1.3 123.0 1.3L123.0 1.3Q122.1 1.3 121.2 1.9Q120.3 2.5 119.6 3.5Q118.9 4.5 118.6 5.8L118.6 5.8Z" fill="foregroundcolor"/></svg>