<svg width="128" height="18" viewBox="6.088 -5.112000000000002 128 18" version="1.1" xmlns="http://www.w3.org/2000/svg"><path d="M17.8 8.7L17.8-4.9L19.6-4.9L19.6 12L18.1 12L7.9-1.6L7.9 12L6.1 12L6.1-4.9L7.6-4.9L17.8 8.7ZM31.4 0.3L33.4 0.3L33.4 12L31.5 12L31.5 10.0Q30.9 11.1 29.9 11.6Q28.9 12.2 27.7 12.2L27.7 12.2Q25.6 12.2 24.5 11.0Q23.5 9.8 23.5 7.6L23.5 7.6L23.5 0.3L25.4 0.3L25.4 7.5Q25.4 9.1 26.1 9.8Q26.7 10.5 28.0 10.5L28.0 10.5Q29.6 10.5 30.5 9.5Q31.4 8.5 31.4 6.9L31.4 6.9L31.4 0.3ZM42.9 0.0Q47.1 0.0 47.1 4.7L47.1 4.7L47.1 12L45.1 12L45.1 4.8Q45.1 3.1 44.5 2.4Q43.9 1.7 42.5 1.7L42.5 1.7Q40.9 1.7 39.9 2.6Q38.9 3.6 38.9 5.3L38.9 5.3L38.9 12L37 12L37 0.3L38.9 0.3L38.9 2.2Q39.5 1.2 40.5 0.6Q41.6 0.0 42.9 0.0L42.9 0.0ZM52.6 12L50.6 12L50.6 0.3L52.6 0.3L52.6 12ZM50.4-2.6L50.4-4.8L52.8-4.8L52.8-2.6L50.4-2.6ZM61.3 10.6Q61.9 10.6 62.4 10.5L62.4 10.5L62.3 12.1Q61.7 12.2 61.1 12.2L61.1 12.2Q59.0 12.2 57.9 11.1Q56.8 10.0 56.8 8.0L56.8 8.0L56.8 1.8L54.6 1.8L54.6 0.3L56.8 0.3L56.8-3.2L58.8-3.2L58.8 0.3L62.1 0.3L62.1 1.8L58.8 1.8L58.8 7.8Q58.8 10.6 61.3 10.6L61.3 10.6ZM69.2 12.2Q67.6 12.2 66.3 11.4Q65.0 10.7 64.3 9.3Q63.7 7.9 63.7 6.1L63.7 6.1Q63.7 4.3 64.3 2.9Q65.0 1.5 66.3 0.8Q67.6 0.0 69.2 0.0L69.2 0.0Q70.9 0.0 72.1 0.8Q73.4 1.5 74.1 2.9Q74.8 4.3 74.8 6.1L74.8 6.1Q74.8 7.9 74.1 9.3Q73.4 10.7 72.1 11.4Q70.9 12.2 69.2 12.2L69.2 12.2ZM69.2 10.6Q70.9 10.6 71.9 9.4Q72.8 8.3 72.8 6.1L72.8 6.1Q72.8 4.0 71.8 2.8Q70.9 1.6 69.2 1.6L69.2 1.6Q67.5 1.6 66.6 2.8Q65.6 4.0 65.6 6.1L65.6 6.1Q65.6 8.3 66.6 9.4Q67.5 10.6 69.2 10.6L69.2 10.6ZM89.5 12.2Q85.6 12.2 83.2 10.1L83.2 10.1L84.0 8.5Q85.2 9.6 86.5 10.1Q87.8 10.5 89.6 10.5L89.6 10.5Q91.6 10.5 92.7 9.7Q93.8 8.9 93.8 7.5L93.8 7.5Q93.8 6.6 93.3 6.1Q92.8 5.6 91.9 5.3Q91.0 5.0 89.6 4.6L89.6 4.6Q87.6 4.2 86.3 3.7Q85.1 3.2 84.3 2.2Q83.5 1.3 83.5-0.2L83.5-0.2Q83.5-1.7 84.3-2.8Q85.0-3.9 86.4-4.5Q87.8-5.1 89.7-5.1L89.7-5.1Q91.4-5.1 93.0-4.6Q94.5-4.0 95.5-3.0L95.5-3.0L94.8-1.5Q93.6-2.5 92.4-3.0Q91.1-3.4 89.7-3.4L89.7-3.4Q87.7-3.4 86.6-2.6Q85.5-1.8 85.5-0.3L85.5-0.3Q85.5 1.0 86.5 1.6Q87.4 2.3 89.4 2.7L89.4 2.7Q91.6 3.3 92.9 3.7Q94.1 4.2 94.9 5.0Q95.8 5.9 95.8 7.4L95.8 7.4Q95.8 8.9 95.0 9.9Q94.3 11.0 92.8 11.6Q91.4 12.2 89.5 12.2L89.5 12.2ZM103.4 0.0Q105.7 0.0 106.8 1.2Q107.8 2.3 107.8 4.6L107.8 4.6L107.8 12L106.0 12L106.0 10.0Q105.5 11.0 104.6 11.6Q103.6 12.2 102.4 12.2L102.4 12.2Q101.3 12.2 100.3 11.7Q99.4 11.3 98.8 10.4Q98.3 9.6 98.3 8.6L98.3 8.6Q98.3 7.3 98.9 6.6Q99.6 5.9 101.2 5.5Q102.7 5.2 105.4 5.2L105.4 5.2L106.0 5.2L106.0 4.4Q106.0 3.0 105.4 2.3Q104.8 1.6 103.4 1.6L103.4 1.6Q101.4 1.6 99.4 2.9L99.4 2.9L98.8 1.5Q99.7 0.8 100.9 0.4Q102.2 0.0 103.4 0.0L103.4 0.0ZM102.7 10.6Q104.1 10.6 105.0 9.7Q106.0 8.7 106.0 7.2L106.0 7.2L106.0 6.5L105.5 6.5Q103.4 6.5 102.3 6.6Q101.2 6.8 100.7 7.2Q100.3 7.7 100.3 8.5L100.3 8.5Q100.3 9.4 100.9 10.0Q101.6 10.6 102.7 10.6L102.7 10.6ZM117.3 0.0Q121.5 0.0 121.5 4.7L121.5 4.7L121.5 12L119.5 12L119.5 4.8Q119.5 3.1 118.9 2.4Q118.3 1.7 116.9 1.7L116.9 1.7Q115.3 1.7 114.3 2.6Q113.3 3.6 113.3 5.3L113.3 5.3L113.3 12L111.4 12L111.4 0.3L113.3 0.3L113.3 2.2Q113.9 1.2 114.9 0.6Q116.0 0.0 117.3 0.0L117.3 0.0ZM129.0 12.2Q126.0 12.2 124.3 10.7L124.3 10.7L125.0 9.2Q125.9 10.0 126.9 10.3Q127.8 10.6 129.1 10.6L129.1 10.6Q130.4 10.6 131.0 10.2Q131.7 9.7 131.7 8.9L131.7 8.9Q131.7 8.2 131.3 7.8Q130.8 7.4 129.8 7.1L129.8 7.1L127.8 6.7Q126.3 6.3 125.5 5.5Q124.7 4.7 124.7 3.5L124.7 3.5Q124.7 1.9 125.9 1.0Q127.2 0.0 129.2 0.0L129.2 0.0Q130.4 0.0 131.5 0.4Q132.6 0.8 133.4 1.6L133.4 1.6L132.7 3.0Q131.1 1.6 129.2 1.6L129.2 1.6Q128.0 1.6 127.3 2.1Q126.6 2.5 126.6 3.4L126.6 3.4Q126.6 4.1 127.0 4.5Q127.5 4.9 128.4 5.1L128.4 5.1L130.4 5.6Q132.0 6 132.8 6.8Q133.6 7.6 133.6 8.8L133.6 8.8Q133.6 10.3 132.4 11.3Q131.1 12.2 129.0 12.2L129.0 12.2Z" fill="foregroundcolor"/></svg>