<svg width="227" height="18" viewBox="4.09375 -5.625 227 18" version="1.1" xmlns="http://www.w3.org/2000/svg"><path d="M15.9 8.5L19.0-4.9L21.1-4.9L17.1 12L15.1 12L9.4-1.4L9.3-1.4L6.2 12L4.1 12L8.0-4.9L10.0-4.9L15.8 8.5L15.9 8.5ZM25.6 12.2Q23.3 12.2 22.1 11.1Q20.9 9.9 20.9 7.8L20.9 7.8Q20.9 6.9 21.2 5.7L21.2 5.7Q21.6 3.8 22.6 2.3Q23.6 0.8 25.0 0.0Q26.4-0.8 28.0-0.8L28.0-0.8Q30.0-0.7 31.1 0.4Q32.1 1.5 32.1 3.4L32.1 3.4Q32.1 4.2 32.0 5.1L32.0 5.1Q31.9 5.5 31.8 5.9Q31.6 6.3 31.6 6.3L31.6 6.3L23.0 6.3Q22.9 7.0 22.9 7.7L22.9 7.7Q22.9 9.0 23.6 9.8Q24.4 10.5 25.9 10.5L25.9 10.5Q26.9 10.5 27.9 10.2Q29.0 10.0 29.9 9.5L29.9 9.5L29.9 11.0Q27.8 12.2 25.6 12.2L25.6 12.2ZM30.1 4.9Q30.2 4.2 30.2 3.6L30.2 3.6Q30.2 2.3 29.6 1.7Q29.0 1.0 27.8 1.0L27.8 1.0Q26.8 1.0 25.9 1.5Q25.0 2.0 24.3 2.9Q23.6 3.8 23.3 4.9L23.3 4.9L30.1 4.9ZM38.4 9.0L44.5-0.5L46.8-0.5L38.3 12.1L37.1 12.1L34.3-0.5L36.4-0.5L38.3 9.0L38.4 9.0ZM50.8 12.2Q48.5 12.2 47.3 11.1Q46.1 9.9 46.1 7.8L46.1 7.8Q46.1 6.9 46.4 5.7L46.4 5.7Q46.8 3.8 47.8 2.3Q48.8 0.8 50.2 0.0Q51.6-0.8 53.2-0.8L53.2-0.8Q55.2-0.7 56.3 0.4Q57.3 1.5 57.3 3.4L57.3 3.4Q57.3 4.2 57.2 5.1L57.2 5.1Q57.1 5.5 56.9 5.9Q56.8 6.3 56.8 6.3L56.8 6.3L48.2 6.3Q48.0 7.0 48.0 7.7L48.0 7.7Q48.0 9.0 48.8 9.8Q49.6 10.5 51.1 10.5L51.1 10.5Q52.0 10.5 53.1 10.2Q54.2 10.0 55.1 9.5L55.1 9.5L55.1 11.0Q53.0 12.2 50.8 12.2L50.8 12.2ZM55.2 4.9Q55.4 4.2 55.4 3.6L55.4 3.6Q55.4 2.3 54.8 1.7Q54.2 1.0 53.0 1.0L53.0 1.0Q52 1.0 51.1 1.5Q50.2 2.0 49.5 2.9Q48.8 3.8 48.5 4.9L48.5 4.9L55.2 4.9ZM62.7 1.5Q63.5 0.4 64.6-0.2Q65.7-0.8 67.1-0.8L67.1-0.8L66.7 1.1Q65.1 1.1 64.1 1.6Q63.1 2.1 62.5 3.2Q61.9 4.3 61.5 6.0L61.5 6.0L60.1 12L58.1 12L61.0-0.5L63.0-0.5L62.6 1.5L62.7 1.5ZM76.5 2.6L84.4-4.9L86.6-4.9L82.7 12L80.6 12L83.8-1.9L83.7-1.9L76.1 5.4L75.9 5.4L71.7-1.9L71.6-1.9L68.4 12L66.3 12L70.2-4.9L72.1-4.9L76.5 2.6ZM89.3-3.2L89.8-5.4L92.0-5.4L91.5-3.2L89.3-3.2ZM85.9 12L88.8-0.5L90.8-0.5L87.9 12L85.9 12ZM99.8-0.8Q101.5-0.8 102.4 0.1Q103.3 0.9 103.3 2.4L103.3 2.4Q103.3 3.2 103.1 4.0L103.1 4.0L101.3 12L99.3 12L101.0 4.4Q101.2 3.6 101.2 3.0L101.2 3.0Q101.2 1.9 100.6 1.5Q100.1 1.0 98.8 1.0L98.8 1.0Q98.0 1.0 97.2 1.4Q96.5 1.8 95.9 2.5Q95.3 3.2 95.1 4.1L95.1 4.1L93.3 12L91.2 12L94.1-0.5L96.2-0.5L95.7 1.3L95.9 1.3Q96.6 0.3 97.6-0.2Q98.6-0.8 99.8-0.8L99.8-0.8ZM117.0-5.6L119.0-5.6L115.0 12L112.9 12L113.4 9.9L113.3 9.9Q112.6 11.0 111.4 11.6Q110.3 12.2 108.9 12.2L108.9 12.2Q107.7 12.2 106.8 11.7Q105.9 11.2 105.4 10.2Q104.9 9.2 104.9 7.9L104.9 7.9Q104.9 7.0 105.2 6.0L105.2 6.0Q105.6 3.9 106.7 2.4Q107.7 0.9 109.0 0.1Q110.4-0.8 111.9-0.8L111.9-0.8Q113.2-0.8 114.1-0.1Q115.0 0.5 115.3 1.7L115.3 1.7L115.3 1.7L117.0-5.6ZM109.5 10.7Q110.6 10.7 111.6 10.2Q112.5 9.7 113.2 8.8Q113.8 7.9 114.1 6.9L114.1 6.9L114.6 5.0Q114.7 4.4 114.7 3.9L114.7 3.9Q114.7 2.5 114.0 1.7Q113.3 0.9 112 0.9L112 0.9Q111.0 0.9 110.0 1.5Q109.0 2.1 108.3 3.3Q107.5 4.5 107.2 6.0L107.2 6.0Q107.0 6.8 107.0 7.5L107.0 7.5Q107.0 8.5 107.3 9.2Q107.6 9.9 108.2 10.3Q108.8 10.7 109.5 10.7L109.5 10.7ZM136.2-3.4Q134.5-3.4 133.0-2.5Q131.4-1.7 130.3-0.1Q129.1 1.5 128.6 3.5L128.6 3.5Q128.4 4.7 128.4 5.7L128.4 5.7Q128.4 7.2 128.9 8.3Q129.4 9.4 130.3 9.9Q131.3 10.5 132.6 10.5L132.6 10.5Q134.1 10.5 135.6 9.7Q137.2 8.8 138.4 7.3L138.4 7.3L139.6 8.3Q138.2 10.3 136.3 11.3Q134.4 12.3 132.4 12.3L132.4 12.3Q130.5 12.3 129.1 11.6Q127.7 10.8 127.0 9.4Q126.3 7.9 126.3 6.0L126.3 6.0Q126.3 4.9 126.5 3.5L126.5 3.5Q127.2 0.9 128.6-1.0Q130.1-3.0 132.1-4.1Q134.2-5.2 136.4-5.2L136.4-5.2Q138.5-5.2 139.9-4.2Q141.3-3.2 141.8-1.2L141.8-1.2L140.2-0.2Q139.8-1.8 138.7-2.6Q137.7-3.4 136.2-3.4L136.2-3.4ZM146.6 12.2Q145.2 12.2 144.2 11.7Q143.1 11.1 142.6 10.1Q142 9.0 142 7.6L142 7.6Q142 6.7 142.2 5.7L142.2 5.7Q142.7 3.8 143.8 2.3Q144.8 0.8 146.4 0.0Q147.9-0.8 149.7-0.8L149.7-0.8Q151.1-0.8 152.1-0.2Q153.2 0.4 153.7 1.4Q154.3 2.4 154.3 3.8L154.3 3.8Q154.3 4.7 154.1 5.7L154.1 5.7Q153.6 7.7 152.5 9.1Q151.4 10.6 149.9 11.4Q148.4 12.2 146.6 12.2L146.6 12.2ZM146.9 10.5Q148.1 10.5 149.1 9.9Q150.2 9.3 151.0 8.2Q151.7 7.1 152.1 5.7L152.1 5.7Q152.3 4.9 152.3 4.1L152.3 4.1Q152.3 2.7 151.5 1.8Q150.7 1.0 149.4 1.0L149.4 1.0Q148.2 1.0 147.1 1.6Q146.1 2.2 145.3 3.2Q144.5 4.3 144.2 5.7L144.2 5.7Q144.0 6.5 144.0 7.3L144.0 7.3Q144.0 8.8 144.8 9.6Q145.5 10.5 146.9 10.5L146.9 10.5ZM163.7-0.8Q165.5-0.8 166.4 0.1Q167.3 0.9 167.3 2.4L167.3 2.4Q167.3 3.2 167.1 4.0L167.1 4.0L165.3 12L163.2 12L165.0 4.4Q165.2 3.6 165.2 3.0L165.2 3.0Q165.2 1.9 164.6 1.5Q164.0 1.0 162.8 1.0L162.8 1.0Q162.0 1.0 161.2 1.4Q160.5 1.8 159.9 2.5Q159.3 3.2 159.1 4.1L159.1 4.1L157.2 12L155.2 12L158.1-0.5L160.1-0.5L159.7 1.3L159.8 1.3Q160.5 0.3 161.6-0.2Q162.6-0.8 163.7-0.8L163.7-0.8ZM181-5.6L183.0-5.6L178.9 12L176.9 12L177.4 9.9L177.3 9.9Q176.5 11.0 175.4 11.6Q174.3 12.2 172.9 12.2L172.9 12.2Q171.6 12.2 170.8 11.7Q169.9 11.2 169.4 10.2Q168.9 9.2 168.9 7.9L168.9 7.9Q168.9 7.0 169.2 6.0L169.2 6.0Q169.6 3.9 170.6 2.4Q171.6 0.9 173.0 0.1Q174.4-0.8 175.9-0.8L175.9-0.8Q177.2-0.8 178.1-0.1Q178.9 0.5 179.3 1.7L179.3 1.7L179.3 1.7L181-5.6ZM173.5 10.7Q174.6 10.7 175.6 10.2Q176.5 9.7 177.2 8.8Q177.8 7.9 178.1 6.9L178.1 6.9L178.6 5.0Q178.7 4.4 178.7 3.9L178.7 3.9Q178.7 2.5 178.0 1.7Q177.3 0.9 176.0 0.9L176.0 0.9Q175.0 0.9 174.0 1.5Q173.0 2.1 172.3 3.3Q171.5 4.5 171.2 6.0L171.2 6.0Q171.0 6.8 171.0 7.5L171.0 7.5Q171.0 8.5 171.3 9.2Q171.6 9.9 172.2 10.3Q172.7 10.7 173.5 10.7L173.5 10.7ZM187.4 12.2Q185.1 12.2 183.9 11.1Q182.7 9.9 182.7 7.8L182.7 7.8Q182.7 6.9 183.0 5.7L183.0 5.7Q183.4 3.8 184.4 2.3Q185.4 0.8 186.8 0.0Q188.2-0.8 189.8-0.8L189.8-0.8Q191.8-0.7 192.9 0.4Q194.0 1.5 194.0 3.4L194.0 3.4Q194.0 4.2 193.8 5.1L193.8 5.1Q193.7 5.5 193.6 5.9Q193.5 6.3 193.4 6.3L193.4 6.3L184.8 6.3Q184.7 7.0 184.7 7.7L184.7 7.7Q184.7 9.0 185.4 9.8Q186.2 10.5 187.7 10.5L187.7 10.5Q188.7 10.5 189.7 10.2Q190.8 10.0 191.7 9.5L191.7 9.5L191.7 11.0Q189.6 12.2 187.4 12.2L187.4 12.2ZM191.9 4.9Q192.0 4.2 192.0 3.6L192.0 3.6Q192.0 2.3 191.4 1.7Q190.8 1.0 189.6 1.0L189.6 1.0Q188.6 1.0 187.7 1.5Q186.8 2.0 186.1 2.9Q185.4 3.8 185.1 4.9L185.1 4.9L191.9 4.9ZM203.3-0.8Q205.0-0.8 206.0 0.1Q206.9 0.9 206.9 2.4L206.9 2.4Q206.9 3.2 206.7 4.0L206.7 4.0L204.9 12L202.8 12L204.6 4.4Q204.8 3.6 204.8 3.0L204.8 3.0Q204.8 1.9 204.2 1.5Q203.6 1.0 202.4 1.0L202.4 1.0Q201.6 1.0 200.8 1.4Q200.0 1.8 199.5 2.5Q198.9 3.2 198.6 4.1L198.6 4.1L196.8 12L194.8 12L197.7-0.5L199.7-0.5L199.3 1.3L199.4 1.3Q200.1 0.3 201.1-0.2Q202.2-0.8 203.3-0.8L203.3-0.8ZM211.7 12.2Q210.5 12.2 209.3 11.8Q208.2 11.4 207.4 10.6L207.4 10.6L208.4 9.2Q209.2 9.9 210.1 10.3Q211.0 10.6 211.9 10.6L211.9 10.6Q212.6 10.6 213.3 10.4Q213.9 10.1 214.4 9.7Q214.8 9.3 214.9 8.7L214.9 8.7Q215.0 8.5 215.0 8.3L215.0 8.3Q215.0 7.6 214.4 7.1Q213.8 6.6 212.6 6.1L212.6 6.1Q211.1 5.5 210.5 4.8Q209.8 4.1 209.8 3.2L209.8 3.2Q209.8 2.7 209.9 2.3L209.9 2.3Q210.1 1.4 210.8 0.7Q211.4 0 212.4-0.4Q213.4-0.8 214.6-0.8L214.6-0.8Q216.7-0.8 218.0 0.3L218.0 0.3L217.7 1.8Q216.2 0.8 214.6 0.8L214.6 0.8Q213.6 0.8 212.8 1.2Q212.1 1.6 211.9 2.4L211.9 2.4Q211.9 2.6 211.9 2.8L211.9 2.8Q211.9 3.4 212.4 3.9Q212.9 4.4 214.0 4.8L214.0 4.8Q215.5 5.4 216.3 6.2Q217.0 6.9 217.0 8.0L217.0 8.0Q217.0 8.3 216.9 8.7L216.9 8.7Q216.6 9.8 215.9 10.6Q215.2 11.4 214.1 11.8Q213.1 12.2 211.7 12.2L211.7 12.2ZM223.8 12.2Q221.5 12.2 220.3 11.1Q219.1 9.9 219.1 7.8L219.1 7.8Q219.1 6.9 219.4 5.7L219.4 5.7Q219.8 3.8 220.8 2.3Q221.8 0.8 223.2 0.0Q224.6-0.8 226.2-0.8L226.2-0.8Q228.2-0.7 229.3 0.4Q230.3 1.5 230.3 3.4L230.3 3.4Q230.3 4.2 230.1 5.1L230.1 5.1Q230.1 5.5 229.9 5.9Q229.8 6.3 229.8 6.3L229.8 6.3L221.2 6.3Q221.0 7.0 221.0 7.7L221.0 7.7Q221.0 9.0 221.8 9.8Q222.6 10.5 224.1 10.5L224.1 10.5Q225.0 10.5 226.1 10.2Q227.2 10.0 228.1 9.5L228.1 9.5L228.1 11.0Q226 12.2 223.8 12.2L223.8 12.2ZM228.2 4.9Q228.4 4.2 228.4 3.6L228.4 3.6Q228.4 2.3 227.8 1.7Q227.2 1.0 226.0 1.0L226.0 1.0Q225.0 1.0 224.1 1.5Q223.2 2.0 222.5 2.9Q221.8 3.8 221.5 4.9L221.5 4.9L228.2 4.9Z" fill="foregroundcolor"/></svg>