<svg width="121" height="24" viewBox="5.41796875 -5.40234375 121 24" version="1.1" xmlns="http://www.w3.org/2000/svg"><path d="M21.5 3.4L21.5 3.4Q21.5 7.6 19.4 9.9Q17.3 12.2 13.5 12.2L13.5 12.2Q9.6 12.2 7.5 9.9Q5.4 7.6 5.4 3.4L5.4 3.4Q5.4-0.9 7.5-3.1Q9.6-5.4 13.5-5.4L13.5-5.4Q17.3-5.4 19.4-3.1Q21.5-0.8 21.5 3.4ZM8.4 3.4L8.4 3.4Q8.4 6.6 9.7 8.2Q10.9 9.8 13.5 9.8L13.5 9.8Q16.0 9.8 17.2 8.2Q18.5 6.6 18.5 3.4L18.5 3.4Q18.5 0.3 17.2-1.4Q16.0-3 13.5-3L13.5-3Q11.0-3 9.7-1.4Q8.4 0.3 8.4 3.4ZM31.4 12.2L31.4 12.2Q29.0 12.2 27.6 10.5L27.6 10.5L27.4 10.5Q27.6 12.1 27.6 12.5L27.6 12.5L27.6 17.8L24.9 17.8L24.9-1.0L27.1-1.0Q27.2-0.6 27.5 0.8L27.5 0.8L27.6 0.8Q28.9-1.2 31.5-1.2L31.5-1.2Q33.9-1.2 35.3 0.6Q36.6 2.3 36.6 5.5L36.6 5.5Q36.6 8.7 35.2 10.5Q33.9 12.2 31.4 12.2ZM30.8 1.1L30.8 1.1Q29.1 1.1 28.4 2.0Q27.6 3.0 27.6 5.1L27.6 5.1L27.6 5.5Q27.6 7.9 28.4 8.9Q29.1 10.0 30.8 10.0L30.8 10.0Q32.2 10.0 33.0 8.8Q33.8 7.6 33.8 5.5L33.8 5.5Q33.8 3.3 33.0 2.2Q32.3 1.1 30.8 1.1ZM45.5 12.2L45.5 12.2Q42.4 12.2 40.7 10.5Q39.0 8.7 39.0 5.6L39.0 5.6Q39.0 2.4 40.6 0.6Q42.2-1.2 45.0-1.2L45.0-1.2Q47.5-1.2 49.0 0.4Q50.5 1.9 50.5 4.7L50.5 4.7L50.5 6.1L41.9 6.1Q41.9 8.0 42.9 9.0Q43.9 10.1 45.6 10.1L45.6 10.1Q46.8 10.1 47.7 9.8Q48.7 9.6 49.9 9.1L49.9 9.1L49.9 11.4Q48.9 11.8 47.8 12.0Q46.8 12.2 45.5 12.2ZM45.0 0.9L45.0 0.9Q43.7 0.9 42.9 1.7Q42.1 2.6 41.9 4.1L41.9 4.1L47.8 4.1Q47.8 2.5 47.0 1.7Q46.3 0.9 45.0 0.9ZM65.0 3.6L65.0 12L62.3 12L62.3 4.0Q62.3 2.5 61.7 1.8Q61.1 1.1 59.8 1.1L59.8 1.1Q58.0 1.1 57.2 2.1Q56.4 3.1 56.4 5.5L56.4 5.5L56.4 12L53.6 12L53.6-1.0L55.8-1.0L56.2 0.7L56.3 0.7Q56.9-0.2 58.0-0.7Q59.1-1.2 60.4-1.2L60.4-1.2Q65.0-1.2 65.0 3.6L65.0 3.6ZM85.3 7.3L85.3 7.3Q85.3 9.6 83.6 10.9Q82.0 12.2 79.1 12.2L79.1 12.2Q76.2 12.2 74.3 11.3L74.3 11.3L74.3 8.7Q75.5 9.2 76.8 9.6Q78.1 9.9 79.3 9.9L79.3 9.9Q80.9 9.9 81.7 9.2Q82.5 8.6 82.5 7.5L82.5 7.5Q82.5 6.6 81.8 5.9Q81.1 5.2 78.8 4.3L78.8 4.3Q76.4 3.4 75.5 2.2Q74.5 0.9 74.5-0.8L74.5-0.8Q74.5-2.9 76.0-4.1Q77.6-5.4 80.1-5.4L80.1-5.4Q82.6-5.4 85.0-4.3L85.0-4.3L84.1-2.0Q81.8-3.0 80.1-3.0L80.1-3.0Q78.7-3.0 78.0-2.4Q77.3-1.8 77.3-0.8L77.3-0.8Q77.3-0.2 77.6 0.3Q77.9 0.8 78.5 1.2Q79.1 1.6 80.8 2.3L80.8 2.3Q82.7 3.1 83.6 3.8Q84.5 4.5 84.9 5.3Q85.3 6.2 85.3 7.3ZM98.4 12L96.4 12L95.9 10.2L95.8 10.2Q94.8 11.4 93.9 11.8Q92.9 12.2 91.4 12.2L91.4 12.2Q89.5 12.2 88.5 11.2Q87.4 10.2 87.4 8.3L87.4 8.3Q87.4 6.3 88.9 5.3Q90.4 4.2 93.4 4.1L93.4 4.1L95.7 4.1L95.7 3.4Q95.7 2.1 95.1 1.5Q94.5 0.9 93.3 0.9L93.3 0.9Q92.3 0.9 91.4 1.2Q90.4 1.5 89.6 1.9L89.6 1.9L88.7-0.1Q89.8-0.6 91.0-0.9Q92.3-1.2 93.4-1.2L93.4-1.2Q95.9-1.2 97.1-0.1Q98.4 1.0 98.4 3.3L98.4 3.3L98.4 12ZM92.3 10.1L92.3 10.1Q93.8 10.1 94.7 9.3Q95.6 8.4 95.6 6.9L95.6 6.9L95.6 5.8L94.0 5.9Q92.0 6.0 91.1 6.5Q90.3 7.1 90.3 8.3L90.3 8.3Q90.3 9.2 90.8 9.7Q91.3 10.1 92.3 10.1ZM113.6 3.6L113.6 12L110.9 12L110.9 4.0Q110.9 2.5 110.3 1.8Q109.7 1.1 108.3 1.1L108.3 1.1Q106.6 1.1 105.8 2.1Q105.0 3.1 105.0 5.5L105.0 5.5L105.0 12L102.2 12L102.2-1.0L104.4-1.0L104.8 0.7L104.9 0.7Q105.5-0.2 106.6-0.7Q107.7-1.2 109.0-1.2L109.0-1.2Q113.6-1.2 113.6 3.6L113.6 3.6ZM126.2 8.3L126.2 8.3Q126.2 10.2 124.8 11.2Q123.4 12.2 120.8 12.2L120.8 12.2Q118.2 12.2 116.7 11.4L116.7 11.4L116.7 9.1Q118.9 10.1 120.9 10.1L120.9 10.1Q123.5 10.1 123.5 8.6L123.5 8.6Q123.5 8.1 123.2 7.8Q122.9 7.4 122.3 7.1Q121.6 6.7 120.5 6.3L120.5 6.3Q118.2 5.4 117.4 4.6Q116.6 3.7 116.6 2.3L116.6 2.3Q116.6 0.6 118.0-0.3Q119.3-1.2 121.6-1.2L121.6-1.2Q123.9-1.2 126.0-0.3L126.0-0.3L125.1 1.8Q123.0 0.9 121.5 0.9L121.5 0.9Q119.4 0.9 119.4 2.2L119.4 2.2Q119.4 2.8 119.9 3.2Q120.5 3.6 122.4 4.4L122.4 4.4Q124.0 5.0 124.7 5.5Q125.5 6.0 125.8 6.7Q126.2 7.4 126.2 8.3Z" fill="foregroundcolor"/></svg>