<svg width="115" height="24" viewBox="5.51171875 -5.40234375 115 24" version="1.1" xmlns="http://www.w3.org/2000/svg"><path d="M20.8 3.4L20.8 3.4Q20.8 7.5 18.8 9.9Q16.8 12.2 13.2 12.2L13.2 12.2Q9.6 12.2 7.6 9.9Q5.5 7.5 5.5 3.4L5.5 3.4Q5.5-0.7 7.6-3.1Q9.6-5.4 13.2-5.4L13.2-5.4Q16.8-5.4 18.8-3.0Q20.8-0.7 20.8 3.4ZM6.8 3.4L6.8 3.4Q6.8 7.1 8.5 9.1Q10.1 11.1 13.2 11.1L13.2 11.1Q16.3 11.1 17.9 9.1Q19.5 7.1 19.5 3.4L19.5 3.4Q19.5-0.3 17.9-2.3Q16.3-4.2 13.2-4.2L13.2-4.2Q10.1-4.2 8.5-2.3Q6.8-0.3 6.8 3.4ZM29.9 12.2L29.9 12.2Q27.0 12.2 25.6 10.0L25.6 10.0L25.6 10.0L25.6 11.0Q25.6 11.9 25.6 12.9L25.6 12.9L25.6 17.8L24.5 17.8L24.5-0.7L25.5-0.7L25.7 1.1L25.8 1.1Q27.1-1.0 29.9-1.0L29.9-1.0Q32.5-1.0 33.9 0.7Q35.2 2.4 35.2 5.6L35.2 5.6Q35.2 8.8 33.8 10.5Q32.4 12.2 29.9 12.2ZM29.9 11.2L29.9 11.2Q31.9 11.2 32.9 9.8Q34 8.3 34 5.7L34 5.7Q34 0.1 29.9 0.1L29.9 0.1Q27.7 0.1 26.7 1.3Q25.6 2.5 25.6 5.3L25.6 5.3L25.6 5.7Q25.6 8.6 26.6 9.9Q27.6 11.2 29.9 11.2ZM43.9 12.2L43.9 12.2Q41.1 12.2 39.6 10.5Q38.0 8.8 38.0 5.7L38.0 5.7Q38.0 2.7 39.5 0.8Q41.0-1.0 43.6-1.0L43.6-1.0Q45.8-1.0 47.1 0.6Q48.4 2.2 48.4 4.9L48.4 4.9L48.4 5.8L39.2 5.8Q39.3 8.4 40.5 9.8Q41.7 11.2 43.9 11.2L43.9 11.2Q45.0 11.2 45.8 11.0Q46.6 10.9 47.9 10.4L47.9 10.4L47.9 11.4Q46.8 11.9 45.9 12.1Q45.0 12.2 43.9 12.2ZM43.6 0.0L43.6 0.0Q41.7 0.0 40.6 1.3Q39.5 2.5 39.3 4.8L39.3 4.8L47.2 4.8Q47.2 2.5 46.2 1.3Q45.3 0.0 43.6 0.0ZM62.0 12L60.8 12L60.8 3.7Q60.8 1.8 60.0 0.9Q59.2 0.1 57.5 0.1L57.5 0.1Q55.2 0.1 54.2 1.2Q53.1 2.4 53.1 5.0L53.1 5.0L53.1 12L51.9 12L51.9-0.7L52.9-0.7L53.1 1.0L53.2 1.0Q54.4-1.0 57.6-1.0L57.6-1.0Q62.0-1.0 62.0 3.7L62.0 3.7L62.0 12ZM82.1 7.6L82.1 7.6Q82.1 9.7 80.5 11.0Q78.9 12.2 76.3 12.2L76.3 12.2Q73.2 12.2 71.5 11.5L71.5 11.5L71.5 10.3Q73.3 11.1 76.2 11.1L76.2 11.1Q78.3 11.1 79.6 10.2Q80.8 9.2 80.8 7.6L80.8 7.6Q80.8 6.7 80.4 6.0Q80.0 5.4 79.0 4.9Q78.1 4.3 76.3 3.7L76.3 3.7Q73.7 2.8 72.7 1.8Q71.7 0.7 71.7-1.0L71.7-1.0Q71.7-3.0 73.2-4.2Q74.7-5.4 77.1-5.4L77.1-5.4Q79.5-5.4 81.6-4.5L81.6-4.5L81.2-3.4Q79.0-4.3 77.1-4.3L77.1-4.3Q75.2-4.3 74.1-3.4Q73.0-2.6 73.0-1.1L73.0-1.1Q73.0-0.1 73.3 0.5Q73.6 1.1 74.4 1.6Q75.2 2.1 77.1 2.8L77.1 2.8Q79.1 3.5 80.1 4.1Q81.1 4.8 81.6 5.6Q82.1 6.4 82.1 7.6ZM94.0 12L93.1 12L92.8 10.0L92.7 10.0Q91.8 11.2 90.8 11.7Q89.8 12.2 88.4 12.2L88.4 12.2Q86.5 12.2 85.5 11.3Q84.4 10.3 84.4 8.6L84.4 8.6Q84.4 6.8 86.0 5.7Q87.5 4.7 90.5 4.6L90.5 4.6L92.9 4.6L92.9 3.7Q92.9 1.9 92.1 1.0Q91.4 0.0 89.8 0.0L89.8 0.0Q88 0.0 86.1 1.0L86.1 1.0L85.7 0.0Q87.8-1.0 89.8-1.0L89.8-1.0Q91.9-1.0 93.0 0.1Q94.0 1.2 94.0 3.5L94.0 3.5L94.0 12ZM88.4 11.2L88.4 11.2Q90.5 11.2 91.7 10.0Q92.8 8.8 92.8 6.8L92.8 6.8L92.8 5.5L90.6 5.6Q87.9 5.7 86.8 6.5Q85.6 7.2 85.6 8.7L85.6 8.7Q85.6 9.9 86.4 10.5Q87.1 11.2 88.4 11.2ZM108.1 12L107.0 12L107.0 3.7Q107.0 1.8 106.2 0.9Q105.4 0.1 103.7 0.1L103.7 0.1Q101.4 0.1 100.3 1.2Q99.3 2.4 99.3 5.0L99.3 5.0L99.3 12L98.1 12L98.1-0.7L99.1-0.7L99.3 1.0L99.4 1.0Q100.6-1.0 103.8-1.0L103.8-1.0Q108.1-1.0 108.1 3.7L108.1 3.7L108.1 12ZM120.2 8.7L120.2 8.7Q120.2 10.4 118.9 11.3Q117.6 12.2 115.2 12.2L115.2 12.2Q112.6 12.2 111.1 11.4L111.1 11.4L111.1 10.2Q113.0 11.2 115.2 11.2L115.2 11.2Q117.1 11.2 118.0 10.5Q119.0 9.9 119.0 8.9L119.0 8.9Q119.0 7.9 118.2 7.2Q117.5 6.6 115.7 6.0L115.7 6.0Q113.8 5.3 113.0 4.8Q112.2 4.3 111.8 3.6Q111.4 3.0 111.4 2.1L111.4 2.1Q111.4 0.7 112.6-0.2Q113.8-1.0 116.0-1.0L116.0-1.0Q118.1-1.0 119.9-0.2L119.9-0.2L119.5 0.8Q117.6 0.1 116.0 0.1L116.0 0.1Q114.4 0.1 113.5 0.6Q112.6 1.1 112.6 2.0L112.6 2.0Q112.6 3.0 113.3 3.6Q114.0 4.2 116.1 4.9L116.1 4.9Q117.8 5.6 118.6 6.1Q119.4 6.6 119.8 7.2Q120.2 7.8 120.2 8.7Z" fill="foregroundcolor"/></svg>