<svg width="241" height="19" viewBox="5.546875 -6.328125 241 19" version="1.1" xmlns="http://www.w3.org/2000/svg"><path d="M16.3 6.0L16.3-4.9L19.8-4.9L19.8 12L16.4 12L9.3 1.1L9.1 1.1L9.1 12L5.5 12L5.6-4.9L9.0-4.9L16.1 6.0L16.3 6.0ZM28.6 12.3Q26.6 12.3 25.2 11.5Q23.8 10.7 23.0 9.2Q22.3 7.7 22.3 5.6L22.3 5.6Q22.3 3.5 22.9 2.0Q23.6 0.5 24.9-0.4Q26.2-1.2 28.0-1.2L28.0-1.2Q29.7-1.1 31.0-0.4Q32.3 0.4 33.0 1.7Q33.7 3.1 33.8 4.9L33.8 4.9Q33.8 5.7 33.7 6.7L33.7 6.7L25.6 6.7Q25.7 7.9 26.6 8.6Q27.4 9.4 28.8 9.4L28.8 9.4Q30.9 9.4 32.6 8.4L32.6 8.4L33.1 11.0Q32.0 11.7 31.0 12.0Q29.9 12.3 28.6 12.3L28.6 12.3ZM30.4 4.4Q30.4 3.2 29.8 2.5Q29.1 1.8 28.0 1.8L28.0 1.8Q27.3 1.8 26.8 2.1Q26.2 2.4 25.9 3.0Q25.6 3.6 25.6 4.4L25.6 4.4L30.4 4.4ZM41.4 6.7L44.3-0.9L48.0-0.9L41.9 12.2L40.5 12.2L34.5-0.9L38.3-0.9L41.2 6.7L41.4 6.7ZM54.9 12.3Q52.9 12.3 51.5 11.5Q50.1 10.7 49.3 9.2Q48.6 7.7 48.6 5.6L48.6 5.6Q48.6 3.5 49.2 2.0Q49.9 0.5 51.2-0.4Q52.5-1.2 54.3-1.2L54.3-1.2Q56.0-1.1 57.3-0.4Q58.6 0.4 59.3 1.7Q60.0 3.1 60.1 4.9L60.1 4.9Q60.1 5.7 60.0 6.7L60.0 6.7L51.9 6.7Q52.0 7.9 52.9 8.6Q53.7 9.4 55.1 9.4L55.1 9.4Q57.2 9.4 58.9 8.4L58.9 8.4L59.4 11.0Q58.3 11.7 57.3 12.0Q56.2 12.3 54.9 12.3L54.9 12.3ZM56.7 4.4Q56.7 3.2 56.1 2.5Q55.4 1.8 54.3 1.8L54.3 1.8Q53.6 1.8 53.1 2.1Q52.5 2.4 52.2 3.0Q51.9 3.6 51.9 4.4L51.9 4.4L56.7 4.4ZM66.1 0.9Q66.7-0.1 67.6-0.6Q68.4-1.1 69.6-1.2L69.6-1.2L69.6 1.8Q68.0 1.8 67.2 2.4Q66.4 2.9 66.2 3.9Q65.9 4.8 65.9 6.4L65.9 6.4L65.9 12L62.5 12L62.5-0.9L65.9-0.9L65.9 0.9L66.1 0.9ZM80.7 1.7L85.9-4.9L89.5-4.9L89.5 12L85.9 12L85.9 0.2L85.8 0.2L80.8 6.4L80.6 6.4L75.6 0.2L75.5 0.2L75.5 12L72.0 12L72.0-4.9L75.5-4.9L80.7 1.7ZM92.6-2.9L92.6-6.3L96.0-6.3L96.0-2.9L92.6-2.9ZM92.6 12L92.6-0.9L96.0-0.9L96.0 12L92.6 12ZM106.0-1.2Q108.2-1.2 109.4 0.1Q110.5 1.4 110.5 3.9L110.5 3.9L110.5 12L107.1 12L107.1 4.6Q107.1 3.2 106.5 2.5Q106.0 1.7 104.8 1.7L104.8 1.7Q103.9 1.7 103.2 2.4Q102.6 3.1 102.5 4.4L102.5 4.4L102.5 12L99.1 12L99.1-0.9L102.5-0.9L102.5 0.8L102.7 0.8Q103.1-0.2 104.0-0.7Q104.8-1.2 106.0-1.2L106.0-1.2ZM121.9-5.9L125.3-5.9L125.3 12L121.9 12L121.9 10.5L121.8 10.5Q121.2 11.3 120.3 11.8Q119.5 12.3 118.3 12.3L118.3 12.3Q116.7 12.3 115.5 11.5Q114.2 10.7 113.6 9.2Q112.9 7.7 112.9 5.8L112.9 5.8Q112.9 3.7 113.6 2.1Q114.2 0.6 115.5-0.3Q116.7-1.2 118.3-1.2L118.3-1.2Q119.4-1.2 120.3-0.7Q121.2-0.3 121.8 0.5L121.8 0.5L121.9 0.5L121.9-5.9ZM119.0 9.8Q119.9 9.8 120.6 9.4Q121.2 9.0 121.5 8.3Q121.8 7.7 121.9 7.0L121.9 7.0L121.9 4.3Q121.8 3.5 121.5 2.8Q121.1 2.2 120.5 1.9Q119.9 1.5 119.1 1.5L119.1 1.5Q118.3 1.5 117.7 2.1Q117.1 2.6 116.7 3.6Q116.3 4.5 116.3 5.8L116.3 5.8Q116.3 6.9 116.7 7.9Q117.0 8.8 117.7 9.3Q118.3 9.8 119.0 9.8L119.0 9.8ZM142.8 9.4Q144.1 9.4 145.2 8.7Q146.3 7.9 147.2 6.6L147.2 6.6L149.5 8.3Q148.5 10.3 146.8 11.4Q145.0 12.4 142.8 12.4L142.8 12.4Q140.4 12.4 138.5 11.3Q136.6 10.2 135.6 8.2Q134.6 6.2 134.5 3.6L134.5 3.6Q134.6 0.9 135.6-1.1Q136.6-3.1 138.5-4.2Q140.4-5.3 142.8-5.3L142.8-5.3Q145.0-5.3 146.8-4.3Q148.5-3.2 149.5-1.2L149.5-1.2L147.2 0.5Q146.3-0.8 145.2-1.5Q144.1-2.3 142.8-2.3L142.8-2.3Q141.5-2.3 140.4-1.5Q139.3-0.8 138.7 0.5Q138.1 1.8 138.1 3.6L138.1 3.6Q138.1 5.3 138.7 6.6Q139.3 7.9 140.4 8.6Q141.4 9.4 142.8 9.4L142.8 9.4ZM157.9 12.3Q156.0 12.3 154.5 11.4Q153.1 10.6 152.3 9.1Q151.5 7.5 151.5 5.5L151.5 5.5Q151.5 3.6 152.3 2.0Q153.1 0.5 154.5-0.3Q156.0-1.2 157.9-1.2L157.9-1.2Q159.8-1.2 161.2-0.3Q162.7 0.5 163.5 2.0Q164.3 3.6 164.3 5.5L164.3 5.5Q164.3 7.5 163.5 9.1Q162.7 10.6 161.2 11.4Q159.8 12.3 157.9 12.3L157.9 12.3ZM157.9 9.3Q158.8 9.3 159.4 8.8Q160.1 8.4 160.5 7.5Q160.9 6.7 160.9 5.5L160.9 5.5Q160.9 4.4 160.5 3.6Q160.1 2.7 159.4 2.3Q158.8 1.8 157.9 1.8L157.9 1.8Q157 1.8 156.3 2.3Q155.6 2.7 155.2 3.6Q154.9 4.4 154.9 5.5L154.9 5.5Q154.9 6.7 155.2 7.5Q155.6 8.4 156.3 8.8Q157 9.3 157.9 9.3L157.9 9.3ZM173.5-1.2Q175.8-1.2 177.0 0.1Q178.1 1.4 178.1 3.9L178.1 3.9L178.1 12L174.7 12L174.7 4.6Q174.7 3.2 174.1 2.5Q173.5 1.7 172.4 1.7L172.4 1.7Q171.4 1.7 170.8 2.4Q170.2 3.1 170.1 4.4L170.1 4.4L170.1 12L166.7 12L166.7-0.9L170.1-0.9L170.1 0.8L170.3 0.8Q170.7-0.2 171.6-0.7Q172.4-1.2 173.5-1.2L173.5-1.2ZM189.5-5.9L192.9-5.9L192.9 12L189.5 12L189.5 10.5L189.4 10.5Q188.8 11.3 187.9 11.8Q187.1 12.3 185.9 12.3L185.9 12.3Q184.3 12.3 183.0 11.5Q181.8 10.7 181.1 9.2Q180.5 7.7 180.5 5.8L180.5 5.8Q180.5 3.7 181.2 2.1Q181.8 0.6 183.1-0.3Q184.3-1.2 185.9-1.2L185.9-1.2Q187.0-1.2 187.9-0.7Q188.8-0.3 189.4 0.5L189.4 0.5L189.5 0.5L189.5-5.9ZM186.6 9.8Q187.5 9.8 188.1 9.4Q188.8 9.0 189.1 8.3Q189.4 7.7 189.5 7.0L189.5 7.0L189.5 4.3Q189.4 3.5 189.0 2.8Q188.7 2.2 188.1 1.9Q187.5 1.5 186.7 1.5L186.7 1.5Q185.9 1.5 185.3 2.1Q184.6 2.6 184.3 3.6Q183.9 4.5 183.9 5.8L183.9 5.8Q183.9 6.9 184.3 7.9Q184.6 8.8 185.3 9.3Q185.9 9.8 186.6 9.8L186.6 9.8ZM201.8 12.3Q199.7 12.3 198.3 11.5Q196.9 10.7 196.1 9.2Q195.4 7.7 195.4 5.6L195.4 5.6Q195.4 3.5 196.1 2.0Q196.8 0.5 198.1-0.4Q199.3-1.2 201.1-1.2L201.1-1.2Q202.8-1.1 204.1-0.4Q205.4 0.4 206.1 1.7Q206.8 3.1 206.9 4.9L206.9 4.9Q206.9 5.7 206.8 6.7L206.8 6.7L198.8 6.7Q198.8 7.9 199.7 8.6Q200.6 9.4 202.0 9.4L202.0 9.4Q204.0 9.4 205.7 8.4L205.7 8.4L206.3 11.0Q205.2 11.7 204.1 12.0Q203.0 12.3 201.8 12.3L201.8 12.3ZM203.5 4.4Q203.5 3.2 202.9 2.5Q202.2 1.8 201.2 1.8L201.2 1.8Q200.4 1.8 199.9 2.1Q199.4 2.4 199.1 3.0Q198.8 3.6 198.8 4.4L198.8 4.4L203.5 4.4ZM216.2-1.2Q218.4-1.2 219.6 0.1Q220.7 1.4 220.7 3.9L220.7 3.9L220.7 12L217.3 12L217.3 4.6Q217.3 3.2 216.7 2.5Q216.2 1.7 215.0 1.7L215.0 1.7Q214.1 1.7 213.4 2.4Q212.8 3.1 212.7 4.4L212.7 4.4L212.7 12L209.3 12L209.3-0.9L212.7-0.9L212.7 0.8L212.9 0.8Q213.3-0.2 214.2-0.7Q215.0-1.2 216.2-1.2L216.2-1.2ZM228.3 12.3Q226.8 12.3 225.3 11.8Q223.9 11.3 222.9 10.5L222.9 10.5L224.1 8.3Q224.9 8.9 226.0 9.2Q227.1 9.6 228.1 9.6L228.1 9.6Q228.8 9.6 229.3 9.3Q229.8 9.0 229.8 8.5L229.8 8.5Q229.8 8.1 229.5 7.8Q229.3 7.5 228.7 7.2Q228.2 6.9 227.2 6.5L227.2 6.5Q225.9 6.0 225.1 5.4Q224.4 4.8 224.0 4.1Q223.6 3.3 223.6 2.3L223.6 2.3Q223.6 1.3 224.2 0.5Q224.7-0.3 225.8-0.7Q226.8-1.2 228.2-1.2L228.2-1.2Q230.6-1.2 232.2 0L232.2 0L232.2 2.4Q230.4 1.5 228.6 1.5L228.6 1.5Q227.9 1.5 227.4 1.7Q227.0 1.9 227.0 2.4L227.0 2.4Q227.0 3.0 227.5 3.5Q228.1 3.9 229.2 4.3L229.2 4.3Q231.2 5.1 232.2 6.1Q233.2 7.2 233.2 8.5L233.2 8.5Q233.2 9.7 232.6 10.5Q232.0 11.4 230.9 11.8Q229.8 12.3 228.3 12.3L228.3 12.3ZM241.2 12.3Q239.2 12.3 237.7 11.5Q236.3 10.7 235.6 9.2Q234.8 7.7 234.8 5.6L234.8 5.6Q234.8 3.5 235.5 2.0Q236.2 0.5 237.5-0.4Q238.8-1.2 240.5-1.2L240.5-1.2Q242.3-1.1 243.6-0.4Q244.9 0.4 245.6 1.7Q246.3 3.1 246.3 4.9L246.3 4.9Q246.3 5.7 246.2 6.7L246.2 6.7L238.2 6.7Q238.2 7.9 239.1 8.6Q240.0 9.4 241.4 9.4L241.4 9.4Q243.4 9.4 245.1 8.4L245.1 8.4L245.7 11.0Q244.6 11.7 243.5 12.0Q242.4 12.3 241.2 12.3L241.2 12.3ZM243.0 4.4Q243.0 3.2 242.3 2.5Q241.7 1.8 240.6 1.8L240.6 1.8Q239.9 1.8 239.3 2.1Q238.8 2.4 238.5 3.0Q238.2 3.6 238.2 4.4L238.2 4.4L243.0 4.4Z" fill="foregroundcolor"/></svg>