<svg width="66" height="18" viewBox="6.304 -5.039999999999999 66 18" version="1.1" xmlns="http://www.w3.org/2000/svg"><path d="M18.8-5.0Q19.3-5.0 19.3-4.5L19.3-4.5L19.3 11.6Q19.3 11.8 19.1 12.0Q19 12.1 18.8 12.1L18.8 12.1Q18.6 12.1 18.5 12.0Q18.4 12.0 18.3 11.8L18.3 11.8L7.2-3.2L7.2 11.6Q7.2 11.8 7.1 12.0Q7.0 12.1 6.8 12.1L6.8 12.1Q6.3 12.1 6.3 11.6L6.3 11.6L6.3-4.5Q6.3-4.7 6.4-4.9Q6.6-5.0 6.8-5.0L6.8-5.0Q7-5.0 7.1-5.0Q7.2-4.9 7.3-4.8L7.3-4.8L18.3 10.3L18.3-4.5Q18.3-4.7 18.5-4.9Q18.6-5.0 18.8-5.0L18.8-5.0ZM32.1 0.1Q32.3 0.1 32.5 0.3Q32.6 0.4 32.6 0.7L32.6 0.7L32.6 11.6Q32.6 12.1 32.1 12.1L32.1 12.1Q31.9 12.1 31.8 12.0Q31.6 11.8 31.6 11.6L31.6 11.6L31.6 9.8Q31.1 10.9 30.0 11.6Q29.0 12.2 27.7 12.2L27.7 12.2Q25.6 12.2 24.6 11.0Q23.6 9.9 23.6 7.7L23.6 7.7L23.6 0.7Q23.6 0.4 23.7 0.3Q23.8 0.1 24.1 0.1L24.1 0.1Q24.3 0.1 24.4 0.3Q24.6 0.4 24.6 0.7L24.6 0.7L24.6 7.6Q24.6 9.5 25.3 10.3Q26.1 11.2 27.6 11.2L27.6 11.2Q29.4 11.2 30.5 10.0Q31.6 8.9 31.6 7.0L31.6 7.0L31.6 0.7Q31.6 0.4 31.7 0.3Q31.9 0.1 32.1 0.1L32.1 0.1ZM41.7 0.1Q45.9 0.1 45.9 4.5L45.9 4.5L45.9 11.6Q45.9 12.1 45.4 12.1L45.4 12.1Q45.2 12.1 45.1 12.0Q44.9 11.8 44.9 11.6L44.9 11.6L44.9 4.6Q44.9 2.8 44.2 1.9Q43.4 1.1 41.8 1.1L41.8 1.1Q39.9 1.1 38.8 2.2Q37.7 3.3 37.7 5.2L37.7 5.2L37.7 11.6Q37.7 11.8 37.6 12.0Q37.4 12.1 37.2 12.1L37.2 12.1Q37.0 12.1 36.8 12.0Q36.7 11.8 36.7 11.6L36.7 11.6L36.7 0.7Q36.7 0.1 37.2 0.1L37.2 0.1Q37.4 0.1 37.6 0.3Q37.7 0.4 37.7 0.7L37.7 0.7L37.7 2.5Q38.2 1.3 39.3 0.7Q40.3 0.1 41.7 0.1L41.7 0.1ZM50.5 12.1Q50.2 12.1 50.1 12.0Q50.0 11.8 50.0 11.6L50.0 11.6L50.0 0.7Q50.0 0.4 50.1 0.3Q50.2 0.1 50.5 0.1L50.5 0.1Q50.7 0.1 50.8 0.3Q51.0 0.4 51.0 0.7L51.0 0.7L51.0 11.6Q51.0 11.8 50.8 12.0Q50.7 12.1 50.5 12.1L50.5 12.1ZM50.5-2.7Q50.1-2.7 49.8-3.0Q49.6-3.2 49.6-3.6L49.6-3.6Q49.6-4.0 49.8-4.2Q50.1-4.5 50.5-4.5L50.5-4.5Q50.8-4.5 51.1-4.2Q51.4-4.0 51.4-3.6L51.4-3.6Q51.4-3.2 51.1-3.0Q50.8-2.7 50.5-2.7L50.5-2.7ZM59.8 11.2Q60.3 11.2 60.3 11.7L60.3 11.7Q60.3 12.2 59.6 12.1L59.6 12.1L59.0 12.1Q57.2 12.0 56.4 11.0Q55.5 10.0 55.5 8.0L55.5 8.0L55.5 1.2L53.5 1.2Q53.4 1.2 53.2 1.1Q53.1 1.0 53.1 0.8L53.1 0.8Q53.1 0.6 53.2 0.5Q53.4 0.4 53.5 0.4L53.5 0.4L55.5 0.4L55.5-2.8Q55.5-3.1 55.7-3.2Q55.8-3.4 56.0-3.4L56.0-3.4Q56.2-3.4 56.4-3.2Q56.5-3.1 56.5-2.8L56.5-2.8L56.5 0.4L59.7 0.4Q59.9 0.4 60.0 0.5Q60.1 0.6 60.1 0.8L60.1 0.8Q60.1 1.0 60.0 1.1Q59.9 1.2 59.7 1.2L59.7 1.2L56.5 1.2L56.5 8.0Q56.5 9.6 57.2 10.3Q57.8 11.0 59.2 11.1L59.2 11.1L59.8 11.2ZM67.0 12.2Q65.4 12.2 64.3 11.4Q63.1 10.7 62.4 9.3Q61.8 7.9 61.8 6.1L61.8 6.1Q61.8 4.3 62.4 3.0Q63.1 1.6 64.3 0.8Q65.4 0.1 67.0 0.1L67.0 0.1Q68.5 0.1 69.7 0.8Q70.9 1.6 71.5 3.0Q72.2 4.3 72.2 6.1L72.2 6.1Q72.2 7.9 71.5 9.3Q70.9 10.7 69.7 11.4Q68.5 12.2 67.0 12.2L67.0 12.2ZM67.0 11.2Q68.9 11.2 70.0 9.9Q71.1 8.6 71.1 6.1L71.1 6.1Q71.1 3.7 70.0 2.4Q68.9 1.1 67.0 1.1L67.0 1.1Q65.1 1.1 64.0 2.4Q62.9 3.7 62.9 6.1L62.9 6.1Q62.9 8.6 63.9 9.9Q65.0 11.2 67.0 11.2L67.0 11.2Z" fill="foregroundcolor"/></svg>