<svg width="74" height="19" viewBox="6.12109375 -6 74 19" version="1.1" xmlns="http://www.w3.org/2000/svg"><path d="M16.7 12L12.5 4.9L7.6 4.9L7.6 12L6.1 12L6.1-5.1L11.7-5.1Q14.4-5.1 15.9-3.7Q17.5-2.4 17.5-0.0L17.5-0.0Q17.5 1.6 16.5 2.9Q15.5 4.1 13.9 4.6L13.9 4.6L18.2 11.8L18.2 12L16.7 12ZM7.6-3.8L7.6 3.7L12.0 3.7Q13.8 3.7 14.9 2.6Q16.0 1.6 16.0-0.0L16.0-0.0Q16.0-1.8 14.9-2.8Q13.7-3.8 11.6-3.8L11.6-3.8L7.6-3.8ZM20.3 5.8L20.3 5.5Q20.3 3.6 21.0 2.2Q21.7 0.7 23.0-0.1Q24.3-0.9 25.9-0.9L25.9-0.9Q28.5-0.9 30.0 0.9Q31.6 2.6 31.6 5.6L31.6 5.6L31.6 5.9Q31.6 7.7 30.9 9.2Q30.2 10.6 28.9 11.4Q27.6 12.2 26.0 12.2L26.0 12.2Q23.4 12.2 21.9 10.5Q20.3 8.7 20.3 5.8L20.3 5.8ZM21.7 5.6L21.7 5.9Q21.7 8.1 22.9 9.6Q24.1 11.1 26.0 11.1L26.0 11.1Q27.9 11.1 29.0 9.6Q30.2 8.1 30.2 5.7L30.2 5.7L30.2 5.5Q30.2 4.0 29.7 2.8Q29.1 1.6 28.2 0.9Q27.2 0.3 25.9 0.3L25.9 0.3Q24.1 0.3 22.9 1.8Q21.7 3.2 21.7 5.6L21.7 5.6ZM44.7 5.6L44.7 5.8Q44.7 8.8 43.4 10.5Q42.1 12.2 39.9 12.2L39.9 12.2Q37.2 12.2 35.9 10.3L35.9 10.3L35.8 12L34.5 12L34.5-6L35.9-6L35.9 1.2Q37.2-0.9 39.8-0.9L39.8-0.9Q42.1-0.9 43.4 0.8Q44.7 2.5 44.7 5.6L44.7 5.6ZM43.3 5.5L43.3 5.5Q43.3 3.0 42.3 1.7Q41.4 0.3 39.6 0.3L39.6 0.3Q38.2 0.3 37.3 1.0Q36.4 1.6 35.9 2.9L35.9 2.9L35.9 8.6Q36.9 11.0 39.6 11.0L39.6 11.0Q41.3 11.0 42.3 9.6Q43.3 8.3 43.3 5.5ZM47.0 5.8L47.0 5.5Q47.0 3.6 47.7 2.2Q48.4 0.7 49.7-0.1Q51.0-0.9 52.7-0.9L52.7-0.9Q55.2-0.9 56.8 0.9Q58.4 2.6 58.4 5.6L58.4 5.6L58.4 5.9Q58.4 7.7 57.6 9.2Q56.9 10.6 55.6 11.4Q54.4 12.2 52.7 12.2L52.7 12.2Q50.2 12.2 48.6 10.5Q47.0 8.7 47.0 5.8L47.0 5.8ZM48.4 5.6L48.4 5.9Q48.4 8.1 49.6 9.6Q50.8 11.1 52.7 11.1L52.7 11.1Q54.6 11.1 55.8 9.6Q57.0 8.1 57.0 5.7L57.0 5.7L57.0 5.5Q57.0 4.0 56.4 2.8Q55.9 1.6 54.9 0.9Q53.9 0.3 52.7 0.3L52.7 0.3Q50.8 0.3 49.6 1.8Q48.4 3.2 48.4 5.6L48.4 5.6ZM62.0-3.9L63.4-3.9L63.4-0.7L66.1-0.7L66.1 0.5L63.4 0.5L63.4 8.9Q63.4 10.0 63.8 10.5Q64.2 11.0 65.1 11.0L65.1 11.0Q65.4 11.0 66.2 10.9L66.2 10.9L66.3 12.0Q65.7 12.2 64.8 12.2L64.8 12.2Q63.3 12.2 62.7 11.4Q62.0 10.6 62.0 8.9L62.0 8.9L62.0 0.5L59.7 0.5L59.7-0.7L62.0-0.7L62.0-3.9ZM67.9 5.8L67.9 5.5Q67.9 3.6 68.7 2.2Q69.4 0.7 70.7-0.1Q72.0-0.9 73.6-0.9L73.6-0.9Q76.1-0.9 77.7 0.9Q79.3 2.6 79.3 5.6L79.3 5.6L79.3 5.9Q79.3 7.7 78.6 9.2Q77.9 10.6 76.6 11.4Q75.3 12.2 73.6 12.2L73.6 12.2Q71.1 12.2 69.5 10.5Q67.9 8.7 67.9 5.8L67.9 5.8ZM69.4 5.6L69.4 5.9Q69.4 8.1 70.5 9.6Q71.7 11.1 73.6 11.1L73.6 11.1Q75.5 11.1 76.7 9.6Q77.9 8.1 77.9 5.7L77.9 5.7L77.9 5.5Q77.9 4.0 77.3 2.8Q76.8 1.6 75.8 0.9Q74.9 0.3 73.6 0.3L73.6 0.3Q71.7 0.3 70.5 1.8Q69.4 3.2 69.4 5.6L69.4 5.6Z" fill="foregroundcolor"/></svg>