<svg width="133" height="17" viewBox="5.848 -4.800000000000001 133 17" version="1.1" xmlns="http://www.w3.org/2000/svg"><path d="M5.8 12L5.8-4.8L10.1-4.8L15.3 5.5L20.5-4.8L24.7-4.8L24.7 12L21.3 12L21.3 0.6L16.5 10.3L14.1 10.3L9.3 0.6L9.3 12L5.8 12ZM34.2-1.0Q36.2-1.0 37.8-0.2Q39.4 0.6 40.2 2.1Q41.1 3.6 41.1 5.5L41.1 5.5Q41.1 7.5 40.2 9.0Q39.4 10.5 37.8 11.3Q36.2 12.1 34.2 12.1L34.2 12.1Q32.1 12.1 30.5 11.3Q29.0 10.5 28.1 9.0Q27.2 7.5 27.2 5.5L27.2 5.5Q27.2 3.6 28.1 2.1Q29.0 0.6 30.5-0.2Q32.1-1.0 34.2-1.0L34.2-1.0ZM34.2 2.0Q32.7 2.0 31.8 3.0Q30.9 4.0 30.9 5.6L30.9 5.6Q30.9 7.2 31.8 8.2Q32.7 9.1 34.2 9.1L34.2 9.1Q35.6 9.1 36.5 8.2Q37.4 7.2 37.4 5.6L37.4 5.6Q37.4 4.0 36.5 3.0Q35.6 2.0 34.2 2.0L34.2 2.0ZM51.7-1.1Q53.8-1.1 55.1 0.3Q56.4 1.6 56.4 3.9L56.4 3.9L56.4 12L52.7 12L52.7 5.0Q52.7 3.7 52.0 3.0Q51.4 2.3 50.2 2.3L50.2 2.3Q48.8 2.4 48.0 3.3Q47.2 4.2 47.2 5.6L47.2 5.6L47.2 12L43.5 12L43.5-0.9L47.2-0.9L47.2 1.3Q48.6-1.0 51.7-1.1L51.7-1.1ZM66.8 8.6L67.6 11.3Q66.9 11.7 66.0 11.9Q65.1 12.2 64.2 12.2L64.2 12.2Q62.4 12.2 61.3 11.1Q60.2 10.1 60.2 8.2L60.2 8.2L60.2 2.2L58.4 2.2L58.4-0.3L60.2-0.3L60.2-3.9L63.9-3.9L63.9-0.3L67.4-0.3L67.4 2.2L63.9 2.2L63.9 7.6Q63.9 9.0 65.0 9.0L65.0 9.0Q65.8 9.0 66.8 8.6L66.8 8.6ZM78.0 2.9Q76.9 2.3 75.9 2.0Q74.8 1.6 74.0 1.6L74.0 1.6Q73.4 1.6 73.0 1.9Q72.5 2.1 72.5 2.6L72.5 2.6Q72.5 3.1 73.1 3.4Q73.6 3.7 74.9 4.1L74.9 4.1Q76.3 4.5 77.2 4.9Q78.0 5.3 78.7 6.0Q79.3 6.8 79.3 8.1L79.3 8.1Q79.3 10.0 77.9 11.1Q76.4 12.1 74.1 12.1L74.1 12.1Q72.5 12.1 71.0 11.7Q69.6 11.2 68.5 10.3L68.5 10.3L69.7 7.8Q70.7 8.6 71.9 9.0Q73.1 9.5 74.2 9.5L74.2 9.5Q74.9 9.5 75.4 9.2Q75.8 9.0 75.8 8.4L75.8 8.4Q75.8 7.9 75.2 7.6Q74.7 7.3 73.4 6.9L73.4 6.9Q72.1 6.5 71.2 6.1Q70.4 5.8 69.7 5.0Q69.1 4.2 69.1 3.0L69.1 3.0Q69.1 1.0 70.6-0.0Q72.0-1.1 74.2-1.1L74.2-1.1Q75.5-1.1 76.8-0.7Q78.2-0.3 79.2 0.4L79.2 0.4L78.0 2.9ZM87.4-1.0Q90.5-1.0 92.1 0.8Q93.7 2.6 93.7 5.8L93.7 5.8Q93.7 6.4 93.7 6.7L93.7 6.7L84.4 6.7Q84.7 7.9 85.6 8.6Q86.5 9.3 87.8 9.3L87.8 9.3Q88.7 9.3 89.5 8.9Q90.4 8.6 91.0 7.9L91.0 7.9L93.0 9.9Q92.0 11.0 90.6 11.6Q89.2 12.1 87.4 12.1L87.4 12.1Q85.4 12.1 83.9 11.3Q82.4 10.5 81.5 9.0Q80.7 7.5 80.7 5.6L80.7 5.6Q80.7 3.6 81.5 2.1Q82.4 0.6 83.9-0.2Q85.4-1.0 87.4-1.0L87.4-1.0ZM84.4 4.5L90.2 4.5Q90.2 3.2 89.4 2.4Q88.6 1.7 87.4 1.7L87.4 1.7Q86.2 1.7 85.4 2.4Q84.6 3.2 84.4 4.5L84.4 4.5ZM99.8 1.4Q100.5 0.2 101.6-0.4Q102.7-1.0 104.1-1.1L104.1-1.1L104.1 2.4Q103.9 2.4 103.5 2.4L103.5 2.4Q101.8 2.4 100.8 3.3Q99.8 4.2 99.8 5.8L99.8 5.8L99.8 12L96.1 12L96.1-0.9L99.8-0.9L99.8 1.4ZM109.8 1.4Q110.5 0.2 111.6-0.4Q112.6-1.0 114.1-1.1L114.1-1.1L114.1 2.4Q113.9 2.4 113.5 2.4L113.5 2.4Q111.8 2.4 110.8 3.3Q109.8 4.2 109.8 5.8L109.8 5.8L109.8 12L106.1 12L106.1-0.9L109.8-0.9L109.8 1.4ZM126.8 12L123.2 12L123.2 10.5Q122.5 11.3 121.5 11.7Q120.5 12.2 119.1 12.2L119.1 12.2Q117.1 12.2 115.9 11.1Q114.7 9.9 114.7 8.1L114.7 8.1Q114.7 6.3 116.0 5.3Q117.3 4.3 119.6 4.2L119.6 4.2L123.2 4.2L123.2 4.0Q123.2 3.0 122.5 2.4Q121.8 1.8 120.5 1.8L120.5 1.8Q118.7 1.8 116.6 3.0L116.6 3.0L115.5 0.4Q117.0-0.3 118.4-0.7Q119.7-1.1 121.3-1.1L121.3-1.1Q123.9-1.1 125.3 0.2Q126.8 1.4 126.8 3.6L126.8 3.6L126.8 12ZM120.2 9.5Q121.3 9.5 122.2 9.0Q123.0 8.4 123.2 7.6L123.2 7.6L123.2 6.4L120.3 6.4Q119.2 6.4 118.7 6.8Q118.1 7.1 118.1 7.9L118.1 7.9Q118.1 8.6 118.7 9.1Q119.2 9.5 120.2 9.5L120.2 9.5ZM137.2 8.6L138.0 11.3Q137.3 11.7 136.4 11.9Q135.5 12.2 134.6 12.2L134.6 12.2Q132.8 12.2 131.7 11.1Q130.6 10.1 130.6 8.2L130.6 8.2L130.6 2.2L128.8 2.2L128.8-0.3L130.6-0.3L130.6-3.9L134.2-3.9L134.2-0.3L137.8-0.3L137.8 2.2L134.2 2.2L134.2 7.6Q134.2 9.0 135.4 9.0L135.4 9.0Q136.2 9.0 137.2 8.6L137.2 8.6Z" fill="foregroundcolor"/></svg>