<svg width="135" height="18" viewBox="5.632 -4.824000000000002 135 18" version="1.1" xmlns="http://www.w3.org/2000/svg"><path d="M5.6 12L5.6-4.8L10.4-4.8L15.3 5.0L20.1-4.8L24.9-4.8L24.9 12L21.0 12L21.0 1.3L16.7 10.3L13.9 10.3L9.5 1.3L9.5 12L5.6 12ZM34.2-1.1Q36.3-1.1 37.9-0.3Q39.5 0.5 40.4 2.0Q41.3 3.5 41.3 5.5L41.3 5.5Q41.3 7.5 40.4 9.0Q39.5 10.5 37.9 11.3Q36.3 12.1 34.2 12.1L34.2 12.1Q32.1 12.1 30.5 11.3Q28.9 10.5 28.0 9.0Q27.1 7.5 27.1 5.5L27.1 5.5Q27.1 3.5 28.0 2.0Q28.9 0.5 30.5-0.3Q32.1-1.1 34.2-1.1L34.2-1.1ZM34.2 2.3Q32.9 2.3 32.2 3.2Q31.4 4.1 31.4 5.5L31.4 5.5Q31.4 7.0 32.2 7.9Q32.9 8.8 34.2 8.8L34.2 8.8Q35.5 8.8 36.2 7.9Q37 7.0 37 5.5L37 5.5Q37 4.1 36.2 3.2Q35.4 2.3 34.2 2.3L34.2 2.3ZM52.0-1.2Q54.2-1.2 55.5 0.2Q56.8 1.5 56.8 3.8L56.8 3.8L56.8 12L52.5 12L52.5 5.0Q52.5 3.9 51.9 3.3Q51.3 2.7 50.3 2.7L50.3 2.7Q49.2 2.7 48.6 3.4Q47.9 4.0 47.8 5.1L47.8 5.1L47.8 12L43.5 12L43.5-1.0L47.8-1.0L47.8 1.1Q48.4 0 49.5-0.6Q50.6-1.2 52.0-1.2L52.0-1.2ZM67.3 8.3L68.1 11.3Q67.4 11.7 66.4 12.0Q65.5 12.2 64.6 12.2L64.6 12.2Q62.6 12.2 61.4 11.1Q60.3 10.0 60.3 8.0L60.3 8.0L60.3 2.5L58.5 2.5L58.5-0.4L60.3-0.4L60.3-4.0L64.5-4.0L64.5-0.4L67.9-0.4L67.9 2.5L64.5 2.5L64.5 7.4Q64.5 8.7 65.6 8.7L65.6 8.7Q66.3 8.7 67.3 8.3L67.3 8.3ZM78.8 3.1Q76.3 1.8 74.7 1.8L74.7 1.8Q74.1 1.8 73.8 2.0Q73.5 2.2 73.5 2.6L73.5 2.6Q73.5 3.0 74.0 3.3Q74.5 3.6 75.7 3.9L75.7 3.9Q77.1 4.3 78.0 4.7Q78.9 5.1 79.6 5.9Q80.2 6.7 80.2 8.0L80.2 8.0Q80.2 10.0 78.7 11.1Q77.2 12.2 74.8 12.2L74.8 12.2Q73.1 12.2 71.6 11.7Q70.1 11.3 68.9 10.3L68.9 10.3L70.2 7.6Q71.3 8.4 72.6 8.8Q73.8 9.2 74.8 9.2L74.8 9.2Q75.5 9.2 75.8 9.0Q76.2 8.8 76.2 8.4L76.2 8.4Q76.2 7.9 75.7 7.7Q75.1 7.4 74.0 7.1L74.0 7.1Q72.6 6.7 71.7 6.3Q70.8 5.9 70.2 5.1Q69.5 4.3 69.5 3.0L69.5 3.0Q69.5 1.1 71.0-0.1Q72.5-1.2 74.8-1.2L74.8-1.2Q76.3-1.2 77.6-0.8Q79.0-0.4 80.2 0.3L80.2 0.3L78.8 3.1ZM88.3-1.1Q91.4-1.1 93.1 0.7Q94.8 2.6 94.8 5.9L94.8 5.9Q94.8 6.4 94.8 6.6L94.8 6.6L85.8 6.6Q86.1 7.8 86.9 8.3Q87.6 8.9 88.7 8.9L88.7 8.9Q89.6 8.9 90.4 8.6Q91.1 8.3 91.8 7.6L91.8 7.6L94.0 9.8Q93.0 11.0 91.6 11.6Q90.2 12.1 88.4 12.1L88.4 12.1Q86.3 12.1 84.7 11.3Q83.2 10.5 82.3 9.0Q81.5 7.5 81.5 5.6L81.5 5.6Q81.5 3.6 82.3 2.1Q83.2 0.5 84.7-0.3Q86.2-1.1 88.3-1.1L88.3-1.1ZM85.7 4.4L90.7 4.4Q90.7 3.2 90.0 2.6Q89.4 1.9 88.3 1.9L88.3 1.9Q87.3 1.9 86.6 2.5Q85.9 3.2 85.7 4.4L85.7 4.4ZM101.3 1.2Q102.0 0.0 103.0-0.6Q104.1-1.2 105.5-1.2L105.5-1.2L105.5 2.8Q105.3 2.7 104.8 2.7L104.8 2.7Q103.3 2.7 102.4 3.4Q101.4 4.2 101.3 5.4L101.3 5.4L101.3 12L97.0 12L97.0-1.0L101.3-1.0L101.3 1.2ZM111.6 1.2Q112.3 0.0 113.4-0.6Q114.4-1.2 115.8-1.2L115.8-1.2L115.8 2.8Q115.6 2.7 115.1 2.7L115.1 2.7Q113.6 2.7 112.7 3.4Q111.8 4.2 111.6 5.4L111.6 5.4L111.6 12L107.3 12L107.3-1.0L111.6-1.0L111.6 1.2ZM123.2-1.2Q125.8-1.2 127.3 0.1Q128.8 1.3 128.8 3.6L128.8 3.6L128.8 12L124.6 12L124.6 10.5Q123.4 12.2 120.7 12.2L120.7 12.2Q118.7 12.2 117.5 11.1Q116.3 10.0 116.3 8.1L116.3 8.1Q116.3 6.3 117.6 5.3Q118.9 4.2 121.3 4.2L121.3 4.2L124.6 4.2L124.6 4.1Q124.6 3.1 124.0 2.6Q123.4 2.1 122.2 2.1L122.2 2.1Q121.4 2.1 120.3 2.4Q119.3 2.6 118.3 3.1L118.3 3.1L117.1 0.3Q118.7-0.5 120.1-0.8Q121.6-1.2 123.2-1.2L123.2-1.2ZM122.1 9.3Q123.0 9.3 123.7 8.8Q124.5 8.4 124.6 7.6L124.6 7.6L124.6 6.5L122.1 6.5Q120.3 6.5 120.3 7.8L120.3 7.8Q120.3 8.5 120.8 8.9Q121.2 9.3 122.1 9.3L122.1 9.3ZM139.4 8.3L140.2 11.3Q139.5 11.7 138.5 12.0Q137.6 12.2 136.6 12.2L136.6 12.2Q134.7 12.2 133.5 11.1Q132.3 10.0 132.3 8.0L132.3 8.0L132.3 2.5L130.5 2.5L130.5-0.4L132.3-0.4L132.3-4.0L136.6-4.0L136.6-0.4L139.9-0.4L139.9 2.5L136.6 2.5L136.6 7.4Q136.6 8.7 137.7 8.7L137.7 8.7Q138.4 8.7 139.4 8.3L139.4 8.3Z" fill="foregroundcolor"/></svg>