<svg width="215" height="18" viewBox="4.12890625 -5.47265625 215 18" version="1.1" xmlns="http://www.w3.org/2000/svg"><path d="M15.7 10.1L19.2-4.9L20.2-4.9L16.3 12L15.3 12L8.8-3.0L8.7-3.0L5.2 12L4.1 12L8.0-4.9L9.1-4.9L15.6 10.1L15.7 10.1ZM24.6 12.2Q22.4 12.2 21.3 11.1Q20.1 9.9 20.1 7.9L20.1 7.9Q20.1 6.9 20.4 5.7L20.4 5.7Q20.8 3.9 21.8 2.5Q22.8 1.1 24.1 0.3Q25.5-0.5 27.0-0.5L27.0-0.5Q28.2-0.5 29.1 0.0Q29.9 0.5 30.4 1.4Q30.8 2.3 30.8 3.6L30.8 3.6Q30.8 4.3 30.6 5.1L30.6 5.1Q30.6 5.5 30.5 5.8Q30.4 6.0 30.4 6.1L30.4 6.1L21.4 6.1Q21.2 7.0 21.2 7.8L21.2 7.8Q21.2 9.4 22.1 10.3Q23.0 11.2 24.7 11.3L24.7 11.3Q25.6 11.3 26.6 11.0Q27.6 10.7 28.5 10.2L28.5 10.2L28.6 11.0Q27.6 11.6 26.6 11.9Q25.5 12.2 24.6 12.2L24.6 12.2ZM29.6 5.3Q29.8 4.4 29.8 3.6L29.8 3.6Q29.8 2.1 29.1 1.3Q28.3 0.4 26.9 0.4L26.9 0.4Q25.8 0.4 24.6 1.1Q23.5 1.7 22.7 2.8Q21.9 3.9 21.6 5.3L21.6 5.3L29.6 5.3ZM36.6 10.4L43.7-0.3L45.0-0.3L36.6 12.1L35.9 12.1L33.2-0.3L34.2-0.3L36.5 10.4L36.6 10.4ZM49.0 12.2Q46.8 12.2 45.7 11.1Q44.5 9.9 44.5 7.9L44.5 7.9Q44.5 6.9 44.8 5.7L44.8 5.7Q45.2 3.9 46.2 2.5Q47.1 1.1 48.5 0.3Q49.9-0.5 51.4-0.5L51.4-0.5Q52.6-0.5 53.4 0.0Q54.3 0.5 54.7 1.4Q55.2 2.3 55.2 3.6L55.2 3.6Q55.2 4.3 55.0 5.1L55.0 5.1Q55.0 5.5 54.9 5.8Q54.8 6.0 54.8 6.1L54.8 6.1L45.7 6.1Q45.5 7.0 45.5 7.8L45.5 7.8Q45.5 9.4 46.4 10.3Q47.3 11.2 49.1 11.3L49.1 11.3Q49.9 11.3 51.0 11.0Q52.0 10.7 52.9 10.2L52.9 10.2L52.9 11.0Q52.0 11.6 50.9 11.9Q49.9 12.2 49.0 12.2L49.0 12.2ZM54.0 5.3Q54.2 4.4 54.2 3.6L54.2 3.6Q54.2 2.1 53.4 1.3Q52.7 0.4 51.3 0.4L51.3 0.4Q50.1 0.4 49.0 1.1Q47.9 1.7 47.1 2.8Q46.3 3.9 45.9 5.3L45.9 5.3L54.0 5.3ZM59.6 1.9Q60.4 0.8 61.5 0.1Q62.7-0.5 64.3-0.5L64.3-0.5L64.0 0.5Q62.5 0.6 61.5 1.1Q60.5 1.6 59.8 2.7Q59.1 3.8 58.7 5.5L58.7 5.5L58.7 5.5L57.2 12L56.1 12L59.0-0.3L60.0-0.3L59.5 1.9L59.6 1.9ZM73.2 3.2L81.8-4.9L82.9-4.9L79.0 12L78.0 12L81.6-3.3L81.4-3.3L73.1 4.6L72.9 4.6L68.2-3.3L68.1-3.3L64.6 12L63.5 12L67.4-4.9L68.4-4.9L73.2 3.2ZM85.8-3.4L86.1-4.8L87.5-4.8L87.2-3.4L85.8-3.4ZM82.4 12L85.2-0.3L86.3-0.3L83.5 12L82.4 12ZM94.5-0.5Q96.2-0.5 97.1 0.3Q98.0 1.0 98.0 2.5L98.0 2.5Q98.0 3.2 97.8 4.1L97.8 4.1L95.9 12L94.9 12L96.7 4.1Q96.9 3.3 96.9 2.7L96.9 2.7Q96.9 1.5 96.2 1.0Q95.5 0.4 94.1 0.4L94.1 0.4Q93.1 0.4 92.3 0.9Q91.4 1.4 90.7 2.2Q90.1 3.0 89.8 3.9L89.8 3.9L87.9 12L86.9 12L89.7-0.3L90.8-0.3L90.3 1.7L90.4 1.7Q91.2 0.6 92.2 0.1Q93.3-0.5 94.5-0.5L94.5-0.5ZM111.8-5.5L112.9-5.5L108.8 12.0L107.8 12.0L108.3 9.5L108.3 9.5Q107.5 10.8 106.2 11.5Q104.9 12.2 103.5 12.2L103.5 12.2Q102.3 12.2 101.4 11.7Q100.6 11.2 100.1 10.2Q99.7 9.3 99.7 8.0L99.7 8.0Q99.7 7.0 99.9 6.1L99.9 6.1Q100.3 4.1 101.3 2.6Q102.3 1.1 103.7 0.3Q105.0-0.5 106.4-0.5L106.4-0.5Q107.9-0.5 108.8 0.3Q109.7 1.0 109.9 2.4L109.9 2.4L110.0 2.4L111.8-5.5ZM103.7 11.3Q104.9 11.3 105.9 10.8Q107.0 10.2 107.8 9.2Q108.6 8.2 108.9 6.9L108.9 6.9L109.3 5.5Q109.4 4.7 109.4 3.9L109.4 3.9Q109.4 2.3 108.7 1.3Q107.9 0.4 106.5 0.4L106.5 0.4Q105.3 0.4 104.2 1.1Q103.0 1.8 102.2 3.1Q101.3 4.4 100.9 6.1L100.9 6.1Q100.7 7.0 100.7 7.8L100.7 7.8Q100.7 8.9 101.1 9.7Q101.4 10.5 102.1 10.9Q102.8 11.3 103.7 11.3L103.7 11.3ZM130.0-5.2Q131.3-5.2 132.3-4.7Q133.4-4.3 134.2-3.4Q134.9-2.5 135.2-1.2L135.2-1.2L134.3-0.8Q133.9-2.4 132.7-3.3Q131.5-4.2 129.9-4.2L129.9-4.2Q128.1-4.2 126.3-3.2Q124.6-2.3 123.3-0.5Q122.0 1.3 121.5 3.5L121.5 3.5Q121.2 4.7 121.2 5.9L121.2 5.9Q121.2 7.5 121.8 8.7Q122.4 10.0 123.5 10.6Q124.6 11.3 126.1 11.3L126.1 11.3Q127.1 11.3 128.3 10.9Q129.4 10.5 130.4 9.7Q131.5 8.9 132.3 7.8L132.3 7.8L133.0 8.3Q132.1 9.6 130.9 10.5Q129.8 11.4 128.5 11.8Q127.2 12.3 126.0 12.3L126.0 12.3Q124.2 12.3 122.9 11.5Q121.5 10.7 120.8 9.3Q120.1 7.9 120.1 6L120.1 6Q120.1 4.8 120.4 3.5L120.4 3.5Q121.0 1.0 122.5-1.0Q123.9-3.0 125.9-4.1Q127.8-5.2 130.0-5.2L130.0-5.2ZM139.7 12.2Q138.4 12.2 137.4 11.6Q136.4 11.1 135.9 10.1Q135.4 9.1 135.4 7.8L135.4 7.8Q135.4 6.8 135.6 5.8L135.6 5.8Q136.0 4.0 137.1 2.5Q138.1 1.1 139.6 0.3Q141.0-0.5 142.7-0.5L142.7-0.5Q144.0-0.5 145.0 0.0Q146.0 0.6 146.5 1.6Q147.0 2.6 147.0 3.9L147.0 3.9Q147.0 4.9 146.8 5.8L146.8 5.8Q146.3 7.7 145.3 9.2Q144.3 10.6 142.8 11.4Q141.4 12.2 139.7 12.2L139.7 12.2ZM139.8 11.3Q141.2 11.3 142.4 10.6Q143.6 9.9 144.5 8.7Q145.4 7.5 145.7 5.8L145.7 5.8Q145.9 4.9 145.9 4.1L145.9 4.1Q145.9 2.4 145.1 1.4Q144.2 0.4 142.5 0.4L142.5 0.4Q141.2 0.4 140.0 1.1Q138.8 1.8 137.9 3.0Q137.0 4.3 136.6 5.8L136.6 5.8Q136.4 6.8 136.4 7.6L136.4 7.6Q136.4 9.3 137.3 10.3Q138.2 11.3 139.8 11.3L139.8 11.3ZM155.7-0.5Q157.4-0.5 158.3 0.3Q159.2 1.0 159.2 2.5L159.2 2.5Q159.2 3.2 159.0 4.1L159.0 4.1L157.1 12L156.1 12L157.9 4.1Q158.1 3.3 158.1 2.7L158.1 2.7Q158.1 1.5 157.4 1.0Q156.7 0.4 155.3 0.4L155.3 0.4Q154.4 0.4 153.5 0.9Q152.6 1.4 151.9 2.2Q151.3 3.0 151.0 3.9L151.0 3.9L149.1 12L148.1 12L150.9-0.3L152.0-0.3L151.5 1.7L151.6 1.7Q152.4 0.6 153.4 0.1Q154.5-0.5 155.7-0.5L155.7-0.5ZM173.0-5.5L174.1-5.5L170.0 12.0L169.0 12.0L169.6 9.5L169.5 9.5Q168.7 10.8 167.4 11.5Q166.2 12.2 164.7 12.2L164.7 12.2Q163.5 12.2 162.7 11.7Q161.8 11.2 161.3 10.2Q160.9 9.3 160.9 8.0L160.9 8.0Q160.9 7.0 161.1 6.1L161.1 6.1Q161.5 4.1 162.5 2.6Q163.5 1.1 164.9 0.3Q166.2-0.5 167.6-0.5L167.6-0.5Q169.1-0.5 170.0 0.3Q170.9 1.0 171.1 2.4L171.1 2.4L171.2 2.4L173.0-5.5ZM164.9 11.3Q166.1 11.3 167.1 10.8Q168.2 10.2 169.0 9.2Q169.8 8.2 170.1 6.9L170.1 6.9L170.5 5.5Q170.6 4.7 170.6 3.9L170.6 3.9Q170.6 2.3 169.9 1.3Q169.1 0.4 167.7 0.4L167.7 0.4Q166.5 0.4 165.4 1.1Q164.2 1.8 163.4 3.1Q162.5 4.4 162.1 6.1L162.1 6.1Q161.9 7.0 161.9 7.8L161.9 7.8Q161.9 8.9 162.3 9.7Q162.6 10.5 163.3 10.9Q164.0 11.3 164.9 11.3L164.9 11.3ZM178.4 12.2Q176.2 12.2 175.1 11.1Q173.9 9.9 173.9 7.9L173.9 7.9Q173.9 6.9 174.2 5.7L174.2 5.7Q174.6 3.9 175.6 2.5Q176.5 1.1 177.9 0.3Q179.3-0.5 180.8-0.5L180.8-0.5Q182.0-0.5 182.8 0.0Q183.7 0.5 184.1 1.4Q184.6 2.3 184.6 3.6L184.6 3.6Q184.6 4.3 184.4 5.1L184.4 5.1Q184.4 5.5 184.3 5.8Q184.2 6.0 184.2 6.1L184.2 6.1L175.1 6.1Q174.9 7.0 174.9 7.8L174.9 7.8Q174.9 9.4 175.8 10.3Q176.7 11.2 178.5 11.3L178.5 11.3Q179.3 11.3 180.4 11.0Q181.4 10.7 182.3 10.2L182.3 10.2L182.3 11.0Q181.4 11.6 180.3 11.9Q179.3 12.2 178.4 12.2L178.4 12.2ZM183.4 5.3Q183.6 4.4 183.6 3.6L183.6 3.6Q183.6 2.1 182.8 1.3Q182.1 0.4 180.7 0.4L180.7 0.4Q179.5 0.4 178.4 1.1Q177.3 1.7 176.5 2.8Q175.7 3.9 175.3 5.3L175.3 5.3L183.4 5.3ZM193.2-0.5Q194.9-0.5 195.8 0.3Q196.7 1.0 196.7 2.5L196.7 2.5Q196.7 3.2 196.5 4.1L196.5 4.1L194.6 12L193.5 12L195.4 4.1Q195.5 3.3 195.5 2.7L195.5 2.7Q195.5 1.5 194.9 1.0Q194.2 0.4 192.8 0.4L192.8 0.4Q191.8 0.4 190.9 0.9Q190.1 1.4 189.4 2.2Q188.8 3.0 188.5 3.9L188.5 3.9L186.6 12L185.5 12L188.4-0.3L189.4-0.3L189.0 1.7L189.1 1.7Q189.8 0.6 190.9 0.1Q192.0-0.5 193.2-0.5L193.2-0.5ZM201.1 12.2Q200.0 12.2 199.0 11.8Q198.0 11.4 197.2 10.7L197.2 10.7L197.7 9.9Q198.6 10.7 199.4 11.0Q200.3 11.3 201.1 11.3L201.1 11.3Q202.1 11.3 202.8 11.0Q203.6 10.7 204.1 10.1Q204.7 9.6 204.8 8.9L204.8 8.9Q204.9 8.6 204.9 8.3L204.9 8.3Q204.9 7.5 204.3 6.9Q203.7 6.3 202.4 5.8L202.4 5.8Q200.9 5.3 200.2 4.7Q199.6 4.0 199.6 3.1L199.6 3.1Q199.6 2.7 199.7 2.4L199.7 2.4Q199.8 1.5 200.4 0.9Q201.0 0.2 201.9-0.1Q202.8-0.5 203.9-0.5L203.9-0.5Q204.8-0.5 205.6-0.3Q206.3-0.0 207.0 0.5L207.0 0.5L206.8 1.3Q205.5 0.4 203.9 0.4L203.9 0.4Q202.7 0.4 201.8 0.9Q200.9 1.4 200.7 2.3L200.7 2.3Q200.7 2.6 200.7 2.9L200.7 2.9Q200.7 3.6 201.2 4.1Q201.8 4.6 203.1 5.1L203.1 5.1Q204.6 5.6 205.3 6.4Q206.0 7.1 206.0 8.1L206.0 8.1Q206.0 8.4 205.9 8.8L205.9 8.8Q205.6 9.9 205.0 10.6Q204.3 11.4 203.3 11.8Q202.3 12.2 201.1 12.2L201.1 12.2ZM212.6 12.2Q210.4 12.2 209.3 11.1Q208.1 9.9 208.1 7.9L208.1 7.9Q208.1 6.9 208.4 5.7L208.4 5.7Q208.8 3.9 209.8 2.5Q210.8 1.1 212.1 0.3Q213.5-0.5 215.0-0.5L215.0-0.5Q216.2-0.5 217.1 0.0Q217.9 0.5 218.4 1.4Q218.8 2.3 218.8 3.6L218.8 3.6Q218.8 4.3 218.7 5.1L218.7 5.1Q218.6 5.5 218.5 5.8Q218.4 6.0 218.4 6.1L218.4 6.1L209.4 6.1Q209.2 7.0 209.2 7.8L209.2 7.8Q209.2 9.4 210.1 10.3Q211.0 11.2 212.7 11.3L212.7 11.3Q213.6 11.3 214.6 11.0Q215.6 10.7 216.5 10.2L216.5 10.2L216.6 11.0Q215.6 11.6 214.6 11.9Q213.5 12.2 212.6 12.2L212.6 12.2ZM217.6 5.3Q217.8 4.4 217.8 3.6L217.8 3.6Q217.8 2.1 217.1 1.3Q216.3 0.4 214.9 0.4L214.9 0.4Q213.8 0.4 212.7 1.1Q211.6 1.7 210.7 2.8Q209.9 3.9 209.6 5.3L209.6 5.3L217.6 5.3Z" fill="foregroundcolor"/></svg>