<svg width="207" height="18" viewBox="5.640625 -5.390625 207 18" version="1.1" xmlns="http://www.w3.org/2000/svg"><path d="M16.8 10.9L16.8-4.9L17.4-4.9L17.4 12L16.8 12L6.3-3.8L6.2-3.8L6.2 12L5.6 12L5.6-4.9L6.3-4.9L16.7 10.9L16.8 10.9ZM25.7 12.2Q24.0 12.2 22.7 11.4Q21.5 10.7 20.8 9.2Q20.1 7.8 20.1 5.8L20.1 5.8Q20.1 3.9 20.8 2.6Q21.4 1.2 22.6 0.4Q23.7-0.4 25.2-0.4L25.2-0.4Q26.6-0.4 27.7 0.4Q28.8 1.1 29.4 2.4Q30.0 3.8 30.0 5.5L30.0 5.5Q30.0 5.7 30.0 5.8Q30.0 5.9 30.0 6L30.0 6L20.7 6Q20.7 7.7 21.3 9.0Q21.9 10.2 23.0 10.9Q24.1 11.6 25.7 11.6L25.7 11.6Q26.5 11.7 27.4 11.4Q28.3 11.1 29.1 10.5L29.1 10.5L29.2 11.0Q28.5 11.6 27.5 11.9Q26.6 12.2 25.7 12.2L25.7 12.2ZM29.4 5.5Q29.4 3.9 28.9 2.7Q28.4 1.5 27.4 0.8Q26.5 0.2 25.2 0.2L25.2 0.2Q23.9 0.2 22.9 0.8Q21.9 1.5 21.3 2.7Q20.8 3.9 20.7 5.5L20.7 5.5L29.4 5.5ZM37.1 11.1L42.1-0.2L42.8-0.2L37.3 12.1L36.8 12.1L31.3-0.2L31.9-0.2L37.0 11.1L37.1 11.1ZM49.6 12.2Q47.9 12.2 46.7 11.4Q45.4 10.7 44.8 9.2Q44.1 7.8 44.1 5.8L44.1 5.8Q44.1 3.9 44.7 2.6Q45.4 1.2 46.5 0.4Q47.7-0.4 49.2-0.4L49.2-0.4Q50.6-0.4 51.6 0.4Q52.7 1.1 53.3 2.4Q53.9 3.8 53.9 5.5L53.9 5.5Q53.9 5.7 53.9 5.8Q53.9 5.9 53.9 6L53.9 6L44.7 6Q44.7 7.7 45.3 9.0Q45.9 10.2 47.0 10.9Q48.1 11.6 49.6 11.6L49.6 11.6Q50.5 11.7 51.4 11.4Q52.3 11.1 53.0 10.5L53.0 10.5L53.2 11.0Q52.4 11.6 51.5 11.9Q50.5 12.2 49.6 12.2L49.6 12.2ZM53.3 5.5Q53.3 3.9 52.8 2.7Q52.3 1.5 51.4 0.8Q50.4 0.2 49.2 0.2L49.2 0.2Q47.9 0.2 46.9 0.8Q45.9 1.5 45.3 2.7Q44.7 3.9 44.7 5.5L44.7 5.5L53.3 5.5ZM57.3 2.1Q58.3-0.4 61.5-0.4L61.5-0.4L61.5 0.3Q60.1 0.3 59.1 0.8Q58.2 1.3 57.7 2.3Q57.2 3.4 57.2 5.2L57.2 5.2L57.2 12L56.7 12L56.7-0.2L57.2-0.2L57.2 2.1L57.3 2.1ZM78.8-4.9L78.8 12L78.3 12L78.3-4.0L78.2-4.0L71.3 4.3L71.2 4.3L64.3-4.0L64.2-4.0L64.2 12L63.6 12L63.6-4.9L64.2-4.9L71.2 3.6L78.3-4.9L78.8-4.9ZM82.1-3.6L82.1-4.5L83.1-4.5L83.1-3.6L82.1-3.6ZM82.3 12L82.3-0.2L82.9-0.2L82.9 12L82.3 12ZM94.9 4.1L94.9 12L94.3 12L94.3 4.2Q94.3 2.1 93.4 1.2Q92.5 0.2 90.6 0.2L90.6 0.2Q89.6 0.2 88.8 0.7Q88.0 1.1 87.5 2.0Q87.0 2.8 86.9 3.8L86.9 3.8L86.9 12L86.3 12L86.3-0.2L86.9-0.2L86.9 1.9L87.0 1.9Q87.5 0.8 88.5 0.2Q89.5-0.4 90.7-0.4L90.7-0.4Q92.8-0.4 93.9 0.8Q94.9 1.9 94.9 4.1L94.9 4.1ZM106.8-5.4L107.4-5.4L107.4 12.0L106.8 12.0L106.8 9.3L106.8 9.3Q106.2 10.7 105.1 11.4Q104.0 12.2 102.5 12.2L102.5 12.2Q101.1 12.2 99.9 11.4Q98.8 10.7 98.2 9.3Q97.6 7.9 97.6 6.1L97.6 6.1Q97.6 4.2 98.2 2.7Q98.8 1.3 100.0 0.5Q101.1-0.4 102.5-0.4L102.5-0.4Q104.0-0.4 105.1 0.5Q106.2 1.3 106.8 2.8L106.8 2.8L106.8 2.8L106.8-5.4ZM102.5 11.6Q103.7 11.6 104.7 11.0Q105.6 10.5 106.2 9.4Q106.8 8.3 106.8 6.9L106.8 6.9L106.8 5.6Q106.8 4.0 106.2 2.8Q105.6 1.5 104.7 0.9Q103.7 0.2 102.5 0.2L102.5 0.2Q101.2 0.2 100.3 0.9Q99.3 1.7 98.7 3.0Q98.1 4.4 98.1 6.1L98.1 6.1Q98.1 7.7 98.7 9Q99.3 10.3 100.2 10.9Q101.2 11.6 102.5 11.6L102.5 11.6ZM124.0 11.7Q125.1 11.7 126.2 11.3Q127.2 10.9 128.1 10.1Q129.0 9.2 129.5 8.1L129.5 8.1L130.0 8.3Q129.4 9.6 128.5 10.5Q127.5 11.4 126.4 11.8Q125.2 12.2 124.0 12.2L124.0 12.2Q121.9 12.2 120.2 11.1Q118.5 10.0 117.6 8.1Q116.6 6.1 116.6 3.5L116.6 3.5Q116.6 1.0 117.6-1.0Q118.5-2.9 120.2-4.0Q121.9-5.1 124.0-5.1L124.0-5.1Q125.2-5.1 126.4-4.7Q127.5-4.3 128.5-3.4Q129.4-2.5 130.0-1.3L130.0-1.3L129.5-1.0Q129.0-2.2 128.1-3.0Q127.2-3.8 126.2-4.2Q125.1-4.6 124.0-4.6L124.0-4.6Q122.1-4.6 120.5-3.6Q119.0-2.5 118.1-0.7Q117.2 1.2 117.1 3.5L117.1 3.5Q117.2 5.9 118.1 7.8Q119.0 9.6 120.5 10.7Q122.1 11.7 124.0 11.7L124.0 11.7ZM137.5 12.2Q135.8 12.2 134.6 11.4Q133.4 10.6 132.7 9.2Q132.0 7.8 132.0 5.9L132.0 5.9Q132.0 4.0 132.7 2.6Q133.4 1.2 134.6 0.4Q135.8-0.4 137.5-0.4L137.5-0.4Q139.1-0.4 140.3 0.4Q141.5 1.2 142.2 2.6Q142.9 4.0 142.9 5.9L142.9 5.9Q142.9 7.8 142.2 9.2Q141.5 10.6 140.3 11.4Q139.1 12.2 137.5 12.2L137.5 12.2ZM137.5 11.7Q138.9 11.7 140.0 10.9Q141.1 10.2 141.7 8.9Q142.3 7.6 142.3 5.9L142.3 5.9Q142.3 4.2 141.7 2.9Q141.1 1.6 140.0 0.9Q138.9 0.2 137.4 0.2L137.4 0.2Q136 0.2 134.9 0.9Q133.8 1.6 133.2 2.9Q132.6 4.2 132.6 5.9L132.6 5.9Q132.6 7.6 133.2 8.9Q133.8 10.2 134.9 10.9Q136.0 11.7 137.5 11.7L137.5 11.7ZM154.2 4.1L154.2 12L153.6 12L153.6 4.2Q153.6 2.1 152.7 1.2Q151.7 0.2 149.9 0.2L149.9 0.2Q148.9 0.2 148.1 0.7Q147.3 1.1 146.8 2.0Q146.3 2.8 146.2 3.8L146.2 3.8L146.2 12L145.6 12L145.6-0.2L146.2-0.2L146.2 1.9L146.3 1.9Q146.8 0.8 147.8 0.2Q148.8-0.4 150.0-0.4L150.0-0.4Q152.1-0.4 153.1 0.8Q154.2 1.9 154.2 4.1L154.2 4.1ZM166.1-5.4L166.7-5.4L166.7 12.0L166.1 12.0L166.1 9.3L166.0 9.3Q165.5 10.7 164.4 11.4Q163.3 12.2 161.7 12.2L161.7 12.2Q160.4 12.2 159.2 11.4Q158.1 10.7 157.5 9.3Q156.8 7.9 156.8 6.1L156.8 6.1Q156.8 4.2 157.5 2.7Q158.1 1.3 159.2 0.5Q160.4-0.4 161.8-0.4L161.8-0.4Q163.2-0.4 164.4 0.5Q165.5 1.3 166.0 2.8L166.0 2.8L166.1 2.8L166.1-5.4ZM161.7 11.6Q163.0 11.6 163.9 11.0Q164.9 10.5 165.5 9.4Q166.1 8.3 166.1 6.9L166.1 6.9L166.1 5.6Q166.0 4.0 165.5 2.8Q164.9 1.5 163.9 0.9Q163.0 0.2 161.8 0.2L161.8 0.2Q160.5 0.2 159.5 0.9Q158.5 1.7 158.0 3.0Q157.4 4.4 157.4 6.1L157.4 6.1Q157.4 7.7 158.0 9Q158.5 10.3 159.5 10.9Q160.5 11.6 161.7 11.6L161.7 11.6ZM175 12.2Q173.3 12.2 172.0 11.4Q170.8 10.7 170.1 9.2Q169.4 7.8 169.4 5.8L169.4 5.8Q169.4 3.9 170.1 2.6Q170.7 1.2 171.9 0.4Q173.0-0.4 174.5-0.4L174.5-0.4Q175.9-0.4 177.0 0.4Q178.1 1.1 178.7 2.4Q179.3 3.8 179.3 5.5L179.3 5.5Q179.3 5.7 179.3 5.8Q179.3 5.9 179.3 6L179.3 6L170.0 6Q170.0 7.7 170.6 9.0Q171.2 10.2 172.3 10.9Q173.4 11.6 175 11.6L175 11.6Q175.8 11.7 176.7 11.4Q177.6 11.1 178.4 10.5L178.4 10.5L178.5 11.0Q177.8 11.6 176.8 11.9Q175.9 12.2 175 12.2L175 12.2ZM178.7 5.5Q178.7 3.9 178.2 2.7Q177.7 1.5 176.7 0.8Q175.8 0.2 174.5 0.2L174.5 0.2Q173.2 0.2 172.2 0.8Q171.2 1.5 170.6 2.7Q170.1 3.9 170.0 5.5L170.0 5.5L178.7 5.5ZM190.6 4.1L190.6 12L190.0 12L190.0 4.2Q190.0 2.1 189.1 1.2Q188.1 0.2 186.3 0.2L186.3 0.2Q185.3 0.2 184.5 0.7Q183.7 1.1 183.2 2.0Q182.7 2.8 182.6 3.8L182.6 3.8L182.6 12L182.0 12L182.0-0.2L182.6-0.2L182.6 1.9L182.7 1.9Q183.2 0.8 184.2 0.2Q185.2-0.4 186.4-0.4L186.4-0.4Q188.5-0.4 189.5 0.8Q190.6 1.9 190.6 4.1L190.6 4.1ZM196.9 12.2Q194.9 12.2 192.9 10.7L192.9 10.7L193.1 10.2Q195.1 11.6 196.8 11.6L196.8 11.6Q197.9 11.6 198.6 11.3Q199.4 11.0 199.8 10.3Q200.2 9.7 200.2 8.9L200.2 8.9Q200.1 7.8 199.4 7.0Q198.6 6.2 196.9 5.7L196.9 5.7Q195.0 5.1 194.2 4.3Q193.4 3.5 193.4 2.4L193.4 2.4Q193.4 1.6 193.8 0.9Q194.3 0.3 195.0-0.0Q195.8-0.4 196.8-0.4L196.8-0.4Q198.5-0.4 200.0 0.6L200.0 0.6L200.0 1.1Q199.3 0.7 198.4 0.4Q197.6 0.2 196.8 0.2L196.8 0.2Q195.5 0.2 194.8 0.7Q194.0 1.3 194.0 2.3L194.0 2.3Q194.0 3.3 194.7 4.0Q195.4 4.7 197.2 5.3L197.2 5.3Q199 5.8 199.9 6.7Q200.7 7.6 200.7 8.9L200.7 8.9Q200.7 9.9 200.3 10.6Q199.8 11.4 198.9 11.8Q198.1 12.2 196.9 12.2L196.9 12.2ZM208.1 12.2Q206.4 12.2 205.2 11.4Q203.9 10.7 203.2 9.2Q202.6 7.8 202.6 5.8L202.6 5.8Q202.6 3.9 203.2 2.6Q203.9 1.2 205.0 0.4Q206.2-0.4 207.7-0.4L207.7-0.4Q209.1-0.4 210.1 0.4Q211.2 1.1 211.8 2.4Q212.4 3.8 212.4 5.5L212.4 5.5Q212.4 5.7 212.4 5.8Q212.4 5.9 212.4 6L212.4 6L203.2 6Q203.2 7.7 203.8 9.0Q204.4 10.2 205.5 10.9Q206.6 11.6 208.1 11.6L208.1 11.6Q209.0 11.7 209.9 11.4Q210.8 11.1 211.5 10.5L211.5 10.5L211.7 11.0Q210.9 11.6 210.0 11.9Q209.0 12.2 208.1 12.2L208.1 12.2ZM211.8 5.5Q211.8 3.9 211.3 2.7Q210.8 1.5 209.9 0.8Q208.9 0.2 207.7 0.2L207.7 0.2Q206.4 0.2 205.4 0.8Q204.4 1.5 203.8 2.7Q203.2 3.9 203.2 5.5L203.2 5.5L211.8 5.5Z" fill="foregroundcolor"/></svg>