<svg width="126" height="19" viewBox="5.640625 -6.328125 126 19" version="1.1" xmlns="http://www.w3.org/2000/svg"><path d="M17.0 6.1L17.0-4.9L20.6-4.9L20.6 12L17.0 12L9.4 1.0L9.2 1.0L9.2 12L5.6 12L5.7-4.9L9.2-4.9L16.9 6.1L17.0 6.1ZM29.8 12.3Q27.7 12.3 26.2 11.5Q24.7 10.7 23.9 9.2Q23.2 7.7 23.1 5.6L23.1 5.6Q23.1 3.6 23.9 2.0Q24.6 0.5 25.9-0.3Q27.3-1.2 29.1-1.2L29.1-1.2Q31.0-1.1 32.3-0.3Q33.7 0.4 34.4 1.9Q35.1 3.3 35.1 5.2L35.1 5.2Q35.1 5.9 35.1 6.7L35.1 6.7L26.5 6.7Q26.6 7.9 27.5 8.6Q28.4 9.4 29.9 9.4L29.9 9.4Q30.9 9.4 32.0 9.1Q33.0 8.9 34.0 8.4L34.0 8.4L34.5 11.0Q33.3 11.7 32.2 12Q31.1 12.3 29.8 12.3L29.8 12.3ZM31.8 4.4Q31.8 3.6 31.5 3.0Q31.1 2.4 30.5 2.1Q29.9 1.8 29.2 1.8L29.2 1.8Q28.4 1.8 27.8 2.1Q27.2 2.5 26.9 3.0Q26.5 3.6 26.5 4.4L26.5 4.4L31.8 4.4ZM43.1 6.5L46.2-0.9L50.0-0.9L43.6 12.2L42.3 12.2L35.9-0.9L39.8-0.9L42.9 6.5L43.1 6.5ZM57.3 12.3Q55.2 12.3 53.7 11.5Q52.2 10.7 51.4 9.2Q50.6 7.7 50.6 5.6L50.6 5.6Q50.6 3.6 51.3 2.0Q52.0 0.5 53.4-0.3Q54.7-1.2 56.5-1.2L56.5-1.2Q58.4-1.1 59.7-0.3Q61.1 0.4 61.8 1.9Q62.6 3.3 62.6 5.2L62.6 5.2Q62.6 5.9 62.5 6.7L62.5 6.7L54.0 6.7Q54.0 7.9 54.9 8.6Q55.9 9.4 57.4 9.4L57.4 9.4Q58.4 9.4 59.4 9.1Q60.4 8.9 61.4 8.4L61.4 8.4L61.9 11.0Q60.8 11.7 59.7 12Q58.5 12.3 57.3 12.3L57.3 12.3ZM59.2 4.4Q59.2 3.6 58.9 3.0Q58.6 2.4 58.0 2.1Q57.4 1.8 56.6 1.8L56.6 1.8Q55.8 1.8 55.2 2.1Q54.6 2.5 54.3 3.0Q54.0 3.6 54.0 4.4L54.0 4.4L59.2 4.4ZM68.7 1.1Q69.3 0.0 70.3-0.6Q71.2-1.1 72.5-1.2L72.5-1.2L72.5 1.8Q70.8 1.8 69.9 2.4Q69.1 3.0 68.8 4.0Q68.6 5.0 68.5 6.7L68.5 6.7L68.5 12L65.1 12L65.1-0.9L68.5-0.9L68.5 1.1L68.7 1.1ZM84.1 2.0L89.8-4.9L93.3-4.9L93.3 12L89.8 12L89.8 0.2L89.6 0.2L84.2 6.7L84.0 6.7L78.6 0.2L78.5 0.2L78.5 12L75.0 12L75.0-4.9L78.5-4.9L84.1 2.0ZM96.6-2.9L96.6-6.3L100.0-6.3L100.0-2.9L96.6-2.9ZM96.6 12L96.6-0.9L100.0-0.9L100.0 12L96.6 12ZM110.4-1.2Q112.7-1.2 114.0 0.2Q115.2 1.5 115.2 4.1L115.2 4.1L115.2 12L111.8 12L111.8 4.8Q111.8 3.3 111.2 2.5Q110.5 1.7 109.3 1.7L109.3 1.7Q108.2 1.7 107.6 2.5Q106.9 3.2 106.8 4.5L106.8 4.5L106.8 12L103.3 12L103.3-0.9L106.8-0.9L106.8 0.9L106.9 0.9Q107.3-0.1 108.3-0.6Q109.2-1.2 110.4-1.2L110.4-1.2ZM127.3-5.9L130.7-5.9L130.7 12L127.3 12L127.3 10.4L127.1 10.4Q126.5 11.3 125.6 11.8Q124.7 12.3 123.4 12.3L123.4 12.3Q121.7 12.3 120.4 11.5Q119.1 10.6 118.4 9.2Q117.7 7.7 117.7 5.8L117.7 5.8Q117.7 3.7 118.4 2.1Q119.1 0.6 120.4-0.3Q121.8-1.2 123.4-1.2L123.4-1.2Q124.6-1.2 125.5-0.7Q126.5-0.2 127.1 0.6L127.1 0.6L127.3 0.6L127.3-5.9ZM124.1 9.8Q125.1 9.8 125.9 9.3Q126.6 8.8 126.9 8.0Q127.3 7.3 127.3 6.6L127.3 6.6L127.3 4.7Q127.3 3.8 126.9 3.1Q126.4 2.4 125.7 1.9Q125.0 1.5 124.2 1.5L124.2 1.5Q123.3 1.5 122.6 2.1Q121.9 2.6 121.5 3.6Q121.1 4.5 121.1 5.8L121.1 5.8Q121.1 6.9 121.5 7.8Q121.9 8.7 122.6 9.2Q123.3 9.8 124.1 9.8L124.1 9.8Z" fill="foregroundcolor"/></svg>