<svg width="136" height="18" viewBox="5.68 -5.448 136 18" version="1.1" xmlns="http://www.w3.org/2000/svg"><path d="M16.9 5.8L16.9-4.9L20.4-4.9L20.4 12L17.6 12L9.2 1.2L9.2 12L5.7 12L5.7-4.9L8.4-4.9L16.9 5.8ZM31.2 0.2L34.8 0.2L34.8 12L31.3 12L31.3 10.3Q30.7 11.2 29.8 11.7Q28.9 12.2 27.8 12.2L27.8 12.2Q25.6 12.2 24.5 11.0Q23.4 9.7 23.4 7.2L23.4 7.2L23.4 0.2L27.0 0.2L27.0 7.3Q27.0 8.4 27.4 8.9Q27.9 9.4 28.8 9.4L28.8 9.4Q29.8 9.4 30.5 8.6Q31.2 7.9 31.2 6.7L31.2 6.7L31.2 0.2ZM45.0-0.1Q47.1-0.1 48.1 1.2Q49.1 2.4 49.1 4.9L49.1 4.9L49.1 12L45.5 12L45.5 5.1Q45.5 3.9 45.1 3.3Q44.6 2.8 43.7 2.8L43.7 2.8Q42.6 2.8 41.9 3.5Q41.2 4.2 41.2 5.4L41.2 5.4L41.2 12L37.6 12L37.6 0.2L41.1 0.2L41.1 1.9Q41.7 0.9 42.7 0.4Q43.7-0.1 45.0-0.1L45.0-0.1ZM55.5 12L51.9 12L51.9 0.2L55.5 0.2L55.5 12ZM51.7-2.1L51.7-5.4L55.6-5.4L55.6-2.1L51.7-2.1ZM64.8 9.5Q65.3 9.5 65.9 9.5L65.9 9.5L65.8 12.1Q65.1 12.2 64.4 12.2L64.4 12.2Q61.7 12.2 60.4 11.0Q59.2 9.8 59.2 7.4L59.2 7.4L59.2 2.9L57.0 2.9L57.0 0.2L59.2 0.2L59.2-3.2L62.8-3.2L62.8 0.2L65.8 0.2L65.8 2.9L62.8 2.9L62.8 7.4Q62.8 9.5 64.8 9.5L64.8 9.5ZM73.2 12.2Q71.3 12.2 69.9 11.4Q68.5 10.7 67.7 9.3Q67.0 7.9 67.0 6.0L67.0 6.0Q67.0 4.2 67.7 2.8Q68.5 1.4 69.9 0.7Q71.3-0.1 73.2-0.1L73.2-0.1Q75.1-0.1 76.5 0.7Q77.9 1.4 78.7 2.8Q79.5 4.2 79.5 6.0L79.5 6.0Q79.5 7.9 78.7 9.3Q77.9 10.7 76.5 11.4Q75.1 12.2 73.2 12.2L73.2 12.2ZM73.2 9.4Q75.9 9.4 75.9 6.0L75.9 6.0Q75.9 4.3 75.2 3.5Q74.5 2.7 73.2 2.7L73.2 2.7Q70.6 2.7 70.6 6.0L70.6 6.0Q70.6 9.4 73.2 9.4L73.2 9.4ZM94.6 12.2Q92.7 12.2 90.9 11.7Q89.1 11.2 87.9 10.3L87.9 10.3L89.1 7.6Q91.6 9.3 94.6 9.3L94.6 9.3Q96.2 9.3 97.1 8.8Q97.9 8.3 97.9 7.4L97.9 7.4Q97.9 6.6 97.1 6.1Q96.4 5.6 94.4 5.2L94.4 5.2Q92.1 4.8 90.8 4.1Q89.5 3.5 88.9 2.5Q88.2 1.6 88.2 0.2L88.2 0.2Q88.2-1.4 89.1-2.6Q89.9-3.8 91.5-4.5Q93.0-5.1 95.0-5.1L95.0-5.1Q96.8-5.1 98.5-4.6Q100.2-4.1 101.2-3.2L101.2-3.2L100.0-0.5Q97.6-2.2 95.1-2.2L95.1-2.2Q93.6-2.2 92.8-1.7Q91.9-1.1 91.9-0.1L91.9-0.1Q91.9 0.5 92.2 0.8Q92.6 1.2 93.3 1.5Q94.1 1.8 95.5 2.1L95.5 2.1Q98.7 2.8 100.2 3.9Q101.6 5.1 101.6 7.1L101.6 7.1Q101.6 9.5 99.7 10.8Q97.9 12.2 94.6 12.2L94.6 12.2ZM109.2-0.1Q111.9-0.1 113.1 1.2Q114.4 2.4 114.4 5.0L114.4 5.0L114.4 12L110.9 12L110.9 10.2Q110.6 11.2 109.7 11.7Q108.9 12.2 107.8 12.2L107.8 12.2Q106.6 12.2 105.6 11.7Q104.6 11.2 104.1 10.4Q103.5 9.5 103.5 8.4L103.5 8.4Q103.5 7.2 104.2 6.4Q104.8 5.7 106.3 5.3Q107.8 5.0 110.3 5.0L110.3 5.0L110.9 5.0L110.9 4.6Q110.9 3.5 110.5 3.1Q110.0 2.6 108.9 2.6L108.9 2.6Q108.0 2.6 107.0 3.0Q105.9 3.3 104.9 3.8L104.9 3.8L104.0 1.4Q105.0 0.8 106.5 0.3Q107.9-0.1 109.2-0.1L109.2-0.1ZM108.6 9.7Q109.6 9.7 110.3 9.0Q110.9 8.3 110.9 7.2L110.9 7.2L110.9 6.7L110.5 6.7Q108.6 6.7 107.8 7.1Q107.0 7.4 107.0 8.2L107.0 8.2Q107.0 8.8 107.5 9.3Q107.9 9.7 108.6 9.7L108.6 9.7ZM124.5-0.1Q126.6-0.1 127.6 1.2Q128.7 2.4 128.7 4.9L128.7 4.9L128.7 12L125.0 12L125.0 5.1Q125.0 3.9 124.6 3.3Q124.1 2.8 123.2 2.8L123.2 2.8Q122.1 2.8 121.4 3.5Q120.7 4.2 120.7 5.4L120.7 5.4L120.7 12L117.1 12L117.1 0.2L120.6 0.2L120.6 1.9Q121.2 0.9 122.2 0.4Q123.2-0.1 124.5-0.1L124.5-0.1ZM135.9 12.2Q134.3 12.2 132.9 11.8Q131.6 11.4 130.6 10.8L130.6 10.8L131.5 8.3Q132.5 8.9 133.6 9.3Q134.8 9.6 136.0 9.6L136.0 9.6Q136.8 9.6 137.3 9.3Q137.8 9.1 137.8 8.6L137.8 8.6Q137.8 8.2 137.4 7.9Q137.1 7.7 136.2 7.5L136.2 7.5L134.3 7.1Q132.6 6.7 131.8 5.9Q131.0 5.1 131.0 3.7L131.0 3.7Q131.0 2.6 131.6 1.7Q132.3 0.9 133.4 0.4Q134.6-0.1 136.1-0.1L136.1-0.1Q137.3-0.1 138.5 0.3Q139.7 0.7 140.7 1.4L140.7 1.4L139.7 3.8Q137.9 2.5 136.0 2.5L136.0 2.5Q135.2 2.5 134.7 2.8Q134.2 3.1 134.2 3.6L134.2 3.6Q134.2 4.0 134.5 4.2Q134.8 4.4 135.5 4.6L135.5 4.6L137.5 5.1Q139.3 5.5 140.2 6.3Q141.0 7.1 141.0 8.5L141.0 8.5Q141.0 10.2 139.6 11.2Q138.3 12.2 135.9 12.2L135.9 12.2Z" fill="foregroundcolor"/></svg>