<svg width="130" height="18" viewBox="5.968 -5.112000000000002 130 18" version="1.1" xmlns="http://www.w3.org/2000/svg"><path d="M17.5 7.9L17.5-4.9L19.9-4.9L19.9 12L18.0 12L8.3-0.8L8.3 12L6.0 12L6.0-4.9L7.8-4.9L17.5 7.9ZM31.4 0.3L33.8 0.3L33.8 12L31.4 12L31.4 10.1Q30.9 11.1 29.9 11.6Q28.9 12.2 27.7 12.2L27.7 12.2Q23.5 12.2 23.5 7.5L23.5 7.5L23.5 0.3L25.9 0.3L25.9 7.4Q25.9 8.9 26.5 9.5Q27.0 10.2 28.2 10.2L28.2 10.2Q29.7 10.2 30.5 9.3Q31.4 8.4 31.4 6.9L31.4 6.9L31.4 0.3ZM43.5 0Q47.7 0 47.7 4.7L47.7 4.7L47.7 12L45.3 12L45.3 4.8Q45.3 3.4 44.7 2.7Q44.1 2.0 42.8 2.0L42.8 2.0Q41.4 2.0 40.5 2.9Q39.6 3.8 39.6 5.3L39.6 5.3L39.6 12L37.2 12L37.2 0.3L39.5 0.3L39.5 2.2Q40.1 1.1 41.2 0.6Q42.2 0 43.5 0L43.5 0ZM53.4 12L51.0 12L51.0 0.3L53.4 0.3L53.4 12ZM50.8-2.4L50.8-4.9L53.6-4.9L53.6-2.4L50.8-2.4ZM62.3 10.3Q62.9 10.3 63.4 10.2L63.4 10.2L63.3 12.1Q62.7 12.2 62.1 12.2L62.1 12.2Q59.8 12.2 58.7 11.1Q57.5 9.9 57.5 7.8L57.5 7.8L57.5 2.2L55.3 2.2L55.3 0.3L57.5 0.3L57.5-3.2L60.0-3.2L60.0 0.3L63.2 0.3L63.2 2.2L60.0 2.2L60.0 7.7Q60.0 10.3 62.3 10.3L62.3 10.3ZM70.4 12.2Q68.6 12.2 67.3 11.4Q66.0 10.7 65.3 9.3Q64.6 7.9 64.6 6.1L64.6 6.1Q64.6 4.2 65.3 2.9Q66.0 1.5 67.3 0.7Q68.6 0 70.4 0L70.4 0Q72.1 0 73.4 0.7Q74.7 1.5 75.4 2.9Q76.1 4.2 76.1 6.1L76.1 6.1Q76.1 7.9 75.4 9.3Q74.7 10.7 73.4 11.4Q72.1 12.2 70.4 12.2L70.4 12.2ZM70.4 10.2Q72.0 10.2 72.8 9.2Q73.7 8.1 73.7 6.1L73.7 6.1Q73.7 4.1 72.8 3.0Q71.9 1.9 70.4 1.9L70.4 1.9Q68.8 1.9 67.9 3.0Q67.0 4.1 67.0 6.1L67.0 6.1Q67.0 8.1 67.9 9.2Q68.8 10.2 70.4 10.2L70.4 10.2ZM91.0 12.2Q89.0 12.2 87.4 11.7Q85.7 11.1 84.5 10.1L84.5 10.1L85.4 8.3Q86.7 9.3 88.0 9.7Q89.3 10.2 91 10.2L91 10.2Q92.9 10.2 93.9 9.5Q95.0 8.8 95.0 7.5L95.0 7.5Q95.0 6.4 94 5.8Q93.0 5.3 90.9 4.8L90.9 4.8Q88.9 4.4 87.6 3.8Q86.3 3.3 85.6 2.3Q84.9 1.4 84.9-0.1L84.9-0.1Q84.9-1.6 85.6-2.7Q86.4-3.8 87.9-4.5Q89.3-5.1 91.2-5.1L91.2-5.1Q93.0-5.1 94.5-4.6Q96.1-4.0 97.1-3.0L97.1-3.0L96.3-1.2Q95.1-2.2 93.8-2.6Q92.6-3.1 91.2-3.1L91.2-3.1Q89.4-3.1 88.3-2.3Q87.3-1.6 87.3-0.2L87.3-0.2Q87.3 0.9 88.2 1.5Q89.1 2.1 91.1 2.6L91.1 2.6Q93.3 3.0 94.6 3.6Q95.9 4.1 96.7 5.0Q97.4 5.9 97.4 7.3L97.4 7.3Q97.4 8.8 96.7 9.9Q95.9 11.0 94.4 11.6Q93.0 12.2 91.0 12.2L91.0 12.2ZM105.1 0Q107.4 0 108.6 1.2Q109.7 2.4 109.7 4.8L109.7 4.8L109.7 12L107.4 12L107.4 10.1Q106.9 11.1 106.0 11.6Q105.1 12.2 103.9 12.2L103.9 12.2Q102.8 12.2 101.8 11.7Q100.9 11.2 100.3 10.4Q99.8 9.6 99.8 8.5L99.8 8.5Q99.8 7.2 100.4 6.5Q101.1 5.8 102.6 5.5Q104.2 5.2 106.8 5.2L106.8 5.2L107.4 5.2L107.4 4.5Q107.4 3.1 106.8 2.5Q106.2 1.9 105.0 1.9L105.0 1.9Q103.0 1.9 101.0 3.1L101.0 3.1L100.3 1.4Q101.2 0.8 102.5 0.4Q103.9 0 105.1 0L105.1 0ZM104.4 10.4Q105.7 10.4 106.5 9.5Q107.4 8.6 107.4 7.2L107.4 7.2L107.4 6.5L106.9 6.5Q105.1 6.5 104.1 6.7Q103.0 6.9 102.6 7.3Q102.2 7.7 102.2 8.4L102.2 8.4Q102.2 9.2 102.8 9.8Q103.4 10.4 104.4 10.4L104.4 10.4ZM119.3 0Q123.5 0 123.5 4.7L123.5 4.7L123.5 12L121.1 12L121.1 4.8Q121.1 3.4 120.5 2.7Q119.9 2.0 118.7 2.0L118.7 2.0Q117.2 2.0 116.3 2.9Q115.5 3.8 115.5 5.3L115.5 5.3L115.5 12L113.0 12L113.0 0.3L115.4 0.3L115.4 2.2Q116.0 1.1 117.0 0.6Q118.0 0 119.3 0L119.3 0ZM131.0 12.2Q127.9 12.2 126.1 10.7L126.1 10.7L126.9 8.9Q128.7 10.3 131.1 10.3L131.1 10.3Q132.2 10.3 132.9 9.9Q133.5 9.5 133.5 8.8L133.5 8.8Q133.5 8.2 133.1 7.8Q132.6 7.5 131.6 7.2L131.6 7.2L129.7 6.8Q128.1 6.4 127.3 5.6Q126.5 4.8 126.5 3.6L126.5 3.6Q126.5 2.0 127.8 1.0Q129.1 0 131.2 0L131.2 0Q132.4 0 133.6 0.4Q134.7 0.8 135.5 1.5L135.5 1.5L134.8 3.2Q133.0 1.8 131.2 1.8L131.2 1.8Q130.1 1.8 129.4 2.3Q128.8 2.7 128.8 3.5L128.8 3.5Q128.8 4.1 129.2 4.4Q129.6 4.8 130.5 5.0L130.5 5.0L132.4 5.4Q134.2 5.8 134.9 6.6Q135.7 7.4 135.7 8.7L135.7 8.7Q135.7 10.3 134.5 11.2Q133.2 12.2 131.0 12.2L131.0 12.2Z" fill="foregroundcolor"/></svg>