<svg width="103" height="19" viewBox="5.776 -6.312000000000001 103 19" version="1.1" xmlns="http://www.w3.org/2000/svg"><path d="M5.8 12L5.8-6L6.6-6Q9.1-6 10.8-4.3Q12.6-2.6 12.6-0.2Q12.6 2.1 10.8 3.8Q8.9 5.4 6.8 5.4L6.8 5.4L6.6 5.4L6.6 12L5.8 12ZM6.6-5.3L6.6 4.8L6.8 4.8Q8.8 4.8 10.3 3.3Q11.8 1.8 11.8-0.2Q11.8-2.3 10.3-3.8Q8.7-5.3 6.8-5.3L6.8-5.3L6.6-5.3ZM18.7 12.3Q16.4 12.3 14.7 10.5Q13.0 8.8 13.0 6.6Q13.0 4.3 14.7 2.6Q16.4 0.9 18.8 0.9Q21.1 0.9 22.8 2.6Q24.5 4.3 24.5 6.6Q24.5 8.9 22.8 10.6Q21.2 12.3 18.9 12.3L18.9 12.3L18.7 12.3ZM23.7 6.6Q23.7 4.6 22.3 3.1Q20.8 1.6 18.8 1.6Q16.8 1.6 15.3 3.1Q13.8 4.6 13.8 6.6Q13.8 8.6 15.3 10.1Q16.8 11.6 18.8 11.6Q20.8 11.6 22.3 10.1Q23.7 8.6 23.7 6.6ZM27.1 1.2L27.8 1.2L27.8 12L27.1 12L27.1 1.2ZM27.4-1.4Q26.8-1.4 26.8-2.1Q26.8-2.7 27.4-2.7Q28.1-2.7 28.1-2.1Q28.1-1.4 27.4-1.4ZM37.3 2.7Q36.3 1.6 35.0 1.6Q33.7 1.6 32.8 2.6Q31.8 3.5 31.8 4.8L31.8 4.8L31.8 12L31.0 12L31.0 1.2L31.8 1.2L31.8 2.8Q32.2 2.0 33.1 1.5Q34.0 0.9 35.2 0.9Q36.3 0.9 37.3 1.7L37.3 1.7L37.3 2.7ZM44.8 12.3L44.8 12.3L44.6 12.3Q42.3 12.3 40.6 10.6Q38.9 8.9 38.9 6.6Q38.9 4.3 40.6 2.6Q42.3 1.0 44.7 1.0Q47.2 1.0 49.0 2.9L49.0 2.9L41.4 10.4Q43.0 11.6 44.4 11.6Q45.9 11.6 47.0 11.0Q48.2 10.3 48.9 9.2L48.9 9.2L48.9 10.4Q47.2 12.3 44.8 12.3ZM44.5 1.6Q42.6 1.6 41.1 3.1Q39.7 4.6 39.7 6.5Q39.7 8.4 40.9 9.9L40.9 9.9L47.9 2.9Q46.4 1.6 44.5 1.6ZM55.1 11.5L55.1 11.5L55.1 12.1Q53.4 12.1 52.2 11.0Q51.0 9.9 51.0 8.1L51.0 8.1L51.0-3.1L51.8-3.1L51.8 1.2L55.1 1.2L55.1 1.9L51.8 1.9L51.8 8.1Q51.8 9.6 52.8 10.5Q53.7 11.5 55.1 11.5ZM74.2 12.3Q70.5 12.3 67.8 9.5Q65.1 6.7 65.1 2.9Q65.1-0.8 67.8-3.6Q70.6-6.3 74.5-6.3Q78.3-6.3 81.1-3.6Q83.8-0.8 83.8 2.9Q83.8 6.7 81.1 9.5Q78.4 12.3 74.6 12.3L74.6 12.3L74.2 12.3ZM83.0 3.0Q83.0-0.6 80.5-3.1Q78.0-5.6 74.5-5.6Q70.9-5.6 68.4-3.1Q65.9-0.6 65.9 3.0Q65.9 6.5 68.4 9.1Q70.9 11.6 74.4 11.6Q78.0 11.6 80.5 9.1Q83.0 6.5 83.0 3.0ZM87.1 5.7L87.1 12L86.3 12L86.3 1.2L87.1 1.2L87.1 3.4Q88.3 0.9 91.3 0.9L91.3 0.9Q93.3 0.9 94.6 2.3Q96.0 3.7 96.0 5.7L96.0 5.7L96.0 12L95.2 12L95.2 5.7Q95.2 4.1 94.1 2.8Q92.9 1.6 91.3 1.6Q89.6 1.6 88.3 2.8Q87.1 4.1 87.1 5.7L87.1 5.7ZM104.3 12.3L104.3 12.3L104.1 12.3Q101.8 12.3 100.1 10.6Q98.4 8.9 98.4 6.6Q98.4 4.3 100.1 2.6Q101.8 1.0 104.2 1.0Q106.7 1.0 108.5 2.9L108.5 2.9L101.0 10.4Q102.5 11.6 104.0 11.6Q105.4 11.6 106.5 11.0Q107.7 10.3 108.4 9.2L108.4 9.2L108.4 10.4Q106.7 12.3 104.3 12.3ZM104.0 1.6Q102.1 1.6 100.7 3.1Q99.2 4.6 99.2 6.5Q99.2 8.4 100.5 9.9L100.5 9.9L107.4 2.9Q106.0 1.6 104.0 1.6Z" fill="foregroundcolor"/></svg>