<svg width="92" height="23" viewBox="6.136 -5.52 92 23" version="1.1" xmlns="http://www.w3.org/2000/svg"><path d="M7.8 12L6.1 12L6.1-5.0L13.3-5.0Q14.4-5.0 15.4-4.6Q16.3-4.1 17.0-3.3Q17.6-2.6 18.0-1.6Q18.4-0.7 18.4 0.3L18.4 0.3Q18.4 1.2 18.1 2.1Q17.8 3.0 17.3 3.6Q16.8 4.3 16.1 4.8Q15.4 5.3 14.6 5.4L14.6 5.4L18.8 12L16.9 12L12.9 5.7L7.8 5.7L7.8 12ZM7.8-3.6L7.8 4.2L13.4 4.2Q14.1 4.2 14.7 3.9Q15.4 3.6 15.8 3.0Q16.2 2.5 16.5 1.8Q16.7 1.1 16.7 0.3L16.7 0.3Q16.7-0.5 16.4-1.2Q16.1-1.9 15.7-2.4Q15.2-2.9 14.6-3.2Q13.9-3.6 13.2-3.6L13.2-3.6L7.8-3.6ZM24.4 12.2L24.4 12.2Q23.6 12.2 22.8 11.9Q22.0 11.6 21.5 11.1Q20.9 10.6 20.6 9.9Q20.3 9.2 20.3 8.4L20.3 8.4Q20.3 7.5 20.7 6.8Q21.1 6.1 21.8 5.6Q22.5 5.1 23.4 4.9Q24.4 4.6 25.5 4.6L25.5 4.6Q26.5 4.6 27.5 4.8Q28.5 4.9 29.2 5.2L29.2 5.2L29.2 4.1Q29.2 2.4 28.3 1.5Q27.4 0.5 25.7 0.5L25.7 0.5Q24.7 0.5 23.7 0.9Q22.7 1.3 21.7 2.0L21.7 2.0L21.1 0.9Q23.5-0.7 25.8-0.7L25.8-0.7Q28.2-0.7 29.5 0.6Q30.9 1.9 30.9 4.2L30.9 4.2L30.9 9.9Q30.9 10.6 31.5 10.6L31.5 10.6L31.5 12Q31.0 12.1 30.8 12.1L30.8 12.1Q30.2 12.1 29.9 11.8Q29.5 11.4 29.5 10.9L29.5 10.9L29.4 9.9Q28.6 11.0 27.3 11.6Q26.0 12.2 24.4 12.2ZM24.8 11.0L24.8 11.0Q26.1 11.0 27.2 10.5Q28.2 10.0 28.8 9.2L28.8 9.2Q29.0 9.0 29.1 8.8Q29.2 8.5 29.2 8.3L29.2 8.3L29.2 6.3Q28.4 6.0 27.5 5.8Q26.7 5.6 25.7 5.6L25.7 5.6Q24.0 5.6 22.9 6.3Q21.9 7.1 21.9 8.2L21.9 8.2Q21.9 8.8 22.1 9.3Q22.3 9.8 22.7 10.2Q23.1 10.6 23.7 10.8Q24.2 11.0 24.8 11.0ZM34.5 9.7L34.5-5.5L36.1-5.5L36.1 9.2Q36.1 9.9 36.5 10.3Q36.9 10.7 37.6 10.7L37.6 10.7Q37.8 10.7 38.2 10.6Q38.5 10.5 38.8 10.4L38.8 10.4L39.1 11.7Q38.7 11.9 38.0 12.0Q37.4 12.1 36.9 12.1L36.9 12.1Q35.8 12.1 35.1 11.5Q34.5 10.9 34.5 9.7L34.5 9.7ZM46.3 12.2L46.3 12.2Q44.9 12.2 43.8 11.7Q42.7 11.2 41.8 10.3Q41.0 9.4 40.5 8.2Q40.0 7.1 40.0 5.7L40.0 5.7Q40.0 4.4 40.5 3.2Q41.0 2.1 41.8 1.2Q42.6 0.3 43.8-0.2Q44.9-0.7 46.3-0.7L46.3-0.7Q47.7-0.7 48.8-0.2Q49.9 0.3 50.8 1.2Q51.6 2.1 52.0 3.2Q52.5 4.4 52.5 5.7L52.5 5.7Q52.5 5.9 52.5 6.1Q52.5 6.3 52.5 6.3L52.5 6.3L41.8 6.3Q41.8 7.3 42.2 8.2Q42.6 9.0 43.2 9.7Q43.9 10.3 44.7 10.6Q45.5 11.0 46.4 11.0L46.4 11.0Q47.0 11.0 47.6 10.8Q48.2 10.7 48.7 10.4Q49.2 10.1 49.6 9.7Q50.0 9.2 50.2 8.7L50.2 8.7L51.6 9.1Q51.4 9.8 50.8 10.4Q50.3 10.9 49.6 11.4Q48.9 11.8 48.1 12.0Q47.2 12.2 46.3 12.2ZM41.7 5.1L50.9 5.1Q50.8 4.1 50.5 3.3Q50.1 2.4 49.4 1.8Q48.8 1.2 48.0 0.9Q47.2 0.6 46.3 0.6L46.3 0.6Q45.4 0.6 44.6 0.9Q43.8 1.2 43.2 1.8Q42.5 2.4 42.2 3.3Q41.8 4.1 41.7 5.1L41.7 5.1ZM65.9 10.3L70.4-0.5L72.0-0.5L66.6 12L65.3 12L62.6 5.6L59.9 12L58.6 12L53.2-0.5L54.8-0.5L59.4 10.3L61.7 4.6L59.6-0.5L61.0-0.5L62.6 3.6L64.2-0.5L65.6-0.5L63.5 4.6L65.9 10.3ZM77.0 12.2L77.0 12.2Q76.1 12.2 75.4 11.9Q74.6 11.6 74.0 11.1Q73.5 10.6 73.2 9.9Q72.9 9.2 72.9 8.4L72.9 8.4Q72.9 7.5 73.2 6.8Q73.6 6.1 74.3 5.6Q75.0 5.1 76.0 4.9Q76.9 4.6 78.1 4.6L78.1 4.6Q79.0 4.6 80.0 4.8Q81.0 4.9 81.8 5.2L81.8 5.2L81.8 4.1Q81.8 2.4 80.8 1.5Q79.9 0.5 78.3 0.5L78.3 0.5Q77.3 0.5 76.3 0.9Q75.3 1.3 74.2 2.0L74.2 2.0L73.7 0.9Q76.1-0.7 78.4-0.7L78.4-0.7Q80.7-0.7 82.1 0.6Q83.4 1.9 83.4 4.2L83.4 4.2L83.4 9.9Q83.4 10.6 84.0 10.6L84.0 10.6L84.0 12Q83.6 12.1 83.4 12.1L83.4 12.1Q82.8 12.1 82.4 11.8Q82.1 11.4 82.0 10.9L82.0 10.9L82 9.9Q81.1 11.0 79.8 11.6Q78.5 12.2 77.0 12.2ZM77.4 11.0L77.4 11.0Q78.7 11.0 79.7 10.5Q80.8 10.0 81.4 9.2L81.4 9.2Q81.6 9.0 81.7 8.8Q81.8 8.5 81.8 8.3L81.8 8.3L81.8 6.3Q81.0 6.0 80.1 5.8Q79.2 5.6 78.3 5.6L78.3 5.6Q76.6 5.6 75.5 6.3Q74.4 7.1 74.4 8.2L74.4 8.2Q74.4 8.8 74.6 9.3Q74.9 9.8 75.3 10.2Q75.7 10.6 76.2 10.8Q76.8 11.0 77.4 11.0ZM87.4 17.3L87.4 15.8Q87.5 15.9 87.7 15.9Q87.9 15.9 88.1 15.9L88.1 15.9Q88.5 15.9 88.8 15.8Q89.0 15.6 89.2 15.2Q89.5 14.8 89.8 14.1Q90.1 13.3 90.6 12L90.6 12L85.2-0.5L86.9-0.5L91.5 10.5L95.8-0.5L97.4-0.5L90.9 15.6Q90.6 16.3 90.0 16.8Q89.4 17.4 88.3 17.4L88.3 17.4Q88.1 17.4 87.9 17.3Q87.7 17.3 87.4 17.3L87.4 17.3Z" fill="foregroundcolor"/></svg>