<?xml version="1.0" encoding="UTF-8"?>
<svg width="16px" height="16px" viewBox="0 0 16 16" version="1.1" xmlns="http://www.w3.org/2000/svg" xmlns:xlink="http://www.w3.org/1999/xlink">
    <g id="sun" stroke="none" stroke-width="1" fill="none" fill-rule="evenodd" opacity="0.5">
        <path d="M8.11083984,3.02929688 C8.54882812,3.02929688 8.91064453,2.66748047 8.91064453,2.23583984 C8.91064453,1.79785156 8.54882812,1.44238281 8.11083984,1.44238281 C7.67285156,1.44238281 7.31738281,1.79150391 7.31738281,2.23583984 C7.31738281,2.66748047 7.68554688,3.02929688 8.11083984,3.02929688 Z M12.6938477,4.46386719 C13.0112305,4.15283203 13.0112305,3.65136719 12.6938477,3.34033203 C12.3764648,3.02294922 11.8876953,3.02294922 11.5703125,3.34033203 C11.265625,3.64501953 11.265625,4.15917969 11.5703125,4.46386719 C11.875,4.76855469 12.3891602,4.76855469 12.6938477,4.46386719 Z M4.65136719,4.47021484 C4.96875,4.14648438 4.96875,3.6640625 4.65136719,3.34667969 C4.34033203,3.02929688 3.83886719,3.02929688 3.52783203,3.34667969 C3.22314453,3.65136719 3.22314453,4.15917969 3.52783203,4.47021484 C3.83251953,4.77490234 4.34667969,4.77490234 4.65136719,4.47021484 Z M8.11083984,11.2558594 C9.93261719,11.2558594 11.4370117,9.75146484 11.4370117,7.9296875 C11.4370117,6.11425781 9.93261719,4.60986328 8.11083984,4.60986328 C6.29541016,4.60986328 4.79101562,6.11425781 4.79101562,7.9296875 C4.79101562,9.75146484 6.29541016,11.2558594 8.11083984,11.2558594 Z M8.11083984,10.0688477 C6.94921875,10.0688477 5.97802734,9.09765625 5.97802734,7.9296875 C5.97802734,6.77441406 6.94921875,5.796875 8.11083984,5.796875 C9.27880859,5.796875 10.25,6.76806641 10.25,7.9296875 C10.25,9.09765625 9.27880859,10.0688477 8.11083984,10.0688477 Z M2.4296875,8.72314453 C2.86132812,8.72314453 3.22314453,8.35498047 3.22314453,7.9296875 C3.22314453,7.48535156 2.87402344,7.12988281 2.4296875,7.12988281 C1.99169922,7.12988281 1.63623047,7.49169922 1.63623047,7.9296875 C1.63623047,8.36132812 1.99804688,8.72314453 2.4296875,8.72314453 Z M13.7983398,8.75488281 C14.2426758,8.75488281 14.5917969,8.40576172 14.5917969,7.96142578 C14.5917969,7.53613281 14.2299805,7.16796875 13.7983398,7.16796875 C13.3603516,7.16796875 13.0048828,7.52978516 13.0048828,7.96142578 C13.0048828,8.39941406 13.3603516,8.75488281 13.7983398,8.75488281 Z M4.65771484,12.5 C4.96240234,12.1953125 4.96240234,11.6875 4.65771484,11.3764648 C4.35302734,11.0717773 3.83886719,11.0717773 3.53417969,11.3764648 C3.21679688,11.6938477 3.21679688,12.1889648 3.53417969,12.5 C3.84521484,12.8173828 4.34667969,12.8173828 4.65771484,12.5 Z M12.668457,12.5317383 C12.9731445,12.2270508 12.9731445,11.7128906 12.668457,11.4082031 C12.3510742,11.097168 11.8496094,11.097168 11.5385742,11.4082031 C11.2275391,11.7192383 11.2275391,12.2207031 11.5385742,12.5317383 C11.8623047,12.8427734 12.3447266,12.8427734 12.668457,12.5317383 Z M8.11083984,14.3979492 C8.54882812,14.3979492 8.91064453,14.0424805 8.91064453,13.6044922 C8.91064453,13.1728516 8.54882812,12.8110352 8.11083984,12.8110352 C7.68554688,12.8110352 7.31738281,13.1728516 7.31738281,13.6044922 C7.31738281,14.0488281 7.67285156,14.3979492 8.11083984,14.3979492 Z" fill="#000000" fill-rule="nonzero"></path>
    </g>
</svg>