<svg width="112" height="63" viewBox="0 0 112 63" fill="none" xmlns="http://www.w3.org/2000/svg">
<g clip-path="url(#clip0_5467_24700)">
<rect width="112" height="63" fill="#FAE4E8"/>
<path d="M22.392 -24.5847C25.1016 -27.7426 29.9884 -27.7426 32.698 -24.5847L38.3775 -17.9658C39.7857 -16.3247 41.8914 -15.4525 44.0476 -15.6172L52.7439 -16.2815C56.8929 -16.5984 60.3483 -13.1429 60.0314 -8.994L59.3671 -0.297735C59.2024 1.85849 60.0746 3.96423 61.7157 5.37244L68.3346 11.0519C71.4925 13.7616 71.4925 18.6483 68.3346 21.3579L61.7157 27.0374C60.0746 28.4456 59.2024 30.5513 59.3671 32.7076L60.0314 41.4038C60.3483 45.5528 56.8929 49.0082 52.7439 48.6913L44.0476 48.027C41.8914 47.8623 39.7857 48.7345 38.3775 50.3756L32.698 56.9946C29.9884 60.1524 25.1016 60.1524 22.392 56.9946L16.7125 50.3756C15.3043 48.7345 13.1986 47.8623 11.0424 48.027L2.34609 48.6913C-1.80286 49.0082 -5.25829 45.5528 -4.94136 41.4038L-4.27707 32.7076C-4.11236 30.5513 -4.98459 28.4456 -6.62573 27.0374L-13.2447 21.3579C-16.4025 18.6483 -16.4025 13.7615 -13.2447 11.0519L-6.62574 5.37244C-4.98459 3.96423 -4.11236 1.85849 -4.27707 -0.29773L-4.94136 -8.994C-5.25829 -13.1429 -1.80286 -16.5984 2.34608 -16.2815L11.0424 -15.6172C13.1986 -15.4525 15.3043 -16.3247 16.7125 -17.9658L22.392 -24.5847Z" fill="#F4B7B8"/>
<path d="M25.5457 32.4961C25.7537 32.5521 25.9777 32.6001 26.2177 32.6401C26.4577 32.6721 26.7217 32.6881 27.0097 32.6881C27.4977 32.6881 27.9297 32.6201 28.3057 32.4841C28.6817 32.3481 28.9937 32.1641 29.2417 31.9321C29.4977 31.6921 29.6897 31.4201 29.8177 31.1161C29.9457 30.8041 30.0097 30.4721 30.0097 30.1201C30.0097 29.7841 29.9537 29.4641 29.8417 29.1601C29.7297 28.8481 29.5577 28.5801 29.3257 28.3561C29.1017 28.1241 28.8177 27.9401 28.4737 27.8041C28.1297 27.6681 27.7257 27.6001 27.2617 27.6001H24.4537V36.0001H25.5457V32.4961ZM25.5457 28.1281H26.8057C27.1417 28.1281 27.4377 28.1881 27.6937 28.3081C27.9497 28.4281 28.1617 28.5881 28.3297 28.7881C28.4977 28.9801 28.6217 29.2001 28.7017 29.4481C28.7897 29.6881 28.8337 29.9281 28.8337 30.1681C28.8337 30.4001 28.7937 30.6361 28.7137 30.8761C28.6417 31.1081 28.5217 31.3201 28.3537 31.5121C28.1857 31.7041 27.9737 31.8601 27.7177 31.9801C27.4617 32.1001 27.1537 32.1601 26.7937 32.1601C26.5457 32.1601 26.3177 32.1521 26.1097 32.1361C25.9017 32.1121 25.7137 32.0681 25.5457 32.0041V28.1281Z" fill="black"/>
<path d="M31.7171 30.0001V36.0001H32.7371V30.0001H31.7171ZM31.5731 28.1041C31.5731 28.2801 31.6371 28.4321 31.7651 28.5601C31.8931 28.6881 32.0451 28.7521 32.2211 28.7521C32.3971 28.7521 32.5491 28.6881 32.6771 28.5601C32.8051 28.4321 32.8691 28.2801 32.8691 28.1041C32.8691 27.9281 32.8051 27.7761 32.6771 27.6481C32.5491 27.5201 32.3971 27.4561 32.2211 27.4561C32.0451 27.4561 31.8931 27.5201 31.7651 27.6481C31.6371 27.7761 31.5731 27.9281 31.5731 28.1041Z" fill="black"/>
<path d="M34.4245 30.4801V30.0001H35.4685V28.1521H36.4885V30.0001H37.9405V30.4801H36.4885V34.4641C36.4885 34.5601 36.4925 34.6721 36.5005 34.8001C36.5085 34.9201 36.5325 35.0361 36.5725 35.1481C36.6125 35.2521 36.6725 35.3401 36.7525 35.4121C36.8405 35.4841 36.9605 35.5201 37.1125 35.5201C37.3045 35.5201 37.4645 35.4481 37.5925 35.3041C37.7205 35.1601 37.8245 35.0041 37.9045 34.8361L38.4685 35.4121C38.0765 35.8041 37.6325 36.0001 37.1365 36.0001C36.9285 36.0001 36.7245 35.9641 36.5245 35.8921C36.3245 35.8201 36.1445 35.7121 35.9845 35.5681C35.8325 35.4161 35.7085 35.2241 35.6125 34.9921C35.5165 34.7601 35.4685 34.4881 35.4685 34.1761V30.4801H34.4245Z" fill="black"/>
<path d="M42.5365 35.5201C42.2485 35.5201 41.9685 35.4761 41.6965 35.3881C41.4325 35.3001 41.1965 35.1601 40.9885 34.9681C40.7805 34.7681 40.6125 34.5081 40.4845 34.1881C40.3645 33.8601 40.3045 33.4601 40.3045 32.9881C40.3045 32.5001 40.3725 32.0881 40.5085 31.7521C40.6445 31.4081 40.8125 31.1361 41.0125 30.9361C41.2205 30.7281 41.4485 30.5801 41.6965 30.4921C41.9445 30.3961 42.1805 30.3481 42.4045 30.3481C42.7725 30.3481 43.0925 30.4441 43.3645 30.6361C43.6365 30.8281 43.8165 31.0641 43.9045 31.3441H44.7325C44.6525 31.0561 44.5245 30.8201 44.3485 30.6361C44.1725 30.4441 43.9685 30.2921 43.7365 30.1801C43.5125 30.0601 43.2685 29.9801 43.0045 29.9401C42.7485 29.8921 42.5005 29.8681 42.2605 29.8681C41.7565 29.8681 41.3125 29.9521 40.9285 30.1201C40.5445 30.2801 40.2205 30.5001 39.9565 30.7801C39.6925 31.0601 39.4925 31.3881 39.3565 31.7641C39.2285 32.1401 39.1645 32.5401 39.1645 32.9641C39.1645 33.4121 39.2365 33.8321 39.3805 34.2241C39.5245 34.6081 39.7285 34.9441 39.9925 35.2321C40.2645 35.5121 40.5885 35.7361 40.9645 35.9041C41.3405 36.0641 41.7645 36.1441 42.2365 36.1441C42.7645 36.1441 43.2245 36.0561 43.6165 35.8801C44.0165 35.7041 44.3525 35.5121 44.6245 35.3041L44.2765 34.8481C43.9965 35.0801 43.7165 35.2521 43.4365 35.3641C43.1645 35.4681 42.8645 35.5201 42.5365 35.5201Z" fill="black"/>
<path d="M46.0519 27.6001V36.0001H47.0719V32.5321C47.0719 32.3721 47.0839 32.1761 47.1079 31.9441C47.1319 31.7121 47.1959 31.4881 47.2999 31.2721C47.4119 31.0561 47.5759 30.8721 47.7919 30.7201C48.0079 30.5601 48.3079 30.4801 48.6919 30.4801C48.9639 30.4801 49.1799 30.5321 49.3399 30.6361C49.5079 30.7321 49.6359 30.8641 49.7239 31.0321C49.8119 31.2001 49.8679 31.3961 49.8919 31.6201C49.9239 31.8441 49.9399 32.0761 49.9399 32.3161V36.0001H50.9599V32.0401C50.9599 31.5921 50.8959 31.2281 50.7679 30.9481C50.6399 30.6601 50.4799 30.4361 50.2879 30.2761C50.0959 30.1161 49.8839 30.0081 49.6519 29.9521C49.4279 29.8961 49.2119 29.8681 49.0039 29.8681C48.7239 29.8681 48.4279 29.9241 48.1159 30.0361C47.8119 30.1401 47.5239 30.3441 47.2519 30.6481L47.1199 30.8161H47.0719V27.6001H46.0519Z" fill="black"/>
<path d="M58.3752 27.6001H57.5592V36.0001H58.0872V29.1481H58.1352L61.8432 36.1441H62.0592L65.8512 29.1961H65.8992V36.0001H66.9912V27.6001H66.1632L62.2752 34.8121H62.2272L58.3752 27.6001Z" fill="black"/>
<path d="M75.2516 33.0121C75.2516 33.4281 75.1796 33.8281 75.0356 34.2121C74.8916 34.5881 74.6836 34.9201 74.4116 35.2081C74.1476 35.4961 73.8236 35.7241 73.4396 35.8921C73.0636 36.0601 72.6396 36.1441 72.1676 36.1441C71.6876 36.1441 71.2516 36.0601 70.8596 35.8921C70.4756 35.7161 70.1476 35.4841 69.8756 35.1961C69.6116 34.9081 69.4036 34.5761 69.2516 34.2001C69.1076 33.8161 69.0356 33.4201 69.0356 33.0121C69.0356 32.5961 69.1076 32.2001 69.2516 31.8241C69.4036 31.4401 69.6116 31.1041 69.8756 30.8161C70.1476 30.5281 70.4756 30.3001 70.8596 30.1321C71.2516 29.9561 71.6876 29.8681 72.1676 29.8681C72.6396 29.8681 73.0636 29.9561 73.4396 30.1321C73.8236 30.3001 74.1476 30.5281 74.4116 30.8161C74.6836 31.1041 74.8916 31.4401 75.0356 31.8241C75.1796 32.2001 75.2516 32.5961 75.2516 33.0121ZM74.1116 33.0121C74.1116 32.4521 74.0516 32.0001 73.9316 31.6561C73.8116 31.3041 73.6556 31.0321 73.4636 30.8401C73.2716 30.6481 73.0596 30.5201 72.8276 30.4561C72.5956 30.3841 72.3716 30.3481 72.1556 30.3481C71.9396 30.3481 71.7156 30.3841 71.4836 30.4561C71.2516 30.5201 71.0356 30.6481 70.8356 30.8401C70.6436 31.0321 70.4836 31.3041 70.3556 31.6561C70.2356 32.0001 70.1756 32.4521 70.1756 33.0121C70.1756 33.5641 70.2356 34.0161 70.3556 34.3681C70.4836 34.7121 70.6436 34.9801 70.8356 35.1721C71.0356 35.3641 71.2516 35.4961 71.4836 35.5681C71.7156 35.6321 71.9396 35.6641 72.1556 35.6641C72.3716 35.6641 72.5956 35.6321 72.8276 35.5681C73.0596 35.4961 73.2716 35.3641 73.4636 35.1721C73.6556 34.9801 73.8116 34.7121 73.9316 34.3681C74.0516 34.0161 74.1116 33.5641 74.1116 33.0121Z" fill="black"/>
<path d="M82.1416 27.6001H81.1216V30.9841H81.0736C80.9936 30.7761 80.8856 30.6041 80.7496 30.4681C80.6216 30.3241 80.4736 30.2081 80.3056 30.1201C80.1376 30.0321 79.9576 29.9681 79.7656 29.9281C79.5816 29.8881 79.3936 29.8681 79.2016 29.8681C78.8016 29.8681 78.4336 29.9441 78.0976 30.0961C77.7616 30.2401 77.4696 30.4481 77.2216 30.7201C76.9816 30.9921 76.7936 31.3201 76.6576 31.7041C76.5216 32.0881 76.4536 32.5161 76.4536 32.9881C76.4536 33.4681 76.5216 33.9041 76.6576 34.2961C76.7936 34.6801 76.9816 35.0121 77.2216 35.2921C77.4696 35.5641 77.7616 35.7761 78.0976 35.9281C78.4336 36.0721 78.8016 36.1441 79.2016 36.1441C80.1456 36.1441 80.7696 35.7721 81.0736 35.0281H81.1216V36.0001H82.1416V27.6001ZM81.1216 33.6001C81.1216 33.8641 81.0776 34.1161 80.9896 34.3561C80.9016 34.5881 80.7816 34.7921 80.6296 34.9681C80.4856 35.1361 80.3096 35.2721 80.1016 35.3761C79.9016 35.4721 79.6856 35.5201 79.4536 35.5201C79.1976 35.5201 78.9576 35.4761 78.7336 35.3881C78.5096 35.2921 78.3136 35.1441 78.1456 34.9441C77.9776 34.7441 77.8416 34.4841 77.7376 34.1641C77.6416 33.8441 77.5936 33.4601 77.5936 33.0121C77.5936 32.5561 77.6416 32.1681 77.7376 31.8481C77.8416 31.5281 77.9776 31.2681 78.1456 31.0681C78.3216 30.8601 78.5216 30.7121 78.7456 30.6241C78.9696 30.5281 79.2056 30.4801 79.4536 30.4801C79.6776 30.4801 79.8896 30.5281 80.0896 30.6241C80.2896 30.7121 80.4656 30.8481 80.6176 31.0321C80.7696 31.2081 80.8896 31.4241 80.9776 31.6801C81.0736 31.9361 81.1216 32.2281 81.1216 32.5561V33.6001Z" fill="black"/>
<path d="M89.3838 33.2641V33.0121C89.3838 32.4761 89.3078 32.0121 89.1558 31.6201C89.0038 31.2281 88.7958 30.9041 88.5318 30.6481C88.2758 30.3921 87.9758 30.2001 87.6318 30.0721C87.2878 29.9441 86.9238 29.8801 86.5398 29.8801C86.1318 29.8801 85.7558 29.9521 85.4118 30.0961C85.0678 30.2321 84.7678 30.4361 84.5118 30.7081C84.2558 30.9721 84.0558 31.2961 83.9118 31.6801C83.7678 32.0561 83.6958 32.4841 83.6958 32.9641C83.6958 33.3641 83.7558 33.7561 83.8758 34.1401C84.0038 34.5161 84.1918 34.8561 84.4398 35.1601C84.6958 35.4561 85.0158 35.6961 85.3998 35.8801C85.7918 36.0561 86.2518 36.1441 86.7798 36.1441C87.2918 36.1441 87.7638 36.0561 88.1958 35.8801C88.6278 35.6961 89.0038 35.4361 89.3238 35.1001L88.9398 34.7161C88.7718 34.8601 88.6118 34.9921 88.4598 35.1121C88.3158 35.2321 88.1678 35.3321 88.0158 35.4121C87.8638 35.4921 87.7038 35.5561 87.5358 35.6041C87.3758 35.6441 87.1958 35.6641 86.9958 35.6641C86.7718 35.6641 86.5318 35.6321 86.2758 35.5681C86.0278 35.4961 85.7958 35.3721 85.5798 35.1961C85.3638 35.0201 85.1838 34.7761 85.0398 34.4641C84.8958 34.1521 84.8238 33.7521 84.8238 33.2641H89.3838ZM84.8238 32.7841C84.8238 32.4641 84.8558 32.1561 84.9198 31.8601C84.9918 31.5561 85.0958 31.2881 85.2318 31.0561C85.3758 30.8241 85.5558 30.6401 85.7718 30.5041C85.9878 30.3601 86.2438 30.2881 86.5398 30.2881C87.1078 30.2881 87.5478 30.5121 87.8598 30.9601C88.1798 31.4001 88.3398 32.0081 88.3398 32.7841H84.8238Z" fill="black"/>
</g>
<defs>
<clipPath id="clip0_5467_24700">
<rect width="112" height="63" fill="white"/>
</clipPath>
</defs>
</svg>
