<svg width="16" height="16" viewBox="0 0 16 16" fill="none" xmlns="http://www.w3.org/2000/svg">
<path d="M7.49999 3.75H6.00776L4.60776 7.25H6.98377C6.99422 7.24978 7.00467 7.24978 7.0151 7.25H9.99221L11.7785 2.78432C11.9076 2.46161 12.2201 2.25 12.5677 2.25H14.5C14.9142 2.25 15.25 2.58579 15.25 3C15.25 3.41421 14.9142 3.75 14.5 3.75H13.0078L11.6078 7.25H15C15.4142 7.25 15.75 7.58579 15.75 8C15.75 8.41421 15.4142 8.75 15 8.75H10.517C10.5055 8.75027 10.494 8.75027 10.4825 8.75H8.21354L9.96354 12.25H12C12.4142 12.25 12.75 12.5858 12.75 13C12.75 13.4142 12.4142 13.75 12 13.75H9.56182C9.23986 13.75 8.94554 13.5681 8.80155 13.2801L6.53649 8.75H3.517C3.50553 8.75027 3.49403 8.75027 3.48251 8.75H1C0.585786 8.75 0.25 8.41421 0.25 8C0.25 7.58579 0.585786 7.25 1 7.25H2.99221L4.77848 2.78432C4.90757 2.46161 5.22012 2.25 5.56769 2.25H7.49999C7.9142 2.25 8.24999 2.58579 8.24999 3C8.24999 3.41421 7.9142 3.75 7.49999 3.75Z" fill="#27292A"/>
</svg>
