<svg width="24" height="24" viewBox="0 0 24 24" fill="none" xmlns="http://www.w3.org/2000/svg">
<g clip-path="url(#clip0_219_2116)">
<mask id="mask0_219_2116" style="mask-type:alpha" maskUnits="userSpaceOnUse" x="0" y="0" width="24" height="24">
<path fill-rule="evenodd" clip-rule="evenodd" d="M0.000301361 0H24V24H0.000301361V0Z" fill="white"/>
</mask>
<g mask="url(#mask0_219_2116)">
<path d="M24.0003 12C24.0003 18.627 18.6273 24 12.0003 24C5.3723 24 0.000301361 18.627 0.000301361 12C0.000301361 5.373 5.3723 0 12.0003 0C18.6273 0 24.0003 5.373 24.0003 12" fill="#6A4CCD"/>
</g>
<path d="M12.18 4.4756L13.976 9.1876C14.002 9.2586 14.069 9.3076 14.144 9.3126L19.33 9.6576C19.507 9.6686 19.576 9.8926 19.438 10.0016L15.612 13.0326C15.553 13.0786 15.527 13.1546 15.543 13.2276L16.729 18.4126C16.769 18.5836 16.576 18.7146 16.43 18.6146L12.11 15.6286C12.043 15.5836 11.955 15.5836 11.889 15.6286L7.589 18.6006C7.442 18.7036 7.246 18.5656 7.292 18.3916L8.65 13.2336C8.67 13.1576 8.642 13.0776 8.579 13.0296L4.581 10.0036C4.438 9.8956 4.506 9.6676 4.685 9.6566L9.855 9.3126C9.93 9.3076 9.996 9.2586 10.023 9.1876L11.819 4.4756C11.881 4.3086 12.118 4.3086 12.18 4.4756" fill="white"/>
</g>
<defs>
<clipPath id="clip0_219_2116">
<rect width="24" height="24" fill="white"/>
</clipPath>
</defs>
</svg>
