<svg width="50" height="56" viewBox="0 0 50 56" fill="none" xmlns="http://www.w3.org/2000/svg">
<path d="M41.5142 2.0001C40.962 1.99219 40.5079 2.43344 40.5 2.98567L40.4713 4.98612C40.4634 5.53835 40.9046 5.99244 41.4569 6.00036C42.0091 6.00827 42.4632 5.56702 42.4711 5.0148L42.4998 3.01434C42.5077 2.46211 42.0664 2.00802 41.5142 2.0001Z" fill="#F1501A"/>
<path d="M46.1683 3.44531C46.4747 2.98582 47.0956 2.86171 47.5551 3.16811C48.0146 3.47452 48.1387 4.0954 47.8323 4.55489L45.8323 7.55415C45.5259 8.01365 44.9051 8.13775 44.4456 7.83135C43.9861 7.52495 43.862 6.90407 44.1684 6.44457L46.1683 3.44531Z" fill="#F1501A"/>
<path d="M48.0532 9.10464C48.5472 8.85755 49.1479 9.05764 49.395 9.55156C49.6421 10.0455 49.442 10.6462 48.9481 10.8933L46.9478 11.894C46.4539 12.1411 45.8532 11.941 45.6061 11.4471C45.359 10.9531 45.5591 10.3524 46.053 10.1053L48.0532 9.10464Z" fill="#F1501A"/>
<path d="M30.1469 22.9426C29.3706 22.6828 28.3906 22.2738 27.5978 21.699L27.6034 21.7045C26.205 20.693 25.0598 19.3113 24.1899 17.5868C24.3276 16.9125 24.5258 16.2548 24.7845 15.6357C27.1739 15.9287 29.2935 16.9733 30.9342 18.5043C30.8131 18.8028 30.7085 19.1068 30.6149 19.4163C30.4332 20.0187 30.3011 20.6433 30.224 21.29C30.1524 21.8482 30.1304 22.3954 30.1469 22.9426Z" fill="#F1501A"/>
<path d="M33.6211 30.8297C27.6091 30.0891 23.3203 24.6118 24.0195 18.5762C25.3518 20.9141 27.5265 22.7436 30.1802 23.6058C30.8408 23.8214 31.5345 23.9761 32.2502 24.0646C32.8999 24.142 33.544 24.1641 34.1772 24.1309C34.6066 24.1088 35.0305 24.059 35.4434 23.9872C36.5445 25.9604 37.051 28.2928 36.7592 30.7137C36.7592 30.7303 36.7592 30.7468 36.7537 30.7689C35.7958 30.9292 34.7993 30.9624 33.7863 30.8518C33.7202 30.8463 33.6651 30.8408 33.6211 30.8353V30.8297Z" fill="#F1501A"/>
<path d="M26.9812 35.5553C27.6804 29.5197 23.3916 24.0423 17.3796 23.3017V23.2962C17.3392 23.2925 17.3037 23.2888 17.2683 23.2851L17.2144 23.2796C16.2014 23.1691 15.2049 23.2022 14.2469 23.3625C14.2414 23.3846 14.2414 23.4012 14.2414 23.4178C13.9496 25.8386 14.4562 28.1711 15.5573 30.1442C15.9702 30.0724 16.3941 30.0226 16.8235 30.0005C17.4567 29.9674 18.1008 29.9895 18.7504 30.0669C19.4662 30.1553 20.1599 30.3101 20.8205 30.5256C23.4742 31.3878 25.6488 33.2173 26.9812 35.5553Z" fill="#F1501A"/>
<path d="M20.8591 31.1885C21.6298 31.4538 22.6153 31.8628 23.4136 32.4376V32.4321C24.8065 33.438 25.9517 34.8142 26.8215 36.5332C26.6784 37.213 26.4802 37.8707 26.2214 38.4953C23.832 38.2024 21.7124 37.1577 20.0718 35.6267C20.1929 35.3283 20.2975 35.0243 20.3911 34.7148C20.5728 34.1123 20.7049 33.4877 20.782 32.8411C20.8536 32.2828 20.8756 31.7301 20.8591 31.1885Z" fill="#F1501A"/>
<path fill-rule="evenodd" clip-rule="evenodd" d="M16.3333 7.50195H34.6667C40.3847 7.50195 45 12.1523 45 17.864V36.2693C45 41.981 40.3847 46.6313 34.6667 46.6313H16.3333C10.6153 46.6313 6 41.981 6 36.2693V17.864C6 12.1523 10.6153 7.50195 16.3333 7.50195ZM16.3333 10.502H34.6667C38.7168 10.502 42 13.7981 42 17.864V36.2693C42 40.3352 38.7168 43.6313 34.6667 43.6313H16.3333C12.2832 43.6313 9 40.3352 9 36.2693V17.864C9 13.7981 12.2832 10.502 16.3333 10.502Z" fill="#F1501A"/>
</svg>
