<svg xmlns="http://www.w3.org/2000/svg" viewBox="0 0 50 50" width="50" height="50"><g class="uk-icon-alternate-dark" version="1.1"><g stroke="#F4202C" stroke-width="1" fill="none" fill-rule="evenodd" stroke-linecap="round" stroke-linejoin="round"><path stroke-width="3" d="m21.5 19 3.113 12 4.406-10.125L33.302 31 36.5 19"/><path d="M14 16.622v-3.81c0-1.656 1.3-3 2.903-3h24.194c1.603 0 2.903 1.344 2.903 3v25c0 1.657-1.3 3-2.903 3H16.903c-1.603 0-2.903-1.343-2.903-3v-2.596" stroke-width="2.7"/><g stroke-width="3"><path d="M15 25.778H5.644M8.518 30.831 3.561 25.78l4.957-4.78"/></g></g></g><g class="uk-icon-alternate-default" version="1.1"><g stroke="#F4202C" stroke-width="1" fill="none" fill-rule="evenodd" stroke-linecap="round" stroke-linejoin="round"><path stroke-width="3" d="m21.5 19 3.113 12 4.406-10.125L33.302 31 36.5 19"/><path d="M14 16.622v-3.81c0-1.656 1.3-3 2.903-3h24.194c1.603 0 2.903 1.344 2.903 3v25c0 1.657-1.3 3-2.903 3H16.903c-1.603 0-2.903-1.343-2.903-3v-2.596" stroke-width="2.7"/><g stroke-width="3"><path d="M15 25.778H5.644M8.518 30.831 3.561 25.78l4.957-4.78"/></g></g></g></svg>