<?xml version="1.0" encoding="UTF-8"?><svg width="16px" height="16px" viewBox="0 0 16 16" version="1.1" xmlns="http://www.w3.org/2000/svg" xmlns:xlink="http://www.w3.org/1999/xlink"><!--Generator: Sketch 56 (81588) - https://sketch.com--><title>topic link</title><desc>Created with Sketch.</desc><g id="topic-link" stroke="none" stroke-width="1" fill="none" fill-rule="evenodd"><path d="M8,10.1 L8,8.9 L9,8.9 C9.2209139,8.9 9.4,8.7209139 9.4,8.5 L9.4,4.5 C9.4,4.2790861 9.2209139,4.1 9,4.1 L2,4.1 C1.7790861,4.1 1.6,4.2790861 1.6,4.5 L1.6,8.5 C1.6,8.7209139 1.7790861,8.9 2,8.9 L4,8.9 L4,10.1 L2,10.1 C1.1163444,10.1 0.4,9.3836556 0.4,8.5 L0.4,4.5 C0.4,3.6163444 1.1163444,2.9 2,2.9 L9,2.9 C9.8836556,2.9 10.6,3.6163444 10.6,4.5 L10.6,8.5 C10.6,9.3836556 9.8836556,10.1 9,10.1 L8,10.1 Z" id="Combined-Shape" fill="#000000" fill-rule="nonzero"/><path d="M8.0013722,5.9 L8.0013722,7.1 L7,7.1 C6.7790861,7.1 6.6,7.2790861 6.6,7.5 L6.6,11.5 C6.6,11.7209139 6.7790861,11.9 7,11.9 L14,11.9 C14.2209139,11.9 14.4,11.7209139 14.4,11.5 L14.4,7.5 C14.4,7.2790861 14.2209139,7.1 14,7.1 L12.0013722,7.1 L12.0013722,5.9 L14,5.9 C14.8836556,5.9 15.6,6.6163444 15.6,7.5 L15.6,11.5 C15.6,12.3836556 14.8836556,13.1 14,13.1 L7,13.1 C6.1163444,13.1 5.4,12.3836556 5.4,11.5 L5.4,7.5 C5.4,6.6163444 6.1163444,5.9 7,5.9 L8.0013722,5.9 Z" id="Combined-Shape" fill="#000000" fill-rule="nonzero"/></g></svg>