<svg xmlns="http://www.w3.org/2000/svg" viewBox="0 0 356 150" width="356" height="150"><g class="uk-icon-alternate-dark" version="1.1"><g stroke="none" stroke-width="1" fill="none" fill-rule="evenodd"><path d="M260 105.495 92.872 187.067 61.372 189s-2.144-57.705-1.072-59.592C61.373 127.52 169.702 15 169.702 15L260 105.495Z" fill="#F5D945" fill-rule="nonzero" style="mix-blend-mode:multiply"/><path fill="#FFFF17" fill-rule="nonzero" d="M165 73.989 169.26 15l88.962 2.824 1.778 87.67L166.736 107z"/><g opacity=".2" stroke="#FF5E45" stroke-width="3.7"><path d="m184.134 74.7 69.448-2.7L255 100l-75-.219zM187 76l63 20M250 73l-67 25"/></g><g opacity=".2" transform="translate(182 28)" fill="#000" fill-rule="nonzero"><rect opacity=".5" x=".085" y=".151" width="60.807" height="3.485" rx="1.742"/><rect opacity=".5" x=".085" y="8.7" width="60.807" height="3.485" rx="1.742"/><rect opacity=".5" x=".085" y="17.251" width="60.807" height="3.485" rx="1.742"/><rect opacity=".5" x=".085" y="25.8" width="51.617" height="3.485" rx="1.742"/><rect opacity=".5" x=".085" y="34.348" width="41.383" height="3.485" rx="1.742"/></g><path fill="#F5D945" fill-rule="nonzero" style="mix-blend-mode:multiply" d="M260 100V77l-15 9z"/><path fill="#FF5E45" fill-rule="nonzero" d="M332 86h-87V54.361L332 49z"/><path d="M298.194 79.342a15.136 15.136 0 0 0 2.483-.904c.186-.091.366-.195.537-.311a.941.941 0 0 0 .325-.326c.021-.042 0-.024 0-.039l-.024-.024a.34.34 0 0 0-.067-.059 1.87 1.87 0 0 0-.486-.249 11.562 11.562 0 0 0-2.556-.507 61.612 61.612 0 0 0-2.69-.225c-1.82-.119-3.623-.207-5.463-.362a53.396 53.396 0 0 1-2.732-.296 17.1 17.1 0 0 1-2.771-.61 7.507 7.507 0 0 1-.699-.27c-.118-.048-.233-.113-.349-.172-.066-.036-.103-.05-.19-.104-.089-.053-.083-.053-.14-.1l-.076-.069-.085-.098a.927.927 0 0 1-.16-.302.869.869 0 0 1-.001-.439c.052-.187.157-.357.303-.489.14-.12.297-.219.465-.296.238-.11.483-.203.734-.279.898-.26 1.81-.471 2.732-.634 1.822-.338 3.61-.608 5.413-.866 3.606-.512 7.209-.966 10.797-1.458 1.794-.249 3.585-.504 5.348-.803.878-.154 1.761-.317 2.565-.525.186-.046.37-.101.55-.166a1.23 1.23 0 0 0 .182-.074c.018 0 .024-.015 0 0l-.021.015-.049.038-.07.069a.99.99 0 0 0-.258.7c0 .12.022.24.067.352.029.085.07.165.125.237a.554.554 0 0 0 .1.121.601.601 0 0 0 .07.066l.075.056c.049.027 0 0-.07-.018a4.261 4.261 0 0 0-.525-.11 20.337 20.337 0 0 0-2.537-.251 65.995 65.995 0 0 0-2.668-.077 206 206 0 0 0-5.41.026c-7.242.128-14.525.37-21.855.24-3.667-.074-7.346-.228-11.056-.631a53.371 53.371 0 0 1-5.6-.89c-.96-.21-1.91-.472-2.841-.782l-.714-.255c-.124-.047-.233-.08-.367-.136-.134-.056-.267-.11-.416-.184-.35-.16-.68-.36-.983-.593l-.146-.118c-.058-.05-.115-.107-.17-.16a2.76 2.76 0 0 1-.17-.181c-.067-.077-.128-.163-.188-.246-.06-.083-.055-.077-.088-.136a1.676 1.676 0 0 1-.097-.178 2.483 2.483 0 0 1-.264-1.402c.016-.168.052-.333.106-.492.024-.077.051-.154.082-.232.026-.063.056-.124.09-.183.062-.117.13-.23.207-.338.06-.08.125-.157.191-.234l.104-.113.088-.08.176-.157c.115-.098.206-.154.303-.231.31-.201.64-.373.984-.513a13.445 13.445 0 0 1 1.57-.525 34.629 34.629 0 0 1 2.853-.628 91.827 91.827 0 0 1 5.527-.812c3.661-.442 7.304-.774 10.946-1.067 7.285-.578 14.57-1 21.835-1.364 7.264-.364 14.54-.658 21.837-.889l.088 6.45c-7.228-.015-14.488.038-21.728.154-7.24.116-14.486.296-21.7.628-3.607.17-7.207.377-10.77.688-1.78.157-3.552.34-5.274.593-.856.127-1.702.272-2.477.456a8.803 8.803 0 0 0-1.02.297c-.124.047-.233.1-.227.092.006-.01 0 0 .04-.033a.241.241 0 0 0 .05-.045l.022-.026.049-.048a.944.944 0 0 0 .082-.11c.047-.06.088-.124.121-.192l.052-.11a1.539 1.539 0 0 0 .124-.48 1.465 1.465 0 0 0 0-.364 1.776 1.776 0 0 0-.164-.56l-.057-.104-.043-.066a1.032 1.032 0 0 0-.088-.112l-.055-.06-.048-.041h-.015c.05.046.109.082.173.107.051.03.133.065.2.098l.27.106.556.223c.778.286 1.572.533 2.377.738a50.06 50.06 0 0 0 5.114.996c3.497.498 7.076.77 10.667.963 7.194.37 14.443.373 21.728.489 1.822.03 3.643.074 5.485.154.911.042 1.843.095 2.772.172.964.07 1.922.201 2.868.391.27.05.536.118.796.205.192.063.377.145.552.246a1.625 1.625 0 0 1 .352.27 1.4 1.4 0 0 1 .322.495c.049.139.075.285.079.432 0 .147-.022.293-.067.433a1.561 1.561 0 0 1-.146.296 1.9 1.9 0 0 1-.145.187 1.565 1.565 0 0 1-.246.217l-.091.062a2.015 2.015 0 0 1-.304.163 4.432 4.432 0 0 1-.452.172 9.79 9.79 0 0 1-.756.201c-.96.21-1.87.344-2.787.472-1.82.251-3.642.444-5.463.634-3.619.376-7.234.708-10.834 1.097-1.8.198-3.597.403-5.367.672-.868.124-1.73.293-2.58.504-.184.05-.364.11-.54.181-.07.03-.13.071-.113.053a.38.38 0 0 0 .116-.216.519.519 0 0 0 0-.273.509.509 0 0 0-.08-.157l-.033-.035c-.015 0 0 0 0 0s.073.041.107.062a6.286 6.286 0 0 0 .81.373c.82.282 1.663.496 2.52.64.874.158 1.76.28 2.656.386 1.788.21 3.594.359 5.409.54.91.091 1.821.19 2.732.32.94.111 1.863.33 2.75.652.25.097.484.232.692.4a.979.979 0 0 1 .17.178c.027.035.055.068.079.106.024.047.045.094.064.143.038.1.054.21.045.317a.82.82 0 0 1-.082.296c-.14.257-.35.471-.607.62a5.07 5.07 0 0 1-.643.35c-.854.365-1.74.653-2.647.862l-.158-.658Z" fill="#FFF" fill-rule="nonzero"/><path d="M23.683 53.058a3.17 3.17 0 0 1 .347-.384 3.02 3.02 0 0 1 .185-.163l.127-.103.105-.079.302-.211c.179-.115.33-.206.48-.302.303-.173.575-.33.85-.48.55-.303 1.088-.584 1.626-.862 1.075-.556 2.145-1.09 3.218-1.616a321.41 321.41 0 0 1 6.448-3.067 401.867 401.867 0 0 1 13.038-5.76c4.387-1.834 8.81-3.595 13.337-5.188 2.263-.791 4.554-1.54 6.91-2.196a51.29 51.29 0 0 1 3.626-.873 22.36 22.36 0 0 1 3.977-.484c.391-.006.783.011 1.172.051.475.05.943.151 1.396.303.66.209 1.262.574 1.753 1.063.31.317.56.686.74 1.091.163.377.265.778.302 1.187a4.756 4.756 0 0 1-.181 1.79A7.554 7.554 0 0 1 82.963 38c-.324.647-.7 1.266-1.124 1.852a33.313 33.313 0 0 1-2.417 2.964 49.867 49.867 0 0 1-2.586 2.644c-3.53 3.375-7.276 6.346-11.065 9.24-3.79 2.895-7.654 5.63-11.483 8.373-1.915 1.372-3.828 2.74-5.683 4.13a66.864 66.864 0 0 0-2.695 2.116c-.423.356-.834.719-1.179 1.063a5.777 5.777 0 0 0-.414.457c-.042.054-.066.1-.048.06.024-.058.045-.117.06-.178a1.51 1.51 0 0 0 .018-.638 1.704 1.704 0 0 0-.507-.93 1.453 1.453 0 0 0-.49-.303.774.774 0 0 0-.154-.039c.177.006.354-.003.529-.027a15.332 15.332 0 0 0 1.532-.275 54.541 54.541 0 0 0 3.294-.88 168.308 168.308 0 0 0 6.647-2.154l3.324-1.157 1.659-.59a40.86 40.86 0 0 0 1.62-.604c2.141-.827 4.278-1.764 6.399-2.737 4.23-1.958 8.442-4.073 12.618-6.23a852.193 852.193 0 0 0 12.485-6.612l6.243-3.348c1.045-.556 2.09-1.109 3.157-1.653.541-.271 1.067-.537 1.677-.806.189-.085.383-.158.58-.218l.136-.036c.084-.019.169-.03.254-.036.14.051.242-.182 1.046.32.94 1.048.302 1.734.36 1.743-.05.1-.11.192-.179.278-.042.055-.073.088-.103.121s-.102.106-.145.148c-.166.154-.302.257-.423.363l-.378.302c-3.752 2.837-7.466 5.723-11.1 8.696-3.636 2.973-7.204 6.028-10.543 9.276a58.521 58.521 0 0 0-2.417 2.493 31.4 31.4 0 0 0-2.191 2.617c-.321.429-.609.881-.861 1.354a3.565 3.565 0 0 0-.254.604 1.184 1.184 0 0 0-.04.193c0 .037 0 .015-.03-.06a.363.363 0 0 0-.157-.157h.06c.198.01.395-.007.587-.052a8.349 8.349 0 0 0 1.49-.483 1 1 0 0 1 .782 1.84c-.598.272-1.222.485-1.861.638-.384.09-.779.124-1.172.102a2.14 2.14 0 0 1-.79-.202 1.683 1.683 0 0 1-.785-.759 1.925 1.925 0 0 1-.2-.906 2.72 2.72 0 0 1 .098-.677c.096-.355.227-.699.392-1.027.293-.574.628-1.126 1.004-1.65a33.54 33.54 0 0 1 2.296-2.85 63.5 63.5 0 0 1 2.466-2.619c3.363-3.393 6.919-6.536 10.527-9.606 3.608-3.07 7.3-6.043 11.023-8.959l.317-.253c.096-.079.196-.167.248-.215.05-.048.018-.021 0 0l-.034.04a.952.952 0 0 0-.115.184c.06-.022-.55.622.36 1.643.774.478.837.248.94.303.048-.004.097-.01.145-.019h.027l-.085.034-.157.07c-.465.214-.99.489-1.51.755-1.025.543-2.055 1.114-3.083 1.683l-6.14 3.432a878.091 878.091 0 0 1-12.406 6.856c-4.164 2.248-8.358 4.454-12.648 6.524-2.146 1.033-4.315 2.033-6.56 2.946-.553.226-1.142.45-1.69.655l-1.661.626-3.324 1.23c-2.233.806-4.475 1.595-6.768 2.32a55.401 55.401 0 0 1-3.526 1.006c-.641.162-1.29.29-1.943.384-.408.06-.82.082-1.233.07a3.626 3.626 0 0 1-.432-.046 3.242 3.242 0 0 1-.583-.145 2.568 2.568 0 0 1-.87-.522 2.345 2.345 0 0 1-.717-1.312 2.469 2.469 0 0 1 .049-1.076c.05-.208.125-.411.22-.604.12-.24.262-.47.423-.686.23-.308.48-.6.75-.876a22.74 22.74 0 0 1 1.423-1.333 66.192 66.192 0 0 1 2.828-2.305c1.891-1.472 3.792-2.883 5.69-4.294 3.789-2.813 7.554-5.608 11.237-8.5 3.683-2.891 7.252-5.867 10.494-9.064a50.258 50.258 0 0 0 2.314-2.457 28.99 28.99 0 0 0 2.016-2.544c.262-.374.494-.768.695-1.178.065-.136.119-.278.16-.423.027-.09 0-.118 0 .042.012.116.042.23.09.335.06.135.141.259.242.366.19.187.278.193.236.187a1.988 1.988 0 0 0-.335-.054 5.252 5.252 0 0 0-.605 0 17.628 17.628 0 0 0-3.021.435c-1.07.23-2.158.523-3.246.84-2.181.644-4.366 1.396-6.541 2.197-4.351 1.607-8.67 3.405-12.957 5.281a376.9 376.9 0 0 0-12.76 5.874 356.896 356.896 0 0 0-6.282 3.113 172.95 172.95 0 0 0-3.082 1.61c-.507.272-1.01.547-1.486.819-.24.136-.475.272-.686.402l-.27.172-.054.04.058-.046.102-.09a2.958 2.958 0 1 1-4.424-3.904Z" opacity=".3" fill="#8E95C6" fill-rule="nonzero"/><path d="m71.266 99.71 3.445-6.255c.119-.213.409-.816.235-1.154-.147-.278-.726-.319-.93-.295l-7.506.461a.557.557 0 0 0-.51.556c.037 2.875 1.702 5.497 4.333 6.826l.17.088c.276.14.616.038.763-.227Z" fill="#F2FF5C" fill-rule="nonzero" opacity=".19" style="mix-blend-mode:multiply"/><path d="m74.348 94.927.64-1.154c.025-.189.012-.38-.038-.565a.913.913 0 0 0-.39-.208l-1.43.089a.14.14 0 0 0-.13.138 1.98 1.98 0 0 0 1.11 1.735l.042.022a.15.15 0 0 0 .196-.057Z" fill="#240200" fill-rule="nonzero" opacity=".19" style="mix-blend-mode:multiply"/><path fill="#4261E8" fill-rule="nonzero" d="M55.067 117.83 60 94l21 10.146-4.837 30.778-3.01 24.302L51 162z"/><path fill="#1B0487" fill-rule="nonzero" d="m143.637 118 7.363-4.52 10-20.314V79l-16.642 5.614L141 110.176z"/><path fill="#4261E8" fill-rule="nonzero" d="M131 99.66 166.676 124 184 97.47 149.37 77z"/><path d="M73.287 80.256 68 172l74.313-1.153-3.015-54.862 4.246 1.126 6.976-29.346L161 78.51l-27.408-10.253-37.45-2.873c-7.31 2.364-22.3 7.166-22.855 14.872Z" fill="#EEEFFF" fill-rule="nonzero"/><path stroke="#240200" stroke-width="2" d="m142 138 1 21"/><path fill="#EEEFFF" fill-rule="nonzero" d="m80.814 71.548-18.37 7.496L55 108.35 93 111"/><path d="M113 70.167 70 76l24.788-10.64 5.6-1.36 2.74.145-1.5 2.32c3.013 2.799 7.19 4.159 11.372 3.702Z" fill="#CFD6FF" fill-rule="nonzero"/><path d="M94 67.967s3.215 5.252 12.856 3.77c9.641-1.484 6.732-5.754 6.732-5.754l-5.395-3.507L105.447 58l-6.029 1.125L94 67.967Z" fill="#4261E8" fill-rule="nonzero"/><path d="m105.49 58 1.51 2.561a13.503 13.503 0 0 1-5.998 1.177h-.068L94.563 69 94 68.405l5.939-10.136 5.55-.269Z" fill="#2E59FF" fill-rule="nonzero" style="mix-blend-mode:multiply"/><path d="m94 39 12.614.178 1.365 15.22a4.967 4.967 0 0 1-1.062 3.56 4.663 4.663 0 0 1-3.19 1.738l-2.877.278a5.666 5.666 0 0 1-4.332-1.437 6.048 6.048 0 0 1-1.985-4.227L94 39Z" fill="#4261E8" fill-rule="nonzero"/><path d="m108 40.84-.708-7.057L94.564 31 87 39.63l2.432 14.586 5.674.784-.39-10.818a2.246 2.246 0 0 1 2.035-2.315L108 40.839Z" fill="#3537B8" fill-rule="nonzero"/><path stroke="#240200" stroke-width="2" d="m73 99-3 34"/><path fill="#F5D945" fill-rule="nonzero" style="mix-blend-mode:multiply" d="m210.872 106.288-19.662.326L215 79z"/><path d="m169.613 125.898-2.56-1.583c-3.06-2.141-4.207-5.186-4.846-8.85a13.94 13.94 0 0 1 2.371-10.468l23.162-32.619c4.492-6.33 10.895-6.959 17.27-2.484l1.311.908c6.373 4.46 7.427 10.693 2.935 17.02l-20.285 34.235c-4.493 6.327-12.983 8.3-19.358 3.84Z" fill="#4261E8" fill-rule="nonzero"/><path d="M211.274 72.517 200.89 87.23a4.998 4.998 0 0 1-6.96 1.205 4.986 4.986 0 0 1-1.203-6.953L203.11 66.77a4.998 4.998 0 0 1 6.96-1.205 4.986 4.986 0 0 1 1.203 6.953Z" fill="#4261E8" fill-rule="nonzero"/><path d="m215.11 80.205-11.758 16.662a5.65 5.65 0 0 1-7.868 1.362 5.636 5.636 0 0 1-1.36-7.86l11.759-16.66a5.65 5.65 0 0 1 7.867-1.363 5.636 5.636 0 0 1 1.36 7.86ZM209.481 60.886l-11.759 16.661a5.65 5.65 0 0 1-7.867 1.362 5.636 5.636 0 0 1-1.36-7.859l11.758-16.661a5.65 5.65 0 0 1 7.868-1.362 5.636 5.636 0 0 1 1.36 7.859Z" fill="#4261E8" fill-rule="nonzero"/><path stroke="#240200" stroke-width="2" d="m209 75-9 12M204 68l-9 13M179 85l-9 13"/><path fill="#CFD6FF" fill-rule="nonzero" d="m137 99-7.361 20.706L95 138l38.967-14.438z"/><path fill="#F0D816" fill-rule="nonzero" d="M346.584 158 277 152.255l2.067-25.654L319.663 124 349 127.998z"/><path d="M303.299 160a14.671 14.671 0 0 1-1.564-.335 7.566 7.566 0 0 1-.776-.255 2.431 2.431 0 0 1-.77-.452.938.938 0 0 1-.18-.237.634.634 0 0 1-.066-.356.842.842 0 0 1 .303-.527c.228-.189.485-.34.761-.45.502-.204 1.02-.368 1.549-.49 2.064-.492 4.134-.782 6.174-1.18 1.018-.198 2.034-.408 3.013-.683.484-.132.96-.292 1.424-.48.222-.086.437-.186.646-.299.1-.052.194-.11.285-.176l.067-.045.033-.024h.015s0-.021-.027.039a.377.377 0 0 0-.04.15c0 .056.011.112.034.164.04.078.051.072.036.066a1.392 1.392 0 0 0-.212-.102 5.506 5.506 0 0 0-.667-.194c-.479-.114-.982-.201-1.488-.279a78.529 78.529 0 0 0-3.08-.386c-2.073-.225-4.152-.41-6.252-.671a38.131 38.131 0 0 1-1.586-.228 12.026 12.026 0 0 1-1.66-.37 3.546 3.546 0 0 1-.498-.202 1.696 1.696 0 0 1-.336-.218 1.01 1.01 0 0 1-.103-.099l-.055-.057-.063-.08a1.172 1.172 0 0 1-.204-.477 1.036 1.036 0 0 1 0-.32.853.853 0 0 1 .03-.153c0-.045.028-.087.043-.129.054-.127.129-.244.221-.347.103-.116.221-.216.352-.3.161-.1.33-.186.506-.257.278-.11.56-.206.849-.285.279-.087.546-.137.821-.206a30.735 30.735 0 0 1 3.201-.512c1.058-.117 2.122-.21 3.158-.3l6.26-.455c2.076-.156 4.14-.335 6.186-.575 2.046-.24 4.076-.539 6.062-.958a30.584 30.584 0 0 0 5.68-1.707l.651-.3.628-.32c.194-.097.383-.206.563-.326.138-.089.266-.189.385-.3.028-.03.052-.06 0-.027a.866.866 0 0 0-.187.428 1.293 1.293 0 0 0 0 .527 1.25 1.25 0 0 0 .397.665c0 .015-.128-.048-.304-.09-.175-.042-.37-.086-.581-.125a23.53 23.53 0 0 0-2.856-.276c-1-.045-2.015-.06-3.03-.057-2.047 0-4.108.07-6.175.165-4.125.195-8.287.494-12.39.868l-.346-5.264a288.36 288.36 0 0 1 12.67-.102c2.121.036 4.243.099 6.365.228a66.81 66.81 0 0 1 3.225.263c1.127.11 2.247.291 3.352.542.303.075.606.159.933.276.401.133.783.316 1.137.545.308.201.575.46.785.76.16.237.275.501.34.779.068.295.075.6.02.898-.079.41-.26.794-.527 1.117a3.395 3.395 0 0 1-.527.53c-.286.225-.59.425-.91.6-.281.155-.557.299-.812.41l-.751.395-.791.3a33.855 33.855 0 0 1-6.366 1.625c-2.121.35-4.243.57-6.365.722-2.121.153-4.222.243-6.32.3l-6.267.176c-1.037.036-2.07.081-3.095.147a29.205 29.205 0 0 0-3.007.326c-.233.048-.482.084-.703.144-.218.05-.434.11-.645.183-.068.022-.134.05-.197.084l.048-.054a.669.669 0 0 0 .14-.27.46.46 0 0 0 .02-.105.698.698 0 0 0-.157-.566l-.021-.02-.034-.034c-.036-.027-.03-.015 0 0 .07.041.145.075.222.102.451.154.913.277 1.382.369.494.104.997.197 1.515.284 2.037.344 4.11.623 6.184.94 1.036.162 2.076.327 3.118.533a21 21 0 0 1 1.58.366c.279.082.552.182.818.3.169.07.328.161.473.272.128.093.231.216.303.356.052.11.077.232.073.353a.727.727 0 0 1-.085.333.976.976 0 0 1-.282.33l-.064.05-.048.03-.094.06a3.62 3.62 0 0 1-.385.222 7.32 7.32 0 0 1-.78.341c-.51.185-1.03.34-1.56.464-1.04.255-2.08.434-3.119.6-2.073.331-4.158.553-6.174.963-.494.097-.98.232-1.452.405-.216.07-.42.17-.606.3a.373.373 0 0 0-.1.116s0 .027.054.093c.167.145.358.261.564.344.23.098.465.184.703.258.49.149.986.273 1.489.37l-.106.516Z" fill="#739FFF" fill-rule="nonzero"/><path fill="#CFD6FF" fill-rule="nonzero" d="M91.062 132 131 166l-52-13.122z"/><path fill="#FFFF17" fill-rule="nonzero" d="M96 155.402 26.371 166 23 144.048 90.158 132z"/><path d="M232.5 117c.666 0 .668-1 0-1s-.666 1 0 1Z" fill="#F5FF45" fill-rule="nonzero"/></g></g><g class="uk-icon-alternate-default" version="1.1"><g stroke="none" stroke-width="1" fill="none" fill-rule="evenodd"><path d="M260 105.495 92.872 187.067 61.372 189s-2.144-57.705-1.072-59.592C61.373 127.52 169.702 15 169.702 15L260 105.495Z" fill="#F5D945" fill-rule="nonzero" style="mix-blend-mode:multiply"/><path fill="#FFFF17" fill-rule="nonzero" d="M165 73.989 169.26 15l88.962 2.824 1.778 87.67L166.736 107z"/><g opacity=".2" stroke="#FF5E45" stroke-width="3.7"><path d="m184.134 74.7 69.448-2.7L255 100l-75-.219zM187 76l63 20M250 73l-67 25"/></g><g opacity=".2" transform="translate(182 28)" fill="#000" fill-rule="nonzero"><rect opacity=".5" x=".085" y=".151" width="60.807" height="3.485" rx="1.742"/><rect opacity=".5" x=".085" y="8.7" width="60.807" height="3.485" rx="1.742"/><rect opacity=".5" x=".085" y="17.251" width="60.807" height="3.485" rx="1.742"/><rect opacity=".5" x=".085" y="25.8" width="51.617" height="3.485" rx="1.742"/><rect opacity=".5" x=".085" y="34.348" width="41.383" height="3.485" rx="1.742"/></g><path fill="#F5D945" fill-rule="nonzero" style="mix-blend-mode:multiply" d="M260 100V77l-15 9z"/><path fill="#FF5E45" fill-rule="nonzero" d="M332 86h-87V54.361L332 49z"/><path d="M298.194 79.342a15.136 15.136 0 0 0 2.483-.904c.186-.091.366-.195.537-.311a.941.941 0 0 0 .325-.326c.021-.042 0-.024 0-.039l-.024-.024a.34.34 0 0 0-.067-.059 1.87 1.87 0 0 0-.486-.249 11.562 11.562 0 0 0-2.556-.507 61.612 61.612 0 0 0-2.69-.225c-1.82-.119-3.623-.207-5.463-.362a53.396 53.396 0 0 1-2.732-.296 17.1 17.1 0 0 1-2.771-.61 7.507 7.507 0 0 1-.699-.27c-.118-.048-.233-.113-.349-.172-.066-.036-.103-.05-.19-.104-.089-.053-.083-.053-.14-.1l-.076-.069-.085-.098a.927.927 0 0 1-.16-.302.869.869 0 0 1-.001-.439c.052-.187.157-.357.303-.489.14-.12.297-.219.465-.296.238-.11.483-.203.734-.279.898-.26 1.81-.471 2.732-.634 1.822-.338 3.61-.608 5.413-.866 3.606-.512 7.209-.966 10.797-1.458 1.794-.249 3.585-.504 5.348-.803.878-.154 1.761-.317 2.565-.525.186-.046.37-.101.55-.166a1.23 1.23 0 0 0 .182-.074c.018 0 .024-.015 0 0l-.021.015-.049.038-.07.069a.99.99 0 0 0-.258.7c0 .12.022.24.067.352.029.085.07.165.125.237a.554.554 0 0 0 .1.121.601.601 0 0 0 .07.066l.075.056c.049.027 0 0-.07-.018a4.261 4.261 0 0 0-.525-.11 20.337 20.337 0 0 0-2.537-.251 65.995 65.995 0 0 0-2.668-.077 206 206 0 0 0-5.41.026c-7.242.128-14.525.37-21.855.24-3.667-.074-7.346-.228-11.056-.631a53.371 53.371 0 0 1-5.6-.89c-.96-.21-1.91-.472-2.841-.782l-.714-.255c-.124-.047-.233-.08-.367-.136-.134-.056-.267-.11-.416-.184-.35-.16-.68-.36-.983-.593l-.146-.118c-.058-.05-.115-.107-.17-.16a2.76 2.76 0 0 1-.17-.181c-.067-.077-.128-.163-.188-.246-.06-.083-.055-.077-.088-.136a1.676 1.676 0 0 1-.097-.178 2.483 2.483 0 0 1-.264-1.402c.016-.168.052-.333.106-.492.024-.077.051-.154.082-.232.026-.063.056-.124.09-.183.062-.117.13-.23.207-.338.06-.08.125-.157.191-.234l.104-.113.088-.08.176-.157c.115-.098.206-.154.303-.231.31-.201.64-.373.984-.513a13.445 13.445 0 0 1 1.57-.525 34.629 34.629 0 0 1 2.853-.628 91.827 91.827 0 0 1 5.527-.812c3.661-.442 7.304-.774 10.946-1.067 7.285-.578 14.57-1 21.835-1.364 7.264-.364 14.54-.658 21.837-.889l.088 6.45c-7.228-.015-14.488.038-21.728.154-7.24.116-14.486.296-21.7.628-3.607.17-7.207.377-10.77.688-1.78.157-3.552.34-5.274.593-.856.127-1.702.272-2.477.456a8.803 8.803 0 0 0-1.02.297c-.124.047-.233.1-.227.092.006-.01 0 0 .04-.033a.241.241 0 0 0 .05-.045l.022-.026.049-.048a.944.944 0 0 0 .082-.11c.047-.06.088-.124.121-.192l.052-.11a1.539 1.539 0 0 0 .124-.48 1.465 1.465 0 0 0 0-.364 1.776 1.776 0 0 0-.164-.56l-.057-.104-.043-.066a1.032 1.032 0 0 0-.088-.112l-.055-.06-.048-.041h-.015c.05.046.109.082.173.107.051.03.133.065.2.098l.27.106.556.223c.778.286 1.572.533 2.377.738a50.06 50.06 0 0 0 5.114.996c3.497.498 7.076.77 10.667.963 7.194.37 14.443.373 21.728.489 1.822.03 3.643.074 5.485.154.911.042 1.843.095 2.772.172.964.07 1.922.201 2.868.391.27.05.536.118.796.205.192.063.377.145.552.246a1.625 1.625 0 0 1 .352.27 1.4 1.4 0 0 1 .322.495c.049.139.075.285.079.432 0 .147-.022.293-.067.433a1.561 1.561 0 0 1-.146.296 1.9 1.9 0 0 1-.145.187 1.565 1.565 0 0 1-.246.217l-.091.062a2.015 2.015 0 0 1-.304.163 4.432 4.432 0 0 1-.452.172 9.79 9.79 0 0 1-.756.201c-.96.21-1.87.344-2.787.472-1.82.251-3.642.444-5.463.634-3.619.376-7.234.708-10.834 1.097-1.8.198-3.597.403-5.367.672-.868.124-1.73.293-2.58.504-.184.05-.364.11-.54.181-.07.03-.13.071-.113.053a.38.38 0 0 0 .116-.216.519.519 0 0 0 0-.273.509.509 0 0 0-.08-.157l-.033-.035c-.015 0 0 0 0 0s.073.041.107.062a6.286 6.286 0 0 0 .81.373c.82.282 1.663.496 2.52.64.874.158 1.76.28 2.656.386 1.788.21 3.594.359 5.409.54.91.091 1.821.19 2.732.32.94.111 1.863.33 2.75.652.25.097.484.232.692.4a.979.979 0 0 1 .17.178c.027.035.055.068.079.106.024.047.045.094.064.143.038.1.054.21.045.317a.82.82 0 0 1-.082.296c-.14.257-.35.471-.607.62a5.07 5.07 0 0 1-.643.35c-.854.365-1.74.653-2.647.862l-.158-.658Z" fill="#FFF" fill-rule="nonzero"/><path d="M23.683 53.058a3.17 3.17 0 0 1 .347-.384 3.02 3.02 0 0 1 .185-.163l.127-.103.105-.079.302-.211c.179-.115.33-.206.48-.302.303-.173.575-.33.85-.48.55-.303 1.088-.584 1.626-.862 1.075-.556 2.145-1.09 3.218-1.616a321.41 321.41 0 0 1 6.448-3.067 401.867 401.867 0 0 1 13.038-5.76c4.387-1.834 8.81-3.595 13.337-5.188 2.263-.791 4.554-1.54 6.91-2.196a51.29 51.29 0 0 1 3.626-.873 22.36 22.36 0 0 1 3.977-.484c.391-.006.783.011 1.172.051.475.05.943.151 1.396.303.66.209 1.262.574 1.753 1.063.31.317.56.686.74 1.091.163.377.265.778.302 1.187a4.756 4.756 0 0 1-.181 1.79A7.554 7.554 0 0 1 82.963 38c-.324.647-.7 1.266-1.124 1.852a33.313 33.313 0 0 1-2.417 2.964 49.867 49.867 0 0 1-2.586 2.644c-3.53 3.375-7.276 6.346-11.065 9.24-3.79 2.895-7.654 5.63-11.483 8.373-1.915 1.372-3.828 2.74-5.683 4.13a66.864 66.864 0 0 0-2.695 2.116c-.423.356-.834.719-1.179 1.063a5.777 5.777 0 0 0-.414.457c-.042.054-.066.1-.048.06.024-.058.045-.117.06-.178a1.51 1.51 0 0 0 .018-.638 1.704 1.704 0 0 0-.507-.93 1.453 1.453 0 0 0-.49-.303.774.774 0 0 0-.154-.039c.177.006.354-.003.529-.027a15.332 15.332 0 0 0 1.532-.275 54.541 54.541 0 0 0 3.294-.88 168.308 168.308 0 0 0 6.647-2.154l3.324-1.157 1.659-.59a40.86 40.86 0 0 0 1.62-.604c2.141-.827 4.278-1.764 6.399-2.737 4.23-1.958 8.442-4.073 12.618-6.23a852.193 852.193 0 0 0 12.485-6.612l6.243-3.348c1.045-.556 2.09-1.109 3.157-1.653.541-.271 1.067-.537 1.677-.806.189-.085.383-.158.58-.218l.136-.036c.084-.019.169-.03.254-.036.14.051.242-.182 1.046.32.94 1.048.302 1.734.36 1.743-.05.1-.11.192-.179.278-.042.055-.073.088-.103.121s-.102.106-.145.148c-.166.154-.302.257-.423.363l-.378.302c-3.752 2.837-7.466 5.723-11.1 8.696-3.636 2.973-7.204 6.028-10.543 9.276a58.521 58.521 0 0 0-2.417 2.493 31.4 31.4 0 0 0-2.191 2.617c-.321.429-.609.881-.861 1.354a3.565 3.565 0 0 0-.254.604 1.184 1.184 0 0 0-.04.193c0 .037 0 .015-.03-.06a.363.363 0 0 0-.157-.157h.06c.198.01.395-.007.587-.052a8.349 8.349 0 0 0 1.49-.483 1 1 0 0 1 .782 1.84c-.598.272-1.222.485-1.861.638-.384.09-.779.124-1.172.102a2.14 2.14 0 0 1-.79-.202 1.683 1.683 0 0 1-.785-.759 1.925 1.925 0 0 1-.2-.906 2.72 2.72 0 0 1 .098-.677c.096-.355.227-.699.392-1.027.293-.574.628-1.126 1.004-1.65a33.54 33.54 0 0 1 2.296-2.85 63.5 63.5 0 0 1 2.466-2.619c3.363-3.393 6.919-6.536 10.527-9.606 3.608-3.07 7.3-6.043 11.023-8.959l.317-.253c.096-.079.196-.167.248-.215.05-.048.018-.021 0 0l-.034.04a.952.952 0 0 0-.115.184c.06-.022-.55.622.36 1.643.774.478.837.248.94.303.048-.004.097-.01.145-.019h.027l-.085.034-.157.07c-.465.214-.99.489-1.51.755-1.025.543-2.055 1.114-3.083 1.683l-6.14 3.432a878.091 878.091 0 0 1-12.406 6.856c-4.164 2.248-8.358 4.454-12.648 6.524-2.146 1.033-4.315 2.033-6.56 2.946-.553.226-1.142.45-1.69.655l-1.661.626-3.324 1.23c-2.233.806-4.475 1.595-6.768 2.32a55.401 55.401 0 0 1-3.526 1.006c-.641.162-1.29.29-1.943.384-.408.06-.82.082-1.233.07a3.626 3.626 0 0 1-.432-.046 3.242 3.242 0 0 1-.583-.145 2.568 2.568 0 0 1-.87-.522 2.345 2.345 0 0 1-.717-1.312 2.469 2.469 0 0 1 .049-1.076c.05-.208.125-.411.22-.604.12-.24.262-.47.423-.686.23-.308.48-.6.75-.876a22.74 22.74 0 0 1 1.423-1.333 66.192 66.192 0 0 1 2.828-2.305c1.891-1.472 3.792-2.883 5.69-4.294 3.789-2.813 7.554-5.608 11.237-8.5 3.683-2.891 7.252-5.867 10.494-9.064a50.258 50.258 0 0 0 2.314-2.457 28.99 28.99 0 0 0 2.016-2.544c.262-.374.494-.768.695-1.178.065-.136.119-.278.16-.423.027-.09 0-.118 0 .042.012.116.042.23.09.335.06.135.141.259.242.366.19.187.278.193.236.187a1.988 1.988 0 0 0-.335-.054 5.252 5.252 0 0 0-.605 0 17.628 17.628 0 0 0-3.021.435c-1.07.23-2.158.523-3.246.84-2.181.644-4.366 1.396-6.541 2.197-4.351 1.607-8.67 3.405-12.957 5.281a376.9 376.9 0 0 0-12.76 5.874 356.896 356.896 0 0 0-6.282 3.113 172.95 172.95 0 0 0-3.082 1.61c-.507.272-1.01.547-1.486.819-.24.136-.475.272-.686.402l-.27.172-.054.04.058-.046.102-.09a2.958 2.958 0 1 1-4.424-3.904Z" opacity=".3" fill="#8E95C6" fill-rule="nonzero"/><path d="m71.266 99.71 3.445-6.255c.119-.213.409-.816.235-1.154-.147-.278-.726-.319-.93-.295l-7.506.461a.557.557 0 0 0-.51.556c.037 2.875 1.702 5.497 4.333 6.826l.17.088c.276.14.616.038.763-.227Z" fill="#F2FF5C" fill-rule="nonzero" opacity=".19" style="mix-blend-mode:multiply"/><path d="m74.348 94.927.64-1.154c.025-.189.012-.38-.038-.565a.913.913 0 0 0-.39-.208l-1.43.089a.14.14 0 0 0-.13.138 1.98 1.98 0 0 0 1.11 1.735l.042.022a.15.15 0 0 0 .196-.057Z" fill="#240200" fill-rule="nonzero" opacity=".19" style="mix-blend-mode:multiply"/><path fill="#4261E8" fill-rule="nonzero" d="M55.067 117.83 60 94l21 10.146-4.837 30.778-3.01 24.302L51 162z"/><path fill="#1B0487" fill-rule="nonzero" d="m143.637 118 7.363-4.52 10-20.314V79l-16.642 5.614L141 110.176z"/><path fill="#4261E8" fill-rule="nonzero" d="M131 99.66 166.676 124 184 97.47 149.37 77z"/><path d="M73.287 80.256 68 172l74.313-1.153-3.015-54.862 4.246 1.126 6.976-29.346L161 78.51l-27.408-10.253-37.45-2.873c-7.31 2.364-22.3 7.166-22.855 14.872Z" fill="#EEEFFF" fill-rule="nonzero"/><path stroke="#240200" stroke-width="2" d="m142 138 1 21"/><path fill="#EEEFFF" fill-rule="nonzero" d="m80.814 71.548-18.37 7.496L55 108.35 93 111"/><path d="M113 70.167 70 76l24.788-10.64 5.6-1.36 2.74.145-1.5 2.32c3.013 2.799 7.19 4.159 11.372 3.702Z" fill="#CFD6FF" fill-rule="nonzero"/><path d="M94 67.967s3.215 5.252 12.856 3.77c9.641-1.484 6.732-5.754 6.732-5.754l-5.395-3.507L105.447 58l-6.029 1.125L94 67.967Z" fill="#4261E8" fill-rule="nonzero"/><path d="m105.49 58 1.51 2.561a13.503 13.503 0 0 1-5.998 1.177h-.068L94.563 69 94 68.405l5.939-10.136 5.55-.269Z" fill="#2E59FF" fill-rule="nonzero" style="mix-blend-mode:multiply"/><path d="m94 39 12.614.178 1.365 15.22a4.967 4.967 0 0 1-1.062 3.56 4.663 4.663 0 0 1-3.19 1.738l-2.877.278a5.666 5.666 0 0 1-4.332-1.437 6.048 6.048 0 0 1-1.985-4.227L94 39Z" fill="#4261E8" fill-rule="nonzero"/><path d="m108 40.84-.708-7.057L94.564 31 87 39.63l2.432 14.586 5.674.784-.39-10.818a2.246 2.246 0 0 1 2.035-2.315L108 40.839Z" fill="#1B1C67" fill-rule="nonzero"/><path stroke="#240200" stroke-width="2" d="m73 99-3 34"/><path fill="#F5D945" fill-rule="nonzero" style="mix-blend-mode:multiply" d="m210.872 106.288-19.662.326L215 79z"/><path d="m169.613 125.898-2.56-1.583c-3.06-2.141-4.207-5.186-4.846-8.85a13.94 13.94 0 0 1 2.371-10.468l23.162-32.619c4.492-6.33 10.895-6.959 17.27-2.484l1.311.908c6.373 4.46 7.427 10.693 2.935 17.02l-20.285 34.235c-4.493 6.327-12.983 8.3-19.358 3.84Z" fill="#4261E8" fill-rule="nonzero"/><path d="M211.274 72.517 200.89 87.23a4.998 4.998 0 0 1-6.96 1.205 4.986 4.986 0 0 1-1.203-6.953L203.11 66.77a4.998 4.998 0 0 1 6.96-1.205 4.986 4.986 0 0 1 1.203 6.953Z" fill="#4261E8" fill-rule="nonzero"/><path d="m215.11 80.205-11.758 16.662a5.65 5.65 0 0 1-7.868 1.362 5.636 5.636 0 0 1-1.36-7.86l11.759-16.66a5.65 5.65 0 0 1 7.867-1.363 5.636 5.636 0 0 1 1.36 7.86ZM209.481 60.886l-11.759 16.661a5.65 5.65 0 0 1-7.867 1.362 5.636 5.636 0 0 1-1.36-7.859l11.758-16.661a5.65 5.65 0 0 1 7.868-1.362 5.636 5.636 0 0 1 1.36 7.859Z" fill="#4261E8" fill-rule="nonzero"/><path stroke="#240200" stroke-width="2" d="m209 75-9 12M204 68l-9 13M179 85l-9 13"/><path fill="#CFD6FF" fill-rule="nonzero" d="m137 99-7.361 20.706L95 138l38.967-14.438z"/><path fill="#F0D816" fill-rule="nonzero" d="M346.584 158 277 152.255l2.067-25.654L319.663 124 349 127.998z"/><path d="M303.299 160a14.671 14.671 0 0 1-1.564-.335 7.566 7.566 0 0 1-.776-.255 2.431 2.431 0 0 1-.77-.452.938.938 0 0 1-.18-.237.634.634 0 0 1-.066-.356.842.842 0 0 1 .303-.527c.228-.189.485-.34.761-.45.502-.204 1.02-.368 1.549-.49 2.064-.492 4.134-.782 6.174-1.18 1.018-.198 2.034-.408 3.013-.683.484-.132.96-.292 1.424-.48.222-.086.437-.186.646-.299.1-.052.194-.11.285-.176l.067-.045.033-.024h.015s0-.021-.027.039a.377.377 0 0 0-.04.15c0 .056.011.112.034.164.04.078.051.072.036.066a1.392 1.392 0 0 0-.212-.102 5.506 5.506 0 0 0-.667-.194c-.479-.114-.982-.201-1.488-.279a78.529 78.529 0 0 0-3.08-.386c-2.073-.225-4.152-.41-6.252-.671a38.131 38.131 0 0 1-1.586-.228 12.026 12.026 0 0 1-1.66-.37 3.546 3.546 0 0 1-.498-.202 1.696 1.696 0 0 1-.336-.218 1.01 1.01 0 0 1-.103-.099l-.055-.057-.063-.08a1.172 1.172 0 0 1-.204-.477 1.036 1.036 0 0 1 0-.32.853.853 0 0 1 .03-.153c0-.045.028-.087.043-.129.054-.127.129-.244.221-.347.103-.116.221-.216.352-.3.161-.1.33-.186.506-.257.278-.11.56-.206.849-.285.279-.087.546-.137.821-.206a30.735 30.735 0 0 1 3.201-.512c1.058-.117 2.122-.21 3.158-.3l6.26-.455c2.076-.156 4.14-.335 6.186-.575 2.046-.24 4.076-.539 6.062-.958a30.584 30.584 0 0 0 5.68-1.707l.651-.3.628-.32c.194-.097.383-.206.563-.326.138-.089.266-.189.385-.3.028-.03.052-.06 0-.027a.866.866 0 0 0-.187.428 1.293 1.293 0 0 0 0 .527 1.25 1.25 0 0 0 .397.665c0 .015-.128-.048-.304-.09-.175-.042-.37-.086-.581-.125a23.53 23.53 0 0 0-2.856-.276c-1-.045-2.015-.06-3.03-.057-2.047 0-4.108.07-6.175.165-4.125.195-8.287.494-12.39.868l-.346-5.264a288.36 288.36 0 0 1 12.67-.102c2.121.036 4.243.099 6.365.228a66.81 66.81 0 0 1 3.225.263c1.127.11 2.247.291 3.352.542.303.075.606.159.933.276.401.133.783.316 1.137.545.308.201.575.46.785.76.16.237.275.501.34.779.068.295.075.6.02.898-.079.41-.26.794-.527 1.117a3.395 3.395 0 0 1-.527.53c-.286.225-.59.425-.91.6-.281.155-.557.299-.812.41l-.751.395-.791.3a33.855 33.855 0 0 1-6.366 1.625c-2.121.35-4.243.57-6.365.722-2.121.153-4.222.243-6.32.3l-6.267.176c-1.037.036-2.07.081-3.095.147a29.205 29.205 0 0 0-3.007.326c-.233.048-.482.084-.703.144-.218.05-.434.11-.645.183-.068.022-.134.05-.197.084l.048-.054a.669.669 0 0 0 .14-.27.46.46 0 0 0 .02-.105.698.698 0 0 0-.157-.566l-.021-.02-.034-.034c-.036-.027-.03-.015 0 0 .07.041.145.075.222.102.451.154.913.277 1.382.369.494.104.997.197 1.515.284 2.037.344 4.11.623 6.184.94 1.036.162 2.076.327 3.118.533a21 21 0 0 1 1.58.366c.279.082.552.182.818.3.169.07.328.161.473.272.128.093.231.216.303.356.052.11.077.232.073.353a.727.727 0 0 1-.085.333.976.976 0 0 1-.282.33l-.064.05-.048.03-.094.06a3.62 3.62 0 0 1-.385.222 7.32 7.32 0 0 1-.78.341c-.51.185-1.03.34-1.56.464-1.04.255-2.08.434-3.119.6-2.073.331-4.158.553-6.174.963-.494.097-.98.232-1.452.405-.216.07-.42.17-.606.3a.373.373 0 0 0-.1.116s0 .027.054.093c.167.145.358.261.564.344.23.098.465.184.703.258.49.149.986.273 1.489.37l-.106.516Z" fill="#739FFF" fill-rule="nonzero"/><path fill="#CFD6FF" fill-rule="nonzero" d="M91.062 132 131 166l-52-13.122z"/><path fill="#FFFF17" fill-rule="nonzero" d="M96 155.402 26.371 166 23 144.048 90.158 132z"/><path d="M232.5 117c.666 0 .668-1 0-1s-.666 1 0 1Z" fill="#F5FF45" fill-rule="nonzero"/></g></g></svg>