<svg width="32" height="32" viewBox="0 0 32 32" fill="none" xmlns="http://www.w3.org/2000/svg">
<path d="M14.3033 6.45975H18.1682L17.859 18.9305H14.6125L14.3033 6.45975Z" fill="white"/>
<path d="M16.2361 25.3675C15.0637 25.3675 14.1361 24.4786 14.1361 23.3449C14.1361 22.2112 15.0637 21.3222 16.2361 21.3222C17.4084 21.3222 18.336 22.2112 18.336 23.3449C18.336 24.4786 17.4084 25.3675 16.2361 25.3675Z" fill="white"/>
<path fill-rule="evenodd" clip-rule="evenodd" d="M32 16C32 24.8365 24.8366 32 16 32C7.16344 32 0 24.8365 0 16C0 7.16341 7.16344 -3.05176e-05 16 -3.05176e-05C24.8366 -3.05176e-05 32 7.16341 32 16ZM30 16C30 23.732 23.732 30 16 30C8.26801 30 2 23.732 2 16C2 8.26798 8.26801 1.99997 16 1.99997C23.732 1.99997 30 8.26798 30 16Z" fill="white"/>
</svg>
