<svg width="60" height="60" viewBox="0 0 60 60" fill="none" xmlns="http://www.w3.org/2000/svg">
<path d="M29.5339 12.1826L29.2295 12.6356L29.5339 12.1826L26.0581 9.84626C24.1741 8.57986 21.6015 9.41485 20.8204 11.5463L19.3712 15.5005C19.348 15.5639 19.2888 15.607 19.2214 15.6096L15.0318 15.7719C12.7703 15.8595 11.1855 18.0385 11.7989 20.217L12.9454 24.2891C12.9636 24.3538 12.9412 24.4231 12.8884 24.4648L9.57897 27.0815L10.0373 27.6611L9.57897 27.0815C7.80701 28.4825 7.80701 31.1704 9.57897 32.5714L12.8884 35.1881C12.9412 35.2298 12.9636 35.2991 12.9454 35.3638L11.7989 39.4359C11.1855 41.6144 12.7703 43.7934 15.0318 43.881L19.2214 44.0433C19.2888 44.0459 19.348 44.089 19.3712 44.1524L20.8204 48.1066C21.6015 50.238 24.1741 51.073 26.0581 49.8066L29.5339 47.4703C29.5901 47.4325 29.6635 47.4325 29.7196 47.4703L33.1955 49.8066C35.0795 51.073 37.652 50.238 38.4332 48.1066L39.8824 44.1524C39.9056 44.089 39.9648 44.0459 40.0322 44.0433L44.2218 43.881C46.4833 43.7934 48.068 41.6144 47.4547 39.4359L46.3082 35.3638C46.2899 35.2991 46.3124 35.2298 46.3651 35.1881L49.6746 32.5714C51.4466 31.1704 51.4466 28.4825 49.6746 27.0815L46.3651 24.4648C46.3124 24.4231 46.2899 24.3538 46.3082 24.2891L47.4547 20.217C48.0681 18.0385 46.4833 15.8595 44.2218 15.7719L40.0322 15.6096C39.9648 15.607 39.9056 15.5639 39.8824 15.5005L38.4332 11.5463C37.652 9.41485 35.0795 8.57986 33.1955 9.84626L29.7196 12.1826C29.6635 12.2203 29.5901 12.2203 29.5339 12.1826ZM23.9497 12.6932C23.9869 12.5918 24.1092 12.5521 24.1988 12.6123L27.6747 14.9487C28.8551 15.7422 30.3984 15.7422 31.5789 14.9487L35.0547 12.6123C35.1444 12.5521 35.2667 12.5918 35.3039 12.6932L36.753 16.6474C37.2412 17.9795 38.4855 18.885 39.9032 18.94L44.0928 19.1023C44.2003 19.1065 44.2757 19.2101 44.2465 19.3137L43.1 23.3859C42.7171 24.7459 43.1897 26.2029 44.298 27.0792L47.6075 29.6959C47.6918 29.7625 47.6918 29.8904 47.6075 29.957L44.298 32.5737C43.1897 33.45 42.7171 34.9069 43.1 36.267L44.2465 40.3392C44.2757 40.4428 44.2003 40.5464 44.0928 40.5506L39.9032 40.7129C38.4855 40.7679 37.2412 41.6734 36.753 43.0055L35.3039 46.9597C35.2667 47.0611 35.1444 47.1008 35.0547 47.0406L31.5789 44.7042C30.3984 43.9107 28.8551 43.9107 27.6747 44.7042L24.1988 47.0406C24.1092 47.1008 23.9869 47.0611 23.9497 46.9597L22.5005 43.0055C22.0123 41.6734 20.7681 40.7679 19.3504 40.7129L15.1608 40.5506C15.0532 40.5464 14.9779 40.4428 15.007 40.3392L16.1536 36.267C16.5365 34.9069 16.0639 33.45 14.9556 32.5737L11.6461 29.957L11.1809 30.5453L11.6461 29.957C11.5618 29.8904 11.5618 29.7625 11.6461 29.6959L14.9556 27.0792C16.0639 26.2029 16.5365 24.7459 16.1536 23.3859L15.007 19.3137C14.9779 19.2101 15.0532 19.1065 15.1608 19.1023L19.3504 18.94C20.7681 18.885 22.0123 17.9795 22.5005 16.6474L23.9497 12.6932Z" fill="#F8F9FA" stroke="#F8F9FA" stroke-width="1.5" stroke-linecap="round" stroke-linejoin="round"/>
<path fill-rule="evenodd" clip-rule="evenodd" d="M30.9484 46.2242C30.2737 45.7707 29.3917 45.7707 28.717 46.2242L25.5112 48.379C24.4344 49.1028 22.9641 48.6256 22.5176 47.4073L21.1803 43.7584C20.9013 42.997 20.1901 42.4795 19.3799 42.4481L15.514 42.2983C14.2215 42.2482 13.3158 41.0028 13.6663 39.7577L14.7252 35.9969C14.944 35.2196 14.6739 34.3869 14.0405 33.886L10.9842 31.4696C9.97148 30.6688 9.97147 29.1326 10.9842 28.3319L14.0405 25.9154C14.6739 25.4145 14.944 24.5818 14.7252 23.8045L13.6663 20.0437C13.3158 18.7986 14.2215 17.5532 15.514 17.5032L19.3799 17.3534C20.1901 17.322 20.9013 16.8044 21.1803 16.0431L22.5176 12.3941C22.9641 11.1759 24.4344 10.6986 25.5112 11.4224L28.717 13.5772C29.3917 14.0307 30.2737 14.0307 30.9484 13.5772L34.1542 11.4224C35.231 10.6986 36.7013 11.1759 37.1477 12.3941L38.4851 16.0431C38.7641 16.8044 39.4752 17.322 40.2855 17.3534L44.1513 17.5032C45.4439 17.5532 46.3496 18.7986 45.999 20.0437L44.9402 23.8045C44.7213 24.5818 44.9914 25.4145 45.6249 25.9154L48.6811 28.3319C49.6939 29.1326 49.6939 30.6688 48.6811 31.4696L45.6249 33.886C44.9914 34.3869 44.7213 35.2196 44.9402 35.9969L45.999 39.7577C46.3496 41.0028 45.4439 42.2482 44.1513 42.2983L40.2855 42.4481C39.4752 42.4795 38.7641 42.997 38.4851 43.7583L37.1477 47.4073C36.7013 48.6256 35.231 49.1028 34.1542 48.379L30.9484 46.2242Z" fill="#51CF66" stroke="#212529" stroke-width="2"/>
<g style="mix-blend-mode:multiply">
<path fill-rule="evenodd" clip-rule="evenodd" d="M26.5416 45.8001C27.2162 45.3466 28.0983 45.3466 28.773 45.8001L28.9741 45.9353L26.1447 47.8372C25.3646 48.3615 24.378 48.2555 23.7238 47.6942L26.5416 45.8001ZM23.7238 12.107C24.378 11.5456 25.3646 11.4397 26.1447 11.964L28.9741 13.8659L28.773 14.001C28.0983 14.4545 27.2162 14.4545 26.5416 14.001L23.7238 12.107ZM34.2244 12.107C34.4733 12.3205 34.6741 12.6 34.7971 12.9357L36.0616 16.3859C36.3406 17.1473 37.0517 17.6648 37.862 17.6962L41.5171 17.8378C42.8097 17.8879 43.7154 19.1333 43.3649 20.3784L42.3634 23.9354C42.1445 24.7127 42.4146 25.5454 43.0481 26.0463L45.9386 28.3317C46.9514 29.1325 46.9514 30.6687 45.9386 31.4694L43.0481 33.7549C42.4146 34.2558 42.1445 35.0885 42.3634 35.8658L43.3648 39.4228C43.7154 40.6679 42.8097 41.9133 41.5171 41.9633L37.862 42.105C37.0517 42.1364 36.3406 42.6539 36.0616 43.4153L34.7971 46.8655C34.6741 47.2012 34.4733 47.4806 34.2244 47.6942L34.4372 47.8372C35.514 48.561 36.9843 48.0837 37.4307 46.8655L38.6952 43.4153C38.9742 42.6539 39.6854 42.1364 40.4956 42.105L44.1508 41.9633C45.4433 41.9133 46.3491 40.6679 45.9985 39.4228L44.997 35.8658C44.7782 35.0885 45.0483 34.2558 45.6817 33.7549L48.5723 31.4694C49.585 30.6687 49.585 29.1325 48.5723 28.3317L45.6817 26.0463C45.0483 25.5454 44.7782 24.7127 44.997 23.9354L45.9985 20.3784C46.3491 19.1333 45.4433 17.8879 44.1508 17.8378L40.4956 17.6962C39.6854 17.6648 38.9742 17.1473 38.6952 16.3859L37.4307 12.9357C36.9843 11.7174 35.514 11.2402 34.4372 11.964L34.2244 12.107Z" fill="#DEE2E6"/>
</g>
<path d="M23.2458 30.7208L27.2263 35.4752L35.6696 24.4319" stroke="#212529" stroke-width="2.8" stroke-linecap="round" stroke-linejoin="round"/>
</svg>
