<svg width="60" height="59" viewBox="0 0 60 59" fill="none" xmlns="http://www.w3.org/2000/svg">
<g clip-path="url(#clip0_50_9663)">
<mask id="path-1-outside-1_50_9663" maskUnits="userSpaceOnUse" x="-2.47613" y="-2.26413" width="64.6571" height="65.2568" fill="black">
<rect fill="white" x="-2.47613" y="-2.26413" width="64.6571" height="65.2568"/>
<path fill-rule="evenodd" clip-rule="evenodd" d="M34.056 19.9537C36.2588 18.3973 38.3314 17.1712 40.2863 16.5451C42.4997 15.8362 44.4979 15.9132 46.3852 17.1276C48.2785 18.3458 49.2314 20.176 49.5552 22.5263C49.884 24.9133 49.5514 27.7758 48.892 30.9084C48.7587 31.5413 48.6328 32.1664 48.5087 32.7828L48.5085 32.7839L48.5084 32.7841C48.2094 34.2688 47.9205 35.7031 47.5637 37.0755C47.0615 39.0071 46.4479 40.7143 45.5536 42.1041C43.2054 45.7535 40.4293 48.0182 37.4223 48.8335C34.8669 49.5264 32.0183 49.2067 28.9378 47.6127C31.0197 46.8953 32.7622 45.7569 34.1415 44.2287C36.6464 41.4537 37.8336 37.5264 37.8336 32.8815C37.8336 30.9311 37.3555 28.939 36.707 26.9649C36.2468 25.564 35.6827 24.1226 35.1225 22.6909L35.1224 22.6908C34.8976 22.1162 34.6734 21.5432 34.4567 20.975C34.3258 20.6316 34.1923 20.291 34.056 19.9537ZM33.2803 18.1494C32.3845 16.1976 31.3621 14.4242 30.142 13.001C28.3297 10.8867 26.0415 9.50492 23.0954 9.50492C20.1423 9.50492 17.9153 10.8937 16.1674 13.0154C14.4489 15.1015 13.1529 17.9401 11.9957 20.975C11.6579 21.8608 11.2961 22.7408 10.9322 23.6258L10.7954 23.9587C10.3881 24.9506 9.98228 25.9488 9.62407 26.9375C8.91108 28.9054 8.35716 30.9111 8.35716 32.8815C8.35716 37.5264 9.54443 41.4537 12.0492 44.2287C14.5684 47.0195 18.2985 48.5106 23.0954 48.5106C24.2072 48.5106 25.2617 48.4305 26.2571 48.2727C26.2777 48.286 26.2984 48.2994 26.3191 48.3127C30.3531 50.9084 34.2967 51.6729 37.9254 50.689C41.5333 49.7108 44.6569 47.0506 47.1703 43.1444C48.2257 41.5043 48.9016 39.5703 49.4244 37.5593C49.7954 36.1321 50.1011 34.6147 50.4046 33.1076L50.4047 33.1075C50.5265 32.5026 50.648 31.8994 50.7732 31.3044C51.4455 28.1106 51.8347 24.9858 51.4597 22.2639C51.0796 19.5053 49.903 17.105 47.4255 15.5109C44.9421 13.9129 42.3178 13.8757 39.6999 14.7142C37.5835 15.392 35.4321 16.6522 33.2803 18.1494ZM23.9792 46.5692C23.6903 46.5817 23.3957 46.5881 23.0954 46.5881C18.708 46.5881 15.5496 45.2375 13.4763 42.9405C11.3887 40.6277 10.2797 37.2211 10.2797 32.8815C10.2797 31.2487 10.7424 29.4946 11.4316 27.5924C11.7745 26.646 12.1662 25.6816 12.5738 24.689L12.7104 24.3568L12.7104 24.3567C13.0731 23.4745 13.4448 22.5706 13.792 21.6599C14.9382 18.6541 16.1442 16.0671 17.6513 14.2378C19.129 12.444 20.8511 11.4274 23.0954 11.4274C25.3467 11.4274 27.1384 12.4509 28.6824 14.2522C29.82 15.5792 30.8002 17.305 31.6881 19.2945C30.9875 19.8059 30.2736 20.3037 29.556 20.8042L29.5559 20.8042L29.2608 21.0101C28.3815 21.6238 27.5001 22.2437 26.6638 22.8813C24.9994 24.1504 23.4482 25.5374 22.3821 27.1943C19.8686 31.1005 18.742 35.0456 19.3468 38.7346C19.8259 41.6566 21.3729 44.307 23.9792 46.5692ZM26.6825 46.2414C23.4327 43.9624 21.7131 41.2845 21.244 38.4236C20.7399 35.349 21.6506 31.884 23.9988 28.2346C24.8823 26.8616 26.2206 25.6369 27.8295 24.4101C28.63 23.7998 29.4812 23.2007 30.3611 22.5866L30.6557 22.3811C31.248 21.9681 31.8513 21.5474 32.45 21.1166C32.5206 21.2961 32.5907 21.4773 32.6604 21.6599C32.8909 22.2647 33.1235 22.8588 33.3528 23.4447C33.9047 24.8551 34.4379 26.2177 34.8805 27.565C35.5034 29.4611 35.9111 31.2288 35.9111 32.8815C35.9111 37.2211 34.802 40.6277 32.7144 42.9405C31.2568 44.5554 29.2628 45.7025 26.6825 46.2414Z"/>
</mask>
<path fill-rule="evenodd" clip-rule="evenodd" d="M34.056 19.9537C36.2588 18.3973 38.3314 17.1712 40.2863 16.5451C42.4997 15.8362 44.4979 15.9132 46.3852 17.1276C48.2785 18.3458 49.2314 20.176 49.5552 22.5263C49.884 24.9133 49.5514 27.7758 48.892 30.9084C48.7587 31.5413 48.6328 32.1664 48.5087 32.7828L48.5085 32.7839L48.5084 32.7841C48.2094 34.2688 47.9205 35.7031 47.5637 37.0755C47.0615 39.0071 46.4479 40.7143 45.5536 42.1041C43.2054 45.7535 40.4293 48.0182 37.4223 48.8335C34.8669 49.5264 32.0183 49.2067 28.9378 47.6127C31.0197 46.8953 32.7622 45.7569 34.1415 44.2287C36.6464 41.4537 37.8336 37.5264 37.8336 32.8815C37.8336 30.9311 37.3555 28.939 36.707 26.9649C36.2468 25.564 35.6827 24.1226 35.1225 22.6909L35.1224 22.6908C34.8976 22.1162 34.6734 21.5432 34.4567 20.975C34.3258 20.6316 34.1923 20.291 34.056 19.9537ZM33.2803 18.1494C32.3845 16.1976 31.3621 14.4242 30.142 13.001C28.3297 10.8867 26.0415 9.50492 23.0954 9.50492C20.1423 9.50492 17.9153 10.8937 16.1674 13.0154C14.4489 15.1015 13.1529 17.9401 11.9957 20.975C11.6579 21.8608 11.2961 22.7408 10.9322 23.6258L10.7954 23.9587C10.3881 24.9506 9.98228 25.9488 9.62407 26.9375C8.91108 28.9054 8.35716 30.9111 8.35716 32.8815C8.35716 37.5264 9.54443 41.4537 12.0492 44.2287C14.5684 47.0195 18.2985 48.5106 23.0954 48.5106C24.2072 48.5106 25.2617 48.4305 26.2571 48.2727C26.2777 48.286 26.2984 48.2994 26.3191 48.3127C30.3531 50.9084 34.2967 51.6729 37.9254 50.689C41.5333 49.7108 44.6569 47.0506 47.1703 43.1444C48.2257 41.5043 48.9016 39.5703 49.4244 37.5593C49.7954 36.1321 50.1011 34.6147 50.4046 33.1076L50.4047 33.1075C50.5265 32.5026 50.648 31.8994 50.7732 31.3044C51.4455 28.1106 51.8347 24.9858 51.4597 22.2639C51.0796 19.5053 49.903 17.105 47.4255 15.5109C44.9421 13.9129 42.3178 13.8757 39.6999 14.7142C37.5835 15.392 35.4321 16.6522 33.2803 18.1494ZM23.9792 46.5692C23.6903 46.5817 23.3957 46.5881 23.0954 46.5881C18.708 46.5881 15.5496 45.2375 13.4763 42.9405C11.3887 40.6277 10.2797 37.2211 10.2797 32.8815C10.2797 31.2487 10.7424 29.4946 11.4316 27.5924C11.7745 26.646 12.1662 25.6816 12.5738 24.689L12.7104 24.3568L12.7104 24.3567C13.0731 23.4745 13.4448 22.5706 13.792 21.6599C14.9382 18.6541 16.1442 16.0671 17.6513 14.2378C19.129 12.444 20.8511 11.4274 23.0954 11.4274C25.3467 11.4274 27.1384 12.4509 28.6824 14.2522C29.82 15.5792 30.8002 17.305 31.6881 19.2945C30.9875 19.8059 30.2736 20.3037 29.556 20.8042L29.5559 20.8042L29.2608 21.0101C28.3815 21.6238 27.5001 22.2437 26.6638 22.8813C24.9994 24.1504 23.4482 25.5374 22.3821 27.1943C19.8686 31.1005 18.742 35.0456 19.3468 38.7346C19.8259 41.6566 21.3729 44.307 23.9792 46.5692ZM26.6825 46.2414C23.4327 43.9624 21.7131 41.2845 21.244 38.4236C20.7399 35.349 21.6506 31.884 23.9988 28.2346C24.8823 26.8616 26.2206 25.6369 27.8295 24.4101C28.63 23.7998 29.4812 23.2007 30.3611 22.5866L30.6557 22.3811C31.248 21.9681 31.8513 21.5474 32.45 21.1166C32.5206 21.2961 32.5907 21.4773 32.6604 21.6599C32.8909 22.2647 33.1235 22.8588 33.3528 23.4447C33.9047 24.8551 34.4379 26.2177 34.8805 27.565C35.5034 29.4611 35.9111 31.2288 35.9111 32.8815C35.9111 37.2211 34.802 40.6277 32.7144 42.9405C31.2568 44.5554 29.2628 45.7025 26.6825 46.2414Z" fill="#F8F9FA"/>
<path d="M40.2863 16.5451L40.7438 17.9736L40.7438 17.9736L40.2863 16.5451ZM34.056 19.9537L33.1904 18.7286C32.6218 19.1304 32.4044 19.8705 32.6653 20.5159L34.056 19.9537ZM49.5552 22.5263L51.0411 22.3215L51.0411 22.3215L49.5552 22.5263ZM48.892 30.9083L50.3598 31.2173L50.3598 31.2173L48.892 30.9083ZM48.5087 32.7828L49.9788 33.0807L49.9792 33.079L48.5087 32.7828ZM48.5085 32.7839L49.9733 33.1069C49.9751 33.0986 49.9769 33.0902 49.9786 33.0818L48.5085 32.7839ZM48.5084 32.7841L47.0436 32.461C47.0417 32.47 47.0398 32.4789 47.038 32.4879L48.5084 32.7841ZM47.5637 37.0755L46.112 36.6981L46.112 36.6981L47.5637 37.0755ZM37.4223 48.8335L37.0297 47.3858L37.0297 47.3858L37.4223 48.8335ZM28.9378 47.6126L28.4491 46.1945C27.8817 46.39 27.4854 46.9049 27.4418 47.5035C27.3981 48.102 27.7154 48.669 28.2484 48.9449L28.9378 47.6126ZM34.1415 44.2287L33.0281 43.2236L33.0281 43.2236L34.1415 44.2287ZM37.8336 32.8814L39.3336 32.8814V32.8814L37.8336 32.8814ZM36.707 26.9649L38.1321 26.4968L38.1321 26.4968L36.707 26.9649ZM35.1225 22.6909L33.7213 23.2263L33.7256 23.2375L35.1225 22.6909ZM35.1224 22.6907L36.5237 22.1553L36.5193 22.1441L35.1224 22.6907ZM34.4567 20.975L33.0551 21.5094L33.0551 21.5094L34.4567 20.975ZM30.142 13.0009L29.0032 13.9772L30.142 13.0009ZM33.2803 18.1494L31.917 18.7751C32.1023 19.1788 32.457 19.4796 32.8855 19.5965C33.3141 19.7134 33.7724 19.6344 34.137 19.3807L33.2803 18.1494ZM23.0954 9.50491L23.0954 8.00491L23.0954 8.00491L23.0954 9.50491ZM16.1674 13.0153L15.0097 12.0616L15.0097 12.0616L16.1674 13.0153ZM11.9957 20.975L13.3973 21.5094L11.9957 20.975ZM10.9322 23.6258L9.54492 23.0554L9.54485 23.0556L10.9322 23.6258ZM10.7954 23.9587L9.40803 23.3885L9.40788 23.3888L10.7954 23.9587ZM9.62407 26.9375L11.0344 27.4485L11.0344 27.4485L9.62407 26.9375ZM8.35716 32.8814L6.85716 32.8814L6.85716 32.8814L8.35716 32.8814ZM12.0492 44.2287L10.9357 45.2337L10.9357 45.2337L12.0492 44.2287ZM23.0954 48.5106L23.0954 50.0106L23.0954 50.0106L23.0954 48.5106ZM26.2571 48.2726L27.0729 47.0139C26.7621 46.8125 26.3879 46.7332 26.0222 46.7911L26.2571 48.2726ZM37.9253 50.689L38.3179 52.1368L38.3179 52.1368L37.9253 50.689ZM49.4244 37.5593L50.8761 37.9367L50.8761 37.9367L49.4244 37.5593ZM50.4046 33.1076L51.8751 33.4038L51.8773 33.3927L50.4046 33.1076ZM50.4047 33.1075L48.9341 32.8113L48.932 32.8223L50.4047 33.1075ZM50.7732 31.3044L49.3054 30.9954L49.3054 30.9954L50.7732 31.3044ZM51.4597 22.2639L52.9456 22.0592L52.9456 22.0592L51.4597 22.2639ZM39.6999 14.7142L39.2424 13.2856L39.2424 13.2856L39.6999 14.7142ZM23.0954 46.5881L23.0954 48.0881L23.0954 48.0881L23.0954 46.5881ZM23.9792 46.5692L24.0442 48.0678C24.6577 48.0412 25.1931 47.6433 25.3954 47.0634C25.5978 46.4836 25.4262 45.839 24.9624 45.4364L23.9792 46.5692ZM13.4763 42.9405L14.5898 41.9354L14.5898 41.9354L13.4763 42.9405ZM10.2797 32.8814L11.7797 32.8814L11.7797 32.8814L10.2797 32.8814ZM11.4316 27.5924L10.0213 27.0814L10.0213 27.0814L11.4316 27.5924ZM12.5738 24.689L11.1864 24.1188L11.1862 24.1192L12.5738 24.689ZM12.7104 24.3568L11.3236 23.785L11.323 23.7865L12.7104 24.3568ZM12.7104 24.3567L14.0971 24.9285L14.0977 24.9271L12.7104 24.3567ZM13.792 21.6599L12.3905 21.1255L12.3905 21.1255L13.792 21.6599ZM17.6513 14.2377L18.809 15.1915L18.809 15.1915L17.6513 14.2377ZM23.0954 11.4274L23.0954 12.9274L23.0954 12.9274L23.0954 11.4274ZM28.6824 14.2521L29.8213 13.2759L29.8213 13.2759L28.6824 14.2521ZM31.6881 19.2945L32.5725 20.5061C33.1439 20.089 33.3463 19.3292 33.0579 18.6831L31.6881 19.2945ZM29.556 20.8042L28.698 19.5738C28.694 19.5765 28.6901 19.5793 28.6862 19.5821L29.556 20.8042ZM29.5559 20.8042L30.4141 22.0345C30.418 22.0318 30.4219 22.029 30.4257 22.0263L29.5559 20.8042ZM29.2607 21.0101L28.4026 19.7799L28.4022 19.7801L29.2607 21.0101ZM26.6638 22.8813L27.5733 24.0741L27.5733 24.0741L26.6638 22.8813ZM19.3468 38.7346L17.8666 38.9773L17.8666 38.9773L19.3468 38.7346ZM21.244 38.4236L22.7242 38.1809L22.7242 38.1809L21.244 38.4236ZM26.6825 46.2414L25.8212 47.4695C26.1606 47.7075 26.5834 47.7944 26.9891 47.7097L26.6825 46.2414ZM27.8295 24.4101L26.92 23.2173L26.92 23.2173L27.8295 24.4101ZM30.3611 22.5866L29.5029 21.3563L29.5026 21.3566L30.3611 22.5866ZM30.6557 22.3811L29.7977 21.1507L29.7975 21.1508L30.6557 22.3811ZM32.45 21.1166L33.8458 20.5674C33.6763 20.1366 33.3174 19.8082 32.8733 19.6776C32.4292 19.5469 31.9496 19.6286 31.5739 19.899L32.45 21.1166ZM32.6604 21.6599L34.0619 21.1255L34.0619 21.1255L32.6604 21.6599ZM33.3527 23.4447L31.9559 23.9913L31.9559 23.9913L33.3527 23.4447ZM34.8805 27.5649L33.4554 28.0331L33.4554 28.0331L34.8805 27.5649ZM35.9111 32.8814L34.4111 32.8814L34.4111 32.8814L35.9111 32.8814ZM32.7144 42.9405L31.601 41.9354L31.601 41.9354L32.7144 42.9405ZM39.8288 15.1165C37.6521 15.8137 35.4294 17.1467 33.1904 18.7286L34.9216 21.1788C37.0882 19.648 39.0107 18.5287 40.7438 17.9736L39.8288 15.1165ZM47.1969 15.8662C44.8453 14.353 42.3589 14.3062 39.8288 15.1165L40.7438 17.9736C42.6404 17.3662 44.1505 17.4733 45.5736 18.389L47.1969 15.8662ZM51.0411 22.3215C50.6733 19.6516 49.5453 17.3772 47.1969 15.8662L45.5736 18.389C47.0116 19.3143 47.7894 20.7004 48.0692 22.731L51.0411 22.3215ZM50.3598 31.2173C51.0292 28.0372 51.406 24.9699 51.0411 22.3215L48.0692 22.731C48.362 24.8566 48.0735 27.5143 47.4241 30.5994L50.3598 31.2173ZM49.9792 33.079C50.1035 32.4616 50.2281 31.8428 50.3598 31.2173L47.4241 30.5994C47.2893 31.2397 47.1622 31.8712 47.0382 32.4867L49.9792 33.079ZM49.9786 33.0818L49.9788 33.0807L47.0386 32.4849L47.0383 32.486L49.9786 33.0818ZM49.9732 33.1071L49.9733 33.1069L47.0437 32.4609L47.0436 32.461L49.9732 33.1071ZM49.0155 37.453C49.3846 36.033 49.6815 34.5568 49.9789 33.0802L47.038 32.4879C46.7373 33.9807 46.4564 35.3732 46.112 36.6981L49.0155 37.453ZM46.815 42.9158C47.835 41.3306 48.4972 39.4463 49.0155 37.453L46.112 36.6981C45.6259 38.5679 45.0607 40.098 44.2922 41.2924L46.815 42.9158ZM37.8148 50.2813C41.2905 49.3389 44.3377 46.7658 46.815 42.9158L44.2922 41.2924C42.073 44.7412 39.5682 46.6975 37.0297 47.3858L37.8148 50.2813ZM28.2484 48.9449C31.6056 50.6821 34.8397 51.0879 37.8148 50.2813L37.0297 47.3858C34.894 47.9649 32.431 47.7313 29.6271 46.2804L28.2484 48.9449ZM33.0281 43.2236C31.8283 44.5528 30.3051 45.555 28.4491 46.1945L29.4264 49.0308C31.7342 48.2356 33.696 46.9609 35.255 45.2337L33.0281 43.2236ZM36.3336 32.8814C36.3336 37.2885 35.2072 40.8094 33.0281 43.2236L35.255 45.2337C38.0855 42.0979 39.3336 37.7643 39.3336 32.8814L36.3336 32.8814ZM35.2819 27.4331C35.9104 29.3462 36.3336 31.1632 36.3336 32.8814L39.3336 32.8814C39.3336 30.6989 38.8006 28.5317 38.1321 26.4968L35.2819 27.4331ZM33.7256 23.2375C34.2889 24.677 34.837 26.0788 35.2819 27.4331L38.1321 26.4968C37.6565 25.0492 37.0765 23.5681 36.5193 22.1443L33.7256 23.2375ZM33.7213 23.2262L33.7213 23.2263L36.5237 22.1554L36.5236 22.1553L33.7213 23.2262ZM33.0551 21.5094C33.2745 22.0847 33.5011 22.6638 33.7256 23.2374L36.5193 22.1441C36.294 21.5685 36.0722 21.0016 35.8583 20.4405L33.0551 21.5094ZM32.6653 20.5159C32.7976 20.8431 32.9274 21.1745 33.0551 21.5094L35.8583 20.4405C35.7241 20.0887 35.587 19.7388 35.4466 19.3915L32.6653 20.5159ZM29.0032 13.9772C30.0991 15.2556 31.0531 16.8929 31.917 18.7751L34.6435 17.5237C33.7158 15.5023 32.625 13.5927 31.2809 12.0247L29.0032 13.9772ZM23.0954 11.0049C25.4987 11.0049 27.3996 12.1065 29.0032 13.9772L31.2809 12.0247C29.2598 9.66696 26.5843 8.00491 23.0954 8.00491L23.0954 11.0049ZM17.3252 13.9691C18.8629 12.1025 20.6961 11.0049 23.0954 11.0049L23.0954 8.00491C19.5885 8.00491 16.9677 9.68483 15.0097 12.0616L17.3252 13.9691ZM13.3973 21.5094C14.5457 18.4975 15.7716 15.855 17.3252 13.9691L15.0097 12.0616C13.1262 14.3479 11.7601 17.3827 10.5941 20.4405L13.3973 21.5094ZM12.3196 24.1962C12.6822 23.3142 13.0514 22.4164 13.3973 21.5094L10.5941 20.4405C10.2644 21.3053 9.91005 22.1673 9.54492 23.0554L12.3196 24.1962ZM12.1828 24.5289L12.3196 24.196L9.54485 23.0556L9.40803 23.3885L12.1828 24.5289ZM11.0344 27.4485C11.3806 26.4928 11.7754 25.5209 12.183 24.5285L9.40788 23.3888C9.00072 24.3803 8.58394 25.4049 8.21378 26.4265L11.0344 27.4485ZM9.85716 32.8814C9.85716 31.1744 10.34 29.3649 11.0344 27.4485L8.21378 26.4265C7.48214 28.4459 6.85716 30.6479 6.85716 32.8814L9.85716 32.8814ZM13.1627 43.2236C10.9836 40.8094 9.85716 37.2885 9.85716 32.8814L6.85716 32.8814C6.85716 37.7643 8.10527 42.0979 10.9357 45.2337L13.1627 43.2236ZM23.0954 47.0106C18.6175 47.0106 15.3337 45.6288 13.1627 43.2236L10.9357 45.2337C13.803 48.4103 17.9794 50.0106 23.0954 50.0106L23.0954 47.0106ZM26.0222 46.7911C25.111 46.9356 24.1354 47.0106 23.0954 47.0106L23.0954 50.0106C24.279 50.0106 25.4124 49.9253 26.492 49.7541L26.0222 46.7911ZM27.1308 47.0513C27.1114 47.0388 27.0921 47.0263 27.0729 47.0139L25.4413 49.5314C25.4634 49.5457 25.4854 49.5599 25.5074 49.5741L27.1308 47.0513ZM37.5328 49.2413C34.4056 50.0892 30.8964 49.4743 27.1308 47.0513L25.5074 49.5741C29.8097 52.3424 34.1878 53.2566 38.3179 52.1368L37.5328 49.2413ZM45.9089 42.3327C43.5242 46.0388 40.6717 48.3902 37.5328 49.2413L38.3179 52.1368C42.395 51.0313 45.7896 48.0623 48.4317 43.9561L45.9089 42.3327ZM47.9726 37.1818C47.4659 39.1307 46.8386 40.8878 45.9089 42.3327L48.4317 43.9561C49.6127 42.1207 50.3372 40.0097 50.8761 37.9367L47.9726 37.1818ZM48.9342 32.8114C48.6289 34.3268 48.3313 35.8022 47.9726 37.1818L50.8761 37.9367C51.2595 36.462 51.5732 34.9027 51.8751 33.4038L48.9342 32.8114ZM48.932 32.8223L48.932 32.8224L51.8773 33.3927L51.8773 33.3926L48.932 32.8223ZM49.3054 30.9954C49.1786 31.5979 49.0558 32.2076 48.9342 32.8113L51.8751 33.4037C51.9972 32.7977 52.1174 32.2009 52.2411 31.6133L49.3054 30.9954ZM49.9737 22.4686C50.3127 24.9293 49.9676 27.8495 49.3054 30.9954L52.2411 31.6133C52.9234 28.3717 53.3566 25.0422 52.9456 22.0592L49.9737 22.4686ZM46.6139 16.7723C48.6349 18.0727 49.6374 20.0277 49.9737 22.4686L52.9456 22.0592C52.5218 18.9828 51.1712 16.1373 48.2372 14.2494L46.6139 16.7723ZM40.1574 16.1427C42.4606 15.4051 44.5962 15.474 46.6139 16.7723L48.2372 14.2494C45.288 12.3518 42.1751 12.3464 39.2424 13.2856L40.1574 16.1427ZM34.137 19.3807C36.2463 17.913 38.2531 16.7526 40.1574 16.1427L39.2424 13.2856C36.914 14.0314 34.6179 15.3913 32.4236 16.9181L34.137 19.3807ZM23.0954 48.0881C23.4168 48.0881 23.7331 48.0813 24.0442 48.0678L23.9142 45.0706C23.6476 45.0822 23.3747 45.0881 23.0954 45.0881L23.0954 48.0881ZM12.3629 43.9456C14.7837 46.6276 18.3879 48.0881 23.0954 48.0881L23.0954 45.0881C19.0281 45.0881 16.3156 43.8473 14.5898 41.9354L12.3629 43.9456ZM8.77966 32.8814C8.77966 37.4597 9.94993 41.2724 12.3629 43.9456L14.5898 41.9354C12.8275 39.9831 11.7797 36.9825 11.7797 32.8814L8.77966 32.8814ZM10.0213 27.0814C9.31364 29.0346 8.77966 30.9852 8.77966 32.8814L11.7797 32.8814C11.7797 31.5122 12.1712 29.9546 12.8419 28.1033L10.0213 27.0814ZM11.1862 24.1192C10.7788 25.1112 10.3762 26.102 10.0213 27.0814L12.8419 28.1033C13.1728 27.19 13.5535 26.2519 13.9613 25.2589L11.1862 24.1192ZM11.323 23.7865L11.1864 24.1188L13.9612 25.2593L14.0977 24.927L11.323 23.7865ZM11.3236 23.785L11.3236 23.785L14.0971 24.9285L14.0971 24.9285L11.3236 23.785ZM12.3905 21.1255C12.0513 22.015 11.687 22.9011 11.3231 23.7863L14.0977 24.9271C14.4592 24.0478 14.8383 23.1261 15.1936 22.1943L12.3905 21.1255ZM16.4935 13.284C14.8214 15.3138 13.5451 18.0973 12.3905 21.1255L15.1936 22.1943C16.3312 19.2109 17.4671 16.8204 18.809 15.1915L16.4935 13.284ZM23.0954 9.92741C20.299 9.92741 18.1828 11.2334 16.4935 13.284L18.809 15.1915C20.0752 13.6544 21.4032 12.9274 23.0954 12.9274L23.0954 9.92741ZM29.8213 13.2759C28.0672 11.2297 25.8879 9.92741 23.0954 9.92741L23.0954 12.9274C24.8054 12.9274 26.2095 13.6721 27.5436 15.2284L29.8213 13.2759ZM33.0579 18.6831C32.1403 16.627 31.0904 14.7565 29.8213 13.2759L27.5436 15.2284C28.5495 16.4019 29.4602 17.983 30.3184 19.9058L33.0579 18.6831ZM30.414 22.0345C31.1294 21.5356 31.8566 21.0286 32.5725 20.5061L30.8038 18.0829C30.1185 18.5831 29.4179 19.0718 28.698 19.5738L30.414 22.0345ZM30.4257 22.0263L30.4257 22.0263L28.6862 19.5821L28.6862 19.5821L30.4257 22.0263ZM30.1189 22.2404L30.4141 22.0345L28.6978 19.5739L28.4026 19.7799L30.1189 22.2404ZM27.5733 24.0741C28.3817 23.4578 29.2395 22.8541 30.1193 22.2401L28.4022 19.7801C27.5234 20.3935 26.6185 21.0296 25.7543 21.6885L27.5733 24.0741ZM23.6435 28.006C24.5672 26.5704 25.9524 25.31 27.5733 24.0741L25.7543 21.6885C24.0464 22.9908 22.3292 24.5044 21.1207 26.3827L23.6435 28.006ZM20.827 38.4919C20.3008 35.2825 21.2588 31.7121 23.6435 28.006L21.1207 26.3827C18.4785 30.4889 17.1831 34.8087 17.8666 38.9773L20.827 38.4919ZM24.9624 45.4364C22.582 43.3702 21.2417 41.0209 20.827 38.4919L17.8666 38.9773C18.4101 42.2923 20.1638 45.2438 22.9959 47.702L24.9624 45.4364ZM19.7637 38.6663C20.3108 42.0027 22.3109 45.0077 25.8212 47.4695L27.5437 45.0133C24.5545 42.917 23.1153 40.5664 22.7242 38.1809L19.7637 38.6663ZM22.7374 27.4229C20.2601 31.273 19.1811 35.1125 19.7637 38.6663L22.7242 38.1809C22.2987 35.5854 23.0411 32.4951 25.2602 29.0463L22.7374 27.4229ZM26.92 23.2173C25.268 24.4769 23.7635 25.8283 22.7374 27.4229L25.2602 29.0463C26.0011 27.8948 27.1732 26.7968 28.739 25.6029L26.92 23.2173ZM29.5026 21.3566C28.6232 21.9703 27.7484 22.5857 26.92 23.2173L28.739 25.6029C29.5115 25.0139 30.3392 24.4311 31.2196 23.8166L29.5026 21.3566ZM29.7975 21.1508L29.5029 21.3563L31.2192 23.8169L31.5139 23.6113L29.7975 21.1508ZM31.5739 19.899C30.9857 20.3222 30.3915 20.7367 29.7977 21.1507L31.5137 23.6115C32.1045 23.1995 32.7169 22.7725 33.3261 22.3341L31.5739 19.899ZM34.0619 21.1255C33.9905 20.9381 33.9185 20.7521 33.8458 20.5674L31.0541 21.6658C31.1227 21.8402 31.1909 22.0164 31.2588 22.1943L34.0619 21.1255ZM34.7496 22.8981C34.5199 22.3112 34.2898 21.7231 34.0619 21.1255L31.2588 22.1943C31.4921 22.8062 31.727 23.4064 31.9559 23.9913L34.7496 22.8981ZM36.3056 27.0968C35.8477 25.7029 35.2985 24.3007 34.7496 22.8981L31.9559 23.9913C32.5109 25.4095 33.0282 26.7325 33.4554 28.0331L36.3056 27.0968ZM37.4111 32.8814C37.4111 30.9964 36.9484 29.0536 36.3056 27.0968L33.4554 28.0331C34.0584 29.8686 34.4111 31.4611 34.4111 32.8814L37.4111 32.8814ZM33.8279 43.9456C36.2408 41.2724 37.4111 37.4597 37.4111 32.8814L34.4111 32.8814C34.4111 36.9825 33.3632 39.9831 31.601 41.9354L33.8279 43.9456ZM26.9891 47.7097C29.8488 47.1125 32.1364 45.8196 33.8279 43.9456L31.601 41.9354C30.3772 43.2912 28.6768 44.2925 26.3758 44.773L26.9891 47.7097Z" fill="#F8F9FA" mask="url(#path-1-outside-1_50_9663)"/>
<path d="M36.988 32.9182C36.988 41.9028 32.3954 47.5861 23.2111 47.5861C14.0268 47.5861 9.43408 41.9028 9.43408 32.9182C9.43408 29.3152 11.4674 25.3986 13.0095 21.3542C15.3129 15.3135 18.0137 10.5029 23.2111 10.5029C28.4085 10.5029 31.3709 15.3135 33.6742 21.3542C35.2163 25.3986 36.988 29.3152 36.988 32.9182Z" fill="#099268" stroke="#212529" stroke-width="2" stroke-linejoin="round"/>
<g style="mix-blend-mode:multiply" opacity="0.6">
<path fill-rule="evenodd" clip-rule="evenodd" d="M21.8352 47.57C30.2717 47.2377 34.4905 41.7527 34.4905 33.2353C34.4905 30.2212 33.2232 26.9828 31.9126 23.6337C31.6904 23.0659 31.467 22.4949 31.2483 21.9213C29.1195 16.3385 26.4154 11.8297 21.8363 11.3474C22.1033 11.3191 22.3774 11.3047 22.6591 11.3047C27.7441 11.3047 30.6424 16.0112 32.896 21.9213C33.1147 22.4949 33.3381 23.0659 33.5603 23.6337C34.8709 26.9828 36.1382 30.2212 36.1382 33.2353C36.1382 42.0256 31.6448 47.586 22.6591 47.586C22.3801 47.586 22.1055 47.5807 21.8352 47.57Z" fill="#099268"/>
</g>
<path d="M46.4776 42.6613C41.616 50.2169 34.6785 52.5111 26.9549 47.5413C19.2314 42.5716 18.4445 35.3071 23.3061 27.7515C25.2558 24.7215 29.085 22.5281 32.5703 19.9615C37.776 16.1279 42.6503 13.5439 47.0211 16.3563C51.3918 19.1686 51.28 24.8171 49.9483 31.1434C49.0567 35.379 48.4273 39.6313 46.4776 42.6613Z" fill="#FFEC99" stroke="#212529" stroke-width="2" stroke-linejoin="round"/>
<g style="mix-blend-mode:multiply" opacity="0.9">
<path fill-rule="evenodd" clip-rule="evenodd" d="M27.1786 46.8341C34.0507 49.9404 40.1769 47.5766 44.5915 41.1476C46.2585 38.7199 46.9603 35.4548 47.6861 32.0781C47.8091 31.5057 47.9329 30.9299 48.0621 30.3546C49.3382 24.6739 49.4942 19.5764 45.6589 16.8418C46.1467 17.0139 46.6288 17.2409 47.1049 17.528C51.4756 20.1634 51.3638 25.4563 50.0321 31.3845C49.9028 31.9598 49.7791 32.5355 49.656 33.108C48.9303 36.4847 48.2285 39.7498 46.5614 42.1775C41.7291 49.2148 34.846 51.3812 27.1786 46.8341Z" fill="#FFEC99"/>
</g>
<ellipse cx="33.924" cy="36.7105" rx="6.8775" ry="6.98235" transform="rotate(32.7594 33.924 36.7105)" fill="#087F5B" stroke="#212529" stroke-width="1.6" stroke-linejoin="round"/>
<g style="mix-blend-mode:multiply" opacity="0.6">
<path fill-rule="evenodd" clip-rule="evenodd" d="M31.3161 42.3425C34.0438 43.6207 37.4091 42.6518 39.1362 39.9676C41.0134 37.0502 40.2445 33.2112 37.4188 31.3929C36.7592 30.9686 36.0459 30.6918 35.316 30.5539C35.5531 30.665 35.7854 30.7931 36.0114 30.9385C38.8371 32.7567 39.606 36.5957 37.7288 39.5132C36.2897 41.7497 33.7133 42.7954 31.3161 42.3425Z" fill="#087F5B"/>
</g>
<path d="M29.9288 37.2549C29.7403 36.5175 29.7165 34.6983 31.1294 33.3199" stroke="#212529" stroke-width="1.4" stroke-linecap="round" stroke-linejoin="round"/>
<g style="mix-blend-mode:multiply" opacity="0.4">
<path d="M18.7253 40.5196C18.0675 37.3129 18.8082 35.6121 19.5496 34.3379C19.1374 36.5015 19.302 37.6839 19.9136 40.5196C20.5252 43.3553 23.1802 45.7415 24.097 46.61L22.1066 46.61C20.7261 45.1288 19.2748 43.1984 18.7253 40.5196Z" fill="#099268"/>
</g>
</g>
<defs>
<clipPath id="clip0_50_9663">
<rect width="60" height="58" fill="white" transform="translate(0 0.5)"/>
</clipPath>
</defs>
</svg>
