<svg width="60" height="60" viewBox="0 0 60 60" fill="none" xmlns="http://www.w3.org/2000/svg">
<mask id="path-1-outside-1_50_8967" maskUnits="userSpaceOnUse" x="10.4954" y="7.29785" width="39" height="45" fill="black">
<rect fill="white" x="10.4954" y="7.29785" width="39" height="45"/>
<path fill-rule="evenodd" clip-rule="evenodd" d="M29.9945 9.29788C26.0363 9.29788 22.8276 12.5066 22.8276 16.4648V23.6367C22.7589 23.7208 22.6973 23.8118 22.644 23.9091L12.7171 41.9979C12.3785 42.6148 12.4312 43.3726 12.8519 43.9368L16.7402 49.1508C17.2302 49.8078 18.1026 50.05 18.8612 49.7397L24.4886 47.4376C24.5201 47.4247 24.5511 47.411 24.5816 47.3965C24.6101 47.4187 24.6394 47.4401 24.6695 47.4607L28.934 50.3874C29.5518 50.8113 30.3677 50.8075 30.9814 50.3779L35.157 47.455C35.2091 47.4185 35.259 47.3795 35.3064 47.3382C35.372 47.3754 35.4404 47.4086 35.5112 47.4376L41.1387 49.7397C41.8973 50.05 42.7697 49.8078 43.2597 49.1508L47.148 43.9368C47.5687 43.3726 47.6214 42.6148 47.2828 41.9979L37.3559 23.9091C37.2997 23.8067 37.2345 23.7113 37.1614 23.6235V16.4648C37.1614 12.5066 33.9527 9.29788 29.9945 9.29788ZM31.9753 24.6924C31.9712 24.7866 31.9745 24.8824 31.9857 24.9794L32.3233 27.9085L34.2205 45.9729C34.2241 46.0071 34.2088 46.0406 34.1807 46.0603L30.0051 48.9832C29.9728 49.0058 29.9299 49.006 29.8974 48.9837L25.6328 46.057C25.6099 46.0413 25.5954 46.0165 25.5923 45.9896C25.5927 45.9864 25.5931 45.9833 25.5934 45.9801L28.0142 24.9794C28.027 24.8682 28.0295 24.7584 28.0223 24.651C28.0284 24.6497 28.0348 24.649 28.0413 24.649H31.8958C31.9289 24.649 31.9584 24.6661 31.9753 24.6924ZM34.0156 27.7222L36.0977 45.7852C36.1017 45.8194 36.1239 45.8488 36.1559 45.8619L41.7833 48.164C41.8232 48.1803 41.8691 48.1676 41.8949 48.133L45.7832 42.919C45.8054 42.8893 45.8081 42.8494 45.7903 42.817L35.8634 24.7281C35.8468 24.6979 35.815 24.679 35.7805 24.679H33.7709C33.7421 24.679 33.7167 24.6918 33.6994 24.7117L34.0156 27.7222ZM26.2403 24.6797C26.2366 24.6793 26.2328 24.679 26.229 24.679H24.2194C24.1849 24.679 24.1531 24.6979 24.1365 24.7281L14.2096 42.817C14.1917 42.8494 14.1945 42.8893 14.2167 42.919L13.5343 43.4279L14.2167 42.919L18.105 48.133C18.1308 48.1676 18.1767 48.1803 18.2166 48.164L23.844 45.8619C23.8696 45.8514 23.889 45.8304 23.8977 45.8049C23.8985 45.7969 23.8993 45.7889 23.9002 45.781L26.2403 24.6797ZM24.5301 16.4648C24.5301 13.4468 26.9766 11.0004 29.9945 11.0004C33.0124 11.0004 35.4589 13.4468 35.4589 16.4648V22.9465H24.5301V16.4648Z"/>
</mask>
<path fill-rule="evenodd" clip-rule="evenodd" d="M29.9945 9.29788C26.0363 9.29788 22.8276 12.5066 22.8276 16.4648V23.6367C22.7589 23.7208 22.6973 23.8118 22.644 23.9091L12.7171 41.9979C12.3785 42.6148 12.4312 43.3726 12.8519 43.9368L16.7402 49.1508C17.2302 49.8078 18.1026 50.05 18.8612 49.7397L24.4886 47.4376C24.5201 47.4247 24.5511 47.411 24.5816 47.3965C24.6101 47.4187 24.6394 47.4401 24.6695 47.4607L28.934 50.3874C29.5518 50.8113 30.3677 50.8075 30.9814 50.3779L35.157 47.455C35.2091 47.4185 35.259 47.3795 35.3064 47.3382C35.372 47.3754 35.4404 47.4086 35.5112 47.4376L41.1387 49.7397C41.8973 50.05 42.7697 49.8078 43.2597 49.1508L47.148 43.9368C47.5687 43.3726 47.6214 42.6148 47.2828 41.9979L37.3559 23.9091C37.2997 23.8067 37.2345 23.7113 37.1614 23.6235V16.4648C37.1614 12.5066 33.9527 9.29788 29.9945 9.29788ZM31.9753 24.6924C31.9712 24.7866 31.9745 24.8824 31.9857 24.9794L32.3233 27.9085L34.2205 45.9729C34.2241 46.0071 34.2088 46.0406 34.1807 46.0603L30.0051 48.9832C29.9728 49.0058 29.9299 49.006 29.8974 48.9837L25.6328 46.057C25.6099 46.0413 25.5954 46.0165 25.5923 45.9896C25.5927 45.9864 25.5931 45.9833 25.5934 45.9801L28.0142 24.9794C28.027 24.8682 28.0295 24.7584 28.0223 24.651C28.0284 24.6497 28.0348 24.649 28.0413 24.649H31.8958C31.9289 24.649 31.9584 24.6661 31.9753 24.6924ZM34.0156 27.7222L36.0977 45.7852C36.1017 45.8194 36.1239 45.8488 36.1559 45.8619L41.7833 48.164C41.8232 48.1803 41.8691 48.1676 41.8949 48.133L45.7832 42.919C45.8054 42.8893 45.8081 42.8494 45.7903 42.817L35.8634 24.7281C35.8468 24.6979 35.815 24.679 35.7805 24.679H33.7709C33.7421 24.679 33.7167 24.6918 33.6994 24.7117L34.0156 27.7222ZM26.2403 24.6797C26.2366 24.6793 26.2328 24.679 26.229 24.679H24.2194C24.1849 24.679 24.1531 24.6979 24.1365 24.7281L14.2096 42.817C14.1917 42.8494 14.1945 42.8893 14.2167 42.919L13.5343 43.4279L14.2167 42.919L18.105 48.133C18.1308 48.1676 18.1767 48.1803 18.2166 48.164L23.844 45.8619C23.8696 45.8514 23.889 45.8304 23.8977 45.8049C23.8985 45.7969 23.8993 45.7889 23.9002 45.781L26.2403 24.6797ZM24.5301 16.4648C24.5301 13.4468 26.9766 11.0004 29.9945 11.0004C33.0124 11.0004 35.4589 13.4468 35.4589 16.4648V22.9465H24.5301V16.4648Z" fill="#F8F9FA"/>
<path d="M22.8276 23.6367L23.9893 24.5856C24.2081 24.3177 24.3276 23.9825 24.3276 23.6367H22.8276ZM22.6439 23.909L23.9589 24.6307L23.9589 24.6307L22.6439 23.909ZM12.717 41.9979L11.402 41.2762L11.402 41.2762L12.717 41.9979ZM12.8518 43.9367L14.0543 43.04L14.0543 43.04L12.8518 43.9367ZM16.7401 49.1507L15.5377 50.0475L15.5377 50.0475L16.7401 49.1507ZM18.8611 49.7397L19.4291 51.128L19.4291 51.128L18.8611 49.7397ZM24.4886 47.4376L23.9207 46.0492L23.9206 46.0492L24.4886 47.4376ZM24.5816 47.3964L25.5034 46.2132C25.0555 45.8642 24.4489 45.798 23.9363 46.0423L24.5816 47.3964ZM24.6694 47.4607L25.5182 46.2239L25.5181 46.2239L24.6694 47.4607ZM28.934 50.3874L28.0852 51.6241L28.0852 51.6241L28.934 50.3874ZM30.9814 50.3779L30.1212 49.149L30.1212 49.149L30.9814 50.3779ZM35.1569 47.455L36.0171 48.6839L36.0171 48.6838L35.1569 47.455ZM35.3063 47.3382L36.0451 46.0327C35.4918 45.7196 34.8012 45.7893 34.3216 46.2067L35.3063 47.3382ZM35.5112 47.4376L36.0791 46.0492L36.0791 46.0492L35.5112 47.4376ZM41.1386 49.7397L40.5707 51.128L40.5707 51.128L41.1386 49.7397ZM43.2596 49.1507L44.4621 50.0475L44.4621 50.0475L43.2596 49.1507ZM47.1479 43.9367L45.9455 43.04L45.9455 43.04L47.1479 43.9367ZM47.2827 41.9979L48.5978 41.2762L48.5977 41.2762L47.2827 41.9979ZM37.3558 23.909L38.6708 23.1874L38.6708 23.1874L37.3558 23.909ZM37.1613 23.6235H35.6613C35.6613 23.9742 35.7842 24.3139 36.0087 24.5834L37.1613 23.6235ZM31.9856 24.9794L30.4955 25.1511L30.4955 25.1512L31.9856 24.9794ZM31.9752 24.6923L33.4738 24.7575C33.4873 24.4469 33.404 24.1397 33.2353 23.8786L31.9752 24.6923ZM32.3232 27.9085L33.815 27.7518C33.8145 27.7468 33.8139 27.7417 33.8134 27.7367L32.3232 27.9085ZM34.2204 45.9729L32.7286 46.1296L32.7286 46.1296L34.2204 45.9729ZM34.1806 46.0603L33.3204 44.8314L33.3204 44.8314L34.1806 46.0603ZM30.0051 48.9832L30.8652 50.2121L30.8653 50.212L30.0051 48.9832ZM29.8973 48.9837L29.0485 50.2204L29.0486 50.2205L29.8973 48.9837ZM25.6327 46.057L24.7839 47.2937L24.784 47.2938L25.6327 46.057ZM25.5923 45.9896L24.1031 45.8097C24.0892 45.9251 24.0887 46.0417 24.1017 46.1571L25.5923 45.9896ZM25.5934 45.9801L24.1033 45.8083L24.1032 45.8086L25.5934 45.9801ZM28.0142 24.9794L29.5043 25.1512L29.5043 25.1511L28.0142 24.9794ZM28.0222 24.6509L27.7219 23.1813C26.9867 23.3316 26.4756 24.002 26.5256 24.7508L28.0222 24.6509ZM34.0155 27.7222L32.5237 27.8789C32.5242 27.8839 32.5248 27.8889 32.5254 27.894L34.0155 27.7222ZM36.0976 45.7851L37.5878 45.6134L37.5878 45.6134L36.0976 45.7851ZM36.1558 45.8618L36.7237 44.4735L36.7237 44.4735L36.1558 45.8618ZM41.7832 48.164L41.2153 49.5523L41.2153 49.5523L41.7832 48.164ZM41.8949 48.133L43.0973 49.0297L43.0973 49.0297L41.8949 48.133ZM45.7832 42.919L44.5807 42.0222L44.5807 42.0222L45.7832 42.919ZM45.7902 42.8169L47.1053 42.0954L47.1052 42.0953L45.7902 42.8169ZM35.8633 24.7281L34.5483 25.4497L34.5483 25.4498L35.8633 24.7281ZM33.6993 24.7117L32.5656 23.7295C32.2938 24.0432 32.1642 24.4556 32.2075 24.8684L33.6993 24.7117ZM26.2402 24.6797L27.7311 24.845C27.8219 24.0262 27.2353 23.2874 26.4172 23.1902L26.2402 24.6797ZM24.1364 24.7281L22.8214 24.0064L22.8214 24.0064L24.1364 24.7281ZM14.2095 42.8169L12.8945 42.0953L12.8945 42.0953L14.2095 42.8169ZM14.2166 42.919L15.1133 44.1214C15.4322 43.8836 15.6436 43.5288 15.7009 43.1351C15.7583 42.7414 15.6569 42.3411 15.419 42.0222L14.2166 42.919ZM12.6375 42.2254C11.9734 42.7207 11.8365 43.6605 12.3318 44.3246C12.827 44.9887 13.7669 45.1256 14.4309 44.6303L12.6375 42.2254ZM14.2166 42.919L15.4191 42.0223C15.1812 41.7033 14.8265 41.492 14.4328 41.4346C14.0391 41.3773 13.6388 41.4787 13.3199 41.7165L14.2166 42.919ZM18.1049 48.133L19.3074 47.2363L19.3074 47.2363L18.1049 48.133ZM18.2165 48.164L18.7844 49.5523L18.7845 49.5523L18.2165 48.164ZM23.844 45.8618L23.2761 44.4735L23.276 44.4735L23.844 45.8618ZM23.8977 45.8049L25.3172 46.2897C25.3547 46.1798 25.3793 46.0659 25.3906 45.9503L23.8977 45.8049ZM23.9002 45.7809L22.4093 45.6156L22.4093 45.6157L23.9002 45.7809ZM35.4588 22.9465V24.4465C36.2873 24.4465 36.9588 23.7749 36.9588 22.9465H35.4588ZM24.53 22.9465H23.03C23.03 23.7749 23.7016 24.4465 24.53 24.4465V22.9465ZM24.3276 16.4647C24.3276 13.335 26.8647 10.7979 29.9944 10.7979V7.79785C25.2079 7.79785 21.3276 11.6781 21.3276 16.4647H24.3276ZM24.3276 23.6367V16.4647H21.3276V23.6367H24.3276ZM23.9589 24.6307C23.9679 24.6143 23.9781 24.5993 23.9893 24.5856L21.6658 22.6879C21.5396 22.8423 21.4266 23.0093 21.3289 23.1874L23.9589 24.6307ZM14.032 42.7195L23.9589 24.6307L21.3289 23.1874L11.402 41.2762L14.032 42.7195ZM14.0543 43.04C13.9848 42.9468 13.976 42.8215 14.032 42.7195L11.402 41.2762C10.7808 42.4081 10.8775 43.7984 11.6494 44.8335L14.0543 43.04ZM17.9426 48.254L14.0543 43.04L11.6494 44.8335L15.5377 50.0475L17.9426 48.254ZM18.2932 48.3514C18.1678 48.4027 18.0236 48.3626 17.9426 48.254L15.5377 50.0475C16.4366 51.2529 18.0373 51.6974 19.4291 51.128L18.2932 48.3514ZM23.9206 46.0492L18.2932 48.3514L19.4291 51.128L25.0565 48.8259L23.9206 46.0492ZM23.9363 46.0423C23.9311 46.0448 23.9259 46.0471 23.9207 46.0492L25.0565 48.8259C25.1143 48.8023 25.1711 48.7771 25.2268 48.7505L23.9363 46.0423ZM25.5181 46.2239C25.5132 46.2205 25.5083 46.2169 25.5034 46.2132L23.6597 48.5797C23.7119 48.6204 23.7656 48.6597 23.8207 48.6975L25.5181 46.2239ZM29.7827 49.1506L25.5182 46.2239L23.8207 48.6975L28.0852 51.6241L29.7827 49.1506ZM30.1212 49.149C30.0197 49.22 29.8848 49.2207 29.7827 49.1506L28.0852 51.6241C29.2185 52.4019 30.7155 52.395 31.8416 51.6067L30.1212 49.149ZM34.2967 46.2262L30.1212 49.149L31.8416 51.6067L36.0171 48.6839L34.2967 46.2262ZM34.3216 46.2067C34.3138 46.2135 34.3055 46.22 34.2967 46.2262L36.0171 48.6838C36.1126 48.617 36.204 48.5455 36.291 48.4697L34.3216 46.2067ZM36.0791 46.0492C36.0672 46.0443 36.0558 46.0388 36.0451 46.0327L34.5676 48.6437C34.6881 48.7119 34.8135 48.7728 34.9432 48.8259L36.0791 46.0492ZM41.7066 48.3514L36.0791 46.0492L34.9432 48.8259L40.5707 51.128L41.7066 48.3514ZM42.0572 48.254C41.9762 48.3626 41.832 48.4027 41.7066 48.3514L40.5707 51.128C41.9624 51.6974 43.5631 51.2529 44.4621 50.0475L42.0572 48.254ZM45.9455 43.04L42.0572 48.254L44.4621 50.0475L48.3504 44.8335L45.9455 43.04ZM45.9677 42.7195C46.0237 42.8215 46.015 42.9468 45.9455 43.04L48.3504 44.8335C49.1222 43.7984 49.2189 42.4081 48.5978 41.2762L45.9677 42.7195ZM36.0408 24.6307L45.9678 42.7195L48.5977 41.2762L38.6708 23.1874L36.0408 24.6307ZM36.0087 24.5834C36.0206 24.5977 36.0314 24.6134 36.0409 24.6307L38.6708 23.1874C38.568 23 38.4482 22.8248 38.314 22.6636L36.0087 24.5834ZM35.6613 16.4647V23.6235H38.6613V16.4647H35.6613ZM29.9944 10.7979C33.1242 10.7979 35.6613 13.335 35.6613 16.4647H38.6613C38.6613 11.6781 34.781 7.79785 29.9944 7.79785V10.7979ZM33.4757 24.8076C33.4736 24.7894 33.4732 24.7728 33.4738 24.7575L30.4767 24.6272C30.4691 24.8003 30.4752 24.9754 30.4955 25.1511L33.4757 24.8076ZM33.8134 27.7367L33.4757 24.8076L30.4955 25.1512L30.8331 28.0802L33.8134 27.7367ZM35.7122 45.8162L33.815 27.7518L30.8314 28.0651L32.7286 46.1296L35.7122 45.8162ZM35.0408 47.2891C35.5157 46.9567 35.7728 46.3927 35.7122 45.8162L32.7286 46.1296C32.6753 45.6215 32.9018 45.1244 33.3204 44.8314L35.0408 47.2891ZM30.8653 50.212L35.0408 47.2891L33.3204 44.8314L29.1449 47.7543L30.8653 50.212ZM29.0486 50.2205C29.5967 50.5966 30.3206 50.5932 30.8652 50.2121L29.145 47.7542C29.6249 47.4183 30.2629 47.4154 30.746 47.7468L29.0486 50.2205ZM24.784 47.2938L29.0485 50.2204L30.7461 47.7469L26.4815 44.8202L24.784 47.2938ZM24.1017 46.1571C24.1527 46.6111 24.3974 47.0285 24.7839 47.2937L26.4816 44.8203C26.8222 45.0541 27.0379 45.4219 27.0829 45.822L24.1017 46.1571ZM24.1032 45.8086C24.1032 45.809 24.1031 45.8094 24.1031 45.8097L27.0814 46.1694C27.0822 46.1635 27.0829 46.1575 27.0836 46.1516L24.1032 45.8086ZM26.524 24.8076L24.1033 45.8083L27.0835 46.1519L29.5043 25.1512L26.524 24.8076ZM26.5256 24.7508C26.5267 24.768 26.5264 24.7868 26.524 24.8076L29.5043 25.1511C29.5275 24.9495 29.5321 24.7488 29.5189 24.5511L26.5256 24.7508ZM28.0412 23.149C27.9322 23.149 27.8252 23.1602 27.7219 23.1813L28.3226 26.1205C28.2315 26.1392 28.1373 26.149 28.0412 26.149V23.149ZM31.8957 23.149H28.0412V26.149H31.8957V23.149ZM33.2353 23.8786C32.9517 23.4394 32.4557 23.149 31.8957 23.149V26.149C31.4021 26.149 30.9649 25.8928 30.7152 25.5061L33.2353 23.8786ZM32.5254 27.894L34.6075 45.9569L37.5878 45.6134L35.5056 27.5504L32.5254 27.894ZM34.6075 45.9569C34.6741 46.5344 35.0497 47.03 35.5879 47.2502L36.7237 44.4735C37.198 44.6676 37.5291 45.1044 37.5878 45.6134L34.6075 45.9569ZM35.5878 47.2502L41.2153 49.5523L42.3512 46.7757L36.7237 44.4735L35.5878 47.2502ZM41.2153 49.5523C41.8884 49.8276 42.6625 49.6127 43.0973 49.0297L40.6924 47.2362C41.0756 46.7224 41.7579 46.533 42.3511 46.7756L41.2153 49.5523ZM43.0973 49.0297L46.9856 43.8157L44.5807 42.0222L40.6924 47.2363L43.0973 49.0297ZM46.9856 43.8158C47.359 43.3151 47.4056 42.6427 47.1053 42.0954L44.4752 43.5385C44.2105 43.0561 44.2516 42.4635 44.5807 42.0222L46.9856 43.8158ZM47.1052 42.0953L37.1783 24.0064L34.5483 25.4498L44.4753 43.5386L47.1052 42.0953ZM37.1784 24.0065C36.8983 23.4962 36.3625 23.179 35.7804 23.179V26.179C35.2674 26.179 34.7951 25.8995 34.5483 25.4497L37.1784 24.0065ZM35.7804 23.179H33.7708V26.179H35.7804V23.179ZM33.7708 23.179C33.2865 23.179 32.8541 23.3965 32.5656 23.7295L34.8331 25.6938C34.5791 25.987 34.1977 26.179 33.7708 26.179V23.179ZM32.2075 24.8684L32.5237 27.8789L35.5073 27.5655L35.1911 24.555L32.2075 24.8684ZM26.4172 23.1902C26.3548 23.1828 26.292 23.179 26.2289 23.179V26.179C26.1736 26.179 26.1183 26.1757 26.0633 26.1692L26.4172 23.1902ZM26.2289 23.179H24.2193V26.179H26.2289V23.179ZM24.2193 23.179C23.6373 23.179 23.1014 23.4962 22.8214 24.0064L25.4514 25.4498C25.2046 25.8995 24.7323 26.179 24.2193 26.179V23.179ZM22.8214 24.0064L12.8945 42.0953L15.5245 43.5386L25.4514 25.4498L22.8214 24.0064ZM12.8945 42.0953C12.5941 42.6427 12.6408 43.3151 13.0142 43.8157L15.419 42.0222C15.7481 42.4634 15.7893 43.0561 15.5245 43.5385L12.8945 42.0953ZM13.3199 41.7165L12.6375 42.2254L14.4309 44.6303L15.1133 44.1214L13.3199 41.7165ZM14.4309 44.6303L15.1133 44.1214L13.3199 41.7165L12.6375 42.2254L14.4309 44.6303ZM13.0142 43.8157L16.9025 49.0297L19.3074 47.2363L15.4191 42.0223L13.0142 43.8157ZM16.9025 49.0297C17.3372 49.6127 18.1114 49.8276 18.7844 49.5523L17.6486 46.7756C18.2418 46.533 18.9241 46.7224 19.3074 47.2363L16.9025 49.0297ZM18.7845 49.5523L24.4119 47.2502L23.276 44.4735L17.6486 46.7757L18.7845 49.5523ZM24.4118 47.2502C24.8436 47.0736 25.1702 46.72 25.3172 46.2897L22.4782 45.3201C22.6077 44.9408 22.8955 44.6292 23.2761 44.4735L24.4118 47.2502ZM25.3906 45.9503C25.3907 45.9491 25.3909 45.9477 25.391 45.9462L22.4093 45.6157C22.4077 45.6301 22.4062 45.6447 22.4047 45.6595L25.3906 45.9503ZM25.391 45.9463L27.7311 24.845L24.7494 24.5144L22.4093 45.6156L25.391 45.9463ZM29.9944 9.50033C26.1481 9.50033 23.03 12.6184 23.03 16.4647H26.03C26.03 14.2752 27.805 12.5003 29.9944 12.5003V9.50033ZM36.9588 16.4647C36.9588 12.6184 33.8408 9.50033 29.9944 9.50033V12.5003C32.1839 12.5003 33.9588 14.2753 33.9588 16.4647H36.9588ZM36.9588 22.9465V16.4647H33.9588V22.9465H36.9588ZM24.53 24.4465H35.4588V21.4465H24.53V24.4465ZM23.03 16.4647V22.9465H26.03V16.4647H23.03Z" fill="#F8F9FA" mask="url(#path-1-outside-1_50_8967)"/>
<path d="M23.6824 16.4611C23.6824 12.9731 26.51 10.1455 29.998 10.1455V10.1455C33.486 10.1455 36.3137 12.9731 36.3137 16.4612V23.7941H23.6824V16.4611Z" fill="#F8F9FA" stroke="#212529" stroke-width="1.8" stroke-linejoin="round"/>
<g style="mix-blend-mode:soft-light">
<path d="M26.7988 13.9548C26.992 13.2996 26.5593 13.103 26.2611 13.4433C26.011 13.7287 25.5475 15.1738 25.4154 16.3989C25.2833 17.624 25.8746 17.7113 25.996 17.2173C26.1174 16.7234 26.5572 14.7738 26.7988 13.9548Z" fill="#F8F9FA"/>
</g>
<path d="M13.4836 42.3733L23.3783 24.3431C23.5539 24.0231 23.89 23.8242 24.255 23.8242H26.1717C26.7694 23.8242 27.2336 24.345 27.1651 24.9387L24.755 45.8472C24.7132 46.2094 24.4777 46.5202 24.1402 46.6583L18.5813 48.9324C18.1592 49.1051 17.6737 48.9703 17.401 48.6046L13.5586 43.4522C13.3245 43.1383 13.2952 42.7166 13.4836 42.3733Z" fill="#DEE2E6" stroke="#212529" stroke-width="1.8" stroke-linejoin="round"/>
<path d="M46.5232 42.3733L36.6285 24.3431C36.4529 24.0231 36.1169 23.8242 35.7519 23.8242H33.8351C33.2375 23.8242 32.7733 24.345 32.8417 24.9387L35.2518 45.8472C35.2936 46.2094 35.5292 46.5202 35.8666 46.6583L41.4256 48.9324C41.8477 49.1051 42.3332 48.9703 42.6058 48.6046L46.4482 43.4522C46.6823 43.1383 46.7116 42.7166 46.5232 42.3733Z" fill="#DEE2E6" stroke="#212529" stroke-width="1.8" stroke-linejoin="round"/>
<path d="M24.7533 45.8387L27.0994 24.6837C27.1555 24.1772 27.5836 23.7939 28.0933 23.7939H31.8505C32.3623 23.7939 32.7916 24.1804 32.845 24.6895L35.0672 45.8484C35.1052 46.21 34.9439 46.5637 34.6461 46.7721L30.5275 49.6552C30.186 49.8942 29.7319 49.8963 29.3882 49.6604L25.1814 46.7734C24.8772 46.5646 24.7126 46.2054 24.7533 45.8387Z" fill="#F8F9FA" stroke="#212529" stroke-width="1.8" stroke-linejoin="round"/>
<rect x="23.5684" y="20.1523" width="12.7452" height="3.64215" rx="1" fill="#FF6B6B" stroke="#212529" stroke-width="1.6" stroke-linejoin="round"/>
<g style="mix-blend-mode:multiply">
<path fill-rule="evenodd" clip-rule="evenodd" d="M34.2615 23.4081H35.7427V16.4903C35.7427 13.1997 33.0752 10.5322 29.7847 10.5322C29.5339 10.5322 29.2867 10.5477 29.0441 10.5778C31.9851 10.9424 34.2615 13.4505 34.2615 16.4903V23.4081Z" fill="#DEE2E6"/>
</g>
</svg>
