<svg width="60" height="60" viewBox="0 0 60 60" fill="none" xmlns="http://www.w3.org/2000/svg">
<mask id="path-1-outside-1_50_6059" maskUnits="userSpaceOnUse" x="7.63086" y="6.52441" width="45" height="49" fill="black">
<rect fill="white" x="7.63086" y="6.52441" width="45" height="49"/>
<path fill-rule="evenodd" clip-rule="evenodd" d="M21.809 8.52441C18.0064 8.52441 14.9327 10.03 12.8233 12.4936C10.7275 14.9413 9.63086 18.276 9.63086 21.8886C9.63086 28.2731 13.3693 33.768 19.2723 34.9967L18.6007 36.5306C18.5221 36.7101 18.5393 36.9171 18.6466 37.081C18.7538 37.245 18.9365 37.3439 19.1324 37.3439H20.4787C20.3112 37.7645 20.1455 38.2136 19.9971 38.6706C19.6642 39.696 19.3845 40.8622 19.432 41.861C19.4891 43.0601 19.9462 44.2295 20.3175 45.1793L20.3252 45.199C20.7332 46.2427 21.0138 46.9847 21.0138 47.5939C21.0138 48.4632 20.2929 49.7816 17.707 50.8899C17.2159 51.1003 16.9884 51.6691 17.1989 52.1602C17.4093 52.6513 17.9781 52.8788 18.4692 52.6683C21.3337 51.4407 22.9486 49.6185 22.9486 47.5939C22.9486 46.5898 22.5299 45.5217 22.1799 44.6288L22.1273 44.4946C21.7329 43.4855 21.4045 42.6054 21.3647 41.769C21.3344 41.1326 21.5217 40.2408 21.8374 39.2681C22.058 38.5886 22.3249 37.9184 22.5743 37.3439H24.5089C24.7068 37.3439 24.8911 37.243 24.9978 37.0762C25.1045 36.9095 25.1189 36.6999 25.0359 36.5202L24.3339 34.9992C26.5976 34.5304 28.5434 33.4345 30.0828 31.9016C31.6174 34.203 33.9044 35.8806 36.7389 36.4887L36.1622 37.8059C36.0836 37.9854 36.1008 38.1924 36.208 38.3564C36.3153 38.5204 36.498 38.6192 36.6939 38.6192H38.4092C38.5448 40.2403 38.5955 41.9657 38.5333 43.2722C38.4976 44.0219 38.2028 44.8146 37.841 45.7404L37.7912 45.8674C37.4723 46.6805 37.0837 47.6714 37.0837 48.6064C37.0837 50.5081 38.5995 52.1968 41.2326 53.3253C41.7237 53.5358 42.2924 53.3083 42.5029 52.8172C42.7134 52.3261 42.4859 51.7573 41.9948 51.5469C39.6403 50.5378 39.0186 49.3527 39.0186 48.6064C39.0186 48.0678 39.2677 47.4051 39.643 46.4448L39.652 46.4219C39.9906 45.5557 40.413 44.4751 40.4659 43.3642C40.5309 41.9994 40.4816 40.2576 40.3506 38.6192H41.6137C41.8117 38.6192 41.996 38.5183 42.1027 38.3516C42.2094 38.1848 42.2237 37.9752 42.1408 37.7955L41.5385 36.4906C46.9507 35.3342 50.3691 30.2801 50.3691 24.4273C50.3691 21.1054 49.3607 18.0339 47.428 15.7767C45.4818 13.5037 42.6461 12.1159 39.1431 12.1159C36.3642 12.1159 34.0052 12.9893 32.1771 14.4851C31.7797 13.7722 31.3184 13.1052 30.7947 12.4936C28.6853 10.03 25.6115 8.52441 21.809 8.52441Z"/>
</mask>
<path fill-rule="evenodd" clip-rule="evenodd" d="M21.809 8.52441C18.0064 8.52441 14.9327 10.03 12.8233 12.4936C10.7275 14.9413 9.63086 18.276 9.63086 21.8886C9.63086 28.2731 13.3693 33.768 19.2723 34.9967L18.6007 36.5306C18.5221 36.7101 18.5393 36.9171 18.6466 37.081C18.7538 37.245 18.9365 37.3439 19.1324 37.3439H20.4787C20.3112 37.7645 20.1455 38.2136 19.9971 38.6706C19.6642 39.696 19.3845 40.8622 19.432 41.861C19.4891 43.0601 19.9462 44.2295 20.3175 45.1793L20.3252 45.199C20.7332 46.2427 21.0138 46.9847 21.0138 47.5939C21.0138 48.4632 20.2929 49.7816 17.707 50.8899C17.2159 51.1003 16.9884 51.6691 17.1989 52.1602C17.4093 52.6513 17.9781 52.8788 18.4692 52.6683C21.3337 51.4407 22.9486 49.6185 22.9486 47.5939C22.9486 46.5898 22.5299 45.5217 22.1799 44.6288L22.1273 44.4946C21.7329 43.4855 21.4045 42.6054 21.3647 41.769C21.3344 41.1326 21.5217 40.2408 21.8374 39.2681C22.058 38.5886 22.3249 37.9184 22.5743 37.3439H24.5089C24.7068 37.3439 24.8911 37.243 24.9978 37.0762C25.1045 36.9095 25.1189 36.6999 25.0359 36.5202L24.3339 34.9992C26.5976 34.5304 28.5434 33.4345 30.0828 31.9016C31.6174 34.203 33.9044 35.8806 36.7389 36.4887L36.1622 37.8059C36.0836 37.9854 36.1008 38.1924 36.208 38.3564C36.3153 38.5204 36.498 38.6192 36.6939 38.6192H38.4092C38.5448 40.2403 38.5955 41.9657 38.5333 43.2722C38.4976 44.0219 38.2028 44.8146 37.841 45.7404L37.7912 45.8674C37.4723 46.6805 37.0837 47.6714 37.0837 48.6064C37.0837 50.5081 38.5995 52.1968 41.2326 53.3253C41.7237 53.5358 42.2924 53.3083 42.5029 52.8172C42.7134 52.3261 42.4859 51.7573 41.9948 51.5469C39.6403 50.5378 39.0186 49.3527 39.0186 48.6064C39.0186 48.0678 39.2677 47.4051 39.643 46.4448L39.652 46.4219C39.9906 45.5557 40.413 44.4751 40.4659 43.3642C40.5309 41.9994 40.4816 40.2576 40.3506 38.6192H41.6137C41.8117 38.6192 41.996 38.5183 42.1027 38.3516C42.2094 38.1848 42.2237 37.9752 42.1408 37.7955L41.5385 36.4906C46.9507 35.3342 50.3691 30.2801 50.3691 24.4273C50.3691 21.1054 49.3607 18.0339 47.428 15.7767C45.4818 13.5037 42.6461 12.1159 39.1431 12.1159C36.3642 12.1159 34.0052 12.9893 32.1771 14.4851C31.7797 13.7722 31.3184 13.1052 30.7947 12.4936C28.6853 10.03 25.6115 8.52441 21.809 8.52441Z" fill="#F8F9FA"/>
<path d="M12.8233 12.4936L13.9627 13.4692L12.8233 12.4936ZM19.2723 34.9967L20.6463 35.5984C20.8276 35.1843 20.8126 34.7105 20.6052 34.3088C20.3979 33.9071 20.0205 33.6203 19.578 33.5282L19.2723 34.9967ZM18.6007 36.5306L19.9747 37.1322L19.9747 37.1322L18.6007 36.5306ZM18.6466 37.081L19.902 36.2602L19.902 36.2602L18.6466 37.081ZM20.4787 37.3439L21.8723 37.8985C22.0562 37.4365 21.9992 36.9134 21.72 36.5019C21.4409 36.0903 20.9759 35.8439 20.4787 35.8439V37.3439ZM19.9971 38.6706L18.5704 38.2075L18.5704 38.2075L19.9971 38.6706ZM19.432 41.861L17.9337 41.9323L17.9337 41.9323L19.432 41.861ZM20.3175 45.1793L21.7146 44.6333L21.7146 44.6332L20.3175 45.1793ZM20.3252 45.199L18.9282 45.7451L18.9282 45.7451L20.3252 45.199ZM17.707 50.8899L17.1161 49.5112L17.1161 49.5112L17.707 50.8899ZM17.1989 52.1602L18.5776 51.5693L18.5776 51.5693L17.1989 52.1602ZM18.4692 52.6683L17.8783 51.2896L17.8783 51.2896L18.4692 52.6683ZM22.1799 44.6288L20.7832 45.1758L20.7833 45.1763L22.1799 44.6288ZM22.1273 44.4946L20.7303 45.0407L20.7306 45.0417L22.1273 44.4946ZM21.3647 41.769L22.863 41.6976L22.863 41.6976L21.3647 41.769ZM21.8374 39.2681L23.2641 39.7313L21.8374 39.2681ZM22.5743 37.3439V35.8439C21.9768 35.8439 21.4363 36.1985 21.1983 36.7465L22.5743 37.3439ZM24.9978 37.0762L23.7343 36.2678L23.7343 36.2678L24.9978 37.0762ZM25.0359 36.5202L26.3978 35.8916L26.3978 35.8916L25.0359 36.5202ZM24.3339 34.9992L24.0297 33.5303C23.5818 33.6231 23.2006 33.9153 22.9946 34.3237C22.7886 34.7322 22.7803 35.2124 22.972 35.6278L24.3339 34.9992ZM30.0828 31.9016L31.3308 31.0695C31.0818 30.696 30.6787 30.4537 30.2321 30.4091C29.7855 30.3644 29.3424 30.522 29.0244 30.8387L30.0828 31.9016ZM36.7389 36.4887L38.113 37.0904C38.2936 36.6778 38.2793 36.2058 38.074 35.8049C37.8686 35.404 37.494 35.1166 37.0536 35.0221L36.7389 36.4887ZM36.1622 37.8059L37.5362 38.4076L37.5362 38.4076L36.1622 37.8059ZM36.208 38.3564L34.9526 39.1772L34.9526 39.1772L36.208 38.3564ZM38.4092 38.6192L39.904 38.4942C39.839 37.7169 39.1892 37.1192 38.4092 37.1192V38.6192ZM38.5333 43.2722L37.035 43.2009L37.035 43.2009L38.5333 43.2722ZM37.841 45.7404L39.2376 46.2875L39.238 46.2865L37.841 45.7404ZM37.7912 45.8674L39.1877 46.415L39.1879 46.4145L37.7912 45.8674ZM41.2326 53.3253L40.6417 54.704L40.6417 54.704L41.2326 53.3253ZM42.5029 52.8172L43.8816 53.4081L43.8816 53.408L42.5029 52.8172ZM41.9948 51.5469L41.4039 52.9256L41.4039 52.9256L41.9948 51.5469ZM39.643 46.4448L38.246 45.8987L38.246 45.8987L39.643 46.4448ZM39.652 46.4219L41.0491 46.968L41.0491 46.968L39.652 46.4219ZM40.4659 43.3642L41.9642 43.4356L41.9642 43.4356L40.4659 43.3642ZM40.3506 38.6192V37.1192C39.9319 37.1192 39.5324 37.2941 39.2484 37.6017C38.9645 37.9093 38.822 38.3215 38.8553 38.7388L40.3506 38.6192ZM42.1027 38.3516L40.8392 37.5431L40.8392 37.5432L42.1027 38.3516ZM42.1408 37.7955L43.5027 37.1669L43.5027 37.1669L42.1408 37.7955ZM41.5385 36.4906L41.2251 35.0237C40.7793 35.119 40.401 35.4117 40.1971 35.8194C39.9931 36.227 39.9856 36.7053 40.1766 37.1192L41.5385 36.4906ZM47.428 15.7767L48.5674 14.8011L48.5674 14.8011L47.428 15.7767ZM32.1771 14.4851L30.8669 15.2154C31.0831 15.6033 31.4601 15.8755 31.8964 15.9586C32.3326 16.0417 32.7833 15.9272 33.127 15.646L32.1771 14.4851ZM30.7947 12.4936L31.9341 11.518L31.9341 11.518L30.7947 12.4936ZM13.9627 13.4692C15.7797 11.3471 18.4331 10.0244 21.809 10.0244V7.02441C17.5798 7.02441 14.0856 8.71296 11.6839 11.518L13.9627 13.4692ZM11.1309 21.8886C11.1309 18.5694 12.1383 15.5999 13.9627 13.4692L11.6839 11.518C9.31664 14.2827 8.13086 17.9826 8.13086 21.8886H11.1309ZM19.578 33.5282C14.5147 32.4743 11.1309 27.7207 11.1309 21.8886H8.13086C8.13086 28.8254 12.2239 35.0617 18.9666 36.4653L19.578 33.5282ZM19.9747 37.1322L20.6463 35.5984L17.8982 34.3951L17.2266 35.9289L19.9747 37.1322ZM19.902 36.2602C20.0719 36.52 20.0992 36.8479 19.9747 37.1322L17.2266 35.9289C16.945 36.5722 17.0068 37.3141 17.3911 37.9019L19.902 36.2602ZM19.1324 35.8439C19.4428 35.8439 19.7322 36.0004 19.902 36.2602L17.3911 37.9019C17.7753 38.4896 18.4302 38.8439 19.1324 38.8439V35.8439ZM20.4787 35.8439H19.1324V38.8439H20.4787V35.8439ZM21.4238 39.1338C21.5603 38.7134 21.7144 38.2953 21.8723 37.8985L19.085 36.7892C18.908 37.2338 18.7307 37.7138 18.5704 38.2075L21.4238 39.1338ZM20.9303 41.7896C20.8961 41.0715 21.1044 40.1177 21.4238 39.1338L18.5704 38.2075C18.224 39.2744 17.8728 40.653 17.9337 41.9323L20.9303 41.7896ZM21.7146 44.6332C21.3286 43.6458 20.9738 42.7032 20.9303 41.7896L17.9337 41.9323C18.0044 43.4171 18.5639 44.8132 18.9205 45.7254L21.7146 44.6332ZM21.7223 44.653L21.7146 44.6333L18.9204 45.7254L18.9282 45.7451L21.7223 44.653ZM22.5138 47.5939C22.5138 47.0714 22.3952 46.5684 22.2556 46.1166C22.1155 45.6631 21.9225 45.165 21.7223 44.653L18.9282 45.7451C19.1359 46.2767 19.2872 46.6715 19.3893 47.0022C19.492 47.3346 19.5138 47.5072 19.5138 47.5939H22.5138ZM18.2979 52.2686C21.1095 51.0636 22.5138 49.3519 22.5138 47.5939H19.5138C19.5138 47.6032 19.5097 47.8111 19.2 48.1659C18.8849 48.5269 18.2671 49.0179 17.1161 49.5112L18.2979 52.2686ZM18.5776 51.5693C18.6934 51.8397 18.5682 52.1527 18.2979 52.2686L17.1161 49.5112C15.8636 50.048 15.2833 51.4985 15.8201 52.7511L18.5776 51.5693ZM17.8783 51.2896C18.1486 51.1737 18.4617 51.299 18.5776 51.5693L15.8201 52.7511C16.3569 54.0036 17.8075 54.5838 19.06 54.047L17.8783 51.2896ZM21.4486 47.5939C21.4486 48.7183 20.5333 50.1517 17.8783 51.2896L19.06 54.047C22.1341 52.7296 24.4486 50.5188 24.4486 47.5939H21.4486ZM20.7833 45.1763C21.1583 46.1327 21.4486 46.9261 21.4486 47.5939H24.4486C24.4486 46.2535 23.9016 44.9107 23.5764 44.0813L20.7833 45.1763ZM20.7306 45.0417L20.7832 45.1758L23.5766 44.0817L23.524 43.9476L20.7306 45.0417ZM19.8664 41.8403C19.92 42.9655 20.354 44.078 20.7303 45.0407L23.5244 43.9485C23.1118 42.893 22.8891 42.2453 22.863 41.6976L19.8664 41.8403ZM20.4107 38.8049C20.082 39.8176 19.8227 40.9226 19.8664 41.8403L22.863 41.6976C22.8461 41.3427 22.9614 40.6639 23.2641 39.7313L20.4107 38.8049ZM21.1983 36.7465C20.9362 37.3503 20.6503 38.0669 20.4107 38.8049L23.2641 39.7313C23.4658 39.1102 23.7135 38.4864 23.9502 37.9412L21.1983 36.7465ZM24.5089 35.8439H22.5743V38.8439H24.5089V35.8439ZM23.7343 36.2678C23.9033 36.0037 24.1953 35.8439 24.5089 35.8439V38.8439C25.2184 38.8439 25.8789 38.4823 26.2613 37.8847L23.7343 36.2678ZM23.674 37.1487C23.5426 36.864 23.5653 36.532 23.7343 36.2678L26.2613 37.8847C26.6437 37.2871 26.6952 36.5358 26.3978 35.8916L23.674 37.1487ZM22.972 35.6278L23.674 37.1487L26.3978 35.8916L25.6959 34.3706L22.972 35.6278ZM29.0244 30.8387C27.6838 32.1736 25.9973 33.1229 24.0297 33.5303L24.6381 36.468C27.1979 35.9379 29.4031 34.6953 31.1412 32.9645L29.0244 30.8387ZM37.0536 35.0221C34.63 34.5022 32.6658 33.0716 31.3308 31.0695L28.8348 32.7338C30.5689 35.3344 33.1787 37.2591 36.4243 37.9554L37.0536 35.0221ZM37.5362 38.4076L38.113 37.0904L35.3649 35.8871L34.7881 37.2043L37.5362 38.4076ZM37.4635 37.5356C37.6334 37.7953 37.6607 38.1232 37.5362 38.4076L34.7881 37.2043C34.5064 37.8475 34.5683 38.5895 34.9526 39.1772L37.4635 37.5356ZM36.6939 37.1192C37.0043 37.1192 37.2937 37.2758 37.4635 37.5355L34.9526 39.1772C35.3368 39.765 35.9917 40.1192 36.6939 40.1192V37.1192ZM38.4092 37.1192H36.6939V40.1192H38.4092V37.1192ZM40.0316 43.3436C40.0977 41.954 40.0434 40.1604 39.904 38.4942L36.9145 38.7442C37.0463 40.3203 37.0932 41.9773 37.035 43.2009L40.0316 43.3436ZM39.238 46.2865C39.5816 45.4074 39.9821 44.382 40.0316 43.3436L37.035 43.2009C37.013 43.6617 36.824 44.2218 36.4439 45.1943L39.238 46.2865ZM39.1879 46.4145L39.2376 46.2875L36.4443 45.1933L36.3946 45.3202L39.1879 46.4145ZM38.5837 48.6064C38.5837 48.0072 38.8446 47.2898 39.1877 46.415L36.3947 45.3197C36.1001 46.0711 35.5837 47.3355 35.5837 48.6064H38.5837ZM41.8235 51.9466C39.3994 50.9077 38.5837 49.6075 38.5837 48.6064H35.5837C35.5837 51.4087 37.7996 53.486 40.6417 54.704L41.8235 51.9466ZM41.1242 52.2263C41.24 51.9559 41.5531 51.8307 41.8235 51.9466L40.6417 54.704C41.8943 55.2408 43.3448 54.6606 43.8816 53.4081L41.1242 52.2263ZM41.4039 52.9256C41.1335 52.8097 41.0083 52.4966 41.1242 52.2263L43.8816 53.408C44.4184 52.1555 43.8382 50.705 42.5856 50.1682L41.4039 52.9256ZM37.5186 48.6064C37.5186 50.2407 38.8226 51.8193 41.4039 52.9256L42.5857 50.1682C40.458 49.2563 40.5186 48.4648 40.5186 48.6064H37.5186ZM38.246 45.8987C38.0618 46.3698 37.8851 46.8265 37.757 47.2405C37.6297 47.6524 37.5186 48.1184 37.5186 48.6064H40.5186C40.5186 48.5558 40.5321 48.4212 40.6231 48.1269C40.7134 47.8349 40.8489 47.4801 41.0401 46.9909L38.246 45.8987ZM38.255 45.8757L38.246 45.8987L41.0401 46.9909L41.0491 46.968L38.255 45.8757ZM38.9676 43.2929C38.9283 44.1185 38.6078 44.973 38.255 45.8757L41.0491 46.968C41.3734 46.1383 41.8978 44.8316 41.9642 43.4356L38.9676 43.2929ZM38.8553 38.7388C38.9829 40.3335 39.0288 42.0089 38.9676 43.2929L41.9642 43.4356C42.0331 41.9899 41.9803 40.1817 41.8458 38.4996L38.8553 38.7388ZM41.6137 37.1192H40.3506V40.1192H41.6137V37.1192ZM40.8392 37.5432C41.0082 37.279 41.3002 37.1192 41.6137 37.1192V40.1192C42.3232 40.1192 42.9838 39.7576 43.3662 39.16L40.8392 37.5432ZM40.7788 38.4241C40.6474 38.1394 40.6702 37.8073 40.8392 37.5431L43.3662 39.16C43.7486 38.5624 43.8 37.8111 43.5027 37.1669L40.7788 38.4241ZM40.1766 37.1192L40.7788 38.4241L43.5027 37.1669L42.9005 35.862L40.1766 37.1192ZM48.8691 24.4273C48.8691 29.7298 45.8022 34.0457 41.2251 35.0237L41.852 37.9575C48.0991 36.6226 51.8691 30.8304 51.8691 24.4273H48.8691ZM46.2886 16.7523C47.9499 18.6925 48.8691 21.3987 48.8691 24.4273H51.8691C51.8691 20.812 50.7715 17.3753 48.5674 14.8011L46.2886 16.7523ZM39.1431 13.6159C42.2194 13.6159 44.6348 14.8207 46.2886 16.7523L48.5674 14.8011C46.3288 12.1866 43.0727 10.6159 39.1431 10.6159V13.6159ZM33.127 15.646C34.6737 14.3804 36.6928 13.6159 39.1431 13.6159V10.6159C36.0356 10.6159 33.3367 11.5981 31.2272 13.3242L33.127 15.646ZM29.6553 13.4692C30.1115 14.002 30.5162 14.5863 30.8669 15.2154L33.4872 13.7547C33.0432 12.9581 32.5253 12.2084 31.9341 11.518L29.6553 13.4692ZM21.809 10.0244C25.1849 10.0244 27.8383 11.3471 29.6553 13.4692L31.9341 11.518C29.5323 8.71296 26.0382 7.02441 21.809 7.02441V10.0244Z" fill="#F8F9FA" mask="url(#path-1-outside-1_50_6059)"/>
<path d="M33.016 21.887C33.016 28.7336 28.5031 34.2838 21.8053 34.2838C15.1075 34.2838 10.5946 28.7336 10.5946 21.887C10.5946 15.0405 14.7507 9.49023 21.8053 9.49023C28.8599 9.49023 33.016 15.0405 33.016 21.887Z" fill="#FF6B6B" stroke="#212529" stroke-width="1.6" stroke-linejoin="round"/>
<g style="mix-blend-mode:multiply" opacity="0.5">
<path d="M27.0063 23.1817C27.2336 19.1471 29.7055 15.8655 30.913 14.729L32.4756 16.7179C31.789 18.1622 30.3447 21.4769 30.0606 23.1817C29.7764 24.8864 30.5105 28.0591 30.913 29.4324L28.9241 31.2082C28.1901 30.2137 26.779 27.2162 27.0063 23.1817Z" fill="#FF6B6B"/>
</g>
<path d="M21.9775 36.3022C21.3287 37.6973 20.3168 40.1784 20.3946 41.8135C20.492 43.8573 21.9775 45.9282 21.9775 47.5924C21.9775 49.0393 20.8096 50.6096 18.0844 51.7776" stroke="#212529" stroke-width="2" stroke-linecap="round" stroke-linejoin="round"/>
<path d="M19.1288 36.7615L20.2026 34.3091H23.3734L24.5053 36.7615H19.1288Z" fill="#FF6B6B" stroke="#212529" stroke-width="1.2" stroke-linejoin="round"/>
<path d="M49.398 24.4255C49.398 30.6905 45.2684 35.7694 39.1394 35.7694C33.0104 35.7694 28.8809 30.6905 28.8809 24.4255C28.8809 18.1604 32.6839 13.0815 39.1394 13.0815C45.5949 13.0815 49.398 18.1604 49.398 24.4255Z" fill="#FFE066" stroke="#212529" stroke-width="1.6" stroke-linejoin="round"/>
<g style="mix-blend-mode:multiply">
<path fill-rule="evenodd" clip-rule="evenodd" d="M38.749 34.9898C44.0552 34.6192 47.5795 30.0526 47.5795 24.4736C47.5795 18.883 44.3203 14.3089 38.749 13.9551C38.979 13.9405 39.2128 13.9331 39.4506 13.9331C45.4489 13.9331 48.9826 18.6523 48.9826 24.4736C48.9826 30.295 45.1455 35.0141 39.4506 35.0141C39.2135 35.0141 38.9796 35.0059 38.749 34.9898Z" fill="#FFE066"/>
</g>
<path d="M39.3248 38.0371C39.4959 39.8261 39.5671 41.8205 39.4959 43.3167C39.4069 45.187 38.0475 47.082 38.0475 48.6048C38.0475 49.9288 39.1162 51.3658 41.61 52.4345" stroke="#212529" stroke-width="2" stroke-linecap="round" stroke-linejoin="round"/>
<path d="M36.6902 38.0371L37.6728 35.793H40.5743L41.61 38.0371H36.6902Z" fill="#FFE066" stroke="#212529" stroke-width="1.2" stroke-linejoin="round"/>
<g style="mix-blend-mode:soft-light" opacity="0.8">
<path d="M17.1416 13.1001C16.3584 12.9541 15.114 14.3971 14.3891 15.5755C13.6478 16.7806 12.747 18.7304 13.5156 19.0639C14.2841 19.3974 15.4913 16.911 15.7296 16.2513C16.3012 15.0323 17.9249 13.2461 17.1416 13.1001Z" fill="#F8F9FA"/>
</g>
<g style="mix-blend-mode:soft-light" opacity="0.8">
<path d="M35.7989 16.1113C35.0156 15.9653 33.7712 17.4083 33.0463 18.5867C32.305 19.7918 31.4042 21.7416 32.1728 22.0751C32.9414 22.4087 34.1485 19.9223 34.3869 19.2625C34.9584 18.0435 36.5821 16.2573 35.7989 16.1113Z" fill="#F8F9FA"/>
</g>
</svg>
