<svg width="60" height="59" viewBox="0 0 60 59" fill="none" xmlns="http://www.w3.org/2000/svg">
<mask id="path-1-outside-1_50_9547" maskUnits="userSpaceOnUse" x="3.96466" y="9.28215" width="53.0494" height="42.113" fill="black">
<rect fill="white" x="3.96466" y="9.28215" width="53.0494" height="42.113"/>
<path fill-rule="evenodd" clip-rule="evenodd" d="M44.0021 12.2546C43.5889 12.0503 43.0882 12.1912 42.8421 12.581L40.5946 16.1419C40.4593 16.3564 40.4207 16.6182 40.4884 16.8626C40.5562 17.1071 40.7239 17.3116 40.9504 17.4259L41.148 17.5255C39.2921 19.61 36.5035 22.2763 33.0912 24.4789C29.1845 27.0006 24.5253 28.8734 19.5446 28.649C16.8417 28.5272 14.443 28.7784 11.8186 29.2463C11.7483 29.2162 11.6739 29.195 11.5969 29.1836L9.52775 28.8768C9.11772 28.816 8.71919 29.0431 8.56251 29.4269L7.62338 31.7271C7.46954 32.1039 7.58774 32.5371 7.91165 32.7836L9.66371 34.1166C11.1482 36.3987 13.2811 38.779 15.8123 40.2389L15.7208 41.9865C15.7051 42.2852 15.8389 42.5722 16.0778 42.7522C18.6658 44.7033 21.1611 46.2175 24.055 47.0208C26.549 47.7131 30.0706 47.6416 33.4446 47.0077C36.818 46.374 40.222 45.1448 42.4378 43.3748C50.5551 36.8908 51.1368 27.3824 50.2773 21.9626C50.3468 21.9544 50.4158 21.938 50.4827 21.9134C50.7167 21.8273 50.9046 21.6479 51.0014 21.418L52.66 17.4787C52.8447 17.0402 52.656 16.5336 52.2295 16.3227L44.0021 12.2546ZM45.7548 19.0975C45.7746 19.0046 45.8096 18.9133 45.8604 18.8273C46.1014 18.4193 46.6175 18.2681 47.0406 18.4815L49.7165 19.8311L50.6724 17.5608L43.9314 14.2276L42.6456 16.2648L42.9873 16.4372C43.2323 16.5608 43.4076 16.7894 43.4633 17.0582C43.5189 17.327 43.4489 17.6065 43.2731 17.8172C43.0514 18.083 42.8115 18.3625 42.554 18.653C43.22 18.7221 44.3948 18.8712 45.7548 19.0975ZM41.2606 20.0461C39.4026 21.9593 36.9521 24.1292 34.0674 25.9912C29.9765 28.6319 24.9472 30.6943 19.4636 30.4472C17.0341 30.3377 14.8545 30.5476 12.4358 30.9654L11.8726 32.1428L11.5001 33.6237C12.857 35.5879 14.6541 37.4789 16.6625 38.6511C17.7304 38.0112 18.9892 37.2618 20.2864 36.6176C21.7322 35.8995 23.2995 35.2735 24.775 35.0874C34.9492 33.8042 39.3587 25.376 41.2606 20.0461ZM18.6608 39.5577C19.435 39.1043 20.2541 38.6434 21.0871 38.2297C22.4742 37.5408 23.826 37.0213 25.0003 36.8732C36.3274 35.4446 41.0702 25.9962 43.0037 20.516C43.8033 20.6142 44.9361 20.7749 46.1673 20.9953C45.6878 23.4059 44.6289 26.8023 42.758 30.0674C40.4966 34.0139 37.0993 37.6853 32.1892 39.2773C27.332 40.8522 22.9269 41.0816 18.6608 39.5577ZM17.5711 41.0728C22.4558 42.9608 27.4369 42.7104 32.7444 40.9896C38.2217 39.2137 41.9233 35.1446 44.3198 30.9623C46.296 27.5134 47.4189 23.9311 47.9333 21.343C48.0738 21.3734 48.214 21.4045 48.3539 21.4364C49.345 26.2849 49.157 35.7039 41.3144 41.9684C39.4248 43.4779 36.348 44.6308 33.1123 45.2387C29.8772 45.8464 26.6612 45.8762 24.5364 45.2864C22.0872 44.6065 19.9039 43.3436 17.5435 41.6001L17.5711 41.0728ZM10.1709 31.5288L9.92123 32.0508L9.55061 31.7688L9.96211 30.7609L10.3496 30.8183L10.1709 31.5288Z"/>
</mask>
<path fill-rule="evenodd" clip-rule="evenodd" d="M44.0021 12.2546C43.5889 12.0503 43.0882 12.1912 42.8421 12.581L40.5946 16.1419C40.4593 16.3564 40.4207 16.6182 40.4884 16.8626C40.5562 17.1071 40.7239 17.3116 40.9504 17.4259L41.148 17.5255C39.2921 19.61 36.5035 22.2763 33.0912 24.4789C29.1845 27.0006 24.5253 28.8734 19.5446 28.649C16.8417 28.5272 14.443 28.7784 11.8186 29.2463C11.7483 29.2162 11.6739 29.195 11.5969 29.1836L9.52775 28.8768C9.11772 28.816 8.71919 29.0431 8.56251 29.4269L7.62338 31.7271C7.46954 32.1039 7.58774 32.5371 7.91165 32.7836L9.66371 34.1166C11.1482 36.3987 13.2811 38.779 15.8123 40.2389L15.7208 41.9865C15.7051 42.2852 15.8389 42.5722 16.0778 42.7522C18.6658 44.7033 21.1611 46.2175 24.055 47.0208C26.549 47.7131 30.0706 47.6416 33.4446 47.0077C36.818 46.374 40.222 45.1448 42.4378 43.3748C50.5551 36.8908 51.1368 27.3824 50.2773 21.9626C50.3468 21.9544 50.4158 21.938 50.4827 21.9134C50.7167 21.8273 50.9046 21.6479 51.0014 21.418L52.66 17.4787C52.8447 17.0402 52.656 16.5336 52.2295 16.3227L44.0021 12.2546ZM45.7548 19.0975C45.7746 19.0046 45.8096 18.9133 45.8604 18.8273C46.1014 18.4193 46.6175 18.2681 47.0406 18.4815L49.7165 19.8311L50.6724 17.5608L43.9314 14.2276L42.6456 16.2648L42.9873 16.4372C43.2323 16.5608 43.4076 16.7894 43.4633 17.0582C43.5189 17.327 43.4489 17.6065 43.2731 17.8172C43.0514 18.083 42.8115 18.3625 42.554 18.653C43.22 18.7221 44.3948 18.8712 45.7548 19.0975ZM41.2606 20.0461C39.4026 21.9593 36.9521 24.1292 34.0674 25.9912C29.9765 28.6319 24.9472 30.6943 19.4636 30.4472C17.0341 30.3377 14.8545 30.5476 12.4358 30.9654L11.8726 32.1428L11.5001 33.6237C12.857 35.5879 14.6541 37.4789 16.6625 38.6511C17.7304 38.0112 18.9892 37.2618 20.2864 36.6176C21.7322 35.8995 23.2995 35.2735 24.775 35.0874C34.9492 33.8042 39.3587 25.376 41.2606 20.0461ZM18.6608 39.5577C19.435 39.1043 20.2541 38.6434 21.0871 38.2297C22.4742 37.5408 23.826 37.0213 25.0003 36.8732C36.3274 35.4446 41.0702 25.9962 43.0037 20.516C43.8033 20.6142 44.9361 20.7749 46.1673 20.9953C45.6878 23.4059 44.6289 26.8023 42.758 30.0674C40.4966 34.0139 37.0993 37.6853 32.1892 39.2773C27.332 40.8522 22.9269 41.0816 18.6608 39.5577ZM17.5711 41.0728C22.4558 42.9608 27.4369 42.7104 32.7444 40.9896C38.2217 39.2137 41.9233 35.1446 44.3198 30.9623C46.296 27.5134 47.4189 23.9311 47.9333 21.343C48.0738 21.3734 48.214 21.4045 48.3539 21.4364C49.345 26.2849 49.157 35.7039 41.3144 41.9684C39.4248 43.4779 36.348 44.6308 33.1123 45.2387C29.8772 45.8464 26.6612 45.8762 24.5364 45.2864C22.0872 44.6065 19.9039 43.3436 17.5435 41.6001L17.5711 41.0728ZM10.1709 31.5288L9.92123 32.0508L9.55061 31.7688L9.96211 30.7609L10.3496 30.8183L10.1709 31.5288Z" fill="#F8F9FA"/>
<path d="M42.8421 12.581L41.5737 11.7804L41.5737 11.7804L42.8421 12.581ZM44.0021 12.2546L43.3373 13.5992L43.3373 13.5992L44.0021 12.2546ZM40.5946 16.1419L39.3262 15.3413L39.3262 15.3413L40.5946 16.1419ZM40.4884 16.8626L41.9339 16.462L41.9339 16.462L40.4884 16.8626ZM40.9504 17.4259L41.6259 16.0866L41.6259 16.0866L40.9504 17.4259ZM41.148 17.5255L42.2683 18.5229C42.5781 18.1749 42.7087 17.7027 42.6215 17.245C42.5344 16.7873 42.2395 16.396 41.8235 16.1862L41.148 17.5255ZM33.0912 24.4789L33.9047 25.7392L33.9047 25.7392L33.0912 24.4789ZM19.5446 28.649L19.6121 27.1505L19.6121 27.1505L19.5446 28.649ZM11.8186 29.2463L11.229 30.6255C11.4977 30.7404 11.7941 30.7743 12.0818 30.723L11.8186 29.2463ZM11.5969 29.1836L11.3769 30.6674L11.3769 30.6674L11.5969 29.1836ZM9.52775 28.8768L9.30773 30.3605L9.30773 30.3605L9.52775 28.8768ZM8.56251 29.4269L9.95123 29.9938L9.95123 29.9938L8.56251 29.4269ZM7.62338 31.7271L9.0121 32.2941L9.0121 32.2941L7.62338 31.7271ZM7.91165 32.7836L8.81992 31.5898L8.81992 31.5898L7.91165 32.7836ZM9.66371 34.1166L10.9211 33.2987C10.8272 33.1543 10.7091 33.0272 10.572 32.9229L9.66371 34.1166ZM15.8123 40.2389L17.3103 40.3174C17.3398 39.7539 17.0506 39.2215 16.5618 38.9396L15.8123 40.2389ZM15.7208 41.9865L14.2228 41.908L14.2228 41.908L15.7208 41.9865ZM16.0778 42.7522L16.9807 41.5545L16.9807 41.5545L16.0778 42.7522ZM24.055 47.0208L23.6538 48.4661L23.6538 48.4661L24.055 47.0208ZM33.4446 47.0077L33.7216 48.4819L33.7216 48.4819L33.4446 47.0077ZM42.4378 43.3748L43.374 44.5468L43.374 44.5468L42.4378 43.3748ZM50.2773 21.9626L50.1017 20.4729C49.6963 20.5207 49.3278 20.7316 49.0814 21.0571C48.835 21.3825 48.7318 21.7943 48.7958 22.1975L50.2773 21.9626ZM50.4827 21.9134L49.9647 20.5057L49.9647 20.5057L50.4827 21.9134ZM51.0014 21.418L52.3838 22.0001L52.3838 22.0001L51.0014 21.418ZM52.66 17.4787L54.0425 18.0608L54.0425 18.0608L52.66 17.4787ZM52.2295 16.3227L52.8943 14.9781L52.8943 14.9781L52.2295 16.3227ZM45.7548 19.0975L45.5086 20.5772C46.2999 20.7089 47.0548 20.1946 47.2219 19.41L45.7548 19.0975ZM45.8604 18.8273L44.5689 18.0643L44.5689 18.0643L45.8604 18.8273ZM47.0406 18.4815L46.3651 19.8208L46.3651 19.8208L47.0406 18.4815ZM49.7165 19.8311L49.041 21.1704C49.4122 21.3576 49.8444 21.3824 50.2345 21.2388C50.6246 21.0953 50.9376 20.7963 51.0989 20.4132L49.7165 19.8311ZM50.6724 17.5608L52.0549 18.1429C52.3626 17.412 52.0482 16.5678 51.3373 16.2162L50.6724 17.5608ZM43.9314 14.2276L44.5963 12.883C43.9076 12.5425 43.073 12.7774 42.6629 13.427L43.9314 14.2276ZM42.6456 16.2648L41.3771 15.4642C41.1515 15.8218 41.0872 16.258 41.2001 16.6654C41.313 17.0729 41.5926 17.4137 41.9701 17.6041L42.6456 16.2648ZM42.9873 16.4372L43.6628 15.0979L43.6627 15.0979L42.9873 16.4372ZM43.4633 17.0582L41.9944 17.3624L41.9944 17.3624L43.4633 17.0582ZM43.2731 17.8172L42.1212 16.8564L42.1212 16.8564L43.2731 17.8172ZM42.554 18.653L41.4314 17.6582C41.0585 18.079 40.9523 18.6729 41.1562 19.1969C41.36 19.7209 41.8398 20.0868 42.399 20.1449L42.554 18.653ZM41.2606 20.0461L42.6734 20.5502C42.9105 19.8856 42.6524 19.1455 42.0533 18.7726C41.4542 18.3997 40.6762 18.4948 40.1846 19.0011L41.2606 20.0461ZM34.0674 25.9912L34.8809 27.2515L34.8809 27.2515L34.0674 25.9912ZM19.4636 30.4472L19.5311 28.9487L19.5311 28.9487L19.4636 30.4472ZM12.4358 30.9654L12.1805 29.4873C11.7016 29.5701 11.2925 29.8797 11.0827 30.3181L12.4358 30.9654ZM11.8726 32.1428L10.5194 31.4955C10.4763 31.5857 10.4423 31.68 10.4179 31.777L11.8726 32.1428ZM11.5001 33.6237L10.0454 33.2579C9.94008 33.6768 10.0205 34.1209 10.266 34.4763L11.5001 33.6237ZM16.6625 38.6511L15.9063 39.9466C16.3789 40.2224 16.9641 40.219 17.4335 39.9378L16.6625 38.6511ZM20.2864 36.6176L20.9536 37.961L20.9536 37.961L20.2864 36.6176ZM24.775 35.0874L24.9627 36.5756L24.9627 36.5756L24.775 35.0874ZM18.6608 39.5577L17.9027 38.2634C17.3997 38.558 17.1129 39.1173 17.1673 39.6976C17.2216 40.278 17.6073 40.7743 18.1562 40.9703L18.6608 39.5577ZM21.0871 38.2297L20.4199 36.8863L20.4199 36.8863L21.0871 38.2297ZM25.0003 36.8732L25.1879 38.3614L25.1879 38.3614L25.0003 36.8732ZM43.0037 20.516L43.1866 19.0272C42.4878 18.9414 41.8234 19.3531 41.5892 20.0169L43.0037 20.516ZM46.1673 20.9953L47.6385 21.288C47.7171 20.8929 47.6334 20.4828 47.4064 20.15C47.1794 19.8173 46.8281 19.5898 46.4316 19.5188L46.1673 20.9953ZM42.758 30.0674L41.4565 29.3216L41.4565 29.3216L42.758 30.0674ZM32.1892 39.2773L32.6519 40.7042L32.6519 40.7042L32.1892 39.2773ZM32.7444 40.9896L33.207 42.4165L33.207 42.4165L32.7444 40.9896ZM17.5711 41.0728L18.1119 39.6737C17.6635 39.5004 17.1591 39.5525 16.7556 39.8139C16.3521 40.0753 16.0983 40.5142 16.0732 40.9943L17.5711 41.0728ZM44.3198 30.9623L45.6213 31.708L45.6213 31.708L44.3198 30.9623ZM47.9333 21.343L48.2509 19.877C47.8578 19.7918 47.4469 19.8681 47.1105 20.0888C46.7742 20.3095 46.5406 20.656 46.4621 21.0505L47.9333 21.343ZM48.3539 21.4364L49.8235 21.1359C49.7055 20.559 49.261 20.1045 48.6868 19.9738L48.3539 21.4364ZM41.3144 41.9684L42.2506 43.1404L42.2506 43.1404L41.3144 41.9684ZM33.1123 45.2387L32.8353 43.7644L32.8353 43.7644L33.1123 45.2387ZM24.5364 45.2864L24.1352 46.7317L24.1352 46.7317L24.5364 45.2864ZM17.5435 41.6001L16.0455 41.5216C16.0192 42.0247 16.2471 42.5074 16.6523 42.8067L17.5435 41.6001ZM9.92123 32.0508L9.01296 33.2445C9.37202 33.5177 9.83498 33.6148 10.2735 33.5088C10.7121 33.4028 11.0796 33.1051 11.2743 32.6981L9.92123 32.0508ZM10.1709 31.5288L11.5241 32.1762C11.5672 32.0859 11.6013 31.9916 11.6256 31.8946L10.1709 31.5288ZM9.55061 31.7688L8.16189 31.2018C7.90548 31.8299 8.10248 32.5518 8.64234 32.9625L9.55061 31.7688ZM9.96211 30.7609L10.1821 29.2771C9.49874 29.1757 8.83452 29.5543 8.57339 30.1939L9.96211 30.7609ZM10.3496 30.8183L11.8043 31.1842C11.9076 30.7733 11.8324 30.3379 11.5972 29.9855C11.362 29.6332 10.9887 29.3967 10.5696 29.3345L10.3496 30.8183ZM44.1106 13.3816C43.9466 13.6415 43.6128 13.7354 43.3373 13.5992L44.667 10.91C43.5651 10.3651 42.2297 10.7409 41.5737 11.7804L44.1106 13.3816ZM41.8631 16.9425L44.1106 13.3816L41.5737 11.7804L39.3262 15.3413L41.8631 16.9425ZM41.9339 16.462C41.9791 16.625 41.9534 16.7995 41.8631 16.9425L39.3262 15.3413C38.9651 15.9134 38.8622 16.6113 39.0429 17.2632L41.9339 16.462ZM41.6259 16.0866C41.7769 16.1627 41.8888 16.2991 41.9339 16.462L39.0429 17.2632C39.2236 17.9151 39.671 18.4605 40.275 18.7652L41.6259 16.0866ZM41.8235 16.1862L41.6259 16.0866L40.275 18.7652L40.4725 18.8648L41.8235 16.1862ZM33.9047 25.7392C37.4582 23.4455 40.3472 20.6807 42.2683 18.5229L40.0277 16.528C38.237 18.5392 35.5489 21.1072 32.2777 23.2187L33.9047 25.7392ZM19.4771 30.1475C24.8768 30.3908 29.8444 28.36 33.9047 25.7392L32.2777 23.2187C28.5246 25.6412 24.1738 27.3561 19.6121 27.1505L19.4771 30.1475ZM12.0818 30.723C14.6355 30.2678 16.918 30.0322 19.4771 30.1475L19.6121 27.1505C16.7654 27.0223 14.2505 27.2891 11.5553 27.7695L12.0818 30.723ZM12.4081 27.867C12.2207 27.7869 12.0222 27.7302 11.8169 27.6998L11.3769 30.6674C11.3256 30.6598 11.2759 30.6456 11.229 30.6255L12.4081 27.867ZM11.8169 27.6998L9.74777 27.393L9.30773 30.3605L11.3769 30.6674L11.8169 27.6998ZM9.74777 27.393C8.65435 27.2309 7.5916 27.8365 7.17379 28.8599L9.95123 29.9938C9.84678 30.2497 9.58109 30.4011 9.30773 30.3605L9.74777 27.393ZM7.17379 28.8599L6.23466 31.1602L9.0121 32.2941L9.95123 29.9938L7.17379 28.8599ZM6.23466 31.1602C5.82441 32.165 6.13961 33.3201 7.00339 33.9773L8.81992 31.5898C9.03586 31.7541 9.11466 32.0429 9.0121 32.2941L6.23466 31.1602ZM7.00339 33.9773L8.75545 35.3104L10.572 32.9229L8.81992 31.5898L7.00339 33.9773ZM16.5618 38.9396C14.3007 37.6355 12.3251 35.4571 10.9211 33.2987L8.40632 34.9345C9.97124 37.3403 12.2615 39.9226 15.0629 41.5383L16.5618 38.9396ZM14.3144 40.1604L14.2228 41.908L17.2187 42.065L17.3103 40.3174L14.3144 40.1604ZM14.2228 41.908C14.1811 42.7045 14.5378 43.4698 15.1748 43.95L16.9807 41.5545C17.14 41.6745 17.2292 41.8658 17.2187 42.065L14.2228 41.908ZM15.1748 43.95C17.8289 45.9509 20.4991 47.5905 23.6538 48.4661L24.4562 45.5754C21.8231 44.8445 19.5026 43.4556 16.9807 41.5545L15.1748 43.95ZM23.6538 48.4661C26.4555 49.2438 30.2317 49.1376 33.7216 48.4819L33.1677 45.5335C29.9094 46.1456 26.6426 46.1823 24.4562 45.5754L23.6538 48.4661ZM33.7216 48.4819C37.2097 47.8266 40.8863 46.534 43.374 44.5468L41.5017 42.2028C39.5576 43.7557 36.4263 44.9213 33.1676 45.5335L33.7216 48.4819ZM43.374 44.5468C52.0836 37.5897 52.6619 27.4222 51.7587 21.7276L48.7958 22.1975C49.6117 27.3425 49.0267 36.1919 41.5017 42.2028L43.374 44.5468ZM49.9647 20.5057C50.0092 20.4893 50.0552 20.4784 50.1017 20.4729L50.4528 23.4523C50.6384 23.4304 50.8224 23.3867 51.0007 23.3211L49.9647 20.5057ZM49.6189 20.8359C49.6834 20.6827 49.8087 20.5631 49.9647 20.5057L51.0006 23.3211C51.6248 23.0915 52.1257 22.6131 52.3838 22.0001L49.6189 20.8359ZM51.2776 16.8966L49.6189 20.8359L52.3838 22.0001L54.0425 18.0608L51.2776 16.8966ZM51.5646 17.6673C51.2802 17.5267 51.1545 17.189 51.2776 16.8966L54.0425 18.0608C54.5349 16.8913 54.0318 15.5406 52.8943 14.9781L51.5646 17.6673ZM43.3373 13.5992L51.5646 17.6673L52.8943 14.9781L44.667 10.91L43.3373 13.5992ZM47.2219 19.41C47.2084 19.4736 47.1847 19.5347 47.1519 19.5902L44.5689 18.0643C44.4345 18.2919 44.3409 18.5356 44.2877 18.7851L47.2219 19.41ZM47.1519 19.5902C46.9912 19.8622 46.6471 19.963 46.3651 19.8208L47.7161 17.1422C46.5878 16.5731 45.2117 16.9764 44.5689 18.0643L47.1519 19.5902ZM46.3651 19.8208L49.041 21.1704L50.392 18.4918L47.7161 17.1422L46.3651 19.8208ZM51.0989 20.4132L52.0549 18.1429L49.2899 16.9787L48.334 19.249L51.0989 20.4132ZM51.3373 16.2162L44.5963 12.883L43.2665 15.5722L50.0075 18.9054L51.3373 16.2162ZM42.6629 13.427L41.3771 15.4642L43.9141 17.0654L45.1999 15.0282L42.6629 13.427ZM41.9701 17.6041L42.3118 17.7765L43.6627 15.0979L43.3211 14.9255L41.9701 17.6041ZM42.3118 17.7765C42.1484 17.6941 42.0315 17.5416 41.9944 17.3624L44.9321 16.754C44.7836 16.0373 44.3163 15.4275 43.6628 15.0979L42.3118 17.7765ZM41.9944 17.3624C41.9573 17.1833 42.004 16.9969 42.1212 16.8564L44.425 18.778C44.8938 18.216 45.0805 17.4707 44.9321 16.754L41.9944 17.3624ZM42.1212 16.8564C41.9092 17.1106 41.679 17.3787 41.4314 17.6582L43.6767 19.6478C43.9439 19.3462 44.1936 19.0554 44.425 18.778L42.1212 16.8564ZM46.0011 17.6179C44.612 17.3867 43.4068 17.2335 42.7091 17.161L42.399 20.1449C43.0332 20.2108 44.1776 20.3557 45.5086 20.5772L46.0011 17.6179ZM40.1846 19.0011C38.3865 20.8525 36.0226 22.9438 33.2539 24.731L34.8809 27.2515C37.8816 25.3146 40.4187 23.066 42.3367 21.0911L40.1846 19.0011ZM33.2539 24.731C29.3164 27.2726 24.5956 29.1769 19.5311 28.9487L19.3961 31.9457C25.2989 32.2116 30.6365 29.9911 34.8809 27.2515L33.2539 24.731ZM19.5311 28.9487C16.964 28.833 14.6719 29.0569 12.1805 29.4873L12.6912 32.4435C15.0371 32.0383 17.1043 31.8424 19.3961 31.9457L19.5311 28.9487ZM11.0827 30.3181L10.5194 31.4955L13.2257 32.7902L13.789 31.6128L11.0827 30.3181ZM12.9548 33.9896L13.3273 32.5087L10.4179 31.777L10.0454 33.2579L12.9548 33.9896ZM10.266 34.4763C11.7037 36.5574 13.6508 38.6301 15.9063 39.9466L17.4186 37.3556C15.6573 36.3276 14.0104 34.6184 12.7343 32.7712L10.266 34.4763ZM19.6192 35.2741C18.2621 35.9481 16.9562 36.7264 15.8915 37.3644L17.4335 39.9378C18.5045 39.296 19.7163 38.5755 20.9536 37.961L19.6192 35.2741ZM24.5873 33.5992C22.8609 33.8169 21.114 34.5317 19.6192 35.2741L20.9536 37.961C22.3503 37.2674 23.7381 36.73 24.9627 36.5756L24.5873 33.5992ZM39.8479 19.542C37.9874 24.7556 33.8664 32.4289 24.5873 33.5992L24.9627 36.5756C36.032 35.1795 40.73 25.9964 42.6734 20.5502L39.8479 19.542ZM19.4188 40.8521C20.1796 40.4065 20.9654 39.9649 21.7543 39.5731L20.4199 36.8863C19.5429 37.3218 18.6904 37.802 17.9027 38.2634L19.4188 40.8521ZM21.7543 39.5731C23.0929 38.9083 24.265 38.4778 25.1879 38.3614L24.8126 35.385C23.3871 35.5648 21.8556 36.1732 20.4199 36.8863L21.7543 39.5731ZM25.1879 38.3614C37.418 36.819 42.4462 26.6044 44.4183 21.0151L41.5892 20.0169C39.6941 25.3881 35.2369 34.0703 24.8126 35.385L25.1879 38.3614ZM42.8209 22.0048C43.5968 22.1001 44.7022 22.2569 45.903 22.4718L46.4316 19.5188C45.17 19.2929 44.0097 19.1283 43.1866 19.0272L42.8209 22.0048ZM44.0595 30.8131C46.0248 27.3833 47.1332 23.8282 47.6385 21.288L44.6961 20.7027C44.2424 22.9835 43.233 26.2214 41.4565 29.3216L44.0595 30.8131ZM32.6519 40.7042C38.0344 38.959 41.6854 34.9564 44.0595 30.8131L41.4565 29.3216C39.3078 33.0715 36.1642 36.4117 31.7266 37.8505L32.6519 40.7042ZM18.1562 40.9703C22.8147 42.6343 27.5718 42.3513 32.6519 40.7042L31.7266 37.8505C27.0922 39.3531 23.039 39.5288 19.1653 38.1451L18.1562 40.9703ZM32.2818 39.5627C27.2072 41.208 22.5932 41.4058 18.1119 39.6737L17.0303 42.472C22.3184 44.5159 27.6666 44.2128 33.207 42.4165L32.2818 39.5627ZM43.0183 30.2165C40.7343 34.2026 37.2862 37.9401 32.2818 39.5627L33.207 42.4165C39.1571 40.4873 43.1124 36.0865 45.6213 31.708L43.0183 30.2165ZM46.4621 21.0505C45.9736 23.508 44.9004 26.9319 43.0183 30.2165L45.6213 31.708C47.6915 28.095 48.8641 24.3543 49.4046 21.6354L46.4621 21.0505ZM47.6158 22.809C47.7513 22.8383 47.8864 22.8683 48.0209 22.8989L48.6868 19.9738C48.5416 19.9407 48.3962 19.9085 48.2509 19.877L47.6158 22.809ZM46.8842 21.7368C47.8192 26.3103 47.5963 35.0307 40.3782 40.7964L42.2506 43.1404C50.7176 36.3771 50.8708 26.2595 49.8235 21.1359L46.8842 21.7368ZM40.3782 40.7964C38.7605 42.0887 35.9563 43.1781 32.8353 43.7644L33.3892 46.7129C36.7396 46.0834 40.0891 44.867 42.2506 43.1404L40.3782 40.7964ZM32.8353 43.7644C29.716 44.3505 26.7547 44.3454 24.9376 43.841L24.1352 46.7317C26.5678 47.4069 30.0384 47.3424 33.3892 46.7129L32.8353 43.7644ZM24.9376 43.841C22.7366 43.23 20.7225 42.0834 18.4347 40.3936L16.6523 42.8067C19.0853 44.6038 21.4378 45.9829 24.1352 46.7317L24.9376 43.841ZM19.0414 41.6786L19.0691 41.1513L16.0732 40.9943L16.0455 41.5216L19.0414 41.6786ZM11.2743 32.6981L11.5241 32.1762L8.81781 30.8815L8.5681 31.4034L11.2743 32.6981ZM10.8295 30.857L10.4589 30.575L8.64234 32.9625L9.01296 33.2445L10.8295 30.857ZM10.9393 32.3358L11.3508 31.3278L8.57339 30.1939L8.16189 31.2018L10.9393 32.3358ZM9.74209 32.2446L10.1296 32.3021L10.5696 29.3345L10.1821 29.2771L9.74209 32.2446ZM8.89491 30.4525L8.71623 31.163L11.6256 31.8946L11.8043 31.1842L8.89491 30.4525Z" fill="#F8F9FA" mask="url(#path-1-outside-1_50_9547)"/>
<path d="M16.5958 42.0821L16.7207 39.6997C19.0257 38.3199 22.2142 36.363 24.8639 36.0288C36.1202 34.6092 40.608 24.8772 42.3627 19.589C43.5021 19.7036 46.442 20.0938 49.0866 20.7385C50.2394 25.563 50.3843 35.905 41.8524 42.7202C37.7469 45.9996 28.8909 47.4842 24.272 46.2021C21.5346 45.4423 19.1442 44.0033 16.5958 42.0821Z" fill="#FFE066" stroke="#212529" stroke-width="1.8" stroke-linecap="round" stroke-linejoin="round"/>
<g style="mix-blend-mode:multiply">
<path d="M39.4059 39.2429C44.6334 35.5864 46.4696 28.8792 47.0687 24.5266C45.1109 29.9278 44.6004 31.5598 38.8207 37.612C35.5157 41.0728 29.4505 41.7689 26.0638 42.3464C28.4778 42.665 34.1784 42.8993 39.4059 39.2429Z" fill="#E9ECEF"/>
</g>
<path d="M9.37212 29.8152L11.4412 30.122L10.5373 33.7165L8.43299 32.1155L9.37212 29.8152Z" fill="#212529" stroke="#212529" stroke-width="1.8" stroke-linecap="round" stroke-linejoin="round"/>
<path fill-rule="evenodd" clip-rule="evenodd" d="M43.5796 13.1097L51.8069 17.1779L50.1482 21.1172L46.6116 19.3334C46.6415 19.3539 46.6716 19.3745 46.7019 19.3952C46.8814 19.518 47.0685 19.6461 47.264 19.7797C46.641 24.7008 42.8305 36.814 32.4432 40.1819C27.1683 41.8921 22.3158 42.0853 17.5787 40.1657C14.5646 38.9442 11.9566 36.1452 10.2497 33.4486L11.7999 30.2082C14.4435 29.73 16.8125 29.4763 19.4805 29.5965C29.9448 30.068 38.8573 21.7261 42.5583 17.2891L41.3321 16.6707L43.5796 13.1097Z" fill="#FFE066"/>
<path d="M51.8069 17.1779L52.6364 17.5272C52.821 17.0886 52.6324 16.5821 52.2058 16.3711L51.8069 17.1779ZM43.5796 13.1098L43.9785 12.303C43.5653 12.0987 43.0645 12.2396 42.8185 12.6294L43.5796 13.1098ZM50.1482 21.1172L49.7429 21.9208C49.9656 22.0331 50.2249 22.048 50.459 21.9618C50.6931 21.8757 50.8809 21.6963 50.9777 21.4664L50.1482 21.1172ZM46.6116 19.3335L47.0169 18.5299C46.5938 18.3165 46.0778 18.4677 45.8367 18.8757C45.5957 19.2837 45.7123 19.8086 46.1034 20.0762L46.6116 19.3335ZM46.7019 19.3953L46.1937 20.138L46.1937 20.138L46.7019 19.3953ZM47.264 19.7797L48.1569 19.8928C48.1993 19.5578 48.0506 19.2273 47.7719 19.0367L47.264 19.7797ZM32.4431 40.1819L32.1656 39.3258L32.1656 39.3258L32.4431 40.1819ZM17.5787 40.1657L17.9167 39.3316L17.9167 39.3316L17.5787 40.1657ZM10.2497 33.4486L9.4378 33.0602C9.3041 33.3397 9.32353 33.6683 9.48922 33.93L10.2497 33.4486ZM11.7999 30.2082L11.6398 29.3226C11.3553 29.374 11.1128 29.559 10.9881 29.8198L11.7999 30.2082ZM19.4804 29.5965L19.521 28.6974L19.521 28.6974L19.4804 29.5965ZM42.5583 17.2892L43.2494 17.8657C43.4252 17.6549 43.4953 17.3754 43.4396 17.1066C43.3839 16.8379 43.2087 16.6092 42.9636 16.4856L42.5583 17.2892ZM41.3321 16.6707L40.571 16.1903C40.4356 16.4049 40.397 16.6666 40.4648 16.9111C40.5325 17.1555 40.7003 17.3601 40.9268 17.4743L41.3321 16.6707ZM52.2058 16.3711L43.9785 12.303L43.1806 13.9165L51.408 17.9847L52.2058 16.3711ZM50.9777 21.4664L52.6364 17.5272L50.9774 16.8287L49.3188 20.7679L50.9777 21.4664ZM46.2063 20.1371L49.7429 21.9208L50.5535 20.3136L47.0169 18.5299L46.2063 20.1371ZM46.1034 20.0762C46.1332 20.0967 46.1633 20.1173 46.1937 20.138L47.2102 18.6525C47.1799 18.6318 47.1498 18.6112 47.1199 18.5907L46.1034 20.0762ZM46.1937 20.138C46.3731 20.2608 46.5604 20.389 46.7561 20.5228L47.7719 19.0367C47.5766 18.9033 47.3896 18.7753 47.2102 18.6525L46.1937 20.138ZM46.3711 19.6667C46.0728 22.0229 44.9978 26.1655 42.7343 30.1158C40.473 34.0624 37.0757 37.7338 32.1656 39.3258L32.7207 41.038C38.198 39.2621 41.8997 35.193 44.2961 31.0107C46.6904 26.8322 47.8322 22.4576 48.1569 19.8928L46.3711 19.6667ZM32.1656 39.3258C27.0344 40.9894 22.4079 41.1516 17.9167 39.3316L17.2407 40.9998C22.2236 43.0191 27.3021 42.7949 32.7207 41.038L32.1656 39.3258ZM17.9167 39.3316C15.1478 38.2095 12.6672 35.5851 11.0101 32.9673L9.48922 33.93C11.246 36.7053 13.9814 39.679 17.2407 40.9998L17.9167 39.3316ZM11.0615 33.837L12.6118 30.5966L10.9881 29.8198L9.4378 33.0602L11.0615 33.837ZM11.9601 31.0938C14.5619 30.6233 16.8601 30.3794 19.4399 30.4956L19.521 28.6974C16.7648 28.5733 14.3251 28.8369 11.6398 29.3226L11.9601 31.0938ZM19.4399 30.4956C24.9236 30.7427 29.9528 28.6803 34.0437 26.0397C38.1376 23.3971 41.357 20.1345 43.2494 17.8657L41.8672 16.7127C40.0587 18.8808 36.9713 22.0076 33.0675 24.5274C29.1608 27.0491 24.5016 28.9219 19.521 28.6974L19.4399 30.4956ZM40.9268 17.4743L42.153 18.0927L42.9636 16.4856L41.7374 15.8671L40.9268 17.4743ZM42.8185 12.6294L40.571 16.1903L42.0932 17.1511L44.3407 13.5901L42.8185 12.6294Z" fill="#212529"/>
<path d="M23.2153 38.2513C30.4386 38.4639 37.2643 36.3108 41.1049 27.6807" stroke="#212529" stroke-width="1.2" stroke-linecap="round" stroke-linejoin="round"/>
<g style="mix-blend-mode:multiply" opacity="0.8">
<path fill-rule="evenodd" clip-rule="evenodd" d="M14.1706 30.0719L13.0632 33.2123C14.904 35.5284 17.5853 37.8495 20.4846 38.6763C25.041 39.9756 29.4943 39.3162 34.1864 37.2166C42.0986 33.676 44.9296 24.7034 45.6337 19.3113C45.7401 19.384 45.8495 19.4589 45.9623 19.5361C46.1286 19.6499 46.3021 19.7686 46.4833 19.8925C45.9058 24.4543 41.9268 35.7745 32.8016 39.1635C27.9827 40.9531 24.0348 41.0029 19.4164 39.9447C16.5837 39.2957 12.8163 35.8015 11.2339 33.3018L13.6081 29.5597C15.4814 29.2208 17.206 29.0036 19.0194 28.9698C17.3924 29.2049 15.8377 29.5814 14.1706 30.0719Z" fill="#FFE066"/>
</g>
<g style="mix-blend-mode:soft-light">
<path d="M37.8134 24.2702C40.2708 22.4163 42.1377 20.1329 43.3676 17.7725C43.3676 17.7725 40.1639 21.529 37.3159 23.6855C34.6544 25.7008 30.1605 28.2351 30.1605 28.2351C31.6648 27.5646 35.3559 26.1241 37.8134 24.2702Z" fill="#F8F9FA"/>
</g>
</svg>
