<svg width="60" height="61" viewBox="0 0 60 61" fill="none" xmlns="http://www.w3.org/2000/svg">
<mask id="path-1-outside-1_50_3890" maskUnits="userSpaceOnUse" x="14.1581" y="2.92041" width="32" height="56" fill="black">
<rect fill="white" x="14.1581" y="2.92041" width="32" height="56"/>
<path fill-rule="evenodd" clip-rule="evenodd" d="M30.4997 5.09572C30.2075 4.86198 29.7924 4.86198 29.5002 5.09572L25.316 8.44309C25.1262 8.59491 25.0157 8.82476 25.0157 9.06779V11.8428H20.9773C19.9832 11.8428 19.1773 12.6487 19.1773 13.6428V16.3062H18.0581C17.0087 16.3062 16.1581 17.1568 16.1581 18.2062V42.0899C16.1581 43.1393 17.0087 43.9899 18.0581 43.9899H18.1042V54.7398C18.1042 55.7892 18.9548 56.6398 20.0042 56.6398H39.9957C41.045 56.6398 41.8957 55.7892 41.8957 54.7398V43.9899H41.9419C42.9912 43.9899 43.8419 43.1393 43.8419 42.0899V18.2062C43.8419 17.1568 42.9912 16.3062 41.9419 16.3062H40.8226V13.6428C40.8226 12.6487 40.0168 11.8428 39.0226 11.8428H34.9842V9.06779C34.9842 8.82476 34.8737 8.59491 34.6839 8.44309L30.4997 5.09572Z"/>
</mask>
<path fill-rule="evenodd" clip-rule="evenodd" d="M30.4997 5.09572C30.2075 4.86198 29.7924 4.86198 29.5002 5.09572L25.316 8.44309C25.1262 8.59491 25.0157 8.82476 25.0157 9.06779V11.8428H20.9773C19.9832 11.8428 19.1773 12.6487 19.1773 13.6428V16.3062H18.0581C17.0087 16.3062 16.1581 17.1568 16.1581 18.2062V42.0899C16.1581 43.1393 17.0087 43.9899 18.0581 43.9899H18.1042V54.7398C18.1042 55.7892 18.9548 56.6398 20.0042 56.6398H39.9957C41.045 56.6398 41.8957 55.7892 41.8957 54.7398V43.9899H41.9419C42.9912 43.9899 43.8419 43.1393 43.8419 42.0899V18.2062C43.8419 17.1568 42.9912 16.3062 41.9419 16.3062H40.8226V13.6428C40.8226 12.6487 40.0168 11.8428 39.0226 11.8428H34.9842V9.06779C34.9842 8.82476 34.8737 8.59491 34.6839 8.44309L30.4997 5.09572Z" fill="#F8F9FA"/>
<path d="M29.5002 5.09572L28.5632 3.92441L28.5632 3.92441L29.5002 5.09572ZM30.4997 5.09572L31.4368 3.92441L31.4368 3.92441L30.4997 5.09572ZM25.316 8.44309L26.253 9.6144L26.253 9.6144L25.316 8.44309ZM25.0157 11.8428V13.3428C25.8442 13.3428 26.5157 12.6712 26.5157 11.8428H25.0157ZM19.1773 16.3062V17.8062C20.0057 17.8062 20.6773 17.1346 20.6773 16.3062H19.1773ZM18.1042 43.9899H19.6042C19.6042 43.1615 18.9326 42.4899 18.1042 42.4899V43.9899ZM41.8957 43.9899V42.4899C41.0672 42.4899 40.3957 43.1615 40.3957 43.9899H41.8957ZM40.8226 16.3062H39.3226C39.3226 17.1346 39.9942 17.8062 40.8226 17.8062V16.3062ZM34.9842 11.8428H33.4842C33.4842 12.6712 34.1558 13.3428 34.9842 13.3428V11.8428ZM34.6839 8.44309L33.7469 9.6144L33.7469 9.6144L34.6839 8.44309ZM30.4373 6.26702C30.1816 6.47154 29.8183 6.47154 29.5627 6.26702L31.4368 3.92441C30.5968 3.25241 29.4032 3.25241 28.5632 3.92441L30.4373 6.26702ZM26.253 9.6144L30.4373 6.26702L28.5632 3.92441L24.3789 7.27179L26.253 9.6144ZM26.5157 9.06779C26.5157 9.28044 26.4191 9.48156 26.253 9.6144L24.3789 7.27179C23.8334 7.70826 23.5157 8.36908 23.5157 9.06779H26.5157ZM26.5157 11.8428V9.06779H23.5157V11.8428H26.5157ZM20.9773 13.3428H25.0157V10.3428H20.9773V13.3428ZM20.6773 13.6428C20.6773 13.4771 20.8116 13.3428 20.9773 13.3428V10.3428C19.1548 10.3428 17.6773 11.8202 17.6773 13.6428H20.6773ZM20.6773 16.3062V13.6428H17.6773V16.3062H20.6773ZM18.0581 17.8062H19.1773V14.8062H18.0581V17.8062ZM17.6581 18.2062C17.6581 17.9852 17.8372 17.8062 18.0581 17.8062V14.8062C16.1803 14.8062 14.6581 16.3284 14.6581 18.2062H17.6581ZM17.6581 42.0899V18.2062H14.6581V42.0899H17.6581ZM18.0581 42.4899C17.8372 42.4899 17.6581 42.3109 17.6581 42.0899H14.6581C14.6581 43.9677 16.1803 45.4899 18.0581 45.4899V42.4899ZM18.1042 42.4899H18.0581V45.4899H18.1042V42.4899ZM19.6042 54.7398V43.9899H16.6042V54.7398H19.6042ZM20.0042 55.1398C19.7833 55.1398 19.6042 54.9608 19.6042 54.7398H16.6042C16.6042 56.6176 18.1264 58.1398 20.0042 58.1398V55.1398ZM39.9957 55.1398H20.0042V58.1398H39.9957V55.1398ZM40.3957 54.7398C40.3957 54.9608 40.2166 55.1398 39.9957 55.1398V58.1398C41.8734 58.1398 43.3957 56.6176 43.3957 54.7398H40.3957ZM40.3957 43.9899V54.7398H43.3957V43.9899H40.3957ZM41.9419 42.4899H41.8957V45.4899H41.9419V42.4899ZM42.3419 42.0899C42.3419 42.3109 42.1628 42.4899 41.9419 42.4899V45.4899C43.8196 45.4899 45.3419 43.9677 45.3419 42.0899H42.3419ZM42.3419 18.2062V42.0899H45.3419V18.2062H42.3419ZM41.9419 17.8062C42.1628 17.8062 42.3419 17.9852 42.3419 18.2062H45.3419C45.3419 16.3284 43.8196 14.8062 41.9419 14.8062V17.8062ZM40.8226 17.8062H41.9419V14.8062H40.8226V17.8062ZM39.3226 13.6428V16.3062H42.3226V13.6428H39.3226ZM39.0226 13.3428C39.1883 13.3428 39.3226 13.4771 39.3226 13.6428H42.3226C42.3226 11.8202 40.8452 10.3428 39.0226 10.3428V13.3428ZM34.9842 13.3428H39.0226V10.3428H34.9842V13.3428ZM33.4842 9.06779V11.8428H36.4842V9.06779H33.4842ZM33.7469 9.6144C33.5809 9.48156 33.4842 9.28044 33.4842 9.06779H36.4842C36.4842 8.36908 36.1666 7.70826 35.621 7.27179L33.7469 9.6144ZM29.5627 6.26702L33.7469 9.6144L35.621 7.27179L31.4368 3.92441L29.5627 6.26702Z" fill="#F8F9FA" mask="url(#path-1-outside-1_50_3890)"/>
<path fill-rule="evenodd" clip-rule="evenodd" d="M30 5.71729L25.8158 9.06466V13.8946H34.1842V9.06466L30 5.71729Z" fill="#FFD43B" stroke="#212529" stroke-width="1.6" stroke-linejoin="round"/>
<path fill-rule="evenodd" clip-rule="evenodd" d="M40.9958 37.6641C40.9958 37.1118 40.548 36.6641 39.9958 36.6641H20.0043C19.452 36.6641 19.0043 37.1118 19.0043 37.6641V54.7363C19.0043 55.2886 19.452 55.7363 20.0043 55.7363H39.9958C40.548 55.7363 40.9958 55.2886 40.9958 54.7363V37.6641Z" fill="#FFD43B" stroke="#212529" stroke-width="1.8" stroke-linejoin="round"/>
<g style="mix-blend-mode:multiply">
<rect x="19.8634" y="43.8257" width="20.2732" height="0.992613" fill="#FFC55D"/>
</g>
<path fill-rule="evenodd" clip-rule="evenodd" d="M40.0226 13.6396C40.0226 13.0874 39.5749 12.6396 39.0226 12.6396H20.9773C20.425 12.6396 19.9773 13.0874 19.9773 13.6396V18.733C19.9773 19.2853 20.425 19.733 20.9773 19.733H39.0226C39.5749 19.733 40.0226 19.2853 40.0226 18.733V13.6396Z" fill="#FFD8A8" stroke="#212529" stroke-width="1.6" stroke-linejoin="round"/>
<path d="M41.9419 17.2031H18.0581C17.5058 17.2031 17.0581 17.6508 17.0581 18.2031V42.0869C17.0581 42.6392 17.5058 43.0869 18.0581 43.0869H41.9419C42.4942 43.0869 42.9419 42.6392 42.9419 42.0869V18.2031C42.9419 17.6508 42.4942 17.2031 41.9419 17.2031Z" fill="#FFD43B" stroke="#212529" stroke-width="1.8" stroke-linejoin="round"/>
<g style="mix-blend-mode:multiply">
<path d="M30.6473 38.5371C35.282 38.5371 39.0392 34.7799 39.0392 30.1453C39.0392 25.5106 35.282 21.7534 30.6473 21.7534C26.0126 21.7534 22.2555 25.5106 22.2555 30.1453C22.2555 34.7799 26.0126 38.5371 30.6473 38.5371Z" fill="#FFC55D"/>
</g>
<path d="M30 37.2483C34.4605 37.2483 38.0765 33.6323 38.0765 29.1717C38.0765 24.7112 34.4605 21.0952 30 21.0952C25.5394 21.0952 21.9235 24.7112 21.9235 29.1717C21.9235 33.6323 25.5394 37.2483 30 37.2483Z" fill="#EDF2FF" stroke="#212529" stroke-width="1.6" stroke-linejoin="round"/>
<path d="M30 29.6267V25.3354" stroke="#212529" stroke-width="1.6" stroke-linecap="round" stroke-linejoin="round"/>
<path d="M30.0931 29.6274H33.0826" stroke="#212529" stroke-width="1.6" stroke-linecap="round" stroke-linejoin="round"/>
<path d="M27.0868 55.7364V47.791" stroke="#212529" stroke-width="1.6" stroke-linecap="round" stroke-linejoin="round"/>
<path d="M32.9252 55.7364V47.791" stroke="#212529" stroke-width="1.6" stroke-linecap="round" stroke-linejoin="round"/>
<path d="M27.0868 17.1274V15.3916" stroke="#212529" stroke-width="1.4" stroke-linecap="round" stroke-linejoin="round"/>
<path d="M32.9252 17.1274V15.3916" stroke="#212529" stroke-width="1.4" stroke-linecap="round" stroke-linejoin="round"/>
</svg>
