<svg width="60" height="61" viewBox="0 0 60 61" fill="none" xmlns="http://www.w3.org/2000/svg">
<mask id="path-1-outside-1_50_5413" maskUnits="userSpaceOnUse" x="2.34863" y="11.8403" width="55" height="43" fill="black">
<rect fill="white" x="2.34863" y="11.8403" width="55" height="43"/>
<path fill-rule="evenodd" clip-rule="evenodd" d="M40.1472 15.5684C40.1472 14.614 40.9209 13.8403 41.8753 13.8403C42.8297 13.8403 43.6034 14.614 43.6034 15.5684V23.3882C44.5618 25.2181 45.9008 26.9703 47.4549 28.3654C49.5115 30.2117 51.8464 31.3488 54.0858 31.3488C54.6381 31.3488 55.0858 31.7965 55.0858 32.3488C55.0858 32.9011 54.6381 33.3488 54.0858 33.3488C53.1319 33.3488 52.19 33.1918 51.2747 32.9085V36.6664H53.7486C54.6323 36.6664 55.3486 37.3828 55.3486 38.2664V38.8925C55.3486 39.7762 54.6323 40.4925 53.7486 40.4925H43.6034V48.6898C44.5377 48.6952 45.2934 49.4543 45.2934 50.3898V50.8966C45.2934 51.8355 44.5323 52.5966 43.5934 52.5966H40.1572C39.2183 52.5966 38.4572 51.8355 38.4572 50.8966V50.3898C38.4572 49.4543 39.2129 48.6952 40.1472 48.6898V40.4925L19.1824 40.4925V48.6898C20.1167 48.6952 20.8724 49.4543 20.8724 50.3898V50.8966C20.8724 51.8355 20.1113 52.5966 19.1724 52.5966H15.7361C14.7972 52.5966 14.0361 51.8355 14.0361 50.8966V50.3898C14.0361 49.4543 14.7919 48.6952 15.7262 48.6898V40.4925H6.2436C5.35995 40.4925 4.6436 39.7762 4.6436 38.8925V38.2664C4.6436 37.3828 5.35995 36.6664 6.2436 36.6664H8.02217V32.8935C7.10854 33.186 6.17622 33.3488 5.24365 33.3488C4.69137 33.3488 4.24365 32.9011 4.24365 32.3488C4.24365 31.7965 4.69137 31.3488 5.24365 31.3488C7.36166 31.3488 9.69738 30.217 11.7924 28.361C13.3754 26.9588 14.7532 25.2009 15.7262 23.3711V15.5684C15.7262 14.614 16.4999 13.8403 17.4543 13.8403C18.4087 13.8403 19.1824 14.614 19.1824 15.5684V23.3882C20.1408 25.2181 21.4798 26.9703 23.0339 28.3654C25.0904 30.2117 27.4253 31.3488 29.6648 31.3488C31.7828 31.3488 34.1185 30.217 36.2136 28.361C37.7964 26.9588 39.1742 25.201 40.1472 23.3713V15.5684ZM9.22217 32.4319C10.0661 32.0533 10.886 31.572 11.6665 31.0159V36.6664H9.22217V32.4319ZM12.8665 30.0774V36.6664H15.7262V27.0488C14.9442 28.0697 14.0635 29.021 13.1186 29.8581C13.0352 29.932 12.9512 30.0051 12.8665 30.0774ZM50.0747 36.6664L50.0747 32.4602C49.2258 32.0886 48.4069 31.6143 47.6304 31.0642V36.6664H50.0747ZM46.4304 36.6664H43.6034V27.1059C44.3568 28.1022 45.2038 29.0323 46.1188 29.8537C46.2216 29.946 46.3255 30.0371 46.4304 30.1269V36.6664ZM42.4034 40.4925V48.6898H41.3472V40.4925H42.4034ZM43.5934 50.0898H43.2292C42.9126 50.4884 42.4238 50.7439 41.8753 50.7439C41.3268 50.7439 40.838 50.4884 40.5214 50.0898H40.1572C39.9915 50.0898 39.8572 50.2241 39.8572 50.3898V50.8966C39.8572 51.0623 39.9915 51.1966 40.1572 51.1966H43.5934C43.7591 51.1966 43.8934 51.0623 43.8934 50.8966V50.3898C43.8934 50.2241 43.7591 50.0898 43.5934 50.0898ZM18.8082 50.0898C18.4916 50.4884 18.0028 50.7439 17.4543 50.7439C16.9058 50.7439 16.4169 50.4884 16.1004 50.0898H15.7361C15.5704 50.0898 15.4361 50.2241 15.4361 50.3898V50.8966C15.4361 51.0623 15.5704 51.1966 15.7361 51.1966H19.1724C19.3381 51.1966 19.4724 51.0623 19.4724 50.8966V50.3898C19.4724 50.2241 19.3381 50.0898 19.1724 50.0898H18.8082ZM16.9262 48.6898V40.4925H17.9824V48.6898H16.9262ZM53.7486 37.8664H43.6034V39.2925H53.7486C53.9695 39.2925 54.1486 39.1134 54.1486 38.8925V38.2664C54.1486 38.0455 53.9695 37.8664 53.7486 37.8664ZM42.4034 37.8664V39.2925H41.3472V37.8664L42.4034 37.8664ZM19.1824 37.8664V39.2925L40.1472 39.2925V37.8664H19.1824ZM19.1824 27.1059V36.6664H21.7614V30.02C21.7614 29.9853 21.7643 29.9512 21.77 29.9181L21.6978 29.8537C20.7828 29.0323 19.9357 28.1022 19.1824 27.1059ZM22.9614 30.8849V36.6664H25.4131V32.3518C24.5596 31.9561 23.738 31.4579 22.9614 30.8849ZM29.0648 33.3283V36.6664H26.6131V32.8309C27.4122 33.0988 28.2327 33.2715 29.0648 33.3283ZM30.2648 36.6664V33.3267C31.0896 33.2662 31.9111 33.0836 32.7166 32.8019V36.6664H30.2648ZM36.3683 30.8115C35.588 31.3923 34.7654 31.8999 33.9166 32.3053V36.6664H36.3683V30.8115ZM40.1472 36.6664H37.5683V29.8328C38.5024 29.0019 39.3731 28.0595 40.1472 27.049V36.6664ZM17.9824 39.2925V37.8664H16.9262V39.2925H17.9824ZM17.9824 25.3324V36.6664H16.9262V25.3008C17.1099 25.0002 17.2846 24.6962 17.4495 24.3897C17.6173 24.7069 17.7952 25.0214 17.9824 25.3324ZM15.7262 39.2925V37.8664H6.2436C6.02269 37.8664 5.8436 38.0455 5.8436 38.2664V38.8925C5.8436 39.1134 6.02269 39.2925 6.2436 39.2925H15.7262ZM42.4034 36.6664H41.3472V25.301C41.5309 25.0004 41.7056 24.6964 41.8705 24.3898C42.0384 24.7069 42.2162 25.0215 42.4034 25.3324V36.6664ZM16.9262 21.1339C16.9673 21.1084 17.0107 21.0857 17.0563 21.0659L17.076 21.0576L17.0886 21.0526L17.1006 21.048C17.3216 20.9644 17.5536 20.9643 17.7621 21.0319C17.7927 21.0418 17.8227 21.0532 17.8521 21.0659C17.8978 21.0857 17.9412 21.1085 17.9824 21.134V15.5684C17.9824 15.2768 17.7459 15.0403 17.4543 15.0403C17.1626 15.0403 16.9262 15.2768 16.9262 15.5684V21.1339ZM41.5216 21.048C41.4597 21.0714 41.4014 21.1003 41.3472 21.1339V15.5684C41.3472 15.2768 41.5836 15.0403 41.8753 15.0403C42.167 15.0403 42.4034 15.2768 42.4034 15.5684V21.1339C42.3492 21.1003 42.2909 21.0714 42.229 21.048C42.1125 21.0039 41.9929 20.9831 41.8753 20.9831C41.7577 20.9831 41.6381 21.0039 41.5216 21.048Z"/>
</mask>
<path fill-rule="evenodd" clip-rule="evenodd" d="M40.1472 15.5684C40.1472 14.614 40.9209 13.8403 41.8753 13.8403C42.8297 13.8403 43.6034 14.614 43.6034 15.5684V23.3882C44.5618 25.2181 45.9008 26.9703 47.4549 28.3654C49.5115 30.2117 51.8464 31.3488 54.0858 31.3488C54.6381 31.3488 55.0858 31.7965 55.0858 32.3488C55.0858 32.9011 54.6381 33.3488 54.0858 33.3488C53.1319 33.3488 52.19 33.1918 51.2747 32.9085V36.6664H53.7486C54.6323 36.6664 55.3486 37.3828 55.3486 38.2664V38.8925C55.3486 39.7762 54.6323 40.4925 53.7486 40.4925H43.6034V48.6898C44.5377 48.6952 45.2934 49.4543 45.2934 50.3898V50.8966C45.2934 51.8355 44.5323 52.5966 43.5934 52.5966H40.1572C39.2183 52.5966 38.4572 51.8355 38.4572 50.8966V50.3898C38.4572 49.4543 39.2129 48.6952 40.1472 48.6898V40.4925L19.1824 40.4925V48.6898C20.1167 48.6952 20.8724 49.4543 20.8724 50.3898V50.8966C20.8724 51.8355 20.1113 52.5966 19.1724 52.5966H15.7361C14.7972 52.5966 14.0361 51.8355 14.0361 50.8966V50.3898C14.0361 49.4543 14.7919 48.6952 15.7262 48.6898V40.4925H6.2436C5.35995 40.4925 4.6436 39.7762 4.6436 38.8925V38.2664C4.6436 37.3828 5.35995 36.6664 6.2436 36.6664H8.02217V32.8935C7.10854 33.186 6.17622 33.3488 5.24365 33.3488C4.69137 33.3488 4.24365 32.9011 4.24365 32.3488C4.24365 31.7965 4.69137 31.3488 5.24365 31.3488C7.36166 31.3488 9.69738 30.217 11.7924 28.361C13.3754 26.9588 14.7532 25.2009 15.7262 23.3711V15.5684C15.7262 14.614 16.4999 13.8403 17.4543 13.8403C18.4087 13.8403 19.1824 14.614 19.1824 15.5684V23.3882C20.1408 25.2181 21.4798 26.9703 23.0339 28.3654C25.0904 30.2117 27.4253 31.3488 29.6648 31.3488C31.7828 31.3488 34.1185 30.217 36.2136 28.361C37.7964 26.9588 39.1742 25.201 40.1472 23.3713V15.5684ZM9.22217 32.4319C10.0661 32.0533 10.886 31.572 11.6665 31.0159V36.6664H9.22217V32.4319ZM12.8665 30.0774V36.6664H15.7262V27.0488C14.9442 28.0697 14.0635 29.021 13.1186 29.8581C13.0352 29.932 12.9512 30.0051 12.8665 30.0774ZM50.0747 36.6664L50.0747 32.4602C49.2258 32.0886 48.4069 31.6143 47.6304 31.0642V36.6664H50.0747ZM46.4304 36.6664H43.6034V27.1059C44.3568 28.1022 45.2038 29.0323 46.1188 29.8537C46.2216 29.946 46.3255 30.0371 46.4304 30.1269V36.6664ZM42.4034 40.4925V48.6898H41.3472V40.4925H42.4034ZM43.5934 50.0898H43.2292C42.9126 50.4884 42.4238 50.7439 41.8753 50.7439C41.3268 50.7439 40.838 50.4884 40.5214 50.0898H40.1572C39.9915 50.0898 39.8572 50.2241 39.8572 50.3898V50.8966C39.8572 51.0623 39.9915 51.1966 40.1572 51.1966H43.5934C43.7591 51.1966 43.8934 51.0623 43.8934 50.8966V50.3898C43.8934 50.2241 43.7591 50.0898 43.5934 50.0898ZM18.8082 50.0898C18.4916 50.4884 18.0028 50.7439 17.4543 50.7439C16.9058 50.7439 16.4169 50.4884 16.1004 50.0898H15.7361C15.5704 50.0898 15.4361 50.2241 15.4361 50.3898V50.8966C15.4361 51.0623 15.5704 51.1966 15.7361 51.1966H19.1724C19.3381 51.1966 19.4724 51.0623 19.4724 50.8966V50.3898C19.4724 50.2241 19.3381 50.0898 19.1724 50.0898H18.8082ZM16.9262 48.6898V40.4925H17.9824V48.6898H16.9262ZM53.7486 37.8664H43.6034V39.2925H53.7486C53.9695 39.2925 54.1486 39.1134 54.1486 38.8925V38.2664C54.1486 38.0455 53.9695 37.8664 53.7486 37.8664ZM42.4034 37.8664V39.2925H41.3472V37.8664L42.4034 37.8664ZM19.1824 37.8664V39.2925L40.1472 39.2925V37.8664H19.1824ZM19.1824 27.1059V36.6664H21.7614V30.02C21.7614 29.9853 21.7643 29.9512 21.77 29.9181L21.6978 29.8537C20.7828 29.0323 19.9357 28.1022 19.1824 27.1059ZM22.9614 30.8849V36.6664H25.4131V32.3518C24.5596 31.9561 23.738 31.4579 22.9614 30.8849ZM29.0648 33.3283V36.6664H26.6131V32.8309C27.4122 33.0988 28.2327 33.2715 29.0648 33.3283ZM30.2648 36.6664V33.3267C31.0896 33.2662 31.9111 33.0836 32.7166 32.8019V36.6664H30.2648ZM36.3683 30.8115C35.588 31.3923 34.7654 31.8999 33.9166 32.3053V36.6664H36.3683V30.8115ZM40.1472 36.6664H37.5683V29.8328C38.5024 29.0019 39.3731 28.0595 40.1472 27.049V36.6664ZM17.9824 39.2925V37.8664H16.9262V39.2925H17.9824ZM17.9824 25.3324V36.6664H16.9262V25.3008C17.1099 25.0002 17.2846 24.6962 17.4495 24.3897C17.6173 24.7069 17.7952 25.0214 17.9824 25.3324ZM15.7262 39.2925V37.8664H6.2436C6.02269 37.8664 5.8436 38.0455 5.8436 38.2664V38.8925C5.8436 39.1134 6.02269 39.2925 6.2436 39.2925H15.7262ZM42.4034 36.6664H41.3472V25.301C41.5309 25.0004 41.7056 24.6964 41.8705 24.3898C42.0384 24.7069 42.2162 25.0215 42.4034 25.3324V36.6664ZM16.9262 21.1339C16.9673 21.1084 17.0107 21.0857 17.0563 21.0659L17.076 21.0576L17.0886 21.0526L17.1006 21.048C17.3216 20.9644 17.5536 20.9643 17.7621 21.0319C17.7927 21.0418 17.8227 21.0532 17.8521 21.0659C17.8978 21.0857 17.9412 21.1085 17.9824 21.134V15.5684C17.9824 15.2768 17.7459 15.0403 17.4543 15.0403C17.1626 15.0403 16.9262 15.2768 16.9262 15.5684V21.1339ZM41.5216 21.048C41.4597 21.0714 41.4014 21.1003 41.3472 21.1339V15.5684C41.3472 15.2768 41.5836 15.0403 41.8753 15.0403C42.167 15.0403 42.4034 15.2768 42.4034 15.5684V21.1339C42.3492 21.1003 42.2909 21.0714 42.229 21.048C42.1125 21.0039 41.9929 20.9831 41.8753 20.9831C41.7577 20.9831 41.6381 21.0039 41.5216 21.048Z" fill="#F8F9FA"/>
<path d="M43.6034 23.3882L42.2746 24.0841C42.1621 23.8693 42.1034 23.6306 42.1034 23.3882H43.6034ZM47.4549 28.3654L48.4569 27.2492L48.4569 27.2492L47.4549 28.3654ZM51.2747 32.9085H49.7747C49.7747 32.432 50.0011 31.9839 50.3846 31.7012C50.768 31.4184 51.2631 31.3347 51.7182 31.4756L51.2747 32.9085ZM51.2747 36.6664V38.1664C50.4463 38.1664 49.7747 37.4949 49.7747 36.6664H51.2747ZM43.6034 40.4925H42.1034C42.1034 39.6641 42.775 38.9925 43.6034 38.9925V40.4925ZM43.6034 48.6898L43.5948 50.1898C42.7697 50.1851 42.1034 49.5149 42.1034 48.6898H43.6034ZM40.1472 48.6898H41.6472C41.6472 49.5149 40.9809 50.1851 40.1558 50.1898L40.1472 48.6898ZM40.1472 40.4925L40.1472 38.9925C40.9756 38.9925 41.6472 39.6641 41.6472 40.4925H40.1472ZM19.1824 40.4925H17.6824C17.6824 40.0947 17.8404 39.7132 18.1217 39.4319C18.403 39.1506 18.7845 38.9925 19.1824 38.9925L19.1824 40.4925ZM19.1824 48.6898L19.1737 50.1898C18.3487 50.1851 17.6824 49.5149 17.6824 48.6898H19.1824ZM15.7262 48.6898H17.2262C17.2262 49.5149 16.5598 50.1851 15.7348 50.1898L15.7262 48.6898ZM15.7262 40.4925V38.9925C16.5546 38.9925 17.2262 39.6641 17.2262 40.4925H15.7262ZM8.02217 36.6664H9.52217C9.52217 37.4949 8.85059 38.1664 8.02217 38.1664V36.6664ZM8.02217 32.8935L7.56474 31.4649C8.02095 31.3188 8.51949 31.3994 8.90643 31.6818C9.29337 31.9642 9.52217 32.4144 9.52217 32.8935H8.02217ZM11.7924 28.361L12.7871 29.4838L12.7871 29.4838L11.7924 28.361ZM15.7262 23.3711H17.2262C17.2262 23.6167 17.1659 23.8585 17.0506 24.0753L15.7262 23.3711ZM19.1824 23.3882L17.8536 24.0841C17.7411 23.8693 17.6824 23.6306 17.6824 23.3882H19.1824ZM23.0339 28.3654L22.0318 29.4816L22.0318 29.4816L23.0339 28.3654ZM36.2136 28.361L37.2082 29.4838L37.2082 29.4838L36.2136 28.361ZM40.1472 23.3713H41.6472C41.6472 23.6169 41.5869 23.8587 41.4716 24.0756L40.1472 23.3713ZM9.22217 32.4319H7.72217C7.72217 31.841 8.06905 31.3052 8.60816 31.0633L9.22217 32.4319ZM11.6665 31.0159L10.796 29.7943C11.2534 29.4684 11.8544 29.4253 12.3536 29.6826C12.8528 29.9398 13.1665 30.4543 13.1665 31.0159H11.6665ZM11.6665 36.6664H13.1665C13.1665 37.4949 12.4949 38.1664 11.6665 38.1664V36.6664ZM9.22217 36.6664V38.1664C8.39374 38.1664 7.72217 37.4949 7.72217 36.6664H9.22217ZM12.8665 36.6664V38.1664C12.038 38.1664 11.3665 37.4949 11.3665 36.6664H12.8665ZM12.8665 30.0774H11.3665C11.3665 29.6386 11.5586 29.2218 11.8923 28.9368L12.8665 30.0774ZM15.7262 36.6664H17.2262C17.2262 37.4949 16.5546 38.1664 15.7262 38.1664V36.6664ZM15.7262 27.0488L14.5354 26.1366C14.9263 25.6263 15.599 25.4218 16.2078 25.6282C16.8166 25.8346 17.2262 26.406 17.2262 27.0488H15.7262ZM13.1186 29.8581L12.124 28.7353L13.1186 29.8581ZM50.0747 32.4602L50.6762 31.086C51.222 31.325 51.5747 31.8643 51.5747 32.4602L50.0747 32.4602ZM50.0747 36.6664L51.5747 36.6664C51.5747 37.0643 51.4167 37.4458 51.1354 37.7271C50.8541 38.0084 50.4725 38.1664 50.0747 38.1664V36.6664ZM47.6304 31.0642H46.1304C46.1304 30.5034 46.4433 29.9894 46.9415 29.7318C47.4397 29.4742 48.04 29.516 48.4976 29.8403L47.6304 31.0642ZM47.6304 36.6664V38.1664C46.802 38.1664 46.1304 37.4949 46.1304 36.6664H47.6304ZM43.6034 36.6664V38.1664C42.775 38.1664 42.1034 37.4949 42.1034 36.6664H43.6034ZM46.4304 36.6664H47.9304C47.9304 37.4949 47.2588 38.1664 46.4304 38.1664V36.6664ZM43.6034 27.1059H42.1034C42.1034 26.4613 42.5152 25.8888 43.1263 25.6838C43.7374 25.4788 44.4111 25.6871 44.7999 26.2012L43.6034 27.1059ZM46.1188 29.8537L45.1168 30.9699L45.1168 30.9699L46.1188 29.8537ZM46.4304 30.1269L47.4061 28.9876C47.7389 29.2725 47.9304 29.6888 47.9304 30.1269H46.4304ZM42.4034 48.6898H43.9034C43.9034 49.5182 43.2318 50.1898 42.4034 50.1898V48.6898ZM42.4034 40.4925V38.9925C43.2318 38.9925 43.9034 39.6641 43.9034 40.4925H42.4034ZM41.3472 48.6898V50.1898C40.5188 50.1898 39.8472 49.5182 39.8472 48.6898H41.3472ZM41.3472 40.4925H39.8472C39.8472 39.6641 40.5188 38.9925 41.3472 38.9925V40.4925ZM43.2292 50.0898L42.0547 49.1569C42.3392 48.7986 42.7717 48.5898 43.2292 48.5898V50.0898ZM40.5214 50.0898V48.5898C40.9789 48.5898 41.4114 48.7986 41.696 49.1569L40.5214 50.0898ZM18.8082 50.0898L17.6336 49.1569C17.9182 48.7986 18.3507 48.5898 18.8082 48.5898V50.0898ZM16.1004 50.0898V48.5898C16.5579 48.5898 16.9904 48.7986 17.2749 49.1569L16.1004 50.0898ZM16.9262 40.4925H15.4262C15.4262 39.6641 16.0978 38.9925 16.9262 38.9925V40.4925ZM16.9262 48.6898V50.1898C16.0978 50.1898 15.4262 49.5182 15.4262 48.6898H16.9262ZM17.9824 40.4925V38.9925C18.8108 38.9925 19.4824 39.6641 19.4824 40.4925H17.9824ZM17.9824 48.6898H19.4824C19.4824 49.5182 18.8108 50.1898 17.9824 50.1898V48.6898ZM43.6034 37.8664H42.1034C42.1034 37.038 42.775 36.3664 43.6034 36.3664V37.8664ZM43.6034 39.2925V40.7925C42.775 40.7925 42.1034 40.121 42.1034 39.2925H43.6034ZM42.4034 39.2925H43.9034C43.9034 40.121 43.2318 40.7925 42.4034 40.7925V39.2925ZM42.4034 37.8664L42.4034 36.3664C43.2318 36.3664 43.9034 37.038 43.9034 37.8664H42.4034ZM41.3472 39.2925V40.7925C40.5188 40.7925 39.8472 40.121 39.8472 39.2925H41.3472ZM41.3472 37.8664H39.8472C39.8472 37.4686 40.0053 37.0871 40.2866 36.8058C40.5679 36.5245 40.9494 36.3664 41.3472 36.3664L41.3472 37.8664ZM19.1824 39.2925L19.1824 40.7925C18.3539 40.7925 17.6824 40.121 17.6824 39.2925H19.1824ZM19.1824 37.8664H17.6824C17.6824 37.038 18.3539 36.3664 19.1824 36.3664V37.8664ZM40.1472 39.2925H41.6472C41.6472 39.6904 41.4892 40.0719 41.2079 40.3532C40.9266 40.6345 40.545 40.7925 40.1472 40.7925L40.1472 39.2925ZM40.1472 37.8664V36.3664C40.9756 36.3664 41.6472 37.038 41.6472 37.8664H40.1472ZM19.1824 36.6664V38.1664C18.3539 38.1664 17.6824 37.4949 17.6824 36.6664H19.1824ZM19.1824 27.1059H17.6824C17.6824 26.4613 18.0942 25.8888 18.7052 25.6838C19.3163 25.4788 19.9901 25.687 20.3788 26.2012L19.1824 27.1059ZM21.7614 36.6664H23.2614C23.2614 37.4949 22.5898 38.1664 21.7614 38.1664V36.6664ZM21.77 29.9181L22.769 28.7992C23.1544 29.1434 23.3356 29.6616 23.2485 30.1709L21.77 29.9181ZM21.6978 29.8537L20.6988 30.9726L20.6957 30.9699L21.6978 29.8537ZM22.9614 36.6664V38.1664C22.1329 38.1664 21.4614 37.4949 21.4614 36.6664H22.9614ZM22.9614 30.8849H21.4614C21.4614 30.3188 21.78 29.801 22.2853 29.5458C22.7906 29.2907 23.3964 29.3418 23.8519 29.6778L22.9614 30.8849ZM25.4131 36.6664H26.9131C26.9131 37.4949 26.2415 38.1664 25.4131 38.1664V36.6664ZM25.4131 32.3518L26.0439 30.9908C26.5739 31.2365 26.9131 31.7676 26.9131 32.3518H25.4131ZM29.0648 36.6664H30.5648C30.5648 37.4949 29.8932 38.1664 29.0648 38.1664V36.6664ZM29.0648 33.3283L29.1669 31.8318C29.9539 31.8854 30.5648 32.5395 30.5648 33.3283H29.0648ZM26.6131 36.6664V38.1664C25.7847 38.1664 25.1131 37.4949 25.1131 36.6664H26.6131ZM26.6131 32.8309H25.1131C25.1131 32.3483 25.3453 31.8952 25.7371 31.6133C26.1288 31.3315 26.6323 31.2553 27.0898 31.4087L26.6131 32.8309ZM30.2648 33.3267H28.7648C28.7648 32.5408 29.3713 31.8882 30.1551 31.8307L30.2648 33.3267ZM30.2648 36.6664V38.1664C29.4364 38.1664 28.7648 37.4949 28.7648 36.6664H30.2648ZM32.7166 32.8019L32.2214 31.386C32.6802 31.2256 33.1883 31.2974 33.5847 31.5787C33.981 31.86 34.2166 32.3159 34.2166 32.8019H32.7166ZM32.7166 36.6664H34.2166C34.2166 37.4949 33.545 38.1664 32.7166 38.1664V36.6664ZM33.9166 32.3053H32.4166C32.4166 31.7274 32.7486 31.2009 33.27 30.9518L33.9166 32.3053ZM36.3683 30.8115L35.4726 29.6082C35.9276 29.2695 36.5347 29.2165 37.0415 29.471C37.5484 29.7256 37.8683 30.2443 37.8683 30.8115H36.3683ZM33.9166 36.6664V38.1664C33.0881 38.1664 32.4166 37.4949 32.4166 36.6664H33.9166ZM36.3683 36.6664H37.8683C37.8683 37.4949 37.1967 38.1664 36.3683 38.1664V36.6664ZM37.5683 36.6664V38.1664C36.7399 38.1664 36.0683 37.4949 36.0683 36.6664H37.5683ZM40.1472 36.6664H41.6472C41.6472 37.4949 40.9756 38.1664 40.1472 38.1664V36.6664ZM37.5683 29.8328H36.0683C36.0683 29.4045 36.2514 28.9966 36.5713 28.712L37.5683 29.8328ZM40.1472 27.049L38.9565 26.1368C39.3474 25.6265 40.02 25.422 40.6288 25.6284C41.2376 25.8348 41.6472 26.4061 41.6472 27.049H40.1472ZM17.9824 37.8664V36.3664C18.8108 36.3664 19.4824 37.038 19.4824 37.8664H17.9824ZM17.9824 39.2925H19.4824C19.4824 40.121 18.8108 40.7925 17.9824 40.7925V39.2925ZM16.9262 37.8664H15.4262C15.4262 37.038 16.0978 36.3664 16.9262 36.3664V37.8664ZM16.9262 39.2925V40.7925C16.0978 40.7925 15.4262 40.121 15.4262 39.2925H16.9262ZM17.9824 36.6664H19.4824C19.4824 37.4949 18.8108 38.1664 17.9824 38.1664V36.6664ZM17.9824 25.3324L19.2674 24.5587C19.4081 24.7923 19.4824 25.0597 19.4824 25.3324H17.9824ZM16.9262 36.6664V38.1664C16.0978 38.1664 15.4262 37.4949 15.4262 36.6664H16.9262ZM16.9262 25.3008H15.4262C15.4262 25.0247 15.5024 24.754 15.6463 24.5185L16.9262 25.3008ZM17.4495 24.3897L16.1285 23.679C16.3909 23.1913 16.9007 22.8879 17.4546 22.8897C18.0084 22.8916 18.5161 23.1986 18.7752 23.6881L17.4495 24.3897ZM15.7262 37.8664V36.3664C16.5546 36.3664 17.2262 37.038 17.2262 37.8664H15.7262ZM15.7262 39.2925H17.2262C17.2262 40.121 16.5546 40.7925 15.7262 40.7925V39.2925ZM41.3472 36.6664V38.1664C40.5188 38.1664 39.8472 37.4949 39.8472 36.6664H41.3472ZM42.4034 36.6664H43.9034C43.9034 37.4949 43.2318 38.1664 42.4034 38.1664V36.6664ZM41.3472 25.301H39.8472C39.8472 25.0249 39.9234 24.7542 40.0674 24.5187L41.3472 25.301ZM41.8705 24.3898L40.5496 23.6791C40.812 23.1914 41.3218 22.888 41.8757 22.8899C42.4295 22.8917 42.9372 23.1987 43.1963 23.6882L41.8705 24.3898ZM42.4034 25.3324L43.6885 24.5587C43.8291 24.7923 43.9034 25.0597 43.9034 25.3324H42.4034ZM17.0563 21.0659L16.4605 19.6893C16.4652 19.6873 16.47 19.6852 16.4748 19.6832L17.0563 21.0659ZM16.9262 21.1339L17.7167 22.4087C17.2541 22.6956 16.6724 22.7093 16.1968 22.4446C15.7211 22.1799 15.4262 21.6783 15.4262 21.1339H16.9262ZM17.076 21.0576L16.4945 19.6749C16.5026 19.6715 16.5108 19.6682 16.5189 19.6649L17.076 21.0576ZM17.0886 21.0526L16.5316 19.6599C16.5375 19.6575 16.5435 19.6552 16.5494 19.6529L17.0886 21.0526ZM17.1006 21.048L16.5614 19.6482L16.5702 19.6449L17.1006 21.048ZM17.7621 21.0319L17.2994 22.4588L17.2994 22.4588L17.7621 21.0319ZM17.8521 21.0659L17.2563 22.4425L17.2552 22.442L17.8521 21.0659ZM17.9824 21.134H19.4824C19.4824 21.6784 19.1874 22.18 18.7117 22.4447C18.236 22.7094 17.6543 22.6956 17.1917 22.4087L17.9824 21.134ZM41.3472 21.1339L42.1378 22.4087C41.6751 22.6956 41.0934 22.7093 40.6178 22.4446C40.1421 22.1799 39.8472 21.6783 39.8472 21.1339H41.3472ZM41.5216 21.048L42.0521 22.4511L42.0521 22.4511L41.5216 21.048ZM42.4034 21.1339H43.9034C43.9034 21.6783 43.6085 22.1799 43.1328 22.4446C42.6572 22.7093 42.0755 22.6956 41.6129 22.4087L42.4034 21.1339ZM42.229 21.048L41.6985 22.4511L41.6985 22.4511L42.229 21.048ZM41.8753 20.9831L41.8756 22.4831L41.875 22.4831L41.8753 20.9831ZM41.8753 15.3403C41.7493 15.3403 41.6472 15.4425 41.6472 15.5684H38.6472C38.6472 13.7856 40.0925 12.3403 41.8753 12.3403V15.3403ZM42.1034 15.5684C42.1034 15.4425 42.0013 15.3403 41.8753 15.3403V12.3403C43.6581 12.3403 45.1034 13.7856 45.1034 15.5684H42.1034ZM42.1034 23.3882V15.5684H45.1034V23.3882H42.1034ZM46.4528 29.4816C44.7599 27.9618 43.3123 26.0655 42.2746 24.0841L44.9322 22.6922C45.8112 24.3707 47.0417 25.9787 48.4569 27.2492L46.4528 29.4816ZM54.0858 32.8488C51.3491 32.8488 48.6724 31.4742 46.4528 29.4816L48.4569 27.2492C50.3506 28.9492 52.3436 29.8488 54.0858 29.8488V32.8488ZM53.5858 32.3488C53.5858 32.625 53.8097 32.8488 54.0858 32.8488V29.8488C55.4665 29.8488 56.5858 30.9681 56.5858 32.3488H53.5858ZM54.0858 31.8488C53.8097 31.8488 53.5858 32.0727 53.5858 32.3488H56.5858C56.5858 33.7295 55.4665 34.8488 54.0858 34.8488V31.8488ZM51.7182 31.4756C52.5053 31.7192 53.2976 31.8488 54.0858 31.8488V34.8488C52.9662 34.8488 51.8748 34.6644 50.8312 34.3414L51.7182 31.4756ZM49.7747 36.6664V32.9085H52.7747V36.6664H49.7747ZM53.7486 38.1664H51.2747V35.1664H53.7486V38.1664ZM53.8486 38.2664C53.8486 38.2112 53.8039 38.1664 53.7486 38.1664V35.1664C55.4607 35.1664 56.8486 36.5544 56.8486 38.2664H53.8486ZM53.8486 38.8925V38.2664H56.8486V38.8925H53.8486ZM53.7486 38.9925C53.8039 38.9925 53.8486 38.9478 53.8486 38.8925H56.8486C56.8486 40.6046 55.4607 41.9925 53.7486 41.9925V38.9925ZM43.6034 38.9925H53.7486V41.9925H43.6034V38.9925ZM42.1034 48.6898V40.4925H45.1034V48.6898H42.1034ZM43.7934 50.3898C43.7934 50.2798 43.7045 50.1905 43.5948 50.1898L43.612 47.1899C45.3709 47.2 46.7934 48.6287 46.7934 50.3898H43.7934ZM43.7934 50.8966V50.3898H46.7934V50.8966H43.7934ZM43.5934 51.0966C43.7039 51.0966 43.7934 51.0071 43.7934 50.8966H46.7934C46.7934 52.6639 45.3607 54.0966 43.5934 54.0966V51.0966ZM40.1572 51.0966H43.5934V54.0966H40.1572V51.0966ZM39.9572 50.8966C39.9572 51.0071 40.0467 51.0966 40.1572 51.0966V54.0966C38.3898 54.0966 36.9572 52.6639 36.9572 50.8966H39.9572ZM39.9572 50.3898V50.8966H36.9572V50.3898H39.9572ZM40.1558 50.1898C40.0461 50.1904 39.9572 50.2798 39.9572 50.3898H36.9572C36.9572 48.6287 38.3797 47.1999 40.1386 47.1899L40.1558 50.1898ZM41.6472 40.4925V48.6898H38.6472V40.4925H41.6472ZM19.1824 38.9925L40.1472 38.9925L40.1472 41.9925L19.1824 41.9925L19.1824 38.9925ZM17.6824 48.6898V40.4925H20.6824V48.6898H17.6824ZM19.3724 50.3898C19.3724 50.2798 19.2835 50.1905 19.1737 50.1898L19.191 47.1899C20.9499 47.2 22.3724 48.6287 22.3724 50.3898H19.3724ZM19.3724 50.8966V50.3898H22.3724V50.8966H19.3724ZM19.1724 51.0966C19.2828 51.0966 19.3724 51.0071 19.3724 50.8966H22.3724C22.3724 52.6639 20.9397 54.0966 19.1724 54.0966V51.0966ZM15.7361 51.0966H19.1724V54.0966H15.7361V51.0966ZM15.5361 50.8966C15.5361 51.0071 15.6257 51.0966 15.7361 51.0966V54.0966C13.9688 54.0966 12.5361 52.6639 12.5361 50.8966H15.5361ZM15.5361 50.3898V50.8966H12.5361V50.3898H15.5361ZM15.7348 50.1898C15.6251 50.1904 15.5361 50.2798 15.5361 50.3898H12.5361C12.5361 48.6287 13.9587 47.1999 15.7176 47.1899L15.7348 50.1898ZM17.2262 40.4925V48.6898H14.2262V40.4925H17.2262ZM6.2436 38.9925H15.7262V41.9925H6.2436V38.9925ZM6.1436 38.8925C6.1436 38.9478 6.18838 38.9925 6.2436 38.9925V41.9925C4.53152 41.9925 3.1436 40.6046 3.1436 38.8925H6.1436ZM6.1436 38.2664V38.8925H3.1436V38.2664H6.1436ZM6.2436 38.1664C6.18837 38.1664 6.1436 38.2112 6.1436 38.2664H3.1436C3.1436 36.5544 4.53152 35.1664 6.2436 35.1664V38.1664ZM8.02217 38.1664H6.2436V35.1664H8.02217V38.1664ZM9.52217 32.8935V36.6664H6.52217V32.8935H9.52217ZM5.24365 31.8488C6.00113 31.8488 6.7788 31.7166 7.56474 31.4649L8.4796 34.322C7.43827 34.6555 6.35131 34.8488 5.24365 34.8488V31.8488ZM5.74365 32.3488C5.74365 32.0727 5.5198 31.8488 5.24365 31.8488V34.8488C3.86294 34.8488 2.74365 33.7295 2.74365 32.3488H5.74365ZM5.24365 32.8488C5.5198 32.8488 5.74365 32.625 5.74365 32.3488H2.74365C2.74365 30.9681 3.86294 29.8488 5.24365 29.8488V32.8488ZM12.7871 29.4838C10.5433 31.4715 7.86692 32.8488 5.24365 32.8488V29.8488C6.85641 29.8488 8.8515 28.9624 10.7978 27.2382L12.7871 29.4838ZM17.0506 24.0753C15.9939 26.0625 14.5047 27.9623 12.7871 29.4838L10.7978 27.2382C12.2461 25.9552 13.5124 24.3393 14.4018 22.6668L17.0506 24.0753ZM17.2262 15.5684V23.3711H14.2262V15.5684H17.2262ZM17.4543 15.3403C17.3283 15.3403 17.2262 15.4425 17.2262 15.5684H14.2262C14.2262 13.7856 15.6715 12.3403 17.4543 12.3403V15.3403ZM17.6824 15.5684C17.6824 15.4424 17.5803 15.3403 17.4543 15.3403V12.3403C19.2371 12.3403 20.6824 13.7856 20.6824 15.5684H17.6824ZM17.6824 23.3882V15.5684H20.6824V23.3882H17.6824ZM22.0318 29.4816C20.3389 27.9618 18.8913 26.0655 17.8536 24.0841L20.5112 22.6922C21.3902 24.3707 22.6207 25.9787 24.0359 27.2492L22.0318 29.4816ZM29.6648 32.8488C26.9281 32.8488 24.2513 31.4742 22.0318 29.4816L24.0359 27.2492C25.9296 28.9492 27.9226 29.8488 29.6648 29.8488V32.8488ZM37.2082 29.4838C34.9644 31.4715 32.2881 32.8488 29.6648 32.8488V29.8488C31.2776 29.8488 33.2726 28.9624 35.2189 27.2382L37.2082 29.4838ZM41.4716 24.0756C40.4149 26.0626 38.9257 27.9623 37.2082 29.4838L35.2189 27.2382C36.6671 25.9553 37.9335 24.3395 38.8228 22.667L41.4716 24.0756ZM41.6472 15.5684V23.3713H38.6472V15.5684H41.6472ZM8.60816 31.0633C9.3511 30.73 10.0857 30.3004 10.796 29.7943L12.5369 32.2375C11.6863 32.8436 10.781 33.3766 9.83618 33.8005L8.60816 31.0633ZM13.1665 31.0159V36.6664H10.1665V31.0159H13.1665ZM11.6665 38.1664H9.22217V35.1664H11.6665V38.1664ZM7.72217 36.6664V32.4319H10.7222V36.6664H7.72217ZM11.3665 36.6664V30.0774H14.3665V36.6664H11.3665ZM15.7262 38.1664H12.8665V35.1664H15.7262V38.1664ZM17.2262 27.0488V36.6664H14.2262V27.0488H17.2262ZM12.124 28.7353C12.9941 27.9645 13.8095 27.0843 14.5354 26.1366L16.917 27.961C16.0789 29.0551 15.133 30.0775 14.1133 30.9809L12.124 28.7353ZM11.8923 28.9368C11.9701 28.8704 12.0473 28.8032 12.124 28.7353L14.1133 30.9809C14.0231 31.0607 13.9322 31.1398 13.8406 31.2181L11.8923 28.9368ZM51.5747 32.4602L51.5747 36.6664L48.5747 36.6664L48.5747 32.4602L51.5747 32.4602ZM48.4976 29.8403C49.2008 30.3385 49.9313 30.76 50.6762 31.086L49.4732 33.8343C48.5203 33.4172 47.6129 32.8902 46.7633 32.2882L48.4976 29.8403ZM46.1304 36.6664V31.0642H49.1304V36.6664H46.1304ZM50.0747 38.1664H47.6304V35.1664H50.0747V38.1664ZM43.6034 35.1664H46.4304V38.1664H43.6034V35.1664ZM45.1034 27.1059V36.6664H42.1034V27.1059H45.1034ZM45.1168 30.9699C44.1264 30.0808 43.2149 29.0791 42.4069 28.0106L44.7999 26.2012C45.4987 27.1253 46.2813 27.9838 47.1209 28.7375L45.1168 30.9699ZM45.4548 31.2663C45.3409 31.1687 45.2282 31.0699 45.1168 30.9699L47.1209 28.7375C47.2151 28.8221 47.3102 28.9055 47.4061 28.9876L45.4548 31.2663ZM44.9304 36.6664V30.1269H47.9304V36.6664H44.9304ZM40.9034 48.6898V40.4925H43.9034V48.6898H40.9034ZM41.3472 47.1898H42.4034V50.1898H41.3472V47.1898ZM42.8472 40.4925V48.6898H39.8472V40.4925H42.8472ZM42.4034 41.9925H41.3472V38.9925H42.4034V41.9925ZM43.2292 48.5898H43.5934V51.5898H43.2292V48.5898ZM41.8753 49.2439C41.947 49.2439 42.0104 49.2126 42.0547 49.1569L44.4038 51.0228C43.8149 51.7642 42.9007 52.2439 41.8753 52.2439V49.2439ZM41.696 49.1569C41.7402 49.2126 41.8036 49.2439 41.8753 49.2439V52.2439C40.85 52.2439 39.9357 51.7642 39.3468 51.0228L41.696 49.1569ZM40.1572 48.5898H40.5214V51.5898H40.1572V48.5898ZM38.3572 50.3898C38.3572 49.3957 39.1631 48.5898 40.1572 48.5898V51.5898C40.8199 51.5898 41.3572 51.0526 41.3572 50.3898H38.3572ZM38.3572 50.8966V50.3898H41.3572V50.8966H38.3572ZM40.1572 52.6966C39.163 52.6966 38.3572 51.8907 38.3572 50.8966H41.3572C41.3572 50.2339 40.8199 49.6966 40.1572 49.6966V52.6966ZM43.5934 52.6966H40.1572V49.6966H43.5934V52.6966ZM45.3934 50.8966C45.3934 51.8907 44.5875 52.6966 43.5934 52.6966V49.6966C42.9307 49.6966 42.3934 50.2339 42.3934 50.8966H45.3934ZM45.3934 50.3898V50.8966H42.3934V50.3898H45.3934ZM43.5934 48.5898C44.5875 48.5898 45.3934 49.3957 45.3934 50.3898H42.3934C42.3934 51.0526 42.9307 51.5898 43.5934 51.5898V48.5898ZM17.4543 49.2439C17.526 49.2439 17.5894 49.2126 17.6336 49.1569L19.9828 51.0228C19.3939 51.7642 18.4796 52.2439 17.4543 52.2439V49.2439ZM17.2749 49.1569C17.3192 49.2126 17.3826 49.2439 17.4543 49.2439V52.2439C16.4289 52.2439 15.5147 51.7642 14.9258 51.0228L17.2749 49.1569ZM15.7361 48.5898H16.1004V51.5898H15.7361V48.5898ZM13.9361 50.3898C13.9361 49.3957 14.742 48.5898 15.7361 48.5898V51.5898C16.3989 51.5898 16.9361 51.0526 16.9361 50.3898H13.9361ZM13.9361 50.8966V50.3898H16.9361V50.8966H13.9361ZM15.7361 52.6966C14.742 52.6966 13.9361 51.8907 13.9361 50.8966H16.9361C16.9361 50.2339 16.3989 49.6966 15.7361 49.6966V52.6966ZM19.1724 52.6966H15.7361V49.6966H19.1724V52.6966ZM20.9724 50.8966C20.9724 51.8907 20.1665 52.6966 19.1724 52.6966V49.6966C18.5096 49.6966 17.9724 50.2339 17.9724 50.8966H20.9724ZM20.9724 50.3898V50.8966H17.9724V50.3898H20.9724ZM19.1724 48.5898C20.1665 48.5898 20.9724 49.3957 20.9724 50.3898H17.9724C17.9724 51.0526 18.5097 51.5898 19.1724 51.5898V48.5898ZM18.8082 48.5898H19.1724V51.5898H18.8082V48.5898ZM18.4262 40.4925V48.6898H15.4262V40.4925H18.4262ZM17.9824 41.9925H16.9262V38.9925H17.9824V41.9925ZM16.4824 48.6898V40.4925H19.4824V48.6898H16.4824ZM16.9262 47.1898H17.9824V50.1898H16.9262V47.1898ZM43.6034 36.3664H53.7486V39.3664H43.6034V36.3664ZM42.1034 39.2925V37.8664H45.1034V39.2925H42.1034ZM53.7486 40.7925H43.6034V37.7925H53.7486V40.7925ZM55.6486 38.8925C55.6486 39.9419 54.798 40.7925 53.7486 40.7925V37.7925C53.1411 37.7925 52.6486 38.285 52.6486 38.8925H55.6486ZM55.6486 38.2664V38.8925H52.6486V38.2664H55.6486ZM53.7486 36.3664C54.798 36.3664 55.6486 37.2171 55.6486 38.2664H52.6486C52.6486 38.874 53.1411 39.3664 53.7486 39.3664V36.3664ZM40.9034 39.2925V37.8664H43.9034V39.2925H40.9034ZM41.3472 37.7925H42.4034V40.7925H41.3472V37.7925ZM42.8472 37.8664V39.2925H39.8472V37.8664H42.8472ZM42.4034 39.3664L41.3472 39.3664L41.3472 36.3664L42.4034 36.3664L42.4034 39.3664ZM17.6824 39.2925V37.8664H20.6824V39.2925H17.6824ZM40.1472 40.7925L19.1824 40.7925L19.1824 37.7925L40.1472 37.7925L40.1472 40.7925ZM41.6472 37.8664V39.2925H38.6472V37.8664H41.6472ZM19.1824 36.3664H40.1472V39.3664H19.1824V36.3664ZM17.6824 36.6664V27.1059H20.6824V36.6664H17.6824ZM21.7614 38.1664H19.1824V35.1664H21.7614V38.1664ZM23.2614 30.02V36.6664H20.2614V30.02H23.2614ZM23.2485 30.1709C23.257 30.1212 23.2614 30.0707 23.2614 30.02H20.2614C20.2614 29.8998 20.2716 29.7812 20.2914 29.6653L23.2485 30.1709ZM22.6968 28.7348L22.769 28.7992L20.7709 31.037L20.6988 30.9726L22.6968 28.7348ZM20.3788 26.2012C21.0776 27.1253 21.8603 27.9838 22.6999 28.7375L20.6957 30.9699C19.7054 30.0808 18.7939 29.0791 17.9859 28.0106L20.3788 26.2012ZM21.4614 36.6664V30.8849H24.4614V36.6664H21.4614ZM25.4131 38.1664H22.9614V35.1664H25.4131V38.1664ZM26.9131 32.3518V36.6664H23.9131V32.3518H26.9131ZM23.8519 29.6778C24.5571 30.1981 25.2923 30.6424 26.0439 30.9908L24.7823 33.7127C23.8269 33.2698 22.9189 32.7177 22.0708 32.0919L23.8519 29.6778ZM27.5648 36.6664V33.3283H30.5648V36.6664H27.5648ZM26.6131 35.1664H29.0648V38.1664H26.6131V35.1664ZM28.1131 32.8309V36.6664H25.1131V32.8309H28.1131ZM28.9627 34.8248C27.9909 34.7585 27.0445 34.5576 26.1363 34.2531L27.0898 31.4087C27.7799 31.64 28.4745 31.7845 29.1669 31.8318L28.9627 34.8248ZM31.7648 33.3267V36.6664H28.7648V33.3267H31.7648ZM33.2117 34.2178C32.2976 34.5375 31.3464 34.7514 30.3746 34.8227L30.1551 31.8307C30.8329 31.781 31.5247 31.6297 32.2214 31.386L33.2117 34.2178ZM31.2166 36.6664V32.8019H34.2166V36.6664H31.2166ZM30.2648 35.1664H32.7166V38.1664H30.2648V35.1664ZM33.27 30.9518C34.0208 30.5932 34.7606 30.1383 35.4726 29.6082L37.264 32.0147C36.4155 32.6463 35.51 33.2065 34.5631 33.6589L33.27 30.9518ZM32.4166 36.6664V32.3053H35.4166V36.6664H32.4166ZM36.3683 38.1664H33.9166V35.1664H36.3683V38.1664ZM37.8683 30.8115V36.6664H34.8683V30.8115H37.8683ZM37.5683 35.1664H40.1472V38.1664H37.5683V35.1664ZM39.0683 29.8328V36.6664H36.0683V29.8328H39.0683ZM41.338 27.9611C40.5083 29.0442 39.5732 30.057 38.5652 30.9535L36.5713 28.712C37.4316 27.9468 38.2379 27.0748 38.9565 26.1368L41.338 27.9611ZM38.6472 36.6664V27.049H41.6472V36.6664H38.6472ZM19.4824 37.8664V39.2925H16.4824V37.8664H19.4824ZM16.9262 36.3664H17.9824V39.3664H16.9262V36.3664ZM15.4262 39.2925V37.8664H18.4262V39.2925H15.4262ZM17.9824 40.7925H16.9262V37.7925H17.9824V40.7925ZM16.4824 36.6664V25.3324H19.4824V36.6664H16.4824ZM16.9262 35.1664H17.9824V38.1664H16.9262V35.1664ZM18.4262 25.3008V36.6664H15.4262V25.3008H18.4262ZM18.7704 25.1004C18.5922 25.4316 18.4038 25.7595 18.2061 26.083L15.6463 24.5185C15.816 24.2409 15.9769 23.9608 16.1285 23.679L18.7704 25.1004ZM16.6973 26.1061C16.4961 25.7718 16.3046 25.4332 16.1237 25.0914L18.7752 23.6881C18.93 23.9805 19.0942 24.271 19.2674 24.5587L16.6973 26.1061ZM17.2262 37.8664V39.2925H14.2262V37.8664H17.2262ZM6.2436 36.3664H15.7262V39.3664H6.2436V36.3664ZM4.3436 38.2664C4.3436 37.2171 5.19427 36.3664 6.2436 36.3664V39.3664C6.85111 39.3664 7.3436 38.874 7.3436 38.2664H4.3436ZM4.3436 38.8925V38.2664H7.3436V38.8925H4.3436ZM6.2436 40.7925C5.19427 40.7925 4.3436 39.9419 4.3436 38.8925H7.3436C7.3436 38.285 6.85111 37.7925 6.2436 37.7925V40.7925ZM15.7262 40.7925H6.2436V37.7925H15.7262V40.7925ZM41.3472 35.1664H42.4034V38.1664H41.3472V35.1664ZM42.8472 25.301V36.6664H39.8472V25.301H42.8472ZM43.1915 25.1006C43.0133 25.4318 42.8249 25.7597 42.6271 26.0833L40.0674 24.5187C40.237 24.2411 40.398 23.9609 40.5496 23.6791L43.1915 25.1006ZM41.1183 26.1061C40.9171 25.7719 40.7257 25.4333 40.5448 25.0915L43.1963 23.6882C43.351 23.9805 43.5153 24.2711 43.6885 24.5587L41.1183 26.1061ZM40.9034 36.6664V25.3324H43.9034V36.6664H40.9034ZM17.6521 22.4425C17.6742 22.433 17.6958 22.4217 17.7167 22.4087L16.1356 19.8592C16.2388 19.7952 16.3473 19.7383 16.4605 19.6893L17.6521 22.4425ZM17.6575 22.4403L17.6378 22.4486L16.4748 19.6832L16.4945 19.6749L17.6575 22.4403ZM17.6457 22.4453L17.6331 22.4504L16.5189 19.6649L16.5316 19.6599L17.6457 22.4453ZM17.6398 22.4477L17.6278 22.4523L16.5494 19.6529L16.5614 19.6482L17.6398 22.4477ZM17.2994 22.4588C17.4033 22.4924 17.5219 22.4923 17.6311 22.4511L16.5702 19.6449C17.1212 19.4366 17.7039 19.4361 18.2248 19.605L17.2994 22.4588ZM17.2552 22.442C17.2696 22.4483 17.2844 22.4539 17.2994 22.4588L18.2248 19.605C18.301 19.6297 18.3758 19.658 18.4491 19.6898L17.2552 22.442ZM17.1917 22.4087C17.2126 22.4217 17.2343 22.433 17.2563 22.4425L18.4479 19.6893C18.5613 19.7384 18.6699 19.7953 18.7731 19.8593L17.1917 22.4087ZM19.4824 15.5684V21.134H16.4824V15.5684H19.4824ZM17.4543 13.5403C18.5744 13.5403 19.4824 14.4483 19.4824 15.5684H16.4824C16.4824 16.1052 16.9175 16.5403 17.4543 16.5403V13.5403ZM15.4262 15.5684C15.4262 14.4483 16.3342 13.5403 17.4543 13.5403V16.5403C17.9911 16.5403 18.4262 16.1052 18.4262 15.5684H15.4262ZM15.4262 21.1339V15.5684H18.4262V21.1339H15.4262ZM40.5567 19.8592C40.6928 19.7747 40.8381 19.7028 40.9912 19.6449L42.0521 22.4511C42.0813 22.44 42.1101 22.4259 42.1378 22.4087L40.5567 19.8592ZM42.8472 15.5684V21.1339H39.8472V15.5684H42.8472ZM41.8753 16.5403C42.4121 16.5403 42.8472 16.1052 42.8472 15.5684H39.8472C39.8472 14.4483 40.7552 13.5403 41.8753 13.5403V16.5403ZM40.9034 15.5684C40.9034 16.1052 41.3385 16.5403 41.8753 16.5403V13.5403C42.9954 13.5403 43.9034 14.4483 43.9034 15.5684H40.9034ZM40.9034 21.1339V15.5684H43.9034V21.1339H40.9034ZM42.7594 19.6449C42.9125 19.7028 43.0578 19.7747 43.1939 19.8592L41.6129 22.4087C41.6405 22.4259 41.6694 22.44 41.6985 22.4511L42.7594 19.6449ZM41.875 19.4831C42.1711 19.483 42.4707 19.5358 42.7594 19.6449L41.6985 22.4511C41.7542 22.4721 41.8147 22.4831 41.8756 22.4831L41.875 19.4831ZM40.9912 19.6449C41.2799 19.5357 41.5795 19.483 41.8756 19.4831L41.875 22.4831C41.9359 22.4831 41.9964 22.4721 42.0521 22.4511L40.9912 19.6449Z" fill="#F8F9FA" mask="url(#path-1-outside-1_50_5413)"/>
<path d="M5.24756 32.3513C10.1577 32.3513 15.4988 27.1684 17.4581 21.9858" stroke="#212529" stroke-width="2" stroke-linecap="round" stroke-linejoin="round"/>
<path d="M29.6687 32.3513C24.5263 32.3513 19.4174 27.1684 17.4582 21.9858" stroke="#212529" stroke-width="2" stroke-linecap="round" stroke-linejoin="round"/>
<path d="M29.6687 32.3513C34.5789 32.3513 39.92 27.1684 41.8793 21.9858" stroke="#212529" stroke-width="2" stroke-linecap="round" stroke-linejoin="round"/>
<path d="M54.0897 32.3513C48.9473 32.3513 43.8384 27.1684 41.8792 21.9858" stroke="#212529" stroke-width="2" stroke-linecap="round" stroke-linejoin="round"/>
<rect x="40.7511" y="14.4429" width="2.25618" height="35.7036" rx="1.12809" fill="#BAC8FF" stroke="#212529" stroke-width="1.2" stroke-linecap="round" stroke-linejoin="round"/>
<rect x="16.3301" y="14.4429" width="2.25618" height="35.7036" rx="1.12809" fill="#BAC8FF" stroke="#212529" stroke-width="1.2" stroke-linecap="round" stroke-linejoin="round"/>
<rect x="54.7526" y="37.269" width="2.62609" height="49.505" rx="1" transform="rotate(90 54.7526 37.269)" fill="#ADB5BD" stroke="#212529" stroke-width="1.2" stroke-linecap="round" stroke-linejoin="round"/>
<rect x="14.74" y="49.3926" width="5.43625" height="2.50678" rx="1" fill="#ADB5BD" stroke="#212529" stroke-width="1.4" stroke-linecap="round" stroke-linejoin="round"/>
<rect x="39.161" y="49.3926" width="5.43625" height="2.50678" rx="1" fill="#ADB5BD" stroke="#212529" stroke-width="1.4" stroke-linecap="round" stroke-linejoin="round"/>
<path d="M47.0343 30.0225V36.9669" stroke="#212529" stroke-width="1.2" stroke-linecap="round" stroke-linejoin="round"/>
<path d="M50.6786 31.8569L50.6786 36.967" stroke="#212529" stroke-width="1.2" stroke-linecap="round" stroke-linejoin="round"/>
<path d="M22.3652 30.0225V36.9669" stroke="#212529" stroke-width="1.2" stroke-linecap="round" stroke-linejoin="round"/>
<path d="M36.9722 28.7041L36.9722 36.9668" stroke="#212529" stroke-width="1.2" stroke-linecap="round" stroke-linejoin="round"/>
<path d="M26.017 31.8569L26.017 36.967" stroke="#212529" stroke-width="1.2" stroke-linecap="round" stroke-linejoin="round"/>
<path d="M33.3204 31.8569L33.3204 36.967" stroke="#212529" stroke-width="1.2" stroke-linecap="round" stroke-linejoin="round"/>
<path d="M29.6687 32.3511L29.6687 36.9668" stroke="#212529" stroke-width="1.2" stroke-linecap="round" stroke-linejoin="round"/>
<path d="M12.2704 30.0225V36.9669" stroke="#212529" stroke-width="1.2" stroke-linecap="round" stroke-linejoin="round"/>
<path d="M8.6261 31.8569L8.6261 36.967" stroke="#212529" stroke-width="1.2" stroke-linecap="round" stroke-linejoin="round"/>
</svg>
