<svg width="60" height="60" viewBox="0 0 60 60" fill="none" xmlns="http://www.w3.org/2000/svg">
<mask id="path-1-outside-1_50_7537" maskUnits="userSpaceOnUse" x="7.71509" y="8.09473" width="45" height="44" fill="black">
<rect fill="white" x="7.71509" y="8.09473" width="45" height="44"/>
<path fill-rule="evenodd" clip-rule="evenodd" d="M34.5657 12.5989C33.7424 11.6561 32.5877 11.5014 31.8585 12.1111C30.2489 13.457 28.603 15.5446 27.1127 17.6975C25.9979 19.3079 24.9989 20.9114 24.1811 22.224L24.181 22.2242C23.9083 22.6619 23.6558 23.0673 23.4258 23.4298C23.4145 23.4475 23.4094 23.4652 23.4089 23.4819L36.4025 36.4755C39.7543 33.7958 46.418 28.7395 48.5975 28.0937C48.5572 27.8962 48.4601 27.7095 48.3049 27.561L46.1878 25.536C46.159 25.5084 46.1264 25.5086 46.1082 25.5166C44.0032 26.4405 42.2736 27.5252 40.4272 28.8563C40.0044 29.1612 39.4889 29.0756 39.1728 28.7945C38.8528 28.5098 38.7072 27.9958 38.9807 27.5369C40.0473 25.7474 41.3341 24.1934 43.1187 22.5686C43.1747 22.5176 43.1663 22.4471 43.1373 22.4139L34.5657 12.5989ZM22.7674 21.3803C22.5433 21.7401 22.3349 22.0746 22.1443 22.3767C20.7769 21.57 18.9868 21.7539 17.8122 22.9285L17.0386 23.7021C15.646 25.0948 15.646 27.3528 17.0386 28.7454L21.2078 32.9146C21.2482 32.955 21.2461 33.0334 21.1849 33.071C17.5425 35.3117 13.0631 38.4232 11.332 40.1544C10.0781 41.4082 9.56558 42.9181 9.75243 44.4263C9.93648 45.9117 10.7855 47.2996 12.0697 48.3888L12.0709 48.3899C13.1684 49.4355 14.4998 50.2071 15.9101 50.3994C17.3729 50.5988 18.845 50.1614 20.092 48.9144C21.8231 47.1832 24.9347 42.7038 27.1753 39.0614C27.2129 39.0003 27.2913 38.9981 27.3318 39.0386L31.6176 43.3244C33.0102 44.717 35.2682 44.717 36.6609 43.3244L37.4345 42.5508C38.5163 41.4689 38.7578 39.865 38.1589 38.5501C39.0826 37.5908 40.6909 36.2927 42.571 34.9219C44.6543 33.403 47.0044 31.8425 48.9653 30.6344C50.4535 29.7176 50.7355 27.6083 49.4426 26.3716L47.3255 24.3466C46.8307 23.8733 46.0919 23.7262 45.4467 24.0095C44.389 24.4737 43.423 24.9752 42.4982 25.5191C43.0118 24.9445 43.5824 24.3723 44.2268 23.7857C44.9216 23.153 45.016 22.0629 44.377 21.3312L35.8054 11.5162C34.6013 10.1374 32.4381 9.48098 30.8027 10.8485C29.0156 12.3428 27.2671 14.5827 25.7594 16.7607C24.6194 18.4075 23.5879 20.0632 22.7674 21.3803L22.7674 21.3803Z"/>
</mask>
<path fill-rule="evenodd" clip-rule="evenodd" d="M34.5657 12.5989C33.7424 11.6561 32.5877 11.5014 31.8585 12.1111C30.2489 13.457 28.603 15.5446 27.1127 17.6975C25.9979 19.3079 24.9989 20.9114 24.1811 22.224L24.181 22.2242C23.9083 22.6619 23.6558 23.0673 23.4258 23.4298C23.4145 23.4475 23.4094 23.4652 23.4089 23.4819L36.4025 36.4755C39.7543 33.7958 46.418 28.7395 48.5975 28.0937C48.5572 27.8962 48.4601 27.7095 48.3049 27.561L46.1878 25.536C46.159 25.5084 46.1264 25.5086 46.1082 25.5166C44.0032 26.4405 42.2736 27.5252 40.4272 28.8563C40.0044 29.1612 39.4889 29.0756 39.1728 28.7945C38.8528 28.5098 38.7072 27.9958 38.9807 27.5369C40.0473 25.7474 41.3341 24.1934 43.1187 22.5686C43.1747 22.5176 43.1663 22.4471 43.1373 22.4139L34.5657 12.5989ZM22.7674 21.3803C22.5433 21.7401 22.3349 22.0746 22.1443 22.3767C20.7769 21.57 18.9868 21.7539 17.8122 22.9285L17.0386 23.7021C15.646 25.0948 15.646 27.3528 17.0386 28.7454L21.2078 32.9146C21.2482 32.955 21.2461 33.0334 21.1849 33.071C17.5425 35.3117 13.0631 38.4232 11.332 40.1544C10.0781 41.4082 9.56558 42.9181 9.75243 44.4263C9.93648 45.9117 10.7855 47.2996 12.0697 48.3888L12.0709 48.3899C13.1684 49.4355 14.4998 50.2071 15.9101 50.3994C17.3729 50.5988 18.845 50.1614 20.092 48.9144C21.8231 47.1832 24.9347 42.7038 27.1753 39.0614C27.2129 39.0003 27.2913 38.9981 27.3318 39.0386L31.6176 43.3244C33.0102 44.717 35.2682 44.717 36.6609 43.3244L37.4345 42.5508C38.5163 41.4689 38.7578 39.865 38.1589 38.5501C39.0826 37.5908 40.6909 36.2927 42.571 34.9219C44.6543 33.403 47.0044 31.8425 48.9653 30.6344C50.4535 29.7176 50.7355 27.6083 49.4426 26.3716L47.3255 24.3466C46.8307 23.8733 46.0919 23.7262 45.4467 24.0095C44.389 24.4737 43.423 24.9752 42.4982 25.5191C43.0118 24.9445 43.5824 24.3723 44.2268 23.7857C44.9216 23.153 45.016 22.0629 44.377 21.3312L35.8054 11.5162C34.6013 10.1374 32.4381 9.48098 30.8027 10.8485C29.0156 12.3428 27.2671 14.5827 25.7594 16.7607C24.6194 18.4075 23.5879 20.0632 22.7674 21.3803L22.7674 21.3803Z" fill="#F8F9FA"/>
<path d="M31.8585 12.1111L32.8207 13.2618L32.8207 13.2618L31.8585 12.1111ZM34.5657 12.5989L35.6955 11.6122L35.6955 11.6122L34.5657 12.5989ZM27.1127 17.6975L25.8794 16.8438L25.8794 16.8438L27.1127 17.6975ZM24.1811 22.224L25.4517 23.0213L25.4542 23.0172L24.1811 22.224ZM24.181 22.2242L22.9104 21.4269L22.9079 21.431L24.181 22.2242ZM23.4258 23.4298L22.1592 22.6262L22.1592 22.6262L23.4258 23.4298ZM23.4089 23.4819L21.9095 23.4391C21.8977 23.8516 22.0564 24.2507 22.3482 24.5425L23.4089 23.4819ZM36.4025 36.4755L35.3418 37.5361C35.8822 38.0765 36.7423 38.1242 37.3392 37.6471L36.4025 36.4755ZM48.5975 28.0937L49.0236 29.5319C49.7698 29.3109 50.2229 28.556 50.0672 27.7936L48.5975 28.0937ZM48.3049 27.561L47.268 28.645L47.2681 28.645L48.3049 27.561ZM46.1878 25.536L45.1509 26.6199L45.151 26.6199L46.1878 25.536ZM46.1082 25.5166L45.5053 24.1431L45.5053 24.1431L46.1082 25.5166ZM40.4272 28.8563L41.3044 30.0731L41.3044 30.0731L40.4272 28.8563ZM39.1728 28.7945L40.1696 27.6736L40.1696 27.6736L39.1728 28.7945ZM38.9807 27.5369L37.6922 26.7689L37.6922 26.769L38.9807 27.5369ZM43.1187 22.5686L42.1089 21.4594L42.1089 21.4594L43.1187 22.5686ZM43.1373 22.4139L42.0075 23.4006L42.0075 23.4006L43.1373 22.4139ZM22.1443 22.3767L21.3821 23.6686C22.0807 24.0808 22.9804 23.863 23.413 23.1769L22.1443 22.3767ZM22.7674 21.3803L21.5674 20.4803C21.5415 20.5148 21.5171 20.5505 21.4943 20.5871L22.7674 21.3803ZM17.8122 22.9285L18.8729 23.9892L18.8729 23.9892L17.8122 22.9285ZM17.0386 23.7021L18.0993 24.7628L18.0993 24.7628L17.0386 23.7021ZM17.0386 28.7454L18.0993 27.6848L18.0993 27.6848L17.0386 28.7454ZM21.2078 32.9146L22.2685 31.8539L22.2684 31.8539L21.2078 32.9146ZM21.1849 33.071L21.9709 34.3486L21.9709 34.3486L21.1849 33.071ZM11.332 40.1544L12.3926 41.215L12.3926 41.215L11.332 40.1544ZM9.75243 44.4263L8.26381 44.6107L8.26381 44.6107L9.75243 44.4263ZM12.0697 48.3888L11.0994 49.5327L11.1029 49.5357L12.0697 48.3888ZM12.0709 48.3899L13.1056 47.3038C13.0836 47.2829 13.0609 47.2625 13.0377 47.2429L12.0709 48.3899ZM15.9101 50.3993L15.7074 51.8856L15.7075 51.8856L15.9101 50.3993ZM20.092 48.9144L19.0313 47.8537L19.0313 47.8537L20.092 48.9144ZM27.1753 39.0614L25.8977 38.2755L25.8977 38.2755L27.1753 39.0614ZM27.3318 39.0386L28.3924 37.9779L28.3924 37.9779L27.3318 39.0386ZM31.6176 43.3244L30.5569 44.385L30.5569 44.385L31.6176 43.3244ZM36.6609 43.3244L35.6002 42.2637L35.6002 42.2637L36.6609 43.3244ZM37.4345 42.5508L38.4951 43.6114L38.4951 43.6114L37.4345 42.5508ZM38.1589 38.5501L37.0784 37.5096C36.6515 37.9528 36.5387 38.6118 36.7938 39.1718L38.1589 38.5501ZM42.571 34.9219L41.6873 33.7098L41.6873 33.7098L42.571 34.9219ZM48.9653 30.6344L49.7521 31.9115L49.7521 31.9115L48.9653 30.6344ZM49.4426 26.3716L48.4058 27.4556L48.4058 27.4556L49.4426 26.3716ZM47.3255 24.3466L48.3624 23.2626L48.3624 23.2626L47.3255 24.3466ZM45.4467 24.0095L46.0495 25.383L46.0495 25.383L45.4467 24.0095ZM42.4982 25.5191L41.3798 24.5195C40.8873 25.0706 40.8695 25.8983 41.338 26.4699C41.8065 27.0415 42.6216 27.1867 43.2586 26.812L42.4982 25.5191ZM44.2268 23.7856L43.2169 22.6765L43.2169 22.6765L44.2268 23.7856ZM44.377 21.3312L45.5068 20.3446L45.5068 20.3446L44.377 21.3312ZM35.8054 11.5162L36.9352 10.5295L36.9352 10.5295L35.8054 11.5162ZM30.8027 10.8485L31.7649 11.9992L31.7649 11.9992L30.8027 10.8485ZM25.7594 16.7607L26.9927 17.6145L26.9927 17.6145L25.7594 16.7607ZM22.7674 21.3803L23.9674 22.2803C23.9933 22.2457 24.0177 22.2101 24.0406 22.1734L22.7674 21.3803ZM32.8207 13.2618C32.8268 13.2568 32.8314 13.2542 32.8407 13.2518C32.8517 13.2491 32.8806 13.2442 32.9306 13.2525C33.0301 13.269 33.2242 13.3432 33.4359 13.5856L35.6955 11.6122C34.5018 10.2453 32.4288 9.67892 30.8963 10.9604L32.8207 13.2618ZM28.346 18.5513C29.8207 16.421 31.373 14.4724 32.8207 13.2618L30.8963 10.9604C29.1249 12.4416 27.3854 14.6682 25.8794 16.8438L28.346 18.5513ZM25.4542 23.0172C26.2738 21.7017 27.2548 20.1277 28.346 18.5513L25.8794 16.8438C24.7411 18.4882 23.724 20.121 22.908 21.4309L25.4542 23.0172ZM25.4516 23.0214L25.4517 23.0213L22.9105 21.4268L22.9104 21.427L25.4516 23.0214ZM24.6924 24.2333C24.9263 23.8646 25.1823 23.4537 25.4542 23.0174L22.9079 21.431C22.6343 21.8701 22.3852 22.2699 22.1592 22.6262L24.6924 24.2333ZM24.9083 23.5246C24.9005 23.7976 24.8149 24.0403 24.6924 24.2333L22.1592 22.6262C22.0142 22.8547 21.9182 23.1328 21.9095 23.4391L24.9083 23.5246ZM37.4632 35.4148L24.4695 22.4212L22.3482 24.5425L35.3418 37.5361L37.4632 35.4148ZM48.1714 26.6555C47.4134 26.8801 46.4352 27.4186 45.4564 28.0223C44.4332 28.6535 43.2612 29.4509 42.0692 30.3003C39.6829 32.0006 37.1562 33.9525 35.4658 35.3039L37.3392 37.6471C39.0006 36.3188 41.4817 34.4026 43.8101 32.7435C44.9754 31.9131 46.0874 31.1579 47.0314 30.5756C48.0198 29.966 48.6919 29.6302 49.0236 29.5319L48.1714 26.6555ZM47.2681 28.645C47.1905 28.5708 47.1452 28.4788 47.1279 28.3939L50.0672 27.7936C49.9692 27.3136 49.7297 26.8482 49.3417 26.4771L47.2681 28.645ZM45.151 26.6199L47.268 28.645L49.3417 26.4771L47.2247 24.452L45.151 26.6199ZM46.711 26.8901C46.1857 27.1207 45.5689 27.0197 45.1509 26.6199L47.2247 24.4521C46.7491 23.9971 46.0671 23.8965 45.5053 24.1431L46.711 26.8901ZM41.3044 30.0731C43.0991 28.7792 44.7348 27.7575 46.7111 26.8901L45.5053 24.1431C43.2715 25.1235 41.448 26.2712 39.55 27.6396L41.3044 30.0731ZM38.176 29.9153C38.9546 30.6078 40.2464 30.8359 41.3044 30.0731L39.55 27.6396C39.6406 27.5743 39.7643 27.5403 39.8845 27.5503C39.9901 27.5591 40.0875 27.6006 40.1696 27.6736L38.176 29.9153ZM37.6922 26.769C37.0047 27.9224 37.3877 29.2143 38.176 29.9153L40.1696 27.6736C40.2536 27.7483 40.3072 27.8426 40.3277 27.9503C40.3513 28.0744 40.328 28.2063 40.2692 28.3049L37.6922 26.769ZM42.1089 21.4594C40.2288 23.1711 38.8434 24.8376 37.6922 26.7689L40.2692 28.3049C41.2513 26.6572 42.4393 25.2156 44.1285 23.6777L42.1089 21.4594ZM42.0075 23.4006C41.5216 22.8442 41.5368 21.9803 42.1089 21.4594L44.1285 23.6778C44.8127 23.0549 44.811 22.05 44.2671 21.4272L42.0075 23.4006ZM33.4359 13.5856L42.0075 23.4006L44.2671 21.4272L35.6955 11.6122L33.4359 13.5856ZM23.413 23.1769C23.6062 22.8706 23.817 22.5323 24.0406 22.1734L21.4943 20.5871C21.2696 20.9478 21.0635 21.2786 20.8756 21.5766L23.413 23.1769ZM18.8729 23.9892C19.552 23.3101 20.5896 23.2011 21.3821 23.6686L22.9065 21.0848C20.9643 19.9389 18.4217 20.1977 16.7516 21.8679L18.8729 23.9892ZM18.0993 24.7628L18.8729 23.9892L16.7516 21.8679L15.978 22.6415L18.0993 24.7628ZM18.0993 27.6848C17.2924 26.8779 17.2924 25.5697 18.0993 24.7628L15.978 22.6415C13.9995 24.6199 13.9995 27.8276 15.978 29.8061L18.0993 27.6848ZM22.2684 31.8539L18.0993 27.6848L15.978 29.8061L20.1471 33.9752L22.2684 31.8539ZM21.9709 34.3486C22.8869 33.7851 22.9693 32.5548 22.2685 31.8539L20.1471 33.9752C19.5271 33.3552 19.6052 32.2817 20.399 31.7934L21.9709 34.3486ZM12.3926 41.215C13.9848 39.6228 18.3238 36.5922 21.9709 34.3486L20.399 31.7934C16.7613 34.0312 12.1414 37.2236 10.2713 39.0937L12.3926 41.215ZM11.241 44.2418C11.1154 43.2275 11.4399 42.1677 12.3926 41.215L10.2713 39.0937C8.71635 40.6487 8.01578 42.6087 8.26381 44.6107L11.241 44.2418ZM13.0399 47.2448C11.9757 46.3422 11.369 45.2748 11.241 44.2418L8.26381 44.6107C8.50392 46.5487 9.59524 48.2569 11.0994 49.5327L13.0399 47.2448ZM13.0377 47.2429L13.0364 47.2419L11.1029 49.5357L11.1042 49.5368L13.0377 47.2429ZM16.1127 48.9131C15.1024 48.7754 14.0482 48.2019 13.1056 47.3038L11.0362 49.4759C12.2886 50.6691 13.8972 51.6388 15.7074 51.8856L16.1127 48.9131ZM19.0313 47.8537C18.1114 48.7737 17.1049 49.0484 16.1127 48.9131L15.7075 51.8856C17.6408 52.1492 19.5786 51.5491 21.1527 49.975L19.0313 47.8537ZM25.8977 38.2755C23.6542 41.9225 20.6235 46.2615 19.0313 47.8537L21.1527 49.975C23.0228 48.1049 26.2151 43.4851 28.4529 39.8474L25.8977 38.2755ZM28.3924 37.9779C27.6915 37.277 26.4612 37.3595 25.8977 38.2755L28.4529 39.8474C27.9647 40.6411 26.8911 40.7192 26.2711 40.0992L28.3924 37.9779ZM32.6782 42.2637L28.3924 37.9779L26.2711 40.0992L30.5569 44.385L32.6782 42.2637ZM35.6002 42.2637C34.7933 43.0706 33.4851 43.0706 32.6782 42.2637L30.5569 44.385C32.5354 46.3635 35.7431 46.3635 37.7215 44.385L35.6002 42.2637ZM36.3738 41.4901L35.6002 42.2637L37.7215 44.385L38.4951 43.6114L36.3738 41.4901ZM36.7938 39.1718C37.1418 39.9359 36.9989 40.865 36.3738 41.4901L38.4951 43.6114C40.0337 42.0729 40.3737 39.794 39.5239 37.9283L36.7938 39.1718ZM41.6873 33.7098C39.7967 35.0883 38.0985 36.4503 37.0784 37.5096L39.2393 39.5905C40.0668 38.7312 41.5851 37.4971 43.4547 36.1339L41.6873 33.7098ZM48.1785 29.3573C46.1872 30.5841 43.8046 32.1661 41.6873 33.7098L43.4547 36.1339C45.504 34.6398 47.8215 33.1009 49.7521 31.9115L48.1785 29.3573ZM48.4058 27.4556C48.958 27.9838 48.8669 28.9332 48.1785 29.3573L49.7521 31.9115C52.04 30.502 52.5129 27.2328 50.4794 25.2877L48.4058 27.4556ZM46.2887 25.4305L48.4058 27.4556L50.4794 25.2877L48.3624 23.2626L46.2887 25.4305ZM46.0495 25.383C46.1222 25.3511 46.2176 25.3625 46.2887 25.4305L48.3624 23.2626C47.4439 22.384 46.0617 22.1013 44.8438 22.6359L46.0495 25.383ZM43.2586 26.812C44.136 26.296 45.0495 25.8219 46.0495 25.383L44.8438 22.6359C43.7285 23.1255 42.71 23.6543 41.7377 24.2262L43.2586 26.812ZM43.2169 22.6765C42.5394 23.2933 41.9318 23.9019 41.3798 24.5195L43.6166 26.5187C44.0917 25.987 44.6253 25.4513 45.2366 24.8948L43.2169 22.6765ZM43.2472 22.3179C43.3277 22.4101 43.3325 22.5712 43.2169 22.6765L45.2366 24.8948C46.5107 23.7348 46.7042 21.7156 45.5068 20.3446L43.2472 22.3179ZM34.6756 12.5029L43.2472 22.3179L45.5068 20.3446L36.9352 10.5295L34.6756 12.5029ZM31.7649 11.9992C32.5624 11.3323 33.8059 11.507 34.6756 12.5029L36.9352 10.5295C35.3966 8.76778 32.3137 7.62967 29.8405 9.69775L31.7649 11.9992ZM26.9927 17.6145C28.4845 15.4594 30.1395 13.3583 31.7649 11.9992L29.8405 9.69775C27.8918 11.3273 26.0496 13.706 24.526 15.907L26.9927 17.6145ZM24.0406 22.1734C24.8629 20.8535 25.8763 19.2272 26.9927 17.6145L24.526 15.907C23.3626 17.5878 22.313 19.273 21.4943 20.5871L24.0406 22.1734ZM23.9674 22.2803L23.9674 22.2803L21.5674 20.4803L21.5674 20.4803L23.9674 22.2803Z" fill="#F8F9FA" mask="url(#path-1-outside-1_50_7537)"/>
<path d="M31.1377 11.683C27.8225 14.5585 24.5384 20.1668 22.753 22.9862C22.5346 23.331 22.5419 23.7713 22.7773 24.1047C27.031 30.1293 35.2666 40.6588 37.2254 38.3881C39.0224 36.3049 44.388 32.544 48.3272 30.1024C49.4702 29.394 49.6688 27.7827 48.6971 26.8532L46.7876 25.0267C46.5013 24.7529 46.0794 24.6724 45.7169 24.8324C43.5887 25.7717 41.8365 26.8697 39.9994 28.1904C39.8256 28.3154 39.6077 28.1223 39.718 27.9388C40.7178 26.2758 41.923 24.8175 43.5996 23.2822C44.0091 22.9072 44.0563 22.2727 43.6911 21.8545L35.3343 12.2855C34.2257 11.0161 32.4109 10.5787 31.1377 11.683Z" fill="#F8F9FA" stroke="#212529" stroke-width="2" stroke-linecap="round"/>
<path fill-rule="evenodd" clip-rule="evenodd" d="M22.4459 23.739C21.2743 22.5674 19.3748 22.5674 18.2033 23.739L17.7928 24.1494C16.6213 25.321 16.6213 27.2205 17.7928 28.3921L21.7026 32.3019C22.1636 32.7629 22.0674 33.5348 21.5126 33.877C17.8863 36.1139 13.5453 39.1426 11.9047 40.7832C9.72775 42.9602 10.2662 45.8349 12.5928 47.8082C12.5931 47.8084 12.5936 47.8084 12.5938 47.8081C12.5941 47.8079 12.5946 47.8079 12.5949 47.8081C14.634 49.7721 17.3656 50.5145 19.5007 48.3794C21.1413 46.7388 24.17 42.3977 26.4069 38.7714C26.7492 38.2165 27.5211 38.1203 27.9821 38.5813L32.0086 42.6078C33.1802 43.7794 35.0797 43.7794 36.2512 42.6078L36.6617 42.1974C37.8332 41.0258 37.8332 39.1263 36.6617 37.9548L22.4459 23.739Z" fill="#FFEC99"/>
<path d="M22.4459 23.739L21.7388 24.4461L22.4459 23.739ZM12.5928 47.8082L13.2423 47.0478L13.2396 47.0455L12.5928 47.8082ZM12.5949 47.8081L11.9011 48.5283L11.9012 48.5284L12.5949 47.8081ZM36.2512 42.6078L36.9583 43.3149L36.2512 42.6078ZM36.6617 42.1974L35.9546 41.4903L36.6617 42.1974ZM36.6617 37.9548L37.3688 37.2476L36.6617 37.9548ZM21.5126 33.877L22.0376 34.7281L21.5126 33.877ZM18.9104 24.4461C19.6914 23.6651 20.9577 23.6651 21.7388 24.4461L23.153 23.0319C21.5909 21.4698 19.0583 21.4698 17.4962 23.0319L18.9104 24.4461ZM18.4999 24.8565L18.9104 24.4461L17.4962 23.0319L17.0857 23.4423L18.4999 24.8565ZM18.4999 27.685C17.7189 26.9039 17.7189 25.6376 18.4999 24.8565L17.0857 23.4423C15.5236 25.0044 15.5236 27.5371 17.0857 29.0992L18.4999 27.685ZM22.4098 31.5948L18.4999 27.685L17.0857 29.0992L20.9955 33.009L22.4098 31.5948ZM20.9876 33.0259C17.3648 35.2607 12.9305 38.3432 11.1976 40.0761L12.6118 41.4903C14.1601 39.942 18.4078 36.9672 22.0376 34.7281L20.9876 33.0259ZM11.1976 40.0761C9.90812 41.3656 9.37343 42.9287 9.56751 44.495C9.75817 46.0339 10.6357 47.4595 11.946 48.5708L13.2396 47.0455C12.2233 46.1835 11.6683 45.1852 11.5523 44.2491C11.4398 43.3406 11.7243 42.3778 12.6118 41.4903L11.1976 40.0761ZM11.9433 48.5685C12.3352 48.9033 12.9268 48.8894 13.3009 48.5153L11.8867 47.101C12.2603 46.7274 12.851 46.7136 13.2423 47.0478L11.9433 48.5685ZM13.3009 48.5153C12.9141 48.9021 12.2915 48.9044 11.9011 48.5283L13.2887 47.0879C12.8977 46.7113 12.2742 46.7136 11.8867 47.101L13.3009 48.5153ZM11.9012 48.5284C13.0241 49.6099 14.4027 50.4208 15.8768 50.6217C17.3951 50.8287 18.9222 50.3721 20.2078 49.0865L18.7936 47.6723C17.9441 48.5217 17.0379 48.7615 16.1469 48.6401C15.2116 48.5126 14.2049 47.9703 13.2886 47.0879L11.9012 48.5284ZM20.2078 49.0865C21.9407 47.3536 25.0233 42.9192 27.258 39.2964L25.5558 38.2464C23.3167 41.8762 20.3419 46.1239 18.7936 47.6723L20.2078 49.0865ZM32.7157 41.9007L28.6892 37.8742L27.275 39.2884L31.3015 43.3149L32.7157 41.9007ZM35.5441 41.9007C34.7631 42.6818 33.4968 42.6818 32.7157 41.9007L31.3015 43.3149C32.8636 44.877 35.3962 44.877 36.9583 43.3149L35.5441 41.9007ZM35.9546 41.4903L35.5441 41.9007L36.9583 43.3149L37.3688 42.9045L35.9546 41.4903ZM35.9546 38.6619C36.7356 39.4429 36.7356 40.7092 35.9546 41.4903L37.3688 42.9045C38.9309 41.3424 38.9309 38.8097 37.3688 37.2476L35.9546 38.6619ZM21.7388 24.4461L35.9546 38.6619L37.3688 37.2476L23.153 23.0319L21.7388 24.4461ZM27.258 39.2964C27.2599 39.2933 27.2612 39.292 27.2615 39.2917C27.2619 39.2913 27.2622 39.291 27.2627 39.2907C27.264 39.2899 27.267 39.2886 27.2711 39.2881C27.2751 39.2876 27.2768 39.2883 27.2757 39.288C27.275 39.2877 27.2741 39.2873 27.2734 39.2869C27.2725 39.2864 27.2731 39.2865 27.275 39.2884L28.6892 37.8742C27.7641 36.9492 26.2313 37.1514 25.5558 38.2464L27.258 39.2964ZM20.9955 33.009C20.9974 33.0109 20.9976 33.0114 20.9971 33.0106C20.9966 33.0098 20.9962 33.009 20.996 33.0083C20.9957 33.0072 20.9964 33.0088 20.9959 33.0129C20.9954 33.017 20.9941 33.0199 20.9933 33.0212C20.993 33.0217 20.9927 33.0221 20.9923 33.0225C20.992 33.0228 20.9907 33.024 20.9876 33.0259L22.0376 34.7281C23.1326 34.0527 23.3348 32.5198 22.4098 31.5948L20.9955 33.009Z" fill="#212529"/>
<g style="mix-blend-mode:multiply">
<path fill-rule="evenodd" clip-rule="evenodd" d="M17.3232 27.7843C17.4502 28.0012 17.6067 28.2056 17.7927 28.3917L20.5973 31.1963C20.5495 31.0604 20.471 30.9321 20.3606 30.8217L17.3232 27.7843ZM11.3378 46.4086C13.3674 48.3119 16.0532 49.0049 18.1588 46.8993C19.7994 45.2587 22.8281 40.9177 25.065 37.2914C25.4073 36.7365 26.1792 36.6403 26.6402 37.1013L30.6666 41.1277C31.8382 42.2993 33.7377 42.2993 34.9092 41.1277L35.3197 40.7173C36.3052 39.7317 36.4617 38.2311 35.7891 37.082L36.6615 37.9544C37.8331 39.1259 37.8331 41.0254 36.6615 42.197L36.2511 42.6074C35.0795 43.779 33.18 43.779 32.0085 42.6074L27.982 38.5809C27.521 38.12 26.7491 38.2162 26.4068 38.771C24.1699 42.3974 21.1412 46.7384 19.5005 48.379C17.3655 50.5141 14.6339 49.7717 12.5948 47.8077L12.5945 47.8076C12.5943 47.8075 12.5941 47.8075 12.594 47.8076C12.5939 47.8076 12.5938 47.8077 12.5937 47.8078L12.5932 47.808L12.5927 47.8078C12.0866 47.3786 11.6651 46.9067 11.3378 46.4086Z" fill="#E9ECEF"/>
</g>
<circle cx="16.3514" cy="44.0487" r="1.71898" transform="rotate(45 16.3514 44.0487)" fill="#F8F9FA" stroke="#212529" stroke-width="1.2"/>
<path d="M25.0475 25.9447C25.8345 24.5674 28.0431 21.3554 30.5812 19.5256" stroke="#212529" stroke-width="1.6" stroke-linecap="round"/>
<g style="mix-blend-mode:multiply">
<path d="M48.709 28.1084C46.6137 28.6036 39.4551 34.0607 36.1377 36.7273L37.0901 37.8225L48.709 29.3465V28.1084Z" fill="#E9ECEF"/>
</g>
<g style="mix-blend-mode:multiply">
<path d="M33.2504 18.651C31.7064 17.8455 33.5021 14.2316 34.593 12.5254L41.259 20.4283C40.8954 20.8479 39.7822 21.8548 38.2382 22.5261C36.3082 23.3653 36.4467 21.5851 37.446 19.9097C38.5645 18.0346 35.1804 19.658 33.2504 18.651Z" fill="#E9ECEF"/>
</g>
</svg>
