<svg width="60" height="60" viewBox="0 0 60 60" fill="none" xmlns="http://www.w3.org/2000/svg">
<mask id="path-1-outside-1_50_7097" maskUnits="userSpaceOnUse" x="3.06055" y="13.5688" width="54" height="31" fill="black">
<rect fill="white" x="3.06055" y="13.5688" width="54" height="31"/>
<path fill-rule="evenodd" clip-rule="evenodd" d="M17.1583 24.7817C19.8452 20.1253 24.6896 17.1688 30.0802 17.1688C35.1383 17.1688 38.9918 19.8036 41.5416 23.1123C41.9512 23.6439 42.3247 24.1896 42.6623 24.741C38.9504 23.9055 34.6166 23.4294 30 23.4294C25.3087 23.4294 20.9096 23.921 17.1583 24.7817ZM15.0788 25.3155C17.833 19.4391 23.5652 15.5688 30.0802 15.5688C35.7552 15.5688 40.0383 18.5404 42.8089 22.1357C43.5839 23.1413 44.2481 24.2057 44.7958 25.2799C45.6953 25.5336 46.5479 25.8101 47.3478 26.1074C49.584 26.9385 51.4495 27.9473 52.7704 29.1081C54.09 30.2676 54.9394 31.6487 54.9394 33.2013C54.9394 34.7538 54.09 36.1349 52.7704 37.2945C51.4495 38.4552 49.584 39.4641 47.3478 40.2952C42.8693 41.9597 36.7357 42.9731 30 42.9731C23.2642 42.9731 17.1306 41.9597 12.6521 40.2952C10.4159 39.4641 8.55043 38.4552 7.22947 37.2945C5.9099 36.1349 5.06055 34.7538 5.06055 33.2013C5.06055 31.6487 5.9099 30.2676 7.22947 29.1081C8.55043 27.9473 10.4159 26.9385 12.6521 26.1074C13.4147 25.8239 14.2254 25.5593 15.0788 25.3155ZM45.654 27.2117C46.0448 27.339 46.4238 27.4709 46.7904 27.6071C48.9226 28.3996 50.5922 29.324 51.7143 30.31C52.8378 31.2972 53.3394 32.2763 53.3394 33.2013C53.3394 34.1262 52.8378 35.1054 51.7143 36.0926C50.5922 37.0786 48.9226 38.003 46.7904 38.7954C42.5322 40.3781 36.596 41.3731 30 41.3731C23.4039 41.3731 17.4677 40.3781 13.2095 38.7954C11.0774 38.003 9.4077 37.0786 8.28561 36.0926C7.16214 35.1054 6.66055 34.1262 6.66055 33.2013C6.66055 32.2763 7.16214 31.2972 8.28561 30.31C9.4077 29.324 11.0774 28.3996 13.2095 27.6071C13.5665 27.4744 13.9353 27.3459 14.3152 27.2217C13.7661 28.8568 13.4346 30.6148 13.3598 32.4628C13.3306 33.1824 13.6197 33.9684 14.3447 34.412C15.8935 35.3599 20.0651 37.0683 30.0802 37.0683C40.6611 37.0683 44.5641 35.1614 45.837 34.243C46.3182 33.8959 46.5639 33.3727 46.6171 32.8539C46.7778 31.2873 46.4424 29.2867 45.654 27.2117ZM43.6758 26.6335C44.7374 28.9276 45.1834 31.1504 45.0255 32.6907C45.0113 32.8291 44.9554 32.9062 44.9008 32.9455C44.0227 33.5791 40.5161 35.4683 30.0802 35.4683C20.2161 35.4683 16.3779 33.7804 15.1798 33.0473C15.0555 32.9712 14.9473 32.8029 14.9585 32.5276C15.044 30.4169 15.4923 28.4419 16.2332 26.6574C20.0956 25.6369 24.8463 25.0294 30 25.0294C35.1132 25.0294 39.8299 25.6274 43.6758 26.6335Z"/>
</mask>
<path fill-rule="evenodd" clip-rule="evenodd" d="M17.1583 24.7817C19.8452 20.1253 24.6896 17.1688 30.0802 17.1688C35.1383 17.1688 38.9918 19.8036 41.5416 23.1123C41.9512 23.6439 42.3247 24.1896 42.6623 24.741C38.9504 23.9055 34.6166 23.4294 30 23.4294C25.3087 23.4294 20.9096 23.921 17.1583 24.7817ZM15.0788 25.3155C17.833 19.4391 23.5652 15.5688 30.0802 15.5688C35.7552 15.5688 40.0383 18.5404 42.8089 22.1357C43.5839 23.1413 44.2481 24.2057 44.7958 25.2799C45.6953 25.5336 46.5479 25.8101 47.3478 26.1074C49.584 26.9385 51.4495 27.9473 52.7704 29.1081C54.09 30.2676 54.9394 31.6487 54.9394 33.2013C54.9394 34.7538 54.09 36.1349 52.7704 37.2945C51.4495 38.4552 49.584 39.4641 47.3478 40.2952C42.8693 41.9597 36.7357 42.9731 30 42.9731C23.2642 42.9731 17.1306 41.9597 12.6521 40.2952C10.4159 39.4641 8.55043 38.4552 7.22947 37.2945C5.9099 36.1349 5.06055 34.7538 5.06055 33.2013C5.06055 31.6487 5.9099 30.2676 7.22947 29.1081C8.55043 27.9473 10.4159 26.9385 12.6521 26.1074C13.4147 25.8239 14.2254 25.5593 15.0788 25.3155ZM45.654 27.2117C46.0448 27.339 46.4238 27.4709 46.7904 27.6071C48.9226 28.3996 50.5922 29.324 51.7143 30.31C52.8378 31.2972 53.3394 32.2763 53.3394 33.2013C53.3394 34.1262 52.8378 35.1054 51.7143 36.0926C50.5922 37.0786 48.9226 38.003 46.7904 38.7954C42.5322 40.3781 36.596 41.3731 30 41.3731C23.4039 41.3731 17.4677 40.3781 13.2095 38.7954C11.0774 38.003 9.4077 37.0786 8.28561 36.0926C7.16214 35.1054 6.66055 34.1262 6.66055 33.2013C6.66055 32.2763 7.16214 31.2972 8.28561 30.31C9.4077 29.324 11.0774 28.3996 13.2095 27.6071C13.5665 27.4744 13.9353 27.3459 14.3152 27.2217C13.7661 28.8568 13.4346 30.6148 13.3598 32.4628C13.3306 33.1824 13.6197 33.9684 14.3447 34.412C15.8935 35.3599 20.0651 37.0683 30.0802 37.0683C40.6611 37.0683 44.5641 35.1614 45.837 34.243C46.3182 33.8959 46.5639 33.3727 46.6171 32.8539C46.7778 31.2873 46.4424 29.2867 45.654 27.2117ZM43.6758 26.6335C44.7374 28.9276 45.1834 31.1504 45.0255 32.6907C45.0113 32.8291 44.9554 32.9062 44.9008 32.9455C44.0227 33.5791 40.5161 35.4683 30.0802 35.4683C20.2161 35.4683 16.3779 33.7804 15.1798 33.0473C15.0555 32.9712 14.9473 32.8029 14.9585 32.5276C15.044 30.4169 15.4923 28.4419 16.2332 26.6574C20.0956 25.6369 24.8463 25.0294 30 25.0294C35.1132 25.0294 39.8299 25.6274 43.6758 26.6335Z" fill="#F8F9FA"/>
<path d="M30.0802 17.1688L30.0802 15.6688H30.0802V17.1688ZM17.1583 24.7817L15.8591 24.0321C15.5608 24.5489 15.5973 25.1934 15.952 25.6733C16.3067 26.1532 16.9121 26.3772 17.4938 26.2437L17.1583 24.7817ZM41.5416 23.1123L40.3534 24.0279L40.3534 24.0279L41.5416 23.1123ZM42.6623 24.741L42.3329 26.2044C42.9209 26.3367 43.531 26.1043 43.8819 25.6142C44.2328 25.1242 44.2563 24.4717 43.9416 23.9577L42.6623 24.741ZM15.0788 25.3155L15.491 26.7577C15.9079 26.6385 16.2529 26.3447 16.437 25.952L15.0788 25.3155ZM42.8089 22.1357L43.997 21.2201L43.997 21.2201L42.8089 22.1357ZM44.7958 25.2799L43.4595 25.9613C43.6495 26.3337 43.9863 26.6101 44.3887 26.7236L44.7958 25.2799ZM47.3478 26.1074L47.8704 24.7013L47.8704 24.7013L47.3478 26.1074ZM52.7704 29.1081L51.7803 30.2349L51.7803 30.2349L52.7704 29.1081ZM52.7704 37.2945L51.7803 36.1677L51.7803 36.1677L52.7704 37.2945ZM47.3478 40.2952L46.8252 38.8892L46.8252 38.8892L47.3478 40.2952ZM12.6521 40.2952L13.1747 38.8892L13.1747 38.8892L12.6521 40.2952ZM7.22947 37.2945L6.23934 38.4213L7.22947 37.2945ZM7.22947 29.1081L6.23934 27.9813L7.22947 29.1081ZM12.6521 26.1074L12.1295 24.7013L12.1295 24.7013L12.6521 26.1074ZM46.7904 27.6071L46.2678 29.0131L46.2678 29.0131L46.7904 27.6071ZM45.654 27.2117L46.1185 25.7854C45.5694 25.6066 44.9664 25.7589 44.5681 26.1769C44.1697 26.595 44.0467 27.2047 44.2518 27.7445L45.654 27.2117ZM51.7143 30.31L50.7242 31.4368L50.7242 31.4368L51.7143 30.31ZM51.7143 36.0926L52.7044 37.2194L52.7044 37.2194L51.7143 36.0926ZM46.7904 38.7954L47.313 40.2015L47.313 40.2015L46.7904 38.7954ZM13.2095 38.7954L12.6869 40.2015L12.6869 40.2015L13.2095 38.7954ZM8.28561 36.0926L7.29548 37.2194L7.29548 37.2194L8.28561 36.0926ZM8.28561 30.31L9.27574 31.4368L9.27574 31.4368L8.28561 30.31ZM13.2095 27.6071L13.7321 29.0131L13.7321 29.0131L13.2095 27.6071ZM14.3152 27.2217L15.7372 27.6993C15.9178 27.1616 15.7796 26.5681 15.3802 26.1654C14.9808 25.7627 14.3884 25.6197 13.8493 25.7959L14.3152 27.2217ZM13.3598 32.4628L11.861 32.4021L11.861 32.4021L13.3598 32.4628ZM14.3447 34.412L13.5617 35.6915L13.5617 35.6915L14.3447 34.412ZM45.837 34.243L46.7146 35.4595L46.7146 35.4595L45.837 34.243ZM46.6171 32.8539L45.1249 32.7009L45.1249 32.7009L46.6171 32.8539ZM45.0255 32.6907L43.5333 32.5377L43.5333 32.5377L45.0255 32.6907ZM43.6758 26.6335L45.0371 26.0036C44.849 25.5969 44.4889 25.2957 44.0555 25.1823L43.6758 26.6335ZM44.9008 32.9455L44.0232 31.729L44.0232 31.7291L44.9008 32.9455ZM15.1798 33.0473L14.3969 34.3267L14.3969 34.3267L15.1798 33.0473ZM14.9585 32.5276L13.4597 32.4669L13.4597 32.4669L14.9585 32.5276ZM16.2332 26.6574L15.85 25.2072C15.3978 25.3266 15.0272 25.6502 14.8479 26.0822L16.2332 26.6574ZM30.0802 15.6688C24.124 15.6688 18.7988 18.9375 15.8591 24.0321L18.4575 25.5314C20.8916 21.313 25.2551 18.6688 30.0802 18.6688V15.6688ZM42.7297 22.1967C39.9726 18.6189 35.7161 15.6688 30.0802 15.6688L30.0802 18.6688C34.5604 18.6688 38.011 20.9882 40.3534 24.0279L42.7297 22.1967ZM43.9416 23.9577C43.577 23.3622 43.1731 22.7721 42.7297 22.1967L40.3534 24.0279C40.7293 24.5156 41.0725 25.0171 41.3831 25.5242L43.9416 23.9577ZM30 24.9294C34.518 24.9294 38.7404 25.3958 42.3329 26.2044L42.9917 23.2776C39.1604 22.4152 34.7153 21.9294 30 21.9294V24.9294ZM17.4938 26.2437C21.1232 25.411 25.4087 24.9294 30 24.9294V21.9294C25.2087 21.9294 20.6961 22.431 16.8228 23.3197L17.4938 26.2437ZM16.437 25.952C18.9594 20.5703 24.1819 17.0688 30.0802 17.0688V14.0688C22.9485 14.0688 16.7066 18.3079 13.7206 24.6789L16.437 25.952ZM30.0802 17.0688C35.1764 17.0688 39.0569 19.7242 41.6208 23.0513L43.997 21.2201C41.0198 17.3566 36.3339 14.0688 30.0802 14.0688V17.0688ZM41.6208 23.0513C42.3369 23.9805 42.9521 24.9661 43.4595 25.9613L46.1322 24.5985C45.5441 23.4453 44.8308 22.302 43.997 21.2201L41.6208 23.0513ZM44.3887 26.7236C45.2527 26.9673 46.0666 27.2314 46.8252 27.5134L47.8704 24.7013C47.0293 24.3887 46.1379 24.0999 45.203 23.8362L44.3887 26.7236ZM46.8252 27.5134C48.9639 28.3082 50.6458 29.2379 51.7803 30.2349L53.7606 27.9813C52.2532 26.6567 50.2042 25.5687 47.8704 24.7013L46.8252 27.5134ZM51.7803 30.2349C52.9172 31.2339 53.4394 32.2382 53.4394 33.2013H56.4394C56.4394 31.0593 55.2628 29.3014 53.7606 27.9813L51.7803 30.2349ZM53.4394 33.2013C53.4394 34.1644 52.9172 35.1687 51.7803 36.1677L53.7606 38.4213C55.2628 37.1012 56.4394 35.3433 56.4394 33.2013H53.4394ZM51.7803 36.1677C50.6458 37.1646 48.9639 38.0943 46.8252 38.8892L47.8704 41.7012C50.2042 40.8338 52.2532 39.7458 53.7606 38.4213L51.7803 36.1677ZM46.8252 38.8892C42.5532 40.4769 36.6048 41.4731 30 41.4731V44.4731C36.8667 44.4731 43.1853 43.4425 47.8704 41.7012L46.8252 38.8892ZM30 41.4731C23.3952 41.4731 17.4467 40.4769 13.1747 38.8892L12.1295 41.7012C16.8146 43.4425 23.1332 44.4731 30 44.4731V41.4731ZM13.1747 38.8892C11.036 38.0943 9.35413 37.1646 8.2196 36.1677L6.23934 38.4213C7.74673 39.7458 9.79574 40.8338 12.1295 41.7012L13.1747 38.8892ZM8.2196 36.1677C7.08272 35.1687 6.56055 34.1644 6.56055 33.2013H3.56055C3.56055 35.3433 4.73709 37.1012 6.23934 38.4213L8.2196 36.1677ZM6.56055 33.2013C6.56055 32.2382 7.08272 31.2339 8.2196 30.2349L6.23934 27.9813C4.73709 29.3014 3.56055 31.0593 3.56055 33.2013H6.56055ZM8.2196 30.2349C9.35413 29.2379 11.036 28.3082 13.1747 27.5134L12.1295 24.7013C9.79574 25.5687 7.74673 26.6567 6.23934 27.9813L8.2196 30.2349ZM13.1747 27.5134C13.898 27.2446 14.6715 26.9919 15.491 26.7577L14.6666 23.8732C13.7792 24.1268 12.9315 24.4032 12.1295 24.7013L13.1747 27.5134ZM47.313 26.2011C46.9263 26.0574 46.5279 25.9188 46.1185 25.7854L45.1895 28.638C45.5617 28.7592 45.9214 28.8844 46.2678 29.0131L47.313 26.2011ZM52.7044 29.1832C51.3959 28.0334 49.5427 27.0298 47.313 26.2011L46.2678 29.0131C48.3024 29.7693 49.7885 30.6146 50.7242 31.4368L52.7044 29.1832ZM54.8394 33.2013C54.8394 31.6895 54.0134 30.3334 52.7044 29.1832L50.7242 31.4368C51.6622 32.261 51.8394 32.8632 51.8394 33.2013H54.8394ZM52.7044 37.2194C54.0134 36.0692 54.8394 34.7131 54.8394 33.2013H51.8394C51.8394 33.5394 51.6622 34.1416 50.7242 34.9658L52.7044 37.2194ZM47.313 40.2015C49.5427 39.3728 51.3959 38.3692 52.7044 37.2194L50.7242 34.9658C49.7885 35.7879 48.3024 36.6332 46.2678 37.3894L47.313 40.2015ZM30 42.8731C36.727 42.8731 42.8482 41.8609 47.313 40.2015L46.2678 37.3894C42.2162 38.8953 36.4651 39.8731 30 39.8731V42.8731ZM12.6869 40.2015C17.1517 41.8609 23.2729 42.8731 30 42.8731V39.8731C23.5349 39.8731 17.7838 38.8953 13.7321 37.3894L12.6869 40.2015ZM7.29548 37.2194C8.60402 38.3692 10.4573 39.3728 12.6869 40.2015L13.7321 37.3894C11.6975 36.6332 10.2114 35.7879 9.27574 34.9658L7.29548 37.2194ZM5.16055 33.2013C5.16055 34.7131 5.98653 36.0692 7.29548 37.2194L9.27574 34.9658C8.33775 34.1416 8.16055 33.5394 8.16055 33.2013H5.16055ZM7.29548 29.1832C5.98653 30.3334 5.16055 31.6895 5.16055 33.2013H8.16055C8.16055 32.8632 8.33775 32.261 9.27574 31.4368L7.29548 29.1832ZM12.6869 26.2011C10.4573 27.0298 8.60402 28.0334 7.29548 29.1832L9.27574 31.4368C10.2114 30.6146 11.6975 29.7693 13.7321 29.0131L12.6869 26.2011ZM13.8493 25.7959C13.4512 25.926 13.0635 26.0611 12.6869 26.2011L13.7321 29.0131C14.0695 28.8877 14.4193 28.7658 14.7812 28.6475L13.8493 25.7959ZM14.8585 32.5236C14.9277 30.8166 15.2335 29.1989 15.7372 27.6993L12.8933 26.7441C12.2986 28.5146 11.9416 30.4131 11.861 32.4021L14.8585 32.5236ZM15.1276 33.1326C14.9697 33.0359 14.846 32.8322 14.8585 32.5236L11.861 32.4021C11.8152 33.5326 12.2698 34.9008 13.5617 35.6915L15.1276 33.1326ZM30.0802 35.5683C20.2067 35.5683 16.3476 33.8792 15.1276 33.1326L13.5617 35.6915C15.4395 36.8406 19.9234 38.5683 30.0802 38.5683V35.5683ZM44.9593 33.0266C44.0565 33.678 40.5252 35.5683 30.0802 35.5683V38.5683C40.7971 38.5683 45.0717 36.6449 46.7146 35.4595L44.9593 33.0266ZM45.1249 32.7009C45.1081 32.8651 45.0391 32.969 44.9593 33.0266L46.7146 35.4595C47.5973 34.8227 48.0197 33.8803 48.1093 33.0069L45.1249 32.7009ZM44.2518 27.7445C44.987 29.6794 45.2545 31.4379 45.1249 32.7009L48.1093 33.0069C48.3011 31.1367 47.8978 28.8939 47.0562 26.6789L44.2518 27.7445ZM46.5176 32.8437C46.7123 30.9452 46.1665 28.4441 45.0371 26.0036L42.3145 27.2634C43.3084 29.4112 43.6545 31.3556 43.5333 32.5377L46.5176 32.8437ZM45.7785 34.162C46.2248 33.84 46.4657 33.3502 46.5176 32.8437L43.5333 32.5377C43.5568 32.308 43.686 31.9723 44.0232 31.729L45.7785 34.162ZM30.0802 36.9683C40.6521 36.9683 44.5303 35.0625 45.7785 34.1619L44.0232 31.7291C43.5151 32.0957 40.38 33.9683 30.0802 33.9683V36.9683ZM14.3969 34.3267C15.9238 35.2611 20.0745 36.9683 30.0802 36.9683V33.9683C20.3578 33.9683 16.832 32.2998 15.9628 31.7678L14.3969 34.3267ZM13.4597 32.4669C13.4308 33.1803 13.7252 33.9157 14.3969 34.3267L15.9628 31.7678C16.3859 32.0267 16.4638 32.4255 16.4572 32.5883L13.4597 32.4669ZM14.8479 26.0822C14.0384 28.0317 13.5523 30.181 13.4597 32.4669L16.4572 32.5883C16.5356 30.6528 16.9461 28.8521 17.6185 27.2326L14.8479 26.0822ZM30 23.5294C24.7358 23.5294 19.8544 24.1491 15.85 25.2072L16.6164 28.1076C20.3367 27.1246 24.9568 26.5294 30 26.5294V23.5294ZM44.0555 25.1823C40.0691 24.1395 35.223 23.5294 30 23.5294V26.5294C35.0034 26.5294 39.5908 27.1153 43.2962 28.0847L44.0555 25.1823Z" fill="#F8F9FA" mask="url(#path-1-outside-1_50_7097)"/>
<ellipse cx="30" cy="33.256" rx="24.1394" ry="8.97184" fill="#FFE066" stroke="#212529" stroke-width="1.8" stroke-linecap="round" stroke-linejoin="round"/>
<g style="mix-blend-mode:multiply">
<ellipse cx="33.2056" cy="32.8647" rx="15.1099" ry="4.13623" fill="#FFE066"/>
</g>
<path d="M45.8214 32.8273C45.7877 33.1559 45.6368 33.456 45.369 33.6493C44.2935 34.4252 40.5887 36.3233 30.0803 36.3233C20.1407 36.3233 16.1358 34.6251 14.7623 33.7846C14.3377 33.5248 14.139 33.0476 14.1592 32.5502C14.5351 23.2687 21.6438 16.4238 30.0803 16.4238C40.8133 16.4238 46.3536 27.6364 45.8214 32.8273Z" fill="#FFE066" stroke="#212529" stroke-width="1.8" stroke-linecap="round" stroke-linejoin="round"/>
<g style="mix-blend-mode:soft-light">
<path d="M18.1614 27.5703C18.7419 26.7424 18.2486 26.4287 17.728 26.8502C16.4356 27.8967 16.0397 29.9854 15.9671 31.2168C15.8945 32.4482 16.6572 31.9693 16.6817 31.2168C16.7236 29.9339 17.3606 28.7122 18.1614 27.5703Z" fill="#F8F9FA"/>
</g>
<g style="mix-blend-mode:multiply">
<path fill-rule="evenodd" clip-rule="evenodd" d="M42.8419 33.2674C43.1098 33.0741 43.2606 32.774 43.2943 32.4454C43.8111 27.4052 38.6027 16.6879 28.4747 16.0699C28.7832 16.0514 29.0937 16.042 29.406 16.042C40.139 16.042 45.6794 27.2545 45.1471 32.4454C45.1134 32.774 44.9626 33.0741 44.6947 33.2674C43.6192 34.0434 39.9144 35.9415 29.406 35.9415C29.0912 35.9415 28.7824 35.9398 28.4794 35.9364C38.2812 35.8288 41.7986 34.0201 42.8419 33.2674Z" fill="#DEE2E6"/>
</g>
</svg>
