<svg width="60" height="60" viewBox="0 0 60 60" fill="none" xmlns="http://www.w3.org/2000/svg">
<mask id="path-1-outside-1_50_284" maskUnits="userSpaceOnUse" x="3.67761" y="15.4571" width="52" height="31" fill="black">
<rect fill="white" x="3.67761" y="15.4571" width="52" height="31"/>
<path fill-rule="evenodd" clip-rule="evenodd" d="M8.11665 17.4571C6.76961 17.4571 5.67761 18.5491 5.67761 19.8962V38.2287C5.67761 38.9005 5.9492 39.5088 6.38857 39.9499C6.78767 40.4272 7.36831 40.7528 8.0368 40.8141L49.8079 44.6455C51.1493 44.7685 52.3364 43.7808 52.4595 42.4394L54.134 24.1836C54.257 22.8421 53.2693 21.655 51.9279 21.5319L49.6595 21.3239V19.8962C49.6595 18.5491 48.5675 17.4571 47.2204 17.4571H8.11665Z"/>
</mask>
<path fill-rule="evenodd" clip-rule="evenodd" d="M8.11665 17.4571C6.76961 17.4571 5.67761 18.5491 5.67761 19.8962V38.2287C5.67761 38.9005 5.9492 39.5088 6.38857 39.9499C6.78767 40.4272 7.36831 40.7528 8.0368 40.8141L49.8079 44.6455C51.1493 44.7685 52.3364 43.7808 52.4595 42.4394L54.134 24.1836C54.257 22.8421 53.2693 21.655 51.9279 21.5319L49.6595 21.3239V19.8962C49.6595 18.5491 48.5675 17.4571 47.2204 17.4571H8.11665Z" fill="#F8F9FA"/>
<path d="M6.38857 39.9499L7.53925 38.9877C7.51135 38.9543 7.48201 38.9222 7.45132 38.8913L6.38857 39.9499ZM8.0368 40.8141L7.89979 42.3078L7.89979 42.3078L8.0368 40.8141ZM49.8079 44.6455L49.6708 46.1392L49.6708 46.1392L49.8079 44.6455ZM52.4595 42.4394L50.9658 42.3024L50.9658 42.3024L52.4595 42.4394ZM54.134 24.1836L55.6277 24.3206L55.6277 24.3206L54.134 24.1836ZM51.9279 21.5319L51.7909 23.0257L51.7909 23.0257L51.9279 21.5319ZM49.6595 21.3239H48.1595C48.1595 22.0992 48.7503 22.7468 49.5224 22.8176L49.6595 21.3239ZM7.17761 19.8962C7.17761 19.3775 7.59803 18.9571 8.11665 18.9571V15.9571C5.94118 15.9571 4.17761 17.7207 4.17761 19.8962H7.17761ZM7.17761 38.2287V19.8962H4.17761V38.2287H7.17761ZM7.45132 38.8913C7.28055 38.7199 7.17761 38.4877 7.17761 38.2287H4.17761C4.17761 39.3132 4.61786 40.2977 5.32582 41.0085L7.45132 38.8913ZM8.17381 39.3203C7.91601 39.2967 7.69437 39.1731 7.53925 38.9877L5.23789 40.9122C5.88098 41.6812 6.82062 42.2088 7.89979 42.3078L8.17381 39.3203ZM49.9449 43.1518L8.17381 39.3203L7.89979 42.3078L49.6708 46.1392L49.9449 43.1518ZM50.9658 42.3024C50.9184 42.8189 50.4613 43.1991 49.9449 43.1518L49.6708 46.1392C51.8372 46.3379 53.7545 44.7428 53.9532 42.5764L50.9658 42.3024ZM52.6403 24.0465L50.9658 42.3024L53.9532 42.5764L55.6277 24.3206L52.6403 24.0465ZM51.7909 23.0257C52.3074 23.073 52.6876 23.5301 52.6403 24.0465L55.6277 24.3206C55.8264 22.1542 54.2313 20.2369 52.0649 20.0382L51.7909 23.0257ZM49.5224 22.8176L51.7909 23.0257L52.0649 20.0382L49.7965 19.8301L49.5224 22.8176ZM48.1595 19.8962V21.3239H51.1595V19.8962H48.1595ZM47.2204 18.9571C47.739 18.9571 48.1595 19.3775 48.1595 19.8962H51.1595C51.1595 17.7207 49.3959 15.9571 47.2204 15.9571V18.9571ZM8.11665 18.9571H47.2204V15.9571H8.11665V18.9571Z" fill="#F8F9FA" mask="url(#path-1-outside-1_50_284)"/>
<ellipse cx="27.8356" cy="28.9401" rx="6.98834" ry="6.85318" transform="rotate(10.7559 27.8356 28.9401)" fill="white" stroke="#212529" stroke-width="1.63216" stroke-linejoin="round"/>
<path d="M28.3948 28.5522C29.0888 28.8928 29.5795 29.2577 29.8667 29.6469C30.1571 30.0367 30.2534 30.4891 30.1556 31.004C30.0827 31.3877 29.9375 31.7163 29.7199 31.9898C29.506 32.2606 29.2242 32.4622 28.8744 32.5946C28.5283 32.7243 28.1288 32.7694 27.6757 32.7297L27.622 33.0127C27.5965 33.147 27.5351 33.2431 27.438 33.3008C27.3403 33.3618 27.2243 33.3795 27.09 33.354C26.9588 33.3291 26.859 33.2704 26.7904 33.1778C26.7212 33.0885 26.6994 32.9766 26.7249 32.8423L26.7805 32.5497C26.4398 32.4419 26.1175 32.2896 25.8137 32.0927C25.5136 31.8932 25.2477 31.6621 25.0159 31.3994C24.9443 31.3228 24.8902 31.233 24.8534 31.1299C24.8199 31.0275 24.8125 30.9267 24.8313 30.8275C24.8599 30.6772 24.9271 30.5591 25.0328 30.4732C25.1424 30.3847 25.2735 30.34 25.4261 30.3391C25.4657 30.34 25.4967 30.3426 25.5191 30.3469C25.6022 30.3627 25.6834 30.4062 25.7626 30.4776C26.0046 30.7389 26.2739 30.9608 26.5706 31.143C26.8711 31.3227 27.1605 31.439 27.4387 31.4918C27.8494 31.5798 28.1797 31.568 28.4295 31.4564C28.68 31.3416 28.8366 31.1361 28.8995 30.8399C28.9445 30.6033 28.858 30.3781 28.6402 30.1644C28.4223 29.9507 28.058 29.7142 27.5473 29.4548C26.8533 29.1142 26.3519 28.7274 26.0432 28.2943C25.7351 27.8581 25.6424 27.3865 25.7652 26.8797C25.85 26.538 25.9962 26.2477 26.204 26.0088C26.4155 25.7674 26.6842 25.5914 27.01 25.481C27.339 25.3712 27.716 25.3401 28.141 25.3877L28.2021 25.0663C28.2276 24.932 28.2892 24.8344 28.3869 24.7734C28.4847 24.7125 28.5991 24.6944 28.7302 24.7193C28.8645 24.7449 28.966 24.8039 29.0345 24.8964C29.1031 24.989 29.1246 25.1024 29.0991 25.2367L29.0326 25.5869C29.5079 25.7534 29.9281 25.9923 30.2931 26.3035C30.3883 26.3779 30.462 26.4698 30.5141 26.5791C30.57 26.6858 30.5862 26.8015 30.5625 26.9262C30.5266 27.1149 30.4488 27.2542 30.329 27.3441C30.2124 27.4346 30.0838 27.4665 29.943 27.4398C29.8695 27.4258 29.7977 27.3939 29.7276 27.3442C29.5153 27.1713 29.299 27.0275 29.0789 26.9128C28.8627 26.7955 28.6592 26.7154 28.4685 26.6726C28.4339 26.6627 28.3847 26.6517 28.3207 26.6395C27.9434 26.5679 27.6399 26.5781 27.4103 26.6704C27.1807 26.7626 27.045 26.9191 27.003 27.1397C26.9599 27.3668 27.0595 27.6011 27.3019 27.8426C27.5449 28.081 27.9092 28.3175 28.3948 28.5522Z" fill="#212529"/>
<path d="M8.31953 20.0188C8.40221 19.1173 9.19999 18.4536 10.1014 18.5363L51.8725 22.3677C52.7739 22.4504 53.4376 23.2482 53.355 24.1496L51.6805 42.4055C51.5978 43.3069 50.8 43.9706 49.8986 43.888L8.1275 40.0565C7.22607 39.9739 6.56234 39.1761 6.64502 38.2746L8.31953 20.0188Z" fill="#12B886" stroke="#212529" stroke-width="1.6" stroke-linejoin="round"/>
<g style="mix-blend-mode:multiply">
<path d="M50.6096 38.493V22.4326L46.9131 22.4326L23.318 41.7522L47.6416 41.4929C49.2859 41.4753 50.6096 40.1374 50.6096 38.493Z" fill="#DEE2E6"/>
</g>
<path d="M6.49524 19.9353C6.49524 19.0301 7.22906 18.2963 8.13428 18.2963H47.238C48.1433 18.2963 48.8771 19.0301 48.8771 19.9353V38.2678C48.8771 39.173 48.1433 39.9069 47.238 39.9069H8.13428C7.22906 39.9069 6.49524 39.173 6.49524 38.2678V19.9353Z" fill="#20C997" stroke="#212529" stroke-width="1.6" stroke-linejoin="round"/>
<circle cx="27.4124" cy="28.9494" r="6.85318" fill="#FFE066" stroke="#212529" stroke-width="1.2" stroke-linejoin="round"/>
<path d="M27.9479 28.464C28.6933 28.6691 29.2434 28.936 29.5983 29.2648C29.9563 29.5936 30.1354 30.02 30.1354 30.5441C30.1354 30.9347 30.054 31.2846 29.8912 31.5939C29.7317 31.8999 29.4925 32.1505 29.1735 32.3458C28.8577 32.5379 28.4736 32.6567 28.0211 32.7023V32.9904C28.0211 33.1271 27.9788 33.2329 27.8942 33.3077C27.8095 33.3859 27.6989 33.4249 27.5621 33.4249C27.4287 33.4249 27.3196 33.3859 27.235 33.3077C27.1503 33.2329 27.108 33.1271 27.108 32.9904V32.6925C26.7532 32.6502 26.4082 32.5607 26.0729 32.424C25.7408 32.284 25.4365 32.1066 25.1598 31.8917C25.0752 31.8299 25.0052 31.7518 24.9498 31.6574C24.8977 31.563 24.8717 31.4653 24.8717 31.3644C24.8717 31.2114 24.9156 31.0828 25.0035 30.9786C25.0947 30.8712 25.2151 30.8029 25.3649 30.7736C25.4039 30.7671 25.4349 30.7638 25.4576 30.7638C25.5423 30.7638 25.6302 30.7915 25.7213 30.8468C26.0078 31.0584 26.3138 31.226 26.6393 31.3497C26.9681 31.4702 27.274 31.5304 27.5573 31.5304C27.9772 31.5402 28.2994 31.4669 28.524 31.3107C28.7487 31.1512 28.8642 30.9201 28.8707 30.6173C28.8707 30.3764 28.7438 30.1714 28.4899 30.0021C28.236 29.8328 27.8339 29.6684 27.2838 29.5089C26.5384 29.3038 25.9736 29.0174 25.5895 28.6495C25.2054 28.2785 25.0263 27.8325 25.0524 27.3117C25.0719 26.9601 25.1614 26.6476 25.3209 26.3742C25.4837 26.0975 25.7148 25.8745 26.0143 25.7052C26.317 25.5359 26.6816 25.435 27.108 25.4025V25.0753C27.108 24.9386 27.1503 24.8312 27.235 24.7531C27.3196 24.6749 27.4287 24.6359 27.5621 24.6359C27.6989 24.6359 27.8095 24.6749 27.8942 24.7531C27.9788 24.8312 28.0211 24.9386 28.0211 25.0753V25.4318C28.5192 25.5066 28.9765 25.6629 29.3932 25.9005C29.5006 25.9559 29.5901 26.0324 29.6617 26.13C29.7366 26.2244 29.774 26.3351 29.774 26.462C29.774 26.6541 29.7236 26.8055 29.6227 26.9161C29.525 27.0268 29.4046 27.0822 29.2614 27.0822C29.1865 27.0822 29.11 27.0643 29.0319 27.0285C28.791 26.8982 28.5517 26.7973 28.3141 26.7257C28.0797 26.6508 27.8649 26.6102 27.6696 26.6036C27.6337 26.6004 27.5833 26.5988 27.5182 26.5988C27.1341 26.5988 26.8378 26.6655 26.6295 26.799C26.4212 26.9324 26.317 27.1115 26.317 27.3361C26.317 27.5672 26.4586 27.7788 26.7418 27.9708C27.025 28.1596 27.427 28.324 27.9479 28.464Z" fill="#212529"/>
<path d="M12.257 22.0962H10.283V24.3736" stroke="#212529" stroke-width="1.2" stroke-linecap="round" stroke-linejoin="round"/>
<path d="M10.1307 34.4311L10.1307 36.4052L12.4081 36.4052" stroke="#212529" stroke-width="1.2" stroke-linecap="round" stroke-linejoin="round"/>
<path d="M43.3492 21.9383H45.3232V24.2157" stroke="#212529" stroke-width="1.2" stroke-linecap="round" stroke-linejoin="round"/>
<path d="M45.4753 34.2732L45.4753 36.2473L43.198 36.2473" stroke="#212529" stroke-width="1.2" stroke-linecap="round" stroke-linejoin="round"/>
</svg>
