<svg width="60" height="60" viewBox="0 0 60 60" fill="none" xmlns="http://www.w3.org/2000/svg">
<mask id="path-1-outside-1_50_6607" maskUnits="userSpaceOnUse" x="13.395" y="5.62109" width="37" height="51" fill="black">
<rect fill="white" x="13.395" y="5.62109" width="37" height="51"/>
<path fill-rule="evenodd" clip-rule="evenodd" d="M19.8816 7.62109C18.3553 7.62109 17.118 8.85842 17.118 10.3847V20.7178C17.118 22.2441 18.3553 23.4815 19.8816 23.4815H20.5186L20.5186 31.3715C20.5186 31.4382 20.5223 31.5041 20.5295 31.5689H17.1717C16.1904 31.5689 15.395 32.3643 15.395 33.3455V34.9937C15.395 35.9749 16.1904 36.7703 17.1717 36.7703H17.4344V52.3664C17.4344 53.5269 18.3751 54.4677 19.5356 54.4677C20.6732 54.4677 21.6042 53.5625 21.6361 52.4254L21.7765 47.4301H41.7037L41.8441 52.4254C41.8761 53.5625 42.807 54.4677 43.9446 54.4677C45.1051 54.4677 46.0459 53.5269 46.0459 52.3664V36.7703H46.3085C47.2897 36.7703 48.0852 35.9749 48.0852 34.9937V33.3455C48.0852 32.3643 47.2897 31.5689 46.3085 31.5689H42.9506C42.9577 31.5041 42.9614 31.4382 42.9614 31.3715V23.4815H43.5985C45.1248 23.4815 46.3622 22.2441 46.3622 20.7178V10.3847C46.3622 8.85842 45.1248 7.62109 43.5985 7.62109H19.8816ZM42.9614 21.9022H43.5985C44.2526 21.9022 44.7829 21.372 44.7829 20.7178V10.3847C44.7829 9.73061 44.2526 9.20032 43.5985 9.20032H19.8816C19.2275 9.20032 18.6972 9.73061 18.6972 10.3847V20.7178C18.6972 21.372 19.2275 21.9022 19.8816 21.9022H20.5186L20.5187 14.0122C20.5187 13.031 21.3141 12.2356 22.2953 12.2356H23.5434C24.5246 12.2356 25.32 13.031 25.32 14.0122V21.9022H38.16V14.0122C38.16 13.031 38.9555 12.2356 39.9367 12.2356H41.1848C42.166 12.2356 42.9614 13.031 42.9614 14.0122V21.9022ZM39.7393 21.9022V14.0122C39.7393 13.9032 39.8277 13.8148 39.9367 13.8148H41.1848C41.2938 13.8148 41.3822 13.9032 41.3822 14.0122V21.9022H39.7393ZM39.7393 23.4815H41.3822V31.3715C41.3822 31.4798 41.295 31.5677 41.1869 31.5689H39.9345C39.8265 31.5677 39.7393 31.4798 39.7393 31.3715V23.4815ZM38.16 23.4815H25.32V31.3715C25.32 31.4382 25.3163 31.5041 25.3092 31.5689H38.1709C38.1637 31.5041 38.16 31.4382 38.16 31.3715V23.4815ZM23.7408 21.9022V14.0122C23.7408 13.9032 23.6524 13.8148 23.5434 13.8148H22.2953C22.1863 13.8148 22.0979 13.9032 22.0979 14.0122V21.9022H23.7408ZM22.0979 23.4815H23.7408V31.3715C23.7408 31.4798 23.6536 31.5677 23.5455 31.5689H22.2931C22.1851 31.5677 22.0979 31.4798 22.0979 31.3715V23.4815ZM22.2953 33.1481L22.2894 33.1481H17.1717C17.0626 33.1481 16.9742 33.2365 16.9742 33.3455V34.9937C16.9742 35.1027 17.0626 35.1911 17.1717 35.1911H18.2209L18.224 35.1911H21.3083L21.3113 35.1911H42.1689L42.1719 35.1911H45.2562L45.2593 35.1911H46.3085C46.4176 35.1911 46.5059 35.1027 46.5059 34.9937V33.3455C46.5059 33.2365 46.4176 33.1481 46.3085 33.1481H41.1907L41.1848 33.1481H39.9367L39.9308 33.1481H23.5493L23.5434 33.1481H22.2953ZM19.0136 36.7703H20.4962L20.3216 42.9842H19.7168C19.467 42.9842 19.2292 43.0357 19.0136 43.1288V36.7703ZM41.4042 36.7703H22.076L21.9014 42.9842H41.5788L41.4042 36.7703ZM43.1587 42.9842L42.984 36.7703H44.4666V43.1288C44.2509 43.0357 44.0131 42.9842 43.7633 42.9842H43.1587ZM19.0136 52.3664V47.2855C19.2292 47.3786 19.467 47.4301 19.7168 47.4301H20.1966L20.0575 52.3811C20.0496 52.6636 19.8183 52.8884 19.5356 52.8884C19.2473 52.8884 19.0136 52.6547 19.0136 52.3664ZM41.6232 44.5634H21.857L21.8209 45.8509H41.6594L41.6232 44.5634ZM43.2392 45.8509L43.203 44.5634H43.7633C43.8723 44.5634 43.9607 44.6518 43.9607 44.7608V45.6535C43.9607 45.7625 43.8723 45.8509 43.7633 45.8509H43.2392ZM43.2836 47.4301L43.4227 52.3811C43.4307 52.6636 43.662 52.8884 43.9446 52.8884C44.2329 52.8884 44.4666 52.6547 44.4666 52.3664V47.2854C44.2509 47.3785 44.0131 47.4301 43.7633 47.4301H43.2836ZM20.241 45.8509L20.2772 44.5634H19.7168C19.6078 44.5634 19.5194 44.6518 19.5194 44.7608V45.6535C19.5194 45.7625 19.6078 45.8509 19.7168 45.8509H20.241Z"/>
</mask>
<path fill-rule="evenodd" clip-rule="evenodd" d="M19.8816 7.62109C18.3553 7.62109 17.118 8.85842 17.118 10.3847V20.7178C17.118 22.2441 18.3553 23.4815 19.8816 23.4815H20.5186L20.5186 31.3715C20.5186 31.4382 20.5223 31.5041 20.5295 31.5689H17.1717C16.1904 31.5689 15.395 32.3643 15.395 33.3455V34.9937C15.395 35.9749 16.1904 36.7703 17.1717 36.7703H17.4344V52.3664C17.4344 53.5269 18.3751 54.4677 19.5356 54.4677C20.6732 54.4677 21.6042 53.5625 21.6361 52.4254L21.7765 47.4301H41.7037L41.8441 52.4254C41.8761 53.5625 42.807 54.4677 43.9446 54.4677C45.1051 54.4677 46.0459 53.5269 46.0459 52.3664V36.7703H46.3085C47.2897 36.7703 48.0852 35.9749 48.0852 34.9937V33.3455C48.0852 32.3643 47.2897 31.5689 46.3085 31.5689H42.9506C42.9577 31.5041 42.9614 31.4382 42.9614 31.3715V23.4815H43.5985C45.1248 23.4815 46.3622 22.2441 46.3622 20.7178V10.3847C46.3622 8.85842 45.1248 7.62109 43.5985 7.62109H19.8816ZM42.9614 21.9022H43.5985C44.2526 21.9022 44.7829 21.372 44.7829 20.7178V10.3847C44.7829 9.73061 44.2526 9.20032 43.5985 9.20032H19.8816C19.2275 9.20032 18.6972 9.73061 18.6972 10.3847V20.7178C18.6972 21.372 19.2275 21.9022 19.8816 21.9022H20.5186L20.5187 14.0122C20.5187 13.031 21.3141 12.2356 22.2953 12.2356H23.5434C24.5246 12.2356 25.32 13.031 25.32 14.0122V21.9022H38.16V14.0122C38.16 13.031 38.9555 12.2356 39.9367 12.2356H41.1848C42.166 12.2356 42.9614 13.031 42.9614 14.0122V21.9022ZM39.7393 21.9022V14.0122C39.7393 13.9032 39.8277 13.8148 39.9367 13.8148H41.1848C41.2938 13.8148 41.3822 13.9032 41.3822 14.0122V21.9022H39.7393ZM39.7393 23.4815H41.3822V31.3715C41.3822 31.4798 41.295 31.5677 41.1869 31.5689H39.9345C39.8265 31.5677 39.7393 31.4798 39.7393 31.3715V23.4815ZM38.16 23.4815H25.32V31.3715C25.32 31.4382 25.3163 31.5041 25.3092 31.5689H38.1709C38.1637 31.5041 38.16 31.4382 38.16 31.3715V23.4815ZM23.7408 21.9022V14.0122C23.7408 13.9032 23.6524 13.8148 23.5434 13.8148H22.2953C22.1863 13.8148 22.0979 13.9032 22.0979 14.0122V21.9022H23.7408ZM22.0979 23.4815H23.7408V31.3715C23.7408 31.4798 23.6536 31.5677 23.5455 31.5689H22.2931C22.1851 31.5677 22.0979 31.4798 22.0979 31.3715V23.4815ZM22.2953 33.1481L22.2894 33.1481H17.1717C17.0626 33.1481 16.9742 33.2365 16.9742 33.3455V34.9937C16.9742 35.1027 17.0626 35.1911 17.1717 35.1911H18.2209L18.224 35.1911H21.3083L21.3113 35.1911H42.1689L42.1719 35.1911H45.2562L45.2593 35.1911H46.3085C46.4176 35.1911 46.5059 35.1027 46.5059 34.9937V33.3455C46.5059 33.2365 46.4176 33.1481 46.3085 33.1481H41.1907L41.1848 33.1481H39.9367L39.9308 33.1481H23.5493L23.5434 33.1481H22.2953ZM19.0136 36.7703H20.4962L20.3216 42.9842H19.7168C19.467 42.9842 19.2292 43.0357 19.0136 43.1288V36.7703ZM41.4042 36.7703H22.076L21.9014 42.9842H41.5788L41.4042 36.7703ZM43.1587 42.9842L42.984 36.7703H44.4666V43.1288C44.2509 43.0357 44.0131 42.9842 43.7633 42.9842H43.1587ZM19.0136 52.3664V47.2855C19.2292 47.3786 19.467 47.4301 19.7168 47.4301H20.1966L20.0575 52.3811C20.0496 52.6636 19.8183 52.8884 19.5356 52.8884C19.2473 52.8884 19.0136 52.6547 19.0136 52.3664ZM41.6232 44.5634H21.857L21.8209 45.8509H41.6594L41.6232 44.5634ZM43.2392 45.8509L43.203 44.5634H43.7633C43.8723 44.5634 43.9607 44.6518 43.9607 44.7608V45.6535C43.9607 45.7625 43.8723 45.8509 43.7633 45.8509H43.2392ZM43.2836 47.4301L43.4227 52.3811C43.4307 52.6636 43.662 52.8884 43.9446 52.8884C44.2329 52.8884 44.4666 52.6547 44.4666 52.3664V47.2854C44.2509 47.3785 44.0131 47.4301 43.7633 47.4301H43.2836ZM20.241 45.8509L20.2772 44.5634H19.7168C19.6078 44.5634 19.5194 44.6518 19.5194 44.7608V45.6535C19.5194 45.7625 19.6078 45.8509 19.7168 45.8509H20.241Z" fill="#F8F9FA"/>
<path d="M20.5186 23.4815L22.0186 23.4815C22.0186 23.0836 21.8606 22.7021 21.5793 22.4208C21.298 22.1395 20.9165 21.9815 20.5186 21.9815V23.4815ZM20.5186 31.3715L19.0186 31.3715V31.3715H20.5186ZM20.5295 31.5689V33.0689C20.956 33.0689 21.3624 32.8873 21.6469 32.5696C21.9314 32.2519 22.0673 31.828 22.0204 31.4041L20.5295 31.5689ZM17.4344 36.7703H18.9344C18.9344 35.9419 18.2628 35.2703 17.4344 35.2703V36.7703ZM21.6361 52.4254L23.1355 52.4675L23.1355 52.4675L21.6361 52.4254ZM21.7765 47.4301V45.9301C20.9645 45.9301 20.2999 46.5763 20.2771 47.388L21.7765 47.4301ZM41.7037 47.4301L43.2031 47.388C43.1803 46.5763 42.5158 45.9301 41.7037 45.9301V47.4301ZM41.8441 52.4254L43.3435 52.3833L43.3435 52.3833L41.8441 52.4254ZM46.0459 36.7703V35.2703C45.2174 35.2703 44.5459 35.9419 44.5459 36.7703H46.0459ZM42.9506 31.5689L41.4597 31.4041C41.4128 31.828 41.5486 32.2519 41.8332 32.5696C42.1177 32.8873 42.5241 33.0689 42.9506 33.0689V31.5689ZM42.9614 23.4815V21.9815C42.133 21.9815 41.4614 22.653 41.4614 23.4815H42.9614ZM42.9614 21.9022H41.4614C41.4614 22.7307 42.133 23.4022 42.9614 23.4022V21.9022ZM20.5186 21.9022V23.4022C21.3471 23.4022 22.0186 22.7307 22.0186 21.9022L20.5186 21.9022ZM20.5187 14.0122L22.0187 14.0122V14.0122H20.5187ZM25.32 21.9022H23.82C23.82 22.7307 24.4916 23.4022 25.32 23.4022V21.9022ZM38.16 21.9022V23.4022C38.9885 23.4022 39.66 22.7307 39.66 21.9022H38.16ZM39.7393 21.9022H38.2393C38.2393 22.7307 38.9108 23.4022 39.7393 23.4022V21.9022ZM41.3822 21.9022V23.4022C42.2106 23.4022 42.8822 22.7307 42.8822 21.9022H41.3822ZM41.3822 23.4815H42.8822C42.8822 22.653 42.2106 21.9815 41.3822 21.9815V23.4815ZM39.7393 23.4815V21.9815C38.9108 21.9815 38.2393 22.653 38.2393 23.4815H39.7393ZM41.1869 31.5689V33.0689C41.1923 33.0689 41.1976 33.0689 41.2029 33.0688L41.1869 31.5689ZM39.9345 31.5689L39.9185 33.0688C39.9239 33.0689 39.9292 33.0689 39.9345 33.0689V31.5689ZM38.16 23.4815H39.66C39.66 22.653 38.9885 21.9815 38.16 21.9815V23.4815ZM25.32 23.4815V21.9815C24.4916 21.9815 23.82 22.653 23.82 23.4815H25.32ZM25.3092 31.5689L23.8183 31.4041C23.7714 31.828 23.9072 32.2519 24.1918 32.5696C24.4763 32.8873 24.8827 33.0689 25.3092 33.0689V31.5689ZM38.1709 31.5689V33.0689C38.5974 33.0689 39.0037 32.8873 39.2883 32.5696C39.5728 32.2519 39.7087 31.828 39.6618 31.4041L38.1709 31.5689ZM23.7408 21.9022V23.4022C24.5692 23.4022 25.2408 22.7307 25.2408 21.9022H23.7408ZM22.0979 21.9022H20.5979C20.5979 22.7307 21.2695 23.4022 22.0979 23.4022V21.9022ZM23.7408 23.4815H25.2408C25.2408 22.653 24.5692 21.9815 23.7408 21.9815V23.4815ZM22.0979 23.4815V21.9815C21.2695 21.9815 20.5979 22.653 20.5979 23.4815H22.0979ZM23.5455 31.5689V33.0689C23.5509 33.0689 23.5562 33.0689 23.5615 33.0688L23.5455 31.5689ZM22.2931 31.5689L22.2771 33.0688C22.2825 33.0689 22.2878 33.0689 22.2931 33.0689V31.5689ZM22.2894 33.1481L22.2918 31.6481H22.2894V33.1481ZM22.2953 33.1481L22.2929 34.6481H22.2953V33.1481ZM18.2209 35.1911L18.2209 36.6911L18.2238 36.6911L18.2209 35.1911ZM18.224 35.1911L18.224 33.6911L18.2212 33.6911L18.224 35.1911ZM21.3083 35.1911L21.3111 33.6911H21.3083V35.1911ZM21.3113 35.1911L21.3084 36.6911H21.3113V35.1911ZM42.1689 35.1911V36.6911L42.1718 36.6911L42.1689 35.1911ZM42.1719 35.1911V33.6911L42.1691 33.6911L42.1719 35.1911ZM45.2562 35.1911L45.2591 33.6911H45.2562V35.1911ZM45.2593 35.1911L45.2565 36.6911H45.2593V35.1911ZM41.1907 33.1481L41.1907 31.6481L41.1882 31.6481L41.1907 33.1481ZM41.1848 33.1481L41.1848 34.6481L41.1872 34.6481L41.1848 33.1481ZM39.9367 33.1481L39.9342 34.6481H39.9367V33.1481ZM39.9308 33.1481L39.9332 31.6481H39.9308V33.1481ZM23.5493 33.1481L23.5493 31.6481L23.5468 31.6481L23.5493 33.1481ZM23.5434 33.1481L23.5434 34.6481L23.5458 34.6481L23.5434 33.1481ZM20.4962 36.7703L21.9956 36.8125C22.007 36.4075 21.854 36.0151 21.5716 35.7247C21.2892 35.4342 20.9013 35.2703 20.4962 35.2703V36.7703ZM19.0136 36.7703V35.2703C18.1852 35.2703 17.5136 35.9419 17.5136 36.7703H19.0136ZM20.3216 42.9842V44.4842C21.1336 44.4842 21.7982 43.838 21.821 43.0263L20.3216 42.9842ZM19.0136 43.1288H17.5136C17.5136 43.6336 17.7676 44.1046 18.1894 44.382C18.6112 44.6594 19.1443 44.706 19.6078 44.506L19.0136 43.1288ZM22.076 36.7703V35.2703C21.264 35.2703 20.5994 35.9165 20.5766 36.7282L22.076 36.7703ZM41.4042 36.7703L42.9036 36.7282C42.8808 35.9165 42.2162 35.2703 41.4042 35.2703V36.7703ZM21.9014 42.9842L20.402 42.942C20.3906 43.347 20.5435 43.7394 20.826 44.0298C21.1084 44.3203 21.4963 44.4842 21.9014 44.4842V42.9842ZM41.5788 42.9842V44.4842C41.9839 44.4842 42.3718 44.3203 42.6543 44.0298C42.9367 43.7394 43.0896 43.347 43.0782 42.942L41.5788 42.9842ZM42.984 36.7703V35.2703C42.5789 35.2703 42.191 35.4342 41.9086 35.7247C41.6262 36.0151 41.4733 36.4075 41.4846 36.8125L42.984 36.7703ZM43.1587 42.9842L41.6592 43.0263C41.6821 43.838 42.3466 44.4842 43.1587 44.4842V42.9842ZM44.4666 36.7703H45.9666C45.9666 35.9419 45.2951 35.2703 44.4666 35.2703V36.7703ZM44.4666 43.1288L43.8723 44.5061C44.3358 44.7061 44.8689 44.6595 45.2908 44.3821C45.7126 44.1047 45.9666 43.6337 45.9666 43.1288H44.4666ZM19.0136 47.2855L19.6078 45.9082C19.1443 45.7082 18.6112 45.7548 18.1894 46.0323C17.7676 46.3097 17.5136 46.7807 17.5136 47.2855H19.0136ZM20.1966 47.4301L21.696 47.4722C21.7074 47.0673 21.5545 46.6749 21.2721 46.3845C20.9897 46.094 20.6018 45.9301 20.1966 45.9301V47.4301ZM20.0575 52.3811L21.5569 52.4232L21.5569 52.4232L20.0575 52.3811ZM21.857 44.5634V43.0634C21.045 43.0634 20.3804 43.7096 20.3576 44.5213L21.857 44.5634ZM41.6232 44.5634L43.1226 44.5213C43.0998 43.7096 42.4352 43.0634 41.6232 43.0634V44.5634ZM21.8209 45.8509L20.3214 45.8087C20.3101 46.2137 20.463 46.6061 20.7454 46.8965C21.0278 47.187 21.4157 47.3509 21.8209 47.3509V45.8509ZM41.6594 45.8509V47.3509C42.0645 47.3509 42.4524 47.187 42.7348 46.8965C43.0172 46.6061 43.1701 46.2137 43.1588 45.8087L41.6594 45.8509ZM43.203 44.5634V43.0634C42.7979 43.0634 42.41 43.2273 42.1276 43.5177C41.8452 43.8082 41.6922 44.2006 41.7036 44.6055L43.203 44.5634ZM43.2392 45.8509L41.7398 45.893C41.7626 46.7047 42.4272 47.3509 43.2392 47.3509V45.8509ZM43.4227 52.3811L44.9221 52.3389L44.9221 52.3389L43.4227 52.3811ZM43.2836 47.4301V45.9301C42.8785 45.9301 42.4906 46.094 42.2081 46.3845C41.9257 46.6749 41.7728 47.0673 41.7842 47.4722L43.2836 47.4301ZM44.4666 47.2854H45.9666C45.9666 46.7806 45.7126 46.3096 45.2908 46.0321C44.8689 45.7547 44.3358 45.7082 43.8723 45.9082L44.4666 47.2854ZM20.2772 44.5634L21.7766 44.6055C21.788 44.2006 21.6351 43.8082 21.3526 43.5177C21.0702 43.2273 20.6823 43.0634 20.2772 43.0634V44.5634ZM20.241 45.8509V47.3509C21.053 47.3509 21.7176 46.7047 21.7404 45.893L20.241 45.8509ZM18.618 10.3847C18.618 9.68685 19.1837 9.12109 19.8816 9.12109V6.12109C17.5269 6.12109 15.618 8.03 15.618 10.3847H18.618ZM18.618 20.7178V10.3847H15.618V20.7178H18.618ZM19.8816 21.9815C19.1837 21.9815 18.618 21.4157 18.618 20.7178H15.618C15.618 23.0726 17.5269 24.9815 19.8816 24.9815V21.9815ZM20.5186 21.9815H19.8816V24.9815H20.5186V21.9815ZM19.0186 23.4815L19.0186 31.3715L22.0186 31.3715L22.0186 23.4815L19.0186 23.4815ZM19.0186 31.3715C19.0186 31.4934 19.0254 31.6143 19.0386 31.7337L22.0204 31.4041C22.0193 31.3939 22.0186 31.3831 22.0186 31.3715H19.0186ZM20.5295 30.0689H17.1717V33.0689H20.5295V30.0689ZM17.1717 30.0689C15.362 30.0689 13.895 31.5359 13.895 33.3455H16.895C16.895 33.1927 17.0189 33.0689 17.1717 33.0689V30.0689ZM13.895 33.3455V34.9937H16.895V33.3455H13.895ZM13.895 34.9937C13.895 36.8033 15.362 38.2703 17.1717 38.2703V35.2703C17.0189 35.2703 16.895 35.1465 16.895 34.9937H13.895ZM17.1717 38.2703H17.4344V35.2703H17.1717V38.2703ZM15.9344 36.7703V52.3664H18.9344V36.7703H15.9344ZM15.9344 52.3664C15.9344 54.3553 17.5467 55.9677 19.5356 55.9677V52.9677C19.2036 52.9677 18.9344 52.6985 18.9344 52.3664H15.9344ZM19.5356 55.9677C21.4852 55.9677 23.0808 54.4163 23.1355 52.4675L20.1367 52.3833C20.1276 52.7086 19.8612 52.9677 19.5356 52.9677V55.9677ZM23.1355 52.4675L23.2759 47.4722L20.2771 47.388L20.1367 52.3833L23.1355 52.4675ZM21.7765 48.9301H41.7037V45.9301H21.7765V48.9301ZM40.2043 47.4722L40.3447 52.4675L43.3435 52.3833L43.2031 47.388L40.2043 47.4722ZM40.3447 52.4675C40.3995 54.4163 41.995 55.9677 43.9446 55.9677V52.9677C43.6191 52.9677 43.3527 52.7086 43.3435 52.3833L40.3447 52.4675ZM43.9446 55.9677C45.9335 55.9677 47.5459 54.3553 47.5459 52.3664H44.5459C44.5459 52.6985 44.2767 52.9677 43.9446 52.9677V55.9677ZM47.5459 52.3664V36.7703H44.5459V52.3664H47.5459ZM46.0459 38.2703H46.3085V35.2703H46.0459V38.2703ZM46.3085 38.2703C48.1182 38.2703 49.5852 36.8033 49.5852 34.9937H46.5852C46.5852 35.1465 46.4613 35.2703 46.3085 35.2703V38.2703ZM49.5852 34.9937V33.3455H46.5852V34.9937H49.5852ZM49.5852 33.3455C49.5852 31.5359 48.1182 30.0689 46.3085 30.0689V33.0689C46.4613 33.0689 46.5852 33.1928 46.5852 33.3455H49.5852ZM46.3085 30.0689H42.9506V33.0689H46.3085V30.0689ZM44.4415 31.7337C44.4547 31.6143 44.4614 31.4934 44.4614 31.3715H41.4614C41.4614 31.3831 41.4608 31.3939 41.4597 31.4041L44.4415 31.7337ZM44.4614 31.3715V23.4815H41.4614V31.3715H44.4614ZM43.5985 21.9815H42.9614V24.9815H43.5985V21.9815ZM44.8622 20.7178C44.8622 21.4157 44.2964 21.9815 43.5985 21.9815V24.9815C45.9533 24.9815 47.8622 23.0726 47.8622 20.7178H44.8622ZM44.8622 10.3847V20.7178H47.8622V10.3847H44.8622ZM43.5985 9.12109C44.2964 9.12109 44.8622 9.68685 44.8622 10.3847H47.8622C47.8622 8.03 45.9532 6.12109 43.5985 6.12109V9.12109ZM19.8816 9.12109H43.5985V6.12109H19.8816V9.12109ZM42.9614 23.4022H43.5985V20.4022H42.9614V23.4022ZM43.5985 23.4022C45.0811 23.4022 46.2829 22.2004 46.2829 20.7178H43.2829C43.2829 20.5435 43.4242 20.4022 43.5985 20.4022V23.4022ZM46.2829 20.7178V10.3847H43.2829V20.7178H46.2829ZM46.2829 10.3847C46.2829 8.90218 45.0811 7.70032 43.5985 7.70032V10.7003C43.4242 10.7003 43.2829 10.559 43.2829 10.3847H46.2829ZM43.5985 7.70032H19.8816V10.7003H43.5985V7.70032ZM19.8816 7.70032C18.3991 7.70032 17.1972 8.90218 17.1972 10.3847H20.1972C20.1972 10.559 20.0559 10.7003 19.8816 10.7003V7.70032ZM17.1972 10.3847V20.7178H20.1972V10.3847H17.1972ZM17.1972 20.7178C17.1972 22.2004 18.3991 23.4022 19.8816 23.4022V20.4022C20.0559 20.4022 20.1972 20.5435 20.1972 20.7178H17.1972ZM19.8816 23.4022H20.5186V20.4022H19.8816V23.4022ZM19.0187 14.0122L19.0186 21.9022L22.0186 21.9022L22.0187 14.0122L19.0187 14.0122ZM22.2953 10.7356C20.4856 10.7356 19.0187 12.2026 19.0187 14.0122H22.0187C22.0187 13.8594 22.1425 13.7356 22.2953 13.7356V10.7356ZM23.5434 10.7356H22.2953V13.7356H23.5434V10.7356ZM26.82 14.0122C26.82 12.2026 25.353 10.7356 23.5434 10.7356V13.7356C23.6962 13.7356 23.82 13.8594 23.82 14.0122H26.82ZM26.82 21.9022V14.0122H23.82V21.9022H26.82ZM25.32 23.4022H38.16V20.4022H25.32V23.4022ZM36.66 14.0122V21.9022H39.66V14.0122H36.66ZM39.9367 10.7356C38.127 10.7356 36.66 12.2026 36.66 14.0122H39.66C39.66 13.8594 39.7839 13.7356 39.9367 13.7356V10.7356ZM41.1848 10.7356H39.9367V13.7356H41.1848V10.7356ZM44.4614 14.0122C44.4614 12.2026 42.9944 10.7356 41.1848 10.7356V13.7356C41.3376 13.7356 41.4614 13.8594 41.4614 14.0122H44.4614ZM44.4614 21.9022V14.0122H41.4614V21.9022H44.4614ZM41.2393 21.9022V14.0122H38.2393V21.9022H41.2393ZM41.2393 14.0122C41.2393 14.7316 40.6561 15.3148 39.9367 15.3148V12.3148C38.9992 12.3148 38.2393 13.0747 38.2393 14.0122H41.2393ZM39.9367 15.3148H41.1848V12.3148H39.9367V15.3148ZM41.1848 15.3148C40.4654 15.3148 39.8822 14.7316 39.8822 14.0122H42.8822C42.8822 13.0747 42.1222 12.3148 41.1848 12.3148V15.3148ZM39.8822 14.0122V21.9022H42.8822V14.0122H39.8822ZM39.7393 23.4022H41.3822V20.4022H39.7393V23.4022ZM41.3822 21.9815H39.7393V24.9815H41.3822V21.9815ZM39.8822 23.4815V31.3715H42.8822V23.4815H39.8822ZM39.8822 31.3715C39.8822 30.6568 40.4577 30.0766 41.1709 30.069L41.2029 33.0688C42.1322 33.0589 42.8822 32.3029 42.8822 31.3715H39.8822ZM41.1869 30.0689H39.9345V33.0689H41.1869V30.0689ZM39.9505 30.069C40.6637 30.0766 41.2393 30.6567 41.2393 31.3715H38.2393C38.2393 32.3029 38.9892 33.0589 39.9185 33.0688L39.9505 30.069ZM41.2393 31.3715V23.4815H38.2393V31.3715H41.2393ZM38.16 21.9815H25.32V24.9815H38.16V21.9815ZM26.82 31.3715V23.4815H23.82V31.3715H26.82ZM26.8001 31.7337C26.8133 31.6143 26.82 31.4934 26.82 31.3715H23.82C23.82 31.383 23.8194 31.3939 23.8183 31.4041L26.8001 31.7337ZM38.1709 30.0689H25.3092V33.0689H38.1709V30.0689ZM36.66 31.3715C36.66 31.4934 36.6668 31.6143 36.68 31.7337L39.6618 31.4041C39.6607 31.3939 39.66 31.3831 39.66 31.3715H36.66ZM36.66 23.4815V31.3715H39.66V23.4815H36.66ZM25.2408 21.9022V14.0122H22.2408V21.9022H25.2408ZM25.2408 14.0122C25.2408 13.0748 24.4808 12.3148 23.5434 12.3148V15.3148C22.824 15.3148 22.2408 14.7316 22.2408 14.0122H25.2408ZM23.5434 12.3148H22.2953V15.3148H23.5434V12.3148ZM22.2953 12.3148C21.3578 12.3148 20.5979 13.0747 20.5979 14.0122H23.5979C23.5979 14.7316 23.0147 15.3148 22.2953 15.3148V12.3148ZM20.5979 14.0122V21.9022H23.5979V14.0122H20.5979ZM22.0979 23.4022H23.7408V20.4022H22.0979V23.4022ZM23.7408 21.9815H22.0979V24.9815H23.7408V21.9815ZM25.2408 31.3715V23.4815H22.2408V31.3715H25.2408ZM23.5615 33.0688C24.4908 33.0589 25.2408 32.3029 25.2408 31.3715H22.2408C22.2408 30.6567 22.8163 30.0766 23.5295 30.069L23.5615 33.0688ZM22.2931 33.0689H23.5455V30.0689H22.2931V33.0689ZM20.5979 31.3715C20.5979 32.3029 21.3478 33.0589 22.2771 33.0688L22.3091 30.069C23.0224 30.0766 23.5979 30.6567 23.5979 31.3715H20.5979ZM20.5979 23.4815V31.3715H23.5979V23.4815H20.5979ZM22.287 34.6481L22.2929 34.6481L22.2977 31.6481L22.2918 31.6481L22.287 34.6481ZM17.1717 34.6481H22.2894V31.6481H17.1717V34.6481ZM18.4742 33.3455C18.4742 34.0649 17.8911 34.6481 17.1717 34.6481V31.6481C16.2342 31.6481 15.4742 32.4081 15.4742 33.3455H18.4742ZM18.4742 34.9937V33.3455H15.4742V34.9937H18.4742ZM17.1717 33.6911C17.8911 33.6911 18.4742 34.2743 18.4742 34.9937H15.4742C15.4742 35.9311 16.2342 36.6911 17.1717 36.6911V33.6911ZM18.2209 33.6911H17.1717V36.6911H18.2209V33.6911ZM18.2212 33.6911L18.2181 33.6911L18.2238 36.6911L18.2268 36.6911L18.2212 33.6911ZM21.3083 33.6911H18.224V36.6911H21.3083V33.6911ZM21.3141 33.6911L21.3111 33.6911L21.3054 36.6911L21.3084 36.6911L21.3141 33.6911ZM42.1689 33.6911H21.3113V36.6911H42.1689V33.6911ZM42.1691 33.6911L42.1661 33.6911L42.1718 36.6911L42.1748 36.6911L42.1691 33.6911ZM45.2562 33.6911H42.1719V36.6911H45.2562V33.6911ZM45.2621 33.6911L45.2591 33.6911L45.2534 36.6911L45.2565 36.6911L45.2621 33.6911ZM46.3085 33.6911H45.2593V36.6911H46.3085V33.6911ZM45.0059 34.9937C45.0059 34.2743 45.5891 33.6911 46.3085 33.6911V36.6911C47.246 36.6911 48.0059 35.9312 48.0059 34.9937H45.0059ZM45.0059 33.3455V34.9937H48.0059V33.3455H45.0059ZM46.3085 34.6481C45.5891 34.6481 45.0059 34.0649 45.0059 33.3455H48.0059C48.0059 32.4081 47.246 31.6481 46.3085 31.6481V34.6481ZM41.1907 34.6481H46.3085V31.6481H41.1907V34.6481ZM41.1872 34.6481L41.1931 34.6481L41.1882 31.6481L41.1824 31.6481L41.1872 34.6481ZM39.9367 34.6481H41.1848V31.6481H39.9367V34.6481ZM39.9284 34.6481L39.9342 34.6481L39.9391 31.6481L39.9332 31.6481L39.9284 34.6481ZM23.5493 34.6481H39.9308V31.6481H23.5493V34.6481ZM23.5458 34.6481L23.5517 34.6481L23.5468 31.6481L23.541 31.6481L23.5458 34.6481ZM22.2953 34.6481H23.5434V31.6481H22.2953V34.6481ZM20.4962 35.2703H19.0136V38.2703H20.4962V35.2703ZM21.821 43.0263L21.9956 36.8125L18.9968 36.7282L18.8221 42.942L21.821 43.0263ZM19.7168 44.4842H20.3216V41.4842H19.7168V44.4842ZM19.6078 44.506C19.6393 44.4925 19.6751 44.4842 19.7168 44.4842V41.4842C19.2589 41.4842 18.8192 41.579 18.4194 41.7515L19.6078 44.506ZM17.5136 36.7703V43.1288H20.5136V36.7703H17.5136ZM22.076 38.2703H41.4042V35.2703H22.076V38.2703ZM23.4008 43.0263L23.5754 36.8125L20.5766 36.7282L20.402 42.942L23.4008 43.0263ZM41.5788 41.4842H21.9014V44.4842H41.5788V41.4842ZM39.9048 36.8125L40.0794 43.0263L43.0782 42.942L42.9036 36.7282L39.9048 36.8125ZM41.4846 36.8125L41.6592 43.0263L44.6581 42.942L44.4835 36.7282L41.4846 36.8125ZM44.4666 35.2703H42.984V38.2703H44.4666V35.2703ZM45.9666 43.1288V36.7703H42.9666V43.1288H45.9666ZM43.7633 44.4842C43.8049 44.4842 43.8408 44.4925 43.8723 44.5061L45.061 41.7516C44.6611 41.579 44.2213 41.4842 43.7633 41.4842V44.4842ZM43.1587 44.4842H43.7633V41.4842H43.1587V44.4842ZM17.5136 47.2855V52.3664H20.5136V47.2855H17.5136ZM19.7168 45.9301C19.6751 45.9301 19.6393 45.9218 19.6078 45.9082L18.4194 48.6628C18.8192 48.8353 19.2589 48.9301 19.7168 48.9301V45.9301ZM20.1966 45.9301H19.7168V48.9301H20.1966V45.9301ZM21.5569 52.4232L21.696 47.4722L18.6972 47.388L18.5581 52.3389L21.5569 52.4232ZM19.5356 54.3884C20.6303 54.3884 21.5262 53.5174 21.5569 52.4232L18.5581 52.3389C18.573 51.8097 19.0062 51.3884 19.5356 51.3884V54.3884ZM17.5136 52.3664C17.5136 53.4831 18.4189 54.3884 19.5356 54.3884V51.3884C20.0757 51.3884 20.5136 51.8263 20.5136 52.3664H17.5136ZM21.857 46.0634H41.6232V43.0634H21.857V46.0634ZM23.3203 45.893L23.3564 44.6055L20.3576 44.5213L20.3214 45.8087L23.3203 45.893ZM41.6594 44.3509H21.8209V47.3509H41.6594V44.3509ZM40.1238 44.6055L40.16 45.893L43.1588 45.8087L43.1226 44.5213L40.1238 44.6055ZM41.7036 44.6055L41.7398 45.893L44.7386 45.8087L44.7024 44.5213L41.7036 44.6055ZM43.7633 43.0634H43.203V46.0634H43.7633V43.0634ZM45.4607 44.7608C45.4607 43.8233 44.7007 43.0634 43.7633 43.0634V46.0634C43.0439 46.0634 42.4607 45.4802 42.4607 44.7608H45.4607ZM45.4607 45.6535V44.7608H42.4607V45.6535H45.4607ZM43.7633 47.3509C44.7007 47.3509 45.4607 46.591 45.4607 45.6535H42.4607C42.4607 44.934 43.0439 44.3509 43.7633 44.3509V47.3509ZM43.2392 47.3509H43.7633V44.3509H43.2392V47.3509ZM44.9221 52.3389L44.783 47.388L41.7842 47.4722L41.9233 52.4232L44.9221 52.3389ZM43.9446 51.3884C44.474 51.3884 44.9073 51.8097 44.9221 52.3389L41.9233 52.4232C41.9541 53.5174 42.8499 54.3884 43.9446 54.3884V51.3884ZM42.9666 52.3664C42.9666 51.8263 43.4045 51.3884 43.9446 51.3884V54.3884C45.0613 54.3884 45.9666 53.4831 45.9666 52.3664H42.9666ZM42.9666 47.2854V52.3664H45.9666V47.2854H42.9666ZM43.7633 48.9301C44.2213 48.9301 44.6611 48.8352 45.061 48.6627L43.8723 45.9082C43.8408 45.9218 43.8049 45.9301 43.7633 45.9301V48.9301ZM43.2836 48.9301H43.7633V45.9301H43.2836V48.9301ZM18.7778 44.5213L18.7416 45.8087L21.7404 45.893L21.7766 44.6055L18.7778 44.5213ZM19.7168 46.0634H20.2772V43.0634H19.7168V46.0634ZM21.0194 44.7608C21.0194 45.4802 20.4362 46.0634 19.7168 46.0634V43.0634C18.7794 43.0634 18.0194 43.8233 18.0194 44.7608H21.0194ZM21.0194 45.6535V44.7608H18.0194V45.6535H21.0194ZM19.7168 44.3509C20.4362 44.3509 21.0194 44.9341 21.0194 45.6535H18.0194C18.0194 46.5909 18.7794 47.3509 19.7168 47.3509V44.3509ZM20.241 44.3509H19.7168V47.3509H20.241V44.3509Z" fill="#F8F9FA" mask="url(#path-1-outside-1_50_6607)"/>
<rect x="24.5304" y="13.2363" width="19.3333" height="3.22215" rx="1" transform="rotate(90 24.5304 13.2363)" fill="#FFE066" stroke="#212529" stroke-width="1.4" stroke-linejoin="round"/>
<rect x="42.1718" y="13.2363" width="19.3333" height="3.22215" rx="1" transform="rotate(90 42.1718 13.2363)" fill="#FFE066" stroke="#212529" stroke-width="1.4" stroke-linejoin="round"/>
<rect x="18.7299" y="43.9854" width="26.0205" height="2.86672" rx="1" fill="#FFE066" stroke="#212529" stroke-width="1.4" stroke-linejoin="round"/>
<path d="M18.224 52.5776V36.1919H21.3083L20.8468 52.6144C20.8269 53.3242 20.2457 53.8892 19.5357 53.8892C18.8113 53.8892 18.224 53.302 18.224 52.5776Z" fill="#FFE066" stroke="#212529" stroke-width="1.4" stroke-linejoin="round"/>
<path d="M45.2562 52.5776V36.1919H42.1719L42.6334 52.6144C42.6533 53.3242 43.2345 53.8892 43.9446 53.8892C44.669 53.8892 45.2562 53.302 45.2562 52.5776Z" fill="#FFE066" stroke="#212529" stroke-width="1.4" stroke-linejoin="round"/>
<rect x="16.1847" y="32.5698" width="31.1109" height="3.62222" rx="1" fill="#FFE066" stroke="#212529" stroke-width="1.6" stroke-linejoin="round"/>
<rect x="17.9076" y="8.62207" width="27.665" height="14.2811" rx="2" fill="#FFE066" stroke="#212529" stroke-width="1.6" stroke-linejoin="round"/>
<g style="mix-blend-mode:multiply">
<rect x="44.0077" y="8.97754" width="1.09989" height="13.2109" fill="#FFE066"/>
</g>
<g style="mix-blend-mode:multiply">
<rect x="40.8329" y="23.2466" width="1.09989" height="9.41782" fill="#FFE066"/>
</g>
<g style="mix-blend-mode:multiply">
<rect x="44.0962" y="35.7222" width="1.47646" height="17.436" fill="#FFE066"/>
</g>
<g style="mix-blend-mode:soft-light" opacity="0.8">
<path d="M20.8693 11.3032C20.9116 10.6656 20.2187 10.685 19.9123 11.1011C19.6553 11.45 19.5083 12.8721 19.7587 13.9657C20.009 15.0594 20.8906 14.8793 20.8876 14.4092C20.8845 13.939 20.8163 12.1001 20.8693 11.3032Z" fill="#F8F9FA"/>
</g>
</svg>
