<svg width="60" height="60" viewBox="0 0 60 60" fill="none" xmlns="http://www.w3.org/2000/svg">
<g clip-path="url(#clip0_50_1671)">
<mask id="path-1-outside-1_50_1671" maskUnits="userSpaceOnUse" x="5.93115" y="22.9484" width="48" height="30" fill="black">
<rect fill="white" x="5.93115" y="22.9484" width="48" height="30"/>
<path fill-rule="evenodd" clip-rule="evenodd" d="M22.1894 26.9484C22.1894 25.8439 21.294 24.9484 20.1894 24.9484H13.658C12.5535 24.9484 11.658 25.8439 11.658 26.9484V49.2886H9.06898C8.5167 49.2886 8.06898 49.7363 8.06898 50.2886C8.06898 50.8409 8.5167 51.2886 9.06898 51.2886H13.5442C13.5819 51.2907 13.6199 51.2918 13.658 51.2918H20.1894C20.2276 51.2918 20.2655 51.2907 20.3032 51.2886H26.7235C26.7271 51.2886 26.7307 51.2886 26.7343 51.2886H33.2657C33.2693 51.2886 33.2729 51.2886 33.2765 51.2886H39.6964C39.7341 51.2907 39.7721 51.2918 39.8104 51.2918H46.3417C46.38 51.2918 46.418 51.2907 46.4557 51.2886H50.9312C51.4834 51.2886 51.9312 50.8409 51.9312 50.2886C51.9312 49.7363 51.4834 49.2886 50.9312 49.2886H48.3417V39.9835C48.3417 38.8789 47.4463 37.9835 46.3417 37.9835H39.8104C38.7058 37.9835 37.8104 38.879 37.8104 39.9835V49.2886H35.2657V33.5173C35.2657 32.4128 34.3703 31.5173 33.2657 31.5173H26.7343C25.6298 31.5173 24.7343 32.4128 24.7343 33.5173V49.2886H22.1894V26.9484ZM13.658 49.2886H20.1894V26.9484L13.658 26.9484V49.2886ZM26.7343 49.2886V33.5173L33.2657 33.5173V49.2886H26.7343ZM39.8104 49.2886L39.8104 39.9835L46.3417 39.9835V49.2886H39.8104Z"/>
</mask>
<path fill-rule="evenodd" clip-rule="evenodd" d="M22.1894 26.9484C22.1894 25.8439 21.294 24.9484 20.1894 24.9484H13.658C12.5535 24.9484 11.658 25.8439 11.658 26.9484V49.2886H9.06898C8.5167 49.2886 8.06898 49.7363 8.06898 50.2886C8.06898 50.8409 8.5167 51.2886 9.06898 51.2886H13.5442C13.5819 51.2907 13.6199 51.2918 13.658 51.2918H20.1894C20.2276 51.2918 20.2655 51.2907 20.3032 51.2886H26.7235C26.7271 51.2886 26.7307 51.2886 26.7343 51.2886H33.2657C33.2693 51.2886 33.2729 51.2886 33.2765 51.2886H39.6964C39.7341 51.2907 39.7721 51.2918 39.8104 51.2918H46.3417C46.38 51.2918 46.418 51.2907 46.4557 51.2886H50.9312C51.4834 51.2886 51.9312 50.8409 51.9312 50.2886C51.9312 49.7363 51.4834 49.2886 50.9312 49.2886H48.3417V39.9835C48.3417 38.8789 47.4463 37.9835 46.3417 37.9835H39.8104C38.7058 37.9835 37.8104 38.879 37.8104 39.9835V49.2886H35.2657V33.5173C35.2657 32.4128 34.3703 31.5173 33.2657 31.5173H26.7343C25.6298 31.5173 24.7343 32.4128 24.7343 33.5173V49.2886H22.1894V26.9484ZM13.658 49.2886H20.1894V26.9484L13.658 26.9484V49.2886ZM26.7343 49.2886V33.5173L33.2657 33.5173V49.2886H26.7343ZM39.8104 49.2886L39.8104 39.9835L46.3417 39.9835V49.2886H39.8104Z" fill="#F8F9FA"/>
<path d="M11.658 49.2886H13.158C13.158 50.117 12.4865 50.7886 11.658 50.7886V49.2886ZM13.5442 51.2886V49.7886C13.5723 49.7886 13.6003 49.7894 13.6283 49.7909L13.5442 51.2886ZM20.3032 51.2886L20.2192 49.7909C20.2471 49.7894 20.2752 49.7886 20.3032 49.7886L20.3032 51.2886ZM26.7235 51.2886L26.7235 49.7886L26.7315 49.7886L26.7235 51.2886ZM33.2765 51.2886L33.2686 49.7886H33.2765V51.2886ZM39.6964 51.2886V49.7886C39.7245 49.7886 39.7525 49.7894 39.7806 49.7909L39.6964 51.2886ZM46.4557 51.2886L46.3716 49.7909C46.3996 49.7894 46.4277 49.7886 46.4557 49.7886L46.4557 51.2886ZM48.3417 49.2886V50.7886C47.5133 50.7886 46.8417 50.117 46.8417 49.2886H48.3417ZM37.8104 49.2886H39.3104C39.3104 50.117 38.6388 50.7886 37.8104 50.7886V49.2886ZM35.2657 49.2886V50.7886C34.4373 50.7886 33.7657 50.117 33.7657 49.2886H35.2657ZM24.7343 49.2886H26.2343C26.2343 50.117 25.5628 50.7886 24.7343 50.7886V49.2886ZM22.1894 49.2886V50.7886C21.361 50.7886 20.6894 50.117 20.6894 49.2886H22.1894ZM20.1894 49.2886H21.6894C21.6894 50.117 21.0178 50.7886 20.1894 50.7886V49.2886ZM13.658 49.2886V50.7886C12.8296 50.7886 12.158 50.117 12.158 49.2886H13.658ZM20.1894 26.9484L20.1894 25.4484C21.0178 25.4484 21.6894 26.12 21.6894 26.9484H20.1894ZM13.658 26.9484H12.158C12.158 26.5506 12.3161 26.1691 12.5974 25.8878C12.8787 25.6065 13.2602 25.4484 13.658 25.4484L13.658 26.9484ZM26.7343 49.2886V50.7886C25.9059 50.7886 25.2343 50.117 25.2343 49.2886H26.7343ZM26.7343 33.5173H25.2343C25.2343 33.1195 25.3924 32.738 25.6737 32.4567C25.955 32.1754 26.3365 32.0173 26.7343 32.0173L26.7343 33.5173ZM33.2657 33.5173L33.2657 32.0173C34.0941 32.0173 34.7657 32.6889 34.7657 33.5173H33.2657ZM33.2657 49.2886H34.7657C34.7657 50.117 34.0941 50.7886 33.2657 50.7886V49.2886ZM39.8104 49.2886V50.7886C39.4126 50.7886 39.031 50.6305 38.7497 50.3492C38.4684 50.0679 38.3104 49.6864 38.3104 49.2886L39.8104 49.2886ZM39.8104 39.9835L38.3104 39.9835C38.3104 39.1551 38.982 38.4835 39.8104 38.4835L39.8104 39.9835ZM46.3417 39.9835L46.3417 38.4835C46.7396 38.4835 47.1211 38.6416 47.4024 38.9229C47.6837 39.2042 47.8417 39.5857 47.8417 39.9835H46.3417ZM46.3417 49.2886H47.8417C47.8417 50.117 47.1702 50.7886 46.3417 50.7886V49.2886ZM20.1894 23.4484C22.1224 23.4484 23.6894 25.0154 23.6894 26.9484H20.6894C20.6894 26.6723 20.4655 26.4484 20.1894 26.4484V23.4484ZM13.658 23.4484H20.1894V26.4484H13.658V23.4484ZM10.158 26.9484C10.158 25.0154 11.7251 23.4484 13.658 23.4484V26.4484C13.3819 26.4484 13.158 26.6723 13.158 26.9484H10.158ZM10.158 49.2886V26.9484H13.158V49.2886H10.158ZM11.658 50.7886H9.06898V47.7886H11.658V50.7886ZM9.06898 50.7886C9.34513 50.7886 9.56898 50.5647 9.56898 50.2886H6.56898C6.56898 48.9079 7.68827 47.7886 9.06898 47.7886V50.7886ZM9.56898 50.2886C9.56898 50.0124 9.34513 49.7886 9.06898 49.7886V52.7886C7.68827 52.7886 6.56898 51.6693 6.56898 50.2886H9.56898ZM9.06898 49.7886H13.5442V52.7886H9.06898V49.7886ZM13.658 52.7918C13.5918 52.7918 13.5259 52.7899 13.4602 52.7862L13.6283 49.7909C13.638 49.7915 13.6479 49.7918 13.658 49.7918V52.7918ZM20.1894 52.7918H13.658V49.7918H20.1894V52.7918ZM20.3872 52.7862C20.3216 52.7899 20.2556 52.7918 20.1894 52.7918V49.7918C20.1996 49.7918 20.2095 49.7915 20.2192 49.7909L20.3872 52.7862ZM20.3032 49.7886H26.7235V52.7886H20.3032V49.7886ZM26.7315 49.7886C26.7324 49.7886 26.7334 49.7886 26.7343 49.7886V52.7886C26.7281 52.7886 26.7218 52.7886 26.7156 52.7886L26.7315 49.7886ZM26.7343 49.7886H33.2657V52.7886H26.7343V49.7886ZM33.2657 49.7886C33.2666 49.7886 33.2676 49.7886 33.2686 49.7886L33.2844 52.7886C33.2782 52.7886 33.2719 52.7886 33.2657 52.7886V49.7886ZM33.2765 49.7886H39.6964V52.7886H33.2765V49.7886ZM39.7806 49.7909C39.7903 49.7915 39.8002 49.7918 39.8104 49.7918V52.7918C39.7441 52.7918 39.678 52.7899 39.6122 52.7862L39.7806 49.7909ZM39.8104 49.7918H46.3417V52.7918H39.8104V49.7918ZM46.3417 49.7918C46.3519 49.7918 46.3619 49.7915 46.3716 49.7909L46.5399 52.7862C46.4742 52.7899 46.4081 52.7918 46.3417 52.7918V49.7918ZM46.4557 49.7886H50.9312V52.7886H46.4557V49.7886ZM50.9312 49.7886C50.655 49.7886 50.4312 50.0124 50.4312 50.2886H53.4312C53.4312 51.6693 52.3119 52.7886 50.9312 52.7886V49.7886ZM50.4312 50.2886C50.4312 50.5647 50.655 50.7886 50.9312 50.7886V47.7886C52.3119 47.7886 53.4312 48.9079 53.4312 50.2886H50.4312ZM50.9312 50.7886H48.3417V47.7886H50.9312V50.7886ZM46.8417 49.2886V39.9835H49.8417V49.2886H46.8417ZM46.8417 39.9835C46.8417 39.7074 46.6179 39.4835 46.3417 39.4835V36.4835C48.2747 36.4835 49.8417 38.0505 49.8417 39.9835H46.8417ZM46.3417 39.4835H39.8104V36.4835H46.3417V39.4835ZM39.8104 39.4835C39.5342 39.4835 39.3104 39.7074 39.3104 39.9835H36.3104C36.3104 38.0505 37.8774 36.4835 39.8104 36.4835V39.4835ZM39.3104 39.9835V49.2886H36.3104V39.9835H39.3104ZM37.8104 50.7886H35.2657V47.7886H37.8104V50.7886ZM33.7657 49.2886V33.5173H36.7657V49.2886H33.7657ZM33.7657 33.5173C33.7657 33.2412 33.5418 33.0173 33.2657 33.0173V30.0173C35.1987 30.0173 36.7657 31.5843 36.7657 33.5173H33.7657ZM33.2657 33.0173H26.7343V30.0173H33.2657V33.0173ZM26.7343 33.0173C26.4582 33.0173 26.2343 33.2412 26.2343 33.5173H23.2343C23.2343 31.5843 24.8013 30.0173 26.7343 30.0173V33.0173ZM26.2343 33.5173V49.2886H23.2343V33.5173H26.2343ZM24.7343 50.7886H22.1894V47.7886H24.7343V50.7886ZM23.6894 26.9484V49.2886H20.6894V26.9484H23.6894ZM20.1894 50.7886H13.658V47.7886H20.1894V50.7886ZM18.6894 49.2886V26.9484H21.6894V49.2886H18.6894ZM20.1894 28.4484L13.658 28.4484L13.658 25.4484L20.1894 25.4484L20.1894 28.4484ZM15.158 26.9484V49.2886H12.158V26.9484H15.158ZM25.2343 49.2886V33.5173H28.2343V49.2886H25.2343ZM26.7343 32.0173L33.2657 32.0173L33.2657 35.0173L26.7343 35.0173L26.7343 32.0173ZM34.7657 33.5173V49.2886H31.7657V33.5173H34.7657ZM33.2657 50.7886H26.7343V47.7886H33.2657V50.7886ZM38.3104 49.2886L38.3104 39.9835L41.3104 39.9835L41.3104 49.2886L38.3104 49.2886ZM39.8104 38.4835L46.3417 38.4835L46.3417 41.4835L39.8104 41.4835L39.8104 38.4835ZM47.8417 39.9835V49.2886H44.8417V39.9835H47.8417ZM46.3417 50.7886H39.8104V47.7886H46.3417V50.7886Z" fill="#F8F9FA" mask="url(#path-1-outside-1_50_1671)"/>
<rect width="8.53135" height="11.3082" rx="1" transform="matrix(-1 0 0 1 47.3232 39.0048)" fill="#FF6B6B" stroke="#212529" stroke-width="2" stroke-linejoin="round"/>
<rect width="8.53135" height="17.7713" rx="1" transform="matrix(-1 0 0 1 34.2472 32.5386)" fill="#FFE066" stroke="#212529" stroke-width="2" stroke-linejoin="round"/>
<rect width="8.53135" height="24.3433" rx="1" transform="matrix(-1 0 0 1 21.1708 25.9697)" fill="#9775FA" stroke="#212529" stroke-width="2" stroke-linejoin="round"/>
<path fill-rule="evenodd" clip-rule="evenodd" d="M9.05043 50.3099H50.9126Z" fill="white"/>
<path d="M9.05043 50.3099H50.9126" stroke="#212529" stroke-width="2" stroke-linecap="round" stroke-linejoin="round"/>
<mask id="path-8-outside-2_50_1671" maskUnits="userSpaceOnUse" x="-11.4739" y="-20.8954" width="82.0244" height="82.0244" fill="black">
<rect fill="white" x="-11.4739" y="-20.8954" width="82.0244" height="82.0244"/>
<path fill-rule="evenodd" clip-rule="evenodd" d="M45.0591 22.2115C44.7568 21.9477 44.2826 22.1294 44.234 22.5276L43.9826 24.5868C43.9725 24.5852 43.9622 24.5837 43.9519 24.5824L43.9484 24.5819L43.9341 24.58L43.874 24.5719C43.8201 24.5645 43.7386 24.5532 43.6312 24.5375C43.4164 24.5061 43.0975 24.4575 42.6866 24.3892C41.8646 24.2525 40.6747 24.0373 39.2114 23.7239C36.2832 23.0968 32.2681 22.0784 27.9198 20.514C23.5936 18.9575 19.4044 16.7839 16.2869 14.9913C14.7306 14.0965 13.4471 13.2999 12.5537 12.7277C12.1072 12.4417 11.7584 12.212 11.5221 12.0544C11.404 11.9756 11.314 11.9148 11.2541 11.874L11.1868 11.8282L11.1705 11.817L11.166 11.8139C10.757 11.5313 10.1964 11.6339 9.91393 12.0428C9.63142 12.4518 9.73465 13.0128 10.1436 13.2954L10.1503 13.2999L10.1694 13.3131L10.2426 13.363C10.3066 13.4064 10.4007 13.47 10.5232 13.5517C10.768 13.7151 11.1262 13.951 11.5829 14.2435C12.4962 14.8284 13.8045 15.6403 15.3896 16.5518C18.5548 18.3717 22.8459 20.6014 27.3104 22.2077C31.7529 23.806 35.849 24.8447 38.8344 25.484C40.3279 25.8039 41.5453 26.0242 42.3915 26.1648C42.8147 26.2351 43.1451 26.2856 43.371 26.3186C43.484 26.3351 43.5708 26.3472 43.63 26.3553L43.6979 26.3645L43.716 26.3668L43.7233 26.3678C43.7372 26.3696 43.751 26.371 43.7647 26.3721L43.5217 28.3629C43.475 28.7451 43.8599 29.0344 44.2141 28.8834L49.1847 26.764C49.5239 26.6194 49.5952 26.1698 49.3173 25.9273L45.0591 22.2115ZM43.7233 26.3678C43.7234 26.3678 43.7234 26.3678 43.7299 26.3171C43.738 26.2535 43.7563 26.11 43.7978 25.7863L43.7233 26.3678ZM10.6544 12.5544L10.1436 13.2954C10.1435 13.2952 10.1429 13.2949 10.6544 12.5544Z"/>
</mask>
<path fill-rule="evenodd" clip-rule="evenodd" d="M45.0591 22.2115C44.7568 21.9477 44.2826 22.1294 44.234 22.5276L43.9826 24.5868C43.9725 24.5852 43.9622 24.5837 43.9519 24.5824L43.9484 24.5819L43.9341 24.58L43.874 24.5719C43.8201 24.5645 43.7386 24.5532 43.6312 24.5375C43.4164 24.5061 43.0975 24.4575 42.6866 24.3892C41.8646 24.2525 40.6747 24.0373 39.2114 23.7239C36.2832 23.0968 32.2681 22.0784 27.9198 20.514C23.5936 18.9575 19.4044 16.7839 16.2869 14.9913C14.7306 14.0965 13.4471 13.2999 12.5537 12.7277C12.1072 12.4417 11.7584 12.212 11.5221 12.0544C11.404 11.9756 11.314 11.9148 11.2541 11.874L11.1868 11.8282L11.1705 11.817L11.166 11.8139C10.757 11.5313 10.1964 11.6339 9.91393 12.0428C9.63142 12.4518 9.73465 13.0128 10.1436 13.2954L10.1503 13.2999L10.1694 13.3131L10.2426 13.363C10.3066 13.4064 10.4007 13.47 10.5232 13.5517C10.768 13.7151 11.1262 13.951 11.5829 14.2435C12.4962 14.8284 13.8045 15.6403 15.3896 16.5518C18.5548 18.3717 22.8459 20.6014 27.3104 22.2077C31.7529 23.806 35.849 24.8447 38.8344 25.484C40.3279 25.8039 41.5453 26.0242 42.3915 26.1648C42.8147 26.2351 43.1451 26.2856 43.371 26.3186C43.484 26.3351 43.5708 26.3472 43.63 26.3553L43.6979 26.3645L43.716 26.3668L43.7233 26.3678C43.7372 26.3696 43.751 26.371 43.7647 26.3721L43.5217 28.3629C43.475 28.7451 43.8599 29.0344 44.2141 28.8834L49.1847 26.764C49.5239 26.6194 49.5952 26.1698 49.3173 25.9273L45.0591 22.2115ZM43.7233 26.3678C43.7234 26.3678 43.7234 26.3678 43.7299 26.3171C43.738 26.2535 43.7563 26.11 43.7978 25.7863L43.7233 26.3678ZM10.6544 12.5544L10.1436 13.2954C10.1435 13.2952 10.1429 13.2949 10.6544 12.5544Z" fill="#F8F9FA"/>
<path d="M44.234 22.5276L45.7229 22.7094L45.723 22.7093L44.234 22.5276ZM45.0591 22.2115L46.0453 21.0813L46.0453 21.0813L45.0591 22.2115ZM43.9826 24.5868L43.7418 26.0674C44.1447 26.1329 44.5569 26.0314 44.8833 25.7863C45.2097 25.5413 45.4221 25.1737 45.4716 24.7686L43.9826 24.5868ZM43.9519 24.5824L43.7591 26.0699L43.7615 26.0702L43.9519 24.5824ZM43.9484 24.5819L43.7529 26.0691L43.7556 26.0695L43.9484 24.5819ZM43.9341 24.58L43.7337 26.0666L43.7387 26.0672L43.9341 24.58ZM43.874 24.5719L43.6706 26.0581L43.6736 26.0585L43.874 24.5719ZM43.6312 24.5375L43.4144 26.0217L43.4144 26.0217L43.6312 24.5375ZM42.6866 24.3892L42.9325 22.9095L42.9325 22.9095L42.6866 24.3892ZM39.2114 23.7239L38.8973 25.1907L38.8973 25.1907L39.2114 23.7239ZM27.9198 20.514L28.4276 19.1025L28.4276 19.1025L27.9198 20.514ZM16.2869 14.9913L17.0346 13.691L17.0346 13.691L16.2869 14.9913ZM12.5537 12.7277L11.7447 13.9909L11.7447 13.9909L12.5537 12.7277ZM11.5221 12.0544L12.3546 10.8066L12.3546 10.8066L11.5221 12.0544ZM11.2541 11.874L10.4089 13.1133L10.4112 13.1148L11.2541 11.874ZM11.1868 11.8282L10.3381 13.065L10.3417 13.0674L11.1868 11.8282ZM11.1705 11.817L10.3193 13.0521L10.3218 13.0538L11.1705 11.817ZM11.166 11.8139L10.3134 13.048L10.3148 13.049L11.166 11.8139ZM9.91393 12.0428L11.1481 12.8954L11.1481 12.8954L9.91393 12.0428ZM10.1436 13.2954L9.29107 14.5295L9.29244 14.5305L10.1436 13.2954ZM10.1503 13.2999L9.29907 14.535L9.30148 14.5367L10.1503 13.2999ZM10.1694 13.3131L9.32066 14.5499L9.32429 14.5523L10.1694 13.3131ZM10.2426 13.363L9.39743 14.6022L9.3997 14.6038L10.2426 13.363ZM10.5232 13.5517L9.69068 14.7995L9.69068 14.7995L10.5232 13.5517ZM11.5829 14.2435L12.3919 12.9803L12.3919 12.9803L11.5829 14.2435ZM15.3896 16.5518L16.1373 15.2514L16.1373 15.2514L15.3896 16.5518ZM27.3104 22.2077L26.8026 23.6191L26.8026 23.6191L27.3104 22.2077ZM38.8344 25.484L38.5203 26.9508L38.5203 26.9508L38.8344 25.484ZM42.3915 26.1648L42.1456 27.6445L42.1456 27.6445L42.3915 26.1648ZM43.371 26.3186L43.5879 24.8343L43.5878 24.8343L43.371 26.3186ZM43.63 26.3553L43.4267 27.8415L43.4296 27.8419L43.63 26.3553ZM43.6979 26.3645L43.4975 27.851L43.5026 27.8517L43.6979 26.3645ZM43.716 26.3668L43.5207 27.8541L43.5234 27.8544L43.716 26.3668ZM43.7233 26.3678L43.5307 27.8554L43.5327 27.8556L43.7233 26.3678ZM43.7647 26.3721L45.2537 26.5539C45.3031 26.1488 45.1853 25.741 44.9275 25.4246C44.6697 25.1082 44.2941 24.9105 43.8873 24.8771L43.7647 26.3721ZM43.5217 28.3629L42.0328 28.1811L42.0328 28.1811L43.5217 28.3629ZM44.2141 28.8834L44.8024 30.2632L44.8025 30.2632L44.2141 28.8834ZM49.1847 26.764L49.773 28.1438L49.773 28.1438L49.1847 26.764ZM49.3173 25.9274L50.3036 24.7972L50.3036 24.7972L49.3173 25.9274ZM43.7299 26.3171L42.242 26.1269L42.242 26.1269L43.7299 26.3171ZM43.7978 25.7863L45.2856 25.9767C45.3908 25.155 44.81 24.4036 43.9883 24.2984C43.1665 24.1932 42.4151 24.7741 42.3099 25.5958L43.7978 25.7863ZM10.6544 12.5544L11.8894 13.4057C12.3594 12.7239 12.188 11.7901 11.5064 11.3198C10.8248 10.8494 9.89095 11.0204 9.42026 11.7018L10.6544 12.5544ZM45.723 22.7093C45.6257 23.5058 44.6773 23.8692 44.0728 23.3417L46.0453 21.0813C44.8363 20.0262 42.9395 20.753 42.7451 22.3459L45.723 22.7093ZM45.4716 24.7686L45.7229 22.7094L42.7451 22.3459L42.4937 24.4051L45.4716 24.7686ZM43.7615 26.0702C43.7548 26.0694 43.7483 26.0684 43.7418 26.0674L44.2235 23.1063C44.1967 23.1019 44.1696 23.098 44.1423 23.0945L43.7615 26.0702ZM43.7556 26.0695L43.7591 26.0699L44.1447 23.0948L44.1412 23.0943L43.7556 26.0695ZM43.7387 26.0672L43.7529 26.0691L44.1439 23.0947L44.1296 23.0928L43.7387 26.0672ZM43.6736 26.0585L43.7337 26.0666L44.1346 23.0935L44.0744 23.0854L43.6736 26.0585ZM43.4144 26.0217C43.5264 26.0381 43.6123 26.0501 43.6706 26.0581L44.0774 23.0858C44.0278 23.079 43.9509 23.0682 43.848 23.0532L43.4144 26.0217ZM42.4407 25.8689C42.8618 25.9388 43.1903 25.989 43.4144 26.0217L43.8481 23.0532C43.6424 23.0232 43.3333 22.9761 42.9325 22.9095L42.4407 25.8689ZM38.8973 25.1907C40.3857 25.5094 41.5985 25.7289 42.4407 25.8689L42.9325 22.9095C42.1308 22.7762 40.9637 22.5652 39.5255 22.2572L38.8973 25.1907ZM27.412 21.9254C31.8388 23.5181 35.9214 24.5534 38.8973 25.1907L39.5255 22.2572C36.645 21.6403 32.6974 20.6387 28.4276 19.1025L27.412 21.9254ZM15.5392 16.2917C18.6964 18.1071 22.9705 20.3274 27.412 21.9254L28.4276 19.1025C24.2167 17.5875 20.1124 15.4608 17.0346 13.691L15.5392 16.2917ZM11.7447 13.9909C12.6547 14.5736 13.9589 15.383 15.5392 16.2917L17.0346 13.691C15.5024 12.81 14.2395 12.0261 13.3627 11.4646L11.7447 13.9909ZM10.6897 13.3022C10.9331 13.4646 11.2897 13.6994 11.7447 13.9909L13.3627 11.4646C12.9246 11.184 12.5837 10.9594 12.3546 10.8066L10.6897 13.3022ZM10.4112 13.1148C10.4745 13.1578 10.5679 13.2209 10.6897 13.3022L12.3546 10.8066C12.2401 10.7302 12.1536 10.6717 12.097 10.6333L10.4112 13.1148ZM10.3417 13.0674L10.4089 13.1133L12.0992 10.6348L12.032 10.5889L10.3417 13.0674ZM10.3218 13.0538L10.3381 13.065L12.0355 10.5914L12.0192 10.5802L10.3218 13.0538ZM10.3148 13.049L10.3193 13.0521L12.0217 10.5819L12.0171 10.5787L10.3148 13.049ZM11.1481 12.8954C10.9598 13.168 10.586 13.2364 10.3134 13.048L12.0185 10.5797C10.9279 9.82633 9.43312 10.0997 8.67976 11.1903L11.1481 12.8954ZM10.9962 12.0612C11.2672 12.2484 11.3375 12.6212 11.1481 12.8954L8.67976 11.1903C7.92532 12.2824 8.20206 13.7772 9.29107 14.5295L10.9962 12.0612ZM11.0014 12.0648L10.9948 12.0602L9.29244 14.5305L9.29907 14.535L11.0014 12.0648ZM11.0182 12.0763L10.999 12.0632L9.30148 14.5367L9.32067 14.5499L11.0182 12.0763ZM11.0877 12.1237L11.0146 12.0739L9.32429 14.5523L9.39743 14.6022L11.0877 12.1237ZM11.3556 12.3039C11.2368 12.2246 11.1461 12.1634 11.0855 12.1222L9.3997 14.6038C9.46702 14.6495 9.56463 14.7154 9.69068 14.7995L11.3556 12.3039ZM12.3919 12.9803C11.9437 12.6933 11.5933 12.4625 11.3556 12.3039L9.69068 14.7995C9.94273 14.9677 10.3088 15.2087 10.774 15.5066L12.3919 12.9803ZM16.1373 15.2514C14.5763 14.3538 13.2886 13.5546 12.3919 12.9803L10.774 15.5066C11.7038 16.1022 13.0327 16.9269 14.6419 17.8521L16.1373 15.2514ZM27.8182 20.7963C23.469 19.2315 19.2628 17.0486 16.1373 15.2514L14.6419 17.8521C17.8467 19.6949 22.2228 21.9714 26.8026 23.6191L27.8182 20.7963ZM39.1486 24.0173C36.2108 23.3881 32.1822 22.3663 27.8182 20.7963L26.8026 23.6191C31.3236 25.2457 35.4872 26.3012 38.5203 26.9508L39.1486 24.0173ZM42.6374 24.6851C41.8114 24.5478 40.6169 24.3317 39.1486 24.0173L38.5203 26.9508C40.0389 27.276 41.2792 27.5005 42.1456 27.6445L42.6374 24.6851ZM43.5878 24.8343C43.3712 24.8027 43.0504 24.7537 42.6374 24.6851L42.1456 27.6445C42.5789 27.7165 42.9191 27.7685 43.1542 27.8028L43.5878 24.8343ZM43.8334 24.8692C43.7785 24.8616 43.6962 24.8501 43.5879 24.8343L43.1542 27.8028C43.2718 27.82 43.3631 27.8328 43.4267 27.8415L43.8334 24.8692ZM43.8984 24.8779L43.8305 24.8688L43.4296 27.8419L43.4975 27.851L43.8984 24.8779ZM43.9113 24.8796L43.8932 24.8772L43.5026 27.8517L43.5207 27.8541L43.9113 24.8796ZM43.9159 24.8802L43.9086 24.8793L43.5234 27.8544L43.5307 27.8554L43.9159 24.8802ZM43.8873 24.8771C43.8963 24.8779 43.9052 24.8788 43.9139 24.8799L43.5327 27.8556C43.5691 27.8603 43.6056 27.8641 43.6421 27.8671L43.8873 24.8771ZM45.0107 28.5446L45.2537 26.5539L42.2758 26.1904L42.0328 28.1811L45.0107 28.5446ZM43.6258 27.5036C44.3343 27.2015 45.104 27.7801 45.0107 28.5446L42.0328 28.1811C41.8461 29.7102 43.3855 30.8674 44.8024 30.2632L43.6258 27.5036ZM48.5964 25.3842L43.6258 27.5036L44.8025 30.2632L49.773 28.1438L48.5964 25.3842ZM48.3311 27.0575C47.7754 26.5726 47.9179 25.6735 48.5964 25.3842L49.773 28.1438C51.1299 27.5653 51.415 25.767 50.3036 24.7972L48.3311 27.0575ZM44.0728 23.3416L48.3311 27.0575L50.3036 24.7972L46.0453 21.0813L44.0728 23.3416ZM42.242 26.1269C42.2387 26.1529 42.2373 26.164 42.2366 26.1687C42.236 26.174 42.2369 26.1666 42.2382 26.1573C42.2386 26.1543 42.2397 26.147 42.2411 26.1378C42.242 26.1321 42.2457 26.108 42.2517 26.0774C42.2547 26.0623 42.2612 26.0304 42.2716 25.9905C42.2788 25.9625 42.3037 25.8674 42.3552 25.7529C42.3885 25.6786 42.5471 25.3222 42.9562 25.0788C43.4448 24.788 43.9339 24.8823 43.9031 24.8786L43.5435 27.857C43.5128 27.8533 44.0019 27.9475 44.4904 27.6568C44.8995 27.4133 45.0581 27.0569 45.0915 26.9827C45.143 26.8682 45.1679 26.773 45.1752 26.7449C45.1855 26.705 45.192 26.6731 45.195 26.658C45.2011 26.6273 45.2048 26.603 45.2057 26.5971C45.2072 26.5877 45.2083 26.5801 45.2087 26.5767C45.2103 26.5658 45.2116 26.5553 45.2118 26.5542C45.2128 26.5463 45.2146 26.532 45.2178 26.5073L42.242 26.1269ZM42.3099 25.5958C42.2685 25.9197 42.2501 26.0634 42.242 26.1269L45.2178 26.5074C45.2259 26.4436 45.2442 26.3003 45.2856 25.9767L42.3099 25.5958ZM45.2112 26.5583L45.2856 25.9768L42.3099 25.5958L42.2355 26.1773L45.2112 26.5583ZM9.41943 11.703L8.90862 12.444L11.3786 14.1467L11.8894 13.4057L9.41943 11.703ZM11.0111 12.0716C10.9894 12.0563 11.1644 12.1695 11.3165 12.3602C11.5002 12.5907 11.6011 12.8557 11.6326 13.1138C11.66 13.3387 11.6301 13.5186 11.6095 13.6135C11.5876 13.7142 11.5597 13.7921 11.543 13.8353C11.5105 13.9195 11.4774 13.9819 11.4668 14.0018C11.4522 14.0292 11.4397 14.0505 11.4332 14.0614C11.4202 14.0833 11.4095 14.1 11.4062 14.1051C11.4016 14.1123 11.3979 14.1179 11.3961 14.1207C11.3905 14.1292 11.3869 14.1344 11.3911 14.1282C11.3968 14.1198 11.4109 14.0992 11.4428 14.0529C11.5058 13.9614 11.6329 13.7771 11.8886 13.4069L9.42026 11.7018C9.16445 12.0721 9.03607 12.2583 8.97149 12.3521C8.93958 12.3985 8.9219 12.4243 8.91179 12.4391C8.90805 12.4446 8.90056 12.4556 8.893 12.467C8.89071 12.4705 8.88666 12.4767 8.88175 12.4843C8.8782 12.4898 8.86732 12.5068 8.8542 12.5289C8.84767 12.5399 8.83516 12.5612 8.82048 12.5887C8.80982 12.6087 8.7767 12.6711 8.74419 12.7553C8.73457 12.7802 8.60645 13.0816 8.65464 13.4769C8.6861 13.735 8.78701 14 8.97076 14.2305C9.12285 14.4212 9.29779 14.5344 9.27617 14.5191L11.0111 12.0716Z" fill="#F8F9FA" mask="url(#path-8-outside-2_50_1671)"/>
<path d="M10.6731 12.5512C10.6731 12.5512 18.8431 18.1949 27.6338 21.3576C36.4246 24.5204 43.8563 25.4719 43.8563 25.4719" stroke="#212529" stroke-width="1.8" stroke-linecap="round" stroke-linejoin="round"/>
<path fill-rule="evenodd" clip-rule="evenodd" d="M44.2528 22.5244C44.3014 22.1262 44.7756 21.9445 45.0778 22.2082L49.3361 25.9241C49.6139 26.1666 49.5427 26.6162 49.2035 26.7608L44.2329 28.8802C43.8786 29.0312 43.4938 28.7419 43.5405 28.3596L44.2528 22.5244Z" fill="#212529"/>
</g>
<defs>
<clipPath id="clip0_50_1671">
<rect width="60" height="60" fill="white"/>
</clipPath>
</defs>
</svg>
