<svg width="60" height="61" viewBox="0 0 60 61" fill="none" xmlns="http://www.w3.org/2000/svg">
<mask id="path-1-outside-1_50_3216" maskUnits="userSpaceOnUse" x="7.86194" y="7.72168" width="44" height="46" fill="black">
<rect fill="white" x="7.86194" y="7.72168" width="44" height="46"/>
<path fill-rule="evenodd" clip-rule="evenodd" d="M9.94568 20.915C9.69547 19.9812 10.2496 19.0214 11.1834 18.7711L44.7323 9.78173C45.6661 9.53152 46.626 10.0857 46.8762 11.0195L47.7811 14.3965C48.0313 15.3303 47.4771 16.2901 46.5433 16.5404L15.0166 24.9879C15.0733 25.0999 15.1225 25.2162 15.1635 25.3364H47.318C48.8755 25.3364 50.1381 26.5991 50.1381 28.1566V49.1826C50.1381 50.7401 48.8755 52.0027 47.318 52.0027H14.5305C12.973 52.0027 11.7104 50.7401 11.7104 49.1826V28.7968C10.6355 28.4323 9.86194 27.4149 9.86194 26.2169C9.86194 25.3899 10.2305 24.649 10.8124 24.1495L9.94568 20.915ZM13.6982 23.7303C13.3585 23.5781 12.9819 23.4934 12.5855 23.4934C12.4728 23.4934 12.3618 23.5002 12.2528 23.5135L11.4486 20.5123C11.4208 20.4085 11.4824 20.3019 11.5861 20.2741L45.1351 11.2847C45.2388 11.2569 45.3455 11.3184 45.3733 11.4222L46.2781 14.7992C46.3059 14.903 46.2444 15.0096 46.1406 15.0374L13.6982 23.7303ZM11.4209 25.184C11.177 25.4588 11.0289 25.8206 11.0289 26.2169C11.0289 26.7803 11.3282 27.2737 11.7764 27.547C12.0112 26.4813 12.8487 25.6419 13.9133 25.4042C13.8918 25.3691 13.869 25.335 13.8448 25.3019L12.9944 25.5298C12.4236 25.6827 11.8432 25.5351 11.4209 25.184ZM13.4608 28.7967V49.1826C13.4608 49.7734 13.9397 50.2523 14.5305 50.2523H47.318C47.9088 50.2523 48.3877 49.7734 48.3877 49.1826V28.1566C48.3877 27.5658 47.9088 27.0869 47.318 27.0869H15.1671C14.8968 27.8894 14.2626 28.5247 13.4608 28.7967Z"/>
</mask>
<path fill-rule="evenodd" clip-rule="evenodd" d="M9.94568 20.915C9.69547 19.9812 10.2496 19.0214 11.1834 18.7711L44.7323 9.78173C45.6661 9.53152 46.626 10.0857 46.8762 11.0195L47.7811 14.3965C48.0313 15.3303 47.4771 16.2901 46.5433 16.5404L15.0166 24.9879C15.0733 25.0999 15.1225 25.2162 15.1635 25.3364H47.318C48.8755 25.3364 50.1381 26.5991 50.1381 28.1566V49.1826C50.1381 50.7401 48.8755 52.0027 47.318 52.0027H14.5305C12.973 52.0027 11.7104 50.7401 11.7104 49.1826V28.7968C10.6355 28.4323 9.86194 27.4149 9.86194 26.2169C9.86194 25.3899 10.2305 24.649 10.8124 24.1495L9.94568 20.915ZM13.6982 23.7303C13.3585 23.5781 12.9819 23.4934 12.5855 23.4934C12.4728 23.4934 12.3618 23.5002 12.2528 23.5135L11.4486 20.5123C11.4208 20.4085 11.4824 20.3019 11.5861 20.2741L45.1351 11.2847C45.2388 11.2569 45.3455 11.3184 45.3733 11.4222L46.2781 14.7992C46.3059 14.903 46.2444 15.0096 46.1406 15.0374L13.6982 23.7303ZM11.4209 25.184C11.177 25.4588 11.0289 25.8206 11.0289 26.2169C11.0289 26.7803 11.3282 27.2737 11.7764 27.547C12.0112 26.4813 12.8487 25.6419 13.9133 25.4042C13.8918 25.3691 13.869 25.335 13.8448 25.3019L12.9944 25.5298C12.4236 25.6827 11.8432 25.5351 11.4209 25.184ZM13.4608 28.7967V49.1826C13.4608 49.7734 13.9397 50.2523 14.5305 50.2523H47.318C47.9088 50.2523 48.3877 49.7734 48.3877 49.1826V28.1566C48.3877 27.5658 47.9088 27.0869 47.318 27.0869H15.1671C14.8968 27.8894 14.2626 28.5247 13.4608 28.7967Z" fill="#F8F9FA"/>
<path d="M11.1834 18.7712L11.5717 20.2201L11.5717 20.2201L11.1834 18.7712ZM9.94568 20.915L11.3946 20.5268L9.94568 20.915ZM44.7323 9.78176L45.1206 11.2306L45.1206 11.2306L44.7323 9.78176ZM46.8762 11.0195L48.3251 10.6313L48.3251 10.6313L46.8762 11.0195ZM47.7811 14.3965L49.23 14.0083L49.23 14.0083L47.7811 14.3965ZM46.5433 16.5404L46.9315 17.9893L46.9315 17.9893L46.5433 16.5404ZM15.0166 24.9879L14.6284 23.539C14.1918 23.656 13.8313 23.9636 13.647 24.3762C13.4627 24.7888 13.4743 25.2626 13.6785 25.6657L15.0166 24.9879ZM15.1635 25.3364L13.744 25.8211C13.9513 26.4283 14.5219 26.8364 15.1635 26.8364V25.3364ZM11.7104 28.7968H13.2104C13.2104 28.154 12.8008 27.5827 12.1921 27.3763L11.7104 28.7968ZM10.8124 24.1496L11.7894 25.2877C12.2271 24.912 12.4106 24.3185 12.2613 23.7613L10.8124 24.1496ZM13.6982 23.7304L13.0847 25.0992C13.3995 25.2402 13.7533 25.2685 14.0865 25.1792L13.6982 23.7304ZM12.2528 23.5135L10.8039 23.9017C10.9973 24.6235 11.6924 25.0928 12.4341 25.0025L12.2528 23.5135ZM11.4486 20.5123L12.8975 20.1241L12.8975 20.1241L11.4486 20.5123ZM11.5861 20.2741L11.1979 18.8252L11.1979 18.8252L11.5861 20.2741ZM45.1351 11.2847L45.5233 12.7336L45.5233 12.7336L45.1351 11.2847ZM45.3733 11.4222L43.9244 11.8104L43.9244 11.8104L45.3733 11.4222ZM46.2781 14.7992L47.727 14.411L47.727 14.411L46.2781 14.7992ZM46.1406 15.0374L45.7524 13.5886L45.7524 13.5886L46.1406 15.0374ZM11.4209 25.1841L12.38 24.0307C11.7575 23.5131 10.8365 23.5828 10.2991 24.1883L11.4209 25.1841ZM11.7764 27.547L10.9957 28.8278C11.4094 29.08 11.9194 29.1168 12.365 28.9267C12.8107 28.7366 13.137 28.3429 13.2413 27.8698L11.7764 27.547ZM13.9133 25.4042L14.2401 26.8682C14.713 26.7626 15.1057 26.4351 15.2946 25.989C15.4835 25.5428 15.4452 25.0329 15.1919 24.6199L13.9133 25.4042ZM13.8448 25.3019L15.0576 24.4192C14.6924 23.9175 14.056 23.6924 13.4566 23.853L13.8448 25.3019ZM12.9944 25.5298L13.3826 26.9787L13.3826 26.9787L12.9944 25.5298ZM13.4608 28.7967L12.979 27.3762C12.3703 27.5827 11.9608 28.154 11.9608 28.7967H13.4608ZM15.1671 27.0869V25.5869C14.5232 25.5869 13.9511 25.9978 13.7456 26.608L15.1671 27.0869ZM10.7952 17.3223C9.0612 17.7869 8.03217 19.5692 8.49679 21.3032L11.3946 20.5268C11.3588 20.3932 11.4381 20.2559 11.5717 20.2201L10.7952 17.3223ZM44.3441 8.33287L10.7952 17.3223L11.5717 20.2201L45.1206 11.2306L44.3441 8.33287ZM48.3251 10.6313C47.8605 8.89728 46.0781 7.86825 44.3441 8.33287L45.1206 11.2306C45.2542 11.1948 45.3915 11.2741 45.4273 11.4077L48.3251 10.6313ZM49.23 14.0083L48.3251 10.6313L45.4273 11.4077L46.3322 14.7848L49.23 14.0083ZM46.9315 17.9893C48.6656 17.5246 49.6946 15.7423 49.23 14.0083L46.3322 14.7848C46.368 14.9184 46.2887 15.0557 46.1551 15.0915L46.9315 17.9893ZM15.4048 26.4368L46.9315 17.9893L46.1551 15.0915L14.6284 23.539L15.4048 26.4368ZM13.6785 25.6657C13.7038 25.7158 13.7258 25.7677 13.744 25.8211L16.5831 24.8518C16.5193 24.6649 16.4428 24.484 16.3547 24.3101L13.6785 25.6657ZM47.318 23.8364H15.1635V26.8364H47.318V23.8364ZM51.6381 28.1566C51.6381 25.7706 49.7039 23.8364 47.318 23.8364V26.8364C48.0471 26.8364 48.6381 27.4275 48.6381 28.1566H51.6381ZM51.6381 49.1826V28.1566H48.6381V49.1826H51.6381ZM47.318 53.5027C49.704 53.5027 51.6381 51.5685 51.6381 49.1826H48.6381C48.6381 49.9117 48.0471 50.5027 47.318 50.5027V53.5027ZM14.5305 53.5027H47.318V50.5027H14.5305V53.5027ZM10.2104 49.1826C10.2104 51.5686 12.1446 53.5027 14.5305 53.5027V50.5027C13.8014 50.5027 13.2104 49.9117 13.2104 49.1826H10.2104ZM10.2104 28.7968V49.1826H13.2104V28.7968H10.2104ZM12.1921 27.3763C11.7074 27.2119 11.3619 26.7528 11.3619 26.2169H8.36194C8.36194 28.0771 9.56358 29.6528 11.2287 30.2174L12.1921 27.3763ZM11.3619 26.2169C11.3619 25.8458 11.5254 25.5144 11.7894 25.2877L9.83533 23.0114C8.93568 23.7837 8.36194 24.9341 8.36194 26.2169H11.3619ZM8.49679 21.3032L9.36349 24.5378L12.2613 23.7613L11.3946 20.5268L8.49679 21.3032ZM12.5855 24.9934C12.7663 24.9934 12.9342 25.0317 13.0847 25.0992L14.3117 22.3615C13.7828 22.1245 13.1974 21.9934 12.5855 21.9934V24.9934ZM12.4341 25.0025C12.4831 24.9965 12.5336 24.9934 12.5855 24.9934V21.9934C12.4121 21.9934 12.2405 22.0039 12.0714 22.0245L12.4341 25.0025ZM13.7017 23.1253L12.8975 20.1241L9.99972 20.9005L10.8039 23.9017L13.7017 23.1253ZM12.8975 20.1241C13.0841 20.8205 12.6708 21.5364 11.9744 21.723L11.1979 18.8252C10.294 19.0674 9.75751 19.9966 9.99973 20.9005L12.8975 20.1241ZM11.9744 21.723L45.5233 12.7336L44.7468 9.8358L11.1979 18.8252L11.9744 21.723ZM45.5233 12.7336C44.8269 12.9202 44.111 12.5069 43.9244 11.8104L46.8222 11.034C46.58 10.13 45.6508 9.59359 44.7468 9.8358L45.5233 12.7336ZM43.9244 11.8104L44.8292 15.1875L47.727 14.411L46.8222 11.034L43.9244 11.8104ZM44.8292 15.1875C44.6426 14.491 45.056 13.7752 45.7524 13.5886L46.5288 16.4863C47.4328 16.2441 47.9692 15.315 47.727 14.411L44.8292 15.1875ZM45.7524 13.5886L13.31 22.2815L14.0865 25.1792L46.5288 16.4863L45.7524 13.5886ZM10.2991 24.1883C9.82098 24.727 9.5289 25.4397 9.5289 26.2169H12.5289C12.5289 26.207 12.5305 26.201 12.5322 26.1967C12.5342 26.1916 12.5375 26.1857 12.5428 26.1798L10.2991 24.1883ZM9.5289 26.2169C9.5289 27.3249 10.1194 28.2936 10.9957 28.8278L12.5572 26.2662C12.5483 26.2608 12.5405 26.2527 12.5355 26.244C12.5332 26.24 12.5317 26.2363 12.5307 26.2327C12.5298 26.2294 12.5289 26.2244 12.5289 26.2169H9.5289ZM13.5864 23.9402C11.9532 24.3049 10.6718 25.5893 10.3116 27.2242L13.2413 27.8698C13.3506 27.3735 13.7443 26.9789 14.2401 26.8682L13.5864 23.9402ZM15.1919 24.6199C15.1497 24.5511 15.1049 24.4842 15.0576 24.4192L12.6321 26.1846C12.633 26.1859 12.6339 26.1872 12.6347 26.1885L15.1919 24.6199ZM13.3826 26.9787L14.2331 26.7508L13.4566 23.853L12.6062 24.0809L13.3826 26.9787ZM10.4619 26.3374C11.2425 26.9865 12.3216 27.263 13.3826 26.9787L12.6062 24.0809C12.5257 24.1025 12.4438 24.0838 12.38 24.0307L10.4619 26.3374ZM14.9608 49.1826V28.7967H11.9608V49.1826H14.9608ZM14.5305 48.7523C14.7682 48.7523 14.9608 48.9449 14.9608 49.1826H11.9608C11.9608 50.6018 13.1113 51.7523 14.5305 51.7523V48.7523ZM47.318 48.7523H14.5305V51.7523H47.318V48.7523ZM46.8877 49.1826C46.8877 48.945 47.0803 48.7523 47.318 48.7523V51.7523C48.7372 51.7523 49.8877 50.6018 49.8877 49.1826H46.8877ZM46.8877 28.1566V49.1826H49.8877V28.1566H46.8877ZM47.318 28.5869C47.0803 28.5869 46.8877 28.3942 46.8877 28.1566H49.8877C49.8877 26.7374 48.7372 25.5869 47.318 25.5869V28.5869ZM15.1671 28.5869H47.318V25.5869H15.1671V28.5869ZM13.7456 26.608C13.6246 26.9673 13.338 27.2545 12.979 27.3762L13.9426 30.2173C15.1873 29.7951 16.1689 28.8116 16.5886 27.5657L13.7456 26.608Z" fill="#F8F9FA" mask="url(#path-1-outside-1_50_3216)"/>
<rect x="12.6887" y="26.304" width="36.6773" height="24.9159" rx="2" fill="#ADB5BD" stroke="#212529" stroke-width="1.8" stroke-linejoin="round"/>
<path d="M12.6887 28.3091C12.6887 27.2045 13.5842 26.3091 14.6887 26.3091H47.3661C48.4706 26.3091 49.3661 27.2045 49.3661 28.3091V30.7502C49.3661 31.3025 48.9183 31.7502 48.3661 31.7502H13.6887C13.1364 31.7502 12.6887 31.3025 12.6887 30.7502V28.3091Z" fill="#F8F9FA" stroke="#212529" stroke-width="1.4" stroke-linejoin="round"/>
<path d="M18.0175 31.7502L21.2933 26.4709" stroke="#212529" stroke-width="1.2" stroke-linecap="round" stroke-linejoin="round"/>
<path d="M23.9139 31.7502L27.1898 26.4709" stroke="#212529" stroke-width="1.2" stroke-linecap="round" stroke-linejoin="round"/>
<path d="M29.8105 31.7502L33.0864 26.4709" stroke="#212529" stroke-width="1.2" stroke-linecap="round" stroke-linejoin="round"/>
<path d="M35.7074 31.7502L38.9832 26.4709" stroke="#212529" stroke-width="1.2" stroke-linecap="round" stroke-linejoin="round"/>
<path d="M41.604 31.7502L44.8799 26.4709" stroke="#212529" stroke-width="1.2" stroke-linecap="round" stroke-linejoin="round"/>
<rect x="10.5487" y="19.8665" width="36.6773" height="5.44109" rx="1" transform="rotate(-15 10.5487 19.8665)" fill="#F8F9FA" stroke="#212529" stroke-width="1.6" stroke-linejoin="round"/>
<path d="M15.7767 18.738L20.3073 22.9895" stroke="#212529" stroke-width="1.2" stroke-linecap="round" stroke-linejoin="round"/>
<path d="M21.4724 17.2119L26.003 21.4634" stroke="#212529" stroke-width="1.2" stroke-linecap="round" stroke-linejoin="round"/>
<path d="M27.1681 15.6858L31.6987 19.9373" stroke="#212529" stroke-width="1.2" stroke-linecap="round" stroke-linejoin="round"/>
<path d="M32.8639 14.1597L37.3945 18.4112" stroke="#212529" stroke-width="1.2" stroke-linecap="round" stroke-linejoin="round"/>
<path d="M38.5597 12.6333L43.0903 16.8848" stroke="#212529" stroke-width="1.2" stroke-linecap="round" stroke-linejoin="round"/>
<circle cx="12.6888" cy="26.3092" r="2.14005" fill="#495057" stroke="#212529" stroke-width="1.2" stroke-linejoin="round"/>
<path d="M19.3159 37.3257H42.7387" stroke="#212529" stroke-width="1.2" stroke-linecap="round" stroke-linejoin="round"/>
<path d="M19.3159 45.584H31.6144" stroke="#212529" stroke-width="1.2" stroke-linecap="round" stroke-linejoin="round"/>
<path d="M19.3159 42.8811H42.7387" stroke="#212529" stroke-width="1.2" stroke-linecap="round" stroke-linejoin="round"/>
<path d="M26.1182 37.3257L26.1182 42.5847" stroke="#212529" stroke-width="1.2" stroke-linecap="round" stroke-linejoin="round"/>
<path d="M35.9368 37.3257L35.9368 42.5847" stroke="#212529" stroke-width="1.2" stroke-linecap="round" stroke-linejoin="round"/>
<g style="mix-blend-mode:multiply" opacity="0.3">
<path fill-rule="evenodd" clip-rule="evenodd" d="M13.1569 49.3297V49.6058C13.1569 50.7104 14.0523 51.6058 15.1569 51.6058H47.8342C48.9388 51.6058 49.8342 50.7104 49.8342 49.6058V28.6899C49.8342 27.5854 48.9388 26.6899 47.8342 26.6899H47.569V48.3297C47.569 48.882 47.1212 49.3297 46.569 49.3297H13.1569Z" fill="#ADB5BD"/>
</g>
</svg>
