<svg width="60" height="61" viewBox="0 0 60 61" fill="none" xmlns="http://www.w3.org/2000/svg">
<mask id="path-1-outside-1_50_2357" maskUnits="userSpaceOnUse" x="4.39954" y="10.2222" width="51" height="43" fill="black">
<rect fill="white" x="4.39954" y="10.2222" width="51" height="43"/>
<path fill-rule="evenodd" clip-rule="evenodd" d="M38.3834 33.1818C36.4406 33.1818 34.4351 33.8066 32.8738 35.2024C31.4147 36.5067 30.4033 38.431 30.1592 40.9884C30.1277 40.9996 30.0952 41.0114 30.0619 41.0237C29.6467 41.1776 29.0869 41.4259 28.5208 41.8045C27.3825 42.5656 26.1571 43.906 26.1571 46.0601C26.1571 46.9235 26.3088 48.2149 27.1088 49.308C27.9458 50.4516 29.3748 51.2222 31.5952 51.2222L47.0199 51.2222C48.262 51.2222 49.8362 50.8522 51.1216 49.8704C52.4428 48.8611 53.3995 47.247 53.3995 44.9203L53.3993 44.8996C53.3693 43.6471 53.0707 42.483 52.4368 41.5462C51.9274 40.7935 51.2231 40.221 50.3439 39.8758C50.351 39.6232 50.3437 39.3215 50.3026 38.9965C50.19 38.1065 49.801 36.9032 48.6044 36.1759C47.403 35.4457 46.1966 35.6695 45.3832 36.007C45.1319 36.1113 44.908 36.2298 44.7187 36.3435C43.2056 34.7609 40.9198 33.1818 38.3834 33.1818ZM31.148 42.4943L31.1693 42.4891C31.5507 42.4039 31.8287 42.0736 31.8465 41.6831C31.9588 39.2223 32.8436 37.5529 34.0283 36.4939C35.2256 35.4236 36.7997 34.9141 38.3834 34.9141C40.4761 34.9141 42.5748 36.4445 43.928 38.0549C44.0796 38.2353 44.2982 38.3462 44.5334 38.3619C44.7672 38.3775 44.9976 38.2975 45.1715 38.1406L45.1778 38.1351C45.1853 38.1286 45.199 38.117 45.2184 38.1012C45.2573 38.0696 45.3182 38.0222 45.3977 37.9666C45.5587 37.854 45.7843 37.7161 46.047 37.6071C46.5768 37.3873 47.1521 37.3203 47.7046 37.6561C48.2618 37.9948 48.5039 38.581 48.584 39.2139C48.6231 39.5227 48.618 39.81 48.6024 40.0217C48.5946 40.1263 48.5845 40.2094 48.5768 40.2635C48.573 40.2905 48.5698 40.3101 48.5679 40.3213L48.5665 40.3299L48.5661 40.3318C48.4782 40.7898 48.769 41.2355 49.224 41.3394C50.036 41.5246 50.6113 41.9396 51.0021 42.5171C51.4018 43.1077 51.6416 43.92 51.6672 44.9306C51.6645 46.7149 50.9577 47.8157 50.07 48.4937C49.1448 49.2005 47.9623 49.4899 47.0199 49.4899L31.5952 49.4899C29.8116 49.4899 28.9547 48.897 28.5067 48.2849C28.0218 47.6223 27.8894 46.7657 27.8894 46.0601C27.8894 44.6745 28.643 43.8066 29.4837 43.2445C29.9072 42.9613 30.3369 42.7692 30.6638 42.6481C30.826 42.588 30.9592 42.5467 31.0489 42.5211C31.0937 42.5083 31.1273 42.4995 31.148 42.4943ZM18.62 11.9436C16.6772 11.9436 14.6718 12.5684 13.1104 13.9641C11.6513 15.2684 10.6399 17.1927 10.3959 19.7501C10.3643 19.7613 10.3318 19.7731 10.2985 19.7854C9.88333 19.9393 9.32351 20.1876 8.75744 20.5662C7.61916 21.3273 6.39374 22.6677 6.39374 24.8218C6.39374 25.6852 6.54538 26.9766 7.3454 28.0697C8.18237 29.2133 9.61141 29.9839 11.8318 29.9839L27.2566 29.9839C28.4986 29.9839 30.0728 29.6139 31.3582 28.6321C32.6794 27.6228 33.6361 26.0087 33.6361 23.682L33.6359 23.6613C33.6059 22.4088 33.3073 21.2447 32.6734 20.3079C32.164 19.5552 31.4597 18.9827 30.5805 18.6376C30.5877 18.3849 30.5803 18.0832 30.5392 17.7582C30.4266 16.8683 30.0376 15.6649 28.841 14.9376C27.6397 14.2074 26.4332 14.4312 25.6198 14.7688C25.3685 14.873 25.1446 14.9915 24.9553 15.1052C23.4422 13.5227 21.1564 11.9436 18.62 11.9436ZM11.3846 21.256L11.4059 21.2508C11.7874 21.1656 12.0653 20.8353 12.0831 20.4448C12.1954 17.984 13.0802 16.3146 14.2649 15.2556C15.4622 14.1853 17.0363 13.6759 18.62 13.6759C20.7127 13.6759 22.8114 15.2062 24.1646 16.8166C24.3162 16.997 24.5349 17.1079 24.77 17.1236C25.0038 17.1392 25.2342 17.0592 25.4081 16.9023L25.4092 16.9013L25.4099 16.9006L25.4144 16.8968C25.4219 16.8903 25.4356 16.8787 25.455 16.8629C25.4939 16.8314 25.5548 16.7839 25.6343 16.7283C25.7953 16.6157 26.0209 16.4778 26.2837 16.3688C26.8134 16.149 27.3887 16.082 27.9412 16.4179C28.4984 16.7566 28.7405 17.3427 28.8206 17.9757C28.8597 18.2844 28.8547 18.5717 28.839 18.7834C28.8312 18.888 28.8211 18.9711 28.8134 19.0252C28.8096 19.0522 28.8065 19.0718 28.8045 19.083L28.8031 19.0916L28.8027 19.0935C28.7148 19.5515 29.0056 19.9972 29.4607 20.1011C30.2726 20.2864 30.8479 20.7013 31.2387 21.2788C31.6384 21.8694 31.8782 22.6818 31.9038 23.6924C31.9011 25.4766 31.1943 26.5774 30.3066 27.2555C29.3814 27.9622 28.1989 28.2516 27.2566 28.2516L11.8318 28.2516C10.0482 28.2516 9.19129 27.6587 8.7433 27.0466C8.25836 26.384 8.12604 25.5275 8.12604 24.8218C8.12604 23.4362 8.87963 22.5684 9.72035 22.0062C10.1438 21.723 10.5735 21.531 10.9004 21.4098C11.0626 21.3497 11.1958 21.3084 11.2855 21.2828C11.3303 21.27 11.3639 21.2612 11.3846 21.256ZM14.003 37.4163L15.628 38.907C15.9805 39.2303 16.5284 39.2067 16.8518 38.8542C17.1751 38.5016 17.1515 37.9537 16.799 37.6304L13.6725 34.7625C13.3432 34.4605 12.8382 34.4585 12.5066 34.7579L9.32974 37.6257C8.97467 37.9463 8.94668 38.494 9.26722 38.8491C9.58777 39.2041 10.1355 39.2321 10.4905 38.9116L12.2707 37.3046L12.2707 44.3636C12.2707 45.3735 13.0893 46.1922 14.0992 46.1922L21.106 46.1922C21.5844 46.1922 21.9722 45.8044 21.9722 45.326C21.9722 44.8477 21.5844 44.4599 21.106 44.4599L14.0992 44.4599C14.0461 44.4599 14.003 44.4168 14.003 44.3636L14.003 37.4163ZM45.7054 24.8503L44.0804 23.3597C43.7279 23.0363 43.18 23.06 42.8566 23.4125C42.5333 23.765 42.5569 24.3129 42.9094 24.6362L46.0359 27.5041C46.3652 27.8062 46.8702 27.8082 47.2018 27.5088L50.3787 24.6409C50.7337 24.3203 50.7617 23.7726 50.4412 23.4176C50.1206 23.0625 49.5729 23.0345 49.2179 23.355L47.4377 24.9621L47.4377 17.903C47.4377 16.8932 46.6191 16.0745 45.6092 16.0745L38.6024 16.0745C38.124 16.0745 37.7362 16.4623 37.7362 16.9407C37.7362 17.419 38.124 17.8068 38.6024 17.8068L45.6092 17.8068C45.6624 17.8068 45.7054 17.8499 45.7054 17.903L45.7054 24.8503Z"/>
</mask>
<path fill-rule="evenodd" clip-rule="evenodd" d="M38.3834 33.1818C36.4406 33.1818 34.4351 33.8066 32.8738 35.2024C31.4147 36.5067 30.4033 38.431 30.1592 40.9884C30.1277 40.9996 30.0952 41.0114 30.0619 41.0237C29.6467 41.1776 29.0869 41.4259 28.5208 41.8045C27.3825 42.5656 26.1571 43.906 26.1571 46.0601C26.1571 46.9235 26.3088 48.2149 27.1088 49.308C27.9458 50.4516 29.3748 51.2222 31.5952 51.2222L47.0199 51.2222C48.262 51.2222 49.8362 50.8522 51.1216 49.8704C52.4428 48.8611 53.3995 47.247 53.3995 44.9203L53.3993 44.8996C53.3693 43.6471 53.0707 42.483 52.4368 41.5462C51.9274 40.7935 51.2231 40.221 50.3439 39.8758C50.351 39.6232 50.3437 39.3215 50.3026 38.9965C50.19 38.1065 49.801 36.9032 48.6044 36.1759C47.403 35.4457 46.1966 35.6695 45.3832 36.007C45.1319 36.1113 44.908 36.2298 44.7187 36.3435C43.2056 34.7609 40.9198 33.1818 38.3834 33.1818ZM31.148 42.4943L31.1693 42.4891C31.5507 42.4039 31.8287 42.0736 31.8465 41.6831C31.9588 39.2223 32.8436 37.5529 34.0283 36.4939C35.2256 35.4236 36.7997 34.9141 38.3834 34.9141C40.4761 34.9141 42.5748 36.4445 43.928 38.0549C44.0796 38.2353 44.2982 38.3462 44.5334 38.3619C44.7672 38.3775 44.9976 38.2975 45.1715 38.1406L45.1778 38.1351C45.1853 38.1286 45.199 38.117 45.2184 38.1012C45.2573 38.0696 45.3182 38.0222 45.3977 37.9666C45.5587 37.854 45.7843 37.7161 46.047 37.6071C46.5768 37.3873 47.1521 37.3203 47.7046 37.6561C48.2618 37.9948 48.5039 38.581 48.584 39.2139C48.6231 39.5227 48.618 39.81 48.6024 40.0217C48.5946 40.1263 48.5845 40.2094 48.5768 40.2635C48.573 40.2905 48.5698 40.3101 48.5679 40.3213L48.5665 40.3299L48.5661 40.3318C48.4782 40.7898 48.769 41.2355 49.224 41.3394C50.036 41.5246 50.6113 41.9396 51.0021 42.5171C51.4018 43.1077 51.6416 43.92 51.6672 44.9306C51.6645 46.7149 50.9577 47.8157 50.07 48.4937C49.1448 49.2005 47.9623 49.4899 47.0199 49.4899L31.5952 49.4899C29.8116 49.4899 28.9547 48.897 28.5067 48.2849C28.0218 47.6223 27.8894 46.7657 27.8894 46.0601C27.8894 44.6745 28.643 43.8066 29.4837 43.2445C29.9072 42.9613 30.3369 42.7692 30.6638 42.6481C30.826 42.588 30.9592 42.5467 31.0489 42.5211C31.0937 42.5083 31.1273 42.4995 31.148 42.4943ZM18.62 11.9436C16.6772 11.9436 14.6718 12.5684 13.1104 13.9641C11.6513 15.2684 10.6399 17.1927 10.3959 19.7501C10.3643 19.7613 10.3318 19.7731 10.2985 19.7854C9.88333 19.9393 9.32351 20.1876 8.75744 20.5662C7.61916 21.3273 6.39374 22.6677 6.39374 24.8218C6.39374 25.6852 6.54538 26.9766 7.3454 28.0697C8.18237 29.2133 9.61141 29.9839 11.8318 29.9839L27.2566 29.9839C28.4986 29.9839 30.0728 29.6139 31.3582 28.6321C32.6794 27.6228 33.6361 26.0087 33.6361 23.682L33.6359 23.6613C33.6059 22.4088 33.3073 21.2447 32.6734 20.3079C32.164 19.5552 31.4597 18.9827 30.5805 18.6376C30.5877 18.3849 30.5803 18.0832 30.5392 17.7582C30.4266 16.8683 30.0376 15.6649 28.841 14.9376C27.6397 14.2074 26.4332 14.4312 25.6198 14.7688C25.3685 14.873 25.1446 14.9915 24.9553 15.1052C23.4422 13.5227 21.1564 11.9436 18.62 11.9436ZM11.3846 21.256L11.4059 21.2508C11.7874 21.1656 12.0653 20.8353 12.0831 20.4448C12.1954 17.984 13.0802 16.3146 14.2649 15.2556C15.4622 14.1853 17.0363 13.6759 18.62 13.6759C20.7127 13.6759 22.8114 15.2062 24.1646 16.8166C24.3162 16.997 24.5349 17.1079 24.77 17.1236C25.0038 17.1392 25.2342 17.0592 25.4081 16.9023L25.4092 16.9013L25.4099 16.9006L25.4144 16.8968C25.4219 16.8903 25.4356 16.8787 25.455 16.8629C25.4939 16.8314 25.5548 16.7839 25.6343 16.7283C25.7953 16.6157 26.0209 16.4778 26.2837 16.3688C26.8134 16.149 27.3887 16.082 27.9412 16.4179C28.4984 16.7566 28.7405 17.3427 28.8206 17.9757C28.8597 18.2844 28.8547 18.5717 28.839 18.7834C28.8312 18.888 28.8211 18.9711 28.8134 19.0252C28.8096 19.0522 28.8065 19.0718 28.8045 19.083L28.8031 19.0916L28.8027 19.0935C28.7148 19.5515 29.0056 19.9972 29.4607 20.1011C30.2726 20.2864 30.8479 20.7013 31.2387 21.2788C31.6384 21.8694 31.8782 22.6818 31.9038 23.6924C31.9011 25.4766 31.1943 26.5774 30.3066 27.2555C29.3814 27.9622 28.1989 28.2516 27.2566 28.2516L11.8318 28.2516C10.0482 28.2516 9.19129 27.6587 8.7433 27.0466C8.25836 26.384 8.12604 25.5275 8.12604 24.8218C8.12604 23.4362 8.87963 22.5684 9.72035 22.0062C10.1438 21.723 10.5735 21.531 10.9004 21.4098C11.0626 21.3497 11.1958 21.3084 11.2855 21.2828C11.3303 21.27 11.3639 21.2612 11.3846 21.256ZM14.003 37.4163L15.628 38.907C15.9805 39.2303 16.5284 39.2067 16.8518 38.8542C17.1751 38.5016 17.1515 37.9537 16.799 37.6304L13.6725 34.7625C13.3432 34.4605 12.8382 34.4585 12.5066 34.7579L9.32974 37.6257C8.97467 37.9463 8.94668 38.494 9.26722 38.8491C9.58777 39.2041 10.1355 39.2321 10.4905 38.9116L12.2707 37.3046L12.2707 44.3636C12.2707 45.3735 13.0893 46.1922 14.0992 46.1922L21.106 46.1922C21.5844 46.1922 21.9722 45.8044 21.9722 45.326C21.9722 44.8477 21.5844 44.4599 21.106 44.4599L14.0992 44.4599C14.0461 44.4599 14.003 44.4168 14.003 44.3636L14.003 37.4163ZM45.7054 24.8503L44.0804 23.3597C43.7279 23.0363 43.18 23.06 42.8566 23.4125C42.5333 23.765 42.5569 24.3129 42.9094 24.6362L46.0359 27.5041C46.3652 27.8062 46.8702 27.8082 47.2018 27.5088L50.3787 24.6409C50.7337 24.3203 50.7617 23.7726 50.4412 23.4176C50.1206 23.0625 49.5729 23.0345 49.2179 23.355L47.4377 24.9621L47.4377 17.903C47.4377 16.8932 46.6191 16.0745 45.6092 16.0745L38.6024 16.0745C38.124 16.0745 37.7362 16.4623 37.7362 16.9407C37.7362 17.419 38.124 17.8068 38.6024 17.8068L45.6092 17.8068C45.6624 17.8068 45.7054 17.8499 45.7054 17.903L45.7054 24.8503Z" fill="#F8F9FA"/>
<path d="M31.3343 43.2207C31.7386 43.1304 31.993 42.7294 31.9027 42.3252C31.8124 41.921 31.4114 41.6665 31.0072 41.7568L31.3343 43.2207ZM31.0057 41.7571C30.6015 41.8475 30.347 42.2484 30.4373 42.6526C30.5277 43.0569 30.9286 43.3114 31.3329 43.221L31.0057 41.7571ZM31.0072 41.7568L31.0057 41.7571L31.3329 43.221L31.3343 43.2207L31.0072 41.7568ZM32.8738 35.2024L31.8741 34.084L31.8741 34.084L32.8738 35.2024ZM38.3834 33.1818L38.3834 31.6818L38.3834 31.6818L38.3834 33.1818ZM30.1592 40.9884L30.6613 42.4019C31.2106 42.2068 31.5971 41.7112 31.6525 41.1309L30.1592 40.9884ZM30.0619 41.0237L30.5831 42.4303L30.5831 42.4302L30.0619 41.0237ZM28.5208 41.8045L29.3546 43.0514L29.3546 43.0514L28.5208 41.8045ZM26.1571 46.0601L27.6571 46.0601L27.6571 46.0601L26.1571 46.0601ZM27.1088 49.308L25.8983 50.1939L25.8983 50.1939L27.1088 49.308ZM31.5952 51.2222L31.5952 49.7222L31.5952 51.2222ZM47.0199 51.2222L47.0199 52.7222L47.0199 51.2222ZM51.1216 49.8704L52.0321 51.0624L52.0321 51.0624L51.1216 49.8704ZM53.3995 44.9203L54.8995 44.9203C54.8995 44.9143 54.8995 44.9083 54.8994 44.9024L53.3995 44.9203ZM53.3993 44.8996L54.8992 44.8816C54.8991 44.8757 54.899 44.8697 54.8989 44.8637L53.3993 44.8996ZM52.4368 41.5462L53.679 40.7055L53.679 40.7055L52.4368 41.5462ZM50.3439 39.8758L48.8445 39.8334C48.8266 40.4656 49.2071 41.041 49.7958 41.2721L50.3439 39.8758ZM50.3026 38.9965L51.7907 38.8082L51.7907 38.8082L50.3026 38.9965ZM48.6044 36.1759L49.3835 34.8941L49.3835 34.8941L48.6044 36.1759ZM45.3832 36.007L44.8083 34.6216L45.3832 36.007ZM44.7187 36.3435L43.6345 37.3801C44.119 37.8868 44.8898 37.9903 45.4908 37.6295L44.7187 36.3435ZM31.1693 42.4891L30.8424 41.0251C30.8322 41.0274 30.8219 41.0298 30.8117 41.0323L31.1693 42.4891ZM31.148 42.4943L30.7903 41.0375L30.7823 41.0396L31.148 42.4943ZM31.8465 41.6831L30.3481 41.6147L30.3481 41.6147L31.8465 41.6831ZM34.0283 36.4939L35.028 37.6122L35.028 37.6122L34.0283 36.4939ZM43.928 38.0549L42.7796 39.0199L42.7796 39.0199L43.928 38.0549ZM44.5334 38.3619L44.6333 36.8652L44.6333 36.8652L44.5334 38.3619ZM45.1715 38.1406L44.1863 37.0095C44.1797 37.0152 44.1732 37.0209 44.1668 37.0268L45.1715 38.1406ZM45.1778 38.1351L44.1977 36.9995L44.1926 37.004L45.1778 38.1351ZM45.2184 38.1012L44.2727 36.9369L44.2726 36.9369L45.2184 38.1012ZM45.3977 37.9666L46.2573 39.1958L46.2574 39.1958L45.3977 37.9666ZM46.047 37.6071L46.6219 38.9925L46.6219 38.9925L46.047 37.6071ZM47.7046 37.6561L46.9255 38.9379L46.9255 38.9379L47.7046 37.6561ZM48.584 39.2139L47.0959 39.4022L47.0959 39.4022L48.584 39.2139ZM48.6024 40.0217L47.1065 39.9109L47.1065 39.9109L48.6024 40.0217ZM48.5768 40.2635L50.062 40.4737L50.062 40.4736L48.5768 40.2635ZM48.5679 40.3213L50.0464 40.5746L50.0467 40.5728L48.5679 40.3213ZM48.5665 40.3299L50.0393 40.6142C50.0413 40.6039 50.0432 40.5935 50.0449 40.5832L48.5665 40.3299ZM48.5661 40.3318L47.0933 40.0475L47.093 40.0492L48.5661 40.3318ZM49.224 41.3394L49.5578 39.8769L49.5578 39.8769L49.224 41.3394ZM51.0021 42.5171L49.7598 43.3578L49.7598 43.3578L51.0021 42.5171ZM51.6672 44.9306L53.1672 44.9329C53.1673 44.9195 53.1671 44.906 53.1668 44.8926L51.6672 44.9306ZM50.07 48.4937L49.1595 47.3017L49.1595 47.3017L50.07 48.4937ZM47.0199 49.4899L47.0199 47.9899H47.0199L47.0199 49.4899ZM31.5952 49.4899L31.5952 50.9899H31.5952L31.5952 49.4899ZM28.5067 48.2849L27.2962 49.1708L27.2962 49.1708L28.5067 48.2849ZM29.4837 43.2445L30.3175 44.4914L30.3175 44.4914L29.4837 43.2445ZM30.6638 42.6481L30.1426 41.2415L30.1426 41.2415L30.6638 42.6481ZM31.0489 42.5211L31.4606 43.9635L31.4606 43.9635L31.0489 42.5211ZM13.1104 13.9641L14.1101 15.0824L14.1101 15.0824L13.1104 13.9641ZM10.3959 19.7501L10.8979 21.1636C11.4472 20.9685 11.8337 20.4728 11.8891 19.8926L10.3959 19.7501ZM10.2985 19.7854L10.8197 21.192L10.8198 21.192L10.2985 19.7854ZM8.75744 20.5662L7.92365 19.3193L7.92365 19.3193L8.75744 20.5662ZM7.3454 28.0697L6.13495 28.9556L6.13495 28.9556L7.3454 28.0697ZM11.8318 29.9839L11.8318 31.4839L11.8318 31.4839L11.8318 29.9839ZM27.2566 29.9839L27.2566 28.4839L27.2566 28.4839L27.2566 29.9839ZM31.3582 28.6321L30.4477 27.44L30.4477 27.44L31.3582 28.6321ZM33.6361 23.682L35.1361 23.682C35.1361 23.676 35.1361 23.67 35.136 23.6641L33.6361 23.682ZM33.6359 23.6613L35.1358 23.6433C35.1357 23.6374 35.1356 23.6314 35.1355 23.6254L33.6359 23.6613ZM32.6734 20.3079L31.4311 21.1486L31.4311 21.1486L32.6734 20.3079ZM30.5805 18.6376L29.0811 18.5952C29.0632 19.2273 29.4437 19.8028 30.0324 20.0338L30.5805 18.6376ZM30.5392 17.7582L32.0273 17.57L32.0273 17.5699L30.5392 17.7582ZM28.841 14.9376L28.0618 16.2194L28.0618 16.2194L28.841 14.9376ZM25.6198 14.7688L25.0449 13.3833L25.0449 13.3833L25.6198 14.7688ZM24.9553 15.1052L23.8711 16.1418C24.3556 16.6485 25.1264 16.7521 25.7274 16.3912L24.9553 15.1052ZM11.4059 21.2508L11.0791 19.7868C11.0688 19.7891 11.0585 19.7915 11.0482 19.7941L11.4059 21.2508ZM11.3846 21.256L11.0269 19.7993L11.019 19.8013L11.3846 21.256ZM12.0831 20.4448L10.5847 20.3764L10.5847 20.3764L12.0831 20.4448ZM14.2649 15.2556L13.2652 14.1373L13.2652 14.1373L14.2649 15.2556ZM24.1646 16.8166L23.0162 17.7816L23.0162 17.7816L24.1646 16.8166ZM24.77 17.1236L24.6701 18.6202L24.6701 18.6202L24.77 17.1236ZM25.4081 16.9023L26.4128 18.0161L26.4141 18.0149L25.4081 16.9023ZM25.4092 16.9013L24.4034 15.7884L24.4031 15.7887L25.4092 16.9013ZM25.4099 16.9006L24.4337 15.7618C24.4237 15.7703 24.4139 15.779 24.4042 15.7877L25.4099 16.9006ZM25.4144 16.8968L26.3906 18.0356L26.3944 18.0324L25.4144 16.8968ZM25.455 16.8629L24.5093 15.6986L24.5092 15.6987L25.455 16.8629ZM25.6343 16.7283L24.7746 15.4991L24.7746 15.4991L25.6343 16.7283ZM26.2837 16.3688L25.7088 14.9833L25.7088 14.9833L26.2837 16.3688ZM27.9412 16.4179L28.7203 15.1361L28.7203 15.1361L27.9412 16.4179ZM28.8206 17.9757L30.3087 17.7874L30.3087 17.7874L28.8206 17.9757ZM28.839 18.7834L27.3431 18.6726L27.3431 18.6726L28.839 18.7834ZM28.8134 19.0252L27.3282 18.8151L27.3282 18.8152L28.8134 19.0252ZM28.8045 19.083L30.283 19.3365L30.2833 19.3345L28.8045 19.083ZM28.8031 19.0916L30.2757 19.3766C30.2778 19.3661 30.2797 19.3556 30.2815 19.345L28.8031 19.0916ZM28.8027 19.0935L27.33 18.8085L27.3296 18.8109L28.8027 19.0935ZM29.4607 20.1011L29.7944 18.6387L29.7944 18.6387L29.4607 20.1011ZM31.2387 21.2788L29.9964 22.1195L29.9964 22.1195L31.2387 21.2788ZM31.9038 23.6924L33.4038 23.6946C33.4039 23.6812 33.4037 23.6677 33.4034 23.6543L31.9038 23.6924ZM30.3066 27.2555L31.2172 28.4475L31.2172 28.4475L30.3066 27.2555ZM27.2566 28.2516L27.2566 26.7516L27.2566 26.7516L27.2566 28.2516ZM11.8318 28.2516L11.8318 29.7516L11.8318 29.7516L11.8318 28.2516ZM8.7433 27.0466L9.95375 26.1607L9.95375 26.1607L8.7433 27.0466ZM9.72035 22.0062L10.5541 23.2531L10.5541 23.2531L9.72035 22.0062ZM10.9004 21.4098L10.3792 20.0033L10.3792 20.0033L10.9004 21.4098ZM11.2855 21.2828L10.8739 19.8404L10.8738 19.8404L11.2855 21.2828ZM15.628 38.907L14.614 40.0123L14.614 40.0123L15.628 38.907ZM14.003 37.4163L15.0169 36.3109C14.5785 35.9088 13.9438 35.8037 13.3992 36.0432C12.8546 36.2827 12.503 36.8214 12.503 37.4163L14.003 37.4163ZM16.799 37.6304L17.8129 36.525L17.8129 36.525L16.799 37.6304ZM13.6725 34.7625L12.6585 35.8679L12.6585 35.8679L13.6725 34.7625ZM12.5066 34.7579L11.5014 33.6444L11.5014 33.6444L12.5066 34.7579ZM9.32974 37.6257L10.3349 38.7392L10.3349 38.7392L9.32974 37.6257ZM10.4905 38.9116L11.4957 40.025L10.4905 38.9116ZM12.2707 37.3046L13.7707 37.3046C13.7707 36.7118 13.4216 36.1746 12.8799 35.9339C12.3382 35.6931 11.7055 35.7939 11.2655 36.1911L12.2707 37.3046ZM14.0992 46.1922L14.0992 47.6922H14.0992L14.0992 46.1922ZM21.106 46.1922L21.106 44.6922L21.106 44.6922L21.106 46.1922ZM21.106 44.4599L21.106 42.9599L21.106 42.9599L21.106 44.4599ZM14.0992 44.4599L14.0992 45.9599L14.0992 45.9599L14.0992 44.4599ZM44.0804 23.3597L43.0665 24.4651L43.0665 24.4651L44.0804 23.3597ZM45.7054 24.8503L44.6915 25.9557C45.1299 26.3578 45.7646 26.4629 46.3092 26.2234C46.8538 25.9839 47.2054 25.4452 47.2054 24.8503L45.7054 24.8503ZM42.8566 23.4125L43.962 24.4264L43.962 24.4264L42.8566 23.4125ZM42.9094 24.6362L41.8955 25.7416L41.8955 25.7416L42.9094 24.6362ZM46.0359 27.5041L45.022 28.6095L45.022 28.6095L46.0359 27.5041ZM47.2018 27.5088L48.207 28.6222L48.207 28.6222L47.2018 27.5088ZM50.3787 24.6409L49.3735 23.5275L49.3735 23.5275L50.3787 24.6409ZM50.4412 23.4176L49.3278 24.4227L49.3278 24.4227L50.4412 23.4176ZM49.2179 23.355L50.223 24.4685L50.223 24.4685L49.2179 23.355ZM47.4377 24.9621L45.9377 24.9621C45.9377 25.5548 46.2868 26.092 46.8285 26.3328C47.3702 26.5735 48.0029 26.4727 48.4429 26.0755L47.4377 24.9621ZM47.4377 17.903L48.9377 17.903L47.4377 17.903ZM45.6092 16.0745L45.6092 17.5745L45.6092 16.0745ZM38.6024 16.0745L38.6024 14.5745L38.6024 16.0745ZM38.6024 17.8068L38.6024 16.3068L38.6024 17.8068ZM45.6092 17.8068L45.6092 19.3068L45.6092 17.8068ZM33.8735 36.3207C35.1194 35.2069 36.7512 34.6818 38.3834 34.6818L38.3834 31.6818C36.1299 31.6818 33.7509 32.4063 31.8741 34.084L33.8735 36.3207ZM31.6525 41.1309C31.8644 38.9097 32.7241 37.3481 33.8735 36.3207L31.8741 34.084C30.1052 35.6653 28.9421 37.9523 28.666 40.8459L31.6525 41.1309ZM30.5831 42.4302C30.6099 42.4203 30.636 42.4109 30.6613 42.4019L29.6572 39.5749C29.6194 39.5883 29.5805 39.6024 29.5406 39.6172L30.5831 42.4302ZM29.3546 43.0514C29.7972 42.7554 30.2443 42.5558 30.5831 42.4303L29.5406 39.6172C29.0491 39.7994 28.3766 40.0964 27.687 40.5575L29.3546 43.0514ZM27.6571 46.0601C27.6571 44.5736 28.4716 43.6418 29.3546 43.0514L27.687 40.5575C26.2935 41.4894 24.6571 43.2383 24.6571 46.0601L27.6571 46.0601ZM28.3192 48.4221C27.7921 47.7019 27.6571 46.7871 27.6571 46.0601L24.6571 46.0601C24.6571 47.0599 24.8254 48.7279 25.8983 50.1939L28.3192 48.4221ZM31.5952 49.7222C29.7515 49.7222 28.8187 49.1045 28.3192 48.4221L25.8983 50.1939C27.0729 51.7987 28.9981 52.7222 31.5952 52.7222L31.5952 49.7222ZM47.0199 49.7222L31.5952 49.7222L31.5952 52.7222L47.0199 52.7222L47.0199 49.7222ZM50.211 48.6783C49.2377 49.4218 48.0028 49.7222 47.0199 49.7222L47.0199 52.7222C48.5212 52.7222 50.4346 52.2826 52.0321 51.0624L50.211 48.6783ZM51.8995 44.9203C51.8995 46.7826 51.1583 47.9548 50.211 48.6783L52.0321 51.0624C53.7273 49.7675 54.8995 47.7114 54.8995 44.9203L51.8995 44.9203ZM51.8994 44.9175L51.8996 44.9382L54.8994 44.9024L54.8992 44.8816L51.8994 44.9175ZM51.1945 42.3869C51.6266 43.0255 51.8747 43.888 51.8997 44.9355L54.8989 44.8637C54.864 43.4062 54.5147 41.9405 53.679 40.7055L51.1945 42.3869ZM49.7958 41.2721C50.391 41.5058 50.854 41.8837 51.1945 42.3869L53.679 40.7055C53.0008 39.7033 52.0552 38.9362 50.892 38.4796L49.7958 41.2721ZM48.8144 39.1848C48.8441 39.4189 48.8499 39.6418 48.8445 39.8334L51.8433 39.9183C51.8522 39.6045 51.8433 39.2241 51.7907 38.8082L48.8144 39.1848ZM47.8252 37.4577C48.4664 37.8474 48.7296 38.5142 48.8144 39.1848L51.7907 38.8082C51.6504 37.6989 51.1356 35.9591 49.3835 34.8941L47.8252 37.4577ZM45.958 37.3925C46.5294 37.1554 47.1881 37.0704 47.8252 37.4577L49.3835 34.8941C47.618 33.821 45.8638 34.1836 44.8083 34.6216L45.958 37.3925ZM45.4908 37.6295C45.6282 37.547 45.786 37.4639 45.958 37.3925L44.8083 34.6216C44.4778 34.7587 44.1879 34.9126 43.9465 35.0575L45.4908 37.6295ZM38.3834 34.6818C40.3205 34.6818 42.2389 35.9204 43.6345 37.3801L45.8029 35.3069C44.1723 33.6014 41.5191 31.6818 38.3834 31.6818L38.3834 34.6818ZM30.8117 41.0323L30.7903 41.0376L31.5056 43.9511L31.5269 43.9458L30.8117 41.0323ZM30.3481 41.6147C30.3612 41.3273 30.5648 41.0871 30.8424 41.0251L31.4961 43.953C32.5367 43.7207 33.2962 42.8199 33.345 41.7514L30.3481 41.6147ZM33.0286 35.3755C31.5071 36.7357 30.4764 38.8024 30.3481 41.6147L33.345 41.7514C33.4412 39.6422 34.1801 38.3701 35.028 37.6122L33.0286 35.3755ZM38.3834 33.4141C36.4883 33.4141 34.5409 34.0237 33.0286 35.3755L35.028 37.6122C35.9103 36.8235 37.1111 36.4141 38.3834 36.4141L38.3834 33.4141ZM45.0764 37.0899C43.617 35.3531 41.137 33.4141 38.3834 33.4141L38.3834 36.4141C39.8152 36.4141 41.5327 37.536 42.7796 39.0199L45.0764 37.0899ZM44.6333 36.8652C44.8054 36.8767 44.9654 36.9578 45.0764 37.0899L42.7796 39.0199C43.1938 39.5128 43.791 39.8156 44.4335 39.8585L44.6333 36.8652ZM44.1668 37.0268C44.2936 36.9123 44.4616 36.8537 44.6333 36.8652L44.4335 39.8585C45.0728 39.9012 45.7015 39.6826 46.1762 39.2544L44.1668 37.0268ZM44.1926 37.004L44.1863 37.0095L46.1567 39.2717L46.1629 39.2662L44.1926 37.004ZM44.2726 36.9369C44.241 36.9626 44.2159 36.9839 44.1977 36.9995L46.1578 39.2707C46.1547 39.2733 46.157 39.2713 46.1641 39.2655L44.2726 36.9369ZM44.538 36.7374C44.4255 36.8161 44.3358 36.8856 44.2727 36.9369L46.1641 39.2656C46.1787 39.2537 46.2109 39.2283 46.2573 39.1958L44.538 36.7374ZM45.4722 36.2216C45.0829 36.3831 44.7613 36.5812 44.538 36.7374L46.2574 39.1958C46.3561 39.1267 46.4857 39.0491 46.6219 38.9925L45.4722 36.2216ZM48.4837 36.3744C47.3741 35.6999 46.2547 35.8969 45.4722 36.2216L46.6219 38.9925C46.7654 38.933 46.8469 38.9235 46.8793 38.9232C46.893 38.9231 46.898 38.9246 46.8985 38.9247C46.8985 38.9247 46.9068 38.9266 46.9255 38.9379L48.4837 36.3744ZM50.0721 39.0257C49.9631 38.1642 49.5911 37.0475 48.4837 36.3744L46.9255 38.9379C46.9446 38.9496 46.9654 38.9652 46.9941 39.02C47.0292 39.0872 47.0713 39.2079 47.0959 39.4022L50.0721 39.0257ZM50.0983 40.1324C50.1191 39.8506 50.127 39.4591 50.0721 39.0257L47.0959 39.4022C47.1191 39.5862 47.1169 39.7694 47.1065 39.9109L50.0983 40.1324ZM50.062 40.4736C50.0738 40.3907 50.0878 40.2743 50.0983 40.1324L47.1065 39.9109C47.1015 39.9784 47.0952 40.0281 47.0916 40.0534L50.062 40.4736ZM50.0467 40.5728C50.0508 40.5485 50.0562 40.5151 50.062 40.4737L47.0916 40.0534C47.0899 40.0659 47.0888 40.0717 47.0892 40.0698L50.0467 40.5728ZM50.0449 40.5832L50.0464 40.5746L47.0895 40.068L47.088 40.0766L50.0449 40.5832ZM50.0389 40.6161L50.0393 40.6142L47.0937 40.0456L47.0933 40.0475L50.0389 40.6161ZM49.5578 39.8769C49.8908 39.953 50.1036 40.2791 50.0392 40.6144L47.093 40.0492C46.8529 41.3005 47.6471 42.5181 48.8903 42.8018L49.5578 39.8769ZM52.2444 41.6764C51.6343 40.7749 50.7295 40.1443 49.5578 39.8769L48.8903 42.8018C49.3424 42.9049 49.5883 43.1043 49.7598 43.3578L52.2444 41.6764ZM53.1668 44.8926C53.1359 43.6765 52.8449 42.5638 52.2444 41.6764L49.7598 43.3578C49.9587 43.6516 50.1473 44.1636 50.1677 44.9687L53.1668 44.8926ZM50.9806 49.6858C52.2412 48.7228 53.1638 47.1813 53.1672 44.9329L50.1672 44.9284C50.1652 46.2485 49.6743 46.9085 49.1595 47.3017L50.9806 49.6858ZM47.0199 50.9899C48.2222 50.9899 49.7438 50.6305 50.9806 49.6858L49.1595 47.3017C48.5458 47.7705 47.7023 47.9899 47.0199 47.9899L47.0199 50.9899ZM31.5952 50.9899L47.0199 50.9899L47.0199 47.9899L31.5952 47.9899L31.5952 50.9899ZM27.2962 49.1708C28.08 50.2416 29.4312 50.9899 31.5952 50.9899L31.5952 47.9899C30.8674 47.9899 30.4286 47.8689 30.1721 47.752C29.9276 47.6406 29.7991 47.5111 29.7171 47.399L27.2962 49.1708ZM26.3894 46.0601C26.3894 46.9026 26.5386 48.1356 27.2962 49.1708L29.7171 47.399C29.5049 47.1091 29.3894 46.6288 29.3894 46.0601L26.3894 46.0601ZM28.65 41.9976C27.5479 42.7345 26.3894 44.0123 26.3894 46.0601L29.3894 46.0601C29.3894 45.6575 29.4938 45.3732 29.6362 45.1498C29.7881 44.9114 30.0166 44.6926 30.3175 44.4914L28.65 41.9976ZM30.1426 41.2415C29.7393 41.391 29.1969 41.6318 28.65 41.9976L30.3175 44.4914C30.6174 44.2908 30.9344 44.1475 31.1851 44.0546L30.1426 41.2415ZM30.6373 41.0787C30.5155 41.1134 30.3453 41.1664 30.1426 41.2415L31.1851 44.0546C31.3066 44.0095 31.4029 43.9799 31.4606 43.9635L30.6373 41.0787ZM30.7823 41.0396C30.7472 41.0484 30.6982 41.0613 30.6372 41.0787L31.4606 43.9635C31.4892 43.9553 31.5074 43.9506 31.5136 43.9491L30.7823 41.0396ZM14.1101 15.0824C15.356 13.9687 16.9878 13.4436 18.62 13.4436L18.62 10.4436C16.3665 10.4436 13.9875 11.1681 12.1107 12.8458L14.1101 15.0824ZM11.8891 19.8926C12.101 17.6714 12.9607 16.1098 14.1101 15.0824L12.1107 12.8458C10.3418 14.427 9.17873 16.714 8.90264 19.6076L11.8891 19.8926ZM10.8198 21.192C10.8465 21.182 10.8726 21.1726 10.8979 21.1636L9.89379 18.3366C9.85597 18.3501 9.81708 18.3642 9.77721 18.3789L10.8198 21.192ZM9.59123 21.8131C10.0338 21.5171 10.4809 21.3175 10.8197 21.192L9.77726 18.3789C9.28571 18.5611 8.61322 18.8582 7.92365 19.3193L9.59123 21.8131ZM7.89374 24.8218C7.89374 23.3353 8.70821 22.4035 9.59123 21.8131L7.92365 19.3193C6.5301 20.2511 4.89374 22 4.89374 24.8218L7.89374 24.8218ZM8.55585 27.1838C8.02874 26.4636 7.89374 25.5488 7.89374 24.8218L4.89374 24.8218C4.89374 25.8216 5.06202 27.4896 6.13495 28.9556L8.55585 27.1838ZM11.8318 28.4839C9.98816 28.4839 9.05527 27.8662 8.55585 27.1838L6.13495 28.9556C7.30948 30.5604 9.23466 31.4839 11.8318 31.4839L11.8318 28.4839ZM27.2566 28.4839L11.8318 28.4839L11.8318 31.4839L27.2566 31.4839L27.2566 28.4839ZM30.4477 27.44C29.4743 28.1835 28.2394 28.4839 27.2566 28.4839L27.2566 31.4839C28.7578 31.4839 30.6712 31.0443 32.2687 29.8241L30.4477 27.44ZM32.1361 23.682C32.1361 25.5443 31.3949 26.7165 30.4477 27.44L32.2687 29.8241C33.9639 28.5292 35.1361 26.4731 35.1361 23.682L32.1361 23.682ZM32.136 23.6793L32.1363 23.7L35.136 23.6641L35.1358 23.6433L32.136 23.6793ZM31.4311 21.1486C31.8632 21.7872 32.1113 22.6497 32.1363 23.6972L35.1355 23.6254C35.1006 22.1679 34.7514 20.7022 33.9157 19.4673L31.4311 21.1486ZM30.0324 20.0338C30.6276 20.2675 31.0906 20.6454 31.4311 21.1486L33.9157 19.4673C33.2374 18.4651 32.2919 17.6979 31.1286 17.2413L30.0324 20.0338ZM29.0511 17.9465C29.0807 18.1806 29.0865 18.4036 29.0811 18.5952L32.0799 18.68C32.0888 18.3662 32.0799 17.9858 32.0273 17.57L29.0511 17.9465ZM28.0618 16.2194C28.703 16.6091 28.9662 17.2759 29.0511 17.9465L32.0273 17.5699C31.887 16.4606 31.3722 14.7208 29.6201 13.6558L28.0618 16.2194ZM26.1946 16.1542C26.766 15.9171 27.4247 15.8321 28.0618 16.2194L29.6201 13.6558C27.8546 12.5827 26.1005 12.9453 25.0449 13.3833L26.1946 16.1542ZM25.7274 16.3912C25.8648 16.3087 26.0226 16.2256 26.1946 16.1542L25.0449 13.3833C24.7144 13.5204 24.4245 13.6743 24.1832 13.8192L25.7274 16.3912ZM18.62 13.4436C20.5571 13.4436 22.4755 14.6821 23.8711 16.1418L26.0395 14.0686C24.4089 12.3632 21.7557 10.4436 18.62 10.4436L18.62 13.4436ZM11.0482 19.7941L11.0269 19.7993L11.7423 22.7128L11.7636 22.7075L11.0482 19.7941ZM10.5847 20.3764C10.5978 20.089 10.8014 19.8488 11.0791 19.7868L11.7328 22.7148C12.7733 22.4824 13.5329 21.5816 13.5816 20.5131L10.5847 20.3764ZM13.2652 14.1373C11.7437 15.4974 10.713 17.5641 10.5847 20.3764L13.5816 20.5131C13.6778 18.4039 14.4167 17.1318 15.2646 16.3739L13.2652 14.1373ZM18.62 12.1759C16.7249 12.1759 14.7775 12.7854 13.2652 14.1373L15.2646 16.3739C16.1469 15.5852 17.3477 15.1759 18.62 15.1759L18.62 12.1759ZM25.313 15.8516C23.8536 14.1148 21.3736 12.1759 18.62 12.1759L18.62 15.1759C20.0518 15.1759 21.7693 16.2977 23.0162 17.7816L25.313 15.8516ZM24.87 15.6269C25.0421 15.6384 25.202 15.7195 25.313 15.8516L23.0162 17.7816C23.4305 18.2745 24.0276 18.5773 24.6701 18.6202L24.87 15.6269ZM24.4034 15.7885C24.5302 15.674 24.6983 15.6154 24.8699 15.6269L24.6701 18.6202C25.3094 18.6629 25.9381 18.4443 26.4128 18.0161L24.4034 15.7885ZM24.4031 15.7887L24.402 15.7897L26.4141 18.0149L26.4152 18.0139L24.4031 15.7887ZM24.4042 15.7877L24.4034 15.7884L26.4149 18.0142L26.4157 18.0135L24.4042 15.7877ZM24.4381 15.758L24.4337 15.7618L26.3862 18.0394L26.3906 18.0356L24.4381 15.758ZM24.5092 15.6987C24.4777 15.7243 24.4526 15.7455 24.4344 15.7612L26.3944 18.0324C26.3913 18.0351 26.3936 18.0331 26.4008 18.0272L24.5092 15.6987ZM24.7746 15.4991C24.6621 15.5778 24.5725 15.6473 24.5093 15.6986L26.4007 18.0273C26.4153 18.0154 26.4475 17.99 26.494 17.9575L24.7746 15.4991ZM25.7088 14.9833C25.3195 15.1448 24.9979 15.3429 24.7746 15.4991L26.494 17.9575C26.5927 17.8884 26.7223 17.8108 26.8585 17.7543L25.7088 14.9833ZM28.7203 15.1361C27.6107 14.4616 26.4913 14.6586 25.7088 14.9833L26.8585 17.7543C27.002 17.6947 27.0835 17.6852 27.1159 17.6849C27.1296 17.6848 27.1346 17.6863 27.1351 17.6864C27.1351 17.6864 27.1434 17.6883 27.1621 17.6996L28.7203 15.1361ZM30.3087 17.7874C30.1998 16.9259 29.8277 15.8092 28.7203 15.1361L27.1621 17.6996C27.1812 17.7113 27.202 17.7269 27.2307 17.7817C27.2658 17.8489 27.3079 17.9696 27.3325 18.1639L30.3087 17.7874ZM30.3349 18.8942C30.3558 18.6123 30.3636 18.2208 30.3087 17.7874L27.3325 18.1639C27.3557 18.3479 27.3535 18.5311 27.3431 18.6726L30.3349 18.8942ZM30.2987 19.2354C30.3104 19.1524 30.3244 19.036 30.3349 18.8941L27.3431 18.6726C27.3381 18.7401 27.3318 18.7898 27.3282 18.8151L30.2987 19.2354ZM30.2833 19.3345C30.2874 19.3102 30.2928 19.2768 30.2987 19.2353L27.3282 18.8152C27.3265 18.8277 27.3255 18.8334 27.3258 18.8315L30.2833 19.3345ZM30.2815 19.345L30.283 19.3365L27.3261 18.8296L27.3246 18.8382L30.2815 19.345ZM30.2754 19.3785L30.2757 19.3766L27.3304 18.8066L27.33 18.8085L30.2754 19.3785ZM29.7944 18.6387C30.1274 18.7147 30.3402 19.0408 30.2758 19.3761L27.3296 18.8109C27.0895 20.0623 27.8837 21.2798 29.1269 21.5635L29.7944 18.6387ZM32.481 20.4381C31.8709 19.5366 30.9661 18.9061 29.7944 18.6387L29.1269 21.5635C29.579 21.6666 29.8249 21.866 29.9964 22.1195L32.481 20.4381ZM33.4034 23.6543C33.3725 22.4382 33.0815 21.3255 32.481 20.4381L29.9964 22.1195C30.1953 22.4133 30.3839 22.9253 30.4043 23.7304L33.4034 23.6543ZM31.2172 28.4475C32.4778 27.4846 33.4004 25.943 33.4038 23.6946L30.4039 23.6901C30.4018 25.0102 29.9109 25.6702 29.3961 26.0634L31.2172 28.4475ZM27.2566 29.7516C28.4589 29.7516 29.9804 29.3922 31.2172 28.4475L29.3961 26.0634C28.7824 26.5322 27.9389 26.7516 27.2566 26.7516L27.2566 29.7516ZM11.8318 29.7516L27.2566 29.7516L27.2566 26.7516L11.8318 26.7516L11.8318 29.7516ZM7.53285 27.9325C8.31656 29.0034 9.66778 29.7516 11.8318 29.7516L11.8318 26.7516C11.104 26.7516 10.6652 26.6306 10.4087 26.5137C10.1642 26.4023 10.0358 26.2728 9.95375 26.1607L7.53285 27.9325ZM6.62604 24.8218C6.62604 25.6644 6.77519 26.8973 7.53285 27.9325L9.95375 26.1607C9.74154 25.8708 9.62604 25.3905 9.62604 24.8218L6.62604 24.8218ZM8.88656 20.7593C7.78453 21.4962 6.62604 22.774 6.62604 24.8218L9.62604 24.8218C9.62604 24.4192 9.73039 24.1349 9.87281 23.9115C10.0247 23.6732 10.2532 23.4543 10.5541 23.2531L8.88656 20.7593ZM10.3792 20.0033C9.9759 20.1527 9.43352 20.3935 8.88656 20.7593L10.5541 23.2531C10.854 23.0526 11.171 22.9092 11.4217 22.8163L10.3792 20.0033ZM10.8738 19.8404C10.7521 19.8751 10.5819 19.9281 10.3792 20.0033L11.4217 22.8163C11.5432 22.7713 11.6395 22.7416 11.6973 22.7252L10.8738 19.8404ZM11.019 19.8013C10.9838 19.8101 10.9348 19.823 10.8739 19.8404L11.6972 22.7252C11.7258 22.717 11.7441 22.7123 11.7502 22.7108L11.019 19.8013ZM16.642 37.8016L15.0169 36.3109L12.989 38.5217L14.614 40.0123L16.642 37.8016ZM15.7464 37.8402C15.983 37.5822 16.384 37.5649 16.642 37.8016L14.614 40.0123C15.577 40.8957 17.0738 40.8311 17.9572 39.8681L15.7464 37.8402ZM15.785 38.7358C15.527 38.4991 15.5097 38.0982 15.7464 37.8402L17.9572 39.8681C18.8405 38.9051 18.7759 37.4083 17.8129 36.525L15.785 38.7358ZM12.6585 35.8679L15.785 38.7358L17.8129 36.525L14.6864 33.6571L12.6585 35.8679ZM13.5117 35.8713C13.269 36.0904 12.8995 36.0889 12.6585 35.8679L14.6864 33.6571C13.7869 32.832 12.4074 32.8265 11.5014 33.6444L13.5117 35.8713ZM10.3349 38.7392L13.5117 35.8713L11.5014 33.6444L8.32461 36.5123L10.3349 38.7392ZM10.3806 37.8439C10.6152 38.1038 10.5947 38.5046 10.3349 38.7392L8.32461 36.5123C7.35461 37.388 7.27814 38.8842 8.15381 39.8542L10.3806 37.8439ZM9.4854 37.7982C9.74525 37.5636 10.1461 37.5841 10.3806 37.8439L8.15381 39.8542C9.02947 40.8242 10.5257 40.9007 11.4957 40.025L9.4854 37.7982ZM11.2655 36.1911L9.4854 37.7982L11.4957 40.025L13.2758 38.418L11.2655 36.1911ZM13.7707 44.3636L13.7707 37.3046L10.7707 37.3046L10.7707 44.3636L13.7707 44.3636ZM14.0992 44.6922C13.9178 44.6922 13.7707 44.5451 13.7707 44.3636L10.7707 44.3636C10.7707 46.2019 12.2609 47.6922 14.0992 47.6922L14.0992 44.6922ZM21.106 44.6922L14.0992 44.6922L14.0992 47.6922L21.106 47.6922L21.106 44.6922ZM20.4722 45.326C20.4722 44.9759 20.756 44.6922 21.106 44.6922L21.106 47.6922C22.4128 47.6922 23.4722 46.6328 23.4722 45.326L20.4722 45.326ZM21.106 45.9599C20.756 45.9599 20.4722 45.6761 20.4722 45.326L23.4722 45.326C23.4722 44.0192 22.4128 42.9599 21.106 42.9599L21.106 45.9599ZM14.0992 45.9599L21.106 45.9599L21.106 42.9599L14.0992 42.9599L14.0992 45.9599ZM12.503 44.3636C12.503 45.2453 13.2177 45.9599 14.0992 45.9599L14.0992 42.9599C14.8744 42.9599 15.503 43.5883 15.503 44.3636L12.503 44.3636ZM12.503 37.4163L12.503 44.3636L15.503 44.3636L15.503 37.4163L12.503 37.4163ZM43.0665 24.4651L44.6915 25.9557L46.7194 23.7449L45.0944 22.2543L43.0665 24.4651ZM43.962 24.4264C43.7254 24.6844 43.3244 24.7017 43.0665 24.4651L45.0944 22.2543C44.1314 21.3709 42.6346 21.4355 41.7512 22.3985L43.962 24.4264ZM43.9234 23.5309C44.1814 23.7675 44.1987 24.1685 43.962 24.4264L41.7512 22.3985C40.8679 23.3615 40.9325 24.8583 41.8955 25.7416L43.9234 23.5309ZM47.0499 26.3987L43.9234 23.5309L41.8955 25.7416L45.022 28.6095L47.0499 26.3987ZM46.1967 26.3954C46.4394 26.1763 46.8089 26.1777 47.0499 26.3987L45.022 28.6095C45.9215 29.4346 47.301 29.4401 48.207 28.6222L46.1967 26.3954ZM49.3735 23.5275L46.1967 26.3954L48.207 28.6222L51.3838 25.7543L49.3735 23.5275ZM49.3278 24.4227C49.0932 24.1629 49.1137 23.762 49.3735 23.5275L51.3838 25.7543C52.3538 24.8786 52.4303 23.3824 51.5546 22.4124L49.3278 24.4227ZM50.223 24.4685C49.9632 24.703 49.5623 24.6826 49.3278 24.4227L51.5546 22.4124C50.6789 21.4424 49.1827 21.366 48.2127 22.2416L50.223 24.4685ZM48.4429 26.0755L50.223 24.4685L48.2127 22.2416L46.4326 23.8487L48.4429 26.0755ZM48.9377 24.9621L48.9377 17.903L45.9377 17.903L45.9377 24.9621L48.9377 24.9621ZM48.9377 17.903C48.9377 16.0647 47.4475 14.5745 45.6092 14.5745L45.6092 17.5745C45.7906 17.5745 45.9377 17.7216 45.9377 17.903L48.9377 17.903ZM45.6092 14.5745L38.6024 14.5745L38.6024 17.5745L45.6092 17.5745L45.6092 14.5745ZM38.6024 14.5745C37.2956 14.5745 36.2362 15.6339 36.2362 16.9407L39.2362 16.9407C39.2362 17.2907 38.9524 17.5745 38.6024 17.5745L38.6024 14.5745ZM36.2362 16.9407C36.2362 18.2474 37.2956 19.3068 38.6024 19.3068L38.6024 16.3068C38.9524 16.3068 39.2362 16.5906 39.2362 16.9407L36.2362 16.9407ZM38.6024 19.3068L45.6092 19.3068L45.6092 16.3068L38.6024 16.3068L38.6024 19.3068ZM45.6092 19.3068C44.8339 19.3068 44.2054 18.6783 44.2054 17.903L47.2054 17.903C47.2054 17.0215 46.4908 16.3068 45.6092 16.3068L45.6092 19.3068ZM44.2054 17.903L44.2054 24.8503L47.2054 24.8503L47.2054 17.903L44.2054 17.903Z" fill="#F8F9FA" mask="url(#path-1-outside-1_50_2357)"/>
<path fill-rule="evenodd" clip-rule="evenodd" d="M18.6335 12.8149C15.107 12.8149 11.4745 15.0834 11.2315 20.4105C11.2315 20.4105 7.27344 21.2874 7.27344 24.827C7.27344 26.3961 7.84137 29.123 11.8453 29.123C15.8493 29.123 25.0857 29.123 27.2701 29.123C29.4545 29.123 32.7835 27.8043 32.7835 23.6873C32.7293 21.4193 31.7061 19.7272 29.6669 19.2619C29.6669 19.2619 30.1584 16.749 28.4046 15.683C26.6508 14.6169 24.8413 16.2646 24.8413 16.2646C23.4272 14.5818 21.1084 12.8149 18.6335 12.8149Z" fill="#91A7FF" stroke="#212529" stroke-width="1.8" stroke-linecap="round" stroke-linejoin="round"/>
<path fill-rule="evenodd" clip-rule="evenodd" d="M38.397 34.0532C34.8705 34.0532 31.2379 36.3217 30.9949 41.6488C30.9949 41.6488 27.0369 42.5257 27.0369 46.0653C27.0369 47.6344 27.6048 50.3613 31.6088 50.3613C35.6127 50.3613 44.8492 50.3613 47.0335 50.3613C49.2179 50.3613 52.547 49.0426 52.547 44.9255C52.4927 42.6576 51.4695 40.9655 49.4303 40.5001C49.4303 40.5001 49.9219 37.9873 48.1681 36.9212C46.4142 35.8552 44.6047 37.5029 44.6047 37.5029C43.1907 35.8201 40.8718 34.0532 38.397 34.0532Z" fill="#91A7FF" stroke="#212529" stroke-width="1.8" stroke-linecap="round" stroke-linejoin="round"/>
<path d="M21.1196 45.3311H14.1504C13.5981 45.3311 13.1504 44.8834 13.1504 44.3311V35.5085" stroke="#212529" stroke-width="1.8" stroke-linecap="round" stroke-linejoin="round"/>
<path d="M9.92371 38.2739L13.1005 35.406L16.227 38.2739" stroke="#212529" stroke-width="1.8" stroke-linecap="round" stroke-linejoin="round"/>
<path d="M38.6159 16.946L45.5851 16.946C46.1374 16.946 46.5851 17.3937 46.5851 17.946L46.5851 26.7686" stroke="#212529" stroke-width="1.8" stroke-linecap="round" stroke-linejoin="round"/>
<path d="M49.8118 24.0032L46.6349 26.8711L43.5084 24.0032" stroke="#212529" stroke-width="1.8" stroke-linecap="round" stroke-linejoin="round"/>
</svg>
