<svg width="60" height="61" viewBox="0 0 60 61" fill="none" xmlns="http://www.w3.org/2000/svg">
<mask id="path-1-outside-1_50_4227" maskUnits="userSpaceOnUse" x="8.15344" y="8.54443" width="44" height="44" fill="black">
<rect fill="white" x="8.15344" y="8.54443" width="44" height="44"/>
<path fill-rule="evenodd" clip-rule="evenodd" d="M30 12.4006C20.0642 12.4006 12.0096 20.4552 12.0096 30.3909C12.0096 40.3267 20.0642 48.3813 30 48.3813C39.9357 48.3813 47.9903 40.3267 47.9903 30.3909C47.9903 20.4552 39.9357 12.4006 30 12.4006ZM10.1534 30.3909C10.1534 19.43 19.039 10.5444 30 10.5444C40.9609 10.5444 49.8465 19.43 49.8465 30.3909C49.8465 41.3519 40.9609 50.2375 30 50.2375C19.039 50.2375 10.1534 41.3519 10.1534 30.3909Z"/>
</mask>
<path fill-rule="evenodd" clip-rule="evenodd" d="M30 12.4006C20.0642 12.4006 12.0096 20.4552 12.0096 30.3909C12.0096 40.3267 20.0642 48.3813 30 48.3813C39.9357 48.3813 47.9903 40.3267 47.9903 30.3909C47.9903 20.4552 39.9357 12.4006 30 12.4006ZM10.1534 30.3909C10.1534 19.43 19.039 10.5444 30 10.5444C40.9609 10.5444 49.8465 19.43 49.8465 30.3909C49.8465 41.3519 40.9609 50.2375 30 50.2375C19.039 50.2375 10.1534 41.3519 10.1534 30.3909Z" fill="#F8F9FA"/>
<path d="M13.5096 30.3909C13.5096 21.2836 20.8926 13.9006 30 13.9006V10.9006C19.2358 10.9006 10.5096 19.6267 10.5096 30.3909H13.5096ZM30 46.8813C20.8926 46.8813 13.5096 39.4983 13.5096 30.3909H10.5096C10.5096 41.1552 19.2358 49.8813 30 49.8813V46.8813ZM46.4903 30.3909C46.4903 39.4983 39.1073 46.8813 30 46.8813V49.8813C40.7642 49.8813 49.4903 41.1552 49.4903 30.3909H46.4903ZM30 13.9006C39.1073 13.9006 46.4903 21.2836 46.4903 30.3909H49.4903C49.4903 19.6267 40.7642 10.9006 30 10.9006V13.9006ZM30 9.04443C18.2106 9.04443 8.65344 18.6016 8.65344 30.3909H11.6534C11.6534 20.2584 19.8675 12.0444 30 12.0444V9.04443ZM51.3465 30.3909C51.3465 18.6016 41.7893 9.04443 30 9.04443V12.0444C40.1325 12.0444 48.3465 20.2584 48.3465 30.3909H51.3465ZM30 51.7375C41.7893 51.7375 51.3465 42.1803 51.3465 30.3909H48.3465C48.3465 40.5234 40.1325 48.7375 30 48.7375V51.7375ZM8.65344 30.3909C8.65344 42.1803 18.2106 51.7375 30 51.7375V48.7375C19.8675 48.7375 11.6534 40.5234 11.6534 30.3909H8.65344Z" fill="#F8F9FA" mask="url(#path-1-outside-1_50_4227)"/>
<circle cx="30" cy="30.3911" r="18.9184" fill="#BAC8FF" stroke="#212529" stroke-width="2" stroke-linejoin="round"/>
<circle cx="30" cy="30.3911" r="14.9072" fill="#F3F0FF"/>
<path d="M17.5743 30.3914H15.6816" stroke="#212529" stroke-width="1.4" stroke-linecap="round" stroke-linejoin="round"/>
<path d="M44.1997 30.3914H42.307" stroke="#212529" stroke-width="1.4" stroke-linecap="round" stroke-linejoin="round"/>
<path d="M29.9999 17.9655V16.0728" stroke="#212529" stroke-width="1.4" stroke-linecap="round" stroke-linejoin="round"/>
<path d="M29.9999 44.5909V42.6982" stroke="#212529" stroke-width="1.4" stroke-linecap="round" stroke-linejoin="round"/>
<g style="mix-blend-mode:multiply">
<path fill-rule="evenodd" clip-rule="evenodd" d="M33.7021 35.0181L24.1606 38.8759C23.9058 38.9789 23.6142 38.9212 23.4179 38.729C23.2216 38.5367 23.1578 38.2464 23.2555 37.9895L26.9487 28.2774C26.9571 28.2549 26.9667 28.233 26.9773 28.2116C27.054 28.0572 27.1855 27.9375 27.3452 27.8752L36.8867 24.0174C37.1415 23.9144 37.4331 23.9721 37.6294 24.1643C37.8257 24.3566 37.8895 24.6469 37.7918 24.9038L34.0985 34.616C34.0313 34.7959 33.8913 34.9416 33.7102 35.0148L33.7021 35.0181Z" fill="#DEE2E6"/>
</g>
<path d="M23.0511 37.3845L26.7458 27.6685L32.6008 33.5234L23.0511 37.3845Z" fill="#F03E3E" stroke="#212529" stroke-width="1.4" stroke-linecap="round" stroke-linejoin="round"/>
<path d="M36.2954 23.8074L32.6007 33.5234L26.7458 27.6685L36.2954 23.8074Z" fill="#91A7FF" stroke="#212529" stroke-width="1.4" stroke-linecap="round" stroke-linejoin="round"/>
</svg>
