<svg width="60" height="60" viewBox="0 0 60 60" fill="none" xmlns="http://www.w3.org/2000/svg">
<g clip-path="url(#clip0_50_10914)">
<path d="M19.3892 19.843C19.6578 19.4863 19.7704 19.036 19.7013 18.5949C19.6322 18.1538 19.3872 17.7595 19.0224 17.5021L16.4031 15.6542C15.1266 14.7537 13.3071 14.7276 12.0435 15.9043C11.1068 16.7767 9.73209 18.1954 8.26751 20.1793C6.65248 22.3671 5.74307 24.4393 5.27146 25.7539C4.71674 27.3001 5.38669 28.8625 6.57128 29.6983L8.78768 31.2619C9.51597 31.7758 10.5207 31.6183 11.0569 30.9064L19.3892 19.843ZM14.5007 18.3507L15.7292 19.2174L9.38312 27.6434L8.47366 27.0018C8.40886 26.9561 8.38797 26.9144 8.38141 26.8954C8.37774 26.8848 8.37708 26.8774 8.37707 26.8735C8.37707 26.8714 8.37724 26.8701 8.37737 26.8693L8.37754 26.8685L8.37761 26.8683C8.76945 25.7761 9.54278 24.0082 10.9225 22.1392C12.2485 20.3429 13.4816 19.0745 14.2925 18.3193C14.3029 18.3096 14.3213 18.299 14.352 18.2976C14.381 18.2963 14.4335 18.3032 14.5007 18.3507Z" fill="#F8F9FA" stroke="#F8F9FA" stroke-width="1.5" stroke-linecap="round" stroke-linejoin="round"/>
<path d="M48.8214 30.0151C49.1263 30.3413 49.5504 30.53 49.9968 30.5381C50.4432 30.5462 50.8739 30.373 51.1904 30.0581L53.463 27.7974C54.5705 26.6957 54.9105 24.908 53.9697 23.4601C53.2722 22.3868 52.1123 20.7877 50.4112 19.0025C48.5353 17.0338 46.6513 15.7801 45.4379 15.0885C44.0108 14.2751 42.3561 14.6651 41.3283 15.6875L39.4053 17.6005C38.7734 18.2291 38.7549 19.2459 39.3636 19.897L48.8214 30.0151ZM51.1357 25.4579L50.0698 26.5181L42.8666 18.812L43.6557 18.0271C43.7119 17.9711 43.7566 17.9578 43.7764 17.9546C43.7874 17.9528 43.7948 17.9534 43.7987 17.9541C43.8007 17.9544 43.8021 17.9548 43.8028 17.9551L43.8035 17.9554L43.8038 17.9555C44.8119 18.5301 46.4196 19.5972 48.0221 21.279C49.5624 22.8954 50.5988 24.329 51.2026 25.2582C51.2103 25.2701 51.2176 25.29 51.2137 25.3205C51.21 25.3493 51.194 25.3998 51.1357 25.4579Z" fill="#F8F9FA" stroke="#F8F9FA" stroke-width="1.5" stroke-linecap="round" stroke-linejoin="round"/>
<path d="M22.0037 41.4889L22.0048 41.4896C22.0048 41.4896 22.0049 41.4896 22.0049 41.4897M22.0037 41.4889L22.0061 41.4904L22.005 41.4897L22.0049 41.4897M22.0037 41.4889L21.9959 41.4839L21.9933 41.4823L21.9488 41.4539C21.9485 41.4537 21.9483 41.4535 21.948 41.4533M22.0037 41.4889L21.948 41.4533M22.0049 41.4897C22.0055 41.49 22.0061 41.4904 22.0067 41.4908C22.7762 41.976 23.0087 42.9936 22.5239 43.7648C22.039 44.5363 21.0204 44.7686 20.2489 44.2836L20.248 44.2831L20.2471 44.2825M22.0049 41.4897L20.2471 44.2825M20.2471 44.2825L20.2417 44.2791L20.2402 44.2782L20.225 44.2686L20.2225 44.267L20.1664 44.2311L20.1649 44.2302C20.1141 44.1975 20.0411 44.1502 19.9479 44.0889C19.7616 43.9663 19.4942 43.7875 19.1621 43.5574C18.4982 43.0975 17.5725 42.4306 16.5148 41.5961C14.4109 39.9362 11.732 37.5719 9.55733 34.8162C7.78545 32.5709 7.73955 30.153 8.41588 27.9839C9.06023 25.9172 10.3887 23.9662 11.4986 22.393C12.5271 20.9352 13.4866 19.6963 14.4411 18.7445C15.3969 17.7913 16.435 17.0367 17.6397 16.6771C20.5526 15.8077 22.7978 15.8834 25.6863 16.3655C27.3129 16.637 28.5399 17.1915 29.4885 18.4144C30.2348 19.3766 30.7448 20.7037 31.3154 22.1888C31.3266 22.2177 31.3377 22.2468 31.3489 22.2759C31.3489 22.2759 31.3489 22.276 31.349 22.276L31.4233 22.4694C31.4245 22.4709 31.4257 22.4724 31.427 22.4741L31.4256 22.4753L31.427 22.4741C31.4683 22.5253 31.5438 22.6072 31.6682 22.7221C31.9202 22.9549 32.2777 23.2367 32.7417 23.5782C33.0563 23.8097 33.4146 24.0645 33.8016 24.3395L33.8078 24.3439C34.5032 24.8383 35.2852 25.3941 36.0123 25.96C36.7314 26.5197 36.8606 27.5564 36.3009 28.2756C35.7412 28.9947 34.7045 29.1239 33.9854 28.5642L34.446 27.9723L33.9854 28.5642C33.3096 28.0382 32.6239 27.5511 31.9496 27.0723L31.9487 27.0716L31.9459 27.0696C31.5521 26.79 31.1612 26.5124 30.7856 26.2359C30.2985 25.8774 29.8203 25.5076 29.4288 25.146C29.0816 24.8252 28.607 24.3391 28.3706 23.7251C28.3706 23.7251 28.3706 23.7251 28.3706 23.7251L28.3682 23.7188L28.3682 23.7187C27.654 21.8638 27.3076 20.987 26.881 20.437C26.7218 20.2318 26.5574 20.0847 26.3222 19.9625C26.0732 19.8332 25.7137 19.7157 25.143 19.6205C22.5604 19.1894 20.8583 19.1603 18.5835 19.8393C18.0998 19.9836 17.519 20.3355 16.7712 21.0812C16.0222 21.8281 15.1935 22.8802 14.195 24.2954C13.0585 25.9064 12.0351 27.4627 11.5663 28.9661C11.13 30.3655 11.2084 31.5814 12.1478 32.7719C14.0985 35.2438 16.5568 37.4258 18.5588 39.0053C19.5539 39.7905 20.4234 40.4166 21.0414 40.8448C21.3501 41.0587 21.5954 41.2227 21.7614 41.3319C21.8439 41.3861 21.9067 41.4268 21.948 41.4533M20.2471 44.2825L21.948 41.4533" fill="#F8F9FA" stroke="#F8F9FA" stroke-width="1.5" stroke-linecap="round" stroke-linejoin="round"/>
<path d="M36.7107 43.8078C37.1641 44.1277 37.2724 44.7546 36.9525 45.208C36.6326 45.6615 36.0057 45.7697 35.5523 45.4498L24.5792 37.7082C23.8346 37.1829 22.8051 37.3607 22.2798 38.1053C21.7544 38.8499 21.9322 39.8794 22.6768 40.4047L33.6499 48.1463C35.5925 49.5168 38.2784 49.053 39.6489 47.1104C41.0195 45.1678 40.5557 42.4819 38.6131 41.1114L27.64 33.3698C26.8954 32.8445 25.8659 33.0222 25.3405 33.7668C24.8152 34.5114 24.993 35.5409 25.7376 36.0663L36.7107 43.8078Z" fill="#F8F9FA" stroke="#F8F9FA" stroke-width="1.5" stroke-linecap="round" stroke-linejoin="round"/>
<path d="M31.3889 46.5508C31.6758 46.7532 31.7443 47.1499 31.5419 47.4368C31.3394 47.7238 30.9428 47.7923 30.6558 47.5898L21.6561 41.2405C20.9115 40.7151 19.882 40.8929 19.3567 41.6375C18.8314 42.3821 19.0091 43.4116 19.7537 43.9369L28.7535 50.2863C30.5296 51.5394 32.9853 51.1154 34.2383 49.3392C35.4914 47.5631 35.0674 45.1074 33.2912 43.8543L25.2762 38.1997C24.5316 37.6743 23.5021 37.8521 22.9768 38.5967C22.4514 39.3413 22.6292 40.3708 23.3738 40.8961L31.3889 46.5508Z" fill="#F8F9FA" stroke="#F8F9FA" stroke-width="1.5" stroke-linecap="round" stroke-linejoin="round"/>
<path d="M44.8555 36.2497C45.3028 36.5717 45.4073 37.1938 45.0896 37.6442C44.7733 38.0925 44.1557 38.2041 43.7025 37.8948L30.2484 28.712C29.4957 28.1983 28.4691 28.392 27.9554 29.1447C27.4417 29.8973 27.6354 30.9239 28.388 31.4377L41.8421 40.6204C43.7842 41.9459 46.4306 41.4678 47.786 39.5465C49.1474 37.6169 48.6999 34.9507 46.7832 33.5713L30.9118 22.1489C30.1722 21.6166 29.141 21.7846 28.6087 22.5243C28.0764 23.2639 28.2445 24.295 28.9841 24.8273L44.8555 36.2497Z" fill="#F8F9FA" stroke="#F8F9FA" stroke-width="1.5" stroke-linecap="round" stroke-linejoin="round"/>
<path d="M41.1008 40.4075C41.5542 40.7273 41.6625 41.3542 41.3426 41.8076C41.0227 42.2611 40.3958 42.3693 39.9424 42.0494L27.7669 33.4595C27.0222 32.9342 25.9928 33.1119 25.4674 33.8565C24.9421 34.6012 25.1199 35.6306 25.8645 36.156L38.04 44.7459C39.9827 46.1164 42.6685 45.6527 44.0391 43.71C45.4096 41.7674 44.9458 39.0815 43.0032 37.711L30.8276 29.1211C30.083 28.5957 29.0536 28.7735 28.5282 29.5181C28.0029 30.2627 28.1807 31.2922 28.9253 31.8175L41.1008 40.4075Z" fill="#F8F9FA" stroke="#F8F9FA" stroke-width="1.5" stroke-linecap="round" stroke-linejoin="round"/>
<mask id="path-8-outside-1_50_10914" maskUnits="userSpaceOnUse" x="17.8356" y="13.2126" width="35.855" height="24.9927" fill="black">
<rect fill="white" x="17.8356" y="13.2126" width="35.855" height="24.9927"/>
<path fill-rule="evenodd" clip-rule="evenodd" d="M37.865 17.0958C39.6823 17.5048 41.5474 18.0813 42.9073 18.6314C42.9795 18.6606 43.0476 18.6991 43.1099 18.7458C43.8309 19.2867 45.2622 20.454 46.6718 21.7909C48.0554 23.1032 49.5234 24.6757 50.2112 26.0172C50.9352 27.4293 50.925 28.6812 50.598 29.7294C50.3215 30.6159 49.8171 31.3398 49.4872 31.8131C49.4472 31.8704 49.4098 31.9241 49.3757 31.974C49.1444 32.3117 48.7914 32.6741 48.4407 33.0015C48.0782 33.3399 47.6702 33.6847 47.2926 33.9905C46.9137 34.2975 46.5581 34.5711 46.2975 34.7678C46.167 34.8664 46.0599 34.946 45.9849 35.0012C45.9474 35.0289 45.918 35.0504 45.8977 35.0653L45.8742 35.0824L45.8678 35.087L45.866 35.0883L45.8655 35.0887L45.8653 35.0888C45.8652 35.0889 45.8652 35.0889 45.3375 34.3599L45.8652 35.0889C45.5552 35.3133 45.1372 35.3171 44.8232 35.0984L32.6805 26.6418L31.5034 25.8675C30.8179 26.2748 29.893 26.7576 29.0221 27.1772C28.4583 27.4489 27.901 27.7017 27.425 27.8981C26.9777 28.0827 26.5226 28.2516 26.2017 28.3085C25.0719 28.5088 22.5707 28.6881 20.996 26.4058C20.5827 25.8066 20.7141 25.1374 20.9172 24.6667C21.1243 24.1864 21.4858 23.7036 21.8996 23.2481C22.7373 22.3258 23.9771 21.3131 25.3086 20.3749C26.6478 19.4313 28.1201 18.5348 29.4489 17.8511C30.7384 17.1876 32.0118 16.6609 32.9115 16.5646C34.215 16.4252 36.0751 16.6929 37.865 17.0958ZM45.3195 33.2505C45.5548 33.0716 45.8498 32.8428 46.1596 32.5919C46.5195 32.3003 46.8922 31.9846 47.2124 31.6857C47.5444 31.3758 47.7762 31.124 47.8905 30.957C47.9303 30.8989 47.9704 30.8409 48.0105 30.7829C48.3491 30.2931 48.6909 29.7986 48.8797 29.1934C49.0739 28.5706 49.1068 27.8083 48.6095 26.8384C48.0761 25.798 46.8175 24.4099 45.4331 23.0969C44.1353 21.866 42.8193 20.7863 42.1232 20.2563C40.875 19.7606 39.1569 19.2315 37.4698 18.8518C35.7057 18.4548 34.0924 18.2486 33.1029 18.3544C32.5694 18.4115 31.5607 18.7887 30.2724 19.4516C29.0234 20.0943 27.6222 20.9467 26.3454 21.8464C25.0609 22.7514 23.9421 23.6765 23.232 24.4583C22.8719 24.8548 22.6623 25.1656 22.57 25.3795C22.5541 25.4163 22.5437 25.445 22.5369 25.4666C23.4727 26.7346 24.9223 26.7073 25.8875 26.5362C25.9898 26.518 26.2748 26.4256 26.7384 26.2342C27.1735 26.0547 27.698 25.8171 28.2409 25.5556C29.3392 25.0265 30.4482 24.4303 31.0146 24.0507C31.3155 23.8491 31.7078 23.8474 32.0104 24.0464L33.6797 25.1445C33.6863 25.1489 33.6929 25.1534 33.6994 25.1579L45.3195 33.2505ZM22.5248 25.5209C22.5245 25.5211 22.5245 25.5179 22.5256 25.511C22.5257 25.5172 22.5251 25.5207 22.5248 25.5209Z"/>
</mask>
<path fill-rule="evenodd" clip-rule="evenodd" d="M37.865 17.0958C39.6823 17.5048 41.5474 18.0813 42.9073 18.6314C42.9795 18.6606 43.0476 18.6991 43.1099 18.7458C43.8309 19.2867 45.2622 20.454 46.6718 21.7909C48.0554 23.1032 49.5234 24.6757 50.2112 26.0172C50.9352 27.4293 50.925 28.6812 50.598 29.7294C50.3215 30.6159 49.8171 31.3398 49.4872 31.8131C49.4472 31.8704 49.4098 31.9241 49.3757 31.974C49.1444 32.3117 48.7914 32.6741 48.4407 33.0015C48.0782 33.3399 47.6702 33.6847 47.2926 33.9905C46.9137 34.2975 46.5581 34.5711 46.2975 34.7678C46.167 34.8664 46.0599 34.946 45.9849 35.0012C45.9474 35.0289 45.918 35.0504 45.8977 35.0653L45.8742 35.0824L45.8678 35.087L45.866 35.0883L45.8655 35.0887L45.8653 35.0888C45.8652 35.0889 45.8652 35.0889 45.3375 34.3599L45.8652 35.0889C45.5552 35.3133 45.1372 35.3171 44.8232 35.0984L32.6805 26.6418L31.5034 25.8675C30.8179 26.2748 29.893 26.7576 29.0221 27.1772C28.4583 27.4489 27.901 27.7017 27.425 27.8981C26.9777 28.0827 26.5226 28.2516 26.2017 28.3085C25.0719 28.5088 22.5707 28.6881 20.996 26.4058C20.5827 25.8066 20.7141 25.1374 20.9172 24.6667C21.1243 24.1864 21.4858 23.7036 21.8996 23.2481C22.7373 22.3258 23.9771 21.3131 25.3086 20.3749C26.6478 19.4313 28.1201 18.5348 29.4489 17.8511C30.7384 17.1876 32.0118 16.6609 32.9115 16.5646C34.215 16.4252 36.0751 16.6929 37.865 17.0958ZM45.3195 33.2505C45.5548 33.0716 45.8498 32.8428 46.1596 32.5919C46.5195 32.3003 46.8922 31.9846 47.2124 31.6857C47.5444 31.3758 47.7762 31.124 47.8905 30.957C47.9303 30.8989 47.9704 30.8409 48.0105 30.7829C48.3491 30.2931 48.6909 29.7986 48.8797 29.1934C49.0739 28.5706 49.1068 27.8083 48.6095 26.8384C48.0761 25.798 46.8175 24.4099 45.4331 23.0969C44.1353 21.866 42.8193 20.7863 42.1232 20.2563C40.875 19.7606 39.1569 19.2315 37.4698 18.8518C35.7057 18.4548 34.0924 18.2486 33.1029 18.3544C32.5694 18.4115 31.5607 18.7887 30.2724 19.4516C29.0234 20.0943 27.6222 20.9467 26.3454 21.8464C25.0609 22.7514 23.9421 23.6765 23.232 24.4583C22.8719 24.8548 22.6623 25.1656 22.57 25.3795C22.5541 25.4163 22.5437 25.445 22.5369 25.4666C23.4727 26.7346 24.9223 26.7073 25.8875 26.5362C25.9898 26.518 26.2748 26.4256 26.7384 26.2342C27.1735 26.0547 27.698 25.8171 28.2409 25.5556C29.3392 25.0265 30.4482 24.4303 31.0146 24.0507C31.3155 23.8491 31.7078 23.8474 32.0104 24.0464L33.6797 25.1445C33.6863 25.1489 33.6929 25.1534 33.6994 25.1579L45.3195 33.2505ZM22.5248 25.5209C22.5245 25.5211 22.5245 25.5179 22.5256 25.511C22.5257 25.5172 22.5251 25.5207 22.5248 25.5209Z" fill="#F8F9FA"/>
<path d="M42.9073 18.6314L43.4698 17.2409L43.4698 17.2409L42.9073 18.6314ZM37.865 17.0958L38.1944 15.6324L38.1944 15.6324L37.865 17.0958ZM43.1099 18.7458L44.0101 17.5459L44.0101 17.5459L43.1099 18.7458ZM46.6718 21.7909L47.704 20.7025L47.704 20.7025L46.6718 21.7909ZM50.2112 26.0172L51.546 25.3329L51.546 25.3329L50.2112 26.0172ZM50.598 29.7294L52.03 30.176L52.03 30.176L50.598 29.7294ZM49.4872 31.8131L48.2566 30.9554L48.2566 30.9554L49.4872 31.8131ZM49.3757 31.974L48.138 31.1265L48.138 31.1265L49.3757 31.974ZM48.4407 33.0015L47.4171 31.905L47.4171 31.905L48.4407 33.0015ZM47.2926 33.9905L46.3484 32.825L46.3484 32.825L47.2926 33.9905ZM46.2975 34.7678L47.2013 35.965L47.2013 35.965L46.2975 34.7678ZM45.9849 35.0012L45.0947 33.794L45.0946 33.794L45.9849 35.0012ZM45.8977 35.0653L46.781 36.2776L46.7823 36.2767L45.8977 35.0653ZM45.8742 35.0824L46.7558 36.2959L46.7575 36.2947L45.8742 35.0824ZM45.8678 35.087L46.7475 36.302L46.7495 36.3006L45.8678 35.087ZM45.866 35.0883L44.9863 33.8734L44.985 33.8743L45.866 35.0883ZM45.8655 35.0887L46.74 36.3074L46.7465 36.3027L45.8655 35.0887ZM45.8653 35.0888L44.9908 33.8701L44.984 33.8751L45.8653 35.0888ZM46.5526 33.4804C46.0669 32.8093 45.1291 32.659 44.458 33.1447C43.7869 33.6304 43.6367 34.5682 44.1224 35.2393L46.5526 33.4804ZM45.8652 35.0889L46.7446 36.3041C47.4157 35.8184 47.566 34.8806 47.0803 34.2095L45.8652 35.0889ZM44.8232 35.0984L43.9659 36.3293L43.9659 36.3293L44.8232 35.0984ZM32.6805 26.6418L33.5377 25.4109C33.5269 25.4033 33.5159 25.3959 33.5049 25.3886L32.6805 26.6418ZM31.5034 25.8675L32.3278 24.6143C31.8482 24.2988 31.2306 24.2847 30.7371 24.5779L31.5034 25.8675ZM29.0221 27.1772L28.3711 25.8259L28.3711 25.8259L29.0221 27.1772ZM27.425 27.8981L27.9972 29.2847L27.9972 29.2847L27.425 27.8981ZM26.2017 28.3085L25.9399 26.8316L25.9399 26.8316L26.2017 28.3085ZM20.996 26.4058L19.7614 27.2576L19.7614 27.2576L20.996 26.4058ZM20.9172 24.6667L19.5398 24.0726L19.5398 24.0726L20.9172 24.6667ZM21.8996 23.2481L23.01 24.2566L23.01 24.2566L21.8996 23.2481ZM25.3086 20.3749L24.4446 19.1488L24.4446 19.1488L25.3086 20.3749ZM29.4489 17.8511L30.1352 19.1849L30.1352 19.1849L29.4489 17.8511ZM32.9115 16.5646L32.7519 15.0732L32.7519 15.0732L32.9115 16.5646ZM46.1596 32.5919L47.1038 33.7574L47.1038 33.7574L46.1596 32.5919ZM45.3195 33.2505L44.4622 34.4815C44.9964 34.8534 45.7095 34.8385 46.2276 34.4445L45.3195 33.2505ZM47.2124 31.6857L48.236 32.7822L48.236 32.7822L47.2124 31.6857ZM47.8905 30.957L46.6528 30.1096L46.6528 30.1096L47.8905 30.957ZM48.0105 30.7829L49.2444 31.6359L49.2444 31.6359L48.0105 30.7829ZM48.8797 29.1934L50.3117 29.64L50.3117 29.64L48.8797 29.1934ZM48.6095 26.8384L47.2747 27.5228L47.2747 27.5228L48.6095 26.8384ZM45.4331 23.0969L46.4653 22.0086L46.4653 22.0086L45.4331 23.0969ZM42.1232 20.2563L43.0318 19.0628C42.9232 18.9801 42.8037 18.9126 42.6768 18.8622L42.1232 20.2563ZM37.4698 18.8518L37.1405 20.3152L37.1405 20.3152L37.4698 18.8518ZM33.1029 18.3544L33.2625 19.8459L33.2625 19.8459L33.1029 18.3544ZM30.2724 19.4516L30.9587 20.7854L30.2724 19.4516ZM26.3454 21.8464L25.4814 20.6202L25.4814 20.6202L26.3454 21.8464ZM23.232 24.4583L22.1217 23.4498L22.1217 23.4498L23.232 24.4583ZM22.57 25.3795L23.9474 25.9735L23.9474 25.9735L22.57 25.3795ZM22.5369 25.4666L21.106 25.0167C20.9623 25.4737 21.0455 25.9719 21.33 26.3573L22.5369 25.4666ZM25.8875 26.5362L26.1493 28.0131L26.1493 28.0131L25.8875 26.5362ZM26.7384 26.2342L27.3106 27.6208L27.3106 27.6208L26.7384 26.2342ZM28.2409 25.5556L28.8919 26.907L28.8919 26.907L28.2409 25.5556ZM31.0146 24.0507L30.1795 22.8047L30.1795 22.8047L31.0146 24.0507ZM32.0104 24.0464L31.186 25.2995L31.186 25.2995L32.0104 24.0464ZM33.6797 25.1445L32.8553 26.3977L32.8553 26.3977L33.6797 25.1445ZM33.6994 25.1579L32.8421 26.3888L32.8422 26.3888L33.6994 25.1579ZM22.5256 25.511L24.0255 25.4948C24.0172 24.7164 23.4148 24.0738 22.6386 24.0152C21.8624 23.9566 21.1703 24.5015 21.0451 25.2697L22.5256 25.511ZM43.4698 17.2409C42.0233 16.6557 40.0788 16.0565 38.1944 15.6324L37.5357 18.5592C39.2859 18.9531 41.0715 19.5068 42.3448 20.0219L43.4698 17.2409ZM44.0101 17.5459C43.844 17.4213 43.6624 17.3187 43.4698 17.2409L42.3448 20.0219C42.2967 20.0025 42.2513 19.9768 42.2097 19.9457L44.0101 17.5459ZM47.704 20.7025C46.2518 19.3253 44.7763 18.1208 44.0101 17.5459L42.2097 19.9457C42.8854 20.4526 44.2725 21.5827 45.6396 22.8792L47.704 20.7025ZM51.546 25.3329C50.7297 23.7407 49.0876 22.0148 47.704 20.7025L45.6396 22.8792C47.0233 24.1916 48.3171 25.6107 48.8765 26.7016L51.546 25.3329ZM52.03 30.176C52.4674 28.7735 52.459 27.1136 51.546 25.3329L48.8765 26.7016C49.4114 27.7449 49.3825 28.5888 49.1661 29.2828L52.03 30.176ZM50.7179 32.6707C51.0418 32.2058 51.6764 31.3099 52.03 30.176L49.1661 29.2827C48.9667 29.922 48.5923 30.4737 48.2566 30.9554L50.7179 32.6707ZM50.6133 32.8215C50.6433 32.7777 50.677 32.7293 50.7179 32.6707L48.2566 30.9554C48.2175 31.0115 48.1763 31.0706 48.138 31.1265L50.6133 32.8215ZM49.4643 34.098C49.8312 33.7555 50.2849 33.3012 50.6133 32.8215L48.138 31.1265C48.004 31.3223 47.7517 31.5927 47.4171 31.905L49.4643 34.098ZM48.2368 35.1561C48.6291 34.8383 49.0666 34.4692 49.4643 34.098L47.4171 31.905C47.0899 32.2105 46.7113 32.531 46.3484 32.825L48.2368 35.1561ZM47.2013 35.965C47.4712 35.7612 47.841 35.4767 48.2368 35.1561L46.3484 32.825C45.9865 33.1182 45.645 33.381 45.3937 33.5707L47.2013 35.965ZM46.8752 36.2085C46.9541 36.1503 47.0658 36.0673 47.2013 35.965L45.3937 33.5707C45.2682 33.6654 45.1656 33.7417 45.0947 33.794L46.8752 36.2085ZM46.7823 36.2767C46.8044 36.2605 46.8357 36.2376 46.8752 36.2084L45.0946 33.794C45.0592 33.8202 45.0316 33.8403 45.013 33.8539L46.7823 36.2767ZM46.7575 36.2947L46.781 36.2776L45.0144 33.8529L44.9909 33.8701L46.7575 36.2947ZM46.7495 36.3006L46.7558 36.2959L44.9925 33.8689L44.9861 33.8735L46.7495 36.3006ZM46.7458 36.3033L46.7475 36.302L44.9881 33.8721L44.9863 33.8734L46.7458 36.3033ZM46.7465 36.3027L46.747 36.3023L44.985 33.8743L44.9845 33.8747L46.7465 36.3027ZM46.7398 36.3075L46.74 36.3074L44.991 33.87L44.9908 33.8701L46.7398 36.3075ZM44.1224 35.2393C44.3862 35.6038 44.5182 35.7862 44.5843 35.8775C44.6173 35.923 44.6342 35.9464 44.643 35.9585C44.6469 35.9638 44.6508 35.9692 44.654 35.9735C44.6549 35.9748 44.6565 35.977 44.6585 35.9797C44.6598 35.9815 44.6643 35.9876 44.6702 35.9953C44.673 35.9991 44.679 36.0069 44.6866 36.0165C44.6916 36.023 44.7101 36.0464 44.7352 36.0752C44.7476 36.0895 44.7731 36.1181 44.8073 36.1522C44.8327 36.1774 44.9113 36.2549 45.0281 36.3335C45.1228 36.3972 45.4443 36.6027 45.912 36.5881C46.4269 36.5721 46.7705 36.2853 46.7466 36.3026L44.984 33.8751C44.9601 33.8924 45.3037 33.6056 45.8186 33.5896C46.2863 33.575 46.6077 33.7805 46.7024 33.8442C46.8193 33.9228 46.8979 34.0003 46.9232 34.0255C46.9575 34.0596 46.9829 34.0882 46.9954 34.1025C47.0204 34.1312 47.0389 34.1546 47.0439 34.161C47.0515 34.1706 47.0573 34.1783 47.0601 34.182C47.0658 34.1895 47.0702 34.1954 47.0712 34.1968C47.0729 34.1991 47.0741 34.2007 47.0745 34.2013C47.0757 34.2029 47.0754 34.2025 47.071 34.1965C47.0633 34.1858 47.0472 34.1637 47.0142 34.118C46.9483 34.0271 46.8165 33.845 46.5526 33.4804L44.1224 35.2393ZM47.0803 34.2095L46.5526 33.4804L44.1224 35.2393L44.65 35.9684L47.0803 34.2095ZM43.9659 36.3293C44.8033 36.9125 45.918 36.9024 46.7446 36.3041L44.9857 33.8738C45.1924 33.7242 45.471 33.7217 45.6804 33.8675L43.9659 36.3293ZM31.8232 27.8727L43.9659 36.3293L45.6804 33.8675L33.5377 25.4109L31.8232 27.8727ZM30.679 27.1206L31.8561 27.8949L33.5049 25.3886L32.3278 24.6143L30.679 27.1206ZM29.6731 28.5286C30.5674 28.0978 31.534 27.5941 32.2697 27.157L30.7371 24.5779C30.1018 24.9555 29.2187 25.4175 28.3711 25.8259L29.6731 28.5286ZM27.9972 29.2847C28.5072 29.0743 29.0918 28.8086 29.6731 28.5286L28.3711 25.8259C27.8247 26.0891 27.2947 26.3292 26.8529 26.5116L27.9972 29.2847ZM26.4635 29.7855C26.9659 29.6965 27.5615 29.4645 27.9972 29.2847L26.8529 26.5116C26.3939 26.7009 26.0794 26.8068 25.9399 26.8316L26.4635 29.7855ZM19.7614 27.2576C21.8731 30.3184 25.2208 30.0058 26.4635 29.7855L25.9399 26.8316C24.923 27.0118 23.2682 27.0578 22.2307 25.554L19.7614 27.2576ZM19.5398 24.0726C19.2526 24.7386 18.9159 26.0321 19.7614 27.2576L22.2307 25.554C22.2246 25.5451 22.2256 25.5444 22.2266 25.5481C22.2271 25.55 22.2246 25.5425 22.2251 25.5208C22.2262 25.4684 22.244 25.3778 22.2945 25.2607L19.5398 24.0726ZM20.7893 22.2395C20.3304 22.7447 19.8425 23.3707 19.5398 24.0726L22.2945 25.2607C22.406 25.0021 22.6412 24.6626 23.01 24.2566L20.7893 22.2395ZM24.4446 19.1488C23.0739 20.1146 21.7333 21.2002 20.7893 22.2395L23.01 24.2566C23.7413 23.4514 24.8803 22.5117 26.1726 21.6011L24.4446 19.1488ZM28.7626 16.5173C27.3672 17.2353 25.8358 18.1685 24.4446 19.1488L26.1726 21.6011C27.4598 20.6941 28.8729 19.8344 30.1352 19.1849L28.7626 16.5173ZM32.7519 15.0732C31.5477 15.202 30.0543 15.8526 28.7626 16.5173L30.1352 19.1849C31.4225 18.5225 32.4759 18.1198 33.071 18.0561L32.7519 15.0732ZM38.1944 15.6324C36.3824 15.2246 34.3169 14.9057 32.7519 15.0732L33.071 18.0561C34.1131 17.9446 35.7678 18.1613 37.5357 18.5592L38.1944 15.6324ZM45.2154 31.4263C44.9204 31.6653 44.638 31.8843 44.4114 32.0566L46.2276 34.4445C46.4717 34.2588 46.7792 34.0204 47.1038 33.7574L45.2154 31.4263ZM46.1888 30.5892C45.9038 30.8553 45.5606 31.1467 45.2154 31.4263L47.1038 33.7574C47.4784 33.4539 47.8805 33.114 48.236 32.7822L46.1888 30.5892ZM46.6528 30.1096C46.6547 30.1068 46.6234 30.1506 46.5336 30.2474C46.4498 30.3377 46.3354 30.4524 46.1888 30.5892L48.236 32.7822C48.5828 32.4584 48.9161 32.1142 49.1281 31.8045L46.6528 30.1096ZM46.7766 29.9299C46.7368 29.9875 46.6948 30.0482 46.6528 30.1096L49.1281 31.8045C49.1657 31.7496 49.2039 31.6944 49.2444 31.6359L46.7766 29.9299ZM47.4477 28.7468C47.3374 29.1004 47.1328 29.4148 46.7766 29.9299L49.2444 31.6359C49.5654 31.1714 50.0444 30.4969 50.3117 29.64L47.4477 28.7468ZM47.2747 27.5228C47.4422 27.8495 47.4953 28.0899 47.5082 28.26C47.5211 28.4294 47.4984 28.5842 47.4477 28.7468L50.3117 29.64C50.6166 28.6624 50.6303 27.4921 49.9443 26.1541L47.2747 27.5228ZM44.4009 24.1853C45.7866 25.4995 46.8701 26.7336 47.2747 27.5228L49.9443 26.1541C49.282 24.8624 47.8485 23.3204 46.4653 22.0086L44.4009 24.1853ZM41.2145 21.4498C41.8705 21.9492 43.1449 22.9941 44.4009 24.1853L46.4653 22.0086C45.1256 20.738 43.7681 19.6234 43.0318 19.0628L41.2145 21.4498ZM37.1405 20.3152C38.7613 20.68 40.4033 21.1873 41.5696 21.6504L42.6768 18.8622C41.3466 18.334 39.5525 17.783 37.7992 17.3884L37.1405 20.3152ZM33.2625 19.8459C33.99 19.7681 35.3973 19.9229 37.1405 20.3152L37.7992 17.3884C36.0141 16.9867 34.1949 16.729 32.9434 16.8629L33.2625 19.8459ZM30.9587 20.7854C31.5673 20.4723 32.091 20.2365 32.5085 20.0761C32.9523 19.9057 33.1924 19.8534 33.2625 19.8459L32.9434 16.8629C32.4799 16.9125 31.949 17.0774 31.4329 17.2756C30.8906 17.4839 30.2658 17.7681 29.5861 18.1178L30.9587 20.7854ZM27.2094 23.0725C28.4342 22.2095 29.7763 21.3938 30.9587 20.7854L29.5861 18.1178C28.2706 18.7947 26.8102 19.6839 25.4814 20.6202L27.2094 23.0725ZM24.3424 25.4668C24.9461 24.8022 25.9639 23.9501 27.2094 23.0725L25.4814 20.6202C24.1578 21.5528 22.9382 22.5509 22.1217 23.4498L24.3424 25.4668ZM23.9474 25.9735C23.9393 25.9923 23.9541 25.954 24.0251 25.8537C24.0922 25.7588 24.1947 25.6295 24.3424 25.4668L22.1217 23.4498C21.7173 23.8949 21.3808 24.3492 21.1926 24.7855L23.9474 25.9735ZM23.9678 25.9166C23.9572 25.9504 23.9489 25.97 23.9474 25.9735L21.1926 24.7855C21.1594 24.8625 21.1302 24.9395 21.106 25.0167L23.9678 25.9166ZM25.6257 25.0592C24.7874 25.2078 24.1412 25.1144 23.7438 24.5759L21.33 26.3573C22.8041 28.3549 25.0572 28.2067 26.1493 28.0131L25.6257 25.0592ZM26.1662 24.8477C25.9542 24.9351 25.7944 24.9953 25.6854 25.0331C25.6307 25.0521 25.5948 25.0634 25.5754 25.0691C25.547 25.0775 25.5711 25.0689 25.6257 25.0592L26.1493 28.0131C26.435 27.9625 26.8635 27.8053 27.3106 27.6208L26.1662 24.8477ZM27.5898 24.2043C27.0645 24.4573 26.5672 24.6822 26.1662 24.8477L27.3106 27.6208C27.7797 27.4272 28.3316 27.1769 28.8919 26.907L27.5898 24.2043ZM30.1795 22.8047C29.7048 23.1228 28.6743 23.6818 27.5898 24.2043L28.8919 26.907C30.004 26.3712 31.1917 25.7378 31.8498 25.2967L30.1795 22.8047ZM32.8347 22.7932C32.028 22.2625 30.9817 22.267 30.1795 22.8047L31.8498 25.2967C31.6492 25.4311 31.3877 25.4322 31.186 25.2995L32.8347 22.7932ZM34.5041 23.8914L32.8347 22.7932L31.186 25.2995L32.8553 26.3977L34.5041 23.8914ZM34.5567 23.927C34.5392 23.9148 34.5216 23.903 34.5041 23.8914L32.8553 26.3977C32.851 26.3949 32.8466 26.3919 32.8421 26.3888L34.5567 23.927ZM46.1767 32.0196L34.5566 23.927L32.8422 26.3888L44.4622 34.4815L46.1767 32.0196ZM21.7892 24.2136C22.0126 24.0879 22.3396 23.982 22.7264 24.0345C23.1067 24.0861 23.382 24.2687 23.55 24.4259C23.8346 24.6924 23.9302 24.9931 23.9493 25.0513C24.0098 25.2346 24.019 25.3877 24.0207 25.4112C24.0277 25.5077 24.0235 25.5829 24.0221 25.6063C24.0183 25.6721 24.0108 25.7235 24.0061 25.7522L21.0451 25.2697C21.0393 25.3053 21.0313 25.3618 21.0273 25.4309C21.0258 25.4559 21.0215 25.5323 21.0286 25.6296C21.0304 25.6535 21.0396 25.8068 21.1001 25.9903C21.1193 26.0485 21.2149 26.3493 21.4996 26.6159C21.6675 26.7731 21.9429 26.9557 22.3232 27.0073C22.71 27.0598 23.037 26.9539 23.2604 26.8281L21.7892 24.2136ZM21.0257 25.5271C21.0253 25.4857 21.0265 25.4309 21.0331 25.3662C21.036 25.3379 21.0424 25.2815 21.0572 25.2112C21.0636 25.1811 21.0798 25.1072 21.1123 25.0164C21.1276 24.9735 21.1613 24.8843 21.2208 24.7795C21.2513 24.7259 21.302 24.6443 21.3775 24.5546C21.4483 24.4705 21.5817 24.3304 21.7892 24.2136L23.2604 26.8281C23.6311 26.6195 23.7983 26.3159 23.8289 26.2621C23.8885 26.1573 23.9223 26.0679 23.9376 26.0249C23.9702 25.9338 23.9865 25.8596 23.9929 25.8291C24.0079 25.7579 24.0146 25.7002 24.0176 25.6703C24.0246 25.6022 24.026 25.5424 24.0255 25.4948L21.0257 25.5271Z" fill="#F8F9FA" mask="url(#path-8-outside-1_50_10914)"/>
<path d="M6.85904 26.2527C7.29077 25.0493 8.13214 23.1292 9.62949 21.1009C11.0248 19.2108 12.3287 17.8672 13.2025 17.0534C13.8356 16.4639 14.7796 16.4454 15.4864 16.9441L18.1057 18.792L9.77338 29.8553L7.55697 28.2917C6.89786 27.8267 6.58665 27.012 6.85904 26.2527Z" fill="#F8F9FA" stroke="#212529" stroke-width="1.8" stroke-linecap="round" stroke-linejoin="round"/>
<path d="M44.6554 16.4638C45.7661 17.0969 47.512 18.2572 49.2512 20.0824C50.8719 21.7833 51.97 23.2997 52.6206 24.3009C53.092 25.0262 52.9471 25.9593 52.3338 26.5694L50.0613 28.8301L40.6035 18.712L42.5265 16.799C43.0984 16.2301 43.9546 16.0643 44.6554 16.4638Z" fill="#F8F9FA" stroke="#212529" stroke-width="1.8" stroke-linecap="round" stroke-linejoin="round"/>
<path fill-rule="evenodd" clip-rule="evenodd" d="M35.0334 27.2046C32.8277 25.4878 30.3082 24.018 29.945 23.0747C28.6019 19.5863 28.1848 18.392 25.4492 17.9355C22.7137 17.4789 20.74 17.4265 18.1462 18.2007C16.4579 18.7046 14.9083 20.4138 12.8814 23.2867C10.6355 26.4702 8.17683 30.3021 10.8872 33.7366C15.0125 38.9641 21.1616 42.8292 21.1616 42.8292" fill="#FFD8A8"/>
<path d="M35.0334 27.2046C32.8277 25.4878 30.3082 24.018 29.945 23.0747C28.6019 19.5863 28.1848 18.392 25.4492 17.9355C22.7137 17.4789 20.74 17.4265 18.1462 18.2007C16.4579 18.7046 14.9083 20.4138 12.8814 23.2867C10.6355 26.4702 8.17683 30.3021 10.8872 33.7366C15.0125 38.9641 21.1616 42.8292 21.1616 42.8292" stroke="#212529" stroke-width="1.8" stroke-linecap="round" stroke-linejoin="round"/>
<g style="mix-blend-mode:soft-light" opacity="0.6">
<path d="M25.3228 20.3119C25.0909 19.7409 23.6317 19.5329 22.5617 19.5528C21.4675 19.573 19.8217 19.8004 19.9254 20.4401C20.029 21.0799 22.1521 20.8281 22.6812 20.7078C23.7136 20.5712 25.5547 20.8829 25.3228 20.3119Z" fill="#F8F9FA"/>
</g>
<path fill-rule="evenodd" clip-rule="evenodd" d="M26.7233 34.6606L37.6964 42.4022C38.8944 43.2474 39.1804 44.9038 38.3352 46.1018V46.1018C37.49 47.2999 35.8336 47.5859 34.6356 46.7407L23.6625 38.9991" fill="#FFD8A8"/>
<path d="M26.7233 34.6606L37.6964 42.4022C38.8944 43.2474 39.1804 44.9038 38.3352 46.1018V46.1018C37.49 47.2999 35.8336 47.5859 34.6356 46.7407L23.6625 38.9991" stroke="#212529" stroke-width="1.8" stroke-linecap="round" stroke-linejoin="round"/>
<path fill-rule="evenodd" clip-rule="evenodd" d="M24.3596 39.4905L32.3747 45.1452C33.4062 45.8729 33.6525 47.2991 32.9247 48.3306V48.3306C32.197 49.3622 30.7708 49.6084 29.7393 48.8807L20.7396 42.5313" fill="#FFD8A8"/>
<path d="M24.3596 39.4905L32.3747 45.1452C33.4062 45.8729 33.6525 47.2991 32.9247 48.3306V48.3306C32.197 49.3622 30.7708 49.6084 29.7393 48.8807L20.7396 42.5313" stroke="#212529" stroke-width="1.8" stroke-linecap="round" stroke-linejoin="round"/>
<path fill-rule="evenodd" clip-rule="evenodd" d="M29.9825 23.4307L45.8539 34.8531C47.0359 35.7038 47.3118 37.348 46.4723 38.538V38.538C45.6364 39.7228 44.0044 40.0176 42.8068 39.2002L29.3527 30.0175" fill="#FFD8A8"/>
<path d="M29.9825 23.4307L45.8539 34.8531C47.0359 35.7038 47.3118 37.348 46.4723 38.538V38.538C45.6364 39.7228 44.0044 40.0176 42.8068 39.2002L29.3527 30.0175" stroke="#212529" stroke-width="1.8" stroke-linecap="round" stroke-linejoin="round"/>
<path fill-rule="evenodd" clip-rule="evenodd" d="M29.9111 30.4109L42.0866 39.0009C43.2847 39.8461 43.5707 41.5024 42.7255 42.7005V42.7005C41.8802 43.8985 40.2239 44.1845 39.0259 43.3393L26.8503 34.7494" fill="#FFD8A8"/>
<path d="M29.9111 30.4109L42.0866 39.0009C43.2847 39.8461 43.5707 41.5024 42.7255 42.7005V42.7005C41.8802 43.8985 40.2239 44.1845 39.0259 43.3393L26.8503 34.7494" stroke="#212529" stroke-width="1.8" stroke-linecap="round" stroke-linejoin="round"/>
<g style="mix-blend-mode:multiply">
<path d="M14.0742 34.7692C16.4152 37.37 28.0047 45.8825 31.5517 48.3849C31.2516 48.5696 31.5463 49.2478 29.9426 48.7279C28.339 48.208 15.4464 38.0008 13.248 35.9403C12.3006 34.8755 10.4868 32.7857 10.2277 31.5157C9.96853 30.2458 10.4391 28.0438 10.8668 27.1565C10.6143 30.8853 12.3241 32.8247 14.0742 34.7692Z" fill="#DEE2E6"/>
</g>
<g style="mix-blend-mode:multiply">
<path d="M9.68972 27.7101L9.17887 28.5865L7.30362 27.2636L7.66031 26.2784L9.68972 27.7101Z" fill="#DEE2E6"/>
</g>
<g style="mix-blend-mode:multiply">
<path d="M35.458 46.613L36.2718 46.3564L25.2294 38.5659L23.5077 38.1821L35.458 46.613Z" fill="#DEE2E6"/>
</g>
<g style="mix-blend-mode:multiply">
<path d="M40.5758 43.4848L41.4496 43.2705L28.8418 34.3756L26.9315 33.8587L40.5758 43.4848Z" fill="#DEE2E6"/>
</g>
<g style="mix-blend-mode:multiply">
<path d="M43.9956 39.6147L45.163 39.2457L30.498 29.2613L29.4669 29.3646L43.9956 39.6147Z" fill="#DEE2E6"/>
</g>
<path d="M33.0416 17.4017C35.3347 17.1564 39.9883 18.3497 42.6042 19.4079C43.9918 20.4488 48.2236 23.988 49.4448 26.37C50.666 28.7519 49.3587 30.3983 48.6675 31.4077C47.9764 32.417 45.3719 34.302 45.3719 34.302L33.2195 25.8386L31.5502 24.7404C30.3074 25.5734 26.9253 27.2145 26.0791 27.3645C25.0212 27.552 23.025 27.6541 21.7713 25.8368C20.5175 24.0196 30.1753 17.7083 33.0416 17.4017Z" fill="#FFD8A8" stroke="#212529" stroke-width="1.8" stroke-linecap="round" stroke-linejoin="round"/>
<g style="mix-blend-mode:multiply">
<path d="M46.4178 32.7529L32.9287 24.3955L45.3914 33.3394L46.4178 32.7529Z" fill="#DEE2E6"/>
</g>
</g>
<defs>
<clipPath id="clip0_50_10914">
<rect width="60" height="60" fill="white"/>
</clipPath>
</defs>
</svg>
