<svg width="60" height="60" viewBox="0 0 60 60" fill="none" xmlns="http://www.w3.org/2000/svg">
<g clip-path="url(#clip0_50_7408)">
<mask id="path-1-outside-1_50_7408" maskUnits="userSpaceOnUse" x="-8.90594" y="-2.56455" width="76.3675" height="76.3675" fill="black">
<rect fill="white" x="-8.90594" y="-2.56455" width="76.3675" height="76.3675"/>
<path fill-rule="evenodd" clip-rule="evenodd" d="M24.0054 12.9965C15.9687 12.9965 9.45366 19.5115 9.45366 27.5483C9.45366 33.3345 12.8309 38.332 17.7217 40.6771H30.2892C32.5565 39.59 34.4985 37.9328 35.9295 35.8913V33.8674C35.9295 32.7825 36.582 31.8501 37.5158 31.4409V26.9704C37.5158 26.3227 37.8777 25.7595 38.4102 25.4718C37.4025 18.4187 31.3372 12.9965 24.0054 12.9965ZM35.9295 38.3139C35.1326 39.196 34.2391 39.9893 33.2658 40.6771H33.7818C34.7562 40.6771 35.5897 41.2801 35.9295 42.1333L35.9295 38.3139ZM35.9295 43.8427C35.8826 43.9605 35.8262 44.0736 35.7614 44.181L35.9295 44.181V43.8427ZM37.4426 44.181V36.3562C37.4672 36.3188 37.4916 36.2813 37.5158 36.2436V38.7471C37.5158 39.6872 38.2779 40.4493 39.218 40.4493L48.6324 40.4493C49.5725 40.4493 50.3346 39.6872 50.3346 38.7471V33.4653C50.3819 33.5903 50.4079 33.7258 50.4079 33.8674L50.4078 47.5883C50.4079 48.215 49.8998 48.7231 49.2731 48.7231L40.206 48.7231C40.623 48.1362 40.8681 47.4188 40.8681 46.6441L40.8681 45.8831C40.8681 44.943 40.106 44.181 39.1659 44.181L37.4426 44.181ZM35.9295 45.694L8.84513 45.694C8.74068 45.694 8.656 45.7787 8.656 45.8831L8.656 46.6441C8.656 47.7931 9.58745 48.7245 10.7364 48.7245L36.185 48.7245C36.0212 48.3802 35.9295 47.995 35.9295 47.5883V45.694ZM38.0306 48.5829C37.6801 48.3898 37.4426 48.0168 37.4426 47.5883V45.694L39.1659 45.694C39.2704 45.694 39.3551 45.7787 39.3551 45.8831L39.3551 46.6441C39.3551 47.5264 38.8058 48.2804 38.0306 48.5829ZM37.9798 50.1684C37.7518 50.2138 37.516 50.2376 37.2746 50.2376L10.7364 50.2376C8.75181 50.2376 7.14295 48.6287 7.14295 46.6441L7.14295 45.8831C7.14295 44.943 7.90505 44.181 8.84513 44.181L12.2497 44.181C12.0394 43.8327 11.9184 43.4245 11.9184 42.988C11.9184 41.7117 12.9531 40.6771 14.2293 40.6771L14.7451 40.6771C10.6286 37.7682 7.94061 32.9722 7.94061 27.5483C7.94061 18.6759 15.1331 11.4834 24.0054 11.4834C31.9502 11.4834 38.548 17.2506 39.8407 24.8269L39.8407 19.2363C39.8407 17.4149 41.6931 16.1792 43.3748 16.8789L46.4371 18.153C47.3893 18.5491 48.0096 19.4791 48.0096 20.5104V25.2683L48.6324 25.2683C49.5725 25.2683 50.3346 26.0304 50.3346 26.9704V31.4409C51.2685 31.85 51.9209 32.7825 51.9209 33.8674L51.9209 47.5883C51.9209 49.0506 50.7354 50.2361 49.2731 50.2361H38.5774C38.3719 50.2361 38.1719 50.2127 37.9798 50.1684ZM48.8215 31.2195V26.9704C48.8215 26.866 48.7368 26.7813 48.6324 26.7813L48.0096 26.7813V29.1232C48.0096 30.0111 47.2899 30.7308 46.402 30.7308L41.4483 30.7308C40.7489 30.7308 40.1537 30.2841 39.9327 29.6604C39.8633 30.1886 39.7682 30.7088 39.6488 31.2195H48.8215ZM48.8215 32.7326L39.2154 32.7326C39.1561 32.9065 39.0939 33.0791 39.0289 33.2503L39.0289 38.7471C39.0289 38.8516 39.1136 38.9362 39.218 38.9362H48.6324C48.7368 38.9362 48.8215 38.8516 48.8215 38.7471V32.7326ZM46.6857 20.5104L46.6857 25.2683H41.1646V19.2363C41.1646 18.3593 42.0565 17.7644 42.8662 18.1012L45.9286 19.3753C46.387 19.5661 46.6857 20.0139 46.6857 20.5104ZM46.6857 26.7813H41.1646L41.1646 29.1232C41.1646 29.2799 41.2917 29.4069 41.4483 29.4069L46.402 29.4069C46.5587 29.4069 46.6857 29.2799 46.6857 29.1232L46.6857 26.7813ZM25.712 42.001H22.2989C22.8586 42.0664 23.4281 42.1 24.0054 42.1C24.5828 42.1 25.1522 42.0664 25.712 42.001ZM16.9831 42.001C19.1045 43.0337 21.4873 43.6131 24.0054 43.6131C26.5235 43.6131 28.9063 43.0337 31.0278 42.001H33.7818C34.3269 42.001 34.7688 42.4429 34.7688 42.988C34.7688 43.5331 34.3269 43.975 33.7818 43.975H14.2293C13.6842 43.975 13.2423 43.5331 13.2423 42.988C13.2423 42.4429 13.6842 42.001 14.2293 42.001L16.9831 42.001ZM24.0054 17.2879C18.3387 17.2879 13.745 21.8817 13.745 27.5483C13.745 33.215 18.3387 37.8088 24.0054 37.8088C29.6721 37.8088 34.2658 33.215 34.2658 27.5483C34.2658 21.8817 29.6721 17.2879 24.0054 17.2879ZM12.6102 27.5483C12.6102 21.2549 17.712 16.1531 24.0054 16.1531C30.2988 16.1531 35.4006 21.2549 35.4006 27.5483C35.4006 33.8418 30.2988 38.9436 24.0054 38.9436C17.712 38.9436 12.6102 33.8418 12.6102 27.5483Z"/>
</mask>
<path fill-rule="evenodd" clip-rule="evenodd" d="M24.0054 12.9965C15.9687 12.9965 9.45366 19.5115 9.45366 27.5483C9.45366 33.3345 12.8309 38.332 17.7217 40.6771H30.2892C32.5565 39.59 34.4985 37.9328 35.9295 35.8913V33.8674C35.9295 32.7825 36.582 31.8501 37.5158 31.4409V26.9704C37.5158 26.3227 37.8777 25.7595 38.4102 25.4718C37.4025 18.4187 31.3372 12.9965 24.0054 12.9965ZM35.9295 38.3139C35.1326 39.196 34.2391 39.9893 33.2658 40.6771H33.7818C34.7562 40.6771 35.5897 41.2801 35.9295 42.1333L35.9295 38.3139ZM35.9295 43.8427C35.8826 43.9605 35.8262 44.0736 35.7614 44.181L35.9295 44.181V43.8427ZM37.4426 44.181V36.3562C37.4672 36.3188 37.4916 36.2813 37.5158 36.2436V38.7471C37.5158 39.6872 38.2779 40.4493 39.218 40.4493L48.6324 40.4493C49.5725 40.4493 50.3346 39.6872 50.3346 38.7471V33.4653C50.3819 33.5903 50.4079 33.7258 50.4079 33.8674L50.4078 47.5883C50.4079 48.215 49.8998 48.7231 49.2731 48.7231L40.206 48.7231C40.623 48.1362 40.8681 47.4188 40.8681 46.6441L40.8681 45.8831C40.8681 44.943 40.106 44.181 39.1659 44.181L37.4426 44.181ZM35.9295 45.694L8.84513 45.694C8.74068 45.694 8.656 45.7787 8.656 45.8831L8.656 46.6441C8.656 47.7931 9.58745 48.7245 10.7364 48.7245L36.185 48.7245C36.0212 48.3802 35.9295 47.995 35.9295 47.5883V45.694ZM38.0306 48.5829C37.6801 48.3898 37.4426 48.0168 37.4426 47.5883V45.694L39.1659 45.694C39.2704 45.694 39.3551 45.7787 39.3551 45.8831L39.3551 46.6441C39.3551 47.5264 38.8058 48.2804 38.0306 48.5829ZM37.9798 50.1684C37.7518 50.2138 37.516 50.2376 37.2746 50.2376L10.7364 50.2376C8.75181 50.2376 7.14295 48.6287 7.14295 46.6441L7.14295 45.8831C7.14295 44.943 7.90505 44.181 8.84513 44.181L12.2497 44.181C12.0394 43.8327 11.9184 43.4245 11.9184 42.988C11.9184 41.7117 12.9531 40.6771 14.2293 40.6771L14.7451 40.6771C10.6286 37.7682 7.94061 32.9722 7.94061 27.5483C7.94061 18.6759 15.1331 11.4834 24.0054 11.4834C31.9502 11.4834 38.548 17.2506 39.8407 24.8269L39.8407 19.2363C39.8407 17.4149 41.6931 16.1792 43.3748 16.8789L46.4371 18.153C47.3893 18.5491 48.0096 19.4791 48.0096 20.5104V25.2683L48.6324 25.2683C49.5725 25.2683 50.3346 26.0304 50.3346 26.9704V31.4409C51.2685 31.85 51.9209 32.7825 51.9209 33.8674L51.9209 47.5883C51.9209 49.0506 50.7354 50.2361 49.2731 50.2361H38.5774C38.3719 50.2361 38.1719 50.2127 37.9798 50.1684ZM48.8215 31.2195V26.9704C48.8215 26.866 48.7368 26.7813 48.6324 26.7813L48.0096 26.7813V29.1232C48.0096 30.0111 47.2899 30.7308 46.402 30.7308L41.4483 30.7308C40.7489 30.7308 40.1537 30.2841 39.9327 29.6604C39.8633 30.1886 39.7682 30.7088 39.6488 31.2195H48.8215ZM48.8215 32.7326L39.2154 32.7326C39.1561 32.9065 39.0939 33.0791 39.0289 33.2503L39.0289 38.7471C39.0289 38.8516 39.1136 38.9362 39.218 38.9362H48.6324C48.7368 38.9362 48.8215 38.8516 48.8215 38.7471V32.7326ZM46.6857 20.5104L46.6857 25.2683H41.1646V19.2363C41.1646 18.3593 42.0565 17.7644 42.8662 18.1012L45.9286 19.3753C46.387 19.5661 46.6857 20.0139 46.6857 20.5104ZM46.6857 26.7813H41.1646L41.1646 29.1232C41.1646 29.2799 41.2917 29.4069 41.4483 29.4069L46.402 29.4069C46.5587 29.4069 46.6857 29.2799 46.6857 29.1232L46.6857 26.7813ZM25.712 42.001H22.2989C22.8586 42.0664 23.4281 42.1 24.0054 42.1C24.5828 42.1 25.1522 42.0664 25.712 42.001ZM16.9831 42.001C19.1045 43.0337 21.4873 43.6131 24.0054 43.6131C26.5235 43.6131 28.9063 43.0337 31.0278 42.001H33.7818C34.3269 42.001 34.7688 42.4429 34.7688 42.988C34.7688 43.5331 34.3269 43.975 33.7818 43.975H14.2293C13.6842 43.975 13.2423 43.5331 13.2423 42.988C13.2423 42.4429 13.6842 42.001 14.2293 42.001L16.9831 42.001ZM24.0054 17.2879C18.3387 17.2879 13.745 21.8817 13.745 27.5483C13.745 33.215 18.3387 37.8088 24.0054 37.8088C29.6721 37.8088 34.2658 33.215 34.2658 27.5483C34.2658 21.8817 29.6721 17.2879 24.0054 17.2879ZM12.6102 27.5483C12.6102 21.2549 17.712 16.1531 24.0054 16.1531C30.2988 16.1531 35.4006 21.2549 35.4006 27.5483C35.4006 33.8418 30.2988 38.9436 24.0054 38.9436C17.712 38.9436 12.6102 33.8418 12.6102 27.5483Z" fill="#F8F9FA"/>
<path d="M9.45366 27.5483L7.95366 27.5483L7.95366 27.5483L9.45366 27.5483ZM24.0054 12.9965L24.0054 11.4965L24.0054 11.4965L24.0054 12.9965ZM17.7217 40.6771L17.0731 42.0297C17.2756 42.1267 17.4972 42.1771 17.7217 42.1771V40.6771ZM30.2892 40.6771V42.1771C30.5137 42.1771 30.7353 42.1267 30.9377 42.0297L30.2892 40.6771ZM35.9295 35.8913L37.1578 36.7523C37.3347 36.5 37.4295 36.1994 37.4295 35.8913H35.9295ZM37.5158 31.4409L38.1178 32.8149C38.6634 32.5758 39.0158 32.0366 39.0158 31.4409H37.5158ZM37.5158 26.9704L36.0158 26.9704L36.0158 26.9704H37.5158ZM38.4102 25.4718L39.1231 26.7916C39.6758 26.493 39.984 25.8816 39.8951 25.2597L38.4102 25.4718ZM35.9295 38.3139L37.4295 38.3139C37.4295 37.6933 37.0474 37.1368 36.4683 36.914C35.8891 36.6911 35.2325 36.8479 34.8165 37.3083L35.9295 38.3139ZM33.2658 40.6771L32.4002 39.4521C31.8665 39.8292 31.6384 40.5084 31.8362 41.1312C32.034 41.754 32.6123 42.1771 33.2658 42.1771L33.2658 40.6771ZM35.9295 42.1333L34.536 42.6884C34.8022 43.3568 35.5055 43.742 36.2121 43.6065C36.9187 43.4709 37.4295 42.8528 37.4295 42.1333L35.9295 42.1333ZM35.9295 43.8427H37.4295C37.4295 43.1232 36.9187 42.5051 36.2121 42.3695C35.5055 42.234 34.8022 42.6192 34.536 43.2876L35.9295 43.8427ZM35.7614 44.181L34.4774 43.4055C34.1976 43.8688 34.1891 44.4468 34.455 44.9181C34.721 45.3894 35.2202 45.6809 35.7614 45.681L35.7614 44.181ZM35.9295 44.181L35.9295 45.681C36.3274 45.681 36.7089 45.5229 36.9902 45.2416C37.2715 44.9603 37.4295 44.5788 37.4295 44.181H35.9295ZM37.4426 36.3562L36.1888 35.5327C36.0282 35.7773 35.9426 36.0636 35.9426 36.3562H37.4426ZM37.4426 44.181H35.9426C35.9426 45.0094 36.6142 45.681 37.4426 45.681L37.4426 44.181ZM37.5158 36.2436H39.0158C39.0158 35.5784 38.5777 34.9927 37.9396 34.8047C37.3015 34.6168 36.6158 34.8716 36.2553 35.4306L37.5158 36.2436ZM37.5158 38.7471L36.0158 38.7471L36.0158 38.7471L37.5158 38.7471ZM39.218 40.4493L39.218 38.9493L39.218 38.9493L39.218 40.4493ZM48.6324 40.4493L48.6324 41.9493L48.6324 41.9493V40.4493ZM50.3346 33.4653L51.7372 32.9338C51.4806 32.2566 50.7767 31.8594 50.0644 31.9899C49.352 32.1203 48.8346 32.7411 48.8346 33.4653H50.3346ZM50.4079 33.8674L51.9079 33.8674V33.8674H50.4079ZM50.4078 47.5883L48.9078 47.5883L48.9078 47.5883L50.4078 47.5883ZM49.2731 48.7231L49.2731 50.2231H49.2731V48.7231ZM40.206 48.7231L38.9832 47.8543C38.6582 48.3118 38.6157 48.9124 38.8731 49.4111C39.1306 49.9098 39.6448 50.2231 40.206 50.2231L40.206 48.7231ZM40.8681 46.6441L39.3681 46.6441L39.3681 46.6441L40.8681 46.6441ZM40.8681 45.8831L42.3681 45.8831L42.3681 45.8831H40.8681ZM39.1659 44.181L39.1659 45.681H39.1659V44.181ZM8.84513 45.694L8.84513 47.194L8.84513 47.194L8.84513 45.694ZM35.9295 45.694H37.4295C37.4295 45.2962 37.2715 44.9146 36.9902 44.6333C36.7089 44.352 36.3274 44.194 35.9295 44.194L35.9295 45.694ZM8.656 45.8831L7.156 45.8831L7.156 45.8831L8.656 45.8831ZM8.656 46.6441L7.156 46.6441L7.156 46.6441L8.656 46.6441ZM10.7364 48.7245L10.7364 50.2245L10.7364 50.2245L10.7364 48.7245ZM36.185 48.7245L36.185 50.2245C36.6997 50.2245 37.1784 49.9607 37.4533 49.5256C37.7281 49.0904 37.7607 48.5448 37.5395 48.0801L36.185 48.7245ZM35.9295 47.5883L34.4295 47.5883L34.4295 47.5883L35.9295 47.5883ZM37.4426 47.5883H35.9426H37.4426ZM38.0306 48.5829L37.3069 49.8968C37.6966 50.1114 38.1614 50.142 38.5759 49.9803L38.0306 48.5829ZM37.4426 45.694L37.4426 44.194C36.6142 44.194 35.9426 44.8656 35.9426 45.694L37.4426 45.694ZM39.1659 45.694L39.166 44.194L39.1659 44.194L39.1659 45.694ZM39.3551 45.8831L40.8551 45.8831L40.8551 45.8831L39.3551 45.8831ZM39.3551 46.6441L37.8551 46.6441L37.8551 46.6441L39.3551 46.6441ZM37.9798 50.1684L38.317 48.7068C38.1101 48.6591 37.8954 48.6558 37.6871 48.6973L37.9798 50.1684ZM37.2746 50.2376L37.2746 48.7376L37.2746 48.7376L37.2746 50.2376ZM10.7364 50.2376L10.7364 48.7376L10.7364 48.7376L10.7364 50.2376ZM7.14295 46.6441L5.64295 46.6441L5.64295 46.6441L7.14295 46.6441ZM7.14295 45.8831L8.64295 45.8831L8.64295 45.8831L7.14295 45.8831ZM8.84513 44.181L8.84513 45.681L8.84513 45.681L8.84513 44.181ZM12.2497 44.181L12.2497 45.681C12.7909 45.681 13.2901 45.3894 13.5561 44.9181C13.8221 44.4468 13.8135 43.8688 13.5338 43.4055L12.2497 44.181ZM11.9184 42.988L10.4184 42.988V42.988H11.9184ZM14.2293 40.6771L14.2293 39.1771H14.2293V40.6771ZM14.7451 40.6771L14.7451 42.1771C15.3985 42.1771 15.9768 41.754 16.1747 41.1312C16.3725 40.5084 16.1444 39.8292 15.6107 39.4521L14.7451 40.6771ZM7.94061 27.5483L9.44061 27.5483L9.44061 27.5483L7.94061 27.5483ZM24.0054 11.4834L24.0054 12.9834L24.0054 12.9834L24.0054 11.4834ZM39.8407 24.8269L38.3621 25.0792C38.4932 25.8475 39.1907 26.3874 39.9673 26.3216C40.7439 26.2558 41.3407 25.6063 41.3407 24.8269L39.8407 24.8269ZM39.8407 19.2363L41.3407 19.2363L41.3407 19.2363L39.8407 19.2363ZM43.3748 16.8789L42.7986 18.2638L42.7986 18.2638L43.3748 16.8789ZM46.4371 18.153L45.8609 19.5379L45.8609 19.5379L46.4371 18.153ZM48.0096 20.5104L46.5096 20.5104V20.5104L48.0096 20.5104ZM48.0096 25.2683H46.5096C46.5096 26.0967 47.1812 26.7683 48.0096 26.7683L48.0096 25.2683ZM48.6324 25.2683L48.6324 26.7683L48.6324 26.7683L48.6324 25.2683ZM50.3346 26.9704L48.8346 26.9704V26.9704L50.3346 26.9704ZM50.3346 31.4409L48.8346 31.4409C48.8346 32.0366 49.187 32.5758 49.7327 32.8148L50.3346 31.4409ZM51.9209 33.8674L50.4209 33.8674L50.4209 33.8674L51.9209 33.8674ZM51.9209 47.5883L53.4209 47.5883L53.4209 47.5883L51.9209 47.5883ZM38.5774 50.2361L38.5774 51.7361H38.5774V50.2361ZM48.8215 31.2195V32.7195C49.65 32.7195 50.3215 32.048 50.3215 31.2195H48.8215ZM48.6324 26.7813L48.6324 25.2813L48.6324 25.2813L48.6324 26.7813ZM48.0096 26.7813L48.0096 25.2813C47.1812 25.2813 46.5096 25.9529 46.5096 26.7813L48.0096 26.7813ZM48.0096 29.1232H46.5096H48.0096ZM46.402 30.7308L46.402 32.2308L46.402 32.2308L46.402 30.7308ZM41.4483 30.7308L41.4483 29.2308L41.4483 29.2308L41.4483 30.7308ZM39.9327 29.6604L41.3465 29.1593C41.1148 28.5056 40.4652 28.0959 39.7754 28.1686C39.0857 28.2413 38.5357 28.7774 38.4454 29.465L39.9327 29.6604ZM39.6488 31.2195L38.1882 30.8781C38.084 31.3239 38.1891 31.793 38.4736 32.1517C38.7582 32.5104 39.191 32.7195 39.6488 32.7195V31.2195ZM48.8215 32.7326H50.3215C50.3215 31.9042 49.65 31.2326 48.8215 31.2326L48.8215 32.7326ZM39.2154 32.7326L39.2154 31.2326C38.5734 31.2326 38.0026 31.6411 37.7955 32.2488L39.2154 32.7326ZM39.0289 33.2503L37.6266 32.7178C37.562 32.8879 37.5289 33.0684 37.5289 33.2503L39.0289 33.2503ZM39.0289 38.7471L37.5289 38.7471L37.5289 38.7471H39.0289ZM46.6857 25.2683V26.7683C47.0835 26.7683 47.465 26.6102 47.7464 26.3289C48.0277 26.0476 48.1857 25.6661 48.1857 25.2683L46.6857 25.2683ZM46.6857 20.5104L45.1857 20.5104L45.1857 20.5104L46.6857 20.5104ZM41.1646 25.2683H39.6646C39.6646 26.0967 40.3362 26.7683 41.1646 26.7683V25.2683ZM41.1646 19.2363L42.6646 19.2363L42.6646 19.2363L41.1646 19.2363ZM42.8662 18.1012L43.4424 16.7163L43.4424 16.7163L42.8662 18.1012ZM45.9286 19.3753L46.5048 17.9904L46.5048 17.9904L45.9286 19.3753ZM41.1646 26.7813L41.1646 25.2813C40.7668 25.2813 40.3853 25.4393 40.104 25.7207C39.8227 26.002 39.6646 26.3835 39.6646 26.7813L41.1646 26.7813ZM46.6857 26.7813L48.1857 26.7813C48.1857 25.9529 47.5141 25.2813 46.6857 25.2813L46.6857 26.7813ZM41.1646 29.1232L42.6646 29.1232L42.6646 29.1232L41.1646 29.1232ZM41.4483 29.4069L41.4483 27.9069L41.4483 27.9069L41.4483 29.4069ZM46.402 29.4069L46.402 27.9069L46.402 27.9069L46.402 29.4069ZM46.6857 29.1232L48.1857 29.1232L48.1857 29.1232L46.6857 29.1232ZM22.2989 42.001L22.2989 40.501C21.5043 40.501 20.8476 41.1206 20.8014 41.9139C20.7552 42.7071 21.3356 43.3987 22.1248 43.4909L22.2989 42.001ZM25.712 42.001L25.886 43.4909C26.6752 43.3987 27.2556 42.7071 27.2095 41.9139C27.1633 41.1206 26.5066 40.501 25.712 40.501L25.712 42.001ZM24.0054 43.6131L24.0054 42.1131H24.0054V43.6131ZM16.9831 42.001L17.6396 40.6523C17.4351 40.5528 17.2106 40.501 16.9831 40.501L16.9831 42.001ZM31.0278 42.001V40.501C30.8003 40.501 30.5758 40.5528 30.3713 40.6523L31.0278 42.001ZM33.7818 42.001L33.7818 43.501L33.7818 43.501L33.7818 42.001ZM34.7688 42.988L33.2688 42.988L33.2688 42.988H34.7688ZM33.7818 43.975L33.7818 42.475H33.7818V43.975ZM14.2293 43.975L14.2293 42.475L14.2293 42.475L14.2293 43.975ZM13.2423 42.988L14.7423 42.988L14.7423 42.988L13.2423 42.988ZM14.2293 42.001L14.2293 43.501L14.2293 43.501L14.2293 42.001ZM13.745 27.5483L12.245 27.5483L12.245 27.5483L13.745 27.5483ZM24.0054 17.2879L24.0054 18.7879L24.0054 18.7879L24.0054 17.2879ZM34.2658 27.5483L32.7658 27.5483L32.7658 27.5483L34.2658 27.5483ZM24.0054 16.1531L24.0054 14.6531L24.0054 14.6531L24.0054 16.1531ZM12.6102 27.5483L14.1102 27.5483V27.5483L12.6102 27.5483ZM35.4006 27.5483L36.9006 27.5483L36.9006 27.5483L35.4006 27.5483ZM24.0054 38.9436L24.0054 40.4436H24.0054V38.9436ZM10.9537 27.5483C10.9537 20.34 16.7971 14.4965 24.0054 14.4965L24.0054 11.4965C15.1403 11.4965 7.95366 18.6831 7.95366 27.5483L10.9537 27.5483ZM18.3702 39.3246C13.98 37.2195 10.9537 32.7358 10.9537 27.5483L7.95366 27.5483C7.95366 33.9332 11.6817 39.4445 17.0731 42.0297L18.3702 39.3246ZM30.2892 39.1771H17.7217V42.1771H30.2892V39.1771ZM34.7013 35.0303C33.4168 36.8627 31.6737 38.3497 29.6407 39.3246L30.9377 42.0297C33.4393 40.8302 35.5802 39.0029 37.1578 36.7523L34.7013 35.0303ZM37.4295 35.8913L37.4295 33.8674L34.4295 33.8674V35.8913H37.4295ZM37.4295 33.8674C37.4295 33.3994 37.7098 32.9936 38.1178 32.8149L36.9139 30.067C35.4541 30.7065 34.4295 32.1656 34.4295 33.8674L37.4295 33.8674ZM36.0158 26.9704V31.4409H39.0158V26.9704H36.0158ZM37.6973 24.1521C36.6993 24.6911 36.0159 25.7498 36.0158 26.9704L39.0158 26.9705C39.0158 26.8956 39.056 26.8278 39.1231 26.7916L37.6973 24.1521ZM24.0054 14.4965C30.5801 14.4965 36.0217 19.3593 36.9253 25.684L39.8951 25.2597C38.7834 17.4781 32.0942 11.4965 24.0054 11.4965L24.0054 14.4965ZM34.8165 37.3083C34.0935 38.1087 33.2829 38.8283 32.4002 39.4521L34.1314 41.9021C35.1953 41.1503 36.1717 40.2834 37.0426 39.3194L34.8165 37.3083ZM33.2658 42.1771H33.7818V39.1771H33.2658V42.1771ZM33.7818 42.1771C34.1214 42.1771 34.4157 42.3863 34.536 42.6884L37.3231 41.5783C36.7637 40.174 35.391 39.1771 33.7818 39.1771V42.1771ZM37.4295 42.1333L37.4295 38.3139L34.4295 38.3139L34.4295 42.1333L37.4295 42.1333ZM34.536 43.2876C34.5198 43.3284 34.5001 43.3678 34.4774 43.4055L37.0454 44.9564C37.1524 44.7793 37.2454 44.5926 37.3231 44.3977L34.536 43.2876ZM35.7614 45.681L35.9295 45.681L35.9295 42.681L35.7614 42.681L35.7614 45.681ZM37.4295 44.181V43.8427H34.4295V44.181H37.4295ZM35.9426 36.3562V44.181H38.9426V36.3562H35.9426ZM36.2553 35.4306C36.2333 35.4648 36.2111 35.4988 36.1888 35.5327L38.6963 37.1797C38.7232 37.1388 38.7499 37.0978 38.7764 37.0566L36.2553 35.4306ZM39.0158 38.7471V36.2436H36.0158V38.7471H39.0158ZM39.218 38.9493C39.1064 38.9493 39.0158 38.8588 39.0158 38.7471L36.0158 38.7471C36.0158 40.5156 37.4495 41.9493 39.218 41.9493L39.218 38.9493ZM48.6324 38.9493L39.218 38.9493L39.218 41.9493L48.6324 41.9493L48.6324 38.9493ZM48.8346 38.7471C48.8346 38.8588 48.7441 38.9493 48.6324 38.9493V41.9493C50.4009 41.9493 51.8346 40.5156 51.8346 38.7471H48.8346ZM48.8346 33.4653V38.7471H51.8346V33.4653H48.8346ZM51.9079 33.8674C51.9079 33.5414 51.848 33.226 51.7372 32.9338L48.9319 33.9969C48.9159 33.9546 48.9079 33.9102 48.9079 33.8674H51.9079ZM51.9078 47.5883L51.9079 33.8674L48.9079 33.8674L48.9078 47.5883L51.9078 47.5883ZM49.2731 50.2231C50.7282 50.2231 51.9079 49.0434 51.9078 47.5883L48.9078 47.5883C48.9078 47.3866 49.0714 47.2231 49.2731 47.2231V50.2231ZM40.206 50.2231L49.2731 50.2231L49.2731 47.2231L40.206 47.2231L40.206 50.2231ZM39.3681 46.6441C39.3681 47.0974 39.2258 47.5129 38.9832 47.8543L41.4288 49.5919C42.0202 48.7596 42.3681 47.7402 42.3681 46.6441L39.3681 46.6441ZM39.3681 45.8831L39.3681 46.6441L42.3681 46.6441L42.3681 45.8831L39.3681 45.8831ZM39.1659 45.681C39.2776 45.681 39.3681 45.7715 39.3681 45.8831H42.3681C42.3681 44.1146 40.9344 42.681 39.1659 42.681V45.681ZM37.4426 45.681L39.1659 45.681L39.1659 42.681L37.4426 42.681L37.4426 45.681ZM8.84513 47.194L35.9295 47.194L35.9295 44.194L8.84513 44.194L8.84513 47.194ZM10.156 45.8831C10.156 46.6071 9.56911 47.194 8.84513 47.194V44.194C7.91225 44.194 7.15601 44.9503 7.156 45.8831L10.156 45.8831ZM10.156 46.6441L10.156 45.8831L7.156 45.8831L7.156 46.6441L10.156 46.6441ZM10.7364 47.2245C10.4159 47.2245 10.156 46.9647 10.156 46.6441L7.156 46.6441C7.156 48.6215 8.75902 50.2245 10.7364 50.2245L10.7364 47.2245ZM36.185 47.2245L10.7364 47.2245L10.7364 50.2245L36.185 50.2245L36.185 47.2245ZM37.5395 48.0801C37.4695 47.9328 37.4295 47.7673 37.4295 47.5883L34.4295 47.5883C34.4295 48.2226 34.573 48.8276 34.8306 49.369L37.5395 48.0801ZM37.4295 47.5883L37.4295 45.694H34.4295V47.5883L37.4295 47.5883ZM35.9426 47.5883C35.9426 48.5852 36.4968 49.4505 37.3069 49.8968L38.7544 47.2691C38.8633 47.3291 38.9426 47.4484 38.9426 47.5883H35.9426ZM35.9426 45.694L35.9426 47.5883L38.9426 47.5883L38.9426 45.694L35.9426 45.694ZM37.4426 47.194L39.1659 47.194L39.1659 44.194L37.4426 44.194L37.4426 47.194ZM39.1659 47.194C38.442 47.194 37.8551 46.6071 37.8551 45.8832L40.8551 45.8831C40.8551 44.9502 40.0988 44.194 39.166 44.194L39.1659 47.194ZM37.8551 45.8831L37.8551 46.6441L40.8551 46.6441L40.8551 45.8831L37.8551 45.8831ZM37.8551 46.6441C37.8551 46.8879 37.7042 47.1001 37.4853 47.1855L38.5759 49.9803C39.9075 49.4607 40.8551 48.1649 40.8551 46.6441L37.8551 46.6441ZM37.6871 48.6973C37.5549 48.7236 37.4172 48.7376 37.2746 48.7376L37.2746 51.7376C37.6148 51.7376 37.9487 51.704 38.2726 51.6396L37.6871 48.6973ZM37.2746 48.7376L10.7364 48.7376L10.7364 51.7376L37.2746 51.7376L37.2746 48.7376ZM10.7364 48.7376C9.58024 48.7376 8.64295 47.8003 8.64295 46.6441L5.64295 46.6441C5.64296 49.4572 7.92339 51.7376 10.7364 51.7376L10.7364 48.7376ZM8.64295 46.6441L8.64295 45.8831L5.64295 45.8831L5.64295 46.6441L8.64295 46.6441ZM8.64295 45.8831C8.64295 45.7715 8.73347 45.681 8.84513 45.681L8.84514 42.681C7.07662 42.681 5.64295 44.1146 5.64295 45.8831L8.64295 45.8831ZM8.84513 45.681L12.2497 45.681L12.2497 42.681L8.84513 42.681L8.84513 45.681ZM13.5338 43.4055C13.4608 43.2847 13.4184 43.1436 13.4184 42.988L10.4184 42.988C10.4184 43.7054 10.6181 44.3808 10.9657 44.9564L13.5338 43.4055ZM13.4184 42.988C13.4184 42.5402 13.7815 42.1771 14.2293 42.1771L14.2293 39.1771C12.1246 39.1771 10.4184 40.8833 10.4184 42.988L13.4184 42.988ZM14.2293 42.1771L14.7451 42.1771L14.7451 39.1771L14.2293 39.1771L14.2293 42.1771ZM15.6107 39.4521C11.875 36.8123 9.44061 32.4645 9.44061 27.5483L6.44061 27.5483C6.44061 33.4798 9.38219 38.7242 13.8794 41.9021L15.6107 39.4521ZM9.44061 27.5483C9.44061 19.5043 15.9615 12.9834 24.0054 12.9834L24.0054 9.98343C14.3046 9.98343 6.44061 17.8475 6.44061 27.5483L9.44061 27.5483ZM24.0054 12.9834C31.2069 12.9834 37.1903 18.2114 38.3621 25.0792L41.3194 24.5746C39.9057 16.2898 32.6936 9.98343 24.0054 9.98343L24.0054 12.9834ZM41.3407 24.8269L41.3407 19.2363L38.3407 19.2363L38.3407 24.8269L41.3407 24.8269ZM41.3407 19.2363C41.3407 18.4849 42.1049 17.9752 42.7986 18.2638L43.951 15.494C41.2814 14.3833 38.3407 16.3448 38.3407 19.2363L41.3407 19.2363ZM42.7986 18.2638L45.8609 19.5379L47.0134 16.7681L43.951 15.494L42.7986 18.2638ZM45.8609 19.5379C46.2537 19.7013 46.5096 20.085 46.5096 20.5104L49.5096 20.5104C49.5096 18.8733 48.5248 17.397 47.0134 16.7681L45.8609 19.5379ZM46.5096 20.5104V25.2683L49.5096 25.2683V20.5104H46.5096ZM48.0096 26.7683L48.6324 26.7683L48.6324 23.7683L48.0096 23.7683L48.0096 26.7683ZM48.6324 26.7683C48.7441 26.7683 48.8346 26.8588 48.8346 26.9704L51.8346 26.9705C51.8346 25.2019 50.4009 23.7683 48.6324 23.7683L48.6324 26.7683ZM48.8346 26.9704L48.8346 31.4409L51.8346 31.4409L51.8346 26.9704L48.8346 26.9704ZM49.7327 32.8148C50.1407 32.9936 50.4209 33.3994 50.4209 33.8674L53.4209 33.8674C53.4209 32.1656 52.3963 30.7065 50.9365 30.067L49.7327 32.8148ZM50.4209 33.8674L50.4209 47.5883L53.4209 47.5883L53.4209 33.8674L50.4209 33.8674ZM50.4209 47.5883C50.4209 48.2222 49.907 48.7361 49.2731 48.7361V51.7361C51.5639 51.7361 53.4209 49.8791 53.4209 47.5883L50.4209 47.5883ZM49.2731 48.7361L38.5774 48.7361V51.7361L49.2731 51.7361V48.7361ZM38.5774 48.7361C38.4861 48.7361 38.3992 48.7258 38.317 48.7068L37.6427 51.63C37.9445 51.6997 38.2576 51.7361 38.5774 51.7361L38.5774 48.7361ZM50.3215 31.2195V26.9704L47.3215 26.9704V31.2195H50.3215ZM50.3215 26.9704C50.3215 26.0376 49.5653 25.2813 48.6324 25.2813L48.6324 28.2813C47.9084 28.2813 47.3215 27.6944 47.3215 26.9704L50.3215 26.9704ZM48.6324 25.2813L48.0096 25.2813L48.0096 28.2813L48.6324 28.2813L48.6324 25.2813ZM46.5096 26.7813L46.5096 29.1232L49.5096 29.1232L49.5096 26.7813L46.5096 26.7813ZM46.5096 29.1232C46.5096 29.1826 46.4614 29.2308 46.402 29.2308L46.402 32.2308C48.1183 32.2308 49.5096 30.8395 49.5096 29.1232H46.5096ZM46.402 29.2308L41.4483 29.2308L41.4483 32.2308L46.402 32.2308L46.402 29.2308ZM41.4483 29.2308C41.423 29.2308 41.4038 29.2239 41.3866 29.2115C41.3669 29.1973 41.3531 29.1781 41.3465 29.1593L38.5188 30.1614C38.9454 31.3651 40.0938 32.2308 41.4483 32.2308L41.4483 29.2308ZM38.4454 29.465C38.3825 29.944 38.2964 30.4153 38.1882 30.8781L41.1095 31.561C41.2401 31.0022 41.344 30.4332 41.4199 29.8557L38.4454 29.465ZM39.6488 32.7195H48.8215V29.7195H39.6488V32.7195ZM48.8215 31.2326L39.2154 31.2326L39.2154 34.2326L48.8215 34.2326L48.8215 31.2326ZM37.7955 32.2488C37.7418 32.4064 37.6855 32.5627 37.6266 32.7178L40.4312 33.7829C40.5023 33.5956 40.5703 33.4067 40.6352 33.2164L37.7955 32.2488ZM37.5289 33.2503L37.5289 38.7471L40.5289 38.7471L40.5289 33.2503L37.5289 33.2503ZM37.5289 38.7471C37.5289 39.68 38.2851 40.4362 39.218 40.4362V37.4362C39.942 37.4362 40.5289 38.0231 40.5289 38.7471H37.5289ZM39.218 40.4362H48.6324V37.4362H39.218V40.4362ZM48.6324 40.4362C49.5652 40.4362 50.3215 39.68 50.3215 38.7471H47.3215C47.3215 38.0231 47.9084 37.4362 48.6324 37.4362V40.4362ZM50.3215 38.7471V32.7326H47.3215V38.7471H50.3215ZM48.1857 25.2683L48.1857 20.5104L45.1857 20.5104L45.1857 25.2683L48.1857 25.2683ZM41.1646 26.7683H46.6857V23.7683H41.1646V26.7683ZM39.6646 19.2363L39.6646 25.2683H42.6646V19.2363H39.6646ZM43.4424 16.7163C41.6448 15.9684 39.6646 17.2893 39.6646 19.2363L42.6646 19.2363C42.6646 19.4293 42.4683 19.5603 42.29 19.4861L43.4424 16.7163ZM46.5048 17.9904L43.4424 16.7163L42.29 19.4861L45.3524 20.7603L46.5048 17.9904ZM48.1857 20.5104C48.1857 19.408 47.5226 18.4139 46.5048 17.9904L45.3524 20.7603C45.2514 20.7183 45.1857 20.6197 45.1857 20.5104L48.1857 20.5104ZM41.1646 28.2813H46.6857L46.6857 25.2813H41.1646L41.1646 28.2813ZM42.6646 29.1232L42.6646 26.7813L39.6646 26.7813L39.6646 29.1232L42.6646 29.1232ZM41.4483 27.9069C42.1201 27.9069 42.6646 28.4515 42.6646 29.1232H39.6646C39.6646 30.1083 40.4632 30.9069 41.4483 30.9069L41.4483 27.9069ZM46.402 27.9069L41.4483 27.9069L41.4483 30.9069L46.402 30.9069L46.402 27.9069ZM45.1857 29.1232C45.1857 28.4515 45.7303 27.9069 46.402 27.9069L46.402 30.9069C47.3871 30.9069 48.1857 30.1083 48.1857 29.1232H45.1857ZM45.1857 26.7813L45.1857 29.1232L48.1857 29.1232L48.1857 26.7813L45.1857 26.7813ZM22.2989 43.501L25.712 43.501L25.712 40.501L22.2989 40.501L22.2989 43.501ZM24.0054 40.6C23.4864 40.6 22.975 40.5698 22.4729 40.5112L22.1248 43.4909C22.7422 43.563 23.3698 43.6 24.0054 43.6V40.6ZM25.538 40.5112C25.0358 40.5698 24.5245 40.6 24.0054 40.6V43.6C24.641 43.6 25.2686 43.563 25.886 43.4909L25.538 40.5112ZM24.0054 42.1131C21.7197 42.1131 19.561 41.5876 17.6396 40.6523L16.3266 43.3497C18.6481 44.4798 21.2549 45.1131 24.0054 45.1131V42.1131ZM30.3713 40.6523C28.4499 41.5876 26.2911 42.1131 24.0054 42.1131L24.0054 45.1131C26.7559 45.1131 29.3628 44.4798 31.6843 43.3497L30.3713 40.6523ZM33.7818 40.501H31.0278V43.501H33.7818V40.501ZM36.2688 42.988C36.2688 41.6145 35.1553 40.501 33.7818 40.501L33.7818 43.501C33.4985 43.501 33.2688 43.2713 33.2688 42.988L36.2688 42.988ZM33.7818 45.475C35.1554 45.475 36.2688 44.3615 36.2688 42.988H33.2688C33.2688 42.7047 33.4985 42.475 33.7818 42.475L33.7818 45.475ZM14.2293 45.475H33.7818V42.475H14.2293L14.2293 45.475ZM11.7423 42.988C11.7423 44.3615 12.8558 45.475 14.2293 45.475L14.2293 42.475C14.5127 42.475 14.7423 42.7047 14.7423 42.988L11.7423 42.988ZM14.2293 40.501C12.8558 40.501 11.7423 41.6145 11.7423 42.988L14.7423 42.988C14.7423 43.2713 14.5127 43.501 14.2293 43.501L14.2293 40.501ZM16.9831 40.501L14.2293 40.501L14.2293 43.501L16.9831 43.501L16.9831 40.501ZM15.245 27.5483C15.245 22.7101 19.1671 18.7879 24.0054 18.7879L24.0054 15.7879C17.5103 15.7879 12.245 21.0532 12.245 27.5483L15.245 27.5483ZM24.0054 36.3088C19.1671 36.3088 15.245 32.3866 15.245 27.5483L12.245 27.5483C12.245 34.0435 17.5103 39.3088 24.0054 39.3088V36.3088ZM32.7658 27.5483C32.7658 32.3866 28.8437 36.3088 24.0054 36.3088V39.3088C30.5005 39.3088 35.7658 34.0435 35.7658 27.5483L32.7658 27.5483ZM24.0054 18.7879C28.8437 18.7879 32.7658 22.7101 32.7658 27.5483L35.7658 27.5483C35.7658 21.0532 30.5005 15.7879 24.0054 15.7879L24.0054 18.7879ZM24.0054 14.6531C16.8836 14.6531 11.1102 20.4265 11.1102 27.5483L14.1102 27.5483C14.1102 22.0834 18.5404 17.6531 24.0054 17.6531L24.0054 14.6531ZM36.9006 27.5483C36.9006 20.4265 31.1272 14.6531 24.0054 14.6531L24.0054 17.6531C29.4704 17.6531 33.9006 22.0834 33.9006 27.5483L36.9006 27.5483ZM24.0054 40.4436C31.1272 40.4436 36.9006 34.6702 36.9006 27.5483H33.9006C33.9006 33.0133 29.4704 37.4436 24.0054 37.4436V40.4436ZM11.1102 27.5483C11.1102 34.6702 16.8836 40.4436 24.0054 40.4436L24.0054 37.4436C18.5404 37.4436 14.1102 33.0133 14.1102 27.5483H11.1102Z" fill="#F8F9FA" mask="url(#path-1-outside-1_50_7408)"/>
<circle cx="24.0058" cy="27.571" r="15.3083" fill="#FF6B6B" stroke="#212529" stroke-width="1.6" stroke-linejoin="round"/>
<g style="mix-blend-mode:multiply">
<path fill-rule="evenodd" clip-rule="evenodd" d="M23.0382 42.8652C31.1846 42.5174 37.6823 35.803 37.6823 27.571C37.6823 19.339 31.1846 12.6246 23.0382 12.2768C23.2584 12.2674 23.4799 12.2627 23.7024 12.2627C32.157 12.2627 39.0107 19.1165 39.0107 27.571C39.0107 36.0255 32.157 42.8793 23.7024 42.8793C23.4799 42.8793 23.2584 42.8746 23.0382 42.8652Z" fill="#DEE2E6"/>
</g>
<circle cx="24.0058" cy="27.5715" r="10.8278" fill="#EDF2FF" stroke="#212529" stroke-width="1.2" stroke-linejoin="round"/>
<g style="mix-blend-mode:multiply">
<path fill-rule="evenodd" clip-rule="evenodd" d="M24.9629 16.7588C19.2541 17.0619 14.7185 21.7869 14.7185 27.5712C14.7185 33.3545 19.2526 38.0788 24.96 38.3834C24.7668 38.3936 24.5723 38.3988 24.3765 38.3988C18.3965 38.3988 13.5487 33.551 13.5487 27.571C13.5487 21.591 18.3965 16.7432 24.3765 16.7432C24.5733 16.7432 24.7687 16.7484 24.9629 16.7588Z" fill="#EDF2FF"/>
</g>
<rect x="12.5809" y="41.3623" width="22.8504" height="3.29789" rx="1.64894" fill="#FFEC99" stroke="#212529" stroke-width="1.2" stroke-linejoin="round"/>
<g style="mix-blend-mode:multiply">
<rect x="13.178" y="43.5776" width="21.6556" height="0.684928" fill="#DEE2E6"/>
</g>
<path d="M7.8999 45.9609C7.8999 45.4087 8.34762 44.9609 8.8999 44.9609H39.112C39.6643 44.9609 40.112 45.4087 40.112 45.9609V46.5045C40.112 48.1614 38.7689 49.5045 37.112 49.5045H10.8999C9.24305 49.5045 7.8999 48.1614 7.8999 46.5045V45.9609Z" fill="#FF6B6B" stroke="#212529" stroke-width="1.2" stroke-linejoin="round"/>
<path d="M19.615 30.3931L26.4557 24.7495" stroke="#212529" stroke-linecap="round"/>
<path d="M24.8909 29.5837L28.3967 26.6914" stroke="#212529" stroke-linecap="round"/>
<path d="M40.5032 19.4226C40.5032 17.9959 41.9542 17.028 43.2714 17.5761L46.1164 18.7598C46.8622 19.0701 47.3481 19.7985 47.3481 20.6063V29.0923C47.3481 29.6446 46.9004 30.0923 46.3481 30.0923H41.5032C40.9509 30.0923 40.5032 29.6446 40.5032 29.0923V19.4226Z" fill="#F03E3E" stroke="#212529" stroke-width="1.4" stroke-linejoin="round"/>
<rect x="38.2728" y="26.0483" width="11.3057" height="13.668" rx="1" fill="#ADB5BD" stroke="#212529" stroke-width="1.6" stroke-linejoin="round"/>
<rect x="36.6864" y="31.9995" width="14.4783" height="17.5035" rx="2" fill="#868E96" stroke="#212529" stroke-width="1.6" stroke-linejoin="round"/>
<g style="mix-blend-mode:multiply">
<rect x="47.7433" y="26.2607" width="1.42234" height="5.73825" fill="#DEE2E6"/>
</g>
<g style="mix-blend-mode:multiply">
<rect x="49.5786" y="32.6611" width="1.42234" height="16.1163" fill="#DEE2E6"/>
</g>
<g style="mix-blend-mode:multiply">
<path d="M35.158 45.3071H36.6865V49.1567H36.158C35.6057 49.1567 35.158 48.7089 35.158 48.1567V45.3071Z" fill="#DEE2E6"/>
</g>
</g>
<defs>
<clipPath id="clip0_50_7408">
<rect width="60" height="60" fill="white"/>
</clipPath>
</defs>
</svg>
