<svg width="60" height="60" viewBox="0 0 60 60" fill="none" xmlns="http://www.w3.org/2000/svg">
<mask id="path-1-outside-1_50_7383" maskUnits="userSpaceOnUse" x="6.01917" y="8.86768" width="48" height="42" fill="black">
<rect fill="white" x="6.01917" y="8.86768" width="48" height="42"/>
<path fill-rule="evenodd" clip-rule="evenodd" d="M12.4669 10.8677C10.0105 10.8677 8.01917 12.859 8.01917 15.3154V26.2934C8.01917 27.8406 8.80921 29.2033 10.0079 30.0001C8.80922 30.7969 8.01918 32.1596 8.01918 33.7069V44.6848C8.01918 47.1412 10.0105 49.1326 12.4669 49.1326H47.5332C49.9896 49.1326 51.9809 47.1412 51.9809 44.6848V33.7069C51.9809 32.1596 51.1909 30.7969 49.9922 30.0001C51.1909 29.2033 51.9809 27.8406 51.9809 26.2934V15.3154C51.9809 12.859 49.9896 10.8677 47.5332 10.8677H12.4669ZM9.50175 15.3154C9.50175 13.6778 10.8293 12.3503 12.4669 12.3503H47.5332C49.1708 12.3503 50.4983 13.6778 50.4983 15.3154V26.2934C50.4983 27.931 49.1708 29.2585 47.5332 29.2585H12.4669C10.8293 29.2585 9.50175 27.931 9.50175 26.2934V15.3154ZM9.50177 33.7069C9.50177 32.0693 10.8293 30.7417 12.4669 30.7417H47.5332C49.1708 30.7417 50.4984 32.0693 50.4984 33.7069V44.6848C50.4984 46.3224 49.1708 47.65 47.5332 47.65H12.4669C10.8293 47.65 9.50177 46.3224 9.50177 44.6848V33.7069Z"/>
</mask>
<path fill-rule="evenodd" clip-rule="evenodd" d="M12.4669 10.8677C10.0105 10.8677 8.01917 12.859 8.01917 15.3154V26.2934C8.01917 27.8406 8.80921 29.2033 10.0079 30.0001C8.80922 30.7969 8.01918 32.1596 8.01918 33.7069V44.6848C8.01918 47.1412 10.0105 49.1326 12.4669 49.1326H47.5332C49.9896 49.1326 51.9809 47.1412 51.9809 44.6848V33.7069C51.9809 32.1596 51.1909 30.7969 49.9922 30.0001C51.1909 29.2033 51.9809 27.8406 51.9809 26.2934V15.3154C51.9809 12.859 49.9896 10.8677 47.5332 10.8677H12.4669ZM9.50175 15.3154C9.50175 13.6778 10.8293 12.3503 12.4669 12.3503H47.5332C49.1708 12.3503 50.4983 13.6778 50.4983 15.3154V26.2934C50.4983 27.931 49.1708 29.2585 47.5332 29.2585H12.4669C10.8293 29.2585 9.50175 27.931 9.50175 26.2934V15.3154ZM9.50177 33.7069C9.50177 32.0693 10.8293 30.7417 12.4669 30.7417H47.5332C49.1708 30.7417 50.4984 32.0693 50.4984 33.7069V44.6848C50.4984 46.3224 49.1708 47.65 47.5332 47.65H12.4669C10.8293 47.65 9.50177 46.3224 9.50177 44.6848V33.7069Z" fill="#F8F9FA"/>
<path d="M10.0079 30.0001L10.8383 31.2493C11.2565 30.9713 11.5079 30.5024 11.5079 30.0001C11.5079 29.4979 11.2565 29.029 10.8383 28.7509L10.0079 30.0001ZM49.9922 30.0001L49.1618 28.7509C48.7436 29.029 48.4922 29.4979 48.4922 30.0001C48.4922 30.5024 48.7436 30.9713 49.1618 31.2493L49.9922 30.0001ZM9.51917 15.3154C9.51917 13.6874 10.8389 12.3677 12.4669 12.3677V9.36768C9.18207 9.36768 6.51917 12.0306 6.51917 15.3154H9.51917ZM9.51917 26.2934V15.3154H6.51917V26.2934H9.51917ZM10.8383 28.7509C10.04 28.2203 9.51917 27.3174 9.51917 26.2934H6.51917C6.51917 28.3639 7.57838 30.1863 9.17754 31.2493L10.8383 28.7509ZM9.51918 33.7069C9.51918 32.6829 10.04 31.7799 10.8383 31.2493L9.17753 28.7509C7.57839 29.8139 6.51918 31.6364 6.51918 33.7069H9.51918ZM9.51918 44.6848V33.7069H6.51918V44.6848H9.51918ZM12.4669 47.6326C10.8389 47.6326 9.51918 46.3128 9.51918 44.6848H6.51918C6.51918 47.9697 9.18207 50.6326 12.4669 50.6326V47.6326ZM47.5332 47.6326H12.4669V50.6326H47.5332V47.6326ZM50.4809 44.6848C50.4809 46.3128 49.1612 47.6326 47.5332 47.6326V50.6326C50.818 50.6326 53.4809 47.9697 53.4809 44.6848H50.4809ZM50.4809 33.7069V44.6848H53.4809V33.7069H50.4809ZM49.1618 31.2493C49.9601 31.7799 50.4809 32.6829 50.4809 33.7069H53.4809C53.4809 31.6364 52.4217 29.8139 50.8226 28.7509L49.1618 31.2493ZM50.4809 26.2934C50.4809 27.3174 49.9601 28.2203 49.1618 28.7509L50.8226 31.2493C52.4217 30.1863 53.4809 28.3639 53.4809 26.2934H50.4809ZM50.4809 15.3154V26.2934H53.4809V15.3154H50.4809ZM47.5332 12.3677C49.1612 12.3677 50.4809 13.6874 50.4809 15.3154H53.4809C53.4809 12.0306 50.818 9.36768 47.5332 9.36768V12.3677ZM12.4669 12.3677H47.5332V9.36768H12.4669V12.3677ZM12.4669 10.8503C10.0009 10.8503 8.00175 12.8494 8.00175 15.3154H11.0018C11.0018 14.5062 11.6577 13.8503 12.4669 13.8503V10.8503ZM47.5332 10.8503H12.4669V13.8503H47.5332V10.8503ZM51.9983 15.3154C51.9983 12.8494 49.9992 10.8503 47.5332 10.8503V13.8503C48.3424 13.8503 48.9983 14.5062 48.9983 15.3154H51.9983ZM51.9983 26.2934V15.3154H48.9983V26.2934H51.9983ZM47.5332 30.7585C49.9992 30.7585 51.9983 28.7594 51.9983 26.2934H48.9983C48.9983 27.1026 48.3424 27.7585 47.5332 27.7585V30.7585ZM12.4669 30.7585H47.5332V27.7585H12.4669V30.7585ZM8.00175 26.2934C8.00175 28.7594 10.0009 30.7585 12.4669 30.7585V27.7585C11.6577 27.7585 11.0018 27.1026 11.0018 26.2934H8.00175ZM8.00175 15.3154V26.2934H11.0018V15.3154H8.00175ZM12.4669 29.2417C10.0009 29.2417 8.00177 31.2408 8.00177 33.7069H11.0018C11.0018 32.8977 11.6577 32.2417 12.4669 32.2417V29.2417ZM47.5332 29.2417H12.4669V32.2417H47.5332V29.2417ZM51.9984 33.7069C51.9984 31.2408 49.9992 29.2417 47.5332 29.2417V32.2417C48.3424 32.2417 48.9984 32.8977 48.9984 33.7069H51.9984ZM51.9984 44.6848V33.7069H48.9984V44.6848H51.9984ZM47.5332 49.15C49.9992 49.15 51.9984 47.1509 51.9984 44.6848H48.9984C48.9984 45.494 48.3424 46.15 47.5332 46.15V49.15ZM12.4669 49.15H47.5332V46.15H12.4669V49.15ZM8.00177 44.6848C8.00177 47.1509 10.0009 49.15 12.4669 49.15V46.15C11.6577 46.15 11.0018 45.494 11.0018 44.6848H8.00177ZM8.00177 33.7069V44.6848H11.0018V33.7069H8.00177Z" fill="#F8F9FA" mask="url(#path-1-outside-1_50_7383)"/>
<rect x="8.76038" y="11.6094" width="42.4792" height="18.3909" rx="4" fill="#FFA8A8" stroke="#212529" stroke-width="1.6" stroke-linejoin="round"/>
<rect x="8.76025" y="30" width="42.4792" height="18.3909" rx="4" fill="#FFA8A8" stroke="#212529" stroke-width="1.6" stroke-linejoin="round"/>
<rect x="12.3243" y="15.0625" width="35.3512" height="11.4855" rx="1" fill="#EDF2FF" stroke="#212529" stroke-linejoin="round"/>
<circle cx="15.1657" cy="35.8338" r="2.05009" fill="#FFF3BF" stroke="#212529" stroke-linejoin="round"/>
<circle cx="15.1658" cy="42.5574" r="2.05009" fill="#FFF3BF" stroke="#212529" stroke-linejoin="round"/>
<circle cx="22.8529" cy="35.8338" r="2.05009" fill="#FFF3BF" stroke="#212529" stroke-linejoin="round"/>
<circle cx="22.8529" cy="42.5574" r="2.05009" fill="#FFF3BF" stroke="#212529" stroke-linejoin="round"/>
<circle cx="30.5403" cy="35.8338" r="2.05009" fill="#FFF3BF" stroke="#212529" stroke-linejoin="round"/>
<circle cx="30.5403" cy="42.5574" r="2.05009" fill="#FFF3BF" stroke="#212529" stroke-linejoin="round"/>
<rect x="43.6292" y="33.7837" width="4.04649" height="10.8237" rx="1" fill="#F783AC" stroke="#212529" stroke-linejoin="round"/>
<path d="M47.4124 39.1953H43.6816" stroke="#212529" stroke-linecap="round"/>
<rect x="36.3324" y="33.7837" width="4.04649" height="10.8237" rx="1" fill="#FF6B6B" stroke="#212529" stroke-linejoin="round"/>
<path d="M40.1158 39.1953H36.385" stroke="#212529" stroke-linecap="round"/>
<g style="mix-blend-mode:soft-light">
<path d="M27.7851 15.4941H12.7626V26.0151H22.373L27.7851 15.4941Z" fill="#F8F9FA"/>
</g>
</svg>
