<svg width="60" height="60" viewBox="0 0 60 60" fill="none" xmlns="http://www.w3.org/2000/svg">
<mask id="path-1-outside-1_50_9901" maskUnits="userSpaceOnUse" x="9.49866" y="7.80371" width="44" height="45" fill="black">
<rect fill="white" x="9.49866" y="7.80371" width="44" height="45"/>
<path fill-rule="evenodd" clip-rule="evenodd" d="M30.8299 11.9669C29.4823 12.3666 28.1334 13.0818 27.1633 13.6056C26.2654 14.1312 25.6096 14.6454 25.1323 15.1358C25.8956 15.5925 26.7095 16.2341 27.5091 16.9455C28.7799 18.0762 30.1286 19.4884 31.3598 20.9234C32.5908 22.3583 33.721 23.8355 34.5495 25.102C34.8317 25.5335 35.0839 25.9481 35.2948 26.334C35.5147 26.2218 35.7317 26.0912 35.9432 25.9431C36.8279 25.3235 37.5373 24.4506 37.9023 23.5091C37.8171 23.4616 37.7333 23.4104 37.6512 23.3554C37.1249 23.0029 36.5941 22.4391 36.1132 21.8166C35.622 21.1807 35.1403 20.428 34.7233 19.6459C34.3069 18.8649 33.9445 18.0349 33.7023 17.2428C33.4654 16.4678 33.3188 15.6507 33.4091 14.9268C33.4986 14.2096 33.6877 13.2624 34.3552 12.4144C34.2351 12.2895 34.1165 12.1821 34.0002 12.0931C33.3178 11.5704 32.2324 11.5509 30.8299 11.9669ZM26.2323 11.9809C24.9186 12.748 23.9649 13.5524 23.3003 14.3836C22.225 14.0968 20.9277 13.9211 19.5219 14.3209C17.8117 14.8073 16.1133 16.0928 14.4824 18.6298C14.4767 18.6386 14.4712 18.6475 14.4659 18.6565C13.8197 19.7398 12.811 21.4431 12.2052 23.2155C11.6157 24.9402 11.2981 27.0486 12.4841 28.7016C12.5837 28.8406 12.6958 28.9792 12.8189 29.1173C12.2035 30.0508 11.776 31.3078 11.5967 32.9835C11.5956 32.9938 11.5947 33.0042 11.5939 33.0145C11.5227 33.9839 11.4135 35.5286 11.6096 36.9884C11.799 38.3982 12.3162 40.0592 13.7893 40.855C13.8235 40.8734 13.8581 40.8915 13.8932 40.9091C13.9109 41.3238 13.9635 41.7683 14.0536 42.2451C14.0556 42.2553 14.0577 42.2656 14.06 42.2758C14.2234 43.0053 14.4917 44.1917 14.9742 45.247C15.4356 46.2564 16.2323 47.453 17.6135 47.7191C18.0194 47.7973 18.463 47.8016 18.9176 47.7572C18.9903 48.0617 19.0996 48.3792 19.2639 48.6971C19.6895 49.5205 20.4325 50.2499 21.6296 50.8034C21.64 50.8081 21.6504 50.8127 21.6609 50.8171C22.2905 51.0808 23.1835 51.2002 24.0144 51.113C24.8184 51.0286 25.8463 50.7166 26.4097 49.8225C26.7481 49.2853 26.8658 48.6402 26.8937 48.0553C26.9224 47.4558 26.8606 46.8237 26.7624 46.2397C26.6618 45.6412 26.5165 45.0561 26.3667 44.561C26.541 44.4096 26.7123 44.2365 26.8359 44.0489C27.5 43.0415 27.7442 41.7824 27.6232 40.6237C27.5637 40.0539 27.4119 39.4781 27.1561 38.9507C27.7424 38.176 28.1482 37.2609 28.3541 36.3287C28.9016 36.4178 29.4418 36.4645 29.8737 36.3967C30.6992 36.2671 31.4807 35.788 32.1472 35.2239C32.8293 34.6465 33.4747 33.9088 34.0299 33.1315C34.5861 32.3526 35.0695 31.5093 35.4173 30.7059C35.7567 29.9218 36.0015 29.0971 36.0015 28.3772C36.0015 28.2812 35.9936 28.1831 35.979 28.0837C36.3423 27.9104 36.6903 27.7058 37.0173 27.4769C38.217 26.6367 39.2199 25.4104 39.7148 24.0061C40.177 24.028 40.641 23.9822 41.083 23.8831C42.2197 23.628 43.335 22.9949 44.0779 22.0441C44.2125 21.8719 44.3197 21.6613 44.4064 21.4533C44.6507 21.4458 44.8877 21.4323 45.1087 21.4171C45.665 21.3786 46.806 21.1557 47.9092 20.763C48.4671 20.5643 49.0493 20.3106 49.559 19.9936C50.0563 19.6845 50.5625 19.2675 50.8669 18.7104C51.3736 17.783 51.1456 16.7332 50.8278 15.9899C50.4994 15.2217 49.9603 14.4998 49.4235 14.0782C49.4145 14.0712 49.4054 14.0643 49.3962 14.0576C48.3299 13.2814 47.331 12.9876 46.4046 13.0168C45.8965 13.0328 45.4431 13.1455 45.0503 13.2909C44.9484 12.8703 44.8073 12.4747 44.6137 12.1327C43.9207 10.9085 42.5324 10.5353 41.4286 10.4201C40.2746 10.2995 39.0646 10.4238 38.321 10.5017C38.3106 10.5028 38.3002 10.5041 38.2899 10.5055C37.2901 10.6443 36.4743 10.8926 35.8145 11.2337C35.5991 10.998 35.3739 10.7865 35.1388 10.6065C33.6979 9.5029 31.8146 9.72165 30.2974 10.1717C28.7316 10.6362 27.2162 11.4489 26.2595 11.9656C26.2504 11.9705 26.2413 11.9756 26.2323 11.9809ZM14.0055 27.6101C14.0412 27.6599 14.0803 27.7106 14.1227 27.7622C15.0525 27.109 16.0655 26.8858 16.8766 26.7665C17.7522 26.6376 18.768 26.7951 19.7588 27.077C20.7674 27.364 21.8332 27.8044 22.8428 28.3174C23.8534 28.8309 24.8274 29.4273 25.6512 30.037C26.4616 30.6369 27.1796 31.2884 27.6276 31.9241C28.1575 32.676 28.4279 33.5563 28.4948 34.4531C28.5319 34.4598 28.5684 34.4661 28.6043 34.4722C29.1368 34.5617 29.4504 34.5677 29.5833 34.5468C29.9193 34.4941 30.3856 34.2617 30.9375 33.7946C31.4738 33.3407 32.0174 32.7274 32.5061 32.0432C32.9936 31.3605 33.4089 30.6318 33.6989 29.962C33.9278 29.4331 34.0587 28.9864 34.1072 28.6507C33.6066 28.7169 33.0971 28.7152 32.5904 28.6316C32.0756 29.8903 31.3351 31.2438 30.3012 32.4327C30.0637 32.7059 29.6497 32.7348 29.3766 32.4972C29.1035 32.2597 29.0746 31.8458 29.3121 31.5727C30.205 30.5458 30.8582 29.3713 31.3222 28.268C30.7854 28.0598 30.2214 27.7839 29.6583 27.4677C28.6656 26.9101 27.6168 26.1935 26.635 25.4016C25.6541 24.6104 24.7229 23.7301 23.9742 22.8397C23.2375 21.9635 22.6234 21.0139 22.3603 20.084C22.0691 19.055 21.8016 17.6958 22.2862 16.2216C22.3018 16.1741 22.3181 16.1267 22.3352 16.0793C21.5887 15.9282 20.8241 15.8973 20.0342 16.122C18.8942 16.4462 17.5313 17.3544 16.0659 19.6294C15.4117 20.7264 14.5086 22.2659 13.977 23.8211C13.4269 25.4306 13.3824 26.7416 14.0055 27.6101ZM33.2096 26.8189C33.2788 26.823 33.3486 26.8248 33.4189 26.8245C33.3722 26.7459 33.3235 26.6655 33.2727 26.5833C33.2527 26.6605 33.2316 26.7391 33.2096 26.8189ZM32.2508 25.0651C32.1954 25.4454 32.0948 25.938 31.9385 26.4983C31.534 26.3374 31.0741 26.1152 30.5752 25.8351C29.6824 25.3337 28.7197 24.6774 27.8106 23.9441C26.9006 23.2101 26.0616 22.4127 25.4074 21.6347C24.7414 20.8425 24.3201 20.1328 24.162 19.5742C23.9024 18.6569 23.7574 17.7424 24.0651 16.8063C24.0765 16.7715 24.0887 16.7363 24.1016 16.7009C24.6942 17.0468 25.4309 17.6028 26.2644 18.3445C27.4568 19.4053 28.7466 20.7532 29.9386 22.1427C30.7909 23.1361 31.5847 24.1408 32.2508 25.0651ZM13.4602 33.1675C13.5991 31.8838 13.8912 30.9984 14.2422 30.3781C14.7776 30.7745 15.376 31.1601 16.0031 31.529C17.5239 32.4238 19.3349 33.2894 21.1316 34.0347C22.9292 34.7804 24.7336 35.4145 26.2471 35.8409C26.3414 35.8675 26.4348 35.8933 26.5271 35.9183C26.4072 36.4656 26.196 36.9913 25.9124 37.4543C25.4209 37.1055 24.7669 36.8111 24.079 36.5732C23.3196 36.3105 22.4526 36.0941 21.5783 35.9485C20.7052 35.803 19.803 35.7244 18.975 35.7476C18.165 35.7704 17.3437 35.8922 16.6865 36.2087C16.0006 36.5391 15.1081 37.0557 14.5148 38.0554C14.3824 38.2785 14.2693 38.518 14.177 38.7754C13.8259 38.3314 13.5875 37.6482 13.4654 36.7392C13.2996 35.5048 13.388 34.152 13.4602 33.1675ZM21.8491 32.3052C23.5001 32.9901 25.1444 33.5721 26.5297 33.9742C26.4396 33.6122 26.2945 33.2831 26.097 33.0027C25.8169 32.6053 25.2821 32.0935 24.5372 31.5421C23.8056 31.0006 22.9218 30.4579 21.9945 29.9867C21.0661 29.5149 20.1137 29.1249 19.2463 28.878C18.3612 28.6261 17.6431 28.5463 17.1492 28.619C16.6002 28.6998 16.078 28.8191 15.6061 29.0531C16.0002 29.3311 16.4509 29.6199 16.9526 29.9151C18.3783 30.7539 20.1068 31.5824 21.8491 32.3052ZM35.5217 14.0957C35.3869 14.4175 35.3153 14.7733 35.2672 15.1585C35.2243 15.5027 35.2884 16.0262 35.493 16.6953C35.6923 17.3472 36.0022 18.0646 36.3756 18.765C36.7485 19.4643 37.1744 20.1273 37.595 20.6718C37.6858 20.7893 37.7746 20.899 37.8608 21.0007C37.6891 20.0611 37.4136 18.949 37.0551 17.8191C36.6637 16.5855 36.1806 15.3543 35.6397 14.3171C35.6004 14.2418 35.5611 14.168 35.5217 14.0957ZM39.9067 22.1393C39.8769 21.7749 39.8238 21.3705 39.7515 20.9413C39.5687 19.8557 39.2543 18.5588 38.8399 17.2528C38.4259 15.948 37.9044 14.6103 37.3 13.4512C37.1808 13.2227 37.0566 12.9975 36.9272 12.7781C37.3313 12.605 37.8533 12.4577 38.5321 12.3623C39.2909 12.2829 40.3081 12.1857 41.2341 12.2824C42.2169 12.3851 42.7668 12.6712 42.9841 13.0551C43.1367 13.3246 43.2624 13.7543 43.3399 14.3282C42.7342 14.8974 42.2003 15.6422 41.794 16.3415C41.4815 16.8791 41.2155 17.4394 41.0288 17.9603C40.8505 18.4577 40.7124 19.0063 40.7348 19.4897C40.7614 20.0633 41.032 20.52 41.4303 20.8322C41.6853 21.032 41.9778 21.1625 42.2653 21.2502C41.8367 21.6349 41.2728 21.9214 40.673 22.056C40.4081 22.1154 40.1505 22.1424 39.9067 22.1393ZM42.7915 18.5921C42.9217 18.2289 43.1115 17.8172 43.3438 17.4033C43.2716 18.1671 43.1577 18.899 43.0264 19.5114L42.9998 19.5061C42.7767 19.4607 42.6579 19.4058 42.6049 19.3721C42.607 19.2423 42.6523 18.9804 42.7915 18.5921ZM45.2106 17.5512C45.1453 18.2529 45.0469 18.938 44.9286 19.5525L44.9797 19.549C45.3335 19.5246 46.3053 19.3464 47.2812 18.9989C47.7629 18.8274 48.2119 18.6263 48.5704 18.4034C48.9413 18.1728 49.1403 17.9651 49.2236 17.8126C49.3183 17.6393 49.3412 17.2758 49.1061 16.726C48.8852 16.2092 48.5314 15.7638 48.2789 15.5604C47.5043 15.0005 46.9107 14.8743 46.4636 14.8884C46.0496 14.9014 45.6722 15.0366 45.2889 15.2279C45.3152 15.9889 45.2818 16.7876 45.2106 17.5512ZM23.5154 39.0305C23.8751 38.9367 24.1866 38.8416 24.4411 38.75C24.1828 38.6164 23.8558 38.4773 23.4668 38.3428C22.8165 38.1178 22.0524 37.9258 21.2706 37.7955C20.4877 37.6651 19.7089 37.6003 19.0275 37.6194C18.3281 37.639 17.8115 37.7452 17.499 37.8958C16.9169 38.1761 16.4329 38.4923 16.1251 39.011C16.0328 39.1666 15.948 39.355 15.8832 39.586C16.2295 39.6487 16.6216 39.6938 17.0545 39.7193C18.0923 39.7804 19.2684 39.7241 20.415 39.5921C21.5604 39.4602 22.6517 39.2557 23.5154 39.0305ZM25.7608 40.8182C25.7408 40.6267 25.7065 40.4438 25.6594 40.2716C25.5307 40.3332 25.3982 40.389 25.268 40.4397C24.9375 40.5684 24.549 40.6917 24.1238 40.8064C24.3449 40.9669 24.5347 41.1572 24.6949 41.3437C24.9994 41.6984 25.2732 42.1318 25.5124 42.5675C25.7349 42.0422 25.824 41.4231 25.7608 40.8182ZM20.9643 41.5946C21.0253 41.5248 21.0883 41.4552 21.1531 41.3869C20.9797 41.4102 20.8049 41.4321 20.6292 41.4523C19.4084 41.5928 18.1194 41.6577 16.9445 41.5886C16.567 41.5664 16.1902 41.5298 15.8239 41.4742C15.842 41.6046 15.8642 41.7405 15.8907 41.8822C16.0575 42.6266 16.29 43.6217 16.6771 44.4685C17.088 45.3671 17.5346 45.797 17.9678 45.8805C18.182 45.9217 18.4674 45.925 18.8161 45.885C18.9564 44.9295 19.4232 43.8926 19.9229 43.0511C20.2403 42.5164 20.6003 42.0113 20.9643 41.5946ZM24.7284 45.6602C24.7984 45.9391 24.8638 46.2406 24.9158 46.55C25.0006 47.0543 25.0435 47.5444 25.0234 47.966C25.0026 48.4023 24.918 48.6773 24.8254 48.8243C24.7201 48.9913 24.4138 49.1883 23.819 49.2507C23.2601 49.3094 22.6988 49.2172 22.3982 49.0957C21.532 48.6918 21.1327 48.2347 20.9273 47.8373C20.85 47.6877 20.7933 47.5336 20.7518 47.3746C21.4848 47.1564 22.2349 46.8686 22.9393 46.556C23.5765 46.2733 24.188 45.965 24.7284 45.6602ZM24.0815 43.8714C23.5405 44.1918 22.8815 44.5331 22.1798 44.8444C21.7505 45.0349 21.3115 45.2114 20.8796 45.3639C21.0322 44.9428 21.2547 44.4757 21.5329 44.0071C21.8011 43.5555 22.0959 43.1454 22.3744 42.8266C22.6458 42.516 22.8525 42.3489 22.9648 42.2838C23.0201 42.3137 23.1259 42.3907 23.2742 42.5634C23.5472 42.8815 23.8201 43.3498 24.0815 43.8714Z"/>
</mask>
<path fill-rule="evenodd" clip-rule="evenodd" d="M30.8299 11.9669C29.4823 12.3666 28.1334 13.0818 27.1633 13.6056C26.2654 14.1312 25.6096 14.6454 25.1323 15.1358C25.8956 15.5925 26.7095 16.2341 27.5091 16.9455C28.7799 18.0762 30.1286 19.4884 31.3598 20.9234C32.5908 22.3583 33.721 23.8355 34.5495 25.102C34.8317 25.5335 35.0839 25.9481 35.2948 26.334C35.5147 26.2218 35.7317 26.0912 35.9432 25.9431C36.8279 25.3235 37.5373 24.4506 37.9023 23.5091C37.8171 23.4616 37.7333 23.4104 37.6512 23.3554C37.1249 23.0029 36.5941 22.4391 36.1132 21.8166C35.622 21.1807 35.1403 20.428 34.7233 19.6459C34.3069 18.8649 33.9445 18.0349 33.7023 17.2428C33.4654 16.4678 33.3188 15.6507 33.4091 14.9268C33.4986 14.2096 33.6877 13.2624 34.3552 12.4144C34.2351 12.2895 34.1165 12.1821 34.0002 12.0931C33.3178 11.5704 32.2324 11.5509 30.8299 11.9669ZM26.2323 11.9809C24.9186 12.748 23.9649 13.5524 23.3003 14.3836C22.225 14.0968 20.9277 13.9211 19.5219 14.3209C17.8117 14.8073 16.1133 16.0928 14.4824 18.6298C14.4767 18.6386 14.4712 18.6475 14.4659 18.6565C13.8197 19.7398 12.811 21.4431 12.2052 23.2155C11.6157 24.9402 11.2981 27.0486 12.4841 28.7016C12.5837 28.8406 12.6958 28.9792 12.8189 29.1173C12.2035 30.0508 11.776 31.3078 11.5967 32.9835C11.5956 32.9938 11.5947 33.0042 11.5939 33.0145C11.5227 33.9839 11.4135 35.5286 11.6096 36.9884C11.799 38.3982 12.3162 40.0592 13.7893 40.855C13.8235 40.8734 13.8581 40.8915 13.8932 40.9091C13.9109 41.3238 13.9635 41.7683 14.0536 42.2451C14.0556 42.2553 14.0577 42.2656 14.06 42.2758C14.2234 43.0053 14.4917 44.1917 14.9742 45.247C15.4356 46.2564 16.2323 47.453 17.6135 47.7191C18.0194 47.7973 18.463 47.8016 18.9176 47.7572C18.9903 48.0617 19.0996 48.3792 19.2639 48.6971C19.6895 49.5205 20.4325 50.2499 21.6296 50.8034C21.64 50.8081 21.6504 50.8127 21.6609 50.8171C22.2905 51.0808 23.1835 51.2002 24.0144 51.113C24.8184 51.0286 25.8463 50.7166 26.4097 49.8225C26.7481 49.2853 26.8658 48.6402 26.8937 48.0553C26.9224 47.4558 26.8606 46.8237 26.7624 46.2397C26.6618 45.6412 26.5165 45.0561 26.3667 44.561C26.541 44.4096 26.7123 44.2365 26.8359 44.0489C27.5 43.0415 27.7442 41.7824 27.6232 40.6237C27.5637 40.0539 27.4119 39.4781 27.1561 38.9507C27.7424 38.176 28.1482 37.2609 28.3541 36.3287C28.9016 36.4178 29.4418 36.4645 29.8737 36.3967C30.6992 36.2671 31.4807 35.788 32.1472 35.2239C32.8293 34.6465 33.4747 33.9088 34.0299 33.1315C34.5861 32.3526 35.0695 31.5093 35.4173 30.7059C35.7567 29.9218 36.0015 29.0971 36.0015 28.3772C36.0015 28.2812 35.9936 28.1831 35.979 28.0837C36.3423 27.9104 36.6903 27.7058 37.0173 27.4769C38.217 26.6367 39.2199 25.4104 39.7148 24.0061C40.177 24.028 40.641 23.9822 41.083 23.8831C42.2197 23.628 43.335 22.9949 44.0779 22.0441C44.2125 21.8719 44.3197 21.6613 44.4064 21.4533C44.6507 21.4458 44.8877 21.4323 45.1087 21.4171C45.665 21.3786 46.806 21.1557 47.9092 20.763C48.4671 20.5643 49.0493 20.3106 49.559 19.9936C50.0563 19.6845 50.5625 19.2675 50.8669 18.7104C51.3736 17.783 51.1456 16.7332 50.8278 15.9899C50.4994 15.2217 49.9603 14.4998 49.4235 14.0782C49.4145 14.0712 49.4054 14.0643 49.3962 14.0576C48.3299 13.2814 47.331 12.9876 46.4046 13.0168C45.8965 13.0328 45.4431 13.1455 45.0503 13.2909C44.9484 12.8703 44.8073 12.4747 44.6137 12.1327C43.9207 10.9085 42.5324 10.5353 41.4286 10.4201C40.2746 10.2995 39.0646 10.4238 38.321 10.5017C38.3106 10.5028 38.3002 10.5041 38.2899 10.5055C37.2901 10.6443 36.4743 10.8926 35.8145 11.2337C35.5991 10.998 35.3739 10.7865 35.1388 10.6065C33.6979 9.5029 31.8146 9.72165 30.2974 10.1717C28.7316 10.6362 27.2162 11.4489 26.2595 11.9656C26.2504 11.9705 26.2413 11.9756 26.2323 11.9809ZM14.0055 27.6101C14.0412 27.6599 14.0803 27.7106 14.1227 27.7622C15.0525 27.109 16.0655 26.8858 16.8766 26.7665C17.7522 26.6376 18.768 26.7951 19.7588 27.077C20.7674 27.364 21.8332 27.8044 22.8428 28.3174C23.8534 28.8309 24.8274 29.4273 25.6512 30.037C26.4616 30.6369 27.1796 31.2884 27.6276 31.9241C28.1575 32.676 28.4279 33.5563 28.4948 34.4531C28.5319 34.4598 28.5684 34.4661 28.6043 34.4722C29.1368 34.5617 29.4504 34.5677 29.5833 34.5468C29.9193 34.4941 30.3856 34.2617 30.9375 33.7946C31.4738 33.3407 32.0174 32.7274 32.5061 32.0432C32.9936 31.3605 33.4089 30.6318 33.6989 29.962C33.9278 29.4331 34.0587 28.9864 34.1072 28.6507C33.6066 28.7169 33.0971 28.7152 32.5904 28.6316C32.0756 29.8903 31.3351 31.2438 30.3012 32.4327C30.0637 32.7059 29.6497 32.7348 29.3766 32.4972C29.1035 32.2597 29.0746 31.8458 29.3121 31.5727C30.205 30.5458 30.8582 29.3713 31.3222 28.268C30.7854 28.0598 30.2214 27.7839 29.6583 27.4677C28.6656 26.9101 27.6168 26.1935 26.635 25.4016C25.6541 24.6104 24.7229 23.7301 23.9742 22.8397C23.2375 21.9635 22.6234 21.0139 22.3603 20.084C22.0691 19.055 21.8016 17.6958 22.2862 16.2216C22.3018 16.1741 22.3181 16.1267 22.3352 16.0793C21.5887 15.9282 20.8241 15.8973 20.0342 16.122C18.8942 16.4462 17.5313 17.3544 16.0659 19.6294C15.4117 20.7264 14.5086 22.2659 13.977 23.8211C13.4269 25.4306 13.3824 26.7416 14.0055 27.6101ZM33.2096 26.8189C33.2788 26.823 33.3486 26.8248 33.4189 26.8245C33.3722 26.7459 33.3235 26.6655 33.2727 26.5833C33.2527 26.6605 33.2316 26.7391 33.2096 26.8189ZM32.2508 25.0651C32.1954 25.4454 32.0948 25.938 31.9385 26.4983C31.534 26.3374 31.0741 26.1152 30.5752 25.8351C29.6824 25.3337 28.7197 24.6774 27.8106 23.9441C26.9006 23.2101 26.0616 22.4127 25.4074 21.6347C24.7414 20.8425 24.3201 20.1328 24.162 19.5742C23.9024 18.6569 23.7574 17.7424 24.0651 16.8063C24.0765 16.7715 24.0887 16.7363 24.1016 16.7009C24.6942 17.0468 25.4309 17.6028 26.2644 18.3445C27.4568 19.4053 28.7466 20.7532 29.9386 22.1427C30.7909 23.1361 31.5847 24.1408 32.2508 25.0651ZM13.4602 33.1675C13.5991 31.8838 13.8912 30.9984 14.2422 30.3781C14.7776 30.7745 15.376 31.1601 16.0031 31.529C17.5239 32.4238 19.3349 33.2894 21.1316 34.0347C22.9292 34.7804 24.7336 35.4145 26.2471 35.8409C26.3414 35.8675 26.4348 35.8933 26.5271 35.9183C26.4072 36.4656 26.196 36.9913 25.9124 37.4543C25.4209 37.1055 24.7669 36.8111 24.079 36.5732C23.3196 36.3105 22.4526 36.0941 21.5783 35.9485C20.7052 35.803 19.803 35.7244 18.975 35.7476C18.165 35.7704 17.3437 35.8922 16.6865 36.2087C16.0006 36.5391 15.1081 37.0557 14.5148 38.0554C14.3824 38.2785 14.2693 38.518 14.177 38.7754C13.8259 38.3314 13.5875 37.6482 13.4654 36.7392C13.2996 35.5048 13.388 34.152 13.4602 33.1675ZM21.8491 32.3052C23.5001 32.9901 25.1444 33.5721 26.5297 33.9742C26.4396 33.6122 26.2945 33.2831 26.097 33.0027C25.8169 32.6053 25.2821 32.0935 24.5372 31.5421C23.8056 31.0006 22.9218 30.4579 21.9945 29.9867C21.0661 29.5149 20.1137 29.1249 19.2463 28.878C18.3612 28.6261 17.6431 28.5463 17.1492 28.619C16.6002 28.6998 16.078 28.8191 15.6061 29.0531C16.0002 29.3311 16.4509 29.6199 16.9526 29.9151C18.3783 30.7539 20.1068 31.5824 21.8491 32.3052ZM35.5217 14.0957C35.3869 14.4175 35.3153 14.7733 35.2672 15.1585C35.2243 15.5027 35.2884 16.0262 35.493 16.6953C35.6923 17.3472 36.0022 18.0646 36.3756 18.765C36.7485 19.4643 37.1744 20.1273 37.595 20.6718C37.6858 20.7893 37.7746 20.899 37.8608 21.0007C37.6891 20.0611 37.4136 18.949 37.0551 17.8191C36.6637 16.5855 36.1806 15.3543 35.6397 14.3171C35.6004 14.2418 35.5611 14.168 35.5217 14.0957ZM39.9067 22.1393C39.8769 21.7749 39.8238 21.3705 39.7515 20.9413C39.5687 19.8557 39.2543 18.5588 38.8399 17.2528C38.4259 15.948 37.9044 14.6103 37.3 13.4512C37.1808 13.2227 37.0566 12.9975 36.9272 12.7781C37.3313 12.605 37.8533 12.4577 38.5321 12.3623C39.2909 12.2829 40.3081 12.1857 41.2341 12.2824C42.2169 12.3851 42.7668 12.6712 42.9841 13.0551C43.1367 13.3246 43.2624 13.7543 43.3399 14.3282C42.7342 14.8974 42.2003 15.6422 41.794 16.3415C41.4815 16.8791 41.2155 17.4394 41.0288 17.9603C40.8505 18.4577 40.7124 19.0063 40.7348 19.4897C40.7614 20.0633 41.032 20.52 41.4303 20.8322C41.6853 21.032 41.9778 21.1625 42.2653 21.2502C41.8367 21.6349 41.2728 21.9214 40.673 22.056C40.4081 22.1154 40.1505 22.1424 39.9067 22.1393ZM42.7915 18.5921C42.9217 18.2289 43.1115 17.8172 43.3438 17.4033C43.2716 18.1671 43.1577 18.899 43.0264 19.5114L42.9998 19.5061C42.7767 19.4607 42.6579 19.4058 42.6049 19.3721C42.607 19.2423 42.6523 18.9804 42.7915 18.5921ZM45.2106 17.5512C45.1453 18.2529 45.0469 18.938 44.9286 19.5525L44.9797 19.549C45.3335 19.5246 46.3053 19.3464 47.2812 18.9989C47.7629 18.8274 48.2119 18.6263 48.5704 18.4034C48.9413 18.1728 49.1403 17.9651 49.2236 17.8126C49.3183 17.6393 49.3412 17.2758 49.1061 16.726C48.8852 16.2092 48.5314 15.7638 48.2789 15.5604C47.5043 15.0005 46.9107 14.8743 46.4636 14.8884C46.0496 14.9014 45.6722 15.0366 45.2889 15.2279C45.3152 15.9889 45.2818 16.7876 45.2106 17.5512ZM23.5154 39.0305C23.8751 38.9367 24.1866 38.8416 24.4411 38.75C24.1828 38.6164 23.8558 38.4773 23.4668 38.3428C22.8165 38.1178 22.0524 37.9258 21.2706 37.7955C20.4877 37.6651 19.7089 37.6003 19.0275 37.6194C18.3281 37.639 17.8115 37.7452 17.499 37.8958C16.9169 38.1761 16.4329 38.4923 16.1251 39.011C16.0328 39.1666 15.948 39.355 15.8832 39.586C16.2295 39.6487 16.6216 39.6938 17.0545 39.7193C18.0923 39.7804 19.2684 39.7241 20.415 39.5921C21.5604 39.4602 22.6517 39.2557 23.5154 39.0305ZM25.7608 40.8182C25.7408 40.6267 25.7065 40.4438 25.6594 40.2716C25.5307 40.3332 25.3982 40.389 25.268 40.4397C24.9375 40.5684 24.549 40.6917 24.1238 40.8064C24.3449 40.9669 24.5347 41.1572 24.6949 41.3437C24.9994 41.6984 25.2732 42.1318 25.5124 42.5675C25.7349 42.0422 25.824 41.4231 25.7608 40.8182ZM20.9643 41.5946C21.0253 41.5248 21.0883 41.4552 21.1531 41.3869C20.9797 41.4102 20.8049 41.4321 20.6292 41.4523C19.4084 41.5928 18.1194 41.6577 16.9445 41.5886C16.567 41.5664 16.1902 41.5298 15.8239 41.4742C15.842 41.6046 15.8642 41.7405 15.8907 41.8822C16.0575 42.6266 16.29 43.6217 16.6771 44.4685C17.088 45.3671 17.5346 45.797 17.9678 45.8805C18.182 45.9217 18.4674 45.925 18.8161 45.885C18.9564 44.9295 19.4232 43.8926 19.9229 43.0511C20.2403 42.5164 20.6003 42.0113 20.9643 41.5946ZM24.7284 45.6602C24.7984 45.9391 24.8638 46.2406 24.9158 46.55C25.0006 47.0543 25.0435 47.5444 25.0234 47.966C25.0026 48.4023 24.918 48.6773 24.8254 48.8243C24.7201 48.9913 24.4138 49.1883 23.819 49.2507C23.2601 49.3094 22.6988 49.2172 22.3982 49.0957C21.532 48.6918 21.1327 48.2347 20.9273 47.8373C20.85 47.6877 20.7933 47.5336 20.7518 47.3746C21.4848 47.1564 22.2349 46.8686 22.9393 46.556C23.5765 46.2733 24.188 45.965 24.7284 45.6602ZM24.0815 43.8714C23.5405 44.1918 22.8815 44.5331 22.1798 44.8444C21.7505 45.0349 21.3115 45.2114 20.8796 45.3639C21.0322 44.9428 21.2547 44.4757 21.5329 44.0071C21.8011 43.5555 22.0959 43.1454 22.3744 42.8266C22.6458 42.516 22.8525 42.3489 22.9648 42.2838C23.0201 42.3137 23.1259 42.3907 23.2742 42.5634C23.5472 42.8815 23.8201 43.3498 24.0815 43.8714Z" fill="#F8F9FA"/>
<path d="M27.1633 13.6057L26.4506 12.2858C26.4354 12.294 26.4204 12.3025 26.4055 12.3112L27.1633 13.6057ZM30.8299 11.967L31.2565 13.4051L31.2565 13.4051L30.8299 11.967ZM25.1323 15.1359L24.0574 14.0896C23.7375 14.4183 23.5855 14.8753 23.6449 15.3301C23.7043 15.7849 23.9685 16.1875 24.3621 16.423L25.1323 15.1359ZM27.5091 16.9456L26.512 18.0663L26.512 18.0663L27.5091 16.9456ZM31.3598 20.9235L30.2214 21.9002L30.2214 21.9002L31.3598 20.9235ZM34.5495 25.1021L35.8048 24.281L35.8048 24.281L34.5495 25.1021ZM35.2949 26.3341L33.9787 27.0535C34.3681 27.7659 35.2536 28.0392 35.9767 27.6701L35.2949 26.3341ZM35.9432 25.9432L35.0827 24.7145L35.0827 24.7145L35.9432 25.9432ZM37.9023 23.5092L39.3009 24.0514C39.5712 23.3539 39.2864 22.5639 38.6332 22.1994L37.9023 23.5092ZM37.6512 23.3555L38.4858 22.1092L38.4858 22.1091L37.6512 23.3555ZM36.1132 21.8167L37.3003 20.8996L37.3003 20.8996L36.1132 21.8167ZM34.7233 19.646L33.3997 20.3518L33.3997 20.3518L34.7233 19.646ZM33.7023 17.2429L32.2679 17.6814L32.2679 17.6814L33.7023 17.2429ZM33.4091 14.9269L31.9207 14.7412L31.9207 14.7412L33.4091 14.9269ZM34.3553 12.4145L35.5339 13.3422C35.9971 12.7538 35.9553 11.9138 35.436 11.3743L34.3553 12.4145ZM34.0002 12.0932L33.0882 13.284L33.0882 13.284L34.0002 12.0932ZM23.3003 14.3837L22.9137 15.833C23.4888 15.9864 24.1001 15.7853 24.4718 15.3204L23.3003 14.3837ZM26.2324 11.981L26.9887 13.2763L26.9887 13.2763L26.2324 11.981ZM19.5219 14.321L19.9323 15.7638L19.9323 15.7638L19.5219 14.321ZM14.4824 18.6299L13.2206 17.8188L13.2206 17.8188L14.4824 18.6299ZM14.4659 18.6566L13.1777 17.8881L13.1777 17.8882L14.4659 18.6566ZM12.2052 23.2156L13.6246 23.7007L12.2052 23.2156ZM12.4841 28.7017L11.2653 29.5761L11.2653 29.5761L12.4841 28.7017ZM12.819 29.1174L14.0713 29.9431C14.4456 29.3753 14.3911 28.6268 13.9386 28.1192L12.819 29.1174ZM11.5967 32.9836L13.0882 33.1432L13.0882 33.1432L11.5967 32.9836ZM11.5939 33.0146L10.0979 32.9048L10.0979 32.9048L11.5939 33.0146ZM11.6096 36.9885L10.123 37.1882L10.123 37.1882L11.6096 36.9885ZM13.7893 40.8551L14.5022 39.5353L14.5022 39.5353L13.7893 40.8551ZM13.8932 40.9092L15.3918 40.845C15.3685 40.3018 15.0531 39.8137 14.5674 39.5693L13.8932 40.9092ZM14.0536 42.2452L12.5797 42.5237L12.5798 42.5238L14.0536 42.2452ZM14.06 42.2759L15.5237 41.9481L15.5237 41.948L14.06 42.2759ZM14.9742 45.2471L13.61 45.8708L13.61 45.8708L14.9742 45.2471ZM17.6135 47.7192L17.8973 46.2463L17.8973 46.2463L17.6135 47.7192ZM18.9176 47.7573L20.3766 47.4088C20.2025 46.6802 19.5175 46.1916 18.7719 46.2644L18.9176 47.7573ZM19.2639 48.6972L17.9314 49.3859L17.9314 49.3859L19.2639 48.6972ZM21.6296 50.8035L21.0002 52.165L21.0005 52.1651L21.6296 50.8035ZM21.6609 50.8172L21.0816 52.2008L21.0816 52.2009L21.6609 50.8172ZM24.0144 51.1131L24.171 52.6049L24.171 52.6049L24.0144 51.1131ZM26.4097 49.8226L27.6788 50.6222L27.6788 50.6222L26.4097 49.8226ZM26.8938 48.0554L25.3955 47.9838L25.3955 47.9839L26.8938 48.0554ZM26.7624 46.2398L28.2417 45.9911L28.2417 45.9911L26.7624 46.2398ZM26.3667 44.5611L25.3829 43.4288C24.9369 43.8164 24.7599 44.4297 24.931 44.9954L26.3667 44.5611ZM26.8359 44.049L25.5835 43.2235L25.5835 43.2235L26.8359 44.049ZM27.6232 40.6238L26.1313 40.7796L26.1313 40.7796L27.6232 40.6238ZM27.1561 38.9508L25.96 38.0456C25.6197 38.4953 25.5604 39.0979 25.8065 39.6054L27.1561 38.9508ZM28.3541 36.3288L28.5951 34.8483C27.8096 34.7204 27.061 35.2282 26.8894 36.0053L28.3541 36.3288ZM29.8737 36.3968L29.6411 34.9149L29.6411 34.9149L29.8737 36.3968ZM32.1472 35.224L33.1163 36.3689L33.1163 36.3689L32.1472 35.224ZM34.0299 33.1315L32.8092 32.2597L32.8092 32.2598L34.0299 33.1315ZM35.4173 30.706L36.7938 31.3019L36.7938 31.3019L35.4173 30.706ZM35.979 28.0838L35.3333 26.7299C34.7396 27.013 34.3996 27.65 34.4948 28.3009L35.979 28.0838ZM37.0173 27.477L37.8777 28.7056L37.8777 28.7056L37.0173 27.477ZM39.7148 24.0062L39.7856 22.5079C39.124 22.4766 38.5202 22.883 38.3001 23.5077L39.7148 24.0062ZM41.083 23.8832L41.4114 25.3468L41.4114 25.3468L41.083 23.8832ZM44.0779 22.0442L42.8959 21.1206L42.8959 21.1207L44.0779 22.0442ZM44.4064 21.4534L44.3607 19.9541C43.7721 19.972 43.2484 20.3327 43.0219 20.8763L44.4064 21.4534ZM45.1087 21.4172L45.0054 19.9207L45.0054 19.9207L45.1087 21.4172ZM47.9093 20.763L48.4123 22.1762L48.4124 22.1762L47.9093 20.763ZM49.5591 19.9937L50.351 21.2676L50.351 21.2676L49.5591 19.9937ZM50.8669 18.7104L49.5505 17.9913L49.5505 17.9913L50.8669 18.7104ZM50.8279 15.99L49.4486 16.5796L49.4486 16.5796L50.8279 15.99ZM49.4235 14.0783L48.4969 15.2579L48.497 15.258L49.4235 14.0783ZM49.3962 14.0577L50.2792 12.8451L50.279 12.845L49.3962 14.0577ZM46.4046 13.0169L46.3574 11.5177L46.3574 11.5177L46.4046 13.0169ZM45.0503 13.2909L43.5925 13.6443C43.6934 14.0605 43.9674 14.4137 44.3453 14.6149C44.7233 14.8162 45.1692 14.8463 45.5708 14.6977L45.0503 13.2909ZM44.6137 12.1328L45.919 11.3938L45.919 11.3938L44.6137 12.1328ZM41.4286 10.4201L41.5844 8.92826L41.5844 8.92826L41.4286 10.4201ZM38.321 10.5018L38.1646 9.00998L38.1646 9.00998L38.321 10.5018ZM38.2899 10.5056L38.4961 11.9913L38.4961 11.9913L38.2899 10.5056ZM35.8146 11.2338L34.7072 12.2456C35.1646 12.7463 35.9011 12.8778 36.5036 12.5662L35.8146 11.2338ZM35.1388 10.6066L34.2267 11.7974L34.2267 11.7974L35.1388 10.6066ZM30.2974 10.1718L30.724 11.6099L30.724 11.6099L30.2974 10.1718ZM26.2596 11.9657L25.5468 10.6459L25.5467 10.6459L26.2596 11.9657ZM14.1227 27.7623L12.9636 28.7144C13.4617 29.3208 14.343 29.4408 14.985 28.9897L14.1227 27.7623ZM14.0055 27.6102L12.7867 28.4846L12.7867 28.4846L14.0055 27.6102ZM16.8766 26.7666L16.6582 25.2826L16.6582 25.2826L16.8766 26.7666ZM19.7588 27.0771L20.1694 25.6344L20.1694 25.6344L19.7588 27.0771ZM22.8428 28.3175L22.1633 29.6547L22.1633 29.6547L22.8428 28.3175ZM25.6512 30.0371L26.5436 28.8315L26.5436 28.8315L25.6512 30.0371ZM27.6276 31.9242L26.4015 32.7882L26.4015 32.7882L27.6276 31.9242ZM28.4948 34.4532L26.999 34.5649C27.0499 35.2474 27.5564 35.8089 28.23 35.9297L28.4948 34.4532ZM28.6043 34.4723L28.8531 32.993L28.8531 32.993L28.6043 34.4723ZM29.5833 34.5469L29.3507 33.0651L29.3507 33.0651L29.5833 34.5469ZM30.9375 33.7947L29.9684 32.6497L29.9684 32.6497L30.9375 33.7947ZM32.5061 32.0433L31.2855 31.1715L31.2855 31.1715L32.5061 32.0433ZM33.6989 29.9621L32.3223 29.3662L32.3223 29.3663L33.6989 29.9621ZM34.1072 28.6508L35.5918 28.8652C35.659 28.4003 35.5044 27.9307 35.1742 27.5965C34.8441 27.2624 34.3764 27.1022 33.9107 27.1637L34.1072 28.6508ZM32.5904 28.6317L32.8344 27.1517C32.1441 27.0379 31.4668 27.4164 31.202 28.0639L32.5904 28.6317ZM30.3012 32.4328L29.1693 31.4486L29.1693 31.4486L30.3012 32.4328ZM29.3766 32.4973L28.3923 33.6292L28.3923 33.6292L29.3766 32.4973ZM29.3121 31.5728L30.444 32.557L30.444 32.557L29.3121 31.5728ZM31.3222 28.2681L32.7049 28.8495C32.8619 28.4761 32.8612 28.0549 32.703 27.682C32.5447 27.3091 32.2423 27.016 31.8645 26.8695L31.3222 28.2681ZM29.6583 27.4678L28.9238 28.7756L28.9238 28.7756L29.6583 27.4678ZM26.635 25.4017L27.5767 24.2342L27.5767 24.2341L26.635 25.4017ZM23.9742 22.8398L25.1224 21.8745L25.1224 21.8745L23.9742 22.8398ZM22.3603 20.0841L23.8036 19.6757L23.8036 19.6757L22.3603 20.0841ZM22.2862 16.2217L23.7112 16.6901L23.7112 16.6901L22.2862 16.2217ZM22.3352 16.0794L23.7465 16.5876C23.8942 16.1775 23.8562 15.7234 23.6423 15.3436C23.4285 14.9638 23.0601 14.6957 22.6328 14.6092L22.3352 16.0794ZM20.0342 16.1221L20.4445 17.5649L20.4445 17.5649L20.0342 16.1221ZM16.0659 19.6294L14.8049 18.8171C14.7955 18.8317 14.7864 18.8463 14.7776 18.8611L16.0659 19.6294ZM13.977 23.8212L15.3964 24.3063L15.3964 24.3063L13.977 23.8212ZM33.4189 26.8246L33.4267 28.3245C33.9645 28.3217 34.4597 28.0312 34.7245 27.563C34.9893 27.0949 34.9832 26.5208 34.7084 26.0584L33.4189 26.8246ZM33.2096 26.819L31.7638 26.4194C31.6432 26.8559 31.7262 27.3235 31.9897 27.6918C32.2532 28.0601 32.669 28.2896 33.121 28.3164L33.2096 26.819ZM33.2727 26.5834L34.5492 25.7956C34.2336 25.2842 33.6434 25.0106 33.0492 25.1001C32.4551 25.1896 31.9717 25.6251 31.8208 26.2067L33.2727 26.5834ZM31.9385 26.4984L31.3838 27.8921C31.7793 28.0495 32.2231 28.0315 32.6045 27.8425C32.9859 27.6535 33.269 27.3114 33.3834 26.9014L31.9385 26.4984ZM32.2508 25.0652L33.7351 25.2813C33.7912 24.8961 33.6953 24.5041 33.4678 24.1883L32.2508 25.0652ZM30.5752 25.8351L31.3097 24.5273L31.3097 24.5273L30.5752 25.8351ZM27.8106 23.9442L26.8689 25.1117L26.8689 25.1117L27.8106 23.9442ZM25.4075 21.6348L24.2594 22.6001L24.2594 22.6001L25.4075 21.6348ZM24.162 19.5743L25.6054 19.1659L25.6054 19.1659L24.162 19.5743ZM24.0651 16.8064L22.6401 16.338L22.6401 16.338L24.0651 16.8064ZM24.1017 16.701L24.8579 15.4056C24.4742 15.1815 24.0108 15.1392 23.5927 15.2899C23.1747 15.4407 22.845 15.7691 22.6926 16.1866L24.1017 16.701ZM26.2644 18.3445L27.2615 17.2239L27.2615 17.2239L26.2644 18.3445ZM29.9387 22.1428L31.0771 21.1661L31.0771 21.1661L29.9387 22.1428ZM14.2423 30.3782L15.1348 29.1726C14.7894 28.917 14.351 28.8217 13.9307 28.9109C13.5103 29.0002 13.1485 29.2654 12.9368 29.6394L14.2423 30.3782ZM13.4602 33.1676L11.9689 33.0062C11.9671 33.0234 11.9655 33.0406 11.9642 33.0579L13.4602 33.1676ZM16.0031 31.5291L16.7637 30.2363L16.7637 30.2363L16.0031 31.5291ZM21.1316 34.0348L21.7064 32.6493L21.7064 32.6493L21.1316 34.0348ZM26.2471 35.841L25.8403 37.2848L25.8404 37.2848L26.2471 35.841ZM26.5271 35.9184L27.9923 36.2396C28.1636 35.4583 27.6917 34.68 26.9196 34.4707L26.5271 35.9184ZM25.9124 37.4544L25.0444 38.6777C25.3832 38.9181 25.8065 39.0072 26.2135 38.9239C26.6204 38.8405 26.9746 38.5921 27.1916 38.2379L25.9124 37.4544ZM24.079 36.5732L24.5693 35.1557L24.5693 35.1557L24.079 36.5732ZM21.5783 35.9486L21.8248 34.469L21.8248 34.469L21.5783 35.9486ZM18.975 35.7477L19.0171 37.2471L19.0171 37.2471L18.975 35.7477ZM16.6865 36.2088L17.3374 37.5602L17.3374 37.5602L16.6865 36.2088ZM14.5148 38.0555L15.8048 38.821L15.8048 38.821L14.5148 38.0555ZM14.177 38.7755L13.0005 39.706C13.3385 40.1334 13.8818 40.3439 14.4195 40.2558C14.9573 40.1677 15.405 39.7948 15.589 39.2819L14.177 38.7755ZM13.4654 36.7392L14.9521 36.5395L14.9521 36.5395L13.4654 36.7392ZM26.5298 33.9743L26.1117 35.4148C26.6271 35.5644 27.1832 35.4272 27.5699 35.055C27.9566 34.6829 28.115 34.1324 27.9853 33.6116L26.5298 33.9743ZM21.8491 32.3052L21.2744 33.6908L21.2744 33.6908L21.8491 32.3052ZM26.097 33.0028L24.8708 33.8668L24.8708 33.8668L26.097 33.0028ZM24.5372 31.5422L25.4296 30.3365L25.4296 30.3365L24.5372 31.5422ZM21.9945 29.9868L21.315 31.3241L21.315 31.3241L21.9945 29.9868ZM19.2464 28.8781L18.8358 30.3208L18.8358 30.3208L19.2464 28.8781ZM17.1492 28.6191L17.3676 30.1031L17.3676 30.1031L17.1492 28.6191ZM15.6061 29.0532L14.9395 27.7095C14.4661 27.9443 14.1511 28.411 14.1105 28.938C14.0699 29.4649 14.3096 29.9744 14.7415 30.279L15.6061 29.0532ZM16.9526 29.9152L16.192 31.2081L16.192 31.2081L16.9526 29.9152ZM35.2672 15.1586L33.7788 14.973L33.7788 14.973L35.2672 15.1586ZM35.5217 14.0958L36.839 13.3782C36.5631 12.8718 36.0213 12.5683 35.4453 12.5977C34.8693 12.6271 34.3612 12.9841 34.1383 13.5161L35.5217 14.0958ZM35.493 16.6954L36.9275 16.2568L36.9275 16.2568L35.493 16.6954ZM36.3756 18.7651L35.052 19.4708L35.052 19.4708L36.3756 18.7651ZM37.595 20.6719L38.7821 19.7549L38.7821 19.7548L37.595 20.6719ZM37.8608 21.0008L36.7166 21.9707C37.1558 22.4888 37.8884 22.6472 38.5024 22.3566C39.1164 22.0661 39.4585 21.3993 39.3364 20.7311L37.8608 21.0008ZM37.0551 17.8192L38.4849 17.3655L38.4849 17.3655L37.0551 17.8192ZM35.6397 14.3172L34.3097 15.0108L34.3097 15.0108L35.6397 14.3172ZM39.7515 20.9413L38.2723 21.1904L38.2723 21.1904L39.7515 20.9413ZM39.9067 22.1394L38.4117 22.2617C38.4748 23.0328 39.114 23.6294 39.8876 23.6393L39.9067 22.1394ZM38.8399 17.2529L37.4102 17.7066L37.4102 17.7066L38.8399 17.2529ZM37.3 13.4513L38.63 12.7577L38.63 12.7577L37.3 13.4513ZM36.9272 12.7782L36.3365 11.3994C35.9401 11.5692 35.636 11.9014 35.5017 12.3112C35.3675 12.721 35.4161 13.1688 35.6352 13.5402L36.9272 12.7782ZM38.5321 12.3624L38.376 10.8706C38.3585 10.8724 38.341 10.8746 38.3235 10.877L38.5321 12.3624ZM41.2341 12.2825L41.0783 13.7744L41.0783 13.7744L41.2341 12.2825ZM42.9841 13.0552L41.6788 13.7941L41.6788 13.7941L42.9841 13.0552ZM43.3399 14.3283L44.3672 15.4213C44.7202 15.0895 44.8913 14.6076 44.8264 14.1275L43.3399 14.3283ZM41.794 16.3416L40.4971 15.5879L40.4971 15.5879L41.794 16.3416ZM41.0289 17.9604L39.6168 17.4542L39.6168 17.4542L41.0289 17.9604ZM40.7348 19.4898L42.2332 19.4203L42.2332 19.4202L40.7348 19.4898ZM41.4303 20.8323L40.505 22.0129L40.505 22.0129L41.4303 20.8323ZM42.2653 21.2503L43.2672 22.3667C43.67 22.0052 43.8468 21.4548 43.73 20.9264C43.6131 20.398 43.2206 19.9735 42.703 19.8156L42.2653 21.2503ZM40.673 22.0561L40.3446 20.5925L40.3446 20.5925L40.673 22.0561ZM43.3438 17.4034L44.8372 17.5445C44.9038 16.839 44.4676 16.1831 43.7912 15.9717C43.1148 15.7603 42.3828 16.0512 42.0358 16.6691L43.3438 17.4034ZM42.7915 18.5922L44.2035 19.0984L44.2035 19.0984L42.7915 18.5922ZM43.0264 19.5115L42.7346 20.9828C43.5383 21.1422 44.3211 20.6272 44.493 19.8261L43.0264 19.5115ZM42.9998 19.5062L42.7005 20.976L42.708 20.9775L42.9998 19.5062ZM42.6049 19.3722L41.1051 19.3472C41.0965 19.8687 41.3593 20.3573 41.7992 20.6374L42.6049 19.3722ZM44.9287 19.5526L43.4557 19.2692C43.3678 19.7261 43.4969 20.1979 43.8052 20.5464C44.1134 20.8949 44.566 21.0806 45.0302 21.0491L44.9287 19.5526ZM45.2106 17.5513L43.7171 17.4122L43.7171 17.4122L45.2106 17.5513ZM44.9797 19.5491L45.0812 21.0457L45.0831 21.0456L44.9797 19.5491ZM47.2812 18.999L47.7843 20.4121L47.7843 20.4121L47.2812 18.999ZM48.5704 18.4035L47.7784 17.1297L47.7784 17.1297L48.5704 18.4035ZM49.2237 17.8127L50.54 18.5319L50.54 18.5319L49.2237 17.8127ZM49.1061 16.726L50.4854 16.1364L50.4854 16.1364L49.1061 16.726ZM48.2789 15.5605L49.2201 14.3925C49.1997 14.3761 49.1789 14.3602 49.1576 14.3448L48.2789 15.5605ZM46.4636 14.8885L46.5108 16.3877L46.5108 16.3877L46.4636 14.8885ZM45.2889 15.228L44.6189 13.8859C44.0935 14.1482 43.7694 14.693 43.7898 15.2799L45.2889 15.228ZM24.4411 38.7501L24.9492 40.1614C25.5104 39.9594 25.8986 39.444 25.9378 38.8488C25.9771 38.2537 25.66 37.6918 25.1302 37.4178L24.4411 38.7501ZM23.5154 39.0306L23.137 37.5791L23.137 37.5791L23.5154 39.0306ZM23.4668 38.3429L23.9572 36.9253L23.9572 36.9253L23.4668 38.3429ZM21.2706 37.7956L21.0241 39.2752L21.0241 39.2752L21.2706 37.7956ZM19.0275 37.6195L18.9855 36.1201L18.9855 36.1201L19.0275 37.6195ZM17.499 37.8958L18.1499 39.2473L18.1499 39.2473L17.499 37.8958ZM16.1251 39.0111L14.8352 38.2456L14.8352 38.2456L16.1251 39.0111ZM15.8832 39.5861L14.4389 39.1812C14.3249 39.5878 14.3876 40.0237 14.6117 40.3818C14.8357 40.7398 15.2003 40.9868 15.6159 41.0621L15.8832 39.5861ZM17.0545 39.7194L17.1427 38.222L17.1427 38.222L17.0545 39.7194ZM20.415 39.5922L20.2435 38.102L20.2435 38.102L20.415 39.5922ZM25.6594 40.2717L27.1064 39.8762C26.9891 39.4472 26.6875 39.0924 26.2831 38.9075C25.8786 38.7226 25.4129 38.7267 25.0118 38.9187L25.6594 40.2717ZM25.7608 40.8183L27.2527 40.6625L27.2527 40.6625L25.7608 40.8183ZM25.2681 40.4398L24.7236 39.0421L24.7236 39.0421L25.2681 40.4398ZM24.1238 40.8065L23.7332 39.3582C23.1753 39.5087 22.7534 39.9663 22.6486 40.5346C22.5439 41.103 22.775 41.6809 23.2427 42.0204L24.1238 40.8065ZM24.6949 41.3438L23.5568 42.3209L23.5568 42.3209L24.6949 41.3438ZM25.5124 42.5676L24.1976 43.2896C24.4743 43.7934 25.0146 44.0948 25.5886 44.0656C26.1626 44.0364 26.6695 43.6818 26.8937 43.1526L25.5124 42.5676ZM21.1531 41.387L22.242 42.4185C22.6794 41.9569 22.7781 41.2696 22.4883 40.7035C22.1985 40.1374 21.5832 39.8155 20.953 39.9004L21.1531 41.387ZM20.9643 41.5947L22.0939 42.5816L22.0939 42.5816L20.9643 41.5947ZM20.6292 41.4524L20.4576 39.9622L20.4576 39.9622L20.6292 41.4524ZM16.9445 41.5887L16.8563 43.0861L16.8563 43.0861L16.9445 41.5887ZM15.8239 41.4743L16.0487 39.9913C15.5807 39.9203 15.1066 40.0745 14.7698 40.4071C14.433 40.7398 14.273 41.212 14.3382 41.6808L15.8239 41.4743ZM15.8907 41.8823L14.4164 42.1585C14.4196 42.1759 14.4232 42.1931 14.427 42.2103L15.8907 41.8823ZM16.6771 44.4686L18.0413 43.8449L18.0413 43.8449L16.6771 44.4686ZM17.9678 45.8805L18.2516 44.4076L18.2516 44.4076L17.9678 45.8805ZM18.8161 45.8851L18.9871 47.3753C19.6626 47.2978 20.2015 46.7756 20.3002 46.1029L18.8161 45.8851ZM19.9229 43.0512L21.2127 43.817L21.2127 43.817L19.9229 43.0512ZM24.9158 46.5501L26.3951 46.3015L26.3951 46.3015L24.9158 46.5501ZM24.7284 45.6603L26.1832 45.2948C26.0692 44.841 25.75 44.4664 25.3201 44.2819C24.8902 44.0973 24.3988 44.1239 23.9913 44.3538L24.7284 45.6603ZM25.0234 47.9661L26.5217 48.0376L26.5217 48.0376L25.0234 47.9661ZM24.8254 48.8244L26.0945 49.624L26.0945 49.624L24.8254 48.8244ZM23.819 49.2508L23.9756 50.7426L23.9756 50.7426L23.819 49.2508ZM22.3982 49.0958L21.7642 50.4553C21.788 50.4663 21.812 50.4768 21.8363 50.4866L22.3982 49.0958ZM20.9273 47.8374L19.5948 48.5261L19.5948 48.5261L20.9273 47.8374ZM20.7518 47.3747L20.3239 45.937C19.5491 46.1677 19.0965 46.9707 19.3003 47.7529L20.7518 47.3747ZM22.9393 46.5561L23.5477 47.9272L23.5478 47.9272L22.9393 46.5561ZM22.1799 44.8445L22.7883 46.2156L22.7883 46.2156L22.1799 44.8445ZM24.0816 43.8715L24.8457 45.1623C25.5236 44.761 25.7755 43.9037 25.4226 43.1994L24.0816 43.8715ZM20.8796 45.364L19.4693 44.8531C19.2718 45.3984 19.4063 46.0086 19.8147 46.4204C20.2231 46.8321 20.8323 46.9715 21.3791 46.7784L20.8796 45.364ZM21.5329 44.0072L22.8227 44.773L22.8227 44.773L21.5329 44.0072ZM22.3744 42.8266L21.2448 41.8398L21.2448 41.8398L22.3744 42.8266ZM22.9648 42.2839L23.6777 40.9641C23.2188 40.7162 22.6641 40.7245 22.2128 40.986L22.9648 42.2839ZM23.2742 42.5635L22.1361 43.5406L22.1361 43.5406L23.2742 42.5635ZM27.8759 14.9256C28.8572 14.3958 30.0782 13.7546 31.2565 13.4051L30.4033 10.5289C28.8864 10.9789 27.4096 11.768 26.4506 12.2858L27.8759 14.9256ZM26.2072 16.1821C26.572 15.8073 27.1142 15.3725 27.921 14.9003L26.4055 12.3112C25.4165 12.8901 24.6473 13.4836 24.0574 14.0896L26.2072 16.1821ZM28.5061 15.8249C27.6731 15.0838 26.7799 14.3737 25.9025 13.8487L24.3621 16.423C25.0114 16.8115 25.746 17.3847 26.512 18.0663L28.5061 15.8249ZM32.4983 19.9468C31.2357 18.4752 29.8398 17.0116 28.5061 15.8249L26.512 18.0663C27.72 19.141 29.0215 20.5017 30.2214 21.9002L32.4983 19.9468ZM35.8048 24.281C34.9324 22.9474 33.7603 21.4179 32.4983 19.9468L30.2214 21.9002C31.4213 23.2989 32.5096 24.7238 33.2942 25.9233L35.8048 24.281ZM36.6111 25.6146C36.3767 25.1859 36.1029 24.7368 35.8048 24.281L33.2942 25.9233C33.5606 26.3305 33.7912 26.7105 33.9787 27.0535L36.6111 25.6146ZM35.0827 24.7145C34.9266 24.8239 34.7692 24.9183 34.613 24.998L35.9767 27.6701C36.2603 27.5254 36.5368 27.3587 36.8036 27.1718L35.0827 24.7145ZM36.5037 22.9671C36.2566 23.6046 35.7489 24.248 35.0827 24.7145L36.8036 27.1718C37.907 26.3991 38.8181 25.2969 39.3009 24.0514L36.5037 22.9671ZM36.8165 24.6018C36.9328 24.6797 37.0512 24.7521 37.1714 24.8191L38.6332 22.1994C38.5829 22.1713 38.5338 22.1413 38.4858 22.1092L36.8165 24.6018ZM34.9262 22.7337C35.4473 23.4082 36.0942 24.1181 36.8165 24.6018L38.4858 22.1091C38.1556 21.888 37.741 21.4701 37.3003 20.8996L34.9262 22.7337ZM33.3997 20.3518C33.8521 21.2001 34.3784 22.0246 34.9262 22.7337L37.3003 20.8996C36.8656 20.3369 36.4286 19.6561 36.047 18.9403L33.3997 20.3518ZM32.2679 17.6814C32.5444 18.586 32.9488 19.5061 33.3997 20.3518L36.047 18.9403C35.665 18.2239 35.3446 17.4841 35.1368 16.8043L32.2679 17.6814ZM31.9207 14.7412C31.7925 15.769 32.0049 16.8213 32.2679 17.6814L35.1368 16.8043C34.9259 16.1145 34.8452 15.5325 34.8976 15.1125L31.9207 14.7412ZM33.1766 11.4867C32.2537 12.6591 32.0209 13.9372 31.9207 14.7412L34.8976 15.1125C34.9762 14.4822 35.1216 13.866 35.5339 13.3422L33.1766 11.4867ZM33.0882 13.284C33.1345 13.3195 33.1971 13.3742 33.2745 13.4546L35.436 11.3743C35.2731 11.205 35.0986 11.045 34.9123 10.9023L33.0882 13.284ZM31.2565 13.4051C32.5635 13.0173 33.0117 13.2254 33.0882 13.284L34.9123 10.9023C33.6239 9.9155 31.9013 10.0846 30.4033 10.5289L31.2565 13.4051ZM24.4718 15.3204C24.9945 14.6667 25.7925 13.9748 26.9887 13.2763L25.476 10.6856C24.0447 11.5214 22.9353 12.4383 22.1288 13.4469L24.4718 15.3204ZM19.9323 15.7638C20.9789 15.4661 21.9782 15.5835 22.9137 15.833L23.6869 12.9343C22.4717 12.6102 20.8765 12.3763 19.1116 12.8782L19.9323 15.7638ZM15.7442 19.4411C17.2454 17.1059 18.6775 16.1207 19.9323 15.7638L19.1116 12.8782C16.9459 13.4942 14.9813 15.08 13.2206 17.8188L15.7442 19.4411ZM15.7541 19.425C15.7509 19.4304 15.7476 19.4357 15.7442 19.441L13.2206 17.8188C13.2059 17.8417 13.1916 17.8648 13.1777 17.8881L15.7541 19.425ZM13.6246 23.7007C14.1727 22.0969 15.1013 20.5195 15.7541 19.425L13.1777 17.8882C12.5381 18.9603 11.4492 20.7894 10.7858 22.7305L13.6246 23.7007ZM13.7029 27.8273C12.9685 26.8037 13.0659 25.3353 13.6246 23.7007L10.7858 22.7305C10.1655 24.5453 9.62778 27.2936 11.2653 29.5761L13.7029 27.8273ZM13.9386 28.1192C13.8461 28.0155 13.7679 27.9181 13.7029 27.8273L11.2653 29.5761C11.3995 29.7633 11.5455 29.9431 11.6993 30.1157L13.9386 28.1192ZM13.0882 33.1432C13.2498 31.6329 13.6226 30.6236 14.0713 29.9431L11.5666 28.2918C10.7845 29.4782 10.3023 30.983 10.1052 32.8239L13.0882 33.1432ZM13.0899 33.1245C13.0894 33.1307 13.0889 33.137 13.0882 33.1432L10.1052 32.8239C10.1024 32.8508 10.0999 32.8778 10.0979 32.9048L13.0899 33.1245ZM13.0962 36.7888C12.9237 35.504 13.0178 34.1064 13.0899 33.1245L10.0979 32.9048C10.0277 33.8616 9.90334 35.5533 10.123 37.1882L13.0962 36.7888ZM14.5022 39.5353C13.7037 39.1039 13.2732 38.1061 13.0962 36.7888L10.123 37.1882C10.3247 38.6905 10.9287 41.0146 13.0763 42.1748L14.5022 39.5353ZM14.5674 39.5693C14.545 39.558 14.5233 39.5467 14.5022 39.5353L13.0763 42.1748C13.1236 42.2004 13.1712 42.2251 13.219 42.2492L14.5674 39.5693ZM15.5276 41.9666C15.4492 41.5519 15.4061 41.1794 15.3918 40.845L12.3946 40.9735C12.4158 41.4684 12.4779 41.9849 12.5797 42.5237L15.5276 41.9666ZM15.5237 41.948C15.5251 41.9542 15.5264 41.9604 15.5275 41.9665L12.5798 42.5238C12.5848 42.5505 12.5903 42.5771 12.5963 42.6038L15.5237 41.948ZM16.3384 44.6234C15.93 43.7301 15.6899 42.69 15.5237 41.9481L12.5962 42.6037C12.7569 43.3208 13.0535 44.6535 13.61 45.8708L16.3384 44.6234ZM17.8973 46.2463C17.2774 46.1269 16.7607 45.5472 16.3384 44.6234L13.61 45.8708C14.1105 46.9657 15.1872 48.7793 17.3297 49.1921L17.8973 46.2463ZM18.7719 46.2644C18.4123 46.2995 18.1209 46.2894 17.8973 46.2463L17.3297 49.1921C17.918 49.3055 18.5137 49.3039 19.0633 49.2502L18.7719 46.2644ZM20.5964 48.0084C20.4952 47.8126 20.4251 47.6118 20.3766 47.4088L17.4587 48.1058C17.5557 48.5119 17.704 48.946 17.9314 49.3859L20.5964 48.0084ZM22.2591 49.4419C21.3171 49.0065 20.8466 48.4924 20.5964 48.0084L17.9314 49.3859C18.5324 50.5488 19.5478 51.4936 21.0002 52.165L22.2591 49.4419ZM22.2403 49.4336C22.2465 49.4363 22.2527 49.439 22.2587 49.4418L21.0005 52.1651C21.0272 52.1775 21.0542 52.1894 21.0816 52.2008L22.2403 49.4336ZM23.8579 49.6213C23.2376 49.6864 22.6031 49.5856 22.2402 49.4336L21.0816 52.2009C21.978 52.5761 23.1295 52.7142 24.171 52.6049L23.8579 49.6213ZM25.1406 49.023C24.9455 49.3325 24.4984 49.5541 23.8579 49.6213L24.171 52.6049C25.1384 52.5034 26.7471 52.1009 27.6788 50.6222L25.1406 49.023ZM25.3955 47.9839C25.3732 48.4496 25.2821 48.7983 25.1406 49.023L27.6788 50.6222C28.2141 49.7725 28.3584 48.8309 28.3921 48.1269L25.3955 47.9839ZM25.2832 46.4884C25.3706 47.0084 25.4173 47.5268 25.3955 47.9838L28.3921 48.1269C28.4275 47.3849 28.3506 46.639 28.2417 45.9911L25.2832 46.4884ZM24.931 44.9954C25.065 45.4385 25.1946 45.9612 25.2832 46.4884L28.2417 45.9911C28.1291 45.3214 27.968 44.6739 27.8025 44.1269L24.931 44.9954ZM25.5835 43.2235C25.5669 43.2487 25.5095 43.3188 25.3829 43.4288L27.3505 45.6934C27.5726 45.5005 27.8577 45.2244 28.0883 44.8745L25.5835 43.2235ZM26.1313 40.7796C26.2214 41.6427 26.0311 42.5445 25.5835 43.2235L28.0883 44.8745C28.9689 43.5387 29.2669 41.9224 29.1151 40.4681L26.1313 40.7796ZM25.8065 39.6054C25.9782 39.9594 26.0879 40.3638 26.1313 40.7796L29.1151 40.4681C29.0395 39.7442 28.8456 38.9969 28.5058 38.2962L25.8065 39.6054ZM26.8894 36.0053C26.727 36.7405 26.4075 37.4543 25.96 38.0456L28.3523 39.8559C29.0772 38.8979 29.5694 37.7815 29.8188 36.6523L26.8894 36.0053ZM29.6411 34.9149C29.4542 34.9442 29.1085 34.9319 28.5951 34.8483L28.1131 37.8093C28.6947 37.904 29.4294 37.9849 30.1063 37.8786L29.6411 34.9149ZM31.1781 34.079C30.6035 34.5654 30.0745 34.8469 29.6411 34.9149L30.1063 37.8786C31.324 37.6875 32.358 37.0107 33.1163 36.3689L31.1781 34.079ZM32.8092 32.2598C32.3073 32.9625 31.7434 33.6005 31.1781 34.079L33.1163 36.3689C33.9153 35.6926 34.642 34.8553 35.2505 34.0033L32.8092 32.2598ZM34.0407 30.1101C33.7393 30.8065 33.3104 31.558 32.8092 32.2597L35.2505 34.0033C35.8618 33.1474 36.3998 32.2122 36.7938 31.3019L34.0407 30.1101ZM34.5015 28.3773C34.5015 28.7981 34.347 29.4025 34.0407 30.1101L36.7938 31.3019C37.1663 30.4413 37.5015 29.3963 37.5015 28.3773H34.5015ZM34.4948 28.3009C34.5003 28.3386 34.5015 28.3637 34.5015 28.3773H37.5015C37.5015 28.199 37.4868 28.0277 37.4632 27.8667L34.4948 28.3009ZM36.1568 26.2483C35.8953 26.4315 35.6188 26.5937 35.3333 26.7299L36.6248 29.4377C37.0657 29.2273 37.4854 28.9804 37.8777 28.7056L36.1568 26.2483ZM38.3001 23.5077C37.9214 24.5822 37.1318 25.5655 36.1568 26.2483L37.8777 28.7056C39.3021 27.7081 40.5185 26.2388 41.1295 24.5047L38.3001 23.5077ZM40.7546 22.4196C40.4333 22.4917 40.1037 22.5229 39.7856 22.5079L39.644 25.5045C40.2503 25.5332 40.8487 25.473 41.4114 25.3468L40.7546 22.4196ZM42.8959 21.1207C42.3952 21.7615 41.6013 22.2296 40.7546 22.4196L41.4114 25.3468C42.8381 25.0267 44.2748 24.2285 45.2599 22.9677L42.8959 21.1207ZM43.0219 20.8763C42.9599 21.0248 42.9136 21.098 42.8959 21.1206L45.2599 22.9677C45.5114 22.6458 45.6795 22.2979 45.7909 22.0305L43.0219 20.8763ZM45.0054 19.9207C44.7968 19.9351 44.58 19.9474 44.3607 19.9541L44.4521 22.9527C44.7215 22.9445 44.9787 22.9297 45.2121 22.9136L45.0054 19.9207ZM47.4062 19.3499C46.4049 19.7064 45.3994 19.8935 45.0054 19.9207L45.2121 22.9136C45.9305 22.864 47.2071 22.6053 48.4123 22.1762L47.4062 19.3499ZM48.7671 18.7199C48.3784 18.9615 47.903 19.1731 47.4062 19.3499L48.4124 22.1762C49.0313 21.9558 49.7202 21.6598 50.351 21.2676L48.7671 18.7199ZM49.5505 17.9913C49.4232 18.2244 49.163 18.4737 48.7671 18.7199L50.351 21.2676C50.9496 20.8955 51.7018 20.3109 52.1833 19.4296L49.5505 17.9913ZM49.4486 16.5796C49.7018 17.1718 49.7259 17.6702 49.5505 17.9913L52.1833 19.4296C53.0212 17.8959 52.5895 16.2948 52.2071 15.4003L49.4486 16.5796ZM48.497 15.258C48.8065 15.501 49.2034 16.0061 49.4486 16.5796L52.2071 15.4003C51.7955 14.4375 51.1142 13.4988 50.35 12.8986L48.497 15.258ZM48.5133 15.2703C48.508 15.2664 48.5025 15.2623 48.4969 15.2579L50.3502 12.8988C50.3266 12.8803 50.3029 12.8624 50.2792 12.8451L48.5133 15.2703ZM46.4518 14.5162C46.9963 14.499 47.6745 14.6597 48.5135 15.2704L50.279 12.845C48.9854 11.9033 47.6657 11.4764 46.3574 11.5177L46.4518 14.5162ZM45.5708 14.6977C45.8476 14.5953 46.1396 14.526 46.4518 14.5162L46.3574 11.5177C45.6535 11.5398 45.0387 11.6959 44.5298 11.8841L45.5708 14.6977ZM43.3083 12.8717C43.4146 13.0595 43.5128 13.3156 43.5925 13.6443L46.5081 12.9376C46.3839 12.4252 46.1999 11.89 45.919 11.3938L43.3083 12.8717ZM41.2728 11.912C42.2831 12.0175 42.9973 12.3223 43.3083 12.8717L45.919 11.3938C44.8442 9.49499 42.7818 9.05331 41.5844 8.92826L41.2728 11.912ZM38.4774 11.9936C39.2336 11.9144 40.2959 11.81 41.2728 11.912L41.5844 8.92826C40.2532 8.78924 38.8956 8.93336 38.1646 9.00998L38.4774 11.9936ZM38.4961 11.9913C38.4899 11.9922 38.4836 11.993 38.4774 11.9936L38.1646 9.00998C38.1376 9.01281 38.1106 9.0161 38.0836 9.01984L38.4961 11.9913ZM36.5036 12.5662C36.9797 12.32 37.6241 12.1124 38.4961 11.9913L38.0836 9.01984C36.956 9.17638 35.969 9.46527 35.1255 9.90145L36.5036 12.5662ZM34.2267 11.7974C34.38 11.9149 34.5408 12.0635 34.7072 12.2456L36.9219 10.2221C36.6575 9.9326 36.3677 9.65842 36.0509 9.41574L34.2267 11.7974ZM30.724 11.6099C32.1515 11.1864 33.3944 11.16 34.2267 11.7974L36.0509 9.41574C34.0014 7.84603 31.4777 8.25707 29.8708 8.73374L30.724 11.6099ZM26.9724 13.2855C27.9401 12.7629 29.3276 12.0241 30.724 11.6099L29.8708 8.73374C28.1357 9.24842 26.4923 10.1352 25.5468 10.6459L26.9724 13.2855ZM26.9887 13.2763C26.9833 13.2795 26.9778 13.2825 26.9724 13.2855L25.5467 10.6459C25.523 10.6587 25.4994 10.6719 25.476 10.6856L26.9887 13.2763ZM15.2818 26.8102C15.2582 26.7814 15.2392 26.7566 15.2243 26.7358L12.7867 28.4846C12.8432 28.5633 12.9024 28.6399 12.9636 28.7144L15.2818 26.8102ZM16.6582 25.2826C15.7691 25.4134 14.4778 25.6796 13.2604 26.5349L14.985 28.9897C15.6272 28.5385 16.362 28.3585 17.095 28.2506L16.6582 25.2826ZM20.1694 25.6344C19.0935 25.3282 17.8394 25.1087 16.6582 25.2826L17.095 28.2506C17.665 28.1667 18.4424 28.2621 19.3483 28.5198L20.1694 25.6344ZM23.5223 26.9802C22.4478 26.4342 21.2911 25.9536 20.1694 25.6344L19.3483 28.5198C20.2438 28.7747 21.2187 29.1747 22.1633 29.6547L23.5223 26.9802ZM26.5436 28.8315C25.646 28.1671 24.5997 27.5277 23.5223 26.9802L22.1633 29.6547C23.1072 30.1344 24.0089 30.6877 24.7588 31.2428L26.5436 28.8315ZM28.8537 31.0601C28.2713 30.2337 27.4066 29.4703 26.5436 28.8315L24.7588 31.2428C25.5165 31.8036 26.0879 32.3433 26.4015 32.7882L28.8537 31.0601ZM29.9906 34.3416C29.9071 33.2218 29.5653 32.0699 28.8537 31.0601L26.4015 32.7882C26.7497 33.2824 26.9487 33.891 26.999 34.5649L29.9906 34.3416ZM28.8531 32.993C28.8228 32.9879 28.7916 32.9825 28.7596 32.9768L28.23 35.9297C28.2722 35.9372 28.314 35.9445 28.3555 35.9515L28.8531 32.993ZM29.3507 33.0651C29.4081 33.056 29.4373 33.0566 29.4232 33.0569C29.414 33.057 29.3863 33.057 29.337 33.0539C29.2381 33.0477 29.0795 33.0311 28.8531 32.993L28.3555 35.9515C28.9141 36.0454 29.4296 36.0894 29.816 36.0288L29.3507 33.0651ZM29.9684 32.6497C29.7553 32.8301 29.5856 32.942 29.4658 33.0068C29.3392 33.0753 29.3029 33.0726 29.3507 33.0651L29.8159 36.0288C30.5442 35.9145 31.263 35.4844 31.9066 34.9396L29.9684 32.6497ZM31.2855 31.1715C30.8501 31.7811 30.3878 32.2947 29.9684 32.6497L31.9066 34.9396C32.5597 34.3868 33.1848 33.6739 33.7267 32.9151L31.2855 31.1715ZM32.3223 29.3663C32.0787 29.929 31.718 30.5659 31.2855 31.1715L33.7267 32.9151C34.2694 32.1553 34.7392 31.3348 35.0754 30.558L32.3223 29.3663ZM32.6226 28.4364C32.5989 28.6009 32.5173 28.9158 32.3223 29.3662L35.0754 30.558C35.3384 29.9506 35.5186 29.372 35.5918 28.8652L32.6226 28.4364ZM32.3464 30.1118C33.01 30.2212 33.6685 30.2218 34.3038 30.1379L33.9107 27.1637C33.5447 27.2121 33.1842 27.2094 32.8344 27.1517L32.3464 30.1118ZM31.202 28.0639C30.7325 29.2118 30.0698 30.4131 29.1693 31.4486L31.4331 33.4171C32.6004 32.0748 33.4186 30.5691 33.9787 29.1996L31.202 28.0639ZM29.1693 31.4486C29.4754 31.0966 30.0089 31.0593 30.3609 31.3654L28.3923 33.6292C29.2906 34.4104 30.652 34.3154 31.4331 33.4171L29.1693 31.4486ZM30.3609 31.3654C30.7129 31.6715 30.7501 32.205 30.444 32.557L28.1802 30.5885C27.3991 31.4867 27.4941 32.8481 28.3923 33.6292L30.3609 31.3654ZM30.444 32.557C31.4669 31.3807 32.1964 30.0589 32.7049 28.8495L29.9395 27.6866C29.5201 28.6839 28.9432 29.711 28.1802 30.5885L30.444 32.557ZM28.9238 28.7756C29.5317 29.117 30.1609 29.4265 30.7798 29.6666L31.8645 26.8695C31.4098 26.6932 30.9111 26.451 30.3928 26.1599L28.9238 28.7756ZM25.6932 26.5692C26.7333 27.4082 27.851 28.1731 28.9238 28.7756L30.3928 26.1599C29.4802 25.6474 28.5003 24.9791 27.5767 24.2342L25.6932 26.5692ZM22.8261 23.8051C23.6505 24.7856 24.6557 25.7323 25.6932 26.5692L27.5767 24.2341C26.6526 23.4887 25.7953 22.6749 25.1224 21.8745L22.8261 23.8051ZM20.917 20.4925C21.2642 21.7197 22.0325 22.8613 22.8261 23.8051L25.1224 21.8745C24.4424 21.0658 23.9826 20.3083 23.8036 19.6757L20.917 20.4925ZM20.8612 15.7533C20.235 17.6583 20.6004 19.3737 20.917 20.4925L23.8036 19.6757C23.5378 18.7365 23.3683 17.7334 23.7112 16.6901L20.8612 15.7533ZM20.9239 15.5712C20.9021 15.6318 20.8812 15.6925 20.8612 15.7533L23.7112 16.6901C23.7224 16.6559 23.7342 16.6218 23.7465 16.5876L20.9239 15.5712ZM20.4445 17.5649C20.94 17.4239 21.4506 17.4308 22.0376 17.5496L22.6328 14.6092C21.7269 14.4258 20.7082 14.3709 19.6238 14.6793L20.4445 17.5649ZM17.3269 20.4417C18.6617 18.3696 19.7582 17.7601 20.4445 17.5649L19.6238 14.6793C18.0302 15.1326 16.401 16.3394 14.8049 18.8171L17.3269 20.4417ZM15.3964 24.3063C15.8704 22.9197 16.6933 21.506 17.3542 20.3978L14.7776 18.8611C14.1301 19.9469 13.1468 21.6122 12.5577 23.3361L15.3964 24.3063ZM15.2243 26.7358C15.051 26.4943 14.8789 25.8204 15.3964 24.3063L12.5577 23.3361C11.9749 25.041 11.7139 26.9891 12.7867 28.4846L15.2243 26.7358ZM33.4111 25.3246C33.3723 25.3248 33.3346 25.3238 33.2981 25.3216L33.121 28.3164C33.223 28.3224 33.325 28.3251 33.4267 28.3245L33.4111 25.3246ZM31.9963 27.3711C32.0428 27.4466 32.0872 27.5198 32.1293 27.5907L34.7084 26.0584C34.6572 25.9722 34.6041 25.8846 34.5492 25.7956L31.9963 27.3711ZM31.8208 26.2067C31.8027 26.2763 31.7837 26.3472 31.7638 26.4194L34.6554 27.2186C34.6795 27.1312 34.7026 27.045 34.7247 26.9601L31.8208 26.2067ZM33.3834 26.9014C33.5551 26.2855 33.6698 25.7304 33.7351 25.2813L30.7664 24.8491C30.7211 25.1606 30.6344 25.5907 30.4937 26.0955L33.3834 26.9014ZM32.4932 25.1048C32.1626 24.9732 31.7632 24.782 31.3097 24.5273L29.8407 27.143C30.385 27.4487 30.9055 27.7017 31.3838 27.8921L32.4932 25.1048ZM31.3097 24.5273C30.4971 24.0709 29.6032 23.463 28.7524 22.7767L26.8689 25.1117C27.8362 25.892 28.8679 26.5966 29.8407 27.143L31.3097 24.5273ZM28.7524 22.7767C27.899 22.0884 27.134 21.3575 26.5556 20.6695L24.2594 22.6001C24.9892 23.4682 25.9021 24.3319 26.8689 25.1117L28.7524 22.7767ZM26.5556 20.6695C25.946 19.9444 25.6792 19.4269 25.6054 19.1659L22.7187 19.9827C22.961 20.839 23.5369 21.7408 24.2594 22.6001L26.5556 20.6695ZM25.6054 19.1659C25.371 18.3375 25.3242 17.7796 25.4901 17.2748L22.6401 16.338C22.1906 17.7054 22.4339 18.9764 22.7187 19.9827L25.6054 19.1659ZM25.4901 17.2748C25.4965 17.2553 25.5034 17.2355 25.5107 17.2154L22.6926 16.1866C22.6741 16.2373 22.6566 16.2878 22.6401 16.338L25.4901 17.2748ZM23.3454 17.9964C23.8191 18.273 24.4728 18.7583 25.2674 19.4652L27.2615 17.2239C26.3889 16.4476 25.5693 15.8209 24.8579 15.4056L23.3454 17.9964ZM25.2674 19.4652C26.3968 20.4701 27.6394 21.7665 28.8002 23.1195L31.0771 21.1661C29.8537 19.7401 28.5167 18.3407 27.2615 17.2239L25.2674 19.4652ZM28.8002 23.1195C29.6282 24.0845 30.3953 25.056 31.0338 25.9422L33.4678 24.1883C32.7742 23.2258 31.9537 22.1878 31.0771 21.1661L28.8002 23.1195ZM12.9368 29.6394C12.4597 30.4824 12.1235 31.5779 11.9689 33.0062L14.9515 33.329C15.0748 32.1899 15.3227 31.5146 15.5477 31.117L12.9368 29.6394ZM16.7637 30.2363C16.1687 29.8862 15.6168 29.5295 15.1348 29.1726L13.3497 31.5838C13.9384 32.0196 14.5834 32.4342 15.2425 32.8219L16.7637 30.2363ZM21.7064 32.6493C19.9533 31.9221 18.2083 31.0862 16.7637 30.2363L15.2425 32.8219C16.8394 33.7615 18.7166 34.6569 20.5569 35.4203L21.7064 32.6493ZM26.6539 34.3972C25.2069 33.9895 23.459 33.3763 21.7064 32.6493L20.5569 35.4203C22.3994 36.1847 24.2603 36.8396 25.8403 37.2848L26.6539 34.3972ZM26.9196 34.4707C26.8322 34.447 26.7436 34.4225 26.6539 34.3972L25.8404 37.2848C25.9392 37.3126 26.0374 37.3398 26.1347 37.3662L26.9196 34.4707ZM27.1916 38.2379C27.5643 37.6293 27.8373 36.9469 27.9923 36.2396L25.0619 35.5972C24.977 35.9845 24.8277 36.3535 24.6333 36.6709L27.1916 38.2379ZM23.5886 37.9908C24.2137 38.2071 24.7178 38.4459 25.0444 38.6777L26.7805 36.2311C26.1241 35.7653 25.3201 35.4154 24.5693 35.1557L23.5886 37.9908ZM21.3318 37.4282C22.132 37.5615 22.9166 37.7584 23.5886 37.9908L24.5693 35.1557C23.7225 34.8627 22.7732 34.627 21.8248 34.469L21.3318 37.4282ZM19.0171 37.2471C19.7276 37.2272 20.531 37.2948 21.3318 37.4282L21.8248 34.469C20.8795 34.3115 19.8785 34.2218 18.933 34.2483L19.0171 37.2471ZM17.3374 37.5602C17.7187 37.3766 18.296 37.2674 19.0171 37.2471L18.933 34.2483C18.0339 34.2735 16.9688 34.4079 16.0356 34.8574L17.3374 37.5602ZM15.8048 38.821C16.1695 38.2064 16.7351 37.8503 17.3374 37.5602L16.0356 34.8574C15.2661 35.228 14.0466 35.9052 13.2248 37.2901L15.8048 38.821ZM15.589 39.2819C15.6493 39.1134 15.7219 38.9608 15.8048 38.821L13.2248 37.2901C13.0431 37.5964 12.8893 37.9228 12.765 38.2691L15.589 39.2819ZM11.9788 36.9389C12.1166 37.965 12.4083 38.9572 13.0005 39.706L15.3535 37.845C15.2435 37.7058 15.0585 37.3316 14.9521 36.5395L11.9788 36.9389ZM11.9642 33.0579C11.893 34.0298 11.7895 35.5295 11.9788 36.9389L14.9521 36.5395C14.8098 35.4802 14.8831 34.2743 14.9562 33.2773L11.9642 33.0579ZM26.9478 32.5337C25.6233 32.1493 24.0316 31.5867 22.4239 30.9197L21.2744 33.6908C22.9687 34.3936 24.6656 34.9951 26.1117 35.4148L26.9478 32.5337ZM24.8708 33.8668C24.9492 33.978 25.0234 34.1326 25.0743 34.3369L27.9853 33.6116C27.8558 33.092 27.6399 32.5883 27.3231 32.1388L24.8708 33.8668ZM23.6448 32.7479C24.3376 33.2606 24.7254 33.6605 24.8708 33.8668L27.3231 32.1388C26.9084 31.5503 26.2267 30.9265 25.4296 30.3365L23.6448 32.7479ZM21.315 31.3241C22.1756 31.7613 22.987 32.261 23.6448 32.7479L25.4296 30.3365C24.6242 29.7404 23.6681 29.1547 22.674 28.6495L21.315 31.3241ZM18.8358 30.3208C19.5901 30.5355 20.4515 30.8853 21.315 31.3241L22.674 28.6495C21.6807 28.1448 20.6374 27.7144 19.6569 27.4354L18.8358 30.3208ZM17.3676 30.1031C17.5555 30.0755 18.0349 30.0929 18.8358 30.3208L19.6569 27.4354C18.6875 27.1595 17.7307 27.0174 16.9308 27.1351L17.3676 30.1031ZM16.2726 30.397C16.538 30.2654 16.8804 30.1748 17.3676 30.1031L16.9308 27.1351C16.32 27.225 15.618 27.373 14.9395 27.7095L16.2726 30.397ZM17.7133 28.6224C17.2407 28.3444 16.8256 28.0778 16.4707 27.8275L14.7415 30.279C15.1749 30.5847 15.661 30.8957 16.192 31.2081L17.7133 28.6224ZM22.4239 30.9197C20.7251 30.215 19.0627 29.4163 17.7133 28.6224L16.192 31.2081C17.6939 32.0917 19.4885 32.9499 21.2744 33.6908L22.4239 30.9197ZM36.7557 15.3443C36.7965 15.0168 36.8466 14.8152 36.9052 14.6755L34.1383 13.5161C33.9271 14.02 33.834 14.53 33.7788 14.973L36.7557 15.3443ZM36.9275 16.2568C36.8435 15.9824 36.796 15.7619 36.7727 15.5962C36.7611 15.514 36.7563 15.4509 36.755 15.4058C36.7536 15.3597 36.7561 15.3406 36.7557 15.3443L33.7788 14.973C33.6978 15.6217 33.8282 16.3806 34.0586 17.134L36.9275 16.2568ZM37.6993 18.0593C37.3603 17.4235 37.0924 16.7963 36.9275 16.2568L34.0586 17.134C34.2922 17.8982 34.6441 18.7058 35.052 19.4708L37.6993 18.0593ZM38.7821 19.7548C38.4179 19.2835 38.0368 18.6924 37.6993 18.0593L35.052 19.4708C35.4602 20.2364 35.9308 20.9712 36.408 21.5889L38.7821 19.7548ZM39.005 20.0308C38.9343 19.9474 38.8598 19.8554 38.7821 19.7549L36.408 21.5889C36.5119 21.7234 36.6149 21.8508 36.7166 21.9707L39.005 20.0308ZM35.6254 18.2729C35.9664 19.3476 36.2258 20.3982 36.3852 21.2705L39.3364 20.7311C39.1523 19.7241 38.8609 18.5506 38.4849 17.3655L35.6254 18.2729ZM34.3097 15.0108C34.7997 15.9504 35.252 17.0963 35.6254 18.2729L38.4849 17.3655C38.0753 16.0749 37.5615 14.7584 36.9697 13.6236L34.3097 15.0108ZM34.2045 14.8133C34.2394 14.8775 34.2745 14.9433 34.3097 15.0108L36.9697 13.6236C36.9264 13.5405 36.8828 13.4587 36.839 13.3782L34.2045 14.8133ZM38.2723 21.1904C38.3393 21.5883 38.3861 21.9493 38.4117 22.2617L41.4017 22.017C41.3676 21.6008 41.3083 21.153 41.2307 20.6922L38.2723 21.1904ZM37.4102 17.7066C37.8059 18.9536 38.1025 20.1819 38.2723 21.1904L41.2307 20.6922C41.0349 19.5296 40.7028 18.1642 40.2697 16.7992L37.4102 17.7066ZM35.97 14.1449C36.5235 15.2064 37.0142 16.4588 37.4102 17.7066L40.2697 16.7992C39.8375 15.4374 39.2854 14.0145 38.63 12.7577L35.97 14.1449ZM35.6352 13.5402C35.7499 13.7347 35.8615 13.937 35.97 14.1449L38.63 12.7577C38.5001 12.5087 38.3633 12.2604 38.2192 12.0162L35.6352 13.5402ZM38.3235 10.877C37.5412 10.9869 36.8862 11.1639 36.3365 11.3994L37.5179 14.157C37.7764 14.0462 38.1654 13.9287 38.7408 13.8478L38.3235 10.877ZM41.3899 10.7906C40.2868 10.6754 39.122 10.7925 38.376 10.8706L38.6883 13.8543C39.4598 13.7735 40.3294 13.6962 41.0783 13.7744L41.3899 10.7906ZM44.2895 12.3163C43.693 11.2625 42.4764 10.9041 41.3899 10.7906L41.0783 13.7744C41.4673 13.815 41.6773 13.8838 41.7689 13.9259C41.8552 13.9656 41.7655 13.9473 41.6788 13.7941L44.2895 12.3163ZM44.8264 14.1275C44.7384 13.4761 44.5792 12.828 44.2895 12.3163L41.6788 13.7941C41.6787 13.794 41.708 13.8487 41.7467 13.9857C41.7839 14.1172 41.822 14.2969 41.8534 14.5291L44.8264 14.1275ZM43.0909 17.0952C43.4522 16.4735 43.9014 15.8591 44.3672 15.4213L42.3126 13.2353C41.5671 13.936 40.9485 14.811 40.4971 15.5879L43.0909 17.0952ZM42.4409 18.4665C42.5925 18.0436 42.8173 17.566 43.0909 17.0952L40.4971 15.5879C40.1458 16.1924 39.8386 16.8354 39.6168 17.4542L42.4409 18.4665ZM42.2332 19.4202C42.2244 19.2306 42.2846 18.9026 42.4409 18.4665L39.6168 17.4542C39.4165 18.013 39.2003 18.7821 39.2364 19.5594L42.2332 19.4202ZM42.3556 19.6517C42.3067 19.6134 42.2799 19.5777 42.2647 19.5495C42.2509 19.5238 42.2362 19.4851 42.2332 19.4203L39.2364 19.5594C39.285 20.6048 39.7922 21.4543 40.505 22.0129L42.3556 19.6517ZM42.703 19.8156C42.5345 19.7642 42.4241 19.7054 42.3556 19.6517L40.505 22.0129C40.9465 22.3589 41.4212 22.5611 41.8277 22.6851L42.703 19.8156ZM41.0014 23.5197C41.8372 23.3322 42.6367 22.9325 43.2672 22.3667L41.2635 20.134C41.0368 20.3374 40.7085 20.5108 40.3446 20.5925L41.0014 23.5197ZM39.8876 23.6393C40.2547 23.644 40.629 23.6033 41.0014 23.5197L40.3446 20.5925C40.1872 20.6278 40.0462 20.641 39.9259 20.6395L39.8876 23.6393ZM42.0358 16.6691C41.7689 17.1446 41.542 17.6327 41.3795 18.0861L44.2035 19.0984C44.3014 18.8254 44.4541 18.4899 44.6518 18.1377L42.0358 16.6691ZM44.493 19.8261C44.6375 19.1526 44.7599 18.3625 44.8372 17.5445L41.8505 17.2623C41.7834 17.9719 41.678 18.6456 41.5597 19.1968L44.493 19.8261ZM42.708 20.9775L42.7346 20.9828L43.3182 18.0401L43.2916 18.0349L42.708 20.9775ZM41.7992 20.6374C42.0566 20.8013 42.3658 20.9079 42.7005 20.976L43.2991 18.0364C43.2512 18.0266 43.2399 18.0209 43.2563 18.027C43.2647 18.0301 43.2821 18.0369 43.3068 18.0487C43.3306 18.0601 43.3665 18.0788 43.4106 18.1069L41.7992 20.6374ZM41.3795 18.0861C41.2144 18.5466 41.1111 18.9843 41.1051 19.3472L44.1047 19.3971C44.104 19.4388 44.1007 19.4598 44.1014 19.4546C44.1018 19.4517 44.1042 19.4355 44.111 19.405C44.1246 19.3437 44.1522 19.2416 44.2035 19.0984L41.3795 18.0861ZM46.4016 19.836C46.5294 19.1721 46.6345 18.4388 46.7042 17.6905L43.7171 17.4122C43.6561 18.0671 43.5644 18.704 43.4557 19.2692L46.4016 19.836ZM44.8781 18.0526L44.8271 18.056L45.0302 21.0491L45.0812 21.0457L44.8781 18.0526ZM46.7781 17.5859C45.9042 17.897 45.068 18.0394 44.8763 18.0527L45.0831 21.0456C45.599 21.0099 46.7064 20.7959 47.7843 20.4121L46.7781 17.5859ZM47.7784 17.1297C47.5411 17.2772 47.1989 17.4361 46.7781 17.5859L47.7843 20.4121C48.327 20.2189 48.8827 19.9756 49.3624 19.6774L47.7784 17.1297ZM47.9073 17.0935C47.9372 17.0388 47.9631 17.005 47.9744 16.9911C47.9864 16.9764 47.9896 16.9745 47.9793 16.9842C47.9576 17.0046 47.8969 17.0559 47.7784 17.1297L49.3624 19.6774C49.8343 19.384 50.2795 19.0087 50.54 18.5319L47.9073 17.0935ZM47.7269 17.3157C47.7926 17.4695 47.7932 17.5307 47.7917 17.5083C47.7909 17.4961 47.7893 17.4537 47.8009 17.3875C47.8122 17.3236 47.8393 17.2181 47.9073 17.0935L50.54 18.5319C50.9615 17.7603 50.791 16.8512 50.4854 16.1364L47.7269 17.3157ZM47.3378 16.7285C47.3349 16.7261 47.3995 16.7829 47.4946 16.9126C47.5833 17.0336 47.6668 17.1753 47.7269 17.3157L50.4854 16.1364C50.181 15.4245 49.688 14.7696 49.2201 14.3925L47.3378 16.7285ZM46.5108 16.3877C46.564 16.3861 46.6482 16.3905 46.7767 16.4331C46.9105 16.4775 47.1171 16.5715 47.4003 16.7762L49.1576 14.3448C48.1545 13.6198 47.2415 13.3632 46.4163 13.3892L46.5108 16.3877ZM45.9588 16.5701C46.2493 16.4251 46.4032 16.3911 46.5108 16.3877L46.4163 13.3892C45.696 13.4119 45.095 13.6482 44.6189 13.8859L45.9588 16.5701ZM46.7042 17.6905C46.7799 16.8773 46.817 16.0134 46.788 15.1761L43.7898 15.2799C43.8135 15.9646 43.7836 16.6982 43.7171 17.4122L46.7042 17.6905ZM23.933 37.3388C23.7309 37.4115 23.4643 37.4938 23.137 37.5791L23.8939 40.4821C24.286 40.3798 24.6423 40.2719 24.9492 40.1614L23.933 37.3388ZM22.9765 39.7604C23.3126 39.8767 23.5708 39.9887 23.752 40.0824L25.1302 37.4178C24.7949 37.2443 24.399 37.0781 23.9572 36.9253L22.9765 39.7604ZM21.0241 39.2752C21.7318 39.3931 22.4136 39.5657 22.9765 39.7604L23.9572 36.9253C23.2195 36.6701 22.373 36.4586 21.5171 36.316L21.0241 39.2752ZM19.0696 39.1189C19.6334 39.1031 20.3134 39.1568 21.0241 39.2752L21.5171 36.316C20.662 36.1735 19.7843 36.0977 18.9855 36.1201L19.0696 39.1189ZM18.1499 39.2473C18.1466 39.2489 18.1638 39.2404 18.208 39.227C18.2512 39.2138 18.3125 39.1983 18.394 39.183C18.5585 39.1522 18.7827 39.1269 19.0696 39.1189L18.9855 36.1201C18.198 36.1422 17.4371 36.2608 16.8481 36.5444L18.1499 39.2473ZM17.4151 39.7765C17.494 39.6436 17.6502 39.488 18.1499 39.2473L16.8482 36.5444C16.1836 36.8645 15.3719 37.3412 14.8352 38.2456L17.4151 39.7765ZM17.3275 39.991C17.3569 39.8864 17.3899 39.8191 17.4151 39.7765L14.8352 38.2456C14.6758 38.5142 14.5391 38.8239 14.4389 39.1812L17.3275 39.991ZM17.1427 38.222C16.7586 38.1994 16.4275 38.1603 16.1505 38.1101L15.6159 41.0621C16.0315 41.1374 16.4845 41.1884 16.9664 41.2168L17.1427 38.222ZM20.2435 38.102C19.1563 38.2272 18.0705 38.2766 17.1427 38.222L16.9664 41.2168C18.114 41.2844 19.3805 41.2212 20.5866 41.0823L20.2435 38.102ZM23.137 37.5791C22.3489 37.7846 21.3274 37.9772 20.2435 38.102L20.5866 41.0823C21.7934 40.9434 22.9545 40.727 23.8939 40.4821L23.137 37.5791ZM24.2125 40.6672C24.2373 40.758 24.2571 40.8605 24.2689 40.9741L27.2527 40.6625C27.2246 40.393 27.1757 40.1298 27.1064 39.8762L24.2125 40.6672ZM25.8125 41.8375C25.9675 41.7771 26.136 41.7066 26.3071 41.6247L25.0118 38.9187C24.9255 38.96 24.829 39.001 24.7236 39.0421L25.8125 41.8375ZM24.5144 42.2547C24.9751 42.1305 25.4177 41.9912 25.8125 41.8375L24.7236 39.0421C24.4573 39.1458 24.123 39.2531 23.7332 39.3582L24.5144 42.2547ZM25.833 40.3667C25.6228 40.1218 25.3483 39.8418 25.0049 39.5926L23.2427 42.0204C23.3416 42.0922 23.4467 42.1927 23.5568 42.3209L25.833 40.3667ZM26.8272 41.8455C26.5633 41.365 26.2323 40.8318 25.833 40.3667L23.5568 42.3209C23.7665 42.5652 23.983 42.8988 24.1976 43.2896L26.8272 41.8455ZM24.2689 40.9741C24.3072 41.3408 24.2494 41.7036 24.1312 41.9826L26.8937 43.1526C27.2205 42.3809 27.3407 41.5056 27.2527 40.6625L24.2689 40.9741ZM20.0641 40.3554C19.9842 40.4397 19.9077 40.5243 19.8347 40.6078L22.0939 42.5816C22.143 42.5254 22.1924 42.4709 22.242 42.4185L20.0641 40.3554ZM20.8007 42.9425C20.9861 42.9212 21.1704 42.8982 21.3532 42.8736L20.953 39.9004C20.789 39.9224 20.6237 39.9431 20.4576 39.9622L20.8007 42.9425ZM16.8563 43.0861C18.1412 43.1617 19.5205 43.0899 20.8007 42.9425L20.4576 39.9622C19.2963 40.0959 18.0977 40.154 17.0326 40.0913L16.8563 43.0861ZM15.599 42.9574C16.0185 43.021 16.4418 43.0617 16.8563 43.0861L17.0326 40.0913C16.6922 40.0712 16.3618 40.0387 16.0487 39.9913L15.599 42.9574ZM17.3651 41.6061C17.3426 41.4864 17.3243 41.3737 17.3096 41.2678L14.3382 41.6808C14.3597 41.8355 14.3857 41.9947 14.4164 42.1585L17.3651 41.6061ZM18.0413 43.8449C17.7282 43.16 17.5241 42.3112 17.3544 41.5543L14.427 42.2103C14.5911 42.9422 14.8518 44.0836 15.3129 45.0922L18.0413 43.8449ZM18.2516 44.4076C18.4244 44.4409 18.4704 44.5201 18.4053 44.451C18.3361 44.3777 18.2039 44.2006 18.0413 43.8449L15.3129 45.0922C15.7671 46.0857 16.495 47.1244 17.684 47.3535L18.2516 44.4076ZM18.6452 44.3949C18.5199 44.4092 18.4227 44.4138 18.3518 44.4133C18.2789 44.4128 18.2485 44.407 18.2516 44.4076L17.684 47.3535C18.1037 47.4343 18.5558 47.4248 18.9871 47.3753L18.6452 44.3949ZM18.6331 42.2854C18.0862 43.2065 17.5126 44.4372 17.332 45.6672L20.3002 46.1029C20.4002 45.4219 20.7603 44.5788 21.2127 43.817L18.6331 42.2854ZM19.8347 40.6078C19.4022 41.1028 18.9901 41.6842 18.6331 42.2854L21.2127 43.817C21.4906 43.3489 21.7984 42.9199 22.0939 42.5816L19.8347 40.6078ZM26.3951 46.3015C26.3356 45.9475 26.2615 45.6067 26.1832 45.2948L23.2736 46.0257C23.3354 46.2717 23.3921 46.5339 23.4366 46.7987L26.3951 46.3015ZM26.5217 48.0376C26.5486 47.4734 26.4906 46.8695 26.3951 46.3015L23.4366 46.7987C23.5106 47.2392 23.5384 47.6155 23.5251 47.8946L26.5217 48.0376ZM26.0945 49.624C26.3842 49.1643 26.4952 48.5926 26.5217 48.0376L23.5251 47.8946C23.5184 48.034 23.5031 48.112 23.4959 48.1409C23.4924 48.1546 23.4925 48.1509 23.4995 48.1333C23.5061 48.1166 23.5231 48.0775 23.5563 48.0248L26.0945 49.624ZM23.9756 50.7426C24.7487 50.6615 25.6259 50.3678 26.0945 49.624L23.5563 48.0248C23.632 47.9047 23.7109 47.8297 23.7613 47.7887C23.8135 47.7463 23.8513 47.7271 23.8623 47.7219C23.8826 47.7122 23.8289 47.7415 23.6625 47.759L23.9756 50.7426ZM21.8363 50.4866C22.3935 50.7117 23.2056 50.8234 23.9756 50.7426L23.6625 47.759C23.5106 47.7749 23.3462 47.7709 23.1973 47.7524C23.0378 47.7325 22.9567 47.7037 22.9601 47.7051L21.8363 50.4866ZM19.5948 48.5261C19.9739 49.2595 20.6425 49.9321 21.7642 50.4553L23.0322 47.7364C22.7156 47.5887 22.5329 47.4541 22.4289 47.3588C22.3292 47.2673 22.2843 47.196 22.2599 47.1486L19.5948 48.5261ZM19.3003 47.7529C19.3667 48.0077 19.4611 48.2675 19.5948 48.5261L22.2599 47.1486C22.2389 47.1081 22.2198 47.0597 22.2034 46.9964L19.3003 47.7529ZM22.3309 45.185C21.6723 45.4773 20.9831 45.7408 20.3239 45.937L21.1798 48.8123C21.9865 48.5722 22.7977 48.26 23.5477 47.9272L22.3309 45.185ZM23.9913 44.3538C23.4941 44.6344 22.9256 44.9211 22.3309 45.185L23.5478 47.9272C24.2274 47.6256 24.8819 47.2959 25.4655 46.9667L23.9913 44.3538ZM22.7883 46.2156C23.5399 45.8821 24.2512 45.5143 24.8457 45.1623L23.3174 42.5808C22.8298 42.8694 22.2232 43.1843 21.5715 43.4735L22.7883 46.2156ZM21.3791 46.7784C21.8517 46.6115 22.3272 46.4202 22.7883 46.2156L21.5715 43.4735C21.1739 43.6499 20.7713 43.8115 20.3802 43.9496L21.3791 46.7784ZM20.2432 43.2414C19.9232 43.7803 19.658 44.3325 19.4693 44.8531L22.2899 45.875C22.4065 45.5533 22.5863 45.1712 22.8227 44.773L20.2432 43.2414ZM21.2448 41.8398C20.8978 42.237 20.5508 42.7232 20.2432 43.2414L22.8227 44.773C23.0514 44.3879 23.2939 44.0541 23.5041 43.8135L21.2448 41.8398ZM22.2128 40.986C21.8987 41.168 21.5667 41.4714 21.2448 41.8398L23.5041 43.8135C23.6042 43.6989 23.68 43.6251 23.7269 43.5834C23.7502 43.5626 23.7632 43.5526 23.7655 43.5509C23.7697 43.5477 23.753 43.5608 23.7168 43.5818L22.2128 40.986ZM24.4123 41.5864C24.1898 41.3273 23.9462 41.1091 23.6777 40.9641L22.252 43.6037C22.206 43.5788 22.1722 43.5566 22.1506 43.5413C22.1283 43.5256 22.1138 43.5137 22.107 43.5078C22.0937 43.4964 22.1042 43.5036 22.1361 43.5406L24.4123 41.5864ZM25.4226 43.1994C25.1489 42.6535 24.8097 42.0493 24.4123 41.5864L22.1361 43.5406C22.2848 43.7139 22.4913 44.0464 22.7406 44.5436L25.4226 43.1994Z" fill="#F8F9FA" mask="url(#path-1-outside-1_50_9901)"/>
<path d="M19.6698 46.3544C19.6898 47.4479 19.9069 48.8684 21.9821 49.8277C22.9086 50.2156 24.9086 50.2587 25.5772 49.1976C26.4393 47.8292 25.4708 44.5732 25.0826 43.7477C24.4414 42.3842 23.5375 40.8055 22.5341 41.3053C21.4598 41.8404 19.6391 44.6818 19.6698 46.3544Z" fill="#FFA94D" stroke="#212529" stroke-width="1.6" stroke-linecap="round" stroke-linejoin="round"/>
<path d="M17.0524 36.9261C15.7844 37.5368 14.2994 38.5916 14.9333 41.945C15.2637 43.4207 15.9359 46.3241 17.7503 46.6736C20.09 47.1244 25.3733 44.3793 26.0139 43.4075C27.072 41.8023 26.8556 39.2629 25.4167 38.1555C23.8761 36.9698 18.9919 35.992 17.0524 36.9261Z" fill="#FFA94D" stroke="#212529" stroke-width="1.8" stroke-linecap="round" stroke-linejoin="round"/>
<path d="M16.9725 27.5669C15.1818 27.8305 12.958 28.5596 12.4873 32.9573C12.3437 34.9125 12.0883 38.7679 14.1939 39.9054C16.9092 41.3723 24.4451 40.0258 25.5973 39.0715C27.5006 37.4952 28.1818 34.2674 26.8219 32.3376C25.3658 30.2713 19.7115 27.1638 16.9725 27.5669Z" fill="#FFA94D" stroke="#212529" stroke-width="1.8" stroke-linecap="round" stroke-linejoin="round"/>
<path d="M44.6452 14.3599C45.6102 13.845 46.9565 13.343 48.8049 14.6885C49.5949 15.3089 50.6063 17.0347 50.005 18.1354C49.2295 19.5547 45.9139 20.2941 45.0039 20.357C43.5008 20.4608 41.6817 20.44 41.6297 19.3202C41.5741 18.1213 43.1693 15.1475 44.6452 14.3599Z" fill="#FFA94D" stroke="#212529" stroke-width="1.6" stroke-linecap="round" stroke-linejoin="round"/>
<path d="M34.2978 14.9165C34.472 13.5199 34.9979 11.776 38.3783 11.3067C39.8822 11.149 42.8483 10.8597 43.7586 12.4677C44.9323 14.5413 44.0165 20.4243 43.2998 21.3415C42.1161 22.8564 39.6404 23.4616 38.1318 22.4513C36.5164 21.3695 34.0314 17.0527 34.2978 14.9165Z" fill="#FFA94D" stroke="#212529" stroke-width="1.8" stroke-linecap="round" stroke-linejoin="round"/>
<path d="M23.2209 19.7034C22.6701 17.757 22.3959 15.156 26.6642 12.6637C28.5919 11.6225 32.4059 9.59779 34.5293 11.2241C37.2674 13.3212 39.3431 21.6207 38.8974 23.2323C38.1613 25.8941 35.1821 28.0658 32.5922 27.5624C29.8191 27.0234 24.0633 22.6804 23.2209 19.7034Z" fill="#FFA94D" stroke="#212529" stroke-width="1.8" stroke-linecap="round" stroke-linejoin="round"/>
<path d="M23.6099 15.3366C21.3582 14.617 18.3292 14.1886 15.2296 19.0101C13.9286 21.1913 11.3955 25.5082 13.2045 28.0298C15.5372 31.2815 27.3653 35.7104 29.6882 35.3457C32.0111 34.9811 35.0249 30.3834 35.0249 28.2512C35.0249 26.119 27.0538 16.4372 23.6099 15.3366Z" fill="#FFA94D" stroke="#212529" stroke-width="1.8" stroke-linecap="round" stroke-linejoin="round"/>
<g style="mix-blend-mode:soft-light" opacity="0.7">
<path d="M17.0283 20.2259C15.4544 22.7705 15.5904 24.6736 16.1363 24.9423C17.0283 25.2627 17.038 23.1315 17.8787 21.5244C18.9662 19.8705 20.9767 18.6359 20.6029 18.1835C20.2292 17.7312 18.0633 18.3124 17.0283 20.2259Z" fill="#F8F9FA"/>
</g>
<path d="M32.8968 24.7314C32.7607 26.0698 31.944 29.3727 29.7664 31.877" stroke="#212529" stroke-width="1.4" stroke-linecap="round" stroke-linejoin="round"/>
<g style="mix-blend-mode:multiply">
<path d="M14.2136 30.2266C16.4875 32.167 22.5644 34.5742 26.527 35.7903L26.2229 36.7025C26.2229 36.7025 25.7917 37.4889 25.4283 37.9289C24.9332 38.5282 24.2467 38.6787 24.2467 38.6787C24.9556 38.0538 25.108 37.8556 25.4283 36.5011C20.9614 35.0718 18.1472 33.8862 13.686 31.5381C13.8767 30.866 13.994 30.604 14.2136 30.2266Z" fill="#FFA94D"/>
</g>
<g style="mix-blend-mode:multiply">
<path d="M24.9226 46.797C24.6998 47.0616 22.6594 48.1027 21.6671 48.5902C21.1797 48.3116 20.8257 47.5689 20.7096 47.2323L24.6789 45.5088L24.9226 46.797Z" fill="#FFA94D"/>
</g>
<g style="mix-blend-mode:multiply">
<path d="M24.7169 41.5684C21.5245 42.5024 19.645 42.7464 16.1518 42.759L15.7292 41.2994C19.4349 41.6636 21.6101 41.4396 25.6741 40.1855C25.8781 41.3066 25.6794 41.9884 25.2817 42.8837C25.0113 43.1431 24.8791 43.222 24.6935 43.321C24.7849 42.546 24.7772 42.1764 24.7169 41.5684Z" fill="#FFA94D"/>
</g>
<g style="mix-blend-mode:multiply">
<path d="M34.2693 28.3572L33.2792 26.377C32.2819 29.5067 31.1363 31.9576 28.4521 34.2706L29.7497 34.5682C32.0834 32.8793 33.0312 31.584 34.2693 28.3572Z" fill="#FFA94D"/>
</g>
</svg>
