<svg width="60" height="61" viewBox="0 0 60 61" fill="none" xmlns="http://www.w3.org/2000/svg">
<mask id="path-1-outside-1_50_1631" maskUnits="userSpaceOnUse" x="10.2006" y="4.23755" width="40" height="53" fill="black">
<rect fill="white" x="10.2006" y="4.23755" width="40" height="53"/>
<path fill-rule="evenodd" clip-rule="evenodd" d="M29.6944 6.23755C28.125 6.23755 26.8528 7.50976 26.8528 9.07912V12.6346L26.8529 12.6629C25.2924 13.6199 24.2514 15.3415 24.2514 17.3063C24.2514 18.114 24.4273 18.8806 24.7429 19.5699L19.0697 32.0466H13.3439C12.7916 32.0466 12.3439 32.4943 12.3439 33.0466C12.3439 33.5988 12.7916 34.0466 13.3439 34.0466H18.1603L16.2769 38.1885C14.7962 38.7977 13.7538 40.2546 13.7538 41.9549C13.7538 42.413 13.8294 42.8534 13.9689 43.2643L12.2813 46.9759C12.1945 47.1666 12.1771 47.3817 12.2319 47.584L13.9986 54.0981C14.0983 54.4658 14.4187 54.7308 14.7986 54.7599C15.1784 54.7889 15.5354 54.5757 15.6899 54.2274L19.4842 45.6734C20.9054 45.0382 21.8957 43.6122 21.8957 41.9549C21.8957 41.513 21.8253 41.0876 21.6951 40.6892L24.6415 34.0466H29V36.261C29 36.8133 29.4477 37.261 30 37.261C30.5523 37.261 31 36.8133 31 36.261V34.0466H35.3585L44.3101 54.2274C44.4646 54.5757 44.8216 54.7889 45.2014 54.7599C45.5813 54.7308 45.9017 54.4658 46.0014 54.0981L47.7681 47.584C47.8229 47.3817 47.8055 47.1666 47.7187 46.9759L41.8397 34.0466H46.6561C47.2084 34.0466 47.6561 33.5988 47.6561 33.0466C47.6561 32.4943 47.2084 32.0466 46.6561 32.0466H40.9303L34.921 18.8308C35.0619 18.347 35.1374 17.8355 35.1374 17.3063C35.1374 15.3415 34.0964 13.6199 32.5358 12.6629L32.5359 12.6346V9.07912C32.5359 7.50976 31.2637 6.23755 29.6944 6.23755ZM20.5184 38.9025L22.6724 34.0466H20.1376L18.3759 37.921C19.1916 38.0314 19.9306 38.3834 20.5184 38.9025ZM15.7672 43.6581L17.7558 39.2848C17.7787 39.2843 17.8017 39.284 17.8247 39.284C18.6664 39.284 19.4171 39.6733 19.9067 40.2816L17.9817 44.6213C17.9298 44.6244 17.8774 44.6259 17.8247 44.6259C16.997 44.6259 16.2571 44.2493 15.7672 43.6581ZM15.1473 45.0215L14.0541 47.4258L15.0723 51.1804L17.3699 46.0007C16.5236 45.9067 15.7556 45.5532 15.1473 45.0215ZM25.8557 17.1226C25.9107 15.9538 26.4878 14.9216 27.3591 14.254C27.8722 14.9926 28.7268 15.4762 29.6944 15.4762C30.6619 15.4762 31.5165 14.9926 32.0297 14.254C32.763 14.8159 33.288 15.6362 33.4686 16.5788C33.2987 16.5485 33.1183 16.5666 32.9487 16.6413L30 17.9397L27.0513 16.6413C26.6003 16.4427 26.0734 16.6439 25.8694 17.0925L25.8557 17.1226ZM29.6944 13.6762C29.9054 13.6762 30.1019 13.6134 30.2659 13.5055C30.0795 13.4777 29.8886 13.4633 29.6944 13.4633C29.5002 13.4633 29.3093 13.4777 29.1228 13.5055C29.2869 13.6134 29.4833 13.6762 29.6944 13.6762ZM29.6944 11.8633C30.0506 11.8633 30.3988 11.8975 30.7359 11.9628V9.07912C30.7359 8.50388 30.2696 8.03755 29.6944 8.03755C29.1191 8.03755 28.6528 8.50388 28.6528 9.07912V11.9628C28.9899 11.8975 29.3382 11.8633 29.6944 11.8633ZM32.8602 18.6471L33.0789 19.1282C32.7059 19.8197 32.1272 20.3839 31.4246 20.7387L30.9846 19.7466L31.1283 19.4225L31.1352 19.4066L32.8602 18.6471ZM29.6944 22.7493L29.6527 22.7492L25.5287 32.0466H29V30.0418C29 29.4895 29.4477 29.0418 30 29.0418C30.5523 29.0418 31 29.4895 31 30.0418V32.0466H34.4713L30.331 22.7125C30.1222 22.7368 29.9097 22.7493 29.6944 22.7493ZM29.0154 19.7466L28.4801 20.9535C27.758 20.7132 27.1311 20.2645 26.6708 19.6786L27.1398 18.6471L28.8648 19.4066L28.8717 19.4225L29.0154 19.7466ZM27.829 22.4213C27.1238 22.164 26.4867 21.7651 25.9522 21.2589L21.047 32.0466H23.5595L27.829 22.4213ZM33.8494 20.8225C33.3625 21.3973 32.7584 21.8697 32.0741 22.2029L36.4405 32.0466H38.953L33.8494 20.8225ZM39.8624 34.0466L45.946 47.4258L44.9277 51.1804L37.3276 34.0466H39.8624Z"/>
</mask>
<path fill-rule="evenodd" clip-rule="evenodd" d="M29.6944 6.23755C28.125 6.23755 26.8528 7.50976 26.8528 9.07912V12.6346L26.8529 12.6629C25.2924 13.6199 24.2514 15.3415 24.2514 17.3063C24.2514 18.114 24.4273 18.8806 24.7429 19.5699L19.0697 32.0466H13.3439C12.7916 32.0466 12.3439 32.4943 12.3439 33.0466C12.3439 33.5988 12.7916 34.0466 13.3439 34.0466H18.1603L16.2769 38.1885C14.7962 38.7977 13.7538 40.2546 13.7538 41.9549C13.7538 42.413 13.8294 42.8534 13.9689 43.2643L12.2813 46.9759C12.1945 47.1666 12.1771 47.3817 12.2319 47.584L13.9986 54.0981C14.0983 54.4658 14.4187 54.7308 14.7986 54.7599C15.1784 54.7889 15.5354 54.5757 15.6899 54.2274L19.4842 45.6734C20.9054 45.0382 21.8957 43.6122 21.8957 41.9549C21.8957 41.513 21.8253 41.0876 21.6951 40.6892L24.6415 34.0466H29V36.261C29 36.8133 29.4477 37.261 30 37.261C30.5523 37.261 31 36.8133 31 36.261V34.0466H35.3585L44.3101 54.2274C44.4646 54.5757 44.8216 54.7889 45.2014 54.7599C45.5813 54.7308 45.9017 54.4658 46.0014 54.0981L47.7681 47.584C47.8229 47.3817 47.8055 47.1666 47.7187 46.9759L41.8397 34.0466H46.6561C47.2084 34.0466 47.6561 33.5988 47.6561 33.0466C47.6561 32.4943 47.2084 32.0466 46.6561 32.0466H40.9303L34.921 18.8308C35.0619 18.347 35.1374 17.8355 35.1374 17.3063C35.1374 15.3415 34.0964 13.6199 32.5358 12.6629L32.5359 12.6346V9.07912C32.5359 7.50976 31.2637 6.23755 29.6944 6.23755ZM20.5184 38.9025L22.6724 34.0466H20.1376L18.3759 37.921C19.1916 38.0314 19.9306 38.3834 20.5184 38.9025ZM15.7672 43.6581L17.7558 39.2848C17.7787 39.2843 17.8017 39.284 17.8247 39.284C18.6664 39.284 19.4171 39.6733 19.9067 40.2816L17.9817 44.6213C17.9298 44.6244 17.8774 44.6259 17.8247 44.6259C16.997 44.6259 16.2571 44.2493 15.7672 43.6581ZM15.1473 45.0215L14.0541 47.4258L15.0723 51.1804L17.3699 46.0007C16.5236 45.9067 15.7556 45.5532 15.1473 45.0215ZM25.8557 17.1226C25.9107 15.9538 26.4878 14.9216 27.3591 14.254C27.8722 14.9926 28.7268 15.4762 29.6944 15.4762C30.6619 15.4762 31.5165 14.9926 32.0297 14.254C32.763 14.8159 33.288 15.6362 33.4686 16.5788C33.2987 16.5485 33.1183 16.5666 32.9487 16.6413L30 17.9397L27.0513 16.6413C26.6003 16.4427 26.0734 16.6439 25.8694 17.0925L25.8557 17.1226ZM29.6944 13.6762C29.9054 13.6762 30.1019 13.6134 30.2659 13.5055C30.0795 13.4777 29.8886 13.4633 29.6944 13.4633C29.5002 13.4633 29.3093 13.4777 29.1228 13.5055C29.2869 13.6134 29.4833 13.6762 29.6944 13.6762ZM29.6944 11.8633C30.0506 11.8633 30.3988 11.8975 30.7359 11.9628V9.07912C30.7359 8.50388 30.2696 8.03755 29.6944 8.03755C29.1191 8.03755 28.6528 8.50388 28.6528 9.07912V11.9628C28.9899 11.8975 29.3382 11.8633 29.6944 11.8633ZM32.8602 18.6471L33.0789 19.1282C32.7059 19.8197 32.1272 20.3839 31.4246 20.7387L30.9846 19.7466L31.1283 19.4225L31.1352 19.4066L32.8602 18.6471ZM29.6944 22.7493L29.6527 22.7492L25.5287 32.0466H29V30.0418C29 29.4895 29.4477 29.0418 30 29.0418C30.5523 29.0418 31 29.4895 31 30.0418V32.0466H34.4713L30.331 22.7125C30.1222 22.7368 29.9097 22.7493 29.6944 22.7493ZM29.0154 19.7466L28.4801 20.9535C27.758 20.7132 27.1311 20.2645 26.6708 19.6786L27.1398 18.6471L28.8648 19.4066L28.8717 19.4225L29.0154 19.7466ZM27.829 22.4213C27.1238 22.164 26.4867 21.7651 25.9522 21.2589L21.047 32.0466H23.5595L27.829 22.4213ZM33.8494 20.8225C33.3625 21.3973 32.7584 21.8697 32.0741 22.2029L36.4405 32.0466H38.953L33.8494 20.8225ZM39.8624 34.0466L45.946 47.4258L44.9277 51.1804L37.3276 34.0466H39.8624Z" fill="#F8F9FA"/>
<path d="M26.8528 12.6346L25.3528 12.6346L25.3528 12.642L26.8528 12.6346ZM26.8529 12.6629L27.6371 13.9416C28.0841 13.6675 28.3555 13.1799 28.3529 12.6556L26.8529 12.6629ZM24.7429 19.5699L26.1084 20.1907C26.2883 19.795 26.2877 19.3406 26.1067 18.9454L24.7429 19.5699ZM19.0697 32.0466V33.5466C19.6578 33.5466 20.1917 33.2028 20.4352 32.6674L19.0697 32.0466ZM18.1603 34.0466L19.5258 34.6674C19.7369 34.2032 19.6976 33.6634 19.4215 33.2346C19.1454 32.8057 18.6703 32.5466 18.1603 32.5466V34.0466ZM16.2769 38.1885L16.8476 39.5757C17.2003 39.4306 17.4845 39.1566 17.6424 38.8094L16.2769 38.1885ZM13.9689 43.2643L15.3344 43.8852C15.4923 43.5379 15.512 43.1434 15.3893 42.7821L13.9689 43.2643ZM12.2813 46.9759L13.6467 47.5968L13.6467 47.5968L12.2813 46.9759ZM12.2319 47.584L13.6796 47.1913L13.6796 47.1913L12.2319 47.584ZM13.9986 54.0981L12.5509 54.4907L12.5509 54.4907L13.9986 54.0981ZM14.7986 54.7599L14.913 53.2642L14.9129 53.2642L14.7986 54.7599ZM15.6899 54.2274L17.0611 54.8356L17.0611 54.8356L15.6899 54.2274ZM19.4842 45.6734L18.8721 44.304C18.5337 44.4552 18.2633 44.7264 18.113 45.0652L19.4842 45.6734ZM21.6951 40.6892L20.3239 40.0809C20.1735 40.4199 20.1541 40.8026 20.2693 41.1551L21.6951 40.6892ZM24.6415 34.0466V32.5466C24.0484 32.5466 23.5109 32.8961 23.2704 33.4384L24.6415 34.0466ZM29 34.0466H30.5C30.5 33.2181 29.8284 32.5466 29 32.5466V34.0466ZM31 34.0466V32.5466C30.1716 32.5466 29.5 33.2181 29.5 34.0466H31ZM35.3585 34.0466L36.7296 33.4384C36.4891 32.8961 35.9517 32.5466 35.3585 32.5466V34.0466ZM44.3101 54.2274L42.939 54.8356L42.939 54.8356L44.3101 54.2274ZM45.2014 54.7599L45.0871 53.2642L45.0871 53.2642L45.2014 54.7599ZM46.0014 54.0981L47.4491 54.4907L47.4491 54.4907L46.0014 54.0981ZM47.7681 47.584L49.2158 47.9766L49.2158 47.9766L47.7681 47.584ZM47.7187 46.9759L46.3533 47.5968L46.3533 47.5968L47.7187 46.9759ZM41.8397 34.0466V32.5466C41.3297 32.5466 40.8546 32.8057 40.5785 33.2346C40.3024 33.6634 40.2631 34.2032 40.4743 34.6674L41.8397 34.0466ZM40.9303 32.0466L39.5648 32.6674C39.8083 33.2028 40.3422 33.5466 40.9303 33.5466V32.0466ZM34.921 18.8308L33.4808 18.4114C33.3805 18.7559 33.407 19.125 33.5556 19.4516L34.921 18.8308ZM32.5358 12.6629L31.0358 12.6556C31.0333 13.1799 31.3047 13.6675 31.7516 13.9416L32.5358 12.6629ZM32.5359 12.6346L34.0359 12.6419V12.6346H32.5359ZM22.6724 34.0466L24.0436 34.6548C24.2494 34.1908 24.2066 33.6542 23.9298 33.2287C23.6531 32.8032 23.18 32.5466 22.6724 32.5466V34.0466ZM20.5184 38.9025L19.5255 40.0268C19.8838 40.3432 20.3714 40.47 20.8384 40.368C21.3053 40.2661 21.6958 39.9477 21.8896 39.5107L20.5184 38.9025ZM20.1376 34.0466V32.5466C19.5495 32.5466 19.0156 32.8903 18.7722 33.4257L20.1376 34.0466ZM18.3759 37.921L17.0105 37.3001C16.8141 37.7319 16.8336 38.2311 17.063 38.6463C17.2924 39.0616 17.7047 39.3438 18.1747 39.4074L18.3759 37.921ZM15.7672 43.6581L14.4017 43.0373C14.164 43.5602 14.2457 44.173 14.6123 44.6153L15.7672 43.6581ZM17.7558 39.2848L17.7178 37.7853C17.1436 37.7998 16.6281 38.141 16.3903 38.664L17.7558 39.2848ZM19.9067 40.2816L21.2779 40.8898C21.5056 40.3764 21.4274 39.7788 21.0753 39.3412L19.9067 40.2816ZM17.9817 44.6213L18.0685 46.1188C18.6294 46.0863 19.1251 45.7431 19.3529 45.2295L17.9817 44.6213ZM14.0541 47.4258L12.6886 46.8049C12.544 47.1228 12.5149 47.4813 12.6064 47.8184L14.0541 47.4258ZM15.1473 45.0215L16.1343 43.892C15.7772 43.58 15.2937 43.4552 14.8303 43.5554C14.3668 43.6556 13.9781 43.969 13.7818 44.4007L15.1473 45.0215ZM15.0723 51.1804L13.6246 51.573C13.7908 52.1858 14.3248 52.6276 14.9579 52.6761C15.591 52.7245 16.186 52.369 16.4435 51.7886L15.0723 51.1804ZM17.3699 46.0007L18.741 46.609C18.9349 46.1718 18.9088 45.6684 18.6706 45.2537C18.4325 44.8391 18.0109 44.5628 17.5356 44.5099L17.3699 46.0007ZM27.3591 14.254L28.591 13.3982C28.357 13.0615 27.9955 12.8352 27.5905 12.772C27.1854 12.7087 26.7721 12.814 26.4467 13.0634L27.3591 14.254ZM25.8557 17.1226L24.3573 17.052C24.3235 17.7705 24.8045 18.4119 25.5037 18.5807C26.2029 18.7495 26.9235 18.3982 27.2212 17.7434L25.8557 17.1226ZM32.0297 14.254L32.942 13.0633C32.6166 12.814 32.2033 12.7087 31.7982 12.7719C31.3932 12.8352 31.0317 13.0615 30.7978 13.3982L32.0297 14.254ZM33.4686 16.5788L33.2053 18.0555C33.6914 18.1422 34.1891 17.9841 34.5361 17.6326C34.883 17.2812 35.0348 16.7815 34.9418 16.2965L33.4686 16.5788ZM32.9487 16.6413L32.3442 15.2685L32.3442 15.2685L32.9487 16.6413ZM30 17.9397L29.3955 19.3125C29.7807 19.482 30.2193 19.482 30.6045 19.3125L30 17.9397ZM27.0513 16.6413L26.4469 18.0142L26.4469 18.0142L27.0513 16.6413ZM25.8694 17.0925L24.5039 16.4716L24.5039 16.4716L25.8694 17.0925ZM30.2659 13.5055L31.0902 14.7588C31.6098 14.417 31.8646 13.7901 31.7308 13.1828C31.597 12.5754 31.1023 12.1136 30.4871 12.0219L30.2659 13.5055ZM29.1228 13.5055L28.9016 12.0219C28.2865 12.1136 27.7917 12.5754 27.6579 13.1828C27.5241 13.7901 27.779 14.4171 28.2986 14.7588L29.1228 13.5055ZM30.7359 11.9628L30.4506 13.4354C30.8902 13.5206 31.3449 13.405 31.6904 13.12C32.0359 12.8351 32.2359 12.4107 32.2359 11.9628H30.7359ZM28.6528 11.9628H27.1528C27.1528 12.4107 27.3529 12.8351 27.6983 13.12C28.0438 13.405 28.4985 13.5207 28.9382 13.4355L28.6528 11.9628ZM33.0789 19.1282L34.3991 19.8403C34.6218 19.4275 34.6386 18.9343 34.4444 18.5073L33.0789 19.1282ZM32.8602 18.6471L34.2256 18.0262C33.8856 17.2785 33.0075 16.9432 32.2557 17.2743L32.8602 18.6471ZM31.4246 20.7387L30.0535 21.3469C30.2201 21.7225 30.5335 22.0133 30.9204 22.1514C31.3074 22.2896 31.7341 22.2629 32.1009 22.0776L31.4246 20.7387ZM30.9846 19.7466L29.6134 19.1384C29.4416 19.5257 29.4416 19.9676 29.6134 20.3548L30.9846 19.7466ZM31.1283 19.4225L32.4995 20.0307C32.5014 20.0263 32.5034 20.0219 32.5053 20.0175L31.1283 19.4225ZM31.1352 19.4066L30.5308 18.0337C30.1844 18.1863 29.9084 18.4641 29.7583 18.8116L31.1352 19.4066ZM29.6527 22.7492L29.6584 21.2492C29.0631 21.2469 28.5229 21.5969 28.2816 22.141L29.6527 22.7492ZM29.6944 22.7493L29.6888 24.2493H29.6944V22.7493ZM25.5287 32.0466L24.1575 31.4384C23.9517 31.9023 23.9945 32.4389 24.2712 32.8644C24.548 33.2899 25.0211 33.5466 25.5287 33.5466V32.0466ZM29 32.0466V33.5466C29.8284 33.5466 30.5 32.875 30.5 32.0466H29ZM31 32.0466H29.5C29.5 32.875 30.1716 33.5466 31 33.5466V32.0466ZM34.4713 32.0466V33.5466C34.9789 33.5466 35.452 33.2899 35.7288 32.8644C36.0055 32.4389 36.0483 31.9023 35.8425 31.4384L34.4713 32.0466ZM30.331 22.7125L31.7022 22.1043C31.4358 21.5039 30.8099 21.1466 30.1574 21.2226L30.331 22.7125ZM28.4801 20.9535L28.0065 22.3768C28.7395 22.6207 29.538 22.268 29.8512 21.5617L28.4801 20.9535ZM29.0154 19.7466L30.3866 20.3548C30.5584 19.9676 30.5584 19.5257 30.3866 19.1384L29.0154 19.7466ZM26.6708 19.6786L25.3053 19.0577C25.0734 19.5678 25.1451 20.1647 25.4913 20.6053L26.6708 19.6786ZM27.1398 18.6471L27.7443 17.2743C26.9925 16.9432 26.1144 17.2785 25.7744 18.0262L27.1398 18.6471ZM28.8648 19.4066L30.2417 18.8116C30.0916 18.4641 29.8157 18.1863 29.4692 18.0337L28.8648 19.4066ZM28.8717 19.4225L27.4947 20.0175C27.4966 20.0219 27.4986 20.0263 27.5005 20.0307L28.8717 19.4225ZM25.9522 21.2589L26.9837 20.1698C26.6317 19.8365 26.1404 19.6938 25.6647 19.7867C25.1889 19.8796 24.7874 20.1967 24.5868 20.638L25.9522 21.2589ZM27.829 22.4213L29.2002 23.0295C29.3687 22.6497 29.3721 22.2171 29.2096 21.8347C29.0471 21.4524 28.7334 21.1545 28.3431 21.0121L27.829 22.4213ZM21.047 32.0466L19.6816 31.4257C19.4705 31.89 19.5097 32.4297 19.7858 32.8586C20.0619 33.2874 20.537 33.5466 21.047 33.5466V32.0466ZM23.5595 32.0466V33.5466C24.1527 33.5466 24.6902 33.197 24.9307 32.6548L23.5595 32.0466ZM32.0741 22.2029L31.4175 20.8543C30.6913 21.2078 30.3755 22.0729 30.703 22.8111L32.0741 22.2029ZM33.8494 20.8225L35.2148 20.2016C35.0021 19.7339 34.5647 19.4075 34.0558 19.3368C33.5468 19.2661 33.037 19.4609 32.7048 19.853L33.8494 20.8225ZM36.4405 32.0466L35.0693 32.6548C35.3098 33.197 35.8473 33.5466 36.4405 33.5466V32.0466ZM38.953 32.0466V33.5466C39.463 33.5466 39.9381 33.2874 40.2142 32.8586C40.4903 32.4297 40.5296 31.89 40.3184 31.4257L38.953 32.0466ZM45.946 47.4258L47.3937 47.8184C47.4851 47.4813 47.456 47.1228 47.3114 46.8049L45.946 47.4258ZM39.8624 34.0466L41.2278 33.4257C40.9844 32.8903 40.4505 32.5466 39.8624 32.5466V34.0466ZM44.9277 51.1804L43.5565 51.7886C43.814 52.369 44.409 52.7245 45.0421 52.6761C45.6752 52.6276 46.2092 52.1858 46.3754 51.573L44.9277 51.1804ZM37.3276 34.0466V32.5466C36.82 32.5466 36.3469 32.8032 36.0702 33.2287C35.7934 33.6542 35.7506 34.1908 35.9564 34.6548L37.3276 34.0466ZM28.3528 9.07912C28.3528 8.33819 28.9534 7.73755 29.6944 7.73755V4.73755C27.2966 4.73755 25.3528 6.68134 25.3528 9.07912H28.3528ZM28.3528 12.6346V9.07912H25.3528V12.6346H28.3528ZM28.3529 12.6556L28.3528 12.6273L25.3528 12.642L25.353 12.6703L28.3529 12.6556ZM25.7514 17.3063C25.7514 15.8847 26.5027 14.6373 27.6371 13.9416L26.0688 11.3842C24.0821 12.6025 22.7514 14.7984 22.7514 17.3063H25.7514ZM26.1067 18.9454C25.879 18.4481 25.7514 17.8942 25.7514 17.3063H22.7514C22.7514 18.3338 22.9755 19.313 23.3791 20.1943L26.1067 18.9454ZM20.4352 32.6674L26.1084 20.1907L23.3774 18.949L17.7042 31.4257L20.4352 32.6674ZM13.3439 33.5466H19.0697V30.5466H13.3439V33.5466ZM13.8439 33.0466C13.8439 33.3227 13.62 33.5466 13.3439 33.5466V30.5466C11.9631 30.5466 10.8439 31.6659 10.8439 33.0466H13.8439ZM13.3439 32.5466C13.62 32.5466 13.8439 32.7704 13.8439 33.0466H10.8439C10.8439 34.4273 11.9631 35.5466 13.3439 35.5466V32.5466ZM18.1603 32.5466H13.3439V35.5466H18.1603V32.5466ZM17.6424 38.8094L19.5258 34.6674L16.7948 33.4257L14.9114 37.5677L17.6424 38.8094ZM15.2538 41.9549C15.2538 40.8834 15.9097 39.9616 16.8476 39.5757L15.7062 36.8013C13.6828 37.6338 12.2538 39.6257 12.2538 41.9549H15.2538ZM15.3893 42.7821C15.3019 42.5245 15.2538 42.2469 15.2538 41.9549H12.2538C12.2538 42.5791 12.357 43.1823 12.5486 43.7465L15.3893 42.7821ZM13.6467 47.5968L15.3344 43.8852L12.6035 42.6434L10.9158 46.355L13.6467 47.5968ZM13.6796 47.1913C13.7162 47.3262 13.7046 47.4696 13.6467 47.5968L10.9158 46.355C10.6845 46.8637 10.638 47.4372 10.7842 47.9766L13.6796 47.1913ZM15.4463 53.7055L13.6796 47.1913L10.7842 47.9766L12.5509 54.4907L15.4463 53.7055ZM14.9129 53.2642C15.1662 53.2836 15.3798 53.4603 15.4463 53.7054L12.5509 54.4907C12.8168 55.4712 13.6712 56.178 14.6842 56.2555L14.9129 53.2642ZM14.3187 53.6192C14.4217 53.3871 14.6597 53.2449 14.913 53.2642L14.6842 56.2555C15.6971 56.333 16.6491 55.7643 17.0611 54.8356L14.3187 53.6192ZM18.113 45.0652L14.3187 53.6192L17.0611 54.8356L20.8554 46.2816L18.113 45.0652ZM20.3957 41.9549C20.3957 42.9992 19.7729 43.9014 18.8721 44.304L20.0963 47.0428C22.0379 46.175 23.3957 44.2252 23.3957 41.9549H20.3957ZM20.2693 41.1551C20.3509 41.405 20.3957 41.6732 20.3957 41.9549H23.3957C23.3957 41.3528 23.2996 40.7702 23.1209 40.2232L20.2693 41.1551ZM23.2704 33.4384L20.3239 40.0809L23.0662 41.2974L26.0127 34.6548L23.2704 33.4384ZM29 32.5466H24.6415V35.5466H29V32.5466ZM30.5 36.261V34.0466H27.5V36.261H30.5ZM30 35.761C30.2761 35.761 30.5 35.9848 30.5 36.261H27.5C27.5 37.6417 28.6193 38.761 30 38.761V35.761ZM29.5 36.261C29.5 35.9848 29.7239 35.761 30 35.761V38.761C31.3807 38.761 32.5 37.6417 32.5 36.261H29.5ZM29.5 34.0466V36.261H32.5V34.0466H29.5ZM35.3585 32.5466H31V35.5466H35.3585V32.5466ZM45.6813 53.6192L36.7296 33.4384L33.9873 34.6548L42.939 54.8356L45.6813 53.6192ZM45.0871 53.2642C45.3403 53.2449 45.5783 53.3871 45.6813 53.6192L42.939 54.8356C43.3509 55.7643 44.3029 56.333 45.3158 56.2555L45.0871 53.2642ZM44.5537 53.7054C44.6202 53.4603 44.8338 53.2836 45.0871 53.2642L45.3158 56.2555C46.3288 56.178 47.1832 55.4712 47.4491 54.4907L44.5537 53.7054ZM46.3204 47.1913L44.5537 53.7055L47.4491 54.4907L49.2158 47.9766L46.3204 47.1913ZM46.3533 47.5968C46.2954 47.4696 46.2838 47.3262 46.3204 47.1914L49.2158 47.9766C49.362 47.4372 49.3155 46.8637 49.0842 46.355L46.3533 47.5968ZM40.4743 34.6674L46.3533 47.5968L49.0842 46.355L43.2052 33.4257L40.4743 34.6674ZM46.6561 32.5466H41.8397V35.5466H46.6561V32.5466ZM46.1561 33.0466C46.1561 32.7704 46.38 32.5466 46.6561 32.5466V35.5466C48.0369 35.5466 49.1561 34.4273 49.1561 33.0466H46.1561ZM46.6561 33.5466C46.38 33.5466 46.1561 33.3227 46.1561 33.0466H49.1561C49.1561 31.6659 48.0369 30.5466 46.6561 30.5466V33.5466ZM40.9303 33.5466H46.6561V30.5466H40.9303V33.5466ZM33.5556 19.4516L39.5648 32.6674L42.2958 31.4257L36.2865 18.2099L33.5556 19.4516ZM33.6374 17.3063C33.6374 17.6921 33.5824 18.0625 33.4808 18.4114L36.3612 19.2501C36.5413 18.6315 36.6374 17.9788 36.6374 17.3063H33.6374ZM31.7516 13.9416C32.8861 14.6373 33.6374 15.8847 33.6374 17.3063H36.6374C36.6374 14.7983 35.3067 12.6025 33.3199 11.3842L31.7516 13.9416ZM31.036 12.6274L31.0358 12.6556L34.0358 12.6702L34.0359 12.6419L31.036 12.6274ZM31.0359 9.07912V12.6346H34.0359V9.07912H31.0359ZM29.6944 7.73755C30.4353 7.73755 31.0359 8.33819 31.0359 9.07912H34.0359C34.0359 6.68134 32.0921 4.73755 29.6944 4.73755V7.73755ZM21.3012 33.4384L19.1473 38.2943L21.8896 39.5107L24.0436 34.6548L21.3012 33.4384ZM20.1376 35.5466H22.6724V32.5466H20.1376V35.5466ZM19.7414 38.5418L21.5031 34.6674L18.7722 33.4257L17.0105 37.3001L19.7414 38.5418ZM18.1747 39.4074C18.6873 39.4768 19.1529 39.6978 19.5255 40.0268L21.5114 37.7782C20.7083 37.0689 19.6959 36.5859 18.5771 36.4345L18.1747 39.4074ZM17.1327 44.279L19.1212 39.9057L16.3903 38.664L14.4017 43.0373L17.1327 44.279ZM17.8247 37.784C17.7889 37.784 17.7533 37.7844 17.7178 37.7853L17.7937 40.7844C17.8041 40.7841 17.8144 40.784 17.8247 40.784V37.784ZM21.0753 39.3412C20.3132 38.3942 19.1397 37.784 17.8247 37.784V40.784C18.1931 40.784 18.521 40.9523 18.7381 41.222L21.0753 39.3412ZM18.5355 39.6734L16.6106 44.0131L19.3529 45.2295L21.2779 40.8898L18.5355 39.6734ZM17.8247 46.1259C17.9064 46.1259 17.9877 46.1235 18.0685 46.1188L17.895 43.1239C17.8719 43.1252 17.8485 43.1259 17.8247 43.1259V46.1259ZM14.6123 44.6153C15.3749 45.5356 16.5316 46.1259 17.8247 46.1259V43.1259C17.4624 43.1259 17.1393 42.9631 16.9222 42.701L14.6123 44.6153ZM15.4195 48.0466L16.5127 45.6424L13.7818 44.4007L12.6886 46.8049L15.4195 48.0466ZM16.52 50.7878L15.5018 47.0331L12.6064 47.8184L13.6246 51.573L16.52 50.7878ZM15.9987 45.3925L13.7012 50.5722L16.4435 51.7886L18.741 46.609L15.9987 45.3925ZM17.5356 44.5099C17.0034 44.4508 16.5197 44.2289 16.1343 43.892L14.1603 46.1511C14.9915 46.8774 16.0438 47.3626 17.2041 47.4916L17.5356 44.5099ZM26.4467 13.0634C25.2388 13.989 24.434 15.4244 24.3573 17.052L27.354 17.1931C27.3874 16.4832 27.7369 15.8542 28.2714 15.4447L26.4467 13.0634ZM29.6944 13.9762C29.2389 13.9762 28.8358 13.7506 28.591 13.3982L26.1272 15.1098C26.9087 16.2347 28.2148 16.9762 29.6944 16.9762V13.9762ZM30.7978 13.3982C30.553 13.7506 30.1499 13.9762 29.6944 13.9762V16.9762C31.174 16.9762 32.4801 16.2347 33.2616 15.1098L30.7978 13.3982ZM34.9418 16.2965C34.69 14.982 33.9588 13.8424 32.942 13.0633L31.1173 15.4446C31.5673 15.7894 31.8861 16.2903 31.9954 16.8611L34.9418 16.2965ZM33.5531 18.0142C33.4419 18.0632 33.3194 18.0758 33.2053 18.0555L33.732 15.1021C33.2781 15.0211 32.7948 15.0701 32.3442 15.2685L33.5531 18.0142ZM30.6045 19.3125L33.5531 18.0142L32.3442 15.2685L29.3955 16.5668L30.6045 19.3125ZM26.4469 18.0142L29.3955 19.3125L30.6045 16.5668L27.6558 15.2685L26.4469 18.0142ZM27.2348 17.7134C27.0988 18.0125 26.7476 18.1466 26.4469 18.0142L27.6558 15.2685C26.4529 14.7389 25.0479 15.2752 24.5039 16.4716L27.2348 17.7134ZM27.2212 17.7434L27.2348 17.7134L24.5039 16.4716L24.4902 16.5017L27.2212 17.7434ZM29.4417 12.2522C29.5149 12.2041 29.6036 12.1762 29.6944 12.1762V15.1762C30.2072 15.1762 30.6888 15.0227 31.0902 14.7588L29.4417 12.2522ZM29.6944 14.9633C29.8143 14.9633 29.9312 14.9722 30.0447 14.9891L30.4871 12.0219C30.2277 11.9832 29.9629 11.9633 29.6944 11.9633V14.9633ZM29.344 14.9891C29.4575 14.9722 29.5744 14.9633 29.6944 14.9633V11.9633C29.4259 11.9633 29.1611 11.9832 28.9016 12.0219L29.344 14.9891ZM29.6944 12.1762C29.7851 12.1762 29.8739 12.2041 29.947 12.2522L28.2986 14.7588C28.6999 15.0227 29.1815 15.1762 29.6944 15.1762V12.1762ZM31.0213 10.4902C30.5906 10.4068 30.1469 10.3633 29.6944 10.3633V13.3633C29.9543 13.3633 30.207 13.3882 30.4506 13.4354L31.0213 10.4902ZM29.2359 9.07912V11.9628H32.2359V9.07912H29.2359ZM29.6944 9.53755C29.4412 9.53755 29.2359 9.3323 29.2359 9.07912H32.2359C32.2359 7.67545 31.098 6.53755 29.6944 6.53755V9.53755ZM30.1528 9.07912C30.1528 9.3323 29.9475 9.53755 29.6944 9.53755V6.53755C28.2907 6.53755 27.1528 7.67545 27.1528 9.07912H30.1528ZM30.1528 11.9628V9.07912H27.1528V11.9628H30.1528ZM29.6944 10.3633C29.2419 10.3633 28.7981 10.4068 28.3674 10.4902L28.9382 13.4355C29.1818 13.3882 29.4344 13.3633 29.6944 13.3633V10.3633ZM34.4444 18.5073L34.2256 18.0262L31.4947 19.268L31.7135 19.7491L34.4444 18.5073ZM32.1009 22.0776C33.0775 21.5843 33.8808 20.8012 34.3991 19.8403L31.7588 18.4161C31.531 18.8382 31.1768 19.1834 30.7484 19.3998L32.1009 22.0776ZM29.6134 20.3548L30.0535 21.3469L32.7958 20.1305L32.3557 19.1384L29.6134 20.3548ZM29.7572 18.8143L29.6134 19.1384L32.3557 20.3548L32.4995 20.0307L29.7572 18.8143ZM29.7583 18.8116L29.7514 18.8275L32.5053 20.0175L32.5122 20.0016L29.7583 18.8116ZM32.2557 17.2743L30.5308 18.0337L31.7397 20.7794L33.4646 20.0199L32.2557 17.2743ZM29.6471 24.2492L29.6888 24.2493L29.7 21.2493L29.6584 21.2492L29.6471 24.2492ZM26.8998 32.6548L31.0239 23.3574L28.2816 22.141L24.1575 31.4384L26.8998 32.6548ZM29 30.5466H25.5287V33.5466H29V30.5466ZM27.5 30.0418V32.0466H30.5V30.0418H27.5ZM30 27.5418C28.6193 27.5418 27.5 28.6611 27.5 30.0418H30.5C30.5 30.3179 30.2761 30.5418 30 30.5418V27.5418ZM32.5 30.0418C32.5 28.6611 31.3807 27.5418 30 27.5418V30.5418C29.7239 30.5418 29.5 30.3179 29.5 30.0418H32.5ZM32.5 32.0466V30.0418H29.5V32.0466H32.5ZM34.4713 30.5466H31V33.5466H34.4713V30.5466ZM28.9598 23.3207L33.1002 32.6548L35.8425 31.4384L31.7022 22.1043L28.9598 23.3207ZM29.6944 24.2493C29.9679 24.2493 30.2383 24.2334 30.5046 24.2024L30.1574 21.2226C30.0061 21.2402 29.8516 21.2493 29.6944 21.2493V24.2493ZM29.8512 21.5617L30.3866 20.3548L27.6443 19.1384L27.1089 20.3453L29.8512 21.5617ZM25.4913 20.6053C26.1296 21.4178 27.0001 22.0419 28.0065 22.3768L28.9537 19.5303C28.5158 19.3845 28.1325 19.1111 27.8503 18.7519L25.4913 20.6053ZM25.7744 18.0262L25.3053 19.0577L28.0363 20.2995L28.5053 19.268L25.7744 18.0262ZM29.4692 18.0337L27.7443 17.2743L26.5354 20.0199L28.2603 20.7794L29.4692 18.0337ZM30.2486 18.8275L30.2417 18.8116L27.4878 20.0016L27.4947 20.0175L30.2486 18.8275ZM30.3866 19.1384L30.2428 18.8143L27.5005 20.0307L27.6443 20.3548L30.3866 19.1384ZM24.9208 22.348C25.6014 22.9926 26.4138 23.5017 27.315 23.8305L28.3431 21.0121C27.8338 20.8263 27.372 20.5376 26.9837 20.1698L24.9208 22.348ZM22.4125 32.6674L27.3177 21.8798L24.5868 20.638L19.6816 31.4257L22.4125 32.6674ZM23.5595 30.5466H21.047V33.5466H23.5595V30.5466ZM26.4579 21.8131L22.1884 31.4384L24.9307 32.6548L29.2002 23.0295L26.4579 21.8131ZM32.7308 23.5516C33.6042 23.1263 34.3739 22.524 34.9939 21.7921L32.7048 19.853C32.351 20.2706 31.9126 20.6132 31.4175 20.8543L32.7308 23.5516ZM37.8116 31.4384L33.4453 21.5947L30.703 22.8111L35.0693 32.6548L37.8116 31.4384ZM38.953 30.5466H36.4405V33.5466H38.953V30.5466ZM32.4839 21.4434L37.5875 32.6674L40.3184 31.4257L35.2148 20.2016L32.4839 21.4434ZM47.3114 46.8049L41.2278 33.4257L38.4969 34.6674L44.5805 48.0466L47.3114 46.8049ZM46.3754 51.573L47.3937 47.8184L44.4982 47.0331L43.48 50.7878L46.3754 51.573ZM35.9564 34.6548L43.5565 51.7886L46.2988 50.5722L38.6988 33.4384L35.9564 34.6548ZM39.8624 32.5466H37.3276V35.5466H39.8624V32.5466Z" fill="#F8F9FA" mask="url(#path-1-outside-1_50_1631)"/>
<path d="M13.3439 33.0256H46.6562" stroke="#212529" stroke-width="2" stroke-linecap="round" stroke-linejoin="round"/>
<path d="M30 30.0209V36.2401" stroke="#212529" stroke-width="2" stroke-linecap="round" stroke-linejoin="round"/>
<rect x="27.7528" y="7.11658" width="3.88314" height="7.43866" rx="1.94157" fill="#FFD43B" stroke="#212529" stroke-width="1.8" stroke-linecap="round" stroke-linejoin="round"/>
<path d="M30.3056 19.0367L26.6886 17.4441L13.1005 47.3275L14.8672 53.8416L30.3056 19.0367Z" fill="#1C7ED6" stroke="#212529" stroke-width="1.6" stroke-linecap="round" stroke-linejoin="round"/>
<g style="mix-blend-mode:multiply">
<path d="M28.0521 22.0862L26.0228 20.8461C25.865 21.1317 25.5854 21.748 25.7297 21.9283C25.874 22.1087 27.0224 22.725 27.5786 23.0106L28.0521 22.0862Z" fill="#DEE2E6"/>
</g>
<g style="mix-blend-mode:multiply">
<path d="M17.7067 45.5144L15.076 44.3953C14.9383 44.7626 14.7139 45.5446 14.9171 45.7338C15.1009 46.135 16.5744 46.663 17.3057 46.6968L17.7067 45.5144Z" fill="#DEE2E6"/>
</g>
<path d="M29.6944 19.0367L33.3114 17.4441L46.8995 47.3275L45.1328 53.8416L29.6944 19.0367Z" fill="#1C7ED6" stroke="#212529" stroke-width="1.6" stroke-linecap="round" stroke-linejoin="round"/>
<g style="mix-blend-mode:multiply">
<path d="M33.6091 20.4071L31.57 22.0408C31.7631 22.317 32.207 22.8492 32.4368 22.769C32.6667 22.6887 33.742 21.7308 34.2509 21.2619L33.6091 20.4071Z" fill="#DEE2E6"/>
</g>
<circle cx="29.6944" cy="17.2853" r="4.64301" fill="#1C7ED6" stroke="#212529" stroke-width="1.6" stroke-linecap="round" stroke-linejoin="round"/>
<circle cx="29.6944" cy="17.2853" r="1.32109" fill="#212529"/>
<circle cx="17.8247" cy="41.9339" r="3.37096" fill="#CED4DA" stroke="#212529" stroke-width="1.4" stroke-linecap="round" stroke-linejoin="round"/>
<circle cx="17.8246" cy="41.934" r="0.95915" fill="#212529"/>
</svg>
