<svg width="60" height="60" viewBox="0 0 60 60" fill="none" xmlns="http://www.w3.org/2000/svg">
<mask id="path-1-outside-1_50_6931" maskUnits="userSpaceOnUse" x="8.29016" y="5.7959" width="41" height="50" fill="black">
<rect fill="white" x="8.29016" y="5.7959" width="41" height="50"/>
<path fill-rule="evenodd" clip-rule="evenodd" d="M20.8006 7.7959C20.5836 7.7959 20.3798 7.90022 20.2529 8.07626C20.1261 8.25231 20.0915 8.47862 20.1602 8.68449C20.6092 10.0316 20.9109 11.2848 20.8099 12.4466C20.7122 13.5694 20.2339 14.6554 19.0048 15.6797C18.7491 15.8927 18.6869 16.2603 18.8581 16.5457L22.7983 23.1127C20.8355 29.9003 17.1161 37.1497 10.4159 46.53C10.3096 46.6788 10.2683 46.8643 10.3012 47.0441C10.3342 47.224 10.4387 47.3828 10.5908 47.4842C11.8968 48.3549 13.4572 49.1284 15.2266 49.7827C15.1268 49.9389 15.0313 50.0918 14.959 50.2087C14.9192 50.273 14.8862 50.3268 14.8631 50.3645L14.8362 50.4086L14.8263 50.4247C14.7301 50.5831 14.7033 50.774 14.752 50.9528C14.8007 51.1315 14.9208 51.2824 15.084 51.37C16.6907 52.2325 18.96 52.7967 21.3357 53.1535C23.7082 53.5099 26.2492 53.6683 28.4701 53.6894C28.4892 53.691 28.5085 53.6918 28.5279 53.6918C28.6001 53.6918 28.6722 53.6916 28.7444 53.6913L28.8397 53.6916L28.9825 53.6918C29.0042 53.6918 29.0258 53.6908 29.047 53.6887C34.012 53.6307 38.9315 52.7496 42.5692 51.589C42.7572 51.529 42.9096 51.3897 42.9862 51.2078C43.0628 51.0259 43.056 50.8196 42.9675 50.6432L42.8198 50.3487C44.2599 49.7621 46.2007 48.926 47.1994 48.2603C47.3515 48.1589 47.456 48.0001 47.4889 47.8203C47.5219 47.6404 47.4805 47.4549 47.3742 47.3061C40.6775 37.9307 36.6835 29.9251 34.7122 23.1126L38.6523 16.5457C38.8262 16.2559 38.759 15.8822 38.4952 15.6711C36.5651 14.1271 36.4645 11.7869 37.3589 8.65647C37.4171 8.45278 37.3763 8.23358 37.2488 8.06446C37.1212 7.89534 36.9216 7.7959 36.7098 7.7959H33.528C33.2732 7.7959 33.0514 7.93699 32.9365 8.1453C31.2239 8.64781 29.8685 8.89527 28.5266 8.89785C27.3226 8.90017 26.1079 8.70533 24.6348 8.29639C24.5578 8.00818 24.2949 7.7959 23.9825 7.7959H20.8006ZM23.0456 9.14612H21.7186C22.0395 10.2612 22.2545 11.4193 22.155 12.5636C22.0386 13.9021 21.4964 15.1786 20.3027 16.3289L24.1063 22.6683C25.9044 23.1223 27.333 23.3393 28.7508 23.337C30.1712 23.3347 31.6027 23.1123 33.4068 22.6638L37.2051 16.3334C35.2558 14.4518 35.1868 11.871 35.8347 9.14612H34.1604C34.1294 9.40012 34.0805 9.67028 34.0101 9.94854V15.2152C34.0101 15.4816 33.7942 15.6975 33.5279 15.6975H23.5278C23.2615 15.6975 23.0456 15.4816 23.0456 15.2152V9.14612ZM23.7719 24.5607C23.8676 24.2556 23.9599 23.9514 24.0487 23.648C25.8137 24.0844 27.2779 24.3039 28.7524 24.3015C30.2283 24.2991 31.6939 24.0743 33.4605 23.6438C35.4586 30.4626 39.3982 38.3598 45.8508 47.493C44.691 48.1245 42.8787 48.8744 41.6378 49.3692C41.4622 49.4392 41.324 49.5797 41.2568 49.7564C41.1896 49.9331 41.1996 50.1299 41.2844 50.2989L41.4023 50.5341C37.9632 51.5433 33.4866 52.2923 28.9755 52.3392C28.9588 52.3394 28.9423 52.3402 28.9259 52.3415C28.8666 52.3415 28.807 52.3413 28.7471 52.341L28.7407 52.341C28.6868 52.3413 28.633 52.3415 28.5791 52.3415C28.5641 52.3404 28.5489 52.3398 28.5337 52.3397C26.3491 52.3211 23.8517 52.1661 21.5363 51.8183C19.5441 51.519 17.7321 51.0834 16.3743 50.4942L16.3925 50.4657C16.4988 50.3001 16.6017 50.1444 16.6798 50.0347C16.698 50.0092 16.7129 49.989 16.7245 49.9735C16.8225 49.8953 16.8998 49.789 16.9428 49.6614C17.0616 49.3082 16.8717 48.9255 16.5185 48.8064C14.7563 48.2151 13.2142 47.514 11.9275 46.7342C17.7956 38.444 21.378 31.7425 23.474 25.4796C25.4976 26.0125 26.9959 26.2567 28.3363 26.3005C29.6943 26.3448 30.8684 26.1823 32.2308 25.9284C32.4926 25.8795 32.6653 25.6277 32.6165 25.3659C32.5677 25.1041 32.3159 24.9314 32.0541 24.9802C30.7181 25.2293 29.6233 25.3775 28.3677 25.3365C27.1351 25.2963 25.7268 25.0729 23.7719 24.5607ZM33.0457 12.0319V14.733H24.0101V11.2987C24.1198 11.51 24.2445 11.7187 24.3858 11.9216C25.2198 13.1191 26.6068 14.073 28.7333 14.1421C28.7479 14.1426 28.7625 14.1426 28.7771 14.1421C30.8378 14.0752 32.2042 13.1772 33.0457 12.0319ZM32.7904 9.19024C32.6886 9.80729 32.4529 10.5235 32.0166 11.1499C31.4196 12.0072 30.4263 12.7316 28.7552 12.7919C27.0841 12.7316 26.0909 12.0072 25.4938 11.1499C25.0889 10.5685 24.8567 9.90975 24.744 9.32471C26.1177 9.68362 27.3186 9.86462 28.5285 9.86229C29.8768 9.8597 31.2137 9.62948 32.7904 9.19024Z"/>
</mask>
<path fill-rule="evenodd" clip-rule="evenodd" d="M20.8006 7.7959C20.5836 7.7959 20.3798 7.90022 20.2529 8.07626C20.1261 8.25231 20.0915 8.47862 20.1602 8.68449C20.6092 10.0316 20.9109 11.2848 20.8099 12.4466C20.7122 13.5694 20.2339 14.6554 19.0048 15.6797C18.7491 15.8927 18.6869 16.2603 18.8581 16.5457L22.7983 23.1127C20.8355 29.9003 17.1161 37.1497 10.4159 46.53C10.3096 46.6788 10.2683 46.8643 10.3012 47.0441C10.3342 47.224 10.4387 47.3828 10.5908 47.4842C11.8968 48.3549 13.4572 49.1284 15.2266 49.7827C15.1268 49.9389 15.0313 50.0918 14.959 50.2087C14.9192 50.273 14.8862 50.3268 14.8631 50.3645L14.8362 50.4086L14.8263 50.4247C14.7301 50.5831 14.7033 50.774 14.752 50.9528C14.8007 51.1315 14.9208 51.2824 15.084 51.37C16.6907 52.2325 18.96 52.7967 21.3357 53.1535C23.7082 53.5099 26.2492 53.6683 28.4701 53.6894C28.4892 53.691 28.5085 53.6918 28.5279 53.6918C28.6001 53.6918 28.6722 53.6916 28.7444 53.6913L28.8397 53.6916L28.9825 53.6918C29.0042 53.6918 29.0258 53.6908 29.047 53.6887C34.012 53.6307 38.9315 52.7496 42.5692 51.589C42.7572 51.529 42.9096 51.3897 42.9862 51.2078C43.0628 51.0259 43.056 50.8196 42.9675 50.6432L42.8198 50.3487C44.2599 49.7621 46.2007 48.926 47.1994 48.2603C47.3515 48.1589 47.456 48.0001 47.4889 47.8203C47.5219 47.6404 47.4805 47.4549 47.3742 47.3061C40.6775 37.9307 36.6835 29.9251 34.7122 23.1126L38.6523 16.5457C38.8262 16.2559 38.759 15.8822 38.4952 15.6711C36.5651 14.1271 36.4645 11.7869 37.3589 8.65647C37.4171 8.45278 37.3763 8.23358 37.2488 8.06446C37.1212 7.89534 36.9216 7.7959 36.7098 7.7959H33.528C33.2732 7.7959 33.0514 7.93699 32.9365 8.1453C31.2239 8.64781 29.8685 8.89527 28.5266 8.89785C27.3226 8.90017 26.1079 8.70533 24.6348 8.29639C24.5578 8.00818 24.2949 7.7959 23.9825 7.7959H20.8006ZM23.0456 9.14612H21.7186C22.0395 10.2612 22.2545 11.4193 22.155 12.5636C22.0386 13.9021 21.4964 15.1786 20.3027 16.3289L24.1063 22.6683C25.9044 23.1223 27.333 23.3393 28.7508 23.337C30.1712 23.3347 31.6027 23.1123 33.4068 22.6638L37.2051 16.3334C35.2558 14.4518 35.1868 11.871 35.8347 9.14612H34.1604C34.1294 9.40012 34.0805 9.67028 34.0101 9.94854V15.2152C34.0101 15.4816 33.7942 15.6975 33.5279 15.6975H23.5278C23.2615 15.6975 23.0456 15.4816 23.0456 15.2152V9.14612ZM23.7719 24.5607C23.8676 24.2556 23.9599 23.9514 24.0487 23.648C25.8137 24.0844 27.2779 24.3039 28.7524 24.3015C30.2283 24.2991 31.6939 24.0743 33.4605 23.6438C35.4586 30.4626 39.3982 38.3598 45.8508 47.493C44.691 48.1245 42.8787 48.8744 41.6378 49.3692C41.4622 49.4392 41.324 49.5797 41.2568 49.7564C41.1896 49.9331 41.1996 50.1299 41.2844 50.2989L41.4023 50.5341C37.9632 51.5433 33.4866 52.2923 28.9755 52.3392C28.9588 52.3394 28.9423 52.3402 28.9259 52.3415C28.8666 52.3415 28.807 52.3413 28.7471 52.341L28.7407 52.341C28.6868 52.3413 28.633 52.3415 28.5791 52.3415C28.5641 52.3404 28.5489 52.3398 28.5337 52.3397C26.3491 52.3211 23.8517 52.1661 21.5363 51.8183C19.5441 51.519 17.7321 51.0834 16.3743 50.4942L16.3925 50.4657C16.4988 50.3001 16.6017 50.1444 16.6798 50.0347C16.698 50.0092 16.7129 49.989 16.7245 49.9735C16.8225 49.8953 16.8998 49.789 16.9428 49.6614C17.0616 49.3082 16.8717 48.9255 16.5185 48.8064C14.7563 48.2151 13.2142 47.514 11.9275 46.7342C17.7956 38.444 21.378 31.7425 23.474 25.4796C25.4976 26.0125 26.9959 26.2567 28.3363 26.3005C29.6943 26.3448 30.8684 26.1823 32.2308 25.9284C32.4926 25.8795 32.6653 25.6277 32.6165 25.3659C32.5677 25.1041 32.3159 24.9314 32.0541 24.9802C30.7181 25.2293 29.6233 25.3775 28.3677 25.3365C27.1351 25.2963 25.7268 25.0729 23.7719 24.5607ZM33.0457 12.0319V14.733H24.0101V11.2987C24.1198 11.51 24.2445 11.7187 24.3858 11.9216C25.2198 13.1191 26.6068 14.073 28.7333 14.1421C28.7479 14.1426 28.7625 14.1426 28.7771 14.1421C30.8378 14.0752 32.2042 13.1772 33.0457 12.0319ZM32.7904 9.19024C32.6886 9.80729 32.4529 10.5235 32.0166 11.1499C31.4196 12.0072 30.4263 12.7316 28.7552 12.7919C27.0841 12.7316 26.0909 12.0072 25.4938 11.1499C25.0889 10.5685 24.8567 9.90975 24.744 9.32471C26.1177 9.68362 27.3186 9.86462 28.5285 9.86229C29.8768 9.8597 31.2137 9.62948 32.7904 9.19024Z" fill="#F8F9FA"/>
<path d="M20.2529 8.07626L21.4698 8.95333L21.4698 8.95333L20.2529 8.07626ZM20.1602 8.68449L21.5832 8.21015L21.5832 8.21015L20.1602 8.68449ZM20.8099 12.4466L19.3155 12.3167L19.3155 12.3167L20.8099 12.4466ZM19.0048 15.6797L18.0445 14.5274L18.0445 14.5274L19.0048 15.6797ZM18.8581 16.5457L17.5718 17.3174L17.5718 17.3174L18.8581 16.5457ZM22.7983 23.1127L24.2392 23.5293C24.355 23.1289 24.299 22.6983 24.0845 22.3409L22.7983 23.1127ZM10.4159 46.53L9.19531 45.6582L9.19531 45.6582L10.4159 46.53ZM10.3012 47.0441L8.8258 47.3146L8.8258 47.3146L10.3012 47.0441ZM10.5908 47.4842L11.4228 46.2361L11.4228 46.2361L10.5908 47.4842ZM15.2266 49.7827L16.4907 50.5902C16.735 50.2077 16.793 49.7352 16.6485 49.305C16.504 48.8748 16.1725 48.5332 15.7468 48.3758L15.2266 49.7827ZM14.959 50.2087L13.6835 49.4194L13.6835 49.4194L14.959 50.2087ZM14.8631 50.3645L13.5838 49.5813L13.5831 49.5824L14.8631 50.3645ZM14.8362 50.4086L13.5562 49.6265L13.555 49.6284L14.8362 50.4086ZM14.8263 50.4247L13.5452 49.6446L13.5443 49.646L14.8263 50.4247ZM15.084 51.37L14.3745 52.6916L14.3745 52.6916L15.084 51.37ZM21.3357 53.1535L21.1129 54.6369L21.1129 54.6369L21.3357 53.1535ZM28.4701 53.6894L28.5967 52.1947C28.5593 52.1915 28.5218 52.1898 28.4843 52.1894L28.4701 53.6894ZM28.7444 53.6913L28.7497 52.1912L28.7371 52.1913L28.7444 53.6913ZM28.8397 53.6916L28.8344 55.1916L28.8377 55.1916L28.8397 53.6916ZM28.9825 53.6918L28.9805 55.1918H28.9825V53.6918ZM29.047 53.6887L29.0295 52.1888C28.9881 52.1893 28.9467 52.1915 28.9054 52.1954L29.047 53.6887ZM42.5692 51.589L43.0251 53.018L43.0252 53.018L42.5692 51.589ZM42.9862 51.2078L44.3686 51.79L44.3686 51.7899L42.9862 51.2078ZM42.9675 50.6432L44.3084 49.9708L44.3083 49.9708L42.9675 50.6432ZM42.8198 50.3487L42.2539 48.9595C41.8667 49.1173 41.5629 49.4295 41.4157 49.8209C41.2686 50.2123 41.2915 50.6473 41.4789 51.0211L42.8198 50.3487ZM47.1994 48.2603L48.0314 49.5083L48.0314 49.5083L47.1994 48.2603ZM47.4889 47.8203L48.9643 48.0907L48.9644 48.0907L47.4889 47.8203ZM47.3742 47.3061L48.5949 46.4343L48.5948 46.4343L47.3742 47.3061ZM34.7122 23.1126L33.4259 22.3409C33.2114 22.6984 33.1554 23.1291 33.2713 23.5296L34.7122 23.1126ZM38.6523 16.5457L37.3661 15.7739L37.3661 15.7739L38.6523 16.5457ZM38.4952 15.6711L39.4322 14.4998L39.4322 14.4998L38.4952 15.6711ZM37.3589 8.65647L38.8012 9.06856L38.8012 9.06855L37.3589 8.65647ZM37.2488 8.06446L36.0512 8.96775L36.0512 8.96775L37.2488 8.06446ZM32.9365 8.1453L33.3588 9.58462C33.7384 9.47323 34.0586 9.2164 34.2498 8.87003L32.9365 8.1453ZM28.5266 8.89785L28.5295 10.3979L28.5295 10.3979L28.5266 8.89785ZM24.6348 8.29639L23.1855 8.68335C23.3227 9.19691 23.7214 9.59955 24.2335 9.74173L24.6348 8.29639ZM21.7186 9.14612V7.64612C21.2475 7.64612 20.8037 7.86751 20.5203 8.24393C20.2369 8.62036 20.1468 9.10807 20.2771 9.56087L21.7186 9.14612ZM23.0456 9.14612H24.5456C24.5456 8.31769 23.8741 7.64612 23.0456 7.64612V9.14612ZM22.155 12.5636L20.6607 12.4337L20.6607 12.4337L22.155 12.5636ZM20.3027 16.3289L19.2618 15.2489C18.7587 15.7337 18.657 16.5016 19.0164 17.1007L20.3027 16.3289ZM24.1063 22.6683L22.82 23.44C23.0241 23.7801 23.3545 24.0255 23.739 24.1226L24.1063 22.6683ZM28.7508 23.337L28.7532 24.837L28.7532 24.837L28.7508 23.337ZM33.4068 22.6638L33.7687 24.1195C34.1555 24.0234 34.488 23.7773 34.6931 23.4356L33.4068 22.6638ZM37.2051 16.3334L38.4913 17.1052C38.8505 16.5065 38.7492 15.7391 38.2468 15.2542L37.2051 16.3334ZM35.8347 9.14612L37.294 9.49313C37.4002 9.04671 37.2962 8.57625 37.0117 8.2162C36.7272 7.85615 36.2936 7.64612 35.8347 7.64612V9.14612ZM34.1604 9.14612V7.64612C33.4021 7.64612 32.7631 8.21196 32.6714 8.96464L34.1604 9.14612ZM34.0101 9.94854L32.5559 9.58071C32.5255 9.70095 32.5101 9.82451 32.5101 9.94854H34.0101ZM24.0487 23.648L24.4087 22.1918C23.6286 21.9989 22.835 22.4552 22.6092 23.2264L24.0487 23.648ZM23.7719 24.5607L22.3407 24.1117C22.2179 24.5031 22.2608 24.9278 22.4594 25.2868C22.6579 25.6457 22.9949 25.9077 23.3917 26.0117L23.7719 24.5607ZM28.7524 24.3015L28.7499 22.8015L28.7499 22.8015L28.7524 24.3015ZM33.4605 23.6438L34.9 23.222C34.6746 22.4528 33.8842 21.9967 33.1054 22.1865L33.4605 23.6438ZM45.8508 47.493L46.568 48.8104C46.9441 48.6057 47.2147 48.25 47.3118 47.8329C47.4088 47.4159 47.3229 46.9772 47.0759 46.6275L45.8508 47.493ZM41.6378 49.3692L41.0822 47.9759L41.0822 47.9759L41.6378 49.3692ZM41.2568 49.7564L39.8547 49.2234L39.8547 49.2234L41.2568 49.7564ZM41.2844 50.2989L39.9435 50.9713L39.9435 50.9713L41.2844 50.2989ZM41.4023 50.5341L41.8247 51.9734C42.2513 51.8482 42.6005 51.5402 42.7778 51.1324C42.9552 50.7247 42.9425 50.2592 42.7432 49.8617L41.4023 50.5341ZM28.9755 52.3392L28.9909 53.8392L28.9911 53.8392L28.9755 52.3392ZM28.9259 52.3415L28.9242 53.8415C28.9662 53.8416 29.0082 53.8399 29.0501 53.8364L28.9259 52.3415ZM28.7471 52.341L28.7545 50.841C28.7496 50.841 28.7448 50.841 28.74 50.841L28.7471 52.341ZM28.7407 52.341L28.7336 50.8411L28.7333 50.8411L28.7407 52.341ZM28.5791 52.3415L28.4669 53.8373C28.5048 53.8402 28.5429 53.8416 28.581 53.8415L28.5791 52.3415ZM28.5337 52.3397L28.5209 53.8396L28.5209 53.8396L28.5337 52.3397ZM21.5363 51.8183L21.7591 50.3349L21.7591 50.3349L21.5363 51.8183ZM16.3743 50.4942L15.1113 49.6849C14.8741 50.0551 14.8112 50.5108 14.9394 50.9314C15.0676 51.352 15.3738 51.6952 15.7772 51.8702L16.3743 50.4942ZM16.3925 50.4657L15.1302 49.6555L15.1296 49.6564L16.3925 50.4657ZM16.6798 50.0347L17.9014 50.9052L17.9014 50.9052L16.6798 50.0347ZM16.7245 49.9735L15.7888 48.8011C15.6907 48.8795 15.6028 48.9698 15.5272 49.07L16.7245 49.9735ZM16.9428 49.6614L18.3645 50.1396L18.3645 50.1395L16.9428 49.6614ZM16.5185 48.8064L16.9976 47.385L16.9957 47.3844L16.5185 48.8064ZM11.9275 46.7342L10.7032 45.8676C10.4627 46.2074 10.3742 46.6319 10.4589 47.0395C10.5437 47.4471 10.794 47.8012 11.1501 48.017L11.9275 46.7342ZM23.474 25.4796L23.856 24.0291C23.0918 23.8278 22.3024 24.254 22.0516 25.0035L23.474 25.4796ZM28.3363 26.3005L28.2874 27.7997L28.2874 27.7997L28.3363 26.3005ZM32.2308 25.9284L32.5057 27.403L32.5057 27.403L32.2308 25.9284ZM32.6165 25.3659L31.1419 25.6408L31.1419 25.6408L32.6165 25.3659ZM32.0541 24.9802L32.3289 26.4548L32.3289 26.4548L32.0541 24.9802ZM28.3677 25.3365L28.4166 23.8373L28.4166 23.8373L28.3677 25.3365ZM33.0457 14.733V16.233C33.8741 16.233 34.5457 15.5614 34.5457 14.733H33.0457ZM33.0457 12.0319H34.5457C34.5457 11.3836 34.1291 10.8086 33.513 10.6066C32.8969 10.4046 32.2208 10.6213 31.8369 11.1438L33.0457 12.0319ZM24.0101 14.733H22.5101C22.5101 15.5614 23.1816 16.233 24.0101 16.233V14.733ZM24.0101 11.2987L25.3413 10.6075C25.0228 9.9939 24.326 9.67752 23.6543 9.84149C22.9827 10.0055 22.5101 10.6073 22.5101 11.2987H24.0101ZM24.3858 11.9216L25.6167 11.0643L25.6167 11.0643L24.3858 11.9216ZM28.7333 14.1421L28.7821 12.6429L28.782 12.6429L28.7333 14.1421ZM28.7771 14.1421L28.7284 12.6429L28.7284 12.6429L28.7771 14.1421ZM32.0166 11.1499L33.2475 12.0072L33.2475 12.0072L32.0166 11.1499ZM32.7904 9.19024L34.2704 9.43448C34.3538 8.92903 34.1735 8.41595 33.7922 8.07381C33.4109 7.73167 32.8814 7.60778 32.3879 7.74526L32.7904 9.19024ZM28.7552 12.7919L28.7011 14.2909C28.7372 14.2922 28.7733 14.2922 28.8093 14.2909L28.7552 12.7919ZM25.4938 11.1499L26.7247 10.2927L26.7247 10.2927L25.4938 11.1499ZM24.744 9.32471L25.1232 7.87342C24.6248 7.74321 24.0945 7.87784 23.7186 8.23001C23.3426 8.58217 23.1737 9.1026 23.2711 9.60842L24.744 9.32471ZM28.5285 9.86229L28.5314 11.3623L28.5314 11.3623L28.5285 9.86229ZM21.4698 8.95333C21.3148 9.16843 21.0658 9.2959 20.8006 9.2959V6.2959C20.1014 6.2959 19.4449 6.632 19.0361 7.1992L21.4698 8.95333ZM21.5832 8.21015C21.667 8.4617 21.6248 8.73823 21.4698 8.95333L19.0361 7.1992C18.6273 7.7664 18.516 8.49554 18.7371 9.15884L21.5832 8.21015ZM22.3042 12.5766C22.4333 11.0923 22.0443 9.59338 21.5832 8.21015L18.7371 9.15884C19.1742 10.4699 19.3885 11.4772 19.3155 12.3167L22.3042 12.5766ZM19.9651 16.832C21.4931 15.5586 22.171 14.1082 22.3042 12.5766L19.3155 12.3167C19.2534 13.0305 18.9747 13.7522 18.0445 14.5274L19.9651 16.832ZM20.1443 15.7739C20.3535 16.1226 20.2774 16.5717 19.9651 16.832L18.0445 14.5274C17.2208 15.2138 17.0202 16.398 17.5718 17.3174L20.1443 15.7739ZM24.0845 22.3409L20.1443 15.7739L17.5718 17.3174L21.512 23.8844L24.0845 22.3409ZM11.6365 47.4019C18.3933 37.9424 22.2126 30.5376 24.2392 23.5293L21.3573 22.696C19.4583 29.263 15.839 36.357 9.19531 45.6582L11.6365 47.4019ZM11.7766 46.7737C11.8169 46.9935 11.7664 47.2201 11.6365 47.4019L9.19531 45.6582C8.85295 46.1375 8.71961 46.7352 8.8258 47.3146L11.7766 46.7737ZM11.4228 46.2361C11.6087 46.36 11.7364 46.554 11.7766 46.7737L8.8258 47.3146C8.93199 47.8939 9.26862 48.4055 9.75876 48.7322L11.4228 46.2361ZM15.7468 48.3758C14.0658 47.7542 12.6142 47.0303 11.4228 46.2361L9.75874 48.7322C11.1795 49.6794 12.8486 50.5026 14.7064 51.1896L15.7468 48.3758ZM16.2346 50.998C16.3046 50.8849 16.396 50.7384 16.4907 50.5902L13.9625 48.9752C13.8576 49.1394 13.7581 49.2988 13.6835 49.4194L16.2346 50.998ZM16.1424 51.1478C16.1644 51.1118 16.1962 51.0601 16.2346 50.998L13.6835 49.4194C13.6423 49.486 13.608 49.5418 13.5838 49.5813L16.1424 51.1478ZM16.1161 51.1907L16.143 51.1467L13.5831 49.5824L13.5562 49.6265L16.1161 51.1907ZM16.1075 51.2049L16.1173 51.1888L13.555 49.6284L13.5452 49.6446L16.1075 51.2049ZM16.1992 50.5583C16.2587 50.7767 16.2259 51.01 16.1084 51.2034L13.5443 49.646C13.2344 50.1562 13.1478 50.7714 13.3048 51.3473L16.1992 50.5583ZM15.7935 50.0484C15.993 50.1555 16.1396 50.3399 16.1992 50.5583L13.3048 51.3473C13.4618 51.9232 13.8486 52.4093 14.3745 52.6916L15.7935 50.0484ZM21.5585 51.6702C19.233 51.3208 17.1693 50.787 15.7935 50.0484L14.3745 52.6916C16.212 53.6781 18.6869 54.2725 21.1129 54.6369L21.5585 51.6702ZM28.4843 52.1894C26.3171 52.1689 23.8476 52.014 21.5585 51.6702L21.1129 54.6369C23.5688 55.0058 26.1814 55.1678 28.4559 55.1893L28.4843 52.1894ZM28.5279 52.1918C28.5508 52.1918 28.5738 52.1928 28.5967 52.1947L28.3435 55.184C28.4046 55.1892 28.4661 55.1918 28.5279 55.1918V52.1918ZM28.7371 52.1913C28.6673 52.1916 28.5976 52.1918 28.5279 52.1918V55.1918C28.6026 55.1918 28.6772 55.1916 28.7517 55.1912L28.7371 52.1913ZM28.8451 52.1916L28.7497 52.1913L28.739 55.1913L28.8344 55.1916L28.8451 52.1916ZM28.9845 52.1918L28.8417 52.1916L28.8377 55.1916L28.9805 55.1918L28.9845 52.1918ZM28.9054 52.1954C28.9312 52.193 28.9569 52.1918 28.9825 52.1918V55.1918C29.0516 55.1918 29.1204 55.1885 29.1886 55.1821L28.9054 52.1954ZM42.1133 50.16C38.6174 51.2753 33.8456 52.1326 29.0295 52.1888L29.0645 55.1886C34.1783 55.1289 39.2456 54.2239 43.0251 53.018L42.1133 50.16ZM41.6038 50.6257C41.6974 50.4034 41.8835 50.2333 42.1133 50.16L43.0252 53.018C43.6309 52.8247 44.1218 52.376 44.3686 51.79L41.6038 50.6257ZM41.6266 51.3156C41.5185 51.1 41.5102 50.848 41.6038 50.6257L44.3686 51.7899C44.6154 51.2039 44.5934 50.5392 44.3084 49.9708L41.6266 51.3156ZM41.4789 51.0211L41.6266 51.3156L44.3083 49.9708L44.1607 49.6763L41.4789 51.0211ZM46.3673 47.0122C45.5186 47.578 43.7283 48.3589 42.2539 48.9595L43.3857 51.7379C44.7915 51.1652 46.8828 50.2741 48.0314 49.5083L46.3673 47.0122ZM46.0135 47.5498C46.0538 47.3301 46.1814 47.1361 46.3673 47.0122L48.0314 49.5083C48.5215 49.1816 48.8581 48.67 48.9643 48.0907L46.0135 47.5498ZM46.1536 48.178C46.0238 47.9962 45.9732 47.7696 46.0135 47.5498L48.9644 48.0907C49.0705 47.5113 48.9372 46.9136 48.5949 46.4343L46.1536 48.178ZM33.2713 23.5296C35.3036 30.5526 39.3918 38.7115 46.1536 48.178L48.5948 46.4343C41.9632 37.15 38.0635 29.2977 36.153 22.6957L33.2713 23.5296ZM37.3661 15.7739L33.4259 22.3409L35.9984 23.8844L39.9386 17.3174L37.3661 15.7739ZM37.5581 16.8424C37.2357 16.5845 37.1537 16.128 37.3661 15.7739L39.9386 17.3174C40.4987 16.3838 40.2824 15.18 39.4322 14.4998L37.5581 16.8424ZM35.9166 8.24439C35.4457 9.89251 35.1871 11.4901 35.3808 12.9553C35.583 14.4843 36.2725 15.8139 37.5581 16.8424L39.4322 14.4998C38.7878 13.9843 38.462 13.3718 38.3549 12.5621C38.2394 11.6886 38.3777 10.5509 38.8012 9.06856L35.9166 8.24439ZM36.0512 8.96775C35.8954 8.7611 35.8455 8.49327 35.9166 8.2444L38.8012 9.06855C38.9887 8.41229 38.8573 7.70607 38.4463 7.16116L36.0512 8.96775ZM36.7098 9.2959C36.4509 9.2959 36.2071 9.1744 36.0512 8.96775L38.4463 7.16116C38.0353 6.61627 37.3923 6.2959 36.7098 6.2959V9.2959ZM33.528 9.2959H36.7098V6.2959H33.528V9.2959ZM34.2498 8.87003C34.1115 9.12068 33.8412 9.2959 33.528 9.2959V6.2959C32.7052 6.2959 31.9914 6.75331 31.6232 7.42057L34.2498 8.87003ZM28.5295 10.3979C30.0645 10.3949 31.5698 10.1096 33.3588 9.58462L32.5141 6.70598C30.878 7.18605 29.6725 7.39565 28.5238 7.39786L28.5295 10.3979ZM24.2335 9.74173C25.7959 10.1755 27.151 10.4005 28.5295 10.3979L28.5238 7.39786C27.4942 7.39984 26.4198 7.2352 25.036 6.85104L24.2335 9.74173ZM23.9825 9.2959C23.5986 9.2959 23.2794 9.03501 23.1855 8.68335L26.084 7.90942C25.8362 6.98135 24.9913 6.2959 23.9825 6.2959V9.2959ZM20.8006 9.2959H23.9825V6.2959H20.8006V9.2959ZM21.7186 10.6461H23.0456V7.64612H21.7186V10.6461ZM23.6494 12.6935C23.7717 11.2863 23.5037 9.9253 23.1601 8.73136L20.2771 9.56087C20.5752 10.5971 20.7373 11.5523 20.6607 12.4337L23.6494 12.6935ZM21.3435 17.409C22.8011 16.0043 23.5019 14.3891 23.6494 12.6935L20.6607 12.4337C20.5753 13.4151 20.1916 14.3528 19.2618 15.2489L21.3435 17.409ZM25.3925 21.8965L21.5889 15.5572L19.0164 17.1007L22.82 23.44L25.3925 21.8965ZM28.7484 21.837C27.4956 21.8391 26.1975 21.6493 24.4735 21.2139L23.739 24.1226C25.6113 24.5954 27.1704 24.8396 28.7532 24.837L28.7484 21.837ZM33.045 21.2081C31.3082 21.6399 30.0049 21.835 28.7484 21.837L28.7532 24.837C30.3374 24.8344 31.8972 24.5847 33.7687 24.1195L33.045 21.2081ZM35.9188 15.5617L32.1206 21.8921L34.6931 23.4356L38.4913 17.1052L35.9188 15.5617ZM34.3754 8.7991C33.6873 11.6929 33.6317 14.9689 36.1633 17.4127L38.2468 15.2542C36.8799 13.9347 36.6863 12.0491 37.294 9.49313L34.3754 8.7991ZM34.1604 10.6461H35.8347V7.64612H34.1604V10.6461ZM35.4643 10.3164C35.5507 9.97496 35.611 9.64249 35.6493 9.32759L32.6714 8.96464C32.6478 9.15774 32.6103 9.36559 32.5559 9.58071L35.4643 10.3164ZM35.5101 15.2152V9.94854H32.5101V15.2152H35.5101ZM33.5279 17.1975C34.6226 17.1975 35.5101 16.31 35.5101 15.2152H32.5101C32.5101 14.6531 32.9658 14.1975 33.5279 14.1975V17.1975ZM23.5278 17.1975H33.5279V14.1975H23.5278V17.1975ZM21.5456 15.2152C21.5456 16.31 22.4331 17.1975 23.5278 17.1975V14.1975C24.0899 14.1975 24.5456 14.6531 24.5456 15.2152H21.5456ZM21.5456 9.14612V15.2152H24.5456V9.14612H21.5456ZM22.6092 23.2264C22.523 23.5206 22.4336 23.8157 22.3407 24.1117L25.2032 25.0097C25.3017 24.6955 25.3967 24.3821 25.4883 24.0695L22.6092 23.2264ZM28.7499 22.8015C27.435 22.8036 26.098 22.6095 24.4087 22.1918L23.6887 25.1041C25.5294 25.5592 27.1208 25.8041 28.7548 25.8015L28.7499 22.8015ZM33.1054 22.1865C31.4081 22.6001 30.0674 22.7993 28.7499 22.8015L28.7548 25.8015C30.3892 25.7988 31.9798 25.5486 33.8157 25.1012L33.1054 22.1865ZM47.0759 46.6275C40.6872 37.5848 36.8384 29.8371 34.9 23.222L32.0211 24.0656C34.0788 31.0882 38.1091 39.1348 44.6257 48.3586L47.0759 46.6275ZM42.1934 50.7625C43.4253 50.2713 45.3182 49.4909 46.568 48.8104L45.1335 46.1756C44.0637 46.7581 42.3321 47.4775 41.0822 47.9759L42.1934 50.7625ZM42.6589 50.2894C42.5768 50.5053 42.4079 50.6769 42.1934 50.7625L41.0822 47.9759C40.5164 48.2015 40.0711 48.654 39.8547 49.2234L42.6589 50.2894ZM42.6252 49.6265C42.7288 49.833 42.741 50.0735 42.6589 50.2894L39.8547 49.2234C39.6382 49.7928 39.6705 50.4268 39.9435 50.9713L42.6252 49.6265ZM42.7432 49.8617L42.6252 49.6265L39.9435 50.9713L40.0615 51.2065L42.7432 49.8617ZM28.9911 53.8392C33.644 53.7908 38.2574 53.0202 41.8247 51.9734L40.9799 49.0948C37.669 50.0664 33.3292 50.7939 28.9599 50.8393L28.9911 53.8392ZM29.0501 53.8364C29.0305 53.838 29.0108 53.839 28.9909 53.8392L28.96 50.8393C28.9068 50.8399 28.8541 50.8423 28.8017 50.8467L29.0501 53.8364ZM28.7398 53.841C28.8017 53.8413 28.8632 53.8415 28.9242 53.8415L28.9277 50.8415C28.87 50.8415 28.8123 50.8413 28.7545 50.841L28.7398 53.841ZM28.7479 53.841L28.7543 53.841L28.74 50.841L28.7336 50.8411L28.7479 53.841ZM28.581 53.8415C28.6366 53.8415 28.6924 53.8413 28.7482 53.841L28.7333 50.8411C28.6813 50.8413 28.6293 50.8415 28.5772 50.8415L28.581 53.8415ZM28.5209 53.8396C28.5029 53.8394 28.4848 53.8387 28.4669 53.8373L28.6913 50.8457C28.6433 50.8422 28.595 50.8401 28.5464 50.8397L28.5209 53.8396ZM21.3135 53.3017C23.7129 53.6621 26.2823 53.8205 28.5209 53.8396L28.5465 50.8397C26.4159 50.8216 23.9906 50.6701 21.7591 50.3349L21.3135 53.3017ZM15.7772 51.8702C17.3067 52.5339 19.2642 52.9938 21.3135 53.3017L21.7591 50.3349C19.824 50.0443 18.1576 49.6329 16.9713 49.1181L15.7772 51.8702ZM15.1296 49.6564L15.1113 49.6849L17.6372 51.3035L17.6555 51.275L15.1296 49.6564ZM15.4582 49.1643C15.3583 49.3045 15.2395 49.4851 15.1302 49.6555L17.6549 51.2759C17.7581 51.1151 17.8451 50.9842 17.9014 50.9052L15.4582 49.1643ZM15.5272 49.07C15.5062 49.0979 15.4832 49.1292 15.4582 49.1643L17.9014 50.9052C17.9129 50.8891 17.9196 50.88 17.9219 50.877L15.5272 49.07ZM15.521 49.1832C15.5728 49.0294 15.6682 48.8974 15.7888 48.8011L17.6602 51.1459C17.9768 50.8933 18.2269 50.5486 18.3645 50.1396L15.521 49.1832ZM16.0394 50.2279C15.6079 50.0824 15.3759 49.6148 15.521 49.1833L18.3645 50.1395C18.7472 49.0015 18.1354 47.7685 16.9976 47.385L16.0394 50.2279ZM11.1501 48.017C12.5472 48.8638 14.1934 49.6084 16.0413 50.2285L16.9957 47.3844C15.3193 46.8218 13.8812 46.1642 12.705 45.4514L11.1501 48.017ZM22.0516 25.0035C20.0177 31.0809 16.5203 37.6494 10.7032 45.8676L13.1518 47.6008C19.0709 39.2386 22.7384 32.4041 24.8965 25.9556L22.0516 25.0035ZM28.3852 24.8013C27.1954 24.7625 25.8151 24.545 23.856 24.0291L23.092 26.9301C25.1801 27.4801 26.7965 27.751 28.2874 27.7997L28.3852 24.8013ZM31.9559 24.4538C30.6347 24.7 29.5838 24.8404 28.3852 24.8013L28.2874 27.7997C29.8048 27.8492 31.1021 27.6646 32.5057 27.403L31.9559 24.4538ZM31.1419 25.6408C31.0389 25.0882 31.4033 24.5568 31.9559 24.4538L32.5057 27.403C33.5819 27.2023 34.2917 26.1673 34.0911 25.091L31.1419 25.6408ZM32.3289 26.4548C31.7763 26.5579 31.2449 26.1934 31.1419 25.6408L34.0911 25.0911C33.8905 24.0148 32.8554 23.305 31.7792 23.5056L32.3289 26.4548ZM28.3188 26.8357C29.7338 26.8819 30.952 26.7115 32.3289 26.4548L31.7792 23.5056C30.4843 23.747 29.5127 23.8731 28.4166 23.8373L28.3188 26.8357ZM23.3917 26.0117C25.4114 26.5409 26.9369 26.7907 28.3188 26.8357L28.4166 23.8373C27.3333 23.802 26.0422 23.6049 24.1521 23.1097L23.3917 26.0117ZM34.5457 14.733V12.0319H31.5457V14.733H34.5457ZM24.0101 16.233H33.0457V13.233H24.0101V16.233ZM22.5101 11.2987V14.733H25.5101V11.2987H22.5101ZM25.6167 11.0643C25.5145 10.9176 25.423 10.7647 25.3413 10.6075L22.6788 11.9899C22.8166 12.2553 22.9745 12.5199 23.1549 12.7788L25.6167 11.0643ZM28.782 12.6429C27.1469 12.5898 26.1905 11.8882 25.6167 11.0643L23.1549 12.7788C24.2491 14.3499 26.0668 15.5563 28.6846 15.6413L28.782 12.6429ZM28.7284 12.6429C28.7463 12.6423 28.7642 12.6423 28.7821 12.6429L28.6845 15.6413C28.7316 15.6429 28.7788 15.6429 28.8259 15.6413L28.7284 12.6429ZM31.8369 11.1438C31.2605 11.9282 30.3169 12.5913 28.7284 12.6429L28.8258 15.6413C31.3588 15.559 33.1478 14.4262 34.2545 12.9201L31.8369 11.1438ZM33.2475 12.0072C33.8393 11.1575 34.1411 10.218 34.2704 9.43448L31.3104 8.94599C31.2361 9.39655 31.0665 9.88956 30.7857 10.2927L33.2475 12.0072ZM28.8093 14.2909C30.9702 14.2129 32.3916 13.2362 33.2475 12.0072L30.7857 10.2927C30.4475 10.7783 29.8825 11.2502 28.7011 11.2928L28.8093 14.2909ZM24.2629 12.0072C25.1188 13.2362 26.5403 14.2129 28.7011 14.2909L28.8093 11.2928C27.6279 11.2502 27.0629 10.7783 26.7247 10.2927L24.2629 12.0072ZM23.2711 9.60842C23.4142 10.3511 23.7128 11.2173 24.2629 12.0072L26.7247 10.2927C26.465 9.91974 26.2993 9.46845 26.217 9.04099L23.2711 9.60842ZM28.5256 8.3623C27.4755 8.36432 26.4061 8.2086 25.1232 7.87342L24.3649 10.776C25.8294 11.1586 27.1616 11.3649 28.5314 11.3623L28.5256 8.3623ZM32.3879 7.74526C30.8928 8.16175 29.6963 8.36004 28.5256 8.3623L28.5314 11.3623C30.0572 11.3594 31.5345 11.0972 33.193 10.6352L32.3879 7.74526Z" fill="#F8F9FA" mask="url(#path-1-outside-1_50_6931)"/>
<path d="M33.5279 8.47119C29.6252 9.67156 27.4297 9.69502 23.5278 8.47119V15.2154H33.5279V8.47119Z" fill="#FFE066" stroke="#212529" stroke-linecap="round" stroke-linejoin="round"/>
<path fill-rule="evenodd" clip-rule="evenodd" d="M28.9824 53.0145C33.8995 52.9634 38.7761 52.0908 42.3639 50.946L41.8877 49.9965C43.3489 49.4139 45.7288 48.4294 46.8248 47.6988C40.0065 38.1533 35.9521 29.9865 33.9824 23.0168L38.0733 16.1986C35.8006 14.3804 35.8006 11.6531 36.7097 8.47124H33.5278C33.5278 10.1059 32.5659 13.3438 28.7551 13.4676C24.9443 13.3438 23.9823 10.1059 23.9823 8.47124H20.8005C21.7096 11.1985 22.1642 13.9258 19.4369 16.1986L23.5278 23.0168C21.5581 29.9865 17.7834 37.3772 10.9652 46.9227C12.4199 47.8925 14.2196 48.7474 16.3028 49.4464C16.2262 49.4206 15.4032 50.7755 15.4032 50.7755C18.4087 52.3889 24.11 52.9774 28.5278 53.015V53.0169C28.5999 53.0169 28.6719 53.0167 28.744 53.0164C28.8239 53.0167 28.9034 53.0169 28.9824 53.0169V53.0145Z" fill="#FFEC99"/>
<path d="M28.9824 53.0145L28.9751 52.3145C28.5914 52.3185 28.2824 52.6307 28.2824 53.0145H28.9824ZM42.3639 50.946L42.5767 51.6129C42.7717 51.5507 42.9296 51.4063 43.0091 51.2177C43.0885 51.0291 43.0814 50.8152 42.9897 50.6322L42.3639 50.946ZM41.8878 49.9965L41.6285 49.3463C41.4464 49.4189 41.3031 49.5645 41.2335 49.7477C41.1638 49.931 41.1742 50.135 41.262 50.3102L41.8878 49.9965ZM46.8248 47.6987L47.2131 48.2812C47.3708 48.176 47.4792 48.0114 47.5133 47.8249C47.5475 47.6385 47.5046 47.4461 47.3944 47.2919L46.8248 47.6987ZM33.9824 23.0167L33.3822 22.6566C33.2829 22.8221 33.2563 23.0213 33.3088 23.2071L33.9824 23.0167ZM38.0734 16.1985L38.6736 16.5586C38.8539 16.2582 38.7842 15.8708 38.5107 15.6519L38.0734 16.1985ZM36.7097 8.47119L37.3828 8.6635C37.4431 8.45229 37.4008 8.22501 37.2686 8.04965C37.1363 7.87429 36.9294 7.77119 36.7097 7.77119V8.47119ZM33.5279 8.47119V7.77119C33.1413 7.77119 32.8279 8.08459 32.8279 8.47119H33.5279ZM28.7551 13.4676L28.7324 14.1672C28.7476 14.1677 28.7627 14.1677 28.7779 14.1672L28.7551 13.4676ZM23.9824 8.47119H24.6824C24.6824 8.08459 24.369 7.77119 23.9824 7.77119V8.47119ZM20.8006 8.47119V7.77119C20.5756 7.77119 20.3643 7.87936 20.2327 8.06189C20.1011 8.24443 20.0653 8.47909 20.1365 8.69255L20.8006 8.47119ZM19.4369 16.1985L18.9888 15.6607C18.7237 15.8816 18.6591 16.2628 18.8367 16.5586L19.4369 16.1985ZM23.5278 23.0167L24.2015 23.2071C24.254 23.0213 24.2274 22.8221 24.1281 22.6566L23.5278 23.0167ZM10.9652 46.9226L10.3956 46.5158C10.2854 46.67 10.2425 46.8624 10.2767 47.0488C10.3109 47.2353 10.4192 47.3999 10.5769 47.5051L10.9652 46.9226ZM16.3028 49.4464L16.0801 50.11C16.4465 50.2329 16.8431 50.0358 16.9663 49.6695C17.0895 49.3032 16.8926 48.9064 16.5264 48.783L16.3028 49.4464ZM15.4033 50.7754L14.805 50.412C14.7053 50.5762 14.6774 50.7742 14.7279 50.9595C14.7784 51.1448 14.9029 51.3013 15.0722 51.3921L15.4033 50.7754ZM28.5279 53.0149H29.2279C29.2279 52.6306 28.9181 52.3182 28.5338 52.3149L28.5279 53.0149ZM28.5279 53.0169H27.8279C27.8279 53.4035 28.1413 53.7169 28.5279 53.7169V53.0169ZM28.744 53.0163L28.7472 52.3163L28.7405 52.3163L28.744 53.0163ZM28.9824 53.0169V53.7169C29.369 53.7169 29.6824 53.4035 29.6824 53.0169H28.9824ZM28.9897 53.7145C33.9766 53.6626 38.9226 52.7788 42.5767 51.6129L42.1512 50.2791C38.6298 51.4026 33.8224 52.2641 28.9751 52.3145L28.9897 53.7145ZM42.9897 50.6322L42.5135 49.6827L41.262 50.3102L41.7382 51.2598L42.9897 50.6322ZM42.1471 50.6467C43.5834 50.0739 46.0426 49.0615 47.2131 48.2812L46.4365 47.1163C45.4152 47.7972 43.1145 48.7537 41.6285 49.3463L42.1471 50.6467ZM47.3944 47.2919C40.6069 37.7893 36.5974 29.6956 34.6561 22.8263L33.3088 23.2071C35.3069 30.2773 39.4063 38.5171 46.2552 48.1056L47.3944 47.2919ZM34.5827 23.3769L38.6736 16.5586L37.4731 15.8384L33.3822 22.6566L34.5827 23.3769ZM38.5107 15.6519C36.5932 14.1179 36.4889 11.7921 37.3828 8.6635L36.0367 8.27889C35.1123 11.514 35.008 14.6427 37.6361 16.7451L38.5107 15.6519ZM36.7097 7.77119H33.5279V9.17119H36.7097V7.77119ZM32.8279 8.47119C32.8279 9.17778 32.6145 10.248 31.9961 11.1359C31.4008 11.9907 30.4086 12.7135 28.7324 12.7679L28.7779 14.1672C30.9125 14.0978 32.3067 13.1397 33.145 11.936C33.9603 10.7653 34.2279 9.39925 34.2279 8.47119H32.8279ZM28.7779 12.7679C27.1017 12.7135 26.1095 11.9907 25.5141 11.1359C24.8958 10.248 24.6824 9.17778 24.6824 8.47119H23.2824C23.2824 9.39925 23.55 10.7653 24.3653 11.936C25.2036 13.1397 26.5978 14.0978 28.7324 14.1672L28.7779 12.7679ZM23.9824 7.77119H20.8006V9.17119H23.9824V7.77119ZM20.1365 8.69255C20.5853 10.0391 20.8856 11.2882 20.785 12.4447C20.688 13.5606 20.213 14.6406 18.9888 15.6607L19.885 16.7363C21.3882 15.4837 22.0495 14.0636 22.1798 12.5659C22.3065 11.1088 21.9249 9.63058 21.4646 8.24983L20.1365 8.69255ZM18.8367 16.5586L22.9276 23.3769L24.1281 22.6566L20.0372 15.8384L18.8367 16.5586ZM22.8542 22.8263C20.9142 29.691 17.187 37.0078 10.3956 46.5158L11.5348 47.3295C18.3799 37.7464 22.2021 30.2819 24.2015 23.2071L22.8542 22.8263ZM10.5769 47.5051C12.0933 48.516 13.9513 49.3957 16.0801 50.11L16.5255 48.7827C14.4879 48.099 12.7467 47.269 11.3535 46.3402L10.5769 47.5051ZM16.5264 48.783C16.2637 48.6945 16.0513 48.788 15.9932 48.8156C15.9141 48.8532 15.8583 48.8974 15.8327 48.9187C15.7777 48.9644 15.7351 49.0122 15.7122 49.0388C15.6606 49.0986 15.6071 49.1706 15.5599 49.2369C15.4618 49.3746 15.3443 49.5531 15.2352 49.7231C15.1247 49.8953 15.0173 50.0673 14.9378 50.1958C14.898 50.2602 14.8649 50.3139 14.8418 50.3517C14.8302 50.3706 14.8211 50.3855 14.8149 50.3958C14.8117 50.4009 14.8093 50.4049 14.8076 50.4076C14.8068 50.409 14.8062 50.4101 14.8057 50.4108C14.8055 50.4111 14.8053 50.4114 14.8052 50.4116C14.8052 50.4117 14.8051 50.4118 14.8051 50.4119C14.805 50.4119 14.805 50.4119 14.805 50.412C14.805 50.412 14.805 50.412 15.4033 50.7754C16.0016 51.1388 16.0015 51.1388 16.0015 51.1388C16.0015 51.1388 16.0015 51.1388 16.0016 51.1388C16.0016 51.1388 16.0016 51.1387 16.0016 51.1387C16.0017 51.1385 16.0018 51.1383 16.002 51.1381C16.0024 51.1375 16.0029 51.1366 16.0036 51.1354C16.0051 51.133 16.0073 51.1294 16.0102 51.1246C16.016 51.115 16.0247 51.1009 16.0358 51.0828C16.0579 51.0466 16.0898 50.9947 16.1283 50.9325C16.2055 50.8077 16.3086 50.6427 16.4134 50.4793C16.5196 50.3138 16.6223 50.1585 16.7 50.0494C16.7407 49.9923 16.7641 49.9627 16.7722 49.9534C16.779 49.9454 16.762 49.9667 16.7275 49.9954C16.7121 50.0082 16.6653 50.0463 16.5938 50.0802C16.5433 50.1042 16.3371 50.1966 16.0792 50.1097L16.5264 48.783ZM15.0722 51.3921C16.6826 52.2567 18.9554 52.8213 21.3319 53.1783C23.7244 53.5377 26.2878 53.6959 28.5219 53.7149L28.5338 52.3149C26.3502 52.2964 23.854 52.1415 21.5399 51.7939C19.21 51.4439 17.1293 50.9075 15.7344 50.1587L15.0722 51.3921ZM27.8279 53.0149V53.0169H29.2279V53.0149H27.8279ZM28.5279 53.7169C28.6011 53.7169 28.6743 53.7167 28.7475 53.7163L28.7405 52.3163C28.6696 52.3167 28.5988 52.3169 28.5279 52.3169V53.7169ZM28.7409 53.7163C28.8218 53.7167 28.9024 53.7169 28.9824 53.7169V52.3169C28.9045 52.3169 28.826 52.3167 28.7472 52.3163L28.7409 53.7163ZM29.6824 53.0169V53.0145H28.2824V53.0169H29.6824Z" fill="#212529"/>
<g style="mix-blend-mode:multiply">
<path d="M33.9689 23.3306H32.6559C35.4733 33.624 40.8181 41.783 45.0619 48.0773C45.6557 47.6807 46.029 47.428 46.4431 47.1298C40.403 40.2362 35.6103 28.3913 33.9689 23.3306Z" fill="#DEE2E6"/>
</g>
<path d="M23.5278 23.0166C27.6045 24.0971 29.8984 24.0764 33.9759 23.0166" stroke="#212529" stroke-linecap="round" stroke-linejoin="round"/>
<path d="M23.5278 24.9951C27.6045 26.0757 29.4441 25.9574 32.1424 25.4544" stroke="#212529" stroke-linecap="round" stroke-linejoin="round"/>
<path d="M16.2708 49.6673C17.1202 48.5206 18.6607 45.8666 19.0684 44.9492" stroke="#212529" stroke-width="1.2" stroke-linecap="round" stroke-linejoin="round"/>
<path d="M42.0876 50.4269C41.1578 48.9191 39.9324 46.5893 39.5494 45.7275" stroke="#212529" stroke-width="1.2" stroke-linecap="round" stroke-linejoin="round"/>
<path d="M21.6912 52.2736C22.3173 51.0493 23.3017 47.9978 23.5445 47.0611" stroke="#212529" stroke-width="1.2" stroke-linecap="round" stroke-linejoin="round"/>
<path d="M36.1981 52.2342C35.586 51.0398 34.7429 48.2176 34.5555 47.1557" stroke="#212529" stroke-width="1.2" stroke-linecap="round" stroke-linejoin="round"/>
<path d="M28.7551 47.5557L28.7551 52.6283" stroke="#212529" stroke-width="1.2" stroke-linecap="round" stroke-linejoin="round"/>
</svg>
