<svg width="60" height="58" viewBox="0 0 60 58" fill="none" xmlns="http://www.w3.org/2000/svg">
<mask id="path-1-outside-1_50_9500" maskUnits="userSpaceOnUse" x="9.0459" y="5.16992" width="45" height="50" fill="black">
<rect fill="white" x="9.0459" y="5.16992" width="45" height="50"/>
<path fill-rule="evenodd" clip-rule="evenodd" d="M32.16 8.97079C30.7156 11.4491 30.9781 14.1332 31.4153 15.5824H32.028L32.1793 15.4521C32.2208 13.3241 33.2097 11.3086 34.0723 9.99576C34.114 9.9322 34.1272 9.84612 34.1053 9.76739C34.0849 9.69416 34.0485 9.66838 34.0211 9.65804L32.2106 8.97541C32.1877 8.96676 32.1692 8.96831 32.16 8.97079ZM34.2968 13.6423C34.5997 12.6629 35.0815 11.7377 35.5766 10.9842C36.2327 9.98557 35.9277 8.45324 34.6561 7.97379L32.8457 7.29116C32.0552 6.99312 31.0846 7.24329 30.6097 8.05614C29.6131 9.76216 29.2757 11.5327 29.2701 13.0788C29.0612 12.8348 28.7375 12.7202 28.4207 12.7796C28.0959 12.8405 27.8306 13.0744 27.7296 13.389L26.6496 16.7524L23.7229 14.5799C23.4498 14.3772 23.0858 14.3457 22.782 14.4985C22.4782 14.6514 22.2865 14.9624 22.2865 15.3025V19.4192H18.1816C17.8875 19.4192 17.612 19.5629 17.4436 19.8041C17.2753 20.0452 17.2354 20.3534 17.3368 20.6295L18.3867 23.4873L13.6105 23.9839C13.2524 24.0211 12.951 24.2681 12.8441 24.6119C12.7373 24.9557 12.8455 25.3301 13.1194 25.5637L16.6521 28.5776L12.0499 31.3817C11.7872 31.5417 11.6244 31.8249 11.6184 32.1325C11.6123 32.44 11.7637 32.7294 12.0199 32.8997L16.0513 35.58L11.3488 39.7501C11.0958 39.9745 10.9899 40.3217 11.0746 40.649C11.1594 40.9764 11.4204 41.2286 11.7505 41.302L18.3712 42.7746L16.3473 47.4438C16.2267 47.722 16.2543 48.0422 16.4207 48.2957C16.587 48.5491 16.8698 48.7018 17.173 48.7018H22.5071L23.3746 51.7457C23.4494 52.0079 23.6389 52.2221 23.8901 52.3281C24.1413 52.4342 24.427 52.4206 24.667 52.2913L28.256 50.3578L29.6582 52.7006C29.787 52.9158 29.9997 53.0675 30.2451 53.1191C30.4905 53.1708 30.7463 53.1177 30.9509 52.9727L34.8206 50.2295L38.2692 52.2732C38.5185 52.4209 38.8236 52.4396 39.089 52.3234C39.3544 52.2073 39.5476 51.9704 39.6082 51.6871L40.2462 48.7018H44.3914C44.669 48.7018 44.931 48.5737 45.1015 48.3548C45.272 48.1358 45.332 47.8504 45.264 47.5813L44.582 44.8813H48.4744C48.8124 44.8813 49.1218 44.692 49.2757 44.3911C49.4296 44.0901 49.4019 43.7284 49.204 43.4544L46.6742 39.9514L51.7523 37.9152C52.0937 37.7784 52.3174 37.4476 52.3174 37.0799C52.3174 36.7121 52.0937 36.3814 51.7523 36.2445L46.8709 34.2872L49.1108 32.0472C49.3007 31.8572 49.3959 31.5924 49.3703 31.325C49.3447 31.0576 49.201 30.8156 48.9784 30.6652L46.9395 29.2868L49.1419 26.8514C49.361 26.6091 49.4316 26.2672 49.3265 25.9579C49.2213 25.6487 48.9568 25.4207 48.6355 25.3622L45.0056 24.7018L46.4038 21.4447C46.5232 21.1666 46.4948 20.8471 46.3283 20.5944C46.1618 20.3418 45.8794 20.1897 45.5768 20.1897H41.7429L42.6689 16.2424C42.7445 15.9202 42.6371 15.5825 42.3893 15.363C42.1416 15.1436 41.7934 15.0779 41.4827 15.1919L36.4382 17.0425L35.6444 14.1644C35.5624 13.8671 35.3339 13.6324 35.0388 13.5426C34.7867 13.4659 34.5161 13.504 34.2968 13.6423Z"/>
</mask>
<path fill-rule="evenodd" clip-rule="evenodd" d="M32.16 8.97079C30.7156 11.4491 30.9781 14.1332 31.4153 15.5824H32.028L32.1793 15.4521C32.2208 13.3241 33.2097 11.3086 34.0723 9.99576C34.114 9.9322 34.1272 9.84612 34.1053 9.76739C34.0849 9.69416 34.0485 9.66838 34.0211 9.65804L32.2106 8.97541C32.1877 8.96676 32.1692 8.96831 32.16 8.97079ZM34.2968 13.6423C34.5997 12.6629 35.0815 11.7377 35.5766 10.9842C36.2327 9.98557 35.9277 8.45324 34.6561 7.97379L32.8457 7.29116C32.0552 6.99312 31.0846 7.24329 30.6097 8.05614C29.6131 9.76216 29.2757 11.5327 29.2701 13.0788C29.0612 12.8348 28.7375 12.7202 28.4207 12.7796C28.0959 12.8405 27.8306 13.0744 27.7296 13.389L26.6496 16.7524L23.7229 14.5799C23.4498 14.3772 23.0858 14.3457 22.782 14.4985C22.4782 14.6514 22.2865 14.9624 22.2865 15.3025V19.4192H18.1816C17.8875 19.4192 17.612 19.5629 17.4436 19.8041C17.2753 20.0452 17.2354 20.3534 17.3368 20.6295L18.3867 23.4873L13.6105 23.9839C13.2524 24.0211 12.951 24.2681 12.8441 24.6119C12.7373 24.9557 12.8455 25.3301 13.1194 25.5637L16.6521 28.5776L12.0499 31.3817C11.7872 31.5417 11.6244 31.8249 11.6184 32.1325C11.6123 32.44 11.7637 32.7294 12.0199 32.8997L16.0513 35.58L11.3488 39.7501C11.0958 39.9745 10.9899 40.3217 11.0746 40.649C11.1594 40.9764 11.4204 41.2286 11.7505 41.302L18.3712 42.7746L16.3473 47.4438C16.2267 47.722 16.2543 48.0422 16.4207 48.2957C16.587 48.5491 16.8698 48.7018 17.173 48.7018H22.5071L23.3746 51.7457C23.4494 52.0079 23.6389 52.2221 23.8901 52.3281C24.1413 52.4342 24.427 52.4206 24.667 52.2913L28.256 50.3578L29.6582 52.7006C29.787 52.9158 29.9997 53.0675 30.2451 53.1191C30.4905 53.1708 30.7463 53.1177 30.9509 52.9727L34.8206 50.2295L38.2692 52.2732C38.5185 52.4209 38.8236 52.4396 39.089 52.3234C39.3544 52.2073 39.5476 51.9704 39.6082 51.6871L40.2462 48.7018H44.3914C44.669 48.7018 44.931 48.5737 45.1015 48.3548C45.272 48.1358 45.332 47.8504 45.264 47.5813L44.582 44.8813H48.4744C48.8124 44.8813 49.1218 44.692 49.2757 44.3911C49.4296 44.0901 49.4019 43.7284 49.204 43.4544L46.6742 39.9514L51.7523 37.9152C52.0937 37.7784 52.3174 37.4476 52.3174 37.0799C52.3174 36.7121 52.0937 36.3814 51.7523 36.2445L46.8709 34.2872L49.1108 32.0472C49.3007 31.8572 49.3959 31.5924 49.3703 31.325C49.3447 31.0576 49.201 30.8156 48.9784 30.6652L46.9395 29.2868L49.1419 26.8514C49.361 26.6091 49.4316 26.2672 49.3265 25.9579C49.2213 25.6487 48.9568 25.4207 48.6355 25.3622L45.0056 24.7018L46.4038 21.4447C46.5232 21.1666 46.4948 20.8471 46.3283 20.5944C46.1618 20.3418 45.8794 20.1897 45.5768 20.1897H41.7429L42.6689 16.2424C42.7445 15.9202 42.6371 15.5825 42.3893 15.363C42.1416 15.1436 41.7934 15.0779 41.4827 15.1919L36.4382 17.0425L35.6444 14.1644C35.5624 13.8671 35.3339 13.6324 35.0388 13.5426C34.7867 13.4659 34.5161 13.504 34.2968 13.6423Z" fill="#F8F9FA"/>
<path d="M31.4153 15.5824L29.9792 16.0156C30.1703 16.649 30.7537 17.0824 31.4153 17.0824V15.5824ZM32.16 8.97079L31.7675 7.52307C31.3871 7.62622 31.0626 7.87495 30.8641 8.21546L32.16 8.97079ZM32.028 15.5824V17.0824C32.3871 17.0824 32.7344 16.9536 33.0066 16.7192L32.028 15.5824ZM32.1793 15.4521L33.1579 16.5889C33.4812 16.3106 33.6707 15.9079 33.679 15.4814L32.1793 15.4521ZM34.0723 9.99576L32.8187 9.17206L32.8187 9.17207L34.0723 9.99576ZM34.1053 9.76739L35.5503 9.36483L35.5503 9.36481L34.1053 9.76739ZM34.0211 9.65804L34.5503 8.2545L34.5503 8.25449L34.0211 9.65804ZM32.2106 8.97541L32.7398 7.57187L32.7398 7.57186L32.2106 8.97541ZM34.2968 13.6423L32.8638 13.1991C32.6783 13.7988 32.8859 14.4507 33.3841 14.8327C33.8824 15.2147 34.5658 15.246 35.0969 14.9111L34.2968 13.6423ZM35.5766 10.9842L34.323 10.1605L34.323 10.1605L35.5766 10.9842ZM34.6561 7.97379L35.1853 6.57024L35.1853 6.57024L34.6561 7.97379ZM32.8457 7.29116L32.3165 8.6947L32.3165 8.6947L32.8457 7.29116ZM30.6097 8.05614L31.9049 8.81276L31.9049 8.81276L30.6097 8.05614ZM29.2701 13.0788L28.1307 14.0543C28.5384 14.5305 29.1992 14.7029 29.7876 14.4867C30.376 14.2704 30.7678 13.711 30.7701 13.0842L29.2701 13.0788ZM28.4207 12.7796L28.697 14.2539L28.697 14.2539L28.4207 12.7796ZM27.7296 13.389L26.3014 12.9304L26.3014 12.9305L27.7296 13.389ZM26.6496 16.7524L25.7556 17.9568C26.144 18.2452 26.6477 18.3285 27.1083 18.1805C27.5689 18.0326 27.9299 17.6716 28.0778 17.211L26.6496 16.7524ZM23.7229 14.5799L22.8289 15.7843L22.8289 15.7843L23.7229 14.5799ZM22.2865 19.4192V20.9192C23.1149 20.9192 23.7865 20.2476 23.7865 19.4192H22.2865ZM17.4436 19.8041L18.6736 20.6626L18.6736 20.6626L17.4436 19.8041ZM17.3368 20.6295L18.7448 20.1123L18.7448 20.1123L17.3368 20.6295ZM18.3867 23.4873L18.5418 24.9793C19.0021 24.9314 19.4146 24.6737 19.6595 24.281C19.9044 23.8883 19.9543 23.4045 19.7947 22.9701L18.3867 23.4873ZM13.6105 23.9839L13.7656 25.4758L13.7656 25.4758L13.6105 23.9839ZM12.8441 24.6119L11.4117 24.1667L11.4117 24.1667L12.8441 24.6119ZM13.1194 25.5637L12.1459 26.7049L12.1459 26.7049L13.1194 25.5637ZM16.6521 28.5776L17.4325 29.8585C17.8433 29.6083 18.1091 29.1762 18.1473 28.6968C18.1855 28.2173 17.9915 27.7486 17.6256 27.4365L16.6521 28.5776ZM12.0499 31.3817L11.2694 30.1007L11.2694 30.1007L12.0499 31.3817ZM12.0199 32.8997L12.8504 31.6506L12.8504 31.6506L12.0199 32.8997ZM16.0513 35.58L17.0465 36.7023C17.3948 36.3934 17.58 35.9404 17.5477 35.476C17.5154 35.0116 17.2694 34.5886 16.8818 34.3309L16.0513 35.58ZM11.3488 39.7501L12.344 40.8724L12.344 40.8724L11.3488 39.7501ZM11.0746 40.649L12.5268 40.2731L11.0746 40.649ZM11.7505 41.302L12.0762 39.8378L12.0762 39.8378L11.7505 41.302ZM18.3712 42.7746L19.7475 43.3712C19.9255 42.9606 19.9108 42.492 19.7076 42.0934C19.5044 41.6947 19.1337 41.4076 18.6969 41.3104L18.3712 42.7746ZM16.3473 47.4438L14.971 46.8473L14.971 46.8473L16.3473 47.4438ZM16.4207 48.2957L15.1667 49.1188L15.1667 49.1188L16.4207 48.2957ZM22.5071 48.7018L23.9497 48.2907C23.7661 47.6462 23.1772 47.2018 22.5071 47.2018V48.7018ZM23.3746 51.7457L21.9321 52.1568L21.9321 52.1568L23.3746 51.7457ZM23.8901 52.3281L24.4736 50.9462L24.4735 50.9462L23.8901 52.3281ZM24.667 52.2913L23.9556 50.9708L23.9556 50.9708L24.667 52.2913ZM28.256 50.3578L29.5431 49.5874C29.1312 48.8992 28.2507 48.6568 27.5446 49.0372L28.256 50.3578ZM29.6582 52.7006L28.3711 53.4709L28.3711 53.4709L29.6582 52.7006ZM30.9509 52.9727L30.0835 51.7489L30.0835 51.7489L30.9509 52.9727ZM34.8206 50.2295L35.5853 48.9391C35.0758 48.6372 34.4363 48.6633 33.9531 49.0058L34.8206 50.2295ZM38.2692 52.2732L37.5045 53.5637L37.5045 53.5637L38.2692 52.2732ZM39.089 52.3234L38.4874 50.9493L38.4874 50.9493L39.089 52.3234ZM39.6082 51.6871L38.1413 51.3736L38.1413 51.3736L39.6082 51.6871ZM40.2462 48.7018V47.2018C39.5386 47.2018 38.9273 47.6963 38.7794 48.3883L40.2462 48.7018ZM45.1015 48.3548L43.9181 47.4331L43.9181 47.4331L45.1015 48.3548ZM45.264 47.5813L43.8097 47.9487L43.8097 47.9487L45.264 47.5813ZM44.582 44.8813V43.3813C44.1194 43.3813 43.6827 43.5947 43.3985 43.9597C43.1143 44.3246 43.0144 44.8002 43.1277 45.2487L44.582 44.8813ZM49.2757 44.3911L50.6112 45.074L50.6112 45.0739L49.2757 44.3911ZM49.204 43.4544L50.4201 42.5762L50.42 42.5762L49.204 43.4544ZM46.6742 39.9514L46.1159 38.5592C45.6874 38.731 45.3619 39.0906 45.2334 39.534C45.1049 39.9774 45.1878 40.4553 45.4581 40.8296L46.6742 39.9514ZM51.7523 37.9152L51.1941 36.523L51.1941 36.523L51.7523 37.9152ZM51.7523 36.2445L51.1941 37.6368L51.1941 37.6368L51.7523 36.2445ZM46.8709 34.2872L45.8102 33.2266C45.4538 33.5829 45.3002 34.0945 45.4014 34.5882C45.5025 35.0819 45.8448 35.4919 46.3126 35.6794L46.8709 34.2872ZM49.1108 32.0472L48.0501 30.9865L48.0501 30.9865L49.1108 32.0472ZM49.3703 31.325L47.8771 31.468L47.8771 31.468L49.3703 31.325ZM48.9784 30.6652L48.1384 31.9079L48.1384 31.9079L48.9784 30.6652ZM46.9395 29.2868L45.827 28.2808C45.5355 28.6031 45.3982 29.0359 45.4504 29.4673C45.5027 29.8986 45.7395 30.2862 46.0995 30.5295L46.9395 29.2868ZM49.1419 26.8514L50.2545 27.8574L50.2545 27.8574L49.1419 26.8514ZM49.3265 25.9579L47.9063 26.4409L47.9063 26.4409L49.3265 25.9579ZM48.6355 25.3622L48.904 23.8865L48.904 23.8865L48.6355 25.3622ZM45.0056 24.7018L43.6273 24.1101C43.4471 24.5298 43.468 25.0088 43.684 25.4113C43.9 25.8137 44.2877 26.0958 44.7371 26.1776L45.0056 24.7018ZM46.4038 21.4447L45.0255 20.853L45.0255 20.853L46.4038 21.4447ZM46.3283 20.5944L47.5808 19.7691L47.5808 19.7691L46.3283 20.5944ZM41.7429 20.1897L40.2825 19.8471C40.1779 20.293 40.2828 20.7624 40.5673 21.1214C40.8518 21.4804 41.2848 21.6897 41.7429 21.6897V20.1897ZM42.6689 16.2424L44.1292 16.585L44.1292 16.585L42.6689 16.2424ZM41.4827 15.1919L41.9993 16.6001L41.9993 16.6001L41.4827 15.1919ZM36.4382 17.0425L34.9922 17.4413C35.1037 17.8456 35.3792 18.1847 35.7521 18.3764C36.125 18.5682 36.5612 18.5952 36.9548 18.4507L36.4382 17.0425ZM35.6444 14.1644L37.0904 13.7655L37.0904 13.7655L35.6444 14.1644ZM35.0388 13.5426L35.4756 12.1076L35.4756 12.1076L35.0388 13.5426ZM32.8514 15.1492C32.4901 13.9514 32.2876 11.7307 33.456 9.72613L30.8641 8.21546C29.1435 11.1675 29.4662 14.315 29.9792 16.0156L32.8514 15.1492ZM32.028 14.0824H31.4153V17.0824H32.028V14.0824ZM33.0066 16.7192L33.1579 16.5889L31.2007 14.3154L31.0493 14.4456L33.0066 16.7192ZM32.8187 9.17207C31.8872 10.5897 30.729 12.8879 30.6796 15.4229L33.679 15.4814C33.7126 13.7604 34.5322 12.0275 35.3259 10.8194L32.8187 9.17207ZM32.6603 10.1699C32.5713 9.85039 32.612 9.48656 32.8187 9.17206L35.3259 10.8195C35.616 10.3778 35.6832 9.84186 35.5503 9.36483L32.6603 10.1699ZM33.4919 11.0616C33.3136 10.9944 33.1157 10.8772 32.9469 10.6882C32.7832 10.5048 32.7004 10.3137 32.6603 10.17L35.5503 9.36481C35.4089 8.85754 35.0501 8.44296 34.5503 8.2545L33.4919 11.0616ZM31.6814 10.379L33.4919 11.0616L34.5503 8.25449L32.7398 7.57187L31.6814 10.379ZM32.5526 10.4185C32.2644 10.4967 31.96 10.484 31.6814 10.379L32.7398 7.57186C32.4153 7.44952 32.074 7.43994 31.7675 7.52307L32.5526 10.4185ZM35.7298 14.0855C35.982 13.2703 36.3934 12.4727 36.8302 11.8079L34.323 10.1605C33.7696 11.0027 33.2175 12.0554 32.8638 13.1991L35.7298 14.0855ZM36.8302 11.8079C37.9227 10.1452 37.5054 7.44504 35.1853 6.57024L34.1269 9.37733C34.2681 9.43056 34.351 9.52641 34.391 9.675C34.4382 9.84978 34.4039 10.0373 34.323 10.1605L36.8302 11.8079ZM35.1853 6.57024L33.3749 5.88761L32.3165 8.6947L34.1269 9.37733L35.1853 6.57024ZM33.3749 5.88761C31.9852 5.36366 30.2026 5.77934 29.3145 7.29952L31.9049 8.81276C31.9436 8.74654 31.9942 8.70858 32.0621 8.68711C32.1409 8.66215 32.2353 8.66411 32.3165 8.6947L33.3749 5.88761ZM29.3145 7.29952C28.1606 9.27475 27.7764 11.3154 27.7701 13.0733L30.7701 13.0842C30.7749 11.75 31.0656 10.2496 31.9049 8.81276L29.3145 7.29952ZM28.697 14.2539C28.4858 14.2935 28.27 14.2171 28.1307 14.0543L30.4095 12.1032C29.8525 11.4526 28.9893 11.1469 28.1444 11.3053L28.697 14.2539ZM29.1578 13.8476C29.0904 14.0574 28.9136 14.2133 28.697 14.2539L28.1444 11.3053C27.2783 11.4676 26.5708 12.0915 26.3014 12.9304L29.1578 13.8476ZM28.0778 17.211L29.1578 13.8476L26.3014 12.9305L25.2215 16.2938L28.0778 17.211ZM22.8289 15.7843L25.7556 17.9568L27.5437 15.5479L24.617 13.3754L22.8289 15.7843ZM23.4561 15.8385C23.2536 15.9404 23.0109 15.9194 22.8289 15.7843L24.617 13.3754C23.8888 12.8349 22.918 12.751 22.1079 13.1586L23.4561 15.8385ZM23.7865 15.3025C23.7865 15.5293 23.6587 15.7366 23.4561 15.8385L22.1079 13.1586C21.2977 13.5662 20.7865 14.3956 20.7865 15.3025H23.7865ZM23.7865 19.4192V15.3025H20.7865V19.4192H23.7865ZM18.1816 20.9192H22.2865V17.9192H18.1816V20.9192ZM18.6736 20.6626C18.5614 20.8234 18.3777 20.9192 18.1816 20.9192V17.9192C17.3973 17.9192 16.6625 18.3024 16.2136 18.9455L18.6736 20.6626ZM18.7448 20.1123C18.8125 20.2963 18.7859 20.5018 18.6736 20.6626L16.2136 18.9455C15.7647 19.5887 15.6584 20.4106 15.9288 21.1468L18.7448 20.1123ZM19.7947 22.9701L18.7448 20.1123L15.9288 21.1468L16.9787 24.0046L19.7947 22.9701ZM13.7656 25.4758L18.5418 24.9793L18.2316 21.9954L13.4554 22.4919L13.7656 25.4758ZM14.2765 25.0571C14.2053 25.2863 14.0043 25.451 13.7656 25.4758L13.4554 22.4919C12.5005 22.5912 11.6967 23.2499 11.4117 24.1667L14.2765 25.0571ZM14.093 24.4226C14.2756 24.5784 14.3478 24.828 14.2765 25.0571L11.4117 24.1667C11.1268 25.0834 11.4155 26.0818 12.1459 26.7049L14.093 24.4226ZM17.6256 27.4365L14.093 24.4226L12.1459 26.7049L15.6785 29.7187L17.6256 27.4365ZM12.8304 32.6626L17.4325 29.8585L15.8716 27.2966L11.2694 30.1007L12.8304 32.6626ZM13.1181 32.1621C13.114 32.3671 13.0055 32.5559 12.8304 32.6626L11.2694 30.1007C10.5689 30.5275 10.1349 31.2826 10.1187 32.1028L13.1181 32.1621ZM12.8504 31.6506C13.0212 31.7641 13.1221 31.957 13.1181 32.1621L10.1187 32.1028C10.1025 32.923 10.5063 33.6947 11.1894 34.1488L12.8504 31.6506ZM16.8818 34.3309L12.8504 31.6506L11.1894 34.1488L15.2208 36.8291L16.8818 34.3309ZM12.344 40.8724L17.0465 36.7023L15.0561 34.4577L10.3536 38.6278L12.344 40.8724ZM12.5268 40.2731C12.5833 40.4914 12.5127 40.7228 12.344 40.8724L10.3536 38.6278C9.67892 39.2261 9.39654 40.152 9.62251 41.0249L12.5268 40.2731ZM12.0762 39.8378C12.2962 39.8867 12.4703 40.0549 12.5268 40.2731L9.62251 41.0249C9.84847 41.8978 10.5447 42.5705 11.4248 42.7662L12.0762 39.8378ZM18.6969 41.3104L12.0762 39.8378L11.4248 42.7662L18.0456 44.2389L18.6969 41.3104ZM17.7235 48.0404L19.7475 43.3712L16.995 42.1781L14.971 46.8473L17.7235 48.0404ZM17.6746 47.4725C17.7855 47.6415 17.8039 47.8549 17.7235 48.0404L14.971 46.8473C14.6495 47.5891 14.723 48.4429 15.1667 49.1188L17.6746 47.4725ZM17.173 47.2018C17.3752 47.2018 17.5637 47.3035 17.6746 47.4725L15.1667 49.1188C15.6104 49.7947 16.3645 50.2018 17.173 50.2018V47.2018ZM22.5071 47.2018H17.173V50.2018H22.5071V47.2018ZM24.8172 51.3345L23.9497 48.2907L21.0646 49.1129L21.9321 52.1568L24.8172 51.3345ZM24.4735 50.9462C24.641 51.0169 24.7674 51.1597 24.8172 51.3345L21.9321 52.1568C22.1314 52.856 22.6369 53.4272 23.3067 53.71L24.4735 50.9462ZM23.9556 50.9708C24.1156 50.8846 24.3061 50.8755 24.4736 50.9462L23.3067 53.71C23.9765 53.9928 24.7384 53.9567 25.3785 53.6119L23.9556 50.9708ZM27.5446 49.0372L23.9556 50.9708L25.3785 53.6119L28.9675 51.6783L27.5446 49.0372ZM30.9453 51.9303L29.5431 49.5874L26.9689 51.1281L28.3711 53.4709L30.9453 51.9303ZM30.554 51.6513C30.7176 51.6857 30.8594 51.7868 30.9453 51.9303L28.3711 53.4709C28.7145 54.0447 29.2818 54.4493 29.9362 54.587L30.554 51.6513ZM30.0835 51.7489C30.2199 51.6522 30.3904 51.6169 30.554 51.6513L29.9362 54.587C30.5906 54.7247 31.2728 54.5831 31.8184 54.1964L30.0835 51.7489ZM33.9531 49.0058L30.0835 51.7489L31.8184 54.1964L35.6881 51.4533L33.9531 49.0058ZM39.0339 50.9828L35.5853 48.9391L34.0559 51.52L37.5045 53.5637L39.0339 50.9828ZM38.4874 50.9493C38.6644 50.8719 38.8678 50.8843 39.0339 50.9828L37.5045 53.5637C38.1691 53.9575 38.9827 54.0074 39.6905 53.6975L38.4874 50.9493ZM38.1413 51.3736C38.1817 51.1847 38.3105 51.0268 38.4874 50.9493L39.6905 53.6975C40.3982 53.3877 40.9136 52.7561 41.075 52.0006L38.1413 51.3736ZM38.7794 48.3883L38.1413 51.3736L41.075 52.0006L41.7131 49.0153L38.7794 48.3883ZM44.3914 47.2018H40.2462V50.2018H44.3914V47.2018ZM43.9181 47.4331C44.0317 47.2871 44.2064 47.2018 44.3914 47.2018V50.2018C45.1315 50.2018 45.8302 49.8603 46.285 49.2764L43.9181 47.4331ZM43.8097 47.9487C43.7644 47.7693 43.8044 47.5791 43.9181 47.4331L46.2849 49.2764C46.7397 48.6926 46.8996 47.9315 46.7183 47.214L43.8097 47.9487ZM43.1277 45.2487L43.8097 47.9487L46.7183 47.214L46.0363 44.5139L43.1277 45.2487ZM48.4744 43.3813H44.582V46.3813H48.4744V43.3813ZM47.9402 43.7082C48.0428 43.5076 48.2491 43.3813 48.4744 43.3813V46.3813C49.3757 46.3813 50.2009 45.8764 50.6112 45.074L47.9402 43.7082ZM47.988 44.3326C47.8561 44.1499 47.8376 43.9088 47.9402 43.7082L50.6112 45.0739C51.0216 44.2715 50.9477 43.3068 50.4201 42.5762L47.988 44.3326ZM45.4581 40.8296L47.988 44.3326L50.42 42.5762L47.8902 39.0732L45.4581 40.8296ZM51.1941 36.523L46.1159 38.5592L47.2324 41.3437L52.3106 39.3075L51.1941 36.523ZM50.8174 37.0799C50.8174 36.8347 50.9665 36.6142 51.1941 36.523L52.3106 39.3075C53.2208 38.9425 53.8174 38.0605 53.8174 37.0799H50.8174ZM51.1941 37.6368C50.9665 37.5455 50.8174 37.325 50.8174 37.0799H53.8174C53.8174 36.0992 53.2208 35.2172 52.3106 34.8523L51.1941 37.6368ZM46.3126 35.6794L51.1941 37.6368L52.3106 34.8523L47.4291 32.8949L46.3126 35.6794ZM48.0501 30.9865L45.8102 33.2266L47.9315 35.3478L50.1715 33.1078L48.0501 30.9865ZM47.8771 31.468C47.86 31.2897 47.9235 31.1132 48.0501 30.9865L50.1715 33.1078C50.678 32.6013 50.9317 31.895 50.8635 31.182L47.8771 31.468ZM48.1384 31.9079C47.99 31.8076 47.8942 31.6463 47.8771 31.468L50.8635 31.182C50.7952 30.469 50.412 29.8237 49.8185 29.4225L48.1384 31.9079ZM46.0995 30.5295L48.1384 31.9079L49.8185 29.4225L47.7796 28.0442L46.0995 30.5295ZM48.0294 25.8453L45.827 28.2808L48.0521 30.2929L50.2545 27.8574L48.0294 25.8453ZM47.9063 26.4409C47.8362 26.2347 47.8833 26.0068 48.0294 25.8453L50.2545 27.8574C50.8387 27.2114 51.027 26.2996 50.7466 25.475L47.9063 26.4409ZM48.367 26.838C48.1528 26.799 47.9764 26.647 47.9063 26.4409L50.7466 25.475C50.4661 24.6503 49.7609 24.0424 48.904 23.8865L48.367 26.838ZM44.7371 26.1776L48.367 26.838L48.904 23.8865L45.2741 23.226L44.7371 26.1776ZM45.0255 20.853L43.6273 24.1101L46.384 25.2935L47.7822 22.0364L45.0255 20.853ZM45.0758 21.4198C44.9648 21.2514 44.9459 21.0384 45.0255 20.853L47.7822 22.0364C48.1005 21.2948 48.0249 20.4429 47.5808 19.7691L45.0758 21.4198ZM45.5768 21.6897C45.3751 21.6897 45.1868 21.5883 45.0758 21.4198L47.5808 19.7691C47.1368 19.0952 46.3838 18.6897 45.5768 18.6897V21.6897ZM41.7429 21.6897H45.5768V18.6897H41.7429V21.6897ZM41.2085 15.8998L40.2825 19.8471L43.2032 20.5323L44.1292 16.585L41.2085 15.8998ZM41.3949 16.486C41.2297 16.3397 41.1581 16.1146 41.2085 15.8998L44.1292 16.585C44.3308 15.7257 44.0445 14.8252 43.3838 14.2401L41.3949 16.486ZM41.9993 16.6001C41.7922 16.6761 41.56 16.6323 41.3949 16.486L43.3838 14.2401C42.7231 13.655 41.7946 13.4797 40.966 13.7837L41.9993 16.6001ZM36.9548 18.4507L41.9993 16.6001L40.9661 13.7837L35.9216 15.6343L36.9548 18.4507ZM34.1984 14.5632L34.9922 17.4413L37.8842 16.6437L37.0904 13.7655L34.1984 14.5632ZM34.6021 14.9776C34.4054 14.9178 34.253 14.7614 34.1984 14.5632L37.0904 13.7655C36.8717 12.9727 36.2624 12.3471 35.4756 12.1076L34.6021 14.9776ZM35.0969 14.9111C34.9507 15.0033 34.7703 15.0289 34.6021 14.9776L35.4756 12.1076C34.8031 11.903 34.0814 12.0048 33.4967 12.3735L35.0969 14.9111Z" fill="#F8F9FA" mask="url(#path-1-outside-1_50_9500)"/>
<path d="M31.4253 8.49409C29.5825 11.6486 30.2246 15.0726 30.8219 16.4664H33.1849C32.8368 14.2618 33.8819 11.967 34.8629 10.4739C35.2483 9.88743 35.0337 9.04749 34.3771 8.79989L32.5666 8.11727C32.1408 7.95673 31.6548 8.1012 31.4253 8.49409Z" fill="#D9480F" stroke="#212529" stroke-width="1.8" stroke-linecap="round" stroke-linejoin="round"/>
<path d="M27.1608 18.2084L28.625 13.6484L31.5226 17.2224L34.8152 14.3879L35.8689 18.2084L41.8311 16.0211L40.6457 21.0739H45.6153L43.7714 25.3693L48.5128 26.232L45.6153 29.4362L48.5128 31.3951L45.3087 34.5993L51.4558 37.0641L45.3087 39.5289L48.5128 43.9656H43.4648L44.4299 47.786H39.5567L38.7665 51.4832L34.8152 49.1417L30.4689 52.2227L28.625 49.1417L24.2786 51.4832L23.2249 47.786H17.2115L19.6689 42.117L11.9844 40.4077L17.5615 35.462L12.5566 32.1345L18.2201 28.6838L13.742 24.8633L19.6689 24.2471L18.2201 20.3034H23.2249V15.2868L27.1608 18.2084Z" fill="#FFD43B" stroke="#212529" stroke-width="1.6" stroke-linecap="round" stroke-linejoin="round"/>
<g style="mix-blend-mode:multiply" opacity="0.4">
<path fill-rule="evenodd" clip-rule="evenodd" d="M25.4548 16.942L25.3664 17.2175L23.2249 15.6279V15.2868L25.4548 16.942ZM28.3438 14.5241L29.7282 16.2316L30.3118 15.7291L28.625 13.6484L28.3438 14.5241ZM33.586 15.4461L34.0745 17.2175L35.4559 16.7108L34.8152 14.3879L33.586 15.4461ZM39.6134 16.8347L38.8513 20.0831H40.8782L41.8311 16.0211L39.6134 16.8347ZM43.3955 21.0739L41.9769 24.3784L44.0359 24.753L45.6153 21.0739H43.3955ZM46.2025 25.8116L43.8209 28.4454L46.7184 30.4042L43.5143 33.6085L45.5024 34.4056L48.5128 31.3951L45.6153 29.4362L48.5128 26.232L46.2025 25.8116ZM49.3231 36.2089L43.5143 38.5381L46.7184 42.9747H41.6704L42.6355 46.7952H37.7623L36.9858 50.428L38.7665 51.4832L39.5567 47.786H44.4299L43.4648 43.9656H48.5128L45.3087 39.5289L51.4558 37.0641L49.3231 36.2089ZM34.7595 49.1812L33.0208 48.1508L29.518 50.6339L30.4689 52.2227L34.7595 49.1812ZM27.7165 49.6311L26.8305 48.1508L23.795 49.7862L24.2786 51.4832L27.7165 49.6311ZM21.7129 47.786L21.4305 46.7952H17.641L17.2115 47.786H21.7129ZM17.6405 41.6658L17.8745 41.1261L12.5178 39.9347L11.9844 40.4077L17.6405 41.6658Z" fill="#FFA94D"/>
</g>
<path opacity="0.9" d="M35.8128 24.1396L39.0324 24.9378L36.4828 27.9023L40.0204 29.4661L36.7078 31.8947L40.0204 33.9923L36.2501 35.5051M28.4907 43.4969L30.9099 45.4744L31.9446 42.2044L35.1826 43.0652L34.8588 39.4494" stroke="#212529" stroke-width="1.2" stroke-linecap="round" stroke-linejoin="round"/>
<g style="mix-blend-mode:multiply" opacity="0.4">
<path fill-rule="evenodd" clip-rule="evenodd" d="M26.7732 38.7411C26.7426 39.0518 26.4659 39.279 26.1552 39.2484L23.2499 38.9626C23.0663 38.9446 22.9031 38.8381 22.8126 38.6774C22.722 38.5166 22.7157 38.3218 22.7954 38.1555L23.7272 36.2126L21.7737 35.1611C21.6087 35.0723 21.4984 34.9074 21.4793 34.7209C21.4602 34.5345 21.5347 34.3507 21.6783 34.2302L23.603 32.615C23.8422 32.4142 24.1988 32.4454 24.3995 32.6846C24.6002 32.9238 24.569 33.2804 24.3299 33.4811L23.0436 34.5605L24.7383 35.4727C25.0042 35.6159 25.1107 35.9427 24.9801 36.215L24.1642 37.9164L26.2659 38.1231C26.5766 38.1536 26.8038 38.4303 26.7732 38.7411Z" fill="#FFA94D"/>
</g>
<g style="mix-blend-mode:multiply" opacity="0.4">
<path d="M36.568 37.0707L40.3398 34.623L36.1667 36.188L36.568 37.0707Z" fill="#FFA94D"/>
</g>
<g style="mix-blend-mode:multiply" opacity="0.4">
<path d="M32.1958 43.7758L35.0976 43.7758L32.3949 43.0391L32.1958 43.7758Z" fill="#FFA94D"/>
</g>
</svg>
