<svg width="60" height="60" viewBox="0 0 60 60" fill="none" xmlns="http://www.w3.org/2000/svg">
<mask id="path-1-outside-1_50_400" maskUnits="userSpaceOnUse" x="6.42688" y="11.3611" width="47" height="37" fill="black">
<rect fill="white" x="6.42688" y="11.3611" width="47" height="37"/>
<path fill-rule="evenodd" clip-rule="evenodd" d="M8.42688 16.3611C8.42688 14.7042 9.77003 13.3611 11.4269 13.3611H27.6555C27.9647 13.3611 28.2564 13.5041 28.4458 13.7484L29.0993 14.5912H44.8929C45.2375 14.5912 45.5578 14.7686 45.7406 15.0608L47.8411 18.4173H48.5883C50.2451 18.4173 51.5883 19.7605 51.5883 21.4173V43.6822C51.5883 45.3391 50.2451 46.6822 48.5883 46.6822H11.4269C9.77003 46.6822 8.42688 45.3391 8.42688 43.6822V16.3611ZM45.3887 18.2686L44.339 16.5912H30.6894L32.0006 18.2686H45.3887ZM11.4269 15.3611C10.8746 15.3611 10.4269 15.8088 10.4269 16.3611V43.6822C10.4269 44.2345 10.8746 44.6822 11.4269 44.6822H48.5883C49.1405 44.6822 49.5883 44.2345 49.5883 43.6822V21.4173C49.5883 20.865 49.1405 20.4173 48.5883 20.4173H31.5756C31.2665 20.4173 30.9747 20.2744 30.7853 20.03L27.1655 15.3611H11.4269Z"/>
</mask>
<path fill-rule="evenodd" clip-rule="evenodd" d="M8.42688 16.3611C8.42688 14.7042 9.77003 13.3611 11.4269 13.3611H27.6555C27.9647 13.3611 28.2564 13.5041 28.4458 13.7484L29.0993 14.5912H44.8929C45.2375 14.5912 45.5578 14.7686 45.7406 15.0608L47.8411 18.4173H48.5883C50.2451 18.4173 51.5883 19.7605 51.5883 21.4173V43.6822C51.5883 45.3391 50.2451 46.6822 48.5883 46.6822H11.4269C9.77003 46.6822 8.42688 45.3391 8.42688 43.6822V16.3611ZM45.3887 18.2686L44.339 16.5912H30.6894L32.0006 18.2686H45.3887ZM11.4269 15.3611C10.8746 15.3611 10.4269 15.8088 10.4269 16.3611V43.6822C10.4269 44.2345 10.8746 44.6822 11.4269 44.6822H48.5883C49.1405 44.6822 49.5883 44.2345 49.5883 43.6822V21.4173C49.5883 20.865 49.1405 20.4173 48.5883 20.4173H31.5756C31.2665 20.4173 30.9747 20.2744 30.7853 20.03L27.1655 15.3611H11.4269Z" fill="#F8F9FA"/>
<path d="M28.4458 13.7484L27.2604 14.6674L27.2604 14.6674L28.4458 13.7484ZM29.0993 14.5912L27.9138 15.5103C28.198 15.8768 28.6356 16.0912 29.0993 16.0912V14.5912ZM45.7406 15.0608L47.0122 14.2651L47.0122 14.2651L45.7406 15.0608ZM47.8411 18.4173L46.5695 19.213C46.8437 19.6512 47.3242 19.9173 47.8411 19.9173V18.4173ZM44.339 16.5912L45.6106 15.7955C45.3364 15.3574 44.8559 15.0912 44.339 15.0912V16.5912ZM45.3887 18.2686V19.7686C45.9341 19.7686 46.4366 19.4725 46.7008 18.9954C46.9651 18.5182 46.9496 17.9352 46.6602 17.4729L45.3887 18.2686ZM30.6894 16.5912V15.0912C30.1158 15.0912 29.5924 15.4183 29.3411 15.9339C29.0897 16.4494 29.1543 17.0632 29.5076 17.515L30.6894 16.5912ZM32.0006 18.2686L30.8188 19.1924C31.1031 19.5561 31.539 19.7686 32.0006 19.7686V18.2686ZM30.7853 20.03L31.9708 19.111L31.9708 19.111L30.7853 20.03ZM27.1655 15.3611L28.3509 14.442C28.0668 14.0755 27.6292 13.8611 27.1655 13.8611V15.3611ZM11.4269 11.8611C8.9416 11.8611 6.92688 13.8758 6.92688 16.3611H9.92688C9.92688 15.5327 10.5985 14.8611 11.4269 14.8611V11.8611ZM27.6555 11.8611H11.4269V14.8611H27.6555V11.8611ZM29.6313 12.8293C29.1577 12.2185 28.4283 11.8611 27.6555 11.8611V14.8611C27.501 14.8611 27.3551 14.7896 27.2604 14.6674L29.6313 12.8293ZM30.2847 13.6722L29.6313 12.8293L27.2604 14.6674L27.9138 15.5103L30.2847 13.6722ZM44.8929 13.0912H29.0993V16.0912H44.8929V13.0912ZM47.0122 14.2651C46.5552 13.5348 45.7544 13.0912 44.8929 13.0912V16.0912C44.7206 16.0912 44.5605 16.0025 44.4691 15.8565L47.0122 14.2651ZM49.1126 17.6216L47.0122 14.2651L44.4691 15.8565L46.5695 19.213L49.1126 17.6216ZM48.5883 16.9173H47.8411V19.9173H48.5883V16.9173ZM53.0883 21.4173C53.0883 18.932 51.0735 16.9173 48.5883 16.9173V19.9173C49.4167 19.9173 50.0883 20.5889 50.0883 21.4173H53.0883ZM53.0883 43.6822V21.4173H50.0883V43.6822H53.0883ZM48.5883 48.1822C51.0735 48.1822 53.0883 46.1675 53.0883 43.6822H50.0883C50.0883 44.5106 49.4167 45.1822 48.5883 45.1822V48.1822ZM11.4269 48.1822H48.5883V45.1822H11.4269V48.1822ZM6.92688 43.6822C6.92688 46.1675 8.9416 48.1822 11.4269 48.1822V45.1822C10.5985 45.1822 9.92688 44.5106 9.92688 43.6822H6.92688ZM6.92688 16.3611V43.6822H9.92688V16.3611H6.92688ZM43.0675 17.3869L44.1171 19.0643L46.6602 17.4729L45.6106 15.7955L43.0675 17.3869ZM30.6894 18.0912H44.339V15.0912H30.6894V18.0912ZM33.1823 17.3448L31.8711 15.6674L29.5076 17.515L30.8188 19.1924L33.1823 17.3448ZM45.3887 16.7686H32.0006V19.7686H45.3887V16.7686ZM11.9269 16.3611C11.9269 16.6372 11.703 16.8611 11.4269 16.8611V13.8611C10.0462 13.8611 8.92688 14.9804 8.92688 16.3611H11.9269ZM11.9269 43.6822V16.3611H8.92688V43.6822H11.9269ZM11.4269 43.1822C11.703 43.1822 11.9269 43.4061 11.9269 43.6822H8.92688C8.92688 45.0629 10.0462 46.1822 11.4269 46.1822V43.1822ZM48.5883 43.1822H11.4269V46.1822H48.5883V43.1822ZM48.0883 43.6822C48.0883 43.4061 48.3121 43.1822 48.5883 43.1822V46.1822C49.969 46.1822 51.0883 45.0629 51.0883 43.6822H48.0883ZM48.0883 21.4173V43.6822H51.0883V21.4173H48.0883ZM48.5883 21.9173C48.3121 21.9173 48.0883 21.6935 48.0883 21.4173H51.0883C51.0883 20.0366 49.969 18.9173 48.5883 18.9173V21.9173ZM31.5756 21.9173H48.5883V18.9173H31.5756V21.9173ZM29.5999 20.9491C30.0734 21.5599 30.8028 21.9173 31.5756 21.9173V18.9173C31.7302 18.9173 31.8761 18.9888 31.9708 19.111L29.5999 20.9491ZM25.98 16.2802L29.5999 20.9491L31.9708 19.111L28.3509 14.442L25.98 16.2802ZM11.4269 16.8611H27.1655V13.8611H11.4269V16.8611Z" fill="#F8F9FA" mask="url(#path-1-outside-1_50_400)"/>
<path d="M27.6479 14.3394H11.4193C10.3147 14.3394 9.41931 15.2348 9.41931 16.3394V43.6605C9.41931 44.7651 10.3147 45.6605 11.4193 45.6605H48.5807C49.6853 45.6605 50.5807 44.7651 50.5807 43.6605V21.3957C50.5807 20.2911 49.6853 19.3957 48.5807 19.3957H31.5681L27.6479 14.3394Z" fill="#FFE066" stroke="#212529" stroke-width="2" stroke-linejoin="round"/>
<path d="M29.624 15.7899H31.2811" stroke="#212529"/>
<g style="mix-blend-mode:multiply">
<path fill-rule="evenodd" clip-rule="evenodd" d="M9.42688 43.5304V43.6822C9.42688 44.7868 10.3223 45.6822 11.4269 45.6822H48.5883C49.6928 45.6822 50.5883 44.7868 50.5883 43.6822V21.4173C50.5883 20.3128 49.6928 19.4173 48.5883 19.4173H48.5558V42.5304C48.5558 43.0827 48.1081 43.5304 47.5558 43.5304H9.42688ZM29.9005 17.2567C29.6419 17.2221 29.405 17.0873 29.2429 16.8783L27.2914 14.3611H27.6555L29.9005 17.2567Z" fill="#DEE2E6"/>
</g>
<path d="M44.8853 15.5696H28.6307L31.5054 19.2469H47.1865L44.8853 15.5696Z" fill="#FFEC99" stroke="#212529" stroke-width="1.6" stroke-linejoin="round"/>
<g style="mix-blend-mode:multiply">
<path d="M45.4945 17.7464H32.3445L31.175 16.1412L29.0399 16.2497L31.175 19.9916H46.7775L45.4945 17.7464Z" fill="#DEE2E6"/>
</g>
<path fill-rule="evenodd" clip-rule="evenodd" d="M25.1064 25.2056C25.1064 24.6533 25.5542 24.2056 26.1064 24.2056H33.3906L36.8715 28.0164V38.8922C36.8715 39.4445 36.4237 39.8922 35.8715 39.8922H26.1064C25.5542 39.8922 25.1064 39.4445 25.1064 38.8922V25.2056Z" fill="#F1F3F5" stroke="#212529" stroke-width="1.4" stroke-linejoin="round"/>
<path d="M36.4315 28.6725H32.6151V24.369" stroke="#212529" stroke-width="1.2" stroke-linecap="round" stroke-linejoin="round"/>
</svg>
