<svg width="60" height="61" viewBox="0 0 60 61" fill="none" xmlns="http://www.w3.org/2000/svg">
<mask id="path-1-outside-1_50_2376" maskUnits="userSpaceOnUse" x="5.88867" y="9.26562" width="48" height="45" fill="black">
<rect fill="white" x="5.88867" y="9.26562" width="48" height="45"/>
<path fill-rule="evenodd" clip-rule="evenodd" d="M29.7995 33.04C28.3121 33.04 27.1064 34.2458 27.1064 35.7331L27.1064 49.5725C27.1064 51.0599 28.3121 52.2656 29.7995 52.2656L49.1956 52.2656C50.6829 52.2656 51.8887 51.0599 51.8887 49.5725L51.8887 38.5883C51.8887 37.1826 50.8116 36.0284 49.4377 35.906L48.3583 34.1811C48.2529 34.0125 48.068 33.9101 47.8691 33.9101L39.221 33.9101L38.7775 33.338C38.6317 33.15 38.4072 33.04 38.1694 33.04L29.7995 33.04ZM48.0695 35.8952L40.7601 35.8952L40.1159 35.0643L47.5495 35.0643L48.0695 35.8952ZM39.0742 36.2324L37.7923 34.5789L29.7995 34.5789C29.1621 34.5789 28.6453 35.0957 28.6453 35.7331L28.6453 49.5725C28.6453 50.21 29.1621 50.7267 29.7995 50.7267L49.1956 50.7267C49.833 50.7267 50.3498 50.21 50.3498 49.5725L50.3498 38.5883C50.3498 37.9509 49.833 37.4341 49.1956 37.4341L40.383 37.4341C40.1451 37.4341 39.9206 37.3241 39.7749 37.1362L39.7724 37.133C39.5877 37.102 39.427 36.9825 39.3456 36.8094L39.0742 36.2324ZM10.8044 11.635C9.31701 11.635 8.11127 12.8407 8.11127 14.3281L8.11127 28.1675C8.11127 29.6548 9.31701 30.8606 10.8044 30.8606L30.2004 30.8606C31.6878 30.8606 32.8935 29.6548 32.8935 28.1675L32.8935 17.1833C32.8935 15.7776 31.8165 14.6234 30.4426 14.5009L29.3632 12.7761C29.2578 12.6075 29.0729 12.5051 28.874 12.5051L20.2259 12.5051L19.7823 11.933C19.6366 11.745 19.4121 11.635 19.1742 11.635L10.8044 11.635ZM29.0744 14.4902L21.7649 14.4902L21.1207 13.6593L28.5544 13.6593L29.0744 14.4902ZM19.6168 14.2312L18.7972 13.1739L10.8044 13.1739C10.1669 13.1739 9.65018 13.6907 9.65018 14.3281L9.65018 28.1675C9.65018 28.8049 10.1669 29.3217 10.8044 29.3217L30.2004 29.3217C30.8379 29.3217 31.3546 28.8049 31.3546 28.1675L31.3546 17.1833C31.3546 16.5459 30.8379 16.0291 30.2004 16.0291L21.3879 16.0291C21.152 16.0291 20.9293 15.9209 20.7835 15.7358L20.4741 15.7358C20.215 15.7358 19.9877 15.5631 19.9182 15.3135L19.6168 14.2312ZM14.7848 37.2151L14.7848 43.7384C14.7848 44.6945 15.56 45.4697 16.5161 45.4697L22.9209 45.4697C23.3459 45.4697 23.6904 45.1252 23.6904 44.7002C23.6904 44.2752 23.3459 43.9307 22.9209 43.9307L16.5161 43.9307C16.4099 43.9307 16.3238 43.8446 16.3238 43.7384L16.3238 37.3177L17.8782 38.7436C18.1913 39.0308 18.6781 39.0098 18.9653 38.6967C19.2526 38.3835 19.2316 37.8968 18.9184 37.6095L16.0283 34.9585C15.7358 34.6901 15.2872 34.6884 14.9926 34.9543L12.056 37.6054C11.7405 37.8901 11.7157 38.3767 12.0004 38.6921C12.2852 39.0076 12.7717 39.0324 13.0872 38.7477L14.7848 37.2151ZM44.7671 25.8437L43.2127 24.4178C42.8995 24.1306 42.4128 24.1516 42.1255 24.4647C41.8382 24.7779 41.8592 25.2646 42.1724 25.5519L45.0625 28.2029C45.355 28.4712 45.8036 28.473 46.0982 28.2071L49.0349 25.556C49.3503 25.2712 49.3752 24.7847 49.0904 24.4693C48.8056 24.1538 48.3191 24.1289 48.0036 24.4137L46.306 25.9463L46.306 19.423C46.306 18.4669 45.5309 17.6917 44.5747 17.6917L38.1699 17.6917C37.745 17.6917 37.4005 18.0362 37.4005 18.4612C37.4005 18.8862 37.745 19.2307 38.1699 19.2307L44.5747 19.2307C44.681 19.2307 44.7671 19.3168 44.7671 19.423L44.7671 25.8437Z"/>
</mask>
<path fill-rule="evenodd" clip-rule="evenodd" d="M29.7995 33.04C28.3121 33.04 27.1064 34.2458 27.1064 35.7331L27.1064 49.5725C27.1064 51.0599 28.3121 52.2656 29.7995 52.2656L49.1956 52.2656C50.6829 52.2656 51.8887 51.0599 51.8887 49.5725L51.8887 38.5883C51.8887 37.1826 50.8116 36.0284 49.4377 35.906L48.3583 34.1811C48.2529 34.0125 48.068 33.9101 47.8691 33.9101L39.221 33.9101L38.7775 33.338C38.6317 33.15 38.4072 33.04 38.1694 33.04L29.7995 33.04ZM48.0695 35.8952L40.7601 35.8952L40.1159 35.0643L47.5495 35.0643L48.0695 35.8952ZM39.0742 36.2324L37.7923 34.5789L29.7995 34.5789C29.1621 34.5789 28.6453 35.0957 28.6453 35.7331L28.6453 49.5725C28.6453 50.21 29.1621 50.7267 29.7995 50.7267L49.1956 50.7267C49.833 50.7267 50.3498 50.21 50.3498 49.5725L50.3498 38.5883C50.3498 37.9509 49.833 37.4341 49.1956 37.4341L40.383 37.4341C40.1451 37.4341 39.9206 37.3241 39.7749 37.1362L39.7724 37.133C39.5877 37.102 39.427 36.9825 39.3456 36.8094L39.0742 36.2324ZM10.8044 11.635C9.31701 11.635 8.11127 12.8407 8.11127 14.3281L8.11127 28.1675C8.11127 29.6548 9.31701 30.8606 10.8044 30.8606L30.2004 30.8606C31.6878 30.8606 32.8935 29.6548 32.8935 28.1675L32.8935 17.1833C32.8935 15.7776 31.8165 14.6234 30.4426 14.5009L29.3632 12.7761C29.2578 12.6075 29.0729 12.5051 28.874 12.5051L20.2259 12.5051L19.7823 11.933C19.6366 11.745 19.4121 11.635 19.1742 11.635L10.8044 11.635ZM29.0744 14.4902L21.7649 14.4902L21.1207 13.6593L28.5544 13.6593L29.0744 14.4902ZM19.6168 14.2312L18.7972 13.1739L10.8044 13.1739C10.1669 13.1739 9.65018 13.6907 9.65018 14.3281L9.65018 28.1675C9.65018 28.8049 10.1669 29.3217 10.8044 29.3217L30.2004 29.3217C30.8379 29.3217 31.3546 28.8049 31.3546 28.1675L31.3546 17.1833C31.3546 16.5459 30.8379 16.0291 30.2004 16.0291L21.3879 16.0291C21.152 16.0291 20.9293 15.9209 20.7835 15.7358L20.4741 15.7358C20.215 15.7358 19.9877 15.5631 19.9182 15.3135L19.6168 14.2312ZM14.7848 37.2151L14.7848 43.7384C14.7848 44.6945 15.56 45.4697 16.5161 45.4697L22.9209 45.4697C23.3459 45.4697 23.6904 45.1252 23.6904 44.7002C23.6904 44.2752 23.3459 43.9307 22.9209 43.9307L16.5161 43.9307C16.4099 43.9307 16.3238 43.8446 16.3238 43.7384L16.3238 37.3177L17.8782 38.7436C18.1913 39.0308 18.6781 39.0098 18.9653 38.6967C19.2526 38.3835 19.2316 37.8968 18.9184 37.6095L16.0283 34.9585C15.7358 34.6901 15.2872 34.6884 14.9926 34.9543L12.056 37.6054C11.7405 37.8901 11.7157 38.3767 12.0004 38.6921C12.2852 39.0076 12.7717 39.0324 13.0872 38.7477L14.7848 37.2151ZM44.7671 25.8437L43.2127 24.4178C42.8995 24.1306 42.4128 24.1516 42.1255 24.4647C41.8382 24.7779 41.8592 25.2646 42.1724 25.5519L45.0625 28.2029C45.355 28.4712 45.8036 28.473 46.0982 28.2071L49.0349 25.556C49.3503 25.2712 49.3752 24.7847 49.0904 24.4693C48.8056 24.1538 48.3191 24.1289 48.0036 24.4137L46.306 25.9463L46.306 19.423C46.306 18.4669 45.5309 17.6917 44.5747 17.6917L38.1699 17.6917C37.745 17.6917 37.4005 18.0362 37.4005 18.4612C37.4005 18.8862 37.745 19.2307 38.1699 19.2307L44.5747 19.2307C44.681 19.2307 44.7671 19.3168 44.7671 19.423L44.7671 25.8437Z" fill="#F8F9FA"/>
<path d="M27.1064 35.7331L25.6064 35.7331L25.6064 35.7331L27.1064 35.7331ZM29.7995 33.04L29.7995 34.54L29.7995 34.54L29.7995 33.04ZM27.1064 49.5725L28.6064 49.5725L28.6064 49.5725L27.1064 49.5725ZM29.7995 52.2656L29.7995 50.7656L29.7995 52.2656ZM49.1956 52.2656L49.1956 50.7656L49.1956 52.2656ZM51.8887 49.5725L50.3887 49.5725L51.8887 49.5725ZM51.8887 38.5883L50.3887 38.5883L51.8887 38.5883ZM49.4377 35.906L48.1662 36.7017C48.4154 37.0999 48.8367 37.3584 49.3046 37.4001L49.4377 35.906ZM48.3583 34.1811L47.0868 34.9768L47.0868 34.9768L48.3583 34.1811ZM39.221 33.9101L38.0356 34.8292C38.3197 35.1957 38.7573 35.4101 39.221 35.4101L39.221 33.9101ZM38.7775 33.338L39.9629 32.419L39.9629 32.419L38.7775 33.338ZM38.1694 33.04L38.1694 31.54L38.1694 31.54L38.1694 33.04ZM40.7601 35.8952L39.5746 36.8143C39.8587 37.1808 40.2964 37.3952 40.7601 37.3952L40.7601 35.8952ZM48.0695 35.8952L48.0695 37.3952C48.6149 37.3952 49.1173 37.0992 49.3816 36.622C49.6459 36.1449 49.6304 35.5619 49.341 35.0995L48.0695 35.8952ZM40.1159 35.0643L40.1159 33.5643C39.5434 33.5643 39.0208 33.8902 38.7689 34.4043C38.517 34.9183 38.5796 35.531 38.9304 35.9834L40.1159 35.0643ZM47.5495 35.0643L48.8211 34.2686C48.5469 33.8305 48.0664 33.5643 47.5495 33.5643L47.5495 35.0643ZM37.7923 34.5789L38.9778 33.6599C38.6936 33.2934 38.256 33.0789 37.7923 33.0789L37.7923 34.5789ZM39.0742 36.2324L40.4316 35.594C40.3847 35.4944 40.3271 35.4003 40.2597 35.3133L39.0742 36.2324ZM29.7995 34.579L29.7995 36.079L29.7995 36.079L29.7995 34.579ZM29.7995 50.7267L29.7995 49.2267L29.7995 49.2267L29.7995 50.7267ZM49.1956 50.7267L49.1956 49.2267H49.1956L49.1956 50.7267ZM50.3498 49.5725L48.8498 49.5725L48.8498 49.5725L50.3498 49.5725ZM50.3498 38.5883L48.8498 38.5883V38.5883L50.3498 38.5883ZM49.1956 37.4342L49.1956 35.9342L49.1956 35.9342L49.1956 37.4342ZM40.383 37.4342L40.383 38.9342H40.383L40.383 37.4342ZM39.7749 37.1362L40.9604 36.2171L40.9603 36.217L39.7749 37.1362ZM39.7724 37.133L40.9578 36.2138C40.7268 35.9158 40.392 35.7158 40.0202 35.6536L39.7724 37.133ZM39.3456 36.8094L37.9883 37.4479L37.9883 37.4479L39.3456 36.8094ZM8.11127 14.3281L9.61127 14.3281L8.11127 14.3281ZM8.11127 28.1675L6.61127 28.1675L8.11127 28.1675ZM10.8044 30.8606L10.8044 32.3606H10.8044L10.8044 30.8606ZM30.2004 30.8606L30.2004 29.3606H30.2004L30.2004 30.8606ZM32.8935 28.1675L34.3935 28.1675L34.3935 28.1675L32.8935 28.1675ZM32.8935 17.1833L31.3935 17.1833L31.3935 17.1833L32.8935 17.1833ZM30.4426 14.5009L29.1711 15.2967C29.4203 15.6948 29.8416 15.9533 30.3095 15.995L30.4426 14.5009ZM29.3632 12.7761L28.0917 13.5718L28.0917 13.5718L29.3632 12.7761ZM20.2259 12.5051L19.0404 13.4242C19.3246 13.7907 19.7622 14.0051 20.2259 14.0051L20.2259 12.5051ZM19.7823 11.933L20.9678 11.0139L20.9678 11.0139L19.7823 11.933ZM21.7649 14.4902L20.5795 15.4093C20.8636 15.7757 21.3012 15.9902 21.7649 15.9902L21.7649 14.4902ZM29.0744 14.4902L29.0744 15.9902C29.6198 15.9902 30.1222 15.6941 30.3865 15.217C30.6508 14.7399 30.6353 14.1569 30.3459 13.6945L29.0744 14.4902ZM21.1207 13.6593L21.1207 12.1593C20.5482 12.1593 20.0257 12.4852 19.7738 12.9992C19.5218 13.5133 19.5845 14.1259 19.9353 14.5784L21.1207 13.6593ZM28.5544 13.6593L29.826 12.8636C29.5518 12.4254 29.0713 12.1593 28.5544 12.1593L28.5544 13.6593ZM18.7972 13.1739L19.9826 12.2548C19.6985 11.8884 19.2609 11.6739 18.7972 11.6739L18.7972 13.1739ZM19.6169 14.2312L21.0619 13.8289C21.0097 13.6414 20.9215 13.4659 20.8023 13.3121L19.6169 14.2312ZM9.65019 14.3281L11.1502 14.3281L9.65019 14.3281ZM9.65019 28.1675L8.15019 28.1675L9.65019 28.1675ZM10.8044 29.3217L10.8044 30.8217H10.8044L10.8044 29.3217ZM30.2004 29.3217L30.2004 27.8217H30.2004L30.2004 29.3217ZM30.2004 16.0291L30.2004 14.5291L30.2004 14.5291L30.2004 16.0291ZM21.3879 16.0291L21.3879 17.5291L21.3879 17.5291L21.3879 16.0291ZM20.7835 15.7358L21.9617 14.8076C21.6773 14.4466 21.2431 14.2358 20.7835 14.2358L20.7835 15.7358ZM19.9182 15.3135L18.4731 15.7158L18.4731 15.7158L19.9182 15.3135ZM14.7848 43.7384L16.2848 43.7384L14.7848 43.7384ZM14.7848 37.2151L16.2848 37.2151C16.2848 36.6223 15.9357 36.0852 15.3941 35.8444C14.8524 35.6036 14.2197 35.7045 13.7797 36.1017L14.7848 37.2151ZM16.5161 45.4697L16.5161 46.9697H16.5161L16.5161 45.4697ZM22.9209 45.4697L22.9209 43.9697H22.9209L22.9209 45.4697ZM16.3238 37.3177L17.3377 36.2123C16.8993 35.8102 16.2646 35.7051 15.72 35.9446C15.1754 36.1841 14.8238 36.7228 14.8238 37.3177L16.3238 37.3177ZM17.8782 38.7436L18.8921 37.6382L18.8921 37.6382L17.8782 38.7436ZM18.9653 38.6967L17.8599 37.6827L17.8599 37.6827L18.9653 38.6967ZM18.9184 37.6095L19.9324 36.5041L19.9324 36.5041L18.9184 37.6095ZM16.0283 34.9585L17.0423 33.8531L17.0423 33.8531L16.0283 34.9585ZM14.9926 34.9543L13.9875 33.8409L14.9926 34.9543ZM12.056 37.6054L13.0611 38.7188L13.0611 38.7188L12.056 37.6054ZM12.0004 38.6921L10.887 39.6973L10.887 39.6973L12.0004 38.6921ZM13.0872 38.7477L12.082 37.6343L12.082 37.6343L13.0872 38.7477ZM43.2127 24.4178L42.1987 25.5232L42.1987 25.5232L43.2127 24.4178ZM44.7671 25.8437L43.7531 26.9491C44.1916 27.3512 44.8263 27.4563 45.3709 27.2168C45.9155 26.9773 46.2671 26.4386 46.2671 25.8437L44.7671 25.8437ZM42.1255 24.4647L41.0201 23.4508L41.0201 23.4508L42.1255 24.4647ZM42.1724 25.5519L41.1584 26.6573L41.1584 26.6573L42.1724 25.5519ZM45.0625 28.2029L46.0765 27.0975L46.0765 27.0975L45.0625 28.2029ZM46.0982 28.2071L47.1034 29.3205L47.1034 29.3205L46.0982 28.2071ZM49.0349 25.556L50.04 26.6694L50.04 26.6694L49.0349 25.556ZM49.0904 24.4693L47.977 25.4744L47.977 25.4744L49.0904 24.4693ZM48.0037 24.4137L46.9985 23.3003L46.9985 23.3003L48.0037 24.4137ZM46.306 25.9463L44.806 25.9463C44.806 26.539 45.1551 27.0762 45.6968 27.317C46.2385 27.5577 46.8711 27.4569 47.3112 27.0597L46.306 25.9463ZM46.306 19.423L44.806 19.423L46.306 19.423ZM44.7671 19.423L43.2671 19.423L44.7671 19.423ZM28.6064 35.7331C28.6064 35.0742 29.1406 34.54 29.7995 34.54L29.7995 31.54C27.4837 31.54 25.6064 33.4174 25.6064 35.7331L28.6064 35.7331ZM28.6064 49.5725L28.6064 35.7331L25.6064 35.7331L25.6064 49.5725L28.6064 49.5725ZM29.7995 50.7656C29.1406 50.7656 28.6064 50.2315 28.6064 49.5725L25.6064 49.5725C25.6064 51.8883 27.4837 53.7656 29.7995 53.7656L29.7995 50.7656ZM49.1956 50.7656L29.7995 50.7656L29.7995 53.7656L49.1956 53.7656L49.1956 50.7656ZM50.3887 49.5725C50.3887 50.2315 49.8545 50.7656 49.1956 50.7656L49.1956 53.7656C51.5114 53.7656 53.3887 51.8883 53.3887 49.5725L50.3887 49.5725ZM50.3887 38.5883L50.3887 49.5725L53.3887 49.5725L53.3887 38.5883L50.3887 38.5883ZM49.3046 37.4001C49.9117 37.4542 50.3887 37.9664 50.3887 38.5883L53.3887 38.5883C53.3887 36.3988 51.7116 34.6027 49.5709 34.4119L49.3046 37.4001ZM47.0868 34.9768L48.1662 36.7017L50.7093 35.1103L49.6299 33.3854L47.0868 34.9768ZM47.8691 35.4101C47.5511 35.4101 47.2555 35.2464 47.0868 34.9768L49.6299 33.3854C49.2502 32.7787 48.5849 32.4101 47.8691 32.4101L47.8691 35.4101ZM39.221 35.4101L47.8691 35.4101L47.8691 32.4101L39.221 32.4101L39.221 35.4101ZM37.592 34.2571L38.0356 34.8292L40.4065 32.9911L39.9629 32.419L37.592 34.2571ZM38.1694 34.54C37.9435 34.54 37.7304 34.4356 37.592 34.2571L39.9629 32.419C39.5331 31.8645 38.8709 31.54 38.1694 31.54L38.1694 34.54ZM29.7995 34.54L38.1694 34.54L38.1694 31.54L29.7995 31.54L29.7995 34.54ZM40.7601 37.3952L48.0695 37.3952L48.0695 34.3952L40.7601 34.3952L40.7601 37.3952ZM38.9304 35.9834L39.5746 36.8143L41.9455 34.9762L41.3013 34.1453L38.9304 35.9834ZM47.5495 33.5643L40.1159 33.5643L40.1159 36.5643L47.5495 36.5643L47.5495 33.5643ZM49.341 35.0995L48.8211 34.2686L46.2779 35.86L46.7979 36.6909L49.341 35.0995ZM36.6069 35.498L37.8888 37.1515L40.2597 35.3133L38.9778 33.6599L36.6069 35.498ZM29.7995 36.079L37.7923 36.0789L37.7923 33.0789L29.7995 33.079L29.7995 36.079ZM30.1453 35.7331C30.1453 35.9241 29.9905 36.079 29.7995 36.079L29.7995 33.079C28.3336 33.079 27.1453 34.2673 27.1453 35.7331L30.1453 35.7331ZM30.1453 49.5725L30.1453 35.7331L27.1453 35.7331L27.1453 49.5725L30.1453 49.5725ZM29.7995 49.2267C29.9905 49.2267 30.1453 49.3815 30.1453 49.5725L27.1453 49.5725C27.1453 51.0384 28.3336 52.2267 29.7995 52.2267L29.7995 49.2267ZM49.1956 49.2267L29.7995 49.2267L29.7995 52.2267L49.1956 52.2267L49.1956 49.2267ZM48.8498 49.5725C48.8498 49.3815 49.0046 49.2267 49.1956 49.2267L49.1956 52.2267C50.6614 52.2267 51.8498 51.0384 51.8498 49.5725L48.8498 49.5725ZM48.8498 38.5883L48.8498 49.5725L51.8498 49.5725L51.8498 38.5883L48.8498 38.5883ZM49.1956 38.9342C49.0046 38.9342 48.8498 38.7793 48.8498 38.5883L51.8498 38.5883C51.8498 37.1225 50.6614 35.9342 49.1956 35.9342L49.1956 38.9342ZM40.383 38.9342L49.1956 38.9342L49.1956 35.9342L40.383 35.9342L40.383 38.9342ZM38.5895 38.0552C39.0193 38.6097 39.6814 38.9342 40.383 38.9342L40.383 35.9342C40.6088 35.9342 40.822 36.0386 40.9604 36.2171L38.5895 38.0552ZM38.5871 38.0522L38.5895 38.0554L40.9603 36.217L40.9578 36.2138L38.5871 38.0522ZM37.9883 37.4479C38.2814 38.0711 38.8598 38.501 39.5247 38.6124L40.0202 35.6536C40.3156 35.703 40.5726 35.8939 40.703 36.171L37.9883 37.4479ZM37.7169 36.8708L37.9883 37.4479L40.703 36.171L40.4316 35.594L37.7169 36.8708ZM9.61127 14.3281C9.61127 13.6692 10.1454 13.135 10.8044 13.135L10.8044 10.135C8.48859 10.135 6.61127 12.0123 6.61127 14.3281L9.61127 14.3281ZM9.61127 28.1675L9.61127 14.3281L6.61127 14.3281L6.61127 28.1675L9.61127 28.1675ZM10.8044 29.3606C10.1454 29.3606 9.61127 28.8264 9.61127 28.1675L6.61127 28.1675C6.61127 30.4833 8.48859 32.3606 10.8044 32.3606L10.8044 29.3606ZM30.2004 29.3606L10.8044 29.3606L10.8044 32.3606L30.2004 32.3606L30.2004 29.3606ZM31.3935 28.1675C31.3935 28.8264 30.8594 29.3606 30.2004 29.3606L30.2004 32.3606C32.5162 32.3606 34.3935 30.4833 34.3935 28.1675L31.3935 28.1675ZM31.3935 17.1833L31.3935 28.1675L34.3935 28.1675L34.3935 17.1833L31.3935 17.1833ZM30.3095 15.995C30.9165 16.0491 31.3935 16.5613 31.3935 17.1833L34.3935 17.1833C34.3935 14.9938 32.7165 13.1977 30.5758 13.0069L30.3095 15.995ZM28.0917 13.5718L29.1711 15.2967L31.7142 13.7052L30.6348 11.9804L28.0917 13.5718ZM28.874 14.0051C28.556 14.0051 28.2604 13.8414 28.0917 13.5718L30.6348 11.9804C30.2551 11.3736 29.5898 11.0051 28.874 11.0051L28.874 14.0051ZM20.2259 14.0051L28.874 14.0051L28.874 11.0051L20.2259 11.0051L20.2259 14.0051ZM18.5969 12.8521L19.0404 13.4242L21.4113 11.586L20.9678 11.0139L18.5969 12.8521ZM19.1742 13.135C18.9484 13.135 18.7353 13.0306 18.5969 12.8521L20.9678 11.0139C20.5379 10.4595 19.8758 10.135 19.1742 10.135L19.1742 13.135ZM10.8044 13.135L19.1742 13.135L19.1742 10.135L10.8044 10.135L10.8044 13.135ZM21.7649 15.9902L29.0744 15.9902L29.0744 12.9902L21.7649 12.9902L21.7649 15.9902ZM19.9353 14.5784L20.5795 15.4093L22.9504 13.5711L22.3062 12.7402L19.9353 14.5784ZM28.5544 12.1593L21.1207 12.1593L21.1207 15.1593L28.5544 15.1593L28.5544 12.1593ZM30.3459 13.6945L29.826 12.8636L27.2828 14.455L27.8028 15.2859L30.3459 13.6945ZM17.6117 14.093L18.4314 15.1502L20.8023 13.3121L19.9826 12.2548L17.6117 14.093ZM10.8044 14.6739L18.7972 14.6739L18.7972 11.6739L10.8044 11.6739L10.8044 14.6739ZM11.1502 14.3281C11.1502 14.5191 10.9954 14.6739 10.8044 14.6739L10.8044 11.6739C9.3385 11.6739 8.15019 12.8622 8.15019 14.3281L11.1502 14.3281ZM11.1502 28.1675L11.1502 14.3281L8.15019 14.3281L8.15019 28.1675L11.1502 28.1675ZM10.8044 27.8217C10.9954 27.8217 11.1502 27.9765 11.1502 28.1675L8.15019 28.1675C8.15019 29.6334 9.3385 30.8217 10.8044 30.8217L10.8044 27.8217ZM30.2004 27.8217L10.8044 27.8217L10.8044 30.8217L30.2004 30.8217L30.2004 27.8217ZM29.8546 28.1675C29.8546 27.9765 30.0094 27.8217 30.2004 27.8217L30.2004 30.8217C31.6663 30.8217 32.8546 29.6334 32.8546 28.1675L29.8546 28.1675ZM29.8546 17.1833L29.8546 28.1675L32.8546 28.1675L32.8546 17.1833L29.8546 17.1833ZM30.2004 17.5291C30.0095 17.5291 29.8546 17.3743 29.8546 17.1833L32.8546 17.1833C32.8546 15.7174 31.6663 14.5291 30.2004 14.5291L30.2004 17.5291ZM21.3879 17.5291L30.2004 17.5291L30.2004 14.5291L21.3879 14.5291L21.3879 17.5291ZM19.6052 16.6641C20.0353 17.2101 20.6922 17.5291 21.3879 17.5291L21.3879 14.5291C21.6118 14.5291 21.8233 14.6318 21.9617 14.8076L19.6052 16.6641ZM20.4741 17.2358L20.7835 17.2358L20.7835 14.2358L20.4741 14.2358L20.4741 17.2358ZM18.4731 15.7158C18.7233 16.6143 19.5415 17.2358 20.4741 17.2358L20.4741 14.2358C20.8885 14.2358 21.2521 14.512 21.3632 14.9112L18.4731 15.7158ZM18.1718 14.6335L18.4731 15.7158L21.3632 14.9112L21.0619 13.8289L18.1718 14.6335ZM16.2848 43.7384L16.2848 37.2151L13.2848 37.2151L13.2848 43.7384L16.2848 43.7384ZM16.5161 43.9697C16.3884 43.9697 16.2848 43.8661 16.2848 43.7384L13.2848 43.7384C13.2848 45.523 14.7315 46.9697 16.5161 46.9697L16.5161 43.9697ZM22.9209 43.9697L16.5161 43.9697L16.5161 46.9697L22.9209 46.9697L22.9209 43.9697ZM22.1904 44.7002C22.1904 44.2967 22.5175 43.9697 22.9209 43.9697L22.9209 46.9697C24.1743 46.9697 25.1904 45.9536 25.1904 44.7002L22.1904 44.7002ZM22.9209 45.4308C22.5175 45.4308 22.1904 45.1037 22.1904 44.7002L25.1904 44.7002C25.1904 43.4468 24.1743 42.4308 22.9209 42.4308L22.9209 45.4308ZM16.5161 45.4308L22.9209 45.4308L22.9209 42.4308L16.5161 42.4308L16.5161 45.4308ZM14.8238 43.7384C14.8238 44.6731 15.5815 45.4308 16.5161 45.4308L16.5161 42.4308C17.2383 42.4308 17.8238 43.0162 17.8238 43.7384L14.8238 43.7384ZM14.8238 37.3177L14.8238 43.7384L17.8238 43.7384L17.8238 37.3177L14.8238 37.3177ZM18.8921 37.6382L17.3377 36.2123L15.3098 38.4231L16.8642 39.849L18.8921 37.6382ZM17.8599 37.6827C18.1327 37.3854 18.5948 37.3654 18.8921 37.6382L16.8642 39.849C17.7879 40.6962 19.2235 40.6343 20.0707 39.7106L17.8599 37.6827ZM17.9045 38.7149C17.6071 38.4422 17.5872 37.98 17.8599 37.6827L20.0707 39.7106C20.918 38.787 20.856 37.3514 19.9324 36.5041L17.9045 38.7149ZM15.0144 36.0639L17.9045 38.7149L19.9324 36.5041L17.0423 33.8531L15.0144 36.0639ZM15.9977 36.0678C15.718 36.3203 15.2921 36.3186 15.0144 36.0639L17.0423 33.8531C16.1796 33.0617 14.8564 33.0564 13.9875 33.8409L15.9977 36.0678ZM13.0611 38.7188L15.9977 36.0678L13.9875 33.8409L11.0508 36.492L13.0611 38.7188ZM13.1138 37.687C13.3842 37.9865 13.3606 38.4484 13.0611 38.7188L11.0508 36.492C10.1205 37.3319 10.0471 38.7669 10.887 39.6973L13.1138 37.687ZM12.082 37.6343C12.3815 37.3639 12.8435 37.3875 13.1138 37.687L10.887 39.6973C11.7269 40.6276 13.162 40.701 14.0923 39.8611L12.082 37.6343ZM13.7797 36.1017L12.082 37.6343L14.0923 39.8611L15.79 38.3285L13.7797 36.1017ZM42.1987 25.5232L43.7531 26.9491L45.7811 24.7383L44.2266 23.3124L42.1987 25.5232ZM43.2309 25.4787C42.9582 25.776 42.496 25.796 42.1987 25.5232L44.2266 23.3124C43.303 22.4652 41.8674 22.5271 41.0201 23.4508L43.2309 25.4787ZM43.1864 24.4465C43.4837 24.7192 43.5036 25.1814 43.2309 25.4787L41.0201 23.4508C40.1729 24.3744 40.2348 25.81 41.1584 26.6573L43.1864 24.4465ZM46.0765 27.0975L43.1864 24.4465L41.1584 26.6573L44.0486 29.3083L46.0765 27.0975ZM45.0931 27.0936C45.3728 26.8411 45.7987 26.8428 46.0765 27.0975L44.0486 29.3083C44.9113 30.0997 46.2344 30.1049 47.1034 29.3205L45.0931 27.0936ZM48.0297 24.4426L45.0931 27.0936L47.1034 29.3205L50.04 26.6694L48.0297 24.4426ZM47.977 25.4744C47.7066 25.1749 47.7302 24.713 48.0297 24.4426L50.04 26.6694C50.9704 25.8295 51.0437 24.3945 50.2038 23.4641L47.977 25.4744ZM49.0088 25.5271C48.7093 25.7975 48.2474 25.7739 47.977 25.4744L50.2038 23.4641C49.3639 22.5338 47.9289 22.4604 46.9985 23.3003L49.0088 25.5271ZM47.3112 27.0597L49.0088 25.5271L46.9985 23.3003L45.3009 24.8328L47.3112 27.0597ZM47.806 25.9463L47.806 19.423L44.806 19.423L44.806 25.9463L47.806 25.9463ZM47.806 19.423C47.806 17.6384 46.3593 16.1917 44.5747 16.1917L44.5747 19.1917C44.7025 19.1917 44.806 19.2953 44.806 19.423L47.806 19.423ZM44.5747 16.1917L38.1699 16.1917L38.1699 19.1917L44.5747 19.1917L44.5747 16.1917ZM38.1699 16.1917C36.9165 16.1917 35.9005 17.2078 35.9005 18.4612L38.9005 18.4612C38.9005 18.8647 38.5734 19.1917 38.1699 19.1917L38.1699 16.1917ZM35.9005 18.4612C35.9005 19.7146 36.9165 20.7307 38.1699 20.7307L38.1699 17.7307C38.5734 17.7307 38.9005 18.0577 38.9005 18.4612L35.9005 18.4612ZM38.1699 20.7307L44.5747 20.7307L44.5747 17.7307L38.1699 17.7307L38.1699 20.7307ZM44.5747 20.7307C43.8526 20.7307 43.2671 20.1452 43.2671 19.423L46.2671 19.423C46.2671 18.4883 45.5094 17.7307 44.5747 17.7307L44.5747 20.7307ZM43.2671 19.423L43.2671 25.8437L46.2671 25.8437L46.2671 19.423L43.2671 19.423Z" fill="#F8F9FA" mask="url(#path-1-outside-1_50_2376)"/>
<path d="M28.8257 13.0767H19.8477L20.4258 15.1532H30.1251L28.8257 13.0767Z" fill="#FFEC99" stroke="#212529" stroke-width="1.2" stroke-linejoin="round"/>
<path d="M19.1259 12.3989H10.8324C9.72783 12.3989 8.8324 13.2944 8.8324 14.3989V28.0856C8.8324 29.1902 9.72783 30.0856 10.8324 30.0856H30.0757C31.1803 30.0856 32.0757 29.1902 32.0757 28.0856V17.2541C32.0757 16.1496 31.1803 15.2541 30.0757 15.2541H21.3395L19.1259 12.3989Z" fill="#FFE066" stroke="#212529" stroke-width="1.8" stroke-linejoin="round"/>
<path d="M47.8208 34.4817H38.8428L39.8195 36.5582H49.1203L47.8208 34.4817Z" fill="#FFEC99" stroke="#212529" stroke-width="1.2" stroke-linejoin="round"/>
<path d="M38.121 33.804H29.8275C28.7229 33.804 27.8275 34.6994 27.8275 35.804V49.4906C27.8275 50.5952 28.7229 51.4906 29.8275 51.4906H49.0709C50.1754 51.4906 51.0709 50.5952 51.0709 49.4906V38.6592C51.0709 37.5546 50.1754 36.6592 49.0709 36.6592H40.3347L38.121 33.804Z" fill="#FFE066" stroke="#212529" stroke-width="1.8" stroke-linejoin="round"/>
<path d="M22.8725 44.6948H16.5059C15.9536 44.6948 15.5059 44.2471 15.5059 43.6948V35.615" stroke="#212529" stroke-width="1.8" stroke-linecap="round" stroke-linejoin="round"/>
<path d="M12.5232 38.171L15.4598 35.52L18.3499 38.171" stroke="#212529" stroke-width="1.8" stroke-linecap="round" stroke-linejoin="round"/>
<path d="M38.1216 18.4556L44.4883 18.4556C45.0406 18.4556 45.4883 18.9033 45.4883 19.4556L45.4883 27.5354" stroke="#212529" stroke-width="1.8" stroke-linecap="round" stroke-linejoin="round"/>
<path d="M48.4709 24.9794L45.5343 27.6304L42.6442 24.9793" stroke="#212529" stroke-width="1.8" stroke-linecap="round" stroke-linejoin="round"/>
<g style="mix-blend-mode:multiply">
<path fill-rule="evenodd" clip-rule="evenodd" d="M8.7738 28.8705C9.07894 29.5849 9.78795 30.0856 10.6139 30.0856H29.8573C30.9618 30.0856 31.8573 29.1902 31.8573 28.0856V17.2541C31.8573 16.4544 31.3879 15.7643 30.7096 15.4443V27.8705C30.7096 28.4228 30.2619 28.8705 29.7096 28.8705H8.7738ZM20.1364 13.9841C19.9551 13.9213 19.7935 13.807 19.6731 13.6518L18.7018 12.3989H18.9074L20.1364 13.9841Z" fill="#DEE2E6"/>
</g>
<g style="mix-blend-mode:multiply">
<path fill-rule="evenodd" clip-rule="evenodd" d="M27.9874 50.2755C28.2926 50.99 29.0016 51.4906 29.8275 51.4906H49.0709C50.1754 51.4906 51.0709 50.5952 51.0709 49.4906V38.6592C51.0709 37.8594 50.6015 37.1693 49.9232 36.8493V49.2755C49.9232 49.8278 49.4755 50.2755 48.9232 50.2755H27.9874ZM39.35 35.3891C39.1688 35.3264 39.0071 35.212 38.8867 35.0568L37.9154 33.804H38.121L39.35 35.3891Z" fill="#DEE2E6"/>
</g>
</svg>
