<svg width="60" height="60" viewBox="0 0 60 60" fill="none" xmlns="http://www.w3.org/2000/svg">
<mask id="path-1-outside-1_50_1882" maskUnits="userSpaceOnUse" x="11.0059" y="5.63406" width="38" height="49" fill="black">
<rect fill="white" x="11.0059" y="5.63406" width="38" height="49"/>
<path fill-rule="evenodd" clip-rule="evenodd" d="M15.8382 7.63406C14.274 7.63406 13.0059 8.90216 13.0059 10.4664V49.5336C13.0059 51.0979 14.274 52.366 15.8382 52.366H44.1619C45.7262 52.366 46.9943 51.0979 46.9943 49.5336V16.2136C46.9943 15.9993 46.9161 15.7925 46.7743 15.6319L39.9779 7.93141C39.8111 7.74236 39.571 7.63406 39.3189 7.63406H15.8382Z"/>
</mask>
<path fill-rule="evenodd" clip-rule="evenodd" d="M15.8382 7.63406C14.274 7.63406 13.0059 8.90216 13.0059 10.4664V49.5336C13.0059 51.0979 14.274 52.366 15.8382 52.366H44.1619C45.7262 52.366 46.9943 51.0979 46.9943 49.5336V16.2136C46.9943 15.9993 46.9161 15.7925 46.7743 15.6319L39.9779 7.93141C39.8111 7.74236 39.571 7.63406 39.3189 7.63406H15.8382Z" fill="#F8F9FA"/>
<path d="M46.7743 15.6319L45.6497 16.6245L45.6497 16.6245L46.7743 15.6319ZM39.9779 7.93141L41.1025 6.93883L41.1025 6.93883L39.9779 7.93141ZM14.5059 10.4664C14.5059 9.73059 15.1024 9.13406 15.8382 9.13406V6.13406C13.4455 6.13406 11.5059 8.07373 11.5059 10.4664H14.5059ZM14.5059 49.5336V10.4664H11.5059V49.5336H14.5059ZM15.8382 50.866C15.1024 50.866 14.5059 50.2694 14.5059 49.5336H11.5059C11.5059 51.9263 13.4455 53.866 15.8382 53.866V50.866ZM44.1619 50.866H15.8382V53.866H44.1619V50.866ZM45.4943 49.5336C45.4943 50.2694 44.8978 50.866 44.1619 50.866V53.866C46.5546 53.866 48.4943 51.9263 48.4943 49.5336H45.4943ZM45.4943 16.2136V49.5336H48.4943V16.2136H45.4943ZM45.6497 16.6245C45.5495 16.511 45.4943 16.3649 45.4943 16.2136H48.4943C48.4943 15.6338 48.2826 15.074 47.8989 14.6393L45.6497 16.6245ZM38.8533 8.924L45.6497 16.6245L47.8989 14.6393L41.1025 6.93883L38.8533 8.924ZM39.3189 9.13406C39.1407 9.13406 38.9712 9.05756 38.8533 8.924L41.1025 6.93883C40.6509 6.42715 40.0013 6.13406 39.3189 6.13406V9.13406ZM15.8382 9.13406H39.3189V6.13406H15.8382V9.13406Z" fill="#F8F9FA" mask="url(#path-1-outside-1_50_1882)"/>
<path fill-rule="evenodd" clip-rule="evenodd" d="M13.8849 10.5131C13.8849 9.40849 14.7803 8.51306 15.8849 8.51306H39.3189L46.1153 16.2135V49.4869C46.1153 50.5915 45.2199 51.4869 44.1153 51.4869H15.8849C14.7803 51.4869 13.8849 50.5915 13.8849 49.4869V10.5131Z" fill="#F1F3F5" stroke="#212529" stroke-width="2" stroke-linejoin="round"/>
<g style="mix-blend-mode:multiply">
<path fill-rule="evenodd" clip-rule="evenodd" d="M13.3242 49.7028C13.6302 50.4153 14.3382 50.9143 15.1628 50.9143H43.3932C44.4978 50.9143 45.3932 50.0188 45.3932 48.9143V15.6409L38.5968 7.9404H38.5917L44.0685 14.1458C44.2298 14.3285 44.3188 14.5638 44.3188 14.8075V48.7028C44.3188 49.255 43.8711 49.7028 43.3188 49.7028H13.3242Z" fill="#F1F3F5"/>
</g>
<g style="mix-blend-mode:multiply">
<path d="M38.0558 16.8045H44.3129V18.2706H39.5219C38.7122 18.2706 38.0558 17.6142 38.0558 16.8045V16.8045Z" fill="#F1F3F5"/>
</g>
<path fill-rule="evenodd" clip-rule="evenodd" d="M45.3933 16.6015H38.6375V8.98105" fill="#F1F3F5"/>
<path d="M45.3933 16.6015H38.6375V8.98105" stroke="#212529" stroke-width="1.2" stroke-linecap="round" stroke-linejoin="round"/>
<path d="M26.8052 29.6759V25.4053C26.8052 23.6409 28.2355 22.2106 29.9999 22.2106C31.7643 22.2106 33.1946 23.6409 33.1946 25.4053V29.6759" stroke="#212529" stroke-width="1.6" stroke-linecap="round" stroke-linejoin="round"/>
<g style="mix-blend-mode:multiply">
<path fill-rule="evenodd" clip-rule="evenodd" d="M30.6 23.8106C29.2774 23.8106 28.2052 24.8828 28.2052 26.2053V28.9961H32.9947V26.2053C32.9947 24.8828 31.9225 23.8106 30.6 23.8106ZM34.5947 28.9961V26.2053C34.5947 23.9991 32.8062 22.2106 30.6 22.2106C28.3937 22.2106 26.6052 23.9991 26.6052 26.2053V28.9961H26.2898C25.4062 28.9961 24.6898 29.7124 24.6898 30.5961V37.5894C24.6898 38.4731 25.4062 39.1894 26.2898 39.1894H34.9101C35.7937 39.1894 36.5101 38.4731 36.5101 37.5894V30.5961C36.5101 29.7124 35.7937 28.9961 34.9101 28.9961H34.5947Z" fill="#DEE2E6"/>
</g>
<rect x="24.6898" y="28.7961" width="10.6202" height="8.99336" rx="1" fill="#FA5252" stroke="#212529" stroke-width="1.2" stroke-linecap="round" stroke-linejoin="round"/>
<circle cx="29.9999" cy="33.2927" r="1.18216" fill="#212529"/>
</svg>
