<svg width="60" height="60" viewBox="0 0 60 60" fill="none" xmlns="http://www.w3.org/2000/svg">
<mask id="path-1-outside-1_50_8260" maskUnits="userSpaceOnUse" x="2.81726" y="7.45654" width="54" height="44" fill="black">
<rect fill="white" x="2.81726" y="7.45654" width="54" height="44"/>
<path fill-rule="evenodd" clip-rule="evenodd" d="M25.0413 10.6657C31.5007 8.6534 37.1762 9.50149 39.8892 10.6967C40.4154 10.9285 40.8617 11.3236 41.2308 11.7449C41.6045 12.1714 41.934 12.6653 42.2168 13.1473C42.601 13.8019 42.9309 14.4945 43.1677 15.0008C45.3848 16.0157 47.2739 17.3902 48.856 18.941C52.3996 22.4145 54.3997 26.765 55.1586 29.939C55.2003 30.1133 55.1877 30.2962 55.1225 30.4631C53.8605 33.6946 51.8569 37.4796 48.5938 40.4626C46.8957 42.0149 44.8665 43.3404 42.4448 44.2584C42.3976 44.3177 42.3487 44.3793 42.2982 44.4431L42.1742 44.5998L42.1741 44.5999L42.1739 44.6002C41.7775 45.1013 41.316 45.6847 40.822 46.2488C40.2767 46.8714 39.6688 47.4974 39.0308 47.9866C38.4034 48.4677 37.6729 48.8743 36.8874 48.9463C34.5994 49.1559 32.1553 49.1952 30.0364 49.0572C27.96 48.922 26.0643 48.61 24.9667 48.0398C24.6785 47.8901 24.513 47.5777 24.5509 47.2552C24.5888 46.9327 24.8223 46.6673 25.1374 46.5885C25.3799 46.5279 25.7993 46.3483 26.3483 46.0563C26.8804 45.7732 27.4833 45.4124 28.0748 45.028C28.2693 44.9017 28.4616 44.7734 28.6487 44.6453C25.2086 43.4919 22.3976 41.4761 20.123 39.5054C18.9979 38.5306 17.9647 37.5296 17.0656 36.6584L17.0655 36.6583L17.0654 36.6582C16.5999 36.2072 16.1703 35.7909 15.7825 35.4312C15.1936 34.8849 14.6982 34.4643 14.2746 34.1827C13.8341 33.8899 13.5804 33.8229 13.4577 33.8229C12.9725 33.8229 12.4872 34.0368 11.9603 34.4712C11.4275 34.9105 10.9267 35.5132 10.4148 36.1719C10.3272 36.2845 10.2383 36.4004 10.1483 36.5175C9.7417 37.0469 9.31411 37.6037 8.89747 38.0213C8.4231 38.4967 7.67659 39.0928 6.74156 38.8952C6.37457 38.8177 6.1111 38.5974 5.93613 38.3884C5.7618 38.1802 5.6328 37.9342 5.5334 37.6937C5.33445 37.2123 5.19257 36.5997 5.08895 35.9399C4.87983 34.6084 4.79887 32.8972 4.82063 31.2039C4.84243 29.5082 4.96785 27.788 5.18587 26.4335C5.29424 25.7602 5.43036 25.1459 5.60072 24.6606C5.68556 24.4189 5.78892 24.1799 5.91926 23.9731C6.04068 23.7805 6.24129 23.5257 6.55801 23.381C7.06213 23.1507 7.54986 23.2608 7.91188 23.4505C8.25065 23.6281 8.54785 23.9058 8.79747 24.1769C9.1981 24.6121 9.62956 25.2068 10.0517 25.7887C10.1533 25.9288 10.2545 26.0682 10.3545 26.2045C10.8974 26.9439 11.4409 27.6404 12.004 28.1511C12.5751 28.6693 13.0514 28.8902 13.4577 28.8902C13.5136 28.8902 13.6569 28.8723 13.9265 28.5606C14.2012 28.243 14.4949 27.748 14.8515 27.055C15.0199 26.7278 15.1987 26.3629 15.3915 25.9696L15.3916 25.9694C15.983 24.7626 16.705 23.2893 17.6561 21.8216C19.6888 18.6848 22.8202 15.473 28.282 14.0087C28.0539 13.7875 27.7823 13.568 27.4832 13.3586C26.6002 12.7403 25.6073 12.2976 25.0879 12.1705C24.747 12.087 24.5036 11.7866 24.4928 11.4358C24.4819 11.085 24.7062 10.77 25.0413 10.6657ZM40.9976 14.162C38.7137 13.4338 36.1327 13.0756 33.237 13.2408C32.0848 13.3065 31.0088 13.4364 30.0031 13.6215C29.9275 13.5127 29.8471 13.4085 29.7641 13.3093C29.3786 12.8484 28.885 12.4326 28.3795 12.0786C28.1347 11.9072 27.8796 11.7452 27.623 11.5956C32.833 10.4495 37.1933 11.2165 39.2592 12.1266C39.496 12.2309 39.7653 12.4434 40.0555 12.7746C40.3412 13.1007 40.6146 13.5043 40.8692 13.9381C40.913 14.0128 40.9558 14.0875 40.9976 14.162ZM29.2075 15.587C23.9295 16.8629 21.0231 19.8584 19.1313 22.7776C18.2432 24.1482 17.5899 25.4807 17.0063 26.6711L17.0063 26.6711C16.8029 27.0859 16.608 27.4835 16.4146 27.8594C16.0543 28.5595 15.6799 29.2205 15.256 29.7106C14.8269 30.2067 14.2409 30.6481 13.4577 30.6481C12.4078 30.6481 11.5217 30.0871 10.8229 29.4531C10.1158 28.8117 9.48159 27.9859 8.93749 27.2448C8.81798 27.082 8.70372 26.9247 8.59399 26.7737L8.59391 26.7736L8.59388 26.7735C8.17871 26.202 7.82838 25.7197 7.50415 25.3675C7.42216 25.2785 7.35147 25.2088 7.29168 25.1549C7.28124 25.182 7.27045 25.2113 7.25937 25.2429C7.13852 25.5871 7.02236 26.0857 6.92142 26.7129C6.7208 27.9592 6.59942 29.5896 6.57838 31.2265C6.5573 32.8659 6.63746 34.4695 6.82555 35.6672C6.92054 36.272 7.03629 36.7277 7.15801 37.0222C7.17667 37.0674 7.19403 37.1052 7.20966 37.1365C7.31467 37.0816 7.46071 36.9725 7.65303 36.7797C7.98129 36.4507 8.31917 36.0115 8.72154 35.4885L8.72158 35.4884C8.81926 35.3615 8.92074 35.2296 9.0268 35.0931C9.54118 34.4313 10.1449 33.6897 10.842 33.1149C11.5451 32.5351 12.4151 32.065 13.4577 32.065C14.1061 32.065 14.7177 32.3665 15.2477 32.7187C15.7945 33.0822 16.3748 33.5829 16.978 34.1424C17.4192 34.5517 17.8738 34.9926 18.3522 35.4565C19.2257 36.3036 20.1785 37.2276 21.2741 38.1768C23.7315 40.3058 26.7142 42.378 30.3746 43.3245C30.5028 43.2074 30.5992 43.1092 30.6616 43.0334C30.842 42.8144 31.1268 42.7103 31.4058 42.7616C32.5521 42.9721 34.5063 43.19 36.5893 43.1473C38.6884 43.1043 40.8253 42.7977 42.3982 42.0246C42.6408 41.9054 42.9186 41.9228 43.1391 42.0523C44.7769 41.2715 46.1879 40.2803 47.4078 39.1651C50.314 36.5083 52.1708 33.1142 53.3829 30.0821C52.6424 27.2051 50.8017 23.3098 47.6255 20.1964C46.2164 18.8151 44.5439 17.5863 42.5819 16.6666L29.6977 15.8042C29.5077 15.7915 29.3363 15.7113 29.2075 15.587ZM30.5768 45.1809C30.0864 45.5557 29.5123 45.9574 28.9262 46.3383C28.4589 46.6419 27.9787 46.9356 27.5217 47.1943C28.2593 47.3294 29.144 47.4332 30.138 47.4979C32.1694 47.6302 34.5317 47.593 36.7449 47.3902C37.1019 47.3575 37.5495 47.1534 38.08 46.7466C38.5999 46.348 39.1298 45.8093 39.6465 45.2193C39.6935 45.1656 39.7402 45.1118 39.7866 45.0578C38.2007 45.4186 36.4722 45.6172 34.5886 45.6172C33.1727 45.6172 31.8367 45.4595 30.5768 45.1809ZM7.42535 24.8836C7.42539 24.8838 7.4237 24.8861 7.42016 24.89C7.42354 24.8854 7.42531 24.8835 7.42535 24.8836Z"/>
</mask>
<path fill-rule="evenodd" clip-rule="evenodd" d="M25.0413 10.6657C31.5007 8.6534 37.1762 9.50149 39.8892 10.6967C40.4154 10.9285 40.8617 11.3236 41.2308 11.7449C41.6045 12.1714 41.934 12.6653 42.2168 13.1473C42.601 13.8019 42.9309 14.4945 43.1677 15.0008C45.3848 16.0157 47.2739 17.3902 48.856 18.941C52.3996 22.4145 54.3997 26.765 55.1586 29.939C55.2003 30.1133 55.1877 30.2962 55.1225 30.4631C53.8605 33.6946 51.8569 37.4796 48.5938 40.4626C46.8957 42.0149 44.8665 43.3404 42.4448 44.2584C42.3976 44.3177 42.3487 44.3793 42.2982 44.4431L42.1742 44.5998L42.1741 44.5999L42.1739 44.6002C41.7775 45.1013 41.316 45.6847 40.822 46.2488C40.2767 46.8714 39.6688 47.4974 39.0308 47.9866C38.4034 48.4677 37.6729 48.8743 36.8874 48.9463C34.5994 49.1559 32.1553 49.1952 30.0364 49.0572C27.96 48.922 26.0643 48.61 24.9667 48.0398C24.6785 47.8901 24.513 47.5777 24.5509 47.2552C24.5888 46.9327 24.8223 46.6673 25.1374 46.5885C25.3799 46.5279 25.7993 46.3483 26.3483 46.0563C26.8804 45.7732 27.4833 45.4124 28.0748 45.028C28.2693 44.9017 28.4616 44.7734 28.6487 44.6453C25.2086 43.4919 22.3976 41.4761 20.123 39.5054C18.9979 38.5306 17.9647 37.5296 17.0656 36.6584L17.0655 36.6583L17.0654 36.6582C16.5999 36.2072 16.1703 35.7909 15.7825 35.4312C15.1936 34.8849 14.6982 34.4643 14.2746 34.1827C13.8341 33.8899 13.5804 33.8229 13.4577 33.8229C12.9725 33.8229 12.4872 34.0368 11.9603 34.4712C11.4275 34.9105 10.9267 35.5132 10.4148 36.1719C10.3272 36.2845 10.2383 36.4004 10.1483 36.5175C9.7417 37.0469 9.31411 37.6037 8.89747 38.0213C8.4231 38.4967 7.67659 39.0928 6.74156 38.8952C6.37457 38.8177 6.1111 38.5974 5.93613 38.3884C5.7618 38.1802 5.6328 37.9342 5.5334 37.6937C5.33445 37.2123 5.19257 36.5997 5.08895 35.9399C4.87983 34.6084 4.79887 32.8972 4.82063 31.2039C4.84243 29.5082 4.96785 27.788 5.18587 26.4335C5.29424 25.7602 5.43036 25.1459 5.60072 24.6606C5.68556 24.4189 5.78892 24.1799 5.91926 23.9731C6.04068 23.7805 6.24129 23.5257 6.55801 23.381C7.06213 23.1507 7.54986 23.2608 7.91188 23.4505C8.25065 23.6281 8.54785 23.9058 8.79747 24.1769C9.1981 24.6121 9.62956 25.2068 10.0517 25.7887C10.1533 25.9288 10.2545 26.0682 10.3545 26.2045C10.8974 26.9439 11.4409 27.6404 12.004 28.1511C12.5751 28.6693 13.0514 28.8902 13.4577 28.8902C13.5136 28.8902 13.6569 28.8723 13.9265 28.5606C14.2012 28.243 14.4949 27.748 14.8515 27.055C15.0199 26.7278 15.1987 26.3629 15.3915 25.9696L15.3916 25.9694C15.983 24.7626 16.705 23.2893 17.6561 21.8216C19.6888 18.6848 22.8202 15.473 28.282 14.0087C28.0539 13.7875 27.7823 13.568 27.4832 13.3586C26.6002 12.7403 25.6073 12.2976 25.0879 12.1705C24.747 12.087 24.5036 11.7866 24.4928 11.4358C24.4819 11.085 24.7062 10.77 25.0413 10.6657ZM40.9976 14.162C38.7137 13.4338 36.1327 13.0756 33.237 13.2408C32.0848 13.3065 31.0088 13.4364 30.0031 13.6215C29.9275 13.5127 29.8471 13.4085 29.7641 13.3093C29.3786 12.8484 28.885 12.4326 28.3795 12.0786C28.1347 11.9072 27.8796 11.7452 27.623 11.5956C32.833 10.4495 37.1933 11.2165 39.2592 12.1266C39.496 12.2309 39.7653 12.4434 40.0555 12.7746C40.3412 13.1007 40.6146 13.5043 40.8692 13.9381C40.913 14.0128 40.9558 14.0875 40.9976 14.162ZM29.2075 15.587C23.9295 16.8629 21.0231 19.8584 19.1313 22.7776C18.2432 24.1482 17.5899 25.4807 17.0063 26.6711L17.0063 26.6711C16.8029 27.0859 16.608 27.4835 16.4146 27.8594C16.0543 28.5595 15.6799 29.2205 15.256 29.7106C14.8269 30.2067 14.2409 30.6481 13.4577 30.6481C12.4078 30.6481 11.5217 30.0871 10.8229 29.4531C10.1158 28.8117 9.48159 27.9859 8.93749 27.2448C8.81798 27.082 8.70372 26.9247 8.59399 26.7737L8.59391 26.7736L8.59388 26.7735C8.17871 26.202 7.82838 25.7197 7.50415 25.3675C7.42216 25.2785 7.35147 25.2088 7.29168 25.1549C7.28124 25.182 7.27045 25.2113 7.25937 25.2429C7.13852 25.5871 7.02236 26.0857 6.92142 26.7129C6.7208 27.9592 6.59942 29.5896 6.57838 31.2265C6.5573 32.8659 6.63746 34.4695 6.82555 35.6672C6.92054 36.272 7.03629 36.7277 7.15801 37.0222C7.17667 37.0674 7.19403 37.1052 7.20966 37.1365C7.31467 37.0816 7.46071 36.9725 7.65303 36.7797C7.98129 36.4507 8.31917 36.0115 8.72154 35.4885L8.72158 35.4884C8.81926 35.3615 8.92074 35.2296 9.0268 35.0931C9.54118 34.4313 10.1449 33.6897 10.842 33.1149C11.5451 32.5351 12.4151 32.065 13.4577 32.065C14.1061 32.065 14.7177 32.3665 15.2477 32.7187C15.7945 33.0822 16.3748 33.5829 16.978 34.1424C17.4192 34.5517 17.8738 34.9926 18.3522 35.4565C19.2257 36.3036 20.1785 37.2276 21.2741 38.1768C23.7315 40.3058 26.7142 42.378 30.3746 43.3245C30.5028 43.2074 30.5992 43.1092 30.6616 43.0334C30.842 42.8144 31.1268 42.7103 31.4058 42.7616C32.5521 42.9721 34.5063 43.19 36.5893 43.1473C38.6884 43.1043 40.8253 42.7977 42.3982 42.0246C42.6408 41.9054 42.9186 41.9228 43.1391 42.0523C44.7769 41.2715 46.1879 40.2803 47.4078 39.1651C50.314 36.5083 52.1708 33.1142 53.3829 30.0821C52.6424 27.2051 50.8017 23.3098 47.6255 20.1964C46.2164 18.8151 44.5439 17.5863 42.5819 16.6666L29.6977 15.8042C29.5077 15.7915 29.3363 15.7113 29.2075 15.587ZM30.5768 45.1809C30.0864 45.5557 29.5123 45.9574 28.9262 46.3383C28.4589 46.6419 27.9787 46.9356 27.5217 47.1943C28.2593 47.3294 29.144 47.4332 30.138 47.4979C32.1694 47.6302 34.5317 47.593 36.7449 47.3902C37.1019 47.3575 37.5495 47.1534 38.08 46.7466C38.5999 46.348 39.1298 45.8093 39.6465 45.2193C39.6935 45.1656 39.7402 45.1118 39.7866 45.0578C38.2007 45.4186 36.4722 45.6172 34.5886 45.6172C33.1727 45.6172 31.8367 45.4595 30.5768 45.1809ZM7.42535 24.8836C7.42539 24.8838 7.4237 24.8861 7.42016 24.89C7.42354 24.8854 7.42531 24.8835 7.42535 24.8836Z" fill="#F8F9FA"/>
<path d="M39.8892 10.6967L40.494 9.32398L40.494 9.32398L39.8892 10.6967ZM25.0413 10.6657L24.5952 9.23355L24.5952 9.23355L25.0413 10.6657ZM41.2309 11.7449L42.3591 10.7565L42.3591 10.7565L41.2309 11.7449ZM42.2169 13.1473L40.9232 13.9064L40.9232 13.9064L42.2169 13.1473ZM43.1677 15.0008L41.809 15.6363C41.9597 15.9585 42.22 16.2167 42.5434 16.3647L43.1677 15.0008ZM48.8561 18.941L47.8061 20.0122L47.8061 20.0122L48.8561 18.941ZM55.1587 29.939L56.6175 29.5902L56.6175 29.5902L55.1587 29.939ZM55.1225 30.4631L53.7253 29.9175L53.7253 29.9175L55.1225 30.4631ZM48.5939 40.4626L47.5818 39.3554L47.5818 39.3555L48.5939 40.4626ZM42.4449 44.2585L41.9132 42.8559C41.6613 42.9513 41.4398 43.1129 41.2719 43.3235L42.4449 44.2585ZM42.2982 44.4431L41.1224 43.5117L41.122 43.5123L42.2982 44.4431ZM42.1742 44.5998L40.998 43.669L40.9948 43.673L42.1742 44.5998ZM42.1741 44.5999L43.3455 45.537L43.3536 45.5267L42.1741 44.5999ZM42.1739 44.6002L41.0026 43.6631L40.9974 43.6696L42.1739 44.6002ZM40.8221 46.2488L39.6936 45.2605L39.6936 45.2605L40.8221 46.2488ZM39.0308 47.9867L38.1181 46.7963L38.1181 46.7963L39.0308 47.9867ZM36.8875 48.9463L37.0243 50.44L37.0243 50.44L36.8875 48.9463ZM30.0365 49.0572L30.134 47.5603L30.134 47.5603L30.0365 49.0572ZM24.9667 48.0398L24.2752 49.3709L24.2753 49.3709L24.9667 48.0398ZM24.551 47.2552L26.0407 47.4304L26.0407 47.4304L24.551 47.2552ZM25.1374 46.5885L24.7736 45.1333L24.7736 45.1333L25.1374 46.5885ZM26.3484 46.0563L27.0528 47.3806L27.0528 47.3806L26.3484 46.0563ZM28.0749 45.028L27.2576 43.7702L27.2576 43.7702L28.0749 45.028ZM28.6487 44.6453L29.4961 45.883C29.9657 45.5615 30.2129 45.002 30.1344 44.4383C30.0559 43.8747 29.6651 43.404 29.1256 43.2231L28.6487 44.6453ZM20.1231 39.5054L21.1053 38.3717L21.1053 38.3717L20.1231 39.5054ZM17.0656 36.6584L18.1095 35.5811L18.1025 35.5745L17.0656 36.6584ZM17.0656 36.6584L16.0277 37.7413L16.0287 37.7423L17.0656 36.6584ZM17.0654 36.6582L16.0216 37.7355L16.0276 37.7412L17.0654 36.6582ZM15.7825 35.4312L16.8026 34.3315L16.8026 34.3315L15.7825 35.4312ZM14.2747 34.1827L15.105 32.9335L15.105 32.9335L14.2747 34.1827ZM11.9604 34.4712L12.9147 35.6285L12.9147 35.6285L11.9604 34.4712ZM10.4148 36.1719L11.5992 37.0924L11.5992 37.0924L10.4148 36.1719ZM10.1483 36.5175L11.338 37.4311L11.338 37.4311L10.1483 36.5175ZM8.89753 38.0213L7.83565 36.9618L7.83565 36.9619L8.89753 38.0213ZM6.74162 38.8952L6.4315 40.3628L6.4315 40.3628L6.74162 38.8952ZM5.93619 38.3884L7.08637 37.4256L7.08637 37.4256L5.93619 38.3884ZM5.53346 37.6937L4.14719 38.2666L4.14719 38.2666L5.53346 37.6937ZM5.08901 35.9399L6.57085 35.7072L6.57085 35.7072L5.08901 35.9399ZM4.82069 31.2039L6.32057 31.2232L6.32057 31.2232L4.82069 31.2039ZM5.18592 26.4335L3.70499 26.1951L3.70499 26.1951L5.18592 26.4335ZM5.60078 24.6606L4.18545 24.1637L4.18545 24.1637L5.60078 24.6606ZM5.91932 23.9731L7.18825 24.773L7.18825 24.773L5.91932 23.9731ZM6.55807 23.381L7.18142 24.7454L7.18143 24.7454L6.55807 23.381ZM7.91194 23.4505L7.21564 24.7791L7.21564 24.7791L7.91194 23.4505ZM8.79753 24.1769L7.69394 25.1929L7.69394 25.1929L8.79753 24.1769ZM10.0517 25.7887L11.2659 24.9079L11.2659 24.9079L10.0517 25.7887ZM10.3545 26.2045L9.14542 27.0922L9.14543 27.0922L10.3545 26.2045ZM12.004 28.1511L13.0119 27.0402L13.0119 27.0402L12.004 28.1511ZM13.9265 28.5606L15.061 29.5419L15.061 29.5419L13.9265 28.5606ZM14.8516 27.055L13.5178 26.3687L13.5178 26.3687L14.8516 27.055ZM15.3915 25.9697L14.0498 25.2988L14.0446 25.3096L15.3915 25.9697ZM15.3916 25.9694L16.7333 26.6403L16.7386 26.6295L15.3916 25.9694ZM17.6562 21.8216L16.3974 21.0059L16.3974 21.0059L17.6562 21.8216ZM28.2821 14.0087L28.6705 15.4575C29.1921 15.3177 29.5982 14.9083 29.7339 14.3857C29.8697 13.8631 29.714 13.3078 29.3264 12.9319L28.2821 14.0087ZM27.4833 13.3586L26.6229 14.5873L26.6229 14.5873L27.4833 13.3586ZM25.088 12.1705L24.7313 13.6275L24.7313 13.6275L25.088 12.1705ZM33.2371 13.2408L33.3225 14.7384L33.2371 13.2408ZM40.9977 14.162L40.542 15.5911C41.129 15.7783 41.7707 15.5875 42.1601 15.11C42.5495 14.6325 42.6073 13.9655 42.3059 13.4282L40.9977 14.162ZM30.0031 13.6215L28.7711 14.4771C29.1071 14.961 29.6953 15.2034 30.2747 15.0968L30.0031 13.6215ZM29.7642 13.3093L30.9147 12.3469L30.9147 12.3469L29.7642 13.3093ZM28.3795 12.0786L29.2399 10.8499L29.2399 10.8499L28.3795 12.0786ZM27.6231 11.5956L27.3008 10.1306C26.6973 10.2634 26.237 10.7527 26.1412 11.3631C26.0455 11.9736 26.3338 12.5803 26.8676 12.8915L27.6231 11.5956ZM39.2593 12.1266L38.6546 13.4993L38.6546 13.4993L39.2593 12.1266ZM40.0556 12.7747L41.1838 11.7862L41.1838 11.7862L40.0556 12.7747ZM40.8692 13.9381L42.1629 13.1789L42.1629 13.1789L40.8692 13.9381ZM29.2076 15.5871L30.2488 14.5073C29.8795 14.1512 29.3538 14.0085 28.8551 14.129L29.2076 15.5871ZM19.1314 22.7776L17.8726 21.9619L17.8726 21.9619L19.1314 22.7776ZM17.0064 26.6711L18.348 27.3419L18.3532 27.3314L17.0064 26.6711ZM17.0063 26.6711L15.6647 26.0003L15.6595 26.0108L17.0063 26.6711ZM16.4147 27.8594L15.0809 27.173L15.0809 27.173L16.4147 27.8594ZM15.256 29.7106L16.3905 30.692L16.3905 30.6919L15.256 29.7106ZM10.8229 29.4531L9.81509 30.5641L9.81509 30.5641L10.8229 29.4531ZM8.93755 27.2448L10.1467 26.3571L10.1467 26.3571L8.93755 27.2448ZM8.59404 26.7737L7.37127 27.6425C7.37431 27.6468 7.37738 27.651 7.38046 27.6553L8.59404 26.7737ZM8.59397 26.7736L9.81674 25.9047C9.81262 25.899 9.80846 25.8932 9.80426 25.8874L8.59397 26.7736ZM8.59394 26.7735L7.38034 27.6551L7.38364 27.6596L8.59394 26.7735ZM7.50421 25.3675L8.6078 24.3516L8.60779 24.3516L7.50421 25.3675ZM7.29173 25.1549L8.29582 24.0405C7.9289 23.7099 7.42273 23.5811 6.94241 23.6961C6.46208 23.8112 6.06916 24.1553 5.89179 24.6162L7.29173 25.1549ZM7.25943 25.2429L5.84411 24.746L5.84411 24.746L7.25943 25.2429ZM6.92147 26.7129L8.40241 26.9512L8.40241 26.9512L6.92147 26.7129ZM6.57843 31.2265L8.07831 31.2458L6.57843 31.2265ZM6.82561 35.6672L8.30745 35.4345L8.30745 35.4345L6.82561 35.6672ZM7.15807 37.0222L5.7718 37.5952L5.7718 37.5952L7.15807 37.0222ZM7.20972 37.1365L5.8676 37.8063C6.04745 38.1667 6.36464 38.4396 6.7478 38.5636C7.13096 38.6876 7.54789 38.6523 7.90478 38.4657L7.20972 37.1365ZM7.65309 36.7797L8.71496 37.8391L8.71496 37.8391L7.65309 36.7797ZM8.7216 35.4885L7.55347 34.5475C7.54646 34.5562 7.53954 34.565 7.53272 34.5739L8.7216 35.4885ZM8.72164 35.4884L9.88977 36.4294C9.89679 36.4207 9.9037 36.4119 9.91052 36.4031L8.72164 35.4884ZM9.02686 35.0931L10.2112 36.0136L10.2112 36.0136L9.02686 35.0931ZM10.8421 33.1149L9.88779 31.9576L9.88779 31.9576L10.8421 33.1149ZM15.2477 32.7187L16.078 31.4695L16.078 31.4695L15.2477 32.7187ZM16.978 34.1424L15.9579 35.2421L15.9579 35.2421L16.978 34.1424ZM18.3523 35.4565L17.308 36.5333L17.308 36.5333L18.3523 35.4565ZM21.2741 38.1768L22.2563 37.0431L22.2563 37.0431L21.2741 38.1768ZM30.3747 43.3245L29.9991 44.7768C30.4902 44.9038 31.0122 44.774 31.3866 44.4318L30.3747 43.3245ZM30.6617 43.0334L31.8196 43.9869L31.8196 43.9869L30.6617 43.0334ZM31.4059 42.7616L31.6769 41.2863L31.6769 41.2863L31.4059 42.7616ZM36.5894 43.1473L36.5586 41.6476L36.5894 43.1473ZM42.3982 42.0246L43.0599 43.3708L43.0599 43.3708L42.3982 42.0246ZM43.1391 42.0523L42.3791 43.3456C42.8085 43.5979 43.3351 43.6207 43.7847 43.4063L43.1391 42.0523ZM47.4078 39.1651L48.4199 40.2722L48.4199 40.2722L47.4078 39.1651ZM53.383 30.0821L54.7758 30.6389C54.8941 30.3428 54.9151 30.0168 54.8356 29.7081L53.383 30.0821ZM47.6255 20.1964L48.6756 19.1252L48.6756 19.1252L47.6255 20.1964ZM42.582 16.6666L43.2186 15.3084C43.0499 15.2294 42.868 15.1824 42.6821 15.17L42.582 16.6666ZM29.6977 15.8042L29.7979 14.3075L29.7979 14.3075L29.6977 15.8042ZM28.9262 46.3383L29.7435 47.5961L29.7435 47.5961L28.9262 46.3383ZM30.5768 45.1809L30.9007 43.7163C30.469 43.6208 30.0172 43.7207 29.6659 43.9892L30.5768 45.1809ZM27.5217 47.1943L26.7829 45.8889C26.2336 46.1997 25.9377 46.8212 26.0426 47.4435C26.1474 48.0659 26.6307 48.5561 27.2515 48.6698L27.5217 47.1943ZM30.1381 47.4979L30.2355 46.0011L30.2355 46.0011L30.1381 47.4979ZM36.7449 47.3902L36.6081 45.8965L36.6081 45.8965L36.7449 47.3902ZM38.0801 46.7466L38.9927 47.937L38.9927 47.937L38.0801 46.7466ZM39.6466 45.2193L40.775 46.2076L40.775 46.2076L39.6466 45.2193ZM39.7866 45.0578L40.9244 46.0353C41.3462 45.5443 41.4055 44.8381 41.0714 44.2836C40.7373 43.7292 40.0852 43.4516 39.4539 43.5952L39.7866 45.0578ZM7.4254 24.8836L5.96406 25.222L5.96452 25.2239L7.4254 24.8836ZM7.42022 24.89L6.21161 24.0016C5.73808 24.6458 5.85305 25.5482 6.47299 26.0531C7.09293 26.558 7.99991 26.4879 8.53491 25.8937L7.42022 24.89ZM40.494 9.32398C37.4231 7.97115 31.3722 7.12236 24.5952 9.23355L25.4875 12.0978C31.6293 10.1845 36.9294 11.0318 39.2845 12.0694L40.494 9.32398ZM42.3591 10.7565C41.9142 10.2487 41.2979 9.67814 40.494 9.32398L39.2845 12.0694C39.5329 12.1788 39.8094 12.3986 40.1027 12.7334L42.3591 10.7565ZM43.5106 12.3881C43.2007 11.8599 42.8171 11.2792 42.3591 10.7565L40.1027 12.7334C40.3919 13.0636 40.6675 13.4707 40.9232 13.9064L43.5106 12.3881ZM44.5265 14.3653C44.2882 13.8558 43.9331 13.1081 43.5106 12.3881L40.9232 13.9064C41.269 14.4958 41.5737 15.1332 41.809 15.6363L44.5265 14.3653ZM42.5434 16.3647C44.5861 17.2997 46.334 18.5693 47.8061 20.0122L49.9061 17.8698C48.214 16.2111 46.1837 14.7317 43.792 13.6369L42.5434 16.3647ZM47.8061 20.0122C51.1206 23.2612 52.9969 27.3482 53.6998 30.2878L56.6175 29.5902C55.8026 26.1818 53.6787 21.5679 49.9061 17.8698L47.8061 20.0122ZM53.6998 30.2878C53.6703 30.1646 53.6792 30.0354 53.7253 29.9175L56.5198 31.0088C56.6962 30.5569 56.7303 30.0619 56.6175 29.5902L53.6998 30.2878ZM53.7253 29.9175C52.5083 33.0338 50.6111 36.5862 47.5818 39.3554L49.6059 41.5697C53.1028 38.373 55.2128 34.3555 56.5198 31.0088L53.7253 29.9175ZM47.5818 39.3555C46.0114 40.791 44.1425 42.0107 41.9132 42.8559L42.9766 45.661C45.5905 44.6701 47.7801 43.2387 49.6059 41.5697L47.5818 39.3555ZM43.4741 45.3744C43.5239 45.3115 43.5718 45.2512 43.6179 45.1934L41.2719 43.3235C41.2235 43.3843 41.1736 43.4471 41.1224 43.5117L43.4741 45.3744ZM43.3505 45.5306L43.4745 45.3739L41.122 43.5123L40.998 43.669L43.3505 45.5306ZM43.3536 45.5267L43.3537 45.5265L40.9948 43.673L40.9946 43.6732L43.3536 45.5267ZM43.3452 45.5372L43.3454 45.537L41.0028 43.6629L41.0026 43.6631L43.3452 45.5372ZM41.9505 47.2371C42.473 46.6404 42.957 46.0281 43.3504 45.5307L40.9974 43.6696C40.5982 44.1744 40.1592 44.729 39.6936 45.2605L41.9505 47.2371ZM39.9435 49.177C40.695 48.6008 41.3777 47.8911 41.9505 47.2371L39.6936 45.2605C39.1758 45.8518 38.6428 46.394 38.1181 46.7963L39.9435 49.177ZM37.0243 50.44C38.2209 50.3304 39.223 49.7294 39.9435 49.177L38.1181 46.7963C37.5838 47.2059 37.1249 47.4182 36.7506 47.4525L37.0243 50.44ZM29.939 50.554C32.1418 50.6975 34.6645 50.6562 37.0243 50.44L36.7506 47.4525C34.5344 47.6556 32.1689 47.6929 30.134 47.5603L29.939 50.554ZM24.2753 49.3709C25.6784 50.0998 27.8592 50.4186 29.939 50.554L30.134 47.5603C28.061 47.4254 26.4503 47.1201 25.6582 46.7087L24.2753 49.3709ZM23.0612 47.08C22.9505 48.0218 23.4338 48.9338 24.2752 49.3709L25.6582 46.7087C25.9233 46.8464 26.0756 47.1337 26.0407 47.4304L23.0612 47.08ZM24.7736 45.1333C23.8537 45.3633 23.172 46.1383 23.0612 47.08L26.0407 47.4304C26.0058 47.7271 25.791 47.9713 25.5012 48.0437L24.7736 45.1333ZM25.6439 44.732C25.3948 44.8645 25.1881 44.9645 25.0277 45.0345C24.9479 45.0694 24.8847 45.0945 24.8375 45.1117C24.788 45.1298 24.7685 45.1346 24.7736 45.1333L25.5012 48.0437C25.9336 47.9356 26.4901 47.6799 27.0528 47.3806L25.6439 44.732ZM27.2576 43.7702C26.6935 44.1368 26.1288 44.4741 25.6439 44.732L27.0528 47.3806C27.6321 47.0724 28.2732 46.688 28.8921 46.2858L27.2576 43.7702ZM27.8013 43.4076C27.6243 43.5288 27.4421 43.6504 27.2576 43.7702L28.8921 46.2858C29.0966 46.153 29.2989 46.018 29.4961 45.883L27.8013 43.4076ZM29.1256 43.2231C25.9472 42.1575 23.3078 40.2799 21.1053 38.3717L19.1409 40.6391C21.4875 42.6722 24.4701 44.8264 28.1719 46.0675L29.1256 43.2231ZM21.1053 38.3717C20.0163 37.4283 19.0118 36.4554 18.1094 35.5811L16.0219 37.7357C16.9178 38.6037 17.9795 39.633 19.1409 40.6391L21.1053 38.3717ZM18.1025 35.5745L18.1024 35.5744L16.0287 37.7423L16.0288 37.7424L18.1025 35.5745ZM18.1034 35.5754L18.1033 35.5752L16.0276 37.7412L16.0277 37.7413L18.1034 35.5754ZM18.1092 35.581C17.647 35.1331 17.2048 34.7046 16.8026 34.3315L14.7624 36.5309C15.1359 36.8773 15.5529 37.2813 16.0217 37.7355L18.1092 35.581ZM16.8026 34.3315C16.2018 33.7742 15.6338 33.285 15.105 32.9335L13.4444 35.432C13.7627 35.6436 14.1854 35.9957 14.7624 36.5309L16.8026 34.3315ZM15.105 32.9335C14.5895 32.5909 14.03 32.3229 13.4578 32.3229V35.3229C13.3557 35.3229 13.2817 35.3095 13.2436 35.3008C13.2036 35.2918 13.1854 35.2839 13.1914 35.2863C13.1969 35.2885 13.2207 35.2985 13.2642 35.322C13.3075 35.3454 13.3672 35.3807 13.4444 35.432L15.105 32.9335ZM13.4578 32.3229C12.4981 32.3229 11.6847 32.7544 11.0061 33.3139L12.9147 35.6285C13.2898 35.3192 13.4471 35.3229 13.4578 35.3229V32.3229ZM11.0061 33.3139C10.3329 33.869 9.74401 34.5906 9.23048 35.2514L11.5992 37.0924C12.1095 36.4358 12.5223 35.952 12.9147 35.6285L11.0061 33.3139ZM9.23048 35.2514C9.13979 35.3681 9.04817 35.4874 8.95868 35.6039L11.338 37.4311C11.4285 37.3133 11.5147 37.201 11.5992 37.0924L9.23048 35.2514ZM8.95868 35.6039C8.53529 36.1552 8.16979 36.6269 7.83565 36.9618L9.9594 39.0807C10.4585 38.5804 10.9482 37.9387 11.338 37.4311L8.95868 35.6039ZM7.83565 36.9619C7.64396 37.154 7.47017 37.2937 7.31457 37.3725C7.18059 37.4404 7.10995 37.44 7.05173 37.4277L6.4315 40.3628C8.19536 40.7356 9.4612 39.5801 9.95941 39.0807L7.83565 36.9619ZM7.05173 37.4277C7.06572 37.4306 7.07896 37.435 7.09026 37.44C7.10121 37.4448 7.10799 37.4491 7.11053 37.4509C7.11288 37.4525 7.11135 37.4517 7.10647 37.4471C7.10155 37.4426 7.09466 37.4355 7.08637 37.4256L4.78601 39.3513C5.09395 39.7191 5.62889 40.1932 6.4315 40.3628L7.05173 37.4277ZM7.08637 37.4256C7.0453 37.3765 6.9862 37.2816 6.91973 37.1207L4.14719 38.2666C4.27951 38.5868 4.47842 38.9838 4.78601 39.3513L7.08637 37.4256ZM6.91973 37.1207C6.78662 36.7987 6.66706 36.3198 6.57085 35.7072L3.60717 36.1727C3.7182 36.8796 3.88239 37.6259 4.14719 38.2666L6.91973 37.1207ZM6.57085 35.7072C6.37966 34.4899 6.29939 32.8705 6.32057 31.2232L3.32081 31.1846C3.29846 32.9239 3.38012 34.7269 3.60717 36.1727L6.57085 35.7072ZM6.32057 31.2232C6.34172 29.5776 6.46369 27.9341 6.66686 26.6719L3.70499 26.1951C3.47212 27.6418 3.34326 29.4387 3.32081 31.1846L6.32057 31.2232ZM6.66686 26.6719C6.76888 26.0381 6.88796 25.5225 7.0161 25.1574L4.18545 24.1637C3.97287 24.7693 3.81972 25.4824 3.70499 26.1951L6.66686 26.6719ZM7.0161 25.1574C7.08032 24.9745 7.13984 24.8498 7.18825 24.773L4.65039 23.1733C4.43813 23.51 4.29092 23.8633 4.18545 24.1637L7.0161 25.1574ZM7.18825 24.773C7.19894 24.7561 7.20817 24.7428 7.21603 24.7326C7.22393 24.7223 7.22903 24.7169 7.23085 24.715C7.23455 24.7113 7.21869 24.7283 7.18142 24.7454L5.93471 22.0167C5.23323 22.3372 4.83856 22.8747 4.65039 23.1733L7.18825 24.773ZM7.18143 24.7454C7.18158 24.7453 7.17463 24.7482 7.1629 24.7501C7.15186 24.7518 7.14432 24.7513 7.14266 24.7512C7.14174 24.7511 7.14806 24.7516 7.16186 24.756C7.17588 24.7605 7.19426 24.7679 7.21564 24.7791L8.60824 22.1219C7.98369 21.7946 6.99243 21.5334 5.93471 22.0167L7.18143 24.7454ZM7.21564 24.7791C7.32588 24.8369 7.48404 24.9648 7.69394 25.1929L9.90112 23.161C9.61177 22.8467 9.17554 22.4193 8.60824 22.1219L7.21564 24.7791ZM7.69394 25.1929C8.02276 25.55 8.39901 26.065 8.83761 26.6695L11.2659 24.9079C10.8602 24.3487 10.3736 23.6742 9.90112 23.161L7.69394 25.1929ZM8.83761 26.6695C8.93882 26.8091 9.04246 26.9519 9.14542 27.0922L11.5637 25.3168C11.4666 25.1845 11.368 25.0486 11.2659 24.9079L8.83761 26.6695ZM9.14543 27.0922C9.68898 27.8325 10.3101 28.6397 10.9962 29.2621L13.0119 27.0402C12.5719 26.641 12.106 26.0554 11.5637 25.3167L9.14543 27.0922ZM10.9962 29.2621C11.6776 29.8803 12.5034 30.3903 13.4578 30.3903V27.3903C13.5328 27.3903 13.5405 27.4116 13.4608 27.372C13.3764 27.33 13.2274 27.2357 13.0119 27.0402L10.9962 29.2621ZM13.4578 30.3903C14.1234 30.3903 14.6446 30.0233 15.061 29.5419L12.7921 27.5793C12.7261 27.6556 12.751 27.6063 12.8712 27.538C12.9365 27.5009 13.0278 27.4595 13.1433 27.4298C13.2654 27.3984 13.3754 27.3903 13.4578 27.3903V30.3903ZM15.061 29.5419C15.4634 29.0767 15.8261 28.4395 16.1853 27.7414L13.5178 26.3687C13.1639 27.0565 12.9391 27.4093 12.7921 27.5793L15.061 29.5419ZM16.1853 27.7414C16.3618 27.3985 16.5474 27.0196 16.7385 26.6298L14.0446 25.3096C13.8502 25.7062 13.6782 26.0571 13.5178 26.3687L16.1853 27.7414ZM16.7332 26.6405L16.7333 26.6403L14.05 25.2986L14.0499 25.2988L16.7332 26.6405ZM16.7386 26.6295C17.3329 25.4169 18.0191 24.0198 18.915 22.6374L16.3974 21.0059C15.3911 22.5587 14.6333 24.1083 14.0447 25.3093L16.7386 26.6295ZM18.915 22.6374C20.8036 19.723 23.6579 16.8014 28.6705 15.4575L27.8937 12.5599C21.9826 14.1446 18.5742 17.6467 16.3974 21.0059L18.915 22.6374ZM26.6229 14.5873C26.871 14.7611 27.0782 14.9307 27.2378 15.0855L29.3264 12.9319C29.0298 12.6443 28.6936 12.3749 28.3437 12.1299L26.6229 14.5873ZM24.7313 13.6275C25.0272 13.6999 25.8513 14.047 26.6229 14.5873L28.3437 12.1299C27.3492 11.4335 26.1874 10.8953 25.4446 10.7135L24.7313 13.6275ZM22.9935 11.4822C23.0253 12.5065 23.736 13.3838 24.7313 13.6275L25.4446 10.7135C25.7582 10.7902 25.9821 11.0667 25.9921 11.3893L22.9935 11.4822ZM24.5952 9.23355C23.6169 9.53832 22.9618 10.458 22.9935 11.4822L25.9921 11.3893C26.0021 11.712 25.7957 12.0018 25.4875 12.0978L24.5952 9.23355ZM33.3225 14.7384C36.0408 14.5833 38.4381 14.9203 40.542 15.5911L41.4533 12.7329C38.9895 11.9473 36.2247 11.5679 33.1516 11.7432L33.3225 14.7384ZM30.2747 15.0968C31.2158 14.9235 32.2295 14.8007 33.3225 14.7384L33.1516 11.7432C31.9402 11.8124 30.8019 11.9493 29.7316 12.1463L30.2747 15.0968ZM31.2352 12.766C31.1313 12.6163 31.0232 12.4765 30.9147 12.3469L28.6137 14.2718C28.6711 14.3404 28.7238 14.409 28.7711 14.4771L31.2352 12.766ZM30.9147 12.3469C30.4176 11.7527 29.8125 11.2509 29.2399 10.8499L27.5192 13.3073C27.9575 13.6143 28.3396 13.9442 28.6137 14.2718L30.9147 12.3469ZM29.2399 10.8499C28.9584 10.6528 28.6681 10.4685 28.3786 10.2997L26.8676 12.8915C27.0913 13.0219 27.311 13.1616 27.5192 13.3073L29.2399 10.8499ZM27.9454 13.0606C32.8829 11.9744 36.9141 12.7326 38.6546 13.4993L39.864 10.7539C37.4726 9.7004 32.7832 8.92461 27.3008 10.1306L27.9454 13.0606ZM38.6546 13.4993C38.6252 13.4864 38.6394 13.4876 38.695 13.5326C38.749 13.5761 38.8275 13.6492 38.9274 13.7631L41.1838 11.7862C40.818 11.3686 40.3787 10.9807 39.864 10.7539L38.6546 13.4993ZM38.9274 13.7631C39.1286 13.9928 39.348 14.3096 39.5755 14.6973L42.1629 13.1789C41.8813 12.699 41.554 12.2087 41.1838 11.7862L38.9274 13.7631ZM39.5755 14.6973C39.6142 14.7631 39.6521 14.8294 39.6894 14.8958L42.3059 13.4282C42.2597 13.3457 42.212 13.2626 42.1629 13.1789L39.5755 14.6973ZM28.8551 14.129C23.1082 15.5183 19.9125 18.8139 17.8726 21.9619L20.3902 23.5933C22.1337 20.9028 24.751 18.2076 29.56 17.0451L28.8551 14.129ZM17.8726 21.9619C16.9294 23.4174 16.2404 24.8258 15.6595 26.0108L18.3532 27.3314C18.9395 26.1355 19.5571 24.879 20.3902 23.5933L17.8726 21.9619ZM15.6647 26.0003L15.6647 26.0003L18.348 27.342L18.348 27.3419L15.6647 26.0003ZM15.6595 26.0108C15.4548 26.4284 15.2664 26.8124 15.0809 27.173L17.7484 28.5457C17.9497 28.1545 18.1512 27.7434 18.3532 27.3314L15.6595 26.0108ZM15.0809 27.173C14.7242 27.8663 14.4184 28.3861 14.1216 28.7293L16.3905 30.6919C16.9415 30.0549 17.3846 29.2528 17.7484 28.5457L15.0809 27.173ZM14.1216 28.7293C13.8258 29.0712 13.6176 29.1481 13.4578 29.1481V32.1481C14.8643 32.1481 15.8281 31.3422 16.3905 30.692L14.1216 28.7293ZM13.4578 29.1481C12.9576 29.1481 12.4214 28.8779 11.8308 28.3421L9.81509 30.5641C10.6222 31.2963 11.8582 32.1481 13.4578 32.1481V29.1481ZM11.8308 28.3421C11.2464 27.8121 10.6894 27.0964 10.1467 26.3571L7.72843 28.1325C8.27386 28.8754 8.98536 29.8114 9.81509 30.5641L11.8308 28.3421ZM10.1467 26.3571C10.0297 26.1978 9.91766 26.0435 9.80763 25.8921L7.38046 27.6553C7.4899 27.8059 7.60634 27.9662 7.72844 28.1325L10.1467 26.3571ZM9.81681 25.9049L9.81674 25.9047L7.3712 27.6424L7.37127 27.6425L9.81681 25.9049ZM9.80426 25.8874L9.80423 25.8874L7.38364 27.6596L7.38367 27.6597L9.80426 25.8874ZM9.80753 25.8919C9.41123 25.3464 9.00419 24.7822 8.6078 24.3516L6.40062 26.3834C6.65268 26.6573 6.94632 27.0576 7.38034 27.6551L9.80753 25.8919ZM8.60779 24.3516C8.49955 24.234 8.39572 24.1305 8.29582 24.0405L6.28764 26.2693C6.30734 26.287 6.34489 26.3229 6.40062 26.3834L8.60779 24.3516ZM5.89179 24.6162C5.87581 24.6578 5.8599 24.701 5.84411 24.746L8.67475 25.7397C8.68111 25.7216 8.68678 25.7063 8.69167 25.6936L5.89179 24.6162ZM5.84411 24.746C5.68098 25.2107 5.54779 25.8081 5.44054 26.4745L8.40241 26.9512C8.49704 26.3633 8.59617 25.9636 8.67476 25.7397L5.84411 24.746ZM5.44054 26.4745C5.22507 27.8131 5.10025 29.5201 5.07856 31.2072L8.07831 31.2458C8.09871 29.6591 8.21664 28.1054 8.40241 26.9512L5.44054 26.4745ZM5.07856 31.2072C5.05689 32.8926 5.13774 34.588 5.34378 35.8999L8.30745 35.4345C8.13729 34.351 8.05783 32.8392 8.07831 31.2458L5.07856 31.2072ZM5.34378 35.8999C5.44608 36.5513 5.5841 37.141 5.7718 37.5952L8.54434 36.4493C8.48861 36.3144 8.39512 35.9927 8.30745 35.4345L5.34378 35.8999ZM5.7718 37.5952C5.80303 37.6707 5.83499 37.741 5.8676 37.8063L8.55183 36.4666C8.55319 36.4693 8.55042 36.464 8.54434 36.4493L5.7718 37.5952ZM7.90478 38.4657C8.2002 38.3112 8.46993 38.0847 8.71496 37.8391L6.59121 35.7203C6.52801 35.7836 6.48736 35.8181 6.46855 35.833C6.45956 35.8401 6.4583 35.8405 6.46461 35.8363C6.47064 35.8323 6.48748 35.8214 6.51465 35.8072L7.90478 38.4657ZM8.71496 37.8391C9.12624 37.4269 9.52815 36.9001 9.91048 36.4031L7.53272 34.5739C7.11031 35.1229 6.83646 35.4744 6.59121 35.7203L8.71496 37.8391ZM9.88973 36.4295L9.88977 36.4294L7.55351 34.5474L7.55347 34.5475L9.88973 36.4295ZM9.91052 36.4031C10.0085 36.2757 10.1078 36.1467 10.2112 36.0136L7.84251 34.1726C7.73383 34.3125 7.63015 34.4472 7.53276 34.5738L9.91052 36.4031ZM10.2112 36.0136C10.7231 35.355 11.2392 34.7316 11.7963 34.2722L9.88779 31.9576C9.05074 32.6478 8.35943 33.5075 7.8425 34.1726L10.2112 36.0136ZM11.7963 34.2722C12.3497 33.8159 12.8914 33.565 13.4578 33.565V30.565C11.9389 30.565 10.7406 31.2544 9.88779 31.9576L11.7963 34.2722ZM13.4578 33.565C13.658 33.565 13.9644 33.6668 14.4174 33.968L16.078 31.4695C15.4712 31.0661 14.5544 30.565 13.4578 30.565V33.565ZM14.4174 33.968C14.8592 34.2616 15.3671 34.6941 15.9579 35.2421L17.9981 33.0427C17.3827 32.4718 16.7299 31.9027 16.078 31.4695L14.4174 33.968ZM15.9579 35.2421C16.3847 35.6381 16.827 36.0669 17.308 36.5333L19.3965 34.3797C18.9208 33.9183 18.4538 33.4654 17.9981 33.0427L15.9579 35.2421ZM17.308 36.5333C18.1791 37.3781 19.1602 38.33 20.2919 39.3105L22.2563 37.0431C21.1969 36.1252 20.2724 35.2291 19.3965 34.3797L17.308 36.5333ZM20.2919 39.3105C22.8287 41.5083 26.018 43.7473 29.9991 44.7768L30.7502 41.8723C27.4105 41.0087 24.6344 39.1034 22.2563 37.0431L20.2919 39.3105ZM29.5038 42.0798C29.5088 42.0737 29.5011 42.0835 29.474 42.1111C29.4482 42.1372 29.4116 42.1726 29.3627 42.2173L31.3866 44.4318C31.537 44.2943 31.6922 44.1416 31.8196 43.9869L29.5038 42.0798ZM31.6769 41.2863C30.8622 41.1366 30.0304 41.4404 29.5038 42.0798L31.8196 43.9869C31.6537 44.1884 31.3916 44.2841 31.135 44.2369L31.6769 41.2863ZM36.5586 41.6476C34.5842 41.6881 32.7313 41.4799 31.6769 41.2863L31.1349 44.2369C32.3731 44.4643 34.4284 44.6919 36.6201 44.647L36.5586 41.6476ZM41.7366 40.6784C40.4565 41.3076 38.58 41.6062 36.5586 41.6476L36.6201 44.647C38.7969 44.6023 41.1942 44.2878 43.0599 43.3708L41.7366 40.6784ZM43.8991 40.7591C43.2577 40.3822 42.4461 40.3297 41.7366 40.6785L43.0599 43.3708C42.8356 43.4811 42.5797 43.4634 42.3791 43.3456L43.8991 40.7591ZM43.7847 43.4063C45.5676 42.5563 47.1004 41.4784 48.4199 40.2722L46.3957 38.058C45.2754 39.0821 43.9863 39.9867 42.4936 40.6984L43.7847 43.4063ZM48.4199 40.2722C51.554 37.4072 53.5172 33.7873 54.7758 30.6389L51.9901 29.5253C50.8245 32.4412 49.0742 35.6095 46.3957 38.058L48.4199 40.2722ZM54.8356 29.7081C54.0375 26.6076 52.0754 22.4578 48.6756 19.1252L46.5755 21.2675C49.5282 24.1619 51.2473 27.8026 51.9303 30.456L54.8356 29.7081ZM48.6756 19.1252C47.16 17.6396 45.3506 16.3078 43.2186 15.3084L41.9453 18.0248C43.7372 18.8648 45.2728 19.9906 46.5755 21.2675L48.6756 19.1252ZM29.5975 17.3008L42.4818 18.1633L42.6821 15.17L29.7979 14.3075L29.5975 17.3008ZM28.1663 16.6668C28.5416 17.0287 29.0433 17.2637 29.5975 17.3008L29.7979 14.3075C29.9723 14.3192 30.1312 14.3939 30.2488 14.5073L28.1663 16.6668ZM29.7435 47.5961C30.3562 47.198 30.9622 46.7743 31.4877 46.3726L29.6659 43.9892C29.2106 44.3371 28.6685 44.7169 28.109 45.0805L29.7435 47.5961ZM28.2605 48.4998C28.7478 48.224 29.2543 47.9139 29.7435 47.5961L28.109 45.0805C27.6636 45.3699 27.2097 45.6473 26.7829 45.8889L28.2605 48.4998ZM30.2355 46.0011C29.2841 45.9391 28.4591 45.841 27.7919 45.7188L27.2515 48.6698C28.0596 48.8178 29.004 48.9272 30.0406 48.9947L30.2355 46.0011ZM36.6081 45.8965C34.4667 46.0927 32.183 46.1279 30.2355 46.0011L30.0406 48.9947C32.1559 49.1325 34.5968 49.0933 36.8818 48.884L36.6081 45.8965ZM37.1674 45.5562C36.9643 45.7119 36.8096 45.8035 36.7033 45.8541C36.5942 45.9059 36.5663 45.9003 36.6081 45.8965L36.8818 48.884C37.6502 48.8136 38.3694 48.4149 38.9927 47.937L37.1674 45.5562ZM38.5182 44.231C38.0287 44.7898 37.5737 45.2447 37.1674 45.5562L38.9927 47.937C39.6262 47.4514 40.2309 46.8288 40.775 46.2076L38.5182 44.231ZM38.6489 44.0803C38.6055 44.1309 38.5619 44.1811 38.5182 44.231L40.775 46.2076C40.8253 46.1502 40.8751 46.0927 40.9244 46.0353L38.6489 44.0803ZM39.4539 43.5952C37.9827 43.9298 36.366 44.1172 34.5886 44.1172V47.1172C36.5784 47.1172 38.4188 46.9073 40.1194 46.5204L39.4539 43.5952ZM34.5886 44.1172C33.2853 44.1172 32.0579 43.9722 30.9007 43.7163L30.2529 46.6455C31.6157 46.9469 33.0603 47.1172 34.5886 47.1172V44.1172ZM5.96452 25.2239C5.88666 24.8897 5.94652 24.6217 5.96348 24.5478C5.98853 24.4388 6.02061 24.3558 6.03775 24.3141C6.07301 24.2282 6.10862 24.1648 6.12224 24.1409C6.15392 24.0853 6.18225 24.0441 6.19212 24.0299C6.21697 23.994 6.23801 23.9671 6.24778 23.9547C6.27082 23.9256 6.29093 23.9025 6.30553 23.8863L8.53491 25.8937C8.55305 25.8736 8.57577 25.8474 8.60052 25.8161C8.61115 25.8026 8.63283 25.7749 8.6581 25.7384C8.66817 25.7238 8.69665 25.6825 8.72844 25.6267C8.74211 25.6027 8.77775 25.5392 8.81303 25.4533C8.83018 25.4115 8.86227 25.3285 8.88733 25.2195C8.90429 25.1456 8.96415 24.8775 8.88629 24.5433L5.96452 25.2239ZM8.62883 25.7784C8.61873 25.7922 8.60099 25.8158 8.57702 25.8446C8.56819 25.8552 8.54168 25.8869 8.50475 25.9252C8.49533 25.9349 8.43918 25.994 8.35824 26.0582C8.34413 26.0694 8.19712 26.1916 7.97604 26.2789C7.89172 26.3122 7.53796 26.45 7.08502 26.3445C6.82067 26.2829 6.54419 26.1418 6.3204 25.898C6.10592 25.6644 6.00779 25.4109 5.96406 25.222L8.88675 24.5453C8.84301 24.3564 8.74488 24.1029 8.53041 23.8692C8.3066 23.6254 8.03013 23.4843 7.76577 23.4227C7.31283 23.3172 6.95905 23.4551 6.87471 23.4883C6.6536 23.5756 6.50655 23.6978 6.49238 23.7091C6.41132 23.7735 6.355 23.8326 6.34536 23.8426C6.30798 23.8814 6.2808 23.9139 6.27111 23.9255C6.2454 23.9564 6.22509 23.9833 6.21161 24.0016L8.62883 25.7784Z" fill="#F8F9FA" mask="url(#path-1-outside-1_50_8260)"/>
<path d="M39.6344 11.5674C41.1602 12.2396 42.3084 15.0841 42.7852 16.049L29.81 15.1804C29.6574 13.5371 26.6054 11.8786 25.3339 11.5673C31.6278 9.60663 37.1078 10.4543 39.6344 11.5674Z" fill="#FFD8A8" stroke="#212529" stroke-width="1.6" stroke-linecap="round" stroke-linejoin="round"/>
<path d="M36.8765 48.3238C39.1615 48.1145 41.7309 43.8561 42.8032 42.8813C39.3525 44.5774 33.7133 44.1242 31.3251 43.6856C30.5063 44.6799 26.7519 47.1609 25.3872 47.502C27.2637 48.4768 32.3753 48.7362 36.8765 48.3238Z" fill="#FFD8A8" stroke="#212529" stroke-width="1.6" stroke-linecap="round" stroke-linejoin="round"/>
<path d="M33.3474 14.2741C46.6538 13.515 52.912 24.2259 54.3641 30.2992C51.8929 36.6272 46.5991 44.8941 34.6489 44.8941C22.6987 44.8941 16.6026 33.0997 13.518 33.0997C10.4624 33.0997 8.78665 38.5721 6.9836 38.1911C5.18054 37.8101 5.52326 25.0035 6.9836 24.3363C8.44393 23.6691 10.6057 29.925 13.518 29.925C16.8745 29.925 16.7144 15.2231 33.3474 14.2741Z" fill="#FFA94D" stroke="#212529" stroke-width="1.8" stroke-linecap="round" stroke-linejoin="round"/>
<g style="mix-blend-mode:multiply">
<path fill-rule="evenodd" clip-rule="evenodd" d="M10.8261 28.5936C10.1409 27.9221 9.51096 27.0544 8.93535 26.2615C7.9905 24.96 7.19195 23.86 6.53525 24.1601C6.53003 24.1625 6.52482 24.165 6.51962 24.1677C6.76217 24.4751 7.01617 24.8249 7.28173 25.1908C8.29356 26.5845 9.47319 28.2094 10.8261 28.5936ZM5.7565 36.7151C5.94885 37.4624 6.20635 37.9454 6.53525 38.0149C7.35207 38.1875 8.14276 37.1589 9.04745 35.9819C10.1398 34.5608 11.3983 32.9236 13.0697 32.9236C13.2304 32.9236 13.3994 32.9556 13.5769 33.0163C12.7289 32.2984 12.0156 31.8528 11.4161 31.8528C9.7447 31.8528 8.48617 33.49 7.39383 34.9111C6.81347 35.6661 6.28003 36.3601 5.7565 36.7151ZM22.9576 40.9031C25.9639 43.0149 29.6596 44.7179 34.2006 44.7179C46.1508 44.7179 51.4445 36.451 53.9157 30.123C52.9475 26.0735 49.8426 19.9622 43.9364 16.564C48.776 20.0675 51.3886 25.3989 52.2621 29.0522C49.7909 35.3802 44.4971 43.6471 32.5469 43.6471C28.8058 43.6471 25.6384 42.4912 22.9576 40.9031Z" fill="#CED4DA"/>
</g>
<path d="M43.2594 20.5337C41.8882 22.6153 40.4577 25.4213 40.4576 30.3731C40.4576 35.3249 42.5544 37.3486 43.2594 38.5648" stroke="#212529" stroke-width="1.6" stroke-linecap="round" stroke-linejoin="round"/>
<g style="mix-blend-mode:multiply" opacity="0.5">
<path d="M34.3252 27.2598C34.9458 26.0529 36.1783 25.0951 40.4576 27.8218C40.3959 29.5835 40.3096 33.3048 40.4576 34.0959C39.3015 35.3641 37.3432 37.6037 35.3427 36.6073C33.1257 35.503 33.5493 28.7684 34.3252 27.2598Z" fill="#CED4DA"/>
</g>
<path d="M34.3252 25.3667C34.9458 24.1598 36.1783 23.202 40.4576 25.9287C40.3959 27.6905 40.3096 31.4117 40.4576 32.2029C39.3015 33.471 37.3432 35.7106 35.3427 34.7142C33.1257 33.6099 33.5493 26.8754 34.3252 25.3667Z" fill="#FFD8A8" stroke="#212529" stroke-width="1.2" stroke-linecap="round" stroke-linejoin="round"/>
<path d="M39.9696 30.2446C38.9892 30.5048 38.0008 30.774 37.0789 31.047" stroke="#212529" stroke-width="1.2" stroke-linecap="round" stroke-linejoin="round"/>
<path d="M39.9799 27.9801C38.8513 27.8827 37.8495 27.7288 37.0789 27.7288" stroke="#212529" stroke-width="1.2" stroke-linecap="round" stroke-linejoin="round"/>
<g style="mix-blend-mode:multiply">
<path d="M28.174 21.5518C27.7717 21.8646 27.1348 22.7184 27.8053 23.6304C27.6041 23.9545 27.1951 24.824 27.1683 25.7092C27.1415 26.5943 27.5818 27.3297 27.8053 27.5867C27.593 27.8885 27.1683 28.7065 27.1683 29.5648C27.1683 30.4232 27.8388 31.1742 28.174 31.4424C27.8388 31.7665 27.1683 32.7098 27.1683 33.8899C27.1683 35.0701 28.0847 35.7004 28.5429 35.8681" stroke="#DEE2E6" stroke-linecap="round" stroke-linejoin="round"/>
</g>
<g style="mix-blend-mode:multiply">
<path d="M23.804 24.1689C23.5488 24.3674 23.1448 24.9091 23.5701 25.4876C23.4425 25.6932 23.183 26.2448 23.166 26.8063C23.149 27.3679 23.4283 27.8344 23.5701 27.9974C23.4354 28.1889 23.166 28.7078 23.166 29.2523C23.166 29.7968 23.5914 30.2733 23.804 30.4434C23.5914 30.649 23.166 31.2474 23.166 31.9961C23.166 32.7448 23.7474 33.1447 24.0381 33.251" stroke="#DEE2E6" stroke-linecap="round" stroke-linejoin="round"/>
</g>
<g style="mix-blend-mode:soft-light" opacity="0.7">
<path d="M23.4549 18.149C27.1965 15.5034 34.9732 14.7916 33.0792 15.384C29.29 16.569 27.0016 17.9013 24.2176 19.7243C22.9585 20.5489 19.3163 23.7623 17.8518 25.2583C18.1038 24.2662 19.7134 20.7945 23.4549 18.149Z" fill="#F8F9FA"/>
</g>
<circle cx="47.9109" cy="26.0618" r="0.937265" fill="#212529"/>
</svg>
