<svg width="60" height="61" viewBox="0 0 60 61" fill="none" xmlns="http://www.w3.org/2000/svg">
<mask id="path-1-outside-1_50_866" maskUnits="userSpaceOnUse" x="9.98267" y="8.01343" width="40" height="47" fill="black">
<rect fill="white" x="9.98267" y="8.01343" width="40" height="47"/>
<path fill-rule="evenodd" clip-rule="evenodd" d="M15.4755 12.4337C15.4755 11.097 16.5591 10.0134 17.8957 10.0134C19.2324 10.0134 20.316 11.097 20.316 12.4337V13.3403C20.3935 13.3207 20.4759 13.3004 20.5629 13.2797C21.2715 13.1108 22.2908 12.9106 23.5576 12.7775C26.0903 12.5113 29.6231 12.512 33.6421 13.5739C37.3807 14.5617 40.6633 14.5611 43.0065 14.3148C44.1777 14.1917 45.1115 14.0075 45.7466 13.8562C46.064 13.7805 46.3063 13.7132 46.4659 13.6659C46.5456 13.6423 46.6047 13.6237 46.642 13.6116L46.6816 13.5986L46.6878 13.5965C46.9935 13.4901 47.3324 13.5379 47.5963 13.7254C47.8604 13.9129 48.0173 14.2168 48.0173 14.5407V32.1925C48.0173 32.5722 47.8023 32.9191 47.4623 33.0881C46.7195 31.593 47.4614 33.0885 47.4614 33.0885L47.4603 33.089L47.4579 33.0903L47.4513 33.0934L47.4321 33.1027C47.4165 33.1102 47.3954 33.1201 47.3689 33.1323C47.3158 33.1566 47.2411 33.1898 47.1456 33.2299C46.9546 33.3099 46.6799 33.4173 46.3282 33.5351C45.6249 33.7707 44.6115 34.0489 43.3405 34.2338C40.7954 34.6042 37.222 34.5994 33.0552 33.136C29.2364 31.7948 25.9945 31.7995 23.7206 32.1303C22.5821 32.296 21.6852 32.5437 21.0804 32.7463C20.7781 32.8476 20.5494 32.9374 20.4005 32.9998C20.3686 33.0131 20.3404 33.0252 20.316 33.0359V48.3932H21.5547C22.7996 48.3932 23.8088 49.4024 23.8088 50.6473C23.8088 51.8922 22.7996 52.9014 21.5547 52.9014H14.2368C12.9919 52.9014 11.9827 51.8922 11.9827 50.6473C11.9827 49.4024 12.9919 48.3932 14.2368 48.3932H15.4755V12.4337ZM18.716 48.3932H17.0755V12.4337C17.0755 11.9807 17.4427 11.6134 17.8957 11.6134C18.3487 11.6134 18.716 11.9807 18.716 12.4337V48.3932ZM15.6186 49.9932H14.2368C13.8755 49.9932 13.5827 50.286 13.5827 50.6473C13.5827 51.0086 13.8755 51.3014 14.2368 51.3014H16.7456C16.2263 51.0205 15.8214 50.5551 15.6186 49.9932ZM19.0459 51.3014H21.5547C21.9159 51.3014 22.2088 51.0086 22.2088 50.6473C22.2088 50.2861 21.9159 49.9932 21.5547 49.9932H20.1729C19.9701 50.5551 19.5652 51.0205 19.0459 51.3014ZM20.7559 15.2921C20.8389 15.2708 20.9292 15.2484 21.0266 15.2252C21.6617 15.0738 22.5955 14.8896 23.7667 14.7666C26.1099 14.5203 29.3925 14.5197 33.1311 15.5075C37.1501 16.5694 40.6829 16.57 43.2156 16.3038C44.3716 16.1824 45.3216 16.0051 46.0173 15.8466V31.5246C45.921 31.5602 45.8127 31.5986 45.6928 31.6387C45.088 31.8413 44.1911 32.089 43.0526 32.2547C40.7787 32.5855 37.5368 32.5903 33.718 31.249C29.5512 29.7856 25.9778 29.7809 23.4327 30.1512C22.3383 30.3104 21.4348 30.5388 20.7559 30.7496V15.2921Z"/>
</mask>
<path fill-rule="evenodd" clip-rule="evenodd" d="M15.4755 12.4337C15.4755 11.097 16.5591 10.0134 17.8957 10.0134C19.2324 10.0134 20.316 11.097 20.316 12.4337V13.3403C20.3935 13.3207 20.4759 13.3004 20.5629 13.2797C21.2715 13.1108 22.2908 12.9106 23.5576 12.7775C26.0903 12.5113 29.6231 12.512 33.6421 13.5739C37.3807 14.5617 40.6633 14.5611 43.0065 14.3148C44.1777 14.1917 45.1115 14.0075 45.7466 13.8562C46.064 13.7805 46.3063 13.7132 46.4659 13.6659C46.5456 13.6423 46.6047 13.6237 46.642 13.6116L46.6816 13.5986L46.6878 13.5965C46.9935 13.4901 47.3324 13.5379 47.5963 13.7254C47.8604 13.9129 48.0173 14.2168 48.0173 14.5407V32.1925C48.0173 32.5722 47.8023 32.9191 47.4623 33.0881C46.7195 31.593 47.4614 33.0885 47.4614 33.0885L47.4603 33.089L47.4579 33.0903L47.4513 33.0934L47.4321 33.1027C47.4165 33.1102 47.3954 33.1201 47.3689 33.1323C47.3158 33.1566 47.2411 33.1898 47.1456 33.2299C46.9546 33.3099 46.6799 33.4173 46.3282 33.5351C45.6249 33.7707 44.6115 34.0489 43.3405 34.2338C40.7954 34.6042 37.222 34.5994 33.0552 33.136C29.2364 31.7948 25.9945 31.7995 23.7206 32.1303C22.5821 32.296 21.6852 32.5437 21.0804 32.7463C20.7781 32.8476 20.5494 32.9374 20.4005 32.9998C20.3686 33.0131 20.3404 33.0252 20.316 33.0359V48.3932H21.5547C22.7996 48.3932 23.8088 49.4024 23.8088 50.6473C23.8088 51.8922 22.7996 52.9014 21.5547 52.9014H14.2368C12.9919 52.9014 11.9827 51.8922 11.9827 50.6473C11.9827 49.4024 12.9919 48.3932 14.2368 48.3932H15.4755V12.4337ZM18.716 48.3932H17.0755V12.4337C17.0755 11.9807 17.4427 11.6134 17.8957 11.6134C18.3487 11.6134 18.716 11.9807 18.716 12.4337V48.3932ZM15.6186 49.9932H14.2368C13.8755 49.9932 13.5827 50.286 13.5827 50.6473C13.5827 51.0086 13.8755 51.3014 14.2368 51.3014H16.7456C16.2263 51.0205 15.8214 50.5551 15.6186 49.9932ZM19.0459 51.3014H21.5547C21.9159 51.3014 22.2088 51.0086 22.2088 50.6473C22.2088 50.2861 21.9159 49.9932 21.5547 49.9932H20.1729C19.9701 50.5551 19.5652 51.0205 19.0459 51.3014ZM20.7559 15.2921C20.8389 15.2708 20.9292 15.2484 21.0266 15.2252C21.6617 15.0738 22.5955 14.8896 23.7667 14.7666C26.1099 14.5203 29.3925 14.5197 33.1311 15.5075C37.1501 16.5694 40.6829 16.57 43.2156 16.3038C44.3716 16.1824 45.3216 16.0051 46.0173 15.8466V31.5246C45.921 31.5602 45.8127 31.5986 45.6928 31.6387C45.088 31.8413 44.1911 32.089 43.0526 32.2547C40.7787 32.5855 37.5368 32.5903 33.718 31.249C29.5512 29.7856 25.9778 29.7809 23.4327 30.1512C22.3383 30.3104 21.4348 30.5388 20.7559 30.7496V15.2921Z" fill="#F8F9FA"/>
<path d="M20.316 13.3403H18.816C18.816 13.803 19.0295 14.2398 19.3945 14.524C19.7596 14.8082 20.2354 14.908 20.6839 14.7945L20.316 13.3403ZM20.5629 13.2797L20.2151 11.8206L20.2151 11.8206L20.5629 13.2797ZM23.5576 12.7775L23.4009 11.2857L23.4009 11.2857L23.5576 12.7775ZM33.6421 13.5739L33.2589 15.0241L33.2589 15.0241L33.6421 13.5739ZM43.0065 14.3148L42.8498 12.823L42.8498 12.823L43.0065 14.3148ZM45.7466 13.8562L45.3988 12.397L45.3988 12.397L45.7466 13.8562ZM46.4659 13.6659L46.04 12.2276L46.04 12.2276L46.4659 13.6659ZM46.642 13.6116L47.1033 15.039L47.1105 15.0366L46.642 13.6116ZM46.6816 13.5986L47.1501 15.0236L47.1604 15.0201L46.6816 13.5986ZM46.6878 13.5965L47.1667 15.018C47.1715 15.0164 47.1764 15.0148 47.1812 15.0131L46.6878 13.5965ZM47.5963 13.7254L48.4648 12.5024L48.4648 12.5024L47.5963 13.7254ZM47.4623 33.0881L46.1189 33.7555C46.4875 34.4974 47.3878 34.8 48.1297 34.4314L47.4623 33.0881ZM47.4614 33.0885L48.1282 34.4321C48.8702 34.0639 49.1732 33.164 48.8051 32.4219L47.4614 33.0885ZM47.4603 33.089L48.1245 34.434L48.1272 34.4326L47.4603 33.089ZM47.4579 33.0903L48.1173 34.4375L48.122 34.4352L47.4579 33.0903ZM47.4513 33.0934L48.1031 34.4445L48.1108 34.4407L47.4513 33.0934ZM47.4321 33.1027L48.0788 34.4561L48.0838 34.4538L47.4321 33.1027ZM47.3689 33.1323L47.9942 34.4957L47.9942 34.4957L47.3689 33.1323ZM47.1456 33.2299L46.5659 31.8464L46.5659 31.8464L47.1456 33.2299ZM46.3282 33.5351L46.8047 34.9574L46.8047 34.9574L46.3282 33.5351ZM43.3405 34.2338L43.1246 32.7495L43.1246 32.7495L43.3405 34.2338ZM33.0552 33.136L32.5582 34.5513L32.5582 34.5513L33.0552 33.136ZM23.7206 32.1303L23.5047 30.646L23.5047 30.646L23.7206 32.1303ZM21.0804 32.7463L21.5569 34.1686L21.5569 34.1686L21.0804 32.7463ZM20.4005 32.9998L19.8208 31.6163L19.8208 31.6163L20.4005 32.9998ZM20.316 33.0359L19.7163 31.661C19.1695 31.8995 18.816 32.4393 18.816 33.0359H20.316ZM20.316 48.3932H18.816C18.816 49.2216 19.4875 49.8932 20.316 49.8932V48.3932ZM15.4755 48.3932V49.8932C16.3039 49.8932 16.9755 49.2216 16.9755 48.3932H15.4755ZM17.0755 48.3932H15.5755C15.5755 49.2216 16.2471 49.8932 17.0755 49.8932V48.3932ZM18.716 48.3932V49.8932C19.5444 49.8932 20.216 49.2216 20.216 48.3932H18.716ZM15.6186 49.9932L17.0295 49.484C16.8149 48.8894 16.2506 48.4932 15.6186 48.4932V49.9932ZM16.7456 51.3014V52.8014C17.4322 52.8014 18.0311 52.3352 18.1997 51.6696C18.3682 51.004 18.0633 50.309 17.4594 49.9822L16.7456 51.3014ZM19.0459 51.3014L18.332 49.9822C17.7282 50.309 17.4232 51.004 17.5918 51.6696C17.7603 52.3352 18.3593 52.8014 19.0459 52.8014V51.3014ZM20.1729 49.9932V48.4932C19.5408 48.4932 18.9766 48.8894 18.762 49.484L20.1729 49.9932ZM21.0266 15.2252L20.6788 13.7661L20.6788 13.7661L21.0266 15.2252ZM20.7559 15.2921L20.383 13.8392C19.7197 14.0095 19.2559 14.6073 19.2559 15.2921H20.7559ZM23.7667 14.7666L23.9235 16.2583L23.9235 16.2583L23.7667 14.7666ZM33.1311 15.5075L33.5143 14.0573L33.5143 14.0573L33.1311 15.5075ZM43.2156 16.3038L43.3723 17.7956L43.2156 16.3038ZM46.0173 15.8466H47.5173C47.5173 15.3903 47.3096 14.9587 46.9529 14.6741C46.5961 14.3895 46.1293 14.2827 45.6843 14.3841L46.0173 15.8466ZM46.0173 31.5246L46.5367 32.9318C47.126 32.7143 47.5173 32.1527 47.5173 31.5246H46.0173ZM45.6928 31.6387L46.1693 33.061L46.1693 33.061L45.6928 31.6387ZM43.0526 32.2547L43.2685 33.7391L43.2685 33.7391L43.0526 32.2547ZM33.718 31.249L34.215 29.8338L34.215 29.8338L33.718 31.249ZM23.4327 30.1512L23.6486 31.6355L23.6486 31.6355L23.4327 30.1512ZM20.7559 30.7496H19.2559C19.2559 31.2263 19.4825 31.6746 19.8663 31.9574C20.2501 32.2401 20.7454 32.3235 21.2007 32.1822L20.7559 30.7496ZM17.8957 8.51343C15.7306 8.51343 13.9755 10.2686 13.9755 12.4337H16.9755C16.9755 11.9254 17.3875 11.5134 17.8957 11.5134V8.51343ZM21.816 12.4337C21.816 10.2686 20.0608 8.51343 17.8957 8.51343V11.5134C18.404 11.5134 18.816 11.9254 18.816 12.4337H21.816ZM21.816 13.3403V12.4337H18.816V13.3403H21.816ZM20.2151 11.8206C20.1213 11.8429 20.0322 11.8649 19.948 11.8862L20.6839 14.7945C20.7549 14.7765 20.8305 14.7579 20.9107 14.7388L20.2151 11.8206ZM23.4009 11.2857C22.0622 11.4264 20.9788 11.6385 20.2151 11.8206L20.9107 14.7388C21.5641 14.5831 22.5193 14.3949 23.7144 14.2693L23.4009 11.2857ZM34.0252 12.1236C29.7961 11.0062 26.0756 11.0046 23.4009 11.2857L23.7144 14.2693C26.1051 14.0181 29.4502 14.0177 33.2589 15.0241L34.0252 12.1236ZM42.8498 12.823C40.6486 13.0543 37.5536 13.0559 34.0252 12.1236L33.2589 15.0241C37.2077 16.0675 40.6779 16.0678 43.1633 15.8066L42.8498 12.823ZM45.3988 12.397C44.8189 12.5353 43.9491 12.7075 42.8498 12.823L43.1633 15.8066C44.4062 15.676 45.4042 15.4798 46.0944 15.3153L45.3988 12.397ZM46.04 12.2276C45.9047 12.2677 45.6884 12.328 45.3988 12.397L46.0944 15.3153C46.4395 15.233 46.7079 15.1586 46.8918 15.1042L46.04 12.2276ZM46.1807 12.1843C46.1548 12.1927 46.1076 12.2076 46.04 12.2276L46.8918 15.1042C46.9837 15.077 47.0545 15.0547 47.1033 15.039L46.1807 12.1843ZM46.2131 12.1737L46.1735 12.1867L47.1105 15.0366L47.1501 15.0236L46.2131 12.1737ZM46.209 12.175L46.2027 12.1771L47.1604 15.0201L47.1667 15.018L46.209 12.175ZM48.4648 12.5024C47.8042 12.0332 46.9577 11.9142 46.1945 12.18L47.1812 15.0131C47.0293 15.066 46.8606 15.0427 46.7278 14.9483L48.4648 12.5024ZM49.5173 14.5407C49.5173 13.7309 49.1251 12.9712 48.4648 12.5024L46.7278 14.9483C46.5958 14.8546 46.5173 14.7026 46.5173 14.5407H49.5173ZM49.5173 32.1925V14.5407H46.5173V32.1925H49.5173ZM48.1297 34.4314C48.9798 34.0091 49.5173 33.1417 49.5173 32.1925H46.5173C46.5173 32.0027 46.6248 31.8292 46.7949 31.7447L48.1297 34.4314ZM47.4614 33.0885C48.8051 32.4219 48.8051 32.4219 48.8051 32.4219C48.8051 32.4219 48.8051 32.4219 48.8051 32.4219C48.805 32.4218 48.805 32.4217 48.805 32.4217C48.8049 32.4215 48.8047 32.4212 48.8046 32.4209C48.8042 32.4201 48.8037 32.4191 48.803 32.4177C48.8016 32.4149 48.7996 32.4108 48.797 32.4055C48.7917 32.3949 48.7841 32.3796 48.7747 32.3607C48.7559 32.3227 48.7298 32.2702 48.7009 32.2118C48.6429 32.0949 48.5735 31.955 48.5274 31.8619C48.504 31.8145 48.4875 31.7813 48.4813 31.7687C48.4783 31.7626 48.4809 31.7677 48.4843 31.7748C48.485 31.7764 48.4868 31.7802 48.4891 31.785C48.4903 31.7875 48.4931 31.7935 48.4947 31.797C48.4972 31.8025 48.504 31.8176 48.5082 31.8273C48.5173 31.8486 48.5571 31.9558 48.5829 32.0434C47.9232 33.698 45.9939 33.4009 45.8642 33.2255C45.8468 33.1974 45.8235 33.1573 45.8171 33.1457C45.8137 33.1394 45.8082 33.1292 45.8061 33.1253C45.8023 33.1181 45.7994 33.1125 45.7985 33.1108C45.7972 33.1083 45.7962 33.1063 45.7957 33.1052C45.7946 33.1031 45.7938 33.1016 45.7937 33.1012C45.7932 33.1003 45.7938 33.1015 45.7964 33.1068C45.7988 33.1115 45.802 33.1179 45.8062 33.1265C45.8406 33.1955 45.9331 33.3814 46.1189 33.7555L48.8056 32.4207C48.6201 32.0472 48.5267 31.8594 48.4913 31.7884C48.4832 31.7721 48.4762 31.7581 48.4722 31.7501C48.4715 31.7488 48.4703 31.7465 48.4689 31.7437C48.4689 31.7437 48.464 31.734 48.4579 31.7224C48.4557 31.7184 48.4502 31.7081 48.4468 31.7018C48.4403 31.6902 48.417 31.6501 48.3997 31.622C48.2699 31.4466 46.3406 31.1494 45.6809 32.8041C45.7068 32.8916 45.7466 32.9989 45.7556 33.0202C45.7599 33.0299 45.7667 33.0451 45.7692 33.0506C45.7708 33.0542 45.7737 33.0603 45.7749 33.0628C45.7772 33.0678 45.7791 33.0718 45.78 33.0736C45.7843 33.0826 45.7892 33.0925 45.7898 33.0937C45.798 33.1104 45.8163 33.1473 45.8391 33.1934C45.8856 33.2873 45.9553 33.4278 46.0132 33.5446C46.0422 33.6031 46.0683 33.6557 46.0872 33.6937C46.0966 33.7127 46.1042 33.7281 46.1094 33.7387C46.1121 33.744 46.1141 33.7481 46.1155 33.7509C46.1162 33.7522 46.1167 33.7533 46.1171 33.754C46.1173 33.7544 46.1174 33.7547 46.1175 33.7548C46.1175 33.7549 46.1176 33.755 46.1176 33.755C46.1176 33.7551 46.1176 33.7551 46.1176 33.7551C46.1176 33.7551 46.1176 33.7551 47.4614 33.0885ZM48.1272 34.4326L48.1282 34.4321L46.7945 31.7449L46.7935 31.7454L48.1272 34.4326ZM48.122 34.4352L48.1245 34.434L46.7962 31.7441L46.7937 31.7453L48.122 34.4352ZM48.1108 34.4407L48.1173 34.4375L46.7984 31.743L46.7919 31.7462L48.1108 34.4407ZM48.0838 34.4538L48.103 34.4445L46.7996 31.7424L46.7804 31.7517L48.0838 34.4538ZM47.9942 34.4957C48.028 34.4802 48.0563 34.4669 48.0788 34.4561L46.7853 31.7493C46.7767 31.7535 46.7627 31.76 46.7435 31.7688L47.9942 34.4957ZM47.7253 34.6133C47.8367 34.5667 47.9266 34.5267 47.9942 34.4957L46.7435 31.7688C46.7051 31.7865 46.6456 31.813 46.5659 31.8464L47.7253 34.6133ZM46.8047 34.9574C47.1936 34.8271 47.5027 34.7066 47.7253 34.6133L46.5659 31.8464C46.4065 31.9132 46.1663 32.0074 45.8517 32.1128L46.8047 34.9574ZM43.5565 35.7182C44.9267 35.5188 46.0276 35.2178 46.8047 34.9574L45.8517 32.1128C45.2223 32.3237 44.2962 32.579 43.1246 32.7495L43.5565 35.7182ZM32.5582 34.5513C36.9858 36.1063 40.808 36.1181 43.5565 35.7182L43.1246 32.7495C40.7829 33.0902 37.4581 33.0925 33.5523 31.7208L32.5582 34.5513ZM23.9366 33.6147C26.007 33.3135 29.0002 33.3016 32.5582 34.5513L33.5523 31.7208C29.4726 30.2879 25.982 30.2855 23.5047 30.646L23.9366 33.6147ZM21.5569 34.1686C22.0878 33.9907 22.8974 33.7659 23.9366 33.6147L23.5047 30.646C22.2668 30.8261 21.2825 31.0966 20.6039 31.324L21.5569 34.1686ZM20.9802 34.3833C21.0974 34.3341 21.2918 34.2574 21.5569 34.1686L20.6039 31.324C20.2645 31.4377 20.0013 31.5407 19.8208 31.6163L20.9802 34.3833ZM20.9157 34.4108C20.9336 34.403 20.9551 34.3938 20.9802 34.3832L19.8208 31.6163C19.7821 31.6325 19.7473 31.6475 19.7163 31.661L20.9157 34.4108ZM21.816 48.3932V33.0359H18.816V48.3932H21.816ZM20.316 49.8932H21.5547V46.8932H20.316V49.8932ZM21.5547 49.8932C21.9711 49.8932 22.3088 50.2308 22.3088 50.6473H25.3088C25.3088 48.574 23.628 46.8932 21.5547 46.8932V49.8932ZM22.3088 50.6473C22.3088 51.0638 21.9712 51.4014 21.5547 51.4014V54.4014C23.628 54.4014 25.3088 52.7207 25.3088 50.6473H22.3088ZM21.5547 51.4014H14.2368V54.4014H21.5547V51.4014ZM14.2368 51.4014C13.8203 51.4014 13.4827 51.0638 13.4827 50.6473H10.4827C10.4827 52.7207 12.1635 54.4014 14.2368 54.4014V51.4014ZM13.4827 50.6473C13.4827 50.2308 13.8203 49.8932 14.2368 49.8932V46.8932C12.1634 46.8932 10.4827 48.574 10.4827 50.6473H13.4827ZM14.2368 49.8932H15.4755V46.8932H14.2368V49.8932ZM13.9755 12.4337V48.3932H16.9755V12.4337H13.9755ZM17.0755 49.8932H18.716V46.8932H17.0755V49.8932ZM18.5755 48.3932V12.4337H15.5755V48.3932H18.5755ZM18.5755 12.4337C18.5755 12.8091 18.2712 13.1134 17.8957 13.1134V10.1134C16.6143 10.1134 15.5755 11.1522 15.5755 12.4337H18.5755ZM17.8957 13.1134C17.5203 13.1134 17.216 12.8091 17.216 12.4337H20.216C20.216 11.1522 19.1772 10.1134 17.8957 10.1134V13.1134ZM17.216 12.4337V48.3932H20.216V12.4337H17.216ZM15.6186 48.4932H14.2368V51.4932H15.6186V48.4932ZM14.2368 48.4932C13.0471 48.4932 12.0827 49.4576 12.0827 50.6473H15.0827C15.0827 51.1145 14.704 51.4932 14.2368 51.4932V48.4932ZM12.0827 50.6473C12.0827 51.837 13.0471 52.8014 14.2368 52.8014V49.8014C14.704 49.8014 15.0827 50.1802 15.0827 50.6473H12.0827ZM14.2368 52.8014H16.7456V49.8014H14.2368V52.8014ZM14.2077 50.5024C14.5368 51.4144 15.192 52.1663 16.0317 52.6207L17.4594 49.9822C17.2606 49.8746 17.1059 49.6958 17.0295 49.484L14.2077 50.5024ZM19.0459 52.8014H21.5547V49.8014H19.0459V52.8014ZM21.5547 52.8014C22.7443 52.8014 23.7088 51.837 23.7088 50.6473H20.7088C20.7088 50.1802 21.0875 49.8014 21.5547 49.8014V52.8014ZM23.7088 50.6473C23.7088 49.4576 22.7444 48.4932 21.5547 48.4932V51.4932C21.0875 51.4932 20.7088 51.1145 20.7088 50.6473H23.7088ZM21.5547 48.4932H20.1729V51.4932H21.5547V48.4932ZM19.7598 52.6207C20.5995 52.1663 21.2546 51.4144 21.5838 50.5024L18.762 49.484C18.6855 49.6958 18.5308 49.8746 18.332 49.9822L19.7598 52.6207ZM20.6788 13.7661C20.5729 13.7913 20.4742 13.8158 20.383 13.8392L21.1288 16.7451C21.2036 16.7258 21.2856 16.7055 21.3744 16.6843L20.6788 13.7661ZM23.6099 13.2748C22.367 13.4054 21.369 13.6015 20.6788 13.7661L21.3744 16.6843C21.9543 16.5461 22.8241 16.3739 23.9235 16.2583L23.6099 13.2748ZM33.5143 14.0573C29.5655 13.0139 26.0953 13.0136 23.6099 13.2748L23.9235 16.2583C26.1246 16.027 29.2196 16.0254 32.748 16.9577L33.5143 14.0573ZM43.0588 14.8121C40.6681 15.0633 37.323 15.0636 33.5143 14.0573L32.748 16.9577C36.9771 18.0752 40.6976 18.0767 43.3723 17.7956L43.0588 14.8121ZM45.6843 14.3841C45.0401 14.5307 44.1493 14.6975 43.0588 14.8121L43.3723 17.7956C44.594 17.6672 45.603 17.4794 46.3504 17.3092L45.6843 14.3841ZM47.5173 31.5246V15.8466H44.5173V31.5246H47.5173ZM46.1693 33.061C46.304 33.0159 46.4266 32.9725 46.5367 32.9318L45.4979 30.1174C45.4154 30.1479 45.3214 30.1812 45.2163 30.2164L46.1693 33.061ZM43.2685 33.7391C44.5064 33.5589 45.4907 33.2884 46.1693 33.061L45.2163 30.2164C44.6854 30.3943 43.8758 30.6191 42.8366 30.7703L43.2685 33.7391ZM33.2209 32.6643C37.3006 34.0971 40.7912 34.0995 43.2685 33.7391L42.8366 30.7703C40.7662 31.0716 37.773 31.0834 34.215 29.8338L33.2209 32.6643ZM23.6486 31.6355C25.9903 31.2948 29.3151 31.2925 33.2209 32.6643L34.215 29.8338C29.7874 28.2787 25.9652 28.2669 23.2167 28.6668L23.6486 31.6355ZM21.2007 32.1822C21.813 31.992 22.6398 31.7823 23.6486 31.6355L23.2167 28.6668C22.0367 28.8385 21.0565 29.0856 20.311 29.3171L21.2007 32.1822ZM19.2559 15.2921V30.7496H22.2559V15.2921H19.2559Z" fill="#F8F9FA" mask="url(#path-1-outside-1_50_866)"/>
<rect x="16.3755" y="10.8135" width="3.24046" height="39.9782" rx="1.62023" fill="#E9ECEF" stroke="#212529" stroke-width="1.8"/>
<path d="M47.1174 32.3364V14.6846C47.1174 14.6846 41.2442 16.7343 33.4867 14.6846C25.7291 12.6348 19.856 14.6846 19.856 14.6846V32.3364C19.856 32.3364 25.5011 29.5317 33.4867 32.3364C41.4723 35.1411 47.1174 32.3364 47.1174 32.3364Z" fill="#FA5252" stroke="#212529" stroke-width="2" stroke-linecap="round" stroke-linejoin="round"/>
<g style="mix-blend-mode:multiply">
<path fill-rule="evenodd" clip-rule="evenodd" d="M45.2932 15.1428V30.5915C45.2932 30.5915 39.6481 34.2792 31.6625 31.4745C27.4525 29.9959 23.7826 30.7623 21.2534 31.8176C23.4021 31.1676 27.8643 30.3617 33.4866 32.3364C41.4722 35.1411 47.1173 32.3364 47.1173 32.3364V14.6846C47.1173 14.6846 46.4595 14.9142 45.2932 15.1428Z" fill="#DEE2E6"/>
</g>
<rect x="12.8827" y="49.1932" width="10.2261" height="2.90825" rx="1.45413" fill="#E9ECEF" stroke="#212529" stroke-width="1.6"/>
</svg>
