<svg width="60" height="61" viewBox="0 0 60 61" fill="none" xmlns="http://www.w3.org/2000/svg">
<mask id="path-1-outside-1_50_2740" maskUnits="userSpaceOnUse" x="12.1798" y="5.55322" width="36" height="51" fill="black">
<rect fill="white" x="12.1798" y="5.55322" width="36" height="51"/>
<path fill-rule="evenodd" clip-rule="evenodd" d="M16.8945 9.23822C16.3258 9.23822 15.8648 9.69924 15.8648 10.2679V51.4567C15.8648 52.0254 16.3258 52.4864 16.8945 52.4864H43.1055C43.6742 52.4864 44.1353 52.0254 44.1353 51.4567V10.2679C44.1353 9.69924 43.6742 9.23822 43.1055 9.23822H16.8945ZM14.1798 10.2679C14.1798 8.76864 15.3952 7.55322 16.8945 7.55322H43.1055C44.6048 7.55322 45.8203 8.76864 45.8203 10.2679V51.4567C45.8203 52.956 44.6048 54.1714 43.1055 54.1714H16.8945C15.3952 54.1714 14.1798 52.956 14.1798 51.4567V10.2679Z"/>
</mask>
<path fill-rule="evenodd" clip-rule="evenodd" d="M16.8945 9.23822C16.3258 9.23822 15.8648 9.69924 15.8648 10.2679V51.4567C15.8648 52.0254 16.3258 52.4864 16.8945 52.4864H43.1055C43.6742 52.4864 44.1353 52.0254 44.1353 51.4567V10.2679C44.1353 9.69924 43.6742 9.23822 43.1055 9.23822H16.8945ZM14.1798 10.2679C14.1798 8.76864 15.3952 7.55322 16.8945 7.55322H43.1055C44.6048 7.55322 45.8203 8.76864 45.8203 10.2679V51.4567C45.8203 52.956 44.6048 54.1714 43.1055 54.1714H16.8945C15.3952 54.1714 14.1798 52.956 14.1798 51.4567V10.2679Z" fill="#F8F9FA"/>
<path d="M17.3648 10.2679C17.3648 10.5277 17.1543 10.7382 16.8945 10.7382V7.73822C15.4974 7.73822 14.3648 8.87081 14.3648 10.2679H17.3648ZM17.3648 51.4567V10.2679H14.3648V51.4567H17.3648ZM16.8945 50.9864C17.1542 50.9864 17.3648 51.1969 17.3648 51.4567H14.3648C14.3648 52.8538 15.4974 53.9864 16.8945 53.9864V50.9864ZM43.1055 50.9864H16.8945V53.9864H43.1055V50.9864ZM42.6353 51.4567C42.6353 51.1969 42.8458 50.9864 43.1055 50.9864V53.9864C44.5027 53.9864 45.6353 52.8538 45.6353 51.4567H42.6353ZM42.6353 10.2679V51.4567H45.6353V10.2679H42.6353ZM43.1055 10.7382C42.8458 10.7382 42.6353 10.5277 42.6353 10.2679H45.6353C45.6353 8.87081 44.5027 7.73822 43.1055 7.73822V10.7382ZM16.8945 10.7382H43.1055V7.73822H16.8945V10.7382ZM16.8945 6.05322C14.5668 6.05322 12.6798 7.94021 12.6798 10.2679H15.6798C15.6798 9.59707 16.2237 9.05322 16.8945 9.05322V6.05322ZM43.1055 6.05322H16.8945V9.05322H43.1055V6.05322ZM47.3203 10.2679C47.3203 7.94021 45.4333 6.05322 43.1055 6.05322V9.05322C43.7764 9.05322 44.3203 9.59707 44.3203 10.2679H47.3203ZM47.3203 51.4567V10.2679H44.3203V51.4567H47.3203ZM43.1055 55.6714C45.4333 55.6714 47.3203 53.7844 47.3203 51.4567H44.3203C44.3203 52.1275 43.7764 52.6714 43.1055 52.6714V55.6714ZM16.8945 55.6714H43.1055V52.6714H16.8945V55.6714ZM12.6798 51.4567C12.6798 53.7844 14.5668 55.6714 16.8945 55.6714V52.6714C16.2237 52.6714 15.6798 52.1275 15.6798 51.4567H12.6798ZM12.6798 10.2679V51.4567H15.6798V10.2679H12.6798Z" fill="#F8F9FA" mask="url(#path-1-outside-1_50_2740)"/>
<path d="M43.1056 8.39575H16.8946C15.8606 8.39575 15.0223 9.23397 15.0223 10.268V51.4567C15.0223 52.4907 15.8606 53.3289 16.8946 53.3289H43.1056C44.1396 53.3289 44.9778 52.4907 44.9778 51.4567V10.268C44.9778 9.23397 44.1396 8.39575 43.1056 8.39575Z" fill="#69DB7C" stroke="#212529" stroke-width="1.8" stroke-linejoin="round"/>
<g style="mix-blend-mode:multiply">
<path fill-rule="evenodd" clip-rule="evenodd" d="M14.6028 51.6217C14.8266 51.7162 15.0726 51.7685 15.3308 51.7685H42.3938C43.0691 51.7685 43.4141 51.3498 43.4141 50.6947V8.70754C43.4141 8.51558 43.3852 8.33036 43.3315 8.15601C44.0038 8.44006 44.4757 9.10562 44.4757 9.88138V51.0701C44.4757 52.1041 43.6375 52.9423 42.6035 52.9423H16.3924C15.5504 52.9423 14.8382 52.3865 14.6028 51.6217Z" fill="#E9ECEF"/>
</g>
<path d="M31.8877 50.1497H27.1917" stroke="#212529" stroke-width="1.2" stroke-linecap="round" stroke-linejoin="round"/>
<g style="mix-blend-mode:multiply">
<path d="M39.9619 37.9831C41.1941 37.9831 42.1931 36.9842 42.1931 35.7519C42.1931 34.5197 41.1941 33.5208 39.9619 33.5208C38.7296 33.5208 37.7307 34.5197 37.7307 35.7519C37.7307 36.9842 38.7296 37.9831 39.9619 37.9831Z" fill="#E9ECEF"/>
</g>
<g style="mix-blend-mode:multiply">
<path d="M36.0487 43.0351C37.2809 43.0351 38.2799 42.0362 38.2799 40.8039C38.2799 39.5717 37.2809 38.5728 36.0487 38.5728C34.8164 38.5728 33.8175 39.5717 33.8175 40.8039C33.8175 42.0362 34.8164 43.0351 36.0487 43.0351Z" fill="#E9ECEF"/>
</g>
<path d="M39.3476 37.0932C40.3891 37.0932 41.2333 36.2489 41.2333 35.2075C41.2333 34.166 40.3891 33.3218 39.3476 33.3218C38.3062 33.3218 37.4619 34.166 37.4619 35.2075C37.4619 36.2489 38.3062 37.0932 39.3476 37.0932Z" fill="#91A7FF" stroke="#212529" stroke-linejoin="round"/>
<path d="M35.4255 42.0956C36.4669 42.0956 37.3112 41.2514 37.3112 40.2099C37.3112 39.1685 36.4669 38.3242 35.4255 38.3242C34.384 38.3242 33.5398 39.1685 33.5398 40.2099C33.5398 41.2514 34.384 42.0956 35.4255 42.0956Z" fill="#FF6B6B" stroke="#212529" stroke-linejoin="round"/>
<g style="mix-blend-mode:multiply">
<path fill-rule="evenodd" clip-rule="evenodd" d="M22.6682 32.7044L22.668 35.0606C22.668 35.3708 22.4166 35.6222 22.1064 35.6222L19.7502 35.6224V37.6174L22.1063 37.6171C22.2552 37.6171 22.3981 37.6762 22.5035 37.7815C22.6088 37.8869 22.668 38.0297 22.668 38.1787L22.6682 40.5355H24.6632L24.6629 38.1788C24.6628 38.0298 24.722 37.8869 24.8274 37.7816C24.9327 37.6762 25.0756 37.6171 25.2246 37.6171L27.5812 37.6174V35.6224L25.2245 35.6222C25.0755 35.6222 24.9326 35.563 24.8273 35.4577C24.722 35.3523 24.6628 35.2095 24.6629 35.0605L24.6632 32.7044H22.6682ZM21.5449 32.6107C21.5449 32.042 22.0059 31.5811 22.5746 31.5811H24.7568C25.3255 31.5811 25.7865 32.0421 25.7865 32.6108L25.7863 34.499L27.6748 34.4991C27.6749 34.4991 27.6748 34.4991 27.6748 34.4991C28.2435 34.4991 28.7046 34.9601 28.7046 35.5288V37.711C28.7046 38.2797 28.2435 38.7407 27.6748 38.7407L25.7863 38.7405L25.7865 40.629C25.7865 41.1977 25.3255 41.6588 24.7568 41.6588H22.5746C22.0059 41.6588 21.5449 41.1978 21.5449 40.6291C21.5449 40.6291 21.5449 40.6291 21.5449 40.6291L21.5447 38.7405L19.6566 38.7407C19.0879 38.7407 18.6268 38.2797 18.6268 37.711V35.5288C18.6268 34.9601 19.0878 34.4991 19.6565 34.4991C19.6565 34.4991 19.6565 34.4991 19.6565 34.4991L21.5447 34.499L21.5449 32.6107C21.5449 32.6107 21.5449 32.6107 21.5449 32.6107Z" fill="#E9ECEF"/>
</g>
<path fill-rule="evenodd" clip-rule="evenodd" d="M24.335 31.791C24.5935 31.791 24.8031 32.0006 24.8031 32.2591L24.8027 34.7089L27.2531 34.7091C27.5116 34.7091 27.7211 34.9186 27.7211 35.1771V37.3593C27.7211 37.6178 27.5116 37.8274 27.2531 37.8274L24.8027 37.827L24.8031 40.2774C24.8031 40.5359 24.5935 40.7454 24.335 40.7454H22.1528C21.8943 40.7454 21.6848 40.5359 21.6848 40.2774L21.6846 37.827L19.2348 37.8274C18.9763 37.8274 18.7667 37.6178 18.7667 37.3593V35.1771C18.7667 34.9186 18.9763 34.7091 19.2348 34.7091L21.6846 34.7089L21.6848 32.2591C21.6848 32.0006 21.8943 31.791 22.1528 31.791H24.335Z" fill="#F1F3F5" stroke="#212529" stroke-linejoin="round"/>
<path d="M40.6653 11.8435H19.3347C18.8177 11.8435 18.3986 12.2626 18.3986 12.7796V27.3969C18.3986 27.9139 18.8177 28.3331 19.3347 28.3331H40.6653C41.1823 28.3331 41.6014 27.9139 41.6014 27.3969V12.7796C41.6014 12.2626 41.1823 11.8435 40.6653 11.8435Z" fill="#CED4DA" stroke="#212529" stroke-width="1.2" stroke-linejoin="round"/>
<rect x="19.8414" y="13.3015" width="20.1204" height="13.5737" fill="#E9ECEF"/>
<path d="M30 20.0181H27.7211V22.297H30V20.0181Z" fill="#212529"/>
<path d="M32.2789 17.7393H30V20.0182H32.2789V17.7393Z" fill="#212529"/>
<g style="mix-blend-mode:soft-light" opacity="0.4">
<path d="M22.2751 12.3643H18.8438V27.8564H32.279L22.2751 12.3643Z" fill="#F8F9FA"/>
</g>
</svg>
