<svg width="60" height="61" viewBox="0 0 60 61" fill="none" xmlns="http://www.w3.org/2000/svg">
<mask id="path-1-outside-1_50_2321" maskUnits="userSpaceOnUse" x="7.83716" y="7.09546" width="48" height="48" fill="black">
<rect fill="white" x="7.83716" y="7.09546" width="48" height="48"/>
<path fill-rule="evenodd" clip-rule="evenodd" d="M31.6039 10.8314C20.5412 10.8314 11.5731 19.7995 11.5731 30.8622C11.5731 41.9249 20.5412 50.893 31.6039 50.893C42.6666 50.893 51.6347 41.9249 51.6347 30.8622C51.6347 19.7995 42.6666 10.8314 31.6039 10.8314ZM9.83716 30.8622C9.83716 18.8408 19.5825 9.09546 31.6039 9.09546C43.6253 9.09546 53.3707 18.8408 53.3707 30.8622C53.3707 42.8836 43.6253 52.629 31.6039 52.629C19.5825 52.629 9.83716 42.8836 9.83716 30.8622Z"/>
</mask>
<path fill-rule="evenodd" clip-rule="evenodd" d="M31.6039 10.8314C20.5412 10.8314 11.5731 19.7995 11.5731 30.8622C11.5731 41.9249 20.5412 50.893 31.6039 50.893C42.6666 50.893 51.6347 41.9249 51.6347 30.8622C51.6347 19.7995 42.6666 10.8314 31.6039 10.8314ZM9.83716 30.8622C9.83716 18.8408 19.5825 9.09546 31.6039 9.09546C43.6253 9.09546 53.3707 18.8408 53.3707 30.8622C53.3707 42.8836 43.6253 52.629 31.6039 52.629C19.5825 52.629 9.83716 42.8836 9.83716 30.8622Z" fill="#F8F9FA"/>
<path d="M13.0731 30.8622C13.0731 20.6279 21.3696 12.3314 31.6039 12.3314V9.33136C19.7127 9.33136 10.0731 18.971 10.0731 30.8622H13.0731ZM31.6039 49.393C21.3696 49.393 13.0731 41.0965 13.0731 30.8622H10.0731C10.0731 42.7534 19.7127 52.393 31.6039 52.393V49.393ZM50.1347 30.8622C50.1347 41.0965 41.8382 49.393 31.6039 49.393V52.393C43.4951 52.393 53.1347 42.7534 53.1347 30.8622H50.1347ZM31.6039 12.3314C41.8382 12.3314 50.1347 20.6279 50.1347 30.8622H53.1347C53.1347 18.971 43.4951 9.33136 31.6039 9.33136V12.3314ZM31.6039 7.59546C18.754 7.59546 8.33716 18.0123 8.33716 30.8622H11.3372C11.3372 19.6692 20.4109 10.5955 31.6039 10.5955V7.59546ZM54.8707 30.8622C54.8707 18.0123 44.4538 7.59546 31.6039 7.59546V10.5955C42.7969 10.5955 51.8707 19.6692 51.8707 30.8622H54.8707ZM31.6039 54.129C44.4538 54.129 54.8707 43.7121 54.8707 30.8622H51.8707C51.8707 42.0552 42.7969 51.129 31.6039 51.129V54.129ZM8.33716 30.8622C8.33716 43.7121 18.754 54.129 31.6039 54.129V51.129C20.4109 51.129 11.3372 42.0552 11.3372 30.8622H8.33716Z" fill="#F8F9FA" mask="url(#path-1-outside-1_50_2321)"/>
<circle cx="31.673" cy="30.8624" r="20.8988" fill="#F8F9FA" stroke="#212529" stroke-width="1.8" stroke-linejoin="round"/>
<circle cx="31.6729" cy="15.2299" r="1.28509" fill="#FF6B6B"/>
<circle r="1.28509" transform="matrix(-1 0 0 1 39.6645 17.3278)" fill="#FF6B6B"/>
<circle r="1.28509" transform="matrix(-1 0 0 1 45.3984 23.0873)" fill="#FF6B6B"/>
<circle r="1.28509" transform="matrix(-1 0 0 1 47.4719 30.3681)" fill="#FF6B6B"/>
<circle r="1.28509" transform="matrix(-1 0 0 1 31.6729 15.2299)" fill="#FF6B6B"/>
<circle cx="23.6815" cy="17.3278" r="1.28509" fill="#FF6B6B"/>
<circle cx="17.9474" cy="23.0873" r="1.28509" fill="#FF6B6B"/>
<circle cx="15.874" cy="30.3681" r="1.28509" fill="#FF6B6B"/>
<path d="M37.487 22.1944C37.6702 21.7699 38.1628 21.5743 38.5873 21.7575V21.7575C39.0118 21.9407 39.2074 22.4333 39.0242 22.8578L33.4727 35.721C33.2895 36.1455 32.7969 36.3411 32.3725 36.1579V36.1579C31.948 35.9747 31.7524 35.4821 31.9356 35.0576L37.487 22.1944Z" fill="#212529"/>
<path d="M51.6415 37.0569H11.7781C13.6516 42.1762 20.0587 52.3155 32.0653 51.9179C44.072 51.5203 50.0614 41.8449 51.6415 37.0569Z" fill="#FA5252" stroke="#212529" stroke-width="1.6" stroke-linecap="round" stroke-linejoin="round"/>
<rect x="25.3372" y="42.9294" width="5.57145" height="1.78655" rx="0.893273" fill="#212529"/>
<rect x="32.8578" y="42.9294" width="5.57145" height="1.78655" rx="0.893273" fill="#212529"/>
<circle cx="31.8832" cy="37.2915" r="2.91432" transform="rotate(23.3438 31.8832 37.2915)" fill="#FF8787" stroke="#212529" stroke-width="1.6" stroke-linecap="round"/>
<g style="mix-blend-mode:multiply">
<path fill-rule="evenodd" clip-rule="evenodd" d="M29.8181 50.3284C41.3602 50.3284 50.7169 40.9717 50.7169 29.4296C50.7169 23.9855 48.6353 19.0275 45.2245 15.3084C49.3903 19.1288 52.002 24.6167 52.002 30.7147C52.002 42.2568 42.6453 51.6135 31.1032 51.6135C25.0053 51.6135 19.5173 49.0018 15.6969 44.8359C19.4161 48.2467 24.374 50.3284 29.8181 50.3284Z" fill="#DEE2E6"/>
</g>
</svg>
