<svg width="60" height="60" viewBox="0 0 60 60" fill="none" xmlns="http://www.w3.org/2000/svg">
<mask id="path-1-outside-1_50_6311" maskUnits="userSpaceOnUse" x="5.28857" y="5.55908" width="49" height="50" fill="black">
<rect fill="white" x="5.28857" y="5.55908" width="49" height="50"/>
<path fill-rule="evenodd" clip-rule="evenodd" d="M31.3843 7.55908C29.1497 7.55908 27.3645 8.13673 25.9813 9.13722C24.6022 10.1347 23.6741 11.5148 23.0853 13.0381C22.7711 13.851 22.5433 14.949 22.3405 16.0772C22.2641 16.5026 22.1912 16.9324 22.1182 17.3622L22.1182 17.3623C21.9919 18.1066 21.8657 18.8506 21.7214 19.5701C21.4938 20.7049 21.2395 21.6769 20.92 22.3524C20.5796 23.0724 20.3102 23.1683 20.1776 23.1683C19.8111 23.1683 19.546 23.0369 19.264 22.7757C19.0336 22.5623 18.8405 22.3142 18.5996 22.0047L18.5996 22.0046L18.5995 22.0046C18.4957 21.8712 18.3829 21.7263 18.2545 21.5679C17.8599 21.0812 17.364 20.5382 16.6601 20.1408C15.9438 19.7365 15.0637 19.5108 13.9368 19.5672C12.8089 19.6236 11.9047 20.3764 11.2077 21.2946C10.4986 22.2289 9.89951 23.4684 9.40047 24.7846C8.3998 27.424 7.73899 30.542 7.43396 32.6095C7.27552 33.6833 7.24315 34.5289 7.35378 35.1598C7.4634 35.7849 7.7582 36.3975 8.42048 36.6175C9.00103 36.8103 9.59991 36.5959 10.0483 36.3669C10.5321 36.1198 11.0476 35.7463 11.5546 35.3353C12.1999 34.8121 12.9085 34.1619 13.5804 33.5454C13.9487 33.2075 14.306 32.8797 14.6358 32.5884C15.1191 32.1616 15.5497 31.8061 15.9122 31.5603C16.0929 31.4378 16.2404 31.3537 16.356 31.3024C16.434 31.2677 16.48 31.2558 16.4994 31.2517C16.5219 31.2639 16.5719 31.2998 16.6507 31.3965C16.804 31.5848 16.9786 31.9007 17.1767 32.3722C17.4685 33.0666 17.7567 33.9577 18.0955 35.0055L18.0955 35.0055C18.2181 35.3845 18.3472 35.784 18.4856 36.2021C19.504 39.2788 20.9664 43.1877 23.759 46.064C26.8734 49.2717 31.1125 52.4392 39.7227 53.2117C42.1545 53.4299 43.8882 53.1668 45.2965 52.553C46.6931 51.9444 47.7016 51.0169 48.6958 50.0641C50.5171 48.3187 51.5533 45.7736 51.8167 44.0793C51.8833 43.6509 51.9068 43.2391 51.865 42.8857C51.8291 42.5823 51.7208 42.1041 51.315 41.826C50.8156 41.4838 50.2852 41.6887 49.9737 41.8949C49.6491 42.1097 49.3244 42.4615 48.9956 42.908C47.8559 44.4551 46.2269 45.5148 44.6994 46.0605C43.9371 46.3329 43.222 46.4692 42.6292 46.4833C42.0199 46.4978 41.6183 46.3824 41.4065 46.2398C39.0392 44.6463 38.1657 42.2917 38.0199 40.1797C37.9468 39.1212 38.0591 38.1415 38.2506 37.3828C38.3465 37.0034 38.4591 36.6913 38.5705 36.4588C38.6895 36.2106 38.7802 36.1095 38.8034 36.0901C38.8113 36.0834 38.8175 36.0788 38.8221 36.0758C38.8247 36.0741 38.8267 36.0728 38.8284 36.072C38.8389 36.0725 38.8743 36.0765 38.9425 36.1063C39.1366 36.1912 39.3922 36.3897 39.7332 36.7088C39.8393 36.8082 39.9598 36.9254 40.0867 37.0488L40.0868 37.049C40.312 37.2681 40.5571 37.5067 40.7773 37.6988C41.1231 38.0006 41.5779 38.3494 42.0921 38.4637C42.7001 38.5988 43.2053 38.3722 43.5881 38.0632C43.9458 37.7745 44.2626 37.3628 44.5476 36.9727C44.6305 36.8592 44.7133 36.7441 44.7967 36.6281C45.3243 35.8945 45.8783 35.124 46.6581 34.5002C47.0297 34.2029 47.1967 34.1764 47.229 34.174C47.2471 34.1842 47.3136 34.2303 47.442 34.4068C47.5101 34.5004 47.5754 34.601 47.6549 34.7233L47.6549 34.7234L47.7194 34.8224C47.823 34.981 47.9465 35.1656 48.0905 35.3437C48.3811 35.7032 48.7959 36.0874 49.4144 36.2421C49.6073 36.2903 49.8177 36.2826 50.0189 36.1995C50.2106 36.1203 50.3467 35.9925 50.4391 35.8749C50.6117 35.6552 50.7014 35.3822 50.7558 35.1538C50.8697 34.6761 50.9103 34.0269 50.9055 33.3072C50.8958 31.8475 50.696 29.891 50.3534 27.9368C50.0113 25.9854 49.5188 23.9906 48.9071 22.4662C48.6028 21.7081 48.2528 21.0244 47.8494 20.5172C47.4601 20.0278 46.9091 19.5662 46.193 19.5662C44.3633 19.5662 43.0733 20.6758 42.0764 21.7238C41.8299 21.983 41.5922 22.2486 41.3666 22.5008L41.3664 22.501L41.3485 22.521C41.1146 22.7824 40.8942 23.0282 40.675 23.2564C40.2799 23.6676 39.9274 23.979 39.5855 24.1777C39.5102 24.0674 39.4094 23.8698 39.3001 23.5514C39.0214 22.7395 38.8041 21.5048 38.63 20.1157C38.4609 18.7666 38.3387 17.3274 38.2331 16.0838L38.2251 15.989C38.1218 14.7721 38.0298 13.6892 37.9161 13.1523C37.6573 11.931 37.2239 10.5203 36.2257 9.4163C35.1983 8.27982 33.658 7.55908 31.3843 7.55908ZM16.4856 31.2461C16.4856 31.2458 16.488 31.2462 16.4928 31.2484C16.488 31.2475 16.4856 31.2464 16.4856 31.2461Z"/>
</mask>
<path fill-rule="evenodd" clip-rule="evenodd" d="M31.3843 7.55908C29.1497 7.55908 27.3645 8.13673 25.9813 9.13722C24.6022 10.1347 23.6741 11.5148 23.0853 13.0381C22.7711 13.851 22.5433 14.949 22.3405 16.0772C22.2641 16.5026 22.1912 16.9324 22.1182 17.3622L22.1182 17.3623C21.9919 18.1066 21.8657 18.8506 21.7214 19.5701C21.4938 20.7049 21.2395 21.6769 20.92 22.3524C20.5796 23.0724 20.3102 23.1683 20.1776 23.1683C19.8111 23.1683 19.546 23.0369 19.264 22.7757C19.0336 22.5623 18.8405 22.3142 18.5996 22.0047L18.5996 22.0046L18.5995 22.0046C18.4957 21.8712 18.3829 21.7263 18.2545 21.5679C17.8599 21.0812 17.364 20.5382 16.6601 20.1408C15.9438 19.7365 15.0637 19.5108 13.9368 19.5672C12.8089 19.6236 11.9047 20.3764 11.2077 21.2946C10.4986 22.2289 9.89951 23.4684 9.40047 24.7846C8.3998 27.424 7.73899 30.542 7.43396 32.6095C7.27552 33.6833 7.24315 34.5289 7.35378 35.1598C7.4634 35.7849 7.7582 36.3975 8.42048 36.6175C9.00103 36.8103 9.59991 36.5959 10.0483 36.3669C10.5321 36.1198 11.0476 35.7463 11.5546 35.3353C12.1999 34.8121 12.9085 34.1619 13.5804 33.5454C13.9487 33.2075 14.306 32.8797 14.6358 32.5884C15.1191 32.1616 15.5497 31.8061 15.9122 31.5603C16.0929 31.4378 16.2404 31.3537 16.356 31.3024C16.434 31.2677 16.48 31.2558 16.4994 31.2517C16.5219 31.2639 16.5719 31.2998 16.6507 31.3965C16.804 31.5848 16.9786 31.9007 17.1767 32.3722C17.4685 33.0666 17.7567 33.9577 18.0955 35.0055L18.0955 35.0055C18.2181 35.3845 18.3472 35.784 18.4856 36.2021C19.504 39.2788 20.9664 43.1877 23.759 46.064C26.8734 49.2717 31.1125 52.4392 39.7227 53.2117C42.1545 53.4299 43.8882 53.1668 45.2965 52.553C46.6931 51.9444 47.7016 51.0169 48.6958 50.0641C50.5171 48.3187 51.5533 45.7736 51.8167 44.0793C51.8833 43.6509 51.9068 43.2391 51.865 42.8857C51.8291 42.5823 51.7208 42.1041 51.315 41.826C50.8156 41.4838 50.2852 41.6887 49.9737 41.8949C49.6491 42.1097 49.3244 42.4615 48.9956 42.908C47.8559 44.4551 46.2269 45.5148 44.6994 46.0605C43.9371 46.3329 43.222 46.4692 42.6292 46.4833C42.0199 46.4978 41.6183 46.3824 41.4065 46.2398C39.0392 44.6463 38.1657 42.2917 38.0199 40.1797C37.9468 39.1212 38.0591 38.1415 38.2506 37.3828C38.3465 37.0034 38.4591 36.6913 38.5705 36.4588C38.6895 36.2106 38.7802 36.1095 38.8034 36.0901C38.8113 36.0834 38.8175 36.0788 38.8221 36.0758C38.8247 36.0741 38.8267 36.0728 38.8284 36.072C38.8389 36.0725 38.8743 36.0765 38.9425 36.1063C39.1366 36.1912 39.3922 36.3897 39.7332 36.7088C39.8393 36.8082 39.9598 36.9254 40.0867 37.0488L40.0868 37.049C40.312 37.2681 40.5571 37.5067 40.7773 37.6988C41.1231 38.0006 41.5779 38.3494 42.0921 38.4637C42.7001 38.5988 43.2053 38.3722 43.5881 38.0632C43.9458 37.7745 44.2626 37.3628 44.5476 36.9727C44.6305 36.8592 44.7133 36.7441 44.7967 36.6281C45.3243 35.8945 45.8783 35.124 46.6581 34.5002C47.0297 34.2029 47.1967 34.1764 47.229 34.174C47.2471 34.1842 47.3136 34.2303 47.442 34.4068C47.5101 34.5004 47.5754 34.601 47.6549 34.7233L47.6549 34.7234L47.7194 34.8224C47.823 34.981 47.9465 35.1656 48.0905 35.3437C48.3811 35.7032 48.7959 36.0874 49.4144 36.2421C49.6073 36.2903 49.8177 36.2826 50.0189 36.1995C50.2106 36.1203 50.3467 35.9925 50.4391 35.8749C50.6117 35.6552 50.7014 35.3822 50.7558 35.1538C50.8697 34.6761 50.9103 34.0269 50.9055 33.3072C50.8958 31.8475 50.696 29.891 50.3534 27.9368C50.0113 25.9854 49.5188 23.9906 48.9071 22.4662C48.6028 21.7081 48.2528 21.0244 47.8494 20.5172C47.4601 20.0278 46.9091 19.5662 46.193 19.5662C44.3633 19.5662 43.0733 20.6758 42.0764 21.7238C41.8299 21.983 41.5922 22.2486 41.3666 22.5008L41.3664 22.501L41.3485 22.521C41.1146 22.7824 40.8942 23.0282 40.675 23.2564C40.2799 23.6676 39.9274 23.979 39.5855 24.1777C39.5102 24.0674 39.4094 23.8698 39.3001 23.5514C39.0214 22.7395 38.8041 21.5048 38.63 20.1157C38.4609 18.7666 38.3387 17.3274 38.2331 16.0838L38.2251 15.989C38.1218 14.7721 38.0298 13.6892 37.9161 13.1523C37.6573 11.931 37.2239 10.5203 36.2257 9.4163C35.1983 8.27982 33.658 7.55908 31.3843 7.55908ZM16.4856 31.2461C16.4856 31.2458 16.488 31.2462 16.4928 31.2484C16.488 31.2475 16.4856 31.2464 16.4856 31.2461Z" fill="#F8F9FA"/>
<path d="M25.9813 9.13722L25.1022 7.9218L25.1022 7.92181L25.9813 9.13722ZM23.0853 13.0381L24.4844 13.579L24.4844 13.579L23.0853 13.0381ZM22.3405 16.0772L23.8169 16.3425L23.8169 16.3425L22.3405 16.0772ZM22.1182 17.3622L23.5949 17.6259L23.5971 17.6131L22.1182 17.3622ZM22.1182 17.3623L20.6415 17.0986L20.6394 17.1113L22.1182 17.3623ZM21.7214 19.5701L20.2507 19.2752L20.2507 19.2752L21.7214 19.5701ZM20.92 22.3524L22.2761 22.9936L22.2761 22.9936L20.92 22.3524ZM19.264 22.7757L18.2447 23.8762L18.2447 23.8762L19.264 22.7757ZM18.5996 22.0047L17.3515 22.8367C17.3718 22.8672 17.3933 22.897 17.4159 22.926L18.5996 22.0047ZM18.5996 22.0046L19.8476 21.1726C19.8229 21.1355 19.7966 21.0995 19.7686 21.0648L18.5996 22.0046ZM18.5995 22.0046L17.4158 22.9259C17.4206 22.9321 17.4255 22.9383 17.4305 22.9444L18.5995 22.0046ZM18.2545 21.5679L17.0893 22.5126L17.0893 22.5126L18.2545 21.5679ZM16.6601 20.1408L15.9227 21.447L15.9227 21.447L16.6601 20.1408ZM13.9368 19.5672L13.8619 18.069L13.8619 18.069L13.9368 19.5672ZM11.2077 21.2946L12.4026 22.2015L12.4026 22.2015L11.2077 21.2946ZM9.40047 24.7846L7.99789 24.2529L7.99789 24.2529L9.40047 24.7846ZM7.43396 32.6095L8.9179 32.8284L8.9179 32.8284L7.43396 32.6095ZM7.35378 35.1598L5.87632 35.4189L5.87632 35.4189L7.35378 35.1598ZM8.42048 36.6175L7.94773 38.041L7.94773 38.041L8.42048 36.6175ZM10.0483 36.3669L10.7306 37.7028L10.7306 37.7028L10.0483 36.3669ZM11.5546 35.3353L12.4991 36.5005L12.4991 36.5005L11.5546 35.3353ZM13.5804 33.5454L14.5946 34.6506L14.5946 34.6506L13.5804 33.5454ZM14.6358 32.5884L13.6429 31.4641L13.6429 31.4641L14.6358 32.5884ZM15.9122 31.5603L15.0703 30.3189L15.0703 30.3189L15.9122 31.5603ZM16.356 31.3024L16.9654 32.673L16.9654 32.673L16.356 31.3024ZM16.4994 31.2517L17.215 29.9334C16.902 29.7634 16.5386 29.7105 16.1901 29.7839L16.4994 31.2517ZM16.6507 31.3965L15.4877 32.3438L15.4877 32.3438L16.6507 31.3965ZM17.1767 32.3722L15.7938 32.9533L15.7938 32.9533L17.1767 32.3722ZM18.0955 35.0055L16.6682 35.467L16.6725 35.4798L18.0955 35.0055ZM18.0955 35.0055L19.5228 34.5439L19.5185 34.5311L18.0955 35.0055ZM18.4856 36.2021L17.0616 36.6735L17.0616 36.6735L18.4856 36.2021ZM23.759 46.064L22.6828 47.1089L22.6828 47.1089L23.759 46.064ZM39.7227 53.2117L39.8567 51.7177L39.8567 51.7177L39.7227 53.2117ZM45.2965 52.553L44.6972 51.178L44.6972 51.178L45.2965 52.553ZM48.6958 50.0641L49.7337 51.1471L49.7337 51.1471L48.6958 50.0641ZM51.8167 44.0793L50.3345 43.8489L50.3345 43.849L51.8167 44.0793ZM51.865 42.8857L50.3754 43.0618L50.3754 43.0618L51.865 42.8857ZM51.315 41.826L52.1629 40.5886L52.1629 40.5886L51.315 41.826ZM49.9737 41.8949L49.1457 40.6441L49.1457 40.6441L49.9737 41.8949ZM48.9956 42.908L50.2033 43.7976L50.2033 43.7976L48.9956 42.908ZM44.6994 46.0605L44.1947 44.648L44.1947 44.648L44.6994 46.0605ZM42.6292 46.4833L42.665 47.9829L42.665 47.9829L42.6292 46.4833ZM41.4065 46.2398L42.2441 44.9955L42.2441 44.9955L41.4065 46.2398ZM38.0199 40.1797L39.5163 40.0764L39.5163 40.0764L38.0199 40.1797ZM38.2506 37.3828L36.7963 37.0156L36.7963 37.0156L38.2506 37.3828ZM38.5705 36.4588L39.9232 37.107L39.9232 37.107L38.5705 36.4588ZM38.8034 36.0901L39.7676 37.2391L39.7678 37.2389L38.8034 36.0901ZM38.8221 36.0758L39.6515 37.3256L39.6516 37.3256L38.8221 36.0758ZM38.8284 36.072L38.9 34.5737C38.6248 34.5605 38.3513 34.6234 38.1095 34.7554L38.8284 36.072ZM38.9425 36.1063L38.3416 37.4807L38.3416 37.4807L38.9425 36.1063ZM39.7332 36.7088L38.7083 37.804L38.7083 37.804L39.7332 36.7088ZM40.0867 37.0488L39.0405 38.1238C39.048 38.1311 39.0555 38.1383 39.0632 38.1454L40.0867 37.0488ZM40.0868 37.049L41.133 35.9741C41.1255 35.9668 41.1179 35.9596 41.1103 35.9524L40.0868 37.049ZM40.7773 37.6988L39.791 38.829L39.791 38.829L40.7773 37.6988ZM42.0921 38.4637L42.4175 36.9994L42.4175 36.9994L42.0921 38.4637ZM43.5881 38.0632L42.6459 36.896L42.6459 36.896L43.5881 38.0632ZM44.5476 36.9727L43.3364 36.0877L43.3364 36.0877L44.5476 36.9727ZM44.7967 36.6281L46.0145 37.5039L46.0145 37.5039L44.7967 36.6281ZM46.6581 34.5002L47.5952 35.6715L47.5952 35.6715L46.6581 34.5002ZM47.229 34.174L47.9635 32.8661C47.7067 32.7219 47.4132 32.6565 47.1195 32.678L47.229 34.174ZM47.442 34.4068L46.2289 35.289L46.2289 35.289L47.442 34.4068ZM47.6549 34.7233L48.9573 33.9791C48.9431 33.9543 48.9283 33.93 48.9127 33.9061L47.6549 34.7233ZM47.6549 34.7234L46.3526 35.4676C46.3669 35.4927 46.382 35.5174 46.3978 35.5417L47.6549 34.7234ZM47.7194 34.8224L46.4623 35.6407L46.4636 35.6428L47.7194 34.8224ZM48.0905 35.3437L46.9241 36.2868L46.9241 36.2868L48.0905 35.3437ZM49.4144 36.2421L49.7783 34.7869L49.7782 34.7869L49.4144 36.2421ZM50.0189 36.1995L49.4462 34.8131L49.4461 34.8131L50.0189 36.1995ZM50.4391 35.8749L49.2596 34.9482L49.2596 34.9482L50.4391 35.8749ZM50.7558 35.1538L49.2967 34.8059L49.2967 34.8059L50.7558 35.1538ZM50.9055 33.3072L49.4055 33.3172L49.4055 33.3172L50.9055 33.3072ZM50.3534 27.9368L48.8759 28.1958L48.8759 28.1958L50.3534 27.9368ZM48.9071 22.4662L50.2992 21.9075L50.2992 21.9075L48.9071 22.4662ZM47.8494 20.5172L46.6754 21.451L46.6755 21.451L47.8494 20.5172ZM42.0764 21.7238L40.9896 20.6899L40.9896 20.6899L42.0764 21.7238ZM41.3666 22.5008L42.4784 23.5077L42.4844 23.501L41.3666 22.5008ZM41.3664 22.501L40.2546 21.494L40.2485 21.5008L41.3664 22.501ZM41.3485 22.521L42.4664 23.5212L42.4664 23.5211L41.3485 22.521ZM40.675 23.2564L41.7567 24.2956L41.7567 24.2956L40.675 23.2564ZM39.5855 24.1777L38.3463 25.023C38.7894 25.6725 39.6589 25.8697 40.3389 25.4747L39.5855 24.1777ZM39.3001 23.5514L37.8814 24.0385L37.8814 24.0385L39.3001 23.5514ZM38.63 20.1157L37.1416 20.3023L37.1416 20.3023L38.63 20.1157ZM38.2331 16.0838L39.7277 15.957L39.7277 15.957L38.2331 16.0838ZM38.2251 15.989L39.7197 15.8621L39.7197 15.8621L38.2251 15.989ZM37.9161 13.1523L39.3835 12.8414L39.3835 12.8414L37.9161 13.1523ZM36.2257 9.4163L37.3384 8.41034L37.3384 8.41033L36.2257 9.4163ZM16.4856 31.2461L14.9863 31.2902L14.9863 31.2907L16.4856 31.2461ZM16.4928 31.2484L16.2248 32.7242C16.971 32.8598 17.701 32.4169 17.9255 31.6925C18.1501 30.9681 17.7986 30.19 17.1065 29.8797L16.4928 31.2484ZM26.8603 10.3526C27.9521 9.56299 29.4182 9.05908 31.3843 9.05908V6.05908C28.8812 6.05908 26.777 6.71046 25.1022 7.9218L26.8603 10.3526ZM24.4844 13.579C24.9924 12.2647 25.7643 11.1454 26.8603 10.3526L25.1022 7.92181C23.44 9.12398 22.3558 10.765 21.6862 12.4973L24.4844 13.579ZM23.8169 16.3425C24.0212 15.2059 24.2286 14.2408 24.4844 13.579L21.6862 12.4973C21.3136 13.4613 21.0654 14.6921 20.8642 15.8119L23.8169 16.3425ZM23.5971 17.6131C23.6702 17.1821 23.742 16.7595 23.8169 16.3425L20.8642 15.8119C20.7862 16.2456 20.7121 16.6828 20.6394 17.1113L23.5971 17.6131ZM23.5949 17.626L23.5949 17.6259L20.6416 17.0985L20.6416 17.0986L23.5949 17.626ZM23.1921 19.865C23.3416 19.1198 23.4715 18.3534 23.5971 17.6132L20.6394 17.1113C20.5124 17.8598 20.3898 18.5814 20.2507 19.2752L23.1921 19.865ZM22.2761 22.9936C22.6797 22.1401 22.962 21.0125 23.1921 19.865L20.2507 19.2752C20.0257 20.3973 19.7993 21.2137 19.564 21.7112L22.2761 22.9936ZM20.1776 24.6683C21.235 24.6683 21.8806 23.83 22.2761 22.9936L19.564 21.7112C19.4394 21.9747 19.3902 21.985 19.4667 21.9161C19.5117 21.8755 19.5985 21.8094 19.731 21.7549C19.8685 21.6984 20.0212 21.6683 20.1776 21.6683V24.6683ZM18.2447 23.8762C18.7293 24.325 19.3424 24.6683 20.1776 24.6683V21.6683C20.1766 21.6683 20.1919 21.6683 20.2184 21.6737C20.2457 21.6793 20.2736 21.6882 20.2985 21.6993C20.3475 21.7211 20.3467 21.7339 20.2833 21.6752L18.2447 23.8762ZM17.4159 22.926C17.6396 23.2134 17.9082 23.5645 18.2447 23.8762L20.2833 21.6752C20.159 21.5602 20.0414 21.415 19.7833 21.0833L17.4159 22.926ZM17.3515 22.8367L17.3515 22.8367L19.8476 21.1726L19.8476 21.1726L17.3515 22.8367ZM17.4305 22.9444L17.4305 22.9445L19.7686 21.0648L19.7686 21.0648L17.4305 22.9444ZM17.0893 22.5126C17.2071 22.6579 17.3113 22.7917 17.4158 22.9259L19.7833 21.0833C19.68 20.9506 19.5587 20.7947 19.4196 20.6232L17.0893 22.5126ZM15.9227 21.447C16.3804 21.7054 16.7341 22.0745 17.0893 22.5126L19.4196 20.6232C18.9856 20.0879 18.3477 19.371 17.3975 18.8346L15.9227 21.447ZM14.0117 21.0653C14.8843 21.0217 15.4778 21.1959 15.9227 21.447L17.3975 18.8346C16.4098 18.277 15.2431 18 13.8619 18.069L14.0117 21.0653ZM12.4026 22.2015C13.0008 21.4133 13.5448 21.0886 14.0117 21.0653L13.8619 18.069C12.0731 18.1585 10.8085 19.3395 10.0129 20.3878L12.4026 22.2015ZM10.8031 25.3164C11.2794 24.06 11.818 22.9716 12.4026 22.2015L10.0129 20.3878C9.17923 21.4862 8.51962 22.8768 7.99789 24.2529L10.8031 25.3164ZM8.9179 32.8284C9.21315 30.8272 9.85294 27.8224 10.8031 25.3164L7.99789 24.2529C6.94667 27.0256 6.26482 30.2569 5.95003 32.3905L8.9179 32.8284ZM8.83124 34.9007C8.76227 34.5074 8.76707 33.8507 8.9179 32.8284L5.95003 32.3905C5.78397 33.516 5.72403 34.5503 5.87632 35.4189L8.83124 34.9007ZM8.89323 35.1939C8.89763 35.1954 8.91231 35.2019 8.92768 35.2142C8.94138 35.2251 8.94199 35.2298 8.93315 35.2164C8.9234 35.2015 8.90541 35.1694 8.88537 35.1136C8.86536 35.0578 8.84634 34.9869 8.83124 34.9007L5.87632 35.4189C6.02331 36.2571 6.50631 37.5623 7.94773 38.041L8.89323 35.1939ZM9.366 35.0311C9.20542 35.1131 9.07591 35.1615 8.9774 35.182C8.88575 35.2012 8.87023 35.1863 8.89323 35.1939L7.94773 38.041C9.13479 38.4352 10.2137 37.9667 10.7306 37.7028L9.366 35.0311ZM10.61 34.1701C10.1294 34.5597 9.7098 34.8555 9.366 35.0311L10.7306 37.7028C11.3544 37.3841 11.9658 36.9329 12.4991 36.5005L10.61 34.1701ZM12.5663 32.4402C11.8855 33.0649 11.2127 33.6815 10.61 34.1701L12.4991 36.5005C13.1872 35.9427 13.9315 35.259 14.5946 34.6506L12.5663 32.4402ZM13.6429 31.4641C13.3003 31.7666 12.932 32.1046 12.5663 32.4402L14.5946 34.6506C14.9654 34.3103 15.3117 33.9927 15.6287 33.7127L13.6429 31.4641ZM15.0703 30.3189C14.6255 30.6205 14.1364 31.0282 13.6429 31.4641L15.6287 33.7127C16.1018 33.2949 16.474 32.9917 16.7541 32.8018L15.0703 30.3189ZM15.7466 29.9317C15.5212 30.0319 15.293 30.1679 15.0703 30.3189L16.7541 32.8018C16.82 32.7571 16.8716 32.7251 16.9096 32.7031C16.9485 32.6806 16.9664 32.6725 16.9654 32.673L15.7466 29.9317ZM16.1901 29.7839C16.0559 29.8122 15.9094 29.8593 15.7466 29.9317L16.9654 32.673C16.9586 32.676 16.9042 32.6993 16.8087 32.7194L16.1901 29.7839ZM17.8137 30.4492C17.6671 30.2692 17.4728 30.0733 17.215 29.9334L15.7838 32.57C15.6693 32.5078 15.5924 32.445 15.5518 32.4086C15.5089 32.37 15.488 32.3442 15.4877 32.3438L17.8137 30.4492ZM18.5595 31.791C18.3454 31.2815 18.1047 30.8065 17.8137 30.4492L15.4877 32.3438C15.4864 32.3423 15.5182 32.3824 15.5783 32.4933C15.6363 32.6001 15.7084 32.75 15.7938 32.9533L18.5595 31.791ZM19.5227 34.5439C19.1911 33.5183 18.8817 32.5576 18.5595 31.791L15.7938 32.9533C16.0554 33.5757 16.3223 34.397 16.6683 35.467L19.5227 34.5439ZM19.5185 34.5311L19.5185 34.5311L16.6725 35.4798L16.6725 35.4798L19.5185 34.5311ZM19.9097 35.7308C19.7731 35.3183 19.6455 34.9235 19.5227 34.5439L16.6683 35.467C16.7906 35.8454 16.9214 36.2497 17.0616 36.6735L19.9097 35.7308ZM24.8352 45.0191C22.3037 42.4118 20.9263 38.8025 19.9097 35.7308L17.0616 36.6735C18.0816 39.755 19.629 43.9636 22.6828 47.1089L24.8352 45.0191ZM39.8567 51.7177C31.66 50.9823 27.7414 48.0124 24.8352 45.0191L22.6828 47.1089C26.0054 50.531 30.565 53.8961 39.5886 54.7057L39.8567 51.7177ZM44.6972 51.178C43.5817 51.6641 42.1155 51.9204 39.8567 51.7177L39.5886 54.7057C42.1935 54.9394 44.1948 54.6694 45.8957 53.9281L44.6972 51.178ZM47.6579 48.9811C46.6652 49.9325 45.8248 50.6865 44.6972 51.178L45.8957 53.9281C47.5614 53.2022 48.7381 52.1012 49.7337 51.1471L47.6579 48.9811ZM50.3345 43.849C50.1126 45.2764 49.2021 47.5013 47.6579 48.9811L49.7337 51.1471C51.832 49.1361 52.9941 46.2708 53.2989 44.3097L50.3345 43.849ZM50.3754 43.0618C50.3955 43.2321 50.3891 43.4971 50.3345 43.8489L53.2989 44.3097C53.3774 43.8047 53.4181 43.2462 53.3546 42.7096L50.3754 43.0618ZM50.4671 43.0633C50.4265 43.0355 50.3958 43.0039 50.3753 42.9771C50.3656 42.9644 50.3592 42.954 50.3552 42.9471C50.3532 42.9437 50.3519 42.941 50.351 42.9393C50.3506 42.9384 50.3502 42.9377 50.35 42.9373C50.3498 42.9368 50.3497 42.9366 50.3497 42.9366C50.3497 42.9366 50.3498 42.9368 50.35 42.9372C50.3502 42.9376 50.3504 42.9383 50.3507 42.9391C50.3513 42.9408 50.3522 42.9432 50.3532 42.9465C50.3553 42.953 50.3579 42.9621 50.3606 42.9737C50.3663 42.9977 50.3712 43.0269 50.3754 43.0618L53.3546 42.7097C53.3093 42.3262 53.1388 41.2573 52.1629 40.5886L50.4671 43.0633ZM50.8016 43.1457C50.8134 43.1379 50.8237 43.1326 50.8287 43.1305C50.834 43.1283 50.8214 43.1345 50.791 43.139C50.7584 43.1438 50.7038 43.1465 50.6362 43.1326C50.5653 43.118 50.5067 43.0904 50.4671 43.0634L52.1629 40.5886C50.8907 39.7168 49.6245 40.3272 49.1457 40.6441L50.8016 43.1457ZM50.2033 43.7976C50.4939 43.403 50.6946 43.2165 50.8016 43.1457L49.1457 40.6441C48.6036 41.0029 48.1549 41.52 47.7879 42.0183L50.2033 43.7976ZM45.204 47.4731C46.9688 46.8426 48.8608 45.62 50.2033 43.7976L47.7879 42.0183C46.851 43.2901 45.4849 44.187 44.1947 44.648L45.204 47.4731ZM42.665 47.9829C43.446 47.9643 44.3202 47.7889 45.204 47.4731L44.1947 44.648C43.5539 44.8769 42.9981 44.9741 42.5935 44.9837L42.665 47.9829ZM40.5689 47.4842C41.1424 47.8702 41.9 48.0011 42.665 47.9829L42.5935 44.9837C42.3884 44.9886 42.2585 44.9704 42.1924 44.9558C42.1178 44.9393 42.1531 44.9342 42.2441 44.9955L40.5689 47.4842ZM36.5234 40.283C36.6923 42.7277 37.722 45.5678 40.5689 47.4842L42.2441 44.9955C40.3565 43.7248 39.6392 41.8557 39.5163 40.0764L36.5234 40.283ZM36.7963 37.0156C36.5666 37.9252 36.4392 39.0637 36.5234 40.283L39.5163 40.0764C39.4543 39.1788 39.5515 38.3579 39.705 37.7501L36.7963 37.0156ZM37.2178 35.8105C37.0545 36.1512 36.9111 36.561 36.7963 37.0156L39.705 37.7501C39.7818 37.4457 39.8636 37.2313 39.9232 37.107L37.2178 35.8105ZM37.8391 34.9411C37.5753 35.1624 37.3726 35.4876 37.2178 35.8106L39.9232 37.107C39.9532 37.0445 39.9674 37.0262 39.9582 37.0395C39.9537 37.046 39.9409 37.064 39.9187 37.0903C39.9076 37.1034 39.8917 37.1214 39.871 37.1429C39.8536 37.1609 39.818 37.1967 39.7676 37.2391L37.8391 34.9411ZM37.9927 34.826C37.9335 34.8652 37.8822 34.9048 37.8389 34.9412L39.7678 37.2389C39.7404 37.2619 39.7015 37.2925 39.6515 37.3256L37.9927 34.826ZM38.1095 34.7554C38.0645 34.78 38.0254 34.8043 37.9926 34.826L39.6516 37.3256C39.624 37.3439 39.589 37.3657 39.5472 37.3885L38.1095 34.7554ZM39.5434 34.732C39.3506 34.6477 39.1344 34.5849 38.9 34.5737L38.7568 37.5702C38.5433 37.56 38.398 37.5054 38.3416 37.4807L39.5434 34.732ZM40.7582 35.6136C40.4198 35.2969 39.9985 34.9309 39.5433 34.7319L38.3416 37.4807C38.2825 37.4549 38.2864 37.446 38.371 37.5108C38.448 37.5697 38.5574 37.6629 38.7083 37.804L40.7582 35.6136ZM41.1328 35.9739C41.009 35.8534 40.8772 35.725 40.7582 35.6136L38.7083 37.804C38.8015 37.8913 38.9106 37.9974 39.0405 38.1238L41.1328 35.9739ZM41.1103 35.9524L41.1101 35.9523L39.0632 38.1454L39.0633 38.1456L41.1103 35.9524ZM41.7636 36.5687C41.5801 36.4086 41.3658 36.2006 41.133 35.9741L39.0406 38.124C39.2581 38.3356 39.5341 38.6048 39.791 38.829L41.7636 36.5687ZM42.4175 36.9994C42.3792 36.9909 42.2982 36.9624 42.1705 36.8821C42.0442 36.8026 41.9109 36.6972 41.7635 36.5687L39.791 38.829C40.1536 39.1454 40.854 39.7252 41.7667 39.928L42.4175 36.9994ZM42.6459 36.896C42.5621 36.9637 42.5042 36.9898 42.476 36.9986C42.4636 37.0025 42.4564 37.0033 42.4522 37.0035C42.4485 37.0037 42.4381 37.004 42.4175 36.9994L41.7667 39.928C42.9673 40.1948 43.9286 39.7161 44.5303 39.2303L42.6459 36.896ZM43.3364 36.0877C43.0458 36.4856 42.832 36.7458 42.6459 36.896L44.5303 39.2303C45.0595 38.8031 45.4794 38.2399 45.7587 37.8576L43.3364 36.0877ZM43.5789 35.7524C43.4949 35.8692 43.4154 35.9796 43.3364 36.0877L45.7587 37.8576C45.8455 37.7388 45.9316 37.6191 46.0145 37.5039L43.5789 35.7524ZM45.7211 33.3289C44.7566 34.1005 44.0915 35.0395 43.5789 35.7524L46.0145 37.5039C46.5571 36.7494 47.0001 36.1476 47.5952 35.6715L45.7211 33.3289ZM47.1195 32.678C46.652 32.7122 46.198 32.9473 45.7211 33.3289L47.5952 35.6715C47.716 35.5749 47.7537 35.5626 47.7178 35.5798C47.6803 35.5977 47.5476 35.6547 47.3385 35.67L47.1195 32.678ZM48.6551 33.5245C48.478 33.2811 48.2591 33.0321 47.9635 32.8661L46.4946 35.4819C46.3519 35.4018 46.2656 35.3207 46.2346 35.2897C46.2005 35.2558 46.1987 35.2475 46.2289 35.289L48.6551 33.5245ZM48.9127 33.9061C48.8385 33.7918 48.7509 33.6562 48.6551 33.5245L46.2289 35.289C46.2693 35.3447 46.3123 35.4101 46.3971 35.5406L48.9127 33.9061ZM48.9573 33.9792L48.9573 33.9791L46.3525 35.4675L46.3526 35.4676L48.9573 33.9792ZM48.9765 34.0041L48.912 33.905L46.3978 35.5417L46.4623 35.6407L48.9765 34.0041ZM49.2569 34.4007C49.1636 34.2851 49.0746 34.1542 48.9752 34.002L46.4636 35.6428C46.5715 35.8078 46.7295 36.0461 46.9241 36.2868L49.2569 34.4007ZM49.7782 34.7869C49.6001 34.7423 49.4414 34.6288 49.2569 34.4007L46.9241 36.2868C47.3209 36.7776 47.9918 37.4326 49.0506 37.6973L49.7782 34.7869ZM49.4461 34.8131C49.5643 34.7643 49.6841 34.7633 49.7783 34.7869L49.0506 37.6973C49.5304 37.8172 50.0711 37.8009 50.5917 37.5858L49.4461 34.8131ZM49.2596 34.9482C49.2797 34.9226 49.3379 34.8579 49.4462 34.8131L50.5917 37.5858C51.0832 37.3827 51.4137 37.0623 51.6186 36.8016L49.2596 34.9482ZM49.2967 34.8059C49.2806 34.8735 49.2657 34.9197 49.2534 34.9499C49.2408 34.9807 49.2392 34.9741 49.2596 34.9482L51.6185 36.8017C51.9923 36.3259 52.1437 35.8005 52.2149 35.5017L49.2967 34.8059ZM49.4055 33.3172C49.4101 34.004 49.3679 34.5077 49.2967 34.8059L52.2149 35.5017C52.3716 34.8446 52.4105 34.0498 52.4055 33.2972L49.4055 33.3172ZM48.8759 28.1958C49.2086 30.0935 49.3965 31.9636 49.4055 33.3172L52.4055 33.2972C52.395 31.7314 52.1834 29.6884 51.8308 27.6777L48.8759 28.1958ZM47.515 23.0248C48.0723 24.4137 48.5427 26.2953 48.8759 28.1958L51.8309 27.6777C51.4798 25.6756 50.9653 23.5675 50.2992 21.9075L47.515 23.0248ZM46.6755 21.451C46.9489 21.7947 47.2347 22.3264 47.515 23.0248L50.2992 21.9075C49.971 21.0897 49.5567 20.2541 49.0233 19.5835L46.6755 21.451ZM46.193 21.0662C46.2122 21.0662 46.2524 21.0686 46.3352 21.1216C46.429 21.1816 46.5461 21.2884 46.6754 21.451L49.0233 19.5835C48.5352 18.9698 47.5987 18.0662 46.193 18.0662V21.0662ZM43.1633 22.7576C44.1173 21.7547 45.0258 21.0662 46.193 21.0662V18.0662C43.7008 18.0662 42.0293 19.5969 40.9896 20.6899L43.1633 22.7576ZM42.4844 23.501C42.7123 23.2462 42.9351 22.9975 43.1633 22.7576L40.9896 20.6899C40.7247 20.9684 40.472 21.251 40.2487 21.5006L42.4844 23.501ZM42.4782 23.5079L42.4784 23.5077L40.2547 21.4939L40.2546 21.494L42.4782 23.5079ZM42.4664 23.5211L42.4843 23.5011L40.2485 21.5008L40.2306 21.5209L42.4664 23.5211ZM41.7567 24.2956C41.9974 24.0451 42.2353 23.7795 42.4664 23.5212L40.2306 21.5208C39.9939 21.7854 39.7911 22.0113 39.5934 22.2171L41.7567 24.2956ZM40.3389 25.4747C40.8635 25.17 41.3313 24.7383 41.7567 24.2956L39.5934 22.2171C39.2285 22.5969 38.9914 22.7881 38.832 22.8806L40.3389 25.4747ZM37.8814 24.0385C38.0153 24.4285 38.1684 24.7621 38.3463 25.023L40.8246 23.3324C40.8429 23.3592 40.8371 23.3558 40.8138 23.306C40.7917 23.259 40.7588 23.1808 40.7188 23.0643L37.8814 24.0385ZM37.1416 20.3023C37.3166 21.6987 37.5481 23.0679 37.8814 24.0385L40.7188 23.0643C40.4946 22.4112 40.2915 21.311 40.1183 19.9292L37.1416 20.3023ZM36.7385 16.2107C36.8436 17.449 36.9681 18.9183 37.1416 20.3023L40.1183 19.9292C39.9536 18.6149 39.8338 17.2058 39.7277 15.957L36.7385 16.2107ZM36.7304 16.1159L36.7385 16.2107L39.7277 15.957L39.7197 15.8621L36.7304 16.1159ZM36.4486 13.4631C36.5376 13.8832 36.6221 14.8392 36.7304 16.1159L39.7197 15.8621C39.6215 14.7051 39.522 13.4951 39.3835 12.8414L36.4486 13.4631ZM35.1131 10.4223C35.8386 11.2248 36.205 12.3134 36.4486 13.4631L39.3835 12.8414C39.1096 11.5487 38.6091 9.8158 37.3384 8.41034L35.1131 10.4223ZM31.3843 9.05908C33.3111 9.05908 34.4179 9.65332 35.1131 10.4223L37.3384 8.41033C35.9786 6.90632 34.005 6.05908 31.3843 6.05908V9.05908ZM17.985 31.202C18.0009 31.7447 17.7302 32.1778 17.4079 32.4291C17.1467 32.6326 16.8887 32.6948 16.7848 32.7159C16.5632 32.761 16.3854 32.7433 16.342 32.7391C16.2126 32.7266 16.1146 32.6997 16.0803 32.69C15.9897 32.6645 15.92 32.6354 15.8791 32.6171L17.1065 29.8797C17.0608 29.8592 16.9875 29.8288 16.8945 29.8026C16.859 29.7926 16.7601 29.7655 16.6301 29.753C16.5864 29.7487 16.4084 29.731 16.1867 29.7761C16.0826 29.7973 15.8246 29.8595 15.5634 30.0631C15.2411 30.3143 14.9703 30.7474 14.9863 31.2902L17.985 31.202ZM16.7608 29.7725C16.8173 29.7828 16.8935 29.8001 16.9813 29.8307C17.0195 29.844 17.0967 29.8725 17.1887 29.9212C17.2283 29.9422 17.3246 29.995 17.433 30.0832C17.4857 30.1261 17.5858 30.2131 17.6856 30.3461C17.7696 30.4581 17.9717 30.7578 17.9849 31.2015L14.9863 31.2907C14.9995 31.7345 15.2017 32.0342 15.2857 32.1463C15.3855 32.2793 15.4857 32.3664 15.5385 32.4094C15.647 32.4977 15.7436 32.5506 15.7834 32.5717C15.876 32.6208 15.9542 32.6497 15.9935 32.6634C16.0837 32.6949 16.1636 32.7131 16.2248 32.7242L16.7608 29.7725Z" fill="#F8F9FA" mask="url(#path-1-outside-1_50_6311)"/>
<path d="M13.974 20.3109C10.7721 20.471 8.77088 28.6491 8.17053 32.7182C6.93302 41.1059 14.4028 30.5051 16.5076 30.5051C18.6123 30.5051 18.9674 40.0601 24.2932 45.5454C27.3043 48.6467 31.3843 51.7161 39.7892 52.4702C44.481 52.8912 46.193 51.4315 48.1807 49.5266C51.5483 46.2994 52.0758 39.982 49.595 43.3496C47.1143 46.7172 42.5568 47.9117 40.9907 46.8576C35.7795 43.3496 37.1877 36.4741 38.3247 35.5199C39.4618 34.5656 40.9907 37.4563 42.2536 37.737C43.5164 38.0176 44.1918 35.5199 46.193 33.9189C48.1942 32.318 47.9941 35.1196 49.595 35.5199C51.196 35.9201 49.1948 20.3109 46.193 20.3109C43.1912 20.3109 41.7904 23.913 39.7892 24.9136C37.788 25.9142 37.5962 15.2349 37.1877 13.3067C36.6852 10.9347 35.5867 8.30371 31.3843 8.30371C27.1818 8.30371 24.8771 10.4677 23.7798 13.3067C22.6389 16.258 22.5791 23.913 20.1776 23.913C17.7762 23.913 17.9763 20.1107 13.974 20.3109Z" fill="#F8F9FA" stroke="#212529" stroke-width="1.6" stroke-linejoin="round"/>
<g style="mix-blend-mode:multiply">
<path d="M35.9737 15.0206C35.6506 12.0056 33.4163 9.86095 32.3395 9.16553H34.7623L36.714 11.8575L37.6562 23.164C37.23 21.7058 36.2968 18.0357 35.9737 15.0206Z" fill="#DEE2E6"/>
</g>
<g style="mix-blend-mode:multiply">
<path d="M46.4169 20.5469L44.9054 21.2119C45.4092 21.8367 46.5378 23.3159 47.0214 24.2348C47.5051 25.1538 48.2306 28.487 48.5329 30.0388V34.1499L48.9561 34.9358H50.1048V33.1826L48.5329 24.2348L46.4169 20.5469Z" fill="#DEE2E6"/>
</g>
<g style="mix-blend-mode:multiply">
<path d="M42.7461 50.2541C39.9595 51.0097 33.4772 49.9392 30.5844 49.3095C33.5362 50.4705 40.1721 52.6156 43.1003 51.9071C46.0286 51.1987 48.3744 48.5026 49.1812 47.2432C48.1973 47.9319 45.5327 49.4984 42.7461 50.2541Z" fill="#DEE2E6"/>
</g>
<path d="M30.1251 20.5C28.2495 20.2706 26.5026 23.9566 25.7064 26.298C25.487 26.9431 25.3073 28.0639 26.719 27.8827C27.7676 27.748 28.6654 24.4422 30.1251 24.2271C31.5849 24.0121 33.9166 29.4216 34.934 29.3858C35.9515 29.3499 32.4697 20.7867 30.1251 20.5Z" fill="#DEE2E6" stroke="#212529" stroke-width="1.2" stroke-linejoin="round"/>
<circle cx="26.8524" cy="14.8198" r="0.709003" fill="#212529"/>
<circle cx="32.2942" cy="14.8198" r="0.709003" fill="#212529"/>
</svg>
