<svg width="60" height="60" viewBox="0 0 60 60" fill="none" xmlns="http://www.w3.org/2000/svg">
<mask id="path-1-outside-1_50_7020" maskUnits="userSpaceOnUse" x="4.32532" y="13.7686" width="51" height="30" fill="black">
<rect fill="white" x="4.32532" y="13.7686" width="51" height="30"/>
<path fill-rule="evenodd" clip-rule="evenodd" d="M12.2213 16.4382C12.3616 16.0371 12.7402 15.7686 13.1651 15.7686H16.7186C17.2709 15.7686 17.7186 16.2163 17.7186 16.7686C17.7186 17.3208 17.2709 17.7686 16.7186 17.7686H13.8746L8.32696 33.6205L10.1494 33.6205L10.1256 33.3328C9.98616 31.6429 11.3201 30.1943 13.0158 30.1943H25.9135C27.6092 30.1943 28.9431 31.6429 28.8036 33.3328L28.7799 33.6205H31.3638L31.34 33.3328C31.2006 31.6429 32.5345 30.1943 34.2302 30.1943H47.1279C48.8236 30.1943 50.1575 31.6429 50.0181 33.3328L49.9943 33.6205L51.7595 33.6205L46.2118 17.7686H43.3678C42.8156 17.7686 42.3678 17.3208 42.3678 16.7686C42.3678 16.2163 42.8156 15.7686 43.3678 15.7686H46.9213C47.3463 15.7686 47.7248 16.0371 47.8652 16.4382L53.6473 32.9598C54.1023 34.2602 53.1372 35.6205 51.7595 35.6205H49.8293L49.5384 39.1452C49.4143 40.6493 48.1574 41.8067 46.6482 41.8067H34.7099C33.2007 41.8067 31.9438 40.6493 31.8197 39.1452L31.5288 35.6205H28.6149L28.324 39.1452C28.1999 40.6493 26.943 41.8067 25.4338 41.8067H13.4954C11.9863 41.8067 10.7294 40.6493 10.6053 39.1452L10.3144 35.6205H8.32696C6.94929 35.6205 5.98415 34.2602 6.43923 32.9598L12.2213 16.4382Z"/>
</mask>
<path fill-rule="evenodd" clip-rule="evenodd" d="M12.2213 16.4382C12.3616 16.0371 12.7402 15.7686 13.1651 15.7686H16.7186C17.2709 15.7686 17.7186 16.2163 17.7186 16.7686C17.7186 17.3208 17.2709 17.7686 16.7186 17.7686H13.8746L8.32696 33.6205L10.1494 33.6205L10.1256 33.3328C9.98616 31.6429 11.3201 30.1943 13.0158 30.1943H25.9135C27.6092 30.1943 28.9431 31.6429 28.8036 33.3328L28.7799 33.6205H31.3638L31.34 33.3328C31.2006 31.6429 32.5345 30.1943 34.2302 30.1943H47.1279C48.8236 30.1943 50.1575 31.6429 50.0181 33.3328L49.9943 33.6205L51.7595 33.6205L46.2118 17.7686H43.3678C42.8156 17.7686 42.3678 17.3208 42.3678 16.7686C42.3678 16.2163 42.8156 15.7686 43.3678 15.7686H46.9213C47.3463 15.7686 47.7248 16.0371 47.8652 16.4382L53.6473 32.9598C54.1023 34.2602 53.1372 35.6205 51.7595 35.6205H49.8293L49.5384 39.1452C49.4143 40.6493 48.1574 41.8067 46.6482 41.8067H34.7099C33.2007 41.8067 31.9438 40.6493 31.8197 39.1452L31.5288 35.6205H28.6149L28.324 39.1452C28.1999 40.6493 26.943 41.8067 25.4338 41.8067H13.4954C11.9863 41.8067 10.7294 40.6493 10.6053 39.1452L10.3144 35.6205H8.32696C6.94929 35.6205 5.98415 34.2602 6.43923 32.9598L12.2213 16.4382Z" fill="#F8F9FA"/>
<path d="M12.2213 16.4382L13.6371 16.9337L13.6371 16.9337L12.2213 16.4382ZM13.8746 17.7686V16.2686C13.2372 16.2686 12.6694 16.6714 12.4588 17.2731L13.8746 17.7686ZM8.32696 33.6205L6.91116 33.125C6.75059 33.5838 6.82231 34.092 7.1036 34.4885C7.38489 34.8849 7.84085 35.1205 8.32696 35.1205L8.32696 33.6205ZM10.1494 33.6205L10.1494 35.1205C10.5686 35.1205 10.9688 34.945 11.2528 34.6366C11.5368 34.3282 11.6788 33.915 11.6443 33.4971L10.1494 33.6205ZM10.1256 33.3328L11.6205 33.2095L11.6205 33.2095L10.1256 33.3328ZM28.8036 33.3328L30.2986 33.4562L30.2986 33.4562L28.8036 33.3328ZM28.7799 33.6205L27.285 33.4971C27.2505 33.915 27.3925 34.3282 27.6765 34.6366C27.9605 34.945 28.3606 35.1205 28.7799 35.1205V33.6205ZM31.3638 33.6205V35.1205C31.783 35.1205 32.1832 34.945 32.4672 34.6366C32.7512 34.3282 32.8932 33.915 32.8587 33.4971L31.3638 33.6205ZM31.34 33.3328L32.835 33.2095L32.835 33.2095L31.34 33.3328ZM50.0181 33.3328L51.513 33.4562L51.513 33.4562L50.0181 33.3328ZM49.9943 33.6205L48.4994 33.4971C48.4649 33.915 48.6069 34.3282 48.8909 34.6366C49.1749 34.945 49.5751 35.1205 49.9943 35.1205L49.9943 33.6205ZM51.7595 33.6205L51.7595 35.1205C52.2456 35.1205 52.7016 34.8849 52.9829 34.4885C53.2642 34.092 53.3359 33.5838 53.1753 33.125L51.7595 33.6205ZM46.2118 17.7686L47.6276 17.2731C47.4171 16.6714 46.8493 16.2686 46.2118 16.2686V17.7686ZM47.8652 16.4382L49.281 15.9427L49.281 15.9427L47.8652 16.4382ZM53.6473 32.9598L52.2315 33.4553L52.2315 33.4553L53.6473 32.9598ZM49.8293 35.6205V34.1205C49.0487 34.1205 48.3986 34.7192 48.3344 35.4971L49.8293 35.6205ZM49.5384 39.1452L48.0435 39.0218L48.0435 39.0219L49.5384 39.1452ZM31.8197 39.1452L30.3248 39.2686L30.3248 39.2686L31.8197 39.1452ZM31.5288 35.6205L33.0237 35.4971C32.9595 34.7192 32.3094 34.1205 31.5288 34.1205V35.6205ZM28.6149 35.6205V34.1205C27.8343 34.1205 27.1841 34.7192 27.1199 35.4971L28.6149 35.6205ZM28.324 39.1452L26.8291 39.0218L26.8291 39.0219L28.324 39.1452ZM10.6053 39.1452L12.1002 39.0218L12.1002 39.0218L10.6053 39.1452ZM10.3144 35.6205L11.8093 35.4971C11.7451 34.7192 11.095 34.1205 10.3144 34.1205V35.6205ZM6.43923 32.9598L5.02342 32.4643L5.02342 32.4643L6.43923 32.9598ZM13.1651 14.2686C12.1028 14.2686 11.1564 14.94 10.8055 15.9427L13.6371 16.9337C13.5669 17.1343 13.3776 17.2686 13.1651 17.2686V14.2686ZM16.7186 14.2686H13.1651V17.2686H16.7186V14.2686ZM19.2186 16.7686C19.2186 15.3878 18.0994 14.2686 16.7186 14.2686V17.2686C16.4425 17.2686 16.2186 17.0447 16.2186 16.7686H19.2186ZM16.7186 19.2686C18.0994 19.2686 19.2186 18.1493 19.2186 16.7686H16.2186C16.2186 16.4924 16.4425 16.2686 16.7186 16.2686V19.2686ZM13.8746 19.2686H16.7186V16.2686H13.8746V19.2686ZM9.74276 34.116L15.2904 18.264L12.4588 17.2731L6.91116 33.125L9.74276 34.116ZM10.1494 32.1205L8.32696 32.1205L8.32696 35.1205L10.1494 35.1205L10.1494 32.1205ZM8.6307 33.4562L8.65444 33.7438L11.6443 33.4971L11.6205 33.2095L8.6307 33.4562ZM13.0158 28.6943C10.443 28.6943 8.41911 30.8921 8.6307 33.4562L11.6205 33.2095C11.5532 32.3936 12.1972 31.6943 13.0158 31.6943V28.6943ZM25.9135 28.6943H13.0158V31.6943H25.9135V28.6943ZM30.2986 33.4562C30.5102 30.8921 28.4862 28.6943 25.9135 28.6943V31.6943C26.7321 31.6943 27.3761 32.3936 27.3087 33.2095L30.2986 33.4562ZM30.2748 33.7438L30.2986 33.4562L27.3087 33.2095L27.285 33.4971L30.2748 33.7438ZM31.3638 32.1205H28.7799V35.1205H31.3638V32.1205ZM32.8587 33.4971L32.835 33.2095L29.8451 33.4562L29.8689 33.7438L32.8587 33.4971ZM32.835 33.2095C32.7676 32.3936 33.4116 31.6943 34.2302 31.6943V28.6943C31.6574 28.6943 29.6335 30.8921 29.8451 33.4562L32.835 33.2095ZM34.2302 31.6943H47.1279V28.6943H34.2302V31.6943ZM47.1279 31.6943C47.9465 31.6943 48.5905 32.3936 48.5231 33.2095L51.513 33.4562C51.7246 30.8921 49.7006 28.6943 47.1279 28.6943V31.6943ZM48.5231 33.2095L48.4994 33.4971L51.4892 33.7439L51.513 33.4562L48.5231 33.2095ZM51.7595 32.1205L49.9943 32.1205L49.9943 35.1205L51.7595 35.1205L51.7595 32.1205ZM44.796 18.264L50.3437 34.116L53.1753 33.125L47.6276 17.2731L44.796 18.264ZM43.3678 19.2686H46.2118V16.2686H43.3678V19.2686ZM40.8678 16.7686C40.8678 18.1493 41.9871 19.2686 43.3678 19.2686V16.2686C43.644 16.2686 43.8678 16.4924 43.8678 16.7686H40.8678ZM43.3678 14.2686C41.9871 14.2686 40.8678 15.3878 40.8678 16.7686H43.8678C43.8678 17.0447 43.644 17.2686 43.3678 17.2686V14.2686ZM46.9213 14.2686H43.3678V17.2686H46.9213V14.2686ZM49.281 15.9427C48.9301 14.94 47.9837 14.2686 46.9213 14.2686V17.2686C46.7089 17.2686 46.5196 17.1343 46.4494 16.9337L49.281 15.9427ZM55.0631 32.4643L49.281 15.9427L46.4494 16.9337L52.2315 33.4553L55.0631 32.4643ZM51.7595 37.1205C54.1705 37.1205 55.8594 34.7399 55.0631 32.4643L52.2315 33.4553C52.3452 33.7804 52.1039 34.1205 51.7595 34.1205V37.1205ZM49.8293 37.1205H51.7595V34.1205H49.8293V37.1205ZM48.3344 35.4971L48.0435 39.0218L51.0333 39.2686L51.3242 35.7438L48.3344 35.4971ZM48.0435 39.0219C47.9836 39.7479 47.3768 40.3067 46.6482 40.3067V43.3067C48.938 43.3067 50.845 41.5506 51.0333 39.2686L48.0435 39.0219ZM46.6482 40.3067H34.7099V43.3067H46.6482V40.3067ZM34.7099 40.3067C33.9813 40.3067 33.3745 39.7479 33.3146 39.0218L30.3248 39.2686C30.5131 41.5506 32.4201 43.3067 34.7099 43.3067V40.3067ZM33.3146 39.0218L33.0237 35.4971L30.0339 35.7438L30.3248 39.2686L33.3146 39.0218ZM28.6149 37.1205H31.5288V34.1205H28.6149V37.1205ZM29.8189 39.2686L30.1098 35.7438L27.1199 35.4971L26.8291 39.0218L29.8189 39.2686ZM25.4338 43.3067C27.7236 43.3067 29.6306 41.5506 29.8189 39.2686L26.8291 39.0219C26.7692 39.7479 26.1624 40.3067 25.4338 40.3067V43.3067ZM13.4954 43.3067H25.4338V40.3067H13.4954V43.3067ZM9.11035 39.2686C9.29866 41.5506 11.2057 43.3067 13.4954 43.3067V40.3067C12.7669 40.3067 12.1601 39.7479 12.1002 39.0218L9.11035 39.2686ZM8.81948 35.7438L9.11035 39.2686L12.1002 39.0218L11.8093 35.4971L8.81948 35.7438ZM8.32696 37.1205H10.3144V34.1205H8.32696V37.1205ZM5.02342 32.4643C4.22704 34.7399 5.91603 37.1205 8.32696 37.1205V34.1205C7.98255 34.1205 7.74126 33.7804 7.85503 33.4553L5.02342 32.4643ZM10.8055 15.9427L5.02342 32.4643L7.85503 33.4553L13.6371 16.9337L10.8055 15.9427Z" fill="#F8F9FA" mask="url(#path-1-outside-1_50_7020)"/>
<path d="M31.9046 34.6235H28.1819" stroke="#212529" stroke-width="2" stroke-linecap="round" stroke-linejoin="round"/>
<path d="M16.6754 16.7715H13.1219L7.33984 33.2931C7.1123 33.9433 7.59487 34.6234 8.28371 34.6234H11.176" stroke="#212529" stroke-width="2" stroke-linecap="round" stroke-linejoin="round"/>
<path d="M43.3246 16.7715H46.8781L52.6602 33.2931C52.8877 33.9433 52.4051 34.6234 51.7163 34.6234H48.824" stroke="#212529" stroke-width="2" stroke-linecap="round" stroke-linejoin="round"/>
<path d="M10.9794 33.2617C10.8832 32.0962 11.8032 31.0972 12.9726 31.0972H25.8703C27.0397 31.0972 27.9597 32.0962 27.8635 33.2617L27.3839 39.074C27.2983 40.1113 26.4314 40.9095 25.3906 40.9095H13.4523C12.4115 40.9095 11.5446 40.1113 11.459 39.074L10.9794 33.2617Z" fill="#339AF0" stroke="#212529" stroke-width="1.6" stroke-linejoin="round"/>
<g style="mix-blend-mode:multiply">
<path fill-rule="evenodd" clip-rule="evenodd" d="M11.4418 39.7213C11.81 40.1658 12.3659 40.4464 12.9829 40.4464H24.9212C25.962 40.4464 26.8289 39.6481 26.9145 38.6108L27.3941 32.7985C27.4582 32.0217 27.071 31.3189 26.4594 30.9365C26.4588 30.9546 26.4578 30.9728 26.4563 30.9911L25.8116 38.8035C25.7688 39.3221 25.3354 39.7213 24.815 39.7213H11.4418Z" fill="#DEE2E6"/>
</g>
<path d="M32.1938 33.2617C32.0976 32.0962 33.0175 31.0972 34.187 31.0972H47.0846C48.2541 31.0972 49.1741 32.0962 49.0779 33.2617L48.5982 39.074C48.5126 40.1113 47.6458 40.9095 46.605 40.9095H34.6666C33.6258 40.9095 32.759 40.1113 32.6734 39.074L32.1938 33.2617Z" fill="#339AF0" stroke="#212529" stroke-width="1.6" stroke-linejoin="round"/>
<g style="mix-blend-mode:multiply">
<path fill-rule="evenodd" clip-rule="evenodd" d="M32.6562 39.7213C33.0245 40.1658 33.5803 40.4464 34.1973 40.4464H46.1357C47.1765 40.4464 48.0434 39.6481 48.1289 38.6108L48.6086 32.7985C48.6727 32.0217 48.2855 31.3189 47.6738 30.9365C47.6733 30.9546 47.6723 30.9728 47.6708 30.9911L47.0261 38.8035C46.9833 39.3221 46.5499 39.7213 46.0295 39.7213H32.6562Z" fill="#DEE2E6"/>
</g>
</svg>
