<svg width="60" height="60" viewBox="0 0 60 60" fill="none" xmlns="http://www.w3.org/2000/svg">
<mask id="path-1-outside-1_50_96" maskUnits="userSpaceOnUse" x="7.76221" y="7.76221" width="44" height="44" fill="black">
<rect fill="white" x="7.76221" y="7.76221" width="44" height="44"/>
<path fill-rule="evenodd" clip-rule="evenodd" d="M30 11.6743C19.879 11.6743 11.6743 19.879 11.6743 30C11.6743 40.121 19.879 48.3257 30 48.3257C40.121 48.3257 48.3257 40.121 48.3257 30C48.3257 19.879 40.121 11.6743 30 11.6743ZM9.76221 30C9.76221 18.823 18.823 9.76221 30 9.76221C41.177 9.76221 50.2378 18.823 50.2378 30C50.2378 41.177 41.177 50.2378 30 50.2378C18.823 50.2378 9.76221 41.177 9.76221 30Z"/>
</mask>
<path fill-rule="evenodd" clip-rule="evenodd" d="M30 11.6743C19.879 11.6743 11.6743 19.879 11.6743 30C11.6743 40.121 19.879 48.3257 30 48.3257C40.121 48.3257 48.3257 40.121 48.3257 30C48.3257 19.879 40.121 11.6743 30 11.6743ZM9.76221 30C9.76221 18.823 18.823 9.76221 30 9.76221C41.177 9.76221 50.2378 18.823 50.2378 30C50.2378 41.177 41.177 50.2378 30 50.2378C18.823 50.2378 9.76221 41.177 9.76221 30Z" fill="#F8F9FA"/>
<path d="M13.1743 30C13.1743 20.7074 20.7074 13.1743 30 13.1743V10.1743C19.0505 10.1743 10.1743 19.0505 10.1743 30H13.1743ZM30 46.8257C20.7074 46.8257 13.1743 39.2926 13.1743 30H10.1743C10.1743 40.9494 19.0505 49.8257 30 49.8257V46.8257ZM46.8257 30C46.8257 39.2926 39.2926 46.8257 30 46.8257V49.8257C40.9494 49.8257 49.8257 40.9494 49.8257 30H46.8257ZM30 13.1743C39.2926 13.1743 46.8257 20.7074 46.8257 30H49.8257C49.8257 19.0505 40.9494 10.1743 30 10.1743V13.1743ZM30 8.26221C17.9945 8.26221 8.26221 17.9945 8.26221 30H11.2622C11.2622 19.6514 19.6514 11.2622 30 11.2622V8.26221ZM51.7378 30C51.7378 17.9945 42.0054 8.26221 30 8.26221V11.2622C40.3486 11.2622 48.7378 19.6514 48.7378 30H51.7378ZM30 51.7378C42.0054 51.7378 51.7378 42.0054 51.7378 30H48.7378C48.7378 40.3486 40.3486 48.7378 30 48.7378V51.7378ZM8.26221 30C8.26221 42.0054 17.9945 51.7378 30 51.7378V48.7378C19.6514 48.7378 11.2622 40.3486 11.2622 30H8.26221Z" fill="#F8F9FA" mask="url(#path-1-outside-1_50_96)"/>
<circle cx="29.9999" cy="30" r="19.2818" fill="#339AF0" stroke="#212529" stroke-width="2" stroke-linecap="round" stroke-linejoin="round"/>
<path d="M17.3718 31.7211C15.3781 30.5071 13.2433 29.9797 10.6066 30.5071C10.6066 35.3353 12.6763 39.861 15.9409 43.4883C19.0647 46.9591 24.2717 48.4024 26.75 48.6493C31.0217 45.0106 29.1232 39.3151 28.4903 37.8912C27.8575 36.4673 23.7441 36.6255 22.4784 35.5181C21.2128 34.4106 18.4272 32.3638 17.3718 31.7211Z" fill="#37B24D"/>
<path d="M31.3381 15.5839C30.4521 13.0525 33.4538 11.738 34.8777 11.4216C37.4513 11.9065 43.1469 14.4191 46.8425 20.3947C50.538 26.3702 48.7739 35.0145 47.2341 38.3569C47.0759 35.0345 44.944 31.7211 42.8873 31.7211C40.8305 31.7211 39.8813 30.6136 39.0903 28.5569C38.2992 26.5002 31.3381 29.0316 30.2306 28.5569C29.1232 28.0823 29.4396 25.3928 30.2306 22.2286C31.0217 19.0644 32.4455 18.748 31.3381 15.5839Z" fill="#37B24D"/>
<path d="M17.3718 31.7211C15.3781 30.5071 13.2433 29.9797 10.6066 30.5071C10.6066 35.3353 12.6763 39.861 15.9409 43.4883C19.0647 46.9591 24.2717 48.4024 26.75 48.6493C31.0217 45.0106 29.1232 39.3151 28.4903 37.8912C27.8575 36.4673 23.7441 36.6255 22.4784 35.5181C21.2128 34.4106 18.4272 32.3638 17.3718 31.7211Z" stroke="#212529" stroke-width="1.6" stroke-linecap="round" stroke-linejoin="round"/>
<path d="M31.3381 15.5839C30.4521 13.0525 33.4538 11.738 34.8777 11.4216C37.4513 11.9065 43.1469 14.4191 46.8425 20.3947C50.538 26.3702 48.7739 35.0145 47.2341 38.3569C47.0759 35.0345 44.944 31.7211 42.8873 31.7211C40.8305 31.7211 39.8813 30.6136 39.0903 28.5569C38.2992 26.5002 31.3381 29.0316 30.2306 28.5569C29.1232 28.0823 29.4396 25.3928 30.2306 22.2286C31.0217 19.0644 32.4455 18.748 31.3381 15.5839Z" stroke="#212529" stroke-width="1.6" stroke-linecap="round" stroke-linejoin="round"/>
<path d="M21.0927 17.8227C22.4489 15.6914 21.6578 13.867 21.0927 13.2211C16.662 14.3862 13.4498 19.6209 12.5916 22.1225C12.7853 24.4475 14.8241 26.8794 16.4912 26.1781C18.1584 25.4768 17.1514 23.0493 17.4636 22.4397C18.4382 20.5369 19.3975 20.4867 21.0927 17.8227Z" fill="#37B24D" stroke="#212529" stroke-width="1.6" stroke-linecap="round" stroke-linejoin="round"/>
<g style="mix-blend-mode:multiply">
<path fill-rule="evenodd" clip-rule="evenodd" d="M28.3438 48.0313C38.6061 48.0313 46.9254 39.7121 46.9254 29.4497C46.9254 21.8987 42.4213 15.3997 35.9533 12.4927C43.2463 15.0019 48.4867 21.9229 48.4867 30.0678C48.4867 40.3301 40.1675 48.6494 29.9051 48.6494C27.1938 48.6494 24.6181 48.0687 22.2957 47.0248C24.1916 47.6772 26.2263 48.0313 28.3438 48.0313Z" fill="#DEE2E6"/>
</g>
<path d="M38.6302 38.8973C38.1615 38.812 37.5117 37.832 37.2454 37.3527C37.1916 37.1093 37.1996 36.6061 37.6626 36.54C38.2414 36.4573 39.2335 36.7329 39.3437 37.2014C39.454 37.6699 39.2161 39.0038 38.6302 38.8973Z" stroke="#212529"/>
</svg>
