<svg width="60" height="59" viewBox="0 0 60 59" fill="none" xmlns="http://www.w3.org/2000/svg">
<mask id="path-1-outside-1_50_9203" maskUnits="userSpaceOnUse" x="7.39624" y="7.61719" width="45" height="44" fill="black">
<rect fill="white" x="7.39624" y="7.61719" width="45" height="44"/>
<path fill-rule="evenodd" clip-rule="evenodd" d="M27.9317 9.81371C27.6682 9.5655 27.2531 9.55062 26.9713 9.77926C25.6755 10.8308 24.7363 12.0106 24.1868 13.3208C23.0787 12.4494 21.9211 11.7156 20.7137 11.1215C20.4164 10.9753 20.0541 11.0467 19.8399 11.2938C18.8264 12.4628 18.6256 14.3868 18.9983 16.3065C19.0198 16.4175 19.0434 16.5291 19.0689 16.6411C17.3373 15.2638 15.3384 14.1351 12.9277 13.1816C12.3786 12.9644 11.7512 13.2186 11.5265 13.7495C11.3018 14.2803 11.5648 14.8867 12.114 15.104C14.5601 16.0715 16.5344 17.2236 18.2335 18.6832C17.7355 18.6178 17.2336 18.6119 16.7295 18.6813C15.5249 18.847 14.3896 19.4307 13.3204 20.4987C12.2403 21.5776 11.5649 22.9156 11.0293 24.0438C10.97 24.1687 10.9129 24.2902 10.8572 24.4084L10.8572 24.4085C10.6544 24.8395 10.4723 25.2265 10.2847 25.5721C10.0444 26.0149 9.83129 26.319 9.62379 26.5062C9.37997 26.7262 9.3255 27.0798 9.49243 27.3589C10.2821 28.6793 12.0838 29.5197 14.0773 29.8378C14.5002 29.9053 14.9397 29.9508 15.3908 29.9724C14.1099 31.0456 13.2997 32.6298 13.2997 34.397C13.2997 37.6294 16.0105 40.2498 19.3544 40.2498C20.7178 40.2498 21.976 39.8142 22.988 39.0791C23.7209 41.5144 26.0467 43.2941 28.8024 43.2941C30.0817 43.2941 31.2682 42.9106 32.2458 42.2561C32.6292 45.1316 35.1714 47.3534 38.2505 47.3534C38.7859 47.3534 39.305 47.2862 39.7994 47.1601C40.9084 48.5142 42.6238 49.3829 44.5492 49.3829C47.8931 49.3829 50.6038 46.7625 50.6038 43.53C50.6038 41.4347 49.4648 39.5965 47.7526 38.5625C48.8648 37.5013 49.5541 36.027 49.5541 34.397C49.5541 31.1645 46.8433 28.5441 43.4994 28.5441C42.9908 28.5441 42.4968 28.6047 42.0248 28.7189C42.1429 28.2627 42.2056 27.7852 42.2056 27.2935C42.2056 25.6432 41.4991 24.1525 40.3624 23.0885C40.8673 22.2339 41.1558 21.2445 41.1558 20.1899C41.1558 16.9575 38.445 14.3371 35.1011 14.3371C33.6273 14.3371 32.2765 14.8461 31.2265 15.6923C30.7029 13.1596 29.2532 11.0587 27.9317 9.81371ZM41.3619 46.5225C42.1693 47.3259 43.2989 47.8251 44.5492 47.8251C47.003 47.8251 48.9923 45.9021 48.9923 43.53C48.9923 41.7614 47.8864 40.2424 46.3066 39.5841C45.6521 39.9158 44.927 40.1351 44.1588 40.2155C44.2546 40.629 44.3052 41.0591 44.3052 41.5005C44.3052 43.6332 43.1252 45.4994 41.3619 46.5225ZM42.4751 40.1664C42.6169 40.5864 42.6936 41.0348 42.6936 41.5005C42.6936 43.093 41.7971 44.483 40.4653 45.2247C40.2341 44.7048 40.106 44.1319 40.106 43.53C40.106 42.1007 40.8283 40.8344 41.9393 40.0537C42.1149 40.0988 42.2936 40.1365 42.4751 40.1664ZM38.1863 37.206C38.6867 38.0885 39.4156 38.8328 40.296 39.3645C39.1838 40.4257 38.4945 41.9 38.4945 43.53C38.4945 44.3134 38.6537 45.0609 38.9426 45.7438C38.7171 45.7779 38.4859 45.7956 38.2505 45.7956C35.7966 45.7956 33.8073 43.8726 33.8073 41.5005C33.8073 41.1879 33.8419 40.8831 33.9075 40.5894C34.2297 40.1023 34.4793 39.5659 34.6416 38.9946C35.4365 37.9267 36.7262 37.2259 38.1863 37.206ZM43.0002 37.8704C42.0923 36.7619 40.778 35.9787 39.2748 35.7311C39.1329 35.3111 39.0562 34.8627 39.0562 34.397C39.0562 33.4677 39.3616 32.6073 39.8805 31.9045C40.268 31.6112 40.6175 31.2733 40.9209 30.8987C41.648 30.3971 42.538 30.1019 43.4994 30.1019C45.9533 30.1019 47.9425 32.0249 47.9425 34.397C47.9425 35.8263 47.2203 37.0926 46.1093 37.8733C45.6115 37.7454 45.0886 37.6772 44.5492 37.6772C44.0138 37.6772 43.4946 37.7443 43.0002 37.8704ZM37.5911 35.682C36.5643 35.7895 35.6144 36.1452 34.8071 36.6857C34.4237 33.8101 31.8815 31.5884 28.8024 31.5884C27.439 31.5884 26.1809 32.024 25.1688 32.7591C24.9592 32.0627 24.6194 31.4198 24.1764 30.8569C25.238 30.0385 26.0086 28.8823 26.3141 27.5567C27.0731 27.8879 27.9155 28.0723 28.8024 28.0723C29.2591 28.0723 29.704 28.0234 30.1317 27.9308C30.4602 30.8635 33.0298 33.1464 36.1509 33.1464C36.6596 33.1464 37.1535 33.0857 37.6255 32.9716C37.5074 33.4278 37.4447 33.9053 37.4447 34.397C37.4447 34.8384 37.4953 35.2685 37.5911 35.682ZM33.1454 38.3523C33.211 38.0587 33.2456 37.7539 33.2456 37.4412C33.2456 35.0692 31.2563 33.1462 28.8024 33.1462C27.4381 33.1462 26.2174 33.7407 25.4023 34.6763C25.3483 35.7874 24.9738 36.8174 24.3662 37.682C24.4954 39.9421 26.4322 41.7363 28.8024 41.7363C30.2888 41.7363 31.6048 41.0307 32.4114 39.9472C32.5736 39.3759 32.8232 38.8395 33.1454 38.3523ZM38.7294 30.7917C39.0328 30.4172 39.3823 30.0793 39.7698 29.786C40.2888 29.0832 40.5941 28.2228 40.5941 27.2935C40.5941 26.1479 40.1301 25.107 39.3738 24.3369C38.2788 25.3911 36.7687 26.0428 35.1011 26.0428C34.5657 26.0428 34.0466 25.9756 33.5522 25.8495C33.0497 26.463 32.4228 26.9769 31.7083 27.3554C31.7425 29.699 33.7184 31.5885 36.1509 31.5885C37.1123 31.5885 38.0023 31.2934 38.7294 30.7917ZM22.7545 37.162C22.8085 36.0509 23.183 35.0208 23.7907 34.1562C23.7367 33.2114 23.3668 32.348 22.7813 31.663C22.0515 31.9645 21.248 32.1313 20.4042 32.1313C19.0225 32.1313 17.7489 31.684 16.73 30.9309C15.6273 31.7124 14.9113 32.9739 14.9113 34.397C14.9113 36.769 16.9005 38.692 19.3544 38.692C20.7188 38.692 21.9395 38.0975 22.7545 37.162ZM24.7685 22.2217C24.6429 22.0955 24.5115 21.9747 24.3747 21.8597C24.5637 19.6559 26.4739 17.9244 28.8024 17.9244C29.0379 17.9244 29.269 17.9421 29.4945 17.9762C29.2057 18.6591 29.0465 19.4065 29.0465 20.1899C29.0465 20.2762 29.0484 20.362 29.0522 20.4474C28.6052 21.0199 28.0242 21.5127 27.3696 21.8517C26.668 22.215 25.9179 22.3812 25.1991 22.3007C25.0561 22.2847 24.9124 22.2587 24.7685 22.2217ZM26.4436 25.8599C26.3872 25.0881 26.176 24.3576 25.8398 23.6973C26.6167 23.6524 27.3678 23.4235 28.046 23.0723C28.5265 22.8235 28.9807 22.5077 29.3908 22.1405C29.706 23.0026 30.2241 23.7719 30.8897 24.395C30.5464 24.976 30.3031 25.6194 30.1826 26.3032C29.7481 26.4403 29.2842 26.5145 28.8024 26.5145C27.9358 26.5145 27.1272 26.2746 26.4436 25.8599ZM19.5884 20.4783C16.6303 20.8634 14.3495 23.3135 14.3495 26.2785C14.3495 27.0799 14.5162 27.8437 14.8178 28.5393C14.6459 28.5207 14.4767 28.4981 14.3106 28.4716C12.7815 28.2276 11.6382 27.6807 11.0287 27.0472C11.2248 26.7894 11.3967 26.504 11.5533 26.2154C11.7614 25.8318 11.9657 25.3975 12.171 24.9611L12.171 24.9611L12.171 24.9611C12.2243 24.8477 12.2777 24.7342 12.3313 24.6213C12.866 23.4948 13.4565 22.354 14.3497 21.4617C15.2393 20.5731 16.0964 20.1671 16.9313 20.0522C17.7507 19.9395 18.6259 20.0966 19.5884 20.4783ZM16.6543 28.5834C16.2154 27.9174 15.9611 27.1267 15.9611 26.2785C15.9611 23.9064 17.9503 21.9835 20.4042 21.9835C20.7274 21.9835 21.0426 22.0168 21.3462 22.0802C21.5832 22.4025 21.8162 22.7357 22.0461 23.0803C22.1808 23.4199 22.2779 23.7732 22.331 24.1301C22.4441 24.8917 22.3492 25.6299 22.0251 26.2553C21.7056 26.8718 21.1417 27.4223 20.2306 27.7909C19.0586 28.2651 17.831 28.5159 16.6543 28.5834ZM21.2256 30.5003C20.9594 30.5484 20.6848 30.5735 20.4042 30.5735C19.7357 30.5735 19.1017 30.4308 18.533 30.1752C18.7992 30.1271 19.0738 30.1019 19.3544 30.1019C20.0229 30.1019 20.6569 30.2446 21.2256 30.5003ZM23.0286 29.7446C22.5044 29.3571 21.9127 29.0506 21.2736 28.8442C22.2195 28.3578 22.8918 27.6746 23.3059 26.8755C23.4823 26.535 23.6089 26.1794 23.6909 25.8166C23.8649 26.0846 24.1487 26.2521 24.4548 26.2929C24.5753 26.4131 24.7012 26.5283 24.832 26.6382C24.7226 27.9129 24.0375 29.0296 23.0286 29.7446ZM39.0528 22.1554C39.3669 21.5665 39.5443 20.8982 39.5443 20.1899C39.5443 17.8179 37.555 15.8949 35.1011 15.8949C33.8509 15.8949 32.7213 16.3941 31.9139 17.1975C33.4991 18.1172 34.6129 19.7185 34.8216 21.5822C35.2494 21.4895 35.6943 21.4407 36.1509 21.4407C37.2023 21.4407 38.1912 21.6997 39.0528 22.1554ZM34.7708 23.2097C35.2053 23.0726 35.6691 22.9985 36.1509 22.9985C36.8284 22.9985 37.4704 23.145 38.0449 23.4071C37.261 24.0778 36.2303 24.485 35.1011 24.485C34.8657 24.485 34.6346 24.4673 34.409 24.4332C34.5734 24.0445 34.6959 23.6349 34.7708 23.2097ZM33.2451 22.1575C33.2243 20.7311 32.4841 19.4729 31.3595 18.7065C31.2556 19.3585 31.0164 19.9913 30.6756 20.5749C30.7668 21.5679 31.2077 22.4637 31.8783 23.1466C32.2818 22.758 32.7417 22.4242 33.2451 22.1575ZM28.8024 16.3666C29.1805 16.3666 29.5505 16.4001 29.9094 16.4642C29.5987 14.3376 28.5041 12.4916 27.3908 11.2724C26.2447 12.326 25.5401 13.4644 25.2326 14.6849C25.173 14.9216 24.9891 15.1105 24.7483 15.1825C24.5076 15.2545 24.2455 15.1989 24.058 15.0361C22.9616 14.0839 21.8202 13.2894 20.6341 12.6496C20.2532 13.423 20.1285 14.6206 20.4062 16.0511C20.5785 16.9388 20.8992 17.8727 21.3698 18.7787C21.9232 19.376 22.4499 20.0114 22.957 20.6884C23.6532 18.1985 26.0065 16.3666 28.8024 16.3666Z"/>
</mask>
<path fill-rule="evenodd" clip-rule="evenodd" d="M27.9317 9.81371C27.6682 9.5655 27.2531 9.55062 26.9713 9.77926C25.6755 10.8308 24.7363 12.0106 24.1868 13.3208C23.0787 12.4494 21.9211 11.7156 20.7137 11.1215C20.4164 10.9753 20.0541 11.0467 19.8399 11.2938C18.8264 12.4628 18.6256 14.3868 18.9983 16.3065C19.0198 16.4175 19.0434 16.5291 19.0689 16.6411C17.3373 15.2638 15.3384 14.1351 12.9277 13.1816C12.3786 12.9644 11.7512 13.2186 11.5265 13.7495C11.3018 14.2803 11.5648 14.8867 12.114 15.104C14.5601 16.0715 16.5344 17.2236 18.2335 18.6832C17.7355 18.6178 17.2336 18.6119 16.7295 18.6813C15.5249 18.847 14.3896 19.4307 13.3204 20.4987C12.2403 21.5776 11.5649 22.9156 11.0293 24.0438C10.97 24.1687 10.9129 24.2902 10.8572 24.4084L10.8572 24.4085C10.6544 24.8395 10.4723 25.2265 10.2847 25.5721C10.0444 26.0149 9.83129 26.319 9.62379 26.5062C9.37997 26.7262 9.3255 27.0798 9.49243 27.3589C10.2821 28.6793 12.0838 29.5197 14.0773 29.8378C14.5002 29.9053 14.9397 29.9508 15.3908 29.9724C14.1099 31.0456 13.2997 32.6298 13.2997 34.397C13.2997 37.6294 16.0105 40.2498 19.3544 40.2498C20.7178 40.2498 21.976 39.8142 22.988 39.0791C23.7209 41.5144 26.0467 43.2941 28.8024 43.2941C30.0817 43.2941 31.2682 42.9106 32.2458 42.2561C32.6292 45.1316 35.1714 47.3534 38.2505 47.3534C38.7859 47.3534 39.305 47.2862 39.7994 47.1601C40.9084 48.5142 42.6238 49.3829 44.5492 49.3829C47.8931 49.3829 50.6038 46.7625 50.6038 43.53C50.6038 41.4347 49.4648 39.5965 47.7526 38.5625C48.8648 37.5013 49.5541 36.027 49.5541 34.397C49.5541 31.1645 46.8433 28.5441 43.4994 28.5441C42.9908 28.5441 42.4968 28.6047 42.0248 28.7189C42.1429 28.2627 42.2056 27.7852 42.2056 27.2935C42.2056 25.6432 41.4991 24.1525 40.3624 23.0885C40.8673 22.2339 41.1558 21.2445 41.1558 20.1899C41.1558 16.9575 38.445 14.3371 35.1011 14.3371C33.6273 14.3371 32.2765 14.8461 31.2265 15.6923C30.7029 13.1596 29.2532 11.0587 27.9317 9.81371ZM41.3619 46.5225C42.1693 47.3259 43.2989 47.8251 44.5492 47.8251C47.003 47.8251 48.9923 45.9021 48.9923 43.53C48.9923 41.7614 47.8864 40.2424 46.3066 39.5841C45.6521 39.9158 44.927 40.1351 44.1588 40.2155C44.2546 40.629 44.3052 41.0591 44.3052 41.5005C44.3052 43.6332 43.1252 45.4994 41.3619 46.5225ZM42.4751 40.1664C42.6169 40.5864 42.6936 41.0348 42.6936 41.5005C42.6936 43.093 41.7971 44.483 40.4653 45.2247C40.2341 44.7048 40.106 44.1319 40.106 43.53C40.106 42.1007 40.8283 40.8344 41.9393 40.0537C42.1149 40.0988 42.2936 40.1365 42.4751 40.1664ZM38.1863 37.206C38.6867 38.0885 39.4156 38.8328 40.296 39.3645C39.1838 40.4257 38.4945 41.9 38.4945 43.53C38.4945 44.3134 38.6537 45.0609 38.9426 45.7438C38.7171 45.7779 38.4859 45.7956 38.2505 45.7956C35.7966 45.7956 33.8073 43.8726 33.8073 41.5005C33.8073 41.1879 33.8419 40.8831 33.9075 40.5894C34.2297 40.1023 34.4793 39.5659 34.6416 38.9946C35.4365 37.9267 36.7262 37.2259 38.1863 37.206ZM43.0002 37.8704C42.0923 36.7619 40.778 35.9787 39.2748 35.7311C39.1329 35.3111 39.0562 34.8627 39.0562 34.397C39.0562 33.4677 39.3616 32.6073 39.8805 31.9045C40.268 31.6112 40.6175 31.2733 40.9209 30.8987C41.648 30.3971 42.538 30.1019 43.4994 30.1019C45.9533 30.1019 47.9425 32.0249 47.9425 34.397C47.9425 35.8263 47.2203 37.0926 46.1093 37.8733C45.6115 37.7454 45.0886 37.6772 44.5492 37.6772C44.0138 37.6772 43.4946 37.7443 43.0002 37.8704ZM37.5911 35.682C36.5643 35.7895 35.6144 36.1452 34.8071 36.6857C34.4237 33.8101 31.8815 31.5884 28.8024 31.5884C27.439 31.5884 26.1809 32.024 25.1688 32.7591C24.9592 32.0627 24.6194 31.4198 24.1764 30.8569C25.238 30.0385 26.0086 28.8823 26.3141 27.5567C27.0731 27.8879 27.9155 28.0723 28.8024 28.0723C29.2591 28.0723 29.704 28.0234 30.1317 27.9308C30.4602 30.8635 33.0298 33.1464 36.1509 33.1464C36.6596 33.1464 37.1535 33.0857 37.6255 32.9716C37.5074 33.4278 37.4447 33.9053 37.4447 34.397C37.4447 34.8384 37.4953 35.2685 37.5911 35.682ZM33.1454 38.3523C33.211 38.0587 33.2456 37.7539 33.2456 37.4412C33.2456 35.0692 31.2563 33.1462 28.8024 33.1462C27.4381 33.1462 26.2174 33.7407 25.4023 34.6763C25.3483 35.7874 24.9738 36.8174 24.3662 37.682C24.4954 39.9421 26.4322 41.7363 28.8024 41.7363C30.2888 41.7363 31.6048 41.0307 32.4114 39.9472C32.5736 39.3759 32.8232 38.8395 33.1454 38.3523ZM38.7294 30.7917C39.0328 30.4172 39.3823 30.0793 39.7698 29.786C40.2888 29.0832 40.5941 28.2228 40.5941 27.2935C40.5941 26.1479 40.1301 25.107 39.3738 24.3369C38.2788 25.3911 36.7687 26.0428 35.1011 26.0428C34.5657 26.0428 34.0466 25.9756 33.5522 25.8495C33.0497 26.463 32.4228 26.9769 31.7083 27.3554C31.7425 29.699 33.7184 31.5885 36.1509 31.5885C37.1123 31.5885 38.0023 31.2934 38.7294 30.7917ZM22.7545 37.162C22.8085 36.0509 23.183 35.0208 23.7907 34.1562C23.7367 33.2114 23.3668 32.348 22.7813 31.663C22.0515 31.9645 21.248 32.1313 20.4042 32.1313C19.0225 32.1313 17.7489 31.684 16.73 30.9309C15.6273 31.7124 14.9113 32.9739 14.9113 34.397C14.9113 36.769 16.9005 38.692 19.3544 38.692C20.7188 38.692 21.9395 38.0975 22.7545 37.162ZM24.7685 22.2217C24.6429 22.0955 24.5115 21.9747 24.3747 21.8597C24.5637 19.6559 26.4739 17.9244 28.8024 17.9244C29.0379 17.9244 29.269 17.9421 29.4945 17.9762C29.2057 18.6591 29.0465 19.4065 29.0465 20.1899C29.0465 20.2762 29.0484 20.362 29.0522 20.4474C28.6052 21.0199 28.0242 21.5127 27.3696 21.8517C26.668 22.215 25.9179 22.3812 25.1991 22.3007C25.0561 22.2847 24.9124 22.2587 24.7685 22.2217ZM26.4436 25.8599C26.3872 25.0881 26.176 24.3576 25.8398 23.6973C26.6167 23.6524 27.3678 23.4235 28.046 23.0723C28.5265 22.8235 28.9807 22.5077 29.3908 22.1405C29.706 23.0026 30.2241 23.7719 30.8897 24.395C30.5464 24.976 30.3031 25.6194 30.1826 26.3032C29.7481 26.4403 29.2842 26.5145 28.8024 26.5145C27.9358 26.5145 27.1272 26.2746 26.4436 25.8599ZM19.5884 20.4783C16.6303 20.8634 14.3495 23.3135 14.3495 26.2785C14.3495 27.0799 14.5162 27.8437 14.8178 28.5393C14.6459 28.5207 14.4767 28.4981 14.3106 28.4716C12.7815 28.2276 11.6382 27.6807 11.0287 27.0472C11.2248 26.7894 11.3967 26.504 11.5533 26.2154C11.7614 25.8318 11.9657 25.3975 12.171 24.9611L12.171 24.9611L12.171 24.9611C12.2243 24.8477 12.2777 24.7342 12.3313 24.6213C12.866 23.4948 13.4565 22.354 14.3497 21.4617C15.2393 20.5731 16.0964 20.1671 16.9313 20.0522C17.7507 19.9395 18.6259 20.0966 19.5884 20.4783ZM16.6543 28.5834C16.2154 27.9174 15.9611 27.1267 15.9611 26.2785C15.9611 23.9064 17.9503 21.9835 20.4042 21.9835C20.7274 21.9835 21.0426 22.0168 21.3462 22.0802C21.5832 22.4025 21.8162 22.7357 22.0461 23.0803C22.1808 23.4199 22.2779 23.7732 22.331 24.1301C22.4441 24.8917 22.3492 25.6299 22.0251 26.2553C21.7056 26.8718 21.1417 27.4223 20.2306 27.7909C19.0586 28.2651 17.831 28.5159 16.6543 28.5834ZM21.2256 30.5003C20.9594 30.5484 20.6848 30.5735 20.4042 30.5735C19.7357 30.5735 19.1017 30.4308 18.533 30.1752C18.7992 30.1271 19.0738 30.1019 19.3544 30.1019C20.0229 30.1019 20.6569 30.2446 21.2256 30.5003ZM23.0286 29.7446C22.5044 29.3571 21.9127 29.0506 21.2736 28.8442C22.2195 28.3578 22.8918 27.6746 23.3059 26.8755C23.4823 26.535 23.6089 26.1794 23.6909 25.8166C23.8649 26.0846 24.1487 26.2521 24.4548 26.2929C24.5753 26.4131 24.7012 26.5283 24.832 26.6382C24.7226 27.9129 24.0375 29.0296 23.0286 29.7446ZM39.0528 22.1554C39.3669 21.5665 39.5443 20.8982 39.5443 20.1899C39.5443 17.8179 37.555 15.8949 35.1011 15.8949C33.8509 15.8949 32.7213 16.3941 31.9139 17.1975C33.4991 18.1172 34.6129 19.7185 34.8216 21.5822C35.2494 21.4895 35.6943 21.4407 36.1509 21.4407C37.2023 21.4407 38.1912 21.6997 39.0528 22.1554ZM34.7708 23.2097C35.2053 23.0726 35.6691 22.9985 36.1509 22.9985C36.8284 22.9985 37.4704 23.145 38.0449 23.4071C37.261 24.0778 36.2303 24.485 35.1011 24.485C34.8657 24.485 34.6346 24.4673 34.409 24.4332C34.5734 24.0445 34.6959 23.6349 34.7708 23.2097ZM33.2451 22.1575C33.2243 20.7311 32.4841 19.4729 31.3595 18.7065C31.2556 19.3585 31.0164 19.9913 30.6756 20.5749C30.7668 21.5679 31.2077 22.4637 31.8783 23.1466C32.2818 22.758 32.7417 22.4242 33.2451 22.1575ZM28.8024 16.3666C29.1805 16.3666 29.5505 16.4001 29.9094 16.4642C29.5987 14.3376 28.5041 12.4916 27.3908 11.2724C26.2447 12.326 25.5401 13.4644 25.2326 14.6849C25.173 14.9216 24.9891 15.1105 24.7483 15.1825C24.5076 15.2545 24.2455 15.1989 24.058 15.0361C22.9616 14.0839 21.8202 13.2894 20.6341 12.6496C20.2532 13.423 20.1285 14.6206 20.4062 16.0511C20.5785 16.9388 20.8992 17.8727 21.3698 18.7787C21.9232 19.376 22.4499 20.0114 22.957 20.6884C23.6532 18.1985 26.0065 16.3666 28.8024 16.3666Z" fill="#F8F9FA"/>
<path d="M26.9713 9.77926L27.9165 10.944L27.9165 10.944L26.9713 9.77926ZM27.9317 9.81371L26.9031 10.9055L26.9031 10.9055L27.9317 9.81371ZM24.1868 13.3208L23.2596 14.4999C23.6277 14.7894 24.1099 14.8903 24.5632 14.7728C25.0165 14.6553 25.3889 14.3328 25.5701 13.901L24.1868 13.3208ZM20.7137 11.1215L21.3759 9.77561L21.3759 9.77561L20.7137 11.1215ZM19.8399 11.2938L20.9732 12.2765L20.9732 12.2765L19.8399 11.2938ZM18.9983 16.3065L20.4708 16.0206L20.4708 16.0206L18.9983 16.3065ZM19.0689 16.6411L18.1352 17.815C18.6338 18.2116 19.3285 18.25 19.8678 17.9107C20.407 17.5714 20.6731 16.9285 20.5313 16.3074L19.0689 16.6411ZM12.9277 13.1816L13.4795 11.7867L13.4795 11.7867L12.9277 13.1816ZM11.5265 13.7495L10.1452 13.1647L10.1452 13.1647L11.5265 13.7495ZM12.114 15.104L11.5622 16.4988L11.5622 16.4988L12.114 15.104ZM18.2335 18.6832L18.0383 20.1704C18.6961 20.2567 19.3325 19.9007 19.603 19.2949C19.8736 18.6892 19.7142 17.9776 19.2109 17.5453L18.2335 18.6832ZM16.7295 18.6813L16.525 17.1953L16.525 17.1953L16.7295 18.6813ZM13.3204 20.4987L12.2603 19.4375L12.2603 19.4375L13.3204 20.4987ZM11.0293 24.0438L9.67424 23.4006L9.67424 23.4006L11.0293 24.0438ZM10.8572 24.4084L12.1989 25.0793C12.2042 25.0686 12.2094 25.0579 12.2145 25.0471L10.8572 24.4084ZM10.8572 24.4085L9.51558 23.7377C9.51025 23.7483 9.50505 23.759 9.49998 23.7698L10.8572 24.4085ZM10.2847 25.5721L8.96633 24.8567L8.96633 24.8567L10.2847 25.5721ZM9.62379 26.5062L10.6286 27.6199L10.6286 27.6199L9.62379 26.5062ZM9.49243 27.3589L8.20509 28.1288L8.20509 28.1288L9.49243 27.3589ZM14.0773 29.8378L14.3137 28.3565L14.3137 28.3565L14.0773 29.8378ZM15.3908 29.9724L16.3541 31.1222C16.8276 30.7255 17.0095 30.0792 16.8124 29.4938C16.6153 28.9084 16.0796 28.5037 15.4626 28.4741L15.3908 29.9724ZM22.988 39.0791L24.4244 38.6468C24.2844 38.1816 23.9276 37.8129 23.4672 37.6577C23.0068 37.5025 22.4997 37.5799 22.1065 37.8655L22.988 39.0791ZM32.2458 42.2561L33.7326 42.0579C33.6641 41.5442 33.3354 41.1023 32.8631 40.889C32.3908 40.6757 31.8419 40.7214 31.4113 41.0097L32.2458 42.2561ZM39.7994 47.1601L40.9599 46.2097C40.5906 45.7588 39.9935 45.5626 39.4287 45.7067L39.7994 47.1601ZM47.7526 38.5625L46.7171 37.4773C46.379 37.7999 46.2106 38.2617 46.2616 38.7262C46.3126 39.1908 46.5772 39.605 46.9772 39.8466L47.7526 38.5625ZM42.0248 28.7189L40.5727 28.343C40.4406 28.8533 40.586 29.3954 40.9557 29.7711C41.3254 30.1467 41.8652 30.3008 42.3775 30.1769L42.0248 28.7189ZM40.3624 23.0885L39.071 22.3254C38.7133 22.9307 38.8241 23.7031 39.3373 24.1836L40.3624 23.0885ZM31.2265 15.6923L29.7576 15.996C29.8634 16.5079 30.2281 16.9278 30.7202 17.1042C31.2123 17.2807 31.7607 17.1882 32.1677 16.8602L31.2265 15.6923ZM41.3619 46.5225L40.6092 45.225C40.2057 45.4591 39.9341 45.8675 39.8743 46.3301C39.8145 46.7927 39.9733 47.2567 40.3039 47.5857L41.3619 46.5225ZM46.3066 39.5841L46.8836 38.1995C46.4786 38.0307 46.02 38.0477 45.6286 38.2461L46.3066 39.5841ZM44.1588 40.2155L44.0026 38.7237C43.5749 38.7684 43.187 38.9946 42.9374 39.3447C42.6878 39.6948 42.6004 40.1353 42.6975 40.5542L44.1588 40.2155ZM42.4751 40.1664L43.8962 39.6865C43.7188 39.1611 43.266 38.7765 42.7189 38.6864L42.4751 40.1664ZM40.4653 45.2247L39.0947 45.8342C39.2658 46.2191 39.5909 46.5143 39.9904 46.6476C40.39 46.7809 40.8272 46.7402 41.1951 46.5352L40.4653 45.2247ZM41.9393 40.0537L42.3127 38.6009C41.8876 38.4916 41.4359 38.574 41.0768 38.8264L41.9393 40.0537ZM40.296 39.3645L41.3315 40.4497C41.6696 40.1271 41.838 39.6653 41.787 39.2008C41.736 38.7362 41.4714 38.322 41.0714 38.0804L40.296 39.3645ZM38.1863 37.206L39.4911 36.4661C39.2211 35.9899 38.7131 35.6986 38.1658 35.7061L38.1863 37.206ZM38.9426 45.7438L39.1668 47.2269C39.6249 47.1577 40.0252 46.8807 40.2515 46.4764C40.4778 46.0722 40.5045 45.5861 40.3241 45.1594L38.9426 45.7438ZM33.9075 40.5894L32.6564 39.762C32.5556 39.9145 32.4835 40.084 32.4436 40.2623L33.9075 40.5894ZM34.6416 38.9946L33.4383 38.099C33.3296 38.245 33.2484 38.4096 33.1986 38.5848L34.6416 38.9946ZM39.2748 35.7311L37.8536 36.2111C38.0311 36.7364 38.4838 37.121 39.031 37.2111L39.2748 35.7311ZM43.0002 37.8704L41.8398 38.8209C42.2091 39.2718 42.8062 39.468 43.3709 39.3239L43.0002 37.8704ZM39.8805 31.9045L38.9753 30.7084C38.8607 30.7952 38.7592 30.8979 38.6738 31.0135L39.8805 31.9045ZM40.9209 30.8987L40.0691 29.6641C39.9511 29.7455 39.8455 29.8433 39.7553 29.9546L40.9209 30.8987ZM46.1093 37.8733L45.7358 39.3261C46.161 39.4353 46.6126 39.3529 46.9717 39.1006L46.1093 37.8733ZM34.8071 36.6857L33.3203 36.8839C33.3888 37.3976 33.7176 37.8395 34.1898 38.0528C34.6621 38.266 35.2111 38.2204 35.6417 37.9321L34.8071 36.6857ZM37.5911 35.682L37.7473 37.1738C38.1749 37.1291 38.5628 36.9029 38.8125 36.5528C39.0621 36.2027 39.1495 35.7622 39.0524 35.3434L37.5911 35.682ZM25.1688 32.7591L23.7325 33.1914C23.8725 33.6567 24.2292 34.0253 24.6897 34.1805C25.1501 34.3357 25.6572 34.2583 26.0504 33.9728L25.1688 32.7591ZM24.1764 30.8569L23.2606 29.6689C22.9435 29.9134 22.7373 30.2745 22.6879 30.6718C22.6385 31.0692 22.75 31.4698 22.9976 31.7845L24.1764 30.8569ZM26.3141 27.5567L26.9139 26.1819C26.5051 26.0035 26.038 26.0163 25.6395 26.2169C25.241 26.4176 24.9525 26.7851 24.8524 27.2199L26.3141 27.5567ZM30.1317 27.9308L31.6224 27.7638C31.5752 27.3421 31.3516 26.9602 31.0069 26.7126C30.6623 26.465 30.229 26.3749 29.8143 26.4647L30.1317 27.9308ZM37.6255 32.9716L39.0777 33.3475C39.2098 32.8372 39.0643 32.2951 38.6946 31.9194C38.3249 31.5437 37.7852 31.3897 37.2728 31.5136L37.6255 32.9716ZM33.1454 38.3523L34.3966 39.1797C34.4974 39.0273 34.5695 38.8578 34.6093 38.6794L33.1454 38.3523ZM25.4023 34.6763L24.2713 33.691C24.0498 33.9452 23.9205 34.2667 23.9041 34.6034L25.4023 34.6763ZM24.3662 37.682L23.139 36.8195C22.9446 37.0961 22.8493 37.4302 22.8686 37.7676L24.3662 37.682ZM32.4114 39.9472L33.6146 40.8428C33.7233 40.6968 33.8045 40.5322 33.8543 40.357L32.4114 39.9472ZM39.7698 29.786L40.6751 30.982C40.7896 30.8953 40.8912 30.7926 40.9765 30.677L39.7698 29.786ZM38.7294 30.7917L39.5813 32.0264C39.6992 31.945 39.8048 31.8472 39.895 31.7359L38.7294 30.7917ZM39.3738 24.3369L40.444 23.2859C39.8676 22.6989 38.926 22.6858 38.3334 23.2563L39.3738 24.3369ZM33.5522 25.8495L33.9229 24.3961C33.3581 24.252 32.761 24.4482 32.3917 24.8991L33.5522 25.8495ZM31.7083 27.3554L31.006 26.03C30.5082 26.2937 30.2002 26.8141 30.2084 27.3773L31.7083 27.3554ZM23.7907 34.1562L25.0179 35.0187C25.2123 34.7422 25.3075 34.4081 25.2882 34.0706L23.7907 34.1562ZM22.7545 37.162L23.8856 38.1473C24.107 37.893 24.2364 37.5716 24.2528 37.2348L22.7545 37.162ZM22.7813 31.663L23.9216 30.6884C23.4998 30.195 22.8086 30.0288 22.2087 30.2766L22.7813 31.663ZM16.73 30.9309L17.6216 29.7246C17.1006 29.3395 16.3912 29.3325 15.8626 29.7071L16.73 30.9309ZM24.3747 21.8597L22.8802 21.7315C22.8384 22.2178 23.036 22.694 23.4096 23.008L24.3747 21.8597ZM24.7685 22.2217L23.7052 23.2797C23.8954 23.4709 24.1336 23.6072 24.3948 23.6744L24.7685 22.2217ZM29.4945 17.9762L30.876 18.5605C31.0565 18.1339 31.0297 17.6478 30.8034 17.2435C30.5772 16.8393 30.1768 16.5623 29.7188 16.493L29.4945 17.9762ZM29.0522 20.4474L30.2344 21.3706C30.4545 21.0888 30.5667 20.7375 30.5507 20.3803L29.0522 20.4474ZM27.3696 21.8517L26.68 20.5196L26.68 20.5196L27.3696 21.8517ZM25.1991 22.3007L25.366 20.81L25.366 20.81L25.1991 22.3007ZM25.8398 23.6973L25.7532 22.1998C25.2476 22.229 24.7909 22.5114 24.5388 22.9506C24.2867 23.3898 24.2733 23.9266 24.5031 24.3779L25.8398 23.6973ZM26.4436 25.8599L24.9476 25.9692C24.983 26.4534 25.2505 26.8905 25.6655 27.1423L26.4436 25.8599ZM28.046 23.0723L27.3563 21.7403L27.3563 21.7403L28.046 23.0723ZM29.3908 22.1405L30.7997 21.6255C30.6288 21.1582 30.2374 20.806 29.7548 20.6853C29.2721 20.5646 28.761 20.6911 28.3903 21.0229L29.3908 22.1405ZM30.8897 24.395L32.1811 25.158C32.5387 24.5527 32.428 23.7803 31.9148 23.2999L30.8897 24.395ZM30.1826 26.3032L30.634 27.7337C31.1673 27.5654 31.5627 27.1144 31.6598 26.5636L30.1826 26.3032ZM19.5884 20.4783L19.7821 21.9657C20.4599 21.8775 20.9924 21.3422 21.0769 20.6639C21.1615 19.9856 20.7768 19.3359 20.1414 19.0839L19.5884 20.4783ZM14.8178 28.5393L14.6562 30.0306C15.1872 30.0881 15.7088 29.8589 16.0256 29.4288C16.3423 28.9987 16.4064 28.4326 16.194 27.9426L14.8178 28.5393ZM14.3106 28.4716L14.547 26.9903L14.5469 26.9903L14.3106 28.4716ZM11.0287 27.0472L9.83503 26.1388C9.38718 26.7273 9.43501 27.5543 9.94772 28.0872L11.0287 27.0472ZM11.5533 26.2154L10.2349 25.5L10.2349 25.5L11.5533 26.2154ZM12.171 24.9611L10.8293 24.2903C10.824 24.301 10.8187 24.3118 10.8136 24.3227L12.171 24.9611ZM12.171 24.9611L13.5126 25.6319C13.5196 25.618 13.5264 25.6039 13.5329 25.5897L12.171 24.9611ZM12.171 24.9611L10.8136 24.3226L10.809 24.3325L12.171 24.9611ZM12.3313 24.6213L13.6864 25.2646L13.6864 25.2646L12.3313 24.6213ZM14.3497 21.4617L15.4098 22.523L15.4098 22.523L14.3497 21.4617ZM16.9313 20.0522L16.7269 18.5662L16.7269 18.5662L16.9313 20.0522ZM16.6543 28.5834L15.4019 29.4089C15.6963 29.8554 16.2062 30.1115 16.7402 30.0809L16.6543 28.5834ZM21.3462 22.0802L22.5546 21.1916C22.3357 20.8938 22.0144 20.6873 21.6526 20.6118L21.3462 22.0802ZM22.0461 23.0803L23.4404 22.5272C23.4015 22.4292 23.3524 22.3356 23.2939 22.2479L22.0461 23.0803ZM22.331 24.1301L20.8473 24.3505L20.8473 24.3505L22.331 24.1301ZM22.0251 26.2553L23.3569 26.9454L23.3569 26.9454L22.0251 26.2553ZM20.2306 27.7909L20.7932 29.1814L20.7932 29.1814L20.2306 27.7909ZM21.2256 30.5003L21.4923 31.9764C22.1392 31.8595 22.6346 31.335 22.7145 30.6826C22.7944 30.0301 22.4401 29.4016 21.8406 29.1321L21.2256 30.5003ZM18.533 30.1752L18.2663 28.6991C17.6194 28.816 17.124 29.3404 17.0441 29.9929C16.9642 30.6454 17.3185 31.2738 17.918 31.5433L18.533 30.1752ZM21.2736 28.8442L20.5876 27.5103C20.0485 27.7875 19.7293 28.3619 19.7785 28.9661C19.8278 29.5703 20.2359 30.0855 20.8128 30.2717L21.2736 28.8442ZM23.0286 29.7446L22.1371 30.9509C22.6581 31.3359 23.3674 31.343 23.896 30.9684L23.0286 29.7446ZM23.3059 26.8755L21.9741 26.1853L21.974 26.1853L23.3059 26.8755ZM23.6909 25.8166L24.9493 25.0002C24.6209 24.4941 24.0214 24.234 23.4275 24.3399C22.8336 24.4459 22.361 24.8973 22.2279 25.4857L23.6909 25.8166ZM24.4548 26.2929L25.5139 25.2307C25.2812 24.9986 24.9786 24.8494 24.6528 24.806L24.4548 26.2929ZM24.832 26.6382L26.3265 26.7664C26.3682 26.2801 26.1707 25.8039 25.797 25.4899L24.832 26.6382ZM39.0528 22.1554L38.3515 23.4814C39.082 23.8677 39.9874 23.5905 40.3763 22.8613L39.0528 22.1554ZM31.9139 17.1975L30.8559 16.1342C30.5252 16.4632 30.3665 16.9273 30.4263 17.3899C30.4861 17.8524 30.7577 18.2608 31.1611 18.4949L31.9139 17.1975ZM34.8216 21.5822L33.331 21.7491C33.3782 22.1708 33.6018 22.5528 33.9464 22.8004C34.291 23.0479 34.7244 23.138 35.1391 23.0482L34.8216 21.5822ZM34.7708 23.2097L34.3194 21.7793C33.7861 21.9476 33.3907 22.3986 33.2936 22.9493L34.7708 23.2097ZM38.0449 23.4071L39.0201 24.5468C39.4093 24.2138 39.6017 23.7052 39.5302 23.1979C39.4588 22.6907 39.1335 22.255 38.6674 22.0424L38.0449 23.4071ZM34.409 24.4332L33.0275 23.8488C32.8471 24.2755 32.8739 24.7616 33.1001 25.1658C33.3264 25.5701 33.7267 25.8471 34.1848 25.9163L34.409 24.4332ZM31.3595 18.7065L32.2042 17.467C31.7797 17.1777 31.2369 17.1258 30.7653 17.3292C30.2937 17.5327 29.959 17.9633 29.8782 18.4705L31.3595 18.7065ZM33.2451 22.1575L33.9474 23.483C34.4452 23.2192 34.7532 22.6988 34.745 22.1356L33.2451 22.1575ZM30.6756 20.5749L29.3803 19.8186C29.2226 20.0885 29.1533 20.4009 29.1819 20.7122L30.6756 20.5749ZM31.8783 23.1466L30.8081 24.1976C31.3845 24.7845 32.3261 24.7977 32.9187 24.2271L31.8783 23.1466ZM29.9094 16.4642L29.6457 17.9408C30.1203 18.0256 30.6068 17.877 30.9531 17.5415C31.2994 17.206 31.4633 16.7244 31.3936 16.2473L29.9094 16.4642ZM27.3908 11.2724L28.4985 10.261C28.2297 9.96657 27.8547 9.7913 27.4564 9.77388C27.0581 9.75645 26.6693 9.8983 26.3758 10.1681L27.3908 11.2724ZM25.2326 14.6849L26.6871 15.0513L26.6871 15.0513L25.2326 14.6849ZM24.7483 15.1825L24.3186 13.7454L24.3186 13.7454L24.7483 15.1825ZM24.058 15.0361L23.0745 16.1686L23.0745 16.1686L24.058 15.0361ZM20.6341 12.6496L21.3462 11.3294C20.9876 11.136 20.5657 11.0967 20.1776 11.2207C19.7895 11.3448 19.4685 11.6213 19.2885 11.9869L20.6341 12.6496ZM20.4062 16.0511L21.8787 15.7653L21.8787 15.7653L20.4062 16.0511ZM21.3698 18.7787L20.0386 19.4701C20.1005 19.5893 20.1782 19.6997 20.2695 19.7982L21.3698 18.7787ZM22.957 20.6884L21.7564 21.5877C22.0989 22.045 22.6715 22.268 23.2331 22.1628C23.7947 22.0577 24.2478 21.6426 24.4016 21.0924L22.957 20.6884ZM27.9165 10.944C27.6171 11.1869 27.1886 11.1744 26.9031 10.9055L28.9602 8.72189C28.1478 7.95657 26.889 7.91431 26.0261 8.61451L27.9165 10.944ZM25.5701 13.901C26.0053 12.8634 26.7712 11.8734 27.9165 10.944L26.0261 8.61451C24.5798 9.78814 23.4674 11.1578 22.8035 12.7407L25.5701 13.901ZM20.0515 12.4675C21.16 13.0128 22.2293 13.6896 23.2596 14.4999L25.1141 12.1418C23.9282 11.2091 22.6822 10.4183 21.3759 9.77561L20.0515 12.4675ZM20.9732 12.2765C20.7328 12.5537 20.3546 12.6166 20.0515 12.4675L21.3759 9.77561C20.4783 9.33404 19.3754 9.53976 18.7065 10.3112L20.9732 12.2765ZM20.4708 16.0206C20.1331 14.281 20.4059 12.9308 20.9732 12.2765L18.7065 10.3112C17.2469 11.9948 17.1182 14.4927 17.5257 16.5923L20.4708 16.0206ZM20.5313 16.3074C20.5094 16.2111 20.4892 16.1155 20.4708 16.0206L17.5257 16.5923C17.5504 16.7195 17.5774 16.8471 17.6065 16.9749L20.5313 16.3074ZM12.376 14.5764C14.6706 15.4841 16.5362 16.5432 18.1352 17.815L20.0027 15.4672C18.1385 13.9844 16.0061 12.7862 13.4795 11.7867L12.376 14.5764ZM12.9079 14.3342C12.8023 14.5836 12.5534 14.6466 12.376 14.5764L13.4795 11.7867C12.2037 11.2821 10.7002 11.8536 10.1452 13.1647L12.9079 14.3342ZM12.6657 13.7091C12.8668 13.7886 13.0253 14.0569 12.9079 14.3342L10.1452 13.1647C9.57838 14.5037 10.2629 15.9848 11.5622 16.4988L12.6657 13.7091ZM19.2109 17.5453C17.3642 15.959 15.2391 14.727 12.6657 13.7091L11.5622 16.4988C13.8811 17.416 15.7045 18.4881 17.2561 19.821L19.2109 17.5453ZM16.9339 20.1673C17.292 20.118 17.6587 20.1206 18.0383 20.1704L18.4287 17.1959C17.8123 17.115 17.1753 17.1058 16.525 17.1953L16.9339 20.1673ZM14.3804 21.56C15.2575 20.6839 16.1041 20.2815 16.9339 20.1673L16.525 17.1953C14.9457 17.4126 13.5216 18.1775 12.2603 19.4375L14.3804 21.56ZM12.3844 24.6871C12.9178 23.5633 13.5009 22.4386 14.3804 21.56L12.2603 19.4375C10.9797 20.7167 10.2119 22.268 9.67424 23.4006L12.3844 24.6871ZM12.2145 25.0471C12.2703 24.9286 12.3264 24.8093 12.3844 24.6871L9.67424 23.4006C9.61371 23.5281 9.55547 23.6519 9.49999 23.7698L12.2145 25.0471ZM12.1989 25.0793L12.1989 25.0793L9.5156 23.7376L9.51558 23.7377L12.1989 25.0793ZM11.6031 26.2876C11.8152 25.8967 12.0163 25.4682 12.2145 25.0471L9.49998 23.7698C9.29246 24.2108 9.12937 24.5563 8.96633 24.8567L11.6031 26.2876ZM10.6286 27.6199C11.0291 27.2585 11.3399 26.7727 11.6031 26.2876L8.96633 24.8567C8.86463 25.0441 8.78202 25.1772 8.71658 25.2699C8.64988 25.3644 8.61647 25.3947 8.61895 25.3925L10.6286 27.6199ZM10.7798 26.589C10.9858 26.9334 10.909 27.3669 10.6286 27.6199L8.61895 25.3925C7.85095 26.0854 7.66521 27.2261 8.20509 28.1288L10.7798 26.589ZM14.3137 28.3565C12.4756 28.0633 11.2271 27.3369 10.7798 26.589L8.20509 28.1288C9.33717 30.0217 11.692 30.9762 13.841 31.3191L14.3137 28.3565ZM15.4626 28.4741C15.0653 28.4551 14.6808 28.4151 14.3137 28.3565L13.841 31.3191C14.3196 31.3954 14.8141 31.4465 15.319 31.4707L15.4626 28.4741ZM14.7997 34.397C14.7997 33.1021 15.3909 31.9292 16.3541 31.1222L14.4275 28.8226C12.8289 30.1619 11.7997 32.1575 11.7997 34.397H14.7997ZM19.3544 38.7498C16.7906 38.7498 14.7997 36.7535 14.7997 34.397H11.7997C11.7997 38.5054 15.2304 41.7498 19.3544 41.7498V38.7498ZM22.1065 37.8655C21.3452 38.4184 20.3944 38.7498 19.3544 38.7498V41.7498C21.0412 41.7498 22.6067 41.21 23.8695 40.2927L22.1065 37.8655ZM28.8024 41.7941C26.6974 41.7941 24.9633 40.4376 24.4244 38.6468L21.5517 39.5114C22.4785 42.5912 25.3959 44.7941 28.8024 44.7941V41.7941ZM31.4113 41.0097C30.6755 41.5023 29.7785 41.7941 28.8024 41.7941V44.7941C30.3848 44.7941 31.8609 44.319 33.0803 43.5025L31.4113 41.0097ZM38.2505 45.8534C35.8939 45.8534 34.0128 44.1595 33.7326 42.0579L30.7589 42.4543C31.2455 46.1038 34.4489 48.8534 38.2505 48.8534V45.8534ZM39.4287 45.7067C39.0547 45.8021 38.66 45.8534 38.2505 45.8534V48.8534C38.9117 48.8534 39.5554 48.7704 40.1702 48.6136L39.4287 45.7067ZM44.5492 47.8829C43.0817 47.8829 41.7893 47.2223 40.9599 46.2097L38.639 48.1105C40.0276 49.806 42.1659 50.8829 44.5492 50.8829V47.8829ZM49.1038 43.53C49.1038 45.8865 47.113 47.8829 44.5492 47.8829V50.8829C48.6732 50.8829 52.1038 47.6384 52.1038 43.53H49.1038ZM46.9772 39.8466C48.2726 40.6289 49.1038 41.9975 49.1038 43.53H52.1038C52.1038 40.8719 50.6569 38.5641 48.528 37.2785L46.9772 39.8466ZM48.0541 34.397C48.0541 35.5924 47.5509 36.6817 46.7171 37.4773L48.7881 39.6478C50.1787 38.3209 51.0541 36.4616 51.0541 34.397H48.0541ZM43.4994 30.0441C46.0632 30.0441 48.0541 32.0405 48.0541 34.397H51.0541C51.0541 30.2886 47.6234 27.0441 43.4994 27.0441V30.0441ZM42.3775 30.1769C42.7347 30.0905 43.1103 30.0441 43.4994 30.0441V27.0441C42.8712 27.0441 42.2589 27.119 41.6721 27.261L42.3775 30.1769ZM40.7056 27.2935C40.7056 27.6571 40.6593 28.0083 40.5727 28.343L43.4769 29.0948C43.6265 28.517 43.7056 27.9133 43.7056 27.2935H40.7056ZM39.3373 24.1836C40.1899 24.9816 40.7056 26.0834 40.7056 27.2935H43.7056C43.7056 25.203 42.8082 23.3233 41.3875 21.9934L39.3373 24.1836ZM39.6558 20.1899C39.6558 20.9667 39.4442 21.6938 39.071 22.3254L41.6538 23.8515C42.2904 22.7741 42.6558 21.5224 42.6558 20.1899H39.6558ZM35.1011 15.8371C37.665 15.8371 39.6558 17.8335 39.6558 20.1899H42.6558C42.6558 16.0816 39.2251 12.8371 35.1011 12.8371V15.8371ZM32.1677 16.8602C32.9569 16.2243 33.9772 15.8371 35.1011 15.8371V12.8371C33.2774 12.8371 31.596 13.468 30.2853 14.5243L32.1677 16.8602ZM26.9031 10.9055C28.0432 11.9796 29.3073 13.8178 29.7576 15.996L32.6954 15.3886C32.0985 12.5013 30.4633 10.1378 28.9602 8.72188L26.9031 10.9055ZM40.3039 47.5857C41.3863 48.6628 42.8939 49.3251 44.5492 49.3251V46.3251C43.7039 46.3251 42.9523 45.9889 42.42 45.4592L40.3039 47.5857ZM44.5492 49.3251C47.7831 49.3251 50.4923 46.7781 50.4923 43.53H47.4923C47.4923 45.0261 46.223 46.3251 44.5492 46.3251V49.3251ZM50.4923 43.53C50.4923 41.1118 48.9806 39.0734 46.8836 38.1995L45.7296 40.9686C46.7923 41.4115 47.4923 42.4109 47.4923 43.53H50.4923ZM45.6286 38.2461C45.1349 38.4962 44.5864 38.6625 44.0026 38.7237L44.315 41.7074C45.2675 41.6076 46.1692 41.3353 46.9847 40.9221L45.6286 38.2461ZM42.6975 40.5542C42.7678 40.8576 42.8052 41.174 42.8052 41.5005H45.8052C45.8052 40.9441 45.7414 40.4005 45.62 39.8769L42.6975 40.5542ZM42.8052 41.5005C42.8052 43.0601 41.944 44.4506 40.6092 45.225L42.1147 47.8199C44.3064 46.5483 45.8052 44.2063 45.8052 41.5005H42.8052ZM44.1936 41.5005C44.1936 40.869 44.0895 40.2586 43.8962 39.6865L41.054 40.6464C41.1444 40.9142 41.1936 41.2006 41.1936 41.5005H44.1936ZM41.1951 46.5352C42.9671 45.5484 44.1936 43.6764 44.1936 41.5005H41.1936C41.1936 42.5096 40.6271 43.4177 39.7355 43.9143L41.1951 46.5352ZM38.606 43.53C38.606 44.3469 38.7802 45.1271 39.0947 45.8342L41.8359 44.6153C41.6879 44.2825 41.606 43.9169 41.606 43.53H38.606ZM41.0768 38.8264C39.5945 39.8682 38.606 41.5786 38.606 43.53H41.606C41.606 42.6228 42.0621 41.8007 42.8017 41.2809L41.0768 38.8264ZM42.7189 38.6864C42.5811 38.6637 42.4457 38.6351 42.3127 38.6009L41.5658 41.5065C41.7841 41.5626 42.0061 41.6094 42.2313 41.6465L42.7189 38.6864ZM41.0714 38.0804C40.4067 37.679 39.8621 37.1203 39.4911 36.4661L36.8814 37.9458C37.5113 39.0567 38.4244 39.9866 39.5205 40.6485L41.0714 38.0804ZM39.9945 43.53C39.9945 42.3346 40.4977 41.2453 41.3315 40.4497L39.2604 38.2792C37.8699 39.6061 36.9945 41.4654 36.9945 43.53H39.9945ZM40.3241 45.1594C40.1117 44.6572 39.9945 44.1082 39.9945 43.53H36.9945C36.9945 44.5186 37.1958 45.4645 37.5611 46.3281L40.3241 45.1594ZM38.2505 47.2956C38.5612 47.2956 38.8673 47.2722 39.1668 47.2269L38.7183 44.2606C38.5668 44.2835 38.4106 44.2956 38.2505 44.2956V47.2956ZM32.3073 41.5005C32.3073 44.7486 35.0165 47.2956 38.2505 47.2956V44.2956C36.5767 44.2956 35.3073 42.9967 35.3073 41.5005H32.3073ZM32.4436 40.2623C32.3542 40.6625 32.3073 41.077 32.3073 41.5005H35.3073C35.3073 41.2988 35.3296 41.1037 35.3714 40.9165L32.4436 40.2623ZM33.1986 38.5848C33.0795 39.0042 32.8957 39.4002 32.6564 39.762L35.1587 41.4169C35.5637 40.8044 35.8791 40.1276 36.0845 39.4045L33.1986 38.5848ZM38.1658 35.7061C36.2317 35.7326 34.5077 36.6624 33.4383 38.099L35.8448 39.8903C36.3653 39.191 37.2207 38.7193 38.2068 38.7058L38.1658 35.7061ZM39.031 37.2111C40.1711 37.3989 41.1607 37.9918 41.8398 38.8209L44.1607 36.92C43.0239 35.532 41.3849 34.5584 39.5185 34.251L39.031 37.2111ZM37.5562 34.397C37.5562 35.0285 37.6604 35.6389 37.8536 36.2111L40.6959 35.2511C40.6055 34.9834 40.5562 34.6969 40.5562 34.397H37.5562ZM38.6738 31.0135C37.9731 31.9624 37.5562 33.1325 37.5562 34.397H40.5562C40.5562 33.8029 40.75 33.2522 41.0872 32.7955L38.6738 31.0135ZM39.7553 29.9546C39.5289 30.2342 39.2669 30.4877 38.9753 30.7084L40.7858 33.1005C41.2691 32.7347 41.7062 32.3124 42.0865 31.8429L39.7553 29.9546ZM43.4994 28.6019C42.2274 28.6019 41.0414 28.9932 40.0691 29.6641L41.7728 32.1334C42.2546 31.8009 42.8486 31.6019 43.4994 31.6019V28.6019ZM49.4425 34.397C49.4425 31.1489 46.7333 28.6019 43.4994 28.6019V31.6019C45.1732 31.6019 46.4425 32.9008 46.4425 34.397H49.4425ZM46.9717 39.1006C48.4541 38.0588 49.4425 36.3484 49.4425 34.397H46.4425C46.4425 35.3042 45.9864 36.1263 45.2468 36.646L46.9717 39.1006ZM44.5492 39.1772C44.9618 39.1772 45.3593 39.2293 45.7358 39.3261L46.4827 36.4205C45.8638 36.2614 45.2154 36.1772 44.5492 36.1772V39.1772ZM43.3709 39.3239C43.745 39.2285 44.1396 39.1772 44.5492 39.1772V36.1772C43.8879 36.1772 43.2443 36.2602 42.6295 36.417L43.3709 39.3239ZM35.6417 37.9321C36.2496 37.5251 36.9673 37.2555 37.7473 37.1738L37.4349 34.1901C36.1613 34.3235 34.9793 34.7653 33.9726 35.4393L35.6417 37.9321ZM28.8024 33.0884C31.159 33.0884 33.0401 34.7823 33.3203 36.8839L36.294 36.4875C35.8074 32.838 32.604 30.0884 28.8024 30.0884V33.0884ZM26.0504 33.9728C26.8116 33.4198 27.7624 33.0884 28.8024 33.0884V30.0884C27.1157 30.0884 25.5502 30.6282 24.2873 31.5455L26.0504 33.9728ZM22.9976 31.7845C23.328 32.2043 23.5786 32.68 23.7325 33.1914L26.6052 32.3269C26.3399 31.4453 25.9108 30.6353 25.3552 29.9293L22.9976 31.7845ZM24.8524 27.2199C24.6286 28.1909 24.0607 29.0521 23.2606 29.6689L25.0922 32.0448C26.4153 31.0249 27.3886 29.5738 27.7757 27.8935L24.8524 27.2199ZM28.8024 26.5723C28.1248 26.5723 27.4864 26.4317 26.9139 26.1819L25.7142 28.9315C26.6598 29.3442 27.7062 29.5723 28.8024 29.5723V26.5723ZM29.8143 26.4647C29.4903 26.5349 29.1518 26.5723 28.8024 26.5723V29.5723C29.3664 29.5723 29.9177 29.5119 30.4492 29.3968L29.8143 26.4647ZM36.1509 31.6464C33.7615 31.6464 31.8624 29.9059 31.6224 27.7638L28.6411 28.0977C29.0581 31.821 32.2981 34.6464 36.1509 34.6464V31.6464ZM37.2728 31.5136C36.9156 31.6 36.54 31.6464 36.1509 31.6464V34.6464C36.7791 34.6464 37.3914 34.5715 37.9782 34.4295L37.2728 31.5136ZM38.9447 34.397C38.9447 34.0334 38.991 33.6822 39.0777 33.3475L36.1734 32.5957C36.0238 33.1735 35.9447 33.7772 35.9447 34.397H38.9447ZM39.0524 35.3434C38.9821 35.0399 38.9447 34.7235 38.9447 34.397H35.9447C35.9447 34.9534 36.0085 35.497 36.1298 36.0206L39.0524 35.3434ZM34.6093 38.6794C34.6987 38.2792 34.7456 37.8648 34.7456 37.4412H31.7456C31.7456 37.643 31.7233 37.8381 31.6815 38.0252L34.6093 38.6794ZM34.7456 37.4412C34.7456 34.1932 32.0364 31.6462 28.8024 31.6462V34.6462C30.4762 34.6462 31.7456 35.9451 31.7456 37.4412H34.7456ZM28.8024 31.6462C26.9959 31.6462 25.3656 32.4348 24.2713 33.691L26.5333 35.6616C27.0691 35.0465 27.8802 34.6462 28.8024 34.6462V31.6462ZM23.9041 34.6034C23.8644 35.4193 23.5902 36.1775 23.139 36.8195L25.5934 38.5445C26.3574 37.4574 26.8322 36.1554 26.9006 34.7491L23.9041 34.6034ZM22.8686 37.7676C23.0454 40.8607 25.6768 43.2363 28.8024 43.2363V40.2363C27.1876 40.2363 25.9453 39.0235 25.8637 37.5964L22.8686 37.7676ZM28.8024 43.2363C30.7705 43.2363 32.5295 42.3005 33.6146 40.8428L31.2081 39.0515C30.68 39.761 29.8072 40.2363 28.8024 40.2363V43.2363ZM33.8543 40.357C33.9734 39.9376 34.1573 39.5416 34.3966 39.1797L31.8943 37.5249C31.4892 38.1374 31.1739 38.8141 30.9684 39.5373L33.8543 40.357ZM38.8646 28.59C38.3812 28.9558 37.9441 29.3781 37.5638 29.8476L39.895 31.7359C40.1215 31.4563 40.3835 31.2028 40.6751 30.982L38.8646 28.59ZM39.0941 27.2935C39.0941 27.8876 38.9003 28.4383 38.5631 28.895L40.9765 30.677C41.6772 29.7281 42.0941 28.558 42.0941 27.2935H39.0941ZM38.3036 25.3879C38.8006 25.8941 39.0941 26.5636 39.0941 27.2935H42.0941C42.0941 25.7321 41.4595 24.3199 40.444 23.2859L38.3036 25.3879ZM35.1011 27.5428C37.165 27.5428 39.0457 26.735 40.4141 25.4175L38.3334 23.2563C37.5118 24.0473 36.3723 24.5428 35.1011 24.5428V27.5428ZM33.1814 27.303C33.7962 27.4598 34.4399 27.5428 35.1011 27.5428V24.5428C34.6916 24.5428 34.297 24.4915 33.9229 24.3961L33.1814 27.303ZM32.4105 28.6809C33.3001 28.2096 34.0831 27.5686 34.7126 26.7999L32.3917 24.8991C32.0164 25.3574 31.5455 25.7441 31.006 26.03L32.4105 28.6809ZM36.1509 30.0885C34.4922 30.0885 33.2297 28.8119 33.2081 27.3335L30.2084 27.3773C30.2553 30.586 32.9447 33.0885 36.1509 33.0885V30.0885ZM37.8775 29.5571C37.3957 29.8896 36.8017 30.0885 36.1509 30.0885V33.0885C37.4229 33.0885 38.6089 32.6973 39.5813 32.0264L37.8775 29.5571ZM22.5635 33.2937C21.7994 34.3808 21.3247 35.6828 21.2563 37.0891L24.2528 37.2348C24.2924 36.4189 24.5667 35.6608 25.0179 35.0187L22.5635 33.2937ZM21.6411 32.6376C22.0241 33.0858 22.2588 33.6405 22.2931 34.2418L25.2882 34.0706C25.2146 32.7823 24.7094 31.6101 23.9216 30.6884L21.6411 32.6376ZM20.4042 33.6313C21.4471 33.6313 22.445 33.4249 23.354 33.0494L22.2087 30.2766C21.6581 30.5041 21.049 30.6313 20.4042 30.6313V33.6313ZM15.8384 32.1372C17.1099 33.0769 18.6947 33.6313 20.4042 33.6313V30.6313C19.3503 30.6313 18.3879 30.291 17.6216 29.7246L15.8384 32.1372ZM16.4113 34.397C16.4113 33.4936 16.8634 32.6749 17.5974 32.1547L15.8626 29.7071C14.3911 30.75 13.4113 32.4541 13.4113 34.397H16.4113ZM19.3544 37.192C17.6806 37.192 16.4113 35.8931 16.4113 34.397H13.4113C13.4113 37.645 16.1205 40.192 19.3544 40.192V37.192ZM21.6235 36.1767C21.0877 36.7917 20.2766 37.192 19.3544 37.192V40.192C21.1609 40.192 22.7913 39.4034 23.8856 38.1473L21.6235 36.1767ZM23.4096 23.008C23.5124 23.0944 23.611 23.1851 23.7052 23.2797L25.8318 21.1637C25.6747 21.0058 25.5105 20.8549 25.3397 20.7113L23.4096 23.008ZM28.8024 16.4244C25.7309 16.4244 23.1388 18.7168 22.8802 21.7315L25.8692 21.9879C25.9887 20.5951 27.2169 19.4244 28.8024 19.4244V16.4244ZM29.7188 16.493C29.4193 16.4478 29.1132 16.4244 28.8024 16.4244V19.4244C28.9626 19.4244 29.1188 19.4364 29.2703 19.4593L29.7188 16.493ZM30.5465 20.1899C30.5465 19.6118 30.6636 19.0627 30.876 18.5605L28.113 17.3918C27.7477 18.2555 27.5465 19.2013 27.5465 20.1899H30.5465ZM30.5507 20.3803C30.5479 20.3173 30.5465 20.2538 30.5465 20.1899H27.5465C27.5465 20.2986 27.5489 20.4068 27.5537 20.5145L30.5507 20.3803ZM28.0593 23.1837C28.9142 22.7411 29.6606 22.1054 30.2344 21.3706L27.87 19.5242C27.5497 19.9343 27.1342 20.2844 26.68 20.5196L28.0593 23.1837ZM25.0322 23.7914C26.0948 23.9103 27.1414 23.659 28.0593 23.1837L26.68 20.5196C26.1946 20.7709 25.7411 20.852 25.366 20.81L25.0322 23.7914ZM24.3948 23.6744C24.6084 23.7293 24.8213 23.7677 25.0322 23.7914L25.366 20.81C25.291 20.8016 25.2164 20.7881 25.1421 20.769L24.3948 23.6744ZM24.5031 24.3779C24.7512 24.8651 24.9061 25.4019 24.9476 25.9692L27.9396 25.7505C27.8683 24.7742 27.6008 23.8501 27.1765 23.0167L24.5031 24.3779ZM27.3563 21.7403C26.8403 22.0074 26.2934 22.1686 25.7532 22.1998L25.9263 25.1948C26.9401 25.1362 27.8953 24.8395 28.7357 24.4044L27.3563 21.7403ZM28.3903 21.0229C28.0707 21.3091 27.7204 21.5518 27.3563 21.7403L28.7357 24.4044C29.3327 24.0953 29.8907 23.7063 30.3913 23.2581L28.3903 21.0229ZM31.9148 23.2999C31.415 22.8321 31.0314 22.2595 30.7997 21.6255L27.982 22.6555C28.3805 23.7456 29.0332 24.7118 29.8646 25.4901L31.9148 23.2999ZM31.6598 26.5636C31.7482 26.062 31.9268 25.5884 32.1811 25.158L29.5983 23.632C29.1659 24.3637 28.858 25.1767 28.7053 26.0428L31.6598 26.5636ZM28.8024 28.0145C29.4388 28.0145 30.0548 27.9165 30.634 27.7337L29.7311 24.8728C29.4414 24.9642 29.1297 25.0145 28.8024 25.0145V28.0145ZM25.6655 27.1423C26.5792 27.6966 27.6562 28.0145 28.8024 28.0145V25.0145C28.2154 25.0145 27.6752 24.8526 27.2217 24.5775L25.6655 27.1423ZM15.8495 26.2785C15.8495 24.1156 17.5221 22.26 19.7821 21.9657L19.3948 18.9909C15.7386 19.4668 12.8495 22.5113 12.8495 26.2785H15.8495ZM16.194 27.9426C15.9721 27.431 15.8495 26.8699 15.8495 26.2785H12.8495C12.8495 27.2899 13.0602 28.2565 13.4416 29.136L16.194 27.9426ZM14.0743 29.9528C14.2656 29.9833 14.4597 30.0093 14.6562 30.0306L14.9793 27.048C14.832 27.0321 14.6878 27.0128 14.547 26.9903L14.0743 29.9528ZM9.94772 28.0872C10.866 29.0417 12.3652 29.6801 14.0743 29.9528L14.5469 26.9903C13.1978 26.775 12.4103 26.3198 12.1096 26.0072L9.94772 28.0872ZM10.2349 25.5C10.0974 25.7533 9.96688 25.9656 9.83503 26.1388L12.2223 27.9557C12.4828 27.6133 12.6959 27.2547 12.8717 26.9308L10.2349 25.5ZM10.8136 24.3227C10.604 24.7684 10.4186 25.1614 10.2349 25.5L12.8717 26.9308C13.1043 26.5021 13.3274 26.0267 13.5283 25.5996L10.8136 24.3227ZM10.8293 24.2903L10.8293 24.2903L13.5126 25.632L13.5126 25.6319L10.8293 24.2903ZM10.809 24.3325L10.809 24.3325L13.5329 25.5897L13.5329 25.5897L10.809 24.3325ZM10.9762 23.9781C10.9213 24.0937 10.8668 24.2096 10.8136 24.3226L13.5283 25.5995C13.5819 25.4857 13.6341 25.3746 13.6864 25.2646L10.9762 23.9781ZM13.2897 20.4005C12.1954 21.4935 11.5123 22.8487 10.9762 23.9781L13.6864 25.2646C14.2197 24.1409 14.7176 23.2144 15.4098 22.523L13.2897 20.4005ZM16.7269 18.5662C15.5178 18.7326 14.3719 19.3195 13.2897 20.4005L15.4098 22.523C16.1068 21.8268 16.675 21.6016 17.1358 21.5382L16.7269 18.5662ZM20.1414 19.0839C19.0284 18.6426 17.8837 18.4071 16.7269 18.5662L17.1358 21.5382C17.6178 21.4719 18.2234 21.5506 19.0355 21.8727L20.1414 19.0839ZM14.4611 26.2785C14.4611 27.4319 14.8081 28.5079 15.4019 29.4089L17.9068 27.7578C17.6227 27.3269 17.4611 26.8215 17.4611 26.2785H14.4611ZM20.4042 20.4835C17.1702 20.4835 14.4611 23.0305 14.4611 26.2785H17.4611C17.4611 24.7824 18.7304 23.4835 20.4042 23.4835V20.4835ZM21.6526 20.6118C21.2487 20.5275 20.8309 20.4835 20.4042 20.4835V23.4835C20.624 23.4835 20.8364 23.5061 21.0398 23.5485L21.6526 20.6118ZM23.2939 22.2479C23.052 21.8853 22.8059 21.5333 22.5546 21.1916L20.1377 22.9688C20.3604 23.2716 20.5803 23.586 20.7982 23.9128L23.2939 22.2479ZM23.8147 23.9096C23.7438 23.4324 23.6151 22.9676 23.4404 22.5272L20.6518 23.6335C20.7465 23.8721 20.8121 24.114 20.8473 24.3505L23.8147 23.9096ZM23.3569 26.9454C23.8504 25.9931 23.9658 24.9265 23.8147 23.9096L20.8473 24.3505C20.9225 24.8569 20.848 25.2666 20.6933 25.5651L23.3569 26.9454ZM20.7932 29.1814C22.0071 28.6903 22.8589 27.9063 23.3569 26.9454L20.6933 25.5651C20.5523 25.8373 20.2763 26.1543 19.668 26.4004L20.7932 29.1814ZM16.7402 30.0809C18.0661 30.0049 19.4564 29.7223 20.7932 29.1814L19.668 26.4004C18.6609 26.8079 17.596 27.0269 16.5685 27.0858L16.7402 30.0809ZM20.4042 32.0735C20.7746 32.0735 21.1385 32.0403 21.4923 31.9764L20.9589 29.0242C20.7804 29.0564 20.595 29.0735 20.4042 29.0735V32.0735ZM17.918 31.5433C18.6773 31.8846 19.5207 32.0735 20.4042 32.0735V29.0735C19.9507 29.0735 19.5261 28.977 19.148 28.807L17.918 31.5433ZM19.3544 28.6019C18.984 28.6019 18.6202 28.6351 18.2663 28.6991L18.7997 31.6513C18.9782 31.619 19.1635 31.6019 19.3544 31.6019V28.6019ZM21.8406 29.1321C21.0813 28.7908 20.2379 28.6019 19.3544 28.6019V31.6019C19.8079 31.6019 20.2325 31.6985 20.6107 31.8684L21.8406 29.1321ZM20.8128 30.2717C21.296 30.4277 21.7424 30.6592 22.1371 30.9509L23.9202 28.5383C23.2663 28.055 22.5293 27.6734 21.7344 27.4168L20.8128 30.2717ZM21.974 26.1853C21.7111 26.6928 21.2722 27.1582 20.5876 27.5103L21.9595 30.1782C23.1668 29.5574 24.0725 28.6563 24.6377 27.5656L21.974 26.1853ZM22.2279 25.4857C22.1726 25.73 22.0887 25.9641 21.9741 26.1853L24.6377 27.5656C24.8759 27.1059 25.0451 26.6289 25.154 26.1476L22.2279 25.4857ZM24.6528 24.806C24.7526 24.8193 24.8694 24.8771 24.9493 25.0002L22.4326 26.6331C22.8603 27.2922 23.5448 27.6849 24.2568 27.7797L24.6528 24.806ZM25.797 25.4899C25.6987 25.4073 25.6043 25.3208 25.5139 25.2307L23.3956 27.355C23.5464 27.5054 23.7037 27.6493 23.8669 27.7866L25.797 25.4899ZM23.896 30.9684C25.2419 30.0145 26.1771 28.508 26.3265 26.7664L23.3375 26.51C23.2682 27.3177 22.833 28.0447 22.1613 28.5208L23.896 30.9684ZM38.0443 20.1899C38.0443 20.6444 37.9312 21.071 37.7293 21.4495L40.3763 22.8613C40.8027 22.0619 41.0443 21.152 41.0443 20.1899H38.0443ZM35.1011 17.3949C36.7749 17.3949 38.0443 18.6938 38.0443 20.1899H41.0443C41.0443 16.9419 38.3351 14.3949 35.1011 14.3949V17.3949ZM32.9719 18.2608C33.5043 17.731 34.2559 17.3949 35.1011 17.3949V14.3949C33.4459 14.3949 31.9383 15.0571 30.8559 16.1342L32.9719 18.2608ZM36.3123 21.4152C36.0474 19.0499 34.6371 17.0433 32.6667 15.9001L31.1611 18.4949C32.3612 19.1912 33.1784 20.3871 33.331 21.7491L36.3123 21.4152ZM36.1509 19.9407C35.587 19.9407 35.0357 20.001 34.5042 20.1161L35.1391 23.0482C35.4631 22.978 35.8015 22.9407 36.1509 22.9407V19.9407ZM39.7541 20.8294C38.68 20.2614 37.4509 19.9407 36.1509 19.9407V22.9407C36.9538 22.9407 37.7023 23.138 38.3515 23.4814L39.7541 20.8294ZM36.1509 21.4985C35.5146 21.4985 34.8985 21.5965 34.3194 21.7793L35.2223 24.6402C35.512 24.5487 35.8237 24.4985 36.1509 24.4985V21.4985ZM38.6674 22.0424C37.9003 21.6925 37.0463 21.4985 36.1509 21.4985V24.4985C36.6104 24.4985 37.0404 24.5976 37.4223 24.7718L38.6674 22.0424ZM35.1011 25.985C36.5957 25.985 37.9705 25.4449 39.0201 24.5468L37.0697 22.2674C36.5515 22.7107 35.8648 22.985 35.1011 22.985V25.985ZM34.1848 25.9163C34.4843 25.9616 34.7904 25.985 35.1011 25.985V22.985C34.941 22.985 34.7848 22.9729 34.6333 22.95L34.1848 25.9163ZM33.2936 22.9493C33.2386 23.2615 33.1487 23.5625 33.0275 23.8488L35.7905 25.0175C35.9982 24.5265 36.1531 24.0084 36.248 23.4701L33.2936 22.9493ZM30.5148 19.9461C31.2642 20.4567 31.7321 21.2747 31.7453 22.1794L34.745 22.1356C34.7165 20.1875 33.704 18.489 32.2042 17.467L30.5148 19.9461ZM31.9709 21.3313C32.3945 20.6059 32.7045 19.7981 32.8408 18.9425L29.8782 18.4705C29.8067 18.9189 29.6382 19.3768 29.3803 19.8186L31.9709 21.3313ZM32.9485 22.0955C32.5071 21.6461 32.2273 21.0683 32.1693 20.4377L29.1819 20.7122C29.3064 22.0675 29.9082 23.2813 30.8081 24.1976L32.9485 22.0955ZM32.5429 20.832C31.916 21.1642 31.3423 21.5804 30.8379 22.066L32.9187 24.2271C33.2214 23.9357 33.5675 23.6842 33.9474 23.483L32.5429 20.832ZM30.1731 14.9875C29.7275 14.9079 29.2693 14.8666 28.8024 14.8666V17.8666C29.0918 17.8666 29.3735 17.8922 29.6457 17.9408L30.1731 14.9875ZM26.2832 12.2839C27.2415 13.3333 28.1669 14.9133 28.4251 16.681L31.3936 16.2473C31.0305 13.7619 29.7668 11.6498 28.4985 10.261L26.2832 12.2839ZM26.6871 15.0513C26.9113 14.1617 27.436 13.2683 28.4059 12.3768L26.3758 10.1681C25.0533 11.3836 24.1689 12.767 23.778 14.3185L26.6871 15.0513ZM25.1781 16.6197C25.9069 16.4017 26.4938 15.8188 26.6871 15.0513L23.778 14.3185C23.8521 14.0243 24.0713 13.8193 24.3186 13.7454L25.1781 16.6197ZM23.0745 16.1686C23.6554 16.6732 24.4524 16.8366 25.1781 16.6196L24.3186 13.7454C24.5628 13.6724 24.8355 13.7246 25.0416 13.9036L23.0745 16.1686ZM19.922 13.9698C21.0046 14.5537 22.0557 15.2839 23.0745 16.1686L25.0416 13.9036C23.8676 12.884 22.6359 12.025 21.3462 11.3294L19.922 13.9698ZM21.8787 15.7653C21.6388 14.5297 21.7918 13.6941 21.9798 13.3123L19.2885 11.9869C18.7147 13.1519 18.6181 14.7114 18.9336 16.3369L21.8787 15.7653ZM22.7009 18.0873C22.2948 17.3054 22.0228 16.5079 21.8787 15.7653L18.9336 16.3369C19.1341 17.3698 19.5035 18.4399 20.0386 19.4701L22.7009 18.0873ZM24.1576 19.7892C23.6216 19.0735 23.0616 18.3977 22.4701 17.7592L20.2695 19.7982C20.7848 20.3544 21.2782 20.9492 21.7564 21.5877L24.1576 19.7892ZM28.8024 14.8666C25.3467 14.8666 22.3933 17.1341 21.5124 20.2845L24.4016 21.0924C24.9131 19.263 26.6663 17.8666 28.8024 17.8666V14.8666Z" fill="#F8F9FA" mask="url(#path-1-outside-1_50_9203)"/>
<path d="M24.7484 25.4404C21.7036 19.8799 18.421 16.5947 12.6687 14.3193" stroke="#212529" stroke-width="2.4" stroke-linecap="round"/>
<path d="M22.7141 21.8423C19.5986 18.5799 18.9178 13.7824 20.5366 11.9154C21.9882 12.6295 23.3709 13.557 24.6845 14.6979C25.0776 13.1373 26.0426 11.7335 27.5796 10.4863C29.2301 12.0412 31.0785 15.0122 30.8396 18.4272C30.6008 21.8423 25.8296 25.1046 22.7141 21.8423Z" fill="#40C057" stroke="#212529" stroke-width="1.6" stroke-linecap="round" stroke-linejoin="round"/>
<path d="M10.2603 27.1889C11.5216 29.2979 16.418 30.3204 20.6549 28.6061C24.8919 26.8919 23.3523 21.4421 20.1143 20.0571C17.9677 19.1774 15.9417 19.2001 13.9828 21.1568C12.0095 23.1279 11.451 26.1145 10.2603 27.1889Z" fill="#40C057" stroke="#212529" stroke-width="1.6" stroke-linecap="round" stroke-linejoin="round"/>
<path d="M35.2489 25.4409C38.1478 25.4409 40.4978 23.1692 40.4978 20.3669C40.4978 17.5647 38.1478 15.293 35.2489 15.293C32.35 15.293 30 17.5647 30 20.3669C30 23.1692 32.35 25.4409 35.2489 25.4409Z" fill="#BE4BDB" stroke="#212529" stroke-width="1.8"/>
<path d="M28.9502 27.4702C31.8491 27.4702 34.1991 25.1985 34.1991 22.3962C34.1991 19.5939 31.8491 17.3223 28.9502 17.3223C26.0513 17.3223 23.7013 19.5939 23.7013 22.3962C23.7013 25.1985 26.0513 27.4702 28.9502 27.4702Z" fill="#BE4BDB" stroke="#212529" stroke-width="1.8"/>
<path d="M36.2987 32.5444C39.1976 32.5444 41.5476 30.2727 41.5476 27.4704C41.5476 24.6682 39.1976 22.3965 36.2987 22.3965C33.3998 22.3965 31.0498 24.6682 31.0498 27.4704C31.0498 30.2727 33.3998 32.5444 36.2987 32.5444Z" fill="#DA77F2" stroke="#212529" stroke-width="1.8"/>
<path d="M19.5022 39.6479C22.4011 39.6479 24.7511 37.3762 24.7511 34.5739C24.7511 31.7717 22.4011 29.5 19.5022 29.5C16.6033 29.5 14.2533 31.7717 14.2533 34.5739C14.2533 37.3762 16.6033 39.6479 19.5022 39.6479Z" fill="#DA77F2" stroke="#212529" stroke-width="1.8"/>
<path d="M20.552 31.5297C23.4509 31.5297 25.8009 29.258 25.8009 26.4558C25.8009 23.6535 23.4509 21.3818 20.552 21.3818C17.6531 21.3818 15.3031 23.6535 15.3031 26.4558C15.3031 29.258 17.6531 31.5297 20.552 31.5297Z" fill="#DA77F2" stroke="#212529" stroke-width="1.8"/>
<path d="M28.9502 42.6918C31.8491 42.6918 34.1991 40.4202 34.1991 37.6179C34.1991 34.8156 31.8491 32.5439 28.9502 32.5439C26.0513 32.5439 23.7013 34.8156 23.7013 37.6179C23.7013 40.4202 26.0513 42.6918 28.9502 42.6918Z" fill="#DA77F2" stroke="#212529" stroke-width="1.8"/>
<path d="M44.6969 48.7807C47.5958 48.7807 49.9458 46.509 49.9458 43.7068C49.9458 40.9045 47.5958 38.6328 44.6969 38.6328C41.798 38.6328 39.448 40.9045 39.448 43.7068C39.448 46.509 41.798 48.7807 44.6969 48.7807Z" fill="#DA77F2" stroke="#212529" stroke-width="1.8"/>
<g style="mix-blend-mode:multiply">
<path fill-rule="evenodd" clip-rule="evenodd" d="M48.8961 44.9973C48.1959 46.3822 46.6713 47.3422 44.9033 47.3422C42.4721 47.3422 40.5012 45.5269 40.5012 43.2878C40.5012 43.0855 40.5173 42.8867 40.5483 42.6924C40.2857 43.2119 40.139 43.7911 40.139 44.4019C40.139 46.6411 42.1099 48.4563 44.5411 48.4563C46.7528 48.4563 48.5834 46.9542 48.8961 44.9973Z" fill="#DEE2E6"/>
</g>
<path d="M43.6472 39.6479C46.5461 39.6479 48.8961 37.3762 48.8961 34.5739C48.8961 31.7717 46.5461 29.5 43.6472 29.5C40.7483 29.5 38.3983 31.7717 38.3983 34.5739C38.3983 37.3762 40.7483 39.6479 43.6472 39.6479Z" fill="#BE4BDB" stroke="#212529" stroke-width="1.8"/>
<path d="M38.3983 46.7514C41.2972 46.7514 43.6472 44.4797 43.6472 41.6775C43.6472 38.8752 41.2972 36.6035 38.3983 36.6035C35.4994 36.6035 33.1494 38.8752 33.1494 41.6775C33.1494 44.4797 35.4994 46.7514 38.3983 46.7514Z" fill="#BE4BDB" stroke="#212529" stroke-width="1.8"/>
<path d="M36.2987 40.6625C39.1976 40.6625 41.5476 38.3909 41.5476 35.5886C41.5476 32.7863 39.1976 30.5146 36.2987 30.5146C33.3998 30.5146 31.0498 32.7863 31.0498 35.5886C31.0498 38.3909 33.3998 40.6625 36.2987 40.6625Z" fill="#DA77F2" stroke="#212529" stroke-width="1.8"/>
<path d="M27.9005 35.5883C30.7994 35.5883 33.1494 33.3166 33.1494 30.5144C33.1494 27.7121 30.7994 25.4404 27.9005 25.4404C25.0016 25.4404 22.6516 27.7121 22.6516 30.5144C22.6516 33.3166 25.0016 35.5883 27.9005 35.5883Z" fill="#BE4BDB" stroke="#212529" stroke-width="1.8"/>
<g style="mix-blend-mode:multiply">
<path fill-rule="evenodd" clip-rule="evenodd" d="M33.1433 38.6584C32.4431 40.0433 30.9185 41.0033 29.1505 41.0033C26.7193 41.0033 24.7484 39.1881 24.7484 36.9489C24.7484 36.7466 24.7645 36.5478 24.7955 36.3535C24.5329 36.873 24.3862 37.4522 24.3862 38.0631C24.3862 40.3022 26.3571 42.1175 28.7883 42.1175C31 42.1175 32.8306 40.6154 33.1433 38.6584Z" fill="#DEE2E6"/>
</g>
<g style="mix-blend-mode:multiply">
<path fill-rule="evenodd" clip-rule="evenodd" d="M40.4978 36.4358C39.7976 37.8207 38.273 38.7807 36.505 38.7807C34.0738 38.7807 32.1029 36.9654 32.1029 34.7262C32.1029 34.524 32.119 34.3252 32.15 34.1309C31.8874 34.6503 31.7407 35.2296 31.7407 35.8404C31.7407 38.0796 33.7116 39.8948 36.1428 39.8948C38.3544 39.8948 40.1851 38.3927 40.4978 36.4358Z" fill="#DEE2E6"/>
</g>
<g style="mix-blend-mode:multiply">
<path fill-rule="evenodd" clip-rule="evenodd" d="M42.7769 42.6145C42.0767 43.9994 40.5521 44.9594 38.784 44.9594C36.3528 44.9594 34.3819 43.1441 34.3819 40.905C34.3819 40.7027 34.398 40.5039 34.4291 40.3096C34.1664 40.829 34.0198 41.4083 34.0198 42.0191C34.0198 44.2583 35.9907 46.0735 38.4219 46.0735C40.6335 46.0735 42.4642 44.5714 42.7769 42.6145Z" fill="#DEE2E6"/>
</g>
<g style="mix-blend-mode:multiply">
<path fill-rule="evenodd" clip-rule="evenodd" d="M32.2791 31.5461C31.5789 32.931 30.0543 33.891 28.2862 33.891C25.855 33.891 23.8841 32.0758 23.8841 29.8366C23.8841 29.6343 23.9002 29.4355 23.9313 29.2412C23.6686 29.7607 23.522 30.3399 23.522 30.9508C23.522 33.1899 25.4929 35.0052 27.9241 35.0052C30.1357 35.0052 31.9664 33.5031 32.2791 31.5461Z" fill="#DEE2E6"/>
</g>
<g style="mix-blend-mode:multiply">
<path fill-rule="evenodd" clip-rule="evenodd" d="M24.7483 27.2903C24.0481 28.6752 22.5235 29.6351 20.7555 29.6351C18.3243 29.6351 16.3534 27.8199 16.3534 25.5807C16.3534 25.3785 16.3695 25.1797 16.4005 24.9854C16.1379 25.5048 15.9912 26.0841 15.9912 26.6949C15.9912 28.9341 17.9621 30.7493 20.3933 30.7493C22.6049 30.7493 24.4356 29.2472 24.7483 27.2903Z" fill="#DEE2E6"/>
</g>
<g style="mix-blend-mode:multiply">
<path fill-rule="evenodd" clip-rule="evenodd" d="M23.7013 35.7766C23.0011 37.1615 21.4765 38.1215 19.7085 38.1215C17.2773 38.1215 15.3064 36.3062 15.3064 34.0671C15.3064 33.8648 15.3225 33.666 15.3535 33.4717C15.0909 33.9912 14.9442 34.5704 14.9442 35.1812C14.9442 37.4204 16.9151 39.2356 19.3463 39.2356C21.5579 39.2356 23.3886 37.7335 23.7013 35.7766Z" fill="#DEE2E6"/>
</g>
<g style="mix-blend-mode:soft-light" opacity="0.4">
<path d="M30.1473 29.1735C30.2652 28.4069 29.1346 27.8687 28.2902 27.7883C27.2071 27.6853 26.0437 28.6242 26.8292 28.7847C27.2673 28.8742 28.0905 28.8108 28.6305 29.0345C29.3007 29.3121 30.0436 29.848 30.1473 29.1735Z" fill="#F8F9FA"/>
</g>
<g style="mix-blend-mode:soft-light" opacity="0.4">
<path d="M31.1556 20.9157C31.2735 20.1491 30.1429 19.6108 29.2985 19.5305C28.2154 19.4275 27.052 20.3664 27.8375 20.5268C28.2756 20.6163 29.0988 20.553 29.6388 20.7766C30.309 21.0542 31.0519 21.5902 31.1556 20.9157Z" fill="#F8F9FA"/>
</g>
<g style="mix-blend-mode:soft-light" opacity="0.4">
<path d="M38.5715 34.3307C38.6894 33.5642 37.5588 33.0259 36.7143 32.9456C35.6313 32.8426 34.4679 33.7814 35.2534 33.9419C35.6915 34.0314 36.5147 33.968 37.0547 34.1917C37.7249 34.4693 38.4678 35.0052 38.5715 34.3307Z" fill="#F8F9FA"/>
</g>
<g style="mix-blend-mode:soft-light" opacity="0.4">
<path d="M38.5465 25.7314C38.6315 25.1788 37.8165 24.7908 37.2078 24.7329C36.4271 24.6586 35.5884 25.3354 36.1546 25.4511C36.4705 25.5156 37.0638 25.4699 37.4531 25.6311C37.9362 25.8312 38.4717 26.2176 38.5465 25.7314Z" fill="#F8F9FA"/>
</g>
</svg>
