<svg width="60" height="60" viewBox="0 0 60 60" fill="none" xmlns="http://www.w3.org/2000/svg">
<mask id="path-1-outside-1_50_6751" maskUnits="userSpaceOnUse" x="6.02966" y="8.30078" width="48" height="47" fill="black">
<rect fill="white" x="6.02966" y="8.30078" width="48" height="47"/>
<path fill-rule="evenodd" clip-rule="evenodd" d="M19.5399 10.3008C17.3361 10.3008 14.4754 11.1057 12.1513 13.0294C9.79646 14.9785 8.02966 18.0475 8.02966 22.4642C8.02966 26.8591 9.67429 30.0318 12.0853 32.0933C13.0727 32.9375 14.1777 33.5864 15.3331 34.0571L16.282 45.509C16.4029 46.9673 17.6217 48.0893 19.085 48.0893H20.0633C20.0985 48.76 20.0508 49.4702 19.6045 50.0578C19.1065 50.7135 17.9213 51.4433 14.9852 51.4433C14.5567 51.4433 14.2093 51.7907 14.2093 52.2192C14.2093 52.6477 14.5567 52.9951 14.9852 52.9951C18.119 52.9951 19.9103 52.2208 20.8403 50.9964C21.5917 50.007 21.6536 48.874 21.6179 48.0893H22.4105C23.9003 48.0893 25.1317 46.9276 25.2183 45.4403L25.5097 40.4397C25.5181 40.4399 25.5266 40.44 25.535 40.44H26.3086C26.8443 40.44 27.2785 40.0058 27.2785 39.4702V36.9036C27.2785 36.368 26.8443 35.9338 26.3086 35.9338H25.7722L25.8662 34.3197C26.2669 34.24 26.6751 34.1553 27.0888 34.0664C29.7587 33.4926 32.7244 32.7292 35.4865 31.9684C38.2501 31.2072 40.8181 30.4463 42.6947 29.8759C43.6332 29.5906 44.3993 29.3528 44.9311 29.1863C45.1204 29.127 45.28 29.0767 45.4072 29.0365L50.841 30.7079C51.1057 30.7893 51.3934 30.7402 51.6162 30.5757C51.839 30.4111 51.9705 30.1505 51.9705 29.8736V14.6616C51.9705 14.3846 51.839 14.124 51.6162 13.9595C51.3934 13.7949 51.1057 13.7458 50.841 13.8273L45.5809 15.4452L45.4879 15.4212C45.34 15.3833 45.1227 15.3278 44.8441 15.2572C44.287 15.1159 43.4847 14.9142 42.5032 14.6723C40.5405 14.1884 37.8592 13.5431 34.9868 12.8975C32.1156 12.2522 29.0467 11.6052 26.3104 11.1191C23.5929 10.6363 21.1434 10.3008 19.5399 10.3008ZM17.1332 34.6411C18.2127 34.9074 19.3054 35.0341 20.3608 35.0341C21.363 35.0341 22.6499 34.8876 24.0986 34.6452L23.4756 45.3388C23.4427 45.9029 22.9756 46.3436 22.4105 46.3436H19.085C18.53 46.3436 18.0676 45.918 18.0218 45.3649L17.1332 34.6411ZM25.8404 32.5441C26.129 32.4854 26.423 32.4239 26.7219 32.3596C29.3464 31.7956 32.2767 31.0418 35.0229 30.2854C37.7675 29.5294 40.3201 28.7731 42.187 28.2056C43.1202 27.922 43.8816 27.6856 44.4093 27.5203L44.6229 27.4533V17.0021L44.4151 16.9494C43.8612 16.8089 43.0627 16.6082 42.0853 16.3673C40.1303 15.8853 37.4613 15.2429 34.604 14.6007C31.7454 13.9583 28.7049 13.3176 26.0051 12.8379C23.2865 12.3549 20.9732 12.0465 19.5399 12.0465C17.708 12.0465 15.25 12.7308 13.2644 14.3742C11.3094 15.9924 9.77541 18.5687 9.77541 22.4642C9.77541 26.3817 11.2211 29.0575 13.2198 30.7664C13.9406 31.3827 14.7415 31.88 15.5856 32.265C15.7371 32.1485 15.9239 32.084 16.1177 32.084H25.0713C25.3116 32.084 25.5413 32.1831 25.7062 32.3579C25.7594 32.4143 25.8044 32.477 25.8404 32.5441ZM46.3687 27.5058V17.0293L50.2247 15.8433V28.6918L46.3687 27.5058ZM35.8445 22.0981C35.8445 21.7767 36.105 21.5162 36.4264 21.5162H41.0544C41.3758 21.5162 41.6363 21.7767 41.6363 22.0981C41.6363 22.4195 41.3758 22.68 41.0544 22.68H36.4264C36.105 22.68 35.8445 22.4195 35.8445 22.0981Z"/>
</mask>
<path fill-rule="evenodd" clip-rule="evenodd" d="M19.5399 10.3008C17.3361 10.3008 14.4754 11.1057 12.1513 13.0294C9.79646 14.9785 8.02966 18.0475 8.02966 22.4642C8.02966 26.8591 9.67429 30.0318 12.0853 32.0933C13.0727 32.9375 14.1777 33.5864 15.3331 34.0571L16.282 45.509C16.4029 46.9673 17.6217 48.0893 19.085 48.0893H20.0633C20.0985 48.76 20.0508 49.4702 19.6045 50.0578C19.1065 50.7135 17.9213 51.4433 14.9852 51.4433C14.5567 51.4433 14.2093 51.7907 14.2093 52.2192C14.2093 52.6477 14.5567 52.9951 14.9852 52.9951C18.119 52.9951 19.9103 52.2208 20.8403 50.9964C21.5917 50.007 21.6536 48.874 21.6179 48.0893H22.4105C23.9003 48.0893 25.1317 46.9276 25.2183 45.4403L25.5097 40.4397C25.5181 40.4399 25.5266 40.44 25.535 40.44H26.3086C26.8443 40.44 27.2785 40.0058 27.2785 39.4702V36.9036C27.2785 36.368 26.8443 35.9338 26.3086 35.9338H25.7722L25.8662 34.3197C26.2669 34.24 26.6751 34.1553 27.0888 34.0664C29.7587 33.4926 32.7244 32.7292 35.4865 31.9684C38.2501 31.2072 40.8181 30.4463 42.6947 29.8759C43.6332 29.5906 44.3993 29.3528 44.9311 29.1863C45.1204 29.127 45.28 29.0767 45.4072 29.0365L50.841 30.7079C51.1057 30.7893 51.3934 30.7402 51.6162 30.5757C51.839 30.4111 51.9705 30.1505 51.9705 29.8736V14.6616C51.9705 14.3846 51.839 14.124 51.6162 13.9595C51.3934 13.7949 51.1057 13.7458 50.841 13.8273L45.5809 15.4452L45.4879 15.4212C45.34 15.3833 45.1227 15.3278 44.8441 15.2572C44.287 15.1159 43.4847 14.9142 42.5032 14.6723C40.5405 14.1884 37.8592 13.5431 34.9868 12.8975C32.1156 12.2522 29.0467 11.6052 26.3104 11.1191C23.5929 10.6363 21.1434 10.3008 19.5399 10.3008ZM17.1332 34.6411C18.2127 34.9074 19.3054 35.0341 20.3608 35.0341C21.363 35.0341 22.6499 34.8876 24.0986 34.6452L23.4756 45.3388C23.4427 45.9029 22.9756 46.3436 22.4105 46.3436H19.085C18.53 46.3436 18.0676 45.918 18.0218 45.3649L17.1332 34.6411ZM25.8404 32.5441C26.129 32.4854 26.423 32.4239 26.7219 32.3596C29.3464 31.7956 32.2767 31.0418 35.0229 30.2854C37.7675 29.5294 40.3201 28.7731 42.187 28.2056C43.1202 27.922 43.8816 27.6856 44.4093 27.5203L44.6229 27.4533V17.0021L44.4151 16.9494C43.8612 16.8089 43.0627 16.6082 42.0853 16.3673C40.1303 15.8853 37.4613 15.2429 34.604 14.6007C31.7454 13.9583 28.7049 13.3176 26.0051 12.8379C23.2865 12.3549 20.9732 12.0465 19.5399 12.0465C17.708 12.0465 15.25 12.7308 13.2644 14.3742C11.3094 15.9924 9.77541 18.5687 9.77541 22.4642C9.77541 26.3817 11.2211 29.0575 13.2198 30.7664C13.9406 31.3827 14.7415 31.88 15.5856 32.265C15.7371 32.1485 15.9239 32.084 16.1177 32.084H25.0713C25.3116 32.084 25.5413 32.1831 25.7062 32.3579C25.7594 32.4143 25.8044 32.477 25.8404 32.5441ZM46.3687 27.5058V17.0293L50.2247 15.8433V28.6918L46.3687 27.5058ZM35.8445 22.0981C35.8445 21.7767 36.105 21.5162 36.4264 21.5162H41.0544C41.3758 21.5162 41.6363 21.7767 41.6363 22.0981C41.6363 22.4195 41.3758 22.68 41.0544 22.68H36.4264C36.105 22.68 35.8445 22.4195 35.8445 22.0981Z" fill="#F8F9FA"/>
<path d="M12.1513 13.0294L11.1948 11.8739L11.1948 11.8739L12.1513 13.0294ZM12.0853 32.0933L13.0601 30.9532L13.0601 30.9532L12.0853 32.0933ZM15.3331 34.0571L16.8279 33.9332C16.7813 33.3702 16.4222 32.8812 15.899 32.668L15.3331 34.0571ZM16.282 45.509L14.7872 45.6329L16.282 45.509ZM20.0633 48.0893L21.5612 48.0108C21.5194 47.214 20.8612 46.5893 20.0633 46.5893V48.0893ZM19.6045 50.0578L20.799 50.9651L20.799 50.9651L19.6045 50.0578ZM20.8403 50.9964L22.0348 51.9037L22.0348 51.9037L20.8403 50.9964ZM21.6179 48.0893V46.5893C21.2083 46.5893 20.8165 46.7569 20.5335 47.0531C20.2504 47.3492 20.1009 47.7483 20.1195 48.1575L21.6179 48.0893ZM25.2183 45.4403L23.7209 45.3531L23.7209 45.3531L25.2183 45.4403ZM25.5097 40.4397L25.548 38.9402C24.7389 38.9195 24.0593 39.5445 24.0122 40.3525L25.5097 40.4397ZM25.7722 35.9338L24.2747 35.8465C24.2507 36.2588 24.3977 36.6627 24.6811 36.9631C24.9645 37.2635 25.3592 37.4338 25.7722 37.4338V35.9338ZM25.8662 34.3197L25.5736 32.8485C24.9038 32.9818 24.4085 33.5507 24.3688 34.2325L25.8662 34.3197ZM27.0888 34.0664L27.4039 35.5329L27.4039 35.5329L27.0888 34.0664ZM35.4865 31.9684L35.0881 30.5223L35.0881 30.5223L35.4865 31.9684ZM42.6947 29.8759L42.2585 28.4407L42.2585 28.4407L42.6947 29.8759ZM44.9311 29.1863L44.4828 27.7548L44.4828 27.7548L44.9311 29.1863ZM45.4072 29.0365L45.8482 27.6028C45.5571 27.5133 45.2456 27.5144 44.9552 27.6062L45.4072 29.0365ZM50.841 30.7079L51.282 29.2741L51.282 29.2741L50.841 30.7079ZM51.6162 13.9595L50.725 15.166L50.725 15.166L51.6162 13.9595ZM50.841 13.8273L51.282 15.261L51.282 15.261L50.841 13.8273ZM45.5809 15.4452L45.2071 16.8979C45.4753 16.9669 45.7573 16.9603 46.0219 16.8789L45.5809 15.4452ZM45.4879 15.4212L45.8617 13.9686L45.8605 13.9683L45.4879 15.4212ZM44.8441 15.2572L45.2128 13.8032L45.2128 13.8032L44.8441 15.2572ZM42.5032 14.6723L42.1442 16.1287L42.1442 16.1287L42.5032 14.6723ZM34.9868 12.8975L35.3157 11.434L35.3157 11.434L34.9868 12.8975ZM26.3104 11.1191L26.0481 12.5959L26.0481 12.5959L26.3104 11.1191ZM17.1332 34.6411L17.4924 33.1848C17.0235 33.0691 16.5277 33.1863 16.1602 33.4995C15.7927 33.8128 15.5984 34.2838 15.6383 34.765L17.1332 34.6411ZM24.0986 34.6452L25.596 34.7325C25.6226 34.2769 25.4402 33.834 25.1007 33.5291C24.7611 33.2242 24.3012 33.0905 23.851 33.1658L24.0986 34.6452ZM23.4756 45.3388L24.973 45.426L24.973 45.426L23.4756 45.3388ZM18.0218 45.3649L16.5269 45.4887L16.5269 45.4887L18.0218 45.3649ZM26.7219 32.3596L26.4067 30.8931L26.4067 30.8931L26.7219 32.3596ZM25.8404 32.5441L24.5186 33.2533C24.8317 33.8369 25.4905 34.146 26.1394 34.014L25.8404 32.5441ZM35.0229 30.2854L35.4212 31.7315L35.4212 31.7315L35.0229 30.2854ZM42.187 28.2056L41.7507 26.7705L41.7507 26.7705L42.187 28.2056ZM44.4093 27.5203L44.8577 28.9517L44.8584 28.9515L44.4093 27.5203ZM44.6229 27.4533L45.072 28.8845C45.6974 28.6882 46.1229 28.1087 46.1229 27.4533H44.6229ZM44.6229 17.0021H46.1229C46.1229 16.3159 45.6572 15.7172 44.9921 15.5483L44.6229 17.0021ZM44.4151 16.9494L44.7843 15.4955L44.7837 15.4954L44.4151 16.9494ZM42.0853 16.3673L42.4444 14.9109L42.4444 14.9109L42.0853 16.3673ZM34.604 14.6007L34.2751 16.0642L34.2751 16.0642L34.604 14.6007ZM26.0051 12.8379L25.7427 14.3148L25.7427 14.3148L26.0051 12.8379ZM13.2644 14.3742L12.3079 13.2187L12.3079 13.2187L13.2644 14.3742ZM13.2198 30.7664L12.245 31.9065L12.245 31.9065L13.2198 30.7664ZM15.5856 32.265L14.9632 33.6298C15.4685 33.8602 16.0598 33.7926 16.5001 33.4539L15.5856 32.265ZM25.7062 32.3579L26.7973 31.3285L26.7972 31.3285L25.7062 32.3579ZM46.3687 17.0293L45.9277 15.5956C45.2983 15.7892 44.8687 16.3708 44.8687 17.0293H46.3687ZM46.3687 27.5058H44.8687C44.8687 28.1643 45.2983 28.7459 45.9277 28.9395L46.3687 27.5058ZM50.2247 15.8433H51.7247C51.7247 15.3673 51.4988 14.9196 51.1159 14.6367C50.7331 14.3539 50.2387 14.2696 49.7837 14.4096L50.2247 15.8433ZM50.2247 28.6918L49.7837 30.1256C50.2387 30.2655 50.7331 30.1812 51.1159 29.8984C51.4988 29.6156 51.7247 29.1678 51.7247 28.6918H50.2247ZM13.1077 14.1849C15.1409 12.5021 17.6556 11.8008 19.5399 11.8008V8.80078C17.0166 8.80078 13.81 9.70927 11.1948 11.8739L13.1077 14.1849ZM9.52966 22.4642C9.52966 18.4953 11.0964 15.8496 13.1077 14.1849L11.1948 11.8739C8.49647 14.1073 6.52966 17.5996 6.52966 22.4642H9.52966ZM13.0601 30.9532C11.0035 29.1947 9.52966 26.4491 9.52966 22.4642H6.52966C6.52966 27.2691 8.3451 30.8689 11.1105 33.2334L13.0601 30.9532ZM15.899 32.668C14.8799 32.2527 13.9155 31.6846 13.0601 30.9532L11.1105 33.2334C12.2298 34.1904 13.4756 34.92 14.7671 35.4462L15.899 32.668ZM17.7769 45.3852L16.8279 33.9332L13.8382 34.181L14.7872 45.6329L17.7769 45.3852ZM19.085 46.5893C18.4021 46.5893 17.8333 46.0657 17.7769 45.3852L14.7872 45.6329C14.9724 47.8689 16.8413 49.5893 19.085 49.5893V46.5893ZM20.0633 46.5893H19.085V49.5893H20.0633V46.5893ZM20.799 50.9651C21.5815 49.9349 21.6006 48.7622 21.5612 48.0108L18.5654 48.1679C18.5963 48.7578 18.5201 49.0056 18.41 49.1505L20.799 50.9651ZM14.9852 52.9433C18.1149 52.9433 19.8844 52.1693 20.799 50.9651L18.41 49.1505C18.3286 49.2577 17.7278 49.9433 14.9852 49.9433V52.9433ZM15.7093 52.2192C15.7093 52.6191 15.3851 52.9433 14.9852 52.9433V49.9433C13.7282 49.9433 12.7093 50.9623 12.7093 52.2192H15.7093ZM14.9852 51.4951C15.3851 51.4951 15.7093 51.8193 15.7093 52.2192H12.7093C12.7093 53.4761 13.7282 54.4951 14.9852 54.4951V51.4951ZM19.6458 50.0891C19.134 50.7629 17.9298 51.4951 14.9852 51.4951V54.4951C18.3083 54.4951 20.6865 53.6787 22.0348 51.9037L19.6458 50.0891ZM20.1195 48.1575C20.1499 48.8253 20.0768 49.5216 19.6458 50.0891L22.0348 51.9037C23.1066 50.4925 23.1574 48.9227 23.1164 48.0212L20.1195 48.1575ZM22.4105 46.5893H21.6179V49.5893H22.4105V46.5893ZM23.7209 45.3531C23.6804 46.0472 23.1058 46.5893 22.4105 46.5893V49.5893C24.6949 49.5893 26.5829 47.8081 26.7158 45.5276L23.7209 45.3531ZM24.0122 40.3525L23.7209 45.3531L26.7158 45.5276L27.0071 40.527L24.0122 40.3525ZM25.535 38.94C25.5396 38.94 25.5439 38.9401 25.548 38.9402L25.4713 41.9392C25.4923 41.9398 25.5135 41.94 25.535 41.94V38.94ZM26.3086 38.94H25.535V41.94H26.3086V38.94ZM25.7785 39.4702C25.7785 39.1774 26.0159 38.94 26.3086 38.94V41.94C27.6727 41.94 28.7785 40.8343 28.7785 39.4702H25.7785ZM25.7785 36.9036V39.4702H28.7785V36.9036H25.7785ZM26.3086 37.4338C26.0159 37.4338 25.7785 37.1964 25.7785 36.9036H28.7785C28.7785 35.5396 27.6727 34.4338 26.3086 34.4338V37.4338ZM25.7722 37.4338H26.3086V34.4338H25.7722V37.4338ZM24.3688 34.2325L24.2747 35.8465L27.2696 36.021L27.3637 34.407L24.3688 34.2325ZM26.7736 32.5999C26.3667 32.6873 25.966 32.7705 25.5736 32.8485L26.1588 35.7909C26.5678 35.7096 26.9836 35.6233 27.4039 35.5329L26.7736 32.5999ZM35.0881 30.5223C32.3397 31.2793 29.4044 32.0345 26.7736 32.5999L27.4039 35.5329C30.1129 34.9507 33.109 34.1791 35.8848 33.4146L35.0881 30.5223ZM42.2585 28.4407C40.3902 29.0086 37.8355 29.7656 35.0881 30.5223L35.8848 33.4146C38.6648 32.6489 41.246 31.884 43.1309 31.3111L42.2585 28.4407ZM44.4828 27.7548C43.9545 27.9203 43.1924 28.1569 42.2585 28.4407L43.1309 31.3111C44.074 31.0244 44.8442 30.7854 45.3795 30.6177L44.4828 27.7548ZM44.9552 27.6062C44.8292 27.646 44.6708 27.6959 44.4828 27.7548L45.3795 30.6177C45.57 30.558 45.7309 30.5073 45.8592 30.4668L44.9552 27.6062ZM51.282 29.2741L45.8482 27.6028L44.9662 30.4702L50.4 32.1416L51.282 29.2741ZM50.725 29.3691C50.8851 29.2509 51.0917 29.2156 51.282 29.2741L50.4 32.1416C51.1197 32.3629 51.9017 32.2296 52.5074 31.7822L50.725 29.3691ZM50.4705 29.8736C50.4705 29.6746 50.5649 29.4874 50.725 29.3691L52.5074 31.7822C53.1131 31.3348 53.4705 30.6265 53.4705 29.8736H50.4705ZM50.4705 14.6616V29.8736H53.4705V14.6616H50.4705ZM50.725 15.166C50.5649 15.0478 50.4705 14.8606 50.4705 14.6616H53.4705C53.4705 13.9086 53.1131 13.2003 52.5074 12.7529L50.725 15.166ZM51.282 15.261C51.0917 15.3195 50.8851 15.2842 50.725 15.166L52.5074 12.7529C51.9017 12.3056 51.1197 12.1722 50.4 12.3936L51.282 15.261ZM46.0219 16.8789L51.282 15.261L50.4 12.3936L45.14 14.0115L46.0219 16.8789ZM45.114 16.8739L45.2071 16.8979L45.9548 13.9925L45.8617 13.9686L45.114 16.8739ZM44.4755 16.7112C44.7526 16.7814 44.9686 16.8366 45.1152 16.8742L45.8605 13.9683C45.7114 13.93 45.4927 13.8742 45.2128 13.8032L44.4755 16.7112ZM42.1442 16.1287C43.1221 16.3697 43.9211 16.5706 44.4755 16.7112L45.2128 13.8032C44.6528 13.6612 43.8474 13.4587 42.8622 13.2159L42.1442 16.1287ZM34.6579 14.361C37.5173 15.0036 40.188 15.6464 42.1442 16.1287L42.8622 13.2159C40.8929 12.7304 38.2011 12.0825 35.3157 11.434L34.6579 14.361ZM26.0481 12.5959C28.753 13.0765 31.7975 13.7181 34.6579 14.361L35.3157 11.434C32.4338 10.7863 29.3404 10.1339 26.5728 9.6422L26.0481 12.5959ZM19.5399 11.8008C20.9972 11.8008 23.3298 12.113 26.0481 12.5959L26.5728 9.6422C23.8559 9.15951 21.2895 8.80078 19.5399 8.80078V11.8008ZM20.3608 33.5341C19.4241 33.5341 18.4521 33.4215 17.4924 33.1848L16.774 36.0975C17.9734 36.3933 19.1868 36.5341 20.3608 36.5341V33.5341ZM23.851 33.1658C22.4316 33.4033 21.2399 33.5341 20.3608 33.5341V36.5341C21.4861 36.5341 22.8681 36.3719 24.3461 36.1247L23.851 33.1658ZM24.973 45.426L25.596 34.7325L22.6011 34.558L21.9781 45.2516L24.973 45.426ZM22.4105 47.8436C23.7702 47.8436 24.8939 46.7834 24.973 45.426L21.9781 45.2516C21.9914 45.0225 22.1811 44.8436 22.4105 44.8436V47.8436ZM19.085 47.8436H22.4105V44.8436H19.085V47.8436ZM16.5269 45.4887C16.6372 46.8196 17.7496 47.8436 19.085 47.8436V44.8436C19.3104 44.8436 19.4981 45.0164 19.5167 45.241L16.5269 45.4887ZM15.6383 34.765L16.5269 45.4887L19.5167 45.241L18.6281 34.5173L15.6383 34.765ZM26.4067 30.8931C26.1129 30.9563 25.8243 31.0167 25.5414 31.0742L26.1394 34.014C26.4337 33.9542 26.7332 33.8915 27.0371 33.8261L26.4067 30.8931ZM34.6246 28.8392C31.8921 29.5918 28.9921 30.3375 26.4067 30.8931L27.0371 33.8261C29.7006 33.2537 32.6613 32.4917 35.4212 31.7315L34.6246 28.8392ZM41.7507 26.7705C39.8922 27.3354 37.3529 28.0877 34.6246 28.8392L35.4212 31.7315C38.1822 30.971 40.748 30.2108 42.6232 29.6408L41.7507 26.7705ZM43.9609 26.0889C43.4367 26.2531 42.6794 26.4882 41.7507 26.7705L42.6232 29.6408C43.561 29.3557 44.3264 29.1182 44.8577 28.9517L43.9609 26.0889ZM44.1738 26.0221L43.9602 26.0891L44.8584 28.9515L45.072 28.8845L44.1738 26.0221ZM43.1229 17.0021V27.4533H46.1229V17.0021H43.1229ZM44.0459 18.4032L44.2537 18.456L44.9921 15.5483L44.7843 15.4955L44.0459 18.4032ZM41.7263 17.8237C42.7 18.0637 43.4953 18.2636 44.0464 18.4034L44.7837 15.4954C44.227 15.3542 43.4253 15.1527 42.4444 14.9109L41.7263 17.8237ZM34.2751 16.0642C37.1194 16.7035 39.7779 17.3433 41.7263 17.8237L42.4444 14.9109C40.4827 14.4273 37.8032 13.7823 34.9329 13.1373L34.2751 16.0642ZM25.7427 14.3148C28.4112 14.7889 31.4272 15.4242 34.2751 16.0642L34.9329 13.1373C32.0635 12.4924 28.9986 11.8463 26.2675 11.361L25.7427 14.3148ZM19.5399 13.5465C20.8269 13.5465 23.0231 13.8316 25.7427 14.3148L26.2675 11.361C23.55 10.8782 21.1195 10.5465 19.5399 10.5465V13.5465ZM14.2208 15.5298C15.9155 14.127 18.0277 13.5465 19.5399 13.5465V10.5465C17.3883 10.5465 14.5844 11.3345 12.3079 13.2187L14.2208 15.5298ZM11.2754 22.4642C11.2754 19.0165 12.6094 16.8635 14.2208 15.5298L12.3079 13.2187C10.0094 15.1212 8.27541 18.1208 8.27541 22.4642H11.2754ZM14.1946 29.6264C12.5501 28.2202 11.2754 25.9714 11.2754 22.4642H8.27541C8.27541 26.792 9.89216 29.8948 12.245 31.9065L14.1946 29.6264ZM16.208 30.9002C15.4814 30.5689 14.801 30.1449 14.1946 29.6264L12.245 31.9065C13.0801 32.6205 14.0015 33.1912 14.9632 33.6298L16.208 30.9002ZM16.1177 30.584C15.5906 30.584 15.0828 30.7593 14.6711 31.076L16.5001 33.4539C16.3913 33.5376 16.2571 33.584 16.1177 33.584V30.584ZM25.0713 30.584H16.1177V33.584H25.0713V30.584ZM26.7972 31.3285C26.3489 30.8533 25.7246 30.584 25.0713 30.584V33.584C24.8986 33.584 24.7336 33.5128 24.6151 33.3872L26.7972 31.3285ZM27.1622 31.835C27.0642 31.6525 26.942 31.4819 26.7973 31.3285L24.6151 33.3872C24.5769 33.3467 24.5445 33.3016 24.5186 33.2533L27.1622 31.835ZM44.8687 17.0293V27.5058H47.8687V17.0293H44.8687ZM49.7837 14.4096L45.9277 15.5956L46.8097 18.4631L50.6657 17.277L49.7837 14.4096ZM51.7247 28.6918V15.8433H48.7247V28.6918H51.7247ZM45.9277 28.9395L49.7837 30.1256L50.6657 27.2581L46.8097 26.0721L45.9277 28.9395ZM36.4264 20.0162C35.2766 20.0162 34.3445 20.9483 34.3445 22.0981H37.3445C37.3445 22.6051 36.9335 23.0162 36.4264 23.0162V20.0162ZM41.0544 20.0162H36.4264V23.0162H41.0544V20.0162ZM43.1363 22.0981C43.1363 20.9483 42.2042 20.0162 41.0544 20.0162V23.0162C40.5473 23.0162 40.1363 22.6051 40.1363 22.0981H43.1363ZM41.0544 24.18C42.2042 24.18 43.1363 23.2479 43.1363 22.0981H40.1363C40.1363 21.591 40.5473 21.18 41.0544 21.18V24.18ZM36.4264 24.18H41.0544V21.18H36.4264V24.18ZM34.3445 22.0981C34.3445 23.2479 35.2766 24.18 36.4264 24.18V21.18C36.9335 21.18 37.3445 21.591 37.3445 22.0981H34.3445Z" fill="#F8F9FA" mask="url(#path-1-outside-1_50_6751)"/>
<path d="M16.1177 32.9595H25.0712L24.3502 45.3354C24.2886 46.393 23.413 47.2191 22.3536 47.2191H19.1404C18.0999 47.2191 17.2332 46.4212 17.1473 45.3843L16.1177 32.9595Z" fill="#F1F3F5" stroke="#212529" stroke-width="1.8" stroke-linejoin="round"/>
<path d="M19.5398 11.1763C25.6133 11.1763 45.4957 16.3272 45.4957 16.3272V28.0951C45.4957 28.0951 26.5644 34.1639 20.3608 34.1639C15.0831 34.1639 8.90247 30.7792 8.90247 22.4668C8.90247 14.1545 15.5041 11.1763 19.5398 11.1763Z" fill="#FFA8A8" stroke="#212529" stroke-width="1.8" stroke-linejoin="round"/>
<circle cx="20.4173" cy="22.6703" r="7.03606" fill="#FFF5F5" stroke="#212529" stroke-width="1.4" stroke-linejoin="round"/>
<g style="mix-blend-mode:multiply">
<circle cx="20.4173" cy="22.6701" r="4.07538" fill="#FFE3E3"/>
</g>
<rect x="24.5651" y="35.9365" width="2.71332" height="4.50629" rx="1" fill="#212529"/>
<path d="M45.4957 16.3871L51.0975 14.6641V29.8761L45.4957 28.153V16.3871Z" fill="#FFA8A8" stroke="#212529" stroke-width="1.8" stroke-linejoin="round"/>
<path d="M41.0543 22.1006H36.4264" stroke="#212529" stroke-width="1.2" stroke-linecap="round" stroke-linejoin="round"/>
<path d="M20.8145 47.7095C20.9379 49.2136 21.0551 52.2218 14.9851 52.2218" stroke="#212529" stroke-width="1.6" stroke-linecap="round" stroke-linejoin="round"/>
<g style="mix-blend-mode:multiply">
<path fill-rule="evenodd" clip-rule="evenodd" d="M11.4622 15.2807C9.94843 17.0477 8.90246 19.5113 8.90246 22.82C8.90246 31.1323 15.0831 34.517 20.3608 34.517C26.5644 34.517 45.4957 28.4483 45.4957 28.4483V26.952C41.1363 28.308 26.8709 32.6173 21.6433 32.6173C16.3657 32.6173 10.185 29.2326 10.185 20.9203C10.185 18.6627 10.6719 16.7986 11.4622 15.2807Z" fill="#DEE2E6"/>
</g>
<g style="mix-blend-mode:multiply">
<path d="M23.1945 34.2246H24.2044L23.4501 46.6467H22.3303L23.1945 34.2246Z" fill="#DEE2E6"/>
</g>
</svg>
