<svg width="60" height="60" viewBox="0 0 60 60" fill="none" xmlns="http://www.w3.org/2000/svg">
<mask id="path-1-outside-1_694_5093" maskUnits="userSpaceOnUse" x="5.88672" y="11.6006" width="50" height="37" fill="black">
<rect fill="white" x="5.88672" y="11.6006" width="50" height="37"/>
<path fill-rule="evenodd" clip-rule="evenodd" d="M13.7403 13.6838C14.3967 13.5368 15.1061 13.5622 15.7186 13.9418C17.7112 15.1767 19.3163 16.6609 20.8913 18.2915C21.5138 18.9359 22.1204 19.5906 22.7425 20.2619L22.7426 20.262L22.7427 20.2622L22.7428 20.2623L22.7428 20.2623C23.7225 21.3196 24.7407 22.4185 25.9198 23.5842C30.2043 27.8199 36.4163 34.4735 37.4524 35.5859L50.9394 39.3311C52.4929 39.7625 53.568 41.1768 53.568 42.7891C53.568 44.7704 51.9642 46.378 49.9813 46.378H33.6047C31.9132 46.378 30.4286 45.2987 29.032 43.9099C28.042 42.9254 26.9973 41.6788 25.8782 40.3434L25.8782 40.3434L25.878 40.3431L25.8779 40.343C25.406 39.7799 24.9209 39.2011 24.4211 38.6194C22.1999 36.0345 19.5969 33.2797 16.2608 31.1142L15.3995 43.2883C15.6405 43.5615 15.7868 43.9203 15.7868 44.3133V45.126C15.7868 45.9819 15.093 46.6757 14.2371 46.6757H12.1887C11.3328 46.6757 10.6389 45.9819 10.6389 45.126V44.3133C10.6389 43.8533 10.8394 43.4401 11.1577 43.1563V28.5738C10.8326 28.4574 10.5019 28.347 10.1653 28.2428C9.24785 27.9589 8.46542 27.2143 8.28139 26.1846C8.11609 25.2598 7.91753 23.8805 7.89 22.4617C7.86295 21.0672 7.99734 19.524 8.58015 18.3405C9.3296 16.8186 10.5404 15.4575 11.7906 14.5935C12.4161 14.1613 13.0844 13.8307 13.7403 13.6838ZM25.5964 37.6094C23.1968 34.8168 20.2684 31.7177 16.3847 29.3628L16.5422 27.137C16.5754 26.6673 16.2297 26.2562 15.7614 26.2083L12.1181 25.8354C11.6043 25.7828 11.1577 26.1861 11.1577 26.7026V26.9341C10.9812 26.8752 10.8031 26.8179 10.6234 26.7624C10.1754 26.6237 9.87437 26.2893 9.80693 25.912C9.64909 25.0288 9.46477 23.7376 9.43943 22.4317C9.41362 21.1015 9.55635 19.866 9.97043 19.0251C10.6017 17.7432 11.6358 16.5842 12.6716 15.8685C13.0642 15.5972 13.4381 15.4028 13.7724 15.2851C13.7946 15.3354 13.8182 15.3836 13.8418 15.429C14.0242 15.78 14.3295 16.1935 14.6389 16.5756C15.2613 17.3446 15.9876 18.0924 16.0735 18.1804L16.0856 18.193L27.5379 30.3798L27.5483 30.3905L35.8199 38.6642C36.0593 38.9036 36.3716 39.0495 36.7037 39.0848C38.1742 39.2412 39.9082 39.5314 41.7158 39.8405L42.1168 39.9092C43.7929 40.1962 45.5156 40.4913 47.1103 40.6973C47.4398 40.7399 47.7503 40.7044 48.0054 40.5725C48.161 40.4919 48.2935 40.3752 48.3847 40.23L50.5248 40.8243C51.4074 41.0694 52.0183 41.873 52.0183 42.7891C52.0183 43.9161 51.1068 44.8283 49.9813 44.8283H33.6047C32.5796 44.8283 31.4868 44.1655 30.1248 42.811C29.1869 41.8783 28.2148 40.7183 27.1206 39.4123L27.1204 39.4122L27.1202 39.412C26.6385 38.837 26.1331 38.2339 25.5964 37.6094ZM14.8459 15.2281C14.8659 15.2378 14.8847 15.2482 14.9023 15.2591C16.7366 16.3959 18.2387 17.7759 19.7767 19.3681C20.3513 19.963 20.942 20.6 21.5593 21.2657L21.5593 21.2657C22.5642 22.3494 23.6394 23.509 24.8303 24.6862C29.356 29.1605 36.0632 36.3675 36.4495 36.783L36.4496 36.783C36.571 36.9136 36.7156 36.9896 36.8533 37.0279L45.9729 39.5603C44.7691 39.3807 43.5163 39.1662 42.2759 38.9537L41.879 38.8858C40.0771 38.5777 38.3125 38.2819 36.8061 38.1217C36.6898 38.1093 36.5844 38.0589 36.5049 37.9794L28.2386 29.711L16.7883 17.5264L16.7714 17.5088L16.7681 17.5054C16.6944 17.4299 15.9887 16.7037 15.3917 15.9662C15.1765 15.7004 14.9863 15.4462 14.8459 15.2281ZM12.7074 27.4535V27.5081C13.4654 27.8172 14.1925 28.1565 14.8907 28.5208L14.95 27.683L12.7074 27.4535ZM14.7707 30.2164C14.1107 29.8488 13.4237 29.5053 12.7074 29.1908V42.7636H13.883L14.7707 30.2164ZM13.8008 43.9259L13.7356 44.8471L12.7074 44.8743V43.9259H13.8008Z"/>
</mask>
<path fill-rule="evenodd" clip-rule="evenodd" d="M13.7403 13.6838C14.3967 13.5368 15.1061 13.5622 15.7186 13.9418C17.7112 15.1767 19.3163 16.6609 20.8913 18.2915C21.5138 18.9359 22.1204 19.5906 22.7425 20.2619L22.7426 20.262L22.7427 20.2622L22.7428 20.2623L22.7428 20.2623C23.7225 21.3196 24.7407 22.4185 25.9198 23.5842C30.2043 27.8199 36.4163 34.4735 37.4524 35.5859L50.9394 39.3311C52.4929 39.7625 53.568 41.1768 53.568 42.7891C53.568 44.7704 51.9642 46.378 49.9813 46.378H33.6047C31.9132 46.378 30.4286 45.2987 29.032 43.9099C28.042 42.9254 26.9973 41.6788 25.8782 40.3434L25.8782 40.3434L25.878 40.3431L25.8779 40.343C25.406 39.7799 24.9209 39.2011 24.4211 38.6194C22.1999 36.0345 19.5969 33.2797 16.2608 31.1142L15.3995 43.2883C15.6405 43.5615 15.7868 43.9203 15.7868 44.3133V45.126C15.7868 45.9819 15.093 46.6757 14.2371 46.6757H12.1887C11.3328 46.6757 10.6389 45.9819 10.6389 45.126V44.3133C10.6389 43.8533 10.8394 43.4401 11.1577 43.1563V28.5738C10.8326 28.4574 10.5019 28.347 10.1653 28.2428C9.24785 27.9589 8.46542 27.2143 8.28139 26.1846C8.11609 25.2598 7.91753 23.8805 7.89 22.4617C7.86295 21.0672 7.99734 19.524 8.58015 18.3405C9.3296 16.8186 10.5404 15.4575 11.7906 14.5935C12.4161 14.1613 13.0844 13.8307 13.7403 13.6838ZM25.5964 37.6094C23.1968 34.8168 20.2684 31.7177 16.3847 29.3628L16.5422 27.137C16.5754 26.6673 16.2297 26.2562 15.7614 26.2083L12.1181 25.8354C11.6043 25.7828 11.1577 26.1861 11.1577 26.7026V26.9341C10.9812 26.8752 10.8031 26.8179 10.6234 26.7624C10.1754 26.6237 9.87437 26.2893 9.80693 25.912C9.64909 25.0288 9.46477 23.7376 9.43943 22.4317C9.41362 21.1015 9.55635 19.866 9.97043 19.0251C10.6017 17.7432 11.6358 16.5842 12.6716 15.8685C13.0642 15.5972 13.4381 15.4028 13.7724 15.2851C13.7946 15.3354 13.8182 15.3836 13.8418 15.429C14.0242 15.78 14.3295 16.1935 14.6389 16.5756C15.2613 17.3446 15.9876 18.0924 16.0735 18.1804L16.0856 18.193L27.5379 30.3798L27.5483 30.3905L35.8199 38.6642C36.0593 38.9036 36.3716 39.0495 36.7037 39.0848C38.1742 39.2412 39.9082 39.5314 41.7158 39.8405L42.1168 39.9092C43.7929 40.1962 45.5156 40.4913 47.1103 40.6973C47.4398 40.7399 47.7503 40.7044 48.0054 40.5725C48.161 40.4919 48.2935 40.3752 48.3847 40.23L50.5248 40.8243C51.4074 41.0694 52.0183 41.873 52.0183 42.7891C52.0183 43.9161 51.1068 44.8283 49.9813 44.8283H33.6047C32.5796 44.8283 31.4868 44.1655 30.1248 42.811C29.1869 41.8783 28.2148 40.7183 27.1206 39.4123L27.1204 39.4122L27.1202 39.412C26.6385 38.837 26.1331 38.2339 25.5964 37.6094ZM14.8459 15.2281C14.8659 15.2378 14.8847 15.2482 14.9023 15.2591C16.7366 16.3959 18.2387 17.7759 19.7767 19.3681C20.3513 19.963 20.942 20.6 21.5593 21.2657L21.5593 21.2657C22.5642 22.3494 23.6394 23.509 24.8303 24.6862C29.356 29.1605 36.0632 36.3675 36.4495 36.783L36.4496 36.783C36.571 36.9136 36.7156 36.9896 36.8533 37.0279L45.9729 39.5603C44.7691 39.3807 43.5163 39.1662 42.2759 38.9537L41.879 38.8858C40.0771 38.5777 38.3125 38.2819 36.8061 38.1217C36.6898 38.1093 36.5844 38.0589 36.5049 37.9794L28.2386 29.711L16.7883 17.5264L16.7714 17.5088L16.7681 17.5054C16.6944 17.4299 15.9887 16.7037 15.3917 15.9662C15.1765 15.7004 14.9863 15.4462 14.8459 15.2281ZM12.7074 27.4535V27.5081C13.4654 27.8172 14.1925 28.1565 14.8907 28.5208L14.95 27.683L12.7074 27.4535ZM14.7707 30.2164C14.1107 29.8488 13.4237 29.5053 12.7074 29.1908V42.7636H13.883L14.7707 30.2164ZM13.8008 43.9259L13.7356 44.8471L12.7074 44.8743V43.9259H13.8008Z" fill="#F8F9FA"/>
<path d="M15.7186 13.9418L16.5088 12.6668L16.5088 12.6668L15.7186 13.9418ZM13.7403 13.6838L14.0681 15.1476L13.7403 13.6838ZM20.8913 18.2915L21.9702 17.2494L21.9702 17.2494L20.8913 18.2915ZM22.7425 20.2621L21.6423 21.2816C21.646 21.2856 21.6498 21.2897 21.6536 21.2937L22.7425 20.2621ZM22.7426 20.2621L23.842 19.2417C23.8385 19.238 23.835 19.2342 23.8315 19.2305L22.7426 20.2621ZM22.7427 20.2622L23.8449 19.2448L23.8421 19.2418L22.7427 20.2622ZM22.7427 20.2622L21.6405 21.2796L21.6424 21.2817L22.7427 20.2622ZM25.9198 23.5842L24.8652 24.6509L25.9198 23.5842ZM37.4523 35.5859L36.3547 36.6082C36.5434 36.8108 36.7843 36.9571 37.051 37.0312L37.4523 35.5859ZM50.9394 39.3311L51.3407 37.8858L50.9394 39.3311ZM29.032 43.9099L27.9743 44.9735L29.032 43.9099ZM25.8783 40.3436L24.7204 41.2972L24.7287 41.307L25.8783 40.3436ZM25.8782 40.3434L27.0361 39.3898L27.0305 39.3831L25.8782 40.3434ZM25.878 40.3431L27.0303 39.3829L27.0253 39.3769L25.878 40.3431ZM25.8779 40.343L24.7282 41.3065L24.7305 41.3092L25.8779 40.343ZM24.421 38.6194L23.2834 39.597L24.421 38.6194ZM16.2608 31.1142L17.0775 29.8561C16.6321 29.567 16.0671 29.5349 15.5919 29.7716C15.1166 30.0084 14.802 30.4787 14.7645 31.0084L16.2608 31.1142ZM15.3994 43.2884L13.9032 43.1825C13.8748 43.5836 14.0087 43.9793 14.2747 44.2808L15.3994 43.2884ZM11.1576 43.1563L12.1559 44.2758C12.4751 43.9912 12.6576 43.5839 12.6576 43.1563H11.1576ZM11.1576 28.5738H12.6576C12.6576 27.9404 12.2597 27.3752 11.6633 27.1617L11.1576 28.5738ZM10.1653 28.2428L10.6087 26.8099L10.6087 26.8099L10.1653 28.2428ZM8.28135 26.1847L9.75795 25.9207H9.75795L8.28135 26.1847ZM7.88997 22.4617L9.38969 22.4326L7.88997 22.4617ZM8.58011 18.3405L9.9258 19.0032L8.58011 18.3405ZM11.7906 14.5936L12.6433 15.8276H12.6433L11.7906 14.5936ZM16.3847 29.3628L14.8884 29.2569C14.8487 29.8178 15.1261 30.3538 15.6069 30.6454L16.3847 29.3628ZM25.5964 37.6094L26.7341 36.6318L26.7341 36.6318L25.5964 37.6094ZM16.5422 27.137L15.0459 27.0311L15.0459 27.0311L16.5422 27.137ZM15.7614 26.2083L15.6086 27.7005L15.6086 27.7005L15.7614 26.2083ZM12.1181 25.8354L11.9654 27.3276L12.1181 25.8354ZM11.1576 26.9341L10.6828 28.357C11.1402 28.5097 11.6432 28.4331 12.0345 28.1512C12.4258 27.8693 12.6576 27.4164 12.6576 26.9341H11.1576ZM10.6234 26.7624L10.18 28.1953L10.18 28.1953L10.6234 26.7624ZM9.80689 25.912L8.33029 26.1759L8.33029 26.1759L9.80689 25.912ZM9.43939 22.4317L10.9391 22.4026L9.43939 22.4317ZM9.9704 19.0251L8.62471 18.3625H8.62471L9.9704 19.0251ZM12.6716 15.8685L13.5243 17.1025L13.5243 17.1025L12.6716 15.8685ZM13.7724 15.2851L15.1445 14.679C14.8279 13.9625 14.0133 13.6101 13.2744 13.8702L13.7724 15.2851ZM13.8418 15.429L15.1729 14.7374L15.1729 14.7374L13.8418 15.429ZM14.6389 16.5757L15.8047 15.6319L15.8047 15.6319L14.6389 16.5757ZM16.0734 18.1804L17.1567 17.1429C17.1535 17.1395 17.1502 17.1361 17.1469 17.1327L16.0734 18.1804ZM16.0855 18.193L17.1786 17.1658C17.1754 17.1624 17.1721 17.1589 17.1688 17.1555L16.0855 18.193ZM27.5378 30.3798L26.4447 31.407C26.45 31.4126 26.4554 31.4182 26.4608 31.4238L27.5378 30.3798ZM27.5483 30.3905L26.4712 31.4346C26.4766 31.4401 26.482 31.4456 26.4875 31.4511L27.5483 30.3905ZM35.8199 38.6642L36.8807 37.6037L36.8807 37.6037L35.8199 38.6642ZM36.7037 39.0849L36.5451 40.5764L36.5451 40.5764L36.7037 39.0849ZM41.7157 39.8405L41.9688 38.362L41.9686 38.362L41.7157 39.8405ZM42.1168 39.9092L42.37 38.4307L42.3699 38.4307L42.1168 39.9092ZM47.1102 40.6973L47.3024 39.2097L47.1102 40.6973ZM48.0054 40.5725L47.3162 39.2402L47.3162 39.2402L48.0054 40.5725ZM48.3847 40.23L48.786 38.7847C48.1469 38.6073 47.4672 38.8705 47.1144 39.4322L48.3847 40.23ZM50.5247 40.8243L50.1234 42.2696L50.5247 40.8243ZM30.1248 42.8111L29.0671 43.8747L30.1248 42.8111ZM27.1205 39.4124L28.2703 38.4489L28.2624 38.4397L27.1205 39.4124ZM27.1204 39.4122L25.9658 40.3697C25.97 40.3748 25.9742 40.3799 25.9785 40.3849L27.1204 39.4122ZM27.1202 39.412L28.2749 38.4545L28.2699 38.4486L27.1202 39.412ZM14.9022 15.2591L14.112 16.5341L14.112 16.5341L14.9022 15.2591ZM14.8458 15.2281L15.4988 13.8777C14.8937 13.5852 14.168 13.7307 13.7226 14.234C13.2772 14.7372 13.2209 15.4753 13.5847 16.0403L14.8458 15.2281ZM19.7766 19.3682L18.6978 20.4103L18.6978 20.4103L19.7766 19.3682ZM21.559 21.2655L22.6593 20.246L22.6589 20.2455L21.559 21.2655ZM21.5592 21.2657L22.6614 20.2482L22.6595 20.2462L21.5592 21.2657ZM21.5592 21.2657L22.6631 20.2501L22.6614 20.2483L21.5592 21.2657ZM21.5593 21.2658L22.6881 20.278C22.6799 20.2686 22.6716 20.2594 22.6632 20.2502L21.5593 21.2658ZM21.5593 21.2658L20.4304 22.2536C20.4399 22.2644 20.4496 22.2751 20.4594 22.2857L21.5593 21.2658ZM24.8302 24.6862L23.7756 25.7529V25.7529L24.8302 24.6862ZM36.4495 36.783L35.351 37.8045L35.359 37.813L36.4495 36.783ZM36.4495 36.7831L37.548 35.7615L37.54 35.7531L36.4495 36.7831ZM36.8533 37.0279L37.2546 35.5826L37.2546 35.5826L36.8533 37.0279ZM45.9729 39.5603L45.7516 41.0439C46.5356 41.1608 47.2753 40.6476 47.4401 39.8722C47.6049 39.0968 47.138 38.3271 46.3743 38.115L45.9729 39.5603ZM42.2758 38.9538L42.529 37.4753L42.5289 37.4753L42.2758 38.9538ZM41.879 38.8858L42.1321 37.4073L42.1319 37.4073L41.879 38.8858ZM36.8061 38.1217L36.6475 39.6133L36.6475 39.6133L36.8061 38.1217ZM36.5049 37.9794L35.4441 39.0399L35.4441 39.04L36.5049 37.9794ZM28.2385 29.711L27.1454 30.7382C27.156 30.7495 27.1668 30.7606 27.1777 30.7716L28.2385 29.711ZM16.7882 17.5264L17.8814 16.4992L17.8725 16.49L16.7882 17.5264ZM16.7714 17.5088L17.8557 16.4723C17.852 16.4685 17.8483 16.4647 17.8446 16.4608L16.7714 17.5088ZM16.7681 17.5054L17.8413 16.4575L17.8412 16.4574L16.7681 17.5054ZM15.3917 15.9663L16.5576 15.0225V15.0225L15.3917 15.9663ZM12.7073 27.5081H11.2073C11.2073 28.1177 11.5764 28.6668 12.1409 28.897L12.7073 27.5081ZM12.7073 27.4535L12.86 25.9613C12.4379 25.9181 12.0171 26.0558 11.7021 26.3402C11.3871 26.6246 11.2073 27.0291 11.2073 27.4535H12.7073ZM14.8907 28.5208L14.1968 29.8507C14.6451 30.0845 15.1811 30.0768 15.6225 29.8301C16.0638 29.5835 16.3512 29.131 16.3869 28.6266L14.8907 28.5208ZM14.9499 27.683L16.4462 27.7889C16.5034 26.9808 15.9085 26.2733 15.1026 26.1908L14.9499 27.683ZM12.7073 29.1908L13.3105 27.8174C12.8466 27.6137 12.3113 27.6579 11.8872 27.9349C11.463 28.2118 11.2073 28.6842 11.2073 29.1908H12.7073ZM14.7707 30.2164L16.267 30.3223C16.308 29.7414 16.0093 29.1893 15.5005 28.9059L14.7707 30.2164ZM12.7073 42.7636H11.2073C11.2073 43.592 11.8789 44.2636 12.7073 44.2636V42.7636ZM13.883 42.7636V44.2636C14.6703 44.2636 15.3237 43.6548 15.3792 42.8694L13.883 42.7636ZM13.7356 44.8471L13.7752 46.3466C14.5471 46.3262 15.1773 45.7232 15.2318 44.953L13.7356 44.8471ZM13.8007 43.9259L15.297 44.0317C15.3264 43.6166 15.1819 43.2078 14.8982 42.9033C14.6145 42.5988 14.217 42.4259 13.8007 42.4259V43.9259ZM12.7073 44.8744H11.2073C11.2073 45.2791 11.3709 45.6666 11.6608 45.949C11.9507 46.2313 12.3425 46.3845 12.747 46.3738L12.7073 44.8744ZM12.7073 43.9259V42.4259C11.8789 42.4259 11.2073 43.0974 11.2073 43.9259H12.7073ZM16.5088 12.6668C15.4572 12.0151 14.3108 12.0189 13.4125 12.2201L14.0681 15.1476C14.4825 15.0548 14.755 15.1093 14.9284 15.2168L16.5088 12.6668ZM21.9702 17.2494C20.3594 15.5818 18.6546 13.9967 16.5088 12.6668L14.9284 15.2168C16.7679 16.3568 18.2732 17.7402 19.8124 19.3336L21.9702 17.2494ZM23.8428 19.2426C23.2225 18.5731 22.6053 17.9069 21.9702 17.2494L19.8124 19.3336C20.4223 19.965 21.0183 20.6082 21.6423 21.2816L23.8428 19.2426ZM23.8315 19.2305L23.8315 19.2305L21.6536 21.2937L21.6537 21.2937L23.8315 19.2305ZM23.8421 19.2418L23.842 19.2417L21.6431 21.2825L21.6432 21.2826L23.8421 19.2418ZM23.8449 19.2448L23.8449 19.2448L21.6404 21.2796L21.6405 21.2796L23.8449 19.2448ZM26.9743 22.5175C25.8217 21.378 24.8245 20.302 23.8429 19.2427L21.6424 21.2817C22.6203 22.3371 23.6595 23.4589 24.8652 24.6509L26.9743 22.5175ZM38.55 34.5635C37.5171 33.4546 31.2843 26.7784 26.9743 22.5175L24.8652 24.6509C29.1241 28.8614 35.3155 35.4925 36.3547 36.6082L38.55 34.5635ZM51.3407 37.8858L37.8537 34.1406L37.051 37.0312L50.538 40.7764L51.3407 37.8858ZM55.068 42.7891C55.068 40.503 53.5435 38.4975 51.3407 37.8858L50.538 40.7764C51.4422 41.0275 52.068 41.8507 52.068 42.7891H55.068ZM49.9813 47.878C52.7942 47.878 55.068 45.5973 55.068 42.7891H52.068C52.068 43.9436 51.1341 44.878 49.9813 44.878V47.878ZM33.6047 47.878H49.9813V44.878H33.6047V47.878ZM27.9743 44.9735C29.4045 46.3958 31.2683 47.878 33.6047 47.878V44.878C32.558 44.878 31.4525 44.2016 30.0897 42.8463L27.9743 44.9735ZM24.7287 41.307C25.8348 42.6269 26.9261 43.9311 27.9743 44.9735L30.0897 42.8463C29.1579 41.9197 28.16 40.7309 27.028 39.3801L24.7287 41.307ZM24.7203 41.2969L24.7204 41.2971L27.0362 39.39L27.0361 39.3898L24.7203 41.2969ZM24.7256 41.3034L24.7258 41.3037L27.0305 39.3831L27.0303 39.3829L24.7256 41.3034ZM24.7305 41.3092L24.7306 41.3093L27.0253 39.3769L27.0252 39.3768L24.7305 41.3092ZM23.2834 39.597C23.7762 40.1705 24.2554 40.7424 24.7282 41.3065L27.0276 39.3796C26.5566 38.8175 26.0656 38.2316 25.5587 37.6418L23.2834 39.597ZM15.4441 32.3724C18.5982 34.4199 21.09 37.0445 23.2834 39.597L25.5587 37.6418C23.3097 35.0246 20.5954 32.1396 17.0775 29.8561L15.4441 32.3724ZM16.8957 43.3942L17.757 31.2201L14.7645 31.0084L13.9032 43.1825L16.8957 43.3942ZM17.2867 44.3133C17.2867 43.541 16.9977 42.8326 16.5242 42.2959L14.2747 44.2808C14.2794 44.2861 14.2823 44.2913 14.2839 44.2956C14.2853 44.2991 14.2867 44.3043 14.2867 44.3133H17.2867ZM17.2867 45.126V44.3133H14.2867V45.126H17.2867ZM14.237 48.1757C15.9213 48.1757 17.2867 46.8103 17.2867 45.126H14.2867C14.2867 45.1534 14.2645 45.1757 14.237 45.1757V48.1757ZM12.1886 48.1757H14.237V45.1757H12.1886V48.1757ZM9.13891 45.126C9.13891 46.8103 10.5043 48.1757 12.1886 48.1757V45.1757C12.1612 45.1757 12.1389 45.1534 12.1389 45.126H9.13891ZM9.13891 44.3133V45.126H12.1389V44.3133H9.13891ZM10.1593 42.0367C9.53537 42.5931 9.13891 43.4079 9.13891 44.3133H12.1389C12.1389 44.3032 12.1407 44.2975 12.1427 44.2933C12.1452 44.2878 12.1496 44.2815 12.1559 44.2758L10.1593 42.0367ZM9.65763 28.5738V43.1563H12.6576V28.5738H9.65763ZM9.72192 29.6758C10.0374 29.7734 10.3473 29.8769 10.6519 29.986L11.6633 27.1617C11.3178 27.0379 10.9663 26.9205 10.6087 26.8099L9.72192 29.6758ZM6.80475 26.4486C7.10213 28.1125 8.35299 29.2523 9.72192 29.6758L10.6087 26.8099C10.1426 26.6657 9.82864 26.3163 9.75795 25.9207L6.80475 26.4486ZM6.39025 22.4908C6.4199 24.0187 6.63223 25.4833 6.80475 26.4486L9.75795 25.9207C9.59988 25.0363 9.4151 23.7422 9.38969 22.4326L6.39025 22.4908ZM7.23443 17.6778C6.48843 19.1927 6.36197 21.0335 6.39025 22.4908L9.38969 22.4326C9.36384 21.1009 9.50619 19.8553 9.9258 19.0032L7.23443 17.6778ZM10.9379 13.3595C9.47998 14.3669 8.09827 15.9236 7.23443 17.6778L9.9258 19.0032C10.5609 17.7136 11.6007 16.5481 12.6433 15.8276L10.9379 13.3595ZM13.4125 12.2201C12.5135 12.4214 11.6679 12.8551 10.9379 13.3595L12.6433 15.8276C13.1643 15.4676 13.6552 15.24 14.0681 15.1476L13.4125 12.2201ZM15.6069 30.6454C19.2841 32.8751 22.0884 35.8285 24.4587 38.587L26.7341 36.6318C24.3052 33.8051 21.2527 30.5604 17.1624 28.0802L15.6069 30.6454ZM15.0459 27.0311L14.8884 29.2569L17.8809 29.4686L18.0384 27.2428L15.0459 27.0311ZM15.6086 27.7005C15.2711 27.6659 15.0219 27.3696 15.0459 27.0311L18.0384 27.2428C18.1288 25.9651 17.1883 24.8465 15.9141 24.7161L15.6086 27.7005ZM11.9654 27.3276L15.6086 27.7005L15.9141 24.7161L12.2708 24.3432L11.9654 27.3276ZM12.6576 26.7026C12.6576 27.0749 12.3357 27.3655 11.9654 27.3276L12.2708 24.3432C10.8728 24.2002 9.65763 25.2973 9.65763 26.7026H12.6576ZM12.6576 26.9341V26.7026H9.65763V26.9341H12.6576ZM10.18 28.1953C10.3491 28.2477 10.5167 28.3016 10.6828 28.357L11.6325 25.5113C11.4456 25.4489 11.257 25.3883 11.0667 25.3294L10.18 28.1953ZM8.33029 26.1759C8.50942 27.1781 9.27048 27.9139 10.18 28.1953L11.0667 25.3294C11.0803 25.3336 11.2392 25.4005 11.2835 25.6481L8.33029 26.1759ZM7.93967 22.4608C7.96713 23.8759 8.16524 25.2524 8.33029 26.1759L11.2835 25.6481C11.1329 24.8053 10.9623 23.5993 10.9391 22.4026L7.93967 22.4608ZM8.62471 18.3625C8.04718 19.5353 7.91267 21.0689 7.93967 22.4608L10.9391 22.4026C10.9145 21.1341 11.0655 20.1967 11.3161 19.6878L8.62471 18.3625ZM11.8189 14.6345C10.5755 15.4937 9.37037 16.8483 8.62471 18.3625L11.3161 19.6878C11.833 18.6382 12.6962 17.6748 13.5243 17.1025L11.8189 14.6345ZM13.2744 13.8702C12.7893 14.0409 12.2969 14.3041 11.8188 14.6345L13.5243 17.1025C13.8314 16.8904 14.0868 16.7646 14.2703 16.7001L13.2744 13.8702ZM15.1729 14.7374C15.1604 14.7134 15.1512 14.6942 15.1445 14.679L12.4003 15.8912C12.438 15.9765 12.476 16.0538 12.5108 16.1206L15.1729 14.7374ZM15.8047 15.6319C15.5063 15.2632 15.2818 14.9471 15.1729 14.7374L12.5108 16.1206C12.7666 16.613 13.1526 17.1237 13.473 17.5194L15.8047 15.6319ZM17.1469 17.1327C17.0671 17.0509 16.3813 16.3441 15.8047 15.6319L13.473 17.5194C14.1413 18.3451 14.908 19.1339 15 19.2281L17.1469 17.1327ZM17.1688 17.1555L17.1567 17.1429L14.9901 19.2179L15.0022 19.2306L17.1688 17.1555ZM28.6309 29.3526L17.1786 17.1658L14.9925 19.2203L26.4447 31.407L28.6309 29.3526ZM28.6253 29.3465L28.6149 29.3358L26.4608 31.4238L26.4712 31.4346L28.6253 29.3465ZM36.8807 37.6037L28.609 29.33L26.4875 31.4511L34.7591 39.7247L36.8807 37.6037ZM36.8623 37.5933C36.8631 37.5933 36.8656 37.5938 36.8692 37.5955C36.8729 37.5973 36.8771 37.6001 36.8807 37.6037L34.7591 39.7247C35.246 40.2118 35.8788 40.5056 36.5451 40.5764L36.8623 37.5933ZM41.9686 38.362C40.1698 38.0544 38.3883 37.7555 36.8623 37.5933L36.5451 40.5764C37.9601 40.7269 39.6467 41.0085 41.4629 41.3191L41.9686 38.362ZM42.3699 38.4307L41.9688 38.362L41.4626 41.319L41.8637 41.3877L42.3699 38.4307ZM47.3024 39.2097C45.744 39.0084 44.0528 38.7189 42.37 38.4307L41.8635 41.3877C43.5329 41.6736 45.2871 41.9743 46.9181 42.1849L47.3024 39.2097ZM47.3162 39.2402C47.3616 39.2167 47.3902 39.2131 47.388 39.2134C47.387 39.2136 47.3794 39.2145 47.3646 39.2144C47.3498 39.2142 47.3291 39.2131 47.3024 39.2097L46.9181 42.1849C47.4564 42.2545 48.095 42.215 48.6946 41.9047L47.3162 39.2402ZM47.1144 39.4322C47.179 39.3294 47.2572 39.2707 47.3162 39.2402L48.6946 41.9048C49.0648 41.7132 49.4078 41.4212 49.6549 41.0279L47.1144 39.4322ZM50.9261 39.379L48.786 38.7847L47.9833 41.6753L50.1234 42.2696L50.9261 39.379ZM53.5183 42.7891C53.5183 41.1992 52.458 39.8044 50.9261 39.379L50.1234 42.2696C50.3568 42.3344 50.5183 42.5469 50.5183 42.7891H53.5183ZM49.9813 46.3283C51.9365 46.3283 53.5183 44.7432 53.5183 42.7891H50.5183C50.5183 43.089 50.277 43.3283 49.9813 43.3283V46.3283ZM33.6047 46.3283H49.9813V43.3283H33.6047V46.3283ZM29.0671 43.8747C30.4621 45.262 31.9342 46.3283 33.6047 46.3283V43.3283C33.2248 43.3283 32.5114 43.0691 31.1825 41.7475L29.0671 43.8747ZM25.9708 40.3758C27.0521 41.6662 28.0709 42.884 29.0671 43.8747L31.1825 41.7475C30.3028 40.8726 29.3775 39.7704 28.2703 38.449L25.9708 40.3758ZM25.9785 40.3849L25.9787 40.3851L28.2624 38.4397L28.2623 38.4395L25.9785 40.3849ZM25.9656 40.3695L25.9658 40.3697L28.275 38.4547L28.2748 38.4545L25.9656 40.3695ZM24.4587 38.587C24.9884 39.2033 25.488 39.7996 25.9705 40.3754L28.2699 38.4486C27.7889 37.8745 27.2777 37.2644 26.7341 36.6318L24.4587 38.587ZM15.6924 13.9841C15.6301 13.9455 15.5655 13.9099 15.4988 13.8777L14.1929 16.5786C14.1662 16.5657 14.1392 16.5509 14.112 16.5341L15.6924 13.9841ZM20.8555 18.326C19.2818 16.6968 17.68 15.2159 15.6924 13.9841L14.112 16.5341C15.7931 17.5759 17.1955 18.855 18.6978 20.4103L20.8555 18.326ZM22.6589 20.2455C22.0439 19.5824 21.4426 18.9339 20.8555 18.326L18.6978 20.4103C19.2598 20.9921 19.8397 21.6174 20.4591 22.2854L22.6589 20.2455ZM22.6595 20.2462L22.6593 20.246L20.4587 22.2849L20.4588 22.2851L22.6595 20.2462ZM22.6614 20.2483L22.6614 20.2482L20.457 22.2831L20.457 22.2831L22.6614 20.2483ZM22.6632 20.2502L22.6631 20.2501L20.4553 22.2813L20.4554 22.2814L22.6632 20.2502ZM22.6882 20.278L22.6881 20.278L20.4304 22.2535L20.4304 22.2536L22.6882 20.278ZM25.8848 23.6195C24.7205 22.4685 23.6664 21.3321 22.6592 20.2459L20.4594 22.2857C21.4619 23.3668 22.5583 24.5495 23.7756 25.7529L25.8848 23.6195ZM37.548 35.7616C37.1655 35.3503 30.4368 28.1197 25.8848 23.6195L23.7756 25.7529C28.2751 30.2012 34.9608 37.3848 35.351 37.8045L37.548 35.7616ZM37.54 35.7531L37.54 35.7531L35.359 37.813L35.359 37.813L37.54 35.7531ZM37.2546 35.5826C37.3492 35.6088 37.4574 35.6642 37.5479 35.7615L35.3511 37.8046C35.6844 38.163 36.082 38.3705 36.4519 38.4732L37.2546 35.5826ZM46.3743 38.115L37.2546 35.5826L36.4519 38.4732L45.5716 41.0056L46.3743 38.115ZM42.0226 40.4322C43.26 40.6441 44.5289 40.8615 45.7516 41.0439L46.1942 38.0767C45.0091 37.9 43.7726 37.6883 42.529 37.4753L42.0226 40.4322ZM41.6259 40.3643L42.0228 40.4323L42.5289 37.4753L42.1321 37.4073L41.6259 40.3643ZM36.6475 39.6133C38.0983 39.7676 39.8156 40.0547 41.6262 40.3644L42.1319 37.4073C40.3385 37.1006 38.5265 36.7962 36.9647 36.6301L36.6475 39.6133ZM35.4441 39.04C35.7709 39.3668 36.1966 39.5654 36.6475 39.6133L36.9647 36.6301C37.1829 36.6533 37.3979 36.7511 37.5656 36.9188L35.4441 39.04ZM27.1777 30.7716L35.4441 39.0399L37.5657 36.9189L29.2993 28.6505L27.1777 30.7716ZM15.6951 18.5536L27.1454 30.7382L29.3316 28.6838L17.8813 16.4992L15.6951 18.5536ZM15.6871 18.5453L15.7039 18.5629L17.8725 16.49L17.8557 16.4723L15.6871 18.5453ZM15.6948 18.5534L15.6981 18.5567L17.8446 16.4608L17.8413 16.4575L15.6948 18.5534ZM14.2258 16.91C14.8689 17.7045 15.6153 18.4719 15.6949 18.5534L17.8412 16.4574C17.7734 16.3879 17.1084 15.7029 16.5576 15.0225L14.2258 16.91ZM13.5847 16.0403C13.766 16.3217 13.9931 16.6226 14.2258 16.91L16.5576 15.0225C16.3598 14.7781 16.2065 14.5706 16.107 14.416L13.5847 16.0403ZM14.2073 27.5081V27.4535H11.2073V27.5081H14.2073ZM15.5845 27.1909C14.8462 26.8057 14.0766 26.4466 13.2738 26.1192L12.1409 28.897C12.854 29.1879 13.5387 29.5073 14.1968 29.8507L15.5845 27.1909ZM13.4537 27.5772L13.3944 28.4149L16.3869 28.6266L16.4462 27.7889L13.4537 27.5772ZM12.5546 28.9458L14.7972 29.1753L15.1026 26.1908L12.86 25.9613L12.5546 28.9458ZM12.1042 30.5642C12.7757 30.859 13.4204 31.1813 14.0408 31.5269L15.5005 28.9059C14.8009 28.5163 14.0716 28.1516 13.3105 27.8174L12.1042 30.5642ZM14.2073 42.7636V29.1908H11.2073V42.7636H14.2073ZM13.883 41.2636H12.7073V44.2636H13.883V41.2636ZM13.2744 30.1105L12.3867 42.6577L15.3792 42.8694L16.267 30.3223L13.2744 30.1105ZM15.2318 44.953L15.297 44.0317L12.3045 43.82L12.2393 44.7413L15.2318 44.953ZM12.747 46.3738L13.7752 46.3466L13.6959 43.3477L12.6677 43.3749L12.747 46.3738ZM11.2073 43.9259V44.8744H14.2073V43.9259H11.2073ZM13.8007 42.4259H12.7073V45.4259H13.8007V42.4259Z" fill="#F8F9FA" mask="url(#path-1-outside-1_694_5093)"/>
<path d="M11.6225 26.7233L11.9924 45.5175C11.9935 45.573 12.0396 45.6169 12.095 45.6155L14.4282 45.5537C14.4805 45.5523 14.5228 45.511 14.5255 45.4588L15.4588 27.0986C15.4615 27.0454 15.4221 26.9994 15.3691 26.994L11.7326 26.6219C11.6729 26.6157 11.6213 26.6633 11.6225 26.7233Z" fill="#FFE8CC" stroke="#212529" stroke-width="1.4" stroke-linecap="round" stroke-linejoin="round"/>
<rect x="11.2201" y="43.3594" width="3.98555" height="2.74983" rx="1" fill="#FF8787" stroke="#212529" stroke-linecap="round" stroke-linejoin="round"/>
<path d="M9.03747 26.0262C8.71499 24.2072 8.28525 20.7086 9.27528 18.6982C10.656 15.8943 13.765 13.658 15.3104 14.6158C19.1374 16.9876 21.5248 20.3441 25.375 24.1506C29.9099 28.6339 36.6197 35.8435 37.0158 36.2695C37.0284 36.2831 37.0436 36.2919 37.0615 36.2969L50.7321 40.0931C51.9502 40.4313 52.7932 41.5403 52.7932 42.8045C52.7932 44.3586 51.5355 45.6185 49.9813 45.6185H33.6047C28.1761 45.6185 23.8599 31.7066 10.43 27.529C9.72543 27.3099 9.16627 26.7527 9.03747 26.0262Z" fill="#FFD5BD" stroke="#212529" stroke-width="1.6" stroke-linecap="round" stroke-linejoin="round"/>
<path d="M36.7663 38.6202C39.6977 38.933 43.6372 39.7662 47.0193 40.2127C48.0999 40.3554 48.2383 39.3854 47.1899 39.0871L37.3835 36.2966C37.2142 36.2484 37.0606 36.1564 36.9382 36.0299L18.4897 16.9483C17.5285 15.9882 14.9758 14.323 14.251 14.6162C13.5469 14.901 16.2654 17.6994 16.4212 17.859L16.4356 17.874L27.8908 30.0638L36.1544 38.3295C36.319 38.4941 36.5348 38.5955 36.7663 38.6202Z" fill="#FFE3E3" stroke="#212529" stroke-linecap="round" stroke-linejoin="round"/>
<g style="mix-blend-mode:multiply">
<rect x="12.4867" y="28.5947" width="3.58053" height="1.33555" transform="rotate(24.8485 12.4867 28.5947)" fill="#DEE2E6"/>
</g>
<g style="mix-blend-mode:soft-light">
<path d="M12.6255 18.3786C13.2277 17.5664 12.2719 17.1185 11.8295 17.6215C10.7314 18.8703 10.4424 20.7705 10.5777 21.9966C10.7131 23.2227 11.6323 22.7425 11.53 21.9966C11.3557 20.7249 11.7802 19.5187 12.6255 18.3786Z" fill="#F8F9FA"/>
</g>
</svg>
