<svg width="60" height="60" viewBox="0 0 60 60" fill="none" xmlns="http://www.w3.org/2000/svg">
<mask id="path-1-outside-1_50_11152" maskUnits="userSpaceOnUse" x="11.7657" y="4.22168" width="37" height="52" fill="black">
<rect fill="white" x="11.7657" y="4.22168" width="37" height="52"/>
<path fill-rule="evenodd" clip-rule="evenodd" d="M35.455 11.7843C35.455 8.71216 37.9454 6.22168 41.0176 6.22168C44.0898 6.22168 46.5803 8.71216 46.5803 11.7843C46.5803 14.8565 44.0898 17.347 41.0176 17.347C37.9454 17.347 35.455 14.8565 35.455 11.7843ZM27.2323 10.5629C24.5931 7.52687 19.9924 7.20516 16.9563 9.84437C15.624 11.0026 14.8135 12.5409 14.5479 14.1571C14.384 15.1546 14.4273 16.1829 14.6834 17.1722C14.812 17.6687 15.3187 17.9671 15.8152 17.8385C16.3117 17.71 16.61 17.2033 16.4815 16.7067C16.2908 15.9703 16.2582 15.2031 16.3806 14.4582C16.5786 13.2535 17.1812 12.1099 18.1749 11.2461C20.4368 9.27988 23.8643 9.51956 25.8306 11.7815C26.5388 12.5962 26.9598 13.5595 27.1047 14.5518C27.2138 15.2991 27.1661 16.0629 26.9654 16.7906C26.829 17.285 27.1192 17.7964 27.6137 17.9328C28.1081 18.0692 28.6195 17.7789 28.7558 17.2845C29.025 16.309 29.0888 15.2856 28.9425 14.2835C28.7479 12.9498 28.1808 11.654 27.2323 10.5629ZM39.1833 44.8642C38.7101 46.4597 37.811 47.5541 36.6887 48.2975V50.5813C36.6887 51.6585 36.0308 52.6933 34.9077 53.0108C33.629 53.3724 31.451 53.8316 28.7645 53.7738C26.2848 53.7205 24.3424 53.4057 23.1375 53.1473C21.9288 52.8881 21.1736 51.8095 21.1736 50.6521V48.4484C21.11 48.4031 21.0475 48.3564 20.9862 48.3082C18.7571 46.5556 16.8109 44.1341 15.5522 41.5219C14.9396 40.2506 14.2067 38.5295 13.9058 36.6989C13.6039 34.8625 13.725 32.8363 14.9209 31.0458C15.4917 30.1912 16.5062 28.8451 17.9113 28.0096C17.9976 27.9583 18.0894 27.9209 18.1837 27.8973L18.3012 15.4031C18.3192 13.4884 19.8765 11.9456 21.7914 11.9456C23.6979 11.9456 25.2517 13.4755 25.2813 15.3818L25.408 23.5504C25.9638 23.1768 26.6329 22.9588 27.353 22.9588C28.7074 22.9588 29.8816 23.7302 30.4603 24.8575C31.061 24.3685 31.8275 24.0753 32.6624 24.0753C34.1723 24.0753 35.4582 25.034 35.9448 26.3758C36.4253 26.074 36.9937 25.8995 37.603 25.8995C39.327 25.8995 40.7246 27.2971 40.7246 29.0211V31.0259C40.7751 33.106 40.7794 39.4819 39.1833 44.8642ZM29.1719 28.6967L25.5341 28.4145V26.4493C25.5341 25.4447 26.3484 24.6304 27.353 24.6304C28.3575 24.6304 29.1719 25.4447 29.1719 26.4493V27.5531L29.1719 27.5659V28.6967ZM34.4814 29.1084L30.8435 28.8263V27.5571C30.8483 26.5565 31.6608 25.7469 32.6624 25.7469C33.667 25.7469 34.4814 26.5613 34.4814 27.5659V29.1084ZM23.8096 28.2808L23.6099 15.4077C23.5945 14.4144 22.7848 13.6172 21.7914 13.6172C20.7936 13.6172 19.9821 14.4211 19.9727 15.4189L19.8547 27.9741L23.8096 28.2808ZM39.053 29.0211V29.463L36.153 29.2381V29.0211C36.153 28.2203 36.8022 27.5711 37.603 27.5711C38.4038 27.5711 39.053 28.2203 39.053 29.0211Z"/>
</mask>
<path fill-rule="evenodd" clip-rule="evenodd" d="M35.455 11.7843C35.455 8.71216 37.9454 6.22168 41.0176 6.22168C44.0898 6.22168 46.5803 8.71216 46.5803 11.7843C46.5803 14.8565 44.0898 17.347 41.0176 17.347C37.9454 17.347 35.455 14.8565 35.455 11.7843ZM27.2323 10.5629C24.5931 7.52687 19.9924 7.20516 16.9563 9.84437C15.624 11.0026 14.8135 12.5409 14.5479 14.1571C14.384 15.1546 14.4273 16.1829 14.6834 17.1722C14.812 17.6687 15.3187 17.9671 15.8152 17.8385C16.3117 17.71 16.61 17.2033 16.4815 16.7067C16.2908 15.9703 16.2582 15.2031 16.3806 14.4582C16.5786 13.2535 17.1812 12.1099 18.1749 11.2461C20.4368 9.27988 23.8643 9.51956 25.8306 11.7815C26.5388 12.5962 26.9598 13.5595 27.1047 14.5518C27.2138 15.2991 27.1661 16.0629 26.9654 16.7906C26.829 17.285 27.1192 17.7964 27.6137 17.9328C28.1081 18.0692 28.6195 17.7789 28.7558 17.2845C29.025 16.309 29.0888 15.2856 28.9425 14.2835C28.7479 12.9498 28.1808 11.654 27.2323 10.5629ZM39.1833 44.8642C38.7101 46.4597 37.811 47.5541 36.6887 48.2975V50.5813C36.6887 51.6585 36.0308 52.6933 34.9077 53.0108C33.629 53.3724 31.451 53.8316 28.7645 53.7738C26.2848 53.7205 24.3424 53.4057 23.1375 53.1473C21.9288 52.8881 21.1736 51.8095 21.1736 50.6521V48.4484C21.11 48.4031 21.0475 48.3564 20.9862 48.3082C18.7571 46.5556 16.8109 44.1341 15.5522 41.5219C14.9396 40.2506 14.2067 38.5295 13.9058 36.6989C13.6039 34.8625 13.725 32.8363 14.9209 31.0458C15.4917 30.1912 16.5062 28.8451 17.9113 28.0096C17.9976 27.9583 18.0894 27.9209 18.1837 27.8973L18.3012 15.4031C18.3192 13.4884 19.8765 11.9456 21.7914 11.9456C23.6979 11.9456 25.2517 13.4755 25.2813 15.3818L25.408 23.5504C25.9638 23.1768 26.6329 22.9588 27.353 22.9588C28.7074 22.9588 29.8816 23.7302 30.4603 24.8575C31.061 24.3685 31.8275 24.0753 32.6624 24.0753C34.1723 24.0753 35.4582 25.034 35.9448 26.3758C36.4253 26.074 36.9937 25.8995 37.603 25.8995C39.327 25.8995 40.7246 27.2971 40.7246 29.0211V31.0259C40.7751 33.106 40.7794 39.4819 39.1833 44.8642ZM29.1719 28.6967L25.5341 28.4145V26.4493C25.5341 25.4447 26.3484 24.6304 27.353 24.6304C28.3575 24.6304 29.1719 25.4447 29.1719 26.4493V27.5531L29.1719 27.5659V28.6967ZM34.4814 29.1084L30.8435 28.8263V27.5571C30.8483 26.5565 31.6608 25.7469 32.6624 25.7469C33.667 25.7469 34.4814 26.5613 34.4814 27.5659V29.1084ZM23.8096 28.2808L23.6099 15.4077C23.5945 14.4144 22.7848 13.6172 21.7914 13.6172C20.7936 13.6172 19.9821 14.4211 19.9727 15.4189L19.8547 27.9741L23.8096 28.2808ZM39.053 29.0211V29.463L36.153 29.2381V29.0211C36.153 28.2203 36.8022 27.5711 37.603 27.5711C38.4038 27.5711 39.053 28.2203 39.053 29.0211Z" fill="#F8F9FA"/>
<path d="M16.9563 9.84437L15.9723 8.7123L15.9723 8.7123L16.9563 9.84437ZM27.2323 10.5629L26.1003 11.547L26.1003 11.547L27.2323 10.5629ZM14.5479 14.1571L13.0677 13.9138L13.0677 13.9138L14.5479 14.1571ZM14.6834 17.1722L13.2313 17.5482L13.2313 17.5482L14.6834 17.1722ZM15.8152 17.8385L15.4393 16.3864L15.4393 16.3864L15.8152 17.8385ZM16.4815 16.7067L15.0294 17.0827L15.0294 17.0827L16.4815 16.7067ZM16.3806 14.4582L14.9005 14.215L14.9005 14.215L16.3806 14.4582ZM18.1749 11.2461L19.159 12.3782L19.159 12.3782L18.1749 11.2461ZM25.8306 11.7815L26.9626 10.7974L26.9626 10.7974L25.8306 11.7815ZM27.1047 14.5518L28.589 14.3351L28.589 14.3351L27.1047 14.5518ZM26.9654 16.7906L25.5194 16.3917L25.5194 16.3917L26.9654 16.7906ZM27.6137 17.9328L27.2148 19.3788L27.2148 19.3788L27.6137 17.9328ZM28.7558 17.2845L30.2018 17.6834L30.2018 17.6834L28.7558 17.2845ZM28.9425 14.2835L27.4583 14.5002L27.4583 14.5002L28.9425 14.2835ZM36.6887 48.2975L35.8604 47.0469C35.4409 47.3248 35.1887 47.7944 35.1887 48.2975H36.6887ZM39.1833 44.8642L40.6214 45.2907L40.6214 45.2907L39.1833 44.8642ZM34.9077 53.0108L34.4996 51.5674L34.4996 51.5674L34.9077 53.0108ZM28.7645 53.7738L28.7322 55.2734L28.7322 55.2734L28.7645 53.7738ZM23.1375 53.1473L23.452 51.6807L23.452 51.6807L23.1375 53.1473ZM21.1736 48.4484H22.6736C22.6736 47.9626 22.4384 47.5068 22.0423 47.2255L21.1736 48.4484ZM20.9862 48.3082L20.059 49.4874L20.059 49.4874L20.9862 48.3082ZM15.5522 41.5219L14.2009 42.173L14.2009 42.173L15.5522 41.5219ZM13.9058 36.6989L12.4256 36.9422L12.4256 36.9422L13.9058 36.6989ZM14.9209 31.0458L16.1683 31.8789L16.1683 31.8789L14.9209 31.0458ZM17.9113 28.0096L18.678 29.2988L18.678 29.2988L17.9113 28.0096ZM18.1837 27.8973L18.548 29.3524C19.2104 29.1866 19.6772 28.5943 19.6837 27.9114L18.1837 27.8973ZM18.3012 15.4031L19.8011 15.4172L19.8011 15.4172L18.3012 15.4031ZM25.2813 15.3818L23.7815 15.4051L23.7815 15.4051L25.2813 15.3818ZM25.408 23.5504L23.9082 23.5737C23.9167 24.1237 24.2256 24.6249 24.7131 24.8798C25.2005 25.1346 25.7884 25.1022 26.2449 24.7953L25.408 23.5504ZM30.4603 24.8575L29.1258 25.5425C29.3324 25.945 29.7097 26.2328 30.1525 26.3256C30.5953 26.4185 31.0564 26.3065 31.4073 26.0208L30.4603 24.8575ZM35.9448 26.3758L34.5347 26.8872C34.6893 27.3135 35.0285 27.647 35.4573 27.7944C35.8862 27.9417 36.3587 27.8872 36.7427 27.646L35.9448 26.3758ZM40.7246 31.0259H39.2246C39.2246 31.0381 39.2247 31.0502 39.225 31.0623L40.7246 31.0259ZM25.5341 28.4145H24.0341C24.0341 29.198 24.637 29.8495 25.4181 29.91L25.5341 28.4145ZM29.1719 28.6967L29.0559 30.1922C29.4726 30.2245 29.8839 30.0815 30.1907 29.7976C30.4975 29.5137 30.6719 29.1147 30.6719 28.6967H29.1719ZM29.1719 27.5531L30.6719 27.5558V27.5531H29.1719ZM29.1719 27.5659L27.6719 27.5632V27.5659H29.1719ZM30.8435 28.8263H29.3435C29.3435 29.6098 29.9464 30.2612 30.7275 30.3218L30.8435 28.8263ZM34.4814 29.1084L34.3654 30.604C34.7821 30.6363 35.1934 30.4932 35.5002 30.2093C35.807 29.9254 35.9814 29.5264 35.9814 29.1084H34.4814ZM30.8435 27.5571L29.3435 27.5499V27.5571H30.8435ZM23.6099 15.4077L22.1101 15.431L22.1101 15.431L23.6099 15.4077ZM23.8096 28.2808L23.6936 29.7763C24.1144 29.8089 24.5294 29.6628 24.8369 29.3738C25.1444 29.0847 25.3159 28.6795 25.3094 28.2575L23.8096 28.2808ZM19.9727 15.4189L18.4728 15.4047L18.4728 15.4047L19.9727 15.4189ZM19.8547 27.9741L18.3547 27.96C18.3473 28.7488 18.9522 29.4086 19.7387 29.4696L19.8547 27.9741ZM39.053 29.463L38.937 30.9585C39.3537 30.9908 39.765 30.8478 40.0718 30.5639C40.3786 30.28 40.553 29.881 40.553 29.463H39.053ZM36.153 29.2381H34.653C34.653 30.0215 35.2559 30.673 36.037 30.7336L36.153 29.2381ZM41.0176 4.72168C37.117 4.72168 33.955 7.88374 33.955 11.7843H36.955C36.955 9.54059 38.7739 7.72168 41.0176 7.72168V4.72168ZM48.0803 11.7843C48.0803 7.88374 44.9182 4.72168 41.0176 4.72168V7.72168C43.2613 7.72168 45.0803 9.54059 45.0803 11.7843H48.0803ZM41.0176 18.847C44.9182 18.847 48.0803 15.6849 48.0803 11.7843H45.0803C45.0803 14.0281 43.2613 15.847 41.0176 15.847V18.847ZM33.955 11.7843C33.955 15.6849 37.117 18.847 41.0176 18.847V15.847C38.7739 15.847 36.955 14.0281 36.955 11.7843H33.955ZM17.9404 10.9764C20.3513 8.88072 24.0046 9.13618 26.1003 11.547L28.3644 9.57885C25.1817 5.91756 19.6335 5.5296 15.9723 8.7123L17.9404 10.9764ZM16.028 14.4003C16.239 13.1163 16.8816 11.8968 17.9404 10.9764L15.9723 8.7123C14.3663 10.1083 13.3879 11.9655 13.0677 13.9138L16.028 14.4003ZM16.1356 16.7963C15.9323 16.0112 15.8976 15.1938 16.028 14.4003L13.0677 13.9138C12.8703 15.1154 12.9223 16.3547 13.2313 17.5482L16.1356 16.7963ZM15.4393 16.3864C15.7447 16.3073 16.0565 16.4908 16.1356 16.7963L13.2313 17.5482C13.5675 18.8467 14.8926 19.6268 16.1911 19.2906L15.4393 16.3864ZM15.0294 17.0827C14.9503 16.7772 15.1338 16.4655 15.4393 16.3864L16.1911 19.2906C17.4896 18.9545 18.2698 17.6293 17.9336 16.3308L15.0294 17.0827ZM14.9005 14.215C14.7446 15.1639 14.7858 16.142 15.0294 17.0827L17.9336 16.3308C17.7958 15.7985 17.7719 15.2423 17.8608 14.7015L14.9005 14.215ZM17.1908 10.1141C15.9236 11.2156 15.1531 12.6779 14.9005 14.215L17.8608 14.7015C18.0042 13.8291 18.4387 13.0043 19.159 12.3782L17.1908 10.1141ZM26.9626 10.7974C24.4529 7.91025 20.0779 7.60432 17.1908 10.1141L19.159 12.3782C20.7956 10.9554 23.2758 11.1289 24.6985 12.7655L26.9626 10.7974ZM28.589 14.3351C28.4038 13.0671 27.8649 11.8353 26.9626 10.7974L24.6985 12.7655C25.2127 13.3571 25.5158 14.052 25.6204 14.7684L28.589 14.3351ZM28.4114 17.1895C28.6673 16.2616 28.7281 15.2882 28.589 14.3351L25.6204 14.7684C25.6995 15.31 25.6649 15.8642 25.5194 16.3917L28.4114 17.1895ZM28.0126 16.4868C28.3167 16.5707 28.4953 16.8853 28.4114 17.1895L25.5194 16.3917C25.1627 17.6847 25.9217 19.0221 27.2148 19.3788L28.0126 16.4868ZM27.3099 16.8856C27.3938 16.5814 27.7084 16.4029 28.0125 16.4868L27.2148 19.3788C28.5078 19.7354 29.8451 18.9764 30.2018 17.6834L27.3099 16.8856ZM27.4583 14.5002C27.5745 15.2965 27.5237 16.1103 27.3099 16.8856L30.2018 17.6834C30.5262 16.5077 30.6031 15.2747 30.4268 14.0668L27.4583 14.5002ZM26.1003 11.547C26.8547 12.4149 27.3038 13.4422 27.4583 14.5002L30.4268 14.0668C30.1919 12.4574 29.5069 10.8932 28.3644 9.57885L26.1003 11.547ZM37.517 49.5481C38.922 48.6175 40.0444 47.2365 40.6214 45.2907L37.7452 44.4377C37.3759 45.683 36.7 46.4908 35.8604 47.0469L37.517 49.5481ZM38.1887 50.5813V48.2975H35.1887V50.5813H38.1887ZM35.3158 54.4542C37.1656 53.9312 38.1887 52.242 38.1887 50.5813H35.1887C35.1887 51.075 34.8961 51.4553 34.4996 51.5674L35.3158 54.4542ZM28.7322 55.2734C31.6031 55.3352 33.9328 54.8453 35.3158 54.4542L34.4996 51.5674C33.3252 51.8995 31.2989 52.3279 28.7967 52.2741L28.7322 55.2734ZM22.8229 54.614C24.1058 54.8891 26.1435 55.2178 28.7322 55.2734L28.7967 52.2741C26.4262 52.2232 24.5791 51.9224 23.452 51.6807L22.8229 54.614ZM19.6736 50.6521C19.6736 52.4398 20.8503 54.1909 22.8229 54.614L23.452 51.6807C23.0074 51.5853 22.6736 51.1792 22.6736 50.6521H19.6736ZM19.6736 48.4484V50.6521H22.6736V48.4484H19.6736ZM20.059 49.4874C20.1397 49.5508 20.2217 49.6121 20.305 49.6713L22.0423 47.2255C21.9982 47.1942 21.9552 47.1621 21.9133 47.1291L20.059 49.4874ZM14.2009 42.173C15.5579 44.9892 17.6484 47.592 20.059 49.4874L21.9133 47.1291C19.8658 45.5192 18.0639 43.2789 16.9035 40.8708L14.2009 42.173ZM12.4256 36.9422C12.7617 38.9868 13.5691 40.862 14.2009 42.173L16.9035 40.8708C16.3101 39.6392 15.6517 38.0723 15.3859 36.4555L12.4256 36.9422ZM13.6735 30.2127C12.1941 32.4277 12.087 34.8823 12.4256 36.9422L15.3859 36.4555C15.1208 34.8427 15.2559 33.2449 16.1683 31.8789L13.6735 30.2127ZM17.1446 26.7203C15.4417 27.733 14.2749 29.3123 13.6735 30.2127L16.1683 31.8789C16.7086 31.07 17.5707 29.9573 18.678 29.2988L17.1446 26.7203ZM17.8194 26.4422C17.586 26.5007 17.3583 26.5932 17.1446 26.7203L18.678 29.2988C18.6368 29.3233 18.5928 29.3412 18.548 29.3524L17.8194 26.4422ZM16.8013 15.389L16.6838 27.8832L19.6837 27.9114L19.8011 15.4172L16.8013 15.389ZM21.7914 10.4456C19.0536 10.4456 16.827 12.6514 16.8013 15.389L19.8011 15.4172C19.8114 14.3254 20.6995 13.4456 21.7914 13.4456V10.4456ZM26.7811 15.3586C26.7388 12.633 24.5173 10.4456 21.7914 10.4456V13.4456C22.8786 13.4456 23.7646 14.318 23.7815 15.4051L26.7811 15.3586ZM26.9078 23.5272L26.7811 15.3586L23.7815 15.4051L23.9082 23.5737L26.9078 23.5272ZM27.353 21.4588C26.3256 21.4588 25.3666 21.7708 24.5711 22.3056L26.2449 24.7953C26.561 24.5828 26.9402 24.4588 27.353 24.4588V21.4588ZM31.7947 24.1726C30.9693 22.5644 29.2915 21.4588 27.353 21.4588V24.4588C28.1232 24.4588 28.7939 24.8959 29.1258 25.5425L31.7947 24.1726ZM32.6624 22.5753C31.47 22.5753 30.3717 22.9954 29.5133 23.6943L31.4073 26.0208C31.7502 25.7416 32.1849 25.5753 32.6624 25.5753V22.5753ZM37.355 25.8644C36.6601 23.9481 34.8235 22.5753 32.6624 22.5753V25.5753C33.5211 25.5753 34.2564 26.1198 34.5347 26.8872L37.355 25.8644ZM37.603 24.3995C36.7033 24.3995 35.8594 24.6581 35.1469 25.1056L36.7427 27.646C36.9911 27.4899 37.2842 27.3995 37.603 27.3995V24.3995ZM42.2246 29.0211C42.2246 26.4686 40.1554 24.3995 37.603 24.3995V27.3995C38.4986 27.3995 39.2246 28.1255 39.2246 29.0211H42.2246ZM42.2246 31.0259V29.0211H39.2246V31.0259H42.2246ZM40.6214 45.2907C42.2886 39.6687 42.2752 33.0924 42.2241 30.9895L39.225 31.0623C39.275 33.1196 39.2703 39.295 37.7452 44.4377L40.6214 45.2907ZM25.4181 29.91L29.0559 30.1922L29.2879 27.2012L25.65 26.919L25.4181 29.91ZM24.0341 26.4493V28.4145H27.0341V26.4493H24.0341ZM27.353 23.1304C25.52 23.1304 24.0341 24.6163 24.0341 26.4493H27.0341C27.0341 26.2732 27.1768 26.1304 27.353 26.1304V23.1304ZM30.6719 26.4493C30.6719 24.6163 29.186 23.1304 27.353 23.1304V26.1304C27.5291 26.1304 27.6719 26.2732 27.6719 26.4493H30.6719ZM30.6719 27.5531V26.4493H27.6719V27.5531H30.6719ZM30.6719 27.5686L30.6719 27.5558L27.6719 27.5504L27.6719 27.5632L30.6719 27.5686ZM30.6719 28.6967V27.5659H27.6719V28.6967H30.6719ZM30.7275 30.3218L34.3654 30.604L34.5973 27.6129L30.9595 27.3308L30.7275 30.3218ZM29.3435 27.5571V28.8263H32.3435V27.5571H29.3435ZM32.6624 24.2469C30.8348 24.2469 29.3522 25.7242 29.3435 27.5499L32.3435 27.5642C32.3443 27.3889 32.4868 27.2469 32.6624 27.2469V24.2469ZM35.9814 27.5659C35.9814 25.7329 34.4954 24.2469 32.6624 24.2469V27.2469C32.8386 27.2469 32.9814 27.3897 32.9814 27.5659H35.9814ZM35.9814 29.1084V27.5659H32.9814V29.1084H35.9814ZM22.1101 15.431L22.3098 28.3041L25.3094 28.2575L25.1097 15.3845L22.1101 15.431ZM21.7914 15.1172C21.9655 15.1172 22.1074 15.2569 22.1101 15.431L25.1097 15.3845C25.0816 13.5719 23.6042 12.1172 21.7914 12.1172V15.1172ZM21.4727 15.433C21.4743 15.2581 21.6165 15.1172 21.7914 15.1172V12.1172C19.9707 12.1172 18.4899 13.5841 18.4728 15.4047L21.4727 15.433ZM21.3546 27.9882L21.4727 15.433L18.4728 15.4047L18.3547 27.96L21.3546 27.9882ZM23.9256 26.7853L19.9707 26.4786L19.7387 29.4696L23.6936 29.7763L23.9256 26.7853ZM40.553 29.463V29.0211H37.553V29.463H40.553ZM36.037 30.7336L38.937 30.9585L39.1689 27.9675L36.269 27.7426L36.037 30.7336ZM34.653 29.0211V29.2381H37.653V29.0211H34.653ZM37.603 26.0711C35.9738 26.0711 34.653 27.3918 34.653 29.0211H37.653C37.653 29.0487 37.6306 29.0711 37.603 29.0711V26.0711ZM40.553 29.0211C40.553 27.3918 39.2322 26.0711 37.603 26.0711V29.0711C37.5754 29.0711 37.553 29.0487 37.553 29.0211H40.553Z" fill="#F8F9FA" mask="url(#path-1-outside-1_50_11152)"/>
<path d="M27.8516 16.9567C28.0866 16.1051 28.1423 15.2115 28.0146 14.3368C27.8449 13.1738 27.3508 12.0442 26.5225 11.0913C24.2198 8.44234 20.2056 8.16165 17.5566 10.4644C16.3936 11.4754 15.6871 12.8163 15.4553 14.2268C15.3121 15.098 15.3501 15.9957 15.5735 16.8586" stroke="#212529" stroke-width="2" stroke-linecap="round" stroke-linejoin="round"/>
<path d="M34.5802 52.1506C33.348 52.4915 31.2941 52.9109 28.7735 52.8567C26.4247 52.8062 24.5752 52.5153 23.4065 52.2704C22.5598 52.093 22.0005 51.3323 22.0005 50.4672V47.2617L35.8439 47.6924V50.4049C35.8439 51.2115 35.3576 51.9355 34.5802 52.1506Z" fill="#F8F9FA" stroke="#212529" stroke-width="1.8" stroke-linecap="round" stroke-linejoin="round"/>
<path fill-rule="evenodd" clip-rule="evenodd" d="M18.3794 28.6172C17.1154 29.3507 16.1684 30.588 15.607 31.4285C13.5308 34.537 15.0923 38.5791 16.2962 41.0776C17.5001 43.5761 19.3659 45.8966 21.4938 47.5697C22.8789 48.6588 25.1688 48.9397 28.6847 48.9397C32.5807 48.9397 37.1291 48.7397 38.373 44.5451C40.2663 38.1607 39.8798 30.9081 39.8798 30.9081" fill="#FFD8A8"/>
<path d="M18.3794 28.6172C17.1154 29.3507 16.1684 30.588 15.607 31.4285C13.5308 34.537 15.0923 38.5791 16.2962 41.0776C17.5001 43.5761 19.3659 45.8966 21.4938 47.5697C22.8789 48.6588 25.1688 48.9397 28.6847 48.9397C32.5807 48.9397 37.1291 48.7397 38.373 44.5451C40.2663 38.1607 39.8798 30.9081 39.8798 30.9081" stroke="#212529" stroke-width="1.8" stroke-linecap="round" stroke-linejoin="round"/>
<g style="mix-blend-mode:soft-light" opacity="0.6">
<path d="M19.0816 40.4885C18.7487 41.0072 19.42 42.3194 20.053 43.1822C20.7004 44.0646 21.8349 45.2784 22.2979 44.8249C22.7609 44.3714 21.3312 42.7817 20.928 42.4187C20.2211 41.6539 19.4145 39.9699 19.0816 40.4885Z" fill="#F8F9FA"/>
</g>
<path fill-rule="evenodd" clip-rule="evenodd" d="M29.9988 31.0729V27.4848C29.9988 26.0186 31.1873 24.8301 32.6535 24.8301V24.8301C34.1197 24.8301 35.3082 26.0186 35.3082 27.4848V31.0729" fill="#FFD8A8"/>
<path d="M29.9988 31.0729V27.4848C29.9988 26.0186 31.1873 24.8301 32.6535 24.8301V24.8301C34.1197 24.8301 35.3082 26.0186 35.3082 27.4848V31.0729" stroke="#212529" stroke-width="1.8" stroke-linecap="round" stroke-linejoin="round"/>
<path fill-rule="evenodd" clip-rule="evenodd" d="M35.3082 30.9927L35.3082 28.9401C35.3082 27.6777 36.3316 26.6543 37.594 26.6543V26.6543C38.8564 26.6543 39.8798 27.6777 39.8798 28.9401V31.425" fill="#FFD8A8"/>
<path d="M35.3082 30.9927L35.3082 28.9401C35.3082 27.6777 36.3316 26.6543 37.594 26.6543V26.6543C38.8564 26.6543 39.8798 27.6777 39.8798 28.9401V31.425" stroke="#212529" stroke-width="1.8" stroke-linecap="round" stroke-linejoin="round"/>
<path fill-rule="evenodd" clip-rule="evenodd" d="M18.9441 34.8832L19.128 15.3298C19.1417 13.8735 20.3261 12.7002 21.7824 12.7002V12.7002C23.2324 12.7002 24.4141 13.8637 24.4366 15.3135L24.6893 31.6007" fill="#FFD8A8"/>
<path d="M18.9441 34.8832L19.128 15.3298C19.1417 13.8735 20.3261 12.7002 21.7824 12.7002V12.7002C23.2324 12.7002 24.4141 13.8637 24.4366 15.3135L24.6893 31.6007" stroke="#212529" stroke-width="1.8" stroke-linecap="round" stroke-linejoin="round"/>
<path fill-rule="evenodd" clip-rule="evenodd" d="M24.6893 30.9179V26.3686C24.6893 24.9024 25.8779 23.7139 27.3441 23.7139V23.7139C28.8102 23.7139 29.9988 24.9024 29.9988 26.3686V30.9179" fill="#FFD8A8"/>
<path d="M24.6893 30.9179V26.3686C24.6893 24.9024 25.8779 23.7139 27.3441 23.7139V23.7139C28.8102 23.7139 29.9988 24.9024 29.9988 26.3686V30.9179" stroke="#212529" stroke-width="1.8" stroke-linecap="round" stroke-linejoin="round"/>
<g style="mix-blend-mode:multiply">
<path d="M37.3801 41.3459C38.1558 37.9337 38.3723 31.7062 38.3723 27.3652C38.6962 27.504 38.8281 28.0336 39.3278 29.6437C39.8274 31.2537 39.2297 38.3617 38.8133 41.3459C38.4894 42.7338 37.8274 45.4207 36.9391 46.3645C36.0508 47.3083 33.9803 48.1932 33.0087 48.3552C36.201 46.412 36.8001 43.8968 37.3801 41.3459Z" fill="#DEE2E6"/>
</g>
<g style="mix-blend-mode:multiply">
<path d="M34.1393 48.998L35.1499 48.9102V51.2051L34.1393 51.4816V48.998Z" fill="#DEE2E6"/>
</g>
<g style="mix-blend-mode:multiply">
<path d="M34.73 26.172L34.0511 25.9775V31.0583L34.73 31.6704V26.172Z" fill="#DEE2E6"/>
</g>
<g style="mix-blend-mode:multiply">
<path d="M29.4956 25.3599L28.8167 25.1367V30.9681L29.4956 31.6706V25.3599Z" fill="#DEE2E6"/>
</g>
<g style="mix-blend-mode:multiply">
<path d="M24.0902 14.1035L23.1157 13.3623L23.4113 31.101L24.0902 31.884V14.1035Z" fill="#DEE2E6"/>
</g>
<circle cx="41.0177" cy="11.7836" r="4.86265" fill="#FFD43B" stroke="#212529" stroke-width="1.4" stroke-linecap="round" stroke-linejoin="round"/>
<path d="M40.8208 9.72363V12.1L42.6349 13.1381" stroke="#212529" stroke-width="1.2" stroke-linecap="round" stroke-linejoin="round"/>
</svg>
