<svg width="60" height="61" viewBox="0 0 60 61" fill="none" xmlns="http://www.w3.org/2000/svg">
<path d="M13.1335 30.3913C13.1335 21.0763 20.6849 13.5249 30 13.5249C39.315 13.5249 46.8664 21.0763 46.8664 30.3913C46.8664 39.7064 39.315 47.2577 30 47.2577C20.6849 47.2577 13.1335 39.7064 13.1335 30.3913ZM30 10.0249C18.7519 10.0249 9.63354 19.1433 9.63354 30.3913C9.63354 41.6394 18.7519 50.7577 30 50.7577C41.248 50.7577 50.3664 41.6394 50.3664 30.3913C50.3664 19.1433 41.248 10.0249 30 10.0249Z" fill="#F8F9FA" stroke="#F8F9FA" stroke-width="1.5" stroke-linecap="round" stroke-linejoin="round"/>
<circle cx="30" cy="30.3913" r="18.6164" fill="#FFD43B" stroke="#212529" stroke-width="2" stroke-linecap="round" stroke-linejoin="round"/>
<g style="mix-blend-mode:multiply">
<path fill-rule="evenodd" clip-rule="evenodd" d="M27.9342 47.344C37.7565 47.344 45.719 39.3815 45.719 29.5593C45.719 22.4787 41.5811 16.3645 35.5917 13.5029C42.6744 15.8468 47.7847 22.522 47.7847 30.3908C47.7847 40.213 39.8222 48.1755 30 48.1755C27.2583 48.1755 24.6616 47.5552 22.3425 46.4472C24.1009 47.029 25.9808 47.344 27.9342 47.344Z" fill="#FFD43B"/>
</g>
<g style="mix-blend-mode:soft-light" opacity="0.8">
<path d="M20.9719 19.1419C21.733 18.3678 20.8191 17.6249 19.9634 17.8212C19.2458 17.9858 17.4804 19.6543 16.5909 21.3403C15.7014 23.0262 17.0362 23.7713 17.5534 23.1624C18.0705 22.5536 20.0206 20.1096 20.9719 19.1419Z" fill="#F8F9FA"/>
</g>
<path d="M20.7241 24.8649C21.025 23.4499 22.2852 21.9876 23.6568 21.9877C25.8746 21.988 26.6657 23.9444 26.8086 24.8649" stroke="#212529" stroke-width="1.6" stroke-linecap="round" stroke-linejoin="round"/>
<path d="M33.1913 24.8647C33.4922 23.4497 34.7523 21.9873 36.124 21.9875C38.3418 21.9877 39.1329 23.9442 39.2758 24.8647" stroke="#212529" stroke-width="1.6" stroke-linecap="round" stroke-linejoin="round"/>
<path fill-rule="evenodd" clip-rule="evenodd" d="M30.1684 40.3247C35.592 40.3247 40.074 36.585 40.7807 31.7339C40.8446 31.2947 40.7807 30.3911 39.5495 30.3911C35.1056 30.3911 25.8433 30.3911 20.7829 30.3911C19.5509 30.3911 19.4904 31.2701 19.5509 31.6976C20.2405 36.5663 24.7313 40.3247 30.1684 40.3247Z" fill="#212529"/>
<path fill-rule="evenodd" clip-rule="evenodd" d="M30.1683 35.3579C32.796 35.3579 35.129 36.5284 36.5944 38.3379C34.8044 39.5856 32.5794 40.3247 30.1683 40.3247C27.757 40.3247 25.5319 39.5855 23.7419 38.3382C25.2075 36.5284 27.5406 35.3579 30.1683 35.3579Z" fill="#F03E3E"/>
</svg>
