<svg width="60" height="61" viewBox="0 0 60 61" fill="none" xmlns="http://www.w3.org/2000/svg">
<mask id="path-1-outside-1_50_2761" maskUnits="userSpaceOnUse" x="13.2727" y="6.76489" width="33" height="49" fill="black">
<rect fill="white" x="13.2727" y="6.76489" width="33" height="49"/>
<path fill-rule="evenodd" clip-rule="evenodd" d="M15.2727 13.6649C15.2727 10.9587 17.4665 8.76489 20.1727 8.76489H39.1606C41.8668 8.76489 44.0606 10.9587 44.0606 13.6649V46.1467C44.0606 48.8529 41.8668 51.0467 39.1606 51.0467H38.8265V52.2372C38.8265 52.8999 38.2893 53.4372 37.6265 53.4372C36.9638 53.4372 36.4265 52.8999 36.4265 52.2372V51.0467H22.9068V52.2372C22.9068 52.8999 22.3695 53.4372 21.7068 53.4372C21.044 53.4372 20.5068 52.8999 20.5068 52.2372V51.0467H20.1727C17.4665 51.0467 15.2727 48.8529 15.2727 46.1467V13.6649ZM20.1727 10.5649C18.4606 10.5649 17.0727 11.9528 17.0727 13.6649V46.1467C17.0727 47.8588 18.4606 49.2467 20.1727 49.2467H39.1606C40.8726 49.2467 42.2606 47.8588 42.2606 46.1467V13.6649C42.2606 11.9528 40.8726 10.5649 39.1606 10.5649H20.1727Z"/>
</mask>
<path fill-rule="evenodd" clip-rule="evenodd" d="M15.2727 13.6649C15.2727 10.9587 17.4665 8.76489 20.1727 8.76489H39.1606C41.8668 8.76489 44.0606 10.9587 44.0606 13.6649V46.1467C44.0606 48.8529 41.8668 51.0467 39.1606 51.0467H38.8265V52.2372C38.8265 52.8999 38.2893 53.4372 37.6265 53.4372C36.9638 53.4372 36.4265 52.8999 36.4265 52.2372V51.0467H22.9068V52.2372C22.9068 52.8999 22.3695 53.4372 21.7068 53.4372C21.044 53.4372 20.5068 52.8999 20.5068 52.2372V51.0467H20.1727C17.4665 51.0467 15.2727 48.8529 15.2727 46.1467V13.6649ZM20.1727 10.5649C18.4606 10.5649 17.0727 11.9528 17.0727 13.6649V46.1467C17.0727 47.8588 18.4606 49.2467 20.1727 49.2467H39.1606C40.8726 49.2467 42.2606 47.8588 42.2606 46.1467V13.6649C42.2606 11.9528 40.8726 10.5649 39.1606 10.5649H20.1727Z" fill="#F8F9FA"/>
<path d="M38.8265 51.0467V49.5467C37.9981 49.5467 37.3265 50.2183 37.3265 51.0467H38.8265ZM36.4265 51.0467H37.9265C37.9265 50.2183 37.2549 49.5467 36.4265 49.5467V51.0467ZM22.9068 51.0467V49.5467C22.0783 49.5467 21.4068 50.2183 21.4068 51.0467H22.9068ZM20.5068 51.0467H22.0068C22.0068 50.2183 21.3352 49.5467 20.5068 49.5467V51.0467ZM20.1727 7.26489C16.6381 7.26489 13.7727 10.1303 13.7727 13.6649H16.7727C16.7727 11.7871 18.2949 10.2649 20.1727 10.2649V7.26489ZM39.1606 7.26489H20.1727V10.2649H39.1606V7.26489ZM45.5606 13.6649C45.5606 10.1303 42.6952 7.26489 39.1606 7.26489V10.2649C41.0383 10.2649 42.5606 11.7871 42.5606 13.6649H45.5606ZM45.5606 46.1467V13.6649H42.5606V46.1467H45.5606ZM39.1606 52.5467C42.6952 52.5467 45.5606 49.6813 45.5606 46.1467H42.5606C42.5606 48.0245 41.0383 49.5467 39.1606 49.5467V52.5467ZM38.8265 52.5467H39.1606V49.5467H38.8265V52.5467ZM37.3265 51.0467V52.2372H40.3265V51.0467H37.3265ZM37.3265 52.2372C37.3265 52.0715 37.4608 51.9372 37.6265 51.9372V54.9372C39.1177 54.9372 40.3265 53.7283 40.3265 52.2372H37.3265ZM37.6265 51.9372C37.7922 51.9372 37.9265 52.0715 37.9265 52.2372H34.9265C34.9265 53.7283 36.1353 54.9372 37.6265 54.9372V51.9372ZM37.9265 52.2372V51.0467H34.9265V52.2372H37.9265ZM22.9068 52.5467H36.4265V49.5467H22.9068V52.5467ZM24.4068 52.2372V51.0467H21.4068V52.2372H24.4068ZM21.7068 54.9372C23.1979 54.9372 24.4068 53.7283 24.4068 52.2372H21.4068C21.4068 52.0715 21.5411 51.9372 21.7068 51.9372V54.9372ZM19.0068 52.2372C19.0068 53.7283 20.2156 54.9372 21.7068 54.9372V51.9372C21.8725 51.9372 22.0068 52.0715 22.0068 52.2372H19.0068ZM19.0068 51.0467V52.2372H22.0068V51.0467H19.0068ZM20.1727 52.5467H20.5068V49.5467H20.1727V52.5467ZM13.7727 46.1467C13.7727 49.6813 16.6381 52.5467 20.1727 52.5467V49.5467C18.2949 49.5467 16.7727 48.0244 16.7727 46.1467H13.7727ZM13.7727 13.6649V46.1467H16.7727V13.6649H13.7727ZM18.5727 13.6649C18.5727 12.7812 19.289 12.0649 20.1727 12.0649V9.06489C17.6322 9.06489 15.5727 11.1244 15.5727 13.6649H18.5727ZM18.5727 46.1467V13.6649H15.5727V46.1467H18.5727ZM20.1727 47.7467C19.289 47.7467 18.5727 47.0303 18.5727 46.1467H15.5727C15.5727 48.6872 17.6322 50.7467 20.1727 50.7467V47.7467ZM39.1606 47.7467H20.1727V50.7467H39.1606V47.7467ZM40.7606 46.1467C40.7606 47.0303 40.0442 47.7467 39.1606 47.7467V50.7467C41.7011 50.7467 43.7606 48.6872 43.7606 46.1467H40.7606ZM40.7606 13.6649V46.1467H43.7606V13.6649H40.7606ZM39.1606 12.0649C40.0442 12.0649 40.7606 12.7812 40.7606 13.6649H43.7606C43.7606 11.1244 41.7011 9.06489 39.1606 9.06489V12.0649ZM20.1727 12.0649H39.1606V9.06489H20.1727V12.0649Z" fill="#F8F9FA" mask="url(#path-1-outside-1_50_2761)"/>
<rect x="16.1727" y="9.7124" width="26.9879" height="40.4818" rx="4" fill="#E9ECEF" stroke="#212529" stroke-width="1.8" stroke-linejoin="round"/>
<g style="mix-blend-mode:multiply">
<path fill-rule="evenodd" clip-rule="evenodd" d="M16.1107 48.1019C16.6227 49.0234 17.606 49.6469 18.7349 49.6469H39.7227C41.3796 49.6469 42.7227 48.3038 42.7227 46.6469V12.1651C42.7227 10.8705 41.9027 9.76735 40.7536 9.34692C40.7658 9.43624 40.7721 9.52744 40.7721 9.6201V46.1019C40.7721 47.2065 39.8767 48.1019 38.7721 48.1019H16.1107Z" fill="#E9ECEF"/>
</g>
<g style="mix-blend-mode:soft-light" opacity="0.6">
<path d="M24.0203 13.5245C23.2384 13.2656 21.7625 14.5699 20.8556 15.6755C19.9281 16.8063 18.7333 18.6776 19.4739 19.1264C20.2146 19.5753 21.798 17.1973 22.1342 16.5549C22.8897 15.3861 24.8021 13.7833 24.0203 13.5245Z" fill="#F8F9FA"/>
</g>
<path fill-rule="evenodd" clip-rule="evenodd" d="M31.3674 45.2786H27.1366Z" fill="#ADB5BD"/>
<path d="M31.3674 45.2786H27.1366" stroke="#212529" stroke-width="1.4" stroke-linecap="round" stroke-linejoin="round"/>
<circle cx="29.6667" cy="23.2061" r="8.1451" fill="#868E96" stroke="#212529" stroke-width="1.6" stroke-linejoin="round"/>
<circle cx="29.6667" cy="23.2061" r="5.17293" fill="#ADB5BD" stroke="#212529" stroke-linejoin="round"/>
<circle cx="29.6667" cy="38.5174" r="4.00473" fill="#868E96" stroke="#212529" stroke-width="1.6" stroke-linejoin="round"/>
<path fill-rule="evenodd" clip-rule="evenodd" d="M21.7068 52.2846V50.7266Z" fill="white"/>
<path d="M21.7068 52.2846V50.7266" stroke="#212529" stroke-width="2.4" stroke-linecap="round" stroke-linejoin="round"/>
<path fill-rule="evenodd" clip-rule="evenodd" d="M37.6265 52.2846V50.7266Z" fill="white"/>
<path d="M37.6265 52.2846V50.7266" stroke="#212529" stroke-width="2.4" stroke-linecap="round" stroke-linejoin="round"/>
</svg>
