<svg width="60" height="60" viewBox="0 0 60 60" fill="none" xmlns="http://www.w3.org/2000/svg">
<mask id="path-1-outside-1_50_6124" maskUnits="userSpaceOnUse" x="9.63" y="6.48584" width="46" height="47" fill="black">
<rect fill="white" x="9.63" y="6.48584" width="46" height="47"/>
<path fill-rule="evenodd" clip-rule="evenodd" d="M46.317 9.86527C46.6145 9.08293 45.9017 8.31048 45.1054 8.52089C40.471 9.74549 36.3051 12.6259 34.6027 18.5597C33.2548 17.9561 32.1105 17.7544 30.9932 17.7194C30.9623 17.7155 30.9308 17.7135 30.8988 17.7135C30.8498 17.7135 30.8006 17.7137 30.7513 17.7143C30.703 17.7138 30.6548 17.7135 30.6067 17.7135C30.575 17.7135 30.5437 17.7155 30.5131 17.7193C29.3612 17.7554 28.1807 17.9685 26.778 18.6165C24.7476 14.4923 20.3167 13.2867 17.2274 12.4461L17.2274 12.4461L17.125 12.4182C16.169 12.158 15.3612 11.937 14.7292 11.6833C14.3089 11.5146 13.8785 11.6419 13.6084 11.8981C13.328 12.1641 13.1669 12.6306 13.3971 13.0878C14.2735 14.8282 15.954 16.6694 17.7674 18.284C19.2739 19.6253 20.9164 20.8492 22.3643 21.7726C22.1549 21.9722 21.9389 22.1955 21.7328 22.435C21.3686 22.8583 20.991 23.3827 20.7616 23.9541H13.7897C12.5969 23.9541 11.63 24.921 11.63 26.1138C11.63 27.3066 12.5969 28.2735 13.7897 28.2735H16.3961V46.9415C16.3961 49.4667 18.4432 51.5138 20.9685 51.5138H40.3434C42.8686 51.5138 44.9157 49.4667 44.9157 46.9415V28.2735H47.5221C48.7149 28.2735 49.6818 27.3066 49.6818 26.1138C49.6818 24.921 48.7149 23.9541 47.5221 23.9541H40.744C40.5146 23.3827 40.137 22.8583 39.7728 22.435C39.552 22.1784 39.3198 21.9404 39.0965 21.7303C40.5866 20.5353 41.963 18.5956 43.1135 16.6175C44.4999 14.234 45.6371 11.6531 46.317 9.86527ZM50.1556 13.4663C50.4638 13.6538 50.5616 14.0557 50.3741 14.3639L48.4826 17.473C48.2951 17.7812 47.8932 17.8791 47.585 17.6916C47.2768 17.5041 47.179 17.1022 47.3665 16.794L49.258 13.6849C49.4455 13.3767 49.8474 13.2788 50.1556 13.4663ZM53.1838 19.3407C53.5213 19.2132 53.6915 18.8363 53.564 18.4988C53.4365 18.1613 53.0596 17.9911 52.7221 18.1186L49.0075 19.5219C48.67 19.6494 48.4998 20.0263 48.6273 20.3638C48.7547 20.7013 49.1317 20.8715 49.4691 20.744L53.1838 19.3407Z"/>
</mask>
<path fill-rule="evenodd" clip-rule="evenodd" d="M46.317 9.86527C46.6145 9.08293 45.9017 8.31048 45.1054 8.52089C40.471 9.74549 36.3051 12.6259 34.6027 18.5597C33.2548 17.9561 32.1105 17.7544 30.9932 17.7194C30.9623 17.7155 30.9308 17.7135 30.8988 17.7135C30.8498 17.7135 30.8006 17.7137 30.7513 17.7143C30.703 17.7138 30.6548 17.7135 30.6067 17.7135C30.575 17.7135 30.5437 17.7155 30.5131 17.7193C29.3612 17.7554 28.1807 17.9685 26.778 18.6165C24.7476 14.4923 20.3167 13.2867 17.2274 12.4461L17.2274 12.4461L17.125 12.4182C16.169 12.158 15.3612 11.937 14.7292 11.6833C14.3089 11.5146 13.8785 11.6419 13.6084 11.8981C13.328 12.1641 13.1669 12.6306 13.3971 13.0878C14.2735 14.8282 15.954 16.6694 17.7674 18.284C19.2739 19.6253 20.9164 20.8492 22.3643 21.7726C22.1549 21.9722 21.9389 22.1955 21.7328 22.435C21.3686 22.8583 20.991 23.3827 20.7616 23.9541H13.7897C12.5969 23.9541 11.63 24.921 11.63 26.1138C11.63 27.3066 12.5969 28.2735 13.7897 28.2735H16.3961V46.9415C16.3961 49.4667 18.4432 51.5138 20.9685 51.5138H40.3434C42.8686 51.5138 44.9157 49.4667 44.9157 46.9415V28.2735H47.5221C48.7149 28.2735 49.6818 27.3066 49.6818 26.1138C49.6818 24.921 48.7149 23.9541 47.5221 23.9541H40.744C40.5146 23.3827 40.137 22.8583 39.7728 22.435C39.552 22.1784 39.3198 21.9404 39.0965 21.7303C40.5866 20.5353 41.963 18.5956 43.1135 16.6175C44.4999 14.234 45.6371 11.6531 46.317 9.86527ZM50.1556 13.4663C50.4638 13.6538 50.5616 14.0557 50.3741 14.3639L48.4826 17.473C48.2951 17.7812 47.8932 17.8791 47.585 17.6916C47.2768 17.5041 47.179 17.1022 47.3665 16.794L49.258 13.6849C49.4455 13.3767 49.8474 13.2788 50.1556 13.4663ZM53.1838 19.3407C53.5213 19.2132 53.6915 18.8363 53.564 18.4988C53.4365 18.1613 53.0596 17.9911 52.7221 18.1186L49.0075 19.5219C48.67 19.6494 48.4998 20.0263 48.6273 20.3638C48.7547 20.7013 49.1317 20.8715 49.4691 20.744L53.1838 19.3407Z" fill="#F8F9FA"/>
<path d="M45.1054 8.52092L44.7222 7.0707L44.7222 7.0707L45.1054 8.52092ZM46.317 9.8653L44.915 9.3321L44.915 9.3321L46.317 9.8653ZM34.6027 18.5598L33.9896 19.9288C34.3864 20.1065 34.8408 20.1033 35.235 19.92C35.6293 19.7367 35.9246 19.3913 36.0445 18.9734L34.6027 18.5598ZM30.9932 17.7194L30.8053 19.2076C30.8521 19.2135 30.899 19.2172 30.9461 19.2187L30.9932 17.7194ZM30.7513 17.7143L30.7347 19.2142C30.7459 19.2144 30.7571 19.2144 30.7683 19.2142L30.7513 17.7143ZM30.5131 17.7194L30.56 19.2186C30.6067 19.2172 30.6532 19.2135 30.6995 19.2077L30.5131 17.7194ZM26.778 18.6165L25.4322 19.2791C25.7918 20.0094 26.6681 20.3196 27.4071 19.9782L26.778 18.6165ZM17.2274 12.4461L17.6212 10.9988C17.5727 10.9856 17.5236 10.9748 17.474 10.9666L17.2274 12.4461ZM17.2274 12.4461L16.8335 13.8935C16.8821 13.9067 16.9312 13.9175 16.9808 13.9257L17.2274 12.4461ZM17.125 12.4183L16.731 13.8656L16.7311 13.8656L17.125 12.4183ZM14.7292 11.6833L14.1704 13.0753L14.1704 13.0753L14.7292 11.6833ZM13.6084 11.8981L12.5762 10.8098L12.5761 10.8098L13.6084 11.8981ZM13.3971 13.0878L14.7369 12.4132L14.7369 12.4132L13.3971 13.0878ZM17.7674 18.284L18.7648 17.1637L18.7648 17.1637L17.7674 18.284ZM22.3643 21.7726L23.3992 22.8584C23.733 22.5404 23.9019 22.0865 23.8573 21.6276C23.8127 21.1687 23.5596 20.7558 23.1709 20.5079L22.3643 21.7726ZM21.7328 22.435L20.5958 21.4566L20.5958 21.4566L21.7328 22.435ZM20.7616 23.9541V25.4541C21.3742 25.4541 21.9253 25.0816 22.1535 24.513L20.7616 23.9541ZM16.3961 28.2735H17.8961C17.8961 27.4451 17.2246 26.7735 16.3961 26.7735V28.2735ZM44.9157 28.2735V26.7735C44.0873 26.7735 43.4157 27.4451 43.4157 28.2735H44.9157ZM40.744 23.9541L39.352 24.5131C39.5803 25.0816 40.1313 25.4541 40.744 25.4541V23.9541ZM39.7728 22.435L38.6358 23.4134L38.6358 23.4134L39.7728 22.435ZM39.0965 21.7303L38.1581 20.5601C37.8193 20.8318 37.6149 21.2369 37.5977 21.6708C37.5805 22.1048 37.7522 22.5248 38.0683 22.8225L39.0965 21.7303ZM43.1135 16.6176L44.4101 17.3717L44.4101 17.3717L43.1135 16.6176ZM50.3741 14.3639L51.6556 15.1435L51.6556 15.1435L50.3741 14.3639ZM50.1556 13.4664L50.9352 12.1849L50.9352 12.1849L50.1556 13.4664ZM48.4825 17.4731L47.2011 16.6934L47.2011 16.6934L48.4825 17.4731ZM47.585 17.6916L46.8054 18.9731L46.8054 18.9731L47.585 17.6916ZM47.3665 16.7941L48.648 17.5737L48.648 17.5737L47.3665 16.7941ZM49.258 13.6849L47.9766 12.9053L47.9765 12.9053L49.258 13.6849ZM53.1838 19.3407L52.6537 17.9375L52.6537 17.9375L53.1838 19.3407ZM52.7221 18.1186L53.2522 19.5218L53.2522 19.5218L52.7221 18.1186ZM49.0074 19.522L48.4773 18.1188L48.4773 18.1188L49.0074 19.522ZM48.6273 20.3638L47.224 20.894L47.224 20.894L48.6273 20.3638ZM49.4691 20.744L49.9992 22.1472L49.9992 22.1472L49.4691 20.744ZM45.4886 9.97115C45.1254 10.0671 44.7707 9.71145 44.915 9.3321L47.7191 10.3985C48.4584 8.45447 46.6779 6.55391 44.7222 7.0707L45.4886 9.97115ZM36.0445 18.9734C37.5693 13.6587 41.2422 11.0932 45.4886 9.97115L44.7222 7.0707C39.6998 8.39782 35.0409 11.5932 33.1609 18.1461L36.0445 18.9734ZM30.9461 19.2187C31.8899 19.2483 32.839 19.4134 33.9896 19.9288L35.2158 17.1908C33.6706 16.4988 32.3311 16.2607 31.0402 16.2201L30.9461 19.2187ZM30.8988 19.2135C30.8678 19.2135 30.8366 19.2115 30.8053 19.2076L31.181 16.2312C31.088 16.2195 30.9937 16.2135 30.8988 16.2135V19.2135ZM30.7683 19.2142C30.8117 19.2137 30.8552 19.2135 30.8988 19.2135V16.2135C30.8444 16.2135 30.7896 16.2138 30.7344 16.2144L30.7683 19.2142ZM30.6067 19.2135C30.6495 19.2135 30.6921 19.2138 30.7347 19.2142L30.7679 16.2144C30.7138 16.2138 30.6601 16.2135 30.6067 16.2135V19.2135ZM30.6995 19.2077C30.6685 19.2116 30.6375 19.2135 30.6067 19.2135V16.2135C30.5125 16.2135 30.4189 16.2194 30.3266 16.231L30.6995 19.2077ZM27.4071 19.9782C28.609 19.423 29.5888 19.249 30.56 19.2186L30.4661 16.2201C29.1336 16.2618 27.7524 16.514 26.1489 17.2548L27.4071 19.9782ZM16.8336 13.8935C20.034 14.7643 23.7437 15.8492 25.4322 19.2791L28.1238 17.954C25.7515 13.1353 20.5994 11.8091 17.6212 10.9988L16.8336 13.8935ZM16.9808 13.9257L16.9808 13.9257L17.474 10.9666L17.474 10.9666L16.9808 13.9257ZM16.7311 13.8656L16.8335 13.8935L17.6213 10.9988L17.5189 10.9709L16.7311 13.8656ZM14.1704 13.0753C14.9008 13.3685 15.8032 13.613 16.731 13.8656L17.519 10.971C16.5347 10.703 15.8217 10.5055 15.2879 10.2913L14.1704 13.0753ZM14.6407 12.9865C14.5356 13.0861 14.3557 13.1497 14.1704 13.0753L15.2879 10.2913C14.262 9.87945 13.2214 10.1978 12.5762 10.8098L14.6407 12.9865ZM14.7369 12.4132C14.7857 12.5102 14.8005 12.6358 14.7747 12.7503C14.7529 12.8474 14.7057 12.9247 14.6407 12.9865L12.5761 10.8098C11.906 11.4455 11.4769 12.6097 12.0574 13.7624L14.7369 12.4132ZM18.7648 17.1637C16.9964 15.5891 15.4849 13.8989 14.7369 12.4132L12.0574 13.7624C13.0619 15.7575 14.9115 17.7496 16.7699 19.4043L18.7648 17.1637ZM23.1709 20.5079C21.7891 19.6267 20.2105 18.4509 18.7648 17.1637L16.7699 19.4043C18.3372 20.7997 20.0437 22.0717 21.5578 23.0373L23.1709 20.5079ZM22.8698 23.4134C23.0393 23.2164 23.2204 23.0288 23.3992 22.8584L21.3294 20.6868C21.0894 20.9156 20.8385 21.1746 20.5958 21.4566L22.8698 23.4134ZM22.1535 24.513C22.2966 24.1567 22.5583 23.7754 22.8698 23.4134L20.5958 21.4566C20.1788 21.9412 19.6853 22.6088 19.3696 23.3952L22.1535 24.513ZM13.7897 25.4541H20.7616V22.4541H13.7897V25.4541ZM13.13 26.1138C13.13 25.7495 13.4254 25.4541 13.7897 25.4541V22.4541C11.7685 22.4541 10.13 24.0926 10.13 26.1138H13.13ZM13.7897 26.7735C13.4254 26.7735 13.13 26.4782 13.13 26.1138H10.13C10.13 28.135 11.7685 29.7735 13.7897 29.7735V26.7735ZM16.3961 26.7735H13.7897V29.7735H16.3961V26.7735ZM17.8961 46.9415V28.2735H14.8961V46.9415H17.8961ZM20.9685 50.0138C19.2717 50.0138 17.8961 48.6383 17.8961 46.9415H14.8961C14.8961 50.2951 17.6148 53.0138 20.9685 53.0138V50.0138ZM40.3434 50.0138H20.9685V53.0138H40.3434V50.0138ZM43.4157 46.9415C43.4157 48.6383 42.0402 50.0138 40.3434 50.0138V53.0138C43.697 53.0138 46.4157 50.2951 46.4157 46.9415H43.4157ZM43.4157 28.2735V46.9415H46.4157V28.2735H43.4157ZM47.5221 26.7735H44.9157V29.7735H47.5221V26.7735ZM48.1818 26.1138C48.1818 26.4782 47.8865 26.7735 47.5221 26.7735V29.7735C49.5433 29.7735 51.1818 28.135 51.1818 26.1138H48.1818ZM47.5221 25.4541C47.8865 25.4541 48.1818 25.7495 48.1818 26.1138H51.1818C51.1818 24.0927 49.5433 22.4541 47.5221 22.4541V25.4541ZM40.744 25.4541H47.5221V22.4541H40.744V25.4541ZM38.6358 23.4134C38.9472 23.7754 39.2089 24.1567 39.352 24.5131L42.136 23.3952C41.8202 22.6089 41.3267 21.9412 40.9098 21.4567L38.6358 23.4134ZM38.0683 22.8225C38.2591 23.0021 38.4541 23.2022 38.6358 23.4134L40.9098 21.4567C40.6499 21.1547 40.3804 20.8788 40.1247 20.6381L38.0683 22.8225ZM41.8169 15.8634C40.6907 17.7996 39.4265 19.5429 38.1581 20.5601L40.0349 22.9005C41.7466 21.5279 43.2353 19.3916 44.4101 17.3717L41.8169 15.8634ZM44.915 9.3321C44.2567 11.0629 43.1528 13.5665 41.8169 15.8634L44.4101 17.3717C45.8468 14.9016 47.0175 12.2433 47.7191 10.3985L44.915 9.3321ZM51.6556 15.1435C52.2736 14.1276 51.9511 12.803 50.9352 12.1849L49.3759 14.7478C48.9764 14.5048 48.8495 13.9838 49.0926 13.5843L51.6556 15.1435ZM49.764 18.2527L51.6556 15.1435L49.0926 13.5843L47.2011 16.6934L49.764 18.2527ZM46.8054 18.9731C47.8213 19.5911 49.146 19.2686 49.764 18.2527L47.2011 16.6934C47.4441 16.2939 47.9651 16.167 48.3646 16.4101L46.8054 18.9731ZM46.085 16.0144C45.4669 17.0304 45.7895 18.355 46.8054 18.9731L48.3646 16.4101C48.7642 16.6532 48.891 17.1741 48.648 17.5737L46.085 16.0144ZM47.9765 12.9053L46.085 16.0144L48.648 17.5737L50.5395 14.4645L47.9765 12.9053ZM50.9352 12.1849C49.9192 11.5668 48.5946 11.8893 47.9766 12.9053L50.5395 14.4645C50.2964 14.8641 49.7755 14.9909 49.3759 14.7478L50.9352 12.1849ZM52.1608 19.0289C51.9955 18.5914 52.2162 18.1028 52.6537 17.9375L53.7139 20.7439C54.8263 20.3236 55.3874 19.0811 54.9672 17.9687L52.1608 19.0289ZM53.2522 19.5218C52.8147 19.6871 52.3261 19.4664 52.1608 19.0289L54.9672 17.9687C54.5469 16.8563 53.3044 16.2951 52.192 16.7154L53.2522 19.5218ZM49.5376 20.9252L53.2522 19.5218L52.192 16.7154L48.4773 18.1188L49.5376 20.9252ZM50.0305 19.8337C50.1957 20.2712 49.9751 20.7599 49.5376 20.9252L48.4773 18.1188C47.3649 18.539 46.8038 19.7815 47.224 20.894L50.0305 19.8337ZM48.939 19.3408C49.3765 19.1756 49.8652 19.3962 50.0305 19.8337L47.224 20.894C47.6443 22.0064 48.8868 22.5675 49.9992 22.1472L48.939 19.3408ZM52.6537 17.9375L48.939 19.3408L49.9992 22.1472L53.7139 20.7439L52.6537 17.9375Z" fill="#F8F9FA" mask="url(#path-1-outside-1_50_6124)"/>
<path fill-rule="evenodd" clip-rule="evenodd" d="M45.5759 9.66536C44.2302 13.1932 41.0958 19.8064 37.8432 21.7037C38.526 22.2083 39.9448 23.5203 40.1586 24.7314H31.0672L31.0672 24.7315H21.2867C21.5004 23.5204 22.9193 22.2084 23.6021 21.7037C20.4352 19.8564 15.7069 16.0488 14.0587 12.832C13.9307 12.5821 14.2115 12.3246 14.4727 12.4274C15.1449 12.6919 15.9802 12.9193 16.8988 13.1693C20.2382 14.0784 24.6777 15.287 26.3807 19.6662C28.0334 18.7737 29.3196 18.5254 30.5765 18.4943L30.5766 18.4907C30.6259 18.4907 30.6752 18.491 30.7246 18.4916C30.7726 18.491 30.8207 18.4908 30.8687 18.4908L30.8688 18.4942C32.1257 18.5254 33.4119 18.7737 35.0645 19.6661C36.5106 13.4553 40.5895 10.5186 45.23 9.28286C45.4606 9.22147 45.6609 9.44246 45.5759 9.66536Z" fill="#FFF5F5"/>
<path d="M37.8432 21.7037L37.4401 21.0127C37.2077 21.1483 37.059 21.3916 37.0444 21.6603C37.0298 21.9291 37.1513 22.1871 37.3677 22.347L37.8432 21.7037ZM45.5759 9.66536L44.8284 9.38024L44.8284 9.38025L45.5759 9.66536ZM40.1586 24.7314V25.5314C40.3951 25.5314 40.6194 25.4268 40.7714 25.2456C40.9234 25.0644 40.9875 24.8253 40.9464 24.5924L40.1586 24.7314ZM31.0672 24.7314V23.9314C30.8491 23.9314 30.6405 24.0204 30.4896 24.1779C30.3387 24.3353 30.2587 24.5476 30.2679 24.7654L31.0672 24.7314ZM31.0672 24.7315V25.5315C31.2853 25.5315 31.4939 25.4424 31.6448 25.285C31.7957 25.1275 31.8758 24.9153 31.8665 24.6975L31.0672 24.7315ZM21.2867 24.7315L20.4989 24.5924C20.4578 24.8253 20.5218 25.0645 20.6738 25.2457C20.8259 25.4268 21.0502 25.5315 21.2867 25.5315V24.7315ZM23.6021 21.7037L24.0776 22.3471C24.294 22.1871 24.4155 21.9291 24.4009 21.6604C24.3863 21.3917 24.2376 21.1483 24.0052 21.0127L23.6021 21.7037ZM14.0587 12.832L14.7707 12.4672L14.7707 12.4672L14.0587 12.832ZM14.4727 12.4274L14.7656 11.6829L14.7656 11.6829L14.4727 12.4274ZM16.8988 13.1693L16.6887 13.9412L16.6887 13.9412L16.8988 13.1693ZM26.3807 19.6662L25.6351 19.9561C25.7183 20.17 25.8893 20.3378 26.1046 20.417C26.32 20.4962 26.559 20.4791 26.7609 20.3701L26.3807 19.6662ZM30.5765 18.4943L30.5963 19.294C31.0203 19.2835 31.3625 18.9439 31.376 18.5199L30.5765 18.4943ZM30.5766 18.4907V17.6907C30.1447 17.6907 29.7908 18.0335 29.777 18.4651L30.5766 18.4907ZM30.7246 18.4916L30.7149 19.2915C30.7213 19.2916 30.7276 19.2916 30.7339 19.2915L30.7246 18.4916ZM30.8687 18.4908L31.6683 18.4653C31.6546 18.0336 31.3006 17.6908 30.8687 17.6908V18.4908ZM30.8688 18.4942L30.0692 18.5197C30.0827 18.9437 30.4249 19.2835 30.849 19.294L30.8688 18.4942ZM35.0645 19.6661L34.6844 20.3701C34.9038 20.4885 35.1659 20.4979 35.3933 20.3955C35.6206 20.293 35.7872 20.0904 35.8437 19.8475L35.0645 19.6661ZM45.23 9.28286L45.0242 8.5098L45.0242 8.5098L45.23 9.28286ZM38.2463 22.3947C40.068 21.3321 41.7527 19.0384 43.1159 16.6987C44.5012 14.321 45.639 11.7445 46.3234 9.95048L44.8284 9.38025C44.1671 11.114 43.0649 13.608 41.7334 15.8932C40.3798 18.2164 38.871 20.178 37.4401 21.0127L38.2463 22.3947ZM40.9464 24.5924C40.8013 23.7704 40.2771 23.0048 39.7832 22.4308C39.2729 21.8378 38.7022 21.3438 38.3187 21.0604L37.3677 22.347C37.667 22.5683 38.1471 22.9825 38.5704 23.4744C39.01 23.9854 39.3021 24.4813 39.3707 24.8704L40.9464 24.5924ZM31.0672 25.5314H40.1586V23.9314H31.0672V25.5314ZM30.2679 24.7654L30.2679 24.7655L31.8665 24.6975L31.8665 24.6974L30.2679 24.7654ZM31.0672 23.9315H21.2867V25.5315H31.0672V23.9315ZM22.0745 24.8705C22.1432 24.4813 22.4353 23.9854 22.8749 23.4745C23.2982 22.9826 23.7783 22.5683 24.0776 22.3471L23.1265 21.0604C22.7431 21.3438 22.1724 21.8378 21.6621 22.4309C21.1682 23.0049 20.6439 23.7705 20.4989 24.5924L22.0745 24.8705ZM24.0052 21.0127C22.4702 20.1173 20.5391 18.7353 18.7922 17.1834C17.0325 15.62 15.5267 13.9428 14.7707 12.4672L13.3467 13.1968C14.2389 14.938 15.9214 16.7731 17.7296 18.3795C19.5506 19.9974 21.5671 21.4428 23.199 22.3948L24.0052 21.0127ZM14.7707 12.4672C14.8941 12.7081 14.7978 12.9563 14.6716 13.0766C14.5572 13.1856 14.3687 13.2462 14.1798 13.1718L14.7656 11.6829C14.3154 11.5058 13.8559 11.6437 13.5678 11.9183C13.268 12.2041 13.0953 12.706 13.3467 13.1968L14.7707 12.4672ZM14.1798 13.1718C14.9013 13.4557 15.7837 13.6949 16.6887 13.9412L17.1089 12.3974C16.1768 12.1437 15.3885 11.928 14.7656 11.6829L14.1798 13.1718ZM16.6887 13.9412C20.1019 14.8704 24.0995 16.0075 25.6351 19.9561L27.1263 19.3762C25.2558 14.5664 20.3746 13.2864 17.1089 12.3974L16.6887 13.9412ZM26.7609 20.3701C28.2965 19.5409 29.4582 19.3222 30.5963 19.294L30.5566 17.6945C29.181 17.7286 27.7703 18.0066 26.0006 18.9623L26.7609 20.3701ZM29.777 18.4651L29.7769 18.4687L31.376 18.5199L31.3762 18.5163L29.777 18.4651ZM30.7342 17.6917C30.6815 17.691 30.629 17.6907 30.5766 17.6907V19.2907C30.6228 19.2907 30.6689 19.291 30.7149 19.2915L30.7342 17.6917ZM30.7339 19.2915C30.7788 19.291 30.8237 19.2908 30.8687 19.2908V17.6908C30.8177 17.6908 30.7665 17.691 30.7152 17.6917L30.7339 19.2915ZM30.0691 18.5162L30.0692 18.5197L31.6684 18.4688L31.6683 18.4653L30.0691 18.5162ZM35.4447 18.9622C33.675 18.0066 32.2643 17.7286 30.8886 17.6945L30.849 19.294C31.9871 19.3222 33.1488 19.5408 34.6844 20.3701L35.4447 18.9622ZM45.0242 8.5098C40.1595 9.80524 35.8118 12.9286 34.2854 19.4847L35.8437 19.8475C37.2093 13.982 41.0194 11.232 45.4359 10.0559L45.0242 8.5098ZM46.3234 9.95048C46.6428 9.11313 45.8799 8.28193 45.0242 8.5098L45.4359 10.0559C45.0412 10.161 44.6791 9.7718 44.8284 9.38024L46.3234 9.95048Z" fill="#212529"/>
<path d="M17.2057 27.5576H44.0456V46.7046C44.0456 48.9137 42.2548 50.7046 40.0456 50.7046H21.2057C18.9965 50.7046 17.2057 48.9137 17.2057 46.7046V27.5576Z" fill="#495057" stroke="#212529" stroke-width="1.8" stroke-linejoin="round"/>
<rect x="12.3463" y="24.7314" width="36.5588" height="2.82639" rx="1.4132" fill="#495057" stroke="#212529" stroke-width="1.6" stroke-linejoin="round"/>
<path d="M43.9019 33.3706H17.2228" stroke="#212529" stroke-width="1.4" stroke-linecap="round" stroke-linejoin="round"/>
<path d="M37.5095 17.7269C37.9922 16.6898 38.9694 15.2994 40.2438 14.48" stroke="#212529" stroke-width="0.8" stroke-linecap="round" stroke-linejoin="round"/>
<path d="M47.8944 17.1643L49.786 14.0552" stroke="#212529" stroke-width="1.4" stroke-linecap="round" stroke-linejoin="round"/>
<path d="M52.9228 18.7607L49.2081 20.1641" stroke="#212529" stroke-width="1.4" stroke-linecap="round" stroke-linejoin="round"/>
<g style="mix-blend-mode:multiply">
<path fill-rule="evenodd" clip-rule="evenodd" d="M45.4769 9.97693C44.0812 13.5597 41.0184 19.9065 37.8431 21.7588C38.5258 22.2634 39.9447 23.5754 40.1585 24.7865H38.1435C37.8647 23.6084 36.5132 22.3625 35.852 21.8739C38.9035 20.0938 41.8509 14.1631 43.3149 10.5235C43.7108 10.3076 44.0894 10.1083 44.4421 9.92258C44.653 9.81157 44.8546 9.70543 45.045 9.60356C45.2926 9.47118 45.5788 9.71537 45.4769 9.97693ZM32.9911 18.8591C33.0184 18.8736 33.0458 18.8883 33.0733 18.9032C33.0748 18.8968 33.0763 18.8905 33.0778 18.8841C33.0488 18.8756 33.0199 18.8673 32.9911 18.8591Z" fill="#E9ECEF"/>
</g>
<g style="mix-blend-mode:multiply" opacity="0.2">
<path fill-rule="evenodd" clip-rule="evenodd" d="M37.8296 49.7995H40.1284C41.7852 49.7995 43.1284 48.4564 43.1284 46.7995V28.4629H41.8296V45.7995C41.8296 48.0086 40.0387 49.7995 37.8296 49.7995Z" fill="#495057"/>
</g>
</svg>
