<svg width="60" height="60" viewBox="0 0 60 60" fill="none" xmlns="http://www.w3.org/2000/svg">
<mask id="path-1-outside-1_50_6113" maskUnits="userSpaceOnUse" x="7.70374" y="9.13721" width="46" height="43" fill="black">
<rect fill="white" x="7.70374" y="9.13721" width="46" height="43"/>
<path fill-rule="evenodd" clip-rule="evenodd" d="M46.7331 15.8299C47.4617 14.1629 45.7666 12.4678 44.0995 13.1964L38.7138 15.5502L34.319 11.6473C32.9587 10.4392 30.8227 11.5275 31.0005 13.3381L31.5749 19.1877L26.5049 22.1613C24.9356 23.0817 25.3106 25.4494 27.0875 25.8399L29.8682 26.4509L10.5835 44.8368C9.44894 45.9186 9.40607 47.7153 10.4878 48.8499C11.5695 49.9845 13.3663 50.0274 14.5009 48.9456L33.6223 30.7153L34.0896 32.842C34.48 34.6189 36.8477 34.9939 37.7682 33.4246L40.7418 28.3546L46.5913 28.929C48.402 29.1068 49.4903 26.9708 48.2822 25.6105L44.3793 21.2157L46.7331 15.8299ZM32.2238 26.9684L32.8282 27.1012L33.1203 28.4306L13.1208 47.4981C12.7856 47.8176 12.2549 47.805 11.9353 47.4698C11.6158 47.1346 11.6285 46.6039 11.9636 46.2844L32.2238 26.9684ZM35.3154 29.1011L36.043 32.4128L39.0166 27.3428C39.4112 26.67 40.161 26.288 40.9372 26.3642L46.7868 26.9385L42.8838 22.5438C42.3659 21.9606 42.2343 21.1295 42.5466 20.4148L44.9005 15.029L39.5147 17.3828C38.8 17.6952 37.9689 17.5636 37.3857 17.0456L32.9909 13.1427L33.5653 18.9922C33.6415 19.7685 33.2595 20.5182 32.5867 20.9128L27.5167 23.8865L31.6138 24.7867L31.8875 24.5257C33.0221 23.444 34.8188 23.4868 35.9005 24.6215C36.9823 25.7561 36.9394 27.5528 35.8048 28.6345L35.3154 29.1011ZM22.7406 13.9234C22.9073 13.8506 23.0768 14.0201 23.0039 14.1868L22.5704 15.1788C22.5391 15.2502 22.5523 15.3334 22.6041 15.3917L23.323 16.2011C23.4438 16.3372 23.3349 16.5508 23.1539 16.533L22.0765 16.4272C21.9988 16.4196 21.9239 16.4578 21.8844 16.5251L21.3367 17.4589C21.2447 17.6158 21.0079 17.5783 20.9688 17.4006L20.7365 16.3432C20.7198 16.2671 20.6603 16.2076 20.5841 16.1908L19.5267 15.9585C19.349 15.9195 19.3115 15.6827 19.4685 15.5906L20.4023 15.0429C20.4696 15.0035 20.5078 14.9285 20.5002 14.8509L20.3944 13.7735C20.3766 13.5924 20.5902 13.4836 20.7262 13.6044L21.5357 14.3233C21.594 14.3751 21.6771 14.3882 21.7486 14.357L22.7406 13.9234ZM51.5034 38.7688C51.684 38.7902 51.797 38.5787 51.6789 38.4404L50.3965 36.9381C50.3459 36.8787 50.3343 36.7954 50.367 36.7245L51.1933 34.9305C51.2694 34.7652 51.1032 34.5924 50.9351 34.662L49.1101 35.4174C49.038 35.4473 48.9552 35.4325 48.8979 35.3795L47.447 34.0393C47.3133 33.9158 47.0976 34.0204 47.1119 34.2018L47.2663 36.171C47.2724 36.2487 47.2328 36.323 47.1647 36.3611L45.4417 37.3268C45.283 37.4158 45.3158 37.6532 45.4927 37.6958L47.4133 38.1573C47.4891 38.1756 47.5474 38.2362 47.5627 38.3127L47.9487 40.2499C47.9842 40.4283 48.2202 40.4704 48.3153 40.3153L49.3478 38.6314C49.3886 38.5649 49.4643 38.5282 49.5418 38.5373L51.5034 38.7688Z"/>
</mask>
<path fill-rule="evenodd" clip-rule="evenodd" d="M46.7331 15.8299C47.4617 14.1629 45.7666 12.4678 44.0995 13.1964L38.7138 15.5502L34.319 11.6473C32.9587 10.4392 30.8227 11.5275 31.0005 13.3381L31.5749 19.1877L26.5049 22.1613C24.9356 23.0817 25.3106 25.4494 27.0875 25.8399L29.8682 26.4509L10.5835 44.8368C9.44894 45.9186 9.40607 47.7153 10.4878 48.8499C11.5695 49.9845 13.3663 50.0274 14.5009 48.9456L33.6223 30.7153L34.0896 32.842C34.48 34.6189 36.8477 34.9939 37.7682 33.4246L40.7418 28.3546L46.5913 28.929C48.402 29.1068 49.4903 26.9708 48.2822 25.6105L44.3793 21.2157L46.7331 15.8299ZM32.2238 26.9684L32.8282 27.1012L33.1203 28.4306L13.1208 47.4981C12.7856 47.8176 12.2549 47.805 11.9353 47.4698C11.6158 47.1346 11.6285 46.6039 11.9636 46.2844L32.2238 26.9684ZM35.3154 29.1011L36.043 32.4128L39.0166 27.3428C39.4112 26.67 40.161 26.288 40.9372 26.3642L46.7868 26.9385L42.8838 22.5438C42.3659 21.9606 42.2343 21.1295 42.5466 20.4148L44.9005 15.029L39.5147 17.3828C38.8 17.6952 37.9689 17.5636 37.3857 17.0456L32.9909 13.1427L33.5653 18.9922C33.6415 19.7685 33.2595 20.5182 32.5867 20.9128L27.5167 23.8865L31.6138 24.7867L31.8875 24.5257C33.0221 23.444 34.8188 23.4868 35.9005 24.6215C36.9823 25.7561 36.9394 27.5528 35.8048 28.6345L35.3154 29.1011ZM22.7406 13.9234C22.9073 13.8506 23.0768 14.0201 23.0039 14.1868L22.5704 15.1788C22.5391 15.2502 22.5523 15.3334 22.6041 15.3917L23.323 16.2011C23.4438 16.3372 23.3349 16.5508 23.1539 16.533L22.0765 16.4272C21.9988 16.4196 21.9239 16.4578 21.8844 16.5251L21.3367 17.4589C21.2447 17.6158 21.0079 17.5783 20.9688 17.4006L20.7365 16.3432C20.7198 16.2671 20.6603 16.2076 20.5841 16.1908L19.5267 15.9585C19.349 15.9195 19.3115 15.6827 19.4685 15.5906L20.4023 15.0429C20.4696 15.0035 20.5078 14.9285 20.5002 14.8509L20.3944 13.7735C20.3766 13.5924 20.5902 13.4836 20.7262 13.6044L21.5357 14.3233C21.594 14.3751 21.6771 14.3882 21.7486 14.357L22.7406 13.9234ZM51.5034 38.7688C51.684 38.7902 51.797 38.5787 51.6789 38.4404L50.3965 36.9381C50.3459 36.8787 50.3343 36.7954 50.367 36.7245L51.1933 34.9305C51.2694 34.7652 51.1032 34.5924 50.9351 34.662L49.1101 35.4174C49.038 35.4473 48.9552 35.4325 48.8979 35.3795L47.447 34.0393C47.3133 33.9158 47.0976 34.0204 47.1119 34.2018L47.2663 36.171C47.2724 36.2487 47.2328 36.323 47.1647 36.3611L45.4417 37.3268C45.283 37.4158 45.3158 37.6532 45.4927 37.6958L47.4133 38.1573C47.4891 38.1756 47.5474 38.2362 47.5627 38.3127L47.9487 40.2499C47.9842 40.4283 48.2202 40.4704 48.3153 40.3153L49.3478 38.6314C49.3886 38.5649 49.4643 38.5282 49.5418 38.5373L51.5034 38.7688Z" fill="#F8F9FA"/>
<path d="M44.0995 13.1964L44.7003 14.5708L44.7003 14.5708L44.0995 13.1964ZM46.7331 15.8299L45.3586 15.2292L45.3586 15.2292L46.7331 15.8299ZM38.7138 15.5502L37.7177 16.6718C38.1551 17.0602 38.7785 17.159 39.3145 16.9247L38.7138 15.5502ZM34.319 11.6473L33.323 12.7688L33.323 12.7688L34.319 11.6473ZM31.0005 13.3381L32.4933 13.1916L32.4933 13.1916L31.0005 13.3381ZM31.5749 19.1877L32.3337 20.4816C32.8383 20.1856 33.1249 19.6233 33.0677 19.0411L31.5749 19.1877ZM26.5049 22.1613L27.2638 23.4552L27.2638 23.4552L26.5049 22.1613ZM27.0875 25.8399L26.7656 27.3049L26.7656 27.3049L27.0875 25.8399ZM29.8682 26.4509L30.9033 27.5365C31.3046 27.1539 31.4621 26.581 31.3128 26.047C31.1635 25.5129 30.7317 25.1048 30.1901 24.9858L29.8682 26.4509ZM10.5835 44.8368L9.54849 43.7512L9.54849 43.7512L10.5835 44.8368ZM10.4878 48.8499L9.40215 49.8849L9.40215 49.8849L10.4878 48.8499ZM14.5009 48.9456L13.4658 47.86L13.4658 47.86L14.5009 48.9456ZM33.6223 30.7153L35.0874 30.3934C34.9711 29.8643 34.5786 29.439 34.0606 29.2807C33.5425 29.1224 32.9793 29.2558 32.5873 29.6296L33.6223 30.7153ZM34.0896 32.842L35.5547 32.5201L35.5547 32.5201L34.0896 32.842ZM37.7682 33.4246L39.0621 34.1835L39.0621 34.1835L37.7682 33.4246ZM40.7418 28.3546L40.8884 26.8618C40.3062 26.8046 39.7439 27.0911 39.4479 27.5957L40.7418 28.3546ZM46.5913 28.929L46.4448 30.4218L46.4448 30.4218L46.5913 28.929ZM48.2822 25.6105L49.4038 24.6144L49.4038 24.6144L48.2822 25.6105ZM44.3793 21.2157L43.0048 20.615C42.7705 21.151 42.8692 21.7743 43.2577 22.2117L44.3793 21.2157ZM32.8282 27.1012L34.2933 26.7793C34.1678 26.208 33.7215 25.7617 33.1502 25.6362L32.8282 27.1012ZM32.2238 26.9684L32.5457 25.5034C32.0584 25.3963 31.5498 25.5385 31.1887 25.8828L32.2238 26.9684ZM33.1203 28.4306L34.1554 29.5162C34.5349 29.1544 34.6979 28.6207 34.5854 28.1087L33.1203 28.4306ZM13.1208 47.4981L12.0857 46.4124L12.0857 46.4124L13.1208 47.4981ZM11.9353 47.4698L10.8497 48.5049L10.8497 48.5049L11.9353 47.4698ZM11.9636 46.2844L12.9987 47.37L12.9987 47.37L11.9636 46.2844ZM36.043 32.4128L34.578 32.7347C34.7104 33.3376 35.1987 33.7977 35.8084 33.8943C36.418 33.9909 37.0246 33.7041 37.3369 33.1716L36.043 32.4128ZM35.3154 29.1011L34.2803 28.0155C33.9008 28.3772 33.7378 28.9109 33.8503 29.423L35.3154 29.1011ZM39.0166 27.3428L40.3105 28.1017L40.3105 28.1017L39.0166 27.3428ZM40.9372 26.3642L40.7907 27.857L40.7907 27.857L40.9372 26.3642ZM46.7868 26.9385L46.6402 28.4314C47.2545 28.4917 47.8431 28.1695 48.1233 27.6195C48.4035 27.0695 48.3182 26.404 47.9083 25.9425L46.7868 26.9385ZM42.8838 22.5438L41.7623 23.5398L41.7623 23.5398L42.8838 22.5438ZM42.5466 20.4148L43.9211 21.0155L43.9211 21.0155L42.5466 20.4148ZM44.9005 15.029L46.275 15.6297C46.5222 15.0641 46.3976 14.4048 45.9612 13.9683C45.5247 13.5319 44.8654 13.4073 44.2998 13.6545L44.9005 15.029ZM39.5147 17.3828L38.914 16.0084L38.914 16.0084L39.5147 17.3828ZM37.3857 17.0456L36.3897 18.1672L36.3897 18.1672L37.3857 17.0456ZM32.9909 13.1427L33.987 12.0211C33.5254 11.6113 32.8599 11.526 32.31 11.8062C31.76 12.0864 31.4378 12.675 31.4981 13.2893L32.9909 13.1427ZM33.5653 18.9922L35.0581 18.8457L35.0581 18.8457L33.5653 18.9922ZM32.5867 20.9128L33.3456 22.2067L33.3456 22.2067L32.5867 20.9128ZM27.5167 23.8865L26.7578 22.5926C26.2254 22.9049 25.9386 23.5114 26.0352 24.1211C26.1317 24.7308 26.5919 25.219 27.1948 25.3515L27.5167 23.8865ZM31.6138 24.7867L31.2919 26.2517C31.7791 26.3588 32.2877 26.2166 32.6488 25.8723L31.6138 24.7867ZM31.8875 24.5257L32.9225 25.6114L32.9225 25.6114L31.8875 24.5257ZM35.9005 24.6215L34.8149 25.6565L34.8149 25.6565L35.9005 24.6215ZM35.8048 28.6345L34.7697 27.5489L34.7697 27.5489L35.8048 28.6345ZM23.0039 14.1868L24.3784 14.7875L24.3784 14.7875L23.0039 14.1868ZM22.7406 13.9234L22.1399 12.549L22.1398 12.549L22.7406 13.9234ZM22.5704 15.1788L23.9448 15.7795L23.9448 15.7795L22.5704 15.1788ZM22.6041 15.3917L21.4825 16.3877L21.4825 16.3877L22.6041 15.3917ZM23.323 16.2011L22.2014 17.1972L22.2014 17.1972L23.323 16.2011ZM23.1539 16.533L23.0073 18.0258L23.0073 18.0258L23.1539 16.533ZM22.0765 16.4272L21.9299 17.92L21.9299 17.92L22.0765 16.4272ZM21.8844 16.5251L23.1783 17.2839L23.1783 17.2839L21.8844 16.5251ZM21.3367 17.4589L22.6306 18.2178L22.6306 18.2178L21.3367 17.4589ZM20.9688 17.4006L22.4339 17.0787L22.4339 17.0787L20.9688 17.4006ZM20.7365 16.3432L19.2715 16.6651L19.2715 16.6652L20.7365 16.3432ZM20.5841 16.1908L20.906 14.7258L20.906 14.7258L20.5841 16.1908ZM19.5267 15.9585L19.8486 14.4934L19.8486 14.4934L19.5267 15.9585ZM19.4685 15.5906L18.7096 14.2968L18.7096 14.2968L19.4685 15.5906ZM20.4023 15.0429L21.1612 16.3368L21.1612 16.3368L20.4023 15.0429ZM20.5002 14.8509L21.993 14.7043L21.993 14.7043L20.5002 14.8509ZM20.3944 13.7735L21.8872 13.6269L21.8872 13.6269L20.3944 13.7735ZM20.7262 13.6044L21.7223 12.4828L21.7223 12.4828L20.7262 13.6044ZM21.5357 14.3233L20.5396 15.4448L20.5396 15.4448L21.5357 14.3233ZM21.7486 14.357L21.1479 12.9825L21.1479 12.9825L21.7486 14.357ZM51.6789 38.4404L50.5381 39.4142L50.5381 39.4142L51.6789 38.4404ZM51.5034 38.7688L51.6792 37.2792L51.6791 37.2792L51.5034 38.7688ZM50.3965 36.9381L49.2556 37.9119L49.2556 37.9119L50.3965 36.9381ZM50.367 36.7245L49.0045 36.097L49.0045 36.097L50.367 36.7245ZM51.1933 34.9305L52.5557 35.558L52.5557 35.558L51.1933 34.9305ZM50.9351 34.662L51.5088 36.048L51.5088 36.048L50.9351 34.662ZM49.1101 35.4174L48.5364 34.0315L48.5364 34.0315L49.1101 35.4174ZM48.8979 35.3795L47.88 36.4814L47.8801 36.4814L48.8979 35.3795ZM47.447 34.0393L46.4291 35.1411L46.4291 35.1411L47.447 34.0393ZM47.1119 34.2018L48.6073 34.0845L48.6073 34.0845L47.1119 34.2018ZM47.2663 36.171L45.7709 36.2883L45.7709 36.2884L47.2663 36.171ZM47.1647 36.3611L47.8981 37.6696L47.8981 37.6696L47.1647 36.3611ZM45.4417 37.3268L44.7083 36.0183L44.7083 36.0183L45.4417 37.3268ZM45.4927 37.6958L45.1422 39.1542L45.1422 39.1542L45.4927 37.6958ZM47.4133 38.1573L47.7638 36.6989L47.7638 36.6989L47.4133 38.1573ZM47.5627 38.3127L49.0338 38.0196L49.0338 38.0196L47.5627 38.3127ZM47.9487 40.2499L46.4776 40.543L46.4776 40.543L47.9487 40.2499ZM48.3153 40.3153L49.5941 41.0994L49.5941 41.0994L48.3153 40.3153ZM49.3478 38.6314L50.6266 39.4155L50.6266 39.4155L49.3478 38.6314ZM49.5418 38.5373L49.7175 37.0477L49.7175 37.0477L49.5418 38.5373ZM44.7003 14.5708C45.117 14.3887 45.5408 14.8125 45.3586 15.2292L48.1076 16.4306C49.3826 13.5133 46.4162 10.5469 43.4988 11.8219L44.7003 14.5708ZM39.3145 16.9247L44.7003 14.5708L43.4988 11.8219L38.1131 14.1758L39.3145 16.9247ZM33.323 12.7688L37.7177 16.6718L39.7098 14.4287L35.315 10.5257L33.323 12.7688ZM32.4933 13.1916C32.4489 12.7389 32.9829 12.4668 33.323 12.7688L35.315 10.5257C32.9345 8.41157 29.1966 10.3161 29.5077 13.4847L32.4933 13.1916ZM33.0677 19.0411L32.4933 13.1916L29.5077 13.4847L30.082 19.3343L33.0677 19.0411ZM27.2638 23.4552L32.3337 20.4816L30.816 17.8938L25.746 20.8674L27.2638 23.4552ZM27.4094 24.3748C26.9652 24.2772 26.8714 23.6853 27.2638 23.4552L25.746 20.8674C22.9997 22.4782 23.6559 26.6217 26.7656 27.3049L27.4094 24.3748ZM30.1901 24.9858L27.4094 24.3748L26.7656 27.3049L29.5463 27.9159L30.1901 24.9858ZM11.6186 45.9225L30.9033 27.5365L28.8332 25.3652L9.54849 43.7512L11.6186 45.9225ZM11.5735 47.8148C11.0634 47.2798 11.0836 46.4326 11.6186 45.9225L9.54849 43.7512C7.81428 45.4046 7.74877 48.1507 9.40215 49.8849L11.5735 47.8148ZM13.4658 47.86C12.9308 48.3701 12.0836 48.3498 11.5735 47.8148L9.40215 49.8849C11.0555 51.6191 13.8017 51.6847 15.5359 50.0313L13.4658 47.86ZM32.5873 29.6296L13.4658 47.86L15.5359 50.0313L34.6574 31.8009L32.5873 29.6296ZM35.5547 32.5201L35.0874 30.3934L32.1573 31.0372L32.6246 33.1639L35.5547 32.5201ZM36.4743 32.6657C36.2442 33.0581 35.6523 32.9643 35.5547 32.5201L32.6246 33.1639C33.3078 36.2735 37.4513 36.9298 39.0621 34.1835L36.4743 32.6657ZM39.4479 27.5957L36.4743 32.6657L39.0621 34.1835L42.0357 29.1135L39.4479 27.5957ZM46.7379 27.4361L40.8884 26.8618L40.5952 29.8474L46.4448 30.4218L46.7379 27.4361ZM47.1606 26.6065C47.4627 26.9466 47.1906 27.4806 46.7379 27.4361L46.4448 30.4218C49.6134 30.7329 51.5179 26.995 49.4038 24.6144L47.1606 26.6065ZM43.2577 22.2117L47.1606 26.6065L49.4038 24.6144L45.5008 20.2197L43.2577 22.2117ZM45.3586 15.2292L43.0048 20.615L45.7537 21.8164L48.1076 16.4306L45.3586 15.2292ZM33.1502 25.6362L32.5457 25.5034L31.9018 28.4335L32.5063 28.5663L33.1502 25.6362ZM34.5854 28.1087L34.2933 26.7793L31.3632 27.4231L31.6553 28.7525L34.5854 28.1087ZM14.1558 48.5837L34.1554 29.5162L32.0853 27.3449L12.0857 46.4124L14.1558 48.5837ZM10.8497 48.5049C11.7409 49.4396 13.2211 49.4749 14.1558 48.5837L12.0857 46.4124C12.3502 46.1603 12.7689 46.1703 13.021 46.4347L10.8497 48.5049ZM10.9286 45.1987C9.99382 46.0899 9.95851 47.5701 10.8497 48.5049L13.021 46.4347C13.2731 46.6992 13.2631 47.1179 12.9987 47.37L10.9286 45.1987ZM31.1887 25.8828L10.9286 45.1987L12.9987 47.37L33.2588 28.0541L31.1887 25.8828ZM37.5081 32.0909L36.7804 28.7792L33.8503 29.423L34.578 32.7347L37.5081 32.0909ZM37.7228 26.5839L34.7491 31.6539L37.3369 33.1716L40.3105 28.1017L37.7228 26.5839ZM41.0838 24.8714C39.7254 24.738 38.4133 25.4065 37.7228 26.5839L40.3105 28.1017C40.4092 27.9335 40.5966 27.838 40.7907 27.857L41.0838 24.8714ZM46.9334 25.4457L41.0838 24.8714L40.7907 27.857L46.6402 28.4314L46.9334 25.4457ZM41.7623 23.5398L45.6652 27.9346L47.9083 25.9425L44.0054 21.5477L41.7623 23.5398ZM41.1722 19.814C40.6255 21.0648 40.8559 22.5192 41.7623 23.5398L44.0054 21.5477C43.8759 21.4019 43.843 21.1941 43.9211 21.0155L41.1722 19.814ZM43.526 14.4283L41.1722 19.814L43.9211 21.0155L46.275 15.6297L43.526 14.4283ZM40.1154 18.7573L45.5012 16.4035L44.2998 13.6545L38.914 16.0084L40.1154 18.7573ZM36.3897 18.1672C37.4103 19.0736 38.8647 19.3039 40.1154 18.7573L38.914 16.0084C38.7353 16.0865 38.5276 16.0536 38.3818 15.9241L36.3897 18.1672ZM31.9949 14.2643L36.3897 18.1672L38.3818 15.9241L33.987 12.0211L31.9949 14.2643ZM35.0581 18.8457L34.4838 12.9961L31.4981 13.2893L32.0725 19.1388L35.0581 18.8457ZM33.3456 22.2067C34.523 21.5162 35.1915 20.2041 35.0581 18.8457L32.0725 19.1388C32.0915 19.3329 31.996 19.5203 31.8278 19.619L33.3456 22.2067ZM28.2756 25.1803L33.3456 22.2067L31.8278 19.619L26.7578 22.5926L28.2756 25.1803ZM31.9357 23.3216L27.8386 22.4214L27.1948 25.3515L31.2919 26.2517L31.9357 23.3216ZM30.8524 23.4401L30.5787 23.701L32.6488 25.8723L32.9225 25.6114L30.8524 23.4401ZM36.9862 23.5864C35.3328 21.8522 32.5866 21.7867 30.8524 23.4401L32.9225 25.6114C33.4575 25.1013 34.3048 25.1215 34.8149 25.6565L36.9862 23.5864ZM36.8398 29.7202C38.574 28.0668 38.6396 25.3206 36.9862 23.5864L34.8149 25.6565C35.325 26.1915 35.3047 27.0388 34.7697 27.5489L36.8398 29.7202ZM36.3504 30.1868L36.8398 29.7202L34.7697 27.5489L34.2803 28.0155L36.3504 30.1868ZM24.3784 14.7875C24.9977 13.3705 23.5569 11.9297 22.1399 12.549L23.3413 15.2979C22.2577 15.7715 21.1559 14.6697 21.6295 13.5861L24.3784 14.7875ZM23.9448 15.7795L24.3784 14.7875L21.6295 13.5861L21.1959 14.5781L23.9448 15.7795ZM23.7257 14.3956C24.0623 14.7747 24.1479 15.3149 23.9448 15.7795L21.1959 14.5781C20.9304 15.1856 21.0423 15.892 21.4825 16.3877L23.7257 14.3956ZM24.4445 15.2051L23.7256 14.3956L21.4825 16.3877L22.2014 17.1972L24.4445 15.2051ZM23.0073 18.0258C24.5463 18.1769 25.4714 16.3614 24.4445 15.2051L22.2014 17.1972C21.4161 16.313 22.1235 14.9246 23.3004 15.0402L23.0073 18.0258ZM21.9299 17.92L23.0073 18.0258L23.3005 15.0402L22.223 14.9344L21.9299 17.92ZM23.1783 17.2839C22.9218 17.7213 22.4344 17.9696 21.9299 17.92L22.223 14.9344C21.5632 14.8696 20.9259 15.1943 20.5905 15.7662L23.1783 17.2839ZM22.6306 18.2178L23.1783 17.2839L20.5905 15.7662L20.0428 16.7L22.6306 18.2178ZM19.5038 17.7225C19.8357 19.2329 21.8482 19.5517 22.6306 18.2178L20.0428 16.7C20.6411 15.6799 22.1801 15.9237 22.4339 17.0787L19.5038 17.7225ZM19.2715 16.6652L19.5038 17.7225L22.4339 17.0787L22.2016 16.0213L19.2715 16.6652ZM20.2622 17.6559C19.767 17.5471 19.3803 17.1603 19.2715 16.6651L22.2016 16.0214C22.0593 15.3738 21.5535 14.8681 20.906 14.7258L20.2622 17.6559ZM19.2048 17.4236L20.2622 17.6559L20.906 14.7258L19.8486 14.4934L19.2048 17.4236ZM18.7096 14.2968C17.3757 15.0791 17.6944 17.0917 19.2048 17.4236L19.8486 14.4934C21.0037 14.7472 21.2474 16.2862 20.2273 16.8845L18.7096 14.2968ZM19.6434 13.7491L18.7096 14.2968L20.2273 16.8845L21.1612 16.3368L19.6434 13.7491ZM19.0073 14.9975C18.9578 14.4929 19.2061 14.0056 19.6434 13.7491L21.1612 16.3368C21.733 16.0014 22.0578 15.3641 21.993 14.7043L19.0073 14.9975ZM18.9015 13.92L19.0073 14.9975L21.993 14.7043L21.8872 13.6269L18.9015 13.92ZM21.7223 12.4828C20.566 11.4559 18.7504 12.381 18.9015 13.9201L21.8872 13.6269C22.0027 14.8038 20.6144 15.5112 19.7302 14.726L21.7223 12.4828ZM22.5317 13.2017L21.7223 12.4828L19.7302 14.7259L20.5396 15.4448L22.5317 13.2017ZM21.1479 12.9825C21.6124 12.7795 22.1526 12.865 22.5317 13.2017L20.5396 15.4448C21.0354 15.8851 21.7418 15.997 22.3493 15.7314L21.1479 12.9825ZM22.1398 12.549L21.1479 12.9825L22.3493 15.7314L23.3413 15.2979L22.1398 12.549ZM50.5381 39.4142C49.7703 38.5148 50.5047 37.1406 51.6792 37.2792L51.3276 40.2585C52.8634 40.4397 53.8238 38.6427 52.8198 37.4665L50.5381 39.4142ZM49.2556 37.9119L50.5381 39.4142L52.8198 37.4665L51.5373 35.9642L49.2556 37.9119ZM49.0045 36.097C48.7272 36.6992 48.8252 37.4077 49.2556 37.9119L51.5374 35.9642C51.8665 36.3498 51.9415 36.8916 51.7294 37.3521L49.0045 36.097ZM49.8308 34.303L49.0045 36.097L51.7294 37.3521L52.5557 35.558L49.8308 34.303ZM51.5088 36.048C50.4161 36.5003 49.3361 35.3771 49.8308 34.303L52.5557 35.558C53.2026 34.1534 51.7903 32.6846 50.3615 33.276L51.5088 36.048ZM49.6837 36.8034L51.5088 36.048L50.3615 33.276L48.5364 34.0315L49.6837 36.8034ZM47.8801 36.4814C48.3671 36.9312 49.0711 37.057 49.6838 36.8034L48.5364 34.0315C49.0049 33.8376 49.5433 33.9337 49.9157 34.2777L47.8801 36.4814ZM46.4291 35.1411L47.88 36.4814L49.9157 34.2777L48.4648 32.9374L46.4291 35.1411ZM48.6073 34.0845C48.6998 35.2634 47.2978 35.9436 46.4291 35.1411L48.4648 32.9374C47.3288 31.8881 45.4955 32.7775 45.6165 34.3191L48.6073 34.0845ZM48.7617 36.0537L48.6073 34.0845L45.6165 34.3191L45.7709 36.2883L48.7617 36.0537ZM47.8981 37.6696C48.4764 37.3454 48.8136 36.7146 48.7617 36.0536L45.7709 36.2884C45.7313 35.7828 45.9891 35.3005 46.4313 35.0526L47.8981 37.6696ZM46.1751 38.6353L47.8981 37.6696L46.4314 35.0526L44.7083 36.0183L46.1751 38.6353ZM45.8433 36.2373C46.9931 36.5137 47.2067 38.0571 46.1751 38.6353L44.7083 36.0183C43.3593 36.7744 43.6386 38.7928 45.1422 39.1542L45.8433 36.2373ZM47.7638 36.6989L45.8433 36.2373L45.1422 39.1542L47.0627 39.6158L47.7638 36.6989ZM49.0338 38.0196C48.9042 37.3694 48.4084 36.8538 47.7638 36.6989L47.0627 39.6158C46.5698 39.4973 46.1907 39.1031 46.0916 38.6059L49.0338 38.0196ZM49.4198 39.9567L49.0338 38.0196L46.0916 38.6059L46.4776 40.543L49.4198 39.9567ZM47.0366 39.5312C47.6547 38.5231 49.1887 38.797 49.4198 39.9567L46.4776 40.543C46.7798 42.0596 48.7857 42.4178 49.5941 41.0994L47.0366 39.5312ZM48.0691 37.8474L47.0366 39.5312L49.5941 41.0994L50.6266 39.4155L48.0691 37.8474ZM49.7175 37.0477C49.0591 36.97 48.4156 37.2821 48.069 37.8474L50.6266 39.4155C50.3616 39.8477 49.8694 40.0864 49.366 40.027L49.7175 37.0477ZM51.6791 37.2792L49.7175 37.0477L49.366 40.027L51.3276 40.2585L51.6791 37.2792Z" fill="#F8F9FA" mask="url(#path-1-outside-1_50_6113)"/>
<rect x="33.9308" y="24.0171" width="3.67693" height="33.1116" rx="1.83847" transform="rotate(46.3391 33.9308 24.0171)" fill="#CC5DE8" stroke="#212529" stroke-width="2" stroke-linecap="round" stroke-linejoin="round"/>
<path d="M44.5288 14.1542C45.3624 13.7899 46.2099 14.6375 45.8456 15.471L43.4917 20.8568C43.3356 21.2141 43.4014 21.6297 43.6603 21.9213L47.5633 26.3161C48.1673 26.9962 47.6232 28.0642 46.7179 27.9753L40.8683 27.401C40.4802 27.3628 40.1053 27.5539 39.908 27.8903L36.9344 32.9602C36.4742 33.7449 35.2903 33.5574 35.0951 32.6689L33.8338 26.9282C33.7501 26.5473 33.4526 26.2498 33.0717 26.1661L27.3309 24.9047C26.4424 24.7095 26.2549 23.5257 27.0396 23.0654L32.1096 20.0918C32.446 19.8945 32.637 19.5196 32.5989 19.1315L32.0245 13.282C31.9356 12.3767 33.0036 11.8325 33.6838 12.4365L38.0786 16.3395C38.3702 16.5985 38.7857 16.6643 39.1431 16.5081L44.5288 14.1542Z" fill="#FFE066" stroke="#212529" stroke-width="2" stroke-linecap="round" stroke-linejoin="round"/>
<path d="M22.7693 13.9652C22.936 13.8923 23.1056 14.0618 23.0327 14.2285L22.5991 15.2205C22.5679 15.292 22.5811 15.3751 22.6329 15.4334L23.3517 16.2429C23.4725 16.3789 23.3637 16.5925 23.1827 16.5747L22.1052 16.4689C22.0276 16.4613 21.9526 16.4995 21.9132 16.5668L21.3655 17.5006C21.2734 17.6576 21.0367 17.6201 20.9976 17.4424L20.7653 16.385C20.7486 16.3088 20.6891 16.2493 20.6129 16.2326L19.5555 16.0002C19.3778 15.9612 19.3403 15.7244 19.4972 15.6324L20.4311 15.0847C20.4984 15.0452 20.5366 14.9703 20.5289 14.8926L20.4231 13.8152C20.4054 13.6342 20.619 13.5253 20.755 13.6461L21.5645 14.365C21.6228 14.4168 21.7059 14.43 21.7774 14.3987L22.7693 13.9652Z" fill="#212529"/>
<path d="M51.7077 38.4817C51.8258 38.6201 51.7129 38.8315 51.5322 38.8102L49.5706 38.5787C49.4931 38.5695 49.4174 38.6063 49.3766 38.6728L48.3441 40.3566C48.249 40.5117 48.0131 40.4696 47.9775 40.2912L47.5915 38.3541C47.5762 38.2776 47.5179 38.2169 47.4421 38.1987L45.5216 37.7371C45.3447 37.6946 45.3118 37.4571 45.4705 37.3682L47.1935 36.4024C47.2616 36.3643 47.3013 36.2901 47.2952 36.2123L47.1407 34.2432C47.1265 34.0618 47.3421 33.9572 47.4758 34.0806L48.9267 35.4209C48.984 35.4738 49.0668 35.4886 49.1389 35.4588L50.9639 34.7033C51.132 34.6338 51.2982 34.8066 51.2221 34.9718L50.3958 36.7659C50.3631 36.8367 50.3747 36.9201 50.4253 36.9794L51.7077 38.4817Z" fill="#212529"/>
</svg>
