<svg width="60" height="61" viewBox="0 0 60 61" fill="none" xmlns="http://www.w3.org/2000/svg">
<mask id="path-1-outside-1_50_1211" maskUnits="userSpaceOnUse" x="4.42053" y="7.72278" width="51" height="49" fill="black">
<rect fill="white" x="4.42053" y="7.72278" width="51" height="49"/>
<path fill-rule="evenodd" clip-rule="evenodd" d="M11.7305 10.2338C11.5088 9.91766 11.1485 9.7275 10.7623 9.72286C10.3762 9.71823 10.0115 9.89969 9.78224 10.2104L6.65484 14.4502C6.38605 14.8146 6.34526 15.2993 6.54937 15.7034C6.75348 16.1076 7.16773 16.3625 7.62054 16.3625H9.79749V49.7044C9.79749 49.7389 9.79923 49.773 9.80265 49.8066C9.85386 50.3109 10.2797 50.7044 10.7975 50.7044L46.4596 50.7044V53.4065C46.4596 53.8541 46.7087 54.2645 47.1058 54.4711C47.5029 54.6776 47.982 54.646 48.3485 54.389L53.0686 51.0792C53.3847 50.8575 53.5749 50.4972 53.5795 50.1111C53.5841 49.7249 53.4027 49.3602 53.0919 49.131L48.3719 45.6493C48.0075 45.3805 47.5228 45.3397 47.1186 45.5438C46.7144 45.7479 46.4596 46.1622 46.4596 46.615V48.7044H11.7975V31.8725C16.5773 31.0945 22.7163 29.375 28.4592 27.2231C33.4904 25.338 38.2831 23.0969 41.6053 20.8277C41.9058 21.0133 42.2598 21.1204 42.639 21.1204C43.7268 21.1204 44.6087 20.2385 44.6087 19.1506C44.6087 18.0627 43.7268 17.1808 42.639 17.1808C41.5511 17.1808 40.6692 18.0627 40.6692 19.1506C40.6692 19.347 40.6979 19.5367 40.7514 19.7157C37.5855 21.8654 32.9492 24.0457 27.968 25.9122C22.3752 28.0077 16.4298 29.6774 11.7975 30.4535V16.3625H13.721C14.1686 16.3625 14.579 16.1134 14.7856 15.7163C14.9921 15.3191 14.9605 14.8401 14.7035 14.4736L11.7305 10.2338ZM38.0583 30.8369C38.1557 30.6761 38.2721 30.5534 38.4075 30.4688C38.5429 30.3799 38.6868 30.3354 38.8391 30.3354C38.983 30.3354 39.1142 30.3714 39.2327 30.4434C39.3554 30.5111 39.4464 30.6042 39.5056 30.7227C39.5691 30.8369 39.6008 30.9639 39.6008 31.1035C39.6008 31.2559 39.5649 31.4019 39.4929 31.5415C38.5662 33.3527 38.1028 34.8783 38.1028 36.1182C38.1028 37.0492 38.2192 37.9653 38.4519 38.8667C38.6847 39.7681 38.9872 40.5404 39.3596 41.1836C39.4739 41.3825 39.531 41.575 39.531 41.7612C39.531 41.884 39.5056 41.994 39.4548 42.0913C39.4041 42.1929 39.3279 42.2733 39.2263 42.3325C39.1036 42.4045 38.9639 42.4404 38.8074 42.4404C38.6508 42.4404 38.5006 42.4045 38.3567 42.3325C38.217 42.2648 38.1028 42.1675 38.0139 42.0405C37.6754 41.5412 37.377 40.9657 37.1189 40.314C36.865 39.6665 36.6661 38.981 36.5222 38.2573C36.3826 37.5337 36.3127 36.8206 36.3127 36.1182C36.3127 35.2972 36.4672 34.436 36.7761 33.5347C37.085 32.6333 37.5125 31.734 38.0583 30.8369ZM33.761 33.23C33.9726 33.23 34.1482 33.3083 34.2878 33.4648C34.4317 33.6214 34.5037 33.8224 34.5037 34.0679C34.5037 34.3048 34.4338 34.4932 34.2942 34.6328C34.1545 34.7725 33.9747 34.8423 33.7546 34.8423H32.6692L32.6755 39.4443C32.6755 39.6898 32.5867 39.8844 32.4089 40.0283C32.2312 40.1722 32.0111 40.2441 31.7488 40.2441C31.4822 40.2441 31.26 40.1722 31.0823 40.0283C30.9088 39.8844 30.822 39.6898 30.822 39.4443L30.8157 34.8423H30.2507C30.0349 34.8423 29.8635 34.7746 29.7366 34.6392C29.6096 34.4995 29.5461 34.3091 29.5461 34.0679C29.5461 33.8224 29.6117 33.6214 29.7429 33.4648C29.8741 33.3083 30.0455 33.23 30.2571 33.23H30.8093C30.8093 32.5571 30.877 32.0282 31.0125 31.6431C31.1479 31.258 31.3679 30.9829 31.6726 30.8179C31.9815 30.6486 32.4026 30.564 32.9358 30.564C33.3717 30.564 33.725 30.6253 33.9958 30.748C34.3556 30.9131 34.5354 31.2008 34.5354 31.6113C34.5354 31.7975 34.4973 31.9393 34.4211 32.0366C34.3492 32.1297 34.2371 32.1953 34.0847 32.2334C34.0212 32.2461 33.9556 32.2524 33.8879 32.2524C33.7864 32.2524 33.6658 32.244 33.5261 32.2271C33.3907 32.2059 33.3103 32.1932 33.2849 32.189C33.2172 32.1805 33.1707 32.1763 33.1453 32.1763C32.9464 32.1763 32.8152 32.244 32.7517 32.3794C32.6925 32.5148 32.6628 32.7179 32.6628 32.9888V33.23H33.761ZM40.6165 39.4062C40.6165 39.4528 40.6249 39.5184 40.6418 39.603C40.6672 39.7131 40.7138 39.8125 40.7815 39.9014C40.8534 39.9902 40.9317 40.0558 41.0164 40.0981C41.1814 40.187 41.3549 40.2314 41.5369 40.2314C41.6977 40.2314 41.8521 40.1934 42.0002 40.1172C42.1484 40.0452 42.2795 39.9331 42.3938 39.7808L44.0505 37.5781L45.866 39.8442C46.0818 40.1108 46.3293 40.2441 46.6086 40.2441C46.7821 40.2441 46.9472 40.2103 47.1038 40.1426C47.2646 40.0749 47.3936 39.9797 47.491 39.8569C47.5883 39.73 47.637 39.584 47.637 39.4189C47.637 39.3258 47.6137 39.2243 47.5671 39.1143C47.5248 39 47.474 38.909 47.4148 38.8413L45.3137 36.3721L47.1545 34.3345C47.2349 34.2456 47.2984 34.1377 47.345 34.0107C47.3915 33.8838 47.4148 33.759 47.4148 33.6362C47.4148 33.4712 47.3661 33.3252 47.2688 33.1982C47.1715 33.0671 47.0445 32.9867 46.8879 32.957C46.7314 32.9274 46.6065 32.9126 46.5134 32.9126C46.3569 32.9126 46.2109 32.9465 46.0754 33.0142C45.9443 33.0776 45.8152 33.1834 45.6882 33.3315L44.095 35.1597L42.5144 33.3062C42.4128 33.1919 42.2901 33.103 42.1462 33.0396C42.0066 32.9761 41.8627 32.9443 41.7146 32.9443C41.4565 32.9443 41.2385 33.0099 41.0608 33.1411C40.8873 33.2723 40.8005 33.4564 40.8005 33.6934C40.8005 33.8118 40.8302 33.9346 40.8894 34.0615C40.9487 34.1842 41.0142 34.2879 41.0862 34.3726L42.8508 36.3911L40.8005 38.9048C40.6778 39.0614 40.6165 39.2285 40.6165 39.4062ZM50.0046 30.8369C50.5505 31.734 50.9779 32.6333 51.2869 33.5347C51.5958 34.436 51.7502 35.2972 51.7502 36.1182C51.7502 36.8206 51.6783 37.5337 51.5344 38.2573C51.3948 38.981 51.1959 39.6665 50.9377 40.314C50.6838 40.9657 50.3876 41.5412 50.0491 42.0405C49.9602 42.1675 49.8438 42.2648 49.7 42.3325C49.5603 42.4045 49.4122 42.4404 49.2556 42.4404C49.099 42.4404 48.9594 42.4045 48.8367 42.3325C48.7351 42.2733 48.6589 42.1929 48.6082 42.0913C48.5574 41.994 48.532 41.884 48.532 41.7612C48.532 41.575 48.5891 41.3825 48.7034 41.1836C49.0758 40.5404 49.3783 39.7681 49.6111 38.8667C49.8438 37.9653 49.9602 37.0492 49.9602 36.1182C49.9602 34.8783 49.4968 33.3527 48.5701 31.5415C48.4981 31.4019 48.4622 31.2559 48.4622 31.1035C48.4622 30.9639 48.4918 30.8369 48.551 30.7227C48.6145 30.6042 48.7076 30.5111 48.8303 30.4434C48.9488 30.3714 49.08 30.3354 49.2239 30.3354C49.3762 30.3354 49.5201 30.3799 49.6555 30.4688C49.7909 30.5534 49.9073 30.6761 50.0046 30.8369Z"/>
</mask>
<path fill-rule="evenodd" clip-rule="evenodd" d="M11.7305 10.2338C11.5088 9.91766 11.1485 9.7275 10.7623 9.72286C10.3762 9.71823 10.0115 9.89969 9.78224 10.2104L6.65484 14.4502C6.38605 14.8146 6.34526 15.2993 6.54937 15.7034C6.75348 16.1076 7.16773 16.3625 7.62054 16.3625H9.79749V49.7044C9.79749 49.7389 9.79923 49.773 9.80265 49.8066C9.85386 50.3109 10.2797 50.7044 10.7975 50.7044L46.4596 50.7044V53.4065C46.4596 53.8541 46.7087 54.2645 47.1058 54.4711C47.5029 54.6776 47.982 54.646 48.3485 54.389L53.0686 51.0792C53.3847 50.8575 53.5749 50.4972 53.5795 50.1111C53.5841 49.7249 53.4027 49.3602 53.0919 49.131L48.3719 45.6493C48.0075 45.3805 47.5228 45.3397 47.1186 45.5438C46.7144 45.7479 46.4596 46.1622 46.4596 46.615V48.7044H11.7975V31.8725C16.5773 31.0945 22.7163 29.375 28.4592 27.2231C33.4904 25.338 38.2831 23.0969 41.6053 20.8277C41.9058 21.0133 42.2598 21.1204 42.639 21.1204C43.7268 21.1204 44.6087 20.2385 44.6087 19.1506C44.6087 18.0627 43.7268 17.1808 42.639 17.1808C41.5511 17.1808 40.6692 18.0627 40.6692 19.1506C40.6692 19.347 40.6979 19.5367 40.7514 19.7157C37.5855 21.8654 32.9492 24.0457 27.968 25.9122C22.3752 28.0077 16.4298 29.6774 11.7975 30.4535V16.3625H13.721C14.1686 16.3625 14.579 16.1134 14.7856 15.7163C14.9921 15.3191 14.9605 14.8401 14.7035 14.4736L11.7305 10.2338ZM38.0583 30.8369C38.1557 30.6761 38.2721 30.5534 38.4075 30.4688C38.5429 30.3799 38.6868 30.3354 38.8391 30.3354C38.983 30.3354 39.1142 30.3714 39.2327 30.4434C39.3554 30.5111 39.4464 30.6042 39.5056 30.7227C39.5691 30.8369 39.6008 30.9639 39.6008 31.1035C39.6008 31.2559 39.5649 31.4019 39.4929 31.5415C38.5662 33.3527 38.1028 34.8783 38.1028 36.1182C38.1028 37.0492 38.2192 37.9653 38.4519 38.8667C38.6847 39.7681 38.9872 40.5404 39.3596 41.1836C39.4739 41.3825 39.531 41.575 39.531 41.7612C39.531 41.884 39.5056 41.994 39.4548 42.0913C39.4041 42.1929 39.3279 42.2733 39.2263 42.3325C39.1036 42.4045 38.9639 42.4404 38.8074 42.4404C38.6508 42.4404 38.5006 42.4045 38.3567 42.3325C38.217 42.2648 38.1028 42.1675 38.0139 42.0405C37.6754 41.5412 37.377 40.9657 37.1189 40.314C36.865 39.6665 36.6661 38.981 36.5222 38.2573C36.3826 37.5337 36.3127 36.8206 36.3127 36.1182C36.3127 35.2972 36.4672 34.436 36.7761 33.5347C37.085 32.6333 37.5125 31.734 38.0583 30.8369ZM33.761 33.23C33.9726 33.23 34.1482 33.3083 34.2878 33.4648C34.4317 33.6214 34.5037 33.8224 34.5037 34.0679C34.5037 34.3048 34.4338 34.4932 34.2942 34.6328C34.1545 34.7725 33.9747 34.8423 33.7546 34.8423H32.6692L32.6755 39.4443C32.6755 39.6898 32.5867 39.8844 32.4089 40.0283C32.2312 40.1722 32.0111 40.2441 31.7488 40.2441C31.4822 40.2441 31.26 40.1722 31.0823 40.0283C30.9088 39.8844 30.822 39.6898 30.822 39.4443L30.8157 34.8423H30.2507C30.0349 34.8423 29.8635 34.7746 29.7366 34.6392C29.6096 34.4995 29.5461 34.3091 29.5461 34.0679C29.5461 33.8224 29.6117 33.6214 29.7429 33.4648C29.8741 33.3083 30.0455 33.23 30.2571 33.23H30.8093C30.8093 32.5571 30.877 32.0282 31.0125 31.6431C31.1479 31.258 31.3679 30.9829 31.6726 30.8179C31.9815 30.6486 32.4026 30.564 32.9358 30.564C33.3717 30.564 33.725 30.6253 33.9958 30.748C34.3556 30.9131 34.5354 31.2008 34.5354 31.6113C34.5354 31.7975 34.4973 31.9393 34.4211 32.0366C34.3492 32.1297 34.2371 32.1953 34.0847 32.2334C34.0212 32.2461 33.9556 32.2524 33.8879 32.2524C33.7864 32.2524 33.6658 32.244 33.5261 32.2271C33.3907 32.2059 33.3103 32.1932 33.2849 32.189C33.2172 32.1805 33.1707 32.1763 33.1453 32.1763C32.9464 32.1763 32.8152 32.244 32.7517 32.3794C32.6925 32.5148 32.6628 32.7179 32.6628 32.9888V33.23H33.761ZM40.6165 39.4062C40.6165 39.4528 40.6249 39.5184 40.6418 39.603C40.6672 39.7131 40.7138 39.8125 40.7815 39.9014C40.8534 39.9902 40.9317 40.0558 41.0164 40.0981C41.1814 40.187 41.3549 40.2314 41.5369 40.2314C41.6977 40.2314 41.8521 40.1934 42.0002 40.1172C42.1484 40.0452 42.2795 39.9331 42.3938 39.7808L44.0505 37.5781L45.866 39.8442C46.0818 40.1108 46.3293 40.2441 46.6086 40.2441C46.7821 40.2441 46.9472 40.2103 47.1038 40.1426C47.2646 40.0749 47.3936 39.9797 47.491 39.8569C47.5883 39.73 47.637 39.584 47.637 39.4189C47.637 39.3258 47.6137 39.2243 47.5671 39.1143C47.5248 39 47.474 38.909 47.4148 38.8413L45.3137 36.3721L47.1545 34.3345C47.2349 34.2456 47.2984 34.1377 47.345 34.0107C47.3915 33.8838 47.4148 33.759 47.4148 33.6362C47.4148 33.4712 47.3661 33.3252 47.2688 33.1982C47.1715 33.0671 47.0445 32.9867 46.8879 32.957C46.7314 32.9274 46.6065 32.9126 46.5134 32.9126C46.3569 32.9126 46.2109 32.9465 46.0754 33.0142C45.9443 33.0776 45.8152 33.1834 45.6882 33.3315L44.095 35.1597L42.5144 33.3062C42.4128 33.1919 42.2901 33.103 42.1462 33.0396C42.0066 32.9761 41.8627 32.9443 41.7146 32.9443C41.4565 32.9443 41.2385 33.0099 41.0608 33.1411C40.8873 33.2723 40.8005 33.4564 40.8005 33.6934C40.8005 33.8118 40.8302 33.9346 40.8894 34.0615C40.9487 34.1842 41.0142 34.2879 41.0862 34.3726L42.8508 36.3911L40.8005 38.9048C40.6778 39.0614 40.6165 39.2285 40.6165 39.4062ZM50.0046 30.8369C50.5505 31.734 50.9779 32.6333 51.2869 33.5347C51.5958 34.436 51.7502 35.2972 51.7502 36.1182C51.7502 36.8206 51.6783 37.5337 51.5344 38.2573C51.3948 38.981 51.1959 39.6665 50.9377 40.314C50.6838 40.9657 50.3876 41.5412 50.0491 42.0405C49.9602 42.1675 49.8438 42.2648 49.7 42.3325C49.5603 42.4045 49.4122 42.4404 49.2556 42.4404C49.099 42.4404 48.9594 42.4045 48.8367 42.3325C48.7351 42.2733 48.6589 42.1929 48.6082 42.0913C48.5574 41.994 48.532 41.884 48.532 41.7612C48.532 41.575 48.5891 41.3825 48.7034 41.1836C49.0758 40.5404 49.3783 39.7681 49.6111 38.8667C49.8438 37.9653 49.9602 37.0492 49.9602 36.1182C49.9602 34.8783 49.4968 33.3527 48.5701 31.5415C48.4981 31.4019 48.4622 31.2559 48.4622 31.1035C48.4622 30.9639 48.4918 30.8369 48.551 30.7227C48.6145 30.6042 48.7076 30.5111 48.8303 30.4434C48.9488 30.3714 49.08 30.3354 49.2239 30.3354C49.3762 30.3354 49.5201 30.3799 49.6555 30.4688C49.7909 30.5534 49.9073 30.6761 50.0046 30.8369Z" fill="#F8F9FA"/>
<path d="M10.7623 9.72286L10.7443 11.2228L10.7443 11.2228L10.7623 9.72286ZM11.7305 10.2338L10.5023 11.095L10.5023 11.095L11.7305 10.2338ZM9.78224 10.2104L8.57512 9.32002L8.57512 9.32002L9.78224 10.2104ZM6.65484 14.4502L5.44771 13.5598L5.44771 13.5598L6.65484 14.4502ZM6.54937 15.7034L7.88833 15.0273L7.88833 15.0273L6.54937 15.7034ZM9.79749 16.3625H11.2975C11.2975 15.5341 10.6259 14.8625 9.79749 14.8625V16.3625ZM9.80265 49.8066L8.31032 49.9582L8.31032 49.9582L9.80265 49.8066ZM10.7975 50.7044L10.7975 49.2044H10.7975V50.7044ZM46.4596 50.7044H47.9596C47.9596 49.876 47.288 49.2044 46.4596 49.2044L46.4596 50.7044ZM47.1058 54.4711L46.4136 55.8018L46.4137 55.8018L47.1058 54.4711ZM48.3485 54.389L47.4873 53.1608L47.4873 53.1608L48.3485 54.389ZM53.0686 51.0792L53.9298 52.3073L53.9298 52.3073L53.0686 51.0792ZM53.5795 50.1111L52.0796 50.0931L52.0796 50.0931L53.5795 50.1111ZM53.0919 49.131L53.9824 47.9238L53.9823 47.9238L53.0919 49.131ZM48.3719 45.6493L49.2623 44.4422L49.2623 44.4422L48.3719 45.6493ZM47.1186 45.5438L47.7948 46.8828L47.7948 46.8828L47.1186 45.5438ZM46.4596 48.7044V50.2044C47.288 50.2044 47.9596 49.5328 47.9596 48.7044H46.4596ZM11.7975 48.7044H10.2975C10.2975 49.5328 10.9691 50.2044 11.7975 50.2044V48.7044ZM11.7975 31.8725L11.5565 30.392C10.8306 30.5101 10.2975 31.1371 10.2975 31.8725H11.7975ZM28.4592 27.2231L27.9329 25.8185L27.9329 25.8185L28.4592 27.2231ZM41.6053 20.8277L42.3935 19.5515C41.8892 19.24 41.2487 19.2547 40.7592 19.5891L41.6053 20.8277ZM40.7514 19.7157L41.5941 20.9567C42.1354 20.5891 42.376 19.913 42.1886 19.2861L40.7514 19.7157ZM27.968 25.9122L28.4943 27.3168L28.4943 27.3168L27.968 25.9122ZM11.7975 30.4535H10.2975C10.2975 30.8947 10.4917 31.3135 10.8284 31.5985C11.1651 31.8835 11.6103 32.0058 12.0454 31.9329L11.7975 30.4535ZM11.7975 16.3625V14.8625C10.9691 14.8625 10.2975 15.5341 10.2975 16.3625H11.7975ZM14.7856 15.7163L16.1163 16.4084L16.1163 16.4084L14.7856 15.7163ZM14.7035 14.4736L13.4753 15.3348L13.4753 15.3348L14.7035 14.4736ZM38.4075 30.4687L39.2025 31.7407C39.2119 31.7349 39.2212 31.7289 39.2304 31.7228L38.4075 30.4687ZM38.0583 30.8369L39.3398 31.6166L39.3416 31.6136L38.0583 30.8369ZM39.2327 30.4434L38.4542 31.7255C38.4719 31.7363 38.4899 31.7467 38.5081 31.7567L39.2327 30.4434ZM39.5056 30.7227L38.164 31.3935C38.1737 31.4129 38.1838 31.4321 38.1944 31.4511L39.5056 30.7227ZM39.4929 31.5415L38.1595 30.8546L38.1576 30.8582L39.4929 31.5415ZM38.4519 38.8667L39.9043 38.4917L39.9043 38.4917L38.4519 38.8667ZM39.3596 41.1836L40.6603 40.4364L40.6578 40.432L39.3596 41.1836ZM39.4548 42.0913L38.125 41.3975C38.121 41.4051 38.117 41.4128 38.1132 41.4205L39.4548 42.0913ZM39.2263 42.3325L38.4705 41.0369L38.4677 41.0385L39.2263 42.3325ZM38.3567 42.3325L39.0275 40.9909C39.0221 40.9882 39.0166 40.9855 39.0111 40.9828L38.3567 42.3325ZM38.0139 42.0405L36.7724 42.8823C36.7765 42.8884 36.7808 42.8946 36.7851 42.9007L38.0139 42.0405ZM37.1189 40.314L35.7224 40.8616L35.7243 40.8664L37.1189 40.314ZM36.5222 38.2573L35.0494 38.5416L35.051 38.5498L36.5222 38.2573ZM34.2878 33.4648L33.1684 34.4633C33.1733 34.4688 33.1783 34.4743 33.1834 34.4798L34.2878 33.4648ZM32.6692 34.8423V33.3423C32.271 33.3423 31.8892 33.5006 31.6078 33.7824C31.3264 34.0641 31.1686 34.4462 31.1692 34.8444L32.6692 34.8423ZM32.6755 39.4443L34.1755 39.4443L34.1755 39.4423L32.6755 39.4443ZM31.0823 40.0283L30.1248 41.183C30.1293 41.1867 30.1339 41.1905 30.1385 41.1942L31.0823 40.0283ZM30.822 39.4443L32.322 39.4443L32.322 39.4423L30.822 39.4443ZM30.8157 34.8423L32.3157 34.8402C32.3145 34.0126 31.6433 33.3423 30.8157 33.3423V34.8423ZM29.7366 34.6392L28.6267 35.6482C28.6318 35.6538 28.637 35.6595 28.6423 35.6651L29.7366 34.6392ZM30.8093 33.23V34.73C31.6378 34.73 32.3093 34.0584 32.3093 33.23H30.8093ZM31.6726 30.8179L32.387 32.1368L32.3934 32.1333L31.6726 30.8179ZM33.9958 30.748L34.6214 29.3847L34.6149 29.3818L33.9958 30.748ZM34.4211 32.0366L33.2399 31.1121L33.2342 31.1195L34.4211 32.0366ZM34.0847 32.2334L34.3789 33.7043C34.4022 33.6996 34.4254 33.6944 34.4485 33.6886L34.0847 32.2334ZM33.5261 32.2271L33.2946 33.7091C33.3115 33.7117 33.3286 33.7141 33.3456 33.7162L33.5261 32.2271ZM33.2849 32.189L33.5315 30.7094C33.5114 30.706 33.4912 30.7031 33.4709 30.7005L33.2849 32.189ZM32.7517 32.3794L31.3935 31.7427C31.388 31.7545 31.3827 31.7663 31.3775 31.7782L32.7517 32.3794ZM32.6628 33.23H31.1628C31.1628 34.0584 31.8344 34.73 32.6628 34.73V33.23ZM40.6418 39.603L39.171 39.8972C39.1739 39.9116 39.177 39.926 39.1803 39.9403L40.6418 39.603ZM40.7815 39.9014L39.5883 40.8104C39.5973 40.8221 39.6064 40.8337 39.6156 40.8452L40.7815 39.9014ZM41.0164 40.0981L41.7275 38.7774C41.7142 38.7703 41.7007 38.7633 41.6872 38.7565L41.0164 40.0981ZM42.0002 40.1172L41.3449 38.7679C41.3346 38.7729 41.3244 38.778 41.3142 38.7833L42.0002 40.1172ZM42.3938 39.7808L41.195 38.8791L41.1938 38.8808L42.3938 39.7808ZM44.0505 37.5781L45.2212 36.6403C44.9315 36.2787 44.4909 36.0712 44.0276 36.0783C43.5643 36.0854 43.1303 36.3062 42.8518 36.6765L44.0505 37.5781ZM45.866 39.8442L44.6953 40.7821L44.7001 40.788L45.866 39.8442ZM47.1038 40.1426L46.5217 38.7601C46.5172 38.762 46.5128 38.7639 46.5084 38.7658L47.1038 40.1426ZM47.491 39.8569L48.6662 40.789C48.6713 40.7826 48.6764 40.7761 48.6814 40.7696L47.491 39.8569ZM47.5671 39.1143L46.1605 39.6352C46.1684 39.6566 46.1768 39.6778 46.1857 39.6987L47.5671 39.1143ZM47.4148 38.8413L46.2724 39.8134C46.2769 39.8186 46.2814 39.8239 46.2859 39.8291L47.4148 38.8413ZM45.3137 36.3721L44.2007 35.3665C43.6961 35.925 43.6836 36.7709 44.1713 37.3441L45.3137 36.3721ZM47.1545 34.3345L46.0422 33.3281L46.0415 33.3289L47.1545 34.3345ZM47.2688 33.1982L46.0642 34.092C46.0689 34.0983 46.0736 34.1046 46.0784 34.1109L47.2688 33.1982ZM46.0754 33.0142L46.7288 34.3644C46.7346 34.3616 46.7405 34.3587 46.7463 34.3558L46.0754 33.0142ZM45.6882 33.3315L46.8191 34.3171L46.8271 34.3077L45.6882 33.3315ZM44.095 35.1597L42.9536 36.133C43.2368 36.465 43.6505 36.6573 44.0869 36.6596C44.5233 36.662 44.9391 36.4742 45.2258 36.1452L44.095 35.1597ZM42.5144 33.3062L43.6558 32.3329C43.6491 32.325 43.6423 32.3173 43.6355 32.3096L42.5144 33.3062ZM42.1462 33.0396L41.5255 34.4051C41.5306 34.4074 41.5357 34.4097 41.5408 34.4119L42.1462 33.0396ZM41.0608 33.1411L40.17 31.9343C40.1654 31.9377 40.1607 31.9411 40.1561 31.9446L41.0608 33.1411ZM40.8894 34.0615L39.5301 34.6959C39.5329 34.7018 39.5357 34.7077 39.5386 34.7137L40.8894 34.0615ZM41.0862 34.3726L39.9433 35.344C39.9478 35.3493 39.9523 35.3546 39.9569 35.3598L41.0862 34.3726ZM42.8508 36.3911L44.0132 37.3392C44.4756 36.7723 44.4616 35.9546 43.9801 35.4039L42.8508 36.3911ZM40.8005 38.9048L39.6382 37.9567C39.632 37.9642 39.626 37.9718 39.62 37.9795L40.8005 38.9048ZM50.0046 30.8369L48.7214 31.6136L48.7232 31.6166L50.0046 30.8369ZM51.5344 38.2573L50.0632 37.9648L50.0616 37.9731L51.5344 38.2573ZM50.9377 40.314L49.5444 39.7584L49.5401 39.7694L50.9377 40.314ZM50.0491 42.0405L51.2779 42.9007C51.2822 42.8946 51.2864 42.8884 51.2906 42.8823L50.0491 42.0405ZM49.7 42.3325L49.0613 40.9753C49.045 40.9829 49.0289 40.9909 49.013 40.9991L49.7 42.3325ZM48.8367 42.3325L49.5953 41.0385L49.5925 41.0369L48.8367 42.3325ZM48.6082 42.0913L49.9498 41.4205C49.9459 41.4128 49.942 41.4051 49.938 41.3975L48.6082 42.0913ZM48.7034 41.1836L47.4052 40.432L47.4027 40.4364L48.7034 41.1836ZM48.5701 31.5415L49.9054 30.8582L49.9035 30.8546L48.5701 31.5415ZM48.551 30.7227L47.2288 30.0143C47.2256 30.0203 47.2225 30.0262 47.2194 30.0322L48.551 30.7227ZM48.8303 30.4434L49.5549 31.7567C49.5731 31.7467 49.5911 31.7363 49.6088 31.7255L48.8303 30.4434ZM49.6555 30.4687L48.8325 31.7228C48.8418 31.7289 48.8511 31.7349 48.8605 31.7408L49.6555 30.4687ZM10.7443 11.2228C10.6478 11.2216 10.5577 11.1741 10.5023 11.095L12.9586 9.37261C12.4598 8.66125 11.6491 8.2334 10.7803 8.22297L10.7443 11.2228ZM10.9894 11.1009C10.9321 11.1786 10.8409 11.2239 10.7443 11.2228L10.7803 8.22297C9.91157 8.21255 9.09086 8.62083 8.57512 9.32002L10.9894 11.1009ZM7.86196 15.3406L10.9894 11.1009L8.57512 9.32002L5.44771 13.5598L7.86196 15.3406ZM7.88833 15.0273C7.93936 15.1283 7.92916 15.2495 7.86196 15.3406L5.44771 13.5598C4.84293 14.3797 4.75116 15.4702 5.21041 16.3796L7.88833 15.0273ZM7.62054 14.8625C7.73374 14.8625 7.8373 14.9262 7.88833 15.0273L5.21041 16.3796C5.66966 17.289 6.60172 17.8625 7.62054 17.8625V14.8625ZM9.79749 14.8625H7.62054V17.8625H9.79749V14.8625ZM11.2975 49.7044V16.3625H8.29749V49.7044H11.2975ZM11.295 49.6551C11.2967 49.6717 11.2975 49.6882 11.2975 49.7044H8.29749C8.29749 49.7896 8.30181 49.8743 8.31032 49.9582L11.295 49.6551ZM10.7975 49.2044C11.0573 49.2044 11.2692 49.4014 11.295 49.6551L8.31032 49.9582C8.43851 51.2204 9.50215 52.2044 10.7975 52.2044V49.2044ZM46.4596 49.2044L10.7975 49.2044L10.7975 52.2044L46.4596 52.2044L46.4596 49.2044ZM47.9596 53.4065V50.7044H44.9596V53.4065H47.9596ZM47.798 53.1403C47.8973 53.192 47.9596 53.2946 47.9596 53.4065H44.9596C44.9596 54.4136 45.5201 55.3371 46.4136 55.8018L47.798 53.1403ZM47.4873 53.1608C47.5789 53.0966 47.6987 53.0887 47.798 53.1403L46.4137 55.8018C47.3072 56.2666 48.3851 56.1954 49.2097 55.6171L47.4873 53.1608ZM52.2073 49.851L47.4873 53.1608L49.2097 55.6171L53.9298 52.3073L52.2073 49.851ZM52.0796 50.0931C52.0808 49.9965 52.1283 49.9065 52.2073 49.851L53.9298 52.3073C54.6411 51.8085 55.069 50.9978 55.0794 50.1291L52.0796 50.0931ZM52.2015 50.3381C52.1238 50.2808 52.0785 50.1896 52.0796 50.0931L55.0794 50.1291C55.0898 49.2603 54.6815 48.4396 53.9824 47.9238L52.2015 50.3381ZM47.4815 46.8564L52.2015 50.3381L53.9823 47.9238L49.2623 44.4422L47.4815 46.8564ZM47.7948 46.8828C47.6937 46.9338 47.5726 46.9236 47.4815 46.8564L49.2623 44.4422C48.4424 43.8374 47.3519 43.7456 46.4425 44.2049L47.7948 46.8828ZM47.9596 46.615C47.9596 46.7282 47.8958 46.8317 47.7948 46.8828L46.4425 44.2049C45.533 44.6641 44.9596 45.5962 44.9596 46.615H47.9596ZM47.9596 48.7044V46.615H44.9596V48.7044H47.9596ZM11.7975 50.2044H46.4596V47.2044H11.7975V50.2044ZM10.2975 31.8725V48.7044H13.2975V31.8725H10.2975ZM27.9329 25.8185C22.2574 27.9451 16.2158 29.6336 11.5565 30.392L12.0385 33.353C16.9388 32.5554 23.1751 30.8049 28.9855 28.6278L27.9329 25.8185ZM40.7592 19.5891C37.5805 21.7603 32.9152 23.9517 27.9329 25.8185L28.9855 28.6278C34.0655 26.7243 38.9857 24.4335 42.4513 22.0663L40.7592 19.5891ZM42.639 19.6204C42.5462 19.6204 42.4639 19.595 42.3935 19.5515L40.817 22.1039C41.3476 22.4316 41.9735 22.6204 42.639 22.6204V19.6204ZM43.1087 19.1506C43.1087 19.4101 42.8984 19.6204 42.639 19.6204V22.6204C44.5553 22.6204 46.1087 21.0669 46.1087 19.1506H43.1087ZM42.639 18.6808C42.8984 18.6808 43.1087 18.8912 43.1087 19.1506H46.1087C46.1087 17.2343 44.5553 15.6808 42.639 15.6808V18.6808ZM42.1692 19.1506C42.1692 18.8912 42.3795 18.6808 42.639 18.6808V15.6808C40.7227 15.6808 39.1692 17.2343 39.1692 19.1506H42.1692ZM42.1886 19.2861C42.1763 19.245 42.1692 19.2 42.1692 19.1506H39.1692C39.1692 19.4941 39.2195 19.8284 39.3143 20.1453L42.1886 19.2861ZM28.4943 27.3168C33.5251 25.4318 38.2868 23.2023 41.5941 20.9567L39.9088 18.4747C36.8843 20.5284 32.3733 22.6597 27.4417 24.5075L28.4943 27.3168ZM12.0454 31.9329C16.7941 31.1373 22.8344 29.4376 28.4943 27.3168L27.4417 24.5075C21.9161 26.5779 16.0654 28.2175 11.5496 28.9742L12.0454 31.9329ZM10.2975 16.3625V30.4535H13.2975V16.3625H10.2975ZM13.721 14.8625H11.7975V17.8625H13.721V14.8625ZM13.4548 15.0241C13.5064 14.9248 13.609 14.8625 13.721 14.8625V17.8625C14.7281 17.8625 15.6516 17.3019 16.1163 16.4084L13.4548 15.0241ZM13.4753 15.3348C13.4111 15.2431 13.4032 15.1234 13.4548 15.0241L16.1163 16.4084C16.5811 15.5149 16.5099 14.437 15.9316 13.6124L13.4753 15.3348ZM10.5023 11.095L13.4753 15.3348L15.9316 13.6124L12.9586 9.37261L10.5023 11.095ZM37.6125 29.1968C37.2453 29.4262 36.9727 29.7338 36.7751 30.0602L39.3416 31.6136C39.3387 31.6184 39.2988 31.6806 39.2025 31.7407L37.6125 29.1968ZM38.8391 28.8354C38.3755 28.8354 37.9482 28.976 37.5845 29.2147L39.2304 31.7228C39.1893 31.7498 39.132 31.7796 39.0596 31.802C38.9864 31.8246 38.9112 31.8354 38.8391 31.8354V28.8354ZM40.0111 29.1612C39.6488 28.9412 39.2466 28.8354 38.8391 28.8354V31.8354C38.7194 31.8354 38.5795 31.8016 38.4542 31.7255L40.0111 29.1612ZM40.8473 30.0518C40.6441 29.6454 40.3297 29.3355 39.9573 29.13L38.5081 31.7567C38.4508 31.7252 38.3847 31.6784 38.3202 31.6124C38.2551 31.5458 38.2026 31.4708 38.164 31.3935L40.8473 30.0518ZM41.1008 31.1035C41.1008 30.727 41.0126 30.3465 40.8169 29.9942L38.1944 31.4511C38.1256 31.3273 38.1008 31.2008 38.1008 31.1035H41.1008ZM40.8264 32.2284C41.0042 31.8832 41.1008 31.5024 41.1008 31.1035H38.1008C38.1008 31.0093 38.1255 30.9205 38.1595 30.8546L40.8264 32.2284ZM39.6028 36.1182C39.6028 35.2214 39.9484 33.9444 40.8283 32.2248L38.1576 30.8582C37.1839 32.7611 36.6028 34.5351 36.6028 36.1182H39.6028ZM39.9043 38.4917C39.7032 37.7128 39.6028 36.9226 39.6028 36.1182H36.6028C36.6028 37.1757 36.7352 38.2178 36.9995 39.2417L39.9043 38.4917ZM40.6578 40.432C40.3683 39.932 40.1111 39.2928 39.9043 38.4917L36.9995 39.2417C37.2582 40.2434 37.6062 41.1487 38.0615 41.9351L40.6578 40.432ZM41.031 41.7612C41.031 41.2585 40.8751 40.8103 40.6603 40.4364L38.059 41.9308C38.0727 41.9546 38.031 41.8916 38.031 41.7612H41.031ZM40.7847 42.7852C40.9599 42.4494 41.031 42.0967 41.031 41.7612H38.031C38.031 41.6712 38.0513 41.5386 38.125 41.3975L40.7847 42.7852ZM39.9821 43.6282C40.3261 43.4275 40.6105 43.1341 40.7965 42.7621L38.1132 41.4205C38.1976 41.2516 38.3297 41.119 38.4705 41.0369L39.9821 43.6282ZM38.8074 43.9404C39.203 43.9404 39.6094 43.8467 39.9849 43.6266L38.4677 41.0385C38.5978 40.9622 38.7249 40.9404 38.8074 40.9404V43.9404ZM37.6859 43.6742C38.0321 43.8473 38.4114 43.9404 38.8074 43.9404V40.9404C38.8451 40.9404 38.8857 40.9449 38.9265 40.9547C38.9672 40.9644 39.0013 40.9778 39.0275 40.9909L37.6859 43.6742ZM36.7851 42.9007C37.0208 43.2375 37.3329 43.5032 37.7023 43.6822L39.0111 40.9828C39.0518 41.0026 39.096 41.0303 39.139 41.0669C39.1819 41.1035 39.2165 41.1428 39.2428 41.1803L36.7851 42.9007ZM35.7243 40.8664C36.0164 41.6038 36.3635 42.2792 36.7724 42.8823L39.2555 41.1988C38.9873 40.8032 38.7376 40.3275 38.5135 39.7616L35.7243 40.8664ZM35.051 38.5498C35.2112 39.3553 35.4342 40.1266 35.7224 40.8616L38.5154 39.7663C38.2958 39.2064 38.121 38.6066 37.9934 37.9648L35.051 38.5498ZM34.8127 36.1182C34.8127 36.9206 34.8926 37.7288 35.0494 38.5416L37.995 37.9731C37.8726 37.3385 37.8127 36.7207 37.8127 36.1182H34.8127ZM35.3571 33.0484C35.003 34.0816 34.8127 35.1076 34.8127 36.1182H37.8127C37.8127 35.4868 37.9314 34.7905 38.1951 34.021L35.3571 33.0484ZM36.7769 30.0572C36.1804 31.0376 35.7045 32.0347 35.3571 33.0484L38.1951 34.021C38.4655 33.2319 38.8445 32.4305 39.3398 31.6166L36.7769 30.0572ZM35.4073 32.4664C34.9803 31.9876 34.396 31.73 33.761 31.73V34.73C33.6776 34.73 33.5636 34.7135 33.4407 34.6587C33.3174 34.6038 33.2269 34.5289 33.1684 34.4633L35.4073 32.4664ZM36.0037 34.0679C36.0037 33.5085 35.8296 32.9258 35.3923 32.4499L33.1834 34.4798C33.1191 34.4099 33.0687 34.3259 33.0374 34.2385C33.0074 34.1545 33.0037 34.092 33.0037 34.0679H36.0037ZM35.3548 35.6935C35.8308 35.2176 36.0037 34.6175 36.0037 34.0679H33.0037C33.0037 34.0397 33.0079 33.9651 33.0449 33.8654C33.0837 33.7605 33.148 33.6577 33.2335 33.5722L35.3548 35.6935ZM33.7546 36.3423C34.3228 36.3423 34.9006 36.1477 35.3548 35.6935L33.2335 33.5722C33.3074 33.4983 33.4028 33.4339 33.5117 33.3916C33.6174 33.3505 33.7048 33.3423 33.7546 33.3423V36.3423ZM32.6692 36.3423H33.7546V33.3423H32.6692V36.3423ZM34.1755 39.4423L34.1692 34.8402L31.1692 34.8444L31.1755 39.4464L34.1755 39.4423ZM33.3527 41.1942C33.9108 40.7424 34.1755 40.1044 34.1755 39.4443H31.1755C31.1755 39.3836 31.1873 39.2765 31.2444 39.1515C31.3028 39.0234 31.3863 38.9263 31.4651 38.8625L33.3527 41.1942ZM31.7488 41.7441C32.3014 41.7441 32.8693 41.5856 33.3527 41.1942L31.4651 38.8625C31.5201 38.8179 31.583 38.7845 31.6445 38.7644C31.7035 38.7452 31.7424 38.7441 31.7488 38.7441V41.7441ZM30.1385 41.1942C30.6262 41.589 31.1983 41.7441 31.7488 41.7441V38.7441C31.7505 38.7441 31.7867 38.7445 31.8443 38.7631C31.9047 38.7827 31.9687 38.816 32.0261 38.8625L30.1385 41.1942ZM29.322 39.4443C29.322 40.0911 29.5743 40.7265 30.1248 41.183L32.0398 38.8737C32.1201 38.9403 32.2013 39.0384 32.2572 39.1638C32.3115 39.2857 32.322 39.3884 32.322 39.4443H29.322ZM29.3157 34.8444L29.322 39.4464L32.322 39.4423L32.3157 34.8402L29.3157 34.8444ZM30.2507 36.3423H30.8157V33.3423H30.2507V36.3423ZM28.6423 35.6651C29.0995 36.1528 29.694 36.3423 30.2507 36.3423V33.3423C30.2997 33.3423 30.3944 33.3502 30.5115 33.3964C30.6334 33.4446 30.7439 33.5205 30.8309 33.6132L28.6423 35.6651ZM28.0461 34.0679C28.0461 34.575 28.1849 35.1622 28.6267 35.6482L30.8465 33.6302C30.9323 33.7245 30.9868 33.8272 31.0168 33.9173C31.0451 34.0023 31.0461 34.0587 31.0461 34.0679H28.0461ZM28.5931 32.5015C28.1923 32.9799 28.0461 33.5442 28.0461 34.0679H31.0461C31.0461 34.0783 31.0447 34.1267 31.0213 34.1984C30.9968 34.2735 30.9545 34.3545 30.8927 34.4282L28.5931 32.5015ZM30.2571 31.73C29.62 31.73 29.0209 31.991 28.5931 32.5015L30.8927 34.4282C30.8271 34.5065 30.7273 34.5918 30.5931 34.6531C30.4604 34.7137 30.3398 34.73 30.2571 34.73V31.73ZM30.8093 31.73H30.2571V34.73H30.8093V31.73ZM29.5974 31.1455C29.3811 31.7606 29.3093 32.4827 29.3093 33.23H32.3093C32.3093 32.6315 32.373 32.2957 32.4275 32.1407L29.5974 31.1455ZM30.9582 29.4989C30.2691 29.8722 29.833 30.4755 29.5974 31.1455L32.4275 32.1407C32.448 32.0825 32.461 32.0717 32.4504 32.085C32.4452 32.0914 32.4364 32.1011 32.4239 32.1116C32.4113 32.1221 32.3985 32.1306 32.387 32.1368L30.9582 29.4989ZM32.9358 29.064C32.2695 29.064 31.5666 29.1655 30.9518 29.5024L32.3934 32.1333C32.3894 32.1355 32.4225 32.1167 32.5157 32.098C32.6089 32.0793 32.7457 32.064 32.9358 32.064V29.064ZM34.6149 29.3818C34.0808 29.1397 33.4939 29.064 32.9358 29.064V32.064C33.0853 32.064 33.1949 32.0746 33.2711 32.0879C33.3475 32.1011 33.3778 32.1148 33.3768 32.1143L34.6149 29.3818ZM36.0354 31.6113C36.0354 31.1842 35.94 30.7206 35.6725 30.2926C35.4028 29.8611 35.0223 29.5687 34.6214 29.3847L33.3703 32.1114C33.3291 32.0925 33.2184 32.0264 33.1285 31.8826C33.0409 31.7424 33.0354 31.6279 33.0354 31.6113H36.0354ZM35.6024 32.9611C35.9666 32.4957 36.0354 31.9707 36.0354 31.6113H33.0354C33.0354 31.6064 33.0355 31.5528 33.0582 31.4681C33.0818 31.3803 33.1328 31.249 33.2399 31.1122L35.6024 32.9611ZM34.4485 33.6886C34.8186 33.5961 35.2703 33.3909 35.6081 32.9538L33.2342 31.1195C33.4281 30.8685 33.6556 30.7945 33.7209 30.7782L34.4485 33.6886ZM33.8879 33.7524C34.0499 33.7524 34.2142 33.7372 34.3789 33.7043L33.7905 30.7625C33.8283 30.755 33.8614 30.7524 33.8879 30.7524V33.7524ZM33.3456 33.7162C33.5242 33.7378 33.7081 33.7524 33.8879 33.7524V30.7524C33.8647 30.7524 33.8073 30.7502 33.7066 30.738L33.3456 33.7162ZM33.0383 33.6685C33.0732 33.6744 33.1634 33.6886 33.2946 33.7091L33.7577 30.745C33.6903 30.7345 33.6373 30.7262 33.5982 30.72C33.5787 30.7169 33.5631 30.7145 33.5513 30.7126C33.5454 30.7116 33.5407 30.7109 33.5371 30.7103C33.5354 30.71 33.534 30.7098 33.533 30.7096C33.532 30.7095 33.5315 30.7094 33.5315 30.7094L33.0383 33.6685ZM33.1453 33.6763C33.1281 33.6763 33.1141 33.6759 33.1041 33.6756C33.0939 33.6752 33.0858 33.6748 33.0802 33.6745C33.0745 33.6741 33.0702 33.6738 33.0677 33.6736C33.0651 33.6734 33.0636 33.6733 33.0634 33.6733C33.0631 33.6733 33.066 33.6735 33.0725 33.6742C33.0788 33.6749 33.0875 33.676 33.0989 33.6774L33.4709 30.7005C33.4111 30.6931 33.2769 30.6763 33.1453 30.6763V33.6763ZM34.1099 33.016C34.0031 33.2438 33.8183 33.4399 33.5857 33.56C33.3777 33.6673 33.2058 33.6763 33.1453 33.6763V30.6763C32.592 30.6763 31.7878 30.9017 31.3935 31.7427L34.1099 33.016ZM34.1628 32.9888C34.1628 32.948 34.164 32.916 34.1655 32.8919C34.167 32.8676 34.1687 32.8541 34.1694 32.8498C34.17 32.8452 34.169 32.8544 34.1637 32.8745C34.1585 32.8942 34.1474 32.9315 34.1259 32.9806L31.3775 31.7782C31.1924 32.2012 31.1628 32.6548 31.1628 32.9888H34.1628ZM34.1628 33.23V32.9888H31.1628V33.23H34.1628ZM33.761 31.73H32.6628V34.73H33.761V31.73ZM42.1127 39.3089C42.1091 39.2908 42.1092 39.2885 42.1105 39.2984C42.1112 39.3038 42.1125 39.3153 42.1138 39.3318C42.115 39.348 42.1165 39.3734 42.1165 39.4062H39.1165C39.1165 39.6022 39.1481 39.7828 39.171 39.8972L42.1127 39.3089ZM41.9746 38.9923C42.0374 39.0747 42.0815 39.1706 42.1034 39.2657L39.1803 39.9403C39.253 40.2555 39.3902 40.5503 39.5883 40.8104L41.9746 38.9923ZM41.6872 38.7565C41.8297 38.8278 41.9121 38.914 41.9474 38.9576L39.6156 40.8452C39.7947 41.0664 40.0337 41.2839 40.3455 41.4398L41.6872 38.7565ZM41.5369 38.7314C41.5694 38.7314 41.6056 38.7356 41.6424 38.745C41.679 38.7544 41.7078 38.7668 41.7275 38.7774L40.3052 41.4189C40.682 41.6217 41.099 41.7314 41.5369 41.7314V38.7314ZM41.3142 38.7833C41.3391 38.7704 41.3729 38.7567 41.4142 38.7465C41.4558 38.7363 41.4976 38.7314 41.5369 38.7314V41.7314C41.945 41.7314 42.3338 41.6324 42.6863 41.4511L41.3142 38.7833ZM41.1938 38.8808C41.2003 38.8721 41.2469 38.8155 41.3449 38.7679L42.6556 41.4665C43.0498 41.275 43.3588 40.9941 43.5938 40.6808L41.1938 38.8808ZM42.8518 36.6765L41.195 38.8791L43.5926 40.6824L45.2493 38.4798L42.8518 36.6765ZM47.0366 38.9064L45.2212 36.6403L42.8799 38.516L44.6953 40.7821L47.0366 38.9064ZM46.6086 38.7441C46.719 38.7441 46.8314 38.7732 46.9247 38.8235C47.0099 38.8694 47.0414 38.9123 47.0318 38.9004L44.7001 40.788C45.1292 41.3181 45.7741 41.7441 46.6086 41.7441V38.7441ZM46.5084 38.7658C46.5235 38.7593 46.5415 38.7534 46.5611 38.7493C46.5807 38.7453 46.5972 38.7441 46.6086 38.7441V41.7441C46.9833 41.7441 47.3513 41.6698 47.6991 41.5194L46.5084 38.7658ZM46.3157 38.9248C46.3923 38.8282 46.477 38.7789 46.5217 38.7601L47.6858 41.525C48.0521 41.3708 48.3949 41.1311 48.6662 40.789L46.3157 38.9248ZM46.137 39.4189C46.137 39.3519 46.1472 39.2685 46.1774 39.1779C46.2078 39.0867 46.2519 39.0077 46.3006 38.9443L48.6814 40.7696C48.9862 40.3719 49.137 39.9027 49.137 39.4189H46.137ZM46.1857 39.6987C46.1752 39.674 46.137 39.5748 46.137 39.4189H49.137C49.137 39.0769 49.0521 38.7745 48.9486 38.5298L46.1857 39.6987ZM46.2859 39.8291C46.1907 39.7202 46.1606 39.6354 46.1605 39.6352L48.9738 38.5933C48.8891 38.3646 48.7574 38.0978 48.5437 37.8535L46.2859 39.8291ZM44.1713 37.3441L46.2724 39.8134L48.5572 37.8692L46.4561 35.4L44.1713 37.3441ZM46.0415 33.3289L44.2007 35.3665L46.4268 37.3776L48.2676 35.34L46.0415 33.3289ZM45.9367 33.4943C45.9479 33.4636 45.9779 33.3992 46.0422 33.3281L48.2669 35.3408C48.492 35.092 48.6489 34.8118 48.7533 34.5271L45.9367 33.4943ZM45.9148 33.6362C45.9148 33.5657 45.9287 33.516 45.9367 33.4943L48.7533 34.5271C48.8543 34.2516 48.9148 33.9522 48.9148 33.6362H45.9148ZM46.0784 34.1109C46.0298 34.0475 45.9857 33.9685 45.9553 33.8773C45.925 33.7866 45.9148 33.7032 45.9148 33.6362H48.9148C48.9148 33.1525 48.7641 32.6832 48.4592 32.2856L46.0784 34.1109ZM46.6091 34.4309C46.5127 34.4126 46.404 34.3739 46.298 34.3068C46.1926 34.24 46.1158 34.1616 46.0642 34.092L48.4734 32.3045C48.1576 31.8788 47.7041 31.5848 47.1668 31.4832L46.6091 34.4309ZM46.5134 34.4126C46.4846 34.4126 46.4776 34.4106 46.5002 34.4133C46.5208 34.4157 46.5562 34.4209 46.6091 34.4309L47.1668 31.4832C46.9732 31.4466 46.743 31.4126 46.5134 31.4126V34.4126ZM46.7463 34.3558C46.6662 34.3958 46.5815 34.4126 46.5134 34.4126V31.4126C46.1322 31.4126 45.7556 31.4971 45.4046 31.6725L46.7463 34.3558ZM46.8271 34.3077C46.8427 34.2895 46.8448 34.29 46.8311 34.3012C46.8172 34.3126 46.7836 34.3379 46.7288 34.3644L45.4221 31.6639C45.0535 31.8423 44.7676 32.1007 44.5493 32.3554L46.8271 34.3077ZM45.2258 36.1452L46.819 34.3171L44.5574 32.346L42.9642 34.1741L45.2258 36.1452ZM41.373 34.2794L42.9536 36.133L45.2363 34.1864L43.6558 32.3329L41.373 34.2794ZM41.5408 34.4119C41.5197 34.4026 41.4939 34.3886 41.4664 34.3687C41.4389 34.3488 41.4142 34.3262 41.3933 34.3027L43.6355 32.3096C43.3869 32.0299 43.0866 31.8149 42.7517 31.6672L41.5408 34.4119ZM41.7146 34.4443C41.6409 34.4443 41.5737 34.427 41.5255 34.4051L42.7669 31.674C42.4395 31.5252 42.0845 31.4443 41.7146 31.4443V34.4443ZM41.9516 34.348C41.8977 34.3877 41.8407 34.4146 41.7898 34.4299C41.7412 34.4445 41.7127 34.4443 41.7146 34.4443V31.4443C41.1918 31.4443 40.6473 31.5819 40.17 31.9343L41.9516 34.348ZM42.3005 33.6934C42.3005 33.7598 42.2876 33.8787 42.2225 34.017C42.1553 34.1595 42.0586 34.2672 41.9655 34.3376L40.1561 31.9446C39.5705 32.3874 39.3005 33.0349 39.3005 33.6934H42.3005ZM42.2487 33.4272C42.2654 33.463 42.3005 33.5563 42.3005 33.6934H39.3005C39.3005 34.0674 39.3949 34.4061 39.5301 34.6959L42.2487 33.4272ZM42.2291 33.4011C42.243 33.4175 42.2497 33.4279 42.2507 33.4294C42.2516 33.4308 42.2477 33.4248 42.2402 33.4094L39.5386 34.7137C39.6412 34.9263 39.7726 35.1432 39.9433 35.344L42.2291 33.4011ZM43.9801 35.4039L42.2155 33.3853L39.9569 35.3598L41.7215 37.3784L43.9801 35.4039ZM41.9629 39.8529L44.0132 37.3392L41.6885 35.443L39.6382 37.9567L41.9629 39.8529ZM42.1165 39.4062C42.1165 39.4941 42.1006 39.5828 42.0706 39.6645C42.0413 39.7443 42.0053 39.7993 41.9811 39.8301L39.62 37.9795C39.3163 38.3668 39.1165 38.8531 39.1165 39.4062H42.1165ZM52.7058 33.0484C52.3584 32.0347 51.8826 31.0376 51.2861 30.0572L48.7232 31.6166C49.2185 32.4305 49.5975 33.2319 49.8679 34.021L52.7058 33.0484ZM53.2502 36.1182C53.2502 35.1076 53.06 34.0816 52.7058 33.0484L49.8679 34.021C50.1316 34.7905 50.2502 35.4868 50.2502 36.1182H53.2502ZM53.0056 38.5498C53.1677 37.7347 53.2502 36.9236 53.2502 36.1182H50.2502C50.2502 36.7176 50.1889 37.3327 50.0632 37.9648L53.0056 38.5498ZM52.3311 40.8695C52.6261 40.1294 52.8507 39.3526 53.0072 38.5416L50.0616 37.9731C49.9388 38.6093 49.7656 39.2036 49.5444 39.7585L52.3311 40.8695ZM51.2906 42.8823C51.7012 42.2767 52.047 41.5986 52.3354 40.8585L49.5401 39.7694C49.3206 40.3327 49.074 40.8057 48.8075 41.1988L51.2906 42.8823ZM50.3386 43.6898C50.7127 43.5137 51.035 43.2478 51.2779 42.9007L48.8202 41.1803C48.8498 41.138 48.8876 41.0959 48.9328 41.0581C48.9778 41.0205 49.0225 40.9935 49.0613 40.9753L50.3386 43.6898ZM49.2556 43.9404C49.652 43.9404 50.0355 43.847 50.3869 43.666L49.013 40.9991C49.0456 40.9823 49.0852 40.9667 49.1301 40.9558C49.1751 40.9449 49.2179 40.9404 49.2556 40.9404V43.9404ZM48.0781 43.6266C48.4536 43.8467 48.86 43.9404 49.2556 43.9404V40.9404C49.3381 40.9404 49.4652 40.9622 49.5953 41.0385L48.0781 43.6266ZM47.2665 42.7621C47.4525 43.1341 47.7369 43.4275 48.0809 43.6282L49.5925 41.0369C49.7333 41.119 49.8654 41.2516 49.9498 41.4205L47.2665 42.7621ZM47.032 41.7612C47.032 42.0967 47.1031 42.4494 47.2783 42.7852L49.938 41.3975C50.0116 41.5386 50.032 41.6712 50.032 41.7612H47.032ZM47.4027 40.4364C47.1879 40.8103 47.032 41.2585 47.032 41.7612H50.032C50.032 41.8916 49.9903 41.9546 50.004 41.9308L47.4027 40.4364ZM48.1587 38.4917C47.9519 39.2928 47.6947 39.932 47.4052 40.432L50.0015 41.9351C50.4568 41.1487 50.8048 40.2434 51.0634 39.2417L48.1587 38.4917ZM48.4602 36.1182C48.4602 36.9226 48.3598 37.7128 48.1587 38.4917L51.0634 39.2417C51.3278 38.2178 51.4602 37.1757 51.4602 36.1182H48.4602ZM47.2347 32.2248C48.1146 33.9444 48.4602 35.2214 48.4602 36.1182H51.4602C51.4602 34.5351 50.879 32.7611 49.9054 30.8582L47.2347 32.2248ZM46.9622 31.1035C46.9622 31.5024 47.0588 31.8832 47.2366 32.2284L49.9035 30.8546C49.9375 30.9205 49.9622 31.0093 49.9622 31.1035H46.9622ZM47.2194 30.0322C47.0403 30.3776 46.9622 30.7444 46.9622 31.1035H49.9622C49.9622 31.1833 49.9433 31.2962 49.8827 31.4131L47.2194 30.0322ZM48.1057 29.13C47.741 29.3312 47.435 29.6295 47.2288 30.0143L49.8732 31.431C49.794 31.5788 49.6742 31.6909 49.5549 31.7567L48.1057 29.13ZM49.2239 28.8354C48.8164 28.8354 48.4142 28.9412 48.0519 29.1612L49.6088 31.7255C49.4834 31.8016 49.3436 31.8354 49.2239 31.8354V28.8354ZM50.4785 29.2147C50.1148 28.976 49.6875 28.8354 49.2239 28.8354V31.8354C49.1518 31.8354 49.0765 31.8246 49.0034 31.802C48.931 31.7796 48.8737 31.7498 48.8325 31.7228L50.4785 29.2147ZM51.2879 30.0602C51.0903 29.7338 50.8177 29.4262 50.4505 29.1967L48.8605 31.7408C48.7642 31.6806 48.7243 31.6184 48.7214 31.6136L51.2879 30.0602Z" fill="#F8F9FA" mask="url(#path-1-outside-1_50_1211)"/>
<path d="M33.761 33.314C33.9726 33.314 34.1482 33.3923 34.2878 33.5488C34.4317 33.7054 34.5037 33.9064 34.5037 34.1519C34.5037 34.3888 34.4338 34.5771 34.2942 34.7168C34.1545 34.8564 33.9747 34.9263 33.7546 34.9263H32.6692L32.6755 39.5283C32.6755 39.7738 32.5867 39.9684 32.4089 40.1123C32.2312 40.2562 32.0111 40.3281 31.7488 40.3281C31.4822 40.3281 31.26 40.2562 31.0823 40.1123C30.9088 39.9684 30.822 39.7738 30.822 39.5283L30.8157 34.9263H30.2507C30.0349 34.9263 29.8635 34.8586 29.7366 34.7231C29.6096 34.5835 29.5461 34.3931 29.5461 34.1519C29.5461 33.9064 29.6117 33.7054 29.7429 33.5488C29.8741 33.3923 30.0455 33.314 30.2571 33.314H30.8093C30.8093 32.6411 30.877 32.1121 31.0125 31.7271C31.1479 31.342 31.3679 31.0669 31.6726 30.9019C31.9815 30.7326 32.4026 30.6479 32.9358 30.6479C33.3717 30.6479 33.725 30.7093 33.9958 30.832C34.3556 30.9971 34.5354 31.2848 34.5354 31.6953C34.5354 31.8815 34.4973 32.0233 34.4211 32.1206C34.3492 32.2137 34.2371 32.2793 34.0847 32.3174C34.0212 32.3301 33.9556 32.3364 33.8879 32.3364C33.7864 32.3364 33.6658 32.328 33.5261 32.311C33.3907 32.2899 33.3103 32.2772 33.2849 32.2729C33.2172 32.2645 33.1707 32.2603 33.1453 32.2603C32.9464 32.2603 32.8152 32.328 32.7517 32.4634C32.6925 32.5988 32.6628 32.8019 32.6628 33.0728V33.314H33.761Z" fill="#212529"/>
<path d="M38.0583 30.9209C38.1557 30.7601 38.2721 30.6374 38.4075 30.5527C38.5429 30.4639 38.6868 30.4194 38.8391 30.4194C38.983 30.4194 39.1142 30.4554 39.2327 30.5273C39.3554 30.5951 39.4464 30.6882 39.5056 30.8066C39.5691 30.9209 39.6008 31.0479 39.6008 31.1875C39.6008 31.3398 39.5649 31.4858 39.4929 31.6255C38.5662 33.4367 38.1028 34.9622 38.1028 36.2021C38.1028 37.1331 38.2192 38.0493 38.4519 38.9507C38.6847 39.8521 38.9872 40.6243 39.3596 41.2676C39.4739 41.4665 39.531 41.659 39.531 41.8452C39.531 41.9679 39.5056 42.078 39.4548 42.1753C39.4041 42.2769 39.3279 42.3573 39.2263 42.4165C39.1036 42.4884 38.9639 42.5244 38.8074 42.5244C38.6508 42.5244 38.5006 42.4884 38.3567 42.4165C38.217 42.3488 38.1028 42.2515 38.0139 42.1245C37.6754 41.6252 37.377 41.0496 37.1189 40.3979C36.865 39.7505 36.6661 39.0649 36.5222 38.3413C36.3826 37.6177 36.3127 36.9046 36.3127 36.2021C36.3127 35.3812 36.4672 34.52 36.7761 33.6187C37.085 32.7173 37.5125 31.818 38.0583 30.9209Z" fill="#212529"/>
<path d="M40.6418 39.687C40.6249 39.6024 40.6165 39.5368 40.6165 39.4902C40.6165 39.3125 40.6778 39.1453 40.8005 38.9888L42.8508 36.4751L41.0862 34.4565C41.0142 34.3719 40.9486 34.2682 40.8894 34.1455C40.8302 34.0186 40.8005 33.8958 40.8005 33.7773C40.8005 33.5404 40.8873 33.3563 41.0608 33.2251C41.2385 33.0939 41.4565 33.0283 41.7146 33.0283C41.8627 33.0283 42.0066 33.0601 42.1462 33.1235C42.2901 33.187 42.4128 33.2759 42.5144 33.3901L44.095 35.2437L45.6882 33.4155C45.8152 33.2674 45.9443 33.1616 46.0754 33.0981C46.2109 33.0304 46.3569 32.9966 46.5134 32.9966C46.6065 32.9966 46.7314 33.0114 46.8879 33.041C47.0445 33.0706 47.1715 33.151 47.2688 33.2822C47.3661 33.4092 47.4148 33.5552 47.4148 33.7202C47.4148 33.8429 47.3915 33.9678 47.345 34.0947C47.2984 34.2217 47.2349 34.3296 47.1545 34.4185L45.3137 36.4561L47.4148 38.9253C47.474 38.993 47.5248 39.084 47.5671 39.1982C47.6137 39.3083 47.637 39.4098 47.637 39.5029C47.637 39.668 47.5883 39.814 47.491 39.9409C47.3936 40.0636 47.2646 40.1589 47.1038 40.2266C46.9472 40.2943 46.7821 40.3281 46.6086 40.3281C46.3293 40.3281 46.0818 40.1948 45.866 39.9282L44.0505 37.6621L42.3938 39.8647C42.2795 40.0171 42.1484 40.1292 42.0002 40.2012C41.8521 40.2773 41.6977 40.3154 41.5369 40.3154C41.3549 40.3154 41.1814 40.271 41.0164 40.1821C40.9317 40.1398 40.8534 40.0742 40.7815 39.9854C40.7138 39.8965 40.6672 39.797 40.6418 39.687Z" fill="#212529"/>
<path d="M50.0046 30.9209C50.5505 31.818 50.9779 32.7173 51.2869 33.6187C51.5958 34.52 51.7502 35.3812 51.7502 36.2021C51.7502 36.9046 51.6783 37.6177 51.5344 38.3413C51.3948 39.0649 51.1959 39.7505 50.9377 40.3979C50.6838 41.0496 50.3876 41.6252 50.0491 42.1245C49.9602 42.2515 49.8438 42.3488 49.7 42.4165C49.5603 42.4884 49.4122 42.5244 49.2556 42.5244C49.099 42.5244 48.9594 42.4884 48.8367 42.4165C48.7351 42.3573 48.6589 42.2769 48.6082 42.1753C48.5574 42.078 48.532 41.9679 48.532 41.8452C48.532 41.659 48.5891 41.4665 48.7034 41.2676C49.0758 40.6243 49.3783 39.8521 49.6111 38.9507C49.8438 38.0493 49.9602 37.1331 49.9602 36.2021C49.9602 34.9622 49.4968 33.4367 48.5701 31.6255C48.4981 31.4858 48.4622 31.3398 48.4622 31.1875C48.4622 31.0479 48.4918 30.9209 48.551 30.8066C48.6145 30.6882 48.7076 30.5951 48.8303 30.5273C48.9488 30.4554 49.08 30.4194 49.2239 30.4194C49.3762 30.4194 49.5201 30.4639 49.6555 30.5527C49.7909 30.6374 49.9073 30.7601 50.0046 30.9209Z" fill="#212529"/>
<path d="M11.0107 31.3704C20.624 29.951 36.6385 24.311 42.9096 19.0575" stroke="#212529" stroke-width="1.4" stroke-linecap="round" stroke-linejoin="round"/>
<circle cx="42.6388" cy="19.2347" r="1.96976" fill="#212529"/>
<path d="M10.7975 49.7884H50.4841" stroke="#212529" stroke-width="2" stroke-linecap="round" stroke-linejoin="round"/>
<path d="M10.7975 11.3611V49.7885" stroke="#212529" stroke-width="2" stroke-linecap="round" stroke-linejoin="round"/>
<path fill-rule="evenodd" clip-rule="evenodd" d="M10.7479 11.0068L7.62048 15.2466H13.7209L10.7479 11.0068Z" fill="#212529" stroke="#212529" stroke-width="2.4" stroke-linecap="round" stroke-linejoin="round"/>
<path fill-rule="evenodd" clip-rule="evenodd" d="M52.3795 50.1807L47.6595 46.699V53.4905L52.3795 50.1807Z" fill="#212529" stroke="#212529" stroke-width="2.4" stroke-linecap="round" stroke-linejoin="round"/>
</svg>
