<svg width="60" height="60" viewBox="0 0 60 60" fill="none" xmlns="http://www.w3.org/2000/svg">
<g clip-path="url(#clip0_50_4294)">
<mask id="path-1-outside-1_50_4294" maskUnits="userSpaceOnUse" x="-7.73201" y="-10.1077" width="78.4889" height="78.4889" fill="black">
<rect fill="white" x="-7.73201" y="-10.1077" width="78.4889" height="78.4889"/>
<path fill-rule="evenodd" clip-rule="evenodd" d="M50.2002 11.0549C49.0278 9.88257 47.2165 9.65473 45.4426 10.0438C43.6404 10.439 41.7042 11.4946 40.0403 13.1585C39.1934 14.0055 38.3082 14.8186 37.3769 15.674L37.2889 15.7548C36.3294 16.6362 35.3252 17.561 34.2966 18.5896C33.7765 19.1098 33.1414 19.749 32.4206 20.4836C30.5267 19.9572 28.2508 19.3319 25.9019 18.6976L26.6271 17.9724C27.4605 17.139 27.4605 15.7878 26.6271 14.9544C25.7937 14.121 24.4425 14.121 23.6091 14.9544L21.136 17.4276C20.7642 17.33 20.3959 17.2338 20.0324 17.1393C17.9439 16.5964 16.0098 16.1093 14.4789 15.7506C12.9877 15.4012 11.7856 15.1502 11.2265 15.1175C10.5662 15.0789 9.9385 15.1195 9.43935 15.3343C9.17619 15.4476 8.91654 15.6233 8.72342 15.8909C8.52542 16.1652 8.44022 16.477 8.43768 16.7845C8.43303 17.349 8.70451 17.9007 9.0217 18.377C9.35686 18.8802 9.83487 19.4327 10.4276 20.0253C11.8982 21.496 18.1302 26.7616 22.9027 30.7485C20.976 32.9771 19.12 35.2522 17.5714 37.3817C16.6824 37.0451 15.7715 36.7095 14.9075 36.4335C13.5516 36.0006 12.1703 35.665 11.0927 35.7634C10.2539 35.84 9.45257 36.4314 9.11082 37.2637C8.73645 38.1754 8.9488 39.2481 9.87816 40.1775C10.2062 40.5055 11.0783 41.2258 12.0533 42.0108C12.6606 42.4996 13.327 43.0288 13.9656 43.5322C13.9205 43.6424 13.8775 43.7508 13.8367 43.8572C13.5543 44.5934 13.3608 45.2717 13.2895 45.8401C13.254 46.1236 13.2442 46.4148 13.287 46.6888C13.3288 46.9558 13.4339 47.2886 13.7002 47.5549C13.9683 47.823 14.3035 47.9261 14.5705 47.9656C14.8444 48.006 15.1346 47.9931 15.4161 47.9546C15.9807 47.8775 16.6535 47.6769 17.3829 47.3873C17.5056 47.3386 17.6309 47.287 17.7586 47.2325C18.3589 47.9967 19.0212 48.8331 19.6225 49.58C20.4074 50.555 21.1277 51.4271 21.4558 51.7551C22.3851 52.6845 23.4578 52.8969 24.3696 52.5225C25.2019 52.1807 25.7933 51.3794 25.8698 50.5406C25.9682 49.463 25.6327 48.0817 25.1997 46.7258C24.8577 45.655 24.4241 44.5122 24.0105 43.4282C26.0334 41.9028 28.1727 40.0947 30.265 38.2219C34.1691 42.8887 39.0204 48.6183 40.4225 50.0204C41.0152 50.6131 41.5676 51.0911 42.0708 51.4262C42.5471 51.7434 43.0988 52.0149 43.6633 52.0103C43.9708 52.0077 44.2826 51.9225 44.5569 51.7245C44.8245 51.5314 45.0002 51.2717 45.1135 51.0086C45.3283 50.5094 45.3689 49.8817 45.3303 49.2214C45.2976 48.6624 45.0466 47.4603 44.6972 45.969C44.3385 44.4381 43.8514 42.504 43.3085 40.4155C43.214 40.0521 43.1178 39.6838 43.0203 39.312L45.4934 36.8388C46.3268 36.0054 46.3268 34.6542 45.4934 33.8208C44.66 32.9874 43.3088 32.9874 42.4754 33.8208L41.7502 34.5461C41.1941 32.4865 40.6448 30.483 40.1631 28.744C40.5543 28.3514 40.9186 27.9847 41.2523 27.6488C41.6468 27.2518 41.9985 26.8978 42.3017 26.5946C42.7595 26.1368 43.2165 25.6903 43.6713 25.246C45.1641 23.7877 46.6323 22.3533 48.0212 20.6231C49.4502 19.1806 50.4505 17.3524 50.8968 15.6537C51.3271 14.0156 51.3142 12.1689 50.2002 11.0549ZM39.352 27.007C39.5687 26.7891 39.776 26.5805 39.9731 26.3822L39.9732 26.3822L39.9736 26.3818C40.3681 25.9848 40.7218 25.629 41.0289 25.3218C41.5193 24.8314 41.9968 24.3648 42.4633 23.9089C43.9494 22.4567 45.3237 21.1136 46.6463 19.4603C46.6671 19.4344 46.6893 19.4096 46.7127 19.3861C47.9337 18.1652 48.7864 16.6027 49.1559 15.1964C49.5449 13.7154 49.3307 12.731 48.9274 12.3277C48.3596 11.7599 47.2843 11.4827 45.8282 11.802C44.4003 12.1152 42.763 12.9815 41.3131 14.4313C40.4386 15.3059 39.5283 16.142 38.6055 16.9896L38.6054 16.9896L38.5066 17.0804C37.5457 17.9631 36.5677 18.8641 35.5694 19.8624C35.0677 20.3641 34.4627 20.973 33.7799 21.6685C33.9735 22.1831 33.9462 22.7817 33.6364 23.3052L28.5576 31.8903L37.1426 26.8115C37.8778 26.3766 38.761 26.4985 39.352 27.007ZM30.9881 21.9543C29.0234 21.4106 26.7418 20.7864 24.4333 20.1662L21.5961 23.0035C20.7627 23.8369 19.4115 23.8369 18.5781 23.0035C17.7447 22.1701 17.7447 20.8189 18.5781 19.9855L19.661 18.9026L19.5796 18.8814C17.4965 18.3399 15.5785 17.857 14.0683 17.5031C12.5184 17.14 11.4903 16.936 11.1215 16.9145C10.704 16.89 10.4377 16.9151 10.2816 16.9487C10.3247 17.0559 10.3996 17.1987 10.5198 17.3792C10.7635 17.745 11.151 18.2032 11.7003 18.7526C13.1118 20.164 19.3034 25.3962 24.0879 29.393C26.5045 26.6586 28.9557 24.0564 30.9881 21.9543ZM25.4706 30.5464C27.1847 28.6082 28.9191 26.7338 30.5078 25.0586L26.73 31.4443C26.6986 31.4975 26.6279 31.5091 26.5815 31.4705C26.2293 31.1779 25.8576 30.8687 25.4706 30.5464ZM24.285 31.9015C22.4964 33.9691 20.7733 36.0728 19.3105 38.0536C20.2691 38.5348 20.6274 39.7715 19.9996 40.694L17.9978 43.6355L20.9392 41.6337C21.6662 41.1389 22.5883 41.2566 23.182 41.7978C25.1013 40.3354 27.1254 38.619 29.1108 36.8401C28.5697 36.1915 28.059 35.5779 27.5928 35.0167C27.1501 34.4839 27.0525 33.7918 27.2553 33.1925C26.656 33.3953 25.964 33.2977 25.4312 32.8551C25.0694 32.5544 24.6857 32.2353 24.285 31.9015ZM30.4455 35.6301C29.9246 35.0056 29.4311 34.4126 28.9773 33.8664C28.9388 33.8201 28.9503 33.7494 29.0035 33.7179L37.9162 28.4452C35.8358 30.5205 33.2113 33.0946 30.4455 35.6301ZM31.6004 37.0127C34.2068 34.6262 36.6828 32.2111 38.6997 30.206C39.1922 31.9918 39.7384 33.9929 40.2816 36.0146L37.4444 38.8519C36.611 39.6853 36.611 41.0365 37.4444 41.8699C38.2778 42.7033 39.629 42.7033 40.4624 41.8699L41.5452 40.787L41.5664 40.8684C42.1079 42.9514 42.5908 44.8694 42.9447 46.3796C43.3078 47.9295 43.5118 48.9577 43.5334 49.3264C43.5578 49.744 43.5327 50.0102 43.4991 50.1663C43.3919 50.1232 43.2491 50.0483 43.0686 49.9281C42.7028 49.6844 42.2446 49.2969 41.6953 48.7476C40.3472 47.3995 35.5139 41.6911 31.6004 37.0127ZM16.8264 45.6711C16.7748 45.3337 16.8208 44.9879 16.957 44.6763C16.4873 44.8816 15.9397 44.8819 15.4609 44.6518C15.2411 45.2472 15.1182 45.7235 15.0755 46.0641C15.07 46.1081 15.0661 46.1479 15.0634 46.1836C15.0963 46.1807 15.1326 46.1766 15.1724 46.1712C15.5367 46.1214 16.0591 45.9762 16.7188 45.7143C16.7544 45.7002 16.7902 45.6858 16.8264 45.6711ZM16.099 43.1725C16.1048 43.177 16.1105 43.1815 16.1163 43.186C16.2039 43.2545 16.3339 43.2365 16.3999 43.1396L18.6769 39.7938C18.7493 39.6874 18.7062 39.5251 18.5692 39.4733C18.4965 39.4458 18.4237 39.4182 18.3507 39.3905C18.3023 39.46 18.2544 39.5292 18.2069 39.5982C17.3254 40.8785 16.6187 42.102 16.099 43.1725ZM16.6183 38.7323C15.872 38.4525 15.1307 38.1845 14.4207 37.9577C13.0628 37.5241 11.9601 37.2909 11.2382 37.3568C11.013 37.3773 10.7139 37.572 10.5909 37.8714C10.5006 38.0914 10.4594 38.4959 11.0095 39.0461C11.2617 39.2983 12.0511 39.9549 13.0567 40.7645C13.5637 41.1726 14.113 41.6097 14.6532 42.0366C15.1733 41.009 15.8326 39.887 16.6183 38.7323ZM19.2386 46.5261C20.2878 45.9767 21.4341 45.2798 22.6109 44.4504C22.631 44.4362 22.6512 44.4219 22.6714 44.4076C23.0324 45.3571 23.3873 46.3101 23.6755 47.2126C24.1092 48.5705 24.3424 49.6732 24.2765 50.3952C24.2559 50.6203 24.0612 50.9195 23.7618 51.0424C23.5419 51.1327 23.1373 51.1739 22.5872 50.6238C22.335 50.3716 21.6784 49.5822 20.8688 48.5766C20.3454 47.9265 19.7744 47.2067 19.2386 46.5261ZM14.8165 46.1816C14.8166 46.1816 14.8182 46.1819 14.8212 46.1828C14.818 46.1821 14.8165 46.1817 14.8165 46.1816ZM15.068 46.425C15.069 46.428 15.0693 46.4297 15.0693 46.4297C15.0692 46.4298 15.0687 46.4283 15.068 46.425ZM44.3621 35.7075L42.5475 37.522C42.4422 37.1256 42.3361 36.7276 42.2296 36.3294L43.6068 34.9522C43.8154 34.7436 44.1535 34.7436 44.3621 34.9522C44.5706 35.1608 44.5706 35.4989 44.3621 35.7075ZM41.0754 38.9942C40.971 38.5986 40.8653 38.2 40.759 37.8L38.5758 39.9832C38.3672 40.1918 38.3672 40.5299 38.5758 40.7385C38.7843 40.9471 39.1225 40.9471 39.331 40.7385L41.0754 38.9942ZM24.7405 16.0858L22.926 17.9003C23.3224 18.0056 23.7204 18.1117 24.1186 18.2182L25.4957 16.8411C25.7043 16.6325 25.7043 16.2944 25.4957 16.0858C25.2872 15.8772 24.949 15.8772 24.7405 16.0858ZM22.6479 19.6889C22.2479 19.5825 21.8494 19.4769 21.4538 19.3725L19.7094 21.1168C19.5009 21.3254 19.5009 21.6635 19.7094 21.8721C19.918 22.0807 20.2561 22.0807 20.4647 21.8721L22.6479 19.6889Z"/>
</mask>
<path fill-rule="evenodd" clip-rule="evenodd" d="M50.2002 11.0549C49.0278 9.88257 47.2165 9.65473 45.4426 10.0438C43.6404 10.439 41.7042 11.4946 40.0403 13.1585C39.1934 14.0055 38.3082 14.8186 37.3769 15.674L37.2889 15.7548C36.3294 16.6362 35.3252 17.561 34.2966 18.5896C33.7765 19.1098 33.1414 19.749 32.4206 20.4836C30.5267 19.9572 28.2508 19.3319 25.9019 18.6976L26.6271 17.9724C27.4605 17.139 27.4605 15.7878 26.6271 14.9544C25.7937 14.121 24.4425 14.121 23.6091 14.9544L21.136 17.4276C20.7642 17.33 20.3959 17.2338 20.0324 17.1393C17.9439 16.5964 16.0098 16.1093 14.4789 15.7506C12.9877 15.4012 11.7856 15.1502 11.2265 15.1175C10.5662 15.0789 9.9385 15.1195 9.43935 15.3343C9.17619 15.4476 8.91654 15.6233 8.72342 15.8909C8.52542 16.1652 8.44022 16.477 8.43768 16.7845C8.43303 17.349 8.70451 17.9007 9.0217 18.377C9.35686 18.8802 9.83487 19.4327 10.4276 20.0253C11.8982 21.496 18.1302 26.7616 22.9027 30.7485C20.976 32.9771 19.12 35.2522 17.5714 37.3817C16.6824 37.0451 15.7715 36.7095 14.9075 36.4335C13.5516 36.0006 12.1703 35.665 11.0927 35.7634C10.2539 35.84 9.45257 36.4314 9.11082 37.2637C8.73645 38.1754 8.9488 39.2481 9.87816 40.1775C10.2062 40.5055 11.0783 41.2258 12.0533 42.0108C12.6606 42.4996 13.327 43.0288 13.9656 43.5322C13.9205 43.6424 13.8775 43.7508 13.8367 43.8572C13.5543 44.5934 13.3608 45.2717 13.2895 45.8401C13.254 46.1236 13.2442 46.4148 13.287 46.6888C13.3288 46.9558 13.4339 47.2886 13.7002 47.5549C13.9683 47.823 14.3035 47.9261 14.5705 47.9656C14.8444 48.006 15.1346 47.9931 15.4161 47.9546C15.9807 47.8775 16.6535 47.6769 17.3829 47.3873C17.5056 47.3386 17.6309 47.287 17.7586 47.2325C18.3589 47.9967 19.0212 48.8331 19.6225 49.58C20.4074 50.555 21.1277 51.4271 21.4558 51.7551C22.3851 52.6845 23.4578 52.8969 24.3696 52.5225C25.2019 52.1807 25.7933 51.3794 25.8698 50.5406C25.9682 49.463 25.6327 48.0817 25.1997 46.7258C24.8577 45.655 24.4241 44.5122 24.0105 43.4282C26.0334 41.9028 28.1727 40.0947 30.265 38.2219C34.1691 42.8887 39.0204 48.6183 40.4225 50.0204C41.0152 50.6131 41.5676 51.0911 42.0708 51.4262C42.5471 51.7434 43.0988 52.0149 43.6633 52.0103C43.9708 52.0077 44.2826 51.9225 44.5569 51.7245C44.8245 51.5314 45.0002 51.2717 45.1135 51.0086C45.3283 50.5094 45.3689 49.8817 45.3303 49.2214C45.2976 48.6624 45.0466 47.4603 44.6972 45.969C44.3385 44.4381 43.8514 42.504 43.3085 40.4155C43.214 40.0521 43.1178 39.6838 43.0203 39.312L45.4934 36.8388C46.3268 36.0054 46.3268 34.6542 45.4934 33.8208C44.66 32.9874 43.3088 32.9874 42.4754 33.8208L41.7502 34.5461C41.1941 32.4865 40.6448 30.483 40.1631 28.744C40.5543 28.3514 40.9186 27.9847 41.2523 27.6488C41.6468 27.2518 41.9985 26.8978 42.3017 26.5946C42.7595 26.1368 43.2165 25.6903 43.6713 25.246C45.1641 23.7877 46.6323 22.3533 48.0212 20.6231C49.4502 19.1806 50.4505 17.3524 50.8968 15.6537C51.3271 14.0156 51.3142 12.1689 50.2002 11.0549ZM39.352 27.007C39.5687 26.7891 39.776 26.5805 39.9731 26.3822L39.9732 26.3822L39.9736 26.3818C40.3681 25.9848 40.7218 25.629 41.0289 25.3218C41.5193 24.8314 41.9968 24.3648 42.4633 23.9089C43.9494 22.4567 45.3237 21.1136 46.6463 19.4603C46.6671 19.4344 46.6893 19.4096 46.7127 19.3861C47.9337 18.1652 48.7864 16.6027 49.1559 15.1964C49.5449 13.7154 49.3307 12.731 48.9274 12.3277C48.3596 11.7599 47.2843 11.4827 45.8282 11.802C44.4003 12.1152 42.763 12.9815 41.3131 14.4313C40.4386 15.3059 39.5283 16.142 38.6055 16.9896L38.6054 16.9896L38.5066 17.0804C37.5457 17.9631 36.5677 18.8641 35.5694 19.8624C35.0677 20.3641 34.4627 20.973 33.7799 21.6685C33.9735 22.1831 33.9462 22.7817 33.6364 23.3052L28.5576 31.8903L37.1426 26.8115C37.8778 26.3766 38.761 26.4985 39.352 27.007ZM30.9881 21.9543C29.0234 21.4106 26.7418 20.7864 24.4333 20.1662L21.5961 23.0035C20.7627 23.8369 19.4115 23.8369 18.5781 23.0035C17.7447 22.1701 17.7447 20.8189 18.5781 19.9855L19.661 18.9026L19.5796 18.8814C17.4965 18.3399 15.5785 17.857 14.0683 17.5031C12.5184 17.14 11.4903 16.936 11.1215 16.9145C10.704 16.89 10.4377 16.9151 10.2816 16.9487C10.3247 17.0559 10.3996 17.1987 10.5198 17.3792C10.7635 17.745 11.151 18.2032 11.7003 18.7526C13.1118 20.164 19.3034 25.3962 24.0879 29.393C26.5045 26.6586 28.9557 24.0564 30.9881 21.9543ZM25.4706 30.5464C27.1847 28.6082 28.9191 26.7338 30.5078 25.0586L26.73 31.4443C26.6986 31.4975 26.6279 31.5091 26.5815 31.4705C26.2293 31.1779 25.8576 30.8687 25.4706 30.5464ZM24.285 31.9015C22.4964 33.9691 20.7733 36.0728 19.3105 38.0536C20.2691 38.5348 20.6274 39.7715 19.9996 40.694L17.9978 43.6355L20.9392 41.6337C21.6662 41.1389 22.5883 41.2566 23.182 41.7978C25.1013 40.3354 27.1254 38.619 29.1108 36.8401C28.5697 36.1915 28.059 35.5779 27.5928 35.0167C27.1501 34.4839 27.0525 33.7918 27.2553 33.1925C26.656 33.3953 25.964 33.2977 25.4312 32.8551C25.0694 32.5544 24.6857 32.2353 24.285 31.9015ZM30.4455 35.6301C29.9246 35.0056 29.4311 34.4126 28.9773 33.8664C28.9388 33.8201 28.9503 33.7494 29.0035 33.7179L37.9162 28.4452C35.8358 30.5205 33.2113 33.0946 30.4455 35.6301ZM31.6004 37.0127C34.2068 34.6262 36.6828 32.2111 38.6997 30.206C39.1922 31.9918 39.7384 33.9929 40.2816 36.0146L37.4444 38.8519C36.611 39.6853 36.611 41.0365 37.4444 41.8699C38.2778 42.7033 39.629 42.7033 40.4624 41.8699L41.5452 40.787L41.5664 40.8684C42.1079 42.9514 42.5908 44.8694 42.9447 46.3796C43.3078 47.9295 43.5118 48.9577 43.5334 49.3264C43.5578 49.744 43.5327 50.0102 43.4991 50.1663C43.3919 50.1232 43.2491 50.0483 43.0686 49.9281C42.7028 49.6844 42.2446 49.2969 41.6953 48.7476C40.3472 47.3995 35.5139 41.6911 31.6004 37.0127ZM16.8264 45.6711C16.7748 45.3337 16.8208 44.9879 16.957 44.6763C16.4873 44.8816 15.9397 44.8819 15.4609 44.6518C15.2411 45.2472 15.1182 45.7235 15.0755 46.0641C15.07 46.1081 15.0661 46.1479 15.0634 46.1836C15.0963 46.1807 15.1326 46.1766 15.1724 46.1712C15.5367 46.1214 16.0591 45.9762 16.7188 45.7143C16.7544 45.7002 16.7902 45.6858 16.8264 45.6711ZM16.099 43.1725C16.1048 43.177 16.1105 43.1815 16.1163 43.186C16.2039 43.2545 16.3339 43.2365 16.3999 43.1396L18.6769 39.7938C18.7493 39.6874 18.7062 39.5251 18.5692 39.4733C18.4965 39.4458 18.4237 39.4182 18.3507 39.3905C18.3023 39.46 18.2544 39.5292 18.2069 39.5982C17.3254 40.8785 16.6187 42.102 16.099 43.1725ZM16.6183 38.7323C15.872 38.4525 15.1307 38.1845 14.4207 37.9577C13.0628 37.5241 11.9601 37.2909 11.2382 37.3568C11.013 37.3773 10.7139 37.572 10.5909 37.8714C10.5006 38.0914 10.4594 38.4959 11.0095 39.0461C11.2617 39.2983 12.0511 39.9549 13.0567 40.7645C13.5637 41.1726 14.113 41.6097 14.6532 42.0366C15.1733 41.009 15.8326 39.887 16.6183 38.7323ZM19.2386 46.5261C20.2878 45.9767 21.4341 45.2798 22.6109 44.4504C22.631 44.4362 22.6512 44.4219 22.6714 44.4076C23.0324 45.3571 23.3873 46.3101 23.6755 47.2126C24.1092 48.5705 24.3424 49.6732 24.2765 50.3952C24.2559 50.6203 24.0612 50.9195 23.7618 51.0424C23.5419 51.1327 23.1373 51.1739 22.5872 50.6238C22.335 50.3716 21.6784 49.5822 20.8688 48.5766C20.3454 47.9265 19.7744 47.2067 19.2386 46.5261ZM14.8165 46.1816C14.8166 46.1816 14.8182 46.1819 14.8212 46.1828C14.818 46.1821 14.8165 46.1817 14.8165 46.1816ZM15.068 46.425C15.069 46.428 15.0693 46.4297 15.0693 46.4297C15.0692 46.4298 15.0687 46.4283 15.068 46.425ZM44.3621 35.7075L42.5475 37.522C42.4422 37.1256 42.3361 36.7276 42.2296 36.3294L43.6068 34.9522C43.8154 34.7436 44.1535 34.7436 44.3621 34.9522C44.5706 35.1608 44.5706 35.4989 44.3621 35.7075ZM41.0754 38.9942C40.971 38.5986 40.8653 38.2 40.759 37.8L38.5758 39.9832C38.3672 40.1918 38.3672 40.5299 38.5758 40.7385C38.7843 40.9471 39.1225 40.9471 39.331 40.7385L41.0754 38.9942ZM24.7405 16.0858L22.926 17.9003C23.3224 18.0056 23.7204 18.1117 24.1186 18.2182L25.4957 16.8411C25.7043 16.6325 25.7043 16.2944 25.4957 16.0858C25.2872 15.8772 24.949 15.8772 24.7405 16.0858ZM22.6479 19.6889C22.2479 19.5825 21.8494 19.4769 21.4538 19.3725L19.7094 21.1168C19.5009 21.3254 19.5009 21.6635 19.7094 21.8721C19.918 22.0807 20.2561 22.0807 20.4647 21.8721L22.6479 19.6889Z" fill="#F8F9FA"/>
<path d="M45.4425 10.0438L45.1212 8.57859L45.1212 8.57859L45.4425 10.0438ZM40.0403 13.1585L38.9796 12.0979L38.9796 12.0979L40.0403 13.1585ZM37.3768 15.674L36.3621 14.5693L36.3621 14.5693L37.3768 15.674ZM37.2888 15.7548L36.2741 14.6501L36.2741 14.6501L37.2888 15.7548ZM32.4206 20.4836L32.0189 21.9288C32.545 22.075 33.1089 21.9238 33.4913 21.5341L32.4206 20.4836ZM25.9019 18.6976L24.8412 17.6369C24.4627 18.0155 24.3146 18.5672 24.4526 19.0844C24.5907 19.6017 24.994 20.0062 25.5109 20.1457L25.9019 18.6976ZM21.1359 17.4275L20.7553 18.8784C21.2709 19.0137 21.8196 18.8652 22.1966 18.4882L21.1359 17.4275ZM20.0324 17.1393L20.4098 15.6875L20.4098 15.6875L20.0324 17.1393ZM14.4789 15.7506L14.1367 17.211L14.1367 17.211L14.4789 15.7506ZM11.2265 15.1175L11.314 13.62L11.314 13.62L11.2265 15.1175ZM9.43932 15.3343L8.84623 13.9565L8.84623 13.9565L9.43932 15.3343ZM8.72338 15.8909L9.93967 16.7687L9.93967 16.7687L8.72338 15.8909ZM8.43765 16.7844L9.9376 16.7968L9.9376 16.7968L8.43765 16.7844ZM9.02167 18.3769L10.2701 17.5455L10.2701 17.5454L9.02167 18.3769ZM22.9027 30.7485L24.0374 31.7295C24.3005 31.4252 24.4303 31.028 24.3978 30.6271C24.3653 30.2262 24.1731 29.8552 23.8644 29.5973L22.9027 30.7485ZM17.5714 37.3816L17.0403 38.7844C17.6726 39.0239 18.3869 38.8106 18.7845 38.2638L17.5714 37.3816ZM14.9074 36.4335L15.3638 35.0046L15.3638 35.0046L14.9074 36.4335ZM11.0927 35.7634L10.9563 34.2696L10.9563 34.2696L11.0927 35.7634ZM9.11079 37.2636L7.72322 36.6939L7.72322 36.6939L9.11079 37.2636ZM12.0533 42.0107L11.1127 43.1792L11.1127 43.1792L12.0533 42.0107ZM13.9656 43.5321L15.3539 44.1C15.6073 43.4807 15.4197 42.7683 14.8941 42.3541L13.9656 43.5321ZM13.8367 43.8572L12.4362 43.32L12.4362 43.32L13.8367 43.8572ZM13.2895 45.8401L11.8011 45.6534L11.8011 45.6534L13.2895 45.8401ZM13.287 46.6887L11.805 46.9205L11.805 46.9205L13.287 46.6887ZM14.5705 47.9655L14.7896 46.4816L14.7896 46.4816L14.5705 47.9655ZM15.4161 47.9546L15.6192 49.4408L15.6192 49.4408L15.4161 47.9546ZM17.3829 47.3873L17.9364 48.7814L17.9364 48.7814L17.3829 47.3873ZM17.7586 47.2324L18.9382 46.3058C18.519 45.7723 17.7939 45.5865 17.1698 45.8528L17.7586 47.2324ZM19.6224 49.5799L18.454 50.5206L18.454 50.5206L19.6224 49.5799ZM24.3695 52.5224L23.7998 51.1349L23.7998 51.1349L24.3695 52.5224ZM25.8698 50.5406L27.3636 50.6769L27.3636 50.6769L25.8698 50.5406ZM25.1997 46.7258L23.7708 47.1821L23.7708 47.1821L25.1997 46.7258ZM24.0105 43.4282L23.1074 42.2305C22.5741 42.6327 22.3709 43.339 22.609 43.963L24.0105 43.4282ZM30.265 38.2218L31.4155 37.2594C31.1546 36.9476 30.7784 36.755 30.3729 36.7257C29.9675 36.6965 29.5675 36.833 29.2646 37.1042L30.265 38.2218ZM42.0708 51.4262L41.2393 52.6747L41.2393 52.6747L42.0708 51.4262ZM43.6633 52.0102L43.6757 53.5102L43.6757 53.5102L43.6633 52.0102ZM44.5569 51.7245L45.4348 52.9408L45.4348 52.9408L44.5569 51.7245ZM45.1134 51.0086L46.4912 51.6017L46.4912 51.6016L45.1134 51.0086ZM45.3303 49.2214L46.8277 49.1339L46.8277 49.1339L45.3303 49.2214ZM44.6972 45.969L43.2367 46.3112L43.2367 46.3112L44.6972 45.969ZM43.3085 40.4155L44.7602 40.0381L44.7602 40.0381L43.3085 40.4155ZM43.0202 39.312L41.9596 38.2513C41.5826 38.6283 41.434 39.177 41.5694 39.6927L43.0202 39.312ZM41.7502 34.546L40.302 34.9371C40.4416 35.4539 40.8461 35.8572 41.3633 35.9953C41.8806 36.1334 42.4323 35.9853 42.8108 35.6067L41.7502 34.546ZM40.163 28.7439L39.1006 27.6851C38.7197 28.0672 38.5735 28.6244 38.7175 29.1443L40.163 28.7439ZM41.2523 27.6488L42.3164 28.706L42.3164 28.706L41.2523 27.6488ZM43.6713 25.246L44.7195 26.3189L44.7195 26.3189L43.6713 25.246ZM48.0212 20.6231L46.9555 19.5674C46.9188 19.6045 46.8841 19.6434 46.8514 19.6841L48.0212 20.6231ZM50.8967 15.6537L52.3475 16.0348L52.3475 16.0348L50.8967 15.6537ZM39.3519 27.0069L38.3737 28.1441C38.9698 28.6569 39.8607 28.6223 40.4153 28.0649L39.3519 27.0069ZM39.9731 26.3822L38.9124 25.3215L38.9092 25.3248L39.9731 26.3822ZM39.9731 26.3822L38.9125 25.3215L38.9125 25.3215L39.9731 26.3822ZM39.9735 26.3817L41.0342 27.4424L41.0374 27.4391L39.9735 26.3817ZM42.4633 23.9088L43.5117 24.9816L43.5117 24.9816L42.4633 23.9088ZM46.6463 19.4603L45.475 18.5232L45.475 18.5232L46.6463 19.4603ZM49.1558 15.1963L50.6066 15.5775L50.6066 15.5775L49.1558 15.1963ZM48.9273 12.3277L49.988 11.267L49.988 11.267L48.9273 12.3277ZM45.8281 11.802L46.1495 13.2672L46.1495 13.2672L45.8281 11.802ZM41.3131 14.4313L40.2524 13.3707L40.2524 13.3707L41.3131 14.4313ZM38.6054 16.9896L39.5743 18.1347C39.5899 18.1215 39.6051 18.1081 39.6201 18.0943L38.6054 16.9896ZM38.6054 16.9896L37.6365 15.8445C37.6209 15.8577 37.6057 15.8711 37.5907 15.8849L38.6054 16.9896ZM38.5065 17.0804L37.4918 15.9757L37.4918 15.9757L38.5065 17.0804ZM33.7799 21.6684L32.7096 20.6175C32.3006 21.0341 32.1704 21.65 32.3759 22.1964L33.7799 21.6684ZM33.6364 23.3052L32.3454 22.5415L32.3454 22.5415L33.6364 23.3052ZM28.5576 31.8903L27.2665 31.1265C26.9179 31.7159 27.0126 32.4667 27.4969 32.9509C27.9811 33.4352 28.7319 33.53 29.3213 33.1813L28.5576 31.8903ZM37.1425 26.8115L36.3788 25.5205L36.3788 25.5205L37.1425 26.8115ZM24.4333 20.1662L24.8225 18.7176C24.3046 18.5784 23.7518 18.7263 23.3726 19.1055L24.4333 20.1662ZM30.9881 21.9542L32.0665 22.9969C32.4343 22.6164 32.5745 22.0703 32.4353 21.5597C32.2961 21.0492 31.8982 20.6497 31.3881 20.5086L30.9881 21.9542ZM19.6609 18.9026L20.7216 19.9632C21.1019 19.5829 21.2495 19.028 21.1084 18.509C20.9672 17.9899 20.559 17.5862 20.0384 17.4508L19.6609 18.9026ZM19.5795 18.8814L19.9571 17.4297L19.9569 17.4296L19.5795 18.8814ZM14.0683 17.5031L13.7261 18.9636L13.7261 18.9636L14.0683 17.5031ZM11.1215 16.9144L11.209 15.417L11.209 15.417L11.1215 16.9144ZM10.2816 16.9487L9.96571 15.4823C9.5334 15.5754 9.1642 15.8546 8.95679 16.2451C8.74937 16.6357 8.72488 17.0979 8.88985 17.5082L10.2816 16.9487ZM10.5198 17.3791L9.27134 18.2106L9.27136 18.2107L10.5198 17.3791ZM24.0879 29.393L23.1262 30.5441C23.7495 31.0648 24.674 30.9949 25.2118 30.3863L24.0879 29.393ZM30.5078 25.0585L31.7988 25.8223C32.1874 25.1653 32.0207 24.3212 31.4114 23.8613C30.8021 23.4014 29.9446 23.4725 29.4193 24.0264L30.5078 25.0585ZM25.4705 30.5463L24.3469 29.5526C24.0783 29.8564 23.944 30.256 23.9749 30.6603C24.0057 31.0647 24.1989 31.4394 24.5105 31.6989L25.4705 30.5463ZM26.73 31.4443L25.439 30.6805L25.439 30.6805L26.73 31.4443ZM26.5815 31.4705L25.6229 32.6243L25.6229 32.6243L26.5815 31.4705ZM24.2849 31.9015L25.245 30.7489C24.6168 30.2257 23.6853 30.3018 23.1505 30.9201L24.2849 31.9015ZM19.3104 38.0536L18.1038 37.1625C17.841 37.5184 17.7487 37.9721 17.8516 38.4024C17.9545 38.8327 18.2421 39.1956 18.6375 39.3941L19.3104 38.0536ZM19.9996 40.694L18.7595 39.85L18.7595 39.85L19.9996 40.694ZM17.9977 43.6355L16.7577 42.7915C16.3523 43.3871 16.4277 44.1867 16.9371 44.6962C17.4465 45.2056 18.2461 45.2809 18.8417 44.8756L17.9977 43.6355ZM20.9392 41.6336L20.0953 40.3936L20.9392 41.6336ZM23.182 41.7978L22.1714 42.9063C22.7069 43.3945 23.5148 43.4301 24.0911 42.9909L23.182 41.7978ZM29.1107 36.8401L30.1117 37.9572C30.7133 37.4182 30.78 36.4995 30.2626 35.8792L29.1107 36.8401ZM27.5927 35.0167L28.7465 34.0581L28.7465 34.0581L27.5927 35.0167ZM27.2553 33.1925L28.6761 33.6734C28.8591 33.1329 28.7195 32.5354 28.316 32.1319C27.9125 31.7283 27.315 31.5887 26.7745 31.7716L27.2553 33.1925ZM25.4312 32.855L24.4727 34.0088L24.4727 34.0088L25.4312 32.855ZM30.4455 35.6301L29.2936 36.5908C29.5562 36.9057 29.9362 37.0993 30.3453 37.1267C30.7544 37.1541 31.1569 37.0128 31.4591 36.7358L30.4455 35.6301ZM28.9772 33.8664L30.131 32.9079L30.131 32.9078L28.9772 33.8664ZM29.0035 33.7179L29.7672 35.0089L29.7672 35.0089L29.0035 33.7179ZM37.9161 28.4452L38.9755 29.5072C39.5108 28.9732 39.565 28.1242 39.1019 27.5265C38.6388 26.9288 37.8032 26.7692 37.1524 27.1542L37.9161 28.4452ZM38.6997 30.206L40.1457 29.8072C40.0039 29.2932 39.6 28.8931 39.0847 28.7563C38.5694 28.6194 38.0202 28.7663 37.6421 29.1422L38.6997 30.206ZM31.6003 37.0126L30.5874 35.9063C29.9956 36.4481 29.935 37.3597 30.4498 37.9751L31.6003 37.0126ZM40.2816 36.0146L41.3422 37.0753C41.7214 36.6961 41.8693 36.1433 41.7302 35.6254L40.2816 36.0146ZM40.4624 41.8698L41.523 42.9305L40.4624 41.8698ZM41.5452 40.787L42.9969 40.4095C42.8616 39.8889 42.4578 39.4807 41.9388 39.3396C41.4198 39.1984 40.8649 39.346 40.4846 39.7263L41.5452 40.787ZM41.5664 40.8683L43.0181 40.491L43.0181 40.4908L41.5664 40.8683ZM42.9446 46.3796L44.4051 46.0374L44.4051 46.0374L42.9446 46.3796ZM43.5333 49.3264L42.0359 49.4139L42.0359 49.4139L43.5333 49.3264ZM43.4991 50.1663L42.9395 51.558C43.3498 51.723 43.812 51.6985 44.2026 51.4911C44.5932 51.2837 44.8723 50.9145 44.9655 50.4821L43.4991 50.1663ZM43.0686 49.9281L42.2371 51.1765L42.2371 51.1765L43.0686 49.9281ZM16.8264 45.671L17.3918 47.0604C18.0347 46.7987 18.4141 46.1302 18.3091 45.444L16.8264 45.671ZM16.957 44.6762L18.3314 45.2771C18.5786 44.7115 18.4541 44.0521 18.0176 43.6156C17.5811 43.1791 16.9218 43.0546 16.3561 43.3018L16.957 44.6762ZM15.4609 44.6518L16.1107 43.2998C15.73 43.1168 15.2897 43.1028 14.8981 43.2613C14.5065 43.4198 14.1999 43.7361 14.0537 44.1324L15.4609 44.6518ZM15.0755 46.0641L16.5638 46.2507L16.5638 46.2507L15.0755 46.0641ZM15.0634 46.1836L13.5675 46.0723C13.5348 46.5116 13.6969 46.9431 14.0108 47.2523C14.3247 47.5614 14.7586 47.717 15.1974 47.6776L15.0634 46.1836ZM15.1724 46.1712L14.9693 44.685L14.9693 44.685L15.1724 46.1712ZM16.7188 45.7143L16.1653 44.3201L16.1653 44.3201L16.7188 45.7143ZM16.099 43.1724L14.7496 42.5173C14.4407 43.1534 14.6181 43.9188 15.1752 44.3542L16.099 43.1724ZM16.1163 43.186L17.0398 42.004L17.0396 42.0039L16.1163 43.186ZM16.3998 43.1396L17.6399 43.9836L17.6399 43.9835L16.3998 43.1396ZM18.6769 39.7938L17.4368 38.9498L17.4368 38.9498L18.6769 39.7938ZM18.5692 39.4733L19.0995 38.0701L19.0995 38.0701L18.5692 39.4733ZM18.3506 39.3905L18.883 37.9881C18.2396 37.7439 17.5125 37.9688 17.1194 38.5337L18.3506 39.3905ZM18.2068 39.5982L16.9713 38.7476L16.9713 38.7476L18.2068 39.5982ZM16.6183 38.7323L17.8584 39.5761C18.1173 39.1956 18.1872 38.7173 18.048 38.2786C17.9088 37.8399 17.5758 37.4894 17.1449 37.3278L16.6183 38.7323ZM14.4207 37.9577L13.9644 39.3866L13.9644 39.3866L14.4207 37.9577ZM11.2381 37.3567L11.1018 35.863L11.1018 35.863L11.2381 37.3567ZM10.5909 37.8714L9.2033 37.3016L9.20329 37.3016L10.5909 37.8714ZM13.0567 40.7644L12.116 41.9329L12.116 41.9329L13.0567 40.7644ZM14.6532 42.0365L13.7232 43.2134C14.0763 43.4925 14.5362 43.5982 14.9757 43.5014C15.4153 43.4046 15.7882 43.1155 15.9915 42.7139L14.6532 42.0365ZM22.6108 44.4503L23.475 45.6764L23.475 45.6764L22.6108 44.4503ZM19.2386 46.5261L18.5427 45.1973C18.1476 45.4042 17.865 45.7762 17.7718 46.2123C17.6785 46.6484 17.7841 47.1035 18.06 47.4539L19.2386 46.5261ZM22.6714 44.4076L24.0734 43.8746C23.9086 43.441 23.5525 43.1081 23.1089 42.9728C22.6652 42.8376 22.184 42.9151 21.8053 43.1829L22.6714 44.4076ZM23.6755 47.2125L25.1044 46.7562L25.1044 46.7562L23.6755 47.2125ZM24.2764 50.3951L25.7702 50.5315L25.7702 50.5315L24.2764 50.3951ZM23.7618 51.0424L23.192 49.6548L23.192 49.6548L23.7618 51.0424ZM20.8687 48.5766L22.0371 47.6359L22.0371 47.6359L20.8687 48.5766ZM14.8165 46.1816L13.7558 45.1209C13.7373 45.1395 13.7192 45.1586 13.7016 45.1781L14.8165 46.1816ZM14.8212 46.1827L14.5203 47.6523C15.309 47.8137 16.0845 47.3238 16.2774 46.5423C16.4704 45.7608 16.0121 44.9663 15.2389 44.7421L14.8212 46.1827ZM15.068 46.425L16.5012 45.9822C16.2638 45.2139 15.4628 44.7694 14.6852 44.9746C13.9077 45.1798 13.4303 45.9617 13.603 46.7471L15.068 46.425ZM42.5475 37.522L41.0978 37.9071C41.2356 38.4256 41.6397 38.831 42.1578 38.9704C42.6758 39.1098 43.2288 38.962 43.6082 38.5826L42.5475 37.522ZM42.2295 36.3294L41.1689 35.2687C40.7901 35.6475 40.6421 36.1996 40.7805 36.7171L42.2295 36.3294ZM40.7589 37.8L42.2085 37.4145C42.0706 36.8961 41.6665 36.4908 41.1485 36.3515C40.6305 36.2122 40.0775 36.3601 39.6983 36.7394L40.7589 37.8ZM41.0753 38.9942L42.136 40.0548C42.5135 39.6773 42.6619 39.1276 42.5257 38.6114L41.0753 38.9942ZM39.331 40.7385L38.2703 39.6778L39.331 40.7385ZM22.926 17.9002L21.8653 16.8396C21.486 17.2189 21.3381 17.772 21.4775 18.29C21.6169 18.8081 22.0223 19.2122 22.5408 19.35L22.926 17.9002ZM24.7404 16.0858L23.6798 15.0251L24.7404 16.0858ZM24.1185 18.2182L23.7308 19.6673C24.2483 19.8057 24.8004 19.6577 25.1792 19.2789L24.1185 18.2182ZM21.4538 19.3724L21.8365 17.9221C21.3203 17.7859 20.7706 17.9343 20.3931 18.3118L21.4538 19.3724ZM22.6479 19.6888L23.7086 20.7495C24.0879 20.3702 24.2357 19.8173 24.0964 19.2993C23.9571 18.7813 23.5518 18.3771 23.0335 18.2392L22.6479 19.6888ZM45.7639 11.5089C47.2766 11.1772 48.4728 11.4488 49.1395 12.1155L51.2608 9.99422C49.5828 8.31625 47.1564 8.13224 45.1212 8.57859L45.7639 11.5089ZM41.1009 14.2192C42.5866 12.7336 44.2737 11.8358 45.7639 11.5089L45.1212 8.57859C43.0071 9.04226 40.8218 10.2557 38.9796 12.0979L41.1009 14.2192ZM38.3915 16.7787C39.3186 15.9272 40.2276 15.0925 41.101 14.2192L38.9796 12.0979C38.1591 12.9184 37.2977 13.7099 36.3621 14.5693L38.3915 16.7787ZM38.3035 16.8595L38.3916 16.7787L36.3621 14.5693L36.2741 14.6501L38.3035 16.8595ZM35.3573 19.6502C36.3606 18.6469 37.343 17.7419 38.3036 16.8595L36.2741 14.6501C35.3158 15.5304 34.2898 16.475 33.236 17.5289L35.3573 19.6502ZM33.4913 21.5341C34.2082 20.8034 34.8399 20.1676 35.3573 19.6502L33.236 17.5289C32.713 18.0519 32.0745 18.6946 31.3499 19.433L33.4913 21.5341ZM25.5109 20.1457C27.8558 20.7789 30.1282 21.4033 32.0189 21.9288L32.8222 19.0383C30.9252 18.5111 28.6457 17.8848 26.2929 17.2495L25.5109 20.1457ZM25.5664 16.9118L24.8412 17.6369L26.9625 19.7583L27.6877 19.0331L25.5664 16.9118ZM25.5664 16.0151C25.814 16.2627 25.814 16.6641 25.5664 16.9118L27.6877 19.0331C29.1069 17.6139 29.1069 15.3129 27.6877 13.8937L25.5664 16.0151ZM24.6697 16.0151C24.9173 15.7675 25.3188 15.7675 25.5664 16.0151L27.6877 13.8937C26.2685 12.4746 23.9676 12.4746 22.5484 13.8937L24.6697 16.0151ZM22.1966 18.4882L24.6697 16.0151L22.5484 13.8937L20.0753 16.3669L22.1966 18.4882ZM19.655 18.591C20.0173 18.6852 20.3845 18.7811 20.7553 18.8784L21.5166 15.9766C21.1438 15.8788 20.7744 15.7823 20.4098 15.6875L19.655 18.591ZM14.1367 17.211C15.6504 17.5657 17.5711 18.0493 19.655 18.591L20.4098 15.6875C18.3167 15.1434 16.3692 14.6529 14.8211 14.2901L14.1367 17.211ZM11.139 16.6149C11.5398 16.6384 12.5979 16.8505 14.1367 17.211L14.8211 14.2901C13.3774 13.9519 12.0313 13.662 11.314 13.62L11.139 16.6149ZM10.0324 16.7121C10.2074 16.6367 10.5526 16.5807 11.139 16.6149L11.314 13.62C10.5797 13.5771 9.66952 13.6021 8.84623 13.9565L10.0324 16.7121ZM9.93967 16.7687C9.94002 16.7683 9.94086 16.7671 9.94283 16.7652C9.94489 16.7631 9.94885 16.7594 9.95554 16.7544C9.96946 16.7439 9.99398 16.7286 10.0324 16.7121L8.84623 13.9565C8.39885 14.1491 7.89574 14.4745 7.5071 15.013L9.93967 16.7687ZM9.9376 16.7968C9.93776 16.7773 9.94046 16.7678 9.94087 16.7664C9.94109 16.7657 9.94099 16.7662 9.94042 16.7673C9.93982 16.7686 9.93939 16.7691 9.93967 16.7687L7.5071 15.013C7.10542 15.5695 6.94248 16.193 6.9377 16.7721L9.9376 16.7968ZM10.2701 17.5454C9.99981 17.1396 9.93674 16.9008 9.9376 16.7968L6.9377 16.7721C6.92925 17.7972 7.40915 18.6618 7.77322 19.2084L10.2701 17.5454ZM11.4882 18.9647C10.9317 18.4082 10.5291 17.9342 10.2701 17.5455L7.77322 19.2084C8.1846 19.8261 8.738 20.4571 9.36686 21.086L11.4882 18.9647ZM23.8644 29.5973C19.0556 25.5801 12.8976 20.3741 11.4882 18.9647L9.36686 21.086C10.8988 22.618 17.2048 27.9431 21.9411 31.8996L23.8644 29.5973ZM18.7845 38.2638C20.2998 36.1802 22.1266 33.9396 24.0374 31.7295L21.768 29.7674C19.8253 32.0144 17.9402 34.3241 16.3582 36.4994L18.7845 38.2638ZM14.4511 37.8624C15.2755 38.1257 16.1557 38.4495 17.0403 38.7844L18.1025 35.9788C17.2091 35.6405 16.2675 35.2932 15.3638 35.0046L14.4511 37.8624ZM11.229 37.2572C11.9738 37.1892 13.0947 37.4292 14.4511 37.8624L15.3638 35.0046C14.0085 34.5718 12.3668 34.1408 10.9563 34.2696L11.229 37.2572ZM10.4984 37.8334C10.6353 37.4999 10.9663 37.2811 11.229 37.2572L10.9563 34.2696C9.54152 34.3987 8.2698 35.3628 7.72322 36.6939L10.4984 37.8334ZM10.9388 39.1168C10.3617 38.5397 10.3918 38.0928 10.4984 37.8334L7.72322 36.6939C7.08098 38.2579 7.53586 39.9565 8.81747 41.2381L10.9388 39.1168ZM12.994 40.8423C11.9908 40.0347 11.1958 39.3738 10.9388 39.1168L8.81747 41.2381C9.2166 41.6372 10.1658 42.4169 11.1127 43.1792L12.994 40.8423ZM14.8941 42.3541C14.258 41.8527 13.5959 41.327 12.994 40.8423L11.1127 43.1792C11.7251 43.6722 12.3958 44.2048 13.037 44.7102L14.8941 42.3541ZM15.2372 44.3944C15.2739 44.2986 15.3128 44.2004 15.3539 44.1L12.5772 42.9642C12.5281 43.0843 12.4811 43.2029 12.4362 43.32L15.2372 44.3944ZM14.7778 46.0268C14.8283 45.6246 14.9774 45.0718 15.2372 44.3944L12.4362 43.32C12.1313 44.115 11.8933 44.9187 11.8011 45.6534L14.7778 46.0268ZM14.769 46.457C14.7551 46.3685 14.7526 46.2281 14.7778 46.0268L11.8011 45.6534C11.7553 46.0192 11.7331 46.461 11.805 46.9205L14.769 46.457ZM14.7608 46.4942C14.7703 46.5036 14.7773 46.5128 14.7819 46.5197C14.7862 46.5263 14.7873 46.5293 14.7862 46.5268C14.7851 46.5241 14.7822 46.517 14.7788 46.5045C14.7754 46.4919 14.772 46.4761 14.769 46.457L11.805 46.9205C11.8737 47.3599 12.0649 48.0409 12.6395 48.6155L14.7608 46.4942ZM14.7896 46.4816C14.7711 46.4789 14.756 46.4757 14.7441 46.4725C14.7322 46.4694 14.7258 46.4669 14.7239 46.4661C14.7222 46.4653 14.7259 46.4668 14.7333 46.4716C14.7411 46.4767 14.7509 46.4842 14.7608 46.4942L12.6395 48.6155C13.2204 49.1964 13.9096 49.3842 14.3513 49.4494L14.7896 46.4816ZM15.213 46.4684C15.0138 46.4956 14.8757 46.4943 14.7896 46.4816L14.3513 49.4494C14.813 49.5176 15.2553 49.4905 15.6192 49.4408L15.213 46.4684ZM16.8294 45.9931C16.1582 46.2596 15.6108 46.414 15.213 46.4684L15.6192 49.4408C16.3505 49.3408 17.1487 49.0941 17.9364 48.7814L16.8294 45.9931ZM17.1698 45.8528C17.0533 45.9026 16.9398 45.9493 16.8294 45.9931L17.9364 48.7814C18.0714 48.7278 18.2085 48.6714 18.3474 48.6121L17.1698 45.8528ZM20.7908 48.6393C20.1946 47.8987 19.5363 47.0673 18.9382 46.3058L16.579 48.1591C17.1815 48.926 17.8477 49.7674 18.454 50.5206L20.7908 48.6393ZM22.5164 50.6945C22.2594 50.4374 21.5985 49.6425 20.7908 48.6393L18.454 50.5206C19.2163 51.4674 19.996 52.4166 20.3951 52.8158L22.5164 50.6945ZM23.7998 51.1349C23.5404 51.2414 23.0935 51.2716 22.5164 50.6945L20.3951 52.8158C21.6767 54.0974 23.3752 54.5523 24.9393 53.91L23.7998 51.1349ZM24.376 50.4042C24.352 50.6669 24.1332 50.998 23.7998 51.1349L24.9393 53.91C26.2704 53.3634 27.2345 52.0917 27.3636 50.6769L24.376 50.4042ZM23.7708 47.1821C24.2039 48.5386 24.444 49.6595 24.376 50.4042L27.3636 50.6769C27.4923 49.2664 27.0614 47.6248 26.6286 46.2695L23.7708 47.1821ZM22.609 43.963C23.0248 45.0526 23.4434 46.1572 23.7708 47.1821L26.6286 46.2695C26.2719 45.1527 25.8234 43.9718 25.4119 42.8934L22.609 43.963ZM29.2646 37.1042C27.1904 38.9607 25.0851 40.7392 23.1074 42.2305L24.9136 44.6259C26.9816 43.0664 29.1549 41.2286 31.2654 39.3395L29.2646 37.1042ZM41.4831 48.9597C40.1417 47.6183 35.349 41.9614 31.4155 37.2594L29.1145 39.1843C32.9891 43.8159 37.899 49.6182 39.3618 51.081L41.4831 48.9597ZM42.9023 50.1778C42.5135 49.9188 42.0396 49.5162 41.4831 48.9597L39.3618 51.081C39.9906 51.7099 40.6217 52.2633 41.2393 52.6747L42.9023 50.1778ZM43.6509 50.5103C43.5469 50.5111 43.3081 50.4481 42.9023 50.1778L41.2393 52.6747C41.7859 53.0387 42.6506 53.5186 43.6757 53.5102L43.6509 50.5103ZM43.679 50.5082C43.6786 50.5085 43.6792 50.5081 43.6804 50.5075C43.6816 50.5069 43.682 50.5068 43.6813 50.507C43.68 50.5074 43.6705 50.5101 43.6509 50.5103L43.6757 53.5102C44.2548 53.5054 44.8782 53.3424 45.4348 52.9408L43.679 50.5082ZM43.7357 50.4155C43.7191 50.4539 43.7038 50.4784 43.6934 50.4923C43.6883 50.499 43.6847 50.503 43.6826 50.5051C43.6806 50.507 43.6795 50.5079 43.679 50.5082L45.4348 52.9408C45.9732 52.5521 46.2986 52.049 46.4912 51.6017L43.7357 50.4155ZM43.8328 49.3089C43.8671 49.8953 43.811 50.2405 43.7357 50.4155L46.4912 51.6016C46.8456 50.7784 46.8706 49.8682 46.8277 49.1339L43.8328 49.3089ZM43.2367 46.3112C43.5973 47.85 43.8094 48.9081 43.8328 49.3089L46.8277 49.1339C46.7858 48.4166 46.4959 47.0705 46.1576 45.6268L43.2367 46.3112ZM41.8567 40.7929C42.3984 42.8768 42.8821 44.7975 43.2367 46.3112L46.1576 45.6268C45.7949 44.0787 45.3043 42.1312 44.7602 40.0381L41.8567 40.7929ZM41.5694 39.6927C41.6666 40.0634 41.7625 40.4306 41.8567 40.7929L44.7602 40.0381C44.6654 39.6735 44.569 39.3041 44.4711 38.9313L41.5694 39.6927ZM44.4327 35.7781L41.9596 38.2513L44.0809 40.3726L46.5541 37.8995L44.4327 35.7781ZM44.4327 34.8815C44.6804 35.1291 44.6804 35.5305 44.4327 35.7781L46.5541 37.8995C47.9733 36.4803 47.9733 34.1793 46.5541 32.7601L44.4327 34.8815ZM43.5361 34.8815C43.7837 34.6338 44.1851 34.6338 44.4327 34.8815L46.5541 32.7601C45.1349 31.341 42.8339 31.341 41.4147 32.7601L43.5361 34.8815ZM42.8108 35.6067L43.5361 34.8815L41.4147 32.7601L40.6895 33.4854L42.8108 35.6067ZM38.7175 29.1443C39.1984 30.8806 39.7468 32.8809 40.302 34.9371L43.1983 34.155C42.6412 32.0919 42.0911 30.0853 41.6086 28.3435L38.7175 29.1443ZM40.1882 26.5916C39.8544 26.9275 39.4909 27.2934 39.1006 27.6851L41.2255 29.8028C41.6176 29.4093 41.9827 29.0419 42.3164 28.706L40.1882 26.5916ZM41.241 25.5339C40.9358 25.8392 40.5821 26.1951 40.1882 26.5916L42.3164 28.706C42.7113 28.3085 43.0612 27.9563 43.3623 27.6553L41.241 25.5339ZM42.6231 24.173C42.1693 24.6164 41.706 25.069 41.241 25.5339L43.3623 27.6553C43.8129 27.2047 44.2638 26.7642 44.7195 26.3189L42.6231 24.173ZM46.8514 19.6841C45.5276 21.3332 44.1232 22.7075 42.6231 24.173L44.7195 26.3189C46.2049 24.8679 47.7369 23.3734 49.1909 21.562L46.8514 19.6841ZM49.446 15.2726C49.0663 16.7176 48.1983 18.3129 46.9555 19.5674L49.0868 21.6787C50.702 20.0482 51.8346 17.9871 52.3475 16.0348L49.446 15.2726ZM49.1395 12.1155C49.6592 12.6352 49.8432 13.7605 49.446 15.2726L52.3475 16.0348C52.811 14.2708 52.9691 11.7025 51.2608 9.99422L49.1395 12.1155ZM40.4153 28.0649C40.6324 27.8467 40.8399 27.6379 41.037 27.4396L38.9092 25.3248C38.7121 25.5231 38.505 25.7314 38.2886 25.949L40.4153 28.0649ZM41.0338 27.4428L41.0338 27.4428L38.9125 25.3215L38.9124 25.3215L41.0338 27.4428ZM41.0338 27.4428L41.0342 27.4424L38.9129 25.3211L38.9125 25.3215L41.0338 27.4428ZM41.0374 27.4391C41.4324 27.0417 41.7844 26.6876 42.0895 26.3825L39.9682 24.2611C39.6591 24.5702 39.3036 24.9279 38.9096 25.3243L41.0374 27.4391ZM42.0895 26.3825C42.5729 25.8991 43.0444 25.4383 43.5117 24.9816L41.4149 22.836C40.9492 23.2912 40.4657 23.7637 39.9682 24.2611L42.0895 26.3825ZM43.5117 24.9816C44.9902 23.5368 46.4291 22.1329 47.8176 20.3973L45.475 18.5232C44.2182 20.0943 42.9085 21.3765 41.4149 22.836L43.5117 24.9816ZM47.8176 20.3974C47.8038 20.4146 47.789 20.4311 47.7734 20.4468L45.652 18.3254C45.5894 18.3881 45.5303 18.4541 45.475 18.5232L47.8176 20.3974ZM47.7734 20.4468C49.1835 19.0366 50.1701 17.2391 50.6066 15.5775L47.7051 14.8152C47.4027 15.9662 46.6838 17.2937 45.652 18.3254L47.7734 20.4468ZM50.6066 15.5775C50.8371 14.7001 50.9101 13.893 50.8289 13.1867C50.7507 12.5058 50.5114 11.7904 49.988 11.267L47.8667 13.3883C47.7467 13.2683 47.8161 13.2467 47.8485 13.5291C47.8781 13.7861 47.8636 14.2116 47.7051 14.8152L50.6066 15.5775ZM49.988 11.267C48.9193 10.1983 47.2335 9.9581 45.5068 10.3368L46.1495 13.2672C47.3349 13.0072 47.7998 13.3214 47.8667 13.3883L49.988 11.267ZM45.5068 10.3368C43.7671 10.7183 41.8807 11.7423 40.2524 13.3707L42.3737 15.492C43.6452 14.2205 45.0334 13.5119 46.1495 13.2672L45.5068 10.3368ZM40.2524 13.3707C39.4042 14.2189 38.5176 15.0336 37.5907 15.8849L39.6201 18.0943C40.539 17.2503 41.4729 16.3928 42.3737 15.492L40.2524 13.3707ZM37.6365 15.8445L37.6365 15.8445L39.5743 18.1347L39.5743 18.1347L37.6365 15.8445ZM37.5907 15.8849L37.4918 15.9757L39.5212 18.1851L39.6201 18.0943L37.5907 15.8849ZM37.4918 15.9757C36.5321 16.8573 35.5323 17.7781 34.5087 18.8017L36.6301 20.923C37.603 19.9501 38.5592 19.0688 39.5213 18.1851L37.4918 15.9757ZM34.5087 18.8017C34.0043 19.3062 33.396 19.9184 32.7096 20.6175L34.8502 22.7193C35.5294 22.0276 36.1312 21.4219 36.6301 20.923L34.5087 18.8017ZM32.3759 22.1964C32.4181 22.3087 32.4114 22.4299 32.3454 22.5415L34.9274 24.069C35.4808 23.1335 35.5288 22.0575 35.1839 21.1405L32.3759 22.1964ZM32.3454 22.5415L27.2665 31.1265L29.8486 32.654L34.9274 24.069L32.3454 22.5415ZM29.3213 33.1813L37.9063 28.1025L36.3788 25.5205L27.7938 30.5993L29.3213 33.1813ZM37.9063 28.1025C38.0581 28.0126 38.2436 28.0321 38.3737 28.1441L40.3302 25.8698C39.2783 24.9649 37.6973 24.7404 36.3788 25.5205L37.9063 28.1025ZM24.0441 21.6148C26.3484 22.2339 28.6263 22.8571 30.5881 23.3999L31.3881 20.5086C29.4203 19.9641 27.1351 19.3389 24.8225 18.7176L24.0441 21.6148ZM22.6567 24.0641L25.494 21.2268L23.3726 19.1055L20.5354 21.9428L22.6567 24.0641ZM17.5174 24.0641C18.9366 25.4833 21.2375 25.4833 22.6567 24.0641L20.5354 21.9428C20.2878 22.1904 19.8863 22.1904 19.6387 21.9428L17.5174 24.0641ZM17.5174 18.9248C16.0982 20.344 16.0982 22.6449 17.5174 24.0641L19.6387 21.9428C19.3911 21.6952 19.3911 21.2937 19.6387 21.0461L17.5174 18.9248ZM18.6003 17.8419L17.5174 18.9248L19.6387 21.0461L20.7216 19.9632L18.6003 17.8419ZM19.202 20.3331L19.2834 20.3543L20.0384 17.4508L19.9571 17.4297L19.202 20.3331ZM13.7261 18.9636C15.2191 19.3134 17.1237 19.7929 19.2022 20.3331L19.9569 17.4296C17.8693 16.887 15.9379 16.4005 14.4105 16.0427L13.7261 18.9636ZM11.0339 18.4119C11.0334 18.4118 11.0389 18.4122 11.0517 18.4134C11.0641 18.4146 11.0812 18.4165 11.1033 18.4193C11.1481 18.4249 11.2067 18.4334 11.2806 18.4453C11.4288 18.4692 11.6211 18.5043 11.8586 18.5517C12.3332 18.6464 12.9601 18.7841 13.7261 18.9636L14.4105 16.0427C12.9109 15.6913 11.7367 15.4478 11.209 15.417L11.0339 18.4119ZM10.5974 18.415C10.5789 18.419 10.7005 18.3924 11.0339 18.4119L11.209 15.417C10.7073 15.3877 10.2964 15.4111 9.96571 15.4823L10.5974 18.415ZM11.7683 16.5477C11.7293 16.4892 11.7038 16.4459 11.6882 16.4173C11.6722 16.3881 11.6693 16.3791 11.6733 16.3891L8.88985 17.5082C8.98172 17.7367 9.11219 17.9717 9.27134 18.2106L11.7683 16.5477ZM12.761 17.6919C12.2477 17.1786 11.9356 16.799 11.7682 16.5476L9.27136 18.2107C9.59131 18.691 10.0543 19.2278 10.6397 19.8132L12.761 17.6919ZM25.0495 28.2418C20.2282 24.2142 14.111 19.0419 12.761 17.6919L10.6397 19.8132C12.1125 21.286 18.3785 26.5781 23.1262 30.5441L25.0495 28.2418ZM25.2118 30.3863C27.6091 27.6738 30.0441 25.0886 32.0665 22.9969L29.9097 20.9116C27.8673 23.024 25.3998 25.6434 22.9639 28.3996L25.2118 30.3863ZM29.4193 24.0264C27.8219 25.7109 26.0752 27.5984 24.3469 29.5526L26.5941 31.5401C28.2941 29.6179 30.0164 27.7566 31.5962 26.0907L29.4193 24.0264ZM29.2168 24.2948L25.439 30.6805L28.021 32.208L31.7988 25.8223L29.2168 24.2948ZM25.439 30.6805C25.8793 29.9363 26.8788 29.7675 27.54 30.3167L25.6229 32.6243C26.3768 33.2506 27.5178 33.0587 28.021 32.208L25.439 30.6805ZM27.54 30.3167C27.1883 30.0245 26.8171 29.7157 26.4305 29.3938L24.5105 31.6989C24.898 32.0217 25.2702 32.3312 25.6229 32.6243L27.54 30.3167ZM23.1505 30.9201C21.3466 33.0055 19.597 35.1405 18.1038 37.1625L20.5171 38.9447C21.9495 37.0051 23.6461 34.9328 25.4194 32.8828L23.1505 30.9201ZM18.6375 39.3941C18.8124 39.482 18.8602 39.7021 18.7595 39.85L21.2397 41.5379C22.3946 39.8409 21.7258 37.5877 19.9834 36.713L18.6375 39.3941ZM18.7595 39.85L16.7577 42.7915L19.2378 44.4794L21.2397 41.5379L18.7595 39.85ZM18.8417 44.8756L21.7831 42.8737L20.0953 40.3936L17.1538 42.3954L18.8417 44.8756ZM21.7831 42.8737C21.8487 42.8291 21.9131 42.8156 21.9775 42.8213C22.0487 42.8276 22.1188 42.8584 22.1714 42.9063L24.1925 40.6893C23.1199 39.7115 21.4338 39.4826 20.0953 40.3936L21.7831 42.8737ZM24.0911 42.9909C26.0526 41.4963 28.1087 39.752 30.1117 37.9572L28.1098 35.7229C26.142 37.486 24.1499 39.1745 22.2729 40.6047L24.0911 42.9909ZM30.2626 35.8792C29.7222 35.2314 29.2121 34.6186 28.7465 34.0581L26.439 35.9752C26.9058 36.5372 27.4172 37.1515 27.9589 37.8009L30.2626 35.8792ZM28.7465 34.0581C28.6546 33.9475 28.6313 33.8059 28.6761 33.6734L25.8345 32.7116C25.4736 33.7777 25.6455 35.0202 26.439 35.9752L28.7465 34.0581ZM26.7745 31.7716C26.6419 31.8165 26.5004 31.7932 26.3898 31.7013L24.4727 34.0088C25.4276 34.8022 26.6701 34.9741 27.7361 34.6133L26.7745 31.7716ZM26.3898 31.7013C26.0284 31.401 25.6452 31.0823 25.245 30.7489L23.3249 33.054C23.7262 33.3882 24.1103 33.7078 24.4727 34.0088L26.3898 31.7013ZM31.5974 34.6693C31.0771 34.0455 30.5842 33.4533 30.131 32.9079L27.8235 34.825C28.2779 35.3719 28.7721 35.9656 29.2936 36.5908L31.5974 34.6693ZM30.131 32.9078C30.6803 33.569 30.5114 34.5686 29.7672 35.0089L28.2397 32.4269C27.3891 32.9301 27.1971 34.071 27.8235 34.825L30.131 32.9078ZM29.7672 35.0089L38.6799 29.7362L37.1524 27.1542L28.2397 32.4269L29.7672 35.0089ZM31.4591 36.7358C34.2474 34.1797 36.8888 31.5888 38.9755 29.5072L36.8568 27.3832C34.7827 29.4522 32.1752 32.0095 29.4318 34.5244L31.4591 36.7358ZM37.6421 29.1422C35.6324 31.1401 33.1726 33.5393 30.5874 35.9063L32.6133 38.119C35.241 35.713 37.7331 33.2819 39.7572 31.2698L37.6421 29.1422ZM37.2536 30.6048C37.7454 32.3879 38.2907 34.3857 38.833 36.4038L41.7302 35.6254C41.186 33.6 40.6389 31.5956 40.1457 29.8072L37.2536 30.6048ZM39.2209 34.954L36.3837 37.7912L38.505 39.9125L41.3422 37.0753L39.2209 34.954ZM36.3837 37.7912C34.9645 39.2104 34.9645 41.5113 36.3837 42.9305L38.505 40.8092C38.2574 40.5616 38.2574 40.1601 38.505 39.9125L36.3837 37.7912ZM36.3837 42.9305C37.8029 44.3497 40.1038 44.3497 41.523 42.9305L39.4017 40.8092C39.1541 41.0568 38.7526 41.0568 38.505 40.8092L36.3837 42.9305ZM41.523 42.9305L42.6059 41.8477L40.4846 39.7263L39.4017 40.8092L41.523 42.9305ZM40.0935 41.1645L40.1146 41.2458L43.0181 40.4908L42.9969 40.4095L40.0935 41.1645ZM40.1146 41.2457C40.6549 43.3242 41.1344 45.2288 41.4842 46.7218L44.4051 46.0374C44.0472 44.51 43.5608 42.5786 43.0181 40.491L40.1146 41.2457ZM41.4842 46.7218C41.6637 47.4878 41.8014 48.1147 41.896 48.5893C41.9434 48.8268 41.9786 49.019 42.0025 49.1673C42.0144 49.2412 42.0228 49.2998 42.0285 49.3445C42.0312 49.3667 42.0331 49.3837 42.0343 49.3962C42.0356 49.409 42.0359 49.4145 42.0359 49.4139L45.0308 49.2389C44.9999 48.7112 44.7564 47.5369 44.4051 46.0374L41.4842 46.7218ZM42.0359 49.4139C42.0554 49.7473 42.0287 49.8689 42.0327 49.8505L44.9655 50.4821C45.0367 50.1515 45.0601 49.7405 45.0308 49.2389L42.0359 49.4139ZM44.0587 48.7746C44.0687 48.7786 44.0597 48.7757 44.0304 48.7597C44.0019 48.7441 43.9586 48.7186 43.9001 48.6796L42.2371 51.1765C42.4761 51.3357 42.711 51.4662 42.9395 51.558L44.0587 48.7746ZM43.9001 48.6796C43.6488 48.5122 43.2692 48.2002 42.7559 47.6869L40.6346 49.8082C41.22 50.3936 41.7567 50.8566 42.2371 51.1765L43.9001 48.6796ZM42.7559 47.6869C41.4687 46.3997 36.6944 40.7644 32.7509 36.0502L30.4498 37.9751C34.3334 42.6176 39.2257 48.3994 40.6346 49.8082L42.7559 47.6869ZM18.3091 45.444C18.3007 45.3891 18.3081 45.3302 18.3314 45.2771L15.5826 44.0754C15.3333 44.6455 15.2488 45.2783 15.3436 45.898L18.3091 45.444ZM16.3561 43.3018C16.2742 43.3376 16.1836 43.3349 16.1107 43.2998L14.811 46.0037C15.6957 46.4289 16.7003 46.4255 17.5578 46.0507L16.3561 43.3018ZM14.0537 44.1324C13.8125 44.7858 13.6495 45.3807 13.5872 45.8774L16.5638 46.2507C16.587 46.0662 16.6697 45.7086 16.8681 45.1711L14.0537 44.1324ZM13.5872 45.8774C13.5787 45.945 13.5722 46.01 13.5675 46.0723L16.5593 46.2949C16.5599 46.2857 16.5613 46.2711 16.5638 46.2507L13.5872 45.8774ZM15.1974 47.6776C15.2545 47.6725 15.3138 47.6658 15.3755 47.6573L14.9693 44.685C14.9513 44.6874 14.9381 44.6888 14.9294 44.6896L15.1974 47.6776ZM15.3755 47.6573C15.9067 47.5847 16.5545 47.3934 17.2722 47.1085L16.1653 44.3201C15.5636 44.559 15.1666 44.658 14.9693 44.685L15.3755 47.6573ZM17.2722 47.1085C17.3119 47.0927 17.3518 47.0767 17.3918 47.0604L16.2609 44.2817C16.2286 44.2948 16.1968 44.3076 16.1653 44.3201L17.2722 47.1085ZM15.1752 44.3542C15.1811 44.3589 15.187 44.3635 15.1929 44.3681L17.0396 42.0039C17.034 41.9995 17.0284 41.9951 17.0227 41.9906L15.1752 44.3542ZM15.1928 44.368C15.9621 44.9691 17.0849 44.799 17.6399 43.9836L15.1598 42.2956C15.5829 41.674 16.4457 41.5398 17.0398 42.004L15.1928 44.368ZM17.6399 43.9835L19.9169 40.6377L17.4368 38.9498L15.1598 42.2957L17.6399 43.9835ZM19.9169 40.6377C20.5292 39.7381 20.1544 38.4688 19.0995 38.0701L18.0389 40.8764C17.258 40.5813 16.9693 39.6367 17.4368 38.9498L19.9169 40.6377ZM19.0995 38.0701C19.0276 38.043 18.9554 38.0156 18.883 37.9881L17.8183 40.7928C17.8919 40.8208 17.9654 40.8486 18.0389 40.8764L19.0995 38.0701ZM17.1194 38.5337C17.0697 38.6051 17.0203 38.6765 16.9713 38.7476L19.4423 40.4488C19.4884 40.3819 19.5349 40.3147 19.5818 40.2473L17.1194 38.5337ZM16.9713 38.7476C16.0506 40.0849 15.305 41.3735 14.7496 42.5173L17.4483 43.8276C17.9325 42.8305 18.6001 41.6721 19.4423 40.4488L16.9713 38.7476ZM17.1449 37.3278C16.3904 37.0449 15.6221 36.7667 14.877 36.5288L13.9644 39.3866C14.6393 39.6021 15.3536 39.8601 16.0916 40.1368L17.1449 37.3278ZM14.877 36.5288C13.5226 36.0963 12.1578 35.7666 11.1018 35.863L11.3745 38.8505C11.7623 38.8151 12.603 38.9518 13.9644 39.3866L14.877 36.5288ZM11.1018 35.863C10.6544 35.9038 10.2653 36.0928 9.97658 36.3092C9.67478 36.5354 9.38221 36.8659 9.2033 37.3016L11.9784 38.4411C11.9225 38.5774 11.841 38.6609 11.7758 38.7098C11.7405 38.7362 11.6959 38.7633 11.6389 38.7872C11.5848 38.8099 11.496 38.8394 11.3745 38.8505L11.1018 35.863ZM9.20329 37.3016C9.05933 37.6522 8.96906 38.131 9.1011 38.6836C9.22885 39.2181 9.53352 39.6914 9.94884 40.1067L12.0702 37.9854C11.9353 37.8506 11.9855 37.8465 12.0189 37.9862C12.0354 38.055 12.0419 38.1365 12.0329 38.2238C12.0242 38.3092 12.0024 38.3828 11.9785 38.4411L9.20329 37.3016ZM9.94884 40.1067C10.2723 40.4302 11.1396 41.1468 12.116 41.9329L13.9973 39.596C12.9624 38.7629 12.2511 38.1663 12.0702 37.9854L9.94884 40.1067ZM12.116 41.9329C12.6275 42.3446 13.1806 42.7847 13.7232 43.2134L15.5832 40.8596C15.0454 40.4347 14.4998 40.0005 13.9973 39.596L12.116 41.9329ZM15.9915 42.7139C16.4805 41.7478 17.1065 40.6812 17.8584 39.5761L15.3781 37.8885C14.5587 39.0928 13.866 40.2702 13.3148 41.3591L15.9915 42.7139ZM21.7467 43.2243C20.6201 44.0183 19.5298 44.6803 18.5427 45.1973L19.9345 47.8549C21.0457 47.2729 22.248 46.5412 23.475 45.6764L21.7467 43.2243ZM21.8053 43.1829C21.7858 43.1967 21.7663 43.2105 21.7467 43.2243L23.475 45.6764C23.4957 45.6618 23.5165 45.6471 23.5374 45.6323L21.8053 43.1829ZM25.1044 46.7562C24.8027 45.8115 24.4348 44.8251 24.0734 43.8746L21.2693 44.9407C21.6298 45.8891 21.9719 46.8087 22.2466 47.6689L25.1044 46.7562ZM25.7702 50.5315C25.8666 49.4754 25.5369 48.1106 25.1044 46.7562L22.2466 47.6689C22.6813 49.0303 22.818 49.871 22.7826 50.2588L25.7702 50.5315ZM24.3316 52.4299C24.7673 52.251 25.0978 51.9585 25.324 51.6567C25.5404 51.3679 25.7294 50.9789 25.7702 50.5315L22.7826 50.2588C22.7937 50.1373 22.8233 50.0485 22.846 49.9943C22.8698 49.9373 22.8969 49.8928 22.9234 49.8575C22.9723 49.7923 23.0557 49.7108 23.192 49.6548L24.3316 52.4299ZM21.5265 51.6844C21.9418 52.0997 22.4151 52.4044 22.9496 52.5321C23.5021 52.6642 23.9809 52.5739 24.3316 52.4299L23.192 49.6548C23.2504 49.6308 23.324 49.6091 23.4093 49.6003C23.4967 49.5913 23.5782 49.5979 23.6469 49.6143C23.7867 49.6477 23.7826 49.6979 23.6478 49.5631L21.5265 51.6844ZM19.7003 49.5172C20.4864 50.4936 21.203 51.3609 21.5265 51.6844L23.6478 49.5631C23.4668 49.3821 22.8703 48.6708 22.0371 47.6359L19.7003 49.5172ZM18.06 47.4539C18.5979 48.1372 19.1724 48.8615 19.7003 49.5172L22.0371 47.6359C21.5183 46.9915 20.9509 46.2762 20.4172 45.5982L18.06 47.4539ZM15.8772 47.2422C15.6875 47.4319 15.4919 47.526 15.384 47.5701C15.2676 47.6176 15.1683 47.6411 15.1071 47.6532C14.9872 47.6768 14.8911 47.6803 14.8496 47.6812C14.7596 47.6832 14.6896 47.6764 14.6669 47.6741C14.6101 47.6684 14.5662 47.6606 14.5524 47.6581C14.5159 47.6516 14.4876 47.6451 14.4751 47.6422C14.4451 47.6351 14.4206 47.6284 14.4034 47.6234L15.2389 44.7421C15.2187 44.7362 15.1919 44.7289 15.1603 44.7215C15.1471 44.7184 15.1182 44.7117 15.0812 44.7051C15.0672 44.7026 15.0232 44.6948 14.9663 44.6891C14.9435 44.6868 14.8735 44.68 14.7835 44.6819C14.742 44.6829 14.6458 44.6863 14.5259 44.71C14.4786 44.7193 14.0916 44.7852 13.7558 45.1209L15.8772 47.2422ZM15.122 44.7132C15.1363 44.7161 15.1599 44.7212 15.1892 44.7287C15.2004 44.7316 15.2316 44.7396 15.2711 44.7522C15.2826 44.7558 15.3394 44.7736 15.4091 44.8036C15.4258 44.8108 15.5425 44.8594 15.6733 44.9504C15.7148 44.9792 15.9263 45.1232 16.0938 45.3951C16.1875 45.5473 16.3195 45.8241 16.3165 46.194C16.3131 46.6002 16.1484 46.944 15.9314 47.185L13.7016 45.1781C13.4846 45.4192 13.3199 45.763 13.3166 46.1692C13.3135 46.539 13.4455 46.8159 13.5392 46.9681C13.7067 47.24 13.9182 47.384 13.9597 47.4128C14.0905 47.5038 14.2072 47.5524 14.2241 47.5596C14.2938 47.5896 14.3507 47.6075 14.3624 47.6112C14.4023 47.6239 14.434 47.6321 14.446 47.6352C14.4769 47.6431 14.5028 47.6487 14.5203 47.6523L15.122 44.7132ZM13.6348 46.8677C13.6294 46.85 13.622 46.825 13.6143 46.7943C13.6111 46.7815 13.6039 46.7526 13.5967 46.7152C13.5939 46.7012 13.5852 46.6558 13.5786 46.5971C13.576 46.5739 13.5679 46.5004 13.5694 46.4059C13.5701 46.3627 13.5732 46.2599 13.5991 46.1318C13.6123 46.0664 13.6384 45.9592 13.6924 45.8344C13.7431 45.7172 13.8501 45.5099 14.0629 45.3174L16.0756 47.542C16.4554 47.1983 16.5291 46.7784 16.5394 46.7276C16.5653 46.5995 16.5684 46.4967 16.569 46.4534C16.5705 46.3589 16.5625 46.2853 16.5598 46.2621C16.5532 46.2033 16.5445 46.1578 16.5417 46.1436C16.5344 46.1057 16.5271 46.0762 16.5237 46.0626C16.5156 46.0304 16.5076 46.0029 16.5012 45.9822L13.6348 46.8677ZM14.0629 45.3174C14.296 45.1064 14.6246 44.9451 15.0138 44.9307C15.3721 44.9175 15.6474 45.0337 15.806 45.1231C16.0879 45.2821 16.2408 45.4914 16.2736 45.5355C16.372 45.668 16.425 45.7877 16.4331 45.8053C16.4659 45.8771 16.4856 45.9358 16.4897 45.9478C16.5035 45.9887 16.5125 46.0211 16.5157 46.0327C16.524 46.0632 16.5297 46.0879 16.533 46.1029L13.603 46.7471C13.607 46.7654 13.6133 46.7924 13.622 46.8244C13.6254 46.8368 13.6345 46.8698 13.6485 46.9111C13.6527 46.9232 13.6724 46.9821 13.7053 47.054C13.7134 47.0716 13.7665 47.1913 13.8648 47.3238C13.8976 47.368 14.0505 47.5773 14.3324 47.7362C14.491 47.8257 14.7664 47.9419 15.1247 47.9287C15.5138 47.9143 15.8424 47.753 16.0756 47.542L14.0629 45.3174ZM43.6082 38.5826L45.4227 36.7681L43.3014 34.6468L41.4869 36.4613L43.6082 38.5826ZM40.7805 36.7171C40.8868 37.1144 40.9927 37.5116 41.0978 37.9071L43.9972 37.1368C43.8917 36.7395 43.7853 36.3407 43.6786 35.9417L40.7805 36.7171ZM42.5461 33.8915L41.1689 35.2687L43.2902 37.3901L44.6674 36.0128L42.5461 33.8915ZM45.4227 33.8915C44.6283 33.0972 43.3405 33.0972 42.5461 33.8915L44.6674 36.0128C44.2902 36.3901 43.6786 36.3901 43.3014 36.0128L45.4227 33.8915ZM45.4227 36.7681C46.217 35.9737 46.217 34.6859 45.4227 33.8915L43.3014 36.0128C42.9242 35.6356 42.9241 35.024 43.3014 34.6468L45.4227 36.7681ZM39.3093 38.1856C39.4155 38.5847 39.5208 38.9823 39.625 39.3769L42.5257 38.6114C42.421 38.2148 42.3151 37.8153 42.2085 37.4145L39.3093 38.1856ZM39.6364 41.0439L41.8196 38.8607L39.6983 36.7394L37.5151 38.9225L39.6364 41.0439ZM39.6364 39.6778C40.0136 40.055 40.0136 40.6666 39.6364 41.0439L37.5151 38.9225C36.7207 39.7169 36.7207 41.0048 37.5151 41.7991L39.6364 39.6778ZM38.2703 39.6778C38.6476 39.3006 39.2592 39.3006 39.6364 39.6778L37.5151 41.7991C38.3094 42.5935 39.5973 42.5935 40.3917 41.7991L38.2703 39.6778ZM40.0147 37.9335L38.2703 39.6778L40.3917 41.7991L42.136 40.0548L40.0147 37.9335ZM23.9866 18.9609L25.8011 17.1464L23.6798 15.0251L21.8653 16.8396L23.9866 18.9609ZM24.5062 16.7692C24.1073 16.6624 23.7084 16.5561 23.3111 16.4505L22.5408 19.35C22.9363 19.455 23.3335 19.5609 23.7308 19.6673L24.5062 16.7692ZM24.435 15.7804L23.0579 17.1576L25.1792 19.2789L26.5564 17.9017L24.435 15.7804ZM24.435 17.1464C24.0578 16.7692 24.0578 16.1576 24.435 15.7804L26.5564 17.9017C27.3507 17.1074 27.3507 15.8195 26.5564 15.0251L24.435 17.1464ZM25.8011 17.1464C25.4239 17.5237 24.8123 17.5237 24.435 17.1464L26.5564 15.0251C25.762 14.2308 24.4741 14.2308 23.6798 15.0251L25.8011 17.1464ZM21.071 20.8228C21.4656 20.9269 21.8632 21.0323 22.2623 21.1384L23.0335 18.2392C22.6326 18.1326 22.2331 18.0268 21.8365 17.9221L21.071 20.8228ZM20.7701 22.1775L22.5144 20.4331L20.3931 18.3118L18.6487 20.0561L20.7701 22.1775ZM20.7701 20.8114C21.1473 21.1886 21.1473 21.8002 20.7701 22.1775L18.6487 20.0561C17.8544 20.8505 17.8544 22.1384 18.6487 22.9327L20.7701 20.8114ZM19.404 20.8114C19.7812 20.4342 20.3928 20.4342 20.7701 20.8114L18.6487 22.9327C19.4431 23.7271 20.731 23.7271 21.5253 22.9327L19.404 20.8114ZM21.5872 18.6282L19.404 20.8114L21.5253 22.9327L23.7086 20.7495L21.5872 18.6282Z" fill="#F8F9FA" mask="url(#path-1-outside-1_50_4294)"/>
<rect x="25.1403" y="14.5664" width="2.66811" height="9.78306" rx="1.33405" transform="rotate(45 25.1403 14.5664)" fill="#FFD43B" stroke="#212529" stroke-width="1.6" stroke-linejoin="round"/>
<path d="M11.1962 16.0058C13.0519 16.1142 25.3265 19.4289 32.2942 21.3662C32.9275 21.5423 33.2187 22.271 32.884 22.8368L27.5268 31.8923C27.2137 32.4216 26.5016 32.5456 26.0286 32.1526C21.2543 28.1862 12.7993 21.0919 11.0862 19.3787C8.80212 17.0947 8.73004 15.8616 11.1962 16.0058Z" fill="#EDF2FF" stroke="#212529" stroke-width="1.8" stroke-linecap="round" stroke-linejoin="round"/>
<rect width="2.66811" height="9.78306" rx="1.33405" transform="matrix(-0.707107 -0.707107 -0.707107 0.707107 45.8933 35.3198)" fill="#FFD43B" stroke="#212529" stroke-width="1.6" stroke-linejoin="round"/>
<path d="M44.4541 49.2638C44.3456 47.4081 41.031 35.1335 39.0937 28.1658C38.9176 27.5325 38.1888 27.2412 37.6231 27.5759L28.5675 32.9331C28.0382 33.2462 27.9143 33.9584 28.3073 34.4314C32.2737 39.2056 39.368 47.6607 41.0811 49.3738C43.3651 51.6578 44.5982 51.7299 44.4541 49.2638Z" fill="#EDF2FF" stroke="#212529" stroke-width="1.8" stroke-linecap="round" stroke-linejoin="round"/>
<path d="M11.1877 36.5501C12.9872 36.3858 16.1557 37.6875 18.8743 38.7149C19.4871 38.9466 19.7291 39.6923 19.3605 40.2339L17.0835 43.5797C16.759 44.0565 16.1005 44.1614 15.646 43.8064C13.7889 42.3555 11.0464 40.182 10.4661 39.6017C8.98658 38.1223 10.1238 36.6472 11.1877 36.5501Z" fill="#9775FA" stroke="#212529" stroke-width="1.6" stroke-linecap="round" stroke-linejoin="round"/>
<path d="M25.0953 50.4575C25.2596 48.6579 23.9579 45.4895 22.9304 42.7708C22.6988 42.158 21.9531 41.916 21.4115 42.2846L18.0657 44.5617C17.5889 44.8862 17.4839 45.5447 17.839 45.9991C19.2899 47.8562 21.4634 50.5988 22.0436 51.1791C23.5231 52.6586 24.9982 51.5214 25.0953 50.4575Z" fill="#9775FA" stroke="#212529" stroke-width="1.6" stroke-linecap="round" stroke-linejoin="round"/>
<path d="M17.4878 39.0779C22.3344 32.0383 31.3535 22.8177 34.9553 19.216C36.9821 17.1892 38.9196 15.5643 40.6989 13.785C43.8127 10.6712 47.8458 9.94119 49.586 11.6813C51.1033 13.1987 50.0403 17.3436 47.3713 20.0126C45.592 22.2367 43.6995 23.9363 41.6875 25.9483C38.3255 29.3103 29.1848 38.7216 22.1146 43.7047C18.3639 46.3483 15.0065 47.5562 14.3588 46.9085C13.7047 46.2544 14.8777 42.8689 17.4878 39.0779Z" fill="#EDF2FF" stroke="#212529" stroke-width="1.8" stroke-linecap="round" stroke-linejoin="round"/>
<path d="M21.7737 39.4995L18.6293 42.6439" stroke="#212529" stroke-width="1.4" stroke-linecap="round" stroke-linejoin="round"/>
<path d="M46.9188 14.2984C45.6201 12.9997 43.4666 12.2645 42.6759 12.1895C44.26 11.2098 48.0506 9.93952 49.5506 11.6537C51.0505 13.368 49.6532 16.7949 48.7671 18.2941C48.6921 17.5033 48.2175 15.597 46.9188 14.2984Z" fill="#FF6B6B" stroke="#212529" stroke-width="1.2" stroke-linecap="round" stroke-linejoin="round"/>
<g style="mix-blend-mode:multiply">
<path fill-rule="evenodd" clip-rule="evenodd" d="M48.6993 10.7604C49.8771 12.4514 48.7897 16.3002 46.2633 18.8265C44.9031 20.5268 43.4767 21.9205 41.9813 23.3816C41.5206 23.8317 41.0534 24.2883 40.5795 24.7622C40.2743 25.0674 39.9214 25.4225 39.5268 25.8196C35.5749 29.7965 27.4349 37.9879 21.0066 42.5187C18.0428 44.6075 15.3247 45.8 13.995 45.8889C13.9961 46.1719 14.0546 46.3793 14.1729 46.4976C14.8206 47.1453 18.1779 45.9373 21.9287 43.2938C28.3569 38.7631 36.4969 30.5716 40.4489 26.5947C40.8435 26.1976 41.1963 25.8425 41.5015 25.5373C41.9754 25.0634 42.4427 24.6069 42.9034 24.1567C44.3987 22.6956 45.8252 21.3019 47.1854 19.6016C49.8544 16.9327 50.9174 12.7877 49.4 11.2704C49.1962 11.0666 48.9609 10.8966 48.6993 10.7604Z" fill="#DEE2E6"/>
</g>
</g>
<defs>
<clipPath id="clip0_50_4294">
<rect width="60" height="60" fill="white"/>
</clipPath>
</defs>
</svg>
