<svg width="60" height="61" viewBox="0 0 60 61" fill="none" xmlns="http://www.w3.org/2000/svg">
<mask id="path-1-outside-1_50_3084" maskUnits="userSpaceOnUse" x="8.03662" y="7.87988" width="44" height="47" fill="black">
<rect fill="white" x="8.03662" y="7.87988" width="44" height="47"/>
<path fill-rule="evenodd" clip-rule="evenodd" d="M15.8235 9.87988C15.3264 9.87988 14.9235 10.2828 14.9235 10.7799V19.8818C12.2143 19.942 10.0366 22.1569 10.0366 24.8806V47.8465C10.0366 50.6079 12.2752 52.8465 15.0366 52.8465H45.1003C47.8617 52.8465 50.1003 50.6079 50.1003 47.8465V24.8806C50.1003 22.1191 47.8617 19.8806 45.1003 19.8806H45.0508V10.7799C45.0508 10.2828 44.6479 9.87988 44.1508 9.87988H15.8235ZM43.2508 19.8806V11.6799H16.7235V19.8806H43.2508ZM16.7235 21.8806H43.2508V27.0386H16.7235V21.8806ZM14.9235 21.8826V27.9386C14.9235 28.4357 15.3264 28.8386 15.8235 28.8386H44.1508C44.6479 28.8386 45.0508 28.4357 45.0508 27.9386V21.8806H45.1003C46.7572 21.8806 48.1003 23.2237 48.1003 24.8806V47.8465C48.1003 49.5033 46.7572 50.8465 45.1003 50.8465H15.0366C13.3798 50.8465 12.0366 49.5033 12.0366 47.8465V24.8806C12.0366 23.2616 13.319 21.9421 14.9235 21.8826Z"/>
</mask>
<path fill-rule="evenodd" clip-rule="evenodd" d="M15.8235 9.87988C15.3264 9.87988 14.9235 10.2828 14.9235 10.7799V19.8818C12.2143 19.942 10.0366 22.1569 10.0366 24.8806V47.8465C10.0366 50.6079 12.2752 52.8465 15.0366 52.8465H45.1003C47.8617 52.8465 50.1003 50.6079 50.1003 47.8465V24.8806C50.1003 22.1191 47.8617 19.8806 45.1003 19.8806H45.0508V10.7799C45.0508 10.2828 44.6479 9.87988 44.1508 9.87988H15.8235ZM43.2508 19.8806V11.6799H16.7235V19.8806H43.2508ZM16.7235 21.8806H43.2508V27.0386H16.7235V21.8806ZM14.9235 21.8826V27.9386C14.9235 28.4357 15.3264 28.8386 15.8235 28.8386H44.1508C44.6479 28.8386 45.0508 28.4357 45.0508 27.9386V21.8806H45.1003C46.7572 21.8806 48.1003 23.2237 48.1003 24.8806V47.8465C48.1003 49.5033 46.7572 50.8465 45.1003 50.8465H15.0366C13.3798 50.8465 12.0366 49.5033 12.0366 47.8465V24.8806C12.0366 23.2616 13.319 21.9421 14.9235 21.8826Z" fill="#F8F9FA"/>
<path d="M14.9235 19.8818L14.9568 21.3814C15.772 21.3633 16.4235 20.6973 16.4235 19.8818H14.9235ZM45.0508 19.8806H43.5508C43.5508 20.709 44.2224 21.3806 45.0508 21.3806V19.8806ZM43.2508 19.8806V21.3806C44.0793 21.3806 44.7508 20.709 44.7508 19.8806H43.2508ZM43.2508 11.6799H44.7508C44.7508 10.8515 44.0793 10.1799 43.2508 10.1799V11.6799ZM16.7235 11.6799V10.1799C15.895 10.1799 15.2235 10.8515 15.2235 11.6799H16.7235ZM16.7235 19.8806H15.2235C15.2235 20.709 15.895 21.3806 16.7235 21.3806V19.8806ZM43.2508 21.8806H44.7508C44.7508 21.0521 44.0793 20.3806 43.2508 20.3806V21.8806ZM16.7235 21.8806V20.3806C15.895 20.3806 15.2235 21.0521 15.2235 21.8806H16.7235ZM43.2508 27.0386V28.5386C44.0793 28.5386 44.7508 27.867 44.7508 27.0386H43.2508ZM16.7235 27.0386H15.2235C15.2235 27.867 15.895 28.5386 16.7235 28.5386V27.0386ZM14.9235 21.8826H16.4235C16.4235 21.4752 16.2577 21.0852 15.9643 20.8025C15.6709 20.5198 15.2751 20.3686 14.8679 20.3837L14.9235 21.8826ZM45.0508 21.8806V20.3806C44.2224 20.3806 43.5508 21.0521 43.5508 21.8806H45.0508ZM16.4235 10.7799C16.4235 11.1113 16.1548 11.3799 15.8235 11.3799V8.37988C14.498 8.37988 13.4235 9.4544 13.4235 10.7799H16.4235ZM16.4235 19.8818V10.7799H13.4235V19.8818H16.4235ZM11.5366 24.8806C11.5366 22.9742 13.061 21.4235 14.9568 21.3814L14.8902 18.3822C11.3676 18.4604 8.53662 21.3397 8.53662 24.8806H11.5366ZM11.5366 47.8465V24.8806H8.53662V47.8465H11.5366ZM15.0366 51.3465C13.1036 51.3465 11.5366 49.7795 11.5366 47.8465H8.53662C8.53662 51.4363 11.4468 54.3465 15.0366 54.3465V51.3465ZM45.1003 51.3465H15.0366V54.3465H45.1003V51.3465ZM48.6003 47.8465C48.6003 49.7795 47.0333 51.3465 45.1003 51.3465V54.3465C48.6902 54.3465 51.6003 51.4363 51.6003 47.8465H48.6003ZM48.6003 24.8806V47.8465H51.6003V24.8806H48.6003ZM45.1003 21.3806C47.0333 21.3806 48.6003 22.9476 48.6003 24.8806H51.6003C51.6003 21.2907 48.6902 18.3806 45.1003 18.3806V21.3806ZM45.0508 21.3806H45.1003V18.3806H45.0508V21.3806ZM43.5508 10.7799V19.8806H46.5508V10.7799H43.5508ZM44.1508 11.3799C43.8195 11.3799 43.5508 11.1113 43.5508 10.7799H46.5508C46.5508 9.4544 45.4763 8.37988 44.1508 8.37988V11.3799ZM15.8235 11.3799H44.1508V8.37988H15.8235V11.3799ZM44.7508 19.8806V11.6799H41.7508V19.8806H44.7508ZM43.2508 10.1799H16.7235V13.1799H43.2508V10.1799ZM15.2235 11.6799V19.8806H18.2235V11.6799H15.2235ZM16.7235 21.3806H43.2508V18.3806H16.7235V21.3806ZM43.2508 20.3806H16.7235V23.3806H43.2508V20.3806ZM44.7508 27.0386V21.8806H41.7508V27.0386H44.7508ZM16.7235 28.5386H43.2508V25.5386H16.7235V28.5386ZM15.2235 21.8806V27.0386H18.2235V21.8806H15.2235ZM16.4235 27.9386V21.8826H13.4235V27.9386H16.4235ZM15.8235 27.3386C16.1548 27.3386 16.4235 27.6072 16.4235 27.9386H13.4235C13.4235 29.2641 14.498 30.3386 15.8235 30.3386V27.3386ZM44.1508 27.3386H15.8235V30.3386H44.1508V27.3386ZM43.5508 27.9386C43.5508 27.6072 43.8195 27.3386 44.1508 27.3386V30.3386C45.4763 30.3386 46.5508 29.2641 46.5508 27.9386H43.5508ZM43.5508 21.8806V27.9386H46.5508V21.8806H43.5508ZM45.1003 20.3806H45.0508V23.3806H45.1003V20.3806ZM49.6003 24.8806C49.6003 22.3953 47.5856 20.3806 45.1003 20.3806V23.3806C45.9287 23.3806 46.6003 24.0521 46.6003 24.8806H49.6003ZM49.6003 47.8465V24.8806H46.6003V47.8465H49.6003ZM45.1003 52.3465C47.5856 52.3465 49.6003 50.3318 49.6003 47.8465H46.6003C46.6003 48.6749 45.9287 49.3465 45.1003 49.3465V52.3465ZM15.0366 52.3465H45.1003V49.3465H15.0366V52.3465ZM10.5366 47.8465C10.5366 50.3318 12.5513 52.3465 15.0366 52.3465V49.3465C14.2082 49.3465 13.5366 48.6749 13.5366 47.8465H10.5366ZM10.5366 24.8806V47.8465H13.5366V24.8806H10.5366ZM14.8679 20.3837C12.4602 20.473 10.5366 22.4518 10.5366 24.8806H13.5366C13.5366 24.0714 14.1779 23.4113 14.979 23.3816L14.8679 20.3837Z" fill="#F8F9FA" mask="url(#path-1-outside-1_50_3084)"/>
<path d="M44.1669 10.7041H15.8395V27.8628H44.1669V10.7041Z" fill="#F8F9FA" stroke="#212529" stroke-width="1.8" stroke-linejoin="round"/>
<path d="M40.4411 14.4565H19.5654V23.5836H40.4411V14.4565Z" fill="#4DABF7" stroke="#212529" stroke-width="1.2" stroke-linejoin="round"/>
<g style="mix-blend-mode:multiply">
<path d="M32.047 22.9137L43.2582 11.3213V22.9137H32.047Z" fill="#E9ECEF"/>
</g>
<rect x="11.0526" y="20.8047" width="38.0637" height="30.9659" rx="4" fill="#FFC9C9" stroke="#212529" stroke-width="1.8" stroke-linejoin="round"/>
<g style="mix-blend-mode:multiply">
<path fill-rule="evenodd" clip-rule="evenodd" d="M19.0079 21.8667H43.3124C45.5216 21.8667 47.3124 23.6576 47.3124 25.8667V47.0533C47.3124 48.9255 46.0262 50.4972 44.2892 50.9332H45.369C47.0258 50.9332 48.369 49.59 48.369 47.9332V24.7466C48.369 23.0897 47.0258 21.7466 45.369 21.7466H19.9847C19.6478 21.7466 19.3206 21.7882 19.0079 21.8667Z" fill="#FFC9C9"/>
</g>
<g style="mix-blend-mode:soft-light" opacity="0.6">
<path fill-rule="evenodd" clip-rule="evenodd" d="M41.281 50.5996L16.9765 50.5996C14.7674 50.5996 12.9765 48.8088 12.9765 46.5996L12.9765 25.6264C12.9765 23.7542 14.2627 22.1824 15.9997 21.7465L14.92 21.7465C13.2631 21.7465 11.92 23.0897 11.92 24.7465L11.92 47.7197C11.92 49.3766 13.2631 50.7197 14.92 50.7197L40.3042 50.7197C40.6412 50.7197 40.9684 50.6781 41.281 50.5996Z" fill="#F8F9FA"/>
</g>
<rect x="14.6534" y="24.5149" width="5.61634" height="3.34804" rx="1.67402" fill="#F8F9FA" stroke="#212529" stroke-width="1.2" stroke-linejoin="round"/>
<rect x="14.6534" y="35.1953" width="30.8621" height="13.3803" rx="1" fill="#FFF3BF" stroke="#212529" stroke-width="1.2" stroke-linecap="round"/>
<g style="mix-blend-mode:multiply">
<path d="M31.8557 45.2998C36.8302 45.2998 40.8629 41.2943 40.8629 36.3532C40.8629 31.4121 36.8302 27.4065 31.8557 27.4065C26.8812 27.4065 22.8485 31.4121 22.8485 36.3532C22.8485 41.2943 26.8812 45.2998 31.8557 45.2998Z" fill="#E9ECEF"/>
</g>
<path d="M30.003 45.2998C34.9775 45.2998 39.0102 41.2943 39.0102 36.3532C39.0102 31.4121 34.9775 27.4065 30.003 27.4065C25.0285 27.4065 20.9958 31.4121 20.9958 36.3532C20.9958 41.2943 25.0285 45.2998 30.003 45.2998Z" fill="#E9ECEF" stroke="#212529" stroke-width="1.2" stroke-linejoin="round"/>
<path d="M29.9747 42.373C33.3218 42.373 36.0353 39.6778 36.0353 36.3531C36.0353 33.0284 33.3218 30.3333 29.9747 30.3333C26.6275 30.3333 23.9141 33.0284 23.9141 36.3531C23.9141 39.6778 26.6275 42.373 29.9747 42.373Z" fill="#FFC9C9" stroke="#212529" stroke-linejoin="round"/>
<path d="M25.4226 39.9265L28.9191 36.4301L31.0563 36.2697L34.4528 32.8732" stroke="#212529" stroke-linejoin="round"/>
<path d="M43.8415 27.4066C44.766 27.4066 45.5155 26.6572 45.5155 25.7326C45.5155 24.8081 44.766 24.0586 43.8415 24.0586C42.917 24.0586 42.1675 24.8081 42.1675 25.7326C42.1675 26.6572 42.917 27.4066 43.8415 27.4066Z" fill="#FF8787" stroke="#212529" stroke-width="1.2" stroke-linejoin="round"/>
<g style="mix-blend-mode:multiply">
<path fill-rule="evenodd" clip-rule="evenodd" d="M29.3144 41.5953C29.3693 41.6059 29.366 41.6871 29.3101 41.6871V41.6871C26.4442 41.6871 24.121 39.3199 24.121 36.3997C24.121 33.4796 26.4442 31.1123 29.3101 31.1123V31.1123C29.366 31.1123 29.3693 31.1936 29.3144 31.2041C26.9111 31.6661 25.0931 33.8166 25.0931 36.3997C25.0931 38.9829 26.9111 41.1333 29.3144 41.5953Z" fill="#E9ECEF"/>
</g>
</svg>
