<svg width="60" height="61" viewBox="0 0 60 61" fill="none" xmlns="http://www.w3.org/2000/svg">
<mask id="path-1-outside-1_50_2275" maskUnits="userSpaceOnUse" x="6.02649" y="10.4741" width="48" height="41" fill="black">
<rect fill="white" x="6.02649" y="10.4741" width="48" height="41"/>
<path fill-rule="evenodd" clip-rule="evenodd" d="M18.1766 14.452C18.1766 14.0224 18.5249 13.6741 18.9545 13.6741C19.3841 13.6741 19.7324 14.0224 19.7324 14.452V25.478C19.7324 26.3892 20.1546 27.2476 20.5025 27.9551L20.5306 28.0122C20.9144 28.7934 21.2058 29.4126 21.2058 30.0171V32.6841C21.2058 33.2733 20.8418 33.7775 20.3264 33.9841H17.6191C17.1037 33.7775 16.7397 33.2733 16.7397 32.6841V30.0171C16.7397 29.4185 17.024 28.8058 17.3982 28.0333L17.4254 27.977C17.7649 27.2768 18.1766 26.4275 18.1766 25.5263V14.452ZM15.8876 33.9841C15.6663 33.6017 15.5397 33.1577 15.5397 32.6841V30.0171C15.5397 29.116 15.9515 28.2667 16.2909 27.5664L16.3182 27.5102C16.6924 26.7376 16.9766 26.1249 16.9766 25.5263V14.452C16.9766 13.3596 17.8622 12.4741 18.9545 12.4741C20.0469 12.4741 20.9324 13.3596 20.9324 14.452V25.478C20.9324 26.0826 21.2238 26.7018 21.6076 27.483L21.6357 27.5401C21.9836 28.2476 22.4058 29.106 22.4058 30.0171V32.6841C22.4058 33.1577 22.2792 33.6017 22.058 33.9841H26.9056C26.6844 33.6017 26.5578 33.1577 26.5578 32.6841V30.0171C26.5578 29.116 26.9695 28.2667 27.309 27.5664L27.309 27.5664L27.3363 27.5102C27.7104 26.7376 27.9947 26.1249 27.9947 25.5263V14.452C27.9947 13.3596 28.8802 12.4741 29.9726 12.4741C31.0649 12.4741 31.9504 13.3596 31.9504 14.452V25.478C31.9504 26.0826 32.2418 26.7018 32.6257 27.483L32.6537 27.5401C33.0017 28.2476 33.4239 29.106 33.4239 30.0171V32.6841C33.4239 33.1577 33.2973 33.6017 33.076 33.9841H37.9238C37.7025 33.6017 37.5759 33.1577 37.5759 32.6841V30.0171C37.5759 28.5812 38.74 27.4171 40.1759 27.4171H40.2209C40.2242 27.4152 40.2293 27.412 40.2362 27.4066C40.2652 27.3841 40.3045 27.3401 40.3395 27.2755L47.0772 14.8538C47.598 13.8936 48.7986 13.5374 49.7588 14.0582C50.719 14.5791 51.0752 15.7797 50.5544 16.7398L44.5663 27.7796C44.4355 28.0208 44.3881 28.3209 44.3892 28.7153C44.3897 28.9113 44.4017 29.1132 44.415 29.3346L44.4153 29.3393C44.428 29.553 44.442 29.7863 44.442 30.0171V32.6841C44.442 33.1577 44.3154 33.6017 44.0942 33.9841H44.3405C48.5561 33.9841 51.9736 37.4016 51.9736 41.6172C51.9736 45.8329 48.5561 49.2504 44.3405 49.2504H15.6596C11.444 49.2504 8.02649 45.8329 8.02649 41.6172C8.02649 37.4016 11.444 33.9841 15.6596 33.9841H15.8876ZM42.3627 33.9841C42.878 33.7775 43.242 33.2733 43.242 32.6841V30.0171C43.242 29.8266 43.2304 29.6276 43.2171 29.4063L43.2164 29.3947L43.2164 29.3946C43.2037 29.1829 43.1898 28.9505 43.1892 28.7186C43.1879 28.2486 43.239 27.7098 43.5115 27.2074L49.4996 16.1677C49.7044 15.7901 49.5643 15.3179 49.1867 15.1131C48.809 14.9082 48.3369 15.0483 48.132 15.4259L41.3943 27.8477C41.2171 28.1744 40.8315 28.6171 40.2319 28.6171H40.1759C39.4027 28.6171 38.7759 29.2439 38.7759 30.0171V32.6841C38.7759 33.2733 39.1399 33.7775 39.6553 33.9841H42.3627ZM28.6372 33.9841H31.3445C31.8599 33.7775 32.2239 33.2733 32.2239 32.6841V30.0171C32.2239 29.4126 31.9325 28.7934 31.5487 28.0122L31.5206 27.9551C31.1726 27.2476 30.7504 26.3892 30.7504 25.478V14.452C30.7504 14.0224 30.4022 13.6741 29.9726 13.6741C29.543 13.6741 29.1947 14.0224 29.1947 14.452V25.5263C29.1947 26.4275 28.783 27.2768 28.4435 27.977L28.4162 28.0333C28.0421 28.8058 27.7578 29.4185 27.7578 30.0171V32.6841C27.7578 33.2733 28.1218 33.7775 28.6372 33.9841ZM9.42649 41.6172C9.42649 38.1748 12.2172 35.3841 15.6596 35.3841H44.3405C47.7829 35.3841 50.5736 38.1748 50.5736 41.6172C50.5736 45.0597 47.7829 47.8504 44.3405 47.8504H15.6596C12.2172 47.8504 9.42649 45.0597 9.42649 41.6172Z"/>
</mask>
<path fill-rule="evenodd" clip-rule="evenodd" d="M18.1766 14.452C18.1766 14.0224 18.5249 13.6741 18.9545 13.6741C19.3841 13.6741 19.7324 14.0224 19.7324 14.452V25.478C19.7324 26.3892 20.1546 27.2476 20.5025 27.9551L20.5306 28.0122C20.9144 28.7934 21.2058 29.4126 21.2058 30.0171V32.6841C21.2058 33.2733 20.8418 33.7775 20.3264 33.9841H17.6191C17.1037 33.7775 16.7397 33.2733 16.7397 32.6841V30.0171C16.7397 29.4185 17.024 28.8058 17.3982 28.0333L17.4254 27.977C17.7649 27.2768 18.1766 26.4275 18.1766 25.5263V14.452ZM15.8876 33.9841C15.6663 33.6017 15.5397 33.1577 15.5397 32.6841V30.0171C15.5397 29.116 15.9515 28.2667 16.2909 27.5664L16.3182 27.5102C16.6924 26.7376 16.9766 26.1249 16.9766 25.5263V14.452C16.9766 13.3596 17.8622 12.4741 18.9545 12.4741C20.0469 12.4741 20.9324 13.3596 20.9324 14.452V25.478C20.9324 26.0826 21.2238 26.7018 21.6076 27.483L21.6357 27.5401C21.9836 28.2476 22.4058 29.106 22.4058 30.0171V32.6841C22.4058 33.1577 22.2792 33.6017 22.058 33.9841H26.9056C26.6844 33.6017 26.5578 33.1577 26.5578 32.6841V30.0171C26.5578 29.116 26.9695 28.2667 27.309 27.5664L27.309 27.5664L27.3363 27.5102C27.7104 26.7376 27.9947 26.1249 27.9947 25.5263V14.452C27.9947 13.3596 28.8802 12.4741 29.9726 12.4741C31.0649 12.4741 31.9504 13.3596 31.9504 14.452V25.478C31.9504 26.0826 32.2418 26.7018 32.6257 27.483L32.6537 27.5401C33.0017 28.2476 33.4239 29.106 33.4239 30.0171V32.6841C33.4239 33.1577 33.2973 33.6017 33.076 33.9841H37.9238C37.7025 33.6017 37.5759 33.1577 37.5759 32.6841V30.0171C37.5759 28.5812 38.74 27.4171 40.1759 27.4171H40.2209C40.2242 27.4152 40.2293 27.412 40.2362 27.4066C40.2652 27.3841 40.3045 27.3401 40.3395 27.2755L47.0772 14.8538C47.598 13.8936 48.7986 13.5374 49.7588 14.0582C50.719 14.5791 51.0752 15.7797 50.5544 16.7398L44.5663 27.7796C44.4355 28.0208 44.3881 28.3209 44.3892 28.7153C44.3897 28.9113 44.4017 29.1132 44.415 29.3346L44.4153 29.3393C44.428 29.553 44.442 29.7863 44.442 30.0171V32.6841C44.442 33.1577 44.3154 33.6017 44.0942 33.9841H44.3405C48.5561 33.9841 51.9736 37.4016 51.9736 41.6172C51.9736 45.8329 48.5561 49.2504 44.3405 49.2504H15.6596C11.444 49.2504 8.02649 45.8329 8.02649 41.6172C8.02649 37.4016 11.444 33.9841 15.6596 33.9841H15.8876ZM42.3627 33.9841C42.878 33.7775 43.242 33.2733 43.242 32.6841V30.0171C43.242 29.8266 43.2304 29.6276 43.2171 29.4063L43.2164 29.3947L43.2164 29.3946C43.2037 29.1829 43.1898 28.9505 43.1892 28.7186C43.1879 28.2486 43.239 27.7098 43.5115 27.2074L49.4996 16.1677C49.7044 15.7901 49.5643 15.3179 49.1867 15.1131C48.809 14.9082 48.3369 15.0483 48.132 15.4259L41.3943 27.8477C41.2171 28.1744 40.8315 28.6171 40.2319 28.6171H40.1759C39.4027 28.6171 38.7759 29.2439 38.7759 30.0171V32.6841C38.7759 33.2733 39.1399 33.7775 39.6553 33.9841H42.3627ZM28.6372 33.9841H31.3445C31.8599 33.7775 32.2239 33.2733 32.2239 32.6841V30.0171C32.2239 29.4126 31.9325 28.7934 31.5487 28.0122L31.5206 27.9551C31.1726 27.2476 30.7504 26.3892 30.7504 25.478V14.452C30.7504 14.0224 30.4022 13.6741 29.9726 13.6741C29.543 13.6741 29.1947 14.0224 29.1947 14.452V25.5263C29.1947 26.4275 28.783 27.2768 28.4435 27.977L28.4162 28.0333C28.0421 28.8058 27.7578 29.4185 27.7578 30.0171V32.6841C27.7578 33.2733 28.1218 33.7775 28.6372 33.9841ZM9.42649 41.6172C9.42649 38.1748 12.2172 35.3841 15.6596 35.3841H44.3405C47.7829 35.3841 50.5736 38.1748 50.5736 41.6172C50.5736 45.0597 47.7829 47.8504 44.3405 47.8504H15.6596C12.2172 47.8504 9.42649 45.0597 9.42649 41.6172Z" fill="#F8F9FA"/>
<path d="M20.5025 27.9551L21.8486 27.2933L21.8485 27.2931L20.5025 27.9551ZM20.5306 28.0122L21.8769 27.3507L21.8767 27.3504L20.5306 28.0122ZM20.3264 33.9841V35.4841C20.5176 35.4841 20.7071 35.4475 20.8846 35.3764L20.3264 33.9841ZM17.6191 33.9841L17.061 35.3764C17.2385 35.4475 17.4279 35.4841 17.6191 35.4841V33.9841ZM17.3982 28.0333L16.0483 27.3791L16.0482 27.3794L17.3982 28.0333ZM17.4254 27.977L16.0757 27.3227L16.0756 27.3229L17.4254 27.977ZM15.8876 33.9841V35.4841C16.4237 35.4841 16.919 35.1979 17.1869 34.7335C17.4548 34.2691 17.4544 33.6971 17.186 33.233L15.8876 33.9841ZM16.2909 27.5664L17.6407 28.2207L17.6408 28.2206L16.2909 27.5664ZM16.3182 27.5102L17.668 28.1644L17.6682 28.164L16.3182 27.5102ZM21.6076 27.483L20.2613 28.1445L20.2615 28.1448L21.6076 27.483ZM21.6357 27.5401L20.2896 28.2019L20.2897 28.2021L21.6357 27.5401ZM22.058 33.9841L20.7596 33.233C20.4911 33.6971 20.4908 34.2691 20.7586 34.7335C21.0265 35.1979 21.5219 35.4841 22.058 35.4841V33.9841ZM26.9056 33.9841V35.4841C27.4418 35.4841 27.9371 35.1979 28.205 34.7335C28.4728 34.2691 28.4725 33.6971 28.204 33.233L26.9056 33.9841ZM27.309 27.5664L28.6588 28.2207C28.6742 28.1888 28.6886 28.1564 28.7017 28.1235L27.309 27.5664ZM27.309 27.5664L25.9592 26.9122C25.9437 26.9441 25.9294 26.9764 25.9163 27.0093L27.309 27.5664ZM27.3363 27.5102L28.6861 28.1644L28.6862 28.164L27.3363 27.5102ZM32.6257 27.483L31.2794 28.1445L31.2796 28.1448L32.6257 27.483ZM32.6537 27.5401L31.3076 28.2019L31.3077 28.2021L32.6537 27.5401ZM33.076 33.9841L31.7776 33.233C31.5092 33.6971 31.5088 34.2691 31.7767 34.7335C32.0446 35.1979 32.5399 35.4841 33.076 35.4841V33.9841ZM37.9238 33.9841V35.4841C38.4599 35.4841 38.9552 35.1979 39.2231 34.7335C39.491 34.2691 39.4906 33.6971 39.2222 33.233L37.9238 33.9841ZM40.2209 27.4171V28.9171C40.4818 28.9171 40.7383 28.849 40.9649 28.7196L40.2209 27.4171ZM40.2362 27.4066L41.1552 28.5921L41.1553 28.592L40.2362 27.4066ZM40.3395 27.2755L39.021 26.5604L39.021 26.5604L40.3395 27.2755ZM47.0772 14.8538L45.7587 14.1386L45.7587 14.1386L47.0772 14.8538ZM49.7588 14.0582L50.474 12.7397L50.474 12.7397L49.7588 14.0582ZM50.5544 16.7398L49.2359 16.0247L49.2359 16.0247L50.5544 16.7398ZM44.5663 27.7796L45.8848 28.4948L45.8848 28.4948L44.5663 27.7796ZM44.3892 28.7153L42.8892 28.7194L42.8892 28.7194L44.3892 28.7153ZM44.415 29.3346L45.9123 29.2455L45.9123 29.2451L44.415 29.3346ZM44.4153 29.3393L42.9179 29.4284L42.9179 29.4289L44.4153 29.3393ZM44.0942 33.9841L42.7958 33.233C42.5273 33.6971 42.527 34.2691 42.7948 34.7335C43.0627 35.1979 43.5581 35.4841 44.0942 35.4841V33.9841ZM42.3627 33.9841V35.4841C42.5539 35.4841 42.7433 35.4475 42.9208 35.3764L42.3627 33.9841ZM43.2171 29.4063L44.7144 29.3167L44.7144 29.3165L43.2171 29.4063ZM43.2164 29.3947L44.7137 29.305C44.7128 29.2896 44.7117 29.2743 44.7103 29.2589L43.2164 29.3947ZM43.2164 29.3946L41.7191 29.4842C41.72 29.4996 41.7212 29.515 41.7226 29.5304L43.2164 29.3946ZM43.1892 28.7186L44.6892 28.7144L44.6892 28.7144L43.1892 28.7186ZM43.5115 27.2074L42.1929 26.4923L42.1929 26.4923L43.5115 27.2074ZM49.4996 16.1677L48.181 15.4525L48.181 15.4525L49.4996 16.1677ZM49.1867 15.1131L48.4715 16.4316L48.4715 16.4316L49.1867 15.1131ZM48.132 15.4259L46.8135 14.7107L46.8135 14.7108L48.132 15.4259ZM41.3943 27.8477L40.0758 27.1325L40.0758 27.1325L41.3943 27.8477ZM39.6553 33.9841L39.0972 35.3764C39.2746 35.4475 39.4641 35.4841 39.6553 35.4841V33.9841ZM31.3445 33.9841V35.4841C31.5357 35.4841 31.7251 35.4475 31.9026 35.3764L31.3445 33.9841ZM28.6372 33.9841L28.0791 35.3764C28.2565 35.4475 28.446 35.4841 28.6372 35.4841V33.9841ZM31.5487 28.0122L32.8949 27.3507L32.8948 27.3504L31.5487 28.0122ZM31.5206 27.9551L32.8667 27.2933L32.8666 27.2931L31.5206 27.9551ZM28.4435 27.977L27.0937 27.3227L27.0937 27.3229L28.4435 27.977ZM28.4162 28.0333L27.0664 27.3791L27.0663 27.3794L28.4162 28.0333ZM18.9545 12.1741C17.6965 12.1741 16.6766 13.194 16.6766 14.452H19.6766C19.6766 14.8508 19.3533 15.1741 18.9545 15.1741V12.1741ZM21.2324 14.452C21.2324 13.194 20.2125 12.1741 18.9545 12.1741V15.1741C18.5557 15.1741 18.2324 14.8508 18.2324 14.452H21.2324ZM21.2324 25.478V14.452H18.2324V25.478H21.2324ZM21.8485 27.2931C21.4725 26.5284 21.2324 25.9825 21.2324 25.478H18.2324C18.2324 26.7958 18.8367 27.9667 19.1565 28.6171L21.8485 27.2931ZM21.8767 27.3504L21.8486 27.2933L19.1564 28.6169L19.1845 28.674L21.8767 27.3504ZM22.7058 30.0171C22.7058 28.9966 22.2191 28.0473 21.8769 27.3507L19.1843 28.6736C19.6097 29.5395 19.7058 29.8286 19.7058 30.0171H22.7058ZM22.7058 32.6841V30.0171H19.7058V32.6841H22.7058ZM20.8846 35.3764C21.9494 34.9495 22.7058 33.9069 22.7058 32.6841H19.7058C19.7058 32.6651 19.7127 32.6432 19.7243 32.6264C19.7342 32.612 19.7485 32.5997 19.7683 32.5918L20.8846 35.3764ZM17.6191 35.4841H20.3264V32.4841H17.6191V35.4841ZM15.2397 32.6841C15.2397 33.9069 15.9961 34.9495 17.061 35.3764L18.1772 32.5918C18.1971 32.5997 18.2114 32.612 18.2213 32.6264C18.2328 32.6432 18.2397 32.6651 18.2397 32.6841H15.2397ZM15.2397 30.0171V32.6841H18.2397V30.0171H15.2397ZM16.0482 27.3794C15.7141 28.0691 15.2397 29.0081 15.2397 30.0171H18.2397C18.2397 29.8289 18.3339 29.5425 18.7482 28.6871L16.0482 27.3794ZM16.0756 27.3229L16.0483 27.3791L18.748 28.6874L18.7753 28.6312L16.0756 27.3229ZM16.6766 25.5263C16.6766 26.0263 16.4422 26.5666 16.0757 27.3227L18.7752 28.6314C19.0876 27.9869 19.6766 26.8286 19.6766 25.5263H16.6766ZM16.6766 14.452V25.5263H19.6766V14.452H16.6766ZM14.0397 32.6841C14.0397 33.4284 14.2394 34.1306 14.5892 34.7352L17.186 33.233C17.0933 33.0727 17.0397 32.8869 17.0397 32.6841H14.0397ZM14.0397 30.0171V32.6841H17.0397V30.0171H14.0397ZM14.9412 26.912C14.6288 27.5565 14.0397 28.7148 14.0397 30.0171H17.0397C17.0397 29.5171 17.2741 28.9769 17.6407 28.2207L14.9412 26.912ZM14.9684 26.856L14.9411 26.9122L17.6408 28.2206L17.668 28.1644L14.9684 26.856ZM15.4766 25.5263C15.4766 25.7145 15.3825 26.0009 14.9682 26.8563L17.6682 28.164C18.0022 27.4743 18.4766 26.5353 18.4766 25.5263H15.4766ZM15.4766 14.452V25.5263H18.4766V14.452H15.4766ZM18.9545 10.9741C17.0337 10.9741 15.4766 12.5312 15.4766 14.452H18.4766C18.4766 14.1881 18.6906 13.9741 18.9545 13.9741V10.9741ZM22.4324 14.452C22.4324 12.5312 20.8753 10.9741 18.9545 10.9741V13.9741C19.2184 13.9741 19.4324 14.1881 19.4324 14.452H22.4324ZM22.4324 25.478V14.452H19.4324V25.478H22.4324ZM22.9539 26.8215C22.5285 25.9557 22.4324 25.6665 22.4324 25.478H19.4324C19.4324 26.4986 19.9191 27.4478 20.2613 28.1445L22.9539 26.8215ZM22.9818 26.8782L22.9537 26.8212L20.2615 28.1448L20.2896 28.2019L22.9818 26.8782ZM23.9058 30.0171C23.9058 28.6994 23.3015 27.5284 22.9817 26.8781L20.2897 28.2021C20.6657 28.9667 20.9058 29.5126 20.9058 30.0171H23.9058ZM23.9058 32.6841V30.0171H20.9058V32.6841H23.9058ZM23.3564 34.7352C23.7061 34.1306 23.9058 33.4284 23.9058 32.6841H20.9058C20.9058 32.8869 20.8523 33.0727 20.7596 33.233L23.3564 34.7352ZM26.9056 32.4841H22.058V35.4841H26.9056V32.4841ZM25.0578 32.6841C25.0578 33.4284 25.2575 34.1306 25.6072 34.7352L28.204 33.233C28.1113 33.0727 28.0578 32.8869 28.0578 32.6841H25.0578ZM25.0578 30.0171V32.6841H28.0578V30.0171H25.0578ZM25.9592 26.9121C25.6468 27.5565 25.0578 28.7148 25.0578 30.0171H28.0578C28.0578 29.5171 28.2922 28.9769 28.6588 28.2207L25.9592 26.9121ZM25.9163 27.0093L25.9163 27.0093L28.7017 28.1235L28.7017 28.1235L25.9163 27.0093ZM25.9864 26.856L25.9592 26.9122L28.6588 28.2206L28.6861 28.1644L25.9864 26.856ZM26.4947 25.5263C26.4947 25.7145 26.4006 26.0009 25.9863 26.8563L28.6862 28.164C29.0203 27.4743 29.4947 26.5353 29.4947 25.5263H26.4947ZM26.4947 14.452V25.5263H29.4947V14.452H26.4947ZM29.9726 10.9741C28.0518 10.9741 26.4947 12.5312 26.4947 14.452H29.4947C29.4947 14.1881 29.7086 13.9741 29.9726 13.9741V10.9741ZM33.4504 14.452C33.4504 12.5312 31.8933 10.9741 29.9726 10.9741V13.9741C30.2365 13.9741 30.4504 14.1881 30.4504 14.452H33.4504ZM33.4504 25.478V14.452H30.4504V25.478H33.4504ZM33.9719 26.8215C33.5465 25.9557 33.4504 25.6665 33.4504 25.478H30.4504C30.4504 26.4986 30.9371 27.4478 31.2794 28.1445L33.9719 26.8215ZM33.9998 26.8782L33.9718 26.8212L31.2796 28.1448L31.3076 28.2019L33.9998 26.8782ZM34.9239 30.0171C34.9239 28.6994 34.3196 27.5284 33.9998 26.8781L31.3077 28.2021C31.6838 28.9667 31.9239 29.5126 31.9239 30.0171H34.9239ZM34.9239 32.6841V30.0171H31.9239V32.6841H34.9239ZM34.3745 34.7352C34.7242 34.1306 34.9239 33.4284 34.9239 32.6841H31.9239C31.9239 32.8869 31.8703 33.0727 31.7776 33.233L34.3745 34.7352ZM37.9238 32.4841H33.076V35.4841H37.9238V32.4841ZM39.2222 33.233C39.1295 33.0727 39.0759 32.8869 39.0759 32.6841H36.0759C36.0759 33.4284 36.2756 34.1306 36.6253 34.7352L39.2222 33.233ZM39.0759 32.6841V30.0171H36.0759V32.6841H39.0759ZM39.0759 30.0171C39.0759 29.4096 39.5684 28.9171 40.1759 28.9171V25.9171C37.9116 25.9171 36.0759 27.7527 36.0759 30.0171H39.0759ZM40.1759 28.9171H40.2209V25.9171H40.1759V28.9171ZM40.9649 28.7196C41.038 28.6779 41.1013 28.6338 41.1552 28.5921L39.3171 26.2211C39.3572 26.1901 39.4104 26.1526 39.4769 26.1146L40.9649 28.7196ZM41.1553 28.592C41.3801 28.4177 41.5449 28.1993 41.6581 27.9907L39.021 26.5604C39.047 26.5124 39.0802 26.4616 39.1226 26.4094C39.1618 26.3614 39.2245 26.293 39.317 26.2212L41.1553 28.592ZM41.658 27.9907L48.3957 15.569L45.7587 14.1386L39.021 26.5604L41.658 27.9907ZM48.3957 15.569C48.5216 15.337 48.8116 15.2509 49.0436 15.3768L50.474 12.7397C48.7856 11.8239 46.6745 12.4502 45.7587 14.1386L48.3957 15.569ZM49.0436 15.3768C49.2756 15.5026 49.3617 15.7927 49.2359 16.0247L51.8729 17.455C52.7887 15.7666 52.1624 13.6555 50.474 12.7397L49.0436 15.3768ZM49.2359 16.0247L43.2478 27.0644L45.8848 28.4948L51.8729 17.455L49.2359 16.0247ZM43.2478 27.0644C42.9396 27.6325 42.8878 28.2313 42.8892 28.7194L45.8892 28.7111C45.8888 28.57 45.8977 28.4937 45.9041 28.458C45.9097 28.4276 45.9094 28.4494 45.8848 28.4948L43.2478 27.0644ZM42.8892 28.7194C42.8899 28.9658 42.9049 29.2113 42.9177 29.4242L45.9123 29.2451C45.8985 29.0152 45.8896 28.8568 45.8892 28.7111L42.8892 28.7194ZM42.9176 29.4237L42.9179 29.4284L45.9126 29.2502L45.9123 29.2455L42.9176 29.4237ZM42.9179 29.4289C42.9311 29.6496 42.942 29.8384 42.942 30.0171H45.942C45.942 29.7342 45.925 29.4564 45.9126 29.2497L42.9179 29.4289ZM42.942 30.0171V32.6841H45.942V30.0171H42.942ZM42.942 32.6841C42.942 32.8869 42.8885 33.0727 42.7958 33.233L45.3926 34.7352C45.7423 34.1306 45.942 33.4284 45.942 32.6841H42.942ZM44.3405 32.4841H44.0942V35.4841H44.3405V32.4841ZM53.4736 41.6172C53.4736 36.5731 49.3846 32.4841 44.3405 32.4841V35.4841C47.7277 35.4841 50.4736 38.23 50.4736 41.6172H53.4736ZM44.3405 50.7504C49.3846 50.7504 53.4736 46.6613 53.4736 41.6172H50.4736C50.4736 45.0045 47.7277 47.7504 44.3405 47.7504V50.7504ZM15.6596 50.7504H44.3405V47.7504H15.6596V50.7504ZM6.52649 41.6172C6.52649 46.6613 10.6155 50.7504 15.6596 50.7504V47.7504C12.2724 47.7504 9.52649 45.0045 9.52649 41.6172H6.52649ZM15.6596 32.4841C10.6155 32.4841 6.52649 36.5731 6.52649 41.6172H9.52649C9.52649 38.23 12.2724 35.4841 15.6596 35.4841V32.4841ZM15.8876 32.4841H15.6596V35.4841H15.8876V32.4841ZM42.9208 35.3764C43.9856 34.9495 44.742 33.9069 44.742 32.6841H41.742C41.742 32.6651 41.7489 32.6432 41.7605 32.6264C41.7704 32.612 41.7847 32.5997 41.8045 32.5918L42.9208 35.3764ZM44.742 32.6841V30.0171H41.742V32.6841H44.742ZM44.742 30.0171C44.742 29.774 44.7272 29.5298 44.7144 29.3167L41.7198 29.4959C41.7335 29.7255 41.742 29.8792 41.742 30.0171H44.742ZM44.7144 29.3165L44.7137 29.305L41.7191 29.4845L41.7198 29.4961L44.7144 29.3165ZM44.7103 29.2589L44.7103 29.2588L41.7226 29.5304L41.7226 29.5305L44.7103 29.2589ZM44.7137 29.305C44.7007 29.087 44.6897 28.8967 44.6892 28.7144L41.6892 28.7227C41.69 29.0043 41.7068 29.2787 41.7191 29.4842L44.7137 29.305ZM44.6892 28.7144C44.6882 28.3394 44.7345 28.0987 44.83 27.9226L42.1929 26.4923C41.7435 27.3209 41.6876 28.1578 41.6892 28.7228L44.6892 28.7144ZM44.83 27.9226L50.8181 16.8829L48.181 15.4525L42.1929 26.4923L44.83 27.9226ZM50.8181 16.8829C51.4179 15.777 51.0077 14.3943 49.9019 13.7945L48.4715 16.4316C48.1209 16.2414 47.9909 15.8031 48.181 15.4525L50.8181 16.8829ZM49.9019 13.7945C48.796 13.1947 47.4133 13.6049 46.8135 14.7107L49.4506 16.1411C49.2604 16.4917 48.8221 16.6217 48.4715 16.4316L49.9019 13.7945ZM46.8135 14.7108L40.0758 27.1325L42.7129 28.5629L49.4506 16.1411L46.8135 14.7108ZM40.0758 27.1325C40.0714 27.1406 40.0635 27.1531 40.0541 27.1648C40.0447 27.1764 40.041 27.1784 40.0468 27.1739C40.0533 27.1687 40.0744 27.1536 40.111 27.1398C40.1501 27.125 40.193 27.1171 40.2319 27.1171V30.1171C41.6456 30.1171 42.4294 29.0855 42.7129 28.5629L40.0758 27.1325ZM40.2319 27.1171H40.1759V30.1171H40.2319V27.1171ZM40.1759 27.1171C38.5743 27.1171 37.2759 28.4155 37.2759 30.0171H40.2759C40.2759 30.0723 40.2312 30.1171 40.1759 30.1171V27.1171ZM37.2759 30.0171V32.6841H40.2759V30.0171H37.2759ZM37.2759 32.6841C37.2759 33.9069 38.0323 34.9495 39.0972 35.3764L40.2134 32.5918C40.2333 32.5997 40.2476 32.612 40.2575 32.6264C40.269 32.6432 40.2759 32.6651 40.2759 32.6841H37.2759ZM42.3627 32.4841H39.6553V35.4841H42.3627V32.4841ZM31.3445 32.4841H28.6372V35.4841H31.3445V32.4841ZM30.7239 32.6841C30.7239 32.6651 30.7308 32.6432 30.7424 32.6264C30.7523 32.612 30.7665 32.5997 30.7864 32.5918L31.9026 35.3764C32.9675 34.9495 33.7239 33.907 33.7239 32.6841H30.7239ZM30.7239 30.0171V32.6841H33.7239V30.0171H30.7239ZM30.2024 28.6736C30.6278 29.5395 30.7239 29.8286 30.7239 30.0171H33.7239C33.7239 28.9966 33.2372 28.0473 32.8949 27.3507L30.2024 28.6736ZM30.1745 28.6169L30.2025 28.674L32.8948 27.3504L32.8667 27.2933L30.1745 28.6169ZM29.2504 25.478C29.2504 26.7958 29.8547 27.9668 30.1746 28.6171L32.8666 27.2931C32.4905 26.5284 32.2504 25.9825 32.2504 25.478H29.2504ZM29.2504 14.452V25.478H32.2504V14.452H29.2504ZM29.9726 15.1741C29.5738 15.1741 29.2504 14.8508 29.2504 14.452H32.2504C32.2504 13.194 31.2306 12.1741 29.9726 12.1741V15.1741ZM30.6947 14.452C30.6947 14.8508 30.3714 15.1741 29.9726 15.1741V12.1741C28.7145 12.1741 27.6947 13.194 27.6947 14.452H30.6947ZM30.6947 25.5263V14.452H27.6947V25.5263H30.6947ZM29.7932 28.6314C30.1057 27.9869 30.6947 26.8286 30.6947 25.5263H27.6947C27.6947 26.0263 27.4603 26.5666 27.0937 27.3227L29.7932 28.6314ZM29.7661 28.6874L29.7933 28.6312L27.0937 27.3229L27.0664 27.3791L29.7661 28.6874ZM29.2578 30.0171C29.2578 29.8289 29.3519 29.5425 29.7662 28.6871L27.0663 27.3794C26.7322 28.0691 26.2578 29.0081 26.2578 30.0171H29.2578ZM29.2578 32.6841V30.0171H26.2578V32.6841H29.2578ZM29.1953 32.5918C29.2151 32.5997 29.2294 32.612 29.2393 32.6264C29.2509 32.6432 29.2578 32.6651 29.2578 32.6841H26.2578C26.2578 33.9069 27.0142 34.9495 28.0791 35.3764L29.1953 32.5918ZM15.6596 33.8841C11.3887 33.8841 7.92649 37.3463 7.92649 41.6172H10.9265C10.9265 39.0032 13.0456 36.8841 15.6596 36.8841V33.8841ZM44.3405 33.8841H15.6596V36.8841H44.3405V33.8841ZM52.0736 41.6172C52.0736 37.3463 48.6114 33.8841 44.3405 33.8841V36.8841C46.9545 36.8841 49.0736 39.0032 49.0736 41.6172H52.0736ZM44.3405 49.3504C48.6114 49.3504 52.0736 45.8881 52.0736 41.6172H49.0736C49.0736 44.2313 46.9545 46.3504 44.3405 46.3504V49.3504ZM15.6596 49.3504H44.3405V46.3504H15.6596V49.3504ZM7.92649 41.6172C7.92649 45.8881 11.3887 49.3504 15.6596 49.3504V46.3504C13.0456 46.3504 10.9265 44.2313 10.9265 41.6172H7.92649Z" fill="#F8F9FA" mask="url(#path-1-outside-1_50_2275)"/>
<rect x="8.70703" y="34.7004" width="42.5471" height="13.8663" rx="6.93315" fill="#CED4DA" stroke="#212529" stroke-width="1.8" stroke-linejoin="round"/>
<g style="mix-blend-mode:multiply">
<path fill-rule="evenodd" clip-rule="evenodd" d="M8.28145 40.9414C8.25887 41.1691 8.24731 41.4001 8.24731 41.6338C8.24731 45.4629 11.3514 48.5669 15.1805 48.5669H43.8613C47.6904 48.5669 50.7944 45.4629 50.7944 41.6338C50.7944 41.4002 50.7829 41.1692 50.7603 40.9415C50.4129 44.4455 47.4567 47.1823 43.8613 47.1823H15.1805C11.585 47.1823 8.62883 44.4454 8.28145 40.9414Z" fill="#CED4DA"/>
</g>
<circle cx="15.8642" cy="41.6337" r="1.38469" fill="#FFE066" stroke="#212529"/>
<circle cx="21.3003" cy="41.6337" r="1.38469" fill="#FFE066" stroke="#212529"/>
<circle cx="26.7366" cy="41.6337" r="1.38469" fill="#8CE99A" stroke="#212529"/>
<path d="M37.9187 41.6338L44.1655 41.6338" stroke="#212529" stroke-width="2" stroke-linecap="round" stroke-linejoin="round"/>
<path fill-rule="evenodd" clip-rule="evenodd" d="M18.9351 13.0906C18.1742 13.0906 17.5573 13.7075 17.5573 14.4684V25.5428C17.5573 27.0668 16.1204 28.5096 16.1204 30.0335V30.0335V32.7005C16.1204 33.8051 17.0158 34.7005 18.1204 34.7005H19.7864C20.891 34.7005 21.7864 33.8051 21.7864 32.7005V30.0335V30.0335C21.7864 28.4933 20.313 27.0348 20.313 25.4945V14.4684C20.313 13.7075 19.6961 13.0906 18.9351 13.0906Z" fill="#F1F3F5"/>
<path d="M18.2573 14.4684C18.2573 14.0941 18.5608 13.7906 18.9351 13.7906V12.3906C17.7876 12.3906 16.8573 13.3209 16.8573 14.4684H18.2573ZM18.2573 25.5428V14.4684H16.8573V25.5428H18.2573ZM16.8204 32.7005V30.0335H15.4204V32.7005H16.8204ZM18.1204 34.0005C17.4024 34.0005 16.8204 33.4185 16.8204 32.7005H15.4204C15.4204 34.1917 16.6292 35.4005 18.1204 35.4005V34.0005ZM19.7864 34.0005H18.1204V35.4005H19.7864V34.0005ZM21.0864 32.7005C21.0864 33.4185 20.5044 34.0005 19.7864 34.0005V35.4005C21.2776 35.4005 22.4864 34.1917 22.4864 32.7005H21.0864ZM21.0864 30.0335V32.7005H22.4864V30.0335H21.0864ZM19.613 14.4684V25.4945H21.013V14.4684H19.613ZM18.9351 13.7906C19.3095 13.7906 19.613 14.0941 19.613 14.4684H21.013C21.013 13.3209 20.0827 12.3906 18.9351 12.3906V13.7906ZM22.4864 30.0335C22.4864 29.0702 22.0283 28.1682 21.678 27.4553C21.2915 26.6689 21.013 26.0714 21.013 25.4945H19.613C19.613 26.4579 20.0712 27.3598 20.4215 28.0727C20.8079 28.8592 21.0864 29.4566 21.0864 30.0335H22.4864ZM16.8573 25.5428C16.8573 26.1141 16.5855 26.7053 16.2088 27.483C15.867 28.1887 15.4204 29.0809 15.4204 30.0335H16.8204C16.8204 29.4622 17.0921 28.871 17.4688 28.0933C17.8106 27.3876 18.2573 26.4954 18.2573 25.5428H16.8573Z" fill="#212529"/>
<path fill-rule="evenodd" clip-rule="evenodd" d="M29.9532 13.0906C29.1922 13.0906 28.5753 13.7075 28.5753 14.4684V25.5428C28.5753 27.0668 27.1384 28.5096 27.1384 30.0335V30.0335V32.7005C27.1384 33.8051 28.0339 34.7005 29.1384 34.7005H30.8045C31.9091 34.7005 32.8045 33.8051 32.8045 32.7005V30.0335V30.0335C32.8045 28.4933 31.3311 27.0348 31.3311 25.4945V14.4684C31.3311 13.7075 30.7142 13.0906 29.9532 13.0906Z" fill="#F1F3F5"/>
<path d="M29.2753 14.4684C29.2753 14.0941 29.5788 13.7906 29.9532 13.7906V12.3906C28.8056 12.3906 27.8753 13.3209 27.8753 14.4684H29.2753ZM29.2753 25.5428V14.4684H27.8753V25.5428H29.2753ZM27.8384 32.7005V30.0335H26.4384V32.7005H27.8384ZM29.1384 34.0005C28.4205 34.0005 27.8384 33.4185 27.8384 32.7005H26.4384C26.4384 34.1917 27.6473 35.4005 29.1384 35.4005V34.0005ZM30.8045 34.0005H29.1384V35.4005H30.8045V34.0005ZM32.1045 32.7005C32.1045 33.4185 31.5225 34.0005 30.8045 34.0005V35.4005C32.2957 35.4005 33.5045 34.1917 33.5045 32.7005H32.1045ZM32.1045 30.0335V32.7005H33.5045V30.0335H32.1045ZM30.6311 14.4684V25.4945H32.0311V14.4684H30.6311ZM29.9532 13.7906C30.3276 13.7906 30.6311 14.0941 30.6311 14.4684H32.0311C32.0311 13.3209 31.1008 12.3906 29.9532 12.3906V13.7906ZM33.5045 30.0335C33.5045 29.0702 33.0463 28.1682 32.696 27.4553C32.3096 26.6689 32.0311 26.0714 32.0311 25.4945H30.6311C30.6311 26.4579 31.0892 27.3598 31.4395 28.0727C31.826 28.8592 32.1045 29.4566 32.1045 30.0335H33.5045ZM27.8753 25.5428C27.8753 26.1141 27.6035 26.7053 27.2269 27.483C26.8851 28.1887 26.4384 29.0809 26.4384 30.0335H27.8384C27.8384 29.4622 28.1102 28.871 28.4869 28.0933C28.8287 27.3876 29.2753 26.4954 29.2753 25.5428H27.8753Z" fill="#212529"/>
<g style="mix-blend-mode:multiply">
<path fill-rule="evenodd" clip-rule="evenodd" d="M29.8117 34.7005H30.5882C31.6927 34.7005 32.5882 33.8051 32.5882 32.7005V30.0335C32.5882 29.2634 32.2198 28.5137 31.8514 27.764C31.4831 27.0143 31.1147 26.2646 31.1147 25.4945V14.4684C31.1147 13.7075 30.4978 13.0906 29.7368 13.0906C29.602 13.0906 29.4718 13.1099 29.3486 13.146C29.9206 13.3137 30.3383 13.8423 30.3383 14.4684V25.4945C30.3383 26.2646 30.7067 27.0143 31.075 27.764C31.4434 28.5137 31.8117 29.2634 31.8117 30.0335V32.7005C31.8117 33.8051 30.9163 34.7005 29.8117 34.7005Z" fill="#CED4DA"/>
</g>
<g style="mix-blend-mode:multiply">
<path fill-rule="evenodd" clip-rule="evenodd" d="M18.7591 34.7005H19.5355C20.6401 34.7005 21.5355 33.8051 21.5355 32.7005V30.0335C21.5355 29.2634 21.1672 28.5137 20.7988 27.764C20.4305 27.0143 20.0621 26.2646 20.0621 25.4945V14.4684C20.0621 13.7075 19.4452 13.0906 18.6842 13.0906C18.5494 13.0906 18.4191 13.1099 18.296 13.146C18.868 13.3137 19.2857 13.8423 19.2857 14.4684V25.4945C19.2857 26.2646 19.654 27.0143 20.0224 27.764C20.3907 28.5137 20.7591 29.2634 20.7591 30.0335V32.7005C20.7591 33.8051 19.8637 34.7005 18.7591 34.7005Z" fill="#CED4DA"/>
</g>
<path fill-rule="evenodd" clip-rule="evenodd" d="M49.4533 14.602C48.7844 14.2392 47.948 14.4873 47.5852 15.1562L40.8475 27.578V27.578C40.7153 27.8218 40.4898 28.0335 40.2125 28.0335H40.1565C39.0519 28.0335 38.1565 28.9289 38.1565 30.0335V32.7005C38.1565 33.805 39.0519 34.7005 40.1565 34.7005H41.8226C42.9271 34.7005 43.8226 33.805 43.8226 32.7005V30.0335V30.0335C43.8226 29.1876 43.6161 28.2535 44.0194 27.5099L50.0075 16.4701C50.3704 15.8012 50.1222 14.9648 49.4533 14.602Z" fill="#F1F3F5"/>
<path d="M47.5852 15.1562L46.9699 14.8225L46.9699 14.8225L47.5852 15.1562ZM49.4533 14.602L49.7871 13.9867L49.4533 14.602ZM50.0075 16.4701L50.6228 16.8039L50.6228 16.8039L50.0075 16.4701ZM44.0194 27.5099L43.4041 27.1761L44.0194 27.5099ZM48.2005 15.49C48.379 15.1609 48.7905 15.0388 49.1196 15.2173L49.7871 13.9867C48.7783 13.4396 47.517 13.8137 46.9699 14.8225L48.2005 15.49ZM41.4628 27.9117L48.2005 15.49L46.9699 14.8225L40.2322 27.2442L41.4628 27.9117ZM40.1565 28.7335H40.2125V27.3335H40.1565V28.7335ZM38.8565 30.0335C38.8565 29.3155 39.4385 28.7335 40.1565 28.7335V27.3335C38.6653 27.3335 37.4565 28.5423 37.4565 30.0335H38.8565ZM38.8565 32.7005V30.0335H37.4565V32.7005H38.8565ZM40.1565 34.0005C39.4385 34.0005 38.8565 33.4184 38.8565 32.7005H37.4565C37.4565 34.1916 38.6653 35.4005 40.1565 35.4005V34.0005ZM41.8226 34.0005H40.1565V35.4005H41.8226V34.0005ZM43.1226 32.7005C43.1226 33.4184 42.5405 34.0005 41.8226 34.0005V35.4005C43.3137 35.4005 44.5226 34.1916 44.5226 32.7005H43.1226ZM43.1226 30.0335V32.7005H44.5226V30.0335H43.1226ZM49.3922 16.1364L43.4041 27.1761L44.6348 27.8437L50.6228 16.8039L49.3922 16.1364ZM49.1196 15.2173C49.4486 15.3958 49.5707 15.8073 49.3922 16.1364L50.6228 16.8039C51.17 15.7952 50.7958 14.5339 49.7871 13.9867L49.1196 15.2173ZM44.5226 30.0335C44.5226 29.7975 44.5082 29.5595 44.4954 29.3451C44.4821 29.1231 44.4703 28.924 44.4698 28.7314C44.4687 28.3433 44.5157 28.0631 44.6348 27.8437L43.4041 27.1761C43.1198 27.7003 43.0684 28.2589 43.0698 28.7352C43.0704 28.9748 43.085 29.2143 43.0979 29.4287C43.1111 29.6505 43.1226 29.8465 43.1226 30.0335H44.5226ZM40.2322 27.2442C40.2183 27.2698 40.2033 27.2921 40.1886 27.3101C40.1739 27.3282 40.1621 27.3388 40.1555 27.344C40.149 27.349 40.1506 27.3464 40.1612 27.3423C40.173 27.3378 40.1911 27.3335 40.2125 27.3335V28.7335C40.8657 28.7335 41.2781 28.2523 41.4628 27.9117L40.2322 27.2442Z" fill="#212529"/>
<g style="mix-blend-mode:multiply">
<path fill-rule="evenodd" clip-rule="evenodd" d="M48.2017 14.5702C48.2226 14.5802 48.2433 14.5908 48.264 14.602C48.9329 14.9648 49.181 15.8012 48.8182 16.4701L42.8301 27.5099C42.5282 28.0664 42.5679 28.7296 42.607 29.3826C42.6201 29.6022 42.6332 29.8206 42.6332 30.0335V32.7005C42.6332 33.805 41.7378 34.7005 40.6332 34.7005H40.1504C40.1525 34.7005 40.1546 34.7005 40.1566 34.7005H41.8227C42.9273 34.7005 43.8227 33.805 43.8227 32.7005V30.0335C43.8227 29.8206 43.8096 29.6022 43.7965 29.3826C43.7574 28.7296 43.7177 28.0664 44.0196 27.5099L50.0077 16.4701C50.3705 15.8012 50.1224 14.9648 49.4535 14.602C49.0502 14.3833 48.5862 14.3866 48.2017 14.5702Z" fill="#CED4DA"/>
</g>
</svg>
