<svg width="60" height="61" viewBox="0 0 60 61" fill="none" xmlns="http://www.w3.org/2000/svg">
<path d="M40.9534 13.0999C40.9531 13.0995 40.9528 13.0992 40.9524 13.0989C40.2835 12.4129 39.3723 12.0239 38.418 12.0239H14.1464C12.1533 12.0239 10.5704 13.6765 10.5704 15.6739V46.0508C10.5704 48.0482 12.1533 49.7008 14.1464 49.7008H45.8536C47.8468 49.7008 49.4296 48.0482 49.4296 46.0508V23.3043C49.4296 22.3424 49.0575 21.4162 48.3891 20.7303L40.9534 13.0999ZM13.8245 15.6739C13.8245 15.4622 13.9868 15.3239 14.1464 15.3239H38.418C38.497 15.3239 38.5769 15.356 38.6388 15.4195L46.0745 23.0499C46.1371 23.1142 46.1756 23.2053 46.1756 23.3043V46.0508C46.1756 46.2625 46.0133 46.4008 45.8536 46.4008H14.1464C13.9868 46.4008 13.8245 46.2625 13.8245 46.0508V15.6739Z" fill="#F8F9FA" stroke="#F8F9FA" stroke-width="1.5" stroke-linecap="round" stroke-linejoin="round"/>
<path d="M38.3816 13.6738H14.1974C13.0928 13.6738 12.1974 14.5693 12.1974 15.6738V46.0507C12.1974 47.1553 13.0928 48.0507 14.1974 48.0507H45.8025C46.9071 48.0507 47.8025 47.1553 47.8025 46.0507V23.2891C47.8025 22.7676 47.5988 22.2668 47.2349 21.8933L39.814 14.278C39.4375 13.8917 38.921 13.6738 38.3816 13.6738Z" fill="#91A7FF" stroke="#212529" stroke-width="1.8" stroke-linejoin="round"/>
<path d="M17.9575 30.7251C17.9575 29.6205 18.853 28.7251 19.9575 28.7251H39.12C40.2246 28.7251 41.12 29.6205 41.12 30.7251V48.0506H17.9575V30.7251Z" fill="#F8F9FA" stroke="#212529" stroke-width="1.6" stroke-linejoin="round"/>
<path d="M23.4747 34.3H35.6029" stroke="#212529" stroke-width="1.6" stroke-linecap="round" stroke-linejoin="round"/>
<path d="M23.4747 38.3879H35.6029" stroke="#212529" stroke-width="1.6" stroke-linecap="round" stroke-linejoin="round"/>
<path d="M23.4747 42.4758H35.6029" stroke="#212529" stroke-width="1.6" stroke-linecap="round" stroke-linejoin="round"/>
<rect x="17.9576" y="13.6738" width="13.6019" height="3.71723" fill="#ADB5BD" stroke="#212529" stroke-width="1.6" stroke-linejoin="round"/>
<g style="mix-blend-mode:multiply">
<path fill-rule="evenodd" clip-rule="evenodd" d="M12.1974 46.1601C12.2336 46.162 12.2701 46.163 12.3068 46.163H43.9119C45.0165 46.163 45.9119 45.2676 45.9119 44.163V21.4015C45.9119 20.88 45.7083 20.3791 45.3443 20.0056L39.5281 14.0371C39.629 14.1079 39.7238 14.1884 39.811 14.278L47.232 21.8933C47.5959 22.2667 47.7996 22.7676 47.7996 23.2891V46.0507C47.7996 47.1552 46.9042 48.0507 45.7996 48.0507H14.1944C13.1266 48.0507 12.2542 47.2138 12.1974 46.1601Z" fill="#DEE2E6"/>
</g>
</svg>
