<svg width="60" height="61" viewBox="0 0 60 61" fill="none" xmlns="http://www.w3.org/2000/svg">
<mask id="path-1-outside-1_50_4693" maskUnits="userSpaceOnUse" x="3.73193" y="7.53613" width="51" height="46" fill="black">
<rect fill="white" x="3.73193" y="7.53613" width="51" height="46"/>
<path fill-rule="evenodd" clip-rule="evenodd" d="M38.4356 11.3121H37.7614C37.4769 11.3121 37.2463 11.5427 37.2463 11.8271C37.2463 12.1116 37.4769 12.3422 37.7614 12.3422H38.4354C38.5178 12.1887 38.5645 12.0133 38.5645 11.827C38.5645 11.6407 38.5179 11.4654 38.4356 11.3121ZM38.9926 10.1121C38.5883 9.75371 38.0564 9.53613 37.4737 9.53613C36.2085 9.53613 35.1829 10.5618 35.1829 11.827C35.1829 13.0922 36.2085 14.1178 37.4737 14.1178C38.0562 14.1178 38.588 13.9003 38.9923 13.5422H40.6145L43.5298 32.0167C43.0764 32.6237 42.8589 33.4059 42.9863 34.2133L44.214 41.9934L44.2191 42.0246C43.4837 42.6529 42.9243 43.4813 42.6253 44.4255H19.7114C19.6609 44.4255 19.6079 44.4067 19.5569 44.3572C19.5031 44.3051 19.4614 44.2265 19.4511 44.136C19.2055 41.9753 18.2225 40.2969 16.7639 39.1282C15.3194 37.9708 13.4509 37.3452 11.4575 37.1843C10.3983 37.0988 9.59363 37.9667 9.59363 38.942V40.7356C9.59363 40.8072 9.598 40.8788 9.60669 40.9499C7.37483 41.5498 5.73193 43.5874 5.73193 46.0087C5.73193 48.9015 8.07703 51.2466 10.9698 51.2466C12.713 51.2466 14.2572 50.3951 15.2094 49.0854H43.3802C44.3323 50.3951 45.8766 51.2466 47.6197 51.2466C50.5125 51.2466 52.8576 48.9015 52.8576 46.0087C52.8576 43.9712 51.6943 42.2055 49.9957 41.3394C49.9898 41.2552 49.9803 41.1705 49.9669 41.0856L48.7392 33.3056C48.5674 32.2171 47.8134 31.3652 46.8446 31.0174L44.0871 13.5422H44.937C45.8842 13.5422 46.652 12.7743 46.652 11.8271C46.652 10.8799 45.8842 10.1121 44.937 10.1121L38.9926 10.1121ZM39.7064 11.3121H41.0735C40.773 11.5754 40.569 11.9396 40.5071 12.3422H39.7064C39.7444 12.1766 39.7645 12.0041 39.7645 11.827C39.7645 11.6499 39.7444 11.4776 39.7064 11.3121ZM44.5672 44.4255C44.7111 44.1486 44.8916 43.8937 45.1022 43.6673C45.735 44.2577 46.6232 44.5613 47.5443 44.4159C48.3856 44.2831 49.0856 43.8025 49.5207 43.1437C50.4471 43.7596 51.0576 44.8129 51.0576 46.0087C51.0576 47.9074 49.5184 49.4466 47.6197 49.4466C46.9105 49.4466 46.2516 49.2319 45.7042 48.8639C46.2084 48.5871 46.5682 48.0748 46.6297 47.4663L46.7368 46.4064C46.8439 45.3462 46.0115 44.4255 44.9459 44.4255H44.5672ZM47.2949 42.8355C47.5189 42.8001 47.7206 42.7101 47.8886 42.5811C47.7998 42.5743 47.7102 42.5708 47.6197 42.5708C47.2487 42.5708 46.8915 42.6295 46.5567 42.7382C46.7805 42.8381 47.0348 42.8765 47.2949 42.8355ZM47.6197 40.7708C47.8517 40.7708 48.0803 40.7858 48.3044 40.8151L47.206 33.8547C47.0906 34.5663 46.5309 35.1553 45.78 35.2738C45.4139 35.3316 45.0566 35.2689 44.7484 35.1152L45.6982 41.1344C46.2932 40.8997 46.9414 40.7708 47.6197 40.7708ZM44.8388 47.4854H44.5142C44.3033 47.0427 44.1843 46.5479 44.1818 46.0255H44.9459C45.0643 46.0255 45.1568 46.1278 45.1449 46.2456L45.0378 47.3055C45.0275 47.4076 44.9415 47.4854 44.8388 47.4854ZM19.7114 46.0255H42.3818C42.3834 46.5323 42.457 47.0221 42.5928 47.4854H15.9967C16.1341 47.017 16.2078 46.5215 16.2078 46.0087C16.2078 43.1923 13.9849 40.895 11.1979 40.7756C11.1953 40.7641 11.1936 40.7507 11.1936 40.7356V38.942C11.1936 38.8845 11.2167 38.8389 11.2455 38.8108C11.2717 38.7852 11.2982 38.7766 11.3288 38.7791C13.0835 38.9208 14.6245 39.4642 15.7635 40.3768C16.8884 41.2781 17.6629 42.5707 17.8613 44.3167C17.9629 45.2102 18.6951 46.0255 19.7114 46.0255ZM43.8977 12.3422H44.937C45.2214 12.3422 45.452 12.1116 45.452 11.8271C45.452 11.5427 45.2214 11.3121 44.937 11.3121H43.3315C43.6238 11.5673 43.8315 11.9227 43.8967 12.336L43.8977 12.3422ZM41.7586 12.3422C41.8341 12.2141 41.9641 12.1195 42.1224 12.0945C42.3375 12.0606 42.5426 12.1651 42.6468 12.3422H41.7586ZM41.8294 13.5422H42.8722L45.6048 30.8588C45.5397 30.8646 45.4743 30.8727 45.4088 30.883C45.123 30.9281 44.8534 31.0134 44.605 31.1322L41.8294 13.5422ZM45.6582 32.4635C45.3459 32.5127 45.0768 32.6685 44.8821 32.8878L45.0039 33.66C45.0483 33.941 45.312 34.1328 45.593 34.0885C45.8739 34.0441 46.0658 33.7804 46.0214 33.4994L45.8554 32.4473C45.7903 32.4477 45.7245 32.453 45.6582 32.4635ZM11.2933 42.5858C11.1869 42.5758 11.0789 42.5708 10.9698 42.5708C9.07114 42.5708 7.53193 44.11 7.53193 46.0087C7.53193 47.9074 9.07114 49.4466 10.9698 49.4466C12.0199 49.4466 12.96 48.9758 13.5906 48.2338C13.42 47.9639 13.3171 47.6487 13.3028 47.3167C13.2045 45.0342 12.7564 43.9304 12.3013 43.3464C12.0065 42.9681 11.6789 42.7605 11.2933 42.5858Z"/>
</mask>
<path fill-rule="evenodd" clip-rule="evenodd" d="M38.4356 11.3121H37.7614C37.4769 11.3121 37.2463 11.5427 37.2463 11.8271C37.2463 12.1116 37.4769 12.3422 37.7614 12.3422H38.4354C38.5178 12.1887 38.5645 12.0133 38.5645 11.827C38.5645 11.6407 38.5179 11.4654 38.4356 11.3121ZM38.9926 10.1121C38.5883 9.75371 38.0564 9.53613 37.4737 9.53613C36.2085 9.53613 35.1829 10.5618 35.1829 11.827C35.1829 13.0922 36.2085 14.1178 37.4737 14.1178C38.0562 14.1178 38.588 13.9003 38.9923 13.5422H40.6145L43.5298 32.0167C43.0764 32.6237 42.8589 33.4059 42.9863 34.2133L44.214 41.9934L44.2191 42.0246C43.4837 42.6529 42.9243 43.4813 42.6253 44.4255H19.7114C19.6609 44.4255 19.6079 44.4067 19.5569 44.3572C19.5031 44.3051 19.4614 44.2265 19.4511 44.136C19.2055 41.9753 18.2225 40.2969 16.7639 39.1282C15.3194 37.9708 13.4509 37.3452 11.4575 37.1843C10.3983 37.0988 9.59363 37.9667 9.59363 38.942V40.7356C9.59363 40.8072 9.598 40.8788 9.60669 40.9499C7.37483 41.5498 5.73193 43.5874 5.73193 46.0087C5.73193 48.9015 8.07703 51.2466 10.9698 51.2466C12.713 51.2466 14.2572 50.3951 15.2094 49.0854H43.3802C44.3323 50.3951 45.8766 51.2466 47.6197 51.2466C50.5125 51.2466 52.8576 48.9015 52.8576 46.0087C52.8576 43.9712 51.6943 42.2055 49.9957 41.3394C49.9898 41.2552 49.9803 41.1705 49.9669 41.0856L48.7392 33.3056C48.5674 32.2171 47.8134 31.3652 46.8446 31.0174L44.0871 13.5422H44.937C45.8842 13.5422 46.652 12.7743 46.652 11.8271C46.652 10.8799 45.8842 10.1121 44.937 10.1121L38.9926 10.1121ZM39.7064 11.3121H41.0735C40.773 11.5754 40.569 11.9396 40.5071 12.3422H39.7064C39.7444 12.1766 39.7645 12.0041 39.7645 11.827C39.7645 11.6499 39.7444 11.4776 39.7064 11.3121ZM44.5672 44.4255C44.7111 44.1486 44.8916 43.8937 45.1022 43.6673C45.735 44.2577 46.6232 44.5613 47.5443 44.4159C48.3856 44.2831 49.0856 43.8025 49.5207 43.1437C50.4471 43.7596 51.0576 44.8129 51.0576 46.0087C51.0576 47.9074 49.5184 49.4466 47.6197 49.4466C46.9105 49.4466 46.2516 49.2319 45.7042 48.8639C46.2084 48.5871 46.5682 48.0748 46.6297 47.4663L46.7368 46.4064C46.8439 45.3462 46.0115 44.4255 44.9459 44.4255H44.5672ZM47.2949 42.8355C47.5189 42.8001 47.7206 42.7101 47.8886 42.5811C47.7998 42.5743 47.7102 42.5708 47.6197 42.5708C47.2487 42.5708 46.8915 42.6295 46.5567 42.7382C46.7805 42.8381 47.0348 42.8765 47.2949 42.8355ZM47.6197 40.7708C47.8517 40.7708 48.0803 40.7858 48.3044 40.8151L47.206 33.8547C47.0906 34.5663 46.5309 35.1553 45.78 35.2738C45.4139 35.3316 45.0566 35.2689 44.7484 35.1152L45.6982 41.1344C46.2932 40.8997 46.9414 40.7708 47.6197 40.7708ZM44.8388 47.4854H44.5142C44.3033 47.0427 44.1843 46.5479 44.1818 46.0255H44.9459C45.0643 46.0255 45.1568 46.1278 45.1449 46.2456L45.0378 47.3055C45.0275 47.4076 44.9415 47.4854 44.8388 47.4854ZM19.7114 46.0255H42.3818C42.3834 46.5323 42.457 47.0221 42.5928 47.4854H15.9967C16.1341 47.017 16.2078 46.5215 16.2078 46.0087C16.2078 43.1923 13.9849 40.895 11.1979 40.7756C11.1953 40.7641 11.1936 40.7507 11.1936 40.7356V38.942C11.1936 38.8845 11.2167 38.8389 11.2455 38.8108C11.2717 38.7852 11.2982 38.7766 11.3288 38.7791C13.0835 38.9208 14.6245 39.4642 15.7635 40.3768C16.8884 41.2781 17.6629 42.5707 17.8613 44.3167C17.9629 45.2102 18.6951 46.0255 19.7114 46.0255ZM43.8977 12.3422H44.937C45.2214 12.3422 45.452 12.1116 45.452 11.8271C45.452 11.5427 45.2214 11.3121 44.937 11.3121H43.3315C43.6238 11.5673 43.8315 11.9227 43.8967 12.336L43.8977 12.3422ZM41.7586 12.3422C41.8341 12.2141 41.9641 12.1195 42.1224 12.0945C42.3375 12.0606 42.5426 12.1651 42.6468 12.3422H41.7586ZM41.8294 13.5422H42.8722L45.6048 30.8588C45.5397 30.8646 45.4743 30.8727 45.4088 30.883C45.123 30.9281 44.8534 31.0134 44.605 31.1322L41.8294 13.5422ZM45.6582 32.4635C45.3459 32.5127 45.0768 32.6685 44.8821 32.8878L45.0039 33.66C45.0483 33.941 45.312 34.1328 45.593 34.0885C45.8739 34.0441 46.0658 33.7804 46.0214 33.4994L45.8554 32.4473C45.7903 32.4477 45.7245 32.453 45.6582 32.4635ZM11.2933 42.5858C11.1869 42.5758 11.0789 42.5708 10.9698 42.5708C9.07114 42.5708 7.53193 44.11 7.53193 46.0087C7.53193 47.9074 9.07114 49.4466 10.9698 49.4466C12.0199 49.4466 12.96 48.9758 13.5906 48.2338C13.42 47.9639 13.3171 47.6487 13.3028 47.3167C13.2045 45.0342 12.7564 43.9304 12.3013 43.3464C12.0065 42.9681 11.6789 42.7605 11.2933 42.5858Z" fill="#F8F9FA"/>
<path d="M38.4356 11.3121L39.7574 10.603C39.4962 10.116 38.9883 9.81206 38.4356 9.81206V11.3121ZM38.4354 12.3422V13.8422C38.9879 13.8422 39.4957 13.5385 39.757 13.0517L38.4354 12.3422ZM38.9926 10.1121L37.9976 11.2346C38.272 11.4778 38.626 11.6121 38.9926 11.6121L38.9926 10.1121ZM38.9923 13.5422V12.0422C38.6257 12.0422 38.2719 12.1764 37.9975 12.4195L38.9923 13.5422ZM40.6145 13.5422L42.0962 13.3084C41.9811 12.5792 41.3527 12.0422 40.6145 12.0422V13.5422ZM43.5298 32.0167L44.7316 32.9143C44.9735 32.5903 45.0745 32.1824 45.0114 31.7829L43.5298 32.0167ZM42.9863 34.2133L41.5046 34.4472L41.5046 34.4472L42.9863 34.2133ZM44.214 41.9934L42.7323 42.2272L42.7336 42.235L44.214 41.9934ZM44.2191 42.0246L45.1934 43.1651C45.5921 42.8245 45.784 42.3005 45.6995 41.783L44.2191 42.0246ZM42.6253 44.4255V45.9255C43.2793 45.9255 43.8578 45.5018 44.0553 44.8784L42.6253 44.4255ZM19.5569 44.3572L18.5129 45.4343L18.5129 45.4344L19.5569 44.3572ZM19.4511 44.136L20.9415 43.9665L20.9415 43.9665L19.4511 44.136ZM16.7639 39.1282L17.7019 37.9576L17.7019 37.9576L16.7639 39.1282ZM11.4575 37.1843L11.3368 38.6794L11.3368 38.6794L11.4575 37.1843ZM9.60669 40.9499L9.99606 42.3985C10.7174 42.2046 11.1862 41.5095 11.0956 40.7681L9.60669 40.9499ZM15.2094 49.0854V47.5854C14.7294 47.5854 14.2783 47.8151 13.9961 48.2034L15.2094 49.0854ZM43.3802 49.0854L44.5934 48.2034C44.3112 47.8151 43.8602 47.5854 43.3802 47.5854V49.0854ZM49.9957 41.3394L48.4994 41.4441C48.5361 41.9692 48.8454 42.4366 49.3144 42.6757L49.9957 41.3394ZM49.9669 41.0856L51.4485 40.8518L51.4485 40.8518L49.9669 41.0856ZM48.7392 33.3056L50.2208 33.0718L50.2208 33.0718L48.7392 33.3056ZM46.8446 31.0174L45.363 31.2512C45.4484 31.7924 45.822 32.244 46.3377 32.4291L46.8446 31.0174ZM44.0871 13.5422V12.0422C43.6484 12.0422 43.2317 12.2342 42.9467 12.5677C42.6618 12.9012 42.537 13.3427 42.6054 13.776L44.0871 13.5422ZM44.937 10.1121L44.937 11.6121H44.937V10.1121ZM39.7064 11.3121V9.81206C39.2496 9.81206 38.8176 10.0203 38.533 10.3776C38.2484 10.735 38.1422 11.2026 38.2445 11.6478L39.7064 11.3121ZM41.0735 11.3121L42.062 12.4403C42.5319 12.0286 42.6974 11.3688 42.4775 10.784C42.2576 10.1993 41.6982 9.81206 41.0735 9.81206V11.3121ZM40.5071 12.3422V13.8422C41.2475 13.8422 41.8772 13.3019 41.9897 12.5701L40.5071 12.3422ZM39.7064 12.3422L38.2445 12.0062C38.1421 12.4515 38.2483 12.9191 38.5329 13.2765C38.8175 13.634 39.2495 13.8422 39.7064 13.8422V12.3422ZM45.1022 43.6673L46.1256 42.5706C45.8344 42.299 45.4472 42.1542 45.0493 42.1683C44.6514 42.1823 44.2753 42.354 44.0041 42.6455L45.1022 43.6673ZM44.5672 44.4255L43.2362 43.7338C42.9945 44.1988 43.0131 44.7562 43.2851 45.2041C43.5571 45.652 44.0432 45.9255 44.5672 45.9255V44.4255ZM47.5443 44.4159L47.7781 45.8976L47.7781 45.8976L47.5443 44.4159ZM49.5207 43.1437L50.3512 41.8946C50.0193 41.6739 49.6131 41.5944 49.2225 41.6737C48.8318 41.7529 48.4888 41.9844 48.2691 42.317L49.5207 43.1437ZM45.7042 48.8639L44.9822 47.5491C44.5234 47.801 44.2291 48.2738 44.2057 48.7967C44.1822 49.3195 44.433 49.8168 44.8673 50.1088L45.7042 48.8639ZM46.6297 47.4663L45.1373 47.3155L45.1373 47.3155L46.6297 47.4663ZM46.7368 46.4064L48.2292 46.5572L48.2292 46.5572L46.7368 46.4064ZM47.8886 42.5811L48.802 43.771C49.2948 43.3926 49.5034 42.7496 49.3265 42.154C49.1495 41.5584 48.6237 41.1335 48.0042 41.0856L47.8886 42.5811ZM47.2949 42.8355L47.5287 44.3171L47.5287 44.3171L47.2949 42.8355ZM46.5567 42.7382L46.0934 41.3116C45.5029 41.5034 45.0916 42.039 45.0588 42.659C45.026 43.2789 45.3785 43.855 45.9454 44.108L46.5567 42.7382ZM48.3044 40.8151L48.1102 42.3025C48.579 42.3637 49.0493 42.2003 49.3791 41.8615C49.7089 41.5228 49.8597 41.0483 49.786 40.5813L48.3044 40.8151ZM47.206 33.8547L48.6877 33.6209C48.5728 32.8929 47.9462 32.3563 47.2092 32.3547C46.4723 32.3531 45.8434 32.8871 45.7254 33.6145L47.206 33.8547ZM45.78 35.2738L46.0138 36.7555L46.0138 36.7555L45.78 35.2738ZM44.7484 35.1152L45.4179 33.7729C44.9154 33.5223 44.3149 33.5733 43.8619 33.9052C43.4089 34.2371 43.1792 34.7943 43.2668 35.349L44.7484 35.1152ZM45.6982 41.1344L44.2166 41.3682C44.2875 41.8178 44.5587 42.2108 44.9539 42.4367C45.349 42.6625 45.8253 42.6968 46.2487 42.5297L45.6982 41.1344ZM44.5142 47.4854L43.16 48.1305C43.4088 48.6527 43.9357 48.9854 44.5142 48.9854V47.4854ZM44.1818 46.0255V44.5255C43.7827 44.5255 43.4001 44.6845 43.1186 44.9674C42.8371 45.2502 42.6799 45.6336 42.6818 46.0327L44.1818 46.0255ZM45.1449 46.2456L43.6525 46.0948L43.6525 46.0948L45.1449 46.2456ZM45.0378 47.3055L43.5454 47.1547L43.5454 47.1547L45.0378 47.3055ZM42.3818 46.0255L43.8818 46.0208C43.8792 45.1942 43.2084 44.5255 42.3818 44.5255V46.0255ZM42.5928 47.4854V48.9854C43.0653 48.9854 43.5103 48.7627 43.7935 48.3845C44.0767 48.0062 44.1652 47.5167 44.0322 47.0632L42.5928 47.4854ZM15.9967 47.4854L14.5573 47.0632C14.4244 47.5167 14.5128 48.0062 14.796 48.3845C15.0793 48.7627 15.5242 48.9854 15.9967 48.9854V47.4854ZM11.1979 40.7756L9.73459 41.1054C9.88351 41.7662 10.4569 42.2453 11.1337 42.2743L11.1979 40.7756ZM11.2455 38.8108L10.1982 37.7369L10.1982 37.7369L11.2455 38.8108ZM11.3288 38.7791L11.208 40.2742L11.2081 40.2742L11.3288 38.7791ZM15.7635 40.3768L16.7014 39.2062L16.7014 39.2062L15.7635 40.3768ZM17.8613 44.3167L19.3517 44.1473L19.3517 44.1473L17.8613 44.3167ZM43.8977 12.3422L42.416 12.5756C42.5309 13.3049 43.1594 13.8422 43.8977 13.8422V12.3422ZM43.3315 11.3121V9.81206C42.7063 9.81206 42.1467 10.1998 41.9271 10.7851C41.7075 11.3705 41.8739 12.0306 42.3448 12.4419L43.3315 11.3121ZM43.8967 12.336L45.3785 12.1025L45.3784 12.1022L43.8967 12.336ZM42.1224 12.0945L42.3562 13.5762L42.3562 13.5762L42.1224 12.0945ZM41.7586 12.3422L40.4661 11.5811C40.193 12.0448 40.1893 12.6194 40.4564 13.0866C40.7235 13.5538 41.2204 13.8422 41.7586 13.8422V12.3422ZM42.6468 12.3422V13.8422C43.1849 13.8422 43.6817 13.554 43.9489 13.0869C44.216 12.6198 44.2125 12.0454 43.9397 11.5816L42.6468 12.3422ZM42.8722 13.5422L44.3539 13.3084C44.2388 12.5792 43.6104 12.0422 42.8722 12.0422V13.5422ZM41.8294 13.5422V12.0422C41.3907 12.0422 40.974 12.2342 40.689 12.5677C40.404 12.9012 40.2793 13.3427 40.3477 13.776L41.8294 13.5422ZM45.6048 30.8588L45.7391 32.3527C46.1527 32.3155 46.5323 32.1086 46.7876 31.7812C47.043 31.4537 47.1511 31.0351 47.0864 30.625L45.6048 30.8588ZM45.4088 30.883L45.6427 32.3647L45.6427 32.3647L45.4088 30.883ZM44.605 31.1322L43.1234 31.366C43.1972 31.8339 43.4877 32.2394 43.9069 32.4598C44.3261 32.6803 44.8249 32.6898 45.2522 32.4854L44.605 31.1322ZM44.8821 32.8878L43.7604 31.8919C43.4625 32.2274 43.3305 32.6785 43.4004 33.1216L44.8821 32.8878ZM45.6582 32.4635L45.4244 30.9818L45.4244 30.9818L45.6582 32.4635ZM45.0039 33.66L46.4856 33.4262L46.4856 33.4262L45.0039 33.66ZM45.593 34.0885L45.8268 35.5701L45.8268 35.5701L45.593 34.0885ZM46.0214 33.4994L44.5398 33.7332L44.5398 33.7332L46.0214 33.4994ZM45.8554 32.4473L47.3371 32.2135C47.2214 31.4805 46.5872 30.9422 45.8452 30.9473L45.8554 32.4473ZM11.2933 42.5858L11.9125 41.2195C11.7607 41.1507 11.5986 41.1077 11.4327 41.0923L11.2933 42.5858ZM13.5906 48.2338L14.7336 49.2052C15.1586 48.7052 15.2092 47.987 14.8586 47.4323L13.5906 48.2338ZM13.3028 47.3167L11.8042 47.3813L11.8042 47.3813L13.3028 47.3167ZM12.3013 43.3464L11.1182 44.2684L11.1182 44.2684L12.3013 43.3464ZM37.7614 12.8121H38.4356V9.81206H37.7614V12.8121ZM38.7463 11.8271C38.7463 12.3711 38.3054 12.8121 37.7614 12.8121V9.81206C36.6485 9.81206 35.7463 10.7142 35.7463 11.8271H38.7463ZM37.7614 10.8422C38.3054 10.8422 38.7463 11.2832 38.7463 11.8271H35.7463C35.7463 12.94 36.6485 13.8422 37.7614 13.8422V10.8422ZM38.4354 10.8422H37.7614V13.8422H38.4354V10.8422ZM39.757 13.0517C39.9536 12.6855 40.0645 12.2669 40.0645 11.827H37.0645C37.0645 11.7597 37.082 11.692 37.1138 11.6327L39.757 13.0517ZM40.0645 11.827C40.0645 11.3873 39.9538 10.969 39.7574 10.603L37.1138 12.0211C37.0819 11.9618 37.0645 11.8942 37.0645 11.827H40.0645ZM37.4737 11.0361C37.6759 11.0361 37.8571 11.11 37.9976 11.2346L39.9876 8.98955C39.3195 8.39739 38.437 8.03613 37.4737 8.03613V11.0361ZM36.6829 11.827C36.6829 11.3902 37.0369 11.0361 37.4737 11.0361V8.03613C35.3801 8.03613 33.6829 9.73334 33.6829 11.827H36.6829ZM37.4737 12.6178C37.0369 12.6178 36.6829 12.2637 36.6829 11.827H33.6829C33.6829 13.9206 35.3801 15.6178 37.4737 15.6178V12.6178ZM37.9975 12.4195C37.857 12.5439 37.6758 12.6178 37.4737 12.6178V15.6178C38.4367 15.6178 39.319 15.2568 39.987 14.6649L37.9975 12.4195ZM40.6145 12.0422H38.9923V15.0422H40.6145V12.0422ZM45.0114 31.7829L42.0962 13.3084L39.1328 13.776L42.0481 32.2505L45.0114 31.7829ZM44.468 33.9795C44.4061 33.5877 44.5102 33.2107 44.7316 32.9143L42.328 31.1191C41.6426 32.0367 41.3116 33.2241 41.5046 34.4472L44.468 33.9795ZM45.6956 41.7596L44.468 33.9795L41.5046 34.4472L42.7323 42.2272L45.6956 41.7596ZM45.6995 41.783L45.6944 41.7517L42.7336 42.235L42.7387 42.2663L45.6995 41.783ZM44.0553 44.8784C44.2679 44.207 44.6667 43.6151 45.1934 43.1651L43.2447 40.8842C42.3006 41.6908 41.5807 42.7556 41.1953 43.9726L44.0553 44.8784ZM19.7114 45.9255H42.6253V42.9255H19.7114V45.9255ZM18.5129 45.4344C18.8242 45.736 19.2447 45.9255 19.7114 45.9255V42.9255C19.8774 42.9255 20.0496 42.9574 20.2148 43.0268C20.3785 43.0955 20.5065 43.1887 20.6008 43.2801L18.5129 45.4344ZM17.9607 44.3054C18.0102 44.7407 18.2095 45.1402 18.5129 45.4343L20.6008 43.2801C20.7967 43.47 20.9126 43.7123 20.9415 43.9665L17.9607 44.3054ZM15.826 40.2988C16.9717 41.2168 17.7593 42.5335 17.9607 44.3054L20.9415 43.9665C20.6517 41.4171 19.4734 39.377 17.7019 37.9576L15.826 40.2988ZM11.3368 38.6794C13.1066 38.8223 14.668 39.3709 15.826 40.2988L17.7019 37.9576C15.9709 36.5706 13.7952 35.8681 11.5782 35.6892L11.3368 38.6794ZM11.0936 38.942C11.0936 38.8648 11.1273 38.7868 11.1804 38.7346C11.2045 38.7109 11.2281 38.697 11.2485 38.6893C11.2668 38.6824 11.2939 38.676 11.3368 38.6794L11.5782 35.6892C9.55273 35.5256 8.09363 37.187 8.09363 38.942H11.0936ZM11.0936 40.7356V38.942H8.09363V40.7356H11.0936ZM11.0956 40.7681C11.0943 40.757 11.0936 40.7461 11.0936 40.7356H8.09363C8.09363 40.8683 8.10174 41.0006 8.11774 41.1317L11.0956 40.7681ZM7.23193 46.0087C7.23193 44.2829 8.40282 42.8267 9.99606 42.3985L9.21731 39.5013C6.34684 40.2729 4.23193 42.8919 4.23193 46.0087H7.23193ZM10.9698 49.7466C8.90545 49.7466 7.23193 48.0731 7.23193 46.0087H4.23193C4.23193 49.7299 7.2486 52.7466 10.9698 52.7466V49.7466ZM13.9961 48.2034C13.3141 49.1415 12.2127 49.7466 10.9698 49.7466V52.7466C13.2133 52.7466 15.2004 51.6487 16.4226 49.9674L13.9961 48.2034ZM43.3802 47.5854H15.2094V50.5854H43.3802V47.5854ZM47.6197 49.7466C46.3769 49.7466 45.2755 49.1415 44.5934 48.2034L42.1669 49.9674C43.3891 51.6487 45.3763 52.7466 47.6197 52.7466V49.7466ZM51.3576 46.0087C51.3576 48.0731 49.6841 49.7466 47.6197 49.7466V52.7466C51.3409 52.7466 54.3576 49.7299 54.3576 46.0087H51.3576ZM49.3144 42.6757C50.5302 43.2957 51.3576 44.5569 51.3576 46.0087H54.3576C54.3576 43.3856 52.8584 41.1153 50.6771 40.0031L49.3144 42.6757ZM48.4852 41.3194C48.4918 41.3615 48.4965 41.4031 48.4994 41.4441L51.4921 41.2347C51.4832 41.1073 51.4687 40.9795 51.4485 40.8518L48.4852 41.3194ZM47.2575 33.5394L48.4852 41.3194L51.4485 40.8518L50.2208 33.0718L47.2575 33.5394ZM46.3377 32.4291C46.8116 32.5993 47.1745 33.0136 47.2575 33.5394L50.2208 33.0718C49.9603 31.4206 48.8152 30.1312 47.3516 29.6056L46.3377 32.4291ZM42.6054 13.776L45.363 31.2512L48.3263 30.7836L45.5687 13.3084L42.6054 13.776ZM44.937 12.0422H44.0871V15.0422H44.937V12.0422ZM45.152 11.8271C45.152 11.9459 45.0558 12.0422 44.937 12.0422V15.0422C46.7126 15.0422 48.152 13.6028 48.152 11.8271H45.152ZM44.937 11.6121C45.0558 11.6121 45.152 11.7083 45.152 11.8271H48.152C48.152 10.0515 46.7126 8.61206 44.937 8.61206V11.6121ZM38.9926 11.6121L44.937 11.6121L44.937 8.61206L38.9926 8.61206L38.9926 11.6121ZM39.7064 12.8121H41.0735V9.81206H39.7064V12.8121ZM40.085 10.1838C39.5235 10.6758 39.141 11.3569 39.0245 12.1142L41.9897 12.5701C41.997 12.5223 42.0224 12.475 42.062 12.4403L40.085 10.1838ZM40.5071 10.8422H39.7064V13.8422H40.5071V10.8422ZM38.2645 11.827C38.2645 11.8903 38.2574 11.95 38.2445 12.0062L41.1682 12.6782C41.2314 12.4031 41.2645 12.118 41.2645 11.827H38.2645ZM38.2445 11.6478C38.2574 11.704 38.2645 11.7637 38.2645 11.827H41.2645C41.2645 11.5361 41.2315 11.2512 41.1684 10.9763L38.2445 11.6478ZM44.0041 42.6455C43.7022 42.97 43.4431 43.3357 43.2362 43.7338L45.8982 45.1172C45.9791 44.9614 46.081 44.8174 46.2004 44.6891L44.0041 42.6455ZM47.3105 42.9342C46.8647 43.0046 46.4353 42.8596 46.1256 42.5706L44.0789 44.7641C45.0346 45.6558 46.3818 46.1179 47.7781 45.8976L47.3105 42.9342ZM48.2691 42.317C48.0564 42.639 47.7184 42.8699 47.3105 42.9342L47.7781 45.8976C49.0528 45.6964 50.1148 44.966 50.7723 43.9704L48.2691 42.317ZM52.5576 46.0087C52.5576 44.2897 51.678 42.7767 50.3512 41.8946L48.6902 44.3928C49.2162 44.7425 49.5576 45.3361 49.5576 46.0087H52.5576ZM47.6197 50.9466C50.3468 50.9466 52.5576 48.7358 52.5576 46.0087H49.5576C49.5576 47.0789 48.69 47.9466 47.6197 47.9466V50.9466ZM44.8673 50.1088C45.6544 50.6378 46.6033 50.9466 47.6197 50.9466V47.9466C47.2178 47.9466 46.8487 47.8259 46.541 47.619L44.8673 50.1088ZM45.1373 47.3155C45.1272 47.4157 45.0691 47.5014 44.9822 47.5491L46.4261 50.1787C47.3477 49.6727 48.0092 48.7339 48.1221 47.6171L45.1373 47.3155ZM45.2444 46.2556L45.1373 47.3155L48.1221 47.6171L48.2292 46.5572L45.2444 46.2556ZM44.9459 45.9255C45.1235 45.9255 45.2622 46.0789 45.2444 46.2556L48.2292 46.5572C48.4255 44.6134 46.8996 42.9255 44.9459 42.9255V45.9255ZM44.5672 45.9255H44.9459V42.9255H44.5672V45.9255ZM46.9752 41.3913C47.0008 41.3716 47.0316 41.3585 47.0611 41.3538L47.5287 44.3171C48.0061 44.2418 48.4403 44.0486 48.802 43.771L46.9752 41.3913ZM47.6197 44.0708C47.6715 44.0708 47.7225 44.0728 47.7729 44.0766L48.0042 41.0856C47.8771 41.0758 47.7489 41.0708 47.6197 41.0708V44.0708ZM47.0201 44.1649C47.207 44.1042 47.408 44.0708 47.6197 44.0708V41.0708C47.0895 41.0708 46.5759 41.1549 46.0934 41.3116L47.0201 44.1649ZM47.0611 41.3538C47.0962 41.3483 47.1349 41.3537 47.1681 41.3685L45.9454 44.108C46.4261 44.3225 46.9734 44.4048 47.5287 44.3171L47.0611 41.3538ZM48.4986 39.3277C48.2102 39.2901 47.9169 39.2708 47.6197 39.2708V42.2708C47.7866 42.2708 47.9503 42.2816 48.1102 42.3025L48.4986 39.3277ZM45.7244 34.0885L46.8227 41.0489L49.786 40.5813L48.6877 33.6209L45.7244 34.0885ZM46.0138 36.7555C47.4237 36.533 48.4706 35.4272 48.6867 34.0948L45.7254 33.6145C45.7106 33.7054 45.6381 33.7776 45.5462 33.7921L46.0138 36.7555ZM44.0789 36.4575C44.6571 36.7459 45.3294 36.8635 46.0138 36.7555L45.5462 33.7921C45.4984 33.7997 45.4561 33.7919 45.4179 33.7729L44.0789 36.4575ZM47.1799 40.9006L46.2301 34.8814L43.2668 35.349L44.2166 41.3682L47.1799 40.9006ZM47.6197 39.2708C46.7499 39.2708 45.9151 39.4363 45.1477 39.7391L46.2487 42.5297C46.6712 42.3631 47.1329 42.2708 47.6197 42.2708V39.2708ZM44.5142 48.9854H44.8388V45.9854H44.5142V48.9854ZM42.6818 46.0327C42.6854 46.7805 42.8562 47.4927 43.16 48.1305L45.8684 46.8403C45.7505 46.5927 45.6832 46.3153 45.6818 46.0183L42.6818 46.0327ZM44.9459 44.5255H44.1818V47.5255H44.9459V44.5255ZM46.6373 46.3964C46.7384 45.395 45.9523 44.5255 44.9459 44.5255V47.5255C44.1762 47.5255 43.5751 46.8606 43.6525 46.0948L46.6373 46.3964ZM46.5302 47.4562L46.6373 46.3964L43.6525 46.0948L43.5454 47.1547L46.5302 47.4562ZM44.8388 48.9854C45.7115 48.9854 46.4425 48.3245 46.5302 47.4562L43.5454 47.1547C43.6125 46.4907 44.1714 45.9854 44.8388 45.9854V48.9854ZM42.3818 44.5255H19.7114V47.5255H42.3818V44.5255ZM44.0322 47.0632C43.9357 46.7342 43.8829 46.3848 43.8818 46.0208L40.8818 46.0302C40.8839 46.6798 40.9782 47.3101 41.1534 47.9075L44.0322 47.0632ZM15.9967 48.9854H42.5928V45.9854H15.9967V48.9854ZM14.7078 46.0087C14.7078 46.3771 14.6549 46.7306 14.5573 47.0632L17.4361 47.9075C17.6132 47.3035 17.7078 46.6658 17.7078 46.0087H14.7078ZM11.1337 42.2743C13.1215 42.3594 14.7078 43.9992 14.7078 46.0087H17.7078C17.7078 42.3853 14.8484 39.4306 11.2621 39.277L11.1337 42.2743ZM9.69363 40.7356C9.69363 40.8619 9.70766 40.9859 9.73459 41.1054L12.6612 40.4459C12.6829 40.5423 12.6936 40.6395 12.6936 40.7356H9.69363ZM9.69363 38.942V40.7356H12.6936V38.942H9.69363ZM10.1982 37.7369C9.88282 38.0445 9.69363 38.4761 9.69363 38.942H12.6936C12.6936 39.2929 12.5505 39.6333 12.2928 39.8846L10.1982 37.7369ZM11.4495 37.284C10.9751 37.2457 10.526 37.4173 10.1982 37.7369L12.2928 39.8846C12.1826 39.9921 12.0207 40.1125 11.8021 40.1927C11.581 40.2738 11.3733 40.2876 11.208 40.2742L11.4495 37.284ZM16.7014 39.2062C15.2761 38.0642 13.4282 37.4437 11.4495 37.284L11.2081 40.2742C12.7388 40.3978 13.9728 40.8641 14.8256 41.5474L16.7014 39.2062ZM19.3517 44.1473C19.1091 42.0124 18.1391 40.3582 16.7014 39.2062L14.8256 41.5474C15.6376 42.198 16.2167 43.129 16.3709 44.4861L19.3517 44.1473ZM19.7114 44.5255C19.6251 44.5255 19.5565 44.4967 19.4919 44.4335C19.4163 44.3596 19.3636 44.2516 19.3517 44.1473L16.3709 44.4861C16.5446 46.0141 17.814 47.5255 19.7114 47.5255V44.5255ZM44.937 10.8422H43.8977V13.8422H44.937V10.8422ZM43.952 11.8271C43.952 11.2832 44.393 10.8422 44.937 10.8422V13.8422C46.0499 13.8422 46.952 12.94 46.952 11.8271H43.952ZM44.937 12.8121C44.393 12.8121 43.952 12.3711 43.952 11.8271H46.952C46.952 10.7142 46.0499 9.81206 44.937 9.81206V12.8121ZM43.3315 12.8121H44.937V9.81206H43.3315V12.8121ZM45.3784 12.1022C45.2563 11.3287 44.8655 10.6603 44.3182 10.1823L42.3448 12.4419C42.382 12.4743 42.4067 12.5167 42.4151 12.5698L45.3784 12.1022ZM45.3794 12.1087L45.3785 12.1025L42.415 12.5694L42.416 12.5756L45.3794 12.1087ZM41.8885 10.6129C41.2687 10.7107 40.7592 11.0832 40.4661 11.5811L43.0512 13.1033C42.9089 13.345 42.6594 13.5283 42.3562 13.5762L41.8885 10.6129ZM43.9397 11.5816C43.5336 10.8914 42.7328 10.4796 41.8885 10.6129L42.3562 13.5762C41.9423 13.6415 41.5516 13.4389 41.3539 13.1027L43.9397 11.5816ZM41.7586 13.8422H42.6468V10.8422H41.7586V13.8422ZM42.8722 12.0422H41.8294V15.0422H42.8722V12.0422ZM47.0864 30.625L44.3539 13.3084L41.3906 13.776L44.1231 31.0926L47.0864 30.625ZM45.6427 32.3647C45.6751 32.3596 45.7073 32.3556 45.7391 32.3527L45.4704 29.3648C45.3721 29.3736 45.2736 29.3858 45.175 29.4014L45.6427 32.3647ZM45.2522 32.4854C45.3711 32.4285 45.5016 32.3869 45.6427 32.3647L45.175 29.4014C44.7444 29.4693 44.3357 29.5983 43.9579 29.779L45.2522 32.4854ZM40.3477 13.776L43.1234 31.366L46.0867 30.8984L43.311 13.3084L40.3477 13.776ZM46.0038 33.8837C45.9763 33.9147 45.9355 33.9383 45.892 33.9451L45.4244 30.9818C44.7563 31.0872 44.1773 31.4223 43.7604 31.8919L46.0038 33.8837ZM46.4856 33.4262L46.3637 32.654L43.4004 33.1216L43.5222 33.8938L46.4856 33.4262ZM45.3592 32.6068C45.8965 32.522 46.4008 32.8889 46.4856 33.4262L43.5222 33.8938C43.6957 34.9931 44.7275 35.7436 45.8268 35.5701L45.3592 32.6068ZM44.5398 33.7332C44.455 33.1959 44.8219 32.6916 45.3592 32.6068L45.8268 35.5701C46.926 35.3967 47.6766 34.3649 47.5031 33.2656L44.5398 33.7332ZM44.3738 32.6811L44.5398 33.7332L47.5031 33.2656L47.3371 32.2135L44.3738 32.6811ZM45.892 33.9451C45.884 33.9464 45.8752 33.9472 45.8657 33.9472L45.8452 30.9473C45.7055 30.9483 45.5649 30.9596 45.4244 30.9818L45.892 33.9451ZM10.9698 44.0708C11.0323 44.0708 11.0937 44.0737 11.154 44.0793L11.4327 41.0923C11.28 41.078 11.1256 41.0708 10.9698 41.0708V44.0708ZM9.03193 46.0087C9.03193 44.9384 9.89957 44.0708 10.9698 44.0708V41.0708C8.24271 41.0708 6.03193 43.2815 6.03193 46.0087H9.03193ZM10.9698 47.9466C9.89957 47.9466 9.03193 47.0789 9.03193 46.0087H6.03193C6.03193 48.7358 8.24271 50.9466 10.9698 50.9466V47.9466ZM12.4476 47.2624C12.0899 47.6834 11.5614 47.9466 10.9698 47.9466V50.9466C12.4785 50.9466 13.8302 50.2682 14.7336 49.2052L12.4476 47.2624ZM11.8042 47.3813C11.8301 47.9824 12.0163 48.5506 12.3227 49.0353L14.8586 47.4323C14.8237 47.3772 14.8041 47.315 14.8014 47.2522L11.8042 47.3813ZM11.1182 44.2684C11.2969 44.4977 11.7118 45.2368 11.8042 47.3813L14.8014 47.2522C14.6972 44.8317 14.2159 43.363 13.4845 42.4244L11.1182 44.2684ZM10.6742 43.952C10.9195 44.0632 11.019 44.1412 11.1182 44.2684L13.4845 42.4244C12.994 41.7949 12.4383 41.4578 11.9125 41.2195L10.6742 43.952Z" fill="#F8F9FA" mask="url(#path-1-outside-1_50_4693)"/>
<rect x="40.9272" y="11.7241" width="2.23012" height="23.4661" rx="1.11506" transform="rotate(-8.96724 40.9272 11.7241)" fill="#FF6B6B" stroke="#212529" stroke-width="1.2" stroke-linejoin="round"/>
<rect x="43.4473" y="32.0508" width="4.22405" height="12.1003" rx="2.11203" transform="rotate(-8.96724 43.4473 32.0508)" fill="#ADB5BD" stroke="#212529" stroke-width="1.6" stroke-linejoin="round"/>
<g style="mix-blend-mode:multiply">
<path d="M48.6874 40.3204C47.8541 39.8057 45.8074 40.3102 44.8882 40.6268L45.2559 42.4039L48.6874 41.7911V40.3204Z" fill="#DEE2E6"/>
</g>
<rect x="46.052" y="10.7603" width="2.23012" height="9.40569" rx="1.11506" transform="rotate(90 46.052 10.7603)" fill="#FF6B6B" stroke="#212529" stroke-width="1.2" stroke-linejoin="round"/>
<path d="M19.7113 45.2738H44.9458C45.5378 45.2738 46.0002 45.7852 45.9407 46.3743L45.8337 47.4341C45.7821 47.9449 45.3521 48.3336 44.8387 48.3336H15.1226C14.5703 48.3336 14.1258 47.8823 14.102 47.3306C13.899 42.6186 12.239 42.1366 10.9422 41.6274C10.5982 41.4924 10.3936 41.1535 10.3936 40.7839V38.9902C10.3936 38.4379 10.8426 37.9855 11.3931 38.03C15.1412 38.3325 18.2121 40.3679 18.6562 44.2746C18.7185 44.8233 19.159 45.2738 19.7113 45.2738Z" fill="#ADB5BD" stroke="#212529" stroke-width="1.6" stroke-linecap="round" stroke-linejoin="round"/>
<g style="mix-blend-mode:multiply">
<path d="M15.6037 42.1134C14.3597 40.546 11.9961 39.9882 10.9698 39.9053L13.0224 47.4936H16.6611C16.9099 46.4362 17.1587 44.0727 15.6037 42.1134Z" fill="#DEE2E6"/>
</g>
<circle cx="10.9697" cy="46.0572" r="4.33791" fill="#868E96" stroke="#212529" stroke-width="1.8" stroke-linejoin="round"/>
<circle cx="10.9698" cy="46.0571" r="1.43647" fill="#F8F9FA"/>
<circle cx="47.6197" cy="46.0572" r="4.33791" fill="#868E96" stroke="#212529" stroke-width="1.8" stroke-linejoin="round"/>
<circle cx="47.6197" cy="46.0571" r="1.43647" fill="#F8F9FA"/>
<circle cx="37.4735" cy="11.8754" r="1.69083" fill="#FF6B6B" stroke="#212529" stroke-width="1.2" stroke-linejoin="round"/>
</svg>
