<svg width="60" height="61" viewBox="0 0 60 61" fill="none" xmlns="http://www.w3.org/2000/svg">
<mask id="path-1-outside-1_50_2028" maskUnits="userSpaceOnUse" x="9.37939" y="13.0815" width="43" height="39" fill="black">
<rect fill="white" x="9.37939" y="13.0815" width="43" height="39"/>
<path fill-rule="evenodd" clip-rule="evenodd" d="M11.3794 18.0815C11.3794 16.4247 12.7225 15.0815 14.3794 15.0815H47.1568C48.8136 15.0815 50.1568 16.4247 50.1568 18.0815V25.6134C50.1568 27.2703 48.8136 28.6134 47.1568 28.6134H31.7681V31.453H47.1568C48.8136 31.453 50.1568 32.8175 50.1568 34.5007V42.1523C50.1568 43.8355 48.8136 45.2 47.1568 45.2H31.7681V49.5705C31.7681 50.1228 31.3204 50.5705 30.7681 50.5705C30.2158 50.5705 29.7681 50.1228 29.7681 49.5705V45.2H14.3794C12.7225 45.2 11.3794 43.8355 11.3794 42.1523V34.5007C11.3794 32.8175 12.7225 31.453 14.3794 31.453H29.7681V28.6134H14.3794C12.7225 28.6134 11.3794 27.2703 11.3794 25.6134V18.0815ZM29.7681 33.4848H14.3794C13.8271 33.4848 13.3794 33.9396 13.3794 34.5007V42.1523C13.3794 42.7134 13.8271 43.1682 14.3794 43.1682H29.7681V33.4848ZM31.7681 43.1682H47.1568C47.7091 43.1682 48.1568 42.7134 48.1568 42.1523V34.5007C48.1568 33.9396 47.7091 33.4848 47.1568 33.4848H31.7681V43.1682ZM47.1568 26.6134H31.4973C31.3149 26.4191 31.0557 26.2977 30.7681 26.2977C30.4805 26.2977 30.2212 26.4191 30.0388 26.6134H14.3794C13.8271 26.6134 13.3794 26.1657 13.3794 25.6134V18.0815C13.3794 17.5293 13.8271 17.0815 14.3794 17.0815H47.1568C47.7091 17.0815 48.1568 17.5293 48.1568 18.0815V25.6134C48.1568 26.1657 47.7091 26.6134 47.1568 26.6134Z"/>
</mask>
<path fill-rule="evenodd" clip-rule="evenodd" d="M11.3794 18.0815C11.3794 16.4247 12.7225 15.0815 14.3794 15.0815H47.1568C48.8136 15.0815 50.1568 16.4247 50.1568 18.0815V25.6134C50.1568 27.2703 48.8136 28.6134 47.1568 28.6134H31.7681V31.453H47.1568C48.8136 31.453 50.1568 32.8175 50.1568 34.5007V42.1523C50.1568 43.8355 48.8136 45.2 47.1568 45.2H31.7681V49.5705C31.7681 50.1228 31.3204 50.5705 30.7681 50.5705C30.2158 50.5705 29.7681 50.1228 29.7681 49.5705V45.2H14.3794C12.7225 45.2 11.3794 43.8355 11.3794 42.1523V34.5007C11.3794 32.8175 12.7225 31.453 14.3794 31.453H29.7681V28.6134H14.3794C12.7225 28.6134 11.3794 27.2703 11.3794 25.6134V18.0815ZM29.7681 33.4848H14.3794C13.8271 33.4848 13.3794 33.9396 13.3794 34.5007V42.1523C13.3794 42.7134 13.8271 43.1682 14.3794 43.1682H29.7681V33.4848ZM31.7681 43.1682H47.1568C47.7091 43.1682 48.1568 42.7134 48.1568 42.1523V34.5007C48.1568 33.9396 47.7091 33.4848 47.1568 33.4848H31.7681V43.1682ZM47.1568 26.6134H31.4973C31.3149 26.4191 31.0557 26.2977 30.7681 26.2977C30.4805 26.2977 30.2212 26.4191 30.0388 26.6134H14.3794C13.8271 26.6134 13.3794 26.1657 13.3794 25.6134V18.0815C13.3794 17.5293 13.8271 17.0815 14.3794 17.0815H47.1568C47.7091 17.0815 48.1568 17.5293 48.1568 18.0815V25.6134C48.1568 26.1657 47.7091 26.6134 47.1568 26.6134Z" fill="#F8F9FA"/>
<path d="M31.7681 28.6134V27.1134C30.9396 27.1134 30.2681 27.785 30.2681 28.6134H31.7681ZM31.7681 31.453H30.2681C30.2681 32.2814 30.9396 32.953 31.7681 32.953V31.453ZM31.7681 45.2V43.7C30.9396 43.7 30.2681 44.3716 30.2681 45.2H31.7681ZM29.7681 45.2H31.2681C31.2681 44.3716 30.5965 43.7 29.7681 43.7V45.2ZM29.7681 31.453V32.953C30.5965 32.953 31.2681 32.2814 31.2681 31.453H29.7681ZM29.7681 28.6134H31.2681C31.2681 27.785 30.5965 27.1134 29.7681 27.1134V28.6134ZM29.7681 33.4848H31.2681C31.2681 32.6564 30.5965 31.9848 29.7681 31.9848V33.4848ZM29.7681 43.1682V44.6682C30.5965 44.6682 31.2681 43.9967 31.2681 43.1682H29.7681ZM31.7681 43.1682H30.2681C30.2681 43.9967 30.9396 44.6682 31.7681 44.6682V43.1682ZM31.7681 33.4848V31.9848C30.9396 31.9848 30.2681 32.6564 30.2681 33.4848H31.7681ZM31.4973 26.6134L30.4036 27.64C30.6872 27.9421 31.083 28.1134 31.4973 28.1134V26.6134ZM30.0388 26.6134V28.1134C30.4531 28.1134 30.849 27.9421 31.1325 27.64L30.0388 26.6134ZM14.3794 13.5815C11.8941 13.5815 9.87939 15.5963 9.87939 18.0815H12.8794C12.8794 17.2531 13.551 16.5815 14.3794 16.5815V13.5815ZM47.1568 13.5815H14.3794V16.5815H47.1568V13.5815ZM51.6568 18.0815C51.6568 15.5963 49.642 13.5815 47.1568 13.5815V16.5815C47.9852 16.5815 48.6568 17.2531 48.6568 18.0815H51.6568ZM51.6568 25.6134V18.0815H48.6568V25.6134H51.6568ZM47.1568 30.1134C49.6421 30.1134 51.6568 28.0987 51.6568 25.6134H48.6568C48.6568 26.4419 47.9852 27.1134 47.1568 27.1134V30.1134ZM31.7681 30.1134H47.1568V27.1134H31.7681V30.1134ZM33.2681 31.453V28.6134H30.2681V31.453H33.2681ZM31.7681 32.953H47.1568V29.953H31.7681V32.953ZM47.1568 32.953C47.963 32.953 48.6568 33.6235 48.6568 34.5007H51.6568C51.6568 32.0115 49.6643 29.953 47.1568 29.953V32.953ZM48.6568 34.5007V42.1523H51.6568V34.5007H48.6568ZM48.6568 42.1523C48.6568 43.0295 47.963 43.7 47.1568 43.7V46.7C49.6643 46.7 51.6568 44.6416 51.6568 42.1523H48.6568ZM47.1568 43.7H31.7681V46.7H47.1568V43.7ZM33.2681 49.5705V45.2H30.2681V49.5705H33.2681ZM30.7681 52.0705C32.1488 52.0705 33.2681 50.9512 33.2681 49.5705H30.2681C30.2681 49.2944 30.4919 49.0705 30.7681 49.0705V52.0705ZM28.2681 49.5705C28.2681 50.9512 29.3874 52.0705 30.7681 52.0705V49.0705C31.0442 49.0705 31.2681 49.2944 31.2681 49.5705H28.2681ZM28.2681 45.2V49.5705H31.2681V45.2H28.2681ZM29.7681 43.7H14.3794V46.7H29.7681V43.7ZM14.3794 43.7C13.5732 43.7 12.8794 43.0295 12.8794 42.1523H9.87939C9.87939 44.6416 11.8719 46.7 14.3794 46.7V43.7ZM12.8794 42.1523V34.5007H9.87939V42.1523H12.8794ZM12.8794 34.5007C12.8794 33.6235 13.5732 32.953 14.3794 32.953V29.953C11.8719 29.953 9.87939 32.0115 9.87939 34.5007H12.8794ZM14.3794 32.953H29.7681V29.953H14.3794V32.953ZM28.2681 28.6134V31.453H31.2681V28.6134H28.2681ZM14.3794 30.1134H29.7681V27.1134H14.3794V30.1134ZM9.87939 25.6134C9.87939 28.0987 11.8941 30.1134 14.3794 30.1134V27.1134C13.551 27.1134 12.8794 26.4419 12.8794 25.6134H9.87939ZM9.87939 18.0815V25.6134H12.8794V18.0815H9.87939ZM29.7681 31.9848H14.3794V34.9848H29.7681V31.9848ZM14.3794 31.9848C12.9765 31.9848 11.8794 33.1336 11.8794 34.5007H14.8794C14.8794 34.7457 14.6778 34.9848 14.3794 34.9848V31.9848ZM11.8794 34.5007V42.1523H14.8794V34.5007H11.8794ZM11.8794 42.1523C11.8794 43.5194 12.9765 44.6682 14.3794 44.6682V41.6682C14.6778 41.6682 14.8794 41.9074 14.8794 42.1523H11.8794ZM14.3794 44.6682H29.7681V41.6682H14.3794V44.6682ZM28.2681 33.4848V43.1682H31.2681V33.4848H28.2681ZM31.7681 44.6682H47.1568V41.6682H31.7681V44.6682ZM47.1568 44.6682C48.5597 44.6682 49.6568 43.5194 49.6568 42.1523H46.6568C46.6568 41.9074 46.8584 41.6682 47.1568 41.6682V44.6682ZM49.6568 42.1523V34.5007H46.6568V42.1523H49.6568ZM49.6568 34.5007C49.6568 33.1336 48.5597 31.9848 47.1568 31.9848V34.9848C46.8584 34.9848 46.6568 34.7457 46.6568 34.5007H49.6568ZM47.1568 31.9848H31.7681V34.9848H47.1568V31.9848ZM33.2681 43.1682V33.4848H30.2681V43.1682H33.2681ZM31.4973 28.1134H47.1568V25.1134H31.4973V28.1134ZM30.7681 27.7977C30.6244 27.7977 30.4929 27.7351 30.4036 27.64L32.591 25.5869C32.1369 25.1031 31.487 24.7977 30.7681 24.7977V27.7977ZM31.1325 27.64C31.0432 27.7351 30.9118 27.7977 30.7681 27.7977V24.7977C30.0492 24.7977 29.3992 25.1031 28.9451 25.5869L31.1325 27.64ZM14.3794 28.1134H30.0388V25.1134H14.3794V28.1134ZM11.8794 25.6134C11.8794 26.9941 12.9987 28.1134 14.3794 28.1134V25.1134C14.6555 25.1134 14.8794 25.3373 14.8794 25.6134H11.8794ZM11.8794 18.0815V25.6134H14.8794V18.0815H11.8794ZM14.3794 15.5815C12.9987 15.5815 11.8794 16.7008 11.8794 18.0815H14.8794C14.8794 18.3577 14.6555 18.5815 14.3794 18.5815V15.5815ZM47.1568 15.5815H14.3794V18.5815H47.1568V15.5815ZM49.6568 18.0815C49.6568 16.7008 48.5375 15.5815 47.1568 15.5815V18.5815C46.8806 18.5815 46.6568 18.3577 46.6568 18.0815H49.6568ZM49.6568 25.6134V18.0815H46.6568V25.6134H49.6568ZM47.1568 28.1134C48.5375 28.1134 49.6568 26.9941 49.6568 25.6134H46.6568C46.6568 25.3373 46.8806 25.1134 47.1568 25.1134V28.1134Z" fill="#F8F9FA" mask="url(#path-1-outside-1_50_2028)"/>
<path d="M30.7681 27.157V49.4298" stroke="#212529" stroke-width="2" stroke-linecap="round" stroke-linejoin="round"/>
<rect x="12.3794" y="15.9409" width="36.7774" height="11.5319" rx="2" fill="#4DABF7" stroke="#212529" stroke-width="1.8" stroke-linejoin="round"/>
<path fill-rule="evenodd" clip-rule="evenodd" d="M30.7681 21.7069H17.4819Z" fill="white"/>
<path d="M30.7681 21.7069H17.4819" stroke="#212529" stroke-width="1.4" stroke-linecap="round" stroke-linejoin="round"/>
<circle cx="36.2638" cy="21.7069" r="1.73916" fill="#FFE066" stroke="#212529" stroke-linejoin="round"/>
<circle cx="42.3903" cy="21.7069" r="1.73916" fill="#FFE066" stroke="#212529" stroke-linejoin="round"/>
<rect x="12.3794" y="32.5276" width="36.7774" height="11.5319" rx="2" fill="#4DABF7" stroke="#212529" stroke-width="1.8" stroke-linejoin="round"/>
<g style="mix-blend-mode:multiply">
<path fill-rule="evenodd" clip-rule="evenodd" d="M12.5356 42.344C12.8388 43.063 13.5501 43.5677 14.3794 43.5677H47.1568C48.2613 43.5677 49.1568 42.6722 49.1568 41.5677V34.0358C49.1568 33.0348 48.4214 32.2055 47.4614 32.0588V41.344C47.4614 41.8963 47.0137 42.344 46.4614 42.344H12.5356Z" fill="#DEE2E6"/>
</g>
<g style="mix-blend-mode:multiply">
<path fill-rule="evenodd" clip-rule="evenodd" d="M12.5356 25.9334C12.8388 26.6524 13.5501 27.157 14.3794 27.157H47.1568C48.2613 27.157 49.1568 26.2616 49.1568 25.157V17.6251C49.1568 16.6241 48.4214 15.7949 47.4614 15.6482V24.9334C47.4614 25.4857 47.0137 25.9334 46.4614 25.9334H12.5356Z" fill="#DEE2E6"/>
</g>
<path fill-rule="evenodd" clip-rule="evenodd" d="M30.7681 38.2935H17.4819Z" fill="white"/>
<path d="M30.7681 38.2935H17.4819" stroke="#212529" stroke-width="1.4" stroke-linecap="round" stroke-linejoin="round"/>
<circle cx="36.2638" cy="38.2936" r="1.73916" fill="#FFE066" stroke="#212529" stroke-linejoin="round"/>
<circle cx="42.3903" cy="38.2936" r="1.73916" fill="#FFE066" stroke="#212529" stroke-linejoin="round"/>
</svg>
