<svg width="60" height="60" viewBox="0 0 60 60" fill="none" xmlns="http://www.w3.org/2000/svg">
<g filter="url(#filter0_d_694_6609)">
<mask id="path-1-outside-1_694_6609" maskUnits="userSpaceOnUse" x="6.82397" y="7.85449" width="46" height="47" fill="black">
<rect fill="white" x="6.82397" y="7.85449" width="46" height="47"/>
<path fill-rule="evenodd" clip-rule="evenodd" d="M27.7934 9.85449C24.797 9.85449 21.717 10.8181 19.325 12.9564C17.05 14.99 15.4692 18.0223 15.1318 22.1048C15.0177 22.1427 14.8928 22.1862 14.759 22.2358C14.1212 22.4721 13.2635 22.853 12.3985 23.4313C10.6615 24.5928 8.82397 26.6121 8.82397 29.8552C8.82397 31.1873 9.05971 33.1372 10.2579 34.7743C11.4987 36.4697 13.6369 37.6506 17.0558 37.6506H41.4548C43.3554 37.6506 45.7618 37.0826 47.7181 35.5883C49.7158 34.0624 51.176 31.6181 51.176 28.0524C51.176 24.4306 49.4584 21.8689 47.1175 20.249C45.0243 18.8004 42.4447 18.1059 40.1335 17.9915C39.0742 15.4673 37.5281 13.4766 35.5325 12.093C33.3733 10.5959 30.7529 9.85449 27.7934 9.85449ZM16.2965 23.8467L16.3018 23.8454C16.7427 23.7474 17.0632 23.366 17.0837 22.9148C17.2653 18.9357 18.7008 16.197 20.6579 14.4475C22.6295 12.685 25.2116 11.8545 27.7934 11.8545C30.4122 11.8545 32.6193 12.5068 34.3929 13.7366C36.1665 14.9663 37.5715 16.8184 38.5115 19.3255C38.6579 19.7158 39.031 19.9744 39.4479 19.9744C41.6035 19.9744 44.076 20.5764 45.9794 21.8936C47.845 23.1845 49.176 25.1617 49.176 28.0524C49.176 30.9989 48.0032 32.8538 46.5041 33.9989C44.9636 35.1756 43.0094 35.6506 41.4548 35.6506H17.0558C14.1412 35.6506 12.6635 34.6749 11.8718 33.5931C11.0374 32.453 10.824 31.0052 10.824 29.8552C10.824 27.4994 12.1168 26.0256 13.5102 25.0939C14.2105 24.6256 14.918 24.3098 15.454 24.1111C15.7205 24.0124 15.9404 23.9441 16.0902 23.9014C16.165 23.88 16.222 23.8651 16.2582 23.856C16.2763 23.8515 16.2892 23.8484 16.2965 23.8467ZM24.4298 44.0042C24.5476 44.06 24.6375 44.1375 24.6995 44.2367C24.7615 44.3359 24.7925 44.4444 24.7925 44.5622C24.7925 44.6862 24.7553 44.8102 24.6809 44.9341C24.6189 45.0457 24.5352 45.1325 24.4298 45.1945C24.3306 45.2565 24.2221 45.2875 24.1043 45.2875C23.9679 45.2875 23.8409 45.2472 23.7231 45.1666L22.3653 44.3018L22.3932 45.7339C22.3994 45.9385 22.3374 46.109 22.2072 46.2454C22.077 46.3756 21.9128 46.4407 21.7144 46.4407C21.516 46.4407 21.3517 46.3725 21.2215 46.2361C21.0975 46.0997 21.0386 45.9292 21.0448 45.7246L21.1192 44.3669L19.7987 45.1759C19.6809 45.2503 19.5569 45.2875 19.4267 45.2875C19.3151 45.2875 19.2097 45.2596 19.1105 45.2038C19.0113 45.1418 18.9307 45.055 18.8687 44.9434C18.8067 44.8381 18.7757 44.7203 18.7757 44.5901C18.7757 44.4723 18.8067 44.3607 18.8687 44.2553C18.9369 44.1499 19.033 44.0662 19.157 44.0042L20.5519 43.2881L19.1663 42.5535C19.0485 42.4915 18.9586 42.4109 18.8966 42.3117C18.8346 42.2063 18.8036 42.0916 18.8036 41.9676C18.8036 41.8498 18.8346 41.732 18.8966 41.6142C18.9648 41.5026 19.0516 41.4158 19.157 41.3538C19.2624 41.2918 19.3709 41.2608 19.4825 41.2608C19.6127 41.2608 19.7398 41.298 19.8638 41.3724L21.1657 42.2094L21.1378 40.9074C21.1316 40.7029 21.1936 40.5355 21.3238 40.4053C21.4602 40.2689 21.6307 40.2007 21.8353 40.2007C22.0336 40.2007 22.1948 40.2689 22.3188 40.4053C22.4428 40.5417 22.5017 40.7091 22.4955 40.9074L22.4304 42.1815L23.7231 41.3724C23.8409 41.2918 23.9679 41.2515 24.1043 41.2515C24.2221 41.2515 24.3275 41.2825 24.4205 41.3445C24.5197 41.4003 24.6003 41.484 24.6623 41.5956C24.7305 41.7072 24.7646 41.8281 24.7646 41.9583C24.7646 42.0761 24.7305 42.1877 24.6623 42.2931C24.5941 42.3985 24.498 42.4822 24.374 42.5442L23.0256 43.2509L24.4298 44.0042ZM38.0675 44.0042C38.1853 44.06 38.2752 44.1375 38.3372 44.2367C38.3992 44.3359 38.4302 44.4444 38.4302 44.5622C38.4302 44.6862 38.393 44.8102 38.3186 44.9341C38.2566 45.0457 38.1729 45.1325 38.0675 45.1945C37.9683 45.2565 37.8598 45.2875 37.742 45.2875C37.6056 45.2875 37.4785 45.2472 37.3607 45.1666L36.003 44.3018L36.0309 45.7339C36.0371 45.9385 35.9751 46.109 35.8449 46.2454C35.7147 46.3756 35.5504 46.4407 35.352 46.4407C35.1536 46.4407 34.9893 46.3725 34.8592 46.2361C34.7352 46.0997 34.6763 45.9292 34.6825 45.7246L34.7569 44.3669L33.4363 45.1759C33.3185 45.2503 33.1945 45.2875 33.0643 45.2875C32.9527 45.2875 32.8474 45.2596 32.7482 45.2038C32.649 45.1418 32.5684 45.055 32.5064 44.9434C32.4444 44.8381 32.4134 44.7203 32.4134 44.5901C32.4134 44.4723 32.4444 44.3607 32.5064 44.2553C32.5746 44.1499 32.6707 44.0662 32.7947 44.0042L34.1896 43.2881L32.804 42.5535C32.6862 42.4915 32.5963 42.4109 32.5343 42.3117C32.4723 42.2063 32.4413 42.0916 32.4413 41.9676C32.4413 41.8498 32.4723 41.732 32.5343 41.6142C32.6025 41.5026 32.6893 41.4158 32.7947 41.3538C32.9001 41.2918 33.0085 41.2608 33.1201 41.2608C33.2503 41.2608 33.3774 41.298 33.5014 41.3724L34.8034 42.2094L34.7755 40.9074C34.7693 40.7029 34.8313 40.5355 34.9614 40.4053C35.0978 40.2689 35.2683 40.2007 35.4729 40.2007C35.6713 40.2007 35.8325 40.2689 35.9565 40.4053C36.0805 40.5417 36.1394 40.7091 36.1332 40.9074L36.0681 42.1815L37.3607 41.3724C37.4785 41.2918 37.6056 41.2515 37.742 41.2515C37.8598 41.2515 37.9652 41.2825 38.0582 41.3445C38.1574 41.4003 38.238 41.484 38.3 41.5956C38.3682 41.7072 38.4023 41.8281 38.4023 41.9583C38.4023 42.0761 38.3682 42.1877 38.3 42.2931C38.2318 42.3985 38.1357 42.4822 38.0117 42.5442L36.6633 43.2509L38.0675 44.0042ZM31.0297 50.4767C30.9677 50.3775 30.8778 50.3 30.76 50.2442L29.3558 49.4909L30.7042 48.7842C30.8282 48.7222 30.9243 48.6385 30.9925 48.5331C31.0607 48.4277 31.0948 48.3161 31.0948 48.1983C31.0948 48.0681 31.0607 47.9472 30.9925 47.8356C30.9305 47.724 30.8499 47.6403 30.7507 47.5845C30.6577 47.5225 30.5523 47.4915 30.4345 47.4915C30.2981 47.4915 30.171 47.5318 30.0532 47.6124L28.7606 48.4215L28.8257 47.1474C28.8319 46.949 28.773 46.7817 28.649 46.6453C28.525 46.5089 28.3638 46.4407 28.1654 46.4407C27.9608 46.4407 27.7903 46.5089 27.6539 46.6453C27.5237 46.7755 27.4617 46.9428 27.4679 47.1474L27.4958 48.4494L26.1939 47.6124C26.0699 47.538 25.9428 47.5008 25.8126 47.5008C25.701 47.5008 25.5925 47.5318 25.4871 47.5938C25.3818 47.6558 25.295 47.7426 25.2268 47.8542C25.1648 47.972 25.1338 48.0898 25.1338 48.2076C25.1338 48.3316 25.1648 48.4463 25.2268 48.5517C25.2888 48.6509 25.3787 48.7315 25.4964 48.7935L26.8821 49.5281L25.4871 50.2442C25.3632 50.3062 25.2671 50.3899 25.1989 50.4953C25.1369 50.6007 25.1059 50.7123 25.1059 50.8301C25.1059 50.9602 25.1369 51.078 25.1989 51.1834C25.2609 51.295 25.3415 51.3818 25.4406 51.4438C25.5398 51.4996 25.6452 51.5275 25.7568 51.5275C25.887 51.5275 26.011 51.4903 26.1288 51.4159L27.4493 50.6069L27.375 51.9646C27.3688 52.1692 27.4276 52.3397 27.5516 52.4761C27.6818 52.6125 27.8461 52.6807 28.0445 52.6807C28.2429 52.6807 28.4072 52.6156 28.5374 52.4854C28.6676 52.349 28.7296 52.1785 28.7234 51.9739L28.6955 50.5418L30.0532 51.4066C30.171 51.4872 30.2981 51.5275 30.4345 51.5275C30.5523 51.5275 30.6608 51.4965 30.76 51.4345C30.8654 51.3725 30.9491 51.2857 31.0111 51.1741C31.0855 51.0501 31.1227 50.9261 31.1227 50.8022C31.1227 50.6844 31.0917 50.5759 31.0297 50.4767ZM44.9957 50.2442C45.1135 50.3 45.2034 50.3775 45.2654 50.4767C45.3274 50.5759 45.3584 50.6844 45.3584 50.8022C45.3584 50.9261 45.3212 51.0501 45.2468 51.1741C45.1848 51.2857 45.1011 51.3725 44.9957 51.4345C44.8965 51.4965 44.788 51.5275 44.6702 51.5275C44.5339 51.5275 44.4068 51.4872 44.289 51.4066L42.9312 50.5418L42.9591 51.9739C42.9653 52.1785 42.9033 52.349 42.7731 52.4854C42.6429 52.6156 42.4787 52.6807 42.2803 52.6807C42.0819 52.6807 41.9176 52.6125 41.7874 52.4761C41.6634 52.3397 41.6045 52.1692 41.6107 51.9646L41.6851 50.6069L40.3646 51.4159C40.2468 51.4903 40.1228 51.5275 39.9926 51.5275C39.881 51.5275 39.7756 51.4996 39.6764 51.4438C39.5772 51.3818 39.4966 51.295 39.4346 51.1834C39.3726 51.078 39.3416 50.9602 39.3416 50.8301C39.3416 50.7123 39.3726 50.6007 39.4346 50.4953C39.5028 50.3899 39.5989 50.3062 39.7229 50.2442L41.1178 49.5281L39.7322 48.7935C39.6144 48.7315 39.5245 48.6509 39.4625 48.5517C39.4005 48.4463 39.3695 48.3316 39.3695 48.2076C39.3695 48.0898 39.4005 47.972 39.4625 47.8542C39.5307 47.7426 39.6175 47.6558 39.7229 47.5938C39.8283 47.5318 39.9368 47.5008 40.0484 47.5008C40.1786 47.5008 40.3057 47.538 40.4297 47.6124L41.7316 48.4494L41.7037 47.1474C41.6975 46.9428 41.7595 46.7755 41.8897 46.6453C42.0261 46.5089 42.1966 46.4407 42.4012 46.4407C42.5995 46.4407 42.7607 46.5089 42.8847 46.6453C43.0087 46.7817 43.0676 46.949 43.0614 47.1474L42.9963 48.4215L44.289 47.6124C44.4068 47.5318 44.5339 47.4915 44.6702 47.4915C44.788 47.4915 44.8934 47.5225 44.9864 47.5845C45.0856 47.6403 45.1662 47.724 45.2282 47.8356C45.2964 47.9472 45.3305 48.0681 45.3305 48.1983C45.3305 48.3161 45.2964 48.4277 45.2282 48.5331C45.16 48.6385 45.0639 48.7222 44.9399 48.7842L43.5915 49.4909L44.9957 50.2442Z"/>
</mask>
<path fill-rule="evenodd" clip-rule="evenodd" d="M27.7934 9.85449C24.797 9.85449 21.717 10.8181 19.325 12.9564C17.05 14.99 15.4692 18.0223 15.1318 22.1048C15.0177 22.1427 14.8928 22.1862 14.759 22.2358C14.1212 22.4721 13.2635 22.853 12.3985 23.4313C10.6615 24.5928 8.82397 26.6121 8.82397 29.8552C8.82397 31.1873 9.05971 33.1372 10.2579 34.7743C11.4987 36.4697 13.6369 37.6506 17.0558 37.6506H41.4548C43.3554 37.6506 45.7618 37.0826 47.7181 35.5883C49.7158 34.0624 51.176 31.6181 51.176 28.0524C51.176 24.4306 49.4584 21.8689 47.1175 20.249C45.0243 18.8004 42.4447 18.1059 40.1335 17.9915C39.0742 15.4673 37.5281 13.4766 35.5325 12.093C33.3733 10.5959 30.7529 9.85449 27.7934 9.85449ZM16.2965 23.8467L16.3018 23.8454C16.7427 23.7474 17.0632 23.366 17.0837 22.9148C17.2653 18.9357 18.7008 16.197 20.6579 14.4475C22.6295 12.685 25.2116 11.8545 27.7934 11.8545C30.4122 11.8545 32.6193 12.5068 34.3929 13.7366C36.1665 14.9663 37.5715 16.8184 38.5115 19.3255C38.6579 19.7158 39.031 19.9744 39.4479 19.9744C41.6035 19.9744 44.076 20.5764 45.9794 21.8936C47.845 23.1845 49.176 25.1617 49.176 28.0524C49.176 30.9989 48.0032 32.8538 46.5041 33.9989C44.9636 35.1756 43.0094 35.6506 41.4548 35.6506H17.0558C14.1412 35.6506 12.6635 34.6749 11.8718 33.5931C11.0374 32.453 10.824 31.0052 10.824 29.8552C10.824 27.4994 12.1168 26.0256 13.5102 25.0939C14.2105 24.6256 14.918 24.3098 15.454 24.1111C15.7205 24.0124 15.9404 23.9441 16.0902 23.9014C16.165 23.88 16.222 23.8651 16.2582 23.856C16.2763 23.8515 16.2892 23.8484 16.2965 23.8467ZM24.4298 44.0042C24.5476 44.06 24.6375 44.1375 24.6995 44.2367C24.7615 44.3359 24.7925 44.4444 24.7925 44.5622C24.7925 44.6862 24.7553 44.8102 24.6809 44.9341C24.6189 45.0457 24.5352 45.1325 24.4298 45.1945C24.3306 45.2565 24.2221 45.2875 24.1043 45.2875C23.9679 45.2875 23.8409 45.2472 23.7231 45.1666L22.3653 44.3018L22.3932 45.7339C22.3994 45.9385 22.3374 46.109 22.2072 46.2454C22.077 46.3756 21.9128 46.4407 21.7144 46.4407C21.516 46.4407 21.3517 46.3725 21.2215 46.2361C21.0975 46.0997 21.0386 45.9292 21.0448 45.7246L21.1192 44.3669L19.7987 45.1759C19.6809 45.2503 19.5569 45.2875 19.4267 45.2875C19.3151 45.2875 19.2097 45.2596 19.1105 45.2038C19.0113 45.1418 18.9307 45.055 18.8687 44.9434C18.8067 44.8381 18.7757 44.7203 18.7757 44.5901C18.7757 44.4723 18.8067 44.3607 18.8687 44.2553C18.9369 44.1499 19.033 44.0662 19.157 44.0042L20.5519 43.2881L19.1663 42.5535C19.0485 42.4915 18.9586 42.4109 18.8966 42.3117C18.8346 42.2063 18.8036 42.0916 18.8036 41.9676C18.8036 41.8498 18.8346 41.732 18.8966 41.6142C18.9648 41.5026 19.0516 41.4158 19.157 41.3538C19.2624 41.2918 19.3709 41.2608 19.4825 41.2608C19.6127 41.2608 19.7398 41.298 19.8638 41.3724L21.1657 42.2094L21.1378 40.9074C21.1316 40.7029 21.1936 40.5355 21.3238 40.4053C21.4602 40.2689 21.6307 40.2007 21.8353 40.2007C22.0336 40.2007 22.1948 40.2689 22.3188 40.4053C22.4428 40.5417 22.5017 40.7091 22.4955 40.9074L22.4304 42.1815L23.7231 41.3724C23.8409 41.2918 23.9679 41.2515 24.1043 41.2515C24.2221 41.2515 24.3275 41.2825 24.4205 41.3445C24.5197 41.4003 24.6003 41.484 24.6623 41.5956C24.7305 41.7072 24.7646 41.8281 24.7646 41.9583C24.7646 42.0761 24.7305 42.1877 24.6623 42.2931C24.5941 42.3985 24.498 42.4822 24.374 42.5442L23.0256 43.2509L24.4298 44.0042ZM38.0675 44.0042C38.1853 44.06 38.2752 44.1375 38.3372 44.2367C38.3992 44.3359 38.4302 44.4444 38.4302 44.5622C38.4302 44.6862 38.393 44.8102 38.3186 44.9341C38.2566 45.0457 38.1729 45.1325 38.0675 45.1945C37.9683 45.2565 37.8598 45.2875 37.742 45.2875C37.6056 45.2875 37.4785 45.2472 37.3607 45.1666L36.003 44.3018L36.0309 45.7339C36.0371 45.9385 35.9751 46.109 35.8449 46.2454C35.7147 46.3756 35.5504 46.4407 35.352 46.4407C35.1536 46.4407 34.9893 46.3725 34.8592 46.2361C34.7352 46.0997 34.6763 45.9292 34.6825 45.7246L34.7569 44.3669L33.4363 45.1759C33.3185 45.2503 33.1945 45.2875 33.0643 45.2875C32.9527 45.2875 32.8474 45.2596 32.7482 45.2038C32.649 45.1418 32.5684 45.055 32.5064 44.9434C32.4444 44.8381 32.4134 44.7203 32.4134 44.5901C32.4134 44.4723 32.4444 44.3607 32.5064 44.2553C32.5746 44.1499 32.6707 44.0662 32.7947 44.0042L34.1896 43.2881L32.804 42.5535C32.6862 42.4915 32.5963 42.4109 32.5343 42.3117C32.4723 42.2063 32.4413 42.0916 32.4413 41.9676C32.4413 41.8498 32.4723 41.732 32.5343 41.6142C32.6025 41.5026 32.6893 41.4158 32.7947 41.3538C32.9001 41.2918 33.0085 41.2608 33.1201 41.2608C33.2503 41.2608 33.3774 41.298 33.5014 41.3724L34.8034 42.2094L34.7755 40.9074C34.7693 40.7029 34.8313 40.5355 34.9614 40.4053C35.0978 40.2689 35.2683 40.2007 35.4729 40.2007C35.6713 40.2007 35.8325 40.2689 35.9565 40.4053C36.0805 40.5417 36.1394 40.7091 36.1332 40.9074L36.0681 42.1815L37.3607 41.3724C37.4785 41.2918 37.6056 41.2515 37.742 41.2515C37.8598 41.2515 37.9652 41.2825 38.0582 41.3445C38.1574 41.4003 38.238 41.484 38.3 41.5956C38.3682 41.7072 38.4023 41.8281 38.4023 41.9583C38.4023 42.0761 38.3682 42.1877 38.3 42.2931C38.2318 42.3985 38.1357 42.4822 38.0117 42.5442L36.6633 43.2509L38.0675 44.0042ZM31.0297 50.4767C30.9677 50.3775 30.8778 50.3 30.76 50.2442L29.3558 49.4909L30.7042 48.7842C30.8282 48.7222 30.9243 48.6385 30.9925 48.5331C31.0607 48.4277 31.0948 48.3161 31.0948 48.1983C31.0948 48.0681 31.0607 47.9472 30.9925 47.8356C30.9305 47.724 30.8499 47.6403 30.7507 47.5845C30.6577 47.5225 30.5523 47.4915 30.4345 47.4915C30.2981 47.4915 30.171 47.5318 30.0532 47.6124L28.7606 48.4215L28.8257 47.1474C28.8319 46.949 28.773 46.7817 28.649 46.6453C28.525 46.5089 28.3638 46.4407 28.1654 46.4407C27.9608 46.4407 27.7903 46.5089 27.6539 46.6453C27.5237 46.7755 27.4617 46.9428 27.4679 47.1474L27.4958 48.4494L26.1939 47.6124C26.0699 47.538 25.9428 47.5008 25.8126 47.5008C25.701 47.5008 25.5925 47.5318 25.4871 47.5938C25.3818 47.6558 25.295 47.7426 25.2268 47.8542C25.1648 47.972 25.1338 48.0898 25.1338 48.2076C25.1338 48.3316 25.1648 48.4463 25.2268 48.5517C25.2888 48.6509 25.3787 48.7315 25.4964 48.7935L26.8821 49.5281L25.4871 50.2442C25.3632 50.3062 25.2671 50.3899 25.1989 50.4953C25.1369 50.6007 25.1059 50.7123 25.1059 50.8301C25.1059 50.9602 25.1369 51.078 25.1989 51.1834C25.2609 51.295 25.3415 51.3818 25.4406 51.4438C25.5398 51.4996 25.6452 51.5275 25.7568 51.5275C25.887 51.5275 26.011 51.4903 26.1288 51.4159L27.4493 50.6069L27.375 51.9646C27.3688 52.1692 27.4276 52.3397 27.5516 52.4761C27.6818 52.6125 27.8461 52.6807 28.0445 52.6807C28.2429 52.6807 28.4072 52.6156 28.5374 52.4854C28.6676 52.349 28.7296 52.1785 28.7234 51.9739L28.6955 50.5418L30.0532 51.4066C30.171 51.4872 30.2981 51.5275 30.4345 51.5275C30.5523 51.5275 30.6608 51.4965 30.76 51.4345C30.8654 51.3725 30.9491 51.2857 31.0111 51.1741C31.0855 51.0501 31.1227 50.9261 31.1227 50.8022C31.1227 50.6844 31.0917 50.5759 31.0297 50.4767ZM44.9957 50.2442C45.1135 50.3 45.2034 50.3775 45.2654 50.4767C45.3274 50.5759 45.3584 50.6844 45.3584 50.8022C45.3584 50.9261 45.3212 51.0501 45.2468 51.1741C45.1848 51.2857 45.1011 51.3725 44.9957 51.4345C44.8965 51.4965 44.788 51.5275 44.6702 51.5275C44.5339 51.5275 44.4068 51.4872 44.289 51.4066L42.9312 50.5418L42.9591 51.9739C42.9653 52.1785 42.9033 52.349 42.7731 52.4854C42.6429 52.6156 42.4787 52.6807 42.2803 52.6807C42.0819 52.6807 41.9176 52.6125 41.7874 52.4761C41.6634 52.3397 41.6045 52.1692 41.6107 51.9646L41.6851 50.6069L40.3646 51.4159C40.2468 51.4903 40.1228 51.5275 39.9926 51.5275C39.881 51.5275 39.7756 51.4996 39.6764 51.4438C39.5772 51.3818 39.4966 51.295 39.4346 51.1834C39.3726 51.078 39.3416 50.9602 39.3416 50.8301C39.3416 50.7123 39.3726 50.6007 39.4346 50.4953C39.5028 50.3899 39.5989 50.3062 39.7229 50.2442L41.1178 49.5281L39.7322 48.7935C39.6144 48.7315 39.5245 48.6509 39.4625 48.5517C39.4005 48.4463 39.3695 48.3316 39.3695 48.2076C39.3695 48.0898 39.4005 47.972 39.4625 47.8542C39.5307 47.7426 39.6175 47.6558 39.7229 47.5938C39.8283 47.5318 39.9368 47.5008 40.0484 47.5008C40.1786 47.5008 40.3057 47.538 40.4297 47.6124L41.7316 48.4494L41.7037 47.1474C41.6975 46.9428 41.7595 46.7755 41.8897 46.6453C42.0261 46.5089 42.1966 46.4407 42.4012 46.4407C42.5995 46.4407 42.7607 46.5089 42.8847 46.6453C43.0087 46.7817 43.0676 46.949 43.0614 47.1474L42.9963 48.4215L44.289 47.6124C44.4068 47.5318 44.5339 47.4915 44.6702 47.4915C44.788 47.4915 44.8934 47.5225 44.9864 47.5845C45.0856 47.6403 45.1662 47.724 45.2282 47.8356C45.2964 47.9472 45.3305 48.0681 45.3305 48.1983C45.3305 48.3161 45.2964 48.4277 45.2282 48.5331C45.16 48.6385 45.0639 48.7222 44.9399 48.7842L43.5915 49.4909L44.9957 50.2442Z" fill="#F8F9FA"/>
<path d="M19.325 12.9564L20.3246 14.0747L19.325 12.9564ZM15.1318 22.1048L15.6042 23.5285C16.1747 23.3392 16.5772 22.8275 16.6267 22.2284L15.1318 22.1048ZM14.759 22.2358L14.2378 20.8292L14.2378 20.8292L14.759 22.2358ZM12.3985 23.4313L13.2323 24.6782H13.2323L12.3985 23.4313ZM10.2579 34.7743L11.4683 33.8884L10.2579 34.7743ZM47.7181 35.5883L48.6287 36.7803L47.7181 35.5883ZM47.1175 20.249L47.9711 19.0155V19.0155L47.1175 20.249ZM40.1335 17.9915L38.7503 18.5719C38.9737 19.1042 39.4827 19.4611 40.0593 19.4897L40.1335 17.9915ZM35.5325 12.093L34.6778 13.3257V13.3257L35.5325 12.093ZM16.3018 23.8454L15.9763 22.3812C15.9702 22.3825 15.964 22.3839 15.9579 22.3853L16.3018 23.8454ZM16.2965 23.8467L15.9526 22.3866L15.9519 22.3868L16.2965 23.8467ZM17.0837 22.9148L15.5853 22.8465V22.8465L17.0837 22.9148ZM20.6579 14.4475L21.6576 15.5658L20.6579 14.4475ZM34.3929 13.7366L33.5382 14.9692L34.3929 13.7366ZM38.5115 19.3255L39.9161 18.7989V18.7989L38.5115 19.3255ZM45.9794 21.8936L45.1259 23.127V23.127L45.9794 21.8936ZM46.5041 33.9989L47.4146 35.191L46.5041 33.9989ZM11.8718 33.5931L10.6614 34.479H10.6614L11.8718 33.5931ZM13.5102 25.0939L14.344 26.3408L14.344 26.3408L13.5102 25.0939ZM15.454 24.1111L15.9753 25.5176L15.9753 25.5176L15.454 24.1111ZM16.0902 23.9014L16.5019 25.3438L16.5019 25.3438L16.0902 23.9014ZM16.2582 23.856L16.6239 25.3108L16.6239 25.3108L16.2582 23.856ZM24.4298 44.0042L23.7208 45.326C23.7428 45.3378 23.7651 45.3491 23.7877 45.3598L24.4298 44.0042ZM24.6809 44.9341L23.3947 44.1624C23.3861 44.1767 23.3778 44.1911 23.3697 44.2057L24.6809 44.9341ZM24.4298 45.1945L23.6693 43.9016C23.6577 43.9084 23.6462 43.9154 23.6348 43.9225L24.4298 45.1945ZM23.7231 45.1666L24.5701 43.9287C24.5565 43.9194 24.5428 43.9103 24.5289 43.9015L23.7231 45.1666ZM22.3653 44.3018L23.1712 43.0366C22.7049 42.7396 22.1131 42.7232 21.631 42.9938C21.149 43.2644 20.8548 43.7783 20.8656 44.331L22.3653 44.3018ZM22.3932 45.7339L20.8935 45.7631C20.8936 45.7685 20.8938 45.7739 20.8939 45.7793L22.3932 45.7339ZM22.2072 46.2454L23.2679 47.306C23.2761 47.2978 23.2842 47.2895 23.2923 47.2811L22.2072 46.2454ZM21.2215 46.2361L20.1116 47.2451C20.1198 47.2541 20.1281 47.263 20.1365 47.2718L21.2215 46.2361ZM21.0448 45.7246L19.547 45.6425C19.5464 45.6547 19.5459 45.667 19.5455 45.6792L21.0448 45.7246ZM21.1192 44.3669L22.6169 44.4489C22.6475 43.8922 22.3666 43.3644 21.8877 43.0787C21.4089 42.793 20.811 42.7965 20.3356 43.0878L21.1192 44.3669ZM19.7987 45.1759L19.015 43.8969C19.0092 43.9005 19.0034 43.9041 18.9977 43.9077L19.7987 45.1759ZM19.1105 45.2038L18.3155 46.4758C18.3351 46.4881 18.355 46.4999 18.3751 46.5112L19.1105 45.2038ZM18.8687 44.9434L20.1799 44.215C20.174 44.2042 20.1678 44.1935 20.1616 44.1829L18.8687 44.9434ZM18.8687 44.2553L17.6093 43.4404C17.5978 43.4583 17.5866 43.4764 17.5758 43.4947L18.8687 44.2553ZM19.157 44.0042L19.8278 45.3458C19.8326 45.3435 19.8373 45.3411 19.842 45.3386L19.157 44.0042ZM20.5519 43.2881L21.2369 44.6226C21.7341 44.3674 22.0482 43.8569 22.0519 43.2981C22.0556 42.7392 21.7483 42.2247 21.2546 41.9629L20.5519 43.2881ZM19.1663 42.5535L19.8689 41.2282L19.8649 41.2261L19.1663 42.5535ZM18.8966 42.3117L17.6037 43.0722C17.6105 43.0838 17.6175 43.0953 17.6246 43.1067L18.8966 42.3117ZM18.8966 41.6142L17.6167 40.832C17.6 40.8594 17.5841 40.8872 17.5692 40.9156L18.8966 41.6142ZM19.157 41.3538L18.3965 40.0609L18.3965 40.0609L19.157 41.3538ZM19.8638 41.3724L20.6749 40.1107C20.6619 40.1023 20.6488 40.0941 20.6355 40.0862L19.8638 41.3724ZM21.1657 42.2094L20.3546 43.4711C20.821 43.771 21.4147 43.7891 21.8985 43.5182C22.3823 43.2473 22.6772 42.7316 22.6653 42.1772L21.1657 42.2094ZM21.1378 40.9074L22.6375 40.8753L22.6371 40.862L21.1378 40.9074ZM21.3238 40.4053L20.2631 39.3446L20.2631 39.3446L21.3238 40.4053ZM22.3188 40.4053L23.4287 39.3963L23.4287 39.3963L22.3188 40.4053ZM22.4955 40.9074L23.9936 40.984C23.9941 40.9741 23.9945 40.9642 23.9948 40.9543L22.4955 40.9074ZM22.4304 42.1815L20.9324 42.1049C20.9038 42.6634 21.1883 43.1914 21.6704 43.4747C22.1526 43.758 22.7522 43.7496 23.2262 43.453L22.4304 42.1815ZM23.7231 41.3724L24.5189 42.6439C24.5362 42.6331 24.5532 42.6219 24.5701 42.6104L23.7231 41.3724ZM24.4205 41.3445L23.5885 42.5926C23.6199 42.6136 23.6522 42.6334 23.6851 42.6519L24.4205 41.3445ZM24.6623 41.5956L23.3511 42.3241C23.3611 42.3422 23.3716 42.3601 23.3824 42.3778L24.6623 41.5956ZM24.6623 42.2931L25.9217 43.108L25.9217 43.1079L24.6623 42.2931ZM24.374 42.5442L23.7032 41.2025C23.6947 41.2068 23.6861 41.2112 23.6777 41.2156L24.374 42.5442ZM23.0256 43.2509L22.3292 41.9224C21.8374 42.1801 21.5283 42.6885 21.5256 43.2437C21.523 43.799 21.8272 44.3103 22.3165 44.5728L23.0256 43.2509ZM38.3372 44.2367L39.6092 43.4417L39.6092 43.4417L38.3372 44.2367ZM38.0675 44.0042L37.3584 45.326C37.3805 45.3378 37.4028 45.3491 37.4254 45.3598L38.0675 44.0042ZM38.3186 44.9341L37.0323 44.1624C37.0238 44.1767 37.0154 44.1911 37.0073 44.2057L38.3186 44.9341ZM38.0675 45.1945L37.307 43.9016C37.2954 43.9084 37.2839 43.9154 37.2725 43.9225L38.0675 45.1945ZM37.3607 45.1666L38.2077 43.9287C38.1942 43.9194 38.1805 43.9103 38.1666 43.9015L37.3607 45.1666ZM36.003 44.3018L36.8089 43.0366C36.3426 42.7396 35.7508 42.7232 35.2687 42.9938C34.7866 43.2644 34.4925 43.7783 34.5033 44.331L36.003 44.3018ZM36.0309 45.7339L34.5312 45.7631C34.5313 45.7685 34.5314 45.7739 34.5316 45.7793L36.0309 45.7339ZM35.8449 46.2454L36.9056 47.306C36.9138 47.2978 36.9219 47.2895 36.9299 47.2811L35.8449 46.2454ZM34.8592 46.2361L33.7492 47.2451C33.7574 47.2541 33.7657 47.263 33.7741 47.2718L34.8592 46.2361ZM34.6825 45.7246L33.1847 45.6425C33.184 45.6547 33.1835 45.667 33.1831 45.6792L34.6825 45.7246ZM34.7569 44.3669L36.2546 44.4489C36.2851 43.8922 36.0043 43.3644 35.5254 43.0787C35.0465 42.793 34.4487 42.7965 33.9732 43.0878L34.7569 44.3669ZM33.4363 45.1759L32.6527 43.8969C32.6469 43.9005 32.6411 43.9041 32.6354 43.9077L33.4363 45.1759ZM32.7482 45.2038L31.9532 46.4758C31.9728 46.4881 31.9926 46.4999 32.0128 46.5112L32.7482 45.2038ZM32.5064 44.9434L33.8176 44.215C33.8116 44.2042 33.8055 44.1935 33.7993 44.1829L32.5064 44.9434ZM32.5064 44.2553L31.247 43.4404C31.2354 43.4583 31.2243 43.4764 31.2135 43.4947L32.5064 44.2553ZM32.7947 44.0042L33.4655 45.3458C33.4702 45.3435 33.475 45.3411 33.4797 45.3386L32.7947 44.0042ZM34.1896 43.2881L34.8746 44.6226C35.3718 44.3674 35.6858 43.8569 35.6896 43.2981C35.6933 42.7392 35.386 42.2247 34.8922 41.9629L34.1896 43.2881ZM32.804 42.5535L33.5066 41.2282L33.5026 41.2261L32.804 42.5535ZM32.5343 42.3117L31.2414 43.0722C31.2482 43.0838 31.2551 43.0953 31.2623 43.1067L32.5343 42.3117ZM32.5343 41.6142L31.2543 40.832C31.2376 40.8594 31.2218 40.8872 31.2069 40.9156L32.5343 41.6142ZM32.7947 41.3538L32.0341 40.0609L32.0341 40.0609L32.7947 41.3538ZM33.5014 41.3724L34.3126 40.1107C34.2996 40.1023 34.2864 40.0941 34.2732 40.0862L33.5014 41.3724ZM34.8034 42.2094L33.9922 43.4711C34.4586 43.771 35.0524 43.7891 35.5362 43.5182C36.02 43.2473 36.3149 42.7316 36.303 42.1772L34.8034 42.2094ZM34.7755 40.9074L36.2752 40.8753L36.2748 40.862L34.7755 40.9074ZM35.9565 40.4053L37.0664 39.3963L37.0664 39.3963L35.9565 40.4053ZM36.1332 40.9074L37.6312 40.984C37.6317 40.9741 37.6321 40.9642 37.6325 40.9543L36.1332 40.9074ZM36.0681 42.1815L34.57 42.1049C34.5415 42.6634 34.826 43.1914 35.3081 43.4747C35.7902 43.758 36.3899 43.7496 36.8639 43.453L36.0681 42.1815ZM37.3607 41.3724L38.1565 42.6439C38.1738 42.6331 38.1909 42.6219 38.2078 42.6104L37.3607 41.3724ZM38.0582 41.3445L37.2262 42.5926C37.2576 42.6136 37.2898 42.6334 37.3228 42.6519L38.0582 41.3445ZM38.3 41.5956L36.9887 42.3241C36.9988 42.3422 37.0093 42.3601 37.0201 42.3778L38.3 41.5956ZM38.3 42.2931L39.5593 43.108L39.5593 43.108L38.3 42.2931ZM38.0117 42.5442L37.3409 41.2025C37.3323 41.2068 37.3238 41.2112 37.3153 41.2156L38.0117 42.5442ZM36.6633 43.2509L35.9669 41.9224C35.4751 42.1801 35.1659 42.6885 35.1633 43.2437C35.1606 43.799 35.4649 44.3103 35.9542 44.5728L36.6633 43.2509ZM30.76 50.2442L30.0509 51.566C30.0729 51.5778 30.0953 51.5891 30.1178 51.5998L30.76 50.2442ZM31.0297 50.4767L32.3017 49.6817L32.3017 49.6816L31.0297 50.4767ZM29.3558 49.4909L28.6594 48.1624C28.1676 48.4201 27.8584 48.9285 27.8558 49.4837C27.8531 50.039 28.1574 50.5503 28.6467 50.8128L29.3558 49.4909ZM30.7042 48.7842L30.0334 47.4425C30.0248 47.4468 30.0163 47.4511 30.0078 47.4556L30.7042 48.7842ZM30.9925 48.5331L32.2518 49.348L32.2518 49.3479L30.9925 48.5331ZM30.9925 47.8356L29.6812 48.5641C29.6913 48.5822 29.7017 48.6001 29.7125 48.6178L30.9925 47.8356ZM30.7507 47.5845L29.9186 48.8326C29.9501 48.8536 29.9823 48.8733 30.0153 48.8919L30.7507 47.5845ZM30.0532 47.6124L30.849 48.8839C30.8663 48.8731 30.8834 48.8619 30.9002 48.8504L30.0532 47.6124ZM28.7606 48.4215L27.2625 48.3449C27.234 48.9034 27.5185 49.4314 28.0006 49.7147C28.4827 49.998 29.0824 49.9896 29.5564 49.693L28.7606 48.4215ZM28.8257 47.1474L30.3237 47.224C30.3242 47.2141 30.3246 47.2042 30.3249 47.1943L28.8257 47.1474ZM28.649 46.6453L29.7589 45.6363L29.7589 45.6363L28.649 46.6453ZM27.6539 46.6453L28.7146 47.7059L28.7146 47.7059L27.6539 46.6453ZM27.4679 47.1474L28.9677 47.1153L28.9673 47.102L27.4679 47.1474ZM27.4958 48.4494L26.6847 49.7111C27.1511 50.011 27.7449 50.0291 28.2287 49.7582C28.7125 49.4873 29.0074 48.9716 28.9955 48.4172L27.4958 48.4494ZM26.1939 47.6124L27.005 46.3506C26.992 46.3423 26.9789 46.3341 26.9657 46.3262L26.1939 47.6124ZM25.2268 47.8542L23.9468 47.072C23.9301 47.0994 23.9143 47.1272 23.8994 47.1556L25.2268 47.8542ZM25.2268 48.5517L23.9339 49.3122C23.9407 49.3238 23.9476 49.3353 23.9548 49.3466L25.2268 48.5517ZM25.4964 48.7935L26.1991 47.4682L26.1951 47.4661L25.4964 48.7935ZM26.8821 49.5281L27.5671 50.8626C28.0643 50.6073 28.3783 50.0969 28.382 49.5381C28.3857 48.9792 28.0785 48.4647 27.5847 48.2029L26.8821 49.5281ZM25.4871 50.2442L26.158 51.5858C26.1627 51.5835 26.1674 51.5811 26.1722 51.5786L25.4871 50.2442ZM25.1989 50.4953L23.9395 49.6804C23.9279 49.6983 23.9168 49.7164 23.906 49.7347L25.1989 50.4953ZM25.1989 51.1834L26.5101 50.455C26.5041 50.4442 26.498 50.4335 26.4918 50.4229L25.1989 51.1834ZM25.4406 51.4438L24.6457 52.7158C24.6652 52.7281 24.6851 52.7399 24.7052 52.7512L25.4406 51.4438ZM26.1288 51.4159L25.3452 50.1369C25.3394 50.1404 25.3336 50.144 25.3279 50.1477L26.1288 51.4159ZM27.4493 50.6069L28.9471 50.6889C28.9776 50.1322 28.6967 49.6044 28.2179 49.3187C27.739 49.033 27.1412 49.0365 26.6657 49.3278L27.4493 50.6069ZM27.375 51.9646L25.8772 51.8825C25.8765 51.8947 25.876 51.9069 25.8756 51.9192L27.375 51.9646ZM27.5516 52.4761L26.4417 53.4851C26.4499 53.4941 26.4582 53.503 26.4666 53.5118L27.5516 52.4761ZM28.5374 52.4854L29.5981 53.546C29.6063 53.5378 29.6144 53.5295 29.6224 53.5211L28.5374 52.4854ZM28.7234 51.9739L27.2237 52.0031C27.2238 52.0085 27.2239 52.0139 27.2241 52.0193L28.7234 51.9739ZM28.6955 50.5418L29.5014 49.2766C29.0351 48.9796 28.4432 48.9632 27.9612 49.2338C27.4791 49.5044 27.185 50.0183 27.1958 50.571L28.6955 50.5418ZM30.0532 51.4066L30.9002 50.1686C30.8867 50.1594 30.8729 50.1503 30.8591 50.1415L30.0532 51.4066ZM30.76 51.4345L29.9995 50.1416C29.9879 50.1484 29.9764 50.1554 29.965 50.1625L30.76 51.4345ZM31.0111 51.1741L29.7248 50.4024C29.7163 50.4167 29.7079 50.4311 29.6998 50.4457L31.0111 51.1741ZM44.9957 50.2442L44.2867 51.566C44.3087 51.5778 44.331 51.5891 44.3536 51.5998L44.9957 50.2442ZM45.2468 51.1741L43.9606 50.4024C43.952 50.4167 43.9437 50.4311 43.9356 50.4457L45.2468 51.1741ZM44.9957 51.4345L44.2352 50.1416C44.2236 50.1484 44.2121 50.1554 44.2007 50.1625L44.9957 51.4345ZM44.289 51.4066L45.136 50.1686C45.1224 50.1594 45.1087 50.1503 45.0948 50.1415L44.289 51.4066ZM42.9312 50.5418L43.7371 49.2766C43.2708 48.9796 42.679 48.9632 42.1969 49.2338C41.7149 49.5044 41.4207 50.0183 41.4315 50.571L42.9312 50.5418ZM42.9591 51.9739L41.4594 52.0031C41.4595 52.0085 41.4597 52.0139 41.4598 52.0193L42.9591 51.9739ZM42.7731 52.4854L43.8338 53.546C43.842 53.5378 43.8501 53.5295 43.8582 53.5211L42.7731 52.4854ZM41.7874 52.4761L40.6775 53.4851C40.6857 53.4941 40.694 53.503 40.7024 53.5118L41.7874 52.4761ZM41.6107 51.9646L40.1129 51.8825C40.1123 51.8947 40.1118 51.9069 40.1114 51.9192L41.6107 51.9646ZM41.6851 50.6069L43.1828 50.6889C43.2134 50.1322 42.9325 49.6044 42.4536 49.3187C41.9748 49.033 41.3769 49.0365 40.9015 49.3278L41.6851 50.6069ZM40.3646 51.4159L39.5809 50.1369C39.5751 50.1404 39.5694 50.144 39.5636 50.1477L40.3646 51.4159ZM39.6764 51.4438L38.8814 52.7158C38.901 52.7281 38.9209 52.7399 38.941 52.7512L39.6764 51.4438ZM39.4346 51.1834L40.7458 50.455C40.7399 50.4442 40.7337 50.4335 40.7275 50.4229L39.4346 51.1834ZM39.4346 50.4953L38.1753 49.6804C38.1637 49.6983 38.1525 49.7164 38.1417 49.7347L39.4346 50.4953ZM39.7229 50.2442L40.3937 51.5858C40.3985 51.5835 40.4032 51.5811 40.4079 51.5786L39.7229 50.2442ZM41.1178 49.5281L41.8028 50.8626C42.3 50.6073 42.6141 50.0969 42.6178 49.5381C42.6215 48.9792 42.3142 48.4647 41.8205 48.2029L41.1178 49.5281ZM39.7322 48.7935L40.4348 47.4682L40.4308 47.4661L39.7322 48.7935ZM39.4625 48.5517L38.1696 49.3122C38.1764 49.3238 38.1834 49.3353 38.1905 49.3466L39.4625 48.5517ZM39.4625 47.8542L38.1826 47.072C38.1659 47.0994 38.1501 47.1272 38.1351 47.1556L39.4625 47.8542ZM40.4297 47.6124L41.2408 46.3506C41.2278 46.3423 41.2147 46.3341 41.2014 46.3262L40.4297 47.6124ZM41.7316 48.4494L40.9205 49.7111C41.3869 50.011 41.9806 50.0291 42.4644 49.7582C42.9482 49.4873 43.2431 48.9716 43.2313 48.4172L41.7316 48.4494ZM41.7037 47.1474L43.2034 47.1153L43.203 47.102L41.7037 47.1474ZM41.8897 46.6453L42.9503 47.7059L42.9504 47.7059L41.8897 46.6453ZM43.0614 47.1474L44.5595 47.224C44.56 47.2141 44.5604 47.2042 44.5607 47.1943L43.0614 47.1474ZM42.9963 48.4215L41.4983 48.3449C41.4697 48.9034 41.7542 49.4314 42.2364 49.7147C42.7185 49.998 43.3181 49.9896 43.7922 49.693L42.9963 48.4215ZM44.289 47.6124L45.0848 48.8839C45.1021 48.8731 45.1192 48.8619 45.136 48.8504L44.289 47.6124ZM44.9864 47.5845L44.1544 48.8326C44.1858 48.8536 44.2181 48.8733 44.251 48.8919L44.9864 47.5845ZM45.2282 47.8356L43.917 48.5641C43.9271 48.5822 43.9375 48.6001 43.9483 48.6178L45.2282 47.8356ZM45.2282 48.5331L46.4876 49.348L46.4876 49.3479L45.2282 48.5331ZM44.9399 48.7842L44.2691 47.4425C44.2606 47.4468 44.252 47.4511 44.2436 47.4556L44.9399 48.7842ZM43.5915 49.4909L42.8951 48.1624C42.4034 48.4201 42.0942 48.9285 42.0915 49.4837C42.0889 50.039 42.3931 50.5503 42.8824 50.8128L43.5915 49.4909ZM20.3246 14.0747C22.4013 12.2184 25.1078 11.3545 27.7934 11.3545V8.35449C24.4863 8.35449 21.0327 9.41789 18.3253 11.8381L20.3246 14.0747ZM16.6267 22.2284C16.936 18.4863 18.3661 15.8254 20.3246 14.0747L18.3253 11.8381C15.7338 14.1546 14.0024 17.5583 13.6369 21.9813L16.6267 22.2284ZM15.2803 23.6423C15.397 23.599 15.5055 23.5612 15.6042 23.5285L14.6594 20.6811C14.5299 20.7241 14.3887 20.7733 14.2378 20.8292L15.2803 23.6423ZM13.2323 24.6782C13.9737 24.1825 14.7188 23.8504 15.2803 23.6423L14.2378 20.8292C13.5236 21.0939 12.5532 21.5235 11.5647 22.1844L13.2323 24.6782ZM10.324 29.8552C10.324 27.2792 11.7512 25.6687 13.2323 24.6782L11.5647 22.1844C9.57192 23.517 7.32397 25.9449 7.32397 29.8552H10.324ZM11.4683 33.8884C10.543 32.6241 10.324 31.0509 10.324 29.8552H7.32397C7.32397 31.3238 7.57637 33.6502 9.04742 35.6602L11.4683 33.8884ZM17.0558 36.1506C14.014 36.1506 12.3718 35.1228 11.4683 33.8884L9.04742 35.6602C10.6256 37.8166 13.2598 39.1506 17.0558 39.1506V36.1506ZM41.4548 36.1506H17.0558V39.1506H41.4548V36.1506ZM46.8076 34.3963C45.1633 35.6523 43.0962 36.1506 41.4548 36.1506V39.1506C43.6147 39.1506 46.3603 38.513 48.6287 36.7803L46.8076 34.3963ZM49.676 28.0524C49.676 31.1538 48.4313 33.156 46.8076 34.3963L48.6287 36.7803C51.0003 34.9687 52.676 32.0825 52.676 28.0524H49.676ZM46.264 21.4824C48.2488 22.856 49.676 24.9795 49.676 28.0524H52.676C52.676 23.8818 50.668 20.8818 47.9711 19.0155L46.264 21.4824ZM40.0593 19.4897C42.1522 19.5933 44.4463 20.2246 46.264 21.4824L47.9711 19.0155C45.6022 17.3762 42.7372 16.6186 40.2076 16.4934L40.0593 19.4897ZM34.6778 13.3257C36.4072 14.5248 37.7857 16.2733 38.7503 18.5719L41.5166 17.4111C40.3627 14.6613 38.6489 12.4285 36.3872 10.8603L34.6778 13.3257ZM27.7934 11.3545C30.4975 11.3545 32.8079 12.0291 34.6778 13.3257L36.3872 10.8603C33.9388 9.16268 31.0084 8.35449 27.7934 8.35449V11.3545ZM15.9579 22.3853L15.9526 22.3866L16.6403 25.3067L16.6457 25.3055L15.9579 22.3853ZM15.5853 22.8465C15.5956 22.6208 15.7558 22.4302 15.9763 22.3812L16.6274 25.3097C17.7295 25.0646 18.5307 24.1112 18.5822 22.9832L15.5853 22.8465ZM19.6582 13.3292C17.3642 15.3798 15.7828 18.5159 15.5853 22.8465L18.5822 22.9832C18.7477 19.3554 20.0373 17.0141 21.6576 15.5658L19.6582 13.3292ZM27.7934 10.3545C24.9004 10.3545 21.9449 11.285 19.6582 13.3292L21.6576 15.5658C23.3142 14.0849 25.5229 13.3545 27.7934 13.3545V10.3545ZM35.2476 12.5039C33.1849 11.0737 30.6679 10.3545 27.7934 10.3545V13.3545C30.1565 13.3545 32.0536 13.9399 33.5382 14.9692L35.2476 12.5039ZM39.9161 18.7989C38.8865 16.0529 37.3103 13.9341 35.2476 12.5039L33.5382 14.9692C35.0227 15.9985 36.2566 17.5839 37.107 19.8521L39.9161 18.7989ZM39.4479 18.4744C39.6563 18.4744 39.8429 18.6037 39.9161 18.7989L37.107 19.8521C37.4729 20.8279 38.4057 21.4744 39.4479 21.4744V18.4744ZM46.833 20.6601C44.6301 19.1356 41.8434 18.4744 39.4479 18.4744V21.4744C41.3636 21.4744 43.5219 22.0171 45.1259 23.127L46.833 20.6601ZM50.676 28.0524C50.676 24.6141 49.0557 22.1982 46.833 20.6601L45.1259 23.127C46.6342 24.1708 47.676 25.7093 47.676 28.0524H50.676ZM47.4146 35.191C49.2876 33.7603 50.676 31.4634 50.676 28.0524H47.676C47.676 30.5345 46.7187 31.9474 45.5936 32.8069L47.4146 35.191ZM41.4548 37.1506C43.2692 37.1506 45.5625 36.6057 47.4146 35.191L45.5936 32.8069C44.3647 33.7455 42.7496 34.1506 41.4548 34.1506V37.1506ZM17.0558 37.1506H41.4548V34.1506H17.0558V37.1506ZM10.6614 34.479C11.7892 36.02 13.7615 37.1506 17.0558 37.1506V34.1506C14.5209 34.1506 13.5379 33.3298 13.0823 32.7072L10.6614 34.479ZM9.32397 29.8552C9.32397 31.142 9.55421 32.9662 10.6614 34.479L13.0823 32.7072C12.5206 31.9398 12.324 30.8684 12.324 29.8552H9.32397ZM12.6764 23.847C11.0229 24.9527 9.32397 26.8361 9.32397 29.8552H12.324C12.324 28.1627 13.2108 27.0986 14.344 26.3408L12.6764 23.847ZM14.9328 22.7046C14.3204 22.9315 13.5002 23.2961 12.6764 23.847L14.344 26.3408C14.9208 25.9551 15.5156 25.688 15.9753 25.5176L14.9328 22.7046ZM15.6785 22.459C15.4967 22.5109 15.2398 22.5908 14.9328 22.7046L15.9753 25.5176C16.2012 25.4339 16.3841 25.3774 16.5019 25.3438L15.6785 22.459ZM15.8926 22.4013C15.8419 22.414 15.7695 22.433 15.6785 22.459L16.5019 25.3438C16.5605 25.327 16.6021 25.3162 16.6239 25.3108L15.8926 22.4013ZM15.9519 22.3868C15.9379 22.3901 15.918 22.3949 15.8925 22.4013L16.6239 25.3108C16.6347 25.308 16.6405 25.3067 16.641 25.3065L15.9519 22.3868ZM25.9715 43.4417C25.7405 43.072 25.4184 42.8127 25.072 42.6486L23.7877 45.3598C23.6769 45.3073 23.5346 45.203 23.4275 45.0317L25.9715 43.4417ZM26.2925 44.5622C26.2925 44.1653 26.1836 43.781 25.9715 43.4417L23.4275 45.0317C23.3394 44.8907 23.2925 44.7234 23.2925 44.5622H26.2925ZM25.9671 45.7059C26.1579 45.388 26.2925 45.0004 26.2925 44.5622H23.2925C23.2925 44.3719 23.3528 44.2323 23.3947 44.1624L25.9671 45.7059ZM25.1903 46.4874C25.5367 46.2837 25.8062 45.9973 25.9922 45.6626L23.3697 44.2057C23.4316 44.0941 23.5337 43.9814 23.6693 43.9016L25.1903 46.4874ZM24.1043 46.7875C24.5012 46.7875 24.8855 46.6786 25.2248 46.4665L23.6348 43.9225C23.7758 43.8344 23.9431 43.7875 24.1043 43.7875V46.7875ZM22.8761 46.4046C23.2311 46.6475 23.6511 46.7875 24.1043 46.7875V43.7875C24.1864 43.7875 24.2736 43.8 24.3601 43.8275C24.446 43.8547 24.5164 43.8919 24.5701 43.9287L22.8761 46.4046ZM21.5595 45.5669L22.9172 46.4318L24.5289 43.9015L23.1712 43.0366L21.5595 45.5669ZM23.8929 45.7047L23.865 44.2726L20.8656 44.331L20.8935 45.7631L23.8929 45.7047ZM23.2923 47.2811C23.7248 46.8279 23.9098 46.2564 23.8925 45.6885L20.8939 45.7793C20.892 45.7159 20.8999 45.6175 20.9417 45.5026C20.9844 45.3852 21.0498 45.2855 21.1222 45.2097L23.2923 47.2811ZM21.7144 47.9407C22.2765 47.9407 22.8332 47.7408 23.2679 47.306L21.1466 45.1847C21.2201 45.1112 21.3176 45.0434 21.4338 44.9973C21.5478 44.9521 21.6475 44.9407 21.7144 44.9407V47.9407ZM20.1365 47.2718C20.5658 47.7216 21.13 47.9407 21.7144 47.9407V44.9407C21.7898 44.9407 21.8974 44.9543 22.0174 45.0041C22.1391 45.0546 22.2365 45.127 22.3065 45.2004L20.1365 47.2718ZM19.5455 45.6792C19.5289 46.2257 19.6961 46.7881 20.1116 47.2451L22.3314 45.2271C22.4031 45.3059 22.4637 45.405 22.5021 45.5161C22.5395 45.6244 22.5458 45.7147 22.5441 45.77L19.5455 45.6792ZM19.6214 44.2848L19.547 45.6425L22.5425 45.8067L22.6169 44.4489L19.6214 44.2848ZM20.5823 46.455L21.9028 45.6459L20.3356 43.0878L19.015 43.8969L20.5823 46.455ZM19.4267 46.7875C19.8605 46.7875 20.2597 46.6589 20.5996 46.4442L18.9977 43.9077C19.1021 43.8418 19.2533 43.7875 19.4267 43.7875V46.7875ZM18.3751 46.5112C18.6942 46.6907 19.0522 46.7875 19.4267 46.7875V43.7875C19.578 43.7875 19.7252 43.8286 19.8459 43.8965L18.3751 46.5112ZM17.5575 45.6719C17.7312 45.9847 17.9817 46.2672 18.3155 46.4758L19.9055 43.9318C20.0409 44.0165 20.1302 44.1254 20.1799 44.215L17.5575 45.6719ZM17.2757 44.5901C17.2757 44.9697 17.3694 45.3531 17.5758 45.704L20.1616 44.1829C20.244 44.323 20.2757 44.4708 20.2757 44.5901H17.2757ZM17.5758 43.4947C17.3836 43.8215 17.2757 44.1944 17.2757 44.5901H20.2757C20.2757 44.7501 20.2298 44.8999 20.1616 45.0158L17.5758 43.4947ZM18.4862 42.6625C18.1482 42.8315 17.838 43.087 17.6093 43.4404L20.1281 45.0701C20.0358 45.2127 19.9178 45.3008 19.8278 45.3458L18.4862 42.6625ZM19.8669 41.9537L18.472 42.6697L19.842 45.3386L21.2369 44.6226L19.8669 41.9537ZM18.4636 43.8787L19.8493 44.6134L21.2546 41.9629L19.8689 41.2282L18.4636 43.8787ZM17.6246 43.1067C17.8458 43.4606 18.148 43.7126 18.4677 43.8808L19.8649 41.2261C19.949 41.2703 20.0714 41.3612 20.1686 41.5167L17.6246 43.1067ZM17.3036 41.9676C17.3036 42.3551 17.4041 42.7329 17.6037 43.0722L20.1895 41.5511C20.2651 41.6797 20.3036 41.8281 20.3036 41.9676H17.3036ZM17.5692 40.9156C17.4088 41.2205 17.3036 41.5762 17.3036 41.9676H20.3036C20.3036 42.1234 20.2604 42.2435 20.224 42.3128L17.5692 40.9156ZM18.3965 40.0609C18.0639 40.2565 17.8042 40.5252 17.6167 40.832L20.1765 42.3964C20.1254 42.4801 20.0393 42.5751 19.9175 42.6467L18.3965 40.0609ZM19.4825 39.7608C19.0783 39.7608 18.7096 39.8767 18.3965 40.0609L19.9175 42.6467C19.8151 42.707 19.6635 42.7608 19.4825 42.7608V39.7608ZM20.6355 40.0862C20.3049 39.8878 19.9139 39.7608 19.4825 39.7608V42.7608C19.3115 42.7608 19.1746 42.7082 19.092 42.6587L20.6355 40.0862ZM21.9768 40.9476L20.6749 40.1107L19.0526 42.6342L20.3546 43.4711L21.9768 40.9476ZM19.6381 40.9396L19.666 42.2415L22.6653 42.1772L22.6374 40.8753L19.6381 40.9396ZM20.2631 39.3446C19.8062 39.8015 19.6213 40.3859 19.6385 40.9529L22.6371 40.862C22.639 40.9247 22.6314 41.0275 22.5863 41.1494C22.5398 41.2749 22.4673 41.3831 22.3844 41.4659L20.2631 39.3446ZM21.8353 38.7007C21.2596 38.7007 20.6992 38.9085 20.2631 39.3446L22.3844 41.4659C22.3164 41.534 22.2239 41.5994 22.111 41.6445C22 41.689 21.902 41.7007 21.8353 41.7007V38.7007ZM23.4287 39.3963C22.997 38.9214 22.4201 38.7007 21.8353 38.7007V41.7007C21.7604 41.7007 21.6479 41.6872 21.5205 41.6333C21.3904 41.5783 21.2851 41.4981 21.2089 41.4143L23.4287 39.3963ZM23.9948 40.9543C24.0121 40.3996 23.8359 39.8442 23.4287 39.3963L21.2089 41.4143C21.1414 41.34 21.0807 41.2437 21.041 41.131C21.0021 41.0204 20.9943 40.9248 20.9963 40.8606L23.9948 40.9543ZM23.9285 42.258L23.9936 40.984L20.9975 40.8309L20.9324 42.1049L23.9285 42.258ZM22.9272 40.1009L21.6346 40.91L23.2262 43.453L24.5189 42.6439L22.9272 40.1009ZM24.1043 39.7515C23.6511 39.7515 23.231 39.8916 22.876 40.1345L24.5701 42.6104C24.5164 42.6471 24.446 42.6844 24.3601 42.7116C24.2736 42.739 24.1864 42.7515 24.1043 42.7515V39.7515ZM25.2526 40.0964C24.8995 39.8611 24.5015 39.7515 24.1043 39.7515V42.7515C23.9428 42.7515 23.7555 42.704 23.5885 42.5926L25.2526 40.0964ZM25.9736 40.8672C25.7937 40.5434 25.5254 40.245 25.1559 40.0372L23.6851 42.6519C23.514 42.5556 23.407 42.4247 23.3511 42.3241L25.9736 40.8672ZM26.2646 41.9583C26.2646 41.5508 26.1537 41.1594 25.9422 40.8134L23.3824 42.3778C23.3074 42.255 23.2646 42.1054 23.2646 41.9583H26.2646ZM25.9217 43.1079C26.1361 42.7765 26.2646 42.3845 26.2646 41.9583H23.2646C23.2646 41.7677 23.3249 41.5989 23.403 41.4782L25.9217 43.1079ZM25.0448 43.8858C25.3829 43.7168 25.693 43.4613 25.9217 43.108L23.403 41.4782C23.4952 41.3356 23.6132 41.2475 23.7032 41.2025L25.0448 43.8858ZM23.7219 44.5795L25.0704 43.8727L23.6777 41.2156L22.3292 41.9224L23.7219 44.5795ZM25.1389 42.6824L23.7347 41.9291L22.3165 44.5728L23.7208 45.326L25.1389 42.6824ZM39.6092 43.4417C39.3781 43.072 39.056 42.8127 38.7096 42.6486L37.4254 45.3598C37.3145 45.3073 37.1722 45.203 37.0652 45.0317L39.6092 43.4417ZM39.9302 44.5622C39.9302 44.1653 39.8213 43.781 39.6092 43.4417L37.0652 45.0317C36.9771 44.8907 36.9302 44.7234 36.9302 44.5622H39.9302ZM39.6048 45.7059C39.7955 45.388 39.9302 45.0004 39.9302 44.5622H36.9302C36.9302 44.3719 36.9904 44.2323 37.0323 44.1624L39.6048 45.7059ZM38.828 46.4874C39.1744 46.2837 39.4438 45.9974 39.6298 45.6626L37.0073 44.2057C37.0693 44.0941 37.1714 43.9814 37.307 43.9016L38.828 46.4874ZM37.742 46.7875C38.1388 46.7875 38.5231 46.6786 38.8625 46.4665L37.2725 43.9225C37.4135 43.8344 37.5808 43.7875 37.742 43.7875V46.7875ZM36.5137 46.4046C36.8687 46.6475 37.2888 46.7875 37.742 46.7875V43.7875C37.8241 43.7875 37.9113 43.8 37.9978 43.8275C38.0836 43.8547 38.154 43.8919 38.2077 43.9287L36.5137 46.4046ZM35.1971 45.5669L36.5549 46.4318L38.1666 43.9015L36.8089 43.0366L35.1971 45.5669ZM37.5306 45.7047L37.5027 44.2726L34.5033 44.331L34.5312 45.7631L37.5306 45.7047ZM36.9299 47.2811C37.3625 46.8279 37.5474 46.2564 37.5302 45.6885L34.5316 45.7793C34.5297 45.7159 34.5376 45.6175 34.5794 45.5026C34.622 45.3852 34.6875 45.2855 34.7599 45.2097L36.9299 47.2811ZM35.352 47.9407C35.9142 47.9407 36.4709 47.7408 36.9056 47.306L34.7842 45.1847C34.8578 45.1112 34.9553 45.0434 35.0715 44.9973C35.1855 44.9521 35.2851 44.9407 35.352 44.9407V47.9407ZM33.7741 47.2718C34.2035 47.7216 34.7677 47.9407 35.352 47.9407V44.9407C35.4274 44.9407 35.535 44.9543 35.6551 45.0041C35.7768 45.0546 35.8742 45.127 35.9442 45.2004L33.7741 47.2718ZM33.1831 45.6792C33.1666 46.2257 33.3338 46.7881 33.7492 47.2451L35.9691 45.2271C36.0407 45.3059 36.1014 45.405 36.1398 45.5161C36.1772 45.6244 36.1834 45.7147 36.1818 45.77L33.1831 45.6792ZM33.2591 44.2848L33.1847 45.6425L36.1802 45.8067L36.2546 44.4489L33.2591 44.2848ZM34.22 46.455L35.5405 45.6459L33.9732 43.0878L32.6527 43.8969L34.22 46.455ZM33.0643 46.7875C33.4981 46.7875 33.8973 46.6589 34.2373 46.4442L32.6354 43.9077C32.7397 43.8418 32.891 43.7875 33.0643 43.7875V46.7875ZM32.0128 46.5112C32.3318 46.6907 32.6899 46.7875 33.0643 46.7875V43.7875C33.2156 43.7875 33.3629 43.8286 33.4836 43.8965L32.0128 46.5112ZM31.1951 45.6719C31.3689 45.9847 31.6193 46.2672 31.9532 46.4758L33.5432 43.9318C33.6786 44.0165 33.7679 44.1254 33.8176 44.215L31.1951 45.6719ZM30.9134 44.5901C30.9134 44.9697 31.007 45.3531 31.2135 45.704L33.7993 44.1829C33.8817 44.3231 33.9134 44.4708 33.9134 44.5901H30.9134ZM31.2135 43.4947C31.0213 43.8215 30.9134 44.1944 30.9134 44.5901H33.9134C33.9134 44.7501 33.8675 44.8999 33.7993 45.0158L31.2135 43.4947ZM32.1238 42.6625C31.7858 42.8316 31.4757 43.087 31.247 43.4404L33.7657 45.0702C33.6735 45.2127 33.5555 45.3008 33.4655 45.3458L32.1238 42.6625ZM33.5046 41.9537L32.1096 42.6697L33.4797 45.3386L34.8746 44.6226L33.5046 41.9537ZM32.1013 43.8787L33.4869 44.6134L34.8922 41.9629L33.5066 41.2282L32.1013 43.8787ZM31.2623 43.1067C31.4835 43.4606 31.7857 43.7126 32.1053 43.8808L33.5026 41.2261C33.5866 41.2703 33.7091 41.3612 33.8063 41.5167L31.2623 43.1067ZM30.9413 41.9676C30.9413 42.3551 31.0418 42.7329 31.2414 43.0722L33.8272 41.5511C33.9028 41.6797 33.9413 41.8281 33.9413 41.9676H30.9413ZM31.2069 40.9156C31.0464 41.2205 30.9413 41.5762 30.9413 41.9676H33.9413C33.9413 42.1234 33.8981 42.2435 33.8616 42.3128L31.2069 40.9156ZM32.0341 40.0609C31.7016 40.2565 31.4419 40.5251 31.2543 40.832L33.8142 42.3964C33.763 42.4801 33.677 42.5751 33.5552 42.6467L32.0341 40.0609ZM33.1201 39.7608C32.7159 39.7608 32.3473 39.8767 32.0341 40.0609L33.5552 42.6467C33.4528 42.707 33.3012 42.7608 33.1201 42.7608V39.7608ZM34.2732 40.0862C33.9426 39.8878 33.5515 39.7608 33.1201 39.7608V42.7608C32.9491 42.7608 32.8123 42.7082 32.7297 42.6587L34.2732 40.0862ZM35.6145 40.9476L34.3126 40.1107L32.6903 42.6342L33.9922 43.4711L35.6145 40.9476ZM33.2758 40.9396L33.3037 42.2415L36.303 42.1772L36.2751 40.8753L33.2758 40.9396ZM33.9008 39.3446C33.4439 39.8015 33.259 40.3859 33.2761 40.9529L36.2748 40.862C36.2767 40.9247 36.2691 41.0275 36.2239 41.1494C36.1775 41.2749 36.1049 41.3831 36.0221 41.4659L33.9008 39.3446ZM35.4729 38.7007C34.8973 38.7007 34.3369 38.9085 33.9008 39.3446L36.0221 41.4659C35.954 41.534 35.8615 41.5994 35.7487 41.6445C35.6376 41.689 35.5397 41.7007 35.4729 41.7007V38.7007ZM37.0664 39.3963C36.6347 38.9214 36.0577 38.7007 35.4729 38.7007V41.7007C35.398 41.7007 35.2856 41.6872 35.1581 41.6333C35.0281 41.5783 34.9228 41.4981 34.8466 41.4143L37.0664 39.3963ZM37.6325 40.9543C37.6498 40.3996 37.4736 39.8442 37.0664 39.3963L34.8466 41.4143C34.7791 41.34 34.7183 41.2437 34.6787 41.131C34.6398 41.0204 34.6319 40.9248 34.6339 40.8606L37.6325 40.9543ZM37.5661 42.258L37.6312 40.984L34.6351 40.8309L34.57 42.1049L37.5661 42.258ZM36.5649 40.1009L35.2723 40.91L36.8639 43.453L38.1565 42.6439L36.5649 40.1009ZM37.742 39.7515C37.2888 39.7515 36.8687 39.8916 36.5137 40.1345L38.2078 42.6104C38.1541 42.6471 38.0836 42.6844 37.9978 42.7116C37.9113 42.739 37.8241 42.7515 37.742 42.7515V39.7515ZM38.8902 40.0964C38.5372 39.8611 38.1391 39.7515 37.742 39.7515V42.7515C37.5805 42.7515 37.3932 42.704 37.2262 42.5926L38.8902 40.0964ZM39.6112 40.8672C39.4313 40.5434 39.1631 40.245 38.7936 40.0372L37.3228 42.6519C37.1517 42.5556 37.0446 42.4247 36.9887 42.3241L39.6112 40.8672ZM39.9023 41.9583C39.9023 41.5508 39.7913 41.1594 39.5799 40.8134L37.0201 42.3778C36.945 42.255 36.9023 42.1054 36.9023 41.9583H39.9023ZM39.5593 43.108C39.7738 42.7765 39.9023 42.3845 39.9023 41.9583H36.9023C36.9023 41.7677 36.9626 41.5989 37.0406 41.4782L39.5593 43.108ZM38.6825 43.8858C39.0205 43.7168 39.3307 43.4613 39.5593 43.108L37.0406 41.4782C37.1329 41.3356 37.2508 41.2475 37.3409 41.2025L38.6825 43.8858ZM37.3596 44.5795L38.708 43.8727L37.3153 41.2156L35.9669 41.9224L37.3596 44.5795ZM38.7766 42.6824L37.3723 41.9291L35.9542 44.5728L37.3584 45.326L38.7766 42.6824ZM30.1178 51.5998C30.007 51.5473 29.8647 51.4429 29.7577 51.2717L32.3017 49.6816C32.0706 49.312 31.7485 49.0527 31.4021 48.8886L30.1178 51.5998ZM28.6467 50.8128L30.0509 51.566L31.469 48.9224L30.0648 48.1691L28.6467 50.8128ZM30.0078 47.4556L28.6594 48.1624L30.0521 50.8195L31.4005 50.1127L30.0078 47.4556ZM29.7331 47.7182C29.8254 47.5756 29.9433 47.4875 30.0334 47.4425L31.375 50.1258C31.713 49.9568 32.0232 49.7013 32.2518 49.348L29.7331 47.7182ZM29.5948 48.1983C29.5948 48.0077 29.655 47.8388 29.7331 47.7182L32.2518 49.3479C32.4663 49.0165 32.5948 48.6245 32.5948 48.1983H29.5948ZM29.7125 48.6178C29.6375 48.495 29.5948 48.3454 29.5948 48.1983H32.5948C32.5948 47.7908 32.4838 47.3994 32.2724 47.0534L29.7125 48.6178ZM30.0153 48.8919C29.8441 48.7956 29.7371 48.6647 29.6812 48.5641L32.3037 47.1071C32.1238 46.7834 31.8556 46.485 31.4861 46.2772L30.0153 48.8919ZM30.4345 48.9915C30.273 48.9915 30.0857 48.944 29.9186 48.8326L31.5827 46.3364C31.2297 46.1011 30.8316 45.9915 30.4345 45.9915V48.9915ZM30.9002 48.8504C30.8465 48.8871 30.7761 48.9244 30.6903 48.9516C30.6038 48.979 30.5166 48.9915 30.4345 48.9915V45.9915C29.9813 45.9915 29.5612 46.1315 29.2062 46.3745L30.9002 48.8504ZM29.5564 49.693L30.849 48.8839L29.2574 46.3409L27.9648 47.15L29.5564 49.693ZM27.3276 47.0709L27.2625 48.3449L30.2586 48.498L30.3237 47.224L27.3276 47.0709ZM27.5391 47.6543C27.4716 47.58 27.4108 47.4837 27.3712 47.371C27.3323 47.2603 27.3244 47.1647 27.3264 47.1006L30.3249 47.1943C30.3423 46.6396 30.1661 46.0842 29.7589 45.6363L27.5391 47.6543ZM28.1654 47.9407C28.0905 47.9407 27.9781 47.9272 27.8506 47.8733C27.7206 47.8183 27.6153 47.7381 27.5391 47.6543L29.7589 45.6363C29.3272 45.1613 28.7502 44.9407 28.1654 44.9407V47.9407ZM28.7146 47.7059C28.6465 47.774 28.554 47.8394 28.4412 47.8845C28.3301 47.929 28.2322 47.9407 28.1654 47.9407V44.9407C27.5898 44.9407 27.0294 45.1485 26.5933 45.5846L28.7146 47.7059ZM28.9673 47.102C28.9692 47.1647 28.9616 47.2675 28.9164 47.3894C28.8699 47.5149 28.7974 47.6231 28.7146 47.7059L26.5933 45.5846C26.1364 46.0415 25.9515 46.6259 25.9686 47.1929L28.9673 47.102ZM28.9955 48.4172L28.9676 47.1153L25.9683 47.1796L25.9962 48.4815L28.9955 48.4172ZM25.3828 48.8742L26.6847 49.7111L28.307 47.1876L27.005 46.3506L25.3828 48.8742ZM25.8126 49.0008C25.6416 49.0008 25.5048 48.9482 25.4221 48.8986L26.9657 46.3262C26.6351 46.1278 26.244 46.0008 25.8126 46.0008V49.0008ZM26.2477 48.8867C26.1453 48.9469 25.9937 49.0008 25.8126 49.0008V46.0008C25.4084 46.0008 25.0398 46.1167 24.7266 46.3009L26.2477 48.8867ZM26.5067 48.6364C26.4555 48.7201 26.3694 48.8151 26.2477 48.8867L24.7266 46.3009C24.3941 46.4965 24.1344 46.7651 23.9468 47.072L26.5067 48.6364ZM26.6338 48.2076C26.6338 48.3633 26.5906 48.4835 26.5541 48.5528L23.8994 47.1556C23.7389 47.4605 23.6338 47.8162 23.6338 48.2076H26.6338ZM26.5197 47.7911C26.5953 47.9196 26.6338 48.0681 26.6338 48.2076H23.6338C23.6338 48.5951 23.7343 48.9729 23.9339 49.3122L26.5197 47.7911ZM26.1951 47.4661C26.2791 47.5103 26.4016 47.6012 26.4988 47.7567L23.9548 49.3466C24.1759 49.7006 24.4782 49.9526 24.7978 50.1208L26.1951 47.4661ZM27.5847 48.2029L26.1991 47.4682L24.7938 50.1187L26.1794 50.8534L27.5847 48.2029ZM26.1722 51.5786L27.5671 50.8626L26.1971 48.1937L24.8021 48.9097L26.1722 51.5786ZM26.4582 51.3101C26.366 51.4527 26.248 51.5408 26.158 51.5858L24.8163 48.9025C24.4783 49.0715 24.1682 49.327 23.9395 49.6804L26.4582 51.3101ZM26.6059 50.8301C26.6059 50.9901 26.56 51.1398 26.4918 51.2558L23.906 49.7347C23.7138 50.0615 23.6059 50.4344 23.6059 50.8301H26.6059ZM26.4918 50.4229C26.5742 50.563 26.6059 50.7108 26.6059 50.8301H23.6059C23.6059 51.2097 23.6995 51.593 23.906 51.944L26.4918 50.4229ZM26.2356 50.1718C26.3711 50.2565 26.4603 50.3654 26.5101 50.455L23.8876 51.9119C24.0614 52.2246 24.3118 52.5072 24.6457 52.7158L26.2356 50.1718ZM25.7568 50.0275C25.9081 50.0275 26.0554 50.0686 26.1761 50.1365L24.7052 52.7512C25.0243 52.9307 25.3824 53.0275 25.7568 53.0275V50.0275ZM25.3279 50.1477C25.4322 50.0818 25.5834 50.0275 25.7568 50.0275V53.0275C26.1906 53.0275 26.5898 52.8989 26.9298 52.6842L25.3279 50.1477ZM26.6657 49.3278L25.3452 50.1369L26.9124 52.695L28.233 51.8859L26.6657 49.3278ZM28.8727 52.0467L28.9471 50.6889L25.9516 50.5248L25.8772 51.8825L28.8727 52.0467ZM28.6616 51.4671C28.7332 51.5459 28.7939 51.645 28.8323 51.7561C28.8697 51.8644 28.8759 51.9547 28.8743 52.01L25.8756 51.9192C25.8591 52.4657 26.0263 53.0281 26.4417 53.4851L28.6616 51.4671ZM28.0445 51.1807C28.1199 51.1807 28.2275 51.1943 28.3476 51.2441C28.4693 51.2946 28.5667 51.367 28.6367 51.4403L26.4666 53.5118C26.896 53.9616 27.4602 54.1807 28.0445 54.1807V51.1807ZM27.4767 51.4247C27.5502 51.3512 27.6478 51.2834 27.764 51.2373C27.878 51.1921 27.9776 51.1807 28.0445 51.1807V54.1807C28.6067 54.1807 29.1633 53.9807 29.5981 53.546L27.4767 51.4247ZM27.2241 52.0193C27.2221 51.9558 27.2301 51.8575 27.2718 51.7426C27.3145 51.6252 27.38 51.5255 27.4524 51.4496L29.6224 53.5211C30.055 53.0679 30.2399 52.4964 30.2227 51.9285L27.2241 52.0193ZM27.1958 50.571L27.2237 52.0031L30.2231 51.9447L30.1952 50.5126L27.1958 50.571ZM30.8591 50.1415L29.5014 49.2766L27.8896 51.8069L29.2473 52.6718L30.8591 50.1415ZM30.4345 50.0275C30.5166 50.0275 30.6038 50.04 30.6902 50.0674C30.7761 50.0947 30.8465 50.1319 30.9002 50.1686L29.2062 52.6446C29.5612 52.8875 29.9813 53.0275 30.4345 53.0275V50.0275ZM29.965 50.1625C30.1059 50.0744 30.2733 50.0275 30.4345 50.0275V53.0275C30.8313 53.0275 31.2156 52.9186 31.555 52.7065L29.965 50.1625ZM29.6998 50.4457C29.7618 50.3341 29.8639 50.2214 29.9995 50.1416L31.5205 52.7274C31.8669 52.5237 32.1363 52.2373 32.3223 51.9026L29.6998 50.4457ZM29.6227 50.8022C29.6227 50.6119 29.6829 50.4723 29.7248 50.4024L32.2973 51.9459C32.488 51.628 32.6227 51.2404 32.6227 50.8022H29.6227ZM29.7577 51.2717C29.6696 51.1307 29.6227 50.9634 29.6227 50.8022H32.6227C32.6227 50.4053 32.5138 50.021 32.3017 49.6817L29.7577 51.2717ZM46.5374 49.6817C46.3064 49.312 45.9843 49.0527 45.6379 48.8886L44.3536 51.5998C44.2428 51.5473 44.1005 51.443 43.9934 51.2717L46.5374 49.6817ZM46.8584 50.8022C46.8584 50.4053 46.7495 50.021 46.5374 49.6817L43.9934 51.2717C43.9053 51.1307 43.8584 50.9634 43.8584 50.8022H46.8584ZM46.533 51.9459C46.7238 51.628 46.8584 51.2404 46.8584 50.8022H43.8584C43.8584 50.6119 43.9187 50.4723 43.9606 50.4024L46.533 51.9459ZM45.7562 52.7274C46.1027 52.5237 46.3721 52.2373 46.5581 51.9026L43.9356 50.4457C43.9975 50.3341 44.0996 50.2214 44.2352 50.1416L45.7562 52.7274ZM44.6702 53.0275C45.0671 53.0275 45.4514 52.9186 45.7907 52.7065L44.2007 50.1625C44.3417 50.0744 44.509 50.0275 44.6702 50.0275V53.0275ZM43.442 52.6446C43.797 52.8875 44.217 53.0275 44.6702 53.0275V50.0275C44.7523 50.0275 44.8395 50.04 44.926 50.0674C45.0119 50.0947 45.0823 50.1319 45.136 50.1686L43.442 52.6446ZM42.1254 51.8069L43.4831 52.6718L45.0948 50.1415L43.7371 49.2766L42.1254 51.8069ZM44.4588 51.9447L44.4309 50.5126L41.4315 50.571L41.4594 52.0031L44.4588 51.9447ZM43.8582 53.5211C44.2907 53.0679 44.4757 52.4964 44.4584 51.9284L41.4598 52.0193C41.4579 51.9559 41.4658 51.8575 41.5076 51.7426C41.5503 51.6252 41.6158 51.5254 41.6881 51.4496L43.8582 53.5211ZM42.2803 54.1807C42.8424 54.1807 43.3991 53.9807 43.8338 53.546L41.7125 51.4247C41.786 51.3512 41.8835 51.2834 41.9997 51.2373C42.1138 51.1921 42.2134 51.1807 42.2803 51.1807V54.1807ZM40.7024 53.5118C41.1317 53.9616 41.6959 54.1807 42.2803 54.1807V51.1807C42.3557 51.1807 42.4633 51.1943 42.5833 51.2441C42.705 51.2946 42.8024 51.367 42.8724 51.4404L40.7024 53.5118ZM40.1114 51.9192C40.0948 52.4656 40.262 53.0281 40.6775 53.4851L42.8973 51.4671C42.969 51.5459 43.0296 51.6449 43.068 51.7561C43.1054 51.8644 43.1117 51.9547 43.11 52.01L40.1114 51.9192ZM40.1873 50.5248L40.1129 51.8825L43.1085 52.0467L43.1828 50.6889L40.1873 50.5248ZM41.1482 52.695L42.4687 51.8859L40.9015 49.3278L39.5809 50.1369L41.1482 52.695ZM39.9926 53.0275C40.4264 53.0275 40.8256 52.8989 41.1655 52.6842L39.5636 50.1477C39.668 50.0818 39.8192 50.0275 39.9926 50.0275V53.0275ZM38.941 52.7512C39.2601 52.9307 39.6181 53.0275 39.9926 53.0275V50.0275C40.1439 50.0275 40.2911 50.0686 40.4118 50.1365L38.941 52.7512ZM38.1234 51.9119C38.2971 52.2246 38.5476 52.5072 38.8814 52.7158L40.4714 50.1718C40.6068 50.2565 40.6961 50.3654 40.7458 50.455L38.1234 51.9119ZM37.8416 50.8301C37.8416 51.2097 37.9353 51.593 38.1417 51.944L40.7275 50.4229C40.8099 50.563 40.8416 50.7108 40.8416 50.8301H37.8416ZM38.1417 49.7347C37.9495 50.0615 37.8416 50.4344 37.8416 50.8301H40.8416C40.8416 50.9901 40.7957 51.1398 40.7275 51.2558L38.1417 49.7347ZM39.0521 48.9025C38.7141 49.0715 38.4039 49.327 38.1753 49.6804L40.694 51.3101C40.6017 51.4527 40.4837 51.5408 40.3937 51.5858L39.0521 48.9025ZM40.4328 48.1937L39.0379 48.9097L40.4079 51.5786L41.8028 50.8626L40.4328 48.1937ZM39.0295 50.1187L40.4152 50.8534L41.8205 48.2029L40.4348 47.4682L39.0295 50.1187ZM38.1905 49.3466C38.4117 49.7006 38.7139 49.9526 39.0336 50.1208L40.4308 47.4661C40.5149 47.5103 40.6373 47.6012 40.7345 47.7567L38.1905 49.3466ZM37.8695 48.2076C37.8695 48.5951 37.97 48.9729 38.1696 49.3122L40.7554 47.7911C40.831 47.9196 40.8695 48.0681 40.8695 48.2076H37.8695ZM38.1351 47.1556C37.9747 47.4605 37.8695 47.8162 37.8695 48.2076H40.8695C40.8695 48.3633 40.8264 48.4835 40.7899 48.5528L38.1351 47.1556ZM38.9624 46.3009C38.6298 46.4965 38.3701 46.7651 38.1826 47.072L40.7424 48.6364C40.6913 48.7201 40.6052 48.8151 40.4834 48.8867L38.9624 46.3009ZM40.0484 46.0008C39.6442 46.0008 39.2755 46.1167 38.9624 46.3009L40.4834 48.8867C40.381 48.9469 40.2294 49.0008 40.0484 49.0008V46.0008ZM41.2014 46.3262C40.8708 46.1278 40.4798 46.0008 40.0484 46.0008V49.0008C39.8774 49.0008 39.7405 48.9482 39.6579 48.8986L41.2014 46.3262ZM42.5427 47.1876L41.2408 46.3506L39.6185 48.8742L40.9205 49.7111L42.5427 47.1876ZM40.204 47.1796L40.2319 48.4815L43.2313 48.4172L43.2034 47.1153L40.204 47.1796ZM40.829 45.5846C40.3721 46.0415 40.1872 46.6259 40.2044 47.1929L43.203 47.102C43.2049 47.1647 43.1973 47.2675 43.1522 47.3894C43.1057 47.5149 43.0332 47.6231 42.9503 47.7059L40.829 45.5846ZM42.4012 44.9407C41.8255 44.9407 41.2651 45.1485 40.829 45.5846L42.9504 47.7059C42.8823 47.774 42.7898 47.8394 42.6769 47.8845C42.5659 47.929 42.4679 47.9407 42.4012 47.9407V44.9407ZM43.9947 45.6363C43.5629 45.1613 42.986 44.9407 42.4012 44.9407V47.9407C42.3263 47.9407 42.2138 47.9272 42.0864 47.8733C41.9563 47.8183 41.851 47.7381 41.7748 47.6543L43.9947 45.6363ZM44.5607 47.1943C44.578 46.6396 44.4018 46.0842 43.9947 45.6363L41.7748 47.6543C41.7073 47.58 41.6466 47.4837 41.6069 47.371C41.568 47.2603 41.5602 47.1647 41.5622 47.1006L44.5607 47.1943ZM44.4944 48.498L44.5595 47.224L41.5634 47.0709L41.4983 48.3449L44.4944 48.498ZM43.4931 46.3409L42.2005 47.15L43.7922 49.693L45.0848 48.8839L43.4931 46.3409ZM44.6702 45.9915C44.217 45.9915 43.7969 46.1315 43.4419 46.3745L45.136 48.8504C45.0823 48.8871 45.0119 48.9244 44.926 48.9516C44.8395 48.979 44.7523 48.9915 44.6702 48.9915V45.9915ZM45.8185 46.3364C45.4654 46.1011 45.0673 45.9915 44.6702 45.9915V48.9915C44.5087 48.9915 44.3214 48.944 44.1544 48.8326L45.8185 46.3364ZM46.5394 47.1071C46.3596 46.7834 46.0914 46.485 45.7218 46.2771L44.251 48.8919C44.0799 48.7956 43.9729 48.6646 43.917 48.5641L46.5394 47.1071ZM46.8305 48.1983C46.8305 47.7908 46.7196 47.3994 46.5081 47.0534L43.9483 48.6178C43.8733 48.495 43.8305 48.3454 43.8305 48.1983H46.8305ZM46.4876 49.3479C46.702 49.0165 46.8305 48.6245 46.8305 48.1983H43.8305C43.8305 48.0076 43.8908 47.8388 43.9688 47.7182L46.4876 49.3479ZM45.6108 50.1258C45.9488 49.9568 46.2589 49.7013 46.4876 49.348L43.9689 47.7182C44.0611 47.5756 44.1791 47.4875 44.2691 47.4425L45.6108 50.1258ZM44.2879 50.8195L45.6363 50.1127L44.2436 47.4556L42.8951 48.1624L44.2879 50.8195ZM45.7048 48.9224L44.3006 48.1691L42.8824 50.8128L44.2867 51.566L45.7048 48.9224Z" fill="#F8F9FA" mask="url(#path-1-outside-1_694_6609)"/>
</g>
<path d="M24.4298 44.0047C24.5476 44.0605 24.6375 44.138 24.6995 44.2372C24.7615 44.3364 24.7925 44.4449 24.7925 44.5627C24.7925 44.6866 24.7553 44.8106 24.6809 44.9346C24.6189 45.0462 24.5352 45.133 24.4298 45.195C24.3306 45.257 24.2221 45.288 24.1043 45.288C23.9679 45.288 23.8408 45.2477 23.723 45.1671L22.3653 44.3023L22.3932 45.7344C22.3994 45.939 22.3374 46.1095 22.2072 46.2459C22.077 46.3761 21.9127 46.4412 21.7143 46.4412C21.516 46.4412 21.3517 46.373 21.2215 46.2366C21.0975 46.1002 21.0386 45.9297 21.0448 45.7251L21.1192 44.3674L19.7986 45.1764C19.6809 45.2508 19.5569 45.288 19.4267 45.288C19.3151 45.288 19.2097 45.2601 19.1105 45.2043C19.0113 45.1423 18.9307 45.0555 18.8687 44.9439C18.8067 44.8385 18.7757 44.7207 18.7757 44.5906C18.7757 44.4728 18.8067 44.3612 18.8687 44.2558C18.9369 44.1504 19.033 44.0667 19.157 44.0047L20.5519 43.2886L19.1663 42.554C19.0485 42.492 18.9586 42.4114 18.8966 42.3122C18.8346 42.2068 18.8036 42.0921 18.8036 41.9681C18.8036 41.8503 18.8346 41.7325 18.8966 41.6147C18.9648 41.5031 19.0516 41.4163 19.157 41.3543C19.2624 41.2923 19.3709 41.2613 19.4825 41.2613C19.6127 41.2613 19.7397 41.2985 19.8637 41.3729L21.1657 42.2099L21.1378 40.9079C21.1316 40.7033 21.1936 40.536 21.3238 40.4058C21.4602 40.2694 21.6307 40.2012 21.8352 40.2012C22.0336 40.2012 22.1948 40.2694 22.3188 40.4058C22.4428 40.5422 22.5017 40.7095 22.4955 40.9079L22.4304 42.182L23.723 41.3729C23.8408 41.2923 23.9679 41.252 24.1043 41.252C24.2221 41.252 24.3275 41.283 24.4205 41.345C24.5197 41.4008 24.6003 41.4845 24.6623 41.5961C24.7305 41.7077 24.7646 41.8286 24.7646 41.9588C24.7646 42.0766 24.7305 42.1882 24.6623 42.2936C24.5941 42.399 24.498 42.4827 24.374 42.5447L23.0256 43.2514L24.4298 44.0047Z" fill="#212529"/>
<path d="M38.0675 44.0047C38.1853 44.0605 38.2752 44.138 38.3372 44.2372C38.3992 44.3364 38.4302 44.4449 38.4302 44.5627C38.4302 44.6866 38.393 44.8106 38.3186 44.9346C38.2566 45.0462 38.1729 45.133 38.0675 45.195C37.9683 45.257 37.8598 45.288 37.742 45.288C37.6056 45.288 37.4785 45.2477 37.3607 45.1671L36.003 44.3023L36.0309 45.7344C36.0371 45.939 35.9751 46.1095 35.8449 46.2459C35.7147 46.3761 35.5504 46.4412 35.352 46.4412C35.1537 46.4412 34.9894 46.373 34.8592 46.2366C34.7352 46.1002 34.6763 45.9297 34.6825 45.7251L34.7569 44.3674L33.4363 45.1764C33.3185 45.2508 33.1946 45.288 33.0644 45.288C32.9528 45.288 32.8474 45.2601 32.7482 45.2043C32.649 45.1423 32.5684 45.0555 32.5064 44.9439C32.4444 44.8385 32.4134 44.7207 32.4134 44.5906C32.4134 44.4728 32.4444 44.3612 32.5064 44.2558C32.5746 44.1504 32.6707 44.0667 32.7947 44.0047L34.1896 43.2886L32.804 42.554C32.6862 42.492 32.5963 42.4114 32.5343 42.3122C32.4723 42.2068 32.4413 42.0921 32.4413 41.9681C32.4413 41.8503 32.4723 41.7325 32.5343 41.6147C32.6025 41.5031 32.6893 41.4163 32.7947 41.3543C32.9001 41.2923 33.0086 41.2613 33.1202 41.2613C33.2503 41.2613 33.3774 41.2985 33.5014 41.3729L34.8034 42.2099L34.7755 40.9079C34.7693 40.7033 34.8313 40.536 34.9615 40.4058C35.0979 40.2694 35.2683 40.2012 35.4729 40.2012C35.6713 40.2012 35.8325 40.2694 35.9565 40.4058C36.0805 40.5422 36.1394 40.7095 36.1332 40.9079L36.0681 42.182L37.3607 41.3729C37.4785 41.2923 37.6056 41.252 37.742 41.252C37.8598 41.252 37.9652 41.283 38.0582 41.345C38.1574 41.4008 38.238 41.4845 38.3 41.5961C38.3682 41.7077 38.4023 41.8286 38.4023 41.9588C38.4023 42.0766 38.3682 42.1882 38.3 42.2936C38.2318 42.399 38.1357 42.4827 38.0117 42.5447L36.6633 43.2514L38.0675 44.0047Z" fill="#212529"/>
<path d="M30.76 50.2439C30.8778 50.2997 30.9677 50.3772 31.0297 50.4764C31.0917 50.5756 31.1227 50.6841 31.1227 50.8019C31.1227 50.9259 31.0855 51.0499 31.0111 51.1739C30.9491 51.2855 30.8654 51.3723 30.76 51.4343C30.6608 51.4963 30.5523 51.5273 30.4345 51.5273C30.2981 51.5273 30.171 51.487 30.0532 51.4064L28.6955 50.5415L28.7234 51.9737C28.7296 52.1782 28.6676 52.3487 28.5374 52.4851C28.4072 52.6153 28.2429 52.6804 28.0445 52.6804C27.8462 52.6804 27.6819 52.6122 27.5517 52.4758C27.4277 52.3394 27.3688 52.1689 27.375 51.9644L27.4494 50.6066L26.1288 51.4157C26.0111 51.4901 25.8871 51.5273 25.7569 51.5273C25.6453 51.5273 25.5399 51.4994 25.4407 51.4436C25.3415 51.3816 25.2609 51.2948 25.1989 51.1832C25.1369 51.0778 25.1059 50.96 25.1059 50.8298C25.1059 50.712 25.1369 50.6004 25.1989 50.495C25.2671 50.3896 25.3632 50.3059 25.4872 50.2439L26.8821 49.5279L25.4965 48.7932C25.3787 48.7312 25.2888 48.6506 25.2268 48.5514C25.1648 48.446 25.1338 48.3313 25.1338 48.2073C25.1338 48.0895 25.1648 47.9718 25.2268 47.854C25.295 47.7424 25.3818 47.6556 25.4872 47.5936C25.5926 47.5316 25.7011 47.5006 25.8127 47.5006C25.9429 47.5006 26.0699 47.5378 26.1939 47.6122L27.4959 48.4491L27.468 47.1472C27.4618 46.9426 27.5238 46.7752 27.654 46.645C27.7904 46.5086 27.9609 46.4404 28.1654 46.4404C28.3638 46.4404 28.525 46.5086 28.649 46.645C28.773 46.7814 28.8319 46.9488 28.8257 47.1472L28.7606 48.4212L30.0532 47.6122C30.171 47.5316 30.2981 47.4913 30.4345 47.4913C30.5523 47.4913 30.6577 47.5223 30.7507 47.5843C30.8499 47.6401 30.9305 47.7238 30.9925 47.8354C31.0607 47.947 31.0948 48.0678 31.0948 48.198C31.0948 48.3158 31.0607 48.4274 30.9925 48.5328C30.9243 48.6382 30.8282 48.7219 30.7042 48.7839L29.3558 49.4907L30.76 50.2439Z" fill="#212529"/>
<path d="M44.9957 50.2439C45.1135 50.2997 45.2034 50.3772 45.2654 50.4764C45.3274 50.5756 45.3584 50.6841 45.3584 50.8019C45.3584 50.9259 45.3212 51.0499 45.2468 51.1739C45.1848 51.2855 45.1011 51.3723 44.9957 51.4343C44.8965 51.4963 44.788 51.5273 44.6702 51.5273C44.5339 51.5273 44.4068 51.487 44.289 51.4064L42.9312 50.5415L42.9591 51.9737C42.9653 52.1782 42.9033 52.3487 42.7731 52.4851C42.6429 52.6153 42.4787 52.6804 42.2803 52.6804C42.0819 52.6804 41.9176 52.6122 41.7874 52.4758C41.6634 52.3394 41.6045 52.1689 41.6107 51.9644L41.6851 50.6066L40.3646 51.4157C40.2468 51.4901 40.1228 51.5273 39.9926 51.5273C39.881 51.5273 39.7756 51.4994 39.6764 51.4436C39.5772 51.3816 39.4966 51.2948 39.4346 51.1832C39.3726 51.0778 39.3416 50.96 39.3416 50.8298C39.3416 50.712 39.3726 50.6004 39.4346 50.495C39.5028 50.3896 39.5989 50.3059 39.7229 50.2439L41.1178 49.5279L39.7322 48.7932C39.6144 48.7312 39.5245 48.6506 39.4625 48.5514C39.4005 48.446 39.3695 48.3313 39.3695 48.2073C39.3695 48.0895 39.4005 47.9718 39.4625 47.854C39.5307 47.7424 39.6175 47.6556 39.7229 47.5936C39.8283 47.5316 39.9368 47.5006 40.0484 47.5006C40.1786 47.5006 40.3057 47.5378 40.4297 47.6122L41.7316 48.4491L41.7037 47.1472C41.6975 46.9426 41.7595 46.7752 41.8897 46.645C42.0261 46.5086 42.1966 46.4404 42.4012 46.4404C42.5995 46.4404 42.7607 46.5086 42.8847 46.645C43.0087 46.7814 43.0676 46.9488 43.0614 47.1472L42.9963 48.4212L44.289 47.6122C44.4068 47.5316 44.5339 47.4913 44.6702 47.4913C44.788 47.4913 44.8934 47.5223 44.9864 47.5843C45.0856 47.6401 45.1662 47.7238 45.2282 47.8354C45.2964 47.947 45.3305 48.0678 45.3305 48.198C45.3305 48.3158 45.2964 48.4274 45.2282 48.5328C45.16 48.6382 45.0639 48.7219 44.9399 48.7839L43.5915 49.4907L44.9957 50.2439Z" fill="#212529"/>
<path fill-rule="evenodd" clip-rule="evenodd" d="M27.7934 10.8545C22.2152 10.8545 16.4692 14.4428 16.0848 22.8692C16.0848 22.8692 9.82397 24.2562 9.82397 29.8552C9.82397 32.3373 10.7223 36.6506 17.0558 36.6506C23.3893 36.6506 37.9996 36.6506 41.4548 36.6506C44.91 36.6506 50.176 34.5647 50.176 28.0524C50.176 21.54 44.0787 18.9744 39.4479 18.9744C37.4485 13.6419 33.3717 10.8545 27.7934 10.8545Z" fill="#4DABF7" stroke="#212529" stroke-width="2" stroke-linecap="round" stroke-linejoin="round"/>
<g style="mix-blend-mode:multiply" opacity="0.3">
<path fill-rule="evenodd" clip-rule="evenodd" d="M21.2961 35.7188H38.8807C41.79 35.7188 46.2238 33.785 46.2238 27.7475C46.2238 21.71 41.09 19.3315 37.191 19.3315C35.7018 14.9585 32.8439 12.4316 28.9531 11.9066C29.4254 11.8376 29.901 11.8037 30.3752 11.8037C35.072 11.8037 38.5045 14.3879 40.188 19.3315C44.0871 19.3315 49.2209 21.7101 49.2209 27.7475C49.2209 33.785 44.787 35.7188 41.8778 35.7188H21.3344C21.3216 35.7188 21.3089 35.7188 21.2961 35.7188Z" fill="#4DABF7"/>
</g>
<g style="mix-blend-mode:soft-light" opacity="0.4">
<path d="M18.4235 21.8872C18.5961 16.9413 23.0493 13.2968 25.2543 12.0928C18.5241 13.3154 16.6978 20.058 16.6259 23.2765L18.4235 21.8872Z" fill="#F8F9FA"/>
</g>
<defs>
<filter id="filter0_d_694_6609" x="7.10397" y="8.33449" width="45.7921" height="46.2662" filterUnits="userSpaceOnUse" color-interpolation-filters="sRGB">
<feFlood flood-opacity="0" result="BackgroundImageFix"/>
<feColorMatrix in="SourceAlpha" type="matrix" values="0 0 0 0 0 0 0 0 0 0 0 0 0 0 0 0 0 0 127 0" result="hardAlpha"/>
<feOffset dy="0.2"/>
<feGaussianBlur stdDeviation="0.11"/>
<feComposite in2="hardAlpha" operator="out"/>
<feColorMatrix type="matrix" values="0 0 0 0 0 0 0 0 0 0 0 0 0 0 0 0 0 0 0.2 0"/>
<feBlend mode="normal" in2="BackgroundImageFix" result="effect1_dropShadow_694_6609"/>
<feBlend mode="normal" in="SourceGraphic" in2="effect1_dropShadow_694_6609" result="shape"/>
</filter>
</defs>
</svg>
