<svg width="60" height="60" viewBox="0 0 60 60" fill="none" xmlns="http://www.w3.org/2000/svg">
<mask id="path-1-outside-1_50_6950" maskUnits="userSpaceOnUse" x="8.89343" y="12.1143" width="43" height="38" fill="black">
<rect fill="white" x="8.89343" y="12.1143" width="43" height="38"/>
<path fill-rule="evenodd" clip-rule="evenodd" d="M25.8518 15.8232L12.6974 15.8233C12.6449 15.8233 12.6024 15.8658 12.6024 15.9182V39.2226C12.6024 42.9455 15.6204 45.9636 19.3434 45.9636H41.6076C45.2811 45.9636 48.259 42.9856 48.259 39.3122C48.259 35.6388 45.2811 32.6609 41.6076 32.6608L27.5981 32.6608C26.686 32.6608 25.9467 31.9215 25.9467 31.0095V15.9182C25.9467 15.8657 25.9042 15.8232 25.8518 15.8232ZM12.6974 14.1143L25.8518 14.1143C26.848 14.1143 27.6557 14.9219 27.6557 15.9182V30.9519L41.6076 30.9519C46.2249 30.9519 49.968 34.6949 49.968 39.3122C49.968 43.9295 46.2249 47.6725 41.6076 47.6725H19.3434C14.6766 47.6725 10.8934 43.8894 10.8934 39.2226V15.9182C10.8934 14.9219 11.7011 14.1143 12.6974 14.1143Z"/>
</mask>
<path fill-rule="evenodd" clip-rule="evenodd" d="M25.8518 15.8232L12.6974 15.8233C12.6449 15.8233 12.6024 15.8658 12.6024 15.9182V39.2226C12.6024 42.9455 15.6204 45.9636 19.3434 45.9636H41.6076C45.2811 45.9636 48.259 42.9856 48.259 39.3122C48.259 35.6388 45.2811 32.6609 41.6076 32.6608L27.5981 32.6608C26.686 32.6608 25.9467 31.9215 25.9467 31.0095V15.9182C25.9467 15.8657 25.9042 15.8232 25.8518 15.8232ZM12.6974 14.1143L25.8518 14.1143C26.848 14.1143 27.6557 14.9219 27.6557 15.9182V30.9519L41.6076 30.9519C46.2249 30.9519 49.968 34.6949 49.968 39.3122C49.968 43.9295 46.2249 47.6725 41.6076 47.6725H19.3434C14.6766 47.6725 10.8934 43.8894 10.8934 39.2226V15.9182C10.8934 14.9219 11.7011 14.1143 12.6974 14.1143Z" fill="#F8F9FA"/>
<path d="M12.6974 15.8233L12.6974 17.3233L12.6974 17.3233L12.6974 15.8233ZM25.8518 15.8232L25.8518 14.3232L25.8518 14.3232L25.8518 15.8232ZM41.6076 32.6608L41.6076 31.1608L41.6076 31.1608L41.6076 32.6608ZM27.5981 32.6608L27.5981 31.1608H27.5981V32.6608ZM25.8518 14.1143L25.8518 12.6143L25.8518 12.6143L25.8518 14.1143ZM12.6974 14.1143L12.6974 15.6143L12.6974 15.6143L12.6974 14.1143ZM27.6557 30.9519H26.1557C26.1557 31.7803 26.8272 32.4519 27.6557 32.4519L27.6557 30.9519ZM41.6076 30.9519L41.6076 29.4519L41.6076 30.9519ZM12.6974 17.3233L25.8518 17.3232L25.8518 14.3232L12.6974 14.3233L12.6974 17.3233ZM14.1024 15.9182C14.1024 16.6942 13.4733 17.3233 12.6974 17.3233L12.6974 14.3233C11.8165 14.3233 11.1024 15.0373 11.1024 15.9182H14.1024ZM14.1024 39.2226V15.9182H11.1024V39.2226H14.1024ZM19.3434 44.4636C16.4489 44.4636 14.1024 42.1171 14.1024 39.2226H11.1024C11.1024 43.7739 14.792 47.4636 19.3434 47.4636V44.4636ZM41.6076 44.4636H19.3434V47.4636H41.6076V44.4636ZM46.759 39.3122C46.759 42.1572 44.4526 44.4636 41.6076 44.4636V47.4636C46.1095 47.4636 49.759 43.8141 49.759 39.3122H46.759ZM41.6076 34.1608C44.4526 34.1609 46.759 36.4672 46.759 39.3122H49.759C49.759 34.8103 46.1095 31.1609 41.6076 31.1608L41.6076 34.1608ZM27.5981 34.1608L41.6076 34.1608L41.6076 31.1608L27.5981 31.1608L27.5981 34.1608ZM24.4467 31.0095C24.4467 32.7499 25.8576 34.1608 27.5981 34.1608V31.1608C27.5145 31.1608 27.4467 31.0931 27.4467 31.0095H24.4467ZM24.4467 15.9182V31.0095H27.4467V15.9182H24.4467ZM25.8518 17.3232C25.0758 17.3232 24.4467 16.6942 24.4467 15.9182H27.4467C27.4467 15.0373 26.7326 14.3232 25.8518 14.3232V17.3232ZM25.8518 12.6143L12.6973 12.6143L12.6974 15.6143L25.8518 15.6143L25.8518 12.6143ZM29.1557 15.9182C29.1557 14.0935 27.6765 12.6143 25.8518 12.6143V15.6143C26.0196 15.6143 26.1557 15.7503 26.1557 15.9182H29.1557ZM29.1557 30.9519V15.9182H26.1557V30.9519H29.1557ZM41.6076 29.4519L27.6557 29.4519L27.6557 32.4519L41.6076 32.4519L41.6076 29.4519ZM51.468 39.3122C51.468 33.8665 47.0533 29.4519 41.6076 29.4519L41.6076 32.4519C45.3965 32.4519 48.468 35.5233 48.468 39.3122H51.468ZM41.6076 49.1725C47.0533 49.1725 51.468 44.7579 51.468 39.3122H48.468C48.468 43.1011 45.3965 46.1725 41.6076 46.1725V49.1725ZM19.3434 49.1725H41.6076V46.1725H19.3434V49.1725ZM9.39343 39.2226C9.39343 44.7178 13.8482 49.1725 19.3434 49.1725V46.1725C15.505 46.1725 12.3934 43.0609 12.3934 39.2226H9.39343ZM9.39343 15.9182V39.2226H12.3934V15.9182H9.39343ZM12.6973 12.6143C10.8726 12.6143 9.39343 14.0935 9.39343 15.9182H12.3934C12.3934 15.7503 12.5295 15.6143 12.6974 15.6143L12.6973 12.6143Z" fill="#F8F9FA" mask="url(#path-1-outside-1_50_6950)"/>
<path d="M25.8012 14.9688L12.7479 14.9688C12.1956 14.9688 11.7479 15.4165 11.7479 15.9688V38.818C11.7479 43.2363 15.3296 46.818 19.7479 46.818H41.6076C45.753 46.818 49.1135 43.4576 49.1135 39.3122C49.1135 35.1668 45.753 31.8064 41.6076 31.8064L27.5981 31.8064C27.158 31.8064 26.8012 31.4496 26.8012 31.0095V15.9688C26.8012 15.4165 26.3535 14.9688 25.8012 14.9688Z" fill="#CC5DE8" stroke="#212529" stroke-width="1.8" stroke-linejoin="round"/>
<path d="M40.432 45.8037C39.4114 38.4401 43.0079 34.6376 45.279 33.5222C45.5857 33.3716 45.9474 33.4357 46.2033 33.6619C48.306 35.5209 49.491 38.1653 48.6362 41.4494C47.7895 44.7025 44.3386 46.787 41.2317 46.5803C40.8134 46.5524 40.4895 46.2189 40.432 45.8037Z" fill="#E599F7" stroke="#212529" stroke-width="1.4" stroke-linejoin="round"/>
<path d="M24.3153 45.9609C23.5851 38.2064 16.6721 35.1894 12.6159 34.7171C12.0631 34.6527 11.6056 35.1037 11.5758 35.6595C11.4461 38.0762 11.1126 41.6768 13.5355 44.4147C16.0178 47.2196 20.4103 47.0675 23.3532 46.9998C23.9141 46.9869 24.3679 46.5195 24.3153 45.9609Z" fill="#E599F7" stroke="#212529" stroke-width="1.4" stroke-linejoin="round"/>
<rect x="11.7479" y="14.9688" width="15.0519" height="4.34806" rx="1" fill="#E599F7" stroke="#212529" stroke-width="1.4" stroke-linejoin="round"/>
<g style="mix-blend-mode:multiply">
<path fill-rule="evenodd" clip-rule="evenodd" d="M14.37 14.7451C13.8208 14.7488 13.3768 15.1951 13.3768 15.7451V38.5944C13.3768 43.0127 16.9585 46.5944 21.3768 46.5944H41.6271C41.6206 46.5944 41.6141 46.5944 41.6076 46.5944H19.7479C15.3296 46.5944 11.7479 43.0127 11.7479 38.5944V15.7451C11.7479 15.1928 12.1956 14.7451 12.7479 14.7451L14.37 14.7451Z" fill="#DEE2E6"/>
</g>
</svg>
