<svg width="61" height="60" viewBox="0 0 61 60" fill="none" xmlns="http://www.w3.org/2000/svg">
<mask id="path-1-outside-1_50_8588" maskUnits="userSpaceOnUse" x="5.4646" y="7.41504" width="50" height="43" fill="black">
<rect fill="white" x="5.4646" y="7.41504" width="50" height="43"/>
<path fill-rule="evenodd" clip-rule="evenodd" d="M31.2087 9.69213C30.8235 9.32393 30.2172 9.32251 29.8303 9.6889L26.0457 13.2723C25.6446 13.652 25.6274 14.2849 26.0071 14.686C26.3868 15.087 27.0197 15.1043 27.4208 14.7246L29.3001 12.9452V19.3359C29.3001 19.9986 29.8373 20.5359 30.5001 20.5359C31.1628 20.5359 31.7001 19.9986 31.7001 19.3359V12.9284L33.576 14.7214C33.9753 15.1029 34.6083 15.0886 34.9899 14.6894C35.3715 14.2901 35.3572 13.6571 34.9579 13.2755L31.2087 9.69213ZM44.4976 20.6492C44.9663 20.1806 44.9663 19.4208 44.4976 18.9522C44.029 18.4835 43.2692 18.4835 42.8006 18.9522L39.6139 22.1388C39.1453 22.6075 39.1453 23.3673 39.6139 23.8359C40.0825 24.3045 40.8423 24.3045 41.311 23.8359L44.4976 20.6492ZM23.6631 33.416C23.6631 29.7043 26.672 26.6954 30.3836 26.6954C34.0953 26.6954 37.1042 29.7043 37.1042 33.416C37.1042 34.9458 36.5943 36.3543 35.7338 37.4839H25.0335C24.173 36.3543 23.6631 34.9458 23.6631 33.416ZM30.3836 24.2954C25.3465 24.2954 21.2631 28.3788 21.2631 33.416C21.2631 35.0542 21.6958 36.5928 22.4524 37.9221H8.4646C7.91231 37.9221 7.4646 38.3698 7.4646 38.9221C7.4646 39.4744 7.91231 39.9221 8.4646 39.9221H52.5356C53.0878 39.9221 53.5356 39.4744 53.5356 38.9221C53.5356 38.3698 53.0878 37.9221 52.5356 37.9221H38.3148C39.0715 36.5928 39.5042 35.0542 39.5042 33.416C39.5042 28.3788 35.4208 24.2954 30.3836 24.2954ZM16.223 32.6792C16.8762 32.7915 17.4967 32.3529 17.6089 31.6998C17.7211 31.0466 17.2826 30.4261 16.6294 30.3139L12.0637 29.5294C11.4106 29.4172 10.7901 29.8557 10.6778 30.5089C10.5656 31.162 11.0041 31.7825 11.6573 31.8947L16.223 32.6792ZM43.5382 31.6998C43.6504 32.3529 44.2709 32.7915 44.924 32.6792L49.4898 31.8947C50.1429 31.7825 50.5815 31.162 50.4692 30.5089C50.357 29.8557 49.7365 29.4172 49.0833 29.5294L44.5176 30.3139C43.8645 30.4261 43.4259 31.0466 43.5382 31.6998ZM21.1533 23.8357C20.6847 24.3043 19.9249 24.3043 19.4563 23.8357L16.2696 20.649C15.801 20.1804 15.801 19.4206 16.2696 18.952C16.7382 18.4833 17.498 18.4833 17.9667 18.952L21.1533 22.1387C21.622 22.6073 21.622 23.3671 21.1533 23.8357ZM12.4355 42.9873C12.4355 42.435 12.8832 41.9873 13.4355 41.9873H47.5647C48.117 41.9873 48.5647 42.435 48.5647 42.9873C48.5647 43.5396 48.117 43.9873 47.5647 43.9873H13.4355C12.8832 43.9873 12.4355 43.5396 12.4355 42.9873ZM18.278 46.1678C17.7257 46.1678 17.278 46.6156 17.278 47.1678C17.278 47.7201 17.7257 48.1678 18.278 48.1678H42.7222C43.2744 48.1678 43.7222 47.7201 43.7222 47.1678C43.7222 46.6156 43.2744 46.1678 42.7222 46.1678H18.278Z"/>
</mask>
<path fill-rule="evenodd" clip-rule="evenodd" d="M31.2087 9.69213C30.8235 9.32393 30.2172 9.32251 29.8303 9.6889L26.0457 13.2723C25.6446 13.652 25.6274 14.2849 26.0071 14.686C26.3868 15.087 27.0197 15.1043 27.4208 14.7246L29.3001 12.9452V19.3359C29.3001 19.9986 29.8373 20.5359 30.5001 20.5359C31.1628 20.5359 31.7001 19.9986 31.7001 19.3359V12.9284L33.576 14.7214C33.9753 15.1029 34.6083 15.0886 34.9899 14.6894C35.3715 14.2901 35.3572 13.6571 34.9579 13.2755L31.2087 9.69213ZM44.4976 20.6492C44.9663 20.1806 44.9663 19.4208 44.4976 18.9522C44.029 18.4835 43.2692 18.4835 42.8006 18.9522L39.6139 22.1388C39.1453 22.6075 39.1453 23.3673 39.6139 23.8359C40.0825 24.3045 40.8423 24.3045 41.311 23.8359L44.4976 20.6492ZM23.6631 33.416C23.6631 29.7043 26.672 26.6954 30.3836 26.6954C34.0953 26.6954 37.1042 29.7043 37.1042 33.416C37.1042 34.9458 36.5943 36.3543 35.7338 37.4839H25.0335C24.173 36.3543 23.6631 34.9458 23.6631 33.416ZM30.3836 24.2954C25.3465 24.2954 21.2631 28.3788 21.2631 33.416C21.2631 35.0542 21.6958 36.5928 22.4524 37.9221H8.4646C7.91231 37.9221 7.4646 38.3698 7.4646 38.9221C7.4646 39.4744 7.91231 39.9221 8.4646 39.9221H52.5356C53.0878 39.9221 53.5356 39.4744 53.5356 38.9221C53.5356 38.3698 53.0878 37.9221 52.5356 37.9221H38.3148C39.0715 36.5928 39.5042 35.0542 39.5042 33.416C39.5042 28.3788 35.4208 24.2954 30.3836 24.2954ZM16.223 32.6792C16.8762 32.7915 17.4967 32.3529 17.6089 31.6998C17.7211 31.0466 17.2826 30.4261 16.6294 30.3139L12.0637 29.5294C11.4106 29.4172 10.7901 29.8557 10.6778 30.5089C10.5656 31.162 11.0041 31.7825 11.6573 31.8947L16.223 32.6792ZM43.5382 31.6998C43.6504 32.3529 44.2709 32.7915 44.924 32.6792L49.4898 31.8947C50.1429 31.7825 50.5815 31.162 50.4692 30.5089C50.357 29.8557 49.7365 29.4172 49.0833 29.5294L44.5176 30.3139C43.8645 30.4261 43.4259 31.0466 43.5382 31.6998ZM21.1533 23.8357C20.6847 24.3043 19.9249 24.3043 19.4563 23.8357L16.2696 20.649C15.801 20.1804 15.801 19.4206 16.2696 18.952C16.7382 18.4833 17.498 18.4833 17.9667 18.952L21.1533 22.1387C21.622 22.6073 21.622 23.3671 21.1533 23.8357ZM12.4355 42.9873C12.4355 42.435 12.8832 41.9873 13.4355 41.9873H47.5647C48.117 41.9873 48.5647 42.435 48.5647 42.9873C48.5647 43.5396 48.117 43.9873 47.5647 43.9873H13.4355C12.8832 43.9873 12.4355 43.5396 12.4355 42.9873ZM18.278 46.1678C17.7257 46.1678 17.278 46.6156 17.278 47.1678C17.278 47.7201 17.7257 48.1678 18.278 48.1678H42.7222C43.2744 48.1678 43.7222 47.7201 43.7222 47.1678C43.7222 46.6156 43.2744 46.1678 42.7222 46.1678H18.278Z" fill="#F8F9FA"/>
<path d="M29.8303 9.6889L30.8616 10.7781L30.8616 10.7781L29.8303 9.6889ZM31.2087 9.69213L30.1723 10.7765L30.1723 10.7765L31.2087 9.69213ZM26.0457 13.2723L25.0144 12.1831L25.0144 12.1831L26.0457 13.2723ZM26.0071 14.686L24.9179 15.7173L24.9179 15.7173L26.0071 14.686ZM27.4208 14.7246L26.3894 13.6354L26.3894 13.6354L27.4208 14.7246ZM29.3001 12.9452H30.8001C30.8001 12.3459 30.4434 11.8042 29.893 11.5673C29.3425 11.3305 28.7039 11.4439 28.2688 11.856L29.3001 12.9452ZM31.7001 12.9284L32.7365 11.844C32.3024 11.4291 31.6626 11.313 31.1104 11.5491C30.5582 11.7852 30.2001 12.3278 30.2001 12.9284H31.7001ZM33.576 14.7214L32.5396 15.8057L32.5396 15.8057L33.576 14.7214ZM34.9899 14.6894L36.0742 15.7258L36.0742 15.7258L34.9899 14.6894ZM34.9579 13.2755L33.9215 14.3599L33.9215 14.3599L34.9579 13.2755ZM44.4976 18.9522L45.5583 17.8915L45.5583 17.8915L44.4976 18.9522ZM44.4976 20.6492L45.5583 21.7099L45.5583 21.7099L44.4976 20.6492ZM42.8006 18.9522L41.7399 17.8915L41.7399 17.8915L42.8006 18.9522ZM39.6139 22.1388L40.6746 23.1995L40.6746 23.1995L39.6139 22.1388ZM39.6139 23.8359L40.6746 22.7752L40.6746 22.7752L39.6139 23.8359ZM41.311 23.8359L40.2503 22.7752L40.2503 22.7752L41.311 23.8359ZM35.7338 37.4839V38.9839C36.202 38.9839 36.6433 38.7653 36.927 38.3928L35.7338 37.4839ZM25.0335 37.4839L23.8402 38.3928C24.1239 38.7653 24.5653 38.9839 25.0335 38.9839V37.4839ZM22.4524 37.9221V39.4221C22.9867 39.4221 23.4806 39.138 23.7492 38.6761C24.0177 38.2142 24.0203 37.6444 23.756 37.1801L22.4524 37.9221ZM38.3148 37.9221L37.0112 37.1801C36.7469 37.6444 36.7495 38.2142 37.0181 38.6761C37.2866 39.138 37.7806 39.4221 38.3148 39.4221V37.9221ZM17.6089 31.6998L16.1306 31.4457L16.1306 31.4457L17.6089 31.6998ZM16.223 32.6792L16.477 31.2009L16.477 31.2009L16.223 32.6792ZM16.6294 30.3139L16.8834 28.8355L16.8834 28.8355L16.6294 30.3139ZM12.0637 29.5294L11.8097 31.0077L11.8097 31.0077L12.0637 29.5294ZM10.6778 30.5089L12.1562 30.7629L12.1562 30.7629L10.6778 30.5089ZM11.6573 31.8947L11.4033 33.3731L11.4033 33.3731L11.6573 31.8947ZM44.924 32.6792L45.1781 34.1576L45.1781 34.1576L44.924 32.6792ZM43.5382 31.6998L45.0165 31.4457L45.0165 31.4457L43.5382 31.6998ZM49.4898 31.8947L49.2357 30.4164L49.2357 30.4164L49.4898 31.8947ZM49.0833 29.5294L48.8293 28.0511L48.8293 28.0511L49.0833 29.5294ZM44.5176 30.3139L44.7716 31.7922L44.7716 31.7922L44.5176 30.3139ZM21.1533 23.8357L20.0927 22.7751L20.0927 22.7751L21.1533 23.8357ZM16.2696 20.649L17.3303 19.5884L17.3303 19.5884L16.2696 20.649ZM16.2696 18.952L15.2089 17.8913L15.2089 17.8913L16.2696 18.952ZM17.9667 18.952L16.906 20.0126L16.906 20.0126L17.9667 18.952ZM21.1533 22.1387L22.214 21.078L22.214 21.078L21.1533 22.1387ZM30.8616 10.7781C30.6681 10.9613 30.3649 10.9606 30.1723 10.7765L32.2452 8.60777C31.2821 7.68726 29.7663 7.68371 28.7989 8.59968L30.8616 10.7781ZM27.077 14.3615L30.8616 10.7781L28.7989 8.59968L25.0144 12.1831L27.077 14.3615ZM27.0963 13.6547C27.2861 13.8552 27.2775 14.1717 27.077 14.3615L25.0144 12.1831C24.0118 13.1324 23.9686 14.7147 24.9179 15.7173L27.0963 13.6547ZM26.3894 13.6354C26.59 13.4455 26.9064 13.4542 27.0963 13.6547L24.9179 15.7173C25.8672 16.7199 27.4495 16.7631 28.4521 15.8138L26.3894 13.6354ZM28.2688 11.856L26.3894 13.6354L28.4521 15.8138L30.3314 14.0344L28.2688 11.856ZM30.8001 19.3359V12.9452H27.8001V19.3359H30.8001ZM30.5001 19.0359C30.6658 19.0359 30.8001 19.1702 30.8001 19.3359H27.8001C27.8001 20.8271 29.0089 22.0359 30.5001 22.0359V19.0359ZM30.2001 19.3359C30.2001 19.1702 30.3344 19.0359 30.5001 19.0359V22.0359C31.9912 22.0359 33.2001 20.8271 33.2001 19.3359H30.2001ZM30.2001 12.9284V19.3359H33.2001V12.9284H30.2001ZM34.6124 13.637L32.7365 11.844L30.6637 14.0127L32.5396 15.8057L34.6124 13.637ZM33.9055 13.653C34.0963 13.4533 34.4128 13.4462 34.6124 13.637L32.5396 15.8057C33.5377 16.7597 35.1202 16.7239 36.0742 15.7258L33.9055 13.653ZM33.9215 14.3599C33.7219 14.1691 33.7147 13.8526 33.9055 13.653L36.0742 15.7258C37.0282 14.7277 36.9925 13.1452 35.9943 12.1912L33.9215 14.3599ZM30.1723 10.7765L33.9215 14.3599L35.9943 12.1912L32.2452 8.60777L30.1723 10.7765ZM43.437 20.0128C43.3198 19.8957 43.3198 19.7057 43.437 19.5886L45.5583 21.7099C46.6127 20.6555 46.6127 18.9459 45.5583 17.8915L43.437 20.0128ZM43.8612 20.0128C43.7441 20.13 43.5541 20.13 43.437 20.0128L45.5583 17.8915C44.5039 16.8371 42.7943 16.8371 41.7399 17.8915L43.8612 20.0128ZM40.6746 23.1995L43.8612 20.0128L41.7399 17.8915L38.5532 21.0782L40.6746 23.1995ZM40.6746 22.7752C40.7917 22.8924 40.7917 23.0823 40.6746 23.1995L38.5532 21.0782C37.4988 22.1326 37.4988 23.8421 38.5532 24.8966L40.6746 22.7752ZM40.2503 22.7752C40.3675 22.6581 40.5574 22.6581 40.6746 22.7752L38.5532 24.8966C39.6077 25.951 41.3172 25.951 42.3716 24.8966L40.2503 22.7752ZM43.437 19.5886L40.2503 22.7752L42.3716 24.8966L45.5583 21.7099L43.437 19.5886ZM30.3836 25.1954C25.8435 25.1954 22.1631 28.8759 22.1631 33.416H25.1631C25.1631 30.5327 27.5004 28.1954 30.3836 28.1954V25.1954ZM38.6042 33.416C38.6042 28.8759 34.9237 25.1954 30.3836 25.1954V28.1954C33.2669 28.1954 35.6042 30.5327 35.6042 33.416H38.6042ZM36.927 38.3928C37.9797 37.0109 38.6042 35.2852 38.6042 33.416H35.6042C35.6042 34.6064 35.2088 35.6977 34.5406 36.5749L36.927 38.3928ZM25.0335 38.9839H35.7338V35.9839H25.0335V38.9839ZM22.1631 33.416C22.1631 35.2852 22.7875 37.0109 23.8402 38.3928L26.2267 36.5749C25.5585 35.6977 25.1631 34.6064 25.1631 33.416H22.1631ZM22.7631 33.416C22.7631 29.2073 26.1749 25.7954 30.3836 25.7954V22.7954C24.5181 22.7954 19.7631 27.5504 19.7631 33.416H22.7631ZM23.756 37.1801C23.1245 36.0707 22.7631 34.787 22.7631 33.416H19.7631C19.7631 35.3214 20.267 37.1149 21.1488 38.6642L23.756 37.1801ZM8.4646 39.4221H22.4524V36.4221H8.4646V39.4221ZM8.9646 38.9221C8.9646 39.1983 8.74074 39.4221 8.4646 39.4221V36.4221C7.08389 36.4221 5.9646 37.5414 5.9646 38.9221H8.9646ZM8.4646 38.4221C8.74074 38.4221 8.9646 38.646 8.9646 38.9221H5.9646C5.9646 40.3028 7.08389 41.4221 8.4646 41.4221V38.4221ZM52.5356 38.4221H8.4646V41.4221H52.5356V38.4221ZM52.0356 38.9221C52.0356 38.646 52.2594 38.4221 52.5356 38.4221V41.4221C53.9163 41.4221 55.0356 40.3028 55.0356 38.9221H52.0356ZM52.5356 39.4221C52.2594 39.4221 52.0356 39.1983 52.0356 38.9221H55.0356C55.0356 37.5414 53.9163 36.4221 52.5356 36.4221V39.4221ZM38.3148 39.4221H52.5356V36.4221H38.3148V39.4221ZM38.0042 33.416C38.0042 34.787 37.6427 36.0707 37.0112 37.1801L39.6184 38.6642C40.5003 37.1149 41.0042 35.3214 41.0042 33.416H38.0042ZM30.3836 25.7954C34.5924 25.7954 38.0042 29.2073 38.0042 33.416H41.0042C41.0042 27.5504 36.2492 22.7954 30.3836 22.7954V25.7954ZM16.1306 31.4457C16.1586 31.2825 16.3137 31.1728 16.477 31.2009L15.969 34.1576C17.4386 34.4101 18.8347 33.4234 19.0872 31.9538L16.1306 31.4457ZM16.3754 31.7922C16.2121 31.7642 16.1025 31.609 16.1306 31.4457L19.0872 31.9538C19.3397 30.4841 18.3531 29.0881 16.8834 28.8355L16.3754 31.7922ZM11.8097 31.0077L16.3754 31.7922L16.8834 28.8355L12.3177 28.0511L11.8097 31.0077ZM12.1562 30.7629C12.1281 30.9262 11.973 31.0358 11.8097 31.0077L12.3177 28.0511C10.8481 27.7985 9.45202 28.7852 9.19951 30.2549L12.1562 30.7629ZM11.9113 30.4164C12.0746 30.4445 12.1842 30.5996 12.1562 30.7629L9.19951 30.2549C8.94699 31.7245 9.93366 33.1206 11.4033 33.3731L11.9113 30.4164ZM16.477 31.2009L11.9113 30.4164L11.4033 33.3731L15.969 34.1576L16.477 31.2009ZM44.67 31.2009C44.8333 31.1728 44.9885 31.2825 45.0165 31.4457L42.0598 31.9538C42.3123 33.4234 43.7084 34.4101 45.1781 34.1576L44.67 31.2009ZM49.2357 30.4164L44.67 31.2009L45.1781 34.1576L49.7438 33.3731L49.2357 30.4164ZM48.9909 30.7629C48.9628 30.5996 49.0725 30.4445 49.2357 30.4164L49.7438 33.3731C51.2134 33.1206 52.2001 31.7245 51.9476 30.2549L48.9909 30.7629ZM49.3374 31.0077C49.1741 31.0358 49.0189 30.9262 48.9909 30.7629L51.9476 30.2549C51.695 28.7852 50.299 27.7985 48.8293 28.0511L49.3374 31.0077ZM44.7716 31.7922L49.3374 31.0077L48.8293 28.0511L44.2636 28.8355L44.7716 31.7922ZM45.0165 31.4457C45.0446 31.609 44.9349 31.7642 44.7716 31.7922L44.2636 28.8355C42.794 29.0881 41.8073 30.4841 42.0598 31.9538L45.0165 31.4457ZM18.3956 24.8964C19.45 25.9508 21.1596 25.9508 22.214 24.8964L20.0927 22.7751C20.2098 22.6579 20.3998 22.6579 20.5169 22.7751L18.3956 24.8964ZM15.2089 21.7097L18.3956 24.8964L20.5169 22.7751L17.3303 19.5884L15.2089 21.7097ZM15.2089 17.8913C14.1545 18.9457 14.1545 20.6553 15.2089 21.7097L17.3303 19.5884C17.4474 19.7055 17.4474 19.8955 17.3303 20.0126L15.2089 17.8913ZM19.0273 17.8913C17.9729 16.8369 16.2634 16.8369 15.2089 17.8913L17.3303 20.0126C17.2131 20.1298 17.0231 20.1298 16.906 20.0126L19.0273 17.8913ZM22.214 21.078L19.0273 17.8913L16.906 20.0126L20.0927 23.1993L22.214 21.078ZM22.214 24.8964C23.2684 23.842 23.2684 22.1324 22.214 21.078L20.0927 23.1993C19.9755 23.0822 19.9755 22.8922 20.0927 22.7751L22.214 24.8964ZM13.4355 40.4873C12.0548 40.4873 10.9355 41.6066 10.9355 42.9873H13.9355C13.9355 43.2634 13.7116 43.4873 13.4355 43.4873V40.4873ZM47.5647 40.4873H13.4355V43.4873H47.5647V40.4873ZM50.0647 42.9873C50.0647 41.6066 48.9454 40.4873 47.5647 40.4873V43.4873C47.2885 43.4873 47.0647 43.2634 47.0647 42.9873H50.0647ZM47.5647 45.4873C48.9454 45.4873 50.0647 44.368 50.0647 42.9873H47.0647C47.0647 42.7112 47.2885 42.4873 47.5647 42.4873V45.4873ZM13.4355 45.4873H47.5647V42.4873H13.4355V45.4873ZM10.9355 42.9873C10.9355 44.368 12.0548 45.4873 13.4355 45.4873V42.4873C13.7116 42.4873 13.9355 42.7112 13.9355 42.9873H10.9355ZM18.778 47.1678C18.778 47.444 18.5541 47.6678 18.278 47.6678V44.6678C16.8973 44.6678 15.778 45.7871 15.778 47.1678H18.778ZM18.278 46.6678C18.5541 46.6678 18.778 46.8917 18.778 47.1678H15.778C15.778 48.5486 16.8973 49.6678 18.278 49.6678V46.6678ZM42.7222 46.6678H18.278V49.6678H42.7222V46.6678ZM42.2222 47.1678C42.2222 46.8917 42.446 46.6678 42.7222 46.6678V49.6678C44.1029 49.6678 45.2222 48.5486 45.2222 47.1678H42.2222ZM42.7222 47.6678C42.446 47.6678 42.2222 47.444 42.2222 47.1678H45.2222C45.2222 45.7871 44.1029 44.6678 42.7222 44.6678V47.6678ZM18.278 47.6678H42.7222V44.6678H18.278V47.6678Z" fill="#F8F9FA" mask="url(#path-1-outside-1_50_8588)"/>
<path d="M30.3835 25.6074C26.0091 25.6074 22.4629 29.1536 22.4629 33.528C22.4629 35.5506 23.221 37.3961 24.4686 38.7959H36.2984C37.5459 37.3961 38.304 35.5506 38.304 33.528C38.304 29.1536 34.7579 25.6074 30.3835 25.6074Z" fill="#FFE066" stroke="#212529" stroke-width="2.4" stroke-linecap="round" stroke-linejoin="round"/>
<path d="M16.426 31.6084L11.8603 30.8239" stroke="#212529" stroke-width="2.4" stroke-linecap="round" stroke-linejoin="round"/>
<path d="M44.7207 31.6084L49.2864 30.8239" stroke="#212529" stroke-width="2.4" stroke-linecap="round" stroke-linejoin="round"/>
<path d="M43.6489 19.9131L40.4622 23.0998" stroke="#212529" stroke-width="2.4" stroke-linecap="round" stroke-linejoin="round"/>
<path d="M30.4999 19.4485L30.4999 12.3193" stroke="#212529" stroke-width="2.4" stroke-linecap="round" stroke-linejoin="round"/>
<path d="M26.733 14.1107L30.5176 10.5273L34.2668 14.1107" stroke="#212529" stroke-width="2" stroke-linecap="round" stroke-linejoin="round"/>
<path d="M20.3046 23.0996L17.1179 19.9129" stroke="#212529" stroke-width="2.4" stroke-linecap="round" stroke-linejoin="round"/>
<path d="M8.46448 39.0342H52.5354" stroke="#212529" stroke-width="2" stroke-linecap="round" stroke-linejoin="round"/>
<path d="M13.4353 43.0996H47.5645" stroke="#212529" stroke-width="2" stroke-linecap="round" stroke-linejoin="round"/>
<path d="M18.2778 47.2803H42.722" stroke="#212529" stroke-width="2" stroke-linecap="round" stroke-linejoin="round"/>
</svg>
