<svg width="60" height="61" viewBox="0 0 60 61" fill="none" xmlns="http://www.w3.org/2000/svg">
<mask id="path-1-outside-1_50_4632" maskUnits="userSpaceOnUse" x="5.30066" y="13.6729" width="51" height="38" fill="black">
<rect fill="white" x="5.30066" y="13.6729" width="51" height="38"/>
<path fill-rule="evenodd" clip-rule="evenodd" d="M47.969 15.696C49.325 15.8105 50.6937 16.3665 51.3689 17.3988C52.6185 19.3096 51.8894 22.1891 49.6094 23.8068C49.595 23.817 49.5804 23.8268 49.5654 23.8361L19.7498 42.4613C18.668 43.1371 17.2735 43.0271 16.3095 42.1954L16.1916 42.0937C14.2121 40.3859 11.6943 38.2137 9.89639 36.359C9.00522 35.4397 8.23074 34.5384 7.80059 33.7756C7.59306 33.4076 7.397 32.9555 7.40072 32.4884C7.40273 32.2352 7.46394 31.9605 7.62838 31.7076C7.79269 31.4549 8.02107 31.2839 8.26024 31.1749C8.93102 30.8689 9.72848 30.8163 10.5065 30.8771C11.2995 30.9391 12.162 31.1266 13.0217 31.3826C14.7413 31.8946 16.5498 32.7109 17.9492 33.4977C18.002 33.5274 18.0511 33.5202 18.0786 33.5044L24.8223 29.6297C24.8787 29.5973 24.8857 29.5272 24.8485 29.4854C24.4018 28.9833 23.9276 28.4546 23.4392 27.9099L23.4391 27.9099C21.6061 25.8658 19.5719 23.5975 18.0348 21.6744C17.0688 20.4658 16.2495 19.3336 15.8051 18.4478C15.5945 18.0279 15.3975 17.5307 15.4095 17.0536C15.416 16.7907 15.4877 16.4798 15.7092 16.209C15.9323 15.9361 16.2285 15.8004 16.5022 15.7424C16.9454 15.6486 17.4559 15.7013 17.9384 15.7975C18.4434 15.8982 19.0188 16.0683 19.6362 16.2859C20.8725 16.7216 22.3498 17.3737 23.8978 18.1357C26.9954 19.6604 30.4534 21.6631 32.9681 23.3648C33.0099 23.3931 33.0572 23.3909 33.0904 23.3705L43.6254 16.8723C44.976 15.8981 46.5774 15.5786 47.969 15.696ZM47.8176 17.4896C46.7843 17.4024 45.6157 17.6474 44.6574 18.3473C44.6385 18.3611 44.619 18.3742 44.5991 18.3865L34.0354 24.9025C33.3898 25.3007 32.578 25.2742 31.9593 24.8556C29.5182 23.2037 26.1322 21.2418 23.1029 19.7507C21.5876 19.0048 20.1808 18.3863 19.0379 17.9836C18.4657 17.7819 17.9778 17.6408 17.5864 17.5628C17.502 17.5459 17.4256 17.5328 17.357 17.5227C17.3743 17.56 17.3932 17.5993 17.414 17.6407C17.7664 18.3431 18.4797 19.3482 19.4408 20.5506C20.9425 22.4293 22.9281 24.6437 24.7575 26.6837C25.2517 27.2348 25.7345 27.7733 26.1933 28.2889C26.9955 29.1906 26.7577 30.5936 25.719 31.1904L18.9754 35.0651C18.373 35.4112 17.6475 35.393 17.0671 35.0667C15.7631 34.3336 14.078 33.5752 12.508 33.1078C11.723 32.874 10.9917 32.7206 10.3662 32.6717C9.90686 32.6357 9.54769 32.6598 9.28064 32.7222C9.30305 32.7701 9.33174 32.8263 9.36846 32.8914C9.67688 33.4383 10.3101 34.1997 11.1888 35.1062C12.925 36.8972 15.3856 39.021 17.3865 40.7473L17.4853 40.8325C17.8539 41.1505 18.3854 41.1913 18.7962 40.9346L48.5884 22.3241C50.2597 21.1245 50.4557 19.2912 49.8624 18.384C49.6149 18.0056 48.8967 17.5807 47.8176 17.4896ZM7.30066 48.2126C7.30066 47.6604 7.74837 47.2126 8.30066 47.2126H52.841C53.3933 47.2126 53.841 47.6604 53.841 48.2126C53.841 48.7649 53.3933 49.2126 52.841 49.2126H8.30066C7.74837 49.2126 7.30066 48.7649 7.30066 48.2126ZM47.0572 30.4369C47.6688 30.4369 48.1646 29.941 48.1646 29.3294C48.1646 28.7178 47.6688 28.2219 47.0572 28.2219C46.4455 28.2219 45.9497 28.7178 45.9497 29.3294C45.9497 29.941 46.4455 30.4369 47.0572 30.4369ZM35.6968 36.8592C35.6968 37.4708 35.201 37.9666 34.5893 37.9666C33.9777 37.9666 33.4818 37.4708 33.4818 36.8592C33.4818 36.2475 33.9777 35.7517 34.5893 35.7517C35.201 35.7517 35.6968 36.2475 35.6968 36.8592ZM29.9876 40.5881C30.5992 40.5881 31.0951 40.0923 31.0951 39.4806C31.0951 38.869 30.5992 38.3732 29.9876 38.3732C29.376 38.3732 28.8801 38.869 28.8801 39.4806C28.8801 40.0923 29.376 40.5881 29.9876 40.5881Z"/>
</mask>
<path fill-rule="evenodd" clip-rule="evenodd" d="M47.969 15.696C49.325 15.8105 50.6937 16.3665 51.3689 17.3988C52.6185 19.3096 51.8894 22.1891 49.6094 23.8068C49.595 23.817 49.5804 23.8268 49.5654 23.8361L19.7498 42.4613C18.668 43.1371 17.2735 43.0271 16.3095 42.1954L16.1916 42.0937C14.2121 40.3859 11.6943 38.2137 9.89639 36.359C9.00522 35.4397 8.23074 34.5384 7.80059 33.7756C7.59306 33.4076 7.397 32.9555 7.40072 32.4884C7.40273 32.2352 7.46394 31.9605 7.62838 31.7076C7.79269 31.4549 8.02107 31.2839 8.26024 31.1749C8.93102 30.8689 9.72848 30.8163 10.5065 30.8771C11.2995 30.9391 12.162 31.1266 13.0217 31.3826C14.7413 31.8946 16.5498 32.7109 17.9492 33.4977C18.002 33.5274 18.0511 33.5202 18.0786 33.5044L24.8223 29.6297C24.8787 29.5973 24.8857 29.5272 24.8485 29.4854C24.4018 28.9833 23.9276 28.4546 23.4392 27.9099L23.4391 27.9099C21.6061 25.8658 19.5719 23.5975 18.0348 21.6744C17.0688 20.4658 16.2495 19.3336 15.8051 18.4478C15.5945 18.0279 15.3975 17.5307 15.4095 17.0536C15.416 16.7907 15.4877 16.4798 15.7092 16.209C15.9323 15.9361 16.2285 15.8004 16.5022 15.7424C16.9454 15.6486 17.4559 15.7013 17.9384 15.7975C18.4434 15.8982 19.0188 16.0683 19.6362 16.2859C20.8725 16.7216 22.3498 17.3737 23.8978 18.1357C26.9954 19.6604 30.4534 21.6631 32.9681 23.3648C33.0099 23.3931 33.0572 23.3909 33.0904 23.3705L43.6254 16.8723C44.976 15.8981 46.5774 15.5786 47.969 15.696ZM47.8176 17.4896C46.7843 17.4024 45.6157 17.6474 44.6574 18.3473C44.6385 18.3611 44.619 18.3742 44.5991 18.3865L34.0354 24.9025C33.3898 25.3007 32.578 25.2742 31.9593 24.8556C29.5182 23.2037 26.1322 21.2418 23.1029 19.7507C21.5876 19.0048 20.1808 18.3863 19.0379 17.9836C18.4657 17.7819 17.9778 17.6408 17.5864 17.5628C17.502 17.5459 17.4256 17.5328 17.357 17.5227C17.3743 17.56 17.3932 17.5993 17.414 17.6407C17.7664 18.3431 18.4797 19.3482 19.4408 20.5506C20.9425 22.4293 22.9281 24.6437 24.7575 26.6837C25.2517 27.2348 25.7345 27.7733 26.1933 28.2889C26.9955 29.1906 26.7577 30.5936 25.719 31.1904L18.9754 35.0651C18.373 35.4112 17.6475 35.393 17.0671 35.0667C15.7631 34.3336 14.078 33.5752 12.508 33.1078C11.723 32.874 10.9917 32.7206 10.3662 32.6717C9.90686 32.6357 9.54769 32.6598 9.28064 32.7222C9.30305 32.7701 9.33174 32.8263 9.36846 32.8914C9.67688 33.4383 10.3101 34.1997 11.1888 35.1062C12.925 36.8972 15.3856 39.021 17.3865 40.7473L17.4853 40.8325C17.8539 41.1505 18.3854 41.1913 18.7962 40.9346L48.5884 22.3241C50.2597 21.1245 50.4557 19.2912 49.8624 18.384C49.6149 18.0056 48.8967 17.5807 47.8176 17.4896ZM7.30066 48.2126C7.30066 47.6604 7.74837 47.2126 8.30066 47.2126H52.841C53.3933 47.2126 53.841 47.6604 53.841 48.2126C53.841 48.7649 53.3933 49.2126 52.841 49.2126H8.30066C7.74837 49.2126 7.30066 48.7649 7.30066 48.2126ZM47.0572 30.4369C47.6688 30.4369 48.1646 29.941 48.1646 29.3294C48.1646 28.7178 47.6688 28.2219 47.0572 28.2219C46.4455 28.2219 45.9497 28.7178 45.9497 29.3294C45.9497 29.941 46.4455 30.4369 47.0572 30.4369ZM35.6968 36.8592C35.6968 37.4708 35.201 37.9666 34.5893 37.9666C33.9777 37.9666 33.4818 37.4708 33.4818 36.8592C33.4818 36.2475 33.9777 35.7517 34.5893 35.7517C35.201 35.7517 35.6968 36.2475 35.6968 36.8592ZM29.9876 40.5881C30.5992 40.5881 31.0951 40.0923 31.0951 39.4806C31.0951 38.869 30.5992 38.3732 29.9876 38.3732C29.376 38.3732 28.8801 38.869 28.8801 39.4806C28.8801 40.0923 29.376 40.5881 29.9876 40.5881Z" fill="#F8F9FA"/>
<path d="M51.3689 17.3988L50.1135 18.2198L50.1135 18.2198L51.3689 17.3988ZM47.969 15.696L47.8428 17.1907L47.969 15.696ZM49.6094 23.8068L50.4773 25.0302L50.4774 25.0302L49.6094 23.8068ZM49.5654 23.8361L50.3601 25.1083L50.3602 25.1083L49.5654 23.8361ZM19.7498 42.4613L18.9551 41.1891L18.9551 41.1891L19.7498 42.4613ZM16.3095 42.1954L17.2894 41.0597L17.2893 41.0596L16.3095 42.1954ZM16.1916 42.0937L15.2118 43.2294L15.2118 43.2294L16.1916 42.0937ZM9.89639 36.359L10.9734 35.315L10.9734 35.315L9.89639 36.359ZM7.80059 33.7756L6.49404 34.5124L6.49404 34.5124L7.80059 33.7756ZM7.40072 32.4884L5.90076 32.4765L5.90076 32.4765L7.40072 32.4884ZM7.62838 31.7076L8.88593 32.5252L8.88593 32.5252L7.62838 31.7076ZM8.26024 31.1749L7.63775 29.8101L7.63775 29.8101L8.26024 31.1749ZM10.5065 30.8771L10.6234 29.3817L10.6234 29.3817L10.5065 30.8771ZM13.0217 31.3826L13.4497 29.945L13.4497 29.945L13.0217 31.3826ZM17.9492 33.4977L17.2141 34.8052L17.2141 34.8052L17.9492 33.4977ZM18.0786 33.5044L18.8259 34.805L18.8259 34.805L18.0786 33.5044ZM24.8223 29.6297L24.075 28.3291L24.075 28.3291L24.8223 29.6297ZM24.8485 29.4854L23.7278 30.4824L23.7278 30.4824L24.8485 29.4854ZM23.4392 27.9099L22.2392 28.8099C22.2654 28.8449 22.2932 28.8788 22.3224 28.9114L23.4392 27.9099ZM23.4391 27.9099L24.6391 27.0099C24.6129 26.9749 24.5851 26.941 24.5559 26.9084L23.4391 27.9099ZM18.0348 21.6744L19.2065 20.7379L19.2065 20.7379L18.0348 21.6744ZM15.8051 18.4478L14.4644 19.1204L14.4644 19.1204L15.8051 18.4478ZM15.4095 17.0536L16.909 17.0911L16.909 17.0911L15.4095 17.0536ZM15.7092 16.209L16.8704 17.1585L16.8704 17.1585L15.7092 16.209ZM16.5022 15.7424L16.8129 17.2099L16.8129 17.2099L16.5022 15.7424ZM17.9384 15.7975L18.2317 14.3265L18.2317 14.3265L17.9384 15.7975ZM19.6362 16.2859L19.1376 17.7006L19.1376 17.7006L19.6362 16.2859ZM23.8978 18.1357L23.2354 19.4815L23.2354 19.4815L23.8978 18.1357ZM32.9681 23.3648L33.8088 22.1225L33.8088 22.1225L32.9681 23.3648ZM33.0904 23.3705L32.3029 22.0938L32.3029 22.0938L33.0904 23.3705ZM43.6254 16.8723L44.4128 18.1489C44.4435 18.13 44.4736 18.1099 44.5028 18.0888L43.6254 16.8723ZM44.6574 18.3473L43.7727 17.136L43.7727 17.136L44.6574 18.3473ZM47.8176 17.4896L47.9438 15.995L47.9438 15.995L47.8176 17.4896ZM44.5991 18.3865L43.8116 17.1098L43.8116 17.1099L44.5991 18.3865ZM34.0354 24.9025L34.8228 26.1792L34.8228 26.1792L34.0354 24.9025ZM31.9593 24.8556L31.1187 26.0979L31.1187 26.0979L31.9593 24.8556ZM23.1029 19.7507L23.7654 18.4049L23.7654 18.4049L23.1029 19.7507ZM19.0379 17.9836L19.5365 16.5688L19.5365 16.5688L19.0379 17.9836ZM17.5864 17.5628L17.2931 19.0338L17.2931 19.0338L17.5864 17.5628ZM17.357 17.5227L17.5752 16.0387C17.0299 15.9585 16.4845 16.1838 16.1548 16.6256C15.8252 17.0673 15.7643 17.6542 15.9964 18.1542L17.357 17.5227ZM17.414 17.6407L16.0733 18.3133L16.0733 18.3133L17.414 17.6407ZM19.4408 20.5506L18.2691 21.4871L18.2691 21.4871L19.4408 20.5506ZM24.7575 26.6837L23.6407 27.6851L23.6407 27.6851L24.7575 26.6837ZM26.1933 28.2889L27.3139 27.2918L27.3139 27.2918L26.1933 28.2889ZM25.719 31.1904L24.9717 29.8898L24.9717 29.8898L25.719 31.1904ZM18.9754 35.0651L19.7226 36.3657L19.7227 36.3657L18.9754 35.0651ZM17.0671 35.0667L17.8022 33.7592L17.8022 33.7592L17.0671 35.0667ZM12.508 33.1078L12.08 34.5454L12.08 34.5454L12.508 33.1078ZM10.3662 32.6717L10.4831 31.1762L10.4831 31.1762L10.3662 32.6717ZM9.28064 32.7222L8.93938 31.2615C8.49896 31.3644 8.12849 31.6606 7.93107 32.0675C7.73366 32.4744 7.73039 32.9486 7.92216 33.3582L9.28064 32.7222ZM9.36846 32.8914L10.675 32.1546L10.675 32.1546L9.36846 32.8914ZM11.1888 35.1062L12.2658 34.0621L12.2658 34.0621L11.1888 35.1062ZM17.3865 40.7473L18.3664 39.6115L18.3664 39.6115L17.3865 40.7473ZM17.4853 40.8325L18.4652 39.6968L18.4652 39.6968L17.4853 40.8325ZM18.7962 40.9346L18.0015 39.6625L18.0015 39.6625L18.7962 40.9346ZM48.5884 22.3241L49.3831 23.5963C49.4103 23.5793 49.4369 23.5614 49.463 23.5427L48.5884 22.3241ZM49.8624 18.384L51.1178 17.563L51.1178 17.563L49.8624 18.384ZM52.6242 16.5779C51.5917 14.9989 49.679 14.335 48.0951 14.2013L47.8428 17.1907C48.971 17.2859 49.7958 17.7341 50.1135 18.2198L52.6242 16.5779ZM50.4774 25.0302C53.2398 23.0701 54.4239 19.3297 52.6242 16.5778L50.1135 18.2198C50.813 19.2895 50.5389 21.3081 48.7414 22.5835L50.4774 25.0302ZM50.3602 25.1083C50.4 25.0834 50.4391 25.0574 50.4773 25.0302L48.7415 22.5834C48.751 22.5767 48.7607 22.5702 48.7707 22.564L50.3602 25.1083ZM20.5445 43.7334L50.3601 25.1083L48.7707 22.5639L18.9551 41.1891L20.5445 43.7334ZM15.3296 43.3311C16.7898 44.5909 18.9034 44.7586 20.5445 43.7334L18.9551 41.1891C18.4326 41.5155 17.7572 41.4633 17.2894 41.0597L15.3296 43.3311ZM15.2118 43.2294L15.3297 43.3311L17.2893 41.0596L17.1715 40.9579L15.2118 43.2294ZM8.81937 37.4031C10.6734 39.3157 13.2474 41.5347 15.2118 43.2294L17.1715 40.9579C15.1769 39.2372 12.7151 37.1117 10.9734 35.315L8.81937 37.4031ZM6.49404 34.5124C7.0255 35.4548 7.91746 36.4727 8.81937 37.4031L10.9734 35.315C10.093 34.4068 9.43598 33.6219 9.10715 33.0388L6.49404 34.5124ZM5.90076 32.4765C5.89387 33.3425 6.24764 34.0755 6.49404 34.5124L9.10715 33.0388C9.03104 32.9038 8.97558 32.7855 8.94045 32.683C8.9053 32.5804 8.9005 32.5223 8.90067 32.5004L5.90076 32.4765ZM6.37083 30.8899C6.02308 31.4248 5.90462 31.9917 5.90076 32.4765L8.90067 32.5004C8.90076 32.4896 8.90209 32.4878 8.90044 32.4938C8.89957 32.497 8.89799 32.5019 8.89536 32.5078C8.89269 32.5138 8.88946 32.5198 8.88593 32.5252L6.37083 30.8899ZM7.63775 29.8101C7.18966 30.0145 6.71823 30.3556 6.37083 30.8899L8.88593 32.5252C8.8824 32.5307 8.87843 32.5358 8.87446 32.5402C8.87055 32.5445 8.86747 32.5472 8.86594 32.5484C8.86318 32.5507 8.86759 32.5465 8.88273 32.5396L7.63775 29.8101ZM10.6234 29.3817C9.73058 29.3119 8.64007 29.3529 7.63775 29.8101L8.88273 32.5396C9.22197 32.3849 9.72638 32.3207 10.3896 32.3726L10.6234 29.3817ZM13.4497 29.945C12.5277 29.6705 11.556 29.4546 10.6234 29.3817L10.3896 32.3726C11.043 32.4237 11.7962 32.5828 12.5936 32.8202L13.4497 29.945ZM18.6843 32.1901C17.2054 31.3587 15.2941 30.4941 13.4497 29.945L12.5936 32.8202C14.1885 33.2951 15.8942 34.0631 17.2141 34.8052L18.6843 32.1901ZM17.3313 32.2038C17.7672 31.9534 18.2813 31.9636 18.6843 32.1901L17.2141 34.8052C17.7228 35.0911 18.3351 35.087 18.8259 34.805L17.3313 32.2038ZM24.075 28.3291L17.3313 32.2038L18.8259 34.805L25.5696 30.9303L24.075 28.3291ZM23.7278 30.4824C23.1478 29.8305 23.2864 28.7822 24.075 28.3291L25.5696 30.9303C26.4709 30.4124 26.6236 29.2239 25.9691 28.4883L23.7278 30.4824ZM22.3224 28.9114C22.8113 29.4565 23.2835 29.983 23.7278 30.4824L25.9691 28.4883C25.5201 27.9837 25.0439 27.4526 24.5559 26.9084L22.3224 28.9114ZM22.2391 28.8099L22.2392 28.8099L24.6392 27.0099L24.6391 27.0099L22.2391 28.8099ZM16.8631 22.6109C18.4323 24.5742 20.4978 26.8768 22.3224 28.9113L24.5559 26.9084C22.7143 24.8549 20.7116 22.6209 19.2065 20.7379L16.8631 22.6109ZM14.4644 19.1204C14.9853 20.1589 15.8927 21.3969 16.8631 22.6109L19.2065 20.7379C18.2448 19.5347 17.5137 18.5084 17.1458 17.7752L14.4644 19.1204ZM13.9099 17.0161C13.8883 17.8827 14.2334 18.6601 14.4644 19.1204L17.1458 17.7752C16.9555 17.3957 16.9068 17.1787 16.909 17.0911L13.9099 17.0161ZM14.548 15.2594C14.0602 15.856 13.9224 16.5196 13.9099 17.0161L16.909 17.0911C16.9093 17.0789 16.911 17.0803 16.9068 17.0933C16.9045 17.1005 16.9005 17.1108 16.894 17.1229C16.8874 17.1353 16.8794 17.1475 16.8704 17.1585L14.548 15.2594ZM16.1914 14.2749C15.6755 14.3842 15.0401 14.6576 14.548 15.2594L16.8704 17.1585C16.8614 17.1695 16.8509 17.1799 16.8399 17.189C16.829 17.1979 16.8194 17.204 16.8126 17.2077C16.8002 17.2146 16.799 17.2128 16.8129 17.2099L16.1914 14.2749ZM18.2317 14.3265C17.6906 14.2186 16.9378 14.1169 16.1914 14.2749L16.8129 17.2099C16.953 17.1802 17.2211 17.184 17.6451 17.2686L18.2317 14.3265ZM20.1348 14.8712C19.4798 14.6403 18.8314 14.4461 18.2317 14.3265L17.6451 17.2686C18.0554 17.3504 18.5579 17.4963 19.1376 17.7006L20.1348 14.8712ZM24.5603 16.7899C22.9849 16.0145 21.4488 15.3343 20.1348 14.8712L19.1376 17.7006C20.2961 18.1089 21.7146 18.733 23.2354 19.4815L24.5603 16.7899ZM33.8088 22.1225C31.2328 20.3794 27.7147 18.3426 24.5603 16.7899L23.2354 19.4815C26.2761 20.9782 29.6741 22.9469 32.1275 24.6071L33.8088 22.1225ZM32.3029 22.0938C32.7709 21.8051 33.3608 21.8194 33.8088 22.1225L32.1275 24.6071C32.659 24.9668 33.3436 24.9767 33.8779 24.6471L32.3029 22.0938ZM42.8379 15.5956L32.3029 22.0938L33.8779 24.6472L44.4128 18.1489L42.8379 15.5956ZM48.0951 14.2013C46.3988 14.0582 44.4291 14.4431 42.7479 15.6557L44.5028 18.0888C45.523 17.353 46.7559 17.099 47.8428 17.1907L48.0951 14.2013ZM45.5421 19.5586C46.1687 19.101 46.9658 18.9231 47.6915 18.9843L47.9438 15.995C46.6029 15.8818 45.0627 16.1938 43.7727 17.136L45.5421 19.5586ZM45.3865 19.6632C45.4398 19.6304 45.4917 19.5955 45.5421 19.5586L43.7727 17.136C43.7853 17.1268 43.7982 17.1181 43.8116 17.1098L45.3865 19.6632ZM34.8228 26.1792L45.3865 19.6632L43.8116 17.1099L33.2479 23.6258L34.8228 26.1792ZM31.1187 26.0979C32.2175 26.8415 33.6663 26.8925 34.8228 26.1792L33.2479 23.6258C33.1132 23.7089 32.9385 23.707 32.8 23.6133L31.1187 26.0979ZM22.4405 21.0965C25.4129 22.5596 28.7388 24.4874 31.1187 26.0979L32.8 23.6133C30.2976 21.9199 26.8515 19.924 23.7654 18.4049L22.4405 21.0965ZM18.5393 19.3983C19.6044 19.7736 20.9524 20.364 22.4405 21.0965L23.7654 18.4049C22.2228 17.6456 20.7572 16.999 19.5365 16.5688L18.5393 19.3983ZM17.2931 19.0338C17.5897 19.093 18.0047 19.2099 18.5393 19.3983L19.5365 16.5688C18.9267 16.3539 18.3658 16.1887 17.8797 16.0917L17.2931 19.0338ZM17.1387 19.0068C17.1806 19.0129 17.2318 19.0216 17.2931 19.0338L17.8797 16.0917C17.7721 16.0703 17.6707 16.0527 17.5752 16.0387L17.1387 19.0068ZM18.7547 16.968C18.7404 16.9395 18.7281 16.9139 18.7176 16.8912L15.9964 18.1542C16.0204 18.2061 16.0461 18.2591 16.0733 18.3133L18.7547 16.968ZM20.6125 19.614C19.6553 18.4164 19.0304 17.5175 18.7547 16.968L16.0733 18.3133C16.5024 19.1687 17.3042 20.2799 18.2691 21.4871L20.6125 19.614ZM25.8742 25.6823C24.0363 23.6327 22.0821 21.4527 20.6125 19.614L18.2691 21.4871C19.8029 23.406 21.82 25.6547 23.6407 27.6851L25.8742 25.6823ZM27.3139 27.2918C26.8528 26.7736 26.368 26.233 25.8742 25.6823L23.6407 27.6851C24.1353 28.2367 24.6161 28.7729 25.0726 29.286L27.3139 27.2918ZM26.4663 32.491C28.3222 31.4247 28.7547 28.9112 27.3139 27.2918L25.0726 29.286C25.2363 29.47 25.1931 29.7626 24.9717 29.8898L26.4663 32.491ZM19.7227 36.3657L26.4663 32.491L24.9717 29.8898L18.2281 33.7645L19.7227 36.3657ZM16.332 36.3742C17.351 36.9471 18.6402 36.9877 19.7226 36.3657L18.2281 33.7645C18.1058 33.8348 17.9441 33.8389 17.8022 33.7592L16.332 36.3742ZM12.08 34.5454C13.5252 34.9757 15.1075 35.6858 16.332 36.3742L17.8022 33.7592C16.4187 32.9814 14.6307 32.1747 12.9361 31.6701L12.08 34.5454ZM10.2493 34.1671C10.7351 34.2051 11.3571 34.3302 12.08 34.5454L12.9361 31.6701C12.0888 31.4179 11.2482 31.2361 10.4831 31.1762L10.2493 34.1671ZM9.62189 34.1829C9.69503 34.1658 9.89102 34.1391 10.2493 34.1671L10.4831 31.1762C9.9227 31.1324 9.40035 31.1538 8.93938 31.2615L9.62189 34.1829ZM10.675 32.1546C10.6556 32.1201 10.6444 32.0975 10.6391 32.0862L7.92216 33.3582C7.9617 33.4427 8.00792 33.5325 8.06191 33.6283L10.675 32.1546ZM12.2658 34.0621C11.397 33.1658 10.8818 32.5213 10.675 32.1546L8.0619 33.6282C8.47191 34.3553 9.22315 35.2335 10.1118 36.1502L12.2658 34.0621ZM18.3664 39.6115C16.3498 37.8718 13.9457 35.7951 12.2658 34.0621L10.1118 36.1502C11.9042 37.9993 14.4213 40.1702 16.4067 41.883L18.3664 39.6115ZM18.4652 39.6968L18.3664 39.6115L16.4067 41.883L16.5055 41.9682L18.4652 39.6968ZM18.0015 39.6625C18.1497 39.5699 18.3373 39.5864 18.4652 39.6968L16.5055 41.9682C17.3704 42.7145 18.6211 42.8126 19.5909 42.2068L18.0015 39.6625ZM47.7937 21.052L18.0015 39.6625L19.5909 42.2068L49.3831 23.5963L47.7937 21.052ZM48.607 19.205C48.6659 19.2951 48.8832 20.2661 47.7137 21.1055L49.463 23.5427C51.6363 21.9828 52.2454 19.2873 51.1178 17.563L48.607 19.205ZM47.6915 18.9843C48.0671 19.016 48.338 19.1027 48.5055 19.1827C48.5893 19.2227 48.6375 19.2563 48.6576 19.2722C48.6814 19.2912 48.6522 19.2742 48.607 19.205L51.1178 17.563C50.7942 17.0683 50.2949 16.7126 49.7982 16.4755C49.275 16.2256 48.6472 16.0543 47.9438 15.995L47.6915 18.9843ZM8.30066 45.7126C6.91995 45.7126 5.80066 46.8319 5.80066 48.2126H8.80066C8.80066 48.4888 8.5768 48.7126 8.30066 48.7126V45.7126ZM52.841 45.7126H8.30066V48.7126H52.841V45.7126ZM55.341 48.2126C55.341 46.8319 54.2218 45.7126 52.841 45.7126V48.7126C52.5649 48.7126 52.341 48.4888 52.341 48.2126H55.341ZM52.841 50.7126C54.2218 50.7126 55.341 49.5934 55.341 48.2126H52.341C52.341 47.9365 52.5649 47.7126 52.841 47.7126V50.7126ZM8.30066 50.7126H52.841V47.7126H8.30066V50.7126ZM5.80066 48.2126C5.80066 49.5934 6.91995 50.7126 8.30066 50.7126V47.7126C8.5768 47.7126 8.80066 47.9365 8.80066 48.2126H5.80066ZM46.6646 29.3294C46.6646 29.1126 46.8404 28.9369 47.0572 28.9369V31.9369C48.4972 31.9369 49.6646 30.7695 49.6646 29.3294H46.6646ZM47.0572 29.7219C46.8404 29.7219 46.6646 29.5462 46.6646 29.3294H49.6646C49.6646 27.8893 48.4972 26.7219 47.0572 26.7219V29.7219ZM47.4497 29.3294C47.4497 29.5462 47.274 29.7219 47.0572 29.7219V26.7219C45.6171 26.7219 44.4497 27.8893 44.4497 29.3294H47.4497ZM47.0572 28.9369C47.274 28.9369 47.4497 29.1126 47.4497 29.3294H44.4497C44.4497 30.7695 45.6171 31.9369 47.0572 31.9369V28.9369ZM34.5893 39.4666C36.0294 39.4666 37.1968 38.2992 37.1968 36.8592H34.1968C34.1968 36.6424 34.3725 36.4666 34.5893 36.4666V39.4666ZM31.9818 36.8592C31.9818 38.2992 33.1492 39.4666 34.5893 39.4666V36.4666C34.8061 36.4666 34.9818 36.6424 34.9818 36.8592H31.9818ZM34.5893 34.2517C33.1492 34.2517 31.9818 35.4191 31.9818 36.8592H34.9818C34.9818 37.076 34.8061 37.2517 34.5893 37.2517V34.2517ZM37.1968 36.8592C37.1968 35.4191 36.0294 34.2517 34.5893 34.2517V37.2517C34.3725 37.2517 34.1968 37.076 34.1968 36.8592H37.1968ZM29.5951 39.4806C29.5951 39.2639 29.7708 39.0881 29.9876 39.0881V42.0881C31.4277 42.0881 32.5951 40.9207 32.5951 39.4806H29.5951ZM29.9876 39.8732C29.7708 39.8732 29.5951 39.6974 29.5951 39.4806H32.5951C32.5951 38.0406 31.4277 36.8732 29.9876 36.8732V39.8732ZM30.3801 39.4806C30.3801 39.6974 30.2044 39.8732 29.9876 39.8732V36.8732C28.5475 36.8732 27.3801 38.0406 27.3801 39.4806H30.3801ZM29.9876 39.0881C30.2044 39.0881 30.3801 39.2639 30.3801 39.4806H27.3801C27.3801 40.9207 28.5475 42.0881 29.9876 42.0881V39.0881Z" fill="#F8F9FA" mask="url(#path-1-outside-1_50_4632)"/>
<path d="M16.6847 16.6443C18.7718 16.2024 27.504 20.778 32.4598 24.1316C32.7901 24.3551 33.2196 24.3673 33.559 24.1579L44.1227 17.642C46.4378 15.951 49.6891 16.5021 50.6117 17.9129C51.5344 19.3237 51.0698 21.6857 49.0847 23.0943L19.2691 41.7194C18.5228 42.1856 17.5598 42.1102 16.8935 41.5354L16.7947 41.4502C12.8114 38.0136 6.81692 32.842 8.62982 32.0151C10.517 31.1543 14.8008 32.7838 17.5043 34.3036C17.8209 34.4816 18.2081 34.4872 18.5231 34.3062L25.2667 30.4315C25.8142 30.1169 25.9367 29.3803 25.517 28.9086C21.2371 24.0982 14.6527 17.0746 16.6847 16.6443Z" fill="#EDF2FF" stroke="#212529" stroke-width="1.8" stroke-linecap="round" stroke-linejoin="round"/>
<g style="mix-blend-mode:multiply">
<path fill-rule="evenodd" clip-rule="evenodd" d="M17.5675 16.856C17.346 16.8366 17.1563 16.8419 17.0027 16.8745C15.1856 17.2593 20.2586 22.9163 24.4124 27.5484C24.6671 27.8324 24.9183 28.1125 25.1642 28.3873L25.5847 28.1457C26.1322 27.8311 26.2547 27.0946 25.8349 26.6228C25.3822 26.114 24.9038 25.5804 24.4124 25.0325C21.8844 22.2135 19.0161 19.0148 17.5675 16.856ZM9.59112 32.0576C9.35484 32.0964 9.13902 32.1581 8.94781 32.2453C7.13491 33.0722 13.1294 38.2438 17.1127 41.6803L17.2115 41.7655C17.8778 42.3404 18.8408 42.4158 19.5871 41.9496L49.4027 23.3244C51.2035 22.0467 51.753 19.9843 51.1507 18.5591C50.8545 19.3853 50.2756 20.1891 49.4027 20.8085L19.5871 39.4336C18.8408 39.8998 17.8778 39.8244 17.2115 39.2496L17.1127 39.1644C14.5758 36.9757 11.2231 34.0833 9.59112 32.0576Z" fill="#DEE2E6"/>
</g>
<circle cx="47.0533" cy="29.3506" r="1.10747" fill="#212529"/>
<circle cx="34.5854" cy="36.8804" r="1.10747" fill="#212529"/>
<circle cx="29.9837" cy="39.502" r="1.10747" fill="#212529"/>
<path d="M8.29675 48.2344H52.8371" stroke="#212529" stroke-width="2" stroke-linecap="round" stroke-linejoin="round"/>
</svg>
