<svg width="60" height="61" viewBox="0 0 60 61" fill="none" xmlns="http://www.w3.org/2000/svg">
<mask id="path-1-outside-1_50_1292" maskUnits="userSpaceOnUse" x="3.21655" y="13.3668" width="54" height="36" fill="black">
<rect fill="white" x="3.21655" y="13.3668" width="54" height="36"/>
<path fill-rule="evenodd" clip-rule="evenodd" d="M10.2666 15.3668C8.66501 15.3668 7.36664 16.6652 7.36664 18.2668V32.9679C6.40141 34.6447 5.82423 36.7567 5.51529 38.7815C5.07401 41.6736 5.14479 44.6296 5.57542 46.3726C5.66366 46.7298 5.98415 46.9807 6.35207 46.9807H9.16211L9.16508 46.9807L22.4196 46.9807L52.5163 46.9807C53.7684 46.9807 54.7834 45.9657 54.7834 44.7136C54.7834 43.6662 54.0731 42.7847 53.108 42.5245V18.2668C53.108 16.6652 51.8096 15.3668 50.208 15.3668H10.2666ZM7.09699 39.0228C7.17179 38.5325 7.26159 38.0487 7.36664 37.5769V42.7418C7.36664 42.923 7.38325 43.1003 7.41505 43.2722C7.11873 43.6316 6.93095 44.0838 6.9019 44.5786C6.75315 43.0683 6.78711 41.0537 7.09699 39.0228ZM9.16664 42.4465H21.656C21.6662 41.2878 21.6747 40.136 21.6759 39.4462C21.6124 39.3849 21.5508 39.3233 21.4913 39.2617C20.6311 38.3716 19.9686 37.2642 19.6481 36.5341C19.4705 36.1296 19.6545 35.6576 20.0591 35.48C20.4636 35.3024 20.9356 35.4864 21.1132 35.891C21.3685 36.4725 21.9313 37.4145 22.6419 38.1499C23.0396 38.5615 23.4221 38.8472 23.7767 39.0078C24.6792 39.2387 25.6665 39.0018 26.7122 38.4434C28.1031 37.7007 29.4149 36.4747 30.3832 35.4658C30.7845 35.0475 30.8395 34.3481 30.4941 33.8471L30.435 33.7618C30.2931 33.5587 30.1088 33.4774 29.9108 33.4759C29.6967 33.4742 29.4324 33.5692 29.2044 33.7973C28.312 34.6903 27.3317 35.5961 26.4577 36.1242C26.0294 36.383 25.5316 36.6111 25.0261 36.6308C24.7583 36.6413 24.4743 36.5936 24.2063 36.4488C23.9374 36.3035 23.733 36.0865 23.5855 35.8338C22.396 33.796 21.1434 32.0393 19.9125 31.2605C19.3168 30.8837 18.3503 30.3593 15.2452 30.3593C13.7124 30.3593 12.6809 30.5751 11.8952 30.9068C11.1115 31.2376 10.5162 31.7066 9.87271 32.309C9.62126 32.5444 9.38599 32.8172 9.16664 33.1221V42.4465ZM25.1273 40.6526C25.9471 40.5435 26.7413 40.2417 27.4658 39.8548C29.0889 38.9881 30.5439 37.6091 31.5376 36.5736C32.485 35.5863 32.5716 34.0408 31.8109 32.9382L31.7485 32.8482L31.7473 32.8465C30.7975 31.4847 29.0581 31.6802 28.0727 32.6663C27.18 33.5596 26.3204 34.3377 25.6303 34.7547C25.284 34.964 25.0703 35.0256 24.97 35.0317L24.9673 35.0272C23.7908 33.0116 22.3688 30.9212 20.7679 29.9084C19.8558 29.3314 18.5725 28.7593 15.2452 28.7593C13.5619 28.7593 12.3065 28.9965 11.273 29.4327C10.4247 29.7908 9.76386 30.2676 9.16664 30.7896V18.2668C9.16664 17.6593 9.65913 17.1668 10.2666 17.1668H50.208C50.8155 17.1668 51.308 17.6593 51.308 18.2668V42.4465H23.2561C23.2619 41.7776 23.2673 41.1101 23.2709 40.5321C23.7849 40.7393 24.3478 40.8291 24.943 40.7124C25.0081 40.6996 25.0697 40.6793 25.1273 40.6526ZM8.6752 45.1665C8.76912 45.268 8.89422 45.3403 9.03531 45.3681C8.91012 45.3093 8.78983 45.2419 8.6752 45.1665ZM51.4121 45.3807C51.9946 45.1145 52.4737 44.6611 52.7723 44.0974C53.0137 44.1978 53.1834 44.4359 53.1834 44.7136C53.1834 45.0821 52.8847 45.3807 52.5163 45.3807H51.4121Z"/>
</mask>
<path fill-rule="evenodd" clip-rule="evenodd" d="M10.2666 15.3668C8.66501 15.3668 7.36664 16.6652 7.36664 18.2668V32.9679C6.40141 34.6447 5.82423 36.7567 5.51529 38.7815C5.07401 41.6736 5.14479 44.6296 5.57542 46.3726C5.66366 46.7298 5.98415 46.9807 6.35207 46.9807H9.16211L9.16508 46.9807L22.4196 46.9807L52.5163 46.9807C53.7684 46.9807 54.7834 45.9657 54.7834 44.7136C54.7834 43.6662 54.0731 42.7847 53.108 42.5245V18.2668C53.108 16.6652 51.8096 15.3668 50.208 15.3668H10.2666ZM7.09699 39.0228C7.17179 38.5325 7.26159 38.0487 7.36664 37.5769V42.7418C7.36664 42.923 7.38325 43.1003 7.41505 43.2722C7.11873 43.6316 6.93095 44.0838 6.9019 44.5786C6.75315 43.0683 6.78711 41.0537 7.09699 39.0228ZM9.16664 42.4465H21.656C21.6662 41.2878 21.6747 40.136 21.6759 39.4462C21.6124 39.3849 21.5508 39.3233 21.4913 39.2617C20.6311 38.3716 19.9686 37.2642 19.6481 36.5341C19.4705 36.1296 19.6545 35.6576 20.0591 35.48C20.4636 35.3024 20.9356 35.4864 21.1132 35.891C21.3685 36.4725 21.9313 37.4145 22.6419 38.1499C23.0396 38.5615 23.4221 38.8472 23.7767 39.0078C24.6792 39.2387 25.6665 39.0018 26.7122 38.4434C28.1031 37.7007 29.4149 36.4747 30.3832 35.4658C30.7845 35.0475 30.8395 34.3481 30.4941 33.8471L30.435 33.7618C30.2931 33.5587 30.1088 33.4774 29.9108 33.4759C29.6967 33.4742 29.4324 33.5692 29.2044 33.7973C28.312 34.6903 27.3317 35.5961 26.4577 36.1242C26.0294 36.383 25.5316 36.6111 25.0261 36.6308C24.7583 36.6413 24.4743 36.5936 24.2063 36.4488C23.9374 36.3035 23.733 36.0865 23.5855 35.8338C22.396 33.796 21.1434 32.0393 19.9125 31.2605C19.3168 30.8837 18.3503 30.3593 15.2452 30.3593C13.7124 30.3593 12.6809 30.5751 11.8952 30.9068C11.1115 31.2376 10.5162 31.7066 9.87271 32.309C9.62126 32.5444 9.38599 32.8172 9.16664 33.1221V42.4465ZM25.1273 40.6526C25.9471 40.5435 26.7413 40.2417 27.4658 39.8548C29.0889 38.9881 30.5439 37.6091 31.5376 36.5736C32.485 35.5863 32.5716 34.0408 31.8109 32.9382L31.7485 32.8482L31.7473 32.8465C30.7975 31.4847 29.0581 31.6802 28.0727 32.6663C27.18 33.5596 26.3204 34.3377 25.6303 34.7547C25.284 34.964 25.0703 35.0256 24.97 35.0317L24.9673 35.0272C23.7908 33.0116 22.3688 30.9212 20.7679 29.9084C19.8558 29.3314 18.5725 28.7593 15.2452 28.7593C13.5619 28.7593 12.3065 28.9965 11.273 29.4327C10.4247 29.7908 9.76386 30.2676 9.16664 30.7896V18.2668C9.16664 17.6593 9.65913 17.1668 10.2666 17.1668H50.208C50.8155 17.1668 51.308 17.6593 51.308 18.2668V42.4465H23.2561C23.2619 41.7776 23.2673 41.1101 23.2709 40.5321C23.7849 40.7393 24.3478 40.8291 24.943 40.7124C25.0081 40.6996 25.0697 40.6793 25.1273 40.6526ZM8.6752 45.1665C8.76912 45.268 8.89422 45.3403 9.03531 45.3681C8.91012 45.3093 8.78983 45.2419 8.6752 45.1665ZM51.4121 45.3807C51.9946 45.1145 52.4737 44.6611 52.7723 44.0974C53.0137 44.1978 53.1834 44.4359 53.1834 44.7136C53.1834 45.0821 52.8847 45.3807 52.5163 45.3807H51.4121Z" fill="#F8F9FA"/>
<path d="M7.36664 32.9679L8.66663 33.7163C8.79767 33.4887 8.86664 33.2306 8.86664 32.9679H7.36664ZM5.51529 38.7815L4.03245 38.5552L4.03245 38.5552L5.51529 38.7815ZM5.57542 46.3726L7.03163 46.0128L7.03163 46.0128L5.57542 46.3726ZM9.16211 46.9807L9.16307 45.4807H9.16211V46.9807ZM9.16508 46.9807L9.16412 48.4807L9.16508 48.4807L9.16508 46.9807ZM22.4196 46.9807L22.4196 45.4807L22.4196 45.4807L22.4196 46.9807ZM52.5163 46.9807L52.5163 48.4807H52.5163V46.9807ZM53.108 42.5245H51.608C51.608 43.2025 52.0628 43.7962 52.7175 43.9728L53.108 42.5245ZM7.36664 37.5769H8.86664C8.86664 36.812 8.291 36.1696 7.53062 36.0859C6.77024 36.0023 6.06874 36.5043 5.90249 37.2509L7.36664 37.5769ZM7.09699 39.0228L8.57983 39.2491L8.57983 39.2491L7.09699 39.0228ZM7.41505 43.2722L8.57235 44.2265C8.85432 43.8846 8.97062 43.4354 8.89006 42.9996L7.41505 43.2722ZM6.9019 44.5786L5.40912 44.7257C5.48585 45.5048 6.14883 46.0938 6.93154 46.0784C7.71425 46.0629 8.35344 45.4481 8.39932 44.6666L6.9019 44.5786ZM21.656 42.4465V43.9465C22.4793 43.9465 23.1488 43.2829 23.156 42.4596L21.656 42.4465ZM9.16664 42.4465H7.66664C7.66664 43.2749 8.33821 43.9465 9.16664 43.9465V42.4465ZM21.6759 39.4462L23.1759 39.4488C23.1766 39.0408 23.0111 38.65 22.7174 38.3667L21.6759 39.4462ZM21.4913 39.2617L20.4127 40.3041L20.4127 40.3041L21.4913 39.2617ZM19.6481 36.5341L18.2747 37.1371L18.2747 37.1371L19.6481 36.5341ZM21.1132 35.891L19.7397 36.4939L19.7397 36.4939L21.1132 35.891ZM22.6419 38.1499L21.5632 39.1922L21.5632 39.1922L22.6419 38.1499ZM23.7767 39.0078L23.1577 40.3741C23.2374 40.4102 23.3201 40.4393 23.4049 40.461L23.7767 39.0078ZM26.7122 38.4434L26.0056 37.1202L26.0056 37.1202L26.7122 38.4434ZM30.3832 35.4658L31.4655 36.5043L31.4655 36.5043L30.3832 35.4658ZM30.4941 33.8471L31.7291 32.9957L31.7267 32.9923L30.4941 33.8471ZM30.435 33.7618L31.6676 32.907L31.6646 32.9028L30.435 33.7618ZM29.9108 33.4759L29.9226 31.9759L29.9226 31.9759L29.9108 33.4759ZM29.2044 33.7973L30.2654 34.8576L30.2654 34.8576L29.2044 33.7973ZM26.4577 36.1242L25.682 34.8403L25.682 34.8403L26.4577 36.1242ZM25.0261 36.6308L25.0846 38.1297L25.0846 38.1297L25.0261 36.6308ZM24.2063 36.4488L24.9193 35.1291L24.9193 35.1291L24.2063 36.4488ZM23.5855 35.8338L22.29 36.5899L22.29 36.5899L23.5855 35.8338ZM19.9125 31.2605L20.7144 29.9929L20.7144 29.9929L19.9125 31.2605ZM11.8952 30.9068L11.3119 29.5249L11.3119 29.5249L11.8952 30.9068ZM9.87271 32.309L10.8978 33.4041L10.8978 33.4041L9.87271 32.309ZM9.16664 33.1221L7.94905 32.246C7.76543 32.5012 7.66664 32.8077 7.66664 33.1221H9.16664ZM25.1273 40.6526L24.9294 39.1657C24.7788 39.1857 24.6321 39.2285 24.4944 39.2926L25.1273 40.6526ZM27.4658 39.8548L28.1724 41.178L28.1724 41.178L27.4658 39.8548ZM31.5376 36.5736L30.4553 35.535L30.4553 35.535L31.5376 36.5736ZM31.8109 32.9382L33.0456 32.0864L33.0435 32.0834L31.8109 32.9382ZM31.7485 32.8482L32.9811 31.9934L32.9788 31.9902L31.7485 32.8482ZM31.7473 32.8465L30.517 33.7046L30.517 33.7046L31.7473 32.8465ZM28.0727 32.6663L27.0117 31.6059L27.0117 31.6059L28.0727 32.6663ZM25.6303 34.7547L24.8545 33.4709L24.8545 33.4709L25.6303 34.7547ZM24.97 35.0317L23.6811 35.7991C23.9682 36.2813 24.5005 36.5629 25.0606 36.529L24.97 35.0317ZM24.9673 35.0272L23.6718 35.7834L23.6784 35.7945L24.9673 35.0272ZM20.7679 29.9084L19.9659 31.176L19.9659 31.176L20.7679 29.9084ZM11.273 29.4327L10.6896 28.0508L10.6896 28.0508L11.273 29.4327ZM9.16664 30.7896H7.66664C7.66664 31.378 8.01068 31.9121 8.54645 32.1553C9.08222 32.3986 9.71076 32.3062 10.1538 31.9189L9.16664 30.7896ZM51.308 42.4465V43.9465C52.1364 43.9465 52.808 43.2749 52.808 42.4465H51.308ZM23.2561 42.4465L21.7561 42.4334C21.7527 42.8335 21.9091 43.2184 22.1908 43.5025C22.4725 43.7866 22.856 43.9465 23.2561 43.9465V42.4465ZM23.2709 40.5321L23.8319 39.1409C23.3712 38.9551 22.8484 39.0095 22.4357 39.2861C22.0231 39.5627 21.7741 40.0257 21.771 40.5225L23.2709 40.5321ZM24.943 40.7124L25.2317 42.1844L25.2317 42.1844L24.943 40.7124ZM8.6752 45.1665L9.49943 43.9132C8.86595 43.4966 8.02117 43.6182 7.53093 44.1966C7.04068 44.775 7.05915 45.6283 7.57395 46.1849L8.6752 45.1665ZM9.03531 45.3681L8.74517 46.8398C9.48857 46.9864 10.2245 46.5555 10.4606 45.8355C10.6967 45.1155 10.3588 44.3325 9.67295 44.0104L9.03531 45.3681ZM52.7723 44.0974L53.3484 42.7124C52.6333 42.415 51.8094 42.7108 51.4468 43.3952L52.7723 44.0974ZM51.4121 45.3807L50.7886 44.0165C50.147 44.3097 49.7964 45.0105 49.9464 45.6998C50.0965 46.3891 50.7066 46.8807 51.4121 46.8807V45.3807ZM8.86664 18.2668C8.86664 17.4936 9.49344 16.8668 10.2666 16.8668V13.8668C7.83658 13.8668 5.86664 15.8368 5.86664 18.2668H8.86664ZM8.86664 32.9679V18.2668H5.86664V32.9679H8.86664ZM6.99813 39.0077C7.29243 37.0789 7.83009 35.1695 8.66663 33.7163L6.06665 32.2196C4.97273 34.1199 4.35604 36.4345 4.03245 38.5552L6.99813 39.0077ZM7.03163 46.0128C6.66316 44.5214 6.57565 41.7767 6.99813 39.0077L4.03245 38.5552C3.57237 41.5705 3.62641 44.7378 4.1192 46.7324L7.03163 46.0128ZM6.35207 45.4807C6.674 45.4807 6.95442 45.7003 7.03163 46.0128L4.1192 46.7324C4.37291 47.7593 5.2943 48.4807 6.35207 48.4807V45.4807ZM9.16211 45.4807H6.35207V48.4807H9.16211V45.4807ZM9.16604 45.4807L9.16307 45.4807L9.16114 48.4807L9.16412 48.4807L9.16604 45.4807ZM22.4196 45.4807L9.16508 45.4807L9.16508 48.4807L22.4196 48.4807L22.4196 45.4807ZM52.5163 45.4807L22.4196 45.4807L22.4196 48.4807L52.5163 48.4807L52.5163 45.4807ZM53.2834 44.7136C53.2834 45.1373 52.9399 45.4807 52.5163 45.4807V48.4807C54.5968 48.4807 56.2834 46.7941 56.2834 44.7136H53.2834ZM52.7175 43.9728C53.0446 44.061 53.2834 44.3613 53.2834 44.7136H56.2834C56.2834 42.9711 55.1017 41.5085 53.4985 41.0762L52.7175 43.9728ZM51.608 18.2668V42.5245H54.608V18.2668H51.608ZM50.208 16.8668C50.9812 16.8668 51.608 17.4936 51.608 18.2668H54.608C54.608 15.8368 52.6381 13.8668 50.208 13.8668V16.8668ZM10.2666 16.8668H50.208V13.8668H10.2666V16.8668ZM5.90249 37.2509C5.78963 37.7578 5.69373 38.275 5.61415 38.7966L8.57983 39.2491C8.64986 38.7901 8.73355 38.3396 8.83078 37.9029L5.90249 37.2509ZM8.86664 42.7418V37.5769H5.86664V42.7418H8.86664ZM8.89006 42.9996C8.87481 42.9171 8.86664 42.8311 8.86664 42.7418H5.86664C5.86664 43.0148 5.8917 43.2834 5.94004 43.5449L8.89006 42.9996ZM8.39932 44.6666C8.4091 44.5 8.47142 44.3489 8.57235 44.2265L6.25775 42.318C5.76604 42.9143 5.45281 43.6676 5.40448 44.4907L8.39932 44.6666ZM5.61415 38.7966C5.28654 40.9436 5.24742 43.0838 5.40912 44.7257L8.39468 44.4316C8.25888 43.0528 8.28768 41.1638 8.57983 39.2491L5.61415 38.7966ZM21.656 40.9465H9.16664V43.9465H21.656V40.9465ZM20.1759 39.4436C20.1747 40.1274 20.1662 41.2742 20.1561 42.4334L23.156 42.4596C23.1661 41.3013 23.1747 40.1445 23.1759 39.4488L20.1759 39.4436ZM22.7174 38.3667C22.6671 38.3181 22.6179 38.2689 22.57 38.2193L20.4127 40.3041C20.4837 40.3776 20.5577 40.4517 20.6345 40.5257L22.7174 38.3667ZM22.57 38.2193C21.85 37.4743 21.281 36.522 21.0216 35.9312L18.2747 37.1371C18.6563 38.0064 19.4123 39.2689 20.4127 40.3041L22.57 38.2193ZM21.0216 35.9312C21.177 36.2851 21.016 36.6981 20.662 36.8535L19.4561 34.1066C18.293 34.6172 17.764 35.974 18.2747 37.1371L21.0216 35.9312ZM20.662 36.8535C20.308 37.0089 19.8951 36.8479 19.7397 36.4939L22.4866 35.288C21.976 34.1249 20.6192 33.5959 19.4561 34.1066L20.662 36.8535ZM19.7397 36.4939C20.0562 37.2148 20.7124 38.3118 21.5632 39.1922L23.7205 37.1075C23.1501 36.5172 22.6808 35.7303 22.4866 35.288L19.7397 36.4939ZM21.5632 39.1922C22.0434 39.6891 22.5766 40.1109 23.1577 40.3741L24.3956 37.6414C24.2677 37.5835 24.0359 37.4338 23.7205 37.1075L21.5632 39.1922ZM26.0056 37.1202C25.1203 37.593 24.5365 37.6538 24.1484 37.5546L23.4049 40.461C24.8219 40.8235 26.2126 40.4106 27.4187 39.7666L26.0056 37.1202ZM29.3009 34.4272C28.3563 35.4115 27.1788 36.4938 26.0056 37.1202L27.4187 39.7666C29.0274 38.9076 30.4736 37.538 31.4655 36.5043L29.3009 34.4272ZM29.2592 34.6986C29.2252 34.6493 29.2206 34.6065 29.2225 34.5803C29.2243 34.5559 29.2358 34.495 29.3009 34.4272L31.4655 36.5043C32.3761 35.5553 32.4653 34.0635 31.7291 32.9957L29.2592 34.6986ZM29.2024 34.6166L29.2616 34.702L31.7267 32.9923L31.6675 32.907L29.2024 34.6166ZM29.8991 34.9759C29.7924 34.975 29.6504 34.9511 29.5037 34.875C29.3555 34.7982 29.2588 34.6974 29.2053 34.6208L31.6646 32.9028C31.2366 32.29 30.5922 31.9812 29.9226 31.9759L29.8991 34.9759ZM30.2654 34.8576C30.2345 34.8885 30.1215 34.9776 29.8991 34.9759L29.9226 31.9759C29.2719 31.9708 28.6302 32.2499 28.1434 32.737L30.2654 34.8576ZM27.2334 37.408C28.2796 36.7759 29.3728 35.7507 30.2654 34.8576L28.1434 32.737C27.2511 33.6298 26.3839 34.4162 25.682 34.8403L27.2334 37.408ZM25.0846 38.1297C25.9721 38.095 26.7343 37.7096 27.2334 37.408L25.682 34.8403C25.3244 35.0564 25.0911 35.1271 24.9676 35.132L25.0846 38.1297ZM23.4932 37.7685C24.038 38.0629 24.5981 38.1487 25.0846 38.1297L24.9676 35.132C24.9427 35.1329 24.9279 35.1307 24.9218 35.1295C24.9169 35.1285 24.9173 35.1281 24.9193 35.1291L23.4932 37.7685ZM22.29 36.5899C22.5539 37.0419 22.9458 37.4727 23.4932 37.7685L24.9193 35.1291C24.9214 35.1302 24.9204 35.1304 24.9154 35.1253C24.9097 35.1195 24.897 35.1052 24.8809 35.0776L22.29 36.5899ZM19.1105 32.5282C19.5142 32.7836 20.0102 33.2631 20.5807 33.9962C21.1398 34.7147 21.7128 35.601 22.29 36.5899L24.8809 35.0776C24.2687 34.0288 23.6206 33.0178 22.9483 32.1538C22.2874 31.3045 21.5416 30.5163 20.7144 29.9929L19.1105 32.5282ZM15.2452 31.8593C16.7212 31.8593 17.6066 31.9848 18.1519 32.1228C18.6593 32.2512 18.9028 32.3968 19.1105 32.5282L20.7144 29.9929C20.3264 29.7475 19.7889 29.4425 18.8879 29.2144C18.0247 28.996 16.8743 28.8593 15.2452 28.8593V31.8593ZM12.4786 32.2887C13.0319 32.0551 13.8535 31.8593 15.2452 31.8593V28.8593C13.5713 28.8593 12.3299 29.0951 11.3119 29.5249L12.4786 32.2887ZM10.8978 33.4041C11.4866 32.8529 11.9309 32.5199 12.4786 32.2887L11.3119 29.5249C10.292 29.9554 9.54579 30.5603 8.84759 31.214L10.8978 33.4041ZM10.3842 33.9982C10.555 33.7608 10.7272 33.5638 10.8978 33.4041L8.84759 31.214C8.51536 31.525 8.21699 31.8736 7.94905 32.246L10.3842 33.9982ZM10.6666 42.4465V33.1221H7.66664V42.4465H10.6666ZM25.3252 42.1395C26.3719 42.0002 27.3398 41.6226 28.1724 41.178L26.7593 38.5316C26.1428 38.8608 25.5223 39.0868 24.9294 39.1657L25.3252 42.1395ZM28.1724 41.178C30.0129 40.1951 31.6021 38.6728 32.6199 37.6121L30.4553 35.535C29.4857 36.5454 28.1648 37.7811 26.7593 38.5316L28.1724 41.178ZM32.6199 37.6121C34.0802 36.0904 34.1944 33.7516 33.0456 32.0864L30.5762 33.79C30.9487 34.3299 30.8898 35.0822 30.4553 35.535L32.6199 37.6121ZM33.0435 32.0834L32.9811 31.9934L30.5159 33.7031L30.5783 33.793L33.0435 32.0834ZM32.9788 31.9902L32.9776 31.9884L30.517 33.7046L30.5182 33.7063L32.9788 31.9902ZM32.9776 31.9884C32.2069 30.8833 31.0619 30.3727 29.9191 30.376C28.8227 30.379 27.7679 30.8493 27.0117 31.6059L29.1337 33.7266C29.3629 33.4973 29.6705 33.3767 29.9276 33.3759C30.1384 33.3753 30.338 33.4479 30.517 33.7046L32.9776 31.9884ZM27.0117 31.6059C26.1182 32.5 25.3721 33.1582 24.8545 33.4709L26.406 36.0386C27.2687 35.5173 28.2417 34.6191 29.1337 33.7266L27.0117 31.6059ZM24.8545 33.4709C24.7983 33.5049 24.7542 33.5288 24.722 33.545C24.6896 33.5612 24.6711 33.5687 24.6659 33.5707C24.6601 33.573 24.6728 33.5676 24.7024 33.5602C24.7175 33.5564 24.7393 33.5515 24.7673 33.5469C24.7947 33.5424 24.8326 33.5373 24.8794 33.5345L25.0606 36.529C25.5231 36.501 25.9876 36.2914 26.406 36.0386L24.8545 33.4709ZM26.2589 34.2644L26.2562 34.2598L23.6784 35.7945L23.6811 35.7991L26.2589 34.2644ZM26.2628 34.271C25.0977 32.275 23.5171 29.8727 21.5698 28.6408L19.9659 31.176C21.2204 31.9697 22.4839 33.7482 23.6718 35.7834L26.2628 34.271ZM21.5698 28.6408C20.361 27.876 18.7807 27.2593 15.2452 27.2593V30.2593C18.3643 30.2593 19.3506 30.7868 19.9659 31.176L21.5698 28.6408ZM15.2452 27.2593C13.4209 27.2593 11.9556 27.5164 10.6896 28.0508L11.8563 30.8147C12.6575 30.4765 13.7029 30.2593 15.2452 30.2593V27.2593ZM10.6896 28.0508C9.64913 28.4901 8.8536 29.0709 8.17948 29.6602L10.1538 31.9189C10.6741 31.4642 11.2004 31.0916 11.8563 30.8147L10.6896 28.0508ZM10.6666 30.7896V18.2668H7.66664V30.7896H10.6666ZM10.6666 18.2668C10.6666 18.4877 10.4876 18.6668 10.2666 18.6668V15.6668C8.8307 15.6668 7.66664 16.8309 7.66664 18.2668H10.6666ZM10.2666 18.6668H50.208V15.6668H10.2666V18.6668ZM50.208 18.6668C49.9871 18.6668 49.808 18.4877 49.808 18.2668H52.808C52.808 16.8309 51.644 15.6668 50.208 15.6668V18.6668ZM49.808 18.2668V42.4465H52.808V18.2668H49.808ZM51.308 40.9465H23.2561V43.9465H51.308V40.9465ZM24.756 42.4596C24.7619 41.7901 24.7672 41.1213 24.7709 40.5416L21.771 40.5225C21.7673 41.0989 21.762 41.7651 21.7561 42.4334L24.756 42.4596ZM24.6544 39.2404C24.3941 39.2915 24.1278 39.2602 23.8319 39.1409L22.7099 41.9232C23.442 42.2184 24.3016 42.3667 25.2317 42.1844L24.6544 39.2404ZM24.4944 39.2926C24.5458 39.2687 24.5997 39.2512 24.6544 39.2404L25.2317 42.1844C25.4165 42.1481 25.5937 42.09 25.7601 42.0125L24.4944 39.2926ZM7.57395 46.1849C7.87708 46.5127 8.28347 46.7488 8.74517 46.8398L9.32545 43.8965C9.50497 43.9319 9.66116 44.0234 9.77644 44.148L7.57395 46.1849ZM9.67295 44.0104C9.61284 43.9822 9.55486 43.9497 9.49943 43.9132L7.85096 46.4197C8.02479 46.534 8.20741 46.6365 8.39767 46.7259L9.67295 44.0104ZM51.4468 43.3952C51.3023 43.668 51.0694 43.8881 50.7886 44.0165L52.0356 46.745C52.9198 46.3409 53.6451 45.6541 54.0978 44.7996L51.4468 43.3952ZM54.6834 44.7136C54.6834 43.8091 54.1296 43.0374 53.3484 42.7124L52.1962 45.4823C51.8978 45.3582 51.6834 45.0627 51.6834 44.7136H54.6834ZM52.5163 46.8807C53.7131 46.8807 54.6834 45.9105 54.6834 44.7136H51.6834C51.6834 44.2536 52.0563 43.8807 52.5163 43.8807V46.8807ZM51.4121 46.8807H52.5163V43.8807H51.4121V46.8807Z" fill="#F8F9FA" mask="url(#path-1-outside-1_50_1292)"/>
<rect x="8.27759" y="16.2573" width="43.9414" height="28.4749" rx="2" fill="#3BC9DB" stroke="#212529" stroke-width="1.8" stroke-linejoin="round"/>
<g style="mix-blend-mode:multiply">
<path d="M32.1113 37.3371C32.5624 36.4695 32.2993 35.2982 32.1113 34.821C31.9301 34.1637 20.3551 39.1157 21.6131 40.5472C22.8712 41.9788 25.0402 41.892 26.3416 41.6318C27.6431 41.3715 31.5473 38.4216 32.1113 37.3371Z" fill="#DEE2E6"/>
</g>
<rect x="7.70886" y="43.3688" width="46.2854" height="2.93426" rx="1.46713" fill="#0C8599" stroke="#212529" stroke-width="1.4" stroke-linejoin="round"/>
<rect x="41.2789" y="40.5304" width="5.94604" height="2.50801" rx="1" fill="#E9ECEF" stroke="#212529" stroke-width="1.2" stroke-linecap="round"/>
<path d="M40.2139 22.7554H46.3495" stroke="#212529" stroke-width="1.6" stroke-linecap="round" stroke-linejoin="round"/>
<path d="M40.214 26.1086H46.3496" stroke="#212529" stroke-width="1.6" stroke-linecap="round" stroke-linejoin="round"/>
<path d="M40.214 29.462H44.4133" stroke="#212529" stroke-width="1.6" stroke-linecap="round" stroke-linejoin="round"/>
<path d="M36.7162 24.8184L30.8516 34.2832" stroke="#212529" stroke-width="1.6" stroke-linecap="round" stroke-linejoin="round"/>
<path d="M6.36298 46.1713H22.4305C22.4305 46.1713 22.487 40.9381 22.487 39.2826C25.4376 41.22 29.0094 38.0547 30.9713 36.0102C31.6457 35.3074 31.7165 34.1848 31.1633 33.383L31.1021 33.2947C30.5108 32.4469 29.3801 32.4912 28.6495 33.2223C26.8643 35.0085 24.9698 36.5903 24.2873 35.421C23.1043 33.3943 21.767 31.4708 20.3511 30.575C19.5972 30.0981 18.4723 29.5498 15.2561 29.5498C12.04 29.5498 10.6825 30.4559 9.3369 31.7155C6.04417 34.7979 5.56802 42.9536 6.36298 46.1713Z" fill="#FFE066" stroke="#212529" stroke-width="1.6" stroke-linecap="round" stroke-linejoin="round"/>
<path d="M20.1602 36.126C20.736 37.4376 22.3521 39.8769 24.486 39.8769" stroke="#212529" stroke-width="1.6" stroke-linecap="round" stroke-linejoin="round"/>
<g style="mix-blend-mode:multiply">
<circle cx="17.6287" cy="24.1924" r="3.56366" fill="#DEE2E6"/>
</g>
<circle cx="16.0701" cy="23.6301" r="3.00128" fill="#FFE066" stroke="#212529" stroke-width="1.6" stroke-linecap="round" stroke-linejoin="round"/>
</svg>
