<svg width="60" height="61" viewBox="0 0 60 61" fill="none" xmlns="http://www.w3.org/2000/svg">
<mask id="path-1-outside-1_50_2687" maskUnits="userSpaceOnUse" x="4.13049" y="7.62671" width="52" height="46" fill="black">
<rect fill="white" x="4.13049" y="7.62671" width="52" height="46"/>
<path fill-rule="evenodd" clip-rule="evenodd" d="M21.3458 9.86963C21.8744 9.46989 22.627 9.57436 23.0267 10.103L26.5042 14.7014C26.5998 14.8279 26.6665 14.9671 26.7055 15.1113H33.7167C33.7557 14.9671 33.8225 14.8279 33.9181 14.7014L37.3955 10.103C37.7953 9.57436 38.5479 9.46989 39.0765 9.86963C39.6051 10.2694 39.7095 11.022 39.3098 11.5506L36.6171 15.1113H51.3917C52.9934 15.1113 54.2917 16.4097 54.2917 18.0113V46.1744C54.2917 47.776 52.9934 49.0744 51.3917 49.0744H45.2413V50.7008C45.2413 51.3635 44.7041 51.9008 44.0413 51.9008C43.3786 51.9008 42.8413 51.3635 42.8413 50.7008V49.0744H17.581V50.7008C17.581 51.3635 17.0438 51.9008 16.381 51.9008C15.7183 51.9008 15.181 51.3635 15.181 50.7008V49.0744H9.03049C7.42887 49.0744 6.13049 47.776 6.13049 46.1744V18.0113C6.13049 16.4097 7.42887 15.1113 9.03049 15.1113H23.8051L21.1124 11.5506C20.7127 11.022 20.8172 10.2694 21.3458 9.86963Z"/>
</mask>
<path fill-rule="evenodd" clip-rule="evenodd" d="M21.3458 9.86963C21.8744 9.46989 22.627 9.57436 23.0267 10.103L26.5042 14.7014C26.5998 14.8279 26.6665 14.9671 26.7055 15.1113H33.7167C33.7557 14.9671 33.8225 14.8279 33.9181 14.7014L37.3955 10.103C37.7953 9.57436 38.5479 9.46989 39.0765 9.86963C39.6051 10.2694 39.7095 11.022 39.3098 11.5506L36.6171 15.1113H51.3917C52.9934 15.1113 54.2917 16.4097 54.2917 18.0113V46.1744C54.2917 47.776 52.9934 49.0744 51.3917 49.0744H45.2413V50.7008C45.2413 51.3635 44.7041 51.9008 44.0413 51.9008C43.3786 51.9008 42.8413 51.3635 42.8413 50.7008V49.0744H17.581V50.7008C17.581 51.3635 17.0438 51.9008 16.381 51.9008C15.7183 51.9008 15.181 51.3635 15.181 50.7008V49.0744H9.03049C7.42887 49.0744 6.13049 47.776 6.13049 46.1744V18.0113C6.13049 16.4097 7.42887 15.1113 9.03049 15.1113H23.8051L21.1124 11.5506C20.7127 11.022 20.8172 10.2694 21.3458 9.86963Z" fill="#F8F9FA"/>
<path d="M23.0267 10.103L21.8303 11.0077L21.8303 11.0077L23.0267 10.103ZM21.3458 9.86964L20.441 8.67322L21.3458 9.86964ZM26.5042 14.7014L27.7006 13.7967L27.7006 13.7967L26.5042 14.7014ZM26.7055 15.1113L25.2576 15.5032C25.4346 16.1571 26.028 16.6113 26.7055 16.6113V15.1113ZM33.7167 15.1113V16.6113C34.3942 16.6113 34.9876 16.1571 35.1646 15.5032L33.7167 15.1113ZM33.9181 14.7014L32.7217 13.7967L32.7217 13.7967L33.9181 14.7014ZM37.3955 10.103L38.592 11.0077L38.592 11.0077L37.3955 10.103ZM39.0765 9.86964L39.9812 8.67322L39.0765 9.86964ZM39.3098 11.5506L38.1134 10.6458L38.1134 10.6458L39.3098 11.5506ZM36.6171 15.1113L35.4207 14.2065C35.0774 14.6606 35.0206 15.2698 35.2742 15.7795C35.5277 16.2891 36.0479 16.6113 36.6171 16.6113V15.1113ZM45.2413 49.0744V47.5744C44.4129 47.5744 43.7413 48.246 43.7413 49.0744H45.2413ZM42.8413 49.0744H44.3413C44.3413 48.246 43.6697 47.5744 42.8413 47.5744V49.0744ZM17.581 49.0744V47.5744C16.7526 47.5744 16.081 48.246 16.081 49.0744H17.581ZM15.181 49.0744H16.681C16.681 48.246 16.0095 47.5744 15.181 47.5744V49.0744ZM23.8051 15.1113V16.6113C24.3743 16.6113 24.8945 16.2891 25.1481 15.7795C25.4016 15.2698 25.3449 14.6606 25.0015 14.2065L23.8051 15.1113ZM21.1124 11.5506L22.3089 10.6458L22.3089 10.6458L21.1124 11.5506ZM24.2231 9.19822C23.3237 8.00884 21.6304 7.77379 20.441 8.67322L22.2505 11.0661C22.1184 11.166 21.9302 11.1399 21.8303 11.0077L24.2231 9.19822ZM27.7006 13.7967L24.2231 9.19822L21.8303 11.0077L25.3077 15.6062L27.7006 13.7967ZM28.1535 14.7194C28.0651 14.3929 27.914 14.079 27.7006 13.7967L25.3077 15.6062C25.2855 15.5768 25.268 15.5414 25.2576 15.5032L28.1535 14.7194ZM33.7167 13.6113H26.7055V16.6113H33.7167V13.6113ZM32.7217 13.7967C32.5082 14.079 32.3572 14.3929 32.2688 14.7194L35.1646 15.5032C35.1543 15.5414 35.1367 15.5768 35.1145 15.6062L32.7217 13.7967ZM36.1991 9.19822L32.7217 13.7967L35.1145 15.6062L38.592 11.0077L36.1991 9.19822ZM39.9812 8.67322C38.7918 7.77379 37.0985 8.00884 36.1991 9.19822L38.592 11.0077C38.492 11.1399 38.3039 11.166 38.1717 11.0661L39.9812 8.67322ZM40.5062 12.4553C41.4057 11.266 41.1706 9.57264 39.9812 8.67322L38.1717 11.0661C38.0396 10.9661 38.0134 10.778 38.1134 10.6458L40.5062 12.4553ZM37.8136 16.016L40.5062 12.4553L38.1134 10.6458L35.4207 14.2065L37.8136 16.016ZM51.3917 13.6113H36.6171V16.6113H51.3917V13.6113ZM55.7917 18.0113C55.7917 15.5812 53.8218 13.6113 51.3917 13.6113V16.6113C52.1649 16.6113 52.7917 17.2381 52.7917 18.0113H55.7917ZM55.7917 46.1744V18.0113H52.7917V46.1744H55.7917ZM51.3917 50.5744C53.8218 50.5744 55.7917 48.6045 55.7917 46.1744H52.7917C52.7917 46.9476 52.1649 47.5744 51.3917 47.5744V50.5744ZM45.2413 50.5744H51.3917V47.5744H45.2413V50.5744ZM46.7413 50.7008V49.0744H43.7413V50.7008H46.7413ZM44.0413 53.4008C45.5325 53.4008 46.7413 52.1919 46.7413 50.7008H43.7413C43.7413 50.5351 43.8756 50.4008 44.0413 50.4008V53.4008ZM41.3413 50.7008C41.3413 52.1919 42.5501 53.4008 44.0413 53.4008V50.4008C44.207 50.4008 44.3413 50.5351 44.3413 50.7008H41.3413ZM41.3413 49.0744V50.7008H44.3413V49.0744H41.3413ZM17.581 50.5744H42.8413V47.5744H17.581V50.5744ZM19.081 50.7008V49.0744H16.081V50.7008H19.081ZM16.381 53.4008C17.8722 53.4008 19.081 52.1919 19.081 50.7008H16.081C16.081 50.5351 16.2153 50.4008 16.381 50.4008V53.4008ZM13.681 50.7008C13.681 52.1919 14.8899 53.4008 16.381 53.4008V50.4008C16.5467 50.4008 16.681 50.5351 16.681 50.7008H13.681ZM13.681 49.0744V50.7008H16.681V49.0744H13.681ZM9.03049 50.5744H15.181V47.5744H9.03049V50.5744ZM4.63049 46.1744C4.63049 48.6045 6.60044 50.5744 9.03049 50.5744V47.5744C8.2573 47.5744 7.63049 46.9476 7.63049 46.1744H4.63049ZM4.63049 18.0113V46.1744H7.63049V18.0113H4.63049ZM9.03049 13.6113C6.60044 13.6113 4.63049 15.5812 4.63049 18.0113H7.63049C7.63049 17.2381 8.25729 16.6113 9.03049 16.6113V13.6113ZM23.8051 13.6113H9.03049V16.6113H23.8051V13.6113ZM19.916 12.4553L22.6087 16.016L25.0015 14.2065L22.3089 10.6458L19.916 12.4553ZM20.441 8.67322C19.2516 9.57264 19.0166 11.266 19.916 12.4553L22.3089 10.6458C22.4088 10.778 22.3827 10.9661 22.2505 11.0661L20.441 8.67322Z" fill="#F8F9FA" mask="url(#path-1-outside-1_50_2687)"/>
<rect x="7.02295" y="16.0046" width="46.3612" height="32.1631" rx="2" fill="#E9ECEF" stroke="#212529" stroke-width="1.8" stroke-linejoin="round"/>
<g style="mix-blend-mode:multiply">
<path fill-rule="evenodd" clip-rule="evenodd" d="M6.77441 46.5947C7.09912 47.2604 7.78252 47.7191 8.57304 47.7191H50.9343C52.0388 47.7191 52.9343 46.8236 52.9343 45.7191V17.556C52.9343 16.6621 52.3478 15.9051 51.5387 15.6489V45.5947C51.5387 46.147 51.091 46.5947 50.5387 46.5947H6.77441Z" fill="#E9ECEF"/>
</g>
<rect x="11.9033" y="20.8525" width="29.8906" height="22.4677" rx="1" fill="white" stroke="#212529" stroke-width="1.4" stroke-linejoin="round"/>
<g style="mix-blend-mode:multiply">
<circle cx="47.961" cy="41.2814" r="2.24234" fill="#E9ECEF"/>
</g>
<g style="mix-blend-mode:multiply">
<circle cx="47.961" cy="34.3476" r="2.24234" fill="#E9ECEF"/>
</g>
<circle cx="47.2394" cy="40.6432" r="2.00107" fill="#F8F9FA" stroke="#212529" stroke-linejoin="round"/>
<circle cx="47.2394" cy="34.0006" r="2.00107" fill="#F8F9FA" stroke="#212529" stroke-linejoin="round"/>
<path fill-rule="evenodd" clip-rule="evenodd" d="M49.1482 28.8762H45.8914Z" fill="white"/>
<path d="M49.1482 28.8762H45.8914" stroke="#212529" stroke-width="1.2" stroke-linecap="round" stroke-linejoin="round"/>
<path fill-rule="evenodd" clip-rule="evenodd" d="M49.1486 25.8997H45.8917Z" fill="white"/>
<path d="M49.1486 25.8997H45.8917" stroke="#212529" stroke-width="1.2" stroke-linecap="round" stroke-linejoin="round"/>
<path fill-rule="evenodd" clip-rule="evenodd" d="M16.3734 50.6943V48.5711Z" fill="white"/>
<path d="M16.3734 50.6943V48.5711" stroke="#212529" stroke-width="2.4" stroke-linecap="round" stroke-linejoin="round"/>
<path fill-rule="evenodd" clip-rule="evenodd" d="M44.0337 50.6943V48.5711Z" fill="white"/>
<path d="M44.0337 50.6943V48.5711" stroke="#212529" stroke-width="2.4" stroke-linecap="round" stroke-linejoin="round"/>
<path fill-rule="evenodd" clip-rule="evenodd" d="M22.062 10.8202L25.5394 15.4187Z" fill="white"/>
<path d="M22.062 10.8202L25.5394 15.4187" stroke="#212529" stroke-width="2.4" stroke-linecap="round" stroke-linejoin="round"/>
<path fill-rule="evenodd" clip-rule="evenodd" d="M38.3451 10.8202L34.8677 15.4187Z" fill="white"/>
<path d="M38.3451 10.8202L34.8677 15.4187" stroke="#212529" stroke-width="2.4" stroke-linecap="round" stroke-linejoin="round"/>
<rect x="12.1885" y="21.1619" width="9.9228" height="21.8869" fill="#FF6B6B" stroke="#212529" stroke-width="1.2" stroke-linejoin="round"/>
<rect x="22.1113" y="21.1619" width="9.9228" height="21.8869" fill="#FFE066" stroke="#212529" stroke-width="1.2" stroke-linejoin="round"/>
<g style="mix-blend-mode:soft-light" opacity="0.6">
<path d="M12.7749 42.4977H27.4723L12.7749 28.1562V42.4977Z" fill="#F8F9FA"/>
</g>
<rect x="31.5171" y="21.1619" width="9.9228" height="21.8869" fill="#B197FC" stroke="#212529" stroke-width="1.2" stroke-linejoin="round"/>
</svg>
