<svg width="60" height="60" viewBox="0 0 60 60" fill="none" xmlns="http://www.w3.org/2000/svg">
<mask id="path-1-outside-1_50_11776" maskUnits="userSpaceOnUse" x="6.51099" y="9.39453" width="47" height="44" fill="black">
<rect fill="white" x="6.51099" y="9.39453" width="47" height="44"/>
<path fill-rule="evenodd" clip-rule="evenodd" d="M49.6562 11.8268C49.3589 11.3808 48.7563 11.2603 48.3103 11.5576C47.8644 11.855 47.7439 12.4575 48.0412 12.9035C49.1206 14.5226 50.8483 19.6526 47.9618 26.1473C47.7441 26.6371 47.9647 27.2107 48.4545 27.4283C48.9443 27.646 49.5179 27.4254 49.7356 26.9356C52.8977 19.8208 51.097 13.9879 49.6562 11.8268ZM8.51099 15.4481C8.51099 13.8937 9.77109 12.6336 11.3255 12.6336H18.6143H22.0078H36.3424C36.8962 12.6336 37.4126 12.7936 37.848 13.0698C38.1589 12.8311 38.5479 12.6892 38.9701 12.6892H40.5542C41.5726 12.6892 42.3982 13.5148 42.3982 14.5332V24.3735C42.3982 25.3919 41.5726 26.2175 40.5542 26.2175H38.9701C38.6883 26.2175 38.4212 26.1543 38.1824 26.0412C37.791 26.3782 37.3041 26.6107 36.7634 26.694C35.2086 26.9334 33.188 27.3083 31.285 27.9888C30.943 28.1112 30.6082 28.2421 30.2834 28.3824L30.143 34.7553C30.1058 36.4434 28.7266 37.7926 27.0381 37.7926H24.8808C24.8533 38.1038 24.8288 38.4195 24.8071 38.7389C24.5968 41.8322 24.6503 45.1837 24.6945 47.955V47.9551C24.6988 48.2274 24.7031 48.4941 24.707 48.7544C24.7306 50.3219 23.4624 51.5788 21.911 51.5788H14.9416C13.3868 51.5788 12.1297 50.3202 12.1186 48.7711L12.1135 48.0977C12.0921 45.2891 12.0681 42.1518 12.2369 39.2086C12.4181 36.0481 12.8255 33.0033 13.7555 30.7886C13.997 30.2135 13.9254 29.6365 13.6325 29.2883L12.8758 28.3884H11.3255C9.77108 28.3884 8.51099 27.1283 8.51099 25.5738V15.4481ZM11.3255 14.3806H15.9867L10.9902 23.3217C10.4195 24.3429 10.5401 25.6107 11.293 26.5061L11.4068 26.6414H11.3255C10.7359 26.6414 10.2579 26.1635 10.2579 25.5738V15.4481C10.2579 14.8585 10.7359 14.3806 11.3255 14.3806ZM15.3662 31.465C15.7606 30.5255 15.7856 29.3317 15.1401 28.3884H22.0078C22.3006 28.3884 22.583 28.3436 22.8485 28.2606L21.8074 36.4816C21.7653 36.8133 21.8679 37.1471 22.089 37.398C22.3101 37.6488 22.6284 37.7926 22.9628 37.7926H23.1273C23.104 38.0668 23.083 38.3429 23.0642 38.6204C22.8811 41.3123 22.893 44.1871 22.9278 46.6834H13.8506C13.8364 44.2658 13.8428 41.7179 13.9809 39.3086C14.1605 36.1767 14.559 33.3871 15.3662 31.465ZM13.8586 47.848L13.8605 48.0942L13.8654 48.7585C13.8697 49.3534 14.3524 49.8318 14.9416 49.8318H21.911C22.5037 49.8318 22.9689 49.3569 22.9603 48.7806C22.9564 48.5205 22.9521 48.2529 22.9477 47.9787L22.9477 47.9776L22.9456 47.848H13.8586ZM28.7157 25.0468L24.5373 26.8093C24.7198 26.4363 24.8223 26.0171 24.8223 25.5738V15.4481C24.8223 15.0703 24.7478 14.7098 24.6127 14.3806H36.3424C36.6522 14.3806 36.9311 14.5125 37.1262 14.7233V24.3735C37.1262 24.4569 37.1317 24.5389 37.1424 24.6194C36.9814 24.8001 36.7573 24.9273 36.4975 24.9674C34.9101 25.2118 32.7586 25.6066 30.6968 26.3439C30.573 26.3882 30.4491 26.4338 30.3253 26.4809L30.3326 26.1456C30.3413 25.7508 30.1494 25.3785 29.8229 25.1566C29.4963 24.9347 29.0795 24.8934 28.7157 25.0468ZM23.0753 15.4481C23.0753 14.8585 22.5974 14.3806 22.0078 14.3806H18.6143C18.2275 14.3806 17.871 14.5897 17.6823 14.9274L12.5152 24.1739C12.2987 24.5613 12.3444 25.0422 12.63 25.3818L13.6893 26.6414H22.0078C22.5974 26.6414 23.0753 26.1635 23.0753 25.5738V15.4481ZM39.1022 24.4706C39.1381 24.2913 39.1569 24.106 39.1569 23.9164V15.4481C39.1569 15.0914 39.0905 14.7502 38.9695 14.4361L38.9701 14.4361H40.5542C40.6078 14.4361 40.6513 14.4796 40.6513 14.5332V24.3735C40.6513 24.4271 40.6078 24.4706 40.5542 24.4706H39.1022ZM27.8143 34.704L27.9239 29.7285C27.4386 30.1014 27.015 30.5144 26.6712 30.9715C26.1562 31.6565 25.7397 32.7146 25.4261 34.0886C25.3267 34.5242 25.2393 34.9839 25.1626 35.4633H27.0381C27.4602 35.4633 27.805 35.126 27.8143 34.704ZM25.275 29.9217C25.7136 29.3383 26.2379 28.826 26.8182 28.3752L25.0895 29.1044L24.9184 30.4556C25.0303 30.2676 25.149 30.0893 25.275 29.9217ZM45.0652 14.9812C45.5112 14.6839 46.1137 14.8044 46.411 15.2504C47.227 16.4743 48.1529 19.589 46.4904 23.3295C46.2727 23.8193 45.6992 24.0399 45.2094 23.8222C44.7196 23.6045 43.5285 23.031 43.7461 22.5412C45.1329 19.4208 44.2801 17.0089 43.8255 16.3271C43.5658 15.9376 44.3651 15.4287 44.8688 15.108L44.8689 15.1079C44.9419 15.0614 45.0087 15.0189 45.0652 14.9812Z"/>
</mask>
<path fill-rule="evenodd" clip-rule="evenodd" d="M49.6562 11.8268C49.3589 11.3808 48.7563 11.2603 48.3103 11.5576C47.8644 11.855 47.7439 12.4575 48.0412 12.9035C49.1206 14.5226 50.8483 19.6526 47.9618 26.1473C47.7441 26.6371 47.9647 27.2107 48.4545 27.4283C48.9443 27.646 49.5179 27.4254 49.7356 26.9356C52.8977 19.8208 51.097 13.9879 49.6562 11.8268ZM8.51099 15.4481C8.51099 13.8937 9.77109 12.6336 11.3255 12.6336H18.6143H22.0078H36.3424C36.8962 12.6336 37.4126 12.7936 37.848 13.0698C38.1589 12.8311 38.5479 12.6892 38.9701 12.6892H40.5542C41.5726 12.6892 42.3982 13.5148 42.3982 14.5332V24.3735C42.3982 25.3919 41.5726 26.2175 40.5542 26.2175H38.9701C38.6883 26.2175 38.4212 26.1543 38.1824 26.0412C37.791 26.3782 37.3041 26.6107 36.7634 26.694C35.2086 26.9334 33.188 27.3083 31.285 27.9888C30.943 28.1112 30.6082 28.2421 30.2834 28.3824L30.143 34.7553C30.1058 36.4434 28.7266 37.7926 27.0381 37.7926H24.8808C24.8533 38.1038 24.8288 38.4195 24.8071 38.7389C24.5968 41.8322 24.6503 45.1837 24.6945 47.955V47.9551C24.6988 48.2274 24.7031 48.4941 24.707 48.7544C24.7306 50.3219 23.4624 51.5788 21.911 51.5788H14.9416C13.3868 51.5788 12.1297 50.3202 12.1186 48.7711L12.1135 48.0977C12.0921 45.2891 12.0681 42.1518 12.2369 39.2086C12.4181 36.0481 12.8255 33.0033 13.7555 30.7886C13.997 30.2135 13.9254 29.6365 13.6325 29.2883L12.8758 28.3884H11.3255C9.77108 28.3884 8.51099 27.1283 8.51099 25.5738V15.4481ZM11.3255 14.3806H15.9867L10.9902 23.3217C10.4195 24.3429 10.5401 25.6107 11.293 26.5061L11.4068 26.6414H11.3255C10.7359 26.6414 10.2579 26.1635 10.2579 25.5738V15.4481C10.2579 14.8585 10.7359 14.3806 11.3255 14.3806ZM15.3662 31.465C15.7606 30.5255 15.7856 29.3317 15.1401 28.3884H22.0078C22.3006 28.3884 22.583 28.3436 22.8485 28.2606L21.8074 36.4816C21.7653 36.8133 21.8679 37.1471 22.089 37.398C22.3101 37.6488 22.6284 37.7926 22.9628 37.7926H23.1273C23.104 38.0668 23.083 38.3429 23.0642 38.6204C22.8811 41.3123 22.893 44.1871 22.9278 46.6834H13.8506C13.8364 44.2658 13.8428 41.7179 13.9809 39.3086C14.1605 36.1767 14.559 33.3871 15.3662 31.465ZM13.8586 47.848L13.8605 48.0942L13.8654 48.7585C13.8697 49.3534 14.3524 49.8318 14.9416 49.8318H21.911C22.5037 49.8318 22.9689 49.3569 22.9603 48.7806C22.9564 48.5205 22.9521 48.2529 22.9477 47.9787L22.9477 47.9776L22.9456 47.848H13.8586ZM28.7157 25.0468L24.5373 26.8093C24.7198 26.4363 24.8223 26.0171 24.8223 25.5738V15.4481C24.8223 15.0703 24.7478 14.7098 24.6127 14.3806H36.3424C36.6522 14.3806 36.9311 14.5125 37.1262 14.7233V24.3735C37.1262 24.4569 37.1317 24.5389 37.1424 24.6194C36.9814 24.8001 36.7573 24.9273 36.4975 24.9674C34.9101 25.2118 32.7586 25.6066 30.6968 26.3439C30.573 26.3882 30.4491 26.4338 30.3253 26.4809L30.3326 26.1456C30.3413 25.7508 30.1494 25.3785 29.8229 25.1566C29.4963 24.9347 29.0795 24.8934 28.7157 25.0468ZM23.0753 15.4481C23.0753 14.8585 22.5974 14.3806 22.0078 14.3806H18.6143C18.2275 14.3806 17.871 14.5897 17.6823 14.9274L12.5152 24.1739C12.2987 24.5613 12.3444 25.0422 12.63 25.3818L13.6893 26.6414H22.0078C22.5974 26.6414 23.0753 26.1635 23.0753 25.5738V15.4481ZM39.1022 24.4706C39.1381 24.2913 39.1569 24.106 39.1569 23.9164V15.4481C39.1569 15.0914 39.0905 14.7502 38.9695 14.4361L38.9701 14.4361H40.5542C40.6078 14.4361 40.6513 14.4796 40.6513 14.5332V24.3735C40.6513 24.4271 40.6078 24.4706 40.5542 24.4706H39.1022ZM27.8143 34.704L27.9239 29.7285C27.4386 30.1014 27.015 30.5144 26.6712 30.9715C26.1562 31.6565 25.7397 32.7146 25.4261 34.0886C25.3267 34.5242 25.2393 34.9839 25.1626 35.4633H27.0381C27.4602 35.4633 27.805 35.126 27.8143 34.704ZM25.275 29.9217C25.7136 29.3383 26.2379 28.826 26.8182 28.3752L25.0895 29.1044L24.9184 30.4556C25.0303 30.2676 25.149 30.0893 25.275 29.9217ZM45.0652 14.9812C45.5112 14.6839 46.1137 14.8044 46.411 15.2504C47.227 16.4743 48.1529 19.589 46.4904 23.3295C46.2727 23.8193 45.6992 24.0399 45.2094 23.8222C44.7196 23.6045 43.5285 23.031 43.7461 22.5412C45.1329 19.4208 44.2801 17.0089 43.8255 16.3271C43.5658 15.9376 44.3651 15.4287 44.8688 15.108L44.8689 15.1079C44.9419 15.0614 45.0087 15.0189 45.0652 14.9812Z" fill="#F8F9FA"/>
<path d="M48.3103 11.5576L49.1424 12.8057L48.3103 11.5576ZM49.6562 11.8268L48.4081 12.6589L48.4081 12.6589L49.6562 11.8268ZM48.0412 12.9035L46.7931 13.7356L46.7931 13.7356L48.0412 12.9035ZM47.9618 26.1473L46.5911 25.5381L46.5911 25.5381L47.9618 26.1473ZM49.7356 26.9356L51.1063 27.5448L51.1063 27.5448L49.7356 26.9356ZM37.848 13.0698L37.0445 14.3364C37.5763 14.6738 38.2622 14.643 38.7616 14.2595L37.848 13.0698ZM38.1824 26.0412L38.824 24.6854C38.2879 24.4317 37.6528 24.5177 37.2035 24.9046L38.1824 26.0412ZM36.7634 26.694L36.9917 28.1765L36.9917 28.1765L36.7634 26.694ZM31.285 27.9888L30.78 26.5764L30.78 26.5764L31.285 27.9888ZM30.2834 28.3824L29.6889 27.0052C29.1503 27.2377 28.7967 27.7629 28.7837 28.3493L30.2834 28.3824ZM30.143 34.7553L28.6434 34.7222L28.6434 34.7222L30.143 34.7553ZM24.8808 37.7926V36.2926C24.1035 36.2926 23.455 36.8863 23.3866 37.6605L24.8808 37.7926ZM24.8071 38.7389L23.3105 38.6371L23.3105 38.6371L24.8071 38.7389ZM24.6945 47.955H26.1945C26.1945 47.9471 26.1944 47.9391 26.1943 47.9311L24.6945 47.955ZM24.6945 47.9551H23.1945C23.1945 47.9631 23.1946 47.971 23.1947 47.979L24.6945 47.9551ZM24.707 48.7544L23.2072 48.7769L23.2072 48.7769L24.707 48.7544ZM12.1186 48.7711L13.6185 48.7603L13.6185 48.7599L12.1186 48.7711ZM12.1135 48.0977L13.6135 48.0865L13.6135 48.0863L12.1135 48.0977ZM12.2369 39.2086L13.7344 39.2945L13.7344 39.2945L12.2369 39.2086ZM13.7555 30.7886L12.3724 30.2079L12.3724 30.2079L13.7555 30.7886ZM13.6325 29.2883L12.4845 30.2537L12.4845 30.2537L13.6325 29.2883ZM12.8758 28.3884L14.0238 27.423C13.7388 27.084 13.3186 26.8884 12.8758 26.8884V28.3884ZM15.9867 14.3806L17.2961 15.1123C17.5557 14.6478 17.5498 14.0805 17.2805 13.6215C17.0112 13.1625 16.5189 12.8806 15.9867 12.8806V14.3806ZM10.9902 23.3217L12.2996 24.0534L12.2996 24.0534L10.9902 23.3217ZM11.293 26.5061L12.441 25.5407L12.441 25.5407L11.293 26.5061ZM11.4068 26.6414V28.1414C11.99 28.1414 12.5204 27.8034 12.7666 27.2746C13.0128 26.7459 12.9302 26.1224 12.5548 25.676L11.4068 26.6414ZM15.1401 28.3884V26.8884C14.5837 26.8884 14.0729 27.1964 13.8133 27.6886C13.5537 28.1808 13.5879 28.7762 13.9022 29.2354L15.1401 28.3884ZM15.3662 31.465L13.9831 30.8842L13.9831 30.8842L15.3662 31.465ZM22.8485 28.2606L24.3366 28.4491C24.4008 27.9425 24.2028 27.4381 23.8113 27.1104C23.4197 26.7827 22.8883 26.6766 22.401 26.829L22.8485 28.2606ZM21.8074 36.4816L20.3192 36.2931L20.3192 36.2931L21.8074 36.4816ZM22.089 37.398L23.2144 36.4062L23.2144 36.4062L22.089 37.398ZM23.1273 37.7926L24.6219 37.9195C24.6574 37.5011 24.516 37.087 24.2319 36.7778C23.9478 36.4686 23.5472 36.2926 23.1273 36.2926V37.7926ZM23.0642 38.6204L24.5607 38.7221L24.5607 38.7221L23.0642 38.6204ZM22.9278 46.6834V48.1834C23.3293 48.1834 23.714 48.0224 23.9959 47.7366C24.2778 47.4508 24.4333 47.0639 24.4277 46.6624L22.9278 46.6834ZM13.8506 46.6834L12.3506 46.6922C12.3554 47.5171 13.0256 48.1834 13.8506 48.1834V46.6834ZM13.9809 39.3086L12.4834 39.2228L12.4834 39.2228L13.9809 39.3086ZM13.8605 48.0942L15.3604 48.083L15.3604 48.0829L13.8605 48.0942ZM13.8586 47.848V46.348C13.4588 46.348 13.0756 46.5076 12.7939 46.7914C12.5123 47.0751 12.3556 47.4596 12.3587 47.8594L13.8586 47.848ZM13.8654 48.7585L15.3654 48.7478L15.3654 48.7473L13.8654 48.7585ZM22.9603 48.7806L24.4601 48.7581L24.4601 48.7581L22.9603 48.7806ZM22.9477 47.9787L24.4475 47.9547L24.4475 47.9545L22.9477 47.9787ZM22.9477 47.9776L21.4479 48.0017L21.4479 48.0018L22.9477 47.9776ZM22.9456 47.848L24.4454 47.824C24.4323 47.005 23.7647 46.348 22.9456 46.348V47.848ZM24.5373 26.8093L23.19 26.15C22.9151 26.7119 23.0177 27.3854 23.4474 27.8399C23.8772 28.2944 24.5439 28.4345 25.1203 28.1914L24.5373 26.8093ZM28.7157 25.0468L29.2986 26.4289L29.2986 26.4289L28.7157 25.0468ZM24.6127 14.3806V12.8806C24.1127 12.8806 23.6455 13.1298 23.367 13.5451C23.0884 13.9604 23.0352 14.4872 23.225 14.9499L24.6127 14.3806ZM37.1262 14.7233H38.6262C38.6262 14.3456 38.4837 13.9817 38.2271 13.7045L37.1262 14.7233ZM37.1424 24.6194L38.2625 25.6171C38.553 25.2909 38.6869 24.8543 38.6293 24.4213L37.1424 24.6194ZM36.4975 24.9674L36.7258 26.4499L36.7258 26.4499L36.4975 24.9674ZM30.6968 26.3439L31.2019 27.7563L31.2019 27.7563L30.6968 26.3439ZM30.3253 26.4809L28.8256 26.4479C28.8146 26.9468 29.0525 27.4186 29.4602 27.7064C29.8679 27.9942 30.392 28.0604 30.8585 27.883L30.3253 26.4809ZM30.3326 26.1456L28.833 26.1125L28.833 26.1125L30.3326 26.1456ZM29.8229 25.1566L30.6659 23.9159L30.6659 23.9159L29.8229 25.1566ZM17.6823 14.9274L18.9918 15.6591L18.9918 15.6591L17.6823 14.9274ZM12.5152 24.1739L13.8246 24.9056L13.8246 24.9056L12.5152 24.1739ZM12.63 25.3818L11.482 26.3472L11.482 26.3472L12.63 25.3818ZM13.6893 26.6414L12.5412 27.6068C12.8262 27.9458 13.2464 28.1414 13.6893 28.1414V26.6414ZM39.1022 24.4706L37.6314 24.1759C37.5431 24.6167 37.6571 25.0737 37.942 25.4214C38.2269 25.769 38.6527 25.9706 39.1022 25.9706V24.4706ZM38.9695 14.4361L38.9506 12.9363C38.4596 12.9424 38.0027 13.1886 37.7274 13.5952C37.4521 14.0018 37.3932 14.5174 37.5699 14.9756L38.9695 14.4361ZM38.9701 14.4361V12.9361C38.9639 12.9361 38.9576 12.9362 38.9513 12.9362L38.9701 14.4361ZM27.9239 29.7285L29.4235 29.7615C29.4363 29.1844 29.1166 28.6512 28.6017 28.3903C28.0867 28.1295 27.4677 28.1873 27.0099 28.5391L27.9239 29.7285ZM27.8143 34.704L26.3147 34.671L26.3147 34.671L27.8143 34.704ZM26.6712 30.9715L27.8701 31.873L27.8701 31.873L26.6712 30.9715ZM25.4261 34.0886L26.8885 34.4224L26.8885 34.4224L25.4261 34.0886ZM25.1626 35.4633L23.6814 35.2264C23.612 35.6601 23.7362 36.1024 24.0212 36.4366C24.3062 36.7708 24.7234 36.9633 25.1626 36.9633V35.4633ZM26.8182 28.3752L27.7384 29.5598C28.333 29.0979 28.493 28.2668 28.1125 27.6171C27.732 26.9675 26.9289 26.7005 26.2352 26.9931L26.8182 28.3752ZM25.275 29.9217L26.4739 30.8231L26.4739 30.8231L25.275 29.9217ZM25.0895 29.1044L24.5065 27.7223C24.0135 27.9302 23.6686 28.3851 23.6014 28.9159L25.0895 29.1044ZM24.9184 30.4556L23.4303 30.2672C23.341 30.972 23.7585 31.6428 24.4303 31.874C25.1021 32.1052 25.844 31.8333 26.2074 31.2228L24.9184 30.4556ZM46.411 15.2504L45.163 16.0825L45.163 16.0825L46.411 15.2504ZM45.0652 14.9812L44.2331 13.7332L44.2331 13.7332L45.0652 14.9812ZM46.4904 23.3295L47.8611 23.9387L47.8611 23.9387L46.4904 23.3295ZM45.2094 23.8222L44.6002 25.1929L44.6002 25.1929L45.2094 23.8222ZM43.7461 22.5412L45.1169 23.1504L45.1169 23.1504L43.7461 22.5412ZM43.8255 16.3271L42.5774 17.1592L42.5774 17.1592L43.8255 16.3271ZM44.8688 15.108L44.0896 13.8262C44.0807 13.8316 44.0719 13.8371 44.0632 13.8427L44.8688 15.108ZM44.8689 15.1079L45.6482 16.3896C45.657 16.3842 45.6659 16.3787 45.6746 16.3731L44.8689 15.1079ZM49.1424 12.8057C48.8991 12.9679 48.5704 12.9022 48.4081 12.6589L50.9043 10.9947C50.1474 9.85945 48.6135 9.55271 47.4783 10.3096L49.1424 12.8057ZM49.2892 12.0714C49.4515 12.3148 49.3857 12.6435 49.1424 12.8057L47.4783 10.3096C46.343 11.0665 46.0363 12.6003 46.7931 13.7356L49.2892 12.0714ZM49.3325 26.7565C52.432 19.7826 50.648 14.1095 49.2892 12.0714L46.7931 13.7356C47.5932 14.9357 49.2646 19.5226 46.5911 25.5381L49.3325 26.7565ZM49.0637 26.0576C49.331 26.1764 49.4513 26.4893 49.3325 26.7565L46.5911 25.5381C46.037 26.785 46.5985 28.2449 47.8453 28.7991L49.0637 26.0576ZM48.3649 26.3264C48.4836 26.0592 48.7965 25.9389 49.0637 26.0576L47.8453 28.7991C49.0922 29.3532 50.5522 28.7917 51.1063 27.5448L48.3649 26.3264ZM48.4081 12.6589C49.5697 14.4012 51.3139 19.6909 48.3649 26.3264L51.1063 27.5448C54.4815 19.9506 52.6243 13.5747 50.9043 10.9947L48.4081 12.6589ZM11.3255 11.1336C8.94266 11.1336 7.01099 13.0653 7.01099 15.4481H10.011C10.011 14.7222 10.5995 14.1336 11.3255 14.1336V11.1336ZM18.6143 11.1336H11.3255V14.1336H18.6143V11.1336ZM22.0078 11.1336H18.6143V14.1336H22.0078V11.1336ZM36.3424 11.1336H22.0078V14.1336H36.3424V11.1336ZM38.6516 11.8032C37.983 11.379 37.1891 11.1336 36.3424 11.1336V14.1336C36.6033 14.1336 36.8423 14.2081 37.0445 14.3364L38.6516 11.8032ZM38.9701 11.1892C38.2061 11.1892 37.4981 11.4472 36.9344 11.8801L38.7616 14.2595C38.8196 14.2149 38.8897 14.1892 38.9701 14.1892V11.1892ZM40.5542 11.1892H38.9701V14.1892H40.5542V11.1892ZM43.8982 14.5332C43.8982 12.6863 42.4011 11.1892 40.5542 11.1892V14.1892C40.7442 14.1892 40.8982 14.3432 40.8982 14.5332H43.8982ZM43.8982 24.3735V14.5332H40.8982V24.3735H43.8982ZM40.5542 27.7175C42.4011 27.7175 43.8982 26.2203 43.8982 24.3735H40.8982C40.8982 24.5635 40.7442 24.7175 40.5542 24.7175V27.7175ZM38.9701 27.7175H40.5542V24.7175H38.9701V27.7175ZM37.5408 27.3971C37.976 27.603 38.4618 27.7175 38.9701 27.7175V24.7175C38.9148 24.7175 38.8665 24.7055 38.824 24.6854L37.5408 27.3971ZM36.9917 28.1765C37.816 28.0495 38.5616 27.6942 39.1612 27.1778L37.2035 24.9046C37.0204 25.0623 36.7922 25.1718 36.535 25.2114L36.9917 28.1765ZM31.7901 29.4012C33.5568 28.7695 35.4648 28.4116 36.9917 28.1765L36.5351 25.2114C34.9524 25.4552 32.8193 25.8471 30.78 26.5764L31.7901 29.4012ZM30.8779 29.7595C31.1707 29.6331 31.4754 29.5138 31.7901 29.4012L30.78 26.5764C30.4105 26.7085 30.0458 26.8511 29.6889 27.0052L30.8779 29.7595ZM31.6426 34.7883L31.783 28.4154L28.7837 28.3493L28.6434 34.7222L31.6426 34.7883ZM27.0381 39.2926C29.5422 39.2926 31.5875 37.2918 31.6426 34.7883L28.6434 34.7222C28.6241 35.595 27.9111 36.2926 27.0381 36.2926V39.2926ZM24.8808 39.2926H27.0381V36.2926H24.8808V39.2926ZM26.3036 38.8406C26.3247 38.5306 26.3484 38.225 26.3749 37.9246L23.3866 37.6605C23.3581 37.9826 23.3329 38.3084 23.3105 38.6371L26.3036 38.8406ZM26.1943 47.9311C26.1499 45.1484 26.0983 41.8605 26.3036 38.8406L23.3105 38.6371C23.0952 41.804 23.1506 45.2191 23.1947 47.979L26.1943 47.9311ZM26.1945 47.9551V47.955H23.1945V47.9551H26.1945ZM26.2068 48.7319C26.2029 48.4707 26.1987 48.2033 26.1943 47.9311L23.1947 47.979C23.199 48.2515 23.2033 48.5174 23.2072 48.7769L26.2068 48.7319ZM21.911 53.0788C24.2841 53.0788 26.2432 51.1519 26.2068 48.7319L23.2072 48.7769C23.2179 49.4919 22.6406 50.0788 21.911 50.0788V53.0788ZM14.9416 53.0788H21.911V50.0788H14.9416V53.0788ZM10.6186 48.7819C10.6356 51.1498 12.5573 53.0788 14.9416 53.0788V50.0788C14.2164 50.0788 13.6238 49.4905 13.6185 48.7603L10.6186 48.7819ZM10.6136 48.109L10.6186 48.7823L13.6185 48.7599L13.6135 48.0865L10.6136 48.109ZM10.7393 39.1227C10.5673 42.1229 10.5922 45.3097 10.6136 48.1092L13.6135 48.0863C13.5919 45.2685 13.5689 42.1806 13.7344 39.2945L10.7393 39.1227ZM12.3724 30.2079C11.3371 32.6736 10.922 35.9373 10.7393 39.1227L13.7344 39.2945C13.9142 36.1588 14.3139 33.333 15.1385 31.3694L12.3724 30.2079ZM12.4845 30.2537C12.4456 30.2074 12.4244 30.166 12.4135 30.1383C12.4027 30.1108 12.401 30.0947 12.4009 30.0932C12.4007 30.0911 12.4042 30.1323 12.3724 30.2079L15.1385 31.3694C15.5433 30.4054 15.5179 29.1997 14.7806 28.3229L12.4845 30.2537ZM11.7277 29.3538L12.4845 30.2537L14.7806 28.3229L14.0238 27.423L11.7277 29.3538ZM11.3255 29.8884H12.8758V26.8884H11.3255V29.8884ZM7.01099 25.5738C7.01099 27.9567 8.94266 29.8884 11.3255 29.8884V26.8884C10.5995 26.8884 10.011 26.2998 10.011 25.5738H7.01099ZM7.01099 15.4481V25.5738H10.011V15.4481H7.01099ZM15.9867 12.8806H11.3255V15.8806H15.9867V12.8806ZM12.2996 24.0534L17.2961 15.1123L14.6773 13.6488L9.68078 22.59L12.2996 24.0534ZM12.441 25.5407C12.0894 25.1225 12.0331 24.5304 12.2996 24.0534L9.68078 22.59C8.80594 24.1555 8.99073 26.0989 10.1449 27.4715L12.441 25.5407ZM12.5548 25.676L12.441 25.5407L10.1449 27.4715L10.2587 27.6068L12.5548 25.676ZM11.3255 28.1414H11.4068V25.1414H11.3255V28.1414ZM8.75792 25.5738C8.75792 26.9919 9.90746 28.1414 11.3255 28.1414V25.1414C11.5643 25.1414 11.7579 25.335 11.7579 25.5738H8.75792ZM8.75792 15.4481V25.5738H11.7579V15.4481H8.75792ZM11.3255 12.8806C9.90747 12.8806 8.75792 14.0301 8.75792 15.4481H11.7579C11.7579 15.687 11.5643 15.8806 11.3255 15.8806V12.8806ZM13.9022 29.2354C14.1938 29.6616 14.2305 30.2951 13.9831 30.8842L16.7492 32.0457C17.2907 30.756 17.3774 29.0018 16.378 27.5413L13.9022 29.2354ZM22.0078 26.8884H15.1401V29.8884H22.0078V26.8884ZM22.401 26.829C22.2787 26.8672 22.1471 26.8884 22.0078 26.8884V29.8884C22.4541 29.8884 22.8874 29.8201 23.2961 29.6923L22.401 26.829ZM23.2955 36.6701L24.3366 28.4491L21.3604 28.0722L20.3192 36.2931L23.2955 36.6701ZM23.2144 36.4062C23.278 36.4784 23.3076 36.5745 23.2955 36.6701L20.3192 36.2931C20.2231 37.0521 20.4579 37.8158 20.9637 38.3898L23.2144 36.4062ZM22.9628 36.2926C23.0591 36.2926 23.1507 36.3339 23.2144 36.4062L20.9637 38.3898C21.4696 38.9637 22.1977 39.2926 22.9628 39.2926V36.2926ZM23.1273 36.2926H22.9628V39.2926H23.1273V36.2926ZM24.5607 38.7221C24.579 38.4525 24.5994 38.1848 24.6219 37.9195L21.6327 37.6656C21.6086 37.9488 21.587 38.2333 21.5676 38.5186L24.5607 38.7221ZM24.4277 46.6624C24.3929 44.17 24.3822 41.348 24.5607 38.7221L21.5676 38.5186C21.3801 41.2765 21.3931 44.2043 21.428 46.7043L24.4277 46.6624ZM13.8506 48.1834H22.9278V45.1834H13.8506V48.1834ZM12.4834 39.2228C12.3423 41.6828 12.3364 44.2714 12.3506 46.6922L15.3506 46.6746C15.3364 44.2601 15.3432 41.7529 15.4785 39.3945L12.4834 39.2228ZM13.9831 30.8842C13.0705 33.0577 12.6644 36.0666 12.4834 39.2228L15.4785 39.3945C15.6567 36.2868 16.0476 33.7165 16.7492 32.0457L13.9831 30.8842ZM15.3604 48.0829L15.3586 47.8366L12.3587 47.8594L12.3605 48.1056L15.3604 48.0829ZM15.3654 48.7473L15.3604 48.083L12.3605 48.1054L12.3655 48.7697L15.3654 48.7473ZM14.9416 48.3318C15.1803 48.3318 15.3638 48.5221 15.3654 48.7478L12.3655 48.7693C12.3757 50.1847 13.5245 51.3318 14.9416 51.3318V48.3318ZM21.911 48.3318H14.9416V51.3318H21.911V48.3318ZM21.4604 48.8031C21.4564 48.5319 21.6769 48.3318 21.911 48.3318V51.3318C23.3305 51.3318 24.4815 50.1819 24.4601 48.7581L21.4604 48.8031ZM21.4479 48.0027C21.4523 48.277 21.4565 48.5439 21.4604 48.8031L24.4601 48.7581C24.4562 48.4971 24.4519 48.2287 24.4475 47.9547L21.4479 48.0027ZM21.4479 48.0018L21.4479 48.0029L24.4475 47.9545L24.4475 47.9535L21.4479 48.0018ZM21.4458 47.872L21.4479 48.0017L24.4475 47.9536L24.4454 47.824L21.4458 47.872ZM13.8586 49.348H22.9456V46.348H13.8586V49.348ZM25.1203 28.1914L29.2986 26.4289L28.1327 23.6648L23.9544 25.4272L25.1203 28.1914ZM23.3223 25.5739C23.3223 25.7836 23.2743 25.9778 23.19 26.15L25.8847 27.4686C26.1654 26.8949 26.3223 26.2505 26.3223 25.5739H23.3223ZM23.3223 15.4481V25.5739H26.3223V15.4481H23.3223ZM23.225 14.9499C23.2872 15.1016 23.3223 15.2689 23.3223 15.4481H26.3223C26.3223 14.8716 26.2084 14.318 26.0005 13.8112L23.225 14.9499ZM36.3424 12.8806H24.6127V15.8806H36.3424V12.8806ZM38.2271 13.7045C37.7601 13.1998 37.0874 12.8806 36.3424 12.8806V15.8806C36.2169 15.8806 36.1022 15.8252 36.0252 15.742L38.2271 13.7045ZM38.6262 24.3735V14.7233H35.6262V24.3735H38.6262ZM38.6293 24.4213C38.6273 24.4063 38.6262 24.3904 38.6262 24.3735H35.6262C35.6262 24.5233 35.6361 24.6715 35.6555 24.8175L38.6293 24.4213ZM36.7258 26.4499C37.3354 26.356 37.8731 26.0542 38.2625 25.6171L36.0223 23.6216C36.0896 23.5461 36.1792 23.4987 36.2691 23.4848L36.7258 26.4499ZM31.2019 27.7563C33.1274 27.0677 35.1665 26.69 36.7258 26.4499L36.2691 23.4848C34.6537 23.7336 32.3898 24.1455 30.1917 24.9315L31.2019 27.7563ZM30.8585 27.883C30.9726 27.8396 31.0871 27.7974 31.2019 27.7563L30.1917 24.9315C30.0588 24.979 29.9255 25.0281 29.7921 25.0789L30.8585 27.883ZM28.833 26.1125L28.8256 26.4479L31.8249 26.514L31.8323 26.1786L28.833 26.1125ZM28.9798 26.3973C28.8858 26.3334 28.8305 26.2262 28.833 26.1125L31.8323 26.1786C31.8522 25.2754 31.4131 24.4237 30.6659 23.9159L28.9798 26.3973ZM29.2986 26.4289C29.1939 26.4731 29.0739 26.4612 28.9798 26.3973L30.6659 23.9159C29.9187 23.4082 28.9651 23.3137 28.1327 23.6648L29.2986 26.4289ZM22.0078 15.8806C21.7689 15.8806 21.5753 15.687 21.5753 15.4481H24.5753C24.5753 14.0301 23.4258 12.8806 22.0078 12.8806V15.8806ZM18.6143 15.8806H22.0078V12.8806H18.6143V15.8806ZM18.9918 15.6591C18.9153 15.7958 18.7709 15.8806 18.6143 15.8806V12.8806C17.6841 12.8806 16.8267 13.3836 16.3729 14.1956L18.9918 15.6591ZM13.8246 24.9056L18.9918 15.6591L16.3729 14.1956L11.2058 23.4422L13.8246 24.9056ZM13.7781 24.4164C13.8938 24.5539 13.9123 24.7487 13.8246 24.9056L11.2058 23.4422C10.6851 24.3738 10.7951 25.5304 11.482 26.3472L13.7781 24.4164ZM14.8373 25.676L13.7781 24.4164L11.482 26.3472L12.5412 27.6068L14.8373 25.676ZM22.0078 25.1414H13.6893V28.1414H22.0078V25.1414ZM21.5753 25.5739C21.5753 25.335 21.7689 25.1414 22.0078 25.1414V28.1414C23.4258 28.1414 24.5753 26.9919 24.5753 25.5739H21.5753ZM21.5753 15.4481V25.5739H24.5753V15.4481H21.5753ZM37.6569 23.9164C37.6569 24.0066 37.648 24.0932 37.6314 24.1759L40.573 24.7652C40.6282 24.4894 40.6569 24.2054 40.6569 23.9164H37.6569ZM37.6569 15.4481V23.9164H40.6569V15.4481H37.6569ZM37.5699 14.9756C37.6256 15.1203 37.6569 15.2788 37.6569 15.4481H40.6569C40.6569 14.904 40.5555 14.3801 40.3691 13.8966L37.5699 14.9756ZM38.9513 12.9362L38.9506 12.9363L38.9883 15.936L38.989 15.936L38.9513 12.9362ZM40.5542 12.9361H38.9701V15.9361H40.5542V12.9361ZM42.1513 14.5332C42.1513 13.6512 41.4363 12.9361 40.5542 12.9361V15.9361C39.7794 15.9361 39.1513 15.308 39.1513 14.5332H42.1513ZM42.1513 24.3735V14.5332H39.1513V24.3735H42.1513ZM40.5542 25.9706C41.4363 25.9706 42.1513 25.2555 42.1513 24.3735H39.1513C39.1513 23.5987 39.7793 22.9706 40.5542 22.9706V25.9706ZM39.1022 25.9706H40.5542V22.9706H39.1022V25.9706ZM26.4243 29.6954L26.3147 34.671L29.3139 34.737L29.4235 29.7615L26.4243 29.6954ZM27.8701 31.873C28.1192 31.5418 28.4412 31.2227 28.8379 30.9179L27.0099 28.5391C26.4359 28.9802 25.9108 29.487 25.4723 30.0701L27.8701 31.873ZM26.8885 34.4224C27.1839 33.1283 27.5415 32.3101 27.8701 31.873L25.4723 30.0701C24.771 31.0028 24.2956 32.3009 23.9637 33.7549L26.8885 34.4224ZM26.6437 35.7003C26.7161 35.2482 26.7975 34.8213 26.8885 34.4224L23.9637 33.7549C23.8559 34.2271 23.7625 34.7195 23.6814 35.2264L26.6437 35.7003ZM27.0381 33.9633H25.1626V36.9633H27.0381V33.9633ZM26.3147 34.671C26.3233 34.2776 26.6447 33.9633 27.0381 33.9633V36.9633C28.2758 36.9633 29.2867 35.9744 29.3139 34.737L26.3147 34.671ZM25.8979 27.1907C25.2291 27.7102 24.6063 28.315 24.076 29.0202L26.4739 30.8231C26.8209 30.3616 27.2466 29.9418 27.7384 29.5598L25.8979 27.1907ZM25.6725 30.4864L27.4011 29.7573L26.2352 26.9931L24.5065 27.7223L25.6725 30.4864ZM26.4065 30.6441L26.5776 29.2928L23.6014 28.9159L23.4303 30.2672L26.4065 30.6441ZM24.076 29.0202C23.9148 29.2347 23.7664 29.4584 23.6294 29.6885L26.2074 31.2228C26.2942 31.0769 26.3831 30.9439 26.4739 30.8231L24.076 29.0202ZM47.6591 14.4183C46.9022 13.2831 45.3684 12.9763 44.2331 13.7332L45.8972 16.2293C45.6539 16.3915 45.3252 16.3258 45.163 16.0825L47.6591 14.4183ZM47.8611 23.9387C49.7366 19.7188 48.7543 16.061 47.6591 14.4183L45.163 16.0825C45.6997 16.8876 46.5691 19.4592 45.1197 22.7203L47.8611 23.9387ZM44.6002 25.1929C45.847 25.7471 47.307 25.1855 47.8611 23.9387L45.1197 22.7203C45.2385 22.4531 45.5514 22.3327 45.8186 22.4515L44.6002 25.1929ZM42.3754 21.932C42.0208 22.73 42.3409 23.4305 42.5874 23.7806C42.8248 24.118 43.1354 24.3611 43.3533 24.5133C43.8107 24.8329 44.3433 25.0788 44.6002 25.1929L45.8186 22.4515C45.5857 22.348 45.2778 22.1982 45.0716 22.0541C44.9577 21.9746 44.9807 21.9688 45.0407 22.0541C45.0766 22.105 45.1568 22.2328 45.1969 22.4316C45.2414 22.6525 45.2244 22.9084 45.1169 23.1504L42.3754 21.932ZM42.5774 17.1592C42.7526 17.422 43.5493 19.2908 42.3754 21.932L45.1169 23.1504C46.7166 19.5509 45.8075 16.5959 45.0736 15.495L42.5774 17.1592ZM44.0632 13.8427C43.8422 13.9834 43.3873 14.267 43.0348 14.5976C42.8644 14.7575 42.5975 15.0361 42.4304 15.4242C42.2322 15.8845 42.1685 16.5458 42.5774 17.1592L45.0736 15.495C45.1894 15.6688 45.2649 15.8847 45.274 16.1178C45.2825 16.3381 45.2297 16.5089 45.1858 16.6106C45.1113 16.7838 45.0271 16.842 45.087 16.7859C45.1274 16.748 45.2008 16.6889 45.3153 16.609C45.4269 16.5311 45.5451 16.4556 45.6745 16.3732L44.0632 13.8427ZM44.0897 13.8262L44.0896 13.8262L45.648 16.3897L45.6482 16.3896L44.0897 13.8262ZM44.2331 13.7332C44.1925 13.7603 44.1403 13.7936 44.0633 13.8426L45.6746 16.3731C45.7436 16.3292 45.825 16.2775 45.8973 16.2293L44.2331 13.7332Z" fill="#F8F9FA" mask="url(#path-1-outside-1_50_11776)"/>
<path d="M29.0284 34.7845L29.2168 26.2324L24.0669 28.4047L23.0112 36.7404H27.0289C28.1163 36.7404 29.0044 35.8716 29.0284 34.7845Z" stroke="#212529" stroke-width="2.4" stroke-linecap="round" stroke-linejoin="round"/>
<path d="M36.332 13.6201H23.9006H18.6974C17.9729 13.6201 17.305 14.012 16.9516 14.6445L11.8211 23.8253C11.4156 24.551 11.5012 25.4519 12.0363 26.0881L14.3212 28.8053C14.8932 29.4856 14.9333 30.4588 14.5927 31.2799C12.8788 35.4113 12.997 42.8779 13.0401 48.8184C13.0482 49.923 13.9446 50.8183 15.0491 50.8183H21.9006C23.0052 50.8183 23.8981 49.926 23.8813 48.8215C23.7935 43.0284 23.5364 33.865 26.0217 30.5596C28.3226 27.4994 33.4814 26.4389 36.6285 25.9515C37.6074 25.7999 38.332 24.9691 38.332 23.9786V15.6201C38.332 14.5155 37.4366 13.6201 36.332 13.6201Z" fill="#748FFC" stroke="#212529" stroke-width="1.8" stroke-linecap="round" stroke-linejoin="round"/>
<rect x="38.0481" y="13.6758" width="3.52513" height="11.7814" rx="1" fill="#4C6EF5" stroke="#212529" stroke-width="1.8" stroke-linecap="round" stroke-linejoin="round"/>
<rect x="9.43298" y="13.6201" width="14.5644" height="14.0078" rx="2" fill="#E3FAFC" stroke="#212529" stroke-width="1.8" stroke-linecap="round" stroke-linejoin="round"/>
<path d="M12.9402 20.4023C12.5951 20.4023 12.2956 20.3356 12.0417 20.2021C11.7911 20.0654 11.5974 19.8717 11.4607 19.6211C11.3272 19.3704 11.2605 19.0726 11.2605 18.7275C11.2605 18.3825 11.3272 18.0846 11.4607 17.834C11.5974 17.5801 11.7911 17.3864 12.0417 17.2529C12.2956 17.1162 12.5951 17.0479 12.9402 17.0479C13.2852 17.0479 13.5831 17.1162 13.8337 17.2529C14.0844 17.3864 14.2764 17.5801 14.4099 17.834C14.5466 18.0846 14.615 18.3825 14.615 18.7275C14.615 19.0726 14.5466 19.3704 14.4099 19.6211C14.2764 19.8717 14.0844 20.0654 13.8337 20.2021C13.5831 20.3356 13.2852 20.4023 12.9402 20.4023ZM12.9402 19.4355C13.0931 19.4355 13.2136 19.3737 13.3015 19.25C13.3894 19.123 13.4333 18.9489 13.4333 18.7275C13.4333 18.5029 13.3894 18.3288 13.3015 18.2051C13.2136 18.0781 13.0931 18.0146 12.9402 18.0146C12.7839 18.0146 12.6618 18.0781 12.5739 18.2051C12.486 18.3288 12.4421 18.5029 12.4421 18.7275C12.4421 18.9489 12.486 19.123 12.5739 19.25C12.6618 19.3737 12.7839 19.4355 12.9402 19.4355ZM21.4997 22.7119C21.6495 22.8519 21.7243 23.0114 21.7243 23.1904C21.7243 23.3402 21.6706 23.4883 21.5632 23.6348C21.254 24.0482 20.8894 24.3542 20.4694 24.5527C20.0528 24.748 19.5645 24.8457 19.0046 24.8457C18.3047 24.8457 17.6846 24.6927 17.1443 24.3867C16.6039 24.0775 16.1823 23.6429 15.8796 23.083C15.5769 22.5231 15.4206 21.877 15.4109 21.1445C15.4206 20.4121 15.5769 19.766 15.8796 19.2061C16.1823 18.6462 16.6039 18.2132 17.1443 17.9072C17.6846 17.598 18.3047 17.4434 19.0046 17.4434C19.5612 17.4434 20.0479 17.5426 20.4646 17.7412C20.8812 17.9398 21.2458 18.2458 21.5583 18.6592C21.6592 18.7926 21.7097 18.9359 21.7097 19.0889C21.7097 19.1768 21.6902 19.263 21.6511 19.3477C21.612 19.4323 21.5567 19.5104 21.4851 19.582C21.3581 19.7057 21.223 19.7676 21.0798 19.7676C20.9073 19.7676 20.7331 19.6699 20.5573 19.4746C20.323 19.2174 20.0788 19.0286 19.8249 18.9082C19.571 18.7845 19.2976 18.7227 19.0046 18.7227C18.5944 18.7227 18.2315 18.8236 17.9157 19.0254C17.6 19.2272 17.351 19.512 17.1687 19.8799C16.9896 20.2445 16.8969 20.666 16.8903 21.1445C16.8969 21.623 16.9896 22.0462 17.1687 22.4141C17.3477 22.7786 17.5951 23.0618 17.9109 23.2637C18.2299 23.4655 18.5944 23.5664 19.0046 23.5664C19.2943 23.5664 19.5661 23.5062 19.82 23.3857C20.0739 23.262 20.3181 23.0716 20.5525 22.8145C20.7347 22.6126 20.9105 22.5117 21.0798 22.5117C21.2198 22.5117 21.3597 22.5785 21.4997 22.7119Z" fill="#212529"/>
<path d="M24.0299 47.3789H13.1166" stroke="#212529" stroke-width="1.2" stroke-linecap="round" stroke-linejoin="round"/>
<path d="M45.6521 15.9023C46.2874 16.8552 47.1767 19.6185 45.6521 23.0489" stroke="#212529" stroke-width="2" stroke-linecap="round" stroke-linejoin="round"/>
<path d="M48.8972 12.4785C50.1573 14.3686 51.9215 19.8501 48.8972 26.6548" stroke="#212529" stroke-width="2" stroke-linecap="round" stroke-linejoin="round"/>
</svg>
