<svg width="60" height="61" viewBox="0 0 60 61" fill="none" xmlns="http://www.w3.org/2000/svg">
<mask id="path-1-outside-1_50_5031" maskUnits="userSpaceOnUse" x="0.742312" y="11.8349" width="58.8358" height="48.0342" fill="black">
<rect fill="white" x="0.742312" y="11.8349" width="58.8358" height="48.0342"/>
<path fill-rule="evenodd" clip-rule="evenodd" d="M8.9929 25.9808C8.6226 25.9808 8.32242 26.281 8.32242 26.6513L8.32242 28.0953L7.60634 28.3072C7.25127 28.4123 7.04862 28.7853 7.1537 29.1404L8.79695 34.6927C8.8927 35.0163 9.21393 35.2182 9.54699 35.1643C10.0081 35.0897 10.4671 35.163 10.8687 35.354C10.8611 36.4916 10.0087 37.4297 8.90779 37.5706C8.57313 37.6134 8.32242 37.8982 8.32242 38.2356L8.32242 44.7751C8.32242 45.1454 8.6226 45.4456 8.99289 45.4456L11.9793 45.4456L12.297 46.519C12.3475 46.6895 12.4636 46.833 12.6198 46.9179C12.7761 47.0028 12.9597 47.0221 13.1302 46.9717L18.2867 45.4456L51.0071 45.4456C51.3774 45.4456 51.6775 45.1454 51.6775 44.7751L51.6775 38.2356C51.6775 38.043 51.5947 37.8596 51.45 37.7324C51.3054 37.6051 51.113 37.5461 50.922 37.5706C50.8275 37.5827 50.731 37.5889 50.6326 37.5889C49.7947 37.5889 49.0637 37.1309 48.6764 36.4516L53.417 35.0486C53.7721 34.9435 53.9747 34.5705 53.8697 34.2154L52.0139 27.9449C51.9618 27.7689 51.84 27.6224 51.6775 27.5389L51.6775 26.6513C51.6775 26.281 51.3774 25.9808 51.0071 25.9808L47.9996 25.9808C47.726 24.8266 48.3998 23.6465 49.5511 23.3058C49.6454 23.2779 49.7398 23.2565 49.8338 23.2413C50.024 23.2105 50.1918 23.0994 50.2943 22.9363C50.3969 22.7732 50.4243 22.5739 50.3696 22.3891L48.7264 16.8367C48.6759 16.6662 48.5598 16.5228 48.4035 16.4379C48.2473 16.353 48.0637 16.3337 47.8932 16.3841L15.4668 25.9808L8.9929 25.9808ZM10.9359 27.3218L9.66337 27.3218L9.66337 27.6984L10.9359 27.3218ZM9.66337 29.0968L15.6611 27.3218L47.1156 27.3218C47.7902 28.4394 49.0307 29.1071 50.3366 29.0527L50.3366 31.7594C48.4917 31.91 47.0414 33.4549 47.0414 35.3386C47.0414 35.4047 47.0432 35.4703 47.0467 35.5355L18.0924 44.1046L12.9809 44.1046L11.8802 40.3855C13.1665 39.538 13.8063 37.921 13.3466 36.3675C13.1273 35.6267 12.6905 35.0099 12.1264 34.5661C11.8478 33.295 10.896 32.2763 9.66337 31.9019L9.66337 29.0968ZM9.82407 33.4381L9.92961 33.7947C10.045 33.7955 10.1597 33.8019 10.2733 33.8137C10.1408 33.6699 9.98979 33.5435 9.82407 33.4381ZM11.9964 36.5608C11.6134 37.6194 10.7468 38.4463 9.66337 38.7753L9.66337 44.1046L11.5824 44.1046L10.4412 40.2485C10.3455 39.925 10.505 39.5807 10.8138 39.4447C11.834 38.9952 12.3855 37.8455 12.0607 36.748C12.0418 36.6841 12.0203 36.6217 11.9964 36.5608ZM13.3777 45.4456L13.3925 45.4956L13.5615 45.4456L13.3777 45.4456ZM22.8176 44.1046L50.3366 44.1046L50.3366 38.9179C49.0161 38.8101 47.8978 37.988 47.3687 36.8386L22.8176 44.1046ZM48.3912 35.1375L52.3936 33.953L51.6775 31.5336L51.6775 32.4416C51.6775 32.6343 51.5947 32.8176 51.45 32.9449C51.3054 33.0722 51.1131 33.1312 50.922 33.1067C50.8275 33.0946 50.731 33.0883 50.6326 33.0883C49.4576 33.0883 48.4929 33.989 48.3912 35.1375ZM50.3366 27.7096L50.3366 27.3218L48.9204 27.3218C49.3289 27.6004 49.8262 27.7434 50.3366 27.7096ZM46.6355 25.9808L20.192 25.9808L47.6308 17.8602L48.8902 22.1155C47.3233 22.7217 46.3941 24.3371 46.6355 25.9808Z"/>
</mask>
<path fill-rule="evenodd" clip-rule="evenodd" d="M8.9929 25.9808C8.6226 25.9808 8.32242 26.281 8.32242 26.6513L8.32242 28.0953L7.60634 28.3072C7.25127 28.4123 7.04862 28.7853 7.1537 29.1404L8.79695 34.6927C8.8927 35.0163 9.21393 35.2182 9.54699 35.1643C10.0081 35.0897 10.4671 35.163 10.8687 35.354C10.8611 36.4916 10.0087 37.4297 8.90779 37.5706C8.57313 37.6134 8.32242 37.8982 8.32242 38.2356L8.32242 44.7751C8.32242 45.1454 8.6226 45.4456 8.99289 45.4456L11.9793 45.4456L12.297 46.519C12.3475 46.6895 12.4636 46.833 12.6198 46.9179C12.7761 47.0028 12.9597 47.0221 13.1302 46.9717L18.2867 45.4456L51.0071 45.4456C51.3774 45.4456 51.6775 45.1454 51.6775 44.7751L51.6775 38.2356C51.6775 38.043 51.5947 37.8596 51.45 37.7324C51.3054 37.6051 51.113 37.5461 50.922 37.5706C50.8275 37.5827 50.731 37.5889 50.6326 37.5889C49.7947 37.5889 49.0637 37.1309 48.6764 36.4516L53.417 35.0486C53.7721 34.9435 53.9747 34.5705 53.8697 34.2154L52.0139 27.9449C51.9618 27.7689 51.84 27.6224 51.6775 27.5389L51.6775 26.6513C51.6775 26.281 51.3774 25.9808 51.0071 25.9808L47.9996 25.9808C47.726 24.8266 48.3998 23.6465 49.5511 23.3058C49.6454 23.2779 49.7398 23.2565 49.8338 23.2413C50.024 23.2105 50.1918 23.0994 50.2943 22.9363C50.3969 22.7732 50.4243 22.5739 50.3696 22.3891L48.7264 16.8367C48.6759 16.6662 48.5598 16.5228 48.4035 16.4379C48.2473 16.353 48.0637 16.3337 47.8932 16.3841L15.4668 25.9808L8.9929 25.9808ZM10.9359 27.3218L9.66337 27.3218L9.66337 27.6984L10.9359 27.3218ZM9.66337 29.0968L15.6611 27.3218L47.1156 27.3218C47.7902 28.4394 49.0307 29.1071 50.3366 29.0527L50.3366 31.7594C48.4917 31.91 47.0414 33.4549 47.0414 35.3386C47.0414 35.4047 47.0432 35.4703 47.0467 35.5355L18.0924 44.1046L12.9809 44.1046L11.8802 40.3855C13.1665 39.538 13.8063 37.921 13.3466 36.3675C13.1273 35.6267 12.6905 35.0099 12.1264 34.5661C11.8478 33.295 10.896 32.2763 9.66337 31.9019L9.66337 29.0968ZM9.82407 33.4381L9.92961 33.7947C10.045 33.7955 10.1597 33.8019 10.2733 33.8137C10.1408 33.6699 9.98979 33.5435 9.82407 33.4381ZM11.9964 36.5608C11.6134 37.6194 10.7468 38.4463 9.66337 38.7753L9.66337 44.1046L11.5824 44.1046L10.4412 40.2485C10.3455 39.925 10.505 39.5807 10.8138 39.4447C11.834 38.9952 12.3855 37.8455 12.0607 36.748C12.0418 36.6841 12.0203 36.6217 11.9964 36.5608ZM13.3777 45.4456L13.3925 45.4956L13.5615 45.4456L13.3777 45.4456ZM22.8176 44.1046L50.3366 44.1046L50.3366 38.9179C49.0161 38.8101 47.8978 37.988 47.3687 36.8386L22.8176 44.1046ZM48.3912 35.1375L52.3936 33.953L51.6775 31.5336L51.6775 32.4416C51.6775 32.6343 51.5947 32.8176 51.45 32.9449C51.3054 33.0722 51.1131 33.1312 50.922 33.1067C50.8275 33.0946 50.731 33.0883 50.6326 33.0883C49.4576 33.0883 48.4929 33.989 48.3912 35.1375ZM50.3366 27.7096L50.3366 27.3218L48.9204 27.3218C49.3289 27.6004 49.8262 27.7434 50.3366 27.7096ZM46.6355 25.9808L20.192 25.9808L47.6308 17.8602L48.8902 22.1155C47.3233 22.7217 46.3941 24.3371 46.6355 25.9808Z" fill="#F8F9FA"/>
<path d="M8.32242 26.6514L6.82242 26.6514L6.82242 26.6514L8.32242 26.6514ZM8.9929 25.9809L8.9929 24.4809L8.9929 24.4809L8.9929 25.9809ZM8.32242 28.0953L8.7481 29.5336C9.38526 29.3451 9.82242 28.7598 9.82242 28.0953L8.32242 28.0953ZM7.1537 29.1404L8.59203 28.7147L7.1537 29.1404ZM8.79695 34.6928L7.35862 35.1185L8.79695 34.6928ZM9.54699 35.1644L9.78665 36.6451L9.78666 36.6451L9.54699 35.1644ZM10.8687 35.354L12.3687 35.3641C12.3726 34.7817 12.039 34.2497 11.5131 33.9995L10.8687 35.354ZM8.90779 37.5706L8.71738 36.0828L8.71738 36.0828L8.90779 37.5706ZM8.32242 38.2357L6.82242 38.2357L6.82242 38.2357L8.32242 38.2357ZM8.32242 44.7751L9.82242 44.7751L9.82242 44.7751L8.32242 44.7751ZM8.99289 45.4456L8.99289 46.9456L8.9929 46.9456L8.99289 45.4456ZM11.9793 45.4456L13.4176 45.0199C13.2291 44.3828 12.6438 43.9456 11.9793 43.9456L11.9793 45.4456ZM12.297 46.5191L13.7353 46.0934L12.297 46.5191ZM12.6198 46.9179L13.3359 45.5999L13.3359 45.5999L12.6198 46.9179ZM18.2867 45.4456L18.2867 43.9456C18.1426 43.9456 17.9992 43.9664 17.861 44.0073L18.2867 45.4456ZM51.0071 45.4456L51.0071 43.9456L51.0071 43.9456L51.0071 45.4456ZM51.6775 44.7751L50.1775 44.7751L50.1775 44.7751L51.6775 44.7751ZM51.6775 38.2357L53.1775 38.2357L53.1775 38.2357L51.6775 38.2357ZM51.45 37.7324L52.4411 36.6064L52.4411 36.6064L51.45 37.7324ZM50.922 37.5706L50.7316 36.0828L50.7315 36.0828L50.922 37.5706ZM50.6326 37.589L50.6326 39.089L50.6327 39.089L50.6326 37.589ZM48.6764 36.4516L48.2507 35.0133C47.8115 35.1433 47.4557 35.4669 47.2847 35.8919C47.1138 36.3168 47.1464 36.7966 47.3733 37.1946L48.6764 36.4516ZM51.6775 27.5389L50.1775 27.5389C50.1775 28.101 50.4918 28.616 50.9917 28.873L51.6775 27.5389ZM51.6775 26.6514L53.1775 26.6514L53.1775 26.6514L51.6775 26.6514ZM51.0071 25.9809L51.0071 24.4809L51.0071 24.4809L51.0071 25.9809ZM47.9996 25.9809L46.5401 26.327C46.7005 27.0033 47.3045 27.4809 47.9996 27.4809L47.9996 25.9809ZM49.8338 23.2413L50.0735 24.722L50.0735 24.722L49.8338 23.2413ZM50.2943 22.9363L51.5641 23.7348L51.5642 23.7348L50.2943 22.9363ZM50.3696 22.3892L51.808 21.9635L50.3696 22.3892ZM48.7264 16.8368L47.288 17.2625L48.7264 16.8368ZM48.4035 16.4379L47.6875 17.756L47.6875 17.756L48.4035 16.4379ZM47.8932 16.3842L47.4675 14.9458L47.8932 16.3842ZM15.4668 25.9809L15.4668 27.4809C15.6109 27.4809 15.7543 27.4601 15.8925 27.4192L15.4668 25.9809ZM10.9359 27.3218L11.3616 28.7602C12.0763 28.5486 12.5273 27.8444 12.4204 27.1068C12.3135 26.3691 11.6812 25.8218 10.9359 25.8218L10.9359 27.3218ZM9.66337 27.3218L9.66337 25.8218C9.26554 25.8218 8.88401 25.9799 8.60271 26.2612C8.3214 26.5425 8.16337 26.924 8.16337 27.3218L9.66337 27.3218ZM9.66337 27.6984L8.16337 27.6984C8.16337 28.1716 8.38664 28.6171 8.76574 28.9002C9.14484 29.1834 9.63533 29.2711 10.0891 29.1368L9.66337 27.6984ZM15.6611 27.3218L15.6611 25.8218C15.517 25.8218 15.3736 25.8426 15.2354 25.8835L15.6611 27.3218ZM9.66337 29.0969L9.23769 27.6586C8.60053 27.8471 8.16337 28.4324 8.16337 29.0969L9.66337 29.0969ZM47.1156 27.3218L48.3998 26.5467C48.1283 26.0968 47.6411 25.8218 47.1156 25.8218L47.1156 27.3218ZM50.3366 29.0527L51.8366 29.0527C51.8366 28.644 51.6699 28.2531 51.3749 27.9702C51.08 27.6873 50.6825 27.537 50.2741 27.554L50.3366 29.0527ZM50.3366 31.7595L50.4586 33.2545C51.2371 33.191 51.8366 32.5406 51.8366 31.7595L50.3366 31.7595ZM47.0414 35.3387L48.5414 35.3387L48.5414 35.3387L47.0414 35.3387ZM47.0467 35.5355L47.4724 36.9738C48.1384 36.7767 48.582 36.1482 48.5445 35.4546L47.0467 35.5355ZM18.0924 44.1046L18.0924 45.6046C18.2366 45.6046 18.3799 45.5839 18.5181 45.543L18.0924 44.1046ZM12.9809 44.1046L11.5425 44.5303C11.7311 45.1675 12.3164 45.6046 12.9809 45.6046L12.9809 44.1046ZM11.8802 40.3855L11.0549 39.133C10.5033 39.4964 10.2544 40.1778 10.4419 40.8112L11.8802 40.3855ZM12.1264 34.5661L10.6612 34.8873C10.7356 35.2268 10.9257 35.53 11.1989 35.7449L12.1264 34.5661ZM9.66337 31.902L8.16337 31.902C8.16337 32.5625 8.59544 33.1453 9.22746 33.3373L9.66337 31.902ZM9.82407 33.4381L10.629 32.1724C10.1011 31.8367 9.42044 31.8638 8.921 32.2404C8.42155 32.617 8.20823 33.264 8.38574 33.8638L9.82407 33.4381ZM9.92961 33.7947L8.49128 34.2204C8.67873 34.8538 9.25843 35.29 9.91894 35.2947L9.92961 33.7947ZM10.2733 33.8138L10.1181 35.3057C10.7387 35.3703 11.3344 35.044 11.6141 34.4863C11.8938 33.9286 11.7991 33.256 11.3763 32.7972L10.2733 33.8138ZM11.9964 36.5609L13.3924 36.012C13.164 35.4312 12.5999 35.0525 11.9758 35.061C11.3518 35.0696 10.7983 35.4636 10.5859 36.0505L11.9964 36.5609ZM9.66337 38.7754L9.22746 37.3401C8.59544 37.5321 8.16337 38.1149 8.16337 38.7754L9.66337 38.7754ZM9.66337 44.1046L8.16337 44.1046C8.16337 44.9331 8.83494 45.6046 9.66337 45.6046L9.66337 44.1046ZM11.5824 44.1046L11.5824 45.6046C12.0556 45.6046 12.5011 45.3814 12.7842 45.0023C13.0674 44.6232 13.155 44.1327 13.0208 43.679L11.5824 44.1046ZM10.8138 39.4447L10.209 38.0721L10.209 38.0721L10.8138 39.4447ZM13.3777 45.4456L13.3777 43.9456C12.9046 43.9456 12.4591 44.1689 12.176 44.548C11.8928 44.9271 11.8051 45.4175 11.9394 45.8713L13.3777 45.4456ZM13.3925 45.4956L11.9542 45.9213C12.1893 46.7157 13.0239 47.169 13.8182 46.9339L13.3925 45.4956ZM13.5615 45.4456L13.9872 46.8839C14.7019 46.6724 15.1529 45.9682 15.046 45.2305C14.9392 44.4929 14.3069 43.9456 13.5615 43.9456L13.5615 45.4456ZM22.8176 44.1046L22.392 42.6663C21.6773 42.8778 21.2263 43.5821 21.3331 44.3197C21.44 45.0574 22.0723 45.6046 22.8176 45.6046L22.8176 44.1046ZM50.3366 44.1046L50.3366 45.6046C51.165 45.6046 51.8366 44.9331 51.8366 44.1046L50.3366 44.1046ZM50.3366 38.9179L51.8366 38.9179C51.8366 38.1368 51.2371 37.4864 50.4586 37.4229L50.3366 38.9179ZM47.3687 36.8387L48.7313 36.2114C48.4195 35.5343 47.6578 35.1888 46.943 35.4003L47.3687 36.8387ZM48.3912 35.1376L46.8971 35.0053C46.8532 35.4999 47.0571 35.9841 47.4414 36.2986C47.8257 36.613 48.3407 36.7168 48.8169 36.5759L48.3912 35.1376ZM52.3936 33.9531L52.8192 35.3914C53.2007 35.2785 53.5217 35.0187 53.7116 34.6691C53.9015 34.3196 53.9448 33.9089 53.8319 33.5274L52.3936 33.9531ZM51.6775 31.5337L53.1159 31.108C52.9043 30.3933 52.2001 29.9423 51.4625 30.0492C50.7248 30.156 50.1775 30.7883 50.1775 31.5337L51.6775 31.5337ZM51.6775 32.4417L50.1775 32.4417L50.1775 32.4417L51.6775 32.4417ZM51.45 32.945L50.459 31.819L50.459 31.819L51.45 32.945ZM50.922 33.1067L50.7316 34.5946L50.7316 34.5946L50.922 33.1067ZM50.6326 33.0884L50.6326 34.5884L50.6326 34.5884L50.6326 33.0884ZM50.3366 27.7096L50.4358 29.2063C51.224 29.154 51.8366 28.4995 51.8366 27.7096L50.3366 27.7096ZM50.3366 27.3218L51.8366 27.3218C51.8366 26.4934 51.165 25.8218 50.3366 25.8218L50.3366 27.3218ZM48.9205 27.3218L48.9204 25.8218C48.2624 25.8218 47.6812 26.2507 47.4872 26.8795C47.2931 27.5083 47.5315 28.1901 48.0751 28.561L48.9205 27.3218ZM20.192 25.9809L19.7663 24.5426C19.0516 24.7541 18.6006 25.4583 18.7075 26.1959C18.8144 26.9336 19.4467 27.4809 20.192 27.4809L20.192 25.9809ZM46.6355 25.9809L46.6355 27.4809C47.0713 27.4809 47.4856 27.2913 47.7706 26.9615C48.0555 26.6317 48.1829 26.1942 48.1196 25.763L46.6355 25.9809ZM47.6308 17.8602L49.0692 17.4346C48.8341 16.6402 47.9995 16.1868 47.2051 16.4219L47.6308 17.8602ZM48.8902 22.1155L49.4314 23.5145C50.1599 23.2326 50.5502 22.4389 50.3285 21.6898L48.8902 22.1155ZM9.82242 26.6514C9.82242 27.1095 9.45103 27.4809 8.9929 27.4809L8.9929 24.4809C7.79418 24.4809 6.82242 25.4526 6.82242 26.6514L9.82242 26.6514ZM9.82242 28.0953L9.82242 26.6514L6.82242 26.6514L6.82242 28.0953L9.82242 28.0953ZM8.03202 29.7456L8.7481 29.5336L7.89674 26.657L7.18066 26.8689L8.03202 29.7456ZM8.59203 28.7147C8.72205 29.154 8.47132 29.6155 8.03202 29.7456L7.18066 26.8689C6.03122 27.2091 5.37519 28.4167 5.71537 29.5661L8.59203 28.7147ZM10.2353 34.2671L8.59203 28.7147L5.71537 29.5661L7.35862 35.1185L10.2353 34.2671ZM9.30732 33.6836C9.71938 33.6169 10.1168 33.8668 10.2353 34.2671L7.35862 35.1185C7.66857 36.1658 8.70848 36.8196 9.78665 36.6451L9.30732 33.6836ZM11.5131 33.9995C10.8456 33.682 10.079 33.5587 9.30732 33.6836L9.78666 36.6451C9.93726 36.6207 10.0886 36.644 10.2243 36.7086L11.5131 33.9995ZM9.09819 39.0585C10.9357 38.8233 12.356 37.2611 12.3687 35.3641L9.36873 35.344C9.3662 35.7223 9.08173 36.0361 8.71738 36.0828L9.09819 39.0585ZM9.82242 38.2357C9.82242 38.6531 9.51224 39.0055 9.09819 39.0585L8.71738 36.0828C7.63401 36.2214 6.82242 37.1435 6.82242 38.2357L9.82242 38.2357ZM9.82242 44.7751L9.82242 38.2357L6.82242 38.2357L6.82242 44.7751L9.82242 44.7751ZM8.9929 43.9456C9.45103 43.9456 9.82242 44.317 9.82242 44.7751L6.82242 44.7751C6.82242 45.9738 7.79418 46.9456 8.99289 46.9456L8.9929 43.9456ZM11.9793 43.9456L8.99289 43.9456L8.9929 46.9456L11.9793 46.9456L11.9793 43.9456ZM13.7353 46.0934L13.4176 45.0199L10.541 45.8713L10.8587 46.9447L13.7353 46.0934ZM13.3359 45.5999C13.5292 45.7049 13.6729 45.8824 13.7353 46.0934L10.8587 46.9447C11.022 47.4967 11.398 47.9612 11.9038 48.236L13.3359 45.5999ZM12.7045 45.5334C12.9155 45.4709 13.1426 45.4949 13.3359 45.5999L11.9038 48.236C12.4096 48.5108 13.0039 48.5734 13.5559 48.41L12.7045 45.5334ZM17.861 44.0073L12.7045 45.5334L13.5559 48.41L18.7124 46.8839L17.861 44.0073ZM51.0071 43.9456L18.2867 43.9456L18.2867 46.9456L51.0071 46.9456L51.0071 43.9456ZM50.1775 44.7751C50.1775 44.317 50.5489 43.9456 51.0071 43.9456L51.0071 46.9456C52.2058 46.9456 53.1775 45.9738 53.1775 44.7751L50.1775 44.7751ZM50.1775 38.2357L50.1775 44.7751L53.1775 44.7751L53.1775 38.2357L50.1775 38.2357ZM50.459 38.8584C50.2801 38.7009 50.1775 38.474 50.1775 38.2357L53.1775 38.2357C53.1775 37.612 52.9093 37.0185 52.4411 36.6064L50.459 38.8584ZM51.1123 39.0585C50.8759 39.0887 50.6379 39.0158 50.459 38.8584L52.4411 36.6064C51.973 36.1944 51.3502 36.0036 50.7316 36.0828L51.1123 39.0585ZM50.6327 39.089C50.7948 39.089 50.9549 39.0786 51.1124 39.0585L50.7315 36.0828C50.7001 36.0868 50.6671 36.089 50.6326 36.089L50.6327 39.089ZM47.3733 37.1946C48.0166 38.3228 49.2342 39.089 50.6326 39.089L50.6326 36.089C50.3552 36.089 50.1108 35.9391 49.9795 35.7087L47.3733 37.1946ZM52.9913 33.6103L48.2507 35.0133L49.1021 37.89L53.8427 36.4869L52.9913 33.6103ZM52.4313 34.6411C52.3013 34.2018 52.552 33.7403 52.9913 33.6103L53.8427 36.4869C54.9921 36.1468 55.6482 34.9392 55.308 33.7898L52.4313 34.6411ZM50.5756 28.3706L52.4313 34.6411L55.308 33.7898L53.4522 27.5193L50.5756 28.3706ZM50.9917 28.873C50.7906 28.7696 50.64 28.5884 50.5756 28.3706L53.4522 27.5193C53.2836 26.9496 52.8894 26.4753 52.3633 26.2049L50.9917 28.873ZM50.1775 26.6514L50.1775 27.5389L53.1775 27.5389L53.1775 26.6514L50.1775 26.6514ZM51.0071 27.4809C50.5489 27.4809 50.1775 27.1095 50.1775 26.6514L53.1775 26.6514C53.1775 25.4526 52.2058 24.4809 51.0071 24.4809L51.0071 27.4809ZM47.9996 27.4809L51.0071 27.4809L51.0071 24.4809L47.9996 24.4809L47.9996 27.4809ZM49.1255 21.8675C47.2062 22.4355 46.0837 24.4021 46.5401 26.327L49.4592 25.6348C49.3682 25.2512 49.5934 24.8576 49.9768 24.7442L49.1255 21.8675ZM49.5942 21.7606C49.4375 21.7859 49.281 21.8215 49.1255 21.8675L49.9768 24.7442C50.0099 24.7344 50.0422 24.7271 50.0735 24.722L49.5942 21.7606ZM49.0245 22.1379C49.1514 21.9361 49.3589 21.7987 49.5942 21.7606L50.0735 24.722C50.6891 24.6224 51.2322 24.2627 51.5641 23.7348L49.0245 22.1379ZM48.9313 22.8149C48.8636 22.5863 48.8976 22.3397 49.0245 22.1379L51.5642 23.7348C51.8961 23.2068 51.985 22.5615 51.808 21.9635L48.9313 22.8149ZM47.288 17.2625L48.9313 22.8149L51.808 21.9635L50.1647 16.4111L47.288 17.2625ZM47.6875 17.756C47.4942 17.651 47.3505 17.4734 47.288 17.2625L50.1647 16.4111C50.0013 15.8591 49.6254 15.3946 49.1196 15.1199L47.6875 17.756ZM48.3189 17.8225C48.1079 17.8849 47.8808 17.861 47.6875 17.756L49.1196 15.1199C48.6138 14.8451 48.0195 14.7825 47.4675 14.9458L48.3189 17.8225ZM15.8925 27.4192L48.3189 17.8225L47.4675 14.9458L15.0411 24.5426L15.8925 27.4192ZM8.9929 27.4809L15.4668 27.4809L15.4668 24.4809L8.9929 24.4809L8.9929 27.4809ZM10.9359 25.8218L9.66337 25.8218L9.66337 28.8218L10.9359 28.8218L10.9359 25.8218ZM8.16337 27.3218L8.16337 27.6984L11.1634 27.6984L11.1634 27.3218L8.16337 27.3218ZM10.0891 29.1368L11.3616 28.7602L10.5102 25.8835L9.23769 26.2601L10.0891 29.1368ZM15.2354 25.8835L9.23769 27.6586L10.0891 30.5352L16.0868 28.7602L15.2354 25.8835ZM47.1156 25.8218L15.6611 25.8218L15.6611 28.8218L47.1156 28.8218L47.1156 25.8218ZM50.2741 27.554C49.5161 27.5856 48.7916 27.1958 48.3998 26.5467L45.8314 28.0969C46.7888 29.6832 48.5453 30.6286 50.399 30.5514L50.2741 27.554ZM51.8366 31.7595L51.8366 29.0527L48.8366 29.0527L48.8366 31.7595L51.8366 31.7595ZM48.5414 35.3387C48.5414 34.2425 49.3858 33.342 50.4586 33.2545L50.2146 30.2644C47.5976 30.478 45.5414 32.6674 45.5414 35.3387L48.5414 35.3387ZM48.5445 35.4546C48.5424 35.4163 48.5414 35.3777 48.5414 35.3387L45.5414 35.3387C45.5414 35.4317 45.5439 35.5243 45.5489 35.6164L48.5445 35.4546ZM18.5181 45.543L47.4724 36.9738L46.621 34.0972L17.6668 42.6663L18.5181 45.543ZM12.9809 45.6046L18.0924 45.6046L18.0924 42.6046L12.9809 42.6046L12.9809 45.6046ZM10.4419 40.8112L11.5425 44.5303L14.4192 43.679L13.3185 39.9599L10.4419 40.8112ZM11.9082 36.7932C12.1753 37.6956 11.8052 38.6386 11.0549 39.133L12.7055 41.6381C14.5277 40.4374 15.4374 38.1465 14.7849 35.9418L11.9082 36.7932ZM11.1989 35.7449C11.5267 36.0029 11.78 36.3598 11.9082 36.7932L14.7849 35.9418C14.4747 34.8936 13.8542 34.0169 13.0539 33.3872L11.1989 35.7449ZM9.22746 33.3373C9.94469 33.5551 10.4997 34.1505 10.6612 34.8873L13.5916 34.2449C13.1959 32.4395 11.8473 30.9976 10.0993 30.4667L9.22746 33.3373ZM8.16337 29.0969L8.16337 31.902L11.1634 31.902L11.1634 29.0969L8.16337 29.0969ZM8.38574 33.8638L8.49128 34.2204L11.3679 33.369L11.2624 33.0124L8.38574 33.8638ZM9.91894 35.2947C9.98577 35.2952 10.0522 35.2989 10.1181 35.3057L10.4285 32.3218C10.2671 32.305 10.1042 32.2959 9.94028 32.2948L9.91894 35.2947ZM11.3763 32.7972C11.1561 32.5583 10.905 32.3479 10.629 32.1724L9.01917 34.7039C9.07456 34.7391 9.12548 34.7817 9.17033 34.8303L11.3763 32.7972ZM10.5859 36.0505C10.3631 36.6661 9.85668 37.149 9.22746 37.3401L10.0993 40.2106C11.637 39.7436 12.8636 38.5728 13.4069 37.0713L10.5859 36.0505ZM8.16337 38.7754L8.16337 44.1046L11.1634 44.1046L11.1634 38.7754L8.16337 38.7754ZM9.66337 45.6046L11.5824 45.6046L11.5824 42.6046L9.66337 42.6046L9.66337 45.6046ZM13.0208 43.679L11.8795 39.8229L9.00288 40.6742L10.1441 44.5303L13.0208 43.679ZM11.8795 39.8229C11.998 40.2231 11.8006 40.6491 11.4186 40.8174L10.209 38.0721C9.20949 38.5124 8.69293 39.6269 9.00288 40.6742L11.8795 39.8229ZM11.4186 40.8174C13.1214 40.0671 14.0406 38.1522 13.4991 36.3224L10.6224 37.1737C10.7305 37.5389 10.5467 37.9233 10.209 38.0721L11.4186 40.8174ZM13.4991 36.3224C13.4678 36.2167 13.4322 36.1132 13.3924 36.012L10.6004 37.1098C10.6085 37.1303 10.6159 37.1516 10.6224 37.1737L13.4991 36.3224ZM11.9394 45.8713L11.9542 45.9213L14.8309 45.0699L14.8161 45.0199L11.9394 45.8713ZM13.8182 46.9339L13.9872 46.8839L13.1358 44.0073L12.9669 44.0573L13.8182 46.9339ZM13.5615 43.9456L13.3777 43.9456L13.3777 46.9456L13.5615 46.9456L13.5615 43.9456ZM22.8176 45.6046L50.3366 45.6046L50.3366 42.6046L22.8176 42.6046L22.8176 45.6046ZM51.8366 44.1046L51.8366 38.9179L48.8366 38.9179L48.8366 44.1046L51.8366 44.1046ZM50.4586 37.4229C49.6941 37.3605 49.0407 36.8836 48.7313 36.2114L46.0061 37.4659C46.7548 39.0924 48.3381 40.2598 50.2146 40.4129L50.4586 37.4229ZM46.943 35.4003L22.392 42.6663L23.2433 45.543L47.7944 38.277L46.943 35.4003ZM48.8169 36.5759L52.8192 35.3914L51.9679 32.5147L47.9655 33.6993L48.8169 36.5759ZM53.8319 33.5274L53.1159 31.108L50.2392 31.9594L50.9552 34.3787L53.8319 33.5274ZM50.1775 31.5337L50.1775 32.4417L53.1775 32.4417L53.1775 31.5337L50.1775 31.5337ZM50.1775 32.4417C50.1775 32.2033 50.2801 31.9765 50.459 31.819L52.4411 34.071C52.9093 33.6589 53.1775 33.0654 53.1775 32.4417L50.1775 32.4417ZM50.459 31.819C50.6379 31.6615 50.8759 31.5886 51.1124 31.6189L50.7316 34.5946C51.3502 34.6738 51.973 34.483 52.4411 34.0709L50.459 31.819ZM51.1124 31.6189C50.9549 31.5987 50.7948 31.5884 50.6326 31.5884L50.6326 34.5884C50.6671 34.5884 50.7001 34.5906 50.7316 34.5946L51.1124 31.6189ZM50.6326 31.5884C48.6736 31.5884 47.0667 33.0895 46.8971 35.0053L49.8854 35.2699C49.9191 34.8885 50.2417 34.5884 50.6326 34.5884L50.6326 31.5884ZM51.8366 27.7096L51.8366 27.3218L48.8366 27.3218L48.8366 27.7096L51.8366 27.7096ZM50.3366 25.8218L48.9204 25.8218L48.9205 28.8218L50.3366 28.8218L50.3366 25.8218ZM48.0751 28.561C48.7531 29.0235 49.5815 29.2629 50.4358 29.2063L50.2374 26.2129C50.0708 26.2239 49.9046 26.1775 49.7658 26.0827L48.0751 28.561ZM20.192 27.4809L46.6355 27.4809L46.6355 24.4809L20.192 24.4809L20.192 27.4809ZM47.2051 16.4219L19.7663 24.5426L20.6177 27.4192L48.0565 19.2986L47.2051 16.4219ZM50.3285 21.6898L49.0692 17.4346L46.1925 18.2859L47.4519 22.5412L50.3285 21.6898ZM48.1196 25.763C47.9794 24.808 48.5218 23.8664 49.4314 23.5145L48.349 20.7166C46.1249 21.577 44.8089 23.8662 45.1514 26.1988L48.1196 25.763Z" fill="#F8F9FA" mask="url(#path-1-outside-1_50_5031)"/>
<path fill-rule="evenodd" clip-rule="evenodd" d="M8.99292 26.6514H51.0071V32.4414C50.8845 32.4257 50.7595 32.4176 50.6327 32.4176C49.0196 32.4176 47.7119 33.7253 47.7119 35.3384C47.7119 36.9515 49.0196 38.2591 50.6327 38.2591C50.7595 38.2591 50.8845 38.251 51.0071 38.2354V44.7751H8.99292V38.2354C10.4292 38.0516 11.5393 36.8246 11.5393 35.3384C11.5393 33.8521 10.4292 32.6252 8.99292 32.4414V26.6514Z" fill="#748FFC"/>
<path d="M51.0071 26.6514H51.7071C51.7071 26.2648 51.3937 25.9514 51.0071 25.9514V26.6514ZM8.99292 26.6514V25.9514C8.60632 25.9514 8.29292 26.2648 8.29292 26.6514H8.99292ZM51.0071 32.4414L50.9182 33.1357C51.1177 33.1612 51.3186 33.0997 51.4696 32.9668C51.6206 32.8339 51.7071 32.6425 51.7071 32.4414H51.0071ZM51.0071 38.2354H51.7071C51.7071 38.0342 51.6206 37.8428 51.4696 37.7099C51.3186 37.577 51.1177 37.5155 50.9182 37.541L51.0071 38.2354ZM51.0071 44.7751V45.4751C51.3937 45.4751 51.7071 45.1617 51.7071 44.7751H51.0071ZM8.99292 44.7751H8.29292C8.29292 45.1617 8.60632 45.4751 8.99292 45.4751V44.7751ZM8.99292 38.2354L8.90406 37.541C8.55467 37.5857 8.29292 37.8831 8.29292 38.2354H8.99292ZM8.99292 32.4414H8.29292C8.29292 32.7936 8.55467 33.091 8.90406 33.1357L8.99292 32.4414ZM51.0071 25.9514H8.99292V27.3514H51.0071V25.9514ZM51.7071 32.4414V26.6514H50.3071V32.4414H51.7071ZM50.6327 33.1176C50.7297 33.1176 50.825 33.1238 50.9182 33.1357L51.0959 31.747C50.9439 31.7276 50.7893 31.7176 50.6327 31.7176V33.1176ZM48.4119 35.3384C48.4119 34.1119 49.4062 33.1176 50.6327 33.1176V31.7176C48.633 31.7176 47.0119 33.3387 47.0119 35.3384H48.4119ZM50.6327 37.5591C49.4062 37.5591 48.4119 36.5649 48.4119 35.3384H47.0119C47.0119 37.3381 48.633 38.9591 50.6327 38.9591V37.5591ZM50.9182 37.541C50.825 37.5529 50.7297 37.5591 50.6327 37.5591V38.9591C50.7893 38.9591 50.944 38.9491 51.0959 38.9297L50.9182 37.541ZM51.7071 44.7751V38.2354H50.3071V44.7751H51.7071ZM8.99292 45.4751H51.0071V44.0751H8.99292V45.4751ZM8.29292 38.2354V44.7751H9.69292V38.2354H8.29292ZM10.8393 35.3384C10.8393 36.4679 9.9954 37.4014 8.90406 37.541L9.08178 38.9297C10.863 38.7018 12.2393 37.1813 12.2393 35.3384H10.8393ZM8.90406 33.1357C9.9954 33.2754 10.8393 34.2089 10.8393 35.3384H12.2393C12.2393 33.4954 10.863 31.975 9.08178 31.747L8.90406 33.1357ZM8.29292 26.6514V32.4414H9.69292V26.6514H8.29292Z" fill="#212529"/>
<path d="M17.231 32.418H26.2928" stroke="#212529" stroke-width="1.6" stroke-linecap="round" stroke-linejoin="round"/>
<path d="M17.231 35.7134H26.2928" stroke="#212529" stroke-width="1.6" stroke-linecap="round" stroke-linejoin="round"/>
<path d="M17.231 39.0083H23.8214" stroke="#212529" stroke-width="1.6" stroke-linecap="round" stroke-linejoin="round"/>
<path d="M40.1316 26.6514V44.3632" stroke="#212529" stroke-width="0.5" stroke-linecap="round" stroke-linejoin="round" stroke-dasharray="1.5 1.5"/>
<path fill-rule="evenodd" clip-rule="evenodd" d="M7.79687 28.9512L48.0837 17.0281L49.7268 22.5797C49.6047 22.5995 49.4826 22.6272 49.3609 22.6632C47.8141 23.121 46.9313 24.746 47.3891 26.2928C47.8469 27.8395 49.4719 28.7223 51.0186 28.2646C51.1403 28.2286 51.2579 28.1853 51.371 28.1355L53.227 34.4067L12.9402 46.3298L11.0841 40.0585C12.4092 39.4746 13.1254 37.9831 12.7037 36.558C12.2819 35.1328 10.8692 34.2713 9.43987 34.5027L7.79687 28.9512Z" fill="#748FFC"/>
<path d="M48.0837 17.0281L48.8508 16.8011C48.7254 16.3774 48.2804 16.1356 47.8567 16.261L48.0837 17.0281ZM7.79688 28.9512L7.56985 28.1841C7.14618 28.3094 6.90438 28.7545 7.02977 29.1782L7.79688 28.9512ZM49.7268 22.5797L49.8546 23.3694C50.0815 23.3327 50.2816 23.2002 50.404 23.0056C50.5264 22.8109 50.5591 22.5731 50.4939 22.3527L49.7268 22.5797ZM51.371 28.1355L52.1381 27.9085C52.0729 27.688 51.916 27.5063 51.7074 27.4096C51.4988 27.313 51.2588 27.3107 51.0484 27.4034L51.371 28.1355ZM53.227 34.4067L53.454 35.1738C53.6575 35.1136 53.8287 34.9751 53.93 34.7886C54.0313 34.6022 54.0543 34.3832 53.9941 34.1797L53.227 34.4067ZM12.9402 46.3298L12.1731 46.5568C12.2984 46.9805 12.7435 47.2223 13.1672 47.0969L12.9402 46.3298ZM11.0841 40.0585L10.7616 39.3264C10.3932 39.4887 10.2028 39.8995 10.317 40.2855L11.0841 40.0585ZM9.43987 34.5027L8.67276 34.7297C8.787 35.1157 9.1703 35.3567 9.5677 35.2924L9.43987 34.5027ZM47.8567 16.261L7.56985 28.1841L8.0239 29.7183L48.3108 17.7952L47.8567 16.261ZM50.4939 22.3527L48.8508 16.8011L47.3166 17.2551L48.9596 22.8067L50.4939 22.3527ZM49.5879 23.4303C49.6769 23.404 49.766 23.3838 49.8546 23.3694L49.599 21.79C49.4435 21.8151 49.2882 21.8504 49.1339 21.8961L49.5879 23.4303ZM48.1562 26.0657C47.8238 24.9426 48.4648 23.7627 49.5879 23.4303L49.1339 21.8961C47.1634 22.4792 46.0388 24.5493 46.622 26.5198L48.1562 26.0657ZM50.7916 27.4975C49.6685 27.8299 48.4886 27.1888 48.1562 26.0657L46.622 26.5198C47.2051 28.4902 49.2752 29.6148 51.2457 29.0317L50.7916 27.4975ZM51.0484 27.4034C50.9663 27.4396 50.8806 27.4711 50.7916 27.4975L51.2457 29.0317C51.4 28.986 51.5495 28.9311 51.6936 28.8676L51.0484 27.4034ZM53.9941 34.1797L52.1381 27.9085L50.6039 28.3625L52.4599 34.6338L53.9941 34.1797ZM13.1672 47.0969L53.454 35.1738L53 33.6396L12.7131 45.5627L13.1672 47.0969ZM10.317 40.2855L12.1731 46.5568L13.7073 46.1028L11.8512 39.8314L10.317 40.2855ZM11.9366 36.785C12.2426 37.8192 11.723 38.9028 10.7616 39.3264L11.4067 40.7906C13.0954 40.0465 14.0083 38.147 13.4708 36.3309L11.9366 36.785ZM9.5677 35.2924C10.6048 35.1245 11.6305 35.7508 11.9366 36.785L13.4708 36.3309C12.9333 34.5148 11.1337 33.4181 9.31204 33.713L9.5677 35.2924ZM7.02977 29.1782L8.67276 34.7297L10.207 34.2757L8.56398 28.7241L7.02977 29.1782Z" fill="#212529"/>
<circle opacity="0.3" cx="18.4826" cy="33.8641" r="4.44062" transform="rotate(8.49925 18.4826 33.8641)" fill="#F8F9FA"/>
<path d="M17.3325 32.1421L26.0218 29.5704" stroke="#212529" stroke-width="1.2" stroke-linecap="round" stroke-linejoin="round"/>
<path d="M18.2677 35.3022L26.957 32.7306" stroke="#212529" stroke-width="1.2" stroke-linecap="round" stroke-linejoin="round"/>
<path d="M19.2029 38.4619L25.5224 36.5916" stroke="#212529" stroke-width="1.2" stroke-linecap="round" stroke-linejoin="round"/>
<path opacity="0.3" d="M35.1048 29.5663L28.6386 40.9982L52.3318 33.9082L51.4919 31.0852C48.8901 31.6135 47.5338 30.3612 46.7438 29.4035C46.847 30.053 46.321 32.2326 43.898 33.0695C41.6156 33.8579 37.3907 31.2431 35.1048 29.5663Z" fill="#F8F9FA"/>
<path d="M37.7255 19.9458L42.7519 36.9295" stroke="#212529" stroke-width="0.5" stroke-linecap="round" stroke-linejoin="round" stroke-dasharray="1.5 1.5"/>
</svg>
