<svg width="60" height="61" viewBox="0 0 60 61" fill="none" xmlns="http://www.w3.org/2000/svg">
<mask id="path-1-outside-1_50_5001" maskUnits="userSpaceOnUse" x="7.61847" y="4.00112" width="54.4472" height="54.4472" fill="black">
<rect fill="white" x="7.61847" y="4.00112" width="54.4472" height="54.4472"/>
<path fill-rule="evenodd" clip-rule="evenodd" d="M12.2417 22.7665C11.2505 21.7753 11.2505 20.1681 12.2417 19.1768C13.0688 18.3498 14.3245 18.2128 15.2936 18.7658C15.3479 18.6903 15.409 18.6182 15.4768 18.5503L19.7423 14.2848C20.236 13.7912 20.9536 13.658 21.568 13.8854C21.5654 13.5818 21.5968 13.2816 21.6695 12.9838C21.8441 12.2677 22.2408 11.6315 22.8455 11.0268C23.3292 10.5431 23.7251 9.96068 23.9874 9.43653C24.1183 9.17511 24.2101 8.93981 24.2637 8.7498C24.2904 8.6551 24.3057 8.57849 24.3129 8.5204C24.3194 8.46773 24.3178 8.44238 24.3176 8.43882C24.3175 8.43827 24.3175 8.43824 24.3176 8.43871C24.2766 8.15191 24.4238 7.87106 24.6829 7.7415C24.942 7.61194 25.255 7.66272 25.4598 7.86758C26.3021 8.7098 27.2626 10.1353 27.9415 12.0099C28.4272 13.351 29.4764 14.5083 30.6635 15.5074C31.2519 16.0027 31.8598 16.4475 32.4282 16.8496C32.587 16.962 32.745 17.0725 32.8992 17.1804C33.2853 17.4506 33.648 17.7044 33.9436 17.9305C34.877 18.6442 35.3787 19.5601 35.4334 20.5165C35.4874 21.4617 35.0997 22.3612 34.4199 23.0442C33.6377 23.8669 32.6779 24.1205 31.8991 24.171C32.1668 24.8014 32.0437 25.5582 31.5297 26.0722L27.2642 30.3376C27.2183 30.3836 27.1703 30.4265 27.1208 30.4662L47.0955 50.4409C48.0867 51.4321 48.0867 53.0393 47.0955 54.0306C46.1042 55.0218 44.497 55.0218 43.5058 54.0306L12.2417 22.7665ZM13.3296 20.2647C12.9391 20.6552 12.9391 21.2882 13.3296 21.6787L44.5936 52.9427C44.9841 53.3331 45.6171 53.3331 46.0076 52.9427C46.3981 52.5522 46.3981 51.9192 46.0076 51.5287L14.7436 20.2647C14.3531 19.8742 13.7201 19.8742 13.3296 20.2647ZM16.5647 19.6381C16.4896 19.7132 16.4896 19.835 16.5647 19.9101L25.9044 29.2498C25.9795 29.3249 26.1013 29.3249 26.1764 29.2498L30.4418 24.9843C30.5169 24.9092 30.5169 24.7874 30.4418 24.7123L21.1021 15.3727C21.027 15.2976 20.9053 15.2976 20.8302 15.3727L16.5647 19.6381ZM23.7974 11.9787C24.3943 11.3818 24.8716 10.6777 25.1912 10.039C25.2328 9.95595 25.2721 9.87317 25.309 9.7911C25.7909 10.4799 26.2821 11.381 26.6758 12.4683C27.2812 14.1398 28.5439 15.4829 29.7966 16.5373C30.4281 17.0689 31.072 17.5391 31.6507 17.9486C31.827 18.0733 31.995 18.1909 32.1543 18.3023L32.1543 18.3023C32.5284 18.5641 32.8542 18.7921 33.1259 18.9998C33.7948 19.5113 34.0603 20.0843 34.0894 20.5934C34.119 21.1107 33.9097 21.6507 33.4614 22.0989L33.4484 22.1123C32.7635 22.8363 31.8148 22.878 31.1705 22.8145L23.0161 14.6601C22.8923 14.1219 22.8834 13.6876 22.9773 13.3028C23.0799 12.8821 23.3214 12.4547 23.7974 11.9787Z"/>
</mask>
<path fill-rule="evenodd" clip-rule="evenodd" d="M12.2417 22.7665C11.2505 21.7753 11.2505 20.1681 12.2417 19.1768C13.0688 18.3498 14.3245 18.2128 15.2936 18.7658C15.3479 18.6903 15.409 18.6182 15.4768 18.5503L19.7423 14.2848C20.236 13.7912 20.9536 13.658 21.568 13.8854C21.5654 13.5818 21.5968 13.2816 21.6695 12.9838C21.8441 12.2677 22.2408 11.6315 22.8455 11.0268C23.3292 10.5431 23.7251 9.96068 23.9874 9.43653C24.1183 9.17511 24.2101 8.93981 24.2637 8.7498C24.2904 8.6551 24.3057 8.57849 24.3129 8.5204C24.3194 8.46773 24.3178 8.44238 24.3176 8.43882C24.3175 8.43827 24.3175 8.43824 24.3176 8.43871C24.2766 8.15191 24.4238 7.87106 24.6829 7.7415C24.942 7.61194 25.255 7.66272 25.4598 7.86758C26.3021 8.7098 27.2626 10.1353 27.9415 12.0099C28.4272 13.351 29.4764 14.5083 30.6635 15.5074C31.2519 16.0027 31.8598 16.4475 32.4282 16.8496C32.587 16.962 32.745 17.0725 32.8992 17.1804C33.2853 17.4506 33.648 17.7044 33.9436 17.9305C34.877 18.6442 35.3787 19.5601 35.4334 20.5165C35.4874 21.4617 35.0997 22.3612 34.4199 23.0442C33.6377 23.8669 32.6779 24.1205 31.8991 24.171C32.1668 24.8014 32.0437 25.5582 31.5297 26.0722L27.2642 30.3376C27.2183 30.3836 27.1703 30.4265 27.1208 30.4662L47.0955 50.4409C48.0867 51.4321 48.0867 53.0393 47.0955 54.0306C46.1042 55.0218 44.497 55.0218 43.5058 54.0306L12.2417 22.7665ZM13.3296 20.2647C12.9391 20.6552 12.9391 21.2882 13.3296 21.6787L44.5936 52.9427C44.9841 53.3331 45.6171 53.3331 46.0076 52.9427C46.3981 52.5522 46.3981 51.9192 46.0076 51.5287L14.7436 20.2647C14.3531 19.8742 13.7201 19.8742 13.3296 20.2647ZM16.5647 19.6381C16.4896 19.7132 16.4896 19.835 16.5647 19.9101L25.9044 29.2498C25.9795 29.3249 26.1013 29.3249 26.1764 29.2498L30.4418 24.9843C30.5169 24.9092 30.5169 24.7874 30.4418 24.7123L21.1021 15.3727C21.027 15.2976 20.9053 15.2976 20.8302 15.3727L16.5647 19.6381ZM23.7974 11.9787C24.3943 11.3818 24.8716 10.6777 25.1912 10.039C25.2328 9.95595 25.2721 9.87317 25.309 9.7911C25.7909 10.4799 26.2821 11.381 26.6758 12.4683C27.2812 14.1398 28.5439 15.4829 29.7966 16.5373C30.4281 17.0689 31.072 17.5391 31.6507 17.9486C31.827 18.0733 31.995 18.1909 32.1543 18.3023L32.1543 18.3023C32.5284 18.5641 32.8542 18.7921 33.1259 18.9998C33.7948 19.5113 34.0603 20.0843 34.0894 20.5934C34.119 21.1107 33.9097 21.6507 33.4614 22.0989L33.4484 22.1123C32.7635 22.8363 31.8148 22.878 31.1705 22.8145L23.0161 14.6601C22.8923 14.1219 22.8834 13.6876 22.9773 13.3028C23.0799 12.8821 23.3214 12.4547 23.7974 11.9787Z" fill="#F8F9FA"/>
<path d="M12.2417 22.7665L11.1811 23.8272L12.2417 22.7665ZM15.2936 18.7658L14.5502 20.0686C15.2171 20.4492 16.0638 20.2646 16.5118 19.641L15.2936 18.7658ZM21.568 13.8854L21.0474 15.2922C21.5099 15.4633 22.0269 15.3963 22.4304 15.1127C22.8339 14.8292 23.0723 14.3655 23.068 13.8724L21.568 13.8854ZM21.6695 12.9838L20.2122 12.6283L20.2122 12.6283L21.6695 12.9838ZM22.8455 11.0268L23.9061 12.0875L23.9061 12.0875L22.8455 11.0268ZM23.9874 9.43653L25.3288 10.1079L25.3288 10.1079L23.9874 9.43653ZM24.2637 8.7498L25.7073 9.15714L25.7073 9.15713L24.2637 8.7498ZM24.3129 8.5204L25.8015 8.70519L25.8015 8.70517L24.3129 8.5204ZM24.3176 8.43882L25.8144 8.34222L25.8143 8.34028L24.3176 8.43882ZM24.3176 8.43871L22.8327 8.65084C22.9497 9.47038 23.7086 10.0401 24.5283 9.92384C25.348 9.80755 25.9184 9.0492 25.8029 8.22943L24.3176 8.43871ZM24.6829 7.7415L24.0121 6.39986L24.0121 6.39986L24.6829 7.7415ZM27.9415 12.0099L29.3519 11.4991L29.3519 11.4991L27.9415 12.0099ZM30.6635 15.5074L29.6975 16.655L29.6975 16.655L30.6635 15.5074ZM32.4282 16.8496L33.2945 15.6251L33.2945 15.6251L32.4282 16.8496ZM32.8992 17.1804L32.0392 18.4094L32.0392 18.4094L32.8992 17.1804ZM33.9436 17.9305L33.0325 19.1221L33.0325 19.1221L33.9436 17.9305ZM35.4334 20.5165L36.931 20.4309L36.931 20.4309L35.4334 20.5165ZM34.4199 23.0442L33.3567 21.9861C33.3486 21.9942 33.3407 22.0024 33.3328 22.0107L34.4199 23.0442ZM31.8991 24.171L31.802 22.6742C31.3168 22.7057 30.877 22.9703 30.622 23.3842C30.367 23.7981 30.3284 24.3099 30.5185 24.7574L31.8991 24.171ZM27.1208 30.4662L26.1831 29.2954C25.8502 29.562 25.6465 29.9578 25.623 30.3836C25.5996 30.8095 25.7585 31.2252 26.0601 31.5268L27.1208 30.4662ZM43.5058 54.0306L44.5664 52.9699L43.5058 54.0306ZM46.0076 51.5287L44.9469 52.5894L46.0076 51.5287ZM14.7436 20.2647L15.8042 19.204L14.7436 20.2647ZM16.5647 19.9101L15.504 20.9708L16.5647 19.9101ZM25.9044 29.2498L26.9651 28.1891L25.9044 29.2498ZM30.4418 24.7123L29.3812 25.773L30.4418 24.7123ZM21.1021 15.3727L22.1628 14.312L21.1021 15.3727ZM25.1912 10.039L26.5326 10.7104L26.5326 10.7104L25.1912 10.039ZM23.7974 11.9787L22.7367 10.918L22.7367 10.918L23.7974 11.9787ZM25.309 9.7911L26.538 8.93118C26.2286 8.48886 25.7053 8.24695 25.1678 8.29776C24.6304 8.34856 24.1617 8.68425 23.9406 9.17673L25.309 9.7911ZM26.6758 12.4683L28.0862 11.9575L28.0862 11.9575L26.6758 12.4683ZM29.7966 16.5373L28.8306 17.6849L28.8306 17.6849L29.7966 16.5373ZM31.6507 17.9486L32.517 16.724L32.517 16.724L31.6507 17.9486ZM32.1543 18.3023L31.2943 19.5313L31.3004 19.5356L32.1543 18.3023ZM32.1543 18.3023L33.0143 17.0733L33.0081 17.069L32.1543 18.3023ZM33.1259 18.9998L32.2147 20.1914L32.2147 20.1914L33.1259 18.9998ZM34.0894 20.5934L35.587 20.5078L35.587 20.5078L34.0894 20.5934ZM33.4614 22.0989L32.4008 21.0382C32.3958 21.0432 32.3909 21.0482 32.3861 21.0532L33.4614 22.0989ZM33.4484 22.1123L32.373 21.0666C32.3682 21.0715 32.3634 21.0765 32.3587 21.0815L33.4484 22.1123ZM31.1705 22.8145L30.1098 23.8751C30.3551 24.1204 30.6779 24.2731 31.0231 24.3072L31.1705 22.8145ZM23.0161 14.6601L21.5543 14.9964C21.6174 15.2707 21.7564 15.5217 21.9554 15.7207L23.0161 14.6601ZM22.9773 13.3028L21.52 12.9473L21.52 12.9473L22.9773 13.3028ZM11.1811 18.1162C9.60403 19.6932 9.60403 22.2501 11.1811 23.8272L13.3024 21.7059C12.8969 21.3004 12.8969 20.643 13.3024 20.2375L11.1811 18.1162ZM16.0371 17.463C14.4959 16.5835 12.4984 16.7989 11.1811 18.1162L13.3024 20.2375C13.6392 19.9007 14.1532 19.8421 14.5502 20.0686L16.0371 17.463ZM14.4162 17.4896C14.2906 17.6152 14.1769 17.7493 14.0755 17.8906L16.5118 19.641C16.5189 19.6312 16.5273 19.6211 16.5375 19.6109L14.4162 17.4896ZM18.6817 13.2241L14.4162 17.4896L16.5375 19.6109L20.803 15.3455L18.6817 13.2241ZM22.0887 12.4787C20.9452 12.0555 19.6047 12.3011 18.6817 13.2241L20.803 15.3455C20.8672 15.2813 20.962 15.2606 21.0474 15.2922L22.0887 12.4787ZM23.068 13.8724C23.0663 13.6822 23.0859 13.5065 23.1267 13.3392L20.2122 12.6283C20.1077 13.0567 20.0645 13.4813 20.0681 13.8984L23.068 13.8724ZM23.1267 13.3392C23.2211 12.9525 23.4447 12.5489 23.9061 12.0875L21.7848 9.96617C21.0369 10.7141 20.4672 11.5829 20.2122 12.6283L23.1267 13.3392ZM23.9061 12.0875C24.516 11.4776 25.0026 10.7597 25.3288 10.1079L22.6461 8.76516C22.4476 9.16167 22.1425 9.6085 21.7848 9.96617L23.9061 12.0875ZM25.3288 10.1079C25.4923 9.78122 25.6227 9.45687 25.7073 9.15714L22.82 8.34247C22.7974 8.42274 22.7443 8.56899 22.6461 8.76516L25.3288 10.1079ZM25.7073 9.15713C25.7497 9.00692 25.7829 8.85454 25.8015 8.70519L22.8243 8.33562C22.8255 8.32598 22.8266 8.31927 22.8272 8.31568C22.8278 8.31203 22.8281 8.31074 22.8279 8.31191C22.8273 8.31445 22.8251 8.32456 22.82 8.34248L25.7073 9.15713ZM25.8015 8.70517C25.8199 8.55674 25.8206 8.43715 25.8144 8.34222L22.8207 8.53543C22.8207 8.53561 22.8206 8.53443 22.8205 8.53299C22.8204 8.53144 22.8203 8.52952 22.8202 8.52732C22.8199 8.52284 22.8196 8.51787 22.8194 8.51249C22.8189 8.50169 22.8185 8.49075 22.8182 8.47971C22.8177 8.45767 22.8178 8.43731 22.8184 8.41876C22.8194 8.38178 22.8221 8.35373 22.8243 8.33564L25.8015 8.70517ZM25.8143 8.34028C25.8143 8.34029 25.8143 8.34034 25.8143 8.34042C25.8143 8.34049 25.8143 8.34062 25.8144 8.34078C25.8144 8.34108 25.8144 8.34168 25.8145 8.34243C25.8145 8.34345 25.8148 8.34726 25.8151 8.35217C25.8152 8.35479 25.816 8.36905 25.8167 8.38724C25.8169 8.39533 25.8176 8.41701 25.8175 8.44475C25.8175 8.45845 25.8172 8.48409 25.8155 8.51624C25.8145 8.53616 25.8105 8.61453 25.7922 8.71301C25.7842 8.75591 25.7612 8.87298 25.703 9.01324C25.6847 9.05728 25.4883 9.57878 24.8881 9.82563C24.0383 10.1751 23.4065 9.65226 23.2448 9.48684C23.0695 9.30744 22.9844 9.12773 22.9635 9.08379C22.9052 8.96147 22.8773 8.85809 22.8726 8.84094C22.8623 8.80397 22.8556 8.77434 22.8523 8.75959C22.8457 8.72913 22.8414 8.70514 22.84 8.69687C22.838 8.68576 22.8366 8.67688 22.8359 8.67206C22.8344 8.66256 22.8333 8.65514 22.833 8.65321C22.8326 8.65046 22.8323 8.6483 22.8323 8.64799L25.8029 8.22943C25.8029 8.229 25.8025 8.22675 25.8021 8.2239C25.8018 8.22189 25.8008 8.2144 25.7992 8.20485C25.7985 8.2 25.7971 8.1911 25.7951 8.17997C25.7937 8.17167 25.7894 8.14767 25.7827 8.1172C25.7795 8.10244 25.7728 8.07281 25.7625 8.03584C25.7577 8.01868 25.7299 7.9153 25.6716 7.79298C25.6506 7.74904 25.5656 7.56933 25.3903 7.38992C25.2286 7.2245 24.5968 6.70162 23.747 7.05114C23.1468 7.29799 22.9503 7.81949 22.9321 7.86352C22.8739 8.00379 22.8509 8.12086 22.8429 8.16376C22.8245 8.26224 22.8206 8.34062 22.8196 8.36053C22.8179 8.39269 22.8176 8.41834 22.8175 8.43205C22.8174 8.4598 22.8181 8.4815 22.8184 8.48961C22.819 8.50784 22.8199 8.52216 22.82 8.52485C22.8203 8.52983 22.8206 8.53373 22.8206 8.53485C22.8207 8.53566 22.8207 8.53631 22.8208 8.53667C22.8208 8.53702 22.8208 8.53731 22.8208 8.53736L25.8143 8.34028ZM25.8025 8.22658C25.8528 8.57893 25.6721 8.92396 25.3537 9.08314L24.0121 6.39986C23.1755 6.81817 22.7004 7.72488 22.8327 8.65084L25.8025 8.22658ZM25.3537 9.08314C25.0354 9.24232 24.6509 9.17992 24.3992 8.92824L26.5205 6.80692C25.8591 6.14552 24.8487 5.98155 24.0121 6.39986L25.3537 9.08314ZM24.3992 8.92824C25.0681 9.59712 25.918 10.8276 26.5312 12.5206L29.3519 11.4991C28.6072 9.44301 27.5361 7.82249 26.5205 6.80692L24.3992 8.92824ZM26.5312 12.5206C27.1502 14.23 28.4375 15.5944 29.6975 16.655L31.6294 14.3599C30.5154 13.4221 29.7042 12.4719 29.3519 11.4991L26.5312 12.5206ZM29.6975 16.655C30.334 17.1907 30.982 17.6639 31.5619 18.0742L33.2945 15.6251C32.7376 15.2311 32.1698 14.8147 31.6294 14.3599L29.6975 16.655ZM31.5619 18.0742C31.7244 18.1892 31.8855 18.3019 32.0392 18.4094L33.7592 15.9515C33.6045 15.8432 33.4497 15.7349 33.2945 15.6251L31.5619 18.0742ZM32.0392 18.4094C32.4333 18.6852 32.7673 18.9193 33.0325 19.1221L34.8548 16.739C34.5287 16.4896 34.1372 16.216 33.7592 15.9515L32.0392 18.4094ZM33.0325 19.1221C33.6719 19.611 33.9097 20.145 33.9359 20.6021L36.931 20.4309C36.8478 18.9751 36.0821 17.6775 34.8548 16.739L33.0325 19.1221ZM33.9359 20.6021C33.9625 21.0681 33.7757 21.565 33.3567 21.9861L35.4831 24.1023C36.4236 23.1573 37.0124 21.8552 36.931 20.4309L33.9359 20.6021ZM33.3328 22.0107C32.8927 22.4735 32.343 22.6391 31.802 22.6742L31.9963 25.6679C33.0128 25.6019 34.3827 25.2602 35.507 24.0778L33.3328 22.0107ZM32.5904 27.1328C33.5515 26.1717 33.7783 24.7586 33.2798 23.5847L30.5185 24.7574C30.5553 24.8442 30.5359 24.9446 30.469 25.0115L32.5904 27.1328ZM28.3249 31.3983L32.5904 27.1328L30.469 25.0115L26.2036 29.277L28.3249 31.3983ZM28.0584 31.637C28.1509 31.5629 28.2399 31.4833 28.3249 31.3983L26.2036 29.277C26.1966 29.2839 26.1898 29.29 26.1831 29.2954L28.0584 31.637ZM48.1561 49.3802L28.1814 29.4055L26.0601 31.5268L46.0348 51.5015L48.1561 49.3802ZM48.1561 55.0912C49.7332 53.5142 49.7332 50.9573 48.1561 49.3802L46.0348 51.5015C46.4403 51.907 46.4403 52.5644 46.0348 52.9699L48.1561 55.0912ZM42.4451 55.0912C44.0222 56.6683 46.5791 56.6683 48.1561 55.0912L46.0348 52.9699C45.6293 53.3754 44.9719 53.3754 44.5664 52.9699L42.4451 55.0912ZM11.1811 23.8272L42.4451 55.0912L44.5664 52.9699L13.3024 21.7059L11.1811 23.8272ZM14.3903 20.618C14.5856 20.8133 14.5856 21.13 14.3903 21.3254L12.2689 19.204C11.2927 20.1803 11.2927 21.7631 12.2689 22.7393L14.3903 20.618ZM45.6543 51.882L14.3903 20.618L12.2689 22.7393L43.533 54.0034L45.6543 51.882ZM44.9469 51.882C45.1423 51.6867 45.459 51.6867 45.6543 51.882L43.533 54.0034C44.5092 54.9796 46.092 54.9796 47.0683 54.0034L44.9469 51.882ZM44.9469 52.5894C44.7516 52.3941 44.7516 52.0774 44.9469 51.882L47.0683 54.0034C48.0445 53.0271 48.0445 51.4443 47.0683 50.4681L44.9469 52.5894ZM13.6829 21.3254L44.9469 52.5894L47.0683 50.4681L15.8042 19.204L13.6829 21.3254ZM14.3903 21.3254C14.1949 21.5207 13.8782 21.5207 13.6829 21.3254L15.8042 19.204C14.828 18.2278 13.2452 18.2278 12.2689 19.204L14.3903 21.3254ZM17.6254 18.8494C18.136 19.3601 18.1361 20.1881 17.6254 20.6988L15.504 18.5775C14.8432 19.2384 14.8432 20.3099 15.504 20.9708L17.6254 18.8494ZM26.9651 28.1891L17.6254 18.8494L15.504 20.9708L24.8437 30.3104L26.9651 28.1891ZM25.1157 28.1891C25.6264 27.6784 26.4544 27.6784 26.9651 28.1891L24.8437 30.3104C25.5046 30.9713 26.5761 30.9713 27.237 30.3104L25.1157 28.1891ZM29.3812 23.9236L25.1157 28.1891L27.237 30.3104L31.5025 26.045L29.3812 23.9236ZM29.3812 25.773C28.8705 25.2623 28.8705 24.4343 29.3812 23.9236L31.5025 26.045C32.1634 25.3841 32.1634 24.3126 31.5025 23.6517L29.3812 25.773ZM20.0415 16.4333L29.3812 25.773L31.5025 23.6517L22.1628 14.312L20.0415 16.4333ZM21.8908 16.4333C21.3802 16.944 20.5522 16.944 20.0415 16.4333L22.1628 14.312C21.5019 13.6511 20.4304 13.6511 19.7695 14.312L21.8908 16.4333ZM17.6254 20.6988L21.8908 16.4333L19.7695 14.312L15.504 18.5775L17.6254 20.6988ZM23.8499 9.36767C23.5941 9.87875 23.2075 10.4472 22.7367 10.918L24.858 13.0393C25.5811 12.3163 26.1491 11.4767 26.5326 10.7104L23.8499 9.36767ZM23.9406 9.17673C23.9127 9.23892 23.8824 9.3027 23.8499 9.36768L26.5326 10.7104C26.5833 10.6092 26.6316 10.5074 26.6774 10.4055L23.9406 9.17673ZM28.0862 11.9575C27.6476 10.7466 27.0955 9.72801 26.538 8.93118L24.08 10.651C24.4863 11.2318 24.9165 12.0155 25.2655 12.979L28.0862 11.9575ZM30.7625 15.3898C29.5831 14.397 28.5582 13.2609 28.0862 11.9575L25.2655 12.979C26.0041 15.0186 27.5047 16.5688 28.8306 17.6849L30.7625 15.3898ZM32.517 16.724C31.9499 16.3228 31.346 15.8809 30.7625 15.3898L28.8306 17.6849C29.5102 18.2569 30.1941 18.7555 30.7844 19.1731L32.517 16.724ZM33.0142 17.0733C32.8546 16.9616 32.6897 16.8462 32.517 16.724L30.7844 19.1731C30.9643 19.3004 31.1354 19.4201 31.2943 19.5313L33.0142 17.0733ZM33.0081 17.069L33.0081 17.069L31.3004 19.5356L31.3005 19.5356L33.0081 17.069ZM34.0371 17.8083C33.7349 17.5772 33.3803 17.3294 33.0143 17.0733L31.2943 19.5313C31.6765 19.7988 31.9735 20.0069 32.2147 20.1914L34.0371 17.8083ZM35.587 20.5078C35.5295 19.5015 35.0018 18.5461 34.0371 17.8083L32.2147 20.1914C32.4097 20.3405 32.5009 20.4636 32.5429 20.5377C32.584 20.61 32.5906 20.6568 32.5919 20.679L35.587 20.5078ZM34.5221 23.1596C35.2338 22.4478 35.6439 21.5039 35.587 20.5078L32.5919 20.679C32.5941 20.7175 32.5855 20.8535 32.4008 21.0382L34.5221 23.1596ZM34.5238 23.158L34.5368 23.1446L32.3861 21.0532L32.373 21.0666L34.5238 23.158ZM31.0231 24.3072C31.8013 24.384 33.3615 24.3869 34.5381 23.1431L32.3587 21.0815C32.1656 21.2857 31.8283 21.3721 31.3178 21.3217L31.0231 24.3072ZM21.9554 15.7207L30.1098 23.8751L32.2311 21.7538L24.0767 13.5994L21.9554 15.7207ZM21.52 12.9473C21.3557 13.6208 21.3944 14.3014 21.5543 14.9964L24.4779 14.3238C24.3901 13.9423 24.4111 13.7544 24.4346 13.6582L21.52 12.9473ZM22.7367 10.918C22.117 11.5377 21.7028 12.1978 21.52 12.9473L24.4346 13.6582C24.457 13.5664 24.5257 13.3716 24.858 13.0393L22.7367 10.918Z" fill="#F8F9FA" mask="url(#path-1-outside-1_50_5001)"/>
<rect x="11.5045" y="21.0059" width="3.53811" height="47.7521" rx="1.76906" transform="rotate(-45 11.5045 21.0059)" fill="#FF6B6B" stroke="#212529" stroke-width="1.6" stroke-linejoin="round"/>
<rect x="15.3107" y="19.8086" width="7.95539" height="15.1314" rx="1" transform="rotate(-45 15.3107 19.8086)" fill="#F1F3F5" stroke="#212529" stroke-width="1.6" stroke-linejoin="round"/>
<path d="M21.0404 19.5806L23.1765 17.4445" stroke="#212529" stroke-linecap="round" stroke-linejoin="round"/>
<path d="M22.7728 21.313L24.9089 19.1769" stroke="#212529" stroke-linecap="round" stroke-linejoin="round"/>
<path d="M24.5054 23.0454L26.6415 20.9093" stroke="#212529" stroke-linecap="round" stroke-linejoin="round"/>
<path d="M26.2379 24.7783L28.374 22.6422" stroke="#212529" stroke-linecap="round" stroke-linejoin="round"/>
<path d="M23.2911 11.5372C22.2104 12.6179 22.0149 13.6642 22.3775 15.0381L30.8283 23.4889C31.488 23.5832 32.8957 23.6785 33.9071 22.6093C35.0391 21.4772 35.1067 19.7248 33.5044 18.4996C31.9022 17.2744 28.3694 15.2861 27.2783 12.2735C26.6289 10.4804 25.718 9.14242 24.9536 8.37797C25.0374 8.9644 24.3718 10.4565 23.2911 11.5372Z" fill="#A5D8FF" stroke="#212529" stroke-width="1.4" stroke-linejoin="round"/>
</svg>
