<svg width="60" height="61" viewBox="0 0 60 61" fill="none" xmlns="http://www.w3.org/2000/svg">
<mask id="path-1-outside-1_50_2542" maskUnits="userSpaceOnUse" x="5.06799" y="17.385" width="50" height="27" fill="black">
<rect fill="white" x="5.06799" y="17.385" width="50" height="27"/>
<path fill-rule="evenodd" clip-rule="evenodd" d="M25.5616 21.9985C25.5616 20.5551 26.7317 19.385 28.1751 19.385H31.5463C32.9897 19.385 34.1598 20.5551 34.1598 21.9985V22.544H40.8874C44.2177 22.544 47.0902 24.5037 48.4148 27.3328H50.04C51.4834 27.3328 52.6535 28.5029 52.6535 29.9463V34.5433C52.6535 35.9867 51.4834 37.1568 50.04 37.1568H48.4148C47.0902 39.9859 44.2177 41.9456 40.8874 41.9456H34.2023C33.0493 41.9456 31.9759 41.3578 31.355 40.3863C31.0428 39.8978 30.5031 39.6023 29.9234 39.6023H29.6863C29.1262 39.6023 28.6065 39.8938 28.3146 40.3718C27.7176 41.3493 26.6547 41.9456 25.5092 41.9456H18.8341C15.5038 41.9456 12.6312 39.9859 11.3066 37.1568H9.68146C8.23808 37.1568 7.068 35.9867 7.068 34.5433V29.9463C7.068 28.5029 8.23809 27.3328 9.68146 27.3328H11.3066C12.6312 24.5037 15.5038 22.544 18.8341 22.544H25.5616V21.9985ZM25.5616 24.2241H18.8341C16.4646 24.2241 14.3855 25.4676 13.214 27.3377C14.5822 27.4211 15.6661 28.5571 15.6661 29.9463V34.5433C15.6661 35.9325 14.5822 37.0686 13.214 37.1519C14.3855 39.022 16.4646 40.2656 18.8341 40.2656H25.5092C26.0692 40.2656 26.5889 39.974 26.8808 39.4961C27.4779 38.5185 28.5408 37.9222 29.6863 37.9222H29.9234C31.0764 37.9222 32.1498 38.51 32.7707 39.4815C33.0829 39.97 33.6226 40.2656 34.2023 40.2656H40.8874C43.2569 40.2656 45.3359 39.022 46.5075 37.1519C45.1392 37.0686 44.0553 35.9325 44.0553 34.5433V29.9463C44.0553 28.5571 45.1392 27.4211 46.5075 27.3377C45.3359 25.4676 43.2569 24.2241 40.8874 24.2241H34.1598V26.5955C34.1598 28.0389 32.9897 29.209 31.5463 29.209H28.1751C26.7317 29.209 25.5616 28.0389 25.5616 26.5955V24.2241ZM32.6663 24.2241V26.5955C32.6663 27.2141 32.1649 27.7155 31.5463 27.7155H28.1751C27.5565 27.7155 27.055 27.2141 27.055 26.5955V24.2241H32.6663ZM32.6663 22.544H27.055V21.9985C27.055 21.3799 27.5565 20.8784 28.1751 20.8784H31.5463C32.1649 20.8784 32.6663 21.3799 32.6663 21.9985V22.544ZM47.1993 28.8263H46.6688C46.0502 28.8263 45.5487 29.3277 45.5487 29.9463V34.5433C45.5487 35.1619 46.0502 35.6634 46.6688 35.6634H47.1993C47.4039 35.0251 47.5144 34.3447 47.5144 33.6386V30.8511C47.5144 30.1449 47.4039 29.4645 47.1993 28.8263ZM48.9459 35.6634H50.04C50.6586 35.6634 51.16 35.1619 51.16 34.5433V29.9463C51.16 29.3277 50.6586 28.8263 50.04 28.8263H48.9459C49.1083 29.4743 49.1945 30.1526 49.1945 30.8511V33.6386C49.1945 34.337 49.1083 35.0153 48.9459 35.6634ZM12.5221 35.6634H13.0527C13.6712 35.6634 14.1727 35.1619 14.1727 34.5433V29.9463C14.1727 29.3277 13.6712 28.8262 13.0527 28.8262H12.5221C12.3175 29.4645 12.2071 30.1449 12.2071 30.8511V33.6386C12.2071 34.3447 12.3175 35.0251 12.5221 35.6634ZM10.7755 28.8262H9.68146C9.06287 28.8262 8.56141 29.3277 8.56141 29.9463V34.5433C8.56141 35.1619 9.06287 35.6634 9.68146 35.6634H10.7755C10.6132 35.0153 10.527 34.337 10.527 33.6386V30.8511C10.527 30.1526 10.6132 29.4743 10.7755 28.8262Z"/>
</mask>
<path fill-rule="evenodd" clip-rule="evenodd" d="M25.5616 21.9985C25.5616 20.5551 26.7317 19.385 28.1751 19.385H31.5463C32.9897 19.385 34.1598 20.5551 34.1598 21.9985V22.544H40.8874C44.2177 22.544 47.0902 24.5037 48.4148 27.3328H50.04C51.4834 27.3328 52.6535 28.5029 52.6535 29.9463V34.5433C52.6535 35.9867 51.4834 37.1568 50.04 37.1568H48.4148C47.0902 39.9859 44.2177 41.9456 40.8874 41.9456H34.2023C33.0493 41.9456 31.9759 41.3578 31.355 40.3863C31.0428 39.8978 30.5031 39.6023 29.9234 39.6023H29.6863C29.1262 39.6023 28.6065 39.8938 28.3146 40.3718C27.7176 41.3493 26.6547 41.9456 25.5092 41.9456H18.8341C15.5038 41.9456 12.6312 39.9859 11.3066 37.1568H9.68146C8.23808 37.1568 7.068 35.9867 7.068 34.5433V29.9463C7.068 28.5029 8.23809 27.3328 9.68146 27.3328H11.3066C12.6312 24.5037 15.5038 22.544 18.8341 22.544H25.5616V21.9985ZM25.5616 24.2241H18.8341C16.4646 24.2241 14.3855 25.4676 13.214 27.3377C14.5822 27.4211 15.6661 28.5571 15.6661 29.9463V34.5433C15.6661 35.9325 14.5822 37.0686 13.214 37.1519C14.3855 39.022 16.4646 40.2656 18.8341 40.2656H25.5092C26.0692 40.2656 26.5889 39.974 26.8808 39.4961C27.4779 38.5185 28.5408 37.9222 29.6863 37.9222H29.9234C31.0764 37.9222 32.1498 38.51 32.7707 39.4815C33.0829 39.97 33.6226 40.2656 34.2023 40.2656H40.8874C43.2569 40.2656 45.3359 39.022 46.5075 37.1519C45.1392 37.0686 44.0553 35.9325 44.0553 34.5433V29.9463C44.0553 28.5571 45.1392 27.4211 46.5075 27.3377C45.3359 25.4676 43.2569 24.2241 40.8874 24.2241H34.1598V26.5955C34.1598 28.0389 32.9897 29.209 31.5463 29.209H28.1751C26.7317 29.209 25.5616 28.0389 25.5616 26.5955V24.2241ZM32.6663 24.2241V26.5955C32.6663 27.2141 32.1649 27.7155 31.5463 27.7155H28.1751C27.5565 27.7155 27.055 27.2141 27.055 26.5955V24.2241H32.6663ZM32.6663 22.544H27.055V21.9985C27.055 21.3799 27.5565 20.8784 28.1751 20.8784H31.5463C32.1649 20.8784 32.6663 21.3799 32.6663 21.9985V22.544ZM47.1993 28.8263H46.6688C46.0502 28.8263 45.5487 29.3277 45.5487 29.9463V34.5433C45.5487 35.1619 46.0502 35.6634 46.6688 35.6634H47.1993C47.4039 35.0251 47.5144 34.3447 47.5144 33.6386V30.8511C47.5144 30.1449 47.4039 29.4645 47.1993 28.8263ZM48.9459 35.6634H50.04C50.6586 35.6634 51.16 35.1619 51.16 34.5433V29.9463C51.16 29.3277 50.6586 28.8263 50.04 28.8263H48.9459C49.1083 29.4743 49.1945 30.1526 49.1945 30.8511V33.6386C49.1945 34.337 49.1083 35.0153 48.9459 35.6634ZM12.5221 35.6634H13.0527C13.6712 35.6634 14.1727 35.1619 14.1727 34.5433V29.9463C14.1727 29.3277 13.6712 28.8262 13.0527 28.8262H12.5221C12.3175 29.4645 12.2071 30.1449 12.2071 30.8511V33.6386C12.2071 34.3447 12.3175 35.0251 12.5221 35.6634ZM10.7755 28.8262H9.68146C9.06287 28.8262 8.56141 29.3277 8.56141 29.9463V34.5433C8.56141 35.1619 9.06287 35.6634 9.68146 35.6634H10.7755C10.6132 35.0153 10.527 34.337 10.527 33.6386V30.8511C10.527 30.1526 10.6132 29.4743 10.7755 28.8262Z" fill="#F8F9FA"/>
<path d="M34.1597 22.544H32.6597C32.6597 23.3724 33.3313 24.044 34.1597 24.044V22.544ZM48.4148 27.3328L47.0563 27.9689C47.3032 28.4961 47.8327 28.8328 48.4148 28.8328V27.3328ZM48.4148 37.1568V35.6568C47.8327 35.6568 47.3032 35.9936 47.0563 36.5208L48.4148 37.1568ZM31.355 40.3863L30.0911 41.1941L30.0911 41.1941L31.355 40.3863ZM28.3146 40.3718L29.5948 41.1536L29.5948 41.1536L28.3146 40.3718ZM11.3066 37.1568L12.6651 36.5208C12.4183 35.9936 11.8887 35.6568 11.3066 35.6568V37.1568ZM11.3066 27.3328V28.8328C11.8887 28.8328 12.4183 28.496 12.6651 27.9689L11.3066 27.3328ZM25.5616 22.544V24.044C26.3901 24.044 27.0616 23.3724 27.0616 22.544H25.5616ZM25.5616 24.2241H27.0616C27.0616 23.3956 26.3901 22.7241 25.5616 22.7241V24.2241ZM13.214 27.3377L11.9428 26.5414C11.6618 26.9899 11.638 27.5533 11.8801 28.024C12.1223 28.4946 12.5945 28.8028 13.1228 28.835L13.214 27.3377ZM13.214 37.1519L13.1228 35.6547C12.5945 35.6868 12.1223 35.995 11.8801 36.4657C11.638 36.9363 11.6618 37.4997 11.9428 37.9482L13.214 37.1519ZM26.8808 39.4961L25.6007 38.7142L25.6007 38.7142L26.8808 39.4961ZM32.7707 39.4815L34.0346 38.6737L34.0346 38.6737L32.7707 39.4815ZM46.5074 37.1519L47.7786 37.9482C48.0596 37.4997 48.0834 36.9363 47.8413 36.4657C47.5991 35.995 47.1269 35.6868 46.5986 35.6547L46.5074 37.1519ZM46.5075 27.3377L46.5986 28.835C47.1269 28.8028 47.5992 28.4946 47.8413 28.024C48.0834 27.5533 48.0596 26.9899 47.7786 26.5414L46.5075 27.3377ZM34.1597 24.2241V22.7241C33.3313 22.7241 32.6597 23.3956 32.6597 24.2241H34.1597ZM32.6663 24.2241H34.1663C34.1663 23.3956 33.4948 22.7241 32.6663 22.7241V24.2241ZM27.055 24.2241V22.7241C26.2266 22.7241 25.555 23.3956 25.555 24.2241H27.055ZM27.055 22.544H25.555C25.555 23.3724 26.2266 24.044 27.055 24.044V22.544ZM32.6663 22.544V24.044C33.4948 24.044 34.1663 23.3724 34.1663 22.544H32.6663ZM47.1993 28.8263L48.6277 28.3684C48.4287 27.7475 47.8514 27.3263 47.1993 27.3263V28.8263ZM47.1993 35.6634V37.1634C47.8514 37.1634 48.4287 36.7422 48.6277 36.1212L47.1993 35.6634ZM48.9459 35.6634L47.4909 35.2989C47.3786 35.7471 47.4792 36.222 47.7634 36.5862C48.0477 36.9505 48.4839 37.1634 48.9459 37.1634V35.6634ZM48.9459 28.8263V27.3263C48.4839 27.3263 48.0477 27.5392 47.7634 27.9034C47.4792 28.2676 47.3786 28.7425 47.4909 29.1907L48.9459 28.8263ZM12.5221 35.6634L11.0937 36.1212C11.2927 36.7421 11.8701 37.1634 12.5221 37.1634V35.6634ZM12.5221 28.8262V27.3262C11.8701 27.3262 11.2927 27.7475 11.0937 28.3684L12.5221 28.8262ZM10.7755 28.8262L12.2306 29.1907C12.3428 28.7425 12.2423 28.2676 11.958 27.9034C11.6738 27.5392 11.2375 27.3262 10.7755 27.3262V28.8262ZM10.7755 35.6634V37.1634C11.2375 37.1634 11.6737 36.9505 11.958 36.5862C12.2423 36.222 12.3428 35.7471 12.2305 35.2989L10.7755 35.6634ZM28.1751 17.885C25.9033 17.885 24.0616 19.7267 24.0616 21.9985H27.0616C27.0616 21.3835 27.5601 20.885 28.1751 20.885V17.885ZM31.5463 17.885H28.1751V20.885H31.5463V17.885ZM35.6597 21.9985C35.6597 19.7267 33.8181 17.885 31.5463 17.885V20.885C32.1612 20.885 32.6597 21.3835 32.6597 21.9985H35.6597ZM35.6597 22.544V21.9985H32.6597V22.544H35.6597ZM34.1597 24.044H40.8874V21.044H34.1597V24.044ZM40.8874 24.044C43.614 24.044 45.9693 25.6471 47.0563 27.9689L49.7733 26.6968C48.2112 23.3602 44.8213 21.044 40.8874 21.044V24.044ZM48.4148 28.8328H50.04V25.8328H48.4148V28.8328ZM50.04 28.8328C50.6549 28.8328 51.1534 29.3314 51.1534 29.9463H54.1534C54.1534 27.6745 52.3118 25.8328 50.04 25.8328V28.8328ZM51.1534 29.9463V34.5433H54.1534V29.9463H51.1534ZM51.1534 34.5433C51.1534 35.1583 50.6549 35.6568 50.04 35.6568V38.6568C52.3118 38.6568 54.1534 36.8151 54.1534 34.5433H51.1534ZM50.04 35.6568H48.4148V38.6568H50.04V35.6568ZM47.0563 36.5208C45.9693 38.8425 43.614 40.4456 40.8874 40.4456V43.4456C44.8213 43.4456 48.2111 41.1294 49.7733 37.7928L47.0563 36.5208ZM40.8874 40.4456H34.2023V43.4456H40.8874V40.4456ZM34.2023 40.4456C33.5611 40.4456 32.9642 40.1187 32.6189 39.5785L30.0911 41.1941C30.9877 42.5968 32.5375 43.4456 34.2023 43.4456V40.4456ZM32.6189 39.5785C32.0311 38.6588 31.0149 38.1023 29.9234 38.1023V41.1023C29.9913 41.1023 30.0546 41.1369 30.0911 41.1941L32.6189 39.5785ZM29.9234 38.1023H29.6863V41.1023H29.9234V38.1023ZM29.6863 38.1023C28.6035 38.1023 27.5988 38.6659 27.0345 39.5899L29.5948 41.1536C29.6142 41.1217 29.6489 41.1023 29.6863 41.1023V38.1023ZM27.0345 39.5899C26.7099 40.1214 26.132 40.4456 25.5092 40.4456V43.4456C27.1774 43.4456 28.7253 42.5773 29.5948 41.1536L27.0345 39.5899ZM25.5092 40.4456H18.8341V43.4456H25.5092V40.4456ZM18.8341 40.4456C16.1074 40.4456 13.7521 38.8425 12.6651 36.5208L9.94812 37.7928C11.5103 41.1294 14.9001 43.4456 18.8341 43.4456V40.4456ZM11.3066 35.6568H9.68145V38.6568H11.3066V35.6568ZM9.68145 35.6568C9.06651 35.6568 8.56799 35.1583 8.56799 34.5433H5.56799C5.56799 36.8151 7.40965 38.6568 9.68145 38.6568V35.6568ZM8.56799 34.5433V29.9463H5.56799V34.5433H8.56799ZM8.56799 29.9463C8.56799 29.3313 9.06651 28.8328 9.68146 28.8328V25.8328C7.40966 25.8328 5.56799 27.6745 5.56799 29.9463H8.56799ZM9.68146 28.8328H11.3066V25.8328H9.68146V28.8328ZM12.6651 27.9689C13.7521 25.6471 16.1074 24.044 18.8341 24.044V21.044C14.9001 21.044 11.5103 23.3602 9.94813 26.6968L12.6651 27.9689ZM18.8341 24.044H25.5616V21.044H18.8341V24.044ZM24.0616 21.9985V22.544H27.0616V21.9985H24.0616ZM25.5616 22.7241H18.8341V25.7241H25.5616V22.7241ZM18.8341 22.7241C15.9266 22.7241 13.3771 24.2519 11.9428 26.5414L14.4851 28.1341C15.3939 26.6834 17.0025 25.7241 18.8341 25.7241V22.7241ZM13.1228 28.835C13.7043 28.8704 14.1661 29.355 14.1661 29.9463H17.1661C17.1661 27.7592 15.4601 25.9717 13.3052 25.8405L13.1228 28.835ZM14.1661 29.9463V34.5433H17.1661V29.9463H14.1661ZM14.1661 34.5433C14.1661 35.1346 13.7043 35.6192 13.1228 35.6547L13.3051 38.6491C15.4601 38.5179 17.1661 36.7304 17.1661 34.5433H14.1661ZM11.9428 37.9482C13.3771 40.2377 15.9266 41.7656 18.8341 41.7656V38.7656C17.0025 38.7656 15.3939 37.8063 14.4851 36.3556L11.9428 37.9482ZM18.8341 41.7656H25.5092V38.7656H18.8341V41.7656ZM25.5092 41.7656C26.5919 41.7656 27.5966 41.2019 28.1609 40.2779L25.6007 38.7142C25.5812 38.7461 25.5465 38.7656 25.5092 38.7656V41.7656ZM28.1609 40.2779C28.4856 39.7464 29.0635 39.4222 29.6863 39.4222V36.4222C28.0181 36.4222 26.4702 37.2906 25.6007 38.7142L28.1609 40.2779ZM29.6863 39.4222H29.9234V36.4222H29.6863V39.4222ZM29.9234 39.4222C30.5646 39.4222 31.1615 39.7491 31.5068 40.2893L34.0346 38.6737C33.1381 37.271 31.5882 36.4222 29.9234 36.4222V39.4222ZM31.5068 40.2893C32.0946 41.209 33.1108 41.7656 34.2023 41.7656V38.7656C34.1344 38.7656 34.0712 38.7309 34.0346 38.6737L31.5068 40.2893ZM34.2023 41.7656H40.8874V38.7656H34.2023V41.7656ZM40.8874 41.7656C43.7949 41.7656 46.3443 40.2377 47.7786 37.9482L45.2363 36.3556C44.3275 37.8063 42.7189 38.7656 40.8874 38.7656V41.7656ZM46.5986 35.6547C46.0171 35.6193 45.5553 35.1346 45.5553 34.5433H42.5553C42.5553 36.7304 44.2613 38.5179 46.4163 38.6491L46.5986 35.6547ZM45.5553 34.5433V29.9463H42.5553V34.5433H45.5553ZM45.5553 29.9463C45.5553 29.355 46.0171 28.8704 46.5986 28.835L46.4163 25.8405C44.2614 25.9718 42.5553 27.7592 42.5553 29.9463H45.5553ZM47.7786 26.5414C46.3443 24.2519 43.7949 22.7241 40.8874 22.7241V25.7241C42.7189 25.7241 44.3275 26.6834 45.2363 28.1341L47.7786 26.5414ZM40.8874 22.7241H34.1597V25.7241H40.8874V22.7241ZM35.6597 26.5955V24.2241H32.6597V26.5955H35.6597ZM31.5463 30.709C33.8181 30.709 35.6597 28.8673 35.6597 26.5955H32.6597C32.6597 27.2104 32.1612 27.709 31.5463 27.709V30.709ZM28.1751 30.709H31.5463V27.709H28.1751V30.709ZM24.0616 26.5955C24.0616 28.8673 25.9033 30.709 28.1751 30.709V27.709C27.5601 27.709 27.0616 27.2104 27.0616 26.5955H24.0616ZM24.0616 24.2241V26.5955H27.0616V24.2241H24.0616ZM31.1663 24.2241V26.5955H34.1663V24.2241H31.1663ZM31.1663 26.5955C31.1663 26.3857 31.3365 26.2156 31.5463 26.2156V29.2156C32.9933 29.2156 34.1663 28.0425 34.1663 26.5955H31.1663ZM31.5463 26.2156H28.1751V29.2156H31.5463V26.2156ZM28.1751 26.2156C28.3849 26.2156 28.555 26.3857 28.555 26.5955H25.555C25.555 28.0425 26.7281 29.2156 28.1751 29.2156V26.2156ZM28.555 26.5955V24.2241H25.555V26.5955H28.555ZM32.6663 22.7241H27.055V25.7241H32.6663V22.7241ZM27.055 24.044H32.6663V21.044H27.055V24.044ZM28.555 22.544V21.9985H25.555V22.544H28.555ZM28.555 21.9985C28.555 22.2083 28.3849 22.3784 28.1751 22.3784V19.3784C26.7281 19.3784 25.555 20.5515 25.555 21.9985H28.555ZM28.1751 22.3784H31.5463V19.3784H28.1751V22.3784ZM31.5463 22.3784C31.3365 22.3784 31.1663 22.2083 31.1663 21.9985H34.1663C34.1663 20.5515 32.9933 19.3784 31.5463 19.3784V22.3784ZM31.1663 21.9985V22.544H34.1663V21.9985H31.1663ZM47.1993 27.3263H46.6688V30.3263H47.1993V27.3263ZM46.6688 27.3263C45.2218 27.3263 44.0487 28.4993 44.0487 29.9463H47.0487C47.0487 30.1561 46.8786 30.3263 46.6688 30.3263V27.3263ZM44.0487 29.9463V34.5433H47.0487V29.9463H44.0487ZM44.0487 34.5433C44.0487 35.9903 45.2218 37.1634 46.6688 37.1634V34.1634C46.8786 34.1634 47.0487 34.3335 47.0487 34.5433H44.0487ZM46.6688 37.1634H47.1993V34.1634H46.6688V37.1634ZM48.6277 36.1212C48.8792 35.3368 49.0144 34.502 49.0144 33.6386H46.0144C46.0144 34.1875 45.9286 34.7135 45.7709 35.2055L48.6277 36.1212ZM49.0144 33.6386V30.8511H46.0144V33.6386H49.0144ZM49.0144 30.8511C49.0144 29.9876 48.8792 29.1529 48.6277 28.3684L45.7709 29.2841C45.9286 29.7761 46.0144 30.3021 46.0144 30.8511H49.0144ZM48.9459 37.1634H50.04V34.1634H48.9459V37.1634ZM50.04 37.1634C51.487 37.1634 52.66 35.9903 52.66 34.5433H49.66C49.66 34.3335 49.8301 34.1634 50.04 34.1634V37.1634ZM52.66 34.5433V29.9463H49.66V34.5433H52.66ZM52.66 29.9463C52.66 28.4993 51.487 27.3263 50.04 27.3263V30.3263C49.8301 30.3263 49.66 30.1561 49.66 29.9463H52.66ZM50.04 27.3263H48.9459V30.3263H50.04V27.3263ZM47.4909 29.1907C47.6236 29.7206 47.6944 30.2765 47.6944 30.8511H50.6944C50.6944 30.0288 50.5929 29.2281 50.401 28.4618L47.4909 29.1907ZM47.6944 30.8511V33.6386H50.6944V30.8511H47.6944ZM47.6944 33.6386C47.6944 34.2131 47.6236 34.7691 47.4909 35.2989L50.401 36.0278C50.5929 35.2615 50.6944 34.4608 50.6944 33.6386H47.6944ZM12.5221 37.1634H13.0526V34.1634H12.5221V37.1634ZM13.0526 37.1634C14.4997 37.1634 15.6727 35.9903 15.6727 34.5433H12.6727C12.6727 34.3335 12.8428 34.1634 13.0526 34.1634V37.1634ZM15.6727 34.5433V29.9463H12.6727V34.5433H15.6727ZM15.6727 29.9463C15.6727 28.4993 14.4997 27.3262 13.0526 27.3262V30.3262C12.8428 30.3262 12.6727 30.1561 12.6727 29.9463H15.6727ZM13.0526 27.3262H12.5221V30.3262H13.0526V27.3262ZM11.0937 28.3684C10.8422 29.1529 10.7071 29.9876 10.7071 30.8511H13.7071C13.7071 30.3021 13.7928 29.7761 13.9505 29.2841L11.0937 28.3684ZM10.7071 30.8511V33.6386H13.7071V30.8511H10.7071ZM10.7071 33.6386C10.7071 34.502 10.8422 35.3368 11.0937 36.1212L13.9505 35.2055C13.7928 34.7135 13.7071 34.1875 13.7071 33.6386H10.7071ZM10.7755 27.3262H9.68146V30.3262H10.7755V27.3262ZM9.68146 27.3262C8.23444 27.3262 7.0614 28.4993 7.0614 29.9463H10.0614C10.0614 30.1561 9.89129 30.3262 9.68146 30.3262V27.3262ZM7.0614 29.9463V34.5433H10.0614V29.9463H7.0614ZM7.0614 34.5433C7.0614 35.9903 8.23444 37.1634 9.68145 37.1634V34.1634C9.89129 34.1634 10.0614 34.3335 10.0614 34.5433H7.0614ZM9.68145 37.1634H10.7755V34.1634H9.68145V37.1634ZM12.2305 35.2989C12.0978 34.7691 12.027 34.2131 12.027 33.6386H9.02698C9.02698 34.4608 9.1285 35.2615 9.32044 36.0278L12.2305 35.2989ZM12.027 33.6386V30.8511H9.02698V33.6386H12.027ZM12.027 30.8511C12.027 30.2765 12.0978 29.7206 12.2306 29.1907L9.32044 28.4618C9.1285 29.2281 9.02698 30.0288 9.02698 30.8511H12.027Z" fill="#F8F9FA" mask="url(#path-1-outside-1_50_2542)"/>
<rect x="7.8147" y="28.0686" width="7.10471" height="8.33054" rx="2" fill="#EDF2FF" stroke="#212529" stroke-width="1.6" stroke-linejoin="round"/>
<rect x="44.802" y="28.0686" width="7.10471" height="8.33054" rx="2" fill="#EDF2FF" stroke="#212529" stroke-width="1.6" stroke-linejoin="round"/>
<rect x="26.3083" y="20.1208" width="7.10471" height="8.33054" rx="2" fill="#EDF2FF" stroke="#212529" stroke-width="1.6" stroke-linejoin="round"/>
<path d="M11.3671 31.373C11.3671 26.9548 14.9488 23.373 19.3671 23.373H40.3544C44.7727 23.373 48.3544 26.9548 48.3544 31.373V33.0946C48.3544 37.5129 44.7727 41.0946 40.3544 41.0946H34.2023C33.336 41.0946 32.5294 40.6529 32.0629 39.9229V39.9229C31.5963 39.193 30.7898 38.7512 29.9235 38.7512H29.6863C28.8335 38.7512 28.0422 39.1952 27.5978 39.9229V39.9229C27.1533 40.6507 26.362 41.0946 25.5092 41.0946H19.3671C14.9488 41.0946 11.3671 37.5129 11.3671 33.0946V31.373Z" fill="#BAC8FF" stroke="#212529" stroke-width="1.6" stroke-linejoin="round"/>
<g style="mix-blend-mode:multiply" opacity="0.4">
<path fill-rule="evenodd" clip-rule="evenodd" d="M23.6768 40.6701H25.5091C26.3619 40.6701 27.1532 40.2262 27.5977 39.4984C27.9 39.0034 28.3627 38.6397 28.8961 38.4577C28.64 38.372 28.3686 38.3267 28.091 38.3267H27.8539C27.0011 38.3267 26.2098 38.7706 25.7653 39.4984C25.3208 40.2262 24.5295 40.6701 23.6768 40.6701ZM38.522 40.6701H40.3543C44.7726 40.6701 48.3543 37.0884 48.3543 32.6701V30.9485C48.3543 26.5302 44.7726 22.9485 40.3543 22.9485H38.522C42.9403 22.9485 46.522 26.5302 46.522 30.9485V32.6701C46.522 37.0884 42.9403 40.6701 38.522 40.6701Z" fill="#BAC8FF"/>
</g>
<g style="mix-blend-mode:soft-light" opacity="0.6">
<path d="M13.9067 32.3221C13.3923 31.9874 13.465 30.5213 13.6868 29.4788C13.9136 28.4127 14.4472 26.8466 15.0531 27.0689C15.659 27.2913 15.0112 29.3196 14.7936 29.8142C14.4646 30.7978 14.4212 32.6569 13.9067 32.3221Z" fill="#F8F9FA"/>
</g>
<path d="M36.2861 32.5801C36.2184 32.7415 36.1169 32.8691 35.9814 32.9629C35.8486 33.0566 35.6859 33.1035 35.4932 33.1035C35.3005 33.1035 35.1364 33.0566 35.001 32.9629C34.8656 32.8665 34.764 32.7376 34.6963 32.5762L32.8721 28.1387C32.8356 28.0449 32.8174 27.9486 32.8174 27.8496C32.8174 27.6543 32.876 27.5046 32.9932 27.4004C33.113 27.2936 33.2744 27.2402 33.4775 27.2402C33.6338 27.2428 33.7692 27.278 33.8838 27.3457C34.001 27.4108 34.0856 27.5059 34.1377 27.6309L35.4971 31.002L36.8643 27.6348C36.9163 27.5072 37.001 27.4108 37.1182 27.3457C37.2354 27.278 37.3721 27.2428 37.5283 27.2402C37.7314 27.2402 37.8916 27.2949 38.0088 27.4043C38.126 27.5111 38.1846 27.6621 38.1846 27.8574C38.1846 27.9512 38.165 28.0462 38.126 28.1426L36.2861 32.5801ZM43.2236 32.1426C43.2575 32.1947 43.2861 32.2611 43.3096 32.3418C43.3356 32.4199 43.3486 32.4902 43.3486 32.5527C43.3486 32.735 43.2835 32.877 43.1533 32.9785C43.0231 33.0775 42.859 33.127 42.6611 33.127C42.5309 33.127 42.4202 33.1035 42.3291 33.0566C42.238 33.0124 42.1585 32.9329 42.0908 32.8184L41.083 31.041H40.3174V32.5449C40.3174 32.722 40.2523 32.8639 40.1221 32.9707C39.9945 33.0749 39.8356 33.127 39.6455 33.127C39.4554 33.127 39.2952 33.0749 39.165 32.9707C39.0374 32.8639 38.9736 32.722 38.9736 32.5449V28.0566C38.9736 27.8275 39.0335 27.653 39.1533 27.5332C39.2731 27.4134 39.4463 27.3535 39.6729 27.3535H41.1963C41.6468 27.3535 42.0348 27.4251 42.3604 27.5684C42.6859 27.7116 42.9346 27.9173 43.1064 28.1855C43.2809 28.4538 43.3682 28.7728 43.3682 29.1426C43.3682 29.5202 43.2861 29.8496 43.1221 30.1309C42.9606 30.4095 42.7275 30.627 42.4229 30.7832L43.2236 32.1426ZM40.3174 28.5449V29.8457H41.1494C41.4255 29.8457 41.6403 29.7871 41.7939 29.6699C41.9476 29.5527 42.0244 29.3887 42.0244 29.1777C42.0244 28.959 41.9489 28.7988 41.7979 28.6973C41.6468 28.5957 41.4268 28.5449 41.1377 28.5449H40.3174Z" fill="#212529"/>
</svg>
