<svg width="60" height="60" viewBox="0 0 60 60" fill="none" xmlns="http://www.w3.org/2000/svg">
<mask id="path-1-outside-1_50_340" maskUnits="userSpaceOnUse" x="12.2983" y="4.86725" width="35" height="49" fill="black">
<rect fill="white" x="12.2983" y="4.86725" width="35" height="49"/>
<path fill-rule="evenodd" clip-rule="evenodd" d="M30.0062 6.86725C28.0575 6.86725 26.4778 8.44699 26.4778 10.3957V12.0706H18.1983C16.0444 12.0706 14.2983 13.8167 14.2983 15.9706V48.0111C14.2983 50.165 16.0444 51.9111 18.1983 51.9111H41.8141C43.968 51.9111 45.7141 50.165 45.7141 48.0111V15.9706C45.7141 13.8167 43.968 12.0706 41.8141 12.0706H33.5347V10.3957C33.5347 8.44699 31.9549 6.86725 30.0062 6.86725ZM32.1347 12.0706V10.3957C32.1347 9.22019 31.1817 8.26725 30.0062 8.26725C28.8307 8.26725 27.8778 9.22019 27.8778 10.3957V12.0706H32.1347ZM27.8791 13.8706H32.1333C32.093 15.0106 31.1561 15.9225 30.0062 15.9225C28.8563 15.9225 27.9194 15.0106 27.8791 13.8706ZM26.4786 13.8706C26.5193 15.784 28.0831 17.3225 30.0062 17.3225C31.9293 17.3225 33.4931 15.784 33.5338 13.8706H41.8141C42.9739 13.8706 43.9141 14.8108 43.9141 15.9706V48.0111C43.9141 49.1709 42.9739 50.1111 41.8141 50.1111H18.1983C17.0385 50.1111 16.0983 49.1709 16.0983 48.0111V15.9706C16.0983 14.8108 17.0385 13.8706 18.1983 13.8706H26.4786Z"/>
</mask>
<path fill-rule="evenodd" clip-rule="evenodd" d="M30.0062 6.86725C28.0575 6.86725 26.4778 8.44699 26.4778 10.3957V12.0706H18.1983C16.0444 12.0706 14.2983 13.8167 14.2983 15.9706V48.0111C14.2983 50.165 16.0444 51.9111 18.1983 51.9111H41.8141C43.968 51.9111 45.7141 50.165 45.7141 48.0111V15.9706C45.7141 13.8167 43.968 12.0706 41.8141 12.0706H33.5347V10.3957C33.5347 8.44699 31.9549 6.86725 30.0062 6.86725ZM32.1347 12.0706V10.3957C32.1347 9.22019 31.1817 8.26725 30.0062 8.26725C28.8307 8.26725 27.8778 9.22019 27.8778 10.3957V12.0706H32.1347ZM27.8791 13.8706H32.1333C32.093 15.0106 31.1561 15.9225 30.0062 15.9225C28.8563 15.9225 27.9194 15.0106 27.8791 13.8706ZM26.4786 13.8706C26.5193 15.784 28.0831 17.3225 30.0062 17.3225C31.9293 17.3225 33.4931 15.784 33.5338 13.8706H41.8141C42.9739 13.8706 43.9141 14.8108 43.9141 15.9706V48.0111C43.9141 49.1709 42.9739 50.1111 41.8141 50.1111H18.1983C17.0385 50.1111 16.0983 49.1709 16.0983 48.0111V15.9706C16.0983 14.8108 17.0385 13.8706 18.1983 13.8706H26.4786Z" fill="#F8F9FA"/>
<path d="M26.4778 12.0706V13.5706C27.3062 13.5706 27.9778 12.899 27.9778 12.0706H26.4778ZM33.5347 12.0706H32.0347C32.0347 12.899 32.7062 13.5706 33.5347 13.5706V12.0706ZM32.1347 12.0706V13.5706C32.9631 13.5706 33.6347 12.899 33.6347 12.0706H32.1347ZM27.8778 12.0706H26.3778C26.3778 12.899 27.0493 13.5706 27.8778 13.5706V12.0706ZM32.1333 13.8706L33.6324 13.9236C33.6468 13.5169 33.4952 13.1217 33.2126 12.8289C32.9299 12.536 32.5403 12.3706 32.1333 12.3706V13.8706ZM27.8791 13.8706V12.3706C27.4721 12.3706 27.0825 12.536 26.7999 12.8289C26.5172 13.1217 26.3657 13.5169 26.38 13.9236L27.8791 13.8706ZM26.4786 13.8706L27.9782 13.8387C27.9609 13.0229 27.2945 12.3706 26.4786 12.3706V13.8706ZM33.5338 13.8706V12.3706C32.7179 12.3706 32.0516 13.0229 32.0342 13.8387L33.5338 13.8706ZM27.9778 10.3957C27.9778 9.27542 28.8859 8.36725 30.0062 8.36725V5.36725C27.2291 5.36725 24.9778 7.61857 24.9778 10.3957H27.9778ZM27.9778 12.0706V10.3957H24.9778V12.0706H27.9778ZM18.1983 13.5706H26.4778V10.5706H18.1983V13.5706ZM15.7983 15.9706C15.7983 14.6451 16.8729 13.5706 18.1983 13.5706V10.5706C15.216 10.5706 12.7983 12.9883 12.7983 15.9706H15.7983ZM15.7983 48.0111V15.9706H12.7983V48.0111H15.7983ZM18.1983 50.4111C16.8729 50.4111 15.7983 49.3365 15.7983 48.0111H12.7983C12.7983 50.9934 15.216 53.4111 18.1983 53.4111V50.4111ZM41.8141 50.4111H18.1983V53.4111H41.8141V50.4111ZM44.2141 48.0111C44.2141 49.3365 43.1395 50.4111 41.8141 50.4111V53.4111C44.7964 53.4111 47.2141 50.9934 47.2141 48.0111H44.2141ZM44.2141 15.9706V48.0111H47.2141V15.9706H44.2141ZM41.8141 13.5706C43.1395 13.5706 44.2141 14.6451 44.2141 15.9706H47.2141C47.2141 12.9883 44.7964 10.5706 41.8141 10.5706V13.5706ZM33.5347 13.5706H41.8141V10.5706H33.5347V13.5706ZM32.0347 10.3957V12.0706H35.0347V10.3957H32.0347ZM30.0062 8.36725C31.1265 8.36725 32.0347 9.27542 32.0347 10.3957H35.0347C35.0347 7.61856 32.7833 5.36725 30.0062 5.36725V8.36725ZM33.6347 12.0706V10.3957H30.6347V12.0706H33.6347ZM33.6347 10.3957C33.6347 8.39176 32.0101 6.76725 30.0062 6.76725V9.76725C30.3533 9.76725 30.6347 10.0486 30.6347 10.3957H33.6347ZM30.0062 6.76725C28.0023 6.76725 26.3778 8.39176 26.3778 10.3957H29.3778C29.3778 10.0486 29.6591 9.76725 30.0062 9.76725V6.76725ZM26.3778 10.3957V12.0706H29.3778V10.3957H26.3778ZM27.8778 13.5706H32.1347V10.5706H27.8778V13.5706ZM32.1333 12.3706H27.8791V15.3706H32.1333V12.3706ZM30.0062 17.4225C31.9667 17.4225 33.5636 15.8681 33.6324 13.9236L30.6342 13.8176C30.6224 14.1532 30.3454 14.4225 30.0062 14.4225V17.4225ZM26.38 13.9236C26.4488 15.8681 28.0457 17.4225 30.0062 17.4225V14.4225C29.667 14.4225 29.39 14.1532 29.3782 13.8176L26.38 13.9236ZM30.0062 15.8225C28.9008 15.8225 28.0016 14.938 27.9782 13.8387L24.9789 13.9026C25.037 16.6299 27.2654 18.8225 30.0062 18.8225V15.8225ZM32.0342 13.8387C32.0108 14.938 31.1116 15.8225 30.0062 15.8225V18.8225C32.747 18.8225 34.9754 16.6299 35.0335 13.9026L32.0342 13.8387ZM41.8141 12.3706H33.5338V15.3706H41.8141V12.3706ZM45.4141 15.9706C45.4141 13.9824 43.8023 12.3706 41.8141 12.3706V15.3706C42.1454 15.3706 42.4141 15.6392 42.4141 15.9706H45.4141ZM45.4141 48.0111V15.9706H42.4141V48.0111H45.4141ZM41.8141 51.6111C43.8023 51.6111 45.4141 49.9993 45.4141 48.0111H42.4141C42.4141 48.3424 42.1454 48.6111 41.8141 48.6111V51.6111ZM18.1983 51.6111H41.8141V48.6111H18.1983V51.6111ZM14.5983 48.0111C14.5983 49.9993 16.2101 51.6111 18.1983 51.6111V48.6111C17.867 48.6111 17.5983 48.3424 17.5983 48.0111H14.5983ZM14.5983 15.9706V48.0111H17.5983V15.9706H14.5983ZM18.1983 12.3706C16.2101 12.3706 14.5983 13.9824 14.5983 15.9706H17.5983C17.5983 15.6392 17.867 15.3706 18.1983 15.3706V12.3706ZM26.4786 12.3706H18.1983V15.3706H26.4786V12.3706Z" fill="#F8F9FA" mask="url(#path-1-outside-1_50_340)"/>
<rect x="15.1921" y="12.971" width="29.6157" height="38.0404" rx="3" fill="#22B8CF" stroke="#212529" stroke-width="1.8" stroke-linejoin="round"/>
<g style="mix-blend-mode:multiply" opacity="0.5">
<path fill-rule="evenodd" clip-rule="evenodd" d="M16.3776 49.0413C16.7127 49.6763 17.3796 50.1091 18.1475 50.1091H41.9146C43.0192 50.1091 43.9146 49.2137 43.9146 48.1091V15.8418C43.9146 14.9599 43.3438 14.2114 42.5515 13.9454C42.6666 14.1978 42.7307 14.4784 42.7307 14.774V47.0413C42.7307 48.1459 41.8353 49.0413 40.7307 49.0413H16.3776Z" fill="#22B8CF"/>
</g>
<g style="mix-blend-mode:soft-light" opacity="0.6">
<path fill-rule="evenodd" clip-rule="evenodd" d="M43.6864 14.6698C43.3196 14.2273 42.7656 13.9454 42.1459 13.9454L18.2315 13.9454C17.1269 13.9454 16.2315 14.8408 16.2315 15.9454L16.2315 48.2127C16.2315 48.9813 16.665 49.6487 17.301 49.9835C17.1137 49.6791 17.0057 49.3207 17.0057 48.9371L17.0057 16.6698C17.0057 15.5652 17.9012 14.6698 19.0057 14.6698L43.6864 14.6698Z" fill="#F8F9FA"/>
</g>
<circle cx="30.0001" cy="28.0171" r="7.34832" fill="#FF6B6B" stroke="#212529" stroke-width="1.4" stroke-linejoin="round"/>
<circle cx="30.0001" cy="25.6191" r="2.11644" fill="#F8F9FA" stroke="#212529" stroke-width="1.2" stroke-linejoin="round"/>
<path d="M34.7176 32.5993C33.6921 30.9953 31.9618 29.9417 30.0001 29.9417C28.0544 29.9417 26.3365 30.978 25.3079 32.5599C25.0631 32.9363 25.1654 33.4289 25.5351 33.6838C26.5053 34.353 28.1682 35.2032 30.0001 35.2832C31.8723 35.3649 33.568 34.4316 34.5282 33.6879C34.8654 33.4267 34.9474 32.9587 34.7176 32.5993Z" fill="#F8F9FA" stroke="#212529" stroke-width="1.2" stroke-linejoin="round"/>
<g opacity="0.7">
<path opacity="0.5" d="M23.9425 40.4758H36.0575" stroke="#212529" stroke-width="2" stroke-linecap="round" stroke-linejoin="round"/>
<path opacity="0.5" d="M26.5438 44.564H33.4561" stroke="#212529" stroke-width="2" stroke-linecap="round" stroke-linejoin="round"/>
</g>
<g style="mix-blend-mode:multiply" opacity="0.5">
<path fill-rule="evenodd" clip-rule="evenodd" d="M27.4351 9.65442C27.3861 9.88809 27.3604 10.1303 27.3604 10.3785V14.1337C27.3604 16.0729 28.9324 17.6449 30.8715 17.6449C32.8107 17.6449 34.3827 16.0729 34.3827 14.1337V13.9454H27.4351V9.65442ZM30.7081 6.8711H31.0349C30.9807 6.86862 30.9263 6.86737 30.8715 6.86737C30.8168 6.86737 30.7623 6.86862 30.7081 6.8711Z" fill="#22B8CF"/>
</g>
<rect x="27.1715" y="7.56769" width="5.65691" height="9.05522" rx="2.82845" fill="#22B8CF" stroke="#212529" stroke-width="1.2" stroke-linejoin="round"/>
<circle cx="30.0062" cy="13.4969" r="0.86523" fill="#212529"/>
</svg>
