<?xml version="1.0" encoding="UTF-8" standalone="no"?>
<svg width="16px" height="16px" viewBox="0 0 16 16" version="1.1" xmlns="http://www.w3.org/2000/svg" xmlns:xlink="http://www.w3.org/1999/xlink" xmlns:sketch="http://www.bohemiancoding.com/sketch/ns">
    <!-- Generator: Sketch 3.3.3 (12072) - http://www.bohemiancoding.com/sketch -->
    <title>Oval 1 Copy 35</title>
    <desc>Created with Sketch.</desc>
    <defs></defs>
    <g id="Page-1" stroke="none" stroke-width="1" fill="none" fill-rule="evenodd" sketch:type="MSPage">
        <ellipse id="Oval-1-Copy-35" stroke="#69AF1F" stroke-width="1.5" fill="#69AF1F" sketch:type="MSShapeGroup" cx="8" cy="8" rx="7" ry="7"></ellipse>
        <path d="M7.97897143,3.37622887 C8.19497251,3.37622887 8.37697069,3.45022813 8.52497143,3.59822887 C8.67297217,3.74622961 8.74697143,3.92622781 8.74697143,4.13822887 C8.74697143,4.35022993 8.67297217,4.53022813 8.52497143,4.67822887 C8.37697069,4.82622961 8.19697249,4.90022887 7.98497143,4.90022887 C7.77297037,4.90022887 7.59297217,4.82422963 7.44497143,4.67222887 C7.29697069,4.52022811 7.22297143,4.34222989 7.22297143,4.13822887 C7.22297143,3.93422785 7.29697069,3.75622963 7.44497143,3.60422887 C7.59297217,3.45222811 7.77097039,3.37622887 7.97897143,3.37622887 L7.97897143,3.37622887 Z M8.48297143,12.3762289 L7.48697143,12.3762289 L7.48697143,5.83622887 L8.48297143,5.83622887 L8.48297143,12.3762289 Z" id="i-copy-3" fill="#FFFFFF" sketch:type="MSShapeGroup"></path>
    </g>
</svg>