<svg width="24" height="24" viewBox="0 0 24 24" fill="none" xmlns="http://www.w3.org/2000/svg">
<path d="M24 12C24 18.627 18.627 24 12 24C5.373 24 0 18.627 0 12C0 5.373 5.373 0 12 0C18.627 0 24 5.373 24 12" fill="#577CFF"/>
<path fill-rule="evenodd" clip-rule="evenodd" d="M14.4509 14.4515C14.0108 14.8558 13.5869 15.4656 13.3197 16C13.0344 16.5707 12.749 17.1414 12.5566 17.7121C12.3245 18.4005 11.7308 19 11.0044 19C10.1486 19 9.51736 18.1948 9.69264 17.3572C10.0516 15.6417 10.3197 14 10.3197 14L5.60048 14C4.94991 14 4.47255 13.3886 4.63034 12.7575L6.13034 6.75746C6.24163 6.3123 6.64161 6 7.10048 6L14.3197 6C14.872 6 15.3197 6.44771 15.3197 7L15.3197 13C15.3197 13.5523 14.8577 14.0779 14.4509 14.4515ZM18.5706 6L17.0688 6C16.655 6 16.3197 6.29992 16.3197 6.66787L16.3197 13.3311C16.3197 13.7011 16.655 14 17.0688 14L18.5706 14C18.9844 14 19.3197 13.7011 19.3197 13.3311L19.3197 6.66787C19.3197 6.29992 18.9844 6 18.5706 6Z" fill="white"/>
</svg>