<svg width="24" height="24" viewBox="0 0 24 24" fill="none" xmlns="http://www.w3.org/2000/svg">
<path d="M24 12C24 18.627 18.627 24 12 24C5.373 24 0 18.627 0 12C0 5.373 5.373 0 12 0C18.627 0 24 5.373 24 12" fill="#FF4747"/>
<path d="M15.3437 5.59082C13.3357 5.59082 11.9997 7.85882 11.9997 7.85882C11.9997 7.85882 10.6647 5.59082 8.65675 5.59082C6.64875 5.59082 4.64075 7.23082 4.64075 10.2908C4.64075 13.7478 8.22275 16.9648 11.9997 18.8798C15.7777 16.9648 19.3597 13.7478 19.3597 10.2908C19.3597 7.23082 17.3517 5.59082 15.3437 5.59082" fill="white"/>
</svg>
