<svg width="24" height="24" viewBox="0 0 24 24" fill="none" xmlns="http://www.w3.org/2000/svg">
<rect width="24" height="24" rx="12" fill="#577CFF"/>
<path d="M19.7452 12.4351L13.5303 8.88122C13.4804 8.85291 13.4393 8.81119 13.4118 8.76079C13.3843 8.71038 13.3714 8.65329 13.3746 8.59596L13.5434 5.5473C13.5703 5.14671 13.4253 4.74129 13.1503 4.4487C12.8765 4.16083 12.4838 3.99524 12.0866 4.00011H11.8775C11.4659 4.00011 11.0881 4.16016 10.8116 4.45087C10.5361 4.74267 10.3978 5.13138 10.4207 5.54403L10.5895 8.59596C10.5933 8.65312 10.5809 8.7102 10.5535 8.76053C10.5261 8.81086 10.4849 8.85234 10.4348 8.88014L4.21885 12.434C4.15211 12.4721 4.09669 12.5273 4.05824 12.5939C4.01979 12.6605 3.9997 12.736 4 12.8129L4 14.1118C3.9997 14.1809 4.01587 14.2491 4.04718 14.3107C4.07849 14.3722 4.12403 14.4255 4.18003 14.4659C4.23602 14.5064 4.30086 14.5329 4.36915 14.5433C4.43745 14.5536 4.50723 14.5476 4.57272 14.5256L10.5296 12.557C10.5862 12.5595 10.6411 12.5772 10.6885 12.6082C10.7277 12.6346 10.7605 12.6694 10.7844 12.7101C10.8083 12.7508 10.8228 12.7963 10.8268 12.8434L11.0468 16.4168C11.0509 16.4788 11.0358 16.5406 11.0034 16.5936C10.9711 16.6467 10.9231 16.6884 10.866 16.713L8.98891 17.5949C8.91406 17.6301 8.85075 17.6858 8.80641 17.7556C8.76206 17.8254 8.7385 17.9064 8.73849 17.9891V18.5607C8.73849 18.6925 8.79837 18.8177 8.90181 18.9015C8.95294 18.9418 9.01234 18.9703 9.07577 18.985C9.1392 18.9997 9.20509 19.0002 9.26873 18.9864L11.9624 18.3974L14.6986 18.9897C14.7621 19.0038 14.828 19.0034 14.8914 18.9885C14.9547 18.9736 15.0139 18.9446 15.0644 18.9037C15.1154 18.863 15.1564 18.8112 15.1845 18.7524C15.2126 18.6936 15.227 18.6292 15.2267 18.564V17.9891C15.2267 17.9064 15.2031 17.8254 15.1588 17.7556C15.1144 17.6858 15.0511 17.6301 14.9763 17.5949L13.097 16.7152C13.04 16.6891 12.9924 16.6463 12.9604 16.5924C12.9285 16.5385 12.9138 16.4761 12.9184 16.4136L13.1383 12.8445C13.1421 12.7978 13.1564 12.7525 13.1801 12.7122C13.2039 12.6718 13.2365 12.6374 13.2755 12.6115C13.306 12.5897 13.3605 12.5668 13.5445 12.5755L19.3903 14.5256C19.4558 14.5473 19.5256 14.5531 19.5938 14.5426C19.662 14.5321 19.7268 14.5056 19.7828 14.4652C19.8388 14.4249 19.8844 14.3718 19.916 14.3103C19.9475 14.2489 19.964 14.1809 19.9641 14.1118V12.814C19.9645 12.7371 19.9444 12.6615 19.906 12.5949C19.8675 12.5283 19.812 12.4731 19.7452 12.4351Z" fill="white"/>
</svg>
