<svg width="24" height="24" viewBox="0 0 24 24" fill="none" xmlns="http://www.w3.org/2000/svg">
<rect width="24" height="24" rx="12" fill="#20C07D"/>
<path d="M4.79897 15.6677C4.17362 15.7787 3.75667 16.3756 3.86769 17.001C3.97871 17.6263 4.57566 18.0433 5.20101 17.9322L4.79897 15.6677ZM7.84138 16.2955L8.04239 17.4278C8.28918 17.384 8.5149 17.2608 8.6852 17.0768L7.84138 16.2955ZM9.22068 16.4985L10.002 15.6547L8.31436 14.0921L7.53304 14.9359L9.22068 16.4985ZM5.20101 17.9322L8.04239 17.4278L7.64036 15.1632L4.79897 15.6677L5.20101 17.9322ZM8.6852 17.0768L9.22068 16.4985L7.53304 14.9359L6.99755 15.5142L8.6852 17.0768Z" fill="white"/>
<circle cx="16.7406" cy="6.45446" r="2.16844" transform="rotate(-8.16679 16.7406 6.45446)" fill="white"/>
<path d="M8.41443 7.42512L11.0918 6.88964L14.3532 9.56705L9.98329 13.6181L13.6831 16.831L13.1477 20.0439" stroke="white" stroke-width="2.3" stroke-linecap="round" stroke-linejoin="round"/>
<path d="M16.764 12.4567L15.9233 13.2414C16.2449 13.5859 16.7443 13.6994 17.1832 13.5276L16.764 12.4567ZM19.9192 12.4566C20.5106 12.2251 20.8024 11.558 20.5709 10.9666C20.3394 10.3751 19.6723 10.0833 19.0809 10.3148L19.9192 12.4566ZM14.424 11.6349L15.9233 13.2414L17.6047 11.672L16.1054 10.0656L14.424 11.6349ZM17.1832 13.5276L19.9192 12.4566L19.0809 10.3148L16.3449 11.3858L17.1832 13.5276Z" fill="white"/>
<path d="M11.7672 8.93115C12.158 8.48716 12.8347 8.44402 13.2787 8.8348L13.6411 9.15375C14.0851 9.54453 14.1282 10.2213 13.7374 10.6652L9.87817 15.05L8.71187 14.0235C8.26787 13.6327 8.22474 12.956 8.61552 12.512L11.7672 8.93115Z" fill="white"/>
</svg>
