<svg width="24" height="24" viewBox="0 0 24 24" fill="none" xmlns="http://www.w3.org/2000/svg">
<mask id="mask0_219_2281" style="mask-type:alpha" maskUnits="userSpaceOnUse" x="0" y="0" width="24" height="24">
<path fill-rule="evenodd" clip-rule="evenodd" d="M0 0H24V23.9999H0V0Z" fill="white"/>
</mask>
<g mask="url(#mask0_219_2281)">
<path d="M24 11.9999C24 18.6279 18.627 23.9999 12 23.9999C5.373 23.9999 0 18.6279 0 11.9999C0 5.37289 5.373 -0.000106812 12 -0.000106812C18.627 -0.000106812 24 5.37289 24 11.9999" fill="#577CFF"/>
</g>
<path d="M10.387 13.0065H7.02055C6.68506 13.0065 6.50232 12.6147 6.71793 12.3577L13.5835 4.17282C13.8457 3.86022 14.352 4.10196 14.2738 4.5024L13.1848 10.077H16.2584C16.5933 10.077 16.7762 10.4676 16.5618 10.7249L9.23049 19.5196C8.95538 19.8497 8.42555 19.5652 8.54866 19.1535L10.387 13.0065Z" fill="white"/>
</svg>
