<svg width="24" height="24" viewBox="0 0 24 24" fill="none" xmlns="http://www.w3.org/2000/svg">
<circle cx="12" cy="12" r="12" fill="#20C07D"/>
<path d="M7.44497 19.2701C8.06901 19.2701 8.8227 19.1137 9.65105 18.8009C11.4687 18.1158 13.4452 16.7617 15.218 14.9888C16.9912 13.216 18.3452 11.2383 19.0308 9.42105C19.6549 7.76827 19.6564 6.41214 19.0359 5.7916C18.9466 5.70179 18.8553 5.60594 18.7614 5.50756C18.1949 4.91173 17.5396 4.22963 16.7062 4.27201C16.121 4.29622 15.5545 4.65947 14.9738 5.38092C13.2606 7.51299 14.0324 8.27278 14.9264 9.15366L15.0843 9.31006C15.2306 9.45637 15.508 10.1344 12.9352 12.7059C12.0952 13.5454 11.3794 14.1599 10.8078 14.5318C10.4476 14.7658 9.80542 15.1205 9.53956 14.8556L9.38065 14.6952C8.50084 13.8022 7.74059 13.0323 5.61018 14.7452C4.88827 15.3254 4.52606 15.8914 4.50134 16.4771C4.46653 17.3252 5.14253 17.967 5.73832 18.533C5.83669 18.6269 5.93254 18.7177 6.02183 18.8065C6.33158 19.1157 6.82446 19.2701 7.44497 19.2701Z" fill="white"/>
</svg>
