<?xml version="1.0" encoding="UTF-8"?>
<svg width="24px" height="24px" viewBox="0 0 24 24" version="1.1" xmlns="http://www.w3.org/2000/svg" xmlns:xlink="http://www.w3.org/1999/xlink">
    <!-- Generator: Sketch 46.2 (44496) - http://www.bohemiancoding.com/sketch -->
    <title>Export</title>
    <desc>Created with Sketch.</desc>
    <defs>
        <linearGradient x1="50%" y1="0%" x2="50%" y2="100%" id="linearGradient-1">
            <stop stop-color="#FFFFFF" offset="0%"></stop>
            <stop stop-color="#F5F2F6" offset="100%"></stop>
        </linearGradient>
        <path d="M3.00067489,3.00033753 L9.75280998,3.00261657 L9.75280998,3.00261657 C9.99037625,3.00269675 10.2201544,3.08735077 10.4009898,3.24141662 L15.6491923,7.7127129 L15.6491923,7.7127129 C15.872201,7.90270899 16.0006749,8.18094285 16.0006749,8.4739128 L16.0006749,20 L16.0006749,20 C16.0006749,20.5522847 15.5529597,21 15.0006749,21 L3.00067494,21 L3.00067494,21 C2.44839019,21 2.00067494,20.5522847 2.00067494,20 L2.00067494,4 L2.00033747,4 C2.00033747,3.44771525 2.44805272,3 3.00033747,3 C3.00044998,3 3.00056249,3.00000002 3.000675,3.00000006 Z" id="path-2"></path>
        <linearGradient x1="50%" y1="4.43638393%" x2="50%" y2="100%" id="linearGradient-3">
            <stop stop-color="#FF964A" offset="0%"></stop>
            <stop stop-color="#FF774A" offset="100%"></stop>
        </linearGradient>
        <polygon id="path-4" points="10.0044735 3.02783364 10.0044735 8.0181807 15.97614 8.0181807"></polygon>
    </defs>
    <g id="edit-page" stroke="none" stroke-width="1" fill="none" fill-rule="evenodd">
        <g id="Export">
            <g id="Group-Copy-5">
                <rect id="Rectangle" x="0" y="0" width="24" height="24"></rect>
                <g id="Rectangle-3">
                    <use fill="url(#linearGradient-1)" fill-rule="evenodd" xlink:href="#path-2"></use>
                    <path stroke="#919191" stroke-width="0.5" d="M2.97787822,3.25032985 C2.58159934,3.26198443 2.2624628,3.5810376 2.25067494,3.97728302 L2.25067494,20 C2.25067494,20.4142136 2.58646138,20.75 3.00067494,20.75 L15.0006749,20.75 C15.4148885,20.75 15.7506749,20.4142136 15.7506749,20 L15.7506749,8.4739128 C15.7506749,8.25418534 15.6543195,8.04550994 15.4870629,7.90301288 L10.2388604,3.43171659 C10.1032339,3.31616721 9.9309003,3.25267669 9.7527256,3.25261655 L2.97787822,3.25032985 Z"></path>
                </g>
                <path d="M19.8277683,16.5681375 L11.0024733,16.5681375 C10.4488226,16.5681375 10,16.1242727 10,15.5681375 C10,15.0158527 10.455761,14.5681375 11.0024733,14.5681375 L19.8838055,14.5681375 L18.0271976,12.7115296 C17.6355293,12.3198614 17.6318793,11.6884917 18.0251263,11.2952447 C18.4156506,10.9047204 19.0418619,10.8977668 19.4414112,11.2973161 L22.9728024,14.8287073 C23.1744542,15.0303591 23.2732524,15.2955496 23.2679852,15.559068 C23.2635385,15.8099806 23.1647824,16.0595505 22.9728024,16.2515306 L19.4414112,19.7829218 C19.0418619,20.182471 18.4156506,20.1755174 18.0251263,19.7849931 C17.6318793,19.3917462 17.6355293,18.7603765 18.0271976,18.3687082 L19.8277683,16.5681375 Z" id="Combined-Shape" stroke="#E3701C" stroke-width="0.5" fill="url(#linearGradient-3)"></path>
                <g id="Path-3">
                    <use fill="url(#linearGradient-1)" fill-rule="evenodd" xlink:href="#path-4"></use>
                    <path stroke="#919191" stroke-width="0.5" d="M10.2544735,3.5625528 L10.2544735,7.7681807 L15.2871109,7.7681807 L10.2544735,3.5625528 Z"></path>
                </g>
            </g>
        </g>
    </g>
</svg>